<?xml version="1.0" standalone="no"?>
<!DOCTYPE svg PUBLIC "-//W3C//DTD SVG 1.1//EN" "http://www.w3.org/Graphics/SVG/1.1/DTD/svg11.dtd" >
<svg xmlns="http://www.w3.org/2000/svg" xmlns:xlink="http://www.w3.org/1999/xlink" version="1.1">
<metadata>
Created by FontForge 20201107 at Fri Oct 24 12:43:49 2014
 By fANhAN iNSiDE
Copyright (c) SIL International, 1997-2014.
</metadata>
<defs>
<font id="CharisSIL-Bold" horiz-adv-x="0" >
  <font-face 
    font-family="Charis SIL"
    font-weight="700"
    font-stretch="normal"
    units-per-em="2048"
    panose-1="2 0 8 0 7 0 0 2 0 4"
    ascent="1638"
    descent="-410"
    x-height="999"
    cap-height="1374"
    bbox="-1475 -1092 6144 2600"
    underline-thickness="120"
    underline-position="-350"
    unicode-range="U+0020-1D519"
  />
<missing-glyph horiz-adv-x="1400" 
d="M150 50h1100v1700h-1100v-1700zM100 1800h1200v-1800h-1200v1800z" />
    <glyph glyph-name="f_i" unicode="fi" horiz-adv-x="1393" 
d="M774 0v96l96 6q19 2 32 15.5t13 32.5v694h-448v-694q0 -19 12.5 -33.5t32.5 -14.5l125 -6v-96h-594v96l104 6q19 2 32.5 15.5t13.5 32.5v694h-134v82l131 67q0 79 21 148t61 135q31 51 72 94.5t90.5 76t107 51t122.5 18.5q30 0 64.5 -9.5t64 -29t48.5 -51t19 -74.5
q0 -24 -10.5 -45t-28 -38.5t-40.5 -30.5t-48 -21l-203 190q-15 -23 -27.5 -48.5t-20.5 -61t-12.5 -84.5t-4.5 -119v-119h534l84 51h105v-876q0 -19 14 -32.5t33 -15.5l98 -6v-96h-559zM1217 1358q0 -33 -12.5 -62t-34.5 -51t-51 -34.5t-62 -12.5t-62 12.5t-51 34.5t-34.5 51
t-12.5 62t12.5 62t34.5 50t51 33.5t62 12.5t62 -12.5t51 -33.5t34.5 -50t12.5 -62z" />
    <glyph glyph-name="f_l" unicode="fl" horiz-adv-x="1393" 
d="M770 0v96l100 6q20 2 32.5 15t12.5 33v1179h-61q-14 -34 -47.5 -66t-73.5 -46l-203 190q-15 -23 -27.5 -48.5t-20.5 -61t-12.5 -84.5t-4.5 -119v-119h223v-131h-221v-694q0 -19 12.5 -33.5t32.5 -14.5l125 -6v-96h-594v96l104 6q19 2 32.5 15.5t13.5 32.5v694h-134v82
l131 67q0 81 22 151t64 136q31 50 71.5 93t89.5 75t106 50t121 18q24 0 49.5 -6t50 -17.5t45.5 -29t35 -40.5l239 93h105v-1366q0 -20 12.5 -33t32.5 -15l102 -6v-96h-565z" />
    <glyph glyph-name="f_f_i" unicode="ffi" horiz-adv-x="2101" 
d="M1485 0v96l94 6q20 2 32.5 15.5t12.5 32.5v694h-448v-694q0 -19 13 -33.5t32 -14.5l125 -6v-96h-592v96l102 6q20 2 33.5 15.5t13.5 32.5v694h-436v-694q0 -19 12.5 -33.5t32.5 -14.5l125 -6v-96h-594v96l104 6q19 2 32.5 15.5t13.5 32.5v694h-134v82l131 67
q0 98 34.5 192t96.5 167.5t149.5 118.5t193.5 45q30 0 64.5 -9.5t64 -29t48.5 -51t19 -74.5q0 -24 -10.5 -45t-28 -38.5t-40.5 -30.5t-48 -21l-203 190q-15 -23 -27.5 -48.5t-20.5 -61t-12.5 -84.5t-4.5 -119v-119h434q0 68 14.5 134.5t42 126.5t68 111.5t93.5 89
t117.5 58.5t139.5 21q31 0 65.5 -9.5t63.5 -29t48.5 -51t19.5 -74.5q0 -24 -10.5 -45t-28.5 -38.5t-41 -30.5t-47 -21l-205 190q-15 -23 -27.5 -48.5t-20.5 -61t-12.5 -84.5t-4.5 -119v-119h534l84 51h106v-876q0 -19 14.5 -32.5t33.5 -15.5l98 -6v-96h-559zM1925 1358
q0 -33 -12.5 -62t-34.5 -51t-51 -34.5t-62 -12.5t-61.5 12.5t-50 34.5t-33.5 51t-12 62t12 62t33.5 50t50 33.5t61.5 12.5t62 -12.5t51 -33.5t34.5 -50t12.5 -62z" />
    <glyph glyph-name="f_f_l" unicode="ffl" horiz-adv-x="2103" 
d="M1481 0v96l98 6q22 2 33.5 15t11.5 33v1179h-61q-7 -17 -19.5 -34t-28 -32t-34 -27t-37.5 -19l-205 190q-15 -23 -27.5 -48.5t-20.5 -61t-12.5 -84.5t-4.5 -119v-119h225v-131h-223v-694q0 -19 13 -33.5t32 -14.5l125 -6v-96h-592v96l102 6q20 2 33.5 15.5t13.5 32.5v694
h-436v-694q0 -19 12.5 -33.5t32.5 -14.5l125 -6v-96h-594v96l104 6q19 2 32.5 15.5t13.5 32.5v694h-134v82l131 67q0 98 34.5 192t96.5 167.5t149.5 118.5t193.5 45q30 0 64.5 -9.5t64 -29t48.5 -51t19 -74.5q0 -24 -10.5 -45t-28 -38.5t-40.5 -30.5t-48 -21l-203 190
q-15 -23 -27.5 -48.5t-20.5 -61t-12.5 -84.5t-4.5 -119v-119h434q0 68 14.5 134.5t42 126.5t68 111.5t93.5 89t117.5 58.5t139.5 21q23 0 49 -6t50.5 -17.5t45 -29t33.5 -40.5l240 93h106v-1366q0 -20 13 -33t33 -15l102 -6v-96h-565z" />
    <glyph glyph-name="f_f" unicode="ff" horiz-adv-x="1419" 
d="M1571 1352q0 -24 -10.5 -45t-28.5 -38.5t-41 -30.5t-47 -21l-205 190q-15 -23 -27.5 -48.5t-20.5 -61t-12.5 -84.5t-4.5 -119v-119h225v-131h-223v-694q0 -19 13 -33.5t32 -14.5l125 -6v-96h-592v96l102 6q20 2 33.5 15.5t13.5 32.5v694h-436v-694q0 -19 12.5 -33.5
t32.5 -14.5l125 -6v-96h-594v96l104 6q19 2 32.5 15.5t13.5 32.5v694h-134v82l131 67q0 98 34.5 192t96.5 167.5t149.5 118.5t193.5 45q30 0 64.5 -9.5t64 -29t48.5 -51t19 -74.5q0 -24 -10.5 -45t-28 -38.5t-40.5 -30.5t-48 -21l-203 190q-15 -23 -27.5 -48.5t-20.5 -61
t-12.5 -84.5t-4.5 -119v-119h434q0 68 14.5 134.5t42 126.5t68 111.5t93.5 89t117.5 58.5t139.5 21q31 0 65.5 -9.5t63.5 -29t48.5 -51t19.5 -74.5z" />
    <glyph glyph-name=".notdef" horiz-adv-x="1400" 
d="M150 50h1100v1700h-1100v-1700zM100 1800h1200v-1800h-1200v1800z" />
    <glyph glyph-name=".null" 
 />
    <glyph glyph-name="nonmarkingreturn" horiz-adv-x="1024" 
 />
    <glyph glyph-name="space" unicode=" " horiz-adv-x="600" 
 />
    <glyph glyph-name="exclam" unicode="!" horiz-adv-x="696" 
d="M514 143q0 -35 -13.5 -66t-36 -53.5t-52 -35.5t-62.5 -13q-25 0 -54 9.5t-54 29.5t-41.5 52t-16.5 77q0 40 15 70.5t39 50.5t53.5 30.5t58.5 10.5q28 0 57.5 -11t53 -32t38.5 -51t15 -68zM406 426h-111l-113 815q0 43 13.5 74.5t36 51.5t53 30t65.5 10q34 0 64.5 -9.5
t53 -29.5t35.5 -51.5t13 -75.5z" />
    <glyph glyph-name="quotedbl" unicode="&#x22;" horiz-adv-x="803" 
d="M162 854l-80 479q0 57 27.5 93t89.5 36t90 -36t28 -93l-79 -479h-76zM563 854l-80 479q0 57 27.5 93t89.5 36q63 0 92 -36t29 -93l-82 -479h-76z" />
    <glyph glyph-name="numbersign" unicode="#" horiz-adv-x="1518" 
d="M678 848l-90 -270h254l94 270h-258zM1079 848l-88 -270h318v-129h-363l-155 -498l-142 35l152 463h-256l-160 -498l-137 37l153 461h-274v129h315l88 270h-303v135h346l158 471l137 -37l-151 -434h266l152 471l141 -39l-154 -432h269v-135h-312z" />
    <glyph glyph-name="dollar" unicode="$" horiz-adv-x="1202" 
d="M834 346q0 51 -19 86t-46.5 58t-59.5 36.5t-58 20.5v-414q51 7 91 32q17 10 33.5 26t29.5 37.5t21 50.5t8 67zM530 1237q-41 -6 -74 -27q-28 -19 -50.5 -56t-22.5 -103q0 -63 22.5 -102t50.5 -61q33 -26 74 -38v387zM1094 420q0 -88 -32.5 -159t-91.5 -124t-140.5 -87
t-178.5 -48v-211h-121v209q-71 3 -144 12q-63 8 -136 21t-139 35v354h145l43 -240q32 -20 72 -31t75 -16q41 -6 84 -8v451q-38 11 -83 26t-90.5 36t-87.5 50.5t-74.5 70t-52 94t-19.5 122.5q0 70 17.5 124t46 95t65 69.5t74.5 47.5q90 45 204 55v152h121v-152
q63 0 128.5 -9.5t119.5 -20.5q63 -13 123 -29v-342h-141l-39 227q-2 7 -27.5 15.5t-58 16t-63 12.5t-42.5 5v-422q34 -9 80 -22.5t95 -34t97 -50t86 -71t61.5 -96.5t23.5 -127z" />
    <glyph glyph-name="percent" unicode="%" horiz-adv-x="1831" 
d="M541 979q0 94 -10 158t-27 102.5t-41 55t-51 16.5q-29 0 -55 -16.5t-46.5 -55t-32.5 -102.5t-12 -158q0 -95 12 -159t32.5 -103t46.5 -55.5t55 -16.5q27 0 51 16.5t41 55.5t27 103t10 159zM1548 395q0 94 -9.5 158t-26.5 102.5t-41 55t-52 16.5q-27 0 -52.5 -16.5
t-44.5 -55t-30.5 -102.5t-11.5 -158q0 -95 11.5 -158.5t30.5 -102t44.5 -55t52.5 -16.5q28 0 52 16.5t41 55t26.5 102t9.5 158.5zM762 979q0 -100 -22 -179.5t-65.5 -135t-109.5 -85.5t-153 -30q-88 0 -154 30t-110.5 85.5t-66.5 135t-22 179.5t22 179t66.5 134.5t110.5 85
t154 29.5q87 0 153 -29.5t109.5 -85t65.5 -134.5t22 -179zM563 0h-145l850 1374h147zM1772 395q0 -100 -22.5 -179t-66.5 -134.5t-110 -85t-154 -29.5q-87 0 -152.5 29.5t-109 85t-65 134.5t-21.5 179t21.5 179.5t65 134.5t109 84.5t152.5 29.5q88 0 154 -29.5t110 -84.5
t66.5 -134.5t22.5 -179.5z" />
    <glyph glyph-name="ampersand" unicode="&#x26;" horiz-adv-x="1505" 
d="M1026 0v49l-86 96q-48 -48 -111 -85q-27 -16 -60 -31.5t-72 -27.5t-83.5 -19t-93.5 -7q-99 0 -180.5 29t-139.5 81.5t-90 126.5t-32 165q0 73 20.5 129t58.5 99t91 73t117 51q-3 2 -16 12q-15 11 -36 30.5t-45 47t-44.5 63t-34 78.5t-13.5 93q0 85 35.5 150t96 109
t141.5 66.5t172 22.5q40 0 85.5 -6t90.5 -21t86.5 -39t73 -59.5t50.5 -84.5t19 -112q0 -69 -21 -120t-53 -88.5t-70 -62t-72 -39t-59.5 -21t-31.5 -7.5l315 -327q24 31 45 67q18 31 36 72.5t28 89.5q1 9 -7 21t-14 14l-106 18v97h430v-97l-141 -28q-25 -81 -58 -144
t-62 -107q-35 -51 -71 -89l193 -207l166 -17v-104h-447zM451 657q-28 -19 -49 -45q-18 -23 -33 -58t-15 -83q0 -87 26.5 -148t69.5 -99t97 -55t108 -17q52 0 89.5 12.5t62.5 27.5q29 18 49 41zM772 1075q0 42 -11 79t-32 64.5t-51 43.5t-68 16q-35 0 -65 -12t-52 -33
t-34.5 -50.5t-12.5 -64.5q0 -34 10.5 -67.5t34 -69.5t60.5 -77t90 -89q31 28 55.5 56t41.5 58.5t25.5 66t8.5 79.5z" />
    <glyph glyph-name="quotesingle" unicode="'" horiz-adv-x="360" 
d="M143 854l-80 479q0 57 27 93t90 36q62 0 90.5 -36t28.5 -93l-82 -479h-74z" />
    <glyph glyph-name="parenleft" unicode="(" horiz-adv-x="803" 
d="M733 -291q-151 4 -265.5 67t-191.5 177t-116 275t-39 362q0 200 39 360.5t116 274t191.5 176t265.5 67.5v-110q-108 -15 -176.5 -77.5t-107.5 -163.5t-53.5 -235.5t-14.5 -291.5q0 -158 14.5 -292.5t53.5 -235.5t107.5 -164t176.5 -78v-111z" />
    <glyph glyph-name="parenright" unicode=")" horiz-adv-x="803" 
d="M682 590q0 -201 -39 -362t-116.5 -275t-192 -177t-264.5 -67v111q107 15 175.5 78t107.5 164t54 235.5t15 292.5q0 157 -15 291.5t-54 235.5t-107.5 163.5t-175.5 77.5v110q150 -5 264.5 -67.5t192 -176t116.5 -274t39 -360.5z" />
    <glyph glyph-name="asterisk" unicode="*" horiz-adv-x="1024" 
d="M418 733l-156 -41l-6 160l219 160l25 -25zM463 1038l-266 -2l-88 133l147 60l219 -162zM762 692l-156 41l-82 254l25 25l219 -160zM528 1092h-34l-84 256l102 122l102 -122zM825 1036l-264 2l-14 31l217 160l151 -60z" />
    <glyph glyph-name="plus" unicode="+" horiz-adv-x="2048" 
d="M1087 551v-551h-126v551h-551v127h551v551h126v-551h551v-127h-551z" />
    <glyph glyph-name="comma" unicode="," horiz-adv-x="651" 
d="M496 121q0 -64 -18 -123t-48.5 -111.5t-72 -96t-88.5 -76t-97.5 -52t-99.5 -22.5v100q39 6 83.5 22.5t81.5 48.5t60 81.5t20 121.5h-124q-19 15 -31 31.5t-19.5 33.5t-10.5 34t-3 32q0 39 14.5 70.5t38.5 54t55 35t64 12.5q93 0 144 -53t51 -143z" />
    <glyph glyph-name="hyphen" unicode="-" horiz-adv-x="672" 
d="M68 385v217h536v-217h-536z" />
    <glyph glyph-name="period" unicode="." horiz-adv-x="651" 
d="M471 145q0 -35 -13 -66t-36 -54t-54 -36.5t-67 -13.5q-35 0 -66.5 13.5t-55 36.5t-37 54t-13.5 66q0 36 13.5 67t37 54.5t55 37t66.5 13.5q36 0 67 -13.5t54 -37t36 -54.5t13 -67z" />
    <glyph glyph-name="slash" unicode="/" horiz-adv-x="1026" 
d="M160 -190h-160l864 1564h162z" />
    <glyph glyph-name="zero" unicode="0" horiz-adv-x="1202" 
d="M831 686q0 44 -2 105.5t-9 127.5t-21.5 130.5t-40.5 116t-64.5 83t-93.5 31.5t-93 -31.5t-63 -83t-39.5 -116t-21.5 -130.5t-8.5 -127.5t-1.5 -105.5q0 -45 1.5 -106t8.5 -126.5t21.5 -129.5t39.5 -114.5t63 -82t93 -31.5t93.5 31.5t64.5 82t40.5 114.5t21.5 129.5
t9 126.5t2 106zM1130 686q0 -144 -30.5 -273.5t-95 -226.5t-164.5 -154t-240 -57q-139 0 -238.5 57t-163.5 154t-94 226.5t-30 273.5t30 273t94 227t163.5 155.5t238.5 57.5q140 0 240 -57.5t164.5 -155.5t95 -227t30.5 -273z" />
    <glyph glyph-name="one" unicode="1" horiz-adv-x="1202" 
d="M236 0v106l176 7q18 2 31.5 14t13.5 31v1024l-305 -43v108l442 160h151v-1249q0 -19 13.5 -31t32.5 -14l161 -7v-106h-716z" />
    <glyph glyph-name="two" unicode="2" horiz-adv-x="1202" 
d="M88 0v170q41 34 107.5 82.5t142 109t152 131.5t138.5 150t101 164.5t39 175.5q0 61 -18 113.5t-51 91t-80 60.5t-105 22q-21 0 -35.5 -2.5t-27 -6t-25 -8.5t-29.5 -10v-276q-22 -11 -45 -20q-20 -8 -44.5 -13.5t-49.5 -5.5q-75 0 -114.5 41.5t-39.5 109.5
q0 64 24.5 113.5t65.5 86t93.5 61t108 39.5t110 21.5t98.5 6.5q97 0 182 -29t148 -82t99 -128t36 -167q0 -110 -53.5 -208t-148.5 -192t-225 -187t-282 -193h582l39 180h131v-401h-1024z" />
    <glyph glyph-name="three" unicode="3" horiz-adv-x="1202" 
d="M1112 393q0 -67 -22.5 -124t-62.5 -104.5t-95.5 -84.5t-121 -62t-139 -38t-149.5 -13q-100 0 -180 23t-136.5 61.5t-87 87t-30.5 99.5q0 43 14.5 70t37 43t49.5 22t51 6q27 0 49 -5.5t39 -13.5l65 -231q34 -9 71 -22t79 -13q53 0 101.5 22.5t85.5 61t59 91t22 112.5
q0 48 -18 93.5t-54 80t-89.5 55.5t-125.5 21q-23 0 -48 -1.5t-46 -3.5q-25 -3 -49 -5v153q17 -2 30 -2h27q58 0 116 11.5t104.5 40.5t76 77.5t29.5 122.5q0 49 -20 93.5t-55 78.5t-83 54t-104 20q-15 0 -33.5 -4t-35.5 -9q-19 -5 -40 -12v-252q-28 -18 -57 -23t-53 -5
q-32 0 -61 9t-51 27t-35 45.5t-13 65.5q0 64 38 118t103 93.5t151 61.5t183 22q84 0 167 -22t149 -66.5t107.5 -112t41.5 -159.5q0 -65 -22 -114t-56 -84.5t-75.5 -59t-80 -38t-69.5 -21.5q-28 -6 -42 -7q13 -1 44 -3q35 -3 79.5 -14.5t92 -33.5t87.5 -59t65.5 -91
t25.5 -129z" />
    <glyph glyph-name="four" unicode="4" horiz-adv-x="1202" 
d="M702 1090l-430 -539h430v539zM963 385v-418h-261v416h-628v176l667 848h222v-856h167v-166h-167z" />
    <glyph glyph-name="five" unicode="5" horiz-adv-x="1202" 
d="M1120 465q0 -116 -51.5 -208t-137 -156.5t-196 -99t-227.5 -34.5q-78 0 -154 17t-136 51t-97 84.5t-37 116.5q0 23 9.5 46.5t28 43t46.5 31.5t65 12q20 0 42.5 -5t50.5 -14l65 -244q25 -4 46 -8q18 -3 35.5 -5.5t25.5 -2.5q89 0 151.5 34t102 82.5t57.5 100.5t18 88
q0 69 -28.5 123.5t-78 92.5t-116 58.5t-141.5 20.5q-53 0 -106 -5.5t-97 -11.5q-51 -7 -98 -16v717h880v-227h-706v-330q43 13 90 24q40 9 90 17t102 8q110 0 202 -29.5t159 -82.5t104 -126.5t37 -162.5z" />
    <glyph glyph-name="six" unicode="6" horiz-adv-x="1202" 
d="M838 432q0 67 -16 123t-49 96t-84 62t-120 22q-44 0 -80.5 -7t-62.5 -15q-31 -10 -55 -21q-4 -35 -4.5 -66.5t0.5 -54.5q1 -28 2 -51q0 -71 14 -145.5t45 -135.5t79 -100t116 -39q54 0 94 27.5t67 73.5t40.5 106t13.5 125zM1130 494q0 -119 -40.5 -216.5t-110.5 -166.5
t-162.5 -106.5t-195.5 -37.5q-129 0 -231 41t-172 121t-107 197.5t-37 269.5q0 201 63.5 354t179.5 255t278.5 153t360.5 49v-160l-90 10q-111 -8 -195 -41.5t-142.5 -91t-94.5 -137.5t-51 -180q42 28 93 51q43 19 100.5 35t123.5 16q108 0 188.5 -37.5t134 -97t80.5 -133.5
t27 -147z" />
    <glyph glyph-name="seven" unicode="7" horiz-adv-x="1202" 
d="M310 29v-62h-262l668 1161h-592l-31 -190h-143v436h1050v-145z" />
    <glyph glyph-name="eight" unicode="8" horiz-adv-x="1202" 
d="M850 305q0 50 -20.5 90t-53.5 71.5t-75.5 56.5t-86.5 44.5t-85.5 36t-73.5 31.5q-9 -12 -29 -32.5t-40 -50.5t-35 -70t-15 -91q0 -60 21 -113.5t57.5 -93t85.5 -63t104 -23.5q48 0 92 13.5t78.5 40t55 65t20.5 88.5zM823 1030q0 48 -15.5 92.5t-44 79t-68.5 55.5t-89 21
q-41 0 -76.5 -15.5t-62 -42t-42 -62.5t-15.5 -77q0 -61 27 -106t71.5 -80t100.5 -62.5t114 -52.5q15 16 32.5 40t32.5 55.5t25 70.5t10 84zM1128 377q0 -105 -45.5 -182t-121 -127.5t-173 -75.5t-200.5 -25q-111 0 -205.5 30.5t-163 84.5t-107 128t-38.5 161q0 83 30 138
t73.5 90.5t93 55t87.5 31.5q-31 12 -70.5 37.5t-75 64t-59.5 90t-24 115.5q0 116 44.5 195.5t116.5 128t161.5 69.5t179.5 21q81 0 160.5 -22t142.5 -67t102 -112.5t39 -158.5q0 -73 -25 -124.5t-63 -88t-82.5 -61t-83.5 -42.5q14 -5 42 -14.5t62.5 -27t70 -43.5t65 -63.5
t48.5 -88.5t19 -117z" />
    <glyph glyph-name="nine" unicode="9" horiz-adv-x="1202" 
d="M836 852q0 73 -14.5 148t-45.5 136t-79 99.5t-115 38.5q-54 0 -94.5 -27.5t-67 -74t-40 -107t-13.5 -125.5q0 -68 16 -123.5t49 -95.5t83.5 -62t119.5 -22q43 0 80 6.5t63 14.5q31 10 56 22q2 34 2.5 65t0.5 55q0 28 -1 52zM1130 776q0 -201 -63.5 -353.5t-179.5 -254.5
t-278.5 -152.5t-360.5 -48.5v160l90 -10q111 7 194.5 41t142 91t94 136.5t50.5 179.5q-42 -29 -92 -51q-43 -20 -100 -35.5t-123 -15.5q-108 0 -189 37.5t-134.5 97.5t-80 134t-26.5 147q0 119 40.5 216.5t110.5 166.5t162.5 107t196.5 38q128 0 229.5 -41.5t172 -122
t107.5 -198t37 -269.5z" />
    <glyph glyph-name="colon" unicode=":" horiz-adv-x="651" 
d="M471 852q0 -36 -13 -67t-36 -54t-54 -36t-67 -13q-35 0 -66.5 13t-55 36t-37 54t-13.5 67q0 35 13.5 66.5t37 55t55 37t66.5 13.5q36 0 67 -13.5t54 -37t36 -55t13 -66.5zM471 145q0 -35 -13 -66t-36 -54t-54 -36.5t-67 -13.5q-35 0 -66.5 13.5t-55 36.5t-37 54t-13.5 66
q0 36 13.5 67t37 54.5t55 37t66.5 13.5q36 0 67 -13.5t54 -37t36 -54.5t13 -67z" />
    <glyph glyph-name="semicolon" unicode=";" horiz-adv-x="651" 
d="M471 852q0 -36 -13 -67t-36 -54t-54 -36t-67 -13q-35 0 -66.5 13t-55 36t-37 54t-13.5 67q0 35 13.5 66.5t37 55t55 37t66.5 13.5q36 0 67 -13.5t54 -37t36 -55t13 -66.5zM496 121q0 -64 -18 -123t-48.5 -111.5t-72 -96t-88.5 -76t-97.5 -52t-99.5 -22.5v100
q39 6 83.5 22.5t81.5 48.5t60 81.5t20 121.5h-124q-19 15 -31 31.5t-19.5 33.5t-10.5 34t-3 32q0 39 14.5 70.5t38.5 54t55 35t64 12.5q93 0 144 -53t51 -143z" />
    <glyph glyph-name="less" unicode="&#x3c;" horiz-adv-x="2048" 
d="M410 551v127l1228 471v-127l-1097 -408l1097 -407v-127z" />
    <glyph glyph-name="equal" unicode="=" horiz-adv-x="2048" 
d="M410 365v127h1228v-127h-1228zM410 737v127h1228v-127h-1228z" />
    <glyph glyph-name="greater" unicode="&#x3e;" horiz-adv-x="2048" 
d="M410 80v127l1097 407l-1097 408v127l1228 -471v-127z" />
    <glyph glyph-name="question" unicode="?" horiz-adv-x="1069" 
d="M592 133q0 -34 -13.5 -63t-36.5 -50t-53.5 -33t-64.5 -12q-33 0 -61.5 13.5t-49.5 36.5t-33 53t-12 63q0 34 12.5 63.5t33.5 52t50 35.5t62 13q37 0 67.5 -14t52.5 -37.5t34 -55t12 -65.5zM938 1018q0 -65 -19 -118.5t-50.5 -97t-71 -76.5t-81.5 -58q-98 -58 -222 -88
v-174h-140v272q83 22 148 67q28 19 54.5 45t47.5 60t34 76.5t13 95.5q0 58 -16.5 105.5t-50 82t-84 53.5t-117.5 19l-92 -246q-1 -1 -5 -2q-3 -1 -7.5 -1.5t-12.5 -0.5q-20 0 -50 2.5t-58 15.5t-48 39t-20 74q0 67 36.5 113.5t92.5 75.5t124 42t130 13q99 0 184 -27.5
t147.5 -78t98 -122.5t35.5 -161z" />
    <glyph glyph-name="at" unicode="@" horiz-adv-x="1917" 
d="M1798 754q0 -102 -22.5 -189.5t-61 -160t-90 -129t-110.5 -95t-121.5 -58.5t-122.5 -20q-47 0 -78.5 12t-52 31.5t-31 45.5t-14.5 55q-32 -27 -65 -52.5t-68 -45.5t-72 -32t-76 -12q-70 0 -123 25.5t-89 71t-54.5 107.5t-18.5 136q0 115 42.5 216.5t115.5 178t171.5 121
t209.5 44.5q24 0 48.5 -6t48.5 -15.5t46.5 -20.5t42.5 -20l27 51h172l-10 -38q-7 -30 -17.5 -74t-23 -98t-25.5 -109q-30 -129 -67 -289q-8 -34 -12 -62t0 -48t17.5 -31t41.5 -11q20 0 49.5 15.5t61 45.5t62.5 74.5t55.5 102t40 128t15.5 153.5q0 97 -23 175.5t-62 139.5
t-92.5 105.5t-113.5 73.5t-125 43t-128 14q-108 0 -206.5 -26.5t-184 -75t-155.5 -118.5t-120 -157.5t-77 -190t-27 -217.5q0 -158 49 -290.5t139 -229.5t217 -151t283 -54q81 0 154 13.5t141 36.5t133.5 54.5t130.5 67.5l43 -102q-69 -36 -143 -69.5t-154 -59t-168.5 -41
t-185.5 -15.5q-120 0 -229 25.5t-203 74.5t-170.5 119t-130.5 159.5t-83.5 196t-29.5 228.5q0 149 36 276t100.5 230t153.5 181.5t194.5 131.5t224 80t241.5 27q166 0 301 -44t230 -127.5t146.5 -205t51.5 -276.5zM1167 795q3 12 -1.5 30.5t-15.5 35.5t-30 29.5t-45 12.5
q-62 0 -116.5 -33t-95.5 -91.5t-65 -139.5t-24 -176q0 -58 11.5 -98.5t30.5 -66t42 -37t47 -11.5q33 0 59.5 12.5t48 31.5t39.5 41t33 40z" />
    <glyph glyph-name="A" unicode="A" horiz-adv-x="1405" 
d="M631 1092l-172 -492h348zM829 0v104l121 15q10 2 17 13t2 22l-111 325h-438l-113 -317q-6 -16 6 -29t23 -14l115 -15v-104h-441v104l115 17l459 1286h233l455 -1249q8 -19 15.5 -26.5t29.5 -12.5l78 -15v-104h-566z" />
    <glyph glyph-name="B" unicode="B" horiz-adv-x="1309" 
d="M1233 399q0 -96 -21 -162.5t-56.5 -111t-83 -69.5t-100 -37.5t-107 -15.5t-105.5 -3h-703v104l111 11q19 2 32 13.5t13 31.5v1054q0 20 -13 32t-32 14l-111 10v104h660q37 0 83.5 -3.5t95 -15t94.5 -32.5t82.5 -56.5t58.5 -87t22 -122.5q0 -62 -17 -109t-44 -82t-60 -59
t-65.5 -40t-60.5 -24.5t-43 -11.5q37 -1 79.5 -7t83.5 -20.5t78.5 -38.5t66 -60.5t45.5 -87t17 -118.5zM926 385q0 132 -76 196t-242 64h-37q-22 0 -65 -2v-522q23 -1 43 -2q17 -1 32.5 -1.5t20.5 -0.5q78 0 138.5 14t102 46t62.5 83t21 125zM852 1024q0 45 -10 87.5
t-38.5 75.5t-80 53t-133.5 20h-10q-3 0 -10.5 -0.5t-22 -1.5t-41.5 -3v-487q11 -1 22 -1q9 -1 17 -1h12q88 0 145 20t90.5 54.5t46.5 82t13 101.5z" />
    <glyph glyph-name="C" unicode="C" horiz-adv-x="1303" 
d="M1229 49q-19 -8 -59.5 -21.5t-97.5 -27t-127.5 -23.5t-149.5 -10q-105 0 -199 24t-174 69t-144 109t-109 144.5t-69 175t-24 199.5q0 160 55.5 292t152.5 227t229 147.5t284 52.5q58 0 106 -5t96.5 -15.5t103 -26.5t126.5 -39v-348h-160l-45 229q0 5 -8 16.5t-19 16.5
q-8 4 -24.5 9.5t-37 10.5t-42.5 9t-41 4q-105 0 -189.5 -41.5t-143.5 -118t-90.5 -184t-31.5 -240.5q0 -72 11 -143t34.5 -136t61 -120.5t89.5 -96.5t120.5 -64.5t154.5 -23.5q38 0 70 9.5t49 17.5q8 3 20 16.5t15 22.5l45 242h162v-359z" />
    <glyph glyph-name="D" unicode="D" horiz-adv-x="1483" 
d="M1077 680q0 118 -18 206.5t-49.5 152t-74.5 105.5t-92 66.5t-102 34.5t-106 10h-129v-1134l170 4q44 1 91 12t91.5 36t84 66.5t69.5 103t47.5 145t17.5 192.5zM1407 702q0 -176 -50.5 -307.5t-144 -219.5t-225.5 -131.5t-295 -43.5h-639v104l113 11q18 2 32.5 13.5
t14.5 31.5v1054q0 20 -14.5 32t-32.5 14l-113 10v104h627q175 0 310.5 -49t228 -137.5t140.5 -212t48 -273.5z" />
    <glyph glyph-name="E" unicode="E" horiz-adv-x="1225" 
d="M53 0v104l113 11q18 2 32.5 13.5t14.5 31.5v1054q0 20 -14.5 32t-32.5 14l-113 10v104h1045v-327h-148l-32 170q-4 15 -13.5 26.5t-23.5 11.5h-381v-481h243q14 0 23.5 13t11.5 24l19 139h127v-481h-127l-19 139q-2 11 -11.5 24t-23.5 13h-243v-522h446q13 0 24 14t13 25
l31 213h149v-375h-1110z" />
    <glyph glyph-name="F" unicode="F" horiz-adv-x="1145" 
d="M942 1024l-29 186q-3 16 -12.5 27.5t-23.5 11.5h-371v-504h254q14 0 23.5 13t11.5 24l20 140h127v-484h-127l-20 140q-2 11 -12.5 23.5t-22.5 12.5h-254v-454q0 -20 13 -31.5t32 -13.5l133 -11v-104h-629v104l111 11q18 2 32.5 13.5t14.5 31.5v1054q0 20 -14.5 32
t-32.5 14l-117 10v104h1041v-350h-148z" />
    <glyph glyph-name="G" unicode="G" horiz-adv-x="1466" 
d="M1315 565q-19 -2 -33 -13.5t-14 -31.5v-457q-61 -27 -135 -48q-64 -18 -150.5 -33t-189.5 -15q-154 0 -285 51.5t-227 146.5t-150.5 228t-54.5 297q0 166 55 299t152.5 226t232 142.5t293.5 49.5q101 0 185 -12.5t146 -27.5q72 -18 130 -40v-354h-160l-41 221
q-2 11 -13 24.5t-24 18.5q-48 18 -89 26.5t-58 8.5q-89 0 -160.5 -22.5t-126 -62t-93.5 -93.5t-64 -118t-36.5 -134.5t-11.5 -143.5q0 -132 33 -238.5t96.5 -182t156.5 -116t214 -40.5q14 0 34.5 -1.5t57.5 1.5v399q0 20 -14 32.5t-33 12.5l-137 10v105h618v-105z" />
    <glyph glyph-name="H" unicode="H" horiz-adv-x="1575" 
d="M918 0v104l106 11q19 2 32 13.5t13 31.5v495h-563v-495q0 -20 13 -31.5t32 -13.5l108 -11v-104h-598v104l107 11q19 2 32 13.5t13 31.5v1054q0 20 -13 32t-32 14l-107 10v104h598v-104l-108 -10q-19 -2 -32 -14t-13 -32v-428h563v428q0 20 -13 32t-32 14l-106 10v104h595
v-104l-106 -10q-17 -2 -31 -14t-14 -32v-1054q0 -20 13 -31.5t32 -13.5l106 -11v-104h-595z" />
    <glyph glyph-name="I" unicode="I" horiz-adv-x="735" 
d="M47 0v104l127 11q19 2 32 13.5t13 31.5v1054q0 20 -13 32t-32 14l-127 10v104h639v-104l-127 -10q-17 -2 -32 -14t-15 -32v-1054q0 -20 15 -31.5t32 -13.5l127 -11v-104h-639z" />
    <glyph glyph-name="J" unicode="J" horiz-adv-x="1049" 
d="M879 1260q-19 -2 -32 -14t-13 -32v-718q0 -119 -28 -216t-86.5 -167t-149 -108t-216.5 -38q-42 0 -86 6t-84.5 14.5t-75.5 18.5t-59 19v374h160l47 -274q3 -10 10 -18q6 -7 16 -12t27 -5q57 0 100.5 21t73.5 69t45 127t15 195v712q0 20 -14 32t-31 14l-127 10v104h633
v-104z" />
    <glyph glyph-name="K" unicode="K" horiz-adv-x="1397" 
d="M952 0v76l-334 524h-112v-440q0 -20 13 -31.5t32 -13.5l108 -11v-104h-600v104l109 11q19 2 32 13.5t13 31.5v1054q0 20 -13 32t-32 14l-109 10v104h600v-104l-108 -10q-19 -2 -32 -14t-13 -32v-516h57l441 537q5 6 2.5 15.5t-13.5 9.5l-116 10v104h469v-104
q-22 -2 -47 -4q-21 -2 -46.5 -4.5t-50.5 -4.5l-381 -454l430 -686l146 -13v-104h-445z" />
    <glyph glyph-name="L" unicode="L" horiz-adv-x="1135" 
d="M55 0v104l113 11q19 2 32 13.5t13 31.5v1054q0 20 -13 32t-32 14l-113 10v104h611v-104l-115 -10q-19 -2 -32 -14t-13 -32v-1089h356q11 0 19.5 5t15 12.5t10 15.5t4.5 14l27 236h164v-408h-1047z" />
    <glyph glyph-name="M" unicode="M" horiz-adv-x="1849" 
d="M1196 0v104l100 11q17 2 31 13.5t14 31.5v1075l-411 -1235h-158l-403 1227v-1067q0 -20 14 -31.5t31 -13.5l110 -11v-104h-473v104l115 11q18 2 32.5 13.5t14.5 31.5v1054q0 20 -14.5 32t-32.5 14l-115 10v104h588v-57l289 -877l286 877v57h582v-104l-117 -10
q-18 -2 -31.5 -14t-13.5 -32v-1054q0 -20 13.5 -31.5t31.5 -13.5l117 -11v-104h-600z" />
    <glyph glyph-name="N" unicode="N" horiz-adv-x="1524" 
d="M1354 1260q-17 -2 -31 -14t-14 -32v-1214h-250l-690 1083v-923q0 -20 14 -31.5t31 -13.5l114 -11v-104h-473v104l113 11q19 2 32 13.5t13 31.5v1054q0 20 -13 32t-32 14l-111 10v104h506v-55l590 -924v819q0 20 -14.5 32t-32.5 14l-117 10v104h475v-104z" />
    <glyph glyph-name="O" unicode="O" horiz-adv-x="1548" 
d="M1145 672q0 120 -22.5 228.5t-67.5 190.5t-112.5 130.5t-156.5 48.5q-71 0 -127 -24t-98.5 -65.5t-72.5 -97.5t-49 -120.5t-27.5 -134t-8.5 -138.5q0 -73 9.5 -145t28.5 -138t49 -123t70 -98.5t91.5 -65.5t114.5 -24q68 0 123 24.5t97 66.5t72 98t49.5 120t28.5 132.5
t9 134.5zM1475 680q0 -147 -49.5 -276.5t-140.5 -226.5t-218 -153.5t-281 -56.5q-153 0 -283.5 48.5t-225 141.5t-148 229t-53.5 310q0 151 47 281.5t135.5 225.5t217 149.5t292.5 54.5q106 0 200 -26.5t172.5 -74t140.5 -114t105 -147.5t66 -173.5t23 -191.5z" />
    <glyph glyph-name="P" unicode="P" horiz-adv-x="1253" 
d="M1178 958q0 -88 -21.5 -155.5t-59.5 -118t-89.5 -85t-111 -55.5t-125 -30.5t-130.5 -9.5q-29 0 -61 -0.5t-74 4.5v-348q0 -20 13 -31.5t32 -13.5l129 -11v-104h-627v104l113 11q18 2 32.5 13.5t14.5 31.5v1054q0 20 -14.5 32t-32.5 14l-119 10v104h574q69 0 137 -5.5
t130 -22t115 -45t92 -75t61 -112.5t22 -156zM872 948q0 72 -18 128t-51 94.5t-79 58.5t-103 20h-115v-618q12 -1 19.5 -1.5t12.5 -0.5h23q71 1 128.5 18t98 55t62.5 98.5t22 147.5z" />
    <glyph glyph-name="Q" unicode="Q" horiz-adv-x="1548" 
d="M1145 672q0 120 -22.5 228.5t-67.5 190.5t-112.5 130.5t-156.5 48.5q-71 0 -127 -24t-98.5 -65.5t-72.5 -97.5t-49 -120.5t-27.5 -134t-8.5 -138.5q0 -73 9.5 -145t28.5 -138t49 -123t70 -98.5t91.5 -65.5t114.5 -24q68 0 123 24.5t97 66.5t72 98t49.5 120t28.5 132.5
t9 134.5zM1407 -330q-106 -24 -193 -35.5t-170 -11.5q-110 0 -188 25.5t-127 72t-72 112.5t-24 147q-124 22 -226.5 79.5t-176 148.5t-114 213.5t-40.5 274.5q0 151 47 281.5t135.5 225.5t217 149.5t292.5 54.5q106 0 200 -26.5t172.5 -74t140.5 -114t105 -147.5t66 -173.5
t23 -191.5q0 -128 -38 -243t-108 -207.5t-169.5 -156.5t-221.5 -89q-2 -56 20.5 -98.5t61 -72t90 -44.5t107.5 -15q30 0 76 4.5t114 20.5v-109z" />
    <glyph glyph-name="R" unicode="R" horiz-adv-x="1442" 
d="M1442 0q-68 -8 -116.5 -20.5t-86.5 -12.5q-99 0 -165 27.5t-109.5 72t-70.5 101.5t-48.5 116.5t-42.5 116.5t-53 101.5t-80 72t-123 27.5h-41v-442q0 -20 13 -31.5t32 -13.5l113 -11v-104h-607v104l109 11q18 2 32.5 13.5t14.5 31.5v1054q0 20 -14.5 32t-32.5 14l-109 10
v104h680q38 0 86 -5t97.5 -18.5t97 -37.5t84.5 -61.5t59.5 -91t22.5 -126.5q0 -69 -18.5 -121t-49 -90.5t-69 -65t-78.5 -43t-77 -25.5t-65 -13q67 -13 114 -38.5t79 -59.5t52.5 -74t35 -82.5t26 -84.5t26.5 -80t35.5 -69.5t52.5 -53t79 -30t115 -0.5v-104zM877 995
q0 130 -78 193t-228 63q-8 1 -19 1h-21q-12 0 -25 -1v-524q26 -2 42.5 -3t24.5 -1q48 0 101.5 9.5t98.5 39t74.5 83t29.5 140.5z" />
    <glyph glyph-name="S" unicode="S" horiz-adv-x="1098" 
d="M1022 401q0 -108 -45 -189.5t-120.5 -135.5t-174.5 -81.5t-207 -27.5q-81 0 -152.5 12t-126.5 27q-64 17 -120 39v375h162l34 -248q2 -12 12 -21.5t15 -9.5q24 -10 50 -18q23 -7 51 -12t57 -5q45 0 92 11t85.5 34t62.5 60t24 88q0 64 -30 110.5t-78 84t-108.5 69
t-121.5 64.5q-54 29 -104.5 62.5t-89.5 76.5t-62 98t-23 127q0 100 40 177.5t108 130.5t157.5 80.5t188.5 27.5q78 0 148 -13t124 -28q62 -18 115 -41v-336h-158l-34 219q-1 4 -5.5 9t-9.5 10q-6 5 -14 10q-11 9 -29 16q-15 6 -38 11.5t-56 5.5q-51 0 -96.5 -12t-80 -35
t-55 -58t-20.5 -80q0 -54 23 -95.5t61.5 -74.5t88.5 -60t104 -54q64 -32 127.5 -67t114.5 -80.5t82.5 -106.5t31.5 -146z" />
    <glyph glyph-name="T" unicode="T" horiz-adv-x="1247" 
d="M1065 999l-37 228q-3 24 -29 24h-229v-1091q0 -20 13.5 -31.5t31.5 -13.5l121 -11v-104h-625v104l119 11q19 2 33 13.5t14 31.5v1091h-229q-28 0 -31 -24l-37 -228h-147v375h1181v-375h-149z" />
    <glyph glyph-name="U" unicode="U" horiz-adv-x="1493" 
d="M1331 1260q-17 -2 -31 -14t-14 -32v-694q0 -151 -34 -256.5t-103 -171.5t-174.5 -95.5t-249.5 -29.5q-264 0 -393 141.5t-129 411.5v694q0 20 -14.5 32t-32.5 14l-111 10v104h606v-104l-110 -10q-17 -2 -31 -14t-14 -32v-710q0 -192 81 -279.5t250 -87.5q81 0 138 26.5
t94 74.5t54 115.5t17 150.5v710q0 20 -13 32t-32 14l-116 10v104h471v-104z" />
    <glyph glyph-name="V" unicode="V" horiz-adv-x="1446" 
d="M1296 1253l-471 -1286h-194l-479 1284l-132 19v104h584v-104l-115 -15q-18 -3 -21.5 -17.5t1.5 -27.5l324 -891l313 893q3 13 -1.5 26.5t-27.5 16.5l-110 15v104h458v-104z" />
    <glyph glyph-name="W" unicode="W" horiz-adv-x="1978" 
d="M1833 1253l-322 -1286h-194l-320 1065l-313 -1065h-197l-342 1286l-125 17v104h558v-104l-121 -13q-19 -2 -20.5 -16t1.5 -27l217 -811l287 971h221l297 -993l205 833q3 13 -2 26.5t-27 16.5l-131 13v104h453v-104z" />
    <glyph glyph-name="X" unicode="X" horiz-adv-x="1374" 
d="M739 0v104l125 9q14 2 18.5 16t-8.5 33l-229 360l-276 -358q-8 -9 -9 -17.5t2 -15.5t8.5 -11t10.5 -5l123 -11v-104h-484v104l132 17l407 534l-383 596l-129 19v104h600v-104l-108 -10q-11 0 -17 -15t6 -35l205 -323l252 325q14 17 8 33.5t-20 16.5l-109 8v104h467v-104
l-129 -19l-383 -497l406 -633l129 -17v-104h-615z" />
    <glyph glyph-name="Y" unicode="Y" horiz-adv-x="1358" 
d="M1219 1251l-379 -657v-434q0 -20 13 -31.5t32 -13.5l125 -11v-104h-635v104l125 11q17 2 32 13.5t15 31.5v377l-395 714l-132 19v104h582v-104l-108 -10q-11 0 -16.5 -15t5.5 -35l258 -485l279 487q11 19 7.5 34.5t-17.5 15.5l-125 8v104h452v-104z" />
    <glyph glyph-name="Z" unicode="Z" horiz-adv-x="1190" 
d="M76 0v121l702 1128h-452q-26 0 -29 -24l-37 -224h-149v373h993v-121l-701 -1126h490q25 0 31 23l41 253h149v-403h-1038z" />
    <glyph glyph-name="bracketleft" unicode="[" horiz-adv-x="1122" 
d="M480 -270v1720h568v-123h-314v-1479h314v-118h-568z" />
    <glyph glyph-name="backslash" unicode="\" horiz-adv-x="1012" 
d="M852 -190l-852 1564h160l852 -1564h-160z" />
    <glyph glyph-name="bracketright" unicode="]" horiz-adv-x="1206" 
d="M74 -270v118h313v1479h-313v123h567v-1720h-567z" />
    <glyph glyph-name="asciicircum" unicode="^" horiz-adv-x="696" 
d="M526 1128l-178 195l-178 -195h-170l227 351h242l227 -351h-170z" />
    <glyph glyph-name="underscore" unicode="_" horiz-adv-x="696" 
d="M0 -340v165h696v-165h-696z" />
    <glyph glyph-name="grave" unicode="`" horiz-adv-x="766" 
d="M383 1128l-332 181q-11 6 -20 16.5t-16 22.5t-11 24.5t-4 22.5q0 18 6 37.5t19.5 35t36 25.5t55.5 10q21 0 37 -3t30.5 -10.5t29 -20t32.5 -31.5l280 -310h-143z" />
    <glyph glyph-name="a" unicode="a" horiz-adv-x="1133" 
d="M717 0l-27 102q-53 -36 -111 -64q-51 -24 -114 -43.5t-131 -19.5q-56 0 -104.5 18.5t-85 53t-57.5 83.5t-21 110q0 46 7.5 85t30 72.5t64.5 64t111.5 59.5t170.5 58t242 60v25q0 15 1 27q0 14 1 28q1 29 -6 62.5t-28 62t-59 47t-99 18.5q-21 0 -37.5 -1t-27.5 -3
q-13 -2 -23 -4v-194h-211q-26 -2 -46 5q-17 6 -31.5 21t-14.5 47q0 57 40.5 102t106 76.5t147 48.5t162.5 17q88 0 161 -13t125.5 -50.5t81 -105.5t28.5 -179v-526q0 -19 13 -32.5t32 -15.5l90 -6v-96h-381zM690 528q-99 -20 -163.5 -41t-102.5 -48t-53 -61.5t-15 -80.5
q0 -32 10.5 -59.5t30 -48t46.5 -32.5t59 -12q33 0 66.5 7t60.5 15q32 10 61 23v338z" />
    <glyph glyph-name="b" unicode="b" horiz-adv-x="1225" 
d="M1159 561q0 -118 -40 -220.5t-116.5 -178t-188 -119t-255.5 -43.5h-375v1329h-143v84l313 103h105v-586q43 26 91 47q42 17 95 32t111 15q82 0 155.5 -31t128.5 -90.5t87 -145.5t32 -196zM862 500q0 83 -19 148.5t-56 111.5t-92.5 70t-127.5 24q-19 0 -37.5 -2t-34.5 -4
l-36 -6v-727q18 0 25.5 -1t17.5 -1q85 0 152 19.5t113 65t70.5 119.5t24.5 183z" />
    <glyph glyph-name="c" unicode="c" horiz-adv-x="1028" 
d="M965 90q-26 -12 -63.5 -31t-87 -38t-112.5 -32.5t-141 -13.5q-120 0 -212 41t-155 110.5t-95.5 160.5t-32.5 192q0 121 41.5 221.5t113 172.5t167.5 111.5t206 39.5q81 0 146 -16.5t111.5 -46.5t71.5 -71.5t25 -90.5q0 -35 -12.5 -63t-32.5 -48.5t-46 -31.5t-54 -11
q-32 0 -53.5 4t-36.5 10.5t-26 14t-21 14.5v230q-13 0 -20.5 1t-18.5 1q-47 0 -93.5 -24t-83.5 -71.5t-60 -119t-23 -166.5q0 -90 21.5 -162.5t61.5 -123.5t98 -78.5t130 -27.5q47 0 94 13t86.5 30t68 33.5t38.5 24.5v-158z" />
    <glyph glyph-name="d" unicode="d" horiz-adv-x="1247" 
d="M791 864q-24 10 -50 18q-22 7 -47.5 13t-48.5 6q-71 0 -124 -29t-87.5 -80t-51.5 -120t-17 -148q0 -81 16.5 -147t49.5 -113.5t83 -73.5t117 -26q28 0 56.5 5.5t51.5 13.5q27 9 52 20v661zM791 0v119q-12 -6 -43 -29.5t-75 -49t-97 -45.5t-109 -20q-94 0 -168.5 38
t-126 105t-79 159t-27.5 200q0 132 40 234t111 171.5t169 105.5t214 36q29 0 62.5 -4t62.5 -9q33 -5 66 -12v330h-152v84l319 103h105v-1366q0 -19 13 -32.5t32 -15.5l86 -6v-96h-403z" />
    <glyph glyph-name="e" unicode="e" horiz-adv-x="1083" 
d="M727 668q0 49 -9 92t-29.5 74.5t-52.5 50t-77 18.5q-57 0 -95.5 -25.5t-62 -66t-33.5 -90.5t-10 -98h369v45zM1020 96q-53 -35 -119 -61q-57 -23 -136 -41.5t-177 -18.5q-131 0 -228.5 40t-163 109.5t-98 162.5t-32.5 200q0 116 36.5 214.5t104 170t163 112t212.5 40.5
q120 0 203.5 -39.5t135.5 -105t75.5 -149.5t23.5 -173v-49h-672q0 -84 21 -151t61.5 -114t99.5 -72.5t134 -25.5q78 0 142.5 17.5t112.5 39.5q55 26 101 58v-164z" />
    <glyph glyph-name="f" unicode="f" horiz-adv-x="711" 
d="M860 1352q0 -24 -10.5 -45t-28 -38.5t-40.5 -30.5t-48 -21l-203 190q-15 -23 -27.5 -48.5t-20.5 -61t-12.5 -84.5t-4.5 -119v-119h223v-131h-221v-694q0 -19 12.5 -33.5t32.5 -14.5l125 -6v-96h-594v96l104 6q19 2 32.5 15.5t13.5 32.5v694h-134v82l131 67q0 81 22.5 153
t66.5 140q30 50 70.5 92t89.5 73t105.5 48t119.5 17q30 0 64.5 -9.5t64 -29t48.5 -51t19 -74.5z" />
    <glyph glyph-name="g" unicode="g" horiz-adv-x="1137" 
d="M793 -141q0 36 -22 62t-57 44.5t-79 30.5t-88 19.5t-83 11t-65 6.5q-10 -15 -21 -31t-20.5 -35t-15.5 -42.5t-6 -51.5q-1 -49 19 -91.5t52 -74t72.5 -49.5t81.5 -18t82.5 15.5t74.5 44t54 69t21 90.5zM709 688q0 42 -9.5 84.5t-29 76t-48.5 54.5t-67 21q-46 0 -78 -20.5
t-51.5 -54.5t-28 -76.5t-8.5 -86.5q0 -45 9.5 -89.5t29 -79t50.5 -56t73 -21.5t71.5 21.5t49 57t28.5 80t9 89.5zM938 840q11 -22 20 -47q8 -22 14.5 -49.5t6.5 -59.5q0 -69 -23 -121.5t-61.5 -91t-88.5 -64.5t-104.5 -41t-109.5 -20t-103 -2q-18 -12 -32.5 -25t-22.5 -27.5
t-8.5 -31.5t8.5 -39q168 -14 286.5 -39t193.5 -62t109 -87.5t34 -114.5q0 -59 -22.5 -111t-61.5 -95.5t-92 -78t-114.5 -58t-128.5 -36t-134 -12.5q-81 0 -159.5 18.5t-140.5 57.5t-100 99t-38 142q0 64 24 106.5t57 68t67.5 34.5t55.5 6q-14 28 -20 58.5t-6 50.5
q0 26 7 49.5t21 46t35.5 45.5t50.5 49q-27 6 -69.5 25t-83 55.5t-70 92t-29.5 135.5q0 92 35.5 159.5t97 111.5t144 65.5t176.5 21.5q48 0 90.5 -7t79 -16.5t67 -20.5t56.5 -19h266v-121h-180z" />
    <glyph glyph-name="h" unicode="h" horiz-adv-x="1282" 
d="M713 0v96l65 6q19 2 32 15.5t13 32.5v483q0 25 -5.5 60t-23.5 66.5t-52 54t-91 22.5q-31 0 -64.5 -4.5t-62.5 -9.5q-33 -6 -65 -13v-659q0 -19 13 -32.5t32 -15.5l71 -6v-96h-520v96l84 6q19 2 32 15.5t13 32.5v1179h-145v84l313 103h107v-619q57 35 119 63
q26 12 55.5 23.5t60 20.5t62 14.5t61.5 5.5q60 0 104.5 -15.5t76 -41t51 -59t30.5 -69.5t15 -71.5t4 -65.5v-552q0 -19 13 -32.5t32 -15.5l86 -6v-96h-516z" />
    <glyph glyph-name="i" unicode="i" horiz-adv-x="682" 
d="M66 0v96l94 6q18 2 31.5 15.5t13.5 32.5v688h-131v84l299 102h104v-874q0 -19 14.5 -32.5t32.5 -15.5l99 -6v-96h-557zM506 1358q0 -33 -12.5 -62t-34.5 -51t-51 -34.5t-62 -12.5t-62 12.5t-50 34.5t-33.5 51t-12.5 62t12.5 62t33.5 50t50 33.5t62 12.5t62 -12.5
t51 -33.5t34.5 -50t12.5 -62z" />
    <glyph glyph-name="j" unicode="j" horiz-adv-x="664" 
d="M477 96q0 -112 -27 -217t-85 -186q-56 -76 -141 -121t-204 -45q-41 0 -78 10t-65 30t-44.5 49t-16.5 67q0 27 10.5 51t28.5 42.5t42 30t50 13.5l200 -203q12 19 21 45.5t15 56.5t10 61.5t7 61.5q5 70 5 148v848h-146v84l314 102h104v-928zM498 1358q0 -33 -12.5 -62
t-33.5 -51t-50 -34.5t-62 -12.5t-62 12.5t-51 34.5t-34.5 51t-12.5 62t12.5 62t34.5 50t51 33.5t62 12.5t62 -12.5t50 -33.5t33.5 -50t12.5 -62z" />
    <glyph glyph-name="k" unicode="k" horiz-adv-x="1212" 
d="M780 0v84l-225 379h-96v-313q0 -19 12.5 -32.5t32.5 -15.5l82 -6v-96h-533v96l86 6q19 2 32 15.5t13 32.5v1179h-143v84l313 103h105v-984h45l274 328q10 11 5.5 22t-19.5 13l-78 8v96h426v-96l-135 -16l-219 -250l315 -531l121 -10v-96h-414z" />
    <glyph glyph-name="l" unicode="l" horiz-adv-x="682" 
d="M59 0v96l101 6q20 2 32.5 15t12.5 33v1179h-146v84l314 103h104v-1366q0 -20 12.5 -33t32.5 -15l103 -6v-96h-566z" />
    <glyph glyph-name="m" unicode="m" horiz-adv-x="1855" 
d="M1296 0v96l64 6q18 2 32.5 15.5t14.5 32.5v493q0 37 -9 72t-29.5 62t-54.5 43t-85 16q-33 0 -62.5 -5.5t-52.5 -11.5q-26 -7 -49 -16v-653q0 -19 13 -32.5t32 -15.5l64 -6v-96h-492v96l63 6q19 2 32.5 15.5t13.5 32.5v493q0 37 -10 72t-31 62t-54.5 43t-81.5 16
q-42 0 -73.5 -5.5t-51.5 -11.5q-24 -7 -40 -16v-653q0 -19 14 -32.5t33 -15.5l63 -6v-96h-504v96l76 6q19 2 32 15.5t13 32.5v686h-131v84l301 104h103v-125q52 35 108 62q48 23 107.5 43t119.5 20q58 0 99 -15.5t69.5 -37t47 -45.5t32.5 -41q60 38 122 69q27 13 57 25.5
t61.5 22.5t63 16t61.5 6q62 0 107 -16.5t76.5 -43.5t50.5 -60.5t30 -68.5t14.5 -67.5t3.5 -56.5v-561q0 -19 13.5 -32.5t31.5 -15.5l74 -6v-96h-502z" />
    <glyph glyph-name="n" unicode="n" horiz-adv-x="1280" 
d="M702 0v96l76 6q19 2 32 15.5t13 32.5v481q0 39 -9 76t-29 65.5t-52 46t-78 17.5q-42 0 -78 -4.5t-62 -9.5q-31 -6 -56 -13v-659q0 -19 14 -32.5t33 -15.5l61 -6v-96h-501v96l73 6q19 2 32 15.5t13 32.5v686h-141v84l309 104h107v-125q53 35 113 62q51 23 115 43t130 20
q88 0 143 -30.5t85 -80.5t40.5 -114t10.5 -131v-518q0 -19 14 -32.5t33 -15.5l63 -6v-96h-504z" />
    <glyph glyph-name="o" unicode="o" horiz-adv-x="1196" 
d="M827 496q0 43 -4 90.5t-13.5 93.5t-26.5 87t-42.5 72t-60.5 49.5t-82 18.5q-69 0 -113 -38t-68.5 -97.5t-34 -130.5t-9.5 -137q0 -44 3.5 -92t13 -94t25.5 -87t41.5 -72.5t60.5 -50t83 -18.5q70 0 114 37.5t69 96.5t34.5 131t9.5 141zM1133 494q0 -115 -36.5 -210.5
t-106.5 -164t-170.5 -106.5t-227.5 -38q-117 0 -213.5 36t-166 103t-108 163.5t-38.5 218.5q0 126 40 224t111.5 165.5t170.5 103t218 35.5q127 0 225 -39t165 -109.5t102 -167.5t35 -214z" />
    <glyph glyph-name="p" unicode="p" horiz-adv-x="1237" 
d="M868 498q0 67 -15.5 129t-47 108.5t-80 74.5t-115.5 28q-27 0 -53.5 -5t-48.5 -11q-26 -7 -49 -15v-696q20 -8 40 -13q17 -5 36 -8.5t36 -3.5q74 0 129.5 32t93 87.5t56 131t18.5 161.5zM1171 528q0 -124 -39 -226t-111 -174.5t-174 -112.5t-229 -40q-31 0 -59 3t-51 7
q-26 4 -49 11v-295q0 -20 12.5 -33.5t32.5 -13.5l108 -6v-97h-563v97l90 6q19 0 32 13.5t13 33.5v1135h-135v84l303 104h107v-129q48 36 103 64q47 24 105 44.5t121 20.5q62 0 115 -20t95.5 -54.5t75 -82t54 -102.5t32.5 -115.5t11 -121.5z" />
    <glyph glyph-name="q" unicode="q" horiz-adv-x="1235" 
d="M776 895q-10 2 -23 4q-11 2 -26.5 3t-32.5 1q-91 0 -154 -29.5t-102 -81.5t-56 -123t-17 -153q0 -84 19 -151t55 -114t88 -72t118 -25q23 0 46 1t42 3q22 2 43 4v733zM618 -449v97l113 6q20 0 32.5 13.5t12.5 33.5v379q-43 -30 -92 -53q-43 -20 -98.5 -36t-118.5 -16
q-92 0 -166.5 40t-126.5 108t-80 157.5t-28 188.5q0 145 49 250t136.5 172.5t209 100t266.5 32.5q52 0 109 -4t105 -9q56 -5 110 -12v-1298q0 -20 13 -33.5t32 -13.5l84 -6v-97h-562z" />
    <glyph glyph-name="r" unicode="r" horiz-adv-x="885" 
d="M725 676q-7 10 -17.5 24t-26 27t-37.5 22t-52 9q-29 0 -54 -6t-42 -13q-21 -8 -37 -18v-574q0 -18 12.5 -32.5t32.5 -14.5l131 -6v-96h-586v96l90 6q19 2 32 15.5t13 31.5v689h-149v84l317 104h107v-217q19 24 51.5 61t70.5 71.5t78.5 59.5t75.5 25q18 0 37 -3t36.5 -8.5
t32 -12t23.5 -13.5v-311h-139z" />
    <glyph glyph-name="s" unicode="s" horiz-adv-x="911" 
d="M815 686h-127l-22 164q-20 23 -62 37t-98 14q-72 0 -113 -29.5t-41 -83.5q0 -30 17 -56t46 -49t66 -43.5t78 -41.5q51 -26 103 -53t93 -60t67 -73.5t26 -92.5q0 -97 -37 -162.5t-96 -106t-134 -58t-151 -17.5t-141.5 8.5t-115.5 19.5q-58 12 -107 28v311h129q2 -21 6 -53
t8 -62q4 -35 10 -73q2 -5 23 -14.5t50 -19.5t61 -17t57 -7q52 0 86 14t54 34t28 42.5t8 40.5q0 42 -26.5 72.5t-68.5 55.5t-94.5 47.5t-103.5 48.5q-43 21 -82 46t-68.5 56t-47 70t-17.5 90q0 71 30.5 128.5t85.5 98t130 62.5t165 22q76 0 136.5 -8.5t102.5 -19.5
q49 -12 87 -27v-283z" />
    <glyph glyph-name="t" unicode="t" horiz-adv-x="768" 
d="M760 45q-48 -20 -102 -35q-46 -14 -104.5 -24.5t-121.5 -10.5q-68 0 -115.5 15t-77 46.5t-42.5 78.5t-13 112v641h-135v82l158 94l110 218h142v-263h284v-131h-284v-557q0 -98 43 -138t125 -40q24 0 48 2t43 5q22 3 42 7v-102z" />
    <glyph glyph-name="u" unicode="u" horiz-adv-x="1270" 
d="M811 0v113q-51 -39 -106 -69q-47 -26 -104 -47.5t-114 -21.5q-87 0 -145.5 23t-93.5 66t-49.5 105t-14.5 140v529h-133v84l301 102h107v-635q0 -38 5 -78t24 -73t56.5 -54.5t102.5 -21.5q32 0 61.5 5t52.5 12q26 8 50 18v641h-129v84l299 102h104v-874q0 -19 14.5 -32.5
t33.5 -15.5l90 -6v-96h-412z" />
    <glyph glyph-name="v" unicode="v" horiz-adv-x="1159" 
d="M1024 889l-352 -889h-203l-328 891l-121 12v96h539v-96l-94 -6q-19 -2 -27 -15t-2 -30l201 -567l223 567q6 15 -4 29t-27 16l-86 6v96h398v-96z" />
    <glyph glyph-name="w" unicode="w" horiz-adv-x="1722" 
d="M1589 889l-274 -889h-228l-223 727l-235 -727h-223l-265 891l-121 12v96h525v-96l-88 -6q-17 -2 -26.5 -15t-4.5 -30l160 -563l229 710h225l220 -714l170 567q5 15 -3.5 29t-25.5 16l-90 6v96h393v-96z" />
    <glyph glyph-name="x" unicode="x" horiz-adv-x="1118" 
d="M580 0v96l79 8q16 2 20.5 12.5t-3.5 22.5l-162 221l-180 -221q-9 -11 -5 -22t19 -13l72 -8v-96h-400v96l123 17l293 354l-303 422l-108 14v96h503v-96l-59 -6q-17 -2 -20.5 -14t6.5 -23l143 -198l164 198q8 11 4.5 23t-18.5 14l-66 6v96h381v-96l-115 -14l-272 -336
l315 -440l109 -17v-96h-520z" />
    <glyph glyph-name="y" unicode="y" horiz-adv-x="1159" 
d="M1032 889l-354 -869q-19 -46 -42 -100t-51.5 -108.5t-62.5 -105t-76 -89.5q-43 -42 -93.5 -66t-110.5 -24q-30 0 -62.5 11.5t-59 33t-43.5 52t-16 67.5q0 28 10.5 51.5t27 42.5t38 33t43.5 24l174 -133q28 26 52.5 62t44 74.5t34 74.5t21.5 62l-365 909l-121 12v96h539
v-96l-94 -6q-19 -2 -28 -15t-3 -30l211 -526l217 526q6 15 -4 29t-27 16l-90 6v96h400v-96z" />
    <glyph glyph-name="z" unicode="z" horiz-adv-x="1006" 
d="M66 0v133l524 750h-309q-16 0 -27.5 -14.5t-11.5 -28.5l-15 -158h-145v317h829v-114l-536 -764h352q7 0 14 5t13.5 12t11 15.5t6.5 16.5l27 174h141v-344h-874z" />
    <glyph glyph-name="braceleft" unicode="{" horiz-adv-x="1014" 
d="M864 -250h-40q-27 0 -63.5 1.5t-78.5 6t-83 14t-78 24.5t-62 38q-47 41 -68 97t-27.5 117.5t-5 125t0.5 121.5t-10.5 106t-39.5 78t-69 42.5t-74 16.5q-40 4 -82 -1v122q42 -6 82 -2q35 3 74 15.5t69 42.5t39.5 78.5t10.5 106.5t-0.5 122t5 125.5t27.5 117.5t68 97
q25 23 62 38t78 24.5t83 14t78.5 6t63.5 1.5h40v-113q-37 0 -73 -5q-31 -5 -64.5 -16t-56.5 -34q-31 -30 -42 -74.5t-13 -97t-1 -109.5t-5 -112.5t-24.5 -106.5t-60.5 -90q-32 -31 -67 -49t-65 -27t-53 -12q-17 -2 -26 -2q9 -1 26 -3q23 -3 53 -12.5t65 -27.5t67 -49
q42 -40 60.5 -90.5t24.5 -106t5 -112t1 -108.5t13 -96.5t42 -74.5q23 -23 56.5 -34t64.5 -16q36 -5 73 -5v-113z" />
    <glyph glyph-name="bar" unicode="|" horiz-adv-x="815" 
d="M320 -528v2158h175v-2158h-175z" />
    <glyph glyph-name="braceright" unicode="}" horiz-adv-x="1014" 
d="M930 537q-43 5 -83 1q-35 -4 -74 -16.5t-68 -42.5q-30 -31 -40 -79t-11.5 -106t0 -121.5t-5 -125t-27 -117t-66.5 -96.5q-26 -23 -62.5 -38t-77.5 -24.5t-83 -14t-78.5 -6t-64.5 -1.5h-39v113q37 0 73 5q31 5 64 16t57 34q31 30 42 74t13 96t1 108.5t4.5 112t24 106.5
t60.5 91q32 30 66 48t64.5 27.5t53.5 12.5t32 4q-7 0 -29.5 2t-53 11t-65.5 27t-68 50q-42 40 -60.5 91t-24 106.5t-4.5 112.5t-1 109.5t-13 96.5t-42 74q-24 23 -57 34t-64 16q-36 5 -73 5v113h39q28 0 64.5 -1.5t78.5 -6t83 -14t78 -24.5t62 -38q46 -42 66.5 -97.5
t27 -117t5 -125.5t0 -122t11.5 -106.5t40 -78.5q29 -30 68 -42.5t74 -15.5q40 -4 83 2v-122z" />
    <glyph glyph-name="asciitilde" unicode="~" horiz-adv-x="1706" 
d="M1530 614q-62 -44 -115.5 -74t-101 -48t-91.5 -25.5t-87 -7.5q-75 0 -145.5 21.5t-140 47t-140.5 47t-146 21.5q-71 0 -165 -43.5t-222 -140.5v194q116 88 216 123t183 35q58 0 113 -12.5t108.5 -30.5t106.5 -38.5t107 -35.5q32 -9 64 -14.5t63 -5.5q33 0 71 8t85.5 28.5
t105.5 56t131 89.5v-195z" />
    <glyph glyph-name="Adieresis" unicode="&#xc4;" horiz-adv-x="1405" 
d="M631 1092l-172 -492h348zM829 0v104l121 15q10 2 17 13t2 22l-111 325h-438l-113 -317q-6 -16 6 -29t23 -14l115 -15v-104h-441v104l115 17l459 1286h233l455 -1249q8 -19 15.5 -26.5t29.5 -12.5l78 -15v-104h-566zM622 1739q0 -29 -11 -54.5t-30.5 -45t-45.5 -30.5
t-55 -11t-55 11t-45 30.5t-30 45t-11 54.5t11 55t30 45.5t45 30.5t55 11t55 -11t45.5 -30.5t30.5 -45.5t11 -55zM1052 1739q0 -29 -11 -54.5t-30.5 -45t-45.5 -30.5t-55 -11t-54.5 11t-45 30.5t-30.5 45t-11 54.5t11 55t30.5 45.5t45 30.5t54.5 11t55 -11t45.5 -30.5
t30.5 -45.5t11 -55z" />
    <glyph glyph-name="Aring" unicode="&#xc5;" horiz-adv-x="1405" 
d="M631 1092l-172 -492h348zM829 0v104l121 15q10 2 17 13t2 22l-111 325h-438l-113 -317q-6 -16 6 -29t23 -14l115 -15v-104h-441v104l115 17l459 1286h233l455 -1249q8 -19 15.5 -26.5t29.5 -12.5l78 -15v-104h-566zM823 1786q0 27 -10 50.5t-27.5 41.5t-41 28t-50.5 10
q-26 0 -49.5 -10t-41 -28t-28 -41.5t-10.5 -50.5t10.5 -50.5t28 -41t41 -27.5t49.5 -10q27 0 50.5 10t41 27.5t27.5 41t10 50.5zM954 1786q0 -54 -20.5 -101t-56 -82t-82.5 -55t-101 -20q-53 0 -100 20t-82 55t-55.5 82t-20.5 101t20.5 101t55.5 82.5t82 55.5t100 20
q54 0 101 -20t82.5 -55.5t56 -82.5t20.5 -101z" />
    <glyph glyph-name="Ccedilla" unicode="&#xc7;" horiz-adv-x="1303" 
d="M996 -268q0 -50 -19 -88t-52.5 -64t-80 -39.5t-100.5 -13.5q-32 0 -62 3t-53 8q-27 4 -51 11v103q23 -5 46 -9q20 -3 42 -5.5t41 -2.5q20 0 41.5 3t39 10.5t29 21.5t11.5 35q0 18 -7.5 31.5t-20 22t-28.5 12.5t-34 4q-6 0 -13.5 -0.5t-14.5 -1.5q-8 -1 -17 -2v202
q-50 6 -97 18q-94 24 -174 69t-144 109t-109 144.5t-69 175t-24 199.5q0 160 55.5 292t152.5 227t229 147.5t284 52.5q58 0 106 -5t96.5 -15.5t103 -26.5t126.5 -39v-348h-160l-45 229q0 5 -8 16.5t-19 16.5q-8 4 -24.5 9.5t-37 10.5t-42.5 9t-41 4q-105 0 -189.5 -41.5
t-143.5 -118t-90.5 -184t-31.5 -240.5q0 -72 11 -143t34.5 -136t61 -120.5t89.5 -96.5t120.5 -64.5t154.5 -23.5q38 0 70 9.5t49 17.5q8 3 20 16.5t15 22.5l45 242h162v-359q-19 -8 -59.5 -21.5t-97.5 -27t-127.5 -23.5t-149.5 -10v-78q3 -1 7 -1q5 -1 22 -1q35 0 66.5 -9
t55 -28t37 -48.5t13.5 -69.5z" />
    <glyph glyph-name="Eacute" unicode="&#xc9;" horiz-adv-x="1225" 
d="M53 0v104l113 11q18 2 32.5 13.5t14.5 31.5v1054q0 20 -14.5 32t-32.5 14l-113 10v104h1045v-327h-148l-32 170q-4 15 -13.5 26.5t-23.5 11.5h-381v-481h243q14 0 23.5 13t11.5 24l19 139h127v-481h-127l-19 139q-2 11 -11.5 24t-23.5 13h-243v-522h446q13 0 24 14t13 25
l31 213h149v-375h-1110zM938 1795q0 -10 -4.5 -22.5t-11.5 -24.5t-17 -22.5t-20 -16.5l-332 -181h-143l280 310q18 19 32.5 31.5t29 20t30.5 10.5t37 3q33 0 55.5 -10t37 -25.5t20.5 -35t6 -37.5z" />
    <glyph glyph-name="Ntilde" unicode="&#xd1;" horiz-adv-x="1524" 
d="M1354 1260q-17 -2 -31 -14t-14 -32v-1214h-250l-690 1083v-923q0 -20 14 -31.5t31 -13.5l114 -11v-104h-473v104l113 11q19 2 32 13.5t13 31.5v1054q0 20 -13 32t-32 14l-111 10v104h506v-55l590 -924v819q0 20 -14.5 32t-32.5 14l-117 10v104h475v-104zM1119 1852
q-13 -53 -34 -99t-51 -80.5t-70.5 -54.5t-92.5 -20q-40 0 -70 15.5t-59.5 33.5t-62.5 33.5t-78 15.5q-34 0 -59.5 -28t-30.5 -70h-111q13 53 34 99t51 80.5t70 54.5t91 20q40 0 71 -15t60.5 -33t62.5 -33t78 -15q16 0 31.5 7.5t27.5 20.5t20.5 30.5t10.5 37.5h111z" />
    <glyph glyph-name="Odieresis" unicode="&#xd6;" horiz-adv-x="1548" 
d="M1145 672q0 120 -22.5 228.5t-67.5 190.5t-112.5 130.5t-156.5 48.5q-71 0 -127 -24t-98.5 -65.5t-72.5 -97.5t-49 -120.5t-27.5 -134t-8.5 -138.5q0 -73 9.5 -145t28.5 -138t49 -123t70 -98.5t91.5 -65.5t114.5 -24q68 0 123 24.5t97 66.5t72 98t49.5 120t28.5 132.5
t9 134.5zM1475 680q0 -147 -49.5 -276.5t-140.5 -226.5t-218 -153.5t-281 -56.5q-153 0 -283.5 48.5t-225 141.5t-148 229t-53.5 310q0 151 47 281.5t135.5 225.5t217 149.5t292.5 54.5q106 0 200 -26.5t172.5 -74t140.5 -114t105 -147.5t66 -173.5t23 -191.5zM702 1739
q0 -29 -11 -54.5t-30.5 -45t-45.5 -30.5t-55 -11t-55 11t-45 30.5t-30 45t-11 54.5t11 55t30 45.5t45 30.5t55 11t55 -11t45.5 -30.5t30.5 -45.5t11 -55zM1132 1739q0 -29 -11 -54.5t-30.5 -45t-45.5 -30.5t-55 -11t-54.5 11t-45 30.5t-30.5 45t-11 54.5t11 55t30.5 45.5
t45 30.5t54.5 11t55 -11t45.5 -30.5t30.5 -45.5t11 -55z" />
    <glyph glyph-name="Udieresis" unicode="&#xdc;" horiz-adv-x="1493" 
d="M1331 1260q-17 -2 -31 -14t-14 -32v-694q0 -151 -34 -256.5t-103 -171.5t-174.5 -95.5t-249.5 -29.5q-264 0 -393 141.5t-129 411.5v694q0 20 -14.5 32t-32.5 14l-111 10v104h606v-104l-110 -10q-17 -2 -31 -14t-14 -32v-710q0 -192 81 -279.5t250 -87.5q81 0 138 26.5
t94 74.5t54 115.5t17 150.5v710q0 20 -13 32t-32 14l-116 10v104h471v-104zM687 1739q0 -29 -11 -54.5t-30.5 -45t-45.5 -30.5t-55 -11t-55 11t-45 30.5t-30 45t-11 54.5t11 55t30 45.5t45 30.5t55 11t55 -11t45.5 -30.5t30.5 -45.5t11 -55zM1117 1739q0 -29 -11 -54.5
t-30.5 -45t-45.5 -30.5t-55 -11t-54.5 11t-45 30.5t-30.5 45t-11 54.5t11 55t30.5 45.5t45 30.5t54.5 11t55 -11t45.5 -30.5t30.5 -45.5t11 -55z" />
    <glyph glyph-name="aacute" unicode="&#xe1;" horiz-adv-x="1133" 
d="M717 0l-27 102q-53 -36 -111 -64q-51 -24 -114 -43.5t-131 -19.5q-56 0 -104.5 18.5t-85 53t-57.5 83.5t-21 110q0 46 7.5 85t30 72.5t64.5 64t111.5 59.5t170.5 58t242 60v25q0 15 1 27q0 14 1 28q1 29 -6 62.5t-28 62t-59 47t-99 18.5q-21 0 -37.5 -1t-27.5 -3
q-13 -2 -23 -4v-194h-211q-26 -2 -46 5q-17 6 -31.5 21t-14.5 47q0 57 40.5 102t106 76.5t147 48.5t162.5 17q88 0 161 -13t125.5 -50.5t81 -105.5t28.5 -179v-526q0 -19 13 -32.5t32 -15.5l90 -6v-96h-381zM690 528q-99 -20 -163.5 -41t-102.5 -48t-53 -61.5t-15 -80.5
q0 -32 10.5 -59.5t30 -48t46.5 -32.5t59 -12q33 0 66.5 7t60.5 15q32 10 61 23v338zM880 1395q0 -10 -4.5 -22.5t-11.5 -24.5t-17 -22.5t-20 -16.5l-332 -181h-143l280 310q18 19 32.5 31.5t29 20t30.5 10.5t37 3q33 0 55.5 -10t37 -25.5t20.5 -35t6 -37.5z" />
    <glyph glyph-name="agrave" unicode="&#xe0;" horiz-adv-x="1133" 
d="M717 0l-27 102q-53 -36 -111 -64q-51 -24 -114 -43.5t-131 -19.5q-56 0 -104.5 18.5t-85 53t-57.5 83.5t-21 110q0 46 7.5 85t30 72.5t64.5 64t111.5 59.5t170.5 58t242 60v25q0 15 1 27q0 14 1 28q1 29 -6 62.5t-28 62t-59 47t-99 18.5q-21 0 -37.5 -1t-27.5 -3
q-13 -2 -23 -4v-194h-211q-26 -2 -46 5q-17 6 -31.5 21t-14.5 47q0 57 40.5 102t106 76.5t147 48.5t162.5 17q88 0 161 -13t125.5 -50.5t81 -105.5t28.5 -179v-526q0 -19 13 -32.5t32 -15.5l90 -6v-96h-381zM690 528q-99 -20 -163.5 -41t-102.5 -48t-53 -61.5t-15 -80.5
q0 -32 10.5 -59.5t30 -48t46.5 -32.5t59 -12q33 0 66.5 7t60.5 15q32 10 61 23v338zM608 1128l-332 181q-11 6 -20 16.5t-16 22.5t-11 24.5t-4 22.5q0 18 6 37.5t19.5 35t36 25.5t55.5 10q21 0 37 -3t30.5 -10.5t29 -20t32.5 -31.5l280 -310h-143z" />
    <glyph glyph-name="acircumflex" unicode="&#xe2;" horiz-adv-x="1133" 
d="M717 0l-27 102q-53 -36 -111 -64q-51 -24 -114 -43.5t-131 -19.5q-56 0 -104.5 18.5t-85 53t-57.5 83.5t-21 110q0 46 7.5 85t30 72.5t64.5 64t111.5 59.5t170.5 58t242 60v25q0 15 1 27q0 14 1 28q1 29 -6 62.5t-28 62t-59 47t-99 18.5q-21 0 -37.5 -1t-27.5 -3
q-13 -2 -23 -4v-194h-211q-26 -2 -46 5q-17 6 -31.5 21t-14.5 47q0 57 40.5 102t106 76.5t147 48.5t162.5 17q88 0 161 -13t125.5 -50.5t81 -105.5t28.5 -179v-526q0 -19 13 -32.5t32 -15.5l90 -6v-96h-381zM690 528q-99 -20 -163.5 -41t-102.5 -48t-53 -61.5t-15 -80.5
q0 -32 10.5 -59.5t30 -48t46.5 -32.5t59 -12q33 0 66.5 7t60.5 15q32 10 61 23v338zM728 1128l-178 195l-178 -195h-170l227 351h242l227 -351h-170z" />
    <glyph glyph-name="adieresis" unicode="&#xe4;" horiz-adv-x="1133" 
d="M717 0l-27 102q-53 -36 -111 -64q-51 -24 -114 -43.5t-131 -19.5q-56 0 -104.5 18.5t-85 53t-57.5 83.5t-21 110q0 46 7.5 85t30 72.5t64.5 64t111.5 59.5t170.5 58t242 60v25q0 15 1 27q0 14 1 28q1 29 -6 62.5t-28 62t-59 47t-99 18.5q-21 0 -37.5 -1t-27.5 -3
q-13 -2 -23 -4v-194h-211q-26 -2 -46 5q-17 6 -31.5 21t-14.5 47q0 57 40.5 102t106 76.5t147 48.5t162.5 17q88 0 161 -13t125.5 -50.5t81 -105.5t28.5 -179v-526q0 -19 13 -32.5t32 -15.5l90 -6v-96h-381zM690 528q-99 -20 -163.5 -41t-102.5 -48t-53 -61.5t-15 -80.5
q0 -32 10.5 -59.5t30 -48t46.5 -32.5t59 -12q33 0 66.5 7t60.5 15q32 10 61 23v338zM477 1339q0 -29 -11 -54.5t-30.5 -45t-45.5 -30.5t-55 -11t-55 11t-45 30.5t-30 45t-11 54.5t11 55t30 45.5t45 30.5t55 11t55 -11t45.5 -30.5t30.5 -45.5t11 -55zM907 1339
q0 -29 -11 -54.5t-30.5 -45t-45.5 -30.5t-55 -11t-54.5 11t-45 30.5t-30.5 45t-11 54.5t11 55t30.5 45.5t45 30.5t54.5 11t55 -11t45.5 -30.5t30.5 -45.5t11 -55z" />
    <glyph glyph-name="atilde" unicode="&#xe3;" horiz-adv-x="1133" 
d="M717 0l-27 102q-53 -36 -111 -64q-51 -24 -114 -43.5t-131 -19.5q-56 0 -104.5 18.5t-85 53t-57.5 83.5t-21 110q0 46 7.5 85t30 72.5t64.5 64t111.5 59.5t170.5 58t242 60v25q0 15 1 27q0 14 1 28q1 29 -6 62.5t-28 62t-59 47t-99 18.5q-21 0 -37.5 -1t-27.5 -3
q-13 -2 -23 -4v-194h-211q-26 -2 -46 5q-17 6 -31.5 21t-14.5 47q0 57 40.5 102t106 76.5t147 48.5t162.5 17q88 0 161 -13t125.5 -50.5t81 -105.5t28.5 -179v-526q0 -19 13 -32.5t32 -15.5l90 -6v-96h-381zM690 528q-99 -20 -163.5 -41t-102.5 -48t-53 -61.5t-15 -80.5
q0 -32 10.5 -59.5t30 -48t46.5 -32.5t59 -12q33 0 66.5 7t60.5 15q32 10 61 23v338zM910 1452q-13 -53 -34 -99t-51 -80.5t-70.5 -54.5t-92.5 -20q-40 0 -70 15.5t-59.5 33.5t-62.5 33.5t-78 15.5q-34 0 -59.5 -28t-30.5 -70h-111q13 53 34 99t51 80.5t70 54.5t91 20
q40 0 71 -15t60.5 -33t62.5 -33t78 -15q16 0 31.5 7.5t27.5 20.5t20.5 30.5t10.5 37.5h111z" />
    <glyph glyph-name="aring" unicode="&#xe5;" horiz-adv-x="1133" 
d="M717 0l-27 102q-53 -36 -111 -64q-51 -24 -114 -43.5t-131 -19.5q-56 0 -104.5 18.5t-85 53t-57.5 83.5t-21 110q0 46 7.5 85t30 72.5t64.5 64t111.5 59.5t170.5 58t242 60v25q0 15 1 27q0 14 1 28q1 29 -6 62.5t-28 62t-59 47t-99 18.5q-21 0 -37.5 -1t-27.5 -3
q-13 -2 -23 -4v-194h-211q-26 -2 -46 5q-17 6 -31.5 21t-14.5 47q0 57 40.5 102t106 76.5t147 48.5t162.5 17q88 0 161 -13t125.5 -50.5t81 -105.5t28.5 -179v-526q0 -19 13 -32.5t32 -15.5l90 -6v-96h-381zM690 528q-99 -20 -163.5 -41t-102.5 -48t-53 -61.5t-15 -80.5
q0 -32 10.5 -59.5t30 -48t46.5 -32.5t59 -12q33 0 66.5 7t60.5 15q32 10 61 23v338zM678 1386q0 27 -10 50.5t-27.5 41.5t-41 28t-50.5 10q-26 0 -49.5 -10t-41 -28t-28 -41.5t-10.5 -50.5t10.5 -50.5t28 -41t41 -27.5t49.5 -10q27 0 50.5 10t41 27.5t27.5 41t10 50.5z
M809 1386q0 -54 -20.5 -101t-56 -82t-82.5 -55t-101 -20q-53 0 -100 20t-82 55t-55.5 82t-20.5 101t20.5 101t55.5 82.5t82 55.5t100 20q54 0 101 -20t82.5 -55.5t56 -82.5t20.5 -101z" />
    <glyph glyph-name="ccedilla" unicode="&#xe7;" horiz-adv-x="1028" 
d="M821 -268q0 -50 -19 -88t-52.5 -64t-80 -39.5t-100.5 -13.5q-32 0 -62 3t-53 8q-27 4 -51 11v103q23 -5 46 -9q20 -3 42 -5.5t41 -2.5q20 0 41.5 3t39 10.5t29 21.5t11.5 35q0 18 -7.5 31.5t-20 22t-28.5 12.5t-34 4q-6 0 -13.5 -0.5t-14.5 -1.5q-8 -1 -17 -2v206
q-94 6 -169 39q-92 41 -155 110.5t-95.5 160.5t-32.5 192q0 121 41.5 221.5t113 172.5t167.5 111.5t206 39.5q81 0 146 -16.5t111.5 -46.5t71.5 -71.5t25 -90.5q0 -35 -12.5 -63t-32.5 -48.5t-46 -31.5t-54 -11q-32 0 -53.5 4t-36.5 10.5t-26 14t-21 14.5v230q-13 0 -20.5 1
t-18.5 1q-47 0 -93.5 -24t-83.5 -71.5t-60 -119t-23 -166.5q0 -90 21.5 -162.5t61.5 -123.5t98 -78.5t130 -27.5q47 0 94 13t86.5 30t68 33.5t38.5 24.5v-158q-26 -12 -63.5 -31t-87 -38t-112.5 -32q-38 -8 -82 -12v-88q3 -1 7 -1q5 -1 22 -1q35 0 66.5 -9t55 -28t37 -48.5
t13.5 -69.5z" />
    <glyph glyph-name="eacute" unicode="&#xe9;" horiz-adv-x="1083" 
d="M727 668q0 49 -9 92t-29.5 74.5t-52.5 50t-77 18.5q-57 0 -95.5 -25.5t-62 -66t-33.5 -90.5t-10 -98h369v45zM1020 96q-53 -35 -119 -61q-57 -23 -136 -41.5t-177 -18.5q-131 0 -228.5 40t-163 109.5t-98 162.5t-32.5 200q0 116 36.5 214.5t104 170t163 112t212.5 40.5
q120 0 203.5 -39.5t135.5 -105t75.5 -149.5t23.5 -173v-49h-672q0 -84 21 -151t61.5 -114t99.5 -72.5t134 -25.5q78 0 142.5 17.5t112.5 39.5q55 26 101 58v-164zM900 1395q0 -10 -4.5 -22.5t-11.5 -24.5t-17 -22.5t-20 -16.5l-332 -181h-143l280 310q18 19 32.5 31.5t29 20
t30.5 10.5t37 3q33 0 55.5 -10t37 -25.5t20.5 -35t6 -37.5z" />
    <glyph glyph-name="egrave" unicode="&#xe8;" horiz-adv-x="1083" 
d="M727 668q0 49 -9 92t-29.5 74.5t-52.5 50t-77 18.5q-57 0 -95.5 -25.5t-62 -66t-33.5 -90.5t-10 -98h369v45zM1020 96q-53 -35 -119 -61q-57 -23 -136 -41.5t-177 -18.5q-131 0 -228.5 40t-163 109.5t-98 162.5t-32.5 200q0 116 36.5 214.5t104 170t163 112t212.5 40.5
q120 0 203.5 -39.5t135.5 -105t75.5 -149.5t23.5 -173v-49h-672q0 -84 21 -151t61.5 -114t99.5 -72.5t134 -25.5q78 0 142.5 17.5t112.5 39.5q55 26 101 58v-164zM628 1128l-332 181q-11 6 -20 16.5t-16 22.5t-11 24.5t-4 22.5q0 18 6 37.5t19.5 35t36 25.5t55.5 10
q21 0 37 -3t30.5 -10.5t29 -20t32.5 -31.5l280 -310h-143z" />
    <glyph glyph-name="ecircumflex" unicode="&#xea;" horiz-adv-x="1083" 
d="M727 668q0 49 -9 92t-29.5 74.5t-52.5 50t-77 18.5q-57 0 -95.5 -25.5t-62 -66t-33.5 -90.5t-10 -98h369v45zM1020 96q-53 -35 -119 -61q-57 -23 -136 -41.5t-177 -18.5q-131 0 -228.5 40t-163 109.5t-98 162.5t-32.5 200q0 116 36.5 214.5t104 170t163 112t212.5 40.5
q120 0 203.5 -39.5t135.5 -105t75.5 -149.5t23.5 -173v-49h-672q0 -84 21 -151t61.5 -114t99.5 -72.5t134 -25.5q78 0 142.5 17.5t112.5 39.5q55 26 101 58v-164zM748 1128l-178 195l-178 -195h-170l227 351h242l227 -351h-170z" />
    <glyph glyph-name="edieresis" unicode="&#xeb;" horiz-adv-x="1083" 
d="M727 668q0 49 -9 92t-29.5 74.5t-52.5 50t-77 18.5q-57 0 -95.5 -25.5t-62 -66t-33.5 -90.5t-10 -98h369v45zM1020 96q-53 -35 -119 -61q-57 -23 -136 -41.5t-177 -18.5q-131 0 -228.5 40t-163 109.5t-98 162.5t-32.5 200q0 116 36.5 214.5t104 170t163 112t212.5 40.5
q120 0 203.5 -39.5t135.5 -105t75.5 -149.5t23.5 -173v-49h-672q0 -84 21 -151t61.5 -114t99.5 -72.5t134 -25.5q78 0 142.5 17.5t112.5 39.5q55 26 101 58v-164zM497 1339q0 -29 -11 -54.5t-30.5 -45t-45.5 -30.5t-55 -11t-55 11t-45 30.5t-30 45t-11 54.5t11 55t30 45.5
t45 30.5t55 11t55 -11t45.5 -30.5t30.5 -45.5t11 -55zM927 1339q0 -29 -11 -54.5t-30.5 -45t-45.5 -30.5t-55 -11t-54.5 11t-45 30.5t-30.5 45t-11 54.5t11 55t30.5 45.5t45 30.5t54.5 11t55 -11t45.5 -30.5t30.5 -45.5t11 -55z" />
    <glyph glyph-name="iacute" unicode="&#xed;" horiz-adv-x="682" 
d="M66 0v96l94 6q18 2 31.5 15.5t13.5 32.5v688h-131v84l299 102h104v-874q0 -19 14.5 -32.5t32.5 -15.5l99 -6v-96h-557zM674 1395q0 -10 -4.5 -22.5t-11.5 -24.5t-17 -22.5t-20 -16.5l-332 -181h-143l280 310q18 19 32.5 31.5t29 20t30.5 10.5t37 3q33 0 55.5 -10
t37 -25.5t20.5 -35t6 -37.5z" />
    <glyph glyph-name="igrave" unicode="&#xec;" horiz-adv-x="682" 
d="M66 0v96l94 6q18 2 31.5 15.5t13.5 32.5v688h-131v84l299 102h104v-874q0 -19 14.5 -32.5t32.5 -15.5l99 -6v-96h-557zM402 1128l-332 181q-11 6 -20 16.5t-16 22.5t-11 24.5t-4 22.5q0 18 6 37.5t19.5 35t36 25.5t55.5 10q21 0 37 -3t30.5 -10.5t29 -20t32.5 -31.5
l280 -310h-143z" />
    <glyph glyph-name="icircumflex" unicode="&#xee;" horiz-adv-x="682" 
d="M66 0v96l94 6q18 2 31.5 15.5t13.5 32.5v688h-131v84l299 102h104v-874q0 -19 14.5 -32.5t32.5 -15.5l99 -6v-96h-557zM522 1128l-178 195l-178 -195h-170l227 351h242l227 -351h-170z" />
    <glyph glyph-name="idieresis" unicode="&#xef;" horiz-adv-x="682" 
d="M66 0v96l94 6q18 2 31.5 15.5t13.5 32.5v688h-131v84l299 102h104v-874q0 -19 14.5 -32.5t32.5 -15.5l99 -6v-96h-557zM271 1339q0 -29 -11 -54.5t-30.5 -45t-45.5 -30.5t-55 -11t-55 11t-45 30.5t-30 45t-11 54.5t11 55t30 45.5t45 30.5t55 11t55 -11t45.5 -30.5
t30.5 -45.5t11 -55zM701 1339q0 -29 -11 -54.5t-30.5 -45t-45.5 -30.5t-55 -11t-54.5 11t-45 30.5t-30.5 45t-11 54.5t11 55t30.5 45.5t45 30.5t54.5 11t55 -11t45.5 -30.5t30.5 -45.5t11 -55z" />
    <glyph glyph-name="ntilde" unicode="&#xf1;" horiz-adv-x="1280" 
d="M702 0v96l76 6q19 2 32 15.5t13 32.5v481q0 39 -9 76t-29 65.5t-52 46t-78 17.5q-42 0 -78 -4.5t-62 -9.5q-31 -6 -56 -13v-659q0 -19 14 -32.5t33 -15.5l61 -6v-96h-501v96l73 6q19 2 32 15.5t13 32.5v686h-141v84l309 104h107v-125q53 35 113 62q51 23 115 43t130 20
q88 0 143 -30.5t85 -80.5t40.5 -114t10.5 -131v-518q0 -19 14 -32.5t33 -15.5l63 -6v-96h-504zM984 1452q-13 -53 -34 -99t-51 -80.5t-70.5 -54.5t-92.5 -20q-40 0 -70 15.5t-59.5 33.5t-62.5 33.5t-78 15.5q-34 0 -59.5 -28t-30.5 -70h-111q13 53 34 99t51 80.5t70 54.5
t91 20q40 0 71 -15t60.5 -33t62.5 -33t78 -15q16 0 31.5 7.5t27.5 20.5t20.5 30.5t10.5 37.5h111z" />
    <glyph glyph-name="oacute" unicode="&#xf3;" horiz-adv-x="1196" 
d="M827 496q0 43 -4 90.5t-13.5 93.5t-26.5 87t-42.5 72t-60.5 49.5t-82 18.5q-69 0 -113 -38t-68.5 -97.5t-34 -130.5t-9.5 -137q0 -44 3.5 -92t13 -94t25.5 -87t41.5 -72.5t60.5 -50t83 -18.5q70 0 114 37.5t69 96.5t34.5 131t9.5 141zM1133 494q0 -115 -36.5 -210.5
t-106.5 -164t-170.5 -106.5t-227.5 -38q-117 0 -213.5 36t-166 103t-108 163.5t-38.5 218.5q0 126 40 224t111.5 165.5t170.5 103t218 35.5q127 0 225 -39t165 -109.5t102 -167.5t35 -214zM929 1395q0 -10 -4.5 -22.5t-11.5 -24.5t-17 -22.5t-20 -16.5l-332 -181h-143
l280 310q18 19 32.5 31.5t29 20t30.5 10.5t37 3q33 0 55.5 -10t37 -25.5t20.5 -35t6 -37.5z" />
    <glyph glyph-name="ograve" unicode="&#xf2;" horiz-adv-x="1196" 
d="M827 496q0 43 -4 90.5t-13.5 93.5t-26.5 87t-42.5 72t-60.5 49.5t-82 18.5q-69 0 -113 -38t-68.5 -97.5t-34 -130.5t-9.5 -137q0 -44 3.5 -92t13 -94t25.5 -87t41.5 -72.5t60.5 -50t83 -18.5q70 0 114 37.5t69 96.5t34.5 131t9.5 141zM1133 494q0 -115 -36.5 -210.5
t-106.5 -164t-170.5 -106.5t-227.5 -38q-117 0 -213.5 36t-166 103t-108 163.5t-38.5 218.5q0 126 40 224t111.5 165.5t170.5 103t218 35.5q127 0 225 -39t165 -109.5t102 -167.5t35 -214zM657 1128l-332 181q-11 6 -20 16.5t-16 22.5t-11 24.5t-4 22.5q0 18 6 37.5t19.5 35
t36 25.5t55.5 10q21 0 37 -3t30.5 -10.5t29 -20t32.5 -31.5l280 -310h-143z" />
    <glyph glyph-name="ocircumflex" unicode="&#xf4;" horiz-adv-x="1196" 
d="M827 496q0 43 -4 90.5t-13.5 93.5t-26.5 87t-42.5 72t-60.5 49.5t-82 18.5q-69 0 -113 -38t-68.5 -97.5t-34 -130.5t-9.5 -137q0 -44 3.5 -92t13 -94t25.5 -87t41.5 -72.5t60.5 -50t83 -18.5q70 0 114 37.5t69 96.5t34.5 131t9.5 141zM1133 494q0 -115 -36.5 -210.5
t-106.5 -164t-170.5 -106.5t-227.5 -38q-117 0 -213.5 36t-166 103t-108 163.5t-38.5 218.5q0 126 40 224t111.5 165.5t170.5 103t218 35.5q127 0 225 -39t165 -109.5t102 -167.5t35 -214zM777 1128l-178 195l-178 -195h-170l227 351h242l227 -351h-170z" />
    <glyph glyph-name="odieresis" unicode="&#xf6;" horiz-adv-x="1196" 
d="M827 496q0 43 -4 90.5t-13.5 93.5t-26.5 87t-42.5 72t-60.5 49.5t-82 18.5q-69 0 -113 -38t-68.5 -97.5t-34 -130.5t-9.5 -137q0 -44 3.5 -92t13 -94t25.5 -87t41.5 -72.5t60.5 -50t83 -18.5q70 0 114 37.5t69 96.5t34.5 131t9.5 141zM1133 494q0 -115 -36.5 -210.5
t-106.5 -164t-170.5 -106.5t-227.5 -38q-117 0 -213.5 36t-166 103t-108 163.5t-38.5 218.5q0 126 40 224t111.5 165.5t170.5 103t218 35.5q127 0 225 -39t165 -109.5t102 -167.5t35 -214zM526 1339q0 -29 -11 -54.5t-30.5 -45t-45.5 -30.5t-55 -11t-55 11t-45 30.5t-30 45
t-11 54.5t11 55t30 45.5t45 30.5t55 11t55 -11t45.5 -30.5t30.5 -45.5t11 -55zM956 1339q0 -29 -11 -54.5t-30.5 -45t-45.5 -30.5t-55 -11t-54.5 11t-45 30.5t-30.5 45t-11 54.5t11 55t30.5 45.5t45 30.5t54.5 11t55 -11t45.5 -30.5t30.5 -45.5t11 -55z" />
    <glyph glyph-name="otilde" unicode="&#xf5;" horiz-adv-x="1196" 
d="M827 496q0 43 -4 90.5t-13.5 93.5t-26.5 87t-42.5 72t-60.5 49.5t-82 18.5q-69 0 -113 -38t-68.5 -97.5t-34 -130.5t-9.5 -137q0 -44 3.5 -92t13 -94t25.5 -87t41.5 -72.5t60.5 -50t83 -18.5q70 0 114 37.5t69 96.5t34.5 131t9.5 141zM1133 494q0 -115 -36.5 -210.5
t-106.5 -164t-170.5 -106.5t-227.5 -38q-117 0 -213.5 36t-166 103t-108 163.5t-38.5 218.5q0 126 40 224t111.5 165.5t170.5 103t218 35.5q127 0 225 -39t165 -109.5t102 -167.5t35 -214zM959 1452q-13 -53 -34 -99t-51 -80.5t-70.5 -54.5t-92.5 -20q-40 0 -70 15.5
t-59.5 33.5t-62.5 33.5t-78 15.5q-34 0 -59.5 -28t-30.5 -70h-111q13 53 34 99t51 80.5t70 54.5t91 20q40 0 71 -15t60.5 -33t62.5 -33t78 -15q16 0 31.5 7.5t27.5 20.5t20.5 30.5t10.5 37.5h111z" />
    <glyph glyph-name="uacute" unicode="&#xfa;" horiz-adv-x="1270" 
d="M811 0v113q-51 -39 -106 -69q-47 -26 -104 -47.5t-114 -21.5q-87 0 -145.5 23t-93.5 66t-49.5 105t-14.5 140v529h-133v84l301 102h107v-635q0 -38 5 -78t24 -73t56.5 -54.5t102.5 -21.5q32 0 61.5 5t52.5 12q26 8 50 18v641h-129v84l299 102h104v-874q0 -19 14.5 -32.5
t33.5 -15.5l90 -6v-96h-412zM967 1395q0 -10 -4.5 -22.5t-11.5 -24.5t-17 -22.5t-20 -16.5l-332 -181h-143l280 310q18 19 32.5 31.5t29 20t30.5 10.5t37 3q33 0 55.5 -10t37 -25.5t20.5 -35t6 -37.5z" />
    <glyph glyph-name="ugrave" unicode="&#xf9;" horiz-adv-x="1270" 
d="M811 0v113q-51 -39 -106 -69q-47 -26 -104 -47.5t-114 -21.5q-87 0 -145.5 23t-93.5 66t-49.5 105t-14.5 140v529h-133v84l301 102h107v-635q0 -38 5 -78t24 -73t56.5 -54.5t102.5 -21.5q32 0 61.5 5t52.5 12q26 8 50 18v641h-129v84l299 102h104v-874q0 -19 14.5 -32.5
t33.5 -15.5l90 -6v-96h-412zM695 1128l-332 181q-11 6 -20 16.5t-16 22.5t-11 24.5t-4 22.5q0 18 6 37.5t19.5 35t36 25.5t55.5 10q21 0 37 -3t30.5 -10.5t29 -20t32.5 -31.5l280 -310h-143z" />
    <glyph glyph-name="ucircumflex" unicode="&#xfb;" horiz-adv-x="1270" 
d="M811 0v113q-51 -39 -106 -69q-47 -26 -104 -47.5t-114 -21.5q-87 0 -145.5 23t-93.5 66t-49.5 105t-14.5 140v529h-133v84l301 102h107v-635q0 -38 5 -78t24 -73t56.5 -54.5t102.5 -21.5q32 0 61.5 5t52.5 12q26 8 50 18v641h-129v84l299 102h104v-874q0 -19 14.5 -32.5
t33.5 -15.5l90 -6v-96h-412zM815 1128l-178 195l-178 -195h-170l227 351h242l227 -351h-170z" />
    <glyph glyph-name="udieresis" unicode="&#xfc;" horiz-adv-x="1270" 
d="M811 0v113q-51 -39 -106 -69q-47 -26 -104 -47.5t-114 -21.5q-87 0 -145.5 23t-93.5 66t-49.5 105t-14.5 140v529h-133v84l301 102h107v-635q0 -38 5 -78t24 -73t56.5 -54.5t102.5 -21.5q32 0 61.5 5t52.5 12q26 8 50 18v641h-129v84l299 102h104v-874q0 -19 14.5 -32.5
t33.5 -15.5l90 -6v-96h-412zM564 1339q0 -29 -11 -54.5t-30.5 -45t-45.5 -30.5t-55 -11t-55 11t-45 30.5t-30 45t-11 54.5t11 55t30 45.5t45 30.5t55 11t55 -11t45.5 -30.5t30.5 -45.5t11 -55zM994 1339q0 -29 -11 -54.5t-30.5 -45t-45.5 -30.5t-55 -11t-54.5 11t-45 30.5
t-30.5 45t-11 54.5t11 55t30.5 45.5t45 30.5t54.5 11t55 -11t45.5 -30.5t30.5 -45.5t11 -55z" />
    <glyph glyph-name="dagger" unicode="&#x2020;" horiz-adv-x="1024" 
d="M543 -270h-62l-106 852l114 360h46l114 -360zM178 864l-137 125l137 127l291 -108v-45zM535 1028h-46l-112 281l135 157l129 -157zM838 864l-283 99v45l283 108l145 -127z" />
    <glyph glyph-name="degree" unicode="&#xb0;" horiz-adv-x="655" 
d="M471 1249q0 30 -11 56t-30.5 45.5t-45.5 31t-56 11.5t-56.5 -11.5t-46 -31t-30.5 -45.5t-11 -56t11 -56t30.5 -45.5t46 -30.5t56.5 -11t56 11t45.5 30.5t30.5 45.5t11 56zM553 1249q0 -47 -17.5 -88t-48 -71.5t-71.5 -48t-88 -17.5t-88 17.5t-72 48t-48.5 71.5t-17.5 88
t17.5 88t48.5 72t72 48.5t88 17.5t88 -17.5t71.5 -48.5t48 -72t17.5 -88z" />
    <glyph glyph-name="cent" unicode="&#xa2;" horiz-adv-x="1202" 
d="M659 928q-41 -9 -84 -35.5t-78 -75.5t-57 -123t-22 -178q0 -82 20.5 -149t54 -116.5t77 -80.5t89.5 -43v801zM1067 55q-7 -7 -28 -14t-49.5 -13t-61 -11t-63 -9t-54.5 -6t-35 -2v-211h-117v213q-107 0 -202 39.5t-166.5 109t-113.5 163.5t-42 202q0 117 41.5 214.5
t113 168.5t167 110.5t202.5 39.5v211h117v-207q34 0 73.5 -5t79.5 -13.5t76 -20t62 -23.5v-295h-127l-22 148v47q-7 5 -22.5 12t-35.5 13.5t-42 11t-42 4.5v-809q35 0 61.5 5t43.5 11q20 7 34 17v41l25 163h127v-305z" />
    <glyph glyph-name="sterling" unicode="&#xa3;" horiz-adv-x="1202" 
d="M86 0v156q10 4 30 8t44 14.5t49.5 31t46 59.5t32.5 99t11 150l-2 90h-143v131h141l-4 36q-2 16 -3 33.5t-1 33.5q0 120 27 223.5t85 179.5t148 119t215 43q54 0 116 -14t114.5 -44t87 -76.5t34.5 -111.5q0 -35 -14 -62t-37.5 -45t-53.5 -27t-61 -9q-14 0 -28.5 2.5
t-28.5 6.5q-16 4 -31 9v250q-5 2 -13 4q-7 2 -19 3t-29 1q-62 0 -104 -24t-68.5 -62t-40.5 -86.5t-20 -98t-6.5 -95t-0.5 -78.5q0 -25 0.5 -45.5t1.5 -34.5q1 -18 2 -31h371v-131h-367q0 -54 -7.5 -106.5t-30.5 -103t-67 -100t-116 -97.5q35 4 63 8q24 3 45.5 5.5t26.5 2.5
h633v-217h-1028z" />
    <glyph glyph-name="section" unicode="&#xa7;" horiz-adv-x="1024" 
d="M750 557q0 46 -20 83.5t-51 67t-68 52t-72 39t-62.5 28t-38.5 19.5q-2 -1 -15 -5.5t-32 -13.5t-40.5 -23.5t-40 -36t-30.5 -50.5t-12 -66q0 -43 15 -77t40.5 -62t58 -50.5t67.5 -41.5t70 -35t65 -31q-5 -3 5 2t28.5 17t41.5 30t43 41t34 51.5t14 61.5zM938 627
q0 -62 -17.5 -110t-43.5 -84.5t-57 -62t-59 -42t-47.5 -25t-23.5 -10.5q17 -11 51.5 -30t69 -50.5t60.5 -77t26 -108.5q0 -89 -38.5 -150.5t-99.5 -99t-137 -54t-151 -16.5q-74 0 -135.5 10.5t-106.5 23.5q-53 15 -96 34v284h125l27 -190q20 -12 46 -21t52 -15t50.5 -8.5
t41.5 -2.5q39 0 74 11.5t61.5 32t42 49.5t15.5 65q0 45 -25 78.5t-66 62t-93 53.5t-107 52t-107 59.5t-93 74.5t-66 97.5t-25 128.5q0 56 15 100t38 78t51.5 59t55 42t48.5 27t32 15q-20 12 -54 32t-66 51.5t-55.5 77t-23.5 110.5q0 76 34 131.5t92 92.5t133.5 55t158.5 18
q73 0 133 -8t104 -18q51 -11 92 -26v-282h-112l-23 168q-22 15 -50 27q-24 11 -59 19.5t-79 8.5q-35 0 -68 -10t-59.5 -30t-42.5 -49.5t-16 -68.5q0 -40 24.5 -71.5t65 -58.5t92 -51.5t105 -51.5t105 -58.5t92 -72.5t65 -93.5t24.5 -121.5z" />
    <glyph glyph-name="bullet" unicode="&#x2022;" horiz-adv-x="614" 
d="M543 696q0 -49 -18.5 -92t-50.5 -74.5t-75 -50t-92 -18.5t-92 18.5t-74.5 50t-50 74.5t-18.5 92t18.5 92t50 75t74.5 50.5t92 18.5t92 -18.5t75 -50.5t50.5 -75t18.5 -92z" />
    <glyph glyph-name="paragraph" unicode="&#xb6;" horiz-adv-x="1065" 
d="M883 -162h-150v1407h-127v-694q-121 0 -222.5 18t-174.5 64t-113.5 125.5t-40.5 202.5q0 117 35 196t100.5 127t158.5 69t210 21h451v-117l-127 -18v-1401z" />
    <glyph glyph-name="germandbls" unicode="&#xdf;" horiz-adv-x="1386" 
d="M55 96l82 6q19 2 33 13t14 32v760q0 49 8.5 114t31.5 134t63.5 136.5t105 120.5t155.5 85.5t214 32.5q78 0 152.5 -23.5t133 -70.5t94.5 -119.5t36 -169.5q0 -50 -5 -95t-16 -83q-18 3 -34 2.5t-27 -0.5q-34 -1 -67 -9.5t-59.5 -26t-42.5 -44.5t-16 -66q0 -44 30.5 -78.5
t76.5 -66.5t99 -65t99 -74.5t76.5 -94.5t30.5 -124q0 -80 -33 -144t-88.5 -109t-128.5 -69.5t-153 -24.5q-55 0 -103.5 6t-85.5 14q-43 9 -80 21v297h135l17 -192q10 -9 25 -15q13 -5 32.5 -9.5t48.5 -4.5q37 0 66.5 14t49.5 36.5t31 50t11 55.5q0 43 -18 74.5t-48 57.5
t-67.5 47t-77.5 43t-77.5 46t-67.5 55t-48 71t-18 93q0 58 17.5 103.5t49 79.5t73.5 57t92 35q5 32 9 62l6 52q3 26 3 43q0 38 -10.5 80t-33 77t-57.5 58t-83 23q-65 0 -108.5 -25.5t-71.5 -65.5t-43 -87.5t-21.5 -91t-7 -77.5t-0.5 -46v-865q0 -21 14 -32t33 -13l82 -6v-96
h-533v96z" />
    <glyph glyph-name="registered" unicode="&#xae;" horiz-adv-x="1714" 
d="M1651 717q0 -110 -28.5 -212t-80.5 -190.5t-124.5 -161.5t-161 -124.5t-190.5 -80t-212 -28.5q-108 0 -208.5 28.5t-188 80t-159.5 124.5t-123.5 161.5t-80 190.5t-28.5 212q0 109 28.5 211t79.5 190t123.5 161t160.5 125t189.5 80.5t210.5 28.5q108 0 209 -28.5
t189.5 -80t161 -124.5t124.5 -161.5t80.5 -190t28.5 -211.5zM1552 717q0 97 -25 186.5t-70 167t-108.5 141.5t-140.5 109.5t-165.5 70.5t-184.5 25q-95 0 -183 -24.5t-165 -70t-141 -109.5t-109.5 -142t-70.5 -168.5t-25 -189.5q0 -95 24.5 -184t69.5 -166t108 -141
t140 -110t165.5 -71t184.5 -25t185 25.5t166.5 71.5t141 110t108.5 142t70 167t25 185zM1337 291q-46 -6 -74 -7t-53 -1q-67 0 -111 17t-73.5 45t-47 64t-31.5 73.5t-27.5 73.5t-34.5 64t-53 45t-82 17q-8 0 -12 1t-15 1v-289q0 -14 9 -22t22 -8l75 -7v-67h-405v67l72 7
q11 0 20.5 8t9.5 22v688q0 13 -9.5 20t-20.5 9l-72 8v68h455q24 0 55.5 -3.5t64.5 -12.5t64.5 -24.5t56 -40.5t39.5 -60t15 -82q0 -68 -27 -111.5t-65 -69.5t-78.5 -37.5t-67.5 -15.5q56 -11 91.5 -34.5t57.5 -54t34.5 -65t22.5 -68.5t21.5 -64t32.5 -51.5t54 -31.5t87 -4
v-67zM969 918q0 85 -52 126t-151 41h-43v-344q17 -2 28 -2h17q31 0 66 6.5t65 26t50 54.5t20 92z" />
    <glyph glyph-name="copyright" unicode="&#xa9;" horiz-adv-x="1714" 
d="M1552 717q0 97 -25 186.5t-70 167t-108.5 141.5t-140.5 109.5t-165.5 70.5t-184.5 25q-95 0 -183 -24.5t-165 -70t-141 -109.5t-109.5 -142t-70.5 -168.5t-25 -189.5q0 -95 24.5 -184t69.5 -166t108 -141t140 -110t165.5 -71t184.5 -25t185 25.5t166.5 71.5t141 110
t108.5 142t70 167t25 185zM1651 717q0 -110 -28.5 -212t-80.5 -190.5t-124.5 -161.5t-161 -124.5t-190.5 -80t-212 -28.5q-108 0 -208.5 28.5t-188 80t-159.5 124.5t-123.5 161.5t-80 190.5t-28.5 212q0 109 28.5 211t79.5 190t123.5 161t160.5 125t189.5 80.5t210.5 28.5
q108 0 209 -28.5t189.5 -80t161 -124.5t124.5 -161.5t80.5 -190t28.5 -211.5zM1204 285q-37 -15 -83 -26q-39 -10 -93.5 -18t-120.5 -8q-108 0 -199.5 32.5t-157.5 95t-103 152.5t-37 204q0 99 34.5 186.5t100 153t159 103.5t211.5 38q69 0 123 -8.5t91 -19.5q43 -12 75 -27
v-248h-114l-29 164q-12 10 -29 18q-14 7 -36 13t-52 6q-81 0 -138.5 -35t-93.5 -90t-52.5 -123t-16.5 -135q0 -81 20 -150t58.5 -119.5t93 -79t123.5 -28.5q28 0 50 4.5t39 9.5q18 6 34 15l29 176h114v-256z" />
    <glyph glyph-name="trademark" unicode="&#x2122;" horiz-adv-x="1374" 
d="M477 1202l-14 88q0 10 -17 10h-79v-419l67 -15v-51h-260v51l68 15v419h-78q-8 0 -13.5 -3.5t-5.5 -6.5l-14 -88h-65v154h477v-154h-66zM1069 815v51l59 15v399l-163 -465h-68l-158 467v-401l62 -15v-51h-191v51l62 15v409l-62 10v56h236v-27l115 -342l112 342v27h238v-56
l-68 -12v-407l68 -15v-51h-242z" />
    <glyph glyph-name="acute" unicode="&#xb4;" horiz-adv-x="768" 
d="M768 1395q0 -10 -4.5 -22.5t-11.5 -24.5t-17 -22.5t-20 -16.5l-332 -181h-143l280 310q18 19 32.5 31.5t29 20t30.5 10.5t37 3q33 0 55.5 -10t37 -25.5t20.5 -35t6 -37.5z" />
    <glyph glyph-name="dieresis" unicode="&#xa8;" horiz-adv-x="713" 
d="M283 1339q0 -29 -11 -54.5t-30.5 -45t-45.5 -30.5t-55 -11t-55 11t-45 30.5t-30 45t-11 54.5t11 55t30 45.5t45 30.5t55 11t55 -11t45.5 -30.5t30.5 -45.5t11 -55zM713 1339q0 -29 -11 -54.5t-30.5 -45t-45.5 -30.5t-55 -11t-54.5 11t-45 30.5t-30.5 45t-11 54.5t11 55
t30.5 45.5t45 30.5t54.5 11t55 -11t45.5 -30.5t30.5 -45.5t11 -55z" />
    <glyph glyph-name="notequal" unicode="&#x2260;" horiz-adv-x="2048" 
d="M856 365l-225 -226l-82 82l143 144h-282v127h409l246 245h-655v127h782l225 226l82 -82l-143 -144h282v-127h-409l-246 -245h655v-127h-782z" />
    <glyph glyph-name="AE" unicode="&#xc6;" horiz-adv-x="1985" 
d="M981 1257l-377 -630h377v630zM821 0v104l107 9q21 2 37 16.5t16 28.5v342h-453l-202 -342q-10 -17 -5 -29t19 -14l117 -11v-104h-447v104l125 15l651 1098q5 7 3.5 14.5t-6 13.5t-11.5 10t-14 5l-101 10v104h1201v-327h-148l-29 170q-3 15 -11 26.5t-23 11.5h-373v-481
h227q14 0 24.5 13t12.5 24l18 139h127v-481h-127l-18 141q-2 11 -13 23t-24 12h-227v-522h432q12 0 22.5 14t12.5 25l33 213h149v-375h-1102z" />
    <glyph glyph-name="Oslash" unicode="&#xd8;" horiz-adv-x="1548" 
d="M1182 1280q69 -50 123.5 -115t92 -142t57.5 -163.5t20 -179.5q0 -147 -49.5 -276.5t-140.5 -226.5t-218 -153.5t-281 -56.5q-88 0 -168 15.5t-151 46.5l-119 -207l-104 61l116 205q-132 91 -208 244.5t-76 363.5q0 151 47 281.5t135.5 225.5t217 149.5t292.5 54.5
q87 0 164 -17.5t145 -48.5l109 191l106 -59zM557 188q40 -43 92 -67.5t117 -24.5q68 0 123 24.5t97 66.5t72 98t49.5 120t28.5 132.5t9 134.5q0 114 -21 217.5t-61 183.5zM987 1184q-40 42 -90.5 64t-110.5 22q-71 0 -127 -24t-98.5 -65.5t-72.5 -97.5t-49 -120.5
t-27.5 -134t-8.5 -138.5q0 -105 19 -206t59 -185z" />
    <glyph glyph-name="infinity" unicode="&#x221e;" horiz-adv-x="2048" 
d="M954 614q-32 27 -69.5 58.5t-78.5 59t-84.5 45.5t-88.5 18q-39 0 -73 -15.5t-58.5 -42t-38.5 -61t-14 -72.5t16.5 -70.5t43.5 -56.5t61.5 -37.5t70.5 -13.5q50 0 92.5 17.5t80.5 44.5t72.5 60.5t67.5 65.5zM1597 604q0 38 -14 72.5t-38.5 61t-58.5 42t-73 15.5
q-45 0 -88.5 -18t-84.5 -45.5t-78.5 -59t-69.5 -58.5q33 -32 67.5 -65.5t72.5 -60.5t81 -44.5t94 -17.5q36 0 70 13.5t61 37.5t43 56.5t16 70.5zM1704 618q0 -56 -21.5 -108t-59 -92t-88 -64t-108.5 -24q-68 0 -122.5 18.5t-101.5 49t-90 69.5t-89 80q-47 -41 -90 -80
t-90 -69.5t-101 -49t-122 -18.5q-58 0 -108.5 24t-88 64t-59 92t-21.5 108q0 58 24 110t64 90t92.5 60.5t110.5 22.5q57 0 110 -20.5t101.5 -53t93 -71t84.5 -74.5q39 36 83 74.5t93 71t102.5 53t110.5 20.5q58 0 110.5 -22.5t92.5 -60.5t64 -90t24 -110z" />
    <glyph glyph-name="plusminus" unicode="&#xb1;" horiz-adv-x="2048" 
d="M410 0v127h1228v-127h-1228zM1087 733v-368h-126v368h-551v127h551v369h126v-369h551v-127h-551z" />
    <glyph glyph-name="lessequal" unicode="&#x2264;" horiz-adv-x="2048" 
d="M410 0v113h1228v-113h-1228zM410 629v127l1228 389v-127l-1097 -326l1097 -325v-127z" />
    <glyph glyph-name="greaterequal" unicode="&#x2265;" horiz-adv-x="2048" 
d="M410 0v113h1228v-113h-1228zM410 240v127l1097 325l-1097 326v127l1228 -389v-127z" />
    <glyph glyph-name="yen" unicode="&#xa5;" horiz-adv-x="1300" 
d="M1169 1247l-202 -364h266v-107h-330l-106 -192h436v-105h-430v-317q0 -11 12.5 -26.5t40.5 -18.5l121 -11v-106h-635v106l123 11q28 3 39.5 18.5t11.5 26.5v317h-438v105h414l-99 192h-315v107h250l-189 366l-125 21v104h564v-104l-95 -8q-15 -2 -24.5 -16t-1.5 -29
l256 -492l262 481q3 5 4.5 11.5t-1 13t-9.5 12t-21 8.5l-100 21v102h438v-104z" />
    <glyph glyph-name="mu" unicode="&#xb5;" horiz-adv-x="1192" 
d="M1202 242q-9 -135 -68.5 -201t-181.5 -66q-27 0 -54.5 11.5t-52.5 32.5t-46 51.5t-35 68.5q-31 -46 -61.5 -77.5t-64 -50.5t-71.5 -27.5t-84 -8.5q-15 0 -37 9t-45 21.5t-43.5 26t-31.5 23.5v-45q0 -56 10.5 -106.5t23 -94t23 -78.5t10.5 -59q0 -27 -14 -50.5t-35 -40.5
t-46 -26.5t-46 -9.5q-19 0 -42 9t-43.5 25.5t-34 39t-13.5 49.5q0 32 5 52t12 39t15.5 43.5t15.5 65.5t12 105t5 162v864h258v-665q0 -47 5.5 -77.5t11.5 -45.5q7 -16 17 -31.5t23 -27.5t27 -19.5t29 -7.5q28 0 51 8.5t44.5 25.5t44.5 41t50 56v743h263v-778q0 -16 2.5 -35
t8 -35t14 -27t20.5 -11q15 0 27 5.5t22 20t18.5 39.5t16.5 64h65z" />
    <glyph glyph-name="partialdiff" unicode="&#x2202;" horiz-adv-x="1057" 
d="M784 639q-17 18 -37 42t-47 45t-63.5 35.5t-85.5 14.5q-53 0 -96.5 -21t-78 -57t-60 -82.5t-42.5 -98t-25.5 -103.5t-8.5 -99q0 -21 2 -51t8.5 -63t20 -66t36 -59t55.5 -42t80 -16q53 0 97 26t79 70.5t62 105t47.5 129.5t34 143t22.5 147zM987 840q0 -34 -3.5 -90
t-13 -124.5t-26.5 -145t-44 -151t-66 -142.5t-92 -119.5t-122 -82t-157 -30.5q-94 0 -169 35t-127.5 90t-81 122t-28.5 132q0 108 22.5 189.5t58.5 140t82 96.5t93 60t90.5 31t75.5 9q47 0 83 -7t71 -24t74.5 -45t93.5 -69q14 66 17 126t5 122q1 78 -23.5 147t-66.5 121
t-96.5 82t-112.5 30q-40 0 -67 -4t-52 -12.5t-52.5 -21.5t-67.5 -31l-84 106q23 10 53 21t65 20t73.5 15t78.5 6q109 0 190 -36t138.5 -92t94 -125.5t57 -136t28.5 -123.5t8 -89z" />
    <glyph glyph-name="summation" unicode="&#x2211;" horiz-adv-x="1190" 
d="M76 0v121l396 594l-355 538v121h983v-373h-152l-34 224q-5 24 -29 24h-443l346 -534l-394 -588h497q27 0 33 23l41 253h149v-403h-1038z" />
    <glyph glyph-name="product" unicode="&#x220f;" horiz-adv-x="1526" 
d="M866 0v31q34 0 70.5 5.5t67.5 20.5t51 41t20 66v1055q0 43 -17.5 68.5t-45.5 38.5t-63.5 16.5t-71.5 3.5h-228q-36 0 -71.5 -3.5t-63.5 -16.5t-45.5 -38.5t-17.5 -68.5v-1055q0 -42 20 -68t50.5 -40.5t67 -19.5t70.5 -5v-31h-628v31q34 0 70.5 5t67.5 19t51 40.5t20 68.5
v1055q0 43 -15 73.5t-42 49.5t-65.5 27.5t-86.5 8.5v31h1464v-31q-47 0 -86 -8.5t-66.5 -27.5t-43 -49.5t-15.5 -73.5v-1055q0 -40 20.5 -66t51.5 -41t68 -20.5t71 -5.5v-31h-629z" />
    <glyph glyph-name="pi" unicode="&#x3c0;" horiz-adv-x="1217" 
d="M1176 311q0 -84 -18.5 -147t-50 -105t-73.5 -63t-90 -21q-75 0 -118.5 25.5t-66.5 64.5t-29.5 86t-6.5 91v579h-279v-469q0 -80 -17 -149t-50 -119.5t-81 -79.5t-110 -29q-44 0 -72.5 25t-44.5 65.5t-22 92t-6 104.5h68q0 -60 21.5 -97.5t55.5 -37.5q15 0 33.5 5.5t37 22
t35.5 46.5t30.5 78.5t21.5 118t8 165.5v258h-86q-51 0 -80 -13t-44 -31.5t-21 -38.5t-10 -33h-60q0 34 13 77t41.5 81t73.5 63.5t110 25.5h737q34 0 63 16t35 38h52q0 -38 -8 -71.5t-26 -59t-47.5 -40t-72.5 -14.5h-125v-545q0 -51 -0.5 -92t5.5 -69t22 -43t49 -15
q23 0 45.5 15t40 46.5t28.5 79.5t11 113h78z" />
    <glyph glyph-name="integral" unicode="&#x222b;" horiz-adv-x="965" 
d="M889 1360q-6 -13 -22 -26.5t-37.5 -20t-46 -3.5t-46.5 23q-43 37 -70.5 47t-43.5 4t-23 -22t-8 -31q-2 -28 -4 -98t-4 -164t-4.5 -202t-6.5 -212l-10 -274q-6 -162 -18 -280t-30 -201.5t-42.5 -137.5t-56 -87t-70 -49.5t-84.5 -26.5q-24 -6 -48.5 -7t-46 1t-38.5 8.5
t-27 15.5q-32 31 -39 65.5t9 71.5q6 14 22.5 28t38 21.5t46.5 4.5t48 -23q42 -37 69.5 -47t43.5 -4.5t23.5 21t9.5 30.5q1 28 5 99t9 170t10 218.5t9 245.5l8 230q7 215 24 356.5t49.5 228t83.5 128.5t127 57q24 4 48 5.5t45.5 -1t39 -8.5t27.5 -15q34 -32 40 -66.5
t-9 -72.5z" />
    <glyph glyph-name="ordfeminine" unicode="&#xaa;" horiz-adv-x="735" 
d="M449 1102q-65 -12 -107 -25t-67 -29.5t-34.5 -37t-9.5 -47.5q0 -39 26.5 -65t68.5 -26q21 0 43 3.5t40 8.5q21 5 40 13v205zM98 616v72h613v-72h-613zM465 784l-16 62q-33 -21 -72 -38q-33 -14 -75 -26t-87 -12q-35 0 -66.5 11t-55 31t-37 49.5t-13.5 66.5q0 27 4.5 50.5
t19.5 44t42.5 39t72.5 35.5t111 34.5t158 35.5v47q1 18 -3.5 38t-18 37.5t-38.5 28.5t-65 11q-14 0 -24 -0.5t-18 -1.5q-9 -1 -16 -2v-117h-137q-17 -1 -30 3q-11 4 -20 13t-9 29q0 34 26.5 61t69 46t95.5 29t106 10q57 0 104.5 -8t81.5 -30.5t53 -63.5t19 -107v-316
q0 -12 8 -20t20 -8l60 -4v-58h-250z" />
    <glyph glyph-name="ordmasculine" unicode="&#xba;" horiz-adv-x="778" 
d="M539 1081q0 39 -6.5 83t-23 80.5t-46 60.5t-74.5 24t-74 -23t-45 -59t-22 -79t-6 -83q0 -39 5.5 -82.5t22 -80t45.5 -60.5t76 -24q45 0 74 23t45.5 58t22.5 78t6 84zM84 612v72h612v-72h-612zM735 1079q0 -68 -23.5 -125t-68.5 -98t-110 -63.5t-148 -22.5
q-76 0 -139 21.5t-108 61.5t-70 97.5t-25 130.5q0 75 26 134.5t72.5 100t111 62t142.5 21.5q82 0 145.5 -23.5t106.5 -65.5t65.5 -101t22.5 -130z" />
    <glyph glyph-name="Omega" unicode="&#x2126;" horiz-adv-x="1565" 
d="M1495 850q0 -83 -22 -153.5t-60 -129.5t-89.5 -105t-110 -78t-121.5 -50.5t-125 -22.5v-127h319q19 0 43 7.5t45 24t35 43t14 65.5h43v-324h-575v360q87 27 157 72.5t120 107t77 139t27 169.5q0 101 -35 198.5t-99.5 173.5t-154.5 122.5t-201 46.5t-201.5 -46.5
t-154.5 -122.5t-98.5 -173.5t-34.5 -198.5q0 -92 27 -169.5t76.5 -139t120 -107t157.5 -72.5v-360h-576v324h43q0 -39 14.5 -65.5t35.5 -43t45 -24t43 -7.5h319v127q-93 6 -187 44.5t-170 107t-123.5 166t-47.5 221.5q0 133 48.5 242.5t140 187t224 120t299.5 42.5
q168 0 300 -42.5t224 -120t140.5 -187t48.5 -242.5z" />
    <glyph glyph-name="ae" unicode="&#xe6;" horiz-adv-x="1579" 
d="M1233 670q0 31 -3.5 72.5t-18.5 79.5t-44.5 64.5t-81.5 26.5q-43 0 -72.5 -16.5t-49 -42.5t-30 -58.5t-15.5 -64.5t-6 -59.5t-1 -44.5h322v43zM655 532q-98 -26 -158.5 -51t-93.5 -52.5t-44 -58t-11 -67.5q0 -31 8.5 -58.5t25 -48.5t41 -33.5t56.5 -12.5q30 0 61 8t57 19
q30 12 58 28v327zM1513 553q0 -5 -0.5 -12.5t-0.5 -13.5q-1 -8 -1 -15h-593v-236q29 -35 72 -61q37 -23 94 -42t137 -19q60 0 113 17t92 38q46 24 85 55v-162q-47 -33 -106 -59q-51 -23 -120.5 -41t-154.5 -18q-100 0 -176 23t-127 51q-61 33 -104 75q-55 -42 -119 -75
q-27 -14 -59 -27t-67.5 -23.5t-73 -17t-76.5 -6.5q-69 0 -119 22.5t-81.5 60t-46.5 86t-15 99.5q0 84 31.5 141t101 100t182 77.5t274.5 72.5v57q0 110 -45.5 161.5t-144.5 51.5q-10 0 -22 -1t-23 -3q-13 -2 -27 -4v-196h-184q-30 0 -49.5 3.5t-30.5 12.5t-15.5 24t-4.5 37
q0 57 39 101.5t101.5 75.5t139.5 47t152 16q81 0 138.5 -17.5t94.5 -38.5q43 -25 72 -55q31 30 74 55q37 21 90 38.5t123 17.5q104 0 176.5 -39.5t117.5 -105t65.5 -151t20.5 -177.5z" />
    <glyph glyph-name="oslash" unicode="&#xf8;" horiz-adv-x="1196" 
d="M827 496q0 62 -8.5 130t-30.5 128l-331 -596q26 -31 60.5 -49.5t82.5 -18.5q70 0 114 37.5t69 96.5t34.5 131t9.5 141zM727 856q-25 25 -56 38t-73 13q-69 0 -113 -38t-68.5 -97.5t-34 -130.5t-9.5 -137q0 -56 5.5 -116t20.5 -114zM1133 494q0 -115 -36.5 -210.5
t-106.5 -164t-170.5 -106.5t-227.5 -38q-60 0 -114 9.5t-103 27.5l-101 -182l-90 57l97 172q-103 66 -159 176.5t-56 260.5q0 126 40 224t111.5 165.5t170.5 103t218 35.5q111 0 197 -31l102 183l90 -52l-96 -172q115 -68 174.5 -186t59.5 -272z" />
    <glyph glyph-name="questiondown" unicode="&#xbf;" horiz-adv-x="1069" 
d="M979 -164q0 -67 -36.5 -113.5t-93 -75.5t-124 -42t-129.5 -13q-99 0 -184 27.5t-147.5 78.5t-98 123t-35.5 161q0 65 19 118.5t50.5 96.5t71 76t81.5 58q98 58 222 89v174h140v-272q-84 -22 -149 -67q-28 -19 -54.5 -45t-47.5 -60.5t-33.5 -77.5t-12.5 -95
q0 -57 16.5 -104.5t50 -82t83.5 -54t118 -19.5l92 246q1 1 5 2q3 1 7.5 1.5t12.5 0.5q20 0 50 -2.5t58 -15.5t48 -39t20 -74zM801 858q0 -34 -12.5 -63.5t-33.5 -52t-50 -35.5t-62 -13q-37 0 -67.5 14t-52.5 37.5t-34 54.5t-12 66q0 34 13.5 63t36.5 50t53.5 33t64.5 12
q33 0 61.5 -13.5t49.5 -36.5t33 -53t12 -63z" />
    <glyph glyph-name="exclamdown" unicode="&#xa1;" horiz-adv-x="696" 
d="M514 -242q0 -42 -13.5 -73t-36 -52t-53.5 -31t-65 -10t-64 10t-52.5 30.5t-36 51.5t-13.5 74l111 815h110zM512 856q0 -40 -15 -70t-39 -50.5t-53.5 -31t-58.5 -10.5t-58 11t-52.5 32t-38.5 51t-15 68q0 35 13 66t35.5 53.5t52.5 35.5t63 13q25 0 54.5 -9t54 -29.5
t41 -52.5t16.5 -77z" />
    <glyph glyph-name="logicalnot" unicode="&#xac;" horiz-adv-x="1270" 
d="M1065 387v350h-983v123h1106v-473h-123z" />
    <glyph glyph-name="radical" unicode="&#x221a;" horiz-adv-x="1178" 
d="M1075 1372l-370 -1372h-62l-442 872l-127 -63l-33 61l240 121l399 -780l334 1223h164v-62h-103z" />
    <glyph glyph-name="florin" unicode="&#x192;" horiz-adv-x="711" 
d="M860 1352q0 -24 -10.5 -45t-28 -38.5t-40.5 -30.5t-48 -21l-203 190q-15 -23 -27.5 -48.5t-20.5 -61t-12.5 -84.5t-4.5 -119v-119h223v-131h-221v-789q0 -103 -33.5 -198t-99.5 -170q-31 -35 -68.5 -64.5t-81 -50.5t-91.5 -33t-99 -12q-31 0 -65.5 8t-64 26t-48.5 48
t-19 74q0 24 10.5 45t28.5 38.5t41 30.5t47 21l203 -191q16 23 28.5 49t20.5 61.5t12.5 84.5t4.5 119v903h-134v82l131 67q0 81 22 152t64 139q31 51 71.5 93.5t90 73t106.5 48t120 17.5q30 0 64.5 -9.5t64 -29t48.5 -51t19 -74.5z" />
    <glyph glyph-name="approxequal" unicode="&#x2248;" horiz-adv-x="2048" 
d="M1638 453q-21 -20 -51.5 -42t-68.5 -41.5t-81 -33.5t-89 -17q-61 -4 -103 -0.5t-78.5 12.5t-73.5 22.5t-87 31.5q-84 30 -150 45t-119.5 17t-97 -8.5t-81.5 -30.5t-74 -50t-74 -67v141q19 19 43 41t59.5 41.5t86.5 34.5t124 20q57 5 112 -4.5t107 -25.5t100.5 -34.5
t90.5 -31.5q93 -29 163.5 -31t129 16t109 53.5t103.5 82.5v-141zM1638 801q-21 -19 -51.5 -41t-68.5 -41.5t-81 -33.5t-89 -17q-61 -4 -103 -1t-78.5 12t-73.5 22.5t-87 31.5q-84 30 -150 45t-119.5 17t-97 -8.5t-81.5 -30.5t-74 -50t-74 -67v141q19 19 43 41t59.5 41.5
t86.5 34.5t124 21q57 4 112 -5.5t107 -25.5t100.5 -34.5t90.5 -31.5q93 -29 163.5 -31t129 16t109 53.5t103.5 82.5v-141z" />
    <glyph glyph-name="Delta" unicode="&#x2206;" horiz-adv-x="1309" 
d="M621 1085l-455 -970h856zM12 0l684 1470l604 -1470h-1288z" />
    <glyph glyph-name="guillemotleft" unicode="&#xab;" horiz-adv-x="920" 
d="M430 441v103l330 443h150l-255 -494l255 -493h-150zM50 441v103l330 443h150l-255 -494l255 -493h-150z" />
    <glyph glyph-name="guillemotright" unicode="&#xbb;" horiz-adv-x="920" 
d="M490 546v-103l-330 -443h-150l255 494l-255 493h150zM870 546v-103l-330 -443h-150l255 494l-255 493h150z" />
    <glyph glyph-name="ellipsis" unicode="&#x2026;" horiz-adv-x="2048" 
d="M1878 145q0 -37 -13.5 -68t-37 -53.5t-55 -35.5t-66.5 -13q-37 0 -68 13.5t-53.5 37t-35.5 54t-13 65.5q0 36 13.5 67t37 54.5t54 37t65.5 13.5q34 0 65.5 -13t55 -36.5t37.5 -55t14 -67.5zM512 145q0 -37 -13.5 -68t-37 -53.5t-54.5 -35.5t-65 -13q-38 0 -69.5 13.5
t-54 37t-35.5 54t-13 65.5q0 36 13.5 67t37 54.5t55 37t66.5 13.5q34 0 64.5 -13t54 -36.5t37.5 -55t14 -67.5zM1194 145q0 -37 -13.5 -68t-37 -53.5t-54.5 -35.5t-65 -13q-38 0 -69 13.5t-53.5 37t-35 54t-12.5 65.5q0 36 13.5 67t36.5 54.5t54 37t66 13.5q34 0 64.5 -13
t54 -36.5t37.5 -55t14 -67.5z" />
    <glyph glyph-name="uni00A0" unicode="&#xa0;" horiz-adv-x="600" 
 />
    <glyph glyph-name="Agrave" unicode="&#xc0;" horiz-adv-x="1405" 
d="M631 1092l-172 -492h348zM829 0v104l121 15q10 2 17 13t2 22l-111 325h-438l-113 -317q-6 -16 6 -29t23 -14l115 -15v-104h-441v104l115 17l459 1286h233l455 -1249q8 -19 15.5 -26.5t29.5 -12.5l78 -15v-104h-566zM753 1528l-332 181q-11 6 -20 16.5t-16 22.5t-11 24.5
t-4 22.5q0 18 6 37.5t19.5 35t36 25.5t55.5 10q21 0 37 -3t30.5 -10.5t29 -20t32.5 -31.5l280 -310h-143z" />
    <glyph glyph-name="Atilde" unicode="&#xc3;" horiz-adv-x="1405" 
d="M631 1092l-172 -492h348zM829 0v104l121 15q10 2 17 13t2 22l-111 325h-438l-113 -317q-6 -16 6 -29t23 -14l115 -15v-104h-441v104l115 17l459 1286h233l455 -1249q8 -19 15.5 -26.5t29.5 -12.5l78 -15v-104h-566zM1055 1852q-13 -53 -34 -99t-51 -80.5t-70.5 -54.5
t-92.5 -20q-40 0 -70 15.5t-59.5 33.5t-62.5 33.5t-78 15.5q-34 0 -59.5 -28t-30.5 -70h-111q13 53 34 99t51 80.5t70 54.5t91 20q40 0 71 -15t60.5 -33t62.5 -33t78 -15q16 0 31.5 7.5t27.5 20.5t20.5 30.5t10.5 37.5h111z" />
    <glyph glyph-name="Otilde" unicode="&#xd5;" horiz-adv-x="1548" 
d="M1145 672q0 120 -22.5 228.5t-67.5 190.5t-112.5 130.5t-156.5 48.5q-71 0 -127 -24t-98.5 -65.5t-72.5 -97.5t-49 -120.5t-27.5 -134t-8.5 -138.5q0 -73 9.5 -145t28.5 -138t49 -123t70 -98.5t91.5 -65.5t114.5 -24q68 0 123 24.5t97 66.5t72 98t49.5 120t28.5 132.5
t9 134.5zM1475 680q0 -147 -49.5 -276.5t-140.5 -226.5t-218 -153.5t-281 -56.5q-153 0 -283.5 48.5t-225 141.5t-148 229t-53.5 310q0 151 47 281.5t135.5 225.5t217 149.5t292.5 54.5q106 0 200 -26.5t172.5 -74t140.5 -114t105 -147.5t66 -173.5t23 -191.5zM1135 1852
q-13 -53 -34 -99t-51 -80.5t-70.5 -54.5t-92.5 -20q-40 0 -70 15.5t-59.5 33.5t-62.5 33.5t-78 15.5q-34 0 -59.5 -28t-30.5 -70h-111q13 53 34 99t51 80.5t70 54.5t91 20q40 0 71 -15t60.5 -33t62.5 -33t78 -15q16 0 31.5 7.5t27.5 20.5t20.5 30.5t10.5 37.5h111z" />
    <glyph glyph-name="OE" unicode="&#x152;" horiz-adv-x="2073" 
d="M1100 676q0 114 -21 219.5t-63.5 185.5t-106 128t-147.5 48q-71 0 -126 -24.5t-95.5 -67t-68 -98.5t-44.5 -119t-24 -129.5t-7 -128.5q0 -68 9 -136.5t27 -131.5t46.5 -118.5t67.5 -96.5t89 -64.5t112 -23.5q83 0 148.5 41.5t110.5 115.5t69 176t24 224zM1096 0v189
q-2 -3 -14 -19.5t-35 -40.5t-56.5 -51t-79 -50t-103 -38t-126.5 -15q-99 0 -182 28t-150.5 77t-118.5 116.5t-85.5 146.5t-52 166.5t-17.5 176.5q0 69 11 148.5t38.5 158.5t74.5 152t119 129t172 89.5t234 33.5q66 0 119 -14t94 -35t70 -46t48.5 -46.5t29 -37.5t10.5 -18
v174h850v-327h-152l-27 170q-3 15 -11.5 26.5t-22.5 11.5h-369v-481h225q14 0 24.5 13t10.5 24l16 139h127v-481h-125l-18 139q0 11 -11.5 24t-25.5 13h-223v-522h428q12 0 24 14t15 25l31 213h147v-375h-913z" />
    <glyph glyph-name="oe" unicode="&#x153;" horiz-adv-x="1774" 
d="M1419 672q0 46 -7.5 89.5t-26.5 77t-50 54t-78 20.5q-51 0 -85 -28.5t-54.5 -70.5t-29.5 -91t-9 -90h340v39zM793 479q0 86 -10.5 164.5t-34.5 138.5t-64 95.5t-100 35.5q-48 0 -83 -19t-59.5 -50t-40 -71.5t-24.5 -84t-12 -87t-3 -79.5q0 -75 8 -150.5t32 -136.5t67 -99
t113 -38q65 0 106 37t64.5 93.5t32 123.5t8.5 127zM1708 102q-44 -32 -103 -58q-51 -22 -123.5 -40t-166.5 -18q-76 0 -133 14t-98.5 34.5t-68.5 45.5t-43.5 46.5t-23.5 37t-8 17.5q-1 -2 -7.5 -17.5t-23.5 -37t-44.5 -46.5t-70.5 -45.5t-102.5 -34.5t-138.5 -14
q-122 0 -213 41.5t-152 112t-91.5 163.5t-30.5 195q0 109 32 205t96 168t158.5 113.5t220.5 41.5q51 0 94.5 -8t79.5 -21.5t65.5 -30t52.5 -34.5q54 -41 87 -94q28 53 77 94q21 18 48.5 34.5t62 30t77.5 21.5t94 8q104 0 179 -37.5t123.5 -101t71.5 -147.5t23 -177v-45h-639
q0 -62 17 -126t55 -116.5t98 -86t147 -33.5q72 0 131.5 17t101.5 37q49 24 89 54v-162z" />
    <glyph glyph-name="endash" unicode="&#x2013;" horiz-adv-x="1024" 
d="M0 391v203h1024v-203h-1024z" />
    <glyph glyph-name="emdash" unicode="&#x2014;" horiz-adv-x="2048" 
d="M0 391v203h2048v-203h-2048z" />
    <glyph glyph-name="quotedblleft" unicode="&#x201c;" horiz-adv-x="1030" 
d="M909 1346q-56 -23 -100 -60q-19 -16 -37 -36.5t-32 -46.5t-22.5 -57t-8.5 -67v-35h122q11 -15 20 -33q8 -15 14.5 -34t6.5 -39q0 -35 -11.5 -63.5t-31.5 -48.5t-47.5 -31t-58.5 -11q-47 0 -81.5 19t-57.5 50t-34 71.5t-11 83.5q0 59 14.5 108.5t37.5 90t53 72t61 55.5
q73 56 167 89zM444 1346q-38 -22 -74 -47t-63.5 -57.5t-44 -75t-16.5 -99.5q0 -13 1 -17q0 -4 1 -6h121q11 -11 20 -27q8 -14 14.5 -35.5t6.5 -51.5q0 -68 -41.5 -107t-106.5 -39q-45 0 -79.5 17.5t-58 46.5t-36 67.5t-12.5 79.5q0 63 14.5 114.5t37.5 93t53 74t62 56.5
q73 57 167 88z" />
    <glyph glyph-name="quotedblright" unicode="&#x201d;" horiz-adv-x="1028" 
d="M489 1198q0 -60 -14.5 -109t-38 -89.5t-54 -72t-61.5 -55.5q-74 -56 -167 -88l-33 78q55 23 98 60q18 16 36 36.5t31.5 46t22 56.5t8.5 67v35h-122q-12 14 -21 32q-8 14 -14 33.5t-6 39.5q0 36 12 64.5t32 49t47.5 31t59.5 10.5q47 0 81.5 -19t57.5 -50.5t34 -72
t11 -83.5zM952 1212q0 -63 -14.5 -114.5t-38 -93.5t-54 -74.5t-61.5 -56.5q-74 -57 -168 -87l-34 76q39 22 75 47t64 58t44.5 75.5t16.5 98.5q0 5 -0.5 9t-0.5 7q-1 4 -1 6h-123q-12 10 -21 27q-8 14 -14 36t-6 52q0 34 11.5 60.5t31.5 45.5t47.5 29t59.5 10
q45 0 79.5 -17.5t58 -46.5t36 -67t12.5 -80z" />
    <glyph glyph-name="quoteleft" unicode="&#x2018;" horiz-adv-x="563" 
d="M442 1346q-11 -3 -42.5 -20.5t-66 -51t-61 -85t-26.5 -122.5v-8q0 -4 1 -7q0 -4 1 -8h121q11 -15 20 -33q8 -15 14.5 -35.5t6.5 -43.5q0 -35 -12 -62.5t-32.5 -46.5t-47.5 -29t-58 -10q-43 0 -77 16.5t-58 45.5t-36.5 68t-12.5 83q0 63 14.5 114.5t38 93t53.5 74t62 56.5
q74 57 168 88z" />
    <glyph glyph-name="quoteright" unicode="&#x2019;" horiz-adv-x="563" 
d="M487 1210q0 -63 -14.5 -115t-38 -93.5t-54 -74t-61.5 -56.5q-74 -57 -167 -87l-31 78q60 33 100 66.5t63 68t30.5 70.5t2.5 74q0 2 -0.5 4.5t-0.5 6.5q-1 4 -1 9h-120q-12 14 -21 32q-8 15 -14 36t-6 45q0 32 9 59.5t27.5 47.5t46.5 31t66 11q41 0 75 -16.5t58 -45
t37.5 -67.5t13.5 -84z" />
    <glyph glyph-name="divide" unicode="&#xf7;" horiz-adv-x="2048" 
d="M1147 285q0 -26 -9.5 -48t-26.5 -38t-39.5 -25.5t-47.5 -9.5q-26 0 -48 9.5t-39 25.5t-26.5 38t-9.5 48t9.5 48.5t26.5 39t39 26t48 9.5q25 0 47.5 -9.5t39.5 -26t26.5 -39t9.5 -48.5zM410 551v127h1228v-127h-1228zM1147 944q0 -26 -9.5 -48.5t-26.5 -39t-39.5 -26
t-47.5 -9.5q-26 0 -48 9.5t-39 26t-26.5 39t-9.5 48.5q0 25 9.5 47.5t26.5 39.5t39 26.5t48 9.5q25 0 47.5 -9.5t39.5 -26.5t26.5 -39.5t9.5 -47.5z" />
    <glyph glyph-name="lozenge" unicode="&#x25ca;" horiz-adv-x="1100" 
d="M551 1473l-352 -670l352 -688l350 688zM614 0h-129l-413 803l413 786h129l414 -786z" />
    <glyph glyph-name="ydieresis" unicode="&#xff;" horiz-adv-x="1159" 
d="M1032 889l-354 -869q-19 -46 -42 -100t-51.5 -108.5t-62.5 -105t-76 -89.5q-43 -42 -93.5 -66t-110.5 -24q-30 0 -62.5 11.5t-59 33t-43.5 52t-16 67.5q0 28 10.5 51.5t27 42.5t38 33t43.5 24l174 -133q28 26 52.5 62t44 74.5t34 74.5t21.5 62l-365 909l-121 12v96h539
v-96l-94 -6q-19 -2 -28 -15t-3 -30l211 -526l217 526q6 15 -4 29t-27 16l-90 6v96h400v-96zM527 1339q0 -29 -11 -54.5t-30.5 -45t-45.5 -30.5t-55 -11t-55 11t-45 30.5t-30 45t-11 54.5t11 55t30 45.5t45 30.5t55 11t55 -11t45.5 -30.5t30.5 -45.5t11 -55zM957 1339
q0 -29 -11 -54.5t-30.5 -45t-45.5 -30.5t-55 -11t-54.5 11t-45 30.5t-30.5 45t-11 54.5t11 55t30.5 45.5t45 30.5t54.5 11t55 -11t45.5 -30.5t30.5 -45.5t11 -55z" />
    <glyph glyph-name="Ydieresis" unicode="&#x178;" horiz-adv-x="1358" 
d="M1219 1251l-379 -657v-434q0 -20 13 -31.5t32 -13.5l125 -11v-104h-635v104l125 11q17 2 32 13.5t15 31.5v377l-395 714l-132 19v104h582v-104l-108 -10q-11 0 -16.5 -15t5.5 -35l258 -485l279 487q11 19 7.5 34.5t-17.5 15.5l-125 8v104h452v-104zM605 1739
q0 -29 -11 -54.5t-30.5 -45t-45.5 -30.5t-55 -11t-55 11t-45 30.5t-30 45t-11 54.5t11 55t30 45.5t45 30.5t55 11t55 -11t45.5 -30.5t30.5 -45.5t11 -55zM1035 1739q0 -29 -11 -54.5t-30.5 -45t-45.5 -30.5t-55 -11t-54.5 11t-45 30.5t-30.5 45t-11 54.5t11 55t30.5 45.5
t45 30.5t54.5 11t55 -11t45.5 -30.5t30.5 -45.5t11 -55z" />
    <glyph glyph-name="fraction" unicode="&#x2044;" horiz-adv-x="1030" 
d="M162 -190h-162l866 1564h164z" />
    <glyph glyph-name="currency" unicode="&#xa4;" horiz-adv-x="1249" 
d="M950 877q0 64 -24.5 121t-66.5 100t-99 68.5t-121 25.5q-67 0 -125 -24.5t-101.5 -67.5t-68.5 -101t-25 -125q0 -66 25 -123.5t68.5 -100t102 -67t124.5 -24.5q65 0 122 25.5t99 69t66 101t24 122.5zM1114 328l-211 211q-56 -48 -124.5 -72.5t-139.5 -24.5
q-77 0 -146 23.5t-126 73.5l-211 -211l-74 73l211 211q-45 56 -67.5 123t-22.5 139q0 36 5.5 72.5t17 71.5t29 67.5t42.5 59.5l-215 215l74 74l215 -215q55 45 125.5 67.5t142.5 22.5q71 0 138 -23.5t120 -68.5l217 217l74 -74l-213 -213q43 -54 67.5 -126t24.5 -144
q0 -73 -22 -141t-68 -124l211 -211z" />
    <glyph glyph-name="guilsinglleft" unicode="&#x2039;" horiz-adv-x="516" 
d="M26 441v103l330 443h150l-255 -494l255 -493h-150z" />
    <glyph glyph-name="guilsinglright" unicode="&#x203a;" horiz-adv-x="516" 
d="M490 546v-103l-330 -443h-150l255 494l-255 493h150z" />
    <glyph glyph-name="fi" unicode="&#xfb01;" horiz-adv-x="1393" 
d="M774 0v96l96 6q19 2 32 15.5t13 32.5v694h-448v-694q0 -19 12.5 -33.5t32.5 -14.5l125 -6v-96h-594v96l104 6q19 2 32.5 15.5t13.5 32.5v694h-134v82l131 67q0 79 21 148t61 135q31 51 72 94.5t90.5 76t107 51t122.5 18.5q30 0 64.5 -9.5t64 -29t48.5 -51t19 -74.5
q0 -24 -10.5 -45t-28 -38.5t-40.5 -30.5t-48 -21l-203 190q-15 -23 -27.5 -48.5t-20.5 -61t-12.5 -84.5t-4.5 -119v-119h534l84 51h105v-876q0 -19 14 -32.5t33 -15.5l98 -6v-96h-559zM1217 1358q0 -33 -12.5 -62t-34.5 -51t-51 -34.5t-62 -12.5t-62 12.5t-51 34.5t-34.5 51
t-12.5 62t12.5 62t34.5 50t51 33.5t62 12.5t62 -12.5t51 -33.5t34.5 -50t12.5 -62z" />
    <glyph glyph-name="fl" unicode="&#xfb02;" horiz-adv-x="1393" 
d="M770 0v96l100 6q20 2 32.5 15t12.5 33v1179h-61q-14 -34 -47.5 -66t-73.5 -46l-203 190q-15 -23 -27.5 -48.5t-20.5 -61t-12.5 -84.5t-4.5 -119v-119h223v-131h-221v-694q0 -19 12.5 -33.5t32.5 -14.5l125 -6v-96h-594v96l104 6q19 2 32.5 15.5t13.5 32.5v694h-134v82
l131 67q0 81 22 151t64 136q31 50 71.5 93t89.5 75t106 50t121 18q24 0 49.5 -6t50 -17.5t45.5 -29t35 -40.5l239 93h105v-1366q0 -20 12.5 -33t32.5 -15l102 -6v-96h-565z" />
    <glyph glyph-name="daggerdbl" unicode="&#x2021;" horiz-adv-x="1024" 
d="M186 45l-145 127l145 125l283 -96v-47zM512 -303l-129 156l106 280h46l112 -280zM846 45l-291 109v47l291 96l137 -125zM535 219h-46l-114 363l114 360h46l114 -360zM178 864l-137 125l137 127l291 -108v-45zM535 1028h-46l-112 281l135 157l129 -157zM838 864l-283 99
v45l283 108l145 -127z" />
    <glyph glyph-name="periodcentered" unicode="&#xb7;" horiz-adv-x="385" 
d="M313 696q0 -25 -9.5 -47t-25.5 -38.5t-38 -26t-47 -9.5q-26 0 -48 9.5t-38 26t-25.5 38.5t-9.5 47t9.5 47.5t25.5 38.5t38 25.5t48 9.5q25 0 47 -9.5t38 -25.5t25.5 -38.5t9.5 -47.5z" />
    <glyph glyph-name="quotesinglbase" unicode="&#x201a;" horiz-adv-x="563" 
d="M487 66q0 -63 -14.5 -115t-38 -93.5t-54 -74t-61.5 -56.5q-74 -57 -167 -87l-31 77q60 33 100 66.5t63 68t30.5 70.5t2.5 74q0 2 -0.5 4.5t-0.5 6.5q-1 4 -1 9h-120q-12 15 -21 33q-8 15 -14 35.5t-6 44.5q0 32 9 59.5t27.5 47.5t46.5 31.5t66 11.5q41 0 75 -16.5t58 -45
t37.5 -67.5t13.5 -84z" />
    <glyph glyph-name="quotedblbase" unicode="&#x201e;" horiz-adv-x="1028" 
d="M489 59q0 -60 -14.5 -109t-38 -89t-54 -71.5t-61.5 -55.5q-74 -56 -167 -88l-33 78q55 23 98 60q18 16 36 36t31.5 45.5t22 56.5t8.5 68v35h-122q-12 15 -21 32q-8 14 -14 33t-6 39q0 35 12 64t32 49.5t47.5 31.5t59.5 11q47 0 81.5 -19t57.5 -50.5t34 -72.5t11 -84z
M952 74q0 -63 -14.5 -115t-38 -93.5t-54 -74t-61.5 -56.5q-74 -57 -168 -87l-34 76q39 21 75 46t64 57.5t44.5 75t16.5 99.5q0 5 -0.5 9.5t-0.5 7.5q-1 4 -1 6h-123q-12 10 -21 27q-8 14 -14 35.5t-6 51.5q0 34 11.5 61t31.5 46t47.5 29t59.5 10q45 0 79.5 -17.5t58 -47
t36 -67.5t12.5 -79z" />
    <glyph glyph-name="perthousand" unicode="&#x2030;" horiz-adv-x="2572" 
d="M2292 395q0 94 -10 158t-27 102.5t-41 55t-51 16.5q-29 0 -54.5 -16.5t-45 -55t-31 -102.5t-11.5 -158q0 -95 11.5 -158.5t31 -102t45 -55t54.5 -16.5q27 0 51 16.5t41 55t27 102t10 158.5zM2513 395q0 -100 -22 -179t-65.5 -134.5t-109.5 -85t-153 -29.5
q-88 0 -153 29.5t-108.5 85t-65 134.5t-21.5 179t21.5 179.5t65 134.5t108.5 84.5t153 29.5q87 0 153 -29.5t109.5 -84.5t65.5 -134.5t22 -179.5zM541 979q0 94 -10 158t-27 102.5t-41 55t-51 16.5q-29 0 -55 -16.5t-46.5 -55t-32.5 -102.5t-12 -158q0 -95 12 -159
t32.5 -103t46.5 -55.5t55 -16.5q27 0 51 16.5t41 55.5t27 103t10 159zM1489 395q0 94 -9.5 158t-26.5 102.5t-41 55t-52 16.5q-29 0 -54.5 -16.5t-44.5 -55t-30.5 -102.5t-11.5 -158q0 -95 11.5 -158.5t30.5 -102t44.5 -55t54.5 -16.5q28 0 52 16.5t41 55t26.5 102
t9.5 158.5zM762 979q0 -100 -22 -179.5t-65.5 -135t-109.5 -85.5t-153 -30q-88 0 -154 30t-110.5 85.5t-66.5 135t-22 179.5t22 179t66.5 134.5t110.5 85t154 29.5q87 0 153 -29.5t109.5 -85t65.5 -134.5t22 -179zM535 0h-148l850 1374h149zM1710 395q0 -100 -22 -179
t-65.5 -134.5t-109.5 -85t-153 -29.5q-88 0 -153 29.5t-108.5 85t-65 134.5t-21.5 179t21.5 179.5t65 134.5t108.5 84.5t153 29.5q87 0 153 -29.5t109.5 -84.5t65.5 -134.5t22 -179.5z" />
    <glyph glyph-name="Acircumflex" unicode="&#xc2;" horiz-adv-x="1405" 
d="M631 1092l-172 -492h348zM829 0v104l121 15q10 2 17 13t2 22l-111 325h-438l-113 -317q-6 -16 6 -29t23 -14l115 -15v-104h-441v104l115 17l459 1286h233l455 -1249q8 -19 15.5 -26.5t29.5 -12.5l78 -15v-104h-566zM873 1528l-178 195l-178 -195h-170l227 351h242
l227 -351h-170z" />
    <glyph glyph-name="Ecircumflex" unicode="&#xca;" horiz-adv-x="1225" 
d="M53 0v104l113 11q18 2 32.5 13.5t14.5 31.5v1054q0 20 -14.5 32t-32.5 14l-113 10v104h1045v-327h-148l-32 170q-4 15 -13.5 26.5t-23.5 11.5h-381v-481h243q14 0 23.5 13t11.5 24l19 139h127v-481h-127l-19 139q-2 11 -11.5 24t-23.5 13h-243v-522h446q13 0 24 14t13 25
l31 213h149v-375h-1110zM786 1528l-178 195l-178 -195h-170l227 351h242l227 -351h-170z" />
    <glyph glyph-name="Aacute" unicode="&#xc1;" horiz-adv-x="1405" 
d="M631 1092l-172 -492h348zM829 0v104l121 15q10 2 17 13t2 22l-111 325h-438l-113 -317q-6 -16 6 -29t23 -14l115 -15v-104h-441v104l115 17l459 1286h233l455 -1249q8 -19 15.5 -26.5t29.5 -12.5l78 -15v-104h-566zM1025 1795q0 -10 -4.5 -22.5t-11.5 -24.5t-17 -22.5
t-20 -16.5l-332 -181h-143l280 310q18 19 32.5 31.5t29 20t30.5 10.5t37 3q33 0 55.5 -10t37 -25.5t20.5 -35t6 -37.5z" />
    <glyph glyph-name="Edieresis" unicode="&#xcb;" horiz-adv-x="1225" 
d="M53 0v104l113 11q18 2 32.5 13.5t14.5 31.5v1054q0 20 -14.5 32t-32.5 14l-113 10v104h1045v-327h-148l-32 170q-4 15 -13.5 26.5t-23.5 11.5h-381v-481h243q14 0 23.5 13t11.5 24l19 139h127v-481h-127l-19 139q-2 11 -11.5 24t-23.5 13h-243v-522h446q13 0 24 14t13 25
l31 213h149v-375h-1110zM535 1739q0 -29 -11 -54.5t-30.5 -45t-45.5 -30.5t-55 -11t-55 11t-45 30.5t-30 45t-11 54.5t11 55t30 45.5t45 30.5t55 11t55 -11t45.5 -30.5t30.5 -45.5t11 -55zM965 1739q0 -29 -11 -54.5t-30.5 -45t-45.5 -30.5t-55 -11t-54.5 11t-45 30.5
t-30.5 45t-11 54.5t11 55t30.5 45.5t45 30.5t54.5 11t55 -11t45.5 -30.5t30.5 -45.5t11 -55z" />
    <glyph glyph-name="Egrave" unicode="&#xc8;" horiz-adv-x="1225" 
d="M53 0v104l113 11q18 2 32.5 13.5t14.5 31.5v1054q0 20 -14.5 32t-32.5 14l-113 10v104h1045v-327h-148l-32 170q-4 15 -13.5 26.5t-23.5 11.5h-381v-481h243q14 0 23.5 13t11.5 24l19 139h127v-481h-127l-19 139q-2 11 -11.5 24t-23.5 13h-243v-522h446q13 0 24 14t13 25
l31 213h149v-375h-1110zM666 1528l-332 181q-11 6 -20 16.5t-16 22.5t-11 24.5t-4 22.5q0 18 6 37.5t19.5 35t36 25.5t55.5 10q21 0 37 -3t30.5 -10.5t29 -20t32.5 -31.5l280 -310h-143z" />
    <glyph glyph-name="Iacute" unicode="&#xcd;" horiz-adv-x="735" 
d="M47 0v104l127 11q19 2 32 13.5t13 31.5v1054q0 20 -13 32t-32 14l-127 10v104h639v-104l-127 -10q-17 -2 -32 -14t-15 -32v-1054q0 -20 15 -31.5t32 -13.5l127 -11v-104h-639zM696 1795q0 -10 -4.5 -22.5t-11.5 -24.5t-17 -22.5t-20 -16.5l-332 -181h-143l280 310
q18 19 32.5 31.5t29 20t30.5 10.5t37 3q33 0 55.5 -10t37 -25.5t20.5 -35t6 -37.5z" />
    <glyph glyph-name="Icircumflex" unicode="&#xce;" horiz-adv-x="735" 
d="M47 0v104l127 11q19 2 32 13.5t13 31.5v1054q0 20 -13 32t-32 14l-127 10v104h639v-104l-127 -10q-17 -2 -32 -14t-15 -32v-1054q0 -20 15 -31.5t32 -13.5l127 -11v-104h-639zM544 1528l-178 195l-178 -195h-170l227 351h242l227 -351h-170z" />
    <glyph glyph-name="Idieresis" unicode="&#xcf;" horiz-adv-x="735" 
d="M47 0v104l127 11q19 2 32 13.5t13 31.5v1054q0 20 -13 32t-32 14l-127 10v104h639v-104l-127 -10q-17 -2 -32 -14t-15 -32v-1054q0 -20 15 -31.5t32 -13.5l127 -11v-104h-639zM293 1739q0 -29 -11 -54.5t-30.5 -45t-45.5 -30.5t-55 -11t-55 11t-45 30.5t-30 45t-11 54.5
t11 55t30 45.5t45 30.5t55 11t55 -11t45.5 -30.5t30.5 -45.5t11 -55zM723 1739q0 -29 -11 -54.5t-30.5 -45t-45.5 -30.5t-55 -11t-54.5 11t-45 30.5t-30.5 45t-11 54.5t11 55t30.5 45.5t45 30.5t54.5 11t55 -11t45.5 -30.5t30.5 -45.5t11 -55z" />
    <glyph glyph-name="Igrave" unicode="&#xcc;" horiz-adv-x="735" 
d="M47 0v104l127 11q19 2 32 13.5t13 31.5v1054q0 20 -13 32t-32 14l-127 10v104h639v-104l-127 -10q-17 -2 -32 -14t-15 -32v-1054q0 -20 15 -31.5t32 -13.5l127 -11v-104h-639zM424 1528l-332 181q-11 6 -20 16.5t-16 22.5t-11 24.5t-4 22.5q0 18 6 37.5t19.5 35t36 25.5
t55.5 10q21 0 37 -3t30.5 -10.5t29 -20t32.5 -31.5l280 -310h-143z" />
    <glyph glyph-name="Oacute" unicode="&#xd3;" horiz-adv-x="1548" 
d="M1145 672q0 120 -22.5 228.5t-67.5 190.5t-112.5 130.5t-156.5 48.5q-71 0 -127 -24t-98.5 -65.5t-72.5 -97.5t-49 -120.5t-27.5 -134t-8.5 -138.5q0 -73 9.5 -145t28.5 -138t49 -123t70 -98.5t91.5 -65.5t114.5 -24q68 0 123 24.5t97 66.5t72 98t49.5 120t28.5 132.5
t9 134.5zM1475 680q0 -147 -49.5 -276.5t-140.5 -226.5t-218 -153.5t-281 -56.5q-153 0 -283.5 48.5t-225 141.5t-148 229t-53.5 310q0 151 47 281.5t135.5 225.5t217 149.5t292.5 54.5q106 0 200 -26.5t172.5 -74t140.5 -114t105 -147.5t66 -173.5t23 -191.5zM1105 1795
q0 -10 -4.5 -22.5t-11.5 -24.5t-17 -22.5t-20 -16.5l-332 -181h-143l280 310q18 19 32.5 31.5t29 20t30.5 10.5t37 3q33 0 55.5 -10t37 -25.5t20.5 -35t6 -37.5z" />
    <glyph glyph-name="Ocircumflex" unicode="&#xd4;" horiz-adv-x="1548" 
d="M1145 672q0 120 -22.5 228.5t-67.5 190.5t-112.5 130.5t-156.5 48.5q-71 0 -127 -24t-98.5 -65.5t-72.5 -97.5t-49 -120.5t-27.5 -134t-8.5 -138.5q0 -73 9.5 -145t28.5 -138t49 -123t70 -98.5t91.5 -65.5t114.5 -24q68 0 123 24.5t97 66.5t72 98t49.5 120t28.5 132.5
t9 134.5zM1475 680q0 -147 -49.5 -276.5t-140.5 -226.5t-218 -153.5t-281 -56.5q-153 0 -283.5 48.5t-225 141.5t-148 229t-53.5 310q0 151 47 281.5t135.5 225.5t217 149.5t292.5 54.5q106 0 200 -26.5t172.5 -74t140.5 -114t105 -147.5t66 -173.5t23 -191.5zM953 1528
l-178 195l-178 -195h-170l227 351h242l227 -351h-170z" />
    <glyph glyph-name="uni25CC" unicode="&#x25cc;" horiz-adv-x="1066" 
d="M486 868q0 20 13.5 34t33.5 14t34 -14t14 -34t-14 -33.5t-34 -13.5t-33.5 13.5t-13.5 33.5zM486 47q0 20 13.5 34t33.5 14t34 -14t14 -34t-14 -33.5t-34 -13.5t-33.5 13.5t-13.5 33.5zM646 855q6 14 18 22t26 8q20 0 34 -15t14 -34q0 -20 -15 -33.5t-33 -13.5
q-20 0 -33.5 15.5t-13.5 33.5q0 8 3 17zM332 96q6 14 19.5 22t25.5 8q20 0 33.5 -15t13.5 -33q0 -20 -15 -33.5t-33 -13.5q-20 0 -34 15t-14 32q0 5 1 9t3 9zM789 782q16 14 34 14q20 0 33.5 -14t13.5 -34t-13.5 -34t-33.5 -14t-33.5 15t-13.5 33q0 19 13 34zM209 200
q15 15 32 15q21 0 35 -13.5t14 -33.5q0 -19 -13.5 -33.5t-33.5 -14.5q-19 0 -33.5 14.5t-14.5 33.5q0 18 14 32zM894 659q5 2 9 3t9 1q18 0 33 -14t15 -34q0 -18 -14 -33t-35 -15q-18 0 -32 13.5t-14 33.5q0 14 7.5 26.5t21.5 18.5zM135 344q8 4 19 4q20 0 34 -13t14 -33
q0 -19 -14 -34t-34 -15q-19 0 -33.5 14.5t-14.5 34.5q0 14 7.5 25.5t21.5 16.5zM943 506q20 0 34 -14t14 -34q0 -19 -13.5 -33t-33.5 -14h-4q-18 0 -31.5 14t-13.5 32q0 20 15 33.5t33 15.5zM122 505q19 0 34 -13.5t15 -32.5q0 -20 -15 -34.5t-33 -14.5h-2q-20 0 -33 14.5
t-13 33.5q0 20 13.5 33.5t33.5 13.5zM930 345q14 -6 22 -18t8 -26q0 -20 -14.5 -33.5t-33.5 -13.5q-23 0 -35.5 14.5t-12.5 32.5q0 23 15.5 35t33.5 12q9 0 17 -3zM171 659q14 -6 22.5 -19t8.5 -27q0 -20 -15.5 -33t-33.5 -13q-21 0 -34 15t-13 33q0 20 14.5 34t32.5 14
q5 0 9 -1t9 -3zM857 202q14 -14 14 -34q0 -19 -13.5 -33t-34.5 -14q-20 0 -34 14t-14 33q0 20 13 33.5t33 13.5t36 -13zM275 782q15 -13 15 -33q0 -22 -13 -35t-34 -13q-20 0 -34 13.5t-14 32.5q0 20 14 34.5t33 14.5t33 -14zM734 97q2 -5 3 -9t1 -9q0 -18 -14 -33t-34 -15
q-18 0 -33 14t-15 35q0 17 13 32t32 15q14 0 27 -8t20 -22zM419 856q4 -8 4 -19q0 -19 -12.5 -33.5t-32.5 -14.5t-35 13.5t-15 34.5q0 18 14.5 33t34.5 15q14 0 25 -7.5t17 -21.5z" />
    <glyph glyph-name="Ograve" unicode="&#xd2;" horiz-adv-x="1548" 
d="M1145 672q0 120 -22.5 228.5t-67.5 190.5t-112.5 130.5t-156.5 48.5q-71 0 -127 -24t-98.5 -65.5t-72.5 -97.5t-49 -120.5t-27.5 -134t-8.5 -138.5q0 -73 9.5 -145t28.5 -138t49 -123t70 -98.5t91.5 -65.5t114.5 -24q68 0 123 24.5t97 66.5t72 98t49.5 120t28.5 132.5
t9 134.5zM1475 680q0 -147 -49.5 -276.5t-140.5 -226.5t-218 -153.5t-281 -56.5q-153 0 -283.5 48.5t-225 141.5t-148 229t-53.5 310q0 151 47 281.5t135.5 225.5t217 149.5t292.5 54.5q106 0 200 -26.5t172.5 -74t140.5 -114t105 -147.5t66 -173.5t23 -191.5zM833 1528
l-332 181q-11 6 -20 16.5t-16 22.5t-11 24.5t-4 22.5q0 18 6 37.5t19.5 35t36 25.5t55.5 10q21 0 37 -3t30.5 -10.5t29 -20t32.5 -31.5l280 -310h-143z" />
    <glyph glyph-name="Uacute" unicode="&#xda;" horiz-adv-x="1493" 
d="M1331 1260q-17 -2 -31 -14t-14 -32v-694q0 -151 -34 -256.5t-103 -171.5t-174.5 -95.5t-249.5 -29.5q-264 0 -393 141.5t-129 411.5v694q0 20 -14.5 32t-32.5 14l-111 10v104h606v-104l-110 -10q-17 -2 -31 -14t-14 -32v-710q0 -192 81 -279.5t250 -87.5q81 0 138 26.5
t94 74.5t54 115.5t17 150.5v710q0 20 -13 32t-32 14l-116 10v104h471v-104zM1090 1795q0 -10 -4.5 -22.5t-11.5 -24.5t-17 -22.5t-20 -16.5l-332 -181h-143l280 310q18 19 32.5 31.5t29 20t30.5 10.5t37 3q33 0 55.5 -10t37 -25.5t20.5 -35t6 -37.5z" />
    <glyph glyph-name="Ucircumflex" unicode="&#xdb;" horiz-adv-x="1493" 
d="M1331 1260q-17 -2 -31 -14t-14 -32v-694q0 -151 -34 -256.5t-103 -171.5t-174.5 -95.5t-249.5 -29.5q-264 0 -393 141.5t-129 411.5v694q0 20 -14.5 32t-32.5 14l-111 10v104h606v-104l-110 -10q-17 -2 -31 -14t-14 -32v-710q0 -192 81 -279.5t250 -87.5q81 0 138 26.5
t94 74.5t54 115.5t17 150.5v710q0 20 -13 32t-32 14l-116 10v104h471v-104zM938 1528l-178 195l-178 -195h-170l227 351h242l227 -351h-170z" />
    <glyph glyph-name="Ugrave" unicode="&#xd9;" horiz-adv-x="1493" 
d="M1331 1260q-17 -2 -31 -14t-14 -32v-694q0 -151 -34 -256.5t-103 -171.5t-174.5 -95.5t-249.5 -29.5q-264 0 -393 141.5t-129 411.5v694q0 20 -14.5 32t-32.5 14l-111 10v104h606v-104l-110 -10q-17 -2 -31 -14t-14 -32v-710q0 -192 81 -279.5t250 -87.5q81 0 138 26.5
t94 74.5t54 115.5t17 150.5v710q0 20 -13 32t-32 14l-116 10v104h471v-104zM818 1528l-332 181q-11 6 -20 16.5t-16 22.5t-11 24.5t-4 22.5q0 18 6 37.5t19.5 35t36 25.5t55.5 10q21 0 37 -3t30.5 -10.5t29 -20t32.5 -31.5l280 -310h-143z" />
    <glyph glyph-name="dotlessi" unicode="&#x131;" horiz-adv-x="682" 
d="M66 0v96l94 6q18 2 31.5 15.5t13.5 32.5v688h-131v84l299 102h104v-874q0 -19 14.5 -32.5t32.5 -15.5l99 -6v-96h-557z" />
    <glyph glyph-name="circumflex" unicode="&#x2c6;" horiz-adv-x="696" 
d="M526 1128l-178 195l-178 -195h-170l227 351h242l227 -351h-170z" />
    <glyph glyph-name="tilde" unicode="&#x2dc;" horiz-adv-x="719" 
d="M719 1452q-13 -53 -34 -99t-51 -80.5t-70.5 -54.5t-92.5 -20q-40 0 -70 15.5t-59.5 33.5t-62.5 33.5t-78 15.5q-34 0 -59.5 -28t-30.5 -70h-111q13 53 34 99t51 80.5t70 54.5t91 20q40 0 71 -15t60.5 -33t62.5 -33t78 -15q16 0 31.5 7.5t27.5 20.5t20.5 30.5t10.5 37.5
h111z" />
    <glyph glyph-name="macron" unicode="&#xaf;" horiz-adv-x="696" 
d="M0 1200v165h696v-165h-696z" />
    <glyph glyph-name="breve" unicode="&#x2d8;" horiz-adv-x="641" 
d="M641 1462q0 -69 -20 -130t-60 -106t-100.5 -71.5t-141.5 -26.5t-140.5 26.5t-99.5 71.5t-59.5 106t-19.5 130h106q10 -46 32 -78t51 -52t62.5 -29t67.5 -9q35 0 69 9t62.5 29t50 52t31.5 78h109z" />
    <glyph glyph-name="dotaccent" unicode="&#x2d9;" horiz-adv-x="279" 
d="M279 1337q0 -28 -10.5 -53.5t-29.5 -44.5t-44.5 -30t-55.5 -11t-55.5 10.5t-44 29t-29 44t-10.5 55.5q0 31 10 58t28.5 47.5t44 32.5t56.5 12q29 0 54.5 -11.5t44.5 -32t30 -48t11 -58.5z" />
    <glyph glyph-name="ring" unicode="&#x2da;" horiz-adv-x="518" 
d="M387 1386q0 27 -10 50.5t-27.5 41.5t-41 28t-50.5 10q-26 0 -49.5 -10t-41 -28t-28 -41.5t-10.5 -50.5t10.5 -50.5t28 -41t41 -27.5t49.5 -10q27 0 50.5 10t41 27.5t27.5 41t10 50.5zM518 1386q0 -54 -20.5 -101t-56 -82t-82.5 -55t-101 -20q-53 0 -100 20t-82 55
t-55.5 82t-20.5 101t20.5 101t55.5 82.5t82 55.5t100 20q54 0 101 -20t82.5 -55.5t56 -82.5t20.5 -101z" />
    <glyph glyph-name="cedilla" unicode="&#xb8;" horiz-adv-x="504" 
d="M504 -268q0 -50 -19 -88t-52.5 -64t-80 -39.5t-100.5 -13.5q-32 0 -62 3t-53 8q-27 4 -51 11v103q23 -5 46 -9q20 -3 42 -5.5t41 -2.5q20 0 41.5 3t39 10.5t29 21.5t11.5 35q0 18 -7.5 31.5t-20 22t-28.5 12.5t-34 4q-6 0 -13.5 -0.5t-14.5 -1.5q-8 -1 -17 -2v281h102
v-163q3 -1 7 -1q5 -1 22 -1q35 0 66.5 -9t55 -28t37 -48.5t13.5 -69.5z" />
    <glyph glyph-name="hungarumlaut" unicode="&#x2dd;" horiz-adv-x="967" 
d="M526 1395q0 -10 -4 -22.5t-11 -24.5t-16.5 -22.5t-21.5 -16.5l-330 -181h-143l281 310q17 19 31.5 31.5t29 20t31 10.5t37.5 3q33 0 55 -10t35.5 -25.5t19.5 -35t6 -37.5zM967 1395q0 -10 -4 -22.5t-11.5 -24.5t-17 -22.5t-21.5 -16.5l-329 -181h-144l281 310
q17 19 31.5 31.5t29.5 20t31 10.5t37 3q33 0 55.5 -10t36 -25.5t19.5 -35t6 -37.5z" />
    <glyph glyph-name="ogonek" unicode="&#x2db;" horiz-adv-x="461" 
d="M672 -262q-38 -18 -74 -32q-31 -12 -64.5 -22t-56.5 -10q-48 0 -89.5 11.5t-72 34t-48 54t-17.5 72.5q0 45 17 85t42.5 72.5t54.5 57.5t52 41h129q-57 -43 -93 -93t-36 -110q0 -45 25.5 -75.5t76.5 -30.5q10 0 23.5 7t27 15.5t24 17t15.5 11.5z" />
    <glyph glyph-name="caron" unicode="&#x2c7;" horiz-adv-x="696" 
d="M469 1128h-242l-227 351h170l178 -193l178 193h170z" />
    <glyph glyph-name="a.2StorySItal" horiz-adv-x="1133" 
d="M717 0l-27 102q-53 -36 -111 -64q-51 -24 -114 -43.5t-131 -19.5q-56 0 -104.5 18.5t-85 53t-57.5 83.5t-21 110q0 46 7.5 85t30 72.5t64.5 64t111.5 59.5t170.5 58t242 60v25q0 15 1 27q0 14 1 28q1 29 -6 62.5t-28 62t-59 47t-99 18.5q-21 0 -37.5 -1t-27.5 -3
q-13 -2 -23 -4v-194h-211q-26 -2 -46 5q-17 6 -31.5 21t-14.5 47q0 57 40.5 102t106 76.5t147 48.5t162.5 17q88 0 161 -13t125.5 -50.5t81 -105.5t28.5 -179v-526q0 -19 13 -32.5t32 -15.5l90 -6v-96h-381zM690 528q-99 -20 -163.5 -41t-102.5 -48t-53 -61.5t-15 -80.5
q0 -32 10.5 -59.5t30 -48t46.5 -32.5t59 -12q33 0 66.5 7t60.5 15q32 10 61 23v338z" />
    <glyph glyph-name="uni0430" unicode="&#x430;" horiz-adv-x="1133" 
d="M717 0l-27 102q-53 -36 -111 -64q-51 -24 -114 -43.5t-131 -19.5q-56 0 -104.5 18.5t-85 53t-57.5 83.5t-21 110q0 46 7.5 85t30 72.5t64.5 64t111.5 59.5t170.5 58t242 60v25q0 15 1 27q0 14 1 28q1 29 -6 62.5t-28 62t-59 47t-99 18.5q-21 0 -37.5 -1t-27.5 -3
q-13 -2 -23 -4v-194h-211q-26 -2 -46 5q-17 6 -31.5 21t-14.5 47q0 57 40.5 102t106 76.5t147 48.5t162.5 17q88 0 161 -13t125.5 -50.5t81 -105.5t28.5 -179v-526q0 -19 13 -32.5t32 -15.5l90 -6v-96h-381zM690 528q-99 -20 -163.5 -41t-102.5 -48t-53 -61.5t-15 -80.5
q0 -32 10.5 -59.5t30 -48t46.5 -32.5t59 -12q33 0 66.5 7t60.5 15q32 10 61 23v338z" />
    <glyph glyph-name="uni2090" unicode="&#x2090;" horiz-adv-x="739" 
d="M466 -460l-18 61q-34 -21 -72 -38q-33 -15 -74 -26.5t-85 -11.5q-36 0 -67.5 11t-55.5 32t-37.5 50t-13.5 66q0 28 5 51t19.5 43.5t41.5 38.5t72.5 35.5t111 35t157.5 35.5v32q0 8 1 16q1 18 -3.5 38t-18.5 37t-38.5 28t-64.5 11q-13 0 -24 -0.5t-18 -1.5q-8 -1 -15 -2
v-117h-137q-17 -1 -30 3q-11 4 -20.5 13t-9.5 28q0 34 26.5 61t69 46t95.5 29t106 10q57 0 104.5 -7.5t81.5 -30t52.5 -63.5t18.5 -107v-316q0 -11 8.5 -19.5t20.5 -9.5l59 -3v-58h-248zM448 -143q-64 -12 -106 -24.5t-66.5 -29t-34.5 -37t-10 -48.5q0 -19 7 -35.5t19.5 -29
t30 -19.5t38.5 -7q22 0 43.5 4t39.5 9q21 6 39 14v203z" />
    <glyph glyph-name="uni2090.SngStory" horiz-adv-x="808" 
d="M512 18q-7 10 -20.5 21.5t-30 20.5t-34 15t-32.5 6q-47 0 -78 -18.5t-49 -50t-25.5 -73.5t-7.5 -89q0 -97 43.5 -155t130.5 -58q17 0 35.5 3.5t33.5 8.5q18 5 34 13v356zM512 -460v71q-33 -25 -68 -43q-30 -17 -67 -30t-73 -13q-61 0 -109.5 22t-82 61t-51.5 93.5
t-18 119.5q0 79 24 141t67 105t102 65t130 22q37 0 78.5 -15.5t76.5 -41.5l95 57h74v-524q0 -12 7.5 -20t21.5 -9l56 -3v-58h-263z" />
    <glyph glyph-name="uni1D43" unicode="&#x1d43;" horiz-adv-x="735" 
d="M449 1102q-65 -12 -107 -25t-67 -29.5t-34.5 -37t-9.5 -47.5q0 -39 26.5 -65t68.5 -26q21 0 43 3.5t40 8.5q21 5 40 13v205zM465 784l-16 62q-33 -21 -72 -38q-33 -14 -75 -26t-87 -12q-35 0 -66.5 11t-55 31t-37 49.5t-13.5 66.5q0 27 4.5 50.5t19.5 44t42.5 39
t72.5 35.5t111 34.5t158 35.5v47q1 18 -3.5 38t-18 37.5t-38.5 28.5t-65 11q-14 0 -24 -0.5t-18 -1.5q-9 -1 -16 -2v-117h-137q-17 -1 -30 3q-11 4 -20 13t-9 29q0 34 26.5 61t69 46t95.5 29t106 10q57 0 104.5 -8t81.5 -30.5t53 -63.5t19 -107v-316q0 -12 8 -20t20 -8
l60 -4v-58h-250z" />
    <glyph glyph-name="uni1D43.SngStory" horiz-adv-x="807" 
d="M512 1263q-7 11 -20.5 22t-30 20t-34.5 15t-32 6q-47 0 -77.5 -18.5t-49 -50t-26 -73.5t-7.5 -89q0 -49 11 -88t32.5 -67t54 -43t76.5 -15q17 0 35.5 3.5t33.5 8.5q18 6 34 13v356zM512 785v71q-32 -24 -68 -43q-31 -16 -67.5 -29.5t-72.5 -13.5q-62 0 -110 22t-81.5 61
t-51.5 94t-18 119q0 80 24 141.5t67 104.5t102.5 65t129.5 22q37 0 78.5 -15t76.5 -42l95 57h74v-524q0 -12 8 -20t21 -9l56 -3v-58h-263z" />
    <glyph glyph-name="uni0363" unicode="&#x363;" 
d="M-528 1477q-65 -12 -107 -25t-67 -29.5t-34.5 -37t-9.5 -47.5q0 -39 26.5 -65t68.5 -26q21 0 43 3.5t40 8.5q21 5 40 13v205zM-512 1159l-16 62q-33 -21 -72 -38q-33 -14 -75 -26t-87 -12q-35 0 -66.5 11t-55 31t-37 49.5t-13.5 66.5q0 27 4.5 50.5t19.5 44t42.5 39
t72.5 35.5t111 34.5t158 35.5v47q1 18 -3.5 38t-18 37.5t-38.5 28.5t-65 11q-14 0 -24 -0.5t-18 -1.5q-9 -1 -16 -2v-117h-137q-17 -1 -30 3q-11 4 -20 13t-9 29q0 34 26.5 61t69 46t95.5 29t106 10q57 0 104.5 -8t81.5 -30.5t53 -63.5t19 -107v-316q0 -12 8 -20t20 -8
l60 -4v-58h-250z" />
    <glyph glyph-name="uni0363.SngStory" 
d="M-495 1638q-7 10 -20.5 21.5t-30 20.5t-34 15t-32.5 6q-47 0 -78 -18.5t-49 -50t-25.5 -73.5t-7.5 -89q0 -97 43.5 -155t130.5 -58q17 0 35.5 3.5t33.5 8.5q18 5 34 13v356zM-495 1160v71q-33 -25 -68 -43q-30 -17 -67 -30t-73 -13q-61 0 -109.5 22t-82 61t-51.5 93.5
t-18 119.5q0 79 24 141t67 105t102 65t130 22q37 0 78.5 -15.5t76.5 -41.5l95 57h74v-524q0 -12 7.5 -20t21.5 -9l56 -3v-58h-263z" />
    <glyph glyph-name="uni0201" unicode="&#x201;" horiz-adv-x="1133" 
d="M717 0l-27 102q-53 -36 -111 -64q-51 -24 -114 -43.5t-131 -19.5q-56 0 -104.5 18.5t-85 53t-57.5 83.5t-21 110q0 46 7.5 85t30 72.5t64.5 64t111.5 59.5t170.5 58t242 60v25q0 15 1 27q0 14 1 28q1 29 -6 62.5t-28 62t-59 47t-99 18.5q-21 0 -37.5 -1t-27.5 -3
q-13 -2 -23 -4v-194h-211q-26 -2 -46 5q-17 6 -31.5 21t-14.5 47q0 57 40.5 102t106 76.5t147 48.5t162.5 17q88 0 161 -13t125.5 -50.5t81 -105.5t28.5 -179v-526q0 -19 13 -32.5t32 -15.5l90 -6v-96h-381zM690 528q-99 -20 -163.5 -41t-102.5 -48t-53 -61.5t-15 -80.5
q0 -32 10.5 -59.5t30 -48t46.5 -32.5t59 -12q33 0 66.5 7t60.5 15q32 10 61 23v338zM363 1128l-332 181q-11 6 -20.5 16.5t-16.5 22.5t-11.5 24.5t-4.5 22.5q0 18 6 37.5t19.5 35t36 25.5t55.5 10q21 0 37 -3t31 -10.5t30 -20t33 -31.5l278 -310h-141zM801 1128l-329 181
q-12 6 -21.5 16.5t-17 22.5t-11.5 24.5t-4 22.5q0 18 6 37.5t19.5 35t36 25.5t55.5 10q21 0 37 -3t31 -10.5t29.5 -20t31.5 -31.5l281 -310h-144z" />
    <glyph glyph-name="uni1EAD" unicode="&#x1ead;" horiz-adv-x="1133" 
d="M717 0l-27 102q-53 -36 -111 -64q-51 -24 -114 -43.5t-131 -19.5q-56 0 -104.5 18.5t-85 53t-57.5 83.5t-21 110q0 46 7.5 85t30 72.5t64.5 64t111.5 59.5t170.5 58t242 60v25q0 15 1 27q0 14 1 28q1 29 -6 62.5t-28 62t-59 47t-99 18.5q-21 0 -37.5 -1t-27.5 -3
q-13 -2 -23 -4v-194h-211q-26 -2 -46 5q-17 6 -31.5 21t-14.5 47q0 57 40.5 102t106 76.5t147 48.5t162.5 17q88 0 161 -13t125.5 -50.5t81 -105.5t28.5 -179v-526q0 -19 13 -32.5t32 -15.5l90 -6v-96h-381zM690 528q-99 -20 -163.5 -41t-102.5 -48t-53 -61.5t-15 -80.5
q0 -32 10.5 -59.5t30 -48t46.5 -32.5t59 -12q33 0 66.5 7t60.5 15q32 10 61 23v338zM690 -324q0 -28 -10.5 -53.5t-29.5 -44.5t-44.5 -30t-55.5 -11t-55.5 10.5t-44 29.5t-29 44t-10.5 55q0 31 10 58t28.5 47.5t44 32.5t56.5 12q29 0 54.5 -11.5t44.5 -32t30 -48t11 -58.5z
M728 1128l-178 195l-178 -195h-170l227 351h242l227 -351h-170z" />
    <glyph glyph-name="uni1EA5" unicode="&#x1ea5;" horiz-adv-x="1133" 
d="M717 0l-27 102q-53 -36 -111 -64q-51 -24 -114 -43.5t-131 -19.5q-56 0 -104.5 18.5t-85 53t-57.5 83.5t-21 110q0 46 7.5 85t30 72.5t64.5 64t111.5 59.5t170.5 58t242 60v25q0 15 1 27q0 14 1 28q1 29 -6 62.5t-28 62t-59 47t-99 18.5q-21 0 -37.5 -1t-27.5 -3
q-13 -2 -23 -4v-194h-211q-26 -2 -46 5q-17 6 -31.5 21t-14.5 47q0 57 40.5 102t106 76.5t147 48.5t162.5 17q88 0 161 -13t125.5 -50.5t81 -105.5t28.5 -179v-526q0 -19 13 -32.5t32 -15.5l90 -6v-96h-381zM690 528q-99 -20 -163.5 -41t-102.5 -48t-53 -61.5t-15 -80.5
q0 -32 10.5 -59.5t30 -48t46.5 -32.5t59 -12q33 0 66.5 7t60.5 15q32 10 61 23v338zM728 1128l-178 195l-178 -195h-170l227 351h242l227 -351h-170zM880 1795q0 -10 -4.5 -22.5t-11.5 -24.5t-17 -22.5t-20 -16.5l-332 -181h-143l280 310q18 19 32.5 31.5t29 20t30.5 10.5
t37 3q33 0 55.5 -10t37 -25.5t20.5 -35t6 -37.5z" />
    <glyph glyph-name="uni1EA5.VN" horiz-adv-x="1133" 
d="M717 0l-27 102q-53 -36 -111 -64q-51 -24 -114 -43.5t-131 -19.5q-56 0 -104.5 18.5t-85 53t-57.5 83.5t-21 110q0 46 7.5 85t30 72.5t64.5 64t111.5 59.5t170.5 58t242 60v25q0 15 1 27q0 14 1 28q1 29 -6 62.5t-28 62t-59 47t-99 18.5q-21 0 -37.5 -1t-27.5 -3
q-13 -2 -23 -4v-194h-211q-26 -2 -46 5q-17 6 -31.5 21t-14.5 47q0 57 40.5 102t106 76.5t147 48.5t162.5 17q88 0 161 -13t125.5 -50.5t81 -105.5t28.5 -179v-526q0 -19 13 -32.5t32 -15.5l90 -6v-96h-381zM690 528q-99 -20 -163.5 -41t-102.5 -48t-53 -61.5t-15 -80.5
q0 -32 10.5 -59.5t30 -48t46.5 -32.5t59 -12q33 0 66.5 7t60.5 15q32 10 61 23v338zM719 1128l-179 195l-178 -195h-170l228 351h241l227 -351h-169zM1069 1593q0 -15 -6.5 -32t-20.5 -29l-207 -201l-41 60l88 202q16 32 46 50t61 18q15 0 29 -5.5t25.5 -15t18.5 -22
t7 -25.5z" />
    <glyph glyph-name="uni1EA5.2StorySItal" horiz-adv-x="1133" 
d="M717 0l-27 102q-53 -36 -111 -64q-51 -24 -114 -43.5t-131 -19.5q-56 0 -104.5 18.5t-85 53t-57.5 83.5t-21 110q0 46 7.5 85t30 72.5t64.5 64t111.5 59.5t170.5 58t242 60v25q0 15 1 27q0 14 1 28q1 29 -6 62.5t-28 62t-59 47t-99 18.5q-21 0 -37.5 -1t-27.5 -3
q-13 -2 -23 -4v-194h-211q-26 -2 -46 5q-17 6 -31.5 21t-14.5 47q0 57 40.5 102t106 76.5t147 48.5t162.5 17q88 0 161 -13t125.5 -50.5t81 -105.5t28.5 -179v-526q0 -19 13 -32.5t32 -15.5l90 -6v-96h-381zM690 528q-99 -20 -163.5 -41t-102.5 -48t-53 -61.5t-15 -80.5
q0 -32 10.5 -59.5t30 -48t46.5 -32.5t59 -12q33 0 66.5 7t60.5 15q32 10 61 23v338zM702 1128l-178 195l-178 -195h-170l227 351h242l227 -351h-170zM854 1795q0 -10 -4.5 -22.5t-11.5 -24.5t-17 -22.5t-20 -16.5l-332 -181h-143l280 310q18 19 32.5 31.5t29 20t30.5 10.5
t37 3q33 0 55.5 -10t37 -25.5t20.5 -35t6 -37.5z" />
    <glyph glyph-name="uni1EA5.2StorySItal.VN" horiz-adv-x="1133" 
d="M717 0l-27 102q-53 -36 -111 -64q-51 -24 -114 -43.5t-131 -19.5q-56 0 -104.5 18.5t-85 53t-57.5 83.5t-21 110q0 46 7.5 85t30 72.5t64.5 64t111.5 59.5t170.5 58t242 60v25q0 15 1 27q0 14 1 28q1 29 -6 62.5t-28 62t-59 47t-99 18.5q-21 0 -37.5 -1t-27.5 -3
q-13 -2 -23 -4v-194h-211q-26 -2 -46 5q-17 6 -31.5 21t-14.5 47q0 57 40.5 102t106 76.5t147 48.5t162.5 17q88 0 161 -13t125.5 -50.5t81 -105.5t28.5 -179v-526q0 -19 13 -32.5t32 -15.5l90 -6v-96h-381zM690 528q-99 -20 -163.5 -41t-102.5 -48t-53 -61.5t-15 -80.5
q0 -32 10.5 -59.5t30 -48t46.5 -32.5t59 -12q33 0 66.5 7t60.5 15q32 10 61 23v338zM693 1128l-179 195l-178 -195h-170l228 351h241l227 -351h-169zM1043 1593q0 -15 -6.5 -32t-20.5 -29l-207 -201l-41 60l88 202q16 32 46 50t61 18q15 0 29 -5.5t25.5 -15t18.5 -22
t7 -25.5z" />
    <glyph glyph-name="uni1EA7" unicode="&#x1ea7;" horiz-adv-x="1133" 
d="M717 0l-27 102q-53 -36 -111 -64q-51 -24 -114 -43.5t-131 -19.5q-56 0 -104.5 18.5t-85 53t-57.5 83.5t-21 110q0 46 7.5 85t30 72.5t64.5 64t111.5 59.5t170.5 58t242 60v25q0 15 1 27q0 14 1 28q1 29 -6 62.5t-28 62t-59 47t-99 18.5q-21 0 -37.5 -1t-27.5 -3
q-13 -2 -23 -4v-194h-211q-26 -2 -46 5q-17 6 -31.5 21t-14.5 47q0 57 40.5 102t106 76.5t147 48.5t162.5 17q88 0 161 -13t125.5 -50.5t81 -105.5t28.5 -179v-526q0 -19 13 -32.5t32 -15.5l90 -6v-96h-381zM690 528q-99 -20 -163.5 -41t-102.5 -48t-53 -61.5t-15 -80.5
q0 -32 10.5 -59.5t30 -48t46.5 -32.5t59 -12q33 0 66.5 7t60.5 15q32 10 61 23v338zM728 1128l-178 195l-178 -195h-170l227 351h242l227 -351h-170zM608 1528l-332 181q-11 6 -20 16.5t-16 22.5t-11 24.5t-4 22.5q0 18 6 37.5t19.5 35t36 25.5t55.5 10q21 0 37 -3
t30.5 -10.5t29 -20t32.5 -31.5l280 -310h-143z" />
    <glyph glyph-name="uni1EA7.VN" horiz-adv-x="1133" 
d="M717 0l-27 102q-53 -36 -111 -64q-51 -24 -114 -43.5t-131 -19.5q-56 0 -104.5 18.5t-85 53t-57.5 83.5t-21 110q0 46 7.5 85t30 72.5t64.5 64t111.5 59.5t170.5 58t242 60v25q0 15 1 27q0 14 1 28q1 29 -6 62.5t-28 62t-59 47t-99 18.5q-21 0 -37.5 -1t-27.5 -3
q-13 -2 -23 -4v-194h-211q-26 -2 -46 5q-17 6 -31.5 21t-14.5 47q0 57 40.5 102t106 76.5t147 48.5t162.5 17q88 0 161 -13t125.5 -50.5t81 -105.5t28.5 -179v-526q0 -19 13 -32.5t32 -15.5l90 -6v-96h-381zM690 528q-99 -20 -163.5 -41t-102.5 -48t-53 -61.5t-15 -80.5
q0 -32 10.5 -59.5t30 -48t46.5 -32.5t59 -12q33 0 66.5 7t60.5 15q32 10 61 23v338zM266 1331l-206 201q-14 12 -20.5 29t-6.5 32q0 13 7 25.5t18.5 22t25.5 15t29 5.5q31 0 60.5 -18t43.5 -50l90 -202zM738 1128l-177 195l-178 -195h-172l230 351h241l228 -351h-172z" />
    <glyph glyph-name="uni1EA7.2StorySItal" horiz-adv-x="1133" 
d="M717 0l-27 102q-53 -36 -111 -64q-51 -24 -114 -43.5t-131 -19.5q-56 0 -104.5 18.5t-85 53t-57.5 83.5t-21 110q0 46 7.5 85t30 72.5t64.5 64t111.5 59.5t170.5 58t242 60v25q0 15 1 27q0 14 1 28q1 29 -6 62.5t-28 62t-59 47t-99 18.5q-21 0 -37.5 -1t-27.5 -3
q-13 -2 -23 -4v-194h-211q-26 -2 -46 5q-17 6 -31.5 21t-14.5 47q0 57 40.5 102t106 76.5t147 48.5t162.5 17q88 0 161 -13t125.5 -50.5t81 -105.5t28.5 -179v-526q0 -19 13 -32.5t32 -15.5l90 -6v-96h-381zM690 528q-99 -20 -163.5 -41t-102.5 -48t-53 -61.5t-15 -80.5
q0 -32 10.5 -59.5t30 -48t46.5 -32.5t59 -12q33 0 66.5 7t60.5 15q32 10 61 23v338zM702 1128l-178 195l-178 -195h-170l227 351h242l227 -351h-170zM582 1528l-332 181q-11 6 -20 16.5t-16 22.5t-11 24.5t-4 22.5q0 18 6 37.5t19.5 35t36 25.5t55.5 10q21 0 37 -3
t30.5 -10.5t29 -20t32.5 -31.5l280 -310h-143z" />
    <glyph glyph-name="uni1EA7.2StorySItal.VN" horiz-adv-x="1133" 
d="M717 0l-27 102q-53 -36 -111 -64q-51 -24 -114 -43.5t-131 -19.5q-56 0 -104.5 18.5t-85 53t-57.5 83.5t-21 110q0 46 7.5 85t30 72.5t64.5 64t111.5 59.5t170.5 58t242 60v25q0 15 1 27q0 14 1 28q1 29 -6 62.5t-28 62t-59 47t-99 18.5q-21 0 -37.5 -1t-27.5 -3
q-13 -2 -23 -4v-194h-211q-26 -2 -46 5q-17 6 -31.5 21t-14.5 47q0 57 40.5 102t106 76.5t147 48.5t162.5 17q88 0 161 -13t125.5 -50.5t81 -105.5t28.5 -179v-526q0 -19 13 -32.5t32 -15.5l90 -6v-96h-381zM690 528q-99 -20 -163.5 -41t-102.5 -48t-53 -61.5t-15 -80.5
q0 -32 10.5 -59.5t30 -48t46.5 -32.5t59 -12q33 0 66.5 7t60.5 15q32 10 61 23v338zM240 1331l-206 201q-14 12 -20.5 29t-6.5 32q0 13 7 25.5t18.5 22t25.5 15t29 5.5q31 0 60.5 -18t43.5 -50l90 -202zM712 1128l-177 195l-178 -195h-172l230 351h241l228 -351h-172z" />
    <glyph glyph-name="uni1EAB" unicode="&#x1eab;" horiz-adv-x="1133" 
d="M717 0l-27 102q-53 -36 -111 -64q-51 -24 -114 -43.5t-131 -19.5q-56 0 -104.5 18.5t-85 53t-57.5 83.5t-21 110q0 46 7.5 85t30 72.5t64.5 64t111.5 59.5t170.5 58t242 60v25q0 15 1 27q0 14 1 28q1 29 -6 62.5t-28 62t-59 47t-99 18.5q-21 0 -37.5 -1t-27.5 -3
q-13 -2 -23 -4v-194h-211q-26 -2 -46 5q-17 6 -31.5 21t-14.5 47q0 57 40.5 102t106 76.5t147 48.5t162.5 17q88 0 161 -13t125.5 -50.5t81 -105.5t28.5 -179v-526q0 -19 13 -32.5t32 -15.5l90 -6v-96h-381zM690 528q-99 -20 -163.5 -41t-102.5 -48t-53 -61.5t-15 -80.5
q0 -32 10.5 -59.5t30 -48t46.5 -32.5t59 -12q33 0 66.5 7t60.5 15q32 10 61 23v338zM728 1128l-178 195l-178 -195h-170l227 351h242l227 -351h-170zM910 1852q-13 -53 -34 -99t-51 -80.5t-70.5 -54.5t-92.5 -20q-40 0 -70 15.5t-59.5 33.5t-62.5 33.5t-78 15.5
q-34 0 -59.5 -28t-30.5 -70h-111q13 53 34 99t51 80.5t70 54.5t91 20q40 0 71 -15t60.5 -33t62.5 -33t78 -15q16 0 31.5 7.5t27.5 20.5t20.5 30.5t10.5 37.5h111z" />
    <glyph glyph-name="uni1EAB.VN" horiz-adv-x="1133" 
d="M717 0l-27 102q-53 -36 -111 -64q-51 -24 -114 -43.5t-131 -19.5q-56 0 -104.5 18.5t-85 53t-57.5 83.5t-21 110q0 46 7.5 85t30 72.5t64.5 64t111.5 59.5t170.5 58t242 60v25q0 15 1 27q0 14 1 28q1 29 -6 62.5t-28 62t-59 47t-99 18.5q-21 0 -37.5 -1t-27.5 -3
q-13 -2 -23 -4v-194h-211q-26 -2 -46 5q-17 6 -31.5 21t-14.5 47q0 57 40.5 102t106 76.5t147 48.5t162.5 17q88 0 161 -13t125.5 -50.5t81 -105.5t28.5 -179v-526q0 -19 13 -32.5t32 -15.5l90 -6v-96h-381zM690 528q-99 -20 -163.5 -41t-102.5 -48t-53 -61.5t-15 -80.5
q0 -32 10.5 -59.5t30 -48t46.5 -32.5t59 -12q33 0 66.5 7t60.5 15q32 10 61 23v338zM727 1128l-179 195l-176 -195h-172l228 351h241l230 -351h-172zM909 1795q-13 -54 -34 -100.5t-51 -81t-70.5 -54.5t-92.5 -20q-40 0 -70 15.5t-59.5 33.5t-62.5 33.5t-78 15.5
q-34 0 -59.5 -28t-30.5 -70h-111q13 53 34 99.5t51 81.5t70 55t91 20q40 0 71 -15.5t60.5 -33.5t62.5 -33.5t78 -15.5q16 0 31.5 7.5t27.5 21t20.5 31t10.5 38.5h111z" />
    <glyph glyph-name="uni1EAB.2StorySItal.VN" horiz-adv-x="1133" 
d="M717 0l-27 102q-53 -36 -111 -64q-51 -24 -114 -43.5t-131 -19.5q-56 0 -104.5 18.5t-85 53t-57.5 83.5t-21 110q0 46 7.5 85t30 72.5t64.5 64t111.5 59.5t170.5 58t242 60v25q0 15 1 27q0 14 1 28q1 29 -6 62.5t-28 62t-59 47t-99 18.5q-21 0 -37.5 -1t-27.5 -3
q-13 -2 -23 -4v-194h-211q-26 -2 -46 5q-17 6 -31.5 21t-14.5 47q0 57 40.5 102t106 76.5t147 48.5t162.5 17q88 0 161 -13t125.5 -50.5t81 -105.5t28.5 -179v-526q0 -19 13 -32.5t32 -15.5l90 -6v-96h-381zM690 528q-99 -20 -163.5 -41t-102.5 -48t-53 -61.5t-15 -80.5
q0 -32 10.5 -59.5t30 -48t46.5 -32.5t59 -12q33 0 66.5 7t60.5 15q32 10 61 23v338zM701 1128l-179 195l-176 -195h-172l228 351h241l230 -351h-172zM883 1795q-13 -54 -34 -100.5t-51 -81t-70.5 -54.5t-92.5 -20q-40 0 -70 15.5t-59.5 33.5t-62.5 33.5t-78 15.5
q-34 0 -59.5 -28t-30.5 -70h-111q13 53 34 99.5t51 81.5t70 55t91 20q40 0 71 -15.5t60.5 -33.5t62.5 -33.5t78 -15.5q16 0 31.5 7.5t27.5 21t20.5 31t10.5 38.5h111z" />
    <glyph glyph-name="uni1EAB.2StorySItal" horiz-adv-x="1133" 
d="M717 0l-27 102q-53 -36 -111 -64q-51 -24 -114 -43.5t-131 -19.5q-56 0 -104.5 18.5t-85 53t-57.5 83.5t-21 110q0 46 7.5 85t30 72.5t64.5 64t111.5 59.5t170.5 58t242 60v25q0 15 1 27q0 14 1 28q1 29 -6 62.5t-28 62t-59 47t-99 18.5q-21 0 -37.5 -1t-27.5 -3
q-13 -2 -23 -4v-194h-211q-26 -2 -46 5q-17 6 -31.5 21t-14.5 47q0 57 40.5 102t106 76.5t147 48.5t162.5 17q88 0 161 -13t125.5 -50.5t81 -105.5t28.5 -179v-526q0 -19 13 -32.5t32 -15.5l90 -6v-96h-381zM690 528q-99 -20 -163.5 -41t-102.5 -48t-53 -61.5t-15 -80.5
q0 -32 10.5 -59.5t30 -48t46.5 -32.5t59 -12q33 0 66.5 7t60.5 15q32 10 61 23v338zM702 1128l-178 195l-178 -195h-170l227 351h242l227 -351h-170zM884 1852q-13 -53 -34 -99t-51 -80.5t-70.5 -54.5t-92.5 -20q-40 0 -70 15.5t-59.5 33.5t-62.5 33.5t-78 15.5
q-34 0 -59.5 -28t-30.5 -70h-111q13 53 34 99t51 80.5t70 54.5t91 20q40 0 71 -15t60.5 -33t62.5 -33t78 -15q16 0 31.5 7.5t27.5 20.5t20.5 30.5t10.5 37.5h111z" />
    <glyph glyph-name="uni1EA9" unicode="&#x1ea9;" horiz-adv-x="1133" 
d="M717 0l-27 102q-53 -36 -111 -64q-51 -24 -114 -43.5t-131 -19.5q-56 0 -104.5 18.5t-85 53t-57.5 83.5t-21 110q0 46 7.5 85t30 72.5t64.5 64t111.5 59.5t170.5 58t242 60v25q0 15 1 27q0 14 1 28q1 29 -6 62.5t-28 62t-59 47t-99 18.5q-21 0 -37.5 -1t-27.5 -3
q-13 -2 -23 -4v-194h-211q-26 -2 -46 5q-17 6 -31.5 21t-14.5 47q0 57 40.5 102t106 76.5t147 48.5t162.5 17q88 0 161 -13t125.5 -50.5t81 -105.5t28.5 -179v-526q0 -19 13 -32.5t32 -15.5l90 -6v-96h-381zM690 528q-99 -20 -163.5 -41t-102.5 -48t-53 -61.5t-15 -80.5
q0 -32 10.5 -59.5t30 -48t46.5 -32.5t59 -12q33 0 66.5 7t60.5 15q32 10 61 23v338zM728 1128l-178 195l-178 -195h-170l227 351h242l227 -351h-170zM716 1811q0 -37 -17.5 -64t-42 -46.5t-51.5 -32.5t-45 -21v-119h-63v160q23 6 43.5 15.5t36.5 23.5t25 33t9 45
q0 23 -5.5 42.5t-14.5 33.5t-20 22t-23 8q-28 0 -39 -16l-25 -78l-14 -6q-6 -2 -14.5 -4t-16.5 -2q-16 0 -26.5 6t-17 14.5t-9 19t-2.5 19.5q0 16 12 34.5t33.5 34t51.5 26t65 10.5q39 0 70.5 -12.5t53.5 -33.5t34 -50t12 -62z" />
    <glyph glyph-name="uni1EA9.VN" horiz-adv-x="1133" 
d="M717 0l-27 102q-53 -36 -111 -64q-51 -24 -114 -43.5t-131 -19.5q-56 0 -104.5 18.5t-85 53t-57.5 83.5t-21 110q0 46 7.5 85t30 72.5t64.5 64t111.5 59.5t170.5 58t242 60v25q0 15 1 27q0 14 1 28q1 29 -6 62.5t-28 62t-59 47t-99 18.5q-21 0 -37.5 -1t-27.5 -3
q-13 -2 -23 -4v-194h-211q-26 -2 -46 5q-17 6 -31.5 21t-14.5 47q0 57 40.5 102t106 76.5t147 48.5t162.5 17q88 0 161 -13t125.5 -50.5t81 -105.5t28.5 -179v-526q0 -19 13 -32.5t32 -15.5l90 -6v-96h-381zM690 528q-99 -20 -163.5 -41t-102.5 -48t-53 -61.5t-15 -80.5
q0 -32 10.5 -59.5t30 -48t46.5 -32.5t59 -12q33 0 66.5 7t60.5 15q32 10 61 23v338zM721 1128l-176 195l-178 -195h-172l227 351h244l225 -351h-170zM1012 1616q0 -45 -20.5 -76t-47.5 -51t-53.5 -30.5t-38.5 -14.5v-86h-65v137q3 1 20 6t36.5 18.5t35.5 36.5t16 60
q0 15 -3.5 30t-11 27t-18.5 19.5t-26 7.5q-8 0 -13.5 -0.5t-11.5 -3.5l-24 -64q-7 -3 -13 -5q-13 -5 -26 -5q-6 0 -14.5 2t-16 7t-13 14t-5.5 24q0 28 13.5 46t34 27.5t44.5 13t45 3.5q35 0 67 -9t56 -27t38.5 -45t14.5 -62z" />
    <glyph glyph-name="uni1EA9.2StorySItal" horiz-adv-x="1133" 
d="M717 0l-27 102q-53 -36 -111 -64q-51 -24 -114 -43.5t-131 -19.5q-56 0 -104.5 18.5t-85 53t-57.5 83.5t-21 110q0 46 7.5 85t30 72.5t64.5 64t111.5 59.5t170.5 58t242 60v25q0 15 1 27q0 14 1 28q1 29 -6 62.5t-28 62t-59 47t-99 18.5q-21 0 -37.5 -1t-27.5 -3
q-13 -2 -23 -4v-194h-211q-26 -2 -46 5q-17 6 -31.5 21t-14.5 47q0 57 40.5 102t106 76.5t147 48.5t162.5 17q88 0 161 -13t125.5 -50.5t81 -105.5t28.5 -179v-526q0 -19 13 -32.5t32 -15.5l90 -6v-96h-381zM690 528q-99 -20 -163.5 -41t-102.5 -48t-53 -61.5t-15 -80.5
q0 -32 10.5 -59.5t30 -48t46.5 -32.5t59 -12q33 0 66.5 7t60.5 15q32 10 61 23v338zM702 1128l-178 195l-178 -195h-170l227 351h242l227 -351h-170zM690 1811q0 -37 -17.5 -64t-42 -46.5t-51.5 -32.5t-45 -21v-119h-63v160q23 6 43.5 15.5t36.5 23.5t25 33t9 45
q0 23 -5.5 42.5t-14.5 33.5t-20 22t-23 8q-28 0 -39 -16l-25 -78l-14 -6q-6 -2 -14.5 -4t-16.5 -2q-16 0 -26.5 6t-17 14.5t-9 19t-2.5 19.5q0 16 12 34.5t33.5 34t51.5 26t65 10.5q39 0 70.5 -12.5t53.5 -33.5t34 -50t12 -62z" />
    <glyph glyph-name="uni1EA9.2StorySItal.VN" horiz-adv-x="1133" 
d="M717 0l-27 102q-53 -36 -111 -64q-51 -24 -114 -43.5t-131 -19.5q-56 0 -104.5 18.5t-85 53t-57.5 83.5t-21 110q0 46 7.5 85t30 72.5t64.5 64t111.5 59.5t170.5 58t242 60v25q0 15 1 27q0 14 1 28q1 29 -6 62.5t-28 62t-59 47t-99 18.5q-21 0 -37.5 -1t-27.5 -3
q-13 -2 -23 -4v-194h-211q-26 -2 -46 5q-17 6 -31.5 21t-14.5 47q0 57 40.5 102t106 76.5t147 48.5t162.5 17q88 0 161 -13t125.5 -50.5t81 -105.5t28.5 -179v-526q0 -19 13 -32.5t32 -15.5l90 -6v-96h-381zM690 528q-99 -20 -163.5 -41t-102.5 -48t-53 -61.5t-15 -80.5
q0 -32 10.5 -59.5t30 -48t46.5 -32.5t59 -12q33 0 66.5 7t60.5 15q32 10 61 23v338zM695 1128l-176 195l-178 -195h-172l227 351h244l225 -351h-170zM986 1616q0 -45 -20.5 -76t-47.5 -51t-53.5 -30.5t-38.5 -14.5v-86h-65v137q3 1 20 6t36.5 18.5t35.5 36.5t16 60
q0 15 -3.5 30t-11 27t-18.5 19.5t-26 7.5q-8 0 -13.5 -0.5t-11.5 -3.5l-24 -64q-7 -3 -13 -5q-13 -5 -26 -5q-6 0 -14.5 2t-16 7t-13 14t-5.5 24q0 28 13.5 46t34 27.5t44.5 13t45 3.5q35 0 67 -9t56 -27t38.5 -45t14.5 -62z" />
    <glyph glyph-name="uni0203" unicode="&#x203;" horiz-adv-x="1133" 
d="M717 0l-27 102q-53 -36 -111 -64q-51 -24 -114 -43.5t-131 -19.5q-56 0 -104.5 18.5t-85 53t-57.5 83.5t-21 110q0 46 7.5 85t30 72.5t64.5 64t111.5 59.5t170.5 58t242 60v25q0 15 1 27q0 14 1 28q1 29 -6 62.5t-28 62t-59 47t-99 18.5q-21 0 -37.5 -1t-27.5 -3
q-13 -2 -23 -4v-194h-211q-26 -2 -46 5q-17 6 -31.5 21t-14.5 47q0 57 40.5 102t106 76.5t147 48.5t162.5 17q88 0 161 -13t125.5 -50.5t81 -105.5t28.5 -179v-526q0 -19 13 -32.5t32 -15.5l90 -6v-96h-381zM690 528q-99 -20 -163.5 -41t-102.5 -48t-53 -61.5t-15 -80.5
q0 -32 10.5 -59.5t30 -48t46.5 -32.5t59 -12q33 0 66.5 7t60.5 15q32 10 61 23v338zM762 1128q-10 46 -31.5 78t-50 51.5t-62.5 28t-69 8.5q-34 0 -67.5 -8.5t-62.5 -28t-51 -51.5t-32 -78h-106q0 69 19.5 130t59.5 106.5t99.5 71.5t140.5 26t141.5 -26t100.5 -71.5
t60 -106.5t20 -130h-109z" />
    <glyph glyph-name="abreve" unicode="&#x103;" horiz-adv-x="1133" 
d="M717 0l-27 102q-53 -36 -111 -64q-51 -24 -114 -43.5t-131 -19.5q-56 0 -104.5 18.5t-85 53t-57.5 83.5t-21 110q0 46 7.5 85t30 72.5t64.5 64t111.5 59.5t170.5 58t242 60v25q0 15 1 27q0 14 1 28q1 29 -6 62.5t-28 62t-59 47t-99 18.5q-21 0 -37.5 -1t-27.5 -3
q-13 -2 -23 -4v-194h-211q-26 -2 -46 5q-17 6 -31.5 21t-14.5 47q0 57 40.5 102t106 76.5t147 48.5t162.5 17q88 0 161 -13t125.5 -50.5t81 -105.5t28.5 -179v-526q0 -19 13 -32.5t32 -15.5l90 -6v-96h-381zM690 528q-99 -20 -163.5 -41t-102.5 -48t-53 -61.5t-15 -80.5
q0 -32 10.5 -59.5t30 -48t46.5 -32.5t59 -12q33 0 66.5 7t60.5 15q32 10 61 23v338zM871 1462q0 -69 -20 -130t-60 -106t-100.5 -71.5t-141.5 -26.5t-140.5 26.5t-99.5 71.5t-59.5 106t-19.5 130h106q10 -46 32 -78t51 -52t62.5 -29t67.5 -9q35 0 69 9t62.5 29t50 52
t31.5 78h109z" />
    <glyph glyph-name="uni1EB7" unicode="&#x1eb7;" horiz-adv-x="1133" 
d="M717 0l-27 102q-53 -36 -111 -64q-51 -24 -114 -43.5t-131 -19.5q-56 0 -104.5 18.5t-85 53t-57.5 83.5t-21 110q0 46 7.5 85t30 72.5t64.5 64t111.5 59.5t170.5 58t242 60v25q0 15 1 27q0 14 1 28q1 29 -6 62.5t-28 62t-59 47t-99 18.5q-21 0 -37.5 -1t-27.5 -3
q-13 -2 -23 -4v-194h-211q-26 -2 -46 5q-17 6 -31.5 21t-14.5 47q0 57 40.5 102t106 76.5t147 48.5t162.5 17q88 0 161 -13t125.5 -50.5t81 -105.5t28.5 -179v-526q0 -19 13 -32.5t32 -15.5l90 -6v-96h-381zM690 528q-99 -20 -163.5 -41t-102.5 -48t-53 -61.5t-15 -80.5
q0 -32 10.5 -59.5t30 -48t46.5 -32.5t59 -12q33 0 66.5 7t60.5 15q32 10 61 23v338zM690 -324q0 -28 -10.5 -53.5t-29.5 -44.5t-44.5 -30t-55.5 -11t-55.5 10.5t-44 29.5t-29 44t-10.5 55q0 31 10 58t28.5 47.5t44 32.5t56.5 12q29 0 54.5 -11.5t44.5 -32t30 -48t11 -58.5z
M871 1462q0 -69 -20 -130t-60 -106t-100.5 -71.5t-141.5 -26.5t-140.5 26.5t-99.5 71.5t-59.5 106t-19.5 130h106q10 -46 32 -78t51 -52t62.5 -29t67.5 -9q35 0 69 9t62.5 29t50 52t31.5 78h109z" />
    <glyph glyph-name="uni1EAF" unicode="&#x1eaf;" horiz-adv-x="1133" 
d="M717 0l-27 102q-53 -36 -111 -64q-51 -24 -114 -43.5t-131 -19.5q-56 0 -104.5 18.5t-85 53t-57.5 83.5t-21 110q0 46 7.5 85t30 72.5t64.5 64t111.5 59.5t170.5 58t242 60v25q0 15 1 27q0 14 1 28q1 29 -6 62.5t-28 62t-59 47t-99 18.5q-21 0 -37.5 -1t-27.5 -3
q-13 -2 -23 -4v-194h-211q-26 -2 -46 5q-17 6 -31.5 21t-14.5 47q0 57 40.5 102t106 76.5t147 48.5t162.5 17q88 0 161 -13t125.5 -50.5t81 -105.5t28.5 -179v-526q0 -19 13 -32.5t32 -15.5l90 -6v-96h-381zM690 528q-99 -20 -163.5 -41t-102.5 -48t-53 -61.5t-15 -80.5
q0 -32 10.5 -59.5t30 -48t46.5 -32.5t59 -12q33 0 66.5 7t60.5 15q32 10 61 23v338zM871 1462q0 -69 -20 -130t-60 -106t-100.5 -71.5t-141.5 -26.5t-140.5 26.5t-99.5 71.5t-59.5 106t-19.5 130h106q10 -46 32 -78t51 -52t62.5 -29t67.5 -9q35 0 69 9t62.5 29t50 52
t31.5 78h109zM880 1795q0 -10 -4.5 -22.5t-11.5 -24.5t-17 -22.5t-20 -16.5l-332 -181h-143l280 310q18 19 32.5 31.5t29 20t30.5 10.5t37 3q33 0 55.5 -10t37 -25.5t20.5 -35t6 -37.5z" />
    <glyph glyph-name="uni1EAF.VN" horiz-adv-x="1133" 
d="M717 0l-27 102q-53 -36 -111 -64q-51 -24 -114 -43.5t-131 -19.5q-56 0 -104.5 18.5t-85 53t-57.5 83.5t-21 110q0 46 7.5 85t30 72.5t64.5 64t111.5 59.5t170.5 58t242 60v25q0 15 1 27q0 14 1 28q1 29 -6 62.5t-28 62t-59 47t-99 18.5q-21 0 -37.5 -1t-27.5 -3
q-13 -2 -23 -4v-194h-211q-26 -2 -46 5q-17 6 -31.5 21t-14.5 47q0 57 40.5 102t106 76.5t147 48.5t162.5 17q88 0 161 -13t125.5 -50.5t81 -105.5t28.5 -179v-526q0 -19 13 -32.5t32 -15.5l90 -6v-96h-381zM690 528q-99 -20 -163.5 -41t-102.5 -48t-53 -61.5t-15 -80.5
q0 -32 10.5 -59.5t30 -48t46.5 -32.5t59 -12q33 0 66.5 7t60.5 15q32 10 61 23v338zM871 1462q0 -69 -20 -130t-60 -106t-100.5 -71.5t-141.5 -26.5t-140.5 26.5t-99.5 71.5t-59.5 106t-19.5 130h106q10 -46 32 -78t51 -52t62.5 -29t67.5 -9q35 0 69 9t62.5 29t50 52
t31.5 78h109zM999 1685q0 -10 -4.5 -22.5t-11.5 -24.5t-17 -22.5t-20 -16.5l-332 -181h-143l280 310q18 19 32.5 31.5t29 20t30.5 10.5t37 3q33 0 55.5 -10t37 -25.5t20.5 -35t6 -37.5z" />
    <glyph glyph-name="uni1EAF.2StorySItal.VN" horiz-adv-x="1133" 
d="M717 0l-27 102q-53 -36 -111 -64q-51 -24 -114 -43.5t-131 -19.5q-56 0 -104.5 18.5t-85 53t-57.5 83.5t-21 110q0 46 7.5 85t30 72.5t64.5 64t111.5 59.5t170.5 58t242 60v25q0 15 1 27q0 14 1 28q1 29 -6 62.5t-28 62t-59 47t-99 18.5q-21 0 -37.5 -1t-27.5 -3
q-13 -2 -23 -4v-194h-211q-26 -2 -46 5q-17 6 -31.5 21t-14.5 47q0 57 40.5 102t106 76.5t147 48.5t162.5 17q88 0 161 -13t125.5 -50.5t81 -105.5t28.5 -179v-526q0 -19 13 -32.5t32 -15.5l90 -6v-96h-381zM690 528q-99 -20 -163.5 -41t-102.5 -48t-53 -61.5t-15 -80.5
q0 -32 10.5 -59.5t30 -48t46.5 -32.5t59 -12q33 0 66.5 7t60.5 15q32 10 61 23v338zM845 1462q0 -69 -20 -130t-60 -106t-100.5 -71.5t-141.5 -26.5t-140.5 26.5t-99.5 71.5t-59.5 106t-19.5 130h106q10 -46 32 -78t51 -52t62.5 -29t67.5 -9q35 0 69 9t62.5 29t50 52
t31.5 78h109zM973 1685q0 -10 -4.5 -22.5t-11.5 -24.5t-17 -22.5t-20 -16.5l-332 -181h-143l280 310q18 19 32.5 31.5t29 20t30.5 10.5t37 3q33 0 55.5 -10t37 -25.5t20.5 -35t6 -37.5z" />
    <glyph glyph-name="uni1EB1" unicode="&#x1eb1;" horiz-adv-x="1133" 
d="M717 0l-27 102q-53 -36 -111 -64q-51 -24 -114 -43.5t-131 -19.5q-56 0 -104.5 18.5t-85 53t-57.5 83.5t-21 110q0 46 7.5 85t30 72.5t64.5 64t111.5 59.5t170.5 58t242 60v25q0 15 1 27q0 14 1 28q1 29 -6 62.5t-28 62t-59 47t-99 18.5q-21 0 -37.5 -1t-27.5 -3
q-13 -2 -23 -4v-194h-211q-26 -2 -46 5q-17 6 -31.5 21t-14.5 47q0 57 40.5 102t106 76.5t147 48.5t162.5 17q88 0 161 -13t125.5 -50.5t81 -105.5t28.5 -179v-526q0 -19 13 -32.5t32 -15.5l90 -6v-96h-381zM690 528q-99 -20 -163.5 -41t-102.5 -48t-53 -61.5t-15 -80.5
q0 -32 10.5 -59.5t30 -48t46.5 -32.5t59 -12q33 0 66.5 7t60.5 15q32 10 61 23v338zM871 1462q0 -69 -20 -130t-60 -106t-100.5 -71.5t-141.5 -26.5t-140.5 26.5t-99.5 71.5t-59.5 106t-19.5 130h106q10 -46 32 -78t51 -52t62.5 -29t67.5 -9q35 0 69 9t62.5 29t50 52
t31.5 78h109zM608 1528l-332 181q-11 6 -20 16.5t-16 22.5t-11 24.5t-4 22.5q0 18 6 37.5t19.5 35t36 25.5t55.5 10q21 0 37 -3t30.5 -10.5t29 -20t32.5 -31.5l280 -310h-143z" />
    <glyph glyph-name="uni1EB1.VN" horiz-adv-x="1133" 
d="M717 0l-27 102q-53 -36 -111 -64q-51 -24 -114 -43.5t-131 -19.5q-56 0 -104.5 18.5t-85 53t-57.5 83.5t-21 110q0 46 7.5 85t30 72.5t64.5 64t111.5 59.5t170.5 58t242 60v25q0 15 1 27q0 14 1 28q1 29 -6 62.5t-28 62t-59 47t-99 18.5q-21 0 -37.5 -1t-27.5 -3
q-13 -2 -23 -4v-194h-211q-26 -2 -46 5q-17 6 -31.5 21t-14.5 47q0 57 40.5 102t106 76.5t147 48.5t162.5 17q88 0 161 -13t125.5 -50.5t81 -105.5t28.5 -179v-526q0 -19 13 -32.5t32 -15.5l90 -6v-96h-381zM690 528q-99 -20 -163.5 -41t-102.5 -48t-53 -61.5t-15 -80.5
q0 -32 10.5 -59.5t30 -48t46.5 -32.5t59 -12q33 0 66.5 7t60.5 15q32 10 61 23v338zM871 1462q0 -69 -20 -130t-60 -106t-100.5 -71.5t-141.5 -26.5t-140.5 26.5t-99.5 71.5t-59.5 106t-19.5 130h106q10 -46 32 -78t51 -52t62.5 -29t67.5 -9q35 0 69 9t62.5 29t50 52
t31.5 78h109zM492 1418l-332 181q-11 6 -20 16.5t-16 22.5t-11 24.5t-4 22.5q0 18 6 37.5t19.5 35t36 25.5t55.5 10q21 0 37 -3t30.5 -10.5t29 -20t32.5 -31.5l280 -310h-143z" />
    <glyph glyph-name="uni1EB1.2StorySItal.VN" horiz-adv-x="1133" 
d="M717 0l-27 102q-53 -36 -111 -64q-51 -24 -114 -43.5t-131 -19.5q-56 0 -104.5 18.5t-85 53t-57.5 83.5t-21 110q0 46 7.5 85t30 72.5t64.5 64t111.5 59.5t170.5 58t242 60v25q0 15 1 27q0 14 1 28q1 29 -6 62.5t-28 62t-59 47t-99 18.5q-21 0 -37.5 -1t-27.5 -3
q-13 -2 -23 -4v-194h-211q-26 -2 -46 5q-17 6 -31.5 21t-14.5 47q0 57 40.5 102t106 76.5t147 48.5t162.5 17q88 0 161 -13t125.5 -50.5t81 -105.5t28.5 -179v-526q0 -19 13 -32.5t32 -15.5l90 -6v-96h-381zM690 528q-99 -20 -163.5 -41t-102.5 -48t-53 -61.5t-15 -80.5
q0 -32 10.5 -59.5t30 -48t46.5 -32.5t59 -12q33 0 66.5 7t60.5 15q32 10 61 23v338zM845 1462q0 -69 -20 -130t-60 -106t-100.5 -71.5t-141.5 -26.5t-140.5 26.5t-99.5 71.5t-59.5 106t-19.5 130h106q10 -46 32 -78t51 -52t62.5 -29t67.5 -9q35 0 69 9t62.5 29t50 52
t31.5 78h109zM466 1418l-332 181q-11 6 -20 16.5t-16 22.5t-11 24.5t-4 22.5q0 18 6 37.5t19.5 35t36 25.5t55.5 10q21 0 37 -3t30.5 -10.5t29 -20t32.5 -31.5l280 -310h-143z" />
    <glyph glyph-name="uni1EB5" unicode="&#x1eb5;" horiz-adv-x="1133" 
d="M717 0l-27 102q-53 -36 -111 -64q-51 -24 -114 -43.5t-131 -19.5q-56 0 -104.5 18.5t-85 53t-57.5 83.5t-21 110q0 46 7.5 85t30 72.5t64.5 64t111.5 59.5t170.5 58t242 60v25q0 15 1 27q0 14 1 28q1 29 -6 62.5t-28 62t-59 47t-99 18.5q-21 0 -37.5 -1t-27.5 -3
q-13 -2 -23 -4v-194h-211q-26 -2 -46 5q-17 6 -31.5 21t-14.5 47q0 57 40.5 102t106 76.5t147 48.5t162.5 17q88 0 161 -13t125.5 -50.5t81 -105.5t28.5 -179v-526q0 -19 13 -32.5t32 -15.5l90 -6v-96h-381zM690 528q-99 -20 -163.5 -41t-102.5 -48t-53 -61.5t-15 -80.5
q0 -32 10.5 -59.5t30 -48t46.5 -32.5t59 -12q33 0 66.5 7t60.5 15q32 10 61 23v338zM871 1462q0 -69 -20 -130t-60 -106t-100.5 -71.5t-141.5 -26.5t-140.5 26.5t-99.5 71.5t-59.5 106t-19.5 130h106q10 -46 32 -78t51 -52t62.5 -29t67.5 -9q35 0 69 9t62.5 29t50 52
t31.5 78h109zM910 1852q-13 -53 -34 -99t-51 -80.5t-70.5 -54.5t-92.5 -20q-40 0 -70 15.5t-59.5 33.5t-62.5 33.5t-78 15.5q-34 0 -59.5 -28t-30.5 -70h-111q13 53 34 99t51 80.5t70 54.5t91 20q40 0 71 -15t60.5 -33t62.5 -33t78 -15q16 0 31.5 7.5t27.5 20.5t20.5 30.5
t10.5 37.5h111z" />
    <glyph glyph-name="uni1EB5.VN" horiz-adv-x="1133" 
d="M717 0l-27 102q-53 -36 -111 -64q-51 -24 -114 -43.5t-131 -19.5q-56 0 -104.5 18.5t-85 53t-57.5 83.5t-21 110q0 46 7.5 85t30 72.5t64.5 64t111.5 59.5t170.5 58t242 60v25q0 15 1 27q0 14 1 28q1 29 -6 62.5t-28 62t-59 47t-99 18.5q-21 0 -37.5 -1t-27.5 -3
q-13 -2 -23 -4v-194h-211q-26 -2 -46 5q-17 6 -31.5 21t-14.5 47q0 57 40.5 102t106 76.5t147 48.5t162.5 17q88 0 161 -13t125.5 -50.5t81 -105.5t28.5 -179v-526q0 -19 13 -32.5t32 -15.5l90 -6v-96h-381zM690 528q-99 -20 -163.5 -41t-102.5 -48t-53 -61.5t-15 -80.5
q0 -32 10.5 -59.5t30 -48t46.5 -32.5t59 -12q33 0 66.5 7t60.5 15q32 10 61 23v338zM870 1462q0 -69 -20 -130t-60.5 -106t-100.5 -71.5t-141 -26.5t-140.5 26.5t-99.5 71.5t-59.5 106t-19.5 130h106q10 -46 32 -78t51 -52t62.5 -29t67.5 -9q35 0 69 9t62.5 29t50 52
t31.5 78h109zM909 1777q-13 -53 -34 -99.5t-51 -81t-70.5 -54t-92.5 -19.5q-40 0 -70 15.5t-59.5 33.5t-62.5 33.5t-78 15.5q-34 0 -59.5 -28t-30.5 -70h-111q13 53 34 99t51 80.5t70 54.5t91 20q40 0 71 -15.5t60.5 -34t62.5 -34t78 -15.5q16 0 31.5 7.5t27.5 21t20.5 31.5
t10.5 39h111z" />
    <glyph glyph-name="uni1EB5.2StorySItal.VN" horiz-adv-x="1133" 
d="M717 0l-27 102q-53 -36 -111 -64q-51 -24 -114 -43.5t-131 -19.5q-56 0 -104.5 18.5t-85 53t-57.5 83.5t-21 110q0 46 7.5 85t30 72.5t64.5 64t111.5 59.5t170.5 58t242 60v25q0 15 1 27q0 14 1 28q1 29 -6 62.5t-28 62t-59 47t-99 18.5q-21 0 -37.5 -1t-27.5 -3
q-13 -2 -23 -4v-194h-211q-26 -2 -46 5q-17 6 -31.5 21t-14.5 47q0 57 40.5 102t106 76.5t147 48.5t162.5 17q88 0 161 -13t125.5 -50.5t81 -105.5t28.5 -179v-526q0 -19 13 -32.5t32 -15.5l90 -6v-96h-381zM690 528q-99 -20 -163.5 -41t-102.5 -48t-53 -61.5t-15 -80.5
q0 -32 10.5 -59.5t30 -48t46.5 -32.5t59 -12q33 0 66.5 7t60.5 15q32 10 61 23v338zM844 1462q0 -69 -20 -130t-60.5 -106t-100.5 -71.5t-141 -26.5t-140.5 26.5t-99.5 71.5t-59.5 106t-19.5 130h106q10 -46 32 -78t51 -52t62.5 -29t67.5 -9q35 0 69 9t62.5 29t50 52
t31.5 78h109zM883 1777q-13 -53 -34 -99.5t-51 -81t-70.5 -54t-92.5 -19.5q-40 0 -70 15.5t-59.5 33.5t-62.5 33.5t-78 15.5q-34 0 -59.5 -28t-30.5 -70h-111q13 53 34 99t51 80.5t70 54.5t91 20q40 0 71 -15.5t60.5 -34t62.5 -34t78 -15.5q16 0 31.5 7.5t27.5 21t20.5 31.5
t10.5 39h111z" />
    <glyph glyph-name="uni1EB3" unicode="&#x1eb3;" horiz-adv-x="1133" 
d="M717 0l-27 102q-53 -36 -111 -64q-51 -24 -114 -43.5t-131 -19.5q-56 0 -104.5 18.5t-85 53t-57.5 83.5t-21 110q0 46 7.5 85t30 72.5t64.5 64t111.5 59.5t170.5 58t242 60v25q0 15 1 27q0 14 1 28q1 29 -6 62.5t-28 62t-59 47t-99 18.5q-21 0 -37.5 -1t-27.5 -3
q-13 -2 -23 -4v-194h-211q-26 -2 -46 5q-17 6 -31.5 21t-14.5 47q0 57 40.5 102t106 76.5t147 48.5t162.5 17q88 0 161 -13t125.5 -50.5t81 -105.5t28.5 -179v-526q0 -19 13 -32.5t32 -15.5l90 -6v-96h-381zM690 528q-99 -20 -163.5 -41t-102.5 -48t-53 -61.5t-15 -80.5
q0 -32 10.5 -59.5t30 -48t46.5 -32.5t59 -12q33 0 66.5 7t60.5 15q32 10 61 23v338zM871 1462q0 -69 -20 -130t-60 -106t-100.5 -71.5t-141.5 -26.5t-140.5 26.5t-99.5 71.5t-59.5 106t-19.5 130h106q10 -46 32 -78t51 -52t62.5 -29t67.5 -9q35 0 69 9t62.5 29t50 52
t31.5 78h109zM716 1811q0 -37 -17.5 -64t-42 -46.5t-51.5 -32.5t-45 -21v-119h-63v160q23 6 43.5 15.5t36.5 23.5t25 33t9 45q0 23 -5.5 42.5t-14.5 33.5t-20 22t-23 8q-28 0 -39 -16l-25 -78l-14 -6q-6 -2 -14.5 -4t-16.5 -2q-16 0 -26.5 6t-17 14.5t-9 19t-2.5 19.5
q0 16 12 34.5t33.5 34t51.5 26t65 10.5q39 0 70.5 -12.5t53.5 -33.5t34 -50t12 -62z" />
    <glyph glyph-name="uni1EB3.VN" horiz-adv-x="1133" 
d="M717 0l-27 102q-53 -36 -111 -64q-51 -24 -114 -43.5t-131 -19.5q-56 0 -104.5 18.5t-85 53t-57.5 83.5t-21 110q0 46 7.5 85t30 72.5t64.5 64t111.5 59.5t170.5 58t242 60v25q0 15 1 27q0 14 1 28q1 29 -6 62.5t-28 62t-59 47t-99 18.5q-21 0 -37.5 -1t-27.5 -3
q-13 -2 -23 -4v-194h-211q-26 -2 -46 5q-17 6 -31.5 21t-14.5 47q0 57 40.5 102t106 76.5t147 48.5t162.5 17q88 0 161 -13t125.5 -50.5t81 -105.5t28.5 -179v-526q0 -19 13 -32.5t32 -15.5l90 -6v-96h-381zM690 528q-99 -20 -163.5 -41t-102.5 -48t-53 -61.5t-15 -80.5
q0 -32 10.5 -59.5t30 -48t46.5 -32.5t59 -12q33 0 66.5 7t60.5 15q32 10 61 23v338zM871 1462q0 -69 -20 -130t-60 -106t-100.5 -71.5t-141.5 -26.5t-140.5 26.5t-99.5 71.5t-59.5 106t-19.5 130h106q10 -46 32 -78t51 -52t62.5 -29t67.5 -9q35 0 69 9t62.5 29t50 52
t31.5 78h109zM716 1628q0 -37 -17.5 -64t-42 -46.5t-51.5 -32.5t-45 -21v-119h-63v160q23 6 43.5 15.5t36.5 23.5t25 33t9 45q0 23 -5.5 42.5t-14.5 33.5t-20 22t-23 8q-28 0 -39 -16l-25 -78l-14 -6q-6 -2 -14.5 -4t-16.5 -2q-16 0 -26.5 6t-17 14.5t-9 19t-2.5 19.5
q0 16 12 34.5t33.5 34t51.5 26t65 10.5q39 0 70.5 -12.5t53.5 -33.5t34 -50t12 -62z" />
    <glyph glyph-name="uni1EB3.2StorySItal.VN" horiz-adv-x="1133" 
d="M717 0l-27 102q-53 -36 -111 -64q-51 -24 -114 -43.5t-131 -19.5q-56 0 -104.5 18.5t-85 53t-57.5 83.5t-21 110q0 46 7.5 85t30 72.5t64.5 64t111.5 59.5t170.5 58t242 60v25q0 15 1 27q0 14 1 28q1 29 -6 62.5t-28 62t-59 47t-99 18.5q-21 0 -37.5 -1t-27.5 -3
q-13 -2 -23 -4v-194h-211q-26 -2 -46 5q-17 6 -31.5 21t-14.5 47q0 57 40.5 102t106 76.5t147 48.5t162.5 17q88 0 161 -13t125.5 -50.5t81 -105.5t28.5 -179v-526q0 -19 13 -32.5t32 -15.5l90 -6v-96h-381zM690 528q-99 -20 -163.5 -41t-102.5 -48t-53 -61.5t-15 -80.5
q0 -32 10.5 -59.5t30 -48t46.5 -32.5t59 -12q33 0 66.5 7t60.5 15q32 10 61 23v338zM845 1462q0 -69 -20 -130t-60 -106t-100.5 -71.5t-141.5 -26.5t-140.5 26.5t-99.5 71.5t-59.5 106t-19.5 130h106q10 -46 32 -78t51 -52t62.5 -29t67.5 -9q35 0 69 9t62.5 29t50 52
t31.5 78h109zM690 1628q0 -37 -17.5 -64t-42 -46.5t-51.5 -32.5t-45 -21v-119h-63v160q23 6 43.5 15.5t36.5 23.5t25 33t9 45q0 23 -5.5 42.5t-14.5 33.5t-20 22t-23 8q-28 0 -39 -16l-25 -78l-14 -6q-6 -2 -14.5 -4t-16.5 -2q-16 0 -26.5 6t-17 14.5t-9 19t-2.5 19.5
q0 16 12 34.5t33.5 34t51.5 26t65 10.5q39 0 70.5 -12.5t53.5 -33.5t34 -50t12 -62z" />
    <glyph glyph-name="uni04D1" unicode="&#x4d1;" horiz-adv-x="1133" 
d="M717 0l-27 102q-53 -36 -111 -64q-51 -24 -114 -43.5t-131 -19.5q-56 0 -104.5 18.5t-85 53t-57.5 83.5t-21 110q0 46 7.5 85t30 72.5t64.5 64t111.5 59.5t170.5 58t242 60v25q0 15 1 27q0 14 1 28q1 29 -6 62.5t-28 62t-59 47t-99 18.5q-21 0 -37.5 -1t-27.5 -3
q-13 -2 -23 -4v-194h-211q-26 -2 -46 5q-17 6 -31.5 21t-14.5 47q0 57 40.5 102t106 76.5t147 48.5t162.5 17q88 0 161 -13t125.5 -50.5t81 -105.5t28.5 -179v-526q0 -19 13 -32.5t32 -15.5l90 -6v-96h-381zM690 528q-99 -20 -163.5 -41t-102.5 -48t-53 -61.5t-15 -80.5
q0 -32 10.5 -59.5t30 -48t46.5 -32.5t59 -12q33 0 66.5 7t60.5 15q32 10 61 23v338zM896 1372q0 -45 -27.5 -89t-75.5 -78.5t-112.5 -55.5t-137.5 -21q-72 0 -136 20t-112 53.5t-76 77t-28 91.5q0 27 12.5 50.5t33 41t46.5 27.5t53 10q25 0 51 -11t47 -28.5t34.5 -40.5
t13.5 -47l-109 -82q6 -8 19.5 -20.5t34.5 -24t49.5 -20t66.5 -8.5q32 0 61 9.5t51.5 22t37.5 24.5t20 17l-108 84q0 22 12.5 44.5t32.5 40.5t46 29t52 11q29 0 56 -10.5t47.5 -28t32.5 -40.5t12 -48z" />
    <glyph glyph-name="uni01CE" unicode="&#x1ce;" horiz-adv-x="1133" 
d="M717 0l-27 102q-53 -36 -111 -64q-51 -24 -114 -43.5t-131 -19.5q-56 0 -104.5 18.5t-85 53t-57.5 83.5t-21 110q0 46 7.5 85t30 72.5t64.5 64t111.5 59.5t170.5 58t242 60v25q0 15 1 27q0 14 1 28q1 29 -6 62.5t-28 62t-59 47t-99 18.5q-21 0 -37.5 -1t-27.5 -3
q-13 -2 -23 -4v-194h-211q-26 -2 -46 5q-17 6 -31.5 21t-14.5 47q0 57 40.5 102t106 76.5t147 48.5t162.5 17q88 0 161 -13t125.5 -50.5t81 -105.5t28.5 -179v-526q0 -19 13 -32.5t32 -15.5l90 -6v-96h-381zM690 528q-99 -20 -163.5 -41t-102.5 -48t-53 -61.5t-15 -80.5
q0 -32 10.5 -59.5t30 -48t46.5 -32.5t59 -12q33 0 66.5 7t60.5 15q32 10 61 23v338zM671 1128h-242l-227 351h170l178 -193l178 193h170z" />
    <glyph glyph-name="amacron" unicode="&#x101;" horiz-adv-x="1133" 
d="M717 0l-27 102q-53 -36 -111 -64q-51 -24 -114 -43.5t-131 -19.5q-56 0 -104.5 18.5t-85 53t-57.5 83.5t-21 110q0 46 7.5 85t30 72.5t64.5 64t111.5 59.5t170.5 58t242 60v25q0 15 1 27q0 14 1 28q1 29 -6 62.5t-28 62t-59 47t-99 18.5q-21 0 -37.5 -1t-27.5 -3
q-13 -2 -23 -4v-194h-211q-26 -2 -46 5q-17 6 -31.5 21t-14.5 47q0 57 40.5 102t106 76.5t147 48.5t162.5 17q88 0 161 -13t125.5 -50.5t81 -105.5t28.5 -179v-526q0 -19 13 -32.5t32 -15.5l90 -6v-96h-381zM690 528q-99 -20 -163.5 -41t-102.5 -48t-53 -61.5t-15 -80.5
q0 -32 10.5 -59.5t30 -48t46.5 -32.5t59 -12q33 0 66.5 7t60.5 15q32 10 61 23v338zM202 1200v165h696v-165h-696z" />
    <glyph glyph-name="uni04D3" unicode="&#x4d3;" horiz-adv-x="1133" 
d="M717 0l-27 102q-53 -36 -111 -64q-51 -24 -114 -43.5t-131 -19.5q-56 0 -104.5 18.5t-85 53t-57.5 83.5t-21 110q0 46 7.5 85t30 72.5t64.5 64t111.5 59.5t170.5 58t242 60v25q0 15 1 27q0 14 1 28q1 29 -6 62.5t-28 62t-59 47t-99 18.5q-21 0 -37.5 -1t-27.5 -3
q-13 -2 -23 -4v-194h-211q-26 -2 -46 5q-17 6 -31.5 21t-14.5 47q0 57 40.5 102t106 76.5t147 48.5t162.5 17q88 0 161 -13t125.5 -50.5t81 -105.5t28.5 -179v-526q0 -19 13 -32.5t32 -15.5l90 -6v-96h-381zM690 528q-99 -20 -163.5 -41t-102.5 -48t-53 -61.5t-15 -80.5
q0 -32 10.5 -59.5t30 -48t46.5 -32.5t59 -12q33 0 66.5 7t60.5 15q32 10 61 23v338zM470 1339q0 -29 -11 -54.5t-30.5 -45t-45.5 -30.5t-55 -11t-55 11t-45 30.5t-30 45t-11 54.5t11 55t30 45.5t45 30.5t55 11t55 -11t45.5 -30.5t30.5 -45.5t11 -55zM900 1339
q0 -29 -11 -54.5t-30.5 -45t-45.5 -30.5t-55 -11t-54.5 11t-45 30.5t-30.5 45t-11 54.5t11 55t30.5 45.5t45 30.5t54.5 11t55 -11t45.5 -30.5t30.5 -45.5t11 -55z" />
    <glyph glyph-name="uni01DF" unicode="&#x1df;" horiz-adv-x="1133" 
d="M717 0l-27 102q-53 -36 -111 -64q-51 -24 -114 -43.5t-131 -19.5q-56 0 -104.5 18.5t-85 53t-57.5 83.5t-21 110q0 46 7.5 85t30 72.5t64.5 64t111.5 59.5t170.5 58t242 60v25q0 15 1 27q0 14 1 28q1 29 -6 62.5t-28 62t-59 47t-99 18.5q-21 0 -37.5 -1t-27.5 -3
q-13 -2 -23 -4v-194h-211q-26 -2 -46 5q-17 6 -31.5 21t-14.5 47q0 57 40.5 102t106 76.5t147 48.5t162.5 17q88 0 161 -13t125.5 -50.5t81 -105.5t28.5 -179v-526q0 -19 13 -32.5t32 -15.5l90 -6v-96h-381zM690 528q-99 -20 -163.5 -41t-102.5 -48t-53 -61.5t-15 -80.5
q0 -32 10.5 -59.5t30 -48t46.5 -32.5t59 -12q33 0 66.5 7t60.5 15q32 10 61 23v338zM477 1339q0 -29 -11 -54.5t-30.5 -45t-45.5 -30.5t-55 -11t-55 11t-45 30.5t-30 45t-11 54.5t11 55t30 45.5t45 30.5t55 11t55 -11t45.5 -30.5t30.5 -45.5t11 -55zM907 1339
q0 -29 -11 -54.5t-30.5 -45t-45.5 -30.5t-55 -11t-54.5 11t-45 30.5t-30.5 45t-11 54.5t11 55t30.5 45.5t45 30.5t54.5 11t55 -11t45.5 -30.5t30.5 -45.5t11 -55zM202 1600v165h696v-165h-696z" />
    <glyph glyph-name="uni0227" unicode="&#x227;" horiz-adv-x="1133" 
d="M717 0l-27 102q-53 -36 -111 -64q-51 -24 -114 -43.5t-131 -19.5q-56 0 -104.5 18.5t-85 53t-57.5 83.5t-21 110q0 46 7.5 85t30 72.5t64.5 64t111.5 59.5t170.5 58t242 60v25q0 15 1 27q0 14 1 28q1 29 -6 62.5t-28 62t-59 47t-99 18.5q-21 0 -37.5 -1t-27.5 -3
q-13 -2 -23 -4v-194h-211q-26 -2 -46 5q-17 6 -31.5 21t-14.5 47q0 57 40.5 102t106 76.5t147 48.5t162.5 17q88 0 161 -13t125.5 -50.5t81 -105.5t28.5 -179v-526q0 -19 13 -32.5t32 -15.5l90 -6v-96h-381zM690 528q-99 -20 -163.5 -41t-102.5 -48t-53 -61.5t-15 -80.5
q0 -32 10.5 -59.5t30 -48t46.5 -32.5t59 -12q33 0 66.5 7t60.5 15q32 10 61 23v338zM690 1337q0 -28 -10.5 -53.5t-29.5 -44.5t-44.5 -30t-55.5 -11t-55.5 10.5t-44 29t-29 44t-10.5 55.5q0 31 10 58t28.5 47.5t44 32.5t56.5 12q29 0 54.5 -11.5t44.5 -32t30 -48t11 -58.5z
" />
    <glyph glyph-name="uni01E1" unicode="&#x1e1;" horiz-adv-x="1133" 
d="M717 0l-27 102q-53 -36 -111 -64q-51 -24 -114 -43.5t-131 -19.5q-56 0 -104.5 18.5t-85 53t-57.5 83.5t-21 110q0 46 7.5 85t30 72.5t64.5 64t111.5 59.5t170.5 58t242 60v25q0 15 1 27q0 14 1 28q1 29 -6 62.5t-28 62t-59 47t-99 18.5q-21 0 -37.5 -1t-27.5 -3
q-13 -2 -23 -4v-194h-211q-26 -2 -46 5q-17 6 -31.5 21t-14.5 47q0 57 40.5 102t106 76.5t147 48.5t162.5 17q88 0 161 -13t125.5 -50.5t81 -105.5t28.5 -179v-526q0 -19 13 -32.5t32 -15.5l90 -6v-96h-381zM690 528q-99 -20 -163.5 -41t-102.5 -48t-53 -61.5t-15 -80.5
q0 -32 10.5 -59.5t30 -48t46.5 -32.5t59 -12q33 0 66.5 7t60.5 15q32 10 61 23v338zM202 1600v165h696v-165h-696zM690 1337q0 -28 -10.5 -53.5t-29.5 -44.5t-44.5 -30t-55.5 -11t-55.5 10.5t-44 29t-29 44t-10.5 55.5q0 31 10 58t28.5 47.5t44 32.5t56.5 12
q29 0 54.5 -11.5t44.5 -32t30 -48t11 -58.5z" />
    <glyph glyph-name="aringacute" unicode="&#x1fb;" horiz-adv-x="1133" 
d="M717 0l-27 102q-53 -36 -111 -64q-51 -24 -114 -43.5t-131 -19.5q-56 0 -104.5 18.5t-85 53t-57.5 83.5t-21 110q0 46 7.5 85t30 72.5t64.5 64t111.5 59.5t170.5 58t242 60v25q0 15 1 27q0 14 1 28q1 29 -6 62.5t-28 62t-59 47t-99 18.5q-21 0 -37.5 -1t-27.5 -3
q-13 -2 -23 -4v-194h-211q-26 -2 -46 5q-17 6 -31.5 21t-14.5 47q0 57 40.5 102t106 76.5t147 48.5t162.5 17q88 0 161 -13t125.5 -50.5t81 -105.5t28.5 -179v-526q0 -19 13 -32.5t32 -15.5l90 -6v-96h-381zM690 528q-99 -20 -163.5 -41t-102.5 -48t-53 -61.5t-15 -80.5
q0 -32 10.5 -59.5t30 -48t46.5 -32.5t59 -12q33 0 66.5 7t60.5 15q32 10 61 23v338zM678 1386q0 27 -10 50.5t-27.5 41.5t-41 28t-50.5 10q-26 0 -49.5 -10t-41 -28t-28 -41.5t-10.5 -50.5t10.5 -50.5t28 -41t41 -27.5t49.5 -10q27 0 50.5 10t41 27.5t27.5 41t10 50.5z
M809 1386q0 -54 -20.5 -101t-56 -82t-82.5 -55t-101 -20q-53 0 -100 20t-82 55t-55.5 82t-20.5 101t20.5 101t55.5 82.5t82 55.5t100 20q54 0 101 -20t82.5 -55.5t56 -82.5t20.5 -101zM880 1955q0 -10 -4.5 -22.5t-11.5 -24.5t-17 -22.5t-20 -16.5l-332 -181h-143l280 310
q18 19 32.5 31.5t29 20t30.5 10.5t37 3q33 0 55.5 -10t37 -25.5t20.5 -35t6 -37.5z" />
    <glyph glyph-name="uni1E9A" unicode="&#x1e9a;" horiz-adv-x="1133" 
d="M717 0l-27 102q-53 -36 -111 -64q-51 -24 -114 -43.5t-131 -19.5q-56 0 -104.5 18.5t-85 53t-57.5 83.5t-21 110q0 46 7.5 85t30 72.5t64.5 64t111.5 59.5t170.5 58t242 60v25q0 15 1 27q0 14 1 28q1 29 -6 62.5t-28 62t-59 47t-99 18.5q-21 0 -37.5 -1t-27.5 -3
q-13 -2 -23 -4v-194h-211q-26 -2 -46 5q-17 6 -31.5 21t-14.5 47q0 57 40.5 102t106 76.5t147 48.5t162.5 17q88 0 161 -13t125.5 -50.5t81 -105.5t28.5 -179v-526q0 -19 13 -32.5t32 -15.5l90 -6v-96h-381zM690 528q-99 -20 -163.5 -41t-102.5 -48t-53 -61.5t-15 -80.5
q0 -32 10.5 -59.5t30 -48t46.5 -32.5t59 -12q33 0 66.5 7t60.5 15q32 10 61 23v338zM674 1385q0 -111 -67 -166t-181 -55v82q78 0 116 32.5t38 106.5t-38 106.5t-116 32.5v82q118 0 183 -56.5t65 -164.5z" />
    <glyph glyph-name="uni1EA3" unicode="&#x1ea3;" horiz-adv-x="1133" 
d="M717 0l-27 102q-53 -36 -111 -64q-51 -24 -114 -43.5t-131 -19.5q-56 0 -104.5 18.5t-85 53t-57.5 83.5t-21 110q0 46 7.5 85t30 72.5t64.5 64t111.5 59.5t170.5 58t242 60v25q0 15 1 27q0 14 1 28q1 29 -6 62.5t-28 62t-59 47t-99 18.5q-21 0 -37.5 -1t-27.5 -3
q-13 -2 -23 -4v-194h-211q-26 -2 -46 5q-17 6 -31.5 21t-14.5 47q0 57 40.5 102t106 76.5t147 48.5t162.5 17q88 0 161 -13t125.5 -50.5t81 -105.5t28.5 -179v-526q0 -19 13 -32.5t32 -15.5l90 -6v-96h-381zM690 528q-99 -20 -163.5 -41t-102.5 -48t-53 -61.5t-15 -80.5
q0 -32 10.5 -59.5t30 -48t46.5 -32.5t59 -12q33 0 66.5 7t60.5 15q32 10 61 23v338zM716 1411q0 -37 -17.5 -64t-42 -46.5t-51.5 -32.5t-45 -21v-119h-63v160q23 6 43.5 15.5t36.5 23.5t25 33t9 45q0 23 -5.5 42.5t-14.5 33.5t-20 22t-23 8q-28 0 -39 -16l-25 -78l-14 -6
q-6 -2 -14.5 -4t-16.5 -2q-16 0 -26.5 6t-17 14.5t-9 19t-2.5 19.5q0 16 12 34.5t33.5 34t51.5 26t65 10.5q39 0 70.5 -12.5t53.5 -33.5t34 -50t12 -62z" />
    <glyph glyph-name="uni1EA1" unicode="&#x1ea1;" horiz-adv-x="1133" 
d="M717 0l-27 102q-53 -36 -111 -64q-51 -24 -114 -43.5t-131 -19.5q-56 0 -104.5 18.5t-85 53t-57.5 83.5t-21 110q0 46 7.5 85t30 72.5t64.5 64t111.5 59.5t170.5 58t242 60v25q0 15 1 27q0 14 1 28q1 29 -6 62.5t-28 62t-59 47t-99 18.5q-21 0 -37.5 -1t-27.5 -3
q-13 -2 -23 -4v-194h-211q-26 -2 -46 5q-17 6 -31.5 21t-14.5 47q0 57 40.5 102t106 76.5t147 48.5t162.5 17q88 0 161 -13t125.5 -50.5t81 -105.5t28.5 -179v-526q0 -19 13 -32.5t32 -15.5l90 -6v-96h-381zM690 528q-99 -20 -163.5 -41t-102.5 -48t-53 -61.5t-15 -80.5
q0 -32 10.5 -59.5t30 -48t46.5 -32.5t59 -12q33 0 66.5 7t60.5 15q32 10 61 23v338zM690 -324q0 -28 -10.5 -53.5t-29.5 -44.5t-44.5 -30t-55.5 -11t-55.5 10.5t-44 29.5t-29 44t-10.5 55q0 31 10 58t28.5 47.5t44 32.5t56.5 12q29 0 54.5 -11.5t44.5 -32t30 -48t11 -58.5z
" />
    <glyph glyph-name="uni1E01" unicode="&#x1e01;" horiz-adv-x="1133" 
d="M717 0l-27 102q-53 -36 -111 -64q-51 -24 -114 -43.5t-131 -19.5q-56 0 -104.5 18.5t-85 53t-57.5 83.5t-21 110q0 46 7.5 85t30 72.5t64.5 64t111.5 59.5t170.5 58t242 60v25q0 15 1 27q0 14 1 28q1 29 -6 62.5t-28 62t-59 47t-99 18.5q-21 0 -37.5 -1t-27.5 -3
q-13 -2 -23 -4v-194h-211q-26 -2 -46 5q-17 6 -31.5 21t-14.5 47q0 57 40.5 102t106 76.5t147 48.5t162.5 17q88 0 161 -13t125.5 -50.5t81 -105.5t28.5 -179v-526q0 -19 13 -32.5t32 -15.5l90 -6v-96h-381zM690 528q-99 -20 -163.5 -41t-102.5 -48t-53 -61.5t-15 -80.5
q0 -32 10.5 -59.5t30 -48t46.5 -32.5t59 -12q33 0 66.5 7t60.5 15q32 10 61 23v338zM549 -254q-26 0 -49.5 -10.5t-41 -28t-28 -41t-10.5 -49.5q0 -27 10.5 -50.5t28 -41t41 -27.5t49.5 -10q27 0 50.5 10t41 27t27.5 40.5t10 49.5q0 27 -10 51t-27.5 41.5t-41 28t-50.5 10.5
zM549 -125q54 0 101 -20.5t82.5 -55.5t56 -82t20.5 -100q0 -54 -20.5 -101t-56 -82t-82.5 -55t-101 -20q-53 0 -100 20t-82 55t-55.5 81.5t-20.5 99.5q0 54 20.5 101t55.5 82.5t82 56t100 20.5z" />
    <glyph glyph-name="aogonek" unicode="&#x105;" horiz-adv-x="1133" 
d="M1034 -362q-38 -18 -74 -32q-31 -12 -64.5 -22t-56.5 -10q-48 0 -89.5 11.5t-72 34t-48 54t-17.5 72.5q0 45 17 85t42.5 72.5t54.5 57.5q27 24 49 39h-58l-27 102q-53 -36 -111 -64q-51 -24 -114 -43.5t-131 -19.5q-56 0 -104.5 18.5t-85 53t-57.5 83.5t-21 110
q0 46 7.5 85t30 72.5t64.5 64t111.5 59.5t170.5 58t242 60v25q0 15 1 27q0 14 1 28q1 29 -6 62.5t-28 62t-59 47t-99 18.5q-21 0 -37.5 -1t-27.5 -3q-13 -2 -23 -4v-194h-211q-26 -2 -46 5q-17 6 -31.5 21t-14.5 47q0 57 40.5 102t106 76.5t147 48.5t162.5 17q88 0 161 -13
t125.5 -50.5t81 -105.5t28.5 -179v-526q0 -19 13 -32.5t32 -15.5l90 -6v-96h-194q-55 -42 -90 -91q-36 -50 -36 -110q0 -45 25.5 -75.5t76.5 -30.5q10 0 23.5 7t27 15.5t24 17t15.5 11.5zM690 528q-99 -20 -163.5 -41t-102.5 -48t-53 -61.5t-15 -80.5q0 -32 10.5 -59.5
t30 -48t46.5 -32.5t59 -12q33 0 66.5 7t60.5 15q32 10 61 23v338z" />
    <glyph glyph-name="aogonek.RetroHook" horiz-adv-x="1133" 
d="M717 0l-27 102q-15 -11 -33 -22q-16 -10 -37.5 -22t-47.5 -24v-257q0 -33 8 -54t23.5 -32.5t38.5 -16t53 -4.5l197 187q24 -14 45.5 -29.5t37 -35t24.5 -44.5t9 -57q0 -45 -25 -76.5t-63 -51t-82.5 -28t-83.5 -8.5q-47 0 -101.5 14t-101 44.5t-77.5 79t-31 116.5v208
q-26 -6 -53.5 -10t-55.5 -4q-56 0 -104.5 18.5t-85 53t-57.5 83.5t-21 110q0 46 7.5 85t30 72.5t64.5 64t111.5 59.5t170.5 58t242 60v25q0 15 1 27q0 14 1 28q1 29 -6 62.5t-28 62t-59 47t-99 18.5q-21 0 -37.5 -1t-27.5 -3q-13 -2 -23 -4v-194h-211q-26 -2 -46 5
q-17 6 -31.5 21t-14.5 47q0 57 40.5 102t106 76.5t147 48.5t162.5 17q88 0 161 -13t125.5 -50.5t81 -105.5t28.5 -179v-526q0 -19 13 -32.5t32 -15.5l90 -6v-96h-381zM690 528q-99 -20 -163.5 -41t-102.5 -48t-53 -61.5t-15 -80.5q0 -32 10.5 -59.5t30 -48t46.5 -32.5
t59 -12q33 0 66.5 7t60.5 15q32 10 61 23v338z" />
    <glyph glyph-name="uni1D8F" unicode="&#x1d8f;" horiz-adv-x="1133" 
d="M717 0l-27 102q-53 -36 -111 -64q-51 -24 -114 -43.5t-131 -19.5q-56 0 -104.5 18.5t-85 53t-57.5 83.5t-21 110q0 46 7.5 85t30 72.5t64.5 64t111.5 59.5t170.5 58t242 60v25q0 15 1 27q0 14 1 28q1 29 -6 62.5t-28 62t-59 47t-99 18.5q-21 0 -37.5 -1t-27.5 -3
q-13 -2 -23 -4v-194h-211q-26 -2 -46 5q-17 6 -31.5 21t-14.5 47q0 57 40.5 102t106 76.5t147 48.5t162.5 17q88 0 161 -13t125.5 -50.5t81 -105.5t28.5 -179v-526q0 -19 13 -32.5t32 -15.5l90 -6v-315q0 -34 8 -55t23.5 -32.5t38.5 -15.5t53 -4l197 187q24 -14 45.5 -30
t37 -38t24.5 -51.5t9 -69.5q0 -37 -25.5 -63.5t-63.5 -44t-82.5 -25.5t-81.5 -8q-49 0 -103.5 14t-101 44.5t-77 79t-30.5 116.5v215h-252zM690 528q-99 -20 -163.5 -41t-102.5 -48t-53 -61.5t-15 -80.5q0 -32 10.5 -59.5t30 -48t46.5 -32.5t59 -12q33 0 66.5 7t60.5 15
q32 10 61 23v338z" />
    <glyph glyph-name="uni2C65" unicode="&#x2c65;" horiz-adv-x="1133" 
d="M1032 1113l-121 -213q25 -39 38.5 -94t13.5 -130v-526q0 -19 13 -32.5t32 -15.5l90 -6v-96h-381l-27 102q-43 -29 -92 -54q-42 -21 -96.5 -41t-114.5 -28l-89 -157l-104 61l58 103q-41 11 -75 34t-58.5 55.5t-38.5 74t-14 90.5q0 44 6.5 81t26.5 69.5t57 62t97.5 57
t149 55t210.5 56.5l79 139q-4 27 -15 53.5t-32.5 47.5t-56.5 34.5t-86 13.5q-21 0 -37.5 -1t-27.5 -3q-13 -2 -23 -4v-194h-211q-26 -2 -46 5q-17 6 -31.5 21t-14.5 47q0 57 40.5 102t106 76.5t147 48.5t162.5 17q75 0 138 -9t113 -33l108 190zM690 511l-208 -365
q5 -1 10 -1h10q33 0 66.5 7t60.5 15q32 10 61 23v321zM356 297q0 -50 24 -86l159 280q-53 -17 -88 -36t-56 -42.5t-30 -51.5t-9 -64z" />
    <glyph glyph-name="atilde.2StorySItal" horiz-adv-x="1133" 
d="M717 0l-27 102q-53 -36 -111 -64q-51 -24 -114 -43.5t-131 -19.5q-56 0 -104.5 18.5t-85 53t-57.5 83.5t-21 110q0 46 7.5 85t30 72.5t64.5 64t111.5 59.5t170.5 58t242 60v25q0 15 1 27q0 14 1 28q1 29 -6 62.5t-28 62t-59 47t-99 18.5q-21 0 -37.5 -1t-27.5 -3
q-13 -2 -23 -4v-194h-211q-26 -2 -46 5q-17 6 -31.5 21t-14.5 47q0 57 40.5 102t106 76.5t147 48.5t162.5 17q88 0 161 -13t125.5 -50.5t81 -105.5t28.5 -179v-526q0 -19 13 -32.5t32 -15.5l90 -6v-96h-381zM690 528q-99 -20 -163.5 -41t-102.5 -48t-53 -61.5t-15 -80.5
q0 -32 10.5 -59.5t30 -48t46.5 -32.5t59 -12q33 0 66.5 7t60.5 15q32 10 61 23v338zM884 1452q-13 -53 -34 -99t-51 -80.5t-70.5 -54.5t-92.5 -20q-40 0 -70 15.5t-59.5 33.5t-62.5 33.5t-78 15.5q-34 0 -59.5 -28t-30.5 -70h-111q13 53 34 99t51 80.5t70 54.5t91 20
q40 0 71 -15t60.5 -33t62.5 -33t78 -15q16 0 31.5 7.5t27.5 20.5t20.5 30.5t10.5 37.5h111z" />
    <glyph glyph-name="uni1EA1.2StorySItal" horiz-adv-x="1133" 
d="M717 0l-27 102q-53 -36 -111 -64q-51 -24 -114 -43.5t-131 -19.5q-56 0 -104.5 18.5t-85 53t-57.5 83.5t-21 110q0 46 7.5 85t30 72.5t64.5 64t111.5 59.5t170.5 58t242 60v25q0 15 1 27q0 14 1 28q1 29 -6 62.5t-28 62t-59 47t-99 18.5q-21 0 -37.5 -1t-27.5 -3
q-13 -2 -23 -4v-194h-211q-26 -2 -46 5q-17 6 -31.5 21t-14.5 47q0 57 40.5 102t106 76.5t147 48.5t162.5 17q88 0 161 -13t125.5 -50.5t81 -105.5t28.5 -179v-526q0 -19 13 -32.5t32 -15.5l90 -6v-96h-381zM690 528q-99 -20 -163.5 -41t-102.5 -48t-53 -61.5t-15 -80.5
q0 -32 10.5 -59.5t30 -48t46.5 -32.5t59 -12q33 0 66.5 7t60.5 15q32 10 61 23v338zM664 -324q0 -28 -10.5 -53.5t-29.5 -44.5t-44.5 -30t-55.5 -11t-55.5 10.5t-44 29.5t-29 44t-10.5 55q0 31 10 58t28.5 47.5t44 32.5t56.5 12q29 0 54.5 -11.5t44.5 -32t30 -48t11 -58.5z
" />
    <glyph glyph-name="uniA733" unicode="&#xa733;" horiz-adv-x="1740" 
d="M1324 0l-27 102q-53 -36 -111 -64q-51 -24 -114 -43.5t-131 -19.5q-80 0 -139 37t-88 103q-19 -12 -59 -35.5t-92.5 -46.5t-112 -40.5t-116.5 -17.5q-56 0 -104.5 18.5t-85 53t-57.5 83.5t-21 110q0 46 7.5 85t30 72.5t64.5 64t111.5 59.5t170.5 58t242 60v25q0 15 1 27
q0 14 1 28q1 29 -6 62.5t-28 62t-59 47t-99 18.5q-21 0 -37.5 -1t-27.5 -3q-13 -2 -23 -4v-194h-211q-26 -2 -46 5q-17 6 -31.5 21t-14.5 47q0 57 40.5 102t106 76.5t147 48.5t162.5 17q90 0 162.5 -13.5t125.5 -51.5q69 32 153.5 48.5t165.5 16.5q88 0 161 -13t125.5 -50.5
t81 -105.5t28.5 -179v-526q0 -19 13 -32.5t32 -15.5l90 -6v-96h-381zM1297 528q-99 -20 -163.5 -41t-102.5 -48t-53 -61.5t-15 -80.5q0 -33 11 -61t30.5 -48t46 -31.5t58.5 -11.5q33 0 66.5 7t60.5 15q32 10 61 23v338zM690 528q-99 -20 -163.5 -41t-102.5 -48t-53 -61.5
t-15 -80.5q0 -32 10.5 -59.5t30 -48t46.5 -32.5t59 -12q33 0 66.5 7t60.5 15q32 10 61 23v338zM963 548q63 23 145.5 45t190.5 46v25q0 15 1 27q0 14 1 28q1 29 -6 62.5t-28 62t-59 47t-99 18.5q-27 0 -53 -4.5t-47 -9.5q-25 -6 -46 -14v-333z" />
    <glyph glyph-name="uniA735" unicode="&#xa735;" horiz-adv-x="1770" 
d="M1707 494q0 -115 -33.5 -210.5t-99.5 -164t-163.5 -106.5t-224.5 -38q-129 0 -227 42.5t-162 123.5q-29 -18 -79.5 -46.5t-113 -55t-132.5 -45.5t-138 -19q-56 0 -104.5 18.5t-85 53t-57.5 83.5t-21 110q0 46 7.5 85t30 72.5t64.5 64t111.5 59.5t170.5 58t242 60v25
q0 15 1 27q0 14 1 28q1 29 -6 62.5t-28 62t-59 47t-99 18.5q-21 0 -37.5 -1t-27.5 -3q-13 -2 -23 -4v-194h-211q-26 -2 -46 5q-17 6 -31.5 21t-14.5 47q0 57 40.5 102t106 76.5t147 48.5t162.5 17q103 0 183.5 -18t132.5 -72q63 45 142 67.5t175 22.5q127 0 222 -39
t158.5 -109.5t95 -167.5t31.5 -214zM1401 496q0 43 -2.5 90.5t-10 93.5t-21.5 87t-37 72t-57 49.5t-81 18.5q-69 0 -109.5 -38t-62 -97.5t-27.5 -130.5t-6 -137q0 -44 2 -92t9.5 -94t21 -87t36.5 -72.5t57 -50t81 -18.5q46 0 79.5 17.5t56.5 47t37 69.5t21.5 85.5t10 93
t2.5 93.5zM690 528q-99 -20 -163.5 -41t-102.5 -48t-53 -61.5t-15 -80.5q0 -32 10.5 -59.5t30 -48t46.5 -32.5t59 -12q33 0 66.5 7t60.5 15q32 10 61 23v338z" />
    <glyph glyph-name="uniA737" unicode="&#xa737;" horiz-adv-x="1756" 
d="M502 145q30 0 61.5 6t59 14t48 15.5t27.5 10.5q-5 27 -6.5 56.5t-1.5 61.5v219q-99 -20 -163.5 -41t-102.5 -48t-53 -61.5t-15 -80.5q0 -32 10.5 -59.5t30 -48t46.5 -32.5t59 -12zM1297 0v113q-52 -39 -106 -69q-23 -13 -48.5 -25.5t-52.5 -22t-54.5 -15.5t-52.5 -6
q-113 0 -175.5 37.5t-90.5 108.5l-27 -19q-53 -36 -111 -64q-51 -24 -114 -43.5t-131 -19.5q-56 0 -104.5 18.5t-85 53t-57.5 83.5t-21 110q0 46 7 85t29.5 72.5t64.5 64t111 59.5t170 58t242 60v80q0 30 -6.5 63t-26 61.5t-57 47t-98.5 18.5q-21 0 -37.5 -1t-27.5 -3
q-13 -2 -23 -4v-194h-211q-26 -2 -46 5q-17 6 -31.5 21t-14.5 47q0 57 40.5 102t106 76.5t147 48.5t162.5 17q88 0 161 -13t125.5 -50.5t81 -105.5t28.5 -179v-287q0 -38 3.5 -78t21 -73t54 -54.5t101.5 -21.5q32 0 60 5t49 12q25 8 45 18v641h-129v84l299 102h104v-874
q0 -19 14.5 -32.5t33.5 -15.5l90 -6v-96h-412z" />
    <glyph glyph-name="uniA739" unicode="&#xa739;" horiz-adv-x="1556" 
d="M1421 889l-352 -889h-352l-27 102q-53 -36 -111 -64q-51 -24 -114 -43.5t-131 -19.5q-56 0 -104.5 18.5t-85 53t-57.5 83.5t-21 110q0 46 7.5 85t30 72.5t64.5 64t111.5 59.5t170.5 58t242 60v25q0 15 1 27q0 14 1 28q1 29 -6 62.5t-28 62t-59 47t-99 18.5
q-21 0 -37.5 -1t-27.5 -3q-13 -2 -23 -4v-194h-211q-26 -2 -46 5q-17 6 -31.5 21t-14.5 47q0 57 40.5 102t106 76.5t147 48.5t162.5 17q88 0 161 -13t125.5 -50.5t81 -105.5t28.5 -179v-570l294 746q6 15 -4 29t-27 16l-86 6v96h398v-96zM690 528q-99 -20 -163.5 -41
t-102.5 -48t-53 -61.5t-15 -80.5q0 -32 10.5 -59.5t30 -48t46.5 -32.5t59 -12q33 0 66.5 7t60.5 15q32 10 61 23v338z" />
    <glyph glyph-name="uniA73B" unicode="&#xa73b;" horiz-adv-x="1576" 
d="M1270 508l-201 -508h-352l-27 102q-53 -36 -111 -64q-51 -24 -114 -43.5t-131 -19.5q-56 0 -104.5 18.5t-85 53t-57.5 83.5t-21 110q0 46 7.5 85t30 72.5t64.5 64t111.5 59.5t170.5 58t242 60v25q0 15 1 27q0 14 1 28q1 29 -6 62.5t-28 62t-59 47t-99 18.5
q-21 0 -37.5 -1t-27.5 -3q-13 -2 -23 -4v-194h-211q-26 -2 -46 5q-17 6 -31.5 21t-14.5 47q0 57 40.5 102t106 76.5t147 48.5t162.5 17q88 0 161 -13t125.5 -50.5t81 -105.5t28.5 -179v-37h210l84 213q6 15 -4 29t-27 16l-86 6v96h398v-96l-117 -14l-99 -250h196v-131h-248z
M690 528q-99 -20 -163.5 -41t-102.5 -48t-53 -61.5t-15 -80.5q0 -32 10.5 -59.5t30 -48t46.5 -32.5t59 -12q33 0 66.5 7t60.5 15q32 10 61 23v338zM963 508v-402l158 402h-158z" />
    <glyph glyph-name="uniA73D" unicode="&#xa73d;" horiz-adv-x="1672" 
d="M1545 889l-354 -869q-19 -46 -42 -100t-51.5 -108.5t-62.5 -105t-76 -89.5q-43 -42 -93.5 -66t-110.5 -24q-30 0 -62.5 11.5t-59 33t-43.5 52t-16 67.5q0 28 10.5 51.5t27 42.5t38 33t43.5 24l174 -133q28 26 51.5 62.5t42.5 75t33.5 74.5t24.5 61l7 18h-309l-27 102
q-53 -36 -111 -64q-51 -24 -114 -43.5t-131 -19.5q-56 0 -104.5 18.5t-85 53t-57.5 83.5t-21 110q0 46 7.5 85t30 72.5t64.5 64t111.5 59.5t170.5 58t242 60v25q0 15 1 27q0 14 1 28q1 29 -6 62.5t-28 62t-59 47t-99 18.5q-21 0 -37.5 -1t-27.5 -3q-13 -2 -23 -4v-194h-211
q-26 -2 -46 5q-17 6 -31.5 21t-14.5 47q0 57 40.5 102t106 76.5t147 48.5t162.5 17q88 0 161 -13t125.5 -50.5t81 -105.5t28.5 -179v-526q0 -19 13 -32.5t32 -15.5l58 -4l309 754q6 15 -4 29t-27 16l-90 6v96h400v-96zM690 528q-99 -20 -163.5 -41t-102.5 -48t-53 -61.5
t-15 -80.5q0 -32 10.5 -59.5t30 -48t46.5 -32.5t59 -12q33 0 66.5 7t60.5 15q32 10 61 23v338z" />
    <glyph glyph-name="uni0250" unicode="&#x250;" horiz-adv-x="1133" 
d="M776 702q0 31 -10.5 59t-29.5 48.5t-45.5 32.5t-57.5 12q-33 0 -67 -7.5t-62 -15.5q-33 -10 -62 -22v-340q100 21 165 42.5t102.5 48.5t52 61.5t14.5 80.5zM1067 760q0 -46 -7 -85t-29.5 -73.5t-64.5 -65t-112 -60t-171.5 -58.5t-242.5 -60q0 -11 -0.5 -24t-0.5 -25
q-1 -14 -1 -28q-1 -29 6 -63t28.5 -63t60 -48t100.5 -19q20 0 36.5 1t27.5 3q13 2 24 4v197h211q26 1 46 -6q17 -6 31.5 -22t14.5 -48q0 -56 -41 -100.5t-107 -76t-148 -48.5t-163 -17q-88 0 -161 13t-125 51t-80.5 106t-28.5 179v526q0 18 -13 31.5t-32 15.5l-90 6v96h383
l24 -102q52 35 111 63q51 24 115 44t133 20q55 0 103.5 -18.5t84.5 -53t57 -83t21 -109.5z" />
    <glyph glyph-name="uni0250.2StorySItal" horiz-adv-x="1133" 
d="M776 702q0 31 -10.5 59t-29.5 48.5t-45.5 32.5t-57.5 12q-33 0 -67 -7.5t-62 -15.5q-33 -10 -62 -22v-340q100 21 165 42.5t102.5 48.5t52 61.5t14.5 80.5zM1067 760q0 -46 -7 -85t-29.5 -73.5t-64.5 -65t-112 -60t-171.5 -58.5t-242.5 -60q0 -11 -0.5 -24t-0.5 -25
q-1 -14 -1 -28q-1 -29 6 -63t28.5 -63t60 -48t100.5 -19q20 0 36.5 1t27.5 3q13 2 24 4v197h211q26 1 46 -6q17 -6 31.5 -22t14.5 -48q0 -56 -41 -100.5t-107 -76t-148 -48.5t-163 -17q-88 0 -161 13t-125 51t-80.5 106t-28.5 179v526q0 18 -13 31.5t-32 15.5l-90 6v96h383
l24 -102q52 35 111 63q51 24 115 44t133 20q55 0 103.5 -18.5t84.5 -53t57 -83t21 -109.5z" />
    <glyph glyph-name="uni1D44" unicode="&#x1d44;" horiz-adv-x="736" 
d="M694 1241q0 -28 -5 -51t-19.5 -44t-41.5 -39t-72.5 -36t-111.5 -35.5t-158 -35.5q0 -7 -0.5 -14.5t-0.5 -15.5v-16q-1 -18 3.5 -38.5t18.5 -37.5t39 -28.5t65 -11.5q13 0 24 0.5t18 1.5q8 1 16 3v118h137q17 0 30 -4q11 -3 20.5 -13t9.5 -29q0 -33 -27 -60t-70 -46
t-96 -29t-106 -10q-57 0 -104.5 8t-81 30.5t-52.5 63.5t-19 107v316q0 11 -8 19t-21 9l-58 4v57h249l15 -61q34 21 72 38q34 14 75.5 26t86.5 12q35 0 66.5 -11t55 -31.5t37.5 -49.5t14 -66zM504 1206q0 19 -6.5 35.5t-19 29t-29.5 19.5t-38 7t-43 -4.5t-40 -8.5
q-22 -6 -41 -14v-204q65 13 107.5 26t67 29t33.5 37t9 48z" />
    <glyph glyph-name="uni0251" unicode="&#x251;" horiz-adv-x="1243" 
d="M788 797q-11 18 -32 36.5t-46.5 33.5t-52.5 24.5t-49 9.5q-72 0 -119.5 -30.5t-75.5 -83t-39.5 -122.5t-11.5 -149q0 -81 16.5 -146t50 -111.5t83.5 -71.5t117 -25q27 0 55.5 6t51.5 14q27 9 52 21v594zM788 0v119q-50 -40 -105 -72q-47 -27 -103.5 -49.5t-112.5 -22.5
q-94 0 -168.5 36.5t-126 102t-79 156.5t-27.5 199q0 132 37 235t103 174.5t157.5 108.5t199.5 37q57 0 120.5 -25.5t117.5 -70.5l147 96h113v-874q0 -20 12.5 -33t32.5 -15l86 -6v-96h-404z" />
    <glyph glyph-name="uni2C65.2StorySItal" horiz-adv-x="1133" 
d="M1032 1113l-121 -213q25 -39 38.5 -94t13.5 -130v-526q0 -19 13 -32.5t32 -15.5l90 -6v-96h-381l-27 102q-43 -29 -92 -54q-42 -21 -96.5 -41t-114.5 -28l-89 -157l-104 61l58 103q-41 11 -75 34t-58.5 55.5t-38.5 74t-14 90.5q0 44 6.5 81t26.5 69.5t57 62t97.5 57
t149 55t210.5 56.5l79 139q-4 27 -15 53.5t-32.5 47.5t-56.5 34.5t-86 13.5q-21 0 -37.5 -1t-27.5 -3q-13 -2 -23 -4v-194h-211q-26 -2 -46 5q-17 6 -31.5 21t-14.5 47q0 57 40.5 102t106 76.5t147 48.5t162.5 17q75 0 138 -9t113 -33l108 190zM690 511l-208 -365
q5 -1 10 -1h10q33 0 66.5 7t60.5 15q32 10 61 23v321zM356 297q0 -50 24 -86l159 280q-53 -17 -88 -36t-56 -42.5t-30 -51.5t-9 -64z" />
    <glyph glyph-name="a.SngStory" horiz-adv-x="1243" 
d="M788 797q-11 18 -32 36.5t-46.5 33.5t-52.5 24.5t-49 9.5q-72 0 -119.5 -30.5t-75.5 -83t-39.5 -122.5t-11.5 -149q0 -81 16.5 -146t50 -111.5t83.5 -71.5t117 -25q27 0 55.5 6t51.5 14q27 9 52 21v594zM788 0v119q-50 -40 -105 -72q-47 -27 -103.5 -49.5t-112.5 -22.5
q-94 0 -168.5 36.5t-126 102t-79 156.5t-27.5 199q0 132 37 235t103 174.5t157.5 108.5t199.5 37q57 0 120.5 -25.5t117.5 -70.5l147 96h113v-874q0 -20 12.5 -33t32.5 -15l86 -6v-96h-404z" />
    <glyph glyph-name="aacute.SngStory" horiz-adv-x="1243" 
d="M788 797q-11 18 -32 36.5t-46.5 33.5t-52.5 24.5t-49 9.5q-72 0 -119.5 -30.5t-75.5 -83t-39.5 -122.5t-11.5 -149q0 -81 16.5 -146t50 -111.5t83.5 -71.5t117 -25q27 0 55.5 6t51.5 14q27 9 52 21v594zM788 0v119q-50 -40 -105 -72q-47 -27 -103.5 -49.5t-112.5 -22.5
q-94 0 -168.5 36.5t-126 102t-79 156.5t-27.5 199q0 132 37 235t103 174.5t157.5 108.5t199.5 37q57 0 120.5 -25.5t117.5 -70.5l147 96h113v-874q0 -20 12.5 -33t32.5 -15l86 -6v-96h-404zM959 1395q0 -10 -4.5 -22.5t-11.5 -24.5t-17 -22.5t-20 -16.5l-332 -181h-143
l280 310q18 19 32.5 31.5t29 20t30.5 10.5t37 3q33 0 55.5 -10t37 -25.5t20.5 -35t6 -37.5z" />
    <glyph glyph-name="agrave.SngStory" horiz-adv-x="1243" 
d="M788 797q-11 18 -32 36.5t-46.5 33.5t-52.5 24.5t-49 9.5q-72 0 -119.5 -30.5t-75.5 -83t-39.5 -122.5t-11.5 -149q0 -81 16.5 -146t50 -111.5t83.5 -71.5t117 -25q27 0 55.5 6t51.5 14q27 9 52 21v594zM788 0v119q-50 -40 -105 -72q-47 -27 -103.5 -49.5t-112.5 -22.5
q-94 0 -168.5 36.5t-126 102t-79 156.5t-27.5 199q0 132 37 235t103 174.5t157.5 108.5t199.5 37q57 0 120.5 -25.5t117.5 -70.5l147 96h113v-874q0 -20 12.5 -33t32.5 -15l86 -6v-96h-404zM687 1128l-332 181q-11 6 -20 16.5t-16 22.5t-11 24.5t-4 22.5q0 18 6 37.5
t19.5 35t36 25.5t55.5 10q21 0 37 -3t30.5 -10.5t29 -20t32.5 -31.5l280 -310h-143z" />
    <glyph glyph-name="uni0201.SngStory" horiz-adv-x="1243" 
d="M788 797q-11 18 -32 36.5t-46.5 33.5t-52.5 24.5t-49 9.5q-72 0 -119.5 -30.5t-75.5 -83t-39.5 -122.5t-11.5 -149q0 -81 16.5 -146t50 -111.5t83.5 -71.5t117 -25q27 0 55.5 6t51.5 14q27 9 52 21v594zM788 0v119q-50 -40 -105 -72q-47 -27 -103.5 -49.5t-112.5 -22.5
q-94 0 -168.5 36.5t-126 102t-79 156.5t-27.5 199q0 132 37 235t103 174.5t157.5 108.5t199.5 37q57 0 120.5 -25.5t117.5 -70.5l147 96h113v-874q0 -20 12.5 -33t32.5 -15l86 -6v-96h-404zM442 1128l-332 181q-11 6 -20.5 16.5t-16.5 22.5t-11.5 24.5t-4.5 22.5
q0 18 6 37.5t19.5 35t36 25.5t55.5 10q21 0 37 -3t31 -10.5t30 -20t33 -31.5l278 -310h-141zM880 1128l-329 181q-12 6 -21.5 16.5t-17 22.5t-11.5 24.5t-4 22.5q0 18 6 37.5t19.5 35t36 25.5t55.5 10q21 0 37 -3t31 -10.5t29.5 -20t31.5 -31.5l281 -310h-144z" />
    <glyph glyph-name="acircumflex.SngStory" horiz-adv-x="1243" 
d="M788 797q-11 18 -32 36.5t-46.5 33.5t-52.5 24.5t-49 9.5q-72 0 -119.5 -30.5t-75.5 -83t-39.5 -122.5t-11.5 -149q0 -81 16.5 -146t50 -111.5t83.5 -71.5t117 -25q27 0 55.5 6t51.5 14q27 9 52 21v594zM788 0v119q-50 -40 -105 -72q-47 -27 -103.5 -49.5t-112.5 -22.5
q-94 0 -168.5 36.5t-126 102t-79 156.5t-27.5 199q0 132 37 235t103 174.5t157.5 108.5t199.5 37q57 0 120.5 -25.5t117.5 -70.5l147 96h113v-874q0 -20 12.5 -33t32.5 -15l86 -6v-96h-404zM807 1128l-178 195l-178 -195h-170l227 351h242l227 -351h-170z" />
    <glyph glyph-name="uni1EAD.SngStory" horiz-adv-x="1243" 
d="M788 797q-11 18 -32 36.5t-46.5 33.5t-52.5 24.5t-49 9.5q-72 0 -119.5 -30.5t-75.5 -83t-39.5 -122.5t-11.5 -149q0 -81 16.5 -146t50 -111.5t83.5 -71.5t117 -25q27 0 55.5 6t51.5 14q27 9 52 21v594zM788 0v119q-50 -40 -105 -72q-47 -27 -103.5 -49.5t-112.5 -22.5
q-94 0 -168.5 36.5t-126 102t-79 156.5t-27.5 199q0 132 37 235t103 174.5t157.5 108.5t199.5 37q57 0 120.5 -25.5t117.5 -70.5l147 96h113v-874q0 -20 12.5 -33t32.5 -15l86 -6v-96h-404zM769 -324q0 -28 -10.5 -53.5t-29.5 -44.5t-44.5 -30t-55.5 -11t-55.5 10.5
t-44 29.5t-29 44t-10.5 55q0 31 10 58t28.5 47.5t44 32.5t56.5 12q29 0 54.5 -11.5t44.5 -32t30 -48t11 -58.5zM807 1128l-178 195l-178 -195h-170l227 351h242l227 -351h-170z" />
    <glyph glyph-name="uni1EA5.SngStory" horiz-adv-x="1243" 
d="M788 797q-11 18 -32 36.5t-46.5 33.5t-52.5 24.5t-49 9.5q-72 0 -119.5 -30.5t-75.5 -83t-39.5 -122.5t-11.5 -149q0 -81 16.5 -146t50 -111.5t83.5 -71.5t117 -25q27 0 55.5 6t51.5 14q27 9 52 21v594zM788 0v119q-50 -40 -105 -72q-47 -27 -103.5 -49.5t-112.5 -22.5
q-94 0 -168.5 36.5t-126 102t-79 156.5t-27.5 199q0 132 37 235t103 174.5t157.5 108.5t199.5 37q57 0 120.5 -25.5t117.5 -70.5l147 96h113v-874q0 -20 12.5 -33t32.5 -15l86 -6v-96h-404zM807 1128l-178 195l-178 -195h-170l227 351h242l227 -351h-170zM959 1795
q0 -10 -4.5 -22.5t-11.5 -24.5t-17 -22.5t-20 -16.5l-332 -181h-143l280 310q18 19 32.5 31.5t29 20t30.5 10.5t37 3q33 0 55.5 -10t37 -25.5t20.5 -35t6 -37.5z" />
    <glyph glyph-name="uni1EA5.SngStory.VN" horiz-adv-x="1243" 
d="M788 797q-11 18 -32 36.5t-46.5 33.5t-52.5 24.5t-49 9.5q-72 0 -119.5 -30.5t-75.5 -83t-39.5 -122.5t-11.5 -149q0 -81 16.5 -146t50 -111.5t83.5 -71.5t117 -25q27 0 55.5 6t51.5 14q27 9 52 21v594zM788 0v119q-50 -40 -105 -72q-47 -27 -103.5 -49.5t-112.5 -22.5
q-94 0 -168.5 36.5t-126 102t-79 156.5t-27.5 199q0 132 37 235t103 174.5t157.5 108.5t199.5 37q57 0 120.5 -25.5t117.5 -70.5l147 96h113v-874q0 -20 12.5 -33t32.5 -15l86 -6v-96h-404zM798 1128l-179 195l-178 -195h-170l228 351h241l227 -351h-169zM1148 1593
q0 -15 -6.5 -32t-20.5 -29l-207 -201l-41 60l88 202q16 32 46 50t61 18q15 0 29 -5.5t25.5 -15t18.5 -22t7 -25.5z" />
    <glyph glyph-name="uni1EA7.SngStory" horiz-adv-x="1243" 
d="M788 797q-11 18 -32 36.5t-46.5 33.5t-52.5 24.5t-49 9.5q-72 0 -119.5 -30.5t-75.5 -83t-39.5 -122.5t-11.5 -149q0 -81 16.5 -146t50 -111.5t83.5 -71.5t117 -25q27 0 55.5 6t51.5 14q27 9 52 21v594zM788 0v119q-50 -40 -105 -72q-47 -27 -103.5 -49.5t-112.5 -22.5
q-94 0 -168.5 36.5t-126 102t-79 156.5t-27.5 199q0 132 37 235t103 174.5t157.5 108.5t199.5 37q57 0 120.5 -25.5t117.5 -70.5l147 96h113v-874q0 -20 12.5 -33t32.5 -15l86 -6v-96h-404zM807 1128l-178 195l-178 -195h-170l227 351h242l227 -351h-170zM687 1528l-332 181
q-11 6 -20 16.5t-16 22.5t-11 24.5t-4 22.5q0 18 6 37.5t19.5 35t36 25.5t55.5 10q21 0 37 -3t30.5 -10.5t29 -20t32.5 -31.5l280 -310h-143z" />
    <glyph glyph-name="uni1EA7.SngStory.VN" horiz-adv-x="1243" 
d="M788 797q-11 18 -32 36.5t-46.5 33.5t-52.5 24.5t-49 9.5q-72 0 -119.5 -30.5t-75.5 -83t-39.5 -122.5t-11.5 -149q0 -81 16.5 -146t50 -111.5t83.5 -71.5t117 -25q27 0 55.5 6t51.5 14q27 9 52 21v594zM788 0v119q-50 -40 -105 -72q-47 -27 -103.5 -49.5t-112.5 -22.5
q-94 0 -168.5 36.5t-126 102t-79 156.5t-27.5 199q0 132 37 235t103 174.5t157.5 108.5t199.5 37q57 0 120.5 -25.5t117.5 -70.5l147 96h113v-874q0 -20 12.5 -33t32.5 -15l86 -6v-96h-404zM345 1331l-206 201q-14 12 -20.5 29t-6.5 32q0 13 7 25.5t18.5 22t25.5 15t29 5.5
q31 0 60.5 -18t43.5 -50l90 -202zM817 1128l-177 195l-178 -195h-172l230 351h241l228 -351h-172z" />
    <glyph glyph-name="uni1EAB.SngStory" horiz-adv-x="1243" 
d="M788 797q-11 18 -32 36.5t-46.5 33.5t-52.5 24.5t-49 9.5q-72 0 -119.5 -30.5t-75.5 -83t-39.5 -122.5t-11.5 -149q0 -81 16.5 -146t50 -111.5t83.5 -71.5t117 -25q27 0 55.5 6t51.5 14q27 9 52 21v594zM788 0v119q-50 -40 -105 -72q-47 -27 -103.5 -49.5t-112.5 -22.5
q-94 0 -168.5 36.5t-126 102t-79 156.5t-27.5 199q0 132 37 235t103 174.5t157.5 108.5t199.5 37q57 0 120.5 -25.5t117.5 -70.5l147 96h113v-874q0 -20 12.5 -33t32.5 -15l86 -6v-96h-404zM807 1128l-178 195l-178 -195h-170l227 351h242l227 -351h-170zM989 1852
q-13 -53 -34 -99t-51 -80.5t-70.5 -54.5t-92.5 -20q-40 0 -70 15.5t-59.5 33.5t-62.5 33.5t-78 15.5q-34 0 -59.5 -28t-30.5 -70h-111q13 53 34 99t51 80.5t70 54.5t91 20q40 0 71 -15t60.5 -33t62.5 -33t78 -15q16 0 31.5 7.5t27.5 20.5t20.5 30.5t10.5 37.5h111z" />
    <glyph glyph-name="uni1EAB.SngStory.VN" horiz-adv-x="1243" 
d="M788 797q-11 18 -32 36.5t-46.5 33.5t-52.5 24.5t-49 9.5q-72 0 -119.5 -30.5t-75.5 -83t-39.5 -122.5t-11.5 -149q0 -81 16.5 -146t50 -111.5t83.5 -71.5t117 -25q27 0 55.5 6t51.5 14q27 9 52 21v594zM788 0v119q-50 -40 -105 -72q-47 -27 -103.5 -49.5t-112.5 -22.5
q-94 0 -168.5 36.5t-126 102t-79 156.5t-27.5 199q0 132 37 235t103 174.5t157.5 108.5t199.5 37q57 0 120.5 -25.5t117.5 -70.5l147 96h113v-874q0 -20 12.5 -33t32.5 -15l86 -6v-96h-404zM806 1128l-179 195l-176 -195h-172l228 351h241l230 -351h-172zM988 1795
q-13 -54 -34 -100.5t-51 -81t-70.5 -54.5t-92.5 -20q-40 0 -70 15.5t-59.5 33.5t-62.5 33.5t-78 15.5q-34 0 -59.5 -28t-30.5 -70h-111q13 53 34 99.5t51 81.5t70 55t91 20q40 0 71 -15.5t60.5 -33.5t62.5 -33.5t78 -15.5q16 0 31.5 7.5t27.5 21t20.5 31t10.5 38.5h111z" />
    <glyph glyph-name="uni1EA9.SngStory" horiz-adv-x="1243" 
d="M788 797q-11 18 -32 36.5t-46.5 33.5t-52.5 24.5t-49 9.5q-72 0 -119.5 -30.5t-75.5 -83t-39.5 -122.5t-11.5 -149q0 -81 16.5 -146t50 -111.5t83.5 -71.5t117 -25q27 0 55.5 6t51.5 14q27 9 52 21v594zM788 0v119q-50 -40 -105 -72q-47 -27 -103.5 -49.5t-112.5 -22.5
q-94 0 -168.5 36.5t-126 102t-79 156.5t-27.5 199q0 132 37 235t103 174.5t157.5 108.5t199.5 37q57 0 120.5 -25.5t117.5 -70.5l147 96h113v-874q0 -20 12.5 -33t32.5 -15l86 -6v-96h-404zM807 1128l-178 195l-178 -195h-170l227 351h242l227 -351h-170zM795 1811
q0 -37 -17.5 -64t-42 -46.5t-51.5 -32.5t-45 -21v-119h-63v160q23 6 43.5 15.5t36.5 23.5t25 33t9 45q0 23 -5.5 42.5t-14.5 33.5t-20 22t-23 8q-28 0 -39 -16l-25 -78l-14 -6q-6 -2 -14.5 -4t-16.5 -2q-16 0 -26.5 6t-17 14.5t-9 19t-2.5 19.5q0 16 12 34.5t33.5 34
t51.5 26t65 10.5q39 0 70.5 -12.5t53.5 -33.5t34 -50t12 -62z" />
    <glyph glyph-name="uni1EA9.SngStory.VN" horiz-adv-x="1243" 
d="M788 797q-11 18 -32 36.5t-46.5 33.5t-52.5 24.5t-49 9.5q-72 0 -119.5 -30.5t-75.5 -83t-39.5 -122.5t-11.5 -149q0 -81 16.5 -146t50 -111.5t83.5 -71.5t117 -25q27 0 55.5 6t51.5 14q27 9 52 21v594zM788 0v119q-50 -40 -105 -72q-47 -27 -103.5 -49.5t-112.5 -22.5
q-94 0 -168.5 36.5t-126 102t-79 156.5t-27.5 199q0 132 37 235t103 174.5t157.5 108.5t199.5 37q57 0 120.5 -25.5t117.5 -70.5l147 96h113v-874q0 -20 12.5 -33t32.5 -15l86 -6v-96h-404zM800 1128l-176 195l-178 -195h-172l227 351h244l225 -351h-170zM1091 1616
q0 -45 -20.5 -76t-47.5 -51t-53.5 -30.5t-38.5 -14.5v-86h-65v137q3 1 20 6t36.5 18.5t35.5 36.5t16 60q0 15 -3.5 30t-11 27t-18.5 19.5t-26 7.5q-8 0 -13.5 -0.5t-11.5 -3.5l-24 -64q-7 -3 -13 -5q-13 -5 -26 -5q-6 0 -14.5 2t-16 7t-13 14t-5.5 24q0 28 13.5 46t34 27.5
t44.5 13t45 3.5q35 0 67 -9t56 -27t38.5 -45t14.5 -62z" />
    <glyph glyph-name="uni0203.SngStory" horiz-adv-x="1243" 
d="M788 797q-11 18 -32 36.5t-46.5 33.5t-52.5 24.5t-49 9.5q-72 0 -119.5 -30.5t-75.5 -83t-39.5 -122.5t-11.5 -149q0 -81 16.5 -146t50 -111.5t83.5 -71.5t117 -25q27 0 55.5 6t51.5 14q27 9 52 21v594zM788 0v119q-50 -40 -105 -72q-47 -27 -103.5 -49.5t-112.5 -22.5
q-94 0 -168.5 36.5t-126 102t-79 156.5t-27.5 199q0 132 37 235t103 174.5t157.5 108.5t199.5 37q57 0 120.5 -25.5t117.5 -70.5l147 96h113v-874q0 -20 12.5 -33t32.5 -15l86 -6v-96h-404zM841 1128q-10 46 -31.5 78t-50 51.5t-62.5 28t-69 8.5q-34 0 -67.5 -8.5t-62.5 -28
t-51 -51.5t-32 -78h-106q0 69 19.5 130t59.5 106.5t99.5 71.5t140.5 26t141.5 -26t100.5 -71.5t60 -106.5t20 -130h-109z" />
    <glyph glyph-name="abreve.SngStory" horiz-adv-x="1243" 
d="M788 797q-11 18 -32 36.5t-46.5 33.5t-52.5 24.5t-49 9.5q-72 0 -119.5 -30.5t-75.5 -83t-39.5 -122.5t-11.5 -149q0 -81 16.5 -146t50 -111.5t83.5 -71.5t117 -25q27 0 55.5 6t51.5 14q27 9 52 21v594zM788 0v119q-50 -40 -105 -72q-47 -27 -103.5 -49.5t-112.5 -22.5
q-94 0 -168.5 36.5t-126 102t-79 156.5t-27.5 199q0 132 37 235t103 174.5t157.5 108.5t199.5 37q57 0 120.5 -25.5t117.5 -70.5l147 96h113v-874q0 -20 12.5 -33t32.5 -15l86 -6v-96h-404zM950 1462q0 -69 -20 -130t-60 -106t-100.5 -71.5t-141.5 -26.5t-140.5 26.5
t-99.5 71.5t-59.5 106t-19.5 130h106q10 -46 32 -78t51 -52t62.5 -29t67.5 -9q35 0 69 9t62.5 29t50 52t31.5 78h109z" />
    <glyph glyph-name="uni1EB7.SngStory" horiz-adv-x="1243" 
d="M788 797q-11 18 -32 36.5t-46.5 33.5t-52.5 24.5t-49 9.5q-72 0 -119.5 -30.5t-75.5 -83t-39.5 -122.5t-11.5 -149q0 -81 16.5 -146t50 -111.5t83.5 -71.5t117 -25q27 0 55.5 6t51.5 14q27 9 52 21v594zM788 0v119q-50 -40 -105 -72q-47 -27 -103.5 -49.5t-112.5 -22.5
q-94 0 -168.5 36.5t-126 102t-79 156.5t-27.5 199q0 132 37 235t103 174.5t157.5 108.5t199.5 37q57 0 120.5 -25.5t117.5 -70.5l147 96h113v-874q0 -20 12.5 -33t32.5 -15l86 -6v-96h-404zM769 -324q0 -28 -10.5 -53.5t-29.5 -44.5t-44.5 -30t-55.5 -11t-55.5 10.5
t-44 29.5t-29 44t-10.5 55q0 31 10 58t28.5 47.5t44 32.5t56.5 12q29 0 54.5 -11.5t44.5 -32t30 -48t11 -58.5zM950 1462q0 -69 -20 -130t-60 -106t-100.5 -71.5t-141.5 -26.5t-140.5 26.5t-99.5 71.5t-59.5 106t-19.5 130h106q10 -46 32 -78t51 -52t62.5 -29t67.5 -9
q35 0 69 9t62.5 29t50 52t31.5 78h109z" />
    <glyph glyph-name="uni1EAF.SngStory" horiz-adv-x="1243" 
d="M788 797q-11 18 -32 36.5t-46.5 33.5t-52.5 24.5t-49 9.5q-72 0 -119.5 -30.5t-75.5 -83t-39.5 -122.5t-11.5 -149q0 -81 16.5 -146t50 -111.5t83.5 -71.5t117 -25q27 0 55.5 6t51.5 14q27 9 52 21v594zM788 0v119q-50 -40 -105 -72q-47 -27 -103.5 -49.5t-112.5 -22.5
q-94 0 -168.5 36.5t-126 102t-79 156.5t-27.5 199q0 132 37 235t103 174.5t157.5 108.5t199.5 37q57 0 120.5 -25.5t117.5 -70.5l147 96h113v-874q0 -20 12.5 -33t32.5 -15l86 -6v-96h-404zM950 1462q0 -69 -20 -130t-60 -106t-100.5 -71.5t-141.5 -26.5t-140.5 26.5
t-99.5 71.5t-59.5 106t-19.5 130h106q10 -46 32 -78t51 -52t62.5 -29t67.5 -9q35 0 69 9t62.5 29t50 52t31.5 78h109zM959 1795q0 -10 -4.5 -22.5t-11.5 -24.5t-17 -22.5t-20 -16.5l-332 -181h-143l280 310q18 19 32.5 31.5t29 20t30.5 10.5t37 3q33 0 55.5 -10t37 -25.5
t20.5 -35t6 -37.5z" />
    <glyph glyph-name="uni1EAF.SngStory.VN" horiz-adv-x="1243" 
d="M788 797q-11 18 -32 36.5t-46.5 33.5t-52.5 24.5t-49 9.5q-72 0 -119.5 -30.5t-75.5 -83t-39.5 -122.5t-11.5 -149q0 -81 16.5 -146t50 -111.5t83.5 -71.5t117 -25q27 0 55.5 6t51.5 14q27 9 52 21v594zM788 0v119q-50 -40 -105 -72q-47 -27 -103.5 -49.5t-112.5 -22.5
q-94 0 -168.5 36.5t-126 102t-79 156.5t-27.5 199q0 132 37 235t103 174.5t157.5 108.5t199.5 37q57 0 120.5 -25.5t117.5 -70.5l147 96h113v-874q0 -20 12.5 -33t32.5 -15l86 -6v-96h-404zM950 1462q0 -69 -20 -130t-60 -106t-100.5 -71.5t-141.5 -26.5t-140.5 26.5
t-99.5 71.5t-59.5 106t-19.5 130h106q10 -46 32 -78t51 -52t62.5 -29t67.5 -9q35 0 69 9t62.5 29t50 52t31.5 78h109zM1078 1685q0 -10 -4.5 -22.5t-11.5 -24.5t-17 -22.5t-20 -16.5l-332 -181h-143l280 310q18 19 32.5 31.5t29 20t30.5 10.5t37 3q33 0 55.5 -10t37 -25.5
t20.5 -35t6 -37.5z" />
    <glyph glyph-name="uni1EB1.SngStory" horiz-adv-x="1243" 
d="M788 797q-11 18 -32 36.5t-46.5 33.5t-52.5 24.5t-49 9.5q-72 0 -119.5 -30.5t-75.5 -83t-39.5 -122.5t-11.5 -149q0 -81 16.5 -146t50 -111.5t83.5 -71.5t117 -25q27 0 55.5 6t51.5 14q27 9 52 21v594zM788 0v119q-50 -40 -105 -72q-47 -27 -103.5 -49.5t-112.5 -22.5
q-94 0 -168.5 36.5t-126 102t-79 156.5t-27.5 199q0 132 37 235t103 174.5t157.5 108.5t199.5 37q57 0 120.5 -25.5t117.5 -70.5l147 96h113v-874q0 -20 12.5 -33t32.5 -15l86 -6v-96h-404zM950 1462q0 -69 -20 -130t-60 -106t-100.5 -71.5t-141.5 -26.5t-140.5 26.5
t-99.5 71.5t-59.5 106t-19.5 130h106q10 -46 32 -78t51 -52t62.5 -29t67.5 -9q35 0 69 9t62.5 29t50 52t31.5 78h109zM687 1528l-332 181q-11 6 -20 16.5t-16 22.5t-11 24.5t-4 22.5q0 18 6 37.5t19.5 35t36 25.5t55.5 10q21 0 37 -3t30.5 -10.5t29 -20t32.5 -31.5l280 -310
h-143z" />
    <glyph glyph-name="uni1EB1.SngStory.VN" horiz-adv-x="1243" 
d="M788 797q-11 18 -32 36.5t-46.5 33.5t-52.5 24.5t-49 9.5q-72 0 -119.5 -30.5t-75.5 -83t-39.5 -122.5t-11.5 -149q0 -81 16.5 -146t50 -111.5t83.5 -71.5t117 -25q27 0 55.5 6t51.5 14q27 9 52 21v594zM788 0v119q-50 -40 -105 -72q-47 -27 -103.5 -49.5t-112.5 -22.5
q-94 0 -168.5 36.5t-126 102t-79 156.5t-27.5 199q0 132 37 235t103 174.5t157.5 108.5t199.5 37q57 0 120.5 -25.5t117.5 -70.5l147 96h113v-874q0 -20 12.5 -33t32.5 -15l86 -6v-96h-404zM950 1462q0 -69 -20 -130t-60 -106t-100.5 -71.5t-141.5 -26.5t-140.5 26.5
t-99.5 71.5t-59.5 106t-19.5 130h106q10 -46 32 -78t51 -52t62.5 -29t67.5 -9q35 0 69 9t62.5 29t50 52t31.5 78h109zM571 1418l-332 181q-11 6 -20 16.5t-16 22.5t-11 24.5t-4 22.5q0 18 6 37.5t19.5 35t36 25.5t55.5 10q21 0 37 -3t30.5 -10.5t29 -20t32.5 -31.5l280 -310
h-143z" />
    <glyph glyph-name="uni1EB5.SngStory" horiz-adv-x="1243" 
d="M788 797q-11 18 -32 36.5t-46.5 33.5t-52.5 24.5t-49 9.5q-72 0 -119.5 -30.5t-75.5 -83t-39.5 -122.5t-11.5 -149q0 -81 16.5 -146t50 -111.5t83.5 -71.5t117 -25q27 0 55.5 6t51.5 14q27 9 52 21v594zM788 0v119q-50 -40 -105 -72q-47 -27 -103.5 -49.5t-112.5 -22.5
q-94 0 -168.5 36.5t-126 102t-79 156.5t-27.5 199q0 132 37 235t103 174.5t157.5 108.5t199.5 37q57 0 120.5 -25.5t117.5 -70.5l147 96h113v-874q0 -20 12.5 -33t32.5 -15l86 -6v-96h-404zM950 1462q0 -69 -20 -130t-60 -106t-100.5 -71.5t-141.5 -26.5t-140.5 26.5
t-99.5 71.5t-59.5 106t-19.5 130h106q10 -46 32 -78t51 -52t62.5 -29t67.5 -9q35 0 69 9t62.5 29t50 52t31.5 78h109zM989 1852q-13 -53 -34 -99t-51 -80.5t-70.5 -54.5t-92.5 -20q-40 0 -70 15.5t-59.5 33.5t-62.5 33.5t-78 15.5q-34 0 -59.5 -28t-30.5 -70h-111
q13 53 34 99t51 80.5t70 54.5t91 20q40 0 71 -15t60.5 -33t62.5 -33t78 -15q16 0 31.5 7.5t27.5 20.5t20.5 30.5t10.5 37.5h111z" />
    <glyph glyph-name="uni1EB5.SngStory.VN" horiz-adv-x="1243" 
d="M788 797q-11 18 -32 36.5t-46.5 33.5t-52.5 24.5t-49 9.5q-72 0 -119.5 -30.5t-75.5 -83t-39.5 -122.5t-11.5 -149q0 -81 16.5 -146t50 -111.5t83.5 -71.5t117 -25q27 0 55.5 6t51.5 14q27 9 52 21v594zM788 0v119q-50 -40 -105 -72q-47 -27 -103.5 -49.5t-112.5 -22.5
q-94 0 -168.5 36.5t-126 102t-79 156.5t-27.5 199q0 132 37 235t103 174.5t157.5 108.5t199.5 37q57 0 120.5 -25.5t117.5 -70.5l147 96h113v-874q0 -20 12.5 -33t32.5 -15l86 -6v-96h-404zM949 1462q0 -69 -20 -130t-60.5 -106t-100.5 -71.5t-141 -26.5t-140.5 26.5
t-99.5 71.5t-59.5 106t-19.5 130h106q10 -46 32 -78t51 -52t62.5 -29t67.5 -9q35 0 69 9t62.5 29t50 52t31.5 78h109zM988 1777q-13 -53 -34 -99.5t-51 -81t-70.5 -54t-92.5 -19.5q-40 0 -70 15.5t-59.5 33.5t-62.5 33.5t-78 15.5q-34 0 -59.5 -28t-30.5 -70h-111
q13 53 34 99t51 80.5t70 54.5t91 20q40 0 71 -15.5t60.5 -34t62.5 -34t78 -15.5q16 0 31.5 7.5t27.5 21t20.5 31.5t10.5 39h111z" />
    <glyph glyph-name="uni1EB3.SngStory" horiz-adv-x="1243" 
d="M788 797q-11 18 -32 36.5t-46.5 33.5t-52.5 24.5t-49 9.5q-72 0 -119.5 -30.5t-75.5 -83t-39.5 -122.5t-11.5 -149q0 -81 16.5 -146t50 -111.5t83.5 -71.5t117 -25q27 0 55.5 6t51.5 14q27 9 52 21v594zM788 0v119q-50 -40 -105 -72q-47 -27 -103.5 -49.5t-112.5 -22.5
q-94 0 -168.5 36.5t-126 102t-79 156.5t-27.5 199q0 132 37 235t103 174.5t157.5 108.5t199.5 37q57 0 120.5 -25.5t117.5 -70.5l147 96h113v-874q0 -20 12.5 -33t32.5 -15l86 -6v-96h-404zM950 1462q0 -69 -20 -130t-60 -106t-100.5 -71.5t-141.5 -26.5t-140.5 26.5
t-99.5 71.5t-59.5 106t-19.5 130h106q10 -46 32 -78t51 -52t62.5 -29t67.5 -9q35 0 69 9t62.5 29t50 52t31.5 78h109zM795 1811q0 -37 -17.5 -64t-42 -46.5t-51.5 -32.5t-45 -21v-119h-63v160q23 6 43.5 15.5t36.5 23.5t25 33t9 45q0 23 -5.5 42.5t-14.5 33.5t-20 22t-23 8
q-28 0 -39 -16l-25 -78l-14 -6q-6 -2 -14.5 -4t-16.5 -2q-16 0 -26.5 6t-17 14.5t-9 19t-2.5 19.5q0 16 12 34.5t33.5 34t51.5 26t65 10.5q39 0 70.5 -12.5t53.5 -33.5t34 -50t12 -62z" />
    <glyph glyph-name="uni1EB3.SngStory.VN" horiz-adv-x="1243" 
d="M788 797q-11 18 -32 36.5t-46.5 33.5t-52.5 24.5t-49 9.5q-72 0 -119.5 -30.5t-75.5 -83t-39.5 -122.5t-11.5 -149q0 -81 16.5 -146t50 -111.5t83.5 -71.5t117 -25q27 0 55.5 6t51.5 14q27 9 52 21v594zM788 0v119q-50 -40 -105 -72q-47 -27 -103.5 -49.5t-112.5 -22.5
q-94 0 -168.5 36.5t-126 102t-79 156.5t-27.5 199q0 132 37 235t103 174.5t157.5 108.5t199.5 37q57 0 120.5 -25.5t117.5 -70.5l147 96h113v-874q0 -20 12.5 -33t32.5 -15l86 -6v-96h-404zM950 1462q0 -69 -20 -130t-60 -106t-100.5 -71.5t-141.5 -26.5t-140.5 26.5
t-99.5 71.5t-59.5 106t-19.5 130h106q10 -46 32 -78t51 -52t62.5 -29t67.5 -9q35 0 69 9t62.5 29t50 52t31.5 78h109zM795 1628q0 -37 -17.5 -64t-42 -46.5t-51.5 -32.5t-45 -21v-119h-63v160q23 6 43.5 15.5t36.5 23.5t25 33t9 45q0 23 -5.5 42.5t-14.5 33.5t-20 22t-23 8
q-28 0 -39 -16l-25 -78l-14 -6q-6 -2 -14.5 -4t-16.5 -2q-16 0 -26.5 6t-17 14.5t-9 19t-2.5 19.5q0 16 12 34.5t33.5 34t51.5 26t65 10.5q39 0 70.5 -12.5t53.5 -33.5t34 -50t12 -62z" />
    <glyph glyph-name="uni01CE.SngStory" horiz-adv-x="1243" 
d="M788 797q-11 18 -32 36.5t-46.5 33.5t-52.5 24.5t-49 9.5q-72 0 -119.5 -30.5t-75.5 -83t-39.5 -122.5t-11.5 -149q0 -81 16.5 -146t50 -111.5t83.5 -71.5t117 -25q27 0 55.5 6t51.5 14q27 9 52 21v594zM788 0v119q-50 -40 -105 -72q-47 -27 -103.5 -49.5t-112.5 -22.5
q-94 0 -168.5 36.5t-126 102t-79 156.5t-27.5 199q0 132 37 235t103 174.5t157.5 108.5t199.5 37q57 0 120.5 -25.5t117.5 -70.5l147 96h113v-874q0 -20 12.5 -33t32.5 -15l86 -6v-96h-404zM750 1128h-242l-227 351h170l178 -193l178 193h170z" />
    <glyph glyph-name="atilde.SngStory" horiz-adv-x="1243" 
d="M788 797q-11 18 -32 36.5t-46.5 33.5t-52.5 24.5t-49 9.5q-72 0 -119.5 -30.5t-75.5 -83t-39.5 -122.5t-11.5 -149q0 -81 16.5 -146t50 -111.5t83.5 -71.5t117 -25q27 0 55.5 6t51.5 14q27 9 52 21v594zM788 0v119q-50 -40 -105 -72q-47 -27 -103.5 -49.5t-112.5 -22.5
q-94 0 -168.5 36.5t-126 102t-79 156.5t-27.5 199q0 132 37 235t103 174.5t157.5 108.5t199.5 37q57 0 120.5 -25.5t117.5 -70.5l147 96h113v-874q0 -20 12.5 -33t32.5 -15l86 -6v-96h-404zM989 1452q-13 -53 -34 -99t-51 -80.5t-70.5 -54.5t-92.5 -20q-40 0 -70 15.5
t-59.5 33.5t-62.5 33.5t-78 15.5q-34 0 -59.5 -28t-30.5 -70h-111q13 53 34 99t51 80.5t70 54.5t91 20q40 0 71 -15t60.5 -33t62.5 -33t78 -15q16 0 31.5 7.5t27.5 20.5t20.5 30.5t10.5 37.5h111z" />
    <glyph glyph-name="amacron.SngStory" horiz-adv-x="1243" 
d="M788 797q-11 18 -32 36.5t-46.5 33.5t-52.5 24.5t-49 9.5q-72 0 -119.5 -30.5t-75.5 -83t-39.5 -122.5t-11.5 -149q0 -81 16.5 -146t50 -111.5t83.5 -71.5t117 -25q27 0 55.5 6t51.5 14q27 9 52 21v594zM788 0v119q-50 -40 -105 -72q-47 -27 -103.5 -49.5t-112.5 -22.5
q-94 0 -168.5 36.5t-126 102t-79 156.5t-27.5 199q0 132 37 235t103 174.5t157.5 108.5t199.5 37q57 0 120.5 -25.5t117.5 -70.5l147 96h113v-874q0 -20 12.5 -33t32.5 -15l86 -6v-96h-404zM281 1200v165h696v-165h-696z" />
    <glyph glyph-name="adieresis.SngStory" horiz-adv-x="1243" 
d="M788 797q-11 18 -32 36.5t-46.5 33.5t-52.5 24.5t-49 9.5q-72 0 -119.5 -30.5t-75.5 -83t-39.5 -122.5t-11.5 -149q0 -81 16.5 -146t50 -111.5t83.5 -71.5t117 -25q27 0 55.5 6t51.5 14q27 9 52 21v594zM788 0v119q-50 -40 -105 -72q-47 -27 -103.5 -49.5t-112.5 -22.5
q-94 0 -168.5 36.5t-126 102t-79 156.5t-27.5 199q0 132 37 235t103 174.5t157.5 108.5t199.5 37q57 0 120.5 -25.5t117.5 -70.5l147 96h113v-874q0 -20 12.5 -33t32.5 -15l86 -6v-96h-404zM556 1339q0 -29 -11 -54.5t-30.5 -45t-45.5 -30.5t-55 -11t-55 11t-45 30.5t-30 45
t-11 54.5t11 55t30 45.5t45 30.5t55 11t55 -11t45.5 -30.5t30.5 -45.5t11 -55zM986 1339q0 -29 -11 -54.5t-30.5 -45t-45.5 -30.5t-55 -11t-54.5 11t-45 30.5t-30.5 45t-11 54.5t11 55t30.5 45.5t45 30.5t54.5 11t55 -11t45.5 -30.5t30.5 -45.5t11 -55z" />
    <glyph glyph-name="uni01DF.SngStory" horiz-adv-x="1243" 
d="M788 797q-11 18 -32 36.5t-46.5 33.5t-52.5 24.5t-49 9.5q-72 0 -119.5 -30.5t-75.5 -83t-39.5 -122.5t-11.5 -149q0 -81 16.5 -146t50 -111.5t83.5 -71.5t117 -25q27 0 55.5 6t51.5 14q27 9 52 21v594zM788 0v119q-50 -40 -105 -72q-47 -27 -103.5 -49.5t-112.5 -22.5
q-94 0 -168.5 36.5t-126 102t-79 156.5t-27.5 199q0 132 37 235t103 174.5t157.5 108.5t199.5 37q57 0 120.5 -25.5t117.5 -70.5l147 96h113v-874q0 -20 12.5 -33t32.5 -15l86 -6v-96h-404zM556 1339q0 -29 -11 -54.5t-30.5 -45t-45.5 -30.5t-55 -11t-55 11t-45 30.5t-30 45
t-11 54.5t11 55t30 45.5t45 30.5t55 11t55 -11t45.5 -30.5t30.5 -45.5t11 -55zM986 1339q0 -29 -11 -54.5t-30.5 -45t-45.5 -30.5t-55 -11t-54.5 11t-45 30.5t-30.5 45t-11 54.5t11 55t30.5 45.5t45 30.5t54.5 11t55 -11t45.5 -30.5t30.5 -45.5t11 -55zM281 1600v165h696
v-165h-696z" />
    <glyph glyph-name="uni0227.SngStory" horiz-adv-x="1243" 
d="M788 797q-11 18 -32 36.5t-46.5 33.5t-52.5 24.5t-49 9.5q-72 0 -119.5 -30.5t-75.5 -83t-39.5 -122.5t-11.5 -149q0 -81 16.5 -146t50 -111.5t83.5 -71.5t117 -25q27 0 55.5 6t51.5 14q27 9 52 21v594zM788 0v119q-50 -40 -105 -72q-47 -27 -103.5 -49.5t-112.5 -22.5
q-94 0 -168.5 36.5t-126 102t-79 156.5t-27.5 199q0 132 37 235t103 174.5t157.5 108.5t199.5 37q57 0 120.5 -25.5t117.5 -70.5l147 96h113v-874q0 -20 12.5 -33t32.5 -15l86 -6v-96h-404zM769 1337q0 -28 -10.5 -53.5t-29.5 -44.5t-44.5 -30t-55.5 -11t-55.5 10.5t-44 29
t-29 44t-10.5 55.5q0 31 10 58t28.5 47.5t44 32.5t56.5 12q29 0 54.5 -11.5t44.5 -32t30 -48t11 -58.5z" />
    <glyph glyph-name="uni01E1.SngStory" horiz-adv-x="1243" 
d="M788 797q-11 18 -32 36.5t-46.5 33.5t-52.5 24.5t-49 9.5q-72 0 -119.5 -30.5t-75.5 -83t-39.5 -122.5t-11.5 -149q0 -81 16.5 -146t50 -111.5t83.5 -71.5t117 -25q27 0 55.5 6t51.5 14q27 9 52 21v594zM788 0v119q-50 -40 -105 -72q-47 -27 -103.5 -49.5t-112.5 -22.5
q-94 0 -168.5 36.5t-126 102t-79 156.5t-27.5 199q0 132 37 235t103 174.5t157.5 108.5t199.5 37q57 0 120.5 -25.5t117.5 -70.5l147 96h113v-874q0 -20 12.5 -33t32.5 -15l86 -6v-96h-404zM769 1337q0 -28 -10.5 -53.5t-29.5 -44.5t-44.5 -30t-55.5 -11t-55.5 10.5t-44 29
t-29 44t-10.5 55.5q0 31 10 58t28.5 47.5t44 32.5t56.5 12q29 0 54.5 -11.5t44.5 -32t30 -48t11 -58.5zM281 1600v165h696v-165h-696z" />
    <glyph glyph-name="aring.SngStory" horiz-adv-x="1243" 
d="M788 797q-11 18 -32 36.5t-46.5 33.5t-52.5 24.5t-49 9.5q-72 0 -119.5 -30.5t-75.5 -83t-39.5 -122.5t-11.5 -149q0 -81 16.5 -146t50 -111.5t83.5 -71.5t117 -25q27 0 55.5 6t51.5 14q27 9 52 21v594zM788 0v119q-50 -40 -105 -72q-47 -27 -103.5 -49.5t-112.5 -22.5
q-94 0 -168.5 36.5t-126 102t-79 156.5t-27.5 199q0 132 37 235t103 174.5t157.5 108.5t199.5 37q57 0 120.5 -25.5t117.5 -70.5l147 96h113v-874q0 -20 12.5 -33t32.5 -15l86 -6v-96h-404zM757 1386q0 27 -10 50.5t-27.5 41.5t-41 28t-50.5 10q-26 0 -49.5 -10t-41 -28
t-28 -41.5t-10.5 -50.5t10.5 -50.5t28 -41t41 -27.5t49.5 -10q27 0 50.5 10t41 27.5t27.5 41t10 50.5zM888 1386q0 -54 -20.5 -101t-56 -82t-82.5 -55t-101 -20q-53 0 -100 20t-82 55t-55.5 82t-20.5 101t20.5 101t55.5 82.5t82 55.5t100 20q54 0 101 -20t82.5 -55.5
t56 -82.5t20.5 -101z" />
    <glyph glyph-name="aringacute.SngStory" horiz-adv-x="1243" 
d="M788 797q-11 18 -32 36.5t-46.5 33.5t-52.5 24.5t-49 9.5q-72 0 -119.5 -30.5t-75.5 -83t-39.5 -122.5t-11.5 -149q0 -81 16.5 -146t50 -111.5t83.5 -71.5t117 -25q27 0 55.5 6t51.5 14q27 9 52 21v594zM788 0v119q-50 -40 -105 -72q-47 -27 -103.5 -49.5t-112.5 -22.5
q-94 0 -168.5 36.5t-126 102t-79 156.5t-27.5 199q0 132 37 235t103 174.5t157.5 108.5t199.5 37q57 0 120.5 -25.5t117.5 -70.5l147 96h113v-874q0 -20 12.5 -33t32.5 -15l86 -6v-96h-404zM757 1386q0 27 -10 50.5t-27.5 41.5t-41 28t-50.5 10q-26 0 -49.5 -10t-41 -28
t-28 -41.5t-10.5 -50.5t10.5 -50.5t28 -41t41 -27.5t49.5 -10q27 0 50.5 10t41 27.5t27.5 41t10 50.5zM888 1386q0 -54 -20.5 -101t-56 -82t-82.5 -55t-101 -20q-53 0 -100 20t-82 55t-55.5 82t-20.5 101t20.5 101t55.5 82.5t82 55.5t100 20q54 0 101 -20t82.5 -55.5
t56 -82.5t20.5 -101zM959 1955q0 -10 -4.5 -22.5t-11.5 -24.5t-17 -22.5t-20 -16.5l-332 -181h-143l280 310q18 19 32.5 31.5t29 20t30.5 10.5t37 3q33 0 55.5 -10t37 -25.5t20.5 -35t6 -37.5z" />
    <glyph glyph-name="uni1E9A.SngStory" horiz-adv-x="1243" 
d="M788 797q-11 18 -32 36.5t-46.5 33.5t-52.5 24.5t-49 9.5q-72 0 -119.5 -30.5t-75.5 -83t-39.5 -122.5t-11.5 -149q0 -81 16.5 -146t50 -111.5t83.5 -71.5t117 -25q27 0 55.5 6t51.5 14q27 9 52 21v594zM788 0v119q-50 -40 -105 -72q-47 -27 -103.5 -49.5t-112.5 -22.5
q-94 0 -168.5 36.5t-126 102t-79 156.5t-27.5 199q0 132 37 235t103 174.5t157.5 108.5t199.5 37q57 0 120.5 -25.5t117.5 -70.5l147 96h113v-874q0 -20 12.5 -33t32.5 -15l86 -6v-96h-404zM753 1385q0 -111 -67 -166t-181 -55v82q78 0 116 32.5t38 106.5t-38 106.5
t-116 32.5v82q118 0 183 -56.5t65 -164.5z" />
    <glyph glyph-name="uni1EA3.SngStory" horiz-adv-x="1243" 
d="M788 797q-11 18 -32 36.5t-46.5 33.5t-52.5 24.5t-49 9.5q-72 0 -119.5 -30.5t-75.5 -83t-39.5 -122.5t-11.5 -149q0 -81 16.5 -146t50 -111.5t83.5 -71.5t117 -25q27 0 55.5 6t51.5 14q27 9 52 21v594zM788 0v119q-50 -40 -105 -72q-47 -27 -103.5 -49.5t-112.5 -22.5
q-94 0 -168.5 36.5t-126 102t-79 156.5t-27.5 199q0 132 37 235t103 174.5t157.5 108.5t199.5 37q57 0 120.5 -25.5t117.5 -70.5l147 96h113v-874q0 -20 12.5 -33t32.5 -15l86 -6v-96h-404zM795 1411q0 -37 -17.5 -64t-42 -46.5t-51.5 -32.5t-45 -21v-119h-63v160
q23 6 43.5 15.5t36.5 23.5t25 33t9 45q0 23 -5.5 42.5t-14.5 33.5t-20 22t-23 8q-28 0 -39 -16l-25 -78l-14 -6q-6 -2 -14.5 -4t-16.5 -2q-16 0 -26.5 6t-17 14.5t-9 19t-2.5 19.5q0 16 12 34.5t33.5 34t51.5 26t65 10.5q39 0 70.5 -12.5t53.5 -33.5t34 -50t12 -62z" />
    <glyph glyph-name="uni1EA1.SngStory" horiz-adv-x="1243" 
d="M788 797q-11 18 -32 36.5t-46.5 33.5t-52.5 24.5t-49 9.5q-72 0 -119.5 -30.5t-75.5 -83t-39.5 -122.5t-11.5 -149q0 -81 16.5 -146t50 -111.5t83.5 -71.5t117 -25q27 0 55.5 6t51.5 14q27 9 52 21v594zM788 0v119q-50 -40 -105 -72q-47 -27 -103.5 -49.5t-112.5 -22.5
q-94 0 -168.5 36.5t-126 102t-79 156.5t-27.5 199q0 132 37 235t103 174.5t157.5 108.5t199.5 37q57 0 120.5 -25.5t117.5 -70.5l147 96h113v-874q0 -20 12.5 -33t32.5 -15l86 -6v-96h-404zM769 -324q0 -28 -10.5 -53.5t-29.5 -44.5t-44.5 -30t-55.5 -11t-55.5 10.5
t-44 29.5t-29 44t-10.5 55q0 31 10 58t28.5 47.5t44 32.5t56.5 12q29 0 54.5 -11.5t44.5 -32t30 -48t11 -58.5z" />
    <glyph glyph-name="uni1E01.SngStory" horiz-adv-x="1243" 
d="M788 797q-11 18 -32 36.5t-46.5 33.5t-52.5 24.5t-49 9.5q-72 0 -119.5 -30.5t-75.5 -83t-39.5 -122.5t-11.5 -149q0 -81 16.5 -146t50 -111.5t83.5 -71.5t117 -25q27 0 55.5 6t51.5 14q27 9 52 21v594zM788 0v119q-50 -40 -105 -72q-47 -27 -103.5 -49.5t-112.5 -22.5
q-94 0 -168.5 36.5t-126 102t-79 156.5t-27.5 199q0 132 37 235t103 174.5t157.5 108.5t199.5 37q57 0 120.5 -25.5t117.5 -70.5l147 96h113v-874q0 -20 12.5 -33t32.5 -15l86 -6v-96h-404zM628 -254q-26 0 -49.5 -10.5t-41 -28t-28 -41t-10.5 -49.5q0 -27 10.5 -50.5
t28 -41t41 -27.5t49.5 -10q27 0 50.5 10t41 27t27.5 40.5t10 49.5q0 27 -10 51t-27.5 41.5t-41 28t-50.5 10.5zM628 -125q54 0 101 -20.5t82.5 -55.5t56 -82t20.5 -100q0 -54 -20.5 -101t-56 -82t-82.5 -55t-101 -20q-53 0 -100 20t-82 55t-55.5 81.5t-20.5 99.5
q0 54 20.5 101t55.5 82.5t82 56t100 20.5z" />
    <glyph glyph-name="aogonek.SngStory" horiz-adv-x="1243" 
d="M1049 -362q-38 -18 -74 -32q-31 -12 -64.5 -22t-56.5 -10q-48 0 -89.5 11.5t-72 34t-48 54t-17.5 72.5q0 45 17 85t42.5 72.5t54.5 57.5q27 24 49 39h-2v119q-50 -40 -105 -72q-47 -27 -103.5 -49.5t-112.5 -22.5q-94 0 -168.5 36.5t-126 102t-79 156.5t-27.5 199
q0 132 37 235t103 174.5t157.5 108.5t199.5 37q57 0 120.5 -25.5t117.5 -70.5l147 96h113v-874q0 -20 12.5 -33t32.5 -15l86 -6v-96h-273q-55 -42 -90 -91q-36 -50 -36 -110q0 -45 25.5 -75.5t76.5 -30.5q10 0 23.5 7t27 15.5t24 17t15.5 11.5zM788 797q-11 18 -32 36.5
t-46.5 33.5t-52.5 24.5t-49 9.5q-72 0 -119.5 -30.5t-75.5 -83t-39.5 -122.5t-11.5 -149q0 -81 16.5 -146t50 -111.5t83.5 -71.5t117 -25q27 0 55.5 6t51.5 14q27 9 52 21v594z" />
    <glyph glyph-name="aogonek.SngStory.RetroHook" horiz-adv-x="1243" 
d="M1129 -328q0 -37 -25.5 -63.5t-63.5 -44t-82.5 -25.5t-81.5 -8q-49 0 -103.5 14t-101 44.5t-77 79t-30.5 116.5v207q-49 -17 -97 -17q-94 0 -168.5 36.5t-126 102t-79 156.5t-27.5 199q0 132 37 235t103 174.5t157.5 108.5t199.5 37q57 0 120.5 -25.5t117.5 -70.5l147 96
h113v-874q0 -20 12.5 -33t32.5 -15l86 -6v-96h-404v119q-46 -37 -97 -67h2v-271q0 -34 8 -55t23.5 -32.5t38.5 -15.5t53 -4l197 187q24 -14 45.5 -30t37 -38t24.5 -51.5t9 -69.5zM788 797q-11 18 -32 36.5t-46.5 33.5t-52.5 24.5t-49 9.5q-72 0 -119.5 -30.5t-75.5 -83
t-39.5 -122.5t-11.5 -149q0 -81 16.5 -146t50 -111.5t83.5 -71.5t117 -25q27 0 55.5 6t51.5 14q27 9 52 21v594z" />
    <glyph glyph-name="uni2C65.SngStory" horiz-adv-x="1243" 
d="M788 684l-281 -495q51 -27 122 -27q27 0 55.5 6t51.5 14q27 9 52 21v481zM362 516q0 -74 13.5 -134.5t41.5 -106.5l323 570q-30 23 -66.5 39.5t-65.5 16.5q-72 0 -119.5 -30.5t-75.5 -83t-39.5 -122.5t-11.5 -149zM1032 1113l-51 -89h80v-874q0 -20 12.5 -33t32.5 -15
l86 -6v-96h-404v119q-50 -40 -105 -72q-47 -27 -103.5 -49.5t-112.5 -22.5q-20 0 -39.5 2t-38.5 5l-91 -160l-104 61l80 141q-100 59 -154 174.5t-54 270.5q0 132 37 235t103 174.5t157.5 108.5t199.5 37q54 0 114.5 -23.5t113.5 -65.5l135 237z" />
    </font>
</defs>
</svg>
