<?xml version="1.0" standalone="no"?>
<!DOCTYPE svg PUBLIC "-//W3C//DTD SVG 1.1//EN" "http://www.w3.org/Graphics/SVG/1.1/DTD/svg11.dtd" >
<svg xmlns="http://www.w3.org/2000/svg" xmlns:xlink="http://www.w3.org/1999/xlink" version="1.1">
<metadata>
Created by FontForge 20201107 at Wed Oct 02 05:35:53 2002
 By fANhAN iNSiDE
Copyright (c) SIL International (http://www.sil.org/), 1995-2009. All rights reserved.

</metadata>
<defs>
<font id="GalatiaSIL" horiz-adv-x="1051" >
  <font-face 
    font-family="Galatia SIL"
    font-weight="400"
    font-stretch="normal"
    units-per-em="2048"
    panose-1="2 0 6 0 2 0 0 2 0 4"
    ascent="1638"
    descent="-410"
    x-height="952"
    cap-height="1376"
    bbox="-975 -461 5040 1931"
    underline-thickness="19"
    underline-position="-138"
    unicode-range="U+0020-216F"
  />
<missing-glyph horiz-adv-x="649" 
 />
    <glyph glyph-name=".notdef" horiz-adv-x="649" 
 />
    <glyph glyph-name=".null" horiz-adv-x="0" 
 />
    <glyph glyph-name="nonmarkingreturn" horiz-adv-x="649" 
 />
    <glyph glyph-name="glyph3" unicode=" " horiz-adv-x="649" 
 />
    <glyph glyph-name="guillemotleft" unicode="&#xab;" horiz-adv-x="709" 
d="M620 156q-59 37 -93.5 78t-52.5 85t-23 91.5t-5 97.5q0 48 8 93.5t27.5 86.5t53.5 76.5t85 62.5l-10 15q-121 -60 -186.5 -147t-65.5 -195q0 -65 20.5 -119t55 -98t79.5 -79.5t95 -62.5zM373 156q-59 37 -93 78t-51.5 85t-22.5 91.5t-5 97.5q0 48 7.5 93.5t27 86.5
t53 76.5t84.5 62.5l-8 15q-121 -60 -186.5 -147t-65.5 -195q0 -65 20.5 -119t55 -98t79.5 -79.5t95 -62.5z" />
    <glyph glyph-name="guillemotright" unicode="&#xbb;" horiz-adv-x="709" 
d="M592 500q0 108 -66 195t-186 147l-11 -15q52 -27 85.5 -62.5t53.5 -76.5t28 -86.5t8 -93.5q0 -50 -5.5 -97.5t-23.5 -91.5t-53 -85t-93 -78l13 -15q50 27 95 62.5t79.5 79.5t55 98t20.5 119zM347 500q0 108 -66 195t-186 147l-11 -15q52 -27 85.5 -62.5t53.5 -76.5
t28 -86.5t8 -93.5q0 -50 -5.5 -97.5t-23.5 -91.5t-53 -85t-93 -78l13 -15q50 27 95 62.5t79.5 79.5t55 98t20.5 119z" />
    <glyph glyph-name="quoteright" unicode="&#x2019;" horiz-adv-x="709" 
d="M516 1235q0 48 -16.5 86t-42 65t-58 41.5t-63.5 14.5q-21 0 -45.5 -7.5t-44.5 -22.5t-33.5 -37.5t-13.5 -53.5q0 -26 9.5 -47t24.5 -35t33.5 -21.5t36.5 -7.5q20 0 42 8.5t36 8.5q4 0 10.5 -2.5t13 -9.5t11 -19.5t4.5 -32.5q0 -42 -17 -75t-42.5 -58.5t-56.5 -45.5
t-58 -36v-45q30 10 76 32.5t89 62t74 98t31 139.5z" />
    <glyph glyph-name="parenleft" unicode="(" horiz-adv-x="709" 
d="M635 -332q-81 58 -146 130t-110.5 173t-69.5 238.5t-24 325.5q0 123 12.5 220.5t35.5 175t55 138t71 110t83.5 91t92.5 80.5l-21 32q-110 -65 -203 -152.5t-160.5 -197t-106 -240t-38.5 -280.5q0 -113 23.5 -214t62.5 -189t90.5 -163t107.5 -135t112.5 -105t105.5 -73z
" />
    <glyph glyph-name="parenright" unicode=")" horiz-adv-x="709" 
d="M594 512q0 113 -23.5 214t-63 189t-91 163t-107 134.5t-112 104t-105.5 72.5l-29 -33q55 -39 102.5 -83.5t86.5 -99t69 -121t51 -150t31.5 -186t10.5 -227.5q0 -123 -12.5 -220.5t-35.5 -175t-55 -138.5t-71 -110.5t-84 -91.5t-93 -81l21 -30q111 64 204.5 152
t161.5 197.5t106 240t38 280.5z" />
    <glyph glyph-name="asterisk" unicode="*" horiz-adv-x="1038" 
d="M899 750q17 31 8.5 57t-37.5 43q-19 11 -46.5 16.5t-65 14.5t-85 26t-106.5 51q59 35 106.5 53t84.5 27.5t64.5 15.5t45.5 17q29 17 39.5 42.5t-8.5 57.5t-47 37t-57 -12q-18 -10 -36 -30.5t-44.5 -48t-65.5 -60t-98 -66.5q0 69 8.5 118.5t19 85.5t19 61.5t8.5 46.5
q0 34 -17 56.5t-54 22.5q-39 0 -56.5 -22.5t-17.5 -56.5q0 -21 8.5 -46.5t19 -61.5t19 -85.5t8.5 -118.5q-59 34 -98.5 65.5t-66.5 58t-45 46.5t-36 31q-29 17 -55.5 14t-46.5 -37q-17 -31 -8.5 -57t37.5 -43q18 -11 45.5 -16.5t64.5 -15t84.5 -27t106.5 -52.5
q-59 -34 -106.5 -51.5t-84 -27.5t-63.5 -15.5t-45 -15.5q-29 -17 -39.5 -42.5t8.5 -57.5t47 -37t57 12q18 10 36 30.5t44.5 47.5t65.5 59.5t98 67.5q0 -69 -8.5 -118.5t-19 -86t-19 -62t-8.5 -45.5q0 -34 17.5 -56.5t56.5 -22.5q37 0 54 22.5t17 56.5q0 20 -8.5 45.5t-19 62
t-19 86t-8.5 118.5q59 -35 98.5 -66.5t66.5 -57.5t45 -46t36 -31q29 -17 55.5 -14t46.5 37z" />
    <glyph glyph-name="plus" unicode="+" horiz-adv-x="1208" 
d="M1106 446v146h-447v444h-135v-444h-446v-146h446v-446h135v446h447z" />
    <glyph glyph-name="comma" unicode="," horiz-adv-x="709" 
d="M469 20q0 49 -14 84.5t-36.5 58.5t-49.5 34.5t-52 11.5q-58 0 -95.5 -31.5t-37.5 -87.5q0 -28 11.5 -48t28.5 -33t36.5 -19t36.5 -6q15 0 24.5 1t17 2.5l15 3t17.5 1.5q11 0 14.5 -6t3.5 -19q0 -25 -11.5 -54t-33 -58.5t-52 -57t-69.5 -49.5l23 -41q36 18 75.5 48
t72 70.5t54 90t21.5 104.5z" />
    <glyph glyph-name="glyph12" unicode="-" horiz-adv-x="709" 
d="M594 399v129h-500v-129h500z" />
    <glyph glyph-name="period" unicode="." horiz-adv-x="709" 
d="M457 113q0 27 -11 51.5t-29.5 43t-44 29.5t-53.5 11q-27 0 -51.5 -11t-43 -29.5t-29.5 -43t-11 -51.5q0 -29 11 -54t29.5 -43.5t43 -29.5t51.5 -11q28 0 53.5 11t44 29.5t29.5 43.5t11 54z" />
    <glyph glyph-name="slash" unicode="/" horiz-adv-x="649" 
d="M571 1384h-104l-449 -1419h103z" />
    <glyph glyph-name="zero" unicode="0" 
d="M956 682q0 183 -41 315t-106 216.5t-144.5 124.5t-156.5 40q-92 0 -177.5 -38.5t-152.5 -123.5t-107 -220t-40 -328q0 -180 38.5 -309.5t102.5 -212.5t147.5 -122.5t172.5 -39.5q88 0 171.5 40t148.5 124.5t104.5 216.5t39.5 317zM758 662q1 -186 -18 -307t-53 -191.5
t-82 -98.5t-105 -28q-32 0 -65 11t-64 38.5t-58 74.5t-47 119.5t-31.5 172.5t-11.5 233q0 131 11.5 229t31.5 168.5t47 116.5t58 73t64 37.5t65 10.5q54 0 101 -31t81.5 -106.5t54.5 -202.5t21 -319z" />
    <glyph glyph-name="one" unicode="1" 
d="M817 0v29q-62 3 -100 9.5t-59 19.5t-28 33t-7 50v1217q0 14 -4 16t-13 -4l-364 -184v-29q68 31 109.5 40t63.5 0.5t29 -32t7 -55.5v-930q0 -39 -7 -66t-28 -44.5t-59.5 -27t-100.5 -13.5v-29h561z" />
    <glyph glyph-name="two" unicode="2" 
d="M981 274l-25 17q-22 -44 -42.5 -71t-43 -41.5t-48.5 -19.5t-58 -5h-490q50 56 114 120t131.5 133t132.5 143t116 150.5t82 155t31 156.5q0 68 -24 134t-71.5 118t-116.5 84t-159 32q-88 0 -160.5 -30t-128 -84t-92 -129.5t-51.5 -165.5l43 -8q24 72 57 123t72.5 83
t84.5 47t93 15q51 0 100 -17.5t87.5 -54.5t61.5 -93t23 -134q0 -67 -19 -130.5t-56 -129.5t-90.5 -136.5t-123 -149.5t-153.5 -170t-182 -198v-18h798z" />
    <glyph glyph-name="three" unicode="3" 
d="M897 463q0 85 -27 146t-67 104t-85.5 70t-82.5 44q29 19 62 45.5t61 61t46.5 76.5t18.5 92q0 62 -23.5 114t-64.5 89.5t-98.5 58t-124.5 20.5t-129 -19t-115.5 -59.5t-96 -103t-69.5 -149.5l31 -11q59 115 134 166.5t165 51.5q45 0 87.5 -15t75 -42.5t52 -66.5t19.5 -87
q0 -65 -19.5 -113t-61.5 -87t-108 -72.5t-158 -69.5l7 -25q14 2 24 2h21q180 0 276 -84t96 -242q0 -75 -23 -131t-61 -93.5t-86.5 -56t-99.5 -18.5q-41 0 -80 17.5t-76.5 39t-74 39t-70.5 17.5q-32 0 -52 -19t-20 -51q0 -18 8 -38t32.5 -37.5t69 -29t116.5 -11.5
q151 0 259 44.5t177.5 114t102 154t32.5 164.5z" />
    <glyph glyph-name="four" unicode="4" 
d="M977 340v133h-209v899h-94l-639 -897v-135h573v-340h160v340h209zM608 473h-491l491 692v-692z" />
    <glyph glyph-name="five" unicode="5" 
d="M907 1393l-18 12q-14 -19 -31.5 -34t-42.5 -15h-448l-222 -490q-5 -11 -2 -17.5t17 -6.5q75 0 147.5 -13t137.5 -38t119.5 -61.5t94 -84.5t62 -106t22.5 -127q0 -67 -15 -119.5t-38.5 -92.5t-54 -68t-61 -45.5t-59.5 -25.5t-50 -8q-32 0 -68.5 20t-75 44.5t-77.5 44.5
t-76 20q-40 0 -64 -18t-24 -55q0 -24 10 -47.5t37.5 -42.5t77 -30.5t127.5 -11.5q58 0 121.5 12.5t126 38.5t119 67t99 99t68 133t25.5 169q0 100 -29.5 176.5t-78.5 133t-111.5 94.5t-128 62.5t-129.5 37t-115 16.5l82 178h416q23 0 37 23z" />
    <glyph glyph-name="six" unicode="6" 
d="M971 457q0 116 -35 196t-89 130t-120 72t-127 22q-35 0 -64.5 -3t-60.5 -12.5t-66 -27t-81 -46.5q29 116 82.5 215.5t130 175.5t174 124t215.5 61l-6 37q-125 -3 -235.5 -35.5t-203.5 -89t-167.5 -133t-126.5 -166t-79.5 -189t-27.5 -202.5q0 -101 19 -185.5t52.5 -152
t79 -118.5t97.5 -85t108 -51t111 -17q84 0 160.5 36t134 100t91.5 152t34 192zM786 371q0 -78 -16 -139.5t-45 -104t-71 -65.5t-93 -23t-92 20t-73.5 54.5t-56 80.5t-39 99t-23 110t-7.5 113q0 58 8.5 107.5t34 85.5t72 56.5t121.5 20.5q78 0 131.5 -35.5t86.5 -94
t47.5 -133t14.5 -152.5z" />
    <glyph glyph-name="seven" unicode="7" 
d="M932 1321v35h-756l-119 -301l33 -19q23 40 45 71t47 52t55 32t70 11h465l-399 -1202h133z" />
    <glyph glyph-name="eight" unicode="8" 
d="M915 311q0 31 -3 61t-13.5 61.5t-31 65.5t-55.5 73.5t-87.5 85t-126.5 100.5q72 40 125 77.5t87 76.5t50.5 81.5t16.5 93.5q0 54 -22.5 106t-66.5 93.5t-109.5 66.5t-150.5 25q-93 0 -166.5 -26t-124.5 -70t-78.5 -101t-27.5 -118q0 -43 12 -88.5t41.5 -93t78.5 -97.5
t124 -102q-126 -74 -196 -167t-70 -210q0 -62 25.5 -121t75.5 -105t123.5 -74t168.5 -28q76 0 135.5 15.5t104 42t75.5 60.5t50 71t27.5 74.5t8.5 70.5zM731 1098q0 -45 -8.5 -82t-30 -71.5t-58 -70t-93.5 -75.5q-72 45 -121 85.5t-79 79.5t-43 77t-13 79q0 42 14.5 78.5
t41.5 63.5t66 43t87 16q61 0 105.5 -18t74 -49t43.5 -71t14 -85zM758 256q0 -41 -12.5 -80.5t-39.5 -71t-70 -50.5t-104 -19q-79 0 -128.5 32.5t-78 79t-39 98t-10.5 89.5q0 36 8 76.5t27 81.5t50.5 79t78.5 70q111 -79 175 -133t95.5 -95.5t39.5 -77.5t8 -79z" />
    <glyph glyph-name="nine" unicode="9" 
d="M956 788q0 148 -38.5 258.5t-102.5 184t-146.5 110.5t-170.5 37q-90 0 -167 -35t-134 -97.5t-89 -149.5t-32 -191q0 -116 32.5 -197t85 -132t118.5 -74t132 -23q72 0 148 28.5t158 90.5q-36 -117 -84.5 -215t-121.5 -175.5t-175.5 -132t-245.5 -83.5l14 -39
q136 13 249.5 52.5t204.5 99t159.5 137t114 166t68.5 185t23 195.5zM758 842q0 -26 -1 -55t-4 -54.5t-7.5 -44.5t-10.5 -26q-15 -17 -38.5 -33t-51 -28.5t-57.5 -20t-58 -7.5q-77 0 -128 32.5t-81.5 87.5t-43.5 128.5t-13 155.5q0 78 14.5 141.5t42 108.5t68 69.5t92.5 24.5
q50 0 90 -20t71 -55t53 -81.5t36 -100t20.5 -110.5t6.5 -112z" />
    <glyph glyph-name="colon" unicode=":" horiz-adv-x="709" 
d="M457 889q0 28 -11 52.5t-29.5 43t-44 29t-53.5 10.5q-27 0 -51.5 -10.5t-43 -29t-29.5 -43t-11 -52.5q0 -29 11 -53.5t29.5 -43.5t43 -29.5t51.5 -10.5q28 0 53.5 10.5t44 29.5t29.5 43.5t11 53.5zM457 113q0 27 -11 51.5t-29.5 43t-44 29.5t-53.5 11q-27 0 -51.5 -11
t-43 -29.5t-29.5 -43t-11 -51.5q0 -29 11 -54t29.5 -43.5t43 -29.5t51.5 -11q28 0 53.5 11t44 29.5t29.5 43.5t11 54z" />
    <glyph glyph-name="equal" unicode="=" horiz-adv-x="1176" 
d="M1106 655v136h-1028v-136h1028zM1106 246v135h-1028v-135h1028z" />
    <glyph glyph-name="bracketleft" unicode="[" horiz-adv-x="709" 
d="M621 -328v45h-211q-12 0 -23 5.5t-19.5 14t-14 19.5t-5.5 23v1468q0 12 5.5 23t14 19.5t19.5 14t23 5.5h211v47h-426v-1673v-11h426z" />
    <glyph glyph-name="backslash" unicode="\" horiz-adv-x="655" 
d="M571 -35l-450 1419h-103l449 -1419h104z" />
    <glyph glyph-name="bracketright" unicode="]" horiz-adv-x="709" 
d="M512 -328v11v1673h-426v-47h211q12 0 23 -5.5t19.5 -14t13.5 -19.5t5 -23v-1468q0 -12 -5 -23t-13.5 -19.5t-19.5 -14t-23 -5.5h-211v-45h426z" />
    <glyph glyph-name="pi" unicode="&#x3c0;" horiz-adv-x="1245" 
d="M1149 1057h-41q-3 -11 -12.5 -20.5t-22.5 -17t-29 -11.5t-32 -4h-731q-63 0 -107 -25t-72 -62t-40.5 -79t-12.5 -76h39q4 13 12.5 32.5t27 38t50 31.5t82.5 13h84v-326q0 -94 -9.5 -162t-24.5 -115t-34.5 -76.5t-40 -45.5t-39.5 -21.5t-34 -5.5q-34 0 -60 36t-26 95h-37
q0 -51 6 -101.5t22 -90.5t43.5 -64.5t71.5 -24.5q61 0 102.5 28.5t67 78.5t36.5 117t11 145v533h306v-641q0 -43 6.5 -89t29 -84.5t65.5 -63t116 -24.5q46 0 85 20.5t68 62t45.5 103t16.5 142.5h-37q0 -64 -12 -110.5t-30.5 -77t-42 -45.5t-46.5 -15q-32 0 -52 15t-31 42.5
t-14.5 67.5t-3.5 90v607h127q42 0 71.5 14t48 38.5t26.5 57.5t8 70z" />
    <glyph glyph-name="braceleft" unicode="{" horiz-adv-x="983" 
d="M868 -367v43q-58 7 -110 26.5t-91 50.5t-62 74.5t-23 98.5v275q0 63 -15.5 107.5t-43 75t-64.5 50t-79.5 33t-88 23t-90.5 20.5q45 10 90.5 19t88 22t79.5 32.5t64.5 50t43 74.5t15.5 107v275q0 55 23 98.5t62 74.5t91 50t110 26v43q-43 0 -92 -3t-98 -13t-94.5 -29.5
t-80.5 -52.5t-56 -81t-21 -116v-305q0 -54 -24 -96t-64 -71.5t-92 -48t-107 -25.5v-66q55 -8 107 -26t92 -48t64 -71.5t24 -96.5v-303q0 -68 21 -116t56 -81t80.5 -52.5t94.5 -30.5t98.5 -14t91.5 -3z" />
    <glyph glyph-name="braceright" unicode="}" horiz-adv-x="983" 
d="M868 475v66q-55 7 -106 25.5t-90 48t-62.5 71.5t-23.5 96v305q0 68 -21.5 116t-57 81t-81.5 52.5t-95.5 29.5t-99.5 13t-92 3v-43q59 -7 111.5 -26t92 -50t62.5 -74.5t23 -98.5v-275q0 -63 16 -107t43.5 -74.5t64.5 -50t79 -32.5t88 -22t90 -19q-45 -11 -90.5 -20.5
t-87.5 -23t-79 -33t-64.5 -50t-43.5 -75t-16 -107.5v-275q0 -55 -23 -98.5t-62.5 -74.5t-92 -50.5t-111.5 -26.5v-43q42 0 92 3t99.5 13.5t95.5 30.5t81.5 53t57 81.5t21.5 115.5v303q0 55 23.5 96.5t62.5 71.5t90 48t106 26z" />
    <glyph glyph-name="emdash" unicode="&#x2014;" horiz-adv-x="1665" 
d="M1567 406v129h-1467v-129h1467z" />
    <glyph glyph-name="periodcentered" unicode="&#xb7;" horiz-adv-x="641" 
d="M555 696q0 49 -18.5 92t-50 75t-75 50.5t-92.5 18.5t-92 -18.5t-74.5 -50.5t-50 -75t-18.5 -92t18.5 -92t50 -74.5t74.5 -50t92 -18.5t92.5 18.5t75 50t50 74.5t18.5 92z" />
    <glyph glyph-name="paragraph" unicode="&#xb6;" horiz-adv-x="1198" 
d="M1012 1352v57h-514q-56 0 -112.5 -8t-108.5 -26t-97.5 -47.5t-79 -73t-52.5 -101.5t-19 -133q0 -82 20.5 -142t56 -103.5t83.5 -71t103.5 -44t115.5 -23.5t120 -9v-1088h76v1813h193v-1813h77v1813h138z" />
    <glyph glyph-name="logicalnot" unicode="&#xac;" horiz-adv-x="1296" 
d="M1200 387v473h-1106v-123h983v-350h123z" />
    <glyph glyph-name="endash" unicode="&#x2013;" horiz-adv-x="1047" 
d="M948 406v129h-848v-129h848z" />
    <glyph glyph-name="currency" unicode="&#xa4;" horiz-adv-x="1276" 
d="M1200 401l-211 211q47 56 68.5 124t21.5 141q0 72 -24.5 144t-67.5 126l213 213l-74 74l-217 -217q-52 45 -119.5 68.5t-138.5 23.5q-72 0 -142 -22.5t-126 -67.5l-215 215l-74 -74l215 -215q-24 -27 -42 -59.5t-29.5 -67.5t-17 -71.5t-5.5 -72.5q0 -72 22.5 -139
t67.5 -123l-211 -211l74 -73l211 211q57 -50 126 -73.5t146 -23.5q71 0 140 24.5t124 72.5l211 -211zM963 877q0 -65 -24.5 -122.5t-66.5 -101t-99 -69t-122 -25.5q-66 0 -124 24.5t-101.5 67t-68.5 100t-25 123.5q0 67 25 125t68 101t101 67.5t125 24.5q64 0 121 -25.5
t99.5 -68.5t67 -100t24.5 -121z" />
    <glyph glyph-name="ampersand" unicode="&#x26;" horiz-adv-x="1747" 
d="M1634 254l-39 27q-5 -20 -16.5 -46.5t-33.5 -50.5t-56 -40.5t-84 -16.5q-54 0 -101 20.5t-86 50.5t-70 64t-54 60q57 72 108.5 148.5t97.5 160.5q45 84 76 129.5t59 67.5t58 28.5t74 11.5v39h-439v-39q7 0 23.5 -4.5t33 -17t29.5 -35t13 -59.5q0 -150 -183 -369
q-148 198 -276 430q48 25 107 59t111.5 79t88 103.5t35.5 133.5q0 49 -18 95t-53.5 81t-88 56.5t-121.5 21.5q-64 0 -128.5 -20t-116.5 -62t-84.5 -107t-32.5 -155q0 -48 9 -92t22 -83.5t28 -73.5t27 -61q-43 -23 -91.5 -51.5t-96.5 -63.5t-92 -76.5t-78 -90.5t-54 -106
t-20 -121q0 -57 23.5 -113t70 -100t116.5 -71.5t163 -27.5q86 0 155.5 21.5t125 52.5t98.5 66t75 63q28 -31 66 -66.5t83.5 -66t99.5 -50.5t116 -20q81 0 138.5 30t95 74.5t58.5 94t29 88.5zM989 1192q0 -67 -28 -118t-68 -88.5t-84 -62.5t-76 -40q-14 30 -29.5 66.5
t-28.5 75.5t-21.5 79t-8.5 76q0 15 7.5 46.5t28 63t56 55t92.5 23.5q31 0 60 -12.5t51.5 -35.5t35.5 -55.5t13 -72.5zM893 229q-26 -21 -57 -45t-67.5 -44t-78.5 -33t-90 -13q-65 0 -114 24.5t-82 64t-49.5 89.5t-16.5 101q0 74 27 131t66 98.5t81.5 69.5t73.5 45
q34 -63 62 -115.5t54 -97.5t74 -112t117 -163z" />
    <glyph glyph-name="less" unicode="&#x3c;" horiz-adv-x="1647" 
d="M1438 80v127l-1098 407l1098 408v127l-1229 -471v-127z" />
    <glyph glyph-name="greater" unicode="&#x3e;" horiz-adv-x="1647" 
d="M1438 551v127l-1229 471v-127l1098 -408l-1098 -407v-127z" />
    <glyph glyph-name="semicolon" unicode=";" horiz-adv-x="709" 
d="M457 889q0 28 -11 52.5t-29.5 43t-44 29t-53.5 10.5q-27 0 -51.5 -10.5t-43 -29t-29.5 -43t-11 -52.5q0 -29 11 -53.5t29.5 -43.5t43 -29.5t51.5 -10.5q28 0 53.5 10.5t44 29.5t29.5 43.5t11 53.5zM469 20q0 49 -14 84.5t-36.5 58.5t-49.5 34.5t-52 11.5
q-58 0 -95.5 -31.5t-37.5 -87.5q0 -28 11.5 -48t28.5 -33t36.5 -19t36.5 -6q15 0 24.5 1t17 2.5l15 3t17.5 1.5q11 0 14.5 -6t3.5 -19q0 -25 -11.5 -54t-33 -58.5t-52 -57t-69.5 -49.5l23 -41q36 18 75.5 48t72 70.5t54 90t21.5 104.5z" />
    <glyph glyph-name="quotedbl" unicode="&#x22;" horiz-adv-x="868" 
d="M729 1331q0 45 -27.5 78t-76.5 33q-51 0 -79 -29.5t-28 -95.5q0 -25 6 -68.5t19 -109.5l55 -303h51l58 303q14 77 18 124t4 68zM348 1329q0 51 -30 82t-76 31q-45 0 -74 -27.5t-29 -97.5q0 -25 5 -68t18 -106l57 -307h43l57 305q14 74 21.5 121t7.5 67z" />
    <glyph glyph-name="numbersign" unicode="#" horiz-adv-x="1065" 
d="M1028 444v86h-266l74 357h192v82h-178l98 473h-86l-100 -473h-350l92 473h-84l-94 -473h-289v-82h268l-74 -357h-194v-86h178l-96 -475h88l98 475h352l-94 -475h84l96 475h285zM748 887l-74 -357h-355l74 357h355z" />
    <glyph glyph-name="dollar" unicode="$" horiz-adv-x="1065" 
d="M958 350q0 47 -9 86t-29 75t-52 70.5t-78 72.5t-106 82.5t-137 99.5v528q78 -8 133 -33.5t91 -68t54.5 -101t24.5 -131.5h41v311q-85 32 -136 50.5t-65 23.5q-29 6 -65 11.5t-78 7.5v96h-66v-96q-53 -3 -117 -23t-120 -60.5t-93.5 -103t-37.5 -151.5q0 -77 24.5 -135.5
t72 -109.5t116 -100t155.5 -106v-606q-152 14 -232 87.5t-91 221.5h-45v-295q37 -16 82 -30.5t93.5 -25.5t98 -18.5t94.5 -9.5v-131h66v131q80 5 154 33.5t131 77.5t91.5 117.5t34.5 152.5zM481 881q-28 18 -64 43.5t-67.5 60t-53.5 78.5t-22 98q0 60 23 98t55.5 60t68 31.5
t60.5 13.5v-483zM793 299q0 -47 -13 -84t-34 -65.5t-47.5 -48.5t-54 -33.5t-53 -20.5t-44.5 -8v561q59 -42 105 -77t77.5 -69.5t47.5 -71.5t16 -83z" />
    <glyph glyph-name="percent" unicode="%" horiz-adv-x="1841" 
d="M1681 528q0 42 -15 84.5t-44 76t-71.5 54.5t-96.5 21q-61 0 -118.5 -21t-109 -57.5t-94.5 -85.5t-74.5 -105t-49 -115.5t-17.5 -117.5q0 -60 11.5 -113.5t42 -93t83 -63t134.5 -23.5q69 0 143 40t135.5 113.5t101 176.5t39.5 229zM1386 1446h-102q-53 -69 -137.5 -107.5
t-181.5 -40.5q-48 -1 -80 7.5t-55.5 21.5t-42.5 28.5t-41 28.5t-51 22t-72 9q-61 0 -118.5 -21.5t-108.5 -59t-94 -87t-74 -106t-48.5 -116t-17.5 -116.5q0 -140 63.5 -216.5t190.5 -76.5q47 0 97.5 19.5t99 55.5t92 85.5t76.5 109t52 127.5t19 140q0 28 -8 59t-8 56
q31 -12 75 -15t93.5 2t101.5 18.5t100 33.5l-745 -1338h102zM1626 516q0 -43 -11 -95.5t-32.5 -106t-51.5 -103.5t-67.5 -89.5t-82.5 -63t-95 -23.5q-36 0 -61.5 11.5t-41 32t-23 47t-7.5 56.5q0 48 11.5 104.5t32.5 113.5t51 110t66 94t78 65.5t87 24.5q36 0 63.5 -16
t46 -41.5t28 -57.5t9.5 -63zM797 1184q0 -52 -12 -109t-34 -112t-53 -104.5t-68.5 -87t-81.5 -59.5t-91 -22q-39 0 -64.5 11.5t-40.5 32.5t-21.5 50t-6.5 64q0 73 17.5 139t45 122.5t62 101.5t68.5 77t64 49t50 17q14 0 27.5 -8t30 -19.5t38 -23.5t51.5 -21q5 -25 12 -48.5
t7 -49.5z" />
    <glyph glyph-name="quotesingle" unicode="'" horiz-adv-x="385" 
d="M297 1331q0 18 -6.5 38t-20 36t-34.5 26.5t-50 10.5q-49 0 -73.5 -30t-24.5 -95q0 -23 5 -66t18 -108l55 -307h47l55 305q14 77 21.5 124.5t7.5 65.5z" />
    <glyph glyph-name="question" unicode="?" horiz-adv-x="946" 
d="M860 1114q0 77 -29 138t-81 103t-123.5 64.5t-155.5 22.5q-91 0 -161 -25t-117.5 -66.5t-72 -95.5t-24.5 -112q0 -51 14 -83t32.5 -50t38 -24.5t30.5 -6.5q14 0 29 6t27 17t20 28t8 39q0 18 -10.5 40t-22.5 45.5t-22.5 47.5t-10.5 45q0 23 12 47.5t36.5 44.5t61.5 32.5
t87 12.5q41 0 84 -15.5t78 -49.5t57.5 -88.5t22.5 -132.5q0 -41 -9.5 -84.5t-24 -84.5t-32 -77.5t-33.5 -63.5q-35 -57 -60 -112.5t-42 -111t-26.5 -113t-12.5 -119.5h45q3 73 18 127t42.5 102.5t68.5 97.5t96 111q24 27 52.5 62t52.5 78t40.5 94t16.5 110zM573 88
q0 26 -10 47.5t-26 37t-36.5 24t-41.5 8.5q-23 0 -44.5 -8.5t-38 -24.5t-26.5 -37.5t-10 -46.5q0 -28 10 -49.5t27 -36.5t38 -23t44 -8q20 0 40 7.5t36.5 22.5t27 36.5t10.5 50.5z" />
    <glyph glyph-name="at" unicode="@" horiz-adv-x="1962" 
d="M1909 178h-60q-21 -47 -54 -107.5t-82 -124t-115 -125t-152 -109.5t-193.5 -77.5t-238.5 -29.5q-138 0 -252.5 32.5t-205 89.5t-157.5 135.5t-111.5 170.5t-66.5 194.5t-22 206.5q0 146 32.5 276t91.5 240.5t141.5 198t181.5 149t211.5 94.5t232.5 33q139 0 261.5 -43.5
t214 -126t144.5 -201t53 -268.5q0 -107 -21 -199t-56 -167.5t-80.5 -134t-94 -98.5t-97 -60.5t-89.5 -20.5q-24 0 -39.5 9.5t-24.5 22t-12.5 25.5t-3.5 21q0 24 9 67t23 97t31.5 114.5t34.5 119.5l119 415l-162 -24l-32 -115q-4 18 -14.5 43.5t-31 48t-53.5 38.5t-82 16
q-59 0 -124 -30.5t-128.5 -83.5t-121 -124.5t-101.5 -152.5t-70 -168.5t-26 -172.5q0 -56 15.5 -100.5t41.5 -75t59.5 -47t69.5 -16.5q60 0 117 29t109.5 72.5t99 95.5t84.5 98q-11 -63 -15.5 -117t7.5 -93.5t46.5 -62t102.5 -22.5q121 0 225.5 57t182 156t122 232.5
t44.5 287.5q0 174 -59 307.5t-160.5 223.5t-237 136t-287.5 46q-113 0 -230 -28.5t-226 -86t-205 -142.5t-167.5 -198t-113 -253t-41.5 -308q0 -109 25 -219.5t75.5 -213t126.5 -192t177 -156t227 -105t277 -38.5q144 0 263 34t214.5 88.5t168.5 124t125 140.5t84.5 137.5
t45.5 114.5zM1171 535q-27 -69 -69 -136.5t-92.5 -121t-105 -86.5t-105.5 -33q-19 0 -40 9t-38.5 27t-29 45.5t-11.5 65.5q0 44 17 109.5t46.5 137.5t69.5 144t87 129.5t98 93t102 35.5q49 0 81 -28.5t43 -82.5t-1.5 -132t-51.5 -176z" />
    <glyph glyph-name="A" unicode="A" horiz-adv-x="1530" 
d="M1513 0v39q-44 3 -75.5 12t-58 33t-51.5 68t-56 118l-490 1172h-37l-495 -1161q-25 -58 -48 -102t-49.5 -74t-59 -46.5t-77.5 -19.5v-39h445v39q-74 6 -111 21.5t-47.5 41.5t-0.5 62t30 84l96 225h547l84 -203q18 -43 31.5 -84t8.5 -73t-36.5 -52.5t-104.5 -21.5v-39h555
zM946 549h-485l246 571z" />
    <glyph glyph-name="B" unicode="B" horiz-adv-x="1384" 
d="M1303 385q0 60 -19 114t-58 98t-99.5 76t-143.5 48q64 20 112 51.5t80 72t48 88.5t16 99q0 42 -9.5 86.5t-34 86t-67 79t-108.5 65t-158.5 44t-216.5 16.5h-608v-37h51q42 0 71.5 -11.5t49.5 -33.5q29 -35 29 -166v-911q0 -60 -6 -98.5t-17 -55.5q-39 -57 -127 -57h-51
v-39h663q91 0 161.5 6t126 18.5t97.5 31.5t76 46t60.5 61t44.5 71t27.5 75.5t9.5 75.5zM1020 1042q0 -66 -21.5 -118t-67.5 -88t-118.5 -55t-175.5 -19q-62 0 -110 2.5t-89 11.5v543q42 11 89 15.5t100 4.5q100 0 173.5 -24t122.5 -64.5t73 -94.5t24 -114zM1063 369
q0 -65 -25 -119t-74 -93t-120.5 -61t-165.5 -22q-60 0 -119 7t-121 21v578q29 6 74 8t111 2q107 0 189.5 -23.5t138 -66.5t84 -102t28.5 -129z" />
    <glyph glyph-name="C" unicode="C" horiz-adv-x="1421" 
d="M1346 330l-31 22q-62 -88 -117.5 -145t-111.5 -90t-115 -45.5t-129 -12.5q-119 0 -216.5 40.5t-167 119.5t-107.5 195.5t-38 267.5q0 176 37 305t103.5 214t158 126t199.5 41q82 0 154 -23t131.5 -71.5t106.5 -125.5t79 -185h33l-33 479h-37q-12 -50 -35 -74.5t-51 -24.5
q-16 0 -45 15.5t-73.5 34t-105 34t-140.5 15.5q-108 0 -203.5 -27.5t-175.5 -77.5t-143 -120t-107 -154t-67 -180.5t-23 -198.5q0 -144 46.5 -274.5t134.5 -228.5t215.5 -156t289.5 -58q100 0 184 22t155.5 67t131.5 113.5t113 160.5z" />
    <glyph glyph-name="D" unicode="D" horiz-adv-x="1538" 
d="M1456 713q0 83 -15.5 159.5t-44 144.5t-68.5 125t-89 101q-50 44 -110.5 75.5t-137 51.5t-170.5 29.5t-211 9.5h-573v-37h53q40 0 69.5 -11.5t51.5 -33.5q27 -36 27 -166v-911q0 -60 -6 -98.5t-17 -55.5q-17 -29 -48.5 -43t-76.5 -14h-53v-39h631q203 0 351.5 55.5
t245.5 152.5t144 226.5t47 278.5zM1221 702q0 -147 -43 -264.5t-118.5 -199t-178.5 -124.5t-222 -42q-45 0 -100 8t-121 22v1198q62 17 114.5 24t98.5 7q124 0 229 -43.5t180.5 -125t118 -198t42.5 -262.5z" />
    <glyph glyph-name="E" unicode="E" horiz-adv-x="1300" 
d="M1253 354h-43q-49 -87 -86.5 -141t-80.5 -84.5t-99 -41.5t-143 -11h-238q-50 0 -75 12t-34.5 33t-9.5 49v63v465h310q71 0 112 -12t63 -37t31 -65t17 -95h39v490h-39q-8 -54 -17 -92t-30.5 -63t-62.5 -36.5t-113 -11.5h-310v557h390q62 0 104.5 -8.5t70 -24.5t43.5 -37.5
t25.5 -47t15 -54.5t13.5 -59h41l-17 307h-1085v-37h49q44 0 75.5 -11.5t49.5 -31.5q27 -29 27 -164v-915q0 -46 -2.5 -76.5t-7.5 -50t-13 -31t-18 -20.5q-11 -9 -26.5 -15.5t-31.5 -10.5t-30 -5.5t-23 -1.5h-49v-39h1085z" />
    <glyph glyph-name="F" unicode="F" horiz-adv-x="1184" 
d="M1098 1102l-15 307h-1048v-37h51q34 0 66.5 -12.5t54.5 -34.5q15 -15 22 -51.5t7 -112.5v-911q0 -127 -25 -160q-42 -51 -125 -51h-51v-39h604v39h-51q-37 0 -72.5 13.5t-56.5 39.5q-16 16 -19.5 53t-3.5 105v442h256q53 0 88.5 -12t57 -37t30.5 -62t9 -87h38v477h-38
q-8 -55 -20.5 -91.5t-33.5 -58.5t-53 -31.5t-78 -9.5h-256v553h312q77 0 128.5 -12t86 -39t57 -71.5t41.5 -108.5h37z" />
    <glyph glyph-name="G" unicode="G" horiz-adv-x="1538" 
d="M1507 731v37h-544v-37q57 -2 93 -10t56.5 -30t27.5 -61.5t7 -105.5v-407q-69 -42 -142.5 -60t-148.5 -18q-117 0 -216.5 51t-172.5 142.5t-114 218.5t-40 278q1 136 35.5 253t101.5 203.5t165.5 135.5t226.5 49q79 0 149.5 -20.5t129.5 -65t106.5 -115.5t81.5 -172h34
l-34 445h-39q-3 -28 -9 -45.5t-13 -27.5t-14.5 -13.5t-14.5 -3.5q-20 0 -51 14t-79 31t-114 31t-154 14q-122 0 -225 -32t-186 -87.5t-146 -129.5t-105 -158.5t-63.5 -174.5t-21.5 -176q0 -150 53 -281t153.5 -228t245.5 -152.5t328 -55.5q133 0 255.5 29.5t240.5 97.5v430
q0 57 5 95t17 57q28 55 111 55h24z" />
    <glyph glyph-name="H" unicode="H" horiz-adv-x="1538" 
d="M1495 0v39h-51q-37 0 -73 12.5t-54 38.5q-9 12 -14 25.5t-7.5 32.5t-3 43.5t-0.5 58.5v911q0 42 0.5 68.5t3.5 44t9 29.5t18 24q22 22 56 33.5t65 11.5h51v37h-604v-37h51q35 0 68 -12.5t53 -32.5q15 -15 23 -52t8 -114v-405h-658v405q0 40 2.5 68t6.5 47t10 31t14 20
q22 25 54 35t67 10h51v37h-604v-37h51q15 0 33.5 -4t35.5 -10.5t31 -15t21 -17.5q8 -11 13.5 -24t9 -32t5 -45t1.5 -63v-911q0 -127 -25 -160q-42 -51 -125 -51h-51v-39h604v39h-51q-37 0 -73 13.5t-54 35.5q-14 17 -20.5 54t-6.5 108v430h658v-430q0 -65 -7.5 -104.5
t-19.5 -55.5q-39 -51 -125 -51h-51v-39h604z" />
    <glyph glyph-name="I" unicode="I" horiz-adv-x="709" 
d="M657 0v39h-51q-18 0 -38 4.5t-38 11.5t-31.5 16t-19.5 17q-12 19 -18 56.5t-6 105.5v911q0 63 7 103t19 57q42 51 125 51h51v37h-604v-37h51q36 0 71.5 -14t55.5 -39q8 -9 12.5 -21.5t7 -31t3 -44t0.5 -61.5v-911q0 -129 -25 -160q-21 -26 -51 -38.5t-74 -12.5h-51v-39
h604z" />
    <glyph glyph-name="J" unicode="J" horiz-adv-x="829" 
d="M815 1372v37h-602v-37h49q21 0 42 -5t39 -13t32 -18.5t20 -20.5q13 -20 17 -56t4 -98v-962q0 -44 -7.5 -74t-18.5 -49t-25 -27t-27 -8q-22 0 -35.5 14.5t-23.5 36t-20 47t-23.5 47t-34 36t-51.5 14.5q-20 0 -39 -6.5t-33.5 -19.5t-23.5 -34t-9 -49q0 -30 13 -59
t39.5 -51.5t65.5 -36t91 -13.5q32 0 71.5 7.5t79.5 27.5t77.5 55t67 91t47 135.5t17.5 187.5v690q0 124 25 160q22 25 52 38t73 13h51z" />
    <glyph glyph-name="K" unicode="K" horiz-adv-x="1538" 
d="M1556 0v39q-46 5 -90.5 16.5t-89.5 34.5q-92 46 -219 174l-520 518l215 215q67 67 112 113t75.5 76.5t50.5 49t35.5 31t31.5 23.5t39 25q28 18 51 29t43.5 17t40 8.5t41.5 2.5v37h-520v-37h33q52 0 73 -19t21 -40q0 -19 -6.5 -36.5t-20.5 -37.5q-32 -48 -125 -147
t-247 -242q-62 -57 -97.5 -89.5t-46.5 -41.5v442q0 45 2.5 74t7 47.5t11 29.5t14.5 19q22 22 54 31.5t63 9.5h49v37h-600v-37h49q17 0 36 -4.5t36.5 -11t31 -14.5t19.5 -15q14 -17 20.5 -56t6.5 -110v-911q0 -130 -23 -160q-42 -51 -127 -51h-49v-39h600v39h-49
q-38 0 -73.5 13t-53.5 38q-8 12 -13 25.5t-7.5 32.5t-3.5 43.5t-1 58.5v332l62 61l424 -422q23 -23 38.5 -40t24.5 -30.5t12.5 -24.5t1.5 -22q-3 -27 -28.5 -46t-85.5 -19v-39h671z" />
    <glyph glyph-name="L" unicode="L" horiz-adv-x="1300" 
d="M1257 383l-36 6q-20 -47 -37 -81.5t-35 -61.5t-38.5 -49t-47.5 -45q-22 -20 -47.5 -32t-60 -18.5t-81 -9t-110.5 -2.5h-143q-46 0 -79.5 5t-55 23t-32 53t-10.5 95v928q0 60 15 95t42.5 53t65.5 23t84 5v39h-612v-39q46 0 84 -5t65.5 -23t42.5 -53t15 -95v-979
q0 -60 -15 -95t-42.5 -53t-65.5 -23t-84 -5v-39h1096z" />
    <glyph glyph-name="M" unicode="M" horiz-adv-x="1894" 
d="M1849 0v39h-49q-84 0 -121 43q-30 33 -30 164v919q0 60 5.5 97.5t16.5 56.5q41 53 129 53h49v37h-399l-504 -1102l-512 1102h-397v-37q31 0 54.5 -3t41 -8t31 -12t24.5 -16q28 -21 36.5 -61.5t8.5 -106.5v-919q0 -62 -5.5 -99t-14.5 -53q-22 -29 -52 -42t-75 -13h-49v-39
h489v39h-49q-87 0 -121 43q-30 33 -30 164v940l544 -1186h35l545 1186v-940q0 -62 -6 -99t-17 -53q-20 -29 -50.5 -42t-78.5 -13h-49v-39h600z" />
    <glyph glyph-name="N" unicode="N" horiz-adv-x="1538" 
d="M1507 1372v37h-489v-37h47q84 0 123 -45q29 -29 29 -162v-813l-861 1057h-344v-37q62 0 103.5 -19t68 -43.5t41.5 -49t25 -35.5v-979q0 -121 -25 -152q-17 -29 -48.5 -42t-78.5 -13h-49v-39h492v39h-49q-84 0 -123 43q-29 34 -29 164v866l932 -1135h37v1188q0 60 5 97.5
t17 56.5q17 26 49.5 39.5t77.5 13.5h49z" />
    <glyph glyph-name="O" unicode="O" horiz-adv-x="1538" 
d="M1454 713q0 105 -24.5 200.5t-68.5 176.5t-105.5 146t-136.5 111t-161 70.5t-178 24.5q-100 0 -191.5 -25t-170 -71.5t-142 -112t-108.5 -147t-69.5 -177t-24.5 -200.5q0 -166 53.5 -303t146.5 -234.5t218.5 -151t269.5 -53.5q98 0 187.5 25.5t166.5 73t139.5 114.5
t106.5 150t68 180t24 203zM1219 686q-1 -167 -35 -288.5t-95 -201t-145 -118t-184 -37.5q-109 1 -192.5 50.5t-140 138t-85.5 212.5t-29 273q0 151 29.5 272.5t86.5 206t140 130t189 44.5q117 -1 203.5 -47t144 -133.5t86 -214t27.5 -287.5z" />
    <glyph glyph-name="P" unicode="P" horiz-adv-x="1184" 
d="M1110 1020q0 55 -12.5 99.5t-34.5 80.5t-51.5 65.5t-63.5 55.5q-37 28 -83.5 45t-98 26.5t-106.5 13t-109 3.5h-514v-37h51q42 0 71.5 -11.5t49.5 -33.5q27 -36 27 -166v-911q0 -62 -6 -100t-15 -54q-37 -57 -127 -57h-51v-39h602v39h-53q-81 0 -119 47q-17 15 -24 56.5
t-7 107.5v391q40 -5 65.5 -7t44.5 -2.5t34 -0.5h36q139 -1 233.5 29.5t152.5 83.5t83 124t25 152zM872 999q-1 -68 -22.5 -123.5t-57.5 -95t-84 -61t-102 -21.5q-31 0 -73.5 2.5t-96.5 10.5v596q42 9 76.5 14.5t60.5 5.5q75 0 131 -27t93.5 -72.5t56.5 -105t18 -123.5z" />
    <glyph glyph-name="Q" unicode="Q" horiz-adv-x="1538" 
d="M1456 705q0 161 -53.5 296.5t-146 233.5t-216 152.5t-264.5 54.5q-99 0 -189.5 -25t-168.5 -71t-141.5 -111.5t-108.5 -147.5t-69.5 -178t-24.5 -202q0 -114 26.5 -222.5t86.5 -203t156.5 -170.5t236.5 -125q67 -75 164.5 -145t212 -126t240.5 -91.5t251 -41.5v35
q-81 6 -151 30.5t-132.5 70t-118.5 112t-108 156.5q117 35 212.5 103.5t163.5 162t105 209t37 244.5zM1219 678q0 -150 -30.5 -268.5t-89 -201t-143.5 -126.5t-194 -43t-193 49.5t-141 136.5t-86 210.5t-29 271.5q0 160 31 283t89 206t141 125.5t188 42.5q111 0 196.5 -48.5
t143.5 -138t87.5 -216t29.5 -283.5z" />
    <glyph glyph-name="R" unicode="R" horiz-adv-x="1421" 
d="M1440 0v39q-59 6 -104.5 19.5t-87 40.5t-81.5 71t-88 111l-288 405q88 20 153 54.5t108 81t64 104t21 123.5q0 60 -19.5 112t-53.5 94t-80.5 72.5t-100.5 48.5q-54 17 -138 25t-196 8h-512v-37h53q40 0 69.5 -11.5t51.5 -33.5q27 -36 27 -166v-911q0 -123 -21 -154
q-35 -57 -127 -57h-53v-39h604v39h-55q-81 0 -119 47q-31 30 -31 164v409q18 -3 33 -4t31.5 -0.5t36.5 1.5t49 3l477 -659h377zM903 1032q0 -67 -25 -123t-75 -97t-127 -64t-180 -23h-60v588q108 18 164 18q69 -2 125 -24t95.5 -61t61 -93.5t21.5 -120.5z" />
    <glyph glyph-name="S" unicode="S" horiz-adv-x="1184" 
d="M1071 360q0 87 -40 163t-111 130q-38 28 -104.5 69t-166.5 95q-104 56 -172 98.5t-107.5 79t-55 71.5t-15.5 77q0 44 19.5 83.5t53 69t79 47t96.5 17.5q74 0 140.5 -26t119 -77.5t87 -127.5t44.5 -175h39v488h-39q-11 -45 -27.5 -62t-39.5 -17t-53.5 12.5t-70.5 27
t-90 27t-112 12.5q-95 0 -170.5 -30t-129 -81t-82 -118t-28.5 -142q0 -65 17 -118t62 -104t125 -106.5t206 -126.5q93 -52 157.5 -91.5t105 -77t59 -77t18.5 -91.5q0 -46 -19.5 -88t-56.5 -73.5t-89 -50t-116 -18.5q-75 0 -145.5 22t-127 70t-95.5 124.5t-52 185.5h-37v-484
h37q7 46 22.5 63.5t40.5 17.5q26 0 61 -12.5t82 -28t106 -28t131 -12.5q97 0 179 31t140.5 84.5t91.5 125t33 152.5z" />
    <glyph glyph-name="T" unicode="T" horiz-adv-x="1296" 
d="M1247 1079l-12 330h-1169l-15 -330h47q12 144 88 199q15 13 30.5 21.5t37 14t51.5 7.5t72 2h168v-1077q0 -62 -5.5 -99t-15.5 -53q-21 -29 -51.5 -42t-75.5 -13h-51v-39h598v39h-49q-84 0 -121 43q-14 17 -21.5 57.5t-7.5 106.5v1077h199q71 0 115 -17.5t78 -52.5
q12 -12 22 -26.5t18.5 -34.5t14.5 -47.5t10 -65.5h45z" />
    <glyph glyph-name="U" unicode="U" horiz-adv-x="1538" 
d="M1516 1372v37h-500v-37h53q79 0 121 -45q29 -35 29 -166v-571q0 -29 -0.5 -82.5t-9 -113t-29 -117t-60.5 -95.5q-19 -18 -50.5 -40t-74 -41.5t-96 -32.5t-117.5 -13q-90 0 -151.5 23.5t-102.5 63t-63.5 90t-33.5 105t-13 108.5t-2 100v616q0 59 7 97.5t19 58.5
q9 14 18.5 24.5t21.5 17t27.5 10t37.5 3.5h53v37h-569v-37h32q42 0 71 -9.5t46 -31.5q19 -21 27 -63t8 -107v-553v-92q0 -49 5 -102t17.5 -106.5t37 -103.5t64.5 -93t99 -75t140.5 -50.5t189.5 -18.5q78 0 139.5 9.5t111.5 28.5t91 48.5t80 69.5q37 39 61 88t38 106.5
t19 123.5t5 139v573q0 119 22 147q23 36 53.5 54t73.5 18h54z" />
    <glyph glyph-name="V" unicode="V" horiz-adv-x="1538" 
d="M1511 1372v37h-434v-37q39 -7 63.5 -14.5t39.5 -16t23 -17t14 -17.5q17 -28 4.5 -76t-43.5 -125l-332 -819l-361 827q-35 81 -44 130t10 77q14 22 47.5 33.5t95.5 17.5v37h-576v-37q50 -5 80.5 -14.5t53.5 -28.5q9 -8 17.5 -14.5t18.5 -20.5t23.5 -39.5t32.5 -70.5
l526 -1217h39l491 1202q44 107 99 156q18 19 46.5 30t65.5 17z" />
    <glyph glyph-name="W" unicode="W" horiz-adv-x="2011" 
d="M1993 1372v37h-420v-37q49 0 84 -9.5t55 -35.5q11 -15 14 -33.5t-1.5 -44.5t-15 -61t-26.5 -82l-268 -778l-272 768q-23 65 -34 110.5t-11 73.5q0 45 27.5 68.5t84.5 23.5h37v37h-549v-37q45 0 70 -9t45 -26q22 -18 45 -58.5t42.5 -86.5t35.5 -90.5t24 -71.5t9 -29
l-234 -673l-276 792q-20 58 -30 93.5t-13 57t0 33t8 21.5q24 47 100 47h25v37h-520v-37q91 0 127 -45q9 -7 15.5 -15.5t15.5 -27.5t21.5 -53t33.5 -92l417 -1172h39l320 901l319 -901h43l392 1139q23 68 40.5 111.5t26.5 60.5q16 29 33 47.5t36 29t40 14t45 3.5z" />
    <glyph glyph-name="X" unicode="X" horiz-adv-x="1538" 
d="M1511 0v39q-46 3 -81 13.5t-71.5 41t-80.5 86.5t-107 150l-303 452l283 357q46 58 81.5 100.5t71.5 70.5t77.5 43t99.5 19v37h-502v-37q38 -1 62 -3.5t39 -7.5t23.5 -12.5t16.5 -17.5q20 -26 6 -63t-59 -94l-250 -318l-217 324q-24 36 -36 61.5t-13.5 44t7 32t24.5 25.5
q34 26 114 29v37h-651v-37q52 -3 96.5 -15.5t87.5 -42.5t88.5 -81t100.5 -131l278 -408l-334 -422q-35 -44 -76.5 -85.5t-86.5 -74t-92 -52.5t-93 -21v-39h502v39q-41 1 -67.5 8t-41.5 17.5t-20.5 24.5t-5.5 30q0 13 2 24t9 24t19 30.5t33 44.5l297 379l238 -363
q29 -45 45 -73t21.5 -46.5t1.5 -32t-15 -28.5q-15 -22 -43.5 -30.5t-81.5 -8.5v-39h604z" />
    <glyph glyph-name="Y" unicode="Y" horiz-adv-x="1538" 
d="M1507 1372v37h-491v-37q29 0 50 -4t35.5 -10.5t24 -15.5t15.5 -19q29 -38 15 -83t-60 -116l-279 -434l-293 453q-32 51 -47.5 85.5t-15.5 51.5q0 28 15 46t36 28.5t43 14t37 3.5h31v37h-605v-37q42 0 80 -18.5t64 -38.5q29 -23 53.5 -59t58.5 -87l385 -589v-334
q0 -62 -5.5 -99t-14.5 -53q-22 -29 -52 -42t-75 -13h-49v-39h598v39h-45q-89 0 -125 43q-31 32 -31 164v352l342 535q32 51 57.5 87.5t47.5 59.5q22 25 47 42.5t49 28.5t44.5 16t33.5 5h26z" />
    <glyph glyph-name="Z" unicode="Z" horiz-adv-x="1300" 
d="M1241 373l-33 6q-29 -90 -60.5 -148.5t-68.5 -87.5q-69 -57 -202 -57h-578l926 1323h-1043l-28 -352h39q8 51 17 87t19 61.5t21.5 42t25.5 28.5q31 26 77.5 38.5t127.5 12.5h449l-901 -1288v-39h1147z" />
    <glyph glyph-name="underscore" unicode="_" horiz-adv-x="1024" 
d="M1024 -240v76h-1024v-76h1024z" />
    <glyph glyph-name="grave" unicode="`" horiz-adv-x="799" 
d="M485 1083l-295 297q-29 29 -63 49.5t-61 20.5q-31 0 -48.5 -21.5t-17.5 -58.5q0 -14 9.5 -27t23.5 -24.5t30 -22t29 -18.5l307 -195h86z" />
    <glyph glyph-name="a" unicode="a" horiz-adv-x="946" 
d="M944 137v60q-29 -29 -46.5 -45.5t-29 -25t-20 -11t-17.5 -2.5q-20 0 -30 11.5t-15 39.5q-2 15 -4 57.5t-2 108.5v325q0 75 -11 135t-45 102t-97 64.5t-166 22.5q-68 0 -131 -16t-111 -46.5t-77 -75t-29 -100.5q0 -48 23 -74t65 -26q38 0 63 26.5t23 71.5l-2 62
q3 49 40.5 83t102.5 34q45 0 78.5 -13t55.5 -42.5t33 -77t11 -115.5v-39q-113 -39 -196 -74.5t-142 -68.5t-96.5 -65t-58.5 -64t-29 -65t-8 -69q0 -55 16.5 -100t46.5 -76.5t71.5 -49t92.5 -17.5q37 0 65.5 6t60.5 22.5t73 47t104 79.5q0 -45 9 -75t24 -48t35 -25t43 -7
q111 0 227 155zM606 205q-65 -53 -116.5 -80t-92.5 -25q-30 1 -56.5 14.5t-46 36.5t-31 54.5t-11.5 68.5q0 35 10 68t46.5 67.5t107 73.5t190.5 86v-364z" />
    <glyph glyph-name="b" unicode="b" horiz-adv-x="1065" 
d="M991 514q0 109 -29.5 195.5t-79.5 146.5t-116 91.5t-139 31.5q-161 0 -299 -191v691h-49l-287 -115l14 -37q49 16 73 16q25 0 42 -14q9 -8 15.5 -18t10 -35t5.5 -71.5t2 -127.5v-985q92 -63 178 -93t168 -30q98 0 187 41t156.5 114t107.5 173t40 217zM811 455
q0 -102 -23 -178.5t-60 -127.5t-83 -76.5t-92 -25.5q-60 0 -117 27t-108 78v571q39 37 70.5 59t57 33.5t47 15t40.5 3.5q54 0 103 -25.5t85.5 -74.5t58 -119t21.5 -160z" />
    <glyph glyph-name="c" unicode="c" horiz-adv-x="946" 
d="M874 362l-28 15q-31 -74 -64.5 -121t-70.5 -74t-77 -37t-83 -10q-75 0 -132.5 35.5t-96.5 95t-59.5 137.5t-20.5 162q0 74 17 137t49 109.5t78.5 73t105.5 26.5q72 0 106 -34.5t39 -90.5q3 -43 15.5 -67.5t29.5 -36.5t36 -15t34 -3q49 0 73.5 26.5t24.5 61.5
q0 40 -23.5 78t-68.5 75q-91 74 -232 74q-93 0 -175.5 -36.5t-144.5 -102.5t-98 -159t-36 -206q0 -116 32 -209.5t87 -159.5t128.5 -101.5t157.5 -35.5q70 0 136 29t119.5 81t90.5 124t51 159z" />
    <glyph glyph-name="d" unicode="d" horiz-adv-x="1065" 
d="M1073 88l-12 37q-42 -16 -69 -18t-46 14q-12 8 -18.5 20.5t-9.5 39t-4 73t-1 123.5v1102h-47l-286 -115l14 -37q42 14 69 16.5t44 -14.5q9 -9 15 -20t10 -36t5.5 -71t1.5 -125v-176q-42 42 -93.5 61t-113.5 19q-74 -1 -137 -24t-114.5 -63t-90.5 -93.5t-66 -113.5
t-40.5 -124.5t-13.5 -126.5q0 -101 31.5 -186.5t85 -147.5t124.5 -97.5t150 -35.5q83 0 149 35.5t129 101.5v-137h47zM739 180q-45 -48 -89.5 -71t-94.5 -23q-50 1 -102 25.5t-94.5 76.5t-69.5 134t-27 198q0 91 20.5 165.5t55.5 127t82 80t100 25.5q51 -2 92 -25.5
t69 -59.5t43 -78.5t15 -82.5v-492z" />
    <glyph glyph-name="e" unicode="e" horiz-adv-x="946" 
d="M885 348l-33 21q-26 -66 -55 -110t-63.5 -70.5t-74.5 -37.5t-86 -10q-70 1 -133 32t-111 89t-76 142t-28 190h660q0 91 -27.5 162.5t-76.5 121.5t-116 76.5t-145 26.5q-97 0 -178 -35t-139.5 -101.5t-91.5 -162.5t-33 -217q0 -114 33 -205.5t90 -156t132.5 -99.5
t160.5 -35q82 0 149.5 33t117.5 86.5t81.5 121.5t42.5 138zM668 653h-443q6 61 28 108.5t54.5 80t72 49t81.5 16.5q26 0 61.5 -10.5t68 -38.5t55 -77.5t22.5 -127.5z" />
    <glyph glyph-name="f" unicode="f" horiz-adv-x="709" 
d="M926 1300q0 36 -24 68t-62 57t-84.5 39.5t-91.5 14.5q-17 0 -53 -4.5t-80 -20t-91.5 -45.5t-86.5 -81.5t-64 -128t-25 -183.5v-64h-186v-75h186v-625q0 -45 -2 -75t-6.5 -49.5t-13 -32t-21.5 -23.5q-23 -20 -46 -26.5t-48 -6.5h-43v-39h573v39h-86q-69 0 -102 45
q-17 17 -24 59.5t-7 108.5v625h246v75h-246v68q0 100 4 172.5t18.5 118.5t43 68t78.5 22q36 0 62 -14t46 -35t36 -45.5t33 -45t36.5 -34.5t46.5 -13q18 0 33 8.5t26.5 21t18 27.5t6.5 29z" />
    <glyph glyph-name="g" unicode="g" horiz-adv-x="1065" 
d="M1026 868q0 38 -14 41q-15 3 -27.5 3.5t-28 -1t-37 -3t-53.5 -1.5q-49 0 -86 11t-74.5 24.5t-81 25t-104.5 11.5q-89 0 -159.5 -28.5t-119 -76t-74.5 -109t-26 -128.5q0 -43 11.5 -86t34 -81.5t56.5 -70t79 -51.5q-54 -46 -86.5 -80t-50.5 -60t-23.5 -46.5t-5.5 -38.5
q0 -37 25 -60.5t73 -54.5q-56 -56 -93 -97.5t-59 -73t-30.5 -55t-8.5 -44.5q0 -36 35.5 -71.5t94 -64t134 -46t154.5 -17.5q114 0 211.5 31.5t169 83.5t112 119t40.5 139q0 55 -19.5 93t-50 63t-68.5 38.5t-75 20t-69 8t-50 2.5q-116 3 -184.5 6t-106.5 6.5t-54 9.5t-26 15
q-16 15 -16.5 35t10 41.5t29 42t39.5 35.5q37 -11 73.5 -16t71.5 -5q89 0 159 26t118.5 70t73.5 102.5t24 123.5q0 59 -15 106t-42 84h122h12q11 0 25.5 1.5t20.5 6.5q6 7 8 21t2 20zM709 602q0 -65 -14 -111t-38 -75.5t-56.5 -43.5t-70.5 -14q-50 0 -88.5 24t-65 67
t-40.5 102.5t-14 130.5q0 65 14 112t38.5 77t57.5 44.5t70 14.5q48 0 86.5 -24t65.5 -67t41 -103.5t14 -133.5zM938 -127q0 -38 -22 -75t-67.5 -66t-114 -47.5t-161.5 -18.5q-80 0 -146 11.5t-113.5 31.5t-74 48t-26.5 61q0 24 6.5 46t19.5 43.5t31 44t41 48.5
q63 -9 153 -13.5t208 -9.5q82 -4 134 -11t81 -19t40 -30.5t11 -43.5z" />
    <glyph glyph-name="h" unicode="h" horiz-adv-x="1065" 
d="M1055 0v39q-48 0 -76.5 7.5t-43.5 25.5t-19.5 48t-4.5 75v356q0 46 -1.5 96t-9 97.5t-22.5 90t-42.5 74.5t-69.5 51t-102 19q-38 0 -76.5 -7.5t-78 -29t-79.5 -60t-82 -100.5v697h-49l-287 -115l17 -37q23 9 42 12.5t33 3.5q42 0 56 -34t14 -109v-1005q0 -43 -5 -73
t-20.5 -48.5t-44 -26.5t-75.5 -8v-39h471v39q-51 0 -81 6.5t-45.5 24t-20.5 47.5t-5 78v522q39 45 71.5 72t61 41.5t54 19t49.5 4.5q62 0 94 -30t45 -75.5t13.5 -98.5t0.5 -99v-356q0 -48 -7 -78.5t-24 -48t-47 -23.5t-75 -6v-39h471z" />
    <glyph glyph-name="i" unicode="i" horiz-adv-x="592" 
d="M418 1276q0 21 -8.5 40t-22.5 33.5t-33 22.5t-41 8q-21 0 -40.5 -7.5t-34 -21.5t-23 -33t-8.5 -42q0 -47 30 -77t76 -30q22 0 41.5 8.5t33.5 23t22 34t8 41.5zM545 0v39q-45 0 -73 6t-44.5 23.5t-22.5 48t-6 78.5v784h-45l-288 -115l14 -37q48 17 74 17q42 0 56.5 -35.5
t14.5 -103.5v-510q0 -48 -6 -78t-22 -47.5t-44 -24t-73 -6.5v-39h465z" />
    <glyph glyph-name="j" unicode="j" horiz-adv-x="592" 
d="M416 1276q0 21 -9.5 40.5t-24.5 34t-34 23t-39 8.5q-21 0 -40.5 -8.5t-34 -23t-23 -34t-8.5 -40.5q0 -47 30 -77t76 -30q23 0 42.5 8.5t34 23.5t22.5 34.5t8 40.5zM399 20v959h-45l-288 -115l12 -37q45 16 71 17t46 -15q8 -7 14 -21.5t9.5 -42.5t5 -73t1.5 -112v-678
q0 -48 -1 -98t-9.5 -90t-28.5 -65.5t-57 -25.5q-17 0 -39 11t-45 34q-34 34 -60 50t-63 16q-35 0 -60.5 -26t-25.5 -64q1 -16 12 -34.5t33 -34t57 -26t85 -10.5q81 0 150 29t119.5 88t78.5 150t28 214z" />
    <glyph glyph-name="k" unicode="k" horiz-adv-x="1065" 
d="M1077 0v39q-34 0 -56.5 1t-33.5 7q-17 10 -29 16.5t-24 14.5t-25 20.5t-32 34t-47 55.5t-68 84l-250 312l250 223q35 32 66 53t59 33q29 12 63.5 18.5t77.5 8.5v32h-414v-32q41 -4 57.5 -18t16.5 -36q0 -8 -2.5 -16t-12.5 -20.5t-29.5 -31t-53.5 -46.5l-240 -203v930h-49
l-287 -115l21 -37q25 10 43 13.5t30.5 3t20.5 -5t14 -9.5q9 -8 15 -17.5t9 -35t4 -72.5t1 -129v-866q0 -57 -6.5 -90.5t-20.5 -48.5q-17 -19 -49 -25t-82 -6v-39h488v39q-33 0 -54 1.5t-34.5 5t-22.5 10.5t-18 18q-7 8 -11.5 18.5t-7 26.5t-3.5 39t-1 57v311l291 -368
q15 -20 24 -34t13 -24.5t3.5 -19t-3.5 -17.5q-5 -14 -19 -19t-45 -5v-39h463z" />
    <glyph glyph-name="l" unicode="l" horiz-adv-x="592" 
d="M547 0v39q-31 0 -52 2.5t-35.5 7t-23.5 11.5t-16 16t-12 20t-8.5 27t-5 38t-1.5 54v1264h-45l-287 -115l19 -37q22 9 38.5 12.5t28.5 3.5q13 0 23 -4t20 -10q8 -8 13.5 -17t9 -34t5 -71.5t1.5 -127.5v-864q0 -66 -8 -97t-21 -46q-8 -11 -17.5 -17.5t-22 -10t-29.5 -4.5
t-41 -1v-39h467z" />
    <glyph glyph-name="m" unicode="m" horiz-adv-x="1657" 
d="M1649 0v39q-43 0 -71 7t-44 26.5t-22.5 54t-6.5 88.5v412q0 96 -17.5 163t-50.5 109t-79.5 61t-104.5 19q-40 0 -77 -8.5t-76.5 -31t-83 -61.5t-96.5 -100q-12 52 -35 90t-55 63t-71 36.5t-81 11.5q-35 0 -69.5 -8t-73 -29.5t-84 -61t-103.5 -102.5v201h-45l-289 -115
l17 -37q58 21 87.5 14.5t42 -38t13 -88t0.5 -135.5v-365q0 -56 -5.5 -90.5t-21 -53.5t-43.5 -25.5t-73 -6.5v-39h471v39q-46 0 -76 5t-47 23t-24 53t-7 95v512q22 23 48.5 46.5t57.5 42t65.5 30.5t72.5 12q37 0 67 -12.5t51 -40t32.5 -71.5t11.5 -107v-412q0 -45 -1.5 -78
t-15.5 -54.5t-46 -32.5t-93 -11v-39h483v39q-54 0 -85 8.5t-46 29t-18.5 54t-3.5 84.5v512q38 38 72.5 63t65.5 39.5t58 20.5t50 6q40 0 69.5 -12t49 -39t29 -70.5t9.5 -107.5v-412q0 -48 -3 -81.5t-17.5 -54.5t-45.5 -30.5t-87 -9.5v-39h471z" />
    <glyph glyph-name="n" unicode="n" horiz-adv-x="1065" 
d="M1061 0v39q-48 0 -77 7.5t-44.5 27.5t-21 54t-5.5 87v408q0 81 -13 146.5t-42 112t-76.5 72t-117.5 25.5q-151 0 -320 -199v199h-43l-291 -115l17 -37q78 32 112 2q8 -7 14 -16.5t9.5 -35t5.5 -74.5t2 -134v-354q0 -54 -5.5 -88.5t-21 -54t-43.5 -26.5t-73 -7v-39h473v39
q-52 0 -82.5 6.5t-47 25.5t-21.5 53.5t-5 90.5v502q62 68 124 101.5t122 33.5q84 0 116.5 -59.5t32.5 -188.5v-389q0 -55 -4.5 -89.5t-20 -53.5t-46.5 -26t-84 -7v-39h477z" />
    <glyph glyph-name="o" unicode="o" horiz-adv-x="1065" 
d="M991 494q0 102 -33.5 190.5t-94 154t-145 103t-186.5 37.5q-107 0 -192.5 -44t-145 -116t-91 -164t-31.5 -188q0 -99 33 -189t92.5 -159t142 -109.5t182.5 -40.5q78 0 143 22t117 59.5t91.5 88.5t65.5 109.5t39 121.5t13 124zM797 414q0 -102 -17 -172.5t-47.5 -114
t-73.5 -63t-94 -19.5q-68 0 -123.5 41t-95 111t-61 162t-21.5 194q0 103 21.5 172.5t55.5 111t76 59t83 17.5q69 0 124 -38.5t93.5 -105.5t59 -158t20.5 -197z" />
    <glyph glyph-name="p" unicode="p" horiz-adv-x="1065" 
d="M993 512q0 99 -26 184.5t-73 148t-112.5 98.5t-144.5 36q-43 0 -82.5 -11.5t-77 -38t-74 -69.5t-73.5 -106v223h-39l-297 -119l12 -35q47 19 72 17t41 -13q13 -9 20 -19.5t10.5 -28t4 -43t0.5 -64.5v-901q0 -59 -4 -95t-20.5 -56.5t-50 -28t-91.5 -9.5v-39h504v39
q-57 2 -89.5 10t-48.5 28.5t-20 55.5t-4 91v288q34 -30 65 -47t59.5 -26t54 -11t48.5 -2q97 0 177.5 43t138 116.5t89 172.5t31.5 211zM827 414q0 -89 -20 -159.5t-56 -119.5t-86.5 -75.5t-111.5 -26.5q-46 0 -82.5 13.5t-63.5 35t-43.5 48.5t-23.5 54q-5 20 -7.5 57.5
t-2.5 94.5v356q32 35 59.5 64.5t53.5 50.5t52.5 33t57.5 12q56 0 105.5 -25.5t87 -78.5t59.5 -136t22 -198z" />
    <glyph glyph-name="q" unicode="q" horiz-adv-x="1065" 
d="M1069 -457v39q-48 0 -78.5 6.5t-48 25t-23.5 52.5t-6 88v1225h-36q-26 -19 -57 -34.5t-62 -31.5q-37 38 -87.5 52t-109.5 14q-104 0 -194 -40.5t-156 -113t-103.5 -172.5t-37.5 -219q0 -111 31 -197.5t81.5 -146t114.5 -90.5t129 -31q40 0 76.5 10t73.5 33t77 60.5
t86 93.5v-412q0 -59 -7 -93t-25 -51.5t-48 -22.5t-75 -5v-39h485zM739 229q-24 -27 -46.5 -48t-46 -35.5t-50.5 -21.5t-61 -7q-58 0 -110.5 24.5t-92 73t-63 122.5t-23.5 173q0 100 22.5 175t61 124t90 73.5t108.5 24.5q53 0 92.5 -16.5t66 -46.5t39.5 -72.5t13 -93.5v-449z
" />
    <glyph glyph-name="r" unicode="r" horiz-adv-x="729" 
d="M725 864q0 25 -10.5 46.5t-28.5 36.5t-43 23.5t-53 8.5q-127 0 -246 -213v213h-41l-295 -115l10 -37q44 19 71 17t50 -15q9 -10 14.5 -21.5t9.5 -36t5.5 -68.5t1.5 -119v-369q0 -61 -7 -96t-24.5 -53t-46.5 -22.5t-74 -4.5v-39h494v39q-51 0 -83.5 11.5t-51 34.5t-26 57
t-7.5 79v459q40 75 76.5 118.5t62.5 43.5q17 0 32.5 -11.5t32.5 -25.5t37 -25.5t46 -11.5q20 0 37 8t30 21.5t20 31t7 35.5z" />
    <glyph glyph-name="s" unicode="s" horiz-adv-x="829" 
d="M754 240q0 91 -55.5 162t-163.5 122l-154 72q-50 23 -81 46t-48 47.5t-22.5 50.5t-4.5 55q1 55 45.5 90t139.5 35q45 0 84 -13t71.5 -43.5t58 -81.5t44.5 -127h34v324h-34q-13 -25 -22.5 -31t-24.5 -6q-12 0 -34 6t-49.5 12.5t-59.5 12.5t-64 6q-75 0 -132.5 -19.5
t-97 -54t-60 -80.5t-20.5 -100q0 -44 11.5 -81t40 -72t77.5 -70t125 -74q78 -40 125.5 -71.5t74 -60t35 -58t7.5 -64.5q-1 -29 -12 -54.5t-32 -44.5t-51 -30.5t-69 -11.5q-51 0 -97.5 18.5t-85.5 55.5t-67.5 92t-42.5 127h-34v-340h34q7 14 16 30.5t21 16.5
q24 -3 52.5 -13.5t61 -21.5t68.5 -20t74 -9q64 0 121.5 22t101 59.5t69.5 86.5t26 103z" />
    <glyph glyph-name="t" unicode="t" horiz-adv-x="592" 
d="M594 174h-41q-19 -42 -49 -65t-68 -21q-20 1 -37 8.5t-30 25.5t-20 48t-7 76v635h223v71h-223v314h-31q-22 -52 -38 -85t-29 -55.5t-25 -38t-26 -32.5q-41 -48 -88 -87t-89 -55v-32h152v-660q0 -80 16.5 -129.5t43.5 -76.5t60.5 -36.5t67.5 -9.5q31 0 66 12t67.5 37.5
t60 64t44.5 91.5z" />
    <glyph glyph-name="u" unicode="u" horiz-adv-x="1065" 
d="M1067 88l-14 37q-23 -9 -46 -12.5t-38 -3.5q-17 0 -29 6.5t-20 22.5t-11.5 44t-3.5 70v700h-327v-39q40 -2 69 -7t48 -20t27.5 -41.5t8.5 -70.5v-541q-40 -40 -74 -66t-63.5 -41.5t-54 -21.5t-45.5 -6q-52 0 -83 18.5t-47.5 49.5t-22 69.5t-5.5 79.5v637h-336v-39
q45 0 75.5 -5.5t50 -21t28 -44.5t8.5 -76v-426q0 -57 7 -122t32.5 -120.5t74.5 -92t132 -36.5q34 0 66.5 8t69.5 30.5t82 62t105 102.5v-203h47z" />
    <glyph glyph-name="v" unicode="v" horiz-adv-x="1065" 
d="M1047 913v39h-312v-39q28 0 46.5 -2t29.5 -5.5t16.5 -8t8.5 -8.5q12 -17 7 -43t-24 -70l-223 -547l-221 525q-23 52 -21.5 85.5t21.5 55.5q9 11 25 14.5t36 3.5h31v39h-451v-39q28 -5 45.5 -8t26.5 -8q15 -9 27.5 -19.5t23.5 -24t21.5 -32.5t21.5 -45l342 -807h43
l338 819q16 38 31.5 63t32.5 42q14 9 32 13.5t46 6.5z" />
    <glyph glyph-name="w" unicode="w" horiz-adv-x="1538" 
d="M1520 913v39h-301v-39q33 0 52.5 -6t30 -14t14 -17.5t3.5 -15.5q0 -30 -23 -90l-198 -524l-217 547q-8 13 -9.5 27.5t1.5 28t8.5 24t11.5 16.5q15 12 41.5 17t64.5 7v39h-454v-39q32 -2 53.5 -6t32.5 -10q41 -25 65 -86l54 -141l-205 -447l-205 547q-19 48 -18 78t18 47
q18 15 74 18v39h-402v-39q32 -6 56 -16.5t36 -24.5q16 -14 30 -39t30 -63l307 -801h39l276 611l238 -611h43l317 824q43 108 136 120z" />
    <glyph glyph-name="x" unicode="x" horiz-adv-x="1065" 
d="M1040 0v39q-31 2 -60 9.5t-38 17.5q-21 21 -35.5 36t-27 30t-27 34.5t-35.5 50.5l-237 340l129 176q37 51 65 84.5t54 54.5t52 30t58 11v39h-322v-39q31 0 48 -9t23 -21.5t3 -27t-10 -26.5l-141 -204l-136 213q-5 9 -6 22.5t6.5 26t25 20.5t48.5 6v39h-448v-39
q34 -2 58.5 -7t48.5 -21.5t51.5 -49.5t66.5 -90l180 -262l-201 -266q-40 -53 -67.5 -87t-49.5 -53.5t-40 -28t-39 -9.5v-39h311v39q-40 1 -61 13t-28.5 28t-3.5 33.5t15 31.5l207 277l197 -291q7 -10 9 -25.5t-5.5 -30.5t-28 -25.5t-59.5 -10.5v-39h450z" />
    <glyph glyph-name="y" unicode="y" horiz-adv-x="1065" 
d="M1053 913v39h-310v-39q26 0 42 -2t25 -5t13.5 -7t7.5 -8q6 -9 8 -22t0 -28.5t-7 -31.5t-13 -31l-213 -526l-231 479q-17 37 -26 64t-9 49q0 34 28 51.5t66 17.5h23v39h-445v-39q39 -3 67 -21t48 -42t33 -50l22 -44l342 -717l-67 -166q-18 -45 -37 -75.5t-37.5 -49
t-36 -26t-33.5 -7.5q-6 0 -23 6t-38.5 12.5t-44 12.5t-39.5 6q-53 0 -80 -26t-27 -68q0 -25 10.5 -46.5t29.5 -37.5t45 -25.5t57 -9.5q45 0 90.5 18.5t87.5 54.5t79 88t64 120l387 950q19 47 35 74.5t32 42.5t34 19.5t41 6.5z" />
    <glyph glyph-name="z" unicode="z" horiz-adv-x="946" 
d="M911 913v39h-798l-7 -264h41q4 42 11.5 73t18 52t24 33.5t28.5 19.5q19 6 51.5 10.5t81.5 4.5h314l-633 -842v-39h840l12 291h-37q-8 -66 -16.5 -102.5t-20 -56t-25 -27.5t-30.5 -17q-38 -18 -145 -18h-349z" />
    <glyph glyph-name="bar" unicode="|" horiz-adv-x="426" 
d="M256 -461v1940h-88v-1940h88z" />
    <glyph glyph-name="asciitilde" unicode="~" horiz-adv-x="1159" 
d="M1118 655l-59 78q-15 -31 -38 -63.5t-52 -59.5t-62.5 -44t-70.5 -17q-29 0 -67 11.5t-81 29.5t-90 38t-93 38t-89 29.5t-80 11.5q-57 0 -101 -21.5t-79 -56.5t-63 -79t-52 -89l57 -76q19 32 41 67t49 64t61 47.5t77 18.5q56 0 118 -24t126.5 -53t129 -53t125.5 -24
q52 0 96 19.5t80.5 52t65.5 73t51 82.5z" />
    <glyph glyph-name="quotesinglbase" unicode="&#x201a;" horiz-adv-x="709" 
d="M518 0q0 48 -16.5 86t-42 65t-58 41.5t-63.5 14.5q-21 0 -45.5 -7.5t-44.5 -22.5t-33.5 -37.5t-13.5 -53.5q0 -26 9.5 -47t24.5 -35t33.5 -21.5t36.5 -7.5q10 0 21 2.5t21.5 6t19.5 6t16 2.5q4 0 10.5 -2.5t13 -9.5t11 -19.5t4.5 -32.5q0 -42 -17 -75t-42.5 -58.5
t-56 -45.5t-58.5 -36v-45q30 10 76 32.5t89 62t74 98t31 139.5z" />
    <glyph glyph-name="florin" unicode="&#x192;" horiz-adv-x="1065" 
d="M1040 1327q0 25 -11 46t-30 36.5t-45 24t-57 8.5q-42 0 -80.5 -13.5t-74.5 -51t-71.5 -104.5t-72.5 -175q-21 -62 -35.5 -98t-36.5 -54.5t-59 -25.5t-102 -11l-15 -67h180q-61 -248 -92 -384t-35 -153q-42 -207 -64.5 -314t-25.5 -118q-23 -94 -45.5 -146t-43.5 -77
t-39.5 -30t-32.5 -5q-17 0 -22 7t-5 13q0 8 4 13.5t8.5 12t8.5 14.5t4 20q0 22 -19.5 39.5t-48.5 17.5q-34 0 -57 -23.5t-23 -66.5q0 -48 34 -78t91 -30q59 0 113 28.5t102.5 93t93.5 170t86 258.5q63 231 108.5 414t69.5 324h181l16 67h-182q17 111 30 200.5t31 153
t44.5 98t70.5 34.5q14 0 24.5 -6.5t10.5 -20.5q0 -6 -3.5 -13.5t-8 -15.5t-8 -17t-3.5 -19q0 -23 19 -40.5t47 -17.5q34 0 52.5 25.5t18.5 56.5z" />
    <glyph glyph-name="quotedblbase" unicode="&#x201e;" horiz-adv-x="944" 
d="M885 -2q0 48 -16.5 86t-42.5 65t-58 41.5t-63 14.5q-22 0 -46 -7.5t-44.5 -22.5t-34 -37.5t-13.5 -53.5q0 -26 10 -47t25 -35t33.5 -21.5t36.5 -7.5q10 0 20.5 2.5t21 6t20 6t16.5 2.5q4 0 10.5 -2.5t12.5 -9.5t10.5 -19.5t4.5 -32.5q0 -42 -17 -75t-42.5 -58.5
t-56 -45.5t-58.5 -36v-45q30 10 76 32.5t89.5 62t74.5 98t31 139.5zM387 0q0 48 -16.5 86t-42 65t-58 41.5t-63.5 14.5q-21 0 -45.5 -7.5t-44.5 -22.5t-33.5 -37.5t-13.5 -53.5q0 -26 9.5 -47t24.5 -35t33.5 -21.5t36.5 -7.5q20 0 42 8.5t36 8.5q4 0 10.5 -2.5t13 -9.5
t11 -19.5t4.5 -32.5q0 -42 -17 -75t-42.5 -58.5t-56.5 -45.5t-58 -36v-45q30 10 76 32.5t89 62t74 98t31 139.5z" />
    <glyph glyph-name="ellipsis" unicode="&#x2026;" horiz-adv-x="2134" 
d="M1892 88q0 25 -9 46.5t-25 36.5t-36.5 23.5t-43.5 8.5q-50 0 -82.5 -32.5t-32.5 -82.5q0 -24 8 -45.5t22.5 -38t36 -26t48.5 -9.5q25 0 46 9.5t36 26t23.5 38t8.5 45.5zM1180 88q0 25 -9.5 46.5t-25 36.5t-36.5 23.5t-44 8.5q-50 0 -82.5 -32.5t-32.5 -82.5
q0 -24 8 -45.5t22.5 -38t36 -26t48.5 -9.5q25 0 46.5 9.5t36.5 26t23.5 38t8.5 45.5zM471 88q0 25 -9.5 46.5t-25 36.5t-36.5 23.5t-44 8.5q-49 0 -81.5 -32.5t-32.5 -82.5q0 -24 8 -45.5t22.5 -38t35.5 -26t48 -9.5q25 0 46.5 9.5t36.5 26t23.5 38t8.5 45.5z" />
    <glyph glyph-name="dagger" unicode="&#x2020;" horiz-adv-x="1065" 
d="M961 948q0 24 -9.5 43t-25 32.5t-35.5 20.5t-41 7q-38 0 -77 -16t-91 -36q-32 -12 -66 -20t-71 -10q2 37 13 76.5t28 84.5q18 45 36.5 94.5t18.5 100.5q0 22 -7.5 45.5t-22 43t-35.5 32t-48 12.5q-23 0 -43.5 -8.5t-36.5 -25t-25 -41.5t-9 -58q0 -35 11.5 -85t43.5 -118
q11 -22 18.5 -45t12 -43.5t6.5 -37.5t2 -27q-74 3 -139 30q-25 11 -45.5 20.5t-39 17t-36 12t-35.5 4.5q-21 0 -40.5 -7.5t-34.5 -21.5t-24.5 -33.5t-9.5 -42.5q0 -42 28 -70t79 -28q25 0 64.5 11t93.5 34q35 15 70 24t69 11q-6 -50 -13 -86.5t-18 -61.5q-11 -26 -30.5 -50
t-45.5 -46q25 -94 43 -193t29 -202q16 -140 24 -320.5t11 -406.5h37q8 279 16.5 464t18.5 279q9 94 26.5 188t42.5 191q-51 43 -76 96q-11 26 -18.5 63t-9.5 85q10 -1 28 -3t37.5 -6t38.5 -9.5t33 -12.5q56 -28 99 -38.5t71 -10.5q15 0 33.5 4.5t35.5 16t28.5 30t11.5 47.5z
" />
    <glyph glyph-name="daggerdbl" unicode="&#x2021;" horiz-adv-x="1065" 
d="M920 -14q0 21 -8.5 38t-22 28.5t-31 17.5t-35.5 6q-26 0 -60 -9t-79 -26q-28 -14 -62 -23.5t-71 -11.5q5 34 12 55.5t17 38.5q19 37 69 76q-15 20 -32 47.5t-31.5 66t-24.5 91t-10 121.5q0 75 10.5 130t25.5 94.5t32 66.5t30 47q-54 40 -69 73q-11 19 -18.5 43.5
t-10.5 59.5q12 -2 23 -2.5t26 -3.5t37 -10.5t55 -22.5q12 -5 28 -11t33.5 -11t35 -8t32.5 -3q18 0 36 5t32 16t22.5 28t8.5 41q0 48 -27.5 70t-65.5 22q-42 0 -76.5 -12t-60.5 -24q-42 -20 -79 -26.5t-60 -8.5q6 85 37 157q7 19 15 36.5t15 35t11 36.5t4 40t-5 42t-17 38
t-31.5 28t-47.5 11q-26 0 -45.5 -10t-33 -26.5t-20.5 -37t-7 -41.5q0 -18 5 -39.5t12 -42t15 -39.5t13 -33q9 -23 16.5 -46t12.5 -44t7.5 -38t2.5 -27q-10 1 -21 1.5t-27 3.5t-38 10t-53 20q-90 36 -138 36q-37 0 -62.5 -24t-25.5 -66q0 -24 7.5 -41t20.5 -28t29.5 -16
t33.5 -5q26 0 57 5.5t65 21.5q36 16 60.5 24.5t41 12.5t28 4.5t22.5 1.5q-8 -37 -15 -64t-18 -43q-8 -17 -25.5 -34.5t-41.5 -34.5q12 -14 29.5 -38.5t33.5 -63t27.5 -93t11.5 -129.5q0 -73 -11.5 -129t-28 -97.5t-34 -69.5t-28.5 -44q53 -41 71 -72q10 -20 16.5 -42.5
t12.5 -53.5q-31 0 -53 3.5t-38.5 8.5t-29 11.5t-24.5 11.5q-41 17 -70 25t-47 8q-17 0 -35 -5t-32.5 -16t-24 -29t-9.5 -44t8.5 -44t22 -29t30.5 -15.5t34 -4.5q20 0 49 9t67 26q26 13 60.5 25t91.5 12q-5 -37 -12.5 -70t-20.5 -67q-8 -23 -17 -47t-16 -46.5t-11.5 -42.5
t-4.5 -36q0 -27 10 -48t25 -35.5t33.5 -22t35.5 -7.5q21 0 40.5 8t34 22t23.5 34.5t9 46.5q0 29 -13 71t-38 99q-5 10 -11.5 27t-12 36.5t-9.5 40t-4 37.5q51 -2 83.5 -12t57.5 -21q47 -18 79 -28.5t52 -10.5q19 0 36.5 5.5t31 17.5t21.5 30t8 44z" />
    <glyph glyph-name="circumflex" unicode="&#x2c6;" horiz-adv-x="668" 
d="M668 1083l-267 357h-133l-268 -357h74l260 222l260 -222h74z" />
    <glyph glyph-name="perthousand" unicode="&#x2030;" horiz-adv-x="2249" 
d="M2212 528q0 42 -15 84.5t-44 76t-71.5 54.5t-96.5 21q-61 0 -118.5 -21t-109 -57.5t-94.5 -85.5t-74.5 -105t-49 -115.5t-17.5 -117.5q0 -60 11.5 -113.5t42 -93t83 -63t133.5 -23.5q46 0 95 18t95.5 52.5t88.5 83.5t73 111t49.5 136t18.5 158zM1446 528q0 42 -15 84.5
t-44 76t-71.5 54.5t-96.5 21q-61 0 -118.5 -21t-109 -57.5t-94.5 -85.5t-74.5 -105t-49 -115.5t-17.5 -117.5q0 -60 11.5 -113.5t42 -93t83 -63t133.5 -23.5q46 0 95 18t95.5 52.5t88.5 83.5t73 111t49.5 136t18.5 158zM1208 1448h-127q-31 -29 -56 -55.5t-54.5 -46.5
t-67 -31.5t-92.5 -11.5q-44 0 -80.5 10.5t-68.5 26.5t-60 34.5t-53.5 34.5t-49.5 26.5t-48 10.5q-70 0 -143.5 -35t-133.5 -98t-98.5 -150.5t-38.5 -191.5q0 -56 12.5 -111t41 -98t75 -69.5t115.5 -26.5q62 0 113.5 26t93 69.5t72.5 99t51.5 114.5t31 116.5t10.5 104.5
q0 20 -2.5 40.5t-5.5 39.5q48 -15 99 -22t102.5 -0.5t103.5 29t101 67.5l-824 -1383h101zM2157 516q0 -43 -11.5 -95.5t-32.5 -106t-51 -103.5t-68 -89.5t-82.5 -63t-94.5 -23.5q-32 0 -56.5 11t-42 30.5t-26.5 45.5t-9 56q0 51 12 109t33 115t51 110t66.5 93.5t78 64.5
t85.5 24q36 0 63.5 -16t46.5 -41.5t28.5 -57.5t9.5 -63zM1391 516q0 -43 -11.5 -95.5t-32.5 -106t-51 -103.5t-68 -89.5t-82.5 -63t-94.5 -23.5q-32 0 -56.5 11t-41.5 30.5t-26 45.5t-9 56q0 48 11.5 104.5t33 114t51.5 111t66 95t77 66.5t86 25q36 0 63.5 -16t46.5 -41.5
t28.5 -57.5t9.5 -63zM598 1194q0 -82 -24.5 -164.5t-65.5 -149t-94 -108t-109 -41.5q-32 0 -52.5 13t-32.5 37t-16.5 58t-4.5 76q0 35 7.5 81.5t22.5 96t37 98.5t50.5 89.5t63 68.5t75.5 37q57 -55 129 -92q11 -21 12.5 -47.5t1.5 -52.5z" />
    <glyph glyph-name="guilsinglleft" unicode="&#x2039;" horiz-adv-x="709" 
d="M582 -8l-254 491l254 488h-56l-403 -488l403 -491h56z" />
    <glyph glyph-name="OE" unicode="&#x152;" horiz-adv-x="1894" 
d="M1833 354h-41q-28 -65 -62.5 -114t-72.5 -86q-27 -26 -56 -41t-62 -22.5t-71.5 -10t-85.5 -2.5h-110q-39 0 -63.5 4.5t-37.5 20t-17.5 46.5t-4.5 84v465h188q63 0 104 -10.5t62 -30.5q23 -21 35.5 -62t17.5 -106h41v490h-41q0 -53 -11.5 -91t-37.5 -61q-24 -26 -67 -37.5
t-103 -11.5h-188v555h266q76 0 118 -8t63.5 -20t30.5 -25t18 -23q17 -18 23.5 -56.5t19.5 -98.5h32l-12 307h-491q-136 0 -277 6q-91 3 -140.5 5.5t-62.5 2.5q-157 0 -279.5 -56.5t-207 -154t-128.5 -229t-44 -281.5t46.5 -281t130.5 -228t201.5 -153t258.5 -56q15 0 44 1
t64 3t71.5 4t67.5 4t52.5 3t25.5 1h177h503zM948 354q0 -148 -18 -196q-37 -101 -193 -101q-78 0 -139 25.5t-108 70t-79.5 105.5t-53.5 132t-30.5 148.5t-9.5 155.5q0 151 26.5 273t79.5 208.5t132.5 133.5t185.5 47q147 0 187 -94q20 -44 20 -179v-729z" />
    <glyph glyph-name="quoteleft" unicode="&#x2018;" horiz-adv-x="709" 
d="M510 1024q0 26 -9.5 46.5t-24.5 35t-33.5 22t-36.5 7.5q-10 0 -21 -2.5t-21.5 -6t-19.5 -6t-16 -2.5q-4 0 -10.5 2.5t-13 9.5t-11 19.5t-4.5 32.5q0 42 17 75t42.5 58.5t56 45.5t58.5 36v45q-30 -10 -76 -32.5t-89 -62t-74 -98t-31 -139.5q0 -48 16.5 -86t42 -65
t57.5 -41.5t64 -14.5q21 0 45.5 7.5t44.5 22.5t33.5 37.5t13.5 53.5z" />
    <glyph glyph-name="quotedblleft" unicode="&#x201c;" horiz-adv-x="1083" 
d="M885 1026q0 26 -10 46.5t-25 35t-33.5 22t-36.5 7.5q-10 0 -20.5 -2.5t-21 -6t-20 -6t-16.5 -2.5q-4 0 -10.5 2.5t-12.5 9.5t-10.5 19.5t-4.5 32.5q0 42 17 75t42.5 58.5t56 45.5t58.5 36v45q-30 -10 -76 -32.5t-89.5 -62t-74.5 -98t-31 -139.5q0 -48 16.5 -86t42.5 -65
t58 -41.5t64 -14.5q21 0 45.5 7.5t44.5 22.5t33.5 37.5t13.5 53.5zM387 1028q0 26 -9.5 46.5t-24.5 35t-33.5 22t-36.5 7.5q-10 0 -21 -2.5t-21.5 -6t-19.5 -6t-16 -2.5q-4 0 -10.5 2.5t-13 9.5t-11 19.5t-4.5 32.5q0 42 17 75t42.5 58.5t56 45.5t58.5 36v45
q-30 -10 -76 -32.5t-89 -62t-74 -98t-31 -139.5q0 -48 16.5 -86t42 -65t57.5 -41.5t64 -14.5q21 0 45.5 7.5t44.5 22.5t33.5 37.5t13.5 53.5z" />
    <glyph glyph-name="quotedblright" unicode="&#x201d;" horiz-adv-x="1083" 
d="M1014 1233q0 48 -16.5 86t-42 65t-58 41.5t-63.5 14.5q-22 0 -46 -7.5t-44.5 -22.5t-34 -37.5t-13.5 -53.5q0 -26 10 -47t25 -35t33.5 -21.5t36.5 -7.5q10 0 20.5 2.5t21 6t20 6t16.5 2.5q4 0 10.5 -2.5t13 -9.5t11 -19.5t4.5 -32.5q0 -42 -17 -75t-43 -58.5t-56.5 -45.5
t-58.5 -36v-45q30 10 76 32.5t89.5 62t74.5 98t31 139.5zM516 1235q0 48 -16.5 86t-42 65t-58 41.5t-63.5 14.5q-21 0 -45.5 -7.5t-44.5 -22.5t-33.5 -37.5t-13.5 -53.5q0 -26 9.5 -47t24.5 -35t33.5 -21.5t36.5 -7.5q20 0 42 8.5t36 8.5q4 0 10.5 -2.5t13 -9.5t11 -19.5
t4.5 -32.5q0 -42 -17 -75t-42.5 -58.5t-56.5 -45.5t-58 -36v-45q30 10 76 32.5t89 62t74 98t31 139.5z" />
    <glyph glyph-name="bullet" unicode="&#x2022;" horiz-adv-x="614" 
d="M543 696q0 49 -18.5 92t-50.5 75t-75 50.5t-92 18.5t-92 -18.5t-74.5 -50.5t-50 -75t-18.5 -92t18.5 -92t50 -74.5t74.5 -50t92 -18.5t92 18.5t75 50t50.5 74.5t18.5 92z" />
    <glyph glyph-name="tilde" unicode="&#x2dc;" horiz-adv-x="709" 
d="M709 1397h-56q-6 -26 -20.5 -45.5t-34 -32.5t-43.5 -20t-49 -7q-41 0 -73 14.5t-62.5 32.5t-62.5 32.5t-72 14.5q-50 0 -89 -16.5t-68 -46t-48.5 -69t-30.5 -85.5h55q2 18 13.5 35.5t28 32t37.5 23t42 8.5q51 0 84 -15.5t63 -34t66 -34t94 -15.5q45 0 84 19.5t69 51.5
t49 73t24 84z" />
    <glyph glyph-name="trademark" unicode="&#x2122;" horiz-adv-x="2087" 
d="M2052 571v37q-36 0 -59 5.5t-35.5 20.5t-17.5 41.5t-5 69.5v486q0 32 2 59t13 46t34.5 28.5t67.5 7.5v37h-291l-274 -594l-285 594h-297v-37q43 0 66.5 -7t35 -24t13.5 -44.5t2 -67.5v-484q0 -38 -2.5 -64.5t-13.5 -42.5t-35 -23t-66 -7v-37h318v37q-48 0 -75 5.5
t-40.5 21t-17 42t-3.5 68.5v500l322 -674h33l319 686v-514q0 -43 -5 -69.5t-18.5 -41t-37.5 -19.5t-62 -5v-37h414zM834 1202l-17 207h-770l-14 -207h33q10 43 24.5 71.5t37.5 45t56 23t80 6.5h78v-603q0 -48 -4 -73.5t-15 -37.5t-31.5 -16t-53.5 -10v-37h391v37
q-39 1 -61 8t-33 22.5t-14 41t-3 65.5v603h78q55 0 92 -10t60 -28.5t34.5 -46t14.5 -61.5h37z" />
    <glyph glyph-name="guilsinglright" unicode="&#x203a;" horiz-adv-x="709" 
d="M586 479l-404 492h-55l254 -492l-254 -487h55z" />
    <glyph glyph-name="oe" unicode="&#x153;" horiz-adv-x="1538" 
d="M1468 352l-34 17q-23 -63 -49.5 -106t-57.5 -70t-67 -38.5t-76 -11.5q-67 0 -121.5 31.5t-93 90.5t-57 142.5t-13.5 188.5h569q2 88 -20.5 159t-67 121.5t-108 77.5t-144.5 27q-97 0 -167.5 -40.5t-124.5 -125.5q-53 75 -135 119.5t-191 44.5q-93 0 -173.5 -36.5
t-139.5 -104t-93 -163t-34 -214.5q0 -112 33.5 -203t92 -155.5t137 -99.5t169.5 -34q112 2 192 46t142 124q17 -35 44 -66.5t62.5 -54.5t79 -36.5t92.5 -12.5q135 1 225.5 94.5t128.5 288.5zM1264 664h-365q1 64 18.5 110.5t43 77t57 45t61.5 14.5q52 0 87.5 -23t57.5 -58.5
t31 -79.5t9 -86zM743 393q0 -98 -16.5 -164.5t-45 -107t-67.5 -58.5t-84 -18q-62 0 -111 39.5t-83.5 109t-53 164t-18.5 203.5q0 100 16.5 169t44.5 112t66 61.5t80 18.5q70 0 121 -39t84.5 -109.5t50 -167.5t16.5 -213z" />
    <glyph glyph-name="Ydieresis" unicode="&#x178;" horiz-adv-x="1538" 
d="M1077 1675q0 22 -8.5 41.5t-23 34t-34 23t-40.5 8.5q-20 0 -39 -9t-34 -24t-24.5 -34.5t-9.5 -39.5q0 -21 8.5 -40t23 -33.5t34 -23.5t41.5 -9q21 0 40.5 8.5t34 23t23 34t8.5 40.5zM651 1675q0 22 -8.5 41.5t-23 34t-34 23t-40.5 8.5q-20 0 -39 -9t-33.5 -24
t-23.5 -34.5t-9 -39.5q0 -21 8.5 -40t23 -33.5t33.5 -23.5t40 -9t40.5 8.5t34 23t23 34t8.5 40.5zM1507 1372v37h-491v-37q29 0 50 -4t35.5 -10.5t24 -15.5t15.5 -19q29 -38 15 -83t-60 -116l-279 -434l-293 453q-32 51 -47.5 85.5t-15.5 51.5q0 28 15 46t36 28.5t43 14
t37 3.5h31v37h-605v-37q42 0 80 -18.5t64 -38.5q29 -23 53.5 -59t58.5 -87l385 -589v-334q0 -62 -5.5 -99t-14.5 -53q-22 -29 -52 -42t-75 -13h-49v-39h598v39h-45q-89 0 -125 43q-31 32 -31 164v352l342 535q32 51 57.5 87.5t47.5 59.5q22 25 47 42.5t49 28.5t44.5 16
t33.5 5h26z" />
    <glyph glyph-name="exclamdown" unicode="&#xa1;" horiz-adv-x="709" 
d="M471 895q0 31 -11.5 54t-29 37t-38 21t-38.5 7q-23 0 -43.5 -9.5t-36.5 -25.5t-25 -37.5t-9 -46.5q0 -26 10.5 -47t27 -35.5t36.5 -22.5t40 -8t41 7t38 21.5t27.5 35.5t10.5 49zM473 -313q0 6 -0.5 12t-1.5 15t-2.5 21.5t-3.5 31.5l-90 843h-41l-94 -843q-3 -22 -3.5 -40
t-0.5 -30q0 -43 11 -73t28 -48.5t37.5 -26.5t39.5 -8q51 0 86 38t35 108z" />
    <glyph glyph-name="cent" unicode="&#xa2;" horiz-adv-x="1065" 
d="M934 362l-29 15q-31 -74 -64.5 -121t-70.5 -74t-77 -37t-83 -10t-81 13t-70 34l231 637q6 -15 6 -33q3 -43 16 -67.5t29.5 -36.5t35.5 -15t34 -3q50 0 74 26.5t24 61.5q0 81 -92 153q-18 16 -37 27t-41 20l154 426h-74l-147 -407q-20 5 -41.5 6.5t-44.5 1.5
q-93 0 -175.5 -36.5t-145 -102.5t-98.5 -159t-36 -206q0 -77 14.5 -144t41 -123t63.5 -100t82 -75l-156 -426h74l10.5 29t26 72.5t34 94.5t34 94.5t26 73l10.5 29.5q70 -31 146 -31q70 0 135.5 29t119 81t91 124t51.5 159zM641 889l-9.5 -28t-26 -74t-38 -104.5t-43.5 -120
t-43.5 -120t-38.5 -104.5t-27.5 -74t-11.5 -28q-51 60 -76.5 146.5t-25.5 182.5q0 74 17 137t49 109.5t78.5 73t105.5 26.5q29 0 51 -5.5t39 -16.5z" />
    <glyph glyph-name="sterling" unicode="&#xa3;" horiz-adv-x="1065" 
d="M1016 315l-39 11q-6 -23 -17.5 -52t-35.5 -54.5t-64 -43.5t-102 -18q-74 0 -155.5 26t-182.5 60q30 78 43.5 150t18 131t3 101t-1.5 60h269v98h-269q-1 9 -4.5 44.5t-7.5 82t-7 95.5t-3 84q0 83 14 139t39.5 90t59.5 48.5t75 14.5q34 0 58 -10t39.5 -26.5t22.5 -38
t7 -45.5q0 -65 25 -93t57 -28q15 0 29.5 7.5t26 20t18 28t6.5 30.5q0 40 -18.5 78t-52.5 68t-82.5 48.5t-108.5 18.5q-66 0 -134.5 -26.5t-125 -82t-92 -140t-35.5 -200.5q0 -26 4.5 -77t9.5 -130h-201v-98h201q11 -127 19 -235t0 -189q-14 3 -35.5 5.5t-53.5 2.5
q-21 0 -50.5 -6.5t-56 -24t-45 -49t-18.5 -81.5q0 -24 6.5 -48t21 -43t37.5 -31t56 -12q39 0 71 18.5t56 45t41 55t27 49.5q55 -41 96.5 -72t78.5 -52.5t75.5 -32.5t87.5 -11q69 0 121.5 31t89.5 79.5t59 109t29 120.5zM311 178q-17 -65 -46.5 -103t-71.5 -38q-28 0 -49 18
t-21 62q0 38 24.5 64t73.5 26q34 0 56.5 -10.5t33.5 -18.5z" />
    <glyph glyph-name="yen" unicode="&#xa5;" horiz-adv-x="1065" 
d="M1044 367v75h-423v168l8 19h415v76h-385l226 505q23 51 45.5 85t42.5 51q29 26 92 26v37h-360v-37q30 -2 52.5 -6t41.5 -16q15 -10 18.5 -25.5t1.5 -32t-8.5 -33.5t-11.5 -30l-221 -524l-222 540q-5 12 -11.5 25t-9 26t2 25.5t22.5 24.5q22 14 44 18.5t59 7.5v37h-461
v-37q29 -3 52.5 -10t41.5 -23q20 -14 38.5 -43.5t37.5 -74.5l221 -516h-373v-76h408l14 -37v-150h-422v-75h422v-113v-53t-1.5 -48.5t-6 -40t-12.5 -26.5q-23 -26 -56.5 -34.5t-68.5 -8.5h-35v-43h537v43h-43q-25 0 -57.5 9.5t-51.5 31.5q-20 23 -23 67t-3 103v113h423z" />
    <glyph glyph-name="section" unicode="&#xa7;" horiz-adv-x="1065" 
d="M903 500q0 51 -15.5 97t-42 87.5t-61 78.5t-72.5 70t-76.5 62t-72.5 55q-38 28 -71.5 56t-59 59.5t-40.5 67.5t-15 81q0 35 12 67.5t35.5 58t57 40.5t75.5 15q56 0 85.5 -28.5t29.5 -70.5q0 -12 -2.5 -26l-5 -28t-5 -26t-2.5 -20q0 -14 6 -28t16.5 -25.5t26 -19
t33.5 -7.5q34 0 58 25.5t24 68.5q0 54 -22.5 96.5t-59 72.5t-84 45.5t-98.5 15.5q-42 0 -93 -17t-96 -53t-75.5 -91.5t-30.5 -131.5q0 -48 14 -89.5t34.5 -75t42.5 -60t38 -45.5q-29 -18 -68.5 -49t-75 -75t-60.5 -101t-25 -128q0 -62 22.5 -117t63.5 -108t100 -105
t133 -106q34 -24 71.5 -54.5t69 -66.5t52 -79t20.5 -93q0 -30 -15 -60.5t-40 -54.5t-58 -39.5t-69 -15.5q-21 0 -43.5 5t-40.5 15t-29.5 25t-11.5 35q0 11 3 26t6.5 31.5t6.5 31.5t3 26q0 10 -3.5 25t-12.5 29.5t-24.5 25t-39.5 10.5q-14 0 -28 -6t-25.5 -17.5t-19 -28.5
t-7.5 -40q0 -58 24 -101.5t61.5 -73t83 -44.5t89.5 -15q60 0 114 21.5t94.5 60.5t64.5 93.5t24 121.5q0 49 -13 89.5t-32.5 72.5t-41.5 57.5t-40 44.5q30 19 69.5 50t75 75t60 101t24.5 129zM752 545q42 -67 44.5 -123.5t-19.5 -103t-60 -83t-78 -61.5q-28 31 -71.5 63.5
t-91.5 69t-93 79t-76 93.5q-39 65 -40 121.5t21.5 103t60.5 82t77 58.5q9 -10 31.5 -28t53 -41.5t65 -51.5t67.5 -57.5t61.5 -60.5t47.5 -60z" />
    <glyph glyph-name="dieresis" unicode="&#xa8;" horiz-adv-x="637" 
d="M637 1276q0 21 -8.5 40.5t-23 34t-34 23t-41.5 8.5q-20 0 -39 -9t-34 -24t-24 -34t-9 -39q0 -21 8.5 -40t23 -34t34 -24t40.5 -9q22 0 41.5 8.5t34 23.5t23 34.5t8.5 40.5zM211 1276q0 21 -8.5 40.5t-23 34t-34 23t-41.5 8.5q-20 0 -38.5 -9t-33 -24t-23.5 -34t-9 -39
q0 -21 8.5 -40t23 -34t33 -24t39.5 -9q22 0 41.5 8.5t34 23.5t23 34.5t8.5 40.5z" />
    <glyph glyph-name="copyright" unicode="&#xa9;" horiz-adv-x="1618" 
d="M1548 705q0 155 -57 289.5t-156.5 234t-234.5 156.5t-291 57q-91 0 -181 -22.5t-172 -66t-152.5 -107.5t-122 -145.5t-80.5 -181t-29 -214.5q0 -106 26.5 -201.5t74.5 -177.5t115.5 -148.5t149 -113t176 -72t195.5 -25.5q102 0 196.5 26t176.5 73t149.5 114t115.5 149
t74.5 177t26.5 199zM1483 705q0 -98 -25 -186t-70 -162.5t-107.5 -134.5t-137.5 -102t-160 -64.5t-174 -22.5q-136 0 -258 50.5t-214 140t-146 212.5t-54 269q0 104 27 194t74 165t111 133.5t139 98.5t157 61t164 21q93 0 179 -23.5t161 -67t136.5 -104.5t105.5 -135.5
t68 -161.5t24 -181zM1212 446l-38 23q-119 -168 -324 -168q-78 0 -141.5 26t-109 79.5t-70.5 134t-25 188.5q0 91 23 166t66 127.5t105.5 81.5t141.5 29q55 0 97.5 -12.5t75.5 -33t56.5 -46.5t40.5 -53t27.5 -53t17.5 -46h39l-20 291h-41q-3 -7 -6.5 -15.5t-8.5 -15.5
t-13.5 -11.5t-23.5 -4.5t-34.5 7.5t-46.5 16t-63.5 16t-86.5 7.5q-67 0 -131.5 -14.5t-122 -42t-106 -69t-83.5 -95t-55 -119t-20 -142.5q0 -103 38.5 -188t104.5 -146t153 -94.5t185 -33.5q131 0 229 53.5t170 156.5z" />
    <glyph glyph-name="ordfeminine" unicode="&#xaa;" horiz-adv-x="678" 
d="M676 920v36q-20 -18 -32.5 -28t-21 -15t-14.5 -6.5t-12 -1.5q-16 0 -23.5 7t-9.5 24q-3 9 -3.5 34.5t-0.5 65.5v195q0 45 -8 80.5t-32.5 61t-69.5 39t-119 13.5q-49 0 -94.5 -9.5t-80 -28t-55 -45t-20.5 -60.5q0 -28 16 -43.5t47 -15.5q28 0 46 15.5t16 43.5l-2 37
q3 29 29.5 49.5t72.5 20.5q66 0 97.5 -33.5t31.5 -116.5v-22q-122 -36 -196.5 -66.5t-115.5 -59.5t-55 -58t-14 -60q0 -33 12 -60t33.5 -46t51.5 -29.5t67 -10.5q27 0 47.5 3.5t43 13.5t52 28.5t74.5 47.5q0 -27 6.5 -45t17.5 -28.5t25.5 -15t30.5 -4.5q79 0 162 93z
M664 680v45h-603v-45h603zM434 961q-46 -31 -83.5 -48.5t-65.5 -15.5q-22 1 -41 9t-33.5 22t-22.5 33t-8 40t7 41t33 41t76.5 44.5t137.5 52.5v-219z" />
    <glyph glyph-name="registered" unicode="&#xae;" horiz-adv-x="1618" 
d="M1548 705q0 155 -57 289.5t-156.5 234t-234.5 156.5t-291 57q-91 0 -181 -22.5t-172 -66t-152.5 -107.5t-122 -145.5t-80.5 -181t-29 -214.5q0 -106 26.5 -201.5t74.5 -177.5t115.5 -148.5t149 -113t176 -72t195.5 -25.5q102 0 196.5 26t176.5 73t149.5 114t115.5 149
t74.5 177t26.5 199zM1483 705q0 -98 -25 -186t-70 -162.5t-107.5 -134.5t-137.5 -102t-160 -64.5t-174 -22.5q-136 0 -258 50.5t-214 140t-146 212.5t-54 269q0 104 27 194t74 165t111 133.5t139 98.5t157 61t164 21q93 0 179 -23.5t161 -67t136.5 -104.5t105.5 -135.5
t68 -161.5t24 -181zM1225 260v35q-38 3 -56 14q-17 11 -33.5 28t-37.5 48l-215 309q31 8 70.5 23t74.5 42t59.5 67.5t24.5 99.5q0 48 -20.5 90t-60 74t-97 50.5t-131.5 18.5h-402v-39q48 0 66 -12q11 -8 17 -17t10 -20q2 -6 2 -29v-63v-543q0 -40 -2 -69.5t-15 -44.5
q-15 -20 -40 -23.5t-50 -3.5v-35h381v35q-34 0 -57.5 3t-34.5 11t-21 20t-10 29v322h80l305 -420h193zM946 913q0 -46 -16 -78t-41.5 -52.5t-58 -32.5t-66 -17.5t-64.5 -6.5t-53 -1v373q25 8 46.5 11t41.5 3q49 0 88 -16.5t66.5 -44t42 -63.5t14.5 -75z" />
    <glyph glyph-name="macron" unicode="&#xaf;" horiz-adv-x="668" 
d="M668 1169v115h-668v-115h668z" />
    <glyph glyph-name="degree" unicode="&#xb0;" horiz-adv-x="655" 
d="M553 1249q0 47 -17.5 88t-48 72t-71.5 48.5t-88 17.5t-88 -17.5t-72 -48.5t-48.5 -72t-17.5 -88t17.5 -88t48.5 -71.5t72 -48t88 -17.5t88 17.5t71.5 48t48 71.5t17.5 88zM471 1249q0 -30 -11 -56t-30.5 -45.5t-45.5 -30.5t-56 -11t-56.5 11t-46 30.5t-30.5 45.5t-11 56
t11 56t30.5 45.5t46 31t56.5 11.5t56 -11.5t45.5 -31t30.5 -45.5t11 -56z" />
    <glyph glyph-name="plusminus" unicode="&#xb1;" horiz-adv-x="2048" 
d="M1638 733v127h-551v369h-126v-369h-551v-127h551v-368h126v368h551zM1638 0v127h-1228v-127h1228z" />
    <glyph glyph-name="acute" unicode="&#xb4;" horiz-adv-x="729" 
d="M600 1382q0 11 -5.5 23t-14 22t-18 16.5t-17.5 6.5q-34 0 -67.5 -21t-61.5 -49l-295 -297h86l307 195q34 22 60 47.5t26 56.5z" />
    <glyph glyph-name="glyph138" unicode="&#xb5;" horiz-adv-x="1206" 
d="M1126 215h-41q-8 -38 -16 -62.5t-18.5 -39.5t-23 -21t-28.5 -6q-14 0 -26.5 3.5t-22 21.5t-15 56t-5.5 107v676h-174v-712q-123 -140 -244 -140q-50 0 -83.5 28t-45.5 67q-9 27 -13.5 77t-4.5 127v553h-170v-751q0 -99 -5 -168.5t-12 -119.5t-16 -84.5t-16 -62.5t-12 -54
t-5 -58q0 -25 7.5 -45.5t20 -35.5t28.5 -23.5t34 -8.5q19 0 37 8.5t31.5 24.5t21.5 37t8 47q0 31 -7.5 72t-17 87.5t-17 96t-7.5 98.5v49q19 -32 42.5 -50t46 -27t42 -11t31.5 -2q82 0 160 48.5t166 150.5q7 -58 22.5 -96t36.5 -61t47.5 -32.5t57.5 -9.5q40 0 75.5 13.5
t63 43.5t45 76.5t22.5 112.5z" />
    <glyph glyph-name="cedilla" unicode="&#xb8;" horiz-adv-x="500" 
d="M473 -281q0 39 -15 67t-39.5 46t-57 26.5t-66.5 8.5t-62 -6l56 139h-76l-90 -211l16 -12q22 6 47 9t50 1q35 -3 56 -24t21 -58q0 -45 -33 -67.5t-92 -22.5q-13 0 -29.5 2t-34.5 6t-35.5 8.5t-31.5 10.5l-30 -68q40 -14 84 -23.5t88 -9.5q51 0 100 12t87.5 34.5t62.5 55.5
t24 76z" />
    <glyph glyph-name="ordmasculine" unicode="&#xba;" horiz-adv-x="780" 
d="M721 1135q0 60 -24 113t-67.5 92.5t-104 62t-134.5 22.5q-78 0 -139.5 -26.5t-104 -69.5t-65.5 -98t-23 -113q0 -60 24 -114t67 -95.5t103 -65.5t132 -24q84 0 147 28.5t105 74t63 101.5t21 112zM711 680v45h-639v-45h639zM582 1085q0 -61 -12 -103t-34 -68.5t-52.5 -38
t-67.5 -11.5q-49 0 -89 24.5t-68.5 66.5t-44 97.5t-15.5 116.5q0 62 15.5 104t40 67t55 35.5t59.5 10.5q49 0 88.5 -23t67 -63.5t42.5 -95.5t15 -119z" />
    <glyph glyph-name="questiondown" unicode="&#xbf;" horiz-adv-x="946" 
d="M600 895q0 28 -10 49.5t-27 36.5t-38.5 23t-43.5 8q-20 0 -40 -7.5t-36.5 -22.5t-27 -37t-10.5 -50q0 -26 10 -47.5t26 -37t36.5 -24t41.5 -8.5q23 0 44.5 8.5t38 24.5t26.5 37t10 47zM844 -160q0 51 -14 83t-32.5 50t-38 24.5t-30.5 6.5q-14 0 -29 -6t-27 -17t-20 -28
t-8 -39q0 -18 10.5 -40t22.5 -45.5t22.5 -47.5t10.5 -45q0 -23 -12 -47.5t-36.5 -44.5t-61.5 -32.5t-87 -12.5q-41 0 -83.5 15.5t-78 49.5t-58 88.5t-22.5 132.5q0 41 9.5 84.5t24 84.5t32 77.5t33.5 63.5q34 57 59.5 112.5t42.5 111t26.5 113t12.5 119.5h-45
q-3 -73 -18 -127t-42.5 -102.5t-68.5 -97.5t-96 -111q-24 -27 -52.5 -62t-52.5 -78t-40.5 -94t-16.5 -110q0 -77 29 -138t81 -103t123.5 -64.5t155.5 -22.5q91 0 161 25t117.5 66.5t72 95.5t24.5 112z" />
    <glyph glyph-name="Agrave" unicode="&#xc0;" horiz-adv-x="1530" 
d="M905 1534l-295 297q-29 29 -63 49.5t-62 20.5q-31 0 -48 -21.5t-17 -58.5q0 -14 9.5 -27t23.5 -24.5t30 -22t29 -18.5l307 -195h86zM1513 0v39q-44 3 -75.5 12t-58 33t-51.5 68t-56 118l-490 1172h-37l-495 -1161q-25 -58 -48 -102t-49.5 -74t-59 -46.5t-77.5 -19.5v-39
h445v39q-74 6 -111 21.5t-47.5 41.5t-0.5 62t30 84l96 225h547l84 -203q18 -43 31.5 -84t8.5 -73t-36.5 -52.5t-104.5 -21.5v-39h555zM946 549h-485l246 571z" />
    <glyph glyph-name="Aacute" unicode="&#xc1;" horiz-adv-x="1530" 
d="M1081 1833q0 11 -5.5 23t-13.5 22t-17.5 16.5t-18.5 6.5q-34 0 -67.5 -21t-61.5 -49l-295 -297h86l307 195q34 21 60 47t26 57zM1513 0v39q-44 3 -75.5 12t-58 33t-51.5 68t-56 118l-490 1172h-37l-495 -1161q-25 -58 -48 -102t-49.5 -74t-59 -46.5t-77.5 -19.5v-39h445
v39q-74 6 -111 21.5t-47.5 41.5t-0.5 62t30 84l96 225h547l84 -203q18 -43 31.5 -84t8.5 -73t-36.5 -52.5t-104.5 -21.5v-39h555zM946 549h-485l246 571z" />
    <glyph glyph-name="Acircumflex" unicode="&#xc2;" horiz-adv-x="1530" 
d="M1094 1534l-267 356h-133l-268 -356h74l260 221l260 -221h74zM1513 0v39q-44 3 -75.5 12t-58 33t-51.5 68t-56 118l-490 1172h-37l-495 -1161q-25 -58 -48 -102t-49.5 -74t-59 -46.5t-77.5 -19.5v-39h445v39q-74 6 -111 21.5t-47.5 41.5t-0.5 62t30 84l96 225h547
l84 -203q18 -43 31.5 -84t8.5 -73t-36.5 -52.5t-104.5 -21.5v-39h555zM946 549h-485l246 571z" />
    <glyph glyph-name="Atilde" unicode="&#xc3;" horiz-adv-x="1530" 
d="M1102 1815h-55q-13 -51 -55 -78t-93 -27q-41 0 -73 14.5t-62 32.5t-62.5 32.5t-72.5 14.5q-50 0 -89 -16.5t-68 -46t-48.5 -69t-30.5 -85.5h56q2 18 13 35.5t27.5 31.5t37.5 23t42 9q34 0 59.5 -7.5t47 -18.5t41 -23.5t42 -23.5t51 -18.5t67.5 -7.5q44 0 83 19.5t69 51.5
t49 73t24 84zM1513 0v39q-44 3 -75.5 12t-58 33t-51.5 68t-56 118l-490 1172h-37l-495 -1161q-25 -58 -48 -102t-49.5 -74t-59 -46.5t-77.5 -19.5v-39h445v39q-74 6 -111 21.5t-47.5 41.5t-0.5 62t30 84l96 225h547l84 -203q18 -43 31.5 -84t8.5 -73t-36.5 -52.5
t-104.5 -21.5v-39h555zM946 549h-485l246 571z" />
    <glyph glyph-name="Adieresis" unicode="&#xc4;" horiz-adv-x="1530" 
d="M1077 1665q0 21 -8.5 40.5t-23 34.5t-34 23.5t-40.5 8.5q-20 0 -39 -9.5t-34 -24.5t-24.5 -34t-9.5 -39q0 -21 8.5 -40t23 -33.5t34 -23.5t41.5 -9q21 0 40.5 8.5t34 23t23 34t8.5 40.5zM651 1665q0 21 -8.5 40.5t-23 34.5t-34 23.5t-40.5 8.5q-20 0 -39 -9.5
t-33.5 -24.5t-23.5 -34t-9 -39q0 -21 8.5 -40t23 -33.5t33.5 -23.5t40 -9t40.5 8.5t34 23t23 34t8.5 40.5zM1513 0v39q-44 3 -75.5 12t-58 33t-51.5 68t-56 118l-490 1172h-37l-495 -1161q-25 -58 -48 -102t-49.5 -74t-59 -46.5t-77.5 -19.5v-39h445v39q-74 6 -111 21.5
t-47.5 41.5t-0.5 62t30 84l96 225h547l84 -203q18 -43 31.5 -84t8.5 -73t-36.5 -52.5t-104.5 -21.5v-39h555zM946 549h-485l246 571z" />
    <glyph glyph-name="Aring" unicode="&#xc5;" horiz-adv-x="1530" 
d="M961 1733q0 46 -17 82.5t-45 62t-63 39.5t-72 14q-40 0 -76.5 -14.5t-64 -40.5t-44 -62.5t-16.5 -80.5q0 -45 17.5 -81.5t46 -62.5t64.5 -40.5t73 -14.5t72 14.5t63 40.5t45 62.5t17 81.5zM1513 0v39q-44 3 -75.5 12t-58 33t-51.5 68t-56 118l-490 1172h-37l-495 -1161
q-25 -58 -48 -102t-49.5 -74t-59 -46.5t-77.5 -19.5v-39h445v39q-74 6 -111 21.5t-47.5 41.5t-0.5 62t30 84l96 225h547l84 -203q18 -43 31.5 -84t8.5 -73t-36.5 -52.5t-104.5 -21.5v-39h555zM889 1733q0 -26 -9.5 -49t-26.5 -40t-40 -27.5t-49 -10.5q-25 0 -48 8.5t-41 25
t-29 40t-11 53.5q0 28 10.5 51.5t28 40t41 26t49.5 9.5q24 0 46.5 -9.5t40 -26t28 -40t10.5 -51.5zM946 549h-485l246 571z" />
    <glyph glyph-name="AE" unicode="&#xc6;" horiz-adv-x="1894" 
d="M1833 356h-37q-36 -74 -73 -127t-84.5 -87t-111 -50t-151.5 -16h-188q-31 0 -50.5 4t-32 10.5t-19.5 14t-11 14.5q-8 11 -8 40v72v467h268q67 0 107.5 -9t64.5 -32t35 -63t19 -102h36v487h-36q-5 -56 -18 -95t-39 -63t-67 -34.5t-102 -10.5h-268v557h346q79 0 126 -9
t75 -34.5t43.5 -70.5t30.5 -117h34l-16 307h-1155v-37q55 -3 90 -10t55 -18t27.5 -25.5t7.5 -32.5q0 -25 -19.5 -75.5t-60.5 -125.5l-430 -800q-30 -56 -54 -95t-44.5 -65.5t-37.5 -42.5t-32 -25q-30 -18 -78 -18v-39h443v39q-101 9 -133 31q-21 13 -28 31t-1 45t24.5 65
t47.5 92l129 242h411v-295q0 -129 -24 -160q-42 -51 -129 -51h-51v-39h1058zM868 623h-372l372 710v-710z" />
    <glyph glyph-name="Ccedilla" unicode="&#xc7;" horiz-adv-x="1421" 
d="M1346 330l-31 22q-62 -88 -117.5 -145t-111.5 -90t-115 -45.5t-129 -12.5q-119 0 -216.5 40.5t-167 119.5t-107.5 195.5t-38 267.5q0 176 37 305t103.5 214t158 126t199.5 41q82 0 154 -23t131.5 -71.5t106.5 -125.5t79 -185h33l-33 479h-37q-12 -50 -35 -74.5t-51 -24.5
q-16 0 -45 15.5t-73.5 34t-105 34t-140.5 15.5q-108 0 -203.5 -27.5t-175.5 -77.5t-143 -120t-107 -154t-67 -180.5t-23 -198.5q0 -127 35.5 -243t103.5 -209.5t167 -159t226 -90.5l-82 -193l17 -12q21 6 46 9t50 1q35 -3 56.5 -24t21.5 -58q0 -45 -33 -67.5t-92 -22.5
q-13 0 -30 2t-35 6t-35 8.5t-31 10.5l-31 -68q40 -14 84.5 -23.5t87.5 -9.5q51 0 100 12t88 34.5t63 55.5t24 76q0 39 -15 67t-39.5 46t-57 26.5t-67.5 8.5q-34 0 -61 -6l43 110q20 -2 40 -3t42 -1q100 0 184 22t155.5 67t131.5 113.5t113 160.5z" />
    <glyph glyph-name="Egrave" unicode="&#xc8;" horiz-adv-x="1300" 
d="M823 1534l-295 297q-29 29 -63 49.5t-62 20.5q-31 0 -48 -21.5t-17 -58.5q0 -14 9.5 -27t23.5 -24.5t30 -22t29 -18.5l307 -195h86zM1253 354h-43q-49 -87 -86.5 -141t-80.5 -84.5t-99 -41.5t-143 -11h-238q-50 0 -75 12t-34.5 33t-9.5 49v63v465h310q71 0 112 -12
t63 -37t31 -65t17 -95h39v490h-39q-8 -54 -17 -92t-30.5 -63t-62.5 -36.5t-113 -11.5h-310v557h390q62 0 104.5 -8.5t70 -24.5t43.5 -37.5t25.5 -47t15 -54.5t13.5 -59h41l-17 307h-1085v-37h49q44 0 75.5 -11.5t49.5 -31.5q27 -29 27 -164v-915q0 -46 -2.5 -76.5t-7.5 -50
t-13 -31t-18 -20.5q-11 -9 -26.5 -15.5t-31.5 -10.5t-30 -5.5t-23 -1.5h-49v-39h1085z" />
    <glyph glyph-name="Eacute" unicode="&#xc9;" horiz-adv-x="1300" 
d="M979 1833q0 11 -5.5 23t-14 22t-18 16.5t-17.5 6.5q-34 0 -68 -21t-61 -49l-295 -297h86l307 195q34 21 60 47t26 57zM1253 354h-43q-49 -87 -86.5 -141t-80.5 -84.5t-99 -41.5t-143 -11h-238q-50 0 -75 12t-34.5 33t-9.5 49v63v465h310q71 0 112 -12t63 -37t31 -65
t17 -95h39v490h-39q-8 -54 -17 -92t-30.5 -63t-62.5 -36.5t-113 -11.5h-310v557h390q62 0 104.5 -8.5t70 -24.5t43.5 -37.5t25.5 -47t15 -54.5t13.5 -59h41l-17 307h-1085v-37h49q44 0 75.5 -11.5t49.5 -31.5q27 -29 27 -164v-915q0 -46 -2.5 -76.5t-7.5 -50t-13 -31
t-18 -20.5q-11 -9 -26.5 -15.5t-31.5 -10.5t-30 -5.5t-23 -1.5h-49v-39h1085z" />
    <glyph glyph-name="Ecircumflex" unicode="&#xca;" horiz-adv-x="1300" 
d="M938 1534l-266 356h-133l-269 -356h74l260 221l260 -221h74zM1253 354h-43q-49 -87 -86.5 -141t-80.5 -84.5t-99 -41.5t-143 -11h-238q-50 0 -75 12t-34.5 33t-9.5 49v63v465h310q71 0 112 -12t63 -37t31 -65t17 -95h39v490h-39q-8 -54 -17 -92t-30.5 -63t-62.5 -36.5
t-113 -11.5h-310v557h390q62 0 104.5 -8.5t70 -24.5t43.5 -37.5t25.5 -47t15 -54.5t13.5 -59h41l-17 307h-1085v-37h49q44 0 75.5 -11.5t49.5 -31.5q27 -29 27 -164v-915q0 -46 -2.5 -76.5t-7.5 -50t-13 -31t-18 -20.5q-11 -9 -26.5 -15.5t-31.5 -10.5t-30 -5.5t-23 -1.5
h-49v-39h1085z" />
    <glyph glyph-name="Edieresis" unicode="&#xcb;" horiz-adv-x="1300" 
d="M934 1665q0 21 -8.5 40.5t-23 34.5t-34 23.5t-41.5 8.5q-20 0 -39 -9.5t-34 -24.5t-24 -34t-9 -39q0 -21 8.5 -40t23 -33.5t34 -23.5t40.5 -9q22 0 41.5 8.5t34 23t23 34t8.5 40.5zM508 1665q0 21 -8.5 40.5t-23 34.5t-34 23.5t-41.5 8.5q-20 0 -38.5 -9.5t-33 -24.5
t-23.5 -34t-9 -39q0 -21 8.5 -40t23 -33.5t33 -23.5t39.5 -9q22 0 41.5 8.5t34 23t23 34t8.5 40.5zM1253 354h-43q-49 -87 -86.5 -141t-80.5 -84.5t-99 -41.5t-143 -11h-238q-50 0 -75 12t-34.5 33t-9.5 49v63v465h310q71 0 112 -12t63 -37t31 -65t17 -95h39v490h-39
q-8 -54 -17 -92t-30.5 -63t-62.5 -36.5t-113 -11.5h-310v557h390q62 0 104.5 -8.5t70 -24.5t43.5 -37.5t25.5 -47t15 -54.5t13.5 -59h41l-17 307h-1085v-37h49q44 0 75.5 -11.5t49.5 -31.5q27 -29 27 -164v-915q0 -46 -2.5 -76.5t-7.5 -50t-13 -31t-18 -20.5
q-11 -9 -26.5 -15.5t-31.5 -10.5t-30 -5.5t-23 -1.5h-49v-39h1085z" />
    <glyph glyph-name="Igrave" unicode="&#xcc;" horiz-adv-x="709" 
d="M455 1534l-295 297q-29 29 -63 49.5t-62 20.5q-31 0 -48.5 -21.5t-17.5 -58.5q0 -14 9.5 -27t23.5 -24.5t30 -22t29 -18.5l308 -195h86zM657 0v39h-51q-18 0 -38 4.5t-38 11.5t-31.5 16t-19.5 17q-12 19 -18 56.5t-6 105.5v911q0 63 7 103t19 57q42 51 125 51h51v37h-604
v-37h51q36 0 71.5 -14t55.5 -39q8 -9 12.5 -21.5t7 -31t3 -44t0.5 -61.5v-911q0 -129 -25 -160q-21 -26 -51 -38.5t-74 -12.5h-51v-39h604z" />
    <glyph glyph-name="Iacute" unicode="&#xcd;" horiz-adv-x="709" 
d="M733 1833q0 11 -5.5 23t-14 22t-18 16.5t-17.5 6.5q-34 0 -67.5 -21t-61.5 -49l-295 -297h86l307 195q34 21 60 47t26 57zM657 0v39h-51q-18 0 -38 4.5t-38 11.5t-31.5 16t-19.5 17q-12 19 -18 56.5t-6 105.5v911q0 63 7 103t19 57q42 51 125 51h51v37h-604v-37h51
q36 0 71.5 -14t55.5 -39q8 -9 12.5 -21.5t7 -31t3 -44t0.5 -61.5v-911q0 -129 -25 -160q-21 -26 -51 -38.5t-74 -12.5h-51v-39h604z" />
    <glyph glyph-name="Icircumflex" unicode="&#xce;" horiz-adv-x="709" 
d="M688 1534l-266 356h-133l-269 -356h74l260 221l260 -221h74zM657 0v39h-51q-18 0 -38 4.5t-38 11.5t-31.5 16t-19.5 17q-12 19 -18 56.5t-6 105.5v911q0 63 7 103t19 57q42 51 125 51h51v37h-604v-37h51q36 0 71.5 -14t55.5 -39q8 -9 12.5 -21.5t7 -31t3 -44t0.5 -61.5
v-911q0 -129 -25 -160q-21 -26 -51 -38.5t-74 -12.5h-51v-39h604z" />
    <glyph glyph-name="Idieresis" unicode="&#xcf;" horiz-adv-x="709" 
d="M674 1665q0 21 -8.5 40.5t-23 34.5t-34 23.5t-41.5 8.5q-20 0 -39 -9.5t-34 -24.5t-24 -34t-9 -39q0 -21 8.5 -40t23 -33.5t34 -23.5t40.5 -9q22 0 41.5 8.5t34 23t23 34t8.5 40.5zM248 1665q0 21 -8.5 40.5t-23 34.5t-34 23.5t-41.5 8.5q-20 0 -38.5 -9.5t-33 -24.5
t-23.5 -34t-9 -39q0 -21 8.5 -40t23 -33.5t33 -23.5t39.5 -9q22 0 41.5 8.5t34 23t23 34t8.5 40.5zM657 0v39h-51q-18 0 -38 4.5t-38 11.5t-31.5 16t-19.5 17q-12 19 -18 56.5t-6 105.5v911q0 63 7 103t19 57q42 51 125 51h51v37h-604v-37h51q36 0 71.5 -14t55.5 -39
q8 -9 12.5 -21.5t7 -31t3 -44t0.5 -61.5v-911q0 -129 -25 -160q-21 -26 -51 -38.5t-74 -12.5h-51v-39h604z" />
    <glyph glyph-name="Ntilde" unicode="&#xd1;" horiz-adv-x="1538" 
d="M1143 1786h-56q-12 -51 -54 -78t-93 -27q-41 0 -73 15t-62.5 32.5t-62.5 32.5t-72 15q-50 0 -89 -17t-68 -46t-48.5 -68.5t-30.5 -85.5h55q3 18 14 35.5t27.5 31.5t37.5 22.5t42 8.5q34 0 59.5 -7.5t47 -18t41 -23.5t42 -23.5t51 -18t67.5 -7.5q44 0 83 19.5t69 51
t49 72.5t24 84zM1507 1372v37h-489v-37h47q84 0 123 -45q29 -29 29 -162v-813l-861 1057h-344v-37q62 0 103.5 -19t68 -43.5t41.5 -49t25 -35.5v-979q0 -121 -25 -152q-17 -29 -48.5 -42t-78.5 -13h-49v-39h492v39h-49q-84 0 -123 43q-29 34 -29 164v866l932 -1135h37v1188
q0 60 5 97.5t17 56.5q17 26 49.5 39.5t77.5 13.5h49z" />
    <glyph glyph-name="Ograve" unicode="&#xd2;" horiz-adv-x="1538" 
d="M920 1534l-295 297q-29 29 -63 49.5t-62 20.5q-31 0 -48.5 -21.5t-17.5 -58.5q0 -14 9.5 -27t23.5 -24.5t30 -22t29 -18.5l308 -195h86zM1454 713q0 105 -24.5 200.5t-68.5 176.5t-105.5 146t-136.5 111t-161 70.5t-178 24.5q-100 0 -191.5 -25t-170 -71.5t-142 -112
t-108.5 -147t-69.5 -177t-24.5 -200.5q0 -166 53.5 -303t146.5 -234.5t218.5 -151t269.5 -53.5q98 0 187.5 25.5t166.5 73t139.5 114.5t106.5 150t68 180t24 203zM1219 686q-1 -167 -35 -288.5t-95 -201t-145 -118t-184 -37.5q-109 1 -192.5 50.5t-140 138t-85.5 212.5
t-29 273q0 151 29.5 272.5t86.5 206t140 130t189 44.5q117 -1 203.5 -47t144 -133.5t86 -214t27.5 -287.5z" />
    <glyph glyph-name="Oacute" unicode="&#xd3;" horiz-adv-x="1538" 
d="M1102 1833q0 11 -5.5 23t-14 22t-18 16.5t-17.5 6.5q-35 0 -68.5 -21t-60.5 -49l-295 -297h86l307 195q34 21 60 47t26 57zM1454 713q0 105 -24.5 200.5t-68.5 176.5t-105.5 146t-136.5 111t-161 70.5t-178 24.5q-100 0 -191.5 -25t-170 -71.5t-142 -112t-108.5 -147
t-69.5 -177t-24.5 -200.5q0 -166 53.5 -303t146.5 -234.5t218.5 -151t269.5 -53.5q98 0 187.5 25.5t166.5 73t139.5 114.5t106.5 150t68 180t24 203zM1219 686q-1 -167 -35 -288.5t-95 -201t-145 -118t-184 -37.5q-109 1 -192.5 50.5t-140 138t-85.5 212.5t-29 273
q0 151 29.5 272.5t86.5 206t140 130t189 44.5q117 -1 203.5 -47t144 -133.5t86 -214t27.5 -287.5z" />
    <glyph glyph-name="Ocircumflex" unicode="&#xd4;" horiz-adv-x="1538" 
d="M1106 1534l-266 356h-133l-269 -356h74l260 221l260 -221h74zM1454 713q0 105 -24.5 200.5t-68.5 176.5t-105.5 146t-136.5 111t-161 70.5t-178 24.5q-100 0 -191.5 -25t-170 -71.5t-142 -112t-108.5 -147t-69.5 -177t-24.5 -200.5q0 -166 53.5 -303t146.5 -234.5
t218.5 -151t269.5 -53.5q98 0 187.5 25.5t166.5 73t139.5 114.5t106.5 150t68 180t24 203zM1219 686q-1 -167 -35 -288.5t-95 -201t-145 -118t-184 -37.5q-109 1 -192.5 50.5t-140 138t-85.5 212.5t-29 273q0 151 29.5 272.5t86.5 206t140 130t189 44.5q117 -1 203.5 -47
t144 -133.5t86 -214t27.5 -287.5z" />
    <glyph glyph-name="Otilde" unicode="&#xd5;" horiz-adv-x="1538" 
d="M1122 1815h-55q-6 -26 -20.5 -45.5t-34 -32.5t-43.5 -20t-49 -7q-41 0 -73 14.5t-62.5 32.5t-62.5 32.5t-73 14.5q-50 0 -89 -16.5t-68 -46t-48.5 -69t-29.5 -85.5h55q2 18 13 35.5t28 31.5t37.5 23t42.5 9q34 0 59.5 -7.5t46.5 -18.5t40.5 -23.5t42 -23.5t51 -18.5
t67.5 -7.5q45 0 84 19.5t69 51.5t48.5 73t23.5 84zM1454 713q0 105 -24.5 200.5t-68.5 176.5t-105.5 146t-136.5 111t-161 70.5t-178 24.5q-100 0 -191.5 -25t-170 -71.5t-142 -112t-108.5 -147t-69.5 -177t-24.5 -200.5q0 -166 53.5 -303t146.5 -234.5t218.5 -151
t269.5 -53.5q98 0 187.5 25.5t166.5 73t139.5 114.5t106.5 150t68 180t24 203zM1219 686q-1 -167 -35 -288.5t-95 -201t-145 -118t-184 -37.5q-109 1 -192.5 50.5t-140 138t-85.5 212.5t-29 273q0 151 29.5 272.5t86.5 206t140 130t189 44.5q117 -1 203.5 -47t144 -133.5
t86 -214t27.5 -287.5z" />
    <glyph glyph-name="Odieresis" unicode="&#xd6;" horiz-adv-x="1538" 
d="M1081 1665q0 21 -8.5 40.5t-23 34.5t-34 23.5t-40.5 8.5q-20 0 -39 -9.5t-34 -24.5t-24.5 -34t-9.5 -39q0 -21 8.5 -40t23.5 -33.5t34.5 -23.5t40.5 -9t40.5 8.5t34 23t23 34t8.5 40.5zM655 1665q0 21 -8.5 40.5t-23 34.5t-34 23.5t-40.5 8.5q-20 0 -39 -9.5t-33.5 -24.5
t-23.5 -34t-9 -39q0 -21 8.5 -40t23 -33.5t33.5 -23.5t40 -9t40.5 8.5t34 23t23 34t8.5 40.5zM1454 713q0 105 -24.5 200.5t-68.5 176.5t-105.5 146t-136.5 111t-161 70.5t-178 24.5q-100 0 -191.5 -25t-170 -71.5t-142 -112t-108.5 -147t-69.5 -177t-24.5 -200.5
q0 -166 53.5 -303t146.5 -234.5t218.5 -151t269.5 -53.5q98 0 187.5 25.5t166.5 73t139.5 114.5t106.5 150t68 180t24 203zM1219 686q-1 -167 -35 -288.5t-95 -201t-145 -118t-184 -37.5q-109 1 -192.5 50.5t-140 138t-85.5 212.5t-29 273q0 151 29.5 272.5t86.5 206
t140 130t189 44.5q117 -1 203.5 -47t144 -133.5t86 -214t27.5 -287.5z" />
    <glyph glyph-name="Oslash" unicode="&#xd8;" horiz-adv-x="1538" 
d="M1456 715q0 80 -11.5 149.5t-36 132.5t-64 122t-95.5 118l142 172l-62 45l-137 -168q-186 156 -422 156q-146 0 -272.5 -55.5t-220.5 -153t-147.5 -229t-53.5 -283.5q0 -338 209 -551l-138 -170l62 -49l133 166q48 -39 101.5 -67t110 -46.5t112.5 -27.5t108 -9
q90 0 175.5 25.5t161 72.5t139 114t109.5 150t71.5 180.5t25.5 205.5zM1106 1180l-717 -879q-76 183 -76 424q0 74 9 150.5t30.5 148t55.5 134.5t84.5 109.5t117.5 73.5t154 27q111 0 195.5 -46t146.5 -142zM1217 682q0 -174 -35.5 -295.5t-98 -198t-146 -111t-179.5 -34.5
q-47 0 -90.5 9.5t-84 31t-78.5 56t-73 85.5l711 881q26 -67 40.5 -121.5t22 -104t9.5 -97t2 -101.5z" />
    <glyph glyph-name="Ugrave" unicode="&#xd9;" horiz-adv-x="1538" 
d="M905 1534l-295 297q-29 29 -63 49.5t-62 20.5q-31 0 -48 -21.5t-17 -58.5q0 -14 9.5 -27t23.5 -24.5t30 -22t29 -18.5l307 -195h86zM1516 1372v37h-500v-37h53q79 0 121 -45q29 -35 29 -166v-571q0 -29 -0.5 -82.5t-9 -113t-29 -117t-60.5 -95.5q-19 -18 -50.5 -40
t-74 -41.5t-96 -32.5t-117.5 -13q-90 0 -151.5 23.5t-102.5 63t-63.5 90t-33.5 105t-13 108.5t-2 100v616q0 59 7 97.5t19 58.5q9 14 18.5 24.5t21.5 17t27.5 10t37.5 3.5h53v37h-569v-37h32q42 0 71 -9.5t46 -31.5q19 -21 27 -63t8 -107v-553v-92q0 -49 5 -102t17.5 -106.5
t37 -103.5t64.5 -93t99 -75t140.5 -50.5t189.5 -18.5q78 0 139.5 9.5t111.5 28.5t91 48.5t80 69.5q37 39 61 88t38 106.5t19 123.5t5 139v573q0 119 22 147q23 36 53.5 54t73.5 18h54z" />
    <glyph glyph-name="Uacute" unicode="&#xda;" horiz-adv-x="1538" 
d="M1102 1833q0 11 -5.5 23t-14 22t-18 16.5t-17.5 6.5q-35 0 -68.5 -21t-60.5 -49l-295 -297h86l307 195q34 21 60 47t26 57zM1516 1372v37h-500v-37h53q79 0 121 -45q29 -35 29 -166v-571q0 -29 -0.5 -82.5t-9 -113t-29 -117t-60.5 -95.5q-19 -18 -50.5 -40t-74 -41.5
t-96 -32.5t-117.5 -13q-90 0 -151.5 23.5t-102.5 63t-63.5 90t-33.5 105t-13 108.5t-2 100v616q0 59 7 97.5t19 58.5q9 14 18.5 24.5t21.5 17t27.5 10t37.5 3.5h53v37h-569v-37h32q42 0 71 -9.5t46 -31.5q19 -21 27 -63t8 -107v-553v-92q0 -49 5 -102t17.5 -106.5t37 -103.5
t64.5 -93t99 -75t140.5 -50.5t189.5 -18.5q78 0 139.5 9.5t111.5 28.5t91 48.5t80 69.5q37 39 61 88t38 106.5t19 123.5t5 139v573q0 119 22 147q23 36 53.5 54t73.5 18h54z" />
    <glyph glyph-name="Ucircumflex" unicode="&#xdb;" horiz-adv-x="1538" 
d="M1081 1534l-266 356h-133l-268 -356h73l261 221l260 -221h73zM1516 1372v37h-500v-37h53q79 0 121 -45q29 -35 29 -166v-571q0 -29 -0.5 -82.5t-9 -113t-29 -117t-60.5 -95.5q-19 -18 -50.5 -40t-74 -41.5t-96 -32.5t-117.5 -13q-90 0 -151.5 23.5t-102.5 63t-63.5 90
t-33.5 105t-13 108.5t-2 100v616q0 59 7 97.5t19 58.5q9 14 18.5 24.5t21.5 17t27.5 10t37.5 3.5h53v37h-569v-37h32q42 0 71 -9.5t46 -31.5q19 -21 27 -63t8 -107v-553v-92q0 -49 5 -102t17.5 -106.5t37 -103.5t64.5 -93t99 -75t140.5 -50.5t189.5 -18.5q78 0 139.5 9.5
t111.5 28.5t91 48.5t80 69.5q37 39 61 88t38 106.5t19 123.5t5 139v573q0 119 22 147q23 36 53.5 54t73.5 18h54z" />
    <glyph glyph-name="Udieresis" unicode="&#xdc;" horiz-adv-x="1538" 
d="M1098 1665q0 21 -8.5 40.5t-23 34.5t-34 23.5t-41.5 8.5q-20 0 -39 -9.5t-34 -24.5t-24 -34t-9 -39q0 -21 8.5 -40t23 -33.5t34 -23.5t40.5 -9q22 0 41.5 8.5t34 23t23 34t8.5 40.5zM672 1665q0 21 -8.5 40.5t-23 34.5t-34 23.5t-41.5 8.5q-20 0 -38.5 -9.5t-33 -24.5
t-23.5 -34t-9 -39q0 -21 8.5 -40t23 -33.5t33 -23.5t39.5 -9q22 0 41.5 8.5t34 23t23 34t8.5 40.5zM1516 1372v37h-500v-37h53q79 0 121 -45q29 -35 29 -166v-571q0 -29 -0.5 -82.5t-9 -113t-29 -117t-60.5 -95.5q-19 -18 -50.5 -40t-74 -41.5t-96 -32.5t-117.5 -13
q-90 0 -151.5 23.5t-102.5 63t-63.5 90t-33.5 105t-13 108.5t-2 100v616q0 59 7 97.5t19 58.5q9 14 18.5 24.5t21.5 17t27.5 10t37.5 3.5h53v37h-569v-37h32q42 0 71 -9.5t46 -31.5q19 -21 27 -63t8 -107v-553v-92q0 -49 5 -102t17.5 -106.5t37 -103.5t64.5 -93t99 -75
t140.5 -50.5t189.5 -18.5q78 0 139.5 9.5t111.5 28.5t91 48.5t80 69.5q37 39 61 88t38 106.5t19 123.5t5 139v573q0 119 22 147q23 36 53.5 54t73.5 18h54z" />
    <glyph glyph-name="germandbls" unicode="&#xdf;" horiz-adv-x="1065" 
d="M997 438q0 172 -74.5 275t-209.5 141q63 26 102 59t60 70.5t28.5 77.5t7.5 80q0 75 -26 137t-74 107t-115.5 69.5t-150.5 24.5q-91 0 -160 -26.5t-116 -83.5t-71 -147t-24 -216v-773q0 -60 -6 -97.5t-22 -58.5t-42.5 -29t-66.5 -9v-39h311v1077q0 104 14 169t39.5 101
t60 49t75.5 13q44 0 81 -14.5t63.5 -46t41 -81.5t14.5 -120q0 -80 -15.5 -134t-44 -87t-70 -47.5t-93.5 -14.5v-59q79 -6 136.5 -42t95 -97.5t55.5 -147.5t18 -192q0 -141 -43 -211t-112 -70q-28 3 -44 13.5t-16 35.5q0 4 2 13t4.5 19.5t4.5 20.5t1 17q-2 37 -23.5 59.5
t-62.5 22.5q-40 0 -63 -25t-21 -65q1 -37 16.5 -68t42 -53t63 -34.5t79.5 -12.5q81 0 146 37t110.5 99t69.5 143.5t24 170.5z" />
    <glyph glyph-name="agrave" unicode="&#xe0;" horiz-adv-x="946" 
d="M618 1083l-294 297q-29 29 -63 49.5t-62 20.5q-31 0 -48.5 -21.5t-17.5 -58.5q0 -14 9.5 -27t23.5 -24.5t30 -22t29 -18.5l307 -195h86zM944 137v60q-29 -29 -46.5 -45.5t-29 -25t-20 -11t-17.5 -2.5q-20 0 -30 11.5t-15 39.5q-2 15 -4 57.5t-2 108.5v325q0 75 -11 135
t-45 102t-97 64.5t-166 22.5q-68 0 -131 -16t-111 -46.5t-77 -75t-29 -100.5q0 -48 23 -74t65 -26q38 0 63 26.5t23 71.5l-2 62q3 49 40.5 83t102.5 34q45 0 78.5 -13t55.5 -42.5t33 -77t11 -115.5v-39q-113 -39 -196 -74.5t-142 -68.5t-96.5 -65t-58.5 -64t-29 -65t-8 -69
q0 -55 16.5 -100t46.5 -76.5t71.5 -49t92.5 -17.5q37 0 65.5 6t60.5 22.5t73 47t104 79.5q0 -45 9 -75t24 -48t35 -25t43 -7q111 0 227 155zM606 205q-65 -53 -116.5 -80t-92.5 -25q-30 1 -56.5 14.5t-46 36.5t-31 54.5t-11.5 68.5q0 35 10 68t46.5 67.5t107 73.5t190.5 86
v-364z" />
    <glyph glyph-name="aacute" unicode="&#xe1;" horiz-adv-x="946" 
d="M774 1382q0 11 -5.5 23t-14 22t-18 16.5t-17.5 6.5q-34 0 -67.5 -21t-61.5 -49l-295 -297h86l307 195q34 22 60 47.5t26 56.5zM944 137v60q-29 -29 -46.5 -45.5t-29 -25t-20 -11t-17.5 -2.5q-20 0 -30 11.5t-15 39.5q-2 15 -4 57.5t-2 108.5v325q0 75 -11 135t-45 102
t-97 64.5t-166 22.5q-68 0 -131 -16t-111 -46.5t-77 -75t-29 -100.5q0 -48 23 -74t65 -26q38 0 63 26.5t23 71.5l-2 62q3 49 40.5 83t102.5 34q45 0 78.5 -13t55.5 -42.5t33 -77t11 -115.5v-39q-113 -39 -196 -74.5t-142 -68.5t-96.5 -65t-58.5 -64t-29 -65t-8 -69
q0 -55 16.5 -100t46.5 -76.5t71.5 -49t92.5 -17.5q37 0 65.5 6t60.5 22.5t73 47t104 79.5q0 -45 9 -75t24 -48t35 -25t43 -7q111 0 227 155zM606 205q-65 -53 -116.5 -80t-92.5 -25q-30 1 -56.5 14.5t-46 36.5t-31 54.5t-11.5 68.5q0 35 10 68t46.5 67.5t107 73.5t190.5 86
v-364z" />
    <glyph glyph-name="acircumflex" unicode="&#xe2;" horiz-adv-x="946" 
d="M805 1083l-266 357h-133l-269 -357h74l260 222l260 -222h74zM944 137v60q-29 -29 -46.5 -45.5t-29 -25t-20 -11t-17.5 -2.5q-20 0 -30 11.5t-15 39.5q-2 15 -4 57.5t-2 108.5v325q0 75 -11 135t-45 102t-97 64.5t-166 22.5q-68 0 -131 -16t-111 -46.5t-77 -75t-29 -100.5
q0 -48 23 -74t65 -26q38 0 63 26.5t23 71.5l-2 62q3 49 40.5 83t102.5 34q45 0 78.5 -13t55.5 -42.5t33 -77t11 -115.5v-39q-113 -39 -196 -74.5t-142 -68.5t-96.5 -65t-58.5 -64t-29 -65t-8 -69q0 -55 16.5 -100t46.5 -76.5t71.5 -49t92.5 -17.5q37 0 65.5 6t60.5 22.5
t73 47t104 79.5q0 -45 9 -75t24 -48t35 -25t43 -7q111 0 227 155zM606 205q-65 -53 -116.5 -80t-92.5 -25q-30 1 -56.5 14.5t-46 36.5t-31 54.5t-11.5 68.5q0 35 10 68t46.5 67.5t107 73.5t190.5 86v-364z" />
    <glyph glyph-name="atilde" unicode="&#xe3;" horiz-adv-x="946" 
d="M805 1397h-55q-13 -51 -55 -78t-93 -27q-41 0 -73 14.5t-62 32.5t-62.5 32.5t-72.5 14.5q-50 0 -89 -16.5t-68 -46t-48.5 -69t-30.5 -85.5h56q2 18 13 35.5t27.5 32t37.5 23t42 8.5q34 0 59.5 -7.5t47 -18.5t41 -23.5t42 -23.5t51 -18.5t67.5 -7.5q44 0 83 19.5t69 51.5
t49 73t24 84zM944 137v60q-29 -29 -46.5 -45.5t-29 -25t-20 -11t-17.5 -2.5q-20 0 -30 11.5t-15 39.5q-2 15 -4 57.5t-2 108.5v325q0 75 -11 135t-45 102t-97 64.5t-166 22.5q-68 0 -131 -16t-111 -46.5t-77 -75t-29 -100.5q0 -48 23 -74t65 -26q38 0 63 26.5t23 71.5l-2 62
q3 49 40.5 83t102.5 34q45 0 78.5 -13t55.5 -42.5t33 -77t11 -115.5v-39q-113 -39 -196 -74.5t-142 -68.5t-96.5 -65t-58.5 -64t-29 -65t-8 -69q0 -55 16.5 -100t46.5 -76.5t71.5 -49t92.5 -17.5q37 0 65.5 6t60.5 22.5t73 47t104 79.5q0 -45 9 -75t24 -48t35 -25t43 -7
q111 0 227 155zM606 205q-65 -53 -116.5 -80t-92.5 -25q-30 1 -56.5 14.5t-46 36.5t-31 54.5t-11.5 68.5q0 35 10 68t46.5 67.5t107 73.5t190.5 86v-364z" />
    <glyph glyph-name="adieresis" unicode="&#xe4;" horiz-adv-x="946" 
d="M780 1276q0 21 -8.5 40.5t-23 34t-34 23t-40.5 8.5q-20 0 -39 -9t-34 -24t-24.5 -34t-9.5 -39q0 -21 8.5 -40t23 -34t34 -24t41.5 -9q21 0 40.5 8.5t34 23.5t23 34.5t8.5 40.5zM354 1276q0 21 -8.5 40.5t-23 34t-34 23t-40.5 8.5q-20 0 -39 -9t-33.5 -24t-23.5 -34
t-9 -39q0 -21 8.5 -40t23 -34t33.5 -24t40 -9t40.5 8.5t34 23.5t23 34.5t8.5 40.5zM944 137v60q-29 -29 -46.5 -45.5t-29 -25t-20 -11t-17.5 -2.5q-20 0 -30 11.5t-15 39.5q-2 15 -4 57.5t-2 108.5v325q0 75 -11 135t-45 102t-97 64.5t-166 22.5q-68 0 -131 -16t-111 -46.5
t-77 -75t-29 -100.5q0 -48 23 -74t65 -26q38 0 63 26.5t23 71.5l-2 62q3 49 40.5 83t102.5 34q45 0 78.5 -13t55.5 -42.5t33 -77t11 -115.5v-39q-113 -39 -196 -74.5t-142 -68.5t-96.5 -65t-58.5 -64t-29 -65t-8 -69q0 -55 16.5 -100t46.5 -76.5t71.5 -49t92.5 -17.5
q37 0 65.5 6t60.5 22.5t73 47t104 79.5q0 -45 9 -75t24 -48t35 -25t43 -7q111 0 227 155zM606 205q-65 -53 -116.5 -80t-92.5 -25q-30 1 -56.5 14.5t-46 36.5t-31 54.5t-11.5 68.5q0 35 10 68t46.5 67.5t107 73.5t190.5 86v-364z" />
    <glyph glyph-name="aring" unicode="&#xe5;" horiz-adv-x="946" 
d="M684 1282q0 46 -17 83t-44.5 62.5t-63 39.5t-72.5 14q-40 0 -76 -14.5t-63.5 -40.5t-44 -62.5t-16.5 -81.5t17.5 -81.5t46 -62.5t64 -40.5t72.5 -14.5t72.5 14.5t63 40.5t44.5 62.5t17 81.5zM944 137v60q-29 -29 -46.5 -45.5t-29 -25t-20 -11t-17.5 -2.5q-20 0 -30 11.5
t-15 39.5q-2 15 -4 57.5t-2 108.5v325q0 75 -11 135t-45 102t-97 64.5t-166 22.5q-68 0 -131 -16t-111 -46.5t-77 -75t-29 -100.5q0 -48 23 -74t65 -26q38 0 63 26.5t23 71.5l-2 62q3 49 40.5 83t102.5 34q45 0 78.5 -13t55.5 -42.5t33 -77t11 -115.5v-39
q-113 -39 -196 -74.5t-142 -68.5t-96.5 -65t-58.5 -64t-29 -65t-8 -69q0 -55 16.5 -100t46.5 -76.5t71.5 -49t92.5 -17.5q37 0 65.5 6t60.5 22.5t73 47t104 79.5q0 -45 9 -75t24 -48t35 -25t43 -7q111 0 227 155zM612 1282q0 -26 -9.5 -49t-26.5 -40t-40 -27.5t-49 -10.5
q-24 0 -47.5 8.5t-41.5 25t-29 40t-11 53.5q0 28 10.5 51.5t28 40.5t41 26t49.5 9q24 0 46.5 -9t40 -26t28 -40.5t10.5 -51.5zM606 205q-65 -53 -116.5 -80t-92.5 -25q-30 1 -56.5 14.5t-46 36.5t-31 54.5t-11.5 68.5q0 35 10 68t46.5 67.5t107 73.5t190.5 86v-364z" />
    <glyph glyph-name="ae" unicode="&#xe6;" horiz-adv-x="1421" 
d="M1356 332l-33 24q-35 -86 -80 -132.5t-87.5 -68t-77.5 -25t-50 -3.5q-24 0 -52.5 5.5t-57 19t-55.5 37t-48 59.5q-31 50 -42 132t-11 210h594q-2 93 -26 165.5t-67.5 122t-105.5 75.5t-139 26q-93 0 -160.5 -28t-118.5 -97q-11 27 -31.5 50t-54.5 39.5t-82 26t-112 9.5
q-91 0 -157 -22t-109 -56.5t-63.5 -75.5t-20.5 -80q0 -20 5 -38t16.5 -32t29 -22t43.5 -8q21 2 35.5 8t24.5 23t15 49t7 86q2 46 40.5 78.5t106.5 32.5q35 0 63.5 -11t48.5 -35.5t31 -64t11 -96.5v-94q-139 -56 -236 -100.5t-158 -89.5t-88.5 -97.5t-27.5 -124.5
q0 -50 18.5 -93.5t50 -76t74 -51.5t90.5 -19q62 0 117 19t100.5 46t80 55.5l57.5 47.5q45 -59 85 -92.5t77 -50.5t73 -21t72 -4q84 0 147 30t109.5 80.5t78 116t50.5 136.5zM1157 657h-395q1 64 18 111t45 78t64 46t76 15t74.5 -14t60 -44t40.5 -77.5t17 -114.5zM635 193
q-43 -34 -75 -56t-57 -34.5t-45 -17t-40 -3.5q-35 1 -65 15.5t-52.5 40t-35.5 59t-13 71.5q0 59 30 103t78 77t107.5 58t118.5 47v-92q0 -38 3.5 -77t10 -74.5t15.5 -65.5t20 -51z" />
    <glyph glyph-name="ccedilla" unicode="&#xe7;" horiz-adv-x="946" 
d="M874 362l-28 15q-31 -74 -64.5 -121t-70.5 -74t-77 -37t-83 -10q-75 0 -132.5 35.5t-96.5 95t-59.5 137.5t-20.5 162q0 74 17 137t49 109.5t78.5 73t105.5 26.5q72 0 106 -34.5t39 -90.5q3 -43 15.5 -67.5t29.5 -36.5t36 -15t34 -3q49 0 73.5 26.5t24.5 61.5
q0 40 -23.5 78t-68.5 75q-91 74 -232 74q-93 0 -175.5 -36.5t-144.5 -102.5t-98 -159t-36 -206q0 -106 27 -193t74 -152t110.5 -105t136.5 -52l-78 -184l16 -12q22 6 47 9t50 1q35 -3 56 -24t21 -58q0 -45 -33 -67.5t-91 -22.5q-13 0 -30 2t-35 6t-35.5 8.5t-31.5 10.5
l-30 -68q40 -14 84 -23.5t88 -9.5q51 0 100 12t87.5 34.5t62.5 55.5t24 76q0 39 -15 67t-39.5 46t-57 26.5t-66.5 8.5t-61 -6l43 108q67 4 130 34.5t114 82.5t86 122t48 154z" />
    <glyph glyph-name="egrave" unicode="&#xe8;" horiz-adv-x="946" 
d="M659 1083l-294 297q-29 29 -63.5 49.5t-61.5 20.5q-31 0 -48.5 -21.5t-17.5 -58.5q0 -14 9.5 -27t23.5 -24.5t30 -22t29 -18.5l307 -195h86zM885 348l-33 21q-26 -66 -55 -110t-63.5 -70.5t-74.5 -37.5t-86 -10q-70 1 -133 32t-111 89t-76 142t-28 190h660
q0 91 -27.5 162.5t-76.5 121.5t-116 76.5t-145 26.5q-97 0 -178 -35t-139.5 -101.5t-91.5 -162.5t-33 -217q0 -114 33 -205.5t90 -156t132.5 -99.5t160.5 -35q82 0 149.5 33t117.5 86.5t81.5 121.5t42.5 138zM668 653h-443q6 61 28 108.5t54.5 80t72 49t81.5 16.5
q26 0 61.5 -10.5t68 -38.5t55 -77.5t22.5 -127.5z" />
    <glyph glyph-name="eacute" unicode="&#xe9;" horiz-adv-x="946" 
d="M856 1382q0 11 -5.5 23t-14 22t-18 16.5t-17.5 6.5q-34 0 -67.5 -21t-61.5 -49l-295 -297h86l307 195q34 22 60 47.5t26 56.5zM885 348l-33 21q-26 -66 -55 -110t-63.5 -70.5t-74.5 -37.5t-86 -10q-70 1 -133 32t-111 89t-76 142t-28 190h660q0 91 -27.5 162.5
t-76.5 121.5t-116 76.5t-145 26.5q-97 0 -178 -35t-139.5 -101.5t-91.5 -162.5t-33 -217q0 -114 33 -205.5t90 -156t132.5 -99.5t160.5 -35q82 0 149.5 33t117.5 86.5t81.5 121.5t42.5 138zM668 653h-443q6 61 28 108.5t54.5 80t72 49t81.5 16.5q26 0 61.5 -10.5t68 -38.5
t55 -77.5t22.5 -127.5z" />
    <glyph glyph-name="ecircumflex" unicode="&#xea;" horiz-adv-x="946" 
d="M815 1083l-266 357h-133l-269 -357h74l260 222l260 -222h74zM885 348l-33 21q-26 -66 -55 -110t-63.5 -70.5t-74.5 -37.5t-86 -10q-70 1 -133 32t-111 89t-76 142t-28 190h660q0 91 -27.5 162.5t-76.5 121.5t-116 76.5t-145 26.5q-97 0 -178 -35t-139.5 -101.5
t-91.5 -162.5t-33 -217q0 -114 33 -205.5t90 -156t132.5 -99.5t160.5 -35q82 0 149.5 33t117.5 86.5t81.5 121.5t42.5 138zM668 653h-443q6 61 28 108.5t54.5 80t72 49t81.5 16.5q26 0 61.5 -10.5t68 -38.5t55 -77.5t22.5 -127.5z" />
    <glyph glyph-name="edieresis" unicode="&#xeb;" horiz-adv-x="946" 
d="M811 1276q0 21 -8.5 40.5t-23 34t-34 23t-40.5 8.5q-20 0 -39.5 -9t-34.5 -24t-24 -34t-9 -39q0 -21 8.5 -40t23 -34t34 -24t41.5 -9q21 0 40.5 8.5t34 23.5t23 34.5t8.5 40.5zM385 1276q0 21 -8.5 40.5t-23 34t-34 23t-40.5 8.5q-20 0 -39 -9t-33.5 -24t-23.5 -34
t-9 -39q0 -21 8.5 -40t23 -34t33.5 -24t40 -9t40.5 8.5t34 23.5t23 34.5t8.5 40.5zM885 348l-33 21q-26 -66 -55 -110t-63.5 -70.5t-74.5 -37.5t-86 -10q-70 1 -133 32t-111 89t-76 142t-28 190h660q0 91 -27.5 162.5t-76.5 121.5t-116 76.5t-145 26.5q-97 0 -178 -35
t-139.5 -101.5t-91.5 -162.5t-33 -217q0 -114 33 -205.5t90 -156t132.5 -99.5t160.5 -35q82 0 149.5 33t117.5 86.5t81.5 121.5t42.5 138zM668 653h-443q6 61 28 108.5t54.5 80t72 49t81.5 16.5q26 0 61.5 -10.5t68 -38.5t55 -77.5t22.5 -127.5z" />
    <glyph glyph-name="igrave" unicode="&#xec;" horiz-adv-x="592" 
d="M414 1083l-295 297q-29 29 -63 49.5t-62 20.5q-31 0 -48.5 -21.5t-17.5 -58.5q0 -14 9.5 -27t23.5 -24.5t30 -22t29 -18.5l308 -195h86zM541 0v39q-29 0 -47.5 1t-31.5 5t-22.5 10.5t-19.5 18.5q-14 15 -19.5 46.5t-5.5 94.5v764h-45l-289 -115l15 -37q45 16 71.5 16.5
t45.5 -16.5q10 -9 16 -24.5t8.5 -43.5t3 -70.5t0.5 -106.5v-367q0 -33 -2 -56t-5.5 -39.5t-8.5 -27.5t-12 -20q-14 -19 -39.5 -26t-77.5 -7v-39h465z" />
    <glyph glyph-name="iacute" unicode="&#xed;" horiz-adv-x="592" 
d="M569 1382q0 11 -5.5 23t-13.5 22t-17.5 16.5t-18.5 6.5q-34 0 -67.5 -21t-61.5 -49l-295 -297h86l307 195q34 22 60 47.5t26 56.5zM541 0v39q-29 0 -47.5 1t-31.5 5t-22.5 10.5t-19.5 18.5q-14 15 -19.5 46.5t-5.5 94.5v764h-45l-289 -115l15 -37q45 16 71.5 16.5
t45.5 -16.5q10 -9 16 -24.5t8.5 -43.5t3 -70.5t0.5 -106.5v-367q0 -33 -2 -56t-5.5 -39.5t-8.5 -27.5t-12 -20q-14 -19 -39.5 -26t-77.5 -7v-39h465z" />
    <glyph glyph-name="icircumflex" unicode="&#xee;" horiz-adv-x="592" 
d="M633 1083l-266 357h-134l-268 -357h74l260 222l260 -222h74zM541 0v39q-29 0 -47.5 1t-31.5 5t-22.5 10.5t-19.5 18.5q-14 15 -19.5 46.5t-5.5 94.5v764h-45l-289 -115l15 -37q45 16 71.5 16.5t45.5 -16.5q10 -9 16 -24.5t8.5 -43.5t3 -70.5t0.5 -106.5v-367
q0 -33 -2 -56t-5.5 -39.5t-8.5 -27.5t-12 -20q-14 -19 -39.5 -26t-77.5 -7v-39h465z" />
    <glyph glyph-name="idieresis" unicode="&#xef;" horiz-adv-x="592" 
d="M606 1276q0 21 -8.5 40.5t-23 34t-34 23t-40.5 8.5q-20 0 -39.5 -9t-34.5 -24t-24 -34t-9 -39q0 -21 8.5 -40t23 -34t34 -24t41.5 -9q21 0 40.5 8.5t34 23.5t23 34.5t8.5 40.5zM180 1276q0 21 -8.5 40.5t-23 34t-34 23t-40.5 8.5q-20 0 -39 -9t-33.5 -24t-23.5 -34
t-9 -39q0 -21 8.5 -40t23 -34t33.5 -24t40 -9t40.5 8.5t34 23.5t23 34.5t8.5 40.5zM541 0v39q-29 0 -47.5 1t-31.5 5t-22.5 10.5t-19.5 18.5q-14 15 -19.5 46.5t-5.5 94.5v764h-45l-289 -115l15 -37q45 16 71.5 16.5t45.5 -16.5q10 -9 16 -24.5t8.5 -43.5t3 -70.5
t0.5 -106.5v-367q0 -33 -2 -56t-5.5 -39.5t-8.5 -27.5t-12 -20q-14 -19 -39.5 -26t-77.5 -7v-39h465z" />
    <glyph glyph-name="ntilde" unicode="&#xf1;" horiz-adv-x="1065" 
d="M897 1397h-55q-13 -51 -55 -78t-93 -27q-41 0 -73 14.5t-62 32.5t-62.5 32.5t-72.5 14.5q-50 0 -89 -16.5t-68 -46t-48.5 -69t-30.5 -85.5h56q2 18 13 35.5t28 32t37.5 23t42.5 8.5q34 0 59.5 -7.5t46.5 -18.5t40.5 -23.5t42 -23.5t51 -18.5t67.5 -7.5q45 0 84 19.5
t69 51.5t48.5 73t23.5 84zM1061 0v39q-48 0 -77 7.5t-44.5 27.5t-21 54t-5.5 87v408q0 81 -13 146.5t-42 112t-76.5 72t-117.5 25.5q-151 0 -320 -199v199h-43l-291 -115l17 -37q78 32 112 2q8 -7 14 -16.5t9.5 -35t5.5 -74.5t2 -134v-354q0 -54 -5.5 -88.5t-21 -54
t-43.5 -26.5t-73 -7v-39h473v39q-52 0 -82.5 6.5t-47 25.5t-21.5 53.5t-5 90.5v502q62 68 124 101.5t122 33.5q84 0 116.5 -59.5t32.5 -188.5v-389q0 -55 -4.5 -89.5t-20 -53.5t-46.5 -26t-84 -7v-39h477z" />
    <glyph glyph-name="ograve" unicode="&#xf2;" horiz-adv-x="1065" 
d="M659 1083l-294 297q-29 29 -63.5 49.5t-61.5 20.5q-31 0 -48.5 -21.5t-17.5 -58.5q0 -14 9.5 -27t23.5 -24.5t30 -22t29 -18.5l307 -195h86zM991 494q0 102 -33.5 190.5t-94 154t-145 103t-186.5 37.5q-107 0 -192.5 -44t-145 -116t-91 -164t-31.5 -188q0 -99 33 -189
t92.5 -159t142 -109.5t182.5 -40.5q78 0 143 22t117 59.5t91.5 88.5t65.5 109.5t39 121.5t13 124zM797 414q0 -102 -17 -172.5t-47.5 -114t-73.5 -63t-94 -19.5q-68 0 -123.5 41t-95 111t-61 162t-21.5 194q0 103 21.5 172.5t55.5 111t76 59t83 17.5q69 0 124 -38.5
t93.5 -105.5t59 -158t20.5 -197z" />
    <glyph glyph-name="oacute" unicode="&#xf3;" horiz-adv-x="1065" 
d="M877 1382q0 11 -5.5 23t-14 22t-18 16.5t-18.5 6.5q-34 0 -67.5 -21t-61.5 -49l-295 -297h86l308 195q34 22 60 47.5t26 56.5zM991 494q0 102 -33.5 190.5t-94 154t-145 103t-186.5 37.5q-107 0 -192.5 -44t-145 -116t-91 -164t-31.5 -188q0 -99 33 -189t92.5 -159
t142 -109.5t182.5 -40.5q78 0 143 22t117 59.5t91.5 88.5t65.5 109.5t39 121.5t13 124zM797 414q0 -102 -17 -172.5t-47.5 -114t-73.5 -63t-94 -19.5q-68 0 -123.5 41t-95 111t-61 162t-21.5 194q0 103 21.5 172.5t55.5 111t76 59t83 17.5q69 0 124 -38.5t93.5 -105.5
t59 -158t20.5 -197z" />
    <glyph glyph-name="ocircumflex" unicode="&#xf4;" horiz-adv-x="1065" 
d="M866 1083l-266 357h-133l-268 -357h73l260 222l261 -222h73zM991 494q0 102 -33.5 190.5t-94 154t-145 103t-186.5 37.5q-107 0 -192.5 -44t-145 -116t-91 -164t-31.5 -188q0 -99 33 -189t92.5 -159t142 -109.5t182.5 -40.5q78 0 143 22t117 59.5t91.5 88.5t65.5 109.5
t39 121.5t13 124zM797 414q0 -102 -17 -172.5t-47.5 -114t-73.5 -63t-94 -19.5q-68 0 -123.5 41t-95 111t-61 162t-21.5 194q0 103 21.5 172.5t55.5 111t76 59t83 17.5q69 0 124 -38.5t93.5 -105.5t59 -158t20.5 -197z" />
    <glyph glyph-name="otilde" unicode="&#xf5;" horiz-adv-x="1065" 
d="M883 1397h-56q-12 -51 -54 -78t-93 -27q-41 0 -73 14.5t-62.5 32.5t-62.5 32.5t-72 14.5q-50 0 -89 -16.5t-68 -46t-48.5 -69t-30.5 -85.5h55q3 18 14 35.5t27.5 32t37.5 23t42 8.5q51 0 84 -15.5t63 -34t66 -34t94 -15.5q45 0 84 19.5t69 51.5t49 73t24 84zM991 494
q0 102 -33.5 190.5t-94 154t-145 103t-186.5 37.5q-107 0 -192.5 -44t-145 -116t-91 -164t-31.5 -188q0 -99 33 -189t92.5 -159t142 -109.5t182.5 -40.5q78 0 143 22t117 59.5t91.5 88.5t65.5 109.5t39 121.5t13 124zM797 414q0 -102 -17 -172.5t-47.5 -114t-73.5 -63
t-94 -19.5q-68 0 -123.5 41t-95 111t-61 162t-21.5 194q0 103 21.5 172.5t55.5 111t76 59t83 17.5q69 0 124 -38.5t93.5 -105.5t59 -158t20.5 -197z" />
    <glyph glyph-name="odieresis" unicode="&#xf6;" horiz-adv-x="1065" 
d="M840 1276q0 21 -8.5 40.5t-23 34t-34 23t-41.5 8.5q-20 0 -39 -9t-34 -24t-24 -34t-9 -39q0 -21 8.5 -40t23 -34t34 -24t40.5 -9q22 0 41.5 8.5t34 23.5t23 34.5t8.5 40.5zM414 1276q0 21 -8.5 40.5t-23 34t-34 23t-41.5 8.5q-20 0 -38.5 -9t-33 -24t-23.5 -34t-9 -39
q0 -21 8.5 -40t23 -34t33 -24t39.5 -9q22 0 41.5 8.5t34 23.5t23 34.5t8.5 40.5zM991 494q0 102 -33.5 190.5t-94 154t-145 103t-186.5 37.5q-107 0 -192.5 -44t-145 -116t-91 -164t-31.5 -188q0 -99 33 -189t92.5 -159t142 -109.5t182.5 -40.5q78 0 143 22t117 59.5
t91.5 88.5t65.5 109.5t39 121.5t13 124zM797 414q0 -102 -17 -172.5t-47.5 -114t-73.5 -63t-94 -19.5q-68 0 -123.5 41t-95 111t-61 162t-21.5 194q0 103 21.5 172.5t55.5 111t76 59t83 17.5q69 0 124 -38.5t93.5 -105.5t59 -158t20.5 -197z" />
    <glyph glyph-name="divide" unicode="&#xf7;" horiz-adv-x="2048" 
d="M1147 944q0 25 -9.5 47.5t-26.5 39.5t-39.5 26.5t-47.5 9.5q-26 0 -48 -9.5t-39 -26.5t-26.5 -39.5t-9.5 -47.5q0 -26 9.5 -48.5t26.5 -39t39 -26t48 -9.5q25 0 47.5 9.5t39.5 26t26.5 39t9.5 48.5zM1638 551v127h-1228v-127h1228zM1147 285q0 26 -9.5 48.5t-26.5 39
t-39.5 26t-47.5 9.5q-26 0 -48 -9.5t-39 -26t-26.5 -39t-9.5 -48.5t9.5 -48t26.5 -38t39 -25.5t48 -9.5q25 0 47.5 9.5t39.5 25.5t26.5 38t9.5 48z" />
    <glyph glyph-name="oslash" unicode="&#xf8;" horiz-adv-x="1065" 
d="M1024 973l-47 45l-137 -154q-39 33 -75 55t-72 35.5t-73 19t-79 5.5q-111 0 -198 -46.5t-146.5 -119.5t-90.5 -163t-30 -177q1 -42 9 -87.5t22.5 -90t35 -84.5t45.5 -70l-147 -166l49 -45l139 160q40 -34 76 -57t71.5 -37.5t72 -20.5t77.5 -6q79 0 144.5 22.5t118 61
t91.5 90t64.5 110t38.5 120t12 119.5q0 92 -28 173t-82 150zM733 748l-422 -467q-21 72 -31 140.5t-10 131.5q0 97 18 165.5t49.5 111t75.5 62t95 19.5q33 0 61.5 -8t55.5 -26.5t53 -50t55 -78.5zM803 418q0 -105 -18 -176.5t-49.5 -115t-74 -62.5t-92.5 -19q-38 0 -68 8.5
t-56.5 28t-51.5 51.5t-53 80l422 467q20 -69 30.5 -134.5t10.5 -127.5z" />
    <glyph glyph-name="ugrave" unicode="&#xf9;" horiz-adv-x="1065" 
d="M700 1083l-294 297q-29 29 -63.5 49.5t-61.5 20.5q-31 0 -48.5 -21.5t-17.5 -58.5q0 -14 9.5 -27t23.5 -24.5t30 -22t29 -18.5l307 -195h86zM1067 88l-14 37q-23 -9 -46 -12.5t-38 -3.5q-17 0 -29 6.5t-20 22.5t-11.5 44t-3.5 70v700h-327v-39q40 -2 69 -7t48 -20
t27.5 -41.5t8.5 -70.5v-541q-40 -40 -74 -66t-63.5 -41.5t-54 -21.5t-45.5 -6q-52 0 -83 18.5t-47.5 49.5t-22 69.5t-5.5 79.5v637h-336v-39q45 0 75.5 -5.5t50 -21t28 -44.5t8.5 -76v-426q0 -57 7 -122t32.5 -120.5t74.5 -92t132 -36.5q34 0 66.5 8t69.5 30.5t82 62
t105 102.5v-203h47z" />
    <glyph glyph-name="uacute" unicode="&#xfa;" horiz-adv-x="1065" 
d="M856 1382q0 11 -5.5 23t-14 22t-18 16.5t-17.5 6.5q-34 0 -67.5 -21t-61.5 -49l-295 -297h86l307 195q34 22 60 47.5t26 56.5zM1067 88l-14 37q-23 -9 -46 -12.5t-38 -3.5q-17 0 -29 6.5t-20 22.5t-11.5 44t-3.5 70v700h-327v-39q40 -2 69 -7t48 -20t27.5 -41.5
t8.5 -70.5v-541q-40 -40 -74 -66t-63.5 -41.5t-54 -21.5t-45.5 -6q-52 0 -83 18.5t-47.5 49.5t-22 69.5t-5.5 79.5v637h-336v-39q45 0 75.5 -5.5t50 -21t28 -44.5t8.5 -76v-426q0 -57 7 -122t32.5 -120.5t74.5 -92t132 -36.5q34 0 66.5 8t69.5 30.5t82 62t105 102.5v-203h47
z" />
    <glyph glyph-name="ucircumflex" unicode="&#xfb;" horiz-adv-x="1065" 
d="M862 1083l-266 357h-133l-268 -357h73l260 222l260 -222h74zM1067 88l-14 37q-23 -9 -46 -12.5t-38 -3.5q-17 0 -29 6.5t-20 22.5t-11.5 44t-3.5 70v700h-327v-39q40 -2 69 -7t48 -20t27.5 -41.5t8.5 -70.5v-541q-40 -40 -74 -66t-63.5 -41.5t-54 -21.5t-45.5 -6
q-52 0 -83 18.5t-47.5 49.5t-22 69.5t-5.5 79.5v637h-336v-39q45 0 75.5 -5.5t50 -21t28 -44.5t8.5 -76v-426q0 -57 7 -122t32.5 -120.5t74.5 -92t132 -36.5q34 0 66.5 8t69.5 30.5t82 62t105 102.5v-203h47z" />
    <glyph glyph-name="udieresis" unicode="&#xfc;" horiz-adv-x="1065" 
d="M852 1276q0 21 -8.5 40.5t-23 34t-34 23t-41.5 8.5q-20 0 -39 -9t-34 -24t-24 -34t-9 -39q0 -21 8.5 -40t23 -34t34 -24t40.5 -9q22 0 41.5 8.5t34 23.5t23 34.5t8.5 40.5zM426 1276q0 21 -8.5 40.5t-23 34t-34 23t-41.5 8.5q-20 0 -38.5 -9t-33 -24t-23.5 -34t-9 -39
q0 -21 8.5 -40t23 -34t33 -24t39.5 -9q22 0 41.5 8.5t34 23.5t23 34.5t8.5 40.5zM1067 88l-14 37q-23 -9 -46 -12.5t-38 -3.5q-17 0 -29 6.5t-20 22.5t-11.5 44t-3.5 70v700h-327v-39q40 -2 69 -7t48 -20t27.5 -41.5t8.5 -70.5v-541q-40 -40 -74 -66t-63.5 -41.5t-54 -21.5
t-45.5 -6q-52 0 -83 18.5t-47.5 49.5t-22 69.5t-5.5 79.5v637h-336v-39q45 0 75.5 -5.5t50 -21t28 -44.5t8.5 -76v-426q0 -57 7 -122t32.5 -120.5t74.5 -92t132 -36.5q34 0 66.5 8t69.5 30.5t82 62t105 102.5v-203h47z" />
    <glyph glyph-name="ydieresis" unicode="&#xff;" horiz-adv-x="1065" 
d="M852 1225q0 21 -8.5 40.5t-23 34t-34 23t-41.5 8.5q-20 0 -39 -9t-34 -24t-24 -34t-9 -39q0 -21 8.5 -40.5t23 -34t34 -23.5t40.5 -9q22 0 41.5 8.5t34 23t23 34t8.5 41.5zM426 1225q0 21 -8.5 40.5t-23 34t-34 23t-41.5 8.5q-20 0 -38.5 -9t-33 -24t-23.5 -34t-9 -39
q0 -21 8.5 -40.5t23 -34t33 -23.5t39.5 -9q22 0 41.5 8.5t34 23t23 34t8.5 41.5zM1053 913v39h-310v-39q26 0 42 -2t25 -5t13.5 -7t7.5 -8q6 -9 8 -22t0 -28.5t-7 -31.5t-13 -31l-213 -526l-231 479q-17 37 -26 64t-9 49q0 34 28 51.5t66 17.5h23v39h-445v-39q39 -3 67 -21
t48 -42t33 -50l22 -44l342 -717l-67 -166q-18 -45 -37 -75.5t-37.5 -49t-36 -26t-33.5 -7.5q-6 0 -23 6t-38.5 12.5t-44 12.5t-39.5 6q-53 0 -80 -26t-27 -68q0 -25 10.5 -46.5t29.5 -37.5t45 -25.5t57 -9.5q45 0 90.5 18.5t87.5 54.5t79 88t64 120l387 950q19 47 35 74.5
t32 42.5t34 19.5t41 6.5z" />
    <glyph glyph-name="asciicircum" unicode="^" horiz-adv-x="840" 
d="M724 848l-284 653h-39l-281 -654l68 -7l223 437l243 -431z" />
    <glyph glyph-name="space" unicode="&#xa0;" horiz-adv-x="649" 
 />
    <glyph glyph-name="exclam" unicode="!" horiz-adv-x="938" 
d="M492 1217q0 81 -29.5 123t-79.5 42t-77 -42t-27 -123q0 -21 7 -90t20 -179.5t31 -259.5t40 -330h14q22 181 40.5 330t32 259.5t21 179.5t7.5 90zM496 90q0 23 -9 43.5t-24.5 35.5t-36 23.5t-43.5 8.5q-22 0 -41.5 -9t-34 -24t-23 -35.5t-8.5 -42.5q0 -21 8.5 -40.5
t23 -34.5t34 -24t41.5 -9q23 0 43.5 8.5t36 23t24.5 34t9 42.5z" />
    <glyph glyph-name="uni1FFD" unicode="&#x1ffd;" horiz-adv-x="438" 
d="M367 1440q10 15 12 34t-4 36.5t-18.5 32t-30.5 20.5q-19 6 -36.5 2t-32.5 -14.5t-26.5 -25.5t-17.5 -32l-131 -387h49z" />
    <glyph glyph-name="anoteleia" unicode="&#x387;" horiz-adv-x="709" 
d="M457 889q0 28 -11 52.5t-29.5 43t-44 29t-53.5 10.5q-27 0 -51.5 -10.5t-43 -29t-29.5 -43t-11 -52.5q0 -29 11 -53.5t29.5 -43.5t43 -29.5t51.5 -10.5q28 0 53.5 10.5t44 29.5t29.5 43.5t11 53.5z" />
    <glyph glyph-name="uni1FFE" unicode="&#x1ffe;" horiz-adv-x="479" 
d="M385 1487q0 20 -7.5 40.5t-23.5 37t-39.5 27t-54.5 10.5q-44 0 -75.5 -21.5t-52 -53.5t-30.5 -70.5t-10 -72.5q0 -69 23 -120.5t60 -86.5t82 -54t89 -23l6 41q-29 3 -62.5 16.5t-62 40t-48 68.5t-19.5 102q0 7 2 17t6.5 19.5t11.5 16t17 6.5q8 0 16.5 -4.5t18.5 -9.5
t22.5 -9.5t28.5 -4.5q18 0 36.5 6.5t33 18t23.5 27.5t9 36z" />
    <glyph glyph-name="uni1FBF" unicode="&#x1fbf;" horiz-adv-x="479" 
d="M385 1382q0 35 -10 74t-30.5 72t-52 54.5t-75.5 21.5q-31 0 -54.5 -11t-39 -28t-23.5 -37.5t-8 -40.5t9 -36t24 -27.5t33.5 -18t38.5 -6.5q16 0 28 4.5t21.5 9.5t18.5 9.5t18 4.5q10 0 16.5 -6.5t10.5 -16t5.5 -19.5t1.5 -17q0 -60 -19 -102t-47.5 -68.5t-61 -40
t-60.5 -16.5l4 -41q44 4 89 23t81 53.5t59 86t23 119.5z" />
    <glyph glyph-name="uni037E" unicode="&#x37e;" horiz-adv-x="709" 
d="M457 889q0 28 -11 52.5t-29.5 43t-44 29t-53.5 10.5q-27 0 -51.5 -10.5t-43 -29t-29.5 -43t-11 -52.5q0 -29 11 -53.5t29.5 -43.5t43 -29.5t51.5 -10.5q28 0 53.5 10.5t44 29.5t29.5 43.5t11 53.5zM469 20q0 49 -14 84.5t-36.5 58.5t-49.5 34.5t-52 11.5
q-58 0 -95.5 -31.5t-37.5 -87.5q0 -28 11.5 -48t28.5 -33t36.5 -19t36.5 -6q15 0 24.5 1t17 2.5l15 3t17.5 1.5q11 0 14.5 -6t3.5 -19q0 -25 -11.5 -54t-33 -58.5t-52 -57t-69.5 -49.5l23 -41q36 18 75.5 48t72 70.5t54 90t21.5 104.5z" />
    <glyph glyph-name="sigma1" unicode="&#x3c2;" horiz-adv-x="958" 
d="M866 -49q0 127 -77.5 191.5t-235.5 64.5q-78 0 -151.5 11.5t-130 44t-90.5 91.5t-34 154t27.5 157.5t77 99t117.5 51t149 14.5q16 0 25.5 -0.5t17 -1.5t15.5 -1.5t22 -0.5q73 0 119 23t72 58t35.5 75t9.5 75h-35q-9 -13 -20.5 -24t-30 -18.5t-46 -11.5t-67.5 -4
q-34 0 -72 4.5t-67 4.5q-40 0 -84.5 -5t-89 -22.5t-85 -50.5t-71.5 -89t-49.5 -138.5t-18.5 -198.5q0 -98 14 -169.5t39 -122.5t60 -84t76.5 -53t88.5 -30t97 -14q29 -3 58.5 -4.5t58.5 -3.5q36 -3 72 -13.5t64.5 -30t46.5 -48.5t18 -68q0 -41 -20.5 -75.5t-51 -59
t-66 -38.5t-65.5 -14t-67 8.5t-72 18.5t-65 18.5t-46 8.5q-32 0 -49 -21t-17 -53q0 -12 5 -24t21.5 -22.5t48 -17t85.5 -6.5q108 0 189 30t135.5 80.5t82 116.5t27.5 138z" />
    <glyph glyph-name="Alpha" unicode="&#x391;" horiz-adv-x="1520" 
d="M1487 0v31q-53 0 -98.5 27t-71.5 92l-531 1251h-51l-528 -1241q-14 -32 -27.5 -56t-34.5 -40t-52.5 -24.5t-80.5 -8.5v-31h432v31q-44 0 -76 9.5t-51 25t-24 36.5t4 45l121 299h561q22 -53 35.5 -85.5t22.5 -53.5t14.5 -34.5t11.5 -27.5t14 -33.5t21 -51.5q10 -23 7 -46
t-19.5 -41.5t-48 -30t-79.5 -11.5v-31h529zM944 524h-491l243 590z" />
    <glyph glyph-name="Beta" unicode="&#x392;" horiz-adv-x="1464" 
d="M1325 362q0 88 -31.5 153.5t-82.5 109t-114 66t-126 26.5q52 7 105.5 33t96.5 67.5t70 96.5t27 120q0 75 -36.5 138t-100.5 108.5t-151.5 70.5t-190.5 25h-697v-30q58 0 97.5 -10t62.5 -30t33 -51t10 -73v-1028q0 -68 -50.5 -95.5t-144.5 -27.5v-31h732q50 0 106 9
t110.5 28t104 48t87.5 69.5t60.5 92t22.5 115.5zM1063 1032q0 -60 -24 -113.5t-65 -94t-95 -64t-113 -23.5h-262v490q0 43 24 67.5t66 24.5h190q56 0 106.5 -23.5t89 -63t61 -91.5t22.5 -109zM1104 375q0 -72 -27.5 -131t-71.5 -101.5t-98 -66t-108 -23.5h-240
q-26 0 -40.5 16t-14.5 44v567h272q63 0 122 -24t105 -65t73.5 -96.5t27.5 -119.5z" />
    <glyph glyph-name="Chi" unicode="&#x3a7;" horiz-adv-x="1589" 
d="M1550 0v31q-24 0 -52 8.5t-56 24t-53 36.5t-43 45l-467 629l358 445q60 73 122.5 100t131.5 27v30h-467v-30q103 0 133 -32t-10 -81l-318 -393l-297 399q-22 30 -17.5 50t26.5 32.5t55.5 18t69.5 6.5v30h-623v-30q71 0 129.5 -31t108.5 -96l409 -549l-411 -508
q-57 -71 -114 -101t-122 -30v-31h467v31q-45 0 -81 7.5t-56.5 21.5t-24 33.5t16.5 43.5q1 1 20.5 25.5t53.5 66.5t73 91t79.5 99t73 90.5t52.5 66.5l20 26l334 -446q20 -26 14.5 -49t-26.5 -40t-54 -26.5t-67 -9.5v-31h612z" />
    <glyph glyph-name="Delta" unicode="&#x394;" horiz-adv-x="1384" 
d="M1327 0l-645 1401h-18l-646 -1401h1309zM1065 72h-926l471 991z" />
    <glyph glyph-name="Epsilon" unicode="&#x395;" horiz-adv-x="1399" 
d="M1327 332h-37q-21 -59 -53.5 -107t-73.5 -82.5t-89 -53.5t-101 -19h-398q-32 0 -51.5 15.5t-19.5 49.5v549h350q58 0 93.5 -23t55 -55t26.5 -65.5t7 -53.5h33v471h-33q0 -18 -6 -50.5t-25.5 -65t-55.5 -56.5t-95 -24h-350v475q0 35 16.5 53.5t54.5 18.5h373
q55 0 93 -16.5t63.5 -45.5t40.5 -67.5t24 -81.5h37l-24 278h-1088v-30q58 0 97.5 -10t62.5 -30t33 -51t10 -73v-1028q0 -68 -50.5 -95.5t-144.5 -27.5v-31h1115z" />
    <glyph glyph-name="Phi" unicode="&#x3a6;" horiz-adv-x="1575" 
d="M1495 717q0 87 -30.5 153.5t-80 114.5t-113.5 80.5t-131.5 52.5t-133 29t-118.5 12v31q0 42 14.5 72t41 48.5t64 27t83.5 8.5v30h-617v-30q46 0 84 -8.5t65.5 -27t42.5 -48.5t15 -72v-33q-53 -3 -118.5 -12.5t-132 -29.5t-129.5 -52.5t-112.5 -80.5t-79 -113.5
t-29.5 -151.5q0 -89 24.5 -158t67 -121t100.5 -88t125 -59.5t139.5 -35.5t144.5 -15v-70q0 -34 -20 -60t-50.5 -43.5t-67 -26.5t-69.5 -9v-31h617v31q-33 0 -69 9t-66 26.5t-49 43.5t-19 60v68q73 3 146 15t140.5 35.5t126 60t101.5 88.5t68 121.5t25 158.5zM1280 707
q0 -106 -29.5 -181t-81.5 -124t-124 -74t-157 -31v797q84 -6 156 -31t124.5 -71.5t82 -117t29.5 -167.5zM681 299q-84 6 -154.5 31t-121.5 73.5t-79.5 123.5t-28.5 180q0 96 29 166t80 116.5t121.5 72t153.5 32.5v-795z" />
    <glyph glyph-name="Gamma" unicode="&#x393;" horiz-adv-x="1196" 
d="M1126 1032l-41 344h-991v-30q46 0 83.5 -8.5t64 -27t41 -48.5t14.5 -72v-1020q0 -34 -19.5 -60t-49 -43.5t-65.5 -26.5t-69 -9v-31h615v31q-33 0 -69 9t-66.5 26.5t-50 43.5t-19.5 60v1042q0 50 26 73.5t64 23.5h252q61 0 102.5 -21.5t69 -59t46 -88t34.5 -108.5h28z" />
    <glyph glyph-name="Eta" unicode="&#x397;" horiz-adv-x="1645" 
d="M1554 0v31q-33 0 -69 9t-66 26.5t-49.5 43.5t-19.5 60v1020q0 42 14.5 72t41.5 48.5t64.5 27t83.5 8.5v30h-616v-30q46 0 84 -8.5t65 -27t41.5 -48.5t14.5 -72v-453h-639v453q0 42 14.5 72t41.5 48.5t65 27t84 8.5v30h-615v-30q46 0 83.5 -8.5t64 -27t41 -48.5t14.5 -72
v-1020q0 -34 -19.5 -60t-49 -43.5t-65.5 -26.5t-69 -9v-31h615v31q-33 0 -69 9t-66.5 26.5t-50 43.5t-19.5 60v489h639v-489q0 -34 -19.5 -60t-50 -43.5t-66.5 -26.5t-69 -9v-31h616z" />
    <glyph glyph-name="Iota" unicode="&#x399;" horiz-adv-x="801" 
d="M709 0v31q-33 0 -69 9t-66.5 26.5t-50 43.5t-19.5 60v1020q0 42 14.5 72t41.5 48.5t65 27t84 8.5v30h-615v-30q46 0 83.5 -8.5t64 -27t41 -48.5t14.5 -72v-1020q0 -34 -19.5 -60t-49 -43.5t-65.5 -26.5t-69 -9v-31h615z" />
    <glyph glyph-name="Kappa" unicode="&#x39a;" horiz-adv-x="1610" 
d="M1569 0v31q-37 0 -74.5 12.5t-81 40t-96 72t-119.5 108.5l-520 490l450 448q69 68 144.5 106t144.5 38v30h-520v-30q51 0 82.5 -15t43.5 -37.5t5.5 -50t-31.5 -51.5l-526 -522v520q0 42 14.5 72t39 48.5t56 27t66.5 8.5v30h-547v-30q34 0 64 -9.5t52 -29t35 -48.5t13 -69
v-1002q0 -33 -16 -61.5t-41.5 -50t-57.5 -33.5t-63 -12v-31h561v31q-29 0 -60 12t-56.5 33t-42.5 49.5t-17 62.5v299v72l66 66l395 -365q27 -26 52 -52.5t41.5 -52t23 -48t-2.5 -39.5t-36.5 -27t-77.5 -10v-31h637z" />
    <glyph glyph-name="Lambda" unicode="&#x39b;" horiz-adv-x="1530" 
d="M1487 0v31q-53 0 -98.5 28.5t-71.5 90.5l-543 1251h-39l-528 -1241q-14 -31 -27.5 -55t-34.5 -40.5t-52.5 -25t-80.5 -8.5v-31h432v31q-89 0 -128 33.5t-19 82.5l397 967l404 -954q10 -24 7 -47t-19.5 -41.5t-48 -29.5t-79.5 -11v-31h529z" />
    <glyph glyph-name="Mu" unicode="&#x39c;" horiz-adv-x="1944" 
d="M1874 0v31q-36 0 -69.5 8t-59 25t-40.5 43t-15 63v1020q0 42 12.5 72t34 48.5t50.5 27t62 8.5v30h-366l-496 -1085l-524 1085h-350v-30q51 0 87 -20t58.5 -50t32.5 -65t10 -64v-979q0 -31 -15 -56t-40.5 -43t-60 -28t-72.5 -10v-31h465v31q-39 0 -74 10t-62 28t-43 43
t-16 56v938l537 -1122h14l549 1200v-1014q0 -37 -15.5 -63t-41 -43t-59 -25t-69.5 -8v-31h576z" />
    <glyph glyph-name="Nu" unicode="&#x39d;" horiz-adv-x="1485" 
d="M1444 1346v30h-424v-30q38 0 70 -10t54.5 -28t35 -43.5t12.5 -56.5v-819l-805 987h-348v-30q51 0 87 -12t58.5 -32t32.5 -46.5t10 -55.5v-1032q0 -31 -15 -56t-40.5 -43t-60 -28t-72.5 -10v-31h465v31q-39 0 -74 10t-62 28t-43 43t-16 56v975l928 -1166h37v1231
q0 62 46 100t124 38z" />
    <glyph glyph-name="Omicron" unicode="&#x39f;" horiz-adv-x="1583" 
d="M1503 688q0 98 -25.5 189t-71.5 170.5t-110.5 144.5t-143.5 111.5t-170 72t-189 25.5q-99 0 -190 -25.5t-170 -72t-144 -111.5t-111.5 -144.5t-72 -170.5t-25.5 -189t25.5 -189t72 -170.5t111.5 -144.5t144 -111.5t170 -72t190 -25.5q98 0 189 25.5t170 72t143.5 111.5
t110.5 144.5t71.5 170.5t25.5 189zM1280 688q0 -68 -15 -142t-43.5 -145t-70 -134.5t-95 -112t-118 -77t-139.5 -28.5q-120 0 -212.5 53.5t-155.5 142.5t-95.5 204t-32.5 239q0 76 14.5 153.5t42.5 149t69 134t94 109t118 73t141 26.5q78 0 145.5 -26.5t123 -72t98 -108
t72 -134t44.5 -149.5t15 -155z" />
    <glyph glyph-name="Pi" unicode="&#x3a0;" horiz-adv-x="1618" 
d="M1526 0v31q-33 0 -69 5.5t-66.5 19.5t-50 39.5t-19.5 64.5v1030q0 42 14.5 72t41.5 48.5t65 27t84 8.5v30h-1432v-30q46 0 83.5 -8.5t64 -27t41 -48.5t14.5 -72v-1030q0 -42 -19.5 -67t-49 -39t-65.5 -18.5t-69 -4.5v-31h615v31q-33 0 -69 5t-66.5 19t-50 39t-19.5 66
v1030q0 42 17 67t44.5 38t62.5 16.5t70 3.5h222q35 0 70 -3.5t62.5 -16.5t44.5 -38t17 -67v-1030q0 -39 -19.5 -64.5t-50 -39.5t-66.5 -19.5t-69 -5.5v-31h617z" />
    <glyph glyph-name="Theta" unicode="&#x398;" horiz-adv-x="1583" 
d="M1503 688q0 98 -25.5 189t-71.5 170.5t-110.5 144.5t-143.5 111.5t-170 72t-189 25.5q-99 0 -190 -25.5t-170 -72t-144 -111.5t-111.5 -144.5t-72 -170.5t-25.5 -189t25.5 -189t72 -170.5t111.5 -144.5t144 -111.5t170 -72t190 -25.5q98 0 189 25.5t170 72t143.5 111.5
t110.5 144.5t71.5 170.5t25.5 189zM1280 688q0 -68 -15 -142t-43.5 -145t-70 -134.5t-95 -112t-118 -77t-139.5 -28.5q-120 0 -212.5 53.5t-155.5 142.5t-95.5 204t-32.5 239q0 76 14.5 153.5t42.5 149t69 134t94 109t118 73t141 26.5q78 0 145.5 -26.5t123 -72t98 -108
t72 -134t44.5 -149.5t15 -155zM1087 485v398h-34q0 -34 -11.5 -57.5t-29 -38.5t-37 -22t-35.5 -7h-293q-18 0 -37.5 7t-35.5 22t-26.5 38.5t-10.5 57.5h-35v-398h35q0 34 10.5 57.5t26.5 38.5t35.5 22t37.5 7h293q16 0 35.5 -7t37 -22t29 -38.5t11.5 -57.5h34z" />
    <glyph glyph-name="Rho" unicode="&#x3a1;" horiz-adv-x="1262" 
d="M1151 1020q-1 75 -33 140t-91 113t-142.5 75.5t-186.5 27.5h-657v-30q54 0 90.5 -10t59 -30t32.5 -51t10 -73v-992q0 -74 -50 -116.5t-144 -42.5v-31h598v31q-94 0 -145.5 42.5t-51.5 116.5v476q19 -11 56.5 -21t109.5 -10q116 0 216 27t173 77.5t114 121.5t40 159h2z
M924 1016q0 -63 -22.5 -118.5t-68 -97t-113 -65.5t-157.5 -24q-32 0 -66 4.5t-57 13.5v498q0 43 24 67.5t66 24.5h123q56 0 105.5 -26t86 -69t58 -97t21.5 -111z" />
    <glyph glyph-name="Sigma" unicode="&#x3a3;" horiz-adv-x="1331" 
d="M1200 373h-39q-14 -94 -58 -143.5t-110 -49.5h-639l557 557l-510 508q-11 12 -14 23.5t1.5 21t15.5 15.5t28 6h379q63 0 121 -25.5t105 -68t79 -97t43 -112.5h35l-45 368h-1104l688 -686l-688 -690h1116z" />
    <glyph glyph-name="Tau" unicode="&#x3a4;" horiz-adv-x="1274" 
d="M1225 1032v344h-1176v-344h31q0 54 15 102.5t42 85.5t63.5 58.5t79.5 21.5h252v-1130q0 -34 -20 -60t-50.5 -43.5t-67 -26.5t-69.5 -9v-31h619v31q-33 0 -69 9t-66.5 26.5t-50 43.5t-19.5 60v1130h252q43 0 80 -21.5t64 -58.5t42 -85.5t15 -102.5h33z" />
    <glyph glyph-name="Upsilon" unicode="&#x3a5;" horiz-adv-x="1575" 
d="M1544 1343v33h-430v-30q39 0 70 -7t49.5 -21t21 -35.5t-15.5 -49.5l-346 -533l-381 523q-18 25 -14.5 47.5t26 39t62 26.5t92.5 10v30h-637v-30q46 0 83 -14t65 -35t48 -44.5t33 -42.5l453 -632v-418q0 -34 -19.5 -58.5t-49 -40t-65.5 -23t-69 -7.5v-31h615v31
q-33 0 -69 7.5t-66.5 23t-50 40t-19.5 58.5v422l420 645q13 20 35.5 40.5t49.5 37.5t55.5 27.5t53.5 10.5z" />
    <glyph glyph-name="Omega" unicode="&#x3a9;" horiz-adv-x="1550" 
d="M1473 829q0 131 -47.5 236t-137.5 179t-219.5 113.5t-292.5 39.5q-164 0 -293 -39.5t-218.5 -113.5t-137 -179t-47.5 -236q0 -80 21.5 -149.5t58.5 -126.5t87 -102t107.5 -76.5t119.5 -49.5t122 -22v-123h-311q-18 0 -41.5 7t-44.5 23t-35 41.5t-14 63.5h-41v-315h561
v352q-85 26 -153.5 70.5t-117 104.5t-74.5 135.5t-26 164.5q0 99 34 192t96 165t150.5 115.5t196.5 43.5t196.5 -43.5t150.5 -115.5t96 -165t34 -192q0 -89 -26 -164.5t-74.5 -135.5t-117 -104.5t-152.5 -70.5v-352h561v315h-41q0 -38 -14 -63.5t-35 -41.5t-44.5 -23
t-41.5 -7h-312v123q60 3 122 21.5t119.5 50t107.5 76.5t87.5 102t59 126.5t21.5 149.5z" />
    <glyph glyph-name="Xi" unicode="&#x39e;" horiz-adv-x="1313" 
d="M1184 1018v358h-1047v-358h33q0 90 41 134t117 44h665q78 0 119 -44t41 -134h31zM981 477v430h-33q0 -34 -11.5 -57.5t-28.5 -38.5t-36.5 -22t-35.5 -7h-338q-18 0 -38.5 7t-37.5 22t-28 38.5t-11 57.5h-33v-430h35q0 34 11 57.5t27.5 38.5t36.5 22t38 7h338
q16 0 35.5 -7t36.5 -22t28.5 -38.5t11.5 -57.5h33zM1184 0v358h-33q0 -89 -41 -133.5t-117 -44.5h-665q-78 0 -118 44.5t-40 133.5h-33v-358h1047z" />
    <glyph glyph-name="Psi" unicode="&#x3a8;" horiz-adv-x="1806" 
d="M1765 1339v29q-58 0 -107.5 -1.5t-89 -12t-70 -33t-50.5 -64.5t-30.5 -106t-10.5 -158q0 -104 -7.5 -181t-26 -132t-48.5 -91.5t-74.5 -58t-105 -31t-139.5 -12.5v703q0 42 13 72t37 48.5t58 27t76 8.5v30h-576v-30q42 0 76 -8.5t58 -27t37.5 -48.5t13.5 -72v-703
q-80 3 -140.5 12.5t-105.5 31t-75.5 58t-48.5 91.5t-26 132t-8 181q0 94 -10 158t-30.5 106t-50.5 64.5t-69.5 33t-88.5 12t-107 1.5v-29q28 0 51.5 -2.5t42.5 -13.5t33.5 -33.5t24 -63t14 -102t4.5 -149.5q0 -77 4.5 -147t23 -130t56 -109t103 -85.5t164 -58.5t239.5 -27
v-248q0 -34 -19.5 -60t-50 -43.5t-66.5 -26.5t-69 -9v-31h618v31q-33 0 -69.5 9t-66.5 26.5t-50 43.5t-20 60v248q141 5 239 27t163.5 58.5t103 85.5t56 109t23 130t4.5 147q0 88 5 149.5t14.5 102t23.5 63t33 33.5t42.5 13.5t51.5 2.5z" />
    <glyph glyph-name="Zeta" unicode="&#x396;" horiz-adv-x="1430" 
d="M1386 356h-38q-22 -71 -57 -124.5t-80.5 -89t-98.5 -53t-111 -17.5h-620l967 1304h-1141l-35 -344h37q10 65 30 116t52 86t76.5 53t103.5 18h580l-967 -1305h1239z" />
    <glyph glyph-name="uni1FC0" unicode="&#x1fc0;" horiz-adv-x="739" 
d="M686 1118q-3 59 -21.5 123t-57 117t-99 87t-146.5 34q-54 0 -97.5 -16.5t-77 -44t-57.5 -64t-40 -76.5t-24.5 -81t-10.5 -79h56q4 48 23 91.5t50.5 76.5t76 52.5t101.5 19.5q61 0 107.5 -20.5t79.5 -54t51.5 -77t22.5 -88.5h63z" />
    <glyph glyph-name="uni037A" unicode="&#x37a;" horiz-adv-x="479" 
d="M416 -319h-49v-13q0 -14 -6.5 -30.5t-22.5 -30t-47 -13.5q-38 0 -50 17t-12 45v242h-106v-242q0 -20 7 -39t24 -33.5t45 -23.5t69 -9q63 0 94 19.5t43 43.5t11.5 44.5t-0.5 22.5z" />
    <glyph glyph-name="uni1FEF" unicode="&#x1fef;" horiz-adv-x="438" 
d="M365 1106l-107 373q-5 18 -16 36t-26.5 31.5t-34 19.5t-38.5 -1q-17 -6 -29 -21t-18 -33t-5 -37t11 -34l213 -334h50z" />
    <glyph glyph-name="alpha" unicode="&#x3b1;" horiz-adv-x="1182" 
d="M1116 217h-24q0 -16 -5.5 -33.5t-16.5 -31.5t-26.5 -23.5t-35.5 -9.5t-36.5 5.5t-33 26t-33.5 59.5t-39 107q9 38 24 103.5t31.5 142t33.5 155t30.5 142t22 104l8.5 40.5h-152l-73 -375q-11 94 -42.5 168t-75 124t-94.5 76.5t-102 26.5q-69 0 -143 -34.5t-135 -100
t-100.5 -161t-39.5 -216.5q0 -117 35 -216t95 -170t140 -111t171 -40q48 0 96.5 19t92 54t80.5 85.5t62 112.5q22 -66 39 -111t31 -73.5t25.5 -43.5t21.5 -21.5t19 -7.5t18 -1q13 0 35 9.5t43.5 35t37 70t15.5 114.5zM764 463q-13 -98 -33 -178t-51 -137.5t-74 -89
t-102 -31.5t-108 35t-84 98t-54 151t-19 193q0 100 20.5 185.5t55 148t79.5 98t95 35.5q59 0 104 -38t78 -106t55.5 -161t37.5 -203z" />
    <glyph glyph-name="beta" unicode="&#x3b2;" horiz-adv-x="1096" 
d="M991 414q0 96 -34 171.5t-88.5 129t-122.5 84.5t-136 39q66 27 118 63.5t87.5 81t54.5 96t19 107.5q0 51 -21.5 103t-64.5 94t-106 68t-146 26q-112 0 -196 -51.5t-139.5 -140.5t-83.5 -208t-28 -254v-1212h164v1423q0 90 16.5 162.5t48 124t76.5 79t101 27.5
q36 0 77 -16.5t76.5 -51t58.5 -86.5t23 -122q0 -86 -25.5 -141.5t-58.5 -88t-63.5 -45t-40.5 -12.5q-8 0 -20.5 4.5t-27 10t-29 10t-27.5 4.5q-28 0 -50 -15t-22 -42q0 -14 7 -25t18 -19t24 -12t25 -4q15 0 30.5 5.5t30.5 12t28 12t23 5.5t32 -10t49.5 -31t56 -53.5
t52.5 -77.5t39 -104t15 -132q0 -107 -20 -179t-52 -115.5t-73 -62.5t-84 -19q-74 0 -126 32.5t-94 87.5l-30 -18q16 -25 38.5 -52t55.5 -49.5t80 -37.5t112 -15q72 0 139 31.5t119 89t83.5 138.5t31.5 180z" />
    <glyph glyph-name="chi" unicode="&#x3c7;" horiz-adv-x="1038" 
d="M995 -106h-32q0 -21 -7.5 -47.5t-21.5 -49.5t-36 -39t-50 -16q-24 0 -42 11.5t-32.5 32t-27 49.5t-25.5 65l-143 374l383 730h-179l-280 -535l-8 21.5t-20 53t-26.5 68.5t-26.5 68.5l-20 52.5l-8 21q-28 71 -51.5 122t-47 84t-50 48.5t-60.5 15.5q-45 0 -73 -31t-43 -77
t-20 -99t-3 -98h35q0 21 9 46.5t24.5 48t37 37.5t46.5 15q31 0 54.5 -12t42 -34t34 -54t30.5 -72l111 -288l-418 -795h178l314 598l145 -377q27 -69 45.5 -116t36.5 -76t41 -41.5t59 -12.5q39 0 63 27.5t38 71t19 98.5t5 111z" />
    <glyph glyph-name="delta" unicode="&#x3b4;" horiz-adv-x="1069" 
d="M977 453q0 101 -25 187t-68.5 157t-102.5 126.5t-126 96.5q-88 53 -148.5 91.5t-100 66.5t-61.5 47t-33 34t-13 28t-2 28q0 21 8.5 41.5t25.5 36t42 25t57 9.5q47 0 91.5 -11.5t83.5 -34t70.5 -54.5t51.5 -74l37 15q-23 48 -57 86.5t-76 65.5t-90 42t-99 15
q-53 0 -95.5 -18t-72 -48t-45.5 -69t-16 -82q0 -31 5 -57t20 -51t43 -51.5t74.5 -59t114 -72.5t161.5 -92q-32 8 -62.5 12t-62.5 4q-92 0 -175 -27t-147 -83t-101.5 -142.5t-37.5 -204.5q0 -117 42 -203.5t110.5 -143.5t156 -85.5t178.5 -28.5q82 0 161.5 32.5t142.5 94
t102 150t39 201.5zM803 408q0 -61 -16 -128t-49.5 -123.5t-85.5 -93t-124 -36.5t-129.5 31t-97 88.5t-61 139.5t-21.5 185q0 97 24.5 167t63.5 115.5t87.5 67t97.5 21.5q52 0 95.5 -20t78 -53t60 -77t43 -92.5t26 -98t8.5 -93.5z" />
    <glyph glyph-name="epsilon" unicode="&#x3b5;" horiz-adv-x="854" 
d="M788 231l-34 15q-18 -43 -46.5 -79.5t-63 -63t-75 -41.5t-82.5 -15t-81 15.5t-69.5 44t-48.5 70t-18 93.5q0 72 15.5 119.5t38 75.5t48 39.5t44.5 11.5q15 0 30.5 -5t32.5 -10.5t37 -10.5t45 -5q19 0 32.5 5.5t22.5 14t13 18t4 18.5q0 8 -3.5 17.5t-11 18t-19.5 14
t-30 5.5q-32 0 -54 -5.5t-39.5 -12t-32.5 -12t-31 -5.5q-26 0 -52 9.5t-47.5 31t-35 57t-13.5 86.5q0 52 9.5 93.5t31 71t56 45.5t85.5 16q38 0 62 -14t40 -34.5t27 -45t22.5 -45t26.5 -34.5t40 -14q8 0 19.5 3.5t22 11t18 19.5t7.5 28q0 26 -20 57t-58.5 58t-94.5 45
t-128 18q-84 0 -147.5 -23t-106 -61.5t-64.5 -89t-22 -105.5q0 -52 18 -89.5t44.5 -63t57.5 -41t58 -23.5q-19 -9 -49.5 -31t-59 -56.5t-49 -82t-20.5 -108.5t24.5 -111.5t68.5 -87t105 -56.5t134 -20t132.5 19t105 52.5t78 80.5t50.5 104z" />
    <glyph glyph-name="phi1" unicode="&#x3d5;" horiz-adv-x="1346" 
d="M1249 512q0 128 -41.5 222t-115 157t-174 95.5t-218.5 37.5l-10 340q-2 31 -6.5 47t-24.5 16q-18 0 -23 -16t-5 -47l-13 -340q-113 -5 -212.5 -38t-174 -96t-118 -157t-43.5 -221q0 -117 39 -211t107.5 -162t162.5 -108.5t205 -50.5l-9 -240q-1 -28 1.5 -51.5t11.5 -41
t26 -27t45 -9.5t45 9.5t26 27t11.5 41t1.5 51.5l-8 240q111 10 205 50.5t162.5 108.5t107.5 162t39 211zM1073 512q0 -95 -23.5 -176t-67 -144t-106.5 -104t-141 -55l-33 936q87 -8 156 -43t116.5 -94t73 -140t25.5 -180zM616 969l-30 -936q-78 14 -141 55t-107.5 104
t-68 144t-23.5 176q0 99 25.5 180t73.5 140t116.5 94t154.5 43z" />
    <glyph glyph-name="gamma" unicode="&#x3b3;" horiz-adv-x="993" 
d="M897 901q0 24 -4.5 46t-14.5 39.5t-26 27.5t-39 10q-32 0 -51 -13.5t-30 -37.5t-15.5 -56.5t-5.5 -70.5q-1 -26 -4 -53.5t-10 -63t-19.5 -81.5t-33.5 -108t-51 -142.5t-71 -184.5q-44 199 -85.5 351t-85.5 254t-91.5 154t-101.5 52q-29 0 -53 -18t-42 -46.5t-28 -64
t-10 -70.5q0 -29 2 -49.5t4 -25.5h24q0 14 7.5 33t21 36t32.5 29t42 12q27 0 66.5 -44t84.5 -134t91 -226.5t87 -320.5q-18 -45 -32.5 -97t-24.5 -104.5t-15 -100.5t-5 -85t3.5 -67t13 -51t25.5 -32.5t42 -11.5q25 0 41 12.5t25 34.5t12 51.5t3 63.5t-2 79.5t-6 97.5
t-10.5 106.5t-15.5 105.5q70 136 123.5 238.5t93 179t66.5 130.5t43 93.5t23 68.5t7 54z" />
    <glyph glyph-name="eta" unicode="&#x3b7;" horiz-adv-x="1077" 
d="M940 -389v997q0 135 -25.5 216.5t-65.5 126t-90.5 59t-99.5 14.5q-47 0 -88 -15.5t-74.5 -45t-57 -71.5t-33.5 -95q-8 50 -19 91.5t-32 71.5t-54.5 47t-85.5 17q-41 0 -72.5 -20t-53.5 -57.5t-33 -91t-11 -120.5h43q0 50 9 89t23.5 66t31.5 41.5t32 14.5q13 0 25 -6
t21 -25t14.5 -53.5t5.5 -91.5v-770h164v430q0 157 19.5 257.5t52 158t74 79t85.5 21.5q36 0 61 -16t40.5 -43t22.5 -62t7 -73v-1141h164z" />
    <glyph glyph-name="iota" unicode="&#x3b9;" horiz-adv-x="696" 
d="M610 346h-55q0 -88 -12.5 -142.5t-31.5 -84.5t-40 -40.5t-39 -10.5t-35.5 7t-32 29.5t-23.5 63t-9 108.5v728h-164v-738q0 -71 16.5 -125t46 -91t69 -56t85.5 -19t87 16t71.5 58t48.5 114t18 183z" />
    <glyph glyph-name="kappa" unicode="&#x3ba;" horiz-adv-x="1012" 
d="M942 266h-41q0 -33 -10.5 -58t-29.5 -42.5t-44 -26t-53 -8.5q-17 0 -38 5.5t-43 16t-41.5 25.5t-33.5 35l-229 322l272 313q9 10 20 20.5t23 19t23.5 14t21.5 5.5q16 0 28.5 -10.5t18.5 -30.5q5 -15 17.5 -28t34.5 -13q38 0 62 26.5t24 76.5q0 43 -26.5 69.5t-68.5 26.5
q-55 0 -101 -24.5t-89 -75.5l-336 -387v467h-164v-1004h164v449l25 24l284 -387q27 -36 49 -58t41.5 -33.5t37.5 -15.5t38 -4q26 0 55 15.5t53 50t40 90t16 135.5z" />
    <glyph glyph-name="lambda" unicode="&#x3bb;" 
d="M1001 266h-38q0 -24 -7.5 -48t-20.5 -43.5t-31 -31.5t-40 -12q-21 0 -43.5 8t-42.5 25t-36.5 43t-26.5 63l-281 987q-18 64 -37.5 106t-42 67.5t-50 36t-62.5 10.5q-31 0 -61 -16t-54 -48.5t-38.5 -81t-14.5 -112.5h41q0 21 9 42.5t25 38t37.5 27t46.5 10.5
q28 0 51.5 -13t42.5 -35t33 -50t23 -59l53 -189l-377 -991h181l272 721l150 -524q18 -64 38.5 -106.5t44 -68t51.5 -36.5t62 -11q28 0 53.5 18.5t45.5 55t32 91t12 126.5z" />
    <glyph glyph-name="mu" unicode="&#x3bc;" horiz-adv-x="1171" 
d="M1120 270h-37q0 -46 -9.5 -86.5t-24.5 -71t-33.5 -48t-36.5 -17.5t-35.5 11t-32 35t-23.5 62.5t-9 94.5v754h-164v-492q0 -33 -7.5 -80.5t-22 -99t-36.5 -102.5t-51 -92t-64.5 -66t-78.5 -25q-32 0 -60 20t-48.5 52.5t-32 72t-11.5 78.5v734h-164v-1190q0 -75 7.5 -120
t20 -69t28 -31.5t30.5 -7.5q31 0 52.5 17.5t21.5 54.5q0 48 -17 98.5t-37.5 112t-37.5 138t-17 177.5q9 -30 26.5 -66.5t47 -68t71.5 -53t101 -21.5q63 0 112.5 32.5t86 84.5t60.5 116.5t36 129.5q2 -103 18.5 -172.5t45 -112t67 -60.5t84.5 -18q44 0 76.5 25t54.5 66
t32.5 94t10.5 110z" />
    <glyph glyph-name="nu" unicode="&#x3bd;" horiz-adv-x="1044" 
d="M979 934q0 19 -6.5 35.5t-17.5 28.5t-26 19t-32 7q-35 0 -58 -17t-36.5 -42.5t-19 -56t-5.5 -56.5q0 -15 2 -32t4.5 -34.5t4.5 -34t2 -30.5q0 -38 -4.5 -86.5t-22.5 -89.5l-141 -326l-228 598q-14 37 -31.5 74t-40 66.5t-50.5 48t-62 18.5q-51 0 -84 -21.5t-52.5 -56.5
t-27.5 -79t-8 -89q0 -10 1 -24t2 -23t1 -10h47l-1 13t-1 26q0 40 7.5 66t18 41.5t22 21.5t20.5 6q23 0 38.5 -23t24.5 -51l313 -821h60l350 786q19 42 28 76.5t9 71.5z" />
    <glyph glyph-name="omicron" unicode="&#x3bf;" horiz-adv-x="1122" 
d="M1022 498q0 108 -35.5 203.5t-99 167.5t-151 113.5t-191.5 41.5q-106 0 -195 -42.5t-153 -114t-100 -165t-36 -196.5q0 -105 36 -201t100 -169.5t152 -117t192 -43.5q102 0 190 43.5t152.5 116t101.5 167t37 196.5zM856 459q0 -81 -16.5 -159t-51.5 -138.5t-89.5 -97.5
t-129.5 -37q-59 0 -106.5 22.5t-85 61.5t-64.5 91t-45 111.5t-26.5 123.5t-8.5 126q0 73 13.5 146t46.5 131t88 94.5t137 36.5q84 0 147 -46.5t105.5 -120t64 -164.5t21.5 -181z" />
    <glyph glyph-name="theta" unicode="&#x3b8;" 
d="M956 723q0 87 -9 176.5t-30.5 173.5t-56.5 157.5t-87 128.5t-122 86.5t-162 31.5q-84 0 -148 -34t-111.5 -91.5t-79.5 -133.5t-51.5 -160t-28 -171t-8.5 -166q0 -85 9.5 -173t30.5 -171t55 -156t83.5 -127.5t115.5 -86.5t150 -32q82 0 147 31t115 85.5t86 127t58.5 156
t33 172.5t10.5 176zM772 778h-526q0 160 18.5 281.5t50.5 203.5t74 123t90 41q61 0 114 -33t93 -109t63 -200.5t23 -306.5zM772 717q0 -178 -18 -308t-51.5 -215t-81 -126t-105.5 -41t-107.5 34t-85.5 114.5t-56.5 212.5t-20.5 329h526z" />
    <glyph glyph-name="rho" unicode="&#x3c1;" horiz-adv-x="1122" 
d="M1055 498q0 108 -36.5 204.5t-100 168.5t-151 114.5t-189.5 42.5q-104 0 -192.5 -43t-153.5 -115t-101.5 -166.5t-36.5 -197.5v-692q0 -75 4.5 -120t15.5 -69t29.5 -31.5t46.5 -7.5q45 0 68 25t23 72q0 36 -7 62.5t-17 53t-22.5 58t-22.5 77.5t-17 112t-7 161
q70 -123 168.5 -177.5t216.5 -54.5q102 0 190.5 43.5t153 116t101.5 167t37 196.5zM889 465q0 -81 -16.5 -159.5t-51.5 -140t-89.5 -99t-129.5 -37.5q-59 0 -106.5 23t-85 62.5t-64.5 92t-45 112.5t-26.5 124t-8.5 126q0 73 14.5 146.5t47.5 132.5t87.5 96t135.5 37
q54 0 100.5 -21.5t84 -59t66 -87.5t48 -107.5t29.5 -119t10 -121.5z" />
    <glyph glyph-name="sigma" unicode="&#x3c3;" horiz-adv-x="1122" 
d="M1059 1067h-27q-6 -10 -15.5 -22.5t-25 -23t-37 -17.5t-51.5 -7q-10 0 -42.5 2t-74.5 4.5t-86 6t-77 6.5q-23 2 -48 5t-51 3q-95 0 -179.5 -42.5t-147.5 -114t-99.5 -165t-36.5 -196.5q0 -105 36 -201t98 -169.5t146 -117t179 -43.5q102 0 186 43.5t145 116t94.5 167
t33.5 196.5q0 59 -13.5 118.5t-40 113.5t-66 99t-91.5 74l15 -2t39 -4t53 -4t57 -2q50 0 76 18t37.5 45t12.5 57.5t1 55.5zM811 465q0 -81 -15 -160t-46.5 -140.5t-81 -99.5t-119.5 -38q-59 0 -105 23t-81 62.5t-59.5 92.5t-40.5 113.5t-23 124.5t-7 126q0 73 17.5 145
t52.5 129t86 92.5t119 35.5q53 0 96 -21t76.5 -57t58 -85t40.5 -105t24 -117t8 -121z" />
    <glyph glyph-name="tau" unicode="&#x3c4;" horiz-adv-x="930" 
d="M829 1055h-30q-8 -25 -28.5 -40.5t-72.5 -15.5q-15 0 -51.5 1t-83.5 2.5t-99.5 3t-99.5 3t-84 2.5t-53 1q-97 0 -143.5 -65.5t-46.5 -176.5h35q0 18 5.5 37.5t17.5 35.5t32.5 26t50.5 10q16 0 60.5 -1.5t103.5 -3.5v-638q0 -43 7 -89t29.5 -84.5t65 -63t113.5 -24.5
q94 0 146.5 82t52.5 246h-37q0 -64 -11 -110.5t-28 -77t-39 -45.5t-43 -15q-33 0 -51.5 15t-27.5 42.5t-11 67.5t-2 90v600q57 -2 102 -3t64 -1q42 0 72 16t48.5 42t27.5 60.5t9 70.5z" />
    <glyph glyph-name="upsilon" unicode="&#x3c5;" horiz-adv-x="1120" 
d="M1010 688q0 113 -12 179.5t-31 101.5t-42.5 45t-47.5 10q-48 0 -78.5 -24.5t-30.5 -90.5q0 -44 10 -81t25.5 -71t33 -67t33 -68.5t25.5 -76t10 -88.5q0 -71 -19 -147t-55 -139t-89 -103.5t-121 -40.5q-45 0 -77.5 21t-54.5 58.5t-32.5 89t-10.5 113.5v441q0 83 -22 136
t-54 84t-70 42.5t-69 11.5q-8 0 -25 -1.5t-39 -9.5t-45.5 -25t-42.5 -48t-31.5 -78.5t-12.5 -116.5h28q0 73 15.5 113.5t35.5 60t40 23.5t28 4q14 0 31.5 -5t33 -22t26 -49.5t10.5 -87.5v-481q0 -71 18 -130.5t55.5 -103t94.5 -68t135 -24.5q83 0 147 32t111 86t79 125.5
t51.5 151t27.5 161.5t8 157z" />
    <glyph glyph-name="omega" unicode="&#x3c9;" horiz-adv-x="1468" 
d="M1392 483q0 126 -35 220t-91.5 160t-126.5 106.5t-140 58.5l-10 -41q57 -25 98.5 -79.5t68 -121.5t39.5 -138.5t13 -131.5q0 -132 -17.5 -225t-47.5 -151.5t-69.5 -85.5t-84.5 -27q-35 0 -65 16.5t-54.5 43.5t-43.5 61t-32 68t-19.5 66t-6.5 54q0 34 8.5 76t18 87
t18 89.5t8.5 83.5q0 77 -26 114t-68 37t-67 -37t-25 -114q0 -39 8.5 -83.5t19 -89.5t19 -87t8.5 -76q0 -23 -7 -54.5t-20 -65.5t-32.5 -68t-44 -61t-54.5 -43.5t-65 -16.5q-45 0 -85 27t-69 85.5t-46 151.5t-17 225q0 62 11 131t36 133t66 118.5t102 88.5l-10 41
q-69 -24 -138.5 -64t-125 -104.5t-90.5 -157t-35 -219.5q0 -110 29.5 -203t79.5 -161t116 -106t139 -38q58 0 104.5 18t82.5 49t62 73t44 90h10q18 -48 44 -90t62.5 -73t83 -49t105.5 -18q73 0 139 38t116 106t79.5 161t29.5 203z" />
    <glyph glyph-name="xi" unicode="&#x3be;" horiz-adv-x="1024" 
d="M932 -68q0 113 -84.5 166.5t-249.5 53.5h-178q-89 0 -145.5 18.5t-89.5 47t-45.5 62t-12.5 64.5q0 47 17.5 92.5t44.5 84.5t60.5 68.5t65.5 43.5q26 -9 61.5 -20.5t76.5 -21t86.5 -16t91.5 -6.5q51 0 98 3t83 12t57.5 26t21.5 45t-19.5 45.5t-50 27t-69.5 12.5t-78 3
q-79 0 -156 -11.5t-156 -33.5q-26 11 -52 26.5t-46.5 38t-33.5 53.5t-13 73q0 40 11.5 73.5t30.5 62t42 52t47 41.5q21 -3 52 -6t66 -6t71.5 -4.5t68.5 -1.5q79 0 125 7.5t70 19.5t30.5 27t6.5 30t-7.5 29.5t-25 25t-46.5 17t-73 6.5q-54 0 -100.5 -8t-88 -21.5t-78 -30
t-69.5 -33.5q-106 14 -161.5 57t-55.5 99t45.5 82.5t130.5 26.5q41 0 68 -7l8 33q-15 5 -37.5 11t-68.5 6q-135 0 -201 -41.5t-66 -104.5q0 -38 26 -71t67 -58.5t90.5 -43t97.5 -23.5q-31 -24 -56.5 -56.5t-44 -68.5t-28.5 -73t-10 -69q0 -65 25.5 -117t90.5 -96
q-41 -20 -77.5 -51.5t-65 -77t-45 -107.5t-16.5 -143q0 -71 28 -122.5t73 -86t101.5 -51t114.5 -16.5h188q55 0 107 -6t93 -22.5t66 -45.5t25 -76q0 -45 -23.5 -80t-58.5 -59t-76.5 -36.5t-78.5 -12.5q-39 0 -68 8.5t-53.5 18t-47 18t-46.5 8.5q-34 0 -58 -14.5t-24 -40.5
q0 -28 44 -51t142 -23q121 0 201.5 32t128.5 82t68 111.5t20 120.5z" />
    <glyph glyph-name="psi" unicode="&#x3c8;" horiz-adv-x="1399" 
d="M1288 659q0 113 -14 184.5t-35 111.5t-46.5 54.5t-49.5 14.5q-17 0 -31 -5.5t-24.5 -18.5t-16.5 -35t-6 -56q0 -38 7.5 -68.5t19.5 -58.5t25 -55t25 -58.5t19.5 -69.5t7.5 -87q0 -86 -22.5 -164t-66 -140.5t-107.5 -104.5t-146 -56l-43 1317q-2 31 -6 47t-24 16
t-24.5 -16t-6.5 -47l-43 -1317q-84 10 -137 43t-83 84.5t-41 119.5t-11 148q0 57 2 107.5t2 107.5q0 82 -12 150t-35.5 116t-58 74.5t-79.5 26.5q-10 0 -28 -1.5t-40 -9.5t-44.5 -25t-41 -48t-30.5 -78.5t-12 -116.5h28q0 69 14.5 107.5t33.5 57.5t38 23.5t27 4.5
q32 0 48.5 -28t23 -68.5t6.5 -86.5v-81q0 -34 -1 -63t-2 -57t-2 -57t-1 -63q0 -87 22 -163t73 -134.5t134 -96t205 -46.5l-8 -254q-1 -28 1.5 -51.5t11.5 -41t25.5 -27t45.5 -9.5q28 0 45 9.5t26 27t11.5 41t1.5 51.5l-9 258q111 15 196.5 71.5t144 144.5t88.5 202t30 243z
" />
    <glyph glyph-name="zeta" unicode="&#x3b6;" horiz-adv-x="981" 
d="M930 -102q0 67 -18 115.5t-58.5 79t-105 45t-158.5 14.5h-158q-34 0 -68.5 5.5t-66.5 22.5q-29 15 -53.5 40t-42.5 64t-28.5 94t-10.5 130q0 91 18.5 177.5t48 161t65.5 133t71 93.5q21 -3 38 -4.5t35 -1.5h40h54q74 0 121.5 11t75.5 27.5t38.5 36t10.5 36.5q0 31 -32 53
t-107 22q-40 0 -83 -14t-83.5 -34.5t-74.5 -42.5t-56 -38q-41 7 -77 24.5t-63 41t-43 50t-16 50.5q0 31 14 55.5t38 41.5t55 26.5t65 9.5q11 0 17 -0.5t10 -1t7.5 -2t10.5 -2.5l9 33q-16 5 -43.5 15t-73.5 10q-48 0 -89.5 -14.5t-72.5 -40t-49 -59.5t-18 -73q0 -38 27.5 -72
t69.5 -60.5t91.5 -44.5t93.5 -24q-34 -32 -74.5 -96t-76 -150.5t-59 -191.5t-23.5 -219q0 -123 29 -205.5t73 -132.5t96 -71t99 -21h221q53 0 102.5 -6.5t87.5 -23t61 -44t23 -69.5q0 -41 -21.5 -76.5t-56.5 -62t-79.5 -41.5t-90.5 -15q-38 0 -62.5 8.5t-44 18t-37 18
t-42.5 8.5q-43 0 -67.5 -15.5t-24.5 -41.5q0 -14 10.5 -27t34.5 -23t63 -16t97 -6q97 0 169.5 29t121 74t72.5 100.5t24 108.5z" />
    <glyph glyph-name="afii301" unicode="&#x200d;" horiz-adv-x="0" 
 />
    <glyph glyph-name="Alpha.copy" horiz-adv-x="1159" 
d="M1126 0v31q-52 0 -98 27t-72 92l-530 1251h-51l-529 -1241q-14 -32 -27.5 -56t-34 -40t-52 -24.5t-80.5 -8.5v-31h432v31q-45 0 -77 9.5t-50.5 25t-23.5 36.5t4 45l120 299h561q22 -53 36 -85.5t22.5 -53.5t14.5 -34.5t11.5 -27.5t13.5 -33.5t21 -51.5q10 -23 7.5 -46
t-19 -41.5t-48 -30t-79.5 -11.5v-31h528zM584 524h-492l244 590z" />
    <glyph glyph-name="uni1F71" unicode="&#x1f71;" horiz-adv-x="1182" 
d="M1103 217h-24q0 -16 -5.5 -33.5t-16.5 -31.5t-26.5 -23.5t-35.5 -9.5t-36.5 5.5t-33 26t-33.5 59.5t-39 107q9 38 24 103.5t31.5 142t33.5 155t30.5 142t22 104l8.5 40.5h-152l-73 -375q-11 94 -42.5 168t-75 124t-94.5 76.5t-102 26.5q-69 0 -143 -34.5t-135 -100
t-100.5 -161t-39.5 -216.5q0 -117 35 -216t95 -170t140 -111t171 -40q48 0 96.5 19t92 54t80.5 85.5t62 112.5q22 -66 39 -111t31 -73.5t25.5 -43.5t21.5 -21.5t19 -7.5t18 -1q13 0 35 9.5t43.5 35t37 70t15.5 114.5zM751 463q-13 -98 -33 -178t-51 -137.5t-74 -89
t-102 -31.5t-108 35t-84 98t-54 151t-19 193q0 100 20.5 185.5t55 148t79.5 98t95 35.5q59 0 104 -38t78 -106t55.5 -161t37.5 -203zM740 1440q10 15 12 34t-4 36.5t-18.5 32t-30.5 20.5q-19 6 -36.5 2t-32.5 -14.5t-26.5 -25.5t-17.5 -32l-131 -387h49z" />
    <glyph glyph-name="uni1F70" unicode="&#x1f70;" horiz-adv-x="1182" 
d="M1103 217h-24q0 -16 -5.5 -33.5t-16.5 -31.5t-26.5 -23.5t-35.5 -9.5t-36.5 5.5t-33 26t-33.5 59.5t-39 107q9 38 24 103.5t31.5 142t33.5 155t30.5 142t22 104l8.5 40.5h-152l-73 -375q-11 94 -42.5 168t-75 124t-94.5 76.5t-102 26.5q-69 0 -143 -34.5t-135 -100
t-100.5 -161t-39.5 -216.5q0 -117 35 -216t95 -170t140 -111t171 -40q48 0 96.5 19t92 54t80.5 85.5t62 112.5q22 -66 39 -111t31 -73.5t25.5 -43.5t21.5 -21.5t19 -7.5t18 -1q13 0 35 9.5t43.5 35t37 70t15.5 114.5zM751 463q-13 -98 -33 -178t-51 -137.5t-74 -89
t-102 -31.5t-108 35t-84 98t-54 151t-19 193q0 100 20.5 185.5t55 148t79.5 98t95 35.5q59 0 104 -38t78 -106t55.5 -161t37.5 -203zM596 1106l-107 373q-5 18 -16 36t-26.5 31.5t-34 19.5t-38.5 -1q-17 -6 -29 -21t-18 -33t-5 -37t11 -34l213 -334h50z" />
    <glyph glyph-name="uni1FB6" unicode="&#x1fb6;" horiz-adv-x="1182" 
d="M1103 217h-24q0 -16 -5.5 -33.5t-16.5 -31.5t-26.5 -23.5t-35.5 -9.5t-36.5 5.5t-33 26t-33.5 59.5t-39 107q9 38 24 103.5t31.5 142t33.5 155t30.5 142t22 104l8.5 40.5h-152l-73 -375q-11 94 -42.5 168t-75 124t-94.5 76.5t-102 26.5q-69 0 -143 -34.5t-135 -100
t-100.5 -161t-39.5 -216.5q0 -117 35 -216t95 -170t140 -111t171 -40q48 0 96.5 19t92 54t80.5 85.5t62 112.5q22 -66 39 -111t31 -73.5t25.5 -43.5t21.5 -21.5t19 -7.5t18 -1q13 0 35 9.5t43.5 35t37 70t15.5 114.5zM751 463q-13 -98 -33 -178t-51 -137.5t-74 -89
t-102 -31.5t-108 35t-84 98t-54 151t-19 193q0 100 20.5 185.5t55 148t79.5 98t95 35.5q59 0 104 -38t78 -106t55.5 -161t37.5 -203zM784 1118q-3 59 -21.5 123t-57 117t-99 87t-146.5 34q-54 0 -97.5 -16.5t-77 -44t-57.5 -64t-40 -76.5t-24.5 -81t-10.5 -79h56
q4 48 23 91.5t50.5 76.5t76 52.5t101.5 19.5q61 0 107.5 -20.5t79.5 -54t51.5 -77t22.5 -88.5h63z" />
    <glyph glyph-name="uni1F01" unicode="&#x1f01;" horiz-adv-x="1182" 
d="M1103 217h-24q0 -16 -5.5 -33.5t-16.5 -31.5t-26.5 -23.5t-35.5 -9.5t-36.5 5.5t-33 26t-33.5 59.5t-39 107q9 38 24 103.5t31.5 142t33.5 155t30.5 142t22 104l8.5 40.5h-152l-73 -375q-11 94 -42.5 168t-75 124t-94.5 76.5t-102 26.5q-69 0 -143 -34.5t-135 -100
t-100.5 -161t-39.5 -216.5q0 -117 35 -216t95 -170t140 -111t171 -40q48 0 96.5 19t92 54t80.5 85.5t62 112.5q22 -66 39 -111t31 -73.5t25.5 -43.5t21.5 -21.5t19 -7.5t18 -1q13 0 35 9.5t43.5 35t37 70t15.5 114.5zM751 463q-13 -98 -33 -178t-51 -137.5t-74 -89
t-102 -31.5t-108 35t-84 98t-54 151t-19 193q0 100 20.5 185.5t55 148t79.5 98t95 35.5q59 0 104 -38t78 -106t55.5 -161t37.5 -203zM623 1487q0 20 -7.5 40.5t-23.5 37t-39.5 27t-54.5 10.5q-44 0 -75.5 -21.5t-52 -53.5t-30.5 -70.5t-10 -72.5q0 -69 23 -120.5t60 -86.5
t82 -54t89 -23l6 41q-29 3 -62.5 16.5t-62 40t-48 68.5t-19.5 102q0 7 2 17t6.5 19.5t11.5 16t17 6.5q8 0 16.5 -4.5t18.5 -9.5t22.5 -9.5t28.5 -4.5q18 0 36.5 6.5t33 18t23.5 27.5t9 36z" />
    <glyph glyph-name="uni1F05" unicode="&#x1f05;" horiz-adv-x="1182" 
d="M1103 217h-24q0 -16 -5.5 -33.5t-16.5 -31.5t-26.5 -23.5t-35.5 -9.5t-36.5 5.5t-33 26t-33.5 59.5t-39 107q9 38 24 103.5t31.5 142t33.5 155t30.5 142t22 104l8.5 40.5h-152l-73 -375q-11 94 -42.5 168t-75 124t-94.5 76.5t-102 26.5q-69 0 -143 -34.5t-135 -100
t-100.5 -161t-39.5 -216.5q0 -117 35 -216t95 -170t140 -111t171 -40q48 0 96.5 19t92 54t80.5 85.5t62 112.5q22 -66 39 -111t31 -73.5t25.5 -43.5t21.5 -21.5t19 -7.5t18 -1q13 0 35 9.5t43.5 35t37 70t15.5 114.5zM751 463q-13 -98 -33 -178t-51 -137.5t-74 -89
t-102 -31.5t-108 35t-84 98t-54 151t-19 193q0 100 20.5 185.5t55 148t79.5 98t95 35.5q59 0 104 -38t78 -106t55.5 -161t37.5 -203zM799 1438q9 15 10.5 34t-3.5 37t-16.5 32t-29.5 20q-19 6 -38 0t-35 -18.5t-28 -30t-16 -35.5l-96 -375h47zM432 1489q0 20 -6 38.5t-19 33
t-34 23.5t-52 9q-44 0 -76 -20t-52.5 -50.5t-30 -67.5t-9.5 -71q0 -69 23 -120.5t59.5 -86t81 -53t88.5 -22.5l6 41q-27 3 -60.5 16.5t-63 40t-49 68.5t-19.5 102q0 7 2.5 17.5t7 20t12 16t17.5 6.5q9 0 16 -4.5t15 -10t18.5 -10t26.5 -4.5q19 0 37 6.5t31.5 18t21.5 27.5
t8 36z" />
    <glyph glyph-name="uni1F03" unicode="&#x1f03;" horiz-adv-x="1182" 
d="M1103 217h-24q0 -16 -5.5 -33.5t-16.5 -31.5t-26.5 -23.5t-35.5 -9.5t-36.5 5.5t-33 26t-33.5 59.5t-39 107q9 38 24 103.5t31.5 142t33.5 155t30.5 142t22 104l8.5 40.5h-152l-73 -375q-11 94 -42.5 168t-75 124t-94.5 76.5t-102 26.5q-69 0 -143 -34.5t-135 -100
t-100.5 -161t-39.5 -216.5q0 -117 35 -216t95 -170t140 -111t171 -40q48 0 96.5 19t92 54t80.5 85.5t62 112.5q22 -66 39 -111t31 -73.5t25.5 -43.5t21.5 -21.5t19 -7.5t18 -1q13 0 35 9.5t43.5 35t37 70t15.5 114.5zM751 463q-13 -98 -33 -178t-51 -137.5t-74 -89
t-102 -31.5t-108 35t-84 98t-54 151t-19 193q0 100 20.5 185.5t55 148t79.5 98t95 35.5q59 0 104 -38t78 -106t55.5 -161t37.5 -203zM794 1102l-90 375q-5 18 -16.5 35.5t-27.5 30t-34.5 18.5t-36.5 0t-29.5 -20t-16.5 -32t-3.5 -37t10.5 -34l197 -336h47zM397 1489
q0 20 -6 38.5t-19 33t-34 23.5t-52 9q-44 0 -75.5 -20t-52 -50.5t-30.5 -67.5t-10 -71q0 -69 23 -120.5t59.5 -86t81.5 -53t90 -22.5l4 41q-27 3 -60.5 16.5t-63 40t-49 68.5t-19.5 102q0 7 2.5 17.5t7 20t12 16t17.5 6.5q9 0 16 -4.5t15 -10t18.5 -10t26.5 -4.5
q19 0 37 6.5t31.5 18t21.5 27.5t8 36z" />
    <glyph glyph-name="uni1F07" unicode="&#x1f07;" horiz-adv-x="1182" 
d="M1103 217h-24q0 -16 -5.5 -33.5t-16.5 -31.5t-26.5 -23.5t-35.5 -9.5t-36.5 5.5t-33 26t-33.5 59.5t-39 107q9 38 24 103.5t31.5 142t33.5 155t30.5 142t22 104l8.5 40.5h-152l-73 -375q-11 94 -42.5 168t-75 124t-94.5 76.5t-102 26.5q-69 0 -143 -34.5t-135 -100
t-100.5 -161t-39.5 -216.5q0 -117 35 -216t95 -170t140 -111t171 -40q48 0 96.5 19t92 54t80.5 85.5t62 112.5q22 -66 39 -111t31 -73.5t25.5 -43.5t21.5 -21.5t19 -7.5t18 -1q13 0 35 9.5t43.5 35t37 70t15.5 114.5zM751 463q-13 -98 -33 -178t-51 -137.5t-74 -89
t-102 -31.5t-108 35t-84 98t-54 151t-19 193q0 100 20.5 185.5t55 148t79.5 98t95 35.5q59 0 104 -38t78 -106t55.5 -161t37.5 -203zM803 1397q0 67 -25.5 131.5t-71.5 115t-109.5 81t-138.5 30.5q-74 0 -134 -30.5t-102.5 -81t-65.5 -115t-23 -131.5h55q0 57 22.5 105
t60 82.5t86.5 53.5t101 19q53 0 103.5 -19t89.5 -53t62.5 -82t23.5 -106h66zM571 1430q0 20 -6 38.5t-19 33t-34 23.5t-52 9q-44 0 -75.5 -19.5t-51.5 -50.5t-30 -68t-10 -71q0 -68 23 -113t60 -72.5t82 -40.5t89 -18l4 45q-29 3 -62.5 10t-62.5 26t-48.5 54t-19.5 95
q0 7 2 17t6.5 19.5t11.5 16t17 6.5q9 0 16.5 -4.5t15.5 -10t19 -10t27 -4.5q18 0 36 6.5t31.5 18t22 28t8.5 36.5z" />
    <glyph glyph-name="uni1F00" unicode="&#x1f00;" horiz-adv-x="1182" 
d="M1103 217h-24q0 -16 -5.5 -33.5t-16.5 -31.5t-26.5 -23.5t-35.5 -9.5t-36.5 5.5t-33 26t-33.5 59.5t-39 107q9 38 24 103.5t31.5 142t33.5 155t30.5 142t22 104l8.5 40.5h-152l-73 -375q-11 94 -42.5 168t-75 124t-94.5 76.5t-102 26.5q-69 0 -143 -34.5t-135 -100
t-100.5 -161t-39.5 -216.5q0 -117 35 -216t95 -170t140 -111t171 -40q48 0 96.5 19t92 54t80.5 85.5t62 112.5q22 -66 39 -111t31 -73.5t25.5 -43.5t21.5 -21.5t19 -7.5t18 -1q13 0 35 9.5t43.5 35t37 70t15.5 114.5zM751 463q-13 -98 -33 -178t-51 -137.5t-74 -89
t-102 -31.5t-108 35t-84 98t-54 151t-19 193q0 100 20.5 185.5t55 148t79.5 98t95 35.5q59 0 104 -38t78 -106t55.5 -161t37.5 -203zM685 1382q0 35 -10 74t-30.5 72t-52 54.5t-75.5 21.5q-31 0 -54.5 -11t-39 -28t-23.5 -37.5t-8 -40.5t9 -36t24 -27.5t33.5 -18t38.5 -6.5
q16 0 28 4.5t21.5 9.5t18.5 9.5t18 4.5q10 0 16.5 -6.5t10.5 -16t5.5 -19.5t1.5 -17q0 -60 -19 -102t-47.5 -68.5t-61 -40t-60.5 -16.5l4 -41q44 4 89 23t81 53.5t59 86t23 119.5z" />
    <glyph glyph-name="uni1F04" unicode="&#x1f04;" horiz-adv-x="1182" 
d="M1103 217h-24q0 -16 -5.5 -33.5t-16.5 -31.5t-26.5 -23.5t-35.5 -9.5t-36.5 5.5t-33 26t-33.5 59.5t-39 107q9 38 24 103.5t31.5 142t33.5 155t30.5 142t22 104l8.5 40.5h-152l-73 -375q-11 94 -42.5 168t-75 124t-94.5 76.5t-102 26.5q-69 0 -143 -34.5t-135 -100
t-100.5 -161t-39.5 -216.5q0 -117 35 -216t95 -170t140 -111t171 -40q48 0 96.5 19t92 54t80.5 85.5t62 112.5q22 -66 39 -111t31 -73.5t25.5 -43.5t21.5 -21.5t19 -7.5t18 -1q13 0 35 9.5t43.5 35t37 70t15.5 114.5zM751 463q-13 -98 -33 -178t-51 -137.5t-74 -89
t-102 -31.5t-108 35t-84 98t-54 151t-19 193q0 100 20.5 185.5t55 148t79.5 98t95 35.5q59 0 104 -38t78 -106t55.5 -161t37.5 -203zM819 1438q9 15 11 34t-3 37t-17 32t-30 20t-36.5 0t-34.5 -18.5t-27.5 -30t-15.5 -35.5l-99 -375h48zM473 1384q0 34 -9.5 71t-29.5 67.5
t-51.5 50.5t-75.5 20q-32 0 -53 -9t-34.5 -23.5t-19 -33t-5.5 -38.5t8.5 -36t22 -27.5t31.5 -18t36 -6.5q16 0 27 4.5t19.5 10t15.5 10t16 4.5q10 0 17 -6.5t11.5 -16t6.5 -20t2 -17.5q0 -60 -19.5 -102t-48.5 -68.5t-63 -40t-62 -16.5l6 -41q44 4 89 22.5t81 53t59 86
t23 120.5z" />
    <glyph glyph-name="uni1F02" unicode="&#x1f02;" horiz-adv-x="1182" 
d="M1103 217h-24q0 -16 -5.5 -33.5t-16.5 -31.5t-26.5 -23.5t-35.5 -9.5t-36.5 5.5t-33 26t-33.5 59.5t-39 107q9 38 24 103.5t31.5 142t33.5 155t30.5 142t22 104l8.5 40.5h-152l-73 -375q-11 94 -42.5 168t-75 124t-94.5 76.5t-102 26.5q-69 0 -143 -34.5t-135 -100
t-100.5 -161t-39.5 -216.5q0 -117 35 -216t95 -170t140 -111t171 -40q48 0 96.5 19t92 54t80.5 85.5t62 112.5q22 -66 39 -111t31 -73.5t25.5 -43.5t21.5 -21.5t19 -7.5t18 -1q13 0 35 9.5t43.5 35t37 70t15.5 114.5zM751 463q-13 -98 -33 -178t-51 -137.5t-74 -89
t-102 -31.5t-108 35t-84 98t-54 151t-19 193q0 100 20.5 185.5t55 148t79.5 98t95 35.5q59 0 104 -38t78 -106t55.5 -161t37.5 -203zM856 1102l-90 375q-5 18 -16.5 35.5t-27.5 30t-34 18.5t-36 0q-19 -6 -31 -20t-17 -32t-2.5 -37t11.5 -34l196 -336h47zM459 1384
q0 34 -9.5 71t-29.5 67.5t-51.5 50.5t-75.5 20q-31 0 -52 -9t-34.5 -23.5t-19.5 -33t-6 -38.5t8.5 -36t22.5 -27.5t32 -18t37 -6.5q15 0 26 4.5t19 10t16 10t17 4.5q10 0 16.5 -6.5t10.5 -16t6 -20t2 -17.5q0 -60 -19.5 -102t-48.5 -68.5t-62 -40t-61 -16.5l4 -41
q44 4 89 22.5t81 53t59 86t23 120.5z" />
    <glyph glyph-name="uni1F06" unicode="&#x1f06;" horiz-adv-x="1182" 
d="M1103 217h-24q0 -16 -5.5 -33.5t-16.5 -31.5t-26.5 -23.5t-35.5 -9.5t-36.5 5.5t-33 26t-33.5 59.5t-39 107q9 38 24 103.5t31.5 142t33.5 155t30.5 142t22 104l8.5 40.5h-152l-73 -375q-11 94 -42.5 168t-75 124t-94.5 76.5t-102 26.5q-69 0 -143 -34.5t-135 -100
t-100.5 -161t-39.5 -216.5q0 -117 35 -216t95 -170t140 -111t171 -40q48 0 96.5 19t92 54t80.5 85.5t62 112.5q22 -66 39 -111t31 -73.5t25.5 -43.5t21.5 -21.5t19 -7.5t18 -1q13 0 35 9.5t43.5 35t37 70t15.5 114.5zM751 463q-13 -98 -33 -178t-51 -137.5t-74 -89
t-102 -31.5t-108 35t-84 98t-54 151t-19 193q0 100 20.5 185.5t55 148t79.5 98t95 35.5q59 0 104 -38t78 -106t55.5 -161t37.5 -203zM803 1397q0 67 -25.5 131.5t-71.5 115t-109.5 81t-138.5 30.5q-74 0 -134 -30.5t-102.5 -81t-65.5 -115t-23 -131.5h55q0 57 22.5 105
t60 82.5t86.5 53.5t101 19q53 0 103.5 -19t89.5 -53t62.5 -82t23.5 -106h66zM622 1325q0 34 -9.5 71t-29.5 68t-51.5 50.5t-75.5 19.5q-32 0 -53 -9t-34.5 -23.5t-19 -33t-5.5 -38.5t8.5 -36.5t22.5 -28t32 -18t37 -6.5q16 0 26.5 4.5t19 10t16 10t16.5 4.5q10 0 17 -6.5
t11.5 -16t6.5 -19.5t2 -17q0 -60 -20 -95t-49 -54t-62.5 -26t-61.5 -10l4 -45q44 5 89 18t81 40.5t59 72.5t23 113z" />
    <glyph glyph-name="uni1FB3" unicode="&#x1fb3;" horiz-adv-x="1182" 
d="M1103 217h-24q0 -16 -5.5 -33.5t-16.5 -31.5t-26.5 -23.5t-35.5 -9.5t-36.5 5.5t-33 26t-33.5 59.5t-39 107q9 38 24 103.5t31.5 142t33.5 155t30.5 142t22 104l8.5 40.5h-152l-73 -375q-11 94 -42.5 168t-75 124t-94.5 76.5t-102 26.5q-69 0 -143 -34.5t-135 -100
t-100.5 -161t-39.5 -216.5q0 -117 35 -216t95 -170t140 -111t171 -40q48 0 96.5 19t92 54t80.5 85.5t62 112.5q22 -66 39 -111t31 -73.5t25.5 -43.5t21.5 -21.5t19 -7.5t18 -1q13 0 35 9.5t43.5 35t37 70t15.5 114.5zM751 463q-13 -98 -33 -178t-51 -137.5t-74 -89
t-102 -31.5t-108 35t-84 98t-54 151t-19 193q0 100 20.5 185.5t55 148t79.5 98t95 35.5q59 0 104 -38t78 -106t55.5 -161t37.5 -203zM764 -319h-49v-13q0 -14 -6.5 -30.5t-22.5 -30t-47 -13.5q-38 0 -50 17t-12 45v242h-106v-242q0 -20 7 -39t24 -33.5t45 -23.5t69 -9
q63 0 94 19.5t43 43.5t11.5 44.5t-0.5 22.5z" />
    <glyph glyph-name="uni1FB4" unicode="&#x1fb4;" horiz-adv-x="1182" 
d="M1103 217h-24q0 -16 -5.5 -33.5t-16.5 -31.5t-26.5 -23.5t-35.5 -9.5t-36.5 5.5t-33 26t-33.5 59.5t-39 107q9 38 24 103.5t31.5 142t33.5 155t30.5 142t22 104l8.5 40.5h-152l-73 -375q-11 94 -42.5 168t-75 124t-94.5 76.5t-102 26.5q-69 0 -143 -34.5t-135 -100
t-100.5 -161t-39.5 -216.5q0 -117 35 -216t95 -170t140 -111t171 -40q48 0 96.5 19t92 54t80.5 85.5t62 112.5q22 -66 39 -111t31 -73.5t25.5 -43.5t21.5 -21.5t19 -7.5t18 -1q13 0 35 9.5t43.5 35t37 70t15.5 114.5zM751 463q-13 -98 -33 -178t-51 -137.5t-74 -89
t-102 -31.5t-108 35t-84 98t-54 151t-19 193q0 100 20.5 185.5t55 148t79.5 98t95 35.5q59 0 104 -38t78 -106t55.5 -161t37.5 -203zM764 -319h-49v-13q0 -14 -6.5 -30.5t-22.5 -30t-47 -13.5q-38 0 -50 17t-12 45v242h-106v-242q0 -20 7 -39t24 -33.5t45 -23.5t69 -9
q63 0 94 19.5t43 43.5t11.5 44.5t-0.5 22.5zM740 1440q10 15 12 34t-4 36.5t-18.5 32t-30.5 20.5q-19 6 -36.5 2t-32.5 -14.5t-26.5 -25.5t-17.5 -32l-131 -387h49z" />
    <glyph glyph-name="uni1FB2" unicode="&#x1fb2;" horiz-adv-x="1182" 
d="M1103 217h-24q0 -16 -5.5 -33.5t-16.5 -31.5t-26.5 -23.5t-35.5 -9.5t-36.5 5.5t-33 26t-33.5 59.5t-39 107q9 38 24 103.5t31.5 142t33.5 155t30.5 142t22 104l8.5 40.5h-152l-73 -375q-11 94 -42.5 168t-75 124t-94.5 76.5t-102 26.5q-69 0 -143 -34.5t-135 -100
t-100.5 -161t-39.5 -216.5q0 -117 35 -216t95 -170t140 -111t171 -40q48 0 96.5 19t92 54t80.5 85.5t62 112.5q22 -66 39 -111t31 -73.5t25.5 -43.5t21.5 -21.5t19 -7.5t18 -1q13 0 35 9.5t43.5 35t37 70t15.5 114.5zM751 463q-13 -98 -33 -178t-51 -137.5t-74 -89
t-102 -31.5t-108 35t-84 98t-54 151t-19 193q0 100 20.5 185.5t55 148t79.5 98t95 35.5q59 0 104 -38t78 -106t55.5 -161t37.5 -203zM764 -319h-49v-13q0 -14 -6.5 -30.5t-22.5 -30t-47 -13.5q-38 0 -50 17t-12 45v242h-106v-242q0 -20 7 -39t24 -33.5t45 -23.5t69 -9
q63 0 94 19.5t43 43.5t11.5 44.5t-0.5 22.5zM596 1106l-107 373q-5 18 -16 36t-26.5 31.5t-34 19.5t-38.5 -1q-17 -6 -29 -21t-18 -33t-5 -37t11 -34l213 -334h50z" />
    <glyph glyph-name="uni1FB7" unicode="&#x1fb7;" horiz-adv-x="1182" 
d="M1103 217h-24q0 -16 -5.5 -33.5t-16.5 -31.5t-26.5 -23.5t-35.5 -9.5t-36.5 5.5t-33 26t-33.5 59.5t-39 107q9 38 24 103.5t31.5 142t33.5 155t30.5 142t22 104l8.5 40.5h-152l-73 -375q-11 94 -42.5 168t-75 124t-94.5 76.5t-102 26.5q-69 0 -143 -34.5t-135 -100
t-100.5 -161t-39.5 -216.5q0 -117 35 -216t95 -170t140 -111t171 -40q48 0 96.5 19t92 54t80.5 85.5t62 112.5q22 -66 39 -111t31 -73.5t25.5 -43.5t21.5 -21.5t19 -7.5t18 -1q13 0 35 9.5t43.5 35t37 70t15.5 114.5zM751 463q-13 -98 -33 -178t-51 -137.5t-74 -89
t-102 -31.5t-108 35t-84 98t-54 151t-19 193q0 100 20.5 185.5t55 148t79.5 98t95 35.5q59 0 104 -38t78 -106t55.5 -161t37.5 -203zM764 -319h-49v-13q0 -14 -6.5 -30.5t-22.5 -30t-47 -13.5q-38 0 -50 17t-12 45v242h-106v-242q0 -20 7 -39t24 -33.5t45 -23.5t69 -9
q63 0 94 19.5t43 43.5t11.5 44.5t-0.5 22.5zM784 1118q-3 59 -21.5 123t-57 117t-99 87t-146.5 34q-54 0 -97.5 -16.5t-77 -44t-57.5 -64t-40 -76.5t-24.5 -81t-10.5 -79h56q4 48 23 91.5t50.5 76.5t76 52.5t101.5 19.5q61 0 107.5 -20.5t79.5 -54t51.5 -77t22.5 -88.5h63z
" />
    <glyph glyph-name="uni1F81" unicode="&#x1f81;" horiz-adv-x="1182" 
d="M1103 217h-24q0 -16 -5.5 -33.5t-16.5 -31.5t-26.5 -23.5t-35.5 -9.5t-36.5 5.5t-33 26t-33.5 59.5t-39 107q9 38 24 103.5t31.5 142t33.5 155t30.5 142t22 104l8.5 40.5h-152l-73 -375q-11 94 -42.5 168t-75 124t-94.5 76.5t-102 26.5q-69 0 -143 -34.5t-135 -100
t-100.5 -161t-39.5 -216.5q0 -117 35 -216t95 -170t140 -111t171 -40q48 0 96.5 19t92 54t80.5 85.5t62 112.5q22 -66 39 -111t31 -73.5t25.5 -43.5t21.5 -21.5t19 -7.5t18 -1q13 0 35 9.5t43.5 35t37 70t15.5 114.5zM751 463q-13 -98 -33 -178t-51 -137.5t-74 -89
t-102 -31.5t-108 35t-84 98t-54 151t-19 193q0 100 20.5 185.5t55 148t79.5 98t95 35.5q59 0 104 -38t78 -106t55.5 -161t37.5 -203zM764 -319h-49v-13q0 -14 -6.5 -30.5t-22.5 -30t-47 -13.5q-38 0 -50 17t-12 45v242h-106v-242q0 -20 7 -39t24 -33.5t45 -23.5t69 -9
q63 0 94 19.5t43 43.5t11.5 44.5t-0.5 22.5zM623 1487q0 20 -7.5 40.5t-23.5 37t-39.5 27t-54.5 10.5q-44 0 -75.5 -21.5t-52 -53.5t-30.5 -70.5t-10 -72.5q0 -69 23 -120.5t60 -86.5t82 -54t89 -23l6 41q-29 3 -62.5 16.5t-62 40t-48 68.5t-19.5 102q0 7 2 17t6.5 19.5
t11.5 16t17 6.5q8 0 16.5 -4.5t18.5 -9.5t22.5 -9.5t28.5 -4.5q18 0 36.5 6.5t33 18t23.5 27.5t9 36z" />
    <glyph glyph-name="uni1F85" unicode="&#x1f85;" horiz-adv-x="1182" 
d="M1103 217h-24q0 -16 -5.5 -33.5t-16.5 -31.5t-26.5 -23.5t-35.5 -9.5t-36.5 5.5t-33 26t-33.5 59.5t-39 107q9 38 24 103.5t31.5 142t33.5 155t30.5 142t22 104l8.5 40.5h-152l-73 -375q-11 94 -42.5 168t-75 124t-94.5 76.5t-102 26.5q-69 0 -143 -34.5t-135 -100
t-100.5 -161t-39.5 -216.5q0 -117 35 -216t95 -170t140 -111t171 -40q48 0 96.5 19t92 54t80.5 85.5t62 112.5q22 -66 39 -111t31 -73.5t25.5 -43.5t21.5 -21.5t19 -7.5t18 -1q13 0 35 9.5t43.5 35t37 70t15.5 114.5zM751 463q-13 -98 -33 -178t-51 -137.5t-74 -89
t-102 -31.5t-108 35t-84 98t-54 151t-19 193q0 100 20.5 185.5t55 148t79.5 98t95 35.5q59 0 104 -38t78 -106t55.5 -161t37.5 -203zM764 -319h-49v-13q0 -14 -6.5 -30.5t-22.5 -30t-47 -13.5q-38 0 -50 17t-12 45v242h-106v-242q0 -20 7 -39t24 -33.5t45 -23.5t69 -9
q63 0 94 19.5t43 43.5t11.5 44.5t-0.5 22.5zM799 1438q9 15 10.5 34t-3.5 37t-16.5 32t-29.5 20q-19 6 -38 0t-35 -18.5t-28 -30t-16 -35.5l-96 -375h47zM432 1489q0 20 -6 38.5t-19 33t-34 23.5t-52 9q-44 0 -76 -20t-52.5 -50.5t-30 -67.5t-9.5 -71q0 -69 23 -120.5
t59.5 -86t81 -53t88.5 -22.5l6 41q-27 3 -60.5 16.5t-63 40t-49 68.5t-19.5 102q0 7 2.5 17.5t7 20t12 16t17.5 6.5q9 0 16 -4.5t15 -10t18.5 -10t26.5 -4.5q19 0 37 6.5t31.5 18t21.5 27.5t8 36z" />
    <glyph glyph-name="uni1F83" unicode="&#x1f83;" horiz-adv-x="1182" 
d="M1103 217h-24q0 -16 -5.5 -33.5t-16.5 -31.5t-26.5 -23.5t-35.5 -9.5t-36.5 5.5t-33 26t-33.5 59.5t-39 107q9 38 24 103.5t31.5 142t33.5 155t30.5 142t22 104l8.5 40.5h-152l-73 -375q-11 94 -42.5 168t-75 124t-94.5 76.5t-102 26.5q-69 0 -143 -34.5t-135 -100
t-100.5 -161t-39.5 -216.5q0 -117 35 -216t95 -170t140 -111t171 -40q48 0 96.5 19t92 54t80.5 85.5t62 112.5q22 -66 39 -111t31 -73.5t25.5 -43.5t21.5 -21.5t19 -7.5t18 -1q13 0 35 9.5t43.5 35t37 70t15.5 114.5zM751 463q-13 -98 -33 -178t-51 -137.5t-74 -89
t-102 -31.5t-108 35t-84 98t-54 151t-19 193q0 100 20.5 185.5t55 148t79.5 98t95 35.5q59 0 104 -38t78 -106t55.5 -161t37.5 -203zM764 -319h-49v-13q0 -14 -6.5 -30.5t-22.5 -30t-47 -13.5q-38 0 -50 17t-12 45v242h-106v-242q0 -20 7 -39t24 -33.5t45 -23.5t69 -9
q63 0 94 19.5t43 43.5t11.5 44.5t-0.5 22.5zM794 1102l-90 375q-5 18 -16.5 35.5t-27.5 30t-34.5 18.5t-36.5 0t-29.5 -20t-16.5 -32t-3.5 -37t10.5 -34l197 -336h47zM397 1489q0 20 -6 38.5t-19 33t-34 23.5t-52 9q-44 0 -75.5 -20t-52 -50.5t-30.5 -67.5t-10 -71
q0 -69 23 -120.5t59.5 -86t81.5 -53t90 -22.5l4 41q-27 3 -60.5 16.5t-63 40t-49 68.5t-19.5 102q0 7 2.5 17.5t7 20t12 16t17.5 6.5q9 0 16 -4.5t15 -10t18.5 -10t26.5 -4.5q19 0 37 6.5t31.5 18t21.5 27.5t8 36z" />
    <glyph glyph-name="uni1F87" unicode="&#x1f87;" horiz-adv-x="1182" 
d="M1103 217h-24q0 -16 -5.5 -33.5t-16.5 -31.5t-26.5 -23.5t-35.5 -9.5t-36.5 5.5t-33 26t-33.5 59.5t-39 107q9 38 24 103.5t31.5 142t33.5 155t30.5 142t22 104l8.5 40.5h-152l-73 -375q-11 94 -42.5 168t-75 124t-94.5 76.5t-102 26.5q-69 0 -143 -34.5t-135 -100
t-100.5 -161t-39.5 -216.5q0 -117 35 -216t95 -170t140 -111t171 -40q48 0 96.5 19t92 54t80.5 85.5t62 112.5q22 -66 39 -111t31 -73.5t25.5 -43.5t21.5 -21.5t19 -7.5t18 -1q13 0 35 9.5t43.5 35t37 70t15.5 114.5zM751 463q-13 -98 -33 -178t-51 -137.5t-74 -89
t-102 -31.5t-108 35t-84 98t-54 151t-19 193q0 100 20.5 185.5t55 148t79.5 98t95 35.5q59 0 104 -38t78 -106t55.5 -161t37.5 -203zM764 -319h-49v-13q0 -14 -6.5 -30.5t-22.5 -30t-47 -13.5q-38 0 -50 17t-12 45v242h-106v-242q0 -20 7 -39t24 -33.5t45 -23.5t69 -9
q63 0 94 19.5t43 43.5t11.5 44.5t-0.5 22.5zM803 1397q0 67 -25.5 131.5t-71.5 115t-109.5 81t-138.5 30.5q-74 0 -134 -30.5t-102.5 -81t-65.5 -115t-23 -131.5h55q0 57 22.5 105t60 82.5t86.5 53.5t101 19q53 0 103.5 -19t89.5 -53t62.5 -82t23.5 -106h66zM571 1430
q0 20 -6 38.5t-19 33t-34 23.5t-52 9q-44 0 -75.5 -19.5t-51.5 -50.5t-30 -68t-10 -71q0 -68 23 -113t60 -72.5t82 -40.5t89 -18l4 45q-29 3 -62.5 10t-62.5 26t-48.5 54t-19.5 95q0 7 2 17t6.5 19.5t11.5 16t17 6.5q9 0 16.5 -4.5t15.5 -10t19 -10t27 -4.5q18 0 36 6.5
t31.5 18t22 28t8.5 36.5z" />
    <glyph glyph-name="uni1F80" unicode="&#x1f80;" horiz-adv-x="1182" 
d="M1103 217h-24q0 -16 -5.5 -33.5t-16.5 -31.5t-26.5 -23.5t-35.5 -9.5t-36.5 5.5t-33 26t-33.5 59.5t-39 107q9 38 24 103.5t31.5 142t33.5 155t30.5 142t22 104l8.5 40.5h-152l-73 -375q-11 94 -42.5 168t-75 124t-94.5 76.5t-102 26.5q-69 0 -143 -34.5t-135 -100
t-100.5 -161t-39.5 -216.5q0 -117 35 -216t95 -170t140 -111t171 -40q48 0 96.5 19t92 54t80.5 85.5t62 112.5q22 -66 39 -111t31 -73.5t25.5 -43.5t21.5 -21.5t19 -7.5t18 -1q13 0 35 9.5t43.5 35t37 70t15.5 114.5zM751 463q-13 -98 -33 -178t-51 -137.5t-74 -89
t-102 -31.5t-108 35t-84 98t-54 151t-19 193q0 100 20.5 185.5t55 148t79.5 98t95 35.5q59 0 104 -38t78 -106t55.5 -161t37.5 -203zM764 -319h-49v-13q0 -14 -6.5 -30.5t-22.5 -30t-47 -13.5q-38 0 -50 17t-12 45v242h-106v-242q0 -20 7 -39t24 -33.5t45 -23.5t69 -9
q63 0 94 19.5t43 43.5t11.5 44.5t-0.5 22.5zM684 1382q0 35 -10 74t-30.5 72t-52 54.5t-75.5 21.5q-31 0 -54.5 -11t-39 -28t-23.5 -37.5t-8 -40.5t9 -36t24 -27.5t33.5 -18t38.5 -6.5q16 0 28 4.5t21.5 9.5t18.5 9.5t18 4.5q10 0 16.5 -6.5t10.5 -16t5.5 -19.5t1.5 -17
q0 -60 -19 -102t-47.5 -68.5t-61 -40t-60.5 -16.5l4 -41q44 4 89 23t81 53.5t59 86t23 119.5z" />
    <glyph glyph-name="uni1F84" unicode="&#x1f84;" horiz-adv-x="1182" 
d="M1103 217h-24q0 -16 -5.5 -33.5t-16.5 -31.5t-26.5 -23.5t-35.5 -9.5t-36.5 5.5t-33 26t-33.5 59.5t-39 107q9 38 24 103.5t31.5 142t33.5 155t30.5 142t22 104l8.5 40.5h-152l-73 -375q-11 94 -42.5 168t-75 124t-94.5 76.5t-102 26.5q-69 0 -143 -34.5t-135 -100
t-100.5 -161t-39.5 -216.5q0 -117 35 -216t95 -170t140 -111t171 -40q48 0 96.5 19t92 54t80.5 85.5t62 112.5q22 -66 39 -111t31 -73.5t25.5 -43.5t21.5 -21.5t19 -7.5t18 -1q13 0 35 9.5t43.5 35t37 70t15.5 114.5zM751 463q-13 -98 -33 -178t-51 -137.5t-74 -89
t-102 -31.5t-108 35t-84 98t-54 151t-19 193q0 100 20.5 185.5t55 148t79.5 98t95 35.5q59 0 104 -38t78 -106t55.5 -161t37.5 -203zM764 -319h-49v-13q0 -14 -6.5 -30.5t-22.5 -30t-47 -13.5q-38 0 -50 17t-12 45v242h-106v-242q0 -20 7 -39t24 -33.5t45 -23.5t69 -9
q63 0 94 19.5t43 43.5t11.5 44.5t-0.5 22.5zM821 1438q9 15 11 34t-3 37t-17 32t-30 20t-36.5 0t-34.5 -18.5t-27.5 -30t-15.5 -35.5l-99 -375h48zM475 1384q0 34 -9.5 71t-29.5 67.5t-51.5 50.5t-75.5 20q-32 0 -53 -9t-34.5 -23.5t-19 -33t-5.5 -38.5t8.5 -36t22 -27.5
t31.5 -18t36 -6.5q16 0 27 4.5t19.5 10t15.5 10t16 4.5q10 0 17 -6.5t11.5 -16t6.5 -20t2 -17.5q0 -60 -19.5 -102t-48.5 -68.5t-63 -40t-62 -16.5l6 -41q44 4 89 22.5t81 53t59 86t23 120.5z" />
    <glyph glyph-name="uni1F82" unicode="&#x1f82;" horiz-adv-x="1182" 
d="M1103 217h-24q0 -16 -5.5 -33.5t-16.5 -31.5t-26.5 -23.5t-35.5 -9.5t-36.5 5.5t-33 26t-33.5 59.5t-39 107q9 38 24 103.5t31.5 142t33.5 155t30.5 142t22 104l8.5 40.5h-152l-73 -375q-11 94 -42.5 168t-75 124t-94.5 76.5t-102 26.5q-69 0 -143 -34.5t-135 -100
t-100.5 -161t-39.5 -216.5q0 -117 35 -216t95 -170t140 -111t171 -40q48 0 96.5 19t92 54t80.5 85.5t62 112.5q22 -66 39 -111t31 -73.5t25.5 -43.5t21.5 -21.5t19 -7.5t18 -1q13 0 35 9.5t43.5 35t37 70t15.5 114.5zM751 463q-13 -98 -33 -178t-51 -137.5t-74 -89
t-102 -31.5t-108 35t-84 98t-54 151t-19 193q0 100 20.5 185.5t55 148t79.5 98t95 35.5q59 0 104 -38t78 -106t55.5 -161t37.5 -203zM764 -319h-49v-13q0 -14 -6.5 -30.5t-22.5 -30t-47 -13.5q-38 0 -50 17t-12 45v242h-106v-242q0 -20 7 -39t24 -33.5t45 -23.5t69 -9
q63 0 94 19.5t43 43.5t11.5 44.5t-0.5 22.5zM856 1102l-90 375q-5 18 -16.5 35.5t-27.5 30t-34 18.5t-36 0q-19 -6 -31 -20t-17 -32t-2.5 -37t11.5 -34l196 -336h47zM459 1384q0 34 -9.5 71t-29.5 67.5t-51.5 50.5t-75.5 20q-31 0 -52 -9t-34.5 -23.5t-19.5 -33t-6 -38.5
t8.5 -36t22.5 -27.5t32 -18t37 -6.5q15 0 26 4.5t19 10t16 10t17 4.5q10 0 16.5 -6.5t10.5 -16t6 -20t2 -17.5q0 -60 -19.5 -102t-48.5 -68.5t-62 -40t-61 -16.5l4 -41q44 4 89 22.5t81 53t59 86t23 120.5z" />
    <glyph glyph-name="uni1F86" unicode="&#x1f86;" horiz-adv-x="1182" 
d="M1103 217h-24q0 -16 -5.5 -33.5t-16.5 -31.5t-26.5 -23.5t-35.5 -9.5t-36.5 5.5t-33 26t-33.5 59.5t-39 107q9 38 24 103.5t31.5 142t33.5 155t30.5 142t22 104l8.5 40.5h-152l-73 -375q-11 94 -42.5 168t-75 124t-94.5 76.5t-102 26.5q-69 0 -143 -34.5t-135 -100
t-100.5 -161t-39.5 -216.5q0 -117 35 -216t95 -170t140 -111t171 -40q48 0 96.5 19t92 54t80.5 85.5t62 112.5q22 -66 39 -111t31 -73.5t25.5 -43.5t21.5 -21.5t19 -7.5t18 -1q13 0 35 9.5t43.5 35t37 70t15.5 114.5zM751 463q-13 -98 -33 -178t-51 -137.5t-74 -89
t-102 -31.5t-108 35t-84 98t-54 151t-19 193q0 100 20.5 185.5t55 148t79.5 98t95 35.5q59 0 104 -38t78 -106t55.5 -161t37.5 -203zM764 -319h-49v-13q0 -14 -6.5 -30.5t-22.5 -30t-47 -13.5q-38 0 -50 17t-12 45v242h-106v-242q0 -20 7 -39t24 -33.5t45 -23.5t69 -9
q63 0 94 19.5t43 43.5t11.5 44.5t-0.5 22.5zM803 1397q0 67 -25.5 131.5t-71.5 115t-109.5 81t-138.5 30.5q-74 0 -134 -30.5t-102.5 -81t-65.5 -115t-23 -131.5h55q0 57 22.5 105t60 82.5t86.5 53.5t101 19q53 0 103.5 -19t89.5 -53t62.5 -82t23.5 -106h66zM622 1325
q0 34 -9.5 71t-29.5 68t-51.5 50.5t-75.5 19.5q-32 0 -53 -9t-34.5 -23.5t-19 -33t-5.5 -38.5t8.5 -36.5t22.5 -28t32 -18t37 -6.5q16 0 26.5 4.5t19 10t16 10t16.5 4.5q10 0 17 -6.5t11.5 -16t6.5 -19.5t2 -17q0 -60 -20 -95t-49 -54t-62.5 -26t-61.5 -10l4 -45q44 5 89 18
t81 40.5t59 72.5t23 113z" />
    <glyph glyph-name="uni1F73" unicode="&#x1f73;" horiz-adv-x="854" 
d="M777 231l-34 15q-18 -43 -46.5 -79.5t-63 -63t-75 -41.5t-82.5 -15t-81 15.5t-69.5 44t-48.5 70t-18 93.5q0 72 15.5 119.5t38 75.5t48 39.5t44.5 11.5q15 0 30.5 -5t32.5 -10.5t37 -10.5t45 -5q19 0 32.5 5.5t22.5 14t13 18t4 18.5q0 8 -3.5 17.5t-11 18t-19.5 14
t-30 5.5q-32 0 -54 -5.5t-39.5 -12t-32.5 -12t-31 -5.5q-26 0 -52 9.5t-47.5 31t-35 57t-13.5 86.5q0 52 9.5 93.5t31 71t56 45.5t85.5 16q38 0 62 -14t40 -34.5t27 -45t22.5 -45t26.5 -34.5t40 -14q8 0 19.5 3.5t22 11t18 19.5t7.5 28q0 26 -20 57t-58.5 58t-94.5 45
t-128 18q-84 0 -147.5 -23t-106 -61.5t-64.5 -89t-22 -105.5q0 -52 18 -89.5t44.5 -63t57.5 -41t58 -23.5q-19 -9 -49.5 -31t-59 -56.5t-49 -82t-20.5 -108.5t24.5 -111.5t68.5 -87t105 -56.5t134 -20t132.5 19t105 52.5t78 80.5t50.5 104zM678 1440q10 15 12 34t-4 36.5
t-18.5 32t-30.5 20.5q-19 6 -36.5 2t-32.5 -14.5t-26.5 -25.5t-17.5 -32l-131 -387h49z" />
    <glyph glyph-name="uni1F72" unicode="&#x1f72;" horiz-adv-x="854" 
d="M777 231l-34 15q-18 -43 -46.5 -79.5t-63 -63t-75 -41.5t-82.5 -15t-81 15.5t-69.5 44t-48.5 70t-18 93.5q0 72 15.5 119.5t38 75.5t48 39.5t44.5 11.5q15 0 30.5 -5t32.5 -10.5t37 -10.5t45 -5q19 0 32.5 5.5t22.5 14t13 18t4 18.5q0 8 -3.5 17.5t-11 18t-19.5 14
t-30 5.5q-32 0 -54 -5.5t-39.5 -12t-32.5 -12t-31 -5.5q-26 0 -52 9.5t-47.5 31t-35 57t-13.5 86.5q0 52 9.5 93.5t31 71t56 45.5t85.5 16q38 0 62 -14t40 -34.5t27 -45t22.5 -45t26.5 -34.5t40 -14q8 0 19.5 3.5t22 11t18 19.5t7.5 28q0 26 -20 57t-58.5 58t-94.5 45
t-128 18q-84 0 -147.5 -23t-106 -61.5t-64.5 -89t-22 -105.5q0 -52 18 -89.5t44.5 -63t57.5 -41t58 -23.5q-19 -9 -49.5 -31t-59 -56.5t-49 -82t-20.5 -108.5t24.5 -111.5t68.5 -87t105 -56.5t134 -20t132.5 19t105 52.5t78 80.5t50.5 104zM531 1106l-107 373q-5 18 -16 36
t-26.5 31.5t-34 19.5t-38.5 -1q-17 -6 -29 -21t-18 -33t-5 -37t11 -34l213 -334h50z" />
    <glyph glyph-name="uni1F11" unicode="&#x1f11;" horiz-adv-x="854" 
d="M777 231l-34 15q-18 -43 -46.5 -79.5t-63 -63t-75 -41.5t-82.5 -15t-81 15.5t-69.5 44t-48.5 70t-18 93.5q0 72 15.5 119.5t38 75.5t48 39.5t44.5 11.5q15 0 30.5 -5t32.5 -10.5t37 -10.5t45 -5q19 0 32.5 5.5t22.5 14t13 18t4 18.5q0 8 -3.5 17.5t-11 18t-19.5 14
t-30 5.5q-32 0 -54 -5.5t-39.5 -12t-32.5 -12t-31 -5.5q-26 0 -52 9.5t-47.5 31t-35 57t-13.5 86.5q0 52 9.5 93.5t31 71t56 45.5t85.5 16q38 0 62 -14t40 -34.5t27 -45t22.5 -45t26.5 -34.5t40 -14q8 0 19.5 3.5t22 11t18 19.5t7.5 28q0 26 -20 57t-58.5 58t-94.5 45
t-128 18q-84 0 -147.5 -23t-106 -61.5t-64.5 -89t-22 -105.5q0 -52 18 -89.5t44.5 -63t57.5 -41t58 -23.5q-19 -9 -49.5 -31t-59 -56.5t-49 -82t-20.5 -108.5t24.5 -111.5t68.5 -87t105 -56.5t134 -20t132.5 19t105 52.5t78 80.5t50.5 104zM575 1487q0 20 -7.5 40.5
t-23.5 37t-39.5 27t-54.5 10.5q-44 0 -75.5 -21.5t-52 -53.5t-30.5 -70.5t-10 -72.5q0 -69 23 -120.5t60 -86.5t82 -54t89 -23l6 41q-29 3 -62.5 16.5t-62 40t-48 68.5t-19.5 102q0 7 2 17t6.5 19.5t11.5 16t17 6.5q8 0 16.5 -4.5t18.5 -9.5t22.5 -9.5t28.5 -4.5
q18 0 36.5 6.5t33 18t23.5 27.5t9 36z" />
    <glyph glyph-name="uni1F15" unicode="&#x1f15;" horiz-adv-x="854" 
d="M777 231l-34 15q-18 -43 -46.5 -79.5t-63 -63t-75 -41.5t-82.5 -15t-81 15.5t-69.5 44t-48.5 70t-18 93.5q0 72 15.5 119.5t38 75.5t48 39.5t44.5 11.5q15 0 30.5 -5t32.5 -10.5t37 -10.5t45 -5q19 0 32.5 5.5t22.5 14t13 18t4 18.5q0 8 -3.5 17.5t-11 18t-19.5 14
t-30 5.5q-32 0 -54 -5.5t-39.5 -12t-32.5 -12t-31 -5.5q-26 0 -52 9.5t-47.5 31t-35 57t-13.5 86.5q0 52 9.5 93.5t31 71t56 45.5t85.5 16q38 0 62 -14t40 -34.5t27 -45t22.5 -45t26.5 -34.5t40 -14q8 0 19.5 3.5t22 11t18 19.5t7.5 28q0 26 -20 57t-58.5 58t-94.5 45
t-128 18q-84 0 -147.5 -23t-106 -61.5t-64.5 -89t-22 -105.5q0 -52 18 -89.5t44.5 -63t57.5 -41t58 -23.5q-19 -9 -49.5 -31t-59 -56.5t-49 -82t-20.5 -108.5t24.5 -111.5t68.5 -87t105 -56.5t134 -20t132.5 19t105 52.5t78 80.5t50.5 104zM732 1438q9 15 10.5 34t-3.5 37
t-16.5 32t-29.5 20q-19 6 -38 0t-35 -18.5t-28 -30t-16 -35.5l-96 -375h47zM365 1489q0 20 -6 38.5t-19 33t-34 23.5t-52 9q-44 0 -76 -20t-52.5 -50.5t-30 -67.5t-9.5 -71q0 -69 23 -120.5t59.5 -86t81 -53t88.5 -22.5l6 41q-27 3 -60.5 16.5t-63 40t-49 68.5t-19.5 102
q0 7 2.5 17.5t7 20t12 16t17.5 6.5q9 0 16 -4.5t15 -10t18.5 -10t26.5 -4.5q19 0 37 6.5t31.5 18t21.5 27.5t8 36z" />
    <glyph glyph-name="uni1F13" unicode="&#x1f13;" horiz-adv-x="854" 
d="M777 231l-34 15q-18 -43 -46.5 -79.5t-63 -63t-75 -41.5t-82.5 -15t-81 15.5t-69.5 44t-48.5 70t-18 93.5q0 72 15.5 119.5t38 75.5t48 39.5t44.5 11.5q15 0 30.5 -5t32.5 -10.5t37 -10.5t45 -5q19 0 32.5 5.5t22.5 14t13 18t4 18.5q0 8 -3.5 17.5t-11 18t-19.5 14
t-30 5.5q-32 0 -54 -5.5t-39.5 -12t-32.5 -12t-31 -5.5q-26 0 -52 9.5t-47.5 31t-35 57t-13.5 86.5q0 52 9.5 93.5t31 71t56 45.5t85.5 16q38 0 62 -14t40 -34.5t27 -45t22.5 -45t26.5 -34.5t40 -14q8 0 19.5 3.5t22 11t18 19.5t7.5 28q0 26 -20 57t-58.5 58t-94.5 45
t-128 18q-84 0 -147.5 -23t-106 -61.5t-64.5 -89t-22 -105.5q0 -52 18 -89.5t44.5 -63t57.5 -41t58 -23.5q-19 -9 -49.5 -31t-59 -56.5t-49 -82t-20.5 -108.5t24.5 -111.5t68.5 -87t105 -56.5t134 -20t132.5 19t105 52.5t78 80.5t50.5 104zM715 1102l-90 375
q-5 18 -16.5 35.5t-27.5 30t-34.5 18.5t-36.5 0t-29.5 -20t-16.5 -32t-3.5 -37t10.5 -34l197 -336h47zM318 1489q0 20 -6 38.5t-19 33t-34 23.5t-52 9q-44 0 -75.5 -20t-52 -50.5t-30.5 -67.5t-10 -71q0 -69 23 -120.5t59.5 -86t81.5 -53t90 -22.5l4 41q-27 3 -60.5 16.5
t-63 40t-49 68.5t-19.5 102q0 7 2.5 17.5t7 20t12 16t17.5 6.5q9 0 16 -4.5t15 -10t18.5 -10t26.5 -4.5q19 0 37 6.5t31.5 18t21.5 27.5t8 36z" />
    <glyph glyph-name="uni1F10" unicode="&#x1f10;" horiz-adv-x="854" 
d="M777 231l-34 15q-18 -43 -46.5 -79.5t-63 -63t-75 -41.5t-82.5 -15t-81 15.5t-69.5 44t-48.5 70t-18 93.5q0 72 15.5 119.5t38 75.5t48 39.5t44.5 11.5q15 0 30.5 -5t32.5 -10.5t37 -10.5t45 -5q19 0 32.5 5.5t22.5 14t13 18t4 18.5q0 8 -3.5 17.5t-11 18t-19.5 14
t-30 5.5q-32 0 -54 -5.5t-39.5 -12t-32.5 -12t-31 -5.5q-26 0 -52 9.5t-47.5 31t-35 57t-13.5 86.5q0 52 9.5 93.5t31 71t56 45.5t85.5 16q38 0 62 -14t40 -34.5t27 -45t22.5 -45t26.5 -34.5t40 -14q8 0 19.5 3.5t22 11t18 19.5t7.5 28q0 26 -20 57t-58.5 58t-94.5 45
t-128 18q-84 0 -147.5 -23t-106 -61.5t-64.5 -89t-22 -105.5q0 -52 18 -89.5t44.5 -63t57.5 -41t58 -23.5q-19 -9 -49.5 -31t-59 -56.5t-49 -82t-20.5 -108.5t24.5 -111.5t68.5 -87t105 -56.5t134 -20t132.5 19t105 52.5t78 80.5t50.5 104zM625 1382q0 35 -10 74t-30.5 72
t-52 54.5t-75.5 21.5q-31 0 -54.5 -11t-39 -28t-23.5 -37.5t-8 -40.5t9 -36t24 -27.5t33.5 -18t38.5 -6.5q16 0 28 4.5t21.5 9.5t18.5 9.5t18 4.5q10 0 16.5 -6.5t10.5 -16t5.5 -19.5t1.5 -17q0 -60 -19 -102t-47.5 -68.5t-61 -40t-60.5 -16.5l4 -41q44 4 89 23t81 53.5
t59 86t23 119.5z" />
    <glyph glyph-name="uni1F14" unicode="&#x1f14;" horiz-adv-x="854" 
d="M777 231l-34 15q-18 -43 -46.5 -79.5t-63 -63t-75 -41.5t-82.5 -15t-81 15.5t-69.5 44t-48.5 70t-18 93.5q0 72 15.5 119.5t38 75.5t48 39.5t44.5 11.5q15 0 30.5 -5t32.5 -10.5t37 -10.5t45 -5q19 0 32.5 5.5t22.5 14t13 18t4 18.5q0 8 -3.5 17.5t-11 18t-19.5 14
t-30 5.5q-32 0 -54 -5.5t-39.5 -12t-32.5 -12t-31 -5.5q-26 0 -52 9.5t-47.5 31t-35 57t-13.5 86.5q0 52 9.5 93.5t31 71t56 45.5t85.5 16q38 0 62 -14t40 -34.5t27 -45t22.5 -45t26.5 -34.5t40 -14q8 0 19.5 3.5t22 11t18 19.5t7.5 28q0 26 -20 57t-58.5 58t-94.5 45
t-128 18q-84 0 -147.5 -23t-106 -61.5t-64.5 -89t-22 -105.5q0 -52 18 -89.5t44.5 -63t57.5 -41t58 -23.5q-19 -9 -49.5 -31t-59 -56.5t-49 -82t-20.5 -108.5t24.5 -111.5t68.5 -87t105 -56.5t134 -20t132.5 19t105 52.5t78 80.5t50.5 104zM747 1438q9 15 11 34t-3 37
t-17 32t-30 20t-36.5 0t-34.5 -18.5t-27.5 -30t-15.5 -35.5l-99 -375h48zM401 1384q0 34 -9.5 71t-29.5 67.5t-51.5 50.5t-75.5 20q-32 0 -53 -9t-34.5 -23.5t-19 -33t-5.5 -38.5t8.5 -36t22 -27.5t31.5 -18t36 -6.5q16 0 27 4.5t19.5 10t15.5 10t16 4.5q10 0 17 -6.5
t11.5 -16t6.5 -20t2 -17.5q0 -60 -19.5 -102t-48.5 -68.5t-63 -40t-62 -16.5l6 -41q44 4 89 22.5t81 53t59 86t23 120.5z" />
    <glyph glyph-name="uni1F12" unicode="&#x1f12;" horiz-adv-x="854" 
d="M773 231l-34 15q-18 -43 -46.5 -79.5t-63 -63t-75 -41.5t-82.5 -15t-81 15.5t-69.5 44t-48.5 70t-18 93.5q0 72 15.5 119.5t38 75.5t48 39.5t44.5 11.5q15 0 30.5 -5t32.5 -10.5t37 -10.5t45 -5q19 0 32.5 5.5t22.5 14t13 18t4 18.5q0 8 -3.5 17.5t-11 18t-19.5 14
t-30 5.5q-32 0 -54 -5.5t-39.5 -12t-32.5 -12t-31 -5.5q-26 0 -52 9.5t-47.5 31t-35 57t-13.5 86.5q0 52 9.5 93.5t31 71t56 45.5t85.5 16q38 0 62 -14t40 -34.5t27 -45t22.5 -45t26.5 -34.5t40 -14q8 0 19.5 3.5t22 11t18 19.5t7.5 28q0 26 -20 57t-58.5 58t-94.5 45
t-128 18q-84 0 -147.5 -23t-106 -61.5t-64.5 -89t-22 -105.5q0 -52 18 -89.5t44.5 -63t57.5 -41t58 -23.5q-19 -9 -49.5 -31t-59 -56.5t-49 -82t-20.5 -108.5t24.5 -111.5t68.5 -87t105 -56.5t134 -20t132.5 19t105 52.5t78 80.5t50.5 104zM737 1102l-90 375
q-5 18 -16.5 35.5t-27.5 30t-34 18.5t-36 0q-19 -6 -31 -20t-17 -32t-2.5 -37t11.5 -34l196 -336h47zM340 1384q0 34 -9.5 71t-29.5 67.5t-51.5 50.5t-75.5 20q-31 0 -52 -9t-34.5 -23.5t-19.5 -33t-6 -38.5t8.5 -36t22.5 -27.5t32 -18t37 -6.5q15 0 26 4.5t19 10t16 10
t17 4.5q10 0 16.5 -6.5t10.5 -16t6 -20t2 -17.5q0 -60 -19.5 -102t-48.5 -68.5t-62 -40t-61 -16.5l4 -41q44 4 89 22.5t81 53t59 86t23 120.5z" />
    <glyph glyph-name="uni200B" unicode="&#x200b;" horiz-adv-x="0" 
 />
    <glyph glyph-name="uni1F75" unicode="&#x1f75;" 
d="M927 -389v997q0 135 -25.5 216.5t-65.5 126t-90.5 59t-99.5 14.5q-47 0 -88 -15.5t-74.5 -45t-57 -71.5t-33.5 -95q-8 50 -19 91.5t-32 71.5t-54.5 47t-85.5 17q-41 0 -72.5 -20t-53.5 -57.5t-33 -91t-11 -120.5h43q0 50 9 89t23.5 66t31.5 41.5t32 14.5q13 0 25 -6
t21 -25t14.5 -53.5t5.5 -91.5v-770h164v430q0 157 19.5 257.5t52 158t74 79t85.5 21.5q36 0 61 -16t40.5 -43t22.5 -62t7 -73v-1141h164zM856 1440q10 15 12 34t-4 36.5t-18.5 32t-30.5 20.5q-19 6 -36.5 2t-32.5 -14.5t-26.5 -25.5t-17.5 -32l-131 -387h49z" />
    <glyph glyph-name="uni1F74" unicode="&#x1f74;" 
d="M927 -389v997q0 135 -25.5 216.5t-65.5 126t-90.5 59t-99.5 14.5q-47 0 -88 -15.5t-74.5 -45t-57 -71.5t-33.5 -95q-8 50 -19 91.5t-32 71.5t-54.5 47t-85.5 17q-41 0 -72.5 -20t-53.5 -57.5t-33 -91t-11 -120.5h43q0 50 9 89t23.5 66t31.5 41.5t32 14.5q13 0 25 -6
t21 -25t14.5 -53.5t5.5 -91.5v-770h164v430q0 157 19.5 257.5t52 158t74 79t85.5 21.5q36 0 61 -16t40.5 -43t22.5 -62t7 -73v-1141h164zM727 1106l-107 373q-5 18 -16 36t-26.5 31.5t-34 19.5t-38.5 -1q-17 -6 -29 -21t-18 -33t-5 -37t11 -34l213 -334h50z" />
    <glyph glyph-name="uni1FC6" unicode="&#x1fc6;" 
d="M927 -389v997q0 135 -25.5 216.5t-65.5 126t-90.5 59t-99.5 14.5q-47 0 -88 -15.5t-74.5 -45t-57 -71.5t-33.5 -95q-8 50 -19 91.5t-32 71.5t-54.5 47t-85.5 17q-41 0 -72.5 -20t-53.5 -57.5t-33 -91t-11 -120.5h43q0 50 9 89t23.5 66t31.5 41.5t32 14.5q13 0 25 -6
t21 -25t14.5 -53.5t5.5 -91.5v-770h164v430q0 157 19.5 257.5t52 158t74 79t85.5 21.5q36 0 61 -16t40.5 -43t22.5 -62t7 -73v-1141h164zM887 1118q-3 59 -21.5 123t-57 117t-99 87t-146.5 34q-54 0 -97.5 -16.5t-77 -44t-57.5 -64t-40 -76.5t-24.5 -81t-10.5 -79h56
q4 48 23 91.5t50.5 76.5t76 52.5t101.5 19.5q61 0 107.5 -20.5t79.5 -54t51.5 -77t22.5 -88.5h63z" />
    <glyph glyph-name="uni1F21" unicode="&#x1f21;" 
d="M927 -389v997q0 135 -25.5 216.5t-65.5 126t-90.5 59t-99.5 14.5q-47 0 -88 -15.5t-74.5 -45t-57 -71.5t-33.5 -95q-8 50 -19 91.5t-32 71.5t-54.5 47t-85.5 17q-41 0 -72.5 -20t-53.5 -57.5t-33 -91t-11 -120.5h43q0 50 9 89t23.5 66t31.5 41.5t32 14.5q13 0 25 -6
t21 -25t14.5 -53.5t5.5 -91.5v-770h164v430q0 157 19.5 257.5t52 158t74 79t85.5 21.5q36 0 61 -16t40.5 -43t22.5 -62t7 -73v-1141h164zM770 1487q0 20 -7.5 40.5t-23.5 37t-39.5 27t-54.5 10.5q-44 0 -75.5 -21.5t-52 -53.5t-30.5 -70.5t-10 -72.5q0 -69 23 -120.5
t60 -86.5t82 -54t89 -23l6 41q-29 3 -62.5 16.5t-62 40t-48 68.5t-19.5 102q0 7 2 17t6.5 19.5t11.5 16t17 6.5q8 0 16.5 -4.5t18.5 -9.5t22.5 -9.5t28.5 -4.5q18 0 36.5 6.5t33 18t23.5 27.5t9 36z" />
    <glyph glyph-name="uni1F25" unicode="&#x1f25;" 
d="M927 -389v997q0 135 -25.5 216.5t-65.5 126t-90.5 59t-99.5 14.5q-47 0 -88 -15.5t-74.5 -45t-57 -71.5t-33.5 -95q-8 50 -19 91.5t-32 71.5t-54.5 47t-85.5 17q-41 0 -72.5 -20t-53.5 -57.5t-33 -91t-11 -120.5h43q0 50 9 89t23.5 66t31.5 41.5t32 14.5q13 0 25 -6
t21 -25t14.5 -53.5t5.5 -91.5v-770h164v430q0 157 19.5 257.5t52 158t74 79t85.5 21.5q36 0 61 -16t40.5 -43t22.5 -62t7 -73v-1141h164zM932 1438q9 15 10.5 34t-3.5 37t-16.5 32t-29.5 20q-19 6 -38 0t-35 -18.5t-28 -30t-16 -35.5l-96 -375h47zM565 1489q0 20 -6 38.5
t-19 33t-34 23.5t-52 9q-44 0 -76 -20t-52.5 -50.5t-30 -67.5t-9.5 -71q0 -69 23 -120.5t59.5 -86t81 -53t88.5 -22.5l6 41q-27 3 -60.5 16.5t-63 40t-49 68.5t-19.5 102q0 7 2.5 17.5t7 20t12 16t17.5 6.5q9 0 16 -4.5t15 -10t18.5 -10t26.5 -4.5q19 0 37 6.5t31.5 18
t21.5 27.5t8 36z" />
    <glyph glyph-name="uni1F23" unicode="&#x1f23;" 
d="M927 -389v997q0 135 -25.5 216.5t-65.5 126t-90.5 59t-99.5 14.5q-47 0 -88 -15.5t-74.5 -45t-57 -71.5t-33.5 -95q-8 50 -19 91.5t-32 71.5t-54.5 47t-85.5 17q-41 0 -72.5 -20t-53.5 -57.5t-33 -91t-11 -120.5h43q0 50 9 89t23.5 66t31.5 41.5t32 14.5q13 0 25 -6
t21 -25t14.5 -53.5t5.5 -91.5v-770h164v430q0 157 19.5 257.5t52 158t74 79t85.5 21.5q36 0 61 -16t40.5 -43t22.5 -62t7 -73v-1141h164zM897 1102l-90 375q-5 18 -16.5 35.5t-27.5 30t-34.5 18.5t-36.5 0t-29.5 -20t-16.5 -32t-3.5 -37t10.5 -34l197 -336h47zM500 1489
q0 20 -6 38.5t-19 33t-34 23.5t-52 9q-44 0 -75.5 -20t-52 -50.5t-30.5 -67.5t-10 -71q0 -69 23 -120.5t59.5 -86t81.5 -53t90 -22.5l4 41q-27 3 -60.5 16.5t-63 40t-49 68.5t-19.5 102q0 7 2.5 17.5t7 20t12 16t17.5 6.5q9 0 16 -4.5t15 -10t18.5 -10t26.5 -4.5
q19 0 37 6.5t31.5 18t21.5 27.5t8 36z" />
    <glyph glyph-name="uni1F27" unicode="&#x1f27;" 
d="M927 -389v997q0 135 -25.5 216.5t-65.5 126t-90.5 59t-99.5 14.5q-47 0 -88 -15.5t-74.5 -45t-57 -71.5t-33.5 -95q-8 50 -19 91.5t-32 71.5t-54.5 47t-85.5 17q-41 0 -72.5 -20t-53.5 -57.5t-33 -91t-11 -120.5h43q0 50 9 89t23.5 66t31.5 41.5t32 14.5q13 0 25 -6
t21 -25t14.5 -53.5t5.5 -91.5v-770h164v430q0 157 19.5 257.5t52 158t74 79t85.5 21.5q36 0 61 -16t40.5 -43t22.5 -62t7 -73v-1141h164zM906 1397q0 67 -25.5 131.5t-71.5 115t-109.5 81t-138.5 30.5q-74 0 -134 -30.5t-102.5 -81t-65.5 -115t-23 -131.5h55q0 57 22.5 105
t60 82.5t86.5 53.5t101 19q53 0 103.5 -19t89.5 -53t62.5 -82t23.5 -106h66zM674 1430q0 20 -6 38.5t-19 33t-34 23.5t-52 9q-44 0 -75.5 -19.5t-51.5 -50.5t-30 -68t-10 -71q0 -68 23 -113t60 -72.5t82 -40.5t89 -18l4 45q-29 3 -62.5 10t-62.5 26t-48.5 54t-19.5 95
q0 7 2 17t6.5 19.5t11.5 16t17 6.5q9 0 16.5 -4.5t15.5 -10t19 -10t27 -4.5q18 0 36 6.5t31.5 18t22 28t8.5 36.5z" />
    <glyph glyph-name="uni1F20" unicode="&#x1f20;" 
d="M927 -389v997q0 135 -25.5 216.5t-65.5 126t-90.5 59t-99.5 14.5q-47 0 -88 -15.5t-74.5 -45t-57 -71.5t-33.5 -95q-8 50 -19 91.5t-32 71.5t-54.5 47t-85.5 17q-41 0 -72.5 -20t-53.5 -57.5t-33 -91t-11 -120.5h43q0 50 9 89t23.5 66t31.5 41.5t32 14.5q13 0 25 -6
t21 -25t14.5 -53.5t5.5 -91.5v-770h164v430q0 157 19.5 257.5t52 158t74 79t85.5 21.5q36 0 61 -16t40.5 -43t22.5 -62t7 -73v-1141h164zM838 1382q0 35 -10 74t-30.5 72t-52 54.5t-75.5 21.5q-31 0 -54.5 -11t-39 -28t-23.5 -37.5t-8 -40.5t9 -36t24 -27.5t33.5 -18
t38.5 -6.5q16 0 28 4.5t21.5 9.5t18.5 9.5t18 4.5q10 0 16.5 -6.5t10.5 -16t5.5 -19.5t1.5 -17q0 -60 -19 -102t-47.5 -68.5t-61 -40t-60.5 -16.5l4 -41q44 4 89 23t81 53.5t59 86t23 119.5z" />
    <glyph glyph-name="uni1F24" unicode="&#x1f24;" 
d="M927 -389v997q0 135 -25.5 216.5t-65.5 126t-90.5 59t-99.5 14.5q-47 0 -88 -15.5t-74.5 -45t-57 -71.5t-33.5 -95q-8 50 -19 91.5t-32 71.5t-54.5 47t-85.5 17q-41 0 -72.5 -20t-53.5 -57.5t-33 -91t-11 -120.5h43q0 50 9 89t23.5 66t31.5 41.5t32 14.5q13 0 25 -6
t21 -25t14.5 -53.5t5.5 -91.5v-770h164v430q0 157 19.5 257.5t52 158t74 79t85.5 21.5q36 0 61 -16t40.5 -43t22.5 -62t7 -73v-1141h164zM948 1438q9 15 11 34t-3 37t-17 32t-30 20t-36.5 0t-34.5 -18.5t-27.5 -30t-15.5 -35.5l-99 -375h48zM602 1384q0 34 -9.5 71
t-29.5 67.5t-51.5 50.5t-75.5 20q-32 0 -53 -9t-34.5 -23.5t-19 -33t-5.5 -38.5t8.5 -36t22 -27.5t31.5 -18t36 -6.5q16 0 27 4.5t19.5 10t15.5 10t16 4.5q10 0 17 -6.5t11.5 -16t6.5 -20t2 -17.5q0 -60 -19.5 -102t-48.5 -68.5t-63 -40t-62 -16.5l6 -41q44 4 89 22.5t81 53
t59 86t23 120.5z" />
    <glyph glyph-name="uni1F22" unicode="&#x1f22;" 
d="M927 -389v997q0 135 -25.5 216.5t-65.5 126t-90.5 59t-99.5 14.5q-47 0 -88 -15.5t-74.5 -45t-57 -71.5t-33.5 -95q-8 50 -19 91.5t-32 71.5t-54.5 47t-85.5 17q-41 0 -72.5 -20t-53.5 -57.5t-33 -91t-11 -120.5h43q0 50 9 89t23.5 66t31.5 41.5t32 14.5q13 0 25 -6
t21 -25t14.5 -53.5t5.5 -91.5v-770h164v430q0 157 19.5 257.5t52 158t74 79t85.5 21.5q36 0 61 -16t40.5 -43t22.5 -62t7 -73v-1141h164zM942 1102l-90 375q-5 18 -16.5 35.5t-27.5 30t-34 18.5t-36 0q-19 -6 -31 -20t-17 -32t-2.5 -37t11.5 -34l196 -336h47zM545 1384
q0 34 -9.5 71t-29.5 67.5t-51.5 50.5t-75.5 20q-31 0 -52 -9t-34.5 -23.5t-19.5 -33t-6 -38.5t8.5 -36t22.5 -27.5t32 -18t37 -6.5q15 0 26 4.5t19 10t16 10t17 4.5q10 0 16.5 -6.5t10.5 -16t6 -20t2 -17.5q0 -60 -19.5 -102t-48.5 -68.5t-62 -40t-61 -16.5l4 -41
q44 4 89 22.5t81 53t59 86t23 120.5z" />
    <glyph glyph-name="uni1F26" unicode="&#x1f26;" 
d="M927 -389v997q0 135 -25.5 216.5t-65.5 126t-90.5 59t-99.5 14.5q-47 0 -88 -15.5t-74.5 -45t-57 -71.5t-33.5 -95q-8 50 -19 91.5t-32 71.5t-54.5 47t-85.5 17q-41 0 -72.5 -20t-53.5 -57.5t-33 -91t-11 -120.5h43q0 50 9 89t23.5 66t31.5 41.5t32 14.5q13 0 25 -6
t21 -25t14.5 -53.5t5.5 -91.5v-770h164v430q0 157 19.5 257.5t52 158t74 79t85.5 21.5q36 0 61 -16t40.5 -43t22.5 -62t7 -73v-1141h164zM906 1397q0 67 -25.5 131.5t-71.5 115t-109.5 81t-138.5 30.5q-74 0 -134 -30.5t-102.5 -81t-65.5 -115t-23 -131.5h55q0 57 22.5 105
t60 82.5t86.5 53.5t101 19q53 0 103.5 -19t89.5 -53t62.5 -82t23.5 -106h66zM725 1325q0 34 -9.5 71t-29.5 68t-51.5 50.5t-75.5 19.5q-32 0 -53 -9t-34.5 -23.5t-19 -33t-5.5 -38.5t8.5 -36.5t22.5 -28t32 -18t37 -6.5q16 0 26.5 4.5t19 10t16 10t16.5 4.5q10 0 17 -6.5
t11.5 -16t6.5 -19.5t2 -17q0 -60 -20 -95t-49 -54t-62.5 -26t-61.5 -10l4 -45q44 5 89 18t81 40.5t59 72.5t23 113z" />
    <glyph glyph-name="uni1FC3" unicode="&#x1fc3;" 
d="M927 -389v997q0 135 -25.5 216.5t-65.5 126t-90.5 59t-99.5 14.5q-47 0 -88 -15.5t-74.5 -45t-57 -71.5t-33.5 -95q-8 50 -19 91.5t-32 71.5t-54.5 47t-85.5 17q-41 0 -72.5 -20t-53.5 -57.5t-33 -91t-11 -120.5h43q0 50 9 89t23.5 66t31.5 41.5t32 14.5q13 0 25 -6
t21 -25t14.5 -53.5t5.5 -91.5v-770h164v430q0 157 19.5 257.5t52 158t74 79t85.5 21.5q36 0 61 -16t40.5 -43t22.5 -62t7 -73v-1141h164zM553 -319h-49v-13q0 -14 -6.5 -30.5t-22.5 -30t-47 -13.5q-38 0 -50 17t-12 45v242h-106v-242q0 -20 7 -39t24 -33.5t45 -23.5t69 -9
q63 0 94 19.5t43 43.5t11.5 44.5t-0.5 22.5z" />
    <glyph glyph-name="uni1FC4" unicode="&#x1fc4;" 
d="M927 -389v997q0 135 -25.5 216.5t-65.5 126t-90.5 59t-99.5 14.5q-47 0 -88 -15.5t-74.5 -45t-57 -71.5t-33.5 -95q-8 50 -19 91.5t-32 71.5t-54.5 47t-85.5 17q-41 0 -72.5 -20t-53.5 -57.5t-33 -91t-11 -120.5h43q0 50 9 89t23.5 66t31.5 41.5t32 14.5q13 0 25 -6
t21 -25t14.5 -53.5t5.5 -91.5v-770h164v430q0 157 19.5 257.5t52 158t74 79t85.5 21.5q36 0 61 -16t40.5 -43t22.5 -62t7 -73v-1141h164zM547 -319h-49v-13q0 -14 -6.5 -30.5t-22.5 -30t-47 -13.5q-38 0 -50 17t-12 45v242h-106v-242q0 -20 7 -39t24 -33.5t45 -23.5t69 -9
q63 0 94 19.5t43 43.5t11.5 44.5t-0.5 22.5zM856 1440q10 15 12 34t-4 36.5t-18.5 32t-30.5 20.5q-19 6 -36.5 2t-32.5 -14.5t-26.5 -25.5t-17.5 -32l-131 -387h49z" />
    <glyph glyph-name="uni1FC2" unicode="&#x1fc2;" 
d="M927 -389v997q0 135 -25.5 216.5t-65.5 126t-90.5 59t-99.5 14.5q-47 0 -88 -15.5t-74.5 -45t-57 -71.5t-33.5 -95q-8 50 -19 91.5t-32 71.5t-54.5 47t-85.5 17q-41 0 -72.5 -20t-53.5 -57.5t-33 -91t-11 -120.5h43q0 50 9 89t23.5 66t31.5 41.5t32 14.5q13 0 25 -6
t21 -25t14.5 -53.5t5.5 -91.5v-770h164v430q0 157 19.5 257.5t52 158t74 79t85.5 21.5q36 0 61 -16t40.5 -43t22.5 -62t7 -73v-1141h164zM555 -319h-49v-13q0 -14 -6.5 -30.5t-22.5 -30t-47 -13.5q-38 0 -50 17t-12 45v242h-106v-242q0 -20 7 -39t24 -33.5t45 -23.5t69 -9
q63 0 94 19.5t43 43.5t11.5 44.5t-0.5 22.5zM727 1106l-107 373q-5 18 -16 36t-26.5 31.5t-34 19.5t-38.5 -1q-17 -6 -29 -21t-18 -33t-5 -37t11 -34l213 -334h50z" />
    <glyph glyph-name="uni1FC7" unicode="&#x1fc7;" 
d="M927 -389v997q0 135 -25.5 216.5t-65.5 126t-90.5 59t-99.5 14.5q-47 0 -88 -15.5t-74.5 -45t-57 -71.5t-33.5 -95q-8 50 -19 91.5t-32 71.5t-54.5 47t-85.5 17q-41 0 -72.5 -20t-53.5 -57.5t-33 -91t-11 -120.5h43q0 50 9 89t23.5 66t31.5 41.5t32 14.5q13 0 25 -6
t21 -25t14.5 -53.5t5.5 -91.5v-770h164v430q0 157 19.5 257.5t52 158t74 79t85.5 21.5q36 0 61 -16t40.5 -43t22.5 -62t7 -73v-1141h164zM553 -319h-49v-13q0 -14 -6.5 -30.5t-22.5 -30t-47 -13.5q-38 0 -50 17t-12 45v242h-106v-242q0 -20 7 -39t24 -33.5t45 -23.5t69 -9
q63 0 94 19.5t43 43.5t11.5 44.5t-0.5 22.5zM887 1118q-3 59 -21.5 123t-57 117t-99 87t-146.5 34q-54 0 -97.5 -16.5t-77 -44t-57.5 -64t-40 -76.5t-24.5 -81t-10.5 -79h56q4 48 23 91.5t50.5 76.5t76 52.5t101.5 19.5q61 0 107.5 -20.5t79.5 -54t51.5 -77t22.5 -88.5h63z
" />
    <glyph glyph-name="uni1F91" unicode="&#x1f91;" 
d="M927 -389v997q0 135 -25.5 216.5t-65.5 126t-90.5 59t-99.5 14.5q-47 0 -88 -15.5t-74.5 -45t-57 -71.5t-33.5 -95q-8 50 -19 91.5t-32 71.5t-54.5 47t-85.5 17q-41 0 -72.5 -20t-53.5 -57.5t-33 -91t-11 -120.5h43q0 50 9 89t23.5 66t31.5 41.5t32 14.5q13 0 25 -6
t21 -25t14.5 -53.5t5.5 -91.5v-770h164v430q0 157 19.5 257.5t52 158t74 79t85.5 21.5q36 0 61 -16t40.5 -43t22.5 -62t7 -73v-1141h164zM553 -319h-49v-13q0 -14 -6.5 -30.5t-22.5 -30t-47 -13.5q-38 0 -50 17t-12 45v242h-106v-242q0 -20 7 -39t24 -33.5t45 -23.5t69 -9
q63 0 94 19.5t43 43.5t11.5 44.5t-0.5 22.5zM770 1487q0 20 -7.5 40.5t-23.5 37t-39.5 27t-54.5 10.5q-44 0 -75.5 -21.5t-52 -53.5t-30.5 -70.5t-10 -72.5q0 -69 23 -120.5t60 -86.5t82 -54t89 -23l6 41q-29 3 -62.5 16.5t-62 40t-48 68.5t-19.5 102q0 7 2 17t6.5 19.5
t11.5 16t17 6.5q8 0 16.5 -4.5t18.5 -9.5t22.5 -9.5t28.5 -4.5q18 0 36.5 6.5t33 18t23.5 27.5t9 36z" />
    <glyph glyph-name="uni1F95" unicode="&#x1f95;" 
d="M927 -389v997q0 135 -25.5 216.5t-65.5 126t-90.5 59t-99.5 14.5q-47 0 -88 -15.5t-74.5 -45t-57 -71.5t-33.5 -95q-8 50 -19 91.5t-32 71.5t-54.5 47t-85.5 17q-41 0 -72.5 -20t-53.5 -57.5t-33 -91t-11 -120.5h43q0 50 9 89t23.5 66t31.5 41.5t32 14.5q13 0 25 -6
t21 -25t14.5 -53.5t5.5 -91.5v-770h164v430q0 157 19.5 257.5t52 158t74 79t85.5 21.5q36 0 61 -16t40.5 -43t22.5 -62t7 -73v-1141h164zM553 -319h-49v-13q0 -14 -6.5 -30.5t-22.5 -30t-47 -13.5q-38 0 -50 17t-12 45v242h-106v-242q0 -20 7 -39t24 -33.5t45 -23.5t69 -9
q63 0 94 19.5t43 43.5t11.5 44.5t-0.5 22.5zM932 1438q9 15 10.5 34t-3.5 37t-16.5 32t-29.5 20q-19 6 -38 0t-35 -18.5t-28 -30t-16 -35.5l-96 -375h47zM565 1489q0 20 -6 38.5t-19 33t-34 23.5t-52 9q-44 0 -76 -20t-52.5 -50.5t-30 -67.5t-9.5 -71q0 -69 23 -120.5
t59.5 -86t81 -53t88.5 -22.5l6 41q-27 3 -60.5 16.5t-63 40t-49 68.5t-19.5 102q0 7 2.5 17.5t7 20t12 16t17.5 6.5q9 0 16 -4.5t15 -10t18.5 -10t26.5 -4.5q19 0 37 6.5t31.5 18t21.5 27.5t8 36z" />
    <glyph glyph-name="uni1F93" unicode="&#x1f93;" 
d="M927 -389v997q0 135 -25.5 216.5t-65.5 126t-90.5 59t-99.5 14.5q-47 0 -88 -15.5t-74.5 -45t-57 -71.5t-33.5 -95q-8 50 -19 91.5t-32 71.5t-54.5 47t-85.5 17q-41 0 -72.5 -20t-53.5 -57.5t-33 -91t-11 -120.5h43q0 50 9 89t23.5 66t31.5 41.5t32 14.5q13 0 25 -6
t21 -25t14.5 -53.5t5.5 -91.5v-770h164v430q0 157 19.5 257.5t52 158t74 79t85.5 21.5q36 0 61 -16t40.5 -43t22.5 -62t7 -73v-1141h164zM553 -319h-49v-13q0 -14 -6.5 -30.5t-22.5 -30t-47 -13.5q-38 0 -50 17t-12 45v242h-106v-242q0 -20 7 -39t24 -33.5t45 -23.5t69 -9
q63 0 94 19.5t43 43.5t11.5 44.5t-0.5 22.5zM899 1102l-90 375q-5 18 -16.5 35.5t-27.5 30t-34.5 18.5t-36.5 0t-29.5 -20t-16.5 -32t-3.5 -37t10.5 -34l197 -336h47zM502 1489q0 20 -6 38.5t-19 33t-34 23.5t-52 9q-44 0 -75.5 -20t-52 -50.5t-30.5 -67.5t-10 -71
q0 -69 23 -120.5t59.5 -86t81.5 -53t90 -22.5l4 41q-27 3 -60.5 16.5t-63 40t-49 68.5t-19.5 102q0 7 2.5 17.5t7 20t12 16t17.5 6.5q9 0 16 -4.5t15 -10t18.5 -10t26.5 -4.5q19 0 37 6.5t31.5 18t21.5 27.5t8 36z" />
    <glyph glyph-name="uni1F97" unicode="&#x1f97;" 
d="M927 -389v997q0 135 -25.5 216.5t-65.5 126t-90.5 59t-99.5 14.5q-47 0 -88 -15.5t-74.5 -45t-57 -71.5t-33.5 -95q-8 50 -19 91.5t-32 71.5t-54.5 47t-85.5 17q-41 0 -72.5 -20t-53.5 -57.5t-33 -91t-11 -120.5h43q0 50 9 89t23.5 66t31.5 41.5t32 14.5q13 0 25 -6
t21 -25t14.5 -53.5t5.5 -91.5v-770h164v430q0 157 19.5 257.5t52 158t74 79t85.5 21.5q36 0 61 -16t40.5 -43t22.5 -62t7 -73v-1141h164zM551 -319h-49v-13q0 -14 -6.5 -30.5t-22.5 -30t-47 -13.5q-38 0 -50 17t-12 45v242h-106v-242q0 -20 7 -39t24 -33.5t45 -23.5t69 -9
q63 0 94 19.5t43 43.5t11.5 44.5t-0.5 22.5zM906 1397q0 67 -25.5 131.5t-71.5 115t-109.5 81t-138.5 30.5q-74 0 -134 -30.5t-102.5 -81t-65.5 -115t-23 -131.5h55q0 57 22.5 105t60 82.5t86.5 53.5t101 19q53 0 103.5 -19t89.5 -53t62.5 -82t23.5 -106h66zM674 1430
q0 20 -6 38.5t-19 33t-34 23.5t-52 9q-44 0 -75.5 -19.5t-51.5 -50.5t-30 -68t-10 -71q0 -68 23 -113t60 -72.5t82 -40.5t89 -18l4 45q-29 3 -62.5 10t-62.5 26t-48.5 54t-19.5 95q0 7 2 17t6.5 19.5t11.5 16t17 6.5q9 0 16.5 -4.5t15.5 -10t19 -10t27 -4.5q18 0 36 6.5
t31.5 18t22 28t8.5 36.5z" />
    <glyph glyph-name="uni1F90" unicode="&#x1f90;" 
d="M927 -389v997q0 135 -25.5 216.5t-65.5 126t-90.5 59t-99.5 14.5q-47 0 -88 -15.5t-74.5 -45t-57 -71.5t-33.5 -95q-8 50 -19 91.5t-32 71.5t-54.5 47t-85.5 17q-41 0 -72.5 -20t-53.5 -57.5t-33 -91t-11 -120.5h43q0 50 9 89t23.5 66t31.5 41.5t32 14.5q13 0 25 -6
t21 -25t14.5 -53.5t5.5 -91.5v-770h164v430q0 157 19.5 257.5t52 158t74 79t85.5 21.5q36 0 61 -16t40.5 -43t22.5 -62t7 -73v-1141h164zM553 -319h-49v-13q0 -14 -6.5 -30.5t-22.5 -30t-47 -13.5q-38 0 -50 17t-12 45v242h-106v-242q0 -20 7 -39t24 -33.5t45 -23.5t69 -9
q63 0 94 19.5t43 43.5t11.5 44.5t-0.5 22.5zM836 1382q0 35 -10 74t-30.5 72t-52 54.5t-75.5 21.5q-31 0 -54.5 -11t-39 -28t-23.5 -37.5t-8 -40.5t9 -36t24 -27.5t33.5 -18t38.5 -6.5q16 0 28 4.5t21.5 9.5t18.5 9.5t18 4.5q10 0 16.5 -6.5t10.5 -16t5.5 -19.5t1.5 -17
q0 -60 -19 -102t-47.5 -68.5t-61 -40t-60.5 -16.5l4 -41q44 4 89 23t81 53.5t59 86t23 119.5z" />
    <glyph glyph-name="uni1F94" unicode="&#x1f94;" 
d="M927 -389v997q0 135 -25.5 216.5t-65.5 126t-90.5 59t-99.5 14.5q-47 0 -88 -15.5t-74.5 -45t-57 -71.5t-33.5 -95q-8 50 -19 91.5t-32 71.5t-54.5 47t-85.5 17q-41 0 -72.5 -20t-53.5 -57.5t-33 -91t-11 -120.5h43q0 50 9 89t23.5 66t31.5 41.5t32 14.5q13 0 25 -6
t21 -25t14.5 -53.5t5.5 -91.5v-770h164v430q0 157 19.5 257.5t52 158t74 79t85.5 21.5q36 0 61 -16t40.5 -43t22.5 -62t7 -73v-1141h164zM553 -319h-49v-13q0 -14 -6.5 -30.5t-22.5 -30t-47 -13.5q-38 0 -50 17t-12 45v242h-106v-242q0 -20 7 -39t24 -33.5t45 -23.5t69 -9
q63 0 94 19.5t43 43.5t11.5 44.5t-0.5 22.5zM948 1438q9 15 11 34t-3 37t-17 32t-30 20t-36.5 0t-34.5 -18.5t-27.5 -30t-15.5 -35.5l-99 -375h48zM602 1384q0 34 -9.5 71t-29.5 67.5t-51.5 50.5t-75.5 20q-32 0 -53 -9t-34.5 -23.5t-19 -33t-5.5 -38.5t8.5 -36t22 -27.5
t31.5 -18t36 -6.5q16 0 27 4.5t19.5 10t15.5 10t16 4.5q10 0 17 -6.5t11.5 -16t6.5 -20t2 -17.5q0 -60 -19.5 -102t-48.5 -68.5t-63 -40t-62 -16.5l6 -41q44 4 89 22.5t81 53t59 86t23 120.5z" />
    <glyph glyph-name="uni1F92" unicode="&#x1f92;" 
d="M927 -389v997q0 135 -25.5 216.5t-65.5 126t-90.5 59t-99.5 14.5q-47 0 -88 -15.5t-74.5 -45t-57 -71.5t-33.5 -95q-8 50 -19 91.5t-32 71.5t-54.5 47t-85.5 17q-41 0 -72.5 -20t-53.5 -57.5t-33 -91t-11 -120.5h43q0 50 9 89t23.5 66t31.5 41.5t32 14.5q13 0 25 -6
t21 -25t14.5 -53.5t5.5 -91.5v-770h164v430q0 157 19.5 257.5t52 158t74 79t85.5 21.5q36 0 61 -16t40.5 -43t22.5 -62t7 -73v-1141h164zM553 -319h-49v-13q0 -14 -6.5 -30.5t-22.5 -30t-47 -13.5q-38 0 -50 17t-12 45v242h-106v-242q0 -20 7 -39t24 -33.5t45 -23.5t69 -9
q63 0 94 19.5t43 43.5t11.5 44.5t-0.5 22.5zM942 1102l-90 375q-5 18 -16.5 35.5t-27.5 30t-34 18.5t-36 0q-19 -6 -31 -20t-17 -32t-2.5 -37t11.5 -34l196 -336h47zM545 1384q0 34 -9.5 71t-29.5 67.5t-51.5 50.5t-75.5 20q-31 0 -52 -9t-34.5 -23.5t-19.5 -33t-6 -38.5
t8.5 -36t22.5 -27.5t32 -18t37 -6.5q15 0 26 4.5t19 10t16 10t17 4.5q10 0 16.5 -6.5t10.5 -16t6 -20t2 -17.5q0 -60 -19.5 -102t-48.5 -68.5t-62 -40t-61 -16.5l4 -41q44 4 89 22.5t81 53t59 86t23 120.5z" />
    <glyph glyph-name="uni1F96" unicode="&#x1f96;" 
d="M927 -389v997q0 135 -25.5 216.5t-65.5 126t-90.5 59t-99.5 14.5q-47 0 -88 -15.5t-74.5 -45t-57 -71.5t-33.5 -95q-8 50 -19 91.5t-32 71.5t-54.5 47t-85.5 17q-41 0 -72.5 -20t-53.5 -57.5t-33 -91t-11 -120.5h43q0 50 9 89t23.5 66t31.5 41.5t32 14.5q13 0 25 -6
t21 -25t14.5 -53.5t5.5 -91.5v-770h164v430q0 157 19.5 257.5t52 158t74 79t85.5 21.5q36 0 61 -16t40.5 -43t22.5 -62t7 -73v-1141h164zM555 -319h-49v-13q0 -14 -6.5 -30.5t-22.5 -30t-47 -13.5q-38 0 -50 17t-12 45v242h-106v-242q0 -20 7 -39t24 -33.5t45 -23.5t69 -9
q63 0 94 19.5t43 43.5t11.5 44.5t-0.5 22.5zM906 1397q0 67 -25.5 131.5t-71.5 115t-109.5 81t-138.5 30.5q-74 0 -134 -30.5t-102.5 -81t-65.5 -115t-23 -131.5h55q0 57 22.5 105t60 82.5t86.5 53.5t101 19q53 0 103.5 -19t89.5 -53t62.5 -82t23.5 -106h66zM725 1325
q0 34 -9.5 71t-29.5 68t-51.5 50.5t-75.5 19.5q-32 0 -53 -9t-34.5 -23.5t-19 -33t-5.5 -38.5t8.5 -36.5t22.5 -28t32 -18t37 -6.5q16 0 26.5 4.5t19 10t16 10t16.5 4.5q10 0 17 -6.5t11.5 -16t6.5 -19.5t2 -17q0 -60 -20 -95t-49 -54t-62.5 -26t-61.5 -10l4 -45q44 5 89 18
t81 40.5t59 72.5t23 113z" />
    <glyph glyph-name="uni1F79" unicode="&#x1f79;" horiz-adv-x="1122" 
d="M1009 498q0 108 -35.5 203.5t-99 167.5t-151 113.5t-191.5 41.5q-106 0 -195 -42.5t-153 -114t-100 -165t-36 -196.5q0 -105 36 -201t100 -169.5t152 -117t192 -43.5q102 0 190 43.5t152.5 116t101.5 167t37 196.5zM843 459q0 -81 -16.5 -159t-51.5 -138.5t-89.5 -97.5
t-129.5 -37q-59 0 -106.5 22.5t-85 61.5t-64.5 91t-45 111.5t-26.5 123.5t-8.5 126q0 73 13.5 146t46.5 131t88 94.5t137 36.5q84 0 147 -46.5t105.5 -120t64 -164.5t21.5 -181zM750 1440q10 15 12 34t-4 36.5t-18.5 32t-30.5 20.5q-19 6 -36.5 2t-32.5 -14.5t-26.5 -25.5
t-17.5 -32l-131 -387h49z" />
    <glyph glyph-name="uni1F78" unicode="&#x1f78;" horiz-adv-x="1122" 
d="M1009 498q0 108 -35.5 203.5t-99 167.5t-151 113.5t-191.5 41.5q-106 0 -195 -42.5t-153 -114t-100 -165t-36 -196.5q0 -105 36 -201t100 -169.5t152 -117t192 -43.5q102 0 190 43.5t152.5 116t101.5 167t37 196.5zM843 459q0 -81 -16.5 -159t-51.5 -138.5t-89.5 -97.5
t-129.5 -37q-59 0 -106.5 22.5t-85 61.5t-64.5 91t-45 111.5t-26.5 123.5t-8.5 126q0 73 13.5 146t46.5 131t88 94.5t137 36.5q84 0 147 -46.5t105.5 -120t64 -164.5t21.5 -181zM629 1106l-107 373q-5 18 -16 36t-26.5 31.5t-34 19.5t-38.5 -1q-17 -6 -29 -21t-18 -33
t-5 -37t11 -34l213 -334h50z" />
    <glyph glyph-name="uni1F41" unicode="&#x1f41;" horiz-adv-x="1122" 
d="M1009 498q0 108 -35.5 203.5t-99 167.5t-151 113.5t-191.5 41.5q-106 0 -195 -42.5t-153 -114t-100 -165t-36 -196.5q0 -105 36 -201t100 -169.5t152 -117t192 -43.5q102 0 190 43.5t152.5 116t101.5 167t37 196.5zM843 459q0 -81 -16.5 -159t-51.5 -138.5t-89.5 -97.5
t-129.5 -37q-59 0 -106.5 22.5t-85 61.5t-64.5 91t-45 111.5t-26.5 123.5t-8.5 126q0 73 13.5 146t46.5 131t88 94.5t137 36.5q84 0 147 -46.5t105.5 -120t64 -164.5t21.5 -181zM647 1487q0 20 -7.5 40.5t-23.5 37t-39.5 27t-54.5 10.5q-44 0 -75.5 -21.5t-52 -53.5
t-30.5 -70.5t-10 -72.5q0 -69 23 -120.5t60 -86.5t82 -54t89 -23l6 41q-29 3 -62.5 16.5t-62 40t-48 68.5t-19.5 102q0 7 2 17t6.5 19.5t11.5 16t17 6.5q8 0 16.5 -4.5t18.5 -9.5t22.5 -9.5t28.5 -4.5q18 0 36.5 6.5t33 18t23.5 27.5t9 36z" />
    <glyph glyph-name="uni1F45" unicode="&#x1f45;" horiz-adv-x="1122" 
d="M1009 498q0 108 -35.5 203.5t-99 167.5t-151 113.5t-191.5 41.5q-106 0 -195 -42.5t-153 -114t-100 -165t-36 -196.5q0 -105 36 -201t100 -169.5t152 -117t192 -43.5q102 0 190 43.5t152.5 116t101.5 167t37 196.5zM843 459q0 -81 -16.5 -159t-51.5 -138.5t-89.5 -97.5
t-129.5 -37q-59 0 -106.5 22.5t-85 61.5t-64.5 91t-45 111.5t-26.5 123.5t-8.5 126q0 73 13.5 146t46.5 131t88 94.5t137 36.5q84 0 147 -46.5t105.5 -120t64 -164.5t21.5 -181zM828 1438q9 15 10.5 34t-3.5 37t-16.5 32t-29.5 20q-19 6 -38 0t-35 -18.5t-28 -30t-16 -35.5
l-96 -375h47zM461 1489q0 20 -6 38.5t-19 33t-34 23.5t-52 9q-44 0 -76 -20t-52.5 -50.5t-30 -67.5t-9.5 -71q0 -69 23 -120.5t59.5 -86t81 -53t88.5 -22.5l6 41q-27 3 -60.5 16.5t-63 40t-49 68.5t-19.5 102q0 7 2.5 17.5t7 20t12 16t17.5 6.5q9 0 16 -4.5t15 -10t18.5 -10
t26.5 -4.5q19 0 37 6.5t31.5 18t21.5 27.5t8 36z" />
    <glyph glyph-name="uni1F43" unicode="&#x1f43;" horiz-adv-x="1122" 
d="M1009 498q0 108 -35.5 203.5t-99 167.5t-151 113.5t-191.5 41.5q-106 0 -195 -42.5t-153 -114t-100 -165t-36 -196.5q0 -105 36 -201t100 -169.5t152 -117t192 -43.5q102 0 190 43.5t152.5 116t101.5 167t37 196.5zM843 459q0 -81 -16.5 -159t-51.5 -138.5t-89.5 -97.5
t-129.5 -37q-59 0 -106.5 22.5t-85 61.5t-64.5 91t-45 111.5t-26.5 123.5t-8.5 126q0 73 13.5 146t46.5 131t88 94.5t137 36.5q84 0 147 -46.5t105.5 -120t64 -164.5t21.5 -181zM829 1102l-90 375q-5 18 -16.5 35.5t-27.5 30t-34.5 18.5t-36.5 0t-29.5 -20t-16.5 -32
t-3.5 -37t10.5 -34l197 -336h47zM432 1489q0 20 -6 38.5t-19 33t-34 23.5t-52 9q-44 0 -75.5 -20t-52 -50.5t-30.5 -67.5t-10 -71q0 -69 23 -120.5t59.5 -86t81.5 -53t90 -22.5l4 41q-27 3 -60.5 16.5t-63 40t-49 68.5t-19.5 102q0 7 2.5 17.5t7 20t12 16t17.5 6.5
q9 0 16 -4.5t15 -10t18.5 -10t26.5 -4.5q19 0 37 6.5t31.5 18t21.5 27.5t8 36z" />
    <glyph glyph-name="uni1F40" unicode="&#x1f40;" horiz-adv-x="1122" 
d="M1009 498q0 108 -35.5 203.5t-99 167.5t-151 113.5t-191.5 41.5q-106 0 -195 -42.5t-153 -114t-100 -165t-36 -196.5q0 -105 36 -201t100 -169.5t152 -117t192 -43.5q102 0 190 43.5t152.5 116t101.5 167t37 196.5zM843 459q0 -81 -16.5 -159t-51.5 -138.5t-89.5 -97.5
t-129.5 -37q-59 0 -106.5 22.5t-85 61.5t-64.5 91t-45 111.5t-26.5 123.5t-8.5 126q0 73 13.5 146t46.5 131t88 94.5t137 36.5q84 0 147 -46.5t105.5 -120t64 -164.5t21.5 -181zM686 1382q0 35 -10 74t-30.5 72t-52 54.5t-75.5 21.5q-31 0 -54.5 -11t-39 -28t-23.5 -37.5
t-8 -40.5t9 -36t24 -27.5t33.5 -18t38.5 -6.5q16 0 28 4.5t21.5 9.5t18.5 9.5t18 4.5q10 0 16.5 -6.5t10.5 -16t5.5 -19.5t1.5 -17q0 -60 -19 -102t-47.5 -68.5t-61 -40t-60.5 -16.5l4 -41q44 4 89 23t81 53.5t59 86t23 119.5z" />
    <glyph glyph-name="uni1F44" unicode="&#x1f44;" horiz-adv-x="1122" 
d="M1009 498q0 108 -35.5 203.5t-99 167.5t-151 113.5t-191.5 41.5q-106 0 -195 -42.5t-153 -114t-100 -165t-36 -196.5q0 -105 36 -201t100 -169.5t152 -117t192 -43.5q102 0 190 43.5t152.5 116t101.5 167t37 196.5zM843 459q0 -81 -16.5 -159t-51.5 -138.5t-89.5 -97.5
t-129.5 -37q-59 0 -106.5 22.5t-85 61.5t-64.5 91t-45 111.5t-26.5 123.5t-8.5 126q0 73 13.5 146t46.5 131t88 94.5t137 36.5q84 0 147 -46.5t105.5 -120t64 -164.5t21.5 -181zM882 1438q9 15 11 34t-3 37t-17 32t-30 20t-36.5 0t-34.5 -18.5t-27.5 -30t-15.5 -35.5
l-99 -375h48zM536 1384q0 34 -9.5 71t-29.5 67.5t-51.5 50.5t-75.5 20q-32 0 -53 -9t-34.5 -23.5t-19 -33t-5.5 -38.5t8.5 -36t22 -27.5t31.5 -18t36 -6.5q16 0 27 4.5t19.5 10t15.5 10t16 4.5q10 0 17 -6.5t11.5 -16t6.5 -20t2 -17.5q0 -60 -19.5 -102t-48.5 -68.5t-63 -40
t-62 -16.5l6 -41q44 4 89 22.5t81 53t59 86t23 120.5z" />
    <glyph glyph-name="uni1F42" unicode="&#x1f42;" horiz-adv-x="1122" 
d="M1009 498q0 108 -35.5 203.5t-99 167.5t-151 113.5t-191.5 41.5q-106 0 -195 -42.5t-153 -114t-100 -165t-36 -196.5q0 -105 36 -201t100 -169.5t152 -117t192 -43.5q102 0 190 43.5t152.5 116t101.5 167t37 196.5zM843 459q0 -81 -16.5 -159t-51.5 -138.5t-89.5 -97.5
t-129.5 -37q-59 0 -106.5 22.5t-85 61.5t-64.5 91t-45 111.5t-26.5 123.5t-8.5 126q0 73 13.5 146t46.5 131t88 94.5t137 36.5q84 0 147 -46.5t105.5 -120t64 -164.5t21.5 -181zM862 1102l-90 375q-5 18 -16.5 35.5t-27.5 30t-34 18.5t-36 0q-19 -6 -31 -20t-17 -32
t-2.5 -37t11.5 -34l196 -336h47zM465 1384q0 34 -9.5 71t-29.5 67.5t-51.5 50.5t-75.5 20q-31 0 -52 -9t-34.5 -23.5t-19.5 -33t-6 -38.5t8.5 -36t22.5 -27.5t32 -18t37 -6.5q15 0 26 4.5t19 10t16 10t17 4.5q10 0 16.5 -6.5t10.5 -16t6 -20t2 -17.5q0 -60 -19.5 -102
t-48.5 -68.5t-62 -40t-61 -16.5l4 -41q44 4 89 22.5t81 53t59 86t23 120.5z" />
    <glyph glyph-name="SIL_modifier_glyph" horiz-adv-x="584" 
d="M500 971l-19 405h-43l-153 -221l-133 221h-48l-20 -405l59 -2l15 288l125 -208l143 215l14 -295zM498 700q0 45 -15.5 85t-43 70t-64.5 47.5t-80 17.5t-80.5 -17.5t-65 -47.5t-43.5 -70t-16 -85q0 -44 16 -83.5t43.5 -69t65 -47t80.5 -17.5t80 17.5t64.5 47t43 69
t15.5 83.5zM492 213q0 45 -10.5 84t-41.5 67t-86.5 44t-146.5 16h-72v-424h72q87 0 142.5 15t87 42.5t43.5 67t12 88.5zM438 700q0 -34 -11.5 -63t-31 -50.5t-45.5 -33.5t-55 -12t-55.5 12t-46.5 33.5t-31.5 50.5t-11.5 63t11.5 63.5t31.5 51t46.5 33.5t55.5 12t55 -12
t45.5 -33.5t31 -51t11.5 -63.5zM432 213q0 -48 -14 -78.5t-42.5 -47t-73 -22.5t-105.5 -6v306q60 0 104 -6.5t73 -23.5t43.5 -46.5t14.5 -75.5z" />
    <glyph glyph-name="uni1F7D" unicode="&#x1f7d;" horiz-adv-x="1468" 
d="M1379 483q0 126 -35 220t-91.5 160t-126.5 106.5t-140 58.5l-10 -41q57 -25 98.5 -79.5t68 -121.5t39.5 -138.5t13 -131.5q0 -132 -17.5 -225t-47.5 -151.5t-69.5 -85.5t-84.5 -27q-35 0 -65 16.5t-54.5 43.5t-43.5 61t-32 68t-19.5 66t-6.5 54q0 34 8.5 76t18 87
t18 89.5t8.5 83.5q0 77 -26 114t-68 37t-67 -37t-25 -114q0 -39 8.5 -83.5t19 -89.5t19 -87t8.5 -76q0 -23 -7 -54.5t-20 -65.5t-32.5 -68t-44 -61t-54.5 -43.5t-65 -16.5q-45 0 -85 27t-69 85.5t-46 151.5t-17 225q0 62 11 131t36 133t66 118.5t102 88.5l-10 41
q-69 -24 -138.5 -64t-125 -104.5t-90.5 -157t-35 -219.5q0 -110 29.5 -203t79.5 -161t116 -106t139 -38q58 0 104.5 18t82.5 49t62 73t44 90h10q18 -48 44 -90t62.5 -73t83 -49t105.5 -18q73 0 139 38t116 106t79.5 161t29.5 203zM926 1440q10 15 12 34t-4 36.5t-18.5 32
t-30.5 20.5q-19 6 -36.5 2t-32.5 -14.5t-26.5 -25.5t-17.5 -32l-131 -387h49z" />
    </font>
</defs>
</svg>
