<?xml version="1.0" standalone="no"?>
<!DOCTYPE svg PUBLIC "-//W3C//DTD SVG 1.1//EN" "http://www.w3.org/Graphics/SVG/1.1/DTD/svg11.dtd">
<svg xmlns="http://www.w3.org/2000/svg" xmlns:xlink="http://www.w3.org/1999/xlink" version="1.1">
    <metadata>
        Created by FontForge 20201107 at Fri Jun 19 00:57:42 2020
        By fANhAN iNSiDE
        Copyright (c) 2007-2008, The C&#38;MA Guinea Fulbe Team;

        Copyright renewed 2011-2012, George W. Nuss (http://www.fulbefouta.com),
        with the Reserved Font Name "Fouta".

        Copyright (c) 2004-2020, SIL International (http://www.sil.org),
        with Reserved Font Names 'Andika' and 'SIL'.

        Copyright (c) 2014-2020, SIL International (http://www.sil.org/).
        with Reserved Font Names "Harmattan" and "SIL".
    </metadata>
    <defs>
        <font id="Harmattan-Regular" horiz-adv-x="0">
            <font-face font-family="Harmattan" font-weight="400" font-stretch="normal" units-per-em="2048" panose-1="1 0 5 3 0 0 0 2 0 3" ascent="1638" descent="-410" x-height="765" cap-height="1095" bbox="-746 -1308 15691 2133.03" underline-thickness="100" underline-position="-200" unicode-range="U+0020-FFFD" />
            <missing-glyph horiz-adv-x="1690" d="M223 -418v1672h1244v-1672h-1244zM917 -219q-167 0 -277.5 60.5t-165 157t-54.5 202.5q0 121 62 224t180 166t285 63q54 0 106 -7q-53 53 -102.5 104t-102 84.5t-117.5 33.5q-34 0 -74 -14.5t-111 -56.5q-21 14 -31 23.5t-18 16.5q75 93 140.5 133.5t135.5 40.5
q68 0 127 -37t116.5 -99t122 -138t144.5 -153q-11 -24 -36.5 -52t-45.5 -39q-115 34 -241 34q-110 0 -204.5 -32.5t-152 -101.5t-57.5 -178q0 -84 47 -153.5t130.5 -111t194.5 -41.5q21 0 65 2.5t71 7.5q-6 -37 -23.5 -73t-34.5 -56q-13 -4 -31.5 -7t-47.5 -3zM274 -367
h1142v1570h-1142v-1570z" />
            <glyph glyph-name="uni0623" unicode="&#x627;&#x654;" horiz-adv-x="329" d="M99 -63q1 32 1.5 71.5t0.5 83.5q0 102 -2 221.5t-5 237.5t-6.5 217.5t-5.5 163.5t-2 73q12 24 42.5 41.5t65 28.5t56.5 14q2 -12 3 -36.5t1.5 -47.5t0.5 -29q0 -50 -0.5 -143.5t-2 -210.5t-3.5 -236.5t-5 -221.5t-6 -166q-20 -26 -58 -41t-75 -20zM31 1111
q-19 11 -32.5 33t-17.5 37q29 8 69 15.5t86 14.5q-69 29 -100 59t-31 76q0 44 41.5 86t117.5 42q47 0 85.5 -18t72.5 -47q-4 -19 -20 -35t-30 -24q-32 23 -61.5 33t-51.5 10t-42 -11t-20 -38q0 -22 39.5 -47.5t166.5 -65.5q0 -14 -9 -35.5t-21 -34.5q-94 -7 -156.5 -24.5
t-85.5 -25.5z" />
            <glyph glyph-name="uni0625" unicode="&#x627;&#x655;" horiz-adv-x="329" d="M99 -63q1 32 1.5 71.5t0.5 83.5q0 102 -2 221.5t-5 237.5t-6.5 217.5t-5.5 163.5t-2 73q12 24 42.5 41.5t65 28.5t56.5 14q2 -12 3 -36.5t1.5 -47.5t0.5 -29q0 -50 -0.5 -143.5t-2 -210.5t-3.5 -236.5t-5 -221.5t-6 -166q-20 -26 -58 -41t-75 -20zM36 -470
q-19 11 -32.5 33t-17.5 37q29 8 69 15.5t86 14.5q-69 29 -100 59t-31 76q0 44 41.5 86t117.5 42q47 0 85.5 -18t72.5 -47q-4 -19 -20 -35t-30 -24q-32 23 -61.5 33t-51.5 10t-42 -11t-20 -38q0 -22 39.5 -47.5t166.5 -65.5q0 -14 -9 -35.5t-21 -34.5q-94 -7 -156.5 -24.5
t-85.5 -25.5z" />
            <glyph glyph-name="uni0627064E" unicode="&#x627;&#x64e;" horiz-adv-x="329" d="M99 -63q1 32 1.5 71.5t0.5 83.5q0 102 -2 221.5t-5 237.5t-6.5 217.5t-5.5 163.5t-2 73q12 24 42.5 41.5t65 28.5t56.5 14q2 -12 3 -36.5t1.5 -47.5t0.5 -29q0 -50 -0.5 -143.5t-2 -210.5t-3.5 -236.5t-5 -221.5t-6 -166q-20 -26 -58 -41t-75 -20zM-37 1136q0 22 4.5 52
t8.5 40q59 4 112 9t114 14.5t145 25.5q0 -22 -6.5 -44t-11.5 -34q-97 -22 -159 -34t-108.5 -18t-98.5 -11z" />
            <glyph glyph-name="uni06270650" unicode="&#x627;&#x650;" horiz-adv-x="329" d="M99 -63q1 32 1.5 71.5t0.5 83.5q0 102 -2 221.5t-5 237.5t-6.5 217.5t-5.5 163.5t-2 73q12 24 42.5 41.5t65 28.5t56.5 14q2 -12 3 -36.5t1.5 -47.5t0.5 -29q0 -50 -0.5 -143.5t-2 -210.5t-3.5 -236.5t-5 -221.5t-6 -166q-20 -26 -58 -41t-75 -20zM-27 -249q0 22 4.5 52
t8.5 40q59 4 112 9t114 14.5t145 25.5q0 -22 -6.5 -44t-11.5 -34q-97 -22 -159 -34t-108.5 -18t-98.5 -11z" />
            <glyph glyph-name="uni06C0" unicode="&#x6d5;&#x654;" horiz-adv-x="722" d="M355 -35q-72 0 -137.5 30t-106.5 89.5t-41 146.5q0 86 51 166t142 137l123 -67q-84 -43 -131 -103.5t-47 -123.5q0 -70 43.5 -107.5t113.5 -37.5q61 0 105.5 35t44.5 105q0 48 -25 95.5t-90 96.5t-186 100q13 26 47 54t71 37q179 -81 249.5 -183t70.5 -205
q0 -88 -44 -147t-112 -88.5t-141 -29.5zM240 686q-19 11 -32.5 33t-17.5 37q29 8 69 15.5t86 14.5q-69 29 -100 59t-31 76q0 44 41.5 86t117.5 42q47 0 85.5 -18t72.5 -47q-4 -19 -20 -35t-30 -24q-32 23 -61.5 33t-51.5 10t-42 -11t-20 -38q0 -22 39.5 -47.5t166.5 -65.5
q0 -14 -9 -35.5t-21 -34.5q-94 -7 -156.5 -24.5t-85.5 -25.5z" />
            <glyph glyph-name="uni0624" unicode="&#x648;&#x654;" horiz-adv-x="813" d="M20 -666q-25 19 -46 57t-29 76q280 64 446.5 218.5t166.5 407.5q0 80 -17.5 147t-59 108t-113.5 41q-73 0 -114 -48.5t-41 -107.5q0 -79 52 -115.5t131 -36.5q77 0 168.5 32.5t171.5 90.5q3 -17 5 -35t2 -35q0 -39 -9 -78q-79 -54 -167.5 -81.5t-171.5 -27.5
q-87 0 -159.5 30.5t-116 92t-43.5 154.5q0 74 35.5 143t104 113.5t166.5 44.5q138 0 225 -107.5t87 -328.5q0 -166 -80 -318.5t-230.5 -267.5t-363.5 -169zM301 615q-19 11 -32.5 33t-17.5 37q29 8 69 15.5t86 14.5q-69 29 -100 59t-31 76q0 44 41.5 86t117.5 42
q47 0 85.5 -18t72.5 -47q-4 -19 -20 -35t-30 -24q-32 23 -61.5 33t-51.5 10t-42 -11t-20 -38q0 -22 39.5 -47.5t166.5 -65.5q0 -14 -9 -35.5t-21 -34.5q-94 -7 -156.5 -24.5t-85.5 -25.5z" />
            <glyph glyph-name="uni0626" unicode="&#x64a;&#x654;" horiz-adv-x="1338" d="M651 -303q-194 0 -323.5 57t-193.5 151.5t-64 206.5q0 105 59.5 215t191.5 205q22 -2 36 -14t26 -32q-86 -82 -131 -170t-45 -169q0 -88 45 -160t147.5 -114.5t274.5 -42.5q149 0 245 38.5t142.5 89.5t46.5 86t-39.5 48t-97.5 21t-116 25t-97.5 57.5t-39.5 119.5
q0 74 39 140.5t101.5 118.5t137 82t144.5 30q35 0 66 -8t62 -30q-8 -68 -60 -119q-44 19 -91 19q-57 0 -116 -35t-98.5 -85.5t-39.5 -98.5q0 -44 38.5 -61.5t95.5 -26t113.5 -22.5t95 -49t38.5 -108q0 -92 -69 -176t-201 -136.5t-323 -52.5zM840 757q-19 11 -32.5 33
t-17.5 37q29 8 69 15.5t86 14.5q-69 29 -100 59t-31 76q0 44 41.5 86t117.5 42q47 0 85.5 -18t72.5 -47q-4 -19 -20 -35t-30 -24q-32 23 -61.5 33t-51.5 10t-42 -11t-20 -38q0 -22 39.5 -47.5t166.5 -65.5q0 -14 -9 -35.5t-21 -34.5q-94 -7 -156.5 -24.5t-85.5 -25.5z" />
            <glyph glyph-name="uni06510670" unicode="&#x670;&#x651;" d="M135 1179q-56 0 -82 36.5t-26 90.5q0 63 29 130q25 7 49 7q18 0 31 -3q-10 -30 -18.5 -63.5t-8.5 -60.5q0 -24 8.5 -39.5t28.5 -15.5q28 0 53 48.5t24 166.5q14 7 33 11t46 4q0 -94 13.5 -138t49.5 -44q25 0 35.5 23.5t10.5 55.5q0 67 -29 115q11 11 32 21.5t40 12.5
q39 -70 39 -150q0 -65 -32.5 -113t-100.5 -48q-31 0 -57 16.5t-37 39.5q-10 -38 -43 -70.5t-88 -32.5zM208 1542l-28 498q44 49 98 62q8 -15 12.5 -33.5t4.5 -52.5q0 -26 -1 -79t-2.5 -117t-3.5 -125t-5 -102q-7 -15 -31 -33t-44 -18z" />
            <glyph glyph-name="uni0651064B" unicode="&#x64b;&#x651;" d="M90 1493q0 22 4.5 52t8.5 40q59 4 112 9t114 14.5t145 25.5q0 -22 -6.5 -44t-11.5 -34q-97 -22 -159 -34t-108.5 -18t-98.5 -11zM75 1665q0 22 4.5 52t8.5 40q59 4 112 9t114 14.5t145 25.5q0 -22 -6.5 -44t-11.5 -34q-97 -22 -159 -34t-108.5 -18t-98.5 -11zM156 1136
q-56 0 -82 36.5t-26 90.5q0 63 29 130q25 7 49 7q18 0 31 -3q-10 -30 -18.5 -63.5t-8.5 -60.5q0 -24 8.5 -39.5t28.5 -15.5q28 0 53 48.5t24 166.5q14 7 33 11t46 4q0 -94 13.5 -138t49.5 -44q25 0 35.5 23.5t10.5 55.5q0 67 -29 115q11 11 32 21.5t40 12.5q39 -70 39 -150
q0 -65 -32.5 -113t-100.5 -48q-31 0 -57 16.5t-37 39.5q-10 -38 -43 -70.5t-88 -32.5z" />
            <glyph glyph-name="uni0651064C" unicode="&#x64c;&#x651;" d="M145 1181q-56 0 -82 36.5t-26 90.5q0 63 29 130q25 7 49 7q18 0 31 -3q-10 -30 -18.5 -63.5t-8.5 -60.5q0 -24 8.5 -39.5t28.5 -15.5q28 0 53 48.5t24 166.5q14 7 33 11t46 4q0 -94 13.5 -138t49.5 -44q25 0 35.5 23.5t10.5 55.5q0 67 -29 115q11 11 32 21.5t40 12.5
q39 -70 39 -150q0 -65 -32.5 -113t-100.5 -48q-31 0 -57 16.5t-37 39.5q-10 -38 -43 -70.5t-88 -32.5zM52 1533q-18 9 -32 21t-23 30q20 24 30.5 56t10.5 60t-11.5 47t-35.5 19q-35 0 -48 -39q-22 0 -36.5 6.5t-28.5 19.5q10 42 45.5 67t72.5 25q59 0 89.5 -38.5t30.5 -97.5
q0 -63 -32 -128l-22 32q29 8 70.5 26t83 47t69 67t27.5 85q0 34 -15.5 48t-31.5 14t-30.5 -11t-14.5 -37q0 -31 35.5 -55.5t124.5 -24.5q11 0 24 0.5t26 1.5q-6 -43 -41 -70q-115 -1 -180 35.5t-65 110.5q0 59 39 90t80 31q61 0 92.5 -37t31.5 -92q0 -100 -86.5 -181
t-248.5 -128z" />
            <glyph glyph-name="uni0651064D" unicode="&#x64d;&#x651;" d="M168 1190q0 22 4.5 52t8.5 40q59 4 112 9t114 14.5t145 25.5q0 -22 -6.5 -44t-11.5 -34q-97 -22 -159 -34t-108.5 -18t-98.5 -11zM155 1332q0 22 4.5 52t8.5 40q59 4 112 9t114 14.5t145 25.5q0 -22 -6.5 -44t-11.5 -34q-97 -22 -159 -34t-108.5 -18t-98.5 -11zM203 1475
q-56 0 -82 36.5t-26 90.5q0 63 29 130q25 7 49 7q18 0 31 -3q-10 -30 -18.5 -63.5t-8.5 -60.5q0 -24 8.5 -39.5t28.5 -15.5q28 0 53 48.5t24 166.5q14 7 33 11t46 4q0 -94 13.5 -138t49.5 -44q25 0 35.5 23.5t10.5 55.5q0 67 -29 115q11 11 32 21.5t40 12.5q39 -70 39 -150
q0 -65 -32.5 -113t-100.5 -48q-31 0 -57 16.5t-37 39.5q-10 -38 -43 -70.5t-88 -32.5z" />
            <glyph glyph-name="uni0651064E" unicode="&#x64e;&#x651;" d="M60 1493q0 22 4.5 52t8.5 40q59 4 112 9t114 14.5t145 25.5q0 -22 -6.5 -44t-11.5 -34q-97 -22 -159 -34t-108.5 -18t-98.5 -11zM126 1136q-56 0 -82 36.5t-26 90.5q0 63 29 130q25 7 49 7q18 0 31 -3q-10 -30 -18.5 -63.5t-8.5 -60.5q0 -24 8.5 -39.5t28.5 -15.5
q28 0 53 48.5t24 166.5q14 7 33 11t46 4q0 -94 13.5 -138t49.5 -44q25 0 35.5 23.5t10.5 55.5q0 67 -29 115q11 11 32 21.5t40 12.5q39 -70 39 -150q0 -65 -32.5 -113t-100.5 -48q-31 0 -57 16.5t-37 39.5q-10 -38 -43 -70.5t-88 -32.5z" />
            <glyph glyph-name="uni0651064F" unicode="&#x64f;&#x651;" d="M128 1197q-56 0 -82 36.5t-26 90.5q0 63 29 130q25 7 49 7q18 0 31 -3q-10 -30 -18.5 -63.5t-8.5 -60.5q0 -24 8.5 -39.5t28.5 -15.5q28 0 53 48.5t24 166.5q14 7 33 11t46 4q0 -94 13.5 -138t49.5 -44q25 0 35.5 23.5t10.5 55.5q0 67 -29 115q11 11 32 21.5t40 12.5
q39 -70 39 -150q0 -65 -32.5 -113t-100.5 -48q-31 0 -57 16.5t-37 39.5q-10 -38 -43 -70.5t-88 -32.5zM79 1564q-22 11 -36 33.5t-18 37.5q64 17 120.5 48t92.5 76.5t36 103.5q0 38 -18 54.5t-36 16.5t-33 -14t-15 -41q0 -42 51 -69t180 -17q-6 -48 -45 -77
q-127 -1 -198 38.5t-71 121.5q0 65 43.5 99.5t89.5 34.5q66 0 100 -41.5t34 -100.5q0 -91 -75.5 -175.5t-201.5 -128.5z" />
            <glyph glyph-name="uni06510650" unicode="&#x650;&#x651;" d="M138 1190q0 22 4.5 52t8.5 40q59 4 112 9t114 14.5t145 25.5q0 -22 -6.5 -44t-11.5 -34q-97 -22 -159 -34t-108.5 -18t-98.5 -11zM186 1333q-56 0 -82 36.5t-26 90.5q0 63 29 130q25 7 49 7q18 0 31 -3q-10 -30 -18.5 -63.5t-8.5 -60.5q0 -24 8.5 -39.5t28.5 -15.5
q28 0 53 48.5t24 166.5q14 7 33 11t46 4q0 -94 13.5 -138t49.5 -44q25 0 35.5 23.5t10.5 55.5q0 67 -29 115q11 11 32 21.5t40 12.5q39 -70 39 -150q0 -65 -32.5 -113t-100.5 -48q-31 0 -57 16.5t-37 39.5q-10 -38 -43 -70.5t-88 -32.5z" />
            <glyph glyph-name="uni0627.fina" unicode="&#x627;" horiz-adv-x="419" arabic-form="final" d="M419 -10q-122 0 -191.5 37t-99 95.5t-34.5 122.5q-4 56 -7 142.5t-5.5 184t-4.5 188.5t-3.5 157t-3.5 88q12 24 42.5 41.5t65 28.5t56.5 14q3 -18 4 -55.5t1 -57.5q0 -82 -1.5 -196.5t-3.5 -232t-2 -211.5q0 -76 11 -122.5t50.5 -67.5t125.5 -21h20v-135h-20z" />
            <glyph glyph-name="uni0672.fina" unicode="&#x672;" horiz-adv-x="419" d="M419 -10q-122 0 -191.5 37t-99 95.5t-34.5 122.5q-4 56 -7 142.5t-5.5 184t-4.5 188.5t-3.5 157t-3.5 88q12 24 42.5 41.5t65 28.5t56.5 14q3 -18 4 -55.5t1 -57.5q0 -82 -1.5 -196.5t-3.5 -232t-2 -211.5q0 -76 11 -122.5t50.5 -67.5t125.5 -21h20v-135h-20zM89 1132
q-37 0 -62 13.5t-45 26.5t-43 13q-16 0 -36.5 -11.5t-48.5 -40.5q-13 17 -17 34.5t-4 35.5q8 10 43 36t72 26q33 0 54.5 -14t44.5 -28t57 -14q33 0 76 18q-71 20 -102.5 54.5t-31.5 80.5q0 44 41.5 86t117.5 42q47 0 85.5 -18t72.5 -47q-4 -19 -20 -35t-30 -24
q-32 23 -61.5 33t-51.5 10t-42 -11t-20 -38q0 -22 39 -50t154 -43q1 -4 1 -13q0 -14 -4 -30t-14 -27q-76 -21 -129.5 -43t-95.5 -22z" />
            <glyph glyph-name="uni0673.fina" unicode="&#x673;" horiz-adv-x="419" d="M419 -10q-122 0 -191.5 37t-99 95.5t-34.5 122.5q-4 56 -7 142.5t-5.5 184t-4.5 188.5t-3.5 157t-3.5 88q12 24 42.5 41.5t65 28.5t56.5 14q3 -18 4 -55.5t1 -57.5q0 -82 -1.5 -196.5t-3.5 -232t-2 -211.5q0 -76 11 -122.5t50.5 -67.5t125.5 -21h20v-135h-20zM119 -414
q-37 0 -62 13.5t-45 26.5t-43 13q-16 0 -36.5 -11.5t-48.5 -40.5q-13 17 -17 34.5t-4 35.5q8 10 43 36t72 26q33 0 54.5 -14t44.5 -28t57 -14q33 0 76 18q-71 20 -102.5 54.5t-31.5 80.5q0 44 41.5 86t117.5 42q47 0 85.5 -18t72.5 -47q-4 -19 -20 -35t-30 -24
q-32 23 -61.5 33t-51.5 10t-42 -11t-20 -38q0 -22 39 -50t154 -43q1 -4 1 -13q0 -14 -4 -30t-14 -27q-76 -21 -129.5 -43t-95.5 -22z" />
            <glyph glyph-name="uni0622.fina" unicode="&#x622;" horiz-adv-x="419" arabic-form="final" d="M419 -10q-122 0 -191.5 37t-99 95.5t-34.5 122.5q-4 56 -7 142.5t-5.5 184t-4.5 188.5t-3.5 157t-3.5 88q12 24 42.5 41.5t65 28.5t56.5 14q3 -18 4 -55.5t1 -57.5q0 -82 -1.5 -196.5t-3.5 -232t-2 -211.5q0 -76 11 -122.5t50.5 -67.5t125.5 -21h20v-135h-20zM-96 1134
q-14 26 -14 67q0 44 18.5 75t41.5 39q26 9 56 9q56 0 134 -15.5t190 -15.5q53 0 94 8.5t65 30.5q5 -18 5 -45q0 -20 -3 -39.5t-11 -28.5q-14 -21 -51 -37.5t-112 -16.5q-68 0 -129 7t-116 7q-46 0 -88 -9.5t-80 -35.5z" />
            <glyph glyph-name="uni0671.fina" unicode="&#x671;" horiz-adv-x="419" arabic-form="final" d="M419 -10q-122 0 -191.5 37t-99 95.5t-34.5 122.5q-4 56 -7 142.5t-5.5 184t-4.5 188.5t-3.5 157t-3.5 88q12 24 42.5 41.5t65 28.5t56.5 14q3 -18 4 -55.5t1 -57.5q0 -82 -1.5 -196.5t-3.5 -232t-2 -211.5q0 -76 11 -122.5t50.5 -67.5t125.5 -21h20v-135h-20zM-135 1163
q0 21 3.5 42t17.5 43q23 7 46 9t45 2q51 0 103 -7.5t98 -7.5q63 0 84 20t21 42q0 17 -10 30.5t-38 13.5q-31 0 -62.5 -27.5t-49.5 -92.5l-87 6q25 104 84.5 150t118.5 46q53 0 92.5 -33t39.5 -92q0 -62 -50.5 -102.5t-151.5 -40.5q-43 0 -94.5 8.5t-101.5 8.5
q-29 0 -57 -3.5t-51 -14.5z" />
            <glyph glyph-name="uni0675.fina" unicode="&#x675;" horiz-adv-x="419" d="M319 1215q-19 11 -32.5 33t-17.5 37q29 8 69 15.5t86 14.5q-69 29 -100 59t-31 76q0 44 41.5 86t117.5 42q47 0 85.5 -18t72.5 -47q-4 -19 -20 -35t-30 -24q-32 23 -61.5 33t-51.5 10t-42 -11t-20 -38q0 -22 39.5 -47.5t166.5 -65.5q0 -14 -9 -35.5t-21 -34.5
q-94 -7 -156.5 -24.5t-85.5 -25.5zM419 -10q-122 0 -191.5 37t-99 95.5t-34.5 122.5q-4 56 -7 142.5t-5.5 184t-4.5 188.5t-3.5 157t-3.5 88q12 24 42.5 41.5t65 28.5t56.5 14q3 -18 4 -55.5t1 -57.5q0 -82 -1.5 -196.5t-3.5 -232t-2 -211.5q0 -76 11 -122.5t50.5 -67.5
t125.5 -21h20v-135h-20z" />
            <glyph glyph-name="uni066E.init" unicode="&#x66e;" horiz-adv-x="409" d="M-20 -10v135h30q106 0 145 40t39 108q0 38 -9 83.5t-20 99.5q22 11 62 23.5t69 13.5q43 -123 43 -224q0 -131 -81 -205t-248 -74h-30z" />
            <glyph glyph-name="uni066E.medi" unicode="&#x66e;" horiz-adv-x="580" d="M-20 -10v135h20q81 0 128.5 22.5t70 53t29.5 55.5t7 29q0 8 -4.5 31.5t-9.5 46.5t-5 28q28 14 60 22.5t72 9.5q32 -170 89.5 -234t142.5 -64h20v-135h-20q-85 0 -160 33.5t-127 117.5q-37 -80 -117.5 -115.5t-175.5 -35.5h-20z" />
            <glyph glyph-name="uni066E.fina" unicode="&#x66e;" horiz-adv-x="2042" d="M1003 -25q-338 0 -543.5 48.5t-297.5 143.5t-92 234q0 95 56 199t159 191q23 -1 43 -18t30 -40q-79 -90 -110.5 -168t-31.5 -146q0 -160 173 -233.5t533 -73.5q233 0 376.5 12.5t222.5 43t117 84.5t60 137q25 12 59.5 17.5t63.5 7.5q22 -159 85.5 -224t135.5 -65h20v-135
h-20q-103 0 -174 48t-107 122q-38 -42 -91.5 -76t-137 -58.5t-212 -37.5t-317.5 -13z" />
            <glyph glyph-name="uni0628.init" unicode="&#x628;" horiz-adv-x="409" arabic-form="initial" d="M-20 -10v135h30q106 0 145 40t39 108q0 38 -9 83.5t-20 99.5q22 11 62 23.5t69 13.5q43 -123 43 -224q0 -131 -81 -205t-248 -74h-30zM162 -342q-56 41 -93 74t-44 48l103 128l151 -120q-88 -121 -117 -130z" />
            <glyph glyph-name="uni0628.medi" unicode="&#x628;" horiz-adv-x="580" arabic-form="medial" d="M-20 -10v135h20q81 0 128.5 22.5t70 53t29.5 55.5t7 29q0 8 -4.5 31.5t-9.5 46.5t-5 28q28 14 60 22.5t72 9.5q32 -170 89.5 -234t142.5 -64h20v-135h-20q-85 0 -160 33.5t-127 117.5q-37 -80 -117.5 -115.5t-175.5 -35.5h-20zM299 -352q-56 41 -93 74t-44 48l103 128
l151 -120q-88 -121 -117 -130z" />
            <glyph glyph-name="uni0628.fina" unicode="&#x628;" horiz-adv-x="2042" arabic-form="final" d="M1003 -25q-338 0 -543.5 48.5t-297.5 143.5t-92 234q0 95 56 199t159 191q23 -1 43 -18t30 -40q-79 -90 -110.5 -168t-31.5 -146q0 -160 173 -233.5t533 -73.5q233 0 376.5 12.5t222.5 43t117 84.5t60 137q25 12 59.5 17.5t63.5 7.5q22 -159 85.5 -224t135.5 -65h20v-135
h-20q-103 0 -174 48t-107 122q-38 -42 -91.5 -76t-137 -58.5t-212 -37.5t-317.5 -13zM970 -389q-56 41 -93 74t-44 48l103 128l151 -120q-88 -121 -117 -130z" />
            <glyph glyph-name="uni067E.init" unicode="&#x67e;" horiz-adv-x="409" arabic-form="initial" d="M-20 -10v135h30q106 0 145 40t39 108q0 38 -9 83.5t-20 99.5q22 11 62 23.5t69 13.5q43 -123 43 -224q0 -131 -81 -205t-248 -74h-30zM303 -312l-143 115q41 56 70.5 87.5t40.5 35.5q53 -39 88 -70.5t42 -46.5zM227 -561l-142 115q83 114 111 123q53 -39 88 -70.5
t42 -46.5zM88 -330l-143 115q83 113 111 122q53 -38 88.5 -69.5t41.5 -46.5z" />
            <glyph glyph-name="uni067E.medi" unicode="&#x67e;" horiz-adv-x="580" arabic-form="medial" d="M-20 -10v135h20q81 0 128.5 22.5t70 53t29.5 55.5t7 29q0 8 -4.5 31.5t-9.5 46.5t-5 28q28 14 60 22.5t72 9.5q32 -170 89.5 -234t142.5 -64h20v-135h-20q-85 0 -160 33.5t-127 117.5q-37 -80 -117.5 -115.5t-175.5 -35.5h-20zM400 -332l-143 115q41 56 70.5 87.5
t40.5 35.5q53 -39 88 -70.5t42 -46.5zM324 -581l-142 115q83 114 111 123q53 -39 88 -70.5t42 -46.5zM185 -350l-143 115q83 113 111 122q53 -38 88.5 -69.5t41.5 -46.5z" />
            <glyph glyph-name="uni067E.fina" unicode="&#x67e;" horiz-adv-x="2042" arabic-form="final" d="M1003 -25q-338 0 -543.5 48.5t-297.5 143.5t-92 234q0 95 56 199t159 191q23 -1 43 -18t30 -40q-79 -90 -110.5 -168t-31.5 -146q0 -160 173 -233.5t533 -73.5q233 0 376.5 12.5t222.5 43t117 84.5t60 137q25 12 59.5 17.5t63.5 7.5q22 -159 85.5 -224t135.5 -65h20v-135
h-20q-103 0 -174 48t-107 122q-38 -42 -91.5 -76t-137 -58.5t-212 -37.5t-317.5 -13zM1071 -369l-143 115q41 56 70.5 87.5t40.5 35.5q53 -39 88 -70.5t42 -46.5zM995 -618l-142 115q83 114 111 123q53 -39 88 -70.5t42 -46.5zM856 -387l-143 115q83 113 111 122
q53 -38 88.5 -69.5t41.5 -46.5z" />
            <glyph glyph-name="uni067B.init" unicode="&#x67b;" horiz-adv-x="409" arabic-form="initial" d="M-20 -10v135h30q106 0 145 40t39 108q0 38 -9 83.5t-20 99.5q22 11 62 23.5t69 13.5q43 -123 43 -224q0 -131 -81 -205t-248 -74h-30zM213 -539q-54 39 -89 70.5t-42 45.5l98 122l144 -115q-85 -114 -111 -123zM183 -326q-53 38 -87.5 70t-42.5 46l98 121l143 -114
q-83 -114 -111 -123z" />
            <glyph glyph-name="uni067B.medi" unicode="&#x67b;" horiz-adv-x="580" arabic-form="medial" d="M-20 -10v135h20q81 0 128.5 22.5t70 53t29.5 55.5t7 29q0 8 -4.5 31.5t-9.5 46.5t-5 28q28 14 60 22.5t72 9.5q32 -170 89.5 -234t142.5 -64h20v-135h-20q-85 0 -160 33.5t-127 117.5q-37 -80 -117.5 -115.5t-175.5 -35.5h-20zM300 -549q-54 39 -89 70.5t-42 45.5l98 122
l144 -115q-85 -114 -111 -123zM270 -336q-53 38 -87.5 70t-42.5 46l98 121l143 -114q-83 -114 -111 -123z" />
            <glyph glyph-name="uni067B.fina" unicode="&#x67b;" horiz-adv-x="2042" arabic-form="final" d="M1003 -25q-338 0 -543.5 48.5t-297.5 143.5t-92 234q0 95 56 199t159 191q23 -1 43 -18t30 -40q-79 -90 -110.5 -168t-31.5 -146q0 -160 173 -233.5t533 -73.5q233 0 376.5 12.5t222.5 43t117 84.5t60 137q25 12 59.5 17.5t63.5 7.5q22 -159 85.5 -224t135.5 -65h20v-135
h-20q-103 0 -174 48t-107 122q-38 -42 -91.5 -76t-137 -58.5t-212 -37.5t-317.5 -13zM1021 -586q-54 39 -89 70.5t-42 45.5l98 122l144 -115q-85 -114 -111 -123zM991 -373q-53 38 -87.5 70t-42.5 46l98 121l143 -114q-83 -114 -111 -123z" />
            <glyph glyph-name="uni0680.init" unicode="&#x680;" horiz-adv-x="409" arabic-form="initial" d="M-20 -10v135h30q106 0 145 40t39 108q0 38 -9 83.5t-20 99.5q22 11 62 23.5t69 13.5q43 -123 43 -224q0 -131 -81 -205t-248 -74h-30zM309 -285q-53 38 -88.5 70t-41.5 46l108 121l143 -114q-41 -56 -75.5 -87.5t-45.5 -35.5zM118 -537q-53 38 -88 69.5t-42 46.5l108 121
l143 -115q-41 -56 -75.5 -87.5t-45.5 -34.5zM94 -302q-53 38 -88 69.5t-42 46.5l108 121l143 -115q-41 -56 -75.5 -87.5t-45.5 -34.5zM333 -520q-53 38 -88.5 70t-41.5 46l108 121l143 -114q-41 -56 -75.5 -87.5t-45.5 -35.5z" />
            <glyph glyph-name="uni0680.medi" unicode="&#x680;" horiz-adv-x="580" arabic-form="medial" d="M-20 -10v135h20q81 0 128.5 22.5t70 53t29.5 55.5t7 29q0 8 -4.5 31.5t-9.5 46.5t-5 28q28 14 60 22.5t72 9.5q32 -170 89.5 -234t142.5 -64h20v-135h-20q-85 0 -160 33.5t-127 117.5q-37 -80 -117.5 -115.5t-175.5 -35.5h-20zM399 -325q-53 38 -88.5 70t-41.5 46
l108 121l143 -114q-41 -56 -75.5 -87.5t-45.5 -35.5zM208 -577q-53 38 -88 69.5t-42 46.5l108 121l143 -115q-41 -56 -75.5 -87.5t-45.5 -34.5zM184 -342q-53 38 -88 69.5t-42 46.5l108 121l143 -115q-41 -56 -75.5 -87.5t-45.5 -34.5zM423 -560q-53 38 -88.5 70t-41.5 46
l108 121l143 -114q-41 -56 -75.5 -87.5t-45.5 -35.5z" />
            <glyph glyph-name="uni0680.fina" unicode="&#x680;" horiz-adv-x="2042" arabic-form="final" d="M1003 -25q-338 0 -543.5 48.5t-297.5 143.5t-92 234q0 95 56 199t159 191q23 -1 43 -18t30 -40q-79 -90 -110.5 -168t-31.5 -146q0 -160 173 -233.5t533 -73.5q233 0 376.5 12.5t222.5 43t117 84.5t60 137q25 12 59.5 17.5t63.5 7.5q22 -159 85.5 -224t135.5 -65h20v-135
h-20q-103 0 -174 48t-107 122q-38 -42 -91.5 -76t-137 -58.5t-212 -37.5t-317.5 -13zM1099 -325q-53 38 -88.5 70t-41.5 46l108 121l143 -114q-41 -56 -75.5 -87.5t-45.5 -35.5zM908 -577q-53 38 -88 69.5t-42 46.5l108 121l143 -115q-41 -56 -75.5 -87.5t-45.5 -34.5z
M884 -342q-53 38 -88 69.5t-42 46.5l108 121l143 -115q-41 -56 -75.5 -87.5t-45.5 -34.5zM1123 -560q-53 38 -88.5 70t-41.5 46l108 121l143 -114q-41 -56 -75.5 -87.5t-45.5 -35.5z" />
            <glyph glyph-name="uni062A.init" unicode="&#x62a;" horiz-adv-x="409" arabic-form="initial" d="M-20 -10v135h30q106 0 145 40t39 108q0 38 -9 83.5t-20 99.5q22 11 62 23.5t69 13.5q43 -123 43 -224q0 -131 -81 -205t-248 -74h-30zM293 533q-53 38 -88.5 70t-41.5 46l108 121l143 -114q-41 -56 -75.5 -87.5t-45.5 -35.5zM78 516q-53 38 -88 69.5t-42 46.5l108 121
l143 -115q-41 -56 -75.5 -87.5t-45.5 -34.5z" />
            <glyph glyph-name="uni062A.medi" unicode="&#x62a;" horiz-adv-x="580" arabic-form="medial" d="M-20 -10v135h20q81 0 128.5 22.5t70 53t29.5 55.5t7 29q0 8 -4.5 31.5t-9.5 46.5t-5 28q28 14 60 22.5t72 9.5q32 -170 89.5 -234t142.5 -64h20v-135h-20q-85 0 -160 33.5t-127 117.5q-37 -80 -117.5 -115.5t-175.5 -35.5h-20zM339 579q-53 38 -88.5 70t-41.5 46l108 121
l143 -114q-41 -56 -75.5 -87.5t-45.5 -35.5zM124 562q-53 38 -88 69.5t-42 46.5l108 121l143 -115q-41 -56 -75.5 -87.5t-45.5 -34.5z" />
            <glyph glyph-name="uni062A.fina" unicode="&#x62a;" horiz-adv-x="2042" arabic-form="final" d="M1003 -25q-338 0 -543.5 48.5t-297.5 143.5t-92 234q0 95 56 199t159 191q23 -1 43 -18t30 -40q-79 -90 -110.5 -168t-31.5 -146q0 -160 173 -233.5t533 -73.5q233 0 376.5 12.5t222.5 43t117 84.5t60 137q25 12 59.5 17.5t63.5 7.5q22 -159 85.5 -224t135.5 -65h20v-135
h-20q-103 0 -174 48t-107 122q-38 -42 -91.5 -76t-137 -58.5t-212 -37.5t-317.5 -13zM1082 616q-53 38 -88.5 70t-41.5 46l108 121l143 -114q-41 -56 -75.5 -87.5t-45.5 -35.5zM867 599q-53 38 -88 69.5t-42 46.5l108 121l143 -115q-41 -56 -75.5 -87.5t-45.5 -34.5z" />
            <glyph glyph-name="uni067C.init" unicode="&#x67c;" horiz-adv-x="409" d="M-20 -10v135h30q106 0 145 40t39 108q0 38 -9 83.5t-20 99.5q22 11 62 23.5t69 13.5q43 -123 43 -224q0 -131 -81 -205t-248 -74h-30zM293 533q-53 38 -88.5 70t-41.5 46l108 121l143 -114q-41 -56 -75.5 -87.5t-45.5 -35.5zM78 516q-53 38 -88 69.5t-42 46.5l108 121
l143 -115q-41 -56 -75.5 -87.5t-45.5 -34.5zM200 -201q-76 0 -113.5 44t-37.5 99q0 56 39 103t112 47q75 0 114 -46.5t39 -102.5q0 -54 -38 -99t-115 -45zM202 -122q36 0 53.5 20.5t17.5 45.5q0 27 -18.5 50t-53.5 23t-53 -22t-18 -49q0 -25 18 -46.5t54 -21.5z" />
            <glyph glyph-name="uni067C.medi" unicode="&#x67c;" horiz-adv-x="580" d="M-20 -10v135h20q81 0 128.5 22.5t70 53t29.5 55.5t7 29q0 8 -4.5 31.5t-9.5 46.5t-5 28q28 14 60 22.5t72 9.5q32 -170 89.5 -234t142.5 -64h20v-135h-20q-85 0 -160 33.5t-127 117.5q-37 -80 -117.5 -115.5t-175.5 -35.5h-20zM339 579q-53 38 -88.5 70t-41.5 46l108 121
l143 -114q-41 -56 -75.5 -87.5t-45.5 -35.5zM124 562q-53 38 -88 69.5t-42 46.5l108 121l143 -115q-41 -56 -75.5 -87.5t-45.5 -34.5zM291 -145q-76 0 -113.5 44t-37.5 99q0 56 39 103t112 47q75 0 114 -46.5t39 -102.5q0 -54 -38 -99t-115 -45zM293 -66q36 0 53.5 20.5
t17.5 45.5q0 27 -18.5 50t-53.5 23t-53 -22t-18 -49q0 -25 18 -46.5t54 -21.5z" />
            <glyph glyph-name="uni067C.fina" unicode="&#x67c;" horiz-adv-x="2042" d="M1003 -25q-338 0 -543.5 48.5t-297.5 143.5t-92 234q0 95 56 199t159 191q23 -1 43 -18t30 -40q-79 -90 -110.5 -168t-31.5 -146q0 -160 173 -233.5t533 -73.5q233 0 376.5 12.5t222.5 43t117 84.5t60 137q25 12 59.5 17.5t63.5 7.5q22 -159 85.5 -224t135.5 -65h20v-135
h-20q-103 0 -174 48t-107 122q-38 -42 -91.5 -76t-137 -58.5t-212 -37.5t-317.5 -13zM1082 616q-53 38 -88.5 70t-41.5 46l108 121l143 -114q-41 -56 -75.5 -87.5t-45.5 -35.5zM867 599q-53 38 -88 69.5t-42 46.5l108 121l143 -115q-41 -56 -75.5 -87.5t-45.5 -34.5z
M975 -250q-76 0 -113.5 44t-37.5 99q0 56 39 103t112 47q75 0 114 -46.5t39 -102.5q0 -54 -38 -99t-115 -45zM977 -171q36 0 53.5 20.5t17.5 45.5q0 27 -18.5 50t-53.5 23t-53 -22t-18 -49q0 -25 18 -46.5t54 -21.5z" />
            <glyph glyph-name="uni067D.init" unicode="&#x67d;" horiz-adv-x="409" d="M-20 -10v135h30q106 0 145 40t39 108q0 38 -9 83.5t-20 99.5q22 11 62 23.5t69 13.5q43 -123 43 -224q0 -131 -81 -205t-248 -74h-30zM260 808l-143 115q41 56 70.5 87.5t40.5 35.5q53 -39 88 -70.5t42 -46.5zM184 559l-142 115q83 114 111 123q53 -39 88 -70.5t42 -46.5
zM45 790l-143 115q83 113 111 122q53 -38 88.5 -69.5t41.5 -46.5z" />
            <glyph glyph-name="uni067D.medi" unicode="&#x67d;" horiz-adv-x="580" d="M-20 -10v135h20q81 0 128.5 22.5t70 53t29.5 55.5t7 29q0 8 -4.5 31.5t-9.5 46.5t-5 28q28 14 60 22.5t72 9.5q32 -170 89.5 -234t142.5 -64h20v-135h-20q-85 0 -160 33.5t-127 117.5q-37 -80 -117.5 -115.5t-175.5 -35.5h-20zM316 804l-143 115q41 56 70.5 87.5
t40.5 35.5q53 -39 88 -70.5t42 -46.5zM240 555l-142 115q83 114 111 123q53 -39 88 -70.5t42 -46.5zM101 786l-143 115q83 113 111 122q53 -38 88.5 -69.5t41.5 -46.5z" />
            <glyph glyph-name="uni067D.fina" unicode="&#x67d;" horiz-adv-x="2042" d="M1003 -25q-338 0 -543.5 48.5t-297.5 143.5t-92 234q0 95 56 199t159 191q23 -1 43 -18t30 -40q-79 -90 -110.5 -168t-31.5 -146q0 -160 173 -233.5t533 -73.5q233 0 376.5 12.5t222.5 43t117 84.5t60 137q25 12 59.5 17.5t63.5 7.5q22 -159 85.5 -224t135.5 -65h20v-135
h-20q-103 0 -174 48t-107 122q-38 -42 -91.5 -76t-137 -58.5t-212 -37.5t-317.5 -13zM1059 841l-143 115q41 56 70.5 87.5t40.5 35.5q53 -39 88 -70.5t42 -46.5zM983 592l-142 115q83 114 111 123q53 -39 88 -70.5t42 -46.5zM844 823l-143 115q83 113 111 122
q53 -38 88.5 -69.5t41.5 -46.5z" />
            <glyph glyph-name="uni062B.init" unicode="&#x62b;" horiz-adv-x="409" arabic-form="initial" d="M-20 -10v135h30q106 0 145 40t39 108q0 38 -9 83.5t-20 99.5q22 11 62 23.5t69 13.5q43 -123 43 -224q0 -131 -81 -205t-248 -74h-30zM152 775q-53 39 -88 70.5t-43 45.5l99 122l143 -115q-87 -116 -111 -123zM77 526q-54 39 -88.5 70t-42.5 47l99 121l143 -115
q-42 -56 -71 -87t-40 -36zM292 544q-53 39 -89 70.5t-42 45.5l99 122l143 -116q-84 -112 -111 -122z" />
            <glyph glyph-name="uni062B.medi" unicode="&#x62b;" horiz-adv-x="580" arabic-form="medial" d="M-20 -10v135h20q81 0 128.5 22.5t70 53t29.5 55.5t7 29q0 8 -4.5 31.5t-9.5 46.5t-5 28q28 14 60 22.5t72 9.5q32 -170 89.5 -234t142.5 -64h20v-135h-20q-85 0 -160 33.5t-127 117.5q-37 -80 -117.5 -115.5t-175.5 -35.5h-20zM208 771q-53 39 -88 70.5t-43 45.5l99 122
l143 -115q-87 -116 -111 -123zM133 522q-54 39 -88.5 70t-42.5 47l99 121l143 -115q-42 -56 -71 -87t-40 -36zM348 540q-53 39 -89 70.5t-42 45.5l99 122l143 -116q-84 -112 -111 -122z" />
            <glyph glyph-name="uni062B.fina" unicode="&#x62b;" horiz-adv-x="2042" arabic-form="final" d="M1003 -25q-338 0 -543.5 48.5t-297.5 143.5t-92 234q0 95 56 199t159 191q23 -1 43 -18t30 -40q-79 -90 -110.5 -168t-31.5 -146q0 -160 173 -233.5t533 -73.5q233 0 376.5 12.5t222.5 43t117 84.5t60 137q25 12 59.5 17.5t63.5 7.5q22 -159 85.5 -224t135.5 -65h20v-135
h-20q-103 0 -174 48t-107 122q-38 -42 -91.5 -76t-137 -58.5t-212 -37.5t-317.5 -13zM981 808q-53 39 -88 70.5t-43 45.5l99 122l143 -115q-87 -116 -111 -123zM906 559q-54 39 -88.5 70t-42.5 47l99 121l143 -115q-42 -56 -71 -87t-40 -36zM1121 577q-53 39 -89 70.5
t-42 45.5l99 122l143 -116q-84 -112 -111 -122z" />
            <glyph glyph-name="uni0679.init" unicode="&#x679;" horiz-adv-x="409" arabic-form="initial" d="M-20 -10v135h30q106 0 145 40t39 108q0 38 -9 83.5t-20 99.5q22 11 62 23.5t69 13.5q43 -123 43 -224q0 -131 -81 -205t-248 -74h-30zM180 566q-67 0 -127.5 8t-107.5 8q-21 39 -24 84q8 0 30 -1t27 -2q33 28 71 70t89 74.5t121 32.5q57 0 89 -37.5t32 -85.5
q0 -55 -47 -103t-153 -48zM198 644q50 0 73.5 22t23.5 46q0 20 -14 34t-40 14q-41 0 -91 -35.5t-82 -74.5q20 -2 57.5 -4t72.5 -2zM22 674q-1 96 -6 184t-7 138q17 24 45.5 38t48.5 16q1 -68 -2 -152.5t-5 -155.5z" />
            <glyph glyph-name="uni0679.medi" unicode="&#x679;" horiz-adv-x="580" arabic-form="medial" d="M-20 -10v135h20q81 0 128.5 22.5t70 53t29.5 55.5t7 29q0 8 -4.5 31.5t-9.5 46.5t-5 28q28 14 60 22.5t72 9.5q32 -170 89.5 -234t142.5 -64h20v-135h-20q-85 0 -160 33.5t-127 117.5q-37 -80 -117.5 -115.5t-175.5 -35.5h-20zM250 536q-67 0 -127.5 8t-107.5 8
q-21 39 -24 84q8 0 30 -1t27 -2q33 28 71 70t89 74.5t121 32.5q57 0 89 -37.5t32 -85.5q0 -55 -47 -103t-153 -48zM268 614q50 0 73.5 22t23.5 46q0 20 -14 34t-40 14q-41 0 -91 -35.5t-82 -74.5q20 -2 57.5 -4t72.5 -2zM92 644q-1 96 -6 184t-7 138q17 24 45.5 38t48.5 16
q1 -68 -2 -152.5t-5 -155.5z" />
            <glyph glyph-name="uni0679.fina" unicode="&#x679;" horiz-adv-x="2042" arabic-form="final" d="M1003 -25q-338 0 -543.5 48.5t-297.5 143.5t-92 234q0 95 56 199t159 191q23 -1 43 -18t30 -40q-79 -90 -110.5 -168t-31.5 -146q0 -160 173 -233.5t533 -73.5q233 0 376.5 12.5t222.5 43t117 84.5t60 137q25 12 59.5 17.5t63.5 7.5q22 -159 85.5 -224t135.5 -65h20v-135
h-20q-103 0 -174 48t-107 122q-38 -42 -91.5 -76t-137 -58.5t-212 -37.5t-317.5 -13zM960 556q-67 0 -127.5 8t-107.5 8q-21 39 -24 84q8 0 30 -1t27 -2q33 28 71 70t89 74.5t121 32.5q57 0 89 -37.5t32 -85.5q0 -55 -47 -103t-153 -48zM978 634q50 0 73.5 22t23.5 46
q0 20 -14 34t-40 14q-41 0 -91 -35.5t-82 -74.5q20 -2 57.5 -4t72.5 -2zM802 664q-1 96 -6 184t-7 138q17 24 45.5 38t48.5 16q1 -68 -2 -152.5t-5 -155.5z" />
            <glyph glyph-name="uni067A.init" unicode="&#x67a;" horiz-adv-x="409" arabic-form="initial" d="M-20 -10v135h30q106 0 145 40t39 108q0 38 -9 83.5t-20 99.5q22 11 62 23.5t69 13.5q43 -123 43 -224q0 -131 -81 -205t-248 -74h-30zM187 584q-54 39 -89 70.5t-42 45.5l98 122l144 -115q-85 -114 -111 -123zM157 797q-53 38 -87.5 70t-42.5 46l98 121l143 -114
q-83 -114 -111 -123z" />
            <glyph glyph-name="uni067A.medi" unicode="&#x67a;" horiz-adv-x="580" arabic-form="medial" d="M-20 -10v135h20q81 0 128.5 22.5t70 53t29.5 55.5t7 29q0 8 -4.5 31.5t-9.5 46.5t-5 28q28 14 60 22.5t72 9.5q32 -170 89.5 -234t142.5 -64h20v-135h-20q-85 0 -160 33.5t-127 117.5q-37 -80 -117.5 -115.5t-175.5 -35.5h-20zM243 580q-54 39 -89 70.5t-42 45.5l98 122
l144 -115q-85 -114 -111 -123zM213 793q-53 38 -87.5 70t-42.5 46l98 121l143 -114q-83 -114 -111 -123z" />
            <glyph glyph-name="uni067A.fina" unicode="&#x67a;" horiz-adv-x="2042" arabic-form="final" d="M1003 -25q-338 0 -543.5 48.5t-297.5 143.5t-92 234q0 95 56 199t159 191q23 -1 43 -18t30 -40q-79 -90 -110.5 -168t-31.5 -146q0 -160 173 -233.5t533 -73.5q233 0 376.5 12.5t222.5 43t117 84.5t60 137q25 12 59.5 17.5t63.5 7.5q22 -159 85.5 -224t135.5 -65h20v-135
h-20q-103 0 -174 48t-107 122q-38 -42 -91.5 -76t-137 -58.5t-212 -37.5t-317.5 -13zM986 617q-54 39 -89 70.5t-42 45.5l98 122l144 -115q-85 -114 -111 -123zM956 830q-53 38 -87.5 70t-42.5 46l98 121l143 -114q-83 -114 -111 -123z" />
            <glyph glyph-name="uni067F.init" unicode="&#x67f;" horiz-adv-x="409" arabic-form="initial" d="M-20 -10v135h30q106 0 145 40t39 108q0 38 -9 83.5t-20 99.5q22 11 62 23.5t69 13.5q43 -123 43 -224q0 -131 -81 -205t-248 -74h-30zM281 781q-53 38 -88.5 70t-41.5 46l108 121l143 -114q-41 -56 -75.5 -87.5t-45.5 -35.5zM90 529q-53 38 -88 69.5t-42 46.5l108 121
l143 -115q-41 -56 -75.5 -87.5t-45.5 -34.5zM66 764q-53 38 -88 69.5t-42 46.5l108 121l143 -115q-41 -56 -75.5 -87.5t-45.5 -34.5zM305 546q-53 38 -88.5 70t-41.5 46l108 121l143 -114q-41 -56 -75.5 -87.5t-45.5 -35.5z" />
            <glyph glyph-name="uni067F.medi" unicode="&#x67f;" horiz-adv-x="580" arabic-form="medial" d="M-20 -10v135h20q81 0 128.5 22.5t70 53t29.5 55.5t7 29q0 8 -4.5 31.5t-9.5 46.5t-5 28q28 14 60 22.5t72 9.5q32 -170 89.5 -234t142.5 -64h20v-135h-20q-85 0 -160 33.5t-127 117.5q-37 -80 -117.5 -115.5t-175.5 -35.5h-20zM311 791q-53 38 -88.5 70t-41.5 46l108 121
l143 -114q-41 -56 -75.5 -87.5t-45.5 -35.5zM120 539q-53 38 -88 69.5t-42 46.5l108 121l143 -115q-41 -56 -75.5 -87.5t-45.5 -34.5zM96 774q-53 38 -88 69.5t-42 46.5l108 121l143 -115q-41 -56 -75.5 -87.5t-45.5 -34.5zM335 556q-53 38 -88.5 70t-41.5 46l108 121
l143 -114q-41 -56 -75.5 -87.5t-45.5 -35.5z" />
            <glyph glyph-name="uni067F.fina" unicode="&#x67f;" horiz-adv-x="2042" arabic-form="final" d="M1003 -25q-338 0 -543.5 48.5t-297.5 143.5t-92 234q0 95 56 199t159 191q23 -1 43 -18t30 -40q-79 -90 -110.5 -168t-31.5 -146q0 -160 173 -233.5t533 -73.5q233 0 376.5 12.5t222.5 43t117 84.5t60 137q25 12 59.5 17.5t63.5 7.5q22 -159 85.5 -224t135.5 -65h20v-135
h-20q-103 0 -174 48t-107 122q-38 -42 -91.5 -76t-137 -58.5t-212 -37.5t-317.5 -13zM1091 851q-53 38 -88.5 70t-41.5 46l108 121l143 -114q-41 -56 -75.5 -87.5t-45.5 -35.5zM900 599q-53 38 -88 69.5t-42 46.5l108 121l143 -115q-41 -56 -75.5 -87.5t-45.5 -34.5z
M876 834q-53 38 -88 69.5t-42 46.5l108 121l143 -115q-41 -56 -75.5 -87.5t-45.5 -34.5zM1115 616q-53 38 -88.5 70t-41.5 46l108 121l143 -114q-41 -56 -75.5 -87.5t-45.5 -35.5z" />
            <glyph glyph-name="uni062C.init" unicode="&#x62c;" horiz-adv-x="1048" arabic-form="initial" d="M-20 -10v135h20q123 0 211.5 15t163.5 34t154.5 34t183.5 15q-118 106 -214.5 161t-186.5 55q-101 0 -206 -74q-19 8 -29.5 17.5t-21.5 24.5q78 98 147 140t142 42q95 0 200 -64.5t215 -164.5t219 -207q-13 -32 -34.5 -57.5t-50.5 -39.5q-36 24 -73 32t-111 8
q-113 0 -226 -26.5t-236.5 -53t-266.5 -26.5zM385 -280q-56 41 -93 74t-44 48l103 128l151 -120q-88 -121 -117 -130z" />
            <glyph glyph-name="uni062C.medi" unicode="&#x62c;" horiz-adv-x="949" arabic-form="medial" d="M-20 -10v135h20q97 0 166.5 19.5t131.5 50t135.5 63.5t177.5 59q-84 55 -147.5 89t-140.5 34q-51 0 -105 -18t-112 -57q-18 10 -29 19.5t-22 22.5q78 98 147 140t142 42q79 0 139.5 -29.5t120.5 -74.5t136 -92.5t185 -83.5q-14 -32 -28.5 -64.5t-34.5 -54.5
q-64 15 -120 15q-97 0 -181 -32.5t-169 -75t-184 -75t-228 -32.5zM929 -10q-158 0 -247.5 59t-139.5 160l152 17q34 -64 104 -82.5t151 -18.5h20v-135h-40zM372 -283q-56 41 -93 74t-44 48l103 128l151 -120q-88 -121 -117 -130z" />
            <glyph glyph-name="uni062C.fina" unicode="&#x62c;" horiz-adv-x="1028" arabic-form="final" d="M629 -682q-185 0 -309.5 65.5t-187 176.5t-62.5 247q0 95 37.5 186.5t113.5 166.5t190.5 120.5t268.5 46.5q-76 50 -138 81.5t-135 31.5q-51 0 -105 -18t-112 -57q-19 8 -29.5 17.5t-21.5 24.5q78 98 147 140t142 42q79 0 139.5 -29.5t120.5 -74.5t136 -92.5t185 -83.5
q-14 -32 -28.5 -64.5t-34.5 -54.5q-81 16 -164 21q17 -54 85.5 -70t165.5 -16h15v-135h-15q-195 0 -287 58.5t-120 158.5q-98 -12 -193.5 -58.5t-157.5 -128.5t-62 -202q0 -175 113.5 -270t303.5 -95q22 0 68 2.5t74 7.5q-6 -39 -24.5 -76.5t-36.5 -58.5q-13 -4 -33 -7
t-49 -3zM577 -331q-56 41 -93 74t-44 48l103 128l151 -120q-88 -121 -117 -130z" />
            <glyph glyph-name="uni0686.init" unicode="&#x686;" horiz-adv-x="1048" arabic-form="initial" d="M-20 -10v135h20q123 0 211.5 15t163.5 34t154.5 34t183.5 15q-118 106 -214.5 161t-186.5 55q-101 0 -206 -74q-19 8 -29.5 17.5t-21.5 24.5q78 98 147 140t142 42q95 0 200 -64.5t215 -164.5t219 -207q-13 -32 -34.5 -57.5t-50.5 -39.5q-36 24 -73 32t-111 8
q-113 0 -226 -26.5t-236.5 -53t-266.5 -26.5zM480 -283l-143 115q41 56 70.5 87.5t40.5 35.5q53 -39 88 -70.5t42 -46.5zM404 -532l-142 115q83 114 111 123q53 -39 88 -70.5t42 -46.5zM265 -301l-143 115q83 113 111 122q53 -38 88.5 -69.5t41.5 -46.5z" />
            <glyph glyph-name="uni0686.medi" unicode="&#x686;" horiz-adv-x="949" arabic-form="medial" d="M-20 -10v135h20q97 0 166.5 19.5t131.5 50t135.5 63.5t177.5 59q-84 55 -147.5 89t-140.5 34q-51 0 -105 -18t-112 -57q-18 10 -29 19.5t-22 22.5q78 98 147 140t142 42q79 0 139.5 -29.5t120.5 -74.5t136 -92.5t185 -83.5q-14 -32 -28.5 -64.5t-34.5 -54.5
q-64 15 -120 15q-97 0 -181 -32.5t-169 -75t-184 -75t-228 -32.5zM929 -10q-158 0 -247.5 59t-139.5 160l152 17q34 -64 104 -82.5t151 -18.5h20v-135h-40zM480 -283l-143 115q41 56 70.5 87.5t40.5 35.5q53 -39 88 -70.5t42 -46.5zM404 -532l-142 115q83 114 111 123
q53 -39 88 -70.5t42 -46.5zM265 -301l-143 115q83 113 111 122q53 -38 88.5 -69.5t41.5 -46.5z" />
            <glyph glyph-name="uni0686.fina" unicode="&#x686;" horiz-adv-x="1028" arabic-form="final" d="M629 -682q-185 0 -309.5 65.5t-187 176.5t-62.5 247q0 95 37.5 186.5t113.5 166.5t190.5 120.5t268.5 46.5q-76 50 -138 81.5t-135 31.5q-51 0 -105 -18t-112 -57q-19 8 -29.5 17.5t-21.5 24.5q78 98 147 140t142 42q79 0 139.5 -29.5t120.5 -74.5t136 -92.5t185 -83.5
q-14 -32 -28.5 -64.5t-34.5 -54.5q-81 16 -164 21q17 -54 85.5 -70t165.5 -16h15v-135h-15q-195 0 -287 58.5t-120 158.5q-98 -12 -193.5 -58.5t-157.5 -128.5t-62 -202q0 -175 113.5 -270t303.5 -95q22 0 68 2.5t74 7.5q-6 -39 -24.5 -76.5t-36.5 -58.5q-13 -4 -33 -7
t-49 -3zM685 -233l-143 115q41 56 70.5 87.5t40.5 35.5q53 -39 88 -70.5t42 -46.5zM609 -482l-142 115q83 114 111 123q53 -39 88 -70.5t42 -46.5zM470 -251l-143 115q83 113 111 122q53 -38 88.5 -69.5t41.5 -46.5z" />
            <glyph glyph-name="uni0687.init" unicode="&#x687;" horiz-adv-x="1048" arabic-form="initial" d="M-20 -10v135h20q123 0 211.5 15t163.5 34t154.5 34t183.5 15q-118 106 -214.5 161t-186.5 55q-101 0 -206 -74q-19 8 -29.5 17.5t-21.5 24.5q78 98 147 140t142 42q95 0 200 -64.5t215 -164.5t219 -207q-13 -32 -34.5 -57.5t-50.5 -39.5q-36 24 -73 32t-111 8
q-113 0 -226 -26.5t-236.5 -53t-266.5 -26.5zM545 -260q-53 38 -88.5 70t-41.5 46l108 121l143 -114q-41 -56 -75.5 -87.5t-45.5 -35.5zM354 -512q-53 38 -88 69.5t-42 46.5l108 121l143 -115q-41 -56 -75.5 -87.5t-45.5 -34.5zM330 -277q-53 38 -88 69.5t-42 46.5l108 121
l143 -115q-41 -56 -75.5 -87.5t-45.5 -34.5zM569 -495q-53 38 -88.5 70t-41.5 46l108 121l143 -114q-41 -56 -75.5 -87.5t-45.5 -35.5z" />
            <glyph glyph-name="uni0687.medi" unicode="&#x687;" horiz-adv-x="949" arabic-form="medial" d="M-20 -10v135h20q97 0 166.5 19.5t131.5 50t135.5 63.5t177.5 59q-84 55 -147.5 89t-140.5 34q-51 0 -105 -18t-112 -57q-18 10 -29 19.5t-22 22.5q78 98 147 140t142 42q79 0 139.5 -29.5t120.5 -74.5t136 -92.5t185 -83.5q-14 -32 -28.5 -64.5t-34.5 -54.5
q-64 15 -120 15q-97 0 -181 -32.5t-169 -75t-184 -75t-228 -32.5zM929 -10q-158 0 -247.5 59t-139.5 160l152 17q34 -64 104 -82.5t151 -18.5h20v-135h-40zM532 -220q-53 38 -88.5 70t-41.5 46l108 121l143 -114q-41 -56 -75.5 -87.5t-45.5 -35.5zM341 -472q-53 38 -88 69.5
t-42 46.5l108 121l143 -115q-41 -56 -75.5 -87.5t-45.5 -34.5zM317 -237q-53 38 -88 69.5t-42 46.5l108 121l143 -115q-41 -56 -75.5 -87.5t-45.5 -34.5zM556 -455q-53 38 -88.5 70t-41.5 46l108 121l143 -114q-41 -56 -75.5 -87.5t-45.5 -35.5z" />
            <glyph glyph-name="uni0687.fina" unicode="&#x687;" horiz-adv-x="1028" arabic-form="final" d="M629 -682q-185 0 -309.5 65.5t-187 176.5t-62.5 247q0 95 37.5 186.5t113.5 166.5t190.5 120.5t268.5 46.5q-76 50 -138 81.5t-135 31.5q-51 0 -105 -18t-112 -57q-19 8 -29.5 17.5t-21.5 24.5q78 98 147 140t142 42q79 0 139.5 -29.5t120.5 -74.5t136 -92.5t185 -83.5
q-14 -32 -28.5 -64.5t-34.5 -54.5q-81 16 -164 21q17 -54 85.5 -70t165.5 -16h15v-135h-15q-195 0 -287 58.5t-120 158.5q-98 -12 -193.5 -58.5t-157.5 -128.5t-62 -202q0 -175 113.5 -270t303.5 -95q22 0 68 2.5t74 7.5q-6 -39 -24.5 -76.5t-36.5 -58.5q-13 -4 -33 -7
t-49 -3zM702 -209q-53 38 -88.5 70t-41.5 46l108 121l143 -114q-41 -56 -75.5 -87.5t-45.5 -35.5zM511 -461q-53 38 -88 69.5t-42 46.5l108 121l143 -115q-41 -56 -75.5 -87.5t-45.5 -34.5zM487 -226q-53 38 -88 69.5t-42 46.5l108 121l143 -115q-41 -56 -75.5 -87.5
t-45.5 -34.5zM726 -444q-53 38 -88.5 70t-41.5 46l108 121l143 -114q-41 -56 -75.5 -87.5t-45.5 -35.5z" />
            <glyph glyph-name="uni06BF.init" unicode="&#x6bf;" horiz-adv-x="1048" d="M-20 -10v135h20q123 0 211.5 15t163.5 34t154.5 34t183.5 15q-118 106 -214.5 161t-186.5 55q-101 0 -206 -74q-19 8 -29.5 17.5t-21.5 24.5q78 98 147 140t142 42q95 0 200 -64.5t215 -164.5t219 -207q-13 -32 -34.5 -57.5t-50.5 -39.5q-36 24 -73 32t-111 8
q-113 0 -226 -26.5t-236.5 -53t-266.5 -26.5zM358 687q-56 41 -93 74t-44 48l103 128l151 -120q-88 -121 -117 -130zM480 -283l-143 115q41 56 70.5 87.5t40.5 35.5q53 -39 88 -70.5t42 -46.5zM404 -532l-142 115q83 114 111 123q53 -39 88 -70.5t42 -46.5zM265 -301
l-143 115q83 113 111 122q53 -38 88.5 -69.5t41.5 -46.5z" />
            <glyph glyph-name="uni06BF.medi" unicode="&#x6bf;" horiz-adv-x="949" d="M-20 -10v135h20q97 0 166.5 19.5t131.5 50t135.5 63.5t177.5 59q-84 55 -147.5 89t-140.5 34q-51 0 -105 -18t-112 -57q-18 10 -29 19.5t-22 22.5q78 98 147 140t142 42q79 0 139.5 -29.5t120.5 -74.5t136 -92.5t185 -83.5q-14 -32 -28.5 -64.5t-34.5 -54.5
q-64 15 -120 15q-97 0 -181 -32.5t-169 -75t-184 -75t-228 -32.5zM929 -10q-158 0 -247.5 59t-139.5 160l152 17q34 -64 104 -82.5t151 -18.5h20v-135h-40zM358 687q-56 41 -93 74t-44 48l103 128l151 -120q-88 -121 -117 -130zM480 -283l-143 115q41 56 70.5 87.5
t40.5 35.5q53 -39 88 -70.5t42 -46.5zM404 -532l-142 115q83 114 111 123q53 -39 88 -70.5t42 -46.5zM265 -301l-143 115q83 113 111 122q53 -38 88.5 -69.5t41.5 -46.5z" />
            <glyph glyph-name="uni06BF.fina" unicode="&#x6bf;" horiz-adv-x="1028" d="M629 -682q-185 0 -309.5 65.5t-187 176.5t-62.5 247q0 95 37.5 186.5t113.5 166.5t190.5 120.5t268.5 46.5q-76 50 -138 81.5t-135 31.5q-51 0 -105 -18t-112 -57q-19 8 -29.5 17.5t-21.5 24.5q78 98 147 140t142 42q79 0 139.5 -29.5t120.5 -74.5t136 -92.5t185 -83.5
q-14 -32 -28.5 -64.5t-34.5 -54.5q-81 16 -164 21q17 -54 85.5 -70t165.5 -16h15v-135h-15q-195 0 -287 58.5t-120 158.5q-98 -12 -193.5 -58.5t-157.5 -128.5t-62 -202q0 -175 113.5 -270t303.5 -95q22 0 68 2.5t74 7.5q-6 -39 -24.5 -76.5t-36.5 -58.5q-13 -4 -33 -7
t-49 -3zM401 700q-56 41 -93 74t-44 48l103 128l151 -120q-88 -121 -117 -130zM676 -210l-143 115q41 56 70.5 87.5t40.5 35.5q53 -39 88 -70.5t42 -46.5zM600 -459l-142 115q83 114 111 123q53 -39 88 -70.5t42 -46.5zM461 -228l-143 115q83 113 111 122q53 -38 88.5 -69.5
t41.5 -46.5z" />
            <glyph glyph-name="uni0683.init" unicode="&#x683;" horiz-adv-x="1048" arabic-form="initial" d="M-20 -10v135h20q123 0 211.5 15t163.5 34t154.5 34t183.5 15q-118 106 -214.5 161t-186.5 55q-101 0 -206 -74q-19 8 -29.5 17.5t-21.5 24.5q78 98 147 140t142 42q95 0 200 -64.5t215 -164.5t219 -207q-13 -32 -34.5 -57.5t-50.5 -39.5q-36 24 -73 32t-111 8
q-113 0 -226 -26.5t-236.5 -53t-266.5 -26.5zM469 -289q-53 38 -88.5 70t-41.5 46l108 121l143 -114q-41 -56 -75.5 -87.5t-45.5 -35.5zM254 -306q-53 38 -88 69.5t-42 46.5l108 121l143 -115q-41 -56 -75.5 -87.5t-45.5 -34.5z" />
            <glyph glyph-name="uni0683.medi" unicode="&#x683;" horiz-adv-x="949" arabic-form="medial" d="M-20 -10v135h20q97 0 166.5 19.5t131.5 50t135.5 63.5t177.5 59q-84 55 -147.5 89t-140.5 34q-51 0 -105 -18t-112 -57q-18 10 -29 19.5t-22 22.5q78 98 147 140t142 42q79 0 139.5 -29.5t120.5 -74.5t136 -92.5t185 -83.5q-14 -32 -28.5 -64.5t-34.5 -54.5
q-64 15 -120 15q-97 0 -181 -32.5t-169 -75t-184 -75t-228 -32.5zM929 -10q-158 0 -247.5 59t-139.5 160l152 17q34 -64 104 -82.5t151 -18.5h20v-135h-40zM469 -289q-53 38 -88.5 70t-41.5 46l108 121l143 -114q-41 -56 -75.5 -87.5t-45.5 -35.5zM254 -306q-53 38 -88 69.5
t-42 46.5l108 121l143 -115q-41 -56 -75.5 -87.5t-45.5 -34.5z" />
            <glyph glyph-name="uni0683.fina" unicode="&#x683;" horiz-adv-x="1028" arabic-form="final" d="M629 -682q-185 0 -309.5 65.5t-187 176.5t-62.5 247q0 95 37.5 186.5t113.5 166.5t190.5 120.5t268.5 46.5q-76 50 -138 81.5t-135 31.5q-51 0 -105 -18t-112 -57q-19 8 -29.5 17.5t-21.5 24.5q78 98 147 140t142 42q79 0 139.5 -29.5t120.5 -74.5t136 -92.5t185 -83.5
q-14 -32 -28.5 -64.5t-34.5 -54.5q-81 16 -164 21q17 -54 85.5 -70t165.5 -16h15v-135h-15q-195 0 -287 58.5t-120 158.5q-98 -12 -193.5 -58.5t-157.5 -128.5t-62 -202q0 -175 113.5 -270t303.5 -95q22 0 68 2.5t74 7.5q-6 -39 -24.5 -76.5t-36.5 -58.5q-13 -4 -33 -7
t-49 -3zM726 -316q-53 38 -88.5 70t-41.5 46l108 121l143 -114q-41 -56 -75.5 -87.5t-45.5 -35.5zM511 -333q-53 38 -88 69.5t-42 46.5l108 121l143 -115q-41 -56 -75.5 -87.5t-45.5 -34.5z" />
            <glyph glyph-name="uni0684.init" unicode="&#x684;" horiz-adv-x="1048" arabic-form="initial" d="M-20 -10v135h20q123 0 211.5 15t163.5 34t154.5 34t183.5 15q-118 106 -214.5 161t-186.5 55q-101 0 -206 -74q-19 8 -29.5 17.5t-21.5 24.5q78 98 147 140t142 42q95 0 200 -64.5t215 -164.5t219 -207q-13 -32 -34.5 -57.5t-50.5 -39.5q-36 24 -73 32t-111 8
q-113 0 -226 -26.5t-236.5 -53t-266.5 -26.5zM380 -500q-54 39 -89 70.5t-42 45.5l98 122l144 -115q-85 -114 -111 -123zM350 -287q-53 38 -87.5 70t-42.5 46l98 121l143 -114q-83 -114 -111 -123z" />
            <glyph glyph-name="uni0684.medi" unicode="&#x684;" horiz-adv-x="949" arabic-form="medial" d="M-20 -10v135h20q97 0 166.5 19.5t131.5 50t135.5 63.5t177.5 59q-84 55 -147.5 89t-140.5 34q-51 0 -105 -18t-112 -57q-18 10 -29 19.5t-22 22.5q78 98 147 140t142 42q79 0 139.5 -29.5t120.5 -74.5t136 -92.5t185 -83.5q-14 -32 -28.5 -64.5t-34.5 -54.5
q-64 15 -120 15q-97 0 -181 -32.5t-169 -75t-184 -75t-228 -32.5zM929 -10q-158 0 -247.5 59t-139.5 160l152 17q34 -64 104 -82.5t151 -18.5h20v-135h-40zM380 -500q-54 39 -89 70.5t-42 45.5l98 122l144 -115q-85 -114 -111 -123zM350 -287q-53 38 -87.5 70t-42.5 46
l98 121l143 -114q-83 -114 -111 -123z" />
            <glyph glyph-name="uni0684.fina" unicode="&#x684;" horiz-adv-x="1028" arabic-form="final" d="M629 -682q-185 0 -309.5 65.5t-187 176.5t-62.5 247q0 95 37.5 186.5t113.5 166.5t190.5 120.5t268.5 46.5q-76 50 -138 81.5t-135 31.5q-51 0 -105 -18t-112 -57q-19 8 -29.5 17.5t-21.5 24.5q78 98 147 140t142 42q79 0 139.5 -29.5t120.5 -74.5t136 -92.5t185 -83.5
q-14 -32 -28.5 -64.5t-34.5 -54.5q-81 16 -164 21q17 -54 85.5 -70t165.5 -16h15v-135h-15q-195 0 -287 58.5t-120 158.5q-98 -12 -193.5 -58.5t-157.5 -128.5t-62 -202q0 -175 113.5 -270t303.5 -95q22 0 68 2.5t74 7.5q-6 -39 -24.5 -76.5t-36.5 -58.5q-13 -4 -33 -7
t-49 -3zM592 -430q-54 39 -89 70.5t-42 45.5l98 122l144 -115q-85 -114 -111 -123zM562 -217q-53 38 -87.5 70t-42.5 46l98 121l143 -114q-83 -114 -111 -123z" />
            <glyph glyph-name="uni062D.init" unicode="&#x62d;" horiz-adv-x="1048" arabic-form="initial" d="M-20 -10v135h20q123 0 211.5 15t163.5 34t154.5 34t183.5 15q-118 106 -214.5 161t-186.5 55q-101 0 -206 -74q-19 8 -29.5 17.5t-21.5 24.5q78 98 147 140t142 42q95 0 200 -64.5t215 -164.5t219 -207q-13 -32 -34.5 -57.5t-50.5 -39.5q-36 24 -73 32t-111 8
q-113 0 -226 -26.5t-236.5 -53t-266.5 -26.5z" />
            <glyph glyph-name="uni062D.medi" unicode="&#x62d;" horiz-adv-x="949" arabic-form="medial" d="M-20 -10v135h20q97 0 166.5 19.5t131.5 50t135.5 63.5t177.5 59q-84 55 -147.5 89t-140.5 34q-51 0 -105 -18t-112 -57q-18 10 -29 19.5t-22 22.5q78 98 147 140t142 42q79 0 139.5 -29.5t120.5 -74.5t136 -92.5t185 -83.5q-14 -32 -28.5 -64.5t-34.5 -54.5
q-64 15 -120 15q-97 0 -181 -32.5t-169 -75t-184 -75t-228 -32.5zM929 -10q-158 0 -247.5 59t-139.5 160l152 17q34 -64 104 -82.5t151 -18.5h20v-135h-40z" />
            <glyph glyph-name="uni062D.fina" unicode="&#x62d;" horiz-adv-x="1028" arabic-form="final" d="M629 -682q-185 0 -309.5 65.5t-187 176.5t-62.5 247q0 95 37.5 186.5t113.5 166.5t190.5 120.5t268.5 46.5q-76 50 -138 81.5t-135 31.5q-51 0 -105 -18t-112 -57q-19 8 -29.5 17.5t-21.5 24.5q78 98 147 140t142 42q79 0 139.5 -29.5t120.5 -74.5t136 -92.5t185 -83.5
q-14 -32 -28.5 -64.5t-34.5 -54.5q-81 16 -164 21q17 -54 85.5 -70t165.5 -16h15v-135h-15q-195 0 -287 58.5t-120 158.5q-98 -12 -193.5 -58.5t-157.5 -128.5t-62 -202q0 -175 113.5 -270t303.5 -95q22 0 68 2.5t74 7.5q-6 -39 -24.5 -76.5t-36.5 -58.5q-13 -4 -33 -7
t-49 -3z" />
            <glyph glyph-name="uni0681.init" unicode="&#x681;" horiz-adv-x="1048" d="M-20 -10v135h20q123 0 211.5 15t163.5 34t154.5 34t183.5 15q-118 106 -214.5 161t-186.5 55q-101 0 -206 -74q-19 8 -29.5 17.5t-21.5 24.5q78 98 147 140t142 42q95 0 200 -64.5t215 -164.5t219 -207q-13 -32 -34.5 -57.5t-50.5 -39.5q-36 24 -73 32t-111 8
q-113 0 -226 -26.5t-236.5 -53t-266.5 -26.5zM188 655q-19 11 -32.5 33t-17.5 37q29 8 69 15.5t86 14.5q-69 29 -100 59t-31 76q0 44 41.5 86t117.5 42q47 0 85.5 -18t72.5 -47q-4 -19 -20 -35t-30 -24q-32 23 -61.5 33t-51.5 10t-42 -11t-20 -38q0 -22 39.5 -47.5
t166.5 -65.5q0 -14 -9 -35.5t-21 -34.5q-94 -7 -156.5 -24.5t-85.5 -25.5z" />
            <glyph glyph-name="uni0681.medi" unicode="&#x681;" horiz-adv-x="949" d="M-20 -10v135h20q97 0 166.5 19.5t131.5 50t135.5 63.5t177.5 59q-84 55 -147.5 89t-140.5 34q-51 0 -105 -18t-112 -57q-18 10 -29 19.5t-22 22.5q78 98 147 140t142 42q79 0 139.5 -29.5t120.5 -74.5t136 -92.5t185 -83.5q-14 -32 -28.5 -64.5t-34.5 -54.5
q-64 15 -120 15q-97 0 -181 -32.5t-169 -75t-184 -75t-228 -32.5zM929 -10q-158 0 -247.5 59t-139.5 160l152 17q34 -64 104 -82.5t151 -18.5h20v-135h-40zM188 655q-19 11 -32.5 33t-17.5 37q29 8 69 15.5t86 14.5q-69 29 -100 59t-31 76q0 44 41.5 86t117.5 42
q47 0 85.5 -18t72.5 -47q-4 -19 -20 -35t-30 -24q-32 23 -61.5 33t-51.5 10t-42 -11t-20 -38q0 -22 39.5 -47.5t166.5 -65.5q0 -14 -9 -35.5t-21 -34.5q-94 -7 -156.5 -24.5t-85.5 -25.5z" />
            <glyph glyph-name="uni0681.fina" unicode="&#x681;" horiz-adv-x="1028" d="M629 -682q-185 0 -309.5 65.5t-187 176.5t-62.5 247q0 95 37.5 186.5t113.5 166.5t190.5 120.5t268.5 46.5q-76 50 -138 81.5t-135 31.5q-51 0 -105 -18t-112 -57q-19 8 -29.5 17.5t-21.5 24.5q78 98 147 140t142 42q79 0 139.5 -29.5t120.5 -74.5t136 -92.5t185 -83.5
q-14 -32 -28.5 -64.5t-34.5 -54.5q-81 16 -164 21q17 -54 85.5 -70t165.5 -16h15v-135h-15q-195 0 -287 58.5t-120 158.5q-98 -12 -193.5 -58.5t-157.5 -128.5t-62 -202q0 -175 113.5 -270t303.5 -95q22 0 68 2.5t74 7.5q-6 -39 -24.5 -76.5t-36.5 -58.5q-13 -4 -33 -7
t-49 -3zM270 659q-19 11 -32.5 33t-17.5 37q29 8 69 15.5t86 14.5q-69 29 -100 59t-31 76q0 44 41.5 86t117.5 42q47 0 85.5 -18t72.5 -47q-4 -19 -20 -35t-30 -24q-32 23 -61.5 33t-51.5 10t-42 -11t-20 -38q0 -22 39.5 -47.5t166.5 -65.5q0 -14 -9 -35.5t-21 -34.5
q-94 -7 -156.5 -24.5t-85.5 -25.5z" />
            <glyph glyph-name="uni0682.init" unicode="&#x682;" horiz-adv-x="1048" d="M-20 -10v135h20q123 0 211.5 15t163.5 34t154.5 34t183.5 15q-118 106 -214.5 161t-186.5 55q-101 0 -206 -74q-19 8 -29.5 17.5t-21.5 24.5q78 98 147 140t142 42q95 0 200 -64.5t215 -164.5t219 -207q-13 -32 -34.5 -57.5t-50.5 -39.5q-36 24 -73 32t-111 8
q-113 0 -226 -26.5t-236.5 -53t-266.5 -26.5zM319 703q-54 39 -89 70.5t-42 45.5l98 122l144 -115q-85 -114 -111 -123zM289 916q-53 38 -87.5 70t-42.5 46l98 121l143 -114q-83 -114 -111 -123z" />
            <glyph glyph-name="uni0682.medi" unicode="&#x682;" horiz-adv-x="949" d="M-20 -10v135h20q97 0 166.5 19.5t131.5 50t135.5 63.5t177.5 59q-84 55 -147.5 89t-140.5 34q-51 0 -105 -18t-112 -57q-18 10 -29 19.5t-22 22.5q78 98 147 140t142 42q79 0 139.5 -29.5t120.5 -74.5t136 -92.5t185 -83.5q-14 -32 -28.5 -64.5t-34.5 -54.5
q-64 15 -120 15q-97 0 -181 -32.5t-169 -75t-184 -75t-228 -32.5zM929 -10q-158 0 -247.5 59t-139.5 160l152 17q34 -64 104 -82.5t151 -18.5h20v-135h-40zM359 703q-54 39 -89 70.5t-42 45.5l98 122l144 -115q-85 -114 -111 -123zM329 916q-53 38 -87.5 70t-42.5 46l98 121
l143 -114q-83 -114 -111 -123z" />
            <glyph glyph-name="uni0682.fina" unicode="&#x682;" horiz-adv-x="1028" d="M629 -682q-185 0 -309.5 65.5t-187 176.5t-62.5 247q0 95 37.5 186.5t113.5 166.5t190.5 120.5t268.5 46.5q-76 50 -138 81.5t-135 31.5q-51 0 -105 -18t-112 -57q-19 8 -29.5 17.5t-21.5 24.5q78 98 147 140t142 42q79 0 139.5 -29.5t120.5 -74.5t136 -92.5t185 -83.5
q-14 -32 -28.5 -64.5t-34.5 -54.5q-81 16 -164 21q17 -54 85.5 -70t165.5 -16h15v-135h-15q-195 0 -287 58.5t-120 158.5q-98 -12 -193.5 -58.5t-157.5 -128.5t-62 -202q0 -175 113.5 -270t303.5 -95q22 0 68 2.5t74 7.5q-6 -39 -24.5 -76.5t-36.5 -58.5q-13 -4 -33 -7
t-49 -3zM402 656q-54 39 -89 70.5t-42 45.5l98 122l144 -115q-85 -114 -111 -123zM372 869q-53 38 -87.5 70t-42.5 46l98 121l143 -114q-83 -114 -111 -123z" />
            <glyph glyph-name="uni0685.init" unicode="&#x685;" horiz-adv-x="1048" d="M-20 -10v135h20q123 0 211.5 15t163.5 34t154.5 34t183.5 15q-118 106 -214.5 161t-186.5 55q-101 0 -206 -74q-19 8 -29.5 17.5t-21.5 24.5q78 98 147 140t142 42q95 0 200 -64.5t215 -164.5t219 -207q-13 -32 -34.5 -57.5t-50.5 -39.5q-36 24 -73 32t-111 8
q-113 0 -226 -26.5t-236.5 -53t-266.5 -26.5zM324 894q-53 39 -88 70.5t-43 45.5l99 122l143 -115q-87 -116 -111 -123zM249 645q-54 39 -88.5 70t-42.5 47l99 121l143 -115q-42 -56 -71 -87t-40 -36zM464 663q-53 39 -89 70.5t-42 45.5l99 122l143 -116q-84 -112 -111 -122
z" />
            <glyph glyph-name="uni0685.medi" unicode="&#x685;" horiz-adv-x="949" d="M-20 -10v135h20q97 0 166.5 19.5t131.5 50t135.5 63.5t177.5 59q-84 55 -147.5 89t-140.5 34q-51 0 -105 -18t-112 -57q-18 10 -29 19.5t-22 22.5q78 98 147 140t142 42q79 0 139.5 -29.5t120.5 -74.5t136 -92.5t185 -83.5q-14 -32 -28.5 -64.5t-34.5 -54.5
q-64 15 -120 15q-97 0 -181 -32.5t-169 -75t-184 -75t-228 -32.5zM929 -10q-158 0 -247.5 59t-139.5 160l152 17q34 -64 104 -82.5t151 -18.5h20v-135h-40zM324 894q-53 39 -88 70.5t-43 45.5l99 122l143 -115q-87 -116 -111 -123zM249 645q-54 39 -88.5 70t-42.5 47l99 121
l143 -115q-42 -56 -71 -87t-40 -36zM464 663q-53 39 -89 70.5t-42 45.5l99 122l143 -116q-84 -112 -111 -122z" />
            <glyph glyph-name="uni0685.fina" unicode="&#x685;" horiz-adv-x="1028" d="M629 -682q-185 0 -309.5 65.5t-187 176.5t-62.5 247q0 95 37.5 186.5t113.5 166.5t190.5 120.5t268.5 46.5q-76 50 -138 81.5t-135 31.5q-51 0 -105 -18t-112 -57q-19 8 -29.5 17.5t-21.5 24.5q78 98 147 140t142 42q79 0 139.5 -29.5t120.5 -74.5t136 -92.5t185 -83.5
q-14 -32 -28.5 -64.5t-34.5 -54.5q-81 16 -164 21q17 -54 85.5 -70t165.5 -16h15v-135h-15q-195 0 -287 58.5t-120 158.5q-98 -12 -193.5 -58.5t-157.5 -128.5t-62 -202q0 -175 113.5 -270t303.5 -95q22 0 68 2.5t74 7.5q-6 -39 -24.5 -76.5t-36.5 -58.5q-13 -4 -33 -7
t-49 -3zM367 897q-53 39 -88 70.5t-43 45.5l99 122l143 -115q-87 -116 -111 -123zM292 648q-54 39 -88.5 70t-42.5 47l99 121l143 -115q-42 -56 -71 -87t-40 -36zM507 666q-53 39 -89 70.5t-42 45.5l99 122l143 -116q-84 -112 -111 -122z" />
            <glyph glyph-name="uni062E.init" unicode="&#x62e;" horiz-adv-x="1048" arabic-form="initial" d="M-20 -10v135h20q123 0 211.5 15t163.5 34t154.5 34t183.5 15q-118 106 -214.5 161t-186.5 55q-101 0 -206 -74q-19 8 -29.5 17.5t-21.5 24.5q78 98 147 140t142 42q95 0 200 -64.5t215 -164.5t219 -207q-13 -32 -34.5 -57.5t-50.5 -39.5q-36 24 -73 32t-111 8
q-113 0 -226 -26.5t-236.5 -53t-266.5 -26.5zM338 687q-56 41 -93 74t-44 48l103 128l151 -120q-88 -121 -117 -130z" />
            <glyph glyph-name="uni062E.medi" unicode="&#x62e;" horiz-adv-x="949" arabic-form="medial" d="M-20 -10v135h20q97 0 166.5 19.5t131.5 50t135.5 63.5t177.5 59q-84 55 -147.5 89t-140.5 34q-51 0 -105 -18t-112 -57q-18 10 -29 19.5t-22 22.5q78 98 147 140t142 42q79 0 139.5 -29.5t120.5 -74.5t136 -92.5t185 -83.5q-14 -32 -28.5 -64.5t-34.5 -54.5
q-64 15 -120 15q-97 0 -181 -32.5t-169 -75t-184 -75t-228 -32.5zM929 -10q-158 0 -247.5 59t-139.5 160l152 17q34 -64 104 -82.5t151 -18.5h20v-135h-40zM358 687q-56 41 -93 74t-44 48l103 128l151 -120q-88 -121 -117 -130z" />
            <glyph glyph-name="uni062E.fina" unicode="&#x62e;" horiz-adv-x="1028" arabic-form="final" d="M629 -682q-185 0 -309.5 65.5t-187 176.5t-62.5 247q0 95 37.5 186.5t113.5 166.5t190.5 120.5t268.5 46.5q-76 50 -138 81.5t-135 31.5q-51 0 -105 -18t-112 -57q-19 8 -29.5 17.5t-21.5 24.5q78 98 147 140t142 42q79 0 139.5 -29.5t120.5 -74.5t136 -92.5t185 -83.5
q-14 -32 -28.5 -64.5t-34.5 -54.5q-81 16 -164 21q17 -54 85.5 -70t165.5 -16h15v-135h-15q-195 0 -287 58.5t-120 158.5q-98 -12 -193.5 -58.5t-157.5 -128.5t-62 -202q0 -175 113.5 -270t303.5 -95q22 0 68 2.5t74 7.5q-6 -39 -24.5 -76.5t-36.5 -58.5q-13 -4 -33 -7
t-49 -3zM431 670q-56 41 -93 74t-44 48l103 128l151 -120q-88 -121 -117 -130z" />
            <glyph glyph-name="uni062F.fina" unicode="&#x62f;" horiz-adv-x="872" arabic-form="final" d="M872 -10q-92 0 -170.5 48t-128.5 182l81 4q-43 -121 -159.5 -171t-262.5 -50q-36 0 -71 3t-68 7q-11 23 -17 47t-6 55q0 21 3 40q78 -19 166 -19q107 0 191 33.5t119 114.5q-20 65 -36 116t-31.5 102t-35 114.5t-47.5 152.5q26 36 57 61t75 41q51 -207 88.5 -350
t69.5 -235q35 -100 83 -130.5t100 -30.5h20v-135h-20z" />
            <glyph glyph-name="uni0630.fina" unicode="&#x630;" horiz-adv-x="872" arabic-form="final" d="M872 -10q-92 0 -170.5 48t-128.5 182l81 4q-43 -121 -159.5 -171t-262.5 -50q-36 0 -71 3t-68 7q-11 23 -17 47t-6 55q0 21 3 40q78 -19 166 -19q107 0 191 33.5t119 114.5q-20 65 -36 116t-31.5 102t-35 114.5t-47.5 152.5q26 36 57 61t75 41q51 -207 88.5 -350
t69.5 -235q35 -100 83 -130.5t100 -30.5h20v-135h-20zM427 893q-56 41 -93 74t-44 48l103 128l151 -120q-88 -121 -117 -130z" />
            <glyph glyph-name="uni0688.fina" unicode="&#x688;" horiz-adv-x="872" arabic-form="final" d="M872 -10q-92 0 -170.5 48t-128.5 182l81 4q-43 -121 -159.5 -171t-262.5 -50q-36 0 -71 3t-68 7q-11 23 -17 47t-6 55q0 21 3 40q78 -19 166 -19q107 0 191 33.5t119 114.5q-20 65 -36 116t-31.5 102t-35 114.5t-47.5 152.5q26 36 57 61t75 41q51 -207 88.5 -350
t69.5 -235q35 -100 83 -130.5t100 -30.5h20v-135h-20zM418 926q-67 0 -127.5 8t-107.5 8q-21 39 -24 84q8 0 30 -1t27 -2q33 28 71 70t89 74.5t121 32.5q57 0 89 -37.5t32 -85.5q0 -55 -47 -103t-153 -48zM436 1004q50 0 73.5 22t23.5 46q0 20 -14 34t-40 14
q-41 0 -91 -35.5t-82 -74.5q20 -2 57.5 -4t72.5 -2zM260 1034q-1 96 -6 184t-7 138q17 24 45.5 38t48.5 16q1 -68 -2 -152.5t-5 -155.5z" />
            <glyph glyph-name="uni068C.fina" unicode="&#x68c;" horiz-adv-x="872" arabic-form="final" d="M872 -10q-92 0 -170.5 48t-128.5 182l81 4q-43 -121 -159.5 -171t-262.5 -50q-36 0 -71 3t-68 7q-11 23 -17 47t-6 55q0 21 3 40q78 -19 166 -19q107 0 191 33.5t119 114.5q-20 65 -36 116t-31.5 102t-35 114.5t-47.5 152.5q26 36 57 61t75 41q51 -207 88.5 -350
t69.5 -235q35 -100 83 -130.5t100 -30.5h20v-135h-20zM555 925q-53 38 -88.5 70t-41.5 46l108 121l143 -114q-41 -56 -75.5 -87.5t-45.5 -35.5zM340 908q-53 38 -88 69.5t-42 46.5l108 121l143 -115q-41 -56 -75.5 -87.5t-45.5 -34.5z" />
            <glyph glyph-name="uni068D.fina" unicode="&#x68d;" horiz-adv-x="872" arabic-form="final" d="M872 -10q-92 0 -170.5 48t-128.5 182l81 4q-43 -121 -159.5 -171t-262.5 -50q-36 0 -71 3t-68 7q-11 23 -17 47t-6 55q0 21 3 40q78 -19 166 -19q107 0 191 33.5t119 114.5q-20 65 -36 116t-31.5 102t-35 114.5t-47.5 152.5q26 36 57 61t75 41q51 -207 88.5 -350
t69.5 -235q35 -100 83 -130.5t100 -30.5h20v-135h-20zM560 -297q-53 38 -88.5 70t-41.5 46l108 121l143 -114q-41 -56 -75.5 -87.5t-45.5 -35.5zM345 -314q-53 38 -88 69.5t-42 46.5l108 121l143 -115q-41 -56 -75.5 -87.5t-45.5 -34.5z" />
            <glyph glyph-name="uni0689.fina" unicode="&#x689;" horiz-adv-x="872" d="M872 -10q-92 0 -170.5 48t-128.5 182l81 4q-43 -121 -159.5 -171t-262.5 -50q-36 0 -71 3t-68 7q-11 23 -17 47t-6 55q0 21 3 40q78 -19 166 -19q107 0 191 33.5t119 114.5q-20 65 -36 116t-31.5 102t-35 114.5t-47.5 152.5q26 36 57 61t75 41q51 -207 88.5 -350
t69.5 -235q35 -100 83 -130.5t100 -30.5h20v-135h-20zM426 -195q-76 0 -113.5 44t-37.5 99q0 56 39 103t112 47q75 0 114 -46.5t39 -102.5q0 -54 -38 -99t-115 -45zM428 -116q36 0 53.5 20.5t17.5 45.5q0 27 -18.5 50t-53.5 23t-53 -22t-18 -49q0 -25 18 -46.5t54 -21.5z
" />
            <glyph glyph-name="uni068A.fina" unicode="&#x68a;" horiz-adv-x="872" d="M872 -10q-92 0 -170.5 48t-128.5 182l81 4q-43 -121 -159.5 -171t-262.5 -50q-36 0 -71 3t-68 7q-11 23 -17 47t-6 55q0 21 3 40q78 -19 166 -19q107 0 191 33.5t119 114.5q-20 65 -36 116t-31.5 102t-35 114.5t-47.5 152.5q26 36 57 61t75 41q51 -207 88.5 -350
t69.5 -235q35 -100 83 -130.5t100 -30.5h20v-135h-20zM457 -340q-56 41 -93 74t-44 48l103 128l151 -120q-88 -121 -117 -130z" />
            <glyph glyph-name="uni068B.fina" unicode="&#x68b;" horiz-adv-x="872" d="M872 -10q-92 0 -170.5 48t-128.5 182l81 4q-43 -121 -159.5 -171t-262.5 -50q-36 0 -71 3t-68 7q-11 23 -17 47t-6 55q0 21 3 40q78 -19 166 -19q107 0 191 33.5t119 114.5q-20 65 -36 116t-31.5 102t-35 114.5t-47.5 152.5q26 36 57 61t75 41q51 -207 88.5 -350
t69.5 -235q35 -100 83 -130.5t100 -30.5h20v-135h-20zM410.121 892.242q-67.2705 0 -128.014 8.04199q-60.7441 8.04102 -107.934 8.04102q-21.084 39.2031 -24.0967 84.4365q8.03223 0 30.1211 -1.00586q22.0889 -1.00488 27.1084 -2.00977
q33.1338 28.1445 71.2861 70.3633q38.1533 42.2178 89.3584 74.8857q51.2061 32.6689 121.488 32.6689q57.2295 0 89.3584 -37.6943t32.1289 -85.9434q0 -55.2861 -47.1895 -103.535t-153.616 -48.249zM428.193 970.647q50.2012 0 73.7959 22.1143
q23.5947 22.1133 23.5947 46.2383q0 20.1035 -14.0566 34.1768q-14.0557 14.0723 -40.1611 14.0723q-41.165 0 -91.3662 -35.6846q-50.2012 -35.6836 -82.3301 -74.8857q20.0801 -2.01074 57.7314 -4.02148q37.6514 -2.00977 72.792 -2.00977zM251.484 1000.8
q-1.00391 96.498 -6.02441 184.955q-5.01953 88.4561 -7.02832 138.716q17.0684 24.124 45.6836 38.1973q28.6152 14.0723 48.6953 16.083q1.00391 -68.3535 -2.00781 -153.292q-3.01172 -84.9375 -5.02051 -156.307zM450 -361q-56 41 -93 74t-44 48l103 128l151 -120
q-88 -121 -117 -130z" />
            <glyph glyph-name="uni068E.fina" unicode="&#x68e;" horiz-adv-x="872" arabic-form="final" d="M872 -10q-92 0 -170.5 48t-128.5 182l81 4q-43 -121 -159.5 -171t-262.5 -50q-36 0 -71 3t-68 7q-11 23 -17 47t-6 55q0 21 3 40q78 -19 166 -19q107 0 191 33.5t119 114.5q-20 65 -36 116t-31.5 102t-35 114.5t-47.5 152.5q26 36 57 61t75 41q51 -207 88.5 -350
t69.5 -235q35 -100 83 -130.5t100 -30.5h20v-135h-20zM401 1161q-53 39 -88 70.5t-43 45.5l99 122l143 -115q-87 -116 -111 -123zM326 912q-54 39 -88.5 70t-42.5 47l99 121l143 -115q-42 -56 -71 -87t-40 -36zM541 930q-53 39 -89 70.5t-42 45.5l99 122l143 -116
q-84 -112 -111 -122z" />
            <glyph glyph-name="uni068F.fina" unicode="&#x68f;" horiz-adv-x="872" d="M872 -10q-92 0 -170.5 48t-128.5 182l81 4q-43 -121 -159.5 -171t-262.5 -50q-36 0 -71 3t-68 7q-11 23 -17 47t-6 55q0 21 3 40q78 -19 166 -19q107 0 191 33.5t119 114.5q-20 65 -36 116t-31.5 102t-35 114.5t-47.5 152.5q26 36 57 61t75 41q51 -207 88.5 -350
t69.5 -235q35 -100 83 -130.5t100 -30.5h20v-135h-20zM510 1098l-143 115q41 56 70.5 87.5t40.5 35.5q53 -39 88 -70.5t42 -46.5zM434 849l-142 115q83 114 111 123q53 -39 88 -70.5t42 -46.5zM295 1080l-143 115q83 113 111 122q53 -38 88.5 -69.5t41.5 -46.5z" />
            <glyph glyph-name="uni0690.fina" unicode="&#x690;" horiz-adv-x="872" d="M872 -10q-92 0 -170.5 48t-128.5 182l81 4q-43 -121 -159.5 -171t-262.5 -50q-36 0 -71 3t-68 7q-11 23 -17 47t-6 55q0 21 3 40q78 -19 166 -19q107 0 191 33.5t119 114.5q-20 65 -36 116t-31.5 102t-35 114.5t-47.5 152.5q26 36 57 61t75 41q51 -207 88.5 -350
t69.5 -235q35 -100 83 -130.5t100 -30.5h20v-135h-20zM505 1143q-53 38 -88.5 70t-41.5 46l108 121l143 -114q-41 -56 -75.5 -87.5t-45.5 -35.5zM314 891q-53 38 -88 69.5t-42 46.5l108 121l143 -115q-41 -56 -75.5 -87.5t-45.5 -34.5zM290 1126q-53 38 -88 69.5t-42 46.5
l108 121l143 -115q-41 -56 -75.5 -87.5t-45.5 -34.5zM529 908q-53 38 -88.5 70t-41.5 46l108 121l143 -114q-41 -56 -75.5 -87.5t-45.5 -35.5z" />
            <glyph glyph-name="uni06EE.fina" unicode="&#x6ee;" horiz-adv-x="872" d="M872 -10q-92 0 -170.5 48t-128.5 182l81 4q-43 -121 -159.5 -171t-262.5 -50q-36 0 -71 3t-68 7q-11 23 -17 47t-6 55q0 21 3 40q78 -19 166 -19q107 0 191 33.5t119 114.5q-20 65 -36 116t-31.5 102t-35 114.5t-47.5 152.5q26 36 57 61t75 41q51 -207 88.5 -350
t69.5 -235q35 -100 83 -130.5t100 -30.5h20v-135h-20zM307 860q-4 0 -22 22t-27 54q32 45 78.5 96t87.5 86.5t55 35.5q12 0 40.5 -23t62.5 -56t64.5 -65t46.5 -50q-4 -37 -21.5 -68t-24.5 -31q-46 51 -94 100t-89 77q-40 -36 -86 -90t-71 -88z" />
            <glyph glyph-name="uni0631.fina" unicode="&#x631;" horiz-adv-x="696" arabic-form="final" d="M21 -666q-35 26 -54 60t-22 66q163 59 254 144.5t128.5 201t37.5 262.5q0 65 -5.5 136.5t-15.5 149.5q62 33 140 37q34 -136 81 -201t132 -65h19v-135h-33q-58 0 -109.5 26.5t-82.5 74.5q1 -16 1 -31v-30q0 -255 -110.5 -427.5t-360.5 -268.5z" />
            <glyph glyph-name="uni0632.fina" unicode="&#x632;" horiz-adv-x="696" arabic-form="final" d="M21 -666q-35 26 -54 60t-22 66q163 59 254 144.5t128.5 201t37.5 262.5q0 65 -5.5 136.5t-15.5 149.5q62 33 140 37q34 -136 81 -201t132 -65h19v-135h-33q-58 0 -109.5 26.5t-82.5 74.5q1 -16 1 -31v-30q0 -255 -110.5 -427.5t-360.5 -268.5zM394 484q-56 41 -93 74
t-44 48l103 128l151 -120q-88 -121 -117 -130z" />
            <glyph glyph-name="uni0691.fina" unicode="&#x691;" horiz-adv-x="696" arabic-form="final" d="M21 -666q-35 26 -54 60t-22 66q163 59 254 144.5t128.5 201t37.5 262.5q0 65 -5.5 136.5t-15.5 149.5q62 33 140 37q34 -136 81 -201t132 -65h19v-135h-33q-58 0 -109.5 26.5t-82.5 74.5q1 -16 1 -31v-30q0 -255 -110.5 -427.5t-360.5 -268.5zM405 460q-67 0 -127.5 8
t-107.5 8q-21 39 -24 84q8 0 30 -1t27 -2q33 28 71 70t89 74.5t121 32.5q57 0 89 -37.5t32 -85.5q0 -55 -47 -103t-153 -48zM423 538q50 0 73.5 22t23.5 46q0 20 -14 34t-40 14q-41 0 -91 -35.5t-82 -74.5q20 -2 57.5 -4t72.5 -2zM247 568q-1 96 -6 184t-7 138
q17 24 45.5 38t48.5 16q1 -68 -2 -152.5t-5 -155.5z" />
            <glyph glyph-name="uni0692.fina" unicode="&#x692;" horiz-adv-x="696" d="M21 -666q-35 26 -54 60t-22 66q163 59 254 144.5t128.5 201t37.5 262.5q0 65 -5.5 136.5t-15.5 149.5q62 33 140 37q34 -136 81 -201t132 -65h19v-135h-33q-58 0 -109.5 26.5t-82.5 74.5q1 -16 1 -31v-30q0 -255 -110.5 -427.5t-360.5 -268.5zM369 493q-12 0 -40.5 23
t-62.5 56t-64 65t-47 50q4 38 21.5 68.5t24.5 30.5q46 -51 94 -99.5t89 -77.5q40 36 86 90t71 88q5 0 22.5 -22t26.5 -54q-31 -45 -78 -95.5t-87.5 -86.5t-55.5 -36z" />
            <glyph glyph-name="uni0693.fina" unicode="&#x693;" horiz-adv-x="696" d="M21 -666q-35 26 -54 60t-22 66q163 59 254 144.5t128.5 201t37.5 262.5q0 65 -5.5 136.5t-15.5 149.5q62 33 140 37q34 -136 81 -201t132 -65h19v-135h-33q-58 0 -109.5 26.5t-82.5 74.5q1 -16 1 -31v-30q0 -255 -110.5 -427.5t-360.5 -268.5zM301 -746q-76 0 -113.5 44
t-37.5 99q0 56 39 103t112 47q75 0 114 -46.5t39 -102.5q0 -54 -38 -99t-115 -45zM303 -667q36 0 53.5 20.5t17.5 45.5q0 27 -18.5 50t-53.5 23t-53 -22t-18 -49q0 -25 18 -46.5t54 -21.5z" />
            <glyph glyph-name="uni0694.fina" unicode="&#x694;" horiz-adv-x="696" d="M21 -666q-35 26 -54 60t-22 66q163 59 254 144.5t128.5 201t37.5 262.5q0 65 -5.5 136.5t-15.5 149.5q62 33 140 37q34 -136 81 -201t132 -65h19v-135h-33q-58 0 -109.5 26.5t-82.5 74.5q1 -16 1 -31v-30q0 -255 -110.5 -427.5t-360.5 -268.5zM328 -894q-56 41 -93 74
t-44 48l103 128l151 -120q-88 -121 -117 -130z" />
            <glyph glyph-name="uni0695.fina" unicode="&#x695;" horiz-adv-x="696" d="M21 -666q-35 26 -54 60t-22 66q163 59 254 144.5t128.5 201t37.5 262.5q0 65 -5.5 136.5t-15.5 149.5q62 33 140 37q34 -136 81 -201t132 -65h19v-135h-33q-58 0 -109.5 26.5t-82.5 74.5q1 -16 1 -31v-30q0 -255 -110.5 -427.5t-360.5 -268.5zM293 -1014q-12 0 -40.5 23
t-62.5 56t-64 65t-47 50q4 38 21.5 68.5t24.5 30.5q46 -51 94 -99.5t89 -77.5q40 36 86 90t71 88q5 0 22.5 -22t26.5 -54q-31 -45 -78 -95.5t-87.5 -86.5t-55.5 -36z" />
            <glyph glyph-name="uni0696.fina" unicode="&#x696;" horiz-adv-x="696" d="M21 -666q-35 26 -54 60t-22 66q163 59 254 144.5t128.5 201t37.5 262.5q0 65 -5.5 136.5t-15.5 149.5q62 33 140 37q34 -136 81 -201t132 -65h19v-135h-33q-58 0 -109.5 26.5t-82.5 74.5q1 -16 1 -31v-30q0 -255 -110.5 -427.5t-360.5 -268.5zM348 -896q-56 41 -93 74
t-44 48l103 128l151 -120q-88 -121 -117 -130zM99 -265q-56 41 -93 74t-44 48l103 128l151 -120q-88 -121 -117 -130z" />
            <glyph glyph-name="uni0697.fina" unicode="&#x697;" horiz-adv-x="696" d="M21 -666q-35 26 -54 60t-22 66q163 59 254 144.5t128.5 201t37.5 262.5q0 65 -5.5 136.5t-15.5 149.5q62 33 140 37q34 -136 81 -201t132 -65h19v-135h-33q-58 0 -109.5 26.5t-82.5 74.5q1 -16 1 -31v-30q0 -255 -110.5 -427.5t-360.5 -268.5zM494 499q-53 38 -88.5 70
t-41.5 46l108 121l143 -114q-41 -56 -75.5 -87.5t-45.5 -35.5zM279 482q-53 38 -88 69.5t-42 46.5l108 121l143 -115q-41 -56 -75.5 -87.5t-45.5 -34.5z" />
            <glyph glyph-name="uni0698.fina" unicode="&#x698;" horiz-adv-x="696" arabic-form="final" d="M21 -666q-35 26 -54 60t-22 66q163 59 254 144.5t128.5 201t37.5 262.5q0 65 -5.5 136.5t-15.5 149.5q62 33 140 37q34 -136 81 -201t132 -65h19v-135h-33q-58 0 -109.5 26.5t-82.5 74.5q1 -16 1 -31v-30q0 -255 -110.5 -427.5t-360.5 -268.5zM354 711q-53 39 -88 70.5
t-43 45.5l99 122l143 -115q-87 -116 -111 -123zM279 462q-54 39 -88.5 70t-42.5 47l99 121l143 -115q-42 -56 -71 -87t-40 -36zM494 480q-53 39 -89 70.5t-42 45.5l99 122l143 -116q-84 -112 -111 -122z" />
            <glyph glyph-name="uni0699.fina" unicode="&#x699;" horiz-adv-x="696" d="M21 -666q-35 26 -54 60t-22 66q163 59 254 144.5t128.5 201t37.5 262.5q0 65 -5.5 136.5t-15.5 149.5q62 33 140 37q34 -136 81 -201t132 -65h19v-135h-33q-58 0 -109.5 26.5t-82.5 74.5q1 -16 1 -31v-30q0 -255 -110.5 -427.5t-360.5 -268.5zM470 734q-53 38 -88.5 70
t-41.5 46l108 121l143 -114q-41 -56 -75.5 -87.5t-45.5 -35.5zM279 482q-53 38 -88 69.5t-42 46.5l108 121l143 -115q-41 -56 -75.5 -87.5t-45.5 -34.5zM255 717q-53 38 -88 69.5t-42 46.5l108 121l143 -115q-41 -56 -75.5 -87.5t-45.5 -34.5zM494 499q-53 38 -88.5 70
t-41.5 46l108 121l143 -114q-41 -56 -75.5 -87.5t-45.5 -35.5z" />
            <glyph glyph-name="uni06EF.fina" unicode="&#x6ef;" horiz-adv-x="696" d="M21 -666q-35 26 -54 60t-22 66q163 59 254 144.5t128.5 201t37.5 262.5q0 65 -5.5 136.5t-15.5 149.5q62 33 140 37q34 -136 81 -201t132 -65h19v-135h-33q-58 0 -109.5 26.5t-82.5 74.5q1 -16 1 -31v-30q0 -255 -110.5 -427.5t-360.5 -268.5zM213 457q-4 0 -22 22
t-27 54q32 45 78.5 96t87.5 86.5t55 35.5q12 0 40.5 -23t62.5 -56t64.5 -65t46.5 -50q-4 -37 -21.5 -68t-24.5 -31q-46 51 -94 100t-89 77q-40 -36 -86 -90t-71 -88z" />
            <glyph glyph-name="uni0633.init" unicode="&#x633;" horiz-adv-x="1227" arabic-form="initial" d="M469 -18q-71 0 -135.5 36t-99.5 107q-27 -61 -92 -98t-142 -37h-20v135h20q32 0 71.5 18t68.5 61.5t29 121.5l-13 65q31 14 62.5 21.5t74.5 10.5q13 -78 35 -148.5t58.5 -115t90.5 -44.5q57 0 87.5 29.5t42 76t11.5 96.5q0 7 -0.5 13.5t-0.5 13.5l-3 20q-4 32 -12 57
q25 13 65.5 23t73.5 12q35 -181 71.5 -256t97.5 -75q53 0 83 42.5t30 100.5q0 62 -17 126t-30 96q27 15 63 26t73 13q45 -135 45 -247q0 -85 -33.5 -151t-90 -103.5t-126.5 -37.5q-61 0 -114.5 27t-94.5 91q-39 -63 -101 -94.5t-128 -31.5z" />
            <glyph glyph-name="uni0633.medi" unicode="&#x633;" horiz-adv-x="1355" arabic-form="medial" d="M467 -20q-82 0 -138.5 40t-93.5 107q-27 -62 -92.5 -99.5t-142.5 -37.5h-21v135h21q35 0 74.5 20t67 64.5t27.5 116.5l-13 65q31 11 64 19.5t73 12.5q13 -78 35 -148.5t58.5 -115t90.5 -44.5q81 0 112 61t31 134v17.5t-1 17.5l-14 68q66 28 137 33q16 -83 35.5 -156.5
t51.5 -119t83 -45.5q54 0 86 51.5t32 139.5v23t-2 26l-14 70q23 12 61 23t74 12q30 -169 77 -257t129 -88h20v-135h-20q-94 0 -154.5 43.5t-97.5 98.5q-26 -67 -79.5 -104.5t-124.5 -37.5q-128 0 -205 123q-39 -64 -94.5 -98.5t-132.5 -34.5z" />
            <glyph glyph-name="uni0633.fina" unicode="&#x633;" horiz-adv-x="1915" arabic-form="final" d="M444 -565q-129 0 -212 49.5t-122.5 130t-39.5 173.5q0 88 33 177t94 162q22 -7 40 -21.5t34 -34.5q-73 -103 -73 -238q0 -109 61.5 -186.5t194.5 -77.5q103 0 167 51t94 139.5t30 200.5q0 122 -19 240t-30 191q62 24 137 32q41 -155 85 -226.5t119 -71.5q69 0 98.5 51.5
t29.5 112.5q0 14 -2 27.5t-4 28.5l-14 68q29 13 63.5 22t73.5 11q16 -83 35.5 -156.5t51.5 -119t83 -45.5q45 0 71.5 28.5t38.5 71t12 83.5q0 22 -1 30t-5 27l-14 70q29 12 64 21.5t71 13.5q61 -345 226 -345h20v-135h-20q-91 0 -155 44t-105 107q-28 -67 -82 -109t-134 -42
q-133 0 -204 129q-28 -56 -83 -97.5t-125 -41.5q-46 0 -86 15t-72 41q2 -28 2 -56.5v-45.5q0 -238 -118 -368.5t-309 -130.5z" />
            <glyph glyph-name="uni069A.init" unicode="&#x69a;" horiz-adv-x="1227" d="M469 -18q-71 0 -135.5 36t-99.5 107q-27 -61 -92 -98t-142 -37h-20v135h20q32 0 71.5 18t68.5 61.5t29 121.5l-13 65q31 14 62.5 21.5t74.5 10.5q13 -78 35 -148.5t58.5 -115t90.5 -44.5q57 0 87.5 29.5t42 76t11.5 96.5q0 7 -0.5 13.5t-0.5 13.5l-3 20q-4 32 -12 57
q25 13 65.5 23t73.5 12q35 -181 71.5 -256t97.5 -75q53 0 83 42.5t30 100.5q0 62 -17 126t-30 96q27 15 63 26t73 13q45 -135 45 -247q0 -85 -33.5 -151t-90 -103.5t-126.5 -37.5q-61 0 -114.5 27t-94.5 91q-39 -63 -101 -94.5t-128 -31.5zM736 -340q-56 41 -93 74t-44 48
l103 128l151 -120q-88 -121 -117 -130zM660 588q-56 41 -93 74t-44 48l103 128l151 -120q-88 -121 -117 -130z" />
            <glyph glyph-name="uni069A.medi" unicode="&#x69a;" horiz-adv-x="1356" d="M468 -20q-82 0 -138.5 40t-93.5 107q-27 -62 -92.5 -99.5t-142.5 -37.5h-21v135h21q35 0 74.5 20t67 64.5t27.5 116.5l-13 65q31 11 64 19.5t73 12.5q13 -78 35 -148.5t58.5 -115t90.5 -44.5q81 0 112 61t31 134v17.5t-1 17.5l-14 68q66 28 137 33q16 -83 35.5 -156.5
t51.5 -119t83 -45.5q54 0 86 51.5t32 139.5v23t-2 26l-14 70q23 12 61 23t74 12q30 -169 77 -257t129 -88h20v-135h-20q-94 0 -154.5 43.5t-97.5 98.5q-26 -67 -79.5 -104.5t-124.5 -37.5q-128 0 -205 123q-39 -64 -94.5 -98.5t-132.5 -34.5zM713 -354q-56 41 -93 74t-44 48
l103 128l151 -120q-88 -121 -117 -130zM674 588q-56 41 -93 74t-44 48l103 128l151 -120q-88 -121 -117 -130z" />
            <glyph glyph-name="uni069A.fina" unicode="&#x69a;" horiz-adv-x="1915" d="M444 -565q-129 0 -212 49.5t-122.5 130t-39.5 173.5q0 88 33 177t94 162q22 -7 40 -21.5t34 -34.5q-73 -103 -73 -238q0 -109 61.5 -186.5t194.5 -77.5q103 0 167 51t94 139.5t30 200.5q0 122 -19 240t-30 191q62 24 137 32q41 -155 85 -226.5t119 -71.5q69 0 98.5 51.5
t29.5 112.5q0 14 -2 27.5t-4 28.5l-14 68q29 13 63.5 22t73.5 11q16 -83 35.5 -156.5t51.5 -119t83 -45.5q45 0 71.5 28.5t38.5 71t12 83.5q0 22 -1 30t-5 27l-14 70q29 12 64 21.5t71 13.5q61 -345 226 -345h20v-135h-20q-91 0 -155 44t-105 107q-28 -67 -82 -109t-134 -42
q-133 0 -204 129q-28 -56 -83 -97.5t-125 -41.5q-46 0 -86 15t-72 41q2 -28 2 -56.5v-45.5q0 -238 -118 -368.5t-309 -130.5zM1298 -322q-56 41 -93 74t-44 48l103 128l151 -120q-88 -121 -117 -130zM1200 588q-56 41 -93 74t-44 48l103 128l151 -120q-88 -121 -117 -130z
" />
            <glyph glyph-name="uni069B.init" unicode="&#x69b;" horiz-adv-x="1227" d="M469 -18q-71 0 -135.5 36t-99.5 107q-27 -61 -92 -98t-142 -37h-20v135h20q32 0 71.5 18t68.5 61.5t29 121.5l-13 65q31 14 62.5 21.5t74.5 10.5q13 -78 35 -148.5t58.5 -115t90.5 -44.5q57 0 87.5 29.5t42 76t11.5 96.5q0 7 -0.5 13.5t-0.5 13.5l-3 20q-4 32 -12 57
q25 13 65.5 23t73.5 12q35 -181 71.5 -256t97.5 -75q53 0 83 42.5t30 100.5q0 62 -17 126t-30 96q27 15 63 26t73 13q45 -135 45 -247q0 -85 -33.5 -151t-90 -103.5t-126.5 -37.5q-61 0 -114.5 27t-94.5 91q-39 -63 -101 -94.5t-128 -31.5zM832 -369l-143 115
q41 56 70.5 87.5t40.5 35.5q53 -39 88 -70.5t42 -46.5zM756 -618l-142 115q83 114 111 123q53 -39 88 -70.5t42 -46.5zM617 -387l-143 115q83 113 111 122q53 -38 88.5 -69.5t41.5 -46.5z" />
            <glyph glyph-name="uni069B.medi" unicode="&#x69b;" horiz-adv-x="1355" d="M467 -20q-82 0 -138.5 40t-93.5 107q-27 -62 -92.5 -99.5t-142.5 -37.5h-21v135h21q35 0 74.5 20t67 64.5t27.5 116.5l-13 65q31 11 64 19.5t73 12.5q13 -78 35 -148.5t58.5 -115t90.5 -44.5q81 0 112 61t31 134v17.5t-1 17.5l-14 68q66 28 137 33q16 -83 35.5 -156.5
t51.5 -119t83 -45.5q54 0 86 51.5t32 139.5v23t-2 26l-14 70q23 12 61 23t74 12q30 -169 77 -257t129 -88h20v-135h-20q-94 0 -154.5 43.5t-97.5 98.5q-26 -67 -79.5 -104.5t-124.5 -37.5q-128 0 -205 123q-39 -64 -94.5 -98.5t-132.5 -34.5zM806 -369l-143 115
q41 56 70.5 87.5t40.5 35.5q53 -39 88 -70.5t42 -46.5zM730 -618l-142 115q83 114 111 123q53 -39 88 -70.5t42 -46.5zM591 -387l-143 115q83 113 111 122q53 -38 88.5 -69.5t41.5 -46.5z" />
            <glyph glyph-name="uni069B.fina" unicode="&#x69b;" horiz-adv-x="1915" d="M444 -565q-129 0 -212 49.5t-122.5 130t-39.5 173.5q0 88 33 177t94 162q22 -7 40 -21.5t34 -34.5q-73 -103 -73 -238q0 -109 61.5 -186.5t194.5 -77.5q103 0 167 51t94 139.5t30 200.5q0 122 -19 240t-30 191q62 24 137 32q41 -155 85 -226.5t119 -71.5q69 0 98.5 51.5
t29.5 112.5q0 14 -2 27.5t-4 28.5l-14 68q29 13 63.5 22t73.5 11q16 -83 35.5 -156.5t51.5 -119t83 -45.5q45 0 71.5 28.5t38.5 71t12 83.5q0 22 -1 30t-5 27l-14 70q29 12 64 21.5t71 13.5q61 -345 226 -345h20v-135h-20q-91 0 -155 44t-105 107q-28 -67 -82 -109t-134 -42
q-133 0 -204 129q-28 -56 -83 -97.5t-125 -41.5q-46 0 -86 15t-72 41q2 -28 2 -56.5v-45.5q0 -238 -118 -368.5t-309 -130.5zM1403 -369l-143 115q41 56 70.5 87.5t40.5 35.5q53 -39 88 -70.5t42 -46.5zM1327 -618l-142 115q83 114 111 123q53 -39 88 -70.5t42 -46.5z
M1188 -387l-143 115q83 113 111 122q53 -38 88.5 -69.5t41.5 -46.5z" />
            <glyph glyph-name="uni0634.init" unicode="&#x634;" horiz-adv-x="1227" arabic-form="initial" d="M469 -18q-71 0 -135.5 36t-99.5 107q-27 -61 -92 -98t-142 -37h-20v135h20q32 0 71.5 18t68.5 61.5t29 121.5l-13 65q31 14 62.5 21.5t74.5 10.5q13 -78 35 -148.5t58.5 -115t90.5 -44.5q57 0 87.5 29.5t42 76t11.5 96.5q0 7 -0.5 13.5t-0.5 13.5l-3 20q-4 32 -12 57
q25 13 65.5 23t73.5 12q35 -181 71.5 -256t97.5 -75q53 0 83 42.5t30 100.5q0 62 -17 126t-30 96q27 15 63 26t73 13q45 -135 45 -247q0 -85 -33.5 -151t-90 -103.5t-126.5 -37.5q-61 0 -114.5 27t-94.5 91q-39 -63 -101 -94.5t-128 -31.5zM639 795q-53 39 -88 70.5
t-43 45.5l99 122l143 -115q-87 -116 -111 -123zM564 546q-54 39 -88.5 70t-42.5 47l99 121l143 -115q-42 -56 -71 -87t-40 -36zM779 564q-53 39 -89 70.5t-42 45.5l99 122l143 -116q-84 -112 -111 -122z" />
            <glyph glyph-name="uni0634.medi" unicode="&#x634;" horiz-adv-x="1355" arabic-form="medial" d="M467 -20q-82 0 -138.5 40t-93.5 107q-27 -62 -92.5 -99.5t-142.5 -37.5h-21v135h21q35 0 74.5 20t67 64.5t27.5 116.5l-13 65q31 11 64 19.5t73 12.5q13 -78 35 -148.5t58.5 -115t90.5 -44.5q81 0 112 61t31 134v17.5t-1 17.5l-14 68q66 28 137 33q16 -83 35.5 -156.5
t51.5 -119t83 -45.5q54 0 86 51.5t32 139.5v23t-2 26l-14 70q23 12 61 23t74 12q30 -169 77 -257t129 -88h20v-135h-20q-94 0 -154.5 43.5t-97.5 98.5q-26 -67 -79.5 -104.5t-124.5 -37.5q-128 0 -205 123q-39 -64 -94.5 -98.5t-132.5 -34.5zM639 795q-53 39 -88 70.5
t-43 45.5l99 122l143 -115q-87 -116 -111 -123zM564 546q-54 39 -88.5 70t-42.5 47l99 121l143 -115q-42 -56 -71 -87t-40 -36zM779 564q-53 39 -89 70.5t-42 45.5l99 122l143 -116q-84 -112 -111 -122z" />
            <glyph glyph-name="uni0634.fina" unicode="&#x634;" horiz-adv-x="1915" arabic-form="final" d="M444 -565q-129 0 -212 49.5t-122.5 130t-39.5 173.5q0 88 33 177t94 162q22 -7 40 -21.5t34 -34.5q-73 -103 -73 -238q0 -109 61.5 -186.5t194.5 -77.5q103 0 167 51t94 139.5t30 200.5q0 122 -19 240t-30 191q62 24 137 32q41 -155 85 -226.5t119 -71.5q69 0 98.5 51.5
t29.5 112.5q0 14 -2 27.5t-4 28.5l-14 68q29 13 63.5 22t73.5 11q16 -83 35.5 -156.5t51.5 -119t83 -45.5q45 0 71.5 28.5t38.5 71t12 83.5q0 22 -1 30t-5 27l-14 70q29 12 64 21.5t71 13.5q61 -345 226 -345h20v-135h-20q-91 0 -155 44t-105 107q-28 -67 -82 -109t-134 -42
q-133 0 -204 129q-28 -56 -83 -97.5t-125 -41.5q-46 0 -86 15t-72 41q2 -28 2 -56.5v-45.5q0 -238 -118 -368.5t-309 -130.5zM1186 795q-53 39 -88 70.5t-43 45.5l99 122l143 -115q-87 -116 -111 -123zM1111 546q-54 39 -88.5 70t-42.5 47l99 121l143 -115q-42 -56 -71 -87
t-40 -36zM1326 564q-53 39 -89 70.5t-42 45.5l99 122l143 -116q-84 -112 -111 -122z" />
            <glyph glyph-name="uni06FA.init" unicode="&#x6fa;" horiz-adv-x="1227" d="M469 -18q-71 0 -135.5 36t-99.5 107q-27 -61 -92 -98t-142 -37h-20v135h20q32 0 71.5 18t68.5 61.5t29 121.5l-13 65q31 14 62.5 21.5t74.5 10.5q13 -78 35 -148.5t58.5 -115t90.5 -44.5q57 0 87.5 29.5t42 76t11.5 96.5q0 7 -0.5 13.5t-0.5 13.5l-3 20q-4 32 -12 57
q25 13 65.5 23t73.5 12q35 -181 71.5 -256t97.5 -75q53 0 83 42.5t30 100.5q0 62 -17 126t-30 96q27 15 63 26t73 13q45 -135 45 -247q0 -85 -33.5 -151t-90 -103.5t-126.5 -37.5q-61 0 -114.5 27t-94.5 91q-39 -63 -101 -94.5t-128 -31.5zM646 815q-53 39 -88 70.5
t-43 45.5l99 122l143 -115q-87 -116 -111 -123zM571 566q-54 39 -88.5 70t-42.5 47l99 121l143 -115q-42 -56 -71 -87t-40 -36zM786 584q-53 39 -89 70.5t-42 45.5l99 122l143 -116q-84 -112 -111 -122zM731 -389q-56 41 -93 74t-44 48l103 128l151 -120q-88 -121 -117 -130
z" />
            <glyph glyph-name="uni06FA.medi" unicode="&#x6fa;" horiz-adv-x="1355" d="M467 -20q-82 0 -138.5 40t-93.5 107q-27 -62 -92.5 -99.5t-142.5 -37.5h-21v135h21q35 0 74.5 20t67 64.5t27.5 116.5l-13 65q31 11 64 19.5t73 12.5q13 -78 35 -148.5t58.5 -115t90.5 -44.5q81 0 112 61t31 134v17.5t-1 17.5l-14 68q66 28 137 33q16 -83 35.5 -156.5
t51.5 -119t83 -45.5q54 0 86 51.5t32 139.5v23t-2 26l-14 70q23 12 61 23t74 12q30 -169 77 -257t129 -88h20v-135h-20q-94 0 -154.5 43.5t-97.5 98.5q-26 -67 -79.5 -104.5t-124.5 -37.5q-128 0 -205 123q-39 -64 -94.5 -98.5t-132.5 -34.5zM637 815q-53 39 -88 70.5
t-43 45.5l99 122l143 -115q-87 -116 -111 -123zM562 566q-54 39 -88.5 70t-42.5 47l99 121l143 -115q-42 -56 -71 -87t-40 -36zM777 584q-53 39 -89 70.5t-42 45.5l99 122l143 -116q-84 -112 -111 -122zM705 -389q-56 41 -93 74t-44 48l103 128l151 -120q-88 -121 -117 -130
z" />
            <glyph glyph-name="uni06FA.fina" unicode="&#x6fa;" horiz-adv-x="1915" d="M444 -565q-129 0 -212 49.5t-122.5 130t-39.5 173.5q0 88 33 177t94 162q22 -7 40 -21.5t34 -34.5q-73 -103 -73 -238q0 -109 61.5 -186.5t194.5 -77.5q103 0 167 51t94 139.5t30 200.5q0 122 -19 240t-30 191q62 24 137 32q41 -155 85 -226.5t119 -71.5q69 0 98.5 51.5
t29.5 112.5q0 14 -2 27.5t-4 28.5l-14 68q29 13 63.5 22t73.5 11q16 -83 35.5 -156.5t51.5 -119t83 -45.5q45 0 71.5 28.5t38.5 71t12 83.5q0 22 -1 30t-5 27l-14 70q29 12 64 21.5t71 13.5q61 -345 226 -345h20v-135h-20q-91 0 -155 44t-105 107q-28 -67 -82 -109t-134 -42
q-133 0 -204 129q-28 -56 -83 -97.5t-125 -41.5q-46 0 -86 15t-72 41q2 -28 2 -56.5v-45.5q0 -238 -118 -368.5t-309 -130.5zM1156 815q-53 39 -88 70.5t-43 45.5l99 122l143 -115q-87 -116 -111 -123zM1081 566q-54 39 -88.5 70t-42.5 47l99 121l143 -115q-42 -56 -71 -87
t-40 -36zM1296 584q-53 39 -89 70.5t-42 45.5l99 122l143 -116q-84 -112 -111 -122zM1302 -389q-56 41 -93 74t-44 48l103 128l151 -120q-88 -121 -117 -130z" />
            <glyph glyph-name="uni069C.init" unicode="&#x69c;" horiz-adv-x="1227" d="M469 -18q-71 0 -135.5 36t-99.5 107q-27 -61 -92 -98t-142 -37h-20v135h20q32 0 71.5 18t68.5 61.5t29 121.5l-13 65q31 14 62.5 21.5t74.5 10.5q13 -78 35 -148.5t58.5 -115t90.5 -44.5q57 0 87.5 29.5t42 76t11.5 96.5q0 7 -0.5 13.5t-0.5 13.5l-3 20q-4 32 -12 57
q25 13 65.5 23t73.5 12q35 -181 71.5 -256t97.5 -75q53 0 83 42.5t30 100.5q0 62 -17 126t-30 96q27 15 63 26t73 13q45 -135 45 -247q0 -85 -33.5 -151t-90 -103.5t-126.5 -37.5q-61 0 -114.5 27t-94.5 91q-39 -63 -101 -94.5t-128 -31.5zM637 845q-53 39 -88 70.5
t-43 45.5l99 122l143 -115q-87 -116 -111 -123zM562 596q-54 39 -88.5 70t-42.5 47l99 121l143 -115q-42 -56 -71 -87t-40 -36zM777 614q-53 39 -89 70.5t-42 45.5l99 122l143 -116q-84 -112 -111 -122zM832 -369l-143 115q41 56 70.5 87.5t40.5 35.5q53 -39 88 -70.5
t42 -46.5zM756 -618l-142 115q83 114 111 123q53 -39 88 -70.5t42 -46.5zM617 -387l-143 115q83 113 111 122q53 -38 88.5 -69.5t41.5 -46.5z" />
            <glyph glyph-name="uni069C.medi" unicode="&#x69c;" horiz-adv-x="1355" d="M467 -20q-82 0 -138.5 40t-93.5 107q-27 -62 -92.5 -99.5t-142.5 -37.5h-21v135h21q35 0 74.5 20t67 64.5t27.5 116.5l-13 65q31 11 64 19.5t73 12.5q13 -78 35 -148.5t58.5 -115t90.5 -44.5q81 0 112 61t31 134v17.5t-1 17.5l-14 68q66 28 137 33q16 -83 35.5 -156.5
t51.5 -119t83 -45.5q54 0 86 51.5t32 139.5v23t-2 26l-14 70q23 12 61 23t74 12q30 -169 77 -257t129 -88h20v-135h-20q-94 0 -154.5 43.5t-97.5 98.5q-26 -67 -79.5 -104.5t-124.5 -37.5q-128 0 -205 123q-39 -64 -94.5 -98.5t-132.5 -34.5zM626 845q-53 39 -88 70.5
t-43 45.5l99 122l143 -115q-87 -116 -111 -123zM551 596q-54 39 -88.5 70t-42.5 47l99 121l143 -115q-42 -56 -71 -87t-40 -36zM766 614q-53 39 -89 70.5t-42 45.5l99 122l143 -116q-84 -112 -111 -122zM806 -369l-143 115q41 56 70.5 87.5t40.5 35.5q53 -39 88 -70.5
t42 -46.5zM730 -618l-142 115q83 114 111 123q53 -39 88 -70.5t42 -46.5zM591 -387l-143 115q83 113 111 122q53 -38 88.5 -69.5t41.5 -46.5z" />
            <glyph glyph-name="uni069C.fina" unicode="&#x69c;" horiz-adv-x="1915" d="M444 -565q-129 0 -212 49.5t-122.5 130t-39.5 173.5q0 88 33 177t94 162q22 -7 40 -21.5t34 -34.5q-73 -103 -73 -238q0 -109 61.5 -186.5t194.5 -77.5q103 0 167 51t94 139.5t30 200.5q0 122 -19 240t-30 191q62 24 137 32q41 -155 85 -226.5t119 -71.5q69 0 98.5 51.5
t29.5 112.5q0 14 -2 27.5t-4 28.5l-14 68q29 13 63.5 22t73.5 11q16 -83 35.5 -156.5t51.5 -119t83 -45.5q45 0 71.5 28.5t38.5 71t12 83.5q0 22 -1 30t-5 27l-14 70q29 12 64 21.5t71 13.5q61 -345 226 -345h20v-135h-20q-91 0 -155 44t-105 107q-28 -67 -82 -109t-134 -42
q-133 0 -204 129q-28 -56 -83 -97.5t-125 -41.5q-46 0 -86 15t-72 41q2 -28 2 -56.5v-45.5q0 -238 -118 -368.5t-309 -130.5zM1166 845q-53 39 -88 70.5t-43 45.5l99 122l143 -115q-87 -116 -111 -123zM1091 596q-54 39 -88.5 70t-42.5 47l99 121l143 -115q-42 -56 -71 -87
t-40 -36zM1306 614q-53 39 -89 70.5t-42 45.5l99 122l143 -116q-84 -112 -111 -122zM1413 -369l-143 115q41 56 70.5 87.5t40.5 35.5q53 -39 88 -70.5t42 -46.5zM1337 -618l-142 115q83 114 111 123q53 -39 88 -70.5t42 -46.5zM1198 -387l-143 115q83 113 111 122
q53 -38 88.5 -69.5t41.5 -46.5z" />
            <glyph glyph-name="uni0635.init" unicode="&#x635;" horiz-adv-x="1102" arabic-form="initial" d="M576 -25q-87 0 -188.5 22t-187.5 75q-42 -37 -91 -59.5t-109 -22.5h-20v135h20q57 0 90 21.5t40 33.5q-10 74 -30 171q55 38 125 61q5 -21 8.5 -40.5t7.5 -41.5q98 93 220.5 164t266.5 71q145 0 224.5 -78t79.5 -182q0 -93 -56 -167.5t-158.5 -118.5t-241.5 -44zM583 110
q82 0 150.5 19t110 60.5t41.5 108.5q0 69 -55.5 101.5t-132.5 32.5q-57 0 -120.5 -26.5t-123.5 -66t-107.5 -81.5t-71.5 -73q53 -32 134.5 -53.5t174.5 -21.5z" />
            <glyph glyph-name="uni0635.medi" unicode="&#x635;" horiz-adv-x="1137" arabic-form="medial" d="M577 -25q-80 0 -185.5 21.5t-191.5 75.5q-42 -37 -91 -59.5t-109 -22.5h-20v135h20q57 0 90 21.5t40 33.5q-10 74 -30 171q22 20 56.5 38t68.5 23q4 -16 8 -38.5t8 -43.5q54 52 131.5 106.5t168.5 91.5t187 37q97 0 165 -37t104 -97t36 -129q0 -55 -16 -90.5t-24 -48.5
q20 -21 60.5 -29.5t83.5 -8.5h20v-135h-20q-115 0 -165.5 30.5t-65.5 44.5q-62 -41 -138 -65.5t-191 -24.5zM583 110q82 0 150.5 19.5t110 61.5t41.5 107q0 68 -54.5 101t-123.5 33q-60 0 -127.5 -26.5t-130 -66t-112 -81.5t-73.5 -73q53 -35 143.5 -55t175.5 -20z" />
            <glyph glyph-name="uni0635.fina" unicode="&#x635;" horiz-adv-x="1762" arabic-form="final" d="M425 -565q-115 0 -194 48.5t-120 129.5t-41 177q0 83 31.5 170.5t96.5 166.5q49 -10 75 -56q-71 -128 -71 -250q0 -107 59 -179.5t174 -72.5q109 0 180 60t105.5 163t34.5 232q0 74 -7 141.5t-15 117.5t-12 68q30 20 68 38t69 23q3 -7 8.5 -36.5t7.5 -45.5
q61 52 134.5 106.5t159 91.5t181.5 37q145 0 225 -79t80 -187q0 -93 -57 -166.5t-154 -115.5t-216 -42q-94 0 -173.5 18.5t-163.5 57.5q0 -194 -58 -332t-162.5 -211t-244.5 -73zM1196 111q84 0 154.5 19.5t113.5 61t43 106.5q0 69 -57 101.5t-119 32.5q-64 0 -132 -26.5
t-130.5 -66t-110.5 -81.5t-72 -73q62 -37 145 -55.5t165 -18.5zM1762 -10q-107 0 -158 27.5t-94 71.5l88 107q26 -40 62 -55.5t102 -15.5h20v-135h-20z" />
            <glyph glyph-name="uni069D.init" unicode="&#x69d;" horiz-adv-x="1102" d="M576 -25q-87 0 -188.5 22t-187.5 75q-42 -37 -91 -59.5t-109 -22.5h-20v135h20q57 0 90 21.5t40 33.5q-10 74 -30 171q55 38 125 61q5 -21 8.5 -40.5t7.5 -41.5q98 93 220.5 164t266.5 71q145 0 224.5 -78t79.5 -182q0 -93 -56 -167.5t-158.5 -118.5t-241.5 -44zM583 110
q82 0 150.5 19t110 60.5t41.5 108.5q0 69 -55.5 101.5t-132.5 32.5q-57 0 -120.5 -26.5t-123.5 -66t-107.5 -81.5t-71.5 -73q53 -32 134.5 -53.5t174.5 -21.5zM681 -335q-53 38 -88.5 70t-41.5 46l108 121l143 -114q-41 -56 -75.5 -87.5t-45.5 -35.5zM466 -352
q-53 38 -88 69.5t-42 46.5l108 121l143 -115q-41 -56 -75.5 -87.5t-45.5 -34.5z" />
            <glyph glyph-name="uni069D.medi" unicode="&#x69d;" horiz-adv-x="1137" d="M577 -25q-80 0 -185.5 21.5t-191.5 75.5q-42 -37 -91 -59.5t-109 -22.5h-20v135h20q57 0 90 21.5t40 33.5q-10 74 -30 171q22 20 56.5 38t68.5 23q4 -16 8 -38.5t8 -43.5q54 52 131.5 106.5t168.5 91.5t187 37q97 0 165 -37t104 -97t36 -129q0 -55 -16 -90.5t-24 -48.5
q20 -21 60.5 -29.5t83.5 -8.5h20v-135h-20q-115 0 -165.5 30.5t-65.5 44.5q-62 -41 -138 -65.5t-191 -24.5zM583 110q82 0 150.5 19.5t110 61.5t41.5 107q0 68 -54.5 101t-123.5 33q-60 0 -127.5 -26.5t-130 -66t-112 -81.5t-73.5 -73q53 -35 143.5 -55t175.5 -20zM681 -335
q-53 38 -88.5 70t-41.5 46l108 121l143 -114q-41 -56 -75.5 -87.5t-45.5 -35.5zM466 -352q-53 38 -88 69.5t-42 46.5l108 121l143 -115q-41 -56 -75.5 -87.5t-45.5 -34.5z" />
            <glyph glyph-name="uni069D.fina" unicode="&#x69d;" horiz-adv-x="1762" d="M425 -565q-115 0 -194 48.5t-120 129.5t-41 177q0 83 31.5 170.5t96.5 166.5q49 -10 75 -56q-71 -128 -71 -250q0 -107 59 -179.5t174 -72.5q109 0 180 60t105.5 163t34.5 232q0 74 -7 141.5t-15 117.5t-12 68q30 20 68 38t69 23q3 -7 8.5 -36.5t7.5 -45.5
q61 52 134.5 106.5t159 91.5t181.5 37q145 0 225 -79t80 -187q0 -93 -57 -166.5t-154 -115.5t-216 -42q-94 0 -173.5 18.5t-163.5 57.5q0 -194 -58 -332t-162.5 -211t-244.5 -73zM1196 111q84 0 154.5 19.5t113.5 61t43 106.5q0 69 -57 101.5t-119 32.5q-64 0 -132 -26.5
t-130.5 -66t-110.5 -81.5t-72 -73q62 -37 145 -55.5t165 -18.5zM1762 -10q-107 0 -158 27.5t-94 71.5l88 107q26 -40 62 -55.5t102 -15.5h20v-135h-20zM1309 -326q-53 38 -88.5 70t-41.5 46l108 121l143 -114q-41 -56 -75.5 -87.5t-45.5 -35.5zM1094 -343q-53 38 -88 69.5
t-42 46.5l108 121l143 -115q-41 -56 -75.5 -87.5t-45.5 -34.5z" />
            <glyph glyph-name="uni069E.init" unicode="&#x69e;" horiz-adv-x="1102" d="M576 -25q-87 0 -188.5 22t-187.5 75q-42 -37 -91 -59.5t-109 -22.5h-20v135h20q57 0 90 21.5t40 33.5q-10 74 -30 171q55 38 125 61q5 -21 8.5 -40.5t7.5 -41.5q98 93 220.5 164t266.5 71q145 0 224.5 -78t79.5 -182q0 -93 -56 -167.5t-158.5 -118.5t-241.5 -44zM583 110
q82 0 150.5 19t110 60.5t41.5 108.5q0 69 -55.5 101.5t-132.5 32.5q-57 0 -120.5 -26.5t-123.5 -66t-107.5 -81.5t-71.5 -73q53 -32 134.5 -53.5t174.5 -21.5zM588 894q-53 39 -88 70.5t-43 45.5l99 122l143 -115q-87 -116 -111 -123zM513 645q-54 39 -88.5 70t-42.5 47
l99 121l143 -115q-42 -56 -71 -87t-40 -36zM728 663q-53 39 -89 70.5t-42 45.5l99 122l143 -116q-84 -112 -111 -122z" />
            <glyph glyph-name="uni069E.medi" unicode="&#x69e;" horiz-adv-x="1137" d="M577 -25q-80 0 -185.5 21.5t-191.5 75.5q-42 -37 -91 -59.5t-109 -22.5h-20v135h20q57 0 90 21.5t40 33.5q-10 74 -30 171q22 20 56.5 38t68.5 23q4 -16 8 -38.5t8 -43.5q54 52 131.5 106.5t168.5 91.5t187 37q97 0 165 -37t104 -97t36 -129q0 -55 -16 -90.5t-24 -48.5
q20 -21 60.5 -29.5t83.5 -8.5h20v-135h-20q-115 0 -165.5 30.5t-65.5 44.5q-62 -41 -138 -65.5t-191 -24.5zM583 110q82 0 150.5 19.5t110 61.5t41.5 107q0 68 -54.5 101t-123.5 33q-60 0 -127.5 -26.5t-130 -66t-112 -81.5t-73.5 -73q53 -35 143.5 -55t175.5 -20zM598 894
q-53 39 -88 70.5t-43 45.5l99 122l143 -115q-87 -116 -111 -123zM523 645q-54 39 -88.5 70t-42.5 47l99 121l143 -115q-42 -56 -71 -87t-40 -36zM738 663q-53 39 -89 70.5t-42 45.5l99 122l143 -116q-84 -112 -111 -122z" />
            <glyph glyph-name="uni069E.fina" unicode="&#x69e;" horiz-adv-x="1762" d="M425 -565q-115 0 -194 48.5t-120 129.5t-41 177q0 83 31.5 170.5t96.5 166.5q49 -10 75 -56q-71 -128 -71 -250q0 -107 59 -179.5t174 -72.5q109 0 180 60t105.5 163t34.5 232q0 74 -7 141.5t-15 117.5t-12 68q30 20 68 38t69 23q3 -7 8.5 -36.5t7.5 -45.5
q61 52 134.5 106.5t159 91.5t181.5 37q145 0 225 -79t80 -187q0 -93 -57 -166.5t-154 -115.5t-216 -42q-94 0 -173.5 18.5t-163.5 57.5q0 -194 -58 -332t-162.5 -211t-244.5 -73zM1196 111q84 0 154.5 19.5t113.5 61t43 106.5q0 69 -57 101.5t-119 32.5q-64 0 -132 -26.5
t-130.5 -66t-110.5 -81.5t-72 -73q62 -37 145 -55.5t165 -18.5zM1762 -10q-107 0 -158 27.5t-94 71.5l88 107q26 -40 62 -55.5t102 -15.5h20v-135h-20zM1212 894q-53 39 -88 70.5t-43 45.5l99 122l143 -115q-87 -116 -111 -123zM1137 645q-54 39 -88.5 70t-42.5 47l99 121
l143 -115q-42 -56 -71 -87t-40 -36zM1352 663q-53 39 -89 70.5t-42 45.5l99 122l143 -116q-84 -112 -111 -122z" />
            <glyph glyph-name="uni0636.init" unicode="&#x636;" horiz-adv-x="1102" arabic-form="initial" d="M576 -25q-87 0 -188.5 22t-187.5 75q-42 -37 -91 -59.5t-109 -22.5h-20v135h20q57 0 90 21.5t40 33.5q-10 74 -30 171q55 38 125 61q5 -21 8.5 -40.5t7.5 -41.5q98 93 220.5 164t266.5 71q145 0 224.5 -78t79.5 -182q0 -93 -56 -167.5t-158.5 -118.5t-241.5 -44zM583 110
q82 0 150.5 19t110 60.5t41.5 108.5q0 69 -55.5 101.5t-132.5 32.5q-57 0 -120.5 -26.5t-123.5 -66t-107.5 -81.5t-71.5 -73q53 -32 134.5 -53.5t174.5 -21.5zM662 687q-56 41 -93 74t-44 48l103 128l151 -120q-88 -121 -117 -130z" />
            <glyph glyph-name="uni0636.medi" unicode="&#x636;" horiz-adv-x="1137" arabic-form="medial" d="M577 -25q-80 0 -185.5 21.5t-191.5 75.5q-42 -37 -91 -59.5t-109 -22.5h-20v135h20q57 0 90 21.5t40 33.5q-10 74 -30 171q22 20 56.5 38t68.5 23q4 -16 8 -38.5t8 -43.5q54 52 131.5 106.5t168.5 91.5t187 37q97 0 165 -37t104 -97t36 -129q0 -55 -16 -90.5t-24 -48.5
q20 -21 60.5 -29.5t83.5 -8.5h20v-135h-20q-115 0 -165.5 30.5t-65.5 44.5q-62 -41 -138 -65.5t-191 -24.5zM583 110q82 0 150.5 19.5t110 61.5t41.5 107q0 68 -54.5 101t-123.5 33q-60 0 -127.5 -26.5t-130 -66t-112 -81.5t-73.5 -73q53 -35 143.5 -55t175.5 -20zM632 687
q-56 41 -93 74t-44 48l103 128l151 -120q-88 -121 -117 -130z" />
            <glyph glyph-name="uni0636.fina" unicode="&#x636;" horiz-adv-x="1762" arabic-form="final" d="M425 -565q-115 0 -194 48.5t-120 129.5t-41 177q0 83 31.5 170.5t96.5 166.5q49 -10 75 -56q-71 -128 -71 -250q0 -107 59 -179.5t174 -72.5q109 0 180 60t105.5 163t34.5 232q0 74 -7 141.5t-15 117.5t-12 68q30 20 68 38t69 23q3 -7 8.5 -36.5t7.5 -45.5
q61 52 134.5 106.5t159 91.5t181.5 37q145 0 225 -79t80 -187q0 -93 -57 -166.5t-154 -115.5t-216 -42q-94 0 -173.5 18.5t-163.5 57.5q0 -194 -58 -332t-162.5 -211t-244.5 -73zM1196 111q84 0 154.5 19.5t113.5 61t43 106.5q0 69 -57 101.5t-119 32.5q-64 0 -132 -26.5
t-130.5 -66t-110.5 -81.5t-72 -73q62 -37 145 -55.5t165 -18.5zM1762 -10q-107 0 -158 27.5t-94 71.5l88 107q26 -40 62 -55.5t102 -15.5h20v-135h-20zM1246 687q-56 41 -93 74t-44 48l103 128l151 -120q-88 -121 -117 -130z" />
            <glyph glyph-name="uni06FB.init" unicode="&#x6fb;" horiz-adv-x="1102" d="M576 -25q-87 0 -188.5 22t-187.5 75q-42 -37 -91 -59.5t-109 -22.5h-20v135h20q57 0 90 21.5t40 33.5q-10 74 -30 171q55 38 125 61q5 -21 8.5 -40.5t7.5 -41.5q98 93 220.5 164t266.5 71q145 0 224.5 -78t79.5 -182q0 -93 -56 -167.5t-158.5 -118.5t-241.5 -44zM583 110
q82 0 150.5 19t110 60.5t41.5 108.5q0 69 -55.5 101.5t-132.5 32.5q-57 0 -120.5 -26.5t-123.5 -66t-107.5 -81.5t-71.5 -73q53 -32 134.5 -53.5t174.5 -21.5zM595 657q-56 41 -93 74t-44 48l103 128l151 -120q-88 -121 -117 -130zM591 -349q-56 41 -93 74t-44 48l103 128
l151 -120q-88 -121 -117 -130z" />
            <glyph glyph-name="uni06FB.medi" unicode="&#x6fb;" horiz-adv-x="1137" d="M577 -25q-80 0 -185.5 21.5t-191.5 75.5q-42 -37 -91 -59.5t-109 -22.5h-20v135h20q57 0 90 21.5t40 33.5q-10 74 -30 171q22 20 56.5 38t68.5 23q4 -16 8 -38.5t8 -43.5q54 52 131.5 106.5t168.5 91.5t187 37q97 0 165 -37t104 -97t36 -129q0 -55 -16 -90.5t-24 -48.5
q20 -21 60.5 -29.5t83.5 -8.5h20v-135h-20q-115 0 -165.5 30.5t-65.5 44.5q-62 -41 -138 -65.5t-191 -24.5zM583 110q82 0 150.5 19.5t110 61.5t41.5 107q0 68 -54.5 101t-123.5 33q-60 0 -127.5 -26.5t-130 -66t-112 -81.5t-73.5 -73q53 -35 143.5 -55t175.5 -20zM590 687
q-56 41 -93 74t-44 48l103 128l151 -120q-88 -121 -117 -130zM591 -349q-56 41 -93 74t-44 48l103 128l151 -120q-88 -121 -117 -130z" />
            <glyph glyph-name="uni06FB.fina" unicode="&#x6fb;" horiz-adv-x="1762" d="M425 -565q-115 0 -194 48.5t-120 129.5t-41 177q0 83 31.5 170.5t96.5 166.5q49 -10 75 -56q-71 -128 -71 -250q0 -107 59 -179.5t174 -72.5q109 0 180 60t105.5 163t34.5 232q0 74 -7 141.5t-15 117.5t-12 68q30 20 68 38t69 23q3 -7 8.5 -36.5t7.5 -45.5
q61 52 134.5 106.5t159 91.5t181.5 37q145 0 225 -79t80 -187q0 -93 -57 -166.5t-154 -115.5t-216 -42q-94 0 -173.5 18.5t-163.5 57.5q0 -194 -58 -332t-162.5 -211t-244.5 -73zM1196 111q84 0 154.5 19.5t113.5 61t43 106.5q0 69 -57 101.5t-119 32.5q-64 0 -132 -26.5
t-130.5 -66t-110.5 -81.5t-72 -73q62 -37 145 -55.5t165 -18.5zM1762 -10q-107 0 -158 27.5t-94 71.5l88 107q26 -40 62 -55.5t102 -15.5h20v-135h-20zM1236 687q-56 41 -93 74t-44 48l103 128l151 -120q-88 -121 -117 -130zM1219 -340q-56 41 -93 74t-44 48l103 128
l151 -120q-88 -121 -117 -130z" />
            <glyph glyph-name="uni0637.init" unicode="&#x637;" horiz-adv-x="1044" arabic-form="initial" d="M554 -25q-121 0 -222.5 34t-144.5 64q-32 -29 -76.5 -56t-110.5 -27h-20v136h20q52 0 105.5 41.5t114 102t131.5 121.5t157 102.5t190 41.5q140 0 213 -75t73 -171q0 -75 -46.5 -147.5t-141.5 -119.5t-242 -47zM555 104q146 0 215 58t69 120q0 48 -39 84t-114 36
q-80 0 -155 -39.5t-138 -94.5t-110 -102q45 -25 115.5 -43.5t156.5 -18.5zM234 269q0 119 -4.5 237.5t-10 221.5t-10.5 176.5t-5 100.5q12 24 42.5 41.5t65 28.5t56.5 14q3 -18 4 -46.5t1 -66.5q0 -62 -0.5 -146t-1.5 -171t-2 -161t-2 -115z" />
            <glyph glyph-name="uni0637.medi" unicode="&#x637;" horiz-adv-x="1111" arabic-form="medial" d="M554 -25q-121 0 -222.5 34t-144.5 64q-32 -29 -76.5 -56t-110.5 -27h-20v136h20q52 0 105.5 41.5t114 102t131.5 121.5t157 102.5t190 41.5q140 0 213 -75t73 -171q0 -75 -46.5 -147.5t-141.5 -119.5t-242 -47zM555 104q146 0 215 58t69 120q0 48 -39 84t-114 36
q-80 0 -155 -39.5t-138 -94.5t-110 -102q45 -25 115.5 -43.5t156.5 -18.5zM234 269q0 119 -4.5 237.5t-10 221.5t-10.5 176.5t-5 100.5q12 24 42.5 41.5t65 28.5t56.5 14q3 -18 4 -46.5t1 -66.5q0 -62 -0.5 -146t-1.5 -171t-2 -161t-2 -115zM1111 -10q-107 0 -158 27.5
t-94 71.5l88 107q26 -40 62 -55.5t102 -15.5h20v-135h-20z" />
            <glyph glyph-name="uni0637.fina" unicode="&#x637;" horiz-adv-x="1192" arabic-form="final" d="M634 -25q-92 0 -158.5 3t-121 7.5t-110 8.5t-124.5 6q-15 17 -27.5 52.5t-22.5 82.5q33 -1 55.5 -1t63.5 -2q57 48 117.5 116t131 133.5t156.5 109.5t194 44q137 0 207.5 -65t70.5 -156q0 -87 -50.5 -164.5t-146.5 -126t-235 -48.5zM635 104q129 0 209.5 56.5t80.5 138.5
q0 54 -40.5 80.5t-108.5 26.5q-60 0 -122.5 -31t-120 -77.5t-103.5 -94.5t-73 -83q77 -7 134.5 -11.5t143.5 -4.5zM314 229q0 119 -4.5 243.5t-10 235.5t-10.5 190.5t-5 106.5q12 24 42.5 41.5t65 28.5t56.5 14q3 -18 4 -46.5t1 -66.5q0 -62 -0.5 -149t-1.5 -178t-2 -168
t-2 -118zM1192 -10q-107 0 -158 27.5t-94 71.5l88 107q26 -40 62 -55.5t102 -15.5h20v-135h-20z" />
            <glyph glyph-name="uni069F.init" unicode="&#x69f;" horiz-adv-x="1044" d="M554 -25q-121 0 -222.5 34t-144.5 64q-32 -29 -76.5 -56t-110.5 -27h-20v136h20q52 0 105.5 41.5t114 102t131.5 121.5t157 102.5t190 41.5q140 0 213 -75t73 -171q0 -75 -46.5 -147.5t-141.5 -119.5t-242 -47zM555 104q146 0 215 58t69 120q0 48 -39 84t-114 36
q-80 0 -155 -39.5t-138 -94.5t-110 -102q45 -25 115.5 -43.5t156.5 -18.5zM234 269q0 119 -4.5 237.5t-10 221.5t-10.5 176.5t-5 100.5q12 24 42.5 41.5t65 28.5t56.5 14q3 -18 4 -46.5t1 -66.5q0 -62 -0.5 -146t-1.5 -171t-2 -161t-2 -115zM638 867q-53 39 -88 70.5
t-43 45.5l99 122l143 -115q-87 -116 -111 -123zM563 618q-54 39 -88.5 70t-42.5 47l99 121l143 -115q-42 -56 -71 -87t-40 -36zM778 636q-53 39 -89 70.5t-42 45.5l99 122l143 -116q-84 -112 -111 -122z" />
            <glyph glyph-name="uni069F.medi" unicode="&#x69f;" horiz-adv-x="1111" d="M554 -25q-121 0 -222.5 34t-144.5 64q-32 -29 -76.5 -56t-110.5 -27h-20v136h20q52 0 105.5 41.5t114 102t131.5 121.5t157 102.5t190 41.5q140 0 213 -75t73 -171q0 -75 -46.5 -147.5t-141.5 -119.5t-242 -47zM555 104q146 0 215 58t69 120q0 48 -39 84t-114 36
q-80 0 -155 -39.5t-138 -94.5t-110 -102q45 -25 115.5 -43.5t156.5 -18.5zM234 269q0 119 -4.5 237.5t-10 221.5t-10.5 176.5t-5 100.5q12 24 42.5 41.5t65 28.5t56.5 14q3 -18 4 -46.5t1 -66.5q0 -62 -0.5 -146t-1.5 -171t-2 -161t-2 -115zM1111 -10q-107 0 -158 27.5
t-94 71.5l88 107q26 -40 62 -55.5t102 -15.5h20v-135h-20zM661 871q-53 39 -88 70.5t-43 45.5l99 122l143 -115q-87 -116 -111 -123zM586 622q-54 39 -88.5 70t-42.5 47l99 121l143 -115q-42 -56 -71 -87t-40 -36zM801 640q-53 39 -89 70.5t-42 45.5l99 122l143 -116
q-84 -112 -111 -122z" />
            <glyph glyph-name="uni069F.fina" unicode="&#x69f;" horiz-adv-x="1192" d="M634 -25q-92 0 -158.5 3t-121 7.5t-110 8.5t-124.5 6q-15 17 -27.5 52.5t-22.5 82.5q33 -1 55.5 -1t63.5 -2q57 48 117.5 116t131 133.5t156.5 109.5t194 44q137 0 207.5 -65t70.5 -156q0 -87 -50.5 -164.5t-146.5 -126t-235 -48.5zM635 104q129 0 209.5 56.5t80.5 138.5
q0 54 -40.5 80.5t-108.5 26.5q-60 0 -122.5 -31t-120 -77.5t-103.5 -94.5t-73 -83q77 -7 134.5 -11.5t143.5 -4.5zM314 229q0 119 -4.5 243.5t-10 235.5t-10.5 190.5t-5 106.5q12 24 42.5 41.5t65 28.5t56.5 14q3 -18 4 -46.5t1 -66.5q0 -62 -0.5 -149t-1.5 -178t-2 -168
t-2 -118zM1192 -10q-107 0 -158 27.5t-94 71.5l88 107q26 -40 62 -55.5t102 -15.5h20v-135h-20zM730 861q-53 39 -88 70.5t-43 45.5l99 122l143 -115q-87 -116 -111 -123zM655 612q-54 39 -88.5 70t-42.5 47l99 121l143 -115q-42 -56 -71 -87t-40 -36zM870 630
q-53 39 -89 70.5t-42 45.5l99 122l143 -116q-84 -112 -111 -122z" />
            <glyph glyph-name="uni0638.init" unicode="&#x638;" horiz-adv-x="1044" arabic-form="initial" d="M554 -25q-121 0 -222.5 34t-144.5 64q-32 -29 -76.5 -56t-110.5 -27h-20v136h20q52 0 105.5 41.5t114 102t131.5 121.5t157 102.5t190 41.5q140 0 213 -75t73 -171q0 -75 -46.5 -147.5t-141.5 -119.5t-242 -47zM555 104q146 0 215 58t69 120q0 48 -39 84t-114 36
q-80 0 -155 -39.5t-138 -94.5t-110 -102q45 -25 115.5 -43.5t156.5 -18.5zM234 269q0 119 -4.5 237.5t-10 221.5t-10.5 176.5t-5 100.5q12 24 42.5 41.5t65 28.5t56.5 14q3 -18 4 -46.5t1 -66.5q0 -62 -0.5 -146t-1.5 -171t-2 -161t-2 -115zM712 664q-56 41 -93 74t-44 48
l103 128l151 -120q-88 -121 -117 -130z" />
            <glyph glyph-name="uni0638.medi" unicode="&#x638;" horiz-adv-x="1111" arabic-form="medial" d="M554 -25q-121 0 -222.5 34t-144.5 64q-32 -29 -76.5 -56t-110.5 -27h-20v136h20q52 0 105.5 41.5t114 102t131.5 121.5t157 102.5t190 41.5q140 0 213 -75t73 -171q0 -75 -46.5 -147.5t-141.5 -119.5t-242 -47zM555 104q146 0 215 58t69 120q0 48 -39 84t-114 36
q-80 0 -155 -39.5t-138 -94.5t-110 -102q45 -25 115.5 -43.5t156.5 -18.5zM234 269q0 119 -4.5 237.5t-10 221.5t-10.5 176.5t-5 100.5q12 24 42.5 41.5t65 28.5t56.5 14q3 -18 4 -46.5t1 -66.5q0 -62 -0.5 -146t-1.5 -171t-2 -161t-2 -115zM1111 -10q-107 0 -158 27.5
t-94 71.5l88 107q26 -40 62 -55.5t102 -15.5h20v-135h-20zM674 664q-56 41 -93 74t-44 48l103 128l151 -120q-88 -121 -117 -130z" />
            <glyph glyph-name="uni0638.fina" unicode="&#x638;" horiz-adv-x="1192" arabic-form="final" d="M634 -25q-92 0 -158.5 3t-121 7.5t-110 8.5t-124.5 6q-15 17 -27.5 52.5t-22.5 82.5q33 -1 55.5 -1t63.5 -2q57 48 117.5 116t131 133.5t156.5 109.5t194 44q137 0 207.5 -65t70.5 -156q0 -87 -50.5 -164.5t-146.5 -126t-235 -48.5zM635 104q129 0 209.5 56.5t80.5 138.5
q0 54 -40.5 80.5t-108.5 26.5q-60 0 -122.5 -31t-120 -77.5t-103.5 -94.5t-73 -83q77 -7 134.5 -11.5t143.5 -4.5zM314 229q0 119 -4.5 243.5t-10 235.5t-10.5 190.5t-5 106.5q12 24 42.5 41.5t65 28.5t56.5 14q3 -18 4 -46.5t1 -66.5q0 -62 -0.5 -149t-1.5 -178t-2 -168
t-2 -118zM1192 -10q-107 0 -158 27.5t-94 71.5l88 107q26 -40 62 -55.5t102 -15.5h20v-135h-20zM694 664q-56 41 -93 74t-44 48l103 128l151 -120q-88 -121 -117 -130z" />
            <glyph glyph-name="uni0639.init" unicode="&#x639;" horiz-adv-x="775" arabic-form="initial" d="M606 -23q-103 10 -245.5 11.5t-360.5 1.5h-20v135h20q63 0 113.5 -0.5t112.5 -3t157 -8.5q-107 59 -168 109.5t-85.5 101t-24.5 108.5q0 63 35 122t103.5 97.5t168.5 38.5q85 0 163 -39.5t117 -93.5q-16 -31 -40.5 -57.5t-62.5 -41.5q-46 47 -91 71t-101 24
q-67 0 -104 -36.5t-37 -82.5q0 -60 59 -111t161 -101t229 -106q-19 -47 -44.5 -81.5t-54.5 -57.5z" />
            <glyph glyph-name="uni0639.medi" unicode="&#x639;" horiz-adv-x="868" arabic-form="medial" d="M-20 -10v135h50q132 0 220.5 19.5t150 61.5t109 107.5t98.5 156.5q-78 25 -189 25q-43 0 -85 -3.5t-65 -11.5q62 -196 212.5 -275.5t386.5 -79.5h20v-135h-20q-283 0 -470 115.5t-264 347.5q11 36 28.5 75.5t41.5 70.5q134 30 268 21.5t234 -43.5q38 -36 61 -87
q-79 -151 -152.5 -249t-155.5 -152.5t-185.5 -76.5t-243.5 -22h-50z" />
            <glyph glyph-name="uni0639.fina" unicode="&#x639;" horiz-adv-x="930" arabic-form="final" d="M520 -670q-143 0 -243.5 57t-153.5 148.5t-53 196.5q0 90 40.5 179t125.5 164t217 122q32 11 74 53.5t84 101.5t71 118q-34 13 -82.5 18t-98.5 5q-90 0 -158 -13q38 -130 123 -208t204.5 -112.5t259.5 -34.5h20v-135h-20q-271 0 -464 121t-258 342q11 32 32.5 75.5
t37.5 70.5q40 10 95 16t117 6q72 0 147.5 -10t142.5 -34q14 -10 32 -36t29 -51q-82 -153 -142 -236.5t-111.5 -121.5t-109.5 -58q-131 -44 -198 -138.5t-67 -192.5q0 -72 36.5 -135.5t110.5 -103t186 -39.5q67 0 119 4.5t102 12.5q0 -35 -14.5 -73t-40.5 -66
q-41 -7 -82.5 -10t-109.5 -3z" />
            <glyph glyph-name="uni06A0.init" unicode="&#x6a0;" horiz-adv-x="775" d="M606 -23q-103 10 -245.5 11.5t-360.5 1.5h-20v135h20q63 0 113.5 -0.5t112.5 -3t157 -8.5q-107 59 -168 109.5t-85.5 101t-24.5 108.5q0 63 35 122t103.5 97.5t168.5 38.5q85 0 163 -39.5t117 -93.5q-16 -31 -40.5 -57.5t-62.5 -41.5q-46 47 -91 71t-101 24
q-67 0 -104 -36.5t-37 -82.5q0 -60 59 -111t161 -101t229 -106q-19 -47 -44.5 -81.5t-54.5 -57.5zM371 1006q-53 39 -88 70.5t-43 45.5l99 122l143 -115q-87 -116 -111 -123zM296 757q-54 39 -88.5 70t-42.5 47l99 121l143 -115q-42 -56 -71 -87t-40 -36zM511 775
q-53 39 -89 70.5t-42 45.5l99 122l143 -116q-84 -112 -111 -122z" />
            <glyph glyph-name="uni06A0.medi" unicode="&#x6a0;" horiz-adv-x="868" d="M-20 -10v135h50q132 0 220.5 19.5t150 61.5t109 107.5t98.5 156.5q-78 25 -189 25q-43 0 -85 -3.5t-65 -11.5q62 -196 212.5 -275.5t386.5 -79.5h20v-135h-20q-283 0 -470 115.5t-264 347.5q11 36 28.5 75.5t41.5 70.5q134 30 268 21.5t234 -43.5q38 -36 61 -87
q-79 -151 -152.5 -249t-155.5 -152.5t-185.5 -76.5t-243.5 -22h-50zM413 961q-53 39 -88 70.5t-43 45.5l99 122l143 -115q-87 -116 -111 -123zM338 712q-54 39 -88.5 70t-42.5 47l99 121l143 -115q-42 -56 -71 -87t-40 -36zM553 730q-53 39 -89 70.5t-42 45.5l99 122
l143 -116q-84 -112 -111 -122z" />
            <glyph glyph-name="uni06A0.fina" unicode="&#x6a0;" horiz-adv-x="930" d="M520 -670q-143 0 -243.5 57t-153.5 148.5t-53 196.5q0 90 40.5 179t125.5 164t217 122q32 11 74 53.5t84 101.5t71 118q-34 13 -82.5 18t-98.5 5q-90 0 -158 -13q38 -130 123 -208t204.5 -112.5t259.5 -34.5h20v-135h-20q-271 0 -464 121t-258 342q11 32 32.5 75.5
t37.5 70.5q40 10 95 16t117 6q72 0 147.5 -10t142.5 -34q14 -10 32 -36t29 -51q-82 -153 -142 -236.5t-111.5 -121.5t-109.5 -58q-131 -44 -198 -138.5t-67 -192.5q0 -72 36.5 -135.5t110.5 -103t186 -39.5q67 0 119 4.5t102 12.5q0 -35 -14.5 -73t-40.5 -66
q-41 -7 -82.5 -10t-109.5 -3zM496 939q-53 39 -88 70.5t-43 45.5l99 122l143 -115q-87 -116 -111 -123zM421 690q-54 39 -88.5 70t-42.5 47l99 121l143 -115q-42 -56 -71 -87t-40 -36zM636 708q-53 39 -89 70.5t-42 45.5l99 122l143 -116q-84 -112 -111 -122z" />
            <glyph glyph-name="uni063A.init" unicode="&#x63a;" horiz-adv-x="775" arabic-form="initial" d="M606 -23q-103 10 -245.5 11.5t-360.5 1.5h-20v135h20q63 0 113.5 -0.5t112.5 -3t157 -8.5q-107 59 -168 109.5t-85.5 101t-24.5 108.5q0 63 35 122t103.5 97.5t168.5 38.5q85 0 163 -39.5t117 -93.5q-16 -31 -40.5 -57.5t-62.5 -41.5q-46 47 -91 71t-101 24
q-67 0 -104 -36.5t-37 -82.5q0 -60 59 -111t161 -101t229 -106q-19 -47 -44.5 -81.5t-54.5 -57.5zM405 769q-56 41 -93 74t-44 48l103 128l151 -120q-88 -121 -117 -130z" />
            <glyph glyph-name="uni063A.medi" unicode="&#x63a;" horiz-adv-x="868" arabic-form="medial" d="M-20 -10v135h50q132 0 220.5 19.5t150 61.5t109 107.5t98.5 156.5q-78 25 -189 25q-43 0 -85 -3.5t-65 -11.5q62 -196 212.5 -275.5t386.5 -79.5h20v-135h-20q-283 0 -470 115.5t-264 347.5q11 36 28.5 75.5t41.5 70.5q134 30 268 21.5t234 -43.5q38 -36 61 -87
q-79 -151 -152.5 -249t-155.5 -152.5t-185.5 -76.5t-243.5 -22h-50zM447 704q-56 41 -93 74t-44 48l103 128l151 -120q-88 -121 -117 -130z" />
            <glyph glyph-name="uni063A.fina" unicode="&#x63a;" horiz-adv-x="930" arabic-form="final" d="M520 -670q-143 0 -243.5 57t-153.5 148.5t-53 196.5q0 90 40.5 179t125.5 164t217 122q32 11 74 53.5t84 101.5t71 118q-34 13 -82.5 18t-98.5 5q-90 0 -158 -13q38 -130 123 -208t204.5 -112.5t259.5 -34.5h20v-135h-20q-271 0 -464 121t-258 342q11 32 32.5 75.5
t37.5 70.5q40 10 95 16t117 6q72 0 147.5 -10t142.5 -34q14 -10 32 -36t29 -51q-82 -153 -142 -236.5t-111.5 -121.5t-109.5 -58q-131 -44 -198 -138.5t-67 -192.5q0 -72 36.5 -135.5t110.5 -103t186 -39.5q67 0 119 4.5t102 12.5q0 -35 -14.5 -73t-40.5 -66
q-41 -7 -82.5 -10t-109.5 -3zM520 696q-56 41 -93 74t-44 48l103 128l151 -120q-88 -121 -117 -130z" />
            <glyph glyph-name="uni06FC.init" unicode="&#x6fc;" horiz-adv-x="775" d="M606 -23q-103 10 -245.5 11.5t-360.5 1.5h-20v135h20q63 0 113.5 -0.5t112.5 -3t157 -8.5q-107 59 -168 109.5t-85.5 101t-24.5 108.5q0 63 35 122t103.5 97.5t168.5 38.5q85 0 163 -39.5t117 -93.5q-16 -31 -40.5 -57.5t-62.5 -41.5q-46 47 -91 71t-101 24
q-67 0 -104 -36.5t-37 -82.5q0 -60 59 -111t161 -101t229 -106q-19 -47 -44.5 -81.5t-54.5 -57.5zM378 762q-56 41 -93 74t-44 48l103 128l151 -120q-88 -121 -117 -130zM409 -359q-56 41 -93 74t-44 48l103 128l151 -120q-88 -121 -117 -130z" />
            <glyph glyph-name="uni06FC.medi" unicode="&#x6fc;" horiz-adv-x="868" d="M-20 -10v135h50q132 0 220.5 19.5t150 61.5t109 107.5t98.5 156.5q-78 25 -189 25q-43 0 -85 -3.5t-65 -11.5q62 -196 212.5 -275.5t386.5 -79.5h20v-135h-20q-283 0 -470 115.5t-264 347.5q11 36 28.5 75.5t41.5 70.5q134 30 268 21.5t234 -43.5q38 -36 61 -87
q-79 -151 -152.5 -249t-155.5 -152.5t-185.5 -76.5t-243.5 -22h-50zM447 692q-56 41 -93 74t-44 48l103 128l151 -120q-88 -121 -117 -130zM436 -319q-56 41 -93 74t-44 48l103 128l151 -120q-88 -121 -117 -130z" />
            <glyph glyph-name="uni06FC.fina" unicode="&#x6fc;" horiz-adv-x="930" d="M520 -670q-143 0 -243.5 57t-153.5 148.5t-53 196.5q0 90 40.5 179t125.5 164t217 122q32 11 74 53.5t84 101.5t71 118q-34 13 -82.5 18t-98.5 5q-90 0 -158 -13q38 -130 123 -208t204.5 -112.5t259.5 -34.5h20v-135h-20q-271 0 -464 121t-258 342q11 32 32.5 75.5
t37.5 70.5q40 10 95 16t117 6q72 0 147.5 -10t142.5 -34q14 -10 32 -36t29 -51q-82 -153 -142 -236.5t-111.5 -121.5t-109.5 -58q-131 -44 -198 -138.5t-67 -192.5q0 -72 36.5 -135.5t110.5 -103t186 -39.5q67 0 119 4.5t102 12.5q0 -35 -14.5 -73t-40.5 -66
q-41 -7 -82.5 -10t-109.5 -3zM520 692q-56 41 -93 74t-44 48l103 128l151 -120q-88 -121 -117 -130zM544 -359q-56 41 -93 74t-44 48l103 128l151 -120q-88 -121 -117 -130z" />
            <glyph glyph-name="uni0641.init" unicode="&#x641;" horiz-adv-x="786" arabic-form="initial" d="M-20 -10v135h20h122.5h59.5t43 -0.5t72 -0.5q128 -1 187.5 28t73.5 88q-34 -13 -73 -19t-93 -6q-99 0 -163 37.5t-95.5 97.5t-31.5 125q0 68 32.5 131t95 103.5t153.5 40.5q122 0 202.5 -73.5t105.5 -252.5l33 17q12 -28 12 -78q0 -35 -7 -62l-32 -14
q-10 -128 -73.5 -191.5t-156 -84.5t-190.5 -21h-102.5h-43.5h-21h-31.5h-78.5h-20zM383 346q56 0 96.5 6t81.5 17q-10 126 -59.5 189t-120.5 63q-73 0 -109.5 -42.5t-36.5 -93.5q0 -52 37.5 -95.5t110.5 -43.5zM380 851q-56 41 -93 74t-44 48l103 128l151 -120
q-88 -121 -117 -130z" />
            <glyph glyph-name="uni0641.medi" unicode="&#x641;" horiz-adv-x="797" arabic-form="medial" d="M277 -11h-101.5t-40.5 0.5t-18 0.5h-32.5h-84.5h-20v135h20h129t72 -0.5t45.5 -0.5h50.5q128 0 187.5 28.5t73.5 87.5q-34 -13 -73 -19t-93 -6q-99 0 -163 37.5t-95.5 97.5t-31.5 125q0 68 32.5 131t95 103.5t153.5 40.5q122 0 202.5 -73.5t105.5 -252.5l33 16
q4 -19 6.5 -39t2.5 -36q0 -12 -1.5 -29t-8.5 -35l-26 -14q-10 -128 -73.5 -192t-156 -85t-190.5 -21zM797 -10q-77 0 -132.5 16t-97.5 58l85 111q23 -28 58.5 -39t86.5 -11h20v-135h-20zM383 346q56 0 96.5 6t81.5 17q-10 126 -59.5 189t-120.5 63q-73 0 -109.5 -42.5
t-36.5 -93.5q0 -52 37.5 -95.5t110.5 -43.5zM373 857q-56 41 -93 74t-44 48l103 128l151 -120q-88 -121 -117 -130z" />
            <glyph glyph-name="uni0641.fina" unicode="&#x641;" horiz-adv-x="1735" arabic-form="final" d="M824 -24q-239 0 -389 26t-231.5 71t-112.5 103.5t-31 122.5q0 62 26.5 125.5t91.5 127.5q39 -11 64 -46q-34 -52 -44 -90t-10 -72q0 -93 83 -143.5t234.5 -70t356.5 -19.5q201 0 321 6t182.5 21t89.5 40t43 62q-43 -16 -77.5 -20.5t-88.5 -4.5q-97 0 -161.5 37.5
t-96.5 97.5t-32 125q0 89 40.5 150t105 93t135.5 32q122 0 203 -74t106 -253l33 16q5 -17 7 -37.5t2 -36.5q0 -12 -1.5 -29.5t-8.5 -35.5l-26 -14q-15 -91 -52 -151t-121 -95t-238 -49.5t-403 -14.5zM1735 -10q-77 0 -132.5 16t-97.5 58l85 111q23 -28 58.5 -39t86.5 -11h20
v-135h-20zM1323 346q56 0 96.5 6t82.5 18q-15 139 -68 195.5t-116 56.5q-55 0 -99 -37.5t-44 -99.5q0 -64 45 -101.5t103 -37.5zM1327 858q-56 41 -93 74t-44 48l103 128l151 -120q-88 -121 -117 -130z" />
            <glyph glyph-name="uni06A4.init" unicode="&#x6a4;" horiz-adv-x="786" arabic-form="initial" d="M-20 -10v135h20h122.5h59.5t43 -0.5t72 -0.5q128 -1 187.5 28t73.5 88q-34 -13 -73 -19t-93 -6q-99 0 -163 37.5t-95.5 97.5t-31.5 125q0 68 32.5 131t95 103.5t153.5 40.5q122 0 202.5 -73.5t105.5 -252.5l33 17q12 -28 12 -78q0 -35 -7 -62l-32 -14
q-10 -128 -73.5 -191.5t-156 -84.5t-190.5 -21h-102.5h-43.5h-21h-31.5h-78.5h-20zM383 346q56 0 96.5 6t81.5 17q-10 126 -59.5 189t-120.5 63q-73 0 -109.5 -42.5t-36.5 -93.5q0 -52 37.5 -95.5t110.5 -43.5zM323 1065q-53 39 -88 70.5t-43 45.5l99 122l143 -115
q-87 -116 -111 -123zM248 816q-54 39 -88.5 70t-42.5 47l99 121l143 -115q-42 -56 -71 -87t-40 -36zM463 834q-53 39 -89 70.5t-42 45.5l99 122l143 -116q-84 -112 -111 -122z" />
            <glyph glyph-name="uni06A4.medi" unicode="&#x6a4;" horiz-adv-x="797" arabic-form="medial" d="M277 -11h-101.5t-40.5 0.5t-18 0.5h-32.5h-84.5h-20v135h20h129t72 -0.5t45.5 -0.5h50.5q128 0 187.5 28.5t73.5 87.5q-34 -13 -73 -19t-93 -6q-99 0 -163 37.5t-95.5 97.5t-31.5 125q0 68 32.5 131t95 103.5t153.5 40.5q122 0 202.5 -73.5t105.5 -252.5l33 16
q4 -19 6.5 -39t2.5 -36q0 -12 -1.5 -29t-8.5 -35l-26 -14q-10 -128 -73.5 -192t-156 -85t-190.5 -21zM797 -10q-77 0 -132.5 16t-97.5 58l85 111q23 -28 58.5 -39t86.5 -11h20v-135h-20zM383 346q56 0 96.5 6t81.5 17q-10 126 -59.5 189t-120.5 63q-73 0 -109.5 -42.5
t-36.5 -93.5q0 -52 37.5 -95.5t110.5 -43.5zM323 1065q-53 39 -88 70.5t-43 45.5l99 122l143 -115q-87 -116 -111 -123zM248 816q-54 39 -88.5 70t-42.5 47l99 121l143 -115q-42 -56 -71 -87t-40 -36zM463 834q-53 39 -89 70.5t-42 45.5l99 122l143 -116q-84 -112 -111 -122
z" />
            <glyph glyph-name="uni06A4.fina" unicode="&#x6a4;" horiz-adv-x="1735" arabic-form="final" d="M824 -24q-239 0 -389 26t-231.5 71t-112.5 103.5t-31 122.5q0 62 26.5 125.5t91.5 127.5q39 -11 64 -46q-34 -52 -44 -90t-10 -72q0 -93 83 -143.5t234.5 -70t356.5 -19.5q201 0 321 6t182.5 21t89.5 40t43 62q-43 -16 -77.5 -20.5t-88.5 -4.5q-97 0 -161.5 37.5
t-96.5 97.5t-32 125q0 89 40.5 150t105 93t135.5 32q122 0 203 -74t106 -253l33 16q5 -17 7 -37.5t2 -36.5q0 -12 -1.5 -29.5t-8.5 -35.5l-26 -14q-15 -91 -52 -151t-121 -95t-238 -49.5t-403 -14.5zM1735 -10q-77 0 -132.5 16t-97.5 58l85 111q23 -28 58.5 -39t86.5 -11h20
v-135h-20zM1323 346q56 0 96.5 6t82.5 18q-15 139 -68 195.5t-116 56.5q-55 0 -99 -37.5t-44 -99.5q0 -64 45 -101.5t103 -37.5zM1252 1065q-53 39 -88 70.5t-43 45.5l99 122l143 -115q-87 -116 -111 -123zM1177 816q-54 39 -88.5 70t-42.5 47l99 121l143 -115
q-42 -56 -71 -87t-40 -36zM1392 834q-53 39 -89 70.5t-42 45.5l99 122l143 -116q-84 -112 -111 -122z" />
            <glyph glyph-name="uni06A1.init" unicode="&#x6a1;" horiz-adv-x="786" d="M-20 -10v135h20h122.5h59.5t43 -0.5t72 -0.5q128 -1 187.5 28t73.5 88q-34 -13 -73 -19t-93 -6q-99 0 -163 37.5t-95.5 97.5t-31.5 125q0 68 32.5 131t95 103.5t153.5 40.5q122 0 202.5 -73.5t105.5 -252.5l33 17q12 -28 12 -78q0 -35 -7 -62l-32 -14
q-10 -128 -73.5 -191.5t-156 -84.5t-190.5 -21h-102.5h-43.5h-21h-31.5h-78.5h-20zM383 346q56 0 96.5 6t81.5 17q-10 126 -59.5 189t-120.5 63q-73 0 -109.5 -42.5t-36.5 -93.5q0 -52 37.5 -95.5t110.5 -43.5z" />
            <glyph glyph-name="uni06A1.medi" unicode="&#x6a1;" horiz-adv-x="797" d="M277 -11h-101.5t-40.5 0.5t-18 0.5h-32.5h-84.5h-20v135h20h129t72 -0.5t45.5 -0.5h50.5q128 0 187.5 28.5t73.5 87.5q-34 -13 -73 -19t-93 -6q-99 0 -163 37.5t-95.5 97.5t-31.5 125q0 68 32.5 131t95 103.5t153.5 40.5q122 0 202.5 -73.5t105.5 -252.5l33 16
q4 -19 6.5 -39t2.5 -36q0 -12 -1.5 -29t-8.5 -35l-26 -14q-10 -128 -73.5 -192t-156 -85t-190.5 -21zM797 -10q-77 0 -132.5 16t-97.5 58l85 111q23 -28 58.5 -39t86.5 -11h20v-135h-20zM383 346q56 0 96.5 6t81.5 17q-10 126 -59.5 189t-120.5 63q-73 0 -109.5 -42.5
t-36.5 -93.5q0 -52 37.5 -95.5t110.5 -43.5z" />
            <glyph glyph-name="uni06A1.fina" unicode="&#x6a1;" horiz-adv-x="1735" d="M824 -24q-239 0 -389 26t-231.5 71t-112.5 103.5t-31 122.5q0 62 26.5 125.5t91.5 127.5q39 -11 64 -46q-34 -52 -44 -90t-10 -72q0 -93 83 -143.5t234.5 -70t356.5 -19.5q201 0 321 6t182.5 21t89.5 40t43 62q-43 -16 -77.5 -20.5t-88.5 -4.5q-97 0 -161.5 37.5
t-96.5 97.5t-32 125q0 89 40.5 150t105 93t135.5 32q122 0 203 -74t106 -253l33 16q5 -17 7 -37.5t2 -36.5q0 -12 -1.5 -29.5t-8.5 -35.5l-26 -14q-15 -91 -52 -151t-121 -95t-238 -49.5t-403 -14.5zM1735 -10q-77 0 -132.5 16t-97.5 58l85 111q23 -28 58.5 -39t86.5 -11h20
v-135h-20zM1323 346q56 0 96.5 6t82.5 18q-15 139 -68 195.5t-116 56.5q-55 0 -99 -37.5t-44 -99.5q0 -64 45 -101.5t103 -37.5z" />
            <glyph glyph-name="uni06A2.init" unicode="&#x6a2;" horiz-adv-x="786" d="M-20 -10v135h20h122.5h59.5t43 -0.5t72 -0.5q128 -1 187.5 28t73.5 88q-34 -13 -73 -19t-93 -6q-99 0 -163 37.5t-95.5 97.5t-31.5 125q0 68 32.5 131t95 103.5t153.5 40.5q122 0 202.5 -73.5t105.5 -252.5l33 17q12 -28 12 -78q0 -35 -7 -62l-32 -14
q-10 -128 -73.5 -191.5t-156 -84.5t-190.5 -21h-102.5h-43.5h-21h-31.5h-78.5h-20zM383 346q56 0 96.5 6t81.5 17q-10 126 -59.5 189t-120.5 63q-73 0 -109.5 -42.5t-36.5 -93.5q0 -52 37.5 -95.5t110.5 -43.5zM400 -398q-56 41 -93 74t-44 48l103 128l151 -120
q-88 -121 -117 -130z" />
            <glyph glyph-name="uni06A2.medi" unicode="&#x6a2;" horiz-adv-x="797" d="M277 -11h-101.5t-40.5 0.5t-18 0.5h-32.5h-84.5h-20v135h20h129t72 -0.5t45.5 -0.5h50.5q128 0 187.5 28.5t73.5 87.5q-34 -13 -73 -19t-93 -6q-99 0 -163 37.5t-95.5 97.5t-31.5 125q0 68 32.5 131t95 103.5t153.5 40.5q122 0 202.5 -73.5t105.5 -252.5l33 16
q4 -19 6.5 -39t2.5 -36q0 -12 -1.5 -29t-8.5 -35l-26 -14q-10 -128 -73.5 -192t-156 -85t-190.5 -21zM797 -10q-77 0 -132.5 16t-97.5 58l85 111q23 -28 58.5 -39t86.5 -11h20v-135h-20zM383 346q56 0 96.5 6t81.5 17q-10 126 -59.5 189t-120.5 63q-73 0 -109.5 -42.5
t-36.5 -93.5q0 -52 37.5 -95.5t110.5 -43.5zM400 -398q-56 41 -93 74t-44 48l103 128l151 -120q-88 -121 -117 -130z" />
            <glyph glyph-name="uni06A2.fina" unicode="&#x6a2;" horiz-adv-x="1735" d="M824 -24q-239 0 -389 26t-231.5 71t-112.5 103.5t-31 122.5q0 62 26.5 125.5t91.5 127.5q39 -11 64 -46q-34 -52 -44 -90t-10 -72q0 -93 83 -143.5t234.5 -70t356.5 -19.5q201 0 321 6t182.5 21t89.5 40t43 62q-43 -16 -77.5 -20.5t-88.5 -4.5q-97 0 -161.5 37.5
t-96.5 97.5t-32 125q0 89 40.5 150t105 93t135.5 32q122 0 203 -74t106 -253l33 16q5 -17 7 -37.5t2 -36.5q0 -12 -1.5 -29.5t-8.5 -35.5l-26 -14q-15 -91 -52 -151t-121 -95t-238 -49.5t-403 -14.5zM1735 -10q-77 0 -132.5 16t-97.5 58l85 111q23 -28 58.5 -39t86.5 -11h20
v-135h-20zM1323 346q56 0 96.5 6t82.5 18q-15 139 -68 195.5t-116 56.5q-55 0 -99 -37.5t-44 -99.5q0 -64 45 -101.5t103 -37.5zM1353 -392q-56 41 -93 74t-44 48l103 128l151 -120q-88 -121 -117 -130z" />
            <glyph glyph-name="uni06A3.init" unicode="&#x6a3;" horiz-adv-x="786" d="M-20 -10v135h20h122.5h59.5t43 -0.5t72 -0.5q128 -1 187.5 28t73.5 88q-34 -13 -73 -19t-93 -6q-99 0 -163 37.5t-95.5 97.5t-31.5 125q0 68 32.5 131t95 103.5t153.5 40.5q122 0 202.5 -73.5t105.5 -252.5l33 17q12 -28 12 -78q0 -35 -7 -62l-32 -14
q-10 -128 -73.5 -191.5t-156 -84.5t-190.5 -21h-102.5h-43.5h-21h-31.5h-78.5h-20zM383 346q56 0 96.5 6t81.5 17q-10 126 -59.5 189t-120.5 63q-73 0 -109.5 -42.5t-36.5 -93.5q0 -52 37.5 -95.5t110.5 -43.5zM323 878q-56 41 -93 74t-44 48l103 128l151 -120
q-88 -121 -117 -130zM400 -398q-56 41 -93 74t-44 48l103 128l151 -120q-88 -121 -117 -130z" />
            <glyph glyph-name="uni06A3.medi" unicode="&#x6a3;" horiz-adv-x="797" d="M277 -11h-101.5t-40.5 0.5t-18 0.5h-32.5h-84.5h-20v135h20h129t72 -0.5t45.5 -0.5h50.5q128 0 187.5 28.5t73.5 87.5q-34 -13 -73 -19t-93 -6q-99 0 -163 37.5t-95.5 97.5t-31.5 125q0 68 32.5 131t95 103.5t153.5 40.5q122 0 202.5 -73.5t105.5 -252.5l33 16
q4 -19 6.5 -39t2.5 -36q0 -12 -1.5 -29t-8.5 -35l-26 -14q-10 -128 -73.5 -192t-156 -85t-190.5 -21zM797 -10q-77 0 -132.5 16t-97.5 58l85 111q23 -28 58.5 -39t86.5 -11h20v-135h-20zM383 346q56 0 96.5 6t81.5 17q-10 126 -59.5 189t-120.5 63q-73 0 -109.5 -42.5
t-36.5 -93.5q0 -52 37.5 -95.5t110.5 -43.5zM328 878q-56 41 -93 74t-44 48l103 128l151 -120q-88 -121 -117 -130zM400 -398q-56 41 -93 74t-44 48l103 128l151 -120q-88 -121 -117 -130z" />
            <glyph glyph-name="uni06A3.fina" unicode="&#x6a3;" horiz-adv-x="1735" d="M824 -24q-239 0 -389 26t-231.5 71t-112.5 103.5t-31 122.5q0 62 26.5 125.5t91.5 127.5q39 -11 64 -46q-34 -52 -44 -90t-10 -72q0 -93 83 -143.5t234.5 -70t356.5 -19.5q201 0 321 6t182.5 21t89.5 40t43 62q-43 -16 -77.5 -20.5t-88.5 -4.5q-97 0 -161.5 37.5
t-96.5 97.5t-32 125q0 89 40.5 150t105 93t135.5 32q122 0 203 -74t106 -253l33 16q5 -17 7 -37.5t2 -36.5q0 -12 -1.5 -29.5t-8.5 -35.5l-26 -14q-15 -91 -52 -151t-121 -95t-238 -49.5t-403 -14.5zM1735 -10q-77 0 -132.5 16t-97.5 58l85 111q23 -28 58.5 -39t86.5 -11h20
v-135h-20zM1323 346q56 0 96.5 6t82.5 18q-15 139 -68 195.5t-116 56.5q-55 0 -99 -37.5t-44 -99.5q0 -64 45 -101.5t103 -37.5zM1249 878q-56 41 -93 74t-44 48l103 128l151 -120q-88 -121 -117 -130zM1353 -386q-56 41 -93 74t-44 48l103 128l151 -120q-88 -121 -117 -130
z" />
            <glyph glyph-name="uni06A5.init" unicode="&#x6a5;" horiz-adv-x="786" d="M-20 -10v135h20h122.5h59.5t43 -0.5t72 -0.5q128 -1 187.5 28t73.5 88q-34 -13 -73 -19t-93 -6q-99 0 -163 37.5t-95.5 97.5t-31.5 125q0 68 32.5 131t95 103.5t153.5 40.5q122 0 202.5 -73.5t105.5 -252.5l33 17q12 -28 12 -78q0 -35 -7 -62l-32 -14
q-10 -128 -73.5 -191.5t-156 -84.5t-190.5 -21h-102.5h-43.5h-21h-31.5h-78.5h-20zM383 346q56 0 96.5 6t81.5 17q-10 126 -59.5 189t-120.5 63q-73 0 -109.5 -42.5t-36.5 -93.5q0 -52 37.5 -95.5t110.5 -43.5zM501 -378l-143 115q41 56 70.5 87.5t40.5 35.5
q53 -39 88 -70.5t42 -46.5zM425 -627l-142 115q83 114 111 123q53 -39 88 -70.5t42 -46.5zM286 -396l-143 115q83 113 111 122q53 -38 88.5 -69.5t41.5 -46.5z" />
            <glyph glyph-name="uni06A5.medi" unicode="&#x6a5;" horiz-adv-x="797" d="M277 -11h-101.5t-40.5 0.5t-18 0.5h-32.5h-84.5h-20v135h20h129t72 -0.5t45.5 -0.5h50.5q128 0 187.5 28.5t73.5 87.5q-34 -13 -73 -19t-93 -6q-99 0 -163 37.5t-95.5 97.5t-31.5 125q0 68 32.5 131t95 103.5t153.5 40.5q122 0 202.5 -73.5t105.5 -252.5l33 16
q4 -19 6.5 -39t2.5 -36q0 -12 -1.5 -29t-8.5 -35l-26 -14q-10 -128 -73.5 -192t-156 -85t-190.5 -21zM797 -10q-77 0 -132.5 16t-97.5 58l85 111q23 -28 58.5 -39t86.5 -11h20v-135h-20zM383 346q56 0 96.5 6t81.5 17q-10 126 -59.5 189t-120.5 63q-73 0 -109.5 -42.5
t-36.5 -93.5q0 -52 37.5 -95.5t110.5 -43.5zM501 -378l-143 115q41 56 70.5 87.5t40.5 35.5q53 -39 88 -70.5t42 -46.5zM425 -627l-142 115q83 114 111 123q53 -39 88 -70.5t42 -46.5zM286 -396l-143 115q83 113 111 122q53 -38 88.5 -69.5t41.5 -46.5z" />
            <glyph glyph-name="uni06A5.fina" unicode="&#x6a5;" horiz-adv-x="1735" d="M824 -24q-239 0 -389 26t-231.5 71t-112.5 103.5t-31 122.5q0 62 26.5 125.5t91.5 127.5q39 -11 64 -46q-34 -52 -44 -90t-10 -72q0 -93 83 -143.5t234.5 -70t356.5 -19.5q201 0 321 6t182.5 21t89.5 40t43 62q-43 -16 -77.5 -20.5t-88.5 -4.5q-97 0 -161.5 37.5
t-96.5 97.5t-32 125q0 89 40.5 150t105 93t135.5 32q122 0 203 -74t106 -253l33 16q5 -17 7 -37.5t2 -36.5q0 -12 -1.5 -29.5t-8.5 -35.5l-26 -14q-15 -91 -52 -151t-121 -95t-238 -49.5t-403 -14.5zM1735 -10q-77 0 -132.5 16t-97.5 58l85 111q23 -28 58.5 -39t86.5 -11h20
v-135h-20zM1323 346q56 0 96.5 6t82.5 18q-15 139 -68 195.5t-116 56.5q-55 0 -99 -37.5t-44 -99.5q0 -64 45 -101.5t103 -37.5zM1415 -333l-143 115q41 56 70.5 87.5t40.5 35.5q53 -39 88 -70.5t42 -46.5zM1339 -582l-142 115q83 114 111 123q53 -39 88 -70.5t42 -46.5z
M1200 -351l-143 115q83 113 111 122q53 -38 88.5 -69.5t41.5 -46.5z" />
            <glyph glyph-name="uni06A6.init" unicode="&#x6a6;" horiz-adv-x="786" arabic-form="initial" d="M-20 -10v135h20h122.5h59.5t43 -0.5t72 -0.5q128 -1 187.5 28t73.5 88q-34 -13 -73 -19t-93 -6q-99 0 -163 37.5t-95.5 97.5t-31.5 125q0 68 32.5 131t95 103.5t153.5 40.5q122 0 202.5 -73.5t105.5 -252.5l33 17q12 -28 12 -78q0 -35 -7 -62l-32 -14
q-10 -128 -73.5 -191.5t-156 -84.5t-190.5 -21h-102.5h-43.5h-21h-31.5h-78.5h-20zM383 346q56 0 96.5 6t81.5 17q-10 126 -59.5 189t-120.5 63q-73 0 -109.5 -42.5t-36.5 -93.5q0 -52 37.5 -95.5t110.5 -43.5zM430 1089q-53 38 -88.5 70t-41.5 46l108 121l143 -114
q-41 -56 -75.5 -87.5t-45.5 -35.5zM239 837q-53 38 -88 69.5t-42 46.5l108 121l143 -115q-41 -56 -75.5 -87.5t-45.5 -34.5zM215 1072q-53 38 -88 69.5t-42 46.5l108 121l143 -115q-41 -56 -75.5 -87.5t-45.5 -34.5zM454 854q-53 38 -88.5 70t-41.5 46l108 121l143 -114
q-41 -56 -75.5 -87.5t-45.5 -35.5z" />
            <glyph glyph-name="uni06A6.medi" unicode="&#x6a6;" horiz-adv-x="797" arabic-form="medial" d="M277 -11h-101.5t-40.5 0.5t-18 0.5h-32.5h-84.5h-20v135h20h129t72 -0.5t45.5 -0.5h50.5q128 0 187.5 28.5t73.5 87.5q-34 -13 -73 -19t-93 -6q-99 0 -163 37.5t-95.5 97.5t-31.5 125q0 68 32.5 131t95 103.5t153.5 40.5q122 0 202.5 -73.5t105.5 -252.5l33 16
q4 -19 6.5 -39t2.5 -36q0 -12 -1.5 -29t-8.5 -35l-26 -14q-10 -128 -73.5 -192t-156 -85t-190.5 -21zM797 -10q-77 0 -132.5 16t-97.5 58l85 111q23 -28 58.5 -39t86.5 -11h20v-135h-20zM383 346q56 0 96.5 6t81.5 17q-10 126 -59.5 189t-120.5 63q-73 0 -109.5 -42.5
t-36.5 -93.5q0 -52 37.5 -95.5t110.5 -43.5zM430 1099q-53 38 -88.5 70t-41.5 46l108 121l143 -114q-41 -56 -75.5 -87.5t-45.5 -35.5zM239 847q-53 38 -88 69.5t-42 46.5l108 121l143 -115q-41 -56 -75.5 -87.5t-45.5 -34.5zM215 1082q-53 38 -88 69.5t-42 46.5l108 121
l143 -115q-41 -56 -75.5 -87.5t-45.5 -34.5zM454 864q-53 38 -88.5 70t-41.5 46l108 121l143 -114q-41 -56 -75.5 -87.5t-45.5 -35.5z" />
            <glyph glyph-name="uni06A6.fina" unicode="&#x6a6;" horiz-adv-x="1735" arabic-form="final" d="M824 -24q-239 0 -389 26t-231.5 71t-112.5 103.5t-31 122.5q0 62 26.5 125.5t91.5 127.5q39 -11 64 -46q-34 -52 -44 -90t-10 -72q0 -93 83 -143.5t234.5 -70t356.5 -19.5q201 0 321 6t182.5 21t89.5 40t43 62q-43 -16 -77.5 -20.5t-88.5 -4.5q-97 0 -161.5 37.5
t-96.5 97.5t-32 125q0 89 40.5 150t105 93t135.5 32q122 0 203 -74t106 -253l33 16q5 -17 7 -37.5t2 -36.5q0 -12 -1.5 -29.5t-8.5 -35.5l-26 -14q-15 -91 -52 -151t-121 -95t-238 -49.5t-403 -14.5zM1735 -10q-77 0 -132.5 16t-97.5 58l85 111q23 -28 58.5 -39t86.5 -11h20
v-135h-20zM1323 346q56 0 96.5 6t82.5 18q-15 139 -68 195.5t-116 56.5q-55 0 -99 -37.5t-44 -99.5q0 -64 45 -101.5t103 -37.5zM1350 1089q-53 38 -88.5 70t-41.5 46l108 121l143 -114q-41 -56 -75.5 -87.5t-45.5 -35.5zM1159 837q-53 38 -88 69.5t-42 46.5l108 121
l143 -115q-41 -56 -75.5 -87.5t-45.5 -34.5zM1135 1072q-53 38 -88 69.5t-42 46.5l108 121l143 -115q-41 -56 -75.5 -87.5t-45.5 -34.5zM1374 854q-53 38 -88.5 70t-41.5 46l108 121l143 -114q-41 -56 -75.5 -87.5t-45.5 -35.5z" />
            <glyph glyph-name="uni066F.init" unicode="&#x66f;" horiz-adv-x="786" d="M-20 -10v135h20h122.5h59.5t43 -0.5t72 -0.5q128 -1 187.5 28t73.5 88q-34 -13 -73 -19t-93 -6q-99 0 -163 37.5t-95.5 97.5t-31.5 125q0 68 32.5 131t95 103.5t153.5 40.5q122 0 202.5 -73.5t105.5 -252.5l33 17q12 -28 12 -78q0 -35 -7 -62l-32 -14
q-10 -128 -73.5 -191.5t-156 -84.5t-190.5 -21h-102.5h-43.5h-21h-31.5h-78.5h-20zM383 346q56 0 96.5 6t81.5 17q-10 126 -59.5 189t-120.5 63q-73 0 -109.5 -42.5t-36.5 -93.5q0 -52 37.5 -95.5t110.5 -43.5z" />
            <glyph glyph-name="uni066F.medi" unicode="&#x66f;" horiz-adv-x="797" d="M277 -11h-101.5t-40.5 0.5t-18 0.5h-32.5h-84.5h-20v135h20h129t72 -0.5t45.5 -0.5h50.5q128 0 187.5 28.5t73.5 87.5q-34 -13 -73 -19t-93 -6q-99 0 -163 37.5t-95.5 97.5t-31.5 125q0 68 32.5 131t95 103.5t153.5 40.5q122 0 202.5 -73.5t105.5 -252.5l33 16
q4 -19 6.5 -39t2.5 -36q0 -12 -1.5 -29t-8.5 -35l-26 -14q-10 -128 -73.5 -192t-156 -85t-190.5 -21zM797 -10q-77 0 -132.5 16t-97.5 58l85 111q23 -28 58.5 -39t86.5 -11h20v-135h-20zM383 346q56 0 96.5 6t81.5 17q-10 126 -59.5 189t-120.5 63q-73 0 -109.5 -42.5
t-36.5 -93.5q0 -52 37.5 -95.5t110.5 -43.5z" />
            <glyph glyph-name="uni066F.fina" unicode="&#x66f;" horiz-adv-x="1377" d="M659 -317q-181 0 -315.5 72.5t-209 194.5t-74.5 269q0 116 46.5 245.5t170.5 244.5q44 -13 71 -60q-77 -97 -116.5 -202t-39.5 -204q0 -118 56 -212.5t165 -149.5t267 -55q120 0 224.5 37.5t169 113t64.5 189.5q0 104 -52 154.5t-120 50.5q-57 0 -92 -40t-35 -90t42 -93
t129 -43q34 0 74.5 3t75.5 9q9 -12 21 -12q13 0 27 10t29 10h160v-135h-180q-13 0 -25.5 -6t-25.5 -6q-15 0 -26 14q-37 -12 -70.5 -16.5t-64.5 -4.5q-102 0 -169.5 39t-100.5 100.5t-33 127.5t31 125.5t89.5 97.5t140.5 38q83 0 153 -36t113 -108t43 -182
q0 -118 -51 -209.5t-138 -154t-197 -94.5t-227 -32z" />
            <glyph glyph-name="uni0642.init" unicode="&#x642;" horiz-adv-x="786" arabic-form="initial" d="M-20 -10v135h20h122.5h59.5t43 -0.5t72 -0.5q128 -1 187.5 28t73.5 88q-34 -13 -73 -19t-93 -6q-99 0 -163 37.5t-95.5 97.5t-31.5 125q0 68 32.5 131t95 103.5t153.5 40.5q122 0 202.5 -73.5t105.5 -252.5l33 17q12 -28 12 -78q0 -35 -7 -62l-32 -14
q-10 -128 -73.5 -191.5t-156 -84.5t-190.5 -21h-102.5h-43.5h-21h-31.5h-78.5h-20zM383 346q56 0 96.5 6t81.5 17q-10 126 -59.5 189t-120.5 63q-73 0 -109.5 -42.5t-36.5 -93.5q0 -52 37.5 -95.5t110.5 -43.5zM477 866q-53 38 -88.5 70t-41.5 46l108 121l143 -114
q-41 -56 -75.5 -87.5t-45.5 -35.5zM262 849q-53 38 -88 69.5t-42 46.5l108 121l143 -115q-41 -56 -75.5 -87.5t-45.5 -34.5z" />
            <glyph glyph-name="uni0642.medi" unicode="&#x642;" horiz-adv-x="797" arabic-form="medial" d="M277 -11h-101.5t-40.5 0.5t-18 0.5h-32.5h-84.5h-20v135h20h129t72 -0.5t45.5 -0.5h50.5q128 0 187.5 28.5t73.5 87.5q-34 -13 -73 -19t-93 -6q-99 0 -163 37.5t-95.5 97.5t-31.5 125q0 68 32.5 131t95 103.5t153.5 40.5q122 0 202.5 -73.5t105.5 -252.5l33 16
q4 -19 6.5 -39t2.5 -36q0 -12 -1.5 -29t-8.5 -35l-26 -14q-10 -128 -73.5 -192t-156 -85t-190.5 -21zM797 -10q-77 0 -132.5 16t-97.5 58l85 111q23 -28 58.5 -39t86.5 -11h20v-135h-20zM383 346q56 0 96.5 6t81.5 17q-10 126 -59.5 189t-120.5 63q-73 0 -109.5 -42.5
t-36.5 -93.5q0 -52 37.5 -95.5t110.5 -43.5zM470 872q-53 38 -88.5 70t-41.5 46l108 121l143 -114q-41 -56 -75.5 -87.5t-45.5 -35.5zM255 855q-53 38 -88 69.5t-42 46.5l108 121l143 -115q-41 -56 -75.5 -87.5t-45.5 -34.5z" />
            <glyph glyph-name="uni0642.fina" unicode="&#x642;" horiz-adv-x="1377" arabic-form="final" d="M659 -317q-181 0 -315.5 72.5t-209 194.5t-74.5 269q0 116 46.5 245.5t170.5 244.5q44 -13 71 -60q-77 -97 -116.5 -202t-39.5 -204q0 -118 56 -212.5t165 -149.5t267 -55q120 0 224.5 37.5t169 113t64.5 189.5q0 104 -52 154.5t-120 50.5q-57 0 -92 -40t-35 -90t42 -93
t129 -43q34 0 74.5 3t75.5 9q9 -12 21 -12q13 0 27 10t29 10h160v-135h-180q-13 0 -25.5 -6t-25.5 -6q-15 0 -26 14q-37 -12 -70.5 -16.5t-64.5 -4.5q-102 0 -169.5 39t-100.5 100.5t-33 127.5t31 125.5t89.5 97.5t140.5 38q83 0 153 -36t113 -108t43 -182
q0 -118 -51 -209.5t-138 -154t-197 -94.5t-227 -32zM1043 603q-53 38 -88.5 70t-41.5 46l108 121l143 -114q-41 -56 -75.5 -87.5t-45.5 -35.5zM828 586q-53 38 -88 69.5t-42 46.5l108 121l143 -115q-41 -56 -75.5 -87.5t-45.5 -34.5z" />
            <glyph glyph-name="uni06A7.init" unicode="&#x6a7;" horiz-adv-x="786" d="M-20 -10v135h20h122.5h59.5t43 -0.5t72 -0.5q128 -1 187.5 28t73.5 88q-34 -13 -73 -19t-93 -6q-99 0 -163 37.5t-95.5 97.5t-31.5 125q0 68 32.5 131t95 103.5t153.5 40.5q122 0 202.5 -73.5t105.5 -252.5l33 17q12 -28 12 -78q0 -35 -7 -62l-32 -14
q-10 -128 -73.5 -191.5t-156 -84.5t-190.5 -21h-102.5h-43.5h-21h-31.5h-78.5h-20zM383 346q56 0 96.5 6t81.5 17q-10 126 -59.5 189t-120.5 63q-73 0 -109.5 -42.5t-36.5 -93.5q0 -52 37.5 -95.5t110.5 -43.5zM380 851q-56 41 -93 74t-44 48l103 128l151 -120
q-88 -121 -117 -130z" />
            <glyph glyph-name="uni06A7.medi" unicode="&#x6a7;" horiz-adv-x="797" d="M277 -11h-101.5t-40.5 0.5t-18 0.5h-32.5h-84.5h-20v135h20h129t72 -0.5t45.5 -0.5h50.5q128 0 187.5 28.5t73.5 87.5q-34 -13 -73 -19t-93 -6q-99 0 -163 37.5t-95.5 97.5t-31.5 125q0 68 32.5 131t95 103.5t153.5 40.5q122 0 202.5 -73.5t105.5 -252.5l33 16
q4 -19 6.5 -39t2.5 -36q0 -12 -1.5 -29t-8.5 -35l-26 -14q-10 -128 -73.5 -192t-156 -85t-190.5 -21zM797 -10q-77 0 -132.5 16t-97.5 58l85 111q23 -28 58.5 -39t86.5 -11h20v-135h-20zM383 346q56 0 96.5 6t81.5 17q-10 126 -59.5 189t-120.5 63q-73 0 -109.5 -42.5
t-36.5 -93.5q0 -52 37.5 -95.5t110.5 -43.5zM373 857q-56 41 -93 74t-44 48l103 128l151 -120q-88 -121 -117 -130z" />
            <glyph glyph-name="uni06A7.fina" unicode="&#x6a7;" horiz-adv-x="1377" d="M659 -317q-181 0 -315.5 72.5t-209 194.5t-74.5 269q0 116 46.5 245.5t170.5 244.5q44 -13 71 -60q-77 -97 -116.5 -202t-39.5 -204q0 -118 56 -212.5t165 -149.5t267 -55q120 0 224.5 37.5t169 113t64.5 189.5q0 104 -52 154.5t-120 50.5q-57 0 -92 -40t-35 -90t42 -93
t129 -43q34 0 74.5 3t75.5 9q9 -12 21 -12q13 0 27 10t29 10h160v-135h-180q-13 0 -25.5 -6t-25.5 -6q-15 0 -26 14q-37 -12 -70.5 -16.5t-64.5 -4.5q-102 0 -169.5 39t-100.5 100.5t-33 127.5t31 125.5t89.5 97.5t140.5 38q83 0 153 -36t113 -108t43 -182
q0 -118 -51 -209.5t-138 -154t-197 -94.5t-227 -32zM945 588q-56 41 -93 74t-44 48l103 128l151 -120q-88 -121 -117 -130z" />
            <glyph glyph-name="uni06A8.init" unicode="&#x6a8;" horiz-adv-x="786" d="M-20 -10v135h20h122.5h59.5t43 -0.5t72 -0.5q128 -1 187.5 28t73.5 88q-34 -13 -73 -19t-93 -6q-99 0 -163 37.5t-95.5 97.5t-31.5 125q0 68 32.5 131t95 103.5t153.5 40.5q122 0 202.5 -73.5t105.5 -252.5l33 17q12 -28 12 -78q0 -35 -7 -62l-32 -14
q-10 -128 -73.5 -191.5t-156 -84.5t-190.5 -21h-102.5h-43.5h-21h-31.5h-78.5h-20zM383 346q56 0 96.5 6t81.5 17q-10 126 -59.5 189t-120.5 63q-73 0 -109.5 -42.5t-36.5 -93.5q0 -52 37.5 -95.5t110.5 -43.5zM346 1058q-53 39 -88 70.5t-43 45.5l99 122l143 -115
q-87 -116 -111 -123zM271 809q-54 39 -88.5 70t-42.5 47l99 121l143 -115q-42 -56 -71 -87t-40 -36zM486 827q-53 39 -89 70.5t-42 45.5l99 122l143 -116q-84 -112 -111 -122z" />
            <glyph glyph-name="uni06A8.medi" unicode="&#x6a8;" horiz-adv-x="797" d="M277 -11h-101.5t-40.5 0.5t-18 0.5h-32.5h-84.5h-20v135h20h129t72 -0.5t45.5 -0.5h50.5q128 0 187.5 28.5t73.5 87.5q-34 -13 -73 -19t-93 -6q-99 0 -163 37.5t-95.5 97.5t-31.5 125q0 68 32.5 131t95 103.5t153.5 40.5q122 0 202.5 -73.5t105.5 -252.5l33 16
q4 -19 6.5 -39t2.5 -36q0 -12 -1.5 -29t-8.5 -35l-26 -14q-10 -128 -73.5 -192t-156 -85t-190.5 -21zM797 -10q-77 0 -132.5 16t-97.5 58l85 111q23 -28 58.5 -39t86.5 -11h20v-135h-20zM383 346q56 0 96.5 6t81.5 17q-10 126 -59.5 189t-120.5 63q-73 0 -109.5 -42.5
t-36.5 -93.5q0 -52 37.5 -95.5t110.5 -43.5zM339 1064q-53 39 -88 70.5t-43 45.5l99 122l143 -115q-87 -116 -111 -123zM264 815q-54 39 -88.5 70t-42.5 47l99 121l143 -115q-42 -56 -71 -87t-40 -36zM479 833q-53 39 -89 70.5t-42 45.5l99 122l143 -116q-84 -112 -111 -122
z" />
            <glyph glyph-name="uni06A8.fina" unicode="&#x6a8;" horiz-adv-x="1377" d="M659 -317q-181 0 -315.5 72.5t-209 194.5t-74.5 269q0 116 46.5 245.5t170.5 244.5q44 -13 71 -60q-77 -97 -116.5 -202t-39.5 -204q0 -118 56 -212.5t165 -149.5t267 -55q120 0 224.5 37.5t169 113t64.5 189.5q0 104 -52 154.5t-120 50.5q-57 0 -92 -40t-35 -90t42 -93
t129 -43q34 0 74.5 3t75.5 9q9 -12 21 -12q13 0 27 10t29 10h160v-135h-180q-13 0 -25.5 -6t-25.5 -6q-15 0 -26 14q-37 -12 -70.5 -16.5t-64.5 -4.5q-102 0 -169.5 39t-100.5 100.5t-33 127.5t31 125.5t89.5 97.5t140.5 38q83 0 153 -36t113 -108t43 -182
q0 -118 -51 -209.5t-138 -154t-197 -94.5t-227 -32zM891 825q-53 39 -88 70.5t-43 45.5l99 122l143 -115q-87 -116 -111 -123zM816 576q-54 39 -88.5 70t-42.5 47l99 121l143 -115q-42 -56 -71 -87t-40 -36zM1031 594q-53 39 -89 70.5t-42 45.5l99 122l143 -116
q-84 -112 -111 -122z" />
            <glyph glyph-name="uni0643.init" unicode="&#x643;" horiz-adv-x="1334" arabic-form="initial" d="M-20 -10v135h20h66.5h92.5h151q221 0 362.5 0.5t223 1.5t121 3t55.5 5q46 50 46 103q0 49 -40 84.5t-108 39.5q-23 2 -98.5 2.5t-176.5 0.5q-85 0 -178.5 -0.5t-180 -1.5t-152.5 -2q-21 24 -32.5 51t-17.5 57q131 135 327.5 294t425.5 329q18 -9 35.5 -30t23.5 -42
q-97 -82 -203.5 -176.5t-202 -184.5t-160.5 -161q56 1 132 1.5t153 0.5q108 0 199.5 -0.5t117.5 -2.5q102 -5 164 -43t90 -94.5t28 -117.5q0 -88 -47.5 -161.5t-121.5 -83.5q-25 -3 -133 -4.5t-269.5 -2t-347.5 -0.5h-110h-96.5h-138.5h-20z" />
            <glyph glyph-name="uni0643.medi" unicode="&#x643;" horiz-adv-x="1423" arabic-form="medial" d="M-20 -10v135h20h66.5h92.5h151q221 0 362.5 0.5t223 1.5t121 3t55.5 5q46 50 46 103q0 49 -40 84.5t-108 39.5q-23 2 -98.5 2.5t-176.5 0.5q-85 0 -178.5 -0.5t-180 -1.5t-152.5 -2q-21 24 -32.5 51t-17.5 57q131 135 327.5 294t425.5 329q18 -9 35.5 -30t23.5 -42
q-97 -82 -203.5 -176.5t-202 -184.5t-160.5 -161q56 1 132 1.5t153 0.5q108 0 199.5 -0.5t117.5 -2.5q102 -5 164 -43t90 -94.5t28 -117.5q0 -88 -47.5 -161.5t-121.5 -83.5q-25 -3 -133 -4.5t-269.5 -2t-347.5 -0.5h-110h-96.5h-138.5h-20zM1413 -10q-100 0 -159 16
t-101 58l85 111q23 -28 62.5 -39t112.5 -11h30v-135h-30z" />
            <glyph glyph-name="uni0643.fina" unicode="&#x643;" horiz-adv-x="1381" arabic-form="final" d="M645 -23q-213 0 -339 45t-181 118.5t-55 159.5q0 62 26.5 125.5t91.5 127.5q39 -11 64 -46q-34 -52 -44 -90t-10 -72q0 -70 46.5 -115.5t120.5 -71t158.5 -36t160.5 -10.5q122 0 219 12t157 45t70 94q5 25 6.5 64t1.5 88q0 86 -4 193.5t-9 219t-9 207.5q17 35 69 57
t85 27q3 -22 5 -52t3 -88t1 -163q0 -186 -2.5 -306.5t-8.5 -194.5t-16.5 -116.5t-27.5 -72.5q-20 -36 -83 -70.5t-183.5 -56.5t-312.5 -22zM545 314q-40 14 -52 42.5t-12 44.5q63 4 118 10t116 22q-127 20 -179.5 65.5t-52.5 101.5q0 77 64 115.5t151 38.5q59 0 116 -16
q3 -13 3 -31q0 -36 -11 -62q-57 21 -113 21q-45 0 -75.5 -15t-30.5 -45q0 -43 71 -66.5t180 -49.5q1 -8 1.5 -16.5t0.5 -17.5q0 -25 -5 -55q-19 -19 -69.5 -39.5t-111 -34t-109.5 -13.5zM1381 -10q-77 0 -132.5 16t-97.5 58l85 111q23 -28 58.5 -39t86.5 -11h20v-135h-20z
" />
            <glyph glyph-name="uni06A9.init" unicode="&#x6a9;" horiz-adv-x="1334" arabic-form="initial" d="M-20 -10v135h20h66.5h92.5h151q221 0 362.5 0.5t223 1.5t121 3t55.5 5q46 50 46 103q0 49 -40 84.5t-108 39.5q-23 2 -98.5 2.5t-176.5 0.5q-85 0 -178.5 -0.5t-180 -1.5t-152.5 -2q-21 24 -32.5 51t-17.5 57q131 135 327.5 294t425.5 329q18 -9 35.5 -30t23.5 -42
q-97 -82 -203.5 -176.5t-202 -184.5t-160.5 -161q56 1 132 1.5t153 0.5q108 0 199.5 -0.5t117.5 -2.5q102 -5 164 -43t90 -94.5t28 -117.5q0 -88 -47.5 -161.5t-121.5 -83.5q-25 -3 -133 -4.5t-269.5 -2t-347.5 -0.5h-110h-96.5h-138.5h-20z" />
            <glyph glyph-name="uni06A9.medi" unicode="&#x6a9;" horiz-adv-x="1423" arabic-form="medial" d="M-20 -10v135h20h66.5h92.5h151q221 0 362.5 0.5t223 1.5t121 3t55.5 5q46 50 46 103q0 49 -40 84.5t-108 39.5q-23 2 -98.5 2.5t-176.5 0.5q-85 0 -178.5 -0.5t-180 -1.5t-152.5 -2q-21 24 -32.5 51t-17.5 57q131 135 327.5 294t425.5 329q18 -9 35.5 -30t23.5 -42
q-97 -82 -203.5 -176.5t-202 -184.5t-160.5 -161q56 1 132 1.5t153 0.5q108 0 199.5 -0.5t117.5 -2.5q102 -5 164 -43t90 -94.5t28 -117.5q0 -88 -47.5 -161.5t-121.5 -83.5q-25 -3 -133 -4.5t-269.5 -2t-347.5 -0.5h-110h-96.5h-138.5h-20zM1413 -10q-100 0 -159 16
t-101 58l85 111q23 -28 62.5 -39t112.5 -11h30v-135h-30z" />
            <glyph glyph-name="uni06A9.fina" unicode="&#x6a9;" horiz-adv-x="1517" arabic-form="final" d="M1189 -3q-105 -5 -251 -7.5t-305.5 -2t-307 3.5t-255.5 7q-1 29 10 69t36 76q104 -7 239.5 -11t281.5 -5.5t283.5 0.5t245.5 8q46 50 46 103q0 49 -40 84.5t-108 39.5q-23 2 -98.5 2.5t-176.5 0.5q-85 0 -178.5 -0.5t-180 -1.5t-152.5 -2q-21 24 -32.5 51t-17.5 57
q131 135 327.5 294t425.5 329q18 -9 35.5 -30t23.5 -42q-97 -82 -203.5 -176.5t-202 -184.5t-160.5 -161q56 1 132 1.5t153 0.5q108 0 199.5 -0.5t117.5 -2.5q102 -5 164 -43t90 -94.5t28 -117.5q0 -58 -22 -113.5t-60 -92t-87 -39.5zM1507 -10q-100 0 -159 16t-101 58
l85 111q23 -28 62.5 -39t112.5 -11h30v-135h-30z" />
            <glyph glyph-name="uni063B.init" unicode="&#x63b;" horiz-adv-x="1334" d="M-20 -10v135h20h66.5h92.5h151q221 0 362.5 0.5t223 1.5t121 3t55.5 5q46 50 46 103q0 49 -40 84.5t-108 39.5q-23 2 -98.5 2.5t-176.5 0.5q-85 0 -178.5 -0.5t-180 -1.5t-152.5 -2q-21 24 -32.5 51t-17.5 57q131 135 327.5 294t425.5 329q18 -9 35.5 -30t23.5 -42
q-97 -82 -203.5 -176.5t-202 -184.5t-160.5 -161q56 1 132 1.5t153 0.5q108 0 199.5 -0.5t117.5 -2.5q102 -5 164 -43t90 -94.5t28 -117.5q0 -88 -47.5 -161.5t-121.5 -83.5q-25 -3 -133 -4.5t-269.5 -2t-347.5 -0.5h-110h-96.5h-138.5h-20zM469 879q-53 38 -88.5 70
t-41.5 46l108 121l143 -114q-41 -56 -75.5 -87.5t-45.5 -35.5zM254 862q-53 38 -88 69.5t-42 46.5l108 121l143 -115q-41 -56 -75.5 -87.5t-45.5 -34.5z" />
            <glyph glyph-name="uni063B.medi" unicode="&#x63b;" horiz-adv-x="1423" d="M-20 -10v135h20h66.5h92.5h151q221 0 362.5 0.5t223 1.5t121 3t55.5 5q46 50 46 103q0 49 -40 84.5t-108 39.5q-23 2 -98.5 2.5t-176.5 0.5q-85 0 -178.5 -0.5t-180 -1.5t-152.5 -2q-21 24 -32.5 51t-17.5 57q131 135 327.5 294t425.5 329q18 -9 35.5 -30t23.5 -42
q-97 -82 -203.5 -176.5t-202 -184.5t-160.5 -161q56 1 132 1.5t153 0.5q108 0 199.5 -0.5t117.5 -2.5q102 -5 164 -43t90 -94.5t28 -117.5q0 -88 -47.5 -161.5t-121.5 -83.5q-25 -3 -133 -4.5t-269.5 -2t-347.5 -0.5h-110h-96.5h-138.5h-20zM1413 -10q-100 0 -159 16
t-101 58l85 111q23 -28 62.5 -39t112.5 -11h30v-135h-30zM519 879q-53 38 -88.5 70t-41.5 46l108 121l143 -114q-41 -56 -75.5 -87.5t-45.5 -35.5zM304 862q-53 38 -88 69.5t-42 46.5l108 121l143 -115q-41 -56 -75.5 -87.5t-45.5 -34.5z" />
            <glyph glyph-name="uni063B.fina" unicode="&#x63b;" horiz-adv-x="1517" d="M1189 -3q-105 -5 -251 -7.5t-305.5 -2t-307 3.5t-255.5 7q-1 29 10 69t36 76q104 -7 239.5 -11t281.5 -5.5t283.5 0.5t245.5 8q46 50 46 103q0 49 -40 84.5t-108 39.5q-23 2 -98.5 2.5t-176.5 0.5q-85 0 -178.5 -0.5t-180 -1.5t-152.5 -2q-21 24 -32.5 51t-17.5 57
q131 135 327.5 294t425.5 329q18 -9 35.5 -30t23.5 -42q-97 -82 -203.5 -176.5t-202 -184.5t-160.5 -161q56 1 132 1.5t153 0.5q108 0 199.5 -0.5t117.5 -2.5q102 -5 164 -43t90 -94.5t28 -117.5q0 -58 -22 -113.5t-60 -92t-87 -39.5zM1507 -10q-100 0 -159 16t-101 58
l85 111q23 -28 62.5 -39t112.5 -11h30v-135h-30zM579 869q-53 38 -88.5 70t-41.5 46l108 121l143 -114q-41 -56 -75.5 -87.5t-45.5 -35.5zM364 852q-53 38 -88 69.5t-42 46.5l108 121l143 -115q-41 -56 -75.5 -87.5t-45.5 -34.5z" />
            <glyph glyph-name="uni063C.init" unicode="&#x63c;" horiz-adv-x="1334" d="M-20 -10v135h20h66.5h92.5h151q221 0 362.5 0.5t223 1.5t121 3t55.5 5q46 50 46 103q0 49 -40 84.5t-108 39.5q-23 2 -98.5 2.5t-176.5 0.5q-85 0 -178.5 -0.5t-180 -1.5t-152.5 -2q-21 24 -32.5 51t-17.5 57q131 135 327.5 294t425.5 329q18 -9 35.5 -30t23.5 -42
q-97 -82 -203.5 -176.5t-202 -184.5t-160.5 -161q56 1 132 1.5t153 0.5q108 0 199.5 -0.5t117.5 -2.5q102 -5 164 -43t90 -94.5t28 -117.5q0 -88 -47.5 -161.5t-121.5 -83.5q-25 -3 -133 -4.5t-269.5 -2t-347.5 -0.5h-110h-96.5h-138.5h-20zM718 -302l-143 115
q41 56 70.5 87.5t40.5 35.5q53 -39 88 -70.5t42 -46.5zM642 -551l-142 115q83 114 111 123q53 -39 88 -70.5t42 -46.5zM503 -320l-143 115q83 113 111 122q53 -38 88.5 -69.5t41.5 -46.5z" />
            <glyph glyph-name="uni063C.medi" unicode="&#x63c;" horiz-adv-x="1423" d="M-20 -10v135h20h66.5h92.5h151q221 0 362.5 0.5t223 1.5t121 3t55.5 5q46 50 46 103q0 49 -40 84.5t-108 39.5q-23 2 -98.5 2.5t-176.5 0.5q-85 0 -178.5 -0.5t-180 -1.5t-152.5 -2q-21 24 -32.5 51t-17.5 57q131 135 327.5 294t425.5 329q18 -9 35.5 -30t23.5 -42
q-97 -82 -203.5 -176.5t-202 -184.5t-160.5 -161q56 1 132 1.5t153 0.5q108 0 199.5 -0.5t117.5 -2.5q102 -5 164 -43t90 -94.5t28 -117.5q0 -88 -47.5 -161.5t-121.5 -83.5q-25 -3 -133 -4.5t-269.5 -2t-347.5 -0.5h-110h-96.5h-138.5h-20zM1413 -10q-100 0 -159 16
t-101 58l85 111q23 -28 62.5 -39t112.5 -11h30v-135h-30zM738 -302l-143 115q41 56 70.5 87.5t40.5 35.5q53 -39 88 -70.5t42 -46.5zM662 -551l-142 115q83 114 111 123q53 -39 88 -70.5t42 -46.5zM523 -320l-143 115q83 113 111 122q53 -38 88.5 -69.5t41.5 -46.5z" />
            <glyph glyph-name="uni063C.fina" unicode="&#x63c;" horiz-adv-x="1517" d="M1189 -3q-105 -5 -251 -7.5t-305.5 -2t-307 3.5t-255.5 7q-1 29 10 69t36 76q104 -7 239.5 -11t281.5 -5.5t283.5 0.5t245.5 8q46 50 46 103q0 49 -40 84.5t-108 39.5q-23 2 -98.5 2.5t-176.5 0.5q-85 0 -178.5 -0.5t-180 -1.5t-152.5 -2q-21 24 -32.5 51t-17.5 57
q131 135 327.5 294t425.5 329q18 -9 35.5 -30t23.5 -42q-97 -82 -203.5 -176.5t-202 -184.5t-160.5 -161q56 1 132 1.5t153 0.5q108 0 199.5 -0.5t117.5 -2.5q102 -5 164 -43t90 -94.5t28 -117.5q0 -58 -22 -113.5t-60 -92t-87 -39.5zM1507 -10q-100 0 -159 16t-101 58
l85 111q23 -28 62.5 -39t112.5 -11h30v-135h-30zM888 -302l-143 115q41 56 70.5 87.5t40.5 35.5q53 -39 88 -70.5t42 -46.5zM812 -551l-142 115q83 114 111 123q53 -39 88 -70.5t42 -46.5zM673 -320l-143 115q83 113 111 122q53 -38 88.5 -69.5t41.5 -46.5z" />
            <glyph glyph-name="uni06AF.init" unicode="&#x6af;" horiz-adv-x="1334" arabic-form="initial" d="M-20 -10v135h20h66.5h92.5h151q221 0 362.5 0.5t223 1.5t121 3t55.5 5q46 50 46 103q0 49 -40 84.5t-108 39.5q-23 2 -98.5 2.5t-176.5 0.5q-85 0 -178.5 -0.5t-180 -1.5t-152.5 -2q-21 24 -32.5 51t-17.5 57q131 135 327.5 294t425.5 329q18 -9 35.5 -30t23.5 -42
q-97 -82 -203.5 -176.5t-202 -184.5t-160.5 -161q56 1 132 1.5t153 0.5q108 0 199.5 -0.5t117.5 -2.5q102 -5 164 -43t90 -94.5t28 -117.5q0 -88 -47.5 -161.5t-121.5 -83.5q-25 -3 -133 -4.5t-269.5 -2t-347.5 -0.5h-110h-96.5h-138.5h-20zM174 592q-18 6 -29.5 40t-7.5 54
q76 70 179.5 154.5t220.5 167.5t235 147q24 -18 33 -50q-74 -51 -159.5 -116.5t-171.5 -136t-163.5 -138t-136.5 -122.5z" />
            <glyph glyph-name="uni06AF.medi" unicode="&#x6af;" horiz-adv-x="1423" arabic-form="medial" d="M-20 -10v135h20h66.5h92.5h151q221 0 362.5 0.5t223 1.5t121 3t55.5 5q46 50 46 103q0 49 -40 84.5t-108 39.5q-23 2 -98.5 2.5t-176.5 0.5q-85 0 -178.5 -0.5t-180 -1.5t-152.5 -2q-21 24 -32.5 51t-17.5 57q131 135 327.5 294t425.5 329q18 -9 35.5 -30t23.5 -42
q-97 -82 -203.5 -176.5t-202 -184.5t-160.5 -161q56 1 132 1.5t153 0.5q108 0 199.5 -0.5t117.5 -2.5q102 -5 164 -43t90 -94.5t28 -117.5q0 -88 -47.5 -161.5t-121.5 -83.5q-25 -3 -133 -4.5t-269.5 -2t-347.5 -0.5h-110h-96.5h-138.5h-20zM1413 -10q-100 0 -159 16
t-101 58l85 111q23 -28 62.5 -39t112.5 -11h30v-135h-30zM164 592q-18 6 -29.5 40t-7.5 54q76 70 179.5 154.5t220.5 167.5t235 147q24 -18 33 -50q-74 -51 -159.5 -116.5t-171.5 -136t-163.5 -138t-136.5 -122.5z" />
            <glyph glyph-name="uni06AF.fina" unicode="&#x6af;" horiz-adv-x="1517" arabic-form="final" d="M1189 -3q-105 -5 -251 -7.5t-305.5 -2t-307 3.5t-255.5 7q-1 29 10 69t36 76q104 -7 239.5 -11t281.5 -5.5t283.5 0.5t245.5 8q46 50 46 103q0 49 -40 84.5t-108 39.5q-23 2 -98.5 2.5t-176.5 0.5q-85 0 -178.5 -0.5t-180 -1.5t-152.5 -2q-21 24 -32.5 51t-17.5 57
q131 135 327.5 294t425.5 329q18 -9 35.5 -30t23.5 -42q-97 -82 -203.5 -176.5t-202 -184.5t-160.5 -161q56 1 132 1.5t153 0.5q108 0 199.5 -0.5t117.5 -2.5q102 -5 164 -43t90 -94.5t28 -117.5q0 -58 -22 -113.5t-60 -92t-87 -39.5zM1507 -10q-100 0 -159 16t-101 58
l85 111q23 -28 62.5 -39t112.5 -11h30v-135h-30zM264 592q-18 6 -29.5 40t-7.5 54q76 70 179.5 154.5t220.5 167.5t235 147q24 -18 33 -50q-74 -51 -159.5 -116.5t-171.5 -136t-163.5 -138t-136.5 -122.5z" />
            <glyph glyph-name="uni06B0.init" unicode="&#x6b0;" horiz-adv-x="1334" d="M-20 -10v135h20h66.5h92.5h151q221 0 362.5 0.5t223 1.5t121 3t55.5 5q46 50 46 103q0 49 -40 84.5t-108 39.5q-23 2 -98.5 2.5t-176.5 0.5q-85 0 -178.5 -0.5t-180 -1.5t-152.5 -2q-21 24 -32.5 51t-17.5 57q131 135 327.5 294t425.5 329q18 -9 35.5 -30t23.5 -42
q-97 -82 -203.5 -176.5t-202 -184.5t-160.5 -161q56 1 132 1.5t153 0.5q108 0 199.5 -0.5t117.5 -2.5q102 -5 164 -43t90 -94.5t28 -117.5q0 -88 -47.5 -161.5t-121.5 -83.5q-25 -3 -133 -4.5t-269.5 -2t-347.5 -0.5h-110h-96.5h-138.5h-20zM174 592q-18 6 -29.5 40t-7.5 54
q76 70 179.5 154.5t220.5 167.5t235 147q24 -18 33 -50q-74 -51 -159.5 -116.5t-171.5 -136t-163.5 -138t-136.5 -122.5zM711 564q-76 0 -113.5 44t-37.5 99q0 56 39 103t112 47q75 0 114 -46.5t39 -102.5q0 -54 -38 -99t-115 -45zM713 643q36 0 53.5 20.5t17.5 45.5
q0 27 -18.5 50t-53.5 23t-53 -22t-18 -49q0 -25 18 -46.5t54 -21.5z" />
            <glyph glyph-name="uni06B0.medi" unicode="&#x6b0;" horiz-adv-x="1423" d="M-20 -10v135h20h66.5h92.5h151q221 0 362.5 0.5t223 1.5t121 3t55.5 5q46 50 46 103q0 49 -40 84.5t-108 39.5q-23 2 -98.5 2.5t-176.5 0.5q-85 0 -178.5 -0.5t-180 -1.5t-152.5 -2q-21 24 -32.5 51t-17.5 57q131 135 327.5 294t425.5 329q18 -9 35.5 -30t23.5 -42
q-97 -82 -203.5 -176.5t-202 -184.5t-160.5 -161q56 1 132 1.5t153 0.5q108 0 199.5 -0.5t117.5 -2.5q102 -5 164 -43t90 -94.5t28 -117.5q0 -88 -47.5 -161.5t-121.5 -83.5q-25 -3 -133 -4.5t-269.5 -2t-347.5 -0.5h-110h-96.5h-138.5h-20zM1413 -10q-100 0 -159 16
t-101 58l85 111q23 -28 62.5 -39t112.5 -11h30v-135h-30zM164 592q-18 6 -29.5 40t-7.5 54q76 70 179.5 154.5t220.5 167.5t235 147q24 -18 33 -50q-74 -51 -159.5 -116.5t-171.5 -136t-163.5 -138t-136.5 -122.5zM711 564q-76 0 -113.5 44t-37.5 99q0 56 39 103t112 47
q75 0 114 -46.5t39 -102.5q0 -54 -38 -99t-115 -45zM713 643q36 0 53.5 20.5t17.5 45.5q0 27 -18.5 50t-53.5 23t-53 -22t-18 -49q0 -25 18 -46.5t54 -21.5z" />
            <glyph glyph-name="uni06B0.fina" unicode="&#x6b0;" horiz-adv-x="1517" d="M1189 -3q-105 -5 -251 -7.5t-305.5 -2t-307 3.5t-255.5 7q-1 29 10 69t36 76q104 -7 239.5 -11t281.5 -5.5t283.5 0.5t245.5 8q46 50 46 103q0 49 -40 84.5t-108 39.5q-23 2 -98.5 2.5t-176.5 0.5q-85 0 -178.5 -0.5t-180 -1.5t-152.5 -2q-21 24 -32.5 51t-17.5 57
q131 135 327.5 294t425.5 329q18 -9 35.5 -30t23.5 -42q-97 -82 -203.5 -176.5t-202 -184.5t-160.5 -161q56 1 132 1.5t153 0.5q108 0 199.5 -0.5t117.5 -2.5q102 -5 164 -43t90 -94.5t28 -117.5q0 -58 -22 -113.5t-60 -92t-87 -39.5zM1507 -10q-100 0 -159 16t-101 58
l85 111q23 -28 62.5 -39t112.5 -11h30v-135h-30zM871 564q-76 0 -113.5 44t-37.5 99q0 56 39 103t112 47q75 0 114 -46.5t39 -102.5q0 -54 -38 -99t-115 -45zM873 643q36 0 53.5 20.5t17.5 45.5q0 27 -18.5 50t-53.5 23t-53 -22t-18 -49q0 -25 18 -46.5t54 -21.5zM264 592
q-18 6 -29.5 40t-7.5 54q76 70 179.5 154.5t220.5 167.5t235 147q24 -18 33 -50q-74 -51 -159.5 -116.5t-171.5 -136t-163.5 -138t-136.5 -122.5z" />
            <glyph glyph-name="uni06B4.init" unicode="&#x6b4;" horiz-adv-x="1334" d="M-20 -10v135h20h66.5h92.5h151q221 0 362.5 0.5t223 1.5t121 3t55.5 5q46 50 46 103q0 49 -40 84.5t-108 39.5q-23 2 -98.5 2.5t-176.5 0.5q-85 0 -178.5 -0.5t-180 -1.5t-152.5 -2q-21 24 -32.5 51t-17.5 57q131 135 327.5 294t425.5 329q18 -9 35.5 -30t23.5 -42
q-97 -82 -203.5 -176.5t-202 -184.5t-160.5 -161q56 1 132 1.5t153 0.5q108 0 199.5 -0.5t117.5 -2.5q102 -5 164 -43t90 -94.5t28 -117.5q0 -88 -47.5 -161.5t-121.5 -83.5q-25 -3 -133 -4.5t-269.5 -2t-347.5 -0.5h-110h-96.5h-138.5h-20zM174 592q-18 6 -29.5 40t-7.5 54
q76 70 179.5 154.5t220.5 167.5t235 147q24 -18 33 -50q-74 -51 -159.5 -116.5t-171.5 -136t-163.5 -138t-136.5 -122.5zM160 1131q-53 39 -88 70.5t-43 45.5l99 122l143 -115q-87 -116 -111 -123zM85 882q-54 39 -88.5 70t-42.5 47l99 121l143 -115q-42 -56 -71 -87
t-40 -36zM300 900q-53 39 -89 70.5t-42 45.5l99 122l143 -116q-84 -112 -111 -122z" />
            <glyph glyph-name="uni06B4.medi" unicode="&#x6b4;" horiz-adv-x="1423" d="M-20 -10v135h20h66.5h92.5h151q221 0 362.5 0.5t223 1.5t121 3t55.5 5q46 50 46 103q0 49 -40 84.5t-108 39.5q-23 2 -98.5 2.5t-176.5 0.5q-85 0 -178.5 -0.5t-180 -1.5t-152.5 -2q-21 24 -32.5 51t-17.5 57q131 135 327.5 294t425.5 329q18 -9 35.5 -30t23.5 -42
q-97 -82 -203.5 -176.5t-202 -184.5t-160.5 -161q56 1 132 1.5t153 0.5q108 0 199.5 -0.5t117.5 -2.5q102 -5 164 -43t90 -94.5t28 -117.5q0 -88 -47.5 -161.5t-121.5 -83.5q-25 -3 -133 -4.5t-269.5 -2t-347.5 -0.5h-110h-96.5h-138.5h-20zM1413 -10q-100 0 -159 16
t-101 58l85 111q23 -28 62.5 -39t112.5 -11h30v-135h-30zM164 592q-18 6 -29.5 40t-7.5 54q76 70 179.5 154.5t220.5 167.5t235 147q24 -18 33 -50q-74 -51 -159.5 -116.5t-171.5 -136t-163.5 -138t-136.5 -122.5zM140 1131q-53 39 -88 70.5t-43 45.5l99 122l143 -115
q-87 -116 -111 -123zM65 882q-54 39 -88.5 70t-42.5 47l99 121l143 -115q-42 -56 -71 -87t-40 -36zM280 900q-53 39 -89 70.5t-42 45.5l99 122l143 -116q-84 -112 -111 -122z" />
            <glyph glyph-name="uni06B4.fina" unicode="&#x6b4;" horiz-adv-x="1517" d="M1189 -3q-105 -5 -251 -7.5t-305.5 -2t-307 3.5t-255.5 7q-1 29 10 69t36 76q104 -7 239.5 -11t281.5 -5.5t283.5 0.5t245.5 8q46 50 46 103q0 49 -40 84.5t-108 39.5q-23 2 -98.5 2.5t-176.5 0.5q-85 0 -178.5 -0.5t-180 -1.5t-152.5 -2q-21 24 -32.5 51t-17.5 57
q131 135 327.5 294t425.5 329q18 -9 35.5 -30t23.5 -42q-97 -82 -203.5 -176.5t-202 -184.5t-160.5 -161q56 1 132 1.5t153 0.5q108 0 199.5 -0.5t117.5 -2.5q102 -5 164 -43t90 -94.5t28 -117.5q0 -58 -22 -113.5t-60 -92t-87 -39.5zM1507 -10q-100 0 -159 16t-101 58
l85 111q23 -28 62.5 -39t112.5 -11h30v-135h-30zM290 1161q-53 39 -88 70.5t-43 45.5l99 122l143 -115q-87 -116 -111 -123zM215 912q-54 39 -88.5 70t-42.5 47l99 121l143 -115q-42 -56 -71 -87t-40 -36zM430 930q-53 39 -89 70.5t-42 45.5l99 122l143 -116
q-84 -112 -111 -122zM264 592q-18 6 -29.5 40t-7.5 54q76 70 179.5 154.5t220.5 167.5t235 147q24 -18 33 -50q-74 -51 -159.5 -116.5t-171.5 -136t-163.5 -138t-136.5 -122.5z" />
            <glyph glyph-name="uni06AA.init" unicode="&#x6aa;" horiz-adv-x="1772" d="M868 -11h-95h-162h-193.5h-192t-157.5 0.5t-88 0.5v135h64h133h166h166.5h134h65.5q210 0 387 2.5t295.5 10t150.5 22.5q16 33 16 62q0 67 -64 93t-201 26q-129 0 -278 -5.5t-294.5 -11t-265.5 -5.5q-108 0 -162.5 22.5t-73 56t-18.5 66.5q0 56 66.5 129t177.5 146
t246 130.5t271 82.5q0 -37 -11 -83t-40 -80q-95 -19 -190.5 -59.5t-174.5 -87.5t-127 -88t-48 -61q0 -22 28.5 -30t128.5 -8q70 0 200.5 5.5t290.5 10.5t320 5q168 0 265.5 -61t97.5 -184q0 -82 -39 -138.5t-110 -75.5q-66 -17 -224.5 -22.5t-460.5 -5.5z" />
            <glyph glyph-name="uni06AA.medi" unicode="&#x6aa;" horiz-adv-x="1829" d="M868 -11h-95h-162h-193.5h-192t-157.5 0.5t-88 0.5v135h64h133h166h166.5h134h65.5q210 0 387 2.5t295.5 10t150.5 22.5q16 33 16 62q0 67 -64 93t-201 26q-129 0 -278 -5.5t-294.5 -11t-265.5 -5.5q-108 0 -162.5 22.5t-73 56t-18.5 66.5q0 56 66.5 129t177.5 146
t246 130.5t271 82.5q0 -37 -11 -83t-40 -80q-95 -19 -190.5 -59.5t-174.5 -87.5t-127 -88t-48 -61q0 -22 28.5 -30t128.5 -8q70 0 200.5 5.5t290.5 10.5t320 5q168 0 265.5 -61t97.5 -184q0 -82 -39 -138.5t-110 -75.5q-66 -17 -224.5 -22.5t-460.5 -5.5zM1829 -10
q-77 0 -132.5 16t-97.5 58l85 111q23 -28 58.5 -39t86.5 -11h20v-135h-20z" />
            <glyph glyph-name="uni06AA.fina" unicode="&#x6aa;" horiz-adv-x="1889" d="M928 -11q-254 0 -441.5 1.5t-362.5 0.5q-23 25 -40 73t-14 80q169 -10 330 -15t369 -5q72 0 171 1t206 3t203.5 6t165 10.5t87.5 15.5q16 33 16 62q0 67 -64 93t-201 26q-129 0 -278 -5.5t-294.5 -11t-265.5 -5.5q-108 0 -162.5 22.5t-73 56t-18.5 66.5q0 56 66.5 129
t177.5 146t246 130.5t271 82.5q0 -37 -11 -83t-40 -80q-95 -19 -190.5 -59.5t-174.5 -87.5t-127 -88t-48 -61q0 -22 28.5 -30t128.5 -8q70 0 200.5 5.5t290.5 10.5t320 5q168 0 265.5 -61t97.5 -184q0 -82 -39 -138.5t-110 -75.5q-66 -17 -224.5 -22.5t-460.5 -5.5z
M1889 -10q-77 0 -132.5 16t-97.5 58l85 111q23 -28 58.5 -39t86.5 -11h20v-135h-20z" />
            <glyph glyph-name="uni06AB.init" unicode="&#x6ab;" horiz-adv-x="1334" d="M-20 -10v135h20h66.5h92.5h151q221 0 362.5 0.5t223 1.5t121 3t55.5 5q46 50 46 103q0 49 -40 84.5t-108 39.5q-23 2 -98.5 2.5t-176.5 0.5q-85 0 -178.5 -0.5t-180 -1.5t-152.5 -2q-21 24 -32.5 51t-17.5 57q131 135 327.5 294t425.5 329q18 -9 35.5 -30t23.5 -42
q-97 -82 -203.5 -176.5t-202 -184.5t-160.5 -161q56 1 132 1.5t153 0.5q108 0 199.5 -0.5t117.5 -2.5q102 -5 164 -43t90 -94.5t28 -117.5q0 -88 -47.5 -161.5t-121.5 -83.5q-25 -3 -133 -4.5t-269.5 -2t-347.5 -0.5h-110h-96.5h-138.5h-20zM711 564q-76 0 -113.5 44
t-37.5 99q0 56 39 103t112 47q75 0 114 -46.5t39 -102.5q0 -54 -38 -99t-115 -45zM713 643q36 0 53.5 20.5t17.5 45.5q0 27 -18.5 50t-53.5 23t-53 -22t-18 -49q0 -25 18 -46.5t54 -21.5z" />
            <glyph glyph-name="uni06AB.medi" unicode="&#x6ab;" horiz-adv-x="1423" d="M-20 -10v135h20h66.5h92.5h151q221 0 362.5 0.5t223 1.5t121 3t55.5 5q46 50 46 103q0 49 -40 84.5t-108 39.5q-23 2 -98.5 2.5t-176.5 0.5q-85 0 -178.5 -0.5t-180 -1.5t-152.5 -2q-21 24 -32.5 51t-17.5 57q131 135 327.5 294t425.5 329q18 -9 35.5 -30t23.5 -42
q-97 -82 -203.5 -176.5t-202 -184.5t-160.5 -161q56 1 132 1.5t153 0.5q108 0 199.5 -0.5t117.5 -2.5q102 -5 164 -43t90 -94.5t28 -117.5q0 -88 -47.5 -161.5t-121.5 -83.5q-25 -3 -133 -4.5t-269.5 -2t-347.5 -0.5h-110h-96.5h-138.5h-20zM1413 -10q-100 0 -159 16
t-101 58l85 111q23 -28 62.5 -39t112.5 -11h30v-135h-30zM711 564q-76 0 -113.5 44t-37.5 99q0 56 39 103t112 47q75 0 114 -46.5t39 -102.5q0 -54 -38 -99t-115 -45zM713 643q36 0 53.5 20.5t17.5 45.5q0 27 -18.5 50t-53.5 23t-53 -22t-18 -49q0 -25 18 -46.5t54 -21.5z
" />
            <glyph glyph-name="uni06AB.fina" unicode="&#x6ab;" horiz-adv-x="1517" d="M1189 -3q-105 -5 -251 -7.5t-305.5 -2t-307 3.5t-255.5 7q-1 29 10 69t36 76q104 -7 239.5 -11t281.5 -5.5t283.5 0.5t245.5 8q46 50 46 103q0 49 -40 84.5t-108 39.5q-23 2 -98.5 2.5t-176.5 0.5q-85 0 -178.5 -0.5t-180 -1.5t-152.5 -2q-21 24 -32.5 51t-17.5 57
q131 135 327.5 294t425.5 329q18 -9 35.5 -30t23.5 -42q-97 -82 -203.5 -176.5t-202 -184.5t-160.5 -161q56 1 132 1.5t153 0.5q108 0 199.5 -0.5t117.5 -2.5q102 -5 164 -43t90 -94.5t28 -117.5q0 -58 -22 -113.5t-60 -92t-87 -39.5zM1507 -10q-100 0 -159 16t-101 58
l85 111q23 -28 62.5 -39t112.5 -11h30v-135h-30zM801 563q-76 0 -113.5 44t-37.5 99q0 56 39 103t112 47q75 0 114 -46.5t39 -102.5q0 -54 -38 -99t-115 -45zM803 642q36 0 53.5 20.5t17.5 45.5q0 27 -18.5 50t-53.5 23t-53 -22t-18 -49q0 -25 18 -46.5t54 -21.5z" />
            <glyph glyph-name="uni06AC.init" unicode="&#x6ac;" horiz-adv-x="1334" d="M-20 -10v135h20h66.5h92.5h151q221 0 362.5 0.5t223 1.5t121 3t55.5 5q46 50 46 103q0 49 -40 84.5t-108 39.5q-23 2 -98.5 2.5t-176.5 0.5q-85 0 -178.5 -0.5t-180 -1.5t-152.5 -2q-21 24 -32.5 51t-17.5 57q131 135 327.5 294t425.5 329q18 -9 35.5 -30t23.5 -42
q-97 -82 -203.5 -176.5t-202 -184.5t-160.5 -161q56 1 132 1.5t153 0.5q108 0 199.5 -0.5t117.5 -2.5q102 -5 164 -43t90 -94.5t28 -117.5q0 -88 -47.5 -161.5t-121.5 -83.5q-25 -3 -133 -4.5t-269.5 -2t-347.5 -0.5h-110h-96.5h-138.5h-20zM381 833q-56 41 -93 74t-44 48
l103 128l151 -120q-88 -121 -117 -130z" />
            <glyph glyph-name="uni06AC.medi" unicode="&#x6ac;" horiz-adv-x="1423" d="M-20 -10v135h20h66.5h92.5h151q221 0 362.5 0.5t223 1.5t121 3t55.5 5q46 50 46 103q0 49 -40 84.5t-108 39.5q-23 2 -98.5 2.5t-176.5 0.5q-85 0 -178.5 -0.5t-180 -1.5t-152.5 -2q-21 24 -32.5 51t-17.5 57q131 135 327.5 294t425.5 329q18 -9 35.5 -30t23.5 -42
q-97 -82 -203.5 -176.5t-202 -184.5t-160.5 -161q56 1 132 1.5t153 0.5q108 0 199.5 -0.5t117.5 -2.5q102 -5 164 -43t90 -94.5t28 -117.5q0 -88 -47.5 -161.5t-121.5 -83.5q-25 -3 -133 -4.5t-269.5 -2t-347.5 -0.5h-110h-96.5h-138.5h-20zM1413 -10q-100 0 -159 16
t-101 58l85 111q23 -28 62.5 -39t112.5 -11h30v-135h-30zM421 833q-56 41 -93 74t-44 48l103 128l151 -120q-88 -121 -117 -130z" />
            <glyph glyph-name="uni06AC.fina" unicode="&#x6ac;" horiz-adv-x="1381" d="M661 833q-56 41 -93 74t-44 48l103 128l151 -120q-88 -121 -117 -130zM645 -23q-213 0 -339 45t-181 118.5t-55 159.5q0 62 26.5 125.5t91.5 127.5q39 -11 64 -46q-34 -52 -44 -90t-10 -72q0 -70 46.5 -115.5t120.5 -71t158.5 -36t160.5 -10.5q122 0 219 12t157 45t70 94
q5 25 6.5 64t1.5 88q0 86 -4 193.5t-9 219t-9 207.5q17 35 69 57t85 27q3 -22 5 -52t3 -88t1 -163q0 -186 -2.5 -306.5t-8.5 -194.5t-16.5 -116.5t-27.5 -72.5q-20 -36 -83 -70.5t-183.5 -56.5t-312.5 -22zM545 314q-40 14 -52 42.5t-12 44.5q63 4 118 10t116 22
q-127 20 -179.5 65.5t-52.5 101.5q0 77 64 115.5t151 38.5q59 0 116 -16q3 -13 3 -31q0 -36 -11 -62q-57 21 -113 21q-45 0 -75.5 -15t-30.5 -45q0 -43 71 -66.5t180 -49.5q1 -8 1.5 -16.5t0.5 -17.5q0 -25 -5 -55q-19 -19 -69.5 -39.5t-111 -34t-109.5 -13.5zM1381 -10
q-77 0 -132.5 16t-97.5 58l85 111q23 -28 58.5 -39t86.5 -11h20v-135h-20z" />
            <glyph glyph-name="uni06AE.init" unicode="&#x6ae;" horiz-adv-x="1334" d="M-20 -10v135h20h66.5h92.5h151q221 0 362.5 0.5t223 1.5t121 3t55.5 5q46 50 46 103q0 49 -40 84.5t-108 39.5q-23 2 -98.5 2.5t-176.5 0.5q-85 0 -178.5 -0.5t-180 -1.5t-152.5 -2q-21 24 -32.5 51t-17.5 57q131 135 327.5 294t425.5 329q18 -9 35.5 -30t23.5 -42
q-97 -82 -203.5 -176.5t-202 -184.5t-160.5 -161q56 1 132 1.5t153 0.5q108 0 199.5 -0.5t117.5 -2.5q102 -5 164 -43t90 -94.5t28 -117.5q0 -88 -47.5 -161.5t-121.5 -83.5q-25 -3 -133 -4.5t-269.5 -2t-347.5 -0.5h-110h-96.5h-138.5h-20zM778 -302l-143 115
q41 56 70.5 87.5t40.5 35.5q53 -39 88 -70.5t42 -46.5zM702 -551l-142 115q83 114 111 123q53 -39 88 -70.5t42 -46.5zM563 -320l-143 115q83 113 111 122q53 -38 88.5 -69.5t41.5 -46.5z" />
            <glyph glyph-name="uni06AE.medi" unicode="&#x6ae;" horiz-adv-x="1423" d="M-20 -10v135h20h66.5h92.5h151q221 0 362.5 0.5t223 1.5t121 3t55.5 5q46 50 46 103q0 49 -40 84.5t-108 39.5q-23 2 -98.5 2.5t-176.5 0.5q-85 0 -178.5 -0.5t-180 -1.5t-152.5 -2q-21 24 -32.5 51t-17.5 57q131 135 327.5 294t425.5 329q18 -9 35.5 -30t23.5 -42
q-97 -82 -203.5 -176.5t-202 -184.5t-160.5 -161q56 1 132 1.5t153 0.5q108 0 199.5 -0.5t117.5 -2.5q102 -5 164 -43t90 -94.5t28 -117.5q0 -88 -47.5 -161.5t-121.5 -83.5q-25 -3 -133 -4.5t-269.5 -2t-347.5 -0.5h-110h-96.5h-138.5h-20zM1413 -10q-100 0 -159 16
t-101 58l85 111q23 -28 62.5 -39t112.5 -11h30v-135h-30zM738 -302l-143 115q41 56 70.5 87.5t40.5 35.5q53 -39 88 -70.5t42 -46.5zM662 -551l-142 115q83 114 111 123q53 -39 88 -70.5t42 -46.5zM523 -320l-143 115q83 113 111 122q53 -38 88.5 -69.5t41.5 -46.5z" />
            <glyph glyph-name="uni06AE.fina" unicode="&#x6ae;" horiz-adv-x="1381" d="M828 -322l-143 115q41 56 70.5 87.5t40.5 35.5q53 -39 88 -70.5t42 -46.5zM752 -571l-142 115q83 114 111 123q53 -39 88 -70.5t42 -46.5zM613 -340l-143 115q83 113 111 122q53 -38 88.5 -69.5t41.5 -46.5zM645 -23q-213 0 -339 45t-181 118.5t-55 159.5
q0 62 26.5 125.5t91.5 127.5q39 -11 64 -46q-34 -52 -44 -90t-10 -72q0 -70 46.5 -115.5t120.5 -71t158.5 -36t160.5 -10.5q122 0 219 12t157 45t70 94q5 25 6.5 64t1.5 88q0 86 -4 193.5t-9 219t-9 207.5q17 35 69 57t85 27q3 -22 5 -52t3 -88t1 -163q0 -186 -2.5 -306.5
t-8.5 -194.5t-16.5 -116.5t-27.5 -72.5q-20 -36 -83 -70.5t-183.5 -56.5t-312.5 -22zM545 314q-40 14 -52 42.5t-12 44.5q63 4 118 10t116 22q-127 20 -179.5 65.5t-52.5 101.5q0 77 64 115.5t151 38.5q59 0 116 -16q3 -13 3 -31q0 -36 -11 -62q-57 21 -113 21
q-45 0 -75.5 -15t-30.5 -45q0 -43 71 -66.5t180 -49.5q1 -8 1.5 -16.5t0.5 -17.5q0 -25 -5 -55q-19 -19 -69.5 -39.5t-111 -34t-109.5 -13.5zM1381 -10q-77 0 -132.5 16t-97.5 58l85 111q23 -28 58.5 -39t86.5 -11h20v-135h-20z" />
            <glyph glyph-name="uni06B2.init" unicode="&#x6b2;" horiz-adv-x="1334" d="M-20 -10v135h20h66.5h92.5h151q221 0 362.5 0.5t223 1.5t121 3t55.5 5q46 50 46 103q0 49 -40 84.5t-108 39.5q-23 2 -98.5 2.5t-176.5 0.5q-85 0 -178.5 -0.5t-180 -1.5t-152.5 -2q-21 24 -32.5 51t-17.5 57q131 135 327.5 294t425.5 329q18 -9 35.5 -30t23.5 -42
q-97 -82 -203.5 -176.5t-202 -184.5t-160.5 -161q56 1 132 1.5t153 0.5q108 0 199.5 -0.5t117.5 -2.5q102 -5 164 -43t90 -94.5t28 -117.5q0 -88 -47.5 -161.5t-121.5 -83.5q-25 -3 -133 -4.5t-269.5 -2t-347.5 -0.5h-110h-96.5h-138.5h-20zM174 592q-18 6 -29.5 40t-7.5 54
q76 70 179.5 154.5t220.5 167.5t235 147q24 -18 33 -50q-74 -51 -159.5 -116.5t-171.5 -136t-163.5 -138t-136.5 -122.5zM752 -341q-53 38 -88.5 70t-41.5 46l108 121l143 -114q-41 -56 -75.5 -87.5t-45.5 -35.5zM537 -358q-53 38 -88 69.5t-42 46.5l108 121l143 -115
q-41 -56 -75.5 -87.5t-45.5 -34.5z" />
            <glyph glyph-name="uni06B2.medi" unicode="&#x6b2;" horiz-adv-x="1423" d="M-20 -10v135h20h66.5h92.5h151q221 0 362.5 0.5t223 1.5t121 3t55.5 5q46 50 46 103q0 49 -40 84.5t-108 39.5q-23 2 -98.5 2.5t-176.5 0.5q-85 0 -178.5 -0.5t-180 -1.5t-152.5 -2q-21 24 -32.5 51t-17.5 57q131 135 327.5 294t425.5 329q18 -9 35.5 -30t23.5 -42
q-97 -82 -203.5 -176.5t-202 -184.5t-160.5 -161q56 1 132 1.5t153 0.5q108 0 199.5 -0.5t117.5 -2.5q102 -5 164 -43t90 -94.5t28 -117.5q0 -88 -47.5 -161.5t-121.5 -83.5q-25 -3 -133 -4.5t-269.5 -2t-347.5 -0.5h-110h-96.5h-138.5h-20zM1413 -10q-100 0 -159 16
t-101 58l85 111q23 -28 62.5 -39t112.5 -11h30v-135h-30zM164 592q-18 6 -29.5 40t-7.5 54q76 70 179.5 154.5t220.5 167.5t235 147q24 -18 33 -50q-74 -51 -159.5 -116.5t-171.5 -136t-163.5 -138t-136.5 -122.5zM802 -341q-53 38 -88.5 70t-41.5 46l108 121l143 -114
q-41 -56 -75.5 -87.5t-45.5 -35.5zM587 -358q-53 38 -88 69.5t-42 46.5l108 121l143 -115q-41 -56 -75.5 -87.5t-45.5 -34.5z" />
            <glyph glyph-name="uni06B2.fina" unicode="&#x6b2;" horiz-adv-x="1517" d="M1189 -3q-105 -5 -251 -7.5t-305.5 -2t-307 3.5t-255.5 7q-1 29 10 69t36 76q104 -7 239.5 -11t281.5 -5.5t283.5 0.5t245.5 8q46 50 46 103q0 49 -40 84.5t-108 39.5q-23 2 -98.5 2.5t-176.5 0.5q-85 0 -178.5 -0.5t-180 -1.5t-152.5 -2q-21 24 -32.5 51t-17.5 57
q131 135 327.5 294t425.5 329q18 -9 35.5 -30t23.5 -42q-97 -82 -203.5 -176.5t-202 -184.5t-160.5 -161q56 1 132 1.5t153 0.5q108 0 199.5 -0.5t117.5 -2.5q102 -5 164 -43t90 -94.5t28 -117.5q0 -58 -22 -113.5t-60 -92t-87 -39.5zM1507 -10q-100 0 -159 16t-101 58
l85 111q23 -28 62.5 -39t112.5 -11h30v-135h-30zM962 -341q-53 38 -88.5 70t-41.5 46l108 121l143 -114q-41 -56 -75.5 -87.5t-45.5 -35.5zM747 -358q-53 38 -88 69.5t-42 46.5l108 121l143 -115q-41 -56 -75.5 -87.5t-45.5 -34.5zM264 592q-18 6 -29.5 40t-7.5 54
q76 70 179.5 154.5t220.5 167.5t235 147q24 -18 33 -50q-74 -51 -159.5 -116.5t-171.5 -136t-163.5 -138t-136.5 -122.5z" />
            <glyph glyph-name="uni06AD.init" unicode="&#x6ad;" horiz-adv-x="1334" arabic-form="initial" d="M-20 -10v135h20h66.5h92.5h151q221 0 362.5 0.5t223 1.5t121 3t55.5 5q46 50 46 103q0 49 -40 84.5t-108 39.5q-23 2 -98.5 2.5t-176.5 0.5q-85 0 -178.5 -0.5t-180 -1.5t-152.5 -2q-21 24 -32.5 51t-17.5 57q131 135 327.5 294t425.5 329q18 -9 35.5 -30t23.5 -42
q-97 -82 -203.5 -176.5t-202 -184.5t-160.5 -161q56 1 132 1.5t153 0.5q108 0 199.5 -0.5t117.5 -2.5q102 -5 164 -43t90 -94.5t28 -117.5q0 -88 -47.5 -161.5t-121.5 -83.5q-25 -3 -133 -4.5t-269.5 -2t-347.5 -0.5h-110h-96.5h-138.5h-20zM317 1114q-53 39 -88 70.5
t-43 45.5l99 122l143 -115q-87 -116 -111 -123zM242 865q-54 39 -88.5 70t-42.5 47l99 121l143 -115q-42 -56 -71 -87t-40 -36zM457 883q-53 39 -89 70.5t-42 45.5l99 122l143 -116q-84 -112 -111 -122z" />
            <glyph glyph-name="uni06AD.medi" unicode="&#x6ad;" horiz-adv-x="1423" arabic-form="medial" d="M-20 -10v135h20h66.5h92.5h151q221 0 362.5 0.5t223 1.5t121 3t55.5 5q46 50 46 103q0 49 -40 84.5t-108 39.5q-23 2 -98.5 2.5t-176.5 0.5q-85 0 -178.5 -0.5t-180 -1.5t-152.5 -2q-21 24 -32.5 51t-17.5 57q131 135 327.5 294t425.5 329q18 -9 35.5 -30t23.5 -42
q-97 -82 -203.5 -176.5t-202 -184.5t-160.5 -161q56 1 132 1.5t153 0.5q108 0 199.5 -0.5t117.5 -2.5q102 -5 164 -43t90 -94.5t28 -117.5q0 -88 -47.5 -161.5t-121.5 -83.5q-25 -3 -133 -4.5t-269.5 -2t-347.5 -0.5h-110h-96.5h-138.5h-20zM1413 -10q-100 0 -159 16
t-101 58l85 111q23 -28 62.5 -39t112.5 -11h30v-135h-30zM377 1114q-53 39 -88 70.5t-43 45.5l99 122l143 -115q-87 -116 -111 -123zM302 865q-54 39 -88.5 70t-42.5 47l99 121l143 -115q-42 -56 -71 -87t-40 -36zM517 883q-53 39 -89 70.5t-42 45.5l99 122l143 -116
q-84 -112 -111 -122z" />
            <glyph glyph-name="uni06AD.fina" unicode="&#x6ad;" horiz-adv-x="1381" arabic-form="final" d="M616 1054q-53 39 -88 70.5t-43 45.5l99 122l143 -115q-87 -116 -111 -123zM541 805q-54 39 -88.5 70t-42.5 47l99 121l143 -115q-42 -56 -71 -87t-40 -36zM756 823q-53 39 -89 70.5t-42 45.5l99 122l143 -116q-84 -112 -111 -122zM645 -23q-213 0 -339 45t-181 118.5
t-55 159.5q0 62 26.5 125.5t91.5 127.5q39 -11 64 -46q-34 -52 -44 -90t-10 -72q0 -70 46.5 -115.5t120.5 -71t158.5 -36t160.5 -10.5q122 0 219 12t157 45t70 94q5 25 6.5 64t1.5 88q0 86 -4 193.5t-9 219t-9 207.5q17 35 69 57t85 27q3 -22 5 -52t3 -88t1 -163
q0 -186 -2.5 -306.5t-8.5 -194.5t-16.5 -116.5t-27.5 -72.5q-20 -36 -83 -70.5t-183.5 -56.5t-312.5 -22zM545 314q-40 14 -52 42.5t-12 44.5q63 4 118 10t116 22q-127 20 -179.5 65.5t-52.5 101.5q0 77 64 115.5t151 38.5q59 0 116 -16q3 -13 3 -31q0 -36 -11 -62
q-57 21 -113 21q-45 0 -75.5 -15t-30.5 -45q0 -43 71 -66.5t180 -49.5q1 -8 1.5 -16.5t0.5 -17.5q0 -25 -5 -55q-19 -19 -69.5 -39.5t-111 -34t-109.5 -13.5zM1381 -10q-77 0 -132.5 16t-97.5 58l85 111q23 -28 58.5 -39t86.5 -11h20v-135h-20z" />
            <glyph glyph-name="uni06B1.init" unicode="&#x6b1;" horiz-adv-x="1334" arabic-form="initial" d="M-20 -10v135h20h66.5h92.5h151q221 0 362.5 0.5t223 1.5t121 3t55.5 5q46 50 46 103q0 49 -40 84.5t-108 39.5q-23 2 -98.5 2.5t-176.5 0.5q-85 0 -178.5 -0.5t-180 -1.5t-152.5 -2q-21 24 -32.5 51t-17.5 57q131 135 327.5 294t425.5 329q18 -9 35.5 -30t23.5 -42
q-97 -82 -203.5 -176.5t-202 -184.5t-160.5 -161q56 1 132 1.5t153 0.5q108 0 199.5 -0.5t117.5 -2.5q102 -5 164 -43t90 -94.5t28 -117.5q0 -88 -47.5 -161.5t-121.5 -83.5q-25 -3 -133 -4.5t-269.5 -2t-347.5 -0.5h-110h-96.5h-138.5h-20zM174 592q-18 6 -29.5 40t-7.5 54
q76 70 179.5 154.5t220.5 167.5t235 147q24 -18 33 -50q-74 -51 -159.5 -116.5t-171.5 -136t-163.5 -138t-136.5 -122.5zM322 929q-53 38 -88.5 70t-41.5 46l108 121l143 -114q-41 -56 -75.5 -87.5t-45.5 -35.5zM107 912q-53 38 -88 69.5t-42 46.5l108 121l143 -115
q-41 -56 -75.5 -87.5t-45.5 -34.5z" />
            <glyph glyph-name="uni06B1.medi" unicode="&#x6b1;" horiz-adv-x="1423" arabic-form="medial" d="M-20 -10v135h20h66.5h92.5h151q221 0 362.5 0.5t223 1.5t121 3t55.5 5q46 50 46 103q0 49 -40 84.5t-108 39.5q-23 2 -98.5 2.5t-176.5 0.5q-85 0 -178.5 -0.5t-180 -1.5t-152.5 -2q-21 24 -32.5 51t-17.5 57q131 135 327.5 294t425.5 329q18 -9 35.5 -30t23.5 -42
q-97 -82 -203.5 -176.5t-202 -184.5t-160.5 -161q56 1 132 1.5t153 0.5q108 0 199.5 -0.5t117.5 -2.5q102 -5 164 -43t90 -94.5t28 -117.5q0 -88 -47.5 -161.5t-121.5 -83.5q-25 -3 -133 -4.5t-269.5 -2t-347.5 -0.5h-110h-96.5h-138.5h-20zM1413 -10q-100 0 -159 16
t-101 58l85 111q23 -28 62.5 -39t112.5 -11h30v-135h-30zM164 592q-18 6 -29.5 40t-7.5 54q76 70 179.5 154.5t220.5 167.5t235 147q24 -18 33 -50q-74 -51 -159.5 -116.5t-171.5 -136t-163.5 -138t-136.5 -122.5zM322 929q-53 38 -88.5 70t-41.5 46l108 121l143 -114
q-41 -56 -75.5 -87.5t-45.5 -35.5zM107 912q-53 38 -88 69.5t-42 46.5l108 121l143 -115q-41 -56 -75.5 -87.5t-45.5 -34.5z" />
            <glyph glyph-name="uni06B1.fina" unicode="&#x6b1;" horiz-adv-x="1517" arabic-form="final" d="M1189 -3q-105 -5 -251 -7.5t-305.5 -2t-307 3.5t-255.5 7q-1 29 10 69t36 76q104 -7 239.5 -11t281.5 -5.5t283.5 0.5t245.5 8q46 50 46 103q0 49 -40 84.5t-108 39.5q-23 2 -98.5 2.5t-176.5 0.5q-85 0 -178.5 -0.5t-180 -1.5t-152.5 -2q-21 24 -32.5 51t-17.5 57
q131 135 327.5 294t425.5 329q18 -9 35.5 -30t23.5 -42q-97 -82 -203.5 -176.5t-202 -184.5t-160.5 -161q56 1 132 1.5t153 0.5q108 0 199.5 -0.5t117.5 -2.5q102 -5 164 -43t90 -94.5t28 -117.5q0 -58 -22 -113.5t-60 -92t-87 -39.5zM1507 -10q-100 0 -159 16t-101 58
l85 111q23 -28 62.5 -39t112.5 -11h30v-135h-30zM442 969q-53 38 -88.5 70t-41.5 46l108 121l143 -114q-41 -56 -75.5 -87.5t-45.5 -35.5zM227 952q-53 38 -88 69.5t-42 46.5l108 121l143 -115q-41 -56 -75.5 -87.5t-45.5 -34.5zM264 592q-18 6 -29.5 40t-7.5 54
q76 70 179.5 154.5t220.5 167.5t235 147q24 -18 33 -50q-74 -51 -159.5 -116.5t-171.5 -136t-163.5 -138t-136.5 -122.5z" />
            <glyph glyph-name="uni06B3.init" unicode="&#x6b3;" horiz-adv-x="1334" arabic-form="initial" d="M-20 -10v135h20h66.5h92.5h151q221 0 362.5 0.5t223 1.5t121 3t55.5 5q46 50 46 103q0 49 -40 84.5t-108 39.5q-23 2 -98.5 2.5t-176.5 0.5q-85 0 -178.5 -0.5t-180 -1.5t-152.5 -2q-21 24 -32.5 51t-17.5 57q131 135 327.5 294t425.5 329q18 -9 35.5 -30t23.5 -42
q-97 -82 -203.5 -176.5t-202 -184.5t-160.5 -161q56 1 132 1.5t153 0.5q108 0 199.5 -0.5t117.5 -2.5q102 -5 164 -43t90 -94.5t28 -117.5q0 -88 -47.5 -161.5t-121.5 -83.5q-25 -3 -133 -4.5t-269.5 -2t-347.5 -0.5h-110h-96.5h-138.5h-20zM174 592q-18 6 -29.5 40t-7.5 54
q76 70 179.5 154.5t220.5 167.5t235 147q24 -18 33 -50q-74 -51 -159.5 -116.5t-171.5 -136t-163.5 -138t-136.5 -122.5zM666 -536q-54 39 -89 70.5t-42 45.5l98 122l144 -115q-85 -114 -111 -123zM636 -323q-53 38 -87.5 70t-42.5 46l98 121l143 -114q-83 -114 -111 -123z
" />
            <glyph glyph-name="uni06B3.medi" unicode="&#x6b3;" horiz-adv-x="1423" arabic-form="medial" d="M-20 -10v135h20h66.5h92.5h151q221 0 362.5 0.5t223 1.5t121 3t55.5 5q46 50 46 103q0 49 -40 84.5t-108 39.5q-23 2 -98.5 2.5t-176.5 0.5q-85 0 -178.5 -0.5t-180 -1.5t-152.5 -2q-21 24 -32.5 51t-17.5 57q131 135 327.5 294t425.5 329q18 -9 35.5 -30t23.5 -42
q-97 -82 -203.5 -176.5t-202 -184.5t-160.5 -161q56 1 132 1.5t153 0.5q108 0 199.5 -0.5t117.5 -2.5q102 -5 164 -43t90 -94.5t28 -117.5q0 -88 -47.5 -161.5t-121.5 -83.5q-25 -3 -133 -4.5t-269.5 -2t-347.5 -0.5h-110h-96.5h-138.5h-20zM1413 -10q-100 0 -159 16
t-101 58l85 111q23 -28 62.5 -39t112.5 -11h30v-135h-30zM164 592q-18 6 -29.5 40t-7.5 54q76 70 179.5 154.5t220.5 167.5t235 147q24 -18 33 -50q-74 -51 -159.5 -116.5t-171.5 -136t-163.5 -138t-136.5 -122.5zM706 -536q-54 39 -89 70.5t-42 45.5l98 122l144 -115
q-85 -114 -111 -123zM676 -323q-53 38 -87.5 70t-42.5 46l98 121l143 -114q-83 -114 -111 -123z" />
            <glyph glyph-name="uni06B3.fina" unicode="&#x6b3;" horiz-adv-x="1517" arabic-form="final" d="M1189 -3q-105 -5 -251 -7.5t-305.5 -2t-307 3.5t-255.5 7q-1 29 10 69t36 76q104 -7 239.5 -11t281.5 -5.5t283.5 0.5t245.5 8q46 50 46 103q0 49 -40 84.5t-108 39.5q-23 2 -98.5 2.5t-176.5 0.5q-85 0 -178.5 -0.5t-180 -1.5t-152.5 -2q-21 24 -32.5 51t-17.5 57
q131 135 327.5 294t425.5 329q18 -9 35.5 -30t23.5 -42q-97 -82 -203.5 -176.5t-202 -184.5t-160.5 -161q56 1 132 1.5t153 0.5q108 0 199.5 -0.5t117.5 -2.5q102 -5 164 -43t90 -94.5t28 -117.5q0 -58 -22 -113.5t-60 -92t-87 -39.5zM1507 -10q-100 0 -159 16t-101 58
l85 111q23 -28 62.5 -39t112.5 -11h30v-135h-30zM856 -536q-54 39 -89 70.5t-42 45.5l98 122l144 -115q-85 -114 -111 -123zM826 -323q-53 38 -87.5 70t-42.5 46l98 121l143 -114q-83 -114 -111 -123zM264 592q-18 6 -29.5 40t-7.5 54q76 70 179.5 154.5t220.5 167.5
t235 147q24 -18 33 -50q-74 -51 -159.5 -116.5t-171.5 -136t-163.5 -138t-136.5 -122.5z" />
            <glyph glyph-name="uni0644.init" unicode="&#x644;" horiz-adv-x="396" arabic-form="initial" d="M-20 -10v135h20q112 0 147.5 38.5t35.5 91.5q0 40 -2.5 121t-7 179t-8.5 193t-7.5 165t-5.5 92q12 24 42.5 41.5t65 28.5t56.5 14q3 -12 4 -51.5t1 -88.5v-90q0 -124 2.5 -266t2.5 -324q0 -74 -31.5 -137.5t-103 -102.5t-191.5 -39h-20z" />
            <glyph glyph-name="uni0644.medi" unicode="&#x644;" horiz-adv-x="477" arabic-form="medial" d="M-20 -10v135h20q112 0 147.5 41t35.5 109q0 34 -3 111t-7 173.5t-8.5 190.5t-8 164t-5.5 91q12 24 42.5 41.5t65 28.5t56.5 14q4 -85 5.5 -215t3.5 -285.5t7 -319.5q2 -81 46 -112.5t100 -31.5h20v-135h-20q-79 0 -134 24t-90 60q-7 -8 -34.5 -28.5t-80.5 -38t-138 -17.5
h-20z" />
            <glyph glyph-name="uni0644.fina" unicode="&#x644;" horiz-adv-x="1078" arabic-form="final" d="M465 -461q-113 0 -205 47t-146 133.5t-54 204.5q0 102 51 204.5t157 180.5q44 -15 66 -57q-64 -65 -96.5 -142t-32.5 -153q0 -145 82 -214.5t192 -69.5q88 0 144 37.5t87 99.5t44 136.5t16 149t3 135.5q0 191 -6.5 386t-10.5 388q12 24 42.5 41.5t65 28.5t56.5 14
q3 -18 4 -80t1 -150q0 -98 -1.5 -211t-3.5 -221.5t-4.5 -196.5t-5.5 -137q-17 -293 -139.5 -423.5t-305.5 -130.5zM1078 -10q-107 0 -158 27.5t-94 71.5l88 107q26 -40 62 -55.5t102 -15.5h20v-135h-20z" />
            <glyph glyph-name="uni06B5.init" unicode="&#x6b5;" horiz-adv-x="396" d="M-20 -10v135h20q112 0 147.5 38.5t35.5 91.5q0 40 -2.5 121t-7 179t-8.5 193t-7.5 165t-5.5 92q12 24 42.5 41.5t65 28.5t56.5 14q3 -12 4 -51.5t1 -88.5v-90q0 -124 2.5 -266t2.5 -324q0 -74 -31.5 -137.5t-103 -102.5t-191.5 -39h-20zM217 1177q-12 0 -40.5 23
t-62.5 56t-64 65t-47 50q4 38 21.5 68.5t24.5 30.5q46 -51 94 -99.5t89 -77.5q40 36 86 90t71 88q5 0 22.5 -22t26.5 -54q-31 -45 -78 -95.5t-87.5 -86.5t-55.5 -36z" />
            <glyph glyph-name="uni06B5.medi" unicode="&#x6b5;" horiz-adv-x="477" d="M-20 -10v135h20q112 0 147.5 41t35.5 109q0 34 -3 111t-7 173.5t-8.5 190.5t-8 164t-5.5 91q12 24 42.5 41.5t65 28.5t56.5 14q4 -85 5.5 -215t3.5 -285.5t7 -319.5q2 -81 46 -112.5t100 -31.5h20v-135h-20q-79 0 -134 24t-90 60q-7 -8 -34.5 -28.5t-80.5 -38t-138 -17.5
h-20zM230 1177q-12 0 -40.5 23t-62.5 56t-64 65t-47 50q4 38 21.5 68.5t24.5 30.5q46 -51 94 -99.5t89 -77.5q40 36 86 90t71 88q5 0 22.5 -22t26.5 -54q-31 -45 -78 -95.5t-87.5 -86.5t-55.5 -36z" />
            <glyph glyph-name="uni06B5.fina" unicode="&#x6b5;" horiz-adv-x="1078" d="M465 -461q-113 0 -205 47t-146 133.5t-54 204.5q0 102 51 204.5t157 180.5q44 -15 66 -57q-64 -65 -96.5 -142t-32.5 -153q0 -145 82 -214.5t192 -69.5q88 0 144 37.5t87 99.5t44 136.5t16 149t3 135.5q0 191 -6.5 386t-10.5 388q12 24 42.5 41.5t65 28.5t56.5 14
q3 -18 4 -80t1 -150q0 -98 -1.5 -211t-3.5 -221.5t-4.5 -196.5t-5.5 -137q-17 -293 -139.5 -423.5t-305.5 -130.5zM1078 -10q-107 0 -158 27.5t-94 71.5l88 107q26 -40 62 -55.5t102 -15.5h20v-135h-20zM799 1173q-12 0 -40.5 23t-62.5 56t-64 65t-47 50q4 38 21.5 68.5
t24.5 30.5q46 -51 94 -99.5t89 -77.5q40 36 86 90t71 88q5 0 22.5 -22t26.5 -54q-31 -45 -78 -95.5t-87.5 -86.5t-55.5 -36z" />
            <glyph glyph-name="uni06B6.init" unicode="&#x6b6;" horiz-adv-x="396" d="M-20 -10v135h20q112 0 147.5 38.5t35.5 91.5q0 40 -2.5 121t-7 179t-8.5 193t-7.5 165t-5.5 92q12 24 42.5 41.5t65 28.5t56.5 14q3 -12 4 -51.5t1 -88.5v-90q0 -124 2.5 -266t2.5 -324q0 -74 -31.5 -137.5t-103 -102.5t-191.5 -39h-20zM251 1172q-56 41 -93 74t-44 48
l103 128l151 -120q-88 -121 -117 -130z" />
            <glyph glyph-name="uni06B6.medi" unicode="&#x6b6;" horiz-adv-x="477" d="M-20 -10v135h20q112 0 147.5 41t35.5 109q0 34 -3 111t-7 173.5t-8.5 190.5t-8 164t-5.5 91q12 24 42.5 41.5t65 28.5t56.5 14q4 -85 5.5 -215t3.5 -285.5t7 -319.5q2 -81 46 -112.5t100 -31.5h20v-135h-20q-79 0 -134 24t-90 60q-7 -8 -34.5 -28.5t-80.5 -38t-138 -17.5
h-20zM243 1174q-56 41 -93 74t-44 48l103 128l151 -120q-88 -121 -117 -130z" />
            <glyph glyph-name="uni06B6.fina" unicode="&#x6b6;" horiz-adv-x="1078" d="M465 -461q-113 0 -205 47t-146 133.5t-54 204.5q0 102 51 204.5t157 180.5q44 -15 66 -57q-64 -65 -96.5 -142t-32.5 -153q0 -145 82 -214.5t192 -69.5q88 0 144 37.5t87 99.5t44 136.5t16 149t3 135.5q0 191 -6.5 386t-10.5 388q12 24 42.5 41.5t65 28.5t56.5 14
q3 -18 4 -80t1 -150q0 -98 -1.5 -211t-3.5 -221.5t-4.5 -196.5t-5.5 -137q-17 -293 -139.5 -423.5t-305.5 -130.5zM1078 -10q-107 0 -158 27.5t-94 71.5l88 107q26 -40 62 -55.5t102 -15.5h20v-135h-20zM820 1204q-56 41 -93 74t-44 48l103 128l151 -120q-88 -121 -117 -130
z" />
            <glyph glyph-name="uni06B7.init" unicode="&#x6b7;" horiz-adv-x="396" d="M-20 -10v135h20q112 0 147.5 38.5t35.5 91.5q0 40 -2.5 121t-7 179t-8.5 193t-7.5 165t-5.5 92q12 24 42.5 41.5t65 28.5t56.5 14q3 -12 4 -51.5t1 -88.5v-90q0 -124 2.5 -266t2.5 -324q0 -74 -31.5 -137.5t-103 -102.5t-191.5 -39h-20zM217 1379q-53 39 -88 70.5
t-43 45.5l99 122l143 -115q-87 -116 -111 -123zM142 1130q-54 39 -88.5 70t-42.5 47l99 121l143 -115q-42 -56 -71 -87t-40 -36zM357 1148q-53 39 -89 70.5t-42 45.5l99 122l143 -116q-84 -112 -111 -122z" />
            <glyph glyph-name="uni06B7.medi" unicode="&#x6b7;" horiz-adv-x="477" d="M-20 -10v135h20q112 0 147.5 41t35.5 109q0 34 -3 111t-7 173.5t-8.5 190.5t-8 164t-5.5 91q12 24 42.5 41.5t65 28.5t56.5 14q4 -85 5.5 -215t3.5 -285.5t7 -319.5q2 -81 46 -112.5t100 -31.5h20v-135h-20q-79 0 -134 24t-90 60q-7 -8 -34.5 -28.5t-80.5 -38t-138 -17.5
h-20zM209 1381q-53 39 -88 70.5t-43 45.5l99 122l143 -115q-87 -116 -111 -123zM134 1132q-54 39 -88.5 70t-42.5 47l99 121l143 -115q-42 -56 -71 -87t-40 -36zM349 1150q-53 39 -89 70.5t-42 45.5l99 122l143 -116q-84 -112 -111 -122z" />
            <glyph glyph-name="uni06B7.fina" unicode="&#x6b7;" horiz-adv-x="1078" d="M465 -461q-113 0 -205 47t-146 133.5t-54 204.5q0 102 51 204.5t157 180.5q44 -15 66 -57q-64 -65 -96.5 -142t-32.5 -153q0 -145 82 -214.5t192 -69.5q88 0 144 37.5t87 99.5t44 136.5t16 149t3 135.5q0 191 -6.5 386t-10.5 388q12 24 42.5 41.5t65 28.5t56.5 14
q3 -18 4 -80t1 -150q0 -98 -1.5 -211t-3.5 -221.5t-4.5 -196.5t-5.5 -137q-17 -293 -139.5 -423.5t-305.5 -130.5zM1078 -10q-107 0 -158 27.5t-94 71.5l88 107q26 -40 62 -55.5t102 -15.5h20v-135h-20zM816 1411q-53 39 -88 70.5t-43 45.5l99 122l143 -115
q-87 -116 -111 -123zM741 1162q-54 39 -88.5 70t-42.5 47l99 121l143 -115q-42 -56 -71 -87t-40 -36zM956 1180q-53 39 -89 70.5t-42 45.5l99 122l143 -116q-84 -112 -111 -122z" />
            <glyph glyph-name="uni06B8.init" unicode="&#x6b8;" horiz-adv-x="396" d="M-20 -10v135h20q112 0 147.5 38.5t35.5 91.5q0 40 -2.5 121t-7 179t-8.5 193t-7.5 165t-5.5 92q12 24 42.5 41.5t65 28.5t56.5 14q3 -12 4 -51.5t1 -88.5v-90q0 -124 2.5 -266t2.5 -324q0 -74 -31.5 -137.5t-103 -102.5t-191.5 -39h-20zM303 -322l-143 115
q41 56 70.5 87.5t40.5 35.5q53 -39 88 -70.5t42 -46.5zM227 -571l-142 115q83 114 111 123q53 -39 88 -70.5t42 -46.5zM88 -340l-143 115q83 113 111 122q53 -38 88.5 -69.5t41.5 -46.5z" />
            <glyph glyph-name="uni06B8.medi" unicode="&#x6b8;" horiz-adv-x="477" d="M-20 -10v135h20q112 0 147.5 41t35.5 109q0 34 -3 111t-7 173.5t-8.5 190.5t-8 164t-5.5 91q12 24 42.5 41.5t65 28.5t56.5 14q4 -85 5.5 -215t3.5 -285.5t7 -319.5q2 -81 46 -112.5t100 -31.5h20v-135h-20q-79 0 -134 24t-90 60q-7 -8 -34.5 -28.5t-80.5 -38t-138 -17.5
h-20zM366 -361l-143 115q41 56 70.5 87.5t40.5 35.5q53 -39 88 -70.5t42 -46.5zM290 -610l-142 115q83 114 111 123q53 -39 88 -70.5t42 -46.5zM151 -379l-143 115q83 113 111 122q53 -38 88.5 -69.5t41.5 -46.5z" />
            <glyph glyph-name="uni06B8.fina" unicode="&#x6b8;" horiz-adv-x="1078" d="M465 -461q-113 0 -205 47t-146 133.5t-54 204.5q0 102 51 204.5t157 180.5q44 -15 66 -57q-64 -65 -96.5 -142t-32.5 -153q0 -145 82 -214.5t192 -69.5q88 0 144 37.5t87 99.5t44 136.5t16 149t3 135.5q0 191 -6.5 386t-10.5 388q12 24 42.5 41.5t65 28.5t56.5 14
q3 -18 4 -80t1 -150q0 -98 -1.5 -211t-3.5 -221.5t-4.5 -196.5t-5.5 -137q-17 -293 -139.5 -423.5t-305.5 -130.5zM1078 -10q-107 0 -158 27.5t-94 71.5l88 107q26 -40 62 -55.5t102 -15.5h20v-135h-20zM600 -818l-143 115q41 56 70.5 87.5t40.5 35.5q53 -39 88 -70.5
t42 -46.5zM524 -1067l-142 115q83 114 111 123q53 -39 88 -70.5t42 -46.5zM385 -836l-143 115q83 113 111 122q53 -38 88.5 -69.5t41.5 -46.5z" />
            <glyph glyph-name="uni0645.init" unicode="&#x645;" horiz-adv-x="816" arabic-form="initial" d="M476 -41q-81 0 -138.5 27.5t-95 65t-59.5 67.5l70 138q45 -106 105.5 -136.5t118.5 -30.5q65 0 104.5 37t39.5 104q0 93 -50.5 147t-124.5 54q-95 0 -132 -77t-37 -190q-22 -102 -95 -139t-180 -36h-10.5h-11.5v135h9.5h10.5q66 0 105 16.5t39 37.5v15.5t1 20.5
q4 71 17 121.5t37 96.5q37 71 104 101.5t145 30.5q77 0 147.5 -36.5t115.5 -109.5t45 -182q0 -96 -40.5 -157.5t-104.5 -91t-135 -29.5z" />
            <glyph glyph-name="uni0645.medi" unicode="&#x645;" horiz-adv-x="937" arabic-form="medial" d="M476 -41q-81 0 -138.5 27.5t-95 65t-59.5 67.5l70 138q45 -106 105.5 -136.5t118.5 -30.5q65 0 102.5 37t37.5 104q0 93 -54.5 147t-120.5 54q-95 0 -130 -77t-35 -190q-22 -102 -95 -139t-180 -36h-10.5h-11.5v135h9.5h10.5q66 0 105 16.5t39 37.5v15.5t1 20.5
q4 71 17 121.5t37 96.5q37 71 104 101.5t145 30.5q77 0 147.5 -36.5t115.5 -109.5t45 -182q0 -96 -40.5 -157.5t-104.5 -91t-135 -29.5zM937 -10q-82 0 -132 12.5t-81.5 34.5t-60.5 52l88 107q26 -40 65 -55.5t121 -15.5h20v-135h-20z" />
            <glyph glyph-name="uni0645.fina" unicode="&#x645;" horiz-adv-x="1006" arabic-form="final" d="M7 -588q-23 20 -41 60.5t-21 65.5q126 43 188.5 108.5t83.5 165t21 243.5q0 100 4 167t16.5 116.5t35.5 94.5q37 71 104 101.5t145 30.5q77 0 147.5 -36.5t115.5 -109.5t45 -182q0 -96 -40.5 -157.5t-104.5 -91t-135 -29.5q-82 0 -139 27.5t-94.5 65t-59.5 67.5l70 138
q45 -106 105.5 -136.5t118.5 -30.5q65 0 102.5 37t37.5 104q0 93 -54.5 147t-120.5 54q-63 0 -99 -37.5t-51 -98t-15 -131.5q0 -43 1.5 -88.5t1.5 -89.5q0 -170 -48.5 -286.5t-131.5 -187t-188 -101.5zM1006 -10q-107 0 -158 27.5t-94 71.5l88 107q26 -40 62 -55.5
t102 -15.5h20v-135h-20z" />
            <glyph glyph-name="uni0646.init" unicode="&#x646;" horiz-adv-x="409" arabic-form="initial" d="M-20 -10v135h30q106 0 145 40t39 108q0 38 -9 83.5t-20 99.5q22 11 62 23.5t69 13.5q43 -123 43 -224q0 -131 -81 -205t-248 -74h-30zM186 568q-56 41 -93 74t-44 48l103 128l151 -120q-88 -121 -117 -130z" />
            <glyph glyph-name="uni0646.medi" unicode="&#x646;" horiz-adv-x="580" arabic-form="medial" d="M-20 -10v135h20q81 0 128.5 22.5t70 53t29.5 55.5t7 29q0 8 -4.5 31.5t-9.5 46.5t-5 28q28 14 60 22.5t72 9.5q32 -170 89.5 -234t142.5 -64h20v-135h-20q-85 0 -160 33.5t-127 117.5q-37 -80 -117.5 -115.5t-175.5 -35.5h-20zM242 564q-56 41 -93 74t-44 48l103 128
l151 -120q-88 -121 -117 -130z" />
            <glyph glyph-name="uni0646.fina" unicode="&#x646;" horiz-adv-x="1262" arabic-form="final" d="M566 -553q-153 0 -261 62.5t-165 167t-57 228.5q0 120 56.5 247t175.5 239q42 -15 71 -60q-82 -98 -120 -199t-38 -192q0 -100 42 -181t119 -128t182 -47q138 0 220.5 59.5t118.5 166.5t36 247q0 76 -9 160t-26 174q71 29 137 32q16 -83 41.5 -151t70 -107.5t115.5 -39.5
h20v-135h-20q-78 0 -123 15.5t-68 32.5q-2 -298 -137 -444.5t-381 -146.5zM625 444q-56 41 -93 74t-44 48l103 128l151 -120q-88 -121 -117 -130z" />
            <glyph glyph-name="uni06B9.init" unicode="&#x6b9;" horiz-adv-x="429" d="M-20 -10v135h30q106 0 145 40t39 108q0 38 -9 83.5t-20 99.5q22 11 62 23.5t69 13.5q43 -123 43 -224q0 -131 -81 -205t-248 -74h-30zM186 588q-56 41 -93 74t-44 48l103 128l151 -120q-88 -121 -117 -130zM182 -332q-56 41 -93 74t-44 48l103 128l151 -120
q-88 -121 -117 -130z" />
            <glyph glyph-name="uni06B9.medi" unicode="&#x6b9;" horiz-adv-x="580" d="M-20 -10v135h20q81 0 128.5 22.5t70 53t29.5 55.5t7 29q0 8 -4.5 31.5t-9.5 46.5t-5 28q28 14 60 22.5t72 9.5q32 -170 89.5 -234t142.5 -64h20v-135h-20q-85 0 -160 33.5t-127 117.5q-37 -80 -117.5 -115.5t-175.5 -35.5h-20zM253 523q-56 41 -93 74t-44 48l103 128
l151 -120q-88 -121 -117 -130zM299 -352q-56 41 -93 74t-44 48l103 128l151 -120q-88 -121 -117 -130z" />
            <glyph glyph-name="uni06B9.fina" unicode="&#x6b9;" horiz-adv-x="1262" d="M566 -553q-153 0 -261 62.5t-165 167t-57 228.5q0 120 56.5 247t175.5 239q42 -15 71 -60q-82 -98 -120 -199t-38 -192q0 -100 42 -181t119 -128t182 -47q138 0 220.5 59.5t118.5 166.5t36 247q0 76 -9 160t-26 174q71 29 137 32q16 -83 41.5 -151t70 -107.5t115.5 -39.5
h20v-135h-20q-78 0 -123 15.5t-68 32.5q-2 -298 -137 -444.5t-381 -146.5zM625 444q-56 41 -93 74t-44 48l103 128l151 -120q-88 -121 -117 -130zM599 -885q-56 41 -93 74t-44 48l103 128l151 -120q-88 -121 -117 -130z" />
            <glyph glyph-name="uni06BA.init" unicode="&#x6ba;" horiz-adv-x="409" d="M-20 -10v135h30q106 0 145 40t39 108q0 38 -9 83.5t-20 99.5q22 11 62 23.5t69 13.5q43 -123 43 -224q0 -131 -81 -205t-248 -74h-30z" />
            <glyph glyph-name="uni06BA.medi" unicode="&#x6ba;" horiz-adv-x="580" d="M-20 -10v135h20q81 0 128.5 22.5t70 53t29.5 55.5t7 29q0 8 -4.5 31.5t-9.5 46.5t-5 28q28 14 60 22.5t72 9.5q32 -170 89.5 -234t142.5 -64h20v-135h-20q-85 0 -160 33.5t-127 117.5q-37 -80 -117.5 -115.5t-175.5 -35.5h-20z" />
            <glyph glyph-name="uni06BA.fina" unicode="&#x6ba;" horiz-adv-x="1262" arabic-form="final" d="M553 -553q-153 0 -261 62.5t-165 167t-57 228.5q0 120 56.5 247t175.5 239q42 -15 71 -60q-82 -98 -120 -199t-38 -192q0 -100 42 -181t119 -128t182 -47q138 0 220.5 59.5t118.5 166.5t36 247q0 76 -9 160t-26 174q71 29 137 32q16 -83 41.5 -151t70 -107.5t115.5 -39.5
h20v-135h-20q-78 0 -123 15.5t-68 32.5q-2 -298 -137 -444.5t-381 -146.5z" />
            <glyph glyph-name="uni06BB.init" unicode="&#x6bb;" horiz-adv-x="409" arabic-form="initial" d="M-20 -10v135h30q106 0 145 40t39 108q0 38 -9 83.5t-20 99.5q22 11 62 23.5t69 13.5q43 -123 43 -224q0 -131 -81 -205t-248 -74h-30zM208 577q-67 0 -127.5 8t-107.5 8q-21 39 -24 84q8 0 30 -1t27 -2q33 28 71 70t89 74.5t121 32.5q57 0 89 -37.5t32 -85.5
q0 -55 -47 -103t-153 -48zM226 655q50 0 73.5 22t23.5 46q0 20 -14 34t-40 14q-41 0 -91 -35.5t-82 -74.5q20 -2 57.5 -4t72.5 -2zM50 685q-1 96 -6 184t-7 138q17 24 45.5 38t48.5 16q1 -68 -2 -152.5t-5 -155.5z" />
            <glyph glyph-name="uni06BB.medi" unicode="&#x6bb;" horiz-adv-x="580" arabic-form="medial" d="M-20 -10v135h20q81 0 128.5 22.5t70 53t29.5 55.5t7 29q0 8 -4.5 31.5t-9.5 46.5t-5 28q28 14 60 22.5t72 9.5q32 -170 89.5 -234t142.5 -64h20v-135h-20q-85 0 -160 33.5t-127 117.5q-37 -80 -117.5 -115.5t-175.5 -35.5h-20zM288 507q-67 0 -127.5 8t-107.5 8
q-21 39 -24 84q8 0 30 -1t27 -2q33 28 71 70t89 74.5t121 32.5q57 0 89 -37.5t32 -85.5q0 -55 -47 -103t-153 -48zM306 585q50 0 73.5 22t23.5 46q0 20 -14 34t-40 14q-41 0 -91 -35.5t-82 -74.5q20 -2 57.5 -4t72.5 -2zM130 615q-1 96 -6 184t-7 138q17 24 45.5 38t48.5 16
q1 -68 -2 -152.5t-5 -155.5z" />
            <glyph glyph-name="uni06BB.fina" unicode="&#x6bb;" horiz-adv-x="1262" arabic-form="final" d="M553 -553q-153 0 -261 62.5t-165 167t-57 228.5q0 120 56.5 247t175.5 239q42 -15 71 -60q-82 -98 -120 -199t-38 -192q0 -100 42 -181t119 -128t182 -47q138 0 220.5 59.5t118.5 166.5t36 247q0 76 -9 160t-26 174q71 29 137 32q16 -83 41.5 -151t70 -107.5t115.5 -39.5
h20v-135h-20q-78 0 -123 15.5t-68 32.5q-2 -298 -137 -444.5t-381 -146.5zM638 507q-67 0 -127.5 8t-107.5 8q-21 39 -24 84q8 0 30 -1t27 -2q33 28 71 70t89 74.5t121 32.5q57 0 89 -37.5t32 -85.5q0 -55 -47 -103t-153 -48zM656 585q50 0 73.5 22t23.5 46q0 20 -14 34
t-40 14q-41 0 -91 -35.5t-82 -74.5q20 -2 57.5 -4t72.5 -2zM480 615q-1 96 -6 184t-7 138q17 24 45.5 38t48.5 16q1 -68 -2 -152.5t-5 -155.5z" />
            <glyph glyph-name="uni06BC.init" unicode="&#x6bc;" horiz-adv-x="409" d="M-20 -10v135h30q106 0 145 40t39 108q0 38 -9 83.5t-20 99.5q22 11 62 23.5t69 13.5q43 -123 43 -224q0 -131 -81 -205t-248 -74h-30zM186 568q-56 41 -93 74t-44 48l103 128l151 -120q-88 -121 -117 -130zM218 -191q-76 0 -113.5 44t-37.5 99q0 56 39 103t112 47
q75 0 114 -46.5t39 -102.5q0 -54 -38 -99t-115 -45zM220 -112q36 0 53.5 20.5t17.5 45.5q0 27 -18.5 50t-53.5 23t-53 -22t-18 -49q0 -25 18 -46.5t54 -21.5z" />
            <glyph glyph-name="uni06BC.medi" unicode="&#x6bc;" horiz-adv-x="580" d="M-20 -10v135h20q81 0 128.5 22.5t70 53t29.5 55.5t7 29q0 8 -4.5 31.5t-9.5 46.5t-5 28q28 14 60 22.5t72 9.5q32 -170 89.5 -234t142.5 -64h20v-135h-20q-85 0 -160 33.5t-127 117.5q-37 -80 -117.5 -115.5t-175.5 -35.5h-20zM242 564q-56 41 -93 74t-44 48l103 128
l151 -120q-88 -121 -117 -130zM298 -153q-76 0 -113.5 44t-37.5 99q0 56 39 103t112 47q75 0 114 -46.5t39 -102.5q0 -54 -38 -99t-115 -45zM300 -74q36 0 53.5 20.5t17.5 45.5q0 27 -18.5 50t-53.5 23t-53 -22t-18 -49q0 -25 18 -46.5t54 -21.5z" />
            <glyph glyph-name="uni06BC.fina" unicode="&#x6bc;" horiz-adv-x="1262" d="M553 -553q-153 0 -261 62.5t-165 167t-57 228.5q0 120 56.5 247t175.5 239q42 -15 71 -60q-82 -98 -120 -199t-38 -192q0 -100 42 -181t119 -128t182 -47q138 0 220.5 59.5t118.5 166.5t36 247q0 76 -9 160t-26 174q71 29 137 32q16 -83 41.5 -151t70 -107.5t115.5 -39.5
h20v-135h-20q-78 0 -123 15.5t-68 32.5q-2 -298 -137 -444.5t-381 -146.5zM612 444q-56 41 -93 74t-44 48l103 128l151 -120q-88 -121 -117 -130zM560 -776q-76 0 -113.5 44t-37.5 99q0 56 39 103t112 47q75 0 114 -46.5t39 -102.5q0 -54 -38 -99t-115 -45zM562 -697
q36 0 53.5 20.5t17.5 45.5q0 27 -18.5 50t-53.5 23t-53 -22t-18 -49q0 -25 18 -46.5t54 -21.5z" />
            <glyph glyph-name="uni06BD.init" unicode="&#x6bd;" horiz-adv-x="409" d="M-20 -10v135h30q106 0 145 40t39 108q0 38 -9 83.5t-20 99.5q22 11 62 23.5t69 13.5q43 -123 43 -224q0 -131 -81 -205t-248 -74h-30zM276 -304l-143 115q41 56 70.5 87.5t40.5 35.5q53 -39 88 -70.5t42 -46.5zM200 -553l-142 115q83 114 111 123q53 -39 88 -70.5
t42 -46.5zM61 -322l-143 115q83 113 111 122q53 -38 88.5 -69.5t41.5 -46.5z" />
            <glyph glyph-name="uni06BD.medi" unicode="&#x6bd;" horiz-adv-x="580" d="M-20 -10v135h20q81 0 128.5 22.5t70 53t29.5 55.5t7 29q0 8 -4.5 31.5t-9.5 46.5t-5 28q28 14 60 22.5t72 9.5q32 -170 89.5 -234t142.5 -64h20v-135h-20q-85 0 -160 33.5t-127 117.5q-37 -80 -117.5 -115.5t-175.5 -35.5h-20zM356 -304l-143 115q41 56 70.5 87.5
t40.5 35.5q53 -39 88 -70.5t42 -46.5zM280 -553l-142 115q83 114 111 123q53 -39 88 -70.5t42 -46.5zM141 -322l-143 115q83 113 111 122q53 -38 88.5 -69.5t41.5 -46.5z" />
            <glyph glyph-name="uni06BD.fina" unicode="&#x6bd;" horiz-adv-x="1262" d="M553 -553q-153 0 -261 62.5t-165 167t-57 228.5q0 120 56.5 247t175.5 239q42 -15 71 -60q-82 -98 -120 -199t-38 -192q0 -100 42 -181t119 -128t182 -47q138 0 220.5 59.5t118.5 166.5t36 247q0 76 -9 160t-26 174q71 29 137 32q16 -83 41.5 -151t70 -107.5t115.5 -39.5
h20v-135h-20q-78 0 -123 15.5t-68 32.5q-2 -298 -137 -444.5t-381 -146.5zM578 651q-53 39 -88 70.5t-43 45.5l99 122l143 -115q-87 -116 -111 -123zM503 402q-54 39 -88.5 70t-42.5 47l99 121l143 -115q-42 -56 -71 -87t-40 -36zM718 420q-53 39 -89 70.5t-42 45.5l99 122
l143 -116q-84 -112 -111 -122z" />
            <glyph glyph-name="uni0647.init" unicode="&#x647;" horiz-adv-x="1023" arabic-form="initial" d="M540 -113q-149 0 -246.5 57t-144.5 143.5t-47 174.5q0 73 30 136t89 101.5t144 38.5q75 0 128 -36.5t81 -94.5t28 -125q0 -71 -36.5 -138.5t-114 -111t-200.5 -43.5q-46 0 -108 0.5t-141 0.5h-10.5h-11.5v135h9.5h10.5h100.5t112.5 -0.5t88 -0.5q80 0 117.5 50t37.5 105
q0 50 -25.5 87.5t-73.5 37.5q-52 0 -81 -42.5t-29 -101.5q0 -53 29.5 -109.5t93.5 -94.5t167 -38q93 0 154 38.5t91.5 98.5t30.5 125q0 68 -33 129.5t-102 101t-177 39.5q-60 0 -130 -16q-1 10 -2 22t-1 25q0 26 5.5 51.5t21.5 41.5q59 9 110 9q158 0 256.5 -58.5t145 -151
t46.5 -194.5q0 -98 -45.5 -188t-137.5 -147t-230 -57z" />
            <glyph glyph-name="uni0647.medi" unicode="&#x647;" horiz-adv-x="803" arabic-form="medial" d="M495 -472q-85 0 -154 44.5t-118 120t-75 169.5t-26 192q0 104 25 205.5t74 183.5t123 131t171 49q98 0 147 -59.5t49 -142.5q0 -80 -47.5 -165.5t-143.5 -138.5q122 6 179 7t104 1h20v-135h-20.5h-13.5q-86 0 -150.5 2t-116.5 6q104 -46 150.5 -119t46.5 -145
q0 -82 -56.5 -144t-167.5 -62zM-20 -10v135h20q39 0 69.5 2.5t94.5 9.5l-12 -134q-43 -7 -77.5 -10t-74.5 -3h-20zM498 -337q42 0 65 20t23 53q0 53 -72 128.5t-261 148.5l-9 125q85 4 159.5 46.5t121 102.5t46.5 114q0 48 -21.5 68.5t-54.5 20.5q-67 0 -120.5 -63.5
t-84 -162t-30.5 -202.5q0 -99 29.5 -190.5t83 -150t125.5 -58.5z" />
            <glyph glyph-name="uni0647.fina" unicode="&#x647;" horiz-adv-x="798" arabic-form="final" d="M321 86q-65 0 -122.5 20t-93 58t-35.5 93q0 77 98 170.5t310 223.5l33 -127q-77 -43 -148 -95.5t-116 -96t-45 -59.5q0 -23 35 -37.5t84 -14.5q63 0 131 28.5t99 97.5l41 -143q-45 -60 -119.5 -89t-151.5 -29zM798 -10q-65 0 -116 22.5t-88.5 81t-62.5 167.5
q-17 76 -27 139t-19.5 128.5t-24.5 146.5q11 16 44 44t82 35q29 -233 52.5 -371t59 -198t100.5 -60h20v-135h-20z" />
            <glyph glyph-name="uni06C1.init" unicode="&#x6c1;" horiz-adv-x="409" arabic-form="initial" d="M-20 -10v135h30q106 0 145 40t39 108q0 38 -9 83.5t-20 99.5q22 11 62 23.5t69 13.5q43 -123 43 -224q0 -131 -81 -205t-248 -74h-30zM228.043 -549.097q-44.1982 0 -82.4473 34.8496q-38.249 34.8486 -38.249 117.296q0 85.8477 35.2744 180.62
q35.2734 94.7725 107.521 163.62l57.7988 -42.498q-33.999 -41.6494 -64.1738 -115.598q-30.1738 -73.9473 -30.1738 -159.795h118.146v-101.147q-12.75 -37.3984 -41.6484 -57.373q-28.8994 -19.9746 -62.0488 -19.9746z" />
            <glyph glyph-name="uni06C1.medi" unicode="&#x6c1;" horiz-adv-x="963" arabic-form="medial" d="M358 -443q-87 143 -113 295t15 297l91 17q-78 -88 -145 -124.5t-119 -44t-87 -7.5l-20 10v115l20 10q63 0 126.5 25t139 87t175.5 174q23 -22 32.5 -68t4.5 -85q-58 -59 -84 -140t-27.5 -164t15 -152.5t42.5 -105.5l-61 -7q5 126 38 234.5t96 175.5t156 67
q79 0 147.5 -20.5t162.5 -20.5l20 -10v-115l-20 -10q-94 0 -168 20t-131 20q-44 0 -77.5 -37.5t-56 -97t-34.5 -127.5t-13 -130q-23 -31 -52 -50.5t-73 -30.5z" />
            <glyph glyph-name="uni06C1.fina" unicode="&#x6c1;" horiz-adv-x="796" arabic-form="final" d="M206 -30q-34 0 -71.5 2t-63.5 12q-6 164 52.5 268t179.5 104q58 0 99 -23.5t77.5 -57.5t77.5 -68.5t98 -58t141 -23.5l20 -10v-115l-20 -10q-122 0 -202.5 35t-133 81t-89 81t-71.5 35q-47 0 -66.5 -44.5t-23.5 -103.5t-4 -104z" />
            <glyph glyph-name="uni06C2.init" unicode="&#x6c2;" horiz-adv-x="409" d="M-20 -10v135h30q106 0 145 40t39 108q0 38 -9 83.5t-20 99.5q22 11 62 23.5t69 13.5q43 -123 43 -224q0 -131 -81 -205t-248 -74h-30zM223.043 -549.097q-44.1982 0 -82.4473 34.8496q-38.249 34.8486 -38.249 117.296q0 85.8477 35.2744 180.62
q35.2734 94.7725 107.521 163.62l57.7988 -42.498q-33.999 -41.6494 -64.1738 -115.598q-30.1738 -73.9473 -30.1738 -159.795h118.146v-101.147q-12.75 -37.3984 -41.6484 -57.373q-28.8994 -19.9746 -62.0488 -19.9746zM18 571q-19 11 -32.5 33t-17.5 37q29 8 69 15.5
t86 14.5q-69 29 -100 59t-31 76q0 44 41.5 86t117.5 42q47 0 85.5 -18t72.5 -47q-4 -19 -20 -35t-30 -24q-32 23 -61.5 33t-51.5 10t-42 -11t-20 -38q0 -22 39.5 -47.5t166.5 -65.5q0 -14 -9 -35.5t-21 -34.5q-94 -7 -156.5 -24.5t-85.5 -25.5z" />
            <glyph glyph-name="uni06C2.medi" unicode="&#x6c2;" horiz-adv-x="963" d="M304 462q-19 11 -32.5 33t-17.5 37q29 8 69 15.5t86 14.5q-69 29 -100 59t-31 76q0 44 41.5 86t117.5 42q47 0 85.5 -18t72.5 -47q-4 -19 -20 -35t-30 -24q-32 23 -61.5 33t-51.5 10t-42 -11t-20 -38q0 -22 39.5 -47.5t166.5 -65.5q0 -14 -9 -35.5t-21 -34.5
q-94 -7 -156.5 -24.5t-85.5 -25.5zM358 -443q-87 143 -113 295t15 297l91 17q-78 -88 -145 -124.5t-119 -44t-87 -7.5l-20 10v115l20 10q63 0 126.5 25t139 87t175.5 174q23 -22 32.5 -68t4.5 -85q-58 -59 -84 -140t-27.5 -164t15 -152.5t42.5 -105.5l-61 -7q5 126 38 234.5
t96 175.5t156 67q79 0 147.5 -20.5t162.5 -20.5l20 -10v-115l-20 -10q-94 0 -168 20t-131 20q-44 0 -77.5 -37.5t-56 -97t-34.5 -127.5t-13 -130q-23 -31 -52 -50.5t-73 -30.5z" />
            <glyph glyph-name="uni06C2.fina" unicode="&#x6c2;" horiz-adv-x="796" d="M206 -30q-34 0 -71.5 2t-63.5 12q-6 164 52.5 268t179.5 104q58 0 99 -23.5t77.5 -57.5t77.5 -68.5t98 -58t141 -23.5l20 -10v-115l-20 -10q-122 0 -202.5 35t-133 81t-89 81t-71.5 35q-47 0 -66.5 -44.5t-23.5 -103.5t-4 -104zM134 422q-19 11 -32.5 33t-17.5 37
q29 8 69 15.5t86 14.5q-69 29 -100 59t-31 76q0 44 41.5 86t117.5 42q47 0 85.5 -18t72.5 -47q-4 -19 -20 -35t-30 -24q-32 23 -61.5 33t-51.5 10t-42 -11t-20 -38q0 -22 39.5 -47.5t166.5 -65.5q0 -14 -9 -35.5t-21 -34.5q-94 -7 -156.5 -24.5t-85.5 -25.5z" />
            <glyph glyph-name="uni06BE.init" unicode="&#x6be;" horiz-adv-x="1023" arabic-form="initial" d="M540 -113q-149 0 -246.5 57t-144.5 143.5t-47 174.5q0 73 30 136t89 101.5t144 38.5q75 0 128 -36.5t81 -94.5t28 -125q0 -71 -36.5 -138.5t-114 -111t-200.5 -43.5q-46 0 -108 0.5t-141 0.5h-10.5h-11.5v135h9.5h10.5h100.5t112.5 -0.5t88 -0.5q80 0 117.5 50t37.5 105
q0 50 -25.5 87.5t-73.5 37.5q-52 0 -81 -42.5t-29 -101.5q0 -53 29.5 -109.5t93.5 -94.5t167 -38q93 0 154 38.5t91.5 98.5t30.5 125q0 68 -33 129.5t-102 101t-177 39.5q-60 0 -130 -16q-1 10 -2 22t-1 25q0 26 5.5 51.5t21.5 41.5q59 9 110 9q158 0 256.5 -58.5t145 -151
t46.5 -194.5q0 -98 -45.5 -188t-137.5 -147t-230 -57z" />
            <glyph glyph-name="uni06BE.medi" unicode="&#x6be;" horiz-adv-x="803" arabic-form="medial" d="M495 -472q-85 0 -154 44.5t-118 120t-75 169.5t-26 192q0 104 25 205.5t74 183.5t123 131t171 49q98 0 147 -59.5t49 -142.5q0 -80 -47.5 -165.5t-143.5 -138.5q122 6 179 7t104 1h20v-135h-20.5h-13.5q-86 0 -150.5 2t-116.5 6q104 -46 150.5 -119t46.5 -145
q0 -82 -56.5 -144t-167.5 -62zM-20 -10v135h20q39 0 69.5 2.5t94.5 9.5l-12 -134q-43 -7 -77.5 -10t-74.5 -3h-20zM498 -337q42 0 65 20t23 53q0 53 -72 128.5t-261 148.5l-9 125q85 4 159.5 46.5t121 102.5t46.5 114q0 48 -21.5 68.5t-54.5 20.5q-67 0 -120.5 -63.5
t-84 -162t-30.5 -202.5q0 -99 29.5 -190.5t83 -150t125.5 -58.5z" />
            <glyph glyph-name="uni06BE.fina" unicode="&#x6be;" horiz-adv-x="983" arabic-form="final" d="M675 -472q-85 0 -154 44.5t-118 120t-75 169.5t-26 192q0 104 25 205.5t74 183.5t123 131t171 49q98 0 147 -59.5t49 -142.5q0 -80 -47.5 -165.5t-143.5 -138.5q122 6 179 7t104 1h20v-135h-20.5h-13.5q-86 0 -150.5 2t-116.5 6q104 -46 150.5 -119t46.5 -145
q0 -82 -56.5 -144t-167.5 -62zM75 -40q-3 13 -4 24t-1 21q0 30 5.5 53.5t21.5 54.5q34 11 92.5 17.5t137.5 6.5l17 -131q-108 -1 -168 -13.5t-101 -32.5zM678 -337q42 0 65 20t23 53q0 53 -72 128.5t-261 148.5l-9 125q85 4 159.5 46.5t121 102.5t46.5 114q0 48 -21.5 68.5
t-54.5 20.5q-67 0 -120.5 -63.5t-84 -162t-30.5 -202.5q0 -99 29.5 -190.5t83 -150t125.5 -58.5z" />
            <glyph glyph-name="uni06FF.init" unicode="&#x6ff;" horiz-adv-x="1023" d="M540 -113q-149 0 -246.5 57t-144.5 143.5t-47 174.5q0 73 30 136t89 101.5t144 38.5q75 0 128 -36.5t81 -94.5t28 -125q0 -71 -36.5 -138.5t-114 -111t-200.5 -43.5q-46 0 -108 0.5t-141 0.5h-10.5h-11.5v135h9.5h10.5h100.5t112.5 -0.5t88 -0.5q80 0 117.5 50t37.5 105
q0 50 -25.5 87.5t-73.5 37.5q-52 0 -81 -42.5t-29 -101.5q0 -53 29.5 -109.5t93.5 -94.5t167 -38q93 0 154 38.5t91.5 98.5t30.5 125q0 68 -33 129.5t-102 101t-177 39.5q-60 0 -130 -16q-1 10 -2 22t-1 25q0 26 5.5 51.5t21.5 41.5q59 9 110 9q158 0 256.5 -58.5t145 -151
t46.5 -194.5q0 -98 -45.5 -188t-137.5 -147t-230 -57zM308 765q-4 0 -22 22t-27 54q32 45 78.5 96t87.5 86.5t55 35.5q12 0 40.5 -23t62.5 -56t64.5 -65t46.5 -50q-4 -37 -21.5 -68t-24.5 -31q-46 51 -94 100t-89 77q-40 -36 -86 -90t-71 -88z" />
            <glyph glyph-name="uni06FF.medi" unicode="&#x6ff;" horiz-adv-x="1062" d="M780 -10v135h32h73.5h87.5h74.5h32.5l2 -135h-32.5h-74.5h-88h-74.5h-32.5zM308 765q-4 0 -22 22t-27 54q32 45 78.5 96t87.5 86.5t55 35.5q12 0 40.5 -23t62.5 -56t64.5 -65t46.5 -50q-4 -37 -21.5 -68t-24.5 -31q-46 51 -94 100t-89 77q-40 -36 -86 -90t-71 -88z
M540 -113q-149 0 -246.5 57t-144.5 143.5t-47 174.5q0 73 30 136t89 101.5t144 38.5q75 0 128 -36.5t81 -94.5t28 -125q0 -71 -36.5 -138.5t-114 -111t-200.5 -43.5q-46 0 -108 0.5t-141 0.5h-10.5h-11.5v135h9.5h10.5h100.5t112.5 -0.5t88 -0.5q80 0 117.5 50t37.5 105
q0 50 -25.5 87.5t-73.5 37.5q-52 0 -81 -42.5t-29 -101.5q0 -53 29.5 -109.5t93.5 -94.5t167 -38q93 0 154 38.5t91.5 98.5t30.5 125q0 68 -33 129.5t-102 101t-177 39.5q-60 0 -130 -16q-1 10 -2 22t-1 25q0 26 5.5 51.5t21.5 41.5q59 9 110 9q158 0 256.5 -58.5t145 -151
t46.5 -194.5q0 -98 -45.5 -188t-137.5 -147t-230 -57z" />
            <glyph glyph-name="uni06FF.fina" unicode="&#x6ff;" horiz-adv-x="1209" d="M927 -10v135h32h73.5h87.5h74.5h32.5l2 -135h-32.5h-74.5h-88h-74.5h-32.5zM684 -83q-149 0 -246.5 59t-144.5 146t-47 170q0 73 30 136t89 101.5t144 38.5q75 0 128 -36.5t81 -94.5t28 -125q0 -81 -44 -143t-116.5 -104t-158.5 -63.5t-170 -21.5q-56 0 -101 7t-79 19
q-16 31 -21.5 56t-5.5 55q0 10 1 21t4 24q41 -19 97.5 -28t141.5 -9q101 0 162 20.5t92 50.5t41.5 61t10.5 52q0 50 -25.5 85.5t-73.5 35.5q-52 0 -81 -40.5t-29 -99.5q0 -62 29.5 -117.5t93.5 -90t167 -34.5q93 0 154 38.5t91.5 98.5t30.5 125q0 68 -33 129.5t-102 101
t-177 39.5q-60 0 -130 -16q-1 10 -2 22t-1 25q0 26 5.5 51.5t21.5 41.5q59 9 110 9q158 0 256.5 -58.5t145 -151t46.5 -194.5q0 -98 -45.5 -188t-137.5 -147t-230 -57zM510 765q-4 0 -22 22t-27 54q32 45 78.5 96t87.5 86.5t55 35.5q12 0 40.5 -23t62.5 -56t64.5 -65
t46.5 -50q-4 -37 -21.5 -68t-24.5 -31q-46 51 -94 100t-89 77q-40 -36 -86 -90t-71 -88z" />
            <glyph glyph-name="uni0629.fina" unicode="&#x629;" horiz-adv-x="798" arabic-form="final" d="M321 86q-65 0 -122.5 20t-93 58t-35.5 93q0 77 98 170.5t310 223.5l33 -127q-77 -43 -148 -95.5t-116 -96t-45 -59.5q0 -23 35 -37.5t84 -14.5q63 0 131 28.5t99 97.5l41 -143q-45 -60 -119.5 -89t-151.5 -29zM798 -10q-65 0 -116 22.5t-88.5 81t-62.5 167.5
q-17 76 -27 139t-19.5 128.5t-24.5 146.5q11 16 44 44t82 35q29 -233 52.5 -371t59 -198t100.5 -60h20v-135h-20zM418 772q-53 38 -88.5 70t-41.5 46l108 121l143 -114q-41 -56 -75.5 -87.5t-45.5 -35.5zM203 755q-53 38 -88 69.5t-42 46.5l108 121l143 -115
q-41 -56 -75.5 -87.5t-45.5 -34.5z" />
            <glyph glyph-name="uni06C3.fina" unicode="&#x6c3;" horiz-adv-x="860" d="M206 -30q-34 0 -71.5 2t-63.5 12q-6 164 52.5 268t179.5 104q58 0 99 -23.5t77.5 -57.5t77.5 -68.5t98 -58t141 -23.5l20 -10v-115l-20 -10q-122 0 -202.5 35t-133 81t-89 81t-71.5 35q-47 0 -66.5 -44.5t-23.5 -103.5t-4 -104zM465 417q-53 38 -88.5 70t-41.5 46
l108 121l143 -114q-41 -56 -75.5 -87.5t-45.5 -35.5zM250 400q-53 38 -88 69.5t-42 46.5l108 121l143 -115q-41 -56 -75.5 -87.5t-45.5 -34.5z" />
            <glyph glyph-name="uni06D5.fina" unicode="&#x6d5;" horiz-adv-x="798" d="M321 86q-65 0 -122.5 20t-93 58t-35.5 93q0 77 98 170.5t310 223.5l33 -127q-77 -43 -148 -95.5t-116 -96t-45 -59.5q0 -23 35 -37.5t84 -14.5q63 0 131 28.5t99 97.5l41 -143q-45 -60 -119.5 -89t-151.5 -29zM798 -10q-65 0 -116 22.5t-88.5 81t-62.5 167.5
q-17 76 -27 139t-19.5 128.5t-24.5 146.5q11 16 44 44t82 35q29 -233 52.5 -371t59 -198t100.5 -60h20v-135h-20z" />
            <glyph glyph-name="uni0648.fina" unicode="&#x648;" horiz-adv-x="773" arabic-form="final" d="M20 -666q-25 19 -46 57t-29 76q280 64 446.5 218.5t166.5 407.5q0 80 -17.5 147t-59 108t-113.5 41q-73 0 -114 -48.5t-41 -107.5q0 -57 43.5 -104t139.5 -47q81 0 193 42l-12 -148q-52 -15 -99 -21.5t-88 -6.5q-108 0 -177.5 40t-103 103t-33.5 133q0 74 35.5 143
t104 113.5t166.5 44.5q138 0 225 -107.5t87 -328.5q0 -166 -80 -318.5t-230.5 -267.5t-363.5 -169zM678 -13l-5 134q30 2 47.5 3t42.5 1h30v-135h-30q-37 0 -54 -0.5t-31 -2.5z" />
            </font>
</defs>
</svg>
