<?xml version="1.0" standalone="no"?>
<!DOCTYPE svg PUBLIC "-//W3C//DTD SVG 1.1//EN" "http://www.w3.org/Graphics/SVG/1.1/DTD/svg11.dtd" >
<svg xmlns="http://www.w3.org/2000/svg" xmlns:xlink="http://www.w3.org/1999/xlink" version="1.1">
<metadata>
Created by FontForge 20201107 at Thu Mar 23 09:12:59 2017
 By fANhAN iNSiDE
Copyright (c) 1994-2017 SIL International.
</metadata>
<defs>
<font id="LateefGR-Regular" horiz-adv-x="0" >
  <font-face 
    font-family="LateefGR"
    font-weight="400"
    font-stretch="normal"
    units-per-em="2048"
    panose-1="1 0 5 6 2 0 0 2 0 3"
    ascent="1638"
    descent="-410"
    x-height="690"
    cap-height="1022"
    bbox="-386 -1022 1792 1910"
    underline-thickness="9"
    underline-position="-64"
    unicode-range="U+0020-FEFF"
  />
<missing-glyph horiz-adv-x="1135" 
d="M85 996v-1224h965v1224h-965zM1075 -253h-1015v1274h1015v-1274zM726 310q0 -62 -12 -120t-40.5 -103t-75 -72t-116.5 -27q-76 0 -111 44t-35 118q0 20 3 44t8.5 49t13.5 47.5t18 39.5q1 2 5 7.5t8 5.5q1 0 1 -1q0 -30 -8 -60t-8 -61q0 -29 12 -48.5t31 -32.5t43.5 -18.5
t48.5 -5.5q17 0 42 4.5t50 14t45 23.5t28 34l-36 528l-32 40l45 127q2 2 5.5 1.5t4.5 -3.5q-1 -8 -1 -12v-12q0 -31 14 -53t48 -24l-19 -105l-18 11q5 -43 11.5 -91.5t12.5 -98t10 -98t4 -92.5z" />
    <glyph glyph-name="uniFDF2" unicode="&#xfdf2;" horiz-adv-x="1307" arabic-form="isolated" 
d="M1207 365q0 -94 -8.5 -163t-33.5 -114t-70 -66.5t-118 -21.5q-33 0 -65.5 20t-58.5 48t-44.5 59t-22.5 53q-10 -32 -22.5 -64t-35 -58t-58 -42t-91.5 -16q-39 0 -70 17t-54 44.5t-38 62t-22 69.5q-18 -41 -41 -68.5t-51.5 -44t-63 -23.5t-75.5 -7q-14 0 -36.5 2.5t-44 9
t-37.5 18t-16 29.5q0 25 6.5 57.5t17 65t25 62t29.5 48.5q8 10 25 24t39 29.5t47 31t49 29t44 23t32 13.5l-17 113l56 123q9 -100 23 -199.5t36 -196.5q5 -24 15.5 -50t28 -47.5t44 -35.5t63.5 -14q30 0 55.5 6t44 22t28.5 43t10 68q0 10 -0.5 22t-2 33.5t-4.5 56.5
t-7.5 91.5t-11 138t-15.5 196.5l96 106l41 -544q3 -38 12.5 -80t27.5 -77.5t45.5 -59t66.5 -23.5q30 0 52 2t38.5 6.5t29.5 10.5t24 14l-29 629q-6 6 -15.5 17t-19 24t-16 25t-6.5 20q0 6 7.5 23t19.5 38.5t26.5 44.5t28 42t25 31.5t16.5 12.5q6 0 8 -7.5t2 -10.5
q0 -19 -7.5 -36.5t-7.5 -37.5q0 -15 9 -30.5t22.5 -30.5t28.5 -28t26 -21q-3 -8 -8 -27t-11.5 -41t-14 -42.5t-13.5 -31.5l-9 7q5 -103 13.5 -211t8.5 -211zM789 1022q-16 0 -24.5 5.5t-22.5 9.5q-9 -12 -20 -26.5t-24 -27t-28 -21.5t-33 -9q-20 0 -33 19.5t-20.5 46.5
t-11 54.5t-4.5 42.5l30 17l-2 -4q0 -12 3.5 -26.5t10.5 -27t17 -21.5t24 -9q15 0 27 17.5t19 41t8.5 46.5t-2.5 34l35 18q1 -8 4 -24t9 -31.5t14.5 -27t19.5 -11.5q15 0 26 13.5t18 32t9.5 38.5t1.5 34q0 3 -1 15t-3 15l35 18q2 -17 3 -33.5t1 -33.5q0 -23 -1.5 -55t-10 -61
t-26 -49t-48.5 -20zM740 1645q1 -46 3.5 -84t4.5 -69t2.5 -56.5t-2.5 -46.5q-6 -42 -16 -64t-20 -33q-11 -12 -24 -14q0 16 -1 38q-2 19 -4.5 46.5t-8.5 63.5q-4 23 -6 46.5t-3 42.5q-1 22 -1 42zM350 388h-2q-6 0 -22.5 -7.5t-38 -19t-45.5 -26t-43.5 -27.5t-32.5 -23
t-13 -14q0 -9 23 -19t51 -10q7 0 29.5 4.5t47 12t43.5 17.5t19 21z" />
    <glyph glyph-name="uniFDFC" unicode="&#xfdfc;" horiz-adv-x="1609" arabic-form="isolated" 
d="M525 1375q5 5 12 1.5t6 -8.5q-2 -12 -2 -21.5v-21.5q0 -47 22.5 -81.5t75.5 -37.5l-30 -165l-26 14q5 -44 11.5 -100t13.5 -118.5t14 -128.5t12 -128.5t8.5 -119.5t3.5 -102q0 -95 -19 -184.5t-64 -158.5t-119 -110.5t-185 -41.5q-60 0 -103.5 17.5t-72 50t-42 78.5
t-13.5 103q0 71 18.5 142t58.5 146q2 3 5.5 6t8.5 3q2 0 4 -3.5t1 -5.5q-15 -49 -23 -90t-8 -89q0 -44 19 -74.5t49.5 -50t68.5 -28.5t76 -9q28 0 68 7t79 21.5t71 36.5t44 52q-2 82 -9 194.5t-16 237.5t-19 254t-18 246l-51 61zM1185 138q-15 -32 -30 -57.5t-35 -43.5
t-48 -27.5t-69 -9.5q-51 0 -86.5 27.5t-59.5 72t-37.5 100t-20.5 111t-9.5 105.5t-2.5 84l-19 497l84 95l9 -514q0 -29 3 -74t9.5 -92t16.5 -89.5t25 -66.5q26 -45 52.5 -61.5t67.5 -16.5q62 0 86 16t24 33q0 14 -4.5 31.5t-11 33.5t-13.5 28t-12 16l57 145q29 -38 42 -87.5
t13 -98.5q0 -37 -7.5 -80t-23.5 -77zM1025 -234q21 -5 45 -8.5t50 -3.5q57 0 113.5 24t104.5 69q20 19 48.5 46.5t54.5 59t44.5 64.5t18.5 65q0 15 -13 36t-31 41.5t-36.5 38t-30.5 27.5l41 160q28 -18 52 -44.5t41 -58t26.5 -65.5t9.5 -67q0 -45 -10.5 -99.5t-31 -109
t-50 -106t-67.5 -91.5t-84 -64t-99 -24q-62 0 -115 28t-81 82zM682 -434l-107 104l107 104l104 -104zM892 -434l-104 104l104 104l107 -104z" />
    <glyph glyph-name=".notdef" horiz-adv-x="1135" 
d="M85 996v-1224h965v1224h-965zM1075 -253h-1015v1274h1015v-1274zM726 310q0 -62 -12 -120t-40.5 -103t-75 -72t-116.5 -27q-76 0 -111 44t-35 118q0 20 3 44t8.5 49t13.5 47.5t18 39.5q1 2 5 7.5t8 5.5q1 0 1 -1q0 -30 -8 -60t-8 -61q0 -29 12 -48.5t31 -32.5t43.5 -18.5
t48.5 -5.5q17 0 42 4.5t50 14t45 23.5t28 34l-36 528l-32 40l45 127q2 2 5.5 1.5t4.5 -3.5q-1 -8 -1 -12v-12q0 -31 14 -53t48 -24l-19 -105l-18 11q5 -43 11.5 -91.5t12.5 -98t10 -98t4 -92.5z" />
    <glyph glyph-name=".null" 
 />
    <glyph glyph-name="nonmarkingreturn" 
 />
    <glyph glyph-name="space" unicode=" " horiz-adv-x="465" 
 />
    <glyph glyph-name="tab" horiz-adv-x="465" 
 />
    <glyph glyph-name="exclam" horiz-adv-x="514" 
d="M343 933q0 -20 -3 -50l-68 -612h-30l-65 612q-3 26 -4.5 37.5t-1.5 19.5q0 51 25.5 78.5t61.5 27.5q14 0 29 -6t27.5 -19.5t20.5 -35t8 -52.5zM340 64q0 -18 -6.5 -33.5t-18 -27t-26.5 -18.5t-32 -7q-13 0 -27.5 5t-27 15.5t-21 26.5t-8.5 39q0 20 7.5 35.5t19.5 26
t27 15.5t30 5t29.5 -5.5t26.5 -16t19.5 -26t7.5 -34.5z" />
    <glyph glyph-name="exclam.arab" unicode="!" horiz-adv-x="494" 
d="M248 184q15 0 31.5 -9t30.5 -23t23 -30.5t9 -31.5t-9 -31.5t-23 -31t-30.5 -24t-31.5 -9.5q-14 0 -30.5 9.5t-30.5 24t-23.5 31t-9.5 31.5t9.5 31.5t23.5 30.5t30.5 23t30.5 9zM315 932q-2 -17 -4 -30t-3.5 -26.5t-4 -30.5t-6.5 -42q-4 -23 -7.5 -58t-6.5 -70.5t-5 -64.5
t-2 -39v-284l-49 -27q-9 32 -15.5 58t-13.5 61q-9 49 -11.5 90.5t-2.5 58.5v281z" />
    <glyph glyph-name="quotedbl" unicode="&#x22;" horiz-adv-x="629" 
d="M528 965q0 -44 -6 -89.5t-14.5 -91.5t-18.5 -91t-18 -87h-37q-6 34 -16 78.5t-19.5 92t-16.5 93.5t-7 84q0 41 17 65.5t61 24.5q35 0 55 -22.5t20 -56.5zM252 965q0 -34 -8 -84.5t-18.5 -103t-20.5 -99t-15 -72.5h-30q-8 39 -18.5 82.5t-19.5 89t-15.5 90.5t-6.5 86
q0 39 16.5 64.5t59.5 25.5q35 0 55.5 -22.5t20.5 -56.5z" />
    <glyph glyph-name="numbersign" unicode="#" horiz-adv-x="772" 
d="M539 322l-70 -345h-61l69 345h-256l-71 -345h-64l70 345h-129v63h141l53 258h-194v59h209l69 342h60l-66 -342h254l72 342h63l-72 -342h129v-59h-139l-53 -258h192v-63h-206zM285 643l-54 -258h258l54 258h-258z" />
    <glyph glyph-name="dollar" unicode="$" horiz-adv-x="772" 
d="M694 254q0 -62 -25 -111.5t-66 -85t-94.5 -56t-111.5 -24.5v-94h-49v94q-68 4 -135.5 19t-130.5 43v213h33q8 -106 69 -160t164 -63v438q-46 30 -93.5 61.5t-85.5 70t-62.5 86.5t-24.5 110q0 56 22.5 100t59.5 75t85 48.5t99 21.5v70h49v-70q34 -2 65 -8t61 -15.5
t60 -20.5t62 -23v-225h-29q-9 103 -60.5 166.5t-158.5 74.5v-383q45 -32 97 -67.5t96.5 -77.5t74 -93t29.5 -114zM348 989q-32 -5 -59 -15t-47 -27.5t-31.5 -43.5t-11.5 -61t13.5 -64.5t35 -55t48 -46.5t52.5 -37v350zM575 217q0 38 -17.5 69.5t-44 58t-57.5 48.5t-59 41
v-405q38 2 70.5 17.5t56.5 41t37.5 58.5t13.5 71z" />
    <glyph glyph-name="percent" unicode="%" horiz-adv-x="1335" 
d="M1219 383q0 -42 -9 -88t-27 -91t-44 -86t-59.5 -72.5t-75 -50t-89.5 -18.5q-104 0 -150 56.5t-46 156.5q0 42 12.5 85.5t35.5 84t54 75.5t68.5 61.5t79.5 41.5t86 15q35 0 65 -13.5t52 -36.5t34.5 -54t12.5 -66zM408 -23h-74l540 971q-46 -20 -93 -30.5t-97 -10.5
q-20 0 -39.5 2.5t-38.5 10.5q0 -22 6 -42.5t6 -41.5q0 -40 -11 -85t-31 -88t-49 -82.5t-64 -69.5t-76 -47.5t-86 -17.5q-51 0 -86 16t-56.5 44t-31.5 67t-10 86q0 63 27.5 128t74 118.5t106.5 87t126 33.5q40 0 66.5 -13t51.5 -29t54 -29t75 -13q70 0 130 25t104 82h74z
M1180 375q0 24 -7 47t-20.5 41t-34 29.5t-47.5 11.5q-35 0 -66 -19t-57.5 -50.5t-47 -71.5t-35 -81t-22 -80t-7.5 -69q0 -49 22.5 -78.5t73.5 -29.5q37 0 70 17t60.5 45.5t49.5 65t37 75.5t23 77t8 70zM578 858q0 16 -5.5 36t-7.5 36q-11 3 -26.5 11.5l-31 17t-29.5 15.5
t-21 7q-19 0 -38.5 -11t-36.5 -27.5t-32 -34.5t-25 -31q-43 -57 -66 -123.5t-23 -139.5q0 -49 21 -81.5t75 -32.5q38 0 71 17.5t60.5 46.5t49 66t36 77t22 79t7.5 72z" />
    <glyph glyph-name="ampersand" unicode="&#x26;" horiz-adv-x="1202" 
d="M1153 184q-9 -44 -29 -82.5t-49 -66.5t-67.5 -44t-85.5 -16q-40 0 -77 12.5t-70.5 33.5t-63.5 47.5t-56 54.5q-37 -32 -73.5 -59.5t-75.5 -47t-83 -30.5t-95 -11t-99.5 14.5t-86.5 43t-61.5 71.5t-23.5 99q0 65 29.5 120.5t75 101.5t101 82.5t108.5 63.5
q-25 51 -44.5 110t-19.5 116t20 103t55 78t83 49t104 17q42 0 79 -12t65 -35t44.5 -57t16.5 -78q0 -53 -23.5 -94.5t-60 -74t-80.5 -57.5t-84 -46q45 -82 94.5 -159.5t106.5 -151.5q21 26 44.5 57.5t42.5 66t31.5 71t12.5 71.5q0 15 -4.5 30t-13.5 27t-22.5 19.5t-31.5 7.5
v28h318v-28q-9 0 -21 -2t-25 -5t-25.5 -8.5t-22.5 -13.5q-12 -10 -26 -28t-27 -38.5t-24.5 -40.5t-19.5 -34q-34 -60 -71 -116t-80 -110q21 -23 46 -48t54 -45.5t60.5 -34t64.5 -13.5q57 0 91 28.5t48 82.5zM686 864q0 25 -8 48.5t-23.5 40.5t-37 27.5t-48.5 10.5
q-28 0 -52.5 -10.5t-42.5 -28.5t-28 -43t-10 -53q0 -26 6 -54.5t15 -56.5t20.5 -55t22.5 -51q35 16 68.5 37.5t59.5 49t42 62t16 76.5zM616 166q-65 88 -118.5 173t-104.5 181q-36 -20 -68.5 -45t-57.5 -56t-39.5 -68t-14.5 -81q0 -41 13.5 -78t38.5 -64.5t60 -43.5t78 -16
q30 0 58.5 8.5t55.5 22.5t52 31.5t47 35.5z" />
    <glyph glyph-name="quotesingle" unicode="'" horiz-adv-x="279" 
d="M215 965q0 -11 -4.5 -46t-15.5 -92l-41 -221h-33l-41 223q-3 16 -6 34.5t-5.5 36t-4 32t-1.5 22.5q0 47 18.5 68.5t53.5 21.5q20 0 34.5 -6t25.5 -18q20 -23 20 -55z" />
    <glyph glyph-name="parenleft" horiz-adv-x="514" 
d="M478 -332q-94 44 -170.5 116.5t-130.5 165t-83.5 200t-29.5 221.5q0 115 30 223t84.5 200t130.5 163.5t169 115.5v-31q-63 -34 -113 -92.5t-85 -141t-53.5 -187t-18.5 -230.5q0 -92 9 -191.5t37.5 -193t81.5 -174t142 -135.5v-29z" />
    <glyph glyph-name="parenright" horiz-adv-x="514" 
d="M452 369q0 -116 -31 -224.5t-86.5 -201t-132.5 -164t-168 -111.5v29q130 69 202 234.5t72 417.5q0 49 -2 108t-10.5 121.5t-26 127t-48 125.5t-76 115t-111.5 97v30q100 -50 177.5 -123.5t131 -164.5t81.5 -196.5t28 -219.5z" />
    <glyph glyph-name="parenleft.arab" unicode="(" horiz-adv-x="709" 
d="M428 -119q-38 48 -76.5 105t-69.5 131t-51 170t-20 221q0 120 23.5 217t56 171t67 124.5t56.5 79.5l35 -35q-13 -21 -36.5 -62t-46 -103t-39 -144.5t-16.5 -185.5q0 -86 10 -162.5t33 -148.5t59 -141t89 -138z" />
    <glyph glyph-name="parenright.arab" unicode=")" horiz-adv-x="707" 
d="M281 1100q38 -48 77.5 -104.5t71.5 -130.5t52 -170t20 -222q0 -120 -23.5 -217t-56.5 -170.5t-68 -125t-57 -79.5l-37 35q15 22 38.5 63.5t46 103.5t39 144.5t16.5 186.5q0 85 -10.5 161.5t-33.5 148t-60 140t-89 137.5z" />
    <glyph glyph-name="asterisk" horiz-adv-x="773" 
d="M664 886q0 -22 -13.5 -38t-35.5 -28t-49 -20.5t-54 -15.5t-51.5 -13t-39.5 -12q25 -11 65.5 -20t79.5 -22.5t67.5 -33t28.5 -50.5q0 -25 -16 -40t-40 -15q-25 0 -52 18.5t-54 43.5t-52 51.5t-45 41.5q0 -28 7 -54t15.5 -51t15.5 -50t7 -51q0 -30 -15.5 -55t-49.5 -25
q-14 0 -25 7t-18 18.5t-10.5 25t-3.5 26.5q0 25 5.5 51.5t13 53.5t16 54t13.5 51q-21 -15 -47 -41.5t-53.5 -52t-54 -44.5t-48.5 -19q-23 0 -42 14.5t-19 38.5q0 31 29.5 52t69.5 35.5t82 24t66 17.5q-16 9 -40 15.5t-51.5 13t-55 14.5t-50 19t-36.5 27t-14 39q0 25 15.5 40
t40.5 15q24 0 52.5 -18.5t56 -44t53 -51.5t45.5 -42q-3 23 -10.5 52t-15.5 57.5t-14.5 54t-6.5 42.5q0 30 15.5 55.5t49.5 25.5q14 0 25 -7.5t18 -19t10.5 -25t3.5 -26.5q0 -24 -5.5 -50.5t-13 -53.5t-15 -53.5t-11.5 -51.5q23 16 48.5 42t52 51t52.5 43t49 18
q22 0 40.5 -15.5t18.5 -38.5z" />
    <glyph glyph-name="asterisk.arab" unicode="*" horiz-adv-x="854" 
d="M406 705q43 -2 58 -29.5t15 -69.5q0 -24 -3.5 -51t-8 -53.5t-8 -50t-3.5 -41.5q0 -17 4.5 -27.5t16.5 -10.5q17 0 45 24.5t62 54t70.5 54t71.5 24.5q15 0 30 -7.5t27.5 -19.5t20.5 -27.5t8 -31.5q0 -26 -20.5 -47.5t-51.5 -39t-66.5 -31.5t-66.5 -26.5t-51.5 -22.5
t-20.5 -20t19.5 -18.5t49 -18.5t64 -21.5t64 -27.5t49 -38t19.5 -51q0 -24 -7.5 -40.5t-18.5 -27.5t-23.5 -16t-22.5 -5q-32 0 -70 24t-73.5 52.5t-64.5 52.5t-43 24q-10 0 -10 -18q0 -14 4 -36.5t8.5 -49.5t8.5 -57t4 -58q0 -23 -4 -44t-13 -37t-25 -25.5t-40 -9.5
q-26 0 -42.5 8.5t-26 23.5t-13.5 36t-4 46q0 27 3.5 55.5t8 55.5t8 50.5t3.5 39.5q0 27 -13 27q-9 0 -23 -12t-31.5 -29.5l-38 -38t-43 -38t-46.5 -29.5t-47 -12q-12 0 -26 5t-26 14t-20.5 21t-8.5 26q0 21 19 42.5t47.5 41.5t62 38t62 33.5t47.5 28.5t19 22q0 16 -19 27
t-47 20t-61 19t-61 24t-47 34t-19 51q0 18 5 35t14 29.5t21 20.5t26 8q21 0 45 -12t49 -30t49.5 -39t46 -39t38.5 -30t27 -12q12 0 12 21q0 16 -5.5 41.5t-12 55t-12 61t-5.5 60.5q0 41 17 68t64 27zM334 264q0 -16 6.5 -30.5t17.5 -26t25 -18.5t30 -7q15 0 28.5 6t24 16.5
t17 24.5t6.5 29q0 16 -6.5 31t-17 27t-25 19t-30.5 7q-15 0 -28.5 -6.5t-24 -17.5t-17 -25t-6.5 -29z" />
    <glyph glyph-name="plus" unicode="+" horiz-adv-x="983" 
d="M530 844v-330h330v-84h-330v-330h-84v330h-327v84h327v330h84z" />
    <glyph glyph-name="comma" unicode="," horiz-adv-x="387" 
d="M307 -8q0 -174 -223 -250v35q62 18 109 67q26 28 39.5 59.5t13.5 65.5q0 31 -17 31q-12 0 -32 -10q-11 -6 -19 -9.5t-14 -3.5q-80 0 -80 84q0 20 6.5 36t22.5 28q28 25 67 25q50 0 86 -39q41 -47 41 -119z" />
    <glyph glyph-name="hyphen" unicode="-" horiz-adv-x="514" 
d="M61 238v114h390v-114h-390z" />
    <glyph glyph-name="period" unicode="." horiz-adv-x="641" 
d="M364 66q0 -38 -25.5 -63.5t-63.5 -25.5q-18 0 -33.5 7t-27 19t-18.5 28t-7 35q0 18 7 33.5t18.5 27t27 18.5t33.5 7q19 0 35 -7t28 -18.5t19 -27t7 -33.5z" />
    <glyph glyph-name="period.test" horiz-adv-x="641" 
d="M31 968h580v-1318h-584zM364 66q0 18 -7 33.5t-19 27t-28 18.5t-35 7q-18 0 -33.5 -7t-27 -18.5t-18.5 -27t-7 -33.5q0 -19 7 -35t18.5 -28t27 -19t33.5 -7q38 0 63.5 25.5t25.5 63.5z" />
    <glyph glyph-name="slash" unicode="/" horiz-adv-x="543" 
d="M127 -260h-61l350 1503l63 2z" />
    <glyph glyph-name="zero" unicode="0" horiz-adv-x="772" 
d="M717 520q0 -51 -7 -110.5t-23 -119t-41.5 -115.5t-63 -98.5t-87.5 -68.5t-114 -26q-60 0 -108 25.5t-84 67.5t-61.5 96.5t-41.5 113t-23.5 116t-7.5 105.5q0 49 7.5 108t23.5 118.5t42 116t63 100t86 69.5t112 26q62 0 110.5 -25.5t85 -67t61.5 -96t41 -113t23 -116
t7 -106.5zM569 553q0 29 -1.5 73t-7.5 93.5t-18 98.5t-32 88.5t-50.5 64t-72.5 24.5q-44 0 -74.5 -29.5t-51 -76.5t-32.5 -105t-17.5 -114.5t-7 -105t-1.5 -77.5t1.5 -74t7.5 -95.5t17.5 -102t32 -92.5t50.5 -66.5t73 -25.5q46 0 77.5 30.5t52 79t31.5 108t16 117.5t6 108
t1 79z" />
    <glyph glyph-name="one" unicode="1" horiz-adv-x="772" 
d="M199 0v29q49 0 76 6.5t39.5 23.5t15 46.5t2.5 74.5v589q0 28 -1 55.5t-7 49t-18.5 35t-35.5 13.5q-20 0 -40 -7.5t-37 -15.5l-13 23l250 122h27v-864q0 -44 2 -73t14 -46.5t37.5 -24.5t73.5 -7v-29h-385z" />
    <glyph glyph-name="two" unicode="2" horiz-adv-x="772" 
d="M635 0h-600v29q42 39 94 87t105.5 103t104 115t90 122t63.5 125t24 124q0 44 -14 84.5t-40 71t-63 49t-84 18.5q-88 0 -142.5 -46t-82.5 -126h-27q8 61 29.5 114t57.5 91.5t87 60.5t117 22q58 0 110.5 -19.5t92.5 -55t64 -85t24 -110.5q0 -57 -20.5 -113.5t-52 -109.5
t-70 -102t-74.5 -89q-57 -64 -114.5 -126t-118.5 -119h266q48 0 80 1.5t55 9t42 24t42 47.5h29z" />
    <glyph glyph-name="three" unicode="3" horiz-adv-x="772" 
d="M645 338q0 -89 -32 -155.5t-87.5 -111t-129 -67t-156.5 -22.5q-20 0 -50.5 2t-58.5 10t-48 24t-20 45q0 23 19 38.5t41 15.5q24 0 48.5 -11t51 -24t55.5 -24t64 -11q40 0 75 16.5t60.5 44t40 63.5t14.5 75q0 67 -23 116t-63 80.5t-94 47t-116 16.5v24q46 6 87.5 25.5
t73.5 50.5t51 72.5t19 89.5q0 37 -12 68.5t-34 54.5t-53 36t-69 13q-65 0 -112.5 -35.5t-82.5 -89.5l-26 12q22 46 47 85.5t57 69t74 46t98 16.5q46 0 89 -13.5t76 -40t53 -65t20 -89.5q0 -35 -12.5 -67t-32 -61t-44 -54.5t-48.5 -47.5q93 -34 141.5 -101t48.5 -167z" />
    <glyph glyph-name="four" unicode="4" horiz-adv-x="772" 
d="M582 270v-270h-125v270h-432v95l475 679h82v-667h135v-107h-135zM457 885l-359 -508h359v508z" />
    <glyph glyph-name="five" unicode="5" horiz-adv-x="772" 
d="M612 893h-307l-69 -135q77 -8 152 -38.5t134 -80.5t95 -118t36 -152q0 -82 -33 -153t-88.5 -123t-128.5 -81.5t-153 -29.5q-23 0 -53.5 4t-57.5 14.5t-46 30t-19 51.5q0 29 15.5 42t43.5 13q23 0 45 -12t45.5 -27t50.5 -27t60 -12q47 0 87.5 18.5t70 50t46.5 73t17 88.5
q0 89 -41.5 151.5t-106.5 102.5t-144 59.5t-154 22.5l196 397h365z" />
    <glyph glyph-name="six" unicode="6" horiz-adv-x="772" 
d="M713 344q0 -69 -23 -134t-66 -116t-103 -81.5t-134 -30.5q-81 0 -141 39t-99.5 100t-59 135t-19.5 145q0 78 20 156t57 149.5t89.5 133t117 107t139.5 71.5t158 26h43v-28q-93 -6 -168.5 -44.5t-132.5 -100t-96 -139.5t-59 -163q49 34 104 55t115 21q62 0 110 -25.5
t81 -68t50 -96.5t17 -111zM578 262q0 46 -8.5 101.5t-30.5 103.5t-60.5 80.5t-97.5 32.5q-18 0 -39.5 -6.5t-42.5 -16t-41 -21t-35 -20.5q-5 -42 -9.5 -82.5t-4.5 -81.5q0 -29 5 -64.5t15 -72t26 -70.5t38 -61t51 -43t66 -16q46 0 78 23t52 58t29 76.5t9 79.5z" />
    <glyph glyph-name="seven" unicode="7" horiz-adv-x="772" 
d="M360 -23h-81l305 922h-281q-45 0 -77.5 -5t-58 -19t-46.5 -38t-43 -63l-21 6l99 242h544v-27z" />
    <glyph glyph-name="eight" unicode="8" horiz-adv-x="772" 
d="M684 242q0 -65 -24 -113.5t-65 -81t-95 -49t-113 -16.5q-54 0 -107 17t-95 49.5t-67.5 79t-25.5 105.5q0 45 19.5 86t49.5 76.5t66 65t70 53.5q-35 29 -69 59t-62 64t-45 74t-17 90q0 58 24 103.5t63.5 76.5t90.5 47t105 16q48 0 97 -13.5t88.5 -41.5t64.5 -69.5
t25 -96.5q0 -45 -20.5 -83t-51.5 -69.5t-68 -57t-71 -46.5q39 -31 80.5 -65t75 -73.5t55.5 -85.5t22 -101zM553 831q0 168 -166 168q-34 0 -65 -9.5t-55 -28.5t-38 -46.5t-14 -64.5q0 -42 20 -78.5t50.5 -67.5t65.5 -57.5t65 -50.5q28 27 53 51.5t44 51t29.5 58.5t10.5 74z
M575 180q0 49 -25.5 92.5t-62.5 81.5t-79 71t-76 62q-57 -49 -90 -111.5t-33 -139.5q0 -43 12 -81.5t35.5 -67t58.5 -45.5t82 -17q36 0 68 10t56.5 29.5t39 48.5t14.5 67z" />
    <glyph glyph-name="nine" unicode="9" horiz-adv-x="772" 
d="M705 623q0 -78 -20 -156t-57 -150t-89.5 -134t-116.5 -108t-139.5 -72t-157.5 -26h-43v29q92 2 167 40.5t132 101t96 141.5t60 162q-48 -32 -102.5 -55t-112.5 -23q-63 0 -111.5 25.5t-82 68.5t-50.5 97.5t-17 113.5q0 67 22 133t63.5 117.5t100.5 83.5t134 32
q81 0 141.5 -39.5t101 -100.5t61 -136t20.5 -145zM563 662q0 29 -4.5 65t-14 73t-25 72t-38 62.5t-52 44t-67.5 16.5q-47 0 -78.5 -23.5t-50.5 -58.5t-27.5 -77.5t-8.5 -79.5q0 -43 8 -98t29 -103.5t57 -81.5t92 -33q16 0 40 5t49 14t46 21t31 26q5 38 9.5 76.5t4.5 79.5z
" />
    <glyph glyph-name="colon" horiz-adv-x="431" 
d="M300 628q0 -19 -7.5 -34t-19 -25.5t-26.5 -16.5t-30 -6q-35 0 -60 23.5t-25 58.5q0 36 25 60t60 24q33 0 58 -24t25 -60zM300 64q0 -20 -7.5 -35.5t-19.5 -27t-27 -17.5t-31 -6t-31 6.5t-27 17.5t-19 27t-7 35q0 21 8 36.5t20 26t27 15.5t29 5t29 -5.5t27.5 -16.5
t20.5 -26.5t8 -34.5z" />
    <glyph glyph-name="colon.arab" unicode=":" horiz-adv-x="598" 
d="M299 186q15 0 31.5 -9t30.5 -23t23 -30.5t9 -31.5t-9 -31.5t-23 -30.5t-30.5 -23t-31.5 -9t-31.5 9t-30.5 23t-23 30.5t-9 31.5t9 31.5t23 30.5t30.5 23t31.5 9zM299 580q15 0 31.5 -9.5t30.5 -24t23 -31t9 -30.5q0 -15 -9 -31.5t-23 -30.5t-30.5 -23t-31.5 -9t-31.5 9
t-30.5 23t-23 30.5t-9 31.5q0 14 9 30.5t23 31t30.5 24t31.5 9.5z" />
    <glyph glyph-name="semicolon" unicode=";" horiz-adv-x="430" 
d="M319 629q0 -35 -24 -60q-14 -11 -28 -16.5t-31 -5.5q-35 0 -60 24q-24 25 -24 58q0 38 24 59q25 25 60 25t59 -25q24 -21 24 -59zM354 -8q0 -174 -225 -250v35q63 18 111 67q51 55 51 125q0 31 -17 31q-6 0 -13.5 -2.5t-18.5 -7.5q-11 -6 -19 -9.5t-14 -3.5q-80 0 -80 84
q0 40 29 64q31 25 69 25q48 0 84 -39q43 -46 43 -119z" />
    <glyph glyph-name="less" unicode="&#x3c;" horiz-adv-x="770" 
d="M561 51l-420 420l420 422h68l-420 -422l420 -420h-68z" />
    <glyph glyph-name="equal" unicode="=" horiz-adv-x="983" 
d="M942 559h-876v100h876v-100zM942 285h-876v100h876v-100z" />
    <glyph glyph-name="greater" unicode="&#x3e;" horiz-adv-x="770" 
d="M209 51h-68l420 420l-420 422h68l420 -422z" />
    <glyph glyph-name="question" unicode="?" horiz-adv-x="686" 
d="M625 807q0 -57 -20 -102.5t-50.5 -86.5t-66.5 -80t-67.5 -83t-53.5 -96.5t-25 -118.5h-31q3 91 30 172.5t73 159.5q30 51 49.5 107t19.5 118q0 40 -10.5 77t-32 66t-54 46.5t-77.5 17.5q-21 0 -46 -5.5t-46.5 -17.5t-36 -31t-14.5 -45q0 -15 7.5 -33t16 -35.5t16 -34
t7.5 -28.5q0 -25 -16.5 -44t-42.5 -19q-23 0 -38.5 11.5t-26 29t-15 38.5t-4.5 39q0 56 24 96.5t62.5 67t87 39t98.5 12.5q55 0 106 -14t90.5 -43t63 -74t23.5 -106zM416 63q0 -35 -24.5 -59t-59.5 -24t-60.5 23t-25.5 60q0 18 7 34t19 27.5t27.5 18.5t32.5 7
q35 0 59.5 -25.5t24.5 -61.5z" />
    <glyph glyph-name="at" unicode="@" horiz-adv-x="1423" 
d="M1384 129q-29 -107 -95 -192.5t-154.5 -145.5t-193 -92.5t-210.5 -32.5q-144 0 -264.5 51.5t-207.5 141.5t-136 212.5t-49 264.5q0 153 53 286.5t147.5 233.5t225 157.5t286.5 57.5q118 0 217 -35.5t170.5 -102t111.5 -162t40 -216.5q0 -61 -11.5 -123.5t-34.5 -121.5
t-58 -111t-81 -90.5t-104 -61t-127 -22.5q-55 0 -84.5 26t-29.5 82q0 26 3.5 52.5t8.5 52.5q-24 -29 -58 -65.5t-74 -69.5t-82.5 -55.5t-82.5 -22.5q-35 0 -60.5 15.5t-42 40.5t-24.5 55.5t-8 60.5q0 49 15.5 107.5t43.5 117t66.5 114t84 98t97.5 68t106 25.5
q109 0 132 -104l22 82l119 18q-4 -12 -17 -55.5t-30.5 -103t-37 -127.5t-36 -129.5t-27 -109t-10.5 -65.5q0 -23 17.5 -39t40.5 -16q32 0 61 11t54.5 29.5t47.5 42t41 47.5q60 78 86.5 171t26.5 190q0 107 -37.5 193t-103 146.5t-154.5 93t-192 32.5q-99 0 -186 -27.5
t-159 -76t-128.5 -116t-95 -147.5t-59 -169.5t-20.5 -182.5q0 -133 42.5 -243.5t120 -190t186.5 -124t243 -44.5q106 0 198.5 29.5t169 83.5t136.5 131t102 172h43zM891 569q0 24 -4 46t-14.5 39.5t-29 27.5t-46.5 10q-37 0 -74.5 -25.5t-71 -67t-62.5 -93t-50 -104
t-33 -100.5t-12 -81q0 -18 5.5 -37t16.5 -34.5t27 -25t37 -9.5q42 0 81.5 23.5t74 62t63 87.5t49 99.5t32 98t11.5 83.5z" />
    <glyph glyph-name="A" unicode="A" horiz-adv-x="1110" 
d="M694 0v29q17 0 35 2.5t33 9.5t25 19.5t10 33.5q0 20 -12 56t-27 74t-30 71t-21 47h-396q-4 -8 -12.5 -26.5t-19.5 -42t-22 -49.5t-20.5 -51t-15.5 -46t-6 -33q0 -20 13 -32.5t32 -19.5t39 -9.5t35 -3.5v-29h-322v29q36 1 62 17t45.5 41t33.5 55.5t27 60.5l361 841h26
l355 -847q15 -35 28.5 -64.5t32.5 -52t46 -36t69 -15.5v-29h-404zM512 813l-178 -416h352z" />
    <glyph glyph-name="B" unicode="B" horiz-adv-x="1004" 
d="M944 279q0 -60 -19 -104.5t-52 -75.5t-76.5 -50.5t-92 -30t-99 -14.5t-97.5 -4h-481v29q48 0 76.5 6.5t43.5 23t20 46t5 75.5v662q0 48 -4 77.5t-19 46.5t-44 23t-78 6v27h440q46 0 96.5 -4t98.5 -14.5t91 -29.5t75.5 -49.5t51.5 -74t19 -102.5q0 -43 -14.5 -79
t-39.5 -64.5t-59 -49.5t-73 -33q51 -9 93 -27.5t73 -48t48 -71t17 -96.5zM739 756q0 60 -25.5 101t-66 66.5t-91 36.5t-101.5 11q-35 0 -69.5 -3.5t-68.5 -11.5v-393q36 -8 72.5 -9t71.5 -1q53 0 103 8.5t89 31.5t62.5 62t23.5 101zM770 268q0 66 -29 110.5t-74.5 71.5
t-102.5 38.5t-113 11.5q-32 0 -65 -0.5t-69 -5.5v-420q44 -10 87 -15.5t88 -5.5q51 0 100.5 11.5t89 37t64 66.5t24.5 100z" />
    <glyph glyph-name="C" unicode="C" horiz-adv-x="1030" 
d="M975 240q-69 -125 -173.5 -195t-248.5 -70q-114 0 -206 40t-157 110t-100 165t-35 206q0 114 37.5 213.5t106 174t164 117.5t212.5 43q39 0 72.5 -5.5t65 -14.5t62 -21.5t65.5 -27.5q15 0 26 7t18 17t11.5 22t7.5 23h27l22 -346h-22q-19 64 -48.5 117.5t-71 92.5t-97 61
t-125.5 22t-123.5 -20.5t-94 -56.5t-68 -84t-44 -103.5t-24 -115t-7.5 -117.5q0 -92 22 -173.5t68.5 -143.5t119 -98t173.5 -36q64 0 112.5 15t88 42.5t73 67t68.5 88.5z" />
    <glyph glyph-name="D" unicode="D" horiz-adv-x="1114" 
d="M1055 516q0 -130 -43.5 -226.5t-120 -161t-181 -96.5t-227.5 -32h-456v29q48 0 76.5 6t43.5 22.5t20 46t5 76.5v662q0 48 -4 78t-19 46.5t-44 22.5t-78 6v27h415q129 0 241 -24t194.5 -82.5t130 -155.5t47.5 -244zM885 510q0 94 -26.5 177t-79 145t-129.5 97.5t-177 35.5
q-40 0 -78.5 -6t-77.5 -17v-868q36 -10 78 -16.5t82 -6.5q100 0 176 36.5t127.5 99t78 146t26.5 177.5z" />
    <glyph glyph-name="E" unicode="E" horiz-adv-x="942" 
d="M819 0h-786v29q48 0 76.5 6t43.5 22.5t20 46t5 76.5v666q0 48 -4 77t-19 45t-44 21.5t-78 5.5v27h786l12 -223h-28q-13 49 -24.5 81.5t-31 51.5t-53 27t-90.5 8h-282v-404h225q47 0 75.5 6.5t46 23t26 45t14.5 73.5h28v-357h-28q-6 45 -14.5 74t-25.5 46.5t-45.5 24.5
t-76.5 7h-225v-336q0 -28 1.5 -49.5t9.5 -36t25.5 -22t49.5 -7.5h172q67 0 110 11t74.5 35t56.5 62.5t56 92.5h32z" />
    <glyph glyph-name="F" unicode="F" horiz-adv-x="858" 
d="M770 799q-15 50 -33 82.5t-44 51.5t-62.5 26.5t-87.5 7.5h-228v-402h187q37 0 61 9t38.5 27t21.5 44t12 60h29v-347h-29q0 73 -28.5 108.5t-104.5 35.5h-187v-322q0 -47 4.5 -76.5t20 -46t45 -22.5t78.5 -6v-29h-438v29q49 0 78 6.5t44 23t19 46t4 75.5v662
q0 46 -4.5 75.5t-19.5 47t-44 24t-77 6.5v27h761l11 -223h-27z" />
    <glyph glyph-name="G" unicode="G" horiz-adv-x="1114" 
d="M1094 530q-42 0 -65 -10t-34 -29t-13.5 -47t-2.5 -63v-313q-82 -48 -173.5 -70.5t-187.5 -22.5q-117 0 -220 35t-179.5 101.5t-121 163.5t-44.5 221q0 114 41.5 214t114.5 174.5t172.5 117t214.5 42.5q50 0 98.5 -7.5t96.5 -24.5q1 0 15.5 -5t31 -10.5t30.5 -10.5t15 -5
q10 0 17.5 7.5t12 17.5t6.5 20.5t3 17.5h26l27 -321h-27q-20 61 -50 111t-71 85.5t-95 54.5t-122 19q-100 0 -172 -39t-119 -104t-69.5 -149t-22.5 -173t23.5 -178t72 -160.5t122.5 -116t176 -44.5q55 0 108.5 13.5t101.5 41.5v297q0 42 -4 70t-18 45t-40 24.5t-71 9.5v27
h396v-27z" />
    <glyph glyph-name="H" unicode="H" horiz-adv-x="1114" 
d="M645 0v29q48 0 77.5 6.5t45 23t20.5 46t5 75.5v314h-478v-314q0 -47 5 -76.5t21 -46t45.5 -22.5t78.5 -6v-29h-438v29q49 0 78 6t44 22.5t19 46t4 76.5v662q0 47 -4.5 76.5t-19.5 46.5t-44 23.5t-77 6.5v27h438v-27q-48 0 -77 -6.5t-45.5 -23.5t-22 -46.5t-5.5 -76.5
v-293h478v293q0 47 -5 76.5t-20.5 46.5t-45 23.5t-77.5 6.5v27h438v-27q-45 0 -73.5 -5.5t-44 -21t-21.5 -43t-6 -71.5v-684q0 -46 6 -74t21.5 -43t44 -19.5t73.5 -4.5v-29h-438z" />
    <glyph glyph-name="I" unicode="I" horiz-adv-x="514" 
d="M39 0v29q49 0 78 6.5t44 23t19 46t4 75.5v662q0 47 -4 76.5t-19 46.5t-44 23.5t-78 6.5v27h438v-27q-48 0 -77 -6.5t-44.5 -23.5t-20.5 -46.5t-5 -76.5v-662q0 -46 4.5 -75.5t19.5 -46t44 -23t79 -6.5v-29h-438z" />
    <glyph glyph-name="J" unicode="J" horiz-adv-x="602" 
d="M592 995q-49 0 -78 -6.5t-44 -23.5t-19.5 -46.5t-4.5 -76.5v-500q0 -64 -12 -129t-42 -118t-80.5 -86.5t-127.5 -33.5q-26 0 -53 6.5t-48.5 21t-35.5 36.5t-14 53q0 78 76 78q31 0 49 -21.5t31 -48t25 -48t32 -21.5t31 12.5t16.5 30t6.5 36.5t1 33v699q0 46 -4.5 75.5
t-19.5 47t-44 24t-79 6.5v27h438v-27z" />
    <glyph glyph-name="K" unicode="K" horiz-adv-x="1114" 
d="M641 0v29q13 0 28 2t27.5 7.5t20.5 15.5t8 26q0 8 -6.5 19.5t-16 23t-19 21.5t-15.5 16l-308 307l-45 -45v-242q0 -47 4.5 -76.5t20 -46t44.5 -22.5t77 -6v-29h-434v29q49 0 77.5 6t43 22.5t18.5 46t4 76.5v662q0 46 -4 75.5t-18.5 47t-43 24t-77.5 6.5v27h434v-27
q-47 0 -75.5 -6.5t-44.5 -23.5t-21 -46.5t-5 -76.5v-322q19 16 55.5 48.5t80.5 73.5t90 86.5t84 88.5t62 78.5t24 56.5q0 16 -5.5 25t-17 13t-29 4.5t-41.5 0.5v27h377v-27q-55 0 -109 -31t-103.5 -74t-91.5 -89.5t-73 -77.5l-157 -156l379 -374q34 -34 65.5 -62t65 -49
t71.5 -35t86 -18v-29h-487z" />
    <glyph glyph-name="L" unicode="L" horiz-adv-x="942" 
d="M823 0h-794v29q36 0 64 4.5t46.5 18t28.5 38.5t10 66v710q0 40 -10 65t-28.5 38.5t-46.5 18.5t-64 5v29h444v-29q-37 0 -65 -5t-47 -18.5t-29 -38.5t-10 -65v-673q0 -38 6 -62.5t20.5 -39t39.5 -20t63 -5.5h102q74 0 124 8.5t86.5 32t64.5 66t57 110.5l26 -4z" />
    <glyph glyph-name="M" unicode="M" horiz-adv-x="1374" 
d="M905 0v29q48 0 76.5 6t44 22.5t20.5 45.5t5 75v682l-396 -860h-24l-395 860v-682q0 -47 5 -76t20 -45.5t43.5 -22t76.5 -5.5v-29h-354v29q48 0 76 6t43 22.5t19.5 45.5t4.5 75v668q0 41 -6.5 69.5t-22.5 46t-43.5 25.5t-70.5 8v27h288l371 -799l365 799h290v-27
q-48 0 -77 -6t-44 -22.5t-19.5 -45.5t-4.5 -75v-668q0 -47 5 -76t20 -45.5t43.5 -22t76.5 -5.5v-29h-436z" />
    <glyph glyph-name="N" unicode="N" horiz-adv-x="1114" 
d="M1094 995q-48 0 -77 -6t-44.5 -22.5t-20 -45.5t-4.5 -75v-862h-26l-676 823v-629q0 -48 4.5 -77t19.5 -45t44 -21.5t77 -5.5v-29h-356v29q48 0 76.5 6t43.5 22.5t20 45.5t5 75v711q-19 26 -35.5 45.5t-35 33t-43 20.5t-58.5 7v27h250l625 -766v590q0 46 -5 75t-20.5 45.5
t-44 22.5t-76.5 6v27h357v-27z" />
    <glyph glyph-name="O" unicode="O" horiz-adv-x="1114" 
d="M1055 516q0 -109 -36 -207t-101.5 -172.5t-158 -118t-206.5 -43.5t-206.5 43t-158 116.5t-100.5 171.5t-35 208q0 111 37.5 207.5t105.5 168t162 113t207 41.5q111 0 201 -42.5t154.5 -115t99.5 -168.5t35 -202zM883 506q0 56 -5.5 114t-19.5 112t-38 101t-61 82
t-89 55.5t-121 20.5q-64 0 -112.5 -20.5t-84.5 -55.5t-60 -82t-38.5 -99.5t-20.5 -108t-6 -107.5q0 -51 6 -107t21 -110t39 -103t60 -86t85 -59t113 -22q67 0 117.5 20t87.5 54.5t61.5 81t39 99t20.5 109t6 111.5z" />
    <glyph glyph-name="P" unicode="P" horiz-adv-x="858" 
d="M805 739q0 -83 -28.5 -137.5t-77.5 -86.5t-114.5 -45t-138.5 -13q-32 0 -63.5 1t-67.5 7v-285q0 -47 5.5 -76.5t21 -46t44.5 -22.5t77 -6v-29h-436v29q48 0 76.5 6t43.5 22.5t19 46t4 76.5v662q0 48 -4 77.5t-18.5 46.5t-43 23t-77.5 6v27h372q69 0 141.5 -12t131 -43.5
t96 -86.5t37.5 -141zM633 725q0 49 -14.5 92.5t-42 75.5t-68 51t-92.5 19q-25 0 -50.5 -5t-50.5 -10v-432q31 -5 62 -7.5t63 -2.5q45 0 80.5 18.5t60.5 49t38.5 70t13.5 81.5z" />
    <glyph glyph-name="Q" unicode="Q" horiz-adv-x="1114" 
d="M1055 510q0 -91 -26 -173.5t-74.5 -150.5t-118 -118.5t-156.5 -77.5q31 -53 69 -99.5t83.5 -82.5t100 -58.5t118.5 -28.5v-24q-83 4 -171 27.5t-172 62t-158.5 90.5t-129.5 113q-186 65 -276.5 195.5t-90.5 326.5q0 111 37 208t104.5 169t161 113.5t207.5 41.5
q112 0 203 -43t155 -116.5t99 -170t35 -204.5zM883 492q0 54 -6 111.5t-20.5 113t-39 105t-61 86.5t-87 59t-116.5 22t-115.5 -20.5t-85.5 -56t-60 -82.5t-38.5 -100t-20.5 -109t-6 -109q0 -52 6 -108t21 -109.5t39.5 -101.5t60.5 -84.5t85 -58t114 -21.5q97 0 161 42
t101.5 108.5t52.5 149t15 163.5z" />
    <glyph glyph-name="R" unicode="R" horiz-adv-x="1030" 
d="M770 0l-346 477q-17 -2 -35.5 -2h-37.5q-9 0 -18 0.5t-18 1.5v-297q0 -47 5.5 -76.5t21.5 -46t45.5 -22.5t77.5 -6v-29h-438v29q49 0 78 6t44 22.5t19 46t4 76.5v662q0 48 -4 77.5t-19 46.5t-44 23t-78 6v27h385q44 0 92 -3t93.5 -13t86.5 -27.5t72 -47t49 -71.5t18 -100
q0 -59 -19 -103t-52.5 -75.5t-79.5 -52t-99 -31.5l209 -295q28 -39 54 -69t56 -52t66.5 -35.5t85.5 -17.5v-29h-274zM655 748q0 49 -16 89t-45.5 68.5t-70 44t-89.5 15.5q-29 0 -58.5 -4t-60.5 -9v-426h43q55 0 108 11t95 36.5t68 68t26 106.5z" />
    <glyph glyph-name="S" unicode="S" horiz-adv-x="858" 
d="M776 262q0 -67 -27 -120t-71.5 -90t-102.5 -57t-120 -20q-41 0 -82 9.5t-77.5 20.5t-66.5 20.5t-49 9.5q-12 0 -20.5 -5.5t-14 -14.5t-8.5 -19.5t-4 -20.5h-27v353h27q8 -65 31 -119t61 -92.5t91.5 -60t121.5 -21.5q37 0 73.5 10.5t65 31.5t46.5 52.5t18 73.5
q0 44 -23.5 79.5t-61.5 66t-87 58t-99.5 55.5t-99.5 59t-87 68.5t-61.5 83t-23.5 103.5q0 63 24.5 112.5t65.5 84t94.5 53t112.5 18.5q34 0 69 -9t66.5 -19.5t57.5 -19.5t43 -9q12 0 20 6t14 14.5t9.5 18.5t5.5 18h29v-352h-29q-5 60 -26 113.5t-56.5 93t-86 63t-114.5 23.5
q-34 0 -66 -11t-57.5 -31.5t-41 -49t-15.5 -64.5q0 -42 24 -76t63.5 -63t89.5 -55.5t102.5 -54t102.5 -58.5t89.5 -69t63.5 -84.5t24 -106.5z" />
    <glyph glyph-name="T" unicode="T" horiz-adv-x="940" 
d="M872 782q-9 87 -53 131.5t-135 44.5h-143v-780q0 -47 4 -76t19 -45.5t43.5 -22t76.5 -5.5v-29h-432v29q48 0 76 6t43 22.5t19.5 45.5t4.5 75v780h-123q-48 0 -84 -8.5t-60.5 -28.5t-38 -54t-17.5 -85h-35l10 240h848l10 -240h-33z" />
    <glyph glyph-name="U" unicode="U" horiz-adv-x="1114" 
d="M1100 995q-46 0 -75 -8.5t-45 -27t-22 -49t-6 -74.5v-416q0 -105 -19.5 -187.5t-65 -139.5t-121.5 -87.5t-189 -30.5q-125 0 -203.5 31t-122.5 90.5t-59.5 146t-15.5 197.5v402q0 42 -4 71t-17.5 47.5t-40 26.5t-71.5 8v27h411v-27q-44 0 -70 -8t-40 -26.5t-18.5 -47.5
t-4.5 -71v-447q0 -71 9.5 -135.5t38 -113t81 -77t137.5 -28.5q69 0 132 22t114 70q25 23 39 60.5t21 79t8.5 82.5t1.5 73v414q0 48 -4.5 77.5t-20 46.5t-44.5 23t-77 6v27h363v-27z" />
    <glyph glyph-name="V" unicode="V" horiz-adv-x="1114" 
d="M1096 995q-32 -5 -56 -18t-42 -32t-31 -43.5t-25 -53.5l-356 -873h-27l-383 883q-14 32 -27 56t-30.5 41t-42.5 26.5t-62 13.5v27h416v-27q-16 -1 -35.5 -4t-37 -10.5t-29 -21t-11.5 -35.5q0 -28 10 -55t25 -62l260 -598l242 594q4 10 10.5 25.5t11.5 32t9 32t4 27.5
q0 20 -11.5 33t-28 21.5t-35.5 13t-34 7.5v27h316v-27z" />
    <glyph glyph-name="W" unicode="W" horiz-adv-x="1458" 
d="M1444 995q-40 0 -66 -19t-43.5 -47.5t-28.5 -62t-22 -63.5l-283 -828h-32l-232 654l-231 -654h-29l-301 850q-12 33 -22.5 63.5t-26.5 54.5t-40.5 38t-66.5 14v27h377v-27q-15 0 -32.5 -2t-32 -8t-24 -18t-9.5 -33q0 -12 3.5 -28t9 -33t11 -33t9.5 -27l200 -575l170 489
q-11 37 -25 83.5t-36 87.5t-54.5 69t-80.5 28v27h399v-27q-19 0 -38.5 -1t-35 -7.5t-25 -20t-9.5 -38.5q0 -31 10.5 -68.5t21.5 -64.5l197 -557l195 565q4 12 9 28t9.5 33t8 33.5t3.5 28.5q0 22 -10.5 35.5t-27 21t-35.5 10t-37 2.5v27h303v-27z" />
    <glyph glyph-name="X" unicode="X" horiz-adv-x="1114" 
d="M657 0v29q14 0 32 1.5t33.5 7.5t26.5 17.5t11 30.5q0 12 -16 42.5t-40 70t-52.5 82.5t-53 80t-42 62t-19.5 28l-215 -275q-6 -8 -14 -19t-15 -23t-12 -24.5t-5 -23.5q0 -18 10 -29.5t25 -17.5t32 -8t32 -2v-29h-365v29q39 1 75 17t68 40t59.5 53t49.5 58l244 307
l-203 295q-27 39 -53.5 73.5t-58 60.5t-69.5 42.5t-89 19.5v27h473v-27q-14 -1 -32.5 -3.5t-35 -8.5t-28 -17.5t-11.5 -29.5q0 -14 13 -40.5t32.5 -59t43 -67.5t45 -65.5t38 -53t21.5 -29.5q4 5 23 27t44.5 53t54 67t52.5 69.5t39.5 61t15.5 41.5q0 18 -12.5 29t-30.5 16.5
t-36.5 7t-30.5 2.5v27h362v-27q-45 -3 -78.5 -17.5t-60.5 -37.5t-50.5 -52.5t-49.5 -62.5l-205 -258l221 -327q23 -35 47 -71t53 -66t64.5 -50.5t81.5 -23.5v-29h-439z" />
    <glyph glyph-name="Y" unicode="Y" horiz-adv-x="1114" 
d="M1094 995q-45 0 -77 -15t-57.5 -39t-46 -55.5t-41.5 -64.5l-247 -387v-256q0 -47 5 -76t20 -45.5t43.5 -22t76.5 -5.5v-29h-434v29q48 0 76 6t42.5 22.5t18.5 45.5t4 75v242l-278 428q-16 25 -34.5 51t-40.5 47.5t-49 35t-61 13.5v27h437v-27q-16 0 -36.5 -2t-38.5 -8.5
t-30 -20t-12 -36.5q0 -15 18.5 -51.5t47 -83t61.5 -97t61.5 -93t48 -71.5t21.5 -32l203 315q6 10 14 23.5t14.5 28t11.5 29t5 26.5q0 21 -10 35t-25 22.5t-33 12t-35 3.5v27h357v-27z" />
    <glyph glyph-name="Z" unicode="Z" horiz-adv-x="942" 
d="M852 0h-832v29l654 934h-326q-57 0 -93.5 -10.5t-59 -33.5t-35 -61t-21.5 -92h-28l22 256h756l-672 -961h418q58 0 97.5 14.5t66 42t44.5 67t34 89.5l22 -4z" />
    <glyph glyph-name="bracketleft" unicode="[" horiz-adv-x="690" 
d="M469 -242l-276 41v1248l276 40l14 -79l-188 -29v-1110l188 -31z" />
    <glyph glyph-name="backslash" unicode="\" horiz-adv-x="430" 
d="M373 -23l-371 1094h66l366 -1094h-61z" />
    <glyph glyph-name="bracketright" unicode="]" horiz-adv-x="690" 
d="M207 -246l-19 78l193 31v1112l-193 31l19 79l276 -41v-1249z" />
    <glyph glyph-name="asciicircum" unicode="^" horiz-adv-x="1485" 
d="M1038 14l-295 797l-297 -797h-92l342 891h92l342 -891h-92z" />
    <glyph glyph-name="underscore" unicode="_" horiz-adv-x="743" 
d="M0 -174v55h743v-55h-743z" />
    <glyph glyph-name="grave" unicode="`" horiz-adv-x="580" 
d="M379 786l-221 140q-68 42 -68 67q0 58 47 58q40 0 90 -50l215 -215h-63z" />
    <glyph glyph-name="a" unicode="a" horiz-adv-x="686" 
d="M684 100q-14 -19 -31.5 -39.5t-38 -37t-44.5 -27t-50 -10.5q-24 0 -39.5 10t-24.5 26.5t-12.5 36.5t-3.5 41l-50 -40t-52 -36.5t-56 -27t-63 -10.5q-39 0 -69.5 13.5t-51.5 37.5t-32 56.5t-11 70.5q0 42 19.5 77t51.5 64t73 52.5t84 42t84 32.5t73 25v28q0 35 -4.5 67.5
t-18.5 58t-39 40.5t-67 15q-35 0 -55 -9.5t-30.5 -27t-13.5 -41t-3 -51.5q0 -34 -13 -53t-51 -19q-35 0 -49 20t-14 52q0 47 25 80t62.5 54t81.5 30.5t83 9.5q65 0 109.5 -12.5t71.5 -41t38.5 -73.5t11.5 -109v-235q0 -29 -0.5 -61t4.5 -60q3 -14 9.5 -25.5t23.5 -11.5
q9 0 20.5 7.5t23.5 17.5t22.5 20.5l15.5 15.5v-43zM440 414q-35 -14 -79.5 -32.5t-84 -44t-67 -59.5t-27.5 -79q0 -23 7 -45t21 -40t33.5 -29t45.5 -11q20 0 40 7t39.5 18.5t38 25t33.5 25.5v264z" />
    <glyph glyph-name="b" unicode="b" horiz-adv-x="772" 
d="M719 373q0 -76 -25.5 -147.5t-72 -126.5t-112.5 -88.5t-147 -33.5q-69 0 -132.5 26t-118.5 65v712q0 18 1.5 50t-1.5 64t-15 55.5t-39 23.5q-14 0 -26.5 -3.5t-26.5 -6.5l-10 26l209 82h35v-500q19 27 42.5 52t50.5 44.5t58 31.5t66 12q68 0 118 -30.5t82.5 -79
t48 -108.5t15.5 -120zM588 330q0 43 -10 91.5t-33.5 89t-60.5 67t-91 26.5q-22 0 -43.5 -7t-41 -18.5t-37.5 -25.5t-33 -29v-413q32 -34 73.5 -55t89.5 -21q53 0 89 30t57.5 75t31 96.5t9.5 93.5z" />
    <glyph glyph-name="c" unicode="c" horiz-adv-x="686" 
d="M635 262q-9 -54 -33 -105t-61.5 -91t-87 -64.5t-107.5 -24.5q-75 0 -130.5 32.5t-92 85t-54.5 118t-18 131.5q0 72 23 138.5t66 117.5t104 81t137 30q34 0 75.5 -10.5t76.5 -31.5t59 -52t24 -72q0 -34 -19.5 -49t-51.5 -15q-34 0 -50 13.5t-23 33.5t-10 43.5t-12.5 43.5
t-30.5 33.5t-63 13.5q-50 0 -84.5 -23.5t-55.5 -60.5t-30.5 -81.5t-9.5 -86.5q0 -51 12 -106t39 -101t69.5 -75.5t102.5 -29.5q42 0 75 14t58.5 38t45 55.5t34.5 66.5z" />
    <glyph glyph-name="d" unicode="d" horiz-adv-x="772" 
d="M569 -23h-32v101q-42 -44 -92.5 -72.5t-110.5 -28.5q-68 0 -120.5 30t-88.5 78.5t-55 109t-19 120.5q0 72 23 142.5t66.5 127t106 91.5t140.5 35q42 0 80.5 -13.5t69.5 -44.5v144q0 16 1 45.5t-2.5 58.5t-15.5 50.5t-37 21.5q-14 0 -26.5 -2.5t-26.5 -7.5l-10 26l209 82
h33v-799q0 -11 -1 -30t-1 -40.5t2 -43.5t8 -40t17 -29t30 -11q12 0 25.5 3.5t27.5 8.5l8 -27zM537 487q0 32 -12 64t-33.5 57.5t-51 41.5t-63.5 16q-54 0 -90 -29t-57.5 -72.5t-30.5 -94t-9 -93.5q0 -48 11 -103t35.5 -102.5t65 -79t99.5 -31.5q41 0 75.5 20.5t60.5 49.5
v356z" />
    <glyph glyph-name="e" unicode="e" horiz-adv-x="686" 
d="M641 252q-8 -54 -31.5 -103.5t-60.5 -87.5t-85.5 -61t-105.5 -23q-74 0 -130.5 31t-94.5 82t-57 115.5t-19 132.5q0 75 19.5 142.5t59 118.5t100 81.5t141.5 30.5q62 0 111 -21t83 -58.5t52 -89t18 -112.5h-477q0 -56 15 -114t46 -105.5t78.5 -78t112.5 -30.5
q40 0 71.5 12.5t56 35t42.5 53t32 65.5zM483 473q0 34 -8.5 67.5t-27 59t-46.5 41.5t-67 16t-69 -15.5t-51.5 -41t-34 -59t-15.5 -68.5h319z" />
    <glyph glyph-name="f" unicode="f" horiz-adv-x="514" 
d="M672 942q0 -11 -5.5 -22t-14 -19.5t-19.5 -14t-23 -5.5q-25 0 -44 21t-39 46.5t-44.5 46.5t-60.5 21q-31 0 -50.5 -15t-31.5 -39t-17 -54t-6.5 -61t-0.5 -59.5t1 -48.5v-49h179v-55h-179v-453q0 -52 5.5 -82.5t22.5 -46t48.5 -20t83.5 -4.5v-29h-416v29q45 0 71 8.5
t39.5 27t17.5 47.5t4 70v453h-136v55h136v47q0 66 18 126.5t54 106.5t90 73.5t126 27.5q25 0 58.5 -8.5t62.5 -25t49.5 -40.5t20.5 -55z" />
    <glyph glyph-name="g" unicode="g" horiz-adv-x="772" 
d="M743 629q0 -22 -15.5 -30t-37 -9t-45 1.5t-39.5 2.5q22 -29 31.5 -65.5t9.5 -71.5q0 -58 -22.5 -101.5t-60.5 -73t-87 -44.5t-102 -15q-26 0 -52.5 3.5t-52.5 11.5q-20 -16 -38.5 -37t-18.5 -47q0 -23 22.5 -33t59 -14t83.5 -4t96 -2t96 -9t83.5 -24.5t59 -48.5t22.5 -82
q0 -46 -18 -84t-48 -68.5t-69.5 -52.5t-82.5 -37t-87 -22t-82 -7q-19 0 -49.5 3.5t-64 11t-67.5 19t-61 27.5t-44 36.5t-17 46.5q0 21 16.5 49.5t39 56t46 52t37.5 38.5q-10 6 -22 15t-23 20t-18.5 23.5t-7.5 25.5q0 21 13 44.5t32 45.5t39.5 41t35.5 31q-30 14 -54.5 36
t-41.5 49.5t-26 59t-9 64.5q0 58 22.5 104.5t60.5 78.5t87.5 49.5t104.5 17.5q33 0 64.5 -8.5t62.5 -18.5t62 -18.5t63 -8.5q20 0 40 2.5t40 2.5t27 -4t7 -29zM514 436q0 35 -6.5 76.5t-23.5 77.5t-46 60t-73 24q-38 0 -63.5 -16.5t-40.5 -42t-21.5 -58t-6.5 -63.5
q0 -36 6.5 -77t24 -76t47 -58t74.5 -23q39 0 64 15t39.5 40t20 56.5t5.5 64.5zM680 -92q0 15 -6.5 26t-17 18.5t-24 12.5t-26.5 8q-29 7 -79 11t-105.5 6.5t-108.5 4.5t-88 5q-11 -12 -23 -27.5t-23 -33t-18 -36t-7 -36.5q0 -23 15 -40t38.5 -29t53 -20t58.5 -12.5t54.5 -6
t42.5 -1.5q34 0 79.5 6.5t86.5 23.5t69.5 46t28.5 74z" />
    <glyph glyph-name="h" unicode="h" horiz-adv-x="772" 
d="M424 0v29q34 0 55.5 5t34 17.5t17 34t4.5 55.5v271q0 31 -1 67.5t-11 67t-33 51t-66 20.5q-26 0 -50 -8.5t-46 -22t-41 -31.5t-35 -36v-379q0 -35 3.5 -56.5t15.5 -34t33.5 -17t57.5 -4.5v-29h-342v29q33 0 54 5.5t33 19t16 34.5t4 53v729q0 12 -1.5 30t-6.5 34.5
t-15 28.5t-28 12q-14 0 -28 -3.5t-28 -8.5l-12 26l209 82h35v-504q20 30 44 56t52.5 45.5t61.5 31t71 11.5q66 0 102.5 -30.5t54 -76.5t21 -101t3.5 -104v-258q0 -32 3.5 -53t14.5 -34.5t31 -19t53 -5.5v-29h-340z" />
    <glyph glyph-name="i" unicode="i" horiz-adv-x="430" 
d="M303 926q0 -32 -22 -55t-54 -23t-54.5 22t-22.5 56q0 32 22.5 53.5t54.5 21.5q31 0 53.5 -22t22.5 -53zM57 0v29q34 0 55 5t32.5 18t15.5 34.5t4 54.5v369q0 13 -1.5 30.5t-6.5 33.5t-16 27t-29 11q-13 0 -26.5 -3.5t-27.5 -8.5l-10 27l209 84h33v-570q0 -33 4 -54.5
t15.5 -34.5t32 -18t54.5 -5v-29h-338z" />
    <glyph glyph-name="j" unicode="j" horiz-adv-x="430" 
d="M301 926q0 -32 -23 -55t-55 -23t-54 22t-22 56q0 31 22.5 53t53.5 22t54.5 -22t23.5 -53zM289 14q0 -67 -14 -129.5t-46 -111t-84 -78t-129 -29.5q-16 0 -39 4t-44.5 13t-36.5 23.5t-15 35.5q0 26 18 45.5t44 19.5t45.5 -12.5t36 -27t33 -27t36.5 -12.5q29 0 43.5 22.5
t20.5 53.5t6 63v51v514q0 17 1 47t-3 59t-16 50.5t-37 21.5q-24 0 -52 -10l-10 27l209 84h33v-697z" />
    <glyph glyph-name="k" unicode="k" horiz-adv-x="772" 
d="M446 0v29q7 0 15.5 0.5t15.5 3.5t12 8t5 14q0 17 -10 32t-19 28l-211 266v-225q0 -36 2.5 -60.5t13 -39.5t33 -21t62.5 -6v-29h-355v29q39 0 61.5 5t34.5 18.5t15.5 37.5t3.5 62v645q0 11 0.5 28t0.5 37t-2 40t-8 36.5t-16 26.5t-26 10q-13 0 -25 -3.5t-24 -8.5l-15 26
l209 82h35v-674l174 148q6 5 18 15.5t24 22.5t21 24.5t9 21.5q0 10 -5 17.5t-13 12t-17.5 6.5t-18.5 3v22h299v-22q-32 -2 -57.5 -6.5t-47.5 -14.5t-42.5 -25t-44.5 -36l-182 -162l182 -227l36 -46t37 -44t41 -39t48 -33q11 -6 32.5 -6h32.5v-29h-334z" />
    <glyph glyph-name="l" unicode="l" horiz-adv-x="430" 
d="M57 0v29q36 0 56.5 8.5t31 24.5t13 39.5t2.5 54.5v643q0 18 1.5 47t-2.5 57.5t-16 49t-39 20.5q-12 0 -23 -2.5t-24 -7.5l-12 26l207 82h33v-915q0 -35 3.5 -59t15 -39t33.5 -22t60 -7v-29h-340z" />
    <glyph glyph-name="m" unicode="m" horiz-adv-x="1202" 
d="M854 0v29q40 0 62.5 6t33 21t13 39.5t2.5 60.5v299q0 29 -4.5 58.5t-17 53.5t-35 39t-58.5 15q-26 0 -50.5 -8t-47 -21.5t-42.5 -30.5t-38 -35v-370q0 -36 3 -60.5t14 -39.5t33.5 -21t61.5 -6v-29h-350v29q41 0 63.5 6t33.5 20.5t13.5 39t2.5 61.5v299q0 30 -5 60
t-17.5 54t-35.5 39t-59 15q-27 0 -51.5 -8.5t-47 -22t-42 -31t-37.5 -35.5v-370q0 -36 3 -60.5t14 -39.5t34 -21t62 -6v-29h-342v29q37 0 57.5 7.5t31 23t13 39.5t2.5 57v280q0 15 1 44.5t-2.5 59t-15 51t-36.5 21.5q-13 0 -26 -3.5t-25 -8.5l-13 27l209 84h33v-146
q24 26 50 52t55.5 47t62.5 34t72 13q74 0 116.5 -38.5t59.5 -107.5q24 28 49.5 54t54.5 46.5t62.5 33t74.5 12.5q56 0 91.5 -22.5t56 -58.5t28 -82t7.5 -93v-299q0 -32 2.5 -56t13 -40t31.5 -23.5t57 -7.5v-29h-342z" />
    <glyph glyph-name="n" unicode="n" horiz-adv-x="772" 
d="M424 0v29q39 0 61.5 6t34 20.5t14.5 39t3 61.5v282q0 29 -2.5 61t-13.5 58.5t-33 43.5t-60 17q-27 0 -52 -8.5t-47.5 -22t-42 -31.5t-36.5 -36v-364q0 -36 3 -60.5t14 -39.5t33.5 -21t61.5 -6v-29h-344v29q38 0 59 7.5t31.5 23t12.5 39.5t2 57v258q0 16 1 49t-2.5 66
t-15 58t-36.5 25q-13 0 -26 -3.5t-26 -8.5l-10 27l211 84h31v-146q21 25 46.5 51t54.5 47t62 34.5t68 13.5q56 0 91.5 -23t55.5 -60.5t27 -84t7 -92.5v-295q0 -33 3 -57t13.5 -39.5t32 -23t59.5 -7.5v-29h-346z" />
    <glyph glyph-name="o" unicode="o" horiz-adv-x="772" 
d="M719 358q0 -75 -23.5 -144t-67.5 -121.5t-107 -84t-142 -31.5q-75 0 -135.5 30t-103 80.5t-66 115.5t-23.5 135q0 73 23.5 140t67.5 119t106 83t139 31q75 0 136.5 -27.5t105 -75.5t67 -112.5t23.5 -137.5zM578 299q0 33 -4 73t-14 80.5t-26 78t-40 67t-57 47t-75 17.5
q-51 0 -84 -25.5t-52 -64t-26 -84.5t-7 -87q0 -33 4.5 -73t14.5 -81t26.5 -79.5t40.5 -68.5t56.5 -48t74.5 -18q54 0 87 25.5t51 65t24 86.5t6 89z" />
    <glyph glyph-name="p" unicode="p" horiz-adv-x="772" 
d="M721 371q0 -70 -20 -140.5t-60 -126.5t-99.5 -91.5t-138.5 -35.5q-46 0 -87.5 16t-75.5 48v-211q0 -38 3 -63t14.5 -40t34.5 -22t64 -8v-29h-364v29q42 1 66 7.5t35.5 21.5t14.5 41t3 67v653q0 17 0.5 38t-4 39.5t-16 31t-36.5 12.5q-27 0 -51 -12l-8 27l215 86h29v-162
q18 31 40 60.5t49.5 52.5t60 37t71.5 14q67 0 116.5 -31.5t81 -80.5t47 -109.5t15.5 -118.5zM600 299q0 48 -8.5 103.5t-30.5 103.5t-60.5 80t-99.5 32q-24 0 -47 -12t-43.5 -29.5t-38 -37.5t-32.5 -37v-258q0 -43 5 -82.5t22 -70t48.5 -48.5t85.5 -18q55 0 93.5 25.5
t61.5 65.5t33.5 88.5t10.5 94.5z" />
    <glyph glyph-name="q" unicode="q" horiz-adv-x="772" 
d="M424 -332v29q37 0 59.5 6t34.5 20.5t15.5 38.5t3.5 60v299q-21 -26 -46.5 -51.5t-54 -46t-61 -33.5t-66.5 -13q-65 0 -113.5 31.5t-80.5 81t-48 109t-16 116.5q0 78 24.5 150t70 126.5t112 87t150.5 32.5q37 0 75 -10t66 -39q46 21 86 49h27v-889q0 -35 3.5 -59t15 -38.5
t33.5 -21t60 -6.5v-29h-350zM537 492q0 77 -36 121t-118 44q-59 0 -98 -27t-63 -68.5t-34 -92t-10 -98.5q0 -49 11 -100t35.5 -92.5t64.5 -68t98 -26.5q45 0 83 25t67 57v326z" />
    <glyph glyph-name="r" unicode="r" horiz-adv-x="528" 
d="M526 627q0 -28 -20.5 -49t-48.5 -21q-17 0 -31.5 8.5t-28 18t-25 18t-22.5 8.5q-15 0 -30.5 -14.5t-29 -34t-24.5 -38.5t-16 -29v-334q0 -66 25 -98.5t96 -32.5v-29h-357v29q39 0 60.5 6t32.5 21t13.5 39.5t2.5 60.5v278q0 12 -0.5 36t-2.5 50t-6.5 49t-13.5 33
q-16 8 -39 8q-22 0 -47 -10l-8 27l213 84h31v-156q13 24 31 51t40.5 50.5t49 39t57.5 15.5q18 0 36 -5.5t31.5 -16.5t22 -26.5t8.5 -35.5z" />
    <glyph glyph-name="s" unicode="s" horiz-adv-x="602" 
d="M547 174q0 -45 -21 -81t-54 -62t-74.5 -40t-82.5 -14q-24 0 -49.5 7.5t-49.5 16.5t-45.5 16.5t-39.5 7.5q-5 0 -9 -4.5t-7.5 -10t-6 -11.5t-4.5 -9h-26v246h26q8 -41 25 -79t43.5 -67.5t62 -47t80.5 -17.5q23 0 44.5 6.5t38 19.5t26.5 32t10 44q0 48 -26.5 80.5
t-66.5 57.5t-86 47.5t-86 51t-66.5 67t-26.5 95.5q0 48 19 82.5t50 57.5t71.5 34t82.5 11q20 0 39 -4t38 -9.5t37.5 -9.5t37.5 -4q12 0 19.5 8t12.5 19h27v-236h-27q-8 37 -22.5 71.5t-36.5 61.5t-53.5 43.5t-73.5 16.5q-22 0 -45.5 -4t-43 -14t-32 -28.5t-12.5 -46.5
q0 -50 28.5 -81.5t71 -55t92 -44.5t92 -48.5t71 -68t28.5 -103.5z" />
    <glyph glyph-name="t" unicode="t" horiz-adv-x="430" 
d="M430 127q-8 -29 -24 -56t-38.5 -48t-50.5 -33.5t-59 -12.5q-41 0 -67 15.5t-42 41t-22 58.5t-6 68v479h-109v23q39 15 71.5 43t59 63.5t47 74.5t35.5 75h23v-228h162v-51h-162v-461q0 -17 2.5 -37t9.5 -37.5t20.5 -29t34.5 -11.5q34 0 54 17.5t32 46.5h29z" />
    <glyph glyph-name="u" unicode="u" horiz-adv-x="772" 
d="M565 -23h-35v148q-23 -25 -49 -51t-55.5 -47.5t-62 -35.5t-68.5 -14q-56 0 -91 25t-54.5 64t-26 87t-6.5 93v309q0 34 -6 55t-20 32.5t-36.5 15.5t-54.5 4v28h244v-461q0 -30 4.5 -58t17 -50t35 -35.5t57.5 -13.5q25 0 49 9t46 23t41.5 31.5t35.5 34.5v391q0 31 -6.5 51
t-20 31t-35 15t-50.5 4v28h237v-508q0 -11 1 -29t5.5 -34.5t14 -28.5t26.5 -12q30 0 62 12l10 -27z" />
    <glyph glyph-name="v" unicode="v" horiz-adv-x="772" 
d="M758 662q-24 -1 -40 -7.5t-27 -18t-19 -28t-17 -37.5l-243 -594h-31l-248 586q-11 25 -21.5 42t-24 28t-32 18t-43.5 11v28h326v-28q-16 0 -31 -1t-26 -6t-18 -16t-7 -31q0 -17 5 -32t11 -29l160 -381l162 397q6 14 11 30.5t5 33.5q0 14 -8 21t-20 10t-25.5 3.5
t-24.5 0.5v28h226v-28z" />
    <glyph glyph-name="w" unicode="w" horiz-adv-x="1114" 
d="M1102 662q-37 -5 -60.5 -28.5t-37.5 -58.5l-230 -598h-31l-174 443l-198 -443h-29l-223 582q-9 24 -17.5 41.5t-20.5 29.5t-29 19.5t-44 12.5v28h291v-28q-25 0 -44 -8.5t-19 -39.5q0 -14 2.5 -28.5t7.5 -26.5l149 -397l148 323q-13 36 -22 67.5t-23.5 55.5t-37.5 38.5
t-65 15.5v28h330v-28q-17 -1 -33.5 -3t-30 -7.5t-22 -17t-8.5 -32.5q0 -8 10.5 -39t27 -74t36.5 -91.5t38.5 -93t33 -79t20.5 -47.5l143 381q6 16 11 32.5t5 33.5q0 13 -8 20t-19 11t-23.5 5t-22.5 1v28h219v-28z" />
    <glyph glyph-name="x" unicode="x" horiz-adv-x="772" 
d="M428 0v29q11 0 23 1.5t22 6t16.5 13t6.5 22.5q0 7 -9.5 24.5t-24.5 41t-32.5 49.5t-34.5 49.5t-30 42t-19 26.5q-7 -9 -22 -27t-33 -40.5t-37 -47t-34.5 -47.5t-25.5 -41t-10 -28q0 -14 6.5 -22.5t16.5 -13.5t22 -7t23 -2v-29h-225v29q21 1 41.5 15.5t39 34.5t34.5 42
t28 37l145 192l-131 191q-18 25 -33 46.5t-33 37.5t-41.5 25.5t-56.5 11.5v28h326v-28h-8q-19 2 -34 -6t-15 -31q0 -9 13.5 -33t31 -52t34 -52.5t23.5 -34.5q7 10 25.5 34.5t37.5 52t33.5 52.5t14.5 35q0 22 -18.5 28.5t-37.5 6.5v28h234v-28q-40 -1 -78.5 -32t-72.5 -72.5
t-62 -85t-47 -69.5l172 -245q17 -24 33 -46.5t34.5 -40.5t41 -29.5t53.5 -12.5v-29h-326z" />
    <glyph glyph-name="y" unicode="y" horiz-adv-x="772" 
d="M764 662q-24 -2 -40 -11t-27.5 -23t-19.5 -32t-15 -37l-281 -690q-15 -35 -37.5 -71.5t-52.5 -65.5t-66 -47.5t-78 -18.5q-19 0 -37.5 5.5t-32.5 16.5t-23 27t-9 37q0 37 21 52.5t55 15.5q14 0 27.5 -4t27 -9.5t26.5 -9.5t25 -4q20 0 38 14.5t33.5 37t28.5 50t23.5 53.5
t18 48t12.5 33l-248 520q-10 20 -21.5 39t-26 34.5t-33.5 26t-44 13.5v28h324v-28q-15 0 -30 -1t-27.5 -5.5t-20.5 -14.5t-8 -29q0 -21 8.5 -42t17.5 -40l168 -348l154 383q6 14 11 26.5t5 29.5q0 15 -6.5 23.5t-17 12.5t-23 4.5t-24.5 0.5v28h225v-28z" />
    <glyph glyph-name="z" unicode="z" horiz-adv-x="686" 
d="M197 51h254q53 0 84 6.5t48.5 24t25.5 48.5t14 81h26l-10 -211h-608v29l458 610h-227q-43 0 -71 -5t-45.5 -20t-26 -42.5t-13.5 -71.5h-28l4 190h580v-28z" />
    <glyph glyph-name="braceleft" unicode="{" horiz-adv-x="539" 
d="M414 1034q-60 0 -94.5 -10t-52.5 -32t-22.5 -55.5t-4.5 -80.5v-369q0 -41 -14 -73.5t-30.5 -55.5t-30 -36.5t-13.5 -14.5q25 -25 44 -54q17 -25 30.5 -57.5t13.5 -70.5v-375q0 -48 6.5 -80t26 -52t54.5 -28.5t91 -9.5v-61q-88 0 -138.5 19t-75.5 51t-31.5 73.5t-6.5 87.5
v375q0 37 -15 69t-33 56t-33 39t-15 18q0 1 15 13t33 34.5t33 55.5t15 77v369q0 42 6.5 86t31.5 80t74 59t134 23z" />
    <glyph glyph-name="bar" unicode="|" horiz-adv-x="309" 
d="M121 -334v1405h65v-1405h-65z" />
    <glyph glyph-name="braceright" unicode="}" horiz-adv-x="539" 
d="M373 487q0 -44 15 -77t33 -55.5t33 -34.5t15 -13q0 -3 -15 -18t-33 -39t-33 -56t-15 -69v-375q0 -47 -6 -89t-31 -73.5t-75 -50t-138 -18.5v61q55 1 89.5 9.5t53.5 28.5t26 52t7 80v375q0 38 14 70.5t31 57.5q19 29 45 54q0 1 -14 14.5t-31 36.5t-31 55.5t-14 73.5v369
q0 47 -4.5 80.5t-22 55.5t-52 32t-95.5 10l4 70q84 0 132.5 -23t73 -59t31.5 -80t7 -86v-369z" />
    <glyph glyph-name="asciitilde" unicode="~" horiz-adv-x="840" 
d="M811 475q-16 -31 -37 -60.5t-47.5 -52.5t-58.5 -37t-70 -14q-47 0 -92 17.5t-90 38t-89.5 38t-90.5 17.5q-31 0 -55 -13.5t-43.5 -34.5t-35.5 -46t-30 -49l-41 55q17 32 36.5 64t45 57.5t57.5 41t74 15.5q43 0 91 -18t96 -39.5t93 -39.5t82 -18q29 0 53.5 12t44.5 31
t36 43.5t28 48.5z" />
    <glyph glyph-name="Euro" unicode="&#x20ac;" horiz-adv-x="950" 
d="M895 199q-32 -56 -63.5 -97.5t-70.5 -70t-89.5 -42.5t-118.5 -14q-84 0 -157 30t-130 83.5t-96 127.5t-55 163h-113l31 74h73q-2 11 -2 21.5v21.5q0 14 1 27.5t1 27.5h-106l31 74h86q17 90 56.5 167t99 133t136 87.5t166.5 31.5q63 0 108 -20.5t77 -48.5q15 -1 26.5 6
t19.5 17.5t13.5 22.5t7.5 23h27l18 -296h-22q-15 49 -40.5 93t-59 77.5t-74.5 53t-88 19.5q-78 0 -132.5 -30t-90 -81t-54.5 -117t-26 -138h481l-31 -74h-456q0 -16 -1.5 -29.5t-1.5 -27.5q0 -10 0.5 -20t2.5 -21h430l-31 -74h-393q10 -72 33.5 -133.5t63 -106.5t96 -70.5
t132.5 -25.5q86 0 147.5 47t114.5 125z" />
    <glyph glyph-name="quotesinglbase" unicode="&#x201a;" horiz-adv-x="514" 
d="M375 0q0 -48 -14.5 -86.5t-40 -68t-61.5 -50.5t-79 -35v31q21 12 43 28.5t40.5 36t30 43t11.5 50.5q0 14 -4 29.5t-22 15.5q-16 0 -30 -6t-28 -6q-16 0 -30 6.5t-24 17.5t-16 25.5t-6 29.5q0 21 8.5 37.5t23 28t32.5 17.5t37 6q29 0 53 -13.5t41 -34.5t26 -48t9 -54z" />
    <glyph glyph-name="florin" unicode="&#x192;" horiz-adv-x="772" 
d="M754 963q0 -26 -12 -43t-40 -17q-21 0 -34 9.5t-13 31.5q0 13 8.5 27t8.5 20q0 13 -8 17t-19 4q-25 0 -43 -21.5t-31.5 -55.5t-22 -75t-14.5 -80t-10 -72t-6 -49h133l-12 -49h-131q-23 -136 -58.5 -268.5t-70.5 -265.5q-9 -33 -22 -75t-30.5 -86.5t-40 -87.5t-51 -76.5
t-64.5 -54t-79 -20.5q-35 0 -62.5 20t-27.5 58q0 29 13 47.5t44 18.5q17 0 33.5 -11.5t16.5 -29.5q0 -14 -9.5 -24.5t-9.5 -18.5q0 -9 6.5 -12t14.5 -3q26 0 45.5 22t34 52.5t23 62t13.5 50.5q20 77 35 156t31 157q20 99 43.5 195.5t48.5 193.5h-131l10 49l27.5 2.5
t33.5 4.5t32 7t24 11q17 14 30 46t26.5 72t30.5 82.5t41 78t58.5 58.5t83.5 23q18 0 36.5 -5t33.5 -15t24 -25t9 -36z" />
    <glyph glyph-name="quotedblbase" unicode="&#x201e;" horiz-adv-x="684" 
d="M641 -2q0 -48 -14.5 -86t-40 -67t-61.5 -50.5t-79 -36.5v33q20 12 42 28t40.5 35.5t30.5 42.5t12 50q0 14 -5 29.5t-23 15.5q-14 0 -28 -5t-28 -5q-32 0 -53.5 23.5t-21.5 55.5q0 20 8 36.5t21.5 28t31.5 18t37 6.5q30 0 54 -13.5t41.5 -35t26.5 -48.5t9 -55zM281 0
q0 -48 -14.5 -86.5t-40.5 -68t-62 -50.5t-80 -35v31q21 12 43 28.5t41 36t31 43t12 50.5q0 7 -1 14.5t-4 14.5t-9 11.5t-15 4.5q-14 0 -27.5 -6t-27.5 -6q-34 0 -55 24t-21 55q0 42 30 65.5t69 23.5q30 0 54 -13.5t41 -34.5t26.5 -48t9.5 -54z" />
    <glyph glyph-name="ellipsis" unicode="&#x2026;" horiz-adv-x="2048" 
d="M299 186q15 0 31.5 -9t30.5 -23t23 -30.5t9 -31.5t-9 -31.5t-23 -30.5t-30.5 -23t-31.5 -9t-31.5 9t-30.5 23t-23 30.5t-9 31.5t9 31.5t23 30.5t30.5 23t31.5 9zM999 186q14 0 30.5 -9t31 -23t24 -30.5t9.5 -31.5t-9.5 -31.5t-24 -30.5t-31 -23t-30.5 -9t-30.5 9
t-30.5 23t-23.5 30.5t-9.5 31.5t9.5 31.5t23.5 30.5t30.5 23t30.5 9zM1700 186q14 0 30 -9t30 -23t23 -30.5t9 -31.5t-9 -31.5t-23 -30.5t-30 -23t-30 -9q-15 0 -31.5 9t-31 23t-24 30.5t-9.5 31.5t9.5 31.5t24 30.5t31 23t31.5 9z" />
    <glyph glyph-name="dagger" unicode="&#x2020;" horiz-adv-x="772" 
d="M696 688q0 -35 -22.5 -53.5t-55.5 -18.5q-29 0 -55.5 8t-53.5 18.5t-55 20t-59 11.5q2 -51 19 -97.5t57 -78.5q-26 -100 -39.5 -201.5t-21 -203.5t-10 -204t-5.5 -204h-26q-2 101 -4.5 203.5t-10 205t-22.5 204t-41 200.5q23 19 36.5 38.5t22 40.5t12.5 44.5t7 52.5
q-29 -1 -56 -10t-53.5 -19.5t-52.5 -19.5t-53 -9q-38 0 -58 17t-20 55q0 16 6.5 30t17 24t25 16t29.5 6q23 0 48 -9.5t52 -20.5t55.5 -21t59.5 -11q0 35 -11 66.5t-24 62.5t-24 62.5t-11 67.5q0 38 21.5 67t62.5 29q19 0 34.5 -8.5t26 -22t16 -30.5t5.5 -35q0 -33 -10.5 -65
t-23.5 -63.5t-24 -64t-12 -66.5q29 1 57.5 10.5t56 20.5t54 20t53.5 9q32 0 56 -21t24 -53z" />
    <glyph glyph-name="daggerdbl" unicode="&#x2021;" horiz-adv-x="772" 
d="M668 -10q0 -70 -72 -70q-24 0 -47.5 7.5t-48 17t-49.5 17.5t-52 9q0 -30 10 -58t22 -55.5t22 -55t10 -56.5q0 -34 -21 -57t-55 -23q-16 0 -30 7t-24 18.5t-16 26.5t-6 30q0 24 8 51.5t18 56.5t20 58.5t14 56.5q-29 0 -55 -8t-50 -17.5t-46.5 -17.5t-43.5 -8q-70 0 -70 66
q0 37 19.5 53t54.5 16q24 0 47 -7.5t46 -17t47.5 -17t50.5 -7.5q-6 24 -10.5 40.5t-12 29.5t-19.5 24.5t-32 26.5q38 54 56 118t18 130q0 62 -15.5 123.5t-58.5 109.5q20 14 32 27t19.5 28t12 33t10.5 41q-27 -2 -51.5 -10.5t-49 -17.5t-49 -16t-51.5 -7q-66 0 -66 66
q0 65 66 65q25 0 49.5 -7.5t49.5 -17t50.5 -18t51.5 -10.5q-1 30 -10.5 58.5t-21 56t-21 55t-9.5 55.5q0 34 21.5 58t56.5 24q40 0 56 -24t16 -62q0 -22 -8.5 -48t-19 -54.5t-20 -58.5t-12.5 -60q27 2 52 10.5t49.5 18t49 17t50.5 7.5q32 0 50 -16.5t18 -50.5t-20 -50
t-52 -16q-26 0 -50 7t-48.5 16t-49 17.5t-49.5 12.5q3 -23 7.5 -41t12.5 -33t21 -28t31 -27q-37 -54 -54.5 -116t-17.5 -127q0 -63 17 -124t55 -114q-34 -26 -49.5 -53t-22.5 -70q26 1 50.5 9t48.5 17.5t48 17t50 7.5q29 0 50.5 -18t21.5 -47z" />
    <glyph glyph-name="circumflex" unicode="&#x2c6;" horiz-adv-x="483" 
d="M430 786l-188 160l-189 -160h-53l195 258h96l192 -258h-53z" />
    <glyph glyph-name="perthousand" unicode="&#x2030;" horiz-adv-x="1630" 
d="M1604 383q0 -42 -9 -88t-27 -91t-44 -86t-60 -72.5t-75.5 -50t-90.5 -18.5q-103 0 -148.5 56.5t-45.5 156.5q0 64 27.5 128.5t74 116.5t107 85t127.5 33q35 0 65 -13.5t52 -36.5t34.5 -54t12.5 -66zM1049 383q0 -62 -20.5 -133.5t-60 -132t-96.5 -100.5t-129 -40
q-103 0 -148.5 56.5t-45.5 156.5q0 64 27.5 128.5t73.5 116.5t106.5 85t126.5 33q36 0 66.5 -13.5t52.5 -36.5t34.5 -54t12.5 -66zM238 -25h-74l598 1004q-38 -35 -84.5 -53.5t-97.5 -18.5q-59 0 -113 19q3 -16 4.5 -30t1.5 -30q0 -37 -8 -79.5t-23 -85t-38 -82t-53 -70
t-67 -48.5t-81 -18q-48 0 -81.5 18.5t-54.5 49.5t-30.5 71t-9.5 83q0 60 22.5 121t62.5 110.5t95.5 81t120.5 31.5q21 0 48.5 -16.5t60.5 -36t71 -36t80 -16.5q37 0 63 7.5t47 21.5t41 33.5t45 44.5h93zM1563 375q0 24 -6.5 47t-20 41t-33.5 29.5t-47 11.5
q-36 0 -67.5 -19.5t-57.5 -51t-46.5 -71.5t-34.5 -82t-21.5 -81.5t-7.5 -69.5q0 -43 25.5 -73.5t70.5 -30.5q37 0 69.5 17t59.5 45.5t49 65t37 75.5t23 77t8 70zM1008 375q0 24 -7 47t-20.5 41t-33.5 29.5t-46 11.5q-35 0 -66 -19.5t-57.5 -51.5t-47 -72t-35 -82t-22 -81
t-7.5 -69q0 -43 24.5 -73.5t71.5 -30.5q37 0 69.5 17t59.5 45.5t49 65t37 75.5t23 77t8 70zM434 866q0 17 -1 37t-9 35q-26 14 -50 31t-44 37q-45 -10 -79.5 -50t-58.5 -91.5t-36.5 -106t-12.5 -94.5q0 -20 2.5 -43t10.5 -43.5t23.5 -34t41.5 -13.5q34 0 63 17t53 45t42 64
t30 73t18.5 73t6.5 64z" />
    <glyph glyph-name="Scaron" unicode="&#x160;" horiz-adv-x="858" 
d="M776 262q0 -67 -27 -120t-71.5 -90t-102.5 -57t-120 -20q-41 0 -82 9.5t-77.5 20.5t-66.5 20.5t-49 9.5q-12 0 -20.5 -5.5t-14 -14.5t-8.5 -19.5t-4 -20.5h-27v353h27q8 -65 31 -119t61 -92.5t91.5 -60t121.5 -21.5q37 0 73.5 10.5t65 31.5t46.5 52.5t18 73.5
q0 44 -23.5 79.5t-61.5 66t-87 58t-99.5 55.5t-99.5 59t-87 68.5t-61.5 83t-23.5 103.5q0 63 24.5 112.5t65.5 84t94.5 53t112.5 18.5q34 0 69 -9t66.5 -19.5t57.5 -19.5t43 -9q12 0 20 6t14 14.5t9.5 18.5t5.5 18h29v-352h-29q-5 60 -26 113.5t-56.5 93t-86 63t-114.5 23.5
q-34 0 -66 -11t-57.5 -31.5t-41 -49t-15.5 -64.5q0 -42 24 -76t63.5 -63t89.5 -55.5t102.5 -54t102.5 -58.5t89.5 -69t63.5 -84.5t24 -106.5zM486 1116h-97l-194 259h54l188 -159l189 159h54z" />
    <glyph glyph-name="guilsinglleft" unicode="&#x2039;" horiz-adv-x="514" 
d="M381 -6l-291 356l291 355h41l-184 -355l184 -356h-41z" />
    <glyph glyph-name="OE" unicode="&#x152;" horiz-adv-x="1374" 
d="M1247 0h-493q-59 0 -118 -6t-118 -6q-109 0 -194.5 43.5t-145 115.5t-90.5 166.5t-31 196.5q0 108 32 203.5t93 166t150 111.5t203 41h10l28 -2l109 -4q139 -6 278 -5t279 1l8 -223h-24q-11 54 -21.5 87t-30 51t-53.5 24t-92 6h-192v-402h135q79 0 119 31.5t40 114.5h31
v-357h-31q-3 45 -11 74t-26 46.5t-47.5 24.5t-74.5 7h-135v-336q0 -51 9 -75.5t29 -32.5t51.5 -6.5t77.5 1.5q61 0 106 9.5t79.5 33t61 61.5t50.5 95h31zM688 786q0 44 -4 80t-19 62t-45 40.5t-83 14.5q-63 0 -110.5 -21.5t-81.5 -58.5t-56.5 -85.5t-35.5 -101.5t-18.5 -108
t-5.5 -104t6 -102t19.5 -104.5t36.5 -98t57 -81.5t80 -56t107 -21q57 0 88.5 16.5t45.5 45t16.5 68t2.5 85.5v530z" />
    <glyph glyph-name="Zcaron" unicode="&#x17d;" horiz-adv-x="942" 
d="M852 0h-832v29l654 934h-326q-57 0 -93.5 -10.5t-59 -33.5t-35 -61t-21.5 -92h-28l22 256h756l-672 -961h418q58 0 97.5 14.5t66 42t44.5 67t34 89.5l22 -4zM560 1116h-97l-194 259h54l188 -159l189 159h54z" />
    <glyph glyph-name="caron" unicode="&#x2c7;" horiz-adv-x="485" 
d="M291 786h-97l-194 259h54l188 -159l189 159h54z" />
    <glyph glyph-name="ring" unicode="&#x2da;" horiz-adv-x="288" 
d="M288 930q0 -32 -12 -58.5t-32 -45.5t-45.5 -29.5t-52.5 -10.5t-53 10.5t-47 29.5t-33.5 45.5t-12.5 58.5t12 58.5t32 45.5t46.5 29.5t55.5 10.5q27 0 52.5 -10t45.5 -28.5t32 -45.5t12 -60zM236 930q0 21 -7.5 38t-20 29t-29 18.5t-33.5 6.5q-38 0 -66 -25.5t-28 -66.5
q0 -22 8 -39t21 -29t30 -18t35 -6q19 0 35.5 7.5t28.5 20t19 29.5t7 35z" />
    <glyph glyph-name="quoteleft" horiz-adv-x="514" 
d="M370 743q0 -23 -9.5 -39.5t-24.5 -27t-32.5 -16t-32.5 -5.5q-23 0 -46.5 10.5t-42 30t-30.5 47t-12 62.5q0 59 22.5 101.5t54 71t64.5 44.5t55 24v-33q-20 -12 -42.5 -26t-41 -33t-30.5 -42.5t-12 -54.5q0 -29 11 -37.5t17 -8.5q10 0 26 6t31 6q13 0 26 -5.5t24 -15.5
t18 -25t7 -34z" />
    <glyph glyph-name="quoteright" horiz-adv-x="514" 
d="M374 896q0 -59 -22.5 -101.5t-54 -71t-64.5 -45t-55 -23.5v33q20 12 42.5 26t41 33t31 42.5t12.5 54.5q0 29 -11.5 37.5t-17.5 8.5q-10 0 -26 -6t-30 -6q-13 0 -26.5 5.5t-24.5 15.5t-18 25t-7 34q0 22 9.5 39t24.5 27.5t32.5 16t33.5 5.5q23 0 46 -10.5t42 -30
t30.5 -47.5t11.5 -62z" />
    <glyph glyph-name="quotedblleft" horiz-adv-x="786" 
d="M642 744q0 -22 -9.5 -38.5t-24.5 -27.5t-32.5 -16.5t-32.5 -5.5q-23 0 -46.5 10.5t-42.5 30.5t-31 47.5t-12 62.5q0 59 22.5 101t54 70.5t65 45t55.5 23.5v-32q-20 -12 -42.5 -26.5t-41 -33t-30.5 -42.5t-12 -54q0 -15 3 -24t7.5 -14t9 -7t7.5 -2q11 0 27 6.5t30 6.5
q13 0 26.5 -5.5t24.5 -16t18 -25.5t7 -34zM281 746q0 -23 -9.5 -39.5t-24.5 -27t-32.5 -16t-33.5 -5.5q-23 0 -46 10.5t-42 30t-30.5 47t-11.5 62.5q0 59 22.5 101.5t54 71t64.5 44.5t55 24v-33q-20 -12 -42.5 -26t-41.5 -33t-31 -42.5t-12 -54.5q0 -14 3.5 -23t8 -14
t9.5 -7t8 -2q10 0 26 6t30 6q13 0 26.5 -5.5t24.5 -16t18 -25t7 -33.5z" />
    <glyph glyph-name="quotedblright" horiz-adv-x="786" 
d="M736 894q0 -59 -22.5 -101t-54 -70.5t-65 -45t-55.5 -23.5v32q20 12 42.5 26t41 33t31 43t12.5 54q0 15 -3.5 24t-8 14t-9 7t-7.5 2q-11 0 -27 -6.5t-30 -6.5q-13 0 -26.5 5.5t-24.5 16t-18 25.5t-7 34q0 22 9.5 38.5t24.5 27.5t32.5 16.5t33.5 5.5q23 0 46.5 -10.5
t42 -30t30.5 -47.5t12 -63zM374 896q0 -59 -22.5 -101.5t-54 -71t-64.5 -45t-55 -23.5v33q20 12 42.5 26t41 33t31 42.5t12.5 54.5q0 29 -11.5 37.5t-17.5 8.5q-10 0 -26 -6t-30 -6q-13 0 -26.5 5.5t-24.5 15.5t-18 25t-7 34q0 22 9.5 39t24.5 27.5t32.5 16t33.5 5.5
q23 0 46 -10.5t42 -30t30.5 -47.5t11.5 -62z" />
    <glyph glyph-name="quoteleft.arab" unicode="&#x2018;" horiz-adv-x="604" 
d="M301 1317l-41 -21q-2 -12 -3 -23t-1 -24q0 -20 6.5 -39.5t16.5 -39t22 -38t23 -36.5l-21 -11q-75 41 -113 111.5t-38 151.5q0 16 8.5 40t23 46t32.5 37.5t36 15.5q12 0 26 -14t27 -32t23.5 -35.5t15.5 -23.5z" />
    <glyph glyph-name="quoteright.arab" unicode="&#x2019;" horiz-adv-x="604" 
d="M227 1253l41 21q2 11 3 22.5t1 22.5q0 21 -6 41t-16 39.5t-21.5 38t-23.5 35.5l20 12q76 -42 114 -112t38 -150q0 -17 -8.5 -41t-22.5 -46t-31.5 -37.5t-35.5 -15.5q-12 0 -27 14t-28.5 32t-24 35.5t-15.5 23.5z" />
    <glyph glyph-name="quotedblleft.arab" unicode="&#x201c;" horiz-adv-x="909" 
d="M301 1317l-41 -21q-2 -12 -3 -23t-1 -24q0 -20 6.5 -39.5t16.5 -39t22 -38t23 -36.5l-21 -11q-75 41 -113 111.5t-38 151.5q0 16 8.5 40t23 46t32.5 37.5t36 15.5q12 0 26 -14t27 -32t23.5 -35.5t15.5 -23.5zM606 1317l-41 -21q-2 -12 -3 -23t-1 -24q0 -20 6.5 -39.5
t16.5 -39t22 -38t23 -36.5l-21 -11q-75 41 -113 111.5t-38 151.5q0 16 8.5 40t23 46t32.5 37.5t36 15.5q12 0 26 -14t27 -32t23.5 -35.5t15.5 -23.5z" />
    <glyph glyph-name="quotedblright.arab" unicode="&#x201d;" horiz-adv-x="909" 
d="M227 1253l41 21q2 11 3 22.5t1 22.5q0 21 -6 41t-16 39.5t-21.5 38t-23.5 35.5l20 12q76 -42 114 -112t38 -150q0 -17 -8.5 -41t-22.5 -46t-31.5 -37.5t-35.5 -15.5q-12 0 -27 14t-28.5 32t-24 35.5t-15.5 23.5zM532 1253l41 21q2 11 3.5 22.5t1.5 22.5q0 21 -6.5 41
t-16 39.5t-21.5 38t-24 35.5l20 12q76 -42 114 -112t38 -150q0 -17 -8.5 -41t-22.5 -46t-31.5 -37.5t-35.5 -15.5q-12 0 -27 14t-28.5 32t-24 35.5t-15.5 23.5z" />
    <glyph glyph-name="bullet" unicode="&#x2022;" horiz-adv-x="1057" 
d="M528 55q-71 0 -133.5 26.5t-109 73t-73 109.5t-26.5 135t26.5 133.5t73 107t109 71.5t133.5 26t133 -26t108 -72t72.5 -107.5t26.5 -132.5t-26.5 -134t-72 -109.5t-107.5 -73.5t-134 -27z" />
    <glyph glyph-name="endash" unicode="&#x2013;" horiz-adv-x="743" 
d="M-33 340v57h797v-57h-797z" />
    <glyph glyph-name="emdash" unicode="&#x2014;" horiz-adv-x="1485" 
d="M0 340v57h1485v-57h-1485z" />
    <glyph glyph-name="tilde" unicode="&#x2dc;" horiz-adv-x="514" 
d="M514 1013q-3 -31 -17 -60.5t-36 -53t-50 -37.5t-61 -14q-42 0 -68 11t-48 24.5t-45.5 25t-60.5 11.5q-16 0 -31 -6.5t-27 -16.5t-20.5 -23t-9.5 -26h-40q8 33 22 62t35 50t49.5 33t64.5 12q30 0 53 -10.5t45 -23.5t45 -23.5t53 -10.5q37 0 67.5 19.5t39.5 56.5h40z" />
    <glyph glyph-name="trademark" unicode="&#x2122;" horiz-adv-x="1513" 
d="M1188 414v26q29 0 47 5t27.5 16.5t12.5 30.5t3 47v372l-234 -497h-22l-234 489v-362q0 -32 3.5 -52t14 -31t30 -14.5t51.5 -3.5v-26h-232v26q30 0 47 5.5t26 17.5t11 31t2 47v358q0 27 -2 45.5t-10.5 29.5t-25.5 16t-48 5v27h217l205 -430l201 430h209v-27h-8
q-28 1 -43 -6.5t-22.5 -21.5t-9 -33t-1.5 -41v-352q0 -26 2.5 -45t11 -31.5t25 -18.5t45.5 -6v-26h-299zM578 872q-4 42 -24 63.5t-49 30.5t-63.5 10t-66.5 1v-436q0 -26 2 -45t10 -31t24.5 -18t45.5 -7v-26h-285v26q28 5 43.5 11t23 17t8.5 28.5t1 44.5v436h-55
q-33 0 -57 -4.5t-41 -16t-28.5 -32t-19.5 -52.5h-22l10 150h557l12 -150h-26z" />
    <glyph glyph-name="scaron" unicode="&#x161;" horiz-adv-x="602" 
d="M547 174q0 -45 -21 -81t-54 -62t-74.5 -40t-82.5 -14q-24 0 -49.5 7.5t-49.5 16.5t-45.5 16.5t-39.5 7.5q-5 0 -9 -4.5t-7.5 -10t-6 -11.5t-4.5 -9h-26v246h26q8 -41 25 -79t43.5 -67.5t62 -47t80.5 -17.5q23 0 44.5 6.5t38 19.5t26.5 32t10 44q0 48 -26.5 80.5
t-66.5 57.5t-86 47.5t-86 51t-66.5 67t-26.5 95.5q0 48 19 82.5t50 57.5t71.5 34t82.5 11q20 0 39 -4t38 -9.5t37.5 -9.5t37.5 -4q12 0 19.5 8t12.5 19h27v-236h-27q-8 37 -22.5 71.5t-36.5 61.5t-53.5 43.5t-73.5 16.5q-22 0 -45.5 -4t-43 -14t-32 -28.5t-12.5 -46.5
q0 -50 28.5 -81.5t71 -55t92 -44.5t92 -48.5t71 -68t28.5 -103.5zM360 786h-97l-194 259h54l188 -159l189 159h54z" />
    <glyph glyph-name="guilsinglright" unicode="&#x203a;" horiz-adv-x="514" 
d="M133 -6h-41l184 354l-184 357h41l291 -357z" />
    <glyph glyph-name="oe" unicode="&#x153;" horiz-adv-x="1114" 
d="M1065 256q-10 -52 -29 -102t-49.5 -89.5t-74.5 -63.5t-105 -24q-65 0 -119 32.5t-82 90.5q-45 -58 -106 -90.5t-135 -32.5q-77 0 -135.5 29t-98.5 78.5t-60 114t-20 135.5q0 73 20 141t60 120.5t100 84t140 31.5q72 0 132 -29.5t103 -89.5q37 57 89.5 88t121.5 31
q61 0 107.5 -19t78 -53t47 -82t15.5 -105v-20h-414v-33q-2 -48 8.5 -100.5t35 -95.5t64.5 -71t99 -28q37 0 65.5 13.5t51 36t38.5 52.5t27 62zM915 481q0 32 -6.5 64.5t-22 58.5t-41 42t-63.5 16q-35 0 -59.5 -17.5t-40 -44.5t-23 -59t-8.5 -60h264zM539 285q0 32 -2.5 73
t-9.5 83.5t-20.5 83.5t-35.5 72.5t-53.5 51t-75.5 19.5q-51 0 -80.5 -26.5t-44.5 -66t-19.5 -85t-4.5 -82.5q0 -29 3 -68.5t11 -81t22 -82t35 -72.5t51 -51.5t70 -19.5q51 0 81 24.5t46.5 62t21.5 82t5 83.5z" />
    <glyph glyph-name="zcaron" unicode="&#x17e;" horiz-adv-x="686" 
d="M197 51h254q53 0 84 6.5t48.5 24t25.5 48.5t14 81h26l-10 -211h-608v29l458 610h-227q-43 0 -71 -5t-45.5 -20t-26 -42.5t-13.5 -71.5h-28l4 190h580v-28zM426 786h-97l-194 259h54l188 -159l189 159h54z" />
    <glyph glyph-name="Ydieresis" unicode="&#x178;" horiz-adv-x="1114" 
d="M1094 995q-45 0 -77 -15t-57.5 -39t-46 -55.5t-41.5 -64.5l-247 -387v-256q0 -47 5 -76t20 -45.5t43.5 -22t76.5 -5.5v-29h-434v29q48 0 76 6t42.5 22.5t18.5 45.5t4 75v242l-278 428q-16 25 -34.5 51t-40.5 47.5t-49 35t-61 13.5v27h437v-27q-16 0 -36.5 -2t-38.5 -8.5
t-30 -20t-12 -36.5q0 -15 18.5 -51.5t47 -83t61.5 -97t61.5 -93t48 -71.5t21.5 -32l203 315q6 10 14 23.5t14.5 28t11.5 29t5 26.5q0 21 -10 35t-25 22.5t-33 12t-35 3.5v27h357v-27zM773 1246q0 -16 -6 -30.5t-16.5 -25t-24.5 -16.5t-29 -6q-31 0 -54.5 23.5t-23.5 54.5
q0 15 6.5 28.5t17.5 24t25 16.5t29 6q31 0 53.5 -22t22.5 -53zM466 1246q0 -16 -6.5 -30.5t-17 -25t-25 -16.5t-29.5 -6q-31 0 -53.5 23.5t-22.5 54.5q0 15 6.5 28.5t17 24t24 16.5t28.5 6q31 0 54.5 -22t23.5 -53z" />
    <glyph glyph-name="uni00A0" unicode="&#xa0;" horiz-adv-x="465" 
 />
    <glyph glyph-name="exclamdown" unicode="&#xa1;" horiz-adv-x="514" 
d="M342 649q0 -20 -8 -35t-20 -25.5t-27 -16t-30 -5.5t-29.5 5.5t-26.5 16t-19.5 26t-7.5 34.5q0 18 7 34t18 27.5t26 18.5t32 7q13 0 27.5 -5t27.5 -15.5t21.5 -27t8.5 -39.5zM343 -227q0 -51 -25 -78.5t-63 -27.5q-14 0 -29 6t-27 19.5t-20 35t-8 52.5q0 9 0.5 22t2.5 29
l68 611h30l65 -611q4 -27 5 -38t1 -20z" />
    <glyph glyph-name="cent" unicode="&#xa2;" horiz-adv-x="772" 
d="M678 262q-9 -54 -33 -105t-61.5 -91t-87 -64.5t-107.5 -24.5q-28 0 -54 6t-52 17l-103 -285h-53l113 310q-40 27 -68 62.5t-45 76.5t-25 86.5t-8 93.5q0 72 23 138.5t66 117.5t104 81t137 30q33 0 63 -6l107 294h53l-110 -309q20 -8 41.5 -23t39.5 -34t29.5 -41.5
t11.5 -46.5q0 -34 -19.5 -49t-51.5 -15t-47 10t-22 26t-9.5 36t-9.5 41l-168 -461q25 -17 53 -26t57 -9q42 0 75 14t58.5 38t45 55.5t34.5 66.5zM465 645q-30 17 -66 17q-50 0 -84.5 -23.5t-55.5 -60.5t-30.5 -81.5t-9.5 -86.5q0 -63 15.5 -126t58.5 -114z" />
    <glyph glyph-name="sterling" unicode="&#xa3;" horiz-adv-x="772" 
d="M737 229q-5 -44 -21.5 -88t-43.5 -79t-65 -57.5t-87 -22.5q-37 0 -69 11.5t-62 29t-58.5 39t-56.5 42.5q-10 -21 -23.5 -43t-30.5 -39.5t-39 -28.5t-48 -11q-46 0 -67 26t-21 70q0 56 35.5 87.5t89.5 31.5q15 0 31.5 -1.5t31.5 -5.5q2 13 2.5 25t0.5 25q0 65 -5.5 129
t-11.5 129h-145v71h145q-2 37 -6 74.5t-4 75.5q0 62 18.5 120.5t54 104t87.5 73t120 27.5q34 0 68 -10t61.5 -30t44.5 -49t17 -66q0 -22 -17 -42t-40 -20q-28 0 -39 13t-15 32t-5 42t-9 42t-26.5 32t-57.5 13q-44 0 -71 -20t-41.5 -50.5t-19.5 -68t-5 -71.5q0 -56 5.5 -112
t10.5 -110h195v-71h-195q0 -43 -1.5 -83.5t-6 -80t-13.5 -78.5t-24 -80q21 -7 53.5 -17.5t67.5 -20t68.5 -16.5t54.5 -7q125 0 160 121zM225 129q-27 21 -65 21q-32 0 -51 -15.5t-19 -50.5q0 -25 10.5 -41t38.5 -16q20 0 34.5 10t25 25.5t16.5 33.5t10 33z" />
    <glyph glyph-name="currency" unicode="&#xa4;" horiz-adv-x="891" 
d="M793 238l-154 153q-40 -35 -88 -52t-102 -17q-56 0 -105.5 16t-91.5 53l-154 -153l-53 53l152 153q-32 41 -48 89.5t-16 101.5t15.5 103.5t52.5 90.5l-156 156l53 55l156 -157q42 34 92 49.5t103 15.5q52 0 99 -15.5t87 -49.5l158 157l53 -55l-154 -154q34 -42 50 -92
t16 -104q0 -53 -16 -101.5t-48 -89.5l152 -153zM674 635q0 47 -17.5 88.5t-48.5 73t-72 49.5t-87 18q-49 0 -91 -17.5t-73.5 -48.5t-49.5 -73t-18 -90t18 -90t49.5 -73t73.5 -48.5t91 -17.5q47 0 88 18t71.5 49.5t48 73t17.5 88.5z" />
    <glyph glyph-name="yen" unicode="&#xa5;" horiz-adv-x="772" 
d="M451 266v-82q0 -44 2.5 -73t14.5 -47t38 -25.5t74 -7.5v-31h-390v31q49 0 76 7t39.5 24t14.5 47t2 75v82h-308v56h308v108l-11 27h-297v53h271l-160 375q-11 24 -21 43.5t-23 33t-32 22t-47 11.5v27h334v-27q-10 -1 -26 -3.5t-31 -7.5t-26 -14t-11 -22q0 -4 12 -35.5
t31 -77.5t40.5 -99.5t41.5 -101t34 -82t17 -42.5l162 381q5 14 9.5 28t4.5 29t-8.5 24t-21 14t-27.5 6.5t-27 2.5v27h262v-27q-29 0 -48.5 -9.5t-34.5 -26t-26 -37.5t-22 -45l-164 -367h281v-53h-301l-6 -15v-120h307v-56h-307z" />
    <glyph glyph-name="brokenbar" unicode="&#xa6;" horiz-adv-x="467" 
d="M197 500v594h75v-594h-75zM197 -295v594h75v-594h-75z" />
    <glyph glyph-name="section" unicode="&#xa7;" horiz-adv-x="772" 
d="M655 362q0 -44 -12.5 -81t-35 -69t-52.5 -59t-66 -49q36 -38 63.5 -86t27.5 -104q0 -46 -16 -85.5t-45 -68t-68.5 -45t-85.5 -16.5q-36 0 -70 12t-60 34.5t-41.5 53t-15.5 68.5q0 26 15 46.5t43 20.5q27 0 43 -20t16 -45q0 -20 -7 -41t-7 -41q0 -16 9.5 -27.5t23 -18.5
t29.5 -10t28 -3q24 0 47.5 10t42.5 27t31 39t12 46q0 49 -28.5 89.5t-71.5 78.5t-93.5 76t-93.5 80.5t-71.5 93t-28.5 113.5q0 43 12.5 80t35 68.5t52.5 58t66 47.5q-16 20 -32.5 43t-30 48t-22 51.5t-8.5 53.5q0 44 17 82.5t46 67.5t67.5 46t82.5 17q37 0 72 -11t62 -32.5
t43 -52.5t16 -71q0 -29 -13.5 -48.5t-45.5 -19.5q-23 0 -41.5 17t-18.5 40q0 19 5 37t5 37q0 40 -23 56t-61 16q-28 0 -52 -10t-41.5 -27.5t-27.5 -41.5t-10 -52q0 -49 28.5 -88.5t71 -76t92 -72.5t92 -77.5t71 -91.5t28.5 -113zM309 612q-24 -14 -45 -31t-36.5 -38t-25 -46
t-9.5 -53q0 -39 14 -70.5t37 -58.5t52.5 -50.5t59.5 -46t58 -45t49 -46.5q22 14 43 31t37 38t25.5 45.5t9.5 53.5q0 49 -29.5 94t-71.5 85.5t-88 75t-80 62.5z" />
    <glyph glyph-name="dieresis" unicode="&#xa8;" horiz-adv-x="461" 
d="M461 926q0 -16 -6 -30.5t-16.5 -25t-24.5 -16.5t-29 -6q-31 0 -54.5 23.5t-23.5 54.5q0 15 6.5 28.5t17.5 24t25 16.5t29 6q31 0 53.5 -22t22.5 -53zM154 926q0 -16 -6.5 -30.5t-17 -25t-25 -16.5t-29.5 -6q-31 0 -53.5 23.5t-22.5 54.5q0 15 6.5 28.5t17 24t24 16.5
t28.5 6q31 0 54.5 -22t23.5 -53z" />
    <glyph glyph-name="copyright" unicode="&#xa9;" horiz-adv-x="1174" 
d="M1122 510q0 -112 -41.5 -209.5t-113.5 -170t-170 -114t-211 -41.5t-210.5 41.5t-169.5 113.5t-113.5 169.5t-41.5 210.5q0 114 41.5 211.5t113.5 169t169.5 112.5t210.5 41q114 0 212 -41t170 -112.5t113 -169t41 -211.5zM1075 510q0 103 -38 192t-104 155t-155 104
t-192 38q-102 0 -191 -38t-154.5 -104.5t-103 -155.5t-37.5 -191t37.5 -190.5t103 -154t154.5 -103t191 -37.5q103 0 192 37.5t155 103t104 154t38 190.5zM879 324q-53 -76 -125.5 -115t-163.5 -39q-72 0 -136 25t-111.5 69.5t-75 106t-27.5 135.5q0 81 30 146t81 110.5
t119.5 69.5t145.5 24q24 0 48.5 -5.5t47 -12t41.5 -12t31 -5.5q14 0 23 11.5t14 23.5h29l16 -211h-28q-28 82 -83.5 129t-146.5 47q-65 0 -111 -24t-75 -64.5t-43 -93.5t-14 -111q0 -60 13.5 -116t43 -99t77.5 -68.5t117 -25.5q151 0 234 121z" />
    <glyph glyph-name="ordfeminine" unicode="&#xaa;" horiz-adv-x="492" 
d="M490 667q-60 -67 -117 -67q-23 0 -40.5 14t-17.5 53q-33 -21 -54.5 -34t-38 -20.5t-31 -10t-34.5 -2.5q-54 0 -86.5 29t-32.5 77q0 23 10 43.5t40 41.5t84 43.5t143 48.5v16q0 60 -23 84.5t-71 24.5q-33 0 -52.5 -15t-21.5 -36l2 -27q1 -20 -12 -31.5t-33 -11.5
q-46 0 -46 43q0 24 15 43.5t40 33t57.5 20.5t68.5 7q54 0 86.5 -10t50.5 -28.5t23.5 -44.5t5.5 -58v-141q0 -29 0.5 -47.5t2.5 -25.5q3 -23 24 -23q4 0 8.5 1t10.5 4.5t15.5 11t23.5 20.5v-26zM44 493v33h438v-33h-438zM315 856q-63 -21 -99.5 -38t-55.5 -32.5t-24 -30
t-5 -29.5q0 -31 22 -52.5t54 -22.5q20 -2 47.5 10.5t60.5 35.5v159z" />
    <glyph glyph-name="guillemotleft" unicode="&#xab;" horiz-adv-x="772" 
d="M680 -6l-297 356l297 355h43l-184 -355l184 -356h-43zM340 -6l-293 356l293 355h41l-184 -355l184 -356h-41z" />
    <glyph glyph-name="logicalnot" unicode="&#xac;" horiz-adv-x="922" 
d="M772 281v254h-713v90h803v-344h-90z" />
    <glyph glyph-name="sfthyphen" unicode="&#xad;" horiz-adv-x="514" 
d="M61 289v112h390v-112h-390z" />
    <glyph glyph-name="registered" unicode="&#xae;" horiz-adv-x="1174" 
d="M1122 510q0 -112 -41.5 -209.5t-113.5 -170t-170 -114t-211 -41.5t-210.5 41.5t-169.5 113.5t-113.5 169.5t-41.5 210.5q0 114 41.5 211.5t113.5 169t169.5 112.5t210.5 41q114 0 212 -41t170 -112.5t113 -169t41 -211.5zM1075 510q0 103 -38 192t-104 155t-155 104
t-192 38q-102 0 -191 -38t-154.5 -104.5t-103 -155.5t-37.5 -191t37.5 -190.5t103 -154t154.5 -103t191 -37.5q103 0 192 37.5t155 103t104 154t38 190.5zM748 188l-222 306h-57v-234q0 -17 9.5 -26.5t23.5 -14t29.5 -5.5t27.5 -1v-25h-276v25q30 0 45 6.5t22 19.5t7.5 32
t0.5 44v396q0 22 0.5 41t-5 32.5t-19.5 21t-43 7.5v27h291q39 0 79 -9t72.5 -29.5t53 -52.5t20.5 -77q0 -38 -14 -66t-37 -48.5t-53.5 -33.5t-63.5 -20l158 -225q15 -23 38 -43t54 -23v-25h-141zM686 662q0 34 -12 60.5t-33 45.5t-49 29t-60 10q-15 0 -31.5 -2.5t-31.5 -7.5
v-271q35 0 73.5 5t70.5 19.5t52.5 41t20.5 70.5z" />
    <glyph glyph-name="macron" unicode="&#xaf;" horiz-adv-x="483" 
d="M0 848v84h483v-84h-483z" />
    <glyph glyph-name="uni02C9" unicode="&#x2c9;" horiz-adv-x="483" 
d="M0 848v84h483v-84h-483z" />
    <glyph glyph-name="degree" unicode="&#xb0;" horiz-adv-x="475" 
d="M401 905q0 -34 -12.5 -63.5t-34.5 -51.5t-52 -34.5t-64 -12.5q-35 0 -65 12.5t-52 34.5t-34.5 51.5t-12.5 63.5t12.5 64t34.5 52.5t52 35t65 12.5q34 0 64 -12.5t52 -35t34.5 -52.5t12.5 -64zM342 905q0 22 -8 41t-22.5 33t-33.5 22.5t-40 8.5q-22 0 -41 -8.5
t-33.5 -22.5t-22.5 -33t-8 -41q0 -21 8 -40t22.5 -32.5t33.5 -21.5t41 -8q21 0 40 8t33.5 21.5t22.5 32.5t8 40z" />
    <glyph glyph-name="plusminus" unicode="&#xb1;" horiz-adv-x="1485" 
d="M788 532v-268h-92v268h-399v93h399v266h92v-266h400v-93h-400zM297 0v92h891v-92h-891z" />
    <glyph glyph-name="twosuperior" unicode="&#xb2;" horiz-adv-x="543" 
d="M451 387h-433v16q27 21 63.5 49.5t75 61t76 69t67 74.5t47.5 77t18 77q0 31 -11.5 56t-31.5 42t-46.5 26t-56.5 9q-57 0 -97.5 -24.5t-62.5 -79.5h-18q12 89 65.5 131.5t141.5 42.5q35 0 72.5 -10t68 -30t50.5 -50.5t20 -71.5q0 -34 -17 -70.5t-45 -74t-63.5 -73.5
t-71.5 -69t-70 -60.5t-59 -47.5h195h44.5t39.5 4t36.5 14t34.5 31h21z" />
    <glyph glyph-name="threesuperior" unicode="&#xb3;" horiz-adv-x="543" 
d="M457 596q0 -59 -27 -100t-69 -66.5t-93.5 -37t-101.5 -11.5q-12 0 -33 1t-41.5 6t-35.5 14.5t-15 27.5q0 20 13 25.5t30 5.5q18 0 35.5 -6.5t36.5 -14t40 -14t44 -6.5q24 0 48.5 9t44 24.5t32 38t12.5 49.5q0 46 -19 76t-49.5 47t-68.5 24t-76 8v15q28 3 58 13t54.5 27.5
t40 42.5t15.5 58q0 26 -10.5 45.5t-27.5 32.5t-39 19.5t-46 6.5q-45 0 -80 -20t-61 -55l-17 8q31 59 80.5 94t118.5 35q28 0 58 -7t55 -22t41 -38.5t16 -57.5q0 -21 -9.5 -41t-23.5 -37.5t-31.5 -32.5t-33.5 -26q58 -19 96.5 -57.5t38.5 -102.5z" />
    <glyph glyph-name="acute" unicode="&#xb4;" horiz-adv-x="528" 
d="M434 1001q0 -12 -6 -23t-15.5 -20.5t-20 -17.5t-19.5 -14l-223 -140h-62l213 215q19 19 42.5 34.5t51.5 15.5q7 0 14 -5t12.5 -12.5t9 -16.5t3.5 -16z" />
    <glyph glyph-name="mu" unicode="&#xb5;" horiz-adv-x="874" 
d="M817 156q-2 -36 -11 -68t-26 -57t-44.5 -39.5t-67.5 -14.5q-32 0 -53 13t-35 33.5t-21 46t-10 51.5q-23 -25 -49 -50.5t-56 -46.5t-63.5 -34t-69.5 -13q-76 0 -116 66v-35q0 -33 5.5 -65.5t11.5 -64.5t11.5 -64t5.5 -64q0 -15 -4.5 -30t-13.5 -27t-22 -19.5t-29 -7.5
t-28.5 7.5t-20.5 19.5t-12.5 26.5t-4.5 28.5q0 29 8.5 62.5t14.5 62.5q15 66 19.5 134t4.5 136v545h123v-399q0 -31 1 -68.5t10.5 -70.5t31.5 -55.5t64 -22.5q27 0 51.5 8.5t47 22.5t42.5 32t37 37v516h125v-489v-38t4 -45.5t15 -38.5t32 -16q15 0 26 10.5t18 25.5t11 31
t6 28h31z" />
    <glyph glyph-name="paragraph" unicode="&#xb6;" horiz-adv-x="698" 
d="M602 981v-1315h-55v1315h-139v-1315h-56v789q-71 1 -136.5 15t-115.5 46.5t-80 86.5t-30 136q0 76 27.5 130t74 88t108 49.5t130.5 15.5h372v-41h-100z" />
    <glyph glyph-name="periodcentered" unicode="&#xb7;" horiz-adv-x="279" 
d="M227 506q0 -38 -25.5 -63t-62.5 -25t-62.5 25t-25.5 63q0 37 25.5 61.5t62.5 24.5t62.5 -24.5t25.5 -61.5z" />
    <glyph glyph-name="uni2219" unicode="&#x2219;" horiz-adv-x="279" 
d="M227 506q0 -38 -25.5 -63t-62.5 -25t-62.5 25t-25.5 63q0 37 25.5 61.5t62.5 24.5t62.5 -24.5t25.5 -61.5z" />
    <glyph glyph-name="cedilla" unicode="&#xb8;" horiz-adv-x="362" 
d="M342 -203q0 -36 -20 -60.5t-50 -40t-65 -22t-64 -6.5q-62 0 -125 23l23 49q49 -19 96 -19q17 0 33 3t29 10.5t20.5 20t7.5 32.5q0 34 -20 46.5t-51 12.5q-14 0 -28 -1.5t-28 -6.5l-10 8l64 154h55l-39 -100q11 2 21.5 3t21.5 1q25 0 48.5 -6.5t41.5 -19.5t28.5 -33
t10.5 -48z" />
    <glyph glyph-name="onesuperior" unicode="&#xb9;" horiz-adv-x="543" 
d="M137 387v16q31 0 49.5 2.5t28.5 12.5t13 28t3 50v346q0 13 0.5 30t-2.5 32t-12.5 25.5t-28.5 10.5q-14 0 -28 -4t-27 -10l-8 16l178 72h19v-518q0 -32 3 -50t12.5 -28t27.5 -12.5t49 -2.5v-16h-277z" />
    <glyph glyph-name="ordmasculine" unicode="&#xba;" horiz-adv-x="566" 
d="M523 823q0 -40 -15.5 -81t-46 -74t-76 -53.5t-106.5 -20.5q-52 0 -95.5 17.5t-74.5 47.5t-48.5 69t-17.5 83q0 42 16.5 82t47.5 71.5t75.5 50.5t101.5 19q54 0 98 -16.5t75.5 -45t48.5 -67t17 -82.5zM52 493v33h464v-33h-464zM422 787q0 46 -10.5 86t-30.5 69t-48.5 46
t-64.5 17q-21 0 -43 -7.5t-40 -26t-29.5 -48.5t-11.5 -75q0 -44 11.5 -84t32 -70.5t49.5 -48.5t65 -18q27 0 49 8.5t37.5 27.5t24.5 49.5t9 74.5z" />
    <glyph glyph-name="guillemotright" unicode="&#xbb;" horiz-adv-x="772" 
d="M432 -6h-41l184 354l-184 357h41l293 -357zM92 -6h-43l184 354l-184 357h43l297 -357z" />
    <glyph glyph-name="onequarter" unicode="&#xbc;" horiz-adv-x="1188" 
d="M958 160v-166h-75v166h-262v55l288 412h49v-404h82v-63h-82zM287 -12h-74l702 1052h70zM158 395v19q27 0 43 3t24.5 12t10.5 25.5t2 43.5v354q0 10 0.5 27t-2.5 33t-10.5 28t-22.5 12q-14 0 -26 -4t-23 -10l-7 16l150 74h16v-522q0 -29 1 -46.5t8 -28t23 -14t46 -3.5v-19
h-233zM883 530l-217 -307h217v307z" />
    <glyph glyph-name="onehalf" unicode="&#xbd;" horiz-adv-x="1188" 
d="M1018 -6h-365v18q26 23 57.5 52t64 62t63.5 69t55 74t38.5 76.5t14.5 76.5q0 26 -8.5 50.5t-24.5 43t-39 30t-51 11.5q-52 0 -85 -27.5t-50 -76.5h-16q4 37 17.5 68.5t35 55t52.5 37t71 13.5q35 0 67 -11.5t56 -33t38.5 -52t14.5 -67.5q0 -53 -29.5 -108t-71.5 -107.5
t-89 -100t-82 -84.5h161h40.5t34 4.5t29 15t27.5 30.5h19zM272 -12h-73l651 1052h72zM135 395v19q28 0 44 3t24 12t10 25.5t2 43.5v354q0 10 0.5 27t-2.5 33t-10.5 28t-22.5 12q-14 0 -26 -4t-23 -10l-6 16l149 74h17v-522q0 -29 1 -46.5t8.5 -28t23.5 -14t47 -3.5v-19h-236
z" />
    <glyph glyph-name="threequarters" unicode="&#xbe;" horiz-adv-x="1188" 
d="M979 160v-166h-76v166h-264v55l289 412h51v-404h82v-63h-82zM322 -12h-76l702 1052h70zM479 600q0 -54 -19.5 -94.5t-52.5 -67.5t-77 -41t-94 -14q-13 0 -31.5 1t-36 6t-29.5 15.5t-12 28.5q0 17 10.5 24t26.5 7q15 0 29.5 -6.5t31 -14t34 -14t38.5 -6.5q24 0 45.5 10
t37.5 26.5t25 38t9 44.5q0 43 -14 72.5t-38.5 48t-58 27t-72.5 9.5v15q29 3 55 14.5t45.5 30t30.5 44t11 56.5q0 45 -27 75t-74 30q-40 0 -69 -22t-49 -54l-17 6q14 28 28.5 52.5t34 42.5t45 28t60.5 10q28 0 54 -8.5t46 -24.5t32 -39.5t12 -54.5q0 -21 -8 -40t-20 -37
t-27 -33.5t-29 -28.5q55 -22 84.5 -62t29.5 -100zM903 530l-219 -307h219v307z" />
    <glyph glyph-name="questiondown" unicode="&#xbf;" horiz-adv-x="686" 
d="M435 649q0 -37 -26 -61t-60 -24q-15 0 -30 6t-27 17.5t-19 27t-7 34.5q0 21 7.5 36.5t19.5 26.5t26.5 16.5t29.5 5.5q16 0 31.5 -5.5t27.5 -16.5t19.5 -27t7.5 -36zM612 -116q0 -42 -18 -81.5t-52.5 -69.5t-85 -48t-116.5 -18q-61 0 -113 16t-89.5 47t-58.5 75t-21 100
q0 43 12 80t29.5 68t38 56.5t38.5 45.5q40 45 69.5 80.5t49.5 70.5t31 74t13 92h32q-4 -90 -28 -169t-74 -162q-12 -20 -24.5 -46t-23 -56t-17.5 -61t-7 -61q0 -57 16.5 -96.5t42 -64.5t57 -36t60.5 -11q36 0 63 9.5t44.5 23.5t26.5 31.5t9 34.5q0 16 -7.5 33.5t-16.5 34.5
t-16.5 33t-7.5 29q0 16 5.5 28t14.5 20t20 12.5t21 4.5q8 0 22 -5t27.5 -18t23.5 -36t10 -60z" />
    <glyph glyph-name="Agrave" unicode="&#xc0;" horiz-adv-x="1110" 
d="M694 0v29q17 0 35 2.5t33 9.5t25 19.5t10 33.5q0 20 -12 56t-27 74t-30 71t-21 47h-396q-4 -8 -12.5 -26.5t-19.5 -42t-22 -49.5t-20.5 -51t-15.5 -46t-6 -33q0 -20 13 -32.5t32 -19.5t39 -9.5t35 -3.5v-29h-322v29q36 1 62 17t45.5 41t33.5 55.5t27 60.5l361 841h26
l355 -847q15 -35 28.5 -64.5t32.5 -52t46 -36t69 -15.5v-29h-404zM512 813l-178 -416h352zM640 1116l-221 140q-68 42 -68 67q0 58 47 58q40 0 90 -50l215 -215h-63z" />
    <glyph glyph-name="Aacute" unicode="&#xc1;" horiz-adv-x="1110" 
d="M694 0v29q17 0 35 2.5t33 9.5t25 19.5t10 33.5q0 20 -12 56t-27 74t-30 71t-21 47h-396q-4 -8 -12.5 -26.5t-19.5 -42t-22 -49.5t-20.5 -51t-15.5 -46t-6 -33q0 -20 13 -32.5t32 -19.5t39 -9.5t35 -3.5v-29h-322v29q36 1 62 17t45.5 41t33.5 55.5t27 60.5l361 841h26
l355 -847q15 -35 28.5 -64.5t32.5 -52t46 -36t69 -15.5v-29h-404zM512 813l-178 -416h352zM762 1331q0 -12 -6 -23t-15.5 -20.5t-20 -17.5t-19.5 -14l-223 -140h-62l213 215q19 19 42.5 34.5t51.5 15.5q7 0 14 -5t12.5 -12.5t9 -16.5t3.5 -16z" />
    <glyph glyph-name="Acircumflex" unicode="&#xc2;" horiz-adv-x="1110" 
d="M694 0v29q17 0 35 2.5t33 9.5t25 19.5t10 33.5q0 20 -12 56t-27 74t-30 71t-21 47h-396q-4 -8 -12.5 -26.5t-19.5 -42t-22 -49.5t-20.5 -51t-15.5 -46t-6 -33q0 -20 13 -32.5t32 -19.5t39 -9.5t35 -3.5v-29h-322v29q36 1 62 17t45.5 41t33.5 55.5t27 60.5l361 841h26
l355 -847q15 -35 28.5 -64.5t32.5 -52t46 -36t69 -15.5v-29h-404zM512 813l-178 -416h352zM743 1106l-188 160l-189 -160h-53l195 258h96l192 -258h-53z" />
    <glyph glyph-name="Atilde" unicode="&#xc3;" horiz-adv-x="1110" 
d="M694 0v29q17 0 35 2.5t33 9.5t25 19.5t10 33.5q0 20 -12 56t-27 74t-30 71t-21 47h-396q-4 -8 -12.5 -26.5t-19.5 -42t-22 -49.5t-20.5 -51t-15.5 -46t-6 -33q0 -20 13 -32.5t32 -19.5t39 -9.5t35 -3.5v-29h-322v29q36 1 62 17t45.5 41t33.5 55.5t27 60.5l361 841h26
l355 -847q15 -35 28.5 -64.5t32.5 -52t46 -36t69 -15.5v-29h-404zM512 813l-178 -416h352zM812 1343q-3 -31 -17 -60.5t-36 -53t-50 -37.5t-61 -14q-42 0 -68 11t-48 24.5t-45.5 25t-60.5 11.5q-16 0 -31 -6.5t-27 -16.5t-20.5 -23t-9.5 -26h-40q8 33 22 62t35 50t49.5 33
t64.5 12q30 0 53 -10.5t45 -23.5t45 -23.5t53 -10.5q37 0 67.5 19.5t39.5 56.5h40z" />
    <glyph glyph-name="Adieresis" unicode="&#xc4;" horiz-adv-x="1110" 
d="M694 0v29q17 0 35 2.5t33 9.5t25 19.5t10 33.5q0 20 -12 56t-27 74t-30 71t-21 47h-396q-4 -8 -12.5 -26.5t-19.5 -42t-22 -49.5t-20.5 -51t-15.5 -46t-6 -33q0 -20 13 -32.5t32 -19.5t39 -9.5t35 -3.5v-29h-322v29q36 1 62 17t45.5 41t33.5 55.5t27 60.5l361 841h26
l355 -847q15 -35 28.5 -64.5t32.5 -52t46 -36t69 -15.5v-29h-404zM512 813l-178 -416h352zM774 1246q0 -16 -6 -30.5t-16.5 -25t-24.5 -16.5t-29 -6q-31 0 -54.5 23.5t-23.5 54.5q0 15 6.5 28.5t17.5 24t25 16.5t29 6q31 0 53.5 -22t22.5 -53zM467 1246q0 -16 -6.5 -30.5
t-17 -25t-25 -16.5t-29.5 -6q-31 0 -53.5 23.5t-22.5 54.5q0 15 6.5 28.5t17 24t24 16.5t28.5 6q31 0 54.5 -22t23.5 -53z" />
    <glyph glyph-name="Aring" unicode="&#xc5;" horiz-adv-x="1110" 
d="M694 0v29q17 0 35 2.5t33 9.5t25 19.5t10 33.5q0 20 -12 56t-27 74t-30 71t-21 47h-396q-4 -8 -12.5 -26.5t-19.5 -42t-22 -49.5t-20.5 -51t-15.5 -46t-6 -33q0 -20 13 -32.5t32 -19.5t39 -9.5t35 -3.5v-29h-322v29q36 1 62 17t45.5 41t33.5 55.5t27 60.5l361 841h26
l355 -847q15 -35 28.5 -64.5t32.5 -52t46 -36t69 -15.5v-29h-404zM512 813l-178 -416h352zM699 1260q0 -32 -12 -58.5t-32 -45.5t-45.5 -29.5t-52.5 -10.5t-53 10.5t-47 29.5t-33.5 45.5t-12.5 58.5t12 58.5t32 45.5t46.5 29.5t55.5 10.5q27 0 52.5 -10t45.5 -28.5t32 -45.5
t12 -60zM647 1260q0 21 -7.5 38t-20 29t-29 18.5t-33.5 6.5q-38 0 -66 -25.5t-28 -66.5q0 -22 8 -39t21 -29t30 -18t35 -6q19 0 35.5 7.5t28.5 20t19 29.5t7 35z" />
    <glyph glyph-name="AE" unicode="&#xc6;" horiz-adv-x="1374" 
d="M1249 0h-767v28h37q62 0 93 37q18 24 18 116v214h-298l-94 -175q-21 -39 -34.5 -67t-18 -47.5t1 -32.5t20.5 -22q23 -16 96 -23v-28h-321v28q33 0 56 13q11 7 23.5 18.5t27 31t32 47.5t39.5 69l312 580q29 54 43.5 91t14.5 55q0 13 -5.5 23.5t-20 18t-39.5 13t-65 7.5v27
h838l11 -223h-25q-11 52 -22 85t-31 51.5t-54.5 25t-91.5 6.5h-251v-404h194q44 0 74 7.5t49 25t28.5 45.5t12.5 69h26v-353h-26q-6 45 -14 74t-25 45.5t-46.5 23t-78.5 6.5h-194v-338q0 -30 0.5 -52t5.5 -30q3 -5 8 -10.5t14 -10t23 -7.5t37 -3h136q64 0 110 11.5
t80.5 36.5t61.5 63t53 92h27zM630 967l-270 -515h270v515z" />
    <glyph glyph-name="Ccedilla" unicode="&#xc7;" horiz-adv-x="1030" 
d="M741 -225q0 -36 -20 -60.5t-50 -40t-65 -22t-64 -6.5q-62 0 -125 23l23 49q49 -19 96 -19q17 0 33 3t29 10.5t20.5 20t7.5 32.5q0 34 -20 46.5t-51 12.5q-14 0 -28 -1.5t-28 -6.5l-10 8l63 151q-114 0 -205.5 40t-156.5 110t-100 165t-35 206q0 114 37.5 213.5t106 174
t164 117.5t212.5 43q39 0 72.5 -5.5t65 -14.5t62 -21.5t65.5 -27.5q15 0 26 7t18 17t11.5 22t7.5 23h27l22 -346h-22q-19 64 -48.5 117.5t-71 92.5t-97 61t-125.5 22t-123.5 -20.5t-94 -56.5t-68 -84t-44 -103.5t-24 -115t-7.5 -117.5q0 -92 22 -173.5t68.5 -143.5t119 -98
t173.5 -36q64 0 112.5 15t88 42.5t73 67t68.5 88.5l23 -16q-63 -113 -153.5 -180.5t-213.5 -81.5l-39 -100q11 2 21.5 3t21.5 1q25 0 48.5 -6.5t41.5 -19.5t28.5 -33t10.5 -48z" />
    <glyph glyph-name="Egrave" unicode="&#xc8;" horiz-adv-x="942" 
d="M819 0h-786v29q48 0 76.5 6t43.5 22.5t20 46t5 76.5v666q0 48 -4 77t-19 45t-44 21.5t-78 5.5v27h786l12 -223h-28q-13 49 -24.5 81.5t-31 51.5t-53 27t-90.5 8h-282v-404h225q47 0 75.5 6.5t46 23t26 45t14.5 73.5h28v-357h-28q-6 45 -14.5 74t-25.5 46.5t-45.5 24.5
t-76.5 7h-225v-336q0 -28 1.5 -49.5t9.5 -36t25.5 -22t49.5 -7.5h172q67 0 110 11t74.5 35t56.5 62.5t56 92.5h32zM556 1116l-221 140q-68 42 -68 67q0 58 47 58q40 0 90 -50l215 -215h-63z" />
    <glyph glyph-name="Eacute" unicode="&#xc9;" horiz-adv-x="942" 
d="M819 0h-786v29q48 0 76.5 6t43.5 22.5t20 46t5 76.5v666q0 48 -4 77t-19 45t-44 21.5t-78 5.5v27h786l12 -223h-28q-13 49 -24.5 81.5t-31 51.5t-53 27t-90.5 8h-282v-404h225q47 0 75.5 6.5t46 23t26 45t14.5 73.5h28v-357h-28q-6 45 -14.5 74t-25.5 46.5t-45.5 24.5
t-76.5 7h-225v-336q0 -28 1.5 -49.5t9.5 -36t25.5 -22t49.5 -7.5h172q67 0 110 11t74.5 35t56.5 62.5t56 92.5h32zM678 1331q0 -12 -6 -23t-15.5 -20.5t-20 -17.5t-19.5 -14l-223 -140h-62l213 215q19 19 42.5 34.5t51.5 15.5q7 0 14 -5t12.5 -12.5t9 -16.5t3.5 -16z" />
    <glyph glyph-name="Ecircumflex" unicode="&#xca;" horiz-adv-x="942" 
d="M819 0h-786v29q48 0 76.5 6t43.5 22.5t20 46t5 76.5v666q0 48 -4 77t-19 45t-44 21.5t-78 5.5v27h786l12 -223h-28q-13 49 -24.5 81.5t-31 51.5t-53 27t-90.5 8h-282v-404h225q47 0 75.5 6.5t46 23t26 45t14.5 73.5h28v-357h-28q-6 45 -14.5 74t-25.5 46.5t-45.5 24.5
t-76.5 7h-225v-336q0 -28 1.5 -49.5t9.5 -36t25.5 -22t49.5 -7.5h172q67 0 110 11t74.5 35t56.5 62.5t56 92.5h32zM659 1106l-188 160l-189 -160h-53l195 258h96l192 -258h-53z" />
    <glyph glyph-name="Edieresis" unicode="&#xcb;" horiz-adv-x="942" 
d="M819 0h-786v29q48 0 76.5 6t43.5 22.5t20 46t5 76.5v666q0 48 -4 77t-19 45t-44 21.5t-78 5.5v27h786l12 -223h-28q-13 49 -24.5 81.5t-31 51.5t-53 27t-90.5 8h-282v-404h225q47 0 75.5 6.5t46 23t26 45t14.5 73.5h28v-357h-28q-6 45 -14.5 74t-25.5 46.5t-45.5 24.5
t-76.5 7h-225v-336q0 -28 1.5 -49.5t9.5 -36t25.5 -22t49.5 -7.5h172q67 0 110 11t74.5 35t56.5 62.5t56 92.5h32zM690 1246q0 -16 -6 -30.5t-16.5 -25t-24.5 -16.5t-29 -6q-31 0 -54.5 23.5t-23.5 54.5q0 15 6.5 28.5t17.5 24t25 16.5t29 6q31 0 53.5 -22t22.5 -53z
M383 1246q0 -16 -6.5 -30.5t-17 -25t-25 -16.5t-29.5 -6q-31 0 -53.5 23.5t-22.5 54.5q0 15 6.5 28.5t17 24t24 16.5t28.5 6q31 0 54.5 -22t23.5 -53z" />
    <glyph glyph-name="Igrave" unicode="&#xcc;" horiz-adv-x="514" 
d="M39 0v29q49 0 78 6.5t44 23t19 46t4 75.5v662q0 47 -4 76.5t-19 46.5t-44 23.5t-78 6.5v27h438v-27q-48 0 -77 -6.5t-44.5 -23.5t-20.5 -46.5t-5 -76.5v-662q0 -46 4.5 -75.5t19.5 -46t44 -23t79 -6.5v-29h-438zM343 1116l-221 140q-68 42 -68 67q0 58 47 58q40 0 90 -50
l215 -215h-63z" />
    <glyph glyph-name="Iacute" unicode="&#xcd;" horiz-adv-x="514" 
d="M39 0v29q49 0 78 6.5t44 23t19 46t4 75.5v662q0 47 -4 76.5t-19 46.5t-44 23.5t-78 6.5v27h438v-27q-48 0 -77 -6.5t-44.5 -23.5t-20.5 -46.5t-5 -76.5v-662q0 -46 4.5 -75.5t19.5 -46t44 -23t79 -6.5v-29h-438zM465 1331q0 -12 -6 -23t-15.5 -20.5t-20 -17.5t-19.5 -14
l-223 -140h-62l213 215q19 19 42.5 34.5t51.5 15.5q7 0 14 -5t12.5 -12.5t9 -16.5t3.5 -16z" />
    <glyph glyph-name="Icircumflex" unicode="&#xce;" horiz-adv-x="514" 
d="M39 0v29q49 0 78 6.5t44 23t19 46t4 75.5v662q0 47 -4 76.5t-19 46.5t-44 23.5t-78 6.5v27h438v-27q-48 0 -77 -6.5t-44.5 -23.5t-20.5 -46.5t-5 -76.5v-662q0 -46 4.5 -75.5t19.5 -46t44 -23t79 -6.5v-29h-438zM446 1106l-188 160l-189 -160h-53l195 258h96l192 -258
h-53z" />
    <glyph glyph-name="Idieresis" unicode="&#xcf;" horiz-adv-x="514" 
d="M39 0v29q49 0 78 6.5t44 23t19 46t4 75.5v662q0 47 -4 76.5t-19 46.5t-44 23.5t-78 6.5v27h438v-27q-48 0 -77 -6.5t-44.5 -23.5t-20.5 -46.5t-5 -76.5v-662q0 -46 4.5 -75.5t19.5 -46t44 -23t79 -6.5v-29h-438zM477 1246q0 -16 -6 -30.5t-16.5 -25t-24.5 -16.5t-29 -6
q-31 0 -54.5 23.5t-23.5 54.5q0 15 6.5 28.5t17.5 24t25 16.5t29 6q31 0 53.5 -22t22.5 -53zM170 1246q0 -16 -6.5 -30.5t-17 -25t-25 -16.5t-29.5 -6q-31 0 -53.5 23.5t-22.5 54.5q0 15 6.5 28.5t17 24t24 16.5t28.5 6q31 0 54.5 -22t23.5 -53z" />
    <glyph glyph-name="Eth" unicode="&#xd0;" horiz-adv-x="1116" 
d="M1055 519q0 -108 -32.5 -202.5t-101.5 -165t-177 -111t-259 -40.5h-458v28h38q67 0 92 42q16 23 16 111v330h-146v86h146v245q0 93 -20 121q-32 32 -88 32h-38v27h415q239 0 353 -54q57 -27 104.5 -70t82 -100.5t54 -128t19.5 -150.5zM886 511q0 106 -30.5 190.5
t-85 143.5t-131 90.5t-167.5 31.5q-33 0 -71 -5t-83 -17v-348h299v-86h-299v-436q48 -10 88 -15.5t72 -5.5q88 -1 162.5 30.5t129 90.5t85.5 144t31 192z" />
    <glyph glyph-name="Ntilde" unicode="&#xd1;" horiz-adv-x="1114" 
d="M1094 995q-48 0 -77 -6t-44.5 -22.5t-20 -45.5t-4.5 -75v-862h-26l-676 823v-629q0 -48 4.5 -77t19.5 -45t44 -21.5t77 -5.5v-29h-356v29q48 0 76.5 6t43.5 22.5t20 45.5t5 75v711q-19 26 -35.5 45.5t-35 33t-43 20.5t-58.5 7v27h250l625 -766v590q0 46 -5 75t-20.5 45.5
t-44 22.5t-76.5 6v27h357v-27zM808 1343q-3 -31 -17 -60.5t-36 -53t-50 -37.5t-61 -14q-42 0 -68 11t-48 24.5t-45.5 25t-60.5 11.5q-16 0 -31 -6.5t-27 -16.5t-20.5 -23t-9.5 -26h-40q8 33 22 62t35 50t49.5 33t64.5 12q30 0 53 -10.5t45 -23.5t45 -23.5t53 -10.5
q37 0 67.5 19.5t39.5 56.5h40z" />
    <glyph glyph-name="Ograve" unicode="&#xd2;" horiz-adv-x="1114" 
d="M1055 516q0 -109 -36 -207t-101.5 -172.5t-158 -118t-206.5 -43.5t-206.5 43t-158 116.5t-100.5 171.5t-35 208q0 111 37.5 207.5t105.5 168t162 113t207 41.5q111 0 201 -42.5t154.5 -115t99.5 -168.5t35 -202zM883 506q0 56 -5.5 114t-19.5 112t-38 101t-61 82
t-89 55.5t-121 20.5q-64 0 -112.5 -20.5t-84.5 -55.5t-60 -82t-38.5 -99.5t-20.5 -108t-6 -107.5q0 -51 6 -107t21 -110t39 -103t60 -86t85 -59t113 -22q67 0 117.5 20t87.5 54.5t61.5 81t39 99t20.5 109t6 111.5zM639 1116l-221 140q-68 42 -68 67q0 58 47 58q40 0 90 -50
l215 -215h-63z" />
    <glyph glyph-name="Oacute" unicode="&#xd3;" horiz-adv-x="1114" 
d="M1055 516q0 -109 -36 -207t-101.5 -172.5t-158 -118t-206.5 -43.5t-206.5 43t-158 116.5t-100.5 171.5t-35 208q0 111 37.5 207.5t105.5 168t162 113t207 41.5q111 0 201 -42.5t154.5 -115t99.5 -168.5t35 -202zM883 506q0 56 -5.5 114t-19.5 112t-38 101t-61 82
t-89 55.5t-121 20.5q-64 0 -112.5 -20.5t-84.5 -55.5t-60 -82t-38.5 -99.5t-20.5 -108t-6 -107.5q0 -51 6 -107t21 -110t39 -103t60 -86t85 -59t113 -22q67 0 117.5 20t87.5 54.5t61.5 81t39 99t20.5 109t6 111.5zM761 1331q0 -12 -6 -23t-15.5 -20.5t-20 -17.5t-19.5 -14
l-223 -140h-62l213 215q19 19 42.5 34.5t51.5 15.5q7 0 14 -5t12.5 -12.5t9 -16.5t3.5 -16z" />
    <glyph glyph-name="Ocircumflex" unicode="&#xd4;" horiz-adv-x="1114" 
d="M1055 516q0 -109 -36 -207t-101.5 -172.5t-158 -118t-206.5 -43.5t-206.5 43t-158 116.5t-100.5 171.5t-35 208q0 111 37.5 207.5t105.5 168t162 113t207 41.5q111 0 201 -42.5t154.5 -115t99.5 -168.5t35 -202zM883 506q0 56 -5.5 114t-19.5 112t-38 101t-61 82
t-89 55.5t-121 20.5q-64 0 -112.5 -20.5t-84.5 -55.5t-60 -82t-38.5 -99.5t-20.5 -108t-6 -107.5q0 -51 6 -107t21 -110t39 -103t60 -86t85 -59t113 -22q67 0 117.5 20t87.5 54.5t61.5 81t39 99t20.5 109t6 111.5zM742 1106l-188 160l-189 -160h-53l195 258h96l192 -258h-53
z" />
    <glyph glyph-name="Otilde" unicode="&#xd5;" horiz-adv-x="1114" 
d="M1055 516q0 -109 -36 -207t-101.5 -172.5t-158 -118t-206.5 -43.5t-206.5 43t-158 116.5t-100.5 171.5t-35 208q0 111 37.5 207.5t105.5 168t162 113t207 41.5q111 0 201 -42.5t154.5 -115t99.5 -168.5t35 -202zM883 506q0 56 -5.5 114t-19.5 112t-38 101t-61 82
t-89 55.5t-121 20.5q-64 0 -112.5 -20.5t-84.5 -55.5t-60 -82t-38.5 -99.5t-20.5 -108t-6 -107.5q0 -51 6 -107t21 -110t39 -103t60 -86t85 -59t113 -22q67 0 117.5 20t87.5 54.5t61.5 81t39 99t20.5 109t6 111.5zM811 1343q-3 -31 -17 -60.5t-36 -53t-50 -37.5t-61 -14
q-42 0 -68 11t-48 24.5t-45.5 25t-60.5 11.5q-16 0 -31 -6.5t-27 -16.5t-20.5 -23t-9.5 -26h-40q8 33 22 62t35 50t49.5 33t64.5 12q30 0 53 -10.5t45 -23.5t45 -23.5t53 -10.5q37 0 67.5 19.5t39.5 56.5h40z" />
    <glyph glyph-name="Odieresis" unicode="&#xd6;" horiz-adv-x="1114" 
d="M1055 516q0 -109 -36 -207t-101.5 -172.5t-158 -118t-206.5 -43.5t-206.5 43t-158 116.5t-100.5 171.5t-35 208q0 111 37.5 207.5t105.5 168t162 113t207 41.5q111 0 201 -42.5t154.5 -115t99.5 -168.5t35 -202zM883 506q0 56 -5.5 114t-19.5 112t-38 101t-61 82
t-89 55.5t-121 20.5q-64 0 -112.5 -20.5t-84.5 -55.5t-60 -82t-38.5 -99.5t-20.5 -108t-6 -107.5q0 -51 6 -107t21 -110t39 -103t60 -86t85 -59t113 -22q67 0 117.5 20t87.5 54.5t61.5 81t39 99t20.5 109t6 111.5zM773 1246q0 -16 -6 -30.5t-16.5 -25t-24.5 -16.5t-29 -6
q-31 0 -54.5 23.5t-23.5 54.5q0 15 6.5 28.5t17.5 24t25 16.5t29 6q31 0 53.5 -22t22.5 -53zM466 1246q0 -16 -6.5 -30.5t-17 -25t-25 -16.5t-29.5 -6q-31 0 -53.5 23.5t-22.5 54.5q0 15 6.5 28.5t17 24t24 16.5t28.5 6q31 0 54.5 -22t23.5 -53z" />
    <glyph glyph-name="multiply" unicode="&#xd7;" horiz-adv-x="983" 
d="M96 815l56 55l342 -342l344 342l55 -55l-342 -344l342 -342l-55 -55l-344 342l-342 -342l-56 55l342 342z" />
    <glyph glyph-name="Oslash" unicode="&#xd8;" horiz-adv-x="1116" 
d="M1056 519q0 -118 -40.5 -217.5t-109 -172t-158 -113t-187.5 -40.5q-38 0 -78.5 6.5t-81 20t-80 34t-73.5 48.5l-96 -121l-45 36l100 123q-152 155 -152 400q0 110 39 205.5t107 166t160 111t198 40.5q171 0 306 -113l99 122l45 -33l-103 -125q41 -43 69.5 -85.5
t46.5 -88.5t26 -96t8 -108zM802 856q-87 136 -248 136q-95 0 -157.5 -42.5t-100.5 -110t-53.5 -150t-15.5 -163.5q0 -174 55 -308zM883 495q0 39 -1.5 73.5t-7 70.5t-16 75.5t-29.5 87.5l-516 -639q52 -74 110 -103t127 -29q70 0 130.5 25t105.5 80.5t71 144t26 214.5z" />
    <glyph glyph-name="Ugrave" unicode="&#xd9;" horiz-adv-x="1114" 
d="M1100 995q-46 0 -75 -8.5t-45 -27t-22 -49t-6 -74.5v-416q0 -105 -19.5 -187.5t-65 -139.5t-121.5 -87.5t-189 -30.5q-125 0 -203.5 31t-122.5 90.5t-59.5 146t-15.5 197.5v402q0 42 -4 71t-17.5 47.5t-40 26.5t-71.5 8v27h411v-27q-44 0 -70 -8t-40 -26.5t-18.5 -47.5
t-4.5 -71v-447q0 -71 9.5 -135.5t38 -113t81 -77t137.5 -28.5q69 0 132 22t114 70q25 23 39 60.5t21 79t8.5 82.5t1.5 73v414q0 48 -4.5 77.5t-20 46.5t-44.5 23t-77 6v27h363v-27zM646 1116l-221 140q-68 42 -68 67q0 58 47 58q40 0 90 -50l215 -215h-63z" />
    <glyph glyph-name="Uacute" unicode="&#xda;" horiz-adv-x="1114" 
d="M1100 995q-46 0 -75 -8.5t-45 -27t-22 -49t-6 -74.5v-416q0 -105 -19.5 -187.5t-65 -139.5t-121.5 -87.5t-189 -30.5q-125 0 -203.5 31t-122.5 90.5t-59.5 146t-15.5 197.5v402q0 42 -4 71t-17.5 47.5t-40 26.5t-71.5 8v27h411v-27q-44 0 -70 -8t-40 -26.5t-18.5 -47.5
t-4.5 -71v-447q0 -71 9.5 -135.5t38 -113t81 -77t137.5 -28.5q69 0 132 22t114 70q25 23 39 60.5t21 79t8.5 82.5t1.5 73v414q0 48 -4.5 77.5t-20 46.5t-44.5 23t-77 6v27h363v-27zM768 1331q0 -12 -6 -23t-15.5 -20.5t-20 -17.5t-19.5 -14l-223 -140h-62l213 215
q19 19 42.5 34.5t51.5 15.5q7 0 14 -5t12.5 -12.5t9 -16.5t3.5 -16z" />
    <glyph glyph-name="Ucircumflex" unicode="&#xdb;" horiz-adv-x="1114" 
d="M1100 995q-46 0 -75 -8.5t-45 -27t-22 -49t-6 -74.5v-416q0 -105 -19.5 -187.5t-65 -139.5t-121.5 -87.5t-189 -30.5q-125 0 -203.5 31t-122.5 90.5t-59.5 146t-15.5 197.5v402q0 42 -4 71t-17.5 47.5t-40 26.5t-71.5 8v27h411v-27q-44 0 -70 -8t-40 -26.5t-18.5 -47.5
t-4.5 -71v-447q0 -71 9.5 -135.5t38 -113t81 -77t137.5 -28.5q69 0 132 22t114 70q25 23 39 60.5t21 79t8.5 82.5t1.5 73v414q0 48 -4.5 77.5t-20 46.5t-44.5 23t-77 6v27h363v-27zM749 1106l-188 160l-189 -160h-53l195 258h96l192 -258h-53z" />
    <glyph glyph-name="Udieresis" unicode="&#xdc;" horiz-adv-x="1114" 
d="M1100 995q-46 0 -75 -8.5t-45 -27t-22 -49t-6 -74.5v-416q0 -105 -19.5 -187.5t-65 -139.5t-121.5 -87.5t-189 -30.5q-125 0 -203.5 31t-122.5 90.5t-59.5 146t-15.5 197.5v402q0 42 -4 71t-17.5 47.5t-40 26.5t-71.5 8v27h411v-27q-44 0 -70 -8t-40 -26.5t-18.5 -47.5
t-4.5 -71v-447q0 -71 9.5 -135.5t38 -113t81 -77t137.5 -28.5q69 0 132 22t114 70q25 23 39 60.5t21 79t8.5 82.5t1.5 73v414q0 48 -4.5 77.5t-20 46.5t-44.5 23t-77 6v27h363v-27zM780 1246q0 -16 -6 -30.5t-16.5 -25t-24.5 -16.5t-29 -6q-31 0 -54.5 23.5t-23.5 54.5
q0 15 6.5 28.5t17.5 24t25 16.5t29 6q31 0 53.5 -22t22.5 -53zM473 1246q0 -16 -6.5 -30.5t-17 -25t-25 -16.5t-29.5 -6q-31 0 -53.5 23.5t-22.5 54.5q0 15 6.5 28.5t17 24t24 16.5t28.5 6q31 0 54.5 -22t23.5 -53z" />
    <glyph glyph-name="Yacute" unicode="&#xdd;" horiz-adv-x="1114" 
d="M1094 995q-45 0 -77 -15t-57.5 -39t-46 -55.5t-41.5 -64.5l-247 -387v-256q0 -47 5 -76t20 -45.5t43.5 -22t76.5 -5.5v-29h-434v29q48 0 76 6t42.5 22.5t18.5 45.5t4 75v242l-278 428q-16 25 -34.5 51t-40.5 47.5t-49 35t-61 13.5v27h437v-27q-16 0 -36.5 -2t-38.5 -8.5
t-30 -20t-12 -36.5q0 -15 18.5 -51.5t47 -83t61.5 -97t61.5 -93t48 -71.5t21.5 -32l203 315q6 10 14 23.5t14.5 28t11.5 29t5 26.5q0 21 -10 35t-25 22.5t-33 12t-35 3.5v27h357v-27zM761 1331q0 -12 -6 -23t-15.5 -20.5t-20 -17.5t-19.5 -14l-223 -140h-62l213 215
q19 19 42.5 34.5t51.5 15.5q7 0 14 -5t12.5 -12.5t9 -16.5t3.5 -16z" />
    <glyph glyph-name="Thorn" unicode="&#xde;" horiz-adv-x="859" 
d="M801 513q0 -57 -22.5 -106t-59.5 -86q-20 -20 -43 -36.5t-61 -28.5t-96.5 -19t-148.5 -7h-54v-46q0 -95 27 -127q26 -29 89 -29h32v-28h-436v28h27q72 0 101 42q15 19 15 111v655q0 87 -9 104q-7 23 -35 39t-70 16h-29v27h436v-27h-32q-12 0 -27.5 -3t-30.5 -9.5t-27 -17
t-17 -25.5q-4 -12 -7 -22.5t-4.5 -21t-2 -24t-0.5 -31.5v-50h57q68 0 115 -3t81.5 -10t59.5 -18t49 -27q52 -36 87.5 -90.5t35.5 -129.5zM625 511q0 55 -21.5 101.5t-63.5 76.5q-15 10 -27 18.5t-30.5 14t-49 8.5t-81.5 3h-36v-451h34q75 0 127.5 17.5t85.5 48.5t47.5 73
t14.5 90z" />
    <glyph glyph-name="germandbls" unicode="&#xdf;" horiz-adv-x="773" 
d="M723 318q0 -65 -17.5 -124t-50.5 -104t-80 -72t-106 -27q-63 0 -103 34t-42 88q-2 29 14.5 47t45.5 18q30 0 45.5 -16t17.5 -43q1 -11 -4 -27.5t-5 -23.5q0 -18 12 -25.5t32 -9.5q50 0 81 50.5t31 152.5q0 77 -13 139.5t-40 107.5t-69 70.5t-99 30.5v43q38 0 68 10.5
t51 34.5t32 63t11 97q0 51 -10.5 87t-30 59t-46 33.5t-58.5 10.5q-30 0 -55.5 -9.5t-43.5 -35.5t-28.5 -73.5t-10.5 -122.5v-781h-225v28q29 1 48 7t30.5 21.5t16 42.5t4.5 70v561q0 91 17.5 156.5t51.5 106.5t84 60.5t116 19.5q60 0 109.5 -18t84 -50t53.5 -77.5t19 -99.5
q0 -29 -5.5 -58.5t-21 -56.5t-43.5 -51t-74 -43q99 -28 152.5 -101.5t53.5 -199.5z" />
    <glyph glyph-name="agrave" unicode="&#xe0;" horiz-adv-x="686" 
d="M684 100q-14 -19 -31.5 -39.5t-38 -37t-44.5 -27t-50 -10.5q-24 0 -39.5 10t-24.5 26.5t-12.5 36.5t-3.5 41l-50 -40t-52 -36.5t-56 -27t-63 -10.5q-39 0 -69.5 13.5t-51.5 37.5t-32 56.5t-11 70.5q0 42 19.5 77t51.5 64t73 52.5t84 42t84 32.5t73 25v28q0 35 -4.5 67.5
t-18.5 58t-39 40.5t-67 15q-35 0 -55 -9.5t-30.5 -27t-13.5 -41t-3 -51.5q0 -34 -13 -53t-51 -19q-35 0 -49 20t-14 52q0 47 25 80t62.5 54t81.5 30.5t83 9.5q65 0 109.5 -12.5t71.5 -41t38.5 -73.5t11.5 -109v-235q0 -29 -0.5 -61t4.5 -60q3 -14 9.5 -25.5t23.5 -11.5
q9 0 20.5 7.5t23.5 17.5t22.5 20.5l15.5 15.5v-43zM440 414q-35 -14 -79.5 -32.5t-84 -44t-67 -59.5t-27.5 -79q0 -23 7 -45t21 -40t33.5 -29t45.5 -11q20 0 40 7t39.5 18.5t38 25t33.5 25.5v264zM421 786l-221 140q-68 42 -68 67q0 58 47 58q40 0 90 -50l215 -215h-63z" />
    <glyph glyph-name="aacute" unicode="&#xe1;" horiz-adv-x="686" 
d="M684 100q-14 -19 -31.5 -39.5t-38 -37t-44.5 -27t-50 -10.5q-24 0 -39.5 10t-24.5 26.5t-12.5 36.5t-3.5 41l-50 -40t-52 -36.5t-56 -27t-63 -10.5q-39 0 -69.5 13.5t-51.5 37.5t-32 56.5t-11 70.5q0 42 19.5 77t51.5 64t73 52.5t84 42t84 32.5t73 25v28q0 35 -4.5 67.5
t-18.5 58t-39 40.5t-67 15q-35 0 -55 -9.5t-30.5 -27t-13.5 -41t-3 -51.5q0 -34 -13 -53t-51 -19q-35 0 -49 20t-14 52q0 47 25 80t62.5 54t81.5 30.5t83 9.5q65 0 109.5 -12.5t71.5 -41t38.5 -73.5t11.5 -109v-235q0 -29 -0.5 -61t4.5 -60q3 -14 9.5 -25.5t23.5 -11.5
q9 0 20.5 7.5t23.5 17.5t22.5 20.5l15.5 15.5v-43zM440 414q-35 -14 -79.5 -32.5t-84 -44t-67 -59.5t-27.5 -79q0 -23 7 -45t21 -40t33.5 -29t45.5 -11q20 0 40 7t39.5 18.5t38 25t33.5 25.5v264zM543 1001q0 -12 -6 -23t-15.5 -20.5t-20 -17.5t-19.5 -14l-223 -140h-62
l213 215q19 19 42.5 34.5t51.5 15.5q7 0 14 -5t12.5 -12.5t9 -16.5t3.5 -16z" />
    <glyph glyph-name="acircumflex" unicode="&#xe2;" horiz-adv-x="686" 
d="M684 100q-14 -19 -31.5 -39.5t-38 -37t-44.5 -27t-50 -10.5q-24 0 -39.5 10t-24.5 26.5t-12.5 36.5t-3.5 41l-50 -40t-52 -36.5t-56 -27t-63 -10.5q-39 0 -69.5 13.5t-51.5 37.5t-32 56.5t-11 70.5q0 42 19.5 77t51.5 64t73 52.5t84 42t84 32.5t73 25v28q0 35 -4.5 67.5
t-18.5 58t-39 40.5t-67 15q-35 0 -55 -9.5t-30.5 -27t-13.5 -41t-3 -51.5q0 -34 -13 -53t-51 -19q-35 0 -49 20t-14 52q0 47 25 80t62.5 54t81.5 30.5t83 9.5q65 0 109.5 -12.5t71.5 -41t38.5 -73.5t11.5 -109v-235q0 -29 -0.5 -61t4.5 -60q3 -14 9.5 -25.5t23.5 -11.5
q9 0 20.5 7.5t23.5 17.5t22.5 20.5l15.5 15.5v-43zM440 414q-35 -14 -79.5 -32.5t-84 -44t-67 -59.5t-27.5 -79q0 -23 7 -45t21 -40t33.5 -29t45.5 -11q20 0 40 7t39.5 18.5t38 25t33.5 25.5v264zM524 776l-188 160l-189 -160h-53l195 258h96l192 -258h-53z" />
    <glyph glyph-name="atilde" unicode="&#xe3;" horiz-adv-x="686" 
d="M684 100q-14 -19 -31.5 -39.5t-38 -37t-44.5 -27t-50 -10.5q-24 0 -39.5 10t-24.5 26.5t-12.5 36.5t-3.5 41l-50 -40t-52 -36.5t-56 -27t-63 -10.5q-39 0 -69.5 13.5t-51.5 37.5t-32 56.5t-11 70.5q0 42 19.5 77t51.5 64t73 52.5t84 42t84 32.5t73 25v28q0 35 -4.5 67.5
t-18.5 58t-39 40.5t-67 15q-35 0 -55 -9.5t-30.5 -27t-13.5 -41t-3 -51.5q0 -34 -13 -53t-51 -19q-35 0 -49 20t-14 52q0 47 25 80t62.5 54t81.5 30.5t83 9.5q65 0 109.5 -12.5t71.5 -41t38.5 -73.5t11.5 -109v-235q0 -29 -0.5 -61t4.5 -60q3 -14 9.5 -25.5t23.5 -11.5
q9 0 20.5 7.5t23.5 17.5t22.5 20.5l15.5 15.5v-43zM440 414q-35 -14 -79.5 -32.5t-84 -44t-67 -59.5t-27.5 -79q0 -23 7 -45t21 -40t33.5 -29t45.5 -11q20 0 40 7t39.5 18.5t38 25t33.5 25.5v264zM593 1013q-3 -31 -17 -60.5t-36 -53t-50 -37.5t-61 -14q-42 0 -68 11
t-48 24.5t-45.5 25t-60.5 11.5q-16 0 -31 -6.5t-27 -16.5t-20.5 -23t-9.5 -26h-40q8 33 22 62t35 50t49.5 33t64.5 12q30 0 53 -10.5t45 -23.5t45 -23.5t53 -10.5q37 0 67.5 19.5t39.5 56.5h40z" />
    <glyph glyph-name="adieresis" unicode="&#xe4;" horiz-adv-x="686" 
d="M684 100q-14 -19 -31.5 -39.5t-38 -37t-44.5 -27t-50 -10.5q-24 0 -39.5 10t-24.5 26.5t-12.5 36.5t-3.5 41l-50 -40t-52 -36.5t-56 -27t-63 -10.5q-39 0 -69.5 13.5t-51.5 37.5t-32 56.5t-11 70.5q0 42 19.5 77t51.5 64t73 52.5t84 42t84 32.5t73 25v28q0 35 -4.5 67.5
t-18.5 58t-39 40.5t-67 15q-35 0 -55 -9.5t-30.5 -27t-13.5 -41t-3 -51.5q0 -34 -13 -53t-51 -19q-35 0 -49 20t-14 52q0 47 25 80t62.5 54t81.5 30.5t83 9.5q65 0 109.5 -12.5t71.5 -41t38.5 -73.5t11.5 -109v-235q0 -29 -0.5 -61t4.5 -60q3 -14 9.5 -25.5t23.5 -11.5
q9 0 20.5 7.5t23.5 17.5t22.5 20.5l15.5 15.5v-43zM440 414q-35 -14 -79.5 -32.5t-84 -44t-67 -59.5t-27.5 -79q0 -23 7 -45t21 -40t33.5 -29t45.5 -11q20 0 40 7t39.5 18.5t38 25t33.5 25.5v264zM555 916q0 -16 -6 -30.5t-16.5 -25t-24.5 -16.5t-29 -6q-31 0 -54.5 23.5
t-23.5 54.5q0 15 6.5 28.5t17.5 24t25 16.5t29 6q31 0 53.5 -22t22.5 -53zM248 916q0 -16 -6.5 -30.5t-17 -25t-25 -16.5t-29.5 -6q-31 0 -53.5 23.5t-22.5 54.5q0 15 6.5 28.5t17 24t24 16.5t28.5 6q31 0 54.5 -22t23.5 -53z" />
    <glyph glyph-name="aring" unicode="&#xe5;" horiz-adv-x="686" 
d="M684 100q-14 -19 -31.5 -39.5t-38 -37t-44.5 -27t-50 -10.5q-24 0 -39.5 10t-24.5 26.5t-12.5 36.5t-3.5 41l-50 -40t-52 -36.5t-56 -27t-63 -10.5q-39 0 -69.5 13.5t-51.5 37.5t-32 56.5t-11 70.5q0 42 19.5 77t51.5 64t73 52.5t84 42t84 32.5t73 25v28q0 35 -4.5 67.5
t-18.5 58t-39 40.5t-67 15q-35 0 -55 -9.5t-30.5 -27t-13.5 -41t-3 -51.5q0 -34 -13 -53t-51 -19q-35 0 -49 20t-14 52q0 47 25 80t62.5 54t81.5 30.5t83 9.5q65 0 109.5 -12.5t71.5 -41t38.5 -73.5t11.5 -109v-235q0 -29 -0.5 -61t4.5 -60q3 -14 9.5 -25.5t23.5 -11.5
q9 0 20.5 7.5t23.5 17.5t22.5 20.5l15.5 15.5v-43zM440 414q-35 -14 -79.5 -32.5t-84 -44t-67 -59.5t-27.5 -79q0 -23 7 -45t21 -40t33.5 -29t45.5 -11q20 0 40 7t39.5 18.5t38 25t33.5 25.5v264zM480 930q0 -32 -12 -58.5t-32 -45.5t-45.5 -29.5t-52.5 -10.5t-53 10.5
t-47 29.5t-33.5 45.5t-12.5 58.5t12 58.5t32 45.5t46.5 29.5t55.5 10.5q27 0 52.5 -10t45.5 -28.5t32 -45.5t12 -60zM428 930q0 21 -7.5 38t-20 29t-29 18.5t-33.5 6.5q-38 0 -66 -25.5t-28 -66.5q0 -22 8 -39t21 -29t30 -18t35 -6q19 0 35.5 7.5t28.5 20t19 29.5t7 35z" />
    <glyph glyph-name="ae" unicode="&#xe6;" horiz-adv-x="1031" 
d="M984 241q-14 -51 -36.5 -98.5t-56.5 -84t-80 -58.5t-107 -22q-26 0 -52 3t-53 15t-55.5 36t-61.5 67q-17 -14 -42 -34.5t-58 -40t-73 -33t-85 -13.5q-35 0 -65.5 13.5t-53.5 37t-36.5 55.5t-13.5 68q0 52 20 90t64 70.5t114.5 64.5t171.5 73v69q0 83 -30 116.5t-82 33.5
q-49 0 -77 -23.5t-29 -57.5q-1 -39 -5 -62.5t-11 -35.5t-18 -16.5t-26 -5.5q-37 0 -52.5 21.5t-15.5 50.5q0 28 15 58t46 55t79 41t114 16q94 0 141 -25.5t62 -65.5q37 51 86 71t116 20q112 0 178 -73t68 -209h-431q0 -93 7.5 -152t30.5 -96q15 -26 34.5 -43t40.5 -27
t42 -14t38 -4q11 0 36 2.5t56 18t63.5 49.5t58.5 96zM839 477q-1 48 -12 82.5t-29.5 56.5t-43.5 32t-54 10t-55.5 -11t-46.5 -33.5t-32 -56.5t-13 -80h286zM461 140q-8 15 -14.5 37t-11.5 47.5t-7.5 54t-2.5 55.5v67q-42 -16 -85.5 -34.5t-78 -42.5t-56.5 -55.5t-22 -74.5
q0 -28 9.5 -52t25.5 -42.5t38 -29t47 -11.5q15 0 29.5 3t32.5 12t41 25t55 41z" />
    <glyph glyph-name="ccedilla" unicode="&#xe7;" horiz-adv-x="686" 
d="M539 -218q0 -36 -20 -60.5t-50 -40t-65 -22t-64 -6.5q-62 0 -125 23l23 49q49 -19 96 -19q17 0 33 3t29 10.5t20.5 20t7.5 32.5q0 34 -20 46.5t-51 12.5q-14 0 -28 -1.5t-28 -6.5l-10 8l60 146h-1q-75 0 -130.5 32.5t-92 85t-54.5 118t-18 131.5q0 72 23 138.5t66 117.5
t104 81t137 30q34 0 75.5 -10.5t76.5 -31.5t59 -52t24 -72q0 -34 -19.5 -49t-51.5 -15q-34 0 -50 13.5t-23 33.5t-10 43.5t-12.5 43.5t-30.5 33.5t-63 13.5q-50 0 -84.5 -23.5t-55.5 -60.5t-30.5 -81.5t-9.5 -86.5q0 -51 12 -106t39 -101t69.5 -75.5t102.5 -29.5q42 0 75 14
t58.5 38t45 55.5t34.5 66.5l23 -10q-8 -47 -27 -91.5t-49 -82t-69 -65t-85 -38.5l-38 -100q11 2 21.5 3t21.5 1q25 0 48.5 -6.5t41.5 -19.5t28.5 -33t10.5 -48z" />
    <glyph glyph-name="egrave" unicode="&#xe8;" horiz-adv-x="686" 
d="M641 252q-8 -54 -31.5 -103.5t-60.5 -87.5t-85.5 -61t-105.5 -23q-74 0 -130.5 31t-94.5 82t-57 115.5t-19 132.5q0 75 19.5 142.5t59 118.5t100 81.5t141.5 30.5q62 0 111 -21t83 -58.5t52 -89t18 -112.5h-477q0 -56 15 -114t46 -105.5t78.5 -78t112.5 -30.5
q40 0 71.5 12.5t56 35t42.5 53t32 65.5zM483 473q0 34 -8.5 67.5t-27 59t-46.5 41.5t-67 16t-69 -15.5t-51.5 -41t-34 -59t-15.5 -68.5h319zM460 786l-221 140q-68 42 -68 67q0 58 47 58q40 0 90 -50l215 -215h-63z" />
    <glyph glyph-name="eacute" unicode="&#xe9;" horiz-adv-x="686" 
d="M641 252q-8 -54 -31.5 -103.5t-60.5 -87.5t-85.5 -61t-105.5 -23q-74 0 -130.5 31t-94.5 82t-57 115.5t-19 132.5q0 75 19.5 142.5t59 118.5t100 81.5t141.5 30.5q62 0 111 -21t83 -58.5t52 -89t18 -112.5h-477q0 -56 15 -114t46 -105.5t78.5 -78t112.5 -30.5
q40 0 71.5 12.5t56 35t42.5 53t32 65.5zM483 473q0 34 -8.5 67.5t-27 59t-46.5 41.5t-67 16t-69 -15.5t-51.5 -41t-34 -59t-15.5 -68.5h319zM582 1001q0 -12 -6 -23t-15.5 -20.5t-20 -17.5t-19.5 -14l-223 -140h-62l213 215q19 19 42.5 34.5t51.5 15.5q7 0 14 -5t12.5 -12.5
t9 -16.5t3.5 -16z" />
    <glyph glyph-name="ecircumflex" unicode="&#xea;" horiz-adv-x="686" 
d="M641 252q-8 -54 -31.5 -103.5t-60.5 -87.5t-85.5 -61t-105.5 -23q-74 0 -130.5 31t-94.5 82t-57 115.5t-19 132.5q0 75 19.5 142.5t59 118.5t100 81.5t141.5 30.5q62 0 111 -21t83 -58.5t52 -89t18 -112.5h-477q0 -56 15 -114t46 -105.5t78.5 -78t112.5 -30.5
q40 0 71.5 12.5t56 35t42.5 53t32 65.5zM483 473q0 34 -8.5 67.5t-27 59t-46.5 41.5t-67 16t-69 -15.5t-51.5 -41t-34 -59t-15.5 -68.5h319zM563 776l-188 160l-189 -160h-53l195 258h96l192 -258h-53z" />
    <glyph glyph-name="edieresis" unicode="&#xeb;" horiz-adv-x="686" 
d="M641 252q-8 -54 -31.5 -103.5t-60.5 -87.5t-85.5 -61t-105.5 -23q-74 0 -130.5 31t-94.5 82t-57 115.5t-19 132.5q0 75 19.5 142.5t59 118.5t100 81.5t141.5 30.5q62 0 111 -21t83 -58.5t52 -89t18 -112.5h-477q0 -56 15 -114t46 -105.5t78.5 -78t112.5 -30.5
q40 0 71.5 12.5t56 35t42.5 53t32 65.5zM483 473q0 34 -8.5 67.5t-27 59t-46.5 41.5t-67 16t-69 -15.5t-51.5 -41t-34 -59t-15.5 -68.5h319zM594 916q0 -16 -6 -30.5t-16.5 -25t-24.5 -16.5t-29 -6q-31 0 -54.5 23.5t-23.5 54.5q0 15 6.5 28.5t17.5 24t25 16.5t29 6
q31 0 53.5 -22t22.5 -53zM287 916q0 -16 -6.5 -30.5t-17 -25t-25 -16.5t-29.5 -6q-31 0 -53.5 23.5t-22.5 54.5q0 15 6.5 28.5t17 24t24 16.5t28.5 6q31 0 54.5 -22t23.5 -53z" />
    <glyph glyph-name="igrave" unicode="&#xec;" horiz-adv-x="430" 
d="M57 0v29q34 0 55 5t32.5 18t15.5 34.5t4 54.5v369q0 13 -1.5 30.5t-6.5 33.5t-16 27t-29 11q-13 0 -26.5 -3.5t-27.5 -8.5l-10 27l209 84h33v-570q0 -33 4 -54.5t15.5 -34.5t32 -18t54.5 -5v-29h-338zM306 786l-221 140q-68 42 -68 67q0 58 47 58q40 0 90 -50l215 -215
h-63z" />
    <glyph glyph-name="iacute" unicode="&#xed;" horiz-adv-x="430" 
d="M57 0v29q34 0 55 5t32.5 18t15.5 34.5t4 54.5v369q0 13 -1.5 30.5t-6.5 33.5t-16 27t-29 11q-13 0 -26.5 -3.5t-27.5 -8.5l-10 27l209 84h33v-570q0 -33 4 -54.5t15.5 -34.5t32 -18t54.5 -5v-29h-338zM428 1001q0 -12 -6 -23t-15.5 -20.5t-20 -17.5t-19.5 -14l-223 -140
h-62l213 215q19 19 42.5 34.5t51.5 15.5q7 0 14 -5t12.5 -12.5t9 -16.5t3.5 -16z" />
    <glyph glyph-name="icircumflex" unicode="&#xee;" horiz-adv-x="430" 
d="M57 0v29q34 0 55 5t32.5 18t15.5 34.5t4 54.5v369q0 13 -1.5 30.5t-6.5 33.5t-16 27t-29 11q-13 0 -26.5 -3.5t-27.5 -8.5l-10 27l209 84h33v-570q0 -33 4 -54.5t15.5 -34.5t32 -18t54.5 -5v-29h-338zM409 776l-188 160l-189 -160h-53l195 258h96l192 -258h-53z" />
    <glyph glyph-name="idieresis" unicode="&#xef;" horiz-adv-x="430" 
d="M57 0v29q34 0 55 5t32.5 18t15.5 34.5t4 54.5v369q0 13 -1.5 30.5t-6.5 33.5t-16 27t-29 11q-13 0 -26.5 -3.5t-27.5 -8.5l-10 27l209 84h33v-570q0 -33 4 -54.5t15.5 -34.5t32 -18t54.5 -5v-29h-338zM440 916q0 -16 -6 -30.5t-16.5 -25t-24.5 -16.5t-29 -6
q-31 0 -54.5 23.5t-23.5 54.5q0 15 6.5 28.5t17.5 24t25 16.5t29 6q31 0 53.5 -22t22.5 -53zM133 916q0 -16 -6.5 -30.5t-17 -25t-25 -16.5t-29.5 -6q-31 0 -53.5 23.5t-22.5 54.5q0 15 6.5 28.5t17 24t24 16.5t28.5 6q31 0 54.5 -22t23.5 -53z" />
    <glyph glyph-name="eth" unicode="&#xf0;" horiz-adv-x="773" 
d="M716 357q0 -72 -23 -140t-66.5 -121t-106.5 -85.5t-143 -32.5q-69 0 -128.5 27t-103.5 74.5t-69 112.5t-25 141q0 72 23.5 139t66 118.5t101 82.5t127.5 31q16 0 29.5 -0.5t27.5 -4.5t31 -13t39 -25q-30 62 -65 117t-78 105l-187 -103l-20 42l175 99q-25 25 -42 41
t-32 28.5t-30.5 23.5t-36.5 26l19 33q46 -23 92 -52t95 -64l188 104l26 -42l-173 -98q69 -62 123 -131t91 -141.5t56 -146t19 -145.5zM577 284q0 86 -15.5 155.5t-44 118t-68.5 75t-88 26.5q-33 0 -63.5 -13t-54 -44t-38 -82.5t-15.5 -128.5q0 -75 15.5 -140t45 -113.5
t70.5 -76.5t92 -28q35 0 65 14t52 44.5t34.5 78t12.5 114.5z" />
    <glyph glyph-name="ntilde" unicode="&#xf1;" horiz-adv-x="772" 
d="M424 0v29q39 0 61.5 6t34 20.5t14.5 39t3 61.5v282q0 29 -2.5 61t-13.5 58.5t-33 43.5t-60 17q-27 0 -52 -8.5t-47.5 -22t-42 -31.5t-36.5 -36v-364q0 -36 3 -60.5t14 -39.5t33.5 -21t61.5 -6v-29h-344v29q38 0 59 7.5t31.5 23t12.5 39.5t2 57v258q0 16 1 49t-2.5 66
t-15 58t-36.5 25q-13 0 -26 -3.5t-26 -8.5l-10 27l211 84h31v-146q21 25 46.5 51t54.5 47t62 34.5t68 13.5q56 0 91.5 -23t55.5 -60.5t27 -84t7 -92.5v-295q0 -33 3 -57t13.5 -39.5t32 -23t59.5 -7.5v-29h-346zM646 1013q-3 -31 -17 -60.5t-36 -53t-50 -37.5t-61 -14
q-42 0 -68 11t-48 24.5t-45.5 25t-60.5 11.5q-16 0 -31 -6.5t-27 -16.5t-20.5 -23t-9.5 -26h-40q8 33 22 62t35 50t49.5 33t64.5 12q30 0 53 -10.5t45 -23.5t45 -23.5t53 -10.5q37 0 67.5 19.5t39.5 56.5h40z" />
    <glyph glyph-name="ograve" unicode="&#xf2;" horiz-adv-x="772" 
d="M719 358q0 -75 -23.5 -144t-67.5 -121.5t-107 -84t-142 -31.5q-75 0 -135.5 30t-103 80.5t-66 115.5t-23.5 135q0 73 23.5 140t67.5 119t106 83t139 31q75 0 136.5 -27.5t105 -75.5t67 -112.5t23.5 -137.5zM578 299q0 33 -4 73t-14 80.5t-26 78t-40 67t-57 47t-75 17.5
q-51 0 -84 -25.5t-52 -64t-26 -84.5t-7 -87q0 -33 4.5 -73t14.5 -81t26.5 -79.5t40.5 -68.5t56.5 -48t74.5 -18q54 0 87 25.5t51 65t24 86.5t6 89zM470 786l-221 140q-68 42 -68 67q0 58 47 58q40 0 90 -50l215 -215h-63z" />
    <glyph glyph-name="oacute" unicode="&#xf3;" horiz-adv-x="772" 
d="M719 358q0 -75 -23.5 -144t-67.5 -121.5t-107 -84t-142 -31.5q-75 0 -135.5 30t-103 80.5t-66 115.5t-23.5 135q0 73 23.5 140t67.5 119t106 83t139 31q75 0 136.5 -27.5t105 -75.5t67 -112.5t23.5 -137.5zM578 299q0 33 -4 73t-14 80.5t-26 78t-40 67t-57 47t-75 17.5
q-51 0 -84 -25.5t-52 -64t-26 -84.5t-7 -87q0 -33 4.5 -73t14.5 -81t26.5 -79.5t40.5 -68.5t56.5 -48t74.5 -18q54 0 87 25.5t51 65t24 86.5t6 89zM592 1001q0 -12 -6 -23t-15.5 -20.5t-20 -17.5t-19.5 -14l-223 -140h-62l213 215q19 19 42.5 34.5t51.5 15.5q7 0 14 -5
t12.5 -12.5t9 -16.5t3.5 -16z" />
    <glyph glyph-name="ocircumflex" unicode="&#xf4;" horiz-adv-x="772" 
d="M719 358q0 -75 -23.5 -144t-67.5 -121.5t-107 -84t-142 -31.5q-75 0 -135.5 30t-103 80.5t-66 115.5t-23.5 135q0 73 23.5 140t67.5 119t106 83t139 31q75 0 136.5 -27.5t105 -75.5t67 -112.5t23.5 -137.5zM578 299q0 33 -4 73t-14 80.5t-26 78t-40 67t-57 47t-75 17.5
q-51 0 -84 -25.5t-52 -64t-26 -84.5t-7 -87q0 -33 4.5 -73t14.5 -81t26.5 -79.5t40.5 -68.5t56.5 -48t74.5 -18q54 0 87 25.5t51 65t24 86.5t6 89zM573 776l-188 160l-189 -160h-53l195 258h96l192 -258h-53z" />
    <glyph glyph-name="otilde" unicode="&#xf5;" horiz-adv-x="772" 
d="M719 358q0 -75 -23.5 -144t-67.5 -121.5t-107 -84t-142 -31.5q-75 0 -135.5 30t-103 80.5t-66 115.5t-23.5 135q0 73 23.5 140t67.5 119t106 83t139 31q75 0 136.5 -27.5t105 -75.5t67 -112.5t23.5 -137.5zM578 299q0 33 -4 73t-14 80.5t-26 78t-40 67t-57 47t-75 17.5
q-51 0 -84 -25.5t-52 -64t-26 -84.5t-7 -87q0 -33 4.5 -73t14.5 -81t26.5 -79.5t40.5 -68.5t56.5 -48t74.5 -18q54 0 87 25.5t51 65t24 86.5t6 89zM642 1013q-3 -31 -17 -60.5t-36 -53t-50 -37.5t-61 -14q-42 0 -68 11t-48 24.5t-45.5 25t-60.5 11.5q-16 0 -31 -6.5
t-27 -16.5t-20.5 -23t-9.5 -26h-40q8 33 22 62t35 50t49.5 33t64.5 12q30 0 53 -10.5t45 -23.5t45 -23.5t53 -10.5q37 0 67.5 19.5t39.5 56.5h40z" />
    <glyph glyph-name="odieresis" unicode="&#xf6;" horiz-adv-x="772" 
d="M719 358q0 -75 -23.5 -144t-67.5 -121.5t-107 -84t-142 -31.5q-75 0 -135.5 30t-103 80.5t-66 115.5t-23.5 135q0 73 23.5 140t67.5 119t106 83t139 31q75 0 136.5 -27.5t105 -75.5t67 -112.5t23.5 -137.5zM578 299q0 33 -4 73t-14 80.5t-26 78t-40 67t-57 47t-75 17.5
q-51 0 -84 -25.5t-52 -64t-26 -84.5t-7 -87q0 -33 4.5 -73t14.5 -81t26.5 -79.5t40.5 -68.5t56.5 -48t74.5 -18q54 0 87 25.5t51 65t24 86.5t6 89zM604 916q0 -16 -6 -30.5t-16.5 -25t-24.5 -16.5t-29 -6q-31 0 -54.5 23.5t-23.5 54.5q0 15 6.5 28.5t17.5 24t25 16.5t29 6
q31 0 53.5 -22t22.5 -53zM297 916q0 -16 -6.5 -30.5t-17 -25t-25 -16.5t-29.5 -6q-31 0 -53.5 23.5t-22.5 54.5q0 15 6.5 28.5t17 24t24 16.5t28.5 6q31 0 54.5 -22t23.5 -53z" />
    <glyph glyph-name="divide" unicode="&#xf7;" horiz-adv-x="893" 
d="M791 383h-674v92h674v-92zM360 696q0 19 7 36.5t20 30.5t29.5 20.5t36.5 7.5q19 0 36 -7.5t30 -20.5t20.5 -30.5t7.5 -36.5t-7.5 -36t-20.5 -29.5t-30 -19.5t-36 -7q-20 0 -36.5 7t-29.5 19.5t-20 29.5t-7 36zM360 162q0 19 7 36t20 29.5t29.5 19.5t36.5 7q19 0 36 -7
t30 -19.5t20.5 -29.5t7.5 -36q0 -20 -7.5 -37t-20.5 -30t-30 -20t-36 -7q-39 0 -66 27t-27 67z" />
    <glyph glyph-name="oslash" unicode="&#xf8;" horiz-adv-x="773" 
d="M642 591q38 -51 59 -109.5t21 -124.5q0 -64 -20.5 -131t-63 -122t-106.5 -90.5t-150 -35.5q-30 0 -56.5 4.5t-52 14.5t-52 27t-55.5 41l-101 -116l-35 33l106 120q-18 22 -32.5 51t-25 61t-16.5 65.5t-7 63.5q0 63 22 128t65.5 118.5t106 87t143.5 33.5q31 0 58 -4
t53 -13.5t51.5 -25.5t54.5 -40l100 111l34 -32zM532 543q-21 34 -40 57t-38.5 36.5t-40 19t-44.5 5.5q-38 0 -69.5 -14t-54.5 -45t-36 -80.5t-13 -120.5q0 -46 7 -95.5t23 -101.5zM582 303q0 89 -29 190l-306 -338q20 -35 38 -58.5t37.5 -37.5t41.5 -20t49 -6q36 0 67 13.5
t53.5 45t35.5 83t13 128.5z" />
    <glyph glyph-name="ugrave" unicode="&#xf9;" horiz-adv-x="772" 
d="M565 -23h-35v148q-23 -25 -49 -51t-55.5 -47.5t-62 -35.5t-68.5 -14q-56 0 -91 25t-54.5 64t-26 87t-6.5 93v309q0 34 -6 55t-20 32.5t-36.5 15.5t-54.5 4v28h244v-461q0 -30 4.5 -58t17 -50t35 -35.5t57.5 -13.5q25 0 49 9t46 23t41.5 31.5t35.5 34.5v391q0 31 -6.5 51
t-20 31t-35 15t-50.5 4v28h237v-508q0 -11 1 -29t5.5 -34.5t14 -28.5t26.5 -12q30 0 62 12l10 -27zM472 786l-221 140q-68 42 -68 67q0 58 47 58q40 0 90 -50l215 -215h-63z" />
    <glyph glyph-name="uacute" unicode="&#xfa;" horiz-adv-x="772" 
d="M565 -23h-35v148q-23 -25 -49 -51t-55.5 -47.5t-62 -35.5t-68.5 -14q-56 0 -91 25t-54.5 64t-26 87t-6.5 93v309q0 34 -6 55t-20 32.5t-36.5 15.5t-54.5 4v28h244v-461q0 -30 4.5 -58t17 -50t35 -35.5t57.5 -13.5q25 0 49 9t46 23t41.5 31.5t35.5 34.5v391q0 31 -6.5 51
t-20 31t-35 15t-50.5 4v28h237v-508q0 -11 1 -29t5.5 -34.5t14 -28.5t26.5 -12q30 0 62 12l10 -27zM594 1001q0 -12 -6 -23t-15.5 -20.5t-20 -17.5t-19.5 -14l-223 -140h-62l213 215q19 19 42.5 34.5t51.5 15.5q7 0 14 -5t12.5 -12.5t9 -16.5t3.5 -16z" />
    <glyph glyph-name="ucircumflex" unicode="&#xfb;" horiz-adv-x="772" 
d="M565 -23h-35v148q-23 -25 -49 -51t-55.5 -47.5t-62 -35.5t-68.5 -14q-56 0 -91 25t-54.5 64t-26 87t-6.5 93v309q0 34 -6 55t-20 32.5t-36.5 15.5t-54.5 4v28h244v-461q0 -30 4.5 -58t17 -50t35 -35.5t57.5 -13.5q25 0 49 9t46 23t41.5 31.5t35.5 34.5v391q0 31 -6.5 51
t-20 31t-35 15t-50.5 4v28h237v-508q0 -11 1 -29t5.5 -34.5t14 -28.5t26.5 -12q30 0 62 12l10 -27zM575 776l-188 160l-189 -160h-53l195 258h96l192 -258h-53z" />
    <glyph glyph-name="udieresis" unicode="&#xfc;" horiz-adv-x="772" 
d="M565 -23h-35v148q-23 -25 -49 -51t-55.5 -47.5t-62 -35.5t-68.5 -14q-56 0 -91 25t-54.5 64t-26 87t-6.5 93v309q0 34 -6 55t-20 32.5t-36.5 15.5t-54.5 4v28h244v-461q0 -30 4.5 -58t17 -50t35 -35.5t57.5 -13.5q25 0 49 9t46 23t41.5 31.5t35.5 34.5v391q0 31 -6.5 51
t-20 31t-35 15t-50.5 4v28h237v-508q0 -11 1 -29t5.5 -34.5t14 -28.5t26.5 -12q30 0 62 12l10 -27zM606 916q0 -16 -6 -30.5t-16.5 -25t-24.5 -16.5t-29 -6q-31 0 -54.5 23.5t-23.5 54.5q0 15 6.5 28.5t17.5 24t25 16.5t29 6q31 0 53.5 -22t22.5 -53zM299 916
q0 -16 -6.5 -30.5t-17 -25t-25 -16.5t-29.5 -6q-31 0 -53.5 23.5t-22.5 54.5q0 15 6.5 28.5t17 24t24 16.5t28.5 6q31 0 54.5 -22t23.5 -53z" />
    <glyph glyph-name="yacute" unicode="&#xfd;" horiz-adv-x="772" 
d="M764 662q-24 -2 -40 -11t-27.5 -23t-19.5 -32t-15 -37l-281 -690q-15 -35 -37.5 -71.5t-52.5 -65.5t-66 -47.5t-78 -18.5q-19 0 -37.5 5.5t-32.5 16.5t-23 27t-9 37q0 37 21 52.5t55 15.5q14 0 27.5 -4t27 -9.5t26.5 -9.5t25 -4q20 0 38 14.5t33.5 37t28.5 50t23.5 53.5
t18 48t12.5 33l-248 520q-10 20 -21.5 39t-26 34.5t-33.5 26t-44 13.5v28h324v-28q-15 0 -30 -1t-27.5 -5.5t-20.5 -14.5t-8 -29q0 -21 8.5 -42t17.5 -40l168 -348l154 383q6 14 11 26.5t5 29.5q0 15 -6.5 23.5t-17 12.5t-23 4.5t-24.5 0.5v28h225v-28zM627 1001
q0 -12 -6 -23t-15.5 -20.5t-20 -17.5t-19.5 -14l-223 -140h-62l213 215q19 19 42.5 34.5t51.5 15.5q7 0 14 -5t12.5 -12.5t9 -16.5t3.5 -16z" />
    <glyph glyph-name="thorn" unicode="&#xfe;" horiz-adv-x="773" 
d="M720 371q0 -81 -22.5 -152.5t-63.5 -124.5t-99.5 -84t-130.5 -32q-23 0 -42.5 1.5t-38.5 7.5t-39 18.5t-45 34.5v-209q0 -41 3 -66t15 -39t35.5 -20t64.5 -8v-28h-363v28q40 2 64 6.5t36.5 18t16.5 39.5t4 72v1018q0 34 -1 54t-4 31.5t-8 16.5t-13 10q-11 8 -29 10.5
t-53 -11.5l-8 25l212 85h28v-526q27 46 53.5 77t53.5 50t56 27.5t60 8.5q57 0 104.5 -26t81.5 -71.5t53 -107.5t19 -134zM585 300q0 66 -13 121.5t-37 96t-58 63t-76 22.5q-16 0 -30 -2t-31 -11.5t-41 -30t-60 -57.5v-258q0 -42 2 -69t6 -42q5 -20 17 -39t31.5 -34.5
t46 -25.5t59.5 -10q42 -1 76 18t58 55t37 87.5t13 115.5z" />
    <glyph glyph-name="ydieresis" unicode="&#xff;" horiz-adv-x="772" 
d="M764 662q-24 -2 -40 -11t-27.5 -23t-19.5 -32t-15 -37l-281 -690q-15 -35 -37.5 -71.5t-52.5 -65.5t-66 -47.5t-78 -18.5q-19 0 -37.5 5.5t-32.5 16.5t-23 27t-9 37q0 37 21 52.5t55 15.5q14 0 27.5 -4t27 -9.5t26.5 -9.5t25 -4q20 0 38 14.5t33.5 37t28.5 50t23.5 53.5
t18 48t12.5 33l-248 520q-10 20 -21.5 39t-26 34.5t-33.5 26t-44 13.5v28h324v-28q-15 0 -30 -1t-27.5 -5.5t-20.5 -14.5t-8 -29q0 -21 8.5 -42t17.5 -40l168 -348l154 383q6 14 11 26.5t5 29.5q0 15 -6.5 23.5t-17 12.5t-23 4.5t-24.5 0.5v28h225v-28zM639 916
q0 -16 -6 -30.5t-16.5 -25t-24.5 -16.5t-29 -6q-31 0 -54.5 23.5t-23.5 54.5q0 15 6.5 28.5t17.5 24t25 16.5t29 6q31 0 53.5 -22t22.5 -53zM332 916q0 -16 -6.5 -30.5t-17 -25t-25 -16.5t-29.5 -6q-31 0 -53.5 23.5t-22.5 54.5q0 15 6.5 28.5t17 24t24 16.5t28.5 6
q31 0 54.5 -22t23.5 -53z" />
    <glyph glyph-name="dotlessi" unicode="&#x131;" horiz-adv-x="430" 
d="M57 0v29q34 0 55 5t32.5 18t15.5 34.5t4 54.5v369q0 13 -1.5 30.5t-6.5 33.5t-16 27t-29 11q-13 0 -26.5 -3.5t-27.5 -8.5l-10 27l209 84h33v-570q0 -33 4 -54.5t15.5 -34.5t32 -18t54.5 -5v-29h-338z" />
    <glyph glyph-name="uni2000" unicode="&#x2000;" horiz-adv-x="1024" 
 />
    <glyph glyph-name="uni2001" unicode="&#x2001;" horiz-adv-x="2048" 
 />
    <glyph glyph-name="uni2002" unicode="&#x2002;" horiz-adv-x="1024" 
 />
    <glyph glyph-name="uni2003" unicode="&#x2003;" horiz-adv-x="2048" 
 />
    <glyph glyph-name="uni2004" unicode="&#x2004;" horiz-adv-x="682" 
 />
    <glyph glyph-name="uni2005" unicode="&#x2005;" horiz-adv-x="512" 
 />
    <glyph glyph-name="uni2006" unicode="&#x2006;" horiz-adv-x="342" 
 />
    <glyph glyph-name="uni2007" unicode="&#x2007;" horiz-adv-x="801" 
 />
    <glyph glyph-name="uni2008" unicode="&#x2008;" horiz-adv-x="641" 
 />
    <glyph glyph-name="uni2009" unicode="&#x2009;" horiz-adv-x="129" 
 />
    <glyph glyph-name="uni200A" unicode="&#x200a;" horiz-adv-x="63" 
 />
    <glyph glyph-name="uni200B" unicode="&#x200b;" 
 />
    <glyph glyph-name="uni200C" unicode="&#x200c;" 
d="M279 995q-51 34 -99 50.5t-102 21.5l147 -147l-30 -33l-185 182h-22l-181 -180l-32 33l145 145q-53 -5 -101 -20.5t-98 -49.5l-16 23q54 49 110 80t126 41l-164 164l33 30l190 -190l193 194l30 -32l-166 -166q70 -10 126 -41t112 -80zM33 932q0 -13 -9.5 -23t-23.5 -10
t-23.5 10t-9.5 23q0 14 9.5 23.5t23.5 9.5t23.5 -9.5t9.5 -23.5zM33 332q0 -13 -9.5 -23t-23.5 -10t-23.5 10t-9.5 23q0 14 9.5 23.5t23.5 9.5t23.5 -9.5t9.5 -23.5zM33 633q0 -14 -9.5 -23.5t-23.5 -9.5t-23.5 9.5t-9.5 23.5q0 12 9.5 21.5t23.5 9.5t23.5 -9.5t9.5 -21.5z
M33 481q0 -12 -9.5 -21t-23.5 -9t-23.5 9t-9.5 21q0 14 9.5 23.5t23.5 9.5t23.5 -9.5t9.5 -23.5zM33 33q0 -14 -9.5 -23.5t-23.5 -9.5t-23.5 9.5t-9.5 23.5q0 12 9.5 21t23.5 9t23.5 -9t9.5 -21zM33 182q0 -14 -9.5 -23t-23.5 -9t-23.5 9t-9.5 23q0 13 9.5 22t23.5 9
t23.5 -9t9.5 -22zM33 782q0 -14 -9.5 -23t-23.5 -9t-23.5 9t-9.5 23q0 13 9.5 22t23.5 9t23.5 -9t9.5 -22z" />
    <glyph glyph-name="uni200D" unicode="&#x200d;" 
d="M0 1145q53 0 96 -11t79 -29t65 -40.5t55 -44.5q0 -2 -2.5 -6.5t-5.5 -8.5l-8 -10q-30 21 -59.5 35t-62.5 23t-71 12.5t-86 3.5t-86 -3.5t-71 -11.5t-62.5 -22t-59.5 -35q-4 5 -8 9q-3 4 -5.5 8t-2.5 6q25 22 54.5 44.5t65.5 40.5t79 29t96 11zM33 932q0 -13 -9.5 -23
t-23.5 -10t-23.5 10t-9.5 23q0 14 9.5 23.5t23.5 9.5t23.5 -9.5t9.5 -23.5zM33 782q0 -14 -9.5 -23t-23.5 -9t-23.5 9t-9.5 23q0 13 9.5 22t23.5 9t23.5 -9t9.5 -22zM33 633q0 -14 -9.5 -23.5t-23.5 -9.5t-23.5 9.5t-9.5 23.5q0 12 9.5 21.5t23.5 9.5t23.5 -9.5t9.5 -21.5z
M33 481q0 -12 -9.5 -21t-23.5 -9t-23.5 9t-9.5 21q0 14 9.5 23.5t23.5 9.5t23.5 -9.5t9.5 -23.5zM33 332q0 -13 -9.5 -23t-23.5 -10t-23.5 10t-9.5 23q0 14 9.5 23.5t23.5 9.5t23.5 -9.5t9.5 -23.5zM33 182q0 -14 -9.5 -23t-23.5 -9t-23.5 9t-9.5 23q0 13 9.5 22t23.5 9
t23.5 -9t9.5 -22zM33 33q0 -14 -9.5 -23.5t-23.5 -9.5t-23.5 9.5t-9.5 23.5q0 12 9.5 21t23.5 9t23.5 -9t9.5 -21z" />
    <glyph glyph-name="uni200E" unicode="&#x200e;" 
d="M-50 961v180l160 -90z" />
    <glyph glyph-name="uni200F" unicode="&#x200f;" 
d="M-110 1051l160 90v-180z" />
    <glyph glyph-name="uni2010" unicode="&#x2010;" horiz-adv-x="514" 
d="M61 289v112h390v-112h-390z" />
    <glyph glyph-name="uni2011" unicode="&#x2011;" horiz-adv-x="514" 
d="M61 289v112h390v-112h-390z" />
    <glyph glyph-name="figuredash" unicode="&#x2012;" horiz-adv-x="772" 
d="M0 340v57h772v-57h-772z" />
    <glyph glyph-name="uni2015" unicode="&#x2015;" horiz-adv-x="1485" 
d="M0 340v57h1485v-57h-1485z" />
    <glyph glyph-name="uni2027" unicode="&#x2027;" horiz-adv-x="279" 
d="M227 506q0 -38 -25.5 -63t-62.5 -25t-62.5 25t-25.5 63q0 37 25.5 61.5t62.5 24.5t62.5 -24.5t25.5 -61.5z" />
    <glyph glyph-name="uni2028" unicode="&#x2028;" 
 />
    <glyph glyph-name="uni2029" unicode="&#x2029;" 
 />
    <glyph glyph-name="uni202A" unicode="&#x202a;" 
d="M66 -160v70h-107v803h41v-762h66v69l100 -90z" />
    <glyph glyph-name="uni202B" unicode="&#x202b;" 
d="M-66 -90v-70l-100 90l100 90v-69h66v762h41v-803h-107z" />
    <glyph glyph-name="uni202C" unicode="&#x202c;" 
d="M20 713v-762h62v-41h-164v41h62v762h-70l90 100l90 -100h-70z" />
    <glyph glyph-name="uni202D" unicode="&#x202d;" 
d="M66 1016v69h-211v39h211v70l100 -88zM33 932q0 -13 -9.5 -23t-23.5 -10t-23.5 10t-9.5 23q0 14 9.5 23.5t23.5 9.5t23.5 -9.5t9.5 -23.5zM33 782q0 -14 -9.5 -23t-23.5 -9t-23.5 9t-9.5 23q0 13 9.5 22t23.5 9t23.5 -9t9.5 -22zM33 633q0 -14 -9.5 -23.5t-23.5 -9.5
t-23.5 9.5t-9.5 23.5q0 12 9.5 21.5t23.5 9.5t23.5 -9.5t9.5 -21.5zM33 481q0 -12 -9.5 -21t-23.5 -9t-23.5 9t-9.5 21q0 14 9.5 23.5t23.5 9.5t23.5 -9.5t9.5 -23.5zM33 332q0 -13 -9.5 -23t-23.5 -10t-23.5 10t-9.5 23q0 14 9.5 23.5t23.5 9.5t23.5 -9.5t9.5 -23.5z
M33 182q0 -14 -9.5 -23t-23.5 -9t-23.5 9t-9.5 23q0 13 9.5 22t23.5 9t23.5 -9t9.5 -22zM33 33q0 -14 -9.5 -23.5t-23.5 -9.5t-23.5 9.5t-9.5 23.5q0 12 9.5 21t23.5 9t23.5 -9t9.5 -21z" />
    <glyph glyph-name="uni202E" unicode="&#x202e;" 
d="M-66 1085v-69l-100 90l100 88v-70h211v-39h-211zM33 932q0 -13 -9.5 -23t-23.5 -10t-23.5 10t-9.5 23q0 14 9.5 23.5t23.5 9.5t23.5 -9.5t9.5 -23.5zM33 782q0 -14 -9.5 -23t-23.5 -9t-23.5 9t-9.5 23q0 13 9.5 22t23.5 9t23.5 -9t9.5 -22zM33 633q0 -14 -9.5 -23.5
t-23.5 -9.5t-23.5 9.5t-9.5 23.5q0 12 9.5 21.5t23.5 9.5t23.5 -9.5t9.5 -21.5zM33 481q0 -12 -9.5 -21t-23.5 -9t-23.5 9t-9.5 21q0 14 9.5 23.5t23.5 9.5t23.5 -9.5t9.5 -23.5zM33 332q0 -13 -9.5 -23t-23.5 -10t-23.5 10t-9.5 23q0 14 9.5 23.5t23.5 9.5t23.5 -9.5
t9.5 -23.5zM33 182q0 -14 -9.5 -23t-23.5 -9t-23.5 9t-9.5 23q0 13 9.5 22t23.5 9t23.5 -9t9.5 -22zM33 33q0 -14 -9.5 -23.5t-23.5 -9.5t-23.5 9.5t-9.5 23.5q0 12 9.5 21t23.5 9t23.5 -9t9.5 -21z" />
    <glyph glyph-name="uni202F" unicode="&#x202f;" horiz-adv-x="200" 
 />
    <glyph glyph-name="uni2060" unicode="&#x2060;" 
 />
    <glyph glyph-name="uni206C" unicode="&#x206c;" horiz-adv-x="1024" 
d="M413 139q0 -8 -10 -8q-7 0 -10 6l-43 119h-121l-45 -119q-3 -6 -10 -6q-10 0 -10 9v3l121 303q3 8 9 8t9 -10l109 -301zM852 139q0 -3 -3.5 -6.5t-6.5 -3.5h-162q-9 0 -9 11q0 10 9 10h151v131h-151q-10 0 -10 10v151q0 3 2.5 7t7.5 4h162q9 0 9 -10q0 -11 -9 -11h-152
v-133h152q3 0 6.5 -2.5t3.5 -5.5v-152zM471 432v-133h123q9 0 9 -9q0 -3 -2 -6t-7 -3h-123v-142q0 -9 -10 -9t-10 9v303q0 3 2.5 7t7.5 4h168q11 0 11 -10q0 -11 -11 -11h-158zM461 514q-11 0 -11 11q0 10 11 10h41v282h-41q-11 0 -11 11q0 10 11 10h102q11 0 11 -10
q0 -11 -11 -11h-41v-282h41q11 0 11 -10q0 -11 -11 -11h-102zM293 414l-55 -140h106zM545 932q0 -13 -9.5 -23t-23.5 -10t-23.5 10t-9.5 23q0 14 9.5 23.5t23.5 9.5t23.5 -9.5t9.5 -23.5zM844 932q0 -13 -9.5 -23t-23.5 -10q-12 0 -21.5 10t-9.5 23q0 14 9.5 23.5t21.5 9.5
q14 0 23.5 -9.5t9.5 -23.5zM244 932q0 -13 -9.5 -23t-21.5 -10q-14 0 -23.5 10t-9.5 23q0 14 9.5 23.5t23.5 9.5q12 0 21.5 -9.5t9.5 -23.5zM545 33q0 -14 -9.5 -23.5t-23.5 -9.5t-23.5 9.5t-9.5 23.5q0 12 9.5 21t23.5 9t23.5 -9t9.5 -21zM694 932q0 -13 -9 -23t-23 -10
q-13 0 -22 10t-9 23q0 14 9 23.5t22 9.5q14 0 23 -9.5t9 -23.5zM393 932q0 -13 -9 -23t-22 -10q-14 0 -23 10t-9 23q0 14 9 23.5t23 9.5q13 0 22 -9.5t9 -23.5zM993 932q0 -13 -9 -23t-21 -10q-14 0 -23.5 10t-9.5 23q0 14 9.5 23.5t23.5 9.5q12 0 21 -9.5t9 -23.5zM993 332
q0 -13 -9 -23t-21 -10q-14 0 -23.5 10t-9.5 23q0 14 9.5 23.5t23.5 9.5q12 0 21 -9.5t9 -23.5zM94 332q0 -13 -9.5 -23t-23.5 -10q-12 0 -21 10t-9 23q0 14 9 23.5t21 9.5q14 0 23.5 -9.5t9.5 -23.5zM94 932q0 -13 -9.5 -23t-23.5 -10q-12 0 -21 10t-9 23q0 14 9 23.5
t21 9.5q14 0 23.5 -9.5t9.5 -23.5zM94 633q0 -14 -9.5 -23.5t-23.5 -9.5q-12 0 -21 9.5t-9 23.5q0 12 9 21.5t21 9.5q14 0 23.5 -9.5t9.5 -21.5zM993 633q0 -14 -9 -23.5t-21 -9.5q-14 0 -23.5 9.5t-9.5 23.5q0 12 9.5 21.5t23.5 9.5q12 0 21 -9.5t9 -21.5zM844 33
q0 -14 -9.5 -23.5t-23.5 -9.5q-12 0 -21.5 9.5t-9.5 23.5q0 12 9.5 21t21.5 9q14 0 23.5 -9t9.5 -21zM244 33q0 -14 -9.5 -23.5t-21.5 -9.5q-14 0 -23.5 9.5t-9.5 23.5q0 12 9.5 21t23.5 9q12 0 21.5 -9t9.5 -21zM94 33q0 -14 -9.5 -23.5t-23.5 -9.5q-12 0 -21 9.5t-9 23.5
q0 12 9 21t21 9q14 0 23.5 -9t9.5 -21zM993 481q0 -12 -9 -21t-21 -9q-14 0 -23.5 9t-9.5 21q0 14 9.5 23.5t23.5 9.5q12 0 21 -9.5t9 -23.5zM94 481q0 -12 -9.5 -21t-23.5 -9q-12 0 -21 9t-9 21q0 14 9 23.5t21 9.5q14 0 23.5 -9.5t9.5 -23.5zM993 33q0 -14 -9 -23.5
t-21 -9.5q-14 0 -23.5 9.5t-9.5 23.5q0 12 9.5 21t23.5 9q12 0 21 -9t9 -21zM393 33q0 -14 -9 -23.5t-22 -9.5q-14 0 -23 9.5t-9 23.5q0 12 9 21t23 9q13 0 22 -9t9 -21zM993 782q0 -14 -9 -23t-21 -9q-14 0 -23.5 9t-9.5 23q0 13 9.5 22t23.5 9q12 0 21 -9t9 -22zM94 782
q0 -14 -9.5 -23t-23.5 -9q-12 0 -21 9t-9 23q0 13 9 22t21 9q14 0 23.5 -9t9.5 -22zM94 182q0 -14 -9.5 -23t-23.5 -9q-12 0 -21 9t-9 23q0 13 9 22t21 9q14 0 23.5 -9t9.5 -22zM694 33q0 -14 -9 -23.5t-23 -9.5q-13 0 -22 9.5t-9 23.5q0 12 9 21t22 9q14 0 23 -9t9 -21z
M993 182q0 -14 -9 -23t-21 -9q-14 0 -23.5 9t-9.5 23q0 13 9.5 22t23.5 9q12 0 21 -9t9 -22z" />
    <glyph glyph-name="uni206D" unicode="&#x206d;" horiz-adv-x="1024" 
d="M632 524q0 -8 -10 -8q-7 0 -10 6l-43 119h-120l-48 -119q-2 -6 -9 -6q-9 0 -9 9v3l119 303q5 8 10 8q7 0 10 -10l109 -301zM413 139q0 -8 -10 -8q-7 0 -10 6l-43 119h-121l-45 -119q-3 -6 -10 -6q-10 0 -10 9v3l121 303q3 8 9 8t9 -10l109 -301zM852 139q0 -3 -3.5 -6.5
t-6.5 -3.5h-162q-9 0 -9 11q0 10 9 10h151v131h-151q-10 0 -10 10v151q0 3 2.5 7t7.5 4h162q9 0 9 -10q0 -11 -9 -11h-152v-133h152q3 0 6.5 -2.5t3.5 -5.5v-152zM471 432v-133h123q9 0 9 -9q0 -3 -2 -6t-7 -3h-123v-142q0 -9 -10 -9t-10 9v303q0 3 2.5 7t7.5 4h168
q11 0 11 -10q0 -11 -11 -11h-158zM512 799l-55 -140h106zM293 414l-55 -140h106zM545 932q0 -13 -9.5 -23t-23.5 -10t-23.5 10t-9.5 23q0 14 9.5 23.5t23.5 9.5t23.5 -9.5t9.5 -23.5zM844 932q0 -13 -9.5 -23t-23.5 -10q-12 0 -21.5 10t-9.5 23q0 14 9.5 23.5t21.5 9.5
q14 0 23.5 -9.5t9.5 -23.5zM244 932q0 -13 -9.5 -23t-21.5 -10q-14 0 -23.5 10t-9.5 23q0 14 9.5 23.5t23.5 9.5q12 0 21.5 -9.5t9.5 -23.5zM545 33q0 -14 -9.5 -23.5t-23.5 -9.5t-23.5 9.5t-9.5 23.5q0 12 9.5 21t23.5 9t23.5 -9t9.5 -21zM694 932q0 -13 -9 -23t-23 -10
q-13 0 -22 10t-9 23q0 14 9 23.5t22 9.5q14 0 23 -9.5t9 -23.5zM393 932q0 -13 -9 -23t-22 -10q-14 0 -23 10t-9 23q0 14 9 23.5t23 9.5q13 0 22 -9.5t9 -23.5zM993 932q0 -13 -9 -23t-21 -10q-14 0 -23.5 10t-9.5 23q0 14 9.5 23.5t23.5 9.5q12 0 21 -9.5t9 -23.5zM993 332
q0 -13 -9 -23t-21 -10q-14 0 -23.5 10t-9.5 23q0 14 9.5 23.5t23.5 9.5q12 0 21 -9.5t9 -23.5zM94 332q0 -13 -9.5 -23t-23.5 -10q-12 0 -21 10t-9 23q0 14 9 23.5t21 9.5q14 0 23.5 -9.5t9.5 -23.5zM94 932q0 -13 -9.5 -23t-23.5 -10q-12 0 -21 10t-9 23q0 14 9 23.5
t21 9.5q14 0 23.5 -9.5t9.5 -23.5zM94 633q0 -14 -9.5 -23.5t-23.5 -9.5q-12 0 -21 9.5t-9 23.5q0 12 9 21.5t21 9.5q14 0 23.5 -9.5t9.5 -21.5zM993 633q0 -14 -9 -23.5t-21 -9.5q-14 0 -23.5 9.5t-9.5 23.5q0 12 9.5 21.5t23.5 9.5q12 0 21 -9.5t9 -21.5zM844 33
q0 -14 -9.5 -23.5t-23.5 -9.5q-12 0 -21.5 9.5t-9.5 23.5q0 12 9.5 21t21.5 9q14 0 23.5 -9t9.5 -21zM244 33q0 -14 -9.5 -23.5t-21.5 -9.5q-14 0 -23.5 9.5t-9.5 23.5q0 12 9.5 21t23.5 9q12 0 21.5 -9t9.5 -21zM993 33q0 -14 -9 -23.5t-21 -9.5q-14 0 -23.5 9.5t-9.5 23.5
q0 12 9.5 21t23.5 9q12 0 21 -9t9 -21zM94 481q0 -12 -9.5 -21t-23.5 -9q-12 0 -21 9t-9 21q0 14 9 23.5t21 9.5q14 0 23.5 -9.5t9.5 -23.5zM993 481q0 -12 -9 -21t-21 -9q-14 0 -23.5 9t-9.5 21q0 14 9.5 23.5t23.5 9.5q12 0 21 -9.5t9 -23.5zM94 33q0 -14 -9.5 -23.5
t-23.5 -9.5q-12 0 -21 9.5t-9 23.5q0 12 9 21t21 9q14 0 23.5 -9t9.5 -21zM94 182q0 -14 -9.5 -23t-23.5 -9q-12 0 -21 9t-9 23q0 13 9 22t21 9q14 0 23.5 -9t9.5 -22zM993 182q0 -14 -9 -23t-21 -9q-14 0 -23.5 9t-9.5 23q0 13 9.5 22t23.5 9q12 0 21 -9t9 -22zM694 33
q0 -14 -9 -23.5t-23 -9.5q-13 0 -22 9.5t-9 23.5q0 12 9 21t22 9q14 0 23 -9t9 -21zM393 33q0 -14 -9 -23.5t-22 -9.5q-14 0 -23 9.5t-9 23.5q0 12 9 21t23 9q13 0 22 -9t9 -21zM94 782q0 -14 -9.5 -23t-23.5 -9q-12 0 -21 9t-9 23q0 13 9 22t21 9q14 0 23.5 -9t9.5 -22z
M993 782q0 -14 -9 -23t-21 -9q-14 0 -23.5 9t-9.5 23q0 13 9.5 22t23.5 9q12 0 21 -9t9 -22z" />
    <glyph glyph-name="uni2066" unicode="&#x2066;" horiz-adv-x="1024" 
d="M993 932q0 -13 -9 -23t-21 -10q-14 0 -23.5 10t-9.5 23q0 14 9.5 23.5t23.5 9.5q12 0 21 -9.5t9 -23.5zM844 932q0 -13 -9.5 -23t-23.5 -10q-12 0 -21.5 10t-9.5 23q0 14 9.5 23.5t21.5 9.5q14 0 23.5 -9.5t9.5 -23.5zM993 782q0 -14 -9 -23t-21 -9q-14 0 -23.5 9
t-9.5 23q0 13 9.5 22t23.5 9q12 0 21 -9t9 -22zM694 932q0 -13 -9 -23t-23 -10q-13 0 -22 10t-9 23q0 14 9 23.5t22 9.5q14 0 23 -9.5t9 -23.5zM993 633q0 -14 -9 -23.5t-21 -9.5q-14 0 -23.5 9.5t-9.5 23.5q0 12 9.5 21.5t23.5 9.5q12 0 21 -9.5t9 -21.5zM545 932
q0 -13 -9.5 -23t-23.5 -10t-23.5 10t-9.5 23q0 14 9.5 23.5t23.5 9.5t23.5 -9.5t9.5 -23.5zM993 481q0 -12 -9 -21t-21 -9q-14 0 -23.5 9t-9.5 21q0 14 9.5 23.5t23.5 9.5q12 0 21 -9.5t9 -23.5zM393 932q0 -13 -9 -23t-22 -10q-14 0 -23 10t-9 23q0 14 9 23.5t23 9.5
q13 0 22 -9.5t9 -23.5zM993 332q0 -13 -9 -23t-21 -10q-14 0 -23.5 10t-9.5 23q0 14 9.5 23.5t23.5 9.5q12 0 21 -9.5t9 -23.5zM993 182q0 -14 -9 -23t-21 -9q-14 0 -23.5 9t-9.5 23q0 13 9.5 22t23.5 9q12 0 21 -9t9 -22zM244 932q0 -13 -9.5 -23t-21.5 -10q-14 0 -23.5 10
t-9.5 23q0 14 9.5 23.5t23.5 9.5q12 0 21.5 -9.5t9.5 -23.5zM94 932q0 -13 -9.5 -23t-23.5 -10q-12 0 -21 10t-9 23q0 14 9 23.5t21 9.5q14 0 23.5 -9.5t9.5 -23.5zM993 33q0 -14 -9 -23.5t-21 -9.5q-14 0 -23.5 9.5t-9.5 23.5q0 12 9.5 21t23.5 9q12 0 21 -9t9 -21zM94 782
q0 -14 -9.5 -23t-23.5 -9q-12 0 -21 9t-9 23q0 13 9 22t21 9q14 0 23.5 -9t9.5 -22zM844 33q0 -14 -9.5 -23.5t-23.5 -9.5q-12 0 -21.5 9.5t-9.5 23.5q0 12 9.5 21t21.5 9q14 0 23.5 -9t9.5 -21zM94 633q0 -14 -9.5 -23.5t-23.5 -9.5q-12 0 -21 9.5t-9 23.5q0 12 9 21.5
t21 9.5q14 0 23.5 -9.5t9.5 -21.5zM694 33q0 -14 -9 -23.5t-23 -9.5q-13 0 -22 9.5t-9 23.5q0 12 9 21t22 9q14 0 23 -9t9 -21zM94 481q0 -12 -9.5 -21t-23.5 -9q-12 0 -21 9t-9 21q0 14 9 23.5t21 9.5q14 0 23.5 -9.5t9.5 -23.5zM545 33q0 -14 -9.5 -23.5t-23.5 -9.5
t-23.5 9.5t-9.5 23.5q0 12 9.5 21t23.5 9t23.5 -9t9.5 -21zM94 332q0 -13 -9.5 -23t-23.5 -10q-12 0 -21 10t-9 23q0 14 9 23.5t21 9.5q14 0 23.5 -9.5t9.5 -23.5zM393 33q0 -14 -9 -23.5t-22 -9.5q-14 0 -23 9.5t-9 23.5q0 12 9 21t23 9q13 0 22 -9t9 -21zM94 182
q0 -14 -9.5 -23t-23.5 -9q-12 0 -21 9t-9 23q0 13 9 22t21 9q14 0 23.5 -9t9.5 -22zM244 33q0 -14 -9.5 -23.5t-21.5 -9.5q-14 0 -23.5 9.5t-9.5 23.5q0 12 9.5 21t23.5 9q12 0 21.5 -9t9.5 -21zM94 33q0 -14 -9.5 -23.5t-23.5 -9.5q-12 0 -21 9.5t-9 23.5q0 12 9 21t21 9
q14 0 23.5 -9t9.5 -21zM403 321q11 0 11 -11q0 -10 -11 -10h-168q-5 0 -7.5 4t-2.5 7v303q0 9 10 9t10 -9v-293h158zM673 300q-11 0 -11 11q0 10 11 10h41v282h-41q-11 0 -11 11q0 10 11 10h102q11 0 11 -10q0 -11 -11 -11h-41v-282h41q11 0 11 -10q0 -11 -11 -11h-102z
M474 312q-2 -11 -10 -11t-10 10v303q1 10 11 10h55q50 0 75 -27t25 -60q0 -27 -17 -51t-50 -33l69 -139q1 -2 1 -5q0 -9 -10 -9q-7 0 -9 5l-71 144h-59v-137zM474 469h43q42 0 63 20.5t21 46.5t-21 47t-63 21h-43v-135z" />
    <glyph glyph-name="uni2067" unicode="&#x2067;" horiz-adv-x="1024" 
d="M993 932q0 -13 -9 -23t-21 -10q-14 0 -23.5 10t-9.5 23q0 14 9.5 23.5t23.5 9.5q12 0 21 -9.5t9 -23.5zM844 932q0 -13 -9.5 -23t-23.5 -10q-12 0 -21.5 10t-9.5 23q0 14 9.5 23.5t21.5 9.5q14 0 23.5 -9.5t9.5 -23.5zM993 782q0 -14 -9 -23t-21 -9q-14 0 -23.5 9
t-9.5 23q0 13 9.5 22t23.5 9q12 0 21 -9t9 -22zM694 932q0 -13 -9 -23t-23 -10q-13 0 -22 10t-9 23q0 14 9 23.5t22 9.5q14 0 23 -9.5t9 -23.5zM993 633q0 -14 -9 -23.5t-21 -9.5q-14 0 -23.5 9.5t-9.5 23.5q0 12 9.5 21.5t23.5 9.5q12 0 21 -9.5t9 -21.5zM545 932
q0 -13 -9.5 -23t-23.5 -10t-23.5 10t-9.5 23q0 14 9.5 23.5t23.5 9.5t23.5 -9.5t9.5 -23.5zM993 481q0 -12 -9 -21t-21 -9q-14 0 -23.5 9t-9.5 21q0 14 9.5 23.5t23.5 9.5q12 0 21 -9.5t9 -23.5zM393 932q0 -13 -9 -23t-22 -10q-14 0 -23 10t-9 23q0 14 9 23.5t23 9.5
q13 0 22 -9.5t9 -23.5zM993 332q0 -13 -9 -23t-21 -10q-14 0 -23.5 10t-9.5 23q0 14 9.5 23.5t23.5 9.5q12 0 21 -9.5t9 -23.5zM993 182q0 -14 -9 -23t-21 -9q-14 0 -23.5 9t-9.5 23q0 13 9.5 22t23.5 9q12 0 21 -9t9 -22zM244 932q0 -13 -9.5 -23t-21.5 -10q-14 0 -23.5 10
t-9.5 23q0 14 9.5 23.5t23.5 9.5q12 0 21.5 -9.5t9.5 -23.5zM94 932q0 -13 -9.5 -23t-23.5 -10q-12 0 -21 10t-9 23q0 14 9 23.5t21 9.5q14 0 23.5 -9.5t9.5 -23.5zM993 33q0 -14 -9 -23.5t-21 -9.5q-14 0 -23.5 9.5t-9.5 23.5q0 12 9.5 21t23.5 9q12 0 21 -9t9 -21zM94 782
q0 -14 -9.5 -23t-23.5 -9q-12 0 -21 9t-9 23q0 13 9 22t21 9q14 0 23.5 -9t9.5 -22zM844 33q0 -14 -9.5 -23.5t-23.5 -9.5q-12 0 -21.5 9.5t-9.5 23.5q0 12 9.5 21t21.5 9q14 0 23.5 -9t9.5 -21zM94 633q0 -14 -9.5 -23.5t-23.5 -9.5q-12 0 -21 9.5t-9 23.5q0 12 9 21.5
t21 9.5q14 0 23.5 -9.5t9.5 -21.5zM694 33q0 -14 -9 -23.5t-23 -9.5q-13 0 -22 9.5t-9 23.5q0 12 9 21t22 9q14 0 23 -9t9 -21zM94 481q0 -12 -9.5 -21t-23.5 -9q-12 0 -21 9t-9 21q0 14 9 23.5t21 9.5q14 0 23.5 -9.5t9.5 -23.5zM545 33q0 -14 -9.5 -23.5t-23.5 -9.5
t-23.5 9.5t-9.5 23.5q0 12 9.5 21t23.5 9t23.5 -9t9.5 -21zM94 332q0 -13 -9.5 -23t-23.5 -10q-12 0 -21 10t-9 23q0 14 9 23.5t21 9.5q14 0 23.5 -9.5t9.5 -23.5zM393 33q0 -14 -9 -23.5t-22 -9.5q-14 0 -23 9.5t-9 23.5q0 12 9 21t23 9q13 0 22 -9t9 -21zM94 182
q0 -14 -9.5 -23t-23.5 -9q-12 0 -21 9t-9 23q0 13 9 22t21 9q14 0 23.5 -9t9.5 -22zM244 33q0 -14 -9.5 -23.5t-21.5 -9.5q-14 0 -23.5 9.5t-9.5 23.5q0 12 9.5 21t23.5 9q12 0 21.5 -9t9.5 -21zM94 33q0 -14 -9.5 -23.5t-23.5 -9.5q-12 0 -21 9.5t-9 23.5q0 12 9 21t21 9
q14 0 23.5 -9t9.5 -21zM613 321q11 0 11 -11q0 -10 -11 -10h-168q-5 0 -7.5 4t-2.5 7v303q0 9 10 9t10 -9v-293h158zM673 300q-11 0 -11 11q0 10 11 10h41v282h-41q-11 0 -11 11q0 10 11 10h102q11 0 11 -10q0 -11 -11 -11h-41v-282h41q11 0 11 -10q0 -11 -11 -11h-102z
M245 312q-2 -11 -10 -11t-10 10v303q1 10 11 10h55q50 0 75 -27t25 -60q0 -27 -17 -51t-50 -33l69 -139q1 -2 1 -5q0 -9 -10 -9q-7 0 -9 5l-71 144h-59v-137zM245 469h43q42 0 63 20.5t21 46.5t-21 47t-63 21h-43v-135z" />
    <glyph glyph-name="uni2068" unicode="&#x2068;" horiz-adv-x="1024" 
d="M993 932q0 -13 -9 -23t-21 -10q-14 0 -23.5 10t-9.5 23q0 14 9.5 23.5t23.5 9.5q12 0 21 -9.5t9 -23.5zM844 932q0 -13 -9.5 -23t-23.5 -10q-12 0 -21.5 10t-9.5 23q0 14 9.5 23.5t21.5 9.5q14 0 23.5 -9.5t9.5 -23.5zM993 782q0 -14 -9 -23t-21 -9q-14 0 -23.5 9
t-9.5 23q0 13 9.5 22t23.5 9q12 0 21 -9t9 -22zM694 932q0 -13 -9 -23t-23 -10q-13 0 -22 10t-9 23q0 14 9 23.5t22 9.5q14 0 23 -9.5t9 -23.5zM993 633q0 -14 -9 -23.5t-21 -9.5q-14 0 -23.5 9.5t-9.5 23.5q0 12 9.5 21.5t23.5 9.5q12 0 21 -9.5t9 -21.5zM545 932
q0 -13 -9.5 -23t-23.5 -10t-23.5 10t-9.5 23q0 14 9.5 23.5t23.5 9.5t23.5 -9.5t9.5 -23.5zM993 481q0 -12 -9 -21t-21 -9q-14 0 -23.5 9t-9.5 21q0 14 9.5 23.5t23.5 9.5q12 0 21 -9.5t9 -23.5zM393 932q0 -13 -9 -23t-22 -10q-14 0 -23 10t-9 23q0 14 9 23.5t23 9.5
q13 0 22 -9.5t9 -23.5zM993 332q0 -13 -9 -23t-21 -10q-14 0 -23.5 10t-9.5 23q0 14 9.5 23.5t23.5 9.5q12 0 21 -9.5t9 -23.5zM993 182q0 -14 -9 -23t-21 -9q-14 0 -23.5 9t-9.5 23q0 13 9.5 22t23.5 9q12 0 21 -9t9 -22zM244 932q0 -13 -9.5 -23t-21.5 -10q-14 0 -23.5 10
t-9.5 23q0 14 9.5 23.5t23.5 9.5q12 0 21.5 -9.5t9.5 -23.5zM94 932q0 -13 -9.5 -23t-23.5 -10q-12 0 -21 10t-9 23q0 14 9 23.5t21 9.5q14 0 23.5 -9.5t9.5 -23.5zM993 33q0 -14 -9 -23.5t-21 -9.5q-14 0 -23.5 9.5t-9.5 23.5q0 12 9.5 21t23.5 9q12 0 21 -9t9 -21zM94 782
q0 -14 -9.5 -23t-23.5 -9q-12 0 -21 9t-9 23q0 13 9 22t21 9q14 0 23.5 -9t9.5 -22zM844 33q0 -14 -9.5 -23.5t-23.5 -9.5q-12 0 -21.5 9.5t-9.5 23.5q0 12 9.5 21t21.5 9q14 0 23.5 -9t9.5 -21zM94 633q0 -14 -9.5 -23.5t-23.5 -9.5q-12 0 -21 9.5t-9 23.5q0 12 9 21.5
t21 9.5q14 0 23.5 -9.5t9.5 -21.5zM694 33q0 -14 -9 -23.5t-23 -9.5q-13 0 -22 9.5t-9 23.5q0 12 9 21t22 9q14 0 23 -9t9 -21zM94 481q0 -12 -9.5 -21t-23.5 -9q-12 0 -21 9t-9 21q0 14 9 23.5t21 9.5q14 0 23.5 -9.5t9.5 -23.5zM545 33q0 -14 -9.5 -23.5t-23.5 -9.5
t-23.5 9.5t-9.5 23.5q0 12 9.5 21t23.5 9t23.5 -9t9.5 -21zM94 332q0 -13 -9.5 -23t-23.5 -10q-12 0 -21 10t-9 23q0 14 9 23.5t21 9.5q14 0 23.5 -9.5t9.5 -23.5zM393 33q0 -14 -9 -23.5t-22 -9.5q-14 0 -23 9.5t-9 23.5q0 12 9 21t23 9q13 0 22 -9t9 -21zM94 182
q0 -14 -9.5 -23t-23.5 -9q-12 0 -21 9t-9 23q0 13 9 22t21 9q14 0 23.5 -9t9.5 -22zM244 33q0 -14 -9.5 -23.5t-21.5 -9.5q-14 0 -23.5 9.5t-9.5 23.5q0 12 9.5 21t23.5 9q12 0 21.5 -9t9.5 -21zM94 33q0 -14 -9.5 -23.5t-23.5 -9.5q-12 0 -21 9.5t-9 23.5q0 12 9 21t21 9
q14 0 23.5 -9t9.5 -21zM253 603v-133h123q9 0 9 -9q0 -3 -2 -6t-7 -3h-123v-142q0 -9 -10 -9t-10 9v303q0 3 2.5 7t7.5 4h168q11 0 11 -10q0 -11 -11 -11h-158zM634 310q0 -3 -3.5 -6.5t-6.5 -3.5h-162q-9 0 -9 11q0 10 9 10h151v131h-151q-10 0 -10 10v151q0 3 2.5 7t7.5 4
h162q9 0 9 -10q0 -11 -9 -11h-152v-133h152q3 0 6.5 -2.5t3.5 -5.5v-152zM684 300q-11 0 -11 11q0 10 11 10h41v282h-41q-11 0 -11 11q0 10 11 10h102q11 0 11 -10q0 -11 -11 -11h-41v-282h41q11 0 11 -10q0 -11 -11 -11h-102z" />
    <glyph glyph-name="uni2069" unicode="&#x2069;" horiz-adv-x="1024" 
d="M993 932q0 -13 -9 -23t-21 -10q-14 0 -23.5 10t-9.5 23q0 14 9.5 23.5t23.5 9.5q12 0 21 -9.5t9 -23.5zM844 932q0 -13 -9.5 -23t-23.5 -10q-12 0 -21.5 10t-9.5 23q0 14 9.5 23.5t21.5 9.5q14 0 23.5 -9.5t9.5 -23.5zM993 782q0 -14 -9 -23t-21 -9q-14 0 -23.5 9
t-9.5 23q0 13 9.5 22t23.5 9q12 0 21 -9t9 -22zM694 932q0 -13 -9 -23t-23 -10q-13 0 -22 10t-9 23q0 14 9 23.5t22 9.5q14 0 23 -9.5t9 -23.5zM993 633q0 -14 -9 -23.5t-21 -9.5q-14 0 -23.5 9.5t-9.5 23.5q0 12 9.5 21.5t23.5 9.5q12 0 21 -9.5t9 -21.5zM545 932
q0 -13 -9.5 -23t-23.5 -10t-23.5 10t-9.5 23q0 14 9.5 23.5t23.5 9.5t23.5 -9.5t9.5 -23.5zM993 481q0 -12 -9 -21t-21 -9q-14 0 -23.5 9t-9.5 21q0 14 9.5 23.5t23.5 9.5q12 0 21 -9.5t9 -23.5zM393 932q0 -13 -9 -23t-22 -10q-14 0 -23 10t-9 23q0 14 9 23.5t23 9.5
q13 0 22 -9.5t9 -23.5zM993 332q0 -13 -9 -23t-21 -10q-14 0 -23.5 10t-9.5 23q0 14 9.5 23.5t23.5 9.5q12 0 21 -9.5t9 -23.5zM993 182q0 -14 -9 -23t-21 -9q-14 0 -23.5 9t-9.5 23q0 13 9.5 22t23.5 9q12 0 21 -9t9 -22zM244 932q0 -13 -9.5 -23t-21.5 -10q-14 0 -23.5 10
t-9.5 23q0 14 9.5 23.5t23.5 9.5q12 0 21.5 -9.5t9.5 -23.5zM94 932q0 -13 -9.5 -23t-23.5 -10q-12 0 -21 10t-9 23q0 14 9 23.5t21 9.5q14 0 23.5 -9.5t9.5 -23.5zM993 33q0 -14 -9 -23.5t-21 -9.5q-14 0 -23.5 9.5t-9.5 23.5q0 12 9.5 21t23.5 9q12 0 21 -9t9 -21zM94 782
q0 -14 -9.5 -23t-23.5 -9q-12 0 -21 9t-9 23q0 13 9 22t21 9q14 0 23.5 -9t9.5 -22zM844 33q0 -14 -9.5 -23.5t-23.5 -9.5q-12 0 -21.5 9.5t-9.5 23.5q0 12 9.5 21t21.5 9q14 0 23.5 -9t9.5 -21zM94 633q0 -14 -9.5 -23.5t-23.5 -9.5q-12 0 -21 9.5t-9 23.5q0 12 9 21.5
t21 9.5q14 0 23.5 -9.5t9.5 -21.5zM694 33q0 -14 -9 -23.5t-23 -9.5q-13 0 -22 9.5t-9 23.5q0 12 9 21t22 9q14 0 23 -9t9 -21zM94 481q0 -12 -9.5 -21t-23.5 -9q-12 0 -21 9t-9 21q0 14 9 23.5t21 9.5q14 0 23.5 -9.5t9.5 -23.5zM545 33q0 -14 -9.5 -23.5t-23.5 -9.5
t-23.5 9.5t-9.5 23.5q0 12 9.5 21t23.5 9t23.5 -9t9.5 -21zM94 332q0 -13 -9.5 -23t-23.5 -10q-12 0 -21 10t-9 23q0 14 9 23.5t21 9.5q14 0 23.5 -9.5t9.5 -23.5zM393 33q0 -14 -9 -23.5t-22 -9.5q-14 0 -23 9.5t-9 23.5q0 12 9 21t23 9q13 0 22 -9t9 -21zM94 182
q0 -14 -9.5 -23t-23.5 -9q-12 0 -21 9t-9 23q0 13 9 22t21 9q14 0 23.5 -9t9.5 -22zM244 33q0 -14 -9.5 -23.5t-21.5 -9.5q-14 0 -23.5 9.5t-9.5 23.5q0 12 9.5 21t23.5 9q12 0 21.5 -9t9.5 -21zM94 33q0 -14 -9.5 -23.5t-23.5 -9.5q-12 0 -21 9.5t-9 23.5q0 12 9 21t21 9
q14 0 23.5 -9t9.5 -21zM666 300q-11 0 -11 11q0 10 11 10h41v282h-41q-11 0 -11 11q0 10 11 10h102q11 0 11 -10q0 -11 -11 -11h-41v-282h41q11 0 11 -10q0 -11 -11 -11h-102zM263 312q-2 -11 -10 -11t-10 10v303q1 10 11 10h55q50 0 75 -27t25 -60t-25 -60.5t-75 -27.5h-46
v-137zM263 469h43q42 0 63 20.5t21 46.5t-21 47t-63 21h-43v-135zM449 614q1 10 11 10h55q50 0 75 -27t25 -60v-149q0 -33 -25 -60.5t-75 -27.5h-66v314zM469 320h43q42 0 63 20.5t21 46.5v149q0 26 -21 47t-63 21h-43v-284z" />
    <glyph glyph-name="minus" unicode="&#x2212;" horiz-adv-x="915" 
d="M37 391v64h835v-64h-835z" />
    <glyph glyph-name="uni25CC" unicode="&#x25cc;" horiz-adv-x="1024" 
d="M836 803q0 -13 -9.5 -22t-23.5 -9q-13 0 -22 9t-9 22q0 14 9 23.5t22 9.5q14 0 23.5 -9.5t9.5 -23.5zM702 893q0 -14 -10 -23.5t-22 -9.5q-14 0 -23.5 9.5t-9.5 23.5q0 12 9.5 21.5t23.5 9.5t23 -9.5t9 -21.5zM924 670q0 -14 -9.5 -23.5t-21.5 -9.5q-14 0 -23.5 9.5
t-9.5 23.5q0 12 9.5 22t23.5 10q12 0 21.5 -9t9.5 -23zM545 924q0 -13 -9.5 -22t-23.5 -9t-23.5 9t-9.5 22q0 14 9.5 23t23.5 9t23.5 -9t9.5 -23zM956 512q0 -14 -9 -23.5t-23 -9.5q-13 0 -22 9.5t-9 23.5t9 23.5t22 9.5q14 0 23 -9.5t9 -23.5zM387 893q0 -14 -9.5 -23.5
t-23.5 -9.5q-12 0 -22 9.5t-10 23.5q0 12 9 21.5t23 9.5t23.5 -9.5t9.5 -21.5zM924 354q0 -14 -9.5 -23t-21.5 -9q-14 0 -23.5 10t-9.5 22q0 14 9.5 23.5t23.5 9.5q12 0 21.5 -9.5t9.5 -23.5zM252 803q0 -13 -9 -22t-22 -9q-14 0 -23.5 9t-9.5 22q0 14 9.5 23.5t23.5 9.5
q13 0 22 -9.5t9 -23.5zM836 221q0 -14 -9.5 -23.5t-23.5 -9.5q-13 0 -22 9.5t-9 23.5q0 13 9 22t22 9q14 0 23.5 -9t9.5 -22zM164 670q0 -14 -9.5 -23.5t-23.5 -9.5q-12 0 -21.5 9.5t-9.5 23.5t9.5 23t21.5 9q14 0 23.5 -10t9.5 -22zM702 131q0 -12 -9 -21.5t-23 -9.5
t-23.5 9.5t-9.5 21.5q0 14 9.5 23.5t23.5 9.5q12 0 22 -9.5t10 -23.5zM131 512q0 -14 -9 -23.5t-22 -9.5q-14 0 -23 9.5t-9 23.5t9 23.5t23 9.5q13 0 22 -9.5t9 -23.5zM545 100q0 -14 -9.5 -23t-23.5 -9t-23.5 9t-9.5 23q0 13 9.5 22t23.5 9t23.5 -9t9.5 -22zM164 354
q0 -12 -9.5 -22t-23.5 -10q-12 0 -21.5 9t-9.5 23t9.5 23.5t21.5 9.5q14 0 23.5 -9.5t9.5 -23.5zM387 131q0 -12 -9.5 -21.5t-23.5 -9.5t-23 9.5t-9 21.5q0 14 10 23.5t22 9.5q14 0 23.5 -9.5t9.5 -23.5zM252 221q0 -14 -9 -23.5t-22 -9.5q-14 0 -23.5 9.5t-9.5 23.5
q0 13 9.5 22t23.5 9q13 0 22 -9t9 -22z" />
    <glyph glyph-name="uniF130" unicode="&#xf130;" horiz-adv-x="340" 
d="M301 -295v256h-256v39h295v-295h-39z" />
    <glyph glyph-name="uniF131" unicode="&#xf131;" horiz-adv-x="340" 
d="M39 -39v-256h-39v295h295v-39h-256z" />
    <glyph glyph-name="uniFEFF" unicode="&#xfeff;" 
 />
    <glyph glyph-name="uni0622" unicode="&#x622;" horiz-adv-x="362" 
d="M242 1126q2 -183 7 -365t5 -366q0 -99 -9 -180t-20 -156q-13 -15 -24.5 -30.5t-38.5 -28.5v152q0 117 -4 218t-8.5 199t-8.5 199.5t-4 218.5zM433 1419q0 -16 -12.5 -36t-32.5 -39.5t-45.5 -38t-52 -33t-51.5 -23t-44 -8.5q-59 0 -106.5 11.5t-75.5 31.5
q-3 -7 -14.5 -22.5t-26 -31t-28.5 -27.5t-21 -12q-3 0 -9 3t-6 8q0 4 7 20t18 38.5t24 48t25 48.5t21.5 40.5t13.5 23.5q38 -25 88.5 -45.5t99.5 -20.5q31 0 64.5 11t64 24t55.5 24t39 11q2 0 3.5 -2t1.5 -4z" />
    <glyph glyph-name="uni0623" unicode="&#x623;" horiz-adv-x="362" 
d="M242 1126q2 -183 7 -365t5 -366q0 -99 -9 -180t-20 -156q-13 -15 -24.5 -30.5t-38.5 -28.5v152q0 117 -4 218t-8.5 199t-8.5 199.5t-4 218.5zM256 1480q-15 0 -29 8.5t-32 8.5q-10 0 -23.5 -6t-25.5 -15t-20.5 -20.5t-8.5 -22.5q0 -12 11 -21t26.5 -14t31.5 -7.5t25 -2.5
h164l-49 -82h-37q-35 1 -71.5 -6.5t-71 -22t-66 -35t-57.5 -44.5l-19 26q4 7 15.5 20t23.5 27t21.5 26.5t9.5 18.5q0 9 -7 20.5t-15.5 24.5t-15.5 27t-7 29q0 11 12.5 28t31.5 36.5t43 39t46.5 35t42 25.5t29.5 10t22 -5.5t22 -14t16.5 -19.5t6.5 -21q0 -8 -4 -17t-10 -16.5
t-14 -12.5t-17 -5z" />
    <glyph glyph-name="uni0625" unicode="&#x625;" horiz-adv-x="362" 
d="M242 1126q2 -183 7 -365t5 -366q0 -99 -9 -180t-20 -156q-13 -15 -24.5 -30.5t-38.5 -28.5v152q0 117 -4 218t-8.5 199t-8.5 199.5t-4 218.5zM267 -198q-15 0 -29 8.5t-32 8.5q-10 0 -23.5 -6t-25.5 -15t-20.5 -20.5t-8.5 -22.5q0 -12 11 -21t26.5 -14t31.5 -7.5t25 -2.5
h164l-49 -82h-37q-35 1 -71.5 -6.5t-71 -22t-66 -35t-57.5 -44.5l-19 26q4 7 15.5 20t23.5 27t21.5 26.5t9.5 18.5q0 9 -7 20.5t-15.5 24.5t-15.5 27t-7 29q0 11 12.5 28t31.5 36.5t43 39t46.5 35t42 25.5t29.5 10t22 -5.5t22 -14t16.5 -19.5t6.5 -21q0 -8 -4 -17t-10 -16.5
t-14 -12.5t-17 -5z" />
    <glyph glyph-name="uni0627" unicode="&#x627;" horiz-adv-x="362" 
d="M242 1126q2 -183 7 -365t5 -366q0 -99 -9 -180t-20 -156q-13 -15 -24.5 -30.5t-38.5 -28.5v152q0 117 -4 218t-8.5 199t-8.5 199.5t-4 218.5z" />
    <glyph glyph-name="uni0672" unicode="&#x672;" horiz-adv-x="362" 
d="M242 1126q2 -183 7 -365t5 -366q0 -99 -9 -180t-20 -156q-13 -15 -24.5 -30.5t-38.5 -28.5v152q0 117 -4 218t-8.5 199t-8.5 199.5t-4 218.5zM303 1285h-30q-56 2 -112 -34q-21 -13 -36.5 -23t-30 -16.5t-29.5 -10t-33 -3.5q-14 0 -25.5 5t-21.5 10.5t-20 10.5t-22 5h-24
t-23 -3t-26.5 -10t-33.5 -20q-2 0 -5 7q-2 3 -4 7q27 26 60 46t69 20q17 0 29 -4t21.5 -8.5t18.5 -8t21 -3.5q18 0 36.5 13t35.5 31q-8 4 -19 12.5t-20.5 19.5t-16 24t-6.5 25q0 14 22 38t51 47.5t57.5 40.5t41.5 17q8 0 17.5 -4t18 -10.5t14 -15t5.5 -17.5
q0 -14 -11.5 -28.5t-25.5 -14.5q-12 0 -24.5 7.5t-26.5 7.5q-9 0 -20 -5t-21.5 -12.5t-17.5 -17.5t-7 -19q0 -10 9.5 -16.5t22 -11t25.5 -6.5t21 -2h137z" />
    <glyph glyph-name="uni0673" unicode="&#x673;" horiz-adv-x="362" 
d="M242 1126q2 -183 7 -365t5 -366q0 -99 -9 -180t-20 -156q-13 -15 -24.5 -30.5t-38.5 -28.5v152q0 117 -4 218t-8.5 199t-8.5 199.5t-4 218.5zM319 -340h-30q-56 2 -112 -34q-21 -13 -36.5 -23t-30 -16.5t-29.5 -10t-33 -3.5q-14 0 -25.5 5t-21.5 10.5t-20 10.5t-22 5h-24
t-23 -3t-26.5 -10t-33.5 -20q-2 0 -5 7q-2 3 -4 7q27 26 60 46t69 20q17 0 29 -4t21.5 -8.5t18.5 -8t21 -3.5q18 0 36.5 13t35.5 31q-8 4 -19 12.5t-20.5 19.5t-16 24t-6.5 25q0 14 22 38t51 47.5t57.5 40.5t41.5 17q8 0 17.5 -4t18 -10.5t14 -15t5.5 -17.5
q0 -14 -11.5 -28.5t-25.5 -14.5q-12 0 -24.5 7.5t-26.5 7.5q-9 0 -20 -5t-21.5 -12.5t-17.5 -17.5t-7 -19q0 -10 9.5 -16.5t22 -11t25.5 -6.5t21 -2h137z" />
    <glyph glyph-name="uni0675" unicode="&#x675;" horiz-adv-x="362" 
d="M242 1126q2 -183 7 -365t5 -366q0 -99 -9 -180t-20 -156q-13 -15 -24.5 -30.5t-38.5 -28.5v152q0 117 -4 218t-8.5 199t-8.5 199.5t-4 218.5zM446 1558q-15 0 -29 8.5t-32 8.5q-10 0 -23.5 -6t-25.5 -15t-20.5 -20.5t-8.5 -22.5q0 -12 11 -21t26.5 -14t31.5 -7.5t25 -2.5
h164l-49 -82h-37q-35 1 -71.5 -6.5t-71 -22t-66 -35t-57.5 -44.5l-19 26q4 7 15.5 20t23.5 27t21.5 26.5t9.5 18.5q0 9 -7 20.5t-15.5 24.5t-15.5 27t-7 29q0 11 12.5 28t31.5 36.5t43 39t46.5 35t42 25.5t29.5 10t22 -5.5t22 -14t16.5 -19.5t6.5 -21q0 -8 -4 -17t-10 -16.5
t-14 -12.5t-17 -5z" />
    <glyph glyph-name="uni0671" unicode="&#x671;" horiz-adv-x="362" 
d="M242 1126q2 -183 7 -365t5 -366q0 -99 -9 -180t-20 -156q-13 -15 -24.5 -30.5t-38.5 -28.5v152q0 117 -4 218t-8.5 199t-8.5 199.5t-4 218.5zM337 1381q0 -12 -10 -33t-30.5 -41.5t-52.5 -36t-77 -15.5q-7 0 -29 1t-48 1.5t-50.5 1.5t-35.5 1q-21 0 -31 -5.5t-14.5 -11.5
t-6.5 -11.5t-6 -5.5t-4 11q0 10 2.5 22.5t9 24.5t17.5 22.5t28 16.5q19 6 49.5 7t56.5 1q16 36 31.5 66t34 51.5t41 34t52.5 12.5q33 0 53 -25.5t20 -88.5zM277 1379q0 17 -12 26t-32 9q-10 0 -22.5 -8.5t-24.5 -21t-23 -27t-18 -26.5q19 0 42 1.5t43 6.5t33.5 14.5
t13.5 25.5z" />
    <glyph glyph-name="uni0624" unicode="&#x624;" horiz-adv-x="612" 
d="M-107 -215q17 -2 33.5 -2h31.5q87 0 165 16.5t145 52.5t122 92.5t97 135.5q0 7 -0.5 19t-2 25t-5 26t-9.5 22q-9 -15 -22.5 -30t-30 -27t-35 -19.5t-36.5 -7.5q-23 0 -39 9.5t-27 25t-16 35t-5 39.5q0 15 5 39.5t14 52.5t22 56.5t28.5 51.5t32.5 37.5t36 14.5
q26 0 46.5 -14t35 -36.5t24.5 -50.5t16 -57t8.5 -55.5t2.5 -45.5q0 -57 -11.5 -116.5t-34 -116t-56 -106t-78.5 -87.5q-39 -30 -87 -41.5t-96 -11.5q-32 0 -68.5 5t-73.5 14.5t-71.5 23t-60.5 31.5zM364 315q-7 0 -14.5 -10.5t-14 -24.5t-11 -28t-4.5 -20q0 -12 14.5 -24.5
t37.5 -12.5q14 0 35.5 11t32.5 28q-4 15 -12 29.5t-18 26t-22 18.5t-24 7zM457 798q-15 0 -29 8.5t-32 8.5q-10 0 -23.5 -6t-25.5 -15t-20.5 -20.5t-8.5 -22.5q0 -12 11 -21t26.5 -14t31.5 -7.5t25 -2.5h164l-49 -82h-37q-35 1 -71.5 -6.5t-71 -22t-66 -35t-57.5 -44.5
l-19 26q4 7 15.5 20t23.5 27t21.5 26.5t9.5 18.5q0 9 -7 20.5t-15.5 24.5t-15.5 27t-7 29q0 11 12.5 28t31.5 36.5t43 39t46.5 35t42 25.5t29.5 10t22 -5.5t22 -14t16.5 -19.5t6.5 -21q0 -8 -4 -17t-10 -16.5t-14 -12.5t-17 -5z" />
    <glyph glyph-name="uni0648" unicode="&#x648;" horiz-adv-x="612" 
d="M-107 -215q17 -2 33.5 -2h31.5q87 0 165 16.5t145 52.5t122 92.5t97 135.5q0 7 -0.5 19t-2 25t-5 26t-9.5 22q-9 -15 -22.5 -30t-30 -27t-35 -19.5t-36.5 -7.5q-23 0 -39 9.5t-27 25t-16 35t-5 39.5q0 15 5 39.5t14 52.5t22 56.5t28.5 51.5t32.5 37.5t36 14.5
q26 0 46.5 -14t35 -36.5t24.5 -50.5t16 -57t8.5 -55.5t2.5 -45.5q0 -57 -11.5 -116.5t-34 -116t-56 -106t-78.5 -87.5q-39 -30 -87 -41.5t-96 -11.5q-32 0 -68.5 5t-73.5 14.5t-71.5 23t-60.5 31.5zM364 315q-7 0 -14.5 -10.5t-14 -24.5t-11 -28t-4.5 -20q0 -12 14.5 -24.5
t37.5 -12.5q14 0 35.5 11t32.5 28q-4 15 -12 29.5t-18 26t-22 18.5t-24 7z" />
    <glyph glyph-name="uni0676" unicode="&#x676;" horiz-adv-x="612" 
d="M-107 -215q17 -2 33.5 -2h31.5q87 0 165 16.5t145 52.5t122 92.5t97 135.5q0 7 -0.5 19t-2 25t-5 26t-9.5 22q-9 -15 -22.5 -30t-30 -27t-35 -19.5t-36.5 -7.5q-23 0 -39 9.5t-27 25t-16 35t-5 39.5q0 15 5 39.5t14 52.5t22 56.5t28.5 51.5t32.5 37.5t36 14.5
q26 0 46.5 -14t35 -36.5t24.5 -50.5t16 -57t8.5 -55.5t2.5 -45.5q0 -57 -11.5 -116.5t-34 -116t-56 -106t-78.5 -87.5q-39 -30 -87 -41.5t-96 -11.5q-32 0 -68.5 5t-73.5 14.5t-71.5 23t-60.5 31.5zM364 315q-7 0 -14.5 -10.5t-14 -24.5t-11 -28t-4.5 -20q0 -12 14.5 -24.5
t37.5 -12.5q14 0 35.5 11t32.5 28q-4 15 -12 29.5t-18 26t-22 18.5t-24 7zM647 876q-15 0 -29 8.5t-32 8.5q-10 0 -23.5 -6t-25.5 -15t-20.5 -20.5t-8.5 -22.5q0 -12 11 -21t26.5 -14t31.5 -7.5t25 -2.5h164l-49 -82h-37q-35 1 -71.5 -6.5t-71 -22t-66 -35t-57.5 -44.5
l-19 26q4 7 15.5 20t23.5 27t21.5 26.5t9.5 18.5q0 9 -7 20.5t-15.5 24.5t-15.5 27t-7 29q0 11 12.5 28t31.5 36.5t43 39t46.5 35t42 25.5t29.5 10t22 -5.5t22 -14t16.5 -19.5t6.5 -21q0 -8 -4 -17t-10 -16.5t-14 -12.5t-17 -5z" />
    <glyph glyph-name="uni0677" unicode="&#x677;" horiz-adv-x="612" 
d="M-107 -215q17 -2 33.5 -2h31.5q87 0 165 16.5t145 52.5t122 92.5t97 135.5q0 7 -0.5 19t-2 25t-5 26t-9.5 22q-9 -15 -22.5 -30t-30 -27t-35 -19.5t-36.5 -7.5q-23 0 -39 9.5t-27 25t-16 35t-5 39.5q0 15 5 39.5t14 52.5t22 56.5t28.5 51.5t32.5 37.5t36 14.5
q26 0 46.5 -14t35 -36.5t24.5 -50.5t16 -57t8.5 -55.5t2.5 -45.5q0 -57 -11.5 -116.5t-34 -116t-56 -106t-78.5 -87.5q-39 -30 -87 -41.5t-96 -11.5q-32 0 -68.5 5t-73.5 14.5t-71.5 23t-60.5 31.5zM364 315q-7 0 -14.5 -10.5t-14 -24.5t-11 -28t-4.5 -20q0 -12 14.5 -24.5
t37.5 -12.5q14 0 35.5 11t32.5 28q-4 15 -12 29.5t-18 26t-22 18.5t-24 7zM337 606l-61 37q-9 -10 -17.5 -18.5t-18 -17t-20.5 -18t-26 -20.5q-17 -13 -38.5 -26t-41.5 -24q-23 -13 -47 -25l-27 47q20 11 39 22q16 9 33.5 20t29.5 19q13 9 28 22t29 25q16 14 31 29
q-17 14 -31 28q-12 12 -23 24.5t-13 23.5q-3 15 -3 28q0 36 16 61.5t37.5 41t44.5 23t37 7.5q35 0 57 -20t22 -53q0 -26 -7.5 -50t-17 -43.5t-20 -33.5t-16.5 -20l59 -38zM636 780q-15 0 -29 8.5t-32 8.5q-10 0 -23.5 -6t-25.5 -15t-20.5 -20.5t-8.5 -22.5q0 -12 11 -21
t26.5 -14t31.5 -7.5t25 -2.5h164l-49 -82h-48q-34 0 -69 -8.5t-68 -23t-63 -34.5t-55 -42l-19 26q4 7 15.5 20t23.5 27t21.5 26.5t9.5 18.5q0 9 -7 20.5t-15.5 24.5t-15.5 27t-7 29q0 11 12.5 28t31.5 36.5t43 39t46.5 35t42 25.5t29.5 10t22 -5.5t22 -14t16.5 -19
t6.5 -21.5q0 -8 -4 -17t-10 -16.5t-14 -12.5t-17 -5zM222 788q0 -19 15.5 -35.5t29.5 -25.5q19 16 30 39t11 49q0 20 -10 30.5t-24 10.5q-6 0 -14.5 -4t-17 -12t-14.5 -21t-6 -31z" />
    <glyph glyph-name="uni0677.filled" horiz-adv-x="612" 
d="M-107 -215q17 -2 33.5 -2h31.5q87 0 165 16.5t145 52.5t122 92.5t97 135.5q0 7 -0.5 19t-2 25t-5 26t-9.5 22q-9 -15 -22.5 -30t-30 -27t-35 -19.5t-36.5 -7.5q-23 0 -39 9.5t-27 25t-16 35t-5 39.5q0 15 5 39.5t14 52.5t22 56.5t28.5 51.5t32.5 37.5t36 14.5
q26 0 46.5 -14t35 -36.5t24.5 -50.5t16 -57t8.5 -55.5t2.5 -45.5q0 -57 -11.5 -116.5t-34 -116t-56 -106t-78.5 -87.5q-39 -30 -87 -41.5t-96 -11.5q-32 0 -68.5 5t-73.5 14.5t-71.5 23t-60.5 31.5zM364 315q-7 0 -14.5 -10.5t-14 -24.5t-11 -28t-4.5 -20q0 -12 14.5 -24.5
t37.5 -12.5q14 0 35.5 11t32.5 28q-4 15 -12 29.5t-18 26t-22 18.5t-24 7zM634 778q-15 0 -29 8.5t-32 8.5q-10 0 -23.5 -6t-25.5 -15t-20.5 -20.5t-8.5 -22.5q0 -12 11 -21t26.5 -14t31.5 -7.5t25 -2.5h164l-49 -82h-37q-35 1 -71.5 -6.5t-71 -22t-66 -35t-57.5 -44.5
l-19 26q4 7 15.5 20t23.5 27t21.5 26.5t9.5 18.5q0 9 -7 20.5t-15.5 24.5t-15.5 27t-7 29q0 11 12.5 28t31.5 36.5t43 39t46.5 35t42 25.5t29.5 10t22 -5.5t22 -14t16.5 -19.5t6.5 -21q0 -8 -4 -17t-10 -16.5t-14 -12.5t-17 -5zM265 890q23 0 39 -8.5t25.5 -23t14 -33.5
t4.5 -40q0 -53 -16.5 -94t-40.5 -70.5t-51 -48t-48 -27.5l-12 22q27 19 45.5 36.5t30.5 38.5t17.5 46t5.5 59q-5 -2 -13.5 -3t-14.5 -1q-13 0 -26 5t-23 14.5t-16.5 22.5t-6.5 30q0 19 9.5 33t23 23.5t28 14t25.5 4.5z" />
    <glyph glyph-name="uni06C4" unicode="&#x6c4;" horiz-adv-x="612" 
d="M-107 -215q17 -2 33.5 -2h31.5q84 0 164 17q-8 16 -10.5 36t-2.5 45q0 27 8 57t23.5 54.5t39.5 40.5t56 16q28 0 50 -12t37 -31t23.5 -43t10.5 -49q38 33 70.5 74t59.5 92q0 7 -0.5 19t-2 25t-5 26t-9.5 22q-9 -15 -22.5 -30t-30 -27t-35 -19.5t-36.5 -7.5q-23 0 -39 9.5
t-27 25t-16 35t-5 39.5q0 15 5 39.5t14 52.5t22 56.5t28.5 51.5t32.5 37.5t36 14.5q26 0 46.5 -14t35 -36.5t24.5 -50.5t16 -57t8.5 -55.5t2.5 -45.5q0 -57 -11.5 -116.5t-34 -116t-56 -106t-78.5 -87.5q-39 -30 -87 -41.5t-96 -11.5q-32 0 -68.5 5t-73.5 14.5t-71.5 23
t-60.5 31.5zM292 -99q0 29 -17 51t-49 22q-14 0 -25.5 -8t-19.5 -20t-13 -26.5t-5 -26.5q0 -16 5 -25.5t13.5 -14t20 -6t24.5 -1.5q23 0 36 4q5 2 9.5 5t9.5 5q11 13 11 41zM364 315q-7 0 -14.5 -10.5t-14 -24.5t-11 -28t-4.5 -20q0 -12 14.5 -24.5t37.5 -12.5q14 0 35.5 11
t32.5 28q-4 15 -12 29.5t-18 26t-22 18.5t-24 7z" />
    <glyph glyph-name="uni06C5" unicode="&#x6c5;" horiz-adv-x="612" 
d="M426 -14q17 20 32 44t29 50q0 7 -0.5 19t-2 25t-5 26t-9.5 22q-9 -15 -22.5 -30t-30 -27t-35 -19.5t-36.5 -7.5q-23 0 -39 9.5t-27 25t-16 35t-5 39.5q0 15 5 39.5t14 52.5t22 56.5t28.5 51.5t32.5 37.5t36 14.5q26 0 46.5 -14t35 -36.5t24.5 -50.5t16 -57t8.5 -55.5
t2.5 -45.5q0 -107 -38 -212l95 -11l-37 -68l-87 11q-22 -42 -50 -79t-63 -67q-39 -30 -87 -41.5t-96 -11.5q-32 0 -68.5 5t-73.5 14.5t-71.5 23t-60.5 31.5q17 -2 33.5 -2h31.5q121 0 223.5 33t183.5 105l-154 18l29 68zM364 315q-7 0 -14.5 -10.5t-14 -24.5t-11 -28
t-4.5 -20q0 -12 14.5 -24.5t37.5 -12.5q14 0 35.5 11t32.5 28q-4 15 -12 29.5t-18 26t-22 18.5t-24 7z" />
    <glyph glyph-name="uni06C6" unicode="&#x6c6;" horiz-adv-x="612" 
d="M-107 -215q17 -2 33.5 -2h31.5q87 0 165 16.5t145 52.5t122 92.5t97 135.5q0 7 -0.5 19t-2 25t-5 26t-9.5 22q-9 -15 -22.5 -30t-30 -27t-35 -19.5t-36.5 -7.5q-23 0 -39 9.5t-27 25t-16 35t-5 39.5q0 15 5 39.5t14 52.5t22 56.5t28.5 51.5t32.5 37.5t36 14.5
q26 0 46.5 -14t35 -36.5t24.5 -50.5t16 -57t8.5 -55.5t2.5 -45.5q0 -57 -11.5 -116.5t-34 -116t-56 -106t-78.5 -87.5q-39 -30 -87 -41.5t-96 -11.5q-32 0 -68.5 5t-73.5 14.5t-71.5 23t-60.5 31.5zM364 315q-7 0 -14.5 -10.5t-14 -24.5t-11 -28t-4.5 -20q0 -12 14.5 -24.5
t37.5 -12.5q14 0 35.5 11t32.5 28q-4 15 -12 29.5t-18 26t-22 18.5t-24 7zM249 816q9 -3 22 -10t26.5 -17.5t27 -23t23.5 -26.5q17 -23 30.5 -46t20.5 -49q7 18 13.5 32t13.5 26t16 23.5t22 25.5q11 12 25 24t27.5 21t24.5 14.5t17 5.5q-1 -9 -2 -17q-2 -8 -3.5 -15.5
t-6.5 -12.5q-18 -9 -41 -30t-39 -47q-6 -10 -14 -25t-15.5 -32.5t-14.5 -35t-11 -32.5q-2 -5 -6.5 -8.5t-9.5 -3.5t-10.5 3t-7.5 8q-17 38 -32 65t-32 51q-20 29 -44.5 44.5t-43.5 22.5q5 18 9 32q4 12 8 22.5t7 10.5z" />
    <glyph glyph-name="uni06C7" unicode="&#x6c7;" horiz-adv-x="612" 
d="M-107 -215q17 -2 33.5 -2h31.5q87 0 165 16.5t145 52.5t122 92.5t97 135.5q0 7 -0.5 19t-2 25t-5 26t-9.5 22q-9 -15 -22.5 -30t-30 -27t-35 -19.5t-36.5 -7.5q-23 0 -39 9.5t-27 25t-16 35t-5 39.5q0 15 5 39.5t14 52.5t22 56.5t28.5 51.5t32.5 37.5t36 14.5
q26 0 46.5 -14t35 -36.5t24.5 -50.5t16 -57t8.5 -55.5t2.5 -45.5q0 -57 -11.5 -116.5t-34 -116t-56 -106t-78.5 -87.5q-39 -30 -87 -41.5t-96 -11.5q-32 0 -68.5 5t-73.5 14.5t-71.5 23t-60.5 31.5zM364 315q-7 0 -14.5 -10.5t-14 -24.5t-11 -28t-4.5 -20q0 -12 14.5 -24.5
t37.5 -12.5q14 0 35.5 11t32.5 28q-4 15 -12 29.5t-18 26t-22 18.5t-24 7zM472 599l-61 37q-9 -10 -17.5 -18.5t-18 -17t-20.5 -18t-26 -20.5q-17 -13 -38.5 -26t-41.5 -24q-23 -13 -47 -25l-27 47q20 11 39 22q16 9 33.5 20t29.5 19q13 9 28 22t29 25q16 14 31 29
q-17 14 -31 28q-12 12 -23 24.5t-13 23.5q-3 15 -3 28q0 36 16 61.5t37.5 41t44.5 23t37 7.5q35 0 57 -20t22 -53q0 -26 -7.5 -50t-17 -43.5t-20 -33.5t-16.5 -20l59 -38zM357 781q0 -19 15.5 -35.5t29.5 -25.5q19 16 30 39t11 49q0 20 -10 30.5t-24 10.5q-6 0 -14.5 -4
t-17 -12t-14.5 -21t-6 -31z" />
    <glyph glyph-name="uni06C7.filled" horiz-adv-x="612" 
d="M-107 -215q17 -2 33.5 -2h31.5q87 0 165 16.5t145 52.5t122 92.5t97 135.5q0 7 -0.5 19t-2 25t-5 26t-9.5 22q-9 -15 -22.5 -30t-30 -27t-35 -19.5t-36.5 -7.5q-23 0 -39 9.5t-27 25t-16 35t-5 39.5q0 15 5 39.5t14 52.5t22 56.5t28.5 51.5t32.5 37.5t36 14.5
q26 0 46.5 -14t35 -36.5t24.5 -50.5t16 -57t8.5 -55.5t2.5 -45.5q0 -57 -11.5 -116.5t-34 -116t-56 -106t-78.5 -87.5q-39 -30 -87 -41.5t-96 -11.5q-32 0 -68.5 5t-73.5 14.5t-71.5 23t-60.5 31.5zM364 315q-7 0 -14.5 -10.5t-14 -24.5t-11 -28t-4.5 -20q0 -12 14.5 -24.5
t37.5 -12.5q14 0 35.5 11t32.5 28q-4 15 -12 29.5t-18 26t-22 18.5t-24 7zM405 890q23 0 39 -8.5t25.5 -23t14 -33.5t4.5 -40q0 -53 -16.5 -94t-40.5 -70.5t-51 -48t-48 -27.5l-12 22q27 19 45.5 36.5t30.5 38.5t17.5 46t5.5 59q-5 -2 -13.5 -3t-14.5 -1q-13 0 -26 5
t-23 14.5t-16.5 22.5t-6.5 30q0 19 9.5 33t23 23.5t28 14t25.5 4.5z" />
    <glyph glyph-name="uni06C8" unicode="&#x6c8;" horiz-adv-x="612" 
d="M-107 -215q17 -2 33.5 -2h31.5q87 0 165 16.5t145 52.5t122 92.5t97 135.5q0 7 -0.5 19t-2 25t-5 26t-9.5 22q-9 -15 -22.5 -30t-30 -27t-35 -19.5t-36.5 -7.5q-23 0 -39 9.5t-27 25t-16 35t-5 39.5q0 15 5 39.5t14 52.5t22 56.5t28.5 51.5t32.5 37.5t36 14.5
q26 0 46.5 -14t35 -36.5t24.5 -50.5t16 -57t8.5 -55.5t2.5 -45.5q0 -57 -11.5 -116.5t-34 -116t-56 -106t-78.5 -87.5q-39 -30 -87 -41.5t-96 -11.5q-32 0 -68.5 5t-73.5 14.5t-71.5 23t-60.5 31.5zM364 315q-7 0 -14.5 -10.5t-14 -24.5t-11 -28t-4.5 -20q0 -12 14.5 -24.5
t37.5 -12.5q14 0 35.5 11t32.5 28q-4 15 -12 29.5t-18 26t-22 18.5t-24 7zM360 560v264l67 56v-265z" />
    <glyph glyph-name="uni06C9" unicode="&#x6c9;" horiz-adv-x="612" 
d="M-107 -215q17 -2 33.5 -2h31.5q87 0 165 16.5t145 52.5t122 92.5t97 135.5q0 7 -0.5 19t-2 25t-5 26t-9.5 22q-9 -15 -22.5 -30t-30 -27t-35 -19.5t-36.5 -7.5q-23 0 -39 9.5t-27 25t-16 35t-5 39.5q0 15 5 39.5t14 52.5t22 56.5t28.5 51.5t32.5 37.5t36 14.5
q26 0 46.5 -14t35 -36.5t24.5 -50.5t16 -57t8.5 -55.5t2.5 -45.5q0 -57 -11.5 -116.5t-34 -116t-56 -106t-78.5 -87.5q-39 -30 -87 -41.5t-96 -11.5q-32 0 -68.5 5t-73.5 14.5t-71.5 23t-60.5 31.5zM364 315q-7 0 -14.5 -10.5t-14 -24.5t-11 -28t-4.5 -20q0 -12 14.5 -24.5
t37.5 -12.5q14 0 35.5 11t32.5 28q-4 15 -12 29.5t-18 26t-22 18.5t-24 7zM144 494q8 17 24.5 48.5t38 68t46.5 74t51 68t51 50t47 19.5q27 0 54 -15.5t52.5 -40t48.5 -55.5t43 -63t35 -62t25 -51l-74 -53q-13 24 -34.5 60.5t-48.5 71.5t-58 60t-63 25q-29 0 -61.5 -25.5
t-62.5 -60t-54 -70.5t-37 -57z" />
    <glyph glyph-name="uni06CA" unicode="&#x6ca;" horiz-adv-x="612" 
d="M-107 -215q17 -2 33.5 -2h31.5q87 0 165 16.5t145 52.5t122 92.5t97 135.5q0 7 -0.5 19t-2 25t-5 26t-9.5 22q-9 -15 -22.5 -30t-30 -27t-35 -19.5t-36.5 -7.5q-23 0 -39 9.5t-27 25t-16 35t-5 39.5q0 15 5 39.5t14 52.5t22 56.5t28.5 51.5t32.5 37.5t36 14.5
q26 0 46.5 -14t35 -36.5t24.5 -50.5t16 -57t8.5 -55.5t2.5 -45.5q0 -57 -11.5 -116.5t-34 -116t-56 -106t-78.5 -87.5q-39 -30 -87 -41.5t-96 -11.5q-32 0 -68.5 5t-73.5 14.5t-71.5 23t-60.5 31.5zM364 315q-7 0 -14.5 -10.5t-14 -24.5t-11 -28t-4.5 -20q0 -12 14.5 -24.5
t37.5 -12.5q14 0 35.5 11t32.5 28q-4 15 -12 29.5t-18 26t-22 18.5t-24 7zM501 570l-104 104l104 104l107 -104zM395 674l-104 -104l-107 104l107 104z" />
    <glyph glyph-name="uni06CB" unicode="&#x6cb;" horiz-adv-x="612" 
d="M-107 -215q17 -2 33.5 -2h31.5q87 0 165 16.5t145 52.5t122 92.5t97 135.5q0 7 -0.5 19t-2 25t-5 26t-9.5 22q-9 -15 -22.5 -30t-30 -27t-35 -19.5t-36.5 -7.5q-23 0 -39 9.5t-27 25t-16 35t-5 39.5q0 15 5 39.5t14 52.5t22 56.5t28.5 51.5t32.5 37.5t36 14.5
q26 0 46.5 -14t35 -36.5t24.5 -50.5t16 -57t8.5 -55.5t2.5 -45.5q0 -57 -11.5 -116.5t-34 -116t-56 -106t-78.5 -87.5q-39 -30 -87 -41.5t-96 -11.5q-32 0 -68.5 5t-73.5 14.5t-71.5 23t-60.5 31.5zM364 315q-7 0 -14.5 -10.5t-14 -24.5t-11 -28t-4.5 -20q0 -12 14.5 -24.5
t37.5 -12.5q14 0 35.5 11t32.5 28q-4 15 -12 29.5t-18 26t-22 18.5t-24 7zM501 569l-104 107l104 104l107 -104zM291 569l-107 107l107 104l104 -104zM396 780l-104 104l104 107l104 -107z" />
    <glyph glyph-name="uni06CF" unicode="&#x6cf;" horiz-adv-x="612" 
d="M-107 -215q17 -2 33.5 -2h31.5q87 0 165 16.5t145 52.5t122 92.5t97 135.5q0 7 -0.5 19t-2 25t-5 26t-9.5 22q-9 -15 -22.5 -30t-30 -27t-35 -19.5t-36.5 -7.5q-23 0 -39 9.5t-27 25t-16 35t-5 39.5q0 15 5 39.5t14 52.5t22 56.5t28.5 51.5t32.5 37.5t36 14.5
q26 0 46.5 -14t35 -36.5t24.5 -50.5t16 -57t8.5 -55.5t2.5 -45.5q0 -57 -11.5 -116.5t-34 -116t-56 -106t-78.5 -87.5q-39 -30 -87 -41.5t-96 -11.5q-32 0 -68.5 5t-73.5 14.5t-71.5 23t-60.5 31.5zM364 315q-7 0 -14.5 -10.5t-14 -24.5t-11 -28t-4.5 -20q0 -12 14.5 -24.5
t37.5 -12.5q14 0 35.5 11t32.5 28q-4 15 -12 29.5t-18 26t-22 18.5t-24 7zM500 674l-104 -104l-104 104l104 104z" />
    <glyph glyph-name="uni062F" unicode="&#x62f;" horiz-adv-x="580" 
d="M497 240q0 -58 -14 -108.5t-44 -88.5t-75.5 -60t-108.5 -22q-59 0 -99.5 9.5t-63.5 23.5q-12 7 -12 34q0 12 1.5 35.5t4 49t6.5 48t10 34.5q15 -17 27 -26t24.5 -13.5t26.5 -5t34 -0.5q48 0 107 5.5t113 25.5q11 4 18 7.5t7 12.5q0 28 -15 57.5t-38 56t-50 47t-51 31.5
q-23 10 -46 14.5t-46 10.5q-2 0 -4 2.5t-2 5.5q-1 22 1.5 56t6 67.5t7.5 60.5t7 35q20 -3 42.5 -15.5t39.5 -23.5q44 -32 78.5 -72.5t58.5 -87.5t36.5 -99.5t12.5 -106.5z" />
    <glyph glyph-name="uni0630" unicode="&#x630;" horiz-adv-x="580" 
d="M497 240q0 -58 -14 -108.5t-44 -88.5t-75.5 -60t-108.5 -22q-59 0 -99.5 9.5t-63.5 23.5q-12 7 -12 34q0 12 1.5 35.5t4 49t6.5 48t10 34.5q15 -17 27 -26t24.5 -13.5t26.5 -5t34 -0.5q48 0 107 5.5t113 25.5q11 4 18 7.5t7 12.5q0 28 -15 57.5t-38 56t-50 47t-51 31.5
q-23 10 -46 14.5t-46 10.5q-2 0 -4 2.5t-2 5.5q-1 22 1.5 56t6 67.5t7.5 60.5t7 35q20 -3 42.5 -15.5t39.5 -23.5q44 -32 78.5 -72.5t58.5 -87.5t36.5 -99.5t12.5 -106.5zM395 875l-104 -104l-104 104l104 104z" />
    <glyph glyph-name="uni0688" unicode="&#x688;" horiz-adv-x="580" 
d="M497 240q0 -58 -14 -108.5t-44 -88.5t-75.5 -60t-108.5 -22q-59 0 -99.5 9.5t-63.5 23.5q-12 7 -12 34q0 12 1.5 35.5t4 49t6.5 48t10 34.5q15 -17 27 -26t24.5 -13.5t26.5 -5t34 -0.5q48 0 107 5.5t113 25.5q11 4 18 7.5t7 12.5q0 28 -15 57.5t-38 56t-50 47t-51 31.5
q-23 10 -46 14.5t-46 10.5q-2 0 -4 2.5t-2 5.5q-1 22 1.5 56t6 67.5t7.5 60.5t7 35q20 -3 42.5 -15.5t39.5 -23.5q44 -32 78.5 -72.5t58.5 -87.5t36.5 -99.5t12.5 -106.5zM209 767q-40 0 -71.5 19.5t-51.5 54.5l117 -11l51 47v231q-9 8 -13.5 15t-4.5 18q0 4 5.5 15.5
t12.5 23.5t14 21t10 9q2 0 2 -4q0 -5 -1.5 -11.5t-1.5 -8.5q0 -16 9.5 -27.5t24.5 -13.5l-20 -59h-10v-190q10 8 29 21.5t40 26.5t40.5 22.5t31.5 9.5q10 0 23.5 -4t25 -11.5t19.5 -18.5t8 -24q0 -28 -14 -50.5t-37.5 -39t-53.5 -28.5t-62 -19t-64 -10.5t-58 -3.5zM385 912
q-10 0 -31.5 -8t-43.5 -20t-39 -25.5t-17 -24.5q0 -3 7.5 -3.5t9.5 -0.5q9 0 37.5 3t59.5 9t55 15t24 20t-6.5 18t-16.5 10.5t-20.5 5t-18.5 1.5z" />
    <glyph glyph-name="uni0689" unicode="&#x689;" horiz-adv-x="580" 
d="M398 -112q0 -66 -37 -106t-104 -40q-33 0 -54 9t-33 25.5t-16.5 40.5t-4.5 54q0 23 5.5 48t17.5 48q-27 5 -46.5 12t-33.5 15q-12 7 -12 34q0 12 1.5 35.5t4 49t6.5 48t10 34.5q15 -17 27 -26t24.5 -13.5t26.5 -5t34 -0.5q48 0 107 5.5t113 25.5q11 4 18 7.5t7 12.5
q0 28 -15 57.5t-38 56t-50 47t-51 31.5q-23 10 -46 14.5t-46 10.5q-2 0 -4 2.5t-2 5.5q-1 22 1.5 56t6 67.5t7.5 60.5t7 35q20 -3 42.5 -15.5t39.5 -23.5q44 -32 78.5 -72.5t58.5 -87.5t36.5 -99.5t12.5 -106.5q0 -42 -7.5 -81t-23.5 -72t-39.5 -58.5t-56.5 -41.5
q14 -22 21 -47.5t7 -51.5zM332 -109q0 26 -13 46t-37 25q-7 -1 -13.5 -1h-13.5h-5q-11 -4 -19.5 -13t-14.5 -20t-9.5 -23t-3.5 -22q0 -16 5 -25.5t13.5 -14t20 -6t24.5 -1.5q34 0 50 9.5t16 45.5z" />
    <glyph glyph-name="uni068A" unicode="&#x68a;" horiz-adv-x="580" 
d="M497 240q0 -58 -14 -108.5t-44 -88.5t-75.5 -60t-108.5 -22q-59 0 -99.5 9.5t-63.5 23.5q-12 7 -12 34q0 12 1.5 35.5t4 49t6.5 48t10 34.5q15 -17 27 -26t24.5 -13.5t26.5 -5t34 -0.5q48 0 107 5.5t113 25.5q11 4 18 7.5t7 12.5q0 28 -15 57.5t-38 56t-50 47t-51 31.5
q-23 10 -46 14.5t-46 10.5q-2 0 -4 2.5t-2 5.5q-1 22 1.5 56t6 67.5t7.5 60.5t7 35q20 -3 42.5 -15.5t39.5 -23.5q44 -32 78.5 -72.5t58.5 -87.5t36.5 -99.5t12.5 -106.5zM395 -269l-104 -104l-104 104l104 104z" />
    <glyph glyph-name="uni068B" unicode="&#x68b;" horiz-adv-x="580" 
d="M497 240q0 -58 -14 -108.5t-44 -88.5t-75.5 -60t-108.5 -22q-59 0 -99.5 9.5t-63.5 23.5q-12 7 -12 34q0 12 1.5 35.5t4 49t6.5 48t10 34.5q15 -17 27 -26t24.5 -13.5t26.5 -5t34 -0.5q48 0 107 5.5t113 25.5q11 4 18 7.5t7 12.5q0 28 -15 57.5t-38 56t-50 47t-51 31.5
q-23 10 -46 14.5t-46 10.5q-2 0 -4 2.5t-2 5.5q-1 22 1.5 56t6 67.5t7.5 60.5t7 35q20 -3 42.5 -15.5t39.5 -23.5q44 -32 78.5 -72.5t58.5 -87.5t36.5 -99.5t12.5 -106.5zM209 767q-40 0 -71.5 19.5t-51.5 54.5l117 -11l51 47v231q-9 8 -13.5 15t-4.5 18q0 4 5.5 15.5
t12.5 23.5t14 21t10 9q2 0 2 -4q0 -5 -1.5 -11.5t-1.5 -8.5q0 -16 9.5 -27.5t24.5 -13.5l-20 -59h-10v-190q10 8 29 21.5t40 26.5t40.5 22.5t31.5 9.5q10 0 23.5 -4t25 -11.5t19.5 -18.5t8 -24q0 -28 -14 -50.5t-37.5 -39t-53.5 -28.5t-62 -19t-64 -10.5t-58 -3.5zM385 912
q-10 0 -31.5 -8t-43.5 -20t-39 -25.5t-17 -24.5q0 -3 7.5 -3.5t9.5 -0.5q9 0 37.5 3t59.5 9t55 15t24 20t-6.5 18t-16.5 10.5t-20.5 5t-18.5 1.5zM395 -269l-104 -104l-104 104l104 104z" />
    <glyph glyph-name="uni068C" unicode="&#x68c;" horiz-adv-x="580" 
d="M497 240q0 -58 -14 -108.5t-44 -88.5t-75.5 -60t-108.5 -22q-59 0 -99.5 9.5t-63.5 23.5q-12 7 -12 34q0 12 1.5 35.5t4 49t6.5 48t10 34.5q15 -17 27 -26t24.5 -13.5t26.5 -5t34 -0.5q48 0 107 5.5t113 25.5q11 4 18 7.5t7 12.5q0 28 -15 57.5t-38 56t-50 47t-51 31.5
q-23 10 -46 14.5t-46 10.5q-2 0 -4 2.5t-2 5.5q-1 22 1.5 56t6 67.5t7.5 60.5t7 35q20 -3 42.5 -15.5t39.5 -23.5q44 -32 78.5 -72.5t58.5 -87.5t36.5 -99.5t12.5 -106.5zM396 771l-104 104l104 104l107 -104zM290 875l-104 -104l-107 104l107 104z" />
    <glyph glyph-name="uni068D" unicode="&#x68d;" horiz-adv-x="580" 
d="M497 240q0 -58 -14 -108.5t-44 -88.5t-75.5 -60t-108.5 -22q-59 0 -99.5 9.5t-63.5 23.5q-12 7 -12 34q0 12 1.5 35.5t4 49t6.5 48t10 34.5q15 -17 27 -26t24.5 -13.5t26.5 -5t34 -0.5q48 0 107 5.5t113 25.5q11 4 18 7.5t7 12.5q0 28 -15 57.5t-38 56t-50 47t-51 31.5
q-23 10 -46 14.5t-46 10.5q-2 0 -4 2.5t-2 5.5q-1 22 1.5 56t6 67.5t7.5 60.5t7 35q20 -3 42.5 -15.5t39.5 -23.5q44 -32 78.5 -72.5t58.5 -87.5t36.5 -99.5t12.5 -106.5zM396 -373l-104 104l104 104l107 -104zM290 -269l-104 -104l-107 104l107 104z" />
    <glyph glyph-name="uni068E" unicode="&#x68e;" horiz-adv-x="580" 
d="M497 240q0 -58 -14 -108.5t-44 -88.5t-75.5 -60t-108.5 -22q-59 0 -99.5 9.5t-63.5 23.5q-12 7 -12 34q0 12 1.5 35.5t4 49t6.5 48t10 34.5q15 -17 27 -26t24.5 -13.5t26.5 -5t34 -0.5q48 0 107 5.5t113 25.5q11 4 18 7.5t7 12.5q0 28 -15 57.5t-38 56t-50 47t-51 31.5
q-23 10 -46 14.5t-46 10.5q-2 0 -4 2.5t-2 5.5q-1 22 1.5 56t6 67.5t7.5 60.5t7 35q20 -3 42.5 -15.5t39.5 -23.5q44 -32 78.5 -72.5t58.5 -87.5t36.5 -99.5t12.5 -106.5zM396 770l-104 107l104 104l107 -104zM186 770l-107 107l107 104l104 -104zM291 981l-104 104l104 107
l104 -107z" />
    <glyph glyph-name="uni068F" unicode="&#x68f;" horiz-adv-x="580" 
d="M497 240q0 -58 -14 -108.5t-44 -88.5t-75.5 -60t-108.5 -22q-59 0 -99.5 9.5t-63.5 23.5q-12 7 -12 34q0 12 1.5 35.5t4 49t6.5 48t10 34.5q15 -17 27 -26t24.5 -13.5t26.5 -5t34 -0.5q48 0 107 5.5t113 25.5q11 4 18 7.5t7 12.5q0 28 -15 57.5t-38 56t-50 47t-51 31.5
q-23 10 -46 14.5t-46 10.5q-2 0 -4 2.5t-2 5.5q-1 22 1.5 56t6 67.5t7.5 60.5t7 35q20 -3 42.5 -15.5t39.5 -23.5q44 -32 78.5 -72.5t58.5 -87.5t36.5 -99.5t12.5 -106.5zM396 981l-104 104l104 107l107 -107zM186 981l-107 104l107 107l104 -107zM291 770l-104 107l104 104
l104 -104z" />
    <glyph glyph-name="uni0690" unicode="&#x690;" horiz-adv-x="580" 
d="M497 240q0 -58 -14 -108.5t-44 -88.5t-75.5 -60t-108.5 -22q-59 0 -99.5 9.5t-63.5 23.5q-12 7 -12 34q0 12 1.5 35.5t4 49t6.5 48t10 34.5q15 -17 27 -26t24.5 -13.5t26.5 -5t34 -0.5q48 0 107 5.5t113 25.5q11 4 18 7.5t7 12.5q0 28 -15 57.5t-38 56t-50 47t-51 31.5
q-23 10 -46 14.5t-46 10.5q-2 0 -4 2.5t-2 5.5q-1 22 1.5 56t6 67.5t7.5 60.5t7 35q20 -3 42.5 -15.5t39.5 -23.5q44 -32 78.5 -72.5t58.5 -87.5t36.5 -99.5t12.5 -106.5zM396 769l-104 107l104 104l107 -104zM186 769l-107 107l107 104l104 -104zM396 982l-104 104l104 107
l107 -107zM186 982l-107 104l107 107l104 -107z" />
    <glyph glyph-name="uni06EE" unicode="&#x6ee;" horiz-adv-x="580" 
d="M497 240q0 -58 -14 -108.5t-44 -88.5t-75.5 -60t-108.5 -22q-59 0 -99.5 9.5t-63.5 23.5q-12 7 -12 34q0 12 1.5 35.5t4 49t6.5 48t10 34.5q15 -17 27 -26t24.5 -13.5t26.5 -5t34 -0.5q48 0 107 5.5t113 25.5q11 4 18 7.5t7 12.5q0 28 -15 57.5t-38 56t-50 47t-51 31.5
q-23 10 -46 14.5t-46 10.5q-2 0 -4 2.5t-2 5.5q-1 22 1.5 56t6 67.5t7.5 60.5t7 35q20 -3 42.5 -15.5t39.5 -23.5q44 -32 78.5 -72.5t58.5 -87.5t36.5 -99.5t12.5 -106.5zM39 695q8 17 24.5 48.5t38 68t46.5 74t51 68t51 50t47 19.5q27 0 54 -15.5t52.5 -40t48.5 -55.5
t43 -63t35 -62t25 -51l-74 -53q-13 24 -34.5 60.5t-48.5 71.5t-58 60t-63 25q-29 0 -61.5 -25.5t-62.5 -60t-54 -70.5t-37 -57z" />
    <glyph glyph-name="uni0759" unicode="&#x759;" horiz-adv-x="580" 
d="M497 240q0 -58 -14 -108.5t-44 -88.5t-75.5 -60t-108.5 -22q-59 0 -99.5 9.5t-63.5 23.5q-12 7 -12 34q0 12 1.5 35.5t4 49t6.5 48t10 34.5q15 -17 27 -26t24.5 -13.5t26.5 -5t34 -0.5q48 0 107 5.5t113 25.5q11 4 18 7.5t7 12.5q0 28 -15 57.5t-38 56t-50 47t-51 31.5
q-23 10 -46 14.5t-46 10.5q-2 0 -4 2.5t-2 5.5q-1 22 1.5 56t6 67.5t7.5 60.5t7 35q20 -3 42.5 -15.5t39.5 -23.5q44 -32 78.5 -72.5t58.5 -87.5t36.5 -99.5t12.5 -106.5zM209 767q-40 0 -71.5 19.5t-51.5 54.5l117 -11l51 47v231q-9 8 -13.5 15t-4.5 18q0 4 5.5 15.5
t12.5 23.5t14 21t10 9q2 0 2 -4q0 -5 -1.5 -11.5t-1.5 -8.5q0 -16 9.5 -27.5t24.5 -13.5l-20 -59h-10v-190q10 8 29 21.5t40 26.5t40.5 22.5t31.5 9.5q10 0 23.5 -4t25 -11.5t19.5 -18.5t8 -24q0 -28 -14 -50.5t-37.5 -39t-53.5 -28.5t-62 -19t-64 -10.5t-58 -3.5zM385 912
q-10 0 -31.5 -8t-43.5 -20t-39 -25.5t-17 -24.5q0 -3 7.5 -3.5t9.5 -0.5q9 0 37.5 3t59.5 9t55 15t24 20t-6.5 18t-16.5 10.5t-20.5 5t-18.5 1.5zM291 -587l-104 107l104 104l104 -104zM291 -374l-104 104l104 107l104 -107z" />
    <glyph glyph-name="uni075A" unicode="&#x75a;" horiz-adv-x="580" 
d="M497 240q0 -58 -14 -108.5t-44 -88.5t-75.5 -60t-108.5 -22q-59 0 -99.5 9.5t-63.5 23.5q-12 7 -12 34q0 12 1.5 35.5t4 49t6.5 48t10 34.5q15 -17 27 -26t24.5 -13.5t26.5 -5t34 -0.5q48 0 107 5.5t113 25.5q11 4 18 7.5t7 12.5q0 28 -15 57.5t-38 56t-50 47t-51 31.5
q-23 10 -46 14.5t-46 10.5q-2 0 -4 2.5t-2 5.5q-1 22 1.5 56t6 67.5t7.5 60.5t7 35q20 -3 42.5 -15.5t39.5 -23.5q44 -32 78.5 -72.5t58.5 -87.5t36.5 -99.5t12.5 -106.5zM429 -422q-9 3 -22 10t-26.5 17.5t-27 23t-23.5 26.5q-17 23 -30.5 46t-20.5 49q-8 -18 -14 -32
t-13 -26t-16 -23.5t-22 -25.5q-11 -12 -25 -24t-27.5 -21t-24.5 -14.5t-17 -5.5q-1 8 1 17q1 7 3.5 15t7.5 13q18 9 41 30t39 47q6 10 14 25t15.5 32t14.5 35t11 33q2 5 6.5 8.5t9.5 3.5t10.5 -3t7.5 -8q17 -38 32 -65t32 -51q20 -29 44.5 -44.5t43.5 -22.5q-5 -19 -9 -33
q-4 -12 -8.5 -22t-6.5 -10z" />
    <glyph glyph-name="uni0631" unicode="&#x631;" horiz-adv-x="590" 
d="M-111 -256q2 0 1.5 4.5t2.5 4.5q14 -5 31 -8t44 -3q32 0 71 7t80 21t82 35t77 50q22 18 51.5 43.5t55.5 56t44.5 63t18.5 64.5q0 15 -13 36t-31 41.5t-36.5 38t-30.5 27.5l41 160q23 -15 47.5 -38.5t45.5 -56.5t28.5 -68.5t7.5 -71.5q0 -65 -17.5 -136t-64.5 -162
q-46 -91 -110.5 -143.5t-149.5 -52.5q-31 0 -68.5 6.5t-75.5 18.5t-73 28t-59 35z" />
    <glyph glyph-name="uni0632" unicode="&#x632;" horiz-adv-x="590" 
d="M-111 -256q2 0 1.5 4.5t2.5 4.5q14 -5 31 -8t44 -3q32 0 71 7t80 21t82 35t77 50q22 18 51.5 43.5t55.5 56t44.5 63t18.5 64.5q0 15 -13 36t-31 41.5t-36.5 38t-30.5 27.5l41 160q23 -15 47.5 -38.5t45.5 -56.5t28.5 -68.5t7.5 -71.5q0 -65 -17.5 -136t-64.5 -162
q-46 -91 -110.5 -143.5t-149.5 -52.5q-31 0 -68.5 6.5t-75.5 18.5t-73 28t-59 35zM480 616l-104 -104l-104 104l104 104z" />
    <glyph glyph-name="uni0691" unicode="&#x691;" horiz-adv-x="590" 
d="M-111 -256q2 0 1.5 4.5t2.5 4.5q14 -5 31 -8t44 -3q32 0 71 7t80 21t82 35t77 50q22 18 51.5 43.5t55.5 56t44.5 63t18.5 64.5q0 15 -13 36t-31 41.5t-36.5 38t-30.5 27.5l41 160q23 -15 47.5 -38.5t45.5 -56.5t28.5 -68.5t7.5 -71.5q0 -65 -17.5 -136t-64.5 -162
q-46 -91 -110.5 -143.5t-149.5 -52.5q-31 0 -68.5 6.5t-75.5 18.5t-73 28t-59 35zM294 508q-40 0 -71.5 19.5t-51.5 54.5l117 -11l51 47v231q-9 8 -13.5 15t-4.5 18q0 4 5.5 15.5t12.5 23.5t14 21t10 9q2 0 2 -4q0 -5 -1.5 -11.5t-1.5 -8.5q0 -16 9.5 -27.5t24.5 -13.5
l-20 -59h-10v-190q10 8 29 21.5t40 26.5t40.5 22.5t31.5 9.5q10 0 23.5 -4t25 -11.5t19.5 -18.5t8 -24q0 -28 -14 -50.5t-37.5 -39t-53.5 -28.5t-62 -19t-64 -10.5t-58 -3.5zM470 653q-10 0 -31.5 -8t-43.5 -20t-39 -25.5t-17 -24.5q0 -3 7.5 -3.5t9.5 -0.5q9 0 37.5 3
t59.5 9t55 15t24 20t-6.5 18t-16.5 10.5t-20.5 5t-18.5 1.5z" />
    <glyph glyph-name="uni0692" unicode="&#x692;" horiz-adv-x="590" 
d="M-111 -256q2 0 1.5 4.5t2.5 4.5q14 -5 31 -8t44 -3q32 0 71 7t80 21t82 35t77 50q22 18 51.5 43.5t55.5 56t44.5 63t18.5 64.5q0 15 -13 36t-31 41.5t-36.5 38t-30.5 27.5l41 160q23 -15 47.5 -38.5t45.5 -56.5t28.5 -68.5t7.5 -71.5q0 -65 -17.5 -136t-64.5 -162
q-46 -91 -110.5 -143.5t-149.5 -52.5q-31 0 -68.5 6.5t-75.5 18.5t-73 28t-59 35zM229 758q9 -3 22 -10t26.5 -17.5t27 -23t23.5 -26.5q17 -23 30.5 -46t20.5 -49q7 18 13.5 32t13.5 26t16 23.5t22 25.5q11 12 25 24t27.5 21t24.5 14.5t17 5.5q-1 -9 -2 -17
q-2 -8 -3.5 -15.5t-6.5 -12.5q-18 -9 -41 -30t-39 -47q-6 -10 -14 -25t-15.5 -32.5t-14.5 -35t-11 -32.5q-2 -5 -6.5 -8.5t-9.5 -3.5t-10.5 3t-7.5 8q-17 38 -32 65t-32 51q-20 29 -44.5 44.5t-43.5 22.5q5 18 9 32q4 12 8 22.5t7 10.5z" />
    <glyph glyph-name="uni0693" unicode="&#x693;" horiz-adv-x="590" 
d="M486 -357q0 -66 -37 -106t-104 -40q-33 0 -54 9t-33 25.5t-16.5 40.5t-4.5 54q0 23 4 43q-35 -13 -76 -13q-31 0 -68.5 6.5t-75.5 18.5t-73 28t-59 35q2 0 1.5 4.5t2.5 4.5q14 -5 31 -8t44 -3q32 0 71 7t80 21t82 35t77 50q22 18 51.5 43.5t55.5 56t44.5 63t18.5 64.5
q0 15 -13 36t-31 41.5t-36.5 38t-30.5 27.5l41 160q23 -15 47.5 -38.5t45.5 -56.5t28.5 -68.5t7.5 -71.5q0 -65 -17.5 -136t-64.5 -162q-16 -31 -36 -61q24 -6 42.5 -21t30.5 -35t18 -44t6 -48zM420 -354q0 29 -17 51t-49 22q-14 0 -25.5 -8t-19.5 -20t-13 -26.5t-5 -26.5
q0 -16 5 -25.5t13.5 -14t20 -6t24.5 -1.5q34 0 50 9.5t16 45.5z" />
    <glyph glyph-name="uni0694" unicode="&#x694;" horiz-adv-x="590" 
d="M-111 -256q2 0 1.5 4.5t2.5 4.5q14 -5 31 -8t44 -3q32 0 71 7t80 21t82 35t77 50q22 18 51.5 43.5t55.5 56t44.5 63t18.5 64.5q0 15 -13 36t-31 41.5t-36.5 38t-30.5 27.5l41 160q23 -15 47.5 -38.5t45.5 -56.5t28.5 -68.5t7.5 -71.5q0 -65 -17.5 -136t-64.5 -162
q-46 -91 -110.5 -143.5t-149.5 -52.5q-31 0 -68.5 6.5t-75.5 18.5t-73 28t-59 35zM476 -520l-104 -104l-104 104l104 104z" />
    <glyph glyph-name="uni0695" unicode="&#x695;" horiz-adv-x="590" 
d="M-111 -256q2 0 1.5 4.5t2.5 4.5q14 -5 31 -8t44 -3q32 0 71 7t80 21t82 35t77 50q22 18 51.5 43.5t55.5 56t44.5 63t18.5 64.5q0 15 -13 36t-31 41.5t-36.5 38t-30.5 27.5l41 160q23 -15 47.5 -38.5t45.5 -56.5t28.5 -68.5t7.5 -71.5q0 -65 -17.5 -136t-64.5 -162
q-46 -91 -110.5 -143.5t-149.5 -52.5q-31 0 -68.5 6.5t-75.5 18.5t-73 28t-59 35zM225 -414q9 -3 22 -10t26.5 -17.5t27 -23t23.5 -26.5q17 -23 30.5 -46t20.5 -49q7 18 13.5 32t13.5 26t16 23.5t22 25.5q11 12 25 24t27.5 21t24.5 14.5t17 5.5q-1 -9 -2 -17
q-2 -8 -3.5 -15.5t-6.5 -12.5q-18 -9 -41 -30t-39 -47q-6 -10 -14 -25t-15.5 -32.5t-14.5 -35t-11 -32.5q-2 -5 -6.5 -8.5t-9.5 -3.5t-10.5 3t-7.5 8q-17 38 -32 65t-32 51q-20 29 -44.5 44.5t-43.5 22.5q5 18 9 32q4 12 8 22.5t7 10.5z" />
    <glyph glyph-name="uni0696" unicode="&#x696;" horiz-adv-x="590" 
d="M-111 -256q2 0 1.5 4.5t2.5 4.5q14 -5 31 -8t44 -3q32 0 71 7t80 21t82 35t77 50q22 18 51.5 43.5t55.5 56t44.5 63t18.5 64.5q0 15 -13 36t-31 41.5t-36.5 38t-30.5 27.5l41 160q23 -15 47.5 -38.5t45.5 -56.5t28.5 -68.5t7.5 -71.5q0 -65 -17.5 -136t-64.5 -162
q-46 -91 -110.5 -143.5t-149.5 -52.5q-31 0 -68.5 6.5t-75.5 18.5t-73 28t-59 35zM476 -520l-104 -104l-104 104l104 104zM262 99l-104 -104l-104 104l104 104z" />
    <glyph glyph-name="uni0697" unicode="&#x697;" horiz-adv-x="590" 
d="M-111 -256q2 0 1.5 4.5t2.5 4.5q14 -5 31 -8t44 -3q32 0 71 7t80 21t82 35t77 50q22 18 51.5 43.5t55.5 56t44.5 63t18.5 64.5q0 15 -13 36t-31 41.5t-36.5 38t-30.5 27.5l41 160q23 -15 47.5 -38.5t45.5 -56.5t28.5 -68.5t7.5 -71.5q0 -65 -17.5 -136t-64.5 -162
q-46 -91 -110.5 -143.5t-149.5 -52.5q-31 0 -68.5 6.5t-75.5 18.5t-73 28t-59 35zM481 512l-104 104l104 104l107 -104zM375 616l-104 -104l-107 104l107 104z" />
    <glyph glyph-name="uni0698" unicode="&#x698;" horiz-adv-x="590" 
d="M-111 -256q2 0 1.5 4.5t2.5 4.5q14 -5 31 -8t44 -3q32 0 71 7t80 21t82 35t77 50q22 18 51.5 43.5t55.5 56t44.5 63t18.5 64.5q0 15 -13 36t-31 41.5t-36.5 38t-30.5 27.5l41 160q23 -15 47.5 -38.5t45.5 -56.5t28.5 -68.5t7.5 -71.5q0 -65 -17.5 -136t-64.5 -162
q-46 -91 -110.5 -143.5t-149.5 -52.5q-31 0 -68.5 6.5t-75.5 18.5t-73 28t-59 35zM481 511l-104 107l104 104l107 -104zM271 511l-107 107l107 104l104 -104zM376 722l-104 104l104 107l104 -107z" />
    <glyph glyph-name="uni0699" unicode="&#x699;" horiz-adv-x="590" 
d="M-111 -256q2 0 1.5 4.5t2.5 4.5q14 -5 31 -8t44 -3q32 0 71 7t80 21t82 35t77 50q22 18 51.5 43.5t55.5 56t44.5 63t18.5 64.5q0 15 -13 36t-31 41.5t-36.5 38t-30.5 27.5l41 160q23 -15 47.5 -38.5t45.5 -56.5t28.5 -68.5t7.5 -71.5q0 -65 -17.5 -136t-64.5 -162
q-46 -91 -110.5 -143.5t-149.5 -52.5q-31 0 -68.5 6.5t-75.5 18.5t-73 28t-59 35zM481 510l-104 107l104 104l107 -104zM271 510l-107 107l107 104l104 -104zM481 723l-104 104l104 107l107 -107zM271 723l-107 104l107 107l104 -107z" />
    <glyph glyph-name="uni076B" unicode="&#x76b;" horiz-adv-x="590" 
d="M-111 -256q2 0 1.5 4.5t2.5 4.5q14 -5 31 -8t44 -3q32 0 71 7t80 21t82 35t77 50q22 18 51.5 43.5t55.5 56t44.5 63t18.5 64.5q0 15 -13 36t-31 41.5t-36.5 38t-30.5 27.5l41 160q23 -15 47.5 -38.5t45.5 -56.5t28.5 -68.5t7.5 -71.5q0 -65 -17.5 -136t-64.5 -162
q-46 -91 -110.5 -143.5t-149.5 -52.5q-31 0 -68.5 6.5t-75.5 18.5t-73 28t-59 35zM376 510l-104 107l104 104l104 -104zM376 723l-104 104l104 107l104 -107z" />
    <glyph glyph-name="uni076C" unicode="&#x76c;" horiz-adv-x="590" 
d="M-111 -256q2 0 1.5 4.5t2.5 4.5q14 -5 31 -8t44 -3q32 0 71 7t80 21t82 35t77 50q22 18 51.5 43.5t55.5 56t44.5 63t18.5 64.5q0 15 -13 36t-31 41.5t-36.5 38t-30.5 27.5l41 160q23 -15 47.5 -38.5t45.5 -56.5t28.5 -68.5t7.5 -71.5q0 -65 -17.5 -136t-64.5 -162
q-46 -91 -110.5 -143.5t-149.5 -52.5q-31 0 -68.5 6.5t-75.5 18.5t-73 28t-59 35zM437 740q-15 0 -29 8.5t-32 8.5q-10 0 -23.5 -6t-25.5 -15t-20.5 -20.5t-8.5 -22.5q0 -12 11 -21t26.5 -14t31.5 -7.5t25 -2.5h164l-49 -82h-37q-35 1 -71.5 -6.5t-71 -22t-66 -35
t-57.5 -44.5l-19 26q4 7 15.5 20t23.5 27t21.5 26.5t9.5 18.5q0 9 -7 20.5t-15.5 24.5t-15.5 27t-7 29q0 11 12.5 28t31.5 36.5t43 39t46.5 35t42 25.5t29.5 10t22 -5.5t22 -14t16.5 -19.5t6.5 -21q0 -8 -4 -17t-10 -16.5t-14 -12.5t-17 -5z" />
    <glyph glyph-name="uni0771" unicode="&#x771;" horiz-adv-x="590" 
d="M-111 -256q2 0 1.5 4.5t2.5 4.5q14 -5 31 -8t44 -3q32 0 71 7t80 21t82 35t77 50q22 18 51.5 43.5t55.5 56t44.5 63t18.5 64.5q0 15 -13 36t-31 41.5t-36.5 38t-30.5 27.5l41 160q23 -15 47.5 -38.5t45.5 -56.5t28.5 -68.5t7.5 -71.5q0 -65 -17.5 -136t-64.5 -162
q-46 -91 -110.5 -143.5t-149.5 -52.5q-31 0 -68.5 6.5t-75.5 18.5t-73 28t-59 35zM271 512l-107 104l107 104l104 -104zM481 512l-104 104l104 104l107 -104zM294 778q-40 0 -71.5 19.5t-51.5 54.5l117 -11l51 47v191q-9 8 -13.5 15t-4.5 18q0 4 5.5 15.5t12.5 23.5t14 21
t10 9q2 0 2 -4q0 -5 -1.5 -11.5t-1.5 -8.5q0 -16 9.5 -27.5t24.5 -13.5l-20 -59h-10v-150q10 8 29 21.5t40 26.5t40.5 22.5t31.5 9.5q10 0 23.5 -4t25 -11.5t19.5 -18.5t8 -24q0 -28 -14 -50.5t-37.5 -39t-53.5 -28.5t-62 -19t-64 -10.5t-58 -3.5zM470 923q-10 0 -31.5 -8
t-43.5 -20t-39 -25.5t-17 -24.5q0 -3 7.5 -3.5t9.5 -0.5q9 0 37.5 3t59.5 9t55 15t24 20t-6.5 18t-16.5 10.5t-20.5 5t-18.5 1.5z" />
    <glyph glyph-name="uni08B2" unicode="&#x8b2;" horiz-adv-x="590" 
d="M-111 -256q2 0 1.5 4.5t2.5 4.5q14 -5 31 -8t44 -3q32 0 71 7t80 21t82 35t77 50q22 18 51.5 43.5t55.5 56t44.5 63t18.5 64.5q0 15 -13 36t-31 41.5t-36.5 38t-30.5 27.5l41 160q23 -15 47.5 -38.5t45.5 -56.5t28.5 -68.5t7.5 -71.5q0 -65 -17.5 -136t-64.5 -162
q-46 -91 -110.5 -143.5t-149.5 -52.5q-31 0 -68.5 6.5t-75.5 18.5t-73 28t-59 35zM376 512l-104 104l104 104l104 -104zM132 648q8 17 24.5 48.5t38 68t46.5 74t51 68t51 50t47 19.5q27 0 54 -15.5t52.5 -40t48.5 -55.5t42.5 -63t35 -62t25.5 -51l-74 -53q-13 24 -34.5 60.5
t-48.5 71.5t-58 60t-63 25q-29 0 -61.5 -25.5t-62 -60t-54 -70.5t-37.5 -57z" />
    <glyph glyph-name="uni06EF" unicode="&#x6ef;" horiz-adv-x="590" 
d="M-111 -256q2 0 1.5 4.5t2.5 4.5q14 -5 31 -8t44 -3q32 0 71 7t80 21t82 35t77 50q22 18 51.5 43.5t55.5 56t44.5 63t18.5 64.5q0 15 -13 36t-31 41.5t-36.5 38t-30.5 27.5l41 160q23 -15 47.5 -38.5t45.5 -56.5t28.5 -68.5t7.5 -71.5q0 -65 -17.5 -136t-64.5 -162
q-46 -91 -110.5 -143.5t-149.5 -52.5q-31 0 -68.5 6.5t-75.5 18.5t-73 28t-59 35zM124 436q8 17 24.5 48.5t38 68t46.5 74t51 68t51 50t47 19.5q27 0 54 -15.5t52.5 -40t48.5 -55.5t43 -63t35 -62t25 -51l-74 -53q-13 24 -34.5 60.5t-48.5 71.5t-58 60t-63 25
q-29 0 -61.5 -25.5t-62.5 -60t-54 -70.5t-37 -57z" />
    <glyph glyph-name="uni075B" unicode="&#x75b;" horiz-adv-x="590" 
d="M437 32q11 27 11 50q0 15 -13 36t-31 41.5t-36.5 38t-30.5 27.5l41 160q23 -15 47.5 -38.5t45.5 -56.5t28.5 -68.5t7.5 -71.5q0 -30 -3.5 -60.5t-11.5 -63.5l107 -12l-37 -68l-91 11q-17 -48 -46 -105q-46 -91 -110.5 -143.5t-149.5 -52.5q-31 0 -68.5 6.5t-75.5 18.5
t-73 28t-59 35q2 0 1.5 4.5t2.5 4.5q14 -5 31 -8t44 -3q32 0 71 7t80 21t82 35t77 50q24 20 56.5 48.5t59.5 62.5l-171 20l29 68z" />
    <glyph glyph-name="uni08AA" unicode="&#x8aa;" horiz-adv-x="604" 
d="M439 -148q-26 -42 -50 -76t-50 -59q23 -21 42.5 -41.5t36.5 -39.5q-1 -5 -7.5 -11.5t-11.5 -6.5q-44 42 -89 75q-27 -18 -58.5 -27.5t-72.5 -9.5q-30 0 -79 9t-96 27.5t-81 47.5t-34 69q0 43 31.5 70t79.5 27q53 0 112.5 -27.5t116.5 -69.5q15 10 30.5 21.5t32.5 24.5
q22 18 51.5 43.5t55.5 56t44.5 63t18.5 64.5q0 15 -13 36t-31 41.5t-36.5 38t-30.5 27.5l41 160q23 -15 47.5 -38.5t45.5 -56.5t28.5 -68.5t7.5 -71.5q0 -65 -17.5 -136t-64.5 -162zM24 -265q34 0 70 9.5t77 30.5q-78 33 -138 33q-19 0 -31 -4.5t-19 -10.5t-9.5 -12.5
t-2.5 -11.5q0 -34 53 -34z" />
    <glyph glyph-name="uni06CD" unicode="&#x6cd;" horiz-adv-x="1148" 
d="M1035 389q-3 5 -8 12.5t-11 14t-13 11.5t-15 5q-26 0 -67.5 -21.5t-81 -53t-68 -66.5t-28.5 -62q0 -24 20.5 -39t55 -24t78.5 -14.5t91 -10.5q46 -5 64 -29t18 -75q0 -20 -5.5 -45t-19 -53t-36.5 -56.5t-58 -55.5q-51 -39 -110.5 -73t-120 -58.5t-117 -39t-100.5 -14.5
q-78 0 -138 23t-100.5 66t-61 104t-20.5 138q0 45 10 91.5t30 85.5q-18 -16 -41.5 -28.5t-50.5 -21t-55 -13t-53 -4.5q-6 0 -14.5 0.5t-8.5 5.5q0 8 5 8q34 7 71.5 23t74.5 38.5t71.5 51t61.5 61.5q3 4 7 4q7 0 7 -9q0 -15 -6 -39t-12.5 -51.5t-12.5 -58t-6 -58.5
q0 -62 18.5 -106t53 -72.5t82.5 -41.5t108 -13q77 0 152 20q10 2 36.5 11t60.5 22t71 28.5t68 31t51 30t20 25.5q0 13 -22.5 16t-56 3.5t-73 3t-73 14.5t-56 38t-22.5 74q0 36 15.5 84t42 99.5t62 101t75 89t81 63.5t80.5 24q26 0 45 -15.5t19 -43.5q0 -17 -7 -37.5t-17 -42
t-21 -41.5t-19 -35z" />
    <glyph glyph-name="uni06D2" unicode="&#x6d2;" horiz-adv-x="1178" 
d="M1165 -270q0 -8 -8 -21.5t-19 -28t-21.5 -27t-16.5 -17.5q-29 -29 -78 -46t-130 -27t-200.5 -13t-290.5 -3q-50 0 -106.5 7t-105 22.5t-80.5 41.5t-32 65q0 73 16 127t49 93.5t82.5 68t115.5 51.5q55 19 88 34.5t54.5 37t37.5 53.5t37 83v-1q2 9 8.5 13.5t14 4.5t13.5 -5
t7 -15q2 -20 7.5 -38t16 -37t27.5 -40.5t43 -46.5q5 -5 3.5 -16t-4.5 -22q-4 -13 -10 -28q-9 7 -22.5 18t-27.5 24t-28 28t-23 30q-11 -47 -44.5 -77.5t-77 -51.5t-91.5 -36.5t-87.5 -33.5t-65.5 -42t-26 -62q0 -24 29.5 -40t75.5 -25.5t101.5 -14.5t106.5 -6.5t91.5 -1.5
h56.5q128 0 256 5t258 16z" />
    <glyph glyph-name="uni06D3" unicode="&#x6d3;" horiz-adv-x="1178" 
d="M1165 -270q0 -8 -8 -21.5t-19 -28t-21.5 -27t-16.5 -17.5q-29 -29 -78 -46t-130 -27t-200.5 -13t-290.5 -3q-50 0 -106.5 7t-105 22.5t-80.5 41.5t-32 65q0 73 16 127t49 93.5t82.5 68t115.5 51.5q55 19 88 34.5t54.5 37t37.5 53.5t37 83v-1q2 9 8.5 13.5t14 4.5t13.5 -5
t7 -15q2 -20 7.5 -38t16 -37t27.5 -40.5t43 -46.5q5 -5 3.5 -16t-4.5 -22q-4 -13 -10 -28q-9 7 -22.5 18t-27.5 24t-28 28t-23 30q-11 -47 -44.5 -77.5t-77 -51.5t-91.5 -36.5t-87.5 -33.5t-65.5 -42t-26 -62q0 -24 29.5 -40t75.5 -25.5t101.5 -14.5t106.5 -6.5t91.5 -1.5
h56.5q128 0 256 5t258 16zM446 590q-15 0 -29 8.5t-32 8.5q-10 0 -23.5 -6t-25.5 -15t-20.5 -20.5t-8.5 -22.5q0 -12 11 -21t26.5 -14t31.5 -7.5t25 -2.5h164l-49 -82h-37q-35 1 -71.5 -6.5t-71 -22t-66 -35t-57.5 -44.5l-19 26q4 7 15.5 20t23.5 27t21.5 26.5t9.5 18.5
q0 9 -7 20.5t-15.5 24.5t-15.5 27t-7 29q0 11 12.5 28t31.5 36.5t43 39t46.5 35t42 25.5t29.5 10t22 -5.5t22 -14t16.5 -19.5t6.5 -21q0 -8 -4 -17t-10 -16.5t-14 -12.5t-17 -5z" />
    <glyph glyph-name="uni0626" unicode="&#x626;" horiz-adv-x="1016" 
d="M539 958q-15 0 -29 8.5t-32 8.5q-10 0 -23.5 -6t-25.5 -15t-20.5 -20.5t-8.5 -22.5q0 -12 11 -21t26.5 -14t31.5 -7.5t25 -2.5h164l-49 -82h-37q-35 1 -71.5 -6.5t-71 -22t-66 -35t-57.5 -44.5l-19 26q4 7 15.5 20t23.5 27t21.5 26.5t9.5 18.5q0 9 -7 20.5t-15.5 24.5
t-15.5 27t-7 29q0 11 12.5 28t31.5 36.5t43 39t46.5 35t42 25.5t29.5 10t22 -5.5t22 -14t16.5 -19.5t6.5 -21q0 -8 -4 -17t-10 -16.5t-14 -12.5t-17 -5zM902 389q-3 5 -8 12.5t-11 14t-13 11.5t-15 5q-26 0 -67.5 -21.5t-81 -53t-68 -66.5t-28.5 -62q0 -24 21.5 -38.5
t56 -23.5t76 -14t82.5 -9q51 -5 71 -30.5t20 -76.5q0 -25 -9 -55t-24.5 -60t-36 -57t-44.5 -45q-53 -41 -114.5 -74t-122.5 -56t-117.5 -35.5t-98.5 -12.5q-78 0 -138 23t-100.5 66t-61 104t-20.5 138q0 67 25.5 141.5t76.5 152.5q5 7 13 7q0 -1 1 -2q2 -2 2 -5
q-16 -42 -28 -96.5t-12 -111.5q0 -62 18.5 -106t53 -72.5t82.5 -41.5t108 -13q49 0 102.5 7.5t104.5 20t96.5 29t80 35.5t55 38.5t20.5 37.5q0 8 -14.5 12.5t-32.5 6t-35 1.5h-22q-33 1 -68 5.5t-64.5 17t-48 37.5t-18.5 69q0 36 15.5 84t42 99.5t62 101t75 89t81 63.5
t80.5 24q26 0 45 -15.5t19 -43.5q0 -17 -7 -37.5t-17 -42t-21 -41.5t-19 -35z" />
    <glyph glyph-name="uni064A" unicode="&#x64a;" horiz-adv-x="1016" 
d="M443 -691l-104 104l104 104l107 -104zM337 -587l-104 -104l-107 104l107 104zM902 389q-3 5 -8 12.5t-11 14t-13 11.5t-15 5q-26 0 -67.5 -21.5t-81 -53t-68 -66.5t-28.5 -62q0 -24 21.5 -38.5t56 -23.5t76 -14t82.5 -9q51 -5 71 -30.5t20 -76.5q0 -25 -9 -55t-24.5 -60
t-36 -57t-44.5 -45q-53 -41 -114.5 -74t-122.5 -56t-117.5 -35.5t-98.5 -12.5q-78 0 -138 23t-100.5 66t-61 104t-20.5 138q0 67 25.5 141.5t76.5 152.5q5 7 13 7q0 -1 1 -2q2 -2 2 -5q-16 -42 -28 -96.5t-12 -111.5q0 -62 18.5 -106t53 -72.5t82.5 -41.5t108 -13
q49 0 102.5 7.5t104.5 20t96.5 29t80 35.5t55 38.5t20.5 37.5q0 8 -14.5 12.5t-32.5 6t-35 1.5h-22q-33 1 -68 5.5t-64.5 17t-48 37.5t-18.5 69q0 36 15.5 84t42 99.5t62 101t75 89t81 63.5t80.5 24q26 0 45 -15.5t19 -43.5q0 -17 -7 -37.5t-17 -42t-21 -41.5t-19 -35z" />
    <glyph glyph-name="uni064A.noDots" horiz-adv-x="1016" 
d="M902 389q-3 5 -8 12.5t-11 14t-13 11.5t-15 5q-26 0 -67.5 -21.5t-81 -53t-68 -66.5t-28.5 -62q0 -24 21.5 -38.5t56 -23.5t76 -14t82.5 -9q51 -5 71 -30.5t20 -76.5q0 -25 -9 -55t-24.5 -60t-36 -57t-44.5 -45q-53 -41 -114.5 -74t-122.5 -56t-117.5 -35.5t-98.5 -12.5
q-78 0 -138 23t-100.5 66t-61 104t-20.5 138q0 67 25.5 141.5t76.5 152.5q5 7 13 7q0 -1 1 -2q2 -2 2 -5q-16 -42 -28 -96.5t-12 -111.5q0 -62 18.5 -106t53 -72.5t82.5 -41.5t108 -13q49 0 102.5 7.5t104.5 20t96.5 29t80 35.5t55 38.5t20.5 37.5q0 8 -14.5 12.5t-32.5 6
t-35 1.5h-22q-33 1 -68 5.5t-64.5 17t-48 37.5t-18.5 69q0 36 15.5 84t42 99.5t62 101t75 89t81 63.5t80.5 24q26 0 45 -15.5t19 -43.5q0 -17 -7 -37.5t-17 -42t-21 -41.5t-19 -35z" />
    <glyph glyph-name="uni0678" unicode="&#x678;" horiz-adv-x="1016" 
d="M729 1036q-15 0 -29 8.5t-32 8.5q-10 0 -23.5 -6t-25.5 -15t-20.5 -20.5t-8.5 -22.5q0 -12 11 -21t26.5 -14t31.5 -7.5t25 -2.5h164l-49 -82h-37q-35 1 -71.5 -6.5t-71 -22t-66 -35t-57.5 -44.5l-19 26q4 7 15.5 20t23.5 27t21.5 26.5t9.5 18.5q0 9 -7 20.5t-15.5 24.5
t-15.5 27t-7 29q0 11 12.5 28t31.5 36.5t43 39t46.5 35t42 25.5t29.5 10t22 -5.5t22 -14t16.5 -19.5t6.5 -21q0 -8 -4 -17t-10 -16.5t-14 -12.5t-17 -5zM902 389q-3 5 -8 12.5t-11 14t-13 11.5t-15 5q-26 0 -67.5 -21.5t-81 -53t-68 -66.5t-28.5 -62q0 -24 21.5 -38.5
t56 -23.5t76 -14t82.5 -9q51 -5 71 -30.5t20 -76.5q0 -25 -9 -55t-24.5 -60t-36 -57t-44.5 -45q-53 -41 -114.5 -74t-122.5 -56t-117.5 -35.5t-98.5 -12.5q-78 0 -138 23t-100.5 66t-61 104t-20.5 138q0 67 25.5 141.5t76.5 152.5q5 7 13 7q0 -1 1 -2q2 -2 2 -5
q-16 -42 -28 -96.5t-12 -111.5q0 -62 18.5 -106t53 -72.5t82.5 -41.5t108 -13q49 0 102.5 7.5t104.5 20t96.5 29t80 35.5t55 38.5t20.5 37.5q0 8 -14.5 12.5t-32.5 6t-35 1.5h-22q-33 1 -68 5.5t-64.5 17t-48 37.5t-18.5 69q0 36 15.5 84t42 99.5t62 101t75 89t81 63.5
t80.5 24q26 0 45 -15.5t19 -43.5q0 -17 -7 -37.5t-17 -42t-21 -41.5t-19 -35z" />
    <glyph glyph-name="uni06CC" unicode="&#x6cc;" horiz-adv-x="1016" 
d="M902 389q-3 5 -8 12.5t-11 14t-13 11.5t-15 5q-26 0 -67.5 -21.5t-81 -53t-68 -66.5t-28.5 -62q0 -24 21.5 -38.5t56 -23.5t76 -14t82.5 -9q51 -5 71 -30.5t20 -76.5q0 -25 -9 -55t-24.5 -60t-36 -57t-44.5 -45q-53 -41 -114.5 -74t-122.5 -56t-117.5 -35.5t-98.5 -12.5
q-78 0 -138 23t-100.5 66t-61 104t-20.5 138q0 67 25.5 141.5t76.5 152.5q5 7 13 7q0 -1 1 -2q2 -2 2 -5q-16 -42 -28 -96.5t-12 -111.5q0 -62 18.5 -106t53 -72.5t82.5 -41.5t108 -13q49 0 102.5 7.5t104.5 20t96.5 29t80 35.5t55 38.5t20.5 37.5q0 8 -14.5 12.5t-32.5 6
t-35 1.5h-22q-33 1 -68 5.5t-64.5 17t-48 37.5t-18.5 69q0 36 15.5 84t42 99.5t62 101t75 89t81 63.5t80.5 24q26 0 45 -15.5t19 -43.5q0 -17 -7 -37.5t-17 -42t-21 -41.5t-19 -35z" />
    <glyph glyph-name="uni063D" unicode="&#x63d;" horiz-adv-x="1016" 
d="M902 389q-3 5 -8 12.5t-11 14t-13 11.5t-15 5q-26 0 -67.5 -21.5t-81 -53t-68 -66.5t-28.5 -62q0 -24 21.5 -38.5t56 -23.5t76 -14t82.5 -9q51 -5 71 -30.5t20 -76.5q0 -25 -9 -55t-24.5 -60t-36 -57t-44.5 -45q-53 -41 -114.5 -74t-122.5 -56t-117.5 -35.5t-98.5 -12.5
q-78 0 -138 23t-100.5 66t-61 104t-20.5 138q0 67 25.5 141.5t76.5 152.5q5 7 13 7q0 -1 1 -2q2 -2 2 -5q-16 -42 -28 -96.5t-12 -111.5q0 -62 18.5 -106t53 -72.5t82.5 -41.5t108 -13q49 0 102.5 7.5t104.5 20t96.5 29t80 35.5t55 38.5t20.5 37.5q0 8 -14.5 12.5t-32.5 6
t-35 1.5h-22q-33 1 -68 5.5t-64.5 17t-48 37.5t-18.5 69q0 36 15.5 84t42 99.5t62 101t75 89t81 63.5t80.5 24q26 0 45 -15.5t19 -43.5q0 -17 -7 -37.5t-17 -42t-21 -41.5t-19 -35zM279 724q8 17 24.5 48.5t38 68t46.5 74t51 68t51 50t47 19.5q27 0 54 -15.5t52.5 -40
t48.5 -55.5t43 -63t35 -62t25 -51l-74 -53q-13 24 -34.5 60.5t-48.5 71.5t-58 60t-63 25q-29 0 -61.5 -25.5t-62.5 -60t-54 -70.5t-37 -57z" />
    <glyph glyph-name="uni06CE" unicode="&#x6ce;" horiz-adv-x="1016" 
d="M391 976q9 -3 22 -10t26.5 -17.5t27 -23t23.5 -26.5q17 -23 30.5 -46t20.5 -49q7 18 13.5 32t13.5 26t16 23.5t22 25.5q11 12 25 24t27.5 21t24.5 14.5t17 5.5q-1 -9 -2 -17q-2 -8 -3.5 -15.5t-6.5 -12.5q-18 -9 -41 -30t-39 -47q-6 -10 -14 -25t-15.5 -32.5t-14.5 -35
t-11 -32.5q-2 -5 -6.5 -8.5t-9.5 -3.5t-10.5 3t-7.5 8q-17 38 -32 65t-32 51q-20 29 -44.5 44.5t-43.5 22.5q5 18 9 32q4 12 8 22.5t7 10.5zM902 389q-3 5 -8 12.5t-11 14t-13 11.5t-15 5q-26 0 -67.5 -21.5t-81 -53t-68 -66.5t-28.5 -62q0 -24 21.5 -38.5t56 -23.5t76 -14
t82.5 -9q51 -5 71 -30.5t20 -76.5q0 -25 -9 -55t-24.5 -60t-36 -57t-44.5 -45q-53 -41 -114.5 -74t-122.5 -56t-117.5 -35.5t-98.5 -12.5q-78 0 -138 23t-100.5 66t-61 104t-20.5 138q0 67 25.5 141.5t76.5 152.5q5 7 13 7q0 -1 1 -2q2 -2 2 -5q-16 -42 -28 -96.5
t-12 -111.5q0 -62 18.5 -106t53 -72.5t82.5 -41.5t108 -13q49 0 102.5 7.5t104.5 20t96.5 29t80 35.5t55 38.5t20.5 37.5q0 8 -14.5 12.5t-32.5 6t-35 1.5h-22q-33 1 -68 5.5t-64.5 17t-48 37.5t-18.5 69q0 36 15.5 84t42 99.5t62 101t75 89t81 63.5t80.5 24q26 0 45 -15.5
t19 -43.5q0 -17 -7 -37.5t-17 -42t-21 -41.5t-19 -35z" />
    <glyph glyph-name="uni06D0" unicode="&#x6d0;" horiz-adv-x="1016" 
d="M338 -905l-104 107l104 104l104 -104zM338 -692l-104 104l104 107l104 -107zM902 389q-3 5 -8 12.5t-11 14t-13 11.5t-15 5q-26 0 -67.5 -21.5t-81 -53t-68 -66.5t-28.5 -62q0 -24 21.5 -38.5t56 -23.5t76 -14t82.5 -9q51 -5 71 -30.5t20 -76.5q0 -25 -9 -55t-24.5 -60
t-36 -57t-44.5 -45q-53 -41 -114.5 -74t-122.5 -56t-117.5 -35.5t-98.5 -12.5q-78 0 -138 23t-100.5 66t-61 104t-20.5 138q0 67 25.5 141.5t76.5 152.5q5 7 13 7q0 -1 1 -2q2 -2 2 -5q-16 -42 -28 -96.5t-12 -111.5q0 -62 18.5 -106t53 -72.5t82.5 -41.5t108 -13
q49 0 102.5 7.5t104.5 20t96.5 29t80 35.5t55 38.5t20.5 37.5q0 8 -14.5 12.5t-32.5 6t-35 1.5h-22q-33 1 -68 5.5t-64.5 17t-48 37.5t-18.5 69q0 36 15.5 84t42 99.5t62 101t75 89t81 63.5t80.5 24q26 0 45 -15.5t19 -43.5q0 -17 -7 -37.5t-17 -42t-21 -41.5t-19 -35z" />
    <glyph glyph-name="uni06D1" unicode="&#x6d1;" horiz-adv-x="1016" 
d="M443 -693l-104 104l104 107l107 -107zM233 -693l-107 104l107 107l104 -107zM338 -904l-104 107l104 104l104 -104zM902 389q-3 5 -8 12.5t-11 14t-13 11.5t-15 5q-26 0 -67.5 -21.5t-81 -53t-68 -66.5t-28.5 -62q0 -24 21.5 -38.5t56 -23.5t76 -14t82.5 -9
q51 -5 71 -30.5t20 -76.5q0 -25 -9 -55t-24.5 -60t-36 -57t-44.5 -45q-53 -41 -114.5 -74t-122.5 -56t-117.5 -35.5t-98.5 -12.5q-78 0 -138 23t-100.5 66t-61 104t-20.5 138q0 67 25.5 141.5t76.5 152.5q5 7 13 7q0 -1 1 -2q2 -2 2 -5q-16 -42 -28 -96.5t-12 -111.5
q0 -62 18.5 -106t53 -72.5t82.5 -41.5t108 -13q49 0 102.5 7.5t104.5 20t96.5 29t80 35.5t55 38.5t20.5 37.5q0 8 -14.5 12.5t-32.5 6t-35 1.5h-22q-33 1 -68 5.5t-64.5 17t-48 37.5t-18.5 69q0 36 15.5 84t42 99.5t62 101t75 89t81 63.5t80.5 24q26 0 45 -15.5t19 -43.5
q0 -17 -7 -37.5t-17 -42t-21 -41.5t-19 -35z" />
    <glyph glyph-name="uni0649" unicode="&#x649;" horiz-adv-x="1016" 
d="M902 389q-3 5 -8 12.5t-11 14t-13 11.5t-15 5q-26 0 -67.5 -21.5t-81 -53t-68 -66.5t-28.5 -62q0 -24 21.5 -38.5t56 -23.5t76 -14t82.5 -9q51 -5 71 -30.5t20 -76.5q0 -25 -9 -55t-24.5 -60t-36 -57t-44.5 -45q-53 -41 -114.5 -74t-122.5 -56t-117.5 -35.5t-98.5 -12.5
q-78 0 -138 23t-100.5 66t-61 104t-20.5 138q0 67 25.5 141.5t76.5 152.5q5 7 13 7q0 -1 1 -2q2 -2 2 -5q-16 -42 -28 -96.5t-12 -111.5q0 -62 18.5 -106t53 -72.5t82.5 -41.5t108 -13q49 0 102.5 7.5t104.5 20t96.5 29t80 35.5t55 38.5t20.5 37.5q0 8 -14.5 12.5t-32.5 6
t-35 1.5h-22q-33 1 -68 5.5t-64.5 17t-48 37.5t-18.5 69q0 36 15.5 84t42 99.5t62 101t75 89t81 63.5t80.5 24q26 0 45 -15.5t19 -43.5q0 -17 -7 -37.5t-17 -42t-21 -41.5t-19 -35z" />
    <glyph glyph-name="uni066E" unicode="&#x66e;" horiz-adv-x="1220" 
d="M173 489q-4 -10 -11 -26t-14 -35.5t-12.5 -40.5t-5.5 -41q0 -41 21.5 -71.5t56.5 -52t78.5 -36t88.5 -22.5t86 -11t71 -3q70 0 143.5 5.5t147 18.5t144 34.5t134.5 53.5q-1 48 -24.5 83t-55.5 58l64 193q13 -8 29 -29t30 -50t23.5 -64t9.5 -72q0 -60 -20.5 -116
t-51.5 -107q-20 -32 -61.5 -57.5t-96.5 -45.5t-118.5 -33.5t-128 -22.5t-125 -13t-109.5 -4q-69 0 -143 10.5t-135 40.5t-100.5 84.5t-39.5 142.5q0 33 9.5 66t25 62.5t35 55.5t40.5 46q6 5 12 5q3 0 3 -6z" />
    <glyph glyph-name="uni0628" unicode="&#x628;" horiz-adv-x="1220" 
d="M173 489q-4 -10 -11 -26t-14 -35.5t-12.5 -40.5t-5.5 -41q0 -41 21.5 -71.5t56.5 -52t78.5 -36t88.5 -22.5t86 -11t71 -3q70 0 143.5 5.5t147 18.5t144 34.5t134.5 53.5q-1 48 -24.5 83t-55.5 58l64 193q13 -8 29 -29t30 -50t23.5 -64t9.5 -72q0 -60 -20.5 -116
t-51.5 -107q-20 -32 -61.5 -57.5t-96.5 -45.5t-118.5 -33.5t-128 -22.5t-125 -13t-109.5 -4q-69 0 -143 10.5t-135 40.5t-100.5 84.5t-39.5 142.5q0 33 9.5 66t25 62.5t35 55.5t40.5 46q6 5 12 5q3 0 3 -6zM716 -248l-104 -104l-104 104l104 104z" />
    <glyph glyph-name="uni062A" unicode="&#x62a;" horiz-adv-x="1220" 
d="M173 489q-4 -10 -11 -26t-14 -35.5t-12.5 -40.5t-5.5 -41q0 -41 21.5 -71.5t56.5 -52t78.5 -36t88.5 -22.5t86 -11t71 -3q70 0 143.5 5.5t147 18.5t144 34.5t134.5 53.5q-1 48 -24.5 83t-55.5 58l64 193q13 -8 29 -29t30 -50t23.5 -64t9.5 -72q0 -60 -20.5 -116
t-51.5 -107q-20 -32 -61.5 -57.5t-96.5 -45.5t-118.5 -33.5t-128 -22.5t-125 -13t-109.5 -4q-69 0 -143 10.5t-135 40.5t-100.5 84.5t-39.5 142.5q0 33 9.5 66t25 62.5t35 55.5t40.5 46q6 5 12 5q3 0 3 -6zM729 477l-104 104l104 104l107 -104zM623 581l-104 -104l-107 104
l107 104z" />
    <glyph glyph-name="uni062B" unicode="&#x62b;" horiz-adv-x="1220" 
d="M173 489q-4 -10 -11 -26t-14 -35.5t-12.5 -40.5t-5.5 -41q0 -41 21.5 -71.5t56.5 -52t78.5 -36t88.5 -22.5t86 -11t71 -3q70 0 143.5 5.5t147 18.5t144 34.5t134.5 53.5q-1 48 -24.5 83t-55.5 58l64 193q13 -8 29 -29t30 -50t23.5 -64t9.5 -72q0 -60 -20.5 -116
t-51.5 -107q-20 -32 -61.5 -57.5t-96.5 -45.5t-118.5 -33.5t-128 -22.5t-125 -13t-109.5 -4q-69 0 -143 10.5t-135 40.5t-100.5 84.5t-39.5 142.5q0 33 9.5 66t25 62.5t35 55.5t40.5 46q6 5 12 5q3 0 3 -6zM729 476l-104 107l104 104l107 -104zM519 476l-107 107l107 104
l104 -104zM624 687l-104 104l104 107l104 -107z" />
    <glyph glyph-name="uni0679" unicode="&#x679;" horiz-adv-x="1220" 
d="M173 489q-4 -10 -11 -26t-14 -35.5t-12.5 -40.5t-5.5 -41q0 -41 21.5 -71.5t56.5 -52t78.5 -36t88.5 -22.5t86 -11t71 -3q70 0 143.5 5.5t147 18.5t144 34.5t134.5 53.5q-1 48 -24.5 83t-55.5 58l64 193q13 -8 29 -29t30 -50t23.5 -64t9.5 -72q0 -60 -20.5 -116
t-51.5 -107q-20 -32 -61.5 -57.5t-96.5 -45.5t-118.5 -33.5t-128 -22.5t-125 -13t-109.5 -4q-69 0 -143 10.5t-135 40.5t-100.5 84.5t-39.5 142.5q0 33 9.5 66t25 62.5t35 55.5t40.5 46q6 5 12 5q3 0 3 -6zM542 473q-40 0 -71.5 19.5t-51.5 54.5l117 -11l51 47v231
q-9 8 -13.5 15t-4.5 18q0 4 5.5 15.5t12.5 23.5t14 21t10 9q2 0 2 -4q0 -5 -1.5 -11.5t-1.5 -8.5q0 -16 9.5 -27.5t24.5 -13.5l-20 -59h-10v-190q10 8 29 21.5t40 26.5t40.5 22.5t31.5 9.5q10 0 23.5 -4t25 -11.5t19.5 -18.5t8 -24q0 -28 -14 -50.5t-37.5 -39t-53.5 -28.5
t-62 -19t-64 -10.5t-58 -3.5zM718 618q-10 0 -31.5 -8t-43.5 -20t-39 -25.5t-17 -24.5q0 -3 7.5 -3.5t9.5 -0.5q9 0 37.5 3t59.5 9t55 15t24 20t-6.5 18t-16.5 10.5t-20.5 5t-18.5 1.5z" />
    <glyph glyph-name="uni067A" unicode="&#x67a;" horiz-adv-x="1220" 
d="M173 489q-4 -10 -11 -26t-14 -35.5t-12.5 -40.5t-5.5 -41q0 -41 21.5 -71.5t56.5 -52t78.5 -36t88.5 -22.5t86 -11t71 -3q70 0 143.5 5.5t147 18.5t144 34.5t134.5 53.5q-1 48 -24.5 83t-55.5 58l64 193q13 -8 29 -29t30 -50t23.5 -64t9.5 -72q0 -60 -20.5 -116
t-51.5 -107q-20 -32 -61.5 -57.5t-96.5 -45.5t-118.5 -33.5t-128 -22.5t-125 -13t-109.5 -4q-69 0 -143 10.5t-135 40.5t-100.5 84.5t-39.5 142.5q0 33 9.5 66t25 62.5t35 55.5t40.5 46q6 5 12 5q3 0 3 -6zM624 475l-104 107l104 104l104 -104zM624 688l-104 104l104 107
l104 -107z" />
    <glyph glyph-name="uni067B" unicode="&#x67b;" horiz-adv-x="1220" 
d="M173 489q-4 -10 -11 -26t-14 -35.5t-12.5 -40.5t-5.5 -41q0 -41 21.5 -71.5t56.5 -52t78.5 -36t88.5 -22.5t86 -11t71 -3q70 0 143.5 5.5t147 18.5t144 34.5t134.5 53.5q-1 48 -24.5 83t-55.5 58l64 193q13 -8 29 -29t30 -50t23.5 -64t9.5 -72q0 -60 -20.5 -116
t-51.5 -107q-20 -32 -61.5 -57.5t-96.5 -45.5t-118.5 -33.5t-128 -22.5t-125 -13t-109.5 -4q-69 0 -143 10.5t-135 40.5t-100.5 84.5t-39.5 142.5q0 33 9.5 66t25 62.5t35 55.5t40.5 46q6 5 12 5q3 0 3 -6zM612 -566l-104 107l104 104l104 -104zM612 -353l-104 104l104 107
l104 -107z" />
    <glyph glyph-name="uni067C" unicode="&#x67c;" horiz-adv-x="1220" 
d="M698 -95q0 -66 -37 -106t-104 -40q-33 0 -54 9t-33 25.5t-16.5 40.5t-4.5 54q0 23 5 47.5t16 46.5h-4q-69 0 -143 10.5t-135 40.5t-100.5 84.5t-39.5 142.5q0 33 9.5 66t25 62.5t35 55.5t40.5 46q6 5 12 5q3 0 3 -6q-4 -10 -11 -26t-14 -35.5t-12.5 -40.5t-5.5 -41
q0 -41 21.5 -71.5t56.5 -52t78.5 -36t88.5 -22.5t86 -11t71 -3q70 0 143.5 5.5t147 18.5t144 34.5t134.5 53.5q-1 48 -24.5 83t-55.5 58l64 193q13 -8 29 -29t30 -50t23.5 -64t9.5 -72q0 -60 -20.5 -116t-51.5 -107q-21 -34 -65.5 -60.5t-103 -46.5t-126.5 -33.5t-135 -21.5
q11 -20 17 -44t6 -47zM623 581l-104 -104l-107 104l107 104zM729 477l-104 104l104 104l107 -104zM632 -92q0 29 -17 51t-49 22q-14 0 -25.5 -8t-19.5 -20t-13 -26.5t-5 -26.5q0 -16 5 -25.5t13.5 -14t20 -6t24.5 -1.5q34 0 50 9.5t16 45.5z" />
    <glyph glyph-name="uni067D" unicode="&#x67d;" horiz-adv-x="1220" 
d="M173 489q-4 -10 -11 -26t-14 -35.5t-12.5 -40.5t-5.5 -41q0 -41 21.5 -71.5t56.5 -52t78.5 -36t88.5 -22.5t86 -11t71 -3q70 0 143.5 5.5t147 18.5t144 34.5t134.5 53.5q-1 48 -24.5 83t-55.5 58l64 193q13 -8 29 -29t30 -50t23.5 -64t9.5 -72q0 -60 -20.5 -116
t-51.5 -107q-20 -32 -61.5 -57.5t-96.5 -45.5t-118.5 -33.5t-128 -22.5t-125 -13t-109.5 -4q-69 0 -143 10.5t-135 40.5t-100.5 84.5t-39.5 142.5q0 33 9.5 66t25 62.5t35 55.5t40.5 46q6 5 12 5q3 0 3 -6zM729 687l-104 104l104 107l107 -107zM519 687l-107 104l107 107
l104 -107zM624 476l-104 107l104 104l104 -104z" />
    <glyph glyph-name="uni067E" unicode="&#x67e;" horiz-adv-x="1220" 
d="M173 489q-4 -10 -11 -26t-14 -35.5t-12.5 -40.5t-5.5 -41q0 -41 21.5 -71.5t56.5 -52t78.5 -36t88.5 -22.5t86 -11t71 -3q70 0 143.5 5.5t147 18.5t144 34.5t134.5 53.5q-1 48 -24.5 83t-55.5 58l64 193q13 -8 29 -29t30 -50t23.5 -64t9.5 -72q0 -60 -20.5 -116
t-51.5 -107q-20 -32 -61.5 -57.5t-96.5 -45.5t-118.5 -33.5t-128 -22.5t-125 -13t-109.5 -4q-69 0 -143 10.5t-135 40.5t-100.5 84.5t-39.5 142.5q0 33 9.5 66t25 62.5t35 55.5t40.5 46q6 5 12 5q3 0 3 -6zM717 -354l-104 104l104 107l107 -107zM507 -354l-107 104l107 107
l104 -107zM612 -565l-104 107l104 104l104 -104z" />
    <glyph glyph-name="uni067F" unicode="&#x67f;" horiz-adv-x="1220" 
d="M173 489q-4 -10 -11 -26t-14 -35.5t-12.5 -40.5t-5.5 -41q0 -41 21.5 -71.5t56.5 -52t78.5 -36t88.5 -22.5t86 -11t71 -3q70 0 143.5 5.5t147 18.5t144 34.5t134.5 53.5q-1 48 -24.5 83t-55.5 58l64 193q13 -8 29 -29t30 -50t23.5 -64t9.5 -72q0 -60 -20.5 -116
t-51.5 -107q-20 -32 -61.5 -57.5t-96.5 -45.5t-118.5 -33.5t-128 -22.5t-125 -13t-109.5 -4q-69 0 -143 10.5t-135 40.5t-100.5 84.5t-39.5 142.5q0 33 9.5 66t25 62.5t35 55.5t40.5 46q6 5 12 5q3 0 3 -6zM729 475l-104 107l104 104l107 -104zM519 475l-107 107l107 104
l104 -104zM729 688l-104 104l104 107l107 -107zM519 688l-107 104l107 107l104 -107z" />
    <glyph glyph-name="uni0680" unicode="&#x680;" horiz-adv-x="1220" 
d="M173 489q-4 -10 -11 -26t-14 -35.5t-12.5 -40.5t-5.5 -41q0 -41 21.5 -71.5t56.5 -52t78.5 -36t88.5 -22.5t86 -11t71 -3q70 0 143.5 5.5t147 18.5t144 34.5t134.5 53.5q-1 48 -24.5 83t-55.5 58l64 193q13 -8 29 -29t30 -50t23.5 -64t9.5 -72q0 -60 -20.5 -116
t-51.5 -107q-20 -32 -61.5 -57.5t-96.5 -45.5t-118.5 -33.5t-128 -22.5t-125 -13t-109.5 -4q-69 0 -143 10.5t-135 40.5t-100.5 84.5t-39.5 142.5q0 33 9.5 66t25 62.5t35 55.5t40.5 46q6 5 12 5q3 0 3 -6zM717 -566l-104 107l104 104l107 -104zM507 -566l-107 107l107 104
l104 -104zM717 -353l-104 104l104 107l107 -107zM507 -353l-107 104l107 107l104 -107z" />
    </font>
</defs>
</svg>
