<svg xmlns="http://www.w3.org/2000/svg"
    width="480" height="320"
    viewBox="-1440 -535 4800 3200"
    style="background-color: red" fill="black">
<circle cx="960" cy="1065" r="1200" fill="white"/>
<path d="M1190,1549v-414h-183v414h-152l-71-123h101v-291h-289v-415h-273l108,187-78
135-265-437h638v419h159l1-419h153l67,115h-99v304h300v402h277l-118-192 77-128 271,443h-624z
M1279,605h536l-474,773v-255l243-403h-232l-73-115z
M563,765v257l-241,404h219l72,123h-525l475-784z
M684,565h84v113l176-296 408,666 77-128-483-788-262,433z
M553,1116l390,670 206-343v142h65l-267,437-471-777 77-129z"/>
</svg>