<svg xmlns="http://www.w3.org/2000/svg" xmlns:xlink="http://www.w3.org/1999/xlink" width="900" height="600">
    <symbol id="a" viewBox="0 0 512 512">
        <path d="M157.543 78.363l-16.971 16.971-45.256 45.254-56.571 56.57 62.227 62.225 56.571-56.568 299.828 299.812a32.001 32 0 0 0 45.256 0 32.001 32 0 0 0 0-45.254L202.801 157.559l16.971-16.971 50.915-50.91z"/>
        <path d="M255.989 0s168.008 128 168.008 256c0 64-56.003 136-152.007 136-64.003 0-104.241-47.764-104.241-47.764l-11.313 11.313a16 16 0 0 0-22.628 0 16 16 0 0 0-2.48 3.223 32.001 32 0 0 0-31.463 8.091 32.001 32 0 0 0-9.331 21.545C65.102 402.161 22.969 428.983 4.264 464l.03.029A32.001 32 0 0 0 4.264 496a32.001 32 0 0 0 43.715 11.713c35.026-18.708 61.855-60.852 75.605-86.281a32.001 32 0 0 0 21.537-9.315 32.001 32 0 0 0 7.932-13.201C177.569 421.97 224.497 456 287.99 456 383.995 456 488 384 488 256 488 96 255.989 0 255.989 0z"/>
    </symbol>
    <path fill="#fff" d="M0 0h900v600H0z"/>
    <path fill="red" d="M0 0h129.93l218.379 184.828-20.2 21.063zm230.063 0h74.87l94.141 156.418-26.984 11.586zm175 0h69.87l-18.507 150.684-29.203-.036zm170 0h74.87L511.638 167.855l-27.082-11.402zm175 0H879.93L555.852 205.668l-20.309-21.04zm-345 600h69.87l-18.546-150.688-29.145-.082zm-174.997 0h74.868l94.168-156.441-26.977-11.504zM0 600h129.926l218.27-184.605-21.243-20.41zm575.063 0h74.87L511.41 432.047l-26.816 11.648zm174.996 0h129.87L555.755 394.39l-20.09 21.204zM900 95.062v74.876l-316.2 86.921-10.933-27.379zm0 170.001v69.875l-310.324-20.2.265-29.46zm0 165v74.875L572.516 370.405l11.359-27.101zM0 95.062v74.876l300.11 87.113 11.39-27.09zm0 170.001v69.875l294.05-20.239-.046-29.363zm0 165.003v74.872L311.41 370.23 300 343.172z"/>
    <circle cx="450" cy="300" r="160" fill="#fff"/>
    <use width="240" height="240" x="330" y="160" xlink:href="#a"/>
</svg>
