<svg xmlns="http://www.w3.org/2000/svg" width="300" height="300" viewBox="0 0 582 479.575">
	<rect width="100%" height="100%" x="0" y="0" fill="none" stroke="red" />
	<g fill="#e30a17">
		<path d="M113.386 241.024c0-71.4 58.54-129.3 130.731-129.3 46.51 0 87.357 24 110.51 60.2-19.109-21.1-46.913-34.4-77.852-34.4-57.732 0-104.545 46.4-104.545 103.5s46.813 103.5 104.646 103.5c30.939 0 58.743-13.3 77.853-34.4-23.154 36.2-64.001 60.2-110.51 60.2-72.292 0-130.833-57.9-130.833-129.3z" />
		<path d="M472.923 203.024l-45.195 14.5-27.906-38v47l-45.093 14.5 45.093 14.5v47l27.906-38 45.195 14.5-27.906-38z" />
	</g>
</svg>