<?xml version="1.0" encoding="UTF-8" standalone="no"?>
<!-- Created with Inkscape (http://www.inkscape.org/) -->
<svg
   xmlns:dc="http://purl.org/dc/elements/1.1/"
   xmlns:cc="http://web.resource.org/cc/"
   xmlns:rdf="http://www.w3.org/1999/02/22-rdf-syntax-ns#"
   xmlns:svg="http://www.w3.org/2000/svg"
   xmlns="http://www.w3.org/2000/svg"
   xmlns:sodipodi="http://sodipodi.sourceforge.net/DTD/sodipodi-0.dtd"
   xmlns:inkscape="http://www.inkscape.org/namespaces/inkscape"
   id="svg2"
   sodipodi:version="0.32"
   inkscape:version="0.45.1"
   width="695"
   height="568"
   version="1.0"
   sodipodi:docbase="C:\Documents and Settings\Ovidiu\My Documents\My Pictures"
   sodipodi:docname="Deutschsieben_bürgen.svg"
   inkscape:output_extension="org.inkscape.output.svg.inkscape">
  <metadata
     id="metadata7">
    <rdf:RDF>
      <cc:Work
         rdf:about="">
        <dc:format>image/svg+xml</dc:format>
        <dc:type
           rdf:resource="http://purl.org/dc/dcmitype/StillImage" />
      </cc:Work>
    </rdf:RDF>
  </metadata>
  <defs
     id="defs5" />
  <sodipodi:namedview
     inkscape:window-height="776"
     inkscape:window-width="1280"
     inkscape:pageshadow="2"
     inkscape:pageopacity="0.0"
     guidetolerance="10.0"
     gridtolerance="10.0"
     objecttolerance="10.0"
     borderopacity="1.0"
     bordercolor="#666666"
     pagecolor="#ffffff"
     id="base"
     inkscape:zoom="0.93865935"
     inkscape:cx="256.32319"
     inkscape:cy="297.02001"
     inkscape:window-x="-4"
     inkscape:window-y="-4"
     inkscape:current-layer="svg2" />
  <rect
     style="opacity:0.9958678;fill:#d7f4d7;fill-opacity:0;stroke:none;stroke-width:8;stroke-linecap:butt;stroke-linejoin:miter;stroke-miterlimit:4;stroke-dasharray:none;stroke-dashoffset:0;stroke-opacity:1"
     id="rect1873"
     width="696.06366"
     height="569.50665"
     x="1.5066313"
     y="1.5066313" />
  <path
     style="opacity:0.9958678;fill:#fd5;fill-opacity:1;stroke:none;stroke-width:8;stroke-linecap:butt;stroke-linejoin:miter;stroke-miterlimit:4;stroke-dasharray:none;stroke-dashoffset:0;stroke-opacity:1"
     d="M 416.55154,151.44846 C 413.88592,151.09902 405.65484,149.19615 401.63665,147.18706 C 396.13073,144.4341 400.74813,140.79497 392.04851,140.79497 C 388.27357,140.79497 387.96747,133.96038 384.59106,132.27217 C 379.90251,129.92789 378.4278,125.04356 376.06827,122.68403 C 373.29472,119.91048 367.85772,125.50353 364.34943,123.74938 C 362.16249,122.65591 354.20532,128.28876 352.63059,129.07613 C 347.8662,131.45832 350.65228,118.04165 352.63059,113.09589 C 355.76426,105.26171 354.32202,105.30899 363.28408,112.03054 C 367.39169,115.11125 372.3277,126.99282 375.00292,116.29194 C 376.76183,109.2563 378.09791,108.06074 383.52572,106.70379 C 388.21161,105.53232 383.46693,95.014342 387.78711,92.854253 C 391.11334,91.191136 392.11442,86.429202 396.30991,84.331459 C 400.5658,82.203512 390.49884,75.130733 387.78711,75.808665 C 381.66096,77.340203 382.10474,82.910486 376.06827,76.874015 C 372.19356,72.999302 366.34759,76.840881 362.21873,75.808665 C 356.75806,74.443498 356.47209,67.628032 349.43454,66.220523 C 342.62595,64.858805 343.4417,63.822981 340.91175,58.763078 C 336.81161,50.562803 328.32486,55.468378 338.78105,50.240284 C 342.577,48.34231 353.21392,51.305634 357.95733,51.305634 C 363.08333,51.305634 373.4437,51.305634 375.00292,51.305634 C 379.05187,51.305634 374.66991,42.449832 371.80687,39.586792 C 369.77447,37.55439 358.61163,40.222229 356.89199,40.652142 C 349.95851,42.385512 347.18319,39.466144 344.10779,36.390745 C 339.2836,31.566549 335.11094,37.338866 338.78105,29.998649 C 340.50494,26.550867 331.44761,23.668556 331.3236,23.606554 C 327.57444,21.731972 325.06119,22.800561 322.80081,18.279808 C 319.65041,11.979003 333.92837,12.953062 337.7157,12.953062 C 343.95542,12.953062 345.7775,8.9221607 348.36919,7.626316 C 355.12201,4.2499078 357.94551,19.333333 363.28408,24.671903 C 369.47173,30.85955 382.14767,27.041122 388.85246,31.063999 C 392.75374,33.404768 395.1833,37.425466 401.63665,40.652142 C 407.14442,43.406027 413.56355,42.78284 419.74759,42.78284 C 426.96325,42.78284 432.0684,45.978888 438.92387,45.978888 C 439.50246,45.978888 446.77595,32.405443 447.44667,31.063999 C 450.10244,25.752459 454.27741,24.233254 458.10016,20.410507 C 459.70802,18.802646 471.8303,22.038381 474.0804,21.475856 C 481.29147,19.673087 484.70109,22.175155 495.38738,25.737253 C 501.89487,27.906415 508.22016,24.417714 513.49832,25.737253 C 522.83444,28.071283 524.40933,27.610435 527.34786,24.671903 C 528.35061,23.669152 535.11737,38.209373 543.3281,29.998649 C 544.71792,28.60883 569.0744,27.290795 571.02718,26.802602 C 573.12277,26.278703 575.28857,26.092369 577.41927,25.737253 C 584.77692,24.510978 581.66628,23.577786 585.94206,32.129348 C 586.622,33.489208 577.87351,40.965882 577.41927,42.78284 C 575.11599,51.995975 572.96773,51.885844 562.50438,54.501681 C 554.75499,56.439028 554.93824,62.067827 549.72019,67.285872 C 544.93807,72.067995 540.36206,69.723245 546.52414,77.939364 C 551.24717,84.23673 554.03662,86.209577 563.56973,88.592856 C 573.17109,90.993196 577.08727,96.565636 584.87672,90.723554 C 588.14767,88.270339 590.47067,83.800531 594.46486,91.788904 C 596.73349,96.326166 604.45022,93.621687 608.3144,90.723554 C 616.47782,84.600989 621.38081,94.921401 624.29464,83.26611 C 625.32398,79.148717 641.94363,88.315687 642.40557,88.592856 C 649.4232,92.80343 656.72436,93.323499 661.58186,98.180999 C 667.43153,104.03067 671.78591,107.03675 673.3007,113.09589 C 674.76934,118.97044 660.22149,117.35728 657.32046,117.35728 C 653.9084,117.35728 647.48255,121.61868 641.34022,121.61868 C 639.88519,121.61868 635.46253,112.94901 632.81743,110.96519 C 627.30914,106.83397 621.36961,106.86641 615.77184,103.50774 C 612.37094,101.4672 603.74752,104.76306 598.72626,103.50774 C 588.45487,100.9399 590.77658,96.953879 588.07276,107.76914 C 586.12259,115.56982 579.33355,115.01017 584.87672,120.55333 C 589.8037,125.48031 600.97294,130.19947 607.24905,133.33752 C 616.04285,137.73442 627.53617,138.67943 637.07883,141.86032 C 642.89536,143.79916 651.36406,142.76825 656.25511,143.99101 C 663.44081,145.78744 665.03215,151.57558 669.0393,153.57916 C 674.18794,156.15348 679.78724,163.02978 683.95419,166.36335 C 688.11044,169.68834 691.56377,169.71153 694.60768,172.75544 C 695.40175,173.54951 695.31792,174.88614 695.67303,175.95149 L 698.86908,483.83741 C 703.85338,488.82171 686.72914,474.69557 685.01954,467.85717 C 683.542,461.947 678.04092,462.53043 674.36605,462.53043 C 673.81491,462.53043 668.96857,472.18931 667.97395,473.18392 C 666.88818,474.26969 660.92712,472.77331 657.32046,476.37997 C 653.65536,480.04507 647.0334,475.9389 644.53627,475.31462 C 638.8459,473.89203 639.20953,467.43952 639.20953,463.59578 C 639.20953,461.19469 632.83475,456.17298 631.75208,454.00763 C 628.59198,447.68743 632.21676,445.94952 627.49068,441.22344 C 621.59622,435.32898 623.22929,446.92177 623.22929,451.87694 C 623.22929,458.78169 623.33482,464.87219 625.35999,468.92252 C 626.51616,471.23487 622.07311,474.06762 623.22929,476.37997 C 624.8788,479.67899 620.31713,484.83256 620.03324,485.96811 C 618.86177,490.654 610.86959,482.87819 606.1837,481.70671 C 603.65173,481.07372 607.00869,472.11857 597.66091,472.11857 C 593.04439,472.11857 595.59853,462.59875 592.33416,459.33438 C 588.20548,455.2057 585.7487,451.49021 583.81137,447.61554 C 581.16163,442.31606 576.35392,437.91025 576.35392,447.61554 C 576.35392,451.96216 583.75211,462.41191 584.87672,464.66113 C 586.8353,468.5783 588.94024,472.39245 590.20346,477.44532 C 590.21385,477.48688 581.29685,483.15588 580.61532,483.83741 C 575.54982,488.90291 573.89711,485.642 569.96183,481.70671 C 565.94637,477.69126 568.05227,476.1992 566.76578,471.05322 C 565.5357,466.13292 566.76578,459.12508 566.76578,454.00763 C 566.76578,441.88862 560.67335,450.37859 559.30833,457.20368 C 558.12028,463.14395 561.43903,468.05059 561.43903,474.24927 C 561.43903,483.39816 561.02388,484.25257 556.11229,489.16416 C 550.477,494.79945 552.82194,498.658 546.52414,492.36021 C 541.69594,487.532 542.64398,482.1663 541.1974,476.37997 C 540.30229,472.79953 531.98212,486.60734 531.60926,488.09881 C 530.9498,490.73663 523.34838,486.96798 518.82506,488.09881 C 511.99484,489.80637 516.7789,493.51009 509.23692,485.96811 C 503.6038,480.33499 502.20221,485.54538 498.58343,489.16416 C 494.82034,492.92725 486.12621,489.32764 483.66854,488.09881 C 479.43088,485.97998 482.59132,478.48693 480.47249,474.24927 C 478.63213,470.56854 477.27645,489.07626 477.27645,491.29486 C 477.27645,499.8089 472.83687,496.26525 470.88435,492.36021 C 467.73446,486.06042 466.49917,489.3292 463.42691,493.42556 C 458.27653,500.29273 455.96946,486.2721 455.96946,483.83741 C 455.96946,477.03457 458.58114,470.84645 457.03481,464.66113 C 455.37086,458.00532 458.10016,454.40459 458.10016,447.61554 C 458.10016,440.72717 459.02565,437.52149 460.23086,432.70065 C 461.38133,428.09875 460.23086,420.96878 460.23086,418.85111 C 460.23086,412.32314 462.32806,408.26462 464.49226,403.93622 C 466.49016,399.94041 471.31209,401.16792 464.49226,394.34808 C 463.96338,393.81921 470.34422,402.85596 471.9497,406.06692 C 473.80176,409.77104 478.58551,400.67925 482.60319,399.67482 C 488.30411,398.2496 492.21087,395.96075 498.58343,400.74017 C 501.51226,402.9368 503.70788,389.8305 503.91018,389.02133 C 504.72726,385.75299 512.24713,388.95326 513.49832,385.82529 C 516.31626,378.78044 522.17453,385.2159 529.47856,381.56389 C 536.34622,378.13006 541.74066,376.75923 545.4588,373.04109 C 549.80311,368.69678 552.27223,369.22502 553.98159,362.3876 C 556.14928,353.71684 553.0651,354.32305 560.37368,350.66876 C 568.48599,346.61261 563.12125,338.50144 572.09253,347.47271 C 575.78744,351.16763 579.28535,356.00237 580.61532,361.32225 C 582.86104,370.30513 583.1124,371.60936 576.35392,378.36784 C 573.0024,381.71936 569.33093,386.29846 565.70043,389.02133 C 562.52417,391.40353 566.37717,397.93273 563.56973,400.74017 C 560.22874,404.08117 557.02301,409.82425 555.04694,412.45902 C 552.05381,416.44985 544.86969,411.09911 543.3281,410.32832 C 537.94987,407.63921 535.87065,406.74244 535.87065,414.58971 C 535.87065,420.91361 536.09596,426.09855 541.1974,427.3739 C 541.26594,427.39104 544.71744,418.66577 549.72019,419.91646 C 558.83969,422.19633 554.87094,414.36738 562.50438,412.45902 C 566.12571,411.55368 575.17163,418.08133 580.61532,416.72041 C 587.77935,414.9294 582.87977,436.42704 585.94206,424.17786 C 587.60539,417.52457 589.82874,410.51568 594.46486,408.19762 C 603.43401,403.71304 601.65924,408.72375 606.1837,399.67482 C 610.19122,391.65978 613.62975,398.23916 617.90254,403.93622 C 623.98728,412.04921 624.22831,419.98279 630.68673,413.52436 C 634.96787,409.24322 643.67195,415.75558 645.60162,416.72041 C 653.80069,420.81995 642.87026,402.22488 641.34022,399.67482 C 637.76493,393.71599 631.21941,390.61935 637.07883,384.75994 C 640.66077,381.17799 641.34022,377.33592 641.34022,370.9104 C 641.34022,365.45439 649.29163,371.06526 650.92837,364.5183 C 652.37476,358.73274 654.12441,354.80308 654.12441,347.47271 C 654.12441,342.40079 648.01008,338.99559 646.66697,333.62317 C 645.08278,327.2864 641.12168,324.25357 637.07883,328.29643 C 632.85614,332.51911 630.91617,345.9485 628.55603,350.66876 C 625.5131,356.75463 623.88739,361.07141 621.09859,366.649 C 618.33446,372.17727 614.1595,359.24884 614.70649,357.06086 C 616.26865,350.81221 616.83719,345.1239 616.83719,337.88457 C 616.83719,329.81736 622.16394,324.94082 622.16394,316.57759 C 622.16394,309.83038 622.16394,303.08316 622.16394,296.33595 C 622.16394,289.26346 622.74803,286.12053 617.90254,282.48641 C 614.22129,279.72547 608.76049,274.40971 606.1837,271.83292 C 600.87361,266.52283 603.3645,260.45833 595.53021,264.37548 C 591.71991,266.28062 598.20892,285.74382 598.72626,287.81316 C 600.44489,294.6877 599.13875,302.24733 600.85695,309.12014 C 601.21207,310.54061 601.56719,311.96107 601.9223,313.38154 C 603.62594,320.19609 599.7916,323.77732 599.7916,329.36178 C 599.7916,335.87813 599.955,340.75383 597.66091,345.34202 C 594.64297,351.37789 588.39038,337.02435 588.07276,335.75387 C 586.38397,328.99869 584.12661,325.73086 581.68067,320.83898 C 579.45188,316.38141 573.08402,318.46041 572.09253,318.70829 C 568.66664,319.56476 564.99738,314.79841 561.43903,316.57759 C 556.66407,318.96507 560.1169,305.37231 562.50438,300.59735 C 565.71452,294.17707 561.86744,289.44971 558.24299,284.61711 C 552.49926,276.9588 549.21081,280.35571 541.1974,280.35571 C 533.32696,280.35571 532.77548,286.14253 531.60926,293.1399 C 530.47177,299.96479 520.29084,294.60568 518.82506,293.1399 C 514.68837,289.0032 515.537,285.77447 518.82506,282.48641 C 523.33325,277.97823 524.12784,277.69833 530.54391,276.09432 C 534.6924,275.05719 531.39092,267.13485 529.47856,263.31013 C 526.40972,257.17246 522.02111,257.73024 522.02111,248.39524 C 522.02111,240.95255 519.95314,239.93517 515.62902,235.61105 C 512.49177,232.4738 512.50444,223.9875 509.23692,219.63081 C 508.03162,218.02374 506.39599,216.78988 504.97553,215.36941 C 503.13272,213.5266 509.67843,206.40511 511.36762,204.71592 C 514.90819,201.17535 522.25807,203.41361 526.28251,199.38917 C 528.59326,197.07842 536.87474,200.97188 539.0667,201.51987 C 541.98551,198.60106 558.45473,202.90449 561.43903,203.65057 C 568.74847,205.47793 565.26454,195.51492 564.63508,192.99708 C 563.69384,189.23211 556.03131,184.39331 553.98159,182.34359 C 550.2462,178.60819 544.22477,179.18971 540.13205,180.21289 C 534.20667,181.69423 531.62201,179.16029 527.34786,174.88614 C 523.98885,171.52713 514.78771,174.77412 512.43297,175.95149 C 507.61318,178.36139 506.67583,181.27824 499.64878,181.27824 C 495.27586,181.27824 487.90896,186.4003 484.73389,187.67033 C 478.28397,190.2503 478.34179,189.26658 478.34179,198.32382 C 478.34179,206.14536 483.46044,207.67901 481.53784,215.36941 C 480.78644,218.37502 478.34179,222.87748 478.34179,229.21895 C 478.34179,234.08162 465.64671,226.06746 465.5576,226.0229 C 465.33951,225.91386 465.83177,236.81348 457.03481,232.415 C 449.68733,228.74126 454.6254,233.75906 449.57737,238.80709 C 444.05236,244.3321 443.08515,238.70697 438.92387,234.5457 C 436.20729,231.82911 427.65261,230.66253 426.13968,230.2843 C 425.05882,230.01409 417.37755,240.11178 415.48619,242.00314 C 411.12418,246.36515 407.21318,233.41413 406.9634,232.415 C 406.4164,230.227 423.4953,225.08598 424.00899,224.95755 C 424.1962,224.91075 420.81294,211.11716 420.81294,208.97732 C 420.81294,202.30684 422.82419,200.54411 427.20503,197.25848 C 434.12973,192.06495 435.00289,186.78622 439.98922,185.53963 C 446.28058,183.96679 451.44794,201.49501 454.90411,187.67033 C 456.08036,182.96532 465.30813,179.47625 466.62295,179.14754 C 467.72256,178.87264 473.06416,170.57563 474.0804,169.5594 C 478.73207,164.90773 484.81007,162.00038 487.92994,157.84055 C 492.19315,152.15627 493.64326,147.69614 498.58343,143.99101 C 502.69477,140.90751 503.91018,137.5624 503.91018,131.20682 C 503.91018,125.4104 499.79996,123.90056 496.45273,120.55333 C 492.28046,116.38106 485.40262,125.21135 483.66854,126.94543 C 480.30449,130.30948 477.67675,135.73297 476.2111,138.66427 C 473.47238,144.1417 466.49889,141.73625 463.42691,138.66427 C 458.78313,134.02049 464.54996,125.8368 468.75365,122.68403 C 469.40859,122.19283 472.71762,110.02422 473.01505,108.83449 C 474.85125,101.48967 464.73471,104.45186 462.36156,105.63844 C 458.95976,107.33934 455.73384,112.97302 454.90411,116.29194 C 453.5259,121.80479 452.28441,123.83673 454.90411,129.07613 C 457.31745,133.90281 455.04363,140.51592 453.83876,142.92567 C 453.69371,143.21577 438.99615,143.70661 437.85852,143.99101 C 435.02753,144.69876 431.62594,149.27788 427.20503,150.38311 C 423.92333,151.20353 419.13912,151.44846 416.55154,151.44846 z "
     id="path4534" />
  <path
     style="opacity:0.9958678;fill:gray;fill-opacity:1;stroke:#fc0000;stroke-width:2;stroke-linecap:butt;stroke-linejoin:miter;stroke-miterlimit:4;stroke-dasharray:none;stroke-dashoffset:0;stroke-opacity:1"
     d="M 375.00292,322.96968 C 372.13988,325.83272 365.09483,322.54424 363.28408,326.16573 C 361.00877,330.71636 361.43872,333.62317 353.69594,333.62317 C 344.66136,333.62317 348.61437,330.18194 354.76129,324.03503 C 358.16905,320.62726 365.64889,322.73557 368.61083,319.77363 C 371.46556,316.9189 373.54522,313.38154 379.26432,313.38154 C 383.99827,313.38154 392.04851,315.45162 392.04851,310.18549 C 392.04851,306.02896 385.92825,302.18436 387.78711,298.46665 C 389.6054,294.83007 392.04851,292.76005 392.04851,286.74781 C 392.04851,280.71862 389.96419,275.57324 396.30991,277.15967 C 399.96053,278.07232 408.13005,278.27567 412.29014,280.35571 C 415.99427,282.20777 414.54091,291.00921 418.68224,291.00921 C 423.79968,291.00921 430.80753,292.23928 435.72783,291.00921 C 441.09906,289.6664 441.14309,286.17088 446.38132,283.55176 C 449.66117,281.91183 452.9041,276.56165 455.96946,275.02897 C 458.55707,273.73516 465.48305,271.83292 470.88435,271.83292 C 476.50652,271.83292 480.48529,270.50443 485.79924,271.83292 C 489.95021,272.87066 494.1494,274.85634 497.51808,278.22502 C 501.07589,281.78282 505.82345,281.84502 511.36762,284.61711 C 512.37274,285.11967 521.84195,291.71623 522.02111,292.07455 C 523.78806,295.60846 523.81935,299.26751 525.21716,304.85875 C 526.8238,311.28531 530.01798,310.18549 538.00135,310.18549 C 545.6742,310.18549 549.35841,311.69307 556.11229,313.38154 C 560.27138,314.42131 564.50228,315.44584 568.89648,317.64294 C 574.40003,320.39471 577.07154,322.25206 574.22322,325.10038 C 572.33398,326.98963 567.62963,333.52242 574.22322,336.81922 C 579.80769,339.61145 578.50767,342.16901 583.81137,347.47271 C 584.87672,348.53806 585.94206,349.60341 587.00741,350.66876 C 590.07937,353.74072 590.41722,357.27461 594.46486,361.32225 C 596.85786,363.71525 602.82685,369.80485 607.24905,370.9104 C 611.98721,372.09494 616.4141,372.41406 617.90254,378.36784 C 618.95526,382.5787 619.91513,387.71917 614.70649,389.02133 C 609.53063,390.3153 604.43739,396.00656 602.98765,401.80552 C 600.88276,410.22511 595.95622,402.44486 591.26881,407.13227 C 587.53586,410.86522 574.82812,420.14668 579.54997,417.78576 C 581.64291,413.59987 568.32327,410.32832 565.70043,410.32832 C 563.48277,410.32832 569.96183,398.1944 569.96183,395.41343 C 569.96183,390.65548 564.63508,386.85411 564.63508,379.43319 C 564.63508,372.9624 566.76578,369.31685 566.76578,362.3876 C 566.76578,358.27307 559.58913,354.42641 558.24299,351.73411 C 558.24299,346.00803 546.51393,351.7382 541.1974,353.86481 C 536.85231,355.60285 533.43693,357.21237 529.47856,359.19156 C 525.45326,361.2042 523.04397,363.45295 517.75972,363.45295 C 511.91683,363.45295 505.6888,364.5183 499.64878,364.5183 C 491.74861,364.5183 491.12599,363.94752 491.12599,371.97575 C 491.12599,375.30439 486.98401,381.32504 485.79924,383.69459 C 483.25853,388.77601 477.46408,386.93754 473.01505,385.82529 C 472.58337,385.71737 463.75314,391.60315 461.29621,392.21738 C 456.07086,393.52372 458.10016,383.18937 458.10016,379.43319 C 458.10016,372.53382 451.28019,374.10644 450.64272,374.10644 C 449.64111,374.10644 448.82622,387.7645 448.51202,389.02133 C 447.13313,394.53688 441.13054,392.52127 439.98922,387.95598 C 438.36039,381.44066 441.35155,378.96179 438.92387,374.10644 C 437.09515,370.449 429.53109,372.36646 427.20503,367.71435 C 424.5766,362.45748 422.11755,361.21394 420.81294,355.99551 C 418.99,348.70375 424.66261,348.64099 429.33573,347.47271 C 436.63679,345.64745 430.65632,340.27051 428.27038,337.88457 C 424.23452,333.84871 417.95842,333.53779 413.35549,334.68852 C 405.45843,336.66279 404.01779,336.88282 405.89805,329.36178 C 407.15935,324.31658 420.21747,326.16573 424.00899,326.16573 C 431.14015,326.16573 435.52594,326.91427 441.05457,328.29643 C 445.53325,329.4161 438.99219,318.77661 435.72783,315.51224 C 432.19682,311.98123 428.06861,309.98372 425.07433,306.98944 C 423.85819,305.7733 411.39986,306.2342 410.15945,305.92409 C 406.73993,305.06922 400.51256,310.46651 397.37525,311.25084 C 395.26466,311.77849 396.49759,317.64294 387.78711,317.64294 C 381.2615,317.64294 383.52572,323.60151 383.52572,329.36178 C 383.52572,337.66312 376.50233,331.92654 375.00292,330.42713 C 373.24518,328.66939 375.00292,325.4555 375.00292,322.96968 z "
     id="path8140" />
  <path
     style="opacity:0.9958678;fill:gray;fill-opacity:1;stroke:#fc0000;stroke-width:2;stroke-linecap:butt;stroke-linejoin:miter;stroke-miterlimit:4;stroke-dasharray:none;stroke-dashoffset:0;stroke-opacity:1"
     d="M 482.60319,198.32382 C 486.73965,201.42617 472.313,196.37478 467.6883,194.06243 C 462.58111,191.50883 457.24449,196.08829 454.90411,197.25848 C 448.00004,200.71051 445.63892,196.41957 444.25062,190.86638 C 443.76248,188.91384 447.8634,181.742 448.51202,179.14754 C 449.67342,174.50191 448.51202,167.98423 448.51202,163.1673 C 448.51202,158.65137 441.27727,161.21115 443.18527,153.57916 C 443.91648,150.65432 446.56654,145.38083 447.44667,141.86032 C 448.2171,138.77858 459.52216,139.55129 461.29621,138.66427 C 467.93073,135.34701 469.7463,140.94038 473.01505,134.40287 C 473.33267,133.76762 474.43551,134.40287 475.14575,134.40287 C 476.92133,134.40287 478.69691,134.40287 480.47249,134.40287 C 488.40961,134.40287 486.86459,136.62161 486.86459,143.99101 C 486.86459,150.19049 485.79924,153.07094 485.79924,158.9059 C 485.79924,159.17713 477.27645,160.60642 477.27645,167.4287 C 477.27645,173.80587 478.30718,178.01297 480.47249,182.34359 C 482.65854,186.71567 484.02015,189.07677 484.73389,191.93173 C 485.27861,194.11062 483.31342,196.19312 482.60319,198.32382 z "
     id="path7249" />
  <path
     style="opacity:0.9958678;fill:#fd5;fill-opacity:1;stroke:none;stroke-width:8;stroke-linecap:butt;stroke-linejoin:miter;stroke-miterlimit:4;stroke-dasharray:none;stroke-dashoffset:0;stroke-opacity:1"
     d="M 297.23243,347.47271 C 291.52972,348.89839 286.9549,341.44095 281.25219,340.01527 C 275.84628,338.66379 268.72145,338.94992 263.14125,338.94992 C 256.52139,338.94992 249.80446,337.60827 246.09567,335.75387 C 240.82062,333.11635 234.59806,330.68444 227.98473,329.36178 C 223.45149,328.45513 221.47401,327.23108 215.20054,327.23108 C 208.84667,327.23108 202.45877,321.39287 197.0896,318.70829 C 195.7171,318.02203 189.80061,311.41929 188.56681,310.18549 C 187.64702,309.2657 178.34191,312.53049 175.78262,311.25084 C 170.84888,308.78397 167.55669,308.39535 161.93308,306.98944 C 157.7236,305.93707 155.43452,301.16562 153.41029,298.46665 C 150.92549,295.15358 162.21172,295.77868 164.06378,292.07455 C 164.1521,291.8979 175.59083,296.43185 177.91332,295.2706 C 180.16363,294.14544 188.43302,297.63419 191.76286,298.46665 C 198.4368,300.13514 194.10895,288.02855 191.76286,285.68246 C 187.12513,281.04473 203.05122,285.25741 205.6124,284.61711 C 213.95675,282.53102 197.81455,279.4716 218.39659,284.61711 C 223.94454,286.0041 223.08206,288.87851 231.18078,288.87851 C 239.58255,288.87851 235.18346,285.16503 233.31148,281.42106 C 232.65587,280.10984 219.64625,277.7845 218.39659,277.15967 C 214.33454,275.12864 214.75147,266.67338 213.06984,263.31013 C 209.52107,256.21259 205.6124,258.56813 205.6124,249.46059 C 205.6124,242.86778 198.72085,241.72019 206.67775,237.74175 C 208.60373,236.77875 212.545,228.13795 213.06984,227.08825 C 216.19809,220.83175 225.46,233.91451 232.24613,235.61105 C 240.14506,237.58578 239.44881,234.29093 234.37683,229.21895 C 231.5629,226.40502 224.32683,224.98588 221.59264,223.89221 C 217.91525,222.42125 214.08984,215.32406 210.93914,212.17336 C 207.41186,208.64608 207.7431,205.92653 207.7431,198.32382 C 207.7431,194.77266 213.27391,193.24617 214.13519,189.80103 C 215.13182,185.81452 219.49338,183.40894 224.78868,183.40894 C 232.63346,183.40894 239.82716,189.30669 241.83427,181.27824 C 242.83112,177.29083 252.6276,186.74483 253.55311,187.67033 C 256.7346,190.85182 261.03071,192.36593 265.27195,194.06243 C 273.85697,197.49643 274.71222,193.29283 276.99079,188.73568 C 280.51612,181.68504 271.63646,179.66642 268.468,178.08219 C 262.75937,175.22788 262.89695,173.82079 254.61846,173.82079 C 251.49208,173.82079 246.47758,166.43973 240.76892,165.298 C 237.12994,164.5702 232.89009,156.92359 231.18078,154.64451 C 227.60188,149.87265 236.09138,145.05636 239.70357,145.05636 C 247.15432,145.05636 252.75275,149.51785 262.07591,147.18706 C 268.40711,145.60426 272.75807,152.53531 276.99079,155.70986 C 281.65032,159.2045 285.89595,159.07665 290.84033,157.84055 C 294.28547,156.97927 294.72138,151.82881 297.23243,149.31776 C 301.26401,145.28618 305.29267,145.82031 311.08197,142.92567 C 313.24601,141.84364 316.40872,136.54474 316.40872,132.27217 C 316.40872,127.93743 326.01088,129.02005 327.06221,124.81473 C 327.84169,121.69679 334.68773,135.80437 335.585,137.59892 C 338.34083,143.11057 339.31072,149.32977 337.7157,155.70986 C 336.96622,158.70777 327.44436,164.07823 324.93151,167.4287 C 318.94813,175.40653 321.10665,175.0119 311.08197,177.01684 C 310.51293,177.13065 304.12014,187.42252 301.49383,188.73568 C 295.48133,191.74193 294.377,190.41222 290.84033,195.12778 C 289.08709,197.46543 301.24369,204.12071 303.62452,204.71592 C 309.0844,206.08089 308.94275,208.97732 316.40872,208.97732 C 323.00764,208.97732 322.44452,207.20643 323.86616,201.51987 C 324.71879,198.10936 330.47098,197.47294 331.3236,194.06243 C 332.86988,187.87734 334.29232,186.83231 337.7157,183.40894 C 340.93243,180.1922 342.62744,175.30115 345.17314,172.75544 C 348.24936,169.67923 349.03122,164.59982 354.76129,163.1673 C 360.93925,161.62281 356.59293,155.02765 366.48013,159.97125 C 379.70648,166.58443 375.36545,152.87633 387.78711,165.298 C 393.30867,170.81955 394.56519,177.60362 393.11386,183.40894 C 391.60235,189.45499 385.81676,195.2691 383.52572,198.32382 C 379.69001,203.4381 371.31299,201.51987 365.41478,201.51987 C 355.98474,201.51987 355.72974,195.28926 349.43454,205.78127 C 345.70624,211.9951 338.78105,200.70706 338.78105,214.30406 C 338.78105,221.91155 346.63812,224.52479 352.63059,226.0229 C 357.69524,227.28907 362.02618,229.21895 367.54548,229.21895 C 374.48618,229.21895 365.67426,242.80901 365.41478,243.06849 C 363.62456,244.85871 365.29209,256.34344 364.34943,260.11408 C 362.60635,267.0864 361.15338,271.82293 361.15338,279.29036 C 361.15338,283.39921 346.35365,274.07878 346.23849,273.96362 C 343.06224,270.78736 337.95941,284.73897 341.9771,286.74781 C 345.87146,288.69499 355.65141,284.39458 359.02268,283.55176 C 365.35649,281.96831 362.40166,296.56461 366.48013,301.6627 C 370.26586,306.39487 363.47708,311.46893 360.08803,312.31619 C 353.87485,313.86949 352.63059,321.42719 352.63059,327.23108 C 352.63059,330.48274 336.38332,318.44125 335.585,317.64294 C 331.80399,313.86192 328.60081,312.67113 323.86616,309.12014 C 319.72008,306.01058 318.38016,300.16899 316.40872,308.05479 C 314.51158,315.64332 322.44858,321.5521 325.99686,325.10038 C 330.5573,329.66082 324.84804,328.33816 320.67011,330.42713 C 316.84539,332.33949 321.51712,339.3866 319.60476,343.21132 C 316.99127,348.4383 313.67542,347.77401 307.88592,350.66876 C 305.99211,351.61567 299.05099,348.20014 297.23243,347.47271 z "
     id="path4536" />
  <path
     style="opacity:0.9958678;fill:#fd5;fill-opacity:1;stroke:none;stroke-width:8;stroke-linecap:butt;stroke-linejoin:miter;stroke-miterlimit:4;stroke-dasharray:none;stroke-dashoffset:0;stroke-opacity:1"
     d="M 334.51965,104.57309 C 328.81324,107.4263 324.74144,106.58878 322.80081,116.29194 C 322.46722,117.9599 306.83652,115.23057 306.82057,115.22659 C 293.81895,111.97618 309.75072,100.25817 313.21267,98.180999 C 320.3023,93.927219 308.58352,88.592856 321.73546,88.592856 C 329.77767,88.592856 328.99585,89.855262 333.4543,85.396808 C 336.29288,82.558231 335.93661,102.21149 334.51965,104.57309 z "
     id="path4538" />
  <path
     style="opacity:0.9958678;fill:#fd5;fill-opacity:1;stroke:none;stroke-width:8;stroke-linecap:butt;stroke-linejoin:miter;stroke-miterlimit:4;stroke-dasharray:none;stroke-dashoffset:0;stroke-opacity:1"
     d="M 427.20503,494.4909 C 431.42103,490.27491 430.82099,515.82905 434.66248,496.6216 C 436.06422,489.61291 436.486,489.16416 445.31597,489.16416 C 452.85512,489.16416 445.31372,479.57377 443.18527,477.44532 C 440.60774,474.86779 442.11992,466.2207 442.11992,462.53043 C 442.11992,462.119 447.78073,451.20882 448.51202,449.74624 C 451.55143,443.66741 447.04266,440.5621 451.70806,435.8967 C 454.02427,433.5805 448.9014,427.76328 447.44667,426.30856 C 444.55084,423.41273 450.6132,418.82159 445.31597,413.52436 C 441.75156,409.95996 438.55485,409.07846 434.66248,407.13227 C 430.48476,405.04341 434.62064,397.46044 432.53178,393.28273 C 430.511,389.24118 426.15705,387.96032 421.87829,386.89063 C 415.20895,385.2233 413.44756,390.04065 409.0941,392.21738 C 403.39749,395.06568 402.43642,383.6976 401.63665,380.49854 C 400.69542,376.73361 405.83871,367.77369 406.9634,366.649 C 413.21828,360.39411 409.24896,358.28107 404.8327,353.86481 C 400.04381,349.07592 399.70535,346.87338 392.04851,345.34202 C 384.50951,343.83422 384.61562,359.24066 379.26432,348.53806 C 375.6562,341.32182 370.57484,351.33551 369.67618,354.93016 C 367.94965,361.83628 370.84214,365.48303 366.48013,369.84505 C 364.60098,371.7242 356.79776,363.35872 355.82664,362.3876 C 350.26603,356.827 349.00865,367.28723 348.36919,369.84505 C 347.45651,373.49577 337.33414,371.27212 334.51965,371.97575 C 329.87314,373.13737 331.95191,365.20113 329.19291,376.23714 C 328.43572,379.26587 320.67011,373.89444 320.67011,384.75994 C 320.67011,388.66598 313.21267,392.53132 313.21267,398.60948 C 313.21267,404.75937 305.86549,408.19762 315.34337,408.19762 C 320.1474,408.19762 325.77712,416.28093 327.06221,418.85111 C 328.29867,421.32403 334.53418,424.19239 336.65035,426.30856 C 341.1402,430.7984 342.26992,431.04965 339.8464,435.8967 C 339.56512,436.45926 331.24392,441.30312 330.25825,442.28879 C 326.4253,446.12175 325.56842,432.27221 321.73546,428.43925 C 317.55494,424.25873 314.27968,419.91729 310.01662,417.78576 C 303.87237,414.71364 299.25784,418.9564 296.16708,422.04716 C 289.69081,428.52343 286.14205,430.13307 281.25219,425.24321 C 277.22903,421.22004 272.08025,419.05921 267.40265,416.72041 C 260.35033,413.19425 259.65255,414.58971 250.35706,414.58971 C 243.28394,414.58971 241.59654,409.73844 237.57287,417.78576 C 235.30655,422.31841 231.18078,409.4322 231.18078,407.13227 C 231.18078,400.31265 240.58664,406.06692 245.03032,406.06692 C 252.54717,406.06692 259.40143,404.19701 265.27195,407.13227 C 267.20547,408.09903 277.34838,407.54698 281.25219,408.19762 C 285.68298,408.93608 279.68594,399.00695 276.99079,395.41343 C 273.66019,390.97262 270.28204,389.77003 267.40265,386.89063 C 262.48672,381.9747 274.84542,380.49854 279.12149,380.49854 C 289.58884,380.49854 285.67744,374.76185 284.44824,369.84505 C 283.14213,364.6206 279.76902,363.03513 276.99079,360.2569 C 273.0641,356.33021 264.76688,358.25247 261.01056,359.19156 C 256.88647,360.22258 251.345,355.9568 249.29171,354.93016 C 245.99588,353.28224 243.4988,349.13724 240.76892,346.40736 C 237.12201,342.76045 232.38345,343.17699 227.98473,344.27667 C 221.39698,345.9236 218.08556,342.30148 212.00449,345.34202 C 208.26354,347.21249 199.02081,336.61973 197.0896,334.68852 C 193.81559,331.41451 187.73197,332.5002 183.24006,333.62317 C 178.55417,334.79465 179.03745,343.18193 174.71727,345.34202 C 169.39072,348.00529 167.07362,355.11637 164.06378,358.12621 C 159.86673,362.32325 174.11566,361.70453 176.84797,362.3876 C 184.73686,364.35983 190.87953,361.14023 194.95891,357.06086 C 195.99898,356.02078 208.9736,355.15521 209.87379,354.93016 C 214.11535,353.86977 215.58208,353.96019 223.72333,355.99551 C 229.50286,357.44039 232.08516,363.14637 237.57287,364.5183 C 242.13725,365.6594 229.47066,373.73496 227.98473,374.10644 C 222.74748,375.41576 218.51604,373.04109 212.00449,373.04109 C 205.02656,373.04109 201.80957,372.12396 199.2203,377.30249 C 196.73008,382.28294 206.52254,386.28035 209.87379,387.95598 C 215.77689,390.90753 216.26589,397.1273 216.26589,402.87087 C 216.26589,410.77151 215.98025,410.9324 209.87379,412.45902 C 204.59154,413.77958 197.53909,409.26297 190.69751,409.26297 C 181.80147,409.26297 178.44893,407.0013 171.52122,401.80552 C 161.70617,394.44424 164.92281,398.52945 157.67168,408.19762 C 154.69288,412.16936 152.4902,419.43218 153.41029,423.11251 C 155.15209,430.07972 143.92789,428.86222 145.95284,436.96205 C 147.13612,441.69516 149.59062,448.91475 153.41029,454.00763 C 156.30718,457.87015 162.4461,459.46264 166.19448,460.39973 C 171.12654,461.63275 161.98477,473.08053 161.93308,473.18392 C 158.25519,480.53971 166.99769,483.12158 160.86773,491.29486 C 156.66949,496.89251 155.54098,501.31977 155.54098,508.34044 C 155.54098,515.11533 158.18482,518.00674 156.60633,524.32068 C 154.8248,531.4468 165.036,529.89048 168.32518,530.71278 C 177.55081,533.01919 190.76698,532.84348 202.41635,532.84348 C 211.6473,532.84348 237.15101,532.19999 227.98473,541.36627 C 225.39651,543.95449 218.74497,544.38812 216.26589,545.62767 C 209.68163,548.9198 220.62336,554.15046 223.72333,554.15046 C 226.76628,554.15046 230.26656,543.65182 231.18078,541.36627 C 234.50011,533.06793 234.77541,533.51024 240.76892,527.51673 C 244.43475,523.8509 242.6224,520.66126 249.29171,518.99394 C 253.98153,517.82148 252.63149,525.38603 259.94521,525.38603 C 264.68009,525.38603 260.89218,525.38603 259.94521,525.38603 C 263.6362,525.38603 280.94507,542.1245 284.44824,545.62767 C 287.27786,548.45728 291.58024,549.88906 297.23243,549.88906 C 307.83801,549.88906 304.70064,546.70378 300.42848,542.43162 C 294.75827,536.76141 298.33066,538.17022 305.75522,538.17022 C 310.73481,538.17022 318.46527,550.88027 321.73546,554.15046 C 326.81103,559.22603 331.50771,557.1624 335.585,553.08511 C 340.62729,548.04282 330.34382,538.74568 324.93151,536.03952 C 318.56513,532.85633 316.74714,531.00115 315.34337,525.38603 C 313.09119,516.37734 311.08197,514.46725 311.08197,505.1444 C 311.08197,497.03469 320.10147,497.54479 324.93151,498.7523 C 333.59545,500.91829 326.2581,508.36082 324.93151,513.66719 C 323.57362,519.09874 328.57385,524.56063 332.38895,529.64743 C 337.26128,536.14386 340.24384,535.24463 343.04245,529.64743 C 346.3537,523.02492 340.72645,519.04026 349.43454,516.86324 C 351.05137,516.45903 354.82312,507.21326 355.82664,506.20975 C 362.77079,499.26559 350.14794,490.94053 368.61083,495.55625 C 378.2049,497.95477 369.38943,506.78323 367.54548,510.47114 C 365.15394,515.25422 359.5291,519.04645 356.89199,524.32068 C 354.19139,529.72187 363.36692,533.92953 367.54548,534.97417 C 374.83769,536.79723 381.39502,538.25117 381.39502,529.64743 C 381.39502,522.90022 381.39502,516.15301 381.39502,509.40579 C 381.39502,500.10837 385.20314,496.16833 388.85246,499.81765 C 391.07085,502.03604 391.97075,514.57702 394.17921,518.99394 C 397.42191,525.47935 398.43083,528.5723 404.8327,534.97417 C 410.46903,540.61051 412.29014,525.73283 412.29014,523.25533 C 412.29014,515.99655 419.2378,515.84367 415.48619,508.34044 C 412.90572,503.17951 408.56395,500.89313 406.9634,494.4909 C 405.39893,488.23302 403.7947,483.19273 411.22479,481.70671 C 420.15493,479.92069 421.87829,482.73241 421.87829,490.22951 C 421.87829,494.71285 420.9947,493.24884 427.20503,494.4909 z "
     id="path4540" />
  <path
     style="opacity:0.9958678;fill:gray;fill-opacity:1;stroke:#fe0000;stroke-width:2;stroke-linecap:butt;stroke-linejoin:miter;stroke-miterlimit:4;stroke-dasharray:none;stroke-dashoffset:0;stroke-opacity:1"
     d="M 380.32967,422.04716 C 379.3365,418.0745 371.15385,413.19785 367.54548,411.39367 C 361.84709,408.54447 362.21873,407.3369 362.21873,416.72041 C 362.21873,421.73592 353.69594,415.33197 353.69594,424.17786 C 353.69594,431.86112 350.02971,430.09978 354.76129,434.83135 C 357.69291,437.76297 356.64629,443.10845 360.08803,446.55019 C 363.98066,450.44282 366.99889,450.94823 371.80687,449.74624 C 376.40326,448.59714 373.85383,440.49308 375.00292,435.8967 C 376.63801,429.35636 378.96697,428.86064 380.32967,422.04716 z "
     id="path8144" />
  <path
     style="opacity:0.9958678;fill:gray;fill-opacity:1;stroke:#fc0000;stroke-width:2;stroke-linecap:butt;stroke-linejoin:miter;stroke-miterlimit:4;stroke-dasharray:none;stroke-dashoffset:0;stroke-opacity:1"
     d="M 176.84797,479.57602 C 177.1676,478.2975 191.24878,491.84613 192.82821,493.42556 C 197.49865,498.096 202.03382,487.79852 202.41635,487.03346 C 204.97944,481.90728 212.36905,478.14611 216.26589,474.24927 C 219.05135,471.46381 221.729,466.24638 222.65798,462.53043 C 224.01979,457.08319 234.6679,461.174 238.63822,457.20368 C 242.18271,453.6592 231.55524,449.04084 230.11543,448.68089 C 225.49422,447.52559 222.69107,443.38723 220.52729,441.22344 C 216.05348,436.74964 224.58544,429.60622 214.13519,434.83135 C 208.11923,437.83933 210.82384,442.28879 202.41635,442.28879 C 195.45017,442.28879 193.23225,440.70893 191.76286,434.83135 C 190.43228,429.50902 190.42943,426.1075 186.43611,423.11251 C 182.3263,420.03015 181.13357,418.85111 174.71727,418.85111 C 167.78672,418.85111 166.48459,417.88086 165.12913,412.45902 C 163.67129,406.62768 167.28581,401.70158 168.32518,397.54413 C 169.71448,391.98691 171.88358,390.47075 170.45587,384.75994 C 168.39474,376.51539 158.21609,385.28088 157.67168,385.82529 C 153.93984,389.55713 150.86285,390.24883 145.95284,389.02133 C 141.12438,387.81422 138.82032,384.9224 134.234,382.62924 C 126.89248,378.95848 140.08181,371.23697 140.6261,370.9104 C 144.83379,368.38578 152.87098,369.84505 157.67168,369.84505 C 163.52962,369.84505 163.89451,366.26071 165.12913,361.32225 C 166.64404,355.26261 161.6839,351.48493 158.73703,348.53806 C 154.69054,344.49157 147.47397,348.99384 143.82214,345.34202 C 138.24068,339.76055 156.4267,338.98585 156.60633,338.94992 C 162.42576,337.78603 165.77664,335.75387 172.58657,335.75387 C 180.02279,335.75387 182.03435,328.80033 181.10937,325.10038 C 179.30368,317.87763 171.64341,313.38154 165.12913,313.38154 C 158.04455,313.38154 156.49127,312.25866 152.34494,310.18549 C 145.3004,306.66322 155.27042,299.06697 157.67168,298.46665 C 164.75244,296.69646 167.50873,294.20525 174.71727,294.20525 C 182.84629,294.20525 189.1595,296.45597 185.37076,288.87851 C 184.18441,286.50579 175.86479,281.50324 173.65192,279.29036 C 170.40261,276.04106 171.34221,265.26181 166.19448,260.11408 C 163.12164,257.04124 152.3646,259.31015 149.14889,260.11408 C 147.87953,260.43142 140.86385,249.69834 140.6261,249.46059 C 138.61865,247.45314 138.17427,245.94341 136.3647,244.13384 C 132.9493,240.71844 132.1033,253.15327 132.1033,257.98338 C 132.1033,263.59203 134.02054,268.42341 136.3647,270.76757 C 139.7249,274.12778 141.49343,277.15967 133.16865,277.15967 C 126.67848,277.15967 126.77656,280.21969 126.77656,286.74781 C 126.77656,291.1297 122.69423,294.02618 120.38446,296.33595 C 117.80693,298.91348 109.15984,297.4013 105.46957,297.4013 C 100.14283,297.4013 94.81608,297.4013 89.489334,297.4013 C 83.64934,297.4013 85.219307,303.82792 84.162588,308.05479 C 83.245341,311.72378 74.627682,310.18549 70.313048,310.18549 C 64.986302,310.18549 59.659556,310.18549 54.33281,310.18549 C 50.176279,310.18549 46.770499,314.44689 42.613968,314.44689 C 37.524889,314.44689 31.175964,314.64302 27.699079,315.51224 C 23.87932,316.46718 32.998929,329.32592 33.025825,329.36178 C 37.12053,334.82138 41.307444,334.78917 42.613968,340.01527 C 42.686843,340.30677 49.998612,345.19641 51.136762,347.47271 C 53.694601,352.58839 54.848541,351.66634 56.463508,358.12621 C 58.002869,364.28365 60.345607,365.20435 63.920953,368.7797 C 67.358227,372.21697 72.534307,374.10644 76.705143,374.10644 C 82.52903,374.10644 86.137051,374.54686 87.358635,379.43319 C 88.820098,385.27904 88.093208,390.96839 83.097238,392.21738 C 80.047242,392.97988 82.688399,405.49691 83.097238,407.13227 C 84.258645,411.77789 83.097238,418.29557 83.097238,423.11251 C 83.097238,427.66181 87.973425,430.11939 90.554683,432.70065 C 92.549134,434.6951 100.4738,435.18043 103.33887,435.8967 C 106.77033,436.75456 109.07959,444.18209 110.79632,447.61554 C 113.35287,452.72864 117.82955,452.94229 123.58051,452.94229 C 129.37152,452.94229 133.77346,454.00763 139.56075,454.00763 C 145.82817,454.00763 146.81198,451.87694 153.41029,451.87694 C 158.43239,451.87694 154.32295,441.8342 155.54098,436.96205 C 157.81062,427.88351 164.72898,443.88425 165.12913,445.48484 C 166.43062,450.69082 165.16452,457.34525 166.19448,461.46508 C 167.76254,467.73731 168.66702,470.44367 171.52122,474.24927 C 174.92559,478.78843 174.63217,470.71284 176.84797,479.57602 z "
     id="path8146" />
  <path
     style="opacity:0.9958678;fill:none;fill-opacity:1;stroke:black;stroke-width:4;stroke-linecap:butt;stroke-linejoin:miter;stroke-miterlimit:4;stroke-dasharray:8,4,2,4;stroke-dashoffset:0;stroke-opacity:1"
     d="M 213.06984,570.1307 C 214.49031,570.1307 217.33124,571.55116 217.33124,570.1307 C 217.33124,562.5401 211.80484,563.10611 204.54705,559.47721 C 203.19015,556.76341 204.0648,552.31131 201.351,550.95441 C 197.97459,549.26621 197.6685,542.43162 193.89356,542.43162 C 188.3267,542.43162 182.94849,541.36627 177.91332,541.36627 C 170.62602,541.36627 169.30314,536.03952 166.19448,536.03952 C 153.72564,536.03952 166.36122,530.26348 160.86773,527.51673 C 159.20264,526.68418 149.4478,524.6196 148.08354,523.25533 C 139.16241,514.3342 147.58257,517.80178 148.08354,515.79789 C 149.82181,508.84482 151.2021,510.54863 155.54098,506.20975 C 159.56325,502.18748 159.65001,500.73063 154.47564,495.55625 C 153.03719,494.11781 147.62746,481.70671 153.41029,481.70671 C 161.39043,481.70671 161.35142,480.05971 157.67168,476.37997 C 155.41232,474.1206 152.61714,463.73188 148.08354,461.46508 C 146.67005,455.8111 144.01455,458.89791 138.4954,456.13833 C 133.3322,453.55674 133.72609,452.20149 126.77656,450.81159 C 119.60058,449.37639 122.7734,444.62127 115.05771,446.55019 C 106.33177,448.73168 110.1049,443.54111 103.33887,440.15809 C 97.708807,437.34306 99.539265,430.6854 94.81608,429.5046 C 92.674271,428.96915 82.638816,427.67091 82.031889,425.24321 C 81.011231,421.16057 82.031889,415.3511 82.031889,411.39367 C 82.031889,405.9694 83.097238,402.60788 83.097238,396.47878 C 83.097238,394.29251 81.874795,382.13584 84.162588,381.56389 C 90.819915,379.89956 89.201641,376.69789 83.097238,375.17179 C 78.605332,374.04882 72.52171,377.38046 69.247699,374.10644 C 67.202534,372.06128 61.033423,370.08367 59.659556,366.649 C 58.308957,363.2725 53.820509,353.9463 53.26746,351.73411 C 52.230749,347.58726 50.861988,342.34361 45.810016,341.08062 C 41.307531,339.955 35.223875,340.28467 34.091175,335.75387 C 32.434463,329.12702 17.672233,317.64294 24.503032,317.64294 C 30.159192,317.64294 33.846158,312.31619 34.091175,312.31619 C 37.179861,312.31619 40.717649,316.57759 43.679318,316.57759 C 51.302119,316.57759 54.288832,311.79451 56.463508,311.25084 C 61.601961,309.96623 63.967621,312.31619 69.247699,312.31619 C 72.184409,312.31619 82.624768,309.94467 83.097238,308.05479 C 84.579709,302.12491 84.129817,299.00752 90.554683,297.4013 C 93.980001,296.54497 102.70344,293.78006 104.40422,294.20525 C 107.55858,294.99384 114.28177,298.92697 116.12306,298.46665 C 117.16931,298.20509 122.46273,297.611 123.58051,293.1399 C 123.95622,291.63707 124.30698,280.35571 126.77656,280.35571 C 129.45384,280.35571 142.4351,280.77767 140.6261,277.15967 C 138.76824,273.44396 137.69369,270.75679 136.3647,265.44082 C 135.3795,261.50001 133.06997,257.1154 135.29935,252.65663 C 135.84957,251.5562 142.02905,240.93779 144.88749,240.93779 C 146.59823,239.65474 145.82591,237.74175 149.14889,237.74175 C 154.55507,237.74175 158.58629,236.98042 164.06378,235.61105 C 174.88467,232.90582 158.51678,233.66467 157.67168,230.2843 C 156.57455,225.89575 155.99564,217.65278 160.86773,216.43476 C 164.6564,215.48759 170.45587,210.96731 170.45587,206.84662 C 170.45587,200.21387 176.84797,200.57933 176.84797,196.19313 C 176.84797,193.69062 175.1503,180.8452 176.84797,179.14754 C 179.38204,176.61346 183.58158,170.45399 187.50146,168.49405 C 193.8126,165.33847 189.5673,164.36237 192.82821,157.84055 C 194.62028,154.2564 193.54031,148.95891 196.02425,143.99101 C 197.38179,141.27595 204.09127,137.29134 204.54705,135.46822 C 205.92833,129.94309 205.41008,128.59403 212.00449,126.94543 C 216.56174,125.80612 221.18853,122.27993 215.20054,116.29194 C 213.5952,114.6866 202.89616,102.02967 213.06984,104.57309 C 221.97413,106.79917 218.09881,102.05861 223.72333,99.246348 C 226.94333,97.636352 232.24613,96.208593 232.24613,90.723554 C 232.24613,81.204436 239.70357,89.632028 239.70357,81.135411 C 239.70357,68.87004 240.05922,75.364904 246.09567,76.874015 C 252.49656,78.474238 249.91111,74.123921 253.55311,70.481919 C 258.8849,65.15013 254.42192,64.089824 265.27195,64.089824 C 267.8832,63.437013 274.53887,60.893776 275.92545,60.893776 C 285.48942,60.893776 281.4538,58.35986 284.44824,52.370983 C 286.75032,47.766822 289.37178,47.447443 294.03638,42.78284 C 296.41136,40.407861 301.03914,33.500029 302.55918,34.260046 C 313.05981,39.510361 309.72547,31.063999 312.14732,31.063999 C 320.32492,31.063999 321.64206,23.629905 321.73546,23.606554 C 322.44569,23.606554 323.17713,23.778811 323.86616,23.606554 C 330.16749,22.031222 330.64518,19.345157 337.7157,19.345157 C 347.53942,19.345157 341.86626,25.709542 346.23849,26.802602 C 350.22943,27.800337 353.99416,31.138555 357.95733,32.129348 C 361.53983,33.024971 368.04457,34.401611 372.87222,33.194697 C 376.87648,32.193633 382.34359,32.129348 387.78711,32.129348 C 392.92438,32.129348 399.10588,33.194697 402.702,33.194697 C 408.12861,33.194697 411.96299,35.67352 417.61689,34.260046 C 425.71734,32.234935 422.97445,33.256333 426.13968,39.586792 C 427.85751,43.02244 434.01,49.414536 435.72783,45.978888 C 437.74342,41.947691 437.4459,38.521443 444.25062,38.521443 C 449.01751,38.521443 455.15232,39.46269 459.16551,37.456094 C 463.06732,35.505189 464.24579,32.866742 469.819,34.260046 C 474.57485,35.449008 476.28917,39.093154 479.40714,40.652142 C 482.99686,42.447 484.4108,49.013391 486.86459,50.240284 C 489.23506,51.425519 499.06154,51.196503 499.64878,52.370983 C 501.43046,55.934342 503.47431,58.545145 508.17157,60.893776 C 511.89145,62.753715 513.5186,65.155173 519.89041,65.155173 C 524.70735,65.155173 531.22503,66.31658 535.87065,65.155173 C 544.71313,62.944555 535.73922,60.09129 539.0667,53.436332 C 541.62153,48.326672 547.20898,51.457864 549.72019,48.109586 C 552.75509,44.063052 554.68987,38.170238 557.17764,33.194697 C 559.54027,28.469429 565.05863,22.984813 567.83113,22.541205 C 569.2516,21.120739 570.67206,19.700274 572.09253,18.279808 C 576.39681,13.975522 584.87593,11.887713 590.20346,11.887713 C 595.07127,11.887713 597.86301,17.430271 602.98765,16.14911 C 608.04938,14.883678 605.24072,11.38563 611.51045,12.953062 C 614.95558,13.814346 614.72628,6.0183972 617.90254,4.4302684 C 618.99481,3.8841336 620.14641,2.9343567 621.09859,2.29957"
     id="path4542" />
  <path
     style="opacity:0.9958678;fill:none;fill-opacity:1;stroke:black;stroke-width:2;stroke-linecap:butt;stroke-linejoin:miter;stroke-miterlimit:4;stroke-dasharray:4,2,1,2;stroke-dashoffset:0;stroke-opacity:1"
     d="M 514.56367,64.089824 C 514.56367,69.004681 515.18952,73.238466 518.82506,76.874015 C 521.29816,79.347114 522.2382,83.069093 523.08646,86.462157 C 524.29533,91.297635 513.15587,87.527507 508.17157,87.527507 C 500.82711,87.527507 498.80588,87.305061 495.38738,90.723554 C 490.01078,96.100153 487.15195,83.182027 484.73389,92.854253 C 484.66279,93.13866 473.13792,97.054215 473.01505,97.11565 C 469.94178,98.652282 463.2045,88.370451 461.29621,86.462157 C 456.96421,82.130162 458.40612,81.894801 453.83876,86.462157 C 450.83613,89.464788 448.1337,93.232565 445.31597,96.0503 C 440.40457,100.9617 437.4625,96.569034 435.72783,103.50774 C 434.75907,107.38277 425.82733,109.52334 422.94364,110.96519 C 418.76592,113.05405 427.16319,120.63701 425.07433,124.81473 C 423.78996,127.38348 417.26263,130.84999 415.48619,134.40287 C 413.67545,138.02436 407.70879,130.56692 405.89805,126.94543 C 404.57951,124.30835 391.41337,125.88008 388.85246,125.88008 C 381.82612,125.88008 378.93228,124.5657 375.00292,121.61868 C 368.35165,116.63023 376.55888,123.74938 365.41478,123.74938 C 360.08803,123.74938 354.76129,123.74938 349.43454,123.74938 C 343.82471,123.74938 337.72004,119.49232 335.585,117.35728 C 334.102,115.87429 329.5042,122.68403 324.93151,122.68403 C 318.02271,122.68403 315.45799,122.91329 313.21267,118.42263 C 310.78876,113.57481 307.30057,108.95449 315.34337,110.96519 C 322.40245,112.72996 324.14869,108.83449 330.25825,108.83449 C 334.9961,108.83449 329.18104,99.222607 327.06221,94.984951 C 325.36098,91.582504 317.02237,91.369153 328.12756,88.592856 C 332.67428,87.456175 337.83832,92.854253 343.04245,92.854253 C 349.41161,92.854253 350.83844,91.012405 349.43454,85.396808 C 347.93853,79.41277 356.20873,80.793785 348.36919,76.874015 C 343.66139,74.520116 340.11392,75.81342 338.78105,70.481919 C 337.96568,67.220436 347.30841,65.150606 348.36919,64.089824 C 349.48668,62.972337 361.22562,63.521029 362.21873,63.024475 C 366.32613,60.970776 363.25531,56.106898 369.67618,54.501681 C 374.25144,53.357864 376.46948,48.773724 377.13362,48.109586 C 378.43286,46.810346 373.34459,38.280206 372.87222,36.390745 C 371.2742,29.998649 372.961,36.213186 373.93757,34.260046"
     id="path6314" />
  <path
     style="opacity:0.9958678;fill:none;fill-opacity:1;stroke:black;stroke-width:2;stroke-linecap:butt;stroke-linejoin:miter;stroke-miterlimit:4;stroke-dasharray:4, 2, 1, 2;stroke-dashoffset:0;stroke-opacity:1"
     d="M 327.06221,125.88008 C 325.7447,120.61003 331.57577,136.59027 330.25825,141.86032 C 329.08678,146.54621 320.72889,139.75901 316.40872,137.59892 C 309.76362,134.27637 311.35019,129.27541 303.62452,131.20682 C 294.43186,133.50499 297.88993,125.63043 299.36313,122.68403 C 301.21519,118.97991 292.72732,128.0717 288.70964,129.07613 C 283.30447,130.42742 281.26946,129.09339 278.05614,125.88008 C 275.03244,122.85637 273.80952,135.46822 269.53335,135.46822 C 267.6299,135.46822 266.37504,129.11386 264.2066,126.94543 C 261.54323,124.28205 256.21648,124.28205 253.55311,121.61868 C 249.98395,118.04952 245.26552,118.42263 241.83427,118.42263 C 237.16344,118.42263 241.79243,108.75081 239.70357,104.57309 C 237.5537,100.27336 229.81749,99.630052 226.91938,98.180999"
     id="path7201" />
  <path
     style="opacity:0.9958678;fill:none;fill-opacity:1;stroke:black;stroke-width:2;stroke-linecap:butt;stroke-linejoin:miter;stroke-miterlimit:4;stroke-dasharray:4, 2, 1, 2;stroke-dashoffset:0;stroke-opacity:1"
     d="M 520.95576,88.592856 C 518.91893,87.574441 531.99988,92.357092 529.47856,102.4424 C 527.63272,109.82573 526.20893,116.47589 524.15181,121.61868 C 521.66118,127.84525 524.52558,132.77053 527.34786,136.53357 C 531.10643,141.54499 531.60926,149.64284 531.60926,155.70986 C 531.60926,161.14209 520.89906,153.83132 515.62902,152.51381 C 511.27123,151.42436 507.33673,156.77521 502.84483,156.77521 C 496.89199,156.77521 500.18027,168.49641 497.51808,173.82079 C 494.96694,178.92307 488.22552,178.37777 495.38738,185.53963 C 499.59984,189.7521 497.55877,196.11174 496.45273,198.32382 C 494.02336,203.18256 485.74254,196.44529 480.47249,195.12778 C 476.08755,194.03154 475.40424,204.71592 470.88435,204.71592 C 464.1117,204.71592 463.42691,211.23867 463.42691,216.43476 C 463.42691,225.65552 458.84186,220.9254 457.03481,228.1536 C 455.53006,234.17259 448.44712,225.95801 446.38132,223.89221 C 445.31597,222.82686 444.25062,221.76151 443.18527,220.69616 C 437.32314,214.83403 431.46643,229.27893 431.46643,215.36941 C 431.46643,211.05141 437.31286,202.60255 438.92387,200.45452 C 442.85715,195.21015 433.295,189.04176 431.46643,187.67033 C 425.99863,183.56948 422.43155,184.43311 426.13968,177.01684 C 426.99492,175.30637 427.56015,173.46568 428.27038,171.69009 C 431.86952,162.69226 422.95708,159.43522 416.55154,161.0366 C 408.61973,163.01955 406.9634,159.28699 406.9634,152.51381 C 406.9634,146.1306 403.76735,144.45585 403.76735,139.72962 C 403.76735,138.30915 403.76735,136.88869 403.76735,135.46822 C 403.76735,135.03646 410.81508,134.40287 412.29014,134.40287"
     id="path7203" />
  <path
     style="opacity:0.9958678;fill:none;fill-opacity:1;stroke:black;stroke-width:2;stroke-linecap:butt;stroke-linejoin:miter;stroke-miterlimit:4;stroke-dasharray:4, 2, 1, 2;stroke-dashoffset:0;stroke-opacity:1"
     d="M 530.54391,157.84055 C 530.54391,155.84681 538.64,167.64205 547.58949,163.1673 C 554.58233,159.67088 542.52904,152.51381 556.11229,152.51381 C 570.78249,152.51381 562.60352,157.06633 574.22322,159.97125 C 579.53124,161.29826 584.87672,167.78426 584.87672,157.84055 C 584.87672,151.98382 597.78097,157.72049 601.9223,153.57916 C 608.22187,147.27959 599.18026,139.72962 610.4451,139.72962 C 617.11624,139.72962 622.53637,138.30482 629.62138,136.53357 C 639.7997,133.98899 638.79017,130.30297 650.92837,133.33752 C 661.59608,136.00445 665.44694,129.62156 663.71256,122.68403 C 662.95549,119.65577 673.55179,114.22221 674.36605,110.96519 C 675.33675,107.08237 698.2349,111.16819 702.06513,103.50774 C 704.76961,98.098773 691.813,95.525059 690.34629,89.658205 C 688.62455,82.771248 683.72178,78.7723 680.75814,75.808665 C 678.17286,73.223379 677.20698,69.41657 675.4314,66.220523 C 671.47992,59.107855 680.75382,52.370983 669.0393,52.370983 C 664.02744,52.370983 659.48617,47.079242 657.32046,44.913538 C 655.29599,42.889063 654.47953,39.941909 653.05907,37.456094 C 652.00194,35.60613 653.05907,33.194697 653.05907,31.063999 L 621.09859,5.4956176"
     id="path7205" />
  <path
     style="opacity:0.9958678;fill:none;fill-opacity:1;stroke:black;stroke-width:2;stroke-linecap:butt;stroke-linejoin:miter;stroke-miterlimit:4;stroke-dasharray:4, 2, 1, 2;stroke-dashoffset:0;stroke-opacity:1"
     d="M 584.87672,166.36335 C 584.83168,166.28454 601.6642,165.0399 604.053,167.4287 C 605.00943,168.38513 609.07759,177.78003 612.5758,181.27824 C 616.86033,185.56277 610.76727,191.60956 609.37975,192.99708 C 606.68952,195.68731 607.62189,206.10093 606.1837,208.97732 C 605.66983,210.00506 612.31164,222.8356 612.5758,223.89221 C 613.88046,229.11088 622.02704,227.38882 627.49068,226.0229 C 631.84847,224.93346 629.74324,234.78941 631.75208,238.80709 C 632.89574,241.09441 635.80807,245.85372 637.07883,248.39524 C 639.46363,253.16485 634.94813,261.38243 634.94813,267.57152 C 634.94813,273.53911 642.069,275.02897 646.66697,275.02897 C 655.91469,275.02897 657.32046,276.11957 657.32046,284.61711 C 657.32046,287.11319 668.99571,292.96555 670.10465,297.4013 C 671.86104,304.42687 669.92311,306.98944 663.71256,306.98944 C 657.56513,306.98944 651.10011,307.29872 645.60162,305.92409 C 640.22567,304.58011 637.61687,311.24011 636.01348,314.44689 C 633.42709,319.61967 627.27772,311.03787 625.35999,309.12014 C 619.37712,303.13728 615.30782,301.6627 607.24905,301.6627 C 602.72201,301.6627 598.26459,291.29325 597.66091,288.87851 C 597.48865,288.18948 597.66091,287.45804 597.66091,286.74781 C 596.46438,281.96168 592.40976,295.1194 590.20346,299.532 C 588.44385,303.05121 580.61532,291.38572 580.61532,304.85875 C 580.61532,309.01528 576.35392,312.42106 576.35392,316.57759 C 576.35392,316.99201 566.23705,310.4538 565.70043,310.18549 C 558.87673,306.77364 559.56117,302.79126 555.04694,301.6627 C 549.87924,300.37077 555.04694,312.31619 555.04694,317.64294 C 555.04694,322.03548 546.19156,316.4113 542.26275,314.44689 C 536.40138,311.5162 538.00135,304.42946 538.00135,298.46665 C 538.00135,292.91321 528.74135,297.4013 525.21716,297.4013 C 520.59123,297.4013 519.89041,285.70793 519.89041,282.48641 C 519.89041,276.0432 520.84635,271.20522 522.02111,266.50617 C 523.61065,260.14804 526.90772,257.24813 531.60926,253.72198 C 532.87976,252.76911 534.45019,252.30152 535.87065,251.59128 C 540.2738,249.38971 539.18166,242.60863 540.13205,238.80709 C 541.4212,233.65048 549.10286,235.9497 550.78554,229.21895 C 552.39226,222.79208 553.98159,218.14067 553.98159,211.10801 C 553.98159,203.67612 553.50898,199.62945 551.85089,192.99708 C 549.80237,184.80301 551.54464,183.35572 547.58949,178.08219 C 545.23606,174.94428 546.52414,170.28574 546.52414,166.36335"
     id="path7207" />
  <path
     style="opacity:0.9958678;fill:none;fill-opacity:1;stroke:black;stroke-width:2;stroke-linecap:butt;stroke-linejoin:miter;stroke-miterlimit:4;stroke-dasharray:4, 2, 1, 2;stroke-dashoffset:0;stroke-opacity:1"
     d="M 638.14418,251.59128 C 634.99809,247.3965 654.22532,242.00314 657.32046,242.00314 C 661.84217,242.00314 657.07324,230.39848 670.10465,235.61105 C 672.50503,236.5712 675.07628,237.03151 677.5621,237.74175 C 682.20636,239.06868 681.399,227.19438 686.08489,226.0229 C 692.76465,224.35297 694.01209,224.0411 698.86908,222.82686"
     id="path7209" />
  <path
     style="opacity:0.9958678;fill:none;fill-opacity:1;stroke:black;stroke-width:2;stroke-linecap:butt;stroke-linejoin:miter;stroke-miterlimit:4;stroke-dasharray:4, 2, 1, 2;stroke-dashoffset:0;stroke-opacity:1"
     d="M 676.49675,110.96519 C 684.16457,109.04823 685.12773,126.31283 686.08489,130.14148 C 686.57572,132.10479 698.15959,134.04813 698.86908,134.40287"
     id="path7211" />
  <path
     style="opacity:0.9958678;fill:none;fill-opacity:1;stroke:black;stroke-width:2;stroke-linecap:butt;stroke-linejoin:miter;stroke-miterlimit:4;stroke-dasharray:4, 2, 1, 2;stroke-dashoffset:0;stroke-opacity:1"
     d="M 672.23535,301.6627 C 673.02942,304.83896 677.83338,305.94388 678.62745,309.12014 C 680.00975,314.64938 680.74043,319.73821 682.88884,324.03503 C 686.21833,330.694 692.47699,321.70046 692.47699,334.68852 C 692.47699,340.44819 683.95419,340.18393 683.95419,348.53806 C 683.95419,355.99119 683.31296,364.08408 685.01954,370.9104 C 686.17828,375.54535 675.52479,375.86358 674.36605,380.49854 C 672.37201,388.47469 673.6316,388.69043 671.17,391.15203 C 668.45366,393.86837 664.63055,380.02262 661.58186,392.21738 C 660.18618,397.80008 661.58838,400.74017 654.12441,400.74017 C 648.19584,400.74017 646.97778,396.78959 643.47092,393.28273 C 638.83296,388.64476 634.84737,387.82163 631.75208,383.69459 C 628.4046,379.23127 628.90196,377.74868 622.16394,379.43319 C 618.74694,380.28744 612.29823,370.35526 611.51045,368.7797 C 610.01951,365.79783 597.0837,364.07435 595.53021,363.45295 C 592.6513,362.30139 591.29895,350.72905 590.20346,348.53806 C 586.96857,342.06827 583.37452,340.64377 579.54997,336.81922 C 572.87166,330.14091 576.19696,329.51874 581.68067,324.03503 C 583.75645,321.95925 594.71953,321.90433 581.68067,321.90433 C 575.55297,321.90433 574.22322,319.53628 574.22322,313.38154"
     id="path7213" />
  <path
     style="opacity:0.9958678;fill:none;fill-opacity:1;stroke:black;stroke-width:2;stroke-linecap:butt;stroke-linejoin:miter;stroke-miterlimit:4;stroke-dasharray:4, 2, 1, 2;stroke-dashoffset:0;stroke-opacity:1"
     d="M 432.53178,218.56546 C 432.53178,212.74112 424.48301,227.20555 421.87829,232.415 C 420.40635,235.35888 420.6905,242.49288 419.74759,246.26454 C 418.36042,251.81319 421.18052,255.44772 419.74759,261.17943 C 418.54883,265.97447 419.00444,263.85578 420.81294,272.89827 C 421.54632,276.56519 416.8402,281.90909 415.48619,284.61711 C 413.39733,288.79483 424.80436,285.61497 429.33573,286.74781 C 435.32082,288.24408 437.91679,290.06039 439.98922,294.20525 C 441.4139,297.0546 445.18263,302.46137 446.38132,304.85875 C 448.15012,308.39635 463.23104,303.89133 463.42691,303.7934 C 468.94492,301.03439 461.46248,294.20525 474.0804,294.20525 C 481.92867,294.20525 486.6411,294.09351 493.25668,297.4013 C 495.78154,298.66373 494.32203,309.61212 494.32203,312.31619 C 494.32203,316.4734 491.55938,319.37653 493.25668,326.16573 C 494.16363,329.79352 504.58378,324.2309 504.97553,324.03503 C 507.99363,322.52598 515.57918,325.10038 519.89041,325.10038 C 526.34459,325.10038 525.56817,320.57573 529.47856,317.64294 C 533.59095,314.55864 536.23942,314.07812 540.13205,310.18549"
     id="path7215" />
  <path
     style="opacity:0.9958678;fill:none;fill-opacity:1;stroke:black;stroke-width:2;stroke-linecap:butt;stroke-linejoin:miter;stroke-miterlimit:4;stroke-dasharray:4, 2, 1, 2;stroke-dashoffset:0;stroke-opacity:1"
     d="M 404.8327,137.59892 C 408.00896,134.42266 393.13796,137.50253 392.04851,141.86032 C 389.3053,152.83314 400.44745,152.54477 387.78711,155.70986 C 382.30266,157.08097 375.12949,155.67821 370.74152,156.77521 C 365.45862,158.09593 363.28408,159.14253 363.28408,165.298 C 363.28408,170.9961 354.74389,166.62534 353.69594,166.36335 C 348.72729,165.12119 357.63787,176.85711 362.21873,179.14754 C 367.44461,181.76048 360.4979,189.5961 357.95733,190.86638 C 352.10085,193.79462 352.75434,197.25848 346.23849,197.25848 C 337.63685,197.25848 342.00993,192.47261 335.585,190.86638 C 333.28035,190.29022 332.59197,202.83851 332.38895,203.65057 C 330.42015,211.52577 327.51447,208.67078 321.73546,205.78127 C 315.57027,202.69867 313.88222,200.88825 307.88592,199.38917 C 303.07261,198.18584 299.73935,194.43865 297.23243,191.93173 C 293.9718,188.6711 288.30554,187.67033 283.38289,187.67033 C 276.25744,187.67033 274.99903,186.88285 272.7294,182.34359 C 270.47652,177.83783 267.84265,177.71148 266.3373,171.69009 C 265.15226,166.94992 261.48363,167.19028 259.94521,161.0366 C 258.7838,156.39098 259.94521,149.8733 259.94521,145.05636 C 259.94521,140.44606 264.25889,138.10545 267.40265,136.53357"
     id="path7217" />
  <path
     style="opacity:0.9958678;fill:none;fill-opacity:1;stroke:black;stroke-width:2;stroke-linecap:butt;stroke-linejoin:miter;stroke-miterlimit:4;stroke-dasharray:4, 2, 1, 2;stroke-dashoffset:0;stroke-opacity:1"
     d="M 284.44824,186.60498 C 288.42808,184.61506 276.97696,194.00708 278.05614,198.32382 C 279.03007,202.21952 287.67729,203.66707 289.77498,204.71592 C 292.02042,205.83864 290.55554,216.36093 290.84033,217.50011 C 292.17745,222.84857 283.46649,221.76151 278.05614,221.76151 C 273.43963,221.76151 280.11852,231.28133 283.38289,234.5457 C 284.44824,235.61105 285.51359,236.6764 286.57894,237.74175 C 287.69651,238.85932 289.54811,252.58759 289.77498,253.72198 C 291.37688,261.73146 286.35724,260.11408 280.18684,260.11408 C 274.50498,260.11408 280.18684,271.4778 280.18684,277.15967 C 280.18684,284.98967 282.0514,287.81316 273.79475,287.81316 C 268.2828,287.81316 264.27618,286.81739 261.01056,283.55176 C 256.11898,278.66018 254.82012,276.09432 247.16102,276.09432 C 239.23688,276.09432 239.19962,273.45967 235.44218,269.70222 C 231.68472,265.94477 229.26564,261.39499 225.85403,257.98338 C 222.38478,254.51412 220.52849,251.59369 218.39659,247.32989 C 215.2965,241.12971 208.00105,247.07193 206.67775,248.39524 C 203.85565,251.21734 198.54407,251.42223 194.95891,250.52594 C 191.03085,249.54392 190.3645,243.80083 187.50146,240.93779 C 182.49929,235.93563 180.27296,238.50184 176.84797,243.06849 C 174.4362,246.28419 167.04172,246.26454 162.99843,246.26454 C 156.77248,246.26454 153.17349,245.13999 149.14889,244.13384 C 146.64792,243.5086 145.22145,241.63745 143.82214,240.93779"
     id="path7219" />
  <path
     style="opacity:0.9958678;fill:none;fill-opacity:1;stroke:black;stroke-width:2;stroke-linecap:butt;stroke-linejoin:miter;stroke-miterlimit:4;stroke-dasharray:4, 2, 1, 2;stroke-dashoffset:0;stroke-opacity:1"
     d="M 281.25219,286.74781 C 277.04687,285.69648 289.76097,293.19598 288.70964,297.4013 C 287.53269,302.10908 281.63024,305.82958 276.99079,306.98944 C 268.67509,309.06837 268.51313,305.83384 265.27195,312.31619 C 262.53779,317.78452 256.5182,313.24001 254.61846,320.83898 C 253.6286,324.79844 255.50089,332.22417 254.61846,335.75387 C 252.98342,342.29403 254.08645,343.74332 250.35706,347.47271 C 248.3237,349.50608 242.64988,352.06288 239.70357,352.79946 C 233.85906,354.26059 229.5452,351.73411 223.72333,351.73411 C 220.54463,351.73411 214.87633,345.0178 213.06984,343.21132 C 208.30291,338.44439 209.30623,339.2337 203.4817,342.14597 C 196.8146,345.47952 194.35218,342.44216 192.82821,348.53806 C 191.92033,352.16958 179.83596,350.66876 176.84797,350.66876 C 173.87869,350.66876 169.011,342.45227 168.32518,341.08062 C 166.11691,336.6641 161.92081,334.68852 156.60633,334.68852 C 149.36029,334.68852 151.75765,338.56407 145.95284,340.01527 C 140.75779,341.31403 134.97142,339.83091 129.9726,341.08062 C 125.69782,342.14931 121.26526,343.21132 116.12306,343.21132 C 111.41523,343.21132 110.04352,338.57352 106.53492,336.81922 C 101.72866,334.41609 101.98256,332.55782 94.81608,332.55782 C 91.101366,332.55782 90.554683,325.03454 90.554683,320.83898 C 90.554683,318.03227 84.154374,312.30798 83.097238,311.25084 C 80.720456,308.87406 80.902835,309.60504 78.835841,308.05479"
     id="path7221" />
  <path
     style="opacity:0.9958678;fill:none;fill-opacity:1;stroke:black;stroke-width:2;stroke-linecap:butt;stroke-linejoin:miter;stroke-miterlimit:4;stroke-dasharray:4, 2, 1, 2;stroke-dashoffset:0;stroke-opacity:1"
     d="M 127.84191,450.81159 C 123.58051,446.55019 135.23581,440.72254 140.6261,438.0274 C 144.76138,435.95975 147.66351,430.34466 149.14889,427.3739 C 151.15392,423.36384 152.40746,419.85393 155.54098,416.72041 C 162.32707,409.93433 156.13035,408.58295 166.19448,406.06692 C 172.82667,404.40887 173.58134,402.87087 180.04402,402.87087 C 181.44287,402.87087 191.14323,405.00157 196.02425,405.00157 C 203.06125,405.00157 207.89377,407.43361 209.87379,411.39367 C 210.73659,413.11925 212.93349,399.15488 213.06984,398.60948 C 213.61349,396.43487 222.5248,397.01153 223.72333,392.21738 C 224.28774,389.95977 239.94618,394.14239 240.76892,394.34808 C 242.18939,394.7032 243.60985,395.05831 245.03032,395.41343 C 252.89703,397.38011 255.68381,395.08923 255.68381,387.95598 C 255.68381,382.73294 262.55968,382.50829 266.3373,381.56389 C 270.35499,380.55947 262.87357,373.83876 259.94521,370.9104 C 254.99609,365.96128 257.8914,365.33654 250.35706,363.45295 C 246.00687,362.3654 247.16102,355.16145 247.16102,350.66876 C 247.16102,350.16655 247.87125,349.95853 248.22637,349.60341"
     id="path7223" />
  <path
     style="opacity:0.9958678;fill:none;fill-opacity:1;stroke:black;stroke-width:2;stroke-linecap:butt;stroke-linejoin:miter;stroke-miterlimit:4;stroke-dasharray:4, 2, 1, 2;stroke-dashoffset:0;stroke-opacity:1"
     d="M 202.41635,547.75837 C 202.41635,547.1498 216.34355,545.62767 221.59264,545.62767 C 228.19908,545.62767 226.70652,540.08702 227.98473,534.97417 C 229.31944,529.63532 231.81589,525.81627 234.37683,523.25533 C 238.91514,518.71702 236.24816,515.79789 243.96497,515.79789 C 250.55411,515.79789 250.37089,520.70126 257.81451,522.18998 C 261.36501,522.90009 268.71725,520.05929 274.8601,520.05929 C 277.22084,520.05929 274.16214,506.61395 273.79475,505.1444 C 272.58216,500.29406 283.62201,492.12109 285.51359,490.22951 C 288.49351,487.24958 280.85286,481.30738 279.12149,479.57602 C 276.45812,476.91264 272.19672,475.84729 269.53335,473.18392 C 262.91385,466.56442 276.88714,465.72648 280.18684,465.72648 C 282.48136,465.72648 286.77732,460.0838 289.77498,459.33438 C 290.41446,459.17451 289.77498,444.07986 289.77498,442.28879 C 289.77498,435.65808 288.82182,433.1494 287.64429,428.43925 C 286.80052,425.0642 281.58918,428.04789 279.12149,423.11251 C 276.61205,418.09362 275.93368,416.73688 273.79475,412.45902 C 271.22129,407.3121 272.51534,404.78752 268.468,400.74017 C 264.22987,396.50204 263.14125,399.52241 263.14125,390.08668 C 263.14125,388.66622 263.14125,387.24575 263.14125,385.82529"
     id="path7225" />
  <path
     style="opacity:0.9958678;fill:none;fill-opacity:1;stroke:black;stroke-width:2;stroke-linecap:butt;stroke-linejoin:miter;stroke-miterlimit:4;stroke-dasharray:4, 2, 1, 2;stroke-dashoffset:0;stroke-opacity:1"
     d="M 283.38289,489.16416 C 283.38289,478.61774 299.42737,503.09936 305.75522,511.53649 C 308.17918,514.76844 306.82057,522.27036 306.82057,526.45138 C 306.82057,533.72548 310.01662,530.00975 310.01662,538.17022 C 310.01662,544.90665 311.65383,544.56232 319.60476,544.56232 C 326.56984,544.56232 323.76726,551.35001 322.80081,555.21581 C 322.13016,557.89841 318.79322,563.231 317.47406,565.8693 C 315.9995,565.28512 316.52052,567.77639 316.40872,568"
     id="path7227" />
  <path
     style="opacity:0.9958678;fill:none;fill-opacity:1;stroke:black;stroke-width:2;stroke-linecap:butt;stroke-linejoin:miter;stroke-miterlimit:4;stroke-dasharray:4, 2, 1, 2;stroke-dashoffset:0;stroke-opacity:1"
     d="M 289.77498,458.26903 C 286.59873,464.62155 303.97964,458.26903 311.08197,458.26903 C 316.48884,458.26903 319.28182,455.07298 325.99686,455.07298 C 334.69606,455.07298 335.04619,458.80784 340.91175,452.94229 C 346.2522,447.60183 344.3502,450.81159 354.76129,450.81159 C 361.34596,450.81159 361.54767,454.67869 366.48013,449.74624 C 372.48534,443.74103 364.577,442.76458 375.00292,440.15809 C 380.60429,438.75775 379.26432,435.03844 379.26432,428.43925 C 379.26432,419.06345 390.98316,429.51549 390.98316,419.91646 C 390.98316,412.57928 391.56463,411.63561 396.30991,409.26297 C 403.66167,405.58709 407.96613,405.00157 416.55154,405.00157 C 421.87056,405.00157 427.23967,412.47287 432.53178,414.58971 C 437.3468,416.51572 444.36768,413.4951 448.51202,412.45902 C 453.15873,411.29734 455.22396,401.56564 459.16551,398.60948 C 463.26862,395.53214 469.24695,396.47878 475.14575,396.47878 C 480.17996,396.47878 486.43474,394.34808 493.25668,394.34808 C 502.51943,394.34808 497.54471,388.06252 496.45273,383.69459 C 495.29794,379.07543 489.44006,374.55122 486.86459,371.97575 C 477.87278,362.98394 494.49599,363.45295 498.58343,363.45295 C 499.87433,363.45295 493.47542,351.10624 493.25668,350.66876 C 490.441,345.03739 495.88928,339.51337 497.51808,337.88457 C 503.03793,332.36472 508.17157,343.83463 508.17157,331.49248 C 508.17157,328.71893 513.49832,327.87393 513.49832,325.10038"
     id="path7229" />
  <path
     style="opacity:0.9958678;fill:none;fill-opacity:1;stroke:black;stroke-width:2;stroke-linecap:butt;stroke-linejoin:miter;stroke-miterlimit:4;stroke-dasharray:4, 2, 1, 2;stroke-dashoffset:0;stroke-opacity:1"
     d="M 366.48013,452.94229 C 366.48013,446.51085 371.48705,466.36612 368.61083,472.11857 C 365.77142,477.79738 371.99216,479.65013 377.13362,481.70671 C 378.55409,482.41694 379.97455,483.12718 381.39502,483.83741 C 386.86196,486.57089 389.58283,488.49419 392.04851,493.42556 C 393.0428,495.41413 389.17367,498.97177 389.91781,501.94835 C 390.31145,503.5229 392.412,512.99045 393.11386,515.79789 C 394.16519,520.00321 400.70222,520.1902 403.76735,523.25533 C 406.52951,526.01749 402.81994,531.18453 403.76735,534.97417 C 405.28889,541.06035 407.07069,543.28239 404.8327,547.75837 C 402.35939,552.70499 404.34056,556.28116 397.37525,556.28116 C 394.50874,556.28116 387.71572,554.93162 384.59106,554.15046 C 378.55137,552.64054 376.80135,551.50422 371.80687,547.75837 C 366.47016,543.75583 366.651,542.43162 359.02268,542.43162 C 355.11426,542.43162 354.91381,551.25945 350.49989,542.43162 C 348.73893,538.90971 345.55495,544.46687 340.91175,545.62767 C 334.94193,547.12012 332.30699,546.44717 327.06221,547.75837 C 326.20264,547.97326 322.75432,545.88238 321.73546,545.62767"
     id="path7231"
     sodipodi:nodetypes="css" />
  <path
     style="opacity:0.9958678;fill:none;fill-opacity:1;stroke:black;stroke-width:2;stroke-linecap:butt;stroke-linejoin:miter;stroke-miterlimit:4;stroke-dasharray:4, 2, 1, 2;stroke-dashoffset:0;stroke-opacity:1"
     d="M 470.88435,395.41343 C 470.88435,404.58733 470.64156,411.87924 466.62295,419.91646 C 464.15772,424.84693 465.5576,434.25744 465.5576,440.15809 C 465.5576,447.26042 465.5576,454.36275 465.5576,461.46508 C 465.5576,467.99261 464.66047,478.90317 463.42691,483.83741 C 461.88792,489.99336 454.16237,492.58929 455.96946,499.81765 C 457.78643,507.08552 458.10016,513.38909 458.10016,521.12463 C 458.10016,521.34427 451.82676,528.28534 451.70806,528.58208"
     id="path7233" />
  <path
     style="opacity:0.9958678;fill:none;fill-opacity:1;stroke:black;stroke-width:2;stroke-linecap:butt;stroke-linejoin:miter;stroke-miterlimit:4;stroke-dasharray:4, 2, 1, 2;stroke-dashoffset:0;stroke-opacity:1"
     d="M 499.64878,394.34808 C 499.64878,398.90091 511.28478,402.35891 513.49832,401.80552 C 524.32819,399.09806 527.26938,396.43954 540.13205,402.87087 C 544.14663,404.87816 546.52414,395.55528 546.52414,408.19762 C 546.52414,413.96977 552.91624,412.27858 552.91624,419.91646 C 552.91624,426.1183 566.64181,419.79249 571.02718,424.17786 C 574.74511,427.89579 581.31323,423.8289 582.74602,423.11251"
     id="path7235" />
  <path
     style="opacity:0.9958678;fill:none;fill-opacity:1;stroke:black;stroke-width:2;stroke-linecap:butt;stroke-linejoin:miter;stroke-miterlimit:4;stroke-dasharray:4, 2, 1, 2;stroke-dashoffset:0;stroke-opacity:1"
     d="M 536.936,529.64743 C 536.936,528.36535 537.17599,526.58598 536.936,525.38603 C 536.03,520.85601 537.22281,514.8144 535.87065,509.40579 C 535.51554,507.98533 535.16042,506.56486 534.8053,505.1444 C 533.28557,499.06545 529.47856,501.69058 529.47856,494.4909 C 529.47856,488.45485 528.09034,481.07185 531.60926,476.37997 C 535.53989,471.13912 533.95959,464.72339 538.00135,459.33438 C 543.06736,452.5797 542.26213,447.61678 545.4588,441.22344 C 548.67451,434.79201 562.26213,428.197 557.17764,423.11251 C 558.15514,428.00001 567.63444,426.4069 572.09253,424.17786 C 574.62146,422.91339 581.19323,416.66009 582.74602,414.58971 C 585.91253,410.3677 586.73214,409.26297 593.39951,409.26297 C 599.08137,409.26297 604.76323,409.26297 610.4451,409.26297 C 615.78777,409.26297 614.6644,416.7625 621.09859,410.32832 C 623.25868,408.16823 625.50121,415.65506 628.55603,415.65506 C 637.98251,415.65506 627.69056,403.93622 637.07883,403.93622 C 637.60204,403.93622 646.39926,407.59802 648.79767,408.19762 C 651.55378,408.88665 649.4867,402.43093 648.79767,399.67482"
     id="path7237" />
  <path
     style="opacity:0.9958678;fill:none;fill-opacity:1;stroke:black;stroke-width:2;stroke-linecap:butt;stroke-linejoin:miter;stroke-miterlimit:4;stroke-dasharray:4, 2, 1, 2;stroke-dashoffset:0;stroke-opacity:1"
     d="M 571.02718,425.24321 C 577.00288,426.73713 582.74602,446.65258 582.74602,455.07298 C 582.74602,469.7607 580.99097,470.53595 590.20346,477.44532 C 594.85704,480.9355 594.30293,493.8432 595.53021,498.7523 C 596.92032,504.31276 600.85695,505.43685 600.85695,511.53649 C 600.85695,512.95696 600.85695,514.37742 600.85695,515.79789"
     id="path7239" />
  <path
     style="opacity:0.9958678;fill:none;fill-opacity:1;stroke:black;stroke-width:2;stroke-linecap:butt;stroke-linejoin:miter;stroke-miterlimit:4;stroke-dasharray:4, 2, 1, 2;stroke-dashoffset:0;stroke-opacity:1"
     d="M 649.86302,407.13227 C 649.86302,412.48196 655.54339,423.47508 654.12441,430.56995 C 652.79718,437.20614 651.01097,440.71142 657.32046,442.28879 C 662.19262,443.50683 651.6386,453.65252 655.18976,457.20368 C 659.79126,461.80518 667.97395,451.40612 667.97395,461.46508 C 667.97395,465.24137 672.12114,469.39809 675.4314,471.05322 C 679.42247,473.04876 682.34902,474.38065 686.08489,475.31462"
     id="path7241" />
  <path
     style="opacity:0.9958678;fill:none;fill-opacity:1;stroke:black;stroke-width:2;stroke-linecap:butt;stroke-linejoin:miter;stroke-miterlimit:4;stroke-dasharray:4, 2, 1, 2;stroke-dashoffset:0;stroke-opacity:1"
     d="M 449.57737,305.92409 C 453.89754,308.08418 443.21466,313.32276 441.05457,317.64294 C 439.93777,319.87654 425.64066,320.83898 422.94364,320.83898 C 419.76738,320.83898 421.8585,329.36178 418.68224,329.36178 C 414.71192,329.36178 417.51449,337.22884 416.55154,341.08062 C 415.42856,345.57253 407.61079,337.3273 404.8327,333.62317 C 404.00654,332.52163 400.89046,344.06541 400.5713,345.34202 C 398.49309,353.65488 402.09111,353.86481 392.04851,353.86481 C 385.84667,353.86481 393.53636,366.42865 396.30991,371.97575 C 398.09079,375.53751 409.65179,374.23336 397.37525,377.30249 C 392.40453,378.54517 387.66595,379.45742 382.46037,380.49854 C 372.32504,382.5256 387.11617,389.8183 387.78711,390.08668 C 390.8722,391.32072 390.98316,401.2285 390.98316,403.93622 C 390.98316,406.06692 390.98316,408.19762 390.98316,410.32832"
     id="path7243" />
  <path
     style="opacity:0.9958678;fill:none;fill-opacity:1;stroke:black;stroke-width:2;stroke-linecap:butt;stroke-linejoin:miter;stroke-miterlimit:4;stroke-dasharray:4, 2, 1, 2;stroke-dashoffset:0;stroke-opacity:1"
     d="M 417.61689,267.57152 C 417.61689,268.5164 404.32025,270.09667 401.63665,270.76757 C 397.14364,271.89082 396.03149,273.96362 388.85246,273.96362 C 382.97496,273.96362 379.65514,265.93877 382.46037,277.15967 C 385.20213,288.12671 375.14296,279.57044 373.93757,277.15967 C 370.62337,270.53126 377.74754,266.39332 369.67618,264.37548 C 361.10114,262.23172 360.33535,263.43378 353.69594,260.11408 C 349.72188,258.12705 342.40026,261.33997 338.78105,262.24478 C 330.92948,264.20767 328.64117,271.43818 322.80081,272.89827 C 316.71939,274.41862 323.61755,281.29676 315.34337,277.15967 C 308.66934,273.82265 307.88592,270.29897 307.88592,263.31013 C 307.88592,255.528 306.36308,255.43438 300.42848,256.91803 C 296.17724,257.98084 304.07312,267.26315 294.03638,262.24478 C 290.3959,260.42453 290.89173,261.19656 287.64429,260.11408"
     id="path7245" />
  <path
     style="opacity:0.9958678;fill:none;fill-opacity:1;stroke:black;stroke-width:2;stroke-linecap:butt;stroke-linejoin:miter;stroke-miterlimit:4;stroke-dasharray:4, 2, 1, 2;stroke-dashoffset:0;stroke-opacity:1"
     d="M 285.51359,295.2706 C 280.11395,292.57078 297.58755,295.2706 303.62452,295.2706 C 306.92529,295.2706 311.30751,299.75754 313.21267,301.6627 C 318.23199,306.68202 315.49703,307.02786 323.86616,309.12014 C 328.68935,310.32594 322.66036,319.21184 323.86616,324.03503 C 324.38873,326.1253 321.36358,326.8592 325.99686,331.49248 C 331.55243,337.04805 329.2942,336.84455 337.7157,338.94992 C 342.98669,340.26767 342.3514,331.17574 347.30384,341.08062 C 349.05846,344.58985 347.30384,354.05456 347.30384,358.12621 C 347.30384,361.24727 352.73357,365.99556 353.69594,369.84505 C 354.05105,371.26551 354.40617,372.68598 354.76129,374.10644 C 356.68778,381.81242 360.95449,385.02972 362.21873,390.08668 C 362.49868,391.20648 360.47479,401.22186 361.15338,403.93622 C 361.37056,404.80492 369.60224,408.04975 370.74152,410.32832 C 370.79378,410.43283 380.04808,418.10724 382.46037,419.91646 C 385.03672,421.84872 382.46037,421.59922 382.46037,422.04716"
     id="path7247" />
  <path
     style="opacity:0.9958678;fill:gray;fill-opacity:1;stroke:#fa0000;stroke-width:2;stroke-linecap:butt;stroke-linejoin:miter;stroke-miterlimit:4;stroke-dasharray:none;stroke-dashoffset:0;stroke-opacity:1"
     d="M 256.74916,86.462157 C 261.40066,88.029242 265.87105,91.788904 272.7294,91.788904 C 278.02405,91.788904 268.8,85.316539 287.64429,92.854253 C 291.54844,94.415914 300.01798,87.938 301.49383,86.462157 C 305.43442,82.521565 301.22825,74.212154 300.42848,72.612618 C 298.30123,68.358116 291.10908,68.284035 286.57894,69.41657 C 280.83474,70.852619 277.12469,74.443504 271.66405,75.808665 C 265.17697,77.430434 263.69174,73.677967 257.81451,73.677967 C 254.31702,73.677967 251.35462,76.375238 248.22637,77.939364 C 244.63284,79.736126 253.30402,84.395076 256.74916,86.462157 z "
     id="path8138" />
  <path
     style="opacity:0.9958678;fill:gray;fill-opacity:1;stroke:#f60000;stroke-width:2;stroke-linecap:butt;stroke-linejoin:miter;stroke-miterlimit:4;stroke-dasharray:none;stroke-dashoffset:0;stroke-opacity:1"
     d="M 335.585,338.94992 C 331.31538,334.6803 327.89653,343.26907 323.86616,344.27667 C 315.55113,346.35542 324.59939,352.28403 328.12756,354.93016 C 330.42402,356.65251 341.04918,354.93016 344.10779,354.93016 C 350.40677,354.93016 347.38548,349.92997 346.23849,345.34202 C 344.81872,339.66291 341.54897,340.14271 335.585,338.94992 z "
     id="path8142" />
  <path
     sodipodi:type="arc"
     style="opacity:0.9958678;fill:black;fill-opacity:1;stroke:none;stroke-width:2;stroke-linecap:butt;stroke-linejoin:miter;stroke-miterlimit:4;stroke-dasharray:4, 2, 1, 2;stroke-dashoffset:0;stroke-opacity:1"
     id="path8148"
     sodipodi:cx="384.59106"
     sodipodi:cy="223.89221"
     sodipodi:rx="5.326746"
     sodipodi:ry="5.326746"
     d="M 389.91781 223.89221 A 5.326746 5.326746 0 1 1  379.26432,223.89221 A 5.326746 5.326746 0 1 1  389.91781 223.89221 z"
     transform="translate(-70.31305,136.3647)" />
  <path
     sodipodi:type="arc"
     style="opacity:0.9958678;fill:black;fill-opacity:1;stroke:none;stroke-width:2;stroke-linecap:butt;stroke-linejoin:miter;stroke-miterlimit:4;stroke-dasharray:4, 2, 1, 2;stroke-dashoffset:0;stroke-opacity:1"
     id="path8150"
     sodipodi:cx="384.59106"
     sodipodi:cy="223.89221"
     sodipodi:rx="5.326746"
     sodipodi:ry="5.326746"
     d="M 389.91781 223.89221 A 5.326746 5.326746 0 1 1  379.26432,223.89221 A 5.326746 5.326746 0 1 1  389.91781 223.89221 z"
     transform="translate(7.457444,-5.326752)" />
  <path
     sodipodi:type="arc"
     style="opacity:0.9958678;fill:black;fill-opacity:1;stroke:none;stroke-width:2;stroke-linecap:butt;stroke-linejoin:miter;stroke-miterlimit:4;stroke-dasharray:4, 2, 1, 2;stroke-dashoffset:0;stroke-opacity:1"
     id="path8154"
     sodipodi:cx="384.59106"
     sodipodi:cy="223.89221"
     sodipodi:rx="5.326746"
     sodipodi:ry="5.326746"
     d="M 389.91781 223.89221 A 5.326746 5.326746 0 1 1  379.26432,223.89221 A 5.326746 5.326746 0 1 1  389.91781 223.89221 z"
     transform="translate(-167.2598,226.9194)" />
  <path
     sodipodi:type="arc"
     style="opacity:0.9958678;fill:black;fill-opacity:1;stroke:none;stroke-width:2;stroke-linecap:butt;stroke-linejoin:miter;stroke-miterlimit:4;stroke-dasharray:4, 2, 1, 2;stroke-dashoffset:0;stroke-opacity:1"
     id="path8156"
     sodipodi:cx="384.59106"
     sodipodi:cy="223.89221"
     sodipodi:rx="5.326746"
     sodipodi:ry="5.326746"
     d="M 389.91781 223.89221 A 5.326746 5.326746 0 1 1  379.26432,223.89221 A 5.326746 5.326746 0 1 1  389.91781 223.89221 z"
     transform="translate(-75.6398,-158.737)" />
  <path
     sodipodi:type="arc"
     style="opacity:0.9958678;fill:black;fill-opacity:1;stroke:none;stroke-width:2;stroke-linecap:butt;stroke-linejoin:miter;stroke-miterlimit:4;stroke-dasharray:4, 2, 1, 2;stroke-dashoffset:0;stroke-opacity:1"
     id="path8158"
     sodipodi:cx="384.59106"
     sodipodi:cy="223.89221"
     sodipodi:rx="5.326746"
     sodipodi:ry="5.326746"
     d="M 389.91781 223.89221 A 5.326746 5.326746 0 1 1  379.26432,223.89221 A 5.326746 5.326746 0 1 1  389.91781 223.89221 z"
     transform="translate(84.16259,-67.11701)" />
  <path
     sodipodi:type="arc"
     style="opacity:0.9958678;fill:black;fill-opacity:1;stroke:none;stroke-width:2;stroke-linecap:butt;stroke-linejoin:miter;stroke-miterlimit:4;stroke-dasharray:4, 2, 1, 2;stroke-dashoffset:0;stroke-opacity:1"
     id="path8160"
     sodipodi:cx="384.59106"
     sodipodi:cy="223.89221"
     sodipodi:rx="5.326746"
     sodipodi:ry="5.326746"
     d="M 389.91781 223.89221 A 5.326746 5.326746 0 1 1  379.26432,223.89221 A 5.326746 5.326746 0 1 1  389.91781 223.89221 z"
     transform="translate(208.8084,172.5866)" />
  <path
     sodipodi:type="arc"
     style="opacity:0.9958678;fill:black;fill-opacity:1;stroke:none;stroke-width:2;stroke-linecap:butt;stroke-linejoin:miter;stroke-miterlimit:4;stroke-dasharray:4, 2, 1, 2;stroke-dashoffset:0;stroke-opacity:1"
     id="path8162"
     sodipodi:cx="384.59106"
     sodipodi:cy="223.89221"
     sodipodi:rx="5.326746"
     sodipodi:ry="5.326746"
     d="M 389.91781 223.89221 A 5.326746 5.326746 0 1 1  379.26432,223.89221 A 5.326746 5.326746 0 1 1  389.91781 223.89221 z"
     transform="translate(60.7249,143.8221)" />
  <path
     sodipodi:type="arc"
     style="opacity:0.9958678;fill:black;fill-opacity:1;stroke:none;stroke-width:2;stroke-linecap:butt;stroke-linejoin:miter;stroke-miterlimit:4;stroke-dasharray:4, 2, 1, 2;stroke-dashoffset:0;stroke-opacity:1"
     id="path8164"
     sodipodi:cx="384.59106"
     sodipodi:cy="223.89221"
     sodipodi:rx="5.326746"
     sodipodi:ry="5.326746"
     d="M 389.91781 223.89221 A 5.326746 5.326746 0 1 1  379.26432,223.89221 A 5.326746 5.326746 0 1 1  389.91781 223.89221 z"
     transform="translate(-245.0303,143.8221)" />
  <path
     sodipodi:type="arc"
     style="opacity:0.9958678;fill:black;fill-opacity:1;stroke:none;stroke-width:2;stroke-linecap:butt;stroke-linejoin:miter;stroke-miterlimit:4;stroke-dasharray:4, 2, 1, 2;stroke-dashoffset:0;stroke-opacity:1"
     id="path8166"
     sodipodi:cx="384.59106"
     sodipodi:cy="223.89221"
     sodipodi:rx="5.326746"
     sodipodi:ry="5.326746"
     d="M 389.91781 223.89221 A 5.326746 5.326746 0 1 1  379.26432,223.89221 A 5.326746 5.326746 0 1 1  389.91781 223.89221 z"
     transform="translate(-172.5866,-42.61397)" />
  <path
     sodipodi:type="arc"
     style="opacity:0.9958678;fill:black;fill-opacity:1;stroke:none;stroke-width:2;stroke-linecap:butt;stroke-linejoin:miter;stroke-miterlimit:4;stroke-dasharray:4, 2, 1, 2;stroke-dashoffset:0;stroke-opacity:1"
     id="path8168"
     sodipodi:cx="384.59106"
     sodipodi:cy="223.89221"
     sodipodi:rx="5.326746"
     sodipodi:ry="5.326746"
     d="M 389.91781 223.89221 A 5.326746 5.326746 0 1 1  379.26432,223.89221 A 5.326746 5.326746 0 1 1  389.91781 223.89221 z"
     transform="translate(90.55468,92.68538)" />
  <text
     xml:space="preserve"
     style="font-size:18px;font-style:normal;font-variant:normal;font-weight:normal;font-stretch:normal;text-align:start;line-height:125%;writing-mode:lr-tb;text-anchor:start;fill:#ffe680;fill-opacity:1;stroke:none;stroke-width:1px;stroke-linecap:butt;stroke-linejoin:miter;stroke-opacity:1;font-family:Arial"
     x="67.117004"
     y="358.12619"
     id="text8170"
     sodipodi:linespacing="125%"><tspan
       sodipodi:role="line"
       id="tspan2320"
       x="67.117004"
       y="358.12619">Timişoara</tspan></text>
  <text
     xml:space="preserve"
     style="font-size:18px;font-style:normal;font-variant:normal;font-weight:normal;font-stretch:normal;text-align:start;line-height:125%;writing-mode:lr-tb;text-anchor:start;fill:#800000;fill-opacity:1;stroke:none;stroke-width:1px;stroke-linecap:butt;stroke-linejoin:miter;stroke-opacity:1;font-family:Arial"
     x="226.91937"
     y="444.41946"
     id="text8174"
     sodipodi:linespacing="125%"><tspan
       sodipodi:role="line"
       id="tspan2322"
       x="226.91937"
       y="444.41946">Reşiţa</tspan></text>
  <text
     xml:space="preserve"
     style="font-size:18px;font-style:normal;font-weight:normal;fill:maroon;fill-opacity:1;stroke:none;stroke-width:1px;stroke-linecap:butt;stroke-linejoin:miter;stroke-opacity:1;font-family:Arial"
     x="274.86011"
     y="382.62924"
     id="text8178"><tspan
       sodipodi:role="line"
       id="tspan8180"
       x="274.86011"
       y="382.62924">Deva</tspan></text>
  <text
     xml:space="preserve"
     style="font-size:18px;font-style:normal;font-weight:normal;fill:#00ffff;fill-opacity:1;stroke:none;stroke-width:1px;stroke-linecap:butt;stroke-linejoin:miter;stroke-opacity:1;font-family:Arial;font-stretch:normal;font-variant:normal;text-anchor:start;text-align:start;writing-mode:lr;line-height:125%"
     x="426.13971"
     y="361.32224"
     id="text8182"
     sodipodi:linespacing="125%"><tspan
       sodipodi:role="line"
       id="tspan2326"
       x="426.13971"
       y="361.32224">Sibiu</tspan></text>
  <text
     xml:space="preserve"
     style="font-size:18px;font-style:normal;font-variant:normal;font-weight:normal;font-stretch:normal;text-align:start;line-height:125%;writing-mode:lr-tb;text-anchor:start;fill:#00ffff;fill-opacity:1;stroke:none;stroke-width:1px;stroke-linecap:butt;stroke-linejoin:miter;stroke-opacity:1;font-family:Arial"
     x="424.00897"
     y="305.9241"
     id="text8186"
     sodipodi:linespacing="125%"><tspan
       sodipodi:role="line"
       id="tspan2304"
       x="424.00897"
       y="305.9241">Mediaş</tspan></text>
  <text
     xml:space="preserve"
     style="font-size:18px;font-style:normal;font-variant:normal;font-weight:normal;font-stretch:normal;text-align:start;line-height:125%;writing-mode:lr-tb;text-anchor:start;fill:#800000;fill-opacity:1;stroke:none;stroke-width:1px;stroke-linecap:butt;stroke-linejoin:miter;stroke-opacity:1;font-family:Arial"
     x="333.45432"
     y="211.10802"
     id="text8190"
     sodipodi:linespacing="125%"><tspan
       sodipodi:role="line"
       id="tspan2332"
       x="333.45432"
       y="211.10802">Cluj-Napoca</tspan></text>
  <text
     xml:space="preserve"
     style="font-size:18px;font-style:normal;font-variant:normal;font-weight:normal;font-stretch:normal;text-align:start;line-height:125%;writing-mode:lr-tb;text-anchor:start;fill:#800000;fill-opacity:1;stroke:none;stroke-width:1px;stroke-linecap:butt;stroke-linejoin:miter;stroke-opacity:1;font-family:Arial"
     x="481.53784"
     y="174.88614"
     id="text8194"
     sodipodi:linespacing="125%"><tspan
       sodipodi:role="line"
       id="tspan2324"
       x="481.53784"
       y="174.88614">Bistriţa</tspan></text>
  <text
     xml:space="preserve"
     style="font-size:18px;font-style:normal;font-variant:normal;font-weight:normal;font-stretch:normal;text-align:start;line-height:125%;writing-mode:lr-tb;text-anchor:start;fill:#800000;fill-opacity:1;stroke:none;stroke-width:1px;stroke-linecap:butt;stroke-linejoin:miter;stroke-opacity:1;font-family:Arial"
     x="198.15495"
     y="171.69009"
     id="text8198"
     sodipodi:linespacing="125%"><tspan
       sodipodi:role="line"
       id="tspan2318"
       x="198.15495"
       y="171.69009">Oradea</tspan></text>
  <text
     xml:space="preserve"
     style="font-size:18px;font-style:normal;font-variant:normal;font-weight:normal;font-stretch:normal;text-align:start;line-height:125%;writing-mode:lr-tb;text-anchor:start;fill:#00ffff;fill-opacity:1;stroke:none;stroke-width:1px;stroke-linecap:butt;stroke-linejoin:miter;stroke-opacity:1;font-family:Arial"
     x="563.5697"
     y="385.82529"
     id="text8202"
     sodipodi:linespacing="125%"><tspan
       sodipodi:role="line"
       id="tspan2328"
       x="563.5697"
       y="385.82529">Braşov</tspan></text>
  <text
     xml:space="preserve"
     style="font-size:18px;font-style:normal;font-weight:normal;fill:maroon;fill-opacity:1;stroke:none;stroke-width:1px;stroke-linecap:butt;stroke-linejoin:miter;stroke-opacity:1;font-family:Arial;font-stretch:normal;font-variant:normal;text-anchor:start;text-align:start;writing-mode:lr;line-height:125%"
     x="300.4285"
     y="56.632381"
     id="text8206"
     sodipodi:linespacing="125%"><tspan
       sodipodi:role="line"
       id="tspan2316"
       x="300.4285"
       y="56.632381">Satu Mare</tspan></text>
  <path
     sodipodi:type="arc"
     style="opacity:0.9958678;fill:black;fill-opacity:1;stroke:none;stroke-width:2;stroke-linecap:butt;stroke-linejoin:miter;stroke-miterlimit:4;stroke-dasharray:4, 2, 1, 2;stroke-dashoffset:0;stroke-opacity:1"
     id="path8210"
     sodipodi:cx="384.59106"
     sodipodi:cy="223.89221"
     sodipodi:rx="5.326746"
     sodipodi:ry="5.326746"
     d="M 389.91781 223.89221 A 5.326746 5.326746 0 1 1  379.26432,223.89221 A 5.326746 5.326746 0 1 1  389.91781 223.89221 z"
     transform="translate(137.43,82.03188)" />
  <text
     xml:space="preserve"
     style="font-size:18px;font-style:normal;font-variant:normal;font-weight:normal;font-stretch:normal;text-align:start;line-height:125%;writing-mode:lr-tb;text-anchor:start;fill:#800000;fill-opacity:1;stroke:none;stroke-width:1px;stroke-linecap:butt;stroke-linejoin:miter;stroke-opacity:1;font-family:Arial"
     x="526.28253"
     y="284.61713"
     id="text8212"
     sodipodi:linespacing="125%"><tspan
       sodipodi:role="line"
       id="tspan2334"
       x="526.28253"
       y="284.61713">Sighişoara</tspan></text>
  <path
     sodipodi:type="arc"
     style="opacity:0.9958678;fill:black;fill-opacity:1;stroke:none;stroke-width:2;stroke-linecap:butt;stroke-linejoin:miter;stroke-miterlimit:4;stroke-dasharray:4, 2, 1, 2;stroke-dashoffset:0;stroke-opacity:1"
     id="path8216"
     sodipodi:cx="384.59106"
     sodipodi:cy="223.89221"
     sodipodi:rx="5.326746"
     sodipodi:ry="5.326746"
     d="M 389.91781 223.89221 A 5.326746 5.326746 0 1 1  379.26432,223.89221 A 5.326746 5.326746 0 1 1  389.91781 223.89221 z"
     transform="translate(-50.49741,123.9441)" />
  <text
     xml:space="preserve"
     style="font-size:18px;font-style:normal;font-variant:normal;font-weight:normal;font-stretch:normal;text-align:start;line-height:125%;writing-mode:lr-tb;text-anchor:start;fill:#800000;fill-opacity:1;stroke:none;stroke-width:1px;stroke-linecap:butt;stroke-linejoin:miter;stroke-opacity:1;font-family:Arial"
     x="267.40265"
     y="341.0806"
     id="text8218"
     sodipodi:linespacing="125%"><tspan
       sodipodi:role="line"
       id="tspan2330"
       x="267.40265"
       y="341.0806">Orăştie</tspan></text>
  <rect
     style="opacity:0.9958678;fill:#ffffff;fill-opacity:1;stroke:#fe0000;stroke-width:1.93360007;stroke-linecap:butt;stroke-linejoin:miter;stroke-miterlimit:4;stroke-dasharray:none;stroke-dashoffset:0;stroke-opacity:1"
     id="rect14420"
     width="356.9584"
     height="46.941761"
     x="330.22507"
     y="510.43796" />
  <text
     xml:space="preserve"
     style="font-size:32px;font-style:normal;font-weight:normal;fill:#800000;fill-opacity:1;stroke:none;stroke-width:1px;stroke-linecap:butt;stroke-linejoin:miter;stroke-opacity:1;font-family:Arial"
     x="261.01056"
     y="269.70221"
     id="text14422"><tspan
       sodipodi:role="line"
       id="tspan14424"
       x="261.01056"
       y="269.70221">TRANSILVANIA</tspan></text>
  <rect
     style="opacity:0.9958678;fill:#666666;fill-opacity:1;stroke:#fe0000;stroke-width:2;stroke-linecap:butt;stroke-linejoin:miter;stroke-miterlimit:4;stroke-dasharray:none;stroke-dashoffset:0;stroke-opacity:1"
     id="rect14426"
     width="27.69908"
     height="17.045588"
     x="344.10782"
     y="525.38605" />
  <text
     xml:space="preserve"
     style="font-size:18px;font-style:normal;font-weight:normal;fill:#000000;fill-opacity:1;stroke:none;stroke-width:1px;stroke-linecap:butt;stroke-linejoin:miter;stroke-opacity:1;font-family:Arial;font-stretch:normal;font-variant:normal;text-anchor:start;text-align:start;writing-mode:lr;line-height:125%"
     x="389.91782"
     y="539.2356"
     id="text14428"
     sodipodi:linespacing="125%"><tspan
       sodipodi:role="line"
       id="tspan2336"
       x="389.91782"
       y="539.2356">Germani în Transilvania (1918)</tspan></text>
  <text
     xml:space="preserve"
     style="font-size:17.99998474px;font-style:italic;font-variant:normal;font-weight:normal;font-stretch:normal;text-align:start;line-height:125%;writing-mode:lr-tb;text-anchor:start;fill:#00ff00;fill-opacity:1;stroke:none;stroke-width:1px;stroke-linecap:butt;stroke-linejoin:miter;stroke-opacity:1;font-family:Arial"
     x="357.28299"
     y="439.53113"
     id="text14455"
     transform="matrix(0.9721014,-0.2345611,0.2345611,0.9721014,0,0)"
     sodipodi:linespacing="125%"><tspan
       sodipodi:role="line"
       id="tspan2306"
       x="357.28299"
       y="439.53113">saşi</tspan></text>
  <text
     xml:space="preserve"
     style="font-size:17.99997658px;font-style:italic;font-weight:normal;fill:#00ff00;fill-opacity:1;stroke:none;stroke-width:1px;stroke-linecap:butt;stroke-linejoin:miter;stroke-opacity:1;font-family:Arial;font-stretch:normal;font-variant:normal;text-anchor:start;text-align:start;writing-mode:lr;line-height:125%"
     x="372.32367"
     y="298.84601"
     id="text14459"
     transform="matrix(0.9430694,-0.3325961,0.3325961,0.9430694,0,0)"
     sodipodi:linespacing="125%"><tspan
       sodipodi:role="line"
       id="tspan2310"
       x="372.32367"
       y="298.84601">saşi</tspan></text>
  <text
     xml:space="preserve"
     style="font-size:18.00000769px;font-style:italic;font-weight:normal;fill:#00ff00;fill-opacity:1;stroke:none;stroke-width:1px;stroke-linecap:butt;stroke-linejoin:miter;stroke-opacity:1;font-family:Arial;font-stretch:normal;font-variant:normal;text-anchor:start;text-align:start;writing-mode:lr;line-height:125%"
     x="596.94031"
     y="-207.97031"
     id="text14463"
     transform="matrix(0.639235,0.769012,-0.769012,0.639235,0,0)"
     sodipodi:linespacing="125%"><tspan
       sodipodi:role="line"
       id="tspan2308"
       x="596.94031"
       y="-207.97031">saşi</tspan></text>
  <text
     xml:space="preserve"
     style="font-size:18px;font-style:normal;font-variant:normal;font-weight:normal;font-stretch:normal;text-align:start;line-height:125%;writing-mode:lr-tb;text-anchor:start;fill:#00ffff;fill-opacity:1;stroke:none;stroke-width:1px;stroke-linecap:butt;stroke-linejoin:miter;stroke-opacity:1;font-family:Arial"
     x="99.077477"
     y="326.16571"
     id="text14467"
     sodipodi:linespacing="125%"><tspan
       sodipodi:role="line"
       id="tspan2312"
       x="99.077477"
       y="326.16571">şvabi</tspan></text>
  <text
     xml:space="preserve"
     style="font-size:17.99999428px;font-style:normal;font-variant:normal;font-weight:normal;font-stretch:normal;text-align:start;line-height:125%;writing-mode:lr-tb;text-anchor:start;fill:#00ffff;fill-opacity:1;stroke:none;stroke-width:1px;stroke-linecap:butt;stroke-linejoin:miter;stroke-opacity:1;font-family:Arial"
     x="226.97008"
     y="358.95535"
     id="text14471"
     transform="matrix(0.9509023,0.3094911,-0.3094911,0.9509023,0,0)"
     sodipodi:linespacing="125%"><tspan
       sodipodi:role="line"
       id="tspan2314"
       x="226.97008"
       y="358.95535">şvabi</tspan></text>
</svg>
