<?xml version="1.0" encoding="UTF-8" standalone="no"?>
<!-- Generator: Adobe Illustrator 18.0.0, SVG Export Plug-In . SVG Version: 6.00 Build 0)  -->

<svg
   xmlns:dc="http://purl.org/dc/elements/1.1/"
   xmlns:cc="http://creativecommons.org/ns#"
   xmlns:rdf="http://www.w3.org/1999/02/22-rdf-syntax-ns#"
   xmlns:svg="http://www.w3.org/2000/svg"
   xmlns="http://www.w3.org/2000/svg"
   xmlns:sodipodi="http://sodipodi.sourceforge.net/DTD/sodipodi-0.dtd"
   xmlns:inkscape="http://www.inkscape.org/namespaces/inkscape"
   version="1.1"
   id="Layer_1"
   x="0px"
   y="0px"
   viewBox="0 3.7 673 665.3"
   enable-background="new 0 3.7 673 665.3"
   xml:space="preserve"
   inkscape:version="0.92.1 r15371"
   sodipodi:docname="Maps_of_the_Armenian_Empire_of_Tigranes-pt.svg"><metadata
     id="metadata435"><rdf:RDF><cc:Work
         rdf:about=""><dc:format>image/svg+xml</dc:format><dc:type
           rdf:resource="http://purl.org/dc/dcmitype/StillImage" /></cc:Work></rdf:RDF></metadata><defs
     id="defs433" /><sodipodi:namedview
     pagecolor="#ffffff"
     bordercolor="#666666"
     borderopacity="1"
     objecttolerance="10"
     gridtolerance="10"
     guidetolerance="10"
     inkscape:pageopacity="0"
     inkscape:pageshadow="2"
     inkscape:window-width="1366"
     inkscape:window-height="705"
     id="namedview431"
     showgrid="false"
     inkscape:zoom="1.00332"
     inkscape:cx="291.69202"
     inkscape:cy="213.91838"
     inkscape:window-x="-8"
     inkscape:window-y="-8"
     inkscape:window-maximized="1"
     inkscape:current-layer="Layer_1" /><rect
     y="0"
     fill="#FFFDDD"
     stroke="#231F20"
     stroke-miterlimit="10"
     width="674.7"
     height="669"
     id="rect3"
     style="fill:#e0e0e0;fill-opacity:1" /><path
     fill="none"
     stroke="#231F20"
     stroke-miterlimit="10"
     d="M159,139.7l-8.2-1.7l-8-2.8l-2.3-6.1l2.5-9.9l9-9.2L116.4,81  L94.2,65.7c0,0-9.3-10.2-10.3-10.2S62,54.7,62,54.7l-37.3,2.5L6.2,56.7L-1.7,59l-1.7,13.3c0.1,7.5,0.3,15.1,0.4,22.6l0.2,8.2l0,0.6  c0,2.8,0.1,5.5,0.1,8.3l7.8,7.2l3.9,6.1l3.4,5.1l6,8l1.4,4.9v6.1l-0.8,7.3l-2.8,4.8l-4.3,6.4l0.5,4l1.3,4.6l0.1,5.3l-0.5,3l2.9,4.2  l25.3,1.5H67l13.8-6l7.7-0.5l9,14.6l14.5,10.7l10.9,6.2l12.3,5.2l4.8-1l2-5.3l2-8.2l-2.9-5.3l-8.3-10l-5-6l-1.3-4.2l4.7-5.6l6.8-8.9  l1.8-4.5l3.2-5.9l7-5.5l7.5-3.8l2-2l0.8-3.3L159,139.7z"
     id="path5" /><polygon
     fill="#FECC81"
     stroke="#231F20"
     stroke-miterlimit="10"
     points="326,117.8 317.8,121.4 314.5,125.2 309.8,125.2   306.3,129.1 303.3,133.5 301.5,136 303.8,139.7 306.3,146 308.8,148.3 308,155.5 304.3,162.6 297,168 289.5,169.8 284.8,171.5   277.7,176.1 269,176.1 260.3,177.4 255,177.4 249.8,182.6 243.8,183.9 241.3,183.9 235.5,180 229.3,183.9 219.8,183.9 216.3,186   207.5,186 202.3,189.3 199.8,193 205.5,195.9 207.6,195.9 209.1,198.4 209.5,199.7 206.9,203.1 200,205.8 199.3,208.8 203,213.4   206.8,216.7 211.5,220.8 222.5,218.8 234.3,216.5 277.7,209.8 281.8,212.8 285,236.8 296.5,252 304.5,266.4 308.3,278.9   318.3,295.3 320.8,301.7 336.5,310.3 351.5,310.8 361,299.8 376.5,299.5 385.2,299.5 390.3,299 428,294.6 445.8,290.4 450,297.8   456.2,310.3 461,322 468.1,331.9 472.6,335.8 481.5,339 499,334.5 502.6,326.3 505,312.1 505,296.1 510.8,284.5 519.4,262.4   519.4,254.3 533.8,246.5 544.5,240.7 554.2,240.7 569.3,240.7 576.5,240.7 583.8,245.3 589,253.2 593,251.8 600,250.8 610.8,249.3   608.8,208.3 606.5,202.8 606,202 608.8,199 607,195.9 606,189.5 606,183.9 603.5,176.1 600.8,171.8 600.8,165.5 596.8,165.3   592.1,161.8 585.3,161.8 562.3,157.5 545,150.9 537.5,141 531.7,129.8 517.8,121.4 501.5,119.3 490,119.3 476.8,114 463.7,107   456.2,104.5 450,94 437.8,79.7 421,75.3 404.7,75.3 392.3,75.3 384,86.5 379.3,96.9 368.3,99.3 341.7,102 331.3,101.8 327.5,110 "
     id="polygon7"
     style="fill:#d95f0e;fill-opacity:1" /><polygon
     fill="#E6DDE8"
     stroke="#231F20"
     stroke-miterlimit="10"
     points="503.3,77.2 500.8,77.2 498.8,82.3 494.5,86.7 491.7,88.8   491.7,94.5 491.7,105.7 493.3,117.7 494,122.7 493.9,127.1 497.5,125.2 501.8,127.8 507.3,125.2 518,125.2 524.8,129.1 526.8,134   528.7,137.4 530.3,139.7 532.6,140.7 534.3,142.5 535.4,143.8 535.7,146.6 535.5,148.5 540.5,150.3 544.3,153.3 544.3,159.3   547.7,161.5 549,159.6 549,158.9 552.9,159.3 554.2,159.3 556.8,164.3 562.2,163.1 567.3,160.5 570,163.3 574.5,163.3 577,166.5   579.8,165 580.5,165 582.5,166.9 584.6,166.9 585.3,164.5 585.3,161.8 586.3,159.8 581.3,149.1 578.3,134.6 577.8,129.6   582.9,123.9 579,118.8 568.3,114.3 562.2,109.8 554.2,107.8 542.5,107.3 534.3,105.3 531.7,101 531.7,97.3 526.5,93.3 522.8,91.7   521,86.5 518,82.3 512.5,77.2 507.8,79.7 505.8,81.3 "
     id="polygon9"
     style="fill:#91cf60;fill-opacity:1" /><polygon
     fill="#E6DDE8"
     stroke="#231F20"
     stroke-miterlimit="10"
     points="321.1,89 317.8,94.1 317.8,97.2 317.8,102.3 317.2,111.2   317.2,116.4 317.8,120.7 317.8,121.4 320.3,121.8 323.2,124.3 325.8,128 326.9,129.8 330,126.5 332.3,121.3 331.6,117.5 331.2,114   333.8,110.7 331.7,108.2 330.9,105.8 332.3,104.8 335.5,106.3 339.4,106.9 343.6,104.6 347.1,104.2 352.8,105.7 357.2,104.5   360.6,106.3 363.2,106.3 366.3,103.1 369.3,107.8 373.3,107.7 382,103.1 387.8,94 393.3,87.5 394.8,83.7 394.8,78.4 396.4,76.3   412,76.8 421.6,78.7 427.9,80.5 433,80.8 438.6,84.7 441.3,87.2 443.2,88.8 443.2,93.5 444.6,97.8 448.2,99.6 450,104.8   450.8,107.9 454.2,111.1 460,114.3 466,114.1 472.9,116.4 480,122.7 492.5,127.8 496.4,125.8 495.8,121.7 497.5,111.3 500.6,106.4   502.6,96.1 500.8,93.7 492.6,88.9 487.5,88.4 482.1,86.3 474.6,78.8 466.4,73.2 461.2,73.2 457.5,73.8 454.6,69.4 449.3,66.4   445,65.9 440.5,65.2 436.1,62.2 428.9,60.6 424.8,58.4 420.8,53.6 416.2,54.8 411,57.5 408,59.1 406.5,59.1 400.7,58.8 391.1,63.1   385.2,67.4 373.9,74.6 366.7,80.9 358.2,84.6 347.5,86.7 333.3,89.6 "
     id="polygon11"
     style="fill:#91cf60;fill-opacity:1" /><path
     fill="#E6DDE8"
     stroke="#231F20"
     stroke-miterlimit="10"
     d="M282.1,8.8l-5.9,4.3l-8.4,5.3l0.9,5.6l12.5,6.7l9.3,3.9l9.3,7.5  c0,0,12.4,10,12.5,10.5s4.1,33.8,4.1,33.8l4.4,5.9l6.1,4.8l6.5-6.5l18.9-2.9h12.3l6.5-1.1l8.8-4.6l7.4-2.1l3.8-3.9v-5.3l2.8-6.3  l4.8-3.3l6.2-1.8v-2.6l-2.6-4.8l-4.6-3.8l-0.9-3.6l1.3-6.3l-6-0.9l-7.9-0.8l-7.1-3.6l-3-3.9l-5.6-6.5l-4.4-0.8l-7.9,0.9l-5-4.3h-6.8  l-5,2.9l-2.9,0.8l-6.8-1.9l-7.8-3.6L310.6,13l-3.1-1l-7.9-0.3l-7.8-3h-5.3H282.1z"
     id="path13"
     style="fill:#91cf60;fill-opacity:1" /><polyline
     fill="#E8E3CC"
     stroke="#231F20"
     stroke-miterlimit="10"
     points="281.8,206.3 271.4,206.3 267.5,206.3 264.9,209 257,209   244.3,209 242.7,210.5 235.5,210.5 232.8,210.5 231.6,212.7 225.8,211.7 220,212.7 215.8,216 212.2,219.3 211.5,221.5 211.5,228.8   211.5,234 211.5,236.4 207,237.6 202.9,236.9 199.6,242 197,246.2 195.6,248.6 193.2,250.8 193.2,256.5 197.8,263.5 207.8,270.5   213.7,287.5 217.8,300.7 224.3,310.3 233.5,324.8 247.3,332.1 262,342 276.3,339.8 287.2,342 291.8,349.4 301.8,351.5 309.8,349.4   336,333.4 339.1,321.8 323.8,310.8 322.3,302.8 321,296.3 320.8,288.2 316.5,284.8 315.8,277.7 312,272.9 306.3,267.7 305.4,254.8   305.4,250.2 299.2,244.7 299,234.8 292,228.7 285.7,227.2 289,216.7 290.6,212.5 282.5,206.3 "
     id="polyline15"
     style="fill:#fec44f;fill-opacity:1" /><path
     fill="#E8D6BA"
     stroke="#231F20"
     stroke-miterlimit="10"
     d="M464.8,332.8l6.4-1.6l3,1.6l7.8,2.1l5.6-0.4l4.1-1.5h4.5l-1.2-12.1  l0.3-4.9l-5.2-10.7l-6.5-6l-2-8.9l8.3-5.9h5.1h7.2l5.8-3.8l3.2-9.8l4.8-9.7v-3.5v-6.8l11.3-5.2l9.5-5l1.7-3.5l7.5-1.7h12.3l12.3,0.7  l6.7,1.2l6,3.3l4,7.2l5.8,4l-0.8,6.2l-0.3,5.5l6,4.5l0.8,8.4l1.8,7.8l8.3,8l1.4,3.9l1.7,5.6l4,5.7l8.5,4.8l5.7,3.2l2.7,2.2l4.7,0.2  l-1.5,4.3l0.7,2.8l4.5,4.5l7.5-0.3l1.2,2.9l3,6.4l1,7.3l-3.5,3.8l-5.5,2.7l-5-1l-5-3.7l-8.7-2.7l-5.5,3l-4.5,5.5l0.7,8.3l5.7,7.2  l-2.2,7.7h-10.8l-8.5-0.7L594,372l-14.2,4.5l-5.3,2.2h-9.2h-7.2l-8,3.3l-5-0.7l-5.3,4.7l-5.3,3l-0.7,3.5l-1.7,2.2l-1.3-1.3l0.8-3  l-2-2.8l-3.8-2.9l-3.9-2l-2.6-3.2l-4.1-2.2c0,0-4,1.2-4.5,1.2s-7-0.7-7-0.7l-9.3,0.5L491,379l-5.8-3.2l-4.2-2.6h-6.9l-5.3-3.9  l-6.3-5.9l-5-4.3l-1.3-8l3.8-9.3L464.8,332.8z"
     id="path17"
     style="fill:#fe9929;fill-opacity:1" /><polygon
     fill="#E8D6BA"
     stroke="#231F20"
     stroke-miterlimit="10"
     points="313.8,297.8 309.5,297.8 307.2,298.3 305.9,302.9   305.4,309.9 305.4,313.7 309.6,319.2 318.5,324 327.9,326.3 332.6,327.2 334.6,327.6 339.1,329.3 366.1,324.8 382.8,328.3   403,324.1 440.3,324.8 463.7,320.4 462.7,316 460.5,312.1 457.5,305.2 455.4,300.8 451.7,297.2 454.7,292.5 459.2,287.5   457.5,283.8 450.3,283.2 446.1,283.2 441.4,287 435.5,288.5 431.7,287.8 427.9,291.3 422.3,290.4 414.8,290.4 408.6,290.1   405.6,289.2 405.4,287.9 401.4,289.9 399.6,292.3 395,290.4 391.4,290.4 389.4,294.3 388.1,297.3 384,293.3 378.9,294.6   370.6,295.4 365.2,293.8 359.3,294.2 355.3,298.8 353.3,302.7 352.6,307.5 348.8,308.9 344.8,308.9 341.3,305.1 336.5,304.2   331.5,302.1 326.5,300.2 322.3,299.4 319.7,298.5 314.9,297.9 "
     id="polygon19"
     style="fill:#fe9929;fill-opacity:1" /><polygon
     fill="#E8D6BA"
     stroke="#231F20"
     stroke-miterlimit="10"
     points="133.8,279.3 136.3,269 143.2,261.2 167.7,258.3   181.3,254.2 190.2,254.2 197.8,253.2 199.7,256 205.8,257.3 209.6,260.7 211.8,263.2 213.4,265.1 216.5,267.1 217.8,262.4   221.1,261.3 224.9,264.4 228,266.8 230.8,268.1 231.6,270.5 221.8,279.8 217,291.5 212.5,298.3 214.9,301.1 217.6,306.8   211.7,313.7 210.5,320.8 200.5,323 195.6,325.5 179.2,323.2 156.7,310.3 147.7,309 132.7,306 127.2,295.3 132.7,283.2 "
     id="polygon21"
     style="fill:#fe9929;fill-opacity:1" /><polygon
     fill="#FFC0A8"
     stroke="#231F20"
     stroke-miterlimit="10"
     points="36.9,536.8 53.5,536.8 59.5,533.8 68.5,523 79,520.8   88.3,520.8 93.3,520.8 103.3,517.1 126,504.8 141.2,496.4 152,486.3 157.8,478.3 167.3,472.6 178.2,466.5 191.5,461 202.8,461   223.7,451 240.3,445.3 253,438.5 267.5,432.5 284,420 287.2,419.3 285.8,416.3 273.5,416.6 266,413.6 259.3,409.5 257.4,406.3   249.4,405 249.5,401 250.3,396.8 240,396.2 236.5,391.9 235.8,387.2 233.1,385.2 222.9,385.5 210,385 204.3,380.9 204.7,371.8   205.6,368.5 203.2,364 202.8,358.9 206.3,353.3 207.1,347.4 203.9,338.5 199.4,336.8 199.6,326.9 200.4,323.3 197.8,324   187.8,323.3 182.3,319.6 179.7,317.6 174,314.8 165.7,311.4 160,304.9 155.2,304 147.8,306 139,306 133.3,298.9 129.2,295.3   117.8,314 103.3,334.5 93.3,343.5 86.5,366.5 80.8,392.3 81.7,405.5 79.7,413.4 79,442.7 75.2,456.5 72.2,466 67,475 59.5,490.9   53.5,502.9 44,521.5 "
     id="polygon23"
     style="fill:#fee391;fill-opacity:1" /><polygon
     fill="#E8D6BA"
     stroke="#231F20"
     stroke-miterlimit="10"
     points="196.7,319.8 195.6,337.8 197.8,351.7 199.7,367.5   199.7,377.5 207.1,387.6 221.8,392 231.5,396.8 243,400.8 256.2,412.3 269.3,419.7 280,418.8 283.5,418 287.2,419.3 296,413.4   306.3,408.2 320.5,403.2 326.5,401.3 337.8,398.7 346.3,394.7 354.7,389.8 359.8,386 368.3,382.5 378.7,377.3 385.2,373.2   390.3,373.2 393.3,375.5 396.5,380.7 399.8,386.2 411,391.8 420.1,392.5 423.9,389 430.5,383 441.3,381 452.9,380 457.5,378.2   459.8,374.3 457.5,371.2 456.2,368.5 458.5,365.5 457.5,363.5 460.5,361.7 461.8,360 458.8,356.3 458.7,351.2 461.8,344.8   466.5,337.1 469.7,331.9 469.7,329 467.8,323.7 462.7,316 457.5,317.8 450.8,319.3 435.3,322.2 419.8,323.3 407.7,322.2   396.2,319.2 388.8,319.2 378.2,323.5 372,322.2 365.8,318.5 356.8,319.5 348.8,324.8 337.5,327.5 331.3,330.2 326.3,336.8   321,343.3 314.2,344.7 304.5,345.7 298.2,349.4 296.2,320.9 288.7,322.2 279.8,324.8 274.6,328.7 268.7,335.9 266.5,339.8   262,335.9 258.2,333.2 251.3,327.5 245.7,320.9 235.7,319.8 233.3,316 234.5,310.3 233.7,307.3 232.3,305.2 227.6,304.5 225,301.7   222.7,296.8 220,293 218.5,291.2 215.3,290.4 209.6,297.8 209.6,306 208.5,310.3 200.2,319.5 "
     id="polygon25"
     style="fill:#fe9929;fill-opacity:1" /><polygon
     fill="#FFC0A8"
     stroke="#231F20"
     stroke-miterlimit="10"
     points="27.5,365.3 25.8,352.8 21.5,346.3 18.3,334.5 18.3,328.2   18.3,320.8 21.5,312.1 36.9,298.3 62.2,287 77,278 107,274 123.8,271.3 132.3,270 139.3,270 141.2,274.3 138,279 133.8,284.8   131.8,291.8 131.8,296.1 128.5,301.7 126.5,307.3 123.8,313.7 117.8,319.8 114,327 111,335.5 109,340.8 105.5,344.8 97.5,346.3   75.5,354.4 59.3,361.7 38,363.5 "
     id="polygon27"
     style="fill:#fee391;fill-opacity:1" /><path
     fill="#FFEFA1"
     stroke="#231F20"
     stroke-miterlimit="10"
     d="M28.8,539.3l8.1-2.5c0,0,7.6-1.5,8.4-1.2s6.8-1.7,6.8-1.7l1.9-3.5  l4.1-5.1l3-4.4l2.8-3.7l7.4-4.2h2.4H79l4.9,4.2l0.6,4.9l-0.6,5.5l-3.1,4.3l-3.8,3.8l0,6.2v6.3l3.8,3.5l5.7,2.5l5.5,5.1l-3.7,3.9  l-3.7,2.3v7.5l-1.8,6.4l-2,7.6l-3.5,10.7l-4.1,3l-5.2,1l-7.7,2.2H50.2H39.5h-3.9l-6.9-2.2l-7,2.2l-4,1.8l-5.5-4l-1.2-5.4l2.9-10.8  l9.8-12.5l3.5-9.8l3.3-12.7L28.8,539.3z"
     id="path29"
     style="fill:#ffffd4;fill-opacity:1" /><polygon
     fill="#FFEFA1"
     stroke="#231F20"
     stroke-miterlimit="10"
     points="-3.5,223.8 0,219.3 2.8,217.3 3.7,208.5 9.7,204.2   9.7,198.4 8,193.9 7.8,190.5 12.3,186 15.5,184.8 38.2,186.2 70.3,185.8 77,180.2 84.4,175.7 86.9,176.8 92.8,183.5 98.2,187.3   101.2,191.3 103.7,196.5 109.3,201.3 123.8,210 132.5,214.7 139.7,216 149.3,214.8 152,214.8 156.3,220.3 158.8,223.8 166.3,223.8   167.7,229.7 168.8,236.9 174,242.1 180.3,245.7 195.6,245 197.8,244.9 195.6,250.2 197.8,253.9 197.8,255 194,256.5 185.7,256.5   181.2,258.5 178.2,262.4 172,268.2 167.2,273 164.8,273 161.2,269 157.2,266.2 151.3,265.3 146.5,268 149.3,271.8 147.8,274.5   143,274.5 130.8,273 123.8,277.5 117.8,284.8 112.7,286.3 106,281.5 96,277.3 84.4,281.5 77,282.3 72.3,287.2 68.5,292 63.8,293.8   56.5,297.3 48.3,305 39.5,305 35.6,308.3 30.5,312.1 28.8,316.8 20.7,320.5 18,324 12.3,321.2 -2,314 "
     id="polygon31"
     style="fill:#ffffd4;fill-opacity:1" /><path
     fill="#D2EDF5"
     stroke="#3AC1CA"
     stroke-width="3"
     stroke-miterlimit="10"
     d="M-2-9.3C-2.7-2.8-3.5,3.8-4.2,10.4  c0.1,8.4,0.2,16.9,0.3,25.3c1.2,9.1,2.2,18.1,0.7,27.4c-0.1,0.3-0.1,0.6-0.2,0.9c0,0.5,0,1.1,0,1.6h4.8l8,0.7l6.7,2.3h8.7l11,2.3  L52,72.3l11,1.3h12.7l6-5.3l4-3l2,6.7l2.3,0.3L85.7,75L83,79v4.3l4,1.7l4.7,4l5.7,1l9.7-1l6.3-0.7l3.3,5.3L115,98l-2-3l2.3,4.7  l4.3,5l5.3,7l2.7,2.3l4.3-5l6-2.3l5,2l6,5l2,3.3l7.3,2l5.3,3.3l7,2.7l1.7-3.3l5.3-1l3.3,5h9.7l4,4l5.7,0.7l2.3,1l4.3-3.3l5.7,2  l7-3.7l10-0.3l5-0.7l4-3.3l8.7,4.3l10.3-1.7l7.7,1.3l6-0.7h2.3l5,1.3l3.3-1.3l4-6h10.3l7.3-3l6-3l8-5.7L323,99l4.5-10v-8.7l-3.5-4  l-1-8.3l-2.3-9.7l-4.3-17.7l-9.3-1l-7-2v-4l-6.7-5.3l-1.7-3.3h-11l-9.7-3.3l1-8l-7.3-3L258,9l-4.7-9L253-2.3L535.5-3l-1.8,6.3h4.3  l1,2.2l-2.7,3.7l-2.7,6.2v4.2l3.7,1.8l4.8,4.2l2.8,2.3l1,6.7l1.8,3.2l4.5,2.2l5.3,2.8v4.5l2.5,4.8l4.8,4l4.2,4.8L571,66l4.7,3  l3.5,3.8l4.7,5l6.7,3.7l4,4l3,6l4.7,6.8l3.3,2.7l-1,5l1,3.5l4.7,5.2l6.7,3.7l4.7,2.8l-1.2,7l3.2,2.5l9.8,1.2h9.3l5.5,3.7l7.2,4  l2.3,5.8h-3l-6.3-3.2l-6.2,3.2H637l-5.2,2.5l-3,2.7H625l-2.3,5.5l-1.3,4.3l-0.7,7.2v4.5l0.7,6.3l-2.7,3.7l-2,4.2l5.3,3.5l3.8,5.2  l-3,2.8h-4.2l-1,4.5l0.7,5.8l0.2,5.7l-4.7,2h-2.5l0.8-4.5l1.5-3.3l-2.3-2.2l-6.2,0.5l1.5,6.3l-1.8,5.8l-1.2,3.8l3,5.5l-0.7,4.5  l-0.8,5.8l2.2,7.3l0.7,6l2,9.3l-0.2,6.7l0.8,4.7l7.5,6.3l8.5,8.5H654l2.7,1.3h5.8l12.2-0.8V-9.3H-2z"
     id="path33" /><path
     fill="#D2EDF5"
     stroke="#3AC1CA"
     stroke-width="3"
     stroke-miterlimit="10"
     d="M106.3,338.3L106,333l-6-5.7l-3-1.7l-6.3,6.3  l-5,2.5l-0.7,2.8l-5,3.3l-7.3,1l-1-2.7l-2.3-4.5l-1.3,3.8v1.7l-4-2.7l-2.7-5.3l-7.3-1.7l-6.3-3.7l-4.7,4l-9,6.7l-7.3,4.3l-3,5.7  l-4,7.7l-4.3-3.3l-7,5.7L3,362.7H0l-4.3,4l0.7,18.3l0.3,9.3l7,1.3l10-0.3l5-3l5.7-0.7l7.3-6l6-2.7l1,3.3l-6,6L26,395l-8.3,6  l-2.7,6.3l3,5.7l2.3,3.3l-7.7,1.3l-5-3L4.3,416l-2,4.3L0,420.7l-3-1.2v71.5c0.7,5.6,1.1,11.2,0.7,16.8c-0.4,5.2-0.6,10.3-0.7,15.5  v66.1c0.5,2.7,1.1,5.5,1.7,8.3c0.1,0.6,0.2,1.2,0.2,1.8l7.8-2L15,595l5.7-5l8.3-12.3l8-14.3l6.3-12l1.3-17.3l2-9.7L50,525l2.3,0.3  l1.7-11l3.7-6l2.3-8l5-7l3.7-9.3l6.3-8.7l4.3-4l0.3-10.3l4.7-7.7l3.7-7.7l5,0.3l1.7-9l-2-6.7l-4-6.7l3.7-8l2-11.7l-7-10l-1.3-3  l5.7-6.7l-0.3-5.7l3-6l0.3-2.7l6-7l0.3-4.3l-2.7-5.3l-1.3-7.7l6.3-3.7L106.3,338.3z"
     id="path35" /><circle
     fill="#231F20"
     cx="292.3"
     cy="433.3"
     r="3.7"
     id="circle37" /><circle
     fill="#231F20"
     cx="372"
     cy="391.8"
     r="3.7"
     id="circle39" /><circle
     fill="#231F20"
     cx="93.3"
     cy="397.3"
     r="3.7"
     id="circle41" /><circle
     fill="#231F20"
     cx="93.3"
     cy="425.3"
     r="3.7"
     id="circle43" /><circle
     fill="#231F20"
     cx="92"
     cy="449"
     r="3.7"
     id="circle45" /><circle
     fill="#231F20"
     cx="84.5"
     cy="461"
     r="3.7"
     id="circle47" /><circle
     fill="#231F20"
     cx="82.8"
     cy="472.6"
     r="3.7"
     id="circle49" /><circle
     fill="#231F20"
     cx="73.3"
     cy="480"
     r="3.7"
     id="circle51" /><circle
     fill="#231F20"
     cx="65.8"
     cy="497.3"
     r="3.7"
     id="circle53" /><circle
     fill="#231F20"
     cx="55.8"
     cy="520.8"
     r="3.7"
     id="circle55" /><circle
     fill="#231F20"
     cx="179"
     cy="452.8"
     r="3.7"
     id="circle57" /><circle
     fill="#231F20"
     cx="103.3"
     cy="354.8"
     r="3.7"
     id="circle59" /><circle
     fill="#231F20"
     cx="220"
     cy="381.3"
     r="3.7"
     id="circle61" /><circle
     fill="#231F20"
     cx="46.5"
     cy="546.6"
     r="3.7"
     id="circle63" /><circle
     fill="#231F20"
     cx="28.8"
     cy="585.3"
     r="3.7"
     id="circle65" /><circle
     fill="#231F20"
     cx="443.7"
     cy="547.7"
     r="3.7"
     id="circle67" /><g
     id="g69"><circle
       fill="#FFFFFF"
       cx="420.1"
       cy="369.4"
       r="2.6"
       id="circle71" /><circle
       fill="none"
       stroke="#231F20"
       stroke-width="3"
       stroke-miterlimit="10"
       cx="420.1"
       cy="369.4"
       r="3.9"
       id="circle73" /></g><g
     id="g81"><circle
       fill="#FFFFFF"
       cx="449"
       cy="506.1"
       r="2.6"
       id="circle83" /><circle
       fill="none"
       stroke="#231F20"
       stroke-width="3"
       stroke-miterlimit="10"
       cx="449"
       cy="506.1"
       r="3.9"
       id="circle85" /></g><g
     id="g87"><circle
       fill="#FFFFFF"
       cx="227.6"
       cy="335.9"
       r="2.6"
       id="circle89" /><circle
       fill="none"
       stroke="#231F20"
       stroke-width="3"
       stroke-miterlimit="10"
       cx="227.6"
       cy="335.9"
       r="3.9"
       id="circle91" /></g><g
     id="g93"><circle
       fill="#FFFFFF"
       cx="86.9"
       cy="239.5"
       r="2.6"
       id="circle95" /><circle
       fill="none"
       stroke="#231F20"
       stroke-width="3"
       stroke-miterlimit="10"
       cx="86.9"
       cy="239.5"
       r="3.9"
       id="circle97" /></g><g
     id="g99"><circle
       fill="#FFFFFF"
       cx="64.8"
       cy="325.7"
       r="2.6"
       id="circle101" /><circle
       fill="none"
       stroke="#231F20"
       stroke-width="3"
       stroke-miterlimit="10"
       cx="64.8"
       cy="325.7"
       r="3.9"
       id="circle103" /></g><g
     id="g105"><circle
       fill="#FFFFFF"
       cx="267.5"
       cy="269"
       r="2.6"
       id="circle107" /><circle
       fill="none"
       stroke="#231F20"
       stroke-width="3"
       stroke-miterlimit="10"
       cx="267.5"
       cy="269"
       r="3.9"
       id="circle109" /></g><g
     id="g111"><circle
       fill="#FFFFFF"
       cx="522"
       cy="334.5"
       r="2.6"
       id="circle113" /><circle
       fill="none"
       stroke="#231F20"
       stroke-width="3"
       stroke-miterlimit="10"
       cx="522"
       cy="334.5"
       r="3.9"
       id="circle115" /></g><g
     id="g117"><circle
       fill="#FFFFFF"
       cx="589.5"
       cy="415.5"
       r="2.6"
       id="circle119" /><circle
       fill="none"
       stroke="#231F20"
       stroke-width="3"
       stroke-miterlimit="10"
       cx="589.5"
       cy="415.5"
       r="3.9"
       id="circle121" /></g><g
     id="g123"><circle
       fill="#FFFFFF"
       cx="185"
       cy="171"
       r="2.6"
       id="circle125" /><circle
       fill="none"
       stroke="#231F20"
       stroke-width="3"
       stroke-miterlimit="10"
       cx="185"
       cy="171"
       r="3.9"
       id="circle127" /></g><g
     id="g129"><circle
       fill="#FFFFFF"
       cx="119"
       cy="112.5"
       r="2.6"
       id="circle131" /><circle
       fill="none"
       stroke="#231F20"
       stroke-width="3"
       stroke-miterlimit="10"
       cx="119"
       cy="112.5"
       r="3.9"
       id="circle133" /></g><g
     id="g135"><circle
       fill="#FFFFFF"
       cx="339.1"
       cy="290.8"
       r="2.6"
       id="circle137" /><circle
       fill="none"
       stroke="#231F20"
       stroke-width="3"
       stroke-miterlimit="10"
       cx="339.1"
       cy="290.8"
       r="3.9"
       id="circle139" /></g><g
     id="g141"><circle
       fill="#FFFFFF"
       cx="344.2"
       cy="47"
       r="2.6"
       id="circle143" /><circle
       fill="none"
       stroke="#231F20"
       stroke-width="3"
       stroke-miterlimit="10"
       cx="344.2"
       cy="47"
       r="3.9"
       id="circle145" /></g><g
     id="g147"><circle
       fill="#FFFFFF"
       cx="439.4"
       cy="69.4"
       r="2.6"
       id="circle149" /><circle
       fill="none"
       stroke="#231F20"
       stroke-width="3"
       stroke-miterlimit="10"
       cx="439.4"
       cy="69.4"
       r="3.9"
       id="circle151" /></g><g
     id="g153"><circle
       fill="#FFFFFF"
       cx="550.3"
       cy="125.2"
       r="2.6"
       id="circle155" /><circle
       fill="none"
       stroke="#231F20"
       stroke-width="3"
       stroke-miterlimit="10"
       cx="550.3"
       cy="125.2"
       r="3.9"
       id="circle157" /></g><g
     id="g159"><circle
       fill="#FFFFFF"
       cx="97.7"
       cy="499"
       r="2.6"
       id="circle161" /><circle
       fill="none"
       stroke="#231F20"
       stroke-width="3"
       stroke-miterlimit="10"
       cx="97.7"
       cy="499"
       r="3.9"
       id="circle163" /></g><g
     id="g165"><circle
       fill="#FFFFFF"
       cx="51.3"
       cy="584.2"
       r="2.6"
       id="circle167" /><circle
       fill="none"
       stroke="#231F20"
       stroke-width="3"
       stroke-miterlimit="10"
       cx="51.3"
       cy="584.2"
       r="3.9"
       id="circle169" /></g><g
     id="g171"><circle
       fill="#FFFFFF"
       cx="73.4"
       cy="660.9"
       r="2.6"
       id="circle173" /><circle
       fill="none"
       stroke="#231F20"
       stroke-width="3"
       stroke-miterlimit="10"
       cx="73.4"
       cy="660.9"
       r="3.9"
       id="circle175" /></g><text
     font-size="12"
     id="text177"
     x="106.06664"
     y="368.43338"
     style="font-size:12px;line-height:0%;font-family:ArialMT">Selêucia Pieria</text>
<text
     transform="translate(99,402.25)"
     font-size="12"
     id="text179"
     style="font-size:12px;line-height:0%;font-family:ArialMT">Laodiceia</text>
<text
     transform="translate(99,427.5)"
     font-size="12"
     id="text181"
     style="font-size:12px;line-height:0%;font-family:ArialMT">Arados</text>
<text
     transform="translate(67,442)"
     font-size="12"
     id="text183"
     style="font-size:12px;line-height:0%;font-family:ArialMT">Trípoli</text>
<text
     transform="translate(45.25,459.375)"
     font-size="12"
     id="text185"
     style="font-size:12px;line-height:0%;font-family:ArialMT">Biblos</text>
<text
     transform="translate(39.5,473.625)"
     font-size="12"
     id="text187"
     style="font-size:12px;line-height:0%;font-family:ArialMT">Berito</text>
<text
     font-size="12"
     id="text189"
     style="font-size:12px;line-height:0%;font-family:ArialMT"
     x="29.282097"
     y="484.54523">Sidom</text>
<text
     transform="translate(36.875,501.0449)"
     font-size="12"
     id="text191"
     style="font-size:12px;line-height:0%;font-family:ArialMT">Tiro</text>
<text
     font-size="12"
     id="text193"
     style="font-size:12px;line-height:0%;font-family:ArialMT"
     x="5.7284074"
     y="515.61591">Ptolemaida</text>
<text
     transform="translate(8.875,559.125)"
     font-size="12"
     id="text195"
     style="font-size:12px;line-height:0%;font-family:ArialMT">Cesareia</text>
<text
     transform="translate(12.25,599.375)"
     font-size="12"
     id="text197"
     style="font-size:12px;line-height:0%;font-family:ArialMT">Gaza</text>
<text
     transform="translate(83.875,660.8652)"
     font-size="12"
     id="text199"
     style="font-size:12px;line-height:0%;font-family:ArialMT">Petra</text>
<text
     transform="translate(457.501,508.6426)"
     font-size="12"
     id="text201"
     style="font-size:12px;line-height:0%;font-family:ArialMT">Ctesifonte</text>
<text
     transform="translate(527.834,418.002)"
     font-size="12"
     id="text203"
     style="font-size:12px;line-height:0%;font-family:ArialMT">Ecbátana</text>
<text
     transform="translate(349.834,406.3389)"
     font-size="12"
     id="text205"
     style="font-size:12px;line-height:0%;font-family:ArialMT">Hatra</text>
<text
     transform="translate(174.0005,447.3369)"
     font-size="12"
     id="text207"
     style="font-size:12px;line-height:0%;font-family:ArialMT">Palmira</text>
<text
     font-size="12"
     id="text209"
     style="font-size:12px;line-height:0%;font-family:ArialMT"
     x="207.26126"
     y="429.51382">Dura-Europos</text>
<text
     transform="translate(73.5005,325.661)"
     font-size="12"
     id="text211"
     style="font-size:12px;line-height:0%;font-family:ArialMT">Tarso</text>
<text
     transform="translate(152.001,301.6807)"
     font-size="12"
     id="text213"
     style="font-size:12px;line-height:0%;font-family:ArialMT">Samósata</text>
<text
     transform="translate(97.501,240.6846)"
     font-size="12"
     id="text215"
     style="font-size:12px;line-height:0%;font-family:ArialMT">Mázaca</text>
<text
     transform="translate(411.001,361.666)"
     font-size="12"
     id="text217"
     style="font-size:12px;line-height:0%;font-family:ArialMT">Arbela</text>
<text
     transform="translate(531.666,334.5)"
     font-size="12"
     id="text219"
     style="font-size:12px;line-height:0%;font-family:ArialMT">Garzaca</text>
<text
     transform="translate(451.667,187.3325)"
     font-size="12"
     id="text221"
     style="font-size:12px;line-height:0%;font-family:ArialMT">Artaxata</text>
<text
     transform="translate(502.625,117.1011)"
     font-size="12"
     id="text223"
     style="font-size:12px;line-height:0%;font-family:ArialMT">Cabalaca</text>
<text
     transform="translate(287.167,63.5708)"
     font-size="12"
     id="text225"
     style="font-size:12px;line-height:0%;font-family:ArialMT">Nacolacevi</text>
<text
     transform="translate(73.5005,125.233)"
     font-size="12"
     id="text229"
     style="font-size:12px;line-height:0%;font-family:ArialMT">Amiso</text>
<path
     fill="none"
     stroke="#3AC1CA"
     stroke-width="2"
     stroke-miterlimit="10"
     d="M253,163.8l-4.3,4.6l-7.8,3.2l-6.7,1.9l-9-1.6  l-11.7-2.2c0,0-4.5-1.6-5.2-1.1s-6.8,0-6.8,0l-3.7-0.3l-4-4.6h-6.3h-7.2l-3.2-3.3l-4.8-0.8l-5.7-2.5l-7-2.5l-6.7-2.2h-3.5l-5.7-4.8  l-2.3-2.8l-7.8,1.5l-8-2.8h-5l-8.2-1l-3.2-2.8"
     id="path231" /><polyline
     fill="none"
     stroke="#3AC1CA"
     stroke-width="2"
     stroke-miterlimit="10"
     points="181.1,175.7 176,171 171.7,165.8   164,164.3 158,164.3 154.5,160.5 148.5,158 142.2,158.8 137.2,154 131.7,156.6 125.7,158.5 119,158.5 114.2,157.5 107.8,151.7   106.3,148 101.2,145.2 101.2,142.7 105.7,140.7 108.5,139.7 111,137 116.4,136.3 122.9,137.7 126.5,137.3 129.5,136.3 128.5,134.2   126.3,131.5 131,130.5 135,130.5 135.3,126.7 135.5,122 137.3,118.5 137.8,115.1 136.2,111.5 135.8,108.6 "
     id="polyline233" /><path
     fill="none"
     stroke="#3AC1CA"
     stroke-width="2"
     stroke-miterlimit="10"
     d="M197,185.7l-11.2-3.3l-7.7-0.8l-6.8,1l-13,2.3h-5.2  l-3.7,2.5l-6.5,1.3h-5.2l-4.3,4l-6.3,1l-3.3,5l-5.7,6.5l-8.8,4.2l-4.8,3.7l-4,3.7l-6.7,4l-4.3,2.8l-7.7,1.8l-3.7,2.2l-4.7,1.3  L70,231h-4.5l-1,3h-3.7l-6.3-3.2l-7.3-0.8l-5.8-4.7l-5.7-3.8l-2.3-2.3l-4.3-0.7l-5.5-3.7l-4.2-3l-3.8-0.8l-1.2-3.3l-4-5.6l-1.5-3.8  l-1-5.5l5.8-9l-0.2-7.5l-2.2-8l7.3-10.8l1-5l6-2h8l3.2-0.7l4.5-3.5h3.9l2.9-3.5l4.5-0.7l4.3-3.5l3.7-1.7l1-3.2l5.3-3.2V122  c0,0-5.3,0.5-5.8,0s-4.5-2.8-4.5-2.8l-3.8-2.8l12-1.3l5.7-7.2l8.3-4.7l2,4.2l0.5,2.6h5.3l7.3-3.1l5.8-1.2l5.7-3.5v-2.7l2-4.2l1.8-5  v-1.6"
     id="path235" /><path
     fill="none"
     stroke="#3AC1CA"
     stroke-width="2"
     stroke-miterlimit="10"
     d="M208.4,196.3l1.3,3.8l-2.8,3.1l-6.9,2.6l-0.8,3.4  l4,4.5l4.6,4l3.6,3.1c0,0-0.3,7.3,0,7.6s0,8,0,8l-5.5,1.5l-3.1-1l-5.1,8l-2.1,3.8v3.1l4.6,4.8l5.5,0.8l4.8,4.3l3.9,4.9l2.1,0.7  l1.4-5.1l3.3-0.8l6.1,5.2l3.5,1.7l0.9,2.4l-3.9,3.6l-5.9,5.6l-3.6,8.1l-1.5,4.5l-4.3,5.9l2.4,2.9l2.8,5.6l-2.6,2.5l-3,3.2l-1.1,5.1  l-0.4,3.3l-5.3,1l-4.8,1.3l-1.1,3.4l0.3,10.5l4.3,1.6l2.1,5.4l1.1,3l-0.8,6.9l-3.1,5.5v4.8l2.4,4.3l-1.1,4.5v7.6l5.1,4.6l6.6,0.6  h7.5l9-0.6l3,2.1l0.9,4.8l3.3,4.6h7h3.5l-1.1,5.8l0.1,2.8l8,1.3l1.5,2.9l9,5.5l5.6,1.9h10.6h1.9l2.5,5.8l5.7,1.6h1.7l0.5,6.4v2.1  h2.6l0.8,3.5l5,2.3l4.4,1.6l-1,3.6l-0.5,4.6l7.3,0.9l5.3,2.3h4.6l11.6-1.3l3.3,3.4l3,6l0.8,6.1l2.3,1h1.5V462l3.5,1l5.1,1.8v5.4  l1.3,3.5l3.1,0.6l2.5,3.1v4.6l1.4,0.6l3.3-2.1l3,1.3l-0.9,5.1l0.9,4.1l5.4,2.1l2.5,2.6l3.4,3.4h4.8l2.1,1.1l3.4,1.4h5.5l0.9,1.9  l4.6-0.6l2.6,3.3l3.5-0.8l1.9,0.8l2.4,1.8l2.8,2.6l6.3,4.5l5.5,1.6l1.6,4.9l1.5,4.1l3.6,4.6l1.8,1.8l-1,5.4v6.6l3.3,7.9l2.6,5.1v7.8  l3.9,6.1l2.3,4.5l1.6,5.6v4.6l1.9,3.4l2,2.8h6.3l2.5,1.4v3.4l3.9,2.9h4l1.1,3.8l6,3.3l3.3,0.6l1.5-3.3l5.1,0.1l4.5,3.1l2.8-1.1l1,3  l3.8,2.3l4.8,5.4h6.4l3.1,3.4l7.3,0.8l6.9,6.6l11.8,3.4H551h5.8l6.4-0.9l4.8-1.5l4.5,0.4"
     id="path237" /><text
     transform="translate(221.834,394.6709)"
     font-size="12"
     id="text239"
     style="font-size:12px;line-height:0%;font-family:ArialMT">Calínico</text>
<path
     fill="none"
     stroke="#3AC1CA"
     stroke-width="2"
     stroke-miterlimit="10"
     d="M348.8,310.8l1-1.7h5.7l1.5-3.5h3l4.2-2.2l4.2-5.3  l6-2.1l4.7-4.1l2.7,0.2l4.2-3l4.7-1l1.7,4.1l3.3,1l4.3-2.6l2.5-6.3l2.3-2.7l1,7.8c0,0,5.3,0.7,6,1.1"
     id="path241" /><path
     fill="none"
     stroke="#3AC1CA"
     stroke-width="2"
     stroke-miterlimit="10"
     d="M439.5,266l-4.8,5.8l-4,3.8v3.8l-2.8,3.7l-5.2,3  l-1.5,2l-1.1,9.5l-2.6,1l-2,4.5l-4.5,3l-3.2,4.7l3.8,5.3l5.8,5.2l5.1,4.5c0,0,7.2,4.2,7.7,4.5s3.8,4.2,3.8,4.2s-0.2,4.8-0.7,5.2  s-8.7,6.7-8.7,6.7s-4.3,1.7-5.7,1.8s-3,0-3,0l-5.2,1.2v4.8l-3.2,4.8l-6,4.5l-2,5l-4.2,6.2l-3.3,1.2"
     id="path243" /><path
     fill="none"
     stroke="#3AC1CA"
     stroke-width="2"
     stroke-miterlimit="10"
     d="M304.5,250.8l-2.7,7.3l-6.5,1.8l-4.5,0.8l-2.5,4.3  v7.7l-3.5,3.5l-3,6.9c0,0,4,2.3,4.7,2.3s9,1.4,9,1.4l10,3.1l1.8,3.3c0,0,2.5,4.2,3.2,4.2s10.8,1.2,10.8,1.2l7.3,2.2l6.6,3l5.3,1.5  l5.7,3.3l1,1l5.2,5l1,4.2v4.3l3.3,3.5h3.5l-0.8,6.2l5.5,3h2.5l2.2,3.7h3.5l1.3,4.8h-5.5l-0.5,5.2l4.7,1.7h3.7l1.8,3.2h4.2l1.3,3.7  l2.2,5.5l2.8,2.5l3.3,4.8v3v5.7l1.5,2.5l-3.3,3.2l1.8,2.8v3.7l-3.3,1.4l0.8,4v7.3l4,1.8l0.7,2l-0.8,3l3.7,1v3.2l4.3,4.5l2.5,3  l-2.3,4.5l1,5.8l3.5,2l1.2,6l3.5,3v3l2.7,3.7v4.5l1.8,2.2v4.7l1.3,3.3l2.7,2.7l6.3,2.5h5.3l4.5,1.7l5.6,3.7l1.6,3.8l-2.8,2.8  l1.3,3.5v4.7l-3.9,2.7l-0.9,1.3l2.2,6.1l1.7,3.8l-0.5,2.7l3,1.1l2.3,2.5l2.3,2.4v2.7v2.7l5.4,2.1h4.6h2.3v3.5h4.2l5.2,2.8l1.5,3.2  l4.8,2.5l4.8-0.7l-1.3,4l3.3,2l4.5,1.7h4.5l2.7,3.9l0.8-3.4l4.8-0.2L499,534h5.5l8.8,1.3l3.8,1.7l2.8,3.3h4.2l5,0.7l3.7,0l2.5,1.3  l4.7,0.8l3.2,1.5v5.8l-1.3,2.2l0.3,6.4l2.2,3.6h5l1.8,6.2l3,2.5l5.3,1l2-0.7l1.2,6.7l2,5.8l2.3,4.8h3.8l1.5,2.9l3.8,4.2l-2.5,3.4  l-2.7,6.8c0,0,1.3,7.5,1.4,8s-0.9,8.7-0.9,8.7v4.5v4.2l4.7,2.3l3.2,1l1.2,3l6,1.3l2.5,4v3.8l6.2,2.5l1.7,4l4.7,5.3l2.3,5.3l0.7,3.8  l1.5,4.2"
     id="path245" /><polyline
     fill="none"
     stroke="#3AC1CA"
     stroke-width="2"
     stroke-miterlimit="10"
     points="399.3,52.5 397.5,59.5 390.8,59.5   382.5,59.5 377.3,62.8 367.8,62.8 360.5,66.8 352,65.5 344.2,69.4 337.8,66.8 334.5,65.5 329,66.8 323.2,69.4 "
     id="polyline247" /><polyline
     fill="none"
     stroke="#3AC1CA"
     stroke-width="2"
     stroke-miterlimit="10"
     points="385.2,106.3 390,104.3 392.5,95.5   388.8,91.5 384,90 377.8,90 372.8,90 366,87.5 "
     id="polyline249" /><path
     fill="none"
     stroke="#3AC1CA"
     stroke-width="2"
     stroke-miterlimit="10"
     d="M583.8,168l-3.3-3h-1.3l-2.3,1.5l-2.5-3.3H570  l-2.8-2.8l-4.8,2.5l-5.8,1.3l-2.6-5h-4.9l-1.5,2.3l-3.5-2.3v-6l-3.8-3l-5-1.8v-5.3c0,0-2.9-3-3.8-3s-2.7-2.8-2.7-2.8l-3-5.3  l-1.3-3.1l-6.8-3.9h-5.3h-5.5l-5.8,2.6l-4-2.6l-5,2.6l-6-2.6l-6.5-2.6l-6.8-6.2l-7.5-2.5H460l-5.5-2.5l-2.8-4.3l-3.3-6.8l-1.3-6.3  l-3.8-8l-3.9-8l-3.9-3.8h-6l-5.3-4h-5.5h-10.3h-9.3l-6.8,1.4V77l-1.5,4l-4.3,3l-2.8,2.5V90"
     id="path251" /><polyline
     fill="none"
     stroke="#3AC1CA"
     stroke-width="2"
     stroke-miterlimit="10"
     points="339.1,205 336.5,201.8 336.5,196.3   337.8,193.5 344.3,191 346.3,188.8 346.3,185.3 355.8,182.6 359.5,177.4 362.5,173.6 364.8,168 372.3,164.8 381.7,161.8 394,161.8   401.3,168 405.5,174.8 425,175 429.3,175 435.5,180 440.6,183.4 443.2,189.3 447.1,197.5 450.5,202.8 457.5,209.3 463.5,213.3   469.3,215.8 470.5,220.5 473.5,224.8 481.5,224.8 485.8,227.8 490.8,227.8 500,230 505,225.8 512,226.5 514.5,226.5 525.3,214.3   529.3,214.5 529.3,211.3 533.8,208.8 535.8,207.5 535.8,205 539.5,201.3 544.8,196.3 550.3,191.8 554.2,189 557.8,187.3   560.3,185.5 563,183.9 568,177.4 569.8,173.6 575.5,173.6 577.8,169.5 585.3,166.8 585.3,161.8 591.5,161.8 597.3,165.5   600.8,165.5 600.8,171.8 603.5,176.1 606,183.9 606,189.5 607,195.9 608.8,199 606,202 608.8,205.9 "
     id="polyline253" /><text
     transform="translate(332.334,79.6689)"
     font-size="12"
     id="text255"
     style="font-size:12px;line-height:0%;font-family:ArialMT;fill:#1f4ccb">Fásis</text>
<text
     transform="translate(28.7646,638.7373)"
     font-size="17"
     id="text257"
     style="font-size:17px;line-height:0%;font-family:ArialMT">NABATEIA</text>
<text
     transform="translate(432.0771,646.7373)"
     font-size="17"
     id="text259"
     style="font-size:17px;line-height:0%;font-family:ArialMT">ARÁBIA</text>
<text
     transform="translate(432.0771,646.7373)"
     font-size="17"
     id="text261"
     style="font-size:17px;line-height:0%;font-family:ArialMT">ARÁBIA</text>
<text
     transform="translate(392.5,21.6055)"
     font-size="17"
     id="text263"
     style="font-size:17px;line-height:0%;font-family:ArialMT">SARMÁCIA</text>
<text
     transform="translate(341.6621,449.0449)"
     font-size="20"
     id="text265"
     style="font-size:20px;line-height:0%;font-family:ArialMT">IMPÉRIO PARTA</text>
<polygon
     fill="#D2EDF5"
     stroke="#3AC1CA"
     stroke-width="2"
     stroke-miterlimit="10"
     points="405.5,468.7 405.5,471.7 407.7,473.6   408.3,477.8 412.5,480.3 415.8,483.7 419.7,487.5 419.7,489 414.8,489.8 412.6,494 411,495.8 408.2,495.2 404.3,491.5 403.2,486.7   403.2,481.5 401.7,475.2 401.7,471.2 402.8,469.7 "
     id="polygon267" /><polygon
     fill="#D2EDF5"
     stroke="#3AC1CA"
     stroke-width="2"
     stroke-miterlimit="10"
     points="465.5,585.2 468.2,585.2 468.2,587.7   466.8,590.9 468.2,592.7 469.7,595.9 469.7,597.7 467.6,598.4 465.5,597.4 465.5,594.5 464.2,591.8 462.2,589 460.2,587.4   462,586.4 463.2,587 464.9,587 "
     id="polygon269" /><polygon
     fill="#D2EDF5"
     stroke="#3AC1CA"
     stroke-width="2"
     stroke-miterlimit="10"
     points="460.2,600.9 456.2,598.4 454,595.4   450.5,592.7 448.3,591.8 446.4,591.8 445.1,593.9 446.4,594.4 449,594.5 449.7,596.3 450.3,598.4 452.9,598.4 454.3,599.4   457.5,603 459.3,603 "
     id="polygon271" /><polygon
     fill="#D2EDF5"
     stroke="#3AC1CA"
     stroke-width="2"
     stroke-miterlimit="10"
     points="503.2,529.2 500.7,529.2 498.3,530.9   496.2,532 496.2,533.8 498,533.8 501.7,533 503.8,531.5 504.8,529.2 "
     id="polygon273" /><polygon
     fill="#D2EDF5"
     stroke="#3AC1CA"
     stroke-width="2"
     stroke-miterlimit="10"
     points="489.8,545.5 496.2,546.4 496.2,547.7   496.2,550.9 496.2,553.7 494,553.7 493,551.4 493,548.9 490.7,547.7 "
     id="polygon275" /><text
     transform="translate(447.4102,558.0098)"
     font-size="12"
     id="text277"
     style="font-size:12px;line-height:0%;font-family:ArialMT">Babilônia</text>
<polygon
     fill="#D2EDF5"
     stroke="#3AC1CA"
     stroke-width="2"
     stroke-miterlimit="10"
     points="536.5,550.9 534,552.5 531.7,553.7   529.5,555.7 531.7,559.1 531.7,561.4 531.7,564.7 536.5,569.7 538.3,572.7 539.8,570.5 541.8,568 542.8,570.7 544.2,574.2   547.7,577 545,578.2 544.8,579.9 548.8,579.9 549.7,581.7 549.7,584.4 551.7,587.5 552.7,590 556.7,590 555.8,593.2 557.3,594.9   560.3,592.5 560.3,585.9 560.3,582.2 554.7,578.7 551.8,572.9 548.8,570.5 546,567 542,563.9 539,559.1 537.8,555.9 538,552.5   538.2,550.9 "
     id="polygon279" /><polygon
     fill="#D2EDF5"
     stroke="#3AC1CA"
     stroke-width="2"
     stroke-miterlimit="10"
     points="566.3,579 567.8,579 569.7,581   572.4,583.7 574,585.4 574,587 571,587 569,587 567.7,583.9 566.3,580.9 "
     id="polygon281" /><polygon
     fill="#D2EDF5"
     stroke="#3AC1CA"
     stroke-width="2"
     stroke-miterlimit="10"
     points="560.3,617.7 561.3,617.7 561.3,620.5   562.7,623.7 562.7,625.4 561.5,626.7 559,625.7 559,622.2 559,619.2 559,617 "
     id="polygon283" /><polygon
     fill="#D2EDF5"
     stroke="#3AC1CA"
     stroke-width="2"
     stroke-miterlimit="10"
     points="568.2,634.4 564.8,634.4 562.7,635.7   560.8,634.4 556.5,634.4 554,635.7 550.2,635.7 546.8,636.7 546.2,638.7 546.2,641.5 548.3,641.5 550.7,640.2 554.3,640.2   558.3,641.5 560.8,643.9 565,643.9 568.2,642.7 570.2,645 570.2,646.7 578.8,646.7 583,646.7 584.3,644.4 579.7,640.6 576.8,640.6   574,637.9 571.2,635.5 "
     id="polygon285" /><polygon
     fill="#D2EDF5"
     stroke="#3AC1CA"
     stroke-width="2"
     stroke-miterlimit="10"
     points="69.7,525.3 72.3,525.3 73.5,526.2   74.2,528.4 74.2,531 72.3,532.8 70.5,535.5 68.5,535.5 68.5,532.8 68.1,530.4 68.5,527.2 "
     id="polygon287" /><polygon
     fill="#D2EDF5"
     stroke="#3AC1CA"
     stroke-width="2"
     stroke-miterlimit="10"
     points="66.5,579.2 68.5,579.2 70.3,581.5   70.3,587.8 69.5,594.3 68,598.4 67,600.4 66.1,601.5 66.1,603.8 66.1,607 66.1,609.9 62.6,609.9 59.5,606.3 59.5,601.5 61.3,595.1   61.1,588.5 61.1,585.3 63.1,581.7 64.9,579.7 "
     id="polygon289" /><polyline
     stroke-miterlimit="10"
     points="75.1,512.2 74.8,515.2 73.5,517.6   72.8,520.8 72.8,523.3 72.3,525.3 "
     id="polyline291"
     stroke-width="2"
     stroke="#3AC1CA"
     fill="none" /><polyline
     stroke-miterlimit="10"
     points="69.2,535.5 70.8,538.4 72.3,543.2   71.1,549.6 70.3,555.3 69.2,562.5 67.6,570 68.1,573.6 67.6,577.2 67,579.6 "
     id="polyline293"
     stroke-width="2"
     stroke="#3AC1CA"
     fill="none" /><polyline
     fill="none"
     stroke="#3AC1CA"
     stroke-width="2"
     stroke-miterlimit="10"
     points="63.8,609.9 63.8,613.5 63.8,617.8   63.8,620.3 "
     id="polyline295" /><text
     transform="translate(58,588.9922)"
     font-size="12"
     id="text297"
     style="font-size:12px;line-height:0%;font-family:ArialMT">Jerusalém</text>
<text
     transform="translate(68,609.918)"
     font-size="12"
     id="text299"
     style="font-size:12px;line-height:0%;font-family:ArialMT;fill:#1f4ccb">Mar Morto</text>
<text
     transform="rotate(-89.782277)"
     font-size="12"
     id="text301"
     x="-558.08887"
     y="88.150063"
     style="font-size:12px;line-height:0%;font-family:ArialMT;fill:#1f4ccb">Judeia</text>
<path
     fill="#D2EDF5"
     stroke="#3AC1CA"
     stroke-width="2"
     stroke-miterlimit="10"
     d="M459.4,139.3h4.1l3.9,3l4.3,3.1l1,1.8h3.4h1.5  l5.1,4.1l4.4,3l1.9,2.6v4.1c0,0-5.1,1.4-5.6,1.5s-4.1-0.3-4.6,0s-3.9,0-3.9,0l-5-1.4l-1.6-3.5l1.8-2.8l-1.8-1.5l-2.1-0.1l-0.9-5.1  l-3-1.8l-2.8-1.1v-3.5V139.3z"
     id="path303" /><text
     transform="translate(471.125,154.5)"
     font-size="12"
     id="text305"
     style="font-size:12px;line-height:0%;font-family:ArialMT;fill:#1f4ccb">Sevã</text>
<path
     fill="#D2EDF5"
     stroke="#3AC1CA"
     stroke-width="2"
     stroke-miterlimit="10"
     d="M418.7,237.4l-5.3-1.9h-3.8l-1.3,2.4l-1.9,0.6  l-6.3,1l2.5,2l-0.7,2.1l-5.1,3.2l-2.5-1.5l-2-1.7l0.3,2.6l0.8,1.3h-3.7H388h-5.8l-6.3,0.4l-3.1,1.7c0,0-0.5,3.3-0.4,3.5  s0.6,2.7,0.6,2.7l-1.9,3l-3.8-1.6v3.2l5.4,2.7l6.3,1.6l2.4,1.5l3.7-1.2l2.6,0.6l2.3,2.5l1.8,1.9l6.7,1.1l1.5-0.8c0,0,1-3.6,1.3-3.7  s4.3-2.8,4.3-2.8l1.5-3.5l-0.4-2.2l-2.8-1.3l-6.3-0.8l-0.7-1.2l5.3-3.8l0.9-3.8l3.3-2.9l1.8-2.3l2.1,0.9l3-1.2l3.5-2.3L418.7,237.4z  "
     id="path307" /><text
     transform="translate(375.25,260.1553)"
     font-size="12"
     id="text309"
     style="font-size:12px;line-height:0%;font-family:ArialMT;fill:#1f4ccb">Van</text>
<path
     fill="#D2EDF5"
     stroke="#3AC1CA"
     stroke-width="2"
     stroke-miterlimit="10"
     d="M472.4,276.4h10.3l2,0.6l4.4,5.3l1.5,4.4  l-1.4,3.1l-3.6,2.9v4.4l1.8,3.9l3.3,0.8l2.1-2.4l4.1,0.1l3.4,3l1.3,1.4l-3.1,0.9h-1.8l2.1,3.1c0,0,2.4,3.4,2.8,3.8s3.1,4,3.1,4  l4.1,2.5c0,0,0.5,1.4,0,1.5s-5.1,0-5.1,0l-0.8,2l-1.6,1.6l-3.5-1.4c0,0-0.8,2.6-0.8,3.1s-0.5,4.9-0.5,4.9l0.5,2.2l-5.9-1.3l-5.9-4.6  l-1-4.5l0.3-4.4l-1-2.4l-3.1-1.6l0.9-4.6l0.3-2.9l-1.4-1.5l0.9-5l-3.9-1.4l-3.3-4.4l-1.4-3.3l3.9-2.9l2.3-1.5l0.3-2l-2.6-2.3  l-3.8-0.9l-1.3-0.5L472.4,276.4z"
     id="path311" /><g
     id="g313"><text
       transform="translate(474.125,310.25)"
       font-size="12"
       id="text315"
       style="font-size:12px;line-height:0%;font-family:ArialMT;fill:#1f4ccb">Úrmia</text>
</g><text
     transform="translate(456.1924,581.9375)"
     font-size="17"
     id="text317"
     style="font-size:17px;line-height:0%;font-family:ArialMT">BABILÔNIA</text>
<g
     id="g319"><text
       transform="translate(290.5835,373.2334)"
       font-size="15"
       id="text321"
       style="font-size:15px;line-height:0%;font-family:ArialMT">OSROENA</text>
</g><text
     transform="translate(375.742,346.3438)"
     font-size="15"
     id="text323"
     style="font-size:15px;line-height:0%;font-family:ArialMT">ADIABENA</text>
<text
     transform="translate(368.251,312.1001)"
     font-size="15"
     id="text325"
     style="font-size:15px;line-height:0%;font-family:ArialMT">GORDIENA</text>
<text
     transform="translate(529.0713,276.375)"
     font-size="15"
     id="text327"
     style="font-size:15px;line-height:0%;font-family:ArialMT">MÉDIA</text>
<text
     transform="translate(497.5,354.4375)"
     font-size="15"
     id="text329"
     style="font-size:15px;line-height:0%;font-family:ArialMT">ATROPATENE</text>
<text
     transform="translate(141.1495,286.905)"
     font-size="15"
     id="text331"
     style="font-size:15px;line-height:0%;font-family:ArialMT">COMAGENA</text>
<text
     transform="translate(221.834,253.167)"
     font-size="15"
     id="text333"
     style="font-size:15px;line-height:0%;font-family:ArialMT">SOFENA</text>
<text
     transform="translate(53.5,310.25)"
     font-size="15"
     id="text335"
     style="font-size:15px;line-height:0%;font-family:ArialMT">CILÍCIA</text>
<text
     transform="translate(30.5,262.4375)"
     font-size="15"
     id="text337"
     style="font-size:15px;line-height:0%;font-family:ArialMT">CAPADÓCIA</text>
<text
     transform="translate(39.5,575.9375)"
     font-size="15"
     id="text339"
     style="font-size:15px;line-height:0%;font-family:ArialMT">JUDEIA</text>
<text
     transform="translate(253,37.4375)"
     font-size="15"
     id="text341"
     style="font-size:15px;line-height:0%;font-family:ArialMT">CÓLQUIDA</text>
<text
     font-size="15"
     id="text343"
     x="446.47617"
     y="103.45689"
     style="font-size:15px;line-height:0%;font-family:ArialMT">IBÉRIA</text>
<text
     transform="translate(507.833,143.2705)"
     font-size="15"
     id="text345"
     style="font-size:15px;line-height:0%;font-family:ArialMT">ALBÂNIA</text>
<text
     transform="translate(41.3335,155.5024)"
     font-size="15"
     id="text347"
     style="font-size:15px;line-height:0%;font-family:ArialMT">PONTO</text>
<text
     transform="translate(174.0005,154.5)"
     font-size="15"
     id="text349"
     style="font-size:15px;line-height:0%;font-family:ArialMT">ARMÊNIA MENOR</text>
<text
     transform="translate(117.8335,387.583)"
     font-size="15"
     id="text351"
     style="font-size:15px;line-height:0%;font-family:ArialMT">SÍRIA</text>
<text
     transform="translate(327.5234,161.3828)"
     font-size="15"
     id="text353"
     style="font-size:15px;line-height:0%;font-family:ArialMT">ARMÊNIA MAIOR</text>
<text
     transform="translate(123.834,476.2949)"
     font-size="15"
     id="text355"
     style="font-size:15px;line-height:0%;font-family:ArialMT;fill:#a58264">DESERTO DA SÍRIA</text>
<text
     transform="translate(6.167,394.6709)"
     font-size="15"
     id="text357"
     style="font-size:15px;line-height:0%;font-family:ArialMT">CHIPRE</text>
<g
     id="g359"><circle
       fill="#FFFFFF"
       cx="207.1"
       cy="309.9"
       r="2.6"
       id="circle361" /><circle
       fill="none"
       stroke="#231F20"
       stroke-width="3"
       stroke-miterlimit="10"
       cx="207.1"
       cy="309.9"
       r="3.9"
       id="circle363" /></g><text
     transform="translate(274.1675,266.429)"
     font-size="12"
     id="text365"
     style="font-size:12px;line-height:0%;font-family:ArialMT">Carcatiocerta</text>
<text
     transform="translate(287.167,283.186)"
     font-size="12"
     id="text367"
     style="font-size:12px;line-height:0%;font-family:ArialMT">Tigranocerta</text>
<rect
     x="146.63995"
     y="499.61612"
     stroke-miterlimit="10"
     width="220.29646"
     height="133.24869"
     id="rect369"
     style="fill:#ffffff;stroke:#231f20;stroke-width:1.01451004;stroke-miterlimit:10" /><text
     transform="translate(178.1675,518.8682)"
     font-size="15"
     id="text371"
     style="font-size:15px;line-height:0%;font-family:ArialMT">Império Armênio de</text>
<text
     transform="translate(178.1675,536.8682)"
     font-size="15"
     id="text373"
     style="font-size:15px;line-height:0%;font-family:ArialMT">Tigranes, o Grande</text>
<rect
     x="151"
     y="577.1"
     fill="#FFC0A8"
     stroke="#231F20"
     stroke-miterlimit="10"
     width="22"
     height="13.6"
     id="rect375"
     style="fill:#fee391;fill-opacity:1" /><rect
     x="151"
     y="560.3"
     fill="#E8D6BA"
     stroke="#231F20"
     stroke-miterlimit="10"
     width="22"
     height="13.6"
     id="rect377"
     style="fill:#fe9929;fill-opacity:1" /><rect
     x="151"
     y="543.5"
     fill="#FECC81"
     stroke="#231F20"
     stroke-miterlimit="10"
     width="22"
     height="13.6"
     id="rect379"
     style="fill:#d95f0e;fill-opacity:1" /><rect
     x="151"
     y="594.7"
     fill="#FFEFA1"
     stroke="#231F20"
     stroke-miterlimit="10"
     width="22"
     height="13.6"
     id="rect381"
     style="fill:#ffffd4;fill-opacity:1" /><rect
     x="151"
     y="612.6"
     fill="#E6DDE8"
     stroke="#231F20"
     stroke-miterlimit="10"
     width="22"
     height="13.6"
     id="rect383"
     style="fill:#91cf60;fill-opacity:1" /><rect
     x="162"
     y="560.3"
     fill="#E8E3CC"
     stroke="#231F20"
     stroke-miterlimit="10"
     width="11"
     height="13.6"
     id="rect385"
     style="fill:#fec44f;fill-opacity:1" /><text
     transform="translate(175.2573,557.1006)"
     font-size="10"
     id="text387"
     style="font-size:10px;line-height:0%;font-family:ArialMT">Armênia artaxíada (95 a.C.)</text>
<text
     transform="translate(175.2573,573.8916)"
     font-size="10"
     id="text389"
     style="font-size:10px;line-height:0%;font-family:ArialMT">Vassalos de Tigranes</text>
<text
     transform="translate(175.2573,590.7471)"
     font-size="10"
     id="text391"
     style="font-size:10px;line-height:0%;font-family:ArialMT">Conquistas de Tigranes (95-66 a.C.)</text>
<text
     transform="translate(175.2573,608.333)"
     font-size="10"
     id="text393"
     style="font-size:10px;line-height:0%;font-family:ArialMT">Vassalos temporários</text>
<text
     transform="translate(175.2573,626.1719)"
     font-size="10"
     id="text395"
     style="font-size:10px;line-height:0%;font-family:ArialMT">Demais reinos do Cáucaso</text>
<text
     transform="translate(444.4956,63.5709)"
     font-size="12"
     id="text397"
     style="font-size:12px;line-height:0%;font-family:ArialMT">Mtsqueta</text>
<text
     transform="translate(444.496,127.804)"
     font-size="12"
     id="text399"
     style="font-size:12px;line-height:0%;font-family:ArialMT;fill:#1f4ccb">Ciro</text>
<text
     transform="translate(368.251,187.3325)"
     font-size="12"
     id="text401"
     style="font-size:12px;line-height:0%;font-family:ArialMT;fill:#1f4ccb">Araxes</text>
<g
     id="g403"><circle
       fill="#FFFFFF"
       cx="444.5"
       cy="180"
       r="2.6"
       id="circle405" /><circle
       fill="none"
       stroke="#231F20"
       stroke-width="3"
       stroke-miterlimit="10"
       cx="444.5"
       cy="180"
       r="3.9"
       id="circle407" /></g><text
     transform="translate(385.166,517.5713)"
     font-size="12"
     id="text409"
     style="font-size:12px;line-height:0%;font-family:ArialMT">Selêucia</text>
<text
     transform="translate(471.125,526.5)"
     font-size="12"
     id="text411"
     style="font-size:12px;line-height:0%;font-family:ArialMT;fill:#1f4ccb">Tigre</text>
<g
     id="g413"><text
       transform="translate(270.0713,411)"
       font-size="12"
       id="text415"
       style="font-size:12px;line-height:0%;font-family:ArialMT;fill:#1f4ccb">Eufrates</text>
</g><text
     transform="translate(89.507,492)"
     font-size="12"
     id="text417"
     style="font-size:12px;line-height:0%;font-family:ArialMT">Damasco</text>
<text
     transform="translate(45.25,224.5)"
     font-size="12"
     id="text419"
     style="font-size:12px;line-height:0%;font-family:ArialMT;fill:#1f4ccb">Hális</text>
<text
     transform="translate(133.75,142.1495)"
     font-size="12"
     id="text421"
     style="font-size:12px;line-height:0%;font-family:ArialMT;fill:#1f4ccb">Lico</text>
<text
     transform="translate(214.1675,351.492)"
     font-size="12"
     id="text423"
     style="font-size:12px;line-height:0%;font-family:ArialMT">Edessa</text>
<g
     id="g425"><text
       transform="translate(117.8335,338.4969)"
       font-size="13"
       id="text427"
       style="font-size:13px;line-height:0%;font-family:ArialMT">ANTIOQUIA</text>
</g><text
     transform="translate(406.8955,46.9998)"
     font-size="15"
     id="text429"
     style="font-size:15px;line-height:0%;font-family:ArialMT;fill:#a58264">CÁUCASO</text>
<text
     transform="translate(123.834,173.5708)"
     font-size="12"
     id="text227"
     style="font-size:12px;line-height:0%;font-family:ArialMT">Nicópolis</text>
<g
     transform="translate(-0.11588891,-0.34397008)"
     id="g75"><circle
       style="fill:#ffffff"
       cx="441.29999"
       cy="515"
       r="2.5999999"
       id="circle77" /><circle
       style="fill:none;stroke:#231f20;stroke-width:3;stroke-miterlimit:10"
       stroke-miterlimit="10"
       cx="441.29999"
       cy="515"
       r="3.9000001"
       id="circle79" /></g></svg>