<svg xmlns="http://www.w3.org/2000/svg" height="300" width="300" viewBox="0 0 600 600">
    <path fill="#bf0000" d="M0 0h600v600H0z" />
    <circle fill="#fff" cx="300" cy="300" r="175" />
    <circle fill="#bf0000" cx="375" cy="300" r="175" />
    <path fill="#fff" d="M357.7 179.24c-9.355 8.5-9.84 21.9-8.845 33.603 1.807 17.079-9.585 32.54-8.081 49.433-1.316-.578-1.4-4.945-3.72-6.064-9.668-6.359-23.073-7.43-29.688-18.044-6.601-11.824-22.225-11.29-31.951-19.304-2.571-1.132-6.565-8.195-5.286-1.874.832 13.454 12.336 21.935 21.221 30.5 9.887 10.625 13.469 25.602 23.829 35.88-10.552.67-19.246 9.155-30.134 8.668-6.138-.345-12.423-2.635-18.39.234-9.809 3.723-19.483 9.754-30.42 8.47 8.64 9.584 22.37 9.85 34.264 8.818 14.5-1.218 28.135 6.724 41.927 8.184-6.254 10.33-8.007 24.541-19.77 30.659-10.472 7.787-10.017 22.757-18.5 32.149-3.483 3.23-5.162 5.214.86 3.806 13.66-1.669 21.313-14.224 30.643-22.71 10.444-8.52 24.077-12.323 33.738-21.917 2.61.503-.99 3.398.521 5.32 3.084 11.44 11.433 22.508 7.548 34.865-1.95 12.92 9.019 23.183 9.629 35.832-.147 4.765.056 7.375 3.33 2.093 8.565-11.029 4.89-25.49 5.61-38.266 1.557-13.021 8.072-25.05 8.333-38.282 8.374 7.411 21.424 7.502 28.461 16.888 3.418 6.159 9.011 10.763 15.772 12.874 8.4 3.187 17.384 6.418 23.214 13.654.587-12.61-8.508-22.46-17.532-29.977-12.151-10.047-15.696-26.36-25.957-37.88 10.278 1.33 18.57-7.369 28.695-7.849 7.118-.902 14.27 3.068 21.174-.367 9.804-3.745 19.483-9.707 30.414-8.488-8.681-9.547-22.396-9.822-34.301-8.78-16.63 1.542-31.47-9.45-47.991-8.222-5.632 1.267-1.914.406 1.19-1.34 6.899-5.2 6.873-15.05 11.645-21.837 3.645-7.94 13.617-9.902 16.815-18.117 4.566-9.698 7.012-21.135 15.848-28.125-12.638-.606-22.474 8.544-30.043 17.543-9.743 11.967-25.71 15.415-36.995 25.425-.724-9.065-7.714-16.487-8.235-25.717-.906-7.158 3.102-14.388-.39-21.325-3.692-9.849-9.733-19.43-8.451-30.413z" />
</svg>