<svg xmlns="http://www.w3.org/2000/svg" width="695" height="568" version="1.0">
   <path opacity=".996" fill="none" d="M1.507 1.507h696.064v569.507H1.507z" />
   <path d="M416.552 151.448c-2.666-.349-10.897-2.252-14.915-4.26-5.506-2.754-.889-6.393-9.588-6.393-3.775 0-4.082-6.835-7.458-8.523-4.688-2.344-6.163-7.228-8.523-9.588-2.773-2.774-8.21 2.82-11.719 1.065-2.187-1.093-10.144 4.54-11.718 5.327-4.765 2.382-1.979-11.034 0-15.98 3.133-7.834 1.691-7.787 10.653-1.065 4.108 3.08 9.044 14.962 11.719 4.26 1.759-7.035 3.095-8.23 8.523-9.587 4.686-1.172-.06-11.69 4.261-13.85 3.326-1.663 4.327-6.425 8.523-8.523 4.256-2.127-5.811-9.2-8.523-8.522-6.126 1.531-5.682 7.101-11.719 1.065-3.874-3.875-9.72-.033-13.85-1.065-5.46-1.366-5.746-8.181-12.783-9.588-6.81-1.362-5.993-2.398-8.523-7.458-4.1-8.2-12.587-3.295-2.13-8.523 3.795-1.898 14.432 1.066 19.175 1.066h17.046c4.049 0-.333-8.856-3.196-11.72-2.033-2.032-13.195.636-14.915 1.066-6.933 1.734-9.709-1.186-12.784-4.261-4.824-4.824-8.997.948-5.327-6.392 1.724-3.448-7.333-6.33-7.457-6.392-3.75-1.875-6.263-.806-8.523-5.327-3.15-6.301 11.127-5.327 14.915-5.327 6.24 0 8.061-4.03 10.653-5.327 6.753-3.376 9.577 11.707 14.915 17.046 6.188 6.188 18.864 2.37 25.568 6.392 3.902 2.34 6.331 6.361 12.785 9.588 5.507 2.754 11.927 2.13 18.11 2.13 7.216 0 12.321 3.197 19.177 3.197.578 0 7.852-13.574 8.523-14.915 2.655-5.312 6.83-6.83 10.653-10.653 1.608-1.608 13.73 1.627 15.98 1.065 7.211-1.803 10.621.7 21.307 4.261 6.508 2.17 12.833-1.32 18.111 0 9.336 2.334 10.911 1.873 13.85-1.065 1.003-1.003 7.77 13.537 15.98 5.327 1.39-1.39 25.746-2.708 27.7-3.196 2.095-.524 4.26-.71 6.391-1.066 7.358-1.226 4.247-2.16 8.523 6.392.68 1.36-8.068 8.837-8.523 10.654-2.303 9.213-4.451 9.103-14.915 11.719-7.749 1.937-7.566 7.566-12.784 12.784-4.782 4.782-9.358 2.437-3.196 10.653 4.723 6.298 7.513 8.27 17.046 10.654 9.601 2.4 13.517 7.973 21.307 2.13 3.27-2.453 5.594-6.922 9.588 1.066 2.268 4.537 9.985 1.833 13.85-1.065 8.163-6.123 13.066 4.197 15.98-7.458 1.029-4.117 17.649 5.05 18.11 5.327 7.018 4.21 14.32 4.73 19.177 9.588 5.85 5.85 10.204 8.856 11.719 14.915 1.468 5.874-13.08 4.261-15.98 4.261-3.413 0-9.838 4.262-15.98 4.262-1.456 0-5.878-8.67-8.524-10.654-5.508-4.131-11.447-4.099-17.045-7.457-3.401-2.04-12.024 1.255-17.046 0-10.271-2.568-7.95-6.554-10.653 4.261-1.95 7.8-8.74 7.241-3.196 12.784 4.927 4.927 16.096 9.646 22.372 12.785 8.794 4.396 20.287 5.341 29.83 8.522 5.816 1.94 14.285.908 19.176 2.131 7.186 1.796 8.777 7.585 12.784 9.588 5.149 2.574 10.748 9.45 14.915 12.784 4.156 3.325 7.61 3.349 10.654 6.392.794.795.71 2.131 1.065 3.196l3.196 307.886c4.984 4.985-12.14-9.141-13.85-15.98-1.477-5.91-6.978-5.327-10.653-5.327-.551 0-5.397 9.66-6.392 10.654-1.086 1.086-7.047-.41-10.654 3.196-3.665 3.665-10.287-.441-12.784-1.065-5.69-1.423-5.326-7.875-5.326-11.72 0-2.4-6.375-7.422-7.458-9.587-3.16-6.32.465-8.058-4.261-12.785-5.895-5.894-4.262 5.699-4.262 10.654 0 6.905.106 12.995 2.131 17.046 1.156 2.312-3.287 5.145-2.13 7.457 1.649 3.299-2.913 8.453-3.197 9.588-1.171 4.686-9.163-3.09-13.85-4.261-2.531-.633.826-9.588-8.522-9.588-4.617 0-2.062-9.52-5.327-12.785-4.129-4.128-6.585-7.844-8.523-11.718-2.65-5.3-7.457-9.706-7.457 0 0 4.346 7.398 14.796 8.523 17.045 1.958 3.917 4.063 7.731 5.326 12.784.01.042-8.906 5.71-9.588 6.392-5.065 5.066-6.718 1.805-10.653-2.13-4.016-4.016-1.91-5.508-3.196-10.654-1.23-4.92 0-11.928 0-17.045 0-12.12-6.093-3.63-7.458 3.196-1.188 5.94 2.131 10.847 2.131 17.045 0 9.15-.415 10.004-5.327 14.915-5.635 5.635-3.29 9.494-9.588 3.196-4.828-4.828-3.88-10.194-5.327-15.98-.895-3.58-9.215 10.227-9.588 11.719-.66 2.638-8.26-1.131-12.784 0-6.83 1.707-2.046 5.411-9.588-2.13-5.633-5.634-7.035-.424-10.654 3.195-3.763 3.763-12.457.164-14.914-1.065-4.238-2.119-1.078-9.612-3.197-13.85-1.84-3.68-3.196 14.827-3.196 17.046 0 8.514-4.44 4.97-6.392 1.065-3.15-6.3-4.385-3.03-7.457 1.066-5.15 6.867-7.458-7.154-7.458-9.589 0-6.802 2.612-12.99 1.066-19.176-1.664-6.656 1.065-10.256 1.065-17.045 0-6.889.926-10.095 2.13-14.915 1.151-4.602 0-11.732 0-13.85 0-6.528 2.098-10.586 4.262-14.915 1.998-3.996 6.82-2.768 0-9.588-.529-.529 5.852 8.508 7.458 11.719 1.852 3.704 6.636-5.388 10.653-6.392 5.701-1.425 9.608-3.714 15.98 1.065 2.93 2.197 5.125-10.91 5.327-11.719.817-3.268 8.337-.068 9.588-3.196 2.818-7.045 8.677-.61 15.98-4.261 6.868-3.434 12.263-4.805 15.98-8.523 4.345-4.344 6.814-3.816 8.524-10.653 2.167-8.671-.917-8.065 6.392-11.72 8.112-4.055 2.747-12.167 11.719-3.195 3.694 3.695 7.192 8.53 8.522 13.85 2.246 8.982 2.497 10.286-4.261 17.045-3.352 3.351-7.023 7.93-10.654 10.653-3.176 2.383.677 8.912-2.13 11.72-3.341 3.34-6.547 9.083-8.523 11.718-2.993 3.99-10.177-1.36-11.719-2.13-5.378-2.69-7.457-3.587-7.457 4.26 0 6.325.225 11.51 5.326 12.785.069.017 3.52-8.708 8.523-7.458 9.12 2.28 5.15-5.549 12.784-7.457 3.622-.905 12.668 5.622 18.111 4.261 7.164-1.79 2.265 19.707 5.327 7.458 1.663-6.653 3.887-13.662 8.523-15.98 8.969-4.485 7.194.526 11.719-8.523 4.007-8.015 7.446-1.436 11.719 4.261 6.084 8.113 6.325 16.047 12.784 9.588 4.28-4.28 12.985 2.232 14.915 3.196 8.199 4.1-2.732-14.495-4.262-17.045-3.575-5.959-10.12-9.056-4.261-14.915 3.582-3.582 4.261-7.424 4.261-13.85 0-5.456 7.952.155 9.588-6.392 1.447-5.785 3.196-9.715 3.196-17.045 0-5.072-6.114-8.477-7.457-13.85-1.584-6.337-5.545-9.37-9.588-5.327-4.223 4.223-6.163 17.653-8.523 22.373-3.043 6.086-4.669 10.402-7.457 15.98-2.765 5.528-6.94-7.4-6.393-9.588 1.563-6.249 2.131-11.937 2.131-19.176 0-8.068 5.327-12.944 5.327-21.307v-20.242c0-7.073.584-10.215-4.261-13.85-3.682-2.76-9.143-8.076-11.72-10.653-5.31-5.31-2.818-11.375-10.653-7.458-3.81 1.906 2.679 21.369 3.196 23.438 1.719 6.875.413 14.434 2.13 21.307l1.066 4.262c1.704 6.814-2.13 10.395-2.13 15.98 0 6.516.163 11.392-2.131 15.98-3.018 6.036-9.27-8.318-9.588-9.588-1.689-6.755-3.946-10.023-6.392-14.915-2.23-4.458-8.597-2.379-9.588-2.13-3.426.856-7.096-3.91-10.654-2.131-4.775 2.387-1.322-11.206 1.065-15.98 3.21-6.42-.637-11.148-4.261-15.98-5.744-7.66-9.032-4.262-17.046-4.262-7.87 0-8.422 5.787-9.588 12.784-1.137 6.825-11.318 1.466-12.784 0-4.137-4.137-3.288-7.366 0-10.654 4.508-4.508 5.303-4.788 11.719-6.392 4.148-1.037.847-8.96-1.065-12.784-3.07-6.138-7.458-5.58-7.458-14.915 0-7.442-2.068-8.46-6.392-12.784-3.137-3.137-3.125-11.623-6.392-15.98-1.205-1.607-2.841-2.841-4.261-4.262-1.843-1.842 4.702-8.964 6.392-10.653 3.54-3.54 10.89-1.302 14.915-5.327 2.31-2.31 10.592 1.583 12.784 2.13 2.919-2.918 19.388 1.385 22.372 2.132 7.31 1.827 3.826-8.136 3.196-10.654-.941-3.765-8.604-8.604-10.653-10.653-3.736-3.736-9.757-3.154-13.85-2.131-5.925 1.481-8.51-1.053-12.784-5.327-3.36-3.359-12.56-.112-14.915 1.065-4.82 2.41-5.757 5.327-12.784 5.327-4.373 0-11.74 5.122-14.915 6.392-6.45 2.58-6.392 1.597-6.392 10.654 0 7.821 5.118 9.355 3.196 17.045-.752 3.006-3.196 7.508-3.196 13.85 0 4.863-12.695-3.152-12.784-3.196-.218-.11.274 10.79-8.523 6.392-7.348-3.674-2.41 1.344-7.458 6.392-5.525 5.525-6.492-.1-10.653-4.261-2.717-2.717-11.271-3.883-12.784-4.262-1.081-.27-8.762 9.828-10.654 11.72-4.362 4.361-8.273-8.59-8.523-9.589-.547-2.188 16.532-7.329 17.046-7.457.187-.047-3.196-13.84-3.196-15.98 0-6.671 2.011-8.434 6.392-11.72 6.925-5.193 7.798-10.472 12.784-11.718 6.292-1.573 11.459 15.955 14.915 2.13 1.176-4.705 10.404-8.194 11.719-8.522 1.1-.275 6.441-8.572 7.457-9.589 4.652-4.651 10.73-7.559 13.85-11.718 4.263-5.685 5.713-10.145 10.653-13.85 4.112-3.083 5.327-6.429 5.327-12.784 0-5.797-4.11-7.306-7.457-10.654-4.173-4.172-11.05 4.658-12.784 6.392-3.365 3.364-5.992 8.788-7.458 11.72-2.739 5.477-9.712 3.071-12.784 0-4.644-4.645 1.123-12.828 5.327-15.981.655-.491 3.964-12.66 4.261-13.85 1.836-7.344-8.28-4.382-10.653-3.196-3.402 1.701-6.628 7.335-7.458 10.654-1.378 5.513-2.62 7.545 0 12.784 2.413 4.827.14 11.44-1.065 13.85-.145.29-14.843.78-15.98 1.065-2.831.708-6.233 5.287-10.654 6.392-3.282.82-8.066 1.065-10.653 1.065z" opacity=".996" fill="#fd5" />
   <path d="M375.003 322.97c-2.863 2.863-9.908-.426-11.719 3.196-2.275 4.55-1.845 7.457-9.588 7.457-9.035 0-5.082-3.441 1.065-9.588 3.408-3.408 10.888-1.3 13.85-4.261 2.855-2.855 4.934-6.392 10.653-6.392 4.734 0 12.785 2.07 12.785-3.197 0-4.156-6.12-8-4.262-11.718 1.818-3.637 4.262-5.707 4.262-11.72 0-6.028-2.085-11.174 4.26-9.587 3.652.912 11.821 1.116 15.981 3.196 3.704 1.852 2.25 10.653 6.392 10.653 5.118 0 12.126 1.23 17.046 0 5.371-1.343 5.415-4.838 10.653-7.457 3.28-1.64 6.523-6.99 9.588-8.523 2.588-1.294 9.514-3.196 14.915-3.196 5.623 0 9.601-1.329 14.915 0 4.151 1.038 8.35 3.023 11.72 6.392 3.557 3.558 8.304 3.62 13.849 6.392 1.005.503 10.474 7.1 10.653 7.458 1.767 3.533 1.798 7.193 3.196 12.784 1.607 6.426 4.801 5.326 12.784 5.326 7.673 0 11.357 1.508 18.111 3.197 4.16 1.04 8.39 2.064 12.784 4.26 5.504 2.753 8.176 4.61 5.327 7.458-1.889 1.89-6.593 8.422 0 11.72 5.585 2.791 4.285 5.349 9.588 10.653l3.196 3.196c3.072 3.072 3.41 6.606 7.458 10.653 2.393 2.393 8.362 8.483 12.784 9.588 4.738 1.185 9.165 1.504 10.654 7.458 1.052 4.21 2.012 9.351-3.197 10.653-5.175 1.294-10.269 6.986-11.718 12.785-2.105 8.42-7.032.639-11.72 5.326-3.732 3.733-16.44 13.015-11.718 10.654 2.093-4.186-11.227-7.458-13.85-7.458-2.217 0 4.262-12.134 4.262-14.915 0-4.758-5.327-8.559-5.327-15.98 0-6.47 2.13-10.116 2.13-17.045 0-4.115-7.176-7.962-8.522-10.654 0-5.726-11.73.004-17.046 2.13-4.345 1.739-7.76 3.348-11.718 5.328-4.026 2.012-6.435 4.26-11.72 4.26-5.842 0-12.07 1.066-18.11 1.066-7.9 0-8.523-.57-8.523 7.458 0 3.328-4.142 9.349-5.327 11.719-2.54 5.081-8.335 3.243-12.784 2.13-.432-.108-9.262 5.778-11.719 6.392-5.225 1.307-3.196-9.028-3.196-12.784 0-6.9-6.82-5.327-7.457-5.327-1.002 0-1.817 13.659-2.131 14.915-1.379 5.516-7.381 3.5-8.523-1.065-1.629-6.515 1.363-8.994-1.065-13.85-1.829-3.657-9.393-1.74-11.719-6.392-2.628-5.257-5.087-6.5-6.392-11.718-1.823-7.292 3.85-7.355 8.523-8.523 7.3-1.826 1.32-7.202-1.066-9.588-4.035-4.036-10.312-4.347-14.915-3.196-7.897 1.974-9.337 2.194-7.457-5.327 1.261-5.045 14.32-3.196 18.111-3.196 7.131 0 11.517.748 17.046 2.13 4.478 1.12-2.063-9.52-5.327-12.784-3.531-3.53-7.66-5.528-10.654-8.523-1.216-1.216-13.674-.755-14.915-1.065-3.42-.855-9.646 4.543-12.784 5.327-2.11.527-.877 6.392-9.588 6.392-6.525 0-4.261 5.959-4.261 11.719 0 8.301-7.024 2.565-8.523 1.065-1.758-1.758 0-4.972 0-7.457zM482.603 198.324c4.137 3.102-10.29-1.95-14.915-4.262-5.107-2.553-10.444 2.026-12.784 3.196-6.904 3.453-9.265-.838-10.653-6.392-.489-1.952 3.612-9.124 4.261-11.718 1.161-4.646 0-11.164 0-15.98 0-4.517-7.235-1.957-5.327-9.589.731-2.925 3.382-8.198 4.262-11.719.77-3.081 12.075-2.309 13.85-3.196 6.634-3.317 8.45 2.276 11.718-4.261.318-.635 1.42 0 2.13 0h5.327c7.938 0 6.393 2.219 6.393 9.588 0 6.2-1.066 9.08-1.066 14.915 0 .271-8.523 1.7-8.523 8.523 0 6.377 1.031 10.584 3.196 14.915 2.187 4.372 3.548 6.733 4.262 9.588.545 2.179-1.42 4.261-2.13 6.392z" opacity=".996" fill="gray" stroke="#fc0000" stroke-width="2" />
   <path d="M297.232 347.473c-5.702 1.425-10.277-6.032-15.98-7.458-5.406-1.351-12.53-1.065-18.11-1.065-6.62 0-13.338-1.342-17.046-3.196-5.275-2.638-11.498-5.07-18.111-6.392-4.534-.907-6.511-2.13-12.784-2.13-6.354 0-12.742-5.84-18.111-8.524-1.373-.686-7.29-7.289-8.523-8.523-.92-.92-10.225 2.345-12.784 1.066-4.934-2.467-8.226-2.856-13.85-4.262-4.21-1.052-6.498-5.823-8.523-8.522-2.485-3.313 8.802-2.688 10.654-6.392.088-.177 11.527 4.357 13.85 3.196 2.25-1.126 10.519 2.363 13.849 3.196 6.674 1.668 2.346-10.438 0-12.785-4.638-4.637 11.288-.425 13.85-1.065 8.344-2.086-7.798-5.145 12.784 0 5.548 1.387 4.685 4.262 12.784 4.262 8.402 0 4.002-3.714 2.13-7.458-.655-1.311-13.665-3.637-14.914-4.261-4.062-2.031-3.646-10.487-5.327-13.85-3.549-7.097-7.458-4.742-7.458-13.85 0-6.592-6.891-7.74 1.066-11.718 1.926-.963 5.867-9.604 6.392-10.654 3.128-6.256 12.39 6.827 19.176 8.523 7.9 1.975 7.203-1.32 2.13-6.392-2.813-2.814-10.05-4.233-12.783-5.327-3.678-1.47-7.503-8.568-10.654-11.719-3.527-3.527-3.196-6.246-3.196-13.85 0-3.55 5.53-5.077 6.392-8.522.997-3.986 5.358-6.392 10.654-6.392 7.844 0 15.038 5.898 17.045-2.13.997-3.988 10.794 5.466 11.72 6.391 3.18 3.182 7.477 4.696 11.718 6.392 8.585 3.434 9.44-.77 11.719-5.326 3.525-7.051-5.355-9.07-8.523-10.654-5.709-2.854-5.571-4.261-13.85-4.261-3.126 0-8.14-7.381-13.85-8.523-3.638-.728-7.878-8.374-9.587-10.653-3.58-4.772 4.91-9.589 8.523-9.589 7.45 0 13.049 4.462 22.372 2.131 6.331-1.583 10.682 5.348 14.915 8.523 4.66 3.494 8.905 3.367 13.85 2.13 3.444-.86 3.88-6.011 6.391-8.522 4.032-4.032 8.06-3.498 13.85-6.392 2.164-1.082 5.327-6.381 5.327-10.654 0-4.335 9.602-3.252 10.653-7.457.78-3.118 7.626 10.99 8.523 12.784 2.756 5.512 3.726 11.73 2.13 18.11-.749 2.999-10.27 8.37-12.783 11.72-5.984 7.978-3.825 7.583-13.85 9.588-.57.114-6.962 10.406-9.588 11.719-6.013 3.006-7.117 1.676-10.654 6.392-1.753 2.337 10.404 8.993 12.785 9.588 5.46 1.365 5.318 4.261 12.784 4.261 6.599 0 6.036-1.77 7.457-7.457.853-3.41 6.605-4.047 7.458-7.458 1.546-6.185 2.968-7.23 6.392-10.653 3.216-3.217 4.911-8.108 7.457-10.654 3.076-3.076 3.858-8.155 9.588-9.588 6.178-1.544 1.832-8.14 11.72-3.196 13.225 6.613 8.884-7.095 21.306 5.327 5.522 5.522 6.778 12.306 5.327 18.11-1.512 6.047-7.297 11.861-9.588 14.916-3.836 5.114-12.213 3.196-18.111 3.196-9.43 0-9.685-6.23-15.98 4.261-3.729 6.214-10.654-5.074-10.654 8.523 0 7.608 7.857 10.22 13.85 11.719 5.064 1.266 9.395 3.196 14.914 3.196 6.941 0-1.87 13.59-2.13 13.85-1.79 1.79-.123 13.274-1.066 17.045-1.743 6.972-3.196 11.709-3.196 19.176 0 4.11-14.8-5.211-14.915-5.326-3.176-3.177-8.279 10.775-4.26 12.784 3.893 1.947 13.673-2.353 17.045-3.196 6.333-1.584 3.379 13.013 7.457 18.11 3.786 4.733-3.003 9.807-6.392 10.654-6.213 1.553-7.457 9.111-7.457 14.915 0 3.252-16.248-8.79-17.046-9.588-3.781-3.781-6.984-4.972-11.719-8.523-4.146-3.11-5.486-8.951-7.457-1.065-1.897 7.588 6.04 13.497 9.588 17.045 4.56 4.56-1.149 3.238-5.327 5.327-3.825 1.912.847 8.96-1.065 12.784-2.614 5.227-5.93 4.563-11.72 7.458-1.893.947-8.834-2.469-10.653-3.196zM334.52 104.573c-5.707 2.853-9.779 2.016-11.72 11.719-.333 1.668-15.963-1.061-15.98-1.065-13.001-3.25 2.93-14.969 6.393-17.046 7.09-4.254-4.63-9.588 8.522-9.588 8.043 0 7.26 1.262 11.72-3.196 2.838-2.839 2.482 16.814 1.065 19.176z" opacity=".996" fill="#fd5" />
   <path d="M427.205 494.49c4.216-4.215 3.616 21.34 7.457 2.132 1.402-7.01 1.824-7.458 10.654-7.458 7.54 0-.002-9.59-2.13-11.719-2.578-2.577-1.066-11.224-1.066-14.915 0-.411 5.66-11.321 6.392-12.784 3.04-6.079-1.47-9.184 3.196-13.85 2.316-2.316-2.807-8.133-4.261-9.587-2.896-2.896 3.166-7.487-2.131-12.785-3.564-3.564-6.761-4.446-10.654-6.392-4.177-2.089-.041-9.672-2.13-13.85-2.021-4.04-6.375-5.322-10.654-6.391-6.669-1.668-8.43 3.15-12.784 5.326-5.697 2.849-6.658-8.52-7.457-11.718-.942-3.765 4.202-12.725 5.326-13.85 6.255-6.255 2.286-8.368-2.13-12.784-4.79-4.79-5.128-6.992-12.784-8.523-7.54-1.508-7.433 13.899-12.785 3.196-3.608-7.216-8.69 2.798-9.588 6.392-1.726 6.906 1.166 10.553-3.196 14.915-1.879 1.88-9.682-6.486-10.653-7.457-5.561-5.561-6.818 4.9-7.458 7.457-.912 3.65-11.035 1.427-13.85 2.13-4.646 1.162-2.567-6.774-5.326 4.262-.757 3.029-8.523-2.343-8.523 8.523 0 3.906-7.457 7.771-7.457 13.85 0 6.15-7.348 9.588 2.13 9.588 4.804 0 10.434 8.083 11.72 10.653 1.236 2.473 7.471 5.341 9.587 7.458 4.49 4.49 5.62 4.74 3.196 9.588-.28.562-8.602 5.406-9.588 6.392-3.833 3.833-4.69-10.017-8.523-13.85-4.18-4.18-7.455-8.522-11.718-10.653-6.145-3.072-10.76 1.17-13.85 4.261-6.476 6.476-10.025 8.086-14.915 3.196-4.023-4.023-9.172-6.184-13.85-8.523-7.052-3.526-7.75-2.13-17.045-2.13-7.073 0-8.76-4.852-12.784 3.196-2.266 4.532-6.392-8.354-6.392-10.654 0-6.82 9.406-1.065 13.85-1.065 7.516 0 14.37-1.87 20.24 1.065 1.934.967 12.077.415 15.981 1.066 4.431.738-1.566-9.191-4.261-12.785-3.33-4.44-6.709-5.643-9.588-8.522-4.916-4.916 7.442-6.392 11.718-6.392 10.468 0 6.556-5.737 5.327-10.654-1.306-5.224-4.679-6.81-7.457-9.588-3.927-3.927-12.224-2.005-15.98-1.065-4.125 1.03-9.666-3.235-11.72-4.262-3.295-1.648-5.792-5.793-8.522-8.523-3.647-3.647-8.386-3.23-12.784-2.13-6.588 1.647-9.9-1.976-15.98 1.065-3.741 1.87-12.984-8.722-14.915-10.653-3.274-3.274-9.358-2.189-13.85-1.066-4.686 1.172-4.203 9.559-8.523 11.719-5.326 2.663-7.643 9.774-10.653 12.784-4.197 4.197 10.052 3.579 12.784 4.262 7.889 1.972 14.032-1.248 18.11-5.327 1.041-1.04 14.016-1.906 14.916-2.13 4.241-1.061 5.708-.97 13.85 1.065 5.779 1.444 8.361 7.15 13.849 8.522 4.564 1.141-8.102 9.217-9.588 9.588-5.238 1.31-9.469-1.065-15.98-1.065-6.978 0-10.195-.917-12.785 4.261-2.49 4.98 7.303 8.978 10.654 10.654 5.903 2.952 6.392 9.171 6.392 14.915 0 7.9-.286 8.061-6.392 9.588-5.282 1.32-12.335-3.196-19.176-3.196-8.897 0-12.25-2.262-19.177-7.457-9.815-7.362-6.598-3.277-13.85 6.392-2.978 3.971-5.18 11.234-4.26 14.915 1.741 6.967-9.483 5.75-7.458 13.849 1.183 4.733 3.638 11.953 7.457 17.046 2.897 3.862 9.036 5.455 12.784 6.392 4.933 1.233-4.21 12.68-4.26 12.784-3.679 7.356 5.064 9.938-1.066 18.11-4.199 5.599-5.327 10.026-5.327 17.046 0 6.775 2.644 9.667 1.065 15.98-1.781 7.127 8.43 5.57 11.72 6.393 9.225 2.306 22.441 2.13 34.09 2.13 9.231 0 34.735-.643 25.569 8.523-2.588 2.588-9.24 3.022-11.72 4.262-6.583 3.292 4.358 8.522 7.458 8.522 3.043 0 6.544-10.498 7.458-12.784 3.32-8.298 3.594-7.856 9.588-13.85 3.666-3.665 1.853-6.855 8.523-8.522 4.69-1.173 3.34 6.392 10.653 6.392 4.735 0 .947 0 0 0 3.691 0 21 16.739 24.503 20.242 2.83 2.83 7.132 4.261 12.784 4.261 10.606 0 7.469-3.185 3.196-7.457-5.67-5.67-2.097-4.262 5.327-4.262 4.98 0 12.71 12.71 15.98 15.98 5.076 5.076 9.773 3.012 13.85-1.065 5.042-5.042-5.241-14.34-10.653-17.045-6.367-3.184-8.185-5.039-9.589-10.654-2.252-9.009-4.261-10.919-4.261-20.242 0-8.11 9.02-7.6 13.85-6.392 8.663 2.166 1.326 9.609 0 14.915-1.358 5.432 3.642 10.894 7.457 15.98 4.872 6.497 7.855 5.598 10.653 0 3.312-6.622-2.316-10.607 6.393-12.784 1.616-.404 5.388-9.65 6.392-10.653 6.944-6.944-5.68-15.27 12.784-10.654 9.594 2.399.778 11.227-1.066 14.915-2.391 4.783-8.016 8.575-10.653 13.85-2.7 5.4 6.475 9.609 10.653 10.653 7.293 1.823 13.85 3.277 13.85-5.327v-20.241c0-9.298 3.808-13.238 7.457-9.588 2.219 2.218 3.119 14.759 5.327 19.176 3.243 6.485 4.252 9.578 10.654 15.98 5.636 5.637 7.457-9.241 7.457-11.719 0-7.258 6.948-7.411 3.196-14.915-2.58-5.16-6.922-7.447-8.523-13.85-1.564-6.257-3.168-11.297 4.262-12.783 8.93-1.786 10.653 1.025 10.653 8.523 0 4.483-.883 3.019 5.327 4.26z" opacity=".996" fill="#fd5" />
   <path d="M380.33 422.047c-.993-3.973-9.176-8.85-12.785-10.653-5.698-2.85-5.326-4.057-5.326 5.326 0 5.016-8.523-1.388-8.523 7.458 0 7.683-3.666 5.922 1.065 10.653 2.932 2.932 1.885 8.277 5.327 11.72 3.893 3.892 6.91 4.397 11.719 3.195 4.596-1.149 2.047-9.253 3.196-13.85 1.635-6.54 3.964-7.035 5.327-13.849z" opacity=".996" fill="gray" stroke="#fe0000" stroke-width="2" />
   <path d="M176.848 479.576c.32-1.279 14.4 12.27 15.98 13.85 4.67 4.67 9.206-5.627 9.588-6.393 2.563-5.126 9.953-8.887 13.85-12.784 2.785-2.785 5.463-8.003 6.392-11.719 1.362-5.447 12.01-1.356 15.98-5.326 3.545-3.545-7.083-8.163-8.523-8.523-4.62-1.155-7.424-5.294-9.588-7.458-4.474-4.473 4.058-11.617-6.392-6.392-6.016 3.008-3.311 7.458-11.719 7.458-6.966 0-9.184-1.58-10.653-7.458-1.33-5.322-1.334-8.724-5.327-11.718-4.11-3.083-5.302-4.262-11.719-4.262-6.93 0-8.232-.97-9.588-6.392-1.458-5.831 2.157-10.757 3.196-14.915 1.39-5.557 3.559-7.073 2.13-12.784-2.06-8.245-12.239.52-12.783 1.065-3.732 3.732-6.81 4.424-11.72 3.196-4.828-1.207-7.132-4.099-11.718-6.392-7.342-3.67 5.848-11.392 6.392-11.719 4.208-2.524 12.245-1.065 17.046-1.065 5.858 0 6.223-3.584 7.457-8.523 1.515-6.06-3.445-9.837-6.392-12.784-4.046-4.046-11.263.456-14.915-3.196-5.581-5.581 12.605-6.356 12.784-6.392 5.82-1.164 9.17-3.196 15.98-3.196 7.437 0 9.448-6.954 8.523-10.654-1.805-7.222-9.466-11.718-15.98-11.718-7.084 0-8.638-1.123-12.784-3.197-7.045-3.522 2.925-11.118 5.327-11.718 7.08-1.77 9.837-4.262 17.045-4.262 8.13 0 14.442 2.251 10.654-5.326-1.187-2.373-9.506-7.376-11.72-9.589-3.248-3.249-2.309-14.028-7.457-19.176-3.072-3.073-13.83-.804-17.045 0-1.27.317-8.285-10.416-8.523-10.653-2.007-2.008-2.452-3.518-4.261-5.327-3.416-3.416-4.262 9.02-4.262 13.85 0 5.608 1.918 10.44 4.262 12.784 3.36 3.36 5.128 6.392-3.196 6.392-6.49 0-6.392 3.06-6.392 9.588 0 4.382-4.083 7.278-6.393 9.588-2.577 2.577-11.224 1.065-14.914 1.065H89.49c-5.84 0-4.27 6.427-5.327 10.654-.918 3.669-9.535 2.13-13.85 2.13h-15.98c-4.157 0-7.563 4.262-11.719 4.262-5.09 0-11.438.196-14.915 1.065-3.82.955 5.3 13.814 5.327 13.85 4.095 5.46 8.281 5.427 9.588 10.653.073.292 7.385 5.181 8.523 7.458 2.558 5.115 3.712 4.193 5.327 10.653 1.539 6.158 3.882 7.078 7.457 10.654 3.437 3.437 8.613 5.326 12.784 5.326 5.824 0 9.432.44 10.654 5.327 1.461 5.846.734 11.535-4.262 12.784-3.05.763-.409 13.28 0 14.915 1.162 4.646 0 11.164 0 15.98 0 4.55 4.876 7.007 7.458 9.589 1.994 1.994 9.919 2.48 12.784 3.196 3.431.858 5.74 8.285 7.457 11.719 2.557 5.113 7.034 5.326 12.785 5.326 5.79 0 10.192 1.066 15.98 1.066 6.267 0 7.251-2.131 13.85-2.131 5.021 0 .912-10.043 2.13-14.915 2.27-9.078 9.188 6.922 9.588 8.523 1.302 5.206.036 11.86 1.065 15.98 1.569 6.272 2.473 8.979 5.327 12.784 3.405 4.54 3.111-3.536 5.327 5.327z" opacity=".996" fill="gray" stroke="#fc0000" stroke-width="2" />
   <path d="M213.07 570.13c1.42 0 4.261 1.421 4.261 0 0-7.59-5.526-7.024-12.784-10.653-1.357-2.714-.482-7.166-3.196-8.523-3.376-1.688-3.683-8.522-7.457-8.522-5.567 0-10.946-1.066-15.98-1.066-7.288 0-8.61-5.326-11.72-5.326-12.468 0 .167-5.777-5.326-8.523-1.665-.833-11.42-2.897-12.784-4.262-8.922-8.92-.501-5.453 0-7.457 1.738-6.953 3.118-5.25 7.457-9.588 4.022-4.023 4.109-5.48-1.065-10.654-1.439-1.438-6.849-13.85-1.066-13.85 7.98 0 7.941-1.646 4.262-5.326-2.26-2.26-5.055-12.648-9.588-14.915-1.414-5.654-4.07-2.567-9.589-5.327-5.163-2.581-4.769-3.937-11.718-5.326-7.176-1.436-4.004-6.19-11.72-4.262-8.725 2.182-4.952-3.009-11.718-6.392-5.63-2.815-3.8-9.473-8.523-10.653-2.142-.536-12.177-1.834-12.784-4.262-1.02-4.082 0-9.892 0-13.85 0-5.424 1.065-8.785 1.065-14.914 0-2.186-1.222-14.343 1.066-14.915 6.657-1.664 5.039-4.866-1.066-6.392-4.492-1.123-10.575 2.208-13.85-1.066-2.044-2.045-8.214-4.022-9.587-7.457-1.351-3.377-5.84-12.703-6.393-14.915-1.036-4.147-2.405-9.39-7.457-10.653-4.502-1.126-10.586-.796-11.719-5.327-1.657-6.627-16.419-18.111-9.588-18.111 5.656 0 9.343-5.327 9.588-5.327 3.089 0 6.627 4.262 9.588 4.262 7.623 0 10.61-4.783 12.785-5.327 5.138-1.285 7.504 1.065 12.784 1.065 2.936 0 13.377-2.371 13.85-4.261 1.482-5.93 1.032-9.047 7.457-10.654 3.425-.856 12.148-3.62 13.85-3.196 3.154.789 9.877 4.722 11.718 4.262 1.046-.262 6.34-.856 7.458-5.327.375-1.503.726-12.784 3.196-12.784 2.677 0 15.658.422 13.85-3.196-1.859-3.716-2.933-6.403-4.262-11.72-.986-3.94-3.295-8.325-1.066-12.783.55-1.1 6.73-11.72 9.588-11.72 1.711-1.282.939-3.195 4.262-3.195 5.406 0 9.437-.762 14.915-2.13 10.82-2.706-5.547-1.947-6.392-5.328-1.097-4.388-1.676-12.631 3.196-13.85 3.788-.946 9.588-5.467 9.588-9.587 0-6.633 6.392-6.268 6.392-10.654 0-2.502-1.698-15.348 0-17.045 2.534-2.535 6.734-8.694 10.653-10.654 6.312-3.156 2.066-4.132 5.327-10.653 1.792-3.585.712-8.882 3.196-13.85 1.358-2.715 8.067-6.7 8.523-8.523 1.381-5.525.863-6.874 7.457-8.523 4.558-1.139 9.185-4.665 3.197-10.653-1.606-1.605-12.305-14.262-2.131-11.719 8.904 2.226 5.029-2.514 10.653-5.327 3.22-1.61 8.523-3.037 8.523-8.522 0-9.52 7.458-1.092 7.458-9.589 0-12.265.355-5.77 6.392-4.261 6.4 1.6 3.815-2.75 7.457-6.392 5.332-5.332.869-6.392 11.719-6.392 2.611-.653 9.267-3.196 10.653-3.196 9.564 0 5.529-2.534 8.523-8.523 2.302-4.604 4.924-4.924 9.588-9.588 2.375-2.375 7.003-9.283 8.523-8.523 10.5 5.25 7.166-3.196 9.588-3.196 8.178 0 9.495-7.434 9.588-7.457.71 0 1.442.172 2.131 0 6.301-1.576 6.78-4.262 13.85-4.262 9.823 0 4.15 6.365 8.522 7.458 3.991.997 7.756 4.336 11.72 5.326 3.582.896 10.087 2.273 14.914 1.066 4.004-1.001 9.472-1.066 14.915-1.066 5.137 0 11.319 1.066 14.915 1.066 5.427 0 9.261 2.479 14.915 1.065 8.1-2.025 5.357-1.004 8.523 5.327 1.718 3.435 7.87 9.828 9.588 6.392 2.015-4.031 1.718-7.458 8.523-7.458 4.767 0 10.901.942 14.915-1.065 3.901-1.95 5.08-4.59 10.653-3.196 4.756 1.189 6.47 4.833 9.588 6.392 3.59 1.795 5.004 8.361 7.458 9.588 2.37 1.186 12.197.957 12.784 2.131 1.781 3.563 3.825 6.174 8.523 8.523 3.72 1.86 5.347 4.261 11.718 4.261 4.817 0 11.335 1.162 15.98 0 8.843-2.21-.13-5.064 3.197-11.719 2.555-5.11 8.142-1.978 10.653-5.326 3.035-4.047 4.97-9.94 7.458-14.915 2.362-4.726 7.88-10.21 10.653-10.654l4.262-4.261c4.304-4.304 12.783-6.392 18.11-6.392 4.868 0 7.66 5.542 12.785 4.261 5.061-1.265 2.253-4.763 8.522-3.196 3.446.861 3.216-6.935 6.393-8.523 1.092-.546 2.243-1.496 3.196-2.13" opacity=".996" fill="none" stroke="#000" stroke-width="4" stroke-dasharray="8 4 2 4" />
   <path d="M514.564 64.09c0 4.915.626 9.148 4.261 12.784 2.473 2.473 3.413 6.195 4.261 9.588 1.21 4.836-9.93 1.066-14.914 1.066-7.345 0-9.366-.223-12.785 3.196-5.376 5.376-8.235-7.542-10.653 2.13-.071.285-11.596 4.2-11.719 4.262-3.073 1.536-9.81-8.746-11.719-10.654-4.332-4.332-2.89-4.567-7.457 0-3.003 3.003-5.705 6.77-8.523 9.588-4.911 4.912-7.853.519-9.588 7.458-.969 3.875-9.9 6.015-12.784 7.457-4.178 2.09 4.22 9.672 2.13 13.85-1.284 2.568-7.811 6.035-9.588 9.588-1.81 3.621-7.777-3.836-9.588-7.458-1.318-2.637-14.485-1.065-17.046-1.065-7.026 0-9.92-1.314-13.85-4.261-6.65-4.989 1.557 2.13-9.587 2.13h-15.98c-5.61 0-11.715-4.257-13.85-6.392-1.483-1.483-6.08 5.327-10.653 5.327-6.91 0-9.474.23-11.72-4.261-2.423-4.848-5.911-9.469 2.131-7.458 7.06 1.765 8.806-2.13 14.915-2.13 4.738 0-1.077-9.612-3.196-13.85-1.701-3.402-10.04-3.616 1.066-6.392 4.546-1.137 9.71 4.261 14.914 4.261 6.37 0 7.796-1.842 6.393-7.457-1.496-5.984 6.774-4.603-1.066-8.523-4.708-2.354-8.255-1.06-9.588-6.392-.815-3.262 8.527-5.331 9.588-6.392 1.118-1.118 12.857-.569 13.85-1.066 4.107-2.053 1.036-6.917 7.457-8.522 4.575-1.144 6.793-5.728 7.458-6.392 1.299-1.3-3.79-9.83-4.262-11.72-1.598-6.391.089-.177 1.066-2.13" opacity=".996" fill="none" stroke="#000" stroke-width="2" stroke-dasharray="4 2 1 2" />
   <path d="M327.062 125.88c-1.317-5.27 4.514 10.71 3.196 15.98-1.171 4.686-9.53-2.101-13.85-4.261-6.644-3.323-5.058-8.324-12.783-6.392-9.193 2.298-5.735-5.577-4.262-8.523 1.852-3.704-6.636 5.388-10.653 6.392-5.406 1.351-7.44.017-10.654-3.196-3.024-3.024-4.246 9.588-8.523 9.588-1.903 0-3.158-6.354-5.326-8.523-2.664-2.663-7.99-2.663-10.654-5.326-3.57-3.57-8.287-3.196-11.719-3.196-4.67 0-.042-9.672-2.13-13.85-2.15-4.3-9.887-4.943-12.785-6.392M520.956 88.593c-2.037-1.019 11.044 3.764 8.523 13.85-1.846 7.383-3.27 14.033-5.327 19.176-2.49 6.226.374 11.152 3.196 14.915 3.758 5.011 4.261 13.109 4.261 19.176 0 5.432-10.71-1.879-15.98-3.196-4.358-1.09-8.292 4.261-12.784 4.261-5.953 0-2.665 11.721-5.327 17.046-2.551 5.102-9.292 4.557-2.13 11.719 4.212 4.212 2.17 10.572 1.065 12.784-2.43 4.859-10.71-1.879-15.98-3.196-4.385-1.096-5.069 9.588-9.589 9.588-6.772 0-7.457 6.523-7.457 11.719 0 9.22-4.585 4.49-6.392 11.719-1.505 6.019-8.588-2.196-10.654-4.262l-3.196-3.196c-5.862-5.862-11.719 8.583-11.719-5.327 0-4.318 5.847-12.766 7.458-14.914 3.933-5.245-5.629-11.413-7.458-12.785-5.467-4.1-9.034-3.237-5.326-10.653.855-1.71 1.42-3.551 2.13-5.327 3.6-8.998-5.313-12.255-11.718-10.653-7.932 1.983-9.589-1.75-9.589-8.523 0-6.383-3.196-8.058-3.196-12.784v-4.262c0-.432 7.048-1.065 8.523-1.065" opacity=".996" fill="none" stroke="#000" stroke-width="2" stroke-dasharray="4 2 1 2" />
   <path d="M530.544 157.84c0-1.993 8.096 9.802 17.045 5.327 6.993-3.496-5.06-10.653 8.523-10.653 14.67 0 6.492 4.552 18.111 7.457 5.308 1.327 10.654 7.813 10.654-2.13 0-5.857 12.904-.12 17.045-4.262 6.3-6.3-2.742-13.85 8.523-13.85 6.671 0 12.091-1.424 19.176-3.195 10.179-2.545 9.17-6.231 21.307-3.196 10.668 2.666 14.519-3.716 12.785-10.654-.758-3.028 9.839-8.462 10.653-11.719.97-3.883 23.869.203 27.7-7.457 2.704-5.41-10.253-7.983-11.72-13.85-1.721-6.887-6.624-10.886-9.588-13.85-2.585-2.585-3.551-6.391-5.327-9.587-3.951-7.113 5.323-13.85-6.392-13.85-5.012 0-9.553-5.292-11.719-7.457-2.024-2.025-2.84-4.972-4.26-7.458-1.058-1.85 0-4.261 0-6.392L621.098 5.496M584.877 166.363c-.045-.078 16.787-1.323 19.176 1.066.956.956 5.025 10.351 8.523 13.85 4.284 4.284-1.809 10.33-3.196 11.718-2.69 2.69-1.758 13.104-3.196 15.98-.514 1.028 6.128 13.859 6.392 14.915 1.304 5.219 9.451 3.497 14.915 2.13 4.357-1.089 2.252 8.767 4.261 12.785 1.144 2.287 4.056 7.047 5.327 9.588 2.385 4.77-2.13 12.987-2.13 19.177 0 5.967 7.12 7.457 11.718 7.457 9.248 0 10.653 1.09 10.653 9.588 0 2.496 11.676 8.349 12.785 12.784 1.756 7.026-.182 9.588-6.392 9.588-6.148 0-12.613.31-18.111-1.065-5.376-1.344-7.985 5.316-9.589 8.523-2.586 5.173-8.735-3.41-10.653-5.327-5.983-5.983-10.052-7.457-18.111-7.457-4.527 0-8.984-10.37-9.588-12.784-.172-.69 0-1.421 0-2.131-1.197-4.786-5.251 8.371-7.458 12.784-1.76 3.52-9.588-8.146-9.588 5.327 0 4.156-4.261 7.562-4.261 11.719 0 .414-10.117-6.124-10.654-6.393-6.823-3.411-6.139-7.394-10.653-8.522-5.168-1.292 0 10.653 0 15.98 0 4.392-8.855-1.232-12.784-3.196-5.862-2.93-4.262-10.018-4.262-15.98 0-5.554-9.26-1.066-12.784-1.066-4.626 0-5.327-11.693-5.327-14.915 0-6.443.956-11.28 2.131-15.98 1.59-6.358 4.887-9.258 9.588-12.784 1.27-.953 2.841-1.42 4.262-2.13 4.403-2.202 3.31-8.983 4.261-12.785 1.29-5.157 8.97-2.857 10.654-9.588 1.606-6.427 3.196-11.078 3.196-18.111 0-7.432-.473-11.479-2.131-18.11-2.049-8.195-.306-9.642-4.262-14.916-2.353-3.138-1.065-7.796-1.065-11.719" opacity=".996" fill="none" stroke="#000" stroke-width="2" stroke-dasharray="4 2 1 2" />
   <path d="M638.144 251.591c-3.146-4.195 16.081-9.588 19.176-9.588 4.522 0-.247-11.605 12.785-6.392 2.4.96 4.971 1.42 7.457 2.13 4.644 1.328 3.837-10.547 8.523-11.718l12.784-3.196M676.497 110.965c7.668-1.917 8.63 15.348 9.588 19.176.49 1.964 12.075 3.907 12.784 4.262M672.235 301.663c.794 3.176 5.598 4.28 6.392 7.457 1.383 5.53 2.113 10.618 4.262 14.915 3.33 6.659 9.588-2.335 9.588 10.654 0 5.76-8.523 5.495-8.523 13.85 0 7.452-.641 15.545 1.066 22.371 1.158 4.635-9.495 4.954-10.654 9.589-1.994 7.976-.734 8.191-3.196 10.653-2.716 2.716-6.54-11.13-9.588 1.065-1.396 5.583.006 8.523-7.458 8.523-5.928 0-7.146-3.95-10.653-7.457-4.638-4.638-8.624-5.461-11.719-9.588-3.347-4.464-2.85-5.946-9.588-4.262-3.417.854-9.866-9.078-10.654-10.653-1.49-2.982-14.426-4.706-15.98-5.327-2.879-1.152-4.231-12.724-5.327-14.915-3.234-6.47-6.828-7.894-10.653-11.719-6.678-6.678-3.353-7.3 2.13-12.784 2.076-2.076 13.04-2.13 0-2.13-6.127 0-7.457-2.369-7.457-8.523M432.532 218.565c0-5.824-8.049 8.64-10.654 13.85-1.472 2.944-1.188 10.078-2.13 13.85-1.388 5.548 1.433 9.183 0 14.914-1.2 4.795-.744 2.677 1.065 11.72.733 3.666-3.973 9.01-5.327 11.718-2.089 4.178 9.318.998 13.85 2.13 5.985 1.497 8.58 3.313 10.653 7.458 1.425 2.85 5.194 8.256 6.392 10.654 1.77 3.537 16.85-.968 17.046-1.066 5.518-2.759-1.965-9.588 10.653-9.588 7.849 0 12.561-.111 19.177 3.196 2.525 1.263 1.065 12.211 1.065 14.915 0 4.157-2.763 7.06-1.065 13.85.907 3.628 11.327-1.935 11.719-2.131 3.018-1.509 10.603 1.065 14.914 1.065 6.455 0 5.678-4.524 9.589-7.457 4.112-3.084 6.76-3.565 10.653-7.458M404.833 137.599c3.176-3.176-11.695-.096-12.784 4.261-2.744 10.973 8.398 10.685-4.262 13.85-5.484 1.371-12.658-.032-17.045 1.065-5.283 1.32-7.458 2.368-7.458 8.523 0 5.698-8.54 1.327-9.588 1.065-4.969-1.242 3.942 10.494 8.523 12.785 5.226 2.612-1.721 10.448-4.262 11.718-5.856 2.929-5.203 6.392-11.719 6.392-8.601 0-4.228-4.785-10.653-6.392-2.305-.576-2.993 11.973-3.196 12.785-1.969 7.875-4.875 5.02-10.654 2.13-6.165-3.082-7.853-4.893-13.85-6.392-4.812-1.203-8.146-4.95-10.653-7.457-3.26-3.26-8.926-4.262-13.85-4.262-7.125 0-8.383-.787-10.653-5.326-2.252-4.506-4.886-4.633-6.392-10.654-1.185-4.74-4.853-4.5-6.392-10.653-1.161-4.646 0-11.164 0-15.98 0-4.61 4.314-6.952 7.458-8.523" opacity=".996" fill="none" stroke="#000" stroke-width="2" stroke-dasharray="4 2 1 2" />
   <path d="M284.448 186.605c3.98-1.99-7.471 7.402-6.392 11.719.974 3.896 9.621 5.343 11.719 6.392 2.245 1.123.78 11.645 1.065 12.784 1.337 5.349-7.374 4.262-12.784 4.262-4.616 0 2.063 9.52 5.327 12.784l3.196 3.196c1.118 1.117 2.97 14.846 3.196 15.98 1.602 8.01-3.418 6.392-9.588 6.392-5.682 0 0 11.364 0 17.046 0 7.83 1.864 10.653-6.392 10.653-5.512 0-9.519-.996-12.784-4.261-4.892-4.892-6.19-7.458-13.85-7.458-7.924 0-7.961-2.634-11.719-6.392-3.757-3.757-6.176-8.307-9.588-11.719-3.47-3.469-5.326-6.39-7.457-10.653-3.1-6.2-10.396-.258-11.72 1.065-2.821 2.822-8.133 3.027-11.718 2.13-3.928-.981-4.595-6.724-7.458-9.587-5.002-5.002-7.228-2.436-10.653 2.13-2.412 3.216-9.806 3.197-13.85 3.197-6.226 0-9.825-1.125-13.85-2.131-2.5-.625-3.927-2.497-5.326-3.196" opacity=".996" fill="none" stroke="#000" stroke-width="2" stroke-dasharray="4 2 1 2" />
   <path d="M281.252 286.748c-4.205-1.052 8.509 6.448 7.458 10.653-1.177 4.708-7.08 8.429-11.72 9.588-8.315 2.08-8.477-1.155-11.718 5.327-2.734 5.469-8.754.924-10.654 8.523-.99 3.96.883 11.385 0 14.915-1.635 6.54-.532 7.99-4.26 11.719-2.034 2.033-7.708 4.59-10.654 5.326-5.845 1.462-10.159-1.065-15.98-1.065-3.18 0-8.848-6.716-10.654-8.523-4.767-4.767-3.764-3.977-9.588-1.065-6.667 3.334-9.13.296-10.654 6.392-.908 3.632-12.992 2.13-15.98 2.13-2.97 0-7.837-8.216-8.523-9.587-2.208-4.417-6.404-6.392-11.719-6.392-7.246 0-4.848 3.875-10.653 5.326-5.195 1.299-10.982-.184-15.98 1.066-4.275 1.068-8.708 2.13-13.85 2.13-4.708 0-6.08-4.637-9.588-6.392-4.806-2.403-4.552-4.261-11.719-4.261-3.715 0-4.261-7.523-4.261-11.719 0-2.807-6.4-8.531-7.458-9.588-2.377-2.377-2.194-1.646-4.261-3.196M127.842 450.812c-4.261-4.262 7.394-10.09 12.784-12.785 4.135-2.067 7.038-7.682 8.523-10.653 2.005-4.01 3.258-7.52 6.392-10.654 6.786-6.786.59-8.137 10.653-10.653 6.633-1.658 7.387-3.196 13.85-3.196 1.399 0 11.1 2.13 15.98 2.13 7.037 0 11.87 2.433 13.85 6.393.863 1.725 3.06-12.24 3.196-12.785.543-2.174 9.455-1.597 10.653-6.392.565-2.257 16.223 1.925 17.046 2.131l4.261 1.065c7.867 1.967 10.654-.324 10.654-7.457 0-5.223 6.876-5.448 10.653-6.392 4.018-1.005-3.463-7.725-6.392-10.654-4.949-4.949-2.054-5.573-9.588-7.457-4.35-1.088-3.196-8.292-3.196-12.784 0-.502.71-.71 1.065-1.066" opacity=".996" fill="none" stroke="#000" stroke-width="2" stroke-dasharray="4 2 1 2" />
   <path d="M202.416 547.758c0-.608 13.928-2.13 19.177-2.13 6.606 0 5.114-5.541 6.392-10.654 1.334-5.339 3.83-9.158 6.392-11.719 4.538-4.538 1.871-7.457 9.588-7.457 6.59 0 6.406 4.903 13.85 6.392 3.55.71 10.902-2.13 17.045-2.13 2.36 0-.698-13.446-1.065-14.916-1.213-4.85 9.827-13.023 11.719-14.914 2.98-2.98-4.661-8.923-6.393-10.654-2.663-2.663-6.924-3.729-9.588-6.392-6.62-6.62 7.354-7.458 10.654-7.458 2.294 0 6.59-5.642 9.588-6.392.64-.16 0-15.254 0-17.045 0-6.63-.953-9.14-2.13-13.85-.844-3.375-6.056-.391-8.524-5.326l-5.326-10.654c-2.574-5.147-1.28-7.671-5.327-11.719-4.238-4.238-5.327-1.218-5.327-10.653v-4.262" opacity=".996" fill="none" stroke="#000" stroke-width="2" stroke-dasharray="4 2 1 2" />
   <path d="M283.383 489.164c0-10.546 16.044 13.935 22.372 22.372 2.424 3.232 1.066 10.734 1.066 14.915 0 7.274 3.196 3.559 3.196 11.72 0 6.736 1.637 6.391 9.588 6.391 6.965 0 4.162 6.788 3.196 10.654-.67 2.682-4.008 8.015-5.327 10.653-1.474-.584-.953 1.907-1.065 2.131M289.775 458.269c-3.176 6.353 14.205 0 21.307 0 5.407 0 8.2-3.196 14.915-3.196 8.7 0 9.05 3.735 14.915-2.13 5.34-5.341 3.438-2.131 13.85-2.131 6.584 0 6.786 3.867 11.718-1.066 6.005-6.005-1.903-6.981 8.523-9.588 5.601-1.4 4.261-5.12 4.261-11.719 0-9.376 11.72 1.076 11.72-8.523 0-7.337.58-8.28 5.326-10.653 7.352-3.676 11.656-4.261 20.242-4.261 5.319 0 10.688 7.47 15.98 9.588 4.815 1.926 11.836-1.095 15.98-2.131 4.647-1.162 6.712-10.893 10.654-13.85 4.103-3.077 10.081-2.13 15.98-2.13 5.034 0 11.289-2.13 18.11-2.13 9.263 0 4.289-6.286 3.197-10.654-1.155-4.62-7.013-9.144-9.588-11.72-8.992-8.991 7.631-8.522 11.718-8.522 1.291 0-5.108-12.347-5.326-12.784-2.816-5.632 2.632-11.156 4.261-12.784 5.52-5.52 10.654 5.95 10.654-6.393 0-2.773 5.326-3.618 5.326-6.392" opacity=".996" fill="none" stroke="#000" stroke-width="2" stroke-dasharray="4 2 1 2" />
   <path d="M366.48 452.942c0-6.431 5.007 13.424 2.13 19.177-2.839 5.678 3.382 7.531 8.524 9.588l4.261 2.13c5.467 2.734 8.188 4.657 10.654 9.589.994 1.988-2.875 5.546-2.131 8.522.393 1.575 2.494 11.042 3.196 13.85 1.051 4.205 7.588 4.392 10.653 7.457 2.763 2.762-.947 7.93 0 11.72 1.522 6.085 3.304 8.307 1.066 12.783-2.474 4.947-.492 8.523-7.458 8.523-2.866 0-9.66-1.35-12.784-2.13-6.04-1.51-7.79-2.647-12.784-6.393-5.337-4.002-5.156-5.326-12.784-5.326-3.909 0-4.11 8.827-8.523 0-1.761-3.522-4.945 2.035-9.588 3.196-5.97 1.492-8.605.82-13.85 2.13-.86.215-4.308-1.876-5.327-2.13M470.884 395.413c0 9.174-.242 16.466-4.261 24.503-2.465 4.93-1.065 14.341-1.065 20.242v21.307c0 6.528-.898 17.438-2.131 22.372-1.54 6.156-9.265 8.752-7.458 15.98 1.817 7.269 2.131 13.572 2.131 21.308 0 .22-6.273 7.16-6.392 7.457M499.649 394.348c0 4.553 11.636 8.01 13.85 7.458 10.83-2.708 13.77-5.366 26.633 1.065 4.015 2.007 6.392-7.316 6.392 5.327 0 5.772 6.392 4.08 6.392 11.718 0 6.202 13.726-.124 18.111 4.262 3.718 3.718 10.286-.35 11.719-1.065" opacity=".996" fill="none" stroke="#000" stroke-width="2" stroke-dasharray="4 2 1 2" />
   <path d="M536.936 529.647c0-1.282.24-3.061 0-4.261-.906-4.53.287-10.572-1.065-15.98l-1.066-4.262c-1.52-6.079-5.326-3.453-5.326-10.653 0-6.036-1.389-13.42 2.13-18.111 3.93-5.24 2.35-11.657 6.392-17.046 5.066-6.754 4.261-11.717 7.458-18.11 3.216-6.432 16.803-13.027 11.719-18.111.977 4.887 10.456 3.294 14.915 1.065 2.528-1.265 9.1-7.518 10.653-9.588 3.167-4.222 3.986-5.327 10.654-5.327h17.045c5.343 0 4.22 7.5 10.654 1.065 2.16-2.16 4.402 5.327 7.457 5.327 9.427 0-.865-11.719 8.523-11.719.523 0 9.32 3.662 11.719 4.262 2.756.689.689-5.767 0-8.523" opacity=".996" fill="none" stroke="#000" stroke-width="2" stroke-dasharray="4 2 1 2" />
   <path d="M571.027 425.243c5.976 1.494 11.719 21.41 11.719 29.83 0 14.688-1.755 15.463 7.457 22.372 4.654 3.49 4.1 16.398 5.327 21.307 1.39 5.56 5.327 6.685 5.327 12.784v4.262M649.863 407.132c0 5.35 5.68 16.343 4.261 23.438-1.327 6.636-3.113 10.141 3.196 11.719 4.873 1.218-5.681 11.364-2.13 14.915 4.601 4.601 12.784-5.798 12.784 4.261 0 3.776 4.147 7.933 7.457 9.588 3.991 1.996 6.918 3.328 10.654 4.262M449.577 305.924c4.32 2.16-6.362 7.399-8.522 11.719-1.117 2.234-15.414 3.196-18.111 3.196-3.177 0-1.086 8.523-4.262 8.523-3.97 0-1.168 7.867-2.13 11.719-1.123 4.492-8.941-3.754-11.72-7.458-.825-1.101-3.942 10.442-4.26 11.719-2.079 8.313 1.52 8.523-8.523 8.523-6.202 0 1.487 12.564 4.26 18.11 1.782 3.563 13.343 2.258 1.066 5.327-4.97 1.243-9.709 2.155-14.915 3.197-10.135 2.027 4.656 9.32 5.327 9.588 3.085 1.234 3.196 11.142 3.196 13.85v6.391M417.617 267.572c0 .944-13.297 2.525-15.98 3.196-4.493 1.123-5.606 3.196-12.785 3.196-5.877 0-9.197-8.025-6.392 3.196 2.742 10.967-7.317 2.41-8.522 0-3.315-6.629 3.81-10.767-4.262-12.785-8.575-2.143-9.34-.941-15.98-4.26-3.974-1.988-11.296 1.225-14.915 2.13-7.852 1.963-10.14 9.193-15.98 10.653-6.082 1.52.817 8.399-7.458 4.262-6.674-3.337-7.457-6.861-7.457-13.85 0-7.782-1.523-7.876-7.458-6.392-4.25 1.063 3.645 10.345-6.392 5.327-3.64-1.82-3.144-1.048-6.392-2.13M285.514 295.27c-5.4-2.7 12.074 0 18.11 0 3.301 0 7.684 4.488 9.589 6.393 5.019 5.019 2.284 5.365 10.653 7.457 4.823 1.206-1.206 10.092 0 14.915.523 2.09-2.502 2.824 2.13 7.457 5.556 5.556 3.298 5.353 11.72 7.458 5.27 1.318 4.635-7.774 9.588 2.13 1.754 3.51 0 12.975 0 17.046 0 3.121 5.43 7.87 6.392 11.72l1.065 4.26c1.927 7.706 6.193 10.924 7.458 15.98.28 1.12-1.744 11.136-1.066 13.85.218.869 8.45 4.114 9.589 6.392.052.105 9.306 7.78 11.718 9.588 2.577 1.933 0 1.683 0 2.131" opacity=".996" fill="none" stroke="#000" stroke-width="2" stroke-dasharray="4 2 1 2" />
   <path d="M256.75 86.462c4.65 1.567 9.121 5.327 15.98 5.327 5.294 0-3.93-6.472 14.914 1.065 3.904 1.562 12.374-4.916 13.85-6.392 3.94-3.94-.266-12.25-1.066-13.85-2.127-4.254-9.319-4.328-13.85-3.195-5.743 1.436-9.453 5.027-14.914 6.392-6.487 1.621-7.972-2.131-13.85-2.131-3.497 0-6.46 2.697-9.588 4.261-3.593 1.797 5.078 6.456 8.523 8.523z" opacity=".996" fill="gray" stroke="#fa0000" stroke-width="2" />
   <path d="M335.585 338.95c-4.27-4.27-7.688 4.32-11.719 5.327-8.315 2.078.733 8.007 4.262 10.653 2.296 1.723 12.921 0 15.98 0 6.299 0 3.277-5 2.13-9.588-1.42-5.68-4.689-5.2-10.653-6.392z" opacity=".996" fill="gray" stroke="#f60000" stroke-width="2" />
   <path d="M319.605 360.257a5.327 5.327 0 11-10.654 0 5.327 5.327 0 1110.654 0zM397.375 218.565a5.327 5.327 0 11-10.653 0 5.327 5.327 0 1110.653 0zM222.658 450.812a5.327 5.327 0 11-10.653 0 5.327 5.327 0 1110.653 0zM314.278 65.155a5.327 5.327 0 11-10.653 0 5.327 5.327 0 1110.653 0zM474.08 156.775a5.327 5.327 0 11-10.653 0 5.327 5.327 0 1110.653 0zM598.726 396.479a5.327 5.327 0 11-10.653 0 5.327 5.327 0 1110.653 0zM450.643 367.714a5.327 5.327 0 11-10.654 0 5.327 5.327 0 1110.654 0zM144.888 367.714a5.327 5.327 0 11-10.654 0 5.327 5.327 0 1110.654 0zM217.331 181.278a5.327 5.327 0 11-10.653 0 5.327 5.327 0 1110.653 0zM480.472 316.578a5.327 5.327 0 11-10.653 0 5.327 5.327 0 1110.653 0z" opacity=".996" /><text style="text-align:start;line-height:125%" x="67.117" y="358.126" font-size="18" font-weight="400" fill="#ffe680" font-family="Arial">
      <tspan x="67.117" y="358.126">Timişoara</tspan>
   </text><text style="text-align:start;line-height:125%" x="226.919" y="444.419" font-size="18" font-weight="400" fill="maroon" font-family="Arial">
      <tspan x="226.919" y="444.419">Reşiţa</tspan>
   </text><text x="274.86" y="382.629" font-size="18" font-weight="400" fill="maroon" font-family="Arial">
      <tspan x="274.86" y="382.629">Deva</tspan>
   </text><text style="text-align:start;line-height:125%" x="426.14" y="361.322" font-size="18" font-weight="400" fill="#0ff" font-family="Arial" writing-mode="lr">
      <tspan x="426.14" y="361.322">Sibiu</tspan>
   </text><text style="text-align:start;line-height:125%" x="424.009" y="305.924" font-size="18" font-weight="400" fill="#0ff" font-family="Arial">
      <tspan x="424.009" y="305.924">Mediaş</tspan>
   </text><text style="text-align:start;line-height:125%" x="333.454" y="211.108" font-size="18" font-weight="400" fill="maroon" font-family="Arial">
      <tspan x="333.454" y="211.108">Cluj-Napoca</tspan>
   </text><text style="text-align:start;line-height:125%" x="481.538" y="174.886" font-size="18" font-weight="400" fill="maroon" font-family="Arial">
      <tspan x="481.538" y="174.886">Bistriţa</tspan>
   </text><text style="text-align:start;line-height:125%" x="198.155" y="171.69" font-size="18" font-weight="400" fill="maroon" font-family="Arial">
      <tspan x="198.155" y="171.69">Oradea</tspan>
   </text><text style="text-align:start;line-height:125%" x="563.57" y="385.825" font-size="18" font-weight="400" fill="#0ff" font-family="Arial">
      <tspan x="563.57" y="385.825">Braşov</tspan>
   </text><text style="text-align:start;line-height:125%" x="300.428" y="56.632" font-size="18" font-weight="400" fill="maroon" font-family="Arial" writing-mode="lr">
      <tspan x="300.428" y="56.632">Satu Mare</tspan>
   </text>
   <path d="M527.348 305.924a5.327 5.327 0 11-10.654 0 5.327 5.327 0 1110.654 0z" opacity=".996" /><text style="text-align:start;line-height:125%" x="526.283" y="284.617" font-size="18" font-weight="400" fill="maroon" font-family="Arial">
      <tspan x="526.283" y="284.617">Sighişoara</tspan>
   </text>
   <path d="M339.42 347.836a5.327 5.327 0 11-10.653 0 5.327 5.327 0 1110.653 0z" opacity=".996" /><text style="text-align:start;line-height:125%" x="267.403" y="341.081" font-size="18" font-weight="400" fill="maroon" font-family="Arial">
      <tspan x="267.403" y="341.081">Orăştie</tspan>
   </text>
   <path opacity=".996" fill="#fff" stroke="#fe0000" stroke-width="1.934" d="M330.225 510.438h356.958v46.942H330.225z" /><text x="261.011" y="269.702" font-size="32" font-weight="400" fill="maroon" font-family="Arial">
      <tspan x="261.011" y="269.702">TRANSILVANIA</tspan>
   </text>
   <path opacity=".996" fill="#666" stroke="#fe0000" stroke-width="2" d="M344.108 525.386h27.699v17.046h-27.699z" /><text style="text-align:start;line-height:125%" x="389.918" y="539.236" font-size="18" font-weight="400" font-family="Arial" writing-mode="lr">
      <tspan x="389.918" y="539.236">Germani în Transilvania (1918)</tspan>
   </text><text style="text-align:start;line-height:125%" x="357.283" y="439.531" transform="rotate(-13.566)" font-size="18" font-style="italic" font-weight="400" fill="#0f0" font-family="Arial">
      <tspan x="357.283" y="439.531">saşi</tspan>
   </text><text style="text-align:start;line-height:125%" x="372.324" y="298.846" transform="rotate(-19.426)" font-size="18" font-style="italic" font-weight="400" fill="#0f0" font-family="Arial" writing-mode="lr">
      <tspan x="372.324" y="298.846">saşi</tspan>
   </text><text style="text-align:start;line-height:125%" x="596.94" y="-207.97" transform="rotate(50.265)" font-size="18" font-style="italic" font-weight="400" fill="#0f0" font-family="Arial" writing-mode="lr">
      <tspan x="596.94" y="-207.97">saşi</tspan>
   </text><text style="text-align:start;line-height:125%" x="99.077" y="326.166" font-size="18" font-weight="400" fill="#0ff" font-family="Arial">
      <tspan x="99.077" y="326.166">şvabi</tspan>
   </text><text style="text-align:start;line-height:125%" x="226.97" y="358.955" transform="rotate(18.029)" font-size="18" font-weight="400" fill="#0ff" font-family="Arial">
      <tspan x="226.97" y="358.955">şvabi</tspan>
   </text></svg>