<svg xmlns="http://www.w3.org/2000/svg" xmlns:xlink="http://www.w3.org/1999/xlink" width="720" height="720">
   <defs>
      <linearGradient id="prefix__e">
         <stop offset="0" stop-color="#ffff3e" />
         <stop offset="1" stop-color="#dc0000" />
      </linearGradient>
      <linearGradient id="prefix__d">
         <stop offset="0" stop-color="#fff" />
         <stop offset="1" stop-color="#e7d529" />
      </linearGradient>
      <linearGradient id="prefix__c">
         <stop offset="0" stop-color="#0e232e" />
         <stop offset="1" stop-color="#bdcdd4" />
      </linearGradient>
      <linearGradient id="prefix__a">
         <stop offset="0" stop-color="#dc0000" />
         <stop offset="1" stop-color="#9ade00" />
      </linearGradient>
      <linearGradient id="prefix__b">
         <stop offset="0" stop-color="#9ade00" />
         <stop offset="1" stop-color="#0e232e" />
      </linearGradient>
      <linearGradient x1="359.928" y1="71.373" x2="238.558" y2="101.716" id="prefix__g" xlink:href="#prefix__a" gradientUnits="userSpaceOnUse" gradientTransform="translate(-3.132 -.708) scale(1.00971)" />
      <linearGradient x1="361.594" y1="72.681" x2="193.302" y2="127.958" id="prefix__f" xlink:href="#prefix__b" gradientUnits="userSpaceOnUse" gradientTransform="rotate(-72 361.206 363.128) scale(1.00971)" />
      <linearGradient x1="361.44" y1="73.192" x2="192.87" y2="126.412" id="prefix__j" xlink:href="#prefix__c" gradientUnits="userSpaceOnUse" gradientTransform="rotate(-144 361.634 360.928) scale(1.00971)" />
      <linearGradient x1="359.828" y1="70.966" x2="192.122" y2="126.801" id="prefix__i" xlink:href="#prefix__d" gradientUnits="userSpaceOnUse" gradientTransform="rotate(144 361.863 359.786) scale(1.00971)" />
      <linearGradient x1="360.37" y1="72.129" x2="189.94" y2="130.112" id="prefix__h" xlink:href="#prefix__e" gradientUnits="userSpaceOnUse" gradientTransform="rotate(72 362.432 358.5) scale(1.00971)" />
   </defs>
   <g fill="none" stroke="#19aeff" stroke-width="2">
      <path d="M647.143 384a287.143 287.143 0 01-574.286 0 287.143 287.143 0 11574.286 0z" style="marker:none" color="#000" overflow="visible" />
      <path d="M360 96.857l169.14 519.439L87.26 295.263l546.467-.012-442.144 321.045L360 96.857" />
   </g>
   <g fill="#fff" color="#000" stroke="#0e232e" stroke-width="4.877">
      <path d="M482.083 565.652l-49.956-36.296 6.429-8.848-40.347.931 11.582 38.66 6.429-8.849 49.956 36.296 15.907-21.894z" style="marker:none" overflow="visible" stroke-width="2.00000893" />
      <path d="M495.036 556.242l-19.082-58.728-10.402 3.38 13.353-38.084 33.189 22.961-10.402 3.38 19.082 58.728-25.738 8.363z" style="marker:none" stroke-dasharray="9.754 9.754" overflow="visible" stroke-width="2.00000893" />
   </g>
   <g fill="#0e232e" color="#000" stroke="#0e232e" stroke-width="4.877">
      <path d="M224.964 556.242l19.082-58.728 10.402 3.38-13.353-38.084-33.189 22.961 10.402 3.38-19.081 58.728 25.737 8.363z" style="marker:none" overflow="visible" stroke-width="2.00000893" />
      <path d="M237.917 565.652l49.956-36.296-6.429-8.848 40.347.931-11.582 38.66-6.429-8.849-49.956 36.296-15.907-21.894z" style="marker:none" stroke-dasharray="9.754 9.754" overflow="visible" stroke-width="2.00000893" />
   </g>
   <g fill="#9ade00" color="#000" stroke="#0e232e" stroke-width="4.877">
      <path d="M154.46 308.8h61.75v10.937l32.094-24.469-32.094-24.469v10.938h-61.75v27.062z" style="marker:none" overflow="visible" stroke-width="2.00000893" />
      <path d="M149.513 324.025l49.957 36.296 6.428-8.849 11.582 38.66-40.346.932 6.429-8.849-49.957-36.296 15.907-21.894z" style="marker:none" stroke-dasharray="9.754 9.754" overflow="visible" stroke-width="2.00000893" />
   </g>
   <g fill="#ffff3e" color="#000" stroke="#0e232e" stroke-width="4.877">
      <path d="M570.487 324.025l-49.957 36.296-6.428-8.849-11.582 38.66 40.346.932-6.429-8.849 49.957-36.296-15.907-21.894z" style="marker:none" overflow="visible" stroke-width="2.00000893" />
      <path d="M565.54 308.8h-61.75v10.937l-32.094-24.469 32.094-24.469v10.938h61.75v27.062z" style="marker:none" stroke-dasharray="9.754 9.754" overflow="visible" stroke-width="2.00000893" />
   </g>
   <g fill="#dc0000" color="#000" stroke="#0e232e" stroke-width="4.877">
      <path d="M368.005 165.282l19.082 58.727-10.403 3.38 33.19 22.962 13.353-38.084-10.402 3.38-19.082-58.728-25.738 8.363z" style="marker:none" overflow="visible" stroke-width="2.00000893" />
      <path d="M351.995 165.282l-19.082 58.727 10.403 3.38-33.19 22.962-13.353-38.084 10.402 3.38 19.082-58.728 25.738 8.363z" style="marker:none" stroke-dasharray="9.754 9.754" overflow="visible" stroke-width="2.00000893" />
   </g>
   <g fill="#9ade00" color="#000" stroke="#0e232e" stroke-width="2">
      <path d="M136.109 247.044l34.749-51.045 9.04 6.155-2.166-40.3-38.287 12.761 9.042 6.155-34.75 51.045 22.372 15.229z" style="marker:none" overflow="visible" />
      <path d="M207.69 155.336l56.453-25.023 4.432 10L288 104.938l-39.256-9.365 4.433 10-56.453 25.022 10.966 24.741z" style="marker:none" stroke-dasharray="4 4" overflow="visible" />
   </g>
   <g fill="#0e232e" color="#000" stroke="#0e232e" stroke-width="2">
      <path d="M160.56 554.612l-37.808-48.822 8.648-6.697L92.403 488.7l.305 40.356 8.648-6.696 37.808 48.822 21.397-16.57z" style="marker:none" overflow="visible" />
      <path d="M95.461 458.194l-6.353-61.422 10.88-1.125-27.641-29.406-21.037 34.44 10.88-1.125 6.352 61.423 26.92-2.785z" style="marker:none" stroke-dasharray="4 4" overflow="visible" />
   </g>
   <g fill="#fff" color="#000" stroke="#0e232e" stroke-width="2">
      <path d="M460.631 626.4l-58.116 20.871-3.697-10.294-21.934 33.877 38.475 12.18-3.697-10.293 58.116-20.871-9.147-25.47z" style="marker:none" overflow="visible" />
      <path d="M348.816 658.519l-60.38-12.939 2.293-10.695-36.509 17.201 26.255 30.65 2.291-10.694 60.38 12.938 5.67-26.461z" style="marker:none" stroke-dasharray="4 4" overflow="visible" />
   </g>
   <g fill="#ffff3e" color="#000" stroke="#0e232e" stroke-width="2">
      <path d="M621.633 363.2l1.89 61.72-10.932.336 25.44 31.33 23.475-32.829-10.933.335-1.89-61.721-27.05.829z" style="marker:none" overflow="visible" />
      <path d="M617.627 479.467l-30.964 53.426-9.463-5.484 5.077 40.037 37.264-15.498-9.463-5.485 30.963-53.425-23.414-13.57z" style="marker:none" stroke-dasharray="4 4" overflow="visible" />
   </g>
   <g fill="#dc0000" color="#000" stroke="#0e232e" stroke-width="2">
      <path d="M421.067 128.745l59.284 17.274-3.06 10.501 37.658-14.513-23.967-32.47-3.06 10.5-59.285-17.274-7.57 25.982z" style="marker:none" overflow="visible" />
      <path d="M530.406 168.484l41.243 45.957-8.14 7.305 39.646 7.543-3.225-40.228-8.14 7.305-41.243-45.957-20.141 18.075z" style="marker:none" stroke-dasharray="4 4" overflow="visible" />
   </g>
   <path d="M108.47 203.918a71.029 71.029 0 11-43.898 135.105 71.029 71.029 0 1143.899-135.105z" style="marker:none" color="#000" fill="url(#prefix__f)" stroke="#0e232e" stroke-width="2" overflow="visible" transform="translate(0 24)" />
   <path d="M431.392 72.857a71.029 71.029 0 01-142.057 0 71.029 71.029 0 11142.057 0z" style="marker:none" color="#000" fill="url(#prefix__g)" stroke="#0e232e" stroke-width="2" overflow="visible" transform="translate(0 24)" />
   <path d="M655.7 339.015a71.029 71.029 0 11-43.898-135.105A71.029 71.029 0 01655.7 339.015z" style="marker:none" color="#000" fill="url(#prefix__h)" stroke="#0e232e" stroke-width="2" overflow="visible" transform="translate(0 24)" />
   <path d="M471.315 634.053a71.029 71.029 0 01114.927-83.5 71.029 71.029 0 11-114.927 83.5z" style="marker:none" color="#000" fill="url(#prefix__i)" stroke="#0e232e" stroke-width="2" overflow="visible" transform="translate(0 24)" />
   <path d="M133.757 550.566a71.029 71.029 0 11114.927 83.5 71.029 71.029 0 01-114.927-83.5z" style="marker:none" color="#000" fill="url(#prefix__j)" stroke="#0e232e" stroke-width="2" overflow="visible" transform="translate(0 24)" />
   <path style="marker:none" color="#000" fill="#fff" stroke="#0e232e" stroke-width="2" overflow="visible" d="M267.658 370.97h185.087v26.787H267.658z" />
   <path style="marker:none" color="#000" fill="#fff" stroke="#0e232e" stroke-width="2" stroke-dasharray="4 4" overflow="visible" d="M297.158 411.577h126.087v26.787H297.158z" />
   <g letter-spacing="0" word-spacing="0"><text x="159.412" y="301" style="text-align:start;line-height:125%;-inkscape-font-specification:DejaVu Sans" font-size="18" font-weight="400" font-family="DejaVu Sans">
         <tspan x="159.412" y="301">Destroys</tspan>
      </text><text x="488.877" y="302.849" style="text-align:start;line-height:125%;-inkscape-font-specification:DejaVu Sans" font-size="22" font-weight="400" fill="#0e232e" font-family="DejaVu Sans">
         <tspan x="488.877" y="302.849">Insults</tspan>
      </text><text x="-454.178" y="376.509" transform="rotate(-72)" style="text-align:start;line-height:125%;-inkscape-font-specification:DejaVu Sans" font-size="18" font-weight="400" fill="#fff" font-family="DejaVu Sans">
         <tspan x="-454.178" y="376.509">Destroys</tspan>
      </text><text x="-126.036" y="379.167" transform="rotate(-72)" style="text-align:start;line-height:125%;-inkscape-font-specification:DejaVu Sans" font-size="22" font-weight="400" fill="#fff" font-family="DejaVu Sans">
         <tspan x="-126.036" y="379.167">Insults</tspan>
      </text><text x="637.086" y="194.901" transform="rotate(36)" style="text-align:start;line-height:125%;-inkscape-font-specification:DejaVu Sans" font-size="18" font-weight="400" fill="#0e232e" font-family="DejaVu Sans">
         <tspan x="637.086" y="194.901">Destroys</tspan>
      </text><text x="317.1" y="194.673" transform="rotate(36)" style="text-align:start;line-height:125%;-inkscape-font-specification:DejaVu Sans" font-size="22" font-weight="400" font-family="DejaVu Sans">
         <tspan x="317.1" y="194.673">Insults</tspan>
      </text><text x="186.985" y="616.834" transform="rotate(-36)" style="text-align:start;line-height:125%;-inkscape-font-specification:DejaVu Sans" font-size="18" font-weight="400" fill="#0e232e" font-family="DejaVu Sans">
         <tspan x="186.985" y="616.834">Destroys</tspan>
      </text><text x="-135.807" y="618.52" transform="rotate(-36)" style="text-align:start;line-height:125%;-inkscape-font-specification:DejaVu Sans" font-size="22" font-weight="400" fill="#fff" font-family="DejaVu Sans">
         <tspan x="-135.807" y="618.52">Insults</tspan>
      </text><text x="274.194" y="-307.224" transform="rotate(72)" style="text-align:start;line-height:125%;-inkscape-font-specification:DejaVu Sans" font-size="18" font-weight="400" fill="#fff" font-family="DejaVu Sans">
         <tspan x="274.194" y="-307.224">Destroys</tspan>
      </text><text x="603.934" y="-305.646" transform="rotate(72)" style="text-align:start;line-height:125%;-inkscape-font-specification:DejaVu Sans" font-size="22" font-weight="400" fill="#0e232e" font-family="DejaVu Sans">
         <tspan x="603.934" y="-305.646">Insults</tspan>
      </text>
      <g style="text-align:start;line-height:125%;-inkscape-font-specification:DejaVu Sans Bold" font-size="14" font-weight="700" fill="#364e59" font-family="DejaVu Sans">
         <path d="M166.47 266.898l5.251 3.346.507-.795c.578-.907.794-1.742.648-2.505-.144-.767-.644-1.424-1.5-1.97-.854-.544-1.656-.72-2.405-.527-.75.193-1.414.745-1.995 1.655l-.507.796m-3.092 1.15l1.492-2.34c.832-1.307 1.546-2.22 2.14-2.737a4.554 4.554 0 011.997-1.047 4.38 4.38 0 011.916-.043c.633.127 1.27.395 1.911.804.65.414 1.168.882 1.554 1.404.383.519.64 1.104.77 1.755.152.745.117 1.5-.106 2.266-.227.764-.752 1.79-1.575 3.082l-1.491 2.341-8.608-5.484M179.513 255.407l.57.403-3.305 4.67c.503.284.974.364 1.414.24.44-.125.843-.448 1.212-.968.297-.42.54-.894.728-1.42.187-.532.318-1.12.394-1.764l1.54 1.09a10.336 10.336 0 01-.6 1.701 8.97 8.97 0 01-.864 1.516c-.8 1.131-1.71 1.809-2.727 2.032-1.019.217-2.047-.042-3.085-.776-1.02-.721-1.604-1.595-1.754-2.623-.147-1.03.161-2.085.924-3.164.695-.982 1.546-1.558 2.554-1.727 1.01-.173 2.01.09 3 .79m-2.118 1.584c-.38-.268-.763-.373-1.152-.313-.39.054-.71.26-.963.617-.274.387-.387.779-.338 1.176.044.394.25.766.617 1.115l1.836-2.595M181.545 246.893l1.473 1.135a9.153 9.153 0 00-1.316.902c-.385.32-.709.65-.973.993-.284.369-.448.68-.493.932a.562.562 0 00.217.59c.156.12.326.145.512.076.189-.074.438-.27.748-.59l.311-.303c.891-.896 1.613-1.403 2.167-1.524.553-.12 1.138.057 1.755.533.646.498.948 1.11.906 1.837-.042.727-.428 1.563-1.156 2.509-.309.4-.661.79-1.057 1.17-.39.379-.822.745-1.296 1.1l-1.473-1.136a6.96 6.96 0 002.432-1.992c.293-.379.46-.704.503-.976.042-.272-.04-.488-.245-.646-.173-.134-.353-.166-.539-.096-.187.063-.455.274-.805.63l-.306.309c-.773.78-1.44 1.23-1.999 1.35-.56.122-1.137-.047-1.733-.506-.642-.495-.95-1.082-.92-1.762.029-.68.394-1.474 1.094-2.384.276-.357.592-.712.95-1.064.357-.351.771-.714 1.243-1.087M183.028 241.262l1.676 1.385 1.607-1.944 1.348 1.115-1.606 1.944 2.502 2.068c.274.227.506.326.694.299.185-.03.41-.208.678-.53l.801-.97 1.35 1.114-1.338 1.618c-.615.745-1.207 1.146-1.774 1.203-.568.05-1.225-.232-1.97-.847l-2.502-2.069-.776.938-1.349-1.115.776-.938-1.676-1.384 1.559-1.887M192.771 236.493a2.976 2.976 0 00-.588.338 2.723 2.723 0 00-.477.427c-.415.472-.583.97-.505 1.495.079.518.4 1.026.964 1.522l2.649 2.33-1.617 1.838-5.748-5.058 1.617-1.837.944.83c-.169-.566-.205-1.077-.108-1.532.097-.462.333-.907.71-1.334.054-.062.116-.125.186-.191.066-.07.169-.164.306-.286l1.667 1.458M195.562 237.265l-3.389-3.22 1.695-1.785.555.528c.3.285.678.647 1.13 1.083.45.434.75.722.902.867.446.424.78.718 1 .883.216.163.396.258.539.287.184.037.363.027.536-.029.176-.059.336-.164.48-.316.352-.37.486-.796.403-1.277-.083-.482-.378-.963-.883-1.443l-2.74-2.604 1.686-1.774 5.55 5.274-1.687 1.774-.802-.763c.07.575.039 1.087-.092 1.535-.13.442-.367.843-.71 1.203-.608.64-1.27.943-1.983.906-.71-.04-1.44-.416-2.19-1.129M203.988 222.438l1.388 1.434c-.397.068-.755.18-1.073.336a3.306 3.306 0 00-.861.605c-.491.475-.735.99-.73 1.545.003.548.254 1.079.752 1.593s1.022.783 1.572.808c.551.019 1.072-.21 1.563-.685.275-.266.496-.56.662-.879.17-.323.282-.666.336-1.03l1.393 1.44a6.606 6.606 0 01-.62 1.039c-.232.325-.49.625-.774.901-.992.96-2.014 1.458-3.065 1.493-1.055.031-2.02-.407-2.9-1.314-.877-.907-1.282-1.885-1.213-2.934.065-1.053.594-2.06 1.586-3.02.288-.28.596-.527.925-.745.33-.223.682-.419 1.059-.587M206.102 217.243l1.458 1.612 1.871-1.692 1.174 1.299-1.871 1.691 2.177 2.409c.239.264.453.395.644.395.187-.003.436-.146.747-.427l.933-.843 1.174 1.298-1.557 1.407c-.717.648-1.36.96-1.93.934-.57-.032-1.178-.406-1.826-1.123l-2.178-2.409-.902.816-1.174-1.298.903-.816-1.458-1.612 1.815-1.642M210.727 216.054l1.858-1.593 4.983 5.813-1.858 1.592-4.983-5.812m-1.94-2.263l1.858-1.593 1.3 1.516-1.859 1.593-1.299-1.516M218.398 211.701c-.424.34-.625.752-.604 1.237.022.48.263 1.005.721 1.578.46.572.922.923 1.387 1.052.466.123.911.015 1.334-.325.416-.333.614-.74.592-1.218-.025-.483-.267-1.01-.725-1.583-.46-.572-.92-.921-1.383-1.047-.465-.13-.906-.027-1.322.306m-1.095-1.365c1.028-.824 2.052-1.189 3.073-1.096 1.024.09 1.93.626 2.716 1.608.787.981 1.113 1.981.978 3-.132 1.017-.712 1.937-1.74 2.76-1.03.827-2.06 1.197-3.088 1.11-1.024-.09-1.93-.626-2.716-1.608-.787-.981-1.113-1.982-.978-3.001.139-1.022.724-1.947 1.755-2.773M230.375 204.448l2.748 3.766-1.988 1.45-.447-.612-1.656-2.27c-.39-.534-.671-.892-.845-1.076-.17-.186-.32-.306-.448-.359a.98.98 0 00-.532-.068 1.135 1.135 0 00-.534.22c-.412.3-.619.697-.62 1.19-.005.488.198 1.014.609 1.577l2.22 3.043-1.977 1.442-4.513-6.184 1.977-1.443.66.906c.036-.579.159-1.075.37-1.489a2.95 2.95 0 01.92-1.07c.715-.52 1.416-.696 2.104-.527.691.167 1.342.668 1.952 1.504M245.686 199.356a6.74 6.74 0 01-2.263 2.32c-1.439.905-2.831 1.221-4.177.948-1.348-.278-2.455-1.105-3.321-2.482-.87-1.381-1.135-2.737-.8-4.069.335-1.335 1.221-2.455 2.66-3.36a6.723 6.723 0 013.072-1.036l1.124 1.788a5.741 5.741 0 00-1.61.15 4.788 4.788 0 00-1.391.6c-.795.5-1.26 1.147-1.395 1.943-.134.795.08 1.64.643 2.535.56.891 1.228 1.448 2.004 1.671.775.223 1.56.085 2.355-.415.443-.28.825-.61 1.143-.994.319-.384.596-.846.832-1.387l1.124 1.788M243.12 192.62l2.127-1.21 4.357 3.5-1.047-5.382 2.127-1.21 1.345 8.877c.14.9.105 1.605-.104 2.112-.204.509-.612.938-1.226 1.287l-1.23.7-.795-1.397.666-.378c.36-.205.59-.411.686-.619.101-.21.113-.488.035-.837l-.045-.218-6.896-5.224M257.83 184.88l.918 1.773c-.4-.05-.776-.045-1.125.013a3.306 3.306 0 00-.999.332c-.607.314-.988.737-1.144 1.27-.154.525-.066 1.106.263 1.741.329.636.753 1.045 1.273 1.227.523.176 1.087.107 1.694-.207.34-.176.636-.393.887-.651.255-.26.461-.557.618-.89l.92 1.78a6.62 6.62 0 01-.894.816 6.453 6.453 0 01-1 .64c-1.226.635-2.348.818-3.364.549-1.02-.274-1.819-.97-2.399-2.092-.58-1.121-.686-2.174-.319-3.16.366-.99 1.162-1.802 2.388-2.436a6.38 6.38 0 011.1-.446c.38-.12.774-.206 1.183-.258M258.55 180.957l2.206-1.06 4.605 9.59-2.206 1.058-4.605-9.588M272.934 181.858l.282.638-5.236 2.308c.286.501.65.812 1.09.93.442.12.954.051 1.538-.206a5.848 5.848 0 001.354-.844c.433-.36.848-.797 1.245-1.31l.76 1.726c-.44.434-.904.817-1.39 1.15a8.97 8.97 0 01-1.52.858c-1.267.558-2.395.672-3.383.34-.985-.337-1.734-1.087-2.247-2.25-.504-1.143-.556-2.194-.157-3.152.404-.96 1.21-1.706 2.42-2.24 1.1-.485 2.127-.541 3.078-.168.955.37 1.677 1.11 2.166 2.22m-2.63.27c-.187-.425-.463-.712-.827-.86-.362-.155-.743-.144-1.144.033-.433.191-.731.47-.894.835-.164.361-.179.786-.043 1.274l2.908-1.282M285.217 183.202l-1.903.71c-1.046-.811-1.902-1.633-2.567-2.464a9.669 9.669 0 01-1.524-2.657 9.732 9.732 0 01-.59-3.012c-.043-1.078.066-2.262.325-3.55l1.902-.71a15.61 15.61 0 00-.122 3.431c.087 1.067.306 2.072.658 3.016.352.944.843 1.85 1.474 2.719.634.867 1.417 1.706 2.347 2.517M283.638 170.946l2.5-.823 1.165 3.539 2.438-4.726 2.903-.955-3.157 6.127 6.83 3.408-3.13 1.031-5.114-2.548 1.257 3.818-2.5.823-3.192-9.694M303.152 171.66l.188.67-5.512 1.538c.212.537.527.896.947 1.077.42.181.936.186 1.55.015a5.848 5.848 0 001.461-.642c.48-.295.954-.668 1.42-1.12l.506 1.818c-.498.366-1.012.68-1.54.94a8.969 8.969 0 01-1.627.631c-1.334.373-2.466.324-3.397-.145-.927-.475-1.562-1.324-1.903-2.55-.336-1.202-.237-2.249.295-3.14.536-.893 1.441-1.516 2.714-1.871 1.159-.324 2.183-.233 3.07.272.893.503 1.503 1.338 1.828 2.506m-2.641-.108c-.125-.447-.357-.77-.697-.97-.336-.203-.715-.247-1.136-.13-.457.128-.791.36-1.004.7-.215.334-.29.752-.225 1.254l3.062-.854M306.36 176.747c.314-1.19.493-2.323.535-3.397a11.25 11.25 0 00-.288-3.08 11.177 11.177 0 00-1.138-2.87 15.612 15.612 0 00-2.016-2.778l1.974-.474c.934.925 1.682 1.847 2.245 2.766a9.613 9.613 0 011.198 2.827 9.67 9.67 0 01.22 3.055c-.089 1.061-.34 2.22-.756 3.477l-1.974.474" style="-inkscape-font-specification:DejaVu Sans Bold" />
      </g>
      <g style="text-align:start;line-height:125%;-inkscape-font-specification:DejaVu Sans Bold" font-size="14" font-weight="700" fill="#364e59" font-family="DejaVu Sans">
         <path d="M429.587 167.581l2.496.836-3.24 9.678-2.496-.836 3.24-9.678M440.04 177.214l-1.634 4.366-2.305-.862.266-.711.985-2.631c.231-.62.376-1.052.434-1.298.062-.244.08-.434.053-.571a.98.98 0 00-.235-.482 1.134 1.134 0 00-.477-.325c-.479-.179-.924-.134-1.336.136-.41.264-.738.723-.982 1.376l-1.32 3.528-2.292-.857 2.683-7.171 2.292.858-.393 1.05c.503-.29.985-.46 1.446-.51a2.95 2.95 0 011.4.18c.828.31 1.36.799 1.597 1.466.241.67.18 1.489-.182 2.458M448.919 177.94l-.725 1.713a9.154 9.154 0 00-1.206-1.044c-.406-.29-.809-.52-1.208-.689-.428-.181-.77-.261-1.026-.24a.562.562 0 00-.516.36.501.501 0 00.057.514c.119.164.372.355.76.573l.372.225c1.093.635 1.767 1.204 2.024 1.709.257.504.233 1.115-.07 1.833-.318.751-.834 1.199-1.547 1.342-.714.144-1.62-.017-2.72-.482a10.518 10.518 0 01-1.4-.725c-.466-.281-.93-.606-1.392-.975l.724-1.712a6.959 6.959 0 002.544 1.847c.44.186.798.266 1.072.238.273-.028.461-.161.562-.4.085-.202.07-.384-.044-.546-.108-.164-.38-.37-.814-.619l-.376-.218c-.95-.55-1.554-1.08-1.813-1.59-.26-.51-.243-1.112.05-1.805.316-.747.806-1.193 1.471-1.337.665-.145 1.526.007 2.584.454.415.175.839.392 1.27.648.43.256.886.565 1.367.927M449.39 182.991l2-4.227 2.224 1.052-.327.692c-.177.375-.402.846-.675 1.413-.271.562-.452.938-.541 1.128-.263.556-.439.964-.527 1.225-.086.257-.12.457-.103.602.022.187.087.354.194.5.112.148.262.267.452.357.46.218.907.213 1.339-.017.43-.23.795-.66 1.094-1.29l1.616-3.417 2.212 1.046-3.273 6.921-2.213-1.046.474-1.001c-.525.246-1.02.377-1.487.393a2.945 2.945 0 01-1.364-.297c-.8-.378-1.293-.912-1.481-1.6-.185-.688-.056-1.499.387-2.434M462.045 180.605l2.176 1.12-4.868 9.457-2.176-1.12 4.868-9.457M468.517 184.947l-1.045 1.906 2.212 1.213-.842 1.534-2.212-1.212-1.56 2.847c-.172.311-.226.557-.163.737.064.176.28.364.648.566l1.103.605-.841 1.534-1.84-1.009c-.848-.464-1.353-.97-1.515-1.516-.157-.549-.003-1.247.461-2.094l1.562-2.847-1.067-.585.841-1.535 1.067.585 1.045-1.906 2.146 1.177M471.156 188.925l2.114 1.232-3.855 6.615-2.115-1.232 3.856-6.615m1.5-2.575l2.115 1.232-1.005 1.725-2.115-1.233 1.005-1.724M480.459 198.11l-2.482 3.947-2.083-1.31.404-.642 1.495-2.379c.352-.56.581-.953.688-1.183.11-.226.166-.41.167-.548a.98.98 0 00-.134-.52 1.135 1.135 0 00-.402-.414c-.432-.272-.877-.318-1.335-.137-.455.176-.869.56-1.24 1.15l-2.005 3.189-2.071-1.303 4.075-6.482 2.072 1.303-.597.95c.55-.183 1.057-.252 1.52-.208.464.039.91.192 1.333.459.749.47 1.172 1.057 1.269 1.758.1.704-.124 1.494-.675 2.37M484.902 205.221c-.532.175-1.024.233-1.477.173-.452-.059-.898-.24-1.336-.544-.767-.533-1.192-1.275-1.276-2.226-.08-.955.204-1.9.854-2.836.653-.94 1.437-1.535 2.355-1.785.92-.255 1.764-.116 2.531.417.438.304.764.658.978 1.062.213.403.33.886.35 1.45l.647-.933 2.021 1.404-3.926 5.654c-.701 1.01-1.557 1.56-2.566 1.647-1.008.093-2.119-.28-3.331-1.123a8.602 8.602 0 01-1.078-.881 8.677 8.677 0 01-.915-1.043l1.088-1.567c.211.446.451.835.72 1.167.268.335.571.62.912.857.659.457 1.242.648 1.749.573.507-.075.974-.42 1.4-1.033l.3-.433m1.392-4.834c-.415-.288-.846-.36-1.29-.214-.446.146-.864.5-1.254 1.061-.4.577-.592 1.093-.575 1.548.02.452.244.827.675 1.126.419.291.851.364 1.296.218.446-.146.862-.498 1.25-1.055.389-.562.574-1.077.556-1.545-.02-.468-.239-.848-.658-1.139M498.734 216.708a6.716 6.716 0 01-2.933-1.379c-1.327-1.063-2.081-2.275-2.263-3.636-.18-1.365.24-2.682 1.257-3.951 1.02-1.273 2.215-1.969 3.583-2.087 1.37-.122 2.72.35 4.046 1.412a6.723 6.723 0 011.984 2.563l-1.321 1.649a5.742 5.742 0 00-.668-1.473 4.788 4.788 0 00-1.023-1.118c-.732-.587-1.497-.814-2.292-.681-.796.133-1.525.612-2.186 1.437-.659.821-.966 1.635-.923 2.44.044.806.431 1.502 1.164 2.09.409.327.847.58 1.313.755.467.175.995.286 1.583.331l-1.32 1.648M504.26 212.08l1.84 1.615-1.882 5.262 4.743-2.75 1.839 1.615-7.95 4.174c-.805.426-1.482.624-2.03.592-.547-.026-1.086-.272-1.617-.738l-1.063-.934 1.06-1.207.575.505c.312.274.581.423.81.446.23.027.498-.053.802-.24l.191-.115 2.682-8.224M516.385 223.457l-1.376 1.446a3.928 3.928 0 00-.38-1.06 3.306 3.306 0 00-.639-.835c-.495-.471-1.02-.693-1.573-.667-.548.027-1.068.3-1.561.817-.494.519-.742 1.053-.744 1.605.004.55.254 1.062.749 1.533.277.264.579.473.905.626.33.156.677.254 1.042.293l-1.381 1.451a6.62 6.62 0 01-1.064-.578 6.453 6.453 0 01-.932-.736c-1-.952-1.539-1.953-1.616-3.002-.075-1.052.323-2.035 1.194-2.95.87-.914 1.83-1.358 2.882-1.333 1.055.022 2.082.51 3.083 1.462.29.276.55.574.78.894.238.32.448.664.63 1.034M520.33 222.858l1.721 1.74-7.561 7.481-1.721-1.74 7.56-7.48M524.172 236.75l-.512.474-3.89-4.196c-.38.434-.555.878-.524 1.334.031.456.264.918.697 1.386.35.378.763.713 1.24 1.005.482.292 1.03.542 1.644.749l-1.383 1.283a10.34 10.34 0 01-1.542-.94 8.97 8.97 0 01-1.305-1.156c-.942-1.017-1.417-2.046-1.426-3.088-.003-1.041.462-1.994 1.395-2.859.916-.848 1.892-1.24 2.928-1.175 1.039.068 2.007.587 2.906 1.556.818.883 1.206 1.834 1.164 2.855-.04 1.024-.503 1.948-1.392 2.772m-1.114-2.398c.341-.316.522-.67.544-1.063.027-.392-.107-.749-.405-1.07-.322-.347-.682-.538-1.081-.573-.395-.037-.801.087-1.219.375l2.161 2.331M526.907 248.8l-1.292-1.567c.426-1.254.923-2.331 1.492-3.231a9.669 9.669 0 012.015-2.307 9.732 9.732 0 012.654-1.54c1.006-.393 2.16-.676 3.462-.852l1.291 1.567a15.611 15.611 0 00-3.282 1.004c-.98.43-1.86.965-2.637 1.606-.777.64-1.474 1.4-2.09 2.28-.612.883-1.15 1.896-1.613 3.04M537.571 242.666l1.506 2.024-4.898 5.842 6.995-3.023 1.514 2.035-4.906 5.831 7.003-3.012 1.493 2.007-9.624 4.162-1.812-2.436 5.12-6.117-7.32 3.161-1.81-2.435 6.74-8.039M541.384 260.143l3.906-2.57 1.353 2.057-.64.42c-.347.228-.784.513-1.312.855-.524.34-.874.566-1.049.682-.514.338-.876.595-1.087.772-.207.174-.34.328-.401.46-.078.172-.11.348-.094.529.017.184.084.364.2.54.28.426.664.653 1.151.681.488.029 1.023-.149 1.606-.532l3.158-2.077 1.345 2.045-6.397 4.207-1.345-2.045.926-.609c-.576-.063-1.068-.208-1.475-.437a2.945 2.945 0 01-1.01-.964c-.486-.739-.63-1.451-.432-2.138.2-.682.732-1.308 1.597-1.876M542.75 271.139a15.769 15.769 0 003.4-.523 11.249 11.249 0 002.846-1.212 11.177 11.177 0 002.388-1.957 15.612 15.612 0 002.033-2.765l1.052 1.737c-.597 1.17-1.247 2.164-1.952 2.98a9.613 9.613 0 01-2.329 2 9.67 9.67 0 01-2.843 1.138c-1.038.24-2.219.352-3.543.339l-1.051-1.737" style="-inkscape-font-specification:DejaVu Sans Bold" />
      </g>
      <g style="text-align:start;line-height:125%;-inkscape-font-specification:DejaVu Sans Bold" font-size="18" font-weight="700" fill="#364e59" font-family="DejaVu Sans">
         <path d="M81.53 191.716a8.643 8.643 0 01-1.464 3.902c-1.226 1.81-2.701 2.901-4.426 3.275-1.73.371-3.462-.03-5.194-1.203-1.737-1.176-2.751-2.635-3.044-4.376-.298-1.744.166-3.521 1.392-5.33a8.644 8.644 0 013.08-2.808l2.248 1.523a7.383 7.383 0 00-1.818 1.008 6.156 6.156 0 00-1.327 1.426c-.677.999-.889 2.002-.636 3.008.252 1.006.941 1.89 2.067 2.653 1.12.759 2.195 1.069 3.223.93 1.028-.139 1.88-.708 2.558-1.707a6.153 6.153 0 00.832-1.761 7.382 7.382 0 00.26-2.063l2.25 1.523M82.198 179.83a3.826 3.826 0 00-.713.503c-.21.18-.397.382-.558.605-.476.654-.631 1.312-.468 1.974.163.654.635 1.265 1.417 1.833l3.67 2.666-1.85 2.545-7.964-5.785 1.849-2.546 1.308.95c-.283-.705-.39-1.355-.321-1.95.068-.602.317-1.199.748-1.792.062-.085.134-.174.215-.267a7.65 7.65 0 01.358-.402l2.31 1.666M91.05 171.975l.71.549-4.508 5.814c.63.392 1.231.52 1.803.386.572-.136 1.11-.527 1.612-1.176a7.52 7.52 0 001.014-1.782c.27-.673.472-1.421.606-2.244l1.917 1.486c-.234.76-.523 1.478-.868 2.152a11.53 11.53 0 01-1.194 1.9c-1.091 1.407-2.297 2.226-3.617 2.456-1.32.221-2.627-.169-3.919-1.17-1.269-.984-1.97-2.14-2.105-3.468-.131-1.332.324-2.67 1.365-4.012.947-1.223 2.073-1.915 3.377-2.076 1.307-.165 2.576.23 3.808 1.185m-2.808 1.915c-.473-.366-.96-.522-1.463-.466-.503.047-.927.292-1.272.737-.373.482-.54.979-.5 1.492.035.509.279.998.73 1.467l2.505-3.23M95.885 166.939c-.42.503-.652.955-.695 1.354-.04.395.107.73.44 1.009.306.255.631.354.976.298.343-.064.667-.278.971-.643.38-.454.536-.972.472-1.552-.07-.585-.35-1.082-.84-1.49l-.277-.232-1.047 1.256m2.169-4.452l4.312 3.598-2.033 2.436-1.12-.934c.189.707.22 1.35.093 1.932-.13.577-.438 1.156-.922 1.737-.654.783-1.412 1.23-2.276 1.34-.864.104-1.66-.149-2.39-.757-.886-.74-1.282-1.586-1.19-2.538.097-.958.69-2.088 1.779-3.393l1.188-1.424-.19-.158c-.382-.319-.786-.4-1.213-.246-.432.151-.914.546-1.447 1.185a8.303 8.303 0 00-1.05 1.574 6.443 6.443 0 00-.57 1.63l-1.843-1.537c.306-.623.645-1.221 1.018-1.795.368-.579.77-1.129 1.205-1.65 1.137-1.364 2.228-2.121 3.27-2.274 1.043-.16 2.169.264 3.379 1.274M97.138 152.912l2.09 1.855 2.153-2.425 1.683 1.493-2.153 2.426 3.122 2.771c.342.304.634.442.878.415.239-.031.537-.248.895-.651l1.074-1.21 1.682 1.494-1.791 2.018c-.825.929-1.603 1.417-2.335 1.465-.732.04-1.563-.353-2.492-1.178l-3.122-2.771-1.038 1.17-1.683-1.494 1.039-1.17-2.09-1.855 2.088-2.353M102.843 150.768l2.14-2.307 7.218 6.693-2.14 2.307-7.218-6.693m-2.81-2.606l2.14-2.307 1.882 1.745-2.14 2.307-1.882-1.745M111.95 144.097c-.487.498-.68 1.055-.578 1.672.101.608.49 1.242 1.163 1.902.674.66 1.318 1.036 1.932 1.13.614.084 1.165-.123 1.653-.62.48-.49.67-1.04.567-1.648-.105-.612-.495-1.248-1.17-1.908-.673-.66-1.315-1.034-1.925-1.123-.615-.093-1.161.105-1.641.595m-1.608-1.575c1.185-1.21 2.436-1.834 3.753-1.872 1.322-.043 2.56.501 3.715 1.633 1.156 1.132 1.726 2.358 1.71 3.68-.01 1.318-.608 2.582-1.793 3.791-1.19 1.214-2.446 1.845-3.772 1.892-1.321.043-2.56-.502-3.715-1.633-1.155-1.132-1.725-2.358-1.71-3.68.02-1.326.623-2.597 1.812-3.81M126.021 132.959l4.124 4.35-2.296 2.176-.67-.708-2.486-2.621c-.585-.616-1.003-1.028-1.254-1.233-.248-.21-.458-.338-.63-.384a1.26 1.26 0 00-.69 0 1.46 1.46 0 00-.645.369c-.476.451-.675.991-.596 1.62.075.623.42 1.26 1.037 1.91l3.332 3.515-2.283 2.165-6.773-7.144 2.283-2.165.992 1.046c-.05-.743.025-1.396.226-1.958.198-.567.53-1.072.998-1.515.825-.783 1.69-1.122 2.595-1.02.909.1 1.821.631 2.736 1.597M144.58 123.81a8.643 8.643 0 01-2.464 3.361c-1.669 1.412-3.384 2.064-5.146 1.959-1.767-.11-3.325-.964-4.676-2.561-1.355-1.602-1.938-3.28-1.75-5.036.185-1.76 1.112-3.345 2.78-4.757a8.644 8.644 0 013.724-1.872l1.754 2.074a7.383 7.383 0 00-2.023.48 6.156 6.156 0 00-1.663 1.015c-.922.78-1.397 1.687-1.425 2.724-.029 1.037.396 2.075 1.274 3.113.874 1.033 1.825 1.622 2.852 1.766 1.027.144 2.002-.174 2.924-.953.514-.435.94-.926 1.276-1.471a7.383 7.383 0 00.809-1.916l1.754 2.074M140.038 115.74l2.476-1.943 6.204 3.624-2.352-6.645 2.476-1.942 3.393 11.033c.349 1.12.438 2.021.267 2.706-.162.686-.6 1.309-1.315 1.87l-1.431 1.122-1.275-1.625.775-.608c.42-.329.671-.634.755-.916.089-.286.05-.643-.114-1.072l-.1-.269-9.759-5.336M157.192 103.094l1.516 2.07a5.05 5.05 0 00-1.427.239 4.25 4.25 0 00-1.203.619c-.709.519-1.11 1.132-1.203 1.838-.091.699.135 1.42.678 2.162s1.164 1.178 1.86 1.306c.699.121 1.403-.078 2.112-.597.397-.29.73-.625.998-1.003.273-.381.475-.798.608-1.251l1.521 2.078c-.29.437-.614.842-.974 1.214-.35.373-.732.71-1.143 1.011-1.433 1.049-2.822 1.502-4.167 1.361-1.348-.146-2.502-.873-3.46-2.183-.959-1.31-1.302-2.627-1.03-3.952.269-1.329 1.12-2.518 2.552-3.567a8.203 8.203 0 011.31-.784 8.79 8.79 0 011.452-.561M157.272 97.993l2.585-1.794 7.797 11.235-2.585 1.794-7.797-11.235M175.668 96.181l.49.75-6.156 4.027c.468.576.994.893 1.578.952.585.059 1.22-.136 1.907-.585a7.519 7.519 0 001.54-1.354c.475-.548.91-1.19 1.304-1.924l1.328 2.03a13.285 13.285 0 01-1.522 1.751c-.542.53-1.125.999-1.748 1.406-1.49.975-2.897 1.356-4.22 1.143-1.32-.221-2.429-1.016-3.323-2.384-.88-1.344-1.166-2.665-.86-3.964.31-1.302 1.177-2.419 2.599-3.349 1.294-.846 2.584-1.133 3.869-.86 1.29.27 2.36 1.057 3.214 2.36m-3.28.896c-.327-.5-.737-.806-1.23-.918-.491-.12-.972-.025-1.443.283-.51.333-.83.749-.96 1.247-.132.492-.061 1.034.213 1.625l3.42-2.237M191.497 95.21l-2.252 1.321c-1.505-.795-2.771-1.645-3.798-2.551-1.03-.911-1.87-1.92-2.518-3.027a12.513 12.513 0 01-1.416-3.683c-.293-1.357-.418-2.88-.376-4.568l2.252-1.32c.055 1.577.257 3.034.607 4.37a14.37 14.37 0 001.501 3.674 14.676 14.676 0 002.47 3.117c.996.958 2.173 1.847 3.53 2.668M194.91 76.082l1.33 2.439a12.05 12.05 0 00-2.202.369 8.36 8.36 0 00-1.823.713c-.71.387-1.182.77-1.415 1.151-.233.38-.237.777-.013 1.189.169.308.414.488.735.54.324.044.821-.037 1.49-.242l1.405-.435c1.421-.44 2.545-.546 3.37-.315.827.23 1.504.829 2.03 1.796.693 1.27.831 2.424.414 3.458-.414 1.027-1.396 1.962-2.945 2.806-.73.399-1.501.729-2.313.99-.811.263-1.66.458-2.543.586l-1.367-2.508c.948-.01 1.82-.101 2.613-.273a8.303 8.303 0 002.151-.792c.649-.353 1.086-.732 1.313-1.136.227-.404.231-.807.012-1.208-.196-.36-.466-.573-.809-.64-.338-.07-.899.01-1.683.237l-1.288.372c-1.287.38-2.346.447-3.175.198-.824-.251-1.486-.835-1.985-1.75-.626-1.148-.736-2.232-.332-3.253.405-1.021 1.302-1.91 2.69-2.668.634-.344 1.311-.65 2.033-.917a19.72 19.72 0 012.307-.707M210.467 75.752l2.666 5.368-2.834 1.408-.434-.874-1.599-3.22c-.383-.771-.664-1.292-.844-1.562-.175-.273-.339-.457-.49-.552a1.256 1.256 0 00-.66-.202 1.459 1.459 0 00-.724.163c-.587.292-.936.75-1.045 1.373-.112.618.032 1.329.43 2.132l2.155 4.337-2.818 1.4-6.084-12.249 2.818-1.4 2.346 4.724c.17-.726.434-1.328.791-1.806.355-.484.821-.87 1.399-1.156 1.018-.506 1.944-.577 2.78-.213.84.361 1.555 1.138 2.147 2.329M222.709 71.315l.369.817-6.705 3.028c.373.642.844 1.037 1.413 1.185.568.148 1.226.054 1.974-.284a7.518 7.518 0 001.73-1.1 10.598 10.598 0 001.586-1.7l.999 2.211a13.29 13.29 0 01-1.774 1.496c-.618.44-1.266.812-1.944 1.119-1.624.733-3.072.892-4.346.477-1.271-.422-2.243-1.379-2.916-2.868-.66-1.464-.74-2.813-.237-4.05.507-1.238 1.536-2.207 3.084-2.907 1.41-.636 2.728-.72 3.956-.253 1.232.466 2.17 1.409 2.81 2.83m-3.378.377c-.246-.544-.604-.91-1.073-1.096-.467-.194-.957-.176-1.47.056-.555.25-.935.612-1.14 1.084-.207.466-.221 1.012-.041 1.638l3.724-1.682M233.827 65.604l2.265 5.55-2.93 1.196-.368-.904-1.365-3.344c-.321-.787-.561-1.321-.721-1.604-.155-.285-.304-.48-.448-.586a1.26 1.26 0 00-.643-.25 1.46 1.46 0 00-.734.109c-.608.248-.989.679-1.143 1.292-.157.609-.066 1.328.272 2.158l1.83 4.484-2.913 1.188-3.72-9.114 2.914-1.189.545 1.335c.222-.71.53-1.292.921-1.743.39-.456.883-.806 1.48-1.05 1.052-.43 1.981-.432 2.787-.008.812.422 1.469 1.249 1.971 2.48M244.552 66.234c-.211.688-.515 1.248-.913 1.68-.397.432-.918.765-1.562 1-1.129.411-2.223.309-3.284-.309-1.063-.623-1.845-1.622-2.347-2.998-.504-1.382-.548-2.648-.131-3.798.415-1.155 1.186-1.938 2.315-2.35.644-.234 1.257-.315 1.839-.24.582.075 1.176.31 1.783.707l-.5-1.371 2.972-1.084 3.032 8.315c.542 1.486.485 2.792-.171 3.917-.65 1.128-1.865 2.018-3.65 2.668-.577.21-1.152.37-1.723.48-.572.108-1.163.17-1.775.188l-.84-2.304a7.362 7.362 0 001.76.106 5.51 5.51 0 001.576-.322c.97-.353 1.602-.824 1.899-1.412.297-.589.28-1.334-.049-2.237l-.231-.636m-4.047-5.045c-.612.223-1.005.622-1.182 1.198-.177.576-.115 1.277.186 2.103.31.847.71 1.431 1.2 1.751.49.315 1.05.357 1.683.126.617-.225 1.013-.625 1.19-1.201.177-.576.116-1.274-.183-2.094-.301-.826-.705-1.402-1.21-1.73-.507-.326-1.068-.377-1.684-.153M251.658 68.032c.275-1.56.383-3.03.323-4.41a14.464 14.464 0 00-.7-3.916 14.37 14.37 0 00-1.764-3.555c-.772-1.145-1.732-2.26-2.88-3.344l2.48-.818c1.295 1.085 2.352 2.186 3.171 3.304a12.36 12.36 0 011.837 3.494c.402 1.219.604 2.516.607 3.89.002 1.37-.197 2.882-.595 4.537l-2.48.818" style="-inkscape-font-specification:DejaVu Sans Bold" />
      </g>
      <g style="text-align:start;line-height:125%;-inkscape-font-specification:DejaVu Sans Bold" font-size="18" font-weight="700" fill="#364e59" font-family="DejaVu Sans">
         <path d="M451.017 48.049c-.995-.273-1.867-.117-2.616.467-.75.584-1.308 1.543-1.673 2.877-.365 1.328-.373 2.434-.027 3.319.347.885 1.018 1.464 2.012 1.736 1 .275 1.875.12 2.625-.465.75-.584 1.306-1.54 1.67-2.868.366-1.333.376-2.443.03-3.328-.348-.885-1.021-1.464-2.021-1.738m.648-2.365c2.035.558 3.468 1.577 4.302 3.057.833 1.48.969 3.246.406 5.297-.56 2.045-1.577 3.492-3.049 4.34-1.472.848-3.225.993-5.26.435-2.028-.556-3.462-1.575-4.301-3.057-.834-1.48-.97-3.243-.409-5.288.563-2.052 1.58-3.501 3.052-4.35 1.478-.846 3.23-.99 5.26-.434M458.74 51.326l2.999.954.275 7.226 4.39-5.743 3.007.956-6.676 8.207-3.292-1.047-.703-10.553M479.032 63.335l-.301.844-6.928-2.475c-.177.72-.112 1.332.194 1.833.307.502.846.89 1.618 1.166a7.52 7.52 0 002.01.41c.723.048 1.497.007 2.32-.122l-.815 2.284a13.29 13.29 0 01-2.316-.155 11.547 11.547 0 01-2.176-.544c-1.677-.6-2.83-1.49-3.459-2.674-.621-1.186-.657-2.55-.107-4.089.54-1.512 1.42-2.538 2.64-3.079 1.226-.539 2.639-.522 4.239.05 1.457.52 2.464 1.375 3.022 2.564.564 1.19.584 2.52.06 3.987m-2.694-2.073c.2-.563.197-1.074-.012-1.535-.201-.464-.567-.79-1.097-.98-.573-.205-1.098-.209-1.573-.011-.473.192-.862.575-1.167 1.15l3.849 1.376M489.002 64.868a3.827 3.827 0 00-.666-.563 3.502 3.502 0 00-.725-.39c-.753-.295-1.43-.28-2.029.044-.592.322-1.065.932-1.418 1.832l-1.658 4.221-2.929-1.15 3.6-9.162 2.928 1.15-.591 1.505c.611-.452 1.214-.719 1.806-.8.6-.086 1.241.005 1.923.273.098.038.202.086.313.142a7.6 7.6 0 01.48.245l-1.034 2.653M493.65 69.803c-.604-.259-1.102-.352-1.497-.279-.39.075-.67.312-.84.71-.158.367-.16.707-.008 1.02.16.312.458.56.894.748a1.988 1.988 0 001.623.007c.54-.233.936-.644 1.188-1.23l.142-.332-1.502-.644m4.886.805l-2.215 5.161-2.916-1.25.576-1.342c-.624.383-1.232.597-1.825.643-.591.04-1.234-.09-1.928-.388-.937-.402-1.583-1-1.936-1.796-.346-.799-.332-1.634.042-2.507.455-1.06 1.153-1.683 2.092-1.866.945-.181 2.198.063 3.76.733l1.704.731.097-.226c.196-.458.16-.87-.111-1.234-.269-.37-.785-.72-1.55-1.047a8.302 8.302 0 00-1.808-.556 6.443 6.443 0 00-1.725-.08l.946-2.205a17.4 17.4 0 012.011.46c.66.188 1.301.416 1.926.684 1.631.7 2.67 1.528 3.114 2.483.452.953.367 2.153-.254 3.602M510.254 71.735l-1.09 2.323a5.05 5.05 0 00-.893-1.137 4.25 4.25 0 00-1.12-.759c-.796-.373-1.526-.431-2.19-.174-.657.255-1.181.8-1.572 1.632-.39.833-.476 1.586-.254 2.26.228.67.74 1.192 1.536 1.565.446.21.899.34 1.359.395.465.056.929.035 1.39-.066l-1.094 2.331a8.51 8.51 0 01-1.532-.272 8.271 8.271 0 01-1.437-.52c-1.607-.754-2.67-1.755-3.192-3.002-.519-1.254-.433-2.615.256-4.084.69-1.47 1.681-2.402 2.974-2.799 1.295-.401 2.747-.225 4.354.53a8.2 8.2 0 011.317.773c.418.293.815.628 1.188 1.004M517.413 71.844l-1.259 2.496 2.896 1.46-1.014 2.01-2.895-1.461-1.88 3.727c-.206.408-.265.726-.177.955.091.223.377.456.859.698l1.443.729-1.013 2.009-2.409-1.215c-1.11-.56-1.78-1.187-2.014-1.882-.225-.698-.058-1.602.501-2.71l1.88-3.728-1.396-.705 1.013-2.009 1.397.705 1.258-2.496 2.81 1.417M520.945 76.81l2.778 1.479-4.623 8.69-2.778-1.478 4.623-8.69m1.8-3.383l2.778 1.478-1.206 2.265-2.777-1.478 1.205-2.265M533.353 88.084l-2.962 5.21-2.751-1.563.482-.848 1.785-3.14c.42-.74.692-1.259.815-1.56.13-.297.19-.535.184-.714a1.26 1.26 0 00-.201-.66 1.459 1.459 0 00-.54-.509c-.57-.324-1.144-.357-1.722-.1-.575.253-1.084.77-1.528 1.549l-2.393 4.21-2.735-1.555 4.865-8.558 2.735 1.555-.712 1.253c.696-.264 1.343-.382 1.94-.353.599.024 1.179.195 1.74.514.987.562 1.564 1.29 1.729 2.186.17.899-.074 1.926-.731 3.083M539.487 96.904c-.67.26-1.299.366-1.884.32-.585-.045-1.17-.248-1.752-.61-1.02-.632-1.617-1.556-1.787-2.772-.167-1.22.135-2.453.907-3.698.775-1.25 1.743-2.067 2.904-2.45 1.164-.388 2.257-.266 3.278.367.582.361 1.024.793 1.326 1.297.3.504.483 1.117.546 1.838l.769-1.24 2.689 1.667-4.663 7.523c-.833 1.345-1.895 2.107-3.185 2.286-1.288.187-2.739-.22-4.352-1.22a11.06 11.06 0 01-1.443-1.059 11.158 11.158 0 01-1.245-1.278l1.292-2.084c.302.559.636 1.042 1.004 1.45a5.51 5.51 0 001.227 1.04c.877.543 1.638.749 2.284.619.646-.13 1.223-.604 1.729-1.421l.356-.575m1.465-6.3c-.553-.343-1.11-.405-1.672-.188-.562.217-1.075.699-1.538 1.446-.475.767-.687 1.442-.635 2.026.055.578.369 1.045.942 1.4.557.346 1.117.41 1.68.193.56-.217 1.072-.696 1.532-1.438.463-.748.667-1.42.61-2.02-.055-.6-.361-1.073-.92-1.419M558.107 110.58a8.642 8.642 0 01-3.876-1.53c-1.789-1.256-2.856-2.75-3.2-4.48-.342-1.737.088-3.461 1.29-5.173 1.205-1.717 2.68-2.707 4.427-2.97 1.749-.268 3.518.225 5.306 1.481a8.644 8.644 0 012.755 3.127l-1.56 2.223a7.383 7.383 0 00-.977-1.836 6.156 6.156 0 00-1.404-1.35c-.988-.694-1.987-.923-2.997-.687-1.01.235-1.906.91-2.687 2.022-.778 1.108-1.106 2.177-.985 3.207.121 1.03.676 1.892 1.664 2.586a6.155 6.155 0 001.747.862 7.38 7.38 0 002.058.296l-1.56 2.222M564.764 104.142l2.506 1.903-1.933 6.92 5.831-3.96 2.506 1.903-9.813 6.078c-.994.621-1.844.936-2.55.945-.703.017-1.417-.25-2.14-.799l-1.45-1.1 1.25-1.645.783.595c.425.323.784.49 1.079.499.298.013.634-.114 1.007-.382l.235-.164 2.689-10.793M581.343 117.532l-1.619 1.991a5.05 5.05 0 00-.592-1.32 4.25 4.25 0 00-.903-1.006c-.682-.555-1.377-.787-2.084-.698-.699.089-1.338.49-1.919 1.204-.58.713-.845 1.424-.793 2.13.06.706.431 1.337 1.113 1.891.382.31.79.548 1.223.712.438.167.893.258 1.365.272l-1.625 1.997a8.509 8.509 0 01-1.421-.634 8.296 8.296 0 01-1.268-.85c-1.378-1.121-2.168-2.35-2.373-3.686-.2-1.342.212-2.642 1.236-3.901 1.024-1.26 2.211-1.925 3.562-1.997 1.354-.077 2.72.445 4.097 1.565.4.325.763.681 1.09 1.068.336.387.64.807.911 1.262M586.297 116.316l2.39 2.046-8.892 10.39-2.39-2.046 8.892-10.39M592.713 133.649l-.601.665-5.457-4.933c-.439.598-.612 1.188-.52 1.768.09.58.44 1.146 1.05 1.696a7.519 7.519 0 001.7 1.146c.65.32 1.381.578 2.192.773l-1.627 1.8c-.74-.29-1.434-.633-2.08-1.028-.65-.39-1.252-.835-1.804-1.334-1.321-1.194-2.046-2.458-2.176-3.792-.121-1.334.367-2.607 1.463-3.82 1.077-1.19 2.282-1.803 3.616-1.837 1.338-.03 2.638.524 3.898 1.664 1.148 1.037 1.753 2.212 1.815 3.524.066 1.316-.424 2.552-1.469 3.708m-1.698-2.945c.401-.443.593-.918.576-1.423-.01-.505-.222-.947-.64-1.324-.452-.409-.935-.613-1.45-.612-.51-.003-1.016.203-1.517.618l3.031 2.741M597.672 148.711l-1.849-1.842c.386-1.658.887-3.099 1.502-4.322a12.432 12.432 0 012.288-3.205 12.513 12.513 0 013.202-2.305c1.238-.628 2.679-1.136 4.323-1.525l1.849 1.843c-1.511.454-2.87 1.02-4.074 1.698a14.37 14.37 0 00-3.171 2.386 14.676 14.676 0 00-2.387 3.18c-.673 1.207-1.234 2.57-1.683 4.092M609.192 156.302a8.644 8.644 0 01-3.49-2.28c-1.498-1.59-2.242-3.268-2.231-5.033.015-1.77.784-3.372 2.306-4.806 1.527-1.44 3.172-2.112 4.935-2.018 1.767.09 3.4.93 4.899 2.52a8.644 8.644 0 012.069 3.618l-1.977 1.863a7.383 7.383 0 00-.587-1.995 6.156 6.156 0 00-1.103-1.605c-.828-.879-1.76-1.304-2.797-1.277-1.037.027-2.05.507-3.04 1.44-.985.928-1.522 1.909-1.61 2.942-.09 1.034.28 1.99 1.108 2.868.462.49.975.89 1.538 1.196a7.382 7.382 0 001.956.705l-1.976 1.862M621.478 162.3l-4.516 3.94-2.08-2.384.735-.641 2.708-2.364c.65-.566 1.082-.97 1.297-1.213.22-.239.356-.443.41-.614a1.26 1.26 0 00.028-.69 1.459 1.459 0 00-.342-.658c-.431-.495-.962-.716-1.593-.663-.626.049-1.277.368-1.952.957l-3.65 3.184-2.068-2.37 10.304-8.992 2.069 2.37-3.973 3.468c.744-.02 1.394.082 1.947.307.558.22 1.05.574 1.473 1.06.747.856 1.051 1.734.91 2.634-.135.904-.705 1.794-1.707 2.668M628.876 173.015l-.697.564-4.63-5.717c-.526.524-.788 1.08-.787 1.667 0 .587.259 1.2.775 1.837.417.515.918.98 1.503 1.396.594.416 1.276.784 2.047 1.102l-1.886 1.527a13.289 13.289 0 01-1.896-1.337 11.533 11.533 0 01-1.576-1.597c-1.121-1.384-1.643-2.745-1.565-4.082.087-1.337.765-2.52 2.036-3.548 1.247-1.01 2.533-1.43 3.856-1.257 1.327.177 2.525.926 3.595 2.246.973 1.202 1.39 2.456 1.248 3.762-.138 1.31-.812 2.456-2.023 3.437m-1.223-3.172c.464-.376.727-.815.788-1.317.07-.501-.073-.97-.427-1.407-.384-.474-.83-.75-1.338-.828-.504-.082-1.035.043-1.595.376l2.572 3.176M637.22 182.322l-4.794 3.598-1.9-2.53.78-.586 2.89-2.169c.68-.51 1.136-.878 1.369-1.104.236-.222.388-.416.453-.582.09-.222.117-.45.079-.686a1.459 1.459 0 00-.292-.682c-.394-.524-.907-.784-1.54-.778-.628.003-1.3.273-2.018.811l-3.873 2.907-1.889-2.516 7.873-5.91 1.889 2.517-1.153.866c.744.034 1.384.184 1.92.449.54.261 1.004.65 1.39 1.165.683.909.921 1.807.715 2.694-.202.892-.835 1.737-1.9 2.536M639.33 192.857c-.72-.03-1.338-.182-1.857-.458-.518-.275-.973-.694-1.363-1.258-.684-.987-.862-2.072-.534-3.255.334-1.186 1.102-2.196 2.307-3.03 1.208-.837 2.422-1.2 3.64-1.089 1.222.109 2.175.656 2.86 1.644.39.563.623 1.136.698 1.718.075.583-.002 1.217-.232 1.904l1.2-.831 1.801 2.601-7.275 5.04c-1.3.9-2.578 1.176-3.833.826-1.256-.341-2.424-1.293-3.505-2.853a11.06 11.06 0 01-.9-1.547c-.25-.525-.461-1.081-.633-1.668l2.016-1.397c.054.633.168 1.21.343 1.73a5.51 5.51 0 00.71 1.443c.588.848 1.204 1.34 1.848 1.479.645.138 1.362-.067 2.152-.614l.556-.386m3.855-5.193c-.37-.535-.856-.814-1.458-.84-.602-.025-1.264.213-1.987.714-.741.513-1.205 1.048-1.39 1.604-.18.553-.079 1.106.305 1.66.374.54.861.822 1.463.847.602.025 1.262-.211 1.98-.708.722-.5 1.177-1.037 1.365-1.61.188-.572.096-1.127-.278-1.667M639.39 200.186c1.579-.128 3.028-.396 4.348-.804a14.464 14.464 0 003.611-1.667 14.37 14.37 0 002.993-2.607c.913-1.038 1.748-2.249 2.506-3.633l1.419 2.191c-.721 1.528-1.52 2.83-2.393 3.905a12.36 12.36 0 01-2.916 2.662 12.432 12.432 0 01-3.61 1.572c-1.324.348-2.837.539-4.54.573l-1.418-2.192" style="-inkscape-font-specification:DejaVu Sans Bold" />
      </g>
      <g font-weight="400" font-family="Sans"><text x="-387.61" y="622.414" style="text-align:start;line-height:125%;-inkscape-font-specification:Sans" font-size="38.194" transform="matrix(.72187 0 0 .72187 868 -153.596)">
            <tspan x="-387.61" y="622.414">EARTH</tspan>
         </text><text x="-371.357" y="641.061" style="text-align:start;line-height:125%;-inkscape-font-specification:Sans" font-size="22" transform="matrix(.72187 0 0 .72187 868 -153.596)">
            <tspan x="-371.357" y="641.061">Crossing</tspan>
         </text><text x="-362.13" y="664.05" style="text-align:start;line-height:125%;-inkscape-font-specification:Sans" font-size="22" transform="matrix(.72187 0 0 .72187 868 -153.596)">
            <tspan x="-362.13" y="664.05">(Heng)</tspan>
         </text><text x="-348.654" y="582" style="text-align:start;line-height:125%;-inkscape-font-specification:Sans" font-size="22" transform="matrix(.72187 0 0 .72187 868 -153.596)">
            <tspan x="-348.654" y="582">+ST</tspan>
         </text><text x="-342.289" y="694" style="text-align:start;line-height:125%;-inkscape-font-specification:Sans" font-size="22" transform="matrix(.72187 0 0 .72187 868 -153.596)">
            <tspan x="-342.289" y="694">-SP</tspan>
         </text></g>
      <g font-weight="400" font-family="Sans"><text x="-385.088" y="622.414" style="text-align:start;line-height:125%;-inkscape-font-specification:Sans" font-size="38.194" transform="matrix(.72187 0 0 .72187 760.414 166.333)">
            <tspan x="-385.088" y="622.414">METAL</tspan>
         </text><text x="-366.313" y="641.061" style="text-align:start;line-height:125%;-inkscape-font-specification:Sans" font-size="22" transform="matrix(.72187 0 0 .72187 760.414 166.333)">
            <tspan x="-366.313" y="641.061">Splitting</tspan>
         </text><text x="-338.91" y="664.05" style="text-align:start;line-height:125%;-inkscape-font-specification:Sans" font-size="22" transform="matrix(.72187 0 0 .72187 760.414 166.333)">
            <tspan x="-338.91" y="664.05">(Pi)</tspan>
         </text><text x="-343.932" y="582" style="text-align:start;line-height:125%;-inkscape-font-specification:Sans" font-size="22" transform="matrix(.72187 0 0 .72187 760.414 166.333)">
            <tspan x="-343.932" y="582">+LU</tspan>
         </text><text x="-333.668" y="694" style="text-align:start;line-height:125%;-inkscape-font-specification:Sans" font-size="22" transform="matrix(.72187 0 0 .72187 760.414 166.333)">
            <tspan x="-333.668" y="694">-LI</tspan>
         </text></g>
      <g fill="#fff" font-weight="400" font-family="Sans"><text x="-382.845" y="622.414" style="text-align:start;line-height:125%;-inkscape-font-specification:Sans" font-size="38.194" transform="matrix(.72187 0 0 .72187 419.585 167.161)">
            <tspan x="-382.845" y="622.414">WATER</tspan>
         </text><text x="-355.588" y="641.061" style="text-align:start;line-height:125%;-inkscape-font-specification:Sans" font-size="22" transform="matrix(.72187 0 0 .72187 419.585 167.161)">
            <tspan x="-355.588" y="641.061">Drilling</tspan>
         </text><text x="-353.181" y="664.05" style="text-align:start;line-height:125%;-inkscape-font-specification:Sans" font-size="22" transform="matrix(.72187 0 0 .72187 419.585 167.161)">
            <tspan x="-353.181" y="664.05">(Zuan)</tspan>
         </text><text x="-341.548" y="582" style="text-align:start;line-height:125%;-inkscape-font-specification:Sans" font-size="22" transform="matrix(.72187 0 0 .72187 419.585 167.161)">
            <tspan x="-341.548" y="582">+UB</tspan>
         </text><text x="-335.892" y="694" style="text-align:start;line-height:125%;-inkscape-font-specification:Sans" font-size="22" transform="matrix(.72187 0 0 .72187 419.585 167.161)">
            <tspan x="-335.892" y="694">-KD</tspan>
         </text></g>
      <g font-weight="400" font-family="Sans"><text x="-374.69" y="622.414" style="text-align:start;line-height:125%;-inkscape-font-specification:Sans" font-size="38.194" transform="matrix(.72187 0 0 .72187 311.414 -153.839)">
            <tspan x="-374.69" y="622.414">WOOD</tspan>
         </text><text x="-360.103" y="641.061" style="text-align:start;line-height:125%;-inkscape-font-specification:Sans" font-size="22" transform="matrix(.72187 0 0 .72187 311.414 -153.839)">
            <tspan x="-360.103" y="641.061">Crushing</tspan>
         </text><text x="-348.405" y="664.05" style="text-align:start;line-height:125%;-inkscape-font-specification:Sans" font-size="22" transform="matrix(.72187 0 0 .72187 311.414 -153.839)">
            <tspan x="-348.405" y="664.05">(Beng)</tspan>
         </text><text x="-337.222" y="582" style="text-align:start;line-height:125%;-inkscape-font-specification:Sans" font-size="22" transform="matrix(.72187 0 0 .72187 311.414 -153.839)">
            <tspan x="-337.222" y="582">+GB</tspan>
         </text><text x="-328.408" y="694" style="text-align:start;line-height:125%;-inkscape-font-specification:Sans" font-size="22" transform="matrix(.72187 0 0 .72187 311.414 -153.839)">
            <tspan x="-328.408" y="694">-LV</tspan>
         </text></g>
      <g fill="#fff" font-weight="400" font-family="Sans"><text x="-352.099" y="622.414" style="text-align:start;line-height:125%;-inkscape-font-specification:Sans" font-size="38.194" transform="matrix(.72187 0 0 .72187 583.757 -354.596)">
            <tspan x="-352.099" y="622.414">FIRE</tspan>
         </text><text x="-363.774" y="641.061" style="text-align:start;line-height:125%;-inkscape-font-specification:Sans" font-size="22" transform="matrix(.72187 0 0 .72187 583.757 -354.596)">
            <tspan x="-363.774" y="641.061">Exploding</tspan>
         </text><text x="-337.67" y="664.05" style="text-align:start;line-height:125%;-inkscape-font-specification:Sans" font-size="22" transform="matrix(.72187 0 0 .72187 583.757 -354.596)">
            <tspan x="-337.67" y="664.05">(Pao)</tspan>
         </text><text x="-299.234" y="582" style="text-align:start;line-height:125%;-inkscape-font-specification:Sans" font-size="22" transform="matrix(.72187 0 0 .72187 583.757 -354.596)">
            <tspan x="-299.234" y="582">+TH</tspan>
         </text><text x="-297.902" y="694" style="text-align:start;line-height:125%;-inkscape-font-specification:Sans" font-size="22" transform="matrix(.72187 0 0 .72187 583.757 -354.596)">
            <tspan x="-297.902" y="694">-PC</tspan>
         </text><text x="-365.729" y="582" style="text-align:start;line-height:125%;-inkscape-font-specification:Sans" font-size="22" transform="matrix(.72187 0 0 .72187 583.757 -354.596)">
            <tspan x="-365.729" y="582">+SI</tspan>
         </text><text x="-364.396" y="694" style="text-align:start;line-height:125%;-inkscape-font-specification:Sans" font-size="22" transform="matrix(.72187 0 0 .72187 583.757 -354.596)">
            <tspan x="-364.396" y="694">-HT</tspan>
         </text></g><text x="274.825" y="388.76" style="text-align:start;line-height:125%;-inkscape-font-specification:Sans Bold" font-size="9.831" font-weight="700" fill="#0e232e" font-family="Sans">
         <tspan x="274.825" y="388.76">Cycles of Generation &amp; Control</tspan>
      </text><text x="304.999" y="428.439" style="text-align:start;line-height:125%;-inkscape-font-specification:Sans Bold" font-size="9.831" font-weight="700" fill="#0e232e" font-family="Sans">
         <tspan x="304.999" y="428.439">Cycles of Imbalance</tspan>
      </text><text x="130.484" y="218.255" transform="rotate(-23.994)" style="text-align:start;line-height:125%;-inkscape-font-specification:DejaVu Sans" font-size="18" font-weight="400" fill="#0e232e" font-family="DejaVu Sans">
         <tspan x="130.484" y="218.255">Overacts</tspan>
      </text><text x="-119.218" y="242.992" transform="rotate(-55.477)" style="text-align:start;line-height:125%;-inkscape-font-specification:DejaVu Sans" font-size="18" font-weight="400" fill="#0e232e" font-family="DejaVu Sans">
         <tspan x="-119.218" y="242.992">Creates</tspan>
      </text><text x="-459.769" y="48.647" transform="rotate(-94.639)" style="text-align:start;line-height:125%;-inkscape-font-specification:DejaVu Sans" font-size="18" font-weight="400" fill="#fff" font-family="DejaVu Sans">
         <tspan x="-459.769" y="48.647">Overacts</tspan>
      </text><text x="456.044" y="235.194" transform="rotate(51.849)" style="text-align:start;line-height:125%;-inkscape-font-specification:DejaVu Sans" font-size="18" font-weight="400" fill="#fff" font-family="DejaVu Sans">
         <tspan x="456.044" y="235.194">Creates</tspan>
      </text><text x="401.519" y="586.924" transform="rotate(12.532)" style="text-align:start;line-height:125%;-inkscape-font-specification:DejaVu Sans" font-size="18" font-weight="400" fill="#0e232e" font-family="DejaVu Sans">
         <tspan x="401.519" y="586.924">Overacts</tspan>
      </text><text x="125.053" y="767.808" transform="rotate(-21.163)" style="text-align:start;line-height:125%;-inkscape-font-specification:DejaVu Sans" font-size="18" font-weight="400" fill="#0e232e" font-family="DejaVu Sans">
         <tspan x="125.053" y="767.808">Creates</tspan>
      </text><text x="-185.454" y="794.215" transform="rotate(-59.784)" style="text-align:start;line-height:125%;-inkscape-font-specification:DejaVu Sans" font-size="18" font-weight="400" fill="#0e232e" font-family="DejaVu Sans">
         <tspan x="-185.454" y="794.215">Overacts</tspan>
      </text><text x="385.183" y="-621.305" transform="rotate(88.523)" style="text-align:start;line-height:125%;-inkscape-font-specification:DejaVu Sans" font-size="18" font-weight="400" fill="#0e232e" font-family="DejaVu Sans">
         <tspan x="385.183" y="-621.305">Creates</tspan>
      </text><text x="485.883" y="-285.889" transform="rotate(47.514)" style="text-align:start;line-height:125%;-inkscape-font-specification:DejaVu Sans" font-size="18" font-weight="400" fill="#fff" font-family="DejaVu Sans">
         <tspan x="485.883" y="-285.889">Overacts</tspan>
      </text><text x="449.272" y="-5.974" transform="rotate(16.523)" style="text-align:start;line-height:125%;-inkscape-font-specification:DejaVu Sans" font-size="18" font-weight="400" fill="#fff" font-family="DejaVu Sans">
         <tspan x="449.272" y="-5.974">Creates</tspan>
      </text><text x="221.526" y="351.52" style="text-align:start;line-height:125%;-inkscape-font-specification:Sans Bold" font-size="32.119" font-weight="700" font-family="Sans">
         <tspan x="221.526" y="351.52">FIVE ELEMENTS</tspan>
      </text>
   </g>
</svg>