<svg xmlns="http://www.w3.org/2000/svg" width="350" height="785" version="1.0">
   <path style="marker:none" d="M173.631 26.131c.813 3.88-2.267 8.218-6.833 8.483-9.873.575-8.299.52-9.387-5.086-.756-3.892 2.161-7.79 6.638-8.728 4.477-.937 8.77 1.451 9.582 5.331z" color="#000" fill="#fff" fill-rule="evenodd" stroke="#fff" stroke-width="3" stroke-linecap="round" stroke-linejoin="round" overflow="visible" />
   <g stroke="#000">
      <path d="M77.59 468.587c-1.95 2.632-2.432 3.192-3.742 5.003-10.878 21.62-16.272 19.893-21.963 24.535-.26-.482-2.286 3.073-2.464 2.667-4.985-4.353 7.544-11.307 9.244-13.416 1.645-2.041 2.414-3.993 3.703-6.968l-.715-.693c-23.252 15.47-18.089 25.749-20.632 29.898-.57.843-1.7 2.43-3.102 1.564.398-1.52-.059-2.632.732-4.001-3.038 2.832-3.267 2.732-4.62 2.118.438-.986.674-1.985 1.072-2.802-2.283 1.826-3.15 1.532-4.439.374a186.272 186.272 0 001.712-3.578c-3.133 2.385-4.087 2.38-5.297 1.15l1.91-2.826c1.015-4.276-.48-5.702 5.52-14.873 5.344-8.167 19.4-14.682 26.363-20.187l5.477-8.052" fill="#f5ca44" fill-rule="evenodd" stroke-width=".233" stroke-linecap="round" stroke-linejoin="round" />
      <path d="M32.443 503.233c.657-8.677 3.809-15.484 10.178-20.268m-7.5 23.571c.657-8.676 3.72-16.912 10.09-21.696m-6.546 22.384c.657-8.676 4.015-16.528 10.385-21.313" fill="none" stroke-width=".25" />
   </g>
   <path d="M252.03 151.457c8.633-46.21 20.935-90.943 30.102-137.032l-13.35.495c-3.73 22.848-7.332 43.753-13.904 66.66l-82.182 1.466c8.999 23.923 11.833 43.085 14.107 66.329 20.83-1.177 42.616-.126 65.228 2.082z" fill="#c13c1b" fill-rule="evenodd" stroke="#000" stroke-width=".213" />
   <path d="M207.196 78.7c-16.688-12.23-52.827-37.42-50.851-51.299.86-6.038 5.327-8.76 10.158-8.832 5.501-.08 8.375 4.796 8.37 8.66-.006 4.92-4.343 8.143-8.453 7.934-4.709-.238-6.795-3.719-6.194-7.627.508-3.3 2.95-4.539 5.721-4.645 3.145-.121 5.317 2.403 5.273 4.845-.042 2.37-2.315 4.375-4.222 4.183-2.08-.209-3.573-1.374-3.518-3.374.055-1.998 1.39-2.74 2.53-2.639.76.068 1.588.233 1.755 1.472.134.996-.5 1.808-1.04 1.745" fill="none" stroke="#000" stroke-width="2.047" stroke-linecap="round" stroke-linejoin="round" />
   <path d="M207.196 78.7c-16.688-12.23-52.827-37.42-50.851-51.299.86-6.038 5.327-8.76 10.158-8.832 5.501-.08 8.375 4.796 8.37 8.66-.006 4.92-4.343 8.143-8.453 7.934-4.709-.238-6.795-3.719-6.194-7.627.508-3.3 2.95-4.539 5.721-4.645 3.145-.121 5.317 2.403 5.273 4.845-.042 2.37-2.315 4.375-4.222 4.183-2.08-.209-3.573-1.374-3.518-3.374.055-1.998 1.39-2.74 2.53-2.639.76.068 1.588.233 1.755 1.472.134.996-.5 1.808-1.04 1.745" fill="none" stroke="#c13c1b" stroke-width="1.706" stroke-linecap="round" stroke-linejoin="round" />
   <path d="M189.038 149.65c-1.656-28.243 6.195-57.3 17.993-72.142 12.751-16.042 31.087-37.245 34.816-47.355-.168-3.5-1.242-7.44.075-10.972 5.786-10.46 20.72-3.484 19.318 5.69-1.2 4.715-4.31 7.967-7.538 11.13-.04 35.295 3.333 53.521-5.703 113.33" fill="#fff" fill-rule="evenodd" stroke="#000" stroke-width=".64" />
   <path d="M281.729 319.497l16.503.962.546-30.38c.714-11.605.086-16.31-2.26-24.027-6.448-27.632-13.63-55.419-26.023-84.303-9.502-17.078-11.876-37.913-44.501-39.513-8.466-.373-16.945-.221-25.464 1.343-2.746 1.364-20.109 3.372-23.053 29.368 16.238-.327 14.803 5.92 30.063 12.051l9.615.997 4.38 11.939c-4.631 5.261-6.947 19.723-8.358 37.526-1.827 25.446-2.262 50.962-4.284 76.397l24.376.965 6.5-20.735 33.025-18.304c8.698 7.458 5.513 6.047 9.6 27.784-.353 5.156-.01 11.158-.665 17.93z" fill="#025" fill-rule="evenodd" stroke="#000" stroke-width=".205" stroke-linecap="round" stroke-linejoin="round" />
   <path d="M274.465 306.96l23.97 1.114-.211 12.356-24.607-.477.848-12.993z" fill="#fac53a" fill-rule="evenodd" stroke-linecap="round" stroke-linejoin="round" stroke="#c13c1b" stroke-width=".42" />
   <path d="M275.414 308.604l21.675.825m-21.75 1.125l21.675.825m-21.675 1.275l21.675.825m-21.75 1.125l21.675.825m-21.6 1.201l21.675.674m-21.825 1.426l21.75.524" stroke-width=".63" fill="none" stroke="#c13c1b" stroke-linecap="round" stroke-linejoin="round" />
   <path d="M148.008 768.787c23.779-5.526 41.441-16.17 48.103-21.242.148-.36.422-2.544.415-2.862l2.034-29.8h3.606l-1.909 28.002c-5.87 9.447-35.54 22.974-52.396 25.88l-9.015-.955c-1.052 2.667-2.534 6.653 3.606 7.505 60.093-.215 44.513-1.144 68.261-2 1.596 3.002 13.484 1.634 15.212 1.39 3.616-1.402 4.434-8.16 3.818-9.759-1.367-3.549-2.24-8.851-3.182-13.576-1.473-12.091-.6-24.183-.636-36.274 5.986-37.83 3.848-80.114 1.06-113.489 5.595-51.134 11.774-107.837 14-159.733 27.414-18.16-7.953-67.375-5.09-75.942 3.742-25.387 15.06-47.744 27.152-69.79h.424v2.333l-1.06 14.849c-.559 23.342 3.898 51.922 2.633 72.377-4.924 25.755-2.32 50.397.337 75.901l.212 12.94 19.303.424.849-12.94c3.411-22.415 5.344-44.83 4.243-67.245.398-2.706.314-4.948-.75-7.636 1.147-24.395 1.241-48.79.75-73.185l.212-14c.466-4.06 1.087-8.281 1.485-12.091 1.914-18.879-4.716-28.595-15.486-32.668-15.395-5.823-28.704-8.941-42.638-12.834l-39.903-4.773-42.19 15.91c-18.99 8-16.242 23.247-18.244 36.91l-3.606 14.425c-7.661 26.465-13.972 53.155-18.243 80.185-17.951 21.961-32.756 45.926-44.485 71.847l-5.4 9 10.8 10.5 7.5-9c14.273-14.146 36.825-36.431 47.7-62.399 3.352-2.297 4.221-6.597 4.766-9.413 12.175-28.257 20.966-68.458 24.3-85.35l3.033-15.185.9-2.25h.9v4.95c-1.388 6.55-2.212 13.1-2.4 19.65-1.398 3.239-1.951 4.707 1.2 5.1 1.428 4.342 7.503 10.9 9.9 12.9 9.813 6.862 7.687 15.061 6.6 22.799-11.225 79.878-21.416 114.682 1.8 228.596-1.858 13.574 1.2 24.2 1.8 36.3-3.18 30.6-5.59 61.199-5.4 91.798-.167 38.431-11.756 29.915-60.332 53.58l-7.637-.425c-2.31 2.876-.967 6.181.425 7.212l34.47.08c-5.562-1.43-3.762-4.784-2.923-7.549l9.116 1.022z" fill="#f5ca44" fill-rule="evenodd" stroke="#000" stroke-width=".42" stroke-linecap="round" stroke-linejoin="round" />
   <g fill-rule="evenodd" stroke="#000" stroke-linecap="round" stroke-linejoin="round" stroke-width=".21">
      <path d="M270.373 567.42c2.644-.864 4.81-.534 6.894 0l-1.215-33.075 15.75 1.052c-.482-2.369-.645-4.738 0-7.106l-15.75 1.104h0c3.298-5.896 7.923-11.124 9.587-19.746 3.361-17.425-5.524-16.693-11.687-16.748-6.711-.061-16.617.988-12.496 17.49 1.896 7.591 6.517 13.561 10.246 19.004h0l-17.7-1.104c.594 2.368.537 4.737 0 7.106l17.7-1.052h0l-1.329 33.075z" fill="#025" />
      <path d="M271.702 524.525c-3.402-4.618-6.666-9.13-7.488-15.088-1.662-12.042 4.59-13.388 9.65-13.418 4.497-.027 11.144.61 8.169 13.312-1.396 5.96-3.568 11.32-5.981 15.194-1.511 2.046-3.134 1.711-4.35 0z" fill="#fff" />
   </g>
   <path d="M265.38 474.648c-.973 4.869-3.378 10.024-5.727 15.167-3.104 4.928-3.306 11.216-2.44 17.183l-.318 5.621c8.742 1.046.296-10.62 5.834-14.955l.848 8.06c1.585 1.51 3.148 2.703 4.455.32 1.556 1.741 3.111 1.615 4.667-.32 1.902 2.46 3.455.729 5.091 0 1.744 1.365 3.59 1.85 4.773-1.272.344-8.514 2.891-16.782 2.28-29.274" fill="#f5ca44" fill-rule="evenodd" stroke="#000" stroke-width=".21" stroke-linecap="round" stroke-linejoin="round" />
   <path d="M259.325 249.633l-26.786-7.795-39.166-4.192-27.783 10.413c4.996 22.962 23.069 34.203 45.131 34.973 20.897.728 30.727-4.516 37.644-11.678 6.575-6.807 9.734-15.343 10.96-21.72z" fill="#fff" fill-rule="evenodd" stroke="#000" stroke-width=".224" stroke-linecap="round" stroke-linejoin="round" />
   <path style="marker:none" d="M248.192 246.377c-4.616 19.074-16.576 26.143-37.797 25.038-20.574-1.072-31.25-13.713-33.374-26.57l-.335-.942" color="#000" fill="none" stroke="#04a" stroke-width="4.002" stroke-linejoin="round" overflow="visible" />
   <path style="marker:none" d="M237.946 243.434c-4.235 14.919-12.947 18.07-26.993 17.347-13.182-.678-23.293-9.395-23.202-20.207l-.235-.733" color="#000" fill="none" stroke="#308d57" stroke-width="2.456" overflow="visible" />
   <path style="marker:none" d="M244.778 245.444c-3.53 13.463-11.328 23.64-34.074 22.354-19.207-1.086-28.808-13.555-29.993-24.623l-.211-.688" color="#000" fill="none" stroke="#c13c1b" stroke-width="2.456" overflow="visible" />
   <path style="marker:none" d="M234.608 242.4c-.072.23-.032.182-.106.42-2.068 6.676-4.924 15.973-23.496 14.33-12.599-1.115-19.168-8.72-19.555-15.743-.018-.518-.2-1.783-.22-2.434l-.136-.443" color="#000" fill="none" stroke="#04a" stroke-width="3.602" overflow="visible" />
   <path style="marker:none" d="M241.346 244.48c-4.576 18.08-18.564 20.711-30.813 19.827-16.807-1.218-25.805-11.652-26.307-22.672l-.198-.528" color="#000" fill="none" stroke="#04a" stroke-width="3.602" overflow="visible" />
   <path style="marker:none" d="M254.786 248.305c-5.286 20.224-17.287 31.228-43.591 29.957a91.154 91.154 0 01-.33-.017c-30.525-1.583-38.193-21.255-40.567-31.035l-.292-.745" color="#000" fill="none" stroke="#fac53a" stroke-width="8.983" overflow="visible" />
   <g fill="none" stroke="#c13c1b" stroke-width=".225">
      <path d="M200.262 278.99c.541-1.586.26-4.392-.134-6.233-1.319 1.307-3.154 3.495-3.63 4.995-.914 2.883 2.842 3.932 3.764 1.237z" />
      <path d="M199.776 278.79c.401-1.174.195-3.251-.093-4.614-.974.97-2.331 2.59-2.683 3.701-.677 2.136 2.093 2.91 2.776.913z" />
      <path d="M199.783 278.731a2.21 2.21 0 00-1.2-.968c-.67-.215-1.127-.094-1.509.07m2.866-1.232c-.195-.252-.63-.501-.843-.567-.232-.071-.728-.06-.957.001" style="marker:none" color="#000" stroke-linecap="round" stroke-linejoin="round" overflow="visible" />
   </g>
   <g fill="none" stroke="#c13c1b" stroke-width=".225">
      <path d="M204.973 279.767c.386-1.63-.167-4.396-.736-6.19-1.186 1.428-2.801 3.784-3.13 5.322-.63 2.958 3.21 3.639 3.866.868z" />
      <path d="M204.47 279.616c.286-1.208-.12-3.255-.539-4.584-.876 1.06-2.07 2.804-2.312 3.944-.467 2.19 2.365 2.692 2.852.64z" />
      <path d="M204.472 279.556a2.21 2.21 0 00-1.288-.847c-.687-.15-1.13.015-1.495.216m2.733-1.504c-.218-.232-.675-.438-.894-.483-.238-.048-.73.012-.953.094" style="marker:none" color="#000" stroke-linecap="round" stroke-linejoin="round" overflow="visible" />
   </g>
   <g fill="none" stroke="#c13c1b" stroke-width=".225">
      <path d="M195.464 277.632c.696-1.523.694-4.344.486-6.215-1.442 1.17-3.486 3.165-4.108 4.61-1.196 2.778 2.436 4.195 3.622 1.605z" />
      <path d="M195 277.386c.516-1.128.517-3.216.366-4.6-1.066.867-2.577 2.345-3.038 3.416-.886 2.057 1.794 3.102 2.672 1.184z" />
      <path d="M195.012 277.328a2.21 2.21 0 00-1.096-1.082c-.646-.281-1.113-.206-1.51-.081m2.975-.941c-.17-.27-.577-.562-.783-.648-.224-.094-.718-.131-.953-.094" style="marker:none" color="#000" stroke-linecap="round" stroke-linejoin="round" overflow="visible" />
   </g>
   <g fill="none" stroke="#c13c1b" stroke-width=".225">
      <path d="M214.438 280.318c.052-1.674-1.044-4.273-1.96-5.917-.877 1.637-1.988 4.268-2 5.841-.026 3.025 3.872 2.922 3.96.076z" />
      <path d="M213.916 280.27c.038-1.24-.77-3.164-1.447-4.382-.646 1.213-1.466 3.162-1.475 4.327-.02 2.24 2.856 2.164 2.922.056z" />
      <path style="marker:none" d="M213.905 280.212a2.21 2.21 0 00-1.431-.572c-.704-.009-1.105.241-1.422.51m2.377-2.02c-.261-.183-.75-.294-.974-.294-.242 0-.712.158-.914.283" color="#000" stroke-linecap="round" stroke-linejoin="round" overflow="visible" />
   </g>
   <g fill="none" stroke="#c13c1b" stroke-width=".225">
      <path d="M219.002 280.297c-.015-1.675-1.211-4.23-2.193-5.836-.81 1.67-1.817 4.343-1.768 5.916.093 3.023 3.985 2.767 3.96-.08z" />
      <path d="M218.478 280.27c-.011-1.24-.894-3.132-1.618-4.322-.598 1.237-1.34 3.216-1.304 4.381.069 2.24 2.94 2.05 2.922-.059z" />
      <path d="M218.464 280.212a2.21 2.21 0 00-1.452-.516c-.704.02-1.095.285-1.4.567m2.295-2.113c-.268-.173-.76-.264-.984-.255-.243.01-.706.185-.903.318" style="marker:none" color="#000" stroke-linecap="round" stroke-linejoin="round" overflow="visible" />
   </g>
   <g fill="none" stroke="#c13c1b" stroke-width=".225">
      <path d="M209.661 280.232c.239-1.658-.559-4.363-1.286-6.1-1.054 1.53-2.452 4.02-2.641 5.581-.364 3.003 3.52 3.338 3.927.52z" />
      <path d="M209.147 280.127c.177-1.228-.41-3.232-.947-4.517-.778 1.133-1.81 2.977-1.95 4.134-.27 2.224 2.596 2.47 2.897.383z" />
      <path d="M209.143 280.067a2.21 2.21 0 00-1.358-.728c-.698-.088-1.125.116-1.47.348m2.588-1.742c-.239-.212-.712-.376-.934-.401-.242-.027-.726.077-.94.178" style="marker:none" color="#000" stroke-linecap="round" stroke-linejoin="round" overflow="visible" />
   </g>
   <g fill="none" stroke="#c13c1b" stroke-width=".225">
      <path d="M250.742 263.064c-1.37-.963-4.143-1.478-6.02-1.616.886 1.632 2.472 4.007 3.779 4.883 2.512 1.685 4.57-1.627 2.241-3.267z" />
      <path d="M250.415 263.475c-1.014-.714-3.066-1.098-4.455-1.202.657 1.207 1.834 2.963 2.802 3.612 1.86 1.247 3.378-1.196 1.653-2.41z" />
      <path style="marker:none" d="M250.36 263.452a2.21 2.21 0 00-1.264.88c-.395.583-.407 1.056-.356 1.469m-.38-3.097c-.297.117-.658.464-.781.652-.133.202-.26.682-.267.919" color="#000" stroke-linecap="round" stroke-linejoin="round" overflow="visible" />
   </g>
   <g fill="none" stroke="#c13c1b" stroke-width=".225">
      <path d="M253.265 258.571c-1.458-.824-4.269-1.065-6.15-1.018 1.041 1.538 2.853 3.745 4.24 4.489 2.664 1.43 4.388-2.068 1.91-3.47z" />
      <path d="M252.98 259.012c-1.08-.61-3.16-.792-4.553-.76.773 1.137 2.116 2.77 3.143 3.32 1.974 1.06 3.245-1.521 1.41-2.56z" />
      <path d="M252.923 258.995a2.21 2.21 0 00-1.173 1c-.335.618-.3 1.09-.21 1.496m-.682-3.044c-.284.145-.609.526-.713.724-.113.215-.192.705-.175.941" style="marker:none" color="#000" stroke-linecap="round" stroke-linejoin="round" overflow="visible" />
   </g>
   <g fill="none" stroke="#c13c1b" stroke-width=".225">
      <path d="M247.974 267.105c-1.212-1.156-3.879-2.076-5.715-2.49.634 1.745 1.852 4.329 3.014 5.389 2.235 2.038 4.761-.933 2.701-2.9z" />
      <path d="M247.59 267.463c-.898-.856-2.87-1.54-4.229-1.85.472 1.292 1.376 3.203 2.237 3.988 1.655 1.51 3.518-.682 1.992-2.138z" />
      <path style="marker:none" d="M247.539 267.432a2.21 2.21 0 00-1.381.683c-.477.518-.558.984-.57 1.4m.082-3.119c-.31.072-.718.362-.868.529-.162.18-.358.636-.4.869" color="#000" stroke-linecap="round" stroke-linejoin="round" overflow="visible" />
   </g>
   <g fill="none" stroke="#c13c1b" stroke-width=".225">
      <path d="M256.266 249.652c-1.603-.489-4.398-.113-6.225.34 1.35 1.275 3.598 3.037 5.113 3.462 2.912.818 3.835-2.97 1.112-3.802z" />
      <path d="M256.083 250.144c-1.187-.362-3.256-.087-4.609.247 1.001.941 2.667 2.243 3.789 2.558 2.157.605 2.837-2.19.82-2.805z" />
      <path d="M256.024 250.139a2.21 2.21 0 00-.928 1.23c-.193.678-.057 1.13.12 1.507m-1.326-2.824c-.246.204-.48.646-.54.863-.063.234-.034.729.034.956" style="marker:none" color="#000" stroke-linecap="round" stroke-linejoin="round" overflow="visible" />
   </g>
   <g fill="none" stroke="#c13c1b" stroke-width=".225">
      <path d="M254.902 254.025c-1.549-.639-4.367-.531-6.23-.253 1.224 1.397 3.294 3.365 4.761 3.932 2.82 1.092 4.1-2.592 1.469-3.68z" />
      <path d="M254.673 254.497c-1.147-.473-3.233-.396-4.611-.193.907 1.033 2.44 2.487 3.528 2.908 2.089.808 3.033-1.91 1.083-2.715z" />
      <path d="M254.614 254.487a2.21 2.21 0 00-1.04 1.137c-.257.655-.164 1.12-.024 1.51m-1.052-2.936c-.263.179-.54.597-.618.806-.086.228-.104.723-.058.956" style="marker:none" color="#000" stroke-linecap="round" stroke-linejoin="round" overflow="visible" />
   </g>
   <g fill="none" stroke="#c13c1b" stroke-width=".225">
      <path d="M240.852 273.807c-.833-1.453-3.127-3.094-4.77-4.014.112 1.853.543 4.677 1.355 6.024 1.562 2.59 4.83.462 3.415-2.01z" />
      <path d="M240.382 274.04c-.617-1.076-2.313-2.293-3.527-2.976.084 1.372.406 3.461 1.008 4.459 1.157 1.918 3.567.348 2.519-1.482z" />
      <path style="marker:none" d="M240.342 273.997a2.21 2.21 0 00-1.519.261c-.604.361-.815.785-.944 1.18m.967-2.966c-.318-.02-.792.142-.983.26-.207.126-.525.507-.631.719" color="#000" stroke-linecap="round" stroke-linejoin="round" overflow="visible" />
   </g>
   <g fill="none" stroke="#c13c1b" stroke-width=".225">
      <path d="M244.465 270.833c-1.058-1.299-3.588-2.545-5.358-3.186.41 1.81 1.295 4.526 2.315 5.724 1.963 2.301 4.84-.33 3.043-2.538z" />
      <path d="M244.04 271.14c-.785-.962-2.656-1.887-3.965-2.364.306 1.34.964 3.349 1.72 4.236 1.453 1.704 3.576-.237 2.244-1.872z" />
      <path d="M243.992 271.103a2.21 2.21 0 00-1.455.505c-.538.454-.678.906-.74 1.317m.472-3.084c-.317.032-.759.269-.928.416-.183.159-.435.586-.506.812" style="marker:none" color="#000" stroke-linecap="round" stroke-linejoin="round" overflow="visible" />
   </g>
   <g fill="none" stroke="#c13c1b" stroke-width=".225">
      <path d="M236.727 276.233c-.67-1.535-2.773-3.415-4.306-4.508-.09 1.855.032 4.708.694 6.135 1.272 2.744 4.751.983 3.612-1.627z" />
      <path d="M236.234 276.414c-.496-1.137-2.05-2.53-3.183-3.341-.065 1.373.029 3.484.519 4.541.942 2.033 3.508.733 2.664-1.2z" />
      <path style="marker:none" d="M236.2 276.366a2.21 2.21 0 00-1.538.095c-.64.294-.896.692-1.067 1.07m1.283-2.843c-.314-.054-.803.055-1.006.151-.219.104-.576.448-.705.647" color="#000" stroke-linecap="round" stroke-linejoin="round" overflow="visible" />
   </g>
   <g fill="none" stroke="#c13c1b" stroke-width=".225">
      <path d="M228.007 279.15c-.298-1.648-1.91-3.962-3.15-5.38-.516 1.785-1.055 4.59-.74 6.13.604 2.964 4.396 2.053 3.89-.75z" />
      <path d="M227.486 279.213c-.221-1.22-1.412-2.935-2.327-3.986-.38 1.321-.776 3.398-.543 4.54.448 2.194 3.244 1.522 2.87-.554z" />
      <path d="M227.463 279.158a2.21 2.21 0 00-1.519-.262c-.69.138-1.03.466-1.285.796m1.905-2.472c-.293-.125-.794-.131-1.013-.084-.238.05-.665.302-.836.466" style="marker:none" color="#000" stroke-linecap="round" stroke-linejoin="round" overflow="visible" />
   </g>
   <g fill="none" stroke="#c13c1b" stroke-width=".225">
      <path d="M232.409 277.956c-.458-1.612-2.289-3.757-3.66-5.047-.34 1.826-.602 4.67-.138 6.173.89 2.89 4.575 1.613 3.798-1.126z" />
      <path d="M231.896 278.069c-.339-1.194-1.692-2.784-2.705-3.74-.249 1.352-.44 3.458-.097 4.57.66 2.142 3.378 1.199 2.802-.83z" />
      <path style="marker:none" d="M231.868 278.016a2.21 2.21 0 00-1.537-.112c-.673.205-.98.565-1.2.917m1.653-2.645c-.304-.096-.803-.054-1.016.014-.232.074-.632.366-.786.547" color="#000" stroke-linecap="round" stroke-linejoin="round" overflow="visible" />
   </g>
   <g fill="none" stroke="#c13c1b" stroke-width=".225">
      <path d="M223.592 279.91c-.121-1.67-1.478-4.143-2.56-5.684-.703 1.719-1.537 4.45-1.388 6.016.286 3.011 4.153 2.508 3.948-.332z" />
      <path d="M223.067 279.917c-.09-1.238-1.091-3.07-1.89-4.21-.518 1.272-1.132 3.295-1.022 4.455.212 2.23 3.064 1.859 2.912-.245z" />
      <path d="M223.05 279.86a2.21 2.21 0 00-1.482-.422c-.7.063-1.074.354-1.362.654m2.156-2.254c-.278-.156-.775-.216-.998-.192-.241.025-.693.23-.88.375" style="marker:none" color="#000" stroke-linecap="round" stroke-linejoin="round" overflow="visible" />
   </g>
   <g fill="none" stroke="#c13c1b" stroke-width=".225">
      <path d="M186.695 273.74c1.003-1.342 1.597-4.1 1.789-5.972-1.657.839-4.076 2.356-4.99 3.637-1.755 2.463 1.496 4.616 3.201 2.335z" />
      <path d="M186.294 273.401c.743-.994 1.185-3.034 1.33-4.42-1.225.623-3.015 1.75-3.69 2.698-1.301 1.824 1.097 3.411 2.36 1.722z" />
      <path style="marker:none" d="M186.319 273.347a2.21 2.21 0 00-.844-1.29c-.571-.41-1.044-.436-1.458-.397m3.107-.292c-.109-.3-.445-.67-.63-.799-.198-.139-.673-.28-.91-.293" color="#000" stroke-linecap="round" stroke-linejoin="round" overflow="visible" />
   </g>
   <g fill="none" stroke="#c13c1b" stroke-width=".225">
      <path d="M190.87 275.957c.883-1.424 1.236-4.222 1.265-6.104-1.578.979-3.857 2.7-4.656 4.056-1.536 2.605 1.89 4.468 3.391 2.048z" />
      <path d="M190.441 275.654c.654-1.054.918-3.125.942-4.518-1.167.727-2.852 2.004-3.443 3.007-1.138 1.93 1.39 3.304 2.501 1.511z" />
      <path d="M190.46 275.598a2.21 2.21 0 00-.951-1.211c-.605-.36-1.078-.345-1.487-.27m3.069-.559c-.133-.29-.501-.63-.695-.742-.21-.122-.696-.22-.933-.213" style="marker:none" color="#000" stroke-linecap="round" stroke-linejoin="round" overflow="visible" />
   </g>
   <g fill="none" stroke="#c13c1b" stroke-width=".225">
      <path d="M182.716 271.051c1.193-1.176 2.195-3.812 2.666-5.635-1.764.58-4.384 1.717-5.48 2.846-2.106 2.17.785 4.788 2.814 2.79z" />
      <path d="M182.37 270.656c.884-.87 1.628-2.821 1.98-4.17-1.306.432-3.244 1.276-4.055 2.113-1.56 1.607.573 3.538 2.075 2.057z" />
      <path d="M182.403 270.606a2.21 2.21 0 00-.64-1.401c-.503-.493-.967-.589-1.382-.613m3.115.179c-.062-.312-.34-.73-.502-.884-.175-.168-.624-.378-.856-.427" style="marker:none" color="#000" stroke-linecap="round" stroke-linejoin="round" overflow="visible" />
   </g>
   <g fill="none" stroke="#c13c1b" stroke-width=".225">
      <path d="M175.895 264.294c1.468-.806 3.151-3.07 4.102-4.694-1.856.076-4.686.455-6.048 1.243-2.619 1.514-.551 4.82 1.946 3.45z" />
      <path d="M175.67 263.82c1.088-.598 2.336-2.27 3.041-3.472-1.373.06-3.468.342-4.476.926-1.94 1.12-.414 3.56 1.435 2.545z" />
      <path style="marker:none" d="M175.715 263.78a2.21 2.21 0 00-.233-1.523c-.35-.61-.77-.83-1.163-.966m2.948 1.022c.026-.318-.127-.795-.24-.988-.124-.209-.499-.534-.709-.644" color="#000" stroke-linecap="round" stroke-linejoin="round" overflow="visible" />
   </g>
   <g fill="none" stroke="#c13c1b" stroke-width=".225">
      <path d="M179.083 267.917c1.335-1.012 2.67-3.497 3.372-5.243-1.824.347-4.57 1.135-5.801 2.113-2.37 1.88.159 4.85 2.43 3.13z" />
      <path d="M178.792 267.48c.988-.749 1.978-2.587 2.5-3.878-1.349.26-3.38.846-4.293 1.57-1.754 1.392.111 3.582 1.793 2.309z" />
      <path d="M178.83 267.435a2.21 2.21 0 00-.453-1.472c-.436-.554-.883-.709-1.291-.786m3.065.58c-.02-.318-.242-.768-.383-.942-.152-.189-.57-.456-.794-.534" style="marker:none" color="#000" stroke-linecap="round" stroke-linejoin="round" overflow="visible" />
   </g>
   <g fill="none" stroke="#c13c1b" stroke-width=".225">
      <path d="M173.383 260.383c1.502-.741 3.282-2.929 4.303-4.511-1.857-.004-4.702.251-6.097.978-2.682 1.398-.76 4.792 1.794 3.533z" />
      <path d="M173.18 259.9c1.112-.55 2.432-2.167 3.189-3.336-1.374-.001-3.48.19-4.513.73-1.986 1.035-.569 3.538 1.323 2.605z" />
      <path style="marker:none" d="M173.226 259.862a2.21 2.21 0 00-.167-1.532c-.323-.626-.732-.862-1.119-1.016m2.9 1.15c.04-.317-.092-.8-.197-.998-.115-.214-.474-.555-.68-.674" color="#000" stroke-linecap="round" stroke-linejoin="round" overflow="visible" />
   </g>
   <g fill="none" stroke="#c13c1b" stroke-width=".225">
      <path d="M169.688 251.71c1.609-.467 3.745-2.31 5.027-3.688-1.828-.33-4.673-.577-6.174-.105-2.885.907-1.588 4.584 1.147 3.792z" />
      <path d="M169.572 251.197c1.192-.345 2.775-1.706 3.725-2.725-1.353-.241-3.46-.421-4.57-.072-2.138.671-1.18 3.384.845 2.797z" />
      <path d="M169.624 251.169a2.21 2.21 0 00.105-1.538c-.208-.672-.57-.977-.924-1.196m2.655 1.64c.094-.304.048-.803-.02-1.016-.076-.231-.37-.63-.551-.783" style="marker:none" color="#000" stroke-linecap="round" stroke-linejoin="round" overflow="visible" />
   </g>
   <g fill="none" stroke="#c13c1b" stroke-width=".225">
      <path d="M171.22 256.048c1.567-.593 3.549-2.6 4.716-4.077-1.848-.182-4.703-.201-6.162.389-2.804 1.134-1.217 4.696 1.447 3.688z" />
      <path d="M171.064 255.547c1.16-.44 2.63-1.923 3.495-3.014-1.368-.133-3.482-.144-4.562.293-2.076.84-.905 3.468 1.067 2.721z" />
      <path style="marker:none" d="M171.114 255.515a2.21 2.21 0 00-.019-1.541c-.261-.654-.646-.929-1.016-1.119m2.776 1.423c.07-.311-.015-.805-.1-1.012-.094-.224-.42-.598-.612-.736" color="#000" stroke-linecap="round" stroke-linejoin="round" overflow="visible" />
   </g>
   <path d="M259.325 249.633l-26.786-7.795-39.166-4.192-27.783 10.413c4.996 22.962 23.069 34.203 45.131 34.973 20.897.728 30.727-4.516 37.644-11.678 6.575-6.807 9.734-15.343 10.96-21.72z" fill="none" stroke="#000" stroke-width=".224" stroke-linecap="round" stroke-linejoin="round" />
   <path d="M202.289 251.969c-9.708-5.887-6.833-8.55-11.711-25.604-4.652.07-11.44-.53-13.796-1.593-1.858-.838-2.45-1.853-3.04-3.967-.334-1.2.018-3.116.526-5.186-.654-.916-1.78-1.183-2.697-1.734-.82-1.083-.273-2.216-.15-2.7-.578-.662-1.23-1.707-.832-2.6.665-1.101.918-2.19.29-3.246-2.458-.234-6.94-1.747-4.57-7.194 2.135-4.91 5.462-10.37 8.3-15.622l3.177-10.646c9.553.392 28.1-2.313 29.673 12.517l8.257.646 4.121.816-.035.12 3.9-.3c-2.11 7.492-4.304 9.755-7.815 68.947-2.567.264-8.47-.032-13.598-2.654z" fill="#f5ca44" fill-rule="evenodd" stroke="#000" stroke-width=".205" />
   <path d="M178.282 176.339c3.29-1.83 6.56-2.31 9.913-2.119 1.75.1 3.971.553 5.809 1.82 7.276 5.017 7.282 4.424 10.035 5.349.128.193.319.392.012.546-1.406-.117-3.37-.729-5.38-1.51-1.875-.727-3.923-2.486-6.843-3.457-2.152-.716-4.592-.798-6.903-.736-2.136.056-4.28.85-6.751 1.64-.565.18-2.077-.318.108-1.533zm-1.272 8.126c2.921-3.118 5.587-3.764 7.9-3.993 3.536-.349 8.9.213 11.755 1.38 2.05.84 4.099.488 6.67 1.035.48.103.494.892.003.924-2.411.156-5.117-.253-7.196.51-2.536.931-5.285 2.08-7.028 2.707-1.682.605-3.886 1.023-7.404.128-1.16-.295-2.188-.412-3.422.116-3.077 1.317-3.054-.91-1.277-2.807z" fill-rule="evenodd" stroke="#000" stroke-width=".205" />
   <path d="M170.619 208.695c4.782-.432 6.218 1.734 10.49 1.681m-9.465 3.515c5.319.167 6.632-2.229 9.72-2.93" fill="none" stroke="#000" stroke-width=".105" stroke-linecap="round" stroke-linejoin="round" />
   <path d="M171.387 211.236c1.75.37 6.3.062 7.917-.166" fill="none" stroke="#000" stroke-width=".21" stroke-linecap="round" stroke-linejoin="round" />
   <path d="M178.397 185.486c.78-1.43 1.949-1.668 2.98-2.33-.029 1.01.456 1.77 1.293 2.271-1.04-.007-3.711-.203-4.273.06zm12.138-3.329c-.016 1.262-.196 2.472-1.228 3.41 1.795-.29 3.57-1.73 5.026-3.071-1.259.27-2.425-.142-3.798-.339z" fill="#fff" fill-rule="evenodd" stroke="#000" stroke-width=".21" />
   <path d="M173.121 199.73c3.76 3.046 1.74 4.93-.037 4.853-1.758-.078-4.297-3.064-4.929-1.39-.638 1.692 2.85 1.09 2.798.612" fill="none" stroke="#000" stroke-width=".084" />
   <path d="M221.29 195.46c-3.62 2.232-8.033 24.311-8.16 37.745-1.774 25.17-2.178 50.617-4.178 75.77l24.377.965 2-67.234" fill="#025" fill-rule="evenodd" stroke="#000" stroke-width=".205" stroke-linecap="round" stroke-linejoin="round" />
   <path d="M198.576 714.884h27.417c5.987-37.83 3.796-79.902 1.008-113.277 5.594-51.134 11.774-107.837 14-159.733 27.414-18.16-7.954-67.375-5.09-75.942 2.239-15.194 7.334-28.203 13.543-41.809h-89.13c1.428 4.343 7.383 9.25 9.78 11.25 9.813 6.863 7.688 15.062 6.6 22.8-11.225 79.878-21.416 114.682 1.8 228.596-1.857 13.574 1.2 24.2 1.8 36.3-3.18 30.6-5.59 61.199-5.4 91.798l23.672.017z" fill="#c13c1b" fill-rule="evenodd" stroke="#000" stroke-width=".42" stroke-linecap="round" stroke-linejoin="round" />
   <path d="M248.648 324.634l-3.097 7.066h-79.016c-2.123-2.145-4.322-4.7-5.512-7.066h87.625z" fill="#fff" fill-rule="evenodd" stroke="#fff" stroke-width=".63" />
   <path d="M161.354 325.751h87.188m-82.003 6.095h79.236m-81.052-1.648h81.823M166.156 325.943v4.027m1.896-4.027v4.027m2.008-4.027v4.027M180.903 325.943v4.027m1.896-4.027v4.027m2.008-4.027v4.027M195.079 325.943v4.027m1.895-4.027v4.027m2.009-4.027v4.027M209.554 325.943v4.027m1.896-4.027v4.027m2.008-4.027v4.027M224.868 325.943v4.027m1.896-4.027v4.027m2.008-4.027v4.027M238.444 325.943v4.027m1.896-4.027v4.027m2.008-4.027v4.027" fill="none" stroke="#000" stroke-width=".42" stroke-linecap="round" stroke-linejoin="round" />
   <path d="M226.496 707.667l-.975 6.996-50.153-.16.062-6.854 51.066.018z" fill="#fff" fill-rule="evenodd" stroke="#fff" stroke-width=".63" />
   <path d="M174.878 708.714h51.834m-51.538 6.095h50.721m-51.017-1.648h51M178.02 708.906v4.027m1.895-4.027v4.027m2.009-4.027v4.027M190.817 708.906v4.027m1.896-4.027v4.027m2.007-4.027v4.027M204.974 708.906v4.027m1.896-4.027v4.027m2.008-4.027v4.027M218.909 708.906v4.027m1.896-4.027v4.027m2.008-4.027v4.027M174.962 707.305h51.958" fill="none" stroke="#000" stroke-width=".42" stroke-linecap="round" stroke-linejoin="round" />
   <g fill-rule="evenodd" stroke="#000" stroke-linecap="round" stroke-linejoin="round" stroke-width=".21">
      <path d="M157.161 251.285l12.427 72.88h12.493l-18.283-75.393-6.637 2.513z" fill="#fff" />
      <path d="M158.323 250.838l13.177 73.326h8.781l-17.84-74.897-4.118 1.571z" fill="#c13c1b" />
   </g>
   <g fill-rule="evenodd" stroke="#000" stroke-linecap="round" stroke-linejoin="round" stroke-width=".21">
      <path d="M258.922 249.552l-22.579 74.571h10.5l18.027-72.594-5.948-1.977z" fill="#fff" />
      <path d="M260.105 249.942l-21.852 74.181h6.681l18.655-73.073-3.484-1.108z" fill="#c13c1b" />
   </g>
   <g fill-rule="evenodd" stroke="#000" stroke-linecap="round" stroke-linejoin="round" stroke-width=".21">
      <path d="M133.137 290.565l26.278 5.302-2.939 14.559-27.101-5.24 3.762-14.621z" fill="#fac53a" />
      <path d="M132.698 292.235l26.382 5.468-.98 4.791-26.627-5.53 1.225-4.729zm-1.591 6.417l26.607 5.618-.98 4.451-26.852-5.34 1.225-4.729z" fill="#04a" />
   </g>
   <g fill-rule="evenodd" stroke="#000" stroke-linecap="round" stroke-linejoin="round" stroke-width=".21">
      <path d="M67.214 456.294l13.373 10.312-8.41 9.881-10.845-10.615 5.882-9.578z" fill="#fac53a" />
      <path d="M66.422 457.581l12.871 10.32-2.48 2.931-12.1-10.334 1.709-2.917zm-2.652 4.243l12.122 10.245L73.41 475l-11.35-10.26 1.709-2.916z" fill="#04a" />
   </g>
   <path d="M209.766 296.354l23.97 1.113-.477 12.41-24.341-.53.848-12.993z" fill="#fac53a" fill-rule="evenodd" stroke-linecap="round" stroke-linejoin="round" stroke-width=".42" stroke="#c13c1b" />
   <path d="M171.17 203.818c-1.322-.784-2.593-1.742-3.015-.624-.638 1.691 2.85 1.09 2.798.61" fill-rule="evenodd" stroke="#000" stroke-width=".084" />
   <path d="M178.812 225.365c12.135 1.963 17.545.663 22.006-2.378m-9.161 6.944c3.104-.138 6.133-1.402 9.15-2.7m-8.25 6.519c4.104.775 6.762-1.537 9.75-2.85" fill="none" stroke="#000" stroke-width=".105" />
   <g fill-rule="evenodd" stroke="#000" stroke-linecap="round" stroke-linejoin="round" stroke-width=".21">
      <path d="M263.411 298.987l26.785 1.097-.233 14.99-27.664-.636 1.112-15.451z" fill="#fac53a" />
      <path d="M263.24 300.706l26.915 1.243-.064 4.887-27.015-1.267.165-4.863zm-.485 6.587l27.236 1.356-.043 4.626-27.582-.819.39-5.163z" fill="#04a" />
   </g>
   <g fill-rule="evenodd" stroke="#000" stroke-linecap="round" stroke-linejoin="round" stroke-width=".21">
      <path d="M174.529 722.402l23.273 1.01-1.105 14.915-24.694-1.424 2.526-14.501z" fill="#fac53a" />
      <path d="M174.268 723.951l23.43 1.25-.237 4.214-24.023-.802.83-4.662zm-1.085 6.737l24.044 1.103-.293 4.363-24.603-.761.852-4.705z" fill="#04a" />
   </g>
   <g fill-rule="evenodd" stroke="#000" stroke-linecap="round" stroke-linejoin="round" stroke-width=".21">
      <path d="M201.54 724.53l24.355-.059-.156 14.951-25.316-.291 1.116-14.602z" fill="#fac53a" />
      <path d="M201.403 726.09l24.47.175-.043 4.22-24.671.3.244-4.696zm-.457 6.778l24.812.001-.093 4.747-25.143-.009.424-4.739z" fill="#04a" />
   </g>
   <g fill-rule="evenodd" stroke="#000" stroke-linecap="round" stroke-linejoin="round" stroke-width=".21">
      <path d="M265.397 461.973l20.417.16-.848 12.886-19.463-.742-.106-12.304z" fill="#fac53a" />
      <path d="M265.397 463.83l20.258.265-.208 3.981-19.997-.314-.053-3.933z" fill="#04a" />
      <path d="M265.397 461.973l20.417.16-.848 12.886-19.463-.742-.106-12.304z" fill="#fac53a" />
      <path d="M265.397 463.83l20.258.265-.208 3.981-19.997-.314-.053-3.933zm0 5.174l19.94.265-.208 3.982-19.68-.315-.052-3.932z" fill="#04a" />
   </g>
   <g fill="none" stroke="#c13c1b" stroke-width="3" stroke-linecap="round" stroke-linejoin="round">
      <path d="M210.503 297.724l21.674.825m-21.749 1.125l21.674.825m-21.674 1.275l21.674.825m-21.749 1.125l21.674.825m-21.599 1.2l21.674.675m-21.824 1.425l21.75.525" stroke-width=".63" />
   </g>
   <g>
      <path d="M254.203 193.158l5.266 8.284c1.456 2.933-1.539 4.683-2.868 6.974-1.89 3.26 1.688 9.677 6.472 8.375m-6.677-23.987c.345.026 4.953 7.827 4.953 7.827 2.293 2.599 4.37 2.037 6.119 1.59 6.749 4.324 4.097 8.182 2.81 10.956" fill="none" stroke="#000" stroke-width=".121" />
      <path d="M263.217 216.022c-9.545-3.15-4.564-9.408-1.397-11.09 3.595-1.911 10.875.938 7.728 7.584" fill="none" stroke="#000" stroke-width=".121" />
      <g fill="#fac53a" fill-rule="evenodd" stroke="#000" stroke-width=".121">
         <path d="M256.435 192.807c.344.026 4.953 7.827 4.953 7.827 2.293 2.599 4.37 2.037 6.119 1.59 6.749 4.324 4.097 8.182 2.81 10.956l-.73-.661c3.146-6.646-4.133-9.495-7.729-7.585-3.166 1.683-8.148 7.941 1.398 11.091l-.145.77c-4.784 1.3-8.362-5.115-6.471-8.376 1.329-2.291 4.324-4.041 2.867-6.975l-5.265-8.283" />
         <path d="M247.744 185.13l6.564 8.296c3.306-.295 6.227-.891 10.762-.225-.7-8.123-5.677-11.725-9.398-16.655v-.028l-1.57-1.1-9.917 6.756 3.56 2.957z" />
         <path d="M247.31 182.845c5.394-4.645 14.132-7.081 13.039-18.856-1.219-13.118-14.4-20.361-32.644-22.053-18.49-1.714-37.556.685-43.984 10.61-1.76 1.865-2.83 4.25-3.945 6.6a28.569 28.569 0 01.16-3.148c.372-3.614.201-8.31-3.722-9.207-3.418-.781-6.616.034-9.734.39-3.118.356-7.796 1.906-6.635 4.09 1.161 2.184 10.029 4.061 14.57 2.05.748-.332 1.153-.817 1.839-1.328l-1.793 1.44-1.067.856c-1.281.232-2.983 2.969-.427 3.347-1.651 1.283-1.595 2.314.375 3.061-1.398 1.215-1.793 3.057.819 2.922-1.923 2.781-.658 4.618 1.243 3.04.17.082.234.365.198.572-.628 2.085-.832 3.853 2.238 2.436.111-.022.137.344.258.315 10.833.11 33.51-2.418 31.49 15.554l6.813.974-1.89 14.129 2.43 51.48c15.819-3.698 35.875-9.081 34.45-33.872l-3.988-35.482" />
         <path d="M255.238 152.511c1.392-.068 11.267-4.606 11.267-4.606 6.505 9.73 5.66 21.49.7 30.814l-9.64-4.283" />
      </g>
      <path d="M264.907 192.972c-2.374-1.844-6.646-2.842-9.823-2.953m9.812 2.753c-1.571-2.374-5.501-4.74-8.59-5.174m8.439 4.603c-1.48-2.296-4.218-5.734-6.718-6.725m6.568 6.124c-.913-2.335-3.734-6.286-5.556-8.04" stroke-width=".363" fill="none" stroke="#000" stroke-linecap="round" stroke-linejoin="round" />
      <path d="M166.441 147.178c3.118-.356 6.316-1.171 9.735-.39 3.922.897 4.093 5.593 3.722 9.207l-.106 3.056c.01 2.038.658 3.535 1.75 4.657m2.17-11.21c6.456-9.888 25.493-12.276 43.954-10.565 18.245 1.692 31.426 8.935 32.644 22.053 1.094 11.775-7.645 14.212-13.038 18.856" fill="none" stroke="#000" stroke-width=".121" />
      <path d="M214.472 200.636l2.43 51.48c15.82-3.698 35.876-9.08 34.45-33.872l-3.987-35.481m-87.559-31.495c1.353 2.545 13.163 4.672 16.41.722l-2.86 2.296c-1.282.232-2.984 2.969-.427 3.347-1.652 1.283-1.596 2.314.375 3.062-1.399 1.214-1.793 3.056.818 2.92-1.923 2.782-.658 4.62 1.243 3.041.17.082.234.365.198.572-.628 2.085-.832 3.853 2.238 2.437.112-.023.137.343.259.314 10.833.11 33.51-2.417 31.49 15.554m45.65-33.025c1.391-.068 11.266-4.606 11.266-4.606 6.505 9.73 5.66 21.49.701 30.814l-9.64-4.283m-9.821 10.695l6.564 8.295c3.305-.295 6.226-.891 10.761-.225-.699-8.123-5.677-11.725-9.397-16.655m-49.401-34.473c.232.364 9.571 34.407 9.571 34.407m-7.624-34.617l9.256 34.125" fill="none" stroke="#000" stroke-width=".121" />
      <path d="M215.91 141.563c3.386 19.602 17.712 54.583-.462 65.645l-.634.174m4.229-65.926c4.693 23.489 17.115 58.989-4.131 69.168m25.962-66.168l6.532 38.36" fill="none" stroke="#000" stroke-width=".121" />
      <g stroke="#000">
         <path d="M243.337 158.36c5.379.291 4.942 3.605.67 4.041" fill="none" stroke-width=".121" />
         <path style="marker:none" d="M247.236 160.464a.672 1.07 4.328 11-1.34-.101.672 1.07 4.328 111.34.101z" color="#000" fill-rule="evenodd" stroke-width=".03" stroke-linecap="round" stroke-linejoin="round" overflow="visible" />
      </g>
      <g stroke="#000">
         <path d="M244.019 162.607c4.153.531 3.932 3.13.666 3.836" fill="none" stroke-width=".121" />
         <path d="M247.081 164.636a.672 1.07 4.328 11-1.34-.101.672 1.07 4.328 111.34.101z" style="marker:none" color="#000" fill-rule="evenodd" stroke-width=".03" stroke-linecap="round" stroke-linejoin="round" overflow="visible" />
      </g>
      <g stroke="#000">
         <path d="M244.726 166.827c2.998.678 2.938 2.633.622 3.478" fill="none" stroke-width=".121" />
         <path d="M246.98 168.716a.672 1.07 4.328 11-1.34-.101.672 1.07 4.328 111.34.101z" style="marker:none" color="#000" fill-rule="evenodd" stroke-width=".03" stroke-linecap="round" stroke-linejoin="round" overflow="visible" />
      </g>
      <g stroke="#000">
         <path d="M245.484 171.28c1.753.714 1.792 2.01.467 2.834" fill="none" stroke-width=".121" />
         <path d="M246.824 172.888c-.044.589-.317 1.018-.687.99-.37-.028-.238-.498-.37-1.085-.13-.576.098-1.05.468-1.021.37.028.634.528.59 1.116z" style="marker:none" color="#000" fill-rule="evenodd" stroke-width=".03" stroke-linecap="round" stroke-linejoin="round" overflow="visible" />
      </g>
      <g stroke="#000">
         <path d="M243.18 145.99c6.388.118 5.615 4.18.138 4.073" fill="none" stroke-width=".121" />
         <path style="marker:none" d="M247.721 148.08a.672 1.07 4.328 11-1.34-.1.672 1.07 4.328 111.34.1z" color="#000" fill-rule="evenodd" stroke-width=".03" stroke-linecap="round" stroke-linejoin="round" overflow="visible" />
      </g>
      <g stroke="#000">
         <path d="M243.221 150.038c6.39.117 5.478 4.243.001 4.136l-.617-.014" fill="none" stroke-width=".121" />
         <path style="marker:none" d="M247.62 152.16a.672 1.07 4.328 11-1.34-.1.672 1.07 4.328 111.34.1z" color="#000" fill-rule="evenodd" stroke-width=".03" stroke-linecap="round" stroke-linejoin="round" overflow="visible" />
      </g>
      <g stroke="#000">
         <path d="M243.265 158.317c5.295.003 6.11-3.991-.2-4.107l-.47-.02" fill="none" stroke-width=".121" />
         <path d="M247.464 156.333a.672 1.07 4.328 11-1.34-.102.672 1.07 4.328 111.34.102z" style="marker:none" color="#000" fill-rule="evenodd" stroke-width=".03" stroke-linecap="round" stroke-linejoin="round" overflow="visible" />
      </g>
      <g stroke="#000">
         <path d="M246.817 160.723c6.389.117 5.472 4.212-.005 4.104" fill="none" stroke-width=".121" />
         <path d="M251.215 162.845a.672 1.07 4.328 11-1.34-.101.672 1.07 4.328 111.34.101z" style="marker:none" color="#000" fill-rule="evenodd" stroke-width=".03" stroke-linecap="round" stroke-linejoin="round" overflow="visible" />
      </g>
      <g stroke="#000">
         <path d="M246.661 164.895c6.39.117 5.473 4.212-.004 4.104" fill="none" stroke-width=".121" />
         <path style="marker:none" d="M251.06 167.017a.672 1.07 4.328 11-1.34-.101.672 1.07 4.328 111.34.101z" color="#000" fill-rule="evenodd" stroke-width=".03" stroke-linecap="round" stroke-linejoin="round" overflow="visible" />
      </g>
      <g stroke="#000">
         <path d="M246.56 168.975c6.389.117 5.472 4.212-.004 4.104" fill="none" stroke-width=".121" />
         <path style="marker:none" d="M250.959 171.097a.672 1.07 4.328 11-1.34-.101.672 1.07 4.328 111.34.101z" color="#000" fill-rule="evenodd" stroke-width=".03" stroke-linecap="round" stroke-linejoin="round" overflow="visible" />
      </g>
      <g stroke="#000">
         <path d="M246.404 173.147c6.344.116 5.485 4.153.113 4.106" fill="none" stroke-width=".121" />
         <path d="M250.803 175.269a.672 1.07 4.328 11-1.34-.101.672 1.07 4.328 111.34.101z" style="marker:none" color="#000" fill-rule="evenodd" stroke-width=".03" stroke-linecap="round" stroke-linejoin="round" overflow="visible" />
      </g>
      <g stroke="#000">
         <path d="M247.302 148.339c6.389.117 5.472 4.212-.005 4.105" fill="none" stroke-width=".121" />
         <path d="M251.7 150.461a.672 1.07 4.328 11-1.34-.101.672 1.07 4.328 111.34.101z" style="marker:none" color="#000" fill-rule="evenodd" stroke-width=".03" stroke-linecap="round" stroke-linejoin="round" overflow="visible" />
      </g>
      <g stroke="#000">
         <path d="M247.2 152.419c6.39.117 5.472 4.212-.004 4.105" fill="none" stroke-width=".121" />
         <path d="M251.599 154.541a.672 1.07 4.328 11-1.34-.101.672 1.07 4.328 111.34.101z" style="marker:none" color="#000" fill-rule="evenodd" stroke-width=".03" stroke-linecap="round" stroke-linejoin="round" overflow="visible" />
      </g>
      <g stroke="#000">
         <path d="M247.045 156.59c6.389.118 5.472 4.213-.005 4.106" fill="none" stroke-width=".121" />
         <path style="marker:none" d="M251.443 158.713a.672 1.07 4.328 11-1.34-.101.672 1.07 4.328 111.34.101z" color="#000" fill-rule="evenodd" stroke-width=".03" stroke-linecap="round" stroke-linejoin="round" overflow="visible" />
      </g>
      <g stroke="#000">
         <path d="M246.548 177.261c5.662.226 5.17 3.71.668 4.068" fill="none" stroke-width=".121" />
         <path d="M250.638 179.375a.672 1.07 4.328 11-1.34-.102.672 1.07 4.328 111.34.102z" style="marker:none" color="#000" fill-rule="evenodd" stroke-width=".03" stroke-linecap="round" stroke-linejoin="round" overflow="visible" />
      </g>
      <path d="M247.224 181.494c.561.06 1.047.158 1.46.283" fill="none" stroke="#000" stroke-width=".121" />
      <g stroke="#000">
         <path d="M251.48 158.65c6.388.116 5.472 4.211-.005 4.104" fill="none" stroke-width=".121" />
         <path style="marker:none" d="M255.878 160.772a.672 1.07 4.328 11-1.34-.102.672 1.07 4.328 111.34.102z" color="#000" fill-rule="evenodd" stroke-width=".03" stroke-linecap="round" stroke-linejoin="round" overflow="visible" />
      </g>
      <g stroke="#000">
         <path d="M251.324 162.821c6.39.117 5.472 4.212-.004 4.105" fill="none" stroke-width=".121" />
         <path d="M255.723 164.944a.672 1.07 4.328 11-1.34-.102.672 1.07 4.328 111.34.102z" style="marker:none" color="#000" fill-rule="evenodd" stroke-width=".03" stroke-linecap="round" stroke-linejoin="round" overflow="visible" />
      </g>
      <g stroke="#000">
         <path d="M251.222 166.901c6.39.117 5.473 4.212-.004 4.105" fill="none" stroke-width=".121" />
         <path d="M255.621 169.024a.672 1.07 4.328 11-1.34-.102.672 1.07 4.328 111.34.102z" style="marker:none" color="#000" fill-rule="evenodd" stroke-width=".03" stroke-linecap="round" stroke-linejoin="round" overflow="visible" />
      </g>
      <g stroke="#000">
         <path d="M251.067 171.073c6.39.117 5.472 4.212-.004 4.105" fill="none" stroke-width=".121" />
         <path style="marker:none" d="M255.466 173.196a.672 1.07 4.328 11-1.34-.102.672 1.07 4.328 111.34.102z" color="#000" fill-rule="evenodd" stroke-width=".03" stroke-linecap="round" stroke-linejoin="round" overflow="visible" />
      </g>
      <g stroke="#000">
         <path d="M255.836 153.35c-.675.65-2.042 1.138-3.978 1.1m.005-4.104c.326.006.634.022.922.048" fill="none" stroke-width=".121" />
         <path d="M255.51 153.483c-.37-.028-.633-.528-.589-1.116l.927.988c.076.081-.205.105-.337.128z" style="marker:none" color="#000" fill-rule="evenodd" stroke-width=".03" stroke-linecap="round" stroke-linejoin="round" overflow="visible" />
      </g>
      <g stroke="#000">
         <path d="M251.707 154.518c6.39.117 5.473 4.212-.004 4.104" fill="none" stroke-width=".121" />
         <path d="M256.106 156.64a.672 1.07 4.328 11-1.34-.101.672 1.07 4.328 111.34.101z" style="marker:none" color="#000" fill-rule="evenodd" stroke-width=".03" stroke-linecap="round" stroke-linejoin="round" overflow="visible" />
      </g>
      <g stroke="#000">
         <path d="M252.358 179.204c-.442.061-1.206.1-1.736.09m.28-4.115c2.8.051 4.196.866 4.422 1.757" fill="none" stroke-width=".121" />
         <path d="M255.178 177.108c-1.32 1.117-1.184 1.373-1.217.092.044-.588.38-1.043.75-1.015.37.028.685.67.467.923z" style="marker:none" color="#000" fill-rule="evenodd" stroke-width=".03" stroke-linecap="round" stroke-linejoin="round" overflow="visible" />
      </g>
      <path d="M250.747 179.351c.473.009.907.04 1.301.088" fill="none" stroke="#000" stroke-width=".121" />
      <g stroke="#000">
         <path d="M255.644 160.87c6.389.118 5.472 4.213-.005 4.105" fill="none" stroke-width=".121" />
         <path d="M260.042 162.993a.672 1.07 4.328 11-1.34-.101.672 1.07 4.328 111.34.101z" style="marker:none" color="#000" fill-rule="evenodd" stroke-width=".03" stroke-linecap="round" stroke-linejoin="round" overflow="visible" />
      </g>
      <g stroke="#000">
         <path d="M255.488 165.043c6.39.117 5.473 4.212-.004 4.104" fill="none" stroke-width=".121" />
         <path style="marker:none" d="M259.887 167.165a.672 1.07 4.328 11-1.34-.101.672 1.07 4.328 111.34.101z" color="#000" fill-rule="evenodd" stroke-width=".03" stroke-linecap="round" stroke-linejoin="round" overflow="visible" />
      </g>
      <g stroke="#000">
         <path d="M258.903 172.493c-.759.438-2.01.764-3.52.734m.004-4.104c2.48.045 3.86.69 4.299 1.456" fill="none" stroke-width=".121" />
         <path d="M259.666 170.807c-.15.565-.353 1.275-.631 1.454-.313.2-.634-.529-.59-1.117.045-.589.381-1.044.751-1.016.37.028.52.413.47.68z" style="marker:none" color="#000" fill-rule="evenodd" stroke-width=".03" stroke-linecap="round" stroke-linejoin="round" overflow="visible" />
      </g>
      <path d="M255.231 173.295c1.305.024 2.305.213 3.024.5m-.217-17.301a8.71 8.71 0 01-2.015.178" fill="none" stroke="#000" stroke-width=".121" />
      <g stroke="#000">
         <path d="M241.528 147.958c3.345.654 3.206 2.82.55 3.62" fill="none" stroke-width=".121" />
         <path style="marker:none" d="M244 149.893a.672 1.07 4.328 11-1.34-.102.672 1.07 4.328 111.34.102z" color="#000" fill-rule="evenodd" stroke-width=".03" stroke-linecap="round" stroke-linejoin="round" overflow="visible" />
      </g>
      <g stroke="#000">
         <path d="M243.356 145.289c.216.786-.484 1.635-1.94 2.073" fill="none" stroke-width=".121" />
         <path d="M243.34 145.676c-.045.589-.381 1.044-.751 1.016-.37-.028-.634-.529-.59-1.117.02-.268.101-.509.219-.688l1.092.33c.03.141.042.297.03.46z" style="marker:none" color="#000" fill-rule="evenodd" stroke-width=".03" stroke-linecap="round" stroke-linejoin="round" overflow="visible" />
      </g>
      <g stroke="#000">
         <path d="M255.373 156.895c5.545.416 4.485 4.173-.764 4.07" fill="none" stroke-width=".121" />
         <path style="marker:none" d="M259.015 158.66a1.07.672 79.814 11-1.323.239 1.07.672 79.814 111.323-.238z" color="#000" fill-rule="evenodd" stroke-width=".03" stroke-linecap="round" stroke-linejoin="round" overflow="visible" />
      </g>
      <path d="M218.288 208.506l4.995 41.753m7.286-2.394l-9.802-41.536m16.981 38.266l-14.84-40.912m21.685 35.192l-20.255-37.597m24.855 31.203l-24.157-33.183m25.996 25.677l-25.493-27.818m24.343 10.993L226.5 192.883m22.745 8.339l-22.337-11.239m21.57 4.657l-21.457-7.525m20.824 1.923l-20.867-4.786m20.323-.628l-20.612-2.426m19.771-2.49l-20.054-1.777m19.2-2.966c-.696.034-19.63-.576-19.63-.576m18.862-4.162l-19.616.422m18.822-4.814l-19.614.422m19.053-4.45l-19.826.925m18.926-5.066l-19.807.667m19.504-4.676l-20.522.96m19.702-5.007l-20.197 1.244m-1.305-4.518l21.067-.139m-14.733 49.929l24.692 20.568" fill="none" stroke="#000" stroke-width=".121" />
      <path d="M216.612 244.831l.31 7.23c3.98-1.602 4.592-5.262 5.596-8.187l-5.906.957zm5.956-1.011l.782 6.664c3.98-1.6 4.778-5.597 5.781-8.522l-6.563 1.858zm6.614-1.815l1.506 6.161c3.98-1.601 4.015-6.183 5.018-9.108l-6.524 2.947zm6.697-2.925l1.844 5.673c3.98-1.601 4.15-7.84 4.439-10.39l-6.283 4.717zm6.238-4.84l2.625 5.04c2.898-3.185 2.435-7.84 1.045-11.606l-3.67 6.566zm3.651-6.768l3.456 5.11c2.643-5.476-1.168-10.119-1.543-11.26l-1.913 6.15zm1.999-6.22l3.405 3.722c.574-9.208-.277-9.415-1.396-10.337l-2.009 6.615z" fill-rule="evenodd" stroke="#000" stroke-width=".121" />
      <path d="M1814.082 68.07l2.829 15.556m-11.667-14.496l2.828 15.557m-11.314-14.85l2.829 15.557m-12.021-14.496l2.828 15.556m-11.314-14.849l2.829 15.556m-10.642-14.853l2.458 15.619m-10.958-15.114l2.459 15.62m-11.674-14.778l2.459 15.62m-10.958-15.115l2.458 15.62m-11.32-14.768l2.459 15.619m-10.959-15.114l2.459 15.62m-10.966-14.777l2.458 15.618m-10.958-15.113l2.458 15.619m-10.818-14.874l2.458 15.62m-11.312-14.76l2.46 15.62m-11.674-14.778l2.458 15.62" transform="matrix(.13893 .00693 -.00585 .12852 -8.97 140.941)" fill="none" stroke="#000" stroke-width="2.713" stroke-linecap="round" stroke-linejoin="round" />
      <path d="M1814.082 68.07l2.829 15.556m-11.667-14.496l2.828 15.557m-11.314-14.85l2.829 15.557m-12.021-14.496l2.828 15.556m-11.314-14.849l2.829 15.556m-10.642-14.853l2.458 15.619m-10.958-15.114l2.459 15.62m-11.674-14.778l2.459 15.62m-10.958-15.115l2.458 15.62m-11.32-14.768l2.459 15.619m-10.959-15.114l2.459 15.62m-10.966-14.777l2.458 15.618m-10.958-15.113l2.458 15.619m-10.818-14.874l2.458 15.62m-11.312-14.76l2.46 15.62m-11.674-14.778l2.458 15.62" transform="matrix(.1383 .00873 -.00885 .13973 -6.658 141.118)" fill="none" stroke="#000" stroke-width="2.605" stroke-linecap="round" stroke-linejoin="round" />
      <path d="M1814.082 68.07l2.829 15.556m-11.667-14.496l2.828 15.557m-11.314-14.85l2.829 15.557m-12.021-14.496l2.828 15.556m-11.314-14.849l2.829 15.556m-10.642-14.853l2.458 15.619m-10.958-15.114l2.459 15.62m-11.674-14.778l2.459 15.62m-10.958-15.115l2.458 15.62m-11.32-14.768l2.459 15.619m-10.959-15.114l2.459 15.62m-10.966-14.777l2.458 15.618m-10.958-15.113l2.458 15.619m-10.818-14.874l2.458 15.62m-11.312-14.76l2.46 15.62m-11.674-14.778l2.458 15.62" transform="matrix(.14004 .01405 -.01213 .13488 -8.843 136.597)" fill="none" stroke="#000" stroke-width="2.629" stroke-linecap="round" stroke-linejoin="round" />
      <path d="M1812.98 67.111l3.1 17.128m-10.804-16.532l2.796 16.98m-11.427-16.259l2.942 16.966m-12.148-16.081l2.955 17.141m-11.295-16.448l2.81 17.155m-10.755-16.263l2.571 17.029m-11.028-15.995l2.529 16.5m-11.613-15.848l2.398 16.69m-11.043-16.17l2.543 16.676m-11.273-16.016l2.412 16.867m-10.841-15.481l2.34 15.986m-10.877-15.496l2.37 16.338m-10.958-15.113l2.458 15.619m-10.818-14.874l2.458 15.62m-11.312-14.76l2.46 15.62m-11.674-14.778l2.458 15.62" transform="matrix(.14138 .0224 -.0205 .11924 -9.642 127.41)" fill="none" stroke="#000" stroke-width="2.758" stroke-linecap="round" stroke-linejoin="round" />
      <path d="M1813.646 63.083l3.265 20.543m-11.963-20.006l3.124 21.067m-11.75-19.836l3.265 20.543m-12.522-19.978l3.33 21.038m-11.405-20.386l2.919 21.093m-11.349-20.308l3.165 21.074m-11.6-20.072l3.1 20.577m-11.634-19.322l2.42 20.164m-11.537-19.576l3.037 20.082m-11.725-19.507l2.864 20.358m-11.093-19.384l2.593 19.89m-11.133-19.296l2.625 20.137m-10.238-19.246l1.738 19.752m-10.304-18.979l1.945 19.725m-11.241-19.058l2.387 19.917m-11.223-19.379l2.008 20.221" transform="matrix(.13972 .0268 -.0273 .11816 -5.636 124.159)" fill="none" stroke="#000" stroke-width="2.764" stroke-linecap="round" stroke-linejoin="round" />
      <path d="M1803.503 59.765l4.569 24.922m-13.002-23.194l4.517 23.9m-13.335-22.163l4.142 23.224m-12.384-21.548l3.899 22.255m-11.782-21.016l3.598 21.782m-11.41-20.167l2.91 20.672m-12.386-19.242l3.172 20.084M1744.26 71.01l3.251 18.77m-11.798-17.486l2.937 18.337m-11.315-17.347l2.815 17.852m-11.332-16.231l2.824 17.073m-10.958-15.113l2.458 15.619m-10.818-14.874l2.458 15.62m-11.137-13.254l2.284 14.113m-11.186-12.837l1.971 13.68" transform="matrix(.14525 .0423 -.0459 .11376 -12.702 101.9)" fill="none" stroke="#000" stroke-width="2.67" stroke-linecap="round" stroke-linejoin="round" />
      <path d="M1811.961 60.304l6.01 26.666m-14.583-24.904l5.302 25.335m-13.255-24.303l4.77 24.47m-13.875-23.176l4.684 23.16m-12.726-21.822l4.152 22.834m-12.498-21.379l4.049 21.443m-12.638-20.633l3.872 20.976M1753.29 69.72l3.43 19.269m-12.373-18.315l3.164 19.106m-11.849-17.788l2.988 18.639m-11.4-17.361l2.99 17.022m-11.764-15.802l3.256 16.644m-11.225-15.276l2.371 14.847m-11.174-14.191l2.637 15.008m-11.224-13.987l2.992 14.327m-12.739-13.271l3.08 14.022" transform="matrix(.14405 .0562 -.06428 .10774 -9.587 82.096)" fill="none" stroke="#000" stroke-width="2.624" stroke-linecap="round" stroke-linejoin="round" />
      <path d="M248.305 196.44l-1.318 3.039m-.09-3.604l-1.273 2.83m-.356-3.498l-1.207 2.775m-.315-3.313l-1.163 2.595m-.11-3.144l-1.099 2.54m-.174-3.042l-.999 2.469m-.237-2.954l-.957 2.32m-.466-2.793l-.853 2.146m-.348-2.689l-.846 2.056m-.432-2.583l-.84 1.966m-.431-2.393l-.763 1.76m-.555-2.295l-.668 1.706m-.565-2.221l-.629 1.587m-.633-2.09l-.562 1.5m-.779-2l-.492 1.386m-.926-1.919l-.393 1.272M249.18 202.902l-1.526 2.863m.251-3.542l-1.488 2.745m.128-3.442l-1.45 2.656m.116-3.37l-1.353 2.573m.01-3.363l-1.38 2.54m.014-3.226l-1.252 2.43m.107-3.156l-1.308 2.398m-.011-3.081l-1.207 2.255m-.216-2.964l-1.135 2.108m-.147-2.878l-1.07 2.052m-.245-2.718l-1.059 1.901m-.251-2.704l-.966 1.878m-.355-2.573l-.9 1.793m-.359-2.471l-.858 1.644m-.436-2.306l-.787 1.528m-.645-2.232l-.658 1.417m-.698-2.211l-.653 1.356M248.697 209.014l-1.614 2.393m.416-3.382l-1.614 2.393m.192-3.24l-1.482 2.252m.215-3.155l-1.414 2.165m.072-3.108l-1.408 2.075m.142-2.978l-1.34 1.989m.158-2.748l-1.325 1.804m-.133-2.691l-1.042 1.674m-.215-2.644l-1.096 1.579m-.218-2.364l-.957 1.346m-.376-2.279l-.89 1.26m-.361-2.071l-.814 1.054m-.47-1.973l-.749.999m-.53-1.842l-.645.824m-.642-1.679l-.545.71m-.756-1.668l-.51.652m-.928-1.635l-.383.57m22.598 14.752l-1.613 2.393M246.884 214.7l-2.193 2.483m1.021-3.525l-2.099 2.361m.788-3.375l-1.957 2.2m.88-3.364l-1.958 2.2m.747-3.426l-1.957 2.2m.821-3.154l-1.899 1.99m.64-3.032l-1.691 1.92m.596-3.07l-1.646 1.88m.321-2.932l-1.502 1.677m.311-2.705l-1.36 1.516m.127-2.639l-1.269 1.437m.029-2.383l-1.078 1.194m-.025-2.303l-1.075 1.152m-.204-2.144l-.846.955m-.186-2.007l-.883.866m-.531-1.872l-.61.672m-.712-1.766l-.47.51m21.13 17.629l-2.243 2.564M244.293 219.492l-2.344 2.182m1.318-3.406l-2.304 2.064m1.223-3.429l-2.304 2.063m1.061-3.212l-2.047 1.87m.834-3.241l-1.952 1.817m.864-3.016l-1.85 1.673m.806-2.822l-1.77 1.536m.592-2.737l-1.547 1.372m.336-2.741l-1.42 1.29m.391-2.479l-1.344 1.114m.164-2.363l-1.213.973m.067-2.2l-1.02.834m-.177-2.121l-.835.789m-.162-1.975l-.792.61m-.246-1.963l-.733.645m-.576-1.809l-.473.42m-.775-1.702l-.309.252m20.819 22.128l-2.522 2.533m1.466-3.759l-2.452 2.416M242.861 227.005l-2.77 2.436m1.634-3.874l-2.571 2.066m1.679-3.427l-2.562 1.937m1.81-3.345l-2.601 1.89m1.636-3.275l-2.546 1.724m1.754-3.179l-2.546 1.724m1.628-2.944L235 220.286m1.508-2.859l-2.265 1.387m1.133-2.938l-2.006 1.364m1.2-2.754l-1.957 1.282m.847-2.726l-1.694 1.216m.934-2.646l-1.69 1.173m.781-2.542l-1.599 1.094m.754-2.53l-1.511 1.058m.493-2.29l-1.282.86m.392-2.371l-1.24.864m.37-2.48l-1.242.907m16.928 23.251l-2.794 2.735m-13.835-28.174l-1.077.725m-.043-2.239l-.83.665" stroke-width=".363" fill="none" stroke="#000" stroke-linecap="round" stroke-linejoin="round" />
      <path d="M1822.19 57.584l3.206 25.335M1814.5 59.421l2.41 24.205m-11.807-22.489l2.969 23.55m-11.296-21.652l2.81 22.359m-12.231-20.244l3.04 21.304m-11.389-20.266l2.903 20.973m-11.002-18.952l2.818 19.718m-10.852-18.481l2.353 18.986m-11.546-17.285l2.33 18.127m-10.922-16.236l2.423 16.742m-11.32-14.768l2.459 15.619m-10.664-13.591l2.164 14.096m-10.457-12.328l1.949 13.17m-10.04-11.669l1.54 12.175m-9.434-10.698l1.074 11.444m-10.599-9.403l1.746 10.262m-10.439-8.952l1.224 9.794m151.836-40.714l4.524 26.934m-12.237-25.955l3.752 26.662m-156.509 4.886l1.223 9.794" transform="matrix(.03734 .20894 -.15367 .03304 173.467 -146.89)" fill="none" stroke="#000" stroke-width="1.987" stroke-linecap="round" stroke-linejoin="round" />
      <path d="M1822.179 61.304l3.217 21.615m-11.21-19.771l2.725 20.478m-11.694-19.615l2.855 20.676m-11.135-18.877l2.65 19.584m-11.913-17.654l2.72 18.714m-10.814-17.415l2.329 18.122m-10.385-16.224l2.201 16.99m-10.641-15.417l2.142 15.922M1753.93 74.42l2.08 14.854m-10.176-13.93l1.677 14.436m-10.32-12.669l1.459 13.52m-9.782-11.575l1.282 12.08m-9.832-10.716l1.324 11.558m-9.632-9.788l1.132 10.294m-9.405-8.828l1.045 9.574m-10.158-9.109l1.305 9.968m-10.474-7.884l1.26 8.726m152.518-36.729l3.84 22.949m-11.833-21.105l3.349 21.812" transform="matrix(.01164 .20836 -.17223 .00368 215.675 -141.586)" fill="none" stroke="#000" stroke-width="1.915" stroke-linecap="round" stroke-linejoin="round" />
      <path d="M1822.158 62.698l3.238 20.22m-11.729-18.655l3.244 19.363m-11.645-18.102l2.806 19.163m-11.59-17.444l3.105 18.15m-12.297-17.09l3.104 18.151M1779.09 70.06l2.819 17.101m-10.637-15.712l2.453 16.478m-10.958-15.114l2.459 15.62m-11.386-13.9l2.17 14.741m-10.676-13.377l2.177 13.883M1737.2 77.482l1.45 13.149m-10.1-12.138l1.6 12.643m-10.111-11.114l1.603 11.956m-9.965-10.068l1.465 10.574m-9.681-9.474l1.322 10.22m-10.329-8.169l1.475 9.028m-10.985-7.689l1.77 8.531m152.248-34.745l4.112 20.965m-12.014-19.876l3.529 20.583" transform="matrix(-.0043 .20706 -.17563 -.01202 239.4 -136.749)" fill="none" stroke="#000" stroke-width="1.902" stroke-linecap="round" stroke-linejoin="round" />
      <path d="M238.42 232.034l-3.734 2.258m3.151-3.725l-3.728 2.173m2.883-3.615l-3.545 2.015m2.922-3.527l-3.499 1.975m2.76-3.431l-3.44 1.765m2.731-3.284l-3.308 1.732m2.551-3.132l-3.124 1.64m2.57-3.035l-3.11 1.47m2.156-2.961l-2.796 1.28m2.033-2.732l-2.574 1.166m1.821-2.791l-2.444 1.176m1.813-2.663l-2.353 1.098m1.49-2.624l-2.094 1.075m1.371-2.482l-1.911.917m1.326-2.358l-1.904.832m1.017-2.379l-1.642.766m.781-2.378l-1.422.696M239.76 235.3l-3.836 2.465m3.144-4.197l-3.701 2.39m-9.395-29.145l-1.302.706m.735-2.023l-1.23.56m.497-2.101l-1.105.508" stroke-width=".363" fill="none" stroke="#000" stroke-linecap="round" stroke-linejoin="round" />
      <path d="M1814.082 68.07l2.829 15.556m-11.667-14.496l2.828 15.557m-11.314-14.85l2.829 15.557m-12.021-14.496l2.828 15.556m-11.314-14.849l2.829 15.556m-10.642-14.853l2.458 15.619m-10.958-15.114l2.459 15.62m-11.674-14.778l2.459 15.62m-10.958-15.115l2.458 15.62m-11.32-14.768l2.459 15.619m-10.959-15.114l2.459 15.62m-10.966-14.777l2.458 15.618m-10.958-15.113l2.458 15.619m-10.818-14.874l2.458 15.62m-11.312-14.76l2.46 15.62m-11.674-14.778l2.458 15.62" transform="matrix(.14034 .00462 -.00587 .14177 -12.08 140.113)" fill="none" stroke="#000" stroke-width="2.571" stroke-linecap="round" stroke-linejoin="round" />
      <path d="M1814.082 68.07l2.829 15.556m-11.667-14.496l2.828 15.557m-11.314-14.85l2.829 15.557m-12.021-14.496l2.828 15.556m-11.314-14.849l2.829 15.556m-10.642-14.853l2.458 15.619m-10.958-15.114l2.459 15.62m-11.674-14.778l2.459 15.62m-10.958-15.115l2.458 15.62m-11.32-14.768l2.459 15.619m-10.959-15.114l2.459 15.62m-10.966-14.777l2.458 15.618m-10.958-15.113l2.458 15.619m-10.818-14.874l2.458 15.62m-11.312-14.76l2.46 15.62m-11.674-14.778l2.458 15.62" transform="matrix(.14283 .0041 -.00234 .12096 -17.447 138.41)" fill="none" stroke="#000" stroke-width="2.76" stroke-linecap="round" stroke-linejoin="round" />
      <path d="M1822.568 67.362l2.828 15.557m-11.314-14.849l2.829 15.556m-11.667-14.496l2.828 15.557m-11.314-14.85l2.829 15.557m-12.021-14.496l2.828 15.556m-11.314-14.849l2.829 15.556m-10.642-14.853l2.458 15.619m-10.958-15.114l2.459 15.62m-11.674-14.778l2.459 15.62m-10.958-15.115l2.458 15.62m-11.32-14.768l2.459 15.619m-10.959-15.114l2.459 15.62m-10.966-14.777l2.458 15.618m-10.958-15.113l2.458 15.619m-10.818-14.874l2.458 15.62m-11.312-14.76l2.46 15.62m-11.674-14.778l2.458 15.62" transform="matrix(.136 .00358 -.00267 .12093 -6.942 135.566)" fill="none" stroke="#000" stroke-width="2.829" stroke-linecap="round" stroke-linejoin="round" />
      <path d="M1822.568 67.362l2.828 15.557m-11.314-14.849l2.829 15.556m-11.667-14.496l2.828 15.557m-11.314-14.85l2.829 15.557m-12.021-14.496l2.828 15.556m-11.314-14.849l2.829 15.556m-10.642-14.853l2.458 15.619m-10.958-15.114l2.459 15.62m-11.674-14.778l2.459 15.62m-10.958-15.115l2.458 15.62m-11.32-14.768l2.459 15.619m-10.959-15.114l2.459 15.62m-10.966-14.777l2.458 15.618m-10.958-15.113l2.458 15.619m-10.818-14.874l2.458 15.62m-11.312-14.76l2.46 15.62m-11.674-14.778l2.458 15.62" transform="matrix(.13605 .0017 -.00116 .12095 -7.847 134.96)" fill="none" stroke="#000" stroke-width="2.829" stroke-linecap="round" stroke-linejoin="round" />
      <path d="M1806.804 76.553l1.268 8.134m-10.378-9.901l1.893 10.608m-11.397-11.668l2.204 12.728m-11.314-14.849l2.829 15.556m-10.642-14.853l2.458 15.619m-10.958-15.114l2.459 15.62m-11.674-14.778l2.459 15.62m-10.958-15.115l2.458 15.62m-11.32-14.768l2.459 15.619m-10.959-15.114l2.459 15.62m-10.966-14.777l2.458 15.618m-10.958-15.113l2.458 15.619m-10.818-14.874l2.458 15.62m-11.312-14.76l2.46 15.62m-11.674-14.778l2.458 15.62" transform="matrix(.13566 .01044 -.00892 .12062 -7.207 115.78)" fill="none" stroke="#000" stroke-width="2.829" stroke-linecap="round" stroke-linejoin="round" />
      <path d="M212.662 157.867l6.808-.697m-6.148 3.996l6.936-.687m-5.846 4.02l6.723-.705m-5.742 34.659l1.489 7.779m-.317-10.633l3.624 7.03m-2.023-9.855l4.417 5.703m-3.083-8.462l4.262 4.303m-2.997-7.282l3.618 2.527m-14.566-41.623l7.307-.488m-6.398 3.892l7.057-.593m-6.013 3.964l6.894-.691m-9.641-9.077l7.35-.484m5.215 39.156l2.762.895m-9.074-16.414l6.673-.62m-5.846 3.976l6.513-.205m-5.468 3.577l6.156-.019m-1.861 4.461l2.539.18" fill="none" stroke="#000" stroke-width=".121" />
      <path d="M219.03 200.548l-2.81 1.85.683 3.811c1.881-1.798 2.329-3.705 2.127-5.661z" fill-rule="evenodd" stroke="#000" stroke-width=".121" />
      <path d="M216.276 202.462l-1.571.73.107 4.194c1.882-1.799 1.667-2.968 1.464-4.924zm5.245-5.329l-2.489 3.186 1.209 2.522c1.354-2.445 1.61-4.621 1.28-5.708zm1.633-3.4l-1.73 3.235 1.186 1.546c.546-1.779.745-4.008.544-4.781zm.691-3.523l-1.4 2.75 1.335 1.309c.383-2.428.463-3.483.065-4.06z" fill-rule="evenodd" stroke="#000" stroke-width=".121" />
      <path d="M216.452 201.527l1.526-.855m-1.77-.157l1.39-.744m-1.592-.356l1.04-.528m-1.207-.376l.77-.402M218.558 199.028l1.668-1.572m-2.204.521l1.578-1.485m-2.091.326l1.426-1.238m-1.848.285l1.256-.996M220.838 195.833l1.296-1.686m-2.054.671l1.2-1.496m-1.951.364l1.138-1.264m-1.757.333l1.013-1.113M222.18 192.216l1.159-2.125m-1.875 1.369l1.197-1.867m-1.921 1.015l1.031-1.611m-1.626.911l.884-1.409" stroke-width=".363" fill="none" stroke="#000" stroke-linecap="round" stroke-linejoin="round" />
      <path d="M1517.279 500.986l16.362-10.5m-17.065 3.52l14.18-8.94m-15.696 2.448l12.34-7.695" transform="matrix(.1311 -.07117 .10556 .0982 -28.743 246.8)" fill="none" stroke="#000" stroke-width="2.541" stroke-linecap="round" stroke-linejoin="round" />
      <path d="M1516.576 494.006l14.18-8.94m-15.696 2.448l12.34-7.695" transform="matrix(.11269 -.09774 .12424 .07317 -9.04 295.702)" fill="none" stroke="#000" stroke-width="2.541" stroke-linecap="round" stroke-linejoin="round" />
      <path d="M1719.272 75.64l2.37 16.338m-10.958-15.113l2.458 15.619m-10.818-14.874l1.055 7.85m-11.117-7.227l.078 1.436" transform="matrix(.1375 .01377 -.01303 .151 -12.542 141.24)" fill="none" stroke="#000" stroke-width="2.508" stroke-linecap="round" stroke-linejoin="round" />
      <path d="M1719.272 75.64l2.37 16.338m-10.958-15.113l2.458 15.619m-10.818-14.874l2.458 15.62m-11.312-14.76l2.46 15.62m-11.674-14.778l2.458 15.62" transform="matrix(.13245 .00603 -.00749 .12076 -5.096 152.85)" fill="none" stroke="#000" stroke-width="2.865" stroke-linecap="round" stroke-linejoin="round" />
      <path d="M1719.272 75.64l2.37 16.338m-10.958-15.113l2.458 15.619m-10.818-14.874l2.458 15.62m-11.312-14.76l2.46 15.62m-11.674-14.778l2.458 15.62" transform="matrix(.13245 .00603 -.00749 .12076 -5.995 149.436)" fill="none" stroke="#000" stroke-width="2.865" stroke-linecap="round" stroke-linejoin="round" />
      <path d="M1719.272 75.64l2.37 16.338m-10.958-15.113l2.458 15.619m-10.818-14.874l2.458 15.62m-11.312-14.76l2.46 15.62m-11.674-14.778l2.458 15.62" transform="matrix(.14378 -.00527 .0047 .12102 -27.095 165.068)" fill="none" stroke="#000" stroke-width="2.749" stroke-linecap="round" stroke-linejoin="round" />
      <path d="M1719.272 75.64l2.37 16.338m-10.958-15.113l2.458 15.619m-10.818-14.874l2.458 15.62m-11.312-14.76l2.46 15.62m-11.674-14.778l2.458 15.62" transform="matrix(.14688 -.00503 .005 .12104 -33.298 161.125)" fill="none" stroke="#000" stroke-width="2.72" stroke-linecap="round" stroke-linejoin="round" />
      <path d="M1719.272 75.64l2.37 16.338m-10.958-15.113l2.458 15.619m-10.818-14.874l2.458 15.62m-11.312-14.76l2.46 15.62m-11.674-14.778l2.458 15.62" transform="matrix(.14081 -.00327 .00223 .12103 -23.833 154.773)" fill="none" stroke="#000" stroke-width="2.779" stroke-linecap="round" stroke-linejoin="round" />
      <path d="M1719.272 75.64l2.37 16.338m-10.958-15.113l2.458 15.619m-10.818-14.874l2.458 15.62m-11.312-14.76l2.46 15.62m-11.674-14.778l2.458 15.62" transform="matrix(.14392 -.00303 .00248 .12105 -29.946 151.05)" fill="none" stroke="#000" stroke-width="2.749" stroke-linecap="round" stroke-linejoin="round" />
      <path d="M1719.272 75.64l2.37 16.338m-10.958-15.113l2.458 15.619m-10.818-14.874l2.458 15.62m-11.312-14.76l2.46 15.62m-11.674-14.778l2.458 15.62" transform="matrix(.14703 -.0028 .00274 .12107 -36.03 147.502)" fill="none" stroke="#000" stroke-width="2.719" stroke-linecap="round" stroke-linejoin="round" />
      <path d="M1719.272 75.64l2.37 16.338m-10.958-15.113l2.458 15.619m-10.818-14.874l2.458 15.62m-11.312-14.76l2.46 15.62m-11.674-14.778l2.458 15.62" transform="matrix(.16058 -.00177 .00383 .12115 -59.96 142.475)" fill="none" stroke="#000" stroke-width="2.601" stroke-linecap="round" stroke-linejoin="round" />
      <path d="M1719.272 75.64l2.37 16.338m-10.958-15.113l2.458 15.619m-10.818-14.874l2.458 15.62m-11.312-14.76l2.46 15.62m-11.674-14.778l2.458 15.62" transform="matrix(.15346 .00124 -.0005 .12107 -48.52 133.957)" fill="none" stroke="#000" stroke-width="2.662" stroke-linecap="round" stroke-linejoin="round" />
      <path d="M1719.272 75.64l2.37 16.338m-10.958-15.113l2.458 15.619m-10.818-14.874l2.458 15.62m-11.312-14.76l2.46 15.62m-11.674-14.778l2.458 15.62" transform="matrix(.15764 .00155 -.00027 .12109 -56.194 130.374)" fill="none" stroke="#000" stroke-width="2.627" stroke-linecap="round" stroke-linejoin="round" />
      <g stroke="#000">
         <path d="M205.953 158.444c6.147-1.746 6.461 2.439 1.19 3.929" fill="none" stroke-width=".121" />
         <path d="M210.78 159.196a1.07.672 77.42 11-1.313.292 1.07.672 77.42 111.312-.292z" style="marker:none" color="#000" fill-rule="evenodd" stroke-width=".03" stroke-linecap="round" stroke-linejoin="round" overflow="visible" />
         <path d="M207.018 162.481c6.147-1.746 6.46 2.438 1.19 3.929" fill="none" stroke-width=".121" />
         <path style="marker:none" d="M211.844 163.232a1.07.672 77.42 11-1.312.293 1.07.672 77.42 111.312-.293z" color="#000" fill-rule="evenodd" stroke-width=".03" stroke-linecap="round" stroke-linejoin="round" overflow="visible" />
         <path d="M208.108 166.414c6.147-1.746 6.46 2.439 1.19 3.929" fill="none" stroke-width=".121" />
         <path style="marker:none" d="M212.933 167.166a1.07.672 77.42 11-1.311.292 1.07.672 77.42 111.311-.292z" color="#000" fill-rule="evenodd" stroke-width=".03" stroke-linecap="round" stroke-linejoin="round" overflow="visible" />
         <path d="M209.172 170.451c6.103-1.734 6.456 2.38 1.302 3.896" fill="none" stroke-width=".121" />
         <path d="M213.998 171.202a1.07.672 77.42 11-1.312.293 1.07.672 77.42 111.312-.293z" style="marker:none" color="#000" fill-rule="evenodd" stroke-width=".03" stroke-linecap="round" stroke-linejoin="round" overflow="visible" />
         <path d="M202.816 146.455c6.147-1.746 6.46 2.438 1.19 3.928" fill="none" stroke-width=".121" />
         <path d="M207.642 147.206a1.07.672 77.42 11-1.312.293 1.07.672 77.42 111.312-.293z" style="marker:none" color="#000" fill-rule="evenodd" stroke-width=".03" stroke-linecap="round" stroke-linejoin="round" overflow="visible" />
         <path d="M205.273 142.196c2.316.56 1.473 3.137-2.427 4.24" fill="none" stroke-width=".121" />
         <path style="marker:none" d="M206.482 143.258a1.07.672 77.42 11-1.312.293 1.07.672 77.42 111.312-.293z" color="#000" fill-rule="evenodd" stroke-width=".03" stroke-linecap="round" stroke-linejoin="round" overflow="visible" />
         <path d="M203.905 150.388c6.147-1.746 6.46 2.438 1.19 3.928" fill="none" stroke-width=".121" />
         <path d="M208.731 151.14a1.07.672 77.42 11-1.312.292 1.07.672 77.42 111.312-.293z" style="marker:none" color="#000" fill-rule="evenodd" stroke-width=".03" stroke-linecap="round" stroke-linejoin="round" overflow="visible" />
         <g>
            <path d="M204.97 154.425c6.147-1.746 6.46 2.438 1.19 3.928" fill="none" stroke-width=".121" />
            <path style="marker:none" d="M209.796 155.176a1.07.672 77.42 11-1.312.293 1.07.672 77.42 111.312-.293z" color="#000" fill-rule="evenodd" stroke-width=".03" stroke-linecap="round" stroke-linejoin="round" overflow="visible" />
         </g>
         <g>
            <path d="M210.506 174.346c5.483-1.43 6.026 2.045 1.822 3.698" fill="none" stroke-width=".121" />
            <path d="M215.035 175.179a1.07.672 77.42 11-1.312.292 1.07.672 77.42 111.312-.292z" style="marker:none" color="#000" fill-rule="evenodd" stroke-width=".03" stroke-linecap="round" stroke-linejoin="round" overflow="visible" />
         </g>
         <g>
            <path d="M203.061 161.193c6.147-1.746 6.461 2.438 1.19 3.928" fill="none" stroke-width=".121" />
            <path style="marker:none" d="M207.887 161.944a1.07.672 77.42 11-1.312.293 1.07.672 77.42 111.312-.293z" color="#000" fill-rule="evenodd" stroke-width=".03" stroke-linecap="round" stroke-linejoin="round" overflow="visible" />
            <path d="M204.126 165.23c6.147-1.746 6.46 2.438 1.19 3.928" fill="none" stroke-width=".121" />
            <path d="M208.952 165.981a1.07.672 77.42 11-1.312.293 1.07.672 77.42 111.312-.293z" style="marker:none" color="#000" fill-rule="evenodd" stroke-width=".03" stroke-linecap="round" stroke-linejoin="round" overflow="visible" />
            <path d="M205.215 169.163c6.147-1.746 6.461 2.438 1.19 3.928" fill="none" stroke-width=".121" />
            <path d="M210.041 169.914a1.07.672 77.42 11-1.311.293 1.07.672 77.42 111.311-.293z" style="marker:none" color="#000" fill-rule="evenodd" stroke-width=".03" stroke-linecap="round" stroke-linejoin="round" overflow="visible" />
            <path d="M206.28 173.2c5.913-1.68 6.429 2.128 1.768 3.747" fill="none" stroke-width=".121" />
            <path style="marker:none" d="M211.106 173.951a1.07.672 77.42 11-1.312.293 1.07.672 77.42 111.312-.293z" color="#000" fill-rule="evenodd" stroke-width=".03" stroke-linecap="round" stroke-linejoin="round" overflow="visible" />
            <path d="M199.924 149.203c6.147-1.746 6.46 2.439 1.19 3.929" fill="none" stroke-width=".121" />
            <path style="marker:none" d="M204.75 149.955a1.07.672 77.42 11-1.312.293 1.07.672 77.42 111.311-.293z" color="#000" fill-rule="evenodd" stroke-width=".03" stroke-linecap="round" stroke-linejoin="round" overflow="visible" />
            <path d="M198.404 145.486c6.147-1.746 6.46 2.438 1.19 3.928" fill="none" stroke-width=".121" />
            <path d="M203.23 146.237a1.07.672 77.42 11-1.312.293 1.07.672 77.42 111.311-.293z" style="marker:none" color="#000" fill-rule="evenodd" stroke-width=".03" stroke-linecap="round" stroke-linejoin="round" overflow="visible" />
            <path d="M201.52 142.783c-.063.98-1.305 2.216-3.703 2.894" fill="none" stroke-width=".121" />
            <path style="marker:none" d="M201.492 142.79c.02.455-.161.833-.462.9-.285.064-.592-.172-.773-.556l1.235-.344z" color="#000" fill-rule="evenodd" stroke-width=".03" stroke-linecap="round" stroke-linejoin="round" overflow="visible" />
            <g>
               <path d="M201.013 153.137c6.147-1.746 6.46 2.438 1.19 3.928" fill="none" stroke-width=".121" />
               <path style="marker:none" d="M205.839 153.888a1.07.672 77.42 11-1.312.293 1.07.672 77.42 111.312-.293z" color="#000" fill-rule="evenodd" stroke-width=".03" stroke-linecap="round" stroke-linejoin="round" overflow="visible" />
            </g>
            <g>
               <path d="M202.078 157.173c6.147-1.746 6.46 2.439 1.19 3.93" fill="none" stroke-width=".121" />
               <path d="M206.904 157.925a1.07.672 77.42 11-1.312.293 1.07.672 77.42 111.312-.293z" style="marker:none" color="#000" fill-rule="evenodd" stroke-width=".03" stroke-linecap="round" stroke-linejoin="round" overflow="visible" />
            </g>
            <g>
               <path d="M208.079 176.983c5.046-1.119 5.439 2.205 1.357 3.81" fill="none" stroke-width=".121" />
               <path style="marker:none" d="M212.143 177.927a1.07.672 77.42 11-1.312.293 1.07.672 77.42 111.312-.293z" color="#000" fill-rule="evenodd" stroke-width=".03" stroke-linecap="round" stroke-linejoin="round" overflow="visible" />
            </g>
         </g>
         <g>
            <path d="M198.39 160.252c6.147-1.746 6.46 2.439 1.19 3.929" fill="none" stroke-width=".121" />
            <path d="M203.215 161.004a1.07.672 77.42 11-1.311.293 1.07.672 77.42 111.311-.293z" style="marker:none" color="#000" fill-rule="evenodd" stroke-width=".03" stroke-linecap="round" stroke-linejoin="round" overflow="visible" />
         </g>
         <g>
            <path d="M199.454 164.29c6.147-1.747 6.461 2.438 1.19 3.928" fill="none" stroke-width=".121" />
            <path style="marker:none" d="M204.28 165.04a1.07.672 77.42 11-1.312.293 1.07.672 77.42 111.312-.292z" color="#000" fill-rule="evenodd" stroke-width=".03" stroke-linecap="round" stroke-linejoin="round" overflow="visible" />
         </g>
         <g>
            <path d="M200.544 168.222c6.053-1.719 6.45 2.313 1.427 3.859" fill="none" stroke-width=".121" />
            <path style="marker:none" d="M205.37 168.974a1.07.672 77.42 11-1.312.293 1.07.672 77.42 111.312-.293z" color="#000" fill-rule="evenodd" stroke-width=".03" stroke-linecap="round" stroke-linejoin="round" overflow="visible" />
         </g>
         <g>
            <path d="M202.064 172.138c4.032-1 5.297.711 3.88 2.313" fill="none" stroke-width=".121" />
            <path d="M206.434 173.01a1.07.672 77.42 11-1.311.293 1.07.672 77.42 111.311-.292z" style="marker:none" color="#000" fill-rule="evenodd" stroke-width=".03" stroke-linecap="round" stroke-linejoin="round" overflow="visible" />
         </g>
         <g>
            <path d="M195.252 148.263c6.147-1.746 6.46 2.438 1.19 3.929" fill="none" stroke-width=".121" />
            <path d="M200.078 149.014a1.07.672 77.42 11-1.312.293 1.07.672 77.42 111.312-.293z" style="marker:none" color="#000" fill-rule="evenodd" stroke-width=".03" stroke-linecap="round" stroke-linejoin="round" overflow="visible" />
            <path d="M196.055 144.261c3.027.241 2.375 3.143-1.829 4.332" fill="none" stroke-width=".121" />
            <path style="marker:none" d="M197.863 145.416a1.07.672 77.42 11-1.312.292 1.07.672 77.42 111.312-.292z" color="#000" fill-rule="evenodd" stroke-width=".03" stroke-linecap="round" stroke-linejoin="round" overflow="visible" />
         </g>
         <g>
            <path d="M196.341 152.196c6.147-1.746 6.461 2.438 1.19 3.929" fill="none" stroke-width=".121" />
            <path d="M201.167 152.947a1.07.672 77.42 11-1.312.293 1.07.672 77.42 111.312-.293z" style="marker:none" color="#000" fill-rule="evenodd" stroke-width=".03" stroke-linecap="round" stroke-linejoin="round" overflow="visible" />
         </g>
         <g>
            <path d="M197.406 156.233c6.147-1.746 6.46 2.438 1.19 3.929" fill="none" stroke-width=".121" />
            <path style="marker:none" d="M202.232 156.984a1.07.672 77.42 11-1.312.293 1.07.672 77.42 111.312-.293z" color="#000" fill-rule="evenodd" stroke-width=".03" stroke-linecap="round" stroke-linejoin="round" overflow="visible" />
         </g>
         <g>
            <path d="M195.585 163.233c6.147-1.746 6.46 2.439 1.19 3.929" fill="none" stroke-width=".121" />
            <path style="marker:none" d="M200.41 163.985a1.07.672 77.42 11-1.311.292 1.07.672 77.42 111.311-.292z" color="#000" fill-rule="evenodd" stroke-width=".03" stroke-linecap="round" stroke-linejoin="round" overflow="visible" />
            <path d="M196.65 167.27c5.88-1.67 6.422 2.086 1.844 3.72" fill="none" stroke-width=".121" />
            <path d="M201.475 168.021a1.07.672 77.42 11-1.312.293 1.07.672 77.42 111.312-.293z" style="marker:none" color="#000" fill-rule="evenodd" stroke-width=".03" stroke-linecap="round" stroke-linejoin="round" overflow="visible" />
            <path d="M198.484 171.014c3.035-.678 4.393.248 4.114 1.444" fill="none" stroke-width=".121" />
            <path style="marker:none" d="M202.565 171.955c.03.139.043.275.04.404l-1.39-.544c.02-.39.193-.698.46-.758.363-.08.761.322.89.898z" color="#000" fill-rule="evenodd" stroke-width=".03" stroke-linecap="round" stroke-linejoin="round" overflow="visible" />
            <g>
               <path d="M192.447 151.244c6.147-1.746 6.46 2.438 1.19 3.928" fill="none" stroke-width=".121" />
               <path style="marker:none" d="M197.273 151.995a1.07.672 77.42 11-1.312.293 1.07.672 77.42 111.312-.293z" color="#000" fill-rule="evenodd" stroke-width=".03" stroke-linecap="round" stroke-linejoin="round" overflow="visible" />
               <path d="M190.927 147.526c6.147-1.746 6.46 2.438 1.19 3.929" fill="none" stroke-width=".121" />
               <path d="M195.753 148.277a1.07.672 77.42 11-1.312.293 1.07.672 77.42 111.312-.293z" style="marker:none" color="#000" fill-rule="evenodd" stroke-width=".03" stroke-linecap="round" stroke-linejoin="round" overflow="visible" />
               <path d="M193.771 145.016c-.094.974-1.335 2.184-3.7 2.853" fill="none" stroke-width=".121" />
               <path style="marker:none" d="M193.748 145.052c0 .423-.178.766-.463.83-.22.049-.554-.088-.75-.328l1.213-.502z" color="#000" fill-rule="evenodd" stroke-width=".03" stroke-linecap="round" stroke-linejoin="round" overflow="visible" />
            </g>
            <g>
               <path d="M193.536 155.177c6.147-1.746 6.461 2.438 1.19 3.929" fill="none" stroke-width=".121" />
               <path style="marker:none" d="M198.362 155.928a1.07.672 77.42 11-1.312.293 1.07.672 77.42 111.312-.293z" color="#000" fill-rule="evenodd" stroke-width=".03" stroke-linecap="round" stroke-linejoin="round" overflow="visible" />
            </g>
            <g>
               <path d="M194.601 159.214c6.147-1.746 6.46 2.438 1.19 3.928" fill="none" stroke-width=".121" />
               <path d="M199.427 159.965a1.07.672 77.42 11-1.312.293 1.07.672 77.42 111.312-.293z" style="marker:none" color="#000" fill-rule="evenodd" stroke-width=".03" stroke-linecap="round" stroke-linejoin="round" overflow="visible" />
            </g>
         </g>
         <g>
            <path d="M191.267 162.214c6.147-1.746 6.46 2.438 1.19 3.928" fill="none" stroke-width=".121" />
            <path d="M196.093 162.965a1.07.672 77.42 11-1.312.293 1.07.672 77.42 111.312-.293z" style="marker:none" color="#000" fill-rule="evenodd" stroke-width=".03" stroke-linecap="round" stroke-linejoin="round" overflow="visible" />
            <path d="M192.332 166.25c6.147-1.746 6.46 2.439 1.19 3.93" fill="none" stroke-width=".121" />
            <path style="marker:none" d="M197.158 167.002a1.07.672 77.42 11-1.312.293 1.07.672 77.42 111.312-.293z" color="#000" fill-rule="evenodd" stroke-width=".03" stroke-linecap="round" stroke-linejoin="round" overflow="visible" />
            <path d="M193.421 170.184c3.15-.895 4.769-.232 4.888.827" fill="none" stroke-width=".121" />
            <path style="marker:none" d="M198.247 170.935l-1.342-.237c.042-.343.208-.605.453-.66.362-.08.76.321.89.897z" color="#000" fill-rule="evenodd" stroke-width=".03" stroke-linecap="round" stroke-linejoin="round" overflow="visible" />
            <g>
               <path d="M188.13 150.224c6.146-1.746 6.46 2.439 1.19 3.929" fill="none" stroke-width=".121" />
               <path d="M192.955 150.976a1.07.672 77.42 11-1.312.292 1.07.672 77.42 111.312-.292z" style="marker:none" color="#000" fill-rule="evenodd" stroke-width=".03" stroke-linecap="round" stroke-linejoin="round" overflow="visible" />
               <path d="M190.379 146.706c1.134.93.022 2.916-3.275 3.848" fill="none" stroke-width=".121" />
               <path style="marker:none" d="M190.74 147.377c.129.576-.061 1.109-.423 1.19-.362.08-.76-.321-.889-.897a1.618 1.618 0 01-.038-.435l.936-.607c.186.16.342.427.414.749z" color="#000" fill-rule="evenodd" stroke-width=".03" stroke-linecap="round" stroke-linejoin="round" overflow="visible" />
            </g>
            <g>
               <path d="M189.219 154.157c6.147-1.746 6.46 2.439 1.19 3.929" fill="none" stroke-width=".121" />
               <path d="M194.045 154.909a1.07.672 77.42 11-1.312.293 1.07.672 77.42 111.312-.293z" style="marker:none" color="#000" fill-rule="evenodd" stroke-width=".03" stroke-linecap="round" stroke-linejoin="round" overflow="visible" />
            </g>
            <g>
               <path d="M190.284 158.194c6.147-1.746 6.46 2.439 1.19 3.929" fill="none" stroke-width=".121" />
               <path style="marker:none" d="M195.11 158.946a1.07.672 77.42 11-1.312.292 1.07.672 77.42 111.311-.292z" color="#000" fill-rule="evenodd" stroke-width=".03" stroke-linecap="round" stroke-linejoin="round" overflow="visible" />
            </g>
         </g>
         <g>
            <path d="M188.305 165.601c6.147-1.746 6.46 2.439 1.19 3.929" fill="none" stroke-width=".121" />
            <path style="marker:none" d="M193.13 166.353a1.07.672 77.42 11-1.311.293 1.07.672 77.42 111.312-.293z" color="#000" fill-rule="evenodd" stroke-width=".03" stroke-linecap="round" stroke-linejoin="round" overflow="visible" />
            <path d="M189.37 169.638c3.03-.86 4.643-.28 4.868.709" fill="none" stroke-width=".121" />
            <path style="marker:none" d="M194.201 170.314l-1.349-.151c.04-.348.207-.615.455-.67.362-.081.766.245.894.821z" color="#000" fill-rule="evenodd" stroke-width=".03" stroke-linecap="round" stroke-linejoin="round" overflow="visible" />
            <path d="M185.167 153.612c6.147-1.746 6.46 2.438 1.19 3.929" fill="none" stroke-width=".121" />
            <path style="marker:none" d="M189.993 154.363a1.07.672 77.42 11-1.312.293 1.07.672 77.42 111.312-.293z" color="#000" fill-rule="evenodd" stroke-width=".03" stroke-linecap="round" stroke-linejoin="round" overflow="visible" />
            <path d="M186.351 149.468c3.094.208 2.46 3.14-1.77 4.335" fill="none" stroke-width=".121" />
            <path d="M188.217 150.626a1.07.672 77.42 11-1.312.293 1.07.672 77.42 111.312-.293z" style="marker:none" color="#000" fill-rule="evenodd" stroke-width=".03" stroke-linecap="round" stroke-linejoin="round" overflow="visible" />
            <g>
               <path d="M186.257 157.545c6.147-1.746 6.46 2.438 1.19 3.929" fill="none" stroke-width=".121" />
               <path style="marker:none" d="M191.083 158.296a1.07.672 77.42 11-1.312.293 1.07.672 77.42 111.312-.293z" color="#000" fill-rule="evenodd" stroke-width=".03" stroke-linecap="round" stroke-linejoin="round" overflow="visible" />
            </g>
            <g>
               <path d="M187.321 161.582c6.147-1.746 6.461 2.438 1.19 3.929" fill="none" stroke-width=".121" />
               <path d="M192.147 162.333a1.07.672 77.42 11-1.312.293 1.07.672 77.42 111.312-.293z" style="marker:none" color="#000" fill-rule="evenodd" stroke-width=".03" stroke-linecap="round" stroke-linejoin="round" overflow="visible" />
            </g>
         </g>
         <g>
            <path d="M184.185 164.91c6.147-1.746 6.46 2.438 1.19 3.928" fill="none" stroke-width=".121" />
            <path d="M189.01 165.661a1.07.672 77.42 11-1.311.293 1.07.672 77.42 111.311-.293z" style="marker:none" color="#000" fill-rule="evenodd" stroke-width=".03" stroke-linecap="round" stroke-linejoin="round" overflow="visible" />
            <path d="M185.25 168.947c3.36-.955 4.977-.137 4.891 1.044" fill="none" stroke-width=".121" />
            <path style="marker:none" d="M190.075 169.698c.026.116.04.23.04.34l-1.352-.047c-.128-.576.061-1.11.423-1.19.362-.081.76.32.89.897z" color="#000" fill-rule="evenodd" stroke-width=".03" stroke-linecap="round" stroke-linejoin="round" overflow="visible" />
            <path d="M183.665 152.502c3.475.01 2.952 3.109-1.428 4.347" fill="none" stroke-width=".121" />
            <path d="M185.873 153.672a1.07.672 77.42 11-1.312.292 1.07.672 77.42 111.312-.292z" style="marker:none" color="#000" fill-rule="evenodd" stroke-width=".03" stroke-linecap="round" stroke-linejoin="round" overflow="visible" />
            <g>
               <path d="M182.136 156.853c6.147-1.746 6.461 2.439 1.19 3.929" fill="none" stroke-width=".121" />
               <path d="M186.962 157.605a1.07.672 77.42 11-1.312.293 1.07.672 77.42 111.312-.293z" style="marker:none" color="#000" fill-rule="evenodd" stroke-width=".03" stroke-linecap="round" stroke-linejoin="round" overflow="visible" />
               <path d="M179.818 159.803c5.03-1.15 5.524 2.059 1.656 3.703" fill="none" stroke-width=".121" />
            </g>
            <g>
               <path d="M183.201 160.89c6.147-1.746 6.46 2.439 1.19 3.929" fill="none" stroke-width=".121" />
               <path style="marker:none" d="M188.027 161.642a1.07.672 77.42 11-1.312.292 1.07.672 77.42 111.312-.292z" color="#000" fill-rule="evenodd" stroke-width=".03" stroke-linecap="round" stroke-linejoin="round" overflow="visible" />
            </g>
         </g>
         <g>
            <path d="M185.305 167.933c.838.411.98 1.203.438 2.013" fill="none" stroke-width=".121" />
            <path style="marker:none" d="M185.996 168.813a1.07.672 77.42 11-1.312.292 1.07.672 77.42 111.312-.292z" color="#000" fill-rule="evenodd" stroke-width=".03" stroke-linecap="round" stroke-linejoin="round" overflow="visible" />
            <path d="M182.115 155.919c1.264.577 1.048 1.98-.617 3.082M181.454 159.592c3.364-.144 3.398 2.392.21 3.85" fill="none" stroke-width=".121" />
            <path style="marker:none" d="M183.947 160.756a1.07.672 77.42 11-1.312.293 1.07.672 77.42 111.312-.293zm-1.047-3.937a1.07.672 77.42 11-1.311.293 1.07.672 77.42 111.311-.293z" color="#000" fill-rule="evenodd" stroke-width=".03" stroke-linecap="round" stroke-linejoin="round" overflow="visible" />
            <path d="M181.521 155.76c2.156.435 1.815 2.51-.951 3.776" fill="none" stroke-width=".121" />
            <g>
               <path d="M181.587 163.671c3.393-.483 4.34 1.364 2.601 2.893" fill="none" stroke-width=".121" />
               <path d="M184.98 164.824a1.07.672 77.42 11-1.311.293 1.07.672 77.42 111.312-.293z" style="marker:none" color="#000" fill-rule="evenodd" stroke-width=".03" stroke-linecap="round" stroke-linejoin="round" overflow="visible" />
            </g>
         </g>
      </g>
      <path d="M210.747 182.273c.422-1.023.895-1.768 1.646-2.873 0 0-12.392-35.61-12.783-36.159l-1.942.507 13.079 38.525z" fill="#fac53a" fill-rule="evenodd" stroke="#000" stroke-width=".121" />
      <path d="M256.671 153.76c3.491-1.466 7.424-2.87 11.075-3.4m-8.946 6.848c3.611-1.16 7.115-1.46 11.097-1.44m-10.458 2.909c3.557-1.206 7.406-1.456 10.86-1.292m-10.28 3.89c3.58-.754 7.177-.515 10.69-.369m-10.403 2.007c3.38-.643 7.027-.855 10.532-.104m-10.256 3.036c3.326-.264 7.224.262 10.252.897m-10.273.921c3.585-.223 6.84.177 10.126.853m-10.803 2.279l9.406 2.699m-9.757-1.508l9.135 2.944m-11.413-20.065c3.49-1.466 7.277-2.942 10.929-3.47" stroke-width=".363" fill="none" stroke="#000" stroke-linecap="round" stroke-linejoin="round" />
      <path d="M165.834 152.504c.018-1.44-3.026-2.887-4.196-.664-1.58-1.874-3.149.282-4.018 2.751-.149.245-.307.509-.55.37.343-4.109 1.944-7.142 6.717-7.464 1.545-2.25 4.102.366 1.834 1.525l1.882 3.175c.494 1.096-.458.825-1.67.307z" fill-rule="evenodd" stroke="#000" stroke-width=".121" />
      <path d="M171.206 149.493a1.237 1.207 4.328 11-2.467-.187 1.237 1.207 4.328 112.467.187zm-2.658 1.117a.535.504 4.328 11-1.066-.082.535.504 4.328 111.066.081zm-.682-1.11a.443.458 4.328 11-.883-.066.443.458 4.328 11.883.067zm.12-1.185a.26.275 4.328 11-.517-.04.26.275 4.328 11.517.04zm1.642-.642a.443.397 4.328 11-.883-.067.443.397 4.328 11.883.067zm1.145-.158a.382.367 4.328 11-.761-.058.382.367 4.328 11.761.058zm1.47.417a.382.428 4.328 11-.762-.057.382.428 4.328 11.762.057zm.417 1.365a.428.443 4.328 11-.852-.065.428.443 4.328 11.853.065z" style="marker:none" color="#000" fill-rule="evenodd" stroke="#000" stroke-width=".03" stroke-linecap="round" stroke-linejoin="round" overflow="visible" />
      <path d="M170.057 150.907a.473.718 4.328 11-.944-.071.473.718 4.328 11.944.071zm1.477-.486a.58.855 4.328 11-1.158-.087.58.855 4.328 111.158.087z" style="marker:none" color="#000" fill-rule="evenodd" stroke="#000" stroke-width=".03" stroke-linecap="round" stroke-linejoin="round" overflow="visible" />
      <path d="M172.081 147.691c7.682.957 5.774 5 5.588 10.431-.205 6.022 2.543 8.196 5.124 8.206" fill="none" stroke="#000" stroke-width=".121" />
      <path d="M172.955 157.604l4.086-1.9m-3.703 4.941c1-.91 2.263-1.355 3.67-1.542m-2.742 4.486c1.124-1.119 2.844-1.888 3.458-1.038m-2.291 4.099c.553-1.307 1.414-2.106 2.99-1.724m-.733 4.128c.05-1.173.862-2.027 1.6-2.912m.43 3.218c-.033-1.066.656-1.602 1.21-2.236m1.007 2.376c-.448-.483.175-1.2.448-1.347m1.545 1.455c-.29-.405-.396-.873-.102-1.478" stroke-width=".363" fill="none" stroke="#000" stroke-linecap="round" stroke-linejoin="round" />
      <path d="M165.67 147.262c-.183-.38-.51-.262-.75-.126-.23.133-.254.424-.165.61.125.258.458.56.774.372.315-.187.322-.474.14-.856z" fill="#fff" fill-rule="evenodd" stroke="#000" stroke-width=".121" />
      <path d="M164.623 149.033c.053.137.284.424.392.55.144.167.294.39.395.506.134.156.223.205.358.417.044.07.13.15.16.186" fill="#fff" fill-rule="evenodd" stroke="#fff" stroke-width=".121" />
      <g stroke="#000" stroke-width=".363" stroke-linecap="round" stroke-linejoin="round">
         <path d="M269.603 212.557c3.147-6.646-4.23-9.48-7.9-7.719-2.587 1.242-8.101 8.127 1.398 11.092.837.289 1.495.856 1.665 1.418l-4.32 2.35c-1.882 1.18-1.188 2.411.844 1.308l13.7-6.468c2.335-1.104 1.784-3.08-1.165-1.652l-3.008 1.415c-1.07.611-1.508-1.013-1.214-1.744z" fill="#fac53a" fill-rule="evenodd" />
         <path d="M262.757 207.62c-1.927.574-2.539 2.46-1.758 3.992.781 1.533 3.044 2.215 4.683 1.446 1.638-.768 2.206-2.488 1.512-3.949-.695-1.461-2.51-2.061-4.437-1.488z" fill="#fac53a" fill-rule="evenodd" />
         <path d="M263.662 213.401l2.763 4.972m-1.207-5.058l2.552 4.323m-1.507-4.948l2.927 4.268m-1.982-5.213l3.348 4.536" fill="none" />
      </g>
   </g>
   <g stroke="#000">
      <path d="M213.289 189.105c-3.537-2.46-3.516-6.068-2.242-7.99 3.057-4.609 5.32-5.363 7.417-4.698 4.054 1.287 3.316 6.353 2.235 10.67-1.05 4.191-4.486 6.913-6.44 10.38-1.215 2.157-1.794 3.66-2.569 4.456-.896.923-2.451 2.254-4.493 1.204-2.253-1.158-1.611-3.962-.302-7.476 1.038-2.787 3.846-5.037 5.253-5.79" fill="#f5ca44" fill-rule="evenodd" stroke-width=".205" />
      <path d="M210.026 196.795c-.95-.348 2.217-2.838 3.9-5.14 2.17-2.968.065-4.457-.836-6.386-1.483-3.174 1.412-7.774 4.206-6.916 3.326 1.02 4.574 5.432.126 11.753-1.998 2.839-5.313 7.454-7.396 6.69z" fill="none" stroke-width=".21" />
      <path d="M210.166 200.393a1.312 1.425 2.819 11-2.621-.129 1.312 1.425 2.819 112.621.13z" style="marker:none" color="#000" fill="none" stroke-linecap="round" stroke-linejoin="round" overflow="visible" stroke-width=".21" />
   </g>
</svg>