<svg xmlns="http://www.w3.org/2000/svg" xmlns:xlink="http://www.w3.org/1999/xlink" width="425" height="650" version="1.0">
   <defs>
      <linearGradient id="prefix__a">
         <stop offset="0" stop-color="#6f7c91" />
         <stop offset="1" stop-color="#fff" />
      </linearGradient>
      <linearGradient xlink:href="#prefix__a" id="prefix__b" gradientUnits="userSpaceOnUse" x1="400.229" y1="484.673" x2="390.03" y2="515.9" />
   </defs>
   <path d="M284.153 396.295c16.48 77.463 35.116 167.641 37.965 232.387l-5.595 7.793a781.05 781.05 0 00-10.987.115c-2.568-1.751-5.549-1.494-8.485.166-5.011.104-10.475.221-17.094.319-2.763 2.131-4.208 4.262-2.198 6.394h47.356c6.503-8.001 9.73-13.135 18.983 0 1.237.171 2.73.6 2.697-.5l-11.689-13.288c-6.066-45.971-15.342-116.317-27.286-168.696-11.258-49.373-12.347-69.25-18.072-72.882M245.368 396.48c-15.09 46.292-59.977 168.855-83.503 226.008l-7.194 9.99a781.05 781.05 0 00-10.987.116c-2.567-1.751-5.548-1.494-8.484.165-5.012.105-10.476.222-17.095.32-2.763 2.13-4.208 4.262-2.198 6.393h47.357c6.502-8 4.935-11.536 15.385-.4h5.595c-6.99-7.393-15.04-9.715-10.79-18.982 33.196-92.472 61.95-162.09 80.843-221.508" fill="#fac53a" fill-rule="evenodd" stroke="#000" stroke-linecap="round" stroke-linejoin="round" stroke-width=".79123" />
   <path d="M130.026 166.12c4.796 4.411 6.118 8.994 2.792 13.806-40.92-.342-82.06-2.072-123.324.333-.443-5.582 19.631-5.658 43.827-7.147 22.375-1.378 58.697-5.25 76.705-6.993z" fill="#fac53a" fill-rule="evenodd" stroke="#000" stroke-width=".79123" />
   <path d="M552.806 630.624c49.126 11.16 118.693 10.642 180.565 14.52.701-8.063 2.476-16.198-6.566-23.612l-22.729-16.667c-64.36-51.583-150.82-124.285-208.596-146.473-25.27-9.704-51.028-17.983-86.368 13.638-31.77 19.842-43.626-27.874 25.759-29.295 46.312-.948 70.808-33.807 22.223-68.185-17.226-12.19-36.662-21.927-52.785-21.3-23.357.907-39.443 18.235-27.522 30.896-11.662 29.556 76.321-.531 77.277 27.78.546 16.177-34.459 12.448-57.58 14.647-21.29 2.025-70.052 33.156-28.788 82.327l34.345 28.79c37.707 45.549 116.338 138.765 126.269 130.814 5.032-4.03-6.612-21.577-11.112-33.335l35.608-4.545z" fill="url(#prefix__b)" fill-rule="evenodd" stroke="#000" transform="matrix(.79123 0 0 .79123 -164.436 -130.05)" />
   <path d="M388.156 364.22c-52.603-17.693-248.227-60.972-236.805-95.795l8.058-24.566c27.962-25.02 48.343-18.468 68.337-10.79 45.714 17.556 114.124 75.08 165.049 115.894l17.983 13.188c7.155 5.866 5.6 12.203 5.045 18.583" fill="#6f7c91" fill-rule="evenodd" />
   <path d="M229.627 343.592c7.07-6.144 25.627 7.006 41.223 22.785 12.842 12.992 22.772 25.653 19.956 29.21-6.383 7.537-54.35-27.653-78.732-51.68-18.583-18.31-36.516-37.111-54.789-48.496l-8.618-5.086 6.923 5.369 1.13-.283" fill="#fff" fill-rule="evenodd" stroke="#000" stroke-width=".79123" />
   <path d="M236.446 319.266c34.306-9.66 67.765-23.694 73.333-35.967M303.038 339.5c22.749-3.77 40.467-11.684 54.273-19.136M320.62 344.243c14.338-4.217 30.4-9.47 42.66-18.883M333.308 347.94c14.338-4.218 25.105-7.473 37.365-16.885M343.798 350.737c11.74-2.22 24.206-10.17 31.371-15.985M354.988 354.134c10.556-2.31 20.41-7.953 26.975-13.987M364.779 356.632c9.726-2.208 16.417-7.94 21.98-12.489M371.872 358.73c7.183-2.976 14.73-6.916 19.782-10.69M380.864 361.427c5.688-2.288 11.99-5.58 16.885-9.191M388.058 363.725c4.668-1.616 10.827-4.602 14.986-7.493" fill="none" stroke="#000" stroke-width=".79123" />
   <path d="M38.883 176.302l91.698-.847" fill="none" stroke="#000" stroke-width=".395615" stroke-linecap="round" stroke-linejoin="round" />
   <path d="M130.864 175.172c-12.355-6.06-4.233-12.281-1.13-9.043" fill="#b7bec8" fill-rule="evenodd" stroke="#000" stroke-width=".395615" />
   <path d="M131.994 172.77c-5.378-7.905-6.909-4.89-4.521-2.12l1.413-.988" fill="none" stroke="#000" stroke-width=".395615" />
   <path d="M195.01 208.234c18.535-14.988 8.739-29.209-6.869-39.483-10.618-6.99-23.927-12.154-32.834-14.49 8.62 4.945 16.39 8.619.99 17.803 18.086-8.486 27.283-4.325 31.742-3.102" fill="none" stroke="#000" stroke-linecap="round" stroke-linejoin="round" stroke-width=".79123" />
   <path d="M143.282 166.955c7.428 1.515 17.365 1.535 15.686-3.646-2.896-8.93-11.839.479-15.686 3.646z" fill="#fff" fill-rule="evenodd" stroke="#000" stroke-width=".79123" />
   <path d="M149.077 165.607c3.207-4.533 7.065-8.122 9.391-3.397 3.093 6.285-7.051 4.381-9.391 3.397z" fill-rule="evenodd" stroke="#000" stroke-width=".79123" />
   <path d="M175.653 153.272c51.85-.309 150.29-1.278 175.909 5.934-55.115-2.517-105.461-2.704-167.148-1.413 21.453-.17 42.915-.488 64.135-.176 38.777 3.233 79.317 7.062 90.72 10.49-42.23-2.757-97.559-9.112-148.921-6.782" fill="#6f7c91" fill-rule="evenodd" stroke="#000" stroke-width=".395615" />
   <path d="M387.858 363.825c-1.546 1.423 7.92 6.445 7.992 9.192.055 2.041-21.737.041-21.68 6.294.013 1.353 1.127 2.554 2.984 3.582.736.408 1.025 2.343 2.538 2.625 1.476.524.553-1.235 2.726-.615 1.999.418 1.234 2.012 3.2 2.238 1.497.145.402-1.557 2.23-1.076 1.816.206.966 1.671 2.53 1.851 1.53.087.808-1.46 2.068-1.249 1.603.083.81 1.425 2.49 1.694 1.365.328.258-1.683 1.974-1.372 1.35.109 1 1.334 2.548 1.556 1.756.081 1.029-1.973 2.684-1.502 1.432-.233 1.577 1.428 2.336 1.38.782-.051 1.26-3.155 1.991-3.236.614-.068 1.49 1.407 2.061 1.317a28.873 28.873 0 001.917-.365c3.486-.795 5.687-2.118 5.485-4.03-1.667-15.787-26.336-19.752-28.074-18.284z" fill-rule="evenodd" stroke="#000" stroke-width=".79123" />
   <path d="M238.295 389.302c1.34-2.057 2.656-4.138 6.594-3.597.277-2.483 1.421-4.244 3.297-5.395M241.092 392c1.004-2.159 2.476-3.614 5.595-2.598.54-2.368 1.469-4.282 3.597-4.796M244.789 394.597c.781-1.94 2.699-2.063 4.795-1.898.37-1.669.32-3.686 2.198-4.097M273.762 390.8c.647-1.919 1.092-3.963 3.797-4.595.543-3.072 2.159-5.25 4.296-6.994M276.66 392.199c.173-2.791 1.392-4.536 3.696-5.195.048-3.03 1.807-4.064 3.397-5.295M279.557 393.298c.502-1.744 1.441-3.176 3.796-3.597.602-1.764.875-3.638 2.998-4.895M283.353 395.296c.3-2.379 1.898-2.938 3.497-3.497.166-1.252.153-2.612 1.599-3.097M167.6 623.208c29.327-74.948 56.616-150.713 83.645-222.675M291.371 396.576c14.838 77.71 31.662 155.421 40.127 233.132" fill="none" stroke="#000" stroke-width=".79123" />
   <path d="M379.565 370.02c0 1.378-.81 2.497-2.547 2.497-1.738 0-3.547-1.119-3.547-2.498 0-1.378 1.81-2.497 3.547-2.497s2.547 1.119 2.547 2.497z" fill="none" stroke="#000" stroke-width=".395615" stroke-linecap="round" stroke-linejoin="round" />
   <path d="M236.268 270.261l47.686 32.038M239.517 264.327l51.43 34.334M237.822 255.85l59.742 39.246M245.734 254.295l56.601 37.377M249.832 249.492l56.468 38.424M231.605 274.924l45.355 30.237M225.494 280.788l43.518 27.975M217.758 284.673l43.236 26.846M211.824 291.173l40.94 23.419M209.422 300.498l33.416 16.778M242.555 317.206l25.22 11.833M252.587 314.521l40.268 21.582M261.241 311.59l47.085 26.845M268.87 308.657l45.673 28.435M277.49 305.372l44.153 29.954M283.883 302.3l44.86 30.801M291.23 298.767l44.896 31.685M297.671 294.929l45.731 32.414M302.675 291.738l45.072 33.345M306.41 288.253l46.635 34.392" fill="none" stroke="#000" stroke-width=".79123" />
   <path d="M229.808 316.913c3.14.377 7.98 1.078 11.97.257M237.469 314.31c4.212.665 9.96 1.807 14.2.176M246.83 311.095c3.713.475 10.425 2.04 14.022.424M255.003 308.045c3.792.835 10.006 1.881 13.338.365M263.26 305.08c2.602.53 10.003 2.207 13.7.116M272.014 301.77c2.214.654 7.5 2.208 11.728.565M278.621 298.427c2.43.79 7.411 2.853 12.185.375M285.95 294.846c3.674.606 7.929 1.633 11.073.142M292.567 291.455c3.037.775 6.673 1.276 9.26 0M297.279 288.156c2.132.38 6.777.983 8.504-.516M302.091 284.956c2.445.122 5.91.337 7.433-1.846M292.431 335.82c4.498 1.13 9.985 2.933 15.118 2.509M302.453 334.638c4.635 1.443 6.982 3.272 11.278 2.349M308.32 332.681c4.215 1.62 8.225 3.478 12.405 2.54M314.72 330.03c4.51 1.917 8.666 4.343 13.07 3.036M321.617 327.65c4.18 1.507 9.587 4.215 13.414 2.66M328.037 324.588c4.32 1.52 10.232 4.266 14.765 2.755M336.085 321.712c2.576.945 8.57 4.432 11.238 3.23M341.636 320.279c3.325 1.172 8.053 3.297 10.35 2.26M345.733 317.1c3.225 1.535 8.768 4.206 11.057 3.108" fill="none" stroke="#000" stroke-linecap="round" stroke-linejoin="round" stroke-width=".79123" />
   <g fill="#6f7c91">
      <g fill-rule="evenodd" stroke="#000">
         <path d="M236.637 243.1c11.834 10.553 14.04 8.675 15.263 6.615.746-1.259.739-3.147-2.837-7.026M239.06 240.847c10.715 8.517 13.671 8.509 1.143-1.368" stroke-width=".79123" />
      </g>
      <g fill-rule="evenodd" stroke="#000">
         <path d="M196.228 300.464c11.834 10.553 14.04 8.675 15.262 6.615 1.084-1.826.58-4.977-10.105-13.609M198.65 298.212c10.715 8.516 13.672 8.508 1.143-1.368" stroke-width=".79123" />
      </g>
      <g fill-rule="evenodd" stroke="#000">
         <path d="M201.315 293.4c11.833 10.553 14.04 8.675 15.262 6.615 1.083-1.827.58-4.978-10.105-13.61M203.737 291.147c10.715 8.517 13.671 8.509 1.143-1.368" stroke-width=".79123" />
      </g>
      <g fill-rule="evenodd" stroke="#000">
         <path d="M206.401 286.193c11.834 10.554 14.04 8.676 15.262 6.616 1.084-1.826.58-4.978-10.105-13.61M208.824 283.941c10.714 8.517 13.67 8.509 1.142-1.368" stroke-width=".79123" />
      </g>
      <g fill-rule="evenodd" stroke="#000">
         <path d="M211.488 279.129c11.833 10.553 14.04 8.675 15.262 6.615 1.083-1.826.58-4.977-10.105-13.61M213.91 276.877c10.715 8.516 13.671 8.508 1.143-1.368" stroke-width=".79123" />
      </g>
      <g fill-rule="evenodd" stroke="#000">
         <path d="M216.574 271.782c11.834 10.553 14.04 8.675 15.262 6.615 1.084-1.826.58-4.977-10.105-13.61M218.997 269.53c10.714 8.516 13.67 8.508 1.142-1.368" stroke-width=".79123" />
      </g>
      <g fill-rule="evenodd" stroke="#000">
         <path d="M221.66 264.717c11.834 10.553 14.04 8.676 15.263 6.616 1.083-1.827.58-4.978-10.105-13.61M224.083 262.465c10.715 8.516 13.671 8.508 1.143-1.368" stroke-width=".79123" />
      </g>
      <g fill-rule="evenodd" stroke="#000">
         <path d="M226.747 257.511c11.834 10.554 14.04 8.676 15.262 6.616 1.084-1.827.58-4.978-10.105-13.61M229.17 255.26c10.714 8.515 13.67 8.507 1.142-1.369" stroke-width=".79123" />
      </g>
      <g fill-rule="evenodd" stroke="#000">
         <path d="M231.834 250.447c11.833 10.553 14.04 8.675 15.262 6.615 1.083-1.826.58-4.977-10.105-13.61M234.256 248.195c10.715 8.516 13.671 8.508 1.143-1.368" stroke-width=".79123" />
      </g>
      <g fill-rule="evenodd" stroke="#000">
         <path d="M226.747 239.143c11.834 10.554 14.04 8.676 15.262 6.616.862-1.454.72-3.746-4.76-8.972M229.17 236.891c10.714 8.517 13.67 8.508 1.142-1.368" stroke-width=".79123" />
      </g>
      <g fill-rule="evenodd" stroke="#000">
         <path d="M186.338 296.508c11.833 10.553 14.04 8.675 15.262 6.615 1.083-1.826.58-4.977-10.105-13.61M188.76 294.256c10.715 8.516 13.671 8.508 1.143-1.368" stroke-width=".79123" />
      </g>
      <g fill-rule="evenodd" stroke="#000">
         <path d="M191.424 289.443c11.834 10.553 14.04 8.676 15.262 6.616 1.084-1.827.58-4.978-10.105-13.61M193.847 287.191c10.714 8.516 13.67 8.508 1.142-1.368" stroke-width=".79123" />
      </g>
      <g fill-rule="evenodd" stroke="#000">
         <path d="M196.51 282.237c11.834 10.554 14.041 8.676 15.263 6.616 1.083-1.827.58-4.978-10.105-13.61M198.933 279.985c10.715 8.517 13.671 8.508 1.143-1.368" stroke-width=".79123" />
      </g>
      <g fill-rule="evenodd" stroke="#000">
         <path d="M201.597 275.173c11.834 10.553 14.04 8.675 15.262 6.615 1.084-1.826.58-4.977-10.105-13.61M204.02 272.92c10.714 8.517 13.67 8.509 1.142-1.367" stroke-width=".79123" />
      </g>
      <g fill-rule="evenodd" stroke="#000">
         <path d="M206.684 267.826c11.833 10.553 14.04 8.675 15.262 6.615 1.083-1.826.58-4.977-10.105-13.61M209.106 265.573c10.715 8.517 13.671 8.509 1.143-1.368" stroke-width=".79123" />
      </g>
      <g fill-rule="evenodd" stroke="#000">
         <path d="M211.77 260.76c11.834 10.554 14.04 8.676 15.262 6.616 1.084-1.826.58-4.977-10.105-13.609M214.193 258.509c10.714 8.516 13.67 8.508 1.142-1.368" stroke-width=".79123" />
      </g>
      <g fill-rule="evenodd" stroke="#000">
         <path d="M216.857 253.555c11.833 10.553 14.04 8.676 15.262 6.616 1.083-1.827.58-4.978-10.105-13.61M219.28 251.303c10.714 8.516 13.67 8.508 1.142-1.368" stroke-width=".79123" />
      </g>
      <g fill-rule="evenodd" stroke="#000">
         <path d="M221.943 246.49c11.834 10.554 14.04 8.676 15.262 6.616 1.084-1.826.58-4.978-10.105-13.61M224.366 244.238c10.714 8.517 13.67 8.509 1.142-1.368" stroke-width=".79123" />
      </g>
      <g fill-rule="evenodd" stroke="#000">
         <path d="M215.444 234.057c11.833 10.553 14.04 8.675 15.262 6.615.832-1.402.728-3.586-4.203-8.432M217.866 231.805c10.715 8.516 13.671 8.508 1.143-1.368" stroke-width=".79123" />
      </g>
      <g fill-rule="evenodd" stroke="#000">
         <path d="M175.034 291.421c11.834 10.554 14.04 8.676 15.262 6.616 1.084-1.827.58-4.978-10.105-13.61M177.457 289.17c10.714 8.516 13.671 8.507 1.142-1.369" stroke-width=".79123" />
      </g>
      <g fill-rule="evenodd" stroke="#000">
         <path d="M180.12 284.357c11.834 10.553 14.041 8.675 15.263 6.615 1.083-1.826.58-4.977-10.105-13.61M182.543 282.105c10.715 8.516 13.671 8.508 1.143-1.368" stroke-width=".79123" />
      </g>
      <g fill-rule="evenodd" stroke="#000">
         <path d="M185.207 277.15c11.834 10.554 14.04 8.676 15.262 6.616 1.084-1.826.58-4.977-10.105-13.61M187.63 274.899c10.714 8.516 13.671 8.508 1.142-1.368" stroke-width=".79123" />
      </g>
      <g fill-rule="evenodd" stroke="#000">
         <path d="M190.294 270.086c11.833 10.553 14.04 8.676 15.262 6.616 1.083-1.827.58-4.978-10.105-13.61M192.716 267.834c10.715 8.516 13.671 8.508 1.143-1.368" stroke-width=".79123" />
      </g>
      <g fill-rule="evenodd" stroke="#000">
         <path d="M195.38 262.739c11.834 10.553 14.04 8.676 15.262 6.615 1.084-1.826.58-4.977-10.105-13.609M197.803 260.487c10.714 8.516 13.671 8.508 1.142-1.368" stroke-width=".79123" />
      </g>
      <g fill-rule="evenodd" stroke="#000">
         <path d="M200.467 255.674c11.833 10.554 14.04 8.676 15.262 6.616 1.083-1.826.58-4.978-10.105-13.61M202.89 253.422c10.714 8.517 13.67 8.509 1.142-1.368" stroke-width=".79123" />
      </g>
      <g fill-rule="evenodd" stroke="#000">
         <path d="M205.553 248.469c11.834 10.553 14.04 8.675 15.263 6.615 1.083-1.826.579-4.977-10.106-13.61M207.976 246.216c10.714 8.517 13.671 8.509 1.142-1.368" stroke-width=".79123" />
      </g>
      <g fill-rule="evenodd" stroke="#000">
         <path d="M210.64 241.404c11.833 10.553 14.04 8.675 15.262 6.615 1.083-1.826.58-4.977-10.105-13.609M213.062 239.152c10.715 8.516 13.672 8.508 1.143-1.368" stroke-width=".79123" />
      </g>
      <g fill-rule="evenodd" stroke="#000">
         <path d="M205.836 229.535c11.834 10.554 14.04 8.676 15.262 6.616.74-1.247.74-3.112-2.738-6.919M208.259 227.283c10.04 7.982 13.269 8.476 3.321.377" stroke-width=".79123" />
      </g>
      <g fill-rule="evenodd" stroke="#000">
         <path d="M165.426 286.9c11.834 10.553 14.04 8.675 15.263 6.615 1.083-1.826.579-4.977-10.105-13.609M167.849 284.648c10.714 8.516 13.671 8.508 1.143-1.368" stroke-width=".79123" />
      </g>
      <g fill-rule="evenodd" stroke="#000">
         <path d="M170.513 279.835c11.834 10.554 14.04 8.676 15.262 6.616 1.083-1.827.58-4.978-10.105-13.61M172.936 277.583c10.714 8.517 13.67 8.509 1.142-1.368" stroke-width=".79123" />
      </g>
      <g fill-rule="evenodd" stroke="#000">
         <path d="M175.6 272.63c11.833 10.553 14.04 8.675 15.262 6.615 1.083-1.826.579-4.978-10.105-13.61M178.022 270.377c10.714 8.517 13.671 8.509 1.143-1.368" stroke-width=".79123" />
      </g>
      <g fill-rule="evenodd" stroke="#000">
         <path d="M180.686 265.565c11.834 10.553 14.04 8.675 15.262 6.615 1.083-1.826.58-4.977-10.105-13.61M183.109 263.313c10.714 8.516 13.67 8.508 1.142-1.368" stroke-width=".79123" />
      </g>
      <g fill-rule="evenodd" stroke="#000">
         <path d="M185.772 258.218c11.834 10.553 14.04 8.675 15.263 6.615 1.083-1.826.58-4.977-10.105-13.61M188.195 255.966c10.714 8.516 13.671 8.508 1.143-1.368" stroke-width=".79123" />
      </g>
      <g fill-rule="evenodd" stroke="#000">
         <path d="M190.859 251.153c11.834 10.553 14.04 8.676 15.262 6.616 1.083-1.827.58-4.978-10.105-13.61M193.282 248.901c10.714 8.516 13.67 8.508 1.142-1.368" stroke-width=".79123" />
      </g>
      <g fill-rule="evenodd" stroke="#000">
         <path d="M195.945 243.947c11.834 10.554 14.04 8.676 15.263 6.616 1.083-1.827.58-4.978-10.105-13.61M198.368 241.695c10.714 8.516 13.671 8.508 1.143-1.368" stroke-width=".79123" />
      </g>
      <g fill-rule="evenodd" stroke="#000">
         <path d="M201.032 236.883c11.834 10.553 14.04 8.675 15.262 6.615 1.083-1.826.58-4.977-10.105-13.61M203.455 234.63c10.714 8.517 13.67 8.509 1.142-1.367" stroke-width=".79123" />
      </g>
      <g fill-rule="evenodd" stroke="#000">
         <path d="M198.67 225.806c10.198 8.705 12.231 6.922 13.385 4.976.48-.809.648-1.877-.24-3.565M204.863 226.136c3.722 2.551 4.88 2.697 2.373.243" stroke-width=".79123" />
      </g>
      <g fill-rule="evenodd" stroke="#000">
         <path d="M156.384 281.53c11.833 10.554 14.04 8.676 15.262 6.616 1.083-1.826.58-4.977-10.105-13.61M158.806 279.279c10.715 8.516 13.671 8.508 1.143-1.368" stroke-width=".79123" />
      </g>
      <g fill-rule="evenodd" stroke="#000">
         <path d="M161.47 274.466c11.834 10.554 14.04 8.676 15.262 6.616 1.084-1.827.58-4.978-10.105-13.61M163.893 272.214c10.714 8.516 13.67 8.508 1.142-1.368" stroke-width=".79123" />
      </g>
      <g fill-rule="evenodd" stroke="#000">
         <path d="M166.557 267.26c11.833 10.554 14.04 8.676 15.262 6.616 1.083-1.827.58-4.978-10.105-13.61M168.98 265.008c10.714 8.517 13.67 8.509 1.142-1.368" stroke-width=".79123" />
      </g>
      <g fill-rule="evenodd" stroke="#000">
         <path d="M171.643 260.196c11.834 10.553 14.04 8.675 15.262 6.615 1.084-1.826.58-4.977-10.105-13.61M174.066 257.944c10.714 8.516 13.671 8.508 1.142-1.368" stroke-width=".79123" />
      </g>
      <g fill-rule="evenodd" stroke="#000">
         <path d="M176.73 252.849c11.833 10.553 14.04 8.675 15.262 6.615 1.083-1.826.58-4.977-10.105-13.61M179.152 250.597c10.715 8.516 13.671 8.508 1.143-1.368" stroke-width=".79123" />
      </g>
      <g fill-rule="evenodd" stroke="#000">
         <path d="M181.816 245.784c11.834 10.553 14.04 8.676 15.262 6.615 1.084-1.826.58-4.977-10.105-13.609M184.239 243.532c10.714 8.516 13.671 8.508 1.142-1.368" stroke-width=".79123" />
      </g>
      <g fill-rule="evenodd" stroke="#000">
         <path d="M186.903 238.578c11.833 10.553 14.04 8.676 15.262 6.616 1.083-1.827.58-4.978-10.105-13.61M189.325 236.326c10.715 8.516 13.671 8.508 1.143-1.368" stroke-width=".79123" />
      </g>
      <g fill-rule="evenodd" stroke="#000">
         <path d="M191.99 231.514c11.833 10.553 14.04 8.675 15.261 6.615 1.028-1.733.627-4.658-8.54-12.323M194.412 229.261c10.714 8.517 13.671 8.509 1.142-1.368" stroke-width=".79123" />
      </g>
      <g fill-rule="evenodd" stroke="#000">
         <path d="M160.223 284.867c3.148 1.398 4.206.25 4.924-.96 1.083-1.826.579-4.977-10.106-13.609M154.568 276.312c8.807 7.668 11.41 7.236-1.119-2.64" stroke-width=".79123" />
      </g>
      <g fill-rule="evenodd" stroke="#000">
         <path d="M154.97 270.228c11.834 10.553 14.041 8.675 15.263 6.615 1.083-1.826.58-4.978-10.105-13.61M157.393 267.975c10.715 8.517 13.672 8.509 1.143-1.368" stroke-width=".79123" />
      </g>
      <g fill-rule="evenodd" stroke="#000">
         <path d="M160.057 263.022c11.834 10.553 14.04 8.675 15.263 6.615 1.083-1.826.579-4.977-10.106-13.61M162.48 260.77c10.714 8.516 13.671 8.508 1.142-1.368" stroke-width=".79123" />
      </g>
      <g fill-rule="evenodd" stroke="#000">
         <path d="M165.144 255.957c11.833 10.553 14.04 8.676 15.262 6.615.997-1.68.65-4.481-7.732-11.64M167.566 253.705c10.715 8.516 14.237 8.72 1.708-1.156" stroke-width=".79123" />
      </g>
      <g fill-rule="evenodd" stroke="#000">
         <path d="M172.582 250.652c9.787 8.247 11.774 6.489 12.91 4.573.983-1.656 1.155-3.835-6.877-10.767M175.55 248.406c7.959 6.539 7.454 3.564 1.142-1.368" stroke-width=".79123" />
      </g>
      <g fill-rule="evenodd" stroke="#000">
         <path d="M178.075 243.928c9.436 7.857 11.384 6.121 12.504 4.233 1.083-1.827.58-4.978-10.105-13.61M178.867 240.18c9.78 7.616 12.092 7.266.015-2.255" stroke-width=".79123" />
      </g>
      <g fill-rule="evenodd" stroke="#000">
         <path d="M180.403 234.34c11.834 10.553 14.04 8.675 15.263 6.615 1.083-1.827.779-4.728-9.906-13.36M182.826 232.087c10.714 8.517 13.671 8.509 1.142-1.368" stroke-width=".79123" />
      </g>
      <g fill-rule="evenodd" stroke="#000">
         <path d="M185.64 227.774c11.833 10.554 13.89 8.176 15.112 6.116.805-1.357.734-3.447-3.744-7.975M192.891 228.78c5.564 3.92 6.325 3.237-.658-2.56" stroke-width=".79123" />
      </g>
      <g fill-rule="evenodd" stroke="#000">
         <path d="M155.391 280.36c.93-.199 1.44-.859 1.843-1.539.913-1.54.699-4.02-5.787-9.928M151.894 275.39c2.732 1.68 2.707.959-.634-2.05" stroke-width=".79123" />
      </g>
      <g fill-rule="evenodd" stroke="#000">
         <path d="M151.245 268.685c8.21 6.513 10.014 4.86 11.076 3.071.951-1.604.678-4.231-6.647-10.699M152.677 265.353c7.24 5.386 8.85 5.094.736-1.588" stroke-width=".79123" />
      </g>
      <g fill-rule="evenodd" stroke="#000">
         <path d="M155.54 260.843c8.888 7.252 10.773 5.553 11.867 3.708.858-1.447.72-3.725-4.685-8.9M158.034 258.347c6.6 4.876 8.287 4.834 1.768-.7" stroke-width=".79123" />
      </g>
      <g fill-rule="evenodd" stroke="#000">
         <path d="M163.07 255.68c6.81 5.012 8.438 3.468 9.424 1.806.65-1.096.587-2.812-1.766-5.762M166.594 253.696c2.586 1.64 3.232 1.537 1.266-.43" stroke-width=".79123" />
      </g>
      <path d="M172.32 250.943c3.411 1.633 4.518.448 5.26-.804.526-.887.678-2.086-.528-4.073M177.861 244.085c3.057 1.317 4.097.184 4.806-1.01.82-1.385.73-3.53-4.013-8.245" fill-rule="evenodd" stroke="#000" stroke-width=".79123" />
      <g fill-rule="evenodd" stroke="#000">
         <path d="M178.582 234.247c6.598 4.789 8.197 3.263 9.171 1.621.794-1.338.736-3.387-3.554-7.781M179.138 230.22c5.786 4.182 7.19 4.071 1.546-.797" stroke-width=".79123" />
      </g>
      <path d="M184.935 228.066c5.544 3.7 6.997 2.269 7.905.738.395-.667.58-1.511.133-2.735" fill-rule="evenodd" stroke="#000" stroke-width=".79123" />
   </g>
   <path d="M178.055 240.308c.145 15.652-21.239 10.558-26.845 27.693-11.397 34.831 184.202 78.102 236.805 95.796" fill="none" stroke="#000" stroke-width=".79123" />
   <path d="M187.94 168.906c-10.619-6.99-23.626-12.409-32.533-14.745 8.62 4.945 16.39 8.619.99 17.803 18.086-8.486 27.084-4.28 31.543-3.058z" fill-rule="evenodd" stroke="#000" stroke-linecap="round" stroke-linejoin="round" stroke-width=".79123" />
   <path d="M130.603 138.698c-.457.864.86 2.547 1.409 3.605-4.936-10.557-21.092-7.53-28.232-6.865 5.806-55.974 28.113-74.38 28.56-84.107-.434-2.332-.32-1.567-1.093-1.67-5.218 2.109-7.892-6.02-5.268-11.466 2.623-5.447 8.863-5.956 10.41-5.748 1.546.208 11.902-.426 14.22 13.32 3.353 20.108-21.27 40.669-20.006 92.931z" fill="#04a" fill-rule="evenodd" />
   <path d="M130.794 49.976c-5.218 2.108-7.892-6.02-5.268-11.467 2.623-5.446 8.863-5.955 10.41-5.747 1.546.208 11.902-.426 14.22 13.318 4.165 23.27-24.64 43.988-18.448 94.823" fill="none" stroke="#fac53a" stroke-width="1.8612455500000002" stroke-linecap="round" stroke-linejoin="round" />
   <g fill-rule="evenodd">
      <path d="M130.34 45.856c-.428 1.033-1.31 1.475-1.443-.199-.031-4.672 1.574-7.085 3.35-8.314 3.946-2.334 12.489-1.992 14.83 9.175 1.861 8.875-7.816 22.874-13.702 38.106-4.597 11.896-7.578 31.922-8.399 50.487l-5.8-1.149c2.469-16.959 4.127-35.165 11.421-53.338C134.64 69.61 145.136 55 143.594 47.437c-.986-4.837-3.627-8.053-7.237-8.052-2.97 0-4.642 2.832-6.017 6.471z" fill="#c13c1b" />
      <path d="M133.948 47.573c-.787.71-.803.32-.973-.48-.17-.801.333-2.691 1.808-3.32 2.359-.861 3.515-.373 5.039 2.15 3.165 5.729-3.52 14.502-6.983 22.28-10.821 19.502-13.342 40.41-17.852 65.84l-4.355.224c3.486-22.369 7.92-44.581 13.35-55.575 5.02-9.635 13.667-26.56 13.325-29.098.022-.979.395-1.909-.792-3.053-1.135-1.153-1.78.321-2.567 1.032z" fill="#308d57" />
      <path d="M102.597 135.289c5.106-49.233 27.338-81.043 28.985-85.294.199-.513 2.681-1.476 1.843 1.217-2.592 8.32-20.421 31.437-26.73 83.54" fill="#c13c1b" />
   </g>
   <path d="M131.454 141.955c-4.936-10.557-21.591-6.664-28.72-6" fill="none" stroke="#fac53a" stroke-width="1.8612455500000002" stroke-linecap="round" stroke-linejoin="round" />
   <g fill="none" stroke="#fff" stroke-width="4.331" stroke-linecap="round" stroke-linejoin="round" stroke-opacity=".49">
      <path d="M146.039 39.556c-4.573-3.94-10.46-4.011-14.476-3.93M128.076 134.463c-4.172-6.627-14.04-8.834-23.844-7.945M127.835 126.841c-3.823-5.397-12.122-7.797-22.575-7.697M127.77 119.892c-4.667-4.642-10.59-6.72-21.167-6.798M128.64 112.8c-5.123-3.24-10.243-5.712-20.541-5.576M129.887 106.916c-4.408-3.831-10.291-6.296-19.772-5.923M131.532 100.879c-4.779-3.652-9.75-6.12-19.756-6.293M133.034 95.518c-4.527-3.862-9.426-6.508-19.339-6.728M134.672 90.094c-5.064-4.448-10.143-5.881-18.585-6.909M137.198 84.269c-4.564-4.012-9.277-6.142-18.853-7.223M139.972 77.893c-4.073-3.43-10.816-5.92-18.9-6.463M142.303 72.66c-2.167-2.597-9.988-6.38-18.236-6.705M144.057 67.864c-2.53-3.101-9.054-6.43-17.559-7.028M146.677 62.662c-4.35-4.396-9.546-5.902-17.36-6.839M148.453 53.663c-2.251-5.034-15.177-8.723-21.223-6.535M147.925 44.177c-4.624-4.087-12.709-7.03-20.703-4.325M147.811 57.316c-2.25-2.98-7.61-5.861-16.164-6.047M148.637 48.57c-2.9-4.422-16.855-8.08-22.057-5.066" stroke-width=".9305153500000002" />
   </g>
   <path d="M211.23 55.982c-.023.446-.01.296-.09 1.076-1.074 4.893.941 67.58 1.03 77.916-18.098 4.126-16.96 4.378-34.666 11.423-.307 4.278 6.188-47.336 7.959-64.99.208-12.05 3.844-27.683 6.166-32.488 4.108-8.503 11.26-12.474 18.376-12.563 7.116-.09 13.119 3.93 13.347 9.462.227 5.533-5.042 9.772-12.121 10.164z" fill="#04a" fill-rule="evenodd" />
   <path d="M210.428 56.263c7.079-.392 12.348-4.631 12.12-10.164-.227-5.531-6.23-9.552-13.345-9.462-7.118.089-14.268 4.06-18.377 12.563-2.322 4.805-5.957 20.437-6.166 32.488-.715 8.07-.588 29.306-7.067 64.299" fill="none" stroke="#fac53a" stroke-width="1.8612455500000002" stroke-linecap="round" stroke-linejoin="round" />
   <g fill-rule="evenodd">
      <path d="M217.245 52.05c1.826-2.018 2.183-6.086.28-8.022-2.787-2.837-6.842-3.16-11.792-1.929-5.098 1.269-8.881 5.198-11.625 12.46-3.488 9.233-7.034 58.928-10.85 90.017l6.527-2.62c1.675-29.375 4.616-77.645 7.708-86.837 1.79-5.319 5.462-9.209 10.738-10.296 2.594-.253 5.168.001 7.238 1.576 2.087 1.588.546 5.517.546 5.517.225.33.503.626 1.23.134z" fill="#c13c1b" />
      <path d="M213.255 52.112c.125-1.257-.348-1.987-.91-2.685-.782-.972-2.339-1.505-4.063-1.305-2.297.266-4.422 1.272-6.426 6.47-3.3 8.557-5.002 56.642-7.527 85.127l6.598-1.772c1.256-27.435.883-72.58 3.79-82.172.836-2.758 1.924-4.73 3.833-5.201 1.91-.473 2.96 1.074 3.636 1.862.225.331 1.017.127 1.07-.324z" fill="#308d57" />
      <path d="M206.101 136.792c.68-27.096.074-74.842 3.435-80.735.737-.413 1.63-.016 1.548.897-.55 24.042.724 51.707 1.564 78.093l-6.547 1.745z" fill="#c13c1b" />
   </g>
   <path d="M177.005 146.63c13.24-5.286 17.176-7.613 35.28-11.332" fill="none" stroke="#fac53a" stroke-width="1.8612455500000002" stroke-linecap="round" stroke-linejoin="round" />
   <g fill="none" stroke="#fff" stroke-width="4.331" stroke-linecap="round" stroke-linejoin="round" stroke-opacity=".49">
      <path d="M180.931 138.601c3.28-3.823 21.747-9.583 29.701-10.49M182.052 131.677c3.746-3.37 20.536-8.49 28.49-9.397M183.026 125.216c4.344-4.454 19.364-7.813 27.318-8.72M184.007 119.215c5.406-5.238 18.194-6.982 26.148-7.89M184.83 112.909c5.42-4.317 17.165-6.947 25.12-7.855M184.598 107.848c3.282-3.67 17.004-7.406 24.958-8.313M185.112 101.393c3.586-3.828 16.71-6.588 24.664-7.496M185.774 94.63c4.673-3.078 15.636-5.389 23.59-6.297M186.182 88.71c3.28-3.824 15.176-6.443 23.13-7.35M186.44 82.124c3.747-3.37 14.49-6.442 22.444-7.35M186.98 75.67c4.344-4.455 14.176-6.43 22.13-7.338M187.74 69.455c5.407-5.238 13.003-5.816 20.957-6.724M188.676 63.364c5.42-4.317 14.031-6.03 20.268-5.717M189.85 57.956c6.167-6.537 17.661-5.762 24.02-4.583M191.875 51.044c6.784-5.368 23.266-3.045 26.832.022M195.162 45.542c8.243-3.784 20.535-2.01 25.303 1.58M201.081 40.58c5.821-1.598 15.19-.239 17.945 2.156" stroke-width=".9305153500000002" />
   </g>
   <g stroke="#000" stroke-width="1.733">
      <path d="M135.332 156.098c-13.4-53.002 12.164-86.594 17.413-97.102 5.326-10.662 17.515-25.075 11.074-35.944 7.683-20.35 25.138-17.76 26.582 5.185-8.667 10.603-4.37 27.457-4.871 35.789-.487 8.08-4.342 81.788-12.834 88.4-11.437-4.768-26.1-4.754-37.364 3.672z" fill="#fff" fill-rule="evenodd" stroke-width=".37233505000000006" />
      <path d="M163.925 23.032c9.466.709 18.27 2.383 26.349 5.118" fill="none" stroke-width=".37233505000000006" />
   </g>
   <path d="M129.224 169.425c-3.184-3.394-3.588-1.122-1.651 1.126l1.651-1.126z" fill-opacity=".706" fill-rule="evenodd" stroke="#000" stroke-width=".395615" />
   <path d="M250.783 401.19l2.198.6M249.984 403.788l2.298.6M249.185 406.086l2.245.67M248.381 408.538l2.198.6M247.582 411.136l2.298.599M246.783 413.433l2.245.67M245.788 415.677l2.548.85M244.989 418.275l2.298.6M244.19 420.573l2.245.67M243.036 422.825l2.548.8M242.137 425.273l2.748.949M241.338 427.72l2.695.87M240.343 430.314l2.797.9M239.294 432.912l2.797.749M238.445 435.16l2.795.87M237.591 437.561l2.798.85M236.792 440.209l2.897.8M235.943 442.507l2.895.87M235.098 444.75l2.697.8M234.199 447.299l2.897.849M233.25 449.596l2.994.92M232.246 451.948l3.147.95M231.247 454.446l3.447 1.049M230.548 456.894l3.294.97M229.574 459.302l3.024.957M228.758 461.836l3.053 1.03M227.846 464.176l3.104 1.134M226.818 466.493l3.201 1.168M225.931 469.062l3.23 1.1M225.231 471.367l2.999 1.099M224.373 473.576l3.024 1.168M223.344 476.215l2.983 1.137M222.432 478.414l3.105 1.205M221.652 480.731l3.095 1.168M220.694 483.335l3.054 1.137M219.817 485.746l2.999 1.029M218.926 488.424l2.918.921M218.039 490.993l2.77.995M217.162 493.263l2.786 1.028M216.276 495.686l2.776.991M215.247 498.184l3.054 1.066M214.512 500.524l2.645.993M213.441 502.733l2.918 1.027M212.554 505.302l2.877 1.03M211.677 507.572l2.822 1.064M210.791 509.995l2.989 1.097M209.904 512.564l2.806 1.065M209.027 514.833l2.787 1.064M208.068 517.255l2.744 1.054M207.19 519.827l3.02 1.058M206.322 522.1l2.824 1.126M205.444 524.526l2.709 1.019M204.566 527.098l2.738 1.022M203.698 529.37l2.789 1.092M202.635 531.583l2.885 1.125M201.757 534.155l2.844.917M200.889 536.428l2.895 1.233M200.011 538.854l2.744 1.055M199.133 541.426l2.773 1.164M198.265 543.699l2.824 1.091M196.993 546.205l2.991 1.196M196.115 548.777l2.88 1.093M195.247 551.05l3 1.197M194.37 553.476l2.884 1.055M193.491 556.048l2.95 1.058M192.623 558.32l2.966 1.127M191.56 560.534l3.133 1.09M190.682 563.106l3.02.987M189.814 565.378l2.966 1.056M188.936 567.804l3.168 1.09M188.058 570.377l2.844.986M187.19 572.65l2.966 1.055M186.497 575.198l2.678.932M185.32 577.635l2.99 1.04M184.504 579.95l3.042 1.039M183.503 582.382l2.997 1.038M182.68 584.89l2.85 1.076M181.758 587.24l2.936 1.04M180.889 589.46l3.137 1.11M179.995 591.827l3.025 1.005M179.144 594.248l3.218 1.11M178.178 596.68l3.208 1.11M177.179 599.082l3.272 1.253M176.256 601.503l3.219 1.286M175.251 604.019l3.35 1.214M174.287 606.633l3.308 1.323M173.506 608.876l3.36 1.251M172.54 611.344l3.315 1.215M171.541 613.746l3.52 1.288M170.654 616.06l3.607 1.287M169.537 618.246l3.81 1.391M168.856 620.648l3.767 1.288M167.933 622.503l4.137 1.57M291.34 397.284l2.872-.618M292.14 399.414l2.476-.6M292.734 401.536l2.188-.636M293.126 404.133l2.555-.653M293.432 406.652l2.76-.707M294.002 409.014l2.863-.64M294.323 411.612l2.873-.688M294.947 413.989l2.759-.6M295.421 416.512l2.802-.649M295.79 419.069l3.193-.625M296.457 421.644l3.036-.735M296.927 424.447l3.174-.835M297.424 427.069l3.06-.821M297.908 429.465l3.086-.753M298.364 431.959l3.147-.772M298.993 434.634l3.277-.866M299.327 437.037l3.453-.804M299.813 439.534l3.213-.903M300.376 442l3.41-.789M300.766 444.738l3.282-.814M301.244 447.02l3.286-.727M301.872 449.601l3.135-.763M302.342 452.372l3.316-.893M302.84 454.828l3.078-.762M303.395 457.557l3.142-.715M303.768 459.888l3.24-.653M304.384 462.33l3.34-.675M304.862 465.02l3.33-.748M305.362 467.35l3.555-.768M305.818 469.648l3.578-.689M306.284 472.471l3.56-.729M306.689 474.929l3.665-.84M307.091 477.136l3.78-.69M307.67 479.786l3.691-.624M308.286 482.477l3.73-.724M308.817 485.05l3.641-.738M309.331 487.81l3.73-.703M309.874 490.38l3.762-.648M310.242 492.768l3.84-.639M310.74 495.33l3.69-.72M311.192 497.816l3.835-.675M311.68 500.435l3.731-.576M312.123 503.09l3.769-.694M312.524 505.448l3.916-.637M312.998 508.189l3.9-.765M313.547 510.42l3.621-.627M314.02 512.848l3.567-.653M314.43 515.38l3.562-.604M315.06 518.031l3.764-.745M315.505 520.67l3.633-.831M315.988 523.162l3.513-.827M316.334 525.744l3.787-.77M316.744 528.136l3.69-.702M317.205 530.613l3.543-.758M317.728 533.3l3.434-.88M318.068 535.728l3.572-.672M318.445 538.114l3.668-.604M319.003 540.872l3.432-.526M319.307 543.193l3.332-.58M319.778 545.853l3.423-.577M320.196 548.435l3.309-.642M320.5 550.473l3.185-.545M321.018 553l3.011-.606M321.4 555.653l3.28-.638M321.81 558.044l3.365-.587M322.306 560.486l3.24-.705M322.512 563.139l3.48-.735M323.098 565.53l3.328-.647M323.157 568.164l3.27-.724M323.751 570.816l2.94-.643M324.196 573.208l3.081-.648M324.441 575.743l3.266-.603M324.993 578.436l2.987-.673M325.152 581.296l3.172-.737M325.603 583.858l3.098-.538M325.999 586.462l2.99-.57M326.439 588.947l3.046-.646M326.856 591.295l3.255-.692M327.14 593.843l3.136-.575M327.382 596.551l2.967-.576M327.884 599.007l2.78-.431M328.2 601.7l2.87-.443M328.38 604.3l3.016-.421M328.71 606.954l3.096-.512M329.158 609.78l3.077-.468M329.553 612.229l3.088-.45M329.824 614.645l3.101-.354M330.034 617.125l3.387-.389M330.335 619.545l3.499-.396M330.93 621.844l3.09-.413M330.99 623.935l3.101-.354M331.2 626.415l3.387-.389M331.5 628.835l3.5-.397" fill="none" stroke="#000" stroke-width=".79123" />
   <g fill="none" stroke="#000" stroke-width=".6">
      <path d="M186.292 560.195l3.697 3.996M184.594 564.541l7.094-4.096M188.24 555.2l3.697 3.996M186.542 559.546l7.094-4.097M190.139 550.254l3.697 3.996M188.44 554.6l7.094-4.096M192.087 545.259l3.697 3.996M190.389 549.605l7.093-4.096M193.78 540.414l3.698 3.997M192.082 544.76l7.094-4.096M195.73 535.419l3.696 3.996M194.03 539.765l7.094-4.096M197.627 530.473l3.697 3.997M195.929 534.82l7.093-4.097M199.576 525.478l3.696 3.996M197.877 529.824l7.094-4.096M201.483 519.93l3.697 3.996M199.785 524.276l7.093-4.096M203.432 514.934l3.696 3.997M201.733 519.28l7.094-4.096M205.33 509.989l3.696 3.996M203.631 514.335l7.094-4.096M207.278 504.993l3.697 3.997M205.58 509.34l7.093-4.097M208.972 500.149l3.696 3.996M207.273 504.495l7.094-4.096M210.638 494.942l3.979 4.208M209.222 499.5l7.093-4.097M212.818 489.855l3.697 4.35M210.908 494.554l7.305-4.096M214.272 484.86l4.191 4.349M212.927 489.63l7.235-4.168M216.176 479.87l3.767 4.138M214.76 483.863l6.81-3.672M217.983 475.087l3.838 3.996M216.496 479.01l6.952-4.097M219.528 469.718l4.12 4.49M218.324 474.064l6.599-3.531M221.476 464.722l3.979 4.35M220.06 469.775l7.164-5.297M223.17 459.878l4.12 4.35M221.895 464.506l7.023-4.873M225.118 454.882l4.05 4.35M223.42 459.228l7.446-4.378M227.016 449.937l4.05 4.49M225.318 454.283l7.493-4.546M228.964 444.942l3.897 4.246M227.266 449.288l7.393-4.147M230.872 439.393l3.996 4.646M229.174 443.74l7.443-4.297M232.62 434.248l4.097 4.446M231.122 438.744l7.293-3.796M234.519 429.103l4.196 4.646M232.77 433.948l7.593-4.745M236.367 424.157l4.046 4.646M234.569 428.853l7.493-4.496M238.078 418.624l4.179 5.385M236.263 424.208l7.642-4.895M239.602 414.123l4.453 4.84M238.328 418.751l7.376-4.45M241.571 409.036l4.333 5.056M239.66 414.018l7.942-4.097M242.954 404.747l4.898 3.926M241.61 408.81l7.94-3.884M164.998 615.531l3.767 4.42M163.088 619.807l7.376-3.602M167.038 610.586l3.626 4.42M165.269 615.356l7.093-4.097M168.915 606.014l3.697 3.997M166.864 610.572l7.446-4.308M170.823 600.466l3.697 3.997M169.125 604.812l7.093-4.096M172.771 595.47l3.697 3.997M171.073 599.817l7.093-4.096M174.67 590.525l3.696 3.997M172.971 594.871l7.094-4.096M176.618 585.53l3.696 3.996M174.92 589.876l7.093-4.096M178.312 580.685l4.05 3.997M176.613 585.031l7.094-4.096M180.26 575.69l3.979 3.996M178.561 580.036l7.094-4.096M182.158 570.744l3.909 4.28M180.46 575.09l7.093-4.096M184.106 565.749l3.697 3.996M182.408 570.095l7.093-4.096M244.367 399.802l5.392 4.208M242.74 404.43l8.718-4.167" stroke-width=".474738" />
   </g>
   <g fill="none" stroke="#000" stroke-width=".6">
      <path d="M186.292 560.195l3.697 3.996M184.594 564.541l7.094-4.096M188.24 555.2l3.697 3.996M186.542 559.546l7.094-4.097M190.139 550.254l3.697 3.996M188.44 554.6l7.094-4.096M192.087 545.259l3.697 3.996M190.389 549.605l7.093-4.096M193.78 540.414l3.698 3.997M192.082 544.76l7.094-4.096M195.73 535.419l3.696 3.996M194.03 539.765l7.094-4.096M197.627 530.473l3.697 3.997M195.929 534.82l7.093-4.097M199.576 525.478l3.696 3.996M197.877 529.824l7.094-4.096M201.483 519.93l3.697 3.996M199.785 524.276l7.093-4.096M203.432 514.934l3.696 3.997M201.733 519.28l7.094-4.096M205.33 509.989l3.696 3.996M203.631 514.335l7.094-4.096M207.278 504.993l3.697 3.997M205.58 509.34l7.093-4.097M208.972 500.149l3.696 3.996M207.273 504.495l7.094-4.096M210.638 494.942l3.979 4.208M209.222 499.5l7.093-4.097M212.818 489.855l3.697 4.35M210.908 494.554l7.305-4.096M214.272 484.86l4.191 4.349M212.927 489.63l7.235-4.168M216.176 479.87l3.767 4.138M214.76 483.863l6.81-3.672M217.983 475.087l3.838 3.996M216.496 479.01l6.952-4.097M219.528 469.718l4.12 4.49M218.324 474.064l6.599-3.531M221.476 464.722l3.979 4.35M220.06 469.775l7.164-5.297M223.17 459.878l4.12 4.35M221.895 464.506l7.023-4.873M225.118 454.882l4.05 4.35M223.42 459.228l7.446-4.378M227.016 449.937l4.05 4.49M225.318 454.283l7.493-4.546M228.964 444.942l3.897 4.246M227.266 449.288l7.393-4.147M230.872 439.393l3.996 4.646M229.174 443.74l7.443-4.297M232.62 434.248l4.097 4.446M231.122 438.744l7.293-3.796M234.519 429.103l4.196 4.646M232.77 433.948l7.593-4.745M236.367 424.157l4.046 4.646M234.569 428.853l7.493-4.496M238.078 418.624l4.179 5.385M236.263 424.208l7.642-4.895M239.602 414.123l4.453 4.84M238.328 418.751l7.376-4.45M241.571 409.036l4.333 5.056M239.66 414.018l7.942-4.097M242.954 404.747l4.898 3.926M241.61 408.81l7.94-3.884M164.998 615.531l3.767 4.42M163.088 619.807l7.376-3.602M167.038 610.586l3.626 4.42M165.269 615.356l7.093-4.097M168.915 606.014l3.697 3.997M166.864 610.572l7.446-4.308M170.823 600.466l3.697 3.997M169.125 604.812l7.093-4.096M172.771 595.47l3.697 3.997M171.073 599.817l7.093-4.096M174.67 590.525l3.696 3.997M172.971 594.871l7.094-4.096M176.618 585.53l3.696 3.996M174.92 589.876l7.093-4.096M178.312 580.685l4.05 3.997M176.613 585.031l7.094-4.096M180.26 575.69l3.979 3.996M178.561 580.036l7.094-4.096M182.158 570.744l3.909 4.28M180.46 575.09l7.093-4.096M184.106 565.749l3.697 3.996M182.408 570.095l7.093-4.096M244.367 399.802l5.392 4.208M242.74 404.43l8.718-4.167" stroke-width=".474738" />
   </g>
   <path d="M316.4 567.7l6.769 2.146M317.091 572.64l5.412-7.151M315.63 562.618l6.67 1.597M316.272 567.358l5.462-7.25M315.04 557.054l6.37 1.897M315.682 562.244l5.161-7.7M314.289 551.69l6.127 1.419M314.824 556.89l5.315-7.567M313.492 546.566l6.477 1.519M314.227 551.615l4.916-7.866M312.636 541.181l6.227 1.669M313.321 546.23l4.866-7.766M311.613 536.115l6.327 1.469M312.248 541.014l5.116-7.666M310.807 530.78l6.277 1.519M311.492 535.58l4.916-7.467M309.781 525.043l6.327 1.518M310.616 529.942l4.816-7.816M308.875 519.758l6.177 1.519M309.41 524.508l4.966-7.317M307.952 514.542l6.227 1.418M308.787 519.291l4.616-7.317M307.146 509.157l5.927 1.619M307.831 514.206l4.516-7.916M306 504.033l6.226 1.768M306.835 509.182l4.665-7.816M305.142 498.912l6.128 1.604M305.879 503.747l4.665-7.766M304.138 493.579l6.16 1.671M305.174 498.44l4.447-7.425M303.058 488.4l6.283 1.565M303.965 493.38l4.45-7.5M302.117 483.143l6.16 1.603M302.963 487.294l4.642-6.508M301.2 478.113l6.197 1.246M301.948 482.24l4.444-6.894M299.755 472.716l6.495 1.523M300.964 477.06l4.483-6.577M299.199 467.28l5.901 1.527M300.24 472.49l4.208-8.033M297.803 462.406l6.472 1.603M299.097 467.03l4.404-7.497M296.897 457.122l6.212 1.639M297.682 461.721l4.723-7.64M295.974 451.905l6.334 1.66M296.759 456.505l4.726-7.458M295.067 446.62l6.178 1.63M295.853 451.22l4.647-7.514M293.842 440.883l6.319 1.77M294.627 445.483l4.713-7.768M292.687 435.573l6.502 1.698M293.721 440.198l4.592-7.013M291.661 430.186l6.44 1.817M292.661 435.239l4.51-7.531M290.695 424.995l6.312 1.895M291.575 429.946l4.602-7.466M289.308 419.371l6.707 2.06M290.632 425.093l4.575-7.686M288.294 414.729l6.81 1.802M289.588 419.352l4.476-7.865M287.359 409.355l6.618 2.099M288.29 414.609l5.042-7.604M286.332 404.967l6.72.939M287.275 409.142l4.802-7.422M322.212 625.978l8.936 3.547M323.662 631.844l6.66-10.031M321.996 620.899l8.75 3.354M322.421 627.646l7.46-10.798M321.66 616.026l8.417 2.846M322.035 622.216l7.077-10.75M321.15 610.422l8.367 2.796M321.641 615.762l6.81-10.249M320.93 605.24l8.018 2.896M321.222 610.18l6.41-10.048M320.339 599.976l7.818 2.946M320.581 605.016l6.211-10.398M319.77 594.645l7.568 2.746M320.062 599.584l6.21-10.098M319.044 589.564l7.532 2.184M319.536 594.204l6.01-9.299M318.474 584.233l7.22 2.016M318.967 588.873l5.81-8.85M317.884 578.968l7.137 2.5M318.376 583.608l5.711-7.95M317.314 573.637l6.82 2.046M317.806 578.277l5.562-7.9M284.994 400.001l6.79.826M285.985 404.807l5.322-8.066" fill="none" stroke="#000" stroke-width=".474738" />
   <path d="M282.425 368.41c-.073-7.185 6.702-24.048 13.847-28.681M295 370.671c.18-7.28 6.556-23.885 12.575-28.4M307.434 372.226c-.434-7.599 7.193-22.58 11.02-26.28M318.737 373.215c-.6-6.583 4.978-20.916 9.75-24.726M329.758 374.345c.425-7.153.906-16.608 7.913-23.03M339.225 374.91c-.574-5.632 4.041-17.672 8.336-20.77M350.81 375.475c-1.577-4.651 3.001-16.667 5.794-18.65M360.136 375.617c-1.43-3.97.873-14.017 3.532-16.249M371.298 361.205c-3.902 4.427-3.594 9.42-3.815 13.846" fill="none" stroke="#000" stroke-width="1.58246" stroke-linecap="round" stroke-linejoin="round" stroke-opacity=".706" />
   <path d="M254.82 307.852l8.259-3.004 5.111 3.437c-1.465 2.252-11.124.39-13.37-.433zM228.445 316.344l8.008-2.504 5.162 2.837c-1.466 2.253-10.925.49-13.17-.333zM236.687 313.847l9.457-3.104 5.362 3.336c-1.466 2.253-12.573.59-14.819-.232zM314.008 329.866l6.817-2.332 7.418 5.335c-2.243 2.182-11.99-2.181-14.235-3.003z" fill-rule="evenodd" />
   <path d="M246.029 310.9l8.757-3.105 5.512 3.287c-1.466 2.253-12.024.64-14.27-.183zM344.36 315.789l4.016-2.615 8.689 6.96c-1.466 2.253-10.884-2.676-12.705-4.345zM278.5 298.261l6.708-3.554 5.262 3.887c-1.466 2.252-7.628 1.088-11.97-.333zM294.655 336.69l7.124-2.19 5.722 3.569c-1.465 2.252-10.6-.557-12.846-1.379zM321.096 327.43l6.776-2.906 7.63 5.76c-1.466 2.252-12.16-2.032-14.406-2.854z" fill-rule="evenodd" />
   <path d="M327.87 324.524l6.772-3.18 8.406 5.76c-1.465 2.252-12.932-1.758-15.177-2.58zM335.17 321.32l4.37-2.615 7.982 6.113c-1.466 2.253-10.107-2.676-12.352-3.498z" fill-rule="evenodd" />
   <path d="M339.43 319.229l4.652-3.25 8.477 6.324c-1.466 2.253-10.884-2.252-13.129-3.074zM302.05 334.322l5.496-1.908 6.499 4.417c-1.466 2.253-9.75-1.687-11.995-2.509z" fill-rule="evenodd" />
   <path d="M307.537 332.515l6.688-2.586 6.853 4.842c-1.466 2.252-11.296-1.434-13.541-2.256zM270.906 301.608l7.159-3.304 5.511 3.786c-1.465 2.253-10.425.34-12.67-.482z" fill-rule="evenodd" />
   <path d="M263.213 304.855l8.208-3.404 4.962 3.537c-1.466 2.252-10.925.689-13.17-.133zM296.533 287.47l4.161-3.353 4.662 3.287c-1.465 2.252-6.778 1.189-8.823.067zM285.693 294.714l5.96-3.753 5.011 3.636c-1.465 2.253-8.726.94-10.971.117zM300.929 284.074l3.112-5.252 5.512 3.986c-1.466 2.253-6.629 2.588-8.624 1.266zM291.887 290.868l4.711-3.154 5.012 3.586c-1.466 2.253-7.478.39-9.723-.432z" fill-rule="evenodd" />
   <path d="M251.615 265.43l-1.13 1.695M248.847 263.843l-1.13 1.696M246.29 262.103l-1.13 1.696M259.267 270.654l-1.13 1.695M256.952 268.714l-1.13 1.696M254.383 267.128l-1.13 1.695M267.318 275.878l-1.13 1.696M264.691 274.15l-1.13 1.696M262.064 272.34l-1.13 1.696M275.252 280.891l-1.13 1.696M272.725 279.375l-1.13 1.696M270.086 277.648l-1.13 1.695M282.974 286.098l-1.13 1.696M280.277 284.23l-1.13 1.695M277.65 282.63l-1.13 1.696M288.31 289.736l-1.13 1.696M285.53 287.797l-1.13 1.695" fill="none" stroke="#000" stroke-linecap="round" stroke-linejoin="round" stroke-width=".79123" />
   <g fill="none" stroke="#000" stroke-linecap="round" stroke-linejoin="round">
      <path d="M260.94 249.958l-1.13 1.696M258.243 248.16l-1.13 1.695M255.545 246.561l-1.13 1.696M269.087 255.041l-1.13 1.696M266.136 253.455l-1.13 1.695M263.638 251.656l-1.13 1.696M277.138 260.266l-1.13 1.695M274.582 258.609l-1.13 1.695M271.813 256.798l-1.13 1.696M285.001 265.56l-1.13 1.696M282.404 263.833l-1.13 1.696M279.765 262.105l-1.13 1.696M292.512 270.839l-1.13 1.695M289.814 269.04l-1.13 1.696M287.4 267.442l-1.131 1.695M297.707 274.336l-1.13 1.695M295.21 272.537l-1.131 1.696" stroke-width=".79123" />
   </g>
   <g fill="none" stroke="#000" stroke-linecap="round" stroke-linejoin="round">
      <path d="M257.54 255.327l-1.15 1.681M254.865 253.495l-1.151 1.682M252.187 251.864l-1.15 1.682M265.268 260.716l-1.15 1.682M262.693 258.886l-1.151 1.682M260.217 257.058l-1.15 1.681M273.396 266.11l-1.151 1.682M270.72 264.28l-1.15 1.681M268.042 262.648l-1.15 1.682M281.123 271.5l-1.15 1.682M278.548 269.67l-1.151 1.682M276.072 267.842l-1.15 1.681M288.855 276.59l-1.151 1.682M286.18 274.76l-1.152 1.68M283.502 273.128l-1.151 1.682M294.007 280.15l-1.15 1.682M291.531 278.321l-1.15 1.682" stroke-width=".79123" />
   </g>
   <g fill="none" stroke="#000" stroke-linecap="round" stroke-linejoin="round">
      <path d="M254.524 260.67l-1.131 1.694M251.828 258.87l-1.132 1.694M249.131 257.269L248 258.964M262.314 265.97l-1.132 1.694M259.717 264.17l-1.131 1.694M257.22 262.37l-1.13 1.694M270.503 271.27l-1.132 1.695M267.806 269.47l-1.131 1.695M265.11 267.87l-1.132 1.694M278.292 276.57l-1.131 1.695M275.696 274.77l-1.132 1.695M273.199 272.97l-1.131 1.695M286.082 281.57l-1.132 1.695M283.385 279.77l-1.131 1.695M280.689 278.17l-1.132 1.695M291.275 285.07l-1.132 1.695M288.778 283.27l-1.131 1.695" stroke-width=".79123" />
   </g>
   <g fill="none" stroke="#000" stroke-linecap="round" stroke-linejoin="round">
      <path d="M247.126 269.962l-1.15 1.682M244.45 268.131l-1.15 1.682M241.773 266.5l-1.151 1.682M254.854 275.352l-1.151 1.682M252.278 273.522l-1.15 1.682M249.803 271.694l-1.151 1.681M262.981 280.746l-1.15 1.682M260.306 278.915l-1.151 1.682M257.628 277.284l-1.15 1.682M270.71 286.136l-1.152 1.682M268.134 284.306l-1.151 1.682M265.658 282.478l-1.15 1.681M278.44 291.226l-1.15 1.682M275.765 289.395l-1.15 1.682M273.087 287.764l-1.15 1.681M283.593 294.786l-1.151 1.681M281.117 292.957l-1.15 1.682" stroke-width=".79123" />
   </g>
   <g fill="none" stroke="#000" stroke-linecap="round" stroke-linejoin="round">
      <path d="M243.842 276.196l-1.15 1.682M241.167 274.365l-1.151 1.682M238.489 272.734l-1.151 1.682M251.57 281.586l-1.151 1.682M248.994 279.756l-1.15 1.682M246.519 277.927l-1.151 1.682M259.697 286.98l-1.15 1.682M257.022 285.15l-1.151 1.681M254.344 283.518l-1.15 1.682M267.425 292.37l-1.15 1.682M264.85 290.54l-1.151 1.682M262.374 288.712l-1.15 1.681M275.157 297.46l-1.151 1.682M272.481 295.629l-1.15 1.682M269.803 293.998l-1.15 1.681" stroke-width=".79123" />
   </g>
   <g fill="none" stroke="#000" stroke-linecap="round" stroke-linejoin="round">
      <path d="M240.145 280.892l-1.15 1.682M237.47 279.061l-1.15 1.682M234.792 277.43l-1.15 1.681M247.873 286.282l-1.15 1.681M245.298 284.452l-1.151 1.681M242.822 282.623l-1.15 1.682M256 291.676l-1.15 1.682M253.325 289.845l-1.15 1.682M250.647 288.214l-1.15 1.681M263.729 297.066l-1.151 1.681M261.153 295.236l-1.15 1.682M258.677 293.407l-1.15 1.682M268.785 300.325l-1.151 1.681M266.107 298.693l-1.151 1.682" stroke-width=".79123" />
   </g>
   <g fill="none" stroke="#000" stroke-linecap="round" stroke-linejoin="round">
      <path d="M234.334 287.11l-1.103 1.713M231.609 285.354l-1.104 1.713M228.886 283.799l-1.103 1.713M242.21 292.281l-1.104 1.714M239.584 290.524l-1.103 1.713M237.058 288.766l-1.103 1.713M250.485 297.447l-1.104 1.713M247.76 295.691l-1.104 1.713M245.037 294.135l-1.104 1.713M258.36 302.618l-1.103 1.713M255.735 300.861l-1.104 1.713M253.209 299.102l-1.104 1.714M260.783 304.179l-1.104 1.713" stroke-width=".79123" />
   </g>
   <g fill="none" stroke="#000" stroke-linecap="round" stroke-linejoin="round">
      <path d="M229.24 292.405l-1.104 1.713M226.514 290.65l-1.104 1.713M223.791 289.094l-1.103 1.713M237.114 297.577l-1.103 1.713M234.489 295.82l-1.104 1.713M231.963 294.06l-1.103 1.714M245.39 302.742l-1.104 1.713M242.664 300.986l-1.104 1.713M239.942 299.43l-1.104 1.714M250.64 306.156l-1.104 1.713M248.113 304.398l-1.103 1.713" stroke-width=".79123" />
   </g>
   <g fill="none" stroke="#000" stroke-linecap="round" stroke-linejoin="round">
      <path d="M224.601 299.06l-1.024 1.762M221.799 297.43l-1.025 1.762M219.008 296l-1.024 1.762M232.704 303.868l-1.024 1.762M230.001 302.232l-1.024 1.762M227.398 300.59l-1.025 1.762M241.205 308.651l-1.024 1.762M238.403 307.022l-1.025 1.761M235.612 305.591l-1.024 1.762M244.002 310.181l-1.024 1.762" stroke-width=".79123" />
   </g>
   <g fill="none" stroke="#000" stroke-linecap="round" stroke-linejoin="round">
      <path d="M219.23 305.919l-.929 1.814M216.343 304.442l-.928 1.814M213.48 303.164l-.928 1.814M227.579 310.283l-.928 1.815M224.792 308.795l-.928 1.815M222.104 307.296l-.928 1.814M233.44 313.126l-.929 1.814M230.576 311.848l-.928 1.814" stroke-width=".79123" />
   </g>
   <g fill="none" stroke="#000" stroke-linecap="round" stroke-linejoin="round">
      <path d="M311.546 284.56l-1.268 1.594M309.01 282.54l-1.27 1.595M306.456 280.721l-1.269 1.595M318.867 290.49l-1.27 1.595M316.43 288.48l-1.27 1.595M314.092 286.479l-1.27 1.594M326.585 296.456l-1.269 1.594M324.048 294.437l-1.269 1.595M321.494 292.618l-1.268 1.594M333.905 302.387l-1.269 1.595M331.468 300.377l-1.269 1.595M329.13 298.375l-1.269 1.595M341.25 308.02l-1.268 1.595M338.714 306.002l-1.27 1.594M336.16 304.182l-1.269 1.594M346.133 311.941l-1.269 1.595M343.796 309.94l-1.27 1.594" stroke-width=".79123" />
   </g>
   <g fill="none" stroke="#000" stroke-linecap="round" stroke-linejoin="round">
      <path d="M308.012 290.029l-1.218 1.634M305.412 288.092l-1.218 1.634M302.801 286.355l-1.217 1.634M315.517 295.724l-1.217 1.634M313.017 293.792l-1.217 1.635M310.617 291.866l-1.218 1.634M323.422 301.44l-1.218 1.634M320.822 299.503l-1.217 1.634M318.212 297.766l-1.218 1.634M330.927 307.135l-1.217 1.634M328.427 305.203l-1.217 1.634M326.027 303.277l-1.217 1.634M338.449 312.53l-1.218 1.635M335.849 310.594l-1.218 1.634M333.238 308.857l-1.217 1.634M343.454 316.294l-1.217 1.634M341.054 314.368l-1.218 1.634" stroke-width=".79123" />
   </g>
   <g fill="none" stroke="#000" stroke-linecap="round" stroke-linejoin="round">
      <path d="M305.806 294.733l-1.218 1.634M303.206 292.796l-1.218 1.633M300.597 291.057l-1.218 1.634M313.31 300.43l-1.218 1.634M310.81 298.498l-1.218 1.634M308.41 296.571l-1.218 1.634M321.212 306.149l-1.218 1.634M318.613 304.211l-1.218 1.634M316.003 302.473l-1.218 1.634M328.716 311.846l-1.218 1.634M326.217 309.914l-1.218 1.634M323.817 307.987l-1.218 1.633M336.236 317.244l-1.218 1.634M333.636 315.307l-1.217 1.633M331.027 313.569l-1.218 1.633M341.24 321.01l-1.218 1.633M338.84 319.082l-1.218 1.634" stroke-width=".79123" />
   </g>
   <g fill="none" stroke="#000" stroke-linecap="round" stroke-linejoin="round">
      <path d="M296.83 303.273l-1.18 1.662M294.187 301.396l-1.18 1.662M291.537 299.72l-1.18 1.66M304.464 308.795l-1.18 1.662M301.92 306.921l-1.18 1.662M299.477 305.05l-1.18 1.662M312.497 314.329l-1.18 1.661M309.854 312.452l-1.18 1.661M307.204 310.775l-1.18 1.661M320.131 319.85l-1.18 1.662M317.587 317.977l-1.18 1.661M315.144 316.106l-1.18 1.661M327.774 325.073l-1.18 1.662M325.13 323.196l-1.18 1.662M322.48 321.52l-1.179 1.66M332.864 328.721l-1.18 1.662M330.42 326.85l-1.18 1.662" stroke-width=".79123" />
   </g>
   <g fill="none" stroke="#000" stroke-linecap="round" stroke-linejoin="round">
      <path d="M290.953 307.251l-1.17 1.668M288.3 305.388l-1.17 1.668M285.642 303.725l-1.171 1.667M298.616 312.733l-1.171 1.668M296.062 310.872l-1.17 1.668M293.609 309.014l-1.171 1.668M306.678 318.225l-1.171 1.667M304.025 316.362l-1.171 1.667M301.367 314.698l-1.171 1.668M314.34 323.707l-1.17 1.667M311.787 321.846l-1.17 1.668M309.334 319.988l-1.171 1.668M322.01 328.89l-1.17 1.667M319.357 327.026l-1.171 1.668M316.699 325.363l-1.171 1.668" stroke-width=".79123" />
   </g>
   <g fill="none" stroke="#000" stroke-linecap="round" stroke-linejoin="round">
      <path d="M283.558 309.786l-1.161 1.675M280.895 307.938l-1.162 1.675M278.227 306.29l-1.161 1.674M291.252 315.225l-1.162 1.674M288.688 313.379l-1.162 1.674M286.224 311.534l-1.162 1.675M299.345 320.67l-1.162 1.675M296.681 318.823l-1.161 1.674M294.014 317.175l-1.162 1.674M307.038 326.11l-1.161 1.674M304.474 324.263l-1.161 1.675M302.01 322.42l-1.161 1.673M312.073 329.4l-1.161 1.675M309.406 327.752l-1.162 1.674" stroke-width=".79123" />
   </g>
   <g fill="none" stroke="#000" stroke-linecap="round" stroke-linejoin="round">
      <path d="M275.506 312.957l-1.1 1.715M272.778 311.205l-1.1 1.715M270.054 309.653l-1.101 1.715M283.389 318.118l-1.101 1.714M280.76 316.364l-1.1 1.715M278.232 314.609l-1.1 1.714M291.671 323.271l-1.101 1.715M288.943 321.52l-1.101 1.714M286.218 319.967l-1.1 1.715M299.554 328.432l-1.101 1.714M296.926 326.678l-1.102 1.715M294.397 324.923l-1.1 1.715M301.979 329.989l-1.102 1.715" stroke-width=".79123" />
   </g>
   <g fill="none" stroke="#000" stroke-linecap="round" stroke-linejoin="round">
      <path d="M267.429 315.325l-1.044 1.75M264.645 313.665l-1.044 1.75M261.87 312.203l-1.044 1.75M275.478 320.223l-1.044 1.75M272.793 318.557l-1.044 1.75M270.208 316.886l-1.043 1.75M283.926 325.1l-1.044 1.75M281.141 323.44l-1.043 1.75M278.367 321.978l-1.044 1.75M289.29 328.331l-1.044 1.75M286.705 326.66l-1.044 1.75" stroke-width=".79123" />
   </g>
   <g fill="none" stroke="#000" stroke-linecap="round" stroke-linejoin="round">
      <path d="M259.178 318.363l-.974 1.79M256.33 316.814l-.974 1.79M253.5 315.464l-.974 1.79M267.414 322.937l-.973 1.79M264.666 321.38l-.974 1.79M262.017 319.813l-.974 1.79M276.05 327.475l-.974 1.79M273.201 325.926l-.973 1.79M270.371 324.577l-.974 1.79M278.888 328.925l-.973 1.79" stroke-width=".79123" />
   </g>
   <path d="M282.016 330.6l-.577 1.43M292.767 330.056l-1.077 1.73M304.402 331.336l-1.077 1.73M298.368 333.381l-1.078 1.73M295.622 331.867l-1.077 1.73" fill="none" stroke="#000" stroke-linecap="round" stroke-linejoin="round" stroke-width=".79123" />
   <g fill="none" stroke="#000" stroke-linecap="round" stroke-linejoin="round">
      <path d="M304.12 300.015l-1.184 1.659M301.48 298.132l-1.183 1.658M298.835 296.448l-1.183 1.659M311.74 305.556l-1.184 1.659M309.2 303.676l-1.183 1.658M306.761 301.799l-1.183 1.658M317.12 309.226l-1.184 1.659M314.475 307.543l-1.184 1.658" stroke-width=".79123" />
   </g>
   <g fill="none" stroke="#000" stroke-linecap="round" stroke-linejoin="round">
      <path d="M324.9 314.902l-1.183 1.658M322.261 313.018l-1.183 1.659M319.616 311.334l-1.184 1.66M332.52 320.442l-1.183 1.66M329.981 318.562l-1.183 1.659M327.542 316.685l-1.183 1.659" stroke-width=".79123" />
   </g>
   <path d="M296.468 281.577l-1.13 1.696M298.927 283.452l-1.13 1.696M293.757 286.728l-1.13 1.696M302.37 278.01l-1.13 1.695M299.872 276.21l-1.13 1.696" fill="none" stroke="#000" stroke-linecap="round" stroke-linejoin="round" stroke-width=".79123" />
   <path d="M394.052 368.52c5.312-2.2 10.823-4.928 15.377-7.727M403.044 371.218a86.986 86.986 0 0011.37-5.579M410.237 373.516c1.855-.642 3.944-1.5 6.05-2.483M117.017 639.316c.183-1.514.697-2.839 2.19-3.603 15.568.252 32.067.754 40.198-.99 3.856-3.286 6.48-7.239 8.265-11.656M279.538 643.555c.183-1.514.697-2.839 2.19-3.603 15.568.252 32.067.754 40.198-.99 3.856-3.286 7.858-5.084 9.643-9.501" fill="none" stroke="#000" stroke-width=".79123" />
   <path d="M120.473 632.92l3.649 6.184M159.675 625.757l8.325-3.602M124.361 632.821l4.305 6.516M128.337 632.895l4.475 6.189M164.55 628.96l7.547-2.509M132.692 632.892l4.609 6.321M136.888 632.537l5.04 6.399M140.935 631.693l6.663 7.74M147.379 632.542l5.408 6.397M152.77 632.394l5.244 6.915M156.67 629.845l7.441 8.164M159.168 626.598l7.787 7.487M162.38 621.788l3.132 5.41M117.376 633.62l3.649 6.184M283.507 637.183l3.648 6.183M287.289 636.941l4.305 6.516M291.405 636.98l4.476 6.189M330.02 631.81l4.827-1.662M295.761 637.048l4.609 6.321M299.263 636.175l5.538 6.998M303.544 635.884l6.664 7.74M310.13 636.239l5.607 7.096M315.82 636.49l5.344 6.915M319.021 633.342l7.841 8.364M321.719 629.695l7.987 8.087M280.127 637.317l3.649 6.183" fill="none" stroke="#000" stroke-width=".474738" />
</svg>