<svg width="600" height="151" xmlns="http://www.w3.org/2000/svg">
    <path d="M263.02 150.28c-23.02-1.02-50.29-3.17-67.39-5.34-75.08-9.5-145.8-30.61-182.81-54.59-17.79-11.53-17.23-23.66 1.53-33.14C56.4 35.95 144.07 14.97 230.82 5.42c64.03-7.06 79.96-6.99 144.33.62 86.12 10.2 169.6 30.49 210.5 51.17 18.76 9.48 19.32 21.61 1.53 33.14-43.55 28.23-132.03 51.73-219.19 58.24-17.28 1.3-88.17 2.43-104.97 1.69m102-10.1c67.35-5.21 140.6-22.03 187.48-43.05 14.61-6.54 30.66-15.85 34.58-20.05 2.32-2.47 2.38-2.91.71-5.46-3.27-5.02-26.86-15.45-53.63-23.72-59.92-18.51-115.57-28.89-198.83-37.11-30.39-3-40.27-3-70.66 0-83.26 8.22-138.91 18.6-198.83 37.11-26.77 8.27-50.36 18.7-53.63 23.72-1.67 2.55-1.61 2.99.71 5.46 7.49 8.01 36.62 22.17 66.76 32.45 53.61 18.29 118.82 29.62 186.32 32.36 17.42.72 82.16-.41 99.02-1.71" />
    <path d="M261.23 120.3c-58.8-5.12-93.87-11.75-141.95-26.85-25.81-8.1-32.2-11.85-32.2-18.91 0-5.09 4.45-8.34 16.66-12.15 47.07-14.69 85.98-22.33 137.21-26.93 45.8-4.11 58.1-4.61 78.61-3.17 80.03 5.62 120.19 12.46 176.7 30.1 12.21 3.81 16.66 7.06 16.66 12.15 0 7.06-6.39 10.81-32.2 18.91-39.77 12.49-75.95 20.14-116.9 24.69-16.37 1.82-88.88 3.34-102.59 2.16m103.11-11.18c38.39-4.62 69.99-11.37 106.8-22.83 22.53-7.01 30.77-10.37 29.17-11.89-3.24-3.06-56.97-17.42-83.41-22.28-34.75-6.39-87.13-11.58-116.9-11.58-29.77 0-82.15 5.19-116.9 11.58-26.44 4.86-80.17 19.22-83.41 22.28-1.6 1.52 6.64 4.88 29.17 11.89 37.71 11.74 69.96 18.56 107.48 22.72 31.11 3.44 30.13 3.39 70.22 3.02 28.02-.27 41.3-.94 57.78-2.91" />
    <path fill="#cf0f0f" d="M266 141.89c-67.5-2.74-132.71-14.07-186.32-32.36-30.14-10.28-59.27-24.44-66.76-32.45-2.32-2.47-2.38-2.91-.71-5.46 3.27-5.02 26.86-15.45 53.63-23.72 61.07-18.86 120.02-29.71 204.86-37.67 25.65-2.4 35.42-2.32 64.63.56 83.26 8.22 138.91 18.6 198.83 37.11 26.77 8.27 50.36 18.7 53.63 23.72 1.67 2.55 1.61 2.99-.71 5.46-3.92 4.2-19.97 13.51-34.58 20.05-46.88 21.02-120.13 37.84-187.48 43.05-16.86 1.3-81.6 2.43-99.02 1.71m97.82-23.75c40.95-4.55 77.13-12.2 116.9-24.69 25.81-8.1 32.2-11.85 32.2-18.91 0-5.09-4.45-8.34-16.66-12.15-56.51-17.64-96.67-24.48-176.7-30.1-20.51-1.44-32.81-.94-78.61 3.17-51.23 4.6-90.14 12.24-137.21 26.93-12.21 3.81-16.66 7.06-16.66 12.15 0 7.06 6.39 10.81 32.2 18.91 48.08 15.1 83.15 21.73 141.95 26.85 13.71 1.18 86.22-.34 102.59-2.16" />
    <path fill="#e56b6b" d="M264.21 111.9c-48.9-3.86-91.2-11.86-135.35-25.61-22.53-7.01-30.77-10.37-29.17-11.89 3.24-3.06 56.97-17.42 83.41-22.28 34.71-6.39 86.84-11.54 116.9-11.57 29.71-.02 82.08 5.17 116.9 11.57 26.44 4.86 80.17 19.22 83.41 22.28 3.62 3.42-58.65 21.89-98.39 29.18-32.57 5.97-56.32 8.08-95.36 8.45-20.02.19-39.06.13-42.35-.13" />
</svg>