<svg xmlns="http://www.w3.org/2000/svg" width="567.25" height="566.625" version="1.0">
  <circle cx="283.312" cy="283.375" r="139" fill="#fff" />
  <path d="M282.625.063c-4.782 46.118-6.99 94.254-12.875 139.343-3.451-53.032-26.442-47.306-21.906-63.5C260.42 34.363 222.726 51.5 230.437 6.375c-19.814 46.905 14.597 37.878 3.282 58.969-24.857 39.088 20.372 37.298 8.437 79.406L176.125 20.438l39.719 134.375c-24.752-47.492-43.541-32.818-45.969-49.5-5.353-43.074-32.841-12.126-44.094-56.5.912 50.91 28.695 28.726 26.906 52.593-6.878 45.883 33.87 25.775 39.938 69.375-.64.517-1.275 1.036-1.906 1.563L81.844 83.719l90.718 106.687c-.147.175-.29.356-.437.532-40.575-34.518-52.451-13.998-60.938-28.532-21.099-37.931-34.974 1.053-62.03-35.875 19.916 46.862 37.341 15.888 44.624 38.688 10.752 44.87 40.728 11.588 62.656 48.75-.477.87-.946 1.744-1.406 2.625L21.47 175.375l123.781 64.781c-.048.154-.077.315-.125.469-50.257-16.44-53.566 6.955-66.875-3.281-33.846-27.175-32.016 14.154-71-9.844 36.118 35.891 40.594.63 55.937 19 26.853 37.467 42.06-4.553 76.313 21.438-.108 1.017-.194 2.038-.281 3.062L.063 283.188l139.218 13.28c.025.272.068.542.094.813-53.119 3.132-47.513 26.193-63.688 21.563-41.47-12.815-24.545 24.939-69.624 16.969 46.79 20.083 37.942-14.343 58.968-2.907 39.022 25.13 37.453-20.336 79.75-7.906.232.772.475 1.546.719 2.313L19.812 390.25 152.062 352c-43.522 23.543-30.09 41.526-46.375 43.781-43.109 5.058-12.33 32.771-56.78 43.719 50.915-.562 28.894-28.484 52.75-26.531 45.487 7.139 26.32-33.095 68.687-39.344.657.82 1.325 1.631 2 2.438L83.5 483.687l106.812-89.625c.192.162.37.34.563.5-34.57 40.504-14.078 52.415-28.625 60.875-37.968 21.035 1.005 35.008-35.969 62 46.896-19.836 15.938-37.318 38.75-44.562 44.9-10.677 11.664-40.758 48.906-62.625l-38.875 134.937c11-12.542 56.665-126.203 66.313-123.406-16.2 50.19 7.123 53.388-3.063 66.719-27.064 33.933 14.279 31.97-9.593 71.031 35.774-36.233.492-40.566 18.812-55.969 37.35-26.95-4.623-42.065 21.125-76.343l15.75 139.343c5.266-45.92 6.934-94.975 13.781-139.343 3.812 52.263 26.547 46.579 22.094 62.718-12.413 41.592 25.191 24.315 17.656 69.47 19.632-46.983-14.732-37.834-3.5-58.97 24.577-38.983-20.036-37.261-8.906-78.75l66.688 123.407-37.875-126.344c22.079 39.067 39.192 27.104 41.218 42.906 4.62 43.159 32.629 12.691 43.125 57.25-.045-50.918-28.194-29.228-26-53.062 7.646-45.686-33.286-26.418-38.718-69.844l109.25 88.719c-29.14-36.387-60.875-72.399-88.813-108.844 40.305 35.068 52.407 14.616 60.75 29.25 20.707 38.147 35.014-.705 61.688 36.5-19.432-47.065-37.203-16.251-44.25-39.125-10.325-45.14-40.817-11.784-62.375-49.812L545 393.094c-40.779-22.56-83.932-43.772-123.563-66.844 51.147 16.795 54.295-6.9 67.72 3.344 33.95 27.043 31.953-14.316 71.03 9.531-36.256-35.751-40.586-.47-56-18.781-27.175-37.61-42.256 5.28-77.093-21.656l140.093-15.25-139.843-12.782c-.003-.03.002-.062 0-.093 53.353-3.35 47.59-26.43 63.812-21.875 41.535 12.603 24.412-25.085 69.531-17.344-11.723-4.962-19.95-6.538-26.03-6.281-18.241.769-17.125 17.996-32.938 9.5-39.126-24.917-37.314 20.45-79.594 8.312L546.656 177c-44.912 12.132-91.346 28.927-135.437 38.938 48.346-24.501 33.641-43.543 50.406-45.844 43.115-5.005 12.411-32.732 56.875-43.625-50.916.5-28.96 28.45-52.813 26.469-45.946-7.27-25.96 33.862-70.062 39.406L483.937 82.25 376.094 172.5c-.034-.028-.06-.066-.094-.094 35.296-41.451 14.289-53.311 28.875-61.937 37.814-21.31-1.246-34.99 35.531-62.25-46.75 20.176-15.678 37.434-38.437 44.844-45.16 11.085-10.809 41.283-49.25 63.468l38.687-135.718c-9.838 12.247-57.694 126.863-65.312 124.406 16.329-50.79-7.227-53.889 2.937-67.313 26.917-34.05-14.42-31.897 9.281-71.062-35.616 36.389-.309 40.58-18.562 56.062-37.34 27.192 5.034 42.086-21.031 76.688L282.625.063zm.687 144.375c76.7 0 138.938 62.237 138.938 138.937 0 76.7-62.238 138.937-138.938 138.937-76.7 0-138.968-62.237-138.968-138.937 0-76.7 62.269-138.937 138.968-138.937zm-21.593 23.468l16.593 14.657V199h-27.5l-14.437-16.062-.125 42.78 14.656-16.78h27.281l.125 80.937H262.25v-34.906c0-3.626 5.415-6.094 9-6.094h3.875v-4.094h-40.844v4.157h4.781c3.577 0 8.188 2.992 8.188 7.093v74.844c0 3.364-3.014 6.969-7.938 6.969h-5.093v4.281h40.968v-4.281h-4.718c-4.426 0-8.188-3.158-8.188-6.531l-.031-35.532 16.062.032v1l4.532 29.812 5.406-29.687v-1.094l18.031.062V331.5c0 3.01-3.623 6.344-8.031 6.344h-6v4.062h40.969v-3.937h-4.782c-5.458 0-9.218-3.162-9.218-7.313l.062-73.812c0-2.828 3.766-7.722 10.594-7.938h3.531v-4l-41.156.063v3.937h3.5c5.441-.043 10.457 4.72 10.594 8.063v32.906H288.25v-80.969h28.031l14 18.125v-44.656l-13.219 16.781h-28.75v-16.25l16.97-15h-43.563zm131.562 74.875c-.603 4.21-1.76 6.744-3.375 7.938-49.303-26.309-71.5 27.798-25.375 48.25 66.035 26.754-18.114 66.133-21.562 10.937h-3.813v34h4.313c-.334-3.367 2.38-6.696 2.5-6.875 54.57 22.405 78.55-26.306 30.562-50.312-63.597-28.038 13.093-64.299 16.75-9h4V242.78h-4zm-217.25 2v4.157h4.781c3.577 0 8.188 2.992 8.188 7.093v74.844c0 3.364-3.014 6.969-7.938 6.969h-5.093v4.281h40.968v-4.281h-4.718c-4.426 0-8.188-3.158-8.188-6.531L204 254.969c0-3.626 5.415-6.094 9-6.094h3.875v-4.094h-40.844zM282.25 357.563a52.735 52.735 0 00-1.719.03c-2.76.084-5.617.389-8.656 1.032-1.252 3.237-.58 5.043 0 6.906 2.898.91 5.384 2.34 6.875 5.125L283 400.72l4.406-30.594c1.24-2.003 1.806-4.207 6.188-5.312 1.106-4.275.169-4.464 0-6.188-3.668-.592-7.388-1.052-11.344-1.062zm-42.844 17.218c-4.257 5.294-8.232 11.014-10.75 18.906 2.195 2.689 4.063 2.989 5.969 3.407 2.223-2.07 4.717-3.551 7.875-3.469l28.219 11.187-24.407-18.968c-1.127-2.069-2.737-3.645-1.53-8-3.169-3.075-3.793-2.357-5.376-3.063zm87.531.438c-3.436.486-4.686 1.929-6.03 3.344.62 2.973.61 5.87-1.095 8.53l-24.187 18.376 28.875-11.063c2.353.106 4.523-.474 7.625 2.813 4.27-1.12 3.983-2.043 5.406-3.032-2.326-6.382-5.143-12.729-10.594-18.968z" stroke="#000" stroke-width=".061" />
</svg>