<svg xmlns="http://www.w3.org/2000/svg" width="350" height="890" version="1.0">
   <path d="M4025.317 656.303l33.517-.045-.218 55.187-31.768.818-1.531-55.96z" fill="#fac53a" fill-rule="evenodd" stroke="#000" transform="matrix(.2675 0 0 .21617 -779.176 247.046)" />
   <path d="M4026.335 661.639l27.84.463M4026.705 670.056l26.968.182M4026.818 678.605l26.602.463M4027.407 687.812l26.667.463M4027.967 696.844l26.528.26M4028.121 704.836l26.545-.079" fill="none" stroke="#c13c1b" stroke-width="2.972" stroke-linecap="round" stroke-linejoin="round" transform="matrix(.2675 0 0 .21617 -779.176 247.046)" />
   <path d="M4025.205 656.13l1.555 54.548" fill="none" stroke="#000" transform="matrix(.2675 0 0 .21617 -779.176 247.046)" />
   <path d="M243.45 215.3c.794 4.192-1.759 9.913 2.85 9.469 4.61-.662 1.99-6.084 1.464-9.532-.905-3.228-3.672-7.828-4.008-10.653-1.159-9.735 4.959-11.812 8.408-12.437.892-1.305 4.006-1.977 6.52-.865.245.243.498.47.57 1.085-.952 2.437-3.613 3.178-6.565 3.63-.306.142-.388.365-.246.67 2.772 1.556 3.454 3.45 3.855 5.39.297 6.643.899 13.896.768 19.943-.244 11.316-14.995 9.288-16.927 6.108-1.145-1.08-1.03-3.706-1.354-5.153" fill="#fac53a" fill-rule="evenodd" stroke="#000" stroke-width=".36808285" />
   <path d="M244.172 198.788l.326-.292c1.374-1.394 2.12-2.898 4.402-4.03 1.423-.807 3.196-.844 4.826-.913.9.116 1.609-.215 2.193-.837.515-.787 1.723-.48 2.746-.665l.327-.16c-.11-.21-.255-.345-.397-.486-2.514-1.111-5.436-.486-6.329.819-2.603.471-6.726 1.77-8.094 6.564zM249.391 215.5a13.328 13.328 0 005.966-1.183s-1.849.848.017-.079c.084 2.583.146 5.734.192 9.474l-.043-.026c-.463-2.649-4.376-1.802-4.408-.338-.42-3.155.027-.187.027-.187-.447-2.968-1.056-5.465-1.75-7.66z" fill="#308d57" fill-rule="evenodd" />
   <path d="M251.176 223.153c-1.697-11.266-6.106-16.309-6.162-20.162-.075-5.163 3.327-5.743 3.927-5.868.619-.13 3.987-.48 5.396 4.423 1.008 3.505 1.001 9.18 1.305 22.183" fill="none" stroke="#000" stroke-width=".13940159" />
   <path d="M255.04 206.319c-2.454 1.684-5.442 2.67-8.58 1.644.846 2.018 1.974 4.504 2.964 7.64 1.97.019 4.084-.438 5.952-1.255-.067-3.393-.166-5.945-.336-8.029z" fill="#c13c1b" fill-rule="evenodd" />
   <path d="M255.07 206.384c-2.455 1.684-5.438 2.596-8.551 1.602" fill="none" stroke="#000" stroke-width=".13940159" />
   <path d="M255.11 206.374c-2.455 1.685-5.448 2.599-8.566 1.622-.86-1.993-1.48-3.584-1.5-5.012-.075-5.163 3.328-5.743 3.927-5.868.619-.13 3.987-.48 5.396 4.423.361 1.254.581 2.788.743 4.835z" fill="#04a" fill-rule="evenodd" />
   <path d="M255.39 214.309c-1.848.848-3.961 1.304-5.94 1.222M258.499 191.99c-1.023.185-1.943-.169-2.458.618-.584.623-1.262.967-2.166.95-1.625-.03-3.51.06-4.932.868-2.283 1.132-3.432 3.044-4.805 4.439" fill="none" stroke="#000" stroke-width=".13940159" />
   <path d="M253.638 192.665a.655.74 76.386 101.437-.348.655.74 76.386 10-1.437.348z" style="marker:none" color="#000" fill-rule="evenodd" stroke="#000" stroke-linecap="round" stroke-linejoin="round" overflow="visible" stroke-width=".1183" />
   <path d="M255.557 223.678c-.463-2.649-4.376-1.802-4.435-.152" fill="none" stroke="#000" stroke-width=".13940159" />
   <path d="M255.637 223.804c-1.732-.018-3.159.213-4.798-.21M254.43 226.054c-1.59.152-3.005-.553-3.998-1.218M253.018 227.42c-1.384-.341-2.376-.65-3.327-1.575" fill="none" stroke="#000" stroke-width=".07361657" />
   <path d="M251.203 223.146c-1.696-11.266-6.106-16.308-6.162-20.161-.075-5.163 3.328-5.743 3.927-5.869.62-.129 3.987-.48 5.397 4.423 1.007 3.505 1 9.18 1.304 22.184M255.097 206.377c-2.455 1.684-5.438 2.596-8.55 1.602M255.418 214.302c-1.849.848-3.962 1.305-5.94 1.222" fill="none" stroke="#000" stroke-width=".13940159" />
   <path d="M255.585 223.671c-.464-2.649-4.376-1.801-4.435-.152" fill="none" stroke="#000" stroke-width=".13940159" stroke-linecap="round" stroke-linejoin="round" />
   <path d="M253.836 222.026c-.569-8.587-3.272-15.812-4.05-24.854-.66-.146-1.251-.01-1.803.293-.263 5.994 3.69 16.855 4.186 24.853" fill="#fac53a" fill-rule="evenodd" stroke="#000" stroke-width=".13940159" />
   <path d="M256.3 224.125c-1.052 5.332-7.088 7.374-14.316 4.347" fill="none" stroke="#000" stroke-width=".18482458" stroke-linecap="round" stroke-linejoin="round" stroke-dasharray=".47 .941" />
   <path d="M255.735 224.871c-1.812 3.159-3.934 6.083-13.542 3.347" fill="none" stroke="#000" stroke-width=".14723314" stroke-linecap="round" stroke-linejoin="round" stroke-dasharray=".094 1.129" />
   <path d="M255.585 223.553c-.23-1.688-3.543-2.35-4.443-.108" fill="none" stroke="#000" stroke-width=".18482458" stroke-linecap="round" stroke-linejoin="round" />
   <path d="M156.603 215.3c-.793 4.192 1.759 9.913-2.849 9.469-4.61-.662-1.99-6.084-1.464-9.532.904-3.228 3.671-7.828 4.007-10.653 1.159-9.735-4.959-11.812-8.408-12.437-.892-1.305-4.006-1.977-6.52-.865-.245.243-.498.47-.569 1.085.951 2.437 3.613 3.178 6.565 3.63.305.142.387.365.245.67-2.772 1.556-3.454 3.45-3.854 5.39-.298 6.643-.9 13.896-.769 19.943.244 11.316 14.995 9.288 16.927 6.108 1.146-1.08 1.03-3.706 1.354-5.153" fill="#fac53a" fill-rule="evenodd" stroke="#000" stroke-width=".36808285" />
   <path d="M155.88 198.788l-.325-.292c-1.374-1.394-2.119-2.898-4.402-4.03-1.423-.807-3.196-.844-4.826-.913-.9.116-1.608-.215-2.193-.837-.515-.787-1.723-.48-2.746-.665l-.327-.16c.11-.21.255-.345.397-.486 2.514-1.111 5.437-.486 6.329.819 2.603.471 6.726 1.77 8.094 6.564zM150.662 215.5a13.328 13.328 0 01-5.966-1.183s1.85.848-.016-.079a473.97 473.97 0 00-.192 9.474l.042-.026c.463-2.649 4.376-1.802 4.408-.338.42-3.155-.027-.187-.027-.187.447-2.968 1.057-5.465 1.75-7.66z" fill="#308d57" fill-rule="evenodd" />
   <path d="M148.877 223.153c1.697-11.266 6.106-16.309 6.162-20.162.076-5.163-3.327-5.743-3.927-5.868-.618-.13-3.987-.48-5.396 4.423-1.007 3.505-1.001 9.18-1.305 22.183" fill="none" stroke="#000" stroke-width=".13940159" />
   <path d="M145.013 206.319c2.454 1.684 5.442 2.67 8.58 1.644-.845 2.018-1.974 4.504-2.964 7.64-1.97.019-4.084-.438-5.952-1.255.067-3.393.166-5.945.336-8.029z" fill="#c13c1b" fill-rule="evenodd" />
   <path d="M144.984 206.384c2.454 1.684 5.437 2.596 8.55 1.602" fill="none" stroke="#000" stroke-width=".13940159" />
   <path d="M144.943 206.374c2.455 1.685 5.448 2.599 8.566 1.622.861-1.993 1.48-3.584 1.5-5.012.075-5.163-3.327-5.743-3.927-5.868-.619-.13-3.987-.48-5.396 4.423-.36 1.254-.581 2.788-.743 4.835z" fill="#04a" fill-rule="evenodd" />
   <path d="M144.663 214.309c1.848.848 3.962 1.304 5.94 1.222M141.554 191.99c1.023.185 1.943-.169 2.458.618.585.623 1.262.967 2.166.95 1.625-.03 3.51.06 4.933.868 2.282 1.132 3.431 3.044 4.805 4.439" fill="none" stroke="#000" stroke-width=".13940159" />
   <path style="marker:none" d="M146.415 192.665a.74.655 13.614 11-1.437-.348.74.655 13.614 111.437.348z" color="#000" fill-rule="evenodd" stroke="#000" stroke-linecap="round" stroke-linejoin="round" overflow="visible" stroke-width=".1183" />
   <path d="M144.496 223.678c.464-2.649 4.376-1.802 4.435-.152" fill="none" stroke="#000" stroke-width=".13940159" />
   <path d="M144.416 223.804c1.732-.018 3.16.213 4.798-.21M145.624 226.054c1.588.152 3.004-.553 3.997-1.218M147.035 227.42c1.384-.341 2.376-.65 3.327-1.575" fill="none" stroke="#000" stroke-width=".07361657" />
   <path d="M148.85 223.146c1.697-11.266 6.106-16.308 6.162-20.161.075-5.163-3.328-5.743-3.927-5.869-.62-.129-3.987-.48-5.396 4.423-1.008 3.505-1.002 9.18-1.305 22.184M144.956 206.377c2.455 1.684 5.438 2.596 8.55 1.602M144.635 214.302c1.849.848 3.962 1.305 5.94 1.222" fill="none" stroke="#000" stroke-width=".13940159" />
   <path d="M144.469 223.671c.463-2.649 4.375-1.801 4.435-.152" fill="none" stroke="#000" stroke-width=".13940159" stroke-linecap="round" stroke-linejoin="round" />
   <path d="M146.217 222.026c.569-8.587 3.273-15.812 4.05-24.854.66-.146 1.252-.01 1.803.293.263 5.994-3.69 16.855-4.185 24.853" fill="#fac53a" fill-rule="evenodd" stroke="#000" stroke-width=".13940159" />
   <path d="M143.754 224.125c1.051 5.332 7.088 7.374 14.315 4.347" fill="none" stroke="#000" stroke-width=".18482458" stroke-linecap="round" stroke-linejoin="round" stroke-dasharray=".47 .941" />
   <path d="M144.318 224.871c1.813 3.159 3.934 6.083 13.542 3.347" fill="none" stroke="#000" stroke-width=".14723314" stroke-linecap="round" stroke-linejoin="round" stroke-dasharray=".094 1.129" />
   <path d="M144.468 223.553c.23-1.688 3.543-2.35 4.444-.108" fill="none" stroke="#000" stroke-width=".18482458" stroke-linecap="round" stroke-linejoin="round" />
   <g stroke="#c13c1b">
      <path d="M183.096 239.045l-27.762-.67L167.9 25.488c.832-17.847 32.047-21.795 32.404-.027l1.021 226.816-18.229-13.232z" fill="#fac53a" fill-rule="evenodd" />
      <path d="M175.893 238.368l8.535-227.425m2.599-.158l-4.79 227.762M155.785 236.573c6.848-1.862 13.551-1.277 19.75.755M156.05 232.365c7.731-2.135 14.36-1.268 19.974.408M156.932 212.669c6.117-2.56 13.545-3.108 20.056-1M157.358 207.74c6.265-1.884 13.748-2.875 19.969.08M183.026 207.512c5.947-2.105 11.954-2.815 18.124.271M182.77 211.17c6.627-2.134 12.798-2.308 18.345.195M158.502 185.405c6.818-2.252 13.315-3.145 19.02-.675M183.374 184.712c5.852-1.886 11.748-2.584 17.763-.18M159.002 180.943c5.892-1.746 11.864-3.205 18.941-.683M183.492 180.725c6.629-2.18 12.507-2.074 17.839-.3M159.82 161.604c5.893-2.112 12.358-3.226 18.814-.81M160.218 157.429c6.497-2.23 13.084-2.427 18.706-.66M184.233 156.81c6.654-2.086 11.693-1.763 16.812-.685M183.988 160.696c6.262-2.092 12.01-2.06 17.317-.206M161.982 132.955c6.02-2.434 11.914-2.883 17.68-1.325M161.648 136.68c6.22-1.91 12.188-2.508 17.72-.816M184.337 131.59c6.35-2.17 11.857-1.521 16.793-.008M184.284 135.07c5.642-1.28 11.244-1.643 16.743.34M163.152 107.476c7.453-2.358 12.774-1.466 17.197-.133M163.187 111.37c5.734-1.344 12.114-1.83 17.492.33M184.66 107.076c5.48-1.252 10.95-2.216 16.314.154M184.46 111.263c5.906-1.533 11.414-1.693 16.396-.046M164.587 88.05c5.286-1.518 11.09-2.223 16.833.317M185.051 88.483c5.09-1.04 10.183-2.231 15.2-.083M164.511 83.928c5.882-1.457 12.338-1.613 17.157.68M185.137 84.582c5.072-1.406 10.149-2.39 15.254-.271M165.44 68.228c5.072-1.171 10.865-2.945 16.5.063M165.855 64.915c5.31-1.779 11.21-2.276 16.396-.111M185.892 63.423c4.949-1.016 9.868-1.496 14.646.602M185.709 67.01c4.73-.84 9.725-1.386 14.591.698M166.662 49.238c5.106-1.313 11.004-2.338 15.954-.16M166.954 45.52c5.317-1.363 11.456-2.067 15.979-.15M186.284 48.477c4.475-.899 8.97-1.702 14.073.379M186.451 44.9c4.462-.753 8.73-1.7 14.04.097M186.529 27.333c4.22-.782 8.337-1.755 13.965.059M186.346 30.882c4.483-1.322 9.011-2.29 13.988.33M167.663 28.116c4.791-.884 10.734-1.948 15.752-.608M167.546 31.55c4.94-1.057 11.225-2.085 16.086-.196M201.274 236.496c-6.747-1.768-13.349-1.172-19.459.832M201.3 232.365c-7.269-2.007-13.563-1.361-18.954.116" fill="none" />
      <g>
         <path d="M202.938 242.438l41.87-4.048-12.567-212.902c-.832-17.847-32.047-21.795-32.404-.027l-1.021 226.816 4.122-9.84z" fill="#fac53a" fill-rule="evenodd" />
         <path d="M224.348 241.053l-8.635-230.11m-2.599-.158l4.836 229.917M244.356 236.573c-6.848-1.862-13.551-1.277-19.75.755M244.091 232.365c-7.731-2.135-14.36-1.268-19.974.408M243.209 212.669c-6.117-2.56-13.545-3.108-20.056-1M242.783 207.74c-6.265-1.884-13.749-2.875-19.969.08M217.115 207.512c-5.947-2.105-11.954-2.815-18.124.271M217.37 211.17c-6.626-2.134-12.797-2.308-18.345.195M241.639 185.405c-6.818-2.252-13.315-3.145-19.02-.675M216.767 184.712c-5.852-1.886-11.749-2.584-17.763-.18M241.139 180.943c-5.892-1.746-11.864-3.205-18.941-.683M216.649 180.725c-6.629-2.18-12.507-2.074-17.839-.3M240.322 161.604c-5.894-2.112-12.359-3.226-18.815-.81M239.922 157.429c-6.496-2.23-13.083-2.427-18.705-.66M215.908 156.81c-6.654-2.086-11.693-1.763-16.812-.685M216.153 160.696c-6.262-2.092-12.01-2.06-17.317-.206M238.16 132.955c-6.022-2.434-11.915-2.883-17.682-1.325M238.492 136.68c-6.219-1.91-12.187-2.508-17.72-.816M215.804 131.59c-6.35-2.17-11.857-1.521-16.793-.008M215.857 135.07c-5.642-1.28-11.244-1.643-16.744.34M236.989 107.476c-7.453-2.358-12.774-1.466-17.197-.133M236.954 111.37c-5.734-1.344-12.114-1.83-17.492.33M215.48 107.076c-5.48-1.252-10.95-2.216-16.313.154M215.681 111.263c-5.906-1.533-11.414-1.693-16.396-.046M235.554 88.05c-5.286-1.518-11.09-2.223-16.833.317M215.09 88.483c-5.09-1.04-10.183-2.231-15.2-.083M235.63 83.928c-5.882-1.457-12.338-1.613-17.157.68M215.004 84.582c-5.073-1.406-10.149-2.39-15.254-.271M234.7 68.228c-5.07-1.171-10.864-2.945-16.5.063M234.286 64.915c-5.31-1.779-11.21-2.276-16.396-.111M214.249 63.423c-4.949-1.016-9.868-1.496-14.646.602M214.432 67.01c-4.73-.84-9.725-1.386-14.591.698M233.48 49.238c-5.107-1.313-11.005-2.338-15.955-.16M233.186 45.52c-5.316-1.363-11.455-2.067-15.978-.15M213.857 48.477c-4.475-.899-8.97-1.702-14.073.379M213.69 44.9c-4.463-.753-8.73-1.7-14.04.097M213.612 27.333c-4.22-.782-8.337-1.755-13.965.059M213.795 30.882c-4.484-1.322-9.011-2.29-13.988.33M232.478 28.116c-4.791-.884-10.734-1.948-15.753-.608M232.595 31.55c-4.94-1.057-11.225-2.085-16.086-.196M198.867 236.496c6.747-1.768 13.349-1.172 19.459.832M198.842 232.365c7.268-2.007 13.562-1.361 18.953.116" fill="none" />
      </g>
   </g>
   <path d="M183.303 312.658c-30.625-1.45-51.638-11.54-83.19-18.288-7.155-1.947-4.436-16.036 1.08-16.723 5.3-.513 4.38 2.394 9.41.678 4.44-1.306 7.377-3.625 14.602-3.395 6.64.212 7.378-1.868 12.665-3.006 2.63-.565 4.657.299 6.326-.466 4.27-1.958 9.083-1.872 13.89-2.173 5.702-.356 10.337-4.278 16.337-4.27 5.984.007 12.772.573 18.292 3.788" fill="#fac53a" fill-rule="evenodd" stroke="#000" stroke-width=".188" />
   <g fill="none" stroke="#c13c1b">
      <path d="M115.703 276.613l62.324 31.243M120.48 275.245l56.808 28.418M127.538 275.017l47.047 23.606M132.61 273.796l60.077 30.03M136.931 272.2l57.258 28.62M143.441 271.792l52.288 26.136M147.924 270.277l49.307 24.646M153.988 269.552l44.745 22.366M160.375 268.988l39.86 19.925M164.937 267.513l36.8 18.395M169.322 265.855l33.955 16.972M175.178 265.026l29.601 14.796M184.242 265.8l22.04 11.017M96.147 289.28l15.832 7.914M95.95 285.52l31.903 15.949M96.863 282.22l48.085 24.035M98.581 279.323l60.642 30.312M102.795 277.673l67.698 33.84M111.275 278.155l68.61 34.296M133.008 302.896l16.418-32.844M129.655 302.09l15.465-30.94M126.422 301.043l14.607-29.221M123.136 300.102l13.936-27.878M119.796 299.27l12.73-25.464M116.585 298.367l11.736-23.478M113.26 297.508l11.265-22.539M109.96 296.595l10.663-21.333M106.566 295.87l9.778-19.562M103.24 295.01l8.41-16.824M99.77 294.248l7.673-15.348M97.089 292.102l7.108-14.223M95.894 286.975l4.44-8.882M187.297 314.327l19.18-38.371M184.273 313.049l19.167-38.344M180.773 312.538l20.079-40.17M177.137 312.297l1.183-2.366M173.597 311.866l3.012-5.937M170.029 311.49l6.19-12.386M166.493 310.861l21.971-43.955M163.032 310.271l22.168-44.349M159.545 309.733l22.125-44.263M156.178 308.954l21.905-43.822M152.798 308.202l21.565-43.142M149.557 307.352l20.852-41.724M146.18 306.602l19.69-39.392M142.88 305.688l18.443-36.895M139.608 304.721l17.678-35.365M136.308 303.809l17.1-34.212" stroke-width=".16798" />
   </g>
   <path d="M175.517 295.324l.387-1.284-28.814-14.788-19.031 2.528-17.04.78-15.042 5.82.045 1.23c3.925 2.485 10.124 2.451 14.912-5.23.158-.569.544-.408.734.027 2.455 7.606 12.507 8.869 15.587-.769.09-.354.445-.375.493.031 1.625 10.806 19.592 12.85 18.696-2.161-.192-1.091.845-.835 1.122.112 5.358 18.338 20.406 12.676 27.95 13.704z" fill-rule="evenodd" stroke="#000" stroke-width=".188" />
   <path d="M204.179 280.073c6.255 14.899 2.061 26.086-8.459 35.026l4.144 58.227-.098.483 33.207-24.863-6.446-73.051-22.348 4.178z" fill="#025" fill-rule="evenodd" stroke="#000" stroke-width=".168" />
   <g fill-rule="evenodd" stroke="#000" stroke-width=".5">
      <path d="M86.356 225.264c-1.256 8.675 2.156 18.29 18.069 19.706 12.124 1.09 16.732-4.9 25.165-4.716-9.44-4.54-21.618 1.133-32.226-2.617-4.084-1.445-9.092-4.319-11.008-12.373zM145.852 231.971c15.12.549 13.544-6.222 30.3-6.232 7.895-.005 19.989 5.842 23 11.754l-1.882 1.786-3.513 3.334c-11.097-6.51-65.416-7.985-50.724-10.798 1.112.1 1.873.123 2.819.156z" fill="#308d57" />
      <path d="M94.138 236.176c-2.302-1.554-2.278-1.097-.596.794 10.026 10.558 20.813-.038 32.233 2.343 8.666 1.806 17.21 3.745 26.55 3.759 10.474.016 31.512-7.553 32.194 1.377.045.584.065 1.428.053 2.16-.002.137-.127 5.466-.16 5.607 3.901-.902 10.17 1.796 11.638.314 2.39-2.41-1.58-9.123-1.902-10.09-1.448-3.793-6.074-7.155-10.48-8.45-8.146-2.393-18.228.809-28.483.045-12.294-.916-13.249-4.395-29.99-3.633-13.054.594-17.193 11.958-31.057 5.774z" fill="#16502d" />
      <path d="M307.725 220.41c1.91 8.554-.763 18.4-16.523 21.018-12.007 2.005-17.056-3.619-25.45-2.796 9.068-5.241 21.642-.508 31.934-5.052 3.964-1.75 8.739-4.995 10.04-13.17zM251.708 231.236c-18.477 3.086-15.681-4.89-33.485-3.55-6.208.469-14.746 4.764-19.33 9.563-1.195 1.25-5.426 4.981-7.34 8.677-1.172 2.263-1.433 4.933-1.464 6.14 2.868 1.901 4.374-.539 5.849.62 15.696-24.683 49.093-13.35 55.77-21.45z" fill="#308d57" />
      <path d="M300.793 231.88c2.177-1.725 2.188-1.267.654.746-9.197 11.287-20.756 1.54-31.963 4.779-8.504 2.458-16.876 5.038-26.188 5.76-8.36.647-21.466-1.628-27.311 1.469-2.023 1.072-8.502 4.192-15.34 15.075-1.326-3.84-2.259-5.398-4.902-7.039 1.156-3.89 10.52-13.985 16.499-16.151 7.982-2.892 17.35-.61 27.517-2.149 12.19-1.844 12.878-5.386 29.628-5.895 13.062-.397 18.05 10.621 31.406 3.404z" fill="#16502d" />
   </g>
   <path d="M270.786 673.856l-.307 12.343c.092 17.745.562 36.572 4.168 49.573l19.3 143.75 11.117-1.236c-8.34-48.112-10.088-94.907-15.132-142.36-3.038-31.149-9.486-22.25-19.146-62.07z" fill="#fac53a" fill-rule="evenodd" stroke="#c13c1b" stroke-width=".432" />
   <path d="M302.046 396.82h-30.133M302.592 405.882l-30.243.437" fill="none" stroke="#000" stroke-width=".216" />
   <path d="M220.657 335.941l39.73.702c19.383 6.146 34.85 13.406 40.869 34.502 2.172 12.131.178 16.431.926 25.631l.618 9.573c1.33 20.65 1.876 41.458.309 62.688-1.256 18.426 2.698 38.086 3.088 56.512-.628 15.45-4.375 26.908-5.095 40.415l-19.3-1.505c-8.862-49.93-3.742-66.268-5.868-89.246-3.22-28.031-3.23-55.26-4.324-82.76-11.898 21.466-24.346 42.2-31.19 70.408l.001 4.67 6.485 29.916c3.48 4.882 13.453 27.039 6.212 39.671 8.264 48.38 12.168 97.852 11.699 146.231l.617 15.75c1.314 21.451 9.94 42.913 9.573 66.393-.365 23.48-4.595 46.46-7.72 68.864-1.184 25.837 2.385 30.425 1.491 39.849-.893 9.423-6.162 8.991-11.532 8.93-5.474-.06-10.785-.987-10.974-4.594-5.653-1.587-13.631 4.933-72.263 2.662-2.539-.344-2.727-4.075-2.96-6.724 2.613-.714 5.324-1.043 8.228-.596 19.497-9.53 38.655-13.62 58.673-31.498.948-.982 1.746-2.3 1.544-5.867-2.523-35.346-10.216-72.04-13.278-107.465l-.927-5.559c-2.707-6.918-5.105-15.692-8.337-19.455-1.312-7.205-1.855-14.41-6.485-21.616l-14.932-.309c-6.778 19.142-7.696 26.922-11.735 39.836-3.146 18.89-.326 26.913-4.832 41.998-4.543 15.21-14.255 34.954-21.925 49.718-4.702 12.668-11.177 26.046-13.33 37.752-.617 7.54.635 13.363-.258 22.787-.894 9.423-6.163 8.991-11.533 8.93-5.474-.06-10.785-.987-10.974-4.594-5.653-1.587-13.63 4.933-72.263 2.662-2.538-.344-2.727-4.075-2.96-6.724 2.614-.714 5.324-1.043 8.229-.596 19.497-9.53 43.904-14.855 63.897-32.733 1.929-2.157 2.543-4.532 3.28-6.888l22.633-109.224c.029-11.064-1.372-21.58 3.706-34.586l.309-8.647 18.673-170.84-2.075-7.226c-2.65-6.113-.76-12.588-.85-18.335-2.217-17.228-5.72-34.134-9.572-50.953-2.438-5.674-4.693-12.495-6.507-19.662-1.79-.695-2.317-2.68-1.083-4.556-1.216-5.467-2.154-11.034-2.705-16.362l-.822-.183-1.224 11.04c-.477 2.675-.395 5.31-.856 7.94-3.447 19.672-7.005 39.094-18.982 73.803l-3.978 8.723c-9.02 26.127-22.208 46.391-35.88 65.973l-17.033-12.27c9.843-24.334 16.773-49.597 31.63-72.329l2.653-6.441c1.046-18.875 3.392-45.471 8.431-66.334l1.972-15.639c-5.587-25.87 6.44-43.13 29.365-46.96l37.863-7.364" fill="#a13c2a" fill-rule="evenodd" stroke="#000" stroke-width=".432" stroke-linecap="round" stroke-linejoin="round" />
   <g fill-rule="evenodd" stroke="#000" stroke-linecap="round" stroke-linejoin="round">
      <path d="M-2306.297 184.523l126.243 8.061-.277 76.804-129.037-11.151 3.07-73.714z" fill="#fac53a" transform="matrix(.23889 -.01891 .0161 .22474 819.631 309.521)" />
      <path d="M-2306.69 192.987l126.446 10.278-.033 22.472-127.353-9.681.94-23.07zM-2307.61 224.353l127.059 11.038.146 24.403-128.228-10.692 1.023-24.749z" fill="#04a" transform="matrix(.23889 -.01891 .0161 .22474 819.631 309.521)" />
   </g>
   <path d="M273.397 684.158c-.447-2.635-1.628-5.47-2.009-8.516-4.272-34.2-4.916-92.64-15.083-137.459 2.938-8.147 1.788-17.401-.399-25.109-2.16-7.61-5.229-13.556-6.802-15.793-1.138-5.324-4.491-21.112-5.654-32.29a1.081 1.081 0 00-1.095-.986h0a1.08 1.08 0 00-1.053 1.209c1.195 11.483 4.617 27.496 5.728 32.695.033.149.098.29.19.412 1.148 1.568 4.46 7.781 6.606 15.34 2.145 7.56 3.183 16.556.35 24.096a1.08 1.08 0 00-.04.615c8.552 37.496 10.412 84.89 13.398 119.58.87 10.114 2.724 19.264 3.092 26.543" fill="#fac53a" fill-rule="evenodd" stroke="#000" stroke-width=".216" stroke-linecap="round" stroke-linejoin="round" />
   <path d="M147.57 682.824l16.832-171.092 88.382-.891c1.158 4.701 6.011 14.323.464 26.557 7.642 48.321 12.4 97.275 11.37 145.307l-117.048.12z" fill="#fff" fill-rule="evenodd" stroke="#000" stroke-width=".432" />
   <path d="M264.61 683.043c-90.46-15.206-106.955-83.4-100.208-171.311l82.405-14.566c7.818 13 12.343 30.673 6.468 40.177 7.66 48.435 12.394 97.556 11.335 145.7z" fill="#fac53a" fill-rule="evenodd" stroke="#000" stroke-width=".216" />
   <path d="M143.979 340.111l32.876-6.574 46.534-3.711 35.83 7.407c-6.734 33.984-29.78 46.136-56.48 46.728-25.29.559-37.1-5.936-45.358-14.705-7.848-8.335-12.017-21.411-13.402-29.145z" fill="#fff" fill-rule="evenodd" stroke="#000" stroke-linecap="round" stroke-linejoin="round" stroke-width=".27168" />
   <path d="M157.712 337.362c4.956 24.508 19.253 33.588 45.6 32.55 26.412-1.038 39.559-17.992 41.17-34.449-.009-.222-.016-.547.115-1.128" style="marker:none" color="#000" fill="none" stroke="#04a" stroke-width="4.841337599999999" stroke-linejoin="round" overflow="visible" />
   <path d="M170.249 335.016c4.82 18.647 15.355 22.69 32.552 22.025 16.068-.622 27.977-11.154 27.858-24.364-.042-.503.136-.834.101-1.134" style="marker:none" color="#000" fill="none" stroke="#308d57" stroke-width="3.6739286399999997" overflow="visible" />
   <path d="M162.033 336.777c3.622 17.164 12.732 29.993 40.961 28.757 24.573-1.077 36.362-17.699 36.834-31.59-.016-.062-.017-.355.046-.648" style="marker:none" color="#000" fill="none" stroke="#c13c1b" stroke-width="2.9708208" overflow="visible" />
   <path d="M174.337 334.1c2.44 8.14 5.165 20.31 28.455 18.548 15.258-1.155 22.63-10.254 23.206-18.743.047-.965.04-3.107.157-3.389" style="marker:none" color="#000" fill="none" stroke="#04a" stroke-width="4.3572038399999995" overflow="visible" />
   <path d="M166.039 335.74c4.876 23.184 22.08 26.472 37.215 25.573 20.56-1.227 31.623-13.958 32.192-27.435.018-.246.014-1.17.132-1.544" style="marker:none" color="#000" fill="none" stroke="#04a" stroke-width="4.3572038399999995" overflow="visible" />
   <path d="M149.52 339.156c5.385 26.015 19.895 40.195 52.72 39.027l.386-.014h.011c43.57-1.705 49.082-34.322 50.663-41.916" style="marker:none" color="#000" fill="none" stroke="#fac53a" stroke-width="10.867199999999999" overflow="visible" />
   <path d="M143.979 340.111l32.876-6.574 46.534-3.711 35.83 7.407c-6.734 33.984-29.78 46.136-56.48 46.728-25.29.559-37.1-5.936-45.358-14.705-7.848-8.335-12.017-21.411-13.402-29.145z" fill="none" stroke="#000" stroke-width=".54336" stroke-linecap="round" stroke-linejoin="round" />
   <g fill="none" stroke="#c13c1b">
      <path d="M215.453 379.232c-.63-1.926-.246-5.317.257-7.538 1.576 1.602 3.763 4.277 4.315 6.098 1.061 3.502-3.498 4.713-4.572 1.44z" stroke-width=".27168" />
      <path d="M216.044 378.998c-.468-1.426-.187-3.936.183-5.58 1.164 1.187 2.78 3.17 3.189 4.519.786 2.593-2.577 3.486-3.372 1.061z" stroke-width=".27168" />
      <path style="marker:none" d="M216.037 378.927a2.675 2.675 0 011.465-1.152c.814-.251 1.365-.098 1.825.107M215.878 376.348c.24-.302.77-.597 1.03-.673.282-.083.881-.06 1.157.016" color="#000" stroke-linecap="round" stroke-linejoin="round" overflow="visible" stroke-width=".27168" />
   </g>
   <g fill="none" stroke="#c13c1b">
      <path d="M209.742 380.1c-.442-1.978.27-5.316.986-7.477 1.412 1.746 3.33 4.62 3.703 6.487.717 3.588-3.938 4.352-4.69.99z" stroke-width=".27168" />
      <path d="M210.352 379.925c-.327-1.465.196-3.936.723-5.537 1.044 1.295 2.46 3.424 2.736 4.806.532 2.658-2.902 3.22-3.459.73z" stroke-width=".27168" />
      <path style="marker:none" d="M210.352 379.853c.205-.28.736-.835 1.57-1.005.834-.17 1.368.035 1.806.283M210.444 377.27c.268-.277.824-.52 1.09-.57.289-.055.883.025 1.15.128" color="#000" stroke-linecap="round" stroke-linejoin="round" overflow="visible" stroke-width=".27168" />
   </g>
   <g fill="none" stroke="#c13c1b">
      <path d="M221.278 377.664c-.819-1.854-.773-5.266-.492-7.526 1.726 1.438 4.168 3.882 4.898 5.64 1.404 3.378-3.012 5.037-4.406 1.886z" stroke-width=".27168" />
      <path d="M221.843 377.373c-.607-1.373-.577-3.898-.372-5.57 1.276 1.065 3.081 2.877 3.622 4.178 1.04 2.503-2.218 3.726-3.25 1.392z" stroke-width=".27168" />
      <path style="marker:none" d="M221.828 377.303a2.675 2.675 0 011.344-1.293c.785-.33 1.349-.232 1.827-.074M221.415 374.752c.209-.324.706-.67.957-.772.273-.11.871-.148 1.154-.1" color="#000" stroke-linecap="round" stroke-linejoin="round" overflow="visible" stroke-width=".27168" />
   </g>
   <g fill="none" stroke="#c13c1b">
      <path d="M198.284 380.62c-.037-2.026 1.328-5.153 2.463-7.127 1.034 1.994 2.338 5.194 2.33 7.097-.016 3.659-4.73 3.475-4.793.03z" stroke-width=".27168" />
      <path d="M198.917 380.572c-.027-1.501.98-3.817 1.817-5.28.763 1.477 1.724 3.847 1.718 5.257-.012 2.71-3.489 2.574-3.535.023z" stroke-width=".27168" />
      <path d="M198.93 380.501c.258-.233.889-.67 1.74-.67.852 0 1.334.309 1.713.64M199.539 377.99c.318-.218.91-.345 1.182-.341.293.004.86.202 1.101.356" style="marker:none" color="#000" stroke-linecap="round" stroke-linejoin="round" overflow="visible" stroke-width=".27168" />
   </g>
   <g fill="none" stroke="#c13c1b">
      <path d="M192.764 380.525c.043-2.026 1.53-5.097 2.742-7.026.955 2.034 2.131 5.282 2.048 7.184-.16 3.655-4.863 3.286-4.79-.158z" stroke-width=".27168" />
      <path d="M193.398 380.5c.032-1.5 1.13-3.775 2.024-5.203.704 1.506 1.571 3.912 1.51 5.32-.118 2.707-3.588 2.435-3.534-.117z" stroke-width=".27168" />
      <path style="marker:none" d="M193.415 380.43a2.675 2.675 0 011.765-.6c.85.033 1.32.36 1.686.706M194.121 377.945c.327-.205.924-.308 1.195-.294.293.016.851.236 1.086.4" color="#000" stroke-linecap="round" stroke-linejoin="round" overflow="visible" stroke-width=".27168" />
   </g>
   <g fill="none" stroke="#c13c1b">
      <path d="M204.064 380.59c-.263-2.01.743-5.27 1.65-7.359 1.25 1.867 2.904 4.9 3.109 6.792.394 3.638-4.311 3.983-4.76.567z" stroke-width=".27168" />
      <path d="M204.687 380.47c-.194-1.488.547-3.902 1.215-5.449.924 1.383 2.144 3.63 2.296 5.031.292 2.695-3.18 2.949-3.51.419z" stroke-width=".27168" />
      <path style="marker:none" d="M204.693 380.399c.23-.26.808-.765 1.654-.86.846-.096 1.36.157 1.773.443M205.016 377.835c.292-.252.867-.444 1.137-.47.292-.03.877.104 1.134.23" color="#000" stroke-linecap="round" stroke-linejoin="round" overflow="visible" stroke-width=".27168" />
   </g>
   <g fill="none" stroke="#c13c1b">
      <path d="M155.07 360.558c1.672-1.145 5.034-1.725 7.308-1.863-1.097 1.96-3.053 4.81-4.647 5.849-3.064 1.999-5.504-2.039-2.661-3.986z" stroke-width=".27168" />
      <path d="M155.459 361.06c1.238-.848 3.727-1.281 5.408-1.386-.814 1.45-2.264 3.556-3.445 4.326-2.27 1.48-4.068-1.499-1.963-2.94z" stroke-width=".27168" />
      <path d="M155.526 361.033a2.675 2.675 0 011.516 1.084c.468.711.475 1.283.408 1.782M157.957 360.159c.357.146.789.571.935.8.158.247.304.829.308 1.116" style="marker:none" color="#000" stroke-linecap="round" stroke-linejoin="round" overflow="visible" stroke-width=".27168" />
   </g>
   <g fill="none" stroke="#c13c1b">
      <path d="M152.441 355.814c1.777-.975 5.18-1.222 7.456-1.137-1.284 1.844-3.51 4.487-5.198 5.365-3.246 1.689-5.277-2.569-2.258-4.228z" stroke-width=".27168" />
      <path d="M152.78 356.352c1.315-.722 3.834-.91 5.518-.849-.953 1.363-2.603 3.317-3.853 3.967-2.404 1.251-3.902-1.89-1.666-3.118z" stroke-width=".27168" />
      <path style="marker:none" d="M152.848 356.331a2.675 2.675 0 011.403 1.228c.396.754.347 1.324.231 1.814M155.354 355.7c.341.18.729.647.852.888.133.262.221.855.197 1.14" color="#000" stroke-linecap="round" stroke-linejoin="round" overflow="visible" stroke-width=".27168" />
   </g>
   <g fill="none" stroke="#c13c1b">
      <path d="M158.27 365.124c1.485-1.38 4.724-2.451 6.952-2.924-.795 2.101-2.307 5.208-3.73 6.472-2.734 2.43-5.744-1.201-3.222-3.548z" stroke-width=".27168" />
      <path d="M158.73 365.562c1.099-1.021 3.495-1.818 5.143-2.17-.59 1.553-1.713 3.851-2.767 4.788-2.025 1.8-4.245-.88-2.377-2.618z" stroke-width=".27168" />
      <path d="M158.791 365.526a2.675 2.675 0 011.66.848c.57.634.66 1.199.668 1.702M161.067 364.302c.375.091.864.448 1.043.653.193.22.424.774.47 1.057" style="marker:none" color="#000" stroke-linecap="round" stroke-linejoin="round" overflow="visible" stroke-width=".27168" />
   </g>
   <g fill="none" stroke="#c13c1b">
      <path d="M148.579 345.518c1.945-.566 5.321-.07 7.524.508-1.653 1.521-4.4 3.618-6.238 4.109-3.535.944-4.594-3.653-1.286-4.617z" stroke-width=".27168" />
      <path d="M148.792 346.116c1.441-.42 3.94-.055 5.571.37-1.225 1.123-3.26 2.672-4.622 3.036-2.618.699-3.399-2.692-.949-3.406z" stroke-width=".27168" />
      <path style="marker:none" d="M148.864 346.111c.292.187.88.681 1.103 1.503.223.822.051 1.368-.169 1.82M151.447 346.04c.294.249.57.788.638 1.05.073.285.031.883-.054 1.157" color="#000" stroke-linecap="round" stroke-linejoin="round" overflow="visible" stroke-width=".27168" />
   </g>
   <g fill="none" stroke="#c13c1b">
      <path d="M147.232 340.181c1.969-.481 5.32.162 7.496.834-1.718 1.448-4.552 3.424-6.41 3.834-3.573.79-4.432-3.848-1.086-4.668z" stroke-width=".27168" />
      <path d="M147.42 340.788c1.458-.357 3.939.116 5.55.61-1.274 1.07-3.374 2.53-4.75 2.834-2.646.585-3.279-2.837-.8-3.444z" stroke-width=".27168" />
      <path d="M147.492 340.786c.284.2.849.719 1.036 1.55.188.83-.008 1.368-.247 1.81M150.075 340.826c.283.263.537.813.593 1.078.06.287-.008.883-.105 1.153" style="marker:none" color="#000" stroke-linecap="round" stroke-linejoin="round" overflow="visible" stroke-width=".27168" />
   </g>
   <g fill="none" stroke="#c13c1b">
      <path d="M150.252 350.83c1.883-.749 5.29-.575 7.538-.21-1.5 1.671-4.034 4.02-5.818 4.684-3.43 1.276-4.921-3.2-1.72-4.474z" stroke-width=".27168" />
      <path d="M150.521 351.405c1.395-.554 3.917-.43 5.581-.162-1.113 1.235-2.99 2.97-4.312 3.462-2.54.946-3.64-2.356-1.269-3.3z" stroke-width=".27168" />
      <path style="marker:none" d="M150.592 351.394c.31.158.94.594 1.241 1.39.3.798.182 1.357.006 1.829M153.157 351.076c.316.22.643.73.735.986.1.276.115.875.056 1.156" color="#000" stroke-linecap="round" stroke-linejoin="round" overflow="visible" stroke-width=".27168" />
   </g>
   <g fill="none" stroke="#c13c1b">
      <path d="M166.52 372.612c1.03-1.745 3.83-3.695 5.83-4.783-.162 2.24-.727 5.65-1.731 7.266-1.93 3.11-5.85.485-4.1-2.483z" stroke-width=".27168" />
      <path d="M167.085 372.901c.763-1.292 2.833-2.738 4.312-3.546-.123 1.658-.545 4.18-1.288 5.378-1.429 2.303-4.32.367-3.024-1.832z" stroke-width=".27168" />
      <path d="M167.134 372.849a2.675 2.675 0 011.833.34c.725.445.974.96 1.124 1.441M168.966 371.027c.386-.019.957.184 1.186.33.248.156.627.621.752.88" style="marker:none" color="#000" stroke-linecap="round" stroke-linejoin="round" overflow="visible" stroke-width=".27168" />
   </g>
   <g fill="none" stroke="#c13c1b">
      <path d="M162.102 369.139c1.3-1.555 4.38-3.024 6.53-3.772-.525 2.184-1.636 5.456-2.89 6.888-2.408 2.754-5.85-.472-3.64-3.116z" stroke-width=".27168" />
      <path d="M162.612 369.516c.963-1.151 3.24-2.242 4.831-2.798-.39 1.616-1.217 4.036-2.145 5.097-1.784 2.04-4.322-.34-2.686-2.299z" stroke-width=".27168" />
      <path style="marker:none" d="M162.669 369.472a2.675 2.675 0 011.753.633c.644.558.805 1.107.875 1.606M164.773 367.973c.384.044.914.336 1.117.517.219.195.517.715.599.99" color="#000" stroke-linecap="round" stroke-linejoin="round" overflow="visible" stroke-width=".27168" />
   </g>
   <g fill="none" stroke="#c13c1b">
      <path d="M171.385 375.336c.834-1.847 3.407-4.088 5.278-5.386.08 2.245-.112 5.694-.934 7.41-1.581 3.3-5.763 1.116-4.344-2.024z" stroke-width=".27168" />
      <path d="M171.978 375.563c.618-1.368 2.52-3.03 3.903-3.993.057 1.662-.09 4.215-.699 5.486-1.17 2.444-4.255.832-3.204-1.493z" stroke-width=".27168" />
      <path d="M172.02 375.505c.333-.1 1.09-.226 1.86.14.77.364 1.072.85 1.273 1.31M173.645 373.496c.381-.061.971.079 1.214.198.264.13.691.55.843.793" style="marker:none" color="#000" stroke-linecap="round" stroke-linejoin="round" overflow="visible" stroke-width=".27168" />
   </g>
   <g fill="none" stroke="#c13c1b">
      <path d="M181.888 379c.386-1.99 2.372-4.764 3.893-6.46.597 2.166 1.206 5.567.802 7.427-.777 3.576-5.35 2.415-4.695-.967z" stroke-width=".27168" />
      <path d="M182.518 379.084c.286-1.474 1.752-3.53 2.876-4.786.439 1.604.886 4.122.587 5.499-.576 2.648-3.949 1.792-3.463-.713z" stroke-width=".27168" />
      <path style="marker:none" d="M182.546 379.018c.3-.175 1.008-.471 1.841-.294s1.24.58 1.542.982M183.663 376.688c.357-.148.963-.148 1.227-.088.287.065.8.376 1.004.578" color="#000" stroke-linecap="round" stroke-linejoin="round" overflow="visible" stroke-width=".27168" />
   </g>
   <g fill="none" stroke="#c13c1b">
      <path d="M176.582 377.486c.579-1.942 2.826-4.509 4.505-6.047.382 2.214.656 5.658.072 7.469-1.123 3.483-5.56 1.88-4.577-1.422z" stroke-width=".27168" />
      <path d="M177.2 377.631c.429-1.438 2.09-3.34 3.33-4.481.28 1.639.479 4.188.046 5.53-.831 2.58-4.104 1.397-3.376-1.049z" stroke-width=".27168" />
      <path d="M177.235 377.568a2.675 2.675 0 011.86-.112c.812.258 1.178.698 1.44 1.128M178.574 375.359c.37-.112.973-.053 1.23.033.279.093.758.452.942.673" style="marker:none" color="#000" stroke-linecap="round" stroke-linejoin="round" overflow="visible" stroke-width=".27168" />
   </g>
   <g fill="none" stroke="#c13c1b">
      <path d="M187.217 379.986c.173-2.019 1.852-4.989 3.184-6.836.824 2.09 1.79 5.407 1.586 7.3-.392 3.637-5.062 2.97-4.77-.464z" stroke-width=".27168" />
      <path d="M187.852 380.003c.128-1.496 1.368-3.696 2.35-5.064.608 1.547 1.32 4.004 1.169 5.405-.29 2.694-3.736 2.201-3.52-.341z" stroke-width=".27168" />
      <path style="marker:none" d="M187.873 379.934c.28-.206.952-.575 1.8-.488.847.088 1.294.445 1.637.813M188.736 377.498c.34-.184.942-.248 1.211-.217.292.034.835.29 1.06.468" color="#000" stroke-linecap="round" stroke-linejoin="round" overflow="visible" stroke-width=".27168" />
   </g>
   <g fill="none" stroke="#c13c1b">
      <path d="M231.944 373.09c-1.192-1.639-1.868-4.983-2.07-7.252 1.99 1.04 4.894 2.914 5.979 4.477 2.086 3.006-1.88 5.56-3.909 2.775z" stroke-width=".27168" />
      <path d="M232.435 372.687c-.883-1.214-1.387-3.689-1.54-5.367 1.472.772 3.62 2.162 4.423 3.32 1.545 2.226-1.381 4.11-2.883 2.047z" stroke-width=".27168" />
      <path d="M232.406 372.62a2.675 2.675 0 011.04-1.546c.698-.489 1.27-.512 1.77-.459M231.463 370.215c.136-.361.549-.805.773-.957.243-.165.82-.328 1.106-.34" style="marker:none" color="#000" stroke-linecap="round" stroke-linejoin="round" overflow="visible" stroke-width=".27168" />
   </g>
   <g fill="none" stroke="#c13c1b">
      <path d="M226.86 375.708c-1.045-1.736-1.43-5.126-1.435-7.404 1.894 1.209 4.624 3.326 5.569 4.978 1.818 3.176-2.354 5.376-4.134 2.426z" stroke-width=".27168" />
      <path d="M227.384 375.349c-.775-1.286-1.063-3.795-1.07-5.48 1.4.897 3.419 2.467 4.119 3.69 1.347 2.352-1.732 3.975-3.05 1.79z" stroke-width=".27168" />
      <path style="marker:none" d="M227.36 375.28a2.675 2.675 0 011.171-1.45c.737-.427 1.31-.4 1.803-.304M226.63 372.802c.166-.348.616-.754.852-.886.257-.144.846-.256 1.132-.244" color="#000" stroke-linecap="round" stroke-linejoin="round" overflow="visible" stroke-width=".27168" />
   </g>
   <g fill="none" stroke="#c13c1b">
      <path d="M236.8 369.9c-1.425-1.442-2.596-4.647-3.138-6.859 2.125.73 5.276 2.145 6.584 3.527 2.515 2.659-1.023 5.78-3.446 3.331z" stroke-width=".27168" />
      <path d="M237.224 369.427c-1.055-1.068-1.926-3.438-2.33-5.074 1.572.542 3.904 1.592 4.872 2.617 1.862 1.968-.747 4.27-2.542 2.457z" stroke-width=".27168" />
      <path style="marker:none" d="M237.186 369.366c.024-.347.18-1.098.795-1.686.616-.588 1.178-.697 1.681-.72M235.892 367.13c.08-.378.42-.879.62-1.063.215-.2.76-.448 1.042-.503" color="#000" stroke-linecap="round" stroke-linejoin="round" overflow="visible" stroke-width=".27168" />
   </g>
   <g fill="none" stroke="#c13c1b">
      <path d="M245.155 361.83c-1.764-.998-3.765-3.761-4.89-5.742 2.243.122 5.662.624 7.297 1.597 3.144 1.872.592 5.84-2.407 4.145z" stroke-width=".27168" />
      <path d="M245.434 361.26c-1.306-.74-2.79-2.783-3.625-4.247 1.66.093 4.19.468 5.4 1.189 2.33 1.386.447 4.313-1.775 3.057z" stroke-width=".27168" />
      <path d="M245.38 361.211a2.675 2.675 0 01.306-1.839c.433-.733.943-.991 1.42-1.15M243.525 359.413c-.026-.385.166-.96.307-1.192.153-.25.61-.638.866-.768" style="marker:none" color="#000" stroke-linecap="round" stroke-linejoin="round" overflow="visible" stroke-width=".27168" />
   </g>
   <g fill="none" stroke="#c13c1b">
      <path d="M241.242 366.164c-1.599-1.245-3.175-4.271-3.998-6.395 2.202.448 5.51 1.444 6.985 2.646 2.837 2.311-.267 5.863-2.987 3.749z" stroke-width=".27168" />
      <path d="M241.602 365.64c-1.185-.922-2.354-3.16-2.966-4.73 1.629.334 4.076 1.075 5.17 1.965 2.1 1.712-.19 4.332-2.204 2.765z" stroke-width=".27168" />
      <path style="marker:none" d="M241.556 365.585a2.675 2.675 0 01.571-1.775c.535-.662 1.078-.843 1.574-.93M239.984 363.534c.03-.384.304-.925.477-1.133.188-.226.697-.543.97-.634" color="#000" stroke-linecap="round" stroke-linejoin="round" overflow="visible" stroke-width=".27168" />
   </g>
   <g fill="none" stroke="#c13c1b">
      <path d="M248.254 357.137c-1.806-.92-3.926-3.593-5.136-5.522 2.246.023 5.683.376 7.36 1.277 3.222 1.732.846 5.808-2.224 4.245z" stroke-width=".27168" />
      <path d="M248.508 356.556c-1.338-.682-2.91-2.658-3.807-4.084 1.662.02 4.206.284 5.447.952 2.387 1.283.634 4.289-1.64 3.132z" stroke-width=".27168" />
      <path d="M248.452 356.51a2.675 2.675 0 01.225-1.85c.4-.753.9-1.033 1.37-1.212M246.52 354.794c-.043-.384.124-.966.255-1.204.141-.257.582-.664.831-.805" style="marker:none" color="#000" stroke-linecap="round" stroke-linejoin="round" overflow="visible" stroke-width=".27168" />
   </g>
   <g fill="none" stroke="#c13c1b">
      <path d="M252.85 347.156c-1.938-.59-4.494-2.85-6.023-4.538 2.216-.37 5.661-.625 7.47-.032 3.476 1.141 1.85 5.57-1.446 4.57z" stroke-width=".27168" />
      <path d="M252.999 346.538c-1.436-.436-3.33-2.107-4.464-3.353 1.64-.272 4.191-.457 5.53-.018 2.575.846 1.376 4.112-1.066 3.371z" stroke-width=".27168" />
      <path style="marker:none" d="M252.936 346.503a2.675 2.675 0 01-.102-1.861c.262-.81.704-1.174 1.135-1.433M250.734 345.152c-.11-.37-.048-.973.04-1.23.093-.278.456-.756.677-.938" color="#000" stroke-linecap="round" stroke-linejoin="round" overflow="visible" stroke-width=".27168" />
   </g>
   <g fill="none" stroke="#c13c1b">
      <path d="M250.932 352.2c-1.885-.743-4.252-3.2-5.641-5.005 2.238-.192 5.693-.171 7.448.565 3.374 1.415 1.4 5.7-1.807 4.44z" stroke-width=".27168" />
      <path d="M251.13 351.596c-1.397-.55-3.151-2.367-4.182-3.7 1.657-.14 4.214-.12 5.514.425 2.499 1.048 1.042 4.208-1.333 3.275z" stroke-width=".27168" />
      <path d="M251.07 351.556a2.675 2.675 0 01.046-1.864c.326-.787.796-1.114 1.247-1.337M248.982 350.033c-.08-.378.03-.974.138-1.223.116-.27.516-.717.75-.881" style="marker:none" color="#000" stroke-linecap="round" stroke-linejoin="round" overflow="visible" stroke-width=".27168" />
   </g>
   <g fill="none" stroke="#c13c1b">
      <path d="M254.584 341.906c-1.99-.377-4.775-2.35-6.477-3.863 2.164-.607 5.562-1.231 7.423-.835 3.58.76 2.44 5.338-.946 4.698z" stroke-width=".27168" />
      <path d="M254.665 341.277c-1.475-.28-3.537-1.737-4.798-2.855 1.601-.446 4.117-.905 5.496-.612 2.65.564 1.81 3.94-.698 3.467z" stroke-width=".27168" />
      <path style="marker:none" d="M254.6 341.248a2.675 2.675 0 01-.303-1.84c.173-.833.574-1.242.975-1.546M252.264 340.142c-.149-.356-.152-.962-.093-1.227.064-.286.373-.8.573-1.006" color="#000" stroke-linecap="round" stroke-linejoin="round" overflow="visible" stroke-width=".27168" />
   </g>
   <g transform="translate(3297.998 64.803)" fill="#c13c1b" stroke="#000" stroke-width=".5">
      <path d="M-3073.204 188.541c-3.393 1.415-4.09 8.562-4.462 12.299l-46.462-.341c-.164-3.933-.838-10.487-3.812-11.958" fill-rule="evenodd" />
      <rect width="60" height="2.054" x="-3130.681" y="187.111" ry=".694" stroke-linecap="round" stroke-linejoin="round" />
   </g>
   <path d="M175.649 294.536c-7.545-1.027-22.686 4.805-27.856-13.586-.067-.954-1.975-1.247-1.784-.156.896 15.012-16.498 12.893-18.122 2.086-.052-.543-.65-.495-.726-.003-3.08 9.637-12.995 8.35-15.45.744-.04-.343-.717-.317-.747-.122-4.787 7.681-10.974 7.81-14.899 5.325-.836-4.737 1.546-10.645 5.069-11.084 5.3-.513 4.38 2.395 9.411.678 4.439-1.305 7.377-3.625 14.601-3.395 6.64.212 7.379-1.868 12.666-3.005 2.629-.566 4.656.298 6.325-.467 4.27-1.957 9.084-1.872 13.89-2.172 5.702-.357 10.337-4.28 16.338-4.271 5.984.007 12.771.573 18.292 3.788l7.864 2.273 20.555 28.142-13.785 31.38-30.252 6.268c-2.752-2.682-5.176-11.998-6.825-15.652l-4.522-10.432 16.037 1.642" fill="#308d57" fill-rule="evenodd" stroke="#000" stroke-width=".188" />
   <path d="M175.042 338.418l5.788 4.842c4.753 3.447 12.773 6.847 20.676 4.947L195.352 333l1.053-.678c-1.495-.4-4.915.356-6.252 1.758-2.943-.116-5.054.032-7.563 1.843-2.474-.763-6.91 1.071-7.548 2.495z" fill="#a13c2a" fill-rule="evenodd" stroke="#000" stroke-width=".216" />
   <path d="M223.678 330.844l39.925 7.196c40.144 12.122 39.057 36.96 38.614 50.693l4.377.05-.131-24.32-.237-2.145c-5.842-43.087-22.988-72.15-63.374-89.878-19.878-7.274-42.654-13.523-63.28-9.201-3.375.286-10.631 2.176-2.888 1.582 22.47 1.167 29.22 16.11 30.634 26.937 1.333 10.208-6.648 19.204-16.252 28.51-1.575.218-1.86.808-.607 2.773 7.332 9.318 8.831 28.536 9.384 41.074.494 21.766.64 35.6.64 35.6h25.545c.158-11.814.057-20.042.082-34.683-.885-12.037-.674-24.857-2.432-34.188z" fill="#025" fill-rule="evenodd" stroke="#000" stroke-width=".23" stroke-linecap="round" stroke-linejoin="round" />
   <path d="M170.03 320.926c-16.577 11.497-13.284 25.729-14.75 39.075-.045.41-.09 40.25-.137 40.66l24.293-.367L179.42 360c-.024-6.572 2.203-10.88 4.428-14.64-6.788-6.742-10.277-15.604-13.817-24.434z" style="marker:none" color="#000" fill="#025" fill-rule="evenodd" stroke="#000" stroke-width=".214" stroke-linecap="round" stroke-linejoin="round" overflow="visible" />
   <path d="M270.835 672.764l-1.202.32.74 12.023c.093 17.745.563 36.573 4.168 49.573l5.23-8.442 10.056 8.596c-3.039-31.148-9.332-22.25-18.992-62.07z" fill="#04a" fill-rule="evenodd" stroke="#000" stroke-width=".432" />
   <path d="M275.897 742.087l5.852-8.287 7.865 6.628" fill="none" stroke="#c13c1b" stroke-width=".432" stroke-linecap="round" stroke-linejoin="round" />
   <path d="M276.864 749.283l5.723-8.033 7.637 6.376M277.94 756.822l5.476-7.764 7.417 6.203M279.043 764.861l5.411-7.637 7.149 5.957M280.01 772.275l5.264-7.54 7.105 5.922M281.09 780.072l5.023-7.232 6.894 5.828M282.281 787.744l4.888-7.017 6.719 5.689M283.278 795.075l4.72-6.759 6.455 5.482M284.197 801.978l4.621-6.587 6.235 5.309M284.914 809.312l4.803-6.42 6.04 5.014M285.802 816.577l4.893-6.225 5.835 4.958M286.745 823.973l4.57-5.735 6.158 4.535M287.767 831.244l4.595-5.634 5.745 4.135M290.401 850.118l4.43-5.172 5.418 3.504M289.527 844.268l4.364-5.557 5.668 3.904M288.742 837.637l4.44-5.171 5.554 3.734M291.286 856.683l4.472-5.273 5.312 3.974M292.161 862.847l4.199-5.018 5.495 3.504M293.677 875.075l4.43-5.017 5.727 3.503M293.034 868.862l4.155-4.753 5.619 3.595M294.01 877.324l10.15-1.532" fill="none" stroke="#c13c1b" stroke-width=".432" stroke-linecap="round" stroke-linejoin="round" />
   <g fill-rule="evenodd" stroke="#000" stroke-linecap="round" stroke-linejoin="round">
      <path d="M285.618 668.287c2.696-.881 4.905-.544 7.032 0l-1.24-33.733 16.063 1.073c-.491-2.416-.658-4.832 0-7.248l-16.063 1.127h0c3.364-6.013 8.081-11.346 9.778-20.14 3.428-17.77-5.634-17.024-11.92-17.08-6.844-.063-16.947 1.007-12.744 17.838 1.933 7.742 6.647 13.83 10.45 19.382h0l-18.053-1.127c.606 2.416.548 4.832 0 7.248l18.052-1.073h0l-1.355 33.733z" fill="#025" stroke-width=".21417" />
      <path d="M286.973 624.539c-3.47-4.71-6.798-9.313-7.636-15.388-1.695-12.283 4.682-13.654 9.841-13.686 4.587-.027 11.367.623 8.332 13.577-1.424 6.078-3.639 11.546-6.1 15.497-1.541 2.086-3.196 1.745-4.437 0z" fill="#fff" stroke-width=".21417" />
   </g>
   <path d="M301.032 572.027l-19.85-.541c-.994 4.965-3.447 10.223-5.842 15.469-3.166 5.025-3.372 11.439-2.488 17.524l-.324 5.733c8.915 1.067.301-10.832 5.95-15.252l.864 8.22c1.617 1.54 3.21 2.757 4.544.325 1.586 1.777 3.173 1.649 4.76-.324 1.94 2.508 3.523.743 5.192 0 1.778 1.391 3.661 1.885 4.868-1.298.35-8.684 2.948-17.116 2.326-29.856z" fill="#a13c2a" fill-rule="evenodd" stroke="#000" stroke-width=".432" stroke-linecap="round" stroke-linejoin="round" />
   <g fill-rule="evenodd" stroke="#000" stroke-linecap="round" stroke-linejoin="round">
      <path d="M281.011 560.29l20.824.162-.866 13.144-19.85-.758-.108-12.548z" fill="#fac53a" stroke-width=".21417" />
      <path d="M281.011 562.183l20.662.27-.213 4.061-20.395-.32-.054-4.01z" fill="#04a" stroke-width=".21417" />
      <path d="M280.793 560.236l20.878.216-.592 13.09-20.233-.704-.053-12.602z" fill="#fac53a" stroke-width=".21417" />
      <path d="M280.818 562.183l20.855.27-.252 4.061-20.549-.32-.054-4.01zM280.857 567.423l20.491.309-.213 4.06-20.224-.359-.054-4.01z" fill="#04a" stroke-width=".21417" />
   </g>
   <g>
      <path d="M151.83-196.826h25.973v12.197H151.83v-12.197z" fill="#fac53a" fill-rule="evenodd" stroke="#000" stroke-width=".224" transform="matrix(.93386 0 0 .96682 13.382 579.164)" />
      <path d="M153.196-195.633l22.881.104M153.186-193.814l22.881.104M153.18-191.84l22.882.105M153.25-189.78l22.881.103M153.4-187.648l22.877-.055M153.317-185.748l22.95-.216" fill="none" stroke="#c13c1b" stroke-width=".665" stroke-linecap="round" stroke-linejoin="round" transform="matrix(.93386 0 0 .96682 13.382 579.164)" />
   </g>
   <path d="M69.527 548.171c-10.26 1.61-22.705 5.432-31.006 18.986l-5.114 3.168c2.705 5.951 8.038 2.535 9.736-.573-1.007 2.748-.476 4.505 2.77 4.51-.687 2.564.217 4.048 3.228 4.105-1.604 2.525.297 4.752 3.075 4.24-.977 3.232.756 4.604 2.473 4.637 4.58 1.969 25.028-23.414 27.065-25.629" fill="#a13c2a" fill-rule="evenodd" stroke="#000" stroke-width=".432" stroke-linecap="round" stroke-linejoin="round" />
   <path d="M43.128 356.448c.717-7.124-.404-13.378 2.521-22.039 3.57-10.57 7.136-12.402 11.293-17.956 1.575-1.286 4.167.058 3.317 2.505-4.822 4.49-8.263 10.622-9.669 14.122 1.447-.163 8.412-.698 8.568 6.52l-.024 492.832c7.755 8.9 1.09 15.74 1.506 23.471-.793.382-1.422.138-1.502-.536-1.039-8.46 1.847-12.15-.052-16.55-.908-2.103-2.607-2.005-3.598-.215-2.133 3.858.856 6.231.076 16.683-.057.76-.989.98-1.369.523-.486-7.767-5.855-14.314 1.253-23.384l-.009-492.235c-.4-4.027-4.756-4.458-6.92.092-2.536 5.333-1.461 10.862-2.14 16.292-1.127 3.497-3.442 2.15-3.25-.125z" fill="#025" fill-rule="evenodd" stroke="#000" stroke-width=".214" stroke-linecap="round" stroke-linejoin="round" />
   <g fill-rule="evenodd" stroke="#000" stroke-linecap="round" stroke-linejoin="round">
      <path d="M69.894 534.998l21.398 12.625-9.246 13.956-17.57-12.765 5.418-13.816z" fill="#fac53a" stroke-width=".28617" />
      <path d="M69.206 536.739l20.882 13.027-2.71 3.973L67.705 540.7l1.501-3.961zM66.873 542.84L85.8 555.918l-2.929 4.355-17.718-13.09 1.72-4.343z" fill="#04a" stroke-width=".28617" />
   </g>
   <path d="M56.06 558.982c3.667-2.82 8.044-2.394 4.593 1.786 2.973-2.831 9.083-2.346 3.017 3.458 5.533-3.328 5.841 1.142 3.005 3.662 3.732-2.291 4.734 1.309.93 4.97-3.792 4.721-8.236 9.548-12.523 14.238-.08.085-.187.138-.356.12-1.717-.032-3.424-1.24-2.446-4.473-2.779.513-4.68-1.713-3.076-4.24-3.011-.056-3.915-1.54-3.228-4.103-3.246-.006-4.096-1.275-3.088-4.023.133-.23.263-.407.391-.542 4.58-4.955 8.792-8.515 12.665-10.784m.832-.509c-.29 1.228.937 2.9 3.01 2.933m.84-.532c-.83 1.442 1.604 3.408 2.925 3.331m.34-.198c-1.223 1.512.571 4.712 3.195 3.37m-.457.506c-.707 1.606.586 3.26 2.027 3.608m-19.438 6.94c.534-.377 14.484-14.255 14.484-14.255M46.111 574.32c.763-.774 14.598-13.573 14.598-13.573m-8.365 21.971l14.433-14.908" fill="#a13c2a" fill-rule="evenodd" stroke="#000" stroke-width=".432" stroke-linecap="round" stroke-linejoin="round" />
   <path d="M60.626 560.943c-.242.168-.282.503-.84.532-2.527.005-3.126-2.492-3.03-2.939 3.465-2.254 7.165-1.603 3.937 2.307 2.974-2.831 9.043-2.421 2.977 3.383 5.533-3.328 5.911 1.028 3.075 3.548 3.317-2.036 4.407.694 1.932 3.83-1.462-.391-2.755-2.046-1.911-3.81-2.487 1.182-4.098-2.206-3.045-3.62-1.491.177-3.926-1.789-3.095-3.23z" fill="#fff" fill-rule="evenodd" stroke="#000" stroke-width=".432" stroke-linecap="round" stroke-linejoin="round" />
   <path d="M61.494 557.53c-2.427-.893-5.609.893-12.635 6.77l-1.296-7.425c7.361-5.004 10.655-6.424 17.04-7.775" fill="#a13c2a" fill-rule="evenodd" />
   <path d="M48.859 564.3c7.026-5.877 10.31-7.673 12.736-6.78m2.94-8.377c-6.385 1.35-9.749 2.626-17.09 7.846" fill="none" stroke="#000" stroke-width=".432" />
   <g fill-rule="evenodd" stroke="#000" stroke-linecap="round" stroke-linejoin="round">
      <path d="M-2298.264 185.199l129.779 8.359-8.488 77.742-132.395-13.063 11.104-73.038z" fill="#fac53a" transform="matrix(.26144 -.00426 .00494 .22537 708.713 342.188)" />
      <path d="M-2299.299 193.609l129.66 10.549-2.604 22.255-130.567-9.952 3.511-22.852zM-2304.076 224.65L-2173.32 236l-2.746 24.159-131.762-10.989 3.753-24.52z" fill="#04a" transform="matrix(.26144 -.00426 .00494 .22537 708.713 342.188)" />
   </g>
   <g fill-rule="evenodd" stroke="#000" stroke-linecap="round" stroke-linejoin="round">
      <path d="M-2301.611 184.81l110.51 7.598-12.757 77.185-100.902-10.518 3.149-74.266z" fill="#fac53a" transform="matrix(.25786 .0433 -.03608 .22252 724.766 876.128)" />
      <path d="M-2302.218 193.931l109.506 8.31-3.595 21.223-106.536-7.241.625-22.292zM-2303.251 224.49l104.788 11.037-4.15 23.206-101.819-9.488 1.18-24.755z" fill="#04a" transform="matrix(.25786 .0433 -.03608 .22252 724.766 876.128)" />
   </g>
   <g fill-rule="evenodd" stroke="#000" stroke-linecap="round" stroke-linejoin="round">
      <path d="M-2305.348 184.73l117.692 7.561-12.03 77.508-107.182-11.397 1.52-73.671z" fill="#fac53a" transform="matrix(.26105 -.01487 .01408 .22499 837.504 747.787)" />
      <path d="M-2305.446 193.202l116.011 9.648-3.645 22.187-112.856-8.782.49-23.053zM-2306.264 224.506l112.106 10.117-3.892 24.083-108.633-9.46.42-24.74z" fill="#04a" transform="matrix(.26105 -.01487 .01408 .22499 837.504 747.787)" />
   </g>
   <path d="M264.61 683.043c-90.46-15.206-106.955-83.4-100.208-171.311l82.405-14.566c7.818 13 12.425 30.564 6.55 40.068 7.66 48.435 12.312 97.665 11.253 145.809z" fill="#fac53a" fill-rule="evenodd" stroke="#000" stroke-width=".216" />
   <g>
      <path d="M246.543 497.02l-6.27-29.789-75.806 36.69-.231 7.611 82.307-14.511z" fill="#fac53a" fill-rule="evenodd" stroke="#000" stroke-linecap="round" stroke-linejoin="round" stroke-width=".21617" />
      <path d="M213.856 485.926l6.635-2.759 1.657 4.098-6.731 2.395-1.56-3.734z" fill="#04a" fill-rule="evenodd" stroke="#04a" stroke-width=".24989251999999998" />
      <path d="M223.143 482.065l6.034-2.532 1.939 4.724-6.181 2.109-1.792-4.301z" fill="#c13c1b" fill-rule="evenodd" stroke="#c13c1b" stroke-width=".24989251999999998" />
      <path d="M231.877 478.59l6.879-2.899 2.081 5.018-7.132 2.487-1.828-4.605z" fill="#04a" fill-rule="evenodd" stroke="#04a" stroke-width=".24989251999999998" />
      <path d="M240.27 467.122l.74 3.653-73.133 32.071-3.25.91 75.644-36.634z" fill="#fff" fill-rule="evenodd" stroke="#000" stroke-linecap="round" stroke-linejoin="round" stroke-width=".21617" />
      <path d="M177.134 500.866l6.053-2.42.858 2.325-6.116 2.25-.795-2.155z" fill="#04a" fill-rule="evenodd" stroke="#04a" stroke-width=".24989251999999998" />
      <path d="M186.19 497.267l6.42-2.697.993 2.742-6.47 2.318-.943-2.363z" fill="#c13c1b" fill-rule="evenodd" stroke="#c13c1b" stroke-width=".24989251999999998" />
      <path d="M195.24 493.63l6.517-2.808 1.372 3.231-6.835 2.363-1.054-2.785z" fill="#04a" fill-rule="evenodd" stroke="#04a" stroke-width=".24989251999999998" />
      <path d="M204.622 489.548l6.689-2.76 1.633 3.864-6.844 2.432-1.478-3.536z" fill="#308d57" fill-rule="evenodd" />
      <path d="M242.893 480.203l-66.938 23.582M241.685 474.36l-67.791 27.732M230.932 478.913l1.925 4.594M230.052 479.15l1.91 4.724M240.515 474.91l2.101 5.249M239.642 475.276l2.146 5.202M222.275 482.49l1.892 4.164M221.338 482.826l1.852 4.177M213.064 486.226l1.52 3.68M212.158 486.46l1.651 3.854M203.478 490.06l1.509 3.272M202.645 490.437l1.452 3.29M194.386 493.941l1.015 2.754M193.457 494.325l1.095 2.744M185.346 497.62l.79 2.435M184.331 497.979l.874 2.475M176.315 501.213l.787 2.052M175.514 501.448l.865 2.102" fill="none" stroke="#000" stroke-width=".24989251999999998" stroke-linecap="round" stroke-linejoin="round" />
      <path d="M234.285 489.16l7.162-2.107 1.504 5.22-7.367 1.67-1.299-4.783z" fill="#04a" fill-rule="evenodd" stroke="#04a" stroke-width=".24989251999999998" />
      <path d="M225.216 491.63l6.28-1.837 1.474 4.858-6.457 1.454-1.297-4.475z" fill="#c13c1b" fill-rule="evenodd" stroke="#c13c1b" stroke-width=".24989251999999998" />
      <path d="M215.554 494.422l6.902-1.995 1.187 4.258-6.959 1.623-1.13-3.886z" fill="#04a" fill-rule="evenodd" stroke="#04a" stroke-width=".24989251999999998" />
      <path d="M205.971 496.983l6.957-1.992 1.187 4.025-7.074 1.646-1.07-3.68z" fill="#308d57" fill-rule="evenodd" />
      <path d="M196.189 499.984l6.792-2.059 1 3.366-7.142 1.648-.65-2.955z" fill="#04a" fill-rule="evenodd" stroke="#04a" stroke-width=".24989251999999998" />
      <path d="M186.794 502.515l6.676-1.894.678 2.837-6.689 1.575-.665-2.518z" fill="#c13c1b" fill-rule="evenodd" stroke="#c13c1b" stroke-width=".24989251999999998" />
      <path d="M177.78 505.132l5.999-1.632.644 2.257-6.072 1.452-.571-2.077z" fill="#04a" fill-rule="evenodd" stroke="#04a" stroke-width=".24989251999999998" />
      <path d="M245.37 491.856l-69.485 16.047M244.147 486.203l-69.923 19.747M233.31 489.375l1.396 4.781M232.41 489.512l1.365 4.908M243.279 486.464l1.501 5.463M242.374 486.74l1.547 5.41M224.306 491.955l1.411 4.35M223.337 492.183l1.37 4.36M214.733 494.63l1.097 3.83M213.806 494.762l1.207 4.015M204.776 497.362l1.131 3.421M203.906 497.644l1.073 3.43M195.305 500.196l.699 2.85M194.34 500.473l.779 2.85M185.832 502.836l.663 2.428M184.86 503.077l.706 2.594M177.143 505.232l.596 2.204M176.497 505.414l.485 2.112" fill="none" stroke="#000" stroke-width=".24989251999999998" stroke-linecap="round" stroke-linejoin="round" />
      <path d="M176.703 504.164l66.635-22.16M176.872 504.656l66.887-20.475M176.026 508.468l69.612-15.23M174.992 509.212l71.203-13.827M170.53 502.23l70.671-30.35M172.336 502.128l69.147-28.99" fill="none" stroke="#000" stroke-width=".21617" />
      <path d="M164.2 511.573c7.907-1.791 13.709-.977 12.6-6.884-.808-4.308-8.228-2.253-12.328-.929l-.272 7.813z" fill="#fac53a" fill-rule="evenodd" stroke="#000" stroke-linecap="round" stroke-linejoin="round" stroke-width=".21617" />
   </g>
   <g>
      <path d="M147.569 682.87l16.979-170.264 88.627-.107c1.156 4.702 5.287 13.354.316 25.97 7.616 48.325 12.236 97.132 11.18 145.163l-117.102-.762z" fill="#fff" fill-rule="evenodd" stroke="#000" stroke-width=".43234" />
      <path d="M264.413 683.232c-90.452-15.253-106.91-83.456-100.116-171.364l82.412-14.522c7.81 13.004 12.545 31.471 6.665 40.973 7.634 48.438 12.124 96.77 11.04 144.913z" fill="#fac53a" fill-rule="evenodd" stroke="#000" stroke-width=".21617" />
      <path d="M246.526 497.422l-66.818 130.9M242.536 498.107l-64.67 126.692M176.16 621.01l62.394-122.233M234.54 499.508l-60.042 117.627M172.966 613.004l57.566-112.776M226.53 500.935L171.497 608.75M170.132 604.291l52.41-102.674M218.566 502.275l-49.686 97.338M167.721 594.75l46.819-91.72M210.531 503.75l-43.82 85.848M165.752 584.344l40.766-79.862M202.542 505.14l-37.57 73.6M164.292 572.94l34.241-67.08M194.538 506.555l-30.788 60.317M163.337 560.548l27.194-53.275M186.542 507.955l-23.467 45.975M162.948 547.047l19.604-38.407M178.527 509.395l-15.55 30.462M163.155 532.376l11.395-22.323M170.523 510.81l-7.114 13.937M163.949 516.558l2.586-5.066M248.55 500.59l-66.941 131.142M183.594 634.973l66.72-130.708M251.956 508.18l-66.332 129.95M187.741 641.114l65.69-128.692M254.696 517.077l-64.75 126.85M192.198 646.646l63.473-124.347M255.979 528.827L194.545 649.18M196.917 651.666l56.86-111.395M254.595 545.802l-55.226 108.191M201.816 656.333l53.56-104.93M256.203 556.916l-51.83 101.537M207 660.438l49.95-97.853M257.74 568.167l-48.082 94.197M212.385 664.155l46.006-90.13M259.12 579.728l-43.996 86.192M217.931 667.553l41.884-82.053M260.36 591.564l-39.61 77.599M223.645 670.623l37.444-73.356M261.564 603.468l-34.989 68.546M229.576 673.267l32.568-63.803M262.538 615.824l-29.975 58.723M235.582 675.766l27.424-53.727M263.455 628.292l-24.754 48.496M241.756 677.934l22.016-43.131M264.054 641.382l-19.11 37.44M248.155 679.662l16.198-31.734M264.521 654.731l-13.162 25.785M254.59 681.319l9.994-19.578M264.681 668.681l-6.786 13.295M261.212 682.61l3.356-6.576" fill="none" stroke="#c13c1b" stroke-width=".43234" />
      <path d="M264.379 683.232c-90.453-15.253-106.91-83.456-100.116-171.364l82.412-14.522c7.81 13.004 12.545 31.471 6.664 40.973 7.634 48.438 12.124 96.77 11.04 144.913z" fill="none" stroke="#000" stroke-width=".43234" />
   </g>
   <path d="M167.611 495.161a.813 2.047-.507 11-1.627 0 .813 2.047-.507 111.627 0z" style="marker:none" color="#000" fill-opacity=".706" fill-rule="evenodd" overflow="visible" />
   <g>
      <path d="M210.945-175.397h26.425v12.196h-26.425v-12.196z" fill="#fac53a" fill-rule="evenodd" stroke="#000" stroke-width=".224" transform="matrix(.97491 0 0 .96682 -5.34 558.331)" />
      <path d="M212.585-174.204l22.881.104M212.575-172.066l22.88.104M212.65-170.091l22.88.104M212.639-168.192l22.881.103M212.79-166.22l22.875-.054M212.706-164.24l22.95-.215" fill="none" stroke="#c13c1b" stroke-width=".665" stroke-linecap="round" stroke-linejoin="round" transform="matrix(.97491 0 0 .96682 -5.34 558.331)" />
   </g>
   <g fill-rule="evenodd" stroke="#000" stroke-width=".168">
      <path d="M192.853 269.082c10.429-2.884 17.784-1.442 22.655 3.496-2.52 5.257-7.336 11.296-23.555 3.489" fill="#308d57" />
      <path d="M196.323 273.314c7.838-2.833 10.682-.776 14.781.698-4.928 3.333-9.755 2.88-14.52.135" />
   </g>
   <g color="#000" stroke-linecap="round" stroke-linejoin="round">
      <path style="marker:none" d="M215.657 210.324c0 10.544-6.446 13.743-16.017 13.743-9.57 0-15.665-3.665-15.51-13.743.155-10.08 6.058-14.041 15.63-14.041 9.57 0 15.897 3.651 15.897 14.04z" fill="#c13c1b" fill-rule="evenodd" stroke="#c13c1b" stroke-width="12.838091759999998" overflow="visible" />
      <path d="M222.27 210.231c0 14.337-9.48 20.376-22.493 20.376-13.014 0-22.594-6.673-22.383-20.376.21-13.705 9.414-20.197 22.427-20.197s22.449 6.07 22.449 20.197z" style="marker:none" fill="none" stroke="#000" stroke-width=".83295" overflow="visible" />
      <path style="marker:none" d="M222.27 210.231c0 14.337-9.48 20.376-22.493 20.376-13.014 0-22.594-6.673-22.383-20.376.21-13.705 9.414-20.197 22.427-20.197s22.449 6.07 22.449 20.197z" fill="none" stroke="#fff" stroke-width=".66636" overflow="visible" />
   </g>
   <g color="#000" stroke-linecap="round" stroke-linejoin="round">
      <path d="M154.457 187.227c0 2.723-1.665 3.549-4.136 3.549s-4.045-.947-4.005-3.549c.04-2.603 1.564-3.626 4.036-3.626 2.471 0 4.105.943 4.105 3.626z" style="marker:none" fill="#c13c1b" fill-rule="evenodd" stroke="#c13c1b" stroke-width="3.3149079599999993" overflow="visible" />
      <path style="marker:none" d="M156.164 187.203c0 3.702-2.448 5.261-5.808 5.261s-5.834-1.723-5.78-5.26c.055-3.54 2.432-5.216 5.792-5.216s5.796 1.568 5.796 5.215z" fill="none" stroke="#000" stroke-width=".215075" overflow="visible" />
      <path d="M156.164 187.203c0 3.702-2.448 5.261-5.808 5.261s-5.834-1.723-5.78-5.26c.055-3.54 2.432-5.216 5.792-5.216s5.796 1.568 5.796 5.215z" style="marker:none" fill="none" stroke="#fff" stroke-width=".17206" overflow="visible" />
   </g>
   <g color="#000" stroke-linecap="round" stroke-linejoin="round">
      <path style="marker:none" d="M245.212 187.227c0 2.723 1.664 3.549 4.136 3.549 2.471 0 4.044-.947 4.004-3.549-.04-2.603-1.564-3.626-4.035-3.626s-4.105.943-4.105 3.626z" fill="#c13c1b" fill-rule="evenodd" stroke="#c13c1b" stroke-width="3.3149079599999993" overflow="visible" />
      <path d="M243.504 187.203c0 3.702 2.448 5.261 5.808 5.261s5.834-1.723 5.78-5.26c-.054-3.54-2.43-5.216-5.791-5.216-3.36 0-5.797 1.568-5.797 5.215z" style="marker:none" fill="none" stroke="#000" stroke-width=".215075" overflow="visible" />
      <path style="marker:none" d="M243.504 187.203c0 3.702 2.448 5.261 5.808 5.261s5.834-1.723 5.78-5.26c-.054-3.54-2.43-5.216-5.791-5.216-3.36 0-5.797 1.568-5.797 5.215z" fill="none" stroke="#fff" stroke-width=".17206" overflow="visible" />
   </g>
   <g stroke="#000" stroke-width=".086">
      <path d="M188.231 275.011c-1.674-.51-3.274-1.152-4.689-2.123-2.664-1.825-4.594-4.191-8.407-5.167-3.06-.728-5.824-.59-7.67.104-1.871.702-1.131 2.221.335 1.74 1.466-.48 4.09-.833 6.539-.201 2.449.632 6.106 3.741 8.407 5.166 2.302 1.426 3.575 1.76 5.274 2.195.311-.619.353-1.184.211-1.714zM188.22 277.786c-4.468-.764-5.668-.86-9.339-2.48-4.895-1.977-10.46-4.505-13.232-.274-1.209 1.72-2.113 2.325.604 2.258 6.898 1.965 8.558.454 11.734-.05 2.321.519 6.082 1.56 9.796 2.585.347-.619.532-1.286.437-2.039z" fill-rule="evenodd" stroke-width=".058558259999999994" />
      <path d="M174.53 274.287c-2.45-1.172-4.818-1.85-6.844-.486.095 1.37.502 2.501 1.663 3.055 1.402.392 3.83.383 4.746-.36.917-.743 1.205-1.779.436-2.209z" fill="none" stroke-width=".058558259999999994" />
      <path d="M177.177 276.222c-1.083-.362-1.668-.799-2.378-1.217.071.773-.299 1.22-.677 1.661.388.168 2.534-.321 3.055-.444zM167.684 274.393c-.874.899-1.163 1.273-1.354 2.195 1.153-.071 2.083.445 2.99.267-1.129-.809-1.543-1.39-1.636-2.462z" fill="#fff" fill-rule="evenodd" stroke-width=".058558259999999994" />
   </g>
   <path d="M97.647 280.673c1.15 2.254 5.278 2.034 7.493 1.967M158.207 289.021c3.376 5.286 23.329-.968 21.764 6.16-.167.75-.31.327-.701.738" fill="none" stroke="#000" stroke-width=".504" stroke-linecap="round" stroke-linejoin="round" />
   <path d="M174.973 295.218l5.556 17.11c4.09.982 1.177-4.125-.442-9.913-1.071-3.83-2.943-7.471-5.114-7.197z" fill="#fac53a" fill-rule="evenodd" />
</svg>