<svg xmlns="http://www.w3.org/2000/svg" width="350" height="785" version="1.0">
   <defs>
      <linearGradient id="prefix__a">
         <stop offset="0" stop-color="#c13c1b" />
         <stop offset=".839" stop-color="#c13c1b" stop-opacity=".498" />
         <stop offset="1" stop-color="#c13c1b" stop-opacity="0" />
      </linearGradient>
   </defs>
   <path d="M70.215 467.916c-1.951 2.632-2.433 3.192-3.743 5.003-10.878 21.62-16.272 19.893-21.963 24.535-.26-.482-2.286 3.073-2.464 2.667-4.985-4.353 7.543-11.307 9.243-13.416 1.646-2.041 2.415-3.993 3.704-6.968l-.715-.693c-23.252 15.47-18.089 25.749-20.632 29.898-.57.843-1.7 2.43-3.102 1.564.398-1.52-.059-2.632.732-4.001-3.038 2.832-3.267 2.732-4.62 2.118.438-.986.674-1.985 1.072-2.802-2.283 1.826-3.15 1.532-4.439.374a186.332 186.332 0 001.711-3.578c-3.132 2.385-4.086 2.38-5.296 1.15l1.91-2.826c1.015-4.276-.48-5.702 5.52-14.873 5.344-8.167 19.4-14.682 26.363-20.187l5.477-8.052" fill="#f5ca44" fill-rule="evenodd" stroke="#000" stroke-width=".233" stroke-linecap="round" stroke-linejoin="round" />
   <g stroke="#000">
      <path d="M220.472 165.127s-.286-96.002 2.402-132.418c.2-2.703.733-4.956 2.013-6.559 6.735 11.11 19.235 9.042 21.142-4.297 1.073-7.51-5.275-13.594-13.134-13.813-11.75-.327-14.432 5.876-16.643 11.322-.524 1.288-1.806 1.195-1.812.113-.043-7.673-5.669-11.61-13.586-12.34-8.177-.756-13.16 4.235-14.493 12-1.722 10.045 11.152 18.514 21.413 8.04.749 36.586-1.072 135.95-1.072 135.95" fill="#c13c1b" fill-rule="evenodd" stroke-width=".22417" />
      <path d="M207.777 27.221c-.146-5.19-.834-8.516-4.565-9.538-6.384-1.749-8.592 7.695-3.717 6.434M224.858 26.22c1.828-4.011 4.709-6.173 7.143-6.16 5.584.029 6.874 3.775 4.003 6.645" fill="none" stroke-width=".22417" />
   </g>
   <path d="M274.013 319.471l16.503.963.546-30.38c.714-11.606.086-16.311-2.26-24.027-6.448-27.633-13.63-55.42-26.023-84.303-9.502-17.078-10.126-40.663-44.501-39.514-8.466-.372-16.945-.22-25.464 1.344-2.746 1.363-19.755 2.311-22.7 28.306 16.238-.326 20.46 5.745 35.72 11.875l3.605 2.234 4.38 11.94c-4.631 5.26-6.947 19.722-8.359 37.526-1.826 25.446-2.261 50.962-4.283 76.396l24.376.965 6.5-20.735 33.025-18.304c8.698 7.458 5.513 6.048 9.6 27.785-.354 5.155-.01 11.157-.665 17.93z" fill="#025" fill-rule="evenodd" stroke="#000" stroke-width=".205" stroke-linecap="round" stroke-linejoin="round" />
   <path d="M266.75 306.934l23.97 1.114-.212 12.357-24.607-.478.848-12.993z" fill="#fac53a" fill-rule="evenodd" stroke-linecap="round" stroke-linejoin="round" stroke="#c13c1b" stroke-width=".42" />
   <g fill="none" stroke="#c13c1b" stroke-width="3" stroke-linecap="round" stroke-linejoin="round">
      <path d="M267.698 308.579l21.675.825M267.623 310.529l21.675.825M267.623 312.629l21.675.825M267.548 314.579l21.675.825M267.623 316.604l21.675.675M267.473 318.704l21.75.525" stroke-width=".63" />
   </g>
   <path d="M140.292 768.761c23.779-5.525 41.441-16.17 48.103-21.242.148-.36.422-2.544.415-2.862l2.034-29.799h3.606l-1.91 28.001c-5.87 9.447-35.538 22.974-52.395 25.88l-9.015-.955c-1.052 2.667-2.535 6.653 3.606 7.505 60.093-.215 44.512-1.144 68.261-2 1.596 3.003 13.484 1.635 15.211 1.39 3.617-1.402 4.435-8.159 3.819-9.759-1.367-3.548-2.241-8.851-3.182-13.576-1.473-12.091-.6-24.182-.637-36.274 5.987-37.83 3.849-80.114 1.061-113.489 5.594-51.134 11.774-107.837 14-159.733 27.414-18.16-7.953-67.375-5.09-75.942 3.741-25.387 15.06-47.743 27.152-69.79h.424v2.333l-1.06 14.85c-.559 23.34 3.898 51.921 2.633 72.376-4.924 25.755-2.32 50.397.336 75.901l.213 12.94 19.303.424.849-12.94c3.411-22.414 5.344-44.83 4.242-67.244.4-2.706.314-4.949-.75-7.637 1.147-24.395 1.242-48.79.75-73.184l.212-14c.467-4.06 1.088-8.282 1.485-12.092 1.915-18.879-4.715-28.595-15.485-32.668-15.395-5.822-28.704-8.941-42.638-12.834l-39.904-4.773-42.19 15.91c-18.989 8-16.241 23.247-18.243 36.91l-3.606 14.425c-7.661 26.465-13.972 53.155-18.243 80.185-17.952 21.962-32.756 45.926-44.485 71.848l-5.4 9 10.8 10.5 7.5-9c14.273-14.147 36.825-36.432 47.7-62.4 3.352-2.297 4.221-6.597 4.766-9.413 12.175-28.257 20.966-68.458 24.3-85.349l3.033-15.186.9-2.25h.9v4.95c-1.388 6.55-2.212 13.1-2.4 19.65-1.398 3.239-1.951 4.708 1.2 5.1 1.428 4.342 7.503 10.9 9.9 12.9 9.812 6.863 7.687 15.062 6.6 22.799-11.225 79.878-21.417 114.683 1.8 228.597-1.858 13.574 1.2 24.2 1.8 36.299-3.18 30.6-5.59 61.2-5.4 91.799-.167 38.43-11.757 29.914-60.332 53.579l-7.637-.425c-2.31 2.876-.967 6.182.424 7.213l34.471.08c-5.562-1.43-3.762-4.785-2.924-7.55l9.117 1.022z" fill="#f5ca44" fill-rule="evenodd" stroke="#000" stroke-width=".42" stroke-linecap="round" stroke-linejoin="round" />
   <g fill-rule="evenodd" stroke="#000" stroke-linecap="round" stroke-linejoin="round">
      <path d="M262.657 567.394c2.643-.864 4.81-.534 6.894 0l-1.216-33.075 15.75 1.052c-.481-2.369-.644-4.737 0-7.106l-15.75 1.104h0c3.299-5.895 7.924-11.123 9.588-19.745 3.361-17.425-5.524-16.693-11.688-16.75-6.71-.06-16.616.99-12.495 17.492 1.896 7.59 6.517 13.56 10.245 19.003h0l-17.7-1.104c.595 2.369.537 4.737 0 7.106l17.7-1.052h0l-1.328 33.075z" fill="#025" stroke-width=".21" />
      <path d="M263.985 524.5c-3.401-4.619-6.665-9.132-7.487-15.089-1.662-12.042 4.59-13.387 9.65-13.418 4.497-.027 11.144.611 8.169 13.312-1.397 5.96-3.568 11.32-5.982 15.195-1.51 2.045-3.133 1.71-4.35 0z" fill="#fff" stroke-width=".21" />
   </g>
   <path d="M257.664 474.622c-.974 4.869-3.379 10.024-5.727 15.167-3.105 4.928-3.306 11.216-2.44 17.183l-.318 5.621c8.742 1.047.296-10.62 5.834-14.955l.848 8.061c1.585 1.509 3.148 2.703 4.455.318 1.556 1.743 3.111 1.617 4.667-.318 1.902 2.46 3.455.728 5.09 0 1.745 1.364 3.59 1.849 4.774-1.273.344-8.514 2.891-16.782 2.28-29.273" fill="#f5ca44" fill-rule="evenodd" stroke="#000" stroke-width=".21" stroke-linecap="round" stroke-linejoin="round" />
   <path d="M251.609 249.608l-26.786-7.795-39.166-4.193-27.784 10.413c4.997 22.962 23.07 34.203 45.132 34.974 20.897.727 30.727-4.517 37.644-11.678 6.575-6.807 9.734-15.344 10.96-21.721z" fill="#fff" fill-rule="evenodd" stroke="#000" stroke-width=".22449" stroke-linecap="round" stroke-linejoin="round" />
   <path style="marker:none" d="M240.476 246.351c-4.616 19.074-16.576 26.143-37.797 25.038-20.574-1.072-31.25-13.713-33.374-26.57l-.335-.942" color="#000" fill="none" stroke="#04a" stroke-width="4.001969999999999" stroke-linejoin="round" overflow="visible" />
   <path style="marker:none" d="M230.23 243.408c-4.235 14.92-12.947 18.07-26.994 17.347-13.18-.678-23.292-9.395-23.201-20.207l-.235-.733" color="#000" fill="none" stroke="#308d57" stroke-width="2.45574" overflow="visible" />
   <path style="marker:none" d="M237.062 245.418c-3.53 13.463-11.328 23.64-34.075 22.355-19.206-1.086-28.807-13.556-29.992-24.624l-.211-.688" color="#000" fill="none" stroke="#c13c1b" stroke-width="2.45574" overflow="visible" />
   <path style="marker:none" d="M226.892 242.373c-.072.23-.032.183-.106.42-2.068 6.677-4.924 15.974-23.496 14.331-12.599-1.115-19.168-8.72-19.555-15.743-.018-.518-.2-1.783-.22-2.434l-.136-.443" color="#000" fill="none" stroke="#04a" stroke-width="3.6017099999999997" overflow="visible" />
   <path style="marker:none" d="M233.63 244.454c-4.576 18.08-18.564 20.712-30.813 19.827-16.807-1.218-25.805-11.652-26.307-22.672l-.199-.528" color="#000" fill="none" stroke="#04a" stroke-width="3.6017099999999997" overflow="visible" />
   <path style="marker:none" d="M247.07 248.279c-5.286 20.224-17.287 31.228-43.591 29.957a91.154 91.154 0 01-.33-.016c-30.525-1.583-38.193-21.255-40.567-31.035l-.292-.745" color="#000" fill="none" stroke="#fac53a" stroke-width="8.98317" overflow="visible" />
   <g fill="none" stroke="#c13c1b">
      <path d="M192.546 278.964c.541-1.585.26-4.392-.134-6.233-1.319 1.308-3.155 3.495-3.63 4.995-.914 2.883 2.842 3.932 3.764 1.238z" stroke-width=".22457" />
      <path d="M192.06 278.765c.401-1.174.195-3.252-.093-4.614-.975.969-2.331 2.59-2.683 3.7-.677 2.136 2.093 2.91 2.776.914z" stroke-width=".22457" />
      <path d="M192.067 278.706a2.21 2.21 0 00-1.2-.968c-.67-.216-1.127-.095-1.509.07M192.224 276.576c-.195-.253-.63-.502-.843-.568-.232-.071-.728-.059-.957.001" style="marker:none" color="#000" stroke-linecap="round" stroke-linejoin="round" overflow="visible" stroke-width=".22457" />
   </g>
   <g fill="none" stroke="#c13c1b">
      <path d="M197.257 279.741c.386-1.63-.167-4.396-.736-6.19-1.186 1.429-2.802 3.784-3.13 5.323-.63 2.958 3.21 3.638 3.866.867z" stroke-width=".22457" />
      <path d="M196.755 279.59c.285-1.207-.12-3.255-.54-4.583-.876 1.058-2.07 2.803-2.312 3.943-.467 2.19 2.365 2.693 2.852.64z" stroke-width=".22457" />
      <path d="M196.755 279.53a2.21 2.21 0 00-1.287-.847c-.688-.15-1.131.015-1.495.216M196.706 277.395c-.218-.232-.675-.438-.895-.483-.237-.048-.73.012-.952.094" style="marker:none" color="#000" stroke-linecap="round" stroke-linejoin="round" overflow="visible" stroke-width=".22457" />
   </g>
   <g fill="none" stroke="#c13c1b">
      <path d="M187.747 277.607c.697-1.524.695-4.344.487-6.215-1.443 1.17-3.487 3.164-4.108 4.609-1.196 2.778 2.436 4.195 3.621 1.606z" stroke-width=".22457" />
      <path d="M187.284 277.36c.516-1.128.517-3.216.366-4.6-1.066.867-2.577 2.346-3.038 3.416-.886 2.057 1.794 3.102 2.672 1.184z" stroke-width=".22457" />
      <path d="M187.296 277.302a2.21 2.21 0 00-1.097-1.082c-.645-.281-1.112-.206-1.509-.08M187.665 275.198c-.17-.27-.577-.561-.783-.648-.224-.094-.718-.131-.953-.094" style="marker:none" color="#000" stroke-linecap="round" stroke-linejoin="round" overflow="visible" stroke-width=".22457" />
   </g>
   <g fill="none" stroke="#c13c1b">
      <path d="M206.722 280.292c.052-1.674-1.044-4.273-1.961-5.917-.876 1.637-1.987 4.268-2 5.841-.025 3.025 3.873 2.923 3.961.076z" stroke-width=".22457" />
      <path d="M206.2 280.245c.037-1.24-.77-3.165-1.447-4.383-.646 1.213-1.466 3.162-1.475 4.327-.02 2.24 2.856 2.164 2.922.056z" stroke-width=".22457" />
      <path style="marker:none" d="M206.189 280.187a2.21 2.21 0 00-1.431-.573c-.704-.009-1.106.242-1.422.51M205.713 278.104c-.261-.183-.75-.294-.974-.294-.242 0-.713.158-.914.283" color="#000" stroke-linecap="round" stroke-linejoin="round" overflow="visible" stroke-width=".22457" />
   </g>
   <g fill="none" stroke="#c13c1b">
      <path d="M211.286 280.27c-.015-1.674-1.212-4.228-2.193-5.835-.81 1.671-1.817 4.344-1.768 5.916.093 3.023 3.984 2.768 3.96-.08z" stroke-width=".22457" />
      <path d="M210.762 280.244c-.011-1.24-.894-3.132-1.618-4.322-.598 1.237-1.34 3.217-1.304 4.381.069 2.24 2.94 2.05 2.922-.059z" stroke-width=".22457" />
      <path d="M210.748 280.186a2.21 2.21 0 00-1.452-.515c-.704.018-1.095.284-1.401.566M210.19 278.124c-.267-.173-.76-.264-.983-.255-.243.01-.707.186-.903.318" style="marker:none" color="#000" stroke-linecap="round" stroke-linejoin="round" overflow="visible" stroke-width=".22457" />
   </g>
   <g fill="none" stroke="#c13c1b">
      <path d="M201.945 280.206c.239-1.658-.559-4.363-1.286-6.1-1.054 1.53-2.452 4.02-2.641 5.582-.364 3.002 3.52 3.337 3.927.518z" stroke-width=".22457" />
      <path d="M201.431 280.1c.177-1.227-.41-3.23-.947-4.516-.778 1.133-1.81 2.978-1.95 4.134-.27 2.224 2.596 2.47 2.897.383z" stroke-width=".22457" />
      <path d="M201.427 280.042a2.21 2.21 0 00-1.358-.73c-.698-.087-1.125.117-1.47.349M201.187 277.92c-.239-.212-.712-.377-.935-.402-.24-.027-.726.077-.94.179" style="marker:none" color="#000" stroke-linecap="round" stroke-linejoin="round" overflow="visible" stroke-width=".22457" />
   </g>
   <g fill="none" stroke="#c13c1b">
      <path d="M243.026 263.039c-1.37-.964-4.143-1.479-6.02-1.617.885 1.632 2.472 4.007 3.779 4.883 2.512 1.685 4.57-1.627 2.241-3.266z" stroke-width=".22457" />
      <path d="M242.7 263.45c-1.016-.714-3.068-1.098-4.457-1.203.658 1.207 1.835 2.963 2.803 3.612 1.86 1.248 3.378-1.196 1.653-2.41z" stroke-width=".22457" />
      <path style="marker:none" d="M242.644 263.426a2.21 2.21 0 00-1.264.88c-.395.583-.407 1.056-.356 1.47M240.644 262.679c-.297.116-.658.464-.781.651-.134.203-.26.682-.267.919" color="#000" stroke-linecap="round" stroke-linejoin="round" overflow="visible" stroke-width=".22457" />
   </g>
   <g fill="none" stroke="#c13c1b">
      <path d="M245.549 258.546c-1.459-.825-4.269-1.065-6.15-1.018 1.041 1.537 2.853 3.745 4.24 4.488 2.664 1.43 4.388-2.067 1.91-3.47z" stroke-width=".22457" />
      <path d="M245.263 258.986c-1.08-.61-3.16-.791-4.552-.759.773 1.136 2.116 2.769 3.143 3.32 1.974 1.059 3.245-1.522 1.41-2.56z" stroke-width=".22457" />
      <path d="M245.207 258.969a2.21 2.21 0 00-1.173 1c-.335.619-.3 1.09-.21 1.496M243.142 258.421c-.284.145-.609.526-.713.725-.113.215-.192.704-.175.94" style="marker:none" color="#000" stroke-linecap="round" stroke-linejoin="round" overflow="visible" stroke-width=".22457" />
   </g>
   <g fill="none" stroke="#c13c1b">
      <path d="M240.258 267.08c-1.213-1.157-3.879-2.076-5.715-2.49.634 1.744 1.852 4.328 3.014 5.388 2.235 2.038 4.761-.933 2.7-2.899z" stroke-width=".22457" />
      <path d="M239.874 267.437c-.898-.856-2.87-1.54-4.229-1.849.472 1.291 1.375 3.202 2.236 3.987 1.656 1.51 3.519-.682 1.993-2.138z" stroke-width=".22457" />
      <path style="marker:none" d="M239.823 267.406a2.21 2.21 0 00-1.381.683c-.477.518-.559.984-.57 1.4M237.955 266.37c-.31.072-.72.362-.869.529-.162.18-.358.636-.4.87" color="#000" stroke-linecap="round" stroke-linejoin="round" overflow="visible" stroke-width=".22457" />
   </g>
   <g fill="none" stroke="#c13c1b">
      <path d="M248.55 249.626c-1.603-.489-4.398-.113-6.225.341 1.35 1.275 3.598 3.036 5.113 3.461 2.912.818 3.835-2.97 1.111-3.802z" stroke-width=".22457" />
      <path d="M248.367 250.118c-1.187-.362-3.256-.087-4.609.247 1.001.941 2.667 2.243 3.789 2.558 2.156.606 2.837-2.19.82-2.805z" stroke-width=".22457" />
      <path d="M248.308 250.113a2.21 2.21 0 00-.928 1.23c-.193.678-.057 1.13.12 1.507M246.173 250.027c-.245.203-.48.646-.538.862-.064.234-.035.729.033.956" style="marker:none" color="#000" stroke-linecap="round" stroke-linejoin="round" overflow="visible" stroke-width=".22457" />
   </g>
   <g fill="none" stroke="#c13c1b">
      <path d="M247.186 254c-1.549-.64-4.367-.532-6.23-.254 1.224 1.397 3.294 3.365 4.76 3.933 2.822 1.09 4.102-2.593 1.47-3.68z" stroke-width=".22457" />
      <path d="M246.957 254.472c-1.147-.474-3.233-.397-4.611-.194.907 1.033 2.44 2.488 3.527 2.908 2.09.808 3.033-1.91 1.084-2.714z" stroke-width=".22457" />
      <path d="M246.898 254.461a2.21 2.21 0 00-1.04 1.137c-.257.655-.164 1.12-.024 1.511M244.782 254.172c-.264.179-.54.597-.618.807-.086.227-.104.722-.059.955" style="marker:none" color="#000" stroke-linecap="round" stroke-linejoin="round" overflow="visible" stroke-width=".22457" />
   </g>
   <g fill="none" stroke="#c13c1b">
      <path d="M233.136 273.782c-.833-1.454-3.127-3.095-4.77-4.015.112 1.854.543 4.677 1.355 6.024 1.562 2.59 4.83.462 3.415-2.01z" stroke-width=".22457" />
      <path d="M232.666 274.015c-.617-1.076-2.314-2.293-3.527-2.977.084 1.372.406 3.461 1.008 4.46 1.157 1.918 3.567.347 2.519-1.483z" stroke-width=".22457" />
      <path style="marker:none" d="M232.626 273.971a2.21 2.21 0 00-1.519.261c-.604.361-.815.785-.944 1.18M231.13 272.446c-.318-.02-.792.142-.983.26-.207.127-.525.507-.631.719" color="#000" stroke-linecap="round" stroke-linejoin="round" overflow="visible" stroke-width=".22457" />
   </g>
   <g fill="none" stroke="#c13c1b">
      <path d="M236.749 270.807c-1.058-1.298-3.588-2.545-5.358-3.186.41 1.811 1.295 4.527 2.315 5.724 1.962 2.302 4.84-.33 3.043-2.538z" stroke-width=".22457" />
      <path d="M236.323 271.114c-.784-.962-2.655-1.887-3.964-2.364.306 1.34.964 3.35 1.72 4.236 1.453 1.705 3.576-.236 2.244-1.872z" stroke-width=".22457" />
      <path d="M236.276 271.077a2.21 2.21 0 00-1.456.505c-.537.454-.677.906-.74 1.317M234.553 269.816c-.317.032-.76.268-.928.415-.184.16-.436.586-.506.813" style="marker:none" color="#000" stroke-linecap="round" stroke-linejoin="round" overflow="visible" stroke-width=".22457" />
   </g>
   <g fill="none" stroke="#c13c1b">
      <path d="M229.011 276.207c-.67-1.535-2.773-3.415-4.306-4.508-.09 1.855.032 4.709.694 6.136 1.272 2.744 4.751.982 3.612-1.628z" stroke-width=".22457" />
      <path d="M228.518 276.388c-.496-1.137-2.05-2.53-3.184-3.34-.064 1.372.03 3.484.52 4.54.942 2.033 3.508.733 2.664-1.2z" stroke-width=".22457" />
      <path style="marker:none" d="M228.483 276.34a2.21 2.21 0 00-1.538.095c-.64.294-.895.692-1.066 1.071M227.162 274.662c-.315-.054-.803.055-1.006.151-.22.104-.576.448-.705.647" color="#000" stroke-linecap="round" stroke-linejoin="round" overflow="visible" stroke-width=".22457" />
   </g>
   <g fill="none" stroke="#c13c1b">
      <path d="M220.29 279.125c-.297-1.648-1.91-3.963-3.149-5.38-.516 1.784-1.055 4.589-.74 6.13.604 2.964 4.395 2.053 3.89-.75z" stroke-width=".22457" />
      <path d="M219.77 279.187c-.221-1.22-1.412-2.935-2.327-3.985-.38 1.32-.776 3.397-.543 4.539.447 2.195 3.244 1.522 2.87-.554z" stroke-width=".22457" />
      <path d="M219.747 279.133a2.21 2.21 0 00-1.519-.262c-.69.137-1.03.466-1.285.795M218.848 277.195c-.293-.125-.794-.132-1.013-.085-.238.05-.665.302-.836.467" style="marker:none" color="#000" stroke-linecap="round" stroke-linejoin="round" overflow="visible" stroke-width=".22457" />
   </g>
   <g fill="none" stroke="#c13c1b">
      <path d="M224.693 277.93c-.458-1.612-2.289-3.757-3.66-5.046-.34 1.826-.602 4.67-.138 6.173.89 2.89 4.575 1.613 3.798-1.127z" stroke-width=".22457" />
      <path d="M224.18 278.043c-.34-1.193-1.692-2.783-2.705-3.74-.249 1.352-.44 3.458-.097 4.571.66 2.14 3.378 1.198 2.802-.831z" stroke-width=".22457" />
      <path style="marker:none" d="M224.152 277.99a2.21 2.21 0 00-1.537-.112c-.673.205-.98.565-1.2.918M223.068 276.15c-.304-.096-.803-.053-1.017.015-.23.073-.631.366-.785.546" color="#000" stroke-linecap="round" stroke-linejoin="round" overflow="visible" stroke-width=".22457" />
   </g>
   <g fill="none" stroke="#c13c1b">
      <path d="M215.876 279.884c-.121-1.67-1.478-4.143-2.56-5.684-.703 1.72-1.537 4.45-1.388 6.017.286 3.01 4.153 2.508 3.948-.333z" stroke-width=".22457" />
      <path d="M215.351 279.891c-.09-1.237-1.092-3.069-1.89-4.21-.518 1.273-1.132 3.295-1.022 4.455.212 2.23 3.064 1.859 2.912-.245z" stroke-width=".22457" />
      <path d="M215.334 279.834a2.21 2.21 0 00-1.482-.422c-.701.064-1.075.354-1.362.655M214.646 277.812c-.278-.156-.775-.216-.998-.192-.242.025-.693.23-.88.375" style="marker:none" color="#000" stroke-linecap="round" stroke-linejoin="round" overflow="visible" stroke-width=".22457" />
   </g>
   <g fill="none" stroke="#c13c1b">
      <path d="M178.98 273.714c1.002-1.342 1.596-4.1 1.787-5.972-1.656.839-4.076 2.357-4.989 3.638-1.756 2.462 1.496 4.615 3.201 2.334z" stroke-width=".22457" />
      <path d="M178.578 273.375c.743-.994 1.185-3.034 1.33-4.42-1.225.624-3.015 1.75-3.691 2.698-1.3 1.824 1.098 3.412 2.361 1.722z" stroke-width=".22457" />
      <path style="marker:none" d="M178.603 273.321a2.21 2.21 0 00-.844-1.29c-.571-.41-1.044-.436-1.458-.397M179.407 271.343c-.108-.3-.445-.671-.628-.8-.2-.139-.674-.28-.911-.293" color="#000" stroke-linecap="round" stroke-linejoin="round" overflow="visible" stroke-width=".22457" />
   </g>
   <g fill="none" stroke="#c13c1b">
      <path d="M183.154 275.931c.883-1.423 1.236-4.222 1.264-6.104-1.578.98-3.856 2.7-4.655 4.056-1.536 2.605 1.89 4.468 3.391 2.048z" stroke-width=".22457" />
      <path d="M182.725 275.629c.654-1.055.918-3.126.942-4.518-1.167.726-2.852 2.003-3.443 3.007-1.138 1.93 1.39 3.303 2.501 1.51z" stroke-width=".22457" />
      <path d="M182.745 275.573a2.21 2.21 0 00-.952-1.212c-.605-.36-1.078-.344-1.487-.27M183.375 273.532c-.134-.29-.501-.63-.695-.742-.21-.121-.696-.22-.933-.213" style="marker:none" color="#000" stroke-linecap="round" stroke-linejoin="round" overflow="visible" stroke-width=".22457" />
   </g>
   <g fill="none" stroke="#c13c1b">
      <path d="M175 271.026c1.193-1.176 2.195-3.813 2.666-5.636-1.764.58-4.384 1.717-5.48 2.846-2.106 2.171.785 4.788 2.814 2.79z" stroke-width=".22457" />
      <path d="M174.654 270.63c.884-.87 1.628-2.82 1.979-4.169-1.305.432-3.243 1.276-4.054 2.112-1.56 1.608.573 3.538 2.075 2.058z" stroke-width=".22457" />
      <path d="M174.687 270.58a2.21 2.21 0 00-.64-1.401c-.504-.492-.967-.588-1.382-.612M175.78 268.746c-.062-.313-.34-.73-.502-.885-.175-.167-.624-.378-.856-.427" style="marker:none" color="#000" stroke-linecap="round" stroke-linejoin="round" overflow="visible" stroke-width=".22457" />
   </g>
   <g fill="none" stroke="#c13c1b">
      <path d="M168.179 264.268c1.468-.806 3.151-3.07 4.102-4.694-1.856.077-4.686.456-6.048 1.243-2.619 1.514-.551 4.82 1.946 3.451z" stroke-width=".22457" />
      <path d="M167.954 263.794c1.088-.597 2.336-2.27 3.041-3.472-1.373.06-3.468.343-4.476.926-1.94 1.121-.414 3.56 1.435 2.546z" stroke-width=".22457" />
      <path style="marker:none" d="M167.999 263.755a2.21 2.21 0 00-.234-1.524c-.35-.61-.769-.83-1.162-.966M169.551 262.287c.026-.318-.127-.795-.241-.988-.123-.209-.498-.534-.708-.644" color="#000" stroke-linecap="round" stroke-linejoin="round" overflow="visible" stroke-width=".22457" />
   </g>
   <g fill="none" stroke="#c13c1b">
      <path d="M171.367 267.891c1.335-1.012 2.67-3.496 3.372-5.243-1.824.347-4.57 1.136-5.801 2.114-2.37 1.88.159 4.849 2.429 3.13z" stroke-width=".22457" />
      <path d="M171.075 267.455c.99-.75 1.98-2.587 2.502-3.879-1.35.26-3.381.846-4.294 1.57-1.754 1.393.111 3.582 1.792 2.309z" stroke-width=".22457" />
      <path d="M171.114 267.41a2.21 2.21 0 00-.454-1.473c-.435-.553-.882-.709-1.29-.786M172.435 265.731c-.02-.318-.242-.768-.383-.942-.152-.188-.57-.455-.794-.534" style="marker:none" color="#000" stroke-linecap="round" stroke-linejoin="round" overflow="visible" stroke-width=".22457" />
   </g>
   <g fill="none" stroke="#c13c1b">
      <path d="M165.667 260.357c1.502-.741 3.282-2.929 4.303-4.51-1.857-.005-4.702.25-6.097.978-2.682 1.398-.76 4.791 1.794 3.532z" stroke-width=".22457" />
      <path d="M165.463 259.873c1.113-.549 2.433-2.166 3.19-3.335-1.375 0-3.48.19-4.513.73-1.986 1.035-.569 3.538 1.323 2.605z" stroke-width=".22457" />
      <path style="marker:none" d="M165.51 259.836a2.21 2.21 0 00-.167-1.532c-.323-.625-.733-.862-1.12-1.015M167.124 258.438c.04-.316-.092-.8-.198-.997-.114-.215-.473-.556-.678-.675" color="#000" stroke-linecap="round" stroke-linejoin="round" overflow="visible" stroke-width=".22457" />
   </g>
   <g fill="none" stroke="#c13c1b">
      <path d="M161.972 251.684c1.609-.467 3.745-2.309 5.027-3.688-1.828-.33-4.673-.576-6.174-.105-2.885.907-1.589 4.584 1.147 3.793z" stroke-width=".22457" />
      <path d="M161.856 251.172c1.192-.346 2.775-1.707 3.725-2.725-1.353-.242-3.46-.422-4.57-.073-2.138.672-1.18 3.384.845 2.798z" stroke-width=".22457" />
      <path d="M161.908 251.143a2.21 2.21 0 00.105-1.537c-.209-.673-.57-.978-.924-1.196M163.743 250.05c.094-.305.05-.804-.02-1.017-.075-.231-.37-.63-.55-.783" style="marker:none" color="#000" stroke-linecap="round" stroke-linejoin="round" overflow="visible" stroke-width=".22457" />
   </g>
   <g fill="none" stroke="#c13c1b">
      <path d="M163.505 256.022c1.566-.593 3.548-2.6 4.715-4.077-1.848-.182-4.704-.201-6.162.39-2.804 1.133-1.217 4.695 1.447 3.687z" stroke-width=".22457" />
      <path d="M163.348 255.521c1.16-.44 2.63-1.922 3.495-3.014-1.368-.132-3.482-.143-4.562.294-2.076.84-.906 3.467 1.067 2.72z" stroke-width=".22457" />
      <path style="marker:none" d="M163.398 255.489a2.21 2.21 0 00-.02-1.541c-.26-.654-.645-.929-1.015-1.118M165.14 254.252c.07-.311-.016-.805-.102-1.012-.093-.224-.418-.598-.61-.736" color="#000" stroke-linecap="round" stroke-linejoin="round" overflow="visible" stroke-width=".22457" />
   </g>
   <path d="M251.609 249.608l-26.786-7.795-39.166-4.193-27.784 10.413c4.997 22.962 23.07 34.203 45.132 34.974 20.897.727 30.727-4.517 37.644-11.678 6.575-6.807 9.734-15.344 10.96-21.721z" fill="none" stroke="#000" stroke-width=".22449" stroke-linecap="round" stroke-linejoin="round" />
   <path d="M194.573 251.943c-9.708-5.887-6.833-8.549-11.712-25.604-4.652.07-11.438-.53-13.795-1.593-1.858-.838-2.45-1.853-3.04-3.967-.334-1.199.018-3.116.526-5.185-.654-.917-1.78-1.183-2.697-1.735-.82-1.083-.273-2.216-.15-2.7-.578-.661-1.23-1.706-.832-2.599.664-1.102.918-2.19.29-3.246-2.458-.235-6.94-1.748-4.571-7.194 2.136-4.91 5.463-10.371 8.3-15.622l3.304-10.553c5.754.02 33.414-.187 33.436 9.86l4.456 1 4.033 3.025-.035.12 3.9-.3c-2.11 7.492-4.304 9.756-7.815 68.947-2.567.264-8.47-.032-13.598-2.654z" fill="#f5ca44" fill-rule="evenodd" stroke="#000" stroke-width=".205" />
   <path d="M170.566 176.313c3.29-1.83 6.56-2.31 9.913-2.118 1.75.1 3.971.552 5.809 1.82 7.276 5.016 7.282 4.423 10.034 5.348.13.193.32.392.012.547-1.405-.117-3.37-.73-5.38-1.51-1.874-.728-3.923-2.486-6.842-3.458-2.152-.716-4.592-.797-6.903-.736-2.136.057-4.28.85-6.751 1.64-.565.181-2.077-.317.108-1.533zM169.295 184.439c2.92-3.117 5.586-3.764 7.9-3.992 3.535-.35 8.9.212 11.754 1.38 2.05.839 4.099.487 6.67 1.034.48.103.494.893.003.924-2.411.156-5.117-.253-7.196.51-2.536.931-5.285 2.08-7.028 2.707-1.683.605-3.886 1.023-7.405.128-1.158-.295-2.188-.412-3.421.116-3.077 1.317-3.054-.91-1.277-2.807z" fill-rule="evenodd" stroke="#000" stroke-width=".205" />
   <path d="M162.902 208.67c4.783-.432 6.219 1.733 10.491 1.68M163.928 213.866c5.319.166 6.632-2.23 9.72-2.93" fill="none" stroke="#000" stroke-width=".105" stroke-linecap="round" stroke-linejoin="round" />
   <path d="M163.67 211.21c1.751.371 6.3.062 7.918-.166" fill="none" stroke="#000" stroke-width=".21" stroke-linecap="round" stroke-linejoin="round" />
   <path d="M170.68 185.46c.78-1.43 1.95-1.667 2.98-2.33-.028 1.01.457 1.77 1.294 2.271-1.04-.006-3.711-.203-4.273.06zM182.82 182.131c-.017 1.262-.197 2.472-1.229 3.411 1.794-.29 3.57-1.73 5.026-3.072-1.26.27-2.425-.142-3.798-.339z" fill="#fff" fill-rule="evenodd" stroke="#000" stroke-width=".21" />
   <path d="M165.405 199.705c3.76 3.045 1.74 4.93-.037 4.852-1.758-.078-4.297-3.064-4.929-1.389-.638 1.691 2.85 1.09 2.798.611" fill="none" stroke="#000" stroke-width=".084" />
   <path d="M213.575 195.435c-3.62 2.232-8.034 24.31-8.16 37.745-1.775 25.17-2.18 50.616-4.179 75.77l24.377.964 2-67.234" fill="#025" fill-rule="evenodd" stroke="#000" stroke-width=".205" stroke-linecap="round" stroke-linejoin="round" />
   <path d="M190.86 714.858h27.417c5.987-37.83 3.795-79.902 1.008-113.277 5.594-51.134 11.773-107.837 14-159.733 27.414-18.16-7.954-67.375-5.09-75.942 2.239-15.194 7.334-28.202 13.543-41.808h-89.13c1.428 4.342 7.383 9.25 9.78 11.25 9.813 6.863 7.687 15.062 6.6 22.799-11.225 79.878-21.416 114.683 1.8 228.597-1.857 13.574 1.2 24.2 1.8 36.299-3.18 30.6-5.59 61.2-5.4 91.799l23.672.016z" fill="#c13c1b" fill-rule="evenodd" stroke="#000" stroke-width=".42" stroke-linecap="round" stroke-linejoin="round" />
   <g>
      <path d="M240.932 324.608l-3.097 7.066h-79.016c-2.123-2.145-4.323-4.7-5.512-7.066h87.625z" fill="#fff" fill-rule="evenodd" stroke="#fff" stroke-width=".63" />
      <path d="M153.638 325.725h87.188M158.823 331.82h79.236M157.007 330.172h81.823" fill="none" stroke="#000" stroke-width=".42" stroke-linecap="round" stroke-linejoin="round" />
      <g fill="none" stroke="#000" stroke-width="2" stroke-linecap="round" stroke-linejoin="round">
         <path d="M158.44 325.917v4.027M160.336 325.917v4.027M162.344 325.917v4.027" stroke-width=".42" />
      </g>
      <g fill="none" stroke="#000" stroke-width="2" stroke-linecap="round" stroke-linejoin="round">
         <path d="M173.187 325.917v4.027M175.082 325.917v4.027M177.09 325.917v4.027" stroke-width=".42" />
      </g>
      <g fill="none" stroke="#000" stroke-width="2" stroke-linecap="round" stroke-linejoin="round">
         <path d="M187.362 325.917v4.027M189.258 325.917v4.027M191.267 325.917v4.027" stroke-width=".42" />
      </g>
      <g fill="none" stroke="#000" stroke-width="2" stroke-linecap="round" stroke-linejoin="round">
         <path d="M201.838 325.917v4.027M203.734 325.917v4.027M205.742 325.917v4.027" stroke-width=".42" />
      </g>
      <g fill="none" stroke="#000" stroke-width="2" stroke-linecap="round" stroke-linejoin="round">
         <path d="M217.152 325.917v4.027M219.047 325.917v4.027M221.056 325.917v4.027" stroke-width=".42" />
      </g>
      <g fill="none" stroke="#000" stroke-width="2" stroke-linecap="round" stroke-linejoin="round">
         <path d="M230.728 325.917v4.027M232.624 325.917v4.027M234.632 325.917v4.027" stroke-width=".42" />
      </g>
   </g>
   <path d="M218.78 707.641l-.975 6.996-50.153-.159.062-6.854 51.066.017z" fill="#fff" fill-rule="evenodd" stroke="#fff" stroke-width=".63" />
   <path d="M167.162 708.688h51.834M167.458 714.783h50.72M167.162 713.135h51" fill="none" stroke="#000" stroke-width=".42" stroke-linecap="round" stroke-linejoin="round" />
   <g fill="none" stroke="#000" stroke-width="2" stroke-linecap="round" stroke-linejoin="round">
      <path d="M170.303 708.88v4.027M172.2 708.88v4.027M174.208 708.88v4.027" stroke-width=".42" />
   </g>
   <g fill="none" stroke="#000" stroke-width="2" stroke-linecap="round" stroke-linejoin="round">
      <path d="M183.1 708.88v4.027M184.996 708.88v4.027M187.005 708.88v4.027" stroke-width=".42" />
   </g>
   <g fill="none" stroke="#000" stroke-width="2" stroke-linecap="round" stroke-linejoin="round">
      <path d="M197.258 708.88v4.027M199.154 708.88v4.027M201.162 708.88v4.027" stroke-width=".42" />
   </g>
   <g fill="none" stroke="#000" stroke-width="2" stroke-linecap="round" stroke-linejoin="round">
      <path d="M211.193 708.88v4.027M213.088 708.88v4.027M215.097 708.88v4.027" stroke-width=".42" />
   </g>
   <path d="M167.246 707.28h51.958" fill="none" stroke="#000" stroke-width=".42" stroke-linecap="round" stroke-linejoin="round" />
   <g fill-rule="evenodd" stroke="#000" stroke-linecap="round" stroke-linejoin="round">
      <path d="M149.445 251.259l12.426 72.88h12.494l-18.283-75.392-6.637 2.512z" fill="#fff" stroke-width=".21" />
      <path d="M150.607 250.813l13.177 73.325h8.781l-17.84-74.896-4.118 1.57z" fill="#c13c1b" stroke-width=".21" />
   </g>
   <g fill-rule="evenodd" stroke="#000" stroke-linecap="round" stroke-linejoin="round">
      <path d="M251.205 249.526l-22.578 74.572h10.5l18.027-72.595-5.949-1.977z" fill="#fff" stroke-width=".21" />
      <path d="M252.39 249.916l-21.854 74.182h6.682l18.655-73.073-3.484-1.109z" fill="#c13c1b" stroke-width=".21" />
   </g>
   <g fill-rule="evenodd" stroke="#000" stroke-linecap="round" stroke-linejoin="round">
      <path d="M125.42 290.539l26.279 5.302-2.94 14.559-27.1-5.24 3.762-14.621z" fill="#fac53a" stroke-width=".21" />
      <path d="M124.982 292.21l26.382 5.467-.98 4.792-26.627-5.53 1.225-4.73zM123.39 298.627l26.608 5.617-.98 4.451-26.852-5.34 1.225-4.728z" fill="#04a" stroke-width=".21" />
   </g>
   <g fill-rule="evenodd" stroke="#000" stroke-linecap="round" stroke-linejoin="round">
      <path d="M59.497 456.268l13.374 10.313-8.41 9.88-10.846-10.614 5.882-9.579z" fill="#fac53a" stroke-width=".21" />
      <path d="M58.705 457.556l12.872 10.32-2.48 2.93-12.1-10.334 1.708-2.916zM56.054 461.798l12.122 10.245-2.481 2.931-11.35-10.259 1.709-2.917z" fill="#04a" stroke-width=".21" />
   </g>
   <g stroke="#c13c1b" stroke-width="2">
      <path d="M202.05 296.328l23.97 1.114-.477 12.41-24.342-.531.849-12.993z" fill="#fac53a" fill-rule="evenodd" stroke-linecap="round" stroke-linejoin="round" stroke-width=".42" />
   </g>
   <path d="M253.956 161.531l-21.4 58.56-9.02-3.836 26.134-57.489c-17.765 5.831-53.386 3.35-76.898 1.681.649-1.762 2.509-5.344 2.696-5.344 34.758 3.785 67.594.92 73.532-1.195" fill="#fff" fill-rule="evenodd" stroke="#000" stroke-width=".21" stroke-linecap="round" stroke-linejoin="round" />
   <path d="M250.262 154.083c.313-.252.412-.469.426-.672 2.379-8.935 7.48-8.69 9.308-7.255 4.89 4.267-.155 6.341-4.37 12.086l28.831 59.087-7.609 3.256-23.492-59.054-21.85 58.035-6.994-2.936 26.608-59.246c-15.73 6.698-54.052 4.185-78.134 2.367.808-1.762 1.724-3.667 1.938-3.905 34.759 3.785 69.4.352 75.338-1.763z" fill="#d40000" fill-rule="evenodd" />
   <path d="M255.226 155.5c-1.019-2.565.185-4.736 1.686-5.594" fill="none" stroke="#000" stroke-width=".21" />
   <path d="M253.244 161.531c-1.978-4.808-3.137-6.388-2.616-8.116 2.7-8.948 7.428-8.694 9.255-7.26 4.89 4.268-.154 6.342-4.37 12.087l28.832 59.087-7.61 3.256s-16.643-42.402-23.491-59.054z" fill="none" stroke="#000" stroke-width=".21" stroke-linecap="round" stroke-linejoin="round" />
   <path d="M163.454 203.793c-1.322-.785-2.593-1.743-3.015-.625-.638 1.691 2.85 1.09 2.798.611" fill-rule="evenodd" stroke="#000" stroke-width=".084" />
   <g stroke="#000">
      <path d="M211.875 187.646c-3.654-2.282-3.81-5.887-2.632-7.87 2.826-4.753 5.05-5.618 7.177-5.057 4.112 1.086 3.624 6.183 2.757 10.548-.842 4.237-4.14 7.125-5.921 10.683-1.109 2.214-1.613 3.744-2.347 4.578-.85.965-2.338 2.371-4.43 1.423-2.306-1.046-1.803-3.878-.669-7.453.9-2.835 3.594-5.22 4.962-6.041" fill="#f5ca44" fill-rule="evenodd" stroke-width=".20454" />
      <path d="M208.994 195.488c-.966-.302 2.075-2.944 3.642-5.325 2.022-3.073-.154-4.456-1.149-6.338-1.637-3.098 1.028-7.834 3.861-7.115 3.372.856 4.836 5.2.704 11.733-1.856 2.933-4.94 7.706-7.058 7.045z" fill="none" stroke-width=".21" />
      <path style="marker:none" d="M209.311 199.074a1.312 1.425 0 11-2.625 0 1.312 1.425 0 112.625 0z" color="#000" fill="none" stroke-linecap="round" stroke-linejoin="round" overflow="visible" stroke-width=".21" />
   </g>
   <path d="M171.096 225.339c12.135 1.963 17.545.663 22.006-2.377M183.941 229.905c3.104-.138 6.133-1.402 9.15-2.7M184.841 233.725c4.104.774 6.762-1.538 9.75-2.85" fill="none" stroke="#000" stroke-width=".105" />
   <g fill-rule="evenodd" stroke="#000" stroke-linecap="round" stroke-linejoin="round">
      <path d="M255.695 298.961l26.785 1.097-.234 14.99-27.663-.636 1.112-15.45z" fill="#fac53a" stroke-width=".21" />
      <path d="M255.525 300.68l26.914 1.243-.064 4.887-27.015-1.267.165-4.863zM255.04 307.268l27.235 1.355-.043 4.626-27.582-.818.39-5.163z" fill="#04a" stroke-width=".21" />
   </g>
   <g fill-rule="evenodd" stroke="#000" stroke-linecap="round" stroke-linejoin="round">
      <path d="M166.813 722.376l23.273 1.01-1.105 14.915-24.694-1.424 2.526-14.5z" fill="#fac53a" stroke-width=".21" />
      <path d="M166.552 723.926l23.43 1.25-.237 4.214-24.023-.802.83-4.662zM165.467 730.662l24.044 1.104-.293 4.362-24.604-.761.853-4.705z" fill="#04a" stroke-width=".21" />
   </g>
   <g fill-rule="evenodd" stroke="#000" stroke-linecap="round" stroke-linejoin="round">
      <path d="M193.823 724.504l24.356-.058-.156 14.95-25.316-.291 1.116-14.601z" fill="#fac53a" stroke-width=".21" />
      <path d="M193.687 726.064l24.47.175-.043 4.22-24.671.3.244-4.695zM193.23 732.842l24.812.002-.093 4.746-25.143-.008.424-4.74z" fill="#04a" stroke-width=".21" />
   </g>
   <g fill-rule="evenodd" stroke="#000" stroke-linecap="round" stroke-linejoin="round">
      <path d="M257.68 461.948l20.418.159-.848 12.886-19.463-.742-.106-12.303z" fill="#fac53a" stroke-width=".21" />
      <path d="M257.68 463.804l20.259.265-.208 3.981-19.997-.314-.053-3.932z" fill="#04a" stroke-width=".21" />
      <path d="M257.68 461.948l20.418.159-.848 12.886-19.463-.742-.106-12.303z" fill="#fac53a" stroke-width=".21" />
      <path d="M257.68 463.804l20.259.265-.208 3.981-19.997-.314-.053-3.932zM257.68 468.979l19.94.265-.208 3.981-19.678-.314-.053-3.932z" fill="#04a" stroke-width=".21" />
   </g>
   <g fill="none" stroke="#c13c1b" stroke-width="3" stroke-linecap="round" stroke-linejoin="round">
      <path d="M202.786 297.698l21.675.825M202.711 299.648l21.675.825M202.711 301.748l21.675.825M202.636 303.698l21.675.825M202.711 305.723l21.675.675M202.561 307.823l21.75.525" stroke-width=".63" />
   </g>
   <path d="M25.067 502.562c.657-8.677 3.809-15.484 10.178-20.268M27.745 505.865c.657-8.676 3.72-16.912 10.09-21.696M31.289 506.553c.657-8.676 4.015-16.528 10.385-21.313" fill="none" stroke="#000" stroke-width=".25" />
</svg>