<svg width="449" height="600" xmlns="http://www.w3.org/2000/svg">
    <path d="M69.94 597.53c-2.23-1.36-4.4-3.04-4.85-3.76-.49-.8-2.91-.1-6.26 1.81-6.21 3.55-10.22 3.96-12.46 1.27-3.17-3.81 3.08-13.1 11.79-17.55 11.96-6.09 22.61-7.57 54.4-7.57 29.27 0 29.85-.05 32.52-2.9 7.18-7.63 20.18-40.07 27.79-69.38l3.26-12.55-10.87-52.33c-13.46-64.86-14.94-69.76-26.2-86.74-27.16-40.99-58.25-94.69-67.16-115.94-5.01-12-5.7-15.22-10.94-51.36-8.04-55.38-10.05-66.27-13.71-74.24-5.05-11.05-11.88-16.86-30.14-25.67C8.29 76.36.75 72.04.35 71.01c-1.11-2.89 2.89-10.03 7.61-13.55 2.35-1.76 9.18-5.34 15.2-7.96 13.18-5.74 13.43-5.92 19.03-14.81C53.15 17.29 70.3 5.95 91.72 1.94 101.8.05 103.68.05 114.08 1.93c23.36 4.2 40.34 16.69 61.9 45.5 12.19 16.28 32.03 39.65 66.98 78.92 29.42 33.04 33.07 38.44 37.45 55.45 1.12 4.35 3.98 7.48 18.84 20.56 27.81 24.5 41.5 39.58 56.49 62.27 7.24 10.97 15.9 25.39 19.23 32.04 7.75 15.42 19.21 35.86 34.35 61.29 8.64 14.48 15.34 23.84 24.04 33.58 12.33 13.81 15.64 19.26 15.64 25.8 0 4.73-4.35 10.29-9.83 12.58-5.7 2.38-20.93 2.23-36.51-.35l-12.78-2.12-15.79 5.23c-31.82 10.55-47.92 11.63-83.33 5.59-11.67-1.99-21.44-3.46-21.69-3.25-.25.2 3.39 11.37 8.1 24.8l8.56 24.42-3.88 13.23c-2.12 7.29-7.91 25.93-12.85 41.45-6.19 19.43-8.59 28.69-7.72 29.74.84 1.01 8.8 1.87 23.16 2.47 25.68 1.11 27.34 1.79 34.17 14.09 4.84 8.72 4.99 9.5 2.56 12.83-1.7 2.32-1.99 2.31-10.61-.32-16.83-5.16-61.4-5.03-134.94.39-24.63 1.83-25.85 1.8-28.94-.47-3.13-2.3-3.35-2.3-7.09-.01-3.46 2.1-7.08 2.35-34.74 2.35-28.16 0-31.23-.22-34.91-2.46m58.94-9.21c.78-2.2 3.21-5.13 5.41-6.51l4.01-2.53-29.59.54c-28.93.52-39.88 2-39.88 5.35 0 .68 1.97 2.56 4.37 4.18 4.18 2.81 5.45 2.94 29.34 2.94h24.96l1.38-3.97m48.02 1.43c34.32-2.66 79.17-4.15 100.35-3.34 18.99.72 22.25.55 24.83-1.26 5.84-4.11 1.71-5.27-22.48-6.23-12.52-.5-23.8-1.47-25.07-2.16-4.45-2.37-4.04-6.75 2.6-27.68 9.18-28.97 18.3-59.88 17.81-60.38-.65-.64-13.34 1.03-14.85 1.96-.75.47-4.03 11.23-7.3 23.94-10.46 40.7-17.12 59.4-22.13 62.07-1.31.7-15.1 2.2-30.64 3.31-23.19 1.67-50.34 5.03-51.71 6.39-.17.17.61 1.58 1.7 3.15 1.57 2.24 2.87 2.71 6.09 2.19 2.23-.37 11.6-1.24 20.8-1.96m-9.6-16.18c1.2-.33 3.45-5.06 5.62-11.79 2.01-6.18 9.09-25.06 15.74-41.95 6.65-16.88 11.94-30.86 11.73-31.05-.19-.21-3.98-.04-8.39.35-5.43.49-8.03 1.29-8.03 2.43 0 4.65-19.01 58.18-24.98 70.32l-6.83 13.9 6.57-.83c3.63-.45 7.49-1.08 8.57-1.38m37.89-1.89c9.04-.73 17.59-1.94 18.96-2.67 5.75-3.07 16.84-35.05 23.02-66.31 2.75-13.92 2.76-14.46.55-20.28-1.26-3.28-5.68-10.12-9.84-15.18-11.37-13.86-30.97-33.97-30.27-31.05.33 1.41 1.64 12.19 2.89 23.95l2.29 21.38-9.21 23.58c-11.13 28.54-24.75 65.31-24.75 66.83 0 1.44 6.38 1.37 26.36-.25m-4.77-91.17h4.5l-.88-8.67c-1.4-14.03-5.85-38.62-8.22-45.48-1.49-4.3-6.92-12.13-16.88-24.28-8.08-9.87-14.8-17.8-14.97-17.62-.22.26 14.77 72.63 19.46 93.93.79 3.6 1.01 3.69 6.66 2.92 3.2-.44 7.84-.8 10.33-.8m72.62-1.15c.52-.46-2.52-11.23-6.73-23.94-7.81-23.52-9.03-29.73-6.03-30.87.91-.36 8.57 1.13 17.01 3.3 18.6 4.79 38.26 6.95 54.64 6 12.29-.71 26.19-4.16 48.03-11.94l10.08-3.58 8.79 2.26c4.82 1.25 14.01 2.6 20.4 3.01 12.54.82 18.54-.61 20.85-4.92 1.69-3.15-3.06-10.49-21.56-33.33-12.07-14.89-15.98-20.99-26.8-41.76-30.2-57.99-43.21-78.91-64.05-103.02-10.77-12.44-28.24-28.73-40.22-37.48l-5.25-3.83-1.47 10.97c-.81 6.04-3.03 15.88-4.94 21.87-2.97 9.31-4.31 11.61-9.26 15.97-9.27 8.14-19.81 10.82-42.72 10.82h-18.72l6 7.44c6.85 8.49 13.28 20.63 15.55 29.38 4.64 17.92-11.61 31.23-32.82 26.9-11.97-2.44-17.4-5.33-28.18-15.03-12.17-10.95-22.54-23.34-33.8-40.37-11.45-17.36-16.52-28.73-19.94-44.73-2.52-11.77-2.66-14.18-1.28-21.2 2.54-12.97 10.37-27.73 18.74-35.37 12.58-11.49 31.89-19.07 58.2-22.85 12.69-1.82 17.33-1.93 29.85-.72 13.33 1.3 24.33 3.46 31.53 6.21 2.98 1.13-.6-3.11-37.99-45.05-14.52-16.29-31.94-36.56-38.72-45.04-6.77-8.48-17.28-20.67-23.37-27.1-12.5-13.21-19.69-17.27-36.84-20.81-9.74-2.01-10.33-1.98-20.82.82-20.12 5.37-30.89 12.35-39.3 25.49l-4.36 6.8 2.43 4.83c4.44 8.82 6.93 18.24 6.07 22.87-.45 2.41-2.79 6.95-5.18 10.1l-4.38 5.7 5.11 10.06c6.37 12.54 9.57 27.47 15.94 74.16 5.25 38.57 8.29 50.79 17.23 69.52 6.82 14.27 67.42 112.98 78.18 127.34 8.23 10.99 21.86 26.8 40.29 46.75 20.19 21.84 31.42 34.89 40.14 46.66 16.02 21.57 14.58 20.32 22.11 19.38 3.64-.46 7.05-1.21 7.56-1.67m-61.05-166.59c3.27-2.29 6.72-8.32 6.71-11.74-.02-7.76-8.12-22.2-22.61-40.34-10.11-12.66-9.03-16.22 3.59-11.94 5.23 1.77 10.84 2.3 24.18 2.29 15.1-.02 18.29-.4 24.44-2.93 9.41-3.87 14.92-8.24 17.96-14.19 3.08-6.02 7.77-28.4 7.77-37.06 0-8.15-4.06-20.88-8.54-26.74-22.44-29.38-107.43-25.81-134.39 5.64-5.74 6.71-12.79 24.66-12.71 32.38.11 11.26 3.64 26.16 8.38 35.51 5.27 10.37 24.62 36.62 36.5 49.53 9.13 9.9 18.35 17.02 25.43 19.6 6.85 2.52 19.69 2.51 23.29-.01M44.14 76.82c1.36-1.84 2.1-3.97 1.61-4.74-.54-.89-5.8-1.4-13.99-1.39l-13.11.04 7.45 3.06c4.09 1.68 8.73 3.94 10.3 5.03 3.53 2.46 4.61 2.17 7.74-2m1.66-14.38c.39-.99-.51-4.17-1.99-7.07l-2.69-5.26-12.84 6.43c-7.07 3.54-12.84 6.72-12.84 7.07 0 .35 6.68.63 14.83.63 11.54 0 14.99-.4 15.53-1.8" />
    <path d="M82.88 64.37c-6.01-2.73-10.02-7.29-12.2-13.86-3.02-9.17 3.24-20.29 13.67-24.27 4.85-1.85 6.62-1.96 10.84-.7 11.23 3.36 18.54 14.78 15.64 24.44-2.04 6.81-6.13 11.59-12.31 14.39-6.57 2.98-9.07 2.98-15.64 0m15.57-7.33c4.07-2.67 7.32-9.89 6.29-14-1.08-4.3-7.21-10.38-11.57-11.47-5.07-1.27-5.48.28-.99 3.79 5.87 4.6 7.6 9.62 5.03 14.61-1.13 2.18-3.5 4.9-5.25 6.06-1.75 1.14-3.19 2.66-3.19 3.35 0 1.63 5.74.23 9.68-2.34" />
    <path fill="gold" d="M183.43 478.39c-4.69-21.3-19.68-93.67-19.46-93.93.17-.18 6.89 7.75 14.97 17.62 9.96 12.15 15.39 19.98 16.88 24.28 2.37 6.86 6.82 31.45 8.22 45.48l.88 8.67h-4.5c-2.49 0-7.13.36-10.33.8-5.65.77-5.87.68-6.66-2.92M255.02 477.01c-2.11-2.66-7.35-9.58-11.65-15.36-8.72-11.77-19.95-24.82-40.14-46.66-18.43-19.95-32.06-35.76-40.29-46.75-10.76-14.36-71.36-113.07-78.18-127.34-8.94-18.73-11.98-30.95-17.23-69.52-6.37-46.69-9.57-61.62-15.94-74.16l-5.11-10.06 4.38-5.7c2.39-3.15 4.73-7.69 5.18-10.1.86-4.63-1.63-14.05-6.07-22.87l-2.43-4.83 4.36-6.8c8.54-13.34 19.95-20.62 40.07-25.58 10.62-2.62 11.38-2.65 20.68-.63 16.88 3.66 23.83 7.63 36.21 20.71 6.09 6.43 16.6 18.62 23.37 27.1 6.78 8.48 24.2 28.75 38.72 45.04 37.39 41.94 40.97 46.18 37.99 45.05-7.2-2.75-18.2-4.91-31.53-6.21-32.21-3.12-69.84 6.95-88.05 23.57-8.37 7.64-16.2 22.4-18.74 35.37-1.38 7.02-1.24 9.43 1.28 21.2 3.42 16 8.49 27.37 19.94 44.73 11.26 17.03 21.63 29.42 33.8 40.37 10.78 9.7 16.21 12.59 28.18 15.03 21.21 4.33 37.46-8.98 32.82-26.9-2.27-8.75-8.7-20.89-15.55-29.38l-6-7.44h18.72c22.91 0 33.45-2.68 42.72-10.82 4.95-4.36 6.29-6.66 9.26-15.97 1.91-5.99 4.13-15.83 4.94-21.87l1.47-10.97 5.25 3.83c11.98 8.75 29.45 25.04 40.22 37.48 20.84 24.11 33.85 45.03 64.05 103.02 10.82 20.77 14.73 26.87 26.8 41.76 18.5 22.84 23.25 30.18 21.56 33.33-2.31 4.31-8.31 5.74-20.85 4.92-6.39-.41-15.58-1.76-20.4-3.01l-8.79-2.26-10.08 3.58c-21.84 7.78-35.74 11.23-48.03 11.94-16.38.95-36.04-1.21-54.64-6-8.44-2.17-16.1-3.66-17.01-3.3-3 1.14-1.78 7.35 6.03 30.87 4.21 12.71 7.25 23.48 6.73 23.94-.51.46-3.92 1.21-7.56 1.67-6.5.81-6.69.73-10.46-4.02M98.52 64.37c6.18-2.8 10.27-7.58 12.31-14.39 2.9-9.66-4.41-21.08-15.64-24.44-13.52-4.05-28.92 11.63-24.51 24.97 2.18 6.57 6.19 11.13 12.2 13.86 6.57 2.98 9.07 2.98 15.64 0" />
    <path fill="gold" d="M188.7 312.78c-7.08-2.58-16.3-9.7-25.43-19.6-11.88-12.91-31.23-39.16-36.5-49.53-4.74-9.35-8.27-24.25-8.38-35.51-.08-7.72 6.97-25.67 12.71-32.38 26.96-31.45 111.95-35.02 134.39-5.64 4.48 5.86 8.54 18.59 8.54 26.74 0 8.66-4.69 31.04-7.77 37.06-3.04 5.95-8.55 10.32-17.96 14.19-6.15 2.53-9.34 2.91-24.44 2.93-13.34.01-18.95-.52-24.18-2.29-12.62-4.28-13.7-.72-3.59 11.94 14.49 18.14 22.59 32.58 22.61 40.34.01 3.42-3.44 9.45-6.71 11.74-3.6 2.52-16.44 2.53-23.29.01" />
    <path fill="#eb2e00" d="M88.77 59.38c0-.69 1.47-2.23 3.27-3.4 1.8-1.18 4.18-4.05 5.29-6.37 1.84-3.86 1.84-4.58-.08-8.28-1.16-2.22-3.56-5.01-5.35-6.18-4.87-3.17-1.91-5.07 3.74-2.4 4.66 2.21 7.5 5.5 9.11 10.57 1.13 3.63-2.3 11.09-6.3 13.72-3.94 2.57-9.68 3.97-9.68 2.34" />
    <path fill="#fbc0c0" d="M36.4 78.82c-1.57-1.09-6.21-3.35-10.3-5.03l-7.45-3.06 13.11-.04c8.19-.01 13.45.5 13.99 1.39.9 1.44-3.11 7.8-5.3 8.39-.67.18-2.48-.56-4.05-1.65M15.44 63.61c0-.98 22.89-12.22 24.87-12.22 2.13 0 6.64 9.5 5.43 11.45-.84 1.37-30.3 2.12-30.3.77" />
    <path fill="#ef907a" d="M73.2 589.35c-2.4-1.62-4.37-3.5-4.37-4.18 0-3.35 10.95-4.83 39.88-5.35l29.59-.54-4.01 2.53c-2.2 1.38-4.63 4.31-5.41 6.51l-1.38 3.97h-24.96c-23.89 0-25.16-.13-29.34-2.94M150.01 589.52c-1.09-1.57-1.87-2.98-1.7-3.15 1.37-1.36 28.52-4.72 51.71-6.39 15.54-1.11 29.33-2.61 30.64-3.31 5.01-2.67 11.67-21.37 22.13-62.07 3.27-12.71 6.55-23.47 7.3-23.94 1.51-.93 14.2-2.6 14.85-1.96.49.5-8.63 31.41-17.81 60.38-6.64 20.93-7.05 25.31-2.6 27.68 1.27.69 12.55 1.66 25.07 2.16 24.19.96 28.32 2.12 22.48 6.23-2.58 1.81-5.84 1.98-24.83 1.26-26.59-1.02-102.82 2.32-121.15 5.3-3.22.52-4.52.05-6.09-2.19" />
    <path fill="#ef907a" d="M158.99 561.88c5.98-12.18 24.98-65.67 24.98-70.34 0-1.2 2.49-1.92 8.05-2.34 4.42-.33 8.19-.49 8.38-.35.2.16-5.09 14.1-11.74 30.98-6.65 16.89-13.73 35.77-15.74 41.95-3.87 11.98-3.72 11.84-14.19 13.17l-6.57.83 6.83-13.9" />
</svg>