<svg xmlns="http://www.w3.org/2000/svg" width="350" height="765" version="1.0">
   <path d="M68.986 702.593s.166-2.409.026.793c-.14 3.2.289 42.715-.876 47.968h-1.365c-1.573-5.297-1.171-44.781-1.3-48.04-.129-3.257-.1-.729-.1-.729h0l-.167-443.214c-2.889-.404-2.753-2.31-3.714-7.572-.961-5.263-8.888-7.993-8.708-8.97.18-.978 1.426-.778 2.317-1.232.89-.454 2.28-.77 2.92-1.07.64-.301 2.486-.391 3.472-.56.985-.17 1.455-.323 2.442-.445.988-.122 1.064-.231 3.164-.231s2.176.109 3.163.231c.988.122 1.458.276 2.443.445.985.169 2.831.259 3.471.56.64.3 2.03.616 2.921 1.07.89.454 2.136.254 2.316 1.231.18.978-7.746 3.708-8.707 8.97-.962 5.263-.825 7.17-3.812 7.587z" fill="#308d57" fill-rule="evenodd" stroke="#000" stroke-width=".21" stroke-linecap="round" stroke-linejoin="round" />
   <path d="M161.08 747.128c22.707-4.633 41.798-16.26 48.281-21.421.148-.36.243-2.365.237-2.684l2.034-29.798h3.606l-1.91 28c-5.87 9.448-35.539 22.974-52.395 25.88l-9.016-.954c-1.051 2.667-2.534 6.652 3.606 7.504 60.093-.214 44.513-1.143 68.262-2 1.596 3.003 13.483 1.635 15.211 1.39 3.616-1.401 4.434-8.158 3.818-9.758-1.366-3.549-2.24-8.852-3.181-13.576-1.474-12.091-.6-24.183-.637-36.274 5.987-37.83 3.848-80.114 1.06-113.49 5.595-51.133 11.774-107.836 14.001-159.732 27.414-18.16-7.954-67.376-5.09-75.942 3.741-25.387 15.06-47.744 27.152-69.79h.424v2.333l-1.06 14.849c-.559 23.341 3.898 51.922 2.633 72.377-4.924 25.755-2.32 50.397.336 75.9l.212 12.94 19.304.425.848-12.94c3.412-22.415 5.344-44.83 4.243-67.245.399-2.706.314-4.948-.75-7.636 1.147-24.395 1.242-48.79.75-73.185l.212-14c.466-4.06 1.088-8.281 1.485-12.092 1.915-18.878-4.716-28.594-15.485-32.667-15.396-5.823-28.705-8.941-42.638-12.834l-39.904-4.773-42.19 15.91c-18.99 8-16.242 23.247-18.243 36.91l-3.606 14.425c-7.662 26.465-13.973 53.154-18.243 80.184-17.952 21.962-32.756 45.927-44.485 71.848l-5.4 9 10.8 10.5 7.5-9c14.273-14.146 36.824-36.431 47.699-62.4 3.352-2.296 4.222-6.596 4.767-9.413 12.175-28.256 20.966-68.457 24.3-85.348l3.032-15.186.9-2.25h.9v4.95c-1.388 6.55-2.211 13.1-2.4 19.65-1.398 3.239-1.95 4.707 1.2 5.1 1.429 4.342 7.503 10.9 9.9 12.899 9.813 6.863 7.687 15.062 6.6 22.8-11.225 79.878-21.416 114.682 1.8 228.596-1.857 13.574 1.2 24.2 1.8 36.3-3.18 30.6-5.59 61.199-5.4 91.798-.167 38.431-11.756 29.915-60.331 53.58l-7.637-.425c-2.31 2.875-.968 6.181.424 7.212l34.471.08c-5.562-1.43-3.763-4.785-2.924-7.55l9.117 1.023z" fill="#f5ca44" fill-rule="evenodd" stroke="#000" stroke-width=".42" stroke-linecap="round" stroke-linejoin="round" />
   <path d="M77.95 443.96c-7.608.455-16.967 2.372-23.983 11.689l-3.958 1.954c1.558 4.537 5.693 2.417 7.152.266-.929 1.937-.665 3.257 1.706 3.49-.682 1.823-.126 2.971 2.07 3.224-1.35 1.732-.118 3.492 1.948 3.313-.941 2.293.228 3.417 1.48 3.561 3.207 1.76 19.039-15.308 20.682-16.782" fill="#f5ca44" fill-rule="evenodd" stroke="#000" stroke-width=".21" stroke-linecap="round" stroke-linejoin="round" />
   <g fill-rule="evenodd" stroke="#000" stroke-linecap="round" stroke-linejoin="round" stroke-width=".21">
      <path d="M283.445 545.76c2.643-.863 4.81-.533 6.894 0l-1.216-33.074 15.75 1.052c-.482-2.37-.645-4.738 0-7.107l-15.75 1.105h0c3.299-5.896 7.924-11.124 9.587-19.746 3.362-17.425-5.523-16.693-11.687-16.749-6.71-.06-16.617.989-12.495 17.492 1.895 7.59 6.517 13.56 10.245 19.003h0l-17.7-1.105c.595 2.37.537 4.738 0 7.107l17.7-1.052h0l-1.328 33.074z" fill="#025" />
      <path d="M284.773 502.866c-3.402-4.618-6.666-9.13-7.488-15.088-1.661-12.043 4.591-13.388 9.65-13.418 4.498-.027 11.145.61 8.17 13.312-1.397 5.959-3.568 11.32-5.982 15.194-1.51 2.046-3.133 1.711-4.35 0z" fill="#fff" />
   </g>
   <path d="M278.452 452.989c-.974 4.869-3.379 10.023-5.727 15.167-3.105 4.927-3.307 11.216-2.44 17.183l-.318 5.62c8.742 1.047.296-10.62 5.833-14.954l.849 8.06c1.585 1.51 3.148 2.703 4.455.319 1.555 1.742 3.11 1.616 4.667-.318 1.901 2.459 3.454.728 5.09 0 1.744 1.364 3.59 1.849 4.774-1.273.343-8.514 2.89-16.782 2.28-29.274" fill="#f5ca44" fill-rule="evenodd" stroke="#000" stroke-width=".21" stroke-linecap="round" stroke-linejoin="round" />
   <path d="M211.647 693.225h27.418c5.986-37.83 3.795-79.902 1.007-113.277 5.595-51.134 11.774-107.837 14.001-159.733 27.414-18.16-7.954-67.376-5.091-75.942 2.24-15.194 7.335-28.203 13.544-41.809h-89.131c1.428 4.343 7.384 9.25 9.78 11.25 9.814 6.863 7.688 15.062 6.6 22.8-11.224 79.878-21.415 114.682 1.8 228.596-1.856 13.574 1.2 24.2 1.8 36.3-3.18 30.6-5.59 61.199-5.4 91.798l23.672.017z" fill="#c13c1b" fill-rule="evenodd" stroke="#000" stroke-width=".42" stroke-linecap="round" stroke-linejoin="round" />
   <path d="M261.72 302.974l-3.098 7.067h-79.016c-2.122-2.145-4.322-4.7-5.511-7.067h87.624z" fill="#fff" fill-rule="evenodd" stroke="#fff" stroke-width=".63" />
   <path d="M174.426 304.092h87.187m-82.003 6.095h79.236m-81.052-1.648h81.823M179.228 304.284v4.027m1.896-4.027v4.027m2.008-4.027v4.027M193.974 304.284v4.027m1.896-4.027v4.027m2.008-4.027v4.027M208.15 304.284v4.027m1.896-4.027v4.027m2.008-4.027v4.027M222.625 304.284v4.027m1.896-4.027v4.027m2.009-4.027v4.027M237.94 304.284v4.027m1.895-4.027v4.027m2.008-4.027v4.027M251.516 304.284v4.027m1.895-4.027v4.027m2.009-4.027v4.027" fill="none" stroke="#000" stroke-width=".42" stroke-linecap="round" stroke-linejoin="round" />
   <path d="M239.568 686.008l-.975 6.996-50.153-.16.062-6.854 51.066.018z" fill="#fff" fill-rule="evenodd" stroke="#fff" stroke-width=".63" />
   <path d="M187.95 687.055h51.833m-51.537 6.095h50.72m-51.016-1.648h51M191.091 687.247v4.026m1.896-4.026v4.026m2.008-4.026v4.026M203.888 687.247v4.026m1.896-4.026v4.026m2.008-4.026v4.026M218.045 687.247v4.026m1.896-4.026v4.026m2.009-4.026v4.026M231.98 687.247v4.026m1.896-4.026v4.026m2.009-4.026v4.026M188.034 685.646h51.958" fill="none" stroke="#000" stroke-width=".42" stroke-linecap="round" stroke-linejoin="round" />
   <g fill-rule="evenodd" stroke="#000" stroke-linecap="round" stroke-linejoin="round" stroke-width=".21">
      <path d="M170.233 229.626l12.426 72.879h12.494l-18.283-75.392-6.637 2.513z" fill="#fff" />
      <path d="M171.394 229.18l13.178 73.325h8.78l-17.84-74.897-4.118 1.571z" fill="#c13c1b" />
   </g>
   <g fill-rule="evenodd" stroke="#000" stroke-linecap="round" stroke-linejoin="round" stroke-width=".21">
      <path d="M271.993 227.892l-22.578 74.572h10.5l18.027-72.594-5.949-1.978z" fill="#fff" />
      <path d="M273.177 228.283l-21.853 74.181h6.682l18.654-73.073-3.483-1.108z" fill="#c13c1b" />
   </g>
   <g fill-rule="evenodd" stroke="#000" stroke-linecap="round" stroke-linejoin="round" stroke-width=".21">
      <path d="M146.208 268.906l26.278 5.302-2.938 14.559-27.102-5.24 3.762-14.621z" fill="#fac53a" />
      <path d="M145.77 270.576l26.382 5.468-.981 4.791-26.626-5.53 1.224-4.729zm-1.592 6.417l26.608 5.617-.981 4.452-26.851-5.34 1.224-4.729z" fill="#04a" />
   </g>
   <g fill-rule="evenodd" stroke="#000" stroke-linecap="round" stroke-linejoin="round" stroke-width=".21">
      <path d="M80.285 434.635l13.374 10.312-8.411 9.881-10.845-10.615 5.882-9.578z" fill="#fac53a" />
      <path d="M79.493 435.922l12.872 10.32-2.481 2.931-12.1-10.334 1.71-2.917zm-2.651 4.243l12.121 10.245-2.48 2.93-11.35-10.258 1.709-2.917z" fill="#04a" />
   </g>
   <g fill-rule="evenodd" stroke="#000" stroke-linecap="round" stroke-linejoin="round" stroke-width=".21">
      <path d="M276.483 277.328l26.785 1.096-.234 14.99-27.663-.635 1.112-15.451z" fill="#fac53a" />
      <path d="M276.312 279.047l26.915 1.243-.064 4.886-27.015-1.266.164-4.863zm-.485 6.587l27.235 1.356-.042 4.626-27.582-.819.39-5.163z" fill="#04a" />
   </g>
   <g fill-rule="evenodd" stroke="#000" stroke-linecap="round" stroke-linejoin="round" stroke-width=".21">
      <path d="M187.6 700.743l23.274 1.009-1.106 14.916-24.693-1.424 2.525-14.501z" fill="#fac53a" />
      <path d="M187.34 702.292l23.43 1.25-.237 4.214-24.023-.802.83-4.662zm-1.085 6.737l24.044 1.103-.293 4.363-24.604-.761.853-4.705z" fill="#04a" />
   </g>
   <g fill-rule="evenodd" stroke="#000" stroke-linecap="round" stroke-linejoin="round" stroke-width=".21">
      <path d="M214.611 702.87l24.356-.058-.156 14.951-25.316-.291 1.116-14.602z" fill="#fac53a" />
      <path d="M214.475 704.43l24.47.176-.044 4.22-24.67.3.244-4.696zm-.458 6.78h24.812l-.093 4.747-25.142-.009.423-4.739z" fill="#04a" />
   </g>
   <g fill-rule="evenodd" stroke="#000" stroke-linecap="round" stroke-linejoin="round" stroke-width=".21">
      <path d="M278.468 440.314l20.418.16-.849 12.886-19.463-.742-.106-12.304z" fill="#fac53a" />
      <path d="M278.468 442.17l20.259.265-.209 3.982-19.997-.315-.053-3.932z" fill="#04a" />
      <path d="M278.468 440.314l20.418.16-.849 12.886-19.463-.742-.106-12.304z" fill="#fac53a" />
      <path d="M278.468 442.17l20.259.265-.209 3.982-19.997-.315-.053-3.932zm0 5.175l19.94.265-.208 3.982-19.679-.315-.053-3.932z" fill="#04a" />
   </g>
   <g fill-rule="evenodd" stroke="#000" stroke-linecap="round" stroke-linejoin="round" stroke-width=".21">
      <path d="M67.354 450.91c2.876-1.802 6.043-1.183 3.228 1.628 2.37-1.86 6.8-1.076 1.96 2.738 4.277-2.042 4.187 1.244 1.938 2.886 2.887-1.411 3.366 1.288.33 3.696-3.101 3.182-6.686 6.394-10.148 9.52a.292.292 0 01-.268.062c-1.252-.144-2.414-1.147-1.473-3.44-2.065.18-3.297-1.58-1.948-3.312-2.196-.253-2.752-1.401-2.07-3.225-2.37-.232-2.901-1.219-1.972-3.155.113-.16.22-.28.323-.368 3.694-3.298 7.021-5.602 10.01-6.987m.643-.313c-.299.876.48 2.184 1.992 2.353m.652-.329c-.709.995.931 2.602 1.902 2.638m.262-.12c-1 1.018.086 3.482 2.097 2.686m-.37.338c-.63 1.122.2 2.422 1.228 2.777m-14.687 3.703c.417-.238 11.582-9.394 11.582-9.394m-13.557 6.121c.612-.51 11.617-8.887 11.617-8.887m-7.655 15.46l11.59-9.874" fill="#f5ca44" />
      <path d="M70.55 452.664c-.189.106-.241.347-.65.329-1.847-.174-2.109-2.04-2.008-2.36 2.69-1.402 5.347-.667 2.715 1.962 2.37-1.859 6.775-1.133 1.936 2.68 4.276-2.041 4.246 1.167 1.997 2.809 2.565-1.254 3.17.816 1.142 2.932-1.04-.388-1.87-1.688-1.128-2.917-1.9.69-2.839-1.899-1.97-2.857-1.102.024-2.742-1.583-2.033-2.578z" fill="#fff" />
   </g>
   <path d="M71.424 450.232c-1.71-.823-4.16.258-9.705 4.057l-.424-5.515c5.728-3.138 8.234-3.943 12.993-4.481" fill="#f5ca44" fill-rule="evenodd" />
   <path d="M61.72 454.29c5.545-3.8 8.07-4.881 9.779-4.058m2.736-5.913c-4.759.538-7.305 1.233-13.034 4.53" fill="none" stroke="#000" stroke-width=".21" />
   <path d="M271.16 228.464l-26.787-7.795-39.165-4.193-27.784 10.413c4.997 22.963 23.07 34.203 45.132 34.974 20.896.727 30.726-4.517 37.643-11.678 6.575-6.807 9.734-15.344 10.96-21.721z" fill="#fff" fill-rule="evenodd" stroke="#000" stroke-width=".224" stroke-linecap="round" stroke-linejoin="round" />
   <path d="M260.026 225.207c-4.615 19.074-16.576 26.144-37.797 25.038-20.573-1.072-31.25-13.713-33.374-26.57l-.334-.942" style="marker:none" color="#000" fill="none" stroke="#04a" stroke-width="4.002" stroke-linejoin="round" overflow="visible" />
   <path d="M249.78 222.264c-4.235 14.92-12.946 18.07-26.993 17.347-13.181-.678-23.292-9.395-23.202-20.207l-.235-.733" style="marker:none" color="#000" fill="none" stroke="#308d57" stroke-width="2.456" overflow="visible" />
   <path d="M256.613 224.274c-3.53 13.463-11.328 23.64-34.075 22.355-19.207-1.086-28.807-13.555-29.992-24.624l-.212-.688" style="marker:none" color="#000" fill="none" stroke="#c13c1b" stroke-width="2.456" overflow="visible" />
   <path d="M246.442 221.23c-.072.23-.032.182-.105.42-2.068 6.676-4.925 15.974-23.496 14.33-12.6-1.115-19.169-8.72-19.555-15.743-.019-.518-.201-1.782-.22-2.434l-.137-.443" style="marker:none" color="#000" fill="none" stroke="#04a" stroke-width="3.602" overflow="visible" />
   <path d="M253.18 223.31c-4.576 18.08-18.564 20.712-30.812 19.827-16.808-1.218-25.806-11.652-26.308-22.672l-.198-.527" style="marker:none" color="#000" fill="none" stroke="#04a" stroke-width="3.602" overflow="visible" />
   <path d="M266.62 227.135c-5.286 20.224-17.287 31.228-43.591 29.957l-.32-.016h-.009c-30.526-1.583-38.194-21.255-40.567-31.035l-.293-.745" style="marker:none" color="#000" fill="none" stroke="#fac53a" stroke-width="8.983" overflow="visible" />
   <g fill="none" stroke="#c13c1b" stroke-width=".225">
      <path d="M212.096 257.82c.542-1.585.26-4.392-.133-6.233-1.32 1.308-3.155 3.495-3.63 4.995-.914 2.883 2.841 3.932 3.763 1.238z" />
      <path d="M211.61 257.62c.402-1.173.196-3.25-.093-4.613-.974.969-2.33 2.59-2.683 3.7-.677 2.136 2.094 2.91 2.776.914z" />
      <path style="marker:none" d="M211.617 257.562a2.21 2.21 0 00-1.199-.968c-.67-.216-1.127-.095-1.51.07m2.867-1.232c-.195-.252-.63-.502-.844-.568-.232-.07-.728-.059-.957.001" color="#000" stroke-linecap="round" stroke-linejoin="round" overflow="visible" />
   </g>
   <g fill="none" stroke="#c13c1b" stroke-width=".225">
      <path d="M216.808 258.597c.385-1.63-.167-4.396-.737-6.19-1.186 1.429-2.801 3.784-3.129 5.323-.63 2.958 3.209 3.638 3.866.867z" />
      <path d="M216.305 258.446c.286-1.207-.12-3.255-.54-4.583-.875 1.059-2.069 2.804-2.312 3.943-.467 2.191 2.366 2.693 2.852.64z" />
      <path style="marker:none" d="M216.306 258.387a2.21 2.21 0 00-1.287-.848c-.688-.15-1.131.016-1.496.216m2.734-1.504c-.219-.232-.676-.438-.895-.483-.238-.048-.73.012-.952.094" color="#000" stroke-linecap="round" stroke-linejoin="round" overflow="visible" />
   </g>
   <g fill="none" stroke="#c13c1b" stroke-width=".225">
      <path d="M207.298 256.463c.696-1.524.694-4.344.486-6.215-1.442 1.17-3.486 3.164-4.108 4.61-1.196 2.777 2.437 4.194 3.622 1.605z" />
      <path d="M206.834 256.216c.516-1.128.518-3.216.366-4.6-1.066.867-2.577 2.346-3.037 3.416-.886 2.058 1.794 3.102 2.671 1.184z" />
      <path style="marker:none" d="M206.847 256.158a2.21 2.21 0 00-1.097-1.082c-.645-.281-1.113-.206-1.51-.08m2.975-.942c-.169-.27-.576-.561-.783-.648-.224-.094-.718-.131-.952-.094" color="#000" stroke-linecap="round" stroke-linejoin="round" overflow="visible" />
   </g>
   <g fill="none" stroke="#c13c1b" stroke-width=".225">
      <path d="M226.273 259.148c.051-1.674-1.044-4.273-1.962-5.917-.875 1.637-1.986 4.268-2 5.842-.025 3.024 3.873 2.922 3.962.075z" />
      <path d="M225.75 259.101c.038-1.24-.77-3.165-1.447-4.383-.646 1.213-1.465 3.162-1.475 4.327-.019 2.24 2.857 2.164 2.922.056z" />
      <path d="M225.739 259.043a2.21 2.21 0 00-1.43-.573c-.705-.009-1.106.242-1.423.511m2.377-2.021c-.26-.183-.75-.294-.973-.293-.243 0-.713.157-.915.282" style="marker:none" color="#000" stroke-linecap="round" stroke-linejoin="round" overflow="visible" />
   </g>
   <g fill="none" stroke="#c13c1b" stroke-width=".225">
      <path d="M230.836 259.127c-.014-1.675-1.211-4.23-2.192-5.836-.811 1.671-1.818 4.344-1.769 5.916.094 3.023 3.985 2.768 3.961-.08z" />
      <path d="M230.312 259.1c-.01-1.24-.894-3.132-1.618-4.322-.598 1.237-1.34 3.217-1.304 4.381.07 2.24 2.94 2.05 2.922-.059z" />
      <path style="marker:none" d="M230.299 259.042a2.21 2.21 0 00-1.452-.515c-.704.019-1.095.284-1.402.566m2.296-2.113c-.267-.173-.76-.264-.984-.255-.243.01-.706.186-.902.318" color="#000" stroke-linecap="round" stroke-linejoin="round" overflow="visible" />
   </g>
   <g fill="none" stroke="#c13c1b" stroke-width=".225">
      <path d="M221.496 259.062c.238-1.658-.56-4.363-1.287-6.1-1.054 1.53-2.452 4.02-2.641 5.582-.364 3.002 3.521 3.337 3.928.518z" />
      <path d="M220.982 258.957c.176-1.228-.411-3.231-.947-4.517-.778 1.133-1.81 2.978-1.95 4.134-.27 2.224 2.596 2.47 2.897.383z" />
      <path style="marker:none" d="M220.977 258.898a2.21 2.21 0 00-1.358-.73c-.698-.087-1.125.117-1.47.35m2.588-1.743c-.238-.211-.711-.376-.934-.4-.241-.028-.726.076-.94.178" color="#000" stroke-linecap="round" stroke-linejoin="round" overflow="visible" />
   </g>
   <g fill="none" stroke="#c13c1b" stroke-width=".225">
      <path d="M262.577 241.895c-1.37-.964-4.143-1.479-6.021-1.617.886 1.632 2.472 4.007 3.779 4.883 2.512 1.685 4.57-1.627 2.242-3.266z" />
      <path d="M262.25 242.305c-1.015-.713-3.067-1.097-4.456-1.202.658 1.207 1.834 2.963 2.802 3.612 1.86 1.248 3.379-1.196 1.654-2.41z" />
      <path d="M262.195 242.282a2.21 2.21 0 00-1.265.88c-.394.584-.406 1.056-.356 1.47m-.38-3.097c-.297.117-.658.464-.78.651-.134.203-.261.682-.267.919" style="marker:none" color="#000" stroke-linecap="round" stroke-linejoin="round" overflow="visible" />
   </g>
   <g fill="none" stroke="#c13c1b" stroke-width=".225">
      <path d="M265.099 237.402c-1.458-.825-4.268-1.065-6.15-1.018 1.042 1.537 2.853 3.745 4.24 4.488 2.665 1.43 4.388-2.067 1.91-3.47z" />
      <path d="M264.814 237.842c-1.08-.61-3.16-.791-4.552-.759.772 1.136 2.116 2.769 3.143 3.32 1.973 1.059 3.245-1.522 1.409-2.56z" />
      <path style="marker:none" d="M264.757 237.825a2.21 2.21 0 00-1.172 1c-.336.619-.301 1.09-.21 1.496m-.682-3.044c-.284.145-.61.526-.713.725-.113.215-.193.704-.176.94" color="#000" stroke-linecap="round" stroke-linejoin="round" overflow="visible" />
   </g>
   <g fill="none" stroke="#c13c1b" stroke-width=".225">
      <path d="M259.808 245.935c-1.212-1.156-3.878-2.075-5.715-2.49.635 1.746 1.852 4.329 3.015 5.389 2.235 2.038 4.76-.933 2.7-2.899z" />
      <path d="M259.424 246.293c-.898-.856-2.87-1.54-4.228-1.849.471 1.291 1.375 3.202 2.236 3.987 1.655 1.51 3.518-.682 1.992-2.138z" />
      <path d="M259.373 246.262a2.21 2.21 0 00-1.38.683c-.477.518-.56.984-.57 1.4m.082-3.119c-.31.072-.719.362-.868.529-.162.18-.359.636-.4.87" style="marker:none" color="#000" stroke-linecap="round" stroke-linejoin="round" overflow="visible" />
   </g>
   <g fill="none" stroke="#c13c1b" stroke-width=".225">
      <path d="M268.1 228.482c-1.602-.489-4.398-.113-6.225.341 1.35 1.275 3.599 3.037 5.113 3.462 2.912.817 3.836-2.971 1.112-3.803z" />
      <path d="M267.917 228.974c-1.186-.362-3.256-.087-4.608.247 1 .941 2.666 2.243 3.788 2.558 2.157.606 2.838-2.19.82-2.805z" />
      <path style="marker:none" d="M267.858 228.97a2.21 2.21 0 00-.927 1.23c-.194.677-.057 1.13.12 1.506m-1.327-2.823c-.246.203-.48.646-.539.862-.063.234-.035.73.033.956" color="#000" stroke-linecap="round" stroke-linejoin="round" overflow="visible" />
   </g>
   <g fill="none" stroke="#c13c1b" stroke-width=".225">
      <path d="M266.736 232.855c-1.548-.639-4.367-.531-6.229-.253 1.223 1.397 3.293 3.365 4.76 3.933 2.821 1.09 4.101-2.593 1.47-3.68z" />
      <path d="M266.507 233.328c-1.146-.473-3.233-.397-4.61-.193.906 1.032 2.44 2.487 3.527 2.907 2.09.808 3.033-1.91 1.083-2.714z" />
      <path style="marker:none" d="M266.449 233.317a2.21 2.21 0 00-1.04 1.137c-.257.655-.165 1.12-.025 1.511m-1.051-2.937c-.264.179-.54.597-.619.807-.085.227-.104.722-.058.955" color="#000" stroke-linecap="round" stroke-linejoin="round" overflow="visible" />
   </g>
   <g fill="none" stroke="#c13c1b" stroke-width=".225">
      <path d="M252.686 252.638c-.833-1.454-3.127-3.095-4.769-4.015.111 1.854.542 4.677 1.355 6.024 1.562 2.59 4.83.462 3.414-2.01z" />
      <path d="M252.216 252.871c-.617-1.076-2.313-2.293-3.527-2.976.084 1.371.407 3.46 1.008 4.458 1.157 1.919 3.567.348 2.52-1.482z" />
      <path d="M252.176 252.827a2.21 2.21 0 00-1.519.262c-.604.36-.815.784-.944 1.18m.967-2.967c-.318-.02-.792.142-.983.26-.207.127-.525.507-.63.719" style="marker:none" color="#000" stroke-linecap="round" stroke-linejoin="round" overflow="visible" />
   </g>
   <g fill="none" stroke="#c13c1b" stroke-width=".225">
      <path d="M256.3 249.663c-1.059-1.298-3.589-2.545-5.359-3.186.411 1.811 1.295 4.527 2.316 5.724 1.962 2.302 4.84-.329 3.042-2.538z" />
      <path d="M255.873 249.97c-.783-.962-2.655-1.887-3.963-2.364.306 1.34.963 3.35 1.72 4.236 1.452 1.705 3.575-.236 2.243-1.872z" />
      <path style="marker:none" d="M255.827 249.933a2.21 2.21 0 00-1.456.505c-.538.454-.677.906-.74 1.318m.472-3.084c-.317.032-.759.268-.928.415-.183.16-.435.586-.505.813" color="#000" stroke-linecap="round" stroke-linejoin="round" overflow="visible" />
   </g>
   <g fill="none" stroke="#c13c1b" stroke-width=".225">
      <path d="M248.561 255.063c-.67-1.535-2.773-3.415-4.306-4.508-.09 1.855.033 4.709.695 6.136 1.272 2.744 4.75.982 3.611-1.628z" />
      <path d="M248.069 255.244c-.497-1.137-2.051-2.53-3.184-3.34-.065 1.372.03 3.484.52 4.54.942 2.033 3.508.733 2.664-1.2z" />
      <path d="M248.034 255.196a2.21 2.21 0 00-1.538.096c-.64.293-.896.691-1.067 1.07m1.283-2.844c-.314-.054-.803.055-1.005.151-.22.104-.577.448-.706.647" style="marker:none" color="#000" stroke-linecap="round" stroke-linejoin="round" overflow="visible" />
   </g>
   <g fill="none" stroke="#c13c1b" stroke-width=".225">
      <path d="M239.841 257.981c-.298-1.648-1.91-3.963-3.15-5.38-.515 1.784-1.054 4.589-.74 6.13.604 2.964 4.396 2.053 3.89-.75z" />
      <path d="M239.32 258.044c-.22-1.221-1.411-2.936-2.327-3.986-.38 1.32-.776 3.397-.543 4.539.448 2.195 3.245 1.522 2.87-.553z" />
      <path style="marker:none" d="M239.297 257.989a2.21 2.21 0 00-1.518-.262c-.69.137-1.031.466-1.285.795m1.904-2.471c-.293-.125-.794-.132-1.013-.085-.237.05-.664.303-.835.467" color="#000" stroke-linecap="round" stroke-linejoin="round" overflow="visible" />
   </g>
   <g fill="none" stroke="#c13c1b" stroke-width=".225">
      <path d="M244.243 256.786c-.458-1.611-2.288-3.757-3.66-5.046-.34 1.826-.602 4.67-.138 6.173.891 2.89 4.576 1.613 3.798-1.127z" />
      <path d="M243.73 256.9c-.339-1.194-1.691-2.784-2.705-3.74-.248 1.352-.44 3.457-.096 4.57.66 2.14 3.378 1.198 2.802-.83z" />
      <path d="M243.702 256.847a2.21 2.21 0 00-1.536-.113c-.674.205-.98.565-1.201.918m1.654-2.646c-.304-.096-.804-.053-1.017.015-.231.073-.632.366-.786.546" style="marker:none" color="#000" stroke-linecap="round" stroke-linejoin="round" overflow="visible" />
   </g>
   <g fill="none" stroke="#c13c1b" stroke-width=".225">
      <path d="M235.426 258.74c-.121-1.67-1.478-4.143-2.56-5.684-.702 1.72-1.536 4.45-1.387 6.017.286 3.01 4.153 2.508 3.947-.333z" />
      <path d="M234.902 258.747c-.09-1.237-1.092-3.069-1.89-4.21-.518 1.273-1.133 3.295-1.023 4.455.212 2.23 3.065 1.859 2.913-.245z" />
      <path style="marker:none" d="M234.885 258.69a2.21 2.21 0 00-1.482-.422c-.701.064-1.075.354-1.363.655m2.157-2.255c-.278-.156-.776-.215-.999-.192-.241.025-.692.23-.88.375" color="#000" stroke-linecap="round" stroke-linejoin="round" overflow="visible" />
   </g>
   <g fill="none" stroke="#c13c1b" stroke-width=".225">
      <path d="M198.53 252.57c1.002-1.342 1.596-4.1 1.788-5.972-1.657.839-4.076 2.357-4.99 3.638-1.755 2.462 1.496 4.615 3.202 2.334z" />
      <path d="M198.129 252.231c.742-.994 1.185-3.034 1.33-4.42-1.226.624-3.015 1.75-3.691 2.698-1.301 1.824 1.098 3.412 2.36 1.722z" />
      <path d="M198.153 252.177a2.21 2.21 0 00-.843-1.29c-.572-.41-1.044-.436-1.458-.397m3.106-.291c-.108-.3-.445-.671-.629-.8-.199-.139-.674-.28-.91-.292" style="marker:none" color="#000" stroke-linecap="round" stroke-linejoin="round" overflow="visible" />
   </g>
   <g fill="none" stroke="#c13c1b" stroke-width=".225">
      <path d="M202.705 254.787c.882-1.423 1.235-4.222 1.264-6.104-1.578.98-3.857 2.7-4.656 4.056-1.536 2.605 1.89 4.468 3.392 2.048z" />
      <path d="M202.276 254.485c.653-1.055.918-3.125.941-4.518-1.166.726-2.851 2.003-3.443 3.007-1.138 1.93 1.39 3.303 2.502 1.51z" />
      <path style="marker:none" d="M202.295 254.429a2.21 2.21 0 00-.952-1.212c-.605-.36-1.077-.344-1.487-.27m3.07-.559c-.134-.29-.502-.63-.696-.742-.21-.121-.696-.22-.933-.213" color="#000" stroke-linecap="round" stroke-linejoin="round" overflow="visible" />
   </g>
   <g fill="none" stroke="#c13c1b" stroke-width=".225">
      <path d="M194.55 249.882c1.193-1.176 2.195-3.813 2.666-5.636-1.764.58-4.384 1.717-5.48 2.846-2.105 2.171.785 4.788 2.814 2.79z" />
      <path d="M194.205 249.487c.883-.871 1.628-2.822 1.978-4.17-1.304.432-3.242 1.276-4.054 2.112-1.56 1.608.573 3.538 2.076 2.058z" />
      <path style="marker:none" d="M194.237 249.437a2.21 2.21 0 00-.64-1.402c-.503-.492-.966-.588-1.382-.612m3.115.179c-.062-.313-.339-.73-.501-.885-.176-.167-.625-.378-.857-.427" color="#000" stroke-linecap="round" stroke-linejoin="round" overflow="visible" />
   </g>
   <g fill="none" stroke="#c13c1b" stroke-width=".225">
      <path d="M187.73 243.124c1.468-.806 3.15-3.07 4.101-4.694-1.855.077-4.686.456-6.048 1.243-2.618 1.514-.55 4.82 1.946 3.451z" />
      <path d="M187.505 242.65c1.087-.597 2.335-2.27 3.04-3.472-1.372.06-3.467.343-4.476.926-1.94 1.121-.414 3.56 1.436 2.546z" />
      <path d="M187.55 242.61a2.21 2.21 0 00-.234-1.523c-.35-.61-.77-.83-1.162-.966m2.948 1.022c.025-.317-.127-.795-.241-.987-.124-.21-.498-.535-.708-.645" style="marker:none" color="#000" stroke-linecap="round" stroke-linejoin="round" overflow="visible" />
   </g>
   <g fill="none" stroke="#c13c1b" stroke-width=".225">
      <path d="M190.918 246.747c1.334-1.012 2.669-3.496 3.372-5.243-1.825.347-4.57 1.136-5.802 2.114-2.369 1.88.16 4.849 2.43 3.13z" />
      <path d="M190.626 246.311c.989-.75 1.979-2.587 2.501-3.879-1.35.26-3.38.846-4.293 1.57-1.755 1.393.11 3.583 1.792 2.309z" />
      <path style="marker:none" d="M190.664 246.266a2.21 2.21 0 00-.453-1.473c-.435-.553-.882-.708-1.29-.786m3.065.58c-.021-.318-.242-.767-.383-.942-.153-.188-.57-.455-.794-.533" color="#000" stroke-linecap="round" stroke-linejoin="round" overflow="visible" />
   </g>
   <g fill="none" stroke="#c13c1b" stroke-width=".225">
      <path d="M185.217 239.213c1.503-.741 3.283-2.929 4.303-4.51-1.857-.005-4.701.25-6.096.978-2.682 1.398-.761 4.791 1.793 3.532z" />
      <path d="M185.014 238.73c1.112-.55 2.432-2.167 3.19-3.336-1.375 0-3.48.19-4.513.73-1.987 1.035-.57 3.538 1.323 2.606z" />
      <path d="M185.06 238.692a2.21 2.21 0 00-.167-1.532c-.322-.625-.732-.862-1.119-1.015m2.901 1.149c.04-.316-.093-.8-.198-.997-.114-.214-.474-.555-.679-.675" style="marker:none" color="#000" stroke-linecap="round" stroke-linejoin="round" overflow="visible" />
   </g>
   <g fill="none" stroke="#c13c1b" stroke-width=".225">
      <path d="M181.523 230.54c1.608-.467 3.744-2.309 5.026-3.688-1.827-.329-4.673-.576-6.173-.105-2.886.907-1.589 4.585 1.147 3.793z" />
      <path d="M181.407 230.028c1.191-.346 2.774-1.707 3.724-2.725-1.353-.242-3.459-.422-4.57-.073-2.138.672-1.18 3.384.846 2.798z" />
      <path style="marker:none" d="M181.459 230a2.21 2.21 0 00.104-1.538c-.208-.673-.57-.978-.924-1.196m2.654 1.64c.095-.305.05-.804-.02-1.017-.074-.23-.369-.63-.55-.783" color="#000" stroke-linecap="round" stroke-linejoin="round" overflow="visible" />
   </g>
   <g fill="none" stroke="#c13c1b" stroke-width=".225">
      <path d="M183.055 234.878c1.566-.593 3.548-2.6 4.716-4.077-1.848-.182-4.704-.201-6.162.39-2.804 1.133-1.217 4.695 1.446 3.687z" />
      <path d="M182.899 234.378c1.16-.44 2.629-1.923 3.495-3.015-1.368-.132-3.482-.143-4.562.294-2.077.84-.906 3.467 1.067 2.72z" />
      <path d="M182.948 234.345a2.21 2.21 0 00-.019-1.54c-.26-.655-.646-.93-1.016-1.12m2.777 1.423c.07-.31-.015-.805-.101-1.012-.093-.224-.419-.598-.611-.736" style="marker:none" color="#000" stroke-linecap="round" stroke-linejoin="round" overflow="visible" />
   </g>
   <path d="M271.16 228.464l-26.787-7.795-39.165-4.193-27.784 10.413c4.997 22.963 23.07 34.203 45.132 34.974 20.896.727 30.726-4.517 37.643-11.678 6.575-6.807 9.734-15.344 10.96-21.721z" fill="none" stroke="#000" stroke-width=".224" stroke-linecap="round" stroke-linejoin="round" />
   <g>
      <path d="M210.216 152.49l3.85-10.48 8.713 3.283-4.735 9.597-7.828-2.4z" fill="#e9ddaf" fill-rule="evenodd" stroke="#e9ddaf" />
      <path d="M229.65 217.458c-1.205-.011-3.91.129-6.65 1.573-2.737-.347-6.618.937-8.083 1.975-2.224-.084-4.862-.153-7.206 1.673-1.451-3.618-3.068-8.78-5.16-16.116-10.834-4.958-27.748-1.765-30.24-11.831-.56-.04-1.011-.443-1.145-1.682-2.628-.75-4.705-2.895-8.086-9.538-6.125 1.564-6.794-4.248-3.366-5.711 3.703-8.492 11.268-14.09 16.628-18.898 4.806-10.915 19.307-8.74 27.617-14.908 8.161-11.587 19.054-9.878 21.33-3.216 1.976 5.79-3.746 12.164-9.883 12.058 5.905-3.585 4.939-7.908 3.4-8.517-1.009-.4-2.695-.998-3.659 1.51-.761 1.98-1.694 4.722-3.775 5.753l7.802 4.721" fill="#308d57" fill-rule="evenodd" stroke="#000" stroke-width=".101" />
      <path d="M185.987 192.692c-2.791-2.524-6.519-.576-9.799-.154-5.705.734-7.788 1.508-13.15-9.026-6.124 1.564-6.794-4.248-3.366-5.711 3.703-8.492 11.269-14.09 16.628-18.898 4.806-10.915 19.591-8.771 27.902-14.94 8.16-11.586 18.927-9.846 21.234-3.184 2.001 5.78-3.935 12.26-10.072 12.058 5.905-3.585 4.94-7.908 3.4-8.517-1.008-.4-2.695-.998-3.658 1.51-.762 1.98-1.694 4.722-3.776 5.753" fill="none" stroke="#000" stroke-width=".303" />
      <path d="M207.657 222.648c-1.448-3.617-3.061-8.77-5.147-16.085-10.834-4.958-27.749-1.765-30.242-11.831-.558-.04-1.01-.443-1.02-1.428" fill="none" stroke="#000" stroke-width=".303" />
      <path d="M179.38 200.661c-1.887-1.89-3.136-4.194-4.255-7.428-1.062.202-2.185.179-3.534 0-.111.531.685 1 1.046 1.154 3.01 5.552 4.054 5.303 6.743 6.274z" fill="#e9ddaf" fill-rule="evenodd" stroke="#e9ddaf" stroke-width=".101" stroke-linecap="round" stroke-linejoin="round" />
      <path d="M163.946 183.496l-.577-.793c-9.278.884-1.595-7.471 1.082-.721 2.569 3.965 4.994 8.128 10.458 8.077.597.777 2.228 1.656.144 2.164-6.45 1.452-9.015-3.262-11.107-8.727z" fill="#e9ddaf" fill-rule="evenodd" stroke="#e9ddaf" stroke-width=".101" />
      <path d="M187.206 190.745c1.16.692 2.09 2.532.324 4.11m1.767-3.966c.853 1.461 1.22 2.963-.216 4.616" fill="none" stroke="#000" stroke-width=".101" />
      <g fill-rule="evenodd" stroke="#000" stroke-linecap="round" stroke-linejoin="round">
         <path d="M181.958 166.938c.647-.56.948-4.43 1.224-6.528 2.306-1.704 4.38-3.59 7.854-4.385 3.297 1.87 3.875 4.011 1.734 6.425-3.913 3.78-9.46 2.578-10.357 4.726-.35.41-.527.085-.455-.238z" fill="#fff" stroke-width="1.01" />
         <path d="M189.789 156.93c-2.26.157-4.48 1.741-5.693 3.407 1.362 7.947 11.314 2.673 5.693-3.408z" fill="#c13c1b" stroke-width=".606" />
         <path style="marker:none" d="M188.782 159.743c.495.386.373 1.192-.05 1.734-.422.541-1.184.632-1.679.246-.494-.386-.48-1.012-.058-1.554.423-.541 1.293-.812 1.787-.426z" color="#000" stroke-width=".05" overflow="visible" />
      </g>
      <path d="M195.268 203.605c9.763-13.116 18.597-33.96 19.991-46.917l4.59-.714c1.855 16.91-4.307 34.61-17.543 49.467l-7.038-1.836z" fill="#e9ddaf" fill-rule="evenodd" stroke="#e9ddaf" stroke-width=".404" stroke-linecap="round" stroke-linejoin="round" />
      <path d="M202.306 146.743c7.01 15.526 27.666 12.562 27.845-10.25-2.166.178-3.614.954-6.528.51 9.317 10.46-10.319 25.831-17.85 7.496l-3.467 2.244z" fill="#e9ddaf" fill-rule="evenodd" stroke="#e9ddaf" stroke-width=".303" stroke-linecap="round" stroke-linejoin="round" />
      <path d="M202.663 146.998c1.457-.001 2.588-.436 3.468-.918m-2.856 2.04c1.226-.048 2.326-.435 3.264-.867m-2.499 2.091c.969-.271 2.142-.48 3.11-1.224m-1.886 2.754c1.049-.286 2.042-.665 2.805-1.428m-1.683 2.703c1.039-.394 1.952-.956 2.703-1.734m-1.275 2.907c.95-.42 1.841-.989 2.6-1.887m-1.07 3.009c.882-.45 1.643-1.265 2.448-2.193m-.51 3.111l1.938-2.55m.125 3.192l1.2-2.835m.867 3.014l.204-2.912m1.53-.051l.138 2.762m1.066-2.979l.632 2.605m.744-2.985c.062.931.34 1.79.786 2.433m.03-2.803c.31.778 1.016 1.485 1.806 1.783m-.723-2.476c.37.713.78 1.377 1.92 1.609m-.945-2.397c.434.654.898 1.016 2.123 1.179m-1.049-2.124c.597.44 1.164.729 2.24.69m-1.364-1.908c.693.407 1.462.497 2.435.531m-1.73-1.836c.466.237 1.654.557 2.264.501m-1.859-1.47l2.651-.05m-2.141-1.225l2.6-.357m-2.424-1.02c.678-.04 2.293-.642 2.781-.969m-2.781-.336l3.187-1.76m-3.391.347l3.498-1.888m-3.855.722c1.073-.822 3.007-1.95 4.012-2.97m-4.702 1.644c.695-.308 1.645-.866 2.247-1.266" stroke-width=".353" fill="#e9ddaf" fill-rule="evenodd" stroke="#c13c1b" stroke-linecap="round" stroke-linejoin="round" />
      <g stroke="#c13c1b" stroke-width=".404" stroke-linecap="round" stroke-linejoin="round" fill="none">
         <path d="M207.238 183.496c2.091-.883 4.183-2.175 6.275-4.4.206 2.55.412 5.098 1.37 6.708" />
         <path d="M208.536 180.035c1.961-.79 4.147-2.926 6.29-4.811.494 2.426.597 5.143 1.788 7.046" />
      </g>
      <path d="M210.619 175.302c1.944-.644 3.481-2.471 5.15-4.03.554 2.311 1.206 4.423 2.142 5.968" fill="none" stroke="#c13c1b" stroke-width=".404" stroke-linecap="round" stroke-linejoin="round" />
      <path d="M212.047 170.916c1.547-.849 3.093-1.87 4.64-3.672.703 1.909 1.195 4.24 2.244 5.457" fill="none" stroke="#c13c1b" stroke-width=".404" stroke-linecap="round" stroke-linejoin="round" />
      <path d="M213.22 167.448c1.187-.166 2.55-1.74 3.926-3.417.732 2.084 1.476 4.098 2.397 5.049" fill="none" stroke="#c13c1b" stroke-width=".404" stroke-linecap="round" stroke-linejoin="round" />
      <path d="M214.036 164.235c1.19-.75 2.38-1.663 3.57-3.366.69 1.878 1.462 3.43 2.345 4.54" fill="none" stroke="#c13c1b" stroke-width=".404" stroke-linecap="round" stroke-linejoin="round" />
      <path d="M214.975 160.915c.873-.356 1.84-1.18 2.906-2.499.748 1.201 2.073 3.313 2.821 3.607m-5.412-3.891c.606-.206 1.292-.544 2.468-1.7.992 1.175 1.89 1.877 2.69 2.09m-14.368 27.234c1.872-.488 3.753-1.032 5.814-2.652.204 2.142.374 4.3 1.326 6.07" fill="none" stroke="#c13c1b" stroke-width=".404" stroke-linecap="round" stroke-linejoin="round" />
      <path d="M204.754 188.46c1.92-.127 3.842-1.011 5.763-1.888.28 1.94.567 3.862 1.224 5.049" fill="none" stroke="#c13c1b" stroke-width=".404" stroke-linecap="round" stroke-linejoin="round" />
      <path d="M203.326 190.856c2.108.213 3.824-.554 5.559-1.275.404 1.743.756 3.618 1.53 4.437" fill="none" stroke="#c13c1b" stroke-width=".404" stroke-linecap="round" stroke-linejoin="round" />
      <path d="M202.353 193.332c1.625-.101 3.396-.593 5.308-1.15.375 1.593.829 3.314 1.067 4.236" fill="none" stroke="#c13c1b" stroke-width=".404" stroke-linecap="round" stroke-linejoin="round" />
      <path d="M200.989 195.296c1.777.108 3.735-.33 5.703-1.176.158 1.434.243 3.012.863 4.143" fill="none" stroke="#c13c1b" stroke-width=".404" stroke-linecap="round" stroke-linejoin="round" />
      <path d="M199.302 197.727c1.662.042 3.603-.416 5.593-1.15-.057 1.284.607 3.584.863 4.15" fill="none" stroke="#c13c1b" stroke-width=".404" stroke-linecap="round" stroke-linejoin="round" />
      <path d="M197.466 200.715c2.282-.006 3.858-.769 6.268-2.056-.209 2.203-.22 3.65.332 4.33" fill="none" stroke="#c13c1b" stroke-width=".404" stroke-linecap="round" stroke-linejoin="round" />
      <path d="M195.676 203.35c2.388.174 4.428-.466 6.24-1.637-.236 1.403-.373 2.727.34 3.371m-42.529-25.149c1.194-.963 4.264-.643 4.868 2.443 2.497 2.09 3.372 7.804 10.386 7.681" fill="none" stroke="#c13c1b" stroke-width=".404" stroke-linecap="round" stroke-linejoin="round" />
      <path d="M165.641 183.785l-1.226.83m1.941.019l-1.472 1.062m2.019-.036l-1.514 1.118m2.236-.18l-1.66 1.298m2.381-.396l-1.623 1.55m2.632-.541l-1.514 1.767m2.669-1.01l-1.118 2.2m2.851-1.537l-.633 2.327" fill="none" stroke="#c13c1b" stroke-width=".303" stroke-linecap="round" stroke-linejoin="round" />
      <path d="M173.791 194.062c0 .2-.162.36-.36.36-.2 0-.506-.197-.506-.396s.306-.324.505-.324a.36.36 0 01.361.36zm1.623 1.334c0 .2-.018.47-.217.47s-.505-.27-.505-.47a.36.36 0 01.722 0zm.036 1.624c0 .198-.162.36-.36.36-.2 0-.302-.171-.361-.36-.109-.344.161-.361.36-.361a.36.36 0 01.36.36zm1.73 1.838c0 .2.055.433-.144.433-.199 0-.577-.234-.577-.433a.36.36 0 01.722 0z" style="marker:none" color="#000" fill="#c13c1b" fill-rule="evenodd" stroke="#c13c1b" stroke-width=".303" stroke-linecap="round" stroke-linejoin="round" overflow="visible" />
   </g>
   <path d="M206.818 222.658c4.034 6.15 6.487 11.547 23.75 10.983l-2.053-15.983c-2.008-.081-3.987-.277-6.456 1.488-2.805-.672-6.2.442-8.126 1.873-3.42-.501-5.029.807-7.115 1.64z" fill="#f5ca44" fill-rule="evenodd" stroke="#000" stroke-width=".5" />
   <path d="M254.243 223.424c39.81 12.177 56.24 7.801 49.343 55.452l.086 3.154 6.02.136-.472-36.551c-7.133-31.716-12.045-58.878-31.938-80.503-12.264-13.332-28.241-25.995-46.791-28.61-.584 9.282-1.58 9.961-3.077 12.983-1.229 2.48-3.241 4.39-7.15 6.337 1.486 10.773-1.423 27.681-10.802 40.878 20.991 15.513 21.423 24.196 18.804 48.566.493 21.766.639 35.6.639 35.6h25.545c.158-11.814.058-20.042.082-34.683l-.289-22.76z" fill="#025" fill-rule="evenodd" stroke="#000" stroke-width=".23" stroke-linecap="round" stroke-linejoin="round" />
   <g>
      <path d="M210.945-175.397h26.425v12.196h-26.425v-12.196z" fill="#fac53a" fill-rule="evenodd" stroke="#000" stroke-width=".224" transform="matrix(.97491 0 0 .96682 23.082 439.482)" />
      <path d="M212.585-174.204l22.881.104m-22.891 2.034l22.88.104m-22.805 1.871l22.88.104m-22.891 1.795l22.881.103m-22.73 1.869l22.875-.054m-22.959 2.034l22.95-.215" fill="none" stroke="#c13c1b" stroke-width=".665" stroke-linecap="round" stroke-linejoin="round" transform="matrix(.97491 0 0 .96682 23.082 439.482)" />
   </g>
   <g>
      <path d="M233.031-175.397h4.34v12.196h-5.423l-.044-2.777c.01-1.358.89-6.118 1.127-9.419z" fill="#fac53a" fill-rule="evenodd" stroke="#000" stroke-width=".224" transform="matrix(1.13128 0 0 1.12189 40.989 465.218)" />
      <path d="M233.17-174.115l3.304.015m-3.622 2.123l3.577.015m-3.742 1.959l3.698.015m-3.939 1.885l3.9.014m-4.156 1.823l4.16-.009m-4.093 1.853l4.072-.033" fill="none" stroke="#c13c1b" stroke-width=".665" stroke-linecap="round" stroke-linejoin="round" transform="matrix(1.13128 0 0 1.12189 40.989 465.218)" />
   </g>
   <path d="M303.422 282.125l-.05-3.116c.013-1.523 1.009-6.863 1.276-10.566" fill="none" stroke="#000" stroke-width=".252" />
   <g>
      <path d="M202.917 206.363l-5.864-1.412c-19.943 16.387-13.344 54.388-13.487 76.861l24.292-.367-.016-40.294c-.024-6.572 1.043-8.559 3.268-12.32-3.834-5.927-4.503-10.503-8.192-22.468z" style="marker:none" color="#000" fill="#025" fill-rule="evenodd" stroke="#000" stroke-width=".214" stroke-linecap="round" stroke-linejoin="round" overflow="visible" />
      <path d="M151.83-196.826h25.973v12.197H151.83v-12.197z" fill="#fac53a" fill-rule="evenodd" stroke="#000" stroke-width=".224" transform="matrix(.93386 0 0 .96682 41.805 460.315)" />
      <path d="M153.196-195.633l22.881.104m-22.891 1.715l22.881.104m-22.887 1.87l22.882.105m-22.812 1.955l22.881.103m-22.731 2.029l22.877-.055m-22.96 1.955l22.95-.216" fill="none" stroke="#c13c1b" stroke-width=".665" stroke-linecap="round" stroke-linejoin="round" transform="matrix(.93386 0 0 .96682 41.805 460.315)" />
   </g>
   <g>
      <path d="M298.617 74.421c3.627 32.934 4.55 24.37 7.088 47.2-.125 1.11-1.494 1.045-1.71.403-2.852-16.46-7.64-19.676-9.926-33.677" fill="#fac53a" fill-rule="evenodd" stroke="#000" stroke-width=".58" />
      <path d="M163.044 93.385c.283 5.59 5.304 12.096-.709 12.953-6.083.58-4.416-7.143-4.81-11.701.156-4.396 2.264-11.116 1.82-14.822-1.529-12.77-9.97-13.53-14.562-13.261-1.54-1.388-5.718-1.283-8.58.91-.237.386-.49.752-.39 1.56 1.965 2.813 5.587 2.936 9.49 2.6.434.087.607.347.52.78-3.054 2.839-3.338 5.464-3.25 8.061 1.672 8.563 3.145 17.997 5.179 25.667 3.806 14.353 21.988 7.213 23.47 2.562 1.127-1.73.169-5.044.135-6.99" fill="#fac53a" fill-rule="evenodd" stroke="#000" stroke-width=".483" />
      <path d="M157.025 72.553l-.507-.271c-2.181-1.354-3.596-3.041-6.856-3.779-2.064-.59-4.337-.09-6.436.325-1.11.426-2.117.223-3.055-.39-.9-.844-2.345-.08-3.706 0l-.467-.102c.076-.301.22-.519.357-.743 2.862-2.193 6.781-2.298 8.322-.91 3.465-.202 9.123.18 12.348 5.87zm-1.495 22.921c-2.496.716-5.352.844-7.971.334 0 0 2.619.51-.046-.095.69 3.32 1.584 7.356 2.68 12.138l.046-.045c-.227-3.52 5.024-3.649 5.517-1.793-.439-4.152-.092-.23-.092-.23-.347-3.922-.34-7.294-.133-10.309z" fill="#308d57" fill-rule="evenodd" />
      <path d="M155.618 105.783c-1.315-14.888 2.75-22.68 1.632-27.61-1.499-6.606-6.017-6.295-6.82-6.27-.829.026-5.232.619-5.515 7.306-.202 4.78 1.558 12.014 5.187 28.688" fill="none" stroke="#000" stroke-width=".182" />
      <path d="M145.493 85.512c3.65 1.39 7.763 1.723 11.448-.554-.456 2.835-1.126 6.353-1.42 10.658-2.508.632-5.343.702-7.978.238-.962-4.347-1.623-7.632-2.05-10.342z" fill="#c13c1b" fill-rule="evenodd" />
      <path d="M145.476 85.603c3.65 1.39 7.735 1.632 11.397-.597" fill="none" stroke="#000" stroke-width=".182" />
      <path d="M145.42 85.604c3.65 1.39 7.75 1.631 11.423-.577.483-2.808.78-5.027.366-6.854-1.499-6.606-6.017-6.295-6.82-6.27-.829.026-5.232.619-5.515 7.306-.072 1.71.12 3.735.547 6.395z" fill="#04a" fill-rule="evenodd" />
      <path d="M147.513 95.808c2.62.51 5.455.44 7.951-.276m-18.806-27.223c1.361-.08 2.424-.814 3.324.03.938.613 1.908.843 3.055.543 2.063-.54 4.494-1.007 6.558-.417 3.26.738 5.316 2.822 7.497 4.175" fill="none" stroke="#000" stroke-width=".182" />
      <path style="marker:none" d="M143.064 67.67c0 .474-.434.859-.97.859-.535 0-.97-.385-.97-.86 0-.474.435-.858.97-.858.536 0 .97.384.97.859z" color="#000" fill-rule="evenodd" stroke="#000" stroke-linecap="round" stroke-linejoin="round" overflow="visible" stroke-width=".155" />
      <path d="M150.194 107.806c-.227-3.52 5.023-3.649 5.608-1.563" fill="none" stroke="#000" stroke-width=".182" />
      <path d="M150.13 107.99c2.204-.557 4.095-.702 6.054-1.748m-3.818 4.245c2.072-.297 3.66-1.632 4.72-2.788m-2.499 4.094c1.66-.862 2.83-1.563 3.755-3.036" fill="none" stroke="#000" stroke-width=".097" />
      <g fill="none" stroke="#000" stroke-width=".182">
         <path d="M155.581 105.783c-1.315-14.888 2.75-22.68 1.632-27.61-1.499-6.606-6.017-6.295-6.82-6.27-.829.026-5.232.619-5.515 7.306-.202 4.78 1.558 12.014 5.187 28.688m-4.626-22.294c3.65 1.39 7.735 1.632 11.397-.597m-9.36 10.802c2.62.51 5.455.44 7.951-.276" />
         <path d="M150.157 107.806c-.227-3.52 5.023-3.649 5.608-1.563" stroke-linecap="round" stroke-linejoin="round" />
      </g>
      <path d="M151.878 105.168c-1.927-11.125-.71-21.172-2.511-32.941.796-.39 1.593-.4 2.39-.184 2.187 7.562.499 22.632 2.338 32.982" fill="#fac53a" fill-rule="evenodd" stroke="#000" stroke-width=".182" />
      <path style="marker:none" d="M275.34 73.043c0 30.597-20.95 44.024-48.723 44.024-27.772 0-48.218-14.78-47.768-44.024.45-29.249 19.996-44.024 47.768-44.024 27.773 0 48.723 13.875 48.723 44.024z" color="#000" fill="#c13c1b" fill-rule="evenodd" stroke="#c13c1b" stroke-width="37.254" stroke-linecap="round" stroke-linejoin="round" overflow="visible" />
      <path style="marker:none" d="M293.66 72.822c0 40.767-27.913 58.656-64.916 58.656s-64.244-19.691-63.645-58.656c.6-38.97 26.642-58.656 63.645-58.656s64.916 18.488 64.916 58.656z" color="#000" fill="none" stroke="#fff" stroke-width="6.441" stroke-linecap="round" stroke-linejoin="round" overflow="visible" />
      <path style="marker:none" d="M294.897 72.774c0 41.603-28.485 59.859-66.247 59.859s-65.561-20.095-64.95-59.86c.612-39.768 27.188-59.858 64.95-59.858s66.247 18.867 66.247 59.859z" color="#000" fill="none" stroke="#000" stroke-width="7.735" stroke-linecap="round" stroke-linejoin="round" overflow="visible" />
      <path d="M294.897 72.774c0 41.603-28.485 59.859-66.247 59.859s-65.561-20.095-64.95-59.86c.612-39.768 27.188-59.858 64.95-59.858s66.247 18.867 66.247 59.859z" style="marker:none" color="#000" fill="none" stroke="#fac53a" stroke-width="6.572" stroke-linecap="round" stroke-linejoin="round" overflow="visible" />
      <path style="marker:none" d="M296.62 72.62c0 42.86-29.346 61.667-68.25 61.667-38.902 0-67.542-20.702-66.912-61.667.63-40.971 28.01-61.668 66.913-61.668 38.903 0 68.249 19.437 68.249 61.668z" color="#000" fill="none" stroke="#000" stroke-width=".483" stroke-linecap="round" stroke-linejoin="round" stroke-dasharray=".5 4" overflow="visible" />
      <path style="marker:none" d="M295.147 72.6c0 42.024-28.485 60.463-66.247 60.463-37.761 0-65.56-20.297-64.949-60.462.611-40.17 27.188-60.462 64.95-60.462 37.76 0 66.246 19.057 66.246 60.462z" color="#000" fill="none" stroke="#000" stroke-width=".243" stroke-linecap="round" stroke-linejoin="round" stroke-dasharray=".251 6.03" overflow="visible" />
      <path d="M149.386 108.605c2.986 6.474 11.314 7.214 19.595 1.122" fill="none" stroke="#000" stroke-width=".242" stroke-linecap="round" stroke-linejoin="round" stroke-dasharray="1 2" />
      <path d="M150.335 109.382c3.287 3.468 6.895 6.542 18.3.086" fill="none" stroke="#000" stroke-width=".193" stroke-linecap="round" stroke-linejoin="round" stroke-dasharray=".2 2.4" />
      <path d="M150.12 107.656c-.228-2.224 3.79-4.092 5.632-1.511" fill="none" stroke="#000" stroke-width=".242" stroke-linecap="round" stroke-linejoin="round" />
   </g>
</svg>