<svg width="687" height="600" xmlns="http://www.w3.org/2000/svg">
    <path d="M302.64 598.37c-78.89-8.74-173.82-34.75-232.41-63.73C38.74 519.06 1.79 493.79.46 486.92c-.46-2.48 16.42-47.85 37.57-100.83C59.17 333.11 80.6 277.15 85.66 261.7c19.08-58.21 28.86-112.7 24.36-135.67-1.35-6.82-3.16-17.88-4.03-24.54l-1.59-12.13H91.66c-7 0-16.12-1.73-20.25-3.88-17.75-9.19-24.85-44.63-13.31-66.61C68.67-1.3 48.68 0 344.85 0c258.43 0 263.82.1 271.84 5.06 17.34 10.72 23.39 43.86 12.03 65.74-6.84 13.15-16.55 18.56-33.38 18.56H582.6l-1.59 12.13c-.87 6.66-2.68 17.72-4.03 24.54-4.5 22.97 5.28 77.46 24.36 135.67 5.06 15.45 26.49 71.41 47.63 124.39 21.15 52.98 38.03 98.35 37.57 100.83-1.33 6.87-38.28 32.14-69.77 47.72-48.19 23.82-122.79 46.47-190.27 57.75-30.93 5.18-100.7 8.53-123.86 5.98m83-15.02c47.22-3.6 117.96-18.25 167.15-34.62 31.16-10.36 80.27-34.52 102.92-50.6 10.19-7.23 18.52-14.04 18.52-15.17 0-1.1-9.83-25.48-21.84-54.18-51.94-124.13-80.03-208.57-88.11-264.89-2.88-20.09-.58-57.91 4.3-70.62 1.32-3.5-22.68-3.91-225.08-3.91s-226.4.41-225.08 3.91c4.88 12.71 7.18 50.53 4.3 70.62-8.08 56.32-36.17 140.76-88.11 264.89-12.01 28.7-21.84 53.08-21.84 54.18 0 4.42 38.79 29.18 67.68 43.2 61.88 30.05 148.15 51.86 230.41 58.27 26.82 2.09 34.99 1.96 74.78-1.08M610.2 74.14c4.58-2.45 8.76-10.95 11.34-23.08 2.05-9.47-2.3-25.2-8.83-32.17l-5.77-6.12H80.06l-5.77 6.12c-6.79 7.25-10.72 22.32-8.63 33.3 1.92 10.18 7.46 21.06 11.54 22.7 6.24 2.5 528.28 1.78 533-.75" />
    <path d="M287.31 463.56c-39.35-10.14-47.24-13.02-47.24-17.24 0-7.02 100.72-267.6 103.43-267.6 2.71 0 103.43 260.58 103.43 267.6 0 4.27-7.99 7.15-48.11 17.37-45.64 11.59-66.1 11.56-111.51-.13M402.95 450c14.46-4.19 26.82-8.17 27.51-8.86 1.89-1.89-84.05-227.18-86.83-227.59-1.79-.26-78.05 195.42-87.09 223.53-1.46 4.47 9.73 8.73 48.65 18.51 24.34 6.13 65.38 3.78 97.76-5.59" />
    <path fill="#c55436" d="M305.19 455.59c-38.92-9.78-50.11-14.04-48.65-18.51 9.04-28.11 85.3-223.79 87.09-223.53 2.78.41 88.72 225.7 86.83 227.59-.69.69-13.05 4.67-27.51 8.86-32.38 9.37-73.42 11.72-97.76 5.59M77.2 74.89c-4.08-1.64-9.62-12.52-11.54-22.7-2.25-11.8 2.2-27.22 9.68-33.68l6.67-5.74H606.94l5.77 6.12c6.53 6.97 10.88 22.7 8.83 32.17-2.58 12.13-6.76 20.63-11.34 23.08-4.72 2.53-526.76 3.25-533 .75" />
    <path fill="#c57a36" d="M310.86 584.43c-82.26-6.41-168.53-28.22-230.41-58.27-28.89-14.02-67.68-38.78-67.68-43.2 0-1.1 9.83-25.48 21.84-54.18 51.94-124.13 80.03-208.57 88.11-264.89 2.73-19.02 1.53-43.84-3.43-70.34-.38-2.15 58.36-3.09 225.13-3.58 202.12-.56 225.51-.23 224.16 3.3-4.88 12.71-7.18 50.53-4.3 70.62 8.08 56.32 36.17 140.76 88.11 264.89 12.01 28.7 21.84 53.08 21.84 54.18 0 4.42-38.79 29.18-67.68 43.2-69.26 33.65-152.9 53.24-254.11 59.54-7.74.46-26.43-.1-41.58-1.27m87.96-120.74c40.12-10.22 48.11-13.1 48.11-17.37 0-7.02-100.72-267.6-103.43-267.6-2.71 0-103.43 260.58-103.43 267.6 0 4.22 7.89 7.1 47.24 17.24 45.41 11.69 65.87 11.72 111.51.13" />
</svg>