<svg xmlns="http://www.w3.org/2000/svg" viewBox="0 0 1279 723" width="300" height="200" version="1.0">
   <path d="M855.688 29.25c-2.033.013-4.056.068-6.063.125-118.312 3.356-237.87 40.273-324.875 84.281-86.43 43.718-146.5 84.75-146.5 84.75s5.496 2.303-351.875 1.156v.25c-7.647.414-13.75 6.72-13.75 14.47 0 7.504 5.726 13.679 13.031 14.437v.094c.568.002.935-.003 1.5 0 358.008 1.69 361.407.562 361.406.562 0 0 223.876-167.906 460.594-167.906 161.502-4.878 277.707 69.659 392.375 172.812 2.792 3.181 6.876 5.188 11.438 5.188 8.407 0 15.219-6.812 15.218-15.219 0-5.436-2.867-10.18-7.156-12.875C1152.884 93.024 1013.08 37.57 855.688 29.25z" stroke="#fd0000" stroke-width="6" />
   <path d="M854.969 105.625c-2.033.013-4.056.068-6.063.125-116.897 2.65-237.15 48.741-324.156 92.75-86.43 43.718-146.5 84.75-146.5 84.75s5.496 2.303-351.875 1.156v.25c-7.647.414-13.75 6.72-13.75 14.469 0 7.505 5.726 13.68 13.031 14.438v.093c.568.003.935-.002 1.5 0 263.657 1.246 334.498.955 353.781.719.057.015.1.048.157.063 0 0 92.266 31.435 136.594 45.156 83.976 25.993 214.32 51.225 331.218 53.875 2.007.057 4.03.112 6.063.125 63 .39 146.666-3.288 193.781-19.063 63.64-21.308 107.595-41.56 155.719-84.594 5.813-5.58 13.264-11.706 14.218-19.937 0-5.436-2.867-10.18-7.156-12.875-105.667-110.119-203.127-161.641-356.562-171.5zm-6.532 32.219c134.836 4.018 237.54 60.17 332.782 152.5-61.403 54.297-93.413 56.628-151.907 74.437-37.047 11.28-96.927 17.512-180.874 16.594-208.59-2.269-367.392-65.224-422.125-90.063 81.462-47.718 278.214-153.468 422.125-153.468z" />
   <path d="M990.5 261.5c0 69.828-56.672 126.5-126.5 126.5s-126.5-56.672-126.5-126.5S794.172 135 864 135s126.5 56.672 126.5 126.5z" />
   <path d="M1061.5 393l.5 292s6.5 14.5 19.5 14.5 22.5-10 23.5-20 10-91.5 19-118 33-78 46-96 24.5-24.5 22.5-37.5-25.5-10.5-44.5-10.5-36.07 1.715-40.5-2.5c-4.362-4.15-2.646-38.328-2.646-38.328L1061.5 393z" fill-rule="evenodd" stroke="#00a500" stroke-width="6" />
   <path d="M1055.329 394.922l.146 11.646S944 480 881.5 513.75 752.5 585.5 673.75 613s-198 59.5-271 68.25-144.25 10-167.5 10-90.5 0-148-37.75S13.5 561.25 13 527.25s15.5-81.5 55.25-111.75 75-40.5 121.25-41.5 100 18 130.25 57 33.5 81.25 14.75 117.75S272.25 613 219 613.25s-110.5-33.75-110.75-86.5S152 453 189 451.25s65 25.25 64.5 49.25-15.25 38-36.75 38.5-30.25-11-30.25-23 11.25-18.75 18.25-18 13.25 4.75 14.75 2.5 2-8.5-5.75-12.25-20.5-11.5-43.25-2.25-37.25 29.75-28.75 51.25 36 46.25 76 44.5S314 558 314 503.75s-49-97.5-125.75-97.5S43.75 458.25 44 525.5 106.75 633 146.5 648c83.312 21.199 185.205 12.149 268.925-1.014 92.278-16.97 150.614-30.406 218.143-53.387 67.528-22.98 147.785-61.164 186.322-81.67 38.538-20.506 170.767-102.177 170.767-102.177l64.672-14.83z" fill-rule="evenodd" stroke="#0000fa" stroke-width="6" />
   <path d="M779.955 289.4h19.12v-65.997l-20.8 4.172v-10.661l20.685-4.172h11.704v76.657h19.121v9.85h-49.83v-9.85m90.97-76.657h9.85l-30.13 97.516h-9.85l30.13-97.516m54.812 10.198l-29.55 46.18h29.55v-46.18m-3.07-10.198h14.717v56.377h12.341v9.735h-12.341v20.395h-11.647v-20.395h-39.053v-11.299l35.982-54.813" font-size="118.665" font-weight="400" fill="#fff" font-family="Bitstream Vera Sans" />
   <path d="M1206.86 710.947l4.482-18.588-64.157-15.47-.82 21.2-10.365-2.5.793-21.086 2.744-11.378 74.521 17.969 4.482-18.589 9.576 2.31-11.68 48.441-9.576-2.309m-53.198-106.403l2.308-9.576 87.738 52.149-2.31 9.576-87.736-52.15m49.031-38.72c-1.231 5.108-.463 9.584 2.305 13.43 2.777 3.809 7.207 6.447 13.29 7.914 6.047 1.457 11.192 1.129 15.437-.987 4.217-2.162 6.941-5.797 8.172-10.904 1.232-5.107.459-9.565-2.318-13.373-2.805-3.855-7.231-6.512-13.277-7.97-6.083-1.467-11.233-1.119-15.45 1.043-4.208 2.125-6.927 5.74-8.159 10.847m-30.209-31.184l10.364 2.499a46.57 46.57 0 00-5.19 7.927 36.908 36.908 0 00-3.147 8.36c-1.811 7.51-.662 13.867 3.448 19.07 4.119 5.166 11.236 9.266 21.352 12.3-2.733-3.002-4.56-6.383-5.482-10.142-.959-3.768-.954-7.66.015-11.679 2.037-8.449 6.217-14.494 12.538-18.135 6.293-3.688 13.852-4.468 22.677-2.34 8.637 2.082 14.95 6.306 18.938 12.672 3.988 6.366 4.96 13.792 2.913 22.278-2.345 9.726-7.856 16.265-16.531 19.617-8.714 3.343-20.149 3.307-34.306-.106-13.293-3.205-23.122-8.913-29.487-17.123-6.402-8.22-8.322-17.643-5.76-28.27a46.286 46.286 0 012.923-8.414c1.27-2.794 2.848-5.632 4.735-8.514m21.65-54.442l37.967 39.552 6.927-28.728-44.894-10.824m-10.633.595l3.45-14.308 54.807 13.216 2.892-11.998 9.463 2.281-2.892 11.998 19.827 4.781-2.73 11.322-19.827-4.78-9.155 37.964-10.983-2.648-44.852-47.828" font-size="118.665" font-weight="400" fill="green" font-family="Bitstream Vera Sans" />
   <path d="M477.55 604.312l18.182-5.919-20.43-62.754-18.488 10.406-3.3-10.138 18.378-10.37 11.13-3.623 23.729 72.892 18.182-5.919 3.049 9.367-47.383 15.425-3.049-9.367m62.771-101.051l9.367-3.05 1.536 102.054-9.366 3.05-1.537-102.054m67.602 19.916c5.696-.595 10.618.423 14.765 3.054 4.184 2.619 7.137 6.573 8.859 11.862 2.642 8.118 1.895 15.307-2.24 21.57-4.137 6.261-11.347 11.066-21.632 14.414-3.453 1.124-7.13 1.935-11.03 2.433-3.851.523-7.945.738-12.28.647l-3.498-10.744c3.671.795 7.493 1.054 11.465.777 3.972-.278 7.96-1.068 11.963-2.371 6.98-2.272 11.838-5.378 14.578-9.316 2.776-3.95 3.31-8.552 1.6-13.805-1.579-4.848-4.519-8.075-8.82-9.681-4.275-1.655-9.444-1.496-15.504.477l-9.587 3.12-2.977-9.145 10.027-3.265c5.473-1.781 9.308-4.228 11.504-7.34 2.184-3.148 2.607-6.78 1.267-10.893-1.375-4.224-3.933-6.966-7.674-8.226-3.717-1.309-8.367-1.055-13.95.763-3.048.992-6.21 2.387-9.484 4.184-3.274 1.797-6.778 4.075-10.51 6.834l-3.23-9.917c3.842-2.55 7.504-4.717 10.986-6.5 3.518-1.796 6.912-3.226 10.181-4.29 8.448-2.75 15.76-2.998 21.938-.744 6.166 2.218 10.313 6.596 12.441 13.134 1.483 4.554 1.434 8.836-.145 12.843-1.592 3.972-4.596 7.346-9.013 10.125m59.103 19.453l38.842-12.645 3.05 9.367-52.232 17.003-3.049-9.366c2.801-5.746 6.642-13.476 11.524-23.19 4.906-9.762 7.948-16.014 9.128-18.754 2.26-5.163 3.639-9.35 4.138-12.559.524-3.258.35-6.227-.524-8.909-1.423-4.37-4.125-7.431-8.107-9.182-3.946-1.762-8.38-1.842-13.301-.24-3.49 1.136-6.984 2.944-10.483 5.423-3.462 2.468-6.996 5.65-10.603 9.546l-3.659-11.24c3.895-3.259 7.64-5.98 11.235-8.167 3.594-2.185 7.008-3.804 10.24-4.857 8.522-2.774 16.01-2.855 22.466-.245 6.456 2.611 10.844 7.48 13.164 14.605 1.1 3.38 1.503 6.802 1.21 10.27-.268 3.418-1.404 7.728-3.407 12.93-.572 1.364-2.488 5.4-5.747 12.108-3.272 6.671-7.9 16.039-13.885 28.102" font-size="118.665" font-weight="400" fill="#00f" font-family="Bitstream Vera Sans" />
   <path d="M994.85 309.335h16.193V252.76l-17.616 3.577v-9.14l17.518-3.576h9.912v65.715h16.193v8.445h-42.2v-8.445m77.039-65.715h8.342l-25.516 83.597h-8.342l25.516-83.597m27.724 65.715h34.594v8.445h-46.518v-8.445c3.762-3.94 8.882-9.222 15.359-15.845 6.51-6.656 10.599-10.944 12.267-12.865 3.173-3.61 5.381-6.656 6.624-9.14 1.276-2.516 1.914-4.983 1.914-7.4 0-3.941-1.374-7.153-4.122-9.637-2.715-2.483-6.264-3.725-10.648-3.725-3.107 0-6.395.546-9.863 1.639-3.435 1.093-7.115 2.748-11.04 4.967v-10.133c3.99-1.623 7.72-2.848 11.188-3.676 3.467-.828 6.64-1.241 9.52-1.242 7.588 0 13.64 1.921 18.155 5.762 4.514 3.842 6.771 8.975 6.771 15.399 0 3.046-.572 5.944-1.717 8.692-1.112 2.716-3.157 5.928-6.134 9.637-.818.96-3.418 3.742-7.802 8.344a6264.64 6264.64 0 01-18.548 19.223M519.84 309.335h16.194V252.76l-17.616 3.577v-9.14l17.517-3.576h9.912v65.715h16.193v8.445h-42.2v-8.445m77.04-65.715h8.341l-25.516 83.597h-8.341l25.516-83.597m20.903 65.715h16.193V252.76l-17.616 3.577v-9.14l17.518-3.576h9.912v65.715h16.193v8.445h-42.2v-8.445m84.694-32.634c-4.45 0-7.982 1.54-10.6 4.62-2.583 3.08-3.876 7.301-3.876 12.666 0 5.331 1.293 9.553 3.877 12.666 2.617 3.08 6.15 4.62 10.599 4.62s7.965-1.54 10.55-4.62c2.617-3.113 3.925-7.335 3.925-12.666 0-5.365-1.308-9.587-3.925-12.666-2.585-3.08-6.101-4.62-10.55-4.62m19.677-31.442v9.14a39.123 39.123 0 00-7.557-2.733 30.893 30.893 0 00-7.508-.943c-6.542 0-11.547 2.235-15.015 6.705-3.435 4.47-5.397 11.226-5.888 20.267 1.93-2.881 4.35-5.084 7.262-6.607 2.912-1.556 6.117-2.334 9.618-2.334 7.36 0 13.167 2.268 17.42 6.805 4.285 4.503 6.427 10.646 6.427 18.428 0 7.616-2.224 13.726-6.673 18.329s-10.37 6.904-17.763 6.904c-8.473 0-14.95-3.278-19.432-9.835-4.481-6.59-6.722-16.127-6.722-28.61 0-11.723 2.748-21.062 8.244-28.016 5.495-6.987 12.872-10.48 22.13-10.48 2.486 0 4.989.248 7.507.745 2.552.496 5.202 1.241 7.95 2.235" font-size="101.109" font-weight="400" font-family="Bitstream Vera Sans" />
   <path d="M121.223 151.364h19.12V85.368l-20.8 4.172V78.88l20.685-4.172h11.704v76.657h19.121v9.85h-49.83v-9.85m90.969-76.657h9.85l-30.13 97.516h-9.85l30.13-97.516m47.686 45.427c-5.562 0-9.946 1.487-13.153 4.461-3.167 2.974-4.75 7.069-4.75 12.284 0 5.215 1.583 9.31 4.75 12.283 3.207 2.975 7.59 4.462 13.153 4.462 5.563 0 9.947-1.487 13.153-4.462 3.206-3.012 4.81-7.107 4.81-12.283 0-5.215-1.604-9.31-4.81-12.284-3.167-2.974-7.552-4.461-13.153-4.462m-11.704-4.983c-5.022-1.236-8.942-3.573-11.762-7.01-2.782-3.438-4.172-7.63-4.172-12.574 0-6.914 2.453-12.38 7.359-16.398 4.944-4.017 11.704-6.025 20.28-6.026 8.613 0 15.373 2.01 20.279 6.026 4.906 4.018 7.359 9.484 7.359 16.398 0 4.945-1.41 9.136-4.23 12.573-2.781 3.438-6.664 5.775-11.646 7.011 5.64 1.314 10.023 3.883 13.152 7.707 3.168 3.824 4.752 8.498 4.752 14.022 0 8.382-2.57 14.814-7.707 19.294-5.099 4.481-12.419 6.722-21.96 6.722-9.54 0-16.88-2.24-22.018-6.722-5.099-4.48-7.648-10.912-7.648-19.294 0-5.524 1.584-10.198 4.751-14.022 3.168-3.824 7.571-6.393 13.21-7.707m-4.287-18.483c0 4.48 1.39 7.977 4.172 10.487 2.82 2.511 6.76 3.767 11.82 3.767 5.022 0 8.943-1.256 11.763-3.767 2.858-2.51 4.287-6.006 4.287-10.487 0-4.48-1.43-7.977-4.287-10.488-2.82-2.51-6.741-3.766-11.763-3.766-5.06 0-9 1.256-11.82 3.766-2.781 2.511-4.172 6.007-4.172 10.488" font-size="118.665" font-weight="400" fill="red" font-family="Bitstream Vera Sans" />
</svg>