<svg xmlns="http://www.w3.org/2000/svg" width="350" height="720" version="1.0">
   <path d="M110.332 622.055l-5.065 6.555 2.18 18.12h5.95l1.791-18.54-4.856-6.135z" fill="#fff" fill-rule="evenodd" />
   <path d="M262.085 108.696c-.24-10.981 13.746-10.486 13.895-1.536" fill="none" stroke="#c13c1b" stroke-width="2.4" />
   <path d="M262.085 108.696c-.24-10.981 13.746-10.486 13.895-1.536" fill="none" stroke="#fac53a" stroke-width="2" />
   <path d="M98.234 87.422h25.014" fill="none" stroke="#025" stroke-width="1.5" stroke-linecap="round" stroke-linejoin="round" />
   <path d="M130.973 271.465l26.998-6.85 4.003 24.649-31.134 5.274" fill="#308d57" fill-rule="evenodd" stroke="#000" stroke-width=".25" />
   <path d="M175.387 50.226c-3.413-68.922 145.785-42.646 65.396 51.541l-.438.132c-22.848-2.644-31.702-56.88-64.958-51.673z" fill="#04a" fill-rule="evenodd" stroke="#000" stroke-width=".25" />
   <path d="M184.014 186.43l40.448 117.553 11.797-6.32-38.341-109.126" fill="#c13c1b" fill-rule="evenodd" stroke="#000" stroke-width=".25" />
   <path d="M229.94 191.908c-1.265 4.634-50.14 106.176-50.14 106.176l13.483 5.477 49.296-109.547" fill="#c13c1b" fill-rule="evenodd" stroke="#000" stroke-width=".25" />
   <path d="M244.954 104.972l-44.46 13.567-17.995 11.728s-5.13 22.328-11.731 50.413c-4.746 20.19-10.17 43.345-13.534 62.974-1.075 6.272-2.361 10.05-.418 19.44 13.201 63.815 17.477 120.632 36.379 188.707-3.59 37.051-3.77 120.636 1.301 156.233-2.618 9.682-26.625 15.843-34.272 20.757-12.812 7.033-28.845 11.11-41.933 17.617-4.618 1.756-10.838.963-14.88.945-3.785-1.256-3.84 7.086 2.312 10.098 38.045.264 93.54-.075 132.292.117 7.335-6.602 2.735-18.283.841-26.138-1.15-4.768-2.314-9.265-1.362-14.211 7.524-63.86 9.953-103.73 2.795-159.954 7.85-46.367 12.005-88.778 15.074-128.914L259 282.583c9.099-8.907 1.917-36.011 1.462-44.406 1.949-51.717 4.696-99.27 6.32-128.507l-21.827-4.698z" fill="none" stroke="#000" stroke-width=".75" />
   <path d="M100.363 250.794c-2.16-.42 4.28-4.356 1.49-21.944a1.42 1.42 0 01.52-.068c.176.008.144-.273.107-.688-1.26-.482-1.868-.08-4.423-1.043-1.73-.653-2.383-3.287-1.265-4.908.482-1.028 1.802-.883 2.97-.753.973.237 5.022.072 6.22-.41 3.76-.628 6.76.08 10.201.2 7.582.927 10.93 7.131 17.31 10.41-.308 6.318-.667 13.483-.975 19.801-7.246-1-19.884 1.792-32.155-.597z" fill="#308d57" fill-rule="evenodd" stroke="#000" stroke-width=".134" />
   <g stroke="#c13c1b" stroke-linecap="round" stroke-linejoin="round">
      <path d="M60.505 710.932l28.68-53.124h165.824v53.124H60.505z" fill="#fac53a" fill-rule="evenodd" stroke-width=".766" />
      <path d="M94.597 666.1l151.386-.04v36.62H76.35l18.246-36.58z" fill="#04a" fill-rule="evenodd" stroke-width=".766" />
      <path d="M121.11 658.195v7.479m3.226-7.479v7.479m3.393-7.479v7.479m3.624-7.479v7.479M143.674 658.195v7.479m3.226-7.479v7.479m3.394-7.479v7.479m3.624-7.479v7.479M166.884 658.195v7.479m3.226-7.479v7.479m3.393-7.479v7.479m3.624-7.479v7.479M188.804 658.195v7.479m3.226-7.479v7.479m3.393-7.479v7.479m3.624-7.479v7.479M210.466 658.195v7.479m3.226-7.479v7.479m3.393-7.479v7.479m3.625-7.479v7.479M230.839 658.195v7.479m3.226-7.479v7.479m3.393-7.479v7.479m3.624-7.479v7.479M79.075 703.067v7.478m3.226-7.478v7.478m3.393-7.478v7.478m3.624-7.478v7.478M81.442 673.697l6.584 3.546m-5.055-6.387l6.585 3.546m-4.976-6.533l6.585 3.546m-4.867-6.737l6.585 3.546" stroke-width=".459" fill="none" />
      <path d="M-161.852 1800.38v29.295m12.638-29.295v29.295m13.29-29.295v29.295m14.196-29.295v29.295" transform="matrix(.14283 -.25526 .26523 .13746 -385.531 407.455)" fill="none" stroke-width="1.553" />
      <path d="M101.51 703.067v7.478m3.227-7.478v7.478m3.393-7.478v7.478m3.624-7.478v7.478M97.643 658.195v7.479m3.226-7.479v7.479m3.393-7.479v7.479m3.624-7.479v7.479M124.204 703.067v7.478m3.226-7.478v7.478m3.394-7.478v7.478m3.624-7.478v7.478M192.543 703.067v7.478m3.227-7.478v7.478m3.392-7.478v7.478m3.624-7.478v7.478M213.947 703.067v7.478m3.227-7.478v7.478m3.392-7.478v7.478m3.624-7.478v7.478M233.804 703.067v7.478m3.226-7.478v7.478m3.393-7.478v7.478m3.625-7.478v7.478M254.194 689.64h-7.478m7.478 3.226h-7.478m7.478 3.393h-7.478m7.478 3.624h-7.478M254.194 667.22h-7.478m7.478 3.226h-7.478m7.478 3.392h-7.478m7.478 3.625h-7.478M147.414 703.067v7.478m3.226-7.478v7.478m3.393-7.478v7.478m3.624-7.478v7.478M169.85 703.067v7.478m3.226-7.478v7.478m3.393-7.478v7.478m3.624-7.478v7.478" stroke-width=".459" fill="none" />
   </g>
   <path d="M266.554 167.565c.297-1.788 3.318-55.713 3.318-55.713-.071-6.162 12.316-6.877 12.811 0l4.726 55.713h-20.855z" fill="#fac53a" fill-rule="evenodd" stroke="#c13c1b" stroke-width=".3" />
   <path d="M133.028 231.518c.843 0 26.734-.82 26.734-.82l-3.581 23.911-24.522-3.47" fill="#308d57" fill-rule="evenodd" stroke="#000" stroke-width=".25" />
   <path d="M240.578 101.754c.022 6.944.413 10.05-3.694 15.415-4.595 6.003-14.275 7.642-19.708 7.804-13.945.416-20.144-2.75-24.316-22.39-3.734 1.403-21.32-2.136-20.76-6.284.263-.781.484-2.342.694-4.091-.124-1.761-.81-2.354-1.969-2.466-.649.201-1.688-3.093.182-3.555-1.862.147-1.904-2.112-1.6-3.025.314-.959.44-2.128.157-2.852-3.807.027-6.297-2.129-5.073-6.453 2.111-3.798 6.734-11.14 8.969-15.89-.19-1.773.72-5.074 1.952-7.762 1.481-1.303 33.45-5.497 32.834 12.797l3.482.387 5.05.383-.022 11.995c-.364 10.777 17.264 20.338 23.822 25.987z" fill="#308d57" fill-rule="evenodd" stroke="#000" stroke-width=".185" />
   <path d="M209.33 64.487c-2.78 32.148-12.384 38.87-29.413 37.043" fill="none" stroke="#000" stroke-width=".739" />
   <path d="M203.626 58.17c-2.143-.419-4.21-1.011-6.09-2.034-3.538-1.922-6.236-4.61-11.091-5.332-3.89-.51-7.3.015-9.502 1.111-2.231 1.112-1.118 2.902.639 2.117 1.757-.785 4.967-1.558 8.086-1.088 3.119.47 8.054 3.858 11.092 5.332 3.037 1.473 4.66 1.723 6.824 2.046.306-.808.285-1.514.041-2.153zm.342 3.443c-5.641-.376-7.142-.341-11.903-1.879-6.327-1.826-13.554-4.25-16.45 1.356-1.28 2.287-2.324 3.155 1.037 2.724 8.81 1.553 10.675-.535 14.551-1.568 2.946.347 7.745 1.157 12.484 1.952.351-.812.494-1.664.28-2.585z" fill-rule="evenodd" stroke="#000" stroke-width=".043" />
   <path d="M186.537 59.027c-3.19-1.14-6.215-1.677-8.553.274.293 1.688.943 3.039 2.454 3.577 1.79.307 4.8-.016 5.841-1.055 1.042-1.039 1.268-2.361.258-2.796z" fill-rule="evenodd" stroke="#000" stroke-width=".043" />
   <path d="M190.265 60.756c-1.39-.311-2.173-.778-3.106-1.206.187.95-.215 1.553-.627 2.148.503.159 3.102-.723 3.733-.942zm-12.186-1.239c-.969 1.227-1.818 2.15-1.937 3.32 1.422-.237 3.157.38 4.26.043-1.504-.858-2.07-2.045-2.323-3.363z" fill="#fff" fill-rule="evenodd" stroke="#000" stroke-width=".043" />
   <g stroke="#000">
      <path d="M170.174 78.792c-1.766-1.227-2.735-1.287-2.872-.32-.198 1.395 1.557.623 2.78.548" fill-rule="evenodd" stroke-width=".153" />
      <path d="M172.13 74.641c3.916 2.84 2.001 4.83.224 4.847-1.759.017-4.452-2.83-4.993-1.123-.547 1.724 2.902.936 2.825.46" fill="none" stroke-width=".191" />
   </g>
   <path d="M179.013 85.828c-.263-.06-8.104.36-8.104.36" fill="none" stroke="#000" stroke-width=".192" stroke-linecap="round" stroke-linejoin="round" />
   <path d="M214.648 67.912c.694.765-.308 1.727-1.072 2.172-4.778 3.462-4.224 7.205-1.94 9.617 1.435 1.88 3.685.969 4.16-.201.5-1.231.89-2.807 1.56-4.413 6.167-12.013 4.49-14.638 4.444-15.017-.08-.665-2.606-4.952-5.432-4.157-2.901.815-9.363 6.06-1.72 11.999z" fill="#308d57" fill-rule="evenodd" />
   <path d="M213.884 70.042c-4.778 3.462-4.223 7.205-1.939 9.617 1.434 1.88 3.684.969 4.16-.201.5-1.231.89-2.807 1.56-4.413 6.167-12.013 4.489-14.638 4.444-15.017-.08-.665-2.606-4.952-5.433-4.157-2.9.815-9.362 6.06-1.72 11.999 1.658 1.269.458 2.93-.647 5.147m-.13-9.813c4.431.202 4.241 4.38 1.43 10.813-2.24 2.364-2.608 2.772-3.038 2.556-.398-.2-.215-1.511 1.811-3.57" fill="none" stroke="#000" stroke-width=".369" />
   <path d="M212.913 62.838c.1-3.618 2.997-5.563 4.23-5.6 1.142-.033 2.7 1.12 3.648 3.795.66 1.86-.683 4.698-1.63 6.876" fill="none" stroke="#000" stroke-width=".23" />
   <path d="M214.341 78.144a.802.802 0 01-.652.928.802.802 0 01-.92-.661.802.802 0 01.65-.928.802.802 0 01.922.661z" style="marker:none" color="#000" fill="none" stroke="#000" stroke-width=".153" overflow="visible" />
   <path d="M169.338 83.278c4.861-1.328 7.967 1.534 10.477 1.998m-9.252 4.224c3.912-.302 7.581-2.763 9.187-2.967" fill="none" stroke="#000" stroke-width=".153" stroke-linecap="round" stroke-linejoin="round" />
   <path style="marker:none" d="M264.391 150.29c-10.487 9.577-24.778 16.096-43.63 16.948-18.95.857-33.546-1.951-44.662-8.846l-1.973 9.024c12.619 6.908 28.319 9.426 47 8.582 17.256-.78 31.578-6.045 42.818-14.092l.447-11.616z" color="#000" fill="#04a" fill-rule="evenodd" overflow="visible" />
   <path style="marker:none" d="M264.386 109.092c-4.405 19.406-22.12 33.798-44.408 34.789-14.292.635-25.377-.987-33.785-6.83a32.46 32.46 0 01-4.255-3.535l-1.45 5.96c.851.711 1.727 1.38 2.63 2.006 9.829 6.831 22.244 8.48 37.069 7.821 20.86-.927 38.424-12.788 46.255-29.738l.724-9.792-2.78-.68z" color="#000" fill="#308d57" fill-rule="evenodd" overflow="visible" />
   <path style="marker:none" d="M265.1 139.79c-9.824 11.286-24.614 19.603-44.809 20.618-19.12.962-32.578-2.504-42.312-8.997l-1.49 5.423c10.709 6.576 25.055 9.9 44.063 8.945 18.96-.954 33.666-8.032 44.252-18.073l.295-7.917z" color="#000" fill="#c13c1b" fill-rule="evenodd" overflow="visible" />
   <path style="marker:none" d="M254.386 107.05c-2.774 13.596-12.813 24.983-33.72 27.292-11.315 1.249-21.819.985-31.806-8.056l-6.12 4.03-.428 2.103c7.676 6.952 19.732 11.18 38.083 9.585 23.932-2.08 38.75-16.966 42.911-32.995l-8.92-1.96z" color="#000" fill="#04a" fill-rule="evenodd" overflow="visible" />
   <path style="marker:none" d="M265.973 123.038c-7.447 14.957-22.54 26.368-45.369 27.933-12.384.846-25.22-.385-35.714-6.777a40.967 40.967 0 01-4.745-3.37l-1.961 8.452a46.48 46.48 0 002.587 1.695c12.54 7.64 27.114 8.777 40.354 7.873 19.44-1.333 34.36-9.482 44.229-21.028l.62-14.778z" color="#000" fill="#04a" fill-rule="evenodd" overflow="visible" />
   <path style="marker:none" d="M263.81 164.182c-10.413 7.447-24.552 12.746-44.457 13.64h-.052c-.206.01-.37.044-.574.052-19.637.803-34.066-2.25-45.12-8.457l-4.787 21.45c13.962 6.448 30.876 9.29 50.594 8.485.231-.01.446-.042.678-.052 16.845-.757 30.942-4.606 42.603-10.331l1.116-24.787z" color="#000" fill="#fac53a" fill-rule="evenodd" overflow="visible" />
   <g fill="none" stroke="#c13c1b" stroke-width=".599">
      <path d="M828.256 211.133c-.133-7.458 4.89-18.968 9.068-26.236 3.807 7.34 8.604 19.118 8.573 26.123-.058 13.468-17.408 12.792-17.64.113z" transform="matrix(.43963 -.15544 .13533 .50495 -150.45 212.472)" />
      <path d="M830.586 210.952c-.098-5.523 3.607-14.048 6.69-19.431 2.808 5.437 6.346 14.16 6.324 19.348-.043 9.975-12.842 9.474-13.014.083z" transform="matrix(.43963 -.15544 .13533 .50495 -150.45 212.472)" />
      <path style="marker:none" d="M830.639 210.693c.946-.86 3.268-2.467 6.402-2.467 3.135 0 4.908 1.137 6.304 2.354m-10.469-9.131c1.17-.803 3.352-1.268 4.35-1.254 1.081.015 3.165.742 4.055 1.31" color="#000" stroke-linecap="round" stroke-linejoin="round" overflow="visible" transform="matrix(.43963 -.15544 .13533 .50495 -150.45 212.472)" />
   </g>
   <g fill="none" stroke="#c13c1b" stroke-width=".599">
      <path d="M828.256 211.133c-.133-7.458 4.89-18.968 9.068-26.236 3.807 7.34 8.604 19.118 8.573 26.123-.058 13.468-17.408 12.792-17.64.113z" transform="matrix(.45067 -.10581 .09212 .51763 -160.14 170.375)" />
      <path d="M830.586 210.952c-.098-5.523 3.607-14.048 6.69-19.431 2.808 5.437 6.346 14.16 6.324 19.348-.043 9.975-12.842 9.474-13.014.083z" transform="matrix(.45067 -.10581 .09212 .51763 -160.14 170.375)" />
      <path style="marker:none" d="M830.639 210.693c.946-.86 3.268-2.467 6.402-2.467 3.135 0 4.908 1.137 6.304 2.354m-10.469-9.131c1.17-.803 3.352-1.268 4.35-1.254 1.081.015 3.165.742 4.055 1.31" color="#000" stroke-linecap="round" stroke-linejoin="round" overflow="visible" transform="matrix(.45067 -.10581 .09212 .51763 -160.14 170.375)" />
   </g>
   <g fill="none" stroke="#c13c1b" stroke-width=".599">
      <path d="M828.256 211.133c-.133-7.458 4.89-18.968 9.068-26.236 3.807 7.34 8.604 19.118 8.573 26.123-.058 13.468-17.408 12.792-17.64.113z" transform="matrix(.42401 -.20483 .17833 .48702 -136.731 254.117)" />
      <path d="M830.586 210.952c-.098-5.523 3.607-14.048 6.69-19.431 2.808 5.437 6.346 14.16 6.324 19.348-.043 9.975-12.842 9.474-13.014.083z" transform="matrix(.42401 -.20483 .17833 .48702 -136.731 254.117)" />
      <path style="marker:none" d="M830.639 210.693c.946-.86 3.268-2.467 6.402-2.467 3.135 0 4.908 1.137 6.304 2.354m-10.469-9.131c1.17-.803 3.352-1.268 4.35-1.254 1.081.015 3.165.742 4.055 1.31" color="#000" stroke-linecap="round" stroke-linejoin="round" overflow="visible" transform="matrix(.42401 -.20483 .17833 .48702 -136.731 254.117)" />
   </g>
   <g fill="none" stroke="#c13c1b" stroke-width=".599">
      <path d="M828.256 211.133c-.133-7.458 4.89-18.968 9.068-26.236 3.807 7.34 8.604 19.118 8.573 26.123-.058 13.468-17.408 12.792-17.64.113z" transform="matrix(.45999 0 0 .52834 -167.809 81.488)" />
      <path d="M830.586 210.952c-.098-5.523 3.607-14.048 6.69-19.431 2.808 5.437 6.346 14.16 6.324 19.348-.043 9.975-12.842 9.474-13.014.083z" transform="matrix(.45999 0 0 .52834 -167.809 81.488)" />
      <path d="M830.639 210.693c.946-.86 3.268-2.467 6.402-2.467 3.135 0 4.908 1.137 6.304 2.354m-10.469-9.131c1.17-.803 3.352-1.268 4.35-1.254 1.081.015 3.165.742 4.055 1.31" style="marker:none" color="#000" stroke-linecap="round" stroke-linejoin="round" overflow="visible" transform="matrix(.45999 0 0 .52834 -167.809 81.488)" />
   </g>
   <g fill="none" stroke="#c13c1b" stroke-width=".599">
      <path d="M828.256 211.133c-.133-7.458 4.89-18.968 9.068-26.236 3.807 7.34 8.604 19.118 8.573 26.123-.058 13.468-17.408 12.792-17.64.113z" transform="matrix(.45963 .02079 -.0181 .52793 -173.038 64.17)" />
      <path d="M830.586 210.952c-.098-5.523 3.607-14.048 6.69-19.431 2.808 5.437 6.346 14.16 6.324 19.348-.043 9.975-12.842 9.474-13.014.083z" transform="matrix(.45963 .02079 -.0181 .52793 -173.038 64.17)" />
      <path style="marker:none" d="M830.639 210.693c.946-.86 3.268-2.467 6.402-2.467 3.135 0 4.908 1.137 6.304 2.354m-10.469-9.131c1.17-.803 3.352-1.268 4.35-1.254 1.081.015 3.165.742 4.055 1.31" color="#000" stroke-linecap="round" stroke-linejoin="round" overflow="visible" transform="matrix(.45963 .02079 -.0181 .52793 -173.038 64.17)" />
   </g>
   <g fill="none" stroke="#c13c1b" stroke-width=".599">
      <path d="M828.256 211.133c-.133-7.458 4.89-18.968 9.068-26.236 3.807 7.34 8.604 19.118 8.573 26.123-.058 13.468-17.408 12.792-17.64.113z" transform="matrix(.4571 -.05913 .05148 .52502 -166.5 131.109)" />
      <path d="M830.586 210.952c-.098-5.523 3.607-14.048 6.69-19.431 2.808 5.437 6.346 14.16 6.324 19.348-.043 9.975-12.842 9.474-13.014.083z" transform="matrix(.4571 -.05913 .05148 .52502 -166.5 131.109)" />
      <path style="marker:none" d="M830.639 210.693c.946-.86 3.268-2.467 6.402-2.467 3.135 0 4.908 1.137 6.304 2.354m-10.469-9.131c1.17-.803 3.352-1.268 4.35-1.254 1.081.015 3.165.742 4.055 1.31" color="#000" stroke-linecap="round" stroke-linejoin="round" overflow="visible" transform="matrix(.4571 -.05913 .05148 .52502 -166.5 131.109)" />
   </g>
   <g fill="none" stroke="#c13c1b" stroke-width=".599">
      <path d="M831.703 197.658c1.764-4.736 3.524-9.114 5.621-12.761 3.807 7.34 8.604 19.118 8.573 26.123-.033 7.71-5.183 10.447-10.094 9.289l-4.1-22.65z" transform="matrix(.41568 .22625 -.19698 .47744 -135.063 -105.435)" />
      <path d="M832.6 202.597c1.344-4.02 2.896-7.969 4.675-11.076 2.809 5.437 6.347 14.16 6.325 19.348-.025 5.8-4.365 8.059-8.026 7.086l-2.974-15.358z" transform="matrix(.41568 .22625 -.19698 .47744 -135.063 -105.435)" />
      <path d="M834.043 209.08c.72-.212 2.255-.675 2.973-.533 3 .59 4.933.816 6.33 2.033m-10.47-9.131c1.17-.803 3.352-1.268 4.35-1.254 1.081.015 3.165.742 4.055 1.31" style="marker:none" color="#000" stroke-linecap="round" stroke-linejoin="round" overflow="visible" transform="matrix(.41568 .22625 -.19698 .47744 -135.063 -105.435)" />
   </g>
   <g fill="none" stroke="#c13c1b" stroke-width=".599">
      <path d="M828.256 211.133c-.133-7.458 4.89-18.968 9.068-26.236 3.807 7.34 8.604 19.118 8.573 26.123-.058 13.468-17.408 12.792-17.64.113z" transform="matrix(.44992 .10992 -.0957 .51678 -167.028 -10.26)" />
      <path d="M830.586 210.952c-.098-5.523 3.607-14.048 6.69-19.431 2.808 5.437 6.346 14.16 6.324 19.348-.043 9.975-12.842 9.474-13.014.083z" transform="matrix(.44992 .10992 -.0957 .51678 -167.028 -10.26)" />
      <path style="marker:none" d="M830.639 210.693c.946-.86 3.268-2.467 6.402-2.467 3.135 0 4.908 1.137 6.304 2.354m-10.469-9.131c1.17-.803 3.352-1.268 4.35-1.254 1.081.015 3.165.742 4.055 1.31" color="#000" stroke-linecap="round" stroke-linejoin="round" overflow="visible" transform="matrix(.44992 .10992 -.0957 .51678 -167.028 -10.26)" />
   </g>
   <g fill="none" stroke="#c13c1b" stroke-width=".599">
      <path d="M828.256 211.133c-.133-7.458 4.89-18.968 9.068-26.236 3.807 7.34 8.604 19.118 8.573 26.123-.058 13.468-17.408 12.792-17.64.113z" transform="matrix(.4384 .15993 -.13924 .50355 -157.28 -51.838)" />
      <path d="M830.586 210.952c-.098-5.523 3.607-14.048 6.69-19.431 2.808 5.437 6.346 14.16 6.324 19.348-.043 9.975-12.842 9.474-13.014.083z" transform="matrix(.4384 .15993 -.13924 .50355 -157.28 -51.838)" />
      <path d="M830.639 210.693c.946-.86 3.268-2.467 6.402-2.467 3.135 0 4.908 1.137 6.304 2.354m-10.469-9.131c1.17-.803 3.352-1.268 4.35-1.254 1.081.015 3.165.742 4.055 1.31" style="marker:none" color="#000" stroke-linecap="round" stroke-linejoin="round" overflow="visible" transform="matrix(.4384 .15993 -.13924 .50355 -157.28 -51.838)" />
   </g>
   <g fill="none" stroke="#c13c1b" stroke-width=".599">
      <path d="M828.256 211.133c-.133-7.458 4.89-18.968 9.068-26.236 3.807 7.34 8.604 19.118 8.573 26.123-.058 13.468-17.408 12.792-17.64.113z" transform="matrix(.45754 .0544 -.04736 .52553 -174.522 35.792)" />
      <path d="M830.586 210.952c-.098-5.523 3.607-14.048 6.69-19.431 2.808 5.437 6.346 14.16 6.324 19.348-.043 9.975-12.842 9.474-13.014.083z" transform="matrix(.45754 .0544 -.04736 .52553 -174.522 35.792)" />
      <path style="marker:none" d="M830.639 210.693c.946-.86 3.268-2.467 6.402-2.467 3.135 0 4.908 1.137 6.304 2.354m-10.469-9.131c1.17-.803 3.352-1.268 4.35-1.254 1.081.015 3.165.742 4.055 1.31" color="#000" stroke-linecap="round" stroke-linejoin="round" overflow="visible" transform="matrix(.45754 .0544 -.04736 .52553 -174.522 35.792)" />
   </g>
   <g fill="none" stroke="#c13c1b" stroke-width=".599">
      <path d="M828.256 211.133c-.133-7.458 4.89-18.968 9.068-26.236 1.71 3.297 2.835 6.118 4.417 10.37l-12.733 19.454c-.774-1.406-.715-1.557-.752-3.588z" transform="matrix(.3982 -.2645 .23027 .45737 -116.867 305.986)" />
      <path d="M837.275 191.52c1.153 2.231 1.294 4.018 2.396 6.884l-9.629 14.61c.818-7.6 3.673-14.787 7.233-21.493z" transform="matrix(.3982 -.2645 .23027 .45737 -116.867 305.986)" />
      <path style="marker:none" d="M832.876 201.449c1.17-.803 3.352-1.268 4.35-1.254 1.081.015.263-.594 1.153-.026" color="#000" stroke-linecap="round" stroke-linejoin="round" overflow="visible" transform="matrix(.3982 -.2645 .23027 .45737 -116.867 305.986)" />
   </g>
   <path d="M243.917 105.292c-3.387 11.162-8.002 16.528-18.569 19.298-11.204 2.312-20.356 2.526-26.99-4.461l-8.238 5.262c4.737 4.432 7.754 6.058 12.549 7.489 8.603 2.567 15.634 1.42 23.82-.224 6.209-1.247 12.774-4.686 18.255-9.578 4.551-4.063 7.192-9.835 8.502-16.294l-8.2-1.753-1.13.26z" fill="#fac53a" fill-rule="evenodd" />
   <path d="M187.32 102.793c-5.52-.607-10.084-2.442-14.744-4.739-2.514 12.444-9.696 38.662-15.75 48.777l17.072 5.81c2.28-13.02 6.073-36.62 13.423-49.848z" fill-rule="evenodd" stroke="#000" stroke-width=".25" />
   <path d="M168.26 190.702c32.061 13.88 72.482 9.563 94.084-1.77" fill="none" stroke="#000" stroke-width=".25" />
   <path style="marker:none" d="M118.15 74.402c0 4.27-3.451 12.712-7.703 12.712-4.252 0-7.702-8.442-7.702-12.712 0-4.269 3.45-7.734 7.702-7.734s7.702 3.465 7.702 7.734z" color="#000" fill="#fff" fill-rule="evenodd" stroke="#025" stroke-width="1.5" stroke-linecap="round" stroke-linejoin="round" overflow="visible" />
   <path d="M94.19 75.887c.819-8.138-.462-15.283 2.88-25.178 4.078-12.075 8.152-14.169 12.902-20.513 1.799-1.47 4.76.066 3.789 2.86-5.508 5.131-9.44 12.137-11.046 16.135 1.652-.187 9.61-.798 9.788 7.448l-.027 563.04c8.86 10.167 1.244 17.981 1.72 26.814-.905.437-1.624.157-1.716-.612-1.186-9.666 2.11-13.881-.06-18.908-1.037-2.403-2.978-2.29-4.11-.245-2.436 4.407.978 7.118.087 19.059-.065.869-1.13 1.12-1.563.598-.555-8.874-6.69-16.354 1.43-26.715l-.01-562.358c-.458-4.6-5.434-5.093-7.906.105-2.897 6.094-1.67 12.41-2.446 18.614-1.287 3.995-3.931 2.455-3.713-.144z" fill="#025" fill-rule="evenodd" stroke="#025" stroke-width=".147" stroke-linecap="round" stroke-linejoin="round" />
   <g fill-rule="evenodd" stroke="#000" stroke-width=".174" stroke-linecap="round" stroke-linejoin="round">
      <path d="M147.736 230.915l-.297 22.428-15.643-1.983 1.177-19.955 14.763-.49z" fill="#fac53a" />
      <path d="M146.33 230.991l-.158 22.269-5.556-.804.606-21.278 5.109-.187zm-7.368.246l-.516 20.947c-1.608-.33-3.324-.404-4.917-.617l1.25-20.08 4.183-.25z" fill="#04a" />
   </g>
   <path d="M100.694 270.983c-1.287-.483-1.905-.068-4.515-1.033-1.768-.654-2.451-3.334-1.323-4.993.484-1.052 1.83-.913 3.023-.789.993.236 4.9-.809 6.117-1.308 3.828-.666 6.883-1.028 10.392-.93 7.734.894 12.542 4.96 17.09 9.39-.271 6.441.26 16.76-.01 23.202-7.848.896-16.752 1.357-24.646.31-.196-.031-.451-.083-.917-.117-.465-.033-2.947-.718-3.138-.737a2.884 2.884 0 01-.672-.166c-2.646-1.526-2.837-3.15-.296-5.428-2.27-1.6-2.563-3.438-.24-5.592-2.964-.928-2.977-4.066-.452-5.595-2.95-1.941-2.428-4.116-1.104-5.345.16-.159.461-.58.691-.869z" fill="#308d57" fill-rule="evenodd" stroke="#000" stroke-width=".136" />
   <g fill-rule="evenodd">
      <path d="M102.177 617.88c1.376-1.115 2.053-3.421 2.31-5.805l-.018-492.886v-2.772h12.256v2.772L116.726 612c.162 1.739.542 4.854 1.937 5.88h-16.486z" fill="#fac53a" stroke="#000" stroke-width=".2" />
      <path d="M116.707 534.407v25.787H104.49l.026-25.787h12.192zm0 51.84v25.787H104.49l.026-25.787h12.192zm0-103.977v25.787H104.49l.026-25.787h12.192zm0-103.978v25.788H104.49l.026-25.788h12.192zm0 51.84v25.787H104.49l.026-25.787h12.192zm0-104.067v25.787H104.49l.026-25.787h12.192zm0-103.977v25.787H104.49l.026-25.787h12.192zm0 51.839v25.787H104.49l.026-25.787h12.192zm0-103.977v25.787H104.49l.026-25.787h12.192zm0-50.8v24.334H104.49l.026-24.335h12.192z" style="marker:none" overflow="visible" stroke-width=".1" color="#000" fill="#04a" stroke="#025" stroke-linecap="round" stroke-linejoin="round" />
   </g>
   <path d="M121.524 294.797c8.657-1.059 2.958-25.47-1.516-24.869-6.62.104-9.775.342-16.573.07a.438.438 0 00-.367.135c-1.38 1.166-2.627 5.088.23 7.162-2.592 1.412-2.723 4.547.195 5.61-2.42 2.045-2.211 3.895-.018 5.598-2.643 2.158-2.527 3.79.046 5.436.255.105.474.168.664.196 6.892 1.135 12.596 1.34 17.2.682" fill="#308d57" fill-rule="evenodd" />
   <g fill-rule="evenodd" stroke="#000" stroke-width=".18" stroke-linecap="round" stroke-linejoin="round">
      <path d="M119.823 228.32c4.78.278 7.924 3.687 2.394 4.665 4.244-.217 8.707 4.454.03 4.92 6.587 1.172 3.81 5.017-.117 5.077 4.474.753 2.828 4.376-2.628 4.686-6.16 1.179-12.904 1.986-19.434 2.793-.119.013-.239-.02-.36-.152-1.324-1.228-1.846-3.404 1.104-5.344-2.525-1.53-2.512-4.668.452-5.596-2.324-2.154-2.03-3.992.24-5.592-2.541-2.277-2.35-3.902.296-5.428.26-.094.481-.146.672-.166 6.937-.816 12.644-.758 17.213.111m.997.17c-1.058.793-1.225 3.01.379 4.488m1.017.157c-1.625.589-1.044 3.89.044 4.752m.4.077c-1.98.371-2.734 4.226.23 4.974m-.701.09c-1.639.808-1.743 3.058-.847 4.348m-19.928-7.974c.674.068 20.984-1.433 20.984-1.433m-20.595-4.137c1.12-.094 20.61-.8 20.61-.8m-21.395 11.982l21.384-1.999" fill="#308d57" />
      <path d="M122.078 233.11c-.303-.035-.56.209-1.017-.158-1.985-1.765-.769-4.211-.392-4.507 4.24.595 6.701 3.715 1.53 4.63 4.243-.218 8.725 4.364.049 4.83 6.586 1.172 3.94 4.974.014 5.034 3.976.669 2.986 3.648-1.07 4.461-.884-1.34-.78-3.59 1.074-4.431-2.749-.78-1.724-4.66.056-5.07-1.288-.9-1.869-4.201-.244-4.79z" fill="#fff" />
   </g>
   <g transform="translate(260.574 -139.79) scale(1.6684)" stroke-linecap="round" stroke-linejoin="round">
      <path d="M-95.77 137.348l11.843-.006c-1.048.312-1.839 1.839-1.856 3.495l-8.261-.012c-.035-1.649-1.073-3.035-1.725-3.477z" style="marker:none" color="#000" fill="#04a" fill-rule="evenodd" stroke="#000" stroke-width=".021" overflow="visible" />
      <path style="marker:none" d="M-95.309 141.682h10.755c-.855.62-1.173 2.172-1.229 3.022h-8.261c-.15-1.188-.613-2.58-1.265-3.022z" color="#000" fill="#c13c1b" fill-rule="evenodd" stroke="#000" stroke-width=".021" overflow="visible" />
      <path d="M-95.309 145.55h10.755c-.778.774-1.096 2.192-1.229 3.042h-8.297c-.11-.995-.5-2.332-1.229-3.042z" style="marker:none" color="#000" fill="#04a" fill-rule="evenodd" stroke="#000" stroke-width=".021" overflow="visible" />
      <path style="marker:none" d="M-95.309 149.407h10.755c-1.047.313-1.212 2.445-1.229 4.101h-8.297c-.034-1.648-.577-3.66-1.229-4.1z" color="#000" fill="#308d57" fill-rule="evenodd" stroke="#000" stroke-width=".021" overflow="visible" />
      <path d="M-89.93 145.74v2.662m-.584-2.662l.095 2.662m-.801-2.662c.159.521.272 1.422.285 2.662m-.977-2.662c.14.358.318 1.45.407 2.662m-1.141-2.662c.211.453.463 1.517.57 2.662m-1.235-2.662c.287.521.48 1.245.638 2.662m-1.29-2.662c.366.584.548 1.526.747 2.662m-1.467-2.634c.602.76.772 1.699.95 2.634m5.053-2.662a21.56 21.56 0 00-.286 2.662m.978-2.662c-.141.358-.319 1.45-.407 2.662m1.141-2.662c-.212.453-.463 1.517-.57 2.662m1.235-2.662c-.287.521-.48 1.245-.638 2.662m1.29-2.662c-.366.584-.548 1.526-.747 2.662m1.467-2.634c-.602.76-.772 1.699-.951 2.634m-3.151-2.662l-.122 2.662M-89.93 149.62v3.622m-.584-3.622l.095 3.622m-.801-3.622c.159.708.272 1.934.285 3.622m-.977-3.622c.14.487.318 1.971.407 3.622m-1.141-3.622c.211.616.463 2.064.57 3.622m-1.235-3.622c.287.708.48 1.694.638 3.622m-1.29-3.622c.366.794.548 2.075.747 3.622m-1.467-3.585c.602 1.033.772 2.312.95 3.585m5.053-3.622c-.16.708-.272 1.934-.286 3.622m.978-3.622c-.141.487-.319 1.971-.407 3.622m1.141-3.622c-.212.616-.463 2.064-.57 3.622m1.235-3.622c-.287.708-.48 1.694-.638 3.622m1.29-3.622c-.366.794-.548 2.075-.747 3.622m1.39-3.623c-.602 1.033-.695 2.35-.874 3.623m-3.151-3.622l-.122 3.622M-89.93 141.861v2.662m-.584-2.662l.095 2.662m-.801-2.662c.159.52.272 1.422.285 2.662m-.977-2.662c.14.358.318 1.449.407 2.662m-1.141-2.662c.211.453.463 1.517.57 2.662m-1.235-2.662c.287.52.48 1.245.638 2.662m-1.29-2.662c.366.584.548 1.525.747 2.662m-1.467-2.635c.602.76.772 1.7.95 2.635m5.11-2.662c-.136.52-.255 1.422-.343 2.662m.978-2.662c-.141.358-.319 1.449-.407 2.662m1.141-2.662c-.212.453-.463 1.517-.57 2.662m1.235-2.662c-.287.52-.48 1.245-.638 2.662m1.29-2.662c-.366.584-.548 1.525-.747 2.662m1.467-2.635c-.602.76-.772 1.7-.951 2.635m-3.151-2.662l-.122 2.662M-89.93 137.56v3.045m-.584-3.045l.095 3.045m-.801-3.045c.159.595.272 1.626.285 3.045m-.977-3.045c.14.408.318 1.657.407 3.045m-1.141-3.045c.211.517.463 1.734.57 3.045m-1.235-3.045c.287.595.48 1.424.638 3.045m-1.29-3.045c.366.667.548 1.744.747 3.045m-1.64-3.015c.64.62.945 1.944 1.124 3.015m5.052-3.045c-.082.556-.176 1.51-.286 3.045m.978-3.045c-.141.408-.319 1.657-.407 3.045m1.141-3.045c-.212.517-.463 1.734-.57 3.045m1.235-3.045c-.287.595-.48 1.424-.638 3.045m1.29-3.045c-.366.667-.548 1.744-.747 3.045m1.601-3.015c-.544.504-.906 1.944-1.085 3.015m-3.151-3.045l-.122 3.045" stroke-width=".138" fill="none" stroke="#fff" stroke-opacity=".706" />
      <rect style="marker:none" width="17.518" height=".848" x="-98.71" y="148.594" ry=".353" color="#000" fill="#fac53a" fill-rule="evenodd" stroke="#000" stroke-width=".021" overflow="visible" />
      <rect ry=".353" y="144.715" x="-98.71" height=".848" width="17.518" style="marker:none" color="#000" fill="#fac53a" fill-rule="evenodd" stroke="#000" stroke-width=".021" overflow="visible" />
      <rect ry=".353" y="140.836" x="-98.71" height=".848" width="17.535" style="marker:none" color="#000" fill="#fac53a" fill-rule="evenodd" stroke="#000" stroke-width=".021" overflow="visible" />
      <rect style="marker:none" width="17.576" height=".848" x="-98.71" y="136.495" ry=".353" color="#000" fill="#fac53a" fill-rule="evenodd" stroke="#000" stroke-width=".021" overflow="visible" />
   </g>
   <path d="M102.022 269.424c5.492 1.219 10.465.36 15.694.527" fill="none" stroke="#000" stroke-width=".25" />
   <g fill-rule="evenodd" stroke="#000" stroke-width=".174" stroke-linecap="round" stroke-linejoin="round">
      <path d="M147.08 267.453l1.489 24.135-17.427 2.98-.02-23.677 15.959-3.438z" fill="#fac53a" />
      <path d="M144.99 267.895l1.571 24.117-5.44.891-1.106-23.934 4.975-1.074zm-7.747 1.76l1.274 23.757-5.475.875-.19-23.786 4.39-.846z" fill="#04a" />
   </g>
   <path d="M270.208 110.81h12.103m-12.252 1.34h12.475m-12.997 7.597h13.668m-13.705 1.341h13.742m-14.114 7.597h14.822m-14.971 1.341h15.045m-15.454 7.597h16.162m-16.2 1.341h16.311m-16.683 6.703h17.168m-17.355 1.341h17.54m-17.913 7.597h18.472m-18.582 1.341h18.769m-9.501 10.796l.02-10.217m-1.231 10.217l.02-10.217m-1.284 10.217l.02-10.217m-1.231 10.217l.02-10.217m-1.179 10.217l.02-10.217m-1.442 10.217l.23-10.217m-1.651 10.217l.283-10.217m-1.706 10.217l.494-10.217m13.704 10.217l-.19-10.217m-1.263 10.217l.02-10.217m-1.284 10.217l.02-10.217m-1.231 10.217l.02-10.217m8.196 10.217l-.664-10.217m-.758 10.217l-.454-10.217m-.915 10.217l-.454-10.217" fill="none" stroke="#c13c1b" stroke-width=".3" stroke-linecap="round" stroke-linejoin="round" />
   <g fill="none" stroke="#c13c1b" stroke-width=".112">
      <path d="M225.284 130.675c-.442-1.423-.253-3.875.034-5.473 1.049 1.22 2.513 3.241 2.903 4.585.75 2.584-2.183 3.306-2.937.888z" />
      <path d="M225.825 130.397c-.278-.894-.17-2.433.002-3.435.652.77 1.563 2.043 1.808 2.888.471 1.625-1.336 2.068-1.81.547z" />
   </g>
   <g fill="none" stroke="#c13c1b" stroke-width=".112">
      <path d="M229.423 129.62c-.633-1.348-.78-3.803-.714-5.425 1.206 1.065 2.933 2.867 3.502 4.145 1.096 2.457-1.71 3.573-2.788 1.28z" />
      <path d="M229.921 129.272c-.397-.848-.5-2.387-.467-3.404.75.674 1.827 1.811 2.185 2.615.689 1.545-1.041 2.231-1.718.79z" />
   </g>
   <g fill="none" stroke="#c13c1b" stroke-width=".112">
      <path d="M233.288 127.984c-.739-1.294-1.082-3.73-1.145-5.352 1.287.966 3.152 2.625 3.822 3.853 1.288 2.362-1.421 3.698-2.677 1.499z" />
      <path d="M233.756 127.597c-.464-.814-.689-2.34-.737-3.356.802.611 1.966 1.66 2.387 2.432.81 1.485-.86 2.307-1.65.924z" />
   </g>
   <g fill="none" stroke="#c13c1b" stroke-width=".112">
      <path d="M237.09 126.065c-.949-1.149-1.704-3.49-2.044-5.077 1.433.73 3.555 2.046 4.425 3.141 1.674 2.106-.766 3.887-2.38 1.936z" />
      <path d="M237.486 125.603c-.597-.722-1.08-2.188-1.302-3.18.895.465 2.221 1.298 2.769 1.987 1.052 1.324-.452 2.42-1.467 1.193z" />
   </g>
   <g fill="none" stroke="#c13c1b" stroke-width=".112">
      <path d="M240.5 123.574c-1.05-1.057-2.015-3.32-2.499-4.87 1.494.598 3.727 1.714 4.694 2.726 1.858 1.944-.409 3.94-2.195 2.144z" />
      <path d="M240.852 123.078c-.66-.665-1.275-2.08-1.586-3.048.934.381 2.33 1.09 2.938 1.726 1.169 1.223-.23 2.452-1.352 1.322z" />
   </g>
   <g fill="none" stroke="#c13c1b" stroke-width=".112">
      <path d="M243.656 120.686c-1.235-.833-2.62-2.865-3.396-4.292 1.582.296 3.989.958 5.133 1.763 2.2 1.547.364 3.945-1.737 2.529z" />
      <path d="M243.905 120.131c-.777-.524-1.654-1.793-2.147-2.682.99.193 2.497.617 3.217 1.124 1.384.973.25 2.449-1.07 1.558z" />
   </g>
   <g fill="none" stroke="#c13c1b" stroke-width=".112">
      <path d="M246.057 117.449c-1.293-.74-2.825-2.664-3.704-4.029 1.6.178 4.048.66 5.25 1.378 2.308 1.38.654 3.907-1.546 2.65z" />
      <path d="M246.264 116.877c-.813-.465-1.782-1.665-2.339-2.516 1.001.12 2.536.431 3.291.883 1.452.868.431 2.424-.952 1.633z" />
   </g>
   <g fill="none" stroke="#c13c1b" stroke-width=".112">
      <path d="M248.03 113.892c-1.363-.603-3.086-2.358-4.1-3.626 1.609.013 4.095.24 5.363.83 2.439 1.136 1.053 3.82-1.264 2.796z" />
      <path d="M248.176 113.302c-.856-.379-1.944-1.473-2.586-2.262 1.008.016 2.567.168 3.365.54 1.533.713.678 2.366-.779 1.722z" />
   </g>
   <g fill="none" stroke="#c13c1b" stroke-width=".112">
      <path d="M249.574 109.978c-1.39-.535-3.197-2.204-4.273-3.42 1.608-.067 4.102.038 5.398.565 2.492 1.014 1.24 3.763-1.125 2.855z" />
      <path d="M249.692 109.381c-.874-.336-2.015-1.375-2.694-2.131 1.007-.035 2.572.04 3.387.372 1.567.638.794 2.331-.693 1.76z" />
   </g>
   <g fill="none" stroke="#c13c1b" stroke-width=".112">
      <path d="M224.188 130.898c-.156-1.482-1.3-3.66-2.197-5.013-.48 1.536-1.025 3.972-.85 5.36.333 2.67 3.312 2.172 3.047-.347z" />
      <path d="M223.582 130.857c-.099-.932-.808-2.302-1.362-3.154-.294.964-.626 2.495-.517 3.368.21 1.678 2.046 1.37 1.879-.214z" />
   </g>
   <g fill="none" stroke="#c13c1b" stroke-width=".112">
      <path d="M220.156 131.475c.006-1.49-.894-3.78-1.637-5.223-.645 1.474-1.452 3.836-1.43 5.235.04 2.69 3.056 2.52 3.067-.012z" />
      <path d="M219.558 131.368c.003-.937-.552-2.376-1.01-3.284-.397.927-.894 2.412-.88 3.292.025 1.691 1.883 1.585 1.89-.008z" />
   </g>
   <g fill="none" stroke="#c13c1b" stroke-width=".112">
      <path d="M216.127 131.897c.08-1.488-.704-3.819-1.374-5.297-.718 1.44-1.642 3.758-1.69 5.156-.094 2.689 2.926 2.67 3.064.141z" />
      <path d="M215.535 131.76c.05-.935-.432-2.4-.845-3.33-.443.906-1.013 2.365-1.044 3.244-.059 1.69 1.802 1.677 1.889.087z" />
   </g>
   <g fill="none" stroke="#c13c1b" stroke-width=".112">
      <path d="M211.81 132.073c.234-1.47-.304-3.871-.817-5.411-.864 1.357-2.024 3.567-2.217 4.953-.373 2.664 2.633 2.96 3.033.458z" />
      <path d="M211.234 131.876c.148-.925-.18-2.433-.493-3.4-.535.855-1.254 2.246-1.376 3.118-.234 1.675 1.618 1.855 1.87.282z" />
   </g>
   <g fill="none" stroke="#c13c1b" stroke-width=".112">
      <path d="M207.42 131.637c.44-1.424.247-3.876-.043-5.473-1.047 1.221-2.508 3.245-2.896 4.59-.745 2.584 2.189 3.302 2.939.882z" />
      <path d="M206.878 131.36c.277-.895.166-2.434-.007-3.436-.65.77-1.56 2.046-1.803 2.892-.47 1.625 1.34 2.066 1.81.544z" />
   </g>
   <g fill="none" stroke="#c13c1b" stroke-width=".112">
      <path d="M203.036 130.62c.8-1.256 1.26-3.672 1.4-5.29-1.331.903-3.274 2.47-4.002 3.665-1.4 2.297 1.241 3.762 2.602 1.626z" />
      <path d="M202.586 130.211c.503-.79.802-2.304.898-3.316-.83.572-2.043 1.563-2.5 2.314-.881 1.445.747 2.346 1.602 1.002z" />
   </g>
   <g fill="none" stroke="#c13c1b" stroke-width=".112">
      <path d="M199.104 128.621c.95-1.147 1.707-3.488 2.049-5.075-1.434.73-3.557 2.043-4.428 3.138-1.675 2.105.763 3.888 2.38 1.937z" />
      <path d="M198.71 128.16c.596-.723 1.081-2.187 1.303-3.18-.895.465-2.222 1.297-2.77 1.985-1.053 1.324.45 2.421 1.466 1.194z" />
   </g>
   <g fill="none" stroke="#c13c1b" stroke-width=".112">
      <path d="M196.135 126.244c1.117-.986 2.228-3.18 2.811-4.696-1.53.499-3.83 1.467-4.86 2.414-1.982 1.82.15 3.958 2.05 2.282z" />
      <path d="M195.817 125.726c.702-.62 1.408-1.992 1.78-2.938-.956.32-2.395.937-3.043 1.532-1.246 1.144.07 2.46 1.263 1.406z" />
   </g>
</svg>