<svg width="322" height="600" xmlns="http://www.w3.org/2000/svg">
    <path d="M109.61 599.35c-.51-.53-22.94-1.1-49.84-1.24-41.77-.21-49.48-.54-52.82-2.28-10.03-5.18-8.9-21.51 2.12-30.77 6.51-5.45 14.81-9.1 39.08-17.15 12.52-4.15 38.33-14.14 57.34-22.19 19.03-8.05 42.89-17.63 53.03-21.3 29.8-10.78 37.85-15.63 43.64-26.31 4.78-8.79 6.58-19.75 5.76-35.12-5.32-100.66-6.07-125.03-6.07-195.86 0-46.53-.54-71.91-1.85-87.3-1.01-11.93-2.75-38.3-3.85-58.59-1.1-20.3-2.87-45.79-3.93-56.65-3.72-38.26-3.71-37.23-.82-40.77l2.59-3.18L255.4.28l61.41-.36 2.8 2.79c2.79 2.78 2.79 2.84 1.96 42.4-.45 21.78-1.65 53.07-2.65 69.54-1.28 21.08-1.61 43.31-1.11 75.16.87 55.59.05 70.47-9.21 168.79-5.73 60.8-8.68 102.98-8.71 124.84-.03 20.2.26 22.85 4.23 39.49 3.49 14.59 4.3 20.51 4.37 32.48.08 12.95-.25 15.29-2.83 20.12-5.97 11.13-15.95 18.62-29.26 21.97-9.19 2.31-17.51.3-37.46-9.05-21.68-10.18-21.6-10.17-33.91-3.63-20.03 10.63-21.89 11.45-28.76 12.66-8.92 1.58-65.45 3.16-66.66 1.87m51.57-8.31c15.24-1.5 17.1-2.1 31.76-10.43 5.98-3.39 13.86-7.09 17.52-8.25 8.33-2.61 11.45-1.82 33.86 8.67 19.27 9.03 25.97 10.28 34.57 6.5 8.37-3.7 16.76-11.91 20.12-19.7 3.49-8.08 3.08-16.3-1.88-37.03-7.92-33.18-7.43-51.63 5.05-188.76 8.1-89.11 8.52-97.54 8.13-161.02-.22-34.64.23-65.54 1.16-79.19 2.62-38.44 3.53-89.94 1.64-92.22-1.43-1.71-8.72-1.97-57.55-1.97-48.01 0-56.14.27-57.49 1.9-1.23 1.48-1.28 4.14-.22 11.78 1.94 13.95 3.74 37.48 5.98 78.04 1.06 19.26 2.77 45.35 3.81 57.96 1.33 16.22 1.88 41.75 1.88 87.27-.02 61.88 1.12 105.75 4.05 157.32 3.33 58.46 2.91 68.52-3.35 80.83-5.56 10.95-15 17.73-34.53 24.8-24.15 8.74-30.75 11.36-65.16 25.9-18.98 8.01-44.66 17.91-57.08 22.01-25.44 8.4-31.79 11.24-37.91 16.98-6.47 6.08-8.19 9.99-5.85 13.32 3.15 4.48 9.72 5.38 33.75 4.63 12.3-.38 32.43-.18 44.73.45 32.18 1.64 57.83 1.72 73.01.21" />
    <path fill="#ae3c2a" d="M88.17 590.83c-12.3-.63-32.43-.83-44.73-.45-24.03.75-30.6-.15-33.75-4.63-2.34-3.33-.62-7.24 5.85-13.32 6.12-5.74 12.47-8.58 37.91-16.98 12.42-4.1 38.1-14 57.08-22.01 34.41-14.54 41.01-17.16 65.16-25.9 19.53-7.07 28.97-13.85 34.53-24.8 6.26-12.31 6.68-22.37 3.35-80.83-2.93-51.57-4.07-95.44-4.05-157.32 0-45.52-.55-71.05-1.88-87.27-1.04-12.61-2.75-38.7-3.81-57.96-2.25-40.74-4.04-64.1-6-78.23-1.3-9.23-1.21-10.23.93-11.78 1.86-1.36 13.45-1.71 57.52-1.71 48.18 0 55.4.26 56.83 1.97 1.89 2.28.98 53.78-1.64 92.22-.93 13.65-1.38 44.55-1.16 79.19.39 63.48-.03 71.91-8.13 161.02-12.48 137.13-12.97 155.58-5.05 188.76 4.96 20.73 5.37 28.95 1.88 37.03-3.36 7.79-11.75 16-20.12 19.7-8.6 3.78-15.3 2.53-34.57-6.5-22.41-10.49-25.53-11.28-33.86-8.67-3.66 1.16-11.54 4.86-17.52 8.25-5.98 3.39-12.58 6.83-14.69 7.64-10.03 3.89-44.85 4.88-90.08 2.58" />
</svg>