<svg xmlns="http://www.w3.org/2000/svg" xmlns:xlink="http://www.w3.org/1999/xlink" width="896.634" height="850" version="1.0">
   <g transform="translate(2032.307 -549.995)">
      <path d="M-1569.621 1395.59h-25.866l-16.268-.137c-3.003-14.215-6.443-29.074-8.934-42.533-3.369-18.2-9.752-38.784-1.834-47.982 5.965-6.93 30.206-7.465 29.523 8.96h21.963c-.683-16.425 20.26-15.89 26.224-8.96 7.918 9.198 3.763 29.782.394 47.982-2.492 13.46-5.931 28.318-8.934 42.533l-16.268.138z" fill="#c13c1b" fill-rule="evenodd" stroke="#000" stroke-width=".53" />
      <path d="M-1540.503 1326.542c-6.687-3.911-21.35-5.695-31.246-1.989M-1540.424 1325.121c-6.687-3.91-21.62-5.694-31.515-1.988M-1543.012 1346.237c-6.784-4.743-21.57-6.245-28.406-2.557M-1542.822 1344.91c-6.785-4.741-21.771-6.177-28.608-2.489M-1546.231 1363.186c-6.592-2.87-18.795-3.327-25.187-2.083M-1546.231 1361.86c-6.592-2.87-18.795-3.327-25.187-2.083M-1550.304 1380.733c-5.362-1.828-15.858-3.073-21.209-1.64M-1549.958 1379.26c-5.361-1.828-16.204-3.14-21.555-1.707" fill="none" stroke="#000" stroke-width=".53" />
      <path d="M-1593.356 1395.387l.12-811.505 23.579.046-.25 811.646" fill="#308d57" fill-rule="evenodd" stroke="#000" stroke-width=".53" />
      <g fill="none" stroke="#000" stroke-width=".5">
         <path d="M-1592.73 1047.042c7.413 1.087 14.516.931 21.425 0M-1592.73 1050.549c7.413 1.086 14.516.93 21.425 0M-1592.73 1054.724c7.413 1.087 14.516.931 21.425 0M-1592.73 1058.632c7.413 1.087 14.516.931 21.425 0M-1592.73 1032.045c7.413 1.086 14.516.93 21.425 0M-1592.73 1035.55c7.413 1.087 14.516.932 21.425 0M-1592.73 1039.727c7.413 1.086 14.516.93 21.425 0M-1592.73 1043.635c7.413 1.086 14.516.93 21.425 0M-1592.73 1016.78c7.413 1.086 14.516.93 21.425 0M-1592.73 1020.285c7.413 1.087 14.516.931 21.425 0M-1592.73 1024.461c7.413 1.087 14.516.93 21.425 0M-1592.73 1028.369c7.413 1.087 14.516.93 21.425 0M-1592.73 1001.781c7.413 1.087 14.516.931 21.425 0M-1592.73 1005.287c7.413 1.087 14.516.931 21.425 0M-1592.73 1009.463c7.413 1.087 14.516.931 21.425 0M-1592.73 1013.371c7.413 1.087 14.516.931 21.425 0" stroke-width=".265125" />
         <g>
            <path d="M-1592.73 1290.063c7.413 1.086 14.516.93 21.425 0M-1592.73 1293.57c7.413 1.086 14.516.93 21.425 0M-1592.73 1297.745c7.413 1.086 14.516.93 21.425 0M-1592.73 1301.653c7.413 1.086 14.516.93 21.425 0M-1592.73 1275.065c7.413 1.087 14.516.93 21.425 0M-1592.73 1278.571c7.413 1.087 14.516.931 21.425 0M-1592.73 1282.747c7.413 1.087 14.516.93 21.425 0M-1592.73 1286.655c7.413 1.087 14.516.93 21.425 0M-1592.73 1259.8c7.413 1.086 14.516.93 21.425 0M-1592.73 1263.306c7.413 1.086 14.516.93 21.425 0M-1592.73 1267.482c7.413 1.086 14.516.93 21.425 0M-1592.73 1271.39c7.413 1.086 14.516.93 21.425 0M-1592.73 1244.802c7.413 1.086 14.516.93 21.425 0M-1592.73 1248.308c7.413 1.087 14.516.93 21.425 0M-1592.73 1252.484c7.413 1.086 14.516.93 21.425 0M-1592.73 1256.392c7.413 1.086 14.516.93 21.425 0" stroke-width=".265125" />
         </g>
         <g>
            <path d="M-1592.73 1229.536c7.413 1.087 14.516.93 21.425 0M-1592.73 1233.042c7.413 1.087 14.516.931 21.425 0M-1592.73 1237.218c7.413 1.087 14.516.931 21.425 0M-1592.73 1241.126c7.413 1.087 14.516.93 21.425 0M-1592.73 1214.538c7.413 1.087 14.516.931 21.425 0M-1592.73 1218.045c7.413 1.086 14.516.93 21.425 0M-1592.73 1222.22c7.413 1.087 14.516.931 21.425 0M-1592.73 1226.128c7.413 1.087 14.516.931 21.425 0M-1592.73 1199.273c7.413 1.086 14.516.93 21.425 0M-1592.73 1202.779c7.413 1.087 14.516.93 21.425 0M-1592.73 1206.955c7.413 1.086 14.516.93 21.425 0M-1592.73 1210.863c7.413 1.086 14.516.93 21.425 0M-1592.73 1184.275c7.413 1.087 14.516.93 21.425 0M-1592.73 1187.781c7.413 1.087 14.516.931 21.425 0M-1592.73 1191.957c7.413 1.087 14.516.93 21.425 0M-1592.73 1195.865c7.413 1.086 14.516.93 21.425 0" stroke-width=".265125" />
         </g>
         <g>
            <path d="M-1592.73 1168.29c7.413 1.086 14.516.93 21.425 0M-1592.73 1171.796c7.413 1.087 14.516.931 21.425 0M-1592.73 1175.972c7.413 1.086 14.516.93 21.425 0M-1592.73 1179.88c7.413 1.086 14.516.93 21.425 0M-1592.73 1153.292c7.413 1.087 14.516.93 21.425 0M-1592.73 1156.798c7.413 1.087 14.516.931 21.425 0M-1592.73 1160.974c7.413 1.087 14.516.931 21.425 0M-1592.73 1164.882c7.413 1.087 14.516.93 21.425 0M-1592.73 1138.027c7.413 1.086 14.516.93 21.425 0M-1592.73 1141.533c7.413 1.086 14.516.93 21.425 0M-1592.73 1145.709c7.413 1.086 14.516.93 21.425 0M-1592.73 1149.616c7.413 1.087 14.516.931 21.425 0M-1592.73 1123.029c7.413 1.086 14.516.93 21.425 0M-1592.73 1126.535c7.413 1.087 14.516.93 21.425 0M-1592.73 1130.71c7.413 1.087 14.516.932 21.425 0M-1592.73 1134.619c7.413 1.086 14.516.93 21.425 0" stroke-width=".265125" />
         </g>
         <g>
            <path d="M-1592.73 1107.763c7.413 1.087 14.516.931 21.425 0M-1592.73 1111.27c7.413 1.086 14.516.93 21.425 0M-1592.73 1115.445c7.413 1.087 14.516.931 21.425 0M-1592.73 1119.353c7.413 1.087 14.516.931 21.425 0M-1592.73 1092.765c7.413 1.087 14.516.931 21.425 0M-1592.73 1096.272c7.413 1.086 14.516.93 21.425 0M-1592.73 1100.447c7.413 1.087 14.516.931 21.425 0M-1592.73 1104.355c7.413 1.087 14.516.931 21.425 0M-1592.73 1077.5c7.413 1.086 14.516.93 21.425 0M-1592.73 1081.006c7.413 1.087 14.516.93 21.425 0M-1592.73 1085.182c7.413 1.086 14.516.93 21.425 0M-1592.73 1089.09c7.413 1.086 14.516.93 21.425 0M-1592.73 1062.502c7.413 1.087 14.516.93 21.425 0M-1592.73 1066.008c7.413 1.087 14.516.931 21.425 0M-1592.73 1070.184c7.413 1.087 14.516.93 21.425 0M-1592.73 1074.092c7.413 1.087 14.516.93 21.425 0" stroke-width=".265125" />
         </g>
         <g>
            <path d="M-1592.73 986.516c7.413 1.086 14.516.93 21.425 0M-1592.73 990.022c7.413 1.086 14.516.93 21.425 0M-1592.73 994.198c7.413 1.086 14.516.93 21.425 0M-1592.73 998.106c7.413 1.086 14.516.93 21.425 0M-1592.73 971.518c7.413 1.086 14.516.93 21.425 0M-1592.73 975.024c7.413 1.087 14.516.931 21.425 0M-1592.73 979.2c7.413 1.086 14.516.93 21.425 0M-1592.73 983.108c7.413 1.086 14.516.93 21.425 0M-1592.73 956.252c7.413 1.087 14.516.931 21.425 0M-1592.73 959.759c7.413 1.086 14.516.93 21.425 0M-1592.73 963.934c7.413 1.087 14.516.931 21.425 0M-1592.73 967.842c7.413 1.087 14.516.931 21.425 0M-1592.73 941.254c7.413 1.087 14.516.931 21.425 0M-1592.73 944.76c7.413 1.087 14.516.932 21.425 0M-1592.73 948.937c7.413 1.086 14.516.93 21.425 0M-1592.73 952.844c7.413 1.087 14.516.931 21.425 0" stroke-width=".265125" />
         </g>
         <g>
            <path d="M-1592.73 925.27c7.413 1.086 14.516.93 21.425 0M-1592.73 928.776c7.413 1.086 14.516.93 21.425 0M-1592.73 932.951c7.413 1.087 14.516.931 21.425 0M-1592.73 936.86c7.413 1.086 14.516.93 21.425 0M-1592.73 910.272c7.413 1.086 14.516.93 21.425 0M-1592.73 913.778c7.413 1.086 14.516.93 21.425 0M-1592.73 917.954c7.413 1.086 14.516.93 21.425 0M-1592.73 921.862c7.413 1.086 14.516.93 21.425 0M-1592.73 895.006c7.413 1.087 14.516.93 21.425 0M-1592.73 898.512c7.413 1.087 14.516.931 21.425 0M-1592.73 902.688c7.413 1.087 14.516.931 21.425 0M-1592.73 906.596c7.413 1.087 14.516.93 21.425 0M-1592.73 880.008c7.413 1.087 14.516.931 21.425 0M-1592.73 883.515c7.413 1.086 14.516.93 21.425 0M-1592.73 887.69c7.413 1.087 14.516.931 21.425 0M-1592.73 891.598c7.413 1.087 14.516.931 21.425 0" stroke-width=".265125" />
         </g>
         <g>
            <path d="M-1592.73 864.743c7.413 1.086 14.516.93 21.425 0M-1592.73 868.249c7.413 1.087 14.516.93 21.425 0M-1592.73 872.425c7.413 1.086 14.516.93 21.425 0M-1592.73 876.333c7.413 1.086 14.516.93 21.425 0M-1592.73 849.745c7.413 1.086 14.516.93 21.425 0M-1592.73 853.251c7.413 1.087 14.516.931 21.425 0M-1592.73 857.427c7.413 1.087 14.516.93 21.425 0M-1592.73 861.335c7.413 1.086 14.516.93 21.425 0M-1592.73 834.48c7.413 1.086 14.516.93 21.425 0M-1592.73 837.986c7.413 1.086 14.516.93 21.425 0M-1592.73 842.161c7.413 1.087 14.516.931 21.425 0M-1592.73 846.07c7.413 1.086 14.516.93 21.425 0M-1592.73 819.482c7.413 1.086 14.516.93 21.425 0M-1592.73 822.988c7.413 1.086 14.516.93 21.425 0M-1592.73 827.164c7.413 1.086 14.516.93 21.425 0M-1592.73 831.071c7.413 1.087 14.516.931 21.425 0" stroke-width=".265125" />
         </g>
         <g>
            <path d="M-1592.73 803.864c7.413 1.087 14.516.93 21.425 0M-1592.73 807.37c7.413 1.087 14.516.931 21.425 0M-1592.73 811.546c7.413 1.087 14.516.931 21.425 0M-1592.73 815.454c7.413 1.087 14.516.93 21.425 0M-1592.73 788.866c7.413 1.087 14.516.931 21.425 0M-1592.73 792.373c7.413 1.086 14.516.93 21.425 0M-1592.73 796.548c7.413 1.087 14.516.931 21.425 0M-1592.73 800.456c7.413 1.087 14.516.931 21.425 0M-1592.73 773.6c7.413 1.087 14.516.932 21.425 0M-1592.73 777.107c7.413 1.087 14.516.93 21.425 0M-1592.73 781.283c7.413 1.086 14.516.93 21.425 0M-1592.73 785.19c7.413 1.087 14.516.932 21.425 0M-1592.73 758.603c7.413 1.087 14.516.93 21.425 0M-1592.73 762.11c7.413 1.086 14.516.93 21.425 0M-1592.73 766.285c7.413 1.087 14.516.93 21.425 0M-1592.73 770.193c7.413 1.086 14.516.93 21.425 0" stroke-width=".265125" />
         </g>
         <g>
            <path d="M-1592.73 742.618c7.413 1.086 14.516.93 21.425 0M-1592.73 746.124c7.413 1.087 14.516.931 21.425 0M-1592.73 750.3c7.413 1.087 14.516.93 21.425 0M-1592.73 754.208c7.413 1.086 14.516.93 21.425 0M-1592.73 727.62c7.413 1.087 14.516.931 21.425 0M-1592.73 731.126c7.413 1.087 14.516.931 21.425 0M-1592.73 735.302c7.413 1.087 14.516.931 21.425 0M-1592.73 739.21c7.413 1.087 14.516.93 21.425 0M-1592.73 712.355c7.413 1.086 14.516.93 21.425 0M-1592.73 715.86c7.413 1.087 14.516.932 21.425 0M-1592.73 720.037c7.413 1.086 14.516.93 21.425 0M-1592.73 723.945c7.413 1.086 14.516.93 21.425 0M-1592.73 697.357c7.413 1.086 14.516.93 21.425 0M-1592.73 700.863c7.413 1.087 14.516.93 21.425 0M-1592.73 705.039c7.413 1.086 14.516.93 21.425 0M-1592.73 708.947c7.413 1.086 14.516.93 21.425 0" stroke-width=".265125" />
         </g>
         <g>
            <path d="M-1592.73 682.091c7.413 1.087 14.516.931 21.425 0M-1592.73 685.597c7.413 1.087 14.516.931 21.425 0M-1592.73 689.773c7.413 1.087 14.516.931 21.425 0M-1592.73 693.681c7.413 1.087 14.516.931 21.425 0M-1592.73 667.093c7.413 1.087 14.516.931 21.425 0M-1592.73 670.6c7.413 1.086 14.516.93 21.425 0M-1592.73 674.775c7.413 1.087 14.516.931 21.425 0M-1592.73 678.683c7.413 1.087 14.516.931 21.425 0M-1592.73 651.828c7.413 1.086 14.516.93 21.425 0M-1592.73 655.334c7.413 1.087 14.516.93 21.425 0M-1592.73 659.51c7.413 1.086 14.516.93 21.425 0M-1592.73 663.418c7.413 1.086 14.516.93 21.425 0M-1592.73 636.83c7.413 1.087 14.516.93 21.425 0M-1592.73 640.336c7.413 1.087 14.516.931 21.425 0M-1592.73 644.512c7.413 1.087 14.516.93 21.425 0M-1592.73 648.42c7.413 1.087 14.516.93 21.425 0" stroke-width=".265125" />
         </g>
         <g>
            <path d="M-1592.73 621.564c7.413 1.087 14.516.931 21.425 0M-1592.73 625.07c7.413 1.087 14.516.932 21.425 0M-1592.73 629.246c7.413 1.087 14.516.931 21.425 0M-1592.73 633.154c7.413 1.087 14.516.931 21.425 0M-1592.73 606.567c7.413 1.086 14.516.93 21.425 0M-1592.73 610.073c7.413 1.086 14.516.93 21.425 0M-1592.73 614.249c7.413 1.086 14.516.93 21.425 0M-1592.73 618.157c7.413 1.086 14.516.93 21.425 0M-1592.73 602.891c7.413 1.087 14.516.93 21.425 0" stroke-width=".265125" />
         </g>
         <g>
            <path d="M-1592.73 1351.042c7.413 1.086 14.516.93 21.425 0M-1592.73 1354.548c7.413 1.087 14.516.93 21.425 0M-1592.73 1358.724c7.413 1.086 14.516.93 21.425 0M-1592.73 1362.632c7.413 1.086 14.516.93 21.425 0M-1592.73 1336.044c7.413 1.087 14.516.93 21.425 0M-1592.73 1339.55c7.413 1.087 14.516.931 21.425 0M-1592.73 1343.726c7.413 1.087 14.516.93 21.425 0M-1592.73 1347.634c7.413 1.087 14.516.93 21.425 0M-1592.73 1320.778c7.413 1.087 14.516.931 21.425 0M-1592.73 1324.285c7.413 1.086 14.516.93 21.425 0M-1592.73 1328.46c7.413 1.087 14.516.931 21.425 0M-1592.73 1332.368c7.413 1.087 14.516.931 21.425 0M-1592.73 1305.78c7.413 1.087 14.516.931 21.425 0M-1592.73 1309.287c7.413 1.086 14.516.93 21.425 0M-1592.73 1313.463c7.413 1.086 14.516.93 21.425 0M-1592.73 1317.37c7.413 1.087 14.516.931 21.425 0" stroke-width=".265125" />
         </g>
         <g>
            <path d="M-1592.73 1381.379c7.413 1.086 14.516.93 21.425 0M-1592.73 1384.885c7.413 1.086 14.516.93 21.425 0M-1592.73 1389.06c7.413 1.087 14.516.931 21.425 0M-1592.73 1392.969c7.413 1.086 14.516.93 21.425 0M-1592.73 1366.38c7.413 1.087 14.516.932 21.425 0M-1592.73 1369.887c7.413 1.087 14.516.93 21.425 0M-1592.73 1374.063c7.413 1.086 14.516.93 21.425 0M-1592.73 1377.97c7.413 1.087 14.516.932 21.425 0" stroke-width=".265125" />
         </g>
      </g>
      <path d="M-1883.272 1376.667v5.302h100.433v-5.303h-100.433zM-1883.272 1362.2v5.303h100.433v-5.302h-100.433z" fill="#308d57" fill-rule="evenodd" stroke="#000" stroke-width=".53" />
      <path d="M-1819.794 1396.428c-2.806-97.535 6.854-142.16 31.358-192.302 47.954-98.129 134.294-145.588 168.44-158.763 2.684-1.037 9.989-3.734 18.84-5.448" fill="none" stroke="#308d57" stroke-width="6.376" />
      <path d="M-1806.727 1396.807c-2.716-104.376 9.01-127.121 31.005-175.027 52.49-114.32 154.312-170.603 183.277-178.835" fill="none" stroke="#308d57" stroke-width="6.376" />
      <path d="M-1858.687 1396.765c.386-102.937-17.889-127.077-35.982-189.375M-1845.431 1396.765c-.88-94.004-10.454-131.363-14.085-195.803M-1832.553 1396.765c-.502-87.187-4.628-135.112 4.597-193.125M-1793.92 1396.765c-3.344-102.553 13.52-110.722 32.627-107.87 7.825 1.169 21.327 12.377 9.035 35.529M-1870.378 1396.765c.691-106.34-20.506-107.543-39.824-107.49-12.37.031-23.6 17.3-6.384 35.149M-1883.273 1364.852h100.432M-1883.273 1379.315h100.432" fill="none" stroke="#308d57" stroke-width="5.313" />
      <path d="M-1302.06 636.45c-.76 3.525-1.314 8.527-3.562 1.341.08-2.322-4.823-46.363-4.823-46.363l-2.424 26.581c2.452 7.86.492 10.27-2.46 15.777-2.904-7.12-2.762-8.28-.494-15.719l4.485-37.539c-.04-.371.497-.59.654-.065 3.895 18.34 6.782 37.208 8.623 55.987zM-1299.003 640.37c-1.203-27.93-1.915-42.335-3.71-70.415l3.227-.465c1.262 26.795 3.036 39.877 3.266 66.937M-1290.98 637.5c-.496 5.367-1.755 4.086-3.437-.882.176-29.43 1.471-43.2 2.316-72.935l2.869.1c.02 29.958-2.074 44.26-1.749 73.718zM-1284.447 637.205c-.986 3.2-1.97 6.434-3.406.814 1.334-27.944 5.27-41.328 6.977-69.619l3.235 1.343c-2.568 27.767-5.655 40.342-6.806 67.462zM-1279.536 638.702c-1.648 4.78-2.274.055-3.224-1.656 2.09-19.556 4.873-39.718 7.93-59.24.24-2.12 1.11-1.495 1.3.073 1.683 15.339 1.396 27.356 2.474 41.03 1.773 8.353 2.285 13.23-1.387 20.327-3.287-8.032-3.123-11.232-1.576-17.695l-.076-33.368c-1.83 16.669-5.03 34.046-5.44 50.529z" fill="#308d57" fill-rule="evenodd" stroke="#000" stroke-width=".137" />
      <path d="M-1312.063 650.035c3.167-4.877 3.123-9.337 4.613-14.745 1.438 1.782 2.522 3.551 3.508 5.317.36-1.725 1.138-3.092 1.931-4.445 1.34 1.456 2.385 2.866 3 4.206.988-1.809 2.294-3.41 3.726-4.93 1.239 1.43 2.346 2.933 3.122 4.62.417-1.606 1.248-2.986 2.737-4.008 1.275 1.294 2.18 2.794 2.995 4.343.911-1.724 1.897-3 2.882-4.276 1.23 1.364 2.138 2.763 2.727 4.196 1.058-1.607 2.105-2.887 3.142-3.856 2.388 3.937.448 6.634 3.742 14.35" fill="#308d57" fill-rule="evenodd" stroke="#000" stroke-width=".137" />
      <path d="M-1600.716 1036.602c-9.142 1.77-17.667 4.725-20.43 5.79-34.858 13.451-121.706 61.217-170.144 160.335-24.71 50.564-33.958 98.154-31.682 193.774l6.363-.149c-2.265-95.165 6.738-141.103 31.036-190.824 47.47-97.139 133.283-144.303 166.715-157.203 2.607-1.006 10.792-3.818 19.351-5.476l-1.21-6.247z" fill="#308d57" fill-rule="evenodd" stroke="#000" stroke-width=".53" />
      <path d="M-1593.323 1039.89c-15.374 4.37-48.029 20.608-83.962 50.242-35.934 29.634-74.84 72.636-101.328 130.326-21.976 47.863-34.024 71.799-31.302 176.424l6.363-.165c-2.708-104.126 8.707-125.66 30.722-173.608 26.001-56.631 64.246-98.927 99.588-128.072 35.341-29.146 68.067-45.17 81.658-49.032l-1.74-6.115zM-1589.032 1034.853l-.563 6.33c18.568 1.642 31.614 6.136 33.737 6.943 24.996 9.5 79.251 37.302 124.212 91.551 44.96 54.25 90.114 134.865 78.875 250.975l6.33.613c11.392-117.688-34.437-200.288-80.317-255.648-45.88-55.359-100.866-83.566-126.846-93.44-2.807-1.066-16.117-5.616-35.428-7.324z" fill="#308d57" fill-rule="evenodd" stroke="#000" stroke-width=".53" />
      <path d="M-1587.69 1037.604l-1.74 6.13c4.172 1.187 17.669 6.183 25.038 9.976 30.068 15.477 81.122 48.696 122.92 103.648 41.797 54.952 78.977 131.559 72.533 234.47l6.346.398c6.54-104.45-31.267-182.76-73.826-238.713s-94.304-89.624-125.056-105.453c-8.105-4.172-21.109-9.005-26.215-10.456z" fill="#308d57" fill-rule="evenodd" stroke="#000" stroke-width=".53" />
      <path d="M-1144.195 1349.049c6.314 16.037 8.715 27.59 7.806 37.175-1.003 10.573-10.664 8.75-16.69 8.682-6.14-.07-14.243.23-14.455-3.817-6.342-1.78-15.293 5.535-81.079 2.987-2.848-.386-3.06-4.572-3.321-7.544 2.933-.801 5.974-1.17 9.233-.669 21.875-10.692 43.37-15.282 65.831-35.34.534-.554 1.026-1.203 1.355-2.22-21.833-55.86-40.471-112.518-58.298-169.38-5.047-9.187-9.62-18.73-18.559-24.997l-12.877-27.65-35.603-65.902-10.226 4.166-82.947 107.187c-8.879 16.557-7.05 32.948-10.983 50.374-14.325 38.115-31.102 79.998-49.183 120.556-1.883 4.224-4.198 10.648-6.28 13.915-4.563 7.157-4.627 23.624-10.518 32.46-7.487 11.064-22.306 6.137-24.813-4.998-2.867-10.464-25.75-34.373-52.937-87.472-4.977-6.992-.718-8.695.459-11.437 4.288 2.956 4.679 5.965 7.311 7.95 9.18 13.065 25.524 24.182 45.313 47.063 3.052 1.924 7.573 1.797 9.553-.139 14.166-54.897 26.92-110.971 46.832-161.08-2.45-9.642.892-20.622 1.607-28.925l6.964-10.712c21.097-50.036 37.804-99.221 74.107-148.306-7.63-6.147-18.083-18.49-19.483-37.974-.88-12.25 4.424-24.898 10.053-42.838-1.383-2.132.828-11.139 3.954-14.215-.647-1.841-2.061-7.69 1.135-12.768-2.424-4.083-1.482-10.454-1.118-13.164-4.256 3.435-11.352 7.576-18.477 8.605-1.454 1.155-2.738 3.464-3.437 3.086-.594-1.57.871-3.078.502-4.528-.54-7.368 1.692-11.035 3.09-15.618 3.442-11.288 8.489-20.448 14.258-32.086 2.114-3.172 1.215-3.74-.576-.327-16.653 25.607-42.855 51.144-65.348 77.4l-36.155 73.649-27.585-6.428c5.62-20.105 11.994-40.059 21.158-59.455l15.8-26.514c17.328-26.66 37.314-52.434 58.92-77.667 1.688-38.459 40.56-37.308 73.65-42.315l79.94-2.113c32.04 8.423 68.21-4.678 74.993 52.267 12.757 28.69 29.201 56.457 34.088 87.113-1.097 3.332-2.526 6.249-6.439 6.06-28.716-1.594-57.055-7.337-85.057-16.787l9.334-28.925c16.062 2.59 24.448 5.247 33.682 7.837-13.446-17.423-22.542-37.33-31.058-57.57l-27.812 79.727-6.276 17.99 6.818 38.254c9.417 16.727 9.518 30.066 7.954 42.8l4.166 20.452c19.448 42.006 30.608 85.519 39.011 129.533 47.421 103.73 39.592 144.59 48.86 204.904" id="prefix__a" fill="#003380" fill-opacity="1" fill-rule="evenodd" stroke="#000" stroke-width="1.061" stroke-linecap="round" stroke-linejoin="round" stroke-miterlimit="4" stroke-dasharray="none" stroke-opacity="1" />
      <path transform="matrix(1.0615 .00024 .00807 1.08836 -4776.45 -235.01)" d="M3214.053 1097.44a1.389 3.41 0 11-2.778 0 1.389 3.41 0 112.778 0z" id="prefix__b" style="marker:none" color="#000" fill="#000" fill-opacity=".706" fill-rule="evenodd" stroke="none" stroke-width="2" stroke-linecap="round" stroke-linejoin="round" marker-start="none" marker-mid="none" marker-end="none" stroke-miterlimit="4" stroke-dasharray="none" stroke-dashoffset="0" stroke-opacity="1" visibility="visible" display="inline" overflow="visible" />
      <g id="prefix__c">
         <path d="M635.872 62.205l121.01-24.2 171.28-13.657 131.884 27.265C1035.258 176.7 950.43 221.427 852.153 223.608c-93.083 2.055-136.555-21.85-166.948-54.127-28.89-30.68-44.234-78.811-49.333-107.276z" fill="#fff" fill-rule="evenodd" stroke="#000" stroke-linecap="round" stroke-linejoin="round" transform="matrix(.28257 0 0 .28257 -1533.51 753.863)" />
         <path style="marker:none" d="M-1339.55 768.581c5.155 25.49 20.024 34.933 47.427 33.855 27.47-1.081 41.144-18.713 42.82-35.83-.01-.232-.017-.57.12-1.173" color="#000" fill="none" fill-rule="evenodd" stroke="#04a" stroke-width="5.0353974" stroke-linejoin="round" overflow="visible" />
         <path style="marker:none" d="M-1326.51 766.14c5.013 19.395 15.969 23.6 33.855 22.908 16.712-.647 29.098-11.6 28.975-25.34-.044-.523.142-.867.105-1.179" color="#000" fill="none" fill-rule="evenodd" stroke="#308d57" stroke-width="3.8211941099999995" overflow="visible" />
         <path style="marker:none" d="M-1335.056 767.972c3.767 17.853 13.242 31.195 42.602 29.91 25.558-1.12 37.82-18.408 38.31-32.855-.016-.065-.017-.37.048-.675" color="#000" fill="none" fill-rule="evenodd" stroke="#c13c1b" stroke-width="3.08990295" overflow="visible" />
         <path style="marker:none" d="M-1322.26 765.187c2.54 8.467 5.373 21.125 29.596 19.292 15.87-1.201 23.537-10.665 24.136-19.494.049-1.003.042-3.231.163-3.524" color="#000" fill="none" fill-rule="evenodd" stroke="#04a" stroke-width="4.53185766" overflow="visible" />
         <path style="marker:none" d="M-1330.89 766.894c5.071 24.112 22.966 27.533 38.707 26.597 21.384-1.276 32.89-14.517 33.482-28.534.019-.256.015-1.216.136-1.605" color="#000" fill="none" fill-rule="evenodd" stroke="#04a" stroke-width="4.53185766" overflow="visible" />
         <path style="marker:none" d="M-1348.07 770.446c5.6 27.058 20.691 41.806 54.831 40.592l.402-.015h.012c45.316-1.773 51.049-35.698 52.693-43.596" color="#000" fill="none" fill-rule="evenodd" stroke="#fac53a" stroke-width="11.3028" overflow="visible" />
         <path d="M-1353.834 771.44l34.194-6.838 48.398-3.86 37.266 7.705c-7.004 35.345-30.974 47.984-58.744 48.6-26.302.581-38.586-6.174-47.174-15.294-8.163-8.67-12.499-22.27-13.94-30.313z" fill="none" fill-rule="evenodd" stroke="#000" stroke-width=".56514" stroke-linecap="round" stroke-linejoin="round" />
         <g fill="none" fill-rule="evenodd" stroke="#c13c1b">
            <path d="M828.256 211.133c-.133-7.458 4.89-18.968 9.068-26.236 3.807 7.34 8.604 19.118 8.573 26.123-.058 13.468-17.408 12.792-17.64.113z" transform="rotate(-17.112 1978.109 5466.455) scale(.28257)" />
            <path d="M830.586 210.952c-.098-5.523 3.607-14.048 6.69-19.431 2.808 5.437 6.346 14.16 6.324 19.348-.043 9.975-12.842 9.474-13.014.083z" transform="rotate(-17.112 1978.109 5466.455) scale(.28257)" />
            <path d="M830.639 210.693c.946-.86 3.268-2.467 6.402-2.467 3.135 0 4.908 1.137 6.304 2.354M832.876 201.449c1.17-.803 3.352-1.268 4.35-1.254 1.081.015 3.165.742 4.055 1.31" style="marker:none" color="#000" stroke-linecap="round" stroke-linejoin="round" overflow="visible" transform="rotate(-17.112 1978.109 5466.455) scale(.28257)" />
         </g>
         <g fill="none" fill-rule="evenodd" stroke="#c13c1b">
            <path d="M828.256 211.133c-.133-7.458 4.89-18.968 9.068-26.236 3.807 7.34 8.604 19.118 8.573 26.123-.058 13.468-17.408 12.792-17.64.113z" transform="rotate(-11.555 3197.592 7946.527) scale(.28257)" />
            <path d="M830.586 210.952c-.098-5.523 3.607-14.048 6.69-19.431 2.808 5.437 6.346 14.16 6.324 19.348-.043 9.975-12.842 9.474-13.014.083z" transform="rotate(-11.555 3197.592 7946.527) scale(.28257)" />
            <path d="M830.639 210.693c.946-.86 3.268-2.467 6.402-2.467 3.135 0 4.908 1.137 6.304 2.354M832.876 201.449c1.17-.803 3.352-1.268 4.35-1.254 1.081.015 3.165.742 4.055 1.31" style="marker:none" color="#000" stroke-linecap="round" stroke-linejoin="round" overflow="visible" transform="rotate(-11.555 3197.592 7946.527) scale(.28257)" />
         </g>
         <g fill="none" fill-rule="evenodd" stroke="#c13c1b">
            <path d="M828.256 211.133c-.133-7.458 4.89-18.968 9.068-26.236 3.807 7.34 8.604 19.118 8.573 26.123-.058 13.468-17.408 12.792-17.64.113z" transform="rotate(-22.812 1341.174 4171.377) scale(.28257)" />
            <path d="M830.586 210.952c-.098-5.523 3.607-14.048 6.69-19.431 2.808 5.437 6.346 14.16 6.324 19.348-.043 9.975-12.842 9.474-13.014.083z" transform="rotate(-22.812 1341.174 4171.377) scale(.28257)" />
            <path d="M830.639 210.693c.946-.86 3.268-2.467 6.402-2.467 3.135 0 4.908 1.137 6.304 2.354M832.876 201.449c1.17-.803 3.352-1.268 4.35-1.254 1.081.015 3.165.742 4.055 1.31" style="marker:none" color="#000" stroke-linecap="round" stroke-linejoin="round" overflow="visible" transform="rotate(-22.812 1341.174 4171.377) scale(.28257)" />
         </g>
         <g fill="none" fill-rule="evenodd" stroke="#c13c1b">
            <path d="M828.256 211.133c-.133-7.458 4.89-18.968 9.068-26.236 3.807 7.34 8.604 19.118 8.573 26.123-.058 13.468-17.408 12.792-17.64.113z" transform="matrix(.28257 0 0 .28257 -1531.392 753.913)" />
            <path d="M830.586 210.952c-.098-5.523 3.607-14.048 6.69-19.431 2.808 5.437 6.346 14.16 6.324 19.348-.043 9.975-12.842 9.474-13.014.083z" transform="matrix(.28257 0 0 .28257 -1531.392 753.913)" />
            <path style="marker:none" d="M830.639 210.693c.946-.86 3.268-2.467 6.402-2.467 3.135 0 4.908 1.137 6.304 2.354M832.876 201.449c1.17-.803 3.352-1.268 4.35-1.254 1.081.015 3.165.742 4.055 1.31" color="#000" stroke-linecap="round" stroke-linejoin="round" overflow="visible" transform="matrix(.28257 0 0 .28257 -1531.392 753.913)" />
         </g>
         <g fill="none" fill-rule="evenodd" stroke="#c13c1b">
            <path d="M828.256 211.133c-.133-7.458 4.89-18.968 9.068-26.236 3.807 7.34 8.604 19.118 8.573 26.123-.058 13.468-17.408 12.792-17.64.113z" transform="rotate(2.265 -19691.794 -38609.952) scale(.28257)" />
            <path d="M830.586 210.952c-.098-5.523 3.607-14.048 6.69-19.431 2.808 5.437 6.346 14.16 6.324 19.348-.043 9.975-12.842 9.474-13.014.083z" transform="rotate(2.265 -19691.794 -38609.952) scale(.28257)" />
            <path d="M830.639 210.693c.946-.86 3.268-2.467 6.402-2.467 3.135 0 4.908 1.137 6.304 2.354M832.876 201.449c1.17-.803 3.352-1.268 4.35-1.254 1.081.015 3.165.742 4.055 1.31" style="marker:none" color="#000" stroke-linecap="round" stroke-linejoin="round" overflow="visible" transform="rotate(2.265 -19691.794 -38609.952) scale(.28257)" />
         </g>
         <g fill="none" fill-rule="evenodd" stroke="#c13c1b">
            <path d="M828.256 211.133c-.133-7.458 4.89-18.968 9.068-26.236 3.807 7.34 8.604 19.118 8.573 26.123-.058 13.468-17.408 12.792-17.64.113z" transform="rotate(-6.43 6184.858 14022.695) scale(.28257)" />
            <path d="M830.586 210.952c-.098-5.523 3.607-14.048 6.69-19.431 2.808 5.437 6.346 14.16 6.324 19.348-.043 9.975-12.842 9.474-13.014.083z" transform="rotate(-6.43 6184.858 14022.695) scale(.28257)" />
            <path d="M830.639 210.693c.946-.86 3.268-2.467 6.402-2.467 3.135 0 4.908 1.137 6.304 2.354M832.876 201.449c1.17-.803 3.352-1.268 4.35-1.254 1.081.015 3.165.742 4.055 1.31" style="marker:none" color="#000" stroke-linecap="round" stroke-linejoin="round" overflow="visible" transform="rotate(-6.43 6184.858 14022.695) scale(.28257)" />
         </g>
         <g fill="none" fill-rule="evenodd" stroke="#c13c1b">
            <path d="M828.256 211.133c-.133-7.458 4.89-18.968 9.068-26.236 3.807 7.34 8.604 19.118 8.573 26.123-.058 13.468-17.408 12.792-17.64.113z" transform="matrix(.1554 .236 -.236 .1554 -1421.187 564.43)" />
            <path d="M830.586 210.952c-.098-5.523 3.607-14.048 6.69-19.431 2.808 5.437 6.346 14.16 6.324 19.348-.043 9.975-12.842 9.474-13.014.083z" transform="matrix(.1554 .236 -.236 .1554 -1421.187 564.43)" />
            <path style="marker:none" d="M830.639 210.693c.946-.86 3.268-2.467 6.402-2.467 3.135 0 4.908 1.137 6.304 2.354M832.876 201.449c1.17-.803 3.352-1.268 4.35-1.254 1.081.015 3.165.742 4.055 1.31" color="#000" stroke-linecap="round" stroke-linejoin="round" overflow="visible" transform="matrix(.1554 .236 -.236 .1554 -1421.187 564.43)" />
         </g>
         <g fill="none" fill-rule="evenodd" stroke="#c13c1b">
            <path d="M828.256 211.133c-.133-7.458 4.89-18.968 9.068-26.236 3.807 7.34 8.604 19.118 8.573 26.123-.058 13.468-17.408 12.792-17.64.113z" transform="rotate(62.265 -1158.24 -883.438) scale(.28257)" />
            <path d="M830.586 210.952c-.098-5.523 3.607-14.048 6.69-19.431 2.808 5.437 6.346 14.16 6.324 19.348-.043 9.975-12.842 9.474-13.014.083z" transform="rotate(62.265 -1158.24 -883.438) scale(.28257)" />
            <path d="M830.639 210.693c.946-.86 3.268-2.467 6.402-2.467 3.135 0 4.908 1.137 6.304 2.354M832.876 201.449c1.17-.803 3.352-1.268 4.35-1.254 1.081.015 3.165.742 4.055 1.31" style="marker:none" color="#000" stroke-linecap="round" stroke-linejoin="round" overflow="visible" transform="rotate(62.265 -1158.24 -883.438) scale(.28257)" />
         </g>
         <g fill="none" fill-rule="evenodd" stroke="#c13c1b">
            <path d="M828.256 211.133c-.133-7.458 4.89-18.968 9.068-26.236 3.807 7.34 8.604 19.118 8.573 26.123-.058 13.468-17.408 12.792-17.64.113z" transform="rotate(48.12 -1378.713 -1332.993) scale(.28257)" />
            <path d="M830.586 210.952c-.098-5.523 3.607-14.048 6.69-19.431 2.808 5.437 6.346 14.16 6.324 19.348-.043 9.975-12.842 9.474-13.014.083z" transform="rotate(48.12 -1378.713 -1332.993) scale(.28257)" />
            <path style="marker:none" d="M830.639 210.693c.946-.86 3.268-2.467 6.402-2.467 3.135 0 4.908 1.137 6.304 2.354M832.876 201.449c1.17-.803 3.352-1.268 4.35-1.254 1.081.015 3.165.742 4.055 1.31" color="#000" stroke-linecap="round" stroke-linejoin="round" overflow="visible" transform="rotate(48.12 -1378.713 -1332.993) scale(.28257)" />
         </g>
         <g fill="none" fill-rule="evenodd" stroke="#c13c1b">
            <path d="M828.256 211.133c-.133-7.458 4.89-18.968 9.068-26.236 3.807 7.34 8.604 19.118 8.573 26.123-.058 13.468-17.408 12.792-17.64.113z" transform="rotate(74.8 -1026.674 -616.93) scale(.28257)" />
            <path d="M830.586 210.952c-.098-5.523 3.607-14.048 6.69-19.431 2.808 5.437 6.346 14.16 6.324 19.348-.043 9.975-12.842 9.474-13.014.083z" transform="rotate(74.8 -1026.674 -616.93) scale(.28257)" />
            <path d="M830.639 210.693c.946-.86 3.268-2.467 6.402-2.467 3.135 0 4.908 1.137 6.304 2.354M832.876 201.449c1.17-.803 3.352-1.268 4.35-1.254 1.081.015 3.165.742 4.055 1.31" style="marker:none" color="#000" stroke-linecap="round" stroke-linejoin="round" overflow="visible" transform="rotate(74.8 -1026.674 -616.93) scale(.28257)" />
         </g>
         <g fill="none" fill-rule="evenodd" stroke="#c13c1b">
            <path d="M828.256 211.133c-.133-7.458 4.89-18.968 9.068-26.236 3.807 7.34 8.604 19.118 8.573 26.123-.058 13.468-17.408 12.792-17.64.113z" transform="rotate(77.284 -1003.4 -575.341) scale(.28257)" />
            <path d="M830.586 210.952c-.098-5.523 3.607-14.048 6.69-19.431 2.808 5.437 6.346 14.16 6.324 19.348-.043 9.975-12.842 9.474-13.014.083z" transform="rotate(77.284 -1003.4 -575.341) scale(.28257)" />
            <path style="marker:none" d="M830.639 210.693c.946-.86 3.268-2.467 6.402-2.467 3.135 0 4.908 1.137 6.304 2.354M832.876 201.449c1.17-.803 3.352-1.268 4.35-1.254 1.081.015 3.165.742 4.055 1.31" color="#000" stroke-linecap="round" stroke-linejoin="round" overflow="visible" transform="rotate(77.284 -1003.4 -575.341) scale(.28257)" />
         </g>
         <g fill="none" fill-rule="evenodd" stroke="#c13c1b">
            <path d="M828.256 211.133c-.133-7.458 4.89-18.968 9.068-26.236 3.807 7.34 8.604 19.118 8.573 26.123-.058 13.468-17.408 12.792-17.64.113z" transform="rotate(69.335 -1079.298 -722.138) scale(.28257)" />
            <path d="M830.586 210.952c-.098-5.523 3.607-14.048 6.69-19.431 2.808 5.437 6.346 14.16 6.324 19.348-.043 9.975-12.842 9.474-13.014.083z" transform="rotate(69.335 -1079.298 -722.138) scale(.28257)" />
            <path d="M830.639 210.693c.946-.86 3.268-2.467 6.402-2.467 3.135 0 4.908 1.137 6.304 2.354M832.876 201.449c1.17-.803 3.352-1.268 4.35-1.254 1.081.015 3.165.742 4.055 1.31" style="marker:none" color="#000" stroke-linecap="round" stroke-linejoin="round" overflow="visible" transform="rotate(69.335 -1079.298 -722.138) scale(.28257)" />
         </g>
         <g fill="none" fill-rule="evenodd" stroke="#c13c1b">
            <path d="M828.256 211.133c-.133-7.458 4.89-18.968 9.068-26.236 3.807 7.34 8.604 19.118 8.573 26.123-.058 13.468-17.408 12.792-17.64.113z" transform="rotate(31.573 -1866.859 -2334.397) scale(.28257)" />
            <path d="M830.586 210.952c-.098-5.523 3.607-14.048 6.69-19.431 2.808 5.437 6.346 14.16 6.324 19.348-.043 9.975-12.842 9.474-13.014.083z" transform="rotate(31.573 -1866.859 -2334.397) scale(.28257)" />
            <path style="marker:none" d="M830.639 210.693c.946-.86 3.268-2.467 6.402-2.467 3.135 0 4.908 1.137 6.304 2.354M832.876 201.449c1.17-.803 3.352-1.268 4.35-1.254 1.081.015 3.165.742 4.055 1.31" color="#000" stroke-linecap="round" stroke-linejoin="round" overflow="visible" transform="rotate(31.573 -1866.859 -2334.397) scale(.28257)" />
         </g>
         <g fill="none" fill-rule="evenodd" stroke="#c13c1b">
            <path d="M828.256 211.133c-.133-7.458 4.89-18.968 9.068-26.236 3.807 7.34 8.604 19.118 8.573 26.123-.058 13.468-17.408 12.792-17.64.113z" transform="rotate(40.926 -1544.723 -1671.81) scale(.28257)" />
            <path d="M830.586 210.952c-.098-5.523 3.607-14.048 6.69-19.431 2.808 5.437 6.346 14.16 6.324 19.348-.043 9.975-12.842 9.474-13.014.083z" transform="rotate(40.926 -1544.723 -1671.81) scale(.28257)" />
            <path d="M830.639 210.693c.946-.86 3.268-2.467 6.402-2.467 3.135 0 4.908 1.137 6.304 2.354M832.876 201.449c1.17-.803 3.352-1.268 4.35-1.254 1.081.015 3.165.742 4.055 1.31" style="marker:none" color="#000" stroke-linecap="round" stroke-linejoin="round" overflow="visible" transform="rotate(40.926 -1544.723 -1671.81) scale(.28257)" />
         </g>
         <g fill="none" fill-rule="evenodd" stroke="#c13c1b">
            <path d="M828.256 211.133c-.133-7.458 4.89-18.968 9.068-26.236 3.807 7.34 8.604 19.118 8.573 26.123-.058 13.468-17.408 12.792-17.64.113z" transform="rotate(25.356 -2209.24 -3032.18) scale(.28257)" />
            <path d="M830.586 210.952c-.098-5.523 3.607-14.048 6.69-19.431 2.808 5.437 6.346 14.16 6.324 19.348-.043 9.975-12.842 9.474-13.014.083z" transform="rotate(25.356 -2209.24 -3032.18) scale(.28257)" />
            <path style="marker:none" d="M830.639 210.693c.946-.86 3.268-2.467 6.402-2.467 3.135 0 4.908 1.137 6.304 2.354M832.876 201.449c1.17-.803 3.352-1.268 4.35-1.254 1.081.015 3.165.742 4.055 1.31" color="#000" stroke-linecap="round" stroke-linejoin="round" overflow="visible" transform="rotate(25.356 -2209.24 -3032.18) scale(.28257)" />
         </g>
         <g fill="none" fill-rule="evenodd" stroke="#c13c1b">
            <path d="M828.256 211.133c-.133-7.458 4.89-18.968 9.068-26.236 3.807 7.34 8.604 19.118 8.573 26.123-.058 13.468-17.408 12.792-17.64.113z" transform="rotate(12.009 -4116.665 -6925.698) scale(.28257)" />
            <path d="M830.586 210.952c-.098-5.523 3.607-14.048 6.69-19.431 2.808 5.437 6.346 14.16 6.324 19.348-.043 9.975-12.842 9.474-13.014.083z" transform="rotate(12.009 -4116.665 -6925.698) scale(.28257)" />
            <path d="M830.639 210.693c.946-.86 3.268-2.467 6.402-2.467 3.135 0 4.908 1.137 6.304 2.354M832.876 201.449c1.17-.803 3.352-1.268 4.35-1.254 1.081.015 3.165.742 4.055 1.31" style="marker:none" color="#000" stroke-linecap="round" stroke-linejoin="round" overflow="visible" transform="rotate(12.009 -4116.665 -6925.698) scale(.28257)" />
         </g>
         <g fill="none" fill-rule="evenodd" stroke="#c13c1b">
            <path d="M828.256 211.133c-.133-7.458 4.89-18.968 9.068-26.236 3.807 7.34 8.604 19.118 8.573 26.123-.058 13.468-17.408 12.792-17.64.113z" transform="rotate(17.622 -2964.686 -4578.079) scale(.28257)" />
            <path d="M830.586 210.952c-.098-5.523 3.607-14.048 6.69-19.431 2.808 5.437 6.346 14.16 6.324 19.348-.043 9.975-12.842 9.474-13.014.083z" transform="rotate(17.622 -2964.686 -4578.079) scale(.28257)" />
            <path style="marker:none" d="M830.639 210.693c.946-.86 3.268-2.467 6.402-2.467 3.135 0 4.908 1.137 6.304 2.354M832.876 201.449c1.17-.803 3.352-1.268 4.35-1.254 1.081.015 3.165.742 4.055 1.31" color="#000" stroke-linecap="round" stroke-linejoin="round" overflow="visible" transform="rotate(17.622 -2964.686 -4578.079) scale(.28257)" />
         </g>
         <g fill="none" fill-rule="evenodd" stroke="#c13c1b">
            <path d="M828.256 211.133c-.133-7.458 4.89-18.968 9.068-26.236 3.807 7.34 8.604 19.118 8.573 26.123-.058 13.468-17.408 12.792-17.64.113z" transform="rotate(5.914 -7835 -14508.803) scale(.28257)" />
            <path d="M830.586 210.952c-.098-5.523 3.607-14.048 6.69-19.431 2.808 5.437 6.346 14.16 6.324 19.348-.043 9.975-12.842 9.474-13.014.083z" transform="rotate(5.914 -7835 -14508.803) scale(.28257)" />
            <path d="M830.639 210.693c.946-.86 3.268-2.467 6.402-2.467 3.135 0 4.908 1.137 6.304 2.354M832.876 201.449c1.17-.803 3.352-1.268 4.35-1.254 1.081.015 3.165.742 4.055 1.31" style="marker:none" color="#000" stroke-linecap="round" stroke-linejoin="round" overflow="visible" transform="rotate(5.914 -7835 -14508.803) scale(.28257)" />
         </g>
         <g fill="none" fill-rule="evenodd" stroke="#c13c1b">
            <path d="M828.256 211.133c-.133-7.458 4.89-18.968 9.068-26.236 3.807 7.34 8.604 19.118 8.573 26.123-.058 13.468-17.408 12.792-17.64.113z" transform="rotate(-35.007 668.717 2805.205) scale(.28257)" />
            <path d="M830.586 210.952c-.098-5.523 3.607-14.048 6.69-19.431 2.808 5.437 6.346 14.16 6.324 19.348-.043 9.975-12.842 9.474-13.014.083z" transform="rotate(-35.007 668.717 2805.205) scale(.28257)" />
            <path style="marker:none" d="M830.639 210.693c.946-.86 3.268-2.467 6.402-2.467 3.135 0 4.908 1.137 6.304 2.354M832.876 201.449c1.17-.803 3.352-1.268 4.35-1.254 1.081.015 3.165.742 4.055 1.31" color="#000" stroke-linecap="round" stroke-linejoin="round" overflow="visible" transform="rotate(-35.007 668.717 2805.205) scale(.28257)" />
         </g>
         <g fill="none" fill-rule="evenodd" stroke="#c13c1b">
            <path d="M828.256 211.133c-.133-7.458 4.89-18.968 9.068-26.236 3.807 7.34 8.604 19.118 8.573 26.123-.058 13.468-17.408 12.792-17.64.113z" transform="rotate(-30.041 878.483 3232.291) scale(.28257)" />
            <path d="M830.586 210.952c-.098-5.523 3.607-14.048 6.69-19.431 2.808 5.437 6.346 14.16 6.324 19.348-.043 9.975-12.842 9.474-13.014.083z" transform="rotate(-30.041 878.483 3232.291) scale(.28257)" />
            <path d="M830.639 210.693c.946-.86 3.268-2.467 6.402-2.467 3.135 0 4.908 1.137 6.304 2.354M832.876 201.449c1.17-.803 3.352-1.268 4.35-1.254 1.081.015 3.165.742 4.055 1.31" style="marker:none" color="#000" stroke-linecap="round" stroke-linejoin="round" overflow="visible" transform="rotate(-30.041 878.483 3232.291) scale(.28257)" />
         </g>
         <g fill="none" fill-rule="evenodd" stroke="#c13c1b">
            <path d="M828.256 211.133c-.133-7.458 4.89-18.968 9.068-26.236 3.807 7.34 8.604 19.118 8.573 26.123-.058 13.468-17.408 12.792-17.64.113z" transform="rotate(-43.655 415.587 2292.768) scale(.28257)" />
            <path d="M830.586 210.952c-.098-5.523 3.607-14.048 6.69-19.431 2.808 5.437 6.346 14.16 6.324 19.348-.043 9.975-12.842 9.474-13.014.083z" transform="rotate(-43.655 415.587 2292.768) scale(.28257)" />
            <path d="M830.639 210.693c.946-.86 3.268-2.467 6.402-2.467 3.135 0 4.908 1.137 6.304 2.354M832.876 201.449c1.17-.803 3.352-1.268 4.35-1.254 1.081.015 3.165.742 4.055 1.31" style="marker:none" color="#000" stroke-linecap="round" stroke-linejoin="round" overflow="visible" transform="rotate(-43.655 415.587 2292.768) scale(.28257)" />
         </g>
         <g fill="none" fill-rule="evenodd" stroke="#c13c1b">
            <path d="M828.256 211.133c-.133-7.458 4.89-18.968 9.068-26.236 3.807 7.34 8.604 19.118 8.573 26.123-.058 13.468-17.408 12.792-17.64.113z" transform="rotate(-59.486 135.33 1724.263) scale(.28257)" />
            <path d="M830.586 210.952c-.098-5.523 3.607-14.048 6.69-19.431 2.808 5.437 6.346 14.16 6.324 19.348-.043 9.975-12.842 9.474-13.014.083z" transform="rotate(-59.486 135.33 1724.263) scale(.28257)" />
            <path style="marker:none" d="M830.639 210.693c.946-.86 3.268-2.467 6.402-2.467 3.135 0 4.908 1.137 6.304 2.354M832.876 201.449c1.17-.803 3.352-1.268 4.35-1.254 1.081.015 3.165.742 4.055 1.31" color="#000" stroke-linecap="round" stroke-linejoin="round" overflow="visible" transform="rotate(-59.486 135.33 1724.263) scale(.28257)" />
         </g>
         <g fill="none" fill-rule="evenodd" stroke="#c13c1b">
            <path d="M828.256 211.133c-.133-7.458 4.89-18.968 9.068-26.236 3.807 7.34 8.604 19.118 8.573 26.123-.058 13.468-17.408 12.792-17.64.113z" transform="rotate(-51.084 263.763 1984.668) scale(.28257)" />
            <path d="M830.586 210.952c-.098-5.523 3.607-14.048 6.69-19.431 2.808 5.437 6.346 14.16 6.324 19.348-.043 9.975-12.842 9.474-13.014.083z" transform="rotate(-51.084 263.763 1984.668) scale(.28257)" />
            <path d="M830.639 210.693c.946-.86 3.268-2.467 6.402-2.467 3.135 0 4.908 1.137 6.304 2.354M832.876 201.449c1.17-.803 3.352-1.268 4.35-1.254 1.081.015 3.165.742 4.055 1.31" style="marker:none" color="#000" stroke-linecap="round" stroke-linejoin="round" overflow="visible" transform="rotate(-51.084 263.763 1984.668) scale(.28257)" />
         </g>
         <g fill="none" fill-rule="evenodd" stroke="#c13c1b">
            <path d="M828.256 211.133c-.133-7.458 4.89-18.968 9.068-26.236 3.807 7.34 8.604 19.118 8.573 26.123-.058 13.468-17.408 12.792-17.64.113z" transform="rotate(-61.986 101.533 1655.851) scale(.28257)" />
            <path d="M830.586 210.952c-.098-5.523 3.607-14.048 6.69-19.431 2.808 5.437 6.346 14.16 6.324 19.348-.043 9.975-12.842 9.474-13.014.083z" transform="rotate(-61.986 101.533 1655.851) scale(.28257)" />
            <path style="marker:none" d="M830.639 210.693c.946-.86 3.268-2.467 6.402-2.467 3.135 0 4.908 1.137 6.304 2.354M832.876 201.449c1.17-.803 3.352-1.268 4.35-1.254 1.081.015 3.165.742 4.055 1.31" color="#000" stroke-linecap="round" stroke-linejoin="round" overflow="visible" transform="rotate(-61.986 101.533 1655.851) scale(.28257)" />
         </g>
         <g fill="none" fill-rule="evenodd" stroke="#c13c1b">
            <path d="M828.256 211.133c-.133-7.458 4.89-18.968 9.068-26.236 3.807 7.34 8.604 19.118 8.573 26.123-.058 13.468-17.408 12.792-17.64.113z" transform="rotate(-72.077 -9.098 1432.628) scale(.28257)" />
            <path d="M830.586 210.952c-.098-5.523 3.607-14.048 6.69-19.431 2.808 5.437 6.346 14.16 6.324 19.348-.043 9.975-12.842 9.474-13.014.083z" transform="rotate(-72.077 -9.098 1432.628) scale(.28257)" />
            <path d="M830.639 210.693c.946-.86 3.268-2.467 6.402-2.467 3.135 0 4.908 1.137 6.304 2.354M832.876 201.449c1.17-.803 3.352-1.268 4.35-1.254 1.081.015 3.165.742 4.055 1.31" style="marker:none" color="#000" stroke-linecap="round" stroke-linejoin="round" overflow="visible" transform="rotate(-72.077 -9.098 1432.628) scale(.28257)" />
         </g>
         <g fill="none" fill-rule="evenodd" stroke="#c13c1b">
            <path d="M828.256 211.133c-.133-7.458 4.89-18.968 9.068-26.236 3.807 7.34 8.604 19.118 8.573 26.123-.058 13.468-17.408 12.792-17.64.113z" transform="rotate(-67.492 37.831 1526.976) scale(.28257)" />
            <path d="M830.586 210.952c-.098-5.523 3.607-14.048 6.69-19.431 2.808 5.437 6.346 14.16 6.324 19.348-.043 9.975-12.842 9.474-13.014.083z" transform="rotate(-67.492 37.831 1526.976) scale(.28257)" />
            <path style="marker:none" d="M830.639 210.693c.946-.86 3.268-2.467 6.402-2.467 3.135 0 4.908 1.137 6.304 2.354M832.876 201.449c1.17-.803 3.352-1.268 4.35-1.254 1.081.015 3.165.742 4.055 1.31" color="#000" stroke-linecap="round" stroke-linejoin="round" overflow="visible" transform="rotate(-67.492 37.831 1526.976) scale(.28257)" />
         </g>
         <g fill="none" fill-rule="evenodd" stroke="#c13c1b">
            <path d="M828.256 211.133c-.133-7.458 4.89-18.968 9.068-26.236 3.807 7.34 8.604 19.118 8.573 26.123-.058 13.468-17.408 12.792-17.64.113z" transform="rotate(-78.25 -63.705 1321.84) scale(.28257)" />
            <path d="M830.586 210.952c-.098-5.523 3.607-14.048 6.69-19.431 2.808 5.437 6.346 14.16 6.324 19.348-.043 9.975-12.842 9.474-13.014.083z" transform="rotate(-78.25 -63.705 1321.84) scale(.28257)" />
            <path d="M830.639 210.693c.946-.86 3.268-2.467 6.402-2.467 3.135 0 4.908 1.137 6.304 2.354M832.876 201.449c1.17-.803 3.352-1.268 4.35-1.254 1.081.015 3.165.742 4.055 1.31" style="marker:none" color="#000" stroke-linecap="round" stroke-linejoin="round" overflow="visible" transform="rotate(-78.25 -63.705 1321.84) scale(.28257)" />
         </g>
         <path d="M-1282.313 691.44l3.074 42.505 7.617 27.185c-1.203 10.008-6.183 17.76-21.669 19.436-14.129 1.53-22.85-4.367-25.583-18.643-1.377-4.827-3.709-10.165-4.702-14.506-4.925 1.48-27.316-4.062-26.357-9.1.372-.937.745-2.832 1.117-4.957-.037-2.162-.836-2.932-2.247-3.145-.807.204-1.86-3.894.457-4.336-2.288.058-2.19-2.707-1.758-3.804.447-1.152.677-2.574.378-3.478-4.657-.218-8.14-3.296-5.78-8.225 2.26-4.722 8.58-13.207 12.012-18.846-.116-2.18.952-6.42 2.635-9.627 6.808-.76 39.82-3.423 34.614 12.131l26.192-2.59z" fill="#003380" fill-rule="evenodd" stroke="#000" stroke-width=".37700775" />
         <path d="M-1306.81 696.347c-1.233 33.577-10.423 52.133-40.734 45.732" fill="none" fill-rule="evenodd" stroke="#000" stroke-width="1.5090915" />
         <path d="M-1309.752 693.584c-2.593-.651-5.082-1.512-7.313-2.886-4.202-2.583-7.325-6.048-13.216-7.25-4.724-.88-8.929-.46-11.693.736-2.802 1.212-1.559 3.474.642 2.63 2.2-.844 6.177-1.579 9.96-.8 3.784.78 9.598 5.248 13.216 7.25 3.618 2.001 5.586 2.414 8.212 2.95.427-.967.448-1.833.192-2.63zM-1309.56 697.819c-6.874-.83-8.712-.887-14.434-3.08-7.617-2.648-16.298-6.087-20.208.578-1.714 2.714-3.049 3.706 1.09 3.4 10.674 2.478 13.091.047 17.9-.963 3.58.618 9.395 1.924 15.14 3.208.482-.97.713-2.003.512-3.143z" fill-rule="evenodd" stroke="#000" stroke-width=".08961225" />
         <path d="M-1330.708 693.512c-3.827-1.605-7.49-2.46-10.478-.227.247 2.083.953 3.778 2.767 4.536 2.167.493 5.87.295 7.212-.907 1.343-1.202 1.706-2.804.5-3.402z" fill="none" fill-rule="evenodd" stroke="#000" stroke-width=".08961225" />
         <path d="M-1326.525 696.265c-1.68-.472-2.606-1.094-3.72-1.679.167 1.175-.363 1.884-.907 2.586.605.227 3.842-.681 4.627-.907zM-1341.146 694.189c-1.265 1.437-1.678 2.029-1.9 3.45 1.754-.196 3.211.522 4.581.182-1.782-1.149-2.457-2.004-2.68-3.632z" fill="#fff" fill-rule="evenodd" stroke="#000" stroke-width=".08961225" />
         <path d="M-1340.427 728.26c-3.776-1.643-7.588.625-11.068 1.315m-.862-7.485c4.42-1.862 7.865 2.6 11.023 2.087M-1348.58 712.02c4.602 3.73 2.129 6.037-.046 5.942-2.152-.096-5.259-3.753-6.033-1.701-.781 2.071 3.488 1.334 3.425.748M-1340.737 726.082c-.317-.09-9.934-.09-9.934-.09" fill="none" fill-rule="evenodd" stroke="#000" stroke-width=".08961225" />
         <path d="M-1337.252 745.9c-4.893-.667-10.652-4.124-12.393-6.07-4.87 20.637-3.289 47.378-26.76 43.934-.491-.06-.949-.083-1.332.12-3.447 2.943-2.039 9.757 10.292 7.781 21.447-3.437 25.216-33.443 30.193-45.765z" fill-rule="evenodd" stroke="#000" stroke-width=".26459475" />
         <path d="M-1350.958 717.06c-1.638-.966-3.225-2.185-3.747-.8-.782 2.072 3.488 1.335 3.424.75" fill-opacity=".706" fill-rule="evenodd" stroke="#000" stroke-width=".08961225" />
         <path d="M-1298.988 714.553c.088-8.576 21.545-21.141-9.413-20.75.69-11.22-16.929-12.697-34.62-12.132 7.029-36.301 29.905-35.127 50.895-35.17 36.39-.075 48.568 27.336 53.47 62.333 5.57 39.771-3.826 54.653-32.956 51.583l.328 67.566-30.938.657.286-90.64c1.47-7.973-1.375-16.188 2.948-23.447z" fill="#308d57" fill-rule="evenodd" stroke="#000" stroke-width=".566307" />
         <path d="M134.812-311.709c-12.34 5.785-12.702 14.519-8.564 20.98 2.44 4.885 7.94 3.793 9.524 1.344 1.668-2.576 3.235-5.982 5.45-9.336 19.194-24.586 16.524-31.269 16.585-32.148.108-1.543-3.769-12.363-10.525-11.784-6.935.595-23.867 9.699-9.098 26.48" fill="#003380" fill-rule="evenodd" stroke-width=".725" transform="translate(-1371.245 867.294) scale(.53025)" />
         <path d="M-1299.826 702.01c-6.544 3.067-6.736 7.698-4.541 11.124 1.294 2.59 4.21 2.011 5.05.713.884-1.366 1.715-3.172 2.89-4.95 10.177-13.037 8.761-16.58 8.794-17.047.057-.818-1.999-6.555-5.581-6.248-3.678.315-12.656 5.142-4.824 14.04 1.703 1.907-.123 3.632-1.96 6.044m2.096-11.836c5.284 1.261 4.097 6.244-.763 13.338-3.556 2.033-4.518 3.087-4.241 2.377.286-.734.088-1.867 2.998-3.879" fill="none" fill-rule="evenodd" stroke="#000" stroke-width=".75454575" />
         <g fill-rule="evenodd">
            <path d="M210.945-175.397h26.425v12.196h-26.425v-12.196z" fill="#fac53a" stroke="#000" stroke-width=".224" transform="matrix(1.17661 0 0 1.16684 -1550.394 1019.206)" />
            <path d="M212.585-174.204l22.881.104M212.575-172.066l22.88.104M212.65-170.091l22.88.104M212.639-168.192l22.881.103M212.79-166.22l22.875-.054M212.706-164.24l22.95-.215" fill="none" stroke="#c13c1b" stroke-width=".665" stroke-linecap="round" stroke-linejoin="round" transform="matrix(1.17661 0 0 1.16684 -1550.394 1019.206)" />
         </g>
      </g>
      <path id="prefix__d" d="M-1293.042 955.559l49.08-3.56-5.575-31.39-46.72-2.545 3.215 37.495z" fill="#fff" fill-rule="evenodd" stroke="#c13c1b" stroke-width="1.061" stroke-linecap="round" stroke-linejoin="round" stroke-miterlimit="4" stroke-dasharray="none" stroke-opacity="1" />
      <path id="prefix__e" d="M-1251.328 913.558l-45.485.265-4.905.033 1.044 4.79c4.145 19.021 4.33 32.198 2.37 41.392-1.962 9.194-5.877 14.485-10.788 18.525-6.405 5.27-17.595 9.406-29.793 9.031-12.199-.374-25.39-5.031-36.687-17.084l-5.8 5.452c12.732 13.582 28.156 19.154 42.238 19.586 14.082.433 26.845-4.048 35.096-10.837 6.039-4.969 11.22-12.226 13.521-23.016 2.102-9.853 1.804-22.807-1.507-39.951l40.746-.232h2.355l-1.294-7.954H-1251.328z" fill="#c13c1b" fill-opacity="1" fill-rule="evenodd" stroke="none" stroke-width="15" stroke-linecap="butt" stroke-linejoin="miter" stroke-miterlimit="4" stroke-dasharray="none" stroke-opacity="1" />
      <path id="prefix__f" d="M-1362.14 985.822c-31.725 35.05-55.112 78.439-78.47 121.857l19.283 6.16c18.758-42.776 36.792-85.676 64.45-122.974" fill="#fff" fill-rule="evenodd" stroke="#c13c1b" stroke-width="1.591" stroke-linecap="butt" stroke-linejoin="miter" stroke-miterlimit="4" stroke-dasharray="none" stroke-opacity="1" />
      <path id="prefix__g" d="M-1348.48 990.643c-11.162 47.046-23.653 94.093-30.8 141.14l-19.55-4.018c11.634-46.064 29.18-92.129 44.725-138.193" fill="#fff" fill-rule="evenodd" stroke="#c13c1b" stroke-width="1.591" stroke-linecap="butt" stroke-linejoin="miter" stroke-miterlimit="4" stroke-dasharray="none" stroke-opacity="1" />
      <path id="prefix__h" d="M-1346.606 991.446c-4.13 44.926-.9 99.886-.073 145.52l19.283-2.142c-6.485-43.985-14.886-97.71-13.586-143.11" fill="#fff" fill-rule="evenodd" stroke="#c13c1b" stroke-width="1.591" stroke-linecap="butt" stroke-linejoin="miter" stroke-miterlimit="4" stroke-dasharray="none" stroke-opacity="1" />
      <path id="prefix__i" d="M-1333.75 991.714c10.24 46.623 28.588 94.69 53.563 141.408l15.266-6.696c-24.093-44.742-49.628-91.386-61.33-136.051" fill="#fff" fill-rule="evenodd" stroke="#c13c1b" stroke-width="1.591" stroke-linecap="butt" stroke-linejoin="miter" stroke-miterlimit="4" stroke-dasharray="none" stroke-opacity="1" />
      <path d="M-1521.259 907.31l-6.363.084c.35 28.074-4.833 56.867-15.046 79.852-10.212 22.986-25.304 39.962-44.624 45.453l1.723 6.114c21.783-6.19 38.031-24.93 48.717-48.982 10.687-24.05 15.953-53.614 15.593-82.52z" fill="#308d57" fill-rule="evenodd" stroke="#000" stroke-width=".53" />
      <path d="M-1642.97 907.31c-.36 28.907 4.907 58.47 15.593 82.521 10.687 24.051 26.919 42.791 48.7 48.982l1.74-6.114c-19.32-5.492-34.41-22.468-44.623-45.453-10.213-22.985-15.396-51.778-15.046-79.852l-6.363-.083z" fill="#308d57" fill-rule="evenodd" stroke="#000" stroke-width=".53" />
      <path d="M-1578.252 1050.1c-21.402 4.082-21.794-6.081-22.244-9.514-.431-3.295 2.974-16.714 20.838-10.64 3.851-1.787 8.13-6.265 10.713-3.548-4.59 7.096-32.521 13.856 2.142 23.434-1.713 2.474-7.12.535-11.449.268z" fill="#308d57" fill-rule="evenodd" />
      <path d="M-1614.646 1380.733c5.362-1.828 15.858-3.073 21.209-1.64M-1618.719 1363.186c6.593-2.87 18.795-3.327 25.187-2.083M-1621.843 1346.237c6.784-4.743 21.57-6.245 28.406-2.557M-1625.52 1326.96c6.688-3.912 22.187-6.113 32.083-2.407" fill="none" stroke="#000" stroke-width=".53" />
      <path d="M-1361.42 883.504c3.334.662 6.668.391 10.003.228" id="prefix__j" fill="none" fill-rule="evenodd" stroke="#000" stroke-width=".9" stroke-linecap="butt" stroke-linejoin="miter" stroke-miterlimit="4" stroke-dasharray="none" stroke-opacity="1" />
      <path d="M-1362.102 896.462c3.486.954 6.972.512 10.457.228" id="prefix__k" fill="none" fill-rule="evenodd" stroke="#000" stroke-width=".9" stroke-linecap="butt" stroke-linejoin="miter" stroke-miterlimit="4" stroke-dasharray="none" stroke-opacity="1" />
      <path d="M-1362.165 870.135c4.175-1.929 6.659-3.858 9.645-5.786" id="prefix__l" fill="none" fill-rule="evenodd" stroke="#000" stroke-width=".9" stroke-linecap="butt" stroke-linejoin="miter" stroke-miterlimit="4" stroke-dasharray="none" stroke-opacity="1" />
      <path id="prefix__m" d="M-1244.05 889.01c-4.454-.378-45.4-7.5-49.257-13.822-1.334-2.187-1.308-6.144 3.378-7.938-3.13-2.797-2.004-8.142 2.422-8.556-2.674-3.588-1.452-7.36 2.184-8.884-2.947-3.818-1.246-6.582 2.898-7.9-5.196.833-14.058-2.322-9.53-10.913l8.372 3.124c8.625-.949 15.896 1.378 22.623 3.363 5.414 1.597 11.33 11.839 18.429 18.534l5.688 5.322" fill="#003380" fill-opacity="1" fill-rule="evenodd" stroke="#000" stroke-width="1.061" stroke-linecap="round" stroke-linejoin="round" stroke-miterlimit="4" stroke-dasharray="none" stroke-opacity="1" />
      <g id="prefix__n" fill-rule="evenodd" stroke="#000" stroke-linecap="round" stroke-linejoin="round">
         <path d="M-2309.461 199.793l97.227.758-4.04 61.367-92.682-3.536-.505-58.589z" fill="#fac53a" transform="scale(-.30807) rotate(-76.134 -1097.37 -5306.711)" />
         <path d="M-2309.461 208.632l96.47 1.263-.993 18.96-95.225-1.498-.252-18.725z" fill="#04a" transform="scale(-.30807) rotate(-76.134 -1097.37 -5306.711)" />
         <path d="M-719.317 937.327l101.559 1.265-5.19 61.552-94.987-3.469-1.382-59.348z" fill="#fac53a" transform="matrix(-.07383 .29909 -.29909 -.07383 -991.757 1149.5)" />
         <path d="M-718.936 946.58l100.216 1.278-1.546 19.369-98.417-1.922-.253-18.725zM-718.546 971.438l97.638 1.546-1.625 18.957-95.76-1.778-.253-18.725z" fill="#04a" transform="matrix(-.07383 .29909 -.29909 -.07383 -991.757 1149.5)" />
      </g>
      <path d="M-1500.4 989.792c-1.669 4.146-14.09 43.91-10.182 50.202 1.351 2.177 4.896 3.936 8.608.56 1.087 4.054 6.367 5.456 8.73 1.692 2 4.003 5.917 4.61 8.915 2.052 2.082 4.35 5.316 4.077 8.359.97-3.084 4.264-4.26 13.598 5.45 13.424l.983-8.881c4.732-7.273 5.93-14.813 7.187-21.713 1.013-5.553-5.75-14.974-8.53-24.329l-2.19-6.34" id="prefix__o" fill="#003380" fill-opacity="1" fill-rule="evenodd" stroke="#000" stroke-width="1.061" stroke-linecap="round" stroke-linejoin="round" stroke-miterlimit="4" stroke-dasharray="none" stroke-opacity="1" />
      <g id="prefix__p">
         <path d="M-2307.48 199.202l95.246 1.35-4.04 61.366-92.682-3.536 1.476-59.18z" fill="#fac53a" fill-rule="evenodd" stroke="#000" stroke-linecap="round" stroke-linejoin="round" transform="matrix(.2994 .07253 -.07253 .2994 -790.549 1080.517)" />
         <path d="M-715.392 937.825l94.688 1.019-2.766 61.112-94.465-3.28 2.543-58.85z" fill="#fac53a" fill-rule="evenodd" stroke="#000" stroke-linecap="round" stroke-linejoin="round" transform="matrix(.2994 .07253 -.07253 .2994 -1213.743 743.977)" />
         <path d="M-715.729 946.964l95.033 1.224-1.173 18.96-94.828-1.452.968-18.732zM-716.844 971.451l94.632 1.38-.992 18.96-94.43-1.678.79-18.662z" fill="#04a" fill-rule="evenodd" stroke="#000" stroke-linecap="round" stroke-linejoin="round" transform="matrix(.2994 .07253 -.07253 .2994 -1213.743 743.977)" />
      </g>
      <g id="prefix__r" fill-rule="evenodd" stroke="#000" stroke-linecap="round" stroke-linejoin="round">
         <path d="M-2298.264 185.199l129.779 8.359-8.488 77.742-132.395-13.063 11.104-73.038z" fill="#fac53a" transform="matrix(.2543 .1463 -.1249 .21994 -792.584 1106.195)" />
         <path d="M-2299.299 193.609l129.66 10.549-2.604 22.255-130.567-9.952 3.511-22.852zM-2304.076 224.65L-2173.32 236l-2.746 24.159-131.762-10.989 3.753-24.52z" fill="#04a" transform="matrix(.2543 .1463 -.1249 .21994 -792.584 1106.195)" />
      </g>
      <g id="prefix__s" fill-rule="evenodd" stroke="#000" stroke-linecap="round" stroke-linejoin="round">
         <path d="M-2310.28 184.638l130.226 7.946-.277 76.804-128.502-10.85-1.447-73.9z" fill="#fac53a" transform="matrix(.2887 -.13565 .11584 .2415 -563.662 475.98)" />
         <path d="M-2310.083 192.453l129.84 10.812-.034 22.472-129.832-11.27.026-22.014zM-2309.532 224.646l128.981 10.745.146 24.403-128.897-11.067-.23-24.08z" fill="#04a" transform="matrix(.2887 -.13565 .11584 .2415 -563.662 475.98)" />
      </g>
      <path id="prefix__t" d="M-1251.117 914.884l-45.696.265-3.265.016.696 3.198c4.17 19.137 4.404 32.48 2.386 41.94-2.017 9.46-6.168 15.092-11.267 19.288-6.623 5.449-17.845 9.606-30.159 9.346-12.313-.26-25.696-4.796-37.183-16.538l-3.795 3.712c12.458 12.733 27.313 17.842 40.863 18.128 13.549.286 25.818-4.107 33.654-10.555 5.85-4.814 10.812-11.746 13.057-22.27 2.114-9.91 1.806-23.13-1.79-40.98l43.368-.248-.869-5.302z" fill="#fff" fill-opacity="1" fill-rule="evenodd" stroke="none" stroke-width="10" stroke-linecap="butt" stroke-linejoin="miter" stroke-miterlimit="4" stroke-dasharray="none" stroke-opacity="1" />
      <path id="prefix__u" d="M-1282.31 841.756c8.393-1.41 17.266 4.326 24.62 7.291" fill="none" fill-rule="evenodd" stroke="#000" stroke-width=".53" stroke-linecap="butt" stroke-linejoin="miter" stroke-opacity="1" />
      <path id="prefix__x" d="M-1289.593 925.462l37.226-.402" fill="none" fill-rule="evenodd" stroke="#c13c1b" stroke-width="1.061" stroke-linecap="round" stroke-linejoin="round" stroke-miterlimit="4" stroke-dasharray="none" stroke-opacity="1" />
      <path d="M-1287.898 932l36.848-.78" id="prefix__y" fill="none" fill-rule="evenodd" stroke="#c13c1b" stroke-width="1.061" stroke-linecap="round" stroke-linejoin="round" stroke-miterlimit="4" stroke-dasharray="none" stroke-opacity="1" />
      <path d="M-1287.663 937.915l37.037-1.159" id="prefix__z" fill="none" fill-rule="evenodd" stroke="#c13c1b" stroke-width="1.061" stroke-linecap="round" stroke-linejoin="round" stroke-miterlimit="4" stroke-dasharray="none" stroke-opacity="1" />
      <path id="prefix__A" d="M-1286.882 943.696l37.004-1.159" fill="none" fill-rule="evenodd" stroke="#c13c1b" stroke-width="1.061" stroke-linecap="round" stroke-linejoin="round" stroke-miterlimit="4" stroke-dasharray="none" stroke-opacity="1" />
      <path d="M-1286.56 950.137l37.763-2.008" id="prefix__B" fill="none" fill-rule="evenodd" stroke="#c13c1b" stroke-width="1.061" stroke-linecap="round" stroke-linejoin="round" stroke-miterlimit="4" stroke-dasharray="none" stroke-opacity="1" />
      <g fill="none">
         <path d="M-1238.627 1337.609c16.782-15.46 3.603-37.586-6.732-42.895-5.865-3.013-31.347-17.458-38.53 66.463l-1.582 25.535" stroke="#000" stroke-width="5.83275" />
         <path d="M-1238.627 1337.609c16.782-15.46 3.603-37.586-6.732-42.895-5.865-3.013-31.347-17.458-38.53 66.463l-1.582 25.535" stroke="#308d57" stroke-width="5.3025" />
      </g>
      <g fill="none">
         <path d="M-1425.003 1337.609c-16.782-15.46-3.604-37.586 6.731-42.895 5.865-3.013 31.347-17.458 38.53 66.463l1.582 25.535" stroke="#000" stroke-width="5.83275" />
         <path d="M-1425.003 1337.609c-16.782-15.46-3.604-37.586 6.731-42.895 5.865-3.013 31.347-17.458 38.53 66.463l1.582 25.535" stroke="#308d57" stroke-width="5.3025" />
      </g>
      <path d="M-1332.94 1379.085c-3.599-58.658-6.758-117.23-11.607-176.184l6.766-1.1c3.678 56.273 9.019 112.022 10.54 168.89M-1311.903 1372.747c-.836 11.3-3.531 8.656-7.257-1.723-.757-61.864 2.519-125.197 3.156-187.73l7.037.97c1.188 62.968-4.747 126.58-2.936 188.484zM-1296.639 1371.875c-1.95 6.766-3.896 13.6-7.13 1.842 1.736-58.786 12.157-112.276 14.66-171.806l6.852 2.699c-4.334 58.463-13 110.219-14.382 167.265z" fill="#308d57" fill-rule="evenodd" stroke="#000" stroke-width=".287" />
      <path d="M-1265.646 1395.911l-134.867-.067c6.937-10.488 13.559-20.975 14.89-31.463l107.817-.079c.848 10.938 5.618 21.384 12.16 31.61z" fill="#308d57" fill-rule="evenodd" stroke="#000" stroke-width=".452" />
      <use height="1052.362" width="744.094" transform="matrix(-1 0 0 1 -3167.98 0)" xlink:href="#prefix__a" />
      <use height="1052.362" width="744.094" transform="matrix(-1 0 0 1 -3167.98 0)" xlink:href="#prefix__b" />
      <use height="1052.362" width="744.094" transform="matrix(-1 0 0 1 -3167.98 0)" xlink:href="#prefix__c" />
      <use height="1052.362" width="744.094" transform="matrix(-1 0 0 1 -3167.98 0)" xlink:href="#prefix__d" />
      <use height="1052.362" width="744.094" transform="matrix(-1 0 0 1 -3167.98 0)" xlink:href="#prefix__e" />
      <use height="1052.362" width="744.094" transform="matrix(-1 0 0 1 -3167.98 0)" xlink:href="#prefix__f" />
      <use height="1052.362" width="744.094" transform="matrix(-1 0 0 1 -3167.98 0)" xlink:href="#prefix__g" />
      <use height="1052.362" width="744.094" transform="matrix(-1 0 0 1 -3167.98 0)" xlink:href="#prefix__h" />
      <use height="1052.362" width="744.094" transform="matrix(-1 0 0 1 -3167.98 0)" xlink:href="#prefix__i" />
      <use height="1052.362" width="744.094" transform="matrix(-1 0 0 1 -3167.98 0)" xlink:href="#prefix__j" />
      <use height="1052.362" width="744.094" transform="matrix(-1 0 0 1 -3167.98 0)" xlink:href="#prefix__k" />
      <use height="1052.362" width="744.094" transform="matrix(-1 0 0 1 -3167.98 0)" xlink:href="#prefix__l" />
      <use height="1052.362" width="744.094" transform="matrix(-1 0 0 1 -3167.98 0)" xlink:href="#prefix__m" />
      <use height="1052.362" width="744.094" transform="matrix(-1 0 0 1 -3167.98 0)" xlink:href="#prefix__n" />
      <use height="1052.362" width="744.094" transform="matrix(-1 0 0 1 -3167.98 0)" xlink:href="#prefix__o" />
      <path d="M-1583.477 1032.566c-9.216-.098-23.753 1.42-47.455-.994-23.701-2.414-53.356-8.728-86.033-24.49-47.78-23.048-103.437-64.275-131.072-94.137v-.017h-.016c-89.431-95.967-126.512-178.686-120.169-315.019l-6.346-.298c-6.404 137.615 31.774 222.99 121.858 319.659 28.533 30.832 84.275 72.035 132.977 95.528 33.436 16.128 63.871 22.63 88.155 25.104s42.628.938 48.1 1.027c5.473-.089 23.817 1.447 48.101-1.027s54.719-8.976 88.154-25.104c48.703-23.493 104.445-64.696 132.978-95.528 90.085-96.67 128.262-182.044 121.858-319.66l-6.346.3c6.344 136.332-30.738 219.05-120.169 315.018h-.016v.017c-27.635 29.862-83.292 71.089-131.072 94.136-32.677 15.763-62.332 22.077-86.033 24.491-23.702 2.415-38.239.896-47.455.994z" fill="#308d57" fill-rule="evenodd" stroke="#000" stroke-width=".53" />
      <use height="1052.362" width="744.094" transform="matrix(-1 0 0 1 -3167.98 0)" xlink:href="#prefix__p" />
      <use height="1052.362" width="744.094" transform="matrix(-1 0 0 1 -3167.98 0)" xlink:href="#prefix__q" />
      <use height="1052.362" width="744.094" transform="matrix(-1 0 0 1 -3167.98 0)" xlink:href="#prefix__r" />
      <use height="1052.362" width="744.094" transform="matrix(-1 0 0 1 -3167.98 0)" xlink:href="#prefix__s" />
      <use height="1052.362" width="744.094" transform="matrix(-1 0 0 1 -3167.98 0)" xlink:href="#prefix__t" />
      <use height="1052.362" width="744.094" transform="matrix(-1 0 0 1 -3167.98 0)" xlink:href="#prefix__u" />
      <use height="1052.362" width="744.094" transform="matrix(-1 0 0 1 -3167.98 0)" xlink:href="#prefix__v" />
      <use height="1052.362" width="744.094" transform="matrix(-1 0 0 1 -3167.98 0)" xlink:href="#prefix__w" />
      <use height="1052.362" width="744.094" transform="matrix(-1 0 0 1 -3167.98 0)" xlink:href="#prefix__x" />
      <use height="1052.362" width="744.094" transform="matrix(-1 0 0 1 -3167.98 0)" xlink:href="#prefix__y" />
      <use height="1052.362" width="744.094" transform="matrix(-1 0 0 1 -3167.98 0)" xlink:href="#prefix__z" />
      <use height="1052.362" width="744.094" transform="matrix(-1 0 0 1 -3167.98 0)" xlink:href="#prefix__A" />
      <use height="1052.362" width="744.094" transform="matrix(-1 0 0 1 -3167.98 0)" xlink:href="#prefix__B" />
      <g fill="#308d57" fill-rule="evenodd" stroke="#000">
         <path d="M-1578.12 1049.985c-18.507-6.108-30.77-12.33-1.348-20.2 3.85-1.721 8.13-6.2 10.712-3.482 1.646 1.732-5.453 7.587-9.066 9.677-4.265 2.466-9.236 3.574-14.502 4.116 5.852.324 11.309-.242 17.292 2.907 2.674 1.408 10.039 4.394 8.419 6.734-1.714 2.475-7.178.515-11.506.248z" stroke-width=".53025" />
         <path d="M-1579.468 1029.919c-17.864-6.142-21.27 7.277-20.839 10.572.45 3.433.909 13.564 22.311 9.482-.452-9.087-12.755-1.667-14.462-9.61.85-6.961 8.585-5.43 12.99-10.444z" stroke-width=".53025" />
      </g>
      <path d="M-1892.12 1206.655l-5.087 1.474c18.175 62.581 36.26 85.999 35.875 188.62l5.302.034c.387-103.253-18.08-128.113-36.09-190.128zM-1856.875 1200.805l-5.286.298c3.642 64.645 13.206 101.85 14.085 195.68l5.302-.05c-.881-94.178-10.482-131.691-14.101-195.928zM-1830.578 1203.225c-9.28 58.357-5.124 106.45-4.623 193.558l5.302-.033c-.501-87.265-4.612-135.029 4.557-192.697l-5.236-.829zM-1768.522 1285.86c-2.546.171-5.074.714-7.523 1.857-4.898 2.285-9.147 6.897-12.411 14.549-6.527 15.303-9.796 43.16-8.12 94.583l5.303-.165c-1.667-51.13 1.843-78.641 7.689-92.347 2.922-6.853 6.243-10.166 9.776-11.815 3.533-1.648 7.592-1.688 12.13-1.01 2.908.434 7.65 3.06 10.058 8.053 2.408 4.993 2.891 12.548-2.983 23.612l4.69 2.486c6.417-12.087 6.292-21.71 3.065-28.402-3.226-6.69-9.135-10.252-14.052-10.986-2.507-.374-5.076-.584-7.622-.414z" fill="#308d57" fill-rule="evenodd" stroke="#000" stroke-width=".53" />
      <path d="M-1910.215 1286.623c-7.417.02-14.241 5.12-16.786 12.693-2.545 7.574-.603 17.504 8.5 26.943l3.829-3.678c-8.112-8.41-9.166-16.044-7.308-21.575 1.858-5.53 6.828-9.067 11.782-9.08 4.8-.013 9.4.099 13.538 1.657s7.993 4.473 11.566 10.837c7.145 12.727 12.408 39.336 12.063 92.33l5.302.033c.347-53.347-4.632-80.518-12.742-94.965-4.055-7.223-9.086-11.23-14.334-13.206-5.247-1.976-10.552-2.002-15.41-1.989z" fill="#308d57" fill-rule="evenodd" stroke="#000" stroke-width=".53" />
      <use height="1052.362" width="744.094" transform="rotate(-15.613 -1862.39 1342.547)" xlink:href="#prefix__C" />
      <g id="prefix__C" fill-rule="evenodd" stroke="#000">
         <path d="M229.81 2020.745c-7.626 64.947-17.602 96.456-37.123-7.778 2.514-26.537 14.791-27.455 21.538-26.902 5.699.468 22.297 3.342 15.585 34.68z" fill="#04a" transform="translate(-1934.815 459.72) scale(.35573)" />
         <path d="M216.021 2098.88c-28.014 1.072-14.613-58.336-34.648-64.7-21.966 14.173-20.186-18.984-2.829-20.86 14.503-1.567 29.851-8.691 36.416 60.104 4.622-26.772 5.422-59.804 30.76-59.75 22.258.047 15.815 34.832-.708 21.92-15.62 7.348-4.857 63.515-28.99 63.286z" fill="#308d57" transform="translate(-1934.815 459.72) scale(.35573)" />
      </g>
      <use height="1052.362" width="744.094" transform="rotate(22.422 -1853.704 1278.565)" xlink:href="#prefix__C" />
      <use height="1052.362" width="744.094" transform="rotate(154.441 -1902.299 1254.64)" id="prefix__D" xlink:href="#prefix__C" y="0" x="0" />
      <use height="1052.362" width="744.094" transform="rotate(45.314 -1832.122 1522.569)" xlink:href="#prefix__D" />
      <g fill-rule="evenodd" stroke="#000">
         <path d="M-1631.155 876.344c-4.913 29.597-10.173 43.82-16.842-4.375 1.731-12.106 7.378-12.259 10.458-11.858 2.601.34 10.145 2.019 6.384 16.233z" fill="#04a" stroke-width=".45879" />
         <path d="M-1639.18 911.85c-12.861-.12-5.423-27.053-14.465-30.407-10.376 6.016-8.836-9.14-.84-9.62 6.68-.402 13.869-3.332 15.375 28.339 2.702-12.169 3.79-27.289 15.4-26.71 10.2.507 6.488 16.307-.802 10.03-7.32 3.025-3.613 29-14.668 28.368z" fill="#308d57" stroke-width=".45879" />
      </g>
      <g fill-rule="evenodd" stroke="#000">
         <path d="M-1960.057 575.669c-8.047 28.902-14.796 42.48-16.278-6.15 3.015-11.852 8.645-11.4 11.665-10.673 2.55.615 9.871 3.091 4.613 16.823z" fill="#04a" stroke-width=".45879" />
         <path d="M-1971.83 610.114c-12.775-1.494-2.501-27.478-11.133-31.779-10.96 4.873-7.81-10.032.192-9.656 6.685.315 14.146-1.83 12.26 29.82 3.987-11.81 6.684-26.726 18.166-24.911 10.087 1.594 4.708 16.907-1.87 9.886-7.6 2.227-6.69 28.45-17.615 26.64z" fill="#308d57" stroke-width=".45879" />
      </g>
      <path id="prefix__v" d="M-1509.607 1026.653c13.556-4.859 25.064-12.71 38.04-10.657l-.03 7.284c-9.527 5.723-24.988 15.415-39.21 12.265.118-2.964.11-5.928 1.2-8.892z" fill="#003380" fill-opacity="1" fill-rule="evenodd" stroke="none" stroke-width="2" stroke-linecap="round" stroke-linejoin="round" stroke-miterlimit="4" stroke-dasharray="none" stroke-opacity="1" />
      <path d="M-1475.78 1045.234c5.038-6.857 3.619-21.208 4.284-29.11" id="prefix__w" fill="none" fill-rule="evenodd" stroke="#000" stroke-width=".53" stroke-linecap="butt" stroke-linejoin="miter" stroke-opacity="1" />
      <path d="M-1257.837 849.31c-7.918 10.655-13.607 22.278-23.146 31.31-2.79-.533-5.463-1.657-8.075-3.081 6.444-11.243 13.067-22.281 24.235-31.634l6.986 3.406z" id="prefix__q" fill="#003380" fill-opacity="1" fill-rule="evenodd" stroke="none" stroke-width="2" stroke-linecap="round" stroke-linejoin="round" stroke-miterlimit="4" stroke-dasharray="none" stroke-opacity="1" />
      <path d="M-1376.76 1364.795l4.022-8.386 4.28 8.292M-1360.156 1364.795l4.023-8.386 4.279 8.292M-1342.734 1364.795l4.023-8.386 4.28 8.292M-1327.205 1364.795l4.023-8.386 4.28 8.292M-1312.055 1364.795l4.023-8.386 4.28 8.292M-1295.768 1364.795l4.022-8.386 4.28 8.292M-1363.335 582.444l-17.519 18.938h-407.536l-19.237-18.938h444.292z" fill="#308d57" fill-rule="evenodd" stroke="#000" stroke-width=".53" />
      <path d="M-1615.181 1379.26c5.361-1.828 16.393-3.14 21.744-1.707M-1625.876 1325.26c6.687-3.91 22.733-5.833 32.628-2.127M-1622.033 1344.91c6.785-4.741 21.771-6.177 28.607-2.489M-1618.719 1361.86c6.593-2.87 18.795-3.327 25.187-2.083" fill="none" stroke="#000" stroke-width=".53" />
      <g fill="none" stroke="#000" stroke-width=".5">
         <path d="M-1675.268 582.489v18.613M-1676.593 582.489v18.613M-1677.919 582.489v18.613M-1679.434 582.489v18.613" stroke-width=".265125" />
      </g>
      <g fill="none" stroke="#000" stroke-width=".5">
         <path d="M-1688.39 582.489v18.613M-1689.716 582.489v18.613M-1691.042 582.489v18.613M-1692.557 582.489v18.613" stroke-width=".265125" />
      </g>
      <g fill="none" stroke="#000" stroke-width=".5">
         <path d="M-1701.782 582.489v18.613M-1703.107 582.489v18.613M-1704.433 582.489v18.613M-1705.948 582.489v18.613" stroke-width=".265125" />
      </g>
      <g fill="none" stroke="#000" stroke-width=".5">
         <path d="M-1714.905 582.489v18.613M-1716.23 582.489v18.613M-1717.556 582.489v18.613M-1719.071 582.489v18.613" stroke-width=".265125" />
      </g>
      <g fill="none" stroke="#000" stroke-width=".5">
         <path d="M-1728.028 582.489v18.613M-1729.353 582.489v18.613M-1730.68 582.489v18.613M-1732.194 582.489v18.613" stroke-width=".265125" />
      </g>
      <g fill="none" stroke="#000" stroke-width=".5">
         <path d="M-1741.419 582.489v18.613M-1742.744 582.489v18.613M-1744.07 582.489v18.613M-1745.585 582.489v18.613" stroke-width=".265125" />
      </g>
      <g fill="none" stroke="#000" stroke-width=".5">
         <path d="M-1754.542 582.489v18.613M-1755.867 582.489v18.613M-1757.193 582.489v18.613M-1758.708 582.489v18.613" stroke-width=".265125" />
      </g>
      <g fill="none" stroke="#000" stroke-width=".5">
         <path d="M-1767.933 582.489v18.613M-1769.258 582.489v18.613M-1770.584 582.489v18.613M-1772.099 582.489v18.613" stroke-width=".265125" />
      </g>
      <g fill="none" stroke="#000" stroke-width=".5">
         <path d="M-1781.056 582.489v18.613M-1782.381 582.489v18.613M-1783.707 582.489v18.613M-1785.222 582.489v18.613" stroke-width=".265125" />
      </g>
      <g fill="none" stroke="#000" stroke-width=".5">
         <path d="M-1569.48 582.489v18.613M-1570.805 582.489v18.613M-1572.131 582.489v18.613M-1573.646 582.489v18.613" stroke-width=".265125" />
      </g>
      <g fill="none" stroke="#000" stroke-width=".5">
         <path d="M-1582.603 582.489v18.613M-1583.929 582.489v18.613M-1585.254 582.489v18.613M-1586.77 582.489v18.613" stroke-width=".265125" />
      </g>
      <g fill="none" stroke="#000" stroke-width=".5">
         <path d="M-1595.994 582.489v18.613M-1597.32 582.489v18.613M-1598.645 582.489v18.613M-1600.16 582.489v18.613" stroke-width=".265125" />
      </g>
      <g fill="none" stroke="#000" stroke-width=".5">
         <path d="M-1609.117 582.489v18.613M-1610.442 582.489v18.613M-1611.768 582.489v18.613M-1613.283 582.489v18.613" stroke-width=".265125" />
      </g>
      <g fill="none" stroke="#000" stroke-width=".5">
         <path d="M-1622.24 582.489v18.613M-1623.566 582.489v18.613M-1624.891 582.489v18.613M-1626.406 582.489v18.613" stroke-width=".265125" />
      </g>
      <g fill="none" stroke="#000" stroke-width=".5">
         <path d="M-1635.63 582.489v18.613M-1636.956 582.489v18.613M-1638.282 582.489v18.613M-1639.797 582.489v18.613" stroke-width=".265125" />
      </g>
      <g fill="none" stroke="#000" stroke-width=".5">
         <path d="M-1648.754 582.489v18.613M-1650.08 582.489v18.613M-1651.405 582.489v18.613M-1652.92 582.489v18.613" stroke-width=".265125" />
      </g>
      <g fill="none" stroke="#000" stroke-width=".5">
         <path d="M-1662.145 582.489v18.613M-1663.47 582.489v18.613M-1664.796 582.489v18.613M-1666.311 582.489v18.613" stroke-width=".265125" />
      </g>
      <g fill="none" stroke="#000" stroke-width=".5">
         <path d="M-1476.815 582.489v18.613M-1478.14 582.489v18.613M-1479.466 582.489v18.613M-1480.981 582.489v18.613" stroke-width=".265125" />
      </g>
      <g fill="none" stroke="#000" stroke-width=".5">
         <path d="M-1489.938 582.489v18.613M-1491.264 582.489v18.613M-1492.59 582.489v18.613M-1494.104 582.489v18.613" stroke-width=".265125" />
      </g>
      <g fill="none" stroke="#000" stroke-width=".5">
         <path d="M-1503.329 582.489v18.613M-1504.655 582.489v18.613M-1505.98 582.489v18.613M-1507.495 582.489v18.613" stroke-width=".265125" />
      </g>
      <g fill="none" stroke="#000" stroke-width=".5">
         <path d="M-1516.452 582.489v18.613M-1517.778 582.489v18.613M-1519.103 582.489v18.613M-1520.618 582.489v18.613" stroke-width=".265125" />
      </g>
      <g fill="none" stroke="#000" stroke-width=".5">
         <path d="M-1529.575 582.489v18.613M-1530.9 582.489v18.613M-1532.226 582.489v18.613M-1533.741 582.489v18.613" stroke-width=".265125" />
      </g>
      <g fill="none" stroke="#000" stroke-width=".5">
         <path d="M-1542.966 582.489v18.613M-1544.292 582.489v18.613M-1545.617 582.489v18.613M-1547.132 582.489v18.613" stroke-width=".265125" />
      </g>
      <g fill="none" stroke="#000" stroke-width=".5">
         <path d="M-1556.089 582.489v18.613M-1557.415 582.489v18.613M-1558.74 582.489v18.613M-1560.255 582.489v18.613" stroke-width=".265125" />
      </g>
      <g fill="none" stroke="#000" stroke-width=".5">
         <path d="M-1384.15 582.489v18.613M-1385.476 582.489v18.613M-1386.801 582.489v18.613M-1388.316 582.489v18.613" stroke-width=".265125" />
      </g>
      <g fill="none" stroke="#000" stroke-width=".5">
         <path d="M-1397.541 582.489v18.613M-1398.867 582.489v18.613M-1400.192 582.489v18.613M-1401.707 582.489v18.613" stroke-width=".265125" />
      </g>
      <g fill="none" stroke="#000" stroke-width=".5">
         <path d="M-1410.664 582.489v18.613M-1411.99 582.489v18.613M-1413.315 582.489v18.613M-1414.83 582.489v18.613" stroke-width=".265125" />
      </g>
      <g fill="none" stroke="#000" stroke-width=".5">
         <path d="M-1423.787 582.489v18.613M-1425.113 582.489v18.613M-1426.438 582.489v18.613M-1427.953 582.489v18.613" stroke-width=".265125" />
      </g>
      <g fill="none" stroke="#000" stroke-width=".5">
         <path d="M-1437.178 582.489v18.613M-1438.504 582.489v18.613M-1439.83 582.489v18.613M-1441.344 582.489v18.613" stroke-width=".265125" />
      </g>
      <g fill="none" stroke="#000" stroke-width=".5">
         <path d="M-1450.301 582.489v18.613M-1451.627 582.489v18.613M-1452.952 582.489v18.613M-1454.467 582.489v18.613" stroke-width=".265125" />
      </g>
      <g fill="none" stroke="#000" stroke-width=".5">
         <path d="M-1463.692 582.489v18.613M-1465.018 582.489v18.613M-1466.343 582.489v18.613M-1467.858 582.489v18.613" stroke-width=".265125" />
      </g>
      <g stroke="#000">
         <path d="M-1314.868 1195.923c-4.013-1.858-2.116-16.296-13.653-22.37-.931-.49-1.473-1.58-.779-2.045 11.417-7.65 24.905-7.793 34.224.764.353.324.88 1.231.178 1.527-10.965 4.618-10.372 18.053-13.961 22.288-1.968.902-3.974.755-6.009-.164z" fill="#fff" fill-rule="evenodd" stroke-width=".2873955" />
         <path d="M-1306.333 1180.19l-2.711 8.17-7.767-.737-1.54-8.504-1.138-8.637c-.977-4.895.615-3.628 2.075-.67l4.821 9.575h1.74l3.75-8.503c2.964-6.1 3.999-4.483 2.612 1.473l-1.842 7.834z" fill="#04a" fill-rule="evenodd" stroke-width=".1325625" />
         <path d="M-1308.819 1186.652c3.401-7.313 3.681-13.719 14.16-13.338-.031.16.034.392-.17.478-10.964 4.619-10.372 18.053-13.96 22.288-1.968.902-3.975.755-6.009-.164-4.014-1.858-2.116-16.296-13.653-22.37-.444-.233-.799-.603-.974-.976 8.296-1.886 12.1 8.115 14.447 13.919.562-5.574 1.784-11.259 2.645-17.06.696-6.136 1.79-3.307 1.93-.111.638 5.849 1.475 11.462 1.584 17.334z" fill="#308d57" fill-rule="evenodd" stroke-width=".2873955" />
         <path d="M-1314.956 1186.408c-.373 3.168-.738 5.425-.662 8.792M-1308.849 1186.422c.1 2.32.501 6.21.032 9.546" fill="none" stroke-width=".265125" />
      </g>
      <g stroke="#000">
         <path d="M-1343.522 1203.693c-4.324-.929-5.655-15.43-18.247-18.812-1.016-.273-1.785-1.216-1.21-1.823 9.45-9.977 22.575-13.09 33.55-6.796.416.238 1.13 1.007.51 1.45-9.677 6.92-6.138 19.895-8.706 24.817-1.72 1.313-3.71 1.611-5.897 1.164z" fill="#fff" fill-rule="evenodd" stroke-width=".2873955" />
         <path d="M-1338.663 1186.466l-.845 8.565-7.738.994-3.376-7.955-3.014-8.174c-2.031-4.56-.2-3.675 1.877-1.11l6.812 8.276 1.698-.384 1.784-9.12c1.546-6.603 2.912-5.254 2.871.861l-.07 8.047z" fill="#04a" fill-rule="evenodd" stroke-width=".1325625" />
         <path d="M-1339.665 1193.316c1.706-7.882.568-14.192 10.873-16.13.005.163.12.375-.06.504-9.678 6.921-6.139 19.895-8.706 24.817-1.721 1.313-3.71 1.612-5.897 1.164-4.325-.929-5.655-15.43-18.247-18.812-.484-.13-.912-.412-1.166-.737 7.677-3.668 13.592 5.248 17.16 10.393-.68-5.56-.74-11.376-1.18-17.224-.673-6.138 1.018-3.62 1.858-.533 1.911 5.564 3.964 10.855 5.365 16.558z" fill="#308d57" fill-rule="evenodd" stroke-width=".2873955" />
         <path d="M-1345.705 1194.43c.335 3.174.476 5.455 1.292 8.723M-1339.744 1193.099c.609 2.24 1.857 5.948 2.134 9.304" fill="none" stroke-width=".265125" />
      </g>
      <g stroke="#000">
         <path d="M-1289.051 1208.753c-3.507-2.695 1.516-16.363-8.405-24.823-.801-.683-1.091-1.864-.311-2.166 12.819-4.954 26.009-2.13 33.22 8.264.273.393.588 1.394-.162 1.528-11.712 2.097-14.085 15.334-18.516 18.677-2.118.447-4.043-.137-5.826-1.48z" fill="#fff" fill-rule="evenodd" stroke-width=".2873955" />
         <path d="M-1277.268 1195.28l-4.44 7.373-7.416-2.424.366-8.634.787-8.676c.123-4.99 1.398-3.405 2.172-.198l2.6 10.4 1.698.382 5.526-7.471c4.231-5.3 4.886-3.495 2.224 2.01l-3.517 7.238z" fill="#04a" fill-rule="evenodd" stroke-width=".1325625" />
         <path d="M-1281.113 1201.037c4.924-6.387 6.605-12.574 16.743-9.9-.065.148-.052.39-.27.428-11.711 2.097-14.084 15.334-18.516 18.677-2.118.447-4.043-.137-5.826-1.48-3.507-2.695 1.516-16.363-8.405-24.823-.381-.326-.647-.764-.736-1.167 8.508-.017 10.023 10.575 11.037 16.753 1.772-5.314 4.214-10.592 6.328-16.062 2.027-5.833 2.473-2.833 1.907.316-.662 5.846-1.08 11.506-2.262 17.258z" fill="#308d57" fill-rule="evenodd" stroke-width=".2873955" />
         <path d="M-1287.047 1199.45c-1.06 3.01-1.912 5.131-2.577 8.433M-1281.092 1200.807c-.412 2.285-.876 6.169-2.066 9.32" fill="none" stroke-width=".265125" />
      </g>
      <g stroke="#000">
         <path d="M-1234.12 1337.005c1.454 4.177-10.243 12.851-6.587 25.366.295 1.01-.11 2.158-.928 1.982-13.436-2.888-22.916-12.483-23.245-25.13-.012-.478.273-1.488.974-1.189 10.943 4.67 20.187-5.097 25.726-5.462 2.016.788 3.305 2.332 4.06 4.433z" fill="#fff" fill-rule="evenodd" stroke-width=".2873955" />
         <path d="M-1251.362 1341.809l7.756-3.73 4.87 6.094-5.04 7.019-5.417 6.823c-2.84 4.105-3.036 2.08-1.924-1.027l3.53-10.121-1.21-1.251-8.72 3.217c-6.444 2.11-6.001.242-.756-2.901l6.91-4.123z" fill="#04a" fill-rule="evenodd" stroke-width=".1325625" />
         <path d="M-1244.99 1339.104c-7.62 2.639-12.42 6.891-19.43-.905.135-.089.257-.297.46-.21 10.943 4.67 20.188-5.097 25.727-5.462 2.016.788 3.305 2.332 4.06 4.433 1.454 4.177-10.243 12.85-6.587 25.366.14.481.122.994-.024 1.38-7.124-4.653-2.581-14.34-.041-20.063-4.396 3.472-9.333 6.546-14.1 9.96-4.895 3.767-3.623 1.013-1.422-1.31 3.76-4.524 7.213-9.028 11.357-13.19z" fill="#308d57" fill-rule="evenodd" stroke-width=".2873955" />
         <path d="M-1240.898 1343.684c2.536-1.935 4.412-3.241 6.78-5.637M-1245.134 1339.284c1.598-1.685 4.116-4.677 6.84-6.66" fill="none" stroke-width=".265125" />
      </g>
      <g stroke="#000">
         <path d="M-1426.308 1333.017c3.938-2.013 14.132 8.386 26.03 3.052.96-.431 2.151-.186 2.09.647-1.022 13.706-9.229 24.41-21.711 26.467-.473.078-1.512-.067-1.312-.801 3.128-11.48-7.813-19.3-8.932-24.737.504-2.105 1.857-3.593 3.835-4.628z" fill="#fff" fill-rule="evenodd" stroke-width=".2873955" />
         <path d="M-1419.19 1349.439l-4.756-7.173 5.37-5.659 7.643 4.033 7.5 4.431c4.456 2.25 2.477 2.723-.753 2.047l-10.51-2.111-1.073 1.37 4.38 8.196c2.974 6.095 1.062 5.913-2.77 1.147l-5.03-6.281z" fill="#04a" fill-rule="evenodd" stroke-width=".1325625" />
         <path d="M-1422.741 1343.497c3.658 7.187 8.527 11.359 1.764 19.372-.107-.123-.33-.215-.272-.428 3.128-11.48-7.812-19.3-8.932-24.737.504-2.105 1.857-3.593 3.835-4.628 3.939-2.013 14.132 8.386 26.03 3.052.457-.206.967-.257 1.369-.165-3.633 7.693-13.852 4.52-19.867 2.787 4.04 3.88 7.761 8.348 11.797 12.604 4.4 4.332 1.498 3.449-1.104 1.587-4.997-3.105-9.93-5.909-14.62-9.444z" fill="#308d57" fill-rule="evenodd" stroke-width=".2873955" />
         <path d="M-1418.764 1338.817c-2.264-2.248-3.815-3.927-6.512-5.945M-1422.542 1343.615c-1.889-1.352-5.198-3.437-7.534-5.863" fill="none" stroke-width=".265125" />
      </g>
      <g stroke="#000">
         <path d="M-1292.127 564.92c-1.98-.916-1.043-8.037-6.733-11.032-.46-.242-.727-.78-.384-1.009 5.63-3.772 12.282-3.843 16.878.377.174.16.434.607.088.753-5.408 2.278-5.115 8.904-6.885 10.992-.97.445-1.96.372-2.964-.08z" fill="#fff" fill-rule="evenodd" stroke-width=".14173842000000003" />
         <path d="M-1287.917 557.161l-1.338 4.029-3.83-.363-.76-4.194-.56-4.26c-.483-2.414.303-1.789 1.023-.33l2.377 4.722h.859l1.849-4.193c1.461-3.009 1.972-2.211 1.288.726l-.908 3.863z" fill="#04a" fill-rule="evenodd" stroke-width=".0653775" />
         <path d="M-1289.144 560.348c1.678-3.607 1.816-6.766 6.984-6.578-.015.079.017.193-.084.236-5.407 2.278-5.115 8.903-6.885 10.992-.97.445-1.96.372-2.963-.08-1.98-.918-1.044-8.038-6.734-11.034a1.109 1.109 0 01-.48-.48c4.092-.931 5.968 4.001 7.125 6.864.277-2.75.88-5.553 1.304-8.414.343-3.026.883-1.631.952-.055.315 2.885.727 5.653.781 8.549z" fill="#308d57" fill-rule="evenodd" stroke-width=".14173842000000003" />
         <path d="M-1292.17 560.228c-.184 1.562-.364 2.675-.327 4.336M-1289.158 560.235c.05 1.144.247 3.063.016 4.708" fill="none" stroke-width=".130755" />
      </g>
      <g stroke="#000">
         <path d="M-1199.276 602.017c-5.774-2.284-4.267-22.67-20.922-30.26-1.344-.612-2.191-2.095-1.255-2.803 15.39-11.633 34.281-12.911 48.024-1.664.52.426 1.332 1.655.371 2.125-14.997 7.35-13.093 26.13-17.784 32.352-2.686 1.42-5.51 1.375-8.434.25z" fill="#fff" fill-rule="evenodd" stroke-width=".40342686000000005" />
         <path d="M-1188.572 579.287l-3.147 11.665-10.944-.412-2.837-11.794-2.286-12.014c-1.76-6.782.573-5.134 2.856-1.104l7.52 13.033 2.44-.139 4.576-12.216c3.665-8.786 5.245-6.602 3.777 1.855l-1.955 11.126z" fill="#04a" fill-rule="evenodd" stroke-width=".1860825" />
         <path d="M-1191.54 588.54c4.183-10.52 4.063-19.52 18.779-19.823-.03.227.08.547-.2.683-14.997 7.35-13.093 26.13-17.784 32.352-2.686 1.42-5.51 1.375-8.434.25-5.773-2.284-4.267-22.67-20.921-30.26-.64-.292-1.168-.781-1.444-1.29 11.477-3.306 17.608 10.406 21.36 18.352.341-7.856 1.6-15.92 2.343-24.12.485-8.655 2.245-4.778 2.696-.31 1.361 8.147 2.983 15.946 3.605 24.167z" fill="#308d57" fill-rule="evenodd" stroke-width=".40342686000000005" />
         <path d="M-1200.16 588.689c-.27 4.47-.6 7.662-.225 12.375M-1191.6 588.221c.326 3.244 1.198 8.664.808 13.376" fill="none" stroke-width=".372165" />
      </g>
      <g stroke="#000">
         <path d="M-1528.508 910.308c-5.875-2.72-3.097-23.855-19.986-32.747-1.363-.717-2.157-2.312-1.14-2.993 16.713-11.198 36.457-11.407 50.098 1.118.517.475 1.288 1.802.26 2.235-16.05 6.761-15.183 26.428-20.436 32.628-2.881 1.32-5.818 1.104-8.796-.24z" fill="#fff" fill-rule="evenodd" stroke-width=".42071124000000004" />
         <path d="M-1516.014 887.278l-3.97 11.958-11.369-1.078-2.254-12.448-1.666-12.643c-1.43-7.166.9-5.312 3.038-.98l7.057 14.015h2.548l5.49-12.447c4.337-8.93 5.852-6.563 3.822 2.156l-2.696 11.467z" fill="#04a" fill-rule="evenodd" stroke-width=".194055" />
         <path d="M-1519.653 896.736c4.979-10.705 5.389-20.082 20.728-19.524-.046.234.05.574-.248.7-16.051 6.76-15.184 26.427-20.437 32.627-2.881 1.32-5.818 1.104-8.796-.24-5.875-2.721-3.097-23.856-19.986-32.748-.65-.341-1.17-.882-1.427-1.428 12.146-2.761 17.715 11.879 21.15 20.375.822-8.16 2.612-16.481 3.871-24.974 1.019-8.982 2.621-4.84 2.826-.162.934 8.562 2.158 16.779 2.319 25.374z" fill="#308d57" fill-rule="evenodd" stroke-width=".42071124000000004" />
         <path d="M-1528.637 896.38c-.546 4.638-1.08 7.94-.97 12.87M-1519.697 896.4c.147 3.397.733 9.092.047 13.974" fill="none" stroke-width=".38811" />
      </g>
      <g stroke="#000">
         <path d="M-1301.748 572.294c-2.177-.142-3.867-7.122-10.254-7.868-.516-.06-.959-.465-.722-.802 3.895-5.547 10.075-8.008 15.882-5.726.22.086.624.41.353.67-4.225 4.073-1.566 10.15-2.465 12.735-.746.764-1.695 1.053-2.794.991z" fill="#fff" fill-rule="evenodd" stroke-width=".14173842000000003" />
         <path d="M-1300.615 563.54l.203 4.24-3.704 1.04-2.219-3.639-2.057-3.771c-1.319-2.08-.361-1.78.836-.677l3.918 3.55.801-.31.215-4.578c.28-3.333 1.044-2.773 1.463.214l.544 3.931z" fill="#04a" fill-rule="evenodd" stroke-width=".0653775" />
         <path d="M-1300.612 566.954c.267-3.968-.742-6.965 4.147-8.65.014.078.086.174.007.25-4.225 4.071-1.566 10.148-2.466 12.733-.745.765-1.694 1.053-2.793.992-2.177-.143-3.868-7.123-10.254-7.868a1.109 1.109 0 01-.622-.276c3.482-2.341 7.009 1.584 9.119 3.838-.731-2.664-1.178-5.497-1.813-8.319-.77-2.947.237-1.84.869-.394 1.332 2.578 2.713 5.012 3.806 7.694z" fill="#308d57" fill-rule="evenodd" stroke-width=".14173842000000003" />
         <path d="M-1303.478 567.932c.39 1.524.623 2.627 1.256 4.163M-1300.666 566.854c.458 1.05 1.333 2.769 1.71 4.387" fill="none" stroke-width=".130755" />
      </g>
      <g stroke="#000">
         <path d="M-1281.053 573.762c-1.827-1.192.122-8.104-5.078-11.886-.42-.306-.607-.876-.235-1.053 6.115-2.924 12.708-2.038 16.649 2.799.15.183.342.663-.022.758-5.678 1.476-6.342 8.075-8.393 9.888-1.025.3-1.994.086-2.921-.506z" fill="#fff" fill-rule="evenodd" stroke-width=".14173842000000003" />
         <path d="M-1275.772 566.689l-1.903 3.794-3.738-.91-.15-4.26.058-4.296c-.13-2.458.557-1.727 1.06-.18l1.674 5.016.85.123 2.433-3.884c1.878-2.767 2.269-1.905 1.17.904l-1.454 3.693z" fill="#04a" fill-rule="evenodd" stroke-width=".0653775" />
         <path d="M-1277.444 569.666c2.179-3.328 2.77-6.435 7.856-5.506-.026.076-.01.194-.116.221-5.679 1.477-6.342 8.076-8.394 9.888-1.024.3-1.993.087-2.92-.506-1.828-1.191.122-8.103-5.078-11.886-.2-.145-.348-.35-.407-.545 4.183-.332 5.331 4.818 6.065 7.817.669-2.68 1.669-5.368 2.5-8.138.775-2.946 1.108-1.487.95.082-.103 2.9-.093 5.699-.456 8.573z" fill="#308d57" fill-rule="evenodd" stroke-width=".14173842000000003" />
         <path d="M-1280.422 569.111c-.406 1.52-.745 2.596-.946 4.245M-1277.442 569.551c-.116 1.14-.196 3.067-.661 4.662" fill="none" stroke-width=".130755" />
      </g>
      <g fill-rule="evenodd" stroke="#000">
         <path d="M-1862.883 569.609c-4.029 25.341-7.11 41.806-6.892 79.632l2.303-.014c-.218-37.895 2.881-54.216 6.863-79.258l-2.274-.36zM-1873.139 565.07l-2.295.129c.651 28.071-.313 43.297.068 84.042l2.303-.022c-.383-40.896.1-56.023-.076-84.15zM-1887.746 567.842l-2.21.64c7.893 27.176 9.001 36.182 8.834 80.745l2.303.014c.168-44.837-1.106-54.47-8.927-81.399z" fill="#308d57" stroke-width=".23" />
         <path d="M-1862.413 648.324l-2.603-.402c.076-22.954 4.154-44.33 7.503-66.268.228-2.005 1.051-1.415 1.23.07 1.593 14.513 1.321 25.884 2.341 38.822 1.678 7.904 2.162 12.519-1.312 19.234-3.11-7.6-2.955-10.627-1.491-16.743l-.072-31.574c-2.752 18.881-5.665 36.639-5.596 56.861zM-1883.1 648.702l-2.653.373c.403-23.315-3.418-36.11-5.46-54.532l-2.293 25.152c2.32 7.437.466 9.718-2.328 14.929-2.747-6.738-2.613-7.836-.467-14.874l4.244-35.52c-.037-.352.47-.558.619-.061 4.638 21.266 7.947 40.28 8.338 64.533z" fill="#308d57" stroke-width=".129" />
         <path d="M-1890.649 640.506v2.302h32.331v-2.302h-32.33zM-1890.649 634.224v2.302h32.215v-2.302h-32.215z" fill="#308d57" stroke-width=".23" />
         <path d="M-1871.95 556.108c-1.177 10.032-2.718 14.9-5.734-1.202.388-4.099 2.285-4.24 3.327-4.155.88.072 3.445.516 2.408 5.357z" fill="#04a" stroke-width=".15447" />
         <path d="M-1874.08 568.178c-4.327.165-2.257-9.012-5.352-9.995-3.393 2.19-3.118-2.932-.436-3.222 2.24-.242 4.61-1.343 5.625 9.284.714-4.135.837-9.238 4.751-9.23 3.439.008 2.443 5.381-.109 3.387-2.413 1.135-.75 9.81-4.478 9.776z" fill="#308d57" stroke-width=".15447" />
         <path d="M-1888.159 561.384c1.332 10.013 1.039 15.11-5.854.25-.634-4.069 1.169-4.674 2.2-4.848.87-.147 3.465-.35 3.654 4.598z" fill="#04a" stroke-width=".15447" />
         <path d="M-1887.247 573.606c-4.153 1.228-4.41-8.176-7.651-8.366-2.749 2.959-3.745-2.073-1.218-3.015 2.11-.787 4.137-2.438 7.74 7.61-.327-4.183-1.466-9.159 2.33-10.116 3.333-.84 3.694 4.612.728 3.309-2.058 1.695 1.693 9.693-1.929 10.578z" fill="#308d57" stroke-width=".15447" />
         <g>
            <path d="M-1856.839 562.106c-3.893 9.32-6.715 13.576-5.182-2.733 1.502-3.834 3.364-3.449 4.342-3.08.827.312 3.17 1.445.84 5.813z" fill="#04a" stroke-width=".15447" />
            <path d="M-1862.208 573.123c-4.206-1.032.31-9.284-2.395-11.081-3.865 1.17-2.19-3.678.467-3.218 2.22.384 4.802-.022 2.852 10.474 1.825-3.78 3.348-8.65 7.109-7.566 3.303.954.867 5.846-1.037 3.226-2.633.427-3.422 9.225-6.996 8.165z" fill="#308d57" stroke-width=".15447" />
         </g>
      </g>
   </g>
</svg>