<svg width="570" height="600" xmlns="http://www.w3.org/2000/svg">
    <path d="M553.66 597.53c-4.73-2.98-18.97-17.57-27.25-27.94-17.55-21.94-30.58-50.3-37.06-80.7-3.96-18.58-3.32-70.97 1.4-115.03 7.29-68.03 4.08-106.32-11.75-139.83-19.69-41.69-52.31-60.06-124.71-70.2-12.55-1.75-25.44-2.3-55.56-2.33-42.13-.04-48.65.43-117.25 8.5-52.37 6.14-66.71 6.54-76.29 2.07-9.04-4.2-16.97-13.53-20.08-23.57-5.3-17.15-4.64-41.68 1.75-65.61 4.59-17.18 2.21-19.58-14.59-14.77-7.57 2.17-13.85 2.94-24.55 3.02-16.79.11-25.29-2.11-35.03-9.18C1.57 53.88-1.86 44.89 1.79 33.31c7-22.17 47.73-37.24 85.24-31.53 15.82 2.4 26.64 6.25 32.76 11.62 7.02 6.16 8.85 10.72 8.83 21.89-.02 8.38-1.02 12.74-6.95 30.06-6.27 18.32-6.87 21.04-6.32 28.77.65 9.15 4.56 19.58 9.24 24.66 4.44 4.84 12.48 7.95 20.58 7.99 9.27.04 31.46-2.85 65.31-8.48 65.6-10.93 95.67-14.12 133.35-14.15 46.97-.02 86.21 6.78 122.99 21.31 17.64 6.98 29.29 13.95 39.96 23.94 15.04 14.07 27.58 36.32 34.05 60.41 3.35 12.44 3.52 14.61 3.56 44.45.04 28.05-.34 33.79-3.58 54.25-11.12 70.09-13.39 93.8-12.25 127.45.87 25.63 3.55 42.73 11.93 76.13 7.51 29.87 12.21 43.15 21.8 61.54 8.32 15.99 9.13 19.73 5.1 23.77-3.29 3.28-8.65 3.33-13.73.14m7.78-6.58c.42-.66-2.45-7.28-6.36-14.7-9.17-17.48-13.78-30.88-21.63-63.06-10.06-41.11-11.13-49.69-11.13-89.01-.01-32.78.98-46.73 5.2-73.85 9.37-60.13 11.1-75.35 11.1-96.85 0-28.54-4.51-47.94-16.3-70.09-15.01-28.21-34.13-43.18-71.29-55.76-56.76-19.22-113.2-21.85-197.41-9.22-11.85 1.77-31.87 4.95-44.45 7.05-32.55 5.44-52.54 7.87-64.72 7.87-18.93 0-28.89-7.84-34.02-26.77-3.65-13.49-2.21-26.31 5.3-47.08 7.21-20 7.97-27.64 3.45-34.94-3.47-5.61-8.78-9.17-19.36-12.95-10.91-3.88-37.04-4.88-50.3-1.93-30.98 6.9-50.06 27.58-37.64 40.78l2.84 3.02 6.5-3.29c3.57-1.8 7.32-2.97 8.33-2.59 3.07 1.18 2.05 4.52-2.02 6.63-6.09 3.15-5.95 4.47.81 7.54 9.56 4.35 25.86 4.01 42.81-.89 12.09-3.5 13.33-3.63 18.3-1.92 8.04 2.79 8.86 7.82 4.25 25.83-10.95 42.65-5.66 70.31 15.41 80.62 9.44 4.61 16.73 4.47 64.45-1.3 55.28-6.68 76.95-8.52 110.79-9.41 75.08-1.97 133.07 9.25 166.68 32.31 36.37 24.93 54.64 79.9 49.77 149.78-.85 12.13-2.8 33.23-4.32 46.89-3.85 34.16-4.12 86.24-.53 102.58 5.26 23.94 14.81 46.65 28.04 66.64 6.69 10.11 33.16 39.28 35.64 39.28.59 0 1.4-.55 1.81-1.21" />
    <path d="M510.59 304.29c-2.78-3.96-2.56-8.34.58-11.48 5.18-5.18 14.38-1.41 14.38 5.88 0 7.51-10.79 11.55-14.96 5.6m9.67-2.9c2.02-2.45-.53-7.61-3.48-7.02-3.37.66-5.07 4.43-3.09 6.83 2.13 2.56 4.53 2.64 6.57.19M513.21 270.3c-2.79-3.96-2.56-8.34.57-11.48 5.18-5.17 14.39-1.41 14.39 5.89 0 7.5-10.79 11.54-14.96 5.59m9.66-2.9c2.03-2.45-.52-7.61-3.48-7.02-3.37.67-5.07 4.43-3.08 6.84 2.13 2.56 4.52 2.64 6.56.18M504.06 232.39c-2.79-3.96-2.56-8.34.57-11.47 5.18-5.18 14.38-1.42 14.38 5.88 0 7.5-10.78 11.54-14.95 5.59m9.66-2.9c2.03-2.44-.52-7.61-3.48-7.02-3.37.67-5.07 4.43-3.08 6.84 2.13 2.56 4.52 2.64 6.56.18M487.06 195.79c-2.78-3.96-2.56-8.34.58-11.48 5.17-5.17 14.38-1.41 14.38 5.89 0 7.5-10.79 11.54-14.96 5.59m9.66-2.9c2.03-2.45-.52-7.61-3.47-7.02-3.38.67-5.08 4.43-3.09 6.84 2.13 2.56 4.52 2.64 6.56.18M460.92 170.95c-2.79-3.96-2.57-8.34.57-11.47 5.18-5.18 14.38-1.41 14.38 5.88 0 7.5-10.78 11.54-14.95 5.59m9.66-2.9c2.02-2.44-.53-7.61-3.48-7.02-3.37.67-5.07 4.43-3.09 6.84 2.13 2.56 4.53 2.64 6.57.18M144.54 155.27c-4.22-6.03-.52-14.09 6.46-14.09 1.8 0 4.44 1.17 5.88 2.61 1.44 1.44 2.62 4.08 2.62 5.88 0 7.51-10.79 11.55-14.96 5.6m9.66-2.9c2.03-2.45-.52-7.61-3.48-7.02-3.37.66-5.07 4.43-3.08 6.83 2.13 2.57 4.52 2.64 6.56.19M425.62 155.27c-2.79-3.96-2.56-8.34.57-11.48 5.18-5.18 14.38-1.41 14.38 5.88 0 7.51-10.78 11.55-14.95 5.6m9.66-2.9c2.03-2.45-.52-7.61-3.48-7.02-3.37.66-5.07 4.43-3.08 6.83 2.13 2.57 4.52 2.64 6.56.19M185.07 151.35c-4.23-6.03-.53-14.1 6.46-14.1 1.8 0 4.44 1.18 5.88 2.62 1.44 1.44 2.61 4.08 2.61 5.88 0 7.5-10.78 11.54-14.95 5.6m9.66-2.91c2.02-2.44-.52-7.6-3.48-7.02-3.37.67-5.07 4.44-3.08 6.84 2.13 2.56 4.52 2.64 6.56.18M109.24 150.04c-4.22-6.03-.52-14.09 6.46-14.09 1.8 0 4.44 1.17 5.88 2.61 1.44 1.44 2.62 4.08 2.62 5.88 0 7.51-10.79 11.55-14.96 5.6m9.66-2.9c2.03-2.45-.52-7.61-3.47-7.02-3.38.66-5.08 4.43-3.09 6.83 2.13 2.57 4.52 2.64 6.56.19M226.9 144.81c-4.22-6.03-.52-14.09 6.46-14.09 1.8 0 4.45 1.18 5.88 2.61 1.44 1.44 2.62 4.08 2.62 5.89 0 7.5-10.79 11.54-14.96 5.59m9.66-2.9c2.03-2.45-.52-7.61-3.47-7.02-3.38.67-5.08 4.43-3.09 6.84 2.13 2.56 4.52 2.64 6.56.18M387.7 144.81c-2.78-3.96-2.56-8.34.58-11.48 5.18-5.17 14.38-1.41 14.38 5.89 0 7.5-10.78 11.54-14.96 5.59m9.67-2.9c2.02-2.45-.53-7.61-3.48-7.02-3.37.67-5.07 4.43-3.09 6.84 2.13 2.56 4.53 2.64 6.57.18M267.43 139.58c-4.22-6.02-.52-14.09 6.46-14.09 1.8 0 4.44 1.18 5.88 2.61 1.44 1.44 2.62 4.08 2.62 5.89 0 7.5-10.79 11.54-14.96 5.59m9.66-2.9c2.03-2.44-.52-7.61-3.48-7.02-3.37.67-5.07 4.43-3.08 6.84 2.13 2.56 4.52 2.64 6.56.18M345.87 138.27c-2.78-3.96-2.56-8.34.57-11.47 5.18-5.18 14.39-1.41 14.39 5.88 0 7.5-10.79 11.54-14.96 5.59m9.66-2.9c2.03-2.44-.52-7.61-3.48-7.02-3.37.67-5.07 4.43-3.08 6.84 2.13 2.56 4.52 2.64 6.56.18M306.65 136.97c-4.22-6.03-.52-14.09 6.46-14.09 1.8 0 4.44 1.17 5.88 2.61 1.44 1.44 2.62 4.08 2.62 5.88 0 7.51-10.79 11.55-14.96 5.6m9.66-2.9c2.03-2.45-.52-7.61-3.48-7.02-3.37.66-5.07 4.43-3.08 6.83 2.13 2.56 4.52 2.64 6.56.19M35.19 38.01c-5.26-5.28-5.26-11.92 0-17.2 2.84-2.82 5.06-3.82 8.61-3.82 6.64 0 12.42 5.78 12.42 12.42S50.44 41.83 43.8 41.83c-3.55 0-5.77-.99-8.61-3.82m14.49-2.72c1.44-1.43 2.61-4.07 2.61-5.88 0-3.29-4.05-8.49-6.61-8.49-.77 0-.49 1.28.65 2.9 1.13 1.59 2.04 4.11 2.04 5.59 0 1.48-.91 4-2.04 5.6-2.53 3.62-.19 3.83 3.35.28" />
    <path fill="#fca022" d="M544.94 578.04c-25.38-26.26-41.03-55.6-48.99-91.8-3.59-16.34-3.32-68.42.53-102.58 6.38-56.72 6.57-85.52.77-116.25-6.83-36.13-23.21-64.64-46.22-80.42-33.61-23.06-91.6-34.28-166.68-32.31-33.84.89-55.51 2.73-110.79 9.41-47.72 5.77-55.01 5.91-64.45 1.3-21.07-10.31-26.36-37.97-15.41-80.62 4.61-18.01 3.79-23.04-4.25-25.83-4.97-1.71-6.21-1.58-18.3 1.92-16.95 4.9-33.25 5.24-42.81.89-6.76-3.07-6.9-4.39-.81-7.54 4.07-2.11 5.09-5.45 2.02-6.63-1.01-.38-4.76.79-8.33 2.59l-6.5 3.29-2.84-3.02C-.6 37.16 18.92 16.22 49.9 9.63c13.36-2.85 39.3-1.81 49.92 1.96 10.58 3.78 15.89 7.34 19.36 12.95 4.52 7.3 3.76 14.94-3.45 34.94-7.51 20.77-8.95 33.59-5.3 47.08 5.13 18.93 15.09 26.77 34.02 26.77 12.18 0 32.17-2.43 64.72-7.87 12.58-2.1 32.6-5.28 44.45-7.05 84.21-12.63 140.65-10 197.41 9.22 37.16 12.58 56.28 27.55 71.29 55.76 11.79 22.15 16.3 41.55 16.3 70.09 0 21.5-1.73 36.72-11.1 96.85-4.22 27.12-5.21 41.07-5.2 73.85 0 39.32 1.07 47.9 11.13 89.01 7.85 32.18 12.46 45.58 21.63 63.06 6.49 12.31 7.51 15.91 4.55 15.91-.57 0-7.19-6.36-14.69-14.12m-22-273.46c5.17-5.18 1.41-14.38-5.89-14.38-4.08 0-8.49 4.26-8.49 8.21 0 7.85 8.87 11.67 14.38 6.17m2.61-33.99c5.18-5.18 1.41-14.38-5.88-14.38-4.08 0-8.5 4.26-8.5 8.21 0 7.85 8.88 11.67 14.38 6.17m-9.15-37.91c5.18-5.18 1.41-14.38-5.88-14.38-4.08 0-8.5 4.26-8.5 8.21 0 7.86 8.88 11.67 14.38 6.17m-17-36.6c5.18-5.18 1.42-14.38-5.88-14.38-4.08 0-8.5 4.26-8.5 8.21 0 7.85 8.88 11.67 14.38 6.17m-26.14-24.84c5.17-5.17 1.41-14.38-5.89-14.38-4.08 0-8.49 4.26-8.49 8.21 0 7.86 8.87 11.68 14.38 6.17m-316.38-15.68c1.44-1.44 2.62-4.08 2.62-5.89 0-1.8-1.18-4.44-2.62-5.88-7.56-7.55-18.54 2.64-12.34 11.48 2.59 3.7 8.78 3.84 12.34.29m281.08 0c5.18-5.18 1.41-14.38-5.88-14.38-4.08 0-8.5 4.26-8.5 8.21 0 7.85 8.87 11.67 14.38 6.17m-240.55-3.93c1.44-1.43 2.61-4.07 2.61-5.88 0-1.8-1.17-4.44-2.61-5.88-7.56-7.56-18.54 2.64-12.34 11.48 2.59 3.7 8.78 3.84 12.34.28m-75.83-1.3c1.44-1.44 2.62-4.08 2.62-5.89 0-1.8-1.18-4.44-2.62-5.88-7.55-7.55-18.54 2.64-12.34 11.48 2.59 3.7 8.79 3.84 12.34.29m117.66-5.23c1.44-1.44 2.62-4.08 2.62-5.88 0-1.81-1.18-4.45-2.62-5.89-7.55-7.55-18.53 2.64-12.34 11.48 2.59 3.7 8.79 3.84 12.34.29m160.81 0c5.17-5.18 1.41-14.38-5.89-14.38-4.08 0-8.49 4.26-8.49 8.21 0 7.85 8.87 11.67 14.38 6.17m-120.28-5.23c1.44-1.44 2.62-4.08 2.62-5.88 0-1.81-1.18-4.45-2.62-5.89-7.56-7.55-18.54 2.65-12.34 11.48 2.59 3.7 8.78 3.84 12.34.29m78.44-1.31c5.18-5.17 1.41-14.38-5.88-14.38-4.08 0-8.5 4.26-8.5 8.21 0 7.86 8.88 11.68 14.38 6.17m-39.22-1.31c1.44-1.43 2.62-4.07 2.62-5.88 0-1.8-1.18-4.44-2.62-5.88-7.56-7.56-18.54 2.64-12.34 11.48 2.59 3.7 8.78 3.84 12.34.28M52.4 38.01c2.82-2.83 3.82-5.06 3.82-8.6 0-6.64-5.78-12.42-12.42-12.42-6.65 0-12.42 5.78-12.42 12.42s5.77 12.42 12.42 12.42c3.54 0 5.76-.99 8.6-3.82" />
    <path fill="#eb2e00" d="M46.79 34.05c1.86-3.25 1.96-4.51.61-8.08-2-5.28-1.34-6.06 2.17-2.55 3.44 3.44 3.49 8.49.11 11.87-3.86 3.86-5.43 3.18-2.89-1.24" />
    <path fill="#644221" d="M513.69 301.2c-1.98-2.4-.28-6.17 3.09-6.83 2.95-.59 5.5 4.57 3.48 7.02-2.04 2.45-4.44 2.37-6.57-.19M516.31 267.22c-1.99-2.41-.29-6.17 3.08-6.84 2.96-.59 5.51 4.57 3.48 7.02-2.04 2.46-4.43 2.38-6.56-.18M507.16 229.31c-1.99-2.41-.29-6.17 3.08-6.84 2.96-.59 5.51 4.58 3.48 7.02-2.04 2.46-4.43 2.38-6.56-.18M490.16 192.71c-1.99-2.41-.29-6.17 3.09-6.84 2.95-.59 5.5 4.57 3.47 7.02-2.04 2.46-4.43 2.38-6.56-.18M464.01 167.87c-1.98-2.41-.28-6.17 3.09-6.84 2.95-.59 5.5 4.58 3.48 7.02-2.04 2.46-4.44 2.38-6.57-.18M147.64 152.18c-1.99-2.4-.29-6.17 3.08-6.83 2.96-.59 5.51 4.57 3.48 7.02-2.04 2.45-4.43 2.38-6.56-.19M428.72 152.18c-1.99-2.4-.29-6.17 3.08-6.83 2.96-.59 5.51 4.57 3.48 7.02-2.04 2.45-4.43 2.38-6.56-.19M188.17 148.26c-1.99-2.4-.29-6.17 3.08-6.84 2.96-.58 5.5 4.58 3.48 7.02-2.04 2.46-4.43 2.38-6.56-.18M112.34 146.95c-1.99-2.4-.29-6.17 3.09-6.83 2.95-.59 5.5 4.57 3.47 7.02-2.04 2.45-4.43 2.38-6.56-.19M230 141.73c-1.99-2.41-.29-6.17 3.09-6.84 2.95-.59 5.5 4.57 3.47 7.02-2.04 2.46-4.43 2.38-6.56-.18M390.8 141.73c-1.98-2.41-.28-6.17 3.09-6.84 2.95-.59 5.5 4.57 3.48 7.02-2.04 2.46-4.44 2.38-6.57-.18M270.53 136.5c-1.99-2.41-.29-6.17 3.08-6.84 2.96-.59 5.51 4.58 3.48 7.02-2.04 2.46-4.43 2.38-6.56-.18M348.97 135.19c-1.99-2.41-.29-6.17 3.08-6.84 2.96-.59 5.51 4.58 3.48 7.02-2.04 2.46-4.43 2.38-6.56-.18M310.1 134.38c-2.29-2.29-1.92-4.69.96-6.22 3.42-1.83 3.7-1.77 5.36 1.33 2.47 4.61-2.65 8.56-6.32 4.89" />
</svg>