<svg xmlns="http://www.w3.org/2000/svg" xmlns:xlink="http://www.w3.org/1999/xlink" width="1024" height="1024" viewBox="0 0 256 256">
  <defs>
    <symbol overflow="visible" id="prefix__b">
      <path d="M3.031-6.984l-1.484-.157L.797.08l4.937.515.125-1.25-3.453-.36.625-5.968zm0 0" />
    </symbol>
    <symbol overflow="visible" id="prefix__c">
      <path d="M5.36.578l.577-5.36-1.375-.14-.359 3.36c-.078.64-.562.984-1.234.921-.61-.062-.875-.421-.813-1.046l.375-3.454-1.375-.156L.75-1.563C.625-.39 1.203.375 2.328.485c.735.079 1.25-.14 1.719-.687l-.063.64L5.36.579zm0 0" />
    </symbol>
    <symbol overflow="visible" id="prefix__d">
      <path d="M2.61-5.11l-1.376-.156-.921 7.5 1.375.157.343-2.797c.266.64.719.984 1.375 1.062C4.703.812 5.796-.28 5.984-1.89c.11-.75-.03-1.53-.312-2.078C5.375-4.516 4.75-4.922 4.109-5c-.656-.078-1.171.14-1.593.688l.093-.797zm1.046 1.22c.703.078 1.078.828.953 1.843C4.5-1.062 3.922-.453 3.234-.53c-.687-.094-1.078-.828-.968-1.828.125-1 .703-1.625 1.39-1.532zm0 0" />
    </symbol>
    <symbol overflow="visible" id="prefix__e">
      <path d="M5.344.719l.718-5.344-1.375-.188-.453 3.344c-.078.64-.593 1-1.265.907-.594-.079-.844-.438-.766-1.079l.469-3.437-1.375-.188-.5 3.72C.64-.376 1.187.39 2.328.546 3.047.64 3.563.437 4.047-.11l-.078.64 1.375.19zm0 0" />
    </symbol>
    <symbol overflow="visible" id="prefix__f">
      <path d="M5.484-2.938c.141-1.109-.625-1.921-2.078-2.109-1.344-.187-2.265.375-2.422 1.469-.046.36.016.672.172.922.157.203.313.328.813.547l1.562.75c.344.156.438.28.406.5-.046.328-.437.468-1.093.375-.344-.047-.625-.157-.797-.297-.125-.125-.172-.25-.188-.531L.516-1.5C.375-.344 1.156.406 2.766.625c.75.094 1.328 0 1.765-.25.438-.266.75-.719.828-1.25.094-.703-.203-1.172-.859-1.484l-1.688-.735c-.374-.187-.453-.281-.421-.5.046-.281.375-.437.859-.36.656.079.953.345.906.829l1.328.188zm0 0" />
    </symbol>
    <symbol overflow="visible" id="prefix__g">
      <path d="M6.188-4.89c.015-.673-.11-1.11-.47-1.516-.484-.547-1.265-.875-2.312-.89-1.75-.048-2.781.75-2.812 2.155-.031 1.125.515 1.688 2 2l1 .235c.984.219 1.344.5 1.328 1.094-.016.609-.578.953-1.484.937-1.016-.031-1.579-.469-1.594-1.25L.375-2.156C.422-.61 1.469.28 3.328.328c1.875.047 3-.797 3.047-2.281C6.406-3.093 5.844-3.72 4.5-4l-1.125-.25c-1.063-.25-1.375-.469-1.36-1 .016-.547.516-.875 1.282-.86.953.032 1.469.438 1.5 1.188l1.39.031zm0 0" />
    </symbol>
    <symbol overflow="visible" id="prefix__h">
      <path d="M5.313-3.219C5.25-4.53 4.405-5.344 3.046-5.375 1.453-5.438.484-4.406.422-2.562.375-.798 1.266.265 2.859.328c1.313.031 2.235-.75 2.407-2.031l-1.329-.031c-.218.671-.5.953-1.03.937-.72-.031-1.126-.687-1.095-1.734.016-.516.125-.969.313-1.297.156-.297.469-.438.875-.422.563.016.828.281.984 1l1.329.031zm0 0" />
    </symbol>
    <symbol overflow="visible" id="prefix__i">
      <path d="M3.203-5.36C1.563-5.421.5-4.374.438-2.61.374-.827 1.344.282 3 .345c1.625.062 2.703-1 2.766-2.719.062-1.828-.875-2.922-2.563-2.984zm-.031 1.126c.765.03 1.25.734 1.203 1.78C4.344-1.436 3.797-.75 3.047-.78c-.766-.031-1.235-.75-1.203-1.781.047-1.032.562-1.704 1.328-1.672zm0 0" />
    </symbol>
    <symbol overflow="visible" id="prefix__j">
      <path d="M.875-5.36L.625.032l1.406.063.14-2.86c.032-.812.454-1.218 1.267-1.171.156 0 .25.015.437.062l.063-1.422c-.079 0-.126 0-.172-.016-.641-.015-1.204.375-1.532 1.079l.047-1.063-1.406-.062zm0 0" />
    </symbol>
    <symbol overflow="visible" id="prefix__k">
      <path d="M2.281-5.266l-1.39-.078-.438 7.547 1.39.078L2-.53c.313.625.781.937 1.453.969C4.734.515 5.766-.641 5.86-2.267c.047-.765-.125-1.53-.453-2.046a2.142 2.142 0 00-1.61-.938c-.671-.031-1.171.219-1.562.797l.047-.813zm1.125 1.141c.703.047 1.14.75 1.078 1.781-.062.985-.593 1.656-1.28 1.61C2.5-.781 2.061-1.5 2.124-2.5c.063-1.016.578-1.672 1.281-1.625zm0 0" />
    </symbol>
    <symbol overflow="visible" id="prefix__l">
      <path d="M2.422-5.234l-1.39-.094L.671.047l1.39.094.36-5.375zm.11-1.875L1.14-7.203l-.079 1.25 1.391.094.078-1.25zm0 0" />
    </symbol>
    <symbol overflow="visible" id="prefix__m">
      <path d="M5.375.36l.36-5.376-1.391-.093-.219 3.359c-.047.64-.531 1.031-1.188.984-.609-.03-.874-.375-.843-1.015l.234-3.453-1.39-.094-.25 3.734C.609-.406 1.218.313 2.359.391c.735.062 1.22-.188 1.672-.766l-.047.64L5.375.36zm0 0" />
    </symbol>
    <symbol overflow="visible" id="prefix__n">
      <path d="M5.281-3.281c.063-1.125-.765-1.875-2.203-1.985-1.36-.093-2.25.532-2.328 1.641-.031.36.063.656.234.89.172.188.329.297.844.5l1.594.641c.36.14.453.25.437.469-.015.328-.406.5-1.046.453-.36-.031-.641-.11-.813-.25-.14-.125-.188-.234-.234-.515l-1.36-.11C.36-.375 1.187.313 2.812.437 3.547.484 4.125.36 4.548.079c.422-.281.703-.765.734-1.297.047-.703-.281-1.172-.968-1.437l-1.704-.61c-.39-.156-.468-.234-.453-.453.016-.297.344-.484.844-.453.64.047.953.313.938.797l1.343.094zm0 0" />
    </symbol>
    <symbol overflow="visible" id="prefix__o">
      <path d="M4.938-1.672l.53 1.438 1.548-.063-2.813-7.156-1.656.062L.266-.016 1.78-.078l.422-1.484 2.735-.11zm-.47-1.234l-1.89.078.828-2.875L4.47-2.906zm0 0" />
    </symbol>
    <symbol overflow="visible" id="prefix__p">
      <path d="M.484-5.406l.141 5.39 1.406-.046-.078-2.86c-.016-.812.375-1.234 1.188-1.265.156 0 .25.015.437.046l-.031-1.421h-.172c-.64.015-1.188.453-1.469 1.171l-.015-1.062-1.407.047zm0 0" />
    </symbol>
    <symbol overflow="visible" id="prefix__q">
      <path d="M5.219-.266c-.25-.218-.328-.359-.328-.64l-.047-2.985C4.828-5 4.062-5.547 2.609-5.516 1.156-5.484.406-4.875.344-3.609l1.344-.032c.046-.562.28-.734.968-.75.531-.015.797.157.813.516 0 .188-.078.344-.235.422-.187.11-.187.11-.875.219l-.546.125C.75-2.922.234-2.36.25-1.391c.016.47.14.844.406 1.094.313.328.781.5 1.25.5.61-.016 1.157-.281 1.625-.797.016.266.047.375.172.531l1.516-.03v-.173zM3.5-2.219c0 .797-.375 1.281-1.078 1.281-.469.016-.766-.234-.781-.64 0-.422.218-.61.78-.75l.485-.094c.36-.078.422-.11.578-.187l.016.39zm0 0" />
    </symbol>
    <symbol overflow="visible" id="prefix__r">
      <path d="M5.281-5.86c-.11-.656-.297-1.062-.718-1.421C4-7.72 3.155-7.906 2.124-7.766.39-7.516-.47-6.562-.266-5.172c.156 1.125.78 1.578 2.28 1.64l1.047.063c1 .047 1.407.281 1.5.86.079.609-.437 1.046-1.328 1.171-1.015.141-1.625-.187-1.78-.968L0-2.203C.313-.688 1.484.03 3.328-.234 5.188-.5 6.156-1.531 5.953-3c-.156-1.125-.828-1.656-2.187-1.703L2.609-4.75c-1.078-.078-1.421-.234-1.5-.766-.078-.53.344-.937 1.11-1.046.937-.141 1.531.171 1.687.906l1.375-.203zm0 0" />
    </symbol>
    <symbol overflow="visible" id="prefix__s">
      <path d="M3.344-5.86l.11.813c-.5-.562-1-.781-1.595-.703C.58-5.594-.203-4.25.016-2.594.234-.938 1.234.078 2.562-.094c.61-.078.954-.312 1.407-.969l.078.72C4.14.311 3.719.811 3.016.89c-.5.078-.891-.094-1.063-.5L.531.578c.063.406.266.688.656.938.454.28 1.079.39 1.907.28C4.704 1.579 5.53.75 5.359-.515L4.656-6.03l-1.312.172zM2.297-4.655c.687-.078 1.312.578 1.437 1.562.125.969-.312 1.703-1.046 1.797-.641.078-1.172-.516-1.297-1.484-.125-1 .234-1.781.906-1.875zm0 0" />
    </symbol>
    <symbol overflow="visible" id="prefix__t">
      <path d="M-.047-5.422L.625-.078l1.39-.172-.359-2.844c-.093-.797.25-1.265 1.047-1.375.156-.015.25-.015.453 0L2.97-5.875c-.078 0-.125.016-.172.016-.625.078-1.11.562-1.313 1.312l-.14-1.047-1.39.172zm0 0" />
    </symbol>
    <symbol overflow="visible" id="prefix__u">
      <path d="M5.61-6.156c-.188-.61-.391-.953-.782-1.297-.719-.61-1.656-.813-2.734-.578-2 .437-2.938 2.156-2.438 4.453.5 2.281 2.047 3.453 4.032 3.015C5.452-.953 6.405-2.234 6.14-3.89l-1.422.313c.11.922-.36 1.578-1.266 1.765-1.125.25-1.984-.53-2.328-2.078-.344-1.562.14-2.64 1.281-2.89.531-.125.985-.032 1.313.25.203.156.328.343.5.672l1.39-.297zm0 0" />
    </symbol>
    <symbol overflow="visible" id="prefix__v">
      <path d="M-.484-5.406L.609-.125l1.375-.281-.578-2.797c-.172-.797.157-1.313.953-1.469.141-.031.235-.047.422-.047L2.5-6.109c-.078.015-.125.03-.172.03-.625.141-1.078.673-1.219 1.438L.891-5.687l-1.375.28zm0 0" />
    </symbol>
    <symbol overflow="visible" id="prefix__w">
      <path d="M4.61-2.422l.75 1.344 1.515-.297-3.906-6.64-1.625.328L.266-.048 1.75-.344l.172-1.547 2.687-.53zm-.657-1.156l-1.844.375.36-2.953 1.484 2.578zm0 0" />
    </symbol>
    <symbol overflow="visible" id="prefix__x">
      <path d="M5.078.281l1.5.094.406-7.25-1.5-.094-.28 4.922-2.579-5.078-1.547-.094L.672.031l1.5.094.281-5.016L5.078.281zm0 0" />
    </symbol>
    <symbol overflow="visible" id="prefix__y">
      <path d="M3.344-5.266C1.704-5.375.609-4.359.5-2.609.39-.83 1.344.312 3 .42c1.61.095 2.703-.937 2.813-2.655.109-1.813-.797-2.922-2.47-3.032zM3.28-4.14c.766.047 1.203.75 1.14 1.797-.062 1.016-.593 1.688-1.343 1.64-.765-.046-1.234-.78-1.172-1.812.063-1.03.61-1.671 1.375-1.625zm0 0" />
    </symbol>
    <symbol overflow="visible" id="prefix__z">
      <path d="M1.016-5.328L.625.047 2.031.14l.203-2.86c.063-.797.5-1.187 1.297-1.125a2.6 2.6 0 01.438.078l.094-1.421c-.079 0-.125 0-.172-.016-.625-.047-1.204.344-1.547 1.031l.078-1.062-1.406-.094zm0 0" />
    </symbol>
    <symbol overflow="visible" id="prefix__A">
      <path d="M1.063-5.328L.593.047 2 .172l.281-3.219c.063-.656.438-1.015 1.031-.953.47.031.735.328.688.75L3.687.328l1.407.125.281-3.219c.063-.656.453-1.015 1.031-.968.469.046.735.328.688.75L6.78.594l1.407.125.328-3.797c.093-1.047-.485-1.703-1.563-1.797-.656-.063-1.172.125-1.64.656-.204-.547-.72-.875-1.391-.937-.61-.047-1.031.125-1.516.625l.047-.672-1.39-.125zm0 0" />
    </symbol>
    <symbol overflow="visible" id="prefix__B">
      <path d="M5.219.313c-.235-.25-.282-.407-.25-.688l.281-2.969c.11-1.11-.594-1.703-2.047-1.844C1.766-5.313.938-4.796.75-3.563l1.344.141c.094-.562.344-.719 1.031-.656.531.062.781.25.75.61-.016.187-.11.343-.281.405-.188.079-.188.079-.89.126l-.563.046C1.062-2.812.5-2.312.406-1.359c-.031.468.047.843.281 1.14.282.36.735.594 1.188.625.61.063 1.172-.156 1.703-.61-.015.266 0 .391.11.548l1.515.14.016-.171zm-1.5-2.126C3.64-1.03 3.203-.593 2.5-.655c-.469-.047-.719-.328-.688-.735.047-.406.266-.578.86-.64l.484-.047c.375-.031.438-.063.594-.125l-.031.39zm0 0" />
    </symbol>
    <symbol overflow="visible" id="prefix__C">
      <path d="M3-7l-1.484-.156L.796.078l4.938.5.125-1.25-3.453-.344L3-7zm0 0" />
    </symbol>
    <symbol overflow="visible" id="prefix__D">
      <path d="M2.594-5.156l-1.375-.14L.672.062l1.375.14.547-5.36zm.187-1.875l-1.375-.14-.125 1.25 1.375.14.125-1.25zm0 0" />
    </symbol>
    <symbol overflow="visible" id="prefix__E">
      <path d="M1.36-7.156L.593.062l1.375.141.062-.547c.281.578.719.875 1.39.953C4.689.734 5.814-.39 5.985-2c.079-.719-.062-1.5-.375-2.031a2.028 2.028 0 00-1.578-1.032c-.672-.078-1.172.125-1.562.61l.265-2.563-1.375-.14zm2.234 3.203c.687.078 1.094.812 1 1.812-.11.97-.672 1.61-1.36 1.532-.703-.063-1.093-.782-.984-1.813.11-.984.656-1.594 1.344-1.531zm0 0" />
    </symbol>
    <symbol overflow="visible" id="prefix__F">
      <path d="M1.234-5.281L.625.079l1.39.155.329-2.843c.094-.797.547-1.172 1.36-1.094.155.031.233.047.405.11l.157-1.423c-.063-.015-.11-.015-.157-.03-.64-.063-1.234.296-1.609.984l.125-1.063-1.39-.156zm0 0" />
    </symbol>
    <symbol overflow="visible" id="prefix__G">
      <path d="M5.203.422c-.219-.25-.266-.406-.234-.688l.343-2.953c.125-1.11-.562-1.734-2-1.906-1.453-.172-2.265.36-2.484 1.594l1.328.156c.125-.563.375-.703 1.063-.625.531.063.781.266.734.625A.426.426 0 013.672-3c-.203.078-.203.078-.906.11l-.563.046c-1.078.047-1.656.531-1.765 1.5-.047.453.03.844.25 1.14.28.36.703.61 1.171.657.61.063 1.188-.125 1.72-.578-.032.266-.017.375.093.547l1.515.172.016-.172zM3.766-1.734C3.672-.938 3.234-.531 2.53-.61c-.469-.063-.75-.344-.703-.735.047-.422.297-.578.89-.64l.485-.032c.375-.03.438-.046.61-.109l-.047.39zm0 0" />
    </symbol>
    <symbol overflow="visible" id="prefix__H">
      <path d="M3.688-7.5c-1.016.031-1.844.39-2.438 1.094-.64.703-.969 1.718-.938 2.812.032 1.078.407 2.11 1.094 2.781.64.657 1.453.97 2.485.938C4.937.094 5.75-.25 6.359-.953c.61-.688.97-1.75.938-2.781-.031-1.141-.422-2.141-1.094-2.813-.656-.672-1.469-.984-2.516-.953zm.03 1.281c1.235-.031 2.048.953 2.095 2.532.03 1.484-.75 2.5-1.954 2.53-1.203.032-2.03-.937-2.062-2.468-.047-1.531.719-2.563 1.922-2.594zm0 0" />
    </symbol>
    <symbol overflow="visible" id="prefix__I">
      <path d="M1.844-5.438l-1.39.032.171 7.562 1.39-.031-.062-2.813c.36.579.844.86 1.516.844C4.766.125 5.688-1.125 5.656-2.75c-.015-.766-.25-1.516-.625-2-.375-.5-1.062-.813-1.703-.797-.672.016-1.14.297-1.469.922l-.015-.813zM3.047-4.39c.703-.015 1.187.657 1.219 1.688C4.28-1.72 3.828-1.016 3.14-1c-.704.016-1.22-.656-1.235-1.656-.031-1.016.438-1.719 1.14-1.735zm0 0" />
    </symbol>
    <symbol overflow="visible" id="prefix__J">
      <path d="M.531-7.281l.14 7.265 1.391-.03L2-3.282c-.016-.61.422-1.047 1.047-1.063.297 0 .547.094.719.313.109.172.156.312.171.656L4-.078 5.39-.11l-.077-3.61c-.016-.672-.188-1.14-.579-1.437-.312-.266-.75-.39-1.203-.39-.687.015-1.187.312-1.562.89l-.047-2.657-1.39.032zm0 0" />
    </symbol>
    <symbol overflow="visible" id="prefix__K">
      <path d="M1.969-5.422l-1.39.016.093 5.39 1.39-.015-.093-5.39zm-.032-1.875l-1.39.016.031 1.25 1.39-.016-.03-1.25zm0 0" />
    </symbol>
    <symbol overflow="visible" id="prefix__L">
      <path d="M5.39-.047l-.046-5.39-1.39.015.03 3.375c0 .64-.453 1.063-1.125 1.063-.609.015-.906-.313-.906-.954l-.031-3.468-1.39.015.03 3.75C.579-.453 1.235.22 2.375.22 3.109.203 3.594-.078 4-.671v.64l1.39-.016zm0 0" />
    </symbol>
    <symbol overflow="visible" id="prefix__M">
      <path d="M5.219-3.36c-.094-1.312-.953-2.093-2.313-2.093C1.312-5.47.36-4.422.36-2.578.344-.813 1.266.234 2.86.25c1.313 0 2.22-.813 2.36-2.094H3.89c-.204.688-.485.969-1.016.969-.719 0-1.14-.656-1.125-1.703 0-.516.094-.969.266-1.297.156-.297.468-.453.875-.453.562 0 .828.266 1 .969h1.328zm0 0" />
    </symbol>
    <symbol overflow="visible" id="prefix__N">
      <path d="M.734-7.266L.672 0l1.39.016.032-3.235c0-.61.453-1.047 1.078-1.031.297 0 .531.11.703.328.11.172.156.313.156.656L4 .031l1.39.016.032-3.61c0-.671-.172-1.14-.531-1.468-.313-.266-.75-.407-1.204-.407-.687-.015-1.187.266-1.593.844l.031-2.656-1.39-.016zm0 0" />
    </symbol>
    <symbol overflow="visible" id="prefix__O">
      <path d="M5.39.063l.063-5.391-1.39-.016-.047 3.375c0 .64-.454 1.063-1.125 1.047-.61 0-.907-.344-.907-.984l.047-3.469-1.39-.016-.047 3.75C.578-.453 1.234.25 2.375.266 3.109.266 3.594 0 4-.594v.64l1.39.017zm0 0" />
    </symbol>
    <symbol overflow="visible" id="prefix__P">
      <path d="M5.078-3.594c0-1.125-.86-1.812-2.312-1.844C1.406-5.452.546-4.78.53-3.671c0 .36.11.672.281.89.188.188.36.282.875.438l1.657.563c.36.11.453.218.453.437 0 .328-.375.516-1.031.5-.36 0-.641-.062-.829-.187-.14-.11-.203-.219-.265-.516l-1.36-.016C.329-.39 1.204.25 2.829.282c.75 0 1.313-.156 1.719-.469.406-.312.656-.796.656-1.328.016-.703-.344-1.156-1.031-1.375l-1.766-.53c-.39-.126-.484-.204-.484-.423.016-.297.328-.5.828-.5.656.016.984.25.984.735l1.344.015zm0 0" />
    </symbol>
    <symbol overflow="visible" id="prefix__Q">
      <path d="M5.563-5.563c-.063-.671-.235-1.093-.61-1.468-.547-.485-1.375-.703-2.422-.61C.797-7.484-.125-6.578 0-5.187c.094 1.125.703 1.625 2.203 1.78l1.031.11c1 .094 1.407.344 1.454.922.046.61-.485 1.016-1.391 1.11-1.016.077-1.594-.282-1.703-1.048l-1.469.126C.344-.657 1.485.108 3.328-.063c1.875-.171 2.89-1.14 2.766-2.609C5.984-3.812 5.375-4.375 4-4.5l-1.156-.125c-1.078-.11-1.39-.297-1.438-.828-.047-.547.39-.906 1.157-.984.953-.079 1.515.25 1.624.984l1.375-.11zm0 0" />
    </symbol>
    <symbol overflow="visible" id="prefix__R">
      <path d="M5.016-2.688c0-.124 0-.171-.016-.25a4.665 4.665 0 00-.328-1.39c-.438-.953-1.36-1.453-2.438-1.36C.704-5.546-.156-4.359 0-2.546.14-.844 1.172.141 2.688 0 3.89-.11 4.796-.875 5.03-1.969l-1.375.125c-.14.438-.515.719-1.015.766-.407.031-.72-.094-.938-.39-.14-.173-.219-.423-.281-.907l3.594-.313zm-3.657-.624c.016-.829.344-1.25.938-1.313.36-.031.687.11.906.375.14.188.219.39.281.75l-2.125.188zm0 0" />
    </symbol>
    <symbol overflow="visible" id="prefix__S">
      <path d="M.172-5.422L.625-.047l1.406-.125-.234-2.844c-.078-.812.281-1.265 1.094-1.328.156-.015.25-.015.437 0l-.11-1.422c-.077.016-.124.016-.171.016-.64.063-1.156.531-1.375 1.266l-.094-1.063-1.406.125zm0 0" />
    </symbol>
    <symbol overflow="visible" id="prefix__T">
      <path d="M1.547-5.531l-1.39.11.593 7.546 1.39-.11-.218-2.812c.39.578.875.813 1.547.766 1.297-.11 2.156-1.39 2.031-3.016-.063-.75-.328-1.484-.734-1.953-.391-.5-1.094-.766-1.735-.719-.672.047-1.125.375-1.422 1l-.062-.812zm1.266.984c.703-.047 1.218.61 1.296 1.625.079.985-.359 1.703-1.046 1.75-.688.063-1.22-.594-1.297-1.594-.079-1 .359-1.718 1.046-1.78zm0 0" />
    </symbol>
    <symbol overflow="visible" id="prefix__U">
      <path d="M5.047-2.61a.66.66 0 000-.25c-.031-.53-.14-1-.297-1.374-.422-.954-1.344-1.47-2.406-1.407C.797-5.53-.078-4.359.047-2.562.157-.845 1.172.155 2.703.046c1.188-.078 2.11-.828 2.344-1.906l-1.375.093c-.14.422-.5.704-1 .735-.406.031-.719-.11-.953-.407-.125-.171-.203-.421-.266-.921l3.594-.25zm-3.625-.687c.031-.797.36-1.234.969-1.281.359-.016.687.125.89.406.14.172.219.39.266.734l-2.125.141zm0 0" />
    </symbol>
    <symbol overflow="visible" id="prefix__V">
      <path d="M.281-5.422L.625-.047l1.406-.078-.203-3.234c-.047-.625.375-1.063 1.063-1.11.593-.031.89.282.937.907L4.031-.25l1.39-.094-.234-3.61c-.062-1.171-.765-1.796-1.89-1.733-.735.046-1.203.343-1.563.968L1.688-5.5.28-5.422zm0 0" />
    </symbol>
    <symbol overflow="visible" id="prefix__W">
      <path d="M4.797-3.969c-.094-1.11-1.016-1.734-2.453-1.656-1.36.094-2.156.828-2.078 1.922.015.36.14.656.343.86.204.171.375.265.907.374l1.687.438c.36.094.485.187.5.406.016.328-.344.547-1 .578-.36.031-.656-.016-.844-.14-.156-.094-.218-.204-.296-.485l-1.36.094C.297-.406 1.22.156 2.843.062c.75-.046 1.282-.25 1.673-.593a1.71 1.71 0 00.562-1.375c-.047-.703-.437-1.125-1.156-1.297l-1.781-.39c-.391-.11-.485-.173-.5-.391-.016-.282.28-.516.78-.547.657-.032 1 .187 1.048.64l1.328-.078zm0 0" />
    </symbol>
    <symbol overflow="visible" id="prefix__X">
      <path d="M3.266 0l1.421-4.266V0h.61v-5.078h-.89L2.921-.656l-1.5-4.422H.516V0h.625v-4.266L2.578 0h.688zm0 0" />
    </symbol>
    <symbol overflow="visible" id="prefix__ad">
      <path d="M4.5-5.078h-.61v4.156L1.235-5.078H.531V0h.61v-4.125L3.766 0H4.5v-5.078zm0 0" />
    </symbol>
    <symbol overflow="visible" id="prefix__ae">
      <path d="M4.938-2.688h-2.11v.579h1.547v.14c0 .907-.672 1.563-1.594 1.563-.515 0-.984-.188-1.297-.516-.328-.375-.53-.969-.53-1.594 0-1.25.718-2.078 1.78-2.078.782 0 1.329.407 1.47 1.047h.671c-.188-1.031-.969-1.61-2.125-1.61-.625 0-1.125.157-1.531.485C.64-4.188.312-3.406.312-2.484c0 1.562.954 2.64 2.329 2.64.687 0 1.234-.25 1.734-.797l.156.672h.407v-2.719zm0 0" />
    </symbol>
    <symbol overflow="visible" id="prefix__af">
      <path d="M4.61-3.5c-.204-1.125-.844-1.656-1.954-1.656-.687 0-1.234.203-1.61.625-.468.5-.718 1.234-.718 2.047 0 .843.266 1.562.75 2.046.39.407.89.594 1.547.594 1.25 0 1.938-.672 2.094-2.015h-.672c-.047.359-.125.593-.234.796-.204.422-.641.657-1.172.657C1.625-.406.984-1.22.984-2.484c0-1.313.61-2.11 1.594-2.11.406 0 .797.125 1 .328.188.172.297.391.375.766h.656zm0 0" />
    </symbol>
    <symbol overflow="visible" id="prefix__Y">
      <path d="M3.11-2.969c.593-.36.78-.64.78-1.172 0-.89-.687-1.515-1.703-1.515-1 0-1.687.625-1.687 1.515 0 .516.188.813.766 1.172-.657.313-.97.781-.97 1.406 0 1.032.782 1.75 1.891 1.75 1.126 0 1.907-.718 1.907-1.75 0-.625-.328-1.093-.985-1.406zM2.187-5.03c.593 0 .984.36.984.906 0 .516-.39.875-.985.875-.578 0-.968-.36-.968-.89 0-.532.39-.891.968-.891zm0 2.375c.703 0 1.187.437 1.187 1.11 0 .655-.484 1.109-1.203 1.109-.688 0-1.156-.454-1.156-1.11 0-.672.468-1.11 1.171-1.11zm0 0" />
    </symbol>
    <symbol overflow="visible" id="prefix__Z">
      <path d="M2.188-5.656c-.516 0-1 .234-1.297.625-.36.5-.547 1.25-.547 2.297C.344-.828.984.187 2.188.187c1.203 0 1.859-1.015 1.859-2.874 0-1.094-.188-1.829-.563-2.344-.28-.39-.765-.625-1.296-.625zm0 .625c.765 0 1.14.765 1.14 2.281 0 1.61-.375 2.36-1.156 2.36-.735 0-1.11-.782-1.11-2.329 0-1.547.375-2.312 1.125-2.312zm0 0" />
    </symbol>
    <symbol overflow="visible" id="prefix__aa">
      <path d="M2.61-1.36V0h.703v-1.36h.828v-.624h-.829v-3.672h-.53L.218-2.094v.735h2.39zm0-.624H.843l1.765-2.47v2.47zm0 0" />
    </symbol>
    <symbol overflow="visible" id="prefix__ab">
      <path d="M2.063-4.031V0h.703v-5.656h-.47c-.233.875-.405 1-1.483 1.125v.5h1.25zm0 0" />
    </symbol>
    <symbol overflow="visible" id="prefix__ac">
      <path d="M4.14-5.656H.36v.703h3.062C2.078-3.031 1.516-1.86 1.094 0h.75c.312-1.813 1.031-3.36 2.297-5.063v-.593zm0 0" />
    </symbol>
    <symbol overflow="visible" id="prefix__ag">
      <path d="M3.969-4.172c-.14-.922-.735-1.484-1.61-1.484a1.8 1.8 0 00-1.5.812C.5-4.297.344-3.609.344-2.578c0 .953.14 1.562.484 2.062.297.454.797.704 1.406.704 1.079 0 1.86-.797 1.86-1.907 0-1.047-.719-1.797-1.735-1.797-.562 0-1 .22-1.296.625 0-1.375.453-2.14 1.25-2.14.5 0 .843.312.953.86h.703zM2.266-2.89c.687 0 1.109.47 1.109 1.22 0 .718-.484 1.234-1.125 1.234-.656 0-1.156-.547-1.156-1.266 0-.703.484-1.188 1.172-1.188zm0 0" />
    </symbol>
    <symbol overflow="visible" id="prefix__ah">
      <path d="M4.031-.688H1.063c.062-.468.328-.765 1.015-1.171l.797-.422C3.672-2.72 4.078-3.297 4.078-4a1.63 1.63 0 00-.531-1.203c-.328-.297-.75-.453-1.281-.453-.72 0-1.25.265-1.563.734-.203.313-.281.656-.312 1.234h.703c.031-.39.078-.609.172-.796.187-.344.546-.547.968-.547.641 0 1.125.453 1.125 1.062 0 .438-.265.828-.765 1.11l-.735.406C.672-1.781.33-1.25.266 0H4.03v-.688zm0 0" />
    </symbol>
    <symbol overflow="visible" id="prefix__ai">
      <path d="M1.766-2.594h.375c.78 0 1.171.344 1.171 1.031 0 .704-.437 1.125-1.171 1.125C1.375-.438 1-.828.953-1.64H.25c.031.454.11.75.25 1 .281.547.844.829 1.625.829 1.156 0 1.906-.704 1.906-1.766 0-.719-.281-1.11-.953-1.344.531-.203.781-.61.781-1.172 0-.968-.64-1.562-1.718-1.562C1-5.656.39-5.031.375-3.828h.703c0-.344.031-.531.125-.703.156-.313.516-.5.953-.5.61 0 .985.36.985.953 0 .406-.141.64-.454.766-.187.078-.437.109-.921.124v.594zm0 0" />
    </symbol>
    <symbol overflow="visible" id="prefix__aj">
      <path d="M.422-1.297c.14.938.734 1.484 1.61 1.484.609 0 1.187-.312 1.5-.812.359-.547.53-1.234.53-2.266 0-.953-.156-1.562-.484-2.062-.312-.453-.812-.703-1.422-.703-1.078 0-1.86.797-1.86 1.906 0 1.063.72 1.797 1.75 1.797.532 0 .923-.188 1.282-.625 0 1.375-.453 2.14-1.25 2.14-.5 0-.844-.312-.953-.859H.422zM2.14-5.03c.656 0 1.156.531 1.156 1.265 0 .704-.485 1.188-1.172 1.188-.688 0-1.11-.469-1.11-1.219 0-.719.485-1.234 1.126-1.234zm0 0" />
    </symbol>
    <symbol overflow="visible" id="prefix__an">
      <path d="M3.781-1.75L4.375 0h.828L3.156-5.813h-.953L.141 0h.78l.61-1.75h2.25zm-.219-.61H1.72l.953-2.656.89 2.657zm0 0" />
    </symbol>
    <symbol overflow="visible" id="prefix__ao">
      <path d="M.563-4.172V0h.671v-2.297c0-.86.438-1.422 1.125-1.422.532 0 .86.328.86.828V0h.656v-3.156c0-.688-.516-1.14-1.313-1.14-.624 0-1.03.234-1.39.827v-.703h-.61zm0 0" />
    </symbol>
    <symbol overflow="visible" id="prefix__ap">
      <path d="M2.031-4.172h-.687v-1.156H.672v1.156H.109v.531h.563v3.157c0 .421.297.671.812.671.157 0 .313-.015.547-.062v-.563a1.039 1.039 0 01-.328.047c-.281 0-.36-.093-.36-.375V-3.64h.688v-.53zm0 0" />
    </symbol>
    <symbol overflow="visible" id="prefix__aq">
      <path d="M4.266-.39c-.079.015-.11.015-.141.015-.234 0-.36-.125-.36-.328v-2.453c0-.735-.546-1.14-1.578-1.14-.609 0-1.109.171-1.374.484-.204.218-.282.453-.297.874h.671c.063-.515.36-.75.985-.75.594 0 .922.235.922.626v.171c0 .282-.156.407-.688.47-.937.124-1.078.155-1.344.25-.484.202-.734.577-.734 1.124C.328-.297.86.187 1.703.187c.531 0 .953-.187 1.422-.625.047.422.25.625.688.625.124 0 .234-.015.453-.078v-.5zm-1.172-.922c0 .218-.063.359-.25.546a1.52 1.52 0 01-1 .375c-.516 0-.813-.25-.813-.671 0-.438.297-.672 1-.766.703-.094.844-.125 1.063-.234v.75zm0 0" />
    </symbol>
    <symbol overflow="visible" id="prefix__ar">
      <path d="M.547-4.172V0h.672v-2.172c0-.594.156-.984.468-1.219.204-.14.407-.187.875-.203v-.672c-.109-.015-.171-.03-.265-.03-.422 0-.75.25-1.14.874v-.75h-.61zm0 0" />
    </symbol>
    <symbol overflow="visible" id="prefix__as">
      <path d="M4.094-1.86c0-.64-.047-1.03-.172-1.343-.266-.672-.906-1.094-1.688-1.094-1.171 0-1.921.89-1.921 2.266 0 1.375.734 2.219 1.906 2.219.953 0 1.61-.547 1.781-1.454h-.672c-.187.547-.562.829-1.094.829-.421 0-.78-.188-1-.532-.156-.25-.218-.484-.218-.89h3.078zM1.03-2.405c.047-.766.516-1.281 1.188-1.281.656 0 1.156.546 1.156 1.234v.047H1.031zm0 0" />
    </symbol>
    <symbol overflow="visible" id="prefix__at">
      <path d="M3.484-3.016c0-.812-.546-1.28-1.515-1.28-.969 0-1.594.5-1.594 1.28 0 .657.328.954 1.328 1.204l.61.14c.468.125.656.281.656.594 0 .39-.39.64-.985.64-.343 0-.656-.093-.828-.265-.093-.125-.14-.25-.187-.547H.266C.296-.281.844.188 1.937.188c1.047 0 1.72-.516 1.72-1.329 0-.625-.345-.968-1.173-1.156l-.64-.156c-.547-.125-.782-.297-.782-.594 0-.39.344-.64.891-.64.531 0 .813.234.828.671h.703zm0 0" />
    </symbol>
    <symbol overflow="visible" id="prefix__ak">
      <path d="M3.11-3.469h1.124c-.234.922-.343 1.531-.343 2.125 0 .672.187 1.438.671 1.438.329 0 .688-.328.688-.656 0-.11-.031-.172-.125-.329-.453-.796-.453-1.578-.453-1.843 0-.235 0-.344.047-.735h1.25c.187 0 .343 0 .484-.156a.505.505 0 00.203-.406c0-.39-.343-.39-.531-.39H2.219c-.219 0-.64 0-1.172.468-.344.328-.734.828-.734.937 0 .141.109.141.218.141.156 0 .172-.016.25-.125.39-.469 1.047-.469 1.235-.469h.593c-.25.781-.64 1.61-1.187 2.61-.156.296-.188.343-.188.484 0 .281.22.453.485.453.203 0 .36-.11.422-.172.156-.14.156-.187.218-.39l.75-2.985zm0 0" />
    </symbol>
    <symbol overflow="visible" id="prefix__al">
      <path d="M6.031-3.61c0-.906-.672-.906-.672-.906-.39 0-.765.422-.765.75a.5.5 0 00.297.454c.39.234.5.406.5.624 0 .422-.797 2.407-2.079 2.407-.765 0-1-.375-1-.89 0-.485.235-1.095.516-1.845.156-.39.172-.421.172-.593 0-.579-.578-.891-1.125-.891C.812-4.5.312-3.156.312-2.953c0 .14.157.14.25.14.11 0 .188 0 .22-.124.327-1.11.874-1.204 1.03-1.204.079 0 .172 0 .172.204 0 .234-.125.515-.156.593-.469 1.188-.594 1.594-.594 2.016C1.234-.125 2.391.078 3.25.078c.672 0 1.266-.328 1.813-1.016.843-1.046.968-2.375.968-2.671zm0 0" />
    </symbol>
    <symbol overflow="visible" id="prefix__am">
      <path d="M3.484-3.469h1.844c.203 0 .328 0 .5-.156.188-.156.188-.39.188-.406 0-.39-.36-.39-.516-.39H2.219c-.219 0-.64 0-1.172.468-.344.328-.734.828-.734.937 0 .141.109.141.218.141.156 0 .172-.016.25-.125.39-.469 1.047-.469 1.235-.469h.89l-.36 1.063c-.077.25-.296.875-.39 1.14-.11.313-.297.844-.297.954 0 .265.22.437.47.437.077 0 .577 0 .687-.656l.468-2.938zm0 0" />
    </symbol>
    <symbol overflow="visible" id="prefix__au">
      <path d="M2.828-4.422C1.063-4.016.453-2.5.453-1.609c0 1.203.969 1.734 2.031 1.734 1.313 0 2.266-1.594 2.266-3.203 0-.89-.36-1.313-.766-1.703-.453-.422-1.328-1.235-1.328-1.594 0-.047.11-.313.469-.313.328 0 .578.172.75.297.188.157.484.375.703.375.313 0 .531-.28.531-.53 0-.298-.156-.329-.687-.438-.219-.047-.797-.172-1.063-.172-.53 0-1.125.375-1.125 1.093 0 .563.375 1.235.594 1.641zm.219.36c.25.39.562.953.562 1.656 0 .437-.265 2.172-1.093 2.172-.11 0-.485-.032-.766-.282-.25-.234-.25-.609-.25-.734 0-.516.281-1.484.453-1.844.14-.265.438-.75 1.094-.969zm0 0" />
    </symbol>
    <symbol overflow="visible" id="prefix__av">
      <path d="M5.844-2.797c.047-.172.078-.297.078-.547 0-.922-.766-1.156-1.484-1.156-.204 0-.938 0-1.641.75-.14-.5-.688-.75-1.235-.75-.359 0-.656.203-.859.563-.25.406-.39.937-.39.984 0 .14.156.14.25.14.109 0 .14 0 .187-.046.031-.016.031-.047.094-.297.187-.797.422-.985.672-.985.109 0 .234.032.234.36 0 .172-.047.328-.14.734-.079.281-.173.672-.22.89L1.032-.75a2.834 2.834 0 00-.078.39c0 .204.156.438.469.438.516 0 .625-.453.703-.75l.281-1.125c.031-.125.281-1.156.313-1.187 0-.063.281-.5.61-.782.28-.218.608-.375 1.03-.375.25 0 .5.094.5.579 0 .25-.046.39-.078.578l-1.11 4.39c-.046.157-.046.219-.046.266 0 .312.266.437.469.437.11 0 .515-.015.672-.609l1.078-4.297zm0 0" />
    </symbol>
    <symbol overflow="visible" id="prefix__aw">
      <path d="M.203 1.64a.595.595 0 00-.047.157c0 .14.157.14.25.14.188 0 .188-.03.25-.234.031-.156.625-2.547.64-2.578.423.703 1.188 1 1.985 1 2 0 3.125-1.531 3.125-2.844 0-.687-.312-1.062-.64-1.312.359-.313.765-.953.765-1.64C6.531-6.517 5.906-7 4.97-7 3.548-7 2.08-5.89 1.72-4.453L.203 1.64zM4.72-4c-.25.172-.485.172-.625.172-.047 0-.485 0-.485-.078 0-.156.485-.156.625-.156.172 0 .297 0 .485.062zm.328-.344c-.328-.078-.594-.078-.797-.078-.313 0-1.125 0-1.125.531 0 .422.61.422.953.422.172 0 .61 0 1.063-.187.078.14.109.344.109.515 0 .36-.25 1.563-.563 2.079-.312.5-.796.828-1.421.828-.938 0-1.704-.563-1.704-1.454 0-.203.047-.421.063-.515.156-.594.469-1.89.594-2.328.312-1.094 1.515-2.11 2.703-2.11.375 0 .594.188.594.563 0 .312-.235 1.344-.47 1.734zm0 0" />
    </symbol>
    <symbol overflow="visible" id="prefix__ax">
      <path d="M2.688-2.89c.046-.204.124-.516.124-.641 0-.672-.671-.969-1.25-.969-.359 0-.656.203-.859.563-.25.406-.39.937-.39.984 0 .14.156.14.25.14.109 0 .14 0 .187-.046.031-.016.031-.047.094-.297.187-.797.422-.985.672-.985.109 0 .234.032.234.36 0 .187-.14.734-.234 1.11-.047.155-.172.671-.204.765-.109.484-.109.703-.109.765C1.203.016 2.343.08 2.922.08c1.5 0 2.594-1.548 3.062-3.345.125.016.313.063.375.063.094 0 .172-.11.172-.219 0-.11-.11-.14-.172-.156-.093-.016-.109-.016-.28-.047a6.46 6.46 0 00.155-1.313C6.234-6.609 5.313-7 4.704-7c-.75 0-1.688.672-1.688 1.75 0 1.11 1.093 1.5 1.843 1.734-.203.829-.421 1.672-.75 2.266-.187.375-.593.969-1.109.969-.594 0-.734-.297-.734-.688 0-.25.156-.906.28-1.344l.142-.578zm2.265-1c-1.203-.36-1.469-.891-1.469-1.391 0-.797.641-1.36 1.188-1.36.5 0 .578.641.578 1 0 .579-.219 1.407-.297 1.75zm0 0" />
    </symbol>
    <symbol overflow="visible" id="prefix__ay">
      <path d="M2.328-3.328a1.436 1.436 0 01-.094-.516c0-.515.297-1.281.844-1.656.219.297.5.297.735.297.28 0 1.078 0 1.078-.531 0-.422-.532-.422-.954-.422-.093 0-.343 0-.624.031 0-.313.062-.531.062-.547.031-.094.031-.094.031-.125 0-.203-.203-.219-.219-.219-.328 0-.328.594-.328.782 0 .062 0 .156.016.218C1.625-5.64 1-4.75 1-3.984c0 .468.266.843.531 1.03C.484-2.25.234-1.311.234-.936.234-.125.97.28 1.563.484l1.14.391c.25.078.672.234.75.266a.27.27 0 01.125.218c0 .032-.015.297-.312.297a2.42 2.42 0 01-1-.25c-.063-.047-.079-.047-.125-.047-.141 0-.204.11-.204.172 0 .25.844.485 1.344.485.781 0 1.188-.72 1.188-1.188a.82.82 0 00-.485-.75c-.14-.047-1.078-.375-1.328-.453L2-.594c-.344-.125-.922-.328-.922-.797 0-.593.75-1.296.875-1.296.016 0 .016 0 .078.015a2.81 2.81 0 001.063.172c.312 0 1.14 0 1.14-.547 0-.406-.625-.406-.953-.406-.187 0-.5 0-.953.125zm1.078-2.39c.203-.079.375-.079.516-.079.312 0 .344 0 .5.063 0 .015 0 .015-.031.062-.094.11-.47.11-.579.11-.156 0-.312 0-.406-.157zM2.578-3c.266-.094.5-.094.656-.094.329 0 .36 0 .516.063-.016.015-.016.047-.031.062-.094.11-.469.11-.594.11-.156 0-.375 0-.547-.141zm0 0" />
    </symbol>
    <symbol overflow="visible" id="prefix__az">
      <path d="M4.469-1.89c-.078-.673-.563-2.61-2.11-2.61C.953-4.5.125-3.11.125-2.703c0 .156.14.156.219.156.11 0 .187 0 .25-.125.219-.64 1.047-.734 1.562-.734.547 0 1.203.125 1.547.61.266.39.344 1.218.344 1.624 0 .39-.016.469-.094.672-.265.813-.578 1.89-.578 2.25 0 .078 0 .36.25.36.234 0 .36-.376.406-.5.078-.235.328-1.126.453-2.157.016-.125.016-.14.047-.219.266-.75.75-1.906 1.453-3.187.063-.11.172-.297.172-.328 0-.14-.14-.14-.234-.14s-.14 0-.188.03c-.015.032-.546.891-1.265 2.5zm0 0" />
    </symbol>
    <symbol overflow="visible" id="prefix__aA">
      <path d="M4.11-1.078c-.235.453-.844.484-1.704.484-.625 0-1.562 0-1.562-.656 0-.203.14-.578.484-.844.422.219.953.219 1.14.219.266 0 1.016 0 1.016-.547 0-.406-.53-.406-.843-.406-.204 0-.735 0-1.266.25a.666.666 0 01-.125-.36c0-.546.688-.906 1.875-.906.281 0 .594 0 1.016.313.093.047.156.078.218.078.22 0 .454-.219.454-.453 0-.188-.157-.313-.532-.485-.437-.203-.812-.203-.968-.203C1.609-4.594.78-3.64.78-2.937A.84.84 0 001-2.36c-.406.343-.656.75-.656 1.234C.344-.437.89.172 2.234.172c1.625 0 2.141-.953 2.141-1.11a.164.164 0 00-.172-.171c-.047 0-.094.03-.094.03zM1.765-2.344c.359-.125.734-.125.843-.125.266 0 .297 0 .407.047-.032.125-.063.188-.547.188-.172 0-.422 0-.703-.11zm0 0" />
    </symbol>
    <symbol overflow="visible" id="prefix__aB">
      <path d="M5.047-6.625c.031-.125.031-.14.031-.156 0-.14-.14-.14-.234-.14-.203 0-.203.03-.266.234L4.094-4.72c-.047.14-.047.14-.063.157-.015 0-.031.015-.187.03C1.78-4.421.563-3 .563-1.733.563-.671 1.422.063 2.875.11l-.422 1.766c0 .14.14.14.235.14.156 0 .203-.015.25-.187L3.28.438c.063-.282.078-.297.094-.313.016 0 .031 0 .188-.016 2.03-.125 3.28-1.515 3.28-2.796 0-1.079-.859-1.797-2.312-1.844l.516-2.094zM2.969-.25c-.86-.047-1.39-.422-1.39-1.219 0-.281.109-1.203.64-1.86.344-.437.922-.78 1.734-.843L2.97-.25zm1.469-3.922c.859.047 1.39.406 1.39 1.219 0 .281-.11 1.203-.64 1.86-.344.437-.922.78-1.735.843l.985-3.922zm0 0" />
    </symbol>
    <symbol overflow="visible" id="prefix__aD">
      <path d="M3.578-6.36c-.125-.28-.25-.562-1.469-.562-.234 0-.406 0-.406.188 0 .156.14.171.156.171.157.016.266.032.422.266.125.203 1.156 2.563 1.39 3.094L.782-.891C.671-.797.47-.625.47-.359c0 .28.234.484.484.484.266 0 .469-.219.75-.531.016-.016.516-.531.547-.578.375-.375 1.266-1.344 1.64-1.72l.954 2.157c.031.078.125.266.156.344.078.187.281.281.625.281h.5c.172 0 .297 0 .297-.14a.179.179 0 00-.047-.11c-.078-.094-.172-.281-.25-.437L3.578-6.36zm0 0" />
    </symbol>
    <symbol overflow="visible" id="prefix__aE">
      <path d="M.594-.813C.563-.671.5-.421.5-.358c0 .203.156.437.469.437.515 0 .64-.453.703-.719l.375-1.515c.86.015 1.703.14 1.703.734 0 .063-.016.172-.031.234a.595.595 0 00-.047.235c0 .64.625 1.031 1.281 1.031 1 0 1.36-1.469 1.36-1.547 0-.14-.141-.14-.235-.14-.172 0-.203.015-.25.187-.078.297-.312 1.14-.828 1.14-.094 0-.25-.015-.25-.39 0-.031 0-.25.063-.422.015-.125.046-.25.046-.328 0-.64-.656-.844-.812-.906-.36-.11-.484-.125-1.422-.203.266-.156.547-.39.89-.656.657-.516.829-.594 1.063-.72a.418.418 0 00-.031.173c0 .312.219.468.484.468.438 0 .703-.39.703-.687 0-.14-.046-.469-.515-.469-.688 0-1.36.547-1.813.906-.61.485-.875.672-1.219.829.063-.22.11-.438.172-.657.11-.5.157-.64.157-.719 0-.218-.157-.437-.47-.437a.667.667 0 00-.655.516l-.36 1.406L.594-.813zm0 0" />
    </symbol>
    <symbol overflow="visible" id="prefix__aG">
      <path d="M3.766-1.469c0-.14-.141-.14-.235-.14-.125 0-.187 0-.234.125C2.984-.516 2.03-.281 1.672-.281c-.094 0-.203 0-.203-.203 0-.22.11-.47.172-.641.515-1.36.875-2.86.875-2.938 0-.218-.157-.437-.47-.437-.468 0-.593.375-.655.516-.032.078-.063.28-.079.343-.078.188-.171.641-.218.813-.063.14-.14.406-.188.578-.125.453-.031.031-.156.484-.078.313-.297.641-.297.954 0 .515.5.89 1.156.89.297 0 .86-.062 1.407-.484.609-.438.75-.985.75-1.063zm0 0" />
    </symbol>
    <symbol overflow="visible" id="prefix__aH">
      <path d="M2.734-3.313c.063-.25.172-.687.172-.75 0-.218-.156-.437-.469-.437-.515 0-.64.5-.671.61L.437 1.405c-.03.157-.03.219-.03.266 0 .312.25.437.468.437a.686.686 0 00.594-.39c.062-.125.39-1.485.453-1.797.406.156.86.156.984.156.344 0 .797-.062 1.406-.594.235.454.797.594 1.157.594.375 0 .656-.203.875-.562a3.21 3.21 0 00.375-.985c0-.14-.157-.14-.235-.14-.109 0-.156 0-.203.046-.015.016-.015.032-.078.282-.203.797-.437 1-.687 1-.11 0-.22-.031-.22-.36 0-.171.032-.343.141-.734l.25-1.016c.047-.218.157-.625.22-.906.062-.219.171-.625.171-.687 0-.22-.172-.438-.469-.438a.688.688 0 00-.671.531L4.25-1.14c-.031.188-.203.36-.375.5-.328.266-.625.36-.89.36-.688 0-.735-.485-.735-.781 0-.266.047-.516.094-.688l.39-1.563zm0 0" />
    </symbol>
    <symbol overflow="visible" id="prefix__aI">
      <path d="M2.547-.672c-.422-.14-1.156-.36-1.156-1.437 0-1.36 1.078-2.829 1.984-3.391.219.297.547.297.75.297.266 0 1.078 0 1.078-.531 0-.391-.484-.422-.922-.422-.172 0-.36 0-.64.093a2.023 2.023 0 01.062-.609c.016-.094.016-.094.016-.125 0-.203-.203-.219-.203-.219-.329 0-.329.594-.329.766 0 .063 0 .234.032.375-1.375.766-2.735 2.5-2.735 4.25 0 .5.141 1 .485 1.39.39.422.656.5 1.922.876.421.125.765.234.765.609 0 .031-.031.406-.36.406a1.66 1.66 0 01-.858-.25c-.079-.047-.079-.047-.141-.047-.11 0-.188.094-.188.172 0 .219.704.485 1.188.485C4.03 2.016 4.5 1.28 4.5.703c0-.797-.656-1-1.078-1.11l-.875-.265zm1.187-5.016c.204-.109.344-.109.516-.109.297 0 .328 0 .484.063-.062.109-.078.125-.234.156-.14.016-.36.016-.375.016-.14 0-.313 0-.39-.125zm0 0" />
    </symbol>
    <symbol overflow="visible" id="prefix__aC">
      <path d="M2.781-4.328c0-.25-.047-.25-.344-.25-.437.36-1 .453-1.562.453H.703v.39h.172c.281 0 .703-.046 1-.14v3.484H.781V0c.328-.031 1.172-.031 1.547-.031.25 0 .5.015.75.015.219 0 .578 0 .781.016v-.39H2.781v-3.938zm0 0" />
    </symbol>
    <symbol overflow="visible" id="prefix__aF">
      <path d="M4.031-1.594h-.437c-.016.094-.078.578-.203.61-.157.03-.563.03-.735.03h-.953c.39-.28.781-.577 1.188-.827.562-.36 1.14-.735 1.14-1.438 0-.828-.797-1.36-1.906-1.36-.938 0-1.656.376-1.656 1.032 0 .406.328.563.547.563a.52.52 0 00.53-.547c0-.344-.25-.469-.265-.485.25-.156.563-.171.657-.171.578 0 1.046.375 1.046.984 0 .531-.359.984-.765 1.328L.563-.391c-.079.079-.094.079-.094.22V0h3.328l.234-1.594zm0 0" />
    </symbol>
    <clipPath id="prefix__a">
      <path d="M.398 127.96V.36h255.204v255.202H.398v-127.6zm0 0" />
    </clipPath>
  </defs>
  <g clip-path="url(#prefix__a)">
    <path d="M252.707 213.383s-18.21-4.012-27.89-5.668c-13.563-2.32-25.801-4.09-39.489-5.5-13.7-1.41-26.058-2.23-39.824-2.664-13.758-.438-26.133-.39-39.887.14-13.758.536-26.11 1.442-39.797 2.95-13.668 1.507-25.89 3.382-39.43 5.78-8.706 1.544-25.085 5.22-25.085 5.22m251.235-73.957s-5.49-1.016-8.392-1.473c-13.535-2.14-25.699-4.012-39.316-5.531-13.617-1.516-25.89-2.52-39.57-3.258a675.797 675.797 0 00-39.688-1.02c-13.703.04-26.008.43-39.683 1.246-13.676.817-25.938 1.891-39.543 3.489-13.61 1.593-25.762 3.558-39.29 5.754-1.933.312-5.585.992-5.585.992M254.04 67.031s-24.06-3.418-36.794-4.761c-13.703-1.45-26.043-2.454-39.797-3.262-13.758-.805-26.133-1.254-39.914-1.418-13.77-.16-26.144 0-39.91.484-13.77.485-26.125 1.196-39.855 2.324-13.735 1.13-26.036 2.528-39.715 4.223-5.871.73-16.977 2.41-16.977 2.41" fill="none" stroke-width=".709" stroke="#d8edfe" stroke-miterlimit="10" />
    <path d="M185.953 254.516s1.39-9.856 2.098-15.055c1.652-12.125 3.133-23.008 4.676-35.149a3051.729 3051.729 0 004.28-35.234 3336.604 3336.604 0 003.884-35.234 3330.156 3330.156 0 003.543-35.293 3243.65 3243.65 0 003.175-35.348 3338.588 3338.588 0 002.805-35.348c.652-8.722 1.758-25.285 1.758-25.285m-99.156 251.094s-.414-11.547-.621-17.633a13873.457 13873.457 0 01-2.243-70.554c-.351-12.168-.644-23.094-.96-35.262-.32-12.168-.59-23.094-.88-35.262-.289-12.18-.539-23.113-.792-35.293-.254-12.18-.457-23.113-.68-35.289-.145-7.828-.399-22.68-.399-22.68M39.23 254.063s-1.386-6.551-2.097-10.008c-2.473-12.07-4.684-22.907-7-35.008a2194.934 2194.934 0 01-6.434-35.149 2190.291 2190.291 0 01-11.226-70.527A2248.195 2248.195 0 017.68 67.996a2208.363 2208.363 0 01-4.223-35.492C2.289 21.996.313 2.03.313 2.03" fill="none" stroke-width=".709" stroke="#d8edfe" stroke-miterlimit="10" />
    <path d="M2.238 91.836l.16-.027.446-.067.66-.101.816-.125.903-.137.933-.14.899-.137.797-.118 9.976-1.48 9.719-1.434 9.723-1.414 9.984-1.426 9.984-1.398 9.723-1.34 9.73-1.316 9.993-1.332 9.988-1.317 9.734-1.265 9.735-1.242 10-1.25 10.004-1.227 9.75-1.172 9.75-1.148 10.011-1.16 10.02-1.141 9.762-1.098 9.761-1.074 10.031-1.078 10.028-1.05 9.765-1 9.774-.977 10.031-1 1.203-.118 1.356-.132 1.41-.137 1.363-.133 1.235-.117.996-.098.668-.062.246-.024" fill="none" stroke-width=".51" stroke="#d43b1e" stroke-dasharray="50.001 30.001 0 0" stroke-miterlimit="10" />
    <path d="M26.25 248.648l.098-.02m12.23-2.19l-.098.011" fill="none" stroke-width=".992" stroke-linecap="round" stroke="#fff0b6" stroke-miterlimit="10" />
    <path d="M26.25 248.648l.14-.027.391-.078.578-.11.715-.136.797-.152.82-.157.79-.144.699-.133 2.465-.45 2.468-.429.742-.121.81-.129.648-.105.265-.04" fill="none" stroke-width=".992" stroke="#fff0b6" stroke-dasharray="48.184 28.91 0 0" stroke-miterlimit="10" />
    <path d="M219.883 133.73l.097.016m30.32 5.086l-.1-.02" fill="none" stroke-width=".992" stroke-linecap="round" stroke="#fff0b6" stroke-miterlimit="10" />
    <path d="M219.883 133.73l.176.028.48.07.719.106.887.128.98.149 1.016.148.972.149.864.129 3.05.476 3.043.489 3.051.503 3.043.516 3.035.531 3.035.547.86.156.969.18 1.011.192.977.183.883.164.71.137.481.09.176.031" fill="none" stroke-width=".992" stroke="#fff0b6" stroke-dasharray="53.178 31.907 0 0" stroke-miterlimit="10" />
    <path d="M144.113 251.055l.008-.098m.617-10.531l-.008.101" fill="none" stroke-width=".992" stroke-linecap="round" stroke="#fff0b6" stroke-miterlimit="10" />
    <path d="M144.113 251.055l.012-.203.035-.559.05-.836.063-1.027.067-1.145.07-1.176.07-1.132.06-1.008.026-.504.032-.563.035-.59.031-.574.027-.511.024-.418.015-.282.008-.101" fill="none" stroke-width=".992" stroke="#fff0b6" stroke-dasharray="40.954 24.572 0 0" stroke-miterlimit="10" />
    <path d="M179.46 218.344l.099.011m26.151 3.59l-.097-.015" fill="none" stroke-width=".992" stroke-linecap="round" stroke="#fff0b6" stroke-miterlimit="10" />
    <path d="M179.46 218.344l.153.02.414.046.621.074.766.09.852.102.875.101.843.102.75.09 2.621.32 2.622.332 2.625.344 2.62.363 2.622.39 2.62.403.747.117.84.13.87.136.845.133.761.12.618.098.414.067.152.023" fill="none" stroke-width=".992" stroke="#fff0b6" stroke-dasharray="45.685 27.411 0 0" stroke-miterlimit="10" />
    <path d="M205.71 221.945l-.019.098m-5.141 28.02l.02-.098" fill="none" stroke-width=".992" stroke-linecap="round" stroke="#fff0b6" stroke-miterlimit="10" />
    <path d="M205.71 221.945l-.034.203-.102.555-.144.828-.18 1.02-.203 1.133-.207 1.168-.2 1.125-.175.996-.637 3.515-.64 3.516-.649 3.516-.656 3.515-.188.996-.21 1.125-.223 1.168-.215 1.137-.195 1.02-.157.828-.105.554-.04.2" fill="none" stroke-width=".992" stroke="#fff0b6" stroke-dasharray="49.292 29.575 0 0" stroke-miterlimit="10" />
    <path d="M32.797 34.547l.008.098m9.09 99.453l-.008-.098" fill="none" stroke-width=".992" stroke-linecap="round" stroke="#fff0b6" stroke-miterlimit="10" />
    <path d="M32.797 34.547l.016.203.042.563.063.835.078 1.036.086 1.148.09 1.18.086 1.136.078 1.012.266 3.574.273 3.57.277 3.56.29 3.554.292 3.559.301 3.558.313 3.559.312 3.554.313 3.559.312 3.559.309 3.554.312 3.559.324 3.543.329 3.543.336 3.558.343 3.555.352 3.559.36 3.558.35 3.543.356 3.543.367 3.559.372 3.558.367 3.543.37 3.543.106 1.012.121 1.137.13 1.18.12 1.148.114 1.035.09.836.062.563.02.203" fill="none" stroke-width=".992" stroke="#fff0b6" stroke-dasharray="49.492 29.695 0 0" stroke-miterlimit="10" />
    <path d="M28.063 186.398l-.098.016M.172 191.332l.094-.02" fill="none" stroke-width=".992" stroke-linecap="round" stroke="#fff0b6" stroke-miterlimit="10" />
    <path d="M28.063 186.398l-.16.024-.446.07-.66.102-.817.125-.902.14-.933.149-.899.14-.797.13-2.793.46-2.789.473-2.793.488-2.793.504-2.777.52-2.777.53-.79.153-.89.172-.922.176-.895.176-.808.156-.652.129-.442.086-.156.031" fill="none" stroke-width=".992" stroke="#fff0b6" stroke-dasharray="48.842 29.305 0 0" stroke-miterlimit="10" />
    <path d="M.281 38.145l.102-.012m32.414-3.586l-.098.008" fill="none" stroke-width=".992" stroke-linecap="round" stroke="#fff0b6" stroke-miterlimit="10" />
    <path d="M.281 38.145l.2-.024.539-.066.804-.102.992-.125 1.102-.137 1.133-.14 1.094-.137.968-.117 3.418-.418 3.414-.406 3.43-.375 3.43-.36 3.418-.363 3.414-.348.734-.07.824-.078.856-.082.832-.074.75-.07.61-.055.405-.04.149-.011" fill="none" stroke-width=".992" stroke="#fff0b6" stroke-dasharray="56.404 33.842 0 0" stroke-miterlimit="10" />
    <path d="M32.797 34.547l.098-.012m44.519-2.995l-.098.007" fill="none" stroke-width=".992" stroke-linecap="round" stroke="#fff0b6" stroke-miterlimit="10" />
    <path d="M32.797 34.547l.195-.02.543-.047.809-.07.996-.086 1.105-.097 1.14-.098 1.099-.094.972-.086 3.43-.289 3.43-.277 3.43-.246 3.429-.235 3.43-.23 3.43-.223 3.43-.207 3.433-.191 3.441-.172 3.445-.168.489-.023.547-.028.57-.027.555-.028.496-.027.402-.02.273-.011.098-.008" fill="none" stroke-width=".992" stroke="#fff0b6" stroke-dasharray="49.691 29.815 0 0" stroke-miterlimit="10" />
    <path d="M77.414 31.54l-.004-.099m-.875-28.277l.004.102" fill="none" stroke-width=".992" stroke-linecap="round" stroke="#fff0b6" stroke-miterlimit="10" />
    <path d="M77.414 31.54l-.008-.204-.015-.559-.028-.832-.031-1.03-.039-1.145-.035-1.176-.04-1.133-.03-1.008-.118-3.543-.11-3.543-.1-3.555-.098-3.558-.032-1.008-.035-1.133-.039-1.175-.035-1.145-.035-1.027-.027-.836-.016-.559-.008-.207" fill="none" stroke-width=".992" stroke="#fff0b6" stroke-dasharray="48.945 29.367 0 0" stroke-miterlimit="10" />
    <path d="M32.43 3.535l-.102.008M23.64 4.3l.098-.007" fill="none" stroke-width=".992" stroke-linecap="round" stroke="#fff0b6" stroke-miterlimit="10" />
    <path d="M32.43 3.535l-.203.02-.555.05-.828.075-1.02.09-1.137.101-1.167.106-1.122.097-1 .086-.53.043-.575.047-.461.035-.191.016" fill="none" stroke-width=".992" stroke="#fff0b6" stroke-dasharray="88.204 52.923 0 0" stroke-miterlimit="10" />
    <path d="M4.195 253.438l.098-.024m21.957-4.766l-.098.016" fill="none" stroke-width=".992" stroke-linecap="round" stroke="#fff0b6" stroke-miterlimit="10" />
    <path d="M4.195 253.438l.14-.032.384-.09.574-.136.707-.164.79-.184.808-.187.78-.18.692-.16 2.453-.575 2.45-.562 2.453-.531 2.453-.516 2.45-.504 2.452-.488.746-.149.809-.156.648-.125.266-.05" fill="none" stroke-width=".992" stroke="#fff0b6" stroke-dasharray="53.738 32.243 0 0" stroke-miterlimit="10" />
    <path d="M26.25 248.648l.02.094m1.539 6.934l-.024-.098" fill="none" stroke-width=".992" stroke-linecap="round" stroke="#fff0b6" stroke-miterlimit="10" />
    <path d="M26.25 248.648l1.559 7.028" fill="none" stroke-width=".992" stroke="#fff0b6" stroke-dasharray="72.005 43.203 0 0" stroke-miterlimit="10" />
    <path d="M203.754 63.46l.012-.1m4.75-56.68l-.008.101M171.61 3.934l-.005.097m-2.207 44.207l.008-.101m-.008.101l-.097-.008m-10.903-.59l.102.005m-.102-.005l-.003.102m-.278 6.988l.004-.101m-.004.101l.098.004m10.816.59l-.101-.008m.101.008l-.008.098m-2.148 37.688l.008-.098m-.008.098l-.098-.005m-46.672-1.555l.098.005m-.098-.005v.098m-.113 38.312l-.004-.1m.004.1h-.101m-77.996 4.138l.101-.008m-.101.008l-.098.011m-21.219 2.653l.102-.012m-.102.012l.016.101m7.469 49.535l-.016-.097m.016.097l.015.098m10.5 59.942l-.016-.102m.016.102l.098-.02m106.062-5.992l-.101-.004m.101.004l.004-.098m1.328-24.676l-.004.098m.004-.098l.098.004m33.292 2.688l-.097-.012m.097.012l.013-.098m9.797-88.286l-.008.099m.008-.099l.097.009m30.516 3.761l-.098-.015m.098.015l.015-.097m8.802-67.254l-.012.098m.012-.098l-.098-.012m-24.848-2.907l.101.009" fill="none" stroke-width=".992" stroke-linecap="round" stroke="#ffd937" stroke-miterlimit="10" />
    <path d="M203.754 63.46l.02-.206.05-.559.078-.832.094-1.027.106-1.145.109-1.18.105-1.132.09-1.008.313-3.543.312-3.543.313-3.543.308-3.543.301-3.558.297-3.555.297-3.547.297-3.543.289-3.555.277-3.558.27-3.543.27-3.543.077-1.012.09-1.137.094-1.183.094-1.149.082-1.03.066-.837.047-.562.016-.207m-36.907-2.746l-.011.203-.024.558-.043.832-.047 1.032-.054 1.144-.059 1.176-.055 1.133-.046 1.008-.172 3.542-.168 3.543-.172 3.543-.168 3.543-.168 3.543-.172 3.543-.184 3.543-.187 3.543-.18 3.547-.187 3.54-.032.542-.039.582-.03.473-.013.191m0 0l-.195-.011-.531-.036-.793-.046-.98-.06-1.09-.065-1.122-.067-1.078-.058-.957-.055-.605-.031-.68-.032-.707-.035-.683-.031-.618-.027-.5-.024-.336-.012-.125-.007m0 0l-.28 7.09m0 0l.19.007.532.028.793.035.972.05 1.086.051 1.118.059 1.07.055.957.054.594.032.672.043.695.039.68.043.609.039.492.03.332.02.121.008m0 0l-.011.203-.032.563-.047.832-.058 1.027-.067 1.145-.062 1.176-.067 1.132-.054 1.008-.2 3.543-.199 3.543-.195 3.531-.2 3.528-.21 3.543-.215 3.543-.2 3.546-.198 3.543-.04.72-.046.777-.04.628-.015.254m0 0l-.188-.011-.507-.032-.762-.05-.938-.059-1.043-.062-1.074-.067-1.035-.062-.918-.051-3.215-.164-3.218-.149-3.215-.148-3.219-.137-3.23-.12-3.235-.106-3.215-.079-3.218-.062-3.23-.063-3.231-.05-3.235-.032-3.23-.027-.489-.008-.527-.008-.426-.007-.172-.004m0 0l-.003.203v.558l-.004.836-.008 1.028-.004 1.144-.004 1.176-.004 1.137-.004 1.004v7.086l-.012 3.543-.015 3.546-.016 3.543-.011 3.543-.016 3.543-.012 3.543-.004.899v1.758l.004.32m0 0h-.66l-.723-.004h-3.871l-.87.004-3.075.02-3.078.035-3.059.05-3.062.063-3.074.078-3.079.094-3.058.105-3.063.121-3.062.133-3.063.152-3.074.165-3.074.175-3.063.176-3.062.192-3.063.218-3.058.235-3.047.234-3.047.246-3.062.277-3.063.29-3.062.292-3.06.305-.648.067-.73.078-.758.078-.738.078-.66.07-.54.059-.359.039-.132.012m0 0l-.176.02-.48.054-.716.074-.886.102-.985.105-1.011.113-.973.114-.867.097-3.047.38-3.047.386-3.047.394-3.047.403-.433.058-.485.067-.504.07-.488.07-.441.06-.356.054-.238.031-.09.012m0 0l.031.207.078.562.122.836.148 1.031.164 1.149.168 1.183.164 1.137.145 1.012.511 3.543.512 3.543.524 3.543.523 3.543.523 3.543.528 3.543.547 3.547.558 3.539.551 3.547.555 3.542.16 1.008.18 1.13.187 1.179.184 1.144.164 1.028.136.836.09.558.031.203m0 0l.036.204.09.558.136.828.168 1.028.188 1.136.195 1.172.184 1.13.168 1.003L29.8 197l.586 3.543.605 3.531.613 3.528.61 3.543.61 3.542.62 3.532.63 3.527.616 3.531.63 3.528.648 3.53.656 3.528.652 3.516.649 3.512.094.504.105.566.11.59.105.57.094.516.074.418.05.277.02.105m0 0l.145-.023.39-.062.586-.098.719-.113.8-.13.825-.132.793-.125.703-.113 2.48-.387 2.481-.379 2.492-.348 2.496-.332 2.496-.332 2.496-.32 2.493-.305 2.496-.289 2.492-.277 2.496-.262 2.492-.246 2.496-.234 2.508-.235 2.512-.218 2.508-.192 2.507-.18 2.508-.175 2.508-.164 2.508-.145 2.512-.137 2.507-.136 2.508-.121 2.508-.09 2.512-.078 2.52-.079 2.523-.066 2.511-.047 2.508-.035 2.508-.02 2.508-.011 2.523-.008 2.524.008 2.508.039 2.507.047 2.524.05 2.523.063 2.508.078 2.512.094 2.508.113 2.507.113.29.008.316.012.254.004.105.004m0 0l.008-.203.031-.559.043-.828.051-1.027.059-1.137.062-1.172.059-1.129.054-1.004.196-3.543.203-3.543.2-3.543.194-3.543.028-.504.027-.566.027-.59.028-.57.023-.516.02-.414.011-.281.008-.102m0 0l.153.008.418.02.625.035.77.039.855.043.879.047.847.047.754.043 2.649.164 2.652.175 2.648.192 2.653.207 2.636.223 2.633.23 2.637.234 2.637.246 2.652.262 2.648.278.496.058.54.067.433.054.176.02m0 0l.023-.203.07-.555.098-.832.125-1.024.137-1.14.14-1.172.137-1.129.121-1.004.426-3.527.422-3.531.414-3.543.41-3.543.41-3.528.41-3.531.415-3.527.41-3.532.398-3.543.395-3.543.383-3.527.382-3.531.383-3.543.383-3.543.383-3.527.383-3.532.37-3.543.364-3.543.371-3.53.367-3.528.371-3.543.368-3.543.05-.504.055-.566.055-.59.055-.57.046-.516.043-.414.024-.282.012-.101m0 0l.175.02.489.046.722.078.895.094.988.106 1.023.11.985.105.875.093 3.058.332 3.063.348 3.062.375 3.06.39 3.05.391 3.047.403.867.12.98.137 1.02.149.984.14.89.13.72.105.484.07.176.027m0 0l.027-.203.078-.558.117-.836.145-1.028.16-1.144.164-1.18.16-1.133.141-1.003.496-3.543.496-3.543.5-3.543.492-3.547.473-3.54.465-3.546.469-3.543.464-3.543.457-3.543.45-3.543.457-3.543.453-3.543.441-3.543.434-3.543.43-3.559.421-3.558.063-.504.066-.566.07-.586.067-.575.063-.511.05-.418.035-.282.012-.101m0 0l-.191-.024-.524-.07-.78-.101-.962-.125-1.07-.137-1.106-.14-1.058-.137-.942-.118-3.332-.402-3.328-.39-3.332-.372-3.332-.367-.707-.074-.797-.086-.832-.09-.804-.09-.723-.078-.59-.062-.39-.04-.145-.015" fill="none" stroke-width=".992" stroke="#ffd937" stroke-dasharray="49.645 29.787 0 0" stroke-dashoffset="24.907" stroke-miterlimit="10" />
    <use xlink:href="#prefix__b" x="188.081" y="170.838" fill="#b9b9b9" />
    <use xlink:href="#prefix__c" x="194.151" y="171.473" fill="#b9b9b9" />
    <use xlink:href="#prefix__d" x="200.176" y="172.115" fill="#b9b9b9" />
    <use xlink:href="#prefix__e" x="206.208" y="172.867" fill="#b9b9b9" />
    <use xlink:href="#prefix__f" x="212.257" y="173.68" fill="#b9b9b9" />
    <use xlink:href="#prefix__g" x="138.935" y="146.737" fill="#b9b9b9" />
    <use xlink:href="#prefix__h" x="145.518" y="146.918" fill="#b9b9b9" />
    <use xlink:href="#prefix__i" x="151.011" y="147.082" fill="#b9b9b9" />
    <use xlink:href="#prefix__j" x="157.086" y="147.302" fill="#b9b9b9" />
    <use xlink:href="#prefix__k" x="160.871" y="147.472" fill="#b9b9b9" />
    <use xlink:href="#prefix__l" x="166.954" y="147.837" fill="#b9b9b9" />
    <use xlink:href="#prefix__m" x="169.698" y="148.014" fill="#b9b9b9" />
    <use xlink:href="#prefix__n" x="175.789" y="148.43" fill="#b9b9b9" />
    <use xlink:href="#prefix__o" x="104.666" y="250.375" fill="#b9b9b9" />
    <use xlink:href="#prefix__p" x="111.742" y="250.079" fill="#b9b9b9" />
    <use xlink:href="#prefix__q" x="115.501" y="249.978" fill="#b9b9b9" />
    <use xlink:href="#prefix__r" x="21.919" y="118.821" fill="#b9b9b9" />
    <use xlink:href="#prefix__s" x="28.4" y="117.887" fill="#b9b9b9" />
    <use xlink:href="#prefix__t" x="34.455" y="117.108" fill="#b9b9b9" />
    <use xlink:href="#prefix__u" x="4.879" y="217.003" fill="#b9b9b9" />
    <use xlink:href="#prefix__v" x="11.864" y="215.463" fill="#b9b9b9" />
    <use xlink:href="#prefix__w" x="15.598" y="214.686" fill="#b9b9b9" />
    <use xlink:href="#prefix__x" x="150.635" y="229.06" fill="#b9b9b9" />
    <use xlink:href="#prefix__y" x="157.778" y="229.46" fill="#b9b9b9" />
    <use xlink:href="#prefix__z" x="163.801" y="229.833" fill="#b9b9b9" />
    <use xlink:href="#prefix__A" x="167.508" y="230.094" fill="#b9b9b9" />
    <use xlink:href="#prefix__B" x="176.304" y="230.877" fill="#b9b9b9" />
    <use xlink:href="#prefix__C" x="208.346" y="54.217" fill="#b9b9b9" />
    <use xlink:href="#prefix__D" x="214.436" y="54.829" fill="#b9b9b9" />
    <use xlink:href="#prefix__E" x="217.182" y="55.105" fill="#b9b9b9" />
    <use xlink:href="#prefix__F" x="223.266" y="55.764" fill="#b9b9b9" />
    <use xlink:href="#prefix__G" x="227.082" y="56.197" fill="#b9b9b9" />
    <use xlink:href="#prefix__H" x="95.676" y="58.121" fill="#b9b9b9" />
    <use xlink:href="#prefix__I" x="103.472" y="57.911" fill="#b9b9b9" />
    <use xlink:href="#prefix__J" x="109.591" y="57.762" fill="#b9b9b9" />
    <use xlink:href="#prefix__K" x="115.709" y="57.641" fill="#b9b9b9" />
    <use xlink:href="#prefix__L" x="118.469" y="57.593" fill="#b9b9b9" />
    <use xlink:href="#prefix__M" x="124.588" y="57.546" fill="#b9b9b9" />
    <use xlink:href="#prefix__N" x="129.988" y="57.569" fill="#b9b9b9" />
    <use xlink:href="#prefix__O" x="136.108" y="57.618" fill="#b9b9b9" />
    <use xlink:href="#prefix__P" x="142.228" y="57.685" fill="#b9b9b9" />
    <use xlink:href="#prefix__Q" x="36.462" y="23.483" fill="#b9b9b9" />
    <use xlink:href="#prefix__R" x="43.024" y="22.898" fill="#b9b9b9" />
    <use xlink:href="#prefix__S" x="48.511" y="22.422" fill="#b9b9b9" />
    <use xlink:href="#prefix__T" x="52.313" y="22.1" fill="#b9b9b9" />
    <use xlink:href="#prefix__U" x="58.376" y="21.64" fill="#b9b9b9" />
    <use xlink:href="#prefix__V" x="63.866" y="21.267" fill="#b9b9b9" />
    <use xlink:href="#prefix__W" x="69.966" y="20.879" fill="#b9b9b9" />
    <path d="M180.738 80.21a2.58 2.58 0 00-5.16 0 2.578 2.578 0 002.578 2.58 2.579 2.579 0 002.582-2.58zm-11.906 24.552a2.582 2.582 0 00-2.578-2.582 2.582 2.582 0 00-2.582 2.582 2.58 2.58 0 005.16 0zM157.238 8.695a2.582 2.582 0 00-2.582-2.582 2.58 2.58 0 102.582 2.582zm-35.32 203.555a2.578 2.578 0 00-2.578-2.578 2.579 2.579 0 102.578 2.578zm-12.02-82.773a2.58 2.58 0 10-5.16.005 2.58 2.58 0 005.16-.005zm-3.003-27.184a2.58 2.58 0 00-5.16 0 2.579 2.579 0 002.581 2.578 2.578 2.578 0 002.579-2.578zM77.414 48.605a2.58 2.58 0 00-5.16 0 2.579 2.579 0 002.582 2.579 2.578 2.578 0 002.578-2.579zm-25.426 100.43a2.58 2.58 0 10-5.159.005 2.58 2.58 0 005.16-.005zm-15.675 20.496a4.17 4.17 0 00-4.168-4.168 4.17 4.17 0 00-4.168 4.168 4.17 4.17 0 004.168 4.168 4.17 4.17 0 004.167-4.168zM14.172 58.387a2.579 2.579 0 10-2.578 2.578 2.578 2.578 0 002.578-2.578zM9.129 88.234a2.579 2.579 0 00-2.582-2.578 2.578 2.578 0 000 5.156 2.582 2.582 0 002.582-2.578zM8.105 98.21a2.578 2.578 0 10-5.156.001 2.578 2.578 0 005.156 0zm0 0" fill="none" stroke-width=".51" stroke="#000" stroke-miterlimit="10" />
    <path d="M5.469 84.86a2.578 2.578 0 00-5.157 0 2.579 2.579 0 105.156 0zm0 0" fill="none" stroke-width=".51" stroke="#000" stroke-miterlimit="10" />
    <path d="M207.773 104.902a2.12 2.12 0 10-4.238 0 2.12 2.12 0 104.238 0m31.907 18.738a1.63 1.63 0 00-1.625-1.628 1.63 1.63 0 00-1.63 1.629 1.63 1.63 0 001.63 1.625c.894 0 1.625-.73 1.625-1.625m-4.348 11.254a1.559 1.559 0 10-3.117 0 1.558 1.558 0 103.117 0m-27.527-7.685a1.357 1.357 0 00-2.715 0 1.357 1.357 0 002.715 0m46.371-98.163a1.326 1.326 0 10-2.653-.004 1.326 1.326 0 002.653.004M221.223 39.11a1.056 1.056 0 10-2.114.003 1.056 1.056 0 002.114-.004m-6.215 61.118a.424.424 0 00-.426-.426.424.424 0 100 .847.423.423 0 00.426-.421m3.855 3.511a.427.427 0 10-.853.002.427.427 0 00.853-.002m19.645-41.3a.423.423 0 00-.426-.422.423.423 0 100 .847.424.424 0 00.426-.425m-24.012-41.469a.424.424 0 10-.848 0 .424.424 0 10.848 0m23.133 71.261a.427.427 0 00-.852 0 .427.427 0 00.852 0m-18.453-28.601a.427.427 0 00-.852 0 .427.427 0 00.852 0m23.101 59.981a.427.427 0 00-.851 0 .427.427 0 00.851 0m1.586-63.184a.424.424 0 10-.847 0 .423.423 0 10.847 0m-28.715 34.129a.424.424 0 10-.847 0 .423.423 0 10.847 0m22.793-61.086a.427.427 0 00-.851 0 .427.427 0 00.851 0M215.52 90.586a.427.427 0 00-.852 0 .427.427 0 00.852 0m-8.11 5.274a.424.424 0 10-.847 0 .423.423 0 10.847 0m46.63-31.294a.424.424 0 10-.847-.003.424.424 0 00.846.003m-42.742 41.981a.428.428 0 00-.43-.426.423.423 0 00-.422.426c0 .234.188.426.422.426.238 0 .43-.192.43-.426m30.953-18.539a.427.427 0 00-.852 0 .427.427 0 00.852 0m1.188-15.223a.423.423 0 10-.848 0 .424.424 0 10.847 0m-31.972-4.109a.427.427 0 00-.852 0 .427.427 0 00.852 0m1.925 30.784a.423.423 0 00-.421-.425.428.428 0 00-.43.426c0 .234.191.426.43.426a.423.423 0 00.422-.426m3.515-41.699a.427.427 0 00-.851 0 .427.427 0 00.851 0m.114-32.625a.424.424 0 10-.849-.003.424.424 0 00.849.003m-4.989 89.203a.427.427 0 00-.851 0 .427.427 0 00.851 0m27.669-3.969a.427.427 0 00-.852 0 .427.427 0 00.851 0m-13.777-89.348a.423.423 0 00-.426-.421.423.423 0 100 .847.424.424 0 00.426-.426m29.109 47.286a.422.422 0 00-.426-.426.421.421 0 00-.421.426.423.423 0 00.848 0m-15.505-39.176a.427.427 0 00-.851 0 .427.427 0 00.851 0" />
    <path d="M236.465 123.867a.427.427 0 00-.852 0c0 .235.192.422.426.422a.423.423 0 00.426-.422m3.262-36.172a.427.427 0 00-.852 0 .427.427 0 00.852 0m-21.914-65.566a.423.423 0 10-.848 0 .424.424 0 10.847 0m-4.335 110.695a.423.423 0 10-.848-.005.423.423 0 00.848.005m10.859-11.765a.427.427 0 00-.852 0 .427.427 0 00.852 0m-64.16-17.375a3.11 3.11 0 00-3.11-3.11 3.11 3.11 0 00-3.105 3.11 3.106 3.106 0 003.105 3.105c1.72 0 3.11-1.39 3.11-3.105m47.874-23.813a2.452 2.452 0 10-4.905 0 2.452 2.452 0 104.906 0M91.402 28.055a2.397 2.397 0 00-2.394-2.395 2.397 2.397 0 00-2.395 2.395 2.397 2.397 0 002.395 2.394 2.397 2.397 0 002.394-2.394m109.774 31.066a2.355 2.355 0 10-2.355 2.355c1.3 0 2.355-1.054 2.355-2.355m-52.547 56.895a2.164 2.164 0 10-4.328 0 2.164 2.164 0 004.328 0m23.911-17.633a2.12 2.12 0 10-4.242-.001 2.12 2.12 0 004.241 0M74.8 94.895a1.866 1.866 0 00-3.73 0c0 1.03.836 1.863 1.864 1.863a1.864 1.864 0 001.867-1.863M43.695 28.879a1.658 1.658 0 10-3.316-.005 1.658 1.658 0 003.316.005m153.653 36.195c0-.703-.57-1.273-1.274-1.273a1.275 1.275 0 101.274 1.273m-8.004-9.238a1.349 1.349 0 10-2.701-.006 1.349 1.349 0 002.7.006M66.54 89.566a1.03 1.03 0 10-2.063 0 1.03 1.03 0 102.062 0M34.953 11.559a.909.909 0 10-1.817-.004.909.909 0 001.817.004M157.32 33.98a.877.877 0 10-1.753-.004.877.877 0 001.753.004m-89.277 96.067a.864.864 0 00-.863-.863.862.862 0 10.863.863" />
    <path d="M195.809 66.406a.815.815 0 10-1.627.005.815.815 0 001.627-.005M70.813 8.55a.798.798 0 10-1.596.002.798.798 0 001.596-.001m2.699 58.679a.69.69 0 10-1.38-.002.69.69 0 001.38.002m90.164-19.93a.628.628 0 10-.625.63.628.628 0 00.625-.63m-9.309 21.036a.56.56 0 10-1.12 0 .56.56 0 101.12-.001m13.586-9.608a.427.427 0 00-.851 0 .427.427 0 00.851 0M34.895 118.988a.427.427 0 10-.854.002.427.427 0 00.854-.002M172.262 88.32a.427.427 0 00-.852 0 .427.427 0 00.852 0m11.566 27.524a.427.427 0 00-.851 0 .427.427 0 00.851 0M11.793 93.164a.426.426 0 10-.852.008.426.426 0 00.852-.008m162.367 26.902a.427.427 0 00-.851 0 .427.427 0 00.851 0M156.559 94.3a.427.427 0 00-.852 0 .427.427 0 00.852 0m-98.903-5.558a.423.423 0 00-.426-.422.423.423 0 00-.425.422c0 .238.191.43.425.43a.428.428 0 00.426-.43M36.594 74.543a.424.424 0 10-.848 0 .423.423 0 10.848 0m102.304-32.938a.427.427 0 00-.851 0 .427.427 0 00.851 0m60.235 60.833a.424.424 0 00-.426-.426.424.424 0 100 .847.423.423 0 00.426-.421m-34.637-19.645a.427.427 0 00-.851 0 .427.427 0 00.851 0m-79.465 22.762a.785.785 0 10-1.57 0 .785.785 0 001.57 0m99.929 21.004a.427.427 0 00-.85 0 .427.427 0 00.85 0M79.457 89.426a.427.427 0 10-.854.002.427.427 0 00.854-.002M188.164 1.523a.427.427 0 00-.851 0 .427.427 0 00.851 0M72.793 117.348a.424.424 0 00-.426-.426.424.424 0 100 .848.423.423 0 00.426-.422m118.488-12.332a.427.427 0 00-.851 0 .427.427 0 00.851 0m18.34-68.371a.427.427 0 10-.85.002.427.427 0 00.85-.002m-71.433 20.41a.423.423 0 10-.848 0 .424.424 0 10.847 0m-24.574 22.929a.427.427 0 00-.851 0 .427.427 0 00.851 0m70.016 39.344a.423.423 0 00-.426-.422.423.423 0 100 .848.424.424 0 00.426-.426m-24.039-99.89a.427.427 0 00-.852 0 .427.427 0 00.852 0m-51.137 73.699a.427.427 0 00-.851 0 .427.427 0 00.851 0m90.34-84.442a.427.427 0 00-.852 0c0 .235.192.422.426.422a.423.423 0 00.426-.422M20.95 122.617a.427.427 0 00-.852 0 .427.427 0 00.851 0m142.949 4.593a.427.427 0 10-.85.002.427.427 0 00.85-.001M67.293 69.98a.422.422 0 00-.426-.425.421.421 0 00-.422.425.42.42 0 00.422.422.421.421 0 00.426-.422" />
    <path d="M108.766 93.848a.427.427 0 00-.852 0 .427.427 0 00.852 0m83-7.625a.427.427 0 00-.852 0 .427.427 0 00.852 0M118.941 60.54a.427.427 0 00-.851 0 .427.427 0 00.851 0M10.602 35.395a.423.423 0 00-.426-.422.423.423 0 100 .847.424.424 0 00.426-.425M196.07 86.023a.423.423 0 10-.847 0 .424.424 0 10.847 0m-17.882-63.468a.427.427 0 00-.852 0 .427.427 0 00.851 0M24.773 25.871a.427.427 0 10-.85.002.427.427 0 00.85-.002m17.747 4.254a.427.427 0 00-.852 0 .427.427 0 00.852 0m38.039-9.781a.423.423 0 10-.848 0 .423.423 0 10.848 0m12.957 20.922a.424.424 0 00-.426-.426.424.424 0 100 .847.423.423 0 00.426-.421m-26.418 87.816a.427.427 0 00-.852 0 .427.427 0 00.852 0m-48.418-1.078a.427.427 0 00-.852 0 .427.427 0 00.852 0m55.105-84.727a.427.427 0 00-.851 0 .427.427 0 00.851 0m58.848 74.578a.427.427 0 00-.852 0 .427.427 0 00.852 0m65.394 7.883a.427.427 0 00-.852 0c0 .235.192.422.427.422a.421.421 0 00.425-.422M127.219 21.45a.427.427 0 00-.852 0 .427.427 0 00.852 0m53.746 76.734a.427.427 0 00-.852 0 .427.427 0 00.852 0m-122.43 6.972a.427.427 0 00-.851 0 .427.427 0 00.851 0M138.3 89.254a.423.423 0 10-.847 0 .424.424 0 10.848 0m45.355-66.559a.427.427 0 10-.853.002.427.427 0 00.853-.002m-58.196 4.141a.427.427 0 00-.85 0 .427.427 0 00.85 0m28.888 77.5a.427.427 0 00-.852 0 .427.427 0 00.852 0m-64.633 9.211a.424.424 0 10-.848 0 .423.423 0 10.848 0m-59.61-32.512a.427.427 0 00-.851 0 .427.427 0 00.851 0m37.899 8.871a.427.427 0 00-.852 0 .427.427 0 00.852 0m-47.34 9.75a.427.427 0 00-.852 0 .427.427 0 00.852 0m178.274-5.383a.424.424 0 00-.426-.425.422.422 0 00-.426.425.42.42 0 00.426.422.423.423 0 00.425-.422M59.441 6.879a.424.424 0 10-.847 0 .423.423 0 10.847 0m6.633 41.84a.427.427 0 10-.85.002.427.427 0 00.85-.002m38.555 1.219a.427.427 0 00-.852 0 .427.427 0 00.852 0m35.742 10.574a.427.427 0 00-.851 0 .427.427 0 00.851 0m-27.609-6.094a.427.427 0 00-.852 0 .427.427 0 00.852 0m63.441 6.035a.427.427 0 00-.851 0 .427.427 0 00.851 0m-78.18 43.824a.427.427 0 00-.851 0 .427.427 0 00.851 0m-.113-35.121a.427.427 0 00-.851 0 .427.427 0 00.851 0m2.153-7.652a.427.427 0 00-.852 0 .427.427 0 00.852 0m99.156-43.313a.424.424 0 00-.426-.425.424.424 0 100 .847.423.423 0 00.426-.422m-14.883 30.782a.423.423 0 00-.426-.422.423.423 0 100 .847.424.424 0 00.426-.425m8.391 42.863a.423.423 0 10-.848 0 .423.423 0 10.848 0M32.738 113.094a.423.423 0 10-.847 0 .423.423 0 10.848 0m8.847 5.441a.427.427 0 00-.852 0 .427.427 0 00.852 0M114.234 35a.423.423 0 10-.847 0 .424.424 0 10.847 0M30.645 16.488a.427.427 0 10-.854.002.427.427 0 00.854-.002m152.617 74.325a.427.427 0 00-.852 0 .427.427 0 00.852 0m.308-23.583a.424.424 0 10-.847 0 .423.423 0 10.847 0M75.969 32.871a.426.426 0 10-.852.008.426.426 0 00.852-.008m-9.977 69.309a.427.427 0 00-.851 0 .427.427 0 00.851 0m126.422-54.028a.424.424 0 10-.848 0 .423.423 0 10.848 0m-178.75 8.446a.423.423 0 00-.426-.422.423.423 0 100 .847.424.424 0 00.426-.425m59.582-2.039a.423.423 0 10-.848 0 .423.423 0 10.848 0m15.875 41.187a.427.427 0 00-.851 0 .427.427 0 00.851 0M50.145 75.734a.424.424 0 00-.426-.425.427.427 0 10.426.426m83.679 34.667a.424.424 0 00-.426-.425.427.427 0 10.426.426m-24.351-89.04a.423.423 0 00-.422-.425.425.425 0 100 .852.421.421 0 00.422-.427m69.875 47a.427.427 0 00-.852 0 .427.427 0 00.852 0m-49.52 28.347a.427.427 0 00-.851 0 .427.427 0 00.851 0M3.855 128.258a.423.423 0 00-.425-.422.423.423 0 100 .848.427.427 0 00.425-.426m6.008 7.144a.427.427 0 10-.85.002.427.427 0 00.85-.002M7.371 97.246a.426.426 0 10-.852.008.426.426 0 00.852-.008m0-10.91a.427.427 0 00-.851 0 .427.427 0 00.851 0M5.813 98.07a.427.427 0 00-.852 0 .427.427 0 00.851 0m2.352-29.566a.427.427 0 00-.851 0 .427.427 0 00.851 0M3.063 46.168a.427.427 0 00-.852 0 .427.427 0 00.852 0m2.406 39.996a.423.423 0 10-.848 0 .423.423 0 10.848 0m221.508 130.055a2.19 2.19 0 00-4.38 0 2.189 2.189 0 004.38 0m18.644-.059a1.898 1.898 0 10-3.797 0 1.899 1.899 0 103.797 0m-8.581 27.98a1.792 1.792 0 10-1.793 1.79c.987 0 1.792-.801 1.792-1.79m14.649-58.96c0-.907-.739-1.645-1.645-1.645a1.644 1.644 0 000 3.285c.906 0 1.644-.734 1.644-1.64m-38.878-25.625a1.287 1.287 0 00-2.575 0 1.286 1.286 0 002.575 0m39.519 92.805a1.178 1.178 0 10-2.355.003 1.178 1.178 0 002.355-.004m-32.468-26.957a.799.799 0 00-1.598 0 .799.799 0 001.597 0m-.996 17.293a.427.427 0 00-.851 0c0 .235.191.422.425.422a.423.423 0 00.426-.422m28.828-53.718a.427.427 0 00-.851 0 .427.427 0 00.851 0m-5.839 12.613a.427.427 0 10-.854.002.427.427 0 00.854-.002m-29.196 37.844a.427.427 0 00-.851 0 .427.427 0 00.851 0m14.739-71.974a.423.423 0 10-.848 0 .424.424 0 10.848 0m-4.563 1.446a.423.423 0 00-.426-.422.423.423 0 100 .848.424.424 0 00.426-.426M248.23 245.7a.427.427 0 00-.851 0 .427.427 0 00.851 0m-55.843-30.247a.427.427 0 00-.852 0 .427.427 0 00.852 0m10.573-54.566a.427.427 0 00-.85 0 .427.427 0 00.85 0m46.688 62.758a.427.427 0 00-.851 0 .427.427 0 00.851 0m-29.82-35.547a.427.427 0 00-.851 0 .427.427 0 00.851 0m21.317 20.523a.427.427 0 00-.852 0 .427.427 0 00.852 0M219.262 238.7a.424.424 0 00-.426-.427.424.424 0 100 .848.423.423 0 00.426-.422m22.788-51.508a.427.427 0 00-.85 0 .427.427 0 00.85 0m5.075 30.672a.427.427 0 00-.852 0 .427.427 0 00.852 0M217.02 167.86a.423.423 0 10-.848 0 .423.423 0 10.848 0m-16.637 8.644a.427.427 0 00-.852 0 .427.427 0 00.852 0m27.836 32.23a.427.427 0 00-.852 0 .427.427 0 00.852 0m-16.016 10.008a.427.427 0 10-.853.002.427.427 0 00.853-.002m.309-28.176a.421.421 0 00-.422-.425.424.424 0 100 .848.42.42 0 00.422-.423m-15.645 63.75a.427.427 0 00-.851 0 .427.427 0 00.851 0m1.843-51.589a.428.428 0 00-.429-.426.423.423 0 00-.422.426.427.427 0 00.852 0m24.434-1.731a.427.427 0 00-.852 0 .427.427 0 00.852 0m22.789 36.567a.427.427 0 00-.852 0 .427.427 0 00.852 0m-45.551 5.273a.427.427 0 00-.852 0 .427.427 0 00.852 0" />
    <path d="M243.695 216.813a.427.427 0 00-.851 0 .427.427 0 00.851 0m8.672-25.086a.424.424 0 10-.847 0 .424.424 0 10.848 0m-44.899-51.024a.427.427 0 00-.852 0 .427.427 0 00.852 0m26.671 18.254a.427.427 0 10-.853.002.427.427 0 00.854-.002m-1.301 40.083a.426.426 0 10-.851 0 .426.426 0 00.85 0m14.852 20.948a.427.427 0 00-.851 0 .427.427 0 00.851 0m-41.925-74.438a.423.423 0 00-.422-.425.428.428 0 00-.43.426c0 .234.191.426.43.426a.423.423 0 00.422-.426m-8.192 40.082a.427.427 0 00-.851 0 .427.427 0 00.851 0m32.684-40.933a.427.427 0 00-.852 0 .427.427 0 00.852 0m-1.5 58.905a.426.426 0 10-.851 0 .426.426 0 00.85 0m-18.683 3.059a.424.424 0 10-.847 0 .42.42 0 00.421.426.422.422 0 00.426-.426m38.156 44.848a.424.424 0 00-.425-.426.424.424 0 100 .848.423.423 0 00.425-.422m-7.457-92.949a.423.423 0 10-.847 0 .424.424 0 10.847 0m7.09 40.477a.427.427 0 10-.853.001.427.427 0 00.853-.002m-55.105 8.617a.427.427 0 10-.854.002.427.427 0 00.854-.002m30.555-6.375a.424.424 0 10-.848 0 .423.423 0 10.847 0m-157.41-19.078a2.805 2.805 0 10-5.609 0 2.805 2.805 0 005.61 0m.054 42.235a2.687 2.687 0 10-5.375 0 2.687 2.687 0 005.375 0m60.898-65.594a2.472 2.472 0 00-2.472-2.469 2.469 2.469 0 00-2.469 2.469 2.47 2.47 0 104.941 0m-71.953 38.437a2.406 2.406 0 00-2.406-2.402 2.406 2.406 0 00-2.402 2.402 2.406 2.406 0 002.402 2.406 2.407 2.407 0 002.406-2.406" />
    <path d="M69.48 183.137a2.242 2.242 0 10-4.484 0 2.242 2.242 0 004.484 0m-58.156-41.555a2.055 2.055 0 10-4.11 0 2.055 2.055 0 004.11 0m37.418 64.402a2.029 2.029 0 10-4.06.003 2.029 2.029 0 004.06-.003m75.398-20.524a1.997 1.997 0 10-3.994.003 1.997 1.997 0 003.995-.002M3.023 189.715a1.974 1.974 0 10-3.95 0 1.976 1.976 0 103.95 0m39.079-5.047a1.91 1.91 0 00-1.907-1.906 1.906 1.906 0 101.906 1.906m55.84 38.496a1.82 1.82 0 10-3.642-.001 1.82 1.82 0 003.642.001m97.938-31.464a1.762 1.762 0 10-3.524 0 1.762 1.762 0 003.524 0" />
    <path d="M123.129 185.234a1.635 1.635 0 10-3.27.006 1.635 1.635 0 003.27-.006m-2.652 30.844a1.59 1.59 0 00-1.59-1.594 1.59 1.59 0 00-1.594 1.594c0 .879.71 1.59 1.594 1.59.879 0 1.59-.711 1.59-1.59m24.964-50.203c0-.578-.468-1.043-1.046-1.043a1.046 1.046 0 101.047 1.043m41.858 13.578a.95.95 0 10-1.9.002.95.95 0 001.9-.002m-34.554-17.262a.951.951 0 10-1.902-.004.951.951 0 001.902.004m-91.59 31.293a.864.864 0 10-1.727 0 .864.864 0 001.727 0m92.172 60.008a.513.513 0 00-.512-.512.511.511 0 10.512.512m-128.297-1.047a.427.427 0 00-.851 0 .427.427 0 00.851 0m44.192-3.488a.427.427 0 10-.854.002.427.427 0 00.854-.002m111.117-10.289a.427.427 0 00-.852 0 .427.427 0 00.852 0" />
    <path d="M120.074 216.078a.424.424 0 10-.847 0 .423.423 0 10.847 0m-76.449-9.808a.427.427 0 00-.852 0 .427.427 0 00.852 0m-7.566-59.528a.427.427 0 00-.852 0 .427.427 0 00.852 0m4.336 90.879a.427.427 0 00-.852 0 .427.427 0 00.852 0m62.902-79.543a.424.424 0 00-.43-.422.42.42 0 00-.422.422.426.426 0 10.852 0m-67.75 61.285a.423.423 0 00-.426-.422.423.423 0 100 .848.427.427 0 00.426-.426m154.289-26.73a.423.423 0 00-.426-.422.423.423 0 100 .848.427.427 0 00.426-.426m-43.965 35.605a.427.427 0 00-.851 0 .427.427 0 00.851 0m-38.691-84.332a.427.427 0 00-.852 0 .427.427 0 00.852 0m-8.137 88.469a.427.427 0 00-.852 0 .427.427 0 00.852 0m-17.493-1.5a.423.423 0 10-.846-.005.423.423 0 00.847.005m86.289 22.309a.427.427 0 00-.852 0c0 .234.192.421.426.421a.423.423 0 00.426-.421M19.645 138.691a.427.427 0 00-.852 0 .427.427 0 00.852 0m103.55 69.305a.423.423 0 00-.425-.422.423.423 0 100 .848.427.427 0 00.425-.426M5.586 243.316a.427.427 0 00-.852 0 .427.427 0 00.852 0m79.566 10.829a.427.427 0 10-.853.002.427.427 0 00.853-.002m-5.64-11.082a.427.427 0 00-.852 0 .427.427 0 00.852 0m70.16-30.5a.428.428 0 00-.43-.426.423.423 0 00-.422.425c0 .235.188.426.422.426.238 0 .43-.191.43-.425m1.019 31.464a.427.427 0 00-.851 0 .427.427 0 00.851 0m10.344-49.523a.424.424 0 10-.847 0 .423.423 0 10.847 0m0-11.563a.422.422 0 00-.426-.425.421.421 0 00-.422.425.42.42 0 00.422.422.421.421 0 00.426-.422m-41.075 29.196a.427.427 0 00-.85 0 .427.427 0 00.85 0m45.696 7.398a.427.427 0 00-.851 0 .427.427 0 00.851 0M16.27 241.477a.422.422 0 00-.426-.426.421.421 0 00-.422.426.423.423 0 10.848 0m-1.473-20.864a.427.427 0 00-.852 0 .427.427 0 00.852 0m128.41-.879a.427.427 0 00-.852 0 .427.427 0 00.852 0m-13.551-24.89a.427.427 0 00-.851 0 .427.427 0 00.851 0m-39.941 52.953a.424.424 0 10-.848 0 .423.423 0 10.848 0m24.664-96.152a.427.427 0 00-.852 0 .427.427 0 00.852 0m56.831-15.45a.424.424 0 10-.847 0 .423.423 0 10.848 0M87.648 154.79a.426.426 0 10-.851.007.426.426 0 00.851-.008m-83.992-9.891a.427.427 0 00-.851 0 .427.427 0 00.851 0m180.598 11.055a.427.427 0 00-.852 0 .427.427 0 00.852 0m-133.91 26.676a.427.427 0 00-.852 0 .427.427 0 00.852 0m34.301-33.934a.423.423 0 00-.426-.422.421.421 0 00-.426.422c0 .239.187.426.426.426a.424.424 0 00.426-.426m-51.422 21.543a.423.423 0 00-.426-.422.423.423 0 100 .848.424.424 0 00.426-.426m61.453 26.504a.42.42 0 00-.422-.422.421.421 0 00-.426.422c0 .238.188.426.426.426a.421.421 0 00.422-.426M58.367 150.34a.427.427 0 00-.851 0 .427.427 0 00.851 0m74.039 54.906a.423.423 0 00-.426-.422.423.423 0 100 .848.424.424 0 00.426-.426m53.434-26.219a.427.427 0 00-.852 0 .427.427 0 00.852 0m-158.145 6.352a.427.427 0 00-.851 0c0 .234.191.422.426.422a.423.423 0 00.425-.422m60.774 44.671a.427.427 0 00-.852 0 .427.427 0 00.852 0m-62.106 3.516a.427.427 0 00-.851 0 .427.427 0 00.851 0m92.266-26.05a.427.427 0 00-.852 0 .427.427 0 00.852 0m37.305-27.582a.427.427 0 00-.852 0 .427.427 0 00.852 0m-93.118 72.851a.427.427 0 00-.851 0 .427.427 0 00.851 0m77.582-29.281a.423.423 0 10-.847 0 .424.424 0 10.847 0M34.242 166.613a.427.427 0 00-.851 0 .427.427 0 00.851 0m33.308 44.305a.427.427 0 00-.85 0 .427.427 0 00.85 0m109.645-1.531a.427.427 0 00-.851 0 .427.427 0 00.851 0M17.602 220.188a.423.423 0 10-.848 0 .423.423 0 10.848 0m36.258 3.628a.427.427 0 00-.852 0 .427.427 0 00.851 0m83.395-73.05a.427.427 0 00-.852 0 .427.427 0 00.852 0m23.586 77.274a.426.426 0 10-.851 0 .426.426 0 00.85 0m-41.359-11.142a.427.427 0 00-.851 0 .427.427 0 00.851 0m69.25-29.648a.427.427 0 00-.851 0c0 .234.191.422.426.422a.423.423 0 00.425-.422M34.809 169.305a.427.427 0 00-.852 0 .427.427 0 00.852 0m48.218-3.942a.423.423 0 00-.425-.422.423.423 0 100 .848.427.427 0 00.425-.426m22.821 21.235a.424.424 0 00-.426-.426.427.427 0 10.426.426m34.75-6.918a.427.427 0 00-.852 0 .427.427 0 00.852 0m37.332-28.035a.427.427 0 00-.852 0 .427.427 0 00.852 0m-99.27 29.933a.427.427 0 00-.851 0 .427.427 0 00.851 0m-62.558-.254a.427.427 0 00-.852 0 .427.427 0 00.852 0m73.558 9.242a.424.424 0 00-.426-.425.424.424 0 100 .847.423.423 0 00.426-.422m-58.45-23.132a.427.427 0 00-.85 0 .427.427 0 00.85 0m11.395 43.91a.427.427 0 00-.851 0 .427.427 0 00.851 0m77.922 9.609a.423.423 0 10-.847 0 .424.424 0 10.847 0m-88.211-51.621a.427.427 0 00-.851 0 .427.427 0 00.851 0m63.918-37.359a.423.423 0 10-.847 0 .423.423 0 10.848 0m13.636 38.75a.427.427 0 00-.851 0 .427.427 0 00.851 0m-7.824 9.468a.427.427 0 00-.852 0c0 .235.192.422.426.422a.423.423 0 00.426-.422m-83.907-.113a.427.427 0 10-.85.002.427.427 0 00.85-.002m72.512-33.368a.427.427 0 00-.851 0 .427.427 0 00.851 0m103.977-.82a.427.427 0 00-.852 0 .427.427 0 00.852 0M69.848 179.227a.427.427 0 00-.852 0 .427.427 0 00.852 0m-35.208-3.942a.427.427 0 00-.85 0 .427.427 0 00.85 0m38.864 69.789a.427.427 0 00-.852 0 .427.427 0 00.852 0m60.348-58.847a.427.427 0 00-.852 0 .427.427 0 00.852 0M32.57 181.805a.427.427 0 00-.851 0 .427.427 0 00.851 0m.625-17.235a.427.427 0 00-.851 0 .427.427 0 00.851 0m75.598 85.836a.424.424 0 00-.426-.426.424.424 0 100 .848.423.423 0 00.426-.422m3.883-67.808a.42.42 0 00-.422-.422.421.421 0 00-.426.422c0 .238.188.425.426.425a.421.421 0 00.422-.425m80.024-28.231a.427.427 0 00-.852 0 .427.427 0 00.851 0M62.531 223.73a.427.427 0 10-.85.002.427.427 0 00.85-.002m61.231-42.066a.427.427 0 00-.852 0 .427.427 0 00.852 0m-75.375 63.75a.427.427 0 00-.852 0 .427.427 0 00.852 0m38.777-74.918a.424.424 0 10-.848 0 .423.423 0 10.848 0m78.52 25.964a.423.423 0 10-.848 0 .424.424 0 10.848 0m-32.2 10.716a.427.427 0 00-.851 0 .427.427 0 00.851 0m-32.203-39.571a.424.424 0 00-.426-.425.427.427 0 10.426.426m69.309 53.914a.427.427 0 00-.852 0 .427.427 0 00.852 0M28.035 250.434a.427.427 0 00-.851 0 .427.427 0 00.851 0m88.355-45.215a.427.427 0 00-.85 0 .427.427 0 00.85 0M6.578 166.867a.427.427 0 00-.851 0 .427.427 0 00.851 0m67.462-2.89a.423.423 0 10-.849 0 .423.423 0 10.848 0m-10.996-1.957a.427.427 0 00-.852 0 .427.427 0 00.852 0" />
    <path d="M33.137 169.05a.427.427 0 00-.852 0 .427.427 0 00.852 0m152.191-19.39a.427.427 0 00-.851 0 .427.427 0 00.851 0m-80.218 79.2a.427.427 0 00-.852 0 .427.427 0 00.851 0m28.575-21.626a.424.424 0 00-.426-.425.424.424 0 100 .847.423.423 0 00.426-.422m-91.332 13.039a.424.424 0 00-.426-.425.427.427 0 10.426.426m43-89.094a.427.427 0 00-.852 0 .427.427 0 00.852 0m106.355 74.804a.427.427 0 00-.852 0 .427.427 0 00.852 0m-57.57 36.34a.427.427 0 00-.852 0 .427.427 0 00.852 0M58.96 189.602a.427.427 0 00-.85 0 .427.427 0 00.85 0m47.567 49.125a.427.427 0 00-.851 0 .427.427 0 00.851 0m-74.609-37.504a.427.427 0 00-.852 0 .427.427 0 00.852 0m62.445-9.325a.423.423 0 10-.847 0 .423.423 0 10.848 0M9.355 228.86a.427.427 0 00-.851 0 .427.427 0 00.851 0m13.692-46.204a.427.427 0 00-.852 0 .427.427 0 00.852 0m97 30.813a.427.427 0 00-.852 0 .427.427 0 00.852 0m78.039-68.031a.427.427 0 00-.852 0 .427.427 0 00.852 0m-41.02 92.578a.423.423 0 10-.847 0 .424.424 0 10.847 0m-39.144-105.391a.427.427 0 00-.852 0 .427.427 0 00.852 0m-35.234 15.422a.424.424 0 00-.426-.426.424.424 0 100 .848.423.423 0 00.425-.422m33.536 5.328a.427.427 0 00-.852 0 .427.427 0 00.852 0" />
    <path d="M32.57 169.531a.427.427 0 00-.851 0 .427.427 0 00.851 0m37.871 22.055a.427.427 0 00-.851 0 .427.427 0 00.851 0M46.32 155.105a.424.424 0 00-.425-.425.422.422 0 00-.426.425.42.42 0 00.426.422.423.423 0 00.425-.422m33.051 30.583a.423.423 0 00-.426-.422.423.423 0 100 .847.427.427 0 00.426-.425" />
    <path d="M32.316 169.902a.424.424 0 00-.425-.425.424.424 0 100 .847.423.423 0 00.425-.422m13.266 21.77a.424.424 0 00-.426-.426.424.424 0 100 .848.423.423 0 00.426-.422M6.434 158.957a.423.423 0 10-.848 0c0 .238.187.426.426.426a.421.421 0 00.422-.426m28.406 50.262a.424.424 0 00-.426-.426.424.424 0 100 .848.423.423 0 00.426-.422m28.683-51.367a.427.427 0 10-.85.002.427.427 0 00.85-.002m-29.507 13.156a.424.424 0 00-.426-.426.424.424 0 100 .848.423.423 0 00.426-.422m85.718 41.442a.424.424 0 10-.847 0 .423.423 0 10.847 0m24.493 24.234a.427.427 0 00-.852 0 .427.427 0 00.852 0m-9.696-93.317a.424.424 0 10-.847 0 .423.423 0 10.847 0m-56.265 28.914a.427.427 0 00-.852 0 .427.427 0 00.852 0m85.379-20.238a.427.427 0 00-.852 0 .427.427 0 00.852 0M60.832 184.895a.427.427 0 00-.852 0 .427.427 0 00.852 0m61.398 27.555a.427.427 0 00-.851 0 .427.427 0 00.851 0M12.84 186.71a.424.424 0 10-.848 0 .423.423 0 10.848 0" />
    <path d="M119.566 212.223a.427.427 0 00-.851 0 .427.427 0 00.851 0m-27.75-13.465a.427.427 0 00-.851 0 .427.427 0 00.851 0m20.407 39.398a.423.423 0 00-.426-.422.423.423 0 100 .848.424.424 0 00.426-.426M87.73 230.79a.423.423 0 10-.847 0 .423.423 0 10.848 0m94.593-35.38a.423.423 0 00-.426-.422.423.423 0 100 .848.424.424 0 00.426-.426M31.86 139.059a.423.423 0 10-.848 0 .423.423 0 10.848 0" />
    <path d="M92.855 25.547l.083-.055" fill="none" stroke-width=".992" stroke-linecap="round" stroke="#27c427" stroke-miterlimit="10" />
    <path d="M144.973-7.934l-52.118 33.48" fill="none" stroke-width=".992" stroke="#27c427" stroke-miterlimit="10" />
    <path d="M84.43 28.121h-.098m-38.426.692l.102-.004" fill="none" stroke-width=".992" stroke-linecap="round" stroke="#27c427" stroke-miterlimit="10" />
    <path d="M84.43 28.121l-38.524.691" fill="none" stroke-width=".992" stroke="#27c427" stroke-miterlimit="10" />
    <path d="M39.145 26.34l-.079-.07" fill="none" stroke-width=".992" stroke-linecap="round" stroke="#27c427" stroke-miterlimit="10" />
    <path d="M39.145 26.34L2.84-5.66" fill="none" stroke-width=".992" stroke="#27c427" stroke-miterlimit="10" />
    <path d="M87.93 32.504l-.024.098M73.875 90.953l.023-.094" fill="none" stroke-width=".992" stroke-linecap="round" stroke="#27c427" stroke-miterlimit="10" />
    <path d="M87.93 32.504l-14.055 58.45" fill="none" stroke-width=".992" stroke="#27c427" stroke-miterlimit="10" />
    <path d="M201.426 104.102l-.102-.016m-26.648-4.934l.097.02" fill="none" stroke-width=".992" stroke-linecap="round" stroke="#27c427" stroke-miterlimit="10" />
    <path d="M201.426 104.102l-26.75-4.95" fill="none" stroke-width=".992" stroke="#27c427" stroke-miterlimit="10" />
    <path d="M196.148 62.813l-.058.082m-23.14 31.968l.058-.082" fill="none" stroke-width=".992" stroke-linecap="round" stroke="#27c427" stroke-miterlimit="10" />
    <path d="M196.148 62.813l-23.199 32.05" fill="none" stroke-width=".992" stroke="#27c427" stroke-miterlimit="10" />
    <path d="M201.5 82.059l-.09.046m-27.148 14.262l.086-.047" fill="none" stroke-width=".992" stroke-linecap="round" stroke="#27c427" stroke-miterlimit="10" />
    <path d="M201.5 82.059l-27.238 14.308" fill="none" stroke-width=".992" stroke="#27c427" stroke-miterlimit="10" />
    <path d="M166.414 99.957l-.09.04m-4.316 1.741l.09-.035" fill="none" stroke-width=".992" stroke-linecap="round" stroke="#27c427" stroke-miterlimit="10" />
    <path d="M166.414 99.957l-4.406 1.781" fill="none" stroke-width=".992" stroke="#27c427" stroke-miterlimit="10" />
    <path d="M153.598 107.715l-.067.074m-4.218 4.902l.066-.078" fill="none" stroke-width=".992" stroke-linecap="round" stroke="#27c427" stroke-miterlimit="10" />
    <path d="M153.598 107.715l-4.286 4.976" fill="none" stroke-width=".992" stroke="#27c427" stroke-miterlimit="10" />
    <path d="M144.48 119.883l-.046.09m-17.922 34.718l.047-.09" fill="none" stroke-width=".992" stroke-linecap="round" stroke="#27c427" stroke-miterlimit="10" />
    <path d="M144.48 119.883l-17.968 34.808" fill="none" stroke-width=".992" stroke="#27c427" stroke-miterlimit="10" />
    <path d="M124.004 163.477l-.012.101m-1.496 17.703l.012-.097" fill="none" stroke-width=".992" stroke-linecap="round" stroke="#27c427" stroke-miterlimit="10" />
    <path d="M124.004 163.477l-1.508 17.804" fill="none" stroke-width=".992" stroke="#27c427" stroke-miterlimit="10" />
    <path d="M121.695 189.613l-.011.098m-2.407 22.586l.012-.102" fill="none" stroke-width=".992" stroke-linecap="round" stroke="#27c427" stroke-miterlimit="10" />
    <path d="M121.695 189.613l-2.418 22.684" fill="none" stroke-width=".992" stroke="#27c427" stroke-miterlimit="10" />
    <path d="M115.266 217.188l-.094.03m-15.203 4.747l.094-.028" fill="none" stroke-width=".992" stroke-linecap="round" stroke="#27c427" stroke-miterlimit="10" />
    <path d="M115.266 217.188l-15.297 4.777" fill="none" stroke-width=".992" stroke="#27c427" stroke-miterlimit="10" />
    <path d="M92.113 223.324l-.101.004m-23.852.922l.098-.004" fill="none" stroke-width=".992" stroke-linecap="round" stroke="#27c427" stroke-miterlimit="10" />
    <path d="M92.113 223.324l-23.953.926" fill="none" stroke-width=".992" stroke="#27c427" stroke-miterlimit="10" />
    <path d="M60.02 220.809l-.067-.075M49.54 209.133l.065.074" fill="none" stroke-width=".992" stroke-linecap="round" stroke="#27c427" stroke-miterlimit="10" />
    <path d="M60.02 220.809l-10.48-11.676" fill="none" stroke-width=".992" stroke="#27c427" stroke-miterlimit="10" />
    <path d="M55.137 193.531l.054-.082m5.016-7.156l-.059.082" fill="none" stroke-width=".992" stroke-linecap="round" stroke="#27c427" stroke-miterlimit="10" />
    <path d="M55.137 193.531l5.07-7.238" fill="none" stroke-width=".992" stroke="#27c427" stroke-miterlimit="10" />
    <path d="M5.031 141.613h-.097" fill="none" stroke-width=".992" stroke-linecap="round" stroke="#27c427" stroke-miterlimit="10" />
    <path d="M-12.176 141.746l17.207-.133" fill="none" stroke-width=".992" stroke="#27c427" stroke-miterlimit="10" />
    <path d="M255.453 26.672l.074-.07" fill="none" stroke-width=".992" stroke-linecap="round" stroke="#27c427" stroke-miterlimit="10" />
    <path d="M287.977-3.355l-32.524 30.027" fill="none" stroke-width=".992" stroke="#27c427" stroke-miterlimit="10" />
    <path d="M153.79 255.996l.034.094" fill="none" stroke-width=".992" stroke-linecap="round" stroke="#27c427" stroke-miterlimit="10" />
    <path d="M153.79 255.996l5.565 14.41" fill="none" stroke-width=".992" stroke="#27c427" stroke-miterlimit="10" />
    <path d="M235.895 248.086l.015.101" fill="none" stroke-width=".992" stroke-linecap="round" stroke="#27c427" stroke-miterlimit="10" />
    <path d="M240.07 273.328l-4.175-25.242" fill="none" stroke-width=".992" stroke="#27c427" stroke-miterlimit="10" />
    <path d="M233.855 240.414l-.035-.094m-7.5-20.007l.035.093" fill="none" stroke-width=".992" stroke-linecap="round" stroke="#27c427" stroke-miterlimit="10" />
    <path d="M233.855 240.414l-7.535-20.101" fill="none" stroke-width=".992" stroke="#27c427" stroke-miterlimit="10" />
    <path d="M221.367 213.469l-.078-.063m-24.062-19.242l.078.063" fill="none" stroke-width=".992" stroke-linecap="round" stroke="#27c427" stroke-miterlimit="10" />
    <path d="M221.367 213.469l-24.14-19.305" fill="none" stroke-width=".992" stroke="#27c427" stroke-miterlimit="10" />
    <path d="M229.168 216.188h.098m10.363-.024h-.102" fill="none" stroke-width=".992" stroke-linecap="round" stroke="#27c427" stroke-miterlimit="10" />
    <path d="M229.168 216.188l10.46-.024" fill="none" stroke-width=".992" stroke="#27c427" stroke-miterlimit="10" />
    <path d="M249.293 188.926l-.02.097m-4.714 23.137l.02-.098" fill="none" stroke-width=".992" stroke-linecap="round" stroke="#27c427" stroke-miterlimit="10" />
    <path d="M249.293 188.926l-4.734 23.234" fill="none" stroke-width=".992" stroke="#27c427" stroke-miterlimit="10" />
    <path d="M246.625 219.066l.07.07" fill="none" stroke-width=".992" stroke-linecap="round" stroke="#27c427" stroke-miterlimit="10" />
    <path d="M246.625 219.066l20.16 20.27" fill="none" stroke-width=".992" stroke="#27c427" stroke-miterlimit="10" />
    <use xlink:href="#prefix__X" x="170.16" y="75.6" fill="#0043e9" />
    <use xlink:href="#prefix__Y" x="177.36" y="75.6" fill="#0043e9" />
    <use xlink:href="#prefix__Z" x="181.8" y="75.6" fill="#0043e9" />
    <use xlink:href="#prefix__X" x="169.44" y="113.76" fill="#0043e9" />
    <use xlink:href="#prefix__aa" x="176.64" y="113.76" fill="#0043e9" />
    <use xlink:href="#prefix__X" x="131.04" y="17.64" fill="#0043e9" />
    <use xlink:href="#prefix__ab" x="138.12" y="17.64" fill="#0043e9" />
    <use xlink:href="#prefix__Z" x="142.56" y="17.64" fill="#0043e9" />
    <use xlink:href="#prefix__ac" x="146.999" y="17.64" fill="#0043e9" />
    <use xlink:href="#prefix__ad" x="81.6" y="208.92" fill="#0043e9" />
    <use xlink:href="#prefix__ae" x="86.64" y="208.92" fill="#0043e9" />
    <use xlink:href="#prefix__af" x="92.04" y="208.92" fill="#0043e9" />
    <use xlink:href="#prefix__ag" x="98.4" y="208.92" fill="#0043e9" />
    <use xlink:href="#prefix__ah" x="102.84" y="208.92" fill="#0043e9" />
    <use xlink:href="#prefix__ai" x="107.28" y="208.92" fill="#0043e9" />
    <use xlink:href="#prefix__ab" x="111.719" y="208.92" fill="#0043e9" />
    <use xlink:href="#prefix__X" x="99.36" y="124.8" fill="#0043e9" />
    <use xlink:href="#prefix__ag" x="106.44" y="124.8" fill="#0043e9" />
    <use xlink:href="#prefix__ah" x="110.88" y="124.8" fill="#0043e9" />
    <use xlink:href="#prefix__X" x="96.24" y="112.56" fill="#0043e9" />
    <use xlink:href="#prefix__ab" x="103.44" y="112.56" fill="#0043e9" />
    <use xlink:href="#prefix__aj" x="107.88" y="112.56" fill="#0043e9" />
    <use xlink:href="#prefix__X" x="60.12" y="45.24" fill="#0043e9" />
    <use xlink:href="#prefix__aj" x="67.2" y="45.24" fill="#0043e9" />
    <use xlink:href="#prefix__X" x="52.56" y="145.68" fill="#0043e9" />
    <use xlink:href="#prefix__ag" x="59.76" y="145.68" fill="#0043e9" />
    <use xlink:href="#prefix__X" x="38.28" y="172.319" fill="#0043e9" />
    <use xlink:href="#prefix__ac" x="45.36" y="172.319" fill="#0043e9" />
    <use xlink:href="#prefix__X" x="14.76" y="67.319" fill="#0043e9" />
    <use xlink:href="#prefix__ah" x="21.96" y="67.319" fill="#0043e9" />
    <use xlink:href="#prefix__ai" x="26.4" y="67.319" fill="#0043e9" />
    <use xlink:href="#prefix__X" x="11.04" y="91.08" fill="#0043e9" />
    <use xlink:href="#prefix__ah" x="18.24" y="91.08" fill="#0043e9" />
    <use xlink:href="#prefix__Z" x="22.68" y="91.08" fill="#0043e9" />
    <use xlink:href="#prefix__X" x="8.76" y="107.16" fill="#0043e9" />
    <use xlink:href="#prefix__Y" x="15.84" y="107.16" fill="#0043e9" />
    <use xlink:href="#prefix__X" x="6.12" y="81.72" fill="#0043e9" />
    <use xlink:href="#prefix__ah" x="13.2" y="81.72" fill="#0043e9" />
    <use xlink:href="#prefix__ab" x="17.64" y="81.72" fill="#0043e9" />
    <use xlink:href="#prefix__ak" x="195.84" y="112.08" fill="#0043e9" />
    <use xlink:href="#prefix__al" x="234.72" y="120.36" fill="#0043e9" />
    <use xlink:href="#prefix__am" x="237" y="137.16" fill="#0043e9" />
    <use xlink:href="#prefix__an" x="124.8" y="106.56" fill="#0043e9" />
    <use xlink:href="#prefix__ao" x="130.08" y="106.56" fill="#0043e9" />
    <use xlink:href="#prefix__ap" x="134.52" y="106.56" fill="#0043e9" />
    <use xlink:href="#prefix__aq" x="136.68" y="106.56" fill="#0043e9" />
    <use xlink:href="#prefix__ar" x="141.12" y="106.56" fill="#0043e9" />
    <use xlink:href="#prefix__as" x="143.76" y="106.56" fill="#0043e9" />
    <use xlink:href="#prefix__at" x="148.2" y="106.56" fill="#0043e9" />
    <use xlink:href="#prefix__au" x="209.76" y="83.4" fill="#0043e9" />
    <use xlink:href="#prefix__av" x="91.92" y="35.4" fill="#0043e9" />
    <use xlink:href="#prefix__aw" x="195.36" y="53.16" fill="#0043e9" />
    <use xlink:href="#prefix__am" x="149.16" y="123.24" fill="#0043e9" />
    <use xlink:href="#prefix__ax" x="69.48" y="105.48" fill="#0043e9" />
    <use xlink:href="#prefix__ay" x="34.32" y="38.16" fill="#0043e9" />
    <use xlink:href="#prefix__az" x="215.52" y="223.44" fill="#0043e9" />
    <use xlink:href="#prefix__au" x="235.56" y="225.72" fill="#0043e9" />
    <use xlink:href="#prefix__aA" x="237.72" y="241.68" fill="#0043e9" />
    <use xlink:href="#prefix__aB" x="235.56" y="180.96" fill="#0043e9" />
    <use xlink:href="#prefix__aC" x="242.64" y="177.24" fill="#0043e9" />
    <use xlink:href="#prefix__aD" x="53.16" y="179.04" fill="#0043e9" />
    <use xlink:href="#prefix__ax" x="59.88" y="235.8" fill="#0043e9" />
    <use xlink:href="#prefix__aA" x="114.96" y="161.04" fill="#0043e9" />
    <use xlink:href="#prefix__aE" x="55.44" y="204.72" fill="#0043e9" />
    <use xlink:href="#prefix__al" x="69.96" y="190.32" fill="#0043e9" />
    <use xlink:href="#prefix__az" x="3.48" y="153.48" fill="#0043e9" />
    <use xlink:href="#prefix__aF" x="9.96" y="149.88" fill="#0043e9" />
    <use xlink:href="#prefix__aG" x="34.92" y="203.4" fill="#0043e9" />
    <use xlink:href="#prefix__aC" x="39" y="199.8" fill="#0043e9" />
    <use xlink:href="#prefix__aH" x="125.881" y="188.64" fill="#0043e9" />
    <use xlink:href="#prefix__aC" x="132.961" y="184.92" fill="#0043e9" />
    <use xlink:href="#prefix__av" x="3.601" y="196.8" fill="#0043e9" />
    <use xlink:href="#prefix__av" x="93.001" y="217.8" fill="#0043e9" />
    <use xlink:href="#prefix__av" x="196.561" y="187.32" fill="#0043e9" />
    <use xlink:href="#prefix__aH" x="106.08" y="188.4" fill="#0043e9" />
    <use xlink:href="#prefix__aF" x="113.16" y="184.8" fill="#0043e9" />
    <use xlink:href="#prefix__aI" x="121.2" y="226.561" fill="#0043e9" />
    <use xlink:href="#prefix__aF" x="126.84" y="222.961" fill="#0043e9" />
  </g>
</svg>