<svg xmlns="http://www.w3.org/2000/svg" width="350" height="770" version="1.0">
   <path d="M276.526 553.215l-.308 12.343c.092 17.745.563 36.573 4.168 49.573l19.3 143.75 11.117-1.236c-8.34-48.112-10.087-94.907-15.131-142.36-3.04-31.148-9.486-22.25-19.146-62.07z" fill="#fac53a" fill-rule="evenodd" stroke="#c13c1b" stroke-width=".432" />
   <path d="M307.785 276.18h-30.133m30.679 9.061l-30.242.437" fill="none" stroke="#000" stroke-width=".216" />
   <path d="M226.396 215.3l39.73.702c19.383 6.146 34.85 13.406 40.87 34.502 2.171 12.131.177 16.432.925 25.631l.618 9.573c1.33 20.65 1.876 41.458.309 62.688-1.256 18.426 2.698 38.086 3.088 56.512-.628 15.45-4.375 26.908-5.095 40.415l-19.3-1.505c-8.862-49.93-3.742-66.268-5.868-89.246-3.22-28.031-3.23-55.26-4.323-82.76-11.9 21.466-24.347 42.2-31.19 70.408v4.67l6.485 29.916c3.48 4.882 13.453 27.039 6.212 39.671 8.264 48.38 12.168 97.852 11.699 146.231l.617 15.75c1.314 21.451 9.94 42.913 9.573 66.393-.365 23.48-4.595 46.461-7.72 68.864-1.184 25.837 2.385 30.425 1.491 39.849-.893 9.423-6.162 8.991-11.532 8.931-5.474-.061-10.785-.988-10.974-4.595-5.653-1.587-13.631 4.933-72.263 2.662-2.539-.344-2.727-4.075-2.96-6.724 2.614-.714 5.324-1.043 8.228-.595 19.497-9.53 38.655-13.621 58.674-31.499.947-.982 1.745-2.3 1.544-5.867-2.524-35.346-10.217-72.039-13.28-107.465l-.926-5.559c-2.707-6.918-5.104-15.691-8.337-19.455-1.312-7.205-1.855-14.41-6.485-21.616l-14.932-.309c-6.778 19.142-7.696 26.922-11.735 39.836-3.146 18.89-.325 26.913-4.832 41.998-4.543 15.21-14.255 34.955-21.925 49.718-4.702 12.669-11.177 26.046-13.33 37.752-.617 7.54.635 13.363-.258 22.787-.894 9.423-6.163 8.991-11.533 8.931-5.474-.061-10.785-.988-10.974-4.595-5.652-1.587-13.63 4.933-72.263 2.662-2.538-.344-2.727-4.075-2.96-6.724 2.614-.714 5.324-1.043 8.229-.595 19.497-9.53 43.904-14.856 63.897-32.734 1.929-2.157 2.543-4.532 3.28-6.887l22.633-109.225c.029-11.064-1.372-21.58 3.706-34.586l.309-8.647 18.673-170.84-2.075-7.226c-2.65-6.113-.76-12.587-.849-18.335-2.218-17.228-5.721-34.134-9.573-50.953-2.438-5.674-4.692-12.494-6.507-19.662-1.79-.695-2.317-2.68-1.083-4.556-1.216-5.466-2.154-11.034-2.705-16.362l-.822-.183-1.224 11.04c-.477 2.676-.395 5.31-.856 7.94-3.447 19.672-7.004 39.094-18.982 73.803l-3.978 8.724c-9.02 26.126-22.208 46.39-35.88 65.972l-17.032-12.27c9.842-24.334 16.772-49.597 31.629-72.328l2.653-6.442c1.047-18.874 3.392-45.47 8.431-66.334l1.972-15.639c-5.587-25.87 6.44-43.13 29.365-46.96l37.863-7.364" fill="#a13c2a" fill-rule="evenodd" stroke="#000" stroke-width=".432" stroke-linecap="round" stroke-linejoin="round" />
   <g fill-rule="evenodd" stroke="#000" stroke-linecap="round" stroke-linejoin="round">
      <path d="M-2306.297 184.523l126.243 8.061-.277 76.804-129.037-11.151 3.07-73.714z" fill="#fac53a" transform="matrix(.23889 -.01891 .0161 .22474 825.37 188.88)" />
      <path d="M-2306.69 192.987l126.446 10.278-.033 22.472-127.353-9.681.94-23.07zm-.92 31.366l127.059 11.038.146 24.403-128.228-10.692 1.023-24.749z" fill="#04a" transform="matrix(.23889 -.01891 .0161 .22474 825.37 188.88)" />
   </g>
   <path d="M279.136 563.517c-.447-2.635-1.628-5.47-2.009-8.516-4.272-34.2-4.916-92.64-15.083-137.459 2.938-8.146 1.788-17.4-.399-25.109-2.16-7.61-5.228-13.556-6.802-15.793-1.137-5.324-4.491-21.112-5.654-32.29a1.081 1.081 0 00-1.095-.986h0a1.08 1.08 0 00-1.053 1.209c1.195 11.484 4.617 27.496 5.728 32.695.033.15.098.29.19.412 1.148 1.568 4.46 7.781 6.606 15.341 2.145 7.56 3.183 16.555.351 24.096a1.08 1.08 0 00-.04.614c8.55 37.496 10.41 84.89 13.397 119.58.87 10.114 2.724 19.264 3.092 26.543" fill="#fac53a" fill-rule="evenodd" stroke="#000" stroke-width=".216" stroke-linecap="round" stroke-linejoin="round" />
   <path d="M153.309 562.184L170.14 391.09l88.383-.891c1.157 4.701 6.01 14.323.463 26.557 7.642 48.321 12.4 97.275 11.37 145.307l-117.048.12z" fill="#fff" fill-rule="evenodd" stroke="#000" stroke-width=".432" />
   <path d="M270.35 562.402c-90.461-15.206-106.956-83.4-100.209-171.311l82.405-14.566c7.818 13 12.343 30.673 6.468 40.177 7.66 48.435 12.394 97.556 11.335 145.7z" fill="#fac53a" fill-rule="evenodd" stroke="#000" stroke-width=".216" />
   <path d="M149.718 219.47l32.876-6.574 46.534-3.71 35.83 7.407c-6.734 33.983-29.78 46.135-56.48 46.727-25.29.559-37.1-5.936-45.357-14.705-7.85-8.335-12.018-21.411-13.403-29.145z" fill="#fff" fill-rule="evenodd" stroke="#000" stroke-linecap="round" stroke-linejoin="round" stroke-width=".272" />
   <path d="M163.451 216.722c4.956 24.507 19.253 33.587 45.6 32.55 26.412-1.04 39.559-17.992 41.17-34.45-.009-.222-.016-.547.115-1.128" style="marker:none" color="#000" fill="none" stroke="#04a" stroke-width="4.841" stroke-linejoin="round" overflow="visible" />
   <path d="M175.988 214.375c4.82 18.647 15.355 22.69 32.552 22.025 16.068-.622 27.977-11.154 27.858-24.364-.042-.503.136-.834.101-1.133" style="marker:none" color="#000" fill="none" stroke="#308d57" stroke-width="3.674" overflow="visible" />
   <path d="M167.773 216.136c3.62 17.165 12.731 29.993 40.96 28.757 24.573-1.076 36.362-17.699 36.834-31.59-.015-.062-.016-.355.046-.648" style="marker:none" color="#000" fill="none" stroke="#c13c1b" stroke-width="2.971" overflow="visible" />
   <path d="M180.076 213.458c2.44 8.141 5.165 20.312 28.455 18.549 15.258-1.155 22.63-10.254 23.206-18.743.047-.965.04-3.107.157-3.388" style="marker:none" color="#000" fill="none" stroke="#04a" stroke-width="4.357" overflow="visible" />
   <path d="M171.778 215.1c4.876 23.183 22.08 26.472 37.215 25.572 20.56-1.227 31.623-13.958 32.193-27.435.018-.246.013-1.17.13-1.544" style="marker:none" color="#000" fill="none" stroke="#04a" stroke-width="4.357" overflow="visible" />
   <path d="M155.26 218.515c5.384 26.015 19.894 40.195 52.718 39.027l.387-.014h.011c43.57-1.705 49.082-34.322 50.663-41.916" style="marker:none" color="#000" fill="none" stroke="#fac53a" stroke-width="10.867" overflow="visible" />
   <path d="M149.718 219.47l32.876-6.574 46.534-3.71 35.83 7.407c-6.734 33.983-29.78 46.135-56.48 46.727-25.29.559-37.1-5.936-45.357-14.705-7.85-8.335-12.018-21.411-13.403-29.145z" fill="none" stroke="#000" stroke-width=".543" stroke-linecap="round" stroke-linejoin="round" />
   <g fill="none" stroke="#c13c1b" stroke-width=".272">
      <path d="M221.192 258.59c-.63-1.925-.246-5.315.258-7.536 1.575 1.601 3.762 4.276 4.314 6.097 1.061 3.502-3.498 4.713-4.572 1.44z" />
      <path d="M221.783 258.358c-.467-1.427-.187-3.937.183-5.58 1.164 1.187 2.78 3.169 3.189 4.518.786 2.593-2.577 3.486-3.372 1.062z" />
      <path style="marker:none" d="M221.776 258.286a2.675 2.675 0 011.465-1.152c.814-.25 1.365-.097 1.825.107m-3.448-1.534c.24-.302.769-.597 1.029-.673.282-.083.881-.06 1.158.016" color="#000" stroke-linecap="round" stroke-linejoin="round" overflow="visible" />
   </g>
   <g fill="none" stroke="#c13c1b" stroke-width=".272">
      <path d="M215.48 259.459c-.44-1.978.27-5.315.987-7.477 1.413 1.747 3.33 4.62 3.703 6.487.718 3.588-3.938 4.352-4.69.99z" />
      <path d="M216.091 259.284c-.327-1.465.196-3.936.723-5.536 1.044 1.294 2.46 3.423 2.736 4.805.532 2.658-2.902 3.221-3.459.73z" />
      <path style="marker:none" d="M216.091 259.212c.205-.28.736-.835 1.57-1.005.834-.17 1.368.035 1.806.283m-3.284-1.86c.268-.278.824-.52 1.09-.57.289-.056.883.024 1.15.127" color="#000" stroke-linecap="round" stroke-linejoin="round" overflow="visible" />
   </g>
   <g fill="none" stroke="#c13c1b" stroke-width=".272">
      <path d="M227.017 257.023c-.819-1.854-.773-5.265-.492-7.526 1.726 1.438 4.168 3.882 4.898 5.64 1.404 3.378-3.012 5.037-4.406 1.886z" />
      <path d="M227.582 256.732c-.607-1.373-.577-3.898-.372-5.57 1.276 1.065 3.081 2.877 3.622 4.179 1.04 2.502-2.218 3.725-3.25 1.391z" />
      <path style="marker:none" d="M227.568 256.662a2.675 2.675 0 011.343-1.293c.785-.33 1.349-.232 1.827-.074m-3.584-1.184c.209-.324.706-.67.958-.772.272-.11.87-.148 1.153-.1" color="#000" stroke-linecap="round" stroke-linejoin="round" overflow="visible" />
   </g>
   <g fill="none" stroke="#c13c1b" stroke-width=".272">
      <path d="M204.023 259.98c-.037-2.026 1.328-5.154 2.463-7.128 1.035 1.994 2.338 5.194 2.33 7.097-.016 3.66-4.73 3.476-4.793.03z" />
      <path d="M204.656 259.93c-.027-1.5.98-3.816 1.817-5.278.763 1.477 1.724 3.846 1.718 5.256-.011 2.71-3.489 2.574-3.535.023z" />
      <path d="M204.67 259.86c.257-.233.888-.67 1.74-.67.851 0 1.333.309 1.712.64m-2.844-2.481c.318-.218.91-.345 1.182-.34.293.003.86.2 1.101.355" style="marker:none" color="#000" stroke-linecap="round" stroke-linejoin="round" overflow="visible" />
   </g>
   <g fill="none" stroke="#c13c1b" stroke-width=".272">
      <path d="M198.503 259.884c.043-2.026 1.53-5.097 2.742-7.026.955 2.034 2.131 5.282 2.048 7.184-.16 3.655-4.863 3.286-4.79-.158z" />
      <path d="M199.137 259.86c.033-1.5 1.13-3.776 2.024-5.204.704 1.506 1.572 3.912 1.51 5.32-.118 2.707-3.588 2.435-3.534-.116z" />
      <path style="marker:none" d="M199.154 259.79a2.675 2.675 0 011.765-.602c.85.034 1.32.362 1.686.707m-2.745-2.591c.327-.205.924-.308 1.195-.294.293.016.851.236 1.087.4" color="#000" stroke-linecap="round" stroke-linejoin="round" overflow="visible" />
   </g>
   <g fill="none" stroke="#c13c1b" stroke-width=".272">
      <path d="M209.803 259.95c-.263-2.01.743-5.27 1.65-7.36 1.25 1.867 2.904 4.9 3.109 6.793.394 3.637-4.311 3.982-4.76.566z" />
      <path d="M210.426 259.83c-.194-1.488.547-3.903 1.215-5.45.924 1.383 2.144 3.63 2.296 5.031.292 2.695-3.179 2.949-3.51.419z" />
      <path style="marker:none" d="M210.433 259.758c.229-.26.807-.765 1.653-.86.846-.096 1.36.157 1.773.443m-3.104-2.147c.292-.252.867-.444 1.137-.47.292-.03.877.104 1.134.23" color="#000" stroke-linecap="round" stroke-linejoin="round" overflow="visible" />
   </g>
   <g fill="none" stroke="#c13c1b" stroke-width=".272">
      <path d="M160.809 239.917c1.672-1.145 5.034-1.725 7.308-1.863-1.097 1.96-3.053 4.81-4.647 5.849-3.064 1.999-5.503-2.039-2.661-3.986z" />
      <path d="M161.198 240.419c1.239-.848 3.727-1.281 5.408-1.386-.814 1.45-2.264 3.556-3.445 4.326-2.27 1.48-4.068-1.498-1.963-2.94z" />
      <path d="M161.265 240.392a2.675 2.675 0 011.516 1.084c.468.711.475 1.283.408 1.782m.507-3.74c.357.146.789.571.935.8.158.247.304.829.309 1.116" style="marker:none" color="#000" stroke-linecap="round" stroke-linejoin="round" overflow="visible" />
   </g>
   <g fill="none" stroke="#c13c1b" stroke-width=".272">
      <path d="M158.18 235.173c1.777-.975 5.18-1.222 7.456-1.136-1.284 1.843-3.51 4.486-5.198 5.364-3.246 1.689-5.277-2.569-2.258-4.228z" />
      <path d="M158.518 235.71c1.316-.721 3.835-.908 5.519-.848-.952 1.363-2.603 3.317-3.853 3.967-2.404 1.251-3.902-1.89-1.666-3.118z" />
      <path style="marker:none" d="M158.587 235.69a2.675 2.675 0 011.403 1.228c.397.754.347 1.324.231 1.814m.872-3.672c.341.18.729.646.852.887.133.262.221.855.197 1.141" color="#000" stroke-linecap="round" stroke-linejoin="round" overflow="visible" />
   </g>
   <g fill="none" stroke="#c13c1b" stroke-width=".272">
      <path d="M164.01 244.483c1.484-1.38 4.723-2.451 6.95-2.924-.793 2.101-2.306 5.208-3.728 6.472-2.735 2.43-5.745-1.201-3.223-3.548z" />
      <path d="M164.468 244.922c1.1-1.022 3.496-1.819 5.144-2.172-.59 1.555-1.713 3.852-2.766 4.789-2.026 1.8-4.246-.88-2.378-2.617z" />
      <path d="M164.53 244.885a2.675 2.675 0 011.66.848c.57.634.66 1.199.668 1.702m-.052-3.774c.375.091.865.448 1.043.653.193.221.424.775.47 1.058" style="marker:none" color="#000" stroke-linecap="round" stroke-linejoin="round" overflow="visible" />
   </g>
   <g fill="none" stroke="#c13c1b" stroke-width=".272">
      <path d="M154.318 224.877c1.946-.566 5.321-.07 7.524.509-1.653 1.52-4.4 3.617-6.238 4.108-3.535.944-4.594-3.653-1.286-4.617z" />
      <path d="M154.531 225.475c1.441-.42 3.94-.055 5.571.37-1.225 1.123-3.26 2.672-4.622 3.036-2.618.7-3.399-2.692-.949-3.406z" />
      <path style="marker:none" d="M154.603 225.47c.292.187.88.681 1.103 1.503.223.822.051 1.368-.168 1.82m1.648-3.395c.294.25.57.79.638 1.052.074.284.031.882-.054 1.156" color="#000" stroke-linecap="round" stroke-linejoin="round" overflow="visible" />
   </g>
   <g fill="none" stroke="#c13c1b" stroke-width=".272">
      <path d="M152.972 219.54c1.968-.481 5.319.162 7.495.834-1.718 1.448-4.552 3.424-6.41 3.835-3.573.79-4.432-3.849-1.085-4.669z" />
      <path d="M153.159 220.147c1.458-.357 3.939.116 5.55.61-1.273 1.07-3.374 2.53-4.75 2.834-2.646.585-3.279-2.837-.8-3.444z" />
      <path d="M153.23 220.145c.285.2.85.719 1.037 1.55.188.83-.007 1.368-.247 1.811m1.794-3.321c.283.263.537.813.593 1.078.06.288-.008.883-.105 1.153" style="marker:none" color="#000" stroke-linecap="round" stroke-linejoin="round" overflow="visible" />
   </g>
   <g fill="none" stroke="#c13c1b" stroke-width=".272">
      <path d="M155.99 230.19c1.884-.75 5.292-.576 7.54-.211-1.501 1.672-4.035 4.02-5.819 4.684-3.43 1.276-4.92-3.199-1.72-4.474z" />
      <path d="M156.26 230.764c1.395-.554 3.917-.43 5.581-.162-1.113 1.235-2.99 2.97-4.312 3.462-2.54.946-3.64-2.356-1.269-3.3z" />
      <path style="marker:none" d="M156.331 230.753c.31.158.94.594 1.241 1.39.3.798.182 1.357.006 1.829m1.318-3.537c.316.22.643.73.735.986.1.276.115.876.056 1.156" color="#000" stroke-linecap="round" stroke-linejoin="round" overflow="visible" />
   </g>
   <g fill="none" stroke="#c13c1b" stroke-width=".272">
      <path d="M172.259 251.971c1.03-1.745 3.83-3.695 5.83-4.783-.162 2.24-.727 5.65-1.73 7.266-1.93 3.11-5.85.485-4.1-2.483z" />
      <path d="M172.824 252.26c.763-1.292 2.833-2.738 4.312-3.546-.123 1.658-.545 4.18-1.288 5.378-1.429 2.303-4.32.367-3.024-1.831z" />
      <path d="M172.873 252.208a2.675 2.675 0 011.833.34c.725.446.974.961 1.124 1.441m-1.124-3.602c.385-.02.956.183 1.185.328.248.157.627.622.752.88" style="marker:none" color="#000" stroke-linecap="round" stroke-linejoin="round" overflow="visible" />
   </g>
   <g fill="none" stroke="#c13c1b" stroke-width=".272">
      <path d="M167.84 248.498c1.3-1.555 4.38-3.024 6.531-3.772-.525 2.185-1.636 5.456-2.889 6.888-2.409 2.755-5.85-.472-3.641-3.116z" />
      <path d="M168.351 248.875c.963-1.15 3.24-2.241 4.831-2.798-.39 1.616-1.217 4.036-2.145 5.097-1.784 2.04-4.322-.34-2.686-2.299z" />
      <path style="marker:none" d="M168.408 248.832a2.675 2.675 0 011.754.633c.643.557.805 1.106.875 1.605m-.524-3.738c.383.044.913.337 1.116.517.219.195.517.716.599.99" color="#000" stroke-linecap="round" stroke-linejoin="round" overflow="visible" />
   </g>
   <g fill="none" stroke="#c13c1b" stroke-width=".272">
      <path d="M177.124 254.695c.835-1.847 3.407-4.088 5.278-5.386.08 2.245-.112 5.694-.934 7.41-1.581 3.3-5.762 1.116-4.344-2.024z" />
      <path d="M177.717 254.922c.618-1.368 2.52-3.03 3.903-3.993.057 1.662-.09 4.215-.699 5.486-1.17 2.444-4.255.832-3.204-1.493z" />
      <path d="M177.76 254.864c.332-.1 1.09-.225 1.859.14.77.364 1.072.85 1.274 1.31m-1.509-3.459c.381-.061.971.079 1.214.198.264.13.691.55.844.794" style="marker:none" color="#000" stroke-linecap="round" stroke-linejoin="round" overflow="visible" />
   </g>
   <g fill="none" stroke="#c13c1b" stroke-width=".272">
      <path d="M187.627 258.36c.386-1.99 2.372-4.765 3.893-6.46.597 2.166 1.206 5.566.802 7.426-.777 3.576-5.35 2.416-4.695-.967z" />
      <path d="M188.257 258.443c.286-1.474 1.752-3.53 2.876-4.786.439 1.604.886 4.122.587 5.5-.575 2.647-3.948 1.79-3.463-.714z" />
      <path style="marker:none" d="M188.285 258.377c.3-.175 1.008-.471 1.841-.294s1.24.58 1.542.982m-2.266-3.018c.357-.147.963-.148 1.227-.088.287.065.8.377 1.004.578" color="#000" stroke-linecap="round" stroke-linejoin="round" overflow="visible" />
   </g>
   <g fill="none" stroke="#c13c1b" stroke-width=".272">
      <path d="M182.32 256.846c.58-1.942 2.827-4.51 4.506-6.048.383 2.214.656 5.658.072 7.47-1.123 3.482-5.56 1.88-4.577-1.422z" />
      <path d="M182.939 256.99c.429-1.438 2.09-3.34 3.33-4.481.28 1.639.48 4.188.047 5.53-.832 2.58-4.105 1.397-3.377-1.049z" />
      <path d="M182.974 256.928a2.675 2.675 0 011.86-.113c.812.258 1.178.698 1.44 1.128m-1.961-3.225c.37-.112.973-.053 1.23.033.279.093.759.453.942.673" style="marker:none" color="#000" stroke-linecap="round" stroke-linejoin="round" overflow="visible" />
   </g>
   <g fill="none" stroke="#c13c1b" stroke-width=".272">
      <path d="M192.956 259.345c.173-2.019 1.852-4.989 3.184-6.836.824 2.09 1.79 5.407 1.587 7.3-.393 3.637-5.063 2.97-4.77-.464z" />
      <path d="M193.59 259.362c.129-1.496 1.369-3.696 2.352-5.064.607 1.548 1.32 4.004 1.168 5.405-.29 2.695-3.736 2.201-3.52-.341z" />
      <path style="marker:none" d="M193.612 259.293c.28-.206.952-.575 1.8-.488.847.088 1.294.445 1.637.813m-2.574-2.76c.34-.185.942-.25 1.211-.217.292.034.835.289 1.06.467" color="#000" stroke-linecap="round" stroke-linejoin="round" overflow="visible" />
   </g>
   <g fill="none" stroke="#c13c1b" stroke-width=".272">
      <path d="M237.684 252.45c-1.192-1.64-1.869-4.984-2.072-7.253 1.992 1.04 4.895 2.914 5.98 4.478 2.086 3.006-1.88 5.56-3.908 2.774z" />
      <path d="M238.174 252.046c-.883-1.214-1.387-3.689-1.54-5.367 1.472.772 3.62 2.162 4.423 3.32 1.545 2.226-1.381 4.11-2.883 2.047z" />
      <path d="M238.145 251.98a2.675 2.675 0 011.04-1.547c.698-.489 1.27-.512 1.77-.459m-3.753-.4c.136-.361.549-.805.773-.957.243-.165.82-.328 1.106-.34" style="marker:none" color="#000" stroke-linecap="round" stroke-linejoin="round" overflow="visible" />
   </g>
   <g fill="none" stroke="#c13c1b" stroke-width=".272">
      <path d="M232.6 255.067c-1.046-1.736-1.43-5.126-1.436-7.404 1.894 1.21 4.624 3.327 5.57 4.978 1.817 3.176-2.355 5.377-4.135 2.426z" />
      <path d="M233.123 254.708c-.774-1.286-1.062-3.795-1.07-5.48 1.4.897 3.419 2.467 4.12 3.69 1.346 2.352-1.733 3.975-3.05 1.79z" />
      <path style="marker:none" d="M233.1 254.64a2.675 2.675 0 011.17-1.451c.737-.427 1.31-.4 1.803-.304m-3.704-.724c.166-.348.616-.754.853-.886.256-.144.845-.256 1.131-.244" color="#000" stroke-linecap="round" stroke-linejoin="round" overflow="visible" />
   </g>
   <g fill="none" stroke="#c13c1b" stroke-width=".272">
      <path d="M242.539 249.258c-1.425-1.44-2.596-4.645-3.138-6.857 2.125.728 5.277 2.144 6.584 3.527 2.515 2.658-1.023 5.779-3.446 3.33z" />
      <path d="M242.963 248.786c-1.055-1.068-1.926-3.438-2.33-5.074 1.572.542 3.904 1.593 4.872 2.617 1.863 1.968-.747 4.27-2.542 2.457z" />
      <path style="marker:none" d="M242.925 248.725c.024-.346.18-1.098.795-1.686.617-.588 1.178-.697 1.681-.72m-3.771.169c.08-.377.422-.878.62-1.062.216-.2.762-.448 1.043-.503" color="#000" stroke-linecap="round" stroke-linejoin="round" overflow="visible" />
   </g>
   <g fill="none" stroke="#c13c1b" stroke-width=".272">
      <path d="M250.894 241.189c-1.764-.998-3.765-3.761-4.89-5.742 2.243.122 5.662.624 7.297 1.597 3.144 1.872.593 5.84-2.407 4.145z" />
      <path d="M251.173 240.619c-1.306-.74-2.79-2.783-3.625-4.247 1.66.093 4.19.468 5.4 1.19 2.33 1.385.447 4.312-1.775 3.057z" />
      <path d="M251.12 240.57a2.675 2.675 0 01.305-1.838c.433-.734.944-.992 1.42-1.151m-3.581 1.191c-.026-.385.166-.96.307-1.191.153-.251.61-.639.866-.769" style="marker:none" color="#000" stroke-linecap="round" stroke-linejoin="round" overflow="visible" />
   </g>
   <g fill="none" stroke="#c13c1b" stroke-width=".272">
      <path d="M246.981 245.523c-1.599-1.245-3.175-4.271-3.998-6.395 2.202.448 5.51 1.444 6.985 2.646 2.837 2.311-.267 5.864-2.987 3.749z" />
      <path d="M247.34 245c-1.183-.923-2.353-3.16-2.965-4.731 1.629.334 4.076 1.075 5.17 1.965 2.1 1.712-.19 4.332-2.204 2.765z" />
      <path style="marker:none" d="M247.295 244.944a2.675 2.675 0 01.571-1.775c.535-.662 1.078-.843 1.574-.93m-3.717.654c.03-.384.304-.925.477-1.133.188-.226.697-.543.97-.634" color="#000" stroke-linecap="round" stroke-linejoin="round" overflow="visible" />
   </g>
   <g fill="none" stroke="#c13c1b" stroke-width=".272">
      <path d="M253.993 236.497c-1.806-.92-3.926-3.594-5.136-5.523 2.247.023 5.684.376 7.36 1.277 3.223 1.733.846 5.808-2.224 4.246z" />
      <path d="M254.247 235.915c-1.338-.682-2.91-2.658-3.807-4.084 1.662.02 4.206.284 5.447.952 2.387 1.283.634 4.289-1.64 3.132z" />
      <path d="M254.191 235.869a2.675 2.675 0 01.225-1.85c.4-.752.9-1.033 1.37-1.212m-3.526 1.346c-.044-.384.123-.966.254-1.204.141-.257.582-.664.832-.805" style="marker:none" color="#000" stroke-linecap="round" stroke-linejoin="round" overflow="visible" />
   </g>
   <g fill="none" stroke="#c13c1b" stroke-width=".272">
      <path d="M258.59 226.515c-1.94-.59-4.495-2.85-6.024-4.538 2.216-.37 5.662-.625 7.47-.032 3.476 1.141 1.85 5.57-1.446 4.57z" />
      <path d="M258.738 225.898c-1.436-.437-3.33-2.108-4.464-3.354 1.64-.272 4.191-.457 5.53-.017 2.575.845 1.376 4.111-1.066 3.37z" />
      <path style="marker:none" d="M258.675 225.862a2.675 2.675 0 01-.102-1.861c.262-.81.704-1.174 1.136-1.433m-3.236 1.943c-.11-.37-.048-.973.04-1.23.094-.278.456-.755.677-.938" color="#000" stroke-linecap="round" stroke-linejoin="round" overflow="visible" />
   </g>
   <g fill="none" stroke="#c13c1b" stroke-width=".272">
      <path d="M256.672 231.558c-1.886-.742-4.253-3.2-5.642-5.004 2.238-.192 5.693-.171 7.448.565 3.374 1.415 1.4 5.7-1.806 4.44z" />
      <path d="M256.869 230.955c-1.397-.55-3.151-2.367-4.182-3.7 1.657-.14 4.214-.12 5.514.425 2.5 1.048 1.042 4.209-1.332 3.275z" />
      <path d="M256.809 230.915a2.675 2.675 0 01.047-1.864c.326-.787.795-1.113 1.246-1.337m-3.381 1.678c-.08-.378.031-.973.138-1.222.116-.27.516-.718.75-.882" style="marker:none" color="#000" stroke-linecap="round" stroke-linejoin="round" overflow="visible" />
   </g>
   <g fill="none" stroke="#c13c1b" stroke-width=".272">
      <path d="M260.323 221.265c-1.99-.377-4.774-2.35-6.476-3.863 2.163-.607 5.56-1.23 7.422-.835 3.58.76 2.44 5.338-.946 4.698z" />
      <path d="M260.404 220.636c-1.474-.28-3.537-1.737-4.798-2.855 1.601-.446 4.117-.905 5.496-.611 2.65.563 1.81 3.94-.698 3.466z" />
      <path style="marker:none" d="M260.338 220.607a2.675 2.675 0 01-.302-1.84c.174-.833.574-1.242.975-1.546m-3.008 2.279c-.149-.355-.152-.961-.093-1.226.064-.286.373-.8.573-1.006" color="#000" stroke-linecap="round" stroke-linejoin="round" overflow="visible" />
   </g>
   <path d="M167.534 177.323c6.137 17.967 12.695 30.808 21.366 45.746 3.91 2.405 8.221 2.748 13 3.065l37.705-31.242-20.807-49.288-26.435 1.535-18.76 8.186-4.967 3.93-2.196 6.132-6.608 9.214.715.594c1.453 2.227 4.313 2.372 6.987 2.128z" fill="#fff" fill-rule="evenodd" stroke="#000" stroke-width=".387" stroke-linecap="round" stroke-linejoin="round" />
   <path d="M180.433 152.9l2.686 2.166 38.936 16.203 2.059-9.182c-15.948-19.479-33.984-13.09-43.681-9.187z" fill="#c13c1b" fill-rule="evenodd" />
   <path d="M180.78 217.777l5.79 4.842c4.753 3.447 12.772 6.847 20.675 4.947l-6.154-15.207 1.053-.678c-1.495-.4-4.915.356-6.251 1.758-2.944-.116-5.055.032-7.563 1.843-2.475-.763-6.91 1.071-7.55 2.495z" fill="#a13c2a" fill-rule="evenodd" stroke="#000" stroke-width=".216" />
   <path d="M229.417 210.203l39.925 7.196c45.256 13.666 38.112 43.494 38.562 55.35l.393 7.642 8.647-.175-.196-36.393-.237-2.146c-4.126-21.7-8.519-46.448-22.453-64.388-11.883-15.3-23.004-28.055-45.72-34.581-11.133-3.199-16.03-3.012-24.191-3.863-11.164.237-32.984 4-52.035 16.048-2.068 1.308-2.307 6.031 1.82 3.294 23.825-16.95 47.426-6.83 51.625 12.573 2.797 12.924-3.255 26.347-28.752 28.867-1.575.219-1.86.808-.607 2.773 7.332 9.318 8.831 28.536 9.385 41.074.493 21.766.639 35.6.639 35.6h25.545c.158-11.814.057-20.042.082-34.683-.885-12.037-.674-24.857-2.432-34.188z" fill="#025" fill-rule="evenodd" stroke="#000" stroke-width=".23" stroke-linecap="round" stroke-linejoin="round" />
   <path d="M159.829 180.427c.04.298-.265.292-.337.153-2.609-6.732 2.157-13.267 6.619-17.344.618.046 2.906.368 3.301 1.082 2.243 6.298 7.738 7.46 10.365 8.234 1.426.718 1.499 3.204-.22 3.536-3.023-1.6-8.202-4.248-13.416-1.054-6.053-4.502-7.516 3.062-6.312 5.393z" style="marker:none" color="#000" fill="#04a" fill-rule="evenodd" stroke="#000" stroke-width=".214" stroke-linecap="round" stroke-linejoin="round" overflow="visible" />
   <path d="M160.629 175.347c1.157 2.15 5.718 2.617 8.19 1.603" style="marker:none" color="#000" fill="none" stroke="#000" stroke-width=".214" stroke-linecap="round" stroke-linejoin="round" overflow="visible" />
   <path d="M174.889 167.234c.864-9.197 6.794-11.284 9.484-11.903 6.784-1.42 11.867.338 14.892 5.944-2.743 4.02-4.539 9.286-10.97 10.848-3.919-.248-8.182-.565-12.581-2.574" fill="#f5ca44" fill-rule="evenodd" />
   <path d="M175.732 167.159c-.142.59-.73.41-.858.06-.605-4.509 2.902-13.533 13.115-13.91 3.217.027 9.311 2.333 12.318 5.025-1.74-3.76-8.306-5.826-9.004-6.852 2.639.082 8.664 2.763 12.244 5.483 1.495 1.136 1.534 1.11 1.308.31-1.042-2.59-4.18-5.024-7.158-6.97 2.993.239 8.853 4.617 12.629 8.618-.35-2.033-3.487-4.902-5.3-7.374 2.697.976 7.368 5.911 10.06 10.316-.237-2.27-1.851-5.055-2.777-7.582 1.81 1.853 4.022 6.184 5.671 10.65.27-1.763-.858-5.157-1.476-7.955 1.84 3.154 3.596 6.956 4.04 11.733.574-2.706-.143-4.875-.476-7.204 1.898 3.124 2.382 6.348 1.995 9.635-1.9 16.623-14.557 21.843-29.906 24.207-.96.051-1.495-.697-.858-.858 26.455-4.51 27.474-22.567 19.973-25.665-2.264-.936-7.056-1.953-11.646-.402-2.86.967-6.257 2.373-8.161 6.58-1.616 3.568-1.558 6.17-1.644 8.273-.125 3.048.527 5.734-1.209 10.847-.821 2.421-3.934 1.963-4.177.245-.806-5.7-.454-12.058-3.003-15.076-.678-.803-.555-1.768.245-2.942.63-.925 1.42-2.789.245-4.124-.928-1.055-2.41-1.473-4.29-1.76-3.263-.496-1.964-2.627.49-2.205 3.453 2.356 7.651 2.638 10.56 1.86 5.608-1.5 7.558-6.694 6.568-10.363-.705-2.612-3.404-4.422-7.69-4.36-3.036-.075-5.485 1.152-7.231 2.628-2.9 2.452-4.368 6.418-4.597 9.132z" style="marker:none" color="#000" fill="#025" fill-rule="evenodd" stroke="#000" stroke-width=".129" stroke-linecap="round" stroke-linejoin="round" overflow="visible" />
   <path d="M179.87 164.297c.338-4.085 2.125-6.388 4.68-7.367 4.56-1.748 7.163 1.1 8.146 3.77 1.293 3.51-1.491 6.267-3.943 6.934-3.71 1.008-6.928.063-8.364-1.907" style="marker:none" color="#000" fill="#fac53a" fill-rule="evenodd" stroke="#000" stroke-width=".214" stroke-linecap="round" stroke-linejoin="round" overflow="visible" />
   <path d="M179.48 165.64c.053-.804 1.066-1.125 1.087-1.351.338-3.682 1.93-5.717 4.33-6.666 3.066-1.213 5.452-.047 6.803 3.077 1.077 2.492-.227 5.03-3.294 6.11-2.884 1.016-5.264-.057-7.573-1.72-.105-.076-.513.584-1.354.55zM177.02 201c-16.578 11.496-14.535 25.014-16 38.36-.046.41-.091 40.251-.138 40.66l24.293-.367-.016-40.294c-.024-6.572 2.203-10.88 4.428-14.64l-12.567-23.72z" style="marker:none" color="#000" fill="#025" fill-rule="evenodd" stroke="#000" stroke-width=".214" stroke-linecap="round" stroke-linejoin="round" overflow="visible" />
   <path d="M276.574 552.123l-1.202.32.74 12.023c.093 17.745.563 36.573 4.168 49.573l5.23-8.442 10.056 8.596c-3.039-31.148-9.331-22.25-18.992-62.07z" fill="#04a" fill-rule="evenodd" stroke="#000" stroke-width=".432" />
   <path d="M281.636 621.446l5.852-8.287 7.865 6.628" fill="none" stroke="#c13c1b" stroke-width=".432" stroke-linecap="round" stroke-linejoin="round" />
   <path d="M282.603 628.642l5.723-8.033 7.637 6.376m-12.284 9.196l5.476-7.764 7.417 6.203m-11.79 9.6l5.412-7.637 7.148 5.957m-11.592 9.094l5.263-7.54 7.105 5.922m-11.288 9.415l5.022-7.232 6.894 5.828m-10.726 9.076l4.889-7.017 6.718 5.69m-10.61 8.658l4.72-6.759 6.455 5.482m-10.256 8.18l4.621-6.587 6.236 5.309m-10.14 8.612l4.803-6.42 6.04 5.014m-9.955 8.671l4.893-6.225 5.835 4.958m-9.785 8.663l4.57-5.735 6.158 4.536m-9.706 8.47l4.596-5.634 5.744 4.135m-7.706 20.373l4.43-5.172 5.418 3.504m-10.722-4.182l4.364-5.557 5.668 3.904m-10.817-4.978l4.44-5.171 5.554 3.734m-7.45 20.484l4.472-5.274 5.312 3.974m-8.909 7.463l4.199-5.018 5.495 3.504m-8.178 13.742l4.43-5.017 5.727 3.503m-10.8-4.7l4.155-4.752 5.62 3.595m-8.798 9.621l10.15-1.533" fill="none" stroke="#c13c1b" stroke-width=".432" stroke-linecap="round" stroke-linejoin="round" />
   <g fill-rule="evenodd" stroke="#000" stroke-linecap="round" stroke-linejoin="round" stroke-width=".214">
      <path d="M291.357 547.646c2.696-.881 4.906-.544 7.032 0l-1.24-33.733 16.063 1.073c-.491-2.416-.658-4.832 0-7.248l-16.063 1.127h0c3.364-6.013 8.081-11.345 9.778-20.139 3.428-17.771-5.633-17.025-11.92-17.082-6.844-.062-16.947 1.008-12.744 17.84 1.934 7.741 6.647 13.83 10.45 19.38h0l-18.052-1.126c.605 2.416.547 4.832 0 7.248l18.051-1.073h0l-1.355 33.733z" fill="#025" />
      <path d="M292.712 503.898c-3.469-4.71-6.798-9.313-7.636-15.388-1.695-12.282 4.682-13.654 9.841-13.686 4.587-.027 11.367.623 8.332 13.578-1.424 6.077-3.639 11.545-6.1 15.496-1.54 2.086-3.196 1.745-4.437 0z" fill="#fff" />
   </g>
   <path d="M306.77 451.386l-19.85-.541c-.993 4.965-3.446 10.223-5.84 15.469-3.167 5.025-3.373 11.439-2.489 17.524l-.324 5.733c8.915 1.067.301-10.832 5.95-15.252l.865 8.221c1.616 1.539 3.21 2.756 4.543.325 1.586 1.776 3.173 1.648 4.76-.325 1.94 2.508 3.523.743 5.192 0 1.778 1.391 3.661 1.886 4.868-1.298.35-8.683 2.948-17.116 2.326-29.856z" fill="#a13c2a" fill-rule="evenodd" stroke="#000" stroke-width=".432" stroke-linecap="round" stroke-linejoin="round" />
   <g fill-rule="evenodd" stroke="#000" stroke-linecap="round" stroke-linejoin="round" stroke-width=".214">
      <path d="M286.75 439.65l20.824.162-.866 13.143-19.85-.757-.108-12.549z" fill="#fac53a" />
      <path d="M286.75 441.542l20.662.27-.213 4.061-20.395-.32-.054-4.01z" fill="#04a" />
      <path d="M286.532 439.595l20.878.217-.592 13.088-20.233-.702-.053-12.603z" fill="#fac53a" />
      <path d="M286.557 441.542l20.855.27-.251 4.061-20.55-.32-.054-4.01zm.039 5.24l20.491.309-.212 4.06-20.225-.359-.054-4.01z" fill="#04a" />
   </g>
   <path d="M151.83-196.826h25.973v12.197H151.83v-12.197z" fill="#fac53a" fill-rule="evenodd" stroke="#000" stroke-width=".224" transform="matrix(.93386 0 0 .96682 19.121 458.523)" />
   <path d="M153.196-195.633l22.881.104m-22.891 1.715l22.881.104m-22.887 1.87l22.882.105m-22.812 1.955l22.881.103m-22.731 2.029l22.877-.055m-22.96 1.955l22.95-.216" fill="none" stroke="#c13c1b" stroke-width=".665" stroke-linecap="round" stroke-linejoin="round" transform="matrix(.93386 0 0 .96682 19.121 458.523)" />
   <path d="M75.266 427.53c-10.26 1.61-22.705 5.432-31.006 18.986l-5.114 3.168c2.705 5.951 8.038 2.536 9.736-.573-1.007 2.748-.476 4.505 2.77 4.51-.687 2.564.217 4.048 3.228 4.105-1.604 2.526.297 4.752 3.076 4.24-.978 3.232.755 4.604 2.472 4.637 4.58 1.969 25.028-23.414 27.065-25.628" fill="#a13c2a" fill-rule="evenodd" stroke="#000" stroke-width=".432" stroke-linecap="round" stroke-linejoin="round" />
   <path d="M48.867 235.807c.717-7.123-.404-13.378 2.521-22.039 3.57-10.57 7.136-12.402 11.293-17.956 1.575-1.286 4.167.058 3.317 2.505-4.821 4.49-8.263 10.623-9.669 14.122 1.447-.163 8.412-.698 8.568 6.52l-.024 492.832c7.755 8.9 1.09 15.74 1.506 23.471-.793.382-1.422.138-1.502-.536-1.038-8.46 1.847-12.15-.052-16.55-.908-2.103-2.607-2.005-3.598-.215-2.133 3.858.856 6.231.076 16.683-.057.76-.989.98-1.369.523-.485-7.767-5.854-14.314 1.253-23.384l-.009-492.235c-.4-4.027-4.756-4.458-6.92.092-2.536 5.333-1.46 10.862-2.14 16.292-1.127 3.497-3.442 2.15-3.25-.125z" fill="#025" fill-rule="evenodd" stroke="#000" stroke-width=".214" stroke-linecap="round" stroke-linejoin="round" />
   <g fill-rule="evenodd" stroke="#000" stroke-linecap="round" stroke-linejoin="round" stroke-width=".286">
      <path d="M75.633 414.357l21.398 12.625-9.246 13.956-17.57-12.765 5.418-13.816z" fill="#fac53a" />
      <path d="M74.945 416.098l20.882 13.028-2.71 3.972-19.673-13.039 1.501-3.961zm-2.333 6.102l18.927 13.078-2.929 4.354-17.718-13.09 1.72-4.343z" fill="#04a" />
   </g>
   <path d="M61.8 438.341c3.666-2.82 8.043-2.394 4.592 1.786 2.973-2.831 9.083-2.346 3.017 3.458 5.533-3.328 5.841 1.142 3.005 3.662 3.732-2.291 4.734 1.309.93 4.97-3.792 4.721-8.236 9.548-12.523 14.239-.08.084-.187.137-.356.12-1.717-.033-3.423-1.24-2.446-4.474-2.779.513-4.68-1.713-3.075-4.24-3.012-.056-3.916-1.54-3.229-4.103-3.246-.006-4.095-1.275-3.088-4.023.133-.23.263-.407.391-.541 4.58-4.955 8.792-8.516 12.665-10.785m.833-.509c-.291 1.228.936 2.9 3.009 2.933m.84-.532c-.83 1.442 1.604 3.408 2.925 3.331m.34-.198c-1.223 1.512.571 4.712 3.195 3.37m-.457.507c-.707 1.605.586 3.26 2.027 3.607m-19.438 6.94c.534-.377 14.484-14.254 14.484-14.254M51.85 453.678c.763-.773 14.598-13.572 14.598-13.572m-8.365 21.97l14.433-14.908" fill="#a13c2a" fill-rule="evenodd" stroke="#000" stroke-width=".432" stroke-linecap="round" stroke-linejoin="round" />
   <path d="M66.366 440.302c-.243.168-.283.503-.841.532-2.527.005-3.126-2.492-3.03-2.938 3.465-2.255 7.165-1.604 3.937 2.306 2.974-2.831 9.043-2.421 2.977 3.383 5.533-3.328 5.911 1.028 3.075 3.549 3.317-2.037 4.407.693 1.933 3.828-1.463-.39-2.756-2.045-1.912-3.81-2.487 1.183-4.098-2.205-3.045-3.618-1.491.176-3.926-1.79-3.094-3.232z" fill="#fff" fill-rule="evenodd" stroke="#000" stroke-width=".432" stroke-linecap="round" stroke-linejoin="round" />
   <path d="M67.233 436.89c-2.427-.894-5.609.892-12.635 6.77l-1.296-7.426c7.361-5.004 10.655-6.424 17.04-7.775" fill="#a13c2a" fill-rule="evenodd" />
   <path d="M54.598 443.66c7.026-5.878 10.31-7.674 12.736-6.78m2.94-8.378c-6.385 1.35-9.749 2.626-17.089 7.846" fill="none" stroke="#000" stroke-width=".432" />
   <path d="M4025.317 656.303l33.517-.045-.218 55.187-31.768.818-1.531-55.96z" fill="#fac53a" fill-rule="evenodd" stroke="#000" transform="matrix(.2675 0 0 .21617 -768.891 126.405)" />
   <path d="M4026.335 661.639l27.84.463m-27.47 7.954l26.968.182m-26.855 8.367l26.602.463m-26.013 8.744l26.667.463m-26.107 8.569l26.528.26m-26.374 7.732l26.545-.079" fill="none" stroke="#c13c1b" stroke-width="2.972" stroke-linecap="round" stroke-linejoin="round" transform="matrix(.2675 0 0 .21617 -768.891 126.405)" />
   <path d="M4025.205 656.13l1.555 54.548" fill="none" stroke="#000" transform="matrix(.2675 0 0 .21617 -768.891 126.405)" />
   <g fill-rule="evenodd" stroke="#000" stroke-linecap="round" stroke-linejoin="round">
      <path d="M-2298.264 185.199l129.779 8.359-8.488 77.742-132.395-13.063 11.104-73.038z" fill="#fac53a" transform="matrix(.26144 -.00426 .00494 .22537 714.452 221.547)" />
      <path d="M-2299.299 193.609l129.66 10.549-2.604 22.255-130.567-9.952 3.511-22.852zm-4.777 31.041L-2173.32 236l-2.746 24.159-131.762-10.989 3.753-24.52z" fill="#04a" transform="matrix(.26144 -.00426 .00494 .22537 714.452 221.547)" />
   </g>
   <g fill-rule="evenodd" stroke="#000" stroke-linecap="round" stroke-linejoin="round">
      <path d="M-2301.611 184.81l110.51 7.598-12.757 77.185-100.902-10.518 3.149-74.266z" fill="#fac53a" transform="matrix(.25786 .0433 -.03608 .22252 730.505 755.487)" />
      <path d="M-2302.218 193.931l109.506 8.31-3.595 21.223-106.536-7.241.625-22.292zm-1.033 30.559l104.788 11.037-4.15 23.206-101.819-9.488 1.18-24.755z" fill="#04a" transform="matrix(.25786 .0433 -.03608 .22252 730.505 755.487)" />
   </g>
   <g fill-rule="evenodd" stroke="#000" stroke-linecap="round" stroke-linejoin="round">
      <path d="M-2305.348 184.73l117.692 7.561-12.03 77.508-107.182-11.397 1.52-73.671z" fill="#fac53a" transform="matrix(.26105 -.01487 .01408 .22499 843.243 627.146)" />
      <path d="M-2305.446 193.202l116.011 9.648-3.645 22.187-112.856-8.782.49-23.053zm-.818 31.304l112.106 10.117-3.892 24.083-108.633-9.46.42-24.74z" fill="#04a" transform="matrix(.26105 -.01487 .01408 .22499 843.243 627.146)" />
   </g>
   <path d="M270.35 562.402c-90.461-15.206-106.956-83.4-100.209-171.311l82.405-14.566c7.818 13 12.425 30.564 6.55 40.068 7.66 48.435 12.312 97.665 11.253 145.809z" fill="#fac53a" fill-rule="evenodd" stroke="#000" stroke-width=".216" />
   <path d="M252.282 376.38l-6.27-29.79-75.806 36.691-.231 7.61 82.307-14.511z" fill="#fac53a" fill-rule="evenodd" stroke="#000" stroke-linecap="round" stroke-linejoin="round" stroke-width=".216" />
   <path d="M219.596 365.285l6.634-2.759 1.657 4.098-6.731 2.396-1.56-3.735z" fill="#04a" fill-rule="evenodd" stroke="#04a" stroke-width=".25" />
   <path d="M228.882 361.424l6.034-2.532 1.939 4.724-6.181 2.109-1.792-4.3z" fill="#c13c1b" fill-rule="evenodd" stroke="#c13c1b" stroke-width=".25" />
   <path d="M237.616 357.95l6.88-2.9 2.08 5.018-7.131 2.487-1.83-4.605z" fill="#04a" fill-rule="evenodd" stroke="#04a" stroke-width=".25" />
   <path d="M246.01 346.481l.739 3.653-73.133 32.072-3.25.908 75.644-36.633z" fill="#fff" fill-rule="evenodd" stroke="#000" stroke-linecap="round" stroke-linejoin="round" stroke-width=".216" />
   <path d="M182.873 380.225l6.053-2.42.859 2.325-6.117 2.251-.795-2.156z" fill="#04a" fill-rule="evenodd" stroke="#04a" stroke-width=".25" />
   <path d="M191.929 376.626l6.42-2.697.993 2.742-6.47 2.318-.943-2.363z" fill="#c13c1b" fill-rule="evenodd" stroke="#c13c1b" stroke-width=".25" />
   <path d="M200.979 372.99l6.517-2.81 1.372 3.233-6.835 2.362-1.054-2.785z" fill="#04a" fill-rule="evenodd" stroke="#04a" stroke-width=".25" />
   <path d="M210.362 368.907l6.688-2.76 1.633 3.864-6.844 2.432-1.477-3.536z" fill="#308d57" fill-rule="evenodd" />
   <path d="M248.632 359.562l-66.937 23.582m65.729-29.425l-67.791 27.732m57.038-23.179l1.925 4.594m-2.805-4.356l1.91 4.723m8.553-8.963l2.102 5.248m-2.975-4.883l2.146 5.202m-19.513 2.012l1.892 4.164m-2.828-3.828l1.851 4.177m-10.126-.777l1.52 3.68m-2.426-3.445l1.651 3.853m-10.331-.253l1.509 3.271m-2.342-2.895l1.453 3.29m-9.712.214l1.015 2.754m-1.944-2.37l1.095 2.744m-9.206.552l.79 2.434m-1.805-2.076l.874 2.475m-8.89.759l.787 2.052m-1.588-1.817l.865 2.102" fill="none" stroke="#000" stroke-width=".25" stroke-linecap="round" stroke-linejoin="round" />
   <path d="M240.024 368.52l7.162-2.108 1.504 5.22-7.367 1.67-1.299-4.782z" fill="#04a" fill-rule="evenodd" stroke="#04a" stroke-width=".25" />
   <path d="M230.955 370.99l6.28-1.838 1.474 4.858-6.457 1.454-1.297-4.475z" fill="#c13c1b" fill-rule="evenodd" stroke="#c13c1b" stroke-width=".25" />
   <path d="M221.293 373.782l6.902-1.996 1.187 4.258-6.959 1.623-1.13-3.885z" fill="#04a" fill-rule="evenodd" stroke="#04a" stroke-width=".25" />
   <path d="M211.71 376.342l6.957-1.991 1.187 4.024-7.074 1.646-1.07-3.68z" fill="#308d57" fill-rule="evenodd" />
   <path d="M201.928 379.343l6.792-2.059 1 3.366-7.142 1.649-.65-2.956z" fill="#04a" fill-rule="evenodd" stroke="#04a" stroke-width=".25" />
   <path d="M192.533 381.874l6.676-1.894.678 2.837-6.689 1.575-.665-2.518z" fill="#c13c1b" fill-rule="evenodd" stroke="#c13c1b" stroke-width=".25" />
   <path d="M183.519 384.49l6-1.63.643 2.256-6.072 1.453-.571-2.078z" fill="#04a" fill-rule="evenodd" stroke="#04a" stroke-width=".25" />
   <path d="M251.11 371.216l-69.486 16.047m68.262-21.7l-69.923 19.747m59.087-16.576l1.395 4.781m-2.297-4.645l1.366 4.91m9.504-7.957l1.501 5.463m-2.406-5.186l1.547 5.41m-19.615-.196l1.412 4.35m-2.381-4.122l1.37 4.36m-9.974-1.912l1.097 3.828m-2.024-3.698l1.207 4.016m-10.237-1.415l1.131 3.421m-2-3.139l1.073 3.431m-9.675-.879l.699 2.85m-1.665-2.573l.78 2.85m-9.287-.487l.664 2.429m-1.635-2.188l.705 2.594m-8.423-.44l.596 2.205m-1.242-2.022l.485 2.112" fill="none" stroke="#000" stroke-width=".25" stroke-linecap="round" stroke-linejoin="round" />
   <path d="M182.442 383.524l66.635-22.16m-66.467 22.651l66.888-20.475m-67.733 24.287l69.612-15.23m-70.646 15.973l71.203-13.826m-75.666 6.846l70.672-30.35m-68.865 30.247l69.147-28.99" fill="none" stroke="#000" stroke-width=".216" />
   <path d="M169.94 390.932c7.906-1.791 13.708-.977 12.6-6.883-.809-4.309-8.229-2.253-12.329-.93l-.271 7.813z" fill="#fac53a" fill-rule="evenodd" stroke="#000" stroke-linecap="round" stroke-linejoin="round" stroke-width=".216" />
   <g>
      <path d="M153.308 562.23l16.979-170.265 88.627-.107c1.156 4.702 5.287 13.354.316 25.97 7.616 48.325 12.236 97.132 11.18 145.163l-117.102-.762z" fill="#fff" fill-rule="evenodd" stroke="#000" stroke-width=".432" />
      <path d="M270.152 562.592c-90.452-15.254-106.91-83.457-100.116-171.365l82.412-14.522c7.811 13.004 12.545 31.471 6.665 40.973 7.634 48.438 12.124 96.77 11.04 144.914z" fill="#fac53a" fill-rule="evenodd" stroke="#000" stroke-width=".216" />
      <path d="M252.265 376.781l-66.818 130.9m62.828-130.215l-64.67 126.692m-1.706-3.788l62.394-122.234m-4.013.731l-60.043 117.627m-1.532-4.131l57.566-112.775m-4.001.706L177.235 488.11m-1.364-4.46l52.41-102.674m-3.976.658l-49.686 97.338m-1.159-4.862l46.819-91.721m-4.009.721l-43.82 85.847m-.958-5.254l40.765-79.862m-3.977.657l-37.568 73.6m-.681-5.798l34.241-67.08m-3.995.694L169.49 446.23m-.414-6.323l27.194-53.275m-3.989.682l-23.467 45.975m-.127-6.883l19.605-38.407m-4.026.755l-15.55 30.462m.178-7.481l11.395-22.323m-4.027.758l-7.114 13.936m.54-8.188l2.586-5.067m82.014-10.901l-66.94 131.141m1.986 3.241l66.719-130.708m1.642 3.916l-66.332 129.949m2.117 2.984l65.69-128.692m1.265 4.655l-64.75 126.85m2.252 2.719l63.473-124.347m.308 6.528l-61.434 120.353m2.372 2.486l56.86-111.395m.818 5.531l-55.226 108.191m2.447 2.34l53.56-104.93m.827 5.513l-51.83 101.537m2.628 1.985l49.949-97.853m.791 5.583l-48.083 94.196m2.727 1.791l46.006-90.13m.73 5.703l-43.997 86.193m2.807 1.632l41.884-82.053m.545 6.064l-39.61 77.599m2.895 1.46l37.444-73.356m.475 6.202l-34.989 68.545m3.001 1.253l32.568-63.803m.394 6.36l-29.974 58.723m3.017 1.219l27.426-53.727m.448 6.252l-24.754 48.497m3.055 1.146l22.016-43.131m.282 6.58l-19.11 37.439m3.211.839l16.198-31.733m.168 6.803l-13.162 25.785m3.231.803l9.994-19.578m.097 6.94l-6.786 13.295m3.317.634l3.356-6.575" fill="none" stroke="#c13c1b" stroke-width=".432" />
      <path d="M270.118 562.592c-90.452-15.254-106.91-83.457-100.116-171.365l82.412-14.522c7.81 13.004 12.545 31.471 6.664 40.973 7.635 48.438 12.124 96.77 11.04 144.914z" fill="none" stroke="#000" stroke-width=".432" />
   </g>
   <path d="M173.35 374.52a.813 2.047-.507 11-1.626 0 .813 2.047-.507 111.626 0z" style="marker:none" color="#000" fill-opacity=".706" fill-rule="evenodd" overflow="visible" />
   <g>
      <path d="M210.945-175.397h26.425v12.196h-26.425v-12.196z" fill="#fac53a" fill-rule="evenodd" stroke="#000" stroke-width=".224" transform="matrix(.97491 0 0 .96682 .4 437.69)" />
      <path d="M212.585-174.204l22.881.104m-22.891 2.034l22.88.104m-22.805 1.871l22.88.104m-22.891 1.795l22.881.103m-22.73 1.869l22.875-.054m-22.959 2.034l22.95-.215" fill="none" stroke="#c13c1b" stroke-width=".665" stroke-linecap="round" stroke-linejoin="round" transform="matrix(.97491 0 0 .96682 .4 437.69)" />
   </g>
   <g color="#000" fill-rule="evenodd" stroke-width=".193" stroke-linecap="round" stroke-linejoin="round">
      <path style="marker:none" d="M171.039 157.458c-.612-.378-1.426-.202-2.126.242-.7.443-1.332 1.144-1.836 2.016-.503.873-.8 1.781-.845 2.63-.046.847.19 1.672.802 2.05.613.379 1.426.203 2.126-.241s1.353-1.132 1.856-2.004c.504-.873.78-1.794.825-2.642.046-.848-.19-1.672-.802-2.05z" fill="#025" stroke="#000" overflow="visible" />
      <path style="marker:none" d="M169.716 159.75c.038.024.098.081.084.34-.014.257-.134.668-.372 1.08-.237.411-.53.715-.742.85-.213.135-.29.107-.329.084-.038-.024-.077-.068-.063-.326.014-.258.113-.681.35-1.093.238-.412.551-.703.764-.838.213-.135.27-.12.308-.096z" fill="#fff" stroke="#fff" overflow="visible" />
   </g>
   <g fill-rule="evenodd" stroke="#000" stroke-width=".5">
      <path d="M225.584 9.977c-31.042.814-62.954 7.882-67.747 58.121-2.737 28.69 12.108 58.827 66.637 59.603 40.14.57 66.667-29.233 66.636-56.27-.048-41.412-24.547-62.529-65.526-61.454z" fill="#e6e6e6" />
      <path d="M144.871 75.25c10.738 51.101 51.39 64.744 76.44 65.054 27.142.336 60.652-5.543 80.1-64.793 2.894-8.818-1.069-10.104-4.712-1.832-19.899 45.176-52.67 54.285-74.341 54.013-28.039-.35-62.642-17.95-74.346-54.275-1.24-3.853-4.344-3.894-3.14 1.832z" fill="#fac53a" />
   </g>
</svg>