<svg xmlns="http://www.w3.org/2000/svg" width="320" height="650" version="1.0">
   <path d="M50.46 590.7s.166-2.41.027.792c-.14 3.2.289 42.715-.876 47.968h-1.366c-1.573-5.297-1.17-44.781-1.3-48.04-.128-3.257-.099-.729-.099-.729h0l-.167-443.214c-2.89-.404-2.753-2.31-3.714-7.572-.962-5.263-8.888-7.993-8.708-8.97.18-.978 1.426-.778 2.316-1.232.89-.454 2.281-.77 2.921-1.07.64-.301 2.486-.391 3.471-.56.986-.17 1.455-.323 2.443-.445s1.064-.231 3.163-.231c2.1 0 2.176.109 3.164.231.988.122 1.457.276 2.443.445.985.169 2.83.259 3.47.56.64.3 2.031.616 2.922 1.07.89.454 2.136.254 2.316 1.231.18.978-7.746 3.708-8.708 8.97-.961 5.263-.825 7.17-3.812 7.587z" fill="#308d57" fill-rule="evenodd" stroke="#000" stroke-width=".21" stroke-linecap="round" stroke-linejoin="round" />
   <path d="M142.87 634.833c22.707-4.633 41.798-16.259 48.282-21.42.147-.36.243-2.366.236-2.684l2.034-29.799h3.606l-1.91 28.001c-5.87 9.447-35.539 22.974-52.395 25.88l-9.016-.955c-1.051 2.667-2.534 6.653 3.607 7.505 60.093-.215 44.512-1.144 68.261-2 1.596 3.003 13.484 1.635 15.211 1.39 3.616-1.402 4.435-8.159 3.819-9.759-1.367-3.548-2.241-8.851-3.182-13.576-1.473-12.091-.6-24.182-.637-36.274 5.987-37.83 3.849-80.114 1.06-113.489 5.595-51.134 11.775-107.837 14.001-159.733 27.414-18.16-7.954-67.375-5.09-75.942 3.741-25.387 15.06-47.743 27.152-69.79h.424v2.333l-1.06 14.85c-.559 23.34 3.898 51.921 2.633 72.376-4.924 25.755-2.32 50.397.336 75.901l.212 12.94 19.304.424.849-12.94c3.411-22.414 5.344-44.83 4.242-67.244.399-2.706.314-4.949-.75-7.637 1.147-24.395 1.242-48.79.75-73.184l.212-14c.467-4.06 1.088-8.282 1.485-12.092 1.915-18.879-4.715-28.595-15.485-32.668-15.395-5.823-28.705-8.941-42.638-12.834l-39.904-4.773-42.19 15.91c-18.989 8-16.241 23.247-18.243 36.91l-3.606 14.425c-7.662 26.465-13.973 53.155-18.243 80.185-17.952 21.962-32.756 45.926-44.485 71.848l-5.4 9 10.8 10.5 7.5-9c14.273-14.147 36.825-36.432 47.699-62.4 3.353-2.297 4.222-6.597 4.767-9.413 12.175-28.257 20.966-68.458 24.3-85.349l3.033-15.186.9-2.25h.9v4.95c-1.389 6.55-2.212 13.1-2.4 19.65-1.398 3.239-1.951 4.708 1.2 5.1 1.428 4.342 7.502 10.9 9.9 12.9 9.812 6.863 7.687 15.062 6.6 22.799-11.225 79.878-21.417 114.683 1.8 228.597-1.858 13.574 1.2 24.2 1.8 36.299-3.181 30.6-5.59 61.2-5.4 91.799-.168 38.43-11.757 29.914-60.332 53.579l-7.637-.425c-2.31 2.876-.968 6.182.424 7.213l34.471.08c-5.562-1.43-3.763-4.785-2.924-7.55l9.117 1.022z" fill="#f5ca44" fill-rule="evenodd" stroke="#000" stroke-width=".42" stroke-linecap="round" stroke-linejoin="round" />
   <path d="M59.74 331.666c-7.608.454-16.967 2.371-23.983 11.688l-3.958 1.954c1.558 4.538 5.693 2.417 7.152.266-.929 1.937-.665 3.257 1.706 3.49-.682 1.824-.126 2.972 2.07 3.224-1.35 1.733-.118 3.492 1.948 3.313-.941 2.293.228 3.417 1.48 3.562 3.207 1.76 19.039-15.308 20.682-16.782" fill="#f5ca44" fill-rule="evenodd" stroke="#000" stroke-width=".21" stroke-linecap="round" stroke-linejoin="round" />
   <g fill-rule="evenodd" stroke="#000" stroke-linecap="round" stroke-linejoin="round" stroke-width=".21">
      <path d="M265.235 433.466c2.643-.864 4.81-.534 6.894 0l-1.216-33.075 15.75 1.052c-.482-2.369-.645-4.737 0-7.106l-15.75 1.104h0c3.299-5.895 7.924-11.124 9.588-19.746 3.361-17.424-5.524-16.692-11.688-16.748-6.71-.06-16.617.988-12.495 17.49 1.896 7.592 6.517 13.561 10.245 19.004h0l-17.7-1.104c.595 2.369.537 4.737 0 7.106l17.7-1.052h0l-1.328 33.075z" fill="#025" />
      <path d="M266.563 390.571c-3.401-4.618-6.665-9.13-7.487-15.088-1.662-12.042 4.59-13.387 9.65-13.418 4.497-.027 11.144.61 8.168 13.312-1.396 5.96-3.567 11.32-5.98 15.194-1.512 2.046-3.134 1.711-4.35 0z" fill="#fff" />
   </g>
   <path d="M260.242 340.694c-.974 4.869-3.379 10.024-5.727 15.167-3.105 4.928-3.307 11.216-2.44 17.183l-.318 5.621c8.742 1.047.296-10.62 5.834-14.955l.848 8.061c1.585 1.509 3.148 2.703 4.455.318 1.555 1.743 3.111 1.617 4.667-.318 1.902 2.46 3.454.728 5.09 0 1.745 1.364 3.59 1.849 4.774-1.273.344-8.514 2.89-16.782 2.28-29.273" fill="#f5ca44" fill-rule="evenodd" stroke="#000" stroke-width=".21" stroke-linecap="round" stroke-linejoin="round" />
   <path d="M254.187 115.68l-26.786-7.795-39.166-4.193-27.784 10.413c4.997 22.962 23.07 34.203 45.132 34.974 20.896.727 30.727-4.517 37.644-11.678 6.575-6.807 9.734-15.344 10.96-21.721z" fill="#fff" fill-rule="evenodd" stroke="#000" stroke-width=".224" stroke-linecap="round" stroke-linejoin="round" />
   <path style="marker:none" d="M243.054 112.423c-4.616 19.074-16.577 26.143-37.798 25.038-20.573-1.072-31.25-13.713-33.374-26.57l-.334-.942" color="#000" fill="none" stroke="#04a" stroke-width="4.002" stroke-linejoin="round" overflow="visible" />
   <path style="marker:none" d="M232.808 109.48c-4.236 14.92-12.947 18.07-26.994 17.347-13.181-.678-23.292-9.395-23.201-20.207l-.236-.733" color="#000" fill="none" stroke="#308d57" stroke-width="2.456" overflow="visible" />
   <path style="marker:none" d="M239.64 111.49c-3.53 13.463-11.328 23.64-34.075 22.355-19.207-1.086-28.807-13.556-29.992-24.624l-.211-.688" color="#000" fill="none" stroke="#c13c1b" stroke-width="2.456" overflow="visible" />
   <path style="marker:none" d="M229.47 108.445c-.073.23-.033.183-.106.42-2.068 6.677-4.925 15.974-23.496 14.331-12.6-1.115-19.168-8.72-19.555-15.743-.018-.518-.2-1.783-.22-2.434l-.136-.443" color="#000" fill="none" stroke="#04a" stroke-width="3.602" overflow="visible" />
   <path style="marker:none" d="M236.207 110.526c-4.575 18.08-18.563 20.712-30.812 19.827-16.808-1.218-25.805-11.652-26.307-22.672l-.199-.528" color="#000" fill="none" stroke="#04a" stroke-width="3.602" overflow="visible" />
   <path style="marker:none" d="M249.648 114.35c-5.286 20.225-17.288 31.229-43.592 29.958l-.32-.016h-.009c-30.526-1.583-38.193-21.256-40.567-31.035l-.293-.745" color="#000" fill="none" stroke="#fac53a" stroke-width="8.983" overflow="visible" />
   <g fill="none" stroke="#c13c1b" stroke-width=".225">
      <path d="M195.123 145.036c.542-1.586.26-4.392-.133-6.233-1.319 1.307-3.155 3.495-3.63 4.995-.914 2.883 2.842 3.932 3.763 1.238z" />
      <path d="M194.638 144.837c.4-1.174.195-3.252-.093-4.614-.975.969-2.331 2.59-2.683 3.7-.678 2.136 2.093 2.91 2.776.914z" />
      <path d="M194.644 144.778a2.21 2.21 0 00-1.199-.968c-.67-.216-1.127-.095-1.51.07m2.867-1.232c-.195-.253-.63-.502-.844-.568-.232-.071-.727-.059-.957.001" style="marker:none" color="#000" stroke-linecap="round" stroke-linejoin="round" overflow="visible" />
   </g>
   <g fill="none" stroke="#c13c1b" stroke-width=".225">
      <path d="M199.835 145.813c.386-1.63-.167-4.396-.736-6.19-1.187 1.429-2.802 3.784-3.13 5.322-.63 2.959 3.21 3.64 3.866.868z" />
      <path d="M199.332 145.662c.286-1.207-.12-3.255-.54-4.583-.875 1.058-2.068 2.803-2.311 3.943-.467 2.19 2.365 2.692 2.851.64z" />
      <path d="M199.333 145.603a2.21 2.21 0 00-1.287-.848c-.688-.15-1.131.015-1.496.216m2.734-1.504c-.219-.232-.675-.438-.895-.483-.238-.048-.73.012-.952.094" style="marker:none" color="#000" stroke-linecap="round" stroke-linejoin="round" overflow="visible" />
   </g>
   <g fill="none" stroke="#c13c1b" stroke-width=".225">
      <path d="M190.325 143.678c.697-1.523.695-4.343.486-6.214-1.442 1.17-3.486 3.164-4.108 4.609-1.196 2.778 2.437 4.195 3.622 1.605z" />
      <path d="M189.862 143.432c.515-1.128.517-3.216.365-4.6-1.065.867-2.576 2.346-3.037 3.416-.886 2.057 1.794 3.102 2.672 1.184z" />
      <path d="M189.874 143.374a2.21 2.21 0 00-1.097-1.082c-.645-.281-1.112-.206-1.509-.08m2.975-.942c-.17-.27-.577-.561-.784-.648-.223-.094-.718-.131-.952-.094" style="marker:none" color="#000" stroke-linecap="round" stroke-linejoin="round" overflow="visible" />
   </g>
   <g fill="none" stroke="#c13c1b" stroke-width=".225">
      <path d="M209.3 146.364c.051-1.674-1.044-4.273-1.961-5.917-.876 1.637-1.987 4.268-2 5.841-.025 3.025 3.873 2.923 3.961.076z" />
      <path d="M208.777 146.317c.038-1.24-.77-3.165-1.446-4.383-.646 1.213-1.466 3.162-1.476 4.327-.018 2.24 2.857 2.164 2.922.056z" />
      <path style="marker:none" d="M208.766 146.259a2.21 2.21 0 00-1.43-.573c-.704-.009-1.106.242-1.423.51m2.377-2.02c-.26-.183-.749-.294-.973-.294-.243 0-.713.158-.914.283" color="#000" stroke-linecap="round" stroke-linejoin="round" overflow="visible" />
   </g>
   <g fill="none" stroke="#c13c1b" stroke-width=".225">
      <path d="M213.864 146.343c-.015-1.675-1.212-4.23-2.193-5.836-.81 1.671-1.817 4.344-1.768 5.916.093 3.023 3.984 2.768 3.96-.08z" />
      <path d="M213.34 146.316c-.012-1.24-.894-3.132-1.619-4.322-.597 1.237-1.34 3.217-1.304 4.381.07 2.24 2.94 2.05 2.922-.059z" />
      <path d="M213.326 146.258a2.21 2.21 0 00-1.452-.515c-.704.018-1.095.284-1.401.566m2.296-2.113c-.268-.173-.76-.264-.985-.255-.242.01-.706.186-.902.318" style="marker:none" color="#000" stroke-linecap="round" stroke-linejoin="round" overflow="visible" />
   </g>
   <g fill="none" stroke="#c13c1b" stroke-width=".225">
      <path d="M204.523 146.278c.238-1.658-.559-4.363-1.287-6.1-1.053 1.53-2.452 4.02-2.64 5.582-.364 3.002 3.52 3.337 3.927.518z" />
      <path d="M204.009 146.173c.176-1.228-.41-3.231-.947-4.517-.778 1.133-1.81 2.978-1.95 4.134-.27 2.224 2.596 2.47 2.897.383z" />
      <path d="M204.004 146.114a2.21 2.21 0 00-1.357-.73c-.699-.087-1.126.117-1.47.349m2.588-1.742c-.239-.211-.712-.376-.935-.4-.241-.028-.726.076-.94.178" style="marker:none" color="#000" stroke-linecap="round" stroke-linejoin="round" overflow="visible" />
   </g>
   <g fill="none" stroke="#c13c1b" stroke-width=".225">
      <path d="M245.604 129.11c-1.37-.963-4.143-1.478-6.02-1.616.885 1.632 2.472 4.007 3.778 4.883 2.512 1.685 4.57-1.627 2.242-3.266z" />
      <path d="M245.277 129.521c-1.015-.713-3.067-1.097-4.456-1.202.658 1.207 1.835 2.963 2.802 3.612 1.86 1.248 3.379-1.196 1.654-2.41z" />
      <path style="marker:none" d="M245.222 129.498a2.21 2.21 0 00-1.265.88c-.394.583-.406 1.056-.355 1.47m-.381-3.098c-.296.117-.657.465-.78.652-.134.203-.26.682-.267.919" color="#000" stroke-linecap="round" stroke-linejoin="round" overflow="visible" />
   </g>
   <g fill="none" stroke="#c13c1b" stroke-width=".225">
      <path d="M248.126 124.617c-1.458-.824-4.268-1.064-6.15-1.017 1.042 1.537 2.854 3.745 4.24 4.488 2.665 1.43 4.389-2.068 1.91-3.47z" />
      <path d="M247.841 125.058c-1.08-.61-3.16-.791-4.552-.759.773 1.136 2.116 2.769 3.143 3.32 1.974 1.059 3.245-1.522 1.41-2.56z" />
      <path d="M247.784 125.04a2.21 2.21 0 00-1.172 1c-.335.62-.3 1.091-.21 1.497m-.682-3.044c-.284.145-.61.526-.713.725-.113.215-.192.704-.176.94" style="marker:none" color="#000" stroke-linecap="round" stroke-linejoin="round" overflow="visible" />
   </g>
   <g fill="none" stroke="#c13c1b" stroke-width=".225">
      <path d="M242.836 133.151c-1.213-1.156-3.879-2.075-5.715-2.49.634 1.745 1.851 4.329 3.014 5.389 2.235 2.038 4.761-.933 2.7-2.899z" />
      <path d="M242.452 133.509c-.898-.856-2.871-1.54-4.23-1.849.472 1.29 1.376 3.202 2.237 3.987 1.655 1.51 3.519-.682 1.993-2.138z" />
      <path style="marker:none" d="M242.4 133.478a2.21 2.21 0 00-1.38.683c-.477.518-.559.984-.57 1.4m.083-3.119c-.311.072-.72.362-.869.529-.162.18-.359.636-.4.87" color="#000" stroke-linecap="round" stroke-linejoin="round" overflow="visible" />
   </g>
   <g fill="none" stroke="#c13c1b" stroke-width=".225">
      <path d="M251.127 115.698c-1.602-.489-4.397-.113-6.224.341 1.35 1.275 3.598 3.036 5.113 3.461 2.912.818 3.835-2.97 1.111-3.802z" />
      <path d="M250.945 116.19c-1.187-.362-3.257-.087-4.609.247 1.001.941 2.667 2.243 3.788 2.558 2.157.605 2.838-2.19.82-2.805z" />
      <path d="M250.885 116.185a2.21 2.21 0 00-.927 1.23c-.193.678-.057 1.13.12 1.507m-1.327-2.823c-.245.203-.48.645-.539.862-.063.234-.034.729.033.956" style="marker:none" color="#000" stroke-linecap="round" stroke-linejoin="round" overflow="visible" />
   </g>
   <g fill="none" stroke="#c13c1b" stroke-width=".225">
      <path d="M249.763 120.071c-1.548-.639-4.366-.531-6.228-.253 1.223 1.397 3.292 3.365 4.76 3.933 2.82 1.09 4.1-2.593 1.468-3.68z" />
      <path d="M249.535 120.544c-1.147-.474-3.233-.397-4.611-.194.906 1.033 2.44 2.488 3.527 2.908 2.09.808 3.033-1.91 1.084-2.714z" />
      <path d="M249.476 120.533a2.21 2.21 0 00-1.04 1.137c-.257.655-.164 1.12-.024 1.51m-1.052-2.936c-.264.179-.54.597-.619.807-.085.227-.104.722-.058.955" style="marker:none" color="#000" stroke-linecap="round" stroke-linejoin="round" overflow="visible" />
   </g>
   <g fill="none" stroke="#c13c1b" stroke-width=".225">
      <path d="M235.713 139.853c-.833-1.453-3.126-3.094-4.769-4.014.111 1.854.543 4.677 1.355 6.024 1.562 2.59 4.83.462 3.414-2.01z" />
      <path d="M235.243 140.087c-.617-1.076-2.313-2.294-3.527-2.977.085 1.372.407 3.461 1.009 4.46 1.156 1.917 3.567.347 2.518-1.483z" />
      <path style="marker:none" d="M235.203 140.043a2.21 2.21 0 00-1.518.261c-.605.361-.816.785-.945 1.18m.968-2.966c-.319-.02-.793.142-.983.26-.207.127-.525.507-.631.719" color="#000" stroke-linecap="round" stroke-linejoin="round" overflow="visible" />
   </g>
   <g fill="none" stroke="#c13c1b" stroke-width=".225">
      <path d="M239.327 136.88c-1.058-1.3-3.589-2.546-5.359-3.187.411 1.811 1.296 4.527 2.316 5.724 1.962 2.302 4.84-.33 3.043-2.538z" />
      <path d="M238.9 137.186c-.783-.962-2.654-1.887-3.963-2.364.306 1.34.963 3.35 1.72 4.236 1.452 1.705 3.575-.236 2.244-1.872z" />
      <path d="M238.854 137.15a2.21 2.21 0 00-1.456.504c-.537.454-.677.906-.74 1.317m.472-3.083c-.317.032-.758.268-.927.415-.184.16-.436.586-.506.813" style="marker:none" color="#000" stroke-linecap="round" stroke-linejoin="round" overflow="visible" />
   </g>
   <g fill="none" stroke="#c13c1b" stroke-width=".225">
      <path d="M231.589 142.279c-.67-1.535-2.774-3.415-4.307-4.508-.09 1.855.033 4.708.695 6.136 1.272 2.744 4.75.982 3.612-1.628z" />
      <path d="M231.096 142.46c-.497-1.137-2.05-2.53-3.184-3.341-.064 1.373.03 3.485.52 4.542.942 2.032 3.508.732 2.664-1.201z" />
      <path style="marker:none" d="M231.061 142.412a2.21 2.21 0 00-1.538.095c-.64.294-.895.692-1.066 1.071m1.283-2.844c-.315-.054-.804.055-1.006.151-.22.104-.577.448-.705.647" color="#000" stroke-linecap="round" stroke-linejoin="round" overflow="visible" />
   </g>
   <g fill="none" stroke="#c13c1b" stroke-width=".225">
      <path d="M222.869 145.197c-.299-1.648-1.91-3.963-3.15-5.38-.516 1.784-1.055 4.589-.74 6.13.604 2.963 4.395 2.053 3.89-.75z" />
      <path d="M222.347 145.26c-.22-1.221-1.411-2.936-2.326-3.986-.38 1.32-.776 3.397-.543 4.539.447 2.195 3.244 1.522 2.87-.554z" />
      <path d="M222.324 145.205a2.21 2.21 0 00-1.518-.262c-.69.137-1.031.466-1.285.795m1.905-2.471c-.293-.125-.794-.132-1.013-.085-.238.05-.665.302-.836.467" style="marker:none" color="#000" stroke-linecap="round" stroke-linejoin="round" overflow="visible" />
   </g>
   <g fill="none" stroke="#c13c1b" stroke-width=".225">
      <path d="M227.27 144.002c-.458-1.612-2.288-3.757-3.66-5.046-.34 1.826-.601 4.67-.138 6.173.892 2.89 4.576 1.613 3.798-1.127z" />
      <path d="M226.758 144.115c-.34-1.193-1.692-2.784-2.705-3.74-.25 1.352-.44 3.458-.097 4.571.66 2.14 3.378 1.198 2.802-.831z" />
      <path style="marker:none" d="M226.73 144.063a2.21 2.21 0 00-1.537-.113c-.674.205-.98.565-1.201.918m1.654-2.646c-.304-.096-.803-.053-1.017.015-.231.073-.631.366-.786.546" color="#000" stroke-linecap="round" stroke-linejoin="round" overflow="visible" />
   </g>
   <g fill="none" stroke="#c13c1b" stroke-width=".225">
      <path d="M218.454 145.956c-.122-1.67-1.479-4.143-2.56-5.684-.703 1.72-1.537 4.45-1.388 6.017.286 3.01 4.153 2.508 3.948-.333z" />
      <path d="M217.929 145.963c-.09-1.237-1.092-3.069-1.89-4.21-.518 1.273-1.133 3.295-1.022 4.455.212 2.23 3.064 1.859 2.912-.245z" />
      <path d="M217.912 145.906a2.21 2.21 0 00-1.482-.422c-.701.064-1.075.354-1.362.654m2.156-2.254c-.278-.156-.775-.216-.998-.192-.242.025-.693.23-.88.375" style="marker:none" color="#000" stroke-linecap="round" stroke-linejoin="round" overflow="visible" />
   </g>
   <g fill="none" stroke="#c13c1b" stroke-width=".225">
      <path d="M181.557 139.786c1.003-1.342 1.597-4.1 1.788-5.972-1.657.839-4.076 2.357-4.989 3.638-1.756 2.462 1.496 4.615 3.201 2.334z" />
      <path d="M181.156 139.447c.743-.994 1.185-3.034 1.33-4.42-1.226.624-3.015 1.75-3.691 2.698-1.3 1.824 1.098 3.412 2.361 1.722z" />
      <path style="marker:none" d="M181.18 139.393a2.21 2.21 0 00-.843-1.29c-.571-.41-1.044-.436-1.458-.397m3.106-.291c-.108-.3-.445-.671-.628-.8-.2-.139-.675-.28-.911-.293" color="#000" stroke-linecap="round" stroke-linejoin="round" overflow="visible" />
   </g>
   <g fill="none" stroke="#c13c1b" stroke-width=".225">
      <path d="M185.732 142.003c.882-1.423 1.235-4.222 1.264-6.104-1.578.979-3.856 2.7-4.655 4.056-1.536 2.605 1.89 4.468 3.39 2.048z" />
      <path d="M185.303 141.7c.654-1.054.918-3.125.942-4.517-1.167.726-2.852 2.003-3.444 3.007-1.137 1.93 1.39 3.303 2.502 1.51z" />
      <path d="M185.323 141.645a2.21 2.21 0 00-.952-1.212c-.605-.36-1.078-.344-1.487-.27m3.069-.559c-.134-.29-.501-.63-.695-.742-.21-.121-.696-.22-.933-.213" style="marker:none" color="#000" stroke-linecap="round" stroke-linejoin="round" overflow="visible" />
   </g>
   <g fill="none" stroke="#c13c1b" stroke-width=".225">
      <path d="M177.578 137.098c1.193-1.176 2.194-3.813 2.665-5.636-1.764.58-4.384 1.717-5.479 2.846-2.106 2.171.785 4.788 2.814 2.79z" />
      <path d="M177.232 136.703c.884-.872 1.628-2.822 1.979-4.17-1.305.432-3.243 1.276-4.054 2.112-1.56 1.608.572 3.538 2.075 2.058z" />
      <path d="M177.264 136.653a2.21 2.21 0 00-.64-1.402c-.503-.492-.966-.589-1.381-.612m3.114.179c-.061-.313-.339-.73-.5-.885-.177-.167-.625-.378-.857-.427" style="marker:none" color="#000" stroke-linecap="round" stroke-linejoin="round" overflow="visible" />
   </g>
   <g fill="none" stroke="#c13c1b" stroke-width=".225">
      <path d="M170.757 130.34c1.468-.806 3.151-3.07 4.102-4.694-1.856.077-4.687.456-6.048 1.243-2.619 1.514-.552 4.82 1.946 3.451z" />
      <path d="M170.532 129.866c1.088-.597 2.336-2.27 3.041-3.472-1.373.06-3.468.343-4.477.926-1.939 1.121-.413 3.56 1.436 2.546z" />
      <path style="marker:none" d="M170.577 129.826a2.21 2.21 0 00-.234-1.523c-.35-.61-.769-.83-1.162-.966m2.948 1.023c.026-.319-.127-.796-.241-.989-.124-.209-.498-.534-.708-.644" color="#000" stroke-linecap="round" stroke-linejoin="round" overflow="visible" />
   </g>
   <g fill="none" stroke="#c13c1b" stroke-width=".225">
      <path d="M173.945 133.963c1.335-1.012 2.669-3.497 3.372-5.243-1.824.347-4.57 1.136-5.802 2.114-2.369 1.88.16 4.849 2.43 3.13z" />
      <path d="M173.653 133.527c.989-.75 1.98-2.587 2.501-3.879-1.35.26-3.38.846-4.293 1.57-1.755 1.393.11 3.582 1.792 2.309z" />
      <path d="M173.692 133.482a2.21 2.21 0 00-.454-1.473c-.435-.553-.882-.709-1.29-.786m3.065.58c-.021-.318-.242-.768-.383-.942-.153-.189-.57-.455-.794-.534" style="marker:none" color="#000" stroke-linecap="round" stroke-linejoin="round" overflow="visible" />
   </g>
   <g fill="none" stroke="#c13c1b" stroke-width=".225">
      <path d="M168.245 126.43c1.502-.742 3.282-2.93 4.303-4.512-1.858-.004-4.702.251-6.097.979-2.682 1.398-.76 4.791 1.794 3.532z" />
      <path d="M168.04 125.945c1.113-.549 2.433-2.166 3.19-3.335-1.374 0-3.479.19-4.512.73-1.987 1.035-.569 3.538 1.323 2.605z" />
      <path style="marker:none" d="M168.087 125.908a2.21 2.21 0 00-.166-1.532c-.323-.625-.733-.862-1.12-1.015m2.901 1.149c.04-.316-.092-.8-.198-.997-.114-.215-.474-.556-.679-.675" color="#000" stroke-linecap="round" stroke-linejoin="round" overflow="visible" />
   </g>
   <g fill="none" stroke="#c13c1b" stroke-width=".225">
      <path d="M164.55 117.756c1.609-.467 3.745-2.309 5.026-3.688-1.827-.33-4.672-.576-6.173-.105-2.886.907-1.589 4.584 1.147 3.793z" />
      <path d="M164.434 117.244c1.191-.346 2.774-1.707 3.725-2.725-1.353-.242-3.46-.422-4.571-.073-2.137.672-1.18 3.384.846 2.798z" />
      <path d="M164.486 117.215a2.21 2.21 0 00.104-1.537c-.208-.673-.57-.978-.923-1.196m2.653 1.639c.095-.304.05-.803-.02-1.016-.074-.231-.368-.63-.55-.783" style="marker:none" color="#000" stroke-linecap="round" stroke-linejoin="round" overflow="visible" />
   </g>
   <g fill="none" stroke="#c13c1b" stroke-width=".225">
      <path d="M166.082 122.094c1.567-.593 3.549-2.6 4.716-4.077-1.848-.182-4.704-.201-6.162.389-2.804 1.134-1.217 4.696 1.446 3.688z" />
      <path d="M165.926 121.593c1.16-.44 2.63-1.923 3.495-3.014-1.368-.132-3.482-.144-4.562.294-2.077.84-.906 3.467 1.067 2.72z" />
      <path style="marker:none" d="M165.976 121.56a2.21 2.21 0 00-.02-1.54c-.26-.654-.645-.929-1.016-1.118m2.777 1.422c.07-.311-.015-.805-.101-1.012-.093-.224-.418-.598-.611-.736" color="#000" stroke-linecap="round" stroke-linejoin="round" overflow="visible" />
   </g>
   <path d="M254.187 115.68l-26.786-7.795-39.166-4.193-27.784 10.413c4.997 22.962 23.07 34.203 45.132 34.974 20.896.727 30.727-4.517 37.644-11.678 6.575-6.807 9.734-15.344 10.96-21.721z" fill="none" stroke="#000" stroke-width=".224" stroke-linecap="round" stroke-linejoin="round" />
   <path d="M193.437 580.93h27.418c5.986-37.83 3.795-79.902 1.008-113.277 5.594-51.134 11.773-107.837 14-159.733 27.414-18.16-7.954-67.375-5.091-75.942 2.24-15.194 7.335-28.202 13.544-41.808h-89.13c1.428 4.342 7.383 9.25 9.78 11.25 9.813 6.863 7.687 15.062 6.6 22.799-11.225 79.878-21.416 114.683 1.8 228.597-1.857 13.574 1.2 24.2 1.8 36.299-3.18 30.6-5.59 61.199-5.4 91.799l23.671.016z" fill="#c13c1b" fill-rule="evenodd" stroke="#000" stroke-width=".42" stroke-linecap="round" stroke-linejoin="round" />
   <path d="M243.51 190.68l-3.097 7.066h-79.017c-2.122-2.145-4.322-4.7-5.51-7.066h87.623z" fill="#fff" fill-rule="evenodd" stroke="#fff" stroke-width=".63" />
   <path d="M156.216 191.797h87.187m-82.003 6.095h79.237m-81.053-1.648h81.823M161.018 191.99v4.026m1.896-4.026v4.026m2.008-4.026v4.026M175.764 191.99v4.026m1.896-4.026v4.026m2.008-4.026v4.026M189.94 191.99v4.026m1.896-4.026v4.026m2.008-4.026v4.026M204.416 191.99v4.026m1.895-4.026v4.026m2.009-4.026v4.026M219.73 191.99v4.026m1.895-4.026v4.026m2.009-4.026v4.026M233.306 191.99v4.026m1.895-4.026v4.026m2.009-4.026v4.026" fill="none" stroke="#000" stroke-width=".42" stroke-linecap="round" stroke-linejoin="round" />
   <path d="M221.358 573.713l-.975 6.996-50.153-.159.062-6.854 51.066.017z" fill="#fff" fill-rule="evenodd" stroke="#fff" stroke-width=".63" />
   <path d="M169.74 574.76h51.834m-51.538 6.095h50.72m-51.016-1.648h51M172.881 574.952v4.027m1.896-4.027v4.027m2.008-4.027v4.027M185.678 574.952v4.027m1.896-4.027v4.027m2.009-4.027v4.027M199.835 574.952v4.027m1.896-4.027v4.027m2.009-4.027v4.027M213.77 574.952v4.027m1.896-4.027v4.027m2.009-4.027v4.027M169.824 573.351h51.958" fill="none" stroke="#000" stroke-width=".42" stroke-linecap="round" stroke-linejoin="round" />
   <g fill-rule="evenodd" stroke="#000" stroke-linecap="round" stroke-linejoin="round" stroke-width=".21">
      <path d="M152.023 117.33l12.426 72.88h12.494l-18.283-75.392-6.637 2.513z" fill="#fff" />
      <path d="M153.184 116.885l13.178 73.325h8.781l-17.84-74.896-4.119 1.57z" fill="#c13c1b" />
   </g>
   <g fill-rule="evenodd" stroke="#000" stroke-linecap="round" stroke-linejoin="round" stroke-width=".21">
      <path d="M253.783 115.598l-22.578 74.572h10.5l18.027-72.595-5.949-1.977z" fill="#fff" />
      <path d="M254.967 115.988l-21.853 74.182h6.682l18.654-73.073-3.483-1.109z" fill="#c13c1b" />
   </g>
   <g fill-rule="evenodd" stroke="#000" stroke-linecap="round" stroke-linejoin="round" stroke-width=".21">
      <path d="M127.998 156.61l26.279 5.303-2.94 14.559-27.1-5.24 3.761-14.621z" fill="#fac53a" />
      <path d="M127.56 158.282l26.382 5.467-.98 4.792-26.627-5.53 1.225-4.73zm-1.591 6.416l26.607 5.618-.98 4.451-26.852-5.34 1.225-4.729z" fill="#04a" />
   </g>
   <g fill-rule="evenodd" stroke="#000" stroke-linecap="round" stroke-linejoin="round" stroke-width=".21">
      <path d="M62.075 322.34l13.374 10.313-8.411 9.88-10.845-10.614 5.882-9.579z" fill="#fac53a" />
      <path d="M61.283 323.628l12.872 10.32-2.481 2.93-12.1-10.333 1.71-2.917zm-2.651 4.242l12.122 10.245-2.482 2.931-11.35-10.259 1.71-2.917z" fill="#04a" />
   </g>
   <g fill-rule="evenodd" stroke="#000" stroke-linecap="round" stroke-linejoin="round" stroke-width=".21">
      <path d="M258.273 165.033l26.785 1.097-.234 14.99-27.663-.636 1.112-15.45z" fill="#fac53a" />
      <path d="M258.102 166.752l26.915 1.243-.064 4.887-27.015-1.267.164-4.863zm-.485 6.588l27.235 1.355-.042 4.626-27.582-.819.39-5.162z" fill="#04a" />
   </g>
   <g fill-rule="evenodd" stroke="#000" stroke-linecap="round" stroke-linejoin="round" stroke-width=".21">
      <path d="M169.39 588.448l23.274 1.01-1.106 14.915-24.693-1.424 2.525-14.5z" fill="#fac53a" />
      <path d="M169.13 589.998l23.43 1.25-.237 4.214-24.023-.802.83-4.662zm-1.085 6.736l24.044 1.104-.293 4.362-24.604-.761.853-4.705z" fill="#04a" />
   </g>
   <g fill-rule="evenodd" stroke="#000" stroke-linecap="round" stroke-linejoin="round" stroke-width=".21">
      <path d="M196.401 590.576l24.356-.058-.156 14.95-25.316-.291 1.116-14.601z" fill="#fac53a" />
      <path d="M196.265 592.136l24.47.175-.043 4.22-24.672.3.245-4.695zm-.457 6.778l24.811.002-.093 4.746-25.142-.008.424-4.74z" fill="#04a" />
   </g>
   <g fill-rule="evenodd" stroke="#000" stroke-linecap="round" stroke-linejoin="round" stroke-width=".21">
      <path d="M260.259 328.02l20.417.159-.849 12.886-19.462-.742-.106-12.304z" fill="#fac53a" />
      <path d="M260.259 329.876l20.258.265-.209 3.981-19.996-.314-.053-3.932z" fill="#04a" />
      <path d="M260.259 328.02l20.417.159-.849 12.886-19.462-.742-.106-12.304z" fill="#fac53a" />
      <path d="M260.259 329.876l20.258.265-.209 3.981-19.996-.314-.053-3.932zm0 5.174l19.94.266-.209 3.981-19.678-.314-.053-3.932z" fill="#04a" />
   </g>
   <g fill-rule="evenodd" stroke="#000" stroke-linecap="round" stroke-linejoin="round" stroke-width=".21">
      <path d="M49.144 338.616c2.876-1.802 6.043-1.184 3.228 1.627 2.371-1.859 6.8-1.075 1.961 2.738 4.276-2.042 4.186 1.245 1.938 2.886 2.887-1.411 3.365 1.289.33 3.696-3.102 3.182-6.687 6.395-10.149 9.52-.064.056-.146.087-.268.062-1.252-.144-2.414-1.146-1.472-3.439-2.066.179-3.298-1.58-1.949-3.313-2.196-.253-2.751-1.4-2.07-3.224-2.37-.233-2.901-1.22-1.972-3.156a2.02 2.02 0 01.324-.368c3.693-3.297 7.02-5.602 10.008-6.987m.644-.313c-.298.876.48 2.184 1.992 2.353m.652-.329c-.709.995.931 2.602 1.902 2.639m.262-.121c-1 1.019.086 3.482 2.097 2.687m-.37.337c-.629 1.123.2 2.423 1.228 2.778m-14.687 3.703c.417-.238 11.582-9.394 11.582-9.394m-13.557 6.12c.612-.51 11.617-8.887 11.617-8.887m-7.655 15.46l11.59-9.874" fill="#f5ca44" />
      <path d="M52.34 340.37c-.188.105-.241.346-.65.328-1.847-.173-2.109-2.04-2.008-2.359 2.69-1.403 5.347-.667 2.715 1.962 2.37-1.86 6.775-1.133 1.936 2.68 4.276-2.042 4.246 1.167 1.997 2.808 2.566-1.254 3.17.817 1.142 2.933-1.04-.388-1.869-1.688-1.128-2.917-1.9.689-2.839-1.9-1.97-2.858-1.102.024-2.742-1.583-2.033-2.578z" fill="#fff" />
   </g>
   <path d="M53.214 337.938c-1.71-.824-4.16.257-9.705 4.056l-.424-5.515c5.729-3.138 8.235-3.943 12.993-4.481" fill="#f5ca44" fill-rule="evenodd" />
   <path d="M43.51 341.994c5.545-3.799 8.07-4.88 9.78-4.056m2.735-5.914c-4.759.539-7.305 1.233-13.034 4.53" fill="none" stroke="#000" stroke-width=".21" />
   <g>
      <path d="M219.913 79.235c-.144 10.86 8.774 24.08-2.975 24.996-11.852.368-7.668-14.38-7.867-23.255.847-8.493 5.76-21.244 5.36-28.475-1.38-24.919-17.634-27.434-26.557-27.482-2.81-2.879-10.915-3.193-16.729.7-.506.719-1.042 1.397-.948 2.973 3.458 5.69 10.456 6.376 18.057 6.21.828.221 1.132.746.91 1.575-6.266 5.118-7.141 10.167-7.292 15.207 2.178 16.787 6.111 34.964 6.85 50.342 1.397 29.069 41.687 16.69 45.13 7.867 2.398-3.212.953-9.746 1.128-13.519" fill="#fac53a" fill-rule="evenodd" stroke="#000" stroke-width=".937" />
      <path d="M210.835 38.152l-.946-.589c-4.057-2.891-6.588-6.334-12.81-8.165-3.923-1.4-8.386-.71-12.502-.167-2.204.687-4.127.17-5.868-1.134-1.637-1.746-4.53-.445-7.177-.459l-.89-.256c.185-.573.488-.976.782-1.394 5.814-3.892 13.417-3.61 16.228-.732 6.734.037 17.644 1.478 23.183 12.896zm-5.73 44.199c-4.923 1.077-10.47.972-15.478-.34 0 0 5.008 1.312-.076-.19.924 6.514 2.156 14.441 3.687 23.837l.095-.083c-.004-6.845 10.179-6.443 10.903-2.789-.335-8.094-.15-.456-.15-.456-.185-7.638.245-14.167 1.02-19.979z" fill="#308d57" fill-rule="evenodd" />
      <path d="M203.999 102.324c-.704-28.993 8.132-43.578 6.577-53.262-2.084-12.979-10.872-12.935-12.43-12.985-1.608-.052-10.208.55-11.583 13.464-.983 9.232 1.53 23.458 6.493 56.195" fill="none" stroke="#000" stroke-width=".353" />
      <path d="M186.9 61.818c6.896 3.143 14.821 4.297 22.238.345-1.233 5.432-2.967 12.163-4.069 20.462-4.934.913-10.434.698-15.477-.528-1.326-8.536-2.2-14.978-2.691-20.28z" fill="#c13c1b" fill-rule="evenodd" />
      <path d="M186.856 61.993c6.895 3.143 14.777 4.117 22.144.253" fill="none" stroke="#000" stroke-width=".353" />
      <path d="M186.75 61.987c6.896 3.143 14.804 4.117 22.19.296 1.282-5.376 2.133-9.638 1.557-13.226-2.084-12.979-10.872-12.935-12.43-12.985-1.608-.052-10.208.55-11.583 13.464-.352 3.304-.23 7.248.267 12.451z" fill="#04a" fill-rule="evenodd" />
      <path d="M189.539 82.005c5.008 1.312 10.508 1.527 15.43.45m-33.047-55.044c2.647.015 4.796-1.275 6.434.471 1.74 1.303 3.59 1.869 5.849 1.429 4.061-.79 8.826-1.394 12.75.005 6.222 1.832 9.944 6.122 14.001 9.013" fill="none" stroke="#000" stroke-width=".353" />
      <path style="marker:none" d="M184.407 26.967c-.059.919-.947 1.61-1.985 1.544-1.037-.067-1.83-.865-1.772-1.784.059-.919.948-1.61 1.985-1.544 1.037.067 1.83.865 1.772 1.784z" color="#000" fill-rule="evenodd" stroke="#000" stroke-linecap="round" stroke-linejoin="round" overflow="visible" stroke-width=".301" />
      <path d="M193.245 105.57c-.004-6.846 10.179-6.443 11.053-2.333" fill="none" stroke="#000" stroke-width=".353" />
      <path d="M193.1 105.92c4.335-.807 8.014-.855 11.938-2.637m-7.92 7.748c4.05-.32 7.29-2.708 9.487-4.814m-5.346 7.617c3.32-1.464 5.671-2.675 7.647-5.413" fill="none" stroke="#000" stroke-width=".188" />
      <g fill="none" stroke="#000" stroke-width=".353">
         <path d="M203.927 102.32c-.704-28.993 8.132-43.578 6.577-53.263-2.084-12.978-10.871-12.935-12.43-12.985-1.608-.052-10.208.55-11.583 13.465-.983 9.231 1.53 23.457 6.493 56.194m-6.199-43.743c6.895 3.143 14.776 4.117 22.143.254M189.467 82c5.009 1.313 10.508 1.528 15.431.451" />
         <path d="M193.173 105.565c-.004-6.845 10.179-6.443 11.053-2.333" stroke-linecap="round" stroke-linejoin="round" />
      </g>
      <path d="M196.833 100.67c-2.354-21.781 1.246-41.085-.786-64.098 1.59-.657 3.135-.577 4.651-.06 3.299 14.914-1.835 43.886.444 64.156" fill="#fac53a" fill-rule="evenodd" stroke="#000" stroke-width=".353" />
      <path d="M191.58 107.018c4.983 12.905 21.017 15.37 37.807 4.598" fill="none" stroke="#000" stroke-width=".47" stroke-linecap="round" stroke-linejoin="round" stroke-dasharray=".967 1.934" />
      <path d="M193.323 108.64c5.936 7.121 12.543 13.52 35.427 2.432" fill="none" stroke="#000" stroke-width=".374" stroke-linecap="round" stroke-linejoin="round" stroke-dasharray=".193 2.32" />
      <path d="M193.12 105.27c-.167-4.335 7.847-7.455 11.093-2.228" fill="none" stroke="#000" stroke-width=".47" stroke-linecap="round" stroke-linejoin="round" />
   </g>
   <g>
      <path style="marker:none" d="M187.195 88.08c-27.865 12.997-19.91 56.333-20.066 80.985l24.292-.368-.016-40.294c-.024-6.572.685-8.38 2.91-12.14-5.708-5.928-5.752-7.915-7.12-28.183z" color="#000" fill="#025" fill-rule="evenodd" stroke="#000" stroke-width=".214" stroke-linecap="round" stroke-linejoin="round" overflow="visible" />
      <path d="M151.83-196.826h25.973v12.197H151.83v-12.197z" fill="#fac53a" fill-rule="evenodd" stroke="#000" stroke-width=".224" transform="matrix(.93386 0 0 .96682 25.368 347.568)" />
      <path d="M153.196-195.633l22.881.104m-22.891 1.715l22.881.104m-22.887 1.87l22.882.105m-22.812 1.955l22.881.103m-22.731 2.029l22.877-.055m-22.96 1.955l22.95-.216" fill="none" stroke="#c13c1b" stroke-width=".665" stroke-linecap="round" stroke-linejoin="round" transform="matrix(.93386 0 0 .96682 25.368 347.568)" />
      <path d="M237.806 110.676c39.557 12.177 54.77 10.34 47.29 55.379l-.05 3.317 9.216.046-.197-36.55c-10.049-44.684-16.376-82.502-67.713-104.22-10.266-4.344-17.83-7.997-34.862-4.787-2.404.453-1.928 1.612 1.315 1.526 11.451.602 18.274 7.657 21.447 21.16 2.112 8.987-3.634 23.316-4.888 34.548-.564 10.32-1.355 14.951 1.288 20.83 1.58 1.216 3.328 2.19 6.255 2.523-2.74 1.896-5.551 17.348-5.078 28.07.493 21.767.639 35.601.639 35.601h25.545c.158-11.815.058-20.042.082-34.683l-.289-22.76z" fill="#025" fill-rule="evenodd" stroke="#000" stroke-width=".23" stroke-linecap="round" stroke-linejoin="round" />
      <path d="M210.945-175.397h26.425v12.196h-26.425v-12.196z" fill="#fac53a" fill-rule="evenodd" stroke="#000" stroke-width=".224" transform="matrix(.97491 0 0 .96682 6.645 326.735)" />
      <path d="M212.585-174.204l22.881.104m-22.891 2.034l22.88.104m-22.805 1.871l22.88.104m-22.891 1.795l22.881.103m-22.73 1.869l22.875-.054m-22.959 2.034l22.95-.215" fill="none" stroke="#c13c1b" stroke-width=".665" stroke-linecap="round" stroke-linejoin="round" transform="matrix(.97491 0 0 .96682 6.645 326.735)" />
   </g>
</svg>