<svg width="600" height="91" xmlns="http://www.w3.org/2000/svg">
    <path d="M1.96 89.79C.88 89.16 0 88.03 0 87.29 0 85.2 84 1.45 86.97.56c2.29-.68 5.2 1.8 22.92 19.53l20.29 20.29 20.17-20.19C162.18 8.35 171.39 0 172.61 0c1.24 0 10.46 8.36 22.3 20.19l20.18 20.19 20.17-20.19C247.14 8.3 256.3 0 257.54 0c1.24 0 10.4 8.3 22.28 20.19l20.17 20.19 20.19-20.19C331.97 8.4 341.23 0 342.46 0c1.23 0 10.49 8.4 22.28 20.19l20.19 20.19 20.16-20.19C416.97 8.3 426.13 0 427.37 0c1.24 0 10.41 8.3 22.28 20.19l20.17 20.19 20.19-20.19C502.03 8.17 511.05 0 512.32 0 514.68 0 600 84.94 600 87.29c0 2.79-4.63 3.71-18.59 3.71h-14.27l-27.43-27.5-27.42-27.49-20.18 20.19c-11.83 11.85-21.04 20.2-22.27 20.2-1.24 0-10.47-8.36-22.31-20.22l-20.2-20.21-20.08 20.21c-12.78 12.88-20.89 20.22-22.33 20.22-1.45 0-9.56-7.34-22.34-20.22L342.5 35.97l-20.2 20.21C310.5 67.99 301.23 76.4 300 76.4c-1.23 0-10.49-8.41-22.28-20.19l-20.19-20.19-20.17 20.19c-11.83 11.84-21.04 20.19-22.27 20.19-1.24 0-10.45-8.36-22.29-20.19l-20.19-20.19-20.16 20.19c-11.88 11.88-21.04 20.19-22.28 20.19-1.24 0-10.4-8.31-22.28-20.2L87.71 36.01 60.29 63.5 32.86 91l-14.48-.03c-7.96-.03-15.35-.55-16.42-1.18m55.02-33.06c17.1-17.11 29.48-28.64 30.74-28.64 1.23 0 10.45 8.34 22.27 20.18l20.17 20.19 20.19-20.19c11.83-11.83 21.05-20.18 22.29-20.18 1.23 0 10.43 8.34 22.27 20.18l20.16 20.19 20.19-20.19c11.83-11.83 21.05-20.18 22.29-20.18 1.23 0 10.44 8.34 22.27 20.18l20.17 20.19 20.19-20.19c11.83-11.83 21.05-20.18 22.29-20.18 1.23 0 10.44 8.34 22.27 20.18l20.17 20.19 20.18-20.19c11.84-11.83 21.06-20.18 22.3-20.18 1.22 0 10.43 8.34 22.26 20.18l20.17 20.19 20.19-20.19c11.78-11.78 21.05-20.18 22.28-20.18 1.25 0 13.7 11.6 30.73 28.64l28.62 28.65h7.3c4 0 7.63-.36 8.07-.79.43-.43-16.19-17.87-36.94-38.74L512.34 7.9l-20.21 20.2c-11.84 11.85-21.07 20.21-22.31 20.21-1.23 0-10.43-8.35-22.27-20.19L427.39 7.93 407.2 28.12c-11.84 11.83-21.05 20.19-22.29 20.19-1.23 0-10.44-8.35-22.27-20.19L342.47 7.93l-20.19 20.19c-11.83 11.83-21.05 20.19-22.29 20.19-1.23 0-10.44-8.35-22.27-20.19L257.55 7.93l-20.19 20.19c-11.83 11.83-21.05 20.19-22.29 20.19-1.23 0-10.43-8.35-22.27-20.19L172.64 7.93l-20.19 20.19c-11.79 11.79-21.05 20.19-22.28 20.19-1.23 0-10.51-8.4-22.3-20.21L87.66 7.9 49.93 45.85C29.18 66.72 12.56 84.16 12.99 84.59c.44.43 4.07.79 8.07.79h7.3l28.62-28.65" />
    <path fill="#0885ff" d="M12.99 84.59c-.87-.88 72.94-75.6 74.67-75.6.6 0 9.94 8.84 20.75 19.66 11.46 11.45 20.54 19.66 21.76 19.66 1.23 0 10.5-8.42 22.28-20.19l20.19-20.19 20.16 20.19c11.84 11.84 21.04 20.19 22.27 20.19 1.24 0 10.46-8.36 22.29-20.19l20.19-20.19 20.17 20.19c11.83 11.84 21.04 20.19 22.27 20.19 1.24 0 10.46-8.36 22.29-20.19l20.19-20.19 20.17 20.19c11.83 11.84 21.04 20.19 22.27 20.19 1.24 0 10.45-8.36 22.29-20.19l20.19-20.19 20.16 20.19c11.84 11.84 21.04 20.19 22.27 20.19 1.24 0 10.47-8.36 22.31-20.21l20.21-20.2 37.73 37.95c20.75 20.87 37.37 38.31 36.94 38.74-.44.43-4.07.79-8.07.79h-7.3l-28.62-28.65c-17.03-17.04-29.48-28.64-30.73-28.64-1.23 0-10.5 8.4-22.28 20.18l-20.19 20.19-20.17-20.19c-11.83-11.84-21.04-20.18-22.26-20.18-1.24 0-10.46 8.35-22.3 20.18l-20.18 20.19-20.17-20.19c-11.83-11.84-21.04-20.18-22.27-20.18-1.24 0-10.46 8.35-22.29 20.18l-20.19 20.19-20.17-20.19c-11.83-11.84-21.04-20.18-22.27-20.18-1.24 0-10.46 8.35-22.29 20.18l-20.19 20.19-20.16-20.19c-11.84-11.84-21.04-20.18-22.27-20.18-1.24 0-10.46 8.35-22.29 20.18l-20.19 20.19-20.17-20.19C98.17 36.43 88.95 28.09 87.72 28.09c-1.26 0-13.64 11.53-30.74 28.64L28.36 85.38h-7.3c-4 0-7.63-.36-8.07-.79" />
</svg>