<svg xmlns="http://www.w3.org/2000/svg" width="350" height="768" version="1.0">
   <defs>
      <linearGradient id="prefix__a">
         <stop offset="0" stop-color="#c13c1b" />
         <stop offset=".839" stop-color="#c13c1b" stop-opacity=".498" />
         <stop offset="1" stop-color="#c13c1b" stop-opacity="0" />
      </linearGradient>
   </defs>
   <path d="M70.58 707.62s.165-2.408.026.793c-.14 3.202.288 42.716-.876 47.969h-1.366c-1.573-5.297-1.17-44.782-1.3-48.04-.128-3.258-.099-.73-.099-.73h0L66.798 264.4c-2.89-.404-2.753-2.31-3.714-7.573-.962-5.262-8.888-7.992-8.708-8.97.18-.978 1.426-.778 2.316-1.232.89-.454 2.281-.77 2.921-1.07.64-.3 2.486-.39 3.471-.56.986-.169 1.455-.322 2.443-.444.988-.123 1.064-.232 3.163-.232 2.1 0 2.176.11 3.164.232.988.122 1.457.275 2.443.444.985.17 2.83.26 3.47.56.64.3 2.031.616 2.922 1.07.89.454 2.136.254 2.316 1.232.18.978-7.746 3.708-8.708 8.97-.961 5.263-.825 7.169-3.812 7.587z" fill="#308d57" fill-rule="evenodd" stroke="#000" stroke-width=".21" stroke-linecap="round" stroke-linejoin="round" />
   <path d="M296.59 302.192l16.503.962.546-30.38c.714-11.606.087-16.31-2.26-24.027-6.447-27.632-13.63-55.42-26.022-84.303-9.503-17.078-10.126-40.663-44.502-39.513-8.465-.373-16.944-.221-25.463 1.343-2.746 1.364-19.756 2.312-22.7 28.307 16.238-.327 20.46 5.744 35.72 11.874l3.605 2.235 4.379 11.939c-4.63 5.26-6.946 19.723-8.358 37.526-1.826 25.446-2.261 50.962-4.284 76.397l24.377.965 6.5-20.735 33.024-18.304c8.699 7.458 5.514 6.047 9.601 27.784-.354 5.156-.01 11.157-.665 17.93z" fill="#025" fill-rule="evenodd" stroke="#000" stroke-width=".205" stroke-linecap="round" stroke-linejoin="round" />
   <path d="M289.327 289.655l23.97 1.114-.212 12.356-24.607-.477.849-12.993z" fill="#fac53a" fill-rule="evenodd" stroke-linecap="round" stroke-linejoin="round" stroke="#c13c1b" stroke-width=".42" />
   <g fill="none" stroke="#c13c1b" stroke-width="3" stroke-linecap="round" stroke-linejoin="round">
      <path d="M290.276 291.3l21.674.824M290.2 293.25l21.675.824M290.2 295.35l21.675.824M290.126 297.3l21.674.824M290.2 299.324l21.675.675M290.05 301.424l21.75.525" stroke-width=".63" />
   </g>
   <path d="M162.87 751.482c22.707-4.633 41.798-16.26 48.282-21.421.147-.36.243-2.365.236-2.684l2.034-29.798h3.606l-1.91 28c-5.87 9.447-35.539 22.974-52.395 25.88l-9.016-.954c-1.051 2.667-2.534 6.652 3.607 7.504 60.093-.214 44.512-1.143 68.261-2 1.596 3.003 13.484 1.635 15.211 1.39 3.616-1.401 4.435-8.158 3.819-9.758-1.367-3.549-2.241-8.852-3.182-13.576-1.473-12.092-.6-24.183-.637-36.274 5.987-37.83 3.849-80.114 1.06-113.49 5.595-51.133 11.775-107.836 14.001-159.732 27.414-18.16-7.954-67.376-5.09-75.942 3.741-25.387 15.06-47.744 27.152-69.79h.424v2.333l-1.06 14.849c-.559 23.341 3.898 51.922 2.633 72.377-4.924 25.755-2.32 50.397.336 75.9l.212 12.94 19.304.425.849-12.94c3.411-22.415 5.344-44.83 4.242-67.245.399-2.706.314-4.948-.75-7.636 1.147-24.395 1.242-48.79.75-73.185l.212-14c.467-4.06 1.088-8.281 1.485-12.092 1.915-18.878-4.715-28.594-15.485-32.667-15.395-5.823-28.705-8.942-42.638-12.834l-39.904-4.773-42.19 15.91c-18.989 8-16.241 23.247-18.243 36.91l-3.606 14.425c-7.662 26.464-13.973 53.154-18.243 80.184-17.952 21.962-32.756 45.927-44.485 71.848l-5.4 9 10.8 10.5 7.5-9c14.273-14.146 36.825-36.431 47.699-62.4 3.353-2.296 4.222-6.596 4.767-9.413 12.175-28.256 20.966-68.458 24.3-85.348l3.033-15.186.9-2.25h.9v4.95c-1.389 6.55-2.212 13.1-2.4 19.65-1.398 3.238-1.951 4.707 1.2 5.1 1.428 4.342 7.502 10.9 9.9 12.899 9.812 6.863 7.687 15.062 6.6 22.8-11.225 79.878-21.417 114.682 1.8 228.596-1.858 13.574 1.2 24.2 1.8 36.3-3.181 30.599-5.59 61.199-5.4 91.798-.168 38.431-11.757 29.915-60.332 53.58l-7.637-.425c-2.31 2.875-.968 6.181.424 7.212l34.471.08c-5.562-1.43-3.763-4.785-2.924-7.55l9.117 1.023z" fill="#f5ca44" fill-rule="evenodd" stroke="#000" stroke-width=".42" stroke-linecap="round" stroke-linejoin="round" />
   <path d="M79.74 448.314c-7.607.455-16.967 2.372-23.983 11.689l-3.958 1.954c1.558 4.537 5.693 2.417 7.152.266-.929 1.936-.665 3.257 1.706 3.49-.682 1.823-.126 2.971 2.07 3.224-1.35 1.732-.118 3.492 1.948 3.313-.941 2.293.228 3.417 1.48 3.561 3.207 1.76 19.039-15.308 20.682-16.782" fill="#f5ca44" fill-rule="evenodd" stroke="#000" stroke-width=".21" stroke-linecap="round" stroke-linejoin="round" />
   <g fill-rule="evenodd" stroke="#000" stroke-linecap="round" stroke-linejoin="round">
      <path d="M285.235 550.114c2.643-.863 4.81-.533 6.894 0l-1.216-33.074 15.75 1.052c-.482-2.37-.645-4.738 0-7.107l-15.75 1.105h0c3.299-5.896 7.924-11.124 9.588-19.746 3.361-17.425-5.524-16.693-11.688-16.749-6.71-.06-16.617.989-12.495 17.491 1.896 7.591 6.517 13.56 10.245 19.004h0l-17.7-1.105c.595 2.37.537 4.738 0 7.107l17.7-1.052h0l-1.328 33.074z" fill="#025" stroke-width=".21" />
      <path d="M286.563 507.22c-3.401-4.618-6.665-9.131-7.487-15.088-1.662-12.043 4.59-13.388 9.65-13.418 4.497-.027 11.144.61 8.168 13.312-1.396 5.959-3.567 11.32-5.98 15.194-1.512 2.046-3.134 1.711-4.35 0z" fill="#fff" stroke-width=".21" />
   </g>
   <path d="M280.242 457.343c-.974 4.868-3.379 10.023-5.727 15.167-3.105 4.927-3.307 11.216-2.44 17.182l-.318 5.622c8.742 1.046.296-10.62 5.834-14.955l.848 8.06c1.585 1.51 3.148 2.703 4.455.319 1.555 1.742 3.111 1.616 4.667-.318 1.902 2.459 3.454.728 5.09 0 1.745 1.364 3.59 1.848 4.774-1.273.344-8.514 2.89-16.782 2.28-29.274" fill="#f5ca44" fill-rule="evenodd" stroke="#000" stroke-width=".21" stroke-linecap="round" stroke-linejoin="round" />
   <path d="M274.187 232.328l-26.786-7.795-39.166-4.192-27.784 10.412c4.997 22.963 23.07 34.204 45.132 34.974 20.896.727 30.727-4.516 37.644-11.678 6.575-6.807 9.734-15.343 10.96-21.72z" fill="#fff" fill-rule="evenodd" stroke="#000" stroke-width=".22449" stroke-linecap="round" stroke-linejoin="round" />
   <path style="marker:none" d="M263.054 229.072c-4.616 19.074-16.577 26.143-37.798 25.037-20.573-1.071-31.25-13.713-33.374-26.57l-.334-.942" color="#000" fill="none" stroke="#04a" stroke-width="4.001969999999999" stroke-linejoin="round" overflow="visible" />
   <path style="marker:none" d="M252.808 226.129c-4.236 14.919-12.947 18.07-26.994 17.346-13.181-.678-23.292-9.394-23.201-20.206l-.236-.733" color="#000" fill="none" stroke="#308d57" stroke-width="2.45574" overflow="visible" />
   <path style="marker:none" d="M259.64 228.138c-3.53 13.463-11.328 23.641-34.075 22.355-19.207-1.086-28.807-13.555-29.992-24.624l-.211-.688" color="#000" fill="none" stroke="#c13c1b" stroke-width="2.45574" overflow="visible" />
   <path style="marker:none" d="M249.47 225.094c-.073.23-.033.183-.106.42-2.068 6.677-4.925 15.974-23.496 14.33-12.6-1.114-19.168-8.72-19.555-15.742-.018-.518-.2-1.783-.22-2.434l-.136-.444" color="#000" fill="none" stroke="#04a" stroke-width="3.6017099999999997" overflow="visible" />
   <path style="marker:none" d="M256.207 227.175c-4.575 18.08-18.563 20.711-30.812 19.827-16.808-1.218-25.805-11.653-26.307-22.672l-.199-.528" color="#000" fill="none" stroke="#04a" stroke-width="3.6017099999999997" overflow="visible" />
   <path style="marker:none" d="M269.648 231c-5.286 20.223-17.288 31.228-43.592 29.957l-.32-.016h-.009c-30.526-1.584-38.193-21.256-40.567-31.036l-.293-.745" color="#000" fill="none" stroke="#fac53a" stroke-width="8.98317" overflow="visible" />
   <g fill="none" stroke="#c13c1b">
      <path d="M215.123 261.684c.542-1.585.26-4.391-.133-6.232-1.319 1.307-3.155 3.495-3.63 4.994-.914 2.884 2.842 3.933 3.763 1.238z" stroke-width=".22457" />
      <path d="M214.638 261.485c.4-1.174.195-3.251-.093-4.614-.975.97-2.331 2.59-2.683 3.701-.678 2.135 2.093 2.909 2.776.913z" stroke-width=".22457" />
      <path d="M214.644 261.426a2.21 2.21 0 00-1.199-.968c-.67-.215-1.127-.094-1.51.07M214.802 259.296c-.195-.252-.63-.502-.844-.567-.232-.072-.727-.06-.957 0" style="marker:none" color="#000" stroke-linecap="round" stroke-linejoin="round" overflow="visible" stroke-width=".22457" />
   </g>
   <g fill="none" stroke="#c13c1b">
      <path d="M219.835 262.462c.386-1.63-.167-4.396-.736-6.19-1.187 1.428-2.802 3.783-3.13 5.322-.63 2.958 3.21 3.639 3.866.868z" stroke-width=".22457" />
      <path d="M219.332 262.31c.286-1.207-.12-3.255-.54-4.583-.875 1.059-2.068 2.804-2.311 3.944-.467 2.19 2.365 2.692 2.851.64z" stroke-width=".22457" />
      <path d="M219.333 262.251a2.21 2.21 0 00-1.287-.847c-.688-.15-1.131.015-1.496.215M219.284 260.116c-.219-.232-.675-.439-.895-.483-.238-.049-.73.012-.952.094" style="marker:none" color="#000" stroke-linecap="round" stroke-linejoin="round" overflow="visible" stroke-width=".22457" />
   </g>
   <g fill="none" stroke="#c13c1b">
      <path d="M210.325 260.327c.697-1.523.695-4.344.486-6.215-1.442 1.17-3.486 3.165-4.108 4.61-1.196 2.778 2.437 4.195 3.622 1.605z" stroke-width=".22457" />
      <path d="M209.862 260.08c.515-1.128.517-3.215.365-4.6-1.065.868-2.576 2.346-3.037 3.416-.886 2.058 1.794 3.103 2.672 1.185z" stroke-width=".22457" />
      <path d="M209.874 260.023a2.21 2.21 0 00-1.097-1.083c-.645-.28-1.112-.206-1.509-.08M210.243 257.919c-.17-.27-.577-.562-.784-.648-.223-.094-.718-.132-.952-.094" style="marker:none" color="#000" stroke-linecap="round" stroke-linejoin="round" overflow="visible" stroke-width=".22457" />
   </g>
   <g fill="none" stroke="#c13c1b">
      <path d="M229.3 263.013c.051-1.675-1.044-4.274-1.961-5.918-.876 1.638-1.987 4.269-2 5.842-.025 3.024 3.873 2.922 3.961.076z" stroke-width=".22457" />
      <path d="M228.777 262.965c.038-1.24-.77-3.165-1.446-4.382-.646 1.213-1.466 3.161-1.476 4.327-.018 2.24 2.857 2.164 2.922.055z" stroke-width=".22457" />
      <path style="marker:none" d="M228.766 262.907a2.21 2.21 0 00-1.43-.572c-.704-.01-1.106.241-1.423.51M228.29 260.825c-.26-.184-.749-.294-.973-.294-.243 0-.713.158-.914.283" color="#000" stroke-linecap="round" stroke-linejoin="round" overflow="visible" stroke-width=".22457" />
   </g>
   <g fill="none" stroke="#c13c1b">
      <path d="M233.864 262.991c-.015-1.675-1.212-4.229-2.193-5.835-.81 1.67-1.817 4.343-1.768 5.916.093 3.023 3.984 2.767 3.96-.08z" stroke-width=".22457" />
      <path d="M233.34 262.965c-.012-1.24-.894-3.133-1.619-4.323-.597 1.238-1.34 3.217-1.304 4.382.07 2.239 2.94 2.05 2.922-.06z" stroke-width=".22457" />
      <path d="M233.326 262.907a2.21 2.21 0 00-1.452-.516c-.704.019-1.095.285-1.401.566M232.769 260.845c-.268-.173-.76-.265-.985-.255-.242.01-.706.185-.902.318" style="marker:none" color="#000" stroke-linecap="round" stroke-linejoin="round" overflow="visible" stroke-width=".22457" />
   </g>
   <g fill="none" stroke="#c13c1b">
      <path d="M224.523 262.927c.238-1.658-.559-4.364-1.287-6.1-1.053 1.53-2.452 4.02-2.64 5.581-.364 3.003 3.52 3.338 3.927.519z" stroke-width=".22457" />
      <path d="M224.009 262.821c.176-1.228-.41-3.23-.947-4.517-.778 1.133-1.81 2.978-1.95 4.135-.27 2.224 2.596 2.47 2.897.382z" stroke-width=".22457" />
      <path d="M224.004 262.762a2.21 2.21 0 00-1.357-.729c-.699-.087-1.126.116-1.47.349M223.765 260.64c-.239-.212-.712-.376-.935-.401-.241-.027-.726.077-.94.178" style="marker:none" color="#000" stroke-linecap="round" stroke-linejoin="round" overflow="visible" stroke-width=".22457" />
   </g>
   <g fill="none" stroke="#c13c1b">
      <path d="M265.604 245.76c-1.37-.964-4.143-1.48-6.02-1.617.885 1.632 2.472 4.007 3.778 4.883 2.512 1.684 4.57-1.627 2.242-3.267z" stroke-width=".22457" />
      <path d="M265.277 246.17c-1.015-.714-3.067-1.098-4.456-1.202.658 1.206 1.835 2.963 2.802 3.611 1.86 1.248 3.379-1.195 1.654-2.41z" stroke-width=".22457" />
      <path style="marker:none" d="M265.222 246.147a2.21 2.21 0 00-1.265.88c-.394.583-.406 1.056-.355 1.469M263.221 245.4c-.296.116-.657.463-.78.65-.134.203-.26.682-.267.92" color="#000" stroke-linecap="round" stroke-linejoin="round" overflow="visible" stroke-width=".22457" />
   </g>
   <g fill="none" stroke="#c13c1b">
      <path d="M268.126 241.266c-1.458-.825-4.268-1.065-6.15-1.018 1.042 1.537 2.854 3.745 4.24 4.489 2.665 1.43 4.389-2.068 1.91-3.471z" stroke-width=".22457" />
      <path d="M267.841 241.707c-1.08-.61-3.16-.792-4.552-.76.773 1.137 2.116 2.77 3.143 3.32 1.974 1.06 3.245-1.521 1.41-2.56z" stroke-width=".22457" />
      <path d="M267.784 241.69a2.21 2.21 0 00-1.172 1c-.335.618-.3 1.09-.21 1.496M265.72 241.142c-.284.145-.61.526-.713.724-.113.215-.192.705-.176.941" style="marker:none" color="#000" stroke-linecap="round" stroke-linejoin="round" overflow="visible" stroke-width=".22457" />
   </g>
   <g fill="none" stroke="#c13c1b">
      <path d="M262.836 249.8c-1.213-1.156-3.879-2.076-5.715-2.49.634 1.745 1.851 4.328 3.014 5.388 2.235 2.038 4.761-.932 2.7-2.898z" stroke-width=".22457" />
      <path d="M262.452 250.157c-.898-.856-2.871-1.54-4.23-1.848.472 1.29 1.376 3.202 2.237 3.987 1.655 1.509 3.519-.683 1.993-2.139z" stroke-width=".22457" />
      <path style="marker:none" d="M262.4 250.127a2.21 2.21 0 00-1.38.683c-.477.518-.559.984-.57 1.4M260.533 249.09c-.311.072-.72.362-.869.53-.162.18-.359.635-.4.869" color="#000" stroke-linecap="round" stroke-linejoin="round" overflow="visible" stroke-width=".22457" />
   </g>
   <g fill="none" stroke="#c13c1b">
      <path d="M271.127 232.346c-1.602-.488-4.397-.113-6.224.342 1.35 1.274 3.598 3.036 5.113 3.461 2.912.817 3.835-2.971 1.111-3.803z" stroke-width=".22457" />
      <path d="M270.945 232.838c-1.187-.361-3.257-.086-4.609.247 1.001.942 2.667 2.244 3.788 2.558 2.157.606 2.838-2.189.82-2.805z" stroke-width=".22457" />
      <path d="M270.885 232.834a2.21 2.21 0 00-.927 1.23c-.193.677-.057 1.13.12 1.507M268.751 232.747c-.245.204-.48.646-.539.862-.063.235-.034.73.033.957" style="marker:none" color="#000" stroke-linecap="round" stroke-linejoin="round" overflow="visible" stroke-width=".22457" />
   </g>
   <g fill="none" stroke="#c13c1b">
      <path d="M269.763 236.72c-1.548-.64-4.366-.532-6.228-.254 1.223 1.398 3.292 3.366 4.76 3.933 2.82 1.091 4.1-2.592 1.468-3.68z" stroke-width=".22457" />
      <path d="M269.535 237.192c-1.147-.473-3.233-.397-4.611-.193.906 1.033 2.44 2.487 3.527 2.907 2.09.808 3.033-1.909 1.084-2.714z" stroke-width=".22457" />
      <path d="M269.476 237.182a2.21 2.21 0 00-1.04 1.136c-.257.656-.164 1.12-.024 1.511M267.36 236.892c-.264.18-.54.597-.619.807-.085.227-.104.723-.058.955" style="marker:none" color="#000" stroke-linecap="round" stroke-linejoin="round" overflow="visible" stroke-width=".22457" />
   </g>
   <g fill="none" stroke="#c13c1b">
      <path d="M255.713 256.502c-.833-1.453-3.126-3.094-4.769-4.015.111 1.854.543 4.677 1.355 6.024 1.562 2.59 4.83.463 3.414-2.009z" stroke-width=".22457" />
      <path d="M255.243 256.735c-.617-1.076-2.313-2.293-3.527-2.976.085 1.372.407 3.461 1.009 4.459 1.156 1.918 3.567.348 2.518-1.483z" stroke-width=".22457" />
      <path style="marker:none" d="M255.203 256.692a2.21 2.21 0 00-1.518.261c-.605.36-.816.784-.945 1.18M253.708 255.167c-.319-.02-.793.141-.983.259-.207.127-.525.507-.631.72" color="#000" stroke-linecap="round" stroke-linejoin="round" overflow="visible" stroke-width=".22457" />
   </g>
   <g fill="none" stroke="#c13c1b">
      <path d="M259.327 253.528c-1.058-1.299-3.589-2.545-5.359-3.186.411 1.81 1.296 4.526 2.316 5.723 1.962 2.302 4.84-.329 3.043-2.537z" stroke-width=".22457" />
      <path d="M258.9 253.834c-.783-.961-2.654-1.887-3.963-2.363.306 1.34.963 3.349 1.72 4.235 1.452 1.705 3.575-.236 2.244-1.872z" stroke-width=".22457" />
      <path d="M258.854 253.798a2.21 2.21 0 00-1.456.504c-.537.455-.677.907-.74 1.318M257.13 252.536c-.317.032-.758.269-.927.416-.184.159-.436.586-.506.812" style="marker:none" color="#000" stroke-linecap="round" stroke-linejoin="round" overflow="visible" stroke-width=".22457" />
   </g>
   <g fill="none" stroke="#c13c1b">
      <path d="M251.589 258.927c-.67-1.535-2.774-3.414-4.307-4.507-.09 1.855.033 4.708.695 6.135 1.272 2.744 4.75.983 3.612-1.628z" stroke-width=".22457" />
      <path d="M251.096 259.108c-.497-1.136-2.05-2.53-3.184-3.34-.064 1.372.03 3.484.52 4.541.942 2.033 3.508.733 2.664-1.2z" stroke-width=".22457" />
      <path style="marker:none" d="M251.061 259.06a2.21 2.21 0 00-1.538.096c-.64.293-.895.691-1.066 1.07M249.74 257.383c-.315-.055-.804.055-1.006.15-.22.105-.577.448-.705.648" color="#000" stroke-linecap="round" stroke-linejoin="round" overflow="visible" stroke-width=".22457" />
   </g>
   <g fill="none" stroke="#c13c1b">
      <path d="M242.869 261.845c-.299-1.648-1.91-3.962-3.15-5.38-.516 1.785-1.055 4.59-.74 6.13.604 2.964 4.395 2.053 3.89-.75z" stroke-width=".22457" />
      <path d="M242.347 261.908c-.22-1.22-1.411-2.936-2.326-3.986-.38 1.321-.776 3.398-.543 4.54.447 2.194 3.244 1.522 2.87-.554z" stroke-width=".22457" />
      <path d="M242.324 261.853a2.21 2.21 0 00-1.518-.262c-.69.138-1.031.466-1.285.795M241.426 259.916c-.293-.126-.794-.132-1.013-.085-.238.05-.665.302-.836.466" style="marker:none" color="#000" stroke-linecap="round" stroke-linejoin="round" overflow="visible" stroke-width=".22457" />
   </g>
   <g fill="none" stroke="#c13c1b">
      <path d="M247.27 260.65c-.458-1.611-2.288-3.757-3.66-5.046-.34 1.826-.601 4.67-.138 6.173.892 2.89 4.576 1.613 3.798-1.127z" stroke-width=".22457" />
      <path d="M246.758 260.763c-.34-1.193-1.692-2.783-2.705-3.739-.25 1.352-.44 3.457-.097 4.57.66 2.141 3.378 1.199 2.802-.83z" stroke-width=".22457" />
      <path style="marker:none" d="M246.73 260.711a2.21 2.21 0 00-1.537-.112c-.674.204-.98.564-1.201.917M245.646 258.87c-.304-.095-.803-.053-1.017.015-.231.074-.631.366-.786.546" color="#000" stroke-linecap="round" stroke-linejoin="round" overflow="visible" stroke-width=".22457" />
   </g>
   <g fill="none" stroke="#c13c1b">
      <path d="M238.454 262.605c-.122-1.671-1.479-4.144-2.56-5.684-.703 1.719-1.537 4.45-1.388 6.016.286 3.011 4.153 2.508 3.948-.332z" stroke-width=".22457" />
      <path d="M237.929 262.612c-.09-1.238-1.092-3.07-1.89-4.21-.518 1.272-1.133 3.295-1.022 4.455.212 2.23 3.064 1.858 2.912-.245z" stroke-width=".22457" />
      <path d="M237.912 262.555a2.21 2.21 0 00-1.482-.422c-.701.063-1.075.353-1.362.654M237.224 260.532c-.278-.155-.775-.215-.998-.192-.242.025-.693.23-.88.376" style="marker:none" color="#000" stroke-linecap="round" stroke-linejoin="round" overflow="visible" stroke-width=".22457" />
   </g>
   <g fill="none" stroke="#c13c1b">
      <path d="M201.557 256.434c1.003-1.342 1.597-4.099 1.788-5.972-1.657.84-4.076 2.357-4.989 3.638-1.756 2.463 1.496 4.615 3.201 2.334z" stroke-width=".22457" />
      <path d="M201.156 256.096c.743-.994 1.185-3.034 1.33-4.42-1.226.623-3.015 1.749-3.691 2.698-1.3 1.824 1.098 3.411 2.361 1.722z" stroke-width=".22457" />
      <path style="marker:none" d="M201.18 256.042a2.21 2.21 0 00-.843-1.29c-.571-.411-1.044-.436-1.458-.397M201.985 254.063c-.108-.3-.445-.67-.628-.799-.2-.14-.675-.28-.911-.293" color="#000" stroke-linecap="round" stroke-linejoin="round" overflow="visible" stroke-width=".22457" />
   </g>
   <g fill="none" stroke="#c13c1b">
      <path d="M205.732 258.652c.882-1.424 1.235-4.222 1.264-6.105-1.578.98-3.856 2.701-4.655 4.056-1.536 2.606 1.89 4.469 3.39 2.049z" stroke-width=".22457" />
      <path d="M205.303 258.35c.654-1.055.918-3.126.942-4.519-1.167.727-2.852 2.003-3.444 3.007-1.137 1.93 1.39 3.304 2.502 1.511z" stroke-width=".22457" />
      <path d="M205.323 258.293a2.21 2.21 0 00-.952-1.212c-.605-.36-1.078-.344-1.487-.27M205.953 256.252c-.134-.289-.501-.63-.695-.741-.21-.122-.696-.22-.933-.213" style="marker:none" color="#000" stroke-linecap="round" stroke-linejoin="round" overflow="visible" stroke-width=".22457" />
   </g>
   <g fill="none" stroke="#c13c1b">
      <path d="M197.578 253.746c1.193-1.176 2.194-3.812 2.665-5.635-1.764.58-4.384 1.717-5.479 2.846-2.106 2.17.785 4.788 2.814 2.79z" stroke-width=".22457" />
      <path d="M197.232 253.351c.884-.871 1.628-2.821 1.979-4.17-1.305.432-3.243 1.276-4.054 2.112-1.56 1.608.572 3.538 2.075 2.058z" stroke-width=".22457" />
      <path d="M197.264 253.301a2.21 2.21 0 00-.64-1.402c-.503-.492-.966-.588-1.381-.612M198.357 251.466c-.061-.313-.339-.73-.5-.884-.177-.168-.625-.379-.857-.427" style="marker:none" color="#000" stroke-linecap="round" stroke-linejoin="round" overflow="visible" stroke-width=".22457" />
   </g>
   <g fill="none" stroke="#c13c1b">
      <path d="M190.757 246.989c1.468-.806 3.151-3.07 4.102-4.695-1.856.077-4.687.456-6.048 1.244-2.619 1.513-.552 4.82 1.946 3.45z" stroke-width=".22457" />
      <path d="M190.532 246.514c1.088-.597 2.336-2.27 3.041-3.471-1.373.059-3.468.342-4.477.925-1.939 1.122-.413 3.56 1.436 2.546z" stroke-width=".22457" />
      <path style="marker:none" d="M190.577 246.475a2.21 2.21 0 00-.234-1.523c-.35-.611-.769-.83-1.162-.966M192.129 245.008c.026-.318-.127-.795-.241-.988-.124-.21-.498-.534-.708-.644" color="#000" stroke-linecap="round" stroke-linejoin="round" overflow="visible" stroke-width=".22457" />
   </g>
   <g fill="none" stroke="#c13c1b">
      <path d="M193.945 250.612c1.335-1.012 2.669-3.497 3.372-5.243-1.824.347-4.57 1.135-5.802 2.113-2.369 1.88.16 4.85 2.43 3.13z" stroke-width=".22457" />
      <path d="M193.653 250.175c.989-.75 1.98-2.587 2.501-3.878-1.35.259-3.38.845-4.293 1.57-1.755 1.392.11 3.582 1.792 2.308z" stroke-width=".22457" />
      <path d="M193.692 250.13a2.21 2.21 0 00-.454-1.473c-.435-.553-.882-.708-1.29-.785M195.013 248.452c-.021-.318-.242-.768-.383-.942-.153-.189-.57-.456-.794-.534" style="marker:none" color="#000" stroke-linecap="round" stroke-linejoin="round" overflow="visible" stroke-width=".22457" />
   </g>
   <g fill="none" stroke="#c13c1b">
      <path d="M188.245 243.078c1.502-.742 3.282-2.93 4.303-4.511-1.858-.004-4.702.25-6.097.978-2.682 1.398-.76 4.792 1.794 3.533z" stroke-width=".22457" />
      <path d="M188.04 242.594c1.113-.55 2.433-2.166 3.19-3.336-1.374 0-3.479.191-4.512.73-1.987 1.036-.569 3.539 1.323 2.606z" stroke-width=".22457" />
      <path style="marker:none" d="M188.087 242.557a2.21 2.21 0 00-.166-1.532c-.323-.626-.733-.863-1.12-1.016M189.702 241.159c.04-.317-.092-.8-.198-.998-.114-.214-.474-.555-.679-.674" color="#000" stroke-linecap="round" stroke-linejoin="round" overflow="visible" stroke-width=".22457" />
   </g>
   <g fill="none" stroke="#c13c1b">
      <path d="M184.55 234.404c1.609-.466 3.745-2.308 5.026-3.687-1.827-.33-4.672-.577-6.173-.105-2.886.906-1.589 4.584 1.147 3.792z" stroke-width=".22457" />
      <path d="M184.434 233.892c1.191-.345 2.774-1.706 3.725-2.725-1.353-.242-3.46-.422-4.571-.072-2.137.671-1.18 3.384.846 2.797z" stroke-width=".22457" />
      <path d="M184.486 233.864a2.21 2.21 0 00.104-1.538c-.208-.672-.57-.977-.923-1.196M186.32 232.77c.095-.304.05-.803-.02-1.017-.074-.23-.368-.63-.55-.782" style="marker:none" color="#000" stroke-linecap="round" stroke-linejoin="round" overflow="visible" stroke-width=".22457" />
   </g>
   <g fill="none" stroke="#c13c1b">
      <path d="M186.082 238.743c1.567-.594 3.549-2.6 4.716-4.077-1.848-.183-4.704-.202-6.162.389-2.804 1.134-1.217 4.696 1.446 3.688z" stroke-width=".22457" />
      <path d="M185.926 238.242c1.16-.44 2.63-1.923 3.495-3.014-1.368-.133-3.482-.144-4.562.293-2.077.84-.906 3.468 1.067 2.72z" stroke-width=".22457" />
      <path style="marker:none" d="M185.976 238.21a2.21 2.21 0 00-.02-1.541c-.26-.654-.645-.93-1.016-1.119M187.717 236.973c.07-.312-.015-.805-.101-1.012-.093-.224-.418-.598-.611-.737" color="#000" stroke-linecap="round" stroke-linejoin="round" overflow="visible" stroke-width=".22457" />
   </g>
   <path d="M274.187 232.328l-26.786-7.795-39.166-4.192-27.784 10.412c4.997 22.963 23.07 34.204 45.132 34.974 20.896.727 30.727-4.516 37.644-11.678 6.575-6.807 9.734-15.343 10.96-21.72z" fill="none" stroke="#000" stroke-width=".22449" stroke-linecap="round" stroke-linejoin="round" />
   <path d="M217.15 234.664c-9.707-5.887-6.832-8.55-11.71-25.604-4.653.07-11.44-.53-13.796-1.593-1.858-.839-2.45-1.853-3.04-3.968-.334-1.198.017-3.115.526-5.185-.655-.916-1.78-1.183-2.697-1.734-.82-1.083-.273-2.216-.151-2.701-.577-.66-1.23-1.706-.831-2.598.664-1.103.917-2.19.29-3.247-2.458-.235-6.94-1.747-4.571-7.194 2.135-4.91 5.463-10.37 8.3-15.622l3.304-10.552c5.754.02 33.414-.188 33.436 9.86l4.456.999 4.033 3.025-.035.12 3.9-.3c-2.11 7.492-4.304 9.756-7.815 68.948-2.567.263-8.47-.033-13.599-2.654z" fill="#f5ca44" fill-rule="evenodd" stroke="#000" stroke-width=".205" />
   <path d="M193.144 159.034c3.29-1.83 6.56-2.31 9.913-2.119 1.75.1 3.97.553 5.808 1.82 7.276 5.017 7.282 4.424 10.035 5.349.13.193.32.392.012.546-1.406-.117-3.37-.73-5.38-1.51-1.874-.727-3.923-2.486-6.842-3.457-2.152-.716-4.592-.798-6.903-.737-2.136.057-4.281.85-6.752 1.641-.564.18-2.076-.318.109-1.533zM191.872 167.16c2.92-3.118 5.587-3.765 7.9-3.993 3.536-.349 8.9.213 11.755 1.38 2.05.84 4.098.488 6.67 1.035.48.102.493.892.002.924-2.41.155-5.117-.253-7.196.51-2.536.93-5.285 2.08-7.028 2.707-1.682.604-3.886 1.023-7.404.127-1.16-.294-2.188-.411-3.422.117-3.077 1.317-3.054-.911-1.277-2.808z" fill-rule="evenodd" stroke="#000" stroke-width=".205" />
   <path d="M185.48 191.39c4.782-.432 6.218 1.733 10.491 1.681M186.506 196.586c5.318.167 6.632-2.229 9.72-2.93" fill="none" stroke="#000" stroke-width=".105" stroke-linecap="round" stroke-linejoin="round" />
   <path d="M186.248 193.93c1.751.372 6.3.063 7.918-.165" fill="none" stroke="#000" stroke-width=".21" stroke-linecap="round" stroke-linejoin="round" />
   <path d="M193.258 168.181c.78-1.43 1.95-1.668 2.98-2.33-.028 1.009.457 1.77 1.294 2.27-1.04-.006-3.711-.203-4.274.06zM205.397 164.852c-.016 1.262-.196 2.471-1.228 3.41 1.794-.29 3.57-1.73 5.026-3.072-1.26.27-2.426-.142-3.798-.338z" fill="#fff" fill-rule="evenodd" stroke="#000" stroke-width=".21" />
   <path d="M187.983 182.426c3.76 3.045 1.74 4.93-.037 4.851-1.758-.077-4.297-3.064-4.93-1.388-.638 1.69 2.85 1.089 2.799.61" fill="none" stroke="#000" stroke-width=".084" />
   <path d="M236.153 178.155c-3.62 2.232-8.035 24.311-8.16 37.745-1.775 25.17-2.18 50.617-4.18 75.77l24.378.965 2-67.235" fill="#025" fill-rule="evenodd" stroke="#000" stroke-width=".205" stroke-linecap="round" stroke-linejoin="round" />
   <path d="M213.437 697.579h27.418c5.986-37.83 3.795-79.902 1.008-113.277 5.594-51.134 11.773-107.837 14-159.733 27.414-18.16-7.954-67.376-5.091-75.942 2.24-15.194 7.335-28.203 13.544-41.809h-89.13c1.428 4.343 7.383 9.25 9.78 11.25 9.813 6.863 7.687 15.062 6.6 22.8-11.225 79.878-21.416 114.682 1.8 228.596-1.857 13.574 1.2 24.2 1.8 36.3-3.18 30.599-5.59 61.199-5.4 91.798l23.671.017z" fill="#c13c1b" fill-rule="evenodd" stroke="#000" stroke-width=".42" stroke-linecap="round" stroke-linejoin="round" />
   <path d="M263.51 307.328l-3.097 7.067h-79.017c-2.122-2.145-4.322-4.7-5.51-7.067h87.623z" fill="#fff" fill-rule="evenodd" stroke="#fff" stroke-width=".63" />
   <path d="M176.216 308.446h87.187M181.4 314.54h79.237M179.584 312.893h81.823" fill="none" stroke="#000" stroke-width=".42" stroke-linecap="round" stroke-linejoin="round" />
   <g fill="none" stroke="#000" stroke-width="2" stroke-linecap="round" stroke-linejoin="round">
      <path d="M181.018 308.638v4.026M182.914 308.638v4.026M184.922 308.638v4.026" stroke-width=".42" />
   </g>
   <g fill="none" stroke="#000" stroke-width="2" stroke-linecap="round" stroke-linejoin="round">
      <path d="M195.764 308.638v4.026M197.66 308.638v4.026M199.668 308.638v4.026" stroke-width=".42" />
   </g>
   <g fill="none" stroke="#000" stroke-width="2" stroke-linecap="round" stroke-linejoin="round">
      <path d="M209.94 308.638v4.026M211.836 308.638v4.026M213.844 308.638v4.026" stroke-width=".42" />
   </g>
   <g fill="none" stroke="#000" stroke-width="2" stroke-linecap="round" stroke-linejoin="round">
      <path d="M224.416 308.638v4.026M226.311 308.638v4.026M228.32 308.638v4.026" stroke-width=".42" />
   </g>
   <g fill="none" stroke="#000" stroke-width="2" stroke-linecap="round" stroke-linejoin="round">
      <path d="M239.73 308.638v4.026M241.625 308.638v4.026M243.634 308.638v4.026" stroke-width=".42" />
   </g>
   <g fill="none" stroke="#000" stroke-width="2" stroke-linecap="round" stroke-linejoin="round">
      <path d="M253.306 308.638v4.026M255.201 308.638v4.026M257.21 308.638v4.026" stroke-width=".42" />
   </g>
   <path d="M241.358 690.362l-.975 6.996-50.153-.16.062-6.854 51.066.018z" fill="#fff" fill-rule="evenodd" stroke="#fff" stroke-width=".63" />
   <path d="M189.74 691.409h51.834M190.036 697.504h50.72M189.74 695.856h51" fill="none" stroke="#000" stroke-width=".42" stroke-linecap="round" stroke-linejoin="round" />
   <g fill="none" stroke="#000" stroke-width="2" stroke-linecap="round" stroke-linejoin="round">
      <path d="M192.881 691.6v4.027M194.777 691.6v4.027M196.785 691.6v4.027" stroke-width=".42" />
   </g>
   <g fill="none" stroke="#000" stroke-width="2" stroke-linecap="round" stroke-linejoin="round">
      <path d="M205.678 691.6v4.027M207.574 691.6v4.027M209.583 691.6v4.027" stroke-width=".42" />
   </g>
   <g fill="none" stroke="#000" stroke-width="2" stroke-linecap="round" stroke-linejoin="round">
      <path d="M219.835 691.6v4.027M221.731 691.6v4.027M223.74 691.6v4.027" stroke-width=".42" />
   </g>
   <g fill="none" stroke="#000" stroke-width="2" stroke-linecap="round" stroke-linejoin="round">
      <path d="M233.77 691.6v4.027M235.666 691.6v4.027M237.675 691.6v4.027" stroke-width=".42" />
   </g>
   <path d="M189.824 690h51.958" fill="none" stroke="#000" stroke-width=".42" stroke-linecap="round" stroke-linejoin="round" />
   <g fill-rule="evenodd" stroke="#000" stroke-linecap="round" stroke-linejoin="round">
      <path d="M172.023 233.98l12.426 72.879h12.494l-18.283-75.392-6.637 2.512z" fill="#fff" stroke-width=".21" />
      <path d="M173.184 233.533l13.178 73.326h8.781l-17.84-74.897-4.119 1.571z" fill="#c13c1b" stroke-width=".21" />
   </g>
   <g fill-rule="evenodd" stroke="#000" stroke-linecap="round" stroke-linejoin="round">
      <path d="M273.783 232.246l-22.578 74.572h10.5l18.027-72.594-5.949-1.978z" fill="#fff" stroke-width=".21" />
      <path d="M274.967 232.637l-21.853 74.181h6.682l18.654-73.073-3.483-1.108z" fill="#c13c1b" stroke-width=".21" />
   </g>
   <g fill-rule="evenodd" stroke="#000" stroke-linecap="round" stroke-linejoin="round">
      <path d="M147.998 273.26l26.279 5.302-2.94 14.558-27.1-5.239 3.761-14.622z" fill="#fac53a" stroke-width=".21" />
      <path d="M147.56 274.93l26.382 5.467-.98 4.792-26.627-5.53 1.225-4.729zM145.969 281.347l26.607 5.617-.98 4.452-26.852-5.34 1.225-4.729z" fill="#04a" stroke-width=".21" />
   </g>
   <g fill-rule="evenodd" stroke="#000" stroke-linecap="round" stroke-linejoin="round">
      <path d="M82.075 438.989L95.45 449.3l-8.411 9.881-10.845-10.615 5.882-9.578z" fill="#fac53a" stroke-width=".21" />
      <path d="M81.283 440.276l12.872 10.32-2.481 2.931-12.1-10.334 1.71-2.917zM78.632 444.519l12.122 10.245-2.482 2.93-11.35-10.258 1.71-2.917z" fill="#04a" stroke-width=".21" />
   </g>
   <g stroke="#c13c1b" stroke-width="2">
      <path d="M224.628 279.048l23.97 1.114-.477 12.41-24.342-.53.849-12.994z" fill="#fac53a" fill-rule="evenodd" stroke-linecap="round" stroke-linejoin="round" stroke-width=".42" />
   </g>
   <path d="M276.534 144.252l-21.4 58.56-9.02-3.837 26.134-57.488c-17.765 5.83-53.386 3.35-76.898 1.68.649-1.762 2.508-5.343 2.696-5.343 34.758 3.785 67.594.919 73.532-1.196" fill="#fff" fill-rule="evenodd" stroke="#000" stroke-width=".21" stroke-linecap="round" stroke-linejoin="round" />
   <path d="M272.84 136.804c.313-.253.411-.47.425-.672 2.38-8.935 7.481-8.69 9.308-7.256 4.89 4.268-.154 6.342-4.37 12.087l28.832 59.087-7.609 3.255-23.492-59.053-21.85 58.034-6.994-2.936 26.608-59.246c-15.73 6.699-54.053 4.185-78.134 2.368.808-1.763 1.724-3.667 1.938-3.906 34.759 3.785 69.4.352 75.338-1.762z" fill="#d40000" fill-rule="evenodd" />
   <path d="M277.803 138.22c-1.018-2.564.186-4.736 1.687-5.594" fill="none" stroke="#000" stroke-width=".21" />
   <path d="M275.821 144.252c-1.977-4.808-3.136-6.389-2.615-8.116 2.7-8.949 7.428-8.695 9.255-7.26 4.89 4.268-.155 6.342-4.37 12.087l28.831 59.087-7.608 3.255s-16.645-42.402-23.493-59.053z" fill="none" stroke="#000" stroke-width=".21" stroke-linecap="round" stroke-linejoin="round" />
   <path d="M186.031 186.513c-1.321-.784-2.592-1.742-3.014-.624-.639 1.69 2.85 1.089 2.798.61" fill-rule="evenodd" stroke="#000" stroke-width=".084" />
   <g stroke="#000">
      <path d="M234.453 170.366c-3.654-2.282-3.81-5.887-2.632-7.87 2.826-4.753 5.05-5.618 7.177-5.056 4.112 1.085 3.624 6.182 2.757 10.547-.842 4.238-4.14 7.125-5.921 10.683-1.109 2.215-1.613 3.744-2.348 4.578-.85.966-2.337 2.372-4.429 1.423-2.306-1.046-1.804-3.877-.669-7.452.9-2.835 3.594-5.22 4.962-6.042" fill="#f5ca44" fill-rule="evenodd" stroke-width=".20454" />
      <path d="M231.572 178.208c-.966-.301 2.075-2.943 3.642-5.325 2.022-3.072-.154-4.455-1.15-6.338-1.636-3.097 1.029-7.834 3.862-7.115 3.372.856 4.836 5.201.704 11.733-1.856 2.934-4.94 7.707-7.058 7.045z" fill="none" stroke-width=".21" />
      <path style="marker:none" d="M231.89 181.795c0 .787-.588 1.425-1.313 1.425s-1.313-.638-1.313-1.425.588-1.425 1.313-1.425 1.312.638 1.312 1.425z" color="#000" fill="none" stroke-linecap="round" stroke-linejoin="round" overflow="visible" stroke-width=".21" />
   </g>
   <path d="M193.674 208.06c12.134 1.962 17.545.663 22.005-2.378M206.519 212.626c3.104-.139 6.132-1.402 9.15-2.7M207.419 216.446c4.103.774 6.761-1.538 9.75-2.85" fill="none" stroke="#000" stroke-width=".105" />
   <g fill-rule="evenodd" stroke="#000" stroke-linecap="round" stroke-linejoin="round">
      <path d="M278.273 281.682l26.785 1.096-.234 14.99-27.663-.635 1.112-15.451z" fill="#fac53a" stroke-width=".21" />
      <path d="M278.102 283.4l26.915 1.244-.064 4.886-27.015-1.266.164-4.863zM277.617 289.988l27.235 1.356-.042 4.625-27.582-.818.39-5.163z" fill="#04a" stroke-width=".21" />
   </g>
   <g fill-rule="evenodd" stroke="#000" stroke-linecap="round" stroke-linejoin="round">
      <path d="M189.39 705.097l23.274 1.009-1.106 14.916-24.693-1.424 2.525-14.501z" fill="#fac53a" stroke-width=".21" />
      <path d="M189.13 706.646l23.43 1.25-.237 4.214-24.023-.802.83-4.662zM188.045 713.382l24.044 1.104-.293 4.363-24.604-.762.853-4.705z" fill="#04a" stroke-width=".21" />
   </g>
   <g fill-rule="evenodd" stroke="#000" stroke-linecap="round" stroke-linejoin="round">
      <path d="M216.401 707.224l24.356-.058-.156 14.95-25.316-.29 1.116-14.602z" fill="#fac53a" stroke-width=".21" />
      <path d="M216.265 708.784l24.47.176-.043 4.22-24.672.3.245-4.696zM215.808 715.563l24.811.001-.093 4.747-25.142-.009.424-4.739z" fill="#04a" stroke-width=".21" />
   </g>
   <g fill-rule="evenodd" stroke="#000" stroke-linecap="round" stroke-linejoin="round">
      <path d="M280.259 444.668l20.417.16-.849 12.886-19.462-.743-.106-12.303z" fill="#fac53a" stroke-width=".21" />
      <path d="M280.259 446.524l20.258.265-.209 3.982-19.996-.315-.053-3.932z" fill="#04a" stroke-width=".21" />
      <path d="M280.259 444.668l20.417.16-.849 12.886-19.462-.743-.106-12.303z" fill="#fac53a" stroke-width=".21" />
      <path d="M280.259 446.524l20.258.265-.209 3.982-19.996-.315-.053-3.932zM280.259 451.7l19.94.264-.209 3.982-19.678-.315-.053-3.932z" fill="#04a" stroke-width=".21" />
   </g>
   <g fill="none" stroke="#c13c1b" stroke-width="3" stroke-linecap="round" stroke-linejoin="round">
      <path d="M225.364 280.418l21.675.825M225.29 282.368l21.674.825M225.29 284.468l21.674.825M225.214 286.418l21.675.825M225.29 288.443l21.674.675M225.14 290.543l21.749.525" stroke-width=".63" />
   </g>
   <g fill-rule="evenodd" stroke="#000" stroke-linecap="round" stroke-linejoin="round">
      <path d="M69.144 455.264c2.876-1.802 6.043-1.183 3.228 1.628 2.371-1.86 6.8-1.076 1.961 2.738 4.276-2.042 4.186 1.244 1.938 2.886 2.887-1.411 3.365 1.288.33 3.696-3.102 3.181-6.687 6.394-10.149 9.52-.064.055-.146.086-.268.062-1.252-.144-2.414-1.147-1.472-3.44-2.066.18-3.298-1.58-1.949-3.312-2.196-.253-2.751-1.401-2.07-3.225-2.37-.232-2.901-1.22-1.972-3.156.113-.158.22-.279.324-.367 3.693-3.298 7.02-5.602 10.008-6.987m.644-.313c-.298.876.48 2.184 1.992 2.353m.652-.329c-.709.995.931 2.602 1.902 2.638m.262-.12c-1 1.018.086 3.482 2.097 2.686m-.37.338c-.629 1.122.2 2.422 1.228 2.777m-14.687 3.703c.417-.238 11.582-9.394 11.582-9.394m-13.557 6.121c.612-.51 11.617-8.887 11.617-8.887m-7.655 15.46l11.59-9.875" fill="#f5ca44" stroke-width=".21" />
      <path d="M72.34 457.018c-.188.106-.241.347-.65.329-1.847-.174-2.109-2.04-2.008-2.36 2.69-1.403 5.347-.667 2.715 1.962 2.37-1.859 6.775-1.133 1.936 2.68 4.276-2.041 4.246 1.167 1.997 2.809 2.566-1.254 3.17.816 1.142 2.932-1.04-.388-1.869-1.688-1.128-2.917-1.9.69-2.839-1.899-1.97-2.857-1.102.024-2.742-1.583-2.033-2.578z" fill="#fff" stroke-width=".21" />
   </g>
   <path d="M73.214 454.586c-1.71-.823-4.16.258-9.705 4.057l-.424-5.515c5.729-3.138 8.235-3.943 12.993-4.482" fill="#f5ca44" fill-rule="evenodd" />
   <path d="M63.51 458.643c5.545-3.8 8.07-4.88 9.78-4.057m2.735-5.913c-4.759.538-7.305 1.233-13.034 4.53" fill="none" stroke="#000" stroke-width=".21" />
   <g stroke="#000">
      <path d="M218.956 123.526h34.235V35.653h-34.235v87.873z" fill="#fff" fill-rule="evenodd" stroke-width="3" />
      <path d="M201.095 28.867c9.699 29.448 59.777 29.448 68.946 0h-68.946z" fill="#308d57" fill-rule="evenodd" stroke-width=".987" />
      <path d="M253.191 86.328h-19.947v37.198" fill="none" stroke-width=".755" />
      <path d="M228.982 72.463c2.441-7.41 12.127-7.41 14.434 0h-14.434z" fill="#025" fill-rule="evenodd" stroke-width="1.021" />
      <path fill="#c13c1b" stroke-width="2.5" stroke-linecap="round" stroke-linejoin="round" d="M233.245 86.328h19.947v37.198h-19.947z" />
      <path d="M204.856 32.136h62.25M206.497 35.798h58.463M210.412 39.46h51.265M215.21 43.121h40.658M223.544 46.72h23.99" fill="none" stroke-width=".5" stroke-linecap="round" stroke-linejoin="round" stroke-opacity=".706" />
   </g>
</svg>