<svg width="718" height="350" xmlns="http://www.w3.org/2000/svg">
    <path d="M5.79 344.21c-6.98-6.97-7.15-12.52-1.24-43.53 12.07-63.58 53.21-139.82 104.54-193.71C177.21 35.46 256.34 2.4 360.45 1.94c45.68-.2 62.24 2.14 102.28 14.55 89.15 27.62 175.51 102.05 217.52 187.44 14.33 29.15 17.19 38 30.48 94.7 8.75 37.4 8.78 38.3 1.48 45.58-5.73 5.73-9.64 5.79-353.21 5.79s-347.48-.06-353.21-5.79m691.6-15.5c2.43-2.92 2.11-10.47-1.22-29.65-13.03-75.12-44.09-131.7-103.04-187.7C517.1 39.14 429.32 7.58 330.37 16.98c-87.84 8.33-153.94 39.69-211.73 100.43-37.08 38.99-78.02 106.56-92.06 152.06-8.11 26.24-11 53.17-6.34 58.81 3.21 3.84 43.69 4.36 338.76 4.36 278.46 0 335.69-.66 338.39-3.93" />
    <path fill="#d98e4c" d="M20.24 328.28c-4.66-5.64-1.77-32.57 6.34-58.81 14.04-45.5 54.98-113.07 92.06-152.06 58.2-61.18 124.81-92.56 213.12-100.4 99.36-8.85 185.49 22.24 261.37 94.35 58.95 56 90.01 112.58 103.04 187.7 3.33 19.18 3.65 26.73 1.22 29.65-2.7 3.27-59.93 3.93-338.39 3.93-295.07 0-335.55-.52-338.76-4.36" />
</svg>