<svg width="800" height="231" xmlns="http://www.w3.org/2000/svg">
    <path d="M44.02 227.33c-13.8-3.85-17.5-5.6-25.83-12.14-6.9-5.45-14.21-19.86-16.88-33.35-1.63-8.31-1.53-11.21.81-21.16 5.37-22.89 16.89-35.12 39.25-41.63L53 115.66l-11.64-3.57C18.83 105.22 7.47 93.13 2.12 70.32c-2.34-9.95-2.44-12.85-.81-21.16 1.05-5.3 3.99-13.95 6.54-19.22C15.29 14.45 26.98 6.99 51.32 2.19c12.76-2.52 14.12-2.52 26.24.06 25.16 5.35 34.84 11.94 44.26 30.12 3.49 6.74 7.45 12.68 8.81 13.19 1.34.53 137.65.95 302.91.95 229.63 0 301.92.43 306.66 1.86 6.09 1.83 6.3 1.77 10.78-3.49 2.52-2.94 8.71-11.63 13.76-19.3C775.35 9.44 777.17 7.75 784 7.75c10.42 0 16 5.52 16 15.86 0 5.04-10.53 22.45-24.4 40.31l-6.89 8.88 3.68 8.17c3.41 7.59 3.67 10.08 3.67 34.53 0 26.32 0 26.37-4.85 36.62-6.3 13.35-14.18 21.94-25.02 27.28l-8.74 4.31-304.25.8c-167.33.43-304.38.96-304.55 1.16-.17.2-3.2 5.95-6.73 12.79-9.21 17.73-17.8 24-40.39 29.44-15.99 3.84-21.99 3.75-37.51-.57m34.44-6.42c19.16-4.55 28.91-11.97 36.85-28.08 3.13-6.37 6.45-12.09 7.36-12.68.91-.61 138.23-1.43 305.13-1.86l303.47-.78 8.75-4.31c10.84-5.35 18.71-13.93 25.01-27.28 4.67-9.86 4.85-11.04 4.85-30.42 0-19.52-.15-20.5-5.02-30.79-2.76-5.86-5.01-11.53-5.01-12.63 0-1.11 3.72-6.78 8.26-12.62 8.97-11.54 24.17-34.5 24.17-36.5 0-1.6-5.79-7.47-7.34-7.43-2.65.05-5.22 3-12.83 14.73-10.21 15.72-19.29 26.67-23.17 27.91-1.65.53-6.86-.48-11.55-2.25-8.54-3.21-8.94-3.21-310.9-3.21-239.54 0-302.86-.4-304.79-1.94-1.34-1.07-3.23-4.45-4.2-7.52-8.02-25.44-39.32-40.72-68.02-33.2-19.13 5-28.72 12.18-35.92 26.83-4.28 8.72-5.07 12.05-5.07 21.26 0 9.22.79 12.52 5.12 21.35 9.14 18.63 26.31 28.2 50.48 28.09 23.91-.11 41.28-9.54 50.06-27.18 2.62-5.27 4.77-10.5 4.77-11.6 0-1.11 1.36-2.76 3.01-3.64 2.09-1.12 96.37-1.5 302.32-1.22l299.3.4 7.09 3.29c9.47 4.4 17.92 13.16 22.84 23.7 3.52 7.53 4.05 10.68 4.05 24.17 0 12.9-.6 16.81-3.55 23.26-6.64 14.51-18.06 23.54-33.98 26.94-11.09 2.36-593.71 2.48-598.1.12-1.64-.86-2.98-2.51-2.98-3.62 0-4.84-9.87-21.34-15.41-25.74-13.43-10.67-33.39-15.72-49.67-12.54-20.88 4.08-32.67 12.17-40.28 27.69-4.28 8.71-5.07 12.04-5.07 21.25s.79 12.54 5.07 21.26c6.95 14.15 15.77 21.05 33.54 26.21 11.59 3.37 18.97 3.51 31.36.58m635.36-61.41c15.96-3.4 27.42-12.51 33.92-26.95 9.51-21.14-1.35-48.54-23.28-58.72l-7.09-3.29-292.35-.4c-194.13-.27-293.33.12-295.26 1.16-1.59.85-5.37 6.73-8.4 13.05-7.78 16.22-19.03 24.47-39.65 29.06l-8.35 1.86 7.72 2.12c23.83 6.56 32.36 12.73 40.22 29.13 3.04 6.36 6.7 12.25 8.14 13.1 3.9 2.28 573.63 2.16 584.38-.12" />
    <path d="M52.29 210.05c-11.13-3.58-21.57-11.61-27.18-20.94-7.53-12.51-7.84-16.85-2.07-28.62 9.67-19.74 32.08-30.68 51.31-25.07 17.26 5.04 29.29 16.79 33.82 33.02 1.96 7.03 1.87 7.57-3.06 17.09-10.27 19.89-33.56 30.71-52.82 24.52m23.15-8.54c10.34-4.69 17.72-11.35 22.57-20.29l4.41-8.14-4.3-8.28c-6.46-12.37-22.68-23.66-34.03-23.66-11.21 0-27.24 11.06-33.91 23.37l-4.42 8.14 4.31 8.27c4.71 9.03 12.18 15.82 22.67 20.59 8.48 3.88 14.23 3.88 22.7 0M52.29 95.33c-11.13-3.58-21.57-11.61-27.18-20.94-7.53-12.52-7.84-16.86-2.07-28.62 9.67-19.74 32.08-30.69 51.31-25.07 17.17 5 29.29 16.79 33.76 32.77 1.85 6.68 1.71 7.5-2.94 16.99-9.82 20.02-33.42 31.12-52.88 24.87m23.15-8.54c10.34-4.7 17.72-11.35 22.57-20.3l4.41-8.14-4.3-8.27C91.66 37.7 75.44 26.42 64.09 26.42c-11.21 0-27.24 11.05-33.91 23.36l-4.42 8.14 4.31 8.28c4.71 9.02 12.18 15.81 22.67 20.59 8.48 3.87 14.23 3.87 22.7 0" />
    <path fill="#cf9e66" d="M47.1 220.33c-17.77-5.16-26.59-12.06-33.54-26.21-7.2-14.68-7.2-27.83 0-42.51 7.61-15.52 19.4-23.61 40.28-27.69 16.28-3.18 36.24 1.87 49.67 12.54 5.54 4.4 15.41 20.9 15.41 25.74 0 1.11 1.34 2.76 2.98 3.62 4.39 2.36 587.01 2.24 598.1-.12 15.92-3.4 27.34-12.43 33.98-26.94 2.95-6.45 3.55-10.36 3.55-23.26 0-13.49-.53-16.64-4.05-24.17-4.92-10.54-13.37-19.3-22.84-23.7l-7.09-3.29-299.3-.4c-205.95-.28-300.23.1-302.32 1.22-1.65.88-3.01 2.53-3.01 3.64 0 1.1-2.15 6.33-4.77 11.6-8.78 17.64-26.15 27.07-50.06 27.18-24.17.11-41.34-9.46-50.48-28.09-4.33-8.83-5.12-12.13-5.12-21.35 0-9.21.79-12.54 5.07-21.26 7.61-15.52 19.4-23.61 40.28-27.69 16.28-3.17 36.24 1.88 49.67 12.55 5.54 4.4 15.41 20.89 15.41 25.73 0 1.12 1.34 2.76 2.98 3.63 2.04 1.1 99.77 1.61 304.97 1.61 301.56 0 301.98 0 310.52 3.21 4.69 1.77 9.9 2.78 11.55 2.25 3.88-1.24 12.96-12.19 23.17-27.91 7.61-11.73 10.18-14.68 12.83-14.73 1.55-.04 7.34 5.83 7.34 7.43 0 2-15.2 24.96-24.17 36.5-4.54 5.84-8.26 11.51-8.26 12.62 0 1.1 2.25 6.77 5.01 12.63 4.87 10.29 5.02 11.27 5.02 30.79 0 19.38-.18 20.56-4.85 30.42-6.3 13.35-14.17 21.93-25.01 27.28l-8.75 4.31-303.47.78c-166.9.43-304.22 1.25-305.13 1.86-.91.59-4.23 6.31-7.36 12.68-7.94 16.11-17.69 23.53-36.85 28.08-12.39 2.93-19.77 2.79-31.36-.58m34.1-12.48c11.25-4.99 18.43-11.69 23.91-22.32 4.93-9.52 5.02-10.06 3.06-17.09-4.53-16.23-16.56-27.98-33.82-33.02-19.23-5.61-41.64 5.33-51.31 25.07-5.77 11.77-5.46 16.11 2.07 28.62 11.8 19.63 35.94 27.69 56.09 18.74m0-114.72c11.6-5.15 18.66-11.81 23.97-22.67 4.65-9.49 4.79-10.31 2.94-16.99-4.47-15.98-16.59-27.77-33.76-32.77-19.23-5.62-41.64 5.33-51.31 25.07-5.77 11.76-5.46 16.1 2.07 28.62 11.8 19.62 35.94 27.68 56.09 18.74" />
</svg>