<svg xmlns="http://www.w3.org/2000/svg" xmlns:xlink="http://www.w3.org/1999/xlink" width="480" height="900" version="1.0">
   <defs>
      <linearGradient id="prefix__a">
         <stop offset="0" stop-color="#c13c1b" />
         <stop offset=".839" stop-color="#c13c1b" stop-opacity=".498" />
         <stop offset="1" stop-color="#c13c1b" stop-opacity="0" />
      </linearGradient>
      <linearGradient xlink:href="#prefix__a" id="prefix__j" gradientUnits="userSpaceOnUse" gradientTransform="matrix(.1393 -.02931 -.03418 -.16156 -19.052 488.573)" x1="1719.31" y1="1012.714" x2="1765.716" y2="1012.714" />
      <linearGradient xlink:href="#prefix__a" id="prefix__i" gradientUnits="userSpaceOnUse" gradientTransform="matrix(.14084 -.04002 -.04252 -.15902 -15.359 500.925)" x1="1719.31" y1="1012.714" x2="1765.716" y2="1012.714" />
      <linearGradient xlink:href="#prefix__a" id="prefix__h" gradientUnits="userSpaceOnUse" gradientTransform="matrix(.141 -.04007 -.03953 -.14786 -14.422 496.884)" x1="1719.31" y1="1012.714" x2="1765.716" y2="1012.714" />
      <linearGradient xlink:href="#prefix__a" id="prefix__g" gradientUnits="userSpaceOnUse" gradientTransform="matrix(.13852 -.0328 -.03737 -.16084 -10.739 500.342)" x1="1719.31" y1="1012.714" x2="1765.716" y2="1012.714" />
      <linearGradient xlink:href="#prefix__a" id="prefix__f" gradientUnits="userSpaceOnUse" gradientTransform="matrix(.14084 -.04002 -.04252 -.15902 -7.697 514.123)" x1="1719.31" y1="1012.714" x2="1765.716" y2="1012.714" />
      <linearGradient xlink:href="#prefix__a" id="prefix__e" gradientUnits="userSpaceOnUse" gradientTransform="matrix(.141 -.04007 -.03953 -.14786 -9.51 505.705)" x1="1719.31" y1="1012.714" x2="1765.716" y2="1012.714" />
      <linearGradient xlink:href="#prefix__a" id="prefix__d" gradientUnits="userSpaceOnUse" gradientTransform="matrix(.13852 -.0328 -.03737 -.16084 -5.828 509.164)" x1="1719.31" y1="1012.714" x2="1765.716" y2="1012.714" />
      <linearGradient xlink:href="#prefix__a" id="prefix__c" gradientUnits="userSpaceOnUse" gradientTransform="matrix(.141 -.04007 -.03953 -.14786 -4.408 514.996)" x1="1719.31" y1="1012.714" x2="1765.716" y2="1012.714" />
      <linearGradient xlink:href="#prefix__a" id="prefix__b" gradientUnits="userSpaceOnUse" gradientTransform="matrix(.14084 -.04002 -.04252 -.15902 -2.785 522.945)" x1="1719.31" y1="1012.714" x2="1765.716" y2="1012.714" />
   </defs>
   <path d="M202.083 290.112l-5.025 4.107" fill="none" stroke="url(#prefix__b)" stroke-width=".699" stroke-linecap="round" />
   <path d="M203.797 293.47l-5.079 3.935" fill="none" stroke="url(#prefix__c)" stroke-width=".674" stroke-linecap="round" />
   <path d="M200.212 287.192l-5.012 3.844" fill="none" stroke="url(#prefix__d)" stroke-width=".69" stroke-linecap="round" />
   <path d="M198.694 284.18l-5.079 3.933" fill="none" stroke="url(#prefix__e)" stroke-width=".674" stroke-linecap="round" />
   <path d="M197.172 281.29l-5.025 4.107" fill="none" stroke="url(#prefix__f)" stroke-width=".699" stroke-linecap="round" />
   <path d="M195.301 278.37l-5.012 3.844" fill="none" stroke="url(#prefix__g)" stroke-width=".69" stroke-linecap="round" />
   <path d="M193.782 275.358l-5.078 3.934" fill="none" stroke="url(#prefix__h)" stroke-width=".674" stroke-linecap="round" />
   <path d="M189.51 268.092l-5.026 4.107" fill="none" stroke="url(#prefix__i)" stroke-width=".699" stroke-linecap="round" />
   <path d="M191.597 272.032l-5.093 3.713" fill="none" stroke="url(#prefix__j)" stroke-width=".69" stroke-linecap="round" />
   <path style="marker:none" fill="#fac53a" fill-rule="evenodd" overflow="visible" d="M187.902 280.752l7.387-4.592 8.924 15.275-7.387 4.593zM171.672 252.794l6.942-4.443 8.256 13.813-6.943 4.443zM155.425 224.92l6.942-4.443 8.255 13.813-6.942 4.442z" />
   <rect style="marker:none" width="8.312" height="15.782" x="23.622" y="241.008" transform="matrix(.85344 -.52119 .49489 .86896 0 0)" ry="0" fill="#fac53a" fill-rule="evenodd" overflow="visible" />
   <path style="marker:none" d="M124.69 171.65l6.558-4.083 8.346 13.466-7.093 4.332-7.81-13.714z" fill="#fac53a" fill-rule="evenodd" overflow="visible" />
   <path d="M237.163 347.89l-7.382 3.824" fill="none" stroke="#000" stroke-width=".69" stroke-linecap="round" />
   <path d="M269.204 251.407c-7.847-.216-10.7 3.187-12.621 5.855-1.146 1.59.029 48.723.159 74.107.316 16.614.316 507.837.316 507.837" fill="none" stroke="#000" stroke-width="8.283" stroke-linecap="round" stroke-linejoin="round" />
   <path d="M268.695 251.453c-7.502-.206-10.228 3.26-12.066 5.81-1.095 1.52.028 46.577.153 70.843.302 15.883.302 510.901.302 510.901" fill="none" stroke="#c13c1b" stroke-width="7.038" stroke-linecap="round" stroke-linejoin="round" />
   <path d="M229.266 354.111c.189-.694.448-1.903.179-2.745L120.859 165.224s-8.193-15.111-11.059-19.13c-.148-.209-5.883-11.215-6.926-13.034 3.547-2.68 5.335-3.322 5.796-3.767l18.15 30.724 110.587 187.258c.512.52.727 1.832 1.51 1.727" fill="#fac53a" fill-rule="evenodd" />
   <path style="marker:none" d="M110.502 146.189l6.052-3.621 6.613 11.063-6.605 3.854-6.06-11.296z" fill="#fac53a" fill-rule="evenodd" overflow="visible" />
   <path d="M108.1 128.514l38.916 65.47 90.51 154.093c.485.552 1.12.762 1.788.893l-10.017 5.126c.487-.762.432-1.869.093-2.405l-88.336-152.5s-36.391-62.327-38.621-66.539" fill="none" stroke="#000" stroke-width=".61442" stroke-linecap="round" stroke-linejoin="round" />
   <path d="M343.99 476.594c1.985 9.054 3.425 17.692 4.384 26.015 3.602 14.405 38.477 8.084 59.367 4.613 5.34-6.651 20.591-2.38 21.888.887.687 2.178-8.752 9.126-19.398 12.086-17.172 6.54-56.618 5.055-60.566 18.009-1.482 33.608-10.458 64.041-21.337 100.072 3.307 35.03 1.143 118.836-3.529 152.492 2.412 9.154 24.533 14.978 31.579 19.624 11.804 6.65 26.577 10.504 38.637 16.656 4.255 1.661 9.986.911 13.71.894 3.488-1.188 3.539 6.7-2.13 9.547-35.054.25-86.188-.07-121.894.11-6.759-6.24-2.52-17.285-.776-24.711 1.06-4.508 2.132-8.76 1.255-13.436-6.932-60.376-9.17-98.072-2.574-151.23-11.504-42.243-15.333-83.536-17.384-121.484-6.14-18.463-.062-32.251 5.19-56.416l-.978-20.702-1.526-8.231-1.183-2.686c-5.345-15.3-13.018-34.066-24.882-48.063-9.41-11.841-15.793-20.74-26.263-26.372-14.989-8.062-34.57-10.825-52.001-14.273-14.753-2.918-39.91-11.107-46.943-14.683-7.172-1.393-9.885-3.69-10.368-6.965-3.562-24.194-4.529-56.143-2.931-80.777l24.648-.068c4.34 27.057 4.475 38.814 6.264 60.054 29.897 4.086 51.473 12.048 69.567 15.086 4.46-3.448 15.145-2.61 16.763-2.134 35.55 10.463 47.995 1.51 60.645-.74 12.65-2.25 39.934 3.422 39.934 3.422l41.68 8.078c23.077.324 27.523 31.37 5.277 42.54-14.806 31.815-21.157 58.442-24.397 76.966-.356 5.844.24 19.913.238 25.771" fill="#fff" fill-rule="evenodd" stroke="#000" stroke-width=".75" />
   <path d="M330.966 348.053L292.58 501.091l-10.101-3.535 36.87-146.978 11.617-2.525z" fill="#c13c1b" fill-rule="evenodd" stroke="#000" />
   <path d="M285.004 355.63l52.528 138.895-9.091 5.556-57.074-148.492 13.637 4.04z" fill="#c13c1b" fill-rule="evenodd" stroke="#000" />
   <path d="M349.792 328.728l-28.466-5.692-40.29-3.213-31.023 6.413c5.83 29.425 25.785 39.946 48.903 40.46 21.896.483 32.122-5.14 39.271-12.733 6.796-7.217 10.406-18.54 11.605-25.235z" fill="#fff" fill-rule="evenodd" stroke="#000" stroke-linecap="round" stroke-linejoin="round" stroke-width=".23523" />
   <path style="marker:none" d="M337.901 326.348c-4.291 21.22-16.67 29.081-39.482 28.183-22.869-.9-34.251-15.578-35.646-29.827a3.44 3.44 0 00-.1-.977" fill="none" stroke="#04a" stroke-width="4.1917986" stroke-linejoin="round" overflow="visible" />
   <path style="marker:none" d="M327.046 324.316c-4.174 16.146-13.294 19.647-28.184 19.07-13.913-.538-24.672-9.657-24.57-21.095a2.727 2.727 0 00-.087-.981" fill="none" stroke="#308d57" stroke-width="2.57224005" overflow="visible" />
   <path style="marker:none" d="M334.16 325.841c-3.136 14.862-11.024 25.97-35.466 24.899-21.276-.932-31.483-15.324-31.892-27.351a1.846 1.846 0 00-.04-.562" fill="none" stroke="#c13c1b" stroke-width="2.57224005" overflow="visible" />
   <path style="marker:none" d="M323.507 323.523c-2.113 7.048-4.472 17.586-24.637 16.06-13.211-1-20.193-8.879-20.692-16.229-.04-.835-.035-2.69-.135-2.933" fill="none" stroke="#04a" stroke-width="3.77261874" overflow="visible" />
   <path style="marker:none" d="M330.692 324.944c-4.222 20.073-19.119 22.92-32.223 22.141-17.802-1.062-27.38-12.085-27.873-23.754-.016-.213-.012-1.012-.114-1.337" fill="none" stroke="#04a" stroke-width="3.77261874" overflow="visible" />
   <path style="marker:none" d="M344.994 327.9c-4.662 22.526-17.225 34.803-45.646 33.792a98.143 98.143 0 01-.335-.012h-.01c-37.725-1.476-42.497-29.718-43.866-36.293" fill="none" stroke="#fac53a" stroke-width="9.4092" overflow="visible" />
   <path d="M349.792 328.728l-28.466-5.692-40.29-3.213-31.023 6.413c5.83 29.425 25.785 39.946 48.903 40.46 21.896.483 32.122-5.14 39.271-12.733 6.796-7.217 10.406-18.54 11.605-25.235z" fill="none" stroke="#000" stroke-width=".47046" stroke-linecap="round" stroke-linejoin="round" />
   <g fill="none" stroke="#c13c1b">
      <path d="M287.907 362.6c.546-1.667.213-4.603-.223-6.526-1.364 1.387-3.258 3.703-3.735 5.28-.92 3.032 3.028 4.08 3.958 1.246z" stroke-width=".23523" />
      <path d="M287.396 362.398c.404-1.235.16-3.408-.16-4.831-1.007 1.028-2.406 2.744-2.76 3.912-.681 2.245 2.231 3.019 2.92.92z" stroke-width=".23523" />
      <path d="M287.402 362.336a2.316 2.316 0 00-1.27-.998c-.704-.217-1.181-.084-1.58.093M287.538 360.103c-.207-.261-.666-.517-.89-.583-.245-.071-.764-.052-1.003.014" style="marker:none" stroke-linecap="round" stroke-linejoin="round" overflow="visible" stroke-width=".23523" />
   </g>
   <g fill="none" stroke="#c13c1b">
      <path d="M292.852 363.351c.382-1.712-.233-4.602-.854-6.473-1.223 1.512-2.883 4-3.206 5.616-.621 3.107 3.41 3.769 4.06.857z" stroke-width=".23523" />
      <path d="M292.324 363.2c.282-1.268-.17-3.408-.627-4.793-.903 1.12-2.13 2.964-2.369 4.16-.46 2.302 2.514 2.79 2.996.633z" stroke-width=".23523" />
      <path d="M292.324 363.138a2.316 2.316 0 00-1.36-.87c-.722-.148-1.184.03-1.564.245M292.244 360.902c-.233-.24-.713-.45-.944-.494-.25-.048-.764.022-.996.11" style="marker:none" stroke-linecap="round" stroke-linejoin="round" overflow="visible" stroke-width=".23523" />
   </g>
   <g fill="none" stroke="#c13c1b">
      <path d="M282.863 361.243c.71-1.605.67-4.56.427-6.516-1.495 1.244-3.61 3.36-4.242 4.882-1.215 2.926 2.609 4.362 3.815 1.634z" stroke-width=".23523" />
      <path d="M282.374 360.99c.526-1.188.5-3.374.322-4.823-1.105.923-2.667 2.492-3.136 3.619-.9 2.167 1.92 3.225 2.814 1.205z" stroke-width=".23523" />
      <path d="M282.387 360.93a2.316 2.316 0 00-1.164-1.12c-.68-.285-1.167-.2-1.581-.064M282.745 358.721c-.181-.28-.612-.58-.83-.668-.235-.096-.753-.128-.998-.086" style="marker:none" stroke-linecap="round" stroke-linejoin="round" overflow="visible" stroke-width=".23523" />
   </g>
   <g fill="none" stroke="#c13c1b">
      <path d="M302.773 363.803c.031-1.755-1.15-4.462-2.133-6.172-.896 1.727-2.024 4.497-2.017 6.145.014 3.168 4.095 3.01 4.15.027z" stroke-width=".23523" />
      <path d="M302.225 363.76c.023-1.3-.849-3.305-1.574-4.57-.66 1.278-1.493 3.33-1.487 4.55.01 2.347 3.02 2.23 3.06.02z" stroke-width=".23523" />
      <path style="marker:none" d="M302.212 363.7a2.316 2.316 0 00-1.506-.581c-.737 0-1.154.267-1.483.554M301.686 361.525c-.275-.19-.789-.299-1.023-.295-.255.003-.745.174-.954.308" stroke-linecap="round" stroke-linejoin="round" overflow="visible" stroke-width=".23523" />
   </g>
   <g fill="none" stroke="#c13c1b">
      <path d="M307.552 363.72c-.038-1.755-1.325-4.414-2.374-6.083-.827 1.76-1.846 4.573-1.773 6.22.138 3.164 4.21 2.845 4.147-.137z" stroke-width=".23523" />
      <path d="M307.003 363.699c-.028-1.3-.978-3.27-1.752-4.506-.61 1.304-1.361 3.387-1.308 4.606.103 2.345 3.106 2.109 3.06-.1z" stroke-width=".23523" />
      <path d="M306.988 363.638a2.316 2.316 0 00-1.528-.52c-.737.029-1.143.312-1.46.611M306.377 361.486c-.283-.178-.8-.267-1.035-.254-.253.013-.737.203-.94.345" style="marker:none" stroke-linecap="round" stroke-linejoin="round" overflow="visible" stroke-width=".23523" />
   </g>
   <g fill="none" stroke="#c13c1b">
      <path d="M297.768 363.776c.228-1.74-.643-4.562-1.429-6.371-1.083 1.616-2.514 4.242-2.691 5.88-.341 3.15 3.732 3.45 4.12.491z" stroke-width=".23523" />
      <path d="M297.228 363.673c.169-1.289-.473-3.38-1.052-4.719-.8 1.197-1.856 3.143-1.987 4.357-.253 2.332 2.752 2.552 3.04.362z" stroke-width=".23523" />
      <path d="M297.223 363.61a2.316 2.316 0 00-1.432-.745c-.732-.082-1.177.137-1.535.385M296.943 361.391c-.252-.218-.75-.385-.984-.408-.253-.025-.759.09-.982.2" style="marker:none" stroke-linecap="round" stroke-linejoin="round" overflow="visible" stroke-width=".23523" />
   </g>
   <g fill="none" stroke="#c13c1b">
      <path d="M340.19 346.431c-1.449-.99-4.36-1.493-6.328-1.612.95 1.697 2.642 4.163 4.023 5.064 2.653 1.73 4.765-1.766 2.304-3.452z" stroke-width=".23523" />
      <path d="M339.852 346.866c-1.072-.734-3.227-1.109-4.683-1.2.705 1.255 1.96 3.079 2.983 3.746 1.965 1.282 3.523-1.298 1.7-2.546z" stroke-width=".23523" />
      <path style="marker:none" d="M339.794 346.843a2.316 2.316 0 00-1.313.938c-.405.616-.411 1.112-.353 1.543M337.689 346.086c-.31.126-.683.495-.81.693-.136.214-.263.717-.267.966" stroke-linecap="round" stroke-linejoin="round" overflow="visible" stroke-width=".23523" />
   </g>
   <g fill="none" stroke="#c13c1b">
      <path d="M342.465 342.324c-1.538-.844-4.485-1.058-6.455-.984 1.111 1.596 3.038 3.884 4.5 4.645 2.81 1.462 4.57-2.224 1.955-3.66z" stroke-width=".23523" />
      <path d="M342.172 342.79c-1.14-.626-3.32-.787-4.778-.735.825 1.18 2.253 2.872 3.336 3.435 2.082 1.083 3.379-1.637 1.442-2.7z" stroke-width=".23523" />
      <path d="M342.112 342.772c-.282.103-.871.41-1.214 1.063-.343.653-.3 1.146-.2 1.57M339.943 342.226c-.296.156-.631.56-.738.768-.115.227-.191.74-.17.988" style="marker:none" stroke-linecap="round" stroke-linejoin="round" overflow="visible" stroke-width=".23523" />
   </g>
   <g fill="none" stroke="#c13c1b">
      <path d="M337.418 350.385c-1.285-1.194-4.09-2.122-6.02-2.532.689 1.82 1.998 4.51 3.23 5.604 2.368 2.105 4.974-1.04 2.79-3.072z" stroke-width=".23523" />
      <path d="M337.02 350.765c-.952-.885-3.027-1.575-4.453-1.88.51 1.346 1.483 3.335 2.395 4.146 1.754 1.559 3.676-.762 2.058-2.266z" stroke-width=".23523" />
      <path style="marker:none" d="M336.967 350.733c-.3.031-.946.185-1.438.734-.492.55-.571 1.038-.577 1.474M334.996 349.673c-.324.08-.748.389-.902.565-.168.192-.367.671-.408.916" stroke-linecap="round" stroke-linejoin="round" overflow="visible" stroke-width=".23523" />
   </g>
   <g fill="none" stroke="#c13c1b">
      <path d="M345.81 333.41c-1.686-.49-4.608-.06-6.516.44 1.432 1.317 3.81 3.132 5.402 3.557 3.06.817 3.977-3.163 1.113-3.998z" stroke-width=".23523" />
      <path d="M345.624 333.927c-1.247-.363-3.411-.047-4.823.32 1.06.973 2.823 2.314 4.002 2.63 2.267.605 2.943-2.332.821-2.95z" stroke-width=".23523" />
      <path d="M345.562 333.923c-.253.162-.761.59-.955 1.301-.193.712-.044 1.185.146 1.577M343.326 333.86c-.254.217-.495.684-.553.911-.063.246-.027.764.047 1.001" style="marker:none" stroke-linecap="round" stroke-linejoin="round" overflow="visible" stroke-width=".23523" />
   </g>
   <g fill="none" stroke="#c13c1b">
      <path d="M346.975 328.789c-1.705-.417-4.606.14-6.49.722 1.487 1.253 3.942 2.964 5.55 3.32 3.094.684 3.837-3.333.94-4.042z" stroke-width=".23523" />
      <path d="M346.813 329.314c-1.263-.309-3.41.1-4.805.529 1.102.926 2.92 2.19 4.112 2.453 2.29.506 2.839-2.457.693-2.982z" stroke-width=".23523" />
      <path style="marker:none" d="M346.75 329.312a2.316 2.316 0 00-.897 1.342c-.163.72.007 1.185.214 1.568M344.513 329.347c-.244.227-.464.704-.512.933-.053.25.006.765.09.999" stroke-linecap="round" stroke-linejoin="round" overflow="visible" stroke-width=".23523" />
   </g>
   <g fill="none" stroke="#c13c1b">
      <path d="M344.36 338.009c-1.63-.649-4.58-.498-6.527-.182 1.3 1.447 3.494 3.48 5.038 4.055 2.97 1.106 4.26-2.77 1.49-3.873z" stroke-width=".23523" />
      <path d="M344.127 338.507c-1.207-.48-3.391-.372-4.832-.141.964 1.07 2.59 2.572 3.734 2.998 2.199.819 3.151-2.04 1.098-2.857z" stroke-width=".23523" />
      <path d="M344.066 338.497a2.316 2.316 0 00-1.075 1.204c-.26.69-.157 1.175-.005 1.583M341.846 338.222c-.274.19-.558.633-.638.853-.086.24-.099.758-.048 1.001" style="marker:none" stroke-linecap="round" stroke-linejoin="round" overflow="visible" stroke-width=".23523" />
   </g>
   <g fill="none" stroke="#c13c1b">
      <path d="M330.275 356.868c-.892-1.51-3.316-3.199-5.048-4.14.14 1.94.63 4.89 1.499 6.29 1.67 2.692 5.064.42 3.55-2.15z" stroke-width=".23523" />
      <path d="M329.786 357.12c-.66-1.12-2.453-2.372-3.734-3.071.107 1.435.472 3.62 1.116 4.656 1.237 1.994 3.74.317 2.618-1.586z" stroke-width=".23523" />
      <path style="marker:none" d="M329.743 357.074a2.316 2.316 0 00-1.587.294c-.628.386-.843.832-.973 1.248M328.157 355.496c-.334-.016-.828.16-1.027.285-.214.136-.543.539-.65.762" stroke-linecap="round" stroke-linejoin="round" overflow="visible" stroke-width=".23523" />
   </g>
   <g fill="none" stroke="#c13c1b">
      <path d="M334.1 353.861c-1.125-1.346-3.792-2.618-5.654-3.266.455 1.892 1.417 4.724 2.502 5.965 2.085 2.384 5.065-.41 3.153-2.699z" stroke-width=".23523" />
      <path d="M333.659 354.188c-.834-.997-2.806-1.941-4.184-2.423.339 1.4 1.054 3.495 1.858 4.414 1.544 1.766 3.742-.295 2.326-1.99z" stroke-width=".23523" />
      <path d="M333.61 354.15c-.301-.007-.962.065-1.519.548-.557.483-.697.959-.758 1.39M331.787 352.852c-.332.038-.791.291-.966.447-.19.17-.448.62-.519.858" style="marker:none" stroke-linecap="round" stroke-linejoin="round" overflow="visible" stroke-width=".23523" />
   </g>
   <g fill="none" stroke="#c13c1b">
      <path d="M326.063 359.227c-.723-1.599-2.95-3.54-4.57-4.664-.07 1.944.096 4.931.809 6.417 1.369 2.857 4.989.966 3.761-1.753z" stroke-width=".23523" />
      <path d="M325.55 359.423c-.536-1.184-2.183-2.623-3.38-3.457-.05 1.439.077 3.65.605 4.75 1.014 2.116 3.684.72 2.774-1.293z" stroke-width=".23523" />
      <path style="marker:none" d="M325.512 359.373a2.316 2.316 0 00-1.61.12c-.666.317-.928.737-1.102 1.136M324.105 357.634c-.33-.053-.84.068-1.05.171-.229.112-.599.477-.73.687" stroke-linecap="round" stroke-linejoin="round" overflow="visible" stroke-width=".23523" />
   </g>
   <g fill="none" stroke="#c13c1b">
      <path d="M316.968 362.4c-.334-1.723-2.053-4.126-3.37-5.593-.517 1.875-1.044 4.82-.694 6.43.672 3.096 4.631 2.091 4.064-.838z" stroke-width=".23523" />
      <path d="M316.423 362.472c-.247-1.276-1.517-3.056-2.49-4.144-.38 1.389-.767 3.569-.508 4.761.498 2.293 3.419 1.552 2.999-.617z" stroke-width=".23523" />
      <path d="M316.399 362.415a2.316 2.316 0 00-1.594-.255c-.721.154-1.074.502-1.335.85M315.432 360.397c-.31-.127-.834-.127-1.063-.075-.248.056-.692.325-.869.5" style="marker:none" stroke-linecap="round" stroke-linejoin="round" overflow="visible" stroke-width=".23523" />
   </g>
   <g fill="none" stroke="#c13c1b">
      <path d="M321.563 361.089c-.501-1.682-2.447-3.904-3.901-5.236-.33 1.917-.568 4.899-.062 6.467.972 3.015 4.814 1.628 3.963-1.231z" stroke-width=".23523" />
      <path d="M321.028 361.214c-.371-1.245-1.81-2.892-2.884-3.88-.242 1.42-.414 3.627-.04 4.788.72 2.234 3.554 1.21 2.924-.908z" stroke-width=".23523" />
      <path style="marker:none" d="M320.998 361.16a2.316 2.316 0 00-1.612-.097c-.702.223-1.019.604-1.245.976M319.838 359.247c-.32-.097-.842-.046-1.065.028-.241.08-.657.392-.816.583" stroke-linecap="round" stroke-linejoin="round" overflow="visible" stroke-width=".23523" />
   </g>
   <g fill="none" stroke="#c13c1b">
      <path d="M312.355 363.253c-.15-1.748-1.604-4.32-2.757-5.919-.713 1.81-1.55 4.682-1.374 6.32.34 3.15 4.383 2.572 4.13-.4z" stroke-width=".23523" />
      <path d="M311.805 363.268c-.11-1.295-1.184-3.2-2.036-4.385-.525 1.34-1.142 3.467-1.01 4.68.25 2.333 3.233 1.906 3.046-.295z" stroke-width=".23523" />
      <path d="M311.786 363.208a2.316 2.316 0 00-1.557-.422c-.734.076-1.121.385-1.418.703M311.04 361.1c-.294-.16-.816-.216-1.05-.189-.252.03-.722.25-.916.405" style="marker:none" stroke-linecap="round" stroke-linejoin="round" overflow="visible" stroke-width=".23523" />
   </g>
   <g fill="none" stroke="#c13c1b">
      <path d="M273.628 357.282c1.032-1.419 1.617-4.314 1.793-6.278-1.724.9-4.238 2.522-5.177 3.876-1.806 2.603 1.628 4.814 3.384 2.402z" stroke-width=".23523" />
      <path d="M273.203 356.933c.765-1.05 1.201-3.194 1.334-4.647-1.275.669-3.134 1.872-3.83 2.875-1.338 1.928 1.196 3.558 2.496 1.772z" stroke-width=".23523" />
      <path style="marker:none" d="M273.228 356.876a2.316 2.316 0 00-.9-1.34c-.604-.422-1.1-.443-1.533-.396M274.045 354.793c-.118-.313-.475-.697-.67-.829-.21-.143-.71-.284-.957-.294" stroke-linecap="round" stroke-linejoin="round" overflow="visible" stroke-width=".23523" />
   </g>
   <g fill="none" stroke="#c13c1b">
      <path d="M278.03 359.55c.905-1.504 1.238-4.44 1.243-6.411-1.64 1.046-4.004 2.88-4.822 4.31-1.574 2.75 2.038 4.655 3.579 2.1z" stroke-width=".23523" />
      <path d="M277.577 359.238c.67-1.113.92-3.286.926-4.745-1.212.777-2.96 2.136-3.566 3.195-1.166 2.037 1.499 3.442 2.64 1.55z" stroke-width=".23523" />
      <path d="M277.596 359.179a2.316 2.316 0 00-1.013-1.256c-.638-.37-1.133-.347-1.56-.263M278.23 357.033c-.144-.301-.534-.653-.739-.768-.221-.124-.732-.221-.98-.21" style="marker:none" stroke-linecap="round" stroke-linejoin="round" overflow="visible" stroke-width=".23523" />
   </g>
   <g fill="none" stroke="#c13c1b">
      <path d="M269.424 354.52c1.234-1.248 2.248-4.023 2.717-5.938-1.84.631-4.569 1.857-5.701 3.054-2.177 2.301.886 5.004 2.984 2.884z" stroke-width=".23523" />
      <path d="M269.057 354.11c.914-.924 1.667-2.976 2.017-4.393-1.361.47-3.38 1.38-4.218 2.266-1.613 1.705.647 3.698 2.2 2.127z" stroke-width=".23523" />
      <path d="M269.09 354.058c-.022-.3-.156-.95-.69-1.46-.533-.509-1.019-.603-1.454-.623M270.21 352.121c-.069-.327-.364-.76-.536-.92-.187-.173-.66-.387-.903-.435" style="marker:none" stroke-linecap="round" stroke-linejoin="round" overflow="visible" stroke-width=".23523" />
   </g>
   <g fill="none" stroke="#c13c1b">
      <path d="M262.19 347.533c1.527-.864 3.26-3.257 4.234-4.971-1.943.105-4.902.54-6.318 1.382-2.723 1.62-.513 5.056 2.084 3.589z" stroke-width=".23523" />
      <path d="M261.948 347.039c1.131-.64 2.416-2.409 3.14-3.676-1.438.08-3.628.404-4.677 1.029-2.016 1.2-.386 3.734 1.537 2.647z" stroke-width=".23523" />
      <path style="marker:none" d="M261.994 346.997c.062-.294.11-.957-.264-1.592-.375-.635-.817-.859-1.23-.996M263.6 345.44c.023-.333-.143-.83-.265-1.031-.132-.218-.528-.553-.75-.666" stroke-linecap="round" stroke-linejoin="round" overflow="visible" stroke-width=".23523" />
   </g>
   <g fill="none" stroke="#c13c1b">
      <path d="M265.577 351.285c1.385-1.077 2.75-3.698 3.462-5.536-1.906.388-4.77 1.25-6.048 2.29-2.456 2.002.231 5.077 2.586 3.246z" stroke-width=".23523" />
      <path d="M265.266 350.832c1.026-.798 2.038-2.736 2.568-4.096-1.41.29-3.53.931-4.476 1.702-1.819 1.482.164 3.75 1.908 2.394z" stroke-width=".23523" />
      <path d="M265.306 350.784c.017-.3-.032-.963-.495-1.536-.463-.574-.933-.73-1.362-.806M266.667 349.009c-.026-.333-.263-.801-.413-.982-.163-.196-.604-.47-.84-.548" style="marker:none" stroke-linecap="round" stroke-linejoin="round" overflow="visible" stroke-width=".23523" />
   </g>
   <g fill="none" stroke="#c13c1b">
      <path d="M259.507 343.47c1.563-.796 3.399-3.111 4.446-4.782-1.945.02-4.92.326-6.372 1.106-2.79 1.5-.733 5.029 1.926 3.676z" stroke-width=".23523" />
      <path d="M259.287 342.966c1.158-.59 2.519-2.301 3.296-3.536-1.44.018-3.642.246-4.717.824-2.066 1.111-.548 3.714 1.421 2.712z" stroke-width=".23523" />
      <path style="marker:none" d="M259.335 342.927a2.316 2.316 0 00-.195-1.603c-.346-.65-.778-.893-1.185-1.049M261.008 341.44c.037-.331-.108-.836-.22-1.041-.123-.223-.505-.576-.72-.698" stroke-linecap="round" stroke-linejoin="round" overflow="visible" stroke-width=".23523" />
   </g>
   <g fill="none" stroke="#c13c1b">
      <path d="M255.526 334.828c1.68-.51 3.892-2.468 5.216-3.93-1.919-.32-4.902-.541-6.467-.027-3.01.988-1.603 4.822 1.251 3.957z" stroke-width=".23523" />
      <path d="M255.398 334.293c1.244-.378 2.883-1.824 3.865-2.904-1.42-.235-3.629-.395-4.788-.015-2.23.732-1.191 3.56.923 2.919z" stroke-width=".23523" />
      <path d="M255.452 334.262c.124-.274.316-.91.09-1.611-.228-.702-.61-1.016-.984-1.24M257.36 333.093c.094-.32.04-.843-.035-1.065-.081-.24-.395-.655-.587-.813" style="marker:none" stroke-linecap="round" stroke-linejoin="round" overflow="visible" stroke-width=".23523" />
   </g>
   <g fill="none" stroke="#c13c1b">
      <path d="M257.187 339.194c1.633-.642 3.682-2.77 4.885-4.333-1.938-.166-4.93-.148-6.449.49-2.921 1.225-1.212 4.935 1.564 3.843z" stroke-width=".23523" />
      <path d="M257.017 338.672c1.209-.476 2.728-2.05 3.62-3.204-1.434-.12-3.649-.104-4.774.368-2.164.908-.902 3.644 1.154 2.836z" stroke-width=".23523" />
      <path style="marker:none" d="M257.068 338.637a2.316 2.316 0 00-.04-1.614c-.282-.68-.69-.964-1.08-1.157M258.876 337.318c.069-.326-.027-.842-.12-1.058-.1-.233-.446-.62-.65-.763" stroke-linecap="round" stroke-linejoin="round" overflow="visible" stroke-width=".23523" />
   </g>
   <g fill="none" stroke="#c13c1b">
      <path d="M254.025 330.282c1.724-.326 4.135-2.035 5.608-3.345-1.873-.525-4.815-1.066-6.427-.723-3.099.659-2.112 4.622.82 4.068z" stroke-width=".23523" />
      <path d="M253.955 329.737c1.277-.242 3.063-1.504 4.155-2.471-1.386-.387-3.565-.784-4.759-.53-2.295.488-1.566 3.411.604 3.001z" stroke-width=".23523" />
      <path d="M254.013 329.712c.152-.259.411-.87.261-1.592-.15-.722-.497-1.076-.844-1.34M256.034 328.754c.13-.308.132-.832.08-1.061-.054-.249-.322-.694-.495-.872" style="marker:none" stroke-linecap="round" stroke-linejoin="round" overflow="visible" stroke-width=".23523" />
   </g>
   <path d="M287.069 302.827c-3.365 12.696-10.389 20.192-1.985 28.281 2.78 2.675 6.444 5.376 13.687 5.841 21.14 1.36 20.928-9.008 25.87-27.791 3.44 1.293 19.645-1.968 19.128-5.79-.242-.72-.445-2.159-.639-3.77.115-1.623.747-2.17 1.815-2.272.598.185 1.555-2.85-.168-3.276 1.716.135 1.754-1.946 1.474-2.788-.29-.883-.405-1.96-.144-2.627 3.507.024 5.802-1.962 4.674-5.946-1.945-3.5-6.205-10.265-8.264-14.643.175-1.633-.664-4.674-1.8-7.151-1.364-1.201-35.492-12.767-34.925 4.089l-3.208.356-4.654.354c-10.014 6.665-11.075 7.299-10.861 37.133z" fill-rule="evenodd" stroke="gray" stroke-width=".284" />
   <path d="M448.264 886.774l-26.427-48.95H248.275v48.95h199.989z" fill="#fac53a" fill-rule="evenodd" stroke="#c13c1b" stroke-width="1.176" stroke-linecap="round" stroke-linejoin="round" />
   <path d="M416.85 845.465l-160.258-.037v33.742h177.07l-16.812-33.705z" fill="#04a" fill-rule="evenodd" stroke="#c13c1b" stroke-width="1.176" stroke-linecap="round" stroke-linejoin="round" />
   <path d="M309.465 274.055c-.428 25.274 9.603 35.72 32.633 32.134" fill="none" stroke="gray" stroke-width="1.135" />
   <path d="M314.721 268.233c1.975-.385 3.879-.93 5.61-1.873 3.261-1.771 5.748-4.248 10.221-4.913 3.585-.47 6.727.014 8.755 1.024 2.056 1.024 1.031 2.673-.588 1.95-1.619-.723-4.577-1.436-7.45-1.002-2.875.433-7.422 3.555-10.221 4.912-2.8 1.358-4.294 1.589-6.288 1.886-.283-.744-.263-1.395-.039-1.984z" fill="#fac53a" fill-rule="evenodd" />
   <g stroke="gray">
      <path d="M345.545 287.236c1.627-1.13 2.52-1.186 2.646-.294.182 1.285-1.434.573-2.562.504" fill="gray" fill-rule="evenodd" stroke-width=".23523" />
      <path d="M343.742 283.411c-3.608 2.617-1.844 4.45-.206 4.466 1.62.015 4.102-2.607 4.6-1.034.504 1.588-2.674.861-2.602.424" fill="none" stroke-width=".2940375" />
   </g>
   <path d="M337.4 293.719c.243-.056 7.467.332 7.467.332" fill="none" stroke="gray" stroke-width=".294" stroke-linecap="round" stroke-linejoin="round" />
   <path d="M346.315 291.37c-4.48-1.224-7.34 1.413-9.654 1.84M345.186 297.102c-3.604-.278-6.986-2.546-8.465-2.733" fill="none" stroke="gray" stroke-width=".235" stroke-linecap="round" stroke-linejoin="round" />
   <path d="M332.556 309.08c3.262-.423 10.885-2.511 11.267-4.968 3.609 18.495 1.341 42.47 22.303 40.226.439-.036.845-.041 1.179.152 2.958 2.734 1.472 8.735-9.41 6.553-18.925-3.795-21.348-30.85-25.34-41.963z" fill-rule="evenodd" stroke="#000" stroke-width=".235" />
   <g fill="none" stroke="#c13c1b" stroke-width="3" stroke-linecap="round" stroke-linejoin="round">
      <path d="M392.42 838.18v6.892M389.447 838.18v6.892M386.321 838.18v6.892M382.982 838.18v6.892" stroke-width=".7056899999999999" />
   </g>
   <g fill="none" stroke="#c13c1b" stroke-width="3" stroke-linecap="round" stroke-linejoin="round">
      <path d="M371.628 838.18v6.892M368.656 838.18v6.892M365.53 838.18v6.892M362.19 838.18v6.892" stroke-width=".7056899999999999" />
   </g>
   <g fill="none" stroke="#c13c1b" stroke-width="3" stroke-linecap="round" stroke-linejoin="round">
      <path d="M350.242 838.18v6.892M347.27 838.18v6.892M344.143 838.18v6.892M340.804 838.18v6.892" stroke-width=".7056899999999999" />
   </g>
   <g fill="none" stroke="#c13c1b" stroke-width="3" stroke-linecap="round" stroke-linejoin="round">
      <path d="M330.045 838.18v6.892M327.072 838.18v6.892M323.946 838.18v6.892M320.606 838.18v6.892" stroke-width=".7056899999999999" />
   </g>
   <g fill="none" stroke="#c13c1b" stroke-width="3" stroke-linecap="round" stroke-linejoin="round">
      <path d="M310.085 838.18v6.892M307.112 838.18v6.892M303.985 838.18v6.892M300.646 838.18v6.892" stroke-width=".7056899999999999" />
   </g>
   <g fill="none" stroke="#c13c1b" stroke-width="3" stroke-linecap="round" stroke-linejoin="round">
      <path d="M290.555 838.18v6.892M287.582 838.18v6.892M284.456 838.18v6.892M281.116 838.18v6.892" stroke-width=".7056899999999999" />
   </g>
   <g fill="none" stroke="#c13c1b" stroke-width="3" stroke-linecap="round" stroke-linejoin="round">
      <path d="M431.152 879.527v6.89M428.18 879.527v6.89M425.053 879.527v6.89M421.714 879.527v6.89" stroke-width=".7056899999999999" />
   </g>
   <g fill="none" stroke="#c13c1b" stroke-width="3" stroke-linecap="round" stroke-linejoin="round">
      <path d="M428.971 852.464l-6.067 3.268M427.562 849.847l-6.067 3.267M426.08 847.094l-6.067 3.268M424.497 844.154l-6.068 3.267" stroke-width=".7056899999999999" />
   </g>
   <g fill="none" stroke="#c13c1b" stroke-width="2.592" stroke-linecap="round" stroke-linejoin="round">
      <path d="M-161.852 1800.38v29.295M-149.214 1800.38v29.295M-135.924 1800.38v29.295M-121.728 1800.38v29.295" transform="matrix(-.1316 -.2352 -.2444 .12666 859.255 607.141)" />
   </g>
   <g fill="none" stroke="#c13c1b" stroke-width="3" stroke-linecap="round" stroke-linejoin="round">
      <path d="M410.48 879.527v6.89M407.507 879.527v6.89M404.38 879.527v6.89M401.04 879.527v6.89" stroke-width=".7056899999999999" />
   </g>
   <g fill="none" stroke="#c13c1b" stroke-width="3" stroke-linecap="round" stroke-linejoin="round">
      <path d="M414.044 838.18v6.892M411.07 838.18v6.892M407.944 838.18v6.892M404.605 838.18v6.892" stroke-width=".7056899999999999" />
   </g>
   <g fill="none" stroke="#c13c1b" stroke-width="3" stroke-linecap="round" stroke-linejoin="round">
      <path d="M389.569 879.527v6.89M386.596 879.527v6.89M383.47 879.527v6.89M380.13 879.527v6.89" stroke-width=".7056899999999999" />
   </g>
   <g fill="none" stroke="#c13c1b" stroke-width="3" stroke-linecap="round" stroke-linejoin="round">
      <path d="M326.6 879.527v6.89M323.626 879.527v6.89M320.5 879.527v6.89M317.16 879.527v6.89" stroke-width=".7056899999999999" />
   </g>
   <g fill="none" stroke="#c13c1b" stroke-width="3" stroke-linecap="round" stroke-linejoin="round">
      <path d="M306.877 879.527v6.89M303.904 879.527v6.89M300.778 879.527v6.89M297.438 879.527v6.89" stroke-width=".7056899999999999" />
   </g>
   <g fill="none" stroke="#c13c1b" stroke-width="3" stroke-linecap="round" stroke-linejoin="round">
      <path d="M287.822 879.527v6.89M284.85 879.527v6.89M281.723 879.527v6.89M278.384 879.527v6.89" stroke-width=".7056899999999999" />
   </g>
   <g fill="none" stroke="#c13c1b" stroke-width="3" stroke-linecap="round" stroke-linejoin="round">
      <path d="M248.952 867.154h6.89M248.952 870.127h6.89M248.952 873.253h6.89M248.952 876.593h6.89" stroke-width=".7056899999999999" />
   </g>
   <g fill="none" stroke="#c13c1b" stroke-width="3" stroke-linecap="round" stroke-linejoin="round">
      <path d="M248.952 846.496h6.89M248.952 849.469h6.89M248.952 852.595h6.89M248.952 855.934h6.89" stroke-width=".7056899999999999" />
   </g>
   <g fill="none" stroke="#c13c1b" stroke-width="3" stroke-linecap="round" stroke-linejoin="round">
      <path d="M368.183 879.527v6.89M365.21 879.527v6.89M362.084 879.527v6.89M358.744 879.527v6.89" stroke-width=".7056899999999999" />
   </g>
   <g fill="none" stroke="#c13c1b" stroke-width="3" stroke-linecap="round" stroke-linejoin="round">
      <path d="M347.51 879.527v6.89M344.537 879.527v6.89M341.41 879.527v6.89M338.071 879.527v6.89" stroke-width=".7056899999999999" />
   </g>
   <g fill-rule="evenodd" stroke="#000" stroke-linecap="round" stroke-linejoin="round">
      <path d="M-2302.255 184.79l111.286 7.074-5.937 76.43-112.462-10.057 7.113-73.448z" fill="#fac53a" transform="matrix(-.22011 -.01366 -.0113 .20706 -377.328 162.665)" />
      <path d="M-2302.647 193.253l110.477 9.225-1.65 22.366-111.182-8.615 2.355-22.976zM-2305.791 224.473l111.293 9.998-1.876 24.269-111.45-9.584 2.033-24.683z" fill="#04a" transform="matrix(-.22011 -.01366 -.0113 .20706 -377.328 162.665)" />
   </g>
   <path d="M127.209 232.318l.267-2.813c7.493-9.507 8.48-24.753 2.5-40.536-.176-.342-.836-.673-1.072-1.157-1.074-2.209-2.17-5.851-2.856-9.557-7.26-1.603-.696 22.138-.357 34.464-4.281-38.072-5.735-48.53-8.658-48.4-2.343.104-2.268 2.617-.092 27.507-2.732-29.893-3.992-32.312-5.873-32.2-1.89.114-3.695 2.505.063 32.222-3.354-29.02-4.333-33.273-6.153-32.996-1.733.264-2.871 1.623-.002 34.76-1.759-25.978-2.715-28.04-4.335-27.698-1.735.366-2.46 2.102-2.986 28.412.636 12.62 1.287 25.239 5.178 37.858l24.375.134z" fill-rule="evenodd" stroke="gray" stroke-width=".5" />
   <g fill="none" stroke="#c13c1b" stroke-width="3" stroke-linecap="round" stroke-linejoin="round">
      <path d="M270.598 838.18v6.892M267.626 838.18v6.892M264.5 838.18v6.892M261.16 838.18v6.892" stroke-width=".7056899999999999" />
   </g>
   <g fill="none" stroke="#c13c1b" stroke-width="3" stroke-linecap="round" stroke-linejoin="round">
      <path d="M267.866 879.527v6.89M264.893 879.527v6.89M261.767 879.527v6.89M258.427 879.527v6.89" stroke-width=".7056899999999999" />
   </g>
   <path d="M26.176 318.1c-1.752 5.796-.194 12.265 2.037 17.745a34.205 34.205 0 0012.173-13.895c.058-.28.214-.196.121.08-.874 6.144.102 11.906 2.333 17.387 5.147-3.365 9.464-8.642 12.223-14.423.106-.315.349-.285.19.083-1.486 6.081-.188 11.752 2.043 17.233 5.147-3.366 10.071-6.247 12.124-14.188l32.032-191.762 1.06-3.885.026.486 6.138-3.899c-2.132-3.969-5.391-9.656-7.129-10.885-1.738-1.229-5.865-1.036-8.127.412-2.262 1.447-4.885 11.072-6.764 16.654l-60.48 182.856z" fill="#fac53a" fill-rule="evenodd" stroke="#000" stroke-width=".653" stroke-linejoin="round" />
   <path d="M102.141 119.171l-8.876.206M101.803 134.697l-14.263-2.295M101.009 137.835l-14.076-3.146M108.012 129.04l-19.539 2.06M103.513 120.859l-11.937.546M107.527 127.303l-18.393 1.173M106.148 124.907l-16.069.68M104.822 122.83l-14.225.595" style="marker:none" fill="none" stroke="#000" stroke-width=".427" stroke-linecap="round" overflow="visible" />
   <path d="M69.31 315.426l-1.797 10.245-9.61-1.55 2.14-10.303 5.715-3.936 3.551 5.544z" fill="#fac53a" fill-rule="evenodd" />
   <path d="M64.378 316.805c1.957 3.332 3.702 7.778 2.607 11.933-1.21 4.59-4.992 8.102-8.65 10.554-1.546-3.678-2.518-8.087-1.423-12.24 1.21-4.59 4.02-7.623 7.466-10.247z" fill="#fac53a" stroke="#000" stroke-width=".427" stroke-linecap="round" />
   <path d="M67.236 327.46l20.515-116.391m-4.592-.991L57.437 325.333" fill="#ff0" fill-rule="evenodd" stroke="#000" stroke-width=".427" />
   <g stroke="#000" stroke-width="2.827" fill="none">
      <path d="M69.242 315.775l-3.537-5.947-5.702 4.088M70.192 310.464l-3.464-5.767-5.532 3.929M71.072 305.084l-3.31-5.57-5.374 3.822M72.08 299.758l-3.273-5.481-5.178 3.669M73.03 294.447l-3.179-5.407-5.146 3.648M73.904 289.094l-3.03-5.185-4.998 3.595M74.848 283.81l-2.95-5.032-4.871 3.51M75.782 278.44l-2.85-4.846-4.68 3.384M76.768 273.083l-2.791-4.726-4.523 3.278M77.739 267.666l-2.77-4.556-4.375 3.087M78.624 262.398l-2.58-4.408-4.23 3.06M79.547 257.082l-2.479-4.223-4.179 2.934M80.507 251.718l-2.405-4.043-3.994 2.833M81.414 246.206l-2.267-3.768-3.798 2.68M82.363 241.033l-2.182-3.779-3.735 2.638M83.344 235.564l-2.119-3.546-3.475 2.441M84.262 230.137l-2.003-3.303-3.338 2.304M85.222 224.91l-1.94-3.207-3.242 2.24M86.166 219.626l-1.85-3.107-3.078 2.108M87.115 214.178l-1.775-2.79-2.915 1.976" stroke-width=".42696181" />
   </g>
   <g stroke="#000" stroke-width="2.827">
      <path d="M52.582 324.552l26.013-115.287m-4.54-1.207l-31.16 113.905" fill="#ff0" fill-rule="evenodd" stroke-width=".42696181" />
      <g fill="none">
         <path d="M55.14 312.975l-3.252-6.108L46 310.68M56.34 307.715l-3.186-5.924-5.712 3.662M57.475 302.384l-3.042-5.722-5.55 3.564M58.734 297.111l-3.01-5.63-5.346 3.42M59.934 291.851l-2.918-5.552-5.313 3.4M61.062 286.546l-2.78-5.323-5.163 3.354M62.256 281.312l-2.708-5.166-5.033 3.276M63.443 275.994l-2.616-4.977-4.837 3.158M64.683 270.688l-2.565-4.852-4.672 3.06M65.909 265.324l-2.551-4.682-4.516 2.876M67.044 260.103l-2.368-4.525-4.372 2.857M68.218 254.837l-2.276-4.336-4.314 2.733M69.43 249.525l-2.21-4.152-4.123 2.64M70.598 244.063l-2.086-3.872-3.92 2.497M71.792 238.94l-2-3.878-3.856 2.457M73.031 233.524l-1.948-3.643-3.588 2.274M74.205 228.146l-1.843-3.394-3.444 2.143M75.412 222.972l-1.785-3.296-3.345 2.084M76.606 217.738l-1.7-3.191-3.175 1.96M77.812 212.341l-1.64-2.871-3.006 1.835" stroke-width=".42696181" />
      </g>
   </g>
   <path d="M37.597 321.114L69.5 207.25m-4.474-1.434L28.201 318.018" fill="#ff0" fill-rule="evenodd" stroke="#000" stroke-width=".427" />
   <g stroke="#000" stroke-width="2.827" fill="none">
      <path d="M40.882 309.655l-2.942-6.263-6.072 3.513M42.344 304.462l-2.886-6.077-5.888 3.371M43.744 299.194l-2.752-5.867-5.72 3.281M45.266 293.99l-2.724-5.773-5.51 3.147M46.728 288.798l-2.636-5.691-5.478 3.13M48.12 283.555l-2.51-5.455-5.325 3.091M49.574 278.388l-2.446-5.295-5.19 3.02M51.026 273.136l-2.364-5.102-4.988 2.912M52.53 267.899l-2.318-4.975-4.82 2.822M54.023 262.603l-2.313-4.804-4.654 2.646M55.418 257.446l-2.138-4.639-4.51 2.634M56.854 252.245l-2.056-4.445-4.444 2.513M58.332 247l-2-4.258-4.25 2.43M59.771 241.603l-1.889-3.971-4.041 2.297M61.22 236.547l-1.804-3.974-3.974 2.261M62.73 231.199l-1.764-3.736-3.697 2.092M64.171 225.887l-1.671-3.482-3.547 1.968M65.635 220.78l-1.617-3.382-3.446 1.914M67.09 215.612l-1.538-3.272-3.27 1.798M68.565 210.282l-1.495-2.95-3.094 1.683" stroke-width=".42696181" />
   </g>
   <path d="M40.51 309.59l-2.652-5.816-5.738 3.11-3.805 10.944 9.252 2.912 2.942-11.15zM55.265 312.861l-3.456-5.678-5.563 3.436-2.834 9.713 9.31 2.547 2.543-10.018z" fill="#fac53a" fill-rule="evenodd" />
   <path d="M49.809 313.402c1.957 3.331 3.702 7.778 2.607 11.933-1.21 4.59-4.992 8.102-8.65 10.553-1.546-3.677-2.518-8.086-1.423-12.239 1.21-4.59 4.02-7.624 7.466-10.247zM29.225 332.556c-1.958-3.331-3.064-7.883-1.969-12.038 1.21-4.59 4.992-8.102 8.65-10.554 1.546 3.678 2.518 8.087 1.423 12.24-1.21 4.59-4.658 7.729-8.104 10.352z" fill="#fac53a" stroke="#000" stroke-width=".427" stroke-linecap="round" />
   <path d="M80.855 209.798L55.274 324.644M40.487 321.824l31.267-114.237" fill="none" stroke="#000" stroke-width=".427" />
   <path d="M88.348 210.182l.225-7.176-4.744-1.039-2.671 6.646 7.19 1.569z" fill="#fac53a" fill-rule="evenodd" stroke="#000" stroke-width=".427" stroke-linejoin="round" />
   <path d="M72.25 179.16l21.266 4.638M88.751 211.276l-25.09-5.745M91.863 193.491l-22.842-5.051M90.383 202.494L66.242 197.2" fill="none" stroke="#000" stroke-width=".427" />
   <path d="M80.22 208.4l.225-7.175-4.744-1.04-2.671 6.647 7.19 1.568zM72.056 206.61l.225-7.175-4.744-1.04-2.671 6.647 7.19 1.568zM89.35 201.324l.417-7.413-4.253-.932-2.61 6.94 6.447 1.405zM81.737 199.603l.407-7.415-4.287-.938-2.618 6.937 6.498 1.416zM74.201 198.003l.372-7.423-4.421-.968-2.65 6.93 6.7 1.461zM91.096 192.226l.495-7.503-4.046-.886-2.581 7.053 6.132 1.336zM83.773 190.603l.482-7.502-3.889-.844-2.487 7.075 5.894 1.27zM76.593 189.034l.476-7.507-4.115-.901-2.598 7.049 6.237 1.359z" fill="#fac53a" fill-rule="evenodd" stroke="#000" stroke-width=".427" stroke-linejoin="round" />
   <path d="M98.487 152.472l-16.343-3.693" fill="none" stroke="#000" stroke-width=".427" />
   <path d="M91.647 173.542c1.002 1.293 1.938 3.007 1.545 4.573-.433 1.73-2.091 3.017-3.721 3.901-.821-1.419-1.682-3.203-1.29-4.768.434-1.73 1.939-2.753 3.466-3.706z" fill="none" stroke="#000" stroke-width=".427" stroke-linecap="round" />
   <path d="M97.442 152.373l-4.366 26.192M94.09 151.766l-5.922 25.585" fill="none" stroke="#000" stroke-width=".427" />
   <path d="M85.024 172.165c1.002 1.293 2.033 3.106 1.64 4.672-.433 1.73-2.186 2.918-3.817 3.802-.82-1.419-1.582-3.15-1.19-4.715.434-1.73 1.84-2.806 3.367-3.759zM76.713 179.206c-1.003-1.293-1.899-3.11-1.506-4.676.433-1.73 2.345-2.945 3.976-3.83.82 1.42 1.698 3.202 1.306 4.767-.434 1.73-2.249 2.787-3.776 3.74z" fill="none" stroke="#000" stroke-width=".427" stroke-linecap="round" />
   <path d="M86.537 177.349l5.404-26.106M81.563 176.46l6.657-26.04M80.307 176.1c-.035-.34 6.303-26.067 6.303-26.067M75.118 174.836l8.229-25.64" fill="none" stroke="#000" stroke-width=".427" />
   <g stroke="#000" stroke-width="2.827" fill="none">
      <path d="M93.944 173.136l-1.886-3.376-2.802 2.416M94.48 170.137l-1.761-3.352-2.782 2.449M95.023 167.16l-1.649-3.324-2.644 2.452M95.36 164.223l-1.342-3.282-2.574 2.384M95.997 161.18l-1.312-3.24-2.493 2.512" stroke-width=".42696181" />
      <path d="M96.355 158.255l-1.021-3.238-2.621 2.58" stroke-width=".42696181" />
      <path d="M96.937 155.263l-1.106-3.036-2.375 2.503" stroke-width=".42696181" />
   </g>
   <g stroke="#000" stroke-width="2.827" fill="none">
      <path d="M87.67 172.33l-1.673-3.411-3.015 2.123M88.214 169.384l-1.556-3.44-3.02 2.323M88.75 166.353l-1.437-3.358-2.91 2.495M89.539 163.506l-1.582-3.407-2.813 2.26M90.051 160.375l-1.427-3.277-2.776 2.45M90.533 157.538l-1.26-3.363-2.541 2.403M91.16 154.484l-1.243-3.205-2.593 2.512" stroke-width=".42696181" />
   </g>
   <g stroke="#000" stroke-width="2.745" fill="none">
      <path d="M220.714 2204.148l15.715-19.643 14.642 19.643" transform="matrix(-.15385 -.04448 -.04309 .1448 210.376 -138.623)" />
      <path d="M221.429 2184.327l15-20 13.269 20.803M222.321 2163.97l14.108-19.643L250 2163.968M223.036 2143.97l13.393-19.286 13.214 19.107M224.286 2123.79l12.143-19.463 12.5 19.82M225.179 2103.97l11.25-19.465 11.25 19.643M225.714 2083.79l11.914-19.51 10.52 20.227" transform="matrix(-.15385 -.04448 -.04309 .1448 210.376 -138.623)" />
   </g>
   <path transform="matrix(-.13925 .02295 .02322 .14088 379.177 36.656)" d="M2159.286 368.076a13.036 12.857 0 11-26.072 0 13.036 12.857 0 1126.072 0z" fill="#fac53a" stroke="#000" stroke-width="3.008" stroke-linecap="round" stroke-linejoin="round" />
   <path transform="matrix(-.1486 .0245 .02484 .15067 397.384 34.204)" d="M2159.286 368.076a13.036 12.857 0 11-26.072 0 13.036 12.857 0 1126.072 0z" fill="#fac53a" stroke="#000" stroke-width="2.815" stroke-linecap="round" stroke-linejoin="round" />
   <path transform="matrix(-.1486 .0245 .02484 .15067 395.789 38.786)" d="M2159.286 368.076a13.036 12.857 0 11-26.072 0 13.036 12.857 0 1126.072 0z" fill="#fac53a" stroke="#000" stroke-width="2.815" stroke-linecap="round" stroke-linejoin="round" />
   <path transform="matrix(-.1359 .03802 .03853 .13749 375.692 7.668)" d="M2159.286 368.076a13.036 12.857 0 11-26.072 0 13.036 12.857 0 1126.072 0z" fill="#fac53a" stroke="#000" stroke-width="3.008" stroke-linecap="round" stroke-linejoin="round" />
   <path transform="matrix(-.14504 .0406 .04117 .14705 393.37 3.162)" d="M2159.286 368.076a13.036 12.857 0 11-26.072 0 13.036 12.857 0 1126.072 0z" fill="#fac53a" stroke="#000" stroke-width="2.815" stroke-linecap="round" stroke-linejoin="round" />
   <path transform="matrix(-.14504 .0406 .04117 .14705 392.286 7.891)" d="M2159.286 368.076a13.036 12.857 0 11-26.072 0 13.036 12.857 0 1126.072 0z" fill="#fac53a" stroke="#000" stroke-width="2.815" stroke-linecap="round" stroke-linejoin="round" />
   <path transform="matrix(-.13816 .02877 .02913 .13978 379.492 25.698)" d="M2159.286 368.076a13.036 12.857 0 11-26.072 0 13.036 12.857 0 1126.072 0z" fill="#fac53a" stroke="#000" stroke-width="3.008" stroke-linecap="round" stroke-linejoin="round" />
   <path transform="matrix(-.14745 .03071 .03114 .1495 397.322 22.507)" d="M2159.286 368.076a13.036 12.857 0 11-26.072 0 13.036 12.857 0 1126.072 0z" fill="#fac53a" stroke="#000" stroke-width="2.815" stroke-linecap="round" stroke-linejoin="round" />
   <path transform="matrix(-.14745 .03071 .03114 .1495 396.09 27.179)" d="M2159.286 368.076a13.036 12.857 0 11-26.072 0 13.036 12.857 0 1126.072 0z" fill="#fac53a" stroke="#000" stroke-width="2.815" stroke-linecap="round" stroke-linejoin="round" />
   <g stroke="#000" stroke-width="2.827" fill="none">
      <path d="M69.242 315.775l-3.537-5.947-5.702 4.088M70.192 310.464l-3.464-5.767-5.532 3.929M71.072 305.084l-3.31-5.57-5.374 3.822M72.08 299.758l-3.273-5.481-5.178 3.669M73.03 294.447l-3.179-5.407-5.146 3.648M73.904 289.094l-3.03-5.185-4.998 3.595M74.848 283.81l-2.95-5.032-4.871 3.51M75.782 278.44l-2.85-4.846-4.68 3.384M76.768 273.083l-2.791-4.726-4.523 3.278M77.739 267.666l-2.77-4.556-4.375 3.087M78.624 262.398l-2.58-4.408-4.23 3.06M79.547 257.082l-2.479-4.223-4.179 2.934M80.507 251.718l-2.405-4.043-3.994 2.833M81.414 246.206l-2.267-3.768-3.798 2.68M82.363 241.033l-2.182-3.779-3.735 2.638M83.344 235.564l-2.119-3.546-3.475 2.441M84.262 230.137l-2.003-3.303-3.338 2.304M85.222 224.91l-1.94-3.207-3.242 2.24M86.166 219.626l-1.85-3.107-3.078 2.108M87.115 214.178l-1.775-2.79-2.915 1.976" stroke-width=".42696181" />
   </g>
   <path d="M331.95 273.699c-1.075-.191-2.031-.635-4.155-1.378-.753-.264-1.59-.398-1.76-.4-.48-.003-2.658.286-7.04 1-2.217.361-4.113.698-4.162.698-.192 0-.389-1.253-.298-1.743l.054-.292 1.716-.114c4.025-.266 5.567-.29 8.704-1.474 5.075-1.916 6.626-2.761 8.891-2.828 1.456-.043 2.267.15 2.947.322 1.742.436 2.697 1.899 3.83 3.787.4.668.71 1.414.79 1.607.138.335.012.273-.176.374-.131.07-.45.127-1.022.086-.51-.036-1.118-.06-1.425 0-2.012.4-5.217.694-6.894.396l-.044-.044zm6.93-1.926l.45.354.703.086c-.133-.016-1.498-2.618-1.694-2.72-.3-.154-.147-.086-.4.82-.295 1.061-.761 1.302-1.66 1.912-.311.211-.543.407-.516.434.146.146.632-.102 1.514-.16.545-.037.78-.198 1.823-.246zm-8.247-.401c-.375-.528-.567-1.08-.57-1.638l-.001-.545-.398.203c-.78.398-1.832.81-2.506.983-.377.097-.685.2-.685.23 0 .057 1.165.436 2.503.815.415.118 1.002.217 1.305.221l.55.007-.198-.276z" fill="#fac53a" />
   <path d="M326.785 270.617c1.282-.287 4.142-1.91 5.332-1.934 4.89-1.018-.132 3.2.248 3.749-.463.146-4.999-1.614-5.58-1.815z" fill="#fff" fill-rule="evenodd" stroke="#fff" stroke-width=".294" />
   <path d="M338.007 269.121c1.092.932 1.94 2.313 2.05 3.39-1.31-.218-2.91.351-3.925.04 1.386-.79 1.641-2.216 1.875-3.43z" fill="#fff" fill-rule="evenodd" />
   <path d="M330.467 268.946c2.94-1.18 6.362-.798 7.767.438-.27 1.745-.754 2.756-2.147 3.313-1.648.317-4.422-.017-5.382-1.091-.96-1.075-1.168-2.21-.238-2.66z" fill-rule="evenodd" stroke="#000" stroke-width=".072" />
   <g>
      <g stroke="#c13c1b" stroke-width=".884">
         <path d="M346.176 223.91L279.162 25.617c-4.241-15.161-31.827-12.385-27.833 6.38l51.854 192.919L244.6 29.81c-4.317-16.47-28.888-13.65-26.022 4.777l41.736 191.459 85.861-2.137z" fill="#fac53a" fill-rule="evenodd" stroke-width=".881348" />
         <path d="M326.864 224.334l-64.16-208.1m-2.263.377l60.341 207.802M285.08 225.418L229.39 19.251m-2.514.503l52.547 205.79M301.632 220.515c-5.065-1.694-12.595-1.347-17.288 2.047M277.962 221.09c-5.51-.392-11.841-.57-17.7 3.56M300.283 216.031c-7.427-1.304-12.654.218-16.667 2.8M277.283 217.736c-5.68-1.333-12.2-.255-17.764 3.607M331.487 179.409c-5.758-.99-11.98.037-17.078 3.593M329.918 175.895c-5.753-.38-12.28.141-17.038 3.909M307.902 179.495c-5.522-.634-11.127.25-15.816 4.12M309.16 183.513c-6.111-.524-11.445.163-15.944 4.098M290.7 182.217c-4.903-.43-10.004-.946-16.533 2.198M291.815 186.107c-4.751-.749-10.076-.963-16.57 1.466M269.102 185.938c-5.612-.3-11.347-.021-16.667 3.71M270.013 189.427c-6.148-.186-12.047.724-16.778 4.022M319.88 146.034c-5.478-.65-10.866-.417-15.933 2.934M318.636 142.178c-6.02-.631-11.408.778-15.887 3.406M298.26 146.739c-6.126-.477-10.772.885-14.956 2.822M299.17 150.497c-5.79-.56-10.652.293-14.843 2.934M280.332 149.283c-5.57-.68-10.637-.074-15.023 2.267M281.922 153.454c-5.255-.674-10.577-.332-15.42 2.05M260.713 153.214c-5.24-.334-10.752.843-15.52 4.05M261.688 156.866c-5.53-.212-11.272.78-15.739 3.93M308.304 111.95c-5.651-.9-10.802-.121-15.445 2.356M309.546 115.207c-5.718-.412-10.962.254-15.378 2.8M289.153 115.964c-5.882-.608-10.483 1.037-14.423 3.312M290.192 119.1c-5.098.017-9.98.812-14.312 3.6M271.436 119.469c-6.176-.668-10.71.487-14.223 2.778M272.458 122.87c-5.375-.48-10.345-.121-14.245 2.466M253.057 122.87c-5.401-.156-10.385.673-14.311 4M253.857 126.247c-5.571-.172-10.413.988-14.267 3.956M299.115 83.983c-6.865-.552-10.799 1.16-14.333 3.178M300.168 87.24c-5.19-.022-10.186.528-14.378 3.444M281.026 87.783c-4.953.008-9.84.261-13.978 3.356M282.343 91.497c-5.375-.148-10.136.802-14.09 3.2M264.214 94.206c-4.538-.093-9.506.022-13.637 2.666M246.63 97.452c-5.013-.136-10.126.6-13.726 3.588M262.922 90.43c-4.483-.062-9.58-.13-13.658 3.045M245.786 93.98c-4.43-.057-9.315-.063-13.57 3.356M291.08 61.123c-4.586-.004-9.222-.542-13.467 3.155M290.258 57.71c-4.91-.48-9.574-.018-13.6 2.866M273.563 60.878c-4.697.112-9.096.27-13.067 3.583M274.124 64.24c-4.551.23-9.114.395-13.089 3.8M255.746 67.045c-4.294-.098-8.615-.528-12.622 2.867M254.79 63.956c-4.368-.293-8.66-.151-12.444 2.89M238.99 67.534c-4.435-.345-8.79-.294-12.467 3.156M239.79 70.579c-4.23-.296-8.46.05-12.69 3.044M233.34 45.754c-4.234.012-8.383.252-11.51 3.177M232.301 42.404c-4.042-.229-7.925.271-11.378 2.755M247.753 39.916c-4.368-.377-9.911.392-11.867 2.134M248.464 43.016c-3.435-.216-7.972-.07-11.88 2.416M266.574 36.96c-3.968.17-8.109.214-12.889 3.308M267.433 39.983c-4.334-.263-9.244.587-12.782 3.598M281.916 33.606c-5.285-.656-8.589.294-12.634 2.437M282.784 36.713c-4.45.068-8.954-.067-12.756 2.516M342.31 213.247c-5.753-.853-12.598.652-17.29 4.046M319.248 217.964c-5.511-.392-11.047-.684-16.905 3.447M341.116 209.692c-7.427-1.304-13.582 1.61-17.594 4.191M318.04 214.616c-5.681-1.332-10.98-.561-16.544 3.302" fill="none" stroke-width=".881348" />
      </g>
      <path d="M260.258 226.646l86.144-2.112c-5.824 11.184-5.772 24.198-6.062 35.843-14.572-.505-21.935-.084-29.034 10.201-30.941-.16-17.101 18.646-24.997 33.663-10.133-25.707-19.007-51.888-26.051-77.595z" fill="#c13c1b" fill-rule="evenodd" stroke="#000" stroke-width=".499" />
   </g>
   <g>
      <path d="M304.565 277.21c-.64.706.284 1.592.988 2.002 4.403 3.19 3.891 6.64 1.787 8.861-1.322 1.732-3.395.893-3.833-.185-.46-1.134-.82-2.586-1.437-4.066-5.683-11.07-4.137-13.488-4.095-13.837.073-.613 2.4-4.563 5.005-3.831 2.673.752 8.627 5.585 1.585 11.056z" fill-rule="evenodd" />
      <path d="M305.269 279.173c4.402 3.19 3.891 6.64 1.786 8.862-1.321 1.732-3.394.892-3.832-.186-.46-1.134-.82-2.586-1.438-4.065-5.682-11.07-4.136-13.489-4.095-13.838.074-.613 2.402-4.563 5.006-3.83 2.673.751 8.627 5.584 1.585 11.056-1.528 1.169-.422 2.7.596 4.743m.12-9.043c-4.083.187-3.908 4.037-1.317 9.964 2.063 2.178 2.402 2.554 2.8 2.355.366-.184.197-1.392-1.67-3.29" fill="none" stroke="gray" stroke-width=".5676099899999999" />
      <path d="M306.164 272.536c-.093-3.335-2.762-5.126-3.897-5.16-1.054-.031-2.489 1.031-3.363 3.496-.607 1.714.63 4.329 1.503 6.336" fill="none" stroke="gray" stroke-width=".35284499999999996" />
      <path d="M304.848 286.639c-.07.404.2.787.6.855.4.068.78-.205.85-.61a.739.739 0 00-.602-.854.739.739 0 00-.848.609z" style="marker:none" fill="none" stroke="gray" overflow="visible" stroke-width=".23523" />
   </g>
</svg>