<svg width="600" height="600" xmlns="http://www.w3.org/2000/svg">
    <path d="M251.49 597.17c-93.98-13.54-179.31-75.94-220.83-161.49-58.57-120.67-32.83-266.99 62.71-356.2C149.9 26.68 219.8 0 301.66 0c117.65 0 221.39 64.9 270.18 169 38.93 83.13 38.02 183.24-2.5 266.68-42.11 86.75-127 148.21-223.2 161.59-22.78 3.16-72.39 3.11-94.65-.1m81.88-12.67c62.89-8.76 125.77-40.57 170.81-86.42l15.24-15.53H80.58l15.24 15.53c52.78 53.74 129.17 87.55 200.81 88.85 9.37.18 25.89-.92 36.74-2.43m202.49-124.9c11.85-16.34 27.55-48.36 35.83-72.94l7.65-22.83-138.84-.66c-76.36-.36-202.06-.36-279.34 0l-140.5.66 7.65 22.83c8.28 24.58 23.98 56.6 35.83 72.94l7.37 10.19h456.98l7.37-10.19m47.98-119.39c2.63-12.84 2.63-62.17.02-80.42l-2.09-14.68H18.23l-2.09 14.68c-2.61 18.25-2.61 67.58.02 80.42l1.94 9.58h563.8l1.94-9.58m-6.82-110.27c0-4.65-13.48-39.88-21.06-55.05-4.22-8.42-12.36-22.49-18.1-31.27l-10.42-15.96H72.56l-10.42 15.96c-5.74 8.78-13.88 22.85-18.1 31.27-7.58 15.17-21.06 50.4-21.06 55.05 0 1.48 105.75 2.4 277.02 2.4 171.27 0 277.02-.92 277.02-2.4M501.6 99.37c-44.07-45.11-110.12-76.95-175.63-84.64C249.09 5.69 156.1 40.29 98.4 99.37l-12.66 12.97h428.52L501.6 99.37" />
    <path fill="#c6493d" d="M264.26 584.4c-60.39-8.71-124.45-41.54-168.44-86.32l-15.24-15.53h438.84l-15.24 15.53c-63.42 64.57-157.05 98.27-239.92 86.32M64.14 459.6c-11.85-16.34-27.55-48.36-35.83-72.94l-7.65-22.83 140.5-.66c77.28-.36 202.98-.36 279.34 0l138.84.66-7.65 22.83c-8.28 24.58-23.98 56.6-35.83 72.94l-7.37 10.19H71.51l-7.37-10.19M16.16 340.21c-2.63-12.84-2.63-62.17-.02-80.42l2.09-14.68h563.54l2.09 14.68c2.61 18.25 2.61 67.58-.02 80.42l-1.94 9.58H18.1l-1.94-9.58M22.98 229.94c0-4.65 13.48-39.88 21.06-55.05 4.22-8.42 12.36-22.49 18.1-31.27l10.42-15.96h454.88l10.42 15.96c5.74 8.78 13.88 22.85 18.1 31.27 7.58 15.17 21.06 50.4 21.06 55.05 0 1.48-105.75 2.4-277.02 2.4-171.27 0-277.02-.92-277.02-2.4M98.4 99.37c57.73-59.11 150.82-93.65 227.97-84.59 65.09 7.64 131.29 39.58 175.23 84.59l12.66 12.97H85.74L98.4 99.37" />
</svg>