<svg width="150" height="600" xmlns="http://www.w3.org/2000/svg">
    <path d="M2.59 597.42C.01 594.86 0 593.14 0 325.34 0 27.75-.65 50.81 8.08 34.4c4.85-9.11 17.6-21.28 27.21-25.95 28.55-13.91 65.99-9.76 89.88 9.95 7.62 6.28 16.4 17.21 19.37 24.09 5.55 12.9 5.43 8.21 5.45 205.69.01 186.59-.02 188.33-2.58 190.88-2.34 2.33-4.3 2.57-20.44 2.57-13.38 0-18.48-.46-20.37-1.83-2.45-1.79-2.52-5.59-3.15-188.51L102.8 64.6l-3.89-5.51c-11.87-16.82-37.6-16.06-48.16 1.43l-4.2 6.96v263.69c0 261.97-.01 263.69-2.58 266.25-2.35 2.34-4.31 2.58-20.69 2.58-16.39 0-18.35-.24-20.69-2.58m34.65-6.69c1.2-1.2 1.57-61.82 1.58-264.91.02-253.82.12-263.57 2.43-268.52C46.84 45.31 59.59 38.03 75 38.03c15.16 0 27.56 6.94 33.74 18.89 2.39 4.64 2.47 10.12 2.47 189.34 0 141.82.36 184.92 1.55 186.1 2.11 2.1 25.82 2.1 27.93 0 1.19-1.18 1.55-44.34 1.55-186.42 0-201.4.31-192.66-7.21-205.45-7.43-12.61-25.15-25.16-41.93-29.65-11.32-3.05-30.51-3.06-40.68-.04-23.17 6.92-38.67 22.81-43.23 44.31-2.14 10.18-2.04 533.47.12 535.62 2.11 2.1 25.82 2.1 27.93 0" />
    <path fill="#fbd09d" d="M9.31 590.73c-2.16-2.15-2.26-525.44-.12-535.62 3.38-15.97 15.24-31.77 29.09-38.76C54.14 8.36 75.76 6.17 93.1 10.83c16.78 4.52 34.5 17.06 41.93 29.66 7.52 12.79 7.21 4.05 7.21 205.45 0 142.08-.36 185.24-1.55 186.42-2.11 2.1-25.82 2.1-27.93 0-1.19-1.18-1.55-44.28-1.55-186.1 0-179.22-.08-184.7-2.47-189.34C102.56 44.97 90.16 38.03 75 38.03c-15.41 0-28.16 7.28-33.75 19.27-2.31 4.95-2.41 14.7-2.43 268.52-.01 203.09-.38 263.71-1.58 264.91-2.11 2.1-25.82 2.1-27.93 0" />
</svg>