<svg xmlns="http://www.w3.org/2000/svg" width="600" height="660">
	<path fill="#FFF" d="M300.273 657.768S1.773 545.449 1.773 259.997V1.445h597.001v258.552c-.001 285.45-298.501 397.771-298.501 397.771z" />
	<path fill="#ED1C24" d="M2.468 2.532v83.094l7.969 8 24.625 24.719 24.625 24.719 24.594 24.719 24.625 24.688 24.625 24.719 24.625 24.719 24.625 24.719 24.594 24.719L232 316.065l24.625 24.719 24.625 24.719 24.626 24.719 24.625 24.72 24.595 24.719 24.625 24.688 24.624 24.72 24.625 24.719 24.625 24.719s6.779 6.785 13.438 13.469c25.201-23.494 49.77-51.153 70.75-83.312a70741.074 70741.074 0 01-15.812-15.875l-24.625-24.719-24.625-24.688-24.625-24.719-24.596-24.725-24.625-24.719L374.25 304.5l-24.625-24.719L325 255.063l-24.594-24.719-24.625-24.719-24.625-24.719-24.625-24.719-24.626-24.687-24.625-24.719-24.594-24.719-24.625-24.719-24.625-24.719L78.812 7.907s-3.525-3.549-5.344-5.375h-71zm100.969 30.093l14.406-14.344a7.548 7.548 0 001.656 8.156c2.552 2.562 6.839 2.777 9.75.906l3.875 3.844c-1.883 2.904-1.614 7.313.938 9.875 2.449 2.458 6.193 2.874 9.062 1.25l-.656.656a7.6 7.6 0 001.656 8.188c2.552 2.562 6.839 2.777 9.75.906l3.875 3.844c-1.883 2.904-1.614 7.312.938 9.875 2.449 2.458 6.193 2.874 9.062 1.25l-.656.656c-1.1 2.71-.576 5.946 1.625 8.156 2.552 2.562 6.87 2.777 9.781.906l3.875 3.875c-1.883 2.904-1.614 7.312.938 9.875 2.449 2.459 6.193 2.873 9.062 1.25l-.656.656c-1.1 2.711-.576 5.945 1.625 8.156 2.552 2.562 6.87 2.777 9.781.906l3.875 3.844c-1.883 2.904-1.614 7.344.938 9.906 2.449 2.459 6.193 2.873 9.062 1.25 0 0-.631.6-.688.656a7.548 7.548 0 001.656 8.156c2.552 2.562 6.87 2.777 9.781.906l3.875 3.844c-1.883 2.904-1.614 7.344.938 9.906 2.449 2.459 6.193 2.873 9.062 1.25l-.688.656-14.406 14.344s13.151-13.062 14.406-14.312a7.54 7.54 0 001.656 8.125c2.552 2.562 6.839 2.777 9.75.906l3.906 3.844c-1.883 2.904-1.646 7.344.906 9.906 2.449 2.459 6.193 2.873 9.062 1.25l-.656.656a7.548 7.548 0 001.656 8.156c2.552 2.562 6.839 2.777 9.75.906l3.875 3.844c-1.883 2.904-1.614 7.312.938 9.875 2.45 2.459 6.194 2.904 9.063 1.281l-.656.656a7.548 7.548 0 001.656 8.156c2.551 2.562 6.838 2.777 9.75.906l3.875 3.844c-1.883 2.904-1.614 7.312.938 9.875 2.449 2.459 6.193 2.904 9.062 1.281l-.655.656c-1.101 2.711-.576 5.945 1.625 8.156 2.551 2.562 6.869 2.777 9.78.906l3.875 3.844c-1.883 2.904-1.614 7.312.938 9.875 2.449 2.459 6.193 2.904 9.062 1.281l-.655.656c-1.101 2.711-.576 5.945 1.625 8.156 2.551 2.562 6.869 2.777 9.78.906l3.875 3.844c-1.883 2.904-1.614 7.312.938 9.875 2.449 2.459 6.193 2.873 9.062 1.25l-.688.688a7.548 7.548 0 001.656 8.156c2.551 2.562 6.869 2.777 9.781.906l3.875 3.844c-1.883 2.904-1.615 7.312.938 9.875a7.524 7.524 0 009.031 1.25L374.25 304.5l14.406-14.344a7.548 7.548 0 001.656 8.156c2.551 2.562 6.838 2.777 9.75.906l3.875 3.844c-1.884 2.904-1.615 7.313.938 9.875a7.57 7.57 0 009.062 1.25l-.656.655a7.542 7.542 0 001.656 8.156c2.551 2.562 6.838 2.777 9.75.906l3.875 3.875c-1.884 2.903-1.615 7.313.938 9.875a7.567 7.567 0 009.062 1.25l-.656.655c-1.101 2.712-.578 5.947 1.625 8.156 2.551 2.562 6.869 2.777 9.781.906l3.875 3.875c-1.884 2.904-1.615 7.314.938 9.875a7.567 7.567 0 009.062 1.25l-.656.656c-1.101 2.711-.578 5.946 1.625 8.156 2.551 2.562 6.869 2.776 9.781.905l3.875 3.845c-1.884 2.903-1.615 7.346.938 9.905a7.567 7.567 0 009.062 1.25l-.656.656c-1.101 2.711-.578 5.947 1.625 8.156 2.551 2.562 6.869 2.776 9.781.905l3.875 3.845c-1.884 2.903-1.615 7.346.938 9.905 2.449 2.46 6.193 2.875 9.062 1.25 0 0-.632.601-.688.656l-14.406 14.344s13.15-13.062 14.406-14.312a7.538 7.538 0 001.656 8.125c2.551 2.562 6.869 2.777 9.78.906l3.875 3.844c-1.883 2.904-1.614 7.346.938 9.906a7.521 7.521 0 009.031 1.25l-.656.655a7.543 7.543 0 001.656 8.156c2.551 2.562 6.838 2.777 9.75.906 0 0 .918.926 1.844 1.844.023-.039.039-.084.062-.125l-4.03-4 1-1.031 3.78 3.75c.013-.02.021-.04.031-.062-.276-.27-.608-.574-.719-.688 2.082-2.006 3.721-4.284 4.562-6.719.92-2.574 2.041-4.512 3.375-5.906 25.264-48.778 41.78-106.352 41.78-173.5V2.523h-475.59c.297.228.566.493.844.781 1.617 1.68 1.665 4.704.281 5.875-2.291 1.958-5.307 1.944-9.344-.094.176-.156 2.131-.604 2.562-1.406.477-.885.604-2.43-2.156-2.969-2.76-.539-3.878.979-5.188 1.812-.258-.274-1.375-1.346-1.594-1.562.577-.596 2.023-1.584 3.844-2.438h-2.281a20.346 20.346 0 00-2.062 1.844c-.32-.283-1.402-1.342-1.906-1.844h-.125l5.062 5.031-1 1.031s-3.709-3.693-6.094-6.062h-8.844c2.576 1.757 6.191 1.739 8.75.094l3.906 3.844c-1.883 2.904-1.646 7.313.906 9.875 2.449 2.458 6.193 2.874 9.062 1.25l-15.06 15.04zm202.438 357.594s-13.153 13.062-14.407 14.312a7.541 7.541 0 00-1.656-8.125c-2.553-2.562-6.871-2.777-9.782-.906l-3.875-3.844c1.883-2.904 1.614-7.312-.938-9.875-2.449-2.459-6.193-2.904-9.062-1.281 0 0 .63-.598.688-.656l14.406-14.344s-13.151 13.062-14.406 14.312a7.54 7.54 0 00-1.656-8.125c-2.552-2.562-6.839-2.777-9.75-.906l-3.906-3.844c1.883-2.904 1.646-7.312-.906-9.875-2.449-2.46-6.193-2.904-9.062-1.281l.656-.656a7.549 7.549 0 00-1.656-8.156c-2.552-2.561-6.839-2.776-9.75-.906l-3.875-3.844c1.883-2.903 1.614-7.312-.938-9.875-2.449-2.459-6.193-2.873-9.062-1.25L232 316.062l-14.406 14.345a7.549 7.549 0 00-1.656-8.156c-2.552-2.561-6.839-2.777-9.75-.906l-3.875-3.844c1.883-2.904 1.614-7.313-.938-9.875-2.449-2.459-6.193-2.873-9.062-1.25l15.062-15.031-14.406 14.344c1.1-2.711.576-5.945-1.625-8.156-2.552-2.562-6.87-2.777-9.781-.906l-3.875-3.844c1.883-2.904 1.614-7.312-.938-9.875-2.449-2.459-6.193-2.873-9.062-1.25l.656-.656c1.1-2.711.576-5.945-1.625-8.156-2.552-2.562-6.87-2.777-9.781-.906l-3.875-3.875c1.883-2.904 1.614-7.312-.938-9.875-2.449-2.459-6.193-2.873-9.062-1.25 0 0 .631-.6.688-.656a7.548 7.548 0 00-1.656-8.156c-2.552-2.562-6.87-2.777-9.781-.906l-3.875-3.875c1.883-2.904 1.614-7.312-.938-9.875a7.524 7.524 0 00-9.031-1.25l.656-.656a7.548 7.548 0 00-1.656-8.156c-2.552-2.562-6.839-2.777-9.75-.906l-3.875-3.844c1.883-2.904 1.614-7.344-.938-9.906-2.449-2.459-6.193-2.873-9.062-1.25l.656-.656a7.548 7.548 0 00-1.656-8.156c-2.552-2.562-6.839-2.777-9.75-.906l-3.875-3.844c1.883-2.904 1.614-7.344-.938-9.906-2.449-2.459-6.193-2.873-9.062-1.25l.656-.656c1.1-2.711.576-5.945-1.625-8.156-2.552-2.562-6.87-2.777-9.781-.906l-3.875-3.844c1.883-2.904 1.614-7.344-.938-9.906-2.449-2.459-6.193-2.873-9.062-1.25l.656-.656c1.1-2.711.576-5.945-1.625-8.156-2.552-2.562-6.87-2.777-9.781-.906l-3.875-3.844c1.883-2.904 1.614-7.312-.938-9.875-2.449-2.459-6.193-2.904-9.062-1.281l.656-.656c1.1-2.711.576-5.945-1.625-8.156-2.552-2.562-6.87-2.777-9.781-.906l-3.875-3.844c1.883-2.904 1.614-7.312-.938-9.875a7.48 7.48 0 00-1.938-1.406v9.781c.293-.292.594-.625.594-.625l8.312 8.25-1.031 1.031-7.875-7.844v1.031c.179-.134.35-.291.531-.406.258.273 1.344 1.314 1.562 1.531-.372.384-1.14.955-2.094 1.531v1.344a20.72 20.72 0 002.625-2.25c.362.32 1.823 1.718 2.156 2.062-2.083 2.006-3.721 4.285-4.562 6.719-.069.193-.147.376-.219.562v129.844c0 285.451 298.501 397.781 298.501 397.781s63.295-23.834 131.594-77.406c.248-4.278 2.359-8.18 8.688-10.062 2.469-.865 5.004-2.58 7-4.625.178.158.613.598 1.062 1.031.021-.019.039-.043.062-.062l-4.188-4.156 1.031-1s2.127 2.109 4.25 4.22c.033-.027.062-.064.094-.095-1.024-1.016-2.062-2.03-2.062-2.03 1.883-2.904 1.613-7.312-.938-9.875-2.448-2.459-6.192-2.873-9.062-1.25l.656-.656c1.1-2.709.575-5.978-1.625-8.188-2.554-2.561-6.871-2.776-9.781-.905l-3.875-3.845c1.883-2.903 1.613-7.312-.938-9.875-2.448-2.459-6.192-2.873-9.062-1.25l.688-.655a7.548 7.548 0 00-1.655-8.156c-2.554-2.562-6.841-2.777-9.75-.906l-3.906-3.875c1.883-2.903 1.645-7.312-.906-9.875-2.448-2.459-6.192-2.873-9.062-1.25l.656-.656a7.547 7.547 0 00-1.656-8.155c-2.553-2.562-6.84-2.777-9.75-.906l-3.875-3.844c1.883-2.904 1.613-7.345-.938-9.906-2.448-2.459-6.192-2.873-9.062-1.25l.656-.656a7.549 7.549 0 00-1.656-8.156c-2.553-2.561-6.84-2.776-9.75-.905l-3.875-3.845c1.883-2.903 1.613-7.344-.938-9.905-2.448-2.459-6.192-2.873-9.062-1.25l.656-.656c1.1-2.709.575-5.945-1.625-8.156-2.554-2.561-6.871-2.776-9.781-.906l-3.875-3.844c1.883-2.903 1.613-7.344-.938-9.906-2.448-2.459-6.192-2.872-9.062-1.25l.656-.655c1.1-2.709.575-5.945-1.625-8.156-2.554-2.562-6.871-2.777-9.781-.906l-3.875-3.844c1.883-2.904 1.613-7.312-.938-9.875-2.449-2.459-6.193-2.904-9.062-1.281 0 0 .629-.598.688-.656l14.403-14.359zM129.187 9.844c1.115.043 2.312.444 3.156 1.25 5.277 5.026.045 13.683-1.688 15.344-.217-.218-1.287-1.337-1.562-1.594.839-1.303 2.352-2.378 1.812-5.125-.539-2.746-2.111-2.63-3-2.156-.834.444-1.262 2.513-1.406 2.562-2.044-4.02-2.031-7.034-.062-9.312.588-.688 1.634-1.012 2.75-.969zm17.406 1.531a21.58 21.58 0 012.344.062l.031.031.031.031c.572 5.328-.861 10.668-8.594 12.969-2.471.866-5.005 2.581-7 4.625a83.318 83.318 0 01-2.188-2.094c2.083-2.006 3.721-4.285 4.562-6.719 2.261-6.318 5.636-8.725 10.814-8.905zm-18.469 12.657l8.312 8.25-1.031 1-8.281-8.25 1-1zm15.75 1.687c1.967.023 3.893.67 5.469 2.312 1.617 1.68 1.665 4.704.281 5.875-2.291 1.958-5.307 1.944-9.344-.094.176-.156 2.131-.604 2.562-1.406.477-.885.572-2.43-2.188-2.969-2.76-.539-3.847.979-5.156 1.812-.258-.274-1.375-1.346-1.594-1.562 1.15-1.184 5.642-4.019 9.97-3.968zm9.938 8.844c1.115.043 2.281.444 3.125 1.25 5.277 5.026.076 13.683-1.656 15.344-.217-.218-1.318-1.337-1.594-1.594.839-1.303 2.352-2.378 1.812-5.125-.539-2.746-2.08-2.63-2.969-2.156-.889.474-1.321 2.816-1.438 2.562-2.044-4.02-2-7.034-.031-9.312.589-.688 1.635-1.012 2.751-.969zm18.531 1.5c.384.003.779.032 1.188.062l.062.062.031.031c.572 5.328-.861 10.668-8.594 12.969-2.471.866-5.005 2.581-7 4.625a83.318 83.318 0 01-2.188-2.094c2.083-2.006 3.721-4.285 4.562-6.719 2.26-6.32 5.635-8.727 10.812-8.906.371-.011.743-.033 1.127-.03zM152.749 48.75l8.312 8.25-1.031 1-8.312-8.25 1.031-1zm15.75 1.688c1.967.023 3.893.639 5.469 2.281 1.617 1.68 1.665 4.735.281 5.906-2.291 1.958-5.307 1.944-9.344-.094-.255-.116 2.086-.521 2.562-1.406.476-.885.572-2.43-2.188-2.969-2.76-.539-3.878.947-5.188 1.781-.258-.274-1.344-1.315-1.562-1.531 1.15-1.184 5.642-4.019 9.97-3.968zm9.938 8.844c1.115.043 2.281.444 3.125 1.25 5.277 5.026.076 13.683-1.656 15.344-.217-.218-1.318-1.337-1.594-1.594.839-1.303 2.352-2.379 1.812-5.125-.54-2.746-2.08-2.63-2.969-2.156-.889.474-1.321 2.816-1.438 2.562-2.044-4.02-2-7.034-.031-9.312.589-.689 1.635-1.013 2.751-.969zm17.468 1.5c.348-.011.698-.009 1.062 0 .389.009.779.032 1.188.062l.062.062.031.031c.572 5.328-.893 10.668-8.625 12.969-2.471.866-4.974 2.581-6.969 4.625a83.318 83.318 0 01-2.188-2.094c2.083-2.006 3.721-4.285 4.562-6.719 2.272-6.346 5.66-8.775 10.877-8.936zm-18.531 12.687l8.312 8.25-1.031 1-8.312-8.25 1.031-1zm15.719 1.688c1.967.023 3.924.639 5.5 2.281 1.617 1.68 1.634 4.735.25 5.906-2.291 1.958-5.307 1.944-9.344-.094-.255-.116 2.117-.521 2.594-1.406.477-.885.572-2.43-2.188-2.969-2.759-.539-3.878.947-5.188 1.781-.258-.274-1.344-1.315-1.562-1.531 1.149-1.184 5.61-4.02 9.938-3.968zM203.062 84c1.115.043 2.281.444 3.125 1.25 5.277 5.025.045 13.652-1.688 15.312-.217-.218-1.287-1.306-1.562-1.562.839-1.303 2.352-2.379 1.812-5.125s-2.111-2.63-3-2.156c-.889.474-1.29 2.816-1.406 2.562-2.044-4.021-2-7.034-.031-9.312.588-.688 1.634-1.012 2.75-.969zm17.468 1.5c.348-.011.698-.009 1.062 0 .389.009.779.032 1.188.062l.031.062.062.031c.572 5.328-.893 10.668-8.625 12.969-2.471.865-5.005 2.581-7 4.625-.362-.32-1.823-1.749-2.156-2.094 2.083-2.006 3.721-4.285 4.562-6.719 2.271-6.346 5.659-8.774 10.876-8.936zm-18.531 12.688l8.312 8.25-1.031 1-8.312-8.25 1.031-1zm15.719 1.687c1.967.023 3.924.639 5.5 2.281 1.617 1.68 1.634 4.735.25 5.906-2.291 1.958-5.307 1.943-9.344-.094-.255-.115 2.086-.521 2.562-1.406.476-.885.604-2.43-2.156-2.969-2.759-.539-3.878.947-5.188 1.781-.258-.273-1.344-1.314-1.562-1.531 1.149-1.183 5.61-4.018 9.938-3.968zm9.969 8.844c1.115.043 2.281.444 3.125 1.25 5.277 5.025.045 13.652-1.688 15.312-.217-.218-1.287-1.306-1.562-1.562.839-1.303 2.352-2.379 1.812-5.125-.54-2.746-2.111-2.661-3-2.188-.889.473-1.29 2.816-1.406 2.562-2.044-4.02-2.031-7.003-.062-9.281.588-.687 1.665-1.011 2.781-.968zm17.375 1.5a22.1 22.1 0 012.344.062l.031.062.062.031c.572 5.328-.893 10.668-8.625 12.969-2.471.865-5.005 2.581-7 4.625-.362-.32-1.823-1.749-2.156-2.094 2.083-2.006 3.721-4.285 4.562-6.719 2.26-6.319 5.604-8.756 10.782-8.936zm-18.469 12.656l8.312 8.281-1 1-8.312-8.25 1-1.031zm-218.75 1.657c.217.218 1.287 1.306 1.562 1.562-.839 1.303-2.352 2.41-1.812 5.156.54 2.746 2.111 2.63 3 2.156.889-.474 1.29-2.816 1.406-2.562 2.044 4.021 2.031 7.034.062 9.312-1.178 1.376-4.219 1.299-5.906-.312-5.277-5.025-.045-13.652 1.688-15.312zm234.5.062c1.967.023 3.924.639 5.5 2.281 1.617 1.68 1.634 4.735.25 5.906-2.291 1.958-5.307 1.943-9.344-.094-.255-.115 2.086-.521 2.562-1.406.476-.885.604-2.43-2.156-2.969-2.759-.539-3.878.947-5.188 1.781-.258-.273-1.375-1.314-1.594-1.531 1.149-1.184 5.642-4.019 9.97-3.968zm9.937 8.844c1.115.043 2.312.444 3.156 1.25 5.277 5.025.045 13.652-1.688 15.312-.217-.218-1.287-1.306-1.562-1.562.839-1.303 2.352-2.379 1.812-5.125s-2.111-2.661-3-2.188-1.29 2.816-1.406 2.562c-2.044-4.02-2.031-7.003-.062-9.281.589-.687 1.635-1.011 2.75-.968zm17.407 1.5a22.1 22.1 0 012.344.062l.031.062.031.031c.572 5.328-.861 10.668-8.594 12.969-2.471.865-5.005 2.581-7 4.625-.362-.32-1.823-1.749-2.156-2.094 2.083-2.006 3.689-4.285 4.531-6.719 2.26-6.319 5.635-8.756 10.813-8.936zm-252.188 5.375c1.546.012 3.324.513 5.344 1.531.255.115-2.086.521-2.562 1.406-.476.885-.604 2.43 2.156 2.969 2.76.539 3.878-.947 5.188-1.781.258.273 1.344 1.314 1.562 1.531-1.67 1.723-10.392 6.943-15.438 1.688-1.617-1.68-1.634-4.735-.25-5.906 1.146-.979 2.454-1.45 4-1.438zm10.188 2.062l8.312 8.25-1.031 1.031-8.312-8.25 1.031-1.031zm2.031 4.188c.362.32 1.823 1.749 2.156 2.094-2.083 2.006-3.721 4.285-4.562 6.719-2.582 7.223-6.598 9.364-13.125 8.875l-.031-.031-.062-.062c-.572-5.328.893-10.668 8.625-12.969 2.469-.866 5.004-2.582 6.999-4.626zm221.5 1.031l8.312 8.25-1 1.031-8.312-8.25 1-1.031zM32.437 149.25c.217.218 1.318 1.306 1.594 1.562-.839 1.303-2.352 2.41-1.812 5.156.54 2.746 2.08 2.63 2.969 2.156s1.321-2.816 1.438-2.562c2.044 4.02 2 7.003.031 9.281-1.178 1.376-4.188 1.33-5.875-.281-5.279-5.024-.078-13.651 1.655-15.312zm234.531.063c1.967.023 3.893.639 5.469 2.281 1.617 1.68 1.665 4.735.281 5.906-2.291 1.958-5.307 1.943-9.344-.094-.255-.115 2.086-.521 2.562-1.406s.604-2.43-2.156-2.969c-2.76-.539-3.878.947-5.188 1.781-.258-.273-1.375-1.314-1.594-1.531 1.149-1.184 5.642-4.019 9.97-3.968zm9.937 8.812c1.115.043 2.312.476 3.156 1.281 5.278 5.025.045 13.652-1.688 15.312-.217-.218-1.287-1.306-1.562-1.562.839-1.303 2.352-2.41 1.812-5.156s-2.111-2.63-3-2.156c-.806.43-1.25 2.387-1.406 2.562-2.044-4.021-2.031-7.003-.062-9.281.589-.687 1.635-1.042 2.75-1zm17.407 1.532c.74-.025 1.496.002 2.312.062l.062.031.031.062c.572 5.328-.861 10.668-8.594 12.969-2.471.865-5.006 2.581-7 4.625a81.71 81.71 0 01-2.188-2.094c2.083-2.006 3.721-4.285 4.563-6.719 2.261-6.319 5.636-8.757 10.814-8.936zm-252.188 5.375c1.546.012 3.324.513 5.344 1.531.255.115-2.117.521-2.594 1.406-.477.885-.572 2.43 2.188 2.969 2.76.539 3.878-.947 5.188-1.781.258.273 1.344 1.314 1.562 1.531-1.67 1.723-10.392 6.943-15.438 1.688-1.617-1.68-1.665-4.735-.281-5.906 1.145-.979 2.485-1.45 4.031-1.438zm10.188 2.062l8.312 8.25-1.031 1.031-8.312-8.25 1.031-1.031zm2 4.188a81.71 81.71 0 012.188 2.094c-2.083 2.006-3.721 4.285-4.562 6.719-2.582 7.223-6.598 9.364-13.125 8.875l-.062-.062-.031-.031c-.572-5.328.861-10.668 8.594-12.969 2.468-.866 5.002-2.582 6.998-4.626zm221.531 1.031l8.313 8.25-1.031 1.031-8.313-8.25 1.031-1.031zm-218.781 1.656c.217.218 1.318 1.306 1.594 1.562-.839 1.303-2.352 2.379-1.812 5.125.54 2.746 2.08 2.661 2.969 2.188.889-.473 1.321-2.816 1.438-2.562 2.044 4.02 2 7.003.031 9.281-1.178 1.376-4.188 1.33-5.875-.281-5.279-5.026-.078-13.653 1.655-15.313zm234.531.063c1.967.023 3.893.639 5.469 2.281 1.617 1.68 1.664 4.735.281 5.906-2.291 1.958-5.307 1.943-9.344-.094-.256-.115 2.086-.521 2.562-1.406.476-.885.572-2.43-2.188-2.969s-3.879.947-5.188 1.781c-.258-.273-1.344-1.314-1.563-1.531 1.151-1.184 5.643-4.019 9.971-3.968zm9.938 8.812c1.115.043 2.281.476 3.125 1.281 5.277 5.025.076 13.652-1.656 15.312a117.245 117.245 0 00-1.594-1.562c.838-1.303 2.352-2.41 1.812-5.156-.54-2.746-2.079-2.63-2.969-2.156-.889.474-1.322 2.816-1.438 2.562-2.045-4.02-2-7.034-.031-9.312.589-.688 1.636-1.012 2.751-.969zm17.407 1.531c.74-.025 1.496.002 2.312.062l.062.031.03.062c.572 5.328-.86 10.668-8.594 12.969-2.472.865-5.006 2.581-7 4.625a81.71 81.71 0 01-2.188-2.094c2.082-2.006 3.722-4.285 4.562-6.719 2.263-6.318 5.638-8.756 10.816-8.936zM66.749 189.75c1.546.012 3.293.513 5.312 1.531.255.115-2.086.521-2.562 1.406s-.572 2.43 2.188 2.969c2.76.539 3.878-.947 5.188-1.781.258.273 1.344 1.314 1.562 1.531-1.67 1.723-10.392 6.943-15.438 1.688-1.617-1.68-1.665-4.735-.281-5.906 1.145-.979 2.485-1.449 4.031-1.438zm10.188 2.063l8.312 8.25-1.031 1.031-8.312-8.281 1.031-1zm2 4.187a81.71 81.71 0 012.188 2.094c-2.083 2.006-3.721 4.285-4.562 6.719-2.582 7.223-6.598 9.364-13.125 8.875l-.062-.062-.031-.031c-.572-5.328.861-10.668 8.594-12.969 2.468-.866 5.002-2.582 6.998-4.626zm221.531 1.032l8.313 8.25-1.031 1.031-8.313-8.25 1.031-1.031zm-218.781 1.656c.217.218 1.287 1.306 1.562 1.562-.839 1.303-2.352 2.379-1.812 5.125s2.111 2.661 3 2.188c.806-.43 1.25-2.387 1.406-2.562 2.044 4.02 2.031 7.003.062 9.281-1.178 1.376-4.219 1.33-5.906-.281-5.277-5.026-.045-13.653 1.688-15.313zm234.532.062c1.967.023 3.893.639 5.469 2.281 1.617 1.68 1.664 4.704.281 5.875-2.291 1.958-5.338 1.975-9.375-.062-.256-.115 2.117-.521 2.594-1.406.478-.885.572-2.461-2.188-3s-3.879.979-5.188 1.812c-.258-.273-1.345-1.314-1.562-1.531 1.148-1.184 5.641-4.019 9.969-3.969zm9.937 8.813c1.115.043 2.281.476 3.125 1.281 5.277 5.025.076 13.652-1.656 15.312-.217-.218-1.318-1.337-1.594-1.594.838-1.303 2.352-2.379 1.812-5.125s-2.079-2.63-2.969-2.156c-.89.474-1.321 2.816-1.438 2.562-2.045-4.02-2-7.034-.03-9.312.588-.687 1.635-1.011 2.75-.968zm17.375 1.531a22.1 22.1 0 012.344.062l.062.031.03.062c.572 5.328-.893 10.668-8.625 12.969-2.471.865-5.006 2.55-7 4.594a77.875 77.875 0 01-2.155-2.062c2.082-2.006 3.721-4.285 4.562-6.719 2.261-6.32 5.605-8.757 10.782-8.937zm-252.157 5.375c1.546.012 3.293.513 5.312 1.531.255.115-2.086.521-2.562 1.406-.476.885-.572 2.43 2.188 2.969 2.76.539 3.847-.947 5.156-1.781.258.273 1.375 1.314 1.594 1.531-1.67 1.723-10.392 6.943-15.438 1.688-1.617-1.68-1.665-4.735-.281-5.906 1.145-.979 2.485-1.449 4.031-1.438zm10.156 2.063l8.312 8.25-1 1-8.312-8.25 1-1zm2.032 4.187a81.71 81.71 0 012.188 2.094c-2.083 2.006-3.721 4.285-4.562 6.719-2.582 7.223-6.629 9.364-13.156 8.875l-.031-.062-.031-.031c-.572-5.328.861-10.668 8.594-12.969 2.468-.866 5.002-2.582 6.998-4.626zm221.532 1.031l8.312 8.25-1.031 1.031-8.312-8.25 1.031-1.031zm-218.782 1.657c.217.218 1.287 1.306 1.562 1.562-.839 1.303-2.352 2.379-1.812 5.125.54 2.746 2.111 2.63 3 2.156s1.29-2.816 1.406-2.562c2.044 4.02 2.031 7.034.062 9.312-1.178 1.376-4.219 1.33-5.906-.281-5.277-5.025-.045-13.652 1.688-15.312zm234.5.062c1.967.023 3.924.639 5.5 2.281 1.617 1.68 1.633 4.704.25 5.875-2.291 1.958-5.308 1.975-9.345-.062-.256-.115 2.087-.521 2.562-1.406.476-.885.604-2.461-2.156-3-2.76-.539-3.879.979-5.188 1.812-.258-.273-1.344-1.314-1.562-1.531 1.15-1.185 5.611-4.02 9.939-3.969zm9.969 8.813c1.115.043 2.281.476 3.125 1.281 5.277 5.025.045 13.652-1.688 15.312-.217-.218-1.286-1.337-1.562-1.594.838-1.303 2.352-2.379 1.812-5.125-.54-2.746-2.11-2.63-3-2.156-.889.474-1.29 2.816-1.405 2.562-2.045-4.02-2.031-7.034-.062-9.312.587-.687 1.665-1.011 2.78-.968zm17.375 1.531a22.1 22.1 0 012.344.062l.031.031.062.062c.572 5.328-.893 10.637-8.625 12.938-2.471.865-5.006 2.581-7 4.625a77.503 77.503 0 01-2.155-2.094c2.082-2.006 3.721-4.254 4.562-6.688 2.26-6.319 5.604-8.756 10.781-8.936zm-252.157 5.375c1.546.012 3.293.513 5.312 1.531.255.115-2.086.521-2.562 1.406s-.604 2.43 2.156 2.969c2.76.539 3.878-.947 5.188-1.781.258.273 1.375 1.314 1.594 1.531-1.67 1.723-10.392 6.943-15.438 1.688-1.617-1.68-1.665-4.735-.281-5.906 1.145-.979 2.485-1.45 4.031-1.438zm10.156 2.062l8.312 8.25-1 1-8.312-8.25 1-1zm2.032 4.188c.362.32 1.823 1.749 2.156 2.094-2.083 2.006-3.721 4.285-4.562 6.719-2.582 7.223-6.598 9.365-13.125 8.875l-.031-.062-.062-.031c-.572-5.328.893-10.668 8.625-12.969 2.469-.866 5.003-2.582 6.999-4.626zm221.532 1.031l8.281 8.25-1 1.031-8.312-8.281 1.031-1zm-218.782 1.625c.217.218 1.287 1.337 1.562 1.594-.839 1.303-2.352 2.379-1.812 5.125s2.111 2.63 3 2.156c.889-.474 1.29-2.816 1.406-2.562 2.044 4.02 2.031 7.034.062 9.312-1.178 1.376-4.219 1.33-5.906-.281-5.277-5.025-.045-13.684 1.688-15.344zm234.501.094c1.967.023 3.924.639 5.5 2.281 1.617 1.68 1.633 4.704.25 5.875-2.291 1.958-5.307 1.975-9.344-.062-.256-.115 2.086-.521 2.562-1.406.476-.885.604-2.461-2.156-3s-3.879.979-5.188 1.812c-.258-.273-1.345-1.314-1.562-1.531 1.148-1.185 5.609-4.02 9.938-3.969zm9.937 8.812c1.115.043 2.312.476 3.156 1.281 5.277 5.025.045 13.652-1.688 15.312-.217-.218-1.286-1.337-1.562-1.594.838-1.303 2.352-2.379 1.812-5.125s-2.11-2.63-3-2.156c-.889.474-1.29 2.816-1.405 2.562-2.045-4.02-2.031-7.034-.062-9.312.587-.686 1.634-1.01 2.749-.968zm17.406 1.532a22.1 22.1 0 012.344.062l.031.031.062.031c.572 5.328-.893 10.668-8.625 12.969-2.471.865-5.006 2.581-7 4.625a77.503 77.503 0 01-2.155-2.094c2.082-2.006 3.721-4.285 4.562-6.719 2.26-6.319 5.604-8.726 10.781-8.905zm-252.188 5.343c1.546.012 3.324.544 5.344 1.562.255.115-2.086.521-2.562 1.406-.476.885-.604 2.43 2.156 2.969 2.759.539 3.878-.947 5.188-1.781.258.273 1.344 1.314 1.562 1.531-1.67 1.723-10.392 6.943-15.438 1.688-1.617-1.68-1.634-4.735-.25-5.906 1.145-.978 2.454-1.48 4-1.469zm10.187 2.094l8.312 8.25-1.031 1-8.281-8.25 1-1zm2.032 4.188c.362.32 1.823 1.749 2.156 2.094-2.083 2.006-3.721 4.285-4.562 6.719-2.582 7.223-6.598 9.364-13.125 8.875l-.031-.062-.062-.031c-.572-5.328.893-10.668 8.625-12.969 2.469-.866 5.003-2.582 6.999-4.626zm221.5 1.031l8.312 8.25-1 1-8.312-8.25 1-1zm-218.75 1.625c.217.218 1.287 1.337 1.562 1.594-.839 1.303-2.352 2.379-1.812 5.125.54 2.746 2.111 2.63 3 2.156s1.29-2.816 1.406-2.562c2.044 4.02 2.031 7.034.062 9.312-1.178 1.376-4.219 1.33-5.906-.281-5.277-5.026-.045-13.684 1.688-15.344zm234.5.062c1.967.023 3.893.67 5.469 2.312 1.617 1.68 1.664 4.704.281 5.875-2.291 1.958-5.308 1.943-9.345-.094.177-.156 2.132-.604 2.562-1.406.477-.885.604-2.43-2.156-2.969-2.76-.539-3.879.979-5.188 1.812-.258-.273-1.375-1.346-1.594-1.562 1.151-1.183 5.643-4.018 9.971-3.968zm9.938 8.844c1.115.043 2.312.444 3.156 1.25 5.276 5.025.045 13.684-1.688 15.344-.219-.218-1.287-1.337-1.562-1.594.838-1.303 2.352-2.379 1.812-5.125-.54-2.746-2.11-2.63-3-2.156-.889.474-1.291 2.816-1.405 2.562-2.045-4.02-2.031-7.034-.062-9.312.587-.688 1.634-1.012 2.749-.969zm17.406 1.531c.737-.025 1.526.002 2.344.062l.031.031.031.031c.571 5.328-.861 10.668-8.595 12.969-2.471.865-5.006 2.581-7 4.625a81.71 81.71 0 01-2.188-2.094c2.082-2.006 3.721-4.285 4.562-6.719 2.263-6.319 5.638-8.725 10.815-8.905zm-252.188 5.344c1.546.012 3.324.544 5.344 1.562-.049.144-2.115.577-2.562 1.406-.477.885-.604 2.43 2.156 2.969 2.759.539 3.878-.947 5.188-1.781.258.273 1.344 1.314 1.562 1.531-1.67 1.723-10.392 6.912-15.438 1.656-1.617-1.68-1.634-4.704-.25-5.875 1.145-.978 2.454-1.479 4-1.468zm10.187 2.094l8.312 8.25-1.031 1-8.312-8.25 1.031-1zm2.032 4.187c.362.32 1.823 1.749 2.156 2.094-2.083 2.006-3.721 4.285-4.562 6.719-2.582 7.223-6.598 9.333-13.125 8.844l-.062-.031-.031-.031c-.572-5.328.893-10.668 8.625-12.969 2.469-.866 5.003-2.582 6.999-4.626zm221.501 1.032l8.312 8.25-1 1-8.312-8.25 1-1zm-218.783 1.625c.217.218 1.318 1.337 1.594 1.594-.839 1.303-2.352 2.379-1.812 5.125s2.08 2.63 2.969 2.156c.889-.474 1.321-2.816 1.438-2.562 2.044 4.021 2 7.034.031 9.312-1.178 1.377-4.188 1.33-5.875-.281-5.278-5.026-.077-13.684 1.655-15.344zm234.533.062c1.968.023 3.892.67 5.47 2.312 1.617 1.68 1.664 4.704.28 5.875-2.29 1.958-5.307 1.942-9.344-.094.176-.156 2.131-.604 2.562-1.406.477-.885.569-2.43-2.188-2.969-2.76-.539-3.848.947-5.155 1.781-.259-.273-1.375-1.314-1.595-1.531 1.149-1.184 5.641-4.019 9.97-3.968zm9.937 8.844c1.115.045 2.312.444 3.156 1.25 5.276 5.025.045 13.684-1.688 15.344-.219-.217-1.287-1.336-1.562-1.595.838-1.303 2.352-2.379 1.812-5.125-.54-2.745-2.11-2.629-3-2.155-.834.444-1.262 2.514-1.405 2.562-2.046-4.02-2.033-7.034-.062-9.312.587-.689 1.634-1.013 2.749-.969zm18.531 1.5c.383.004.778.032 1.188.062l.062.062.031.03c.571 5.328-.861 10.669-8.595 12.968-2.471.865-5.006 2.582-7 4.625a77.237 77.237 0 01-2.188-2.094c2.082-2.006 3.721-4.285 4.562-6.719 2.26-6.319 5.635-8.726 10.812-8.906.372-.009.743-.031 1.128-.028zm-253.313 5.374c1.546.012 3.324.545 5.344 1.562-.049.145-2.146.578-2.594 1.406-.477.885-.572 2.43 2.188 2.969 2.759.539 3.878-.979 5.188-1.812.258.272 1.344 1.346 1.562 1.562-1.67 1.723-10.392 6.912-15.438 1.656-1.617-1.681-1.665-4.703-.281-5.875 1.145-.977 2.485-1.479 4.031-1.468zm10.187 2.094l8.312 8.25-1.031 1-8.312-8.25 1.031-1zm2 4.188c.362.322 1.854 1.75 2.188 2.094-2.083 2.007-3.721 4.285-4.562 6.72-2.582 7.223-6.598 9.334-13.125 8.844l-.062-.031-.031-.03c-.572-5.328.861-10.669 8.594-12.97 2.469-.867 5.003-2.582 6.998-4.627zm221.532 1.031l8.312 8.25-1.031 1-8.312-8.25 1.031-1zM204.78 322.25c.217.219 1.318 1.338 1.594 1.594-.839 1.304-2.352 2.379-1.812 5.125s2.08 2.631 2.969 2.156c.889-.473 1.321-2.816 1.438-2.562 2.044 4.021 2 7.035.031 9.312-1.178 1.377-4.188 1.299-5.875-.312-5.278-5.026-.077-13.651 1.655-15.313zm234.532.062c1.967.022 3.891.639 5.469 2.28 1.617 1.681 1.664 4.736.281 5.906-2.291 1.959-5.308 1.943-9.345-.094-.256-.115 2.086-.521 2.562-1.406.476-.885.569-2.43-2.188-2.969-2.76-.539-3.879.946-5.188 1.78-.258-.272-1.344-1.313-1.562-1.53 1.151-1.181 5.643-4.017 9.971-3.967zm9.938 8.844c1.115.045 2.281.444 3.125 1.25 5.277 5.024.076 13.684-1.656 15.344-.219-.217-1.317-1.336-1.594-1.594.838-1.304 2.352-2.379 1.812-5.125-.54-2.746-2.08-2.629-2.97-2.156-.889.475-1.321 2.816-1.438 2.562-2.045-4.021-2.002-7.033-.031-9.312.59-.687 1.637-1.012 2.752-.969zm17.469 1.5a20.887 20.887 0 012.25.062l.062.062.031.03c.571 5.328-.861 10.669-8.595 12.97-2.471.864-5.006 2.582-7 4.625a78.707 78.707 0 01-2.188-2.095c2.082-2.006 3.721-4.284 4.562-6.719 2.272-6.345 5.659-8.773 10.878-8.935zm-252.251 5.375c1.546.012 3.293.514 5.312 1.531.255.116-2.086.521-2.562 1.405-.476.886-.572 2.461 2.188 3 2.759.539 3.878-.979 5.188-1.812.258.272 1.344 1.313 1.562 1.531-1.67 1.723-10.392 6.942-15.438 1.688-1.617-1.68-1.665-4.703-.281-5.875 1.145-.978 2.485-1.479 4.031-1.468zm10.187 2.063l8.312 8.281-1.031 1-8.312-8.25 1.031-1.031zm2 4.218a84.99 84.99 0 012.188 2.094c-2.083 2.006-3.721 4.254-4.562 6.688-2.582 7.224-6.598 9.365-13.125 8.875l-.062-.031-.031-.062c-.572-5.328.861-10.637 8.594-12.938 2.469-.866 5.003-2.581 6.998-4.626zm221.533 1.032l8.312 8.25-1.031 1-8.312-8.25 1.031-1zm-218.783 1.625c.217.219 1.287 1.338 1.562 1.594-.839 1.304-2.352 2.38-1.812 5.125.54 2.746 2.111 2.632 3 2.156.812-.432 1.252-2.41 1.406-2.562 2.044 4.021 2.031 7.035.062 9.312-1.178 1.377-4.219 1.299-5.906-.312-5.277-5.026-.044-13.651 1.688-15.313zm234.533.062c1.968.022 3.892.639 5.47 2.281 1.617 1.68 1.664 4.735.28 5.905-2.291 1.959-5.338 1.943-9.375-.094-.256-.115 2.117-.521 2.595-1.406.477-.885.569-2.43-2.188-2.969-2.76-.539-3.879.947-5.188 1.781-.258-.273-1.344-1.314-1.562-1.531 1.147-1.182 5.639-4.018 9.968-3.967zm9.937 8.844c1.115.045 2.281.445 3.125 1.25 5.277 5.025.076 13.652-1.656 15.312a123.346 123.346 0 00-1.594-1.562c.838-1.303 2.352-2.379 1.812-5.125-.54-2.746-2.111-2.629-3-2.156-.89.476-1.291 2.816-1.406 2.562-2.045-4.021-2.002-7.033-.031-9.312.588-.688 1.635-1.012 2.75-.969zm17.375 1.5c.738-.025 1.527.002 2.344.062l.031.062.062.031c.571 5.328-.894 10.668-8.625 12.969-2.472.865-5.007 2.582-7 4.625-.363-.32-1.824-1.748-2.156-2.094 2.082-2.006 3.721-4.285 4.562-6.72 2.261-6.316 5.604-8.755 10.782-8.935zm-252.157 5.375c1.546.012 3.293.514 5.312 1.531.255.117-2.086.521-2.562 1.406-.476.885-.604 2.461 2.156 3 2.759.538 3.878-.979 5.188-1.812.258.273 1.375 1.314 1.594 1.531-1.67 1.723-10.392 6.942-15.438 1.688-1.617-1.68-1.665-4.703-.281-5.875 1.145-.979 2.485-1.481 4.031-1.469zm10.156 2.062l8.312 8.25-1 1.03-8.312-8.25 1-1.03zm2.031 4.219c.362.321 1.823 1.75 2.156 2.094-2.083 2.006-3.689 4.254-4.531 6.688-2.582 7.224-6.629 9.365-13.156 8.875l-.031-.03-.031-.062c-.572-5.328.861-10.668 8.594-12.969 2.47-.867 5.004-2.551 6.999-4.596zm221.532 1.031l8.312 8.25-1.031 1-8.312-8.25 1.031-1zm-218.782 1.626c.217.22 1.287 1.339 1.562 1.595-.839 1.303-2.352 2.379-1.812 5.125.54 2.746 2.111 2.631 3 2.155.889-.473 1.29-2.815 1.406-2.562 2.044 4.021 2.031 7.035.062 9.312-1.178 1.378-4.219 1.3-5.906-.312-5.277-5.026-.044-13.651 1.688-15.313zm234.501.062c1.967.023 3.922.639 5.5 2.281 1.617 1.68 1.633 4.735.25 5.906-2.291 1.959-5.308 1.942-9.344-.095-.257-.114 2.086-.521 2.562-1.405.476-.886.602-2.431-2.156-2.97-2.76-.539-3.879.947-5.188 1.781-.258-.273-1.345-1.314-1.562-1.531 1.149-1.182 5.61-4.018 9.938-3.967zm9.969 8.844c1.115.045 2.281.445 3.125 1.25 5.277 5.025.045 13.652-1.688 15.312-.22-.217-1.287-1.306-1.562-1.562.838-1.303 2.352-2.379 1.812-5.125-.54-2.746-2.111-2.66-3-2.188-.89.475-1.291 2.815-1.406 2.562-2.045-4.02-2.033-7.002-.062-9.28.588-.688 1.666-1.012 2.781-.969zm17.375 1.5c.738-.024 1.527.002 2.344.062l.031.062.062.031c.571 5.328-.894 10.668-8.625 12.969-2.472.865-5.007 2.582-7 4.625-.363-.319-1.824-1.748-2.156-2.094 2.082-2.006 3.721-4.285 4.562-6.719 2.261-6.317 5.604-8.757 10.782-8.936zm-252.188 5.375c1.546.013 3.324.515 5.344 1.531.255.117-2.086.521-2.562 1.406-.476.885-.604 2.461 2.156 3 2.759.539 3.878-.979 5.188-1.812.258.273 1.344 1.314 1.562 1.531-1.67 1.723-10.392 6.943-15.438 1.688-1.617-1.68-1.634-4.702-.25-5.875 1.145-.979 2.454-1.481 4-1.469zm10.187 2.062l8.312 8.25-1 1.031-8.312-8.25 1-1.031zm2.031 4.188c.362.322 1.823 1.75 2.156 2.094-2.083 2.007-3.721 4.285-4.562 6.72-2.582 7.223-6.598 9.364-13.125 8.875l-.031-.031-.062-.062c-.572-5.328.893-10.669 8.625-12.97 2.47-.866 5.004-2.581 6.999-4.626zm221.533 1.031l8.281 8.281-1 1-8.312-8.25 1.031-1.031zm-218.783 1.656c.217.219 1.287 1.307 1.562 1.562-.839 1.304-2.352 2.41-1.812 5.156.54 2.746 2.111 2.631 3 2.156.889-.474 1.29-2.816 1.407-2.562 2.043 4.021 2.031 7.035.062 9.312-1.178 1.377-4.219 1.299-5.907-.312-5.277-5.025-.044-13.65 1.688-15.312zm234.501.063c1.967.023 3.922.64 5.5 2.281 1.617 1.68 1.633 4.736.25 5.906-2.291 1.959-5.308 1.942-9.344-.094-.257-.115 2.086-.521 2.562-1.406s.602-2.431-2.156-2.969c-2.76-.539-3.879.946-5.188 1.78-.258-.272-1.345-1.313-1.562-1.53 1.149-1.183 5.61-4.019 9.938-3.968zm9.938 8.812c1.115.045 2.312.477 3.156 1.281 5.277 5.024.045 13.651-1.688 15.312-.22-.217-1.287-1.305-1.562-1.562.838-1.304 2.352-2.38 1.812-5.125-.54-2.746-2.111-2.66-3-2.188-.89.475-1.291 2.816-1.406 2.562-2.045-4.02-2.033-7.002-.062-9.28.588-.687 1.635-1.043 2.75-1zm17.406 1.531c.738-.025 1.527.002 2.344.062l.031.062.062.031c.571 5.328-.894 10.668-8.625 12.969-2.472.865-5.007 2.582-7 4.625-.363-.319-1.824-1.747-2.156-2.094 2.082-2.006 3.721-4.285 4.562-6.719 2.261-6.316 5.604-8.756 10.782-8.936zm-252.188 5.376c1.545.013 3.324.515 5.344 1.531.254.117-2.086.521-2.562 1.406-.476.885-.604 2.43 2.156 2.969s3.877-.946 5.188-1.781c.258.273 1.344 1.314 1.562 1.531-1.67 1.724-10.393 6.943-15.438 1.688-1.617-1.681-1.635-4.734-.25-5.906 1.145-.98 2.453-1.45 4-1.438zm10.188 2.062l8.312 8.25-1.03 1.031-8.313-8.25 1.031-1.031zm2.031 4.188c.361.322 1.822 1.75 2.156 2.095-2.084 2.006-3.722 4.285-4.563 6.719-2.582 7.223-6.598 9.365-13.125 8.875l-.031-.031-.062-.062c-.572-5.328.893-10.668 8.625-12.969 2.47-.868 5.004-2.583 7-4.627zm221.5 1.031l8.312 8.25-1 1.031-8.312-8.25 1-1.031zm-218.75 1.656c.217.219 1.287 1.307 1.562 1.562-.84 1.303-2.352 2.409-1.812 5.155.539 2.746 2.111 2.631 3 2.156.889-.473 1.289-2.816 1.406-2.562 2.043 4.021 2 7.004.03 9.28-1.178 1.377-4.188 1.33-5.875-.28-5.276-5.024-.043-13.649 1.689-15.311zm234.5.063c1.967.023 3.891.64 5.469 2.281 1.617 1.681 1.664 4.736.281 5.906-2.291 1.959-5.308 1.943-9.344-.094-.257-.115 2.086-.521 2.562-1.406s.602-2.43-2.156-2.969c-2.76-.539-3.879.946-5.188 1.781-.258-.273-1.375-1.314-1.595-1.531 1.151-1.183 5.643-4.019 9.971-3.968zm9.938 8.812c1.115.045 2.312.477 3.156 1.281 5.277 5.024.045 13.651-1.688 15.312-.22-.217-1.287-1.305-1.562-1.562.838-1.304 2.352-2.41 1.812-5.156-.54-2.746-2.111-2.629-3-2.156-.808.431-1.25 2.388-1.406 2.562-2.045-4.021-2.033-7.002-.062-9.281.588-.688 1.635-1.043 2.75-1zm-234.781 6.906c1.545.012 3.324.514 5.345 1.531.254.116-2.117.521-2.595 1.405-.477.886-.571 2.431 2.188 2.97 2.758.538 3.877-.947 5.188-1.781.258.272 1.344 1.313 1.562 1.531-1.67 1.723-10.394 6.942-15.438 1.688-1.617-1.68-1.635-4.734-.25-5.906 1.144-.979 2.453-1.449 4-1.438zm10.187 2.063l8.312 8.25-1.031 1.031-8.312-8.25 1.031-1.031zm2 4.187c.361.321 1.854 1.75 2.188 2.094-2.084 2.006-3.721 4.285-4.562 6.719-2.582 7.224-6.599 9.365-13.125 8.875l-.062-.062-.031-.031c-.572-5.328.893-10.668 8.625-12.969 2.469-.866 4.971-2.581 6.967-4.626zm2.75 2.688c.217.219 1.318 1.308 1.594 1.562-.84 1.303-2.352 2.379-1.812 5.125s2.079 2.662 2.969 2.188c.89-.473 1.319-2.815 1.438-2.562 2.043 4.021 2 7.004.03 9.28-1.178 1.378-4.188 1.33-5.875-.28-5.278-5.026-.076-13.651 1.656-15.313zm9.687 15.781c1.545.012 3.293.514 5.312 1.531.254.117-2.086.521-2.562 1.406-.477.885-.572 2.43 2.188 2.969s3.877-.947 5.188-1.781c.258.273 1.345 1.314 1.562 1.531-1.67 1.723-10.393 6.942-15.438 1.688-1.617-1.68-1.666-4.733-.281-5.906 1.145-.979 2.485-1.45 4.031-1.438zm10.188 2.063l8.312 8.25-1.031 1.031-8.312-8.281 1.031-1zm2 4.187c.361.322 1.854 1.75 2.188 2.094-2.084 2.006-3.721 4.285-4.562 6.719-2.582 7.224-6.599 9.365-13.125 8.875l-.062-.062-.031-.031c-.572-5.328.861-10.668 8.594-12.969 2.469-.866 5.002-2.581 6.998-4.626zm2.75 2.687a106.5 106.5 0 001.594 1.562c-.84 1.303-2.352 2.379-1.812 5.125s2.079 2.662 2.969 2.188 1.319-2.816 1.438-2.562c2.043 4.021 2 7.004.03 9.281-1.178 1.377-4.188 1.33-5.875-.281-5.278-5.025-.076-13.65 1.656-15.313zm9.688 15.782c1.545.013 3.293.515 5.312 1.531.254.117-2.086.521-2.562 1.406-.476.885-.571 2.43 2.188 2.969s3.847-.947 5.156-1.781c.258.273 1.375 1.314 1.594 1.531-1.67 1.723-10.394 6.943-15.438 1.688-1.617-1.68-1.666-4.733-.28-5.905 1.143-.98 2.483-1.451 4.03-1.439zm10.187 2.062l8.281 8.25-1 1-8.312-8.25 1.031-1zm2 4.188c.361.322 1.854 1.75 2.188 2.094-2.084 2.007-3.721 4.285-4.562 6.72-2.582 7.223-6.629 9.364-13.156 8.875l-.03-.062-.031-.03c-.572-5.328.861-10.669 8.594-12.97 2.468-.867 5.001-2.582 6.997-4.627zm2.75 2.687c.217.219 1.287 1.307 1.562 1.562-.84 1.304-2.353 2.379-1.812 5.125s2.111 2.631 3 2.156c.834-.443 1.262-2.512 1.406-2.562 2.043 4.021 2.031 7.034.062 9.312-1.178 1.377-4.219 1.33-5.905-.281-5.278-5.025-.045-13.65 1.687-15.312zm9.687 15.75c1.545.012 3.293.545 5.312 1.562.254.117-2.086.521-2.562 1.406-.477.885-.604 2.43 2.155 2.969 2.761.539 3.878-.946 5.188-1.78.258.272 1.375 1.313 1.594 1.53-1.67 1.724-10.393 6.943-15.438 1.688-1.617-1.681-1.666-4.734-.281-5.906 1.146-.979 2.486-1.48 4.032-1.469zm10.157 2.094l8.312 8.25-1 1-8.312-8.25 1-1zm2.031 4.187a85.28 85.28 0 012.156 2.094c-2.084 2.006-3.689 4.285-4.531 6.719-2.582 7.223-6.629 9.365-13.156 8.875l-.031-.062-.062-.03c-.571-5.328.894-10.668 8.625-12.97 2.47-.866 5.003-2.581 6.999-4.626zm2.75 2.657c.217.219 1.287 1.338 1.562 1.594-.841 1.304-2.353 2.38-1.812 5.125.54 2.746 2.111 2.632 3 2.156.889-.473 1.289-2.815 1.406-2.562 2.043 4.021 2.031 7.035.062 9.312-1.178 1.377-4.221 1.33-5.905-.281-5.278-5.026-.045-13.682 1.687-15.344zm9.656 15.781c1.545.012 3.324.545 5.344 1.562.254.116-2.086.521-2.562 1.405-.476.886-.604 2.431 2.156 2.97 2.758.538 3.877-.947 5.188-1.781.258.272 1.344 1.313 1.562 1.531-1.67 1.723-10.393 6.942-15.438 1.688-1.617-1.68-1.635-4.734-.25-5.906 1.145-.979 2.453-1.481 4-1.469zm10.188 2.094l8.312 8.25-1 1-8.312-8.25 1-1zm2.031 4.187c.361.322 1.822 1.75 2.156 2.094-2.084 2.006-3.722 4.285-4.562 6.719-2.582 7.224-6.598 9.365-13.125 8.875l-.031-.062-.063-.032c-.572-5.328.893-10.668 8.625-12.969 2.469-.865 5.004-2.58 7-4.625zm2.75 2.657c.217.22 1.287 1.339 1.562 1.595-.841 1.303-2.353 2.379-1.812 5.125s2.111 2.631 3 2.155c.889-.473 1.289-2.815 1.406-2.562 2.043 4.021 2.031 7.035.062 9.312-1.178 1.378-4.221 1.33-5.905-.28-5.278-5.027-.045-13.683 1.687-15.345zm9.656 15.781c1.545.013 3.324.545 5.344 1.562-.051.145-2.115.578-2.562 1.406-.477.885-.604 2.43 2.156 2.969 2.758.539 3.877-.979 5.188-1.812.258.273 1.344 1.347 1.562 1.562-1.67 1.723-10.393 6.912-15.438 1.656-1.617-1.681-1.635-4.703-.25-5.875 1.145-.978 2.453-1.48 4-1.468z" />
	<path fill="#FFF" d="M1.951 73.648l472.246 469.904c26.533-26.155 35.957-37.574 57.901-68.533L62.967 1.736l-61.468.452.452 71.46z" />
	<path fill="none" d="M-.001 0H600v660H-.001z" />
	<g fill="#FCEF3C" text-anchor="middle"><text x="400" y="100" alignment-baseline="middle" font-family="Fenwick, serif" font-size="160">TSG</text><text x="480" y="220" alignment-baseline="middle" font-family="Warwick, cursive" font-size="96">1354</text><text x="200" y="420" alignment-baseline="middle" font-family="Malvern, serif" font-size="120" transform="rotate(45 160 386.274)">Elsaß</text></g>
	<path fill="none" stroke="#640000" stroke-width="2" d="M300 657.405s297.505-111.946 297.505-396.446V3.269H2.495v257.69C2.495 545.459 300 657.405 300 657.405z" />
</svg>