<svg xmlns="http://www.w3.org/2000/svg" width="350" height="725" version="1.0">
   <defs>
      <linearGradient id="prefix__a">
         <stop offset="0" stop-color="#c13c1b" />
         <stop offset=".839" stop-color="#c13c1b" stop-opacity=".498" />
         <stop offset="1" stop-color="#c13c1b" stop-opacity="0" />
      </linearGradient>
   </defs>
   <path d="M280.202 502.27l-.318 12.766c.095 18.354.582 37.828 4.31 51.274l19.963 148.684 11.499-1.278c-8.626-49.764-10.434-98.164-15.651-147.246-3.143-32.218-9.812-23.014-19.803-64.2z" fill="#fac53a" fill-rule="evenodd" stroke="#c13c1b" stroke-width=".447" />
   <path d="M312.535 215.725h-31.168M313.1 225.098l-31.281.452" fill="none" stroke="#000" stroke-width=".224" />
   <path d="M228.352 152.757l41.094.725c20.048 6.358 36.046 13.866 42.271 35.687 2.247 12.548.185 16.995.958 26.51l.64 9.902c1.375 21.36 1.94 42.881.319 64.84-1.3 19.058 2.79 39.393 3.194 58.451-.65 15.98-4.526 27.832-5.27 41.802l-19.963-1.557c-9.165-51.642-3.87-68.542-6.07-92.308-3.329-28.994-3.34-57.158-4.47-85.601-12.308 22.203-25.183 43.65-32.26 72.825v4.83l6.707 30.943c3.599 5.05 13.915 27.967 6.425 41.033 8.548 50.04 12.586 101.21 12.1 151.25l.639 16.29c1.359 22.188 10.28 44.385 9.902 68.672-.379 24.286-4.753 48.055-7.985 71.228-1.225 26.723 2.466 31.469 1.542 41.216-.925 9.747-6.374 9.3-11.929 9.238-5.661-.064-11.155-1.022-11.35-4.753-5.847-1.641-14.099 5.103-74.744 2.753-2.625-.355-2.82-4.215-3.061-6.954 2.703-.739 5.507-1.08 8.51-.616 20.167-9.857 39.982-14.088 60.688-32.58.98-1.015 1.806-2.378 1.597-6.069-2.61-36.559-10.567-74.511-13.735-111.153l-.958-5.75c-2.8-7.155-5.28-16.23-8.624-20.122-1.356-7.453-1.918-14.906-6.707-22.358l-15.445-.32c-7.01 19.799-7.96 27.846-12.137 41.204-3.255 19.539-.337 27.836-4.998 43.439-4.7 15.732-14.744 36.154-22.678 51.424-4.863 13.104-11.56 26.94-13.787 39.048-.638 7.799.657 13.822-.267 23.569-.925 9.747-6.374 9.3-11.929 9.238-5.661-.064-11.155-1.022-11.35-4.753-5.847-1.641-14.1 5.103-74.744 2.753-2.625-.355-2.82-4.215-3.061-6.954 2.703-.739 5.506-1.08 8.51-.616 20.167-9.857 45.412-15.366 66.09-33.857 1.996-2.231 2.632-4.688 3.394-7.124l23.41-112.973c.03-11.445-1.42-22.32 3.833-35.774l.32-8.943 19.313-176.705-2.146-7.473c-2.74-6.323-.786-13.02-.878-18.965-2.294-17.819-5.918-35.305-9.902-52.702-2.522-5.868-4.853-12.923-6.73-20.336-1.852-.72-2.397-2.773-1.12-4.713-1.258-5.654-2.228-11.412-2.798-16.923l-.85-.19-1.266 11.419c-.493 2.768-.41 5.493-.886 8.214-3.565 20.347-7.244 40.435-19.633 76.335l-4.115 9.023c-9.33 27.023-22.97 47.983-37.112 68.237l-17.616-12.692c10.18-25.168 17.348-51.299 32.714-74.81l2.745-6.663c1.082-19.522 3.508-47.032 8.72-68.61l2.04-16.934c-5.78-26.758 6.661-44.61 30.373-48.573l38.532-7.868" fill="#a13c2a" fill-rule="evenodd" stroke="#000" stroke-width=".447" stroke-linecap="round" stroke-linejoin="round" />
   <path d="M282.902 512.925c-.462-2.725-1.684-5.658-2.078-8.808-4.419-35.373-5.084-95.82-15.6-142.177 3.038-8.426 1.85-17.998-.413-25.97-2.234-7.873-5.408-14.022-7.036-16.336-1.176-5.506-4.645-21.837-5.848-33.398a1.118 1.118 0 00-1.132-1.02h0a1.118 1.118 0 00-1.09 1.25c1.236 11.878 4.776 28.44 5.925 33.817.034.155.1.3.196.427 1.188 1.622 4.614 8.048 6.833 15.867 2.219 7.82 3.293 17.123.363 24.923-.075.203-.09.424-.042.636 8.845 38.783 10.769 87.802 13.857 123.684.9 10.46 2.818 19.925 3.199 27.454" fill="#fac53a" fill-rule="evenodd" stroke="#000" stroke-width=".224" stroke-linecap="round" stroke-linejoin="round" />
   <path d="M152.756 511.546l17.41-176.965 91.416-.922c1.197 4.863 6.217 14.815.479 27.469 7.904 49.98 12.826 100.614 11.76 150.294l-121.065.124z" fill="#fff" fill-rule="evenodd" stroke="#000" stroke-width=".447" />
   <path d="M273.814 511.772c-93.566-15.728-110.626-86.262-103.648-177.191l85.233-15.066c8.086 13.446 12.767 31.726 6.69 41.557 7.923 50.096 12.82 100.904 11.725 150.7z" fill="#fac53a" fill-rule="evenodd" stroke="#000" stroke-width=".224" />
   <path d="M150.052 156.312l34.005-6.8 48.13-3.838 37.06 7.662c-6.965 35.15-30.802 47.718-58.419 48.331-26.157.578-38.373-6.14-46.913-15.21-8.118-8.621-12.43-22.146-13.863-30.145z" fill="#fff" fill-rule="evenodd" stroke="#000" stroke-linecap="round" stroke-linejoin="round" stroke-width=".28101" />
   <path d="M164.257 153.469c5.126 25.349 19.913 34.74 47.165 33.668 27.319-1.075 40.916-18.61 42.582-35.632-.008-.23-.016-.567.12-1.167" style="marker:none" color="#000" fill="none" stroke="#04a" stroke-width="5.0075981999999994" stroke-linejoin="round" overflow="visible" />
   <path d="M177.224 151.042c4.986 19.287 15.881 23.47 33.669 22.78 16.62-.642 29.473-11.535 29.35-25.2-.044-.52.028-.876.105-1.172" style="marker:none" color="#000" fill="none" stroke="#308d57" stroke-width="3.07284435" overflow="visible" />
   <path d="M168.726 152.864c3.746 17.753 13.169 31.022 42.367 29.743 25.416-1.113 37.61-18.306 38.098-32.673-.016-.065-.017-.368.047-.671" style="marker:none" color="#000" fill="none" stroke="#c13c1b" stroke-width="3.07284435" overflow="visible" />
   <path d="M181.452 150.094c2.524 8.42 5.342 21.008 29.431 19.185 15.782-1.195 24.122-10.606 24.718-19.386.048-.998.042-3.214.162-3.505" style="marker:none" color="#000" fill="none" stroke="#04a" stroke-width="4.50683838" overflow="visible" />
   <path d="M172.869 151.792c5.043 23.978 22.839 27.38 38.493 26.45 21.266-1.27 32.708-14.438 33.297-28.377.019-.255.014-1.21.136-1.597" style="marker:none" color="#000" fill="none" stroke="#04a" stroke-width="4.50683838" overflow="visible" />
   <path d="M155.784 155.324c5.57 26.908 20.577 41.575 54.528 40.367l.4-.015h.012c45.065-1.763 50.766-35.5 52.401-43.355" style="marker:none" color="#000" fill="none" stroke="#fac53a" stroke-width="11.2404" overflow="visible" />
   <path d="M150.052 156.312l34.005-6.8 48.13-3.838 37.06 7.662c-6.965 35.15-30.802 47.718-58.419 48.331-26.157.578-38.373-6.14-46.913-15.21-8.118-8.621-12.43-22.146-13.863-30.145z" fill="none" stroke="#000" stroke-width=".56202" stroke-linecap="round" stroke-linejoin="round" />
   <g fill="none" stroke="#c13c1b">
      <path d="M223.98 196.775c-.653-1.992-.256-5.498.266-7.796 1.629 1.657 3.891 4.424 4.462 6.308 1.098 3.621-3.618 4.874-4.729 1.488z" stroke-width=".28101" />
      <path d="M224.59 196.534c-.483-1.475-.192-4.071.19-5.772 1.204 1.228 2.875 3.279 3.298 4.674.813 2.682-2.665 3.606-3.488 1.098z" stroke-width=".28101" />
      <path style="marker:none" d="M224.583 196.46a2.766 2.766 0 011.515-1.192c.842-.259 1.413-.1 1.888.111M224.42 193.793c.248-.313.795-.618 1.064-.697.292-.085.912-.062 1.197.017" color="#000" stroke-linecap="round" stroke-linejoin="round" overflow="visible" stroke-width=".28101" />
   </g>
   <g fill="none" stroke="#c13c1b">
      <path d="M218.072 197.673c-.457-2.046.279-5.497 1.02-7.733 1.461 1.806 3.445 4.779 3.83 6.71.742 3.71-4.073 4.5-4.85 1.023z" stroke-width=".28101" />
      <path d="M218.703 197.492c-.338-1.515.203-4.07.748-5.726 1.08 1.339 2.545 3.541 2.83 4.97.55 2.75-3.002 3.332-3.578.756z" stroke-width=".28101" />
      <path style="marker:none" d="M218.703 197.418c.212-.29.761-.863 1.624-1.04.863-.176 1.415.037 1.868.294M218.799 194.747c.277-.287.851-.538 1.127-.59.298-.057.913.026 1.19.132" color="#000" stroke-linecap="round" stroke-linejoin="round" overflow="visible" stroke-width=".28101" />
   </g>
   <g fill="none" stroke="#c13c1b">
      <path d="M230.004 195.154c-.847-1.918-.8-5.446-.509-7.784 1.786 1.487 4.312 4.015 5.067 5.833 1.452 3.494-3.116 5.21-4.558 1.95z" stroke-width=".28101" />
      <path d="M230.588 194.853c-.627-1.42-.596-4.032-.384-5.762 1.32 1.102 3.187 2.976 3.746 4.323 1.076 2.588-2.294 3.853-3.362 1.439z" stroke-width=".28101" />
      <path style="marker:none" d="M230.574 194.78a2.766 2.766 0 011.39-1.336c.811-.342 1.394-.24 1.889-.077M230.146 192.142c.216-.336.73-.694.99-.799.282-.114.901-.152 1.193-.102" color="#000" stroke-linecap="round" stroke-linejoin="round" overflow="visible" stroke-width=".28101" />
   </g>
   <g fill="none" stroke="#c13c1b">
      <path d="M206.22 198.212c-.037-2.096 1.375-5.33 2.549-7.372 1.07 2.062 2.418 5.372 2.409 7.34-.016 3.785-4.892 3.595-4.957.032z" stroke-width=".28101" />
      <path d="M206.875 198.161c-.027-1.552 1.014-3.948 1.88-5.46.79 1.528 1.784 3.979 1.777 5.437-.012 2.803-3.608 2.662-3.657.023z" stroke-width=".28101" />
      <path d="M206.89 198.088a2.766 2.766 0 011.8-.693c.88 0 1.378.32 1.77.662M207.519 195.49c.329-.225.942-.355 1.222-.352.304.004.89.209 1.14.369" style="marker:none" color="#000" stroke-linecap="round" stroke-linejoin="round" overflow="visible" stroke-width=".28101" />
   </g>
   <g fill="none" stroke="#c13c1b">
      <path d="M200.511 198.113c.045-2.096 1.583-5.272 2.837-7.267.987 2.104 2.204 5.464 2.118 7.43-.165 3.781-5.03 3.4-4.955-.163z" stroke-width=".28101" />
      <path d="M201.168 198.088c.033-1.552 1.168-3.905 2.093-5.382.728 1.557 1.625 4.046 1.561 5.502-.122 2.8-3.71 2.518-3.654-.12z" stroke-width=".28101" />
      <path style="marker:none" d="M201.185 198.016c.275-.231.945-.657 1.825-.622.88.034 1.366.373 1.744.73M201.915 195.445c.338-.213.956-.32 1.236-.304.303.016.88.243 1.124.412" color="#000" stroke-linecap="round" stroke-linejoin="round" overflow="visible" stroke-width=".28101" />
   </g>
   <g fill="none" stroke="#c13c1b">
      <path d="M212.199 198.18c-.272-2.078.769-5.45 1.707-7.61 1.294 1.93 3.004 5.067 3.216 7.024.407 3.763-4.46 4.12-4.923.587z" stroke-width=".28101" />
      <path d="M212.844 198.057c-.201-1.54.565-4.037 1.257-5.637.955 1.43 2.217 3.755 2.374 5.204.302 2.787-3.288 3.05-3.631.433z" stroke-width=".28101" />
      <path style="marker:none" d="M212.85 197.983c.238-.27.835-.792 1.71-.89.876-.1 1.407.163 1.835.459M213.184 195.331c.302-.26.897-.46 1.176-.487.302-.03.907.108 1.173.238" color="#000" stroke-linecap="round" stroke-linejoin="round" overflow="visible" stroke-width=".28101" />
   </g>
   <g fill="none" stroke="#c13c1b">
      <path d="M161.523 177.46c1.73-1.183 5.208-1.783 7.56-1.926-1.135 2.028-3.158 4.974-4.807 6.05-3.17 2.067-5.692-2.11-2.753-4.123z" stroke-width=".28101" />
      <path d="M161.926 177.98c1.281-.877 3.855-1.325 5.594-1.434-.842 1.5-2.342 3.678-3.563 4.475-2.348 1.531-4.208-1.55-2.031-3.042z" stroke-width=".28101" />
      <path d="M161.995 177.952c.348.089 1.084.385 1.569 1.121.484.736.491 1.328.421 1.843M164.51 177.048c.37.15.816.591.967.827.163.256.315.858.319 1.154" style="marker:none" color="#000" stroke-linecap="round" stroke-linejoin="round" overflow="visible" stroke-width=".28101" />
   </g>
   <g fill="none" stroke="#c13c1b">
      <path d="M158.805 172.554c1.837-1.008 5.357-1.264 7.711-1.176-1.328 1.907-3.63 4.64-5.376 5.55-3.357 1.746-5.458-2.658-2.335-4.374z" stroke-width=".28101" />
      <path d="M159.155 173.11c1.36-.747 3.966-.94 5.707-.877-.985 1.41-2.691 3.43-3.985 4.103-2.486 1.294-4.036-1.955-1.722-3.226z" stroke-width=".28101" />
      <path style="marker:none" d="M159.226 173.09c.337.122 1.041.49 1.45 1.269.41.78.36 1.37.24 1.876M161.818 172.437c.352.186.753.668.88.918.138.27.23.884.205 1.18" color="#000" stroke-linecap="round" stroke-linejoin="round" overflow="visible" stroke-width=".28101" />
   </g>
   <g fill="none" stroke="#c13c1b">
      <path d="M164.834 182.183c1.535-1.426 4.886-2.535 7.19-3.024-.822 2.174-2.386 5.387-3.857 6.694-2.829 2.515-5.942-1.242-3.333-3.67z" stroke-width=".28101" />
      <path d="M165.309 182.637c1.137-1.057 3.616-1.88 5.32-2.246-.61 1.608-1.772 3.985-2.861 4.953-2.095 1.862-4.392-.91-2.46-2.707z" stroke-width=".28101" />
      <path d="M165.373 182.6c.357.036 1.13.22 1.717.876.588.656.683 1.24.69 1.76M167.727 181.333c.387.095.894.464 1.078.675.2.23.439.802.487 1.094" style="marker:none" color="#000" stroke-linecap="round" stroke-linejoin="round" overflow="visible" stroke-width=".28101" />
   </g>
   <g fill="none" stroke="#c13c1b">
      <path d="M154.81 161.904c2.012-.585 5.504-.071 7.782.526-1.71 1.574-4.55 3.742-6.452 4.25-3.656.976-4.751-3.778-1.33-4.776z" stroke-width=".28101" />
      <path d="M155.03 162.523c1.491-.434 4.076-.057 5.763.382-1.268 1.162-3.373 2.765-4.781 3.14-2.708.724-3.516-2.784-.982-3.522z" stroke-width=".28101" />
      <path style="marker:none" d="M155.105 162.518c.302.193.91.705 1.14 1.555.231.85.054 1.414-.174 1.883M157.776 162.444c.304.258.59.815.66 1.087.076.294.033.913-.056 1.196" color="#000" stroke-linecap="round" stroke-linejoin="round" overflow="visible" stroke-width=".28101" />
   </g>
   <g fill="none" stroke="#c13c1b">
      <path d="M153.417 156.384c2.036-.497 5.502.168 7.753.863-1.777 1.498-4.709 3.541-6.63 3.966-3.696.817-4.584-3.98-1.123-4.829z" stroke-width=".28101" />
      <path d="M153.611 157.012c1.508-.369 4.074.12 5.74.632-1.316 1.106-3.489 2.615-4.912 2.93-2.737.605-3.392-2.934-.828-3.562z" stroke-width=".28101" />
      <path d="M153.685 157.01c.294.207.879.744 1.073 1.603.194.859-.009 1.415-.256 1.873M156.358 157.052c.292.271.554.84.612 1.115.063.297-.007.913-.108 1.192" style="marker:none" color="#000" stroke-linecap="round" stroke-linejoin="round" overflow="visible" stroke-width=".28101" />
   </g>
   <g fill="none" stroke="#c13c1b">
      <path d="M156.54 167.4c1.948-.776 5.473-.596 7.798-.219-1.553 1.73-4.174 4.159-6.019 4.845-3.546 1.32-5.09-3.308-1.779-4.627z" stroke-width=".28101" />
      <path d="M156.819 167.994c1.442-.574 4.051-.445 5.772-.168-1.15 1.277-3.093 3.073-4.46 3.581-2.626.978-3.764-2.437-1.312-3.413z" stroke-width=".28101" />
      <path style="marker:none" d="M156.892 167.982c.32.164.973.615 1.284 1.439.31.824.188 1.403.006 1.89M159.545 167.653c.327.229.665.756.76 1.02.104.286.12.906.058 1.196" color="#000" stroke-linecap="round" stroke-linejoin="round" overflow="visible" stroke-width=".28101" />
   </g>
   <g fill="none" stroke="#c13c1b">
      <path d="M173.366 189.928c1.066-1.805 3.962-3.821 6.031-4.947-.168 2.318-.752 5.843-1.79 7.516-1.996 3.216-6.05.501-4.24-2.569z" stroke-width=".28101" />
      <path d="M173.95 190.228c.79-1.337 2.932-2.833 4.461-3.668-.127 1.715-.563 4.324-1.332 5.563-1.478 2.381-4.469.378-3.128-1.895z" stroke-width=".28101" />
      <path d="M174.002 190.174a2.766 2.766 0 011.896.35c.75.462 1.007.995 1.162 1.492M175.897 188.29c.399-.02.99.19 1.226.34.257.162.649.643.778.91" style="marker:none" color="#000" stroke-linecap="round" stroke-linejoin="round" overflow="visible" stroke-width=".28101" />
   </g>
   <g fill="none" stroke="#c13c1b">
      <path d="M168.797 186.336c1.344-1.608 4.53-3.127 6.755-3.901-.543 2.26-1.693 5.643-2.989 7.124-2.491 2.85-6.05-.488-3.766-3.223z" stroke-width=".28101" />
      <path d="M169.325 186.727c.996-1.191 3.352-2.32 4.997-2.895-.405 1.672-1.259 4.175-2.219 5.272-1.845 2.11-4.47-.352-2.778-2.377z" stroke-width=".28101" />
      <path style="marker:none" d="M169.384 186.681a2.766 2.766 0 011.813.655c.666.577.833 1.145.905 1.66M171.56 185.13c.397.045.945.348 1.155.535.227.202.535.74.62 1.024" color="#000" stroke-linecap="round" stroke-linejoin="round" overflow="visible" stroke-width=".28101" />
   </g>
   <g fill="none" stroke="#c13c1b">
      <path d="M178.398 192.746c.864-1.91 3.525-4.228 5.46-5.571.084 2.322-.116 5.89-.966 7.665-1.636 3.413-5.96 1.154-4.494-2.094z" stroke-width=".28101" />
      <path d="M179.012 192.98c.64-1.414 2.606-3.133 4.037-4.13.059 1.72-.092 4.36-.723 5.675-1.21 2.528-4.4.86-3.314-1.545z" stroke-width=".28101" />
      <path d="M179.056 192.92a2.766 2.766 0 011.923.145c.796.377 1.11.88 1.318 1.356M180.737 190.843c.394-.063 1.004.081 1.255.205.273.133.715.569.872.82" style="marker:none" color="#000" stroke-linecap="round" stroke-linejoin="round" overflow="visible" stroke-width=".28101" />
   </g>
   <g fill="none" stroke="#c13c1b">
      <path d="M189.263 196.536c.399-2.058 2.453-4.928 4.026-6.681.617 2.24 1.247 5.757.829 7.681-.803 3.698-5.533 2.498-4.855-1z" stroke-width=".28101" />
      <path d="M189.914 196.622c.295-1.524 1.812-3.65 2.974-4.95.454 1.659.917 4.263.607 5.688-.595 2.74-4.083 1.853-3.581-.738z" stroke-width=".28101" />
      <path style="marker:none" d="M189.943 196.554a2.766 2.766 0 011.904-.304c.862.183 1.283.6 1.595 1.016M191.099 194.144c.368-.152.995-.152 1.269-.09.296.067.826.389 1.038.597" color="#000" stroke-linecap="round" stroke-linejoin="round" overflow="visible" stroke-width=".28101" />
   </g>
   <g fill="none" stroke="#c13c1b">
      <path d="M183.774 194.97c.599-2.008 2.923-4.664 4.66-6.255.395 2.29.678 5.852.074 7.726-1.16 3.602-5.75 1.945-4.734-1.47z" stroke-width=".28101" />
      <path d="M184.413 195.12c.444-1.488 2.162-3.456 3.445-4.635.29 1.695.495 4.332.048 5.72-.86 2.668-4.246 1.445-3.493-1.085z" stroke-width=".28101" />
      <path d="M184.45 195.055a2.766 2.766 0 011.924-.116c.84.267 1.218.722 1.488 1.167M185.835 192.77c.382-.116 1.006-.055 1.272.034.288.096.784.468.974.696" style="marker:none" color="#000" stroke-linecap="round" stroke-linejoin="round" overflow="visible" stroke-width=".28101" />
   </g>
   <g fill="none" stroke="#c13c1b">
      <path d="M194.774 197.556c.179-2.089 1.916-5.16 3.294-7.071.852 2.162 1.852 5.593 1.64 7.55-.405 3.763-5.236 3.072-4.934-.48z" stroke-width=".28101" />
      <path d="M195.43 197.573c.133-1.547 1.416-3.823 2.433-5.238.627 1.6 1.364 4.141 1.208 5.59-.301 2.788-3.864 2.278-3.64-.352z" stroke-width=".28101" />
      <path style="marker:none" d="M195.453 197.502c.29-.213.985-.595 1.861-.505.876.091 1.339.46 1.694.84M196.346 194.983c.35-.19.973-.258 1.252-.225.302.035.863.3 1.095.484" color="#000" stroke-linecap="round" stroke-linejoin="round" overflow="visible" stroke-width=".28101" />
   </g>
   <g fill="none" stroke="#c13c1b">
      <path d="M241.037 190.423c-1.233-1.695-1.932-5.154-2.142-7.5 2.06 1.075 5.062 3.013 6.184 4.63 2.158 3.11-1.945 5.75-4.042 2.87z" stroke-width=".28101" />
      <path d="M241.544 190.006c-.913-1.256-1.434-3.815-1.593-5.551 1.523.798 3.744 2.236 4.575 3.434 1.598 2.302-1.429 4.25-2.982 2.117z" stroke-width=".28101" />
      <path d="M241.514 189.937c.08-.35.355-1.094 1.076-1.6.722-.505 1.313-.529 1.83-.474M240.539 187.45c.14-.374.567-.833.8-.99.25-.172.847-.34 1.144-.353" style="marker:none" color="#000" stroke-linecap="round" stroke-linejoin="round" overflow="visible" stroke-width=".28101" />
   </g>
   <g fill="none" stroke="#c13c1b">
      <path d="M235.778 193.13c-1.081-1.795-1.478-5.301-1.485-7.657 1.96 1.25 4.783 3.44 5.76 5.149 1.881 3.284-2.435 5.56-4.275 2.509z" stroke-width=".28101" />
      <path d="M236.32 192.76c-.801-1.33-1.1-3.926-1.107-5.669 1.448.928 3.536 2.552 4.26 3.817 1.393 2.433-1.79 4.111-3.153 1.851z" stroke-width=".28101" />
      <path style="marker:none" d="M236.296 192.689c.11-.343.448-1.06 1.21-1.501.763-.441 1.354-.414 1.865-.314M235.54 190.125c.172-.36.637-.78.882-.917.265-.148.874-.265 1.17-.252" color="#000" stroke-linecap="round" stroke-linejoin="round" overflow="visible" stroke-width=".28101" />
   </g>
   <g fill="none" stroke="#c13c1b">
      <path d="M246.059 187.123c-1.474-1.49-2.686-4.806-3.246-7.094 2.198.754 5.458 2.218 6.81 3.649 2.601 2.749-1.057 5.977-3.564 3.445z" stroke-width=".28101" />
      <path d="M246.497 186.634c-1.091-1.104-1.991-3.556-2.409-5.248 1.626.56 4.037 1.647 5.039 2.706 1.926 2.037-.773 4.418-2.63 2.542z" stroke-width=".28101" />
      <path style="marker:none" d="M246.458 186.57a2.766 2.766 0 01.823-1.743c.637-.608 1.218-.72 1.738-.744M245.12 184.257c.082-.39.435-.908.64-1.098.223-.207.788-.463 1.08-.52" color="#000" stroke-linecap="round" stroke-linejoin="round" overflow="visible" stroke-width=".28101" />
   </g>
   <g fill="none" stroke="#c13c1b">
      <path d="M254.7 178.776c-1.824-1.032-3.894-3.89-5.057-5.938 2.32.125 5.856.644 7.547 1.651 3.252 1.936.613 6.04-2.49 4.287z" stroke-width=".28101" />
      <path d="M254.99 178.186c-1.352-.764-2.887-2.878-3.75-4.392 1.716.096 4.333.484 5.586 1.23 2.409 1.434.461 4.46-1.837 3.162z" stroke-width=".28101" />
      <path d="M254.934 178.137a2.766 2.766 0 01.316-1.903c.448-.758.976-1.025 1.47-1.19M253.015 176.276c-.027-.398.172-.992.318-1.232.157-.26.63-.66.895-.795" style="marker:none" color="#000" stroke-linecap="round" stroke-linejoin="round" overflow="visible" stroke-width=".28101" />
   </g>
   <g fill="none" stroke="#c13c1b">
      <path d="M250.654 183.259c-1.654-1.288-3.284-4.418-4.136-6.614 2.277.463 5.7 1.493 7.225 2.737 2.935 2.39-.276 6.064-3.09 3.877z" stroke-width=".28101" />
      <path d="M251.026 182.717c-1.225-.953-2.435-3.268-3.068-4.892 1.684.345 4.216 1.112 5.347 2.032 2.173 1.77-.196 4.48-2.28 2.86z" stroke-width=".28101" />
      <path style="marker:none" d="M250.978 182.66c-.02-.358.038-1.15.591-1.835.553-.686 1.115-.873 1.628-.963M249.352 180.54c.031-.399.315-.958.494-1.173.194-.234.72-.561 1.002-.656" color="#000" stroke-linecap="round" stroke-linejoin="round" overflow="visible" stroke-width=".28101" />
   </g>
   <g fill="none" stroke="#c13c1b">
      <path d="M257.906 173.923c-1.868-.951-4.06-3.717-5.312-5.713 2.323.025 5.878.39 7.612 1.322 3.334 1.792.876 6.007-2.3 4.39z" stroke-width=".28101" />
      <path d="M258.168 173.321c-1.383-.705-3.009-2.75-3.937-4.224 1.72.02 4.35.294 5.634.985 2.47 1.327.656 4.436-1.697 3.239z" stroke-width=".28101" />
      <path d="M258.111 173.274a2.766 2.766 0 01.233-1.914c.414-.778.93-1.068 1.416-1.253M256.113 171.499c-.045-.397.128-1 .263-1.245.146-.266.602-.687.86-.833" style="marker:none" color="#000" stroke-linecap="round" stroke-linejoin="round" overflow="visible" stroke-width=".28101" />
   </g>
   <g fill="none" stroke="#c13c1b">
      <path d="M262.66 163.599c-2.005-.61-4.648-2.948-6.23-4.694 2.292-.383 5.856-.647 7.726-.033 3.596 1.18 1.915 5.76-1.495 4.727z" stroke-width=".28101" />
      <path d="M262.814 162.96c-1.485-.451-3.444-2.18-4.617-3.469 1.697-.28 4.335-.472 5.72-.018 2.663.874 1.423 4.253-1.103 3.487z" stroke-width=".28101" />
      <path style="marker:none" d="M262.75 162.923a2.766 2.766 0 01-.107-1.925c.271-.838.729-1.214 1.175-1.482M260.471 161.526c-.113-.383-.049-1.006.041-1.272.097-.287.472-.782.701-.97" color="#000" stroke-linecap="round" stroke-linejoin="round" overflow="visible" stroke-width=".28101" />
   </g>
   <g fill="none" stroke="#c13c1b">
      <path d="M260.677 168.815c-1.95-.767-4.399-3.31-5.836-5.176 2.315-.199 5.889-.177 7.704.584 3.49 1.464 1.448 5.896-1.868 4.592z" stroke-width=".28101" />
      <path d="M260.88 168.19c-1.444-.568-3.259-2.447-4.325-3.826 1.714-.144 4.36-.124 5.704.44 2.584 1.084 1.078 4.353-1.379 3.387z" stroke-width=".28101" />
      <path d="M260.819 168.15a2.766 2.766 0 01.048-1.928c.337-.814.823-1.152 1.29-1.383M258.66 166.574c-.083-.39.031-1.006.142-1.264.12-.28.533-.742.776-.912" style="marker:none" color="#000" stroke-linecap="round" stroke-linejoin="round" overflow="visible" stroke-width=".28101" />
   </g>
   <g fill="none" stroke="#c13c1b">
      <path d="M264.454 158.169c-2.06-.39-4.939-2.43-6.7-3.996 2.238-.627 5.753-1.273 7.678-.864 3.702.787 2.523 5.522-.978 4.86z" stroke-width=".28101" />
      <path d="M264.537 157.518c-1.525-.29-3.658-1.797-4.963-2.953 1.657-.461 4.259-.936 5.685-.632 2.742.582 1.872 4.075-.722 3.585z" stroke-width=".28101" />
      <path style="marker:none" d="M264.469 157.488a2.766 2.766 0 01-.312-1.902c.179-.863.593-1.286 1.008-1.6M262.054 156.344c-.154-.368-.157-.995-.096-1.269.066-.296.385-.828.592-1.04" color="#000" stroke-linecap="round" stroke-linejoin="round" overflow="visible" stroke-width=".28101" />
   </g>
   <path d="M280.252 501.14l-1.243.331.766 12.436c.095 18.354.581 37.828 4.31 51.274l5.41-8.732 10.4 8.892c-3.142-32.218-9.651-23.014-19.643-64.2z" fill="#04a" fill-rule="evenodd" stroke="#000" stroke-width=".447" />
   <path d="M285.487 572.843l6.053-8.572 8.136 6.855" fill="none" stroke="#c13c1b" stroke-width=".447" stroke-linecap="round" stroke-linejoin="round" />
   <path d="M286.488 580.285l5.92-8.308 7.898 6.595M287.6 588.083l5.665-8.03 7.672 6.416M288.741 596.398l5.598-7.899 7.394 6.161M289.742 604.067l5.445-7.799 7.348 6.125M290.86 612.132l5.194-7.48 7.13 6.027M292.09 620.067l5.057-7.258 6.95 5.884M293.122 627.649l4.883-6.99 6.676 5.67M294.073 634.79l4.78-6.814 6.449 5.491M294.815 642.375l4.967-6.64 6.248 5.186M295.733 649.889l5.06-6.439 6.036 5.129M296.708 657.539l4.727-5.931 6.37 4.69M297.765 665.06l4.754-5.828 5.941 4.277M300.49 684.582l4.582-5.35 5.604 3.624M299.585 678.531l4.514-5.748 5.863 4.038M298.774 671.672l4.592-5.349 5.745 3.863M301.405 691.372l4.626-5.454 5.493 4.11M302.31 697.748l4.343-5.19 5.684 3.623M303.878 710.395l4.582-5.19 5.923 3.624M303.213 703.968l4.297-4.915 5.812 3.718M304.223 712.722l10.499-1.586" fill="none" stroke="#c13c1b" stroke-width=".447" stroke-linecap="round" stroke-linejoin="round" />
   <g fill-rule="evenodd" stroke="#000" stroke-linecap="round" stroke-linejoin="round">
      <path d="M295.543 496.51c2.788-.912 5.073-.564 7.272 0l-1.282-34.891 16.614 1.11c-.508-2.5-.68-4.998 0-7.497l-16.614 1.165h0c3.48-6.22 8.359-11.734 10.114-20.83 3.546-18.381-5.827-17.61-12.33-17.668-7.078-.064-17.528 1.043-13.18 18.451 2 8.008 6.874 14.305 10.807 20.047h0l-18.671-1.165c.626 2.499.566 4.998 0 7.496l18.671-1.11h0l-1.401 34.891z" fill="#025" stroke-width=".22153" />
      <path d="M296.944 451.26c-3.588-4.872-7.031-9.632-7.899-15.917-1.753-12.703 4.844-14.122 10.18-14.155 4.744-.028 11.756.645 8.617 14.044-1.472 6.286-3.763 11.941-6.309 16.028-1.594 2.158-3.305 1.805-4.589 0z" fill="#fff" stroke-width=".22153" />
   </g>
   <path d="M311.485 396.945l-20.531-.56c-1.028 5.137-3.565 10.575-6.042 16-3.275 5.199-3.488 11.832-2.574 18.126l-.335 5.93c9.221 1.104.312-11.203 6.154-15.776l.895 8.504c1.672 1.591 3.32 2.85 4.699.335 1.64 1.838 3.282 1.706 4.923-.335 2.006 2.594 3.644.768 5.37 0 1.84 1.439 3.787 1.95 5.035-1.343.363-8.981 3.05-17.703 2.406-30.88z" fill="#a13c2a" fill-rule="evenodd" stroke="#000" stroke-width=".447" stroke-linecap="round" stroke-linejoin="round" />
   <g fill-rule="evenodd" stroke="#000" stroke-linecap="round" stroke-linejoin="round">
      <path d="M290.777 384.806l21.539.168-.895 13.594-20.532-.783-.112-12.979z" fill="#fac53a" stroke-width=".22153" />
      <path d="M290.777 386.764l21.37.28-.219 4.2-21.095-.332-.056-4.148z" fill="#04a" stroke-width=".22153" />
      <path d="M290.552 384.75l21.594.224-.612 13.538-20.927-.727-.055-13.035z" fill="#fac53a" stroke-width=".22153" />
      <path d="M290.578 386.764l21.57.28-.26 4.2-21.254-.332-.056-4.148zM290.618 392.183l21.194.32-.22 4.2-20.918-.372-.056-4.148z" fill="#04a" stroke-width=".22153" />
   </g>
   <path d="M72.035 372.271c-10.613 1.664-23.485 5.618-32.07 19.638l-5.29 3.276c2.798 6.156 8.313 2.623 10.07-.592-1.041 2.842-.493 4.659 2.865 4.665-.711 2.651.224 4.187 3.339 4.245-1.66 2.612.307 4.915 3.18 4.385-1.01 3.344.782 4.763 2.558 4.796 4.737 2.037 25.888-24.217 27.994-26.507" fill="#a13c2a" fill-rule="evenodd" stroke="#000" stroke-width=".447" stroke-linecap="round" stroke-linejoin="round" />
   <path d="M44.73 173.967c.741-7.368-.418-13.837 2.607-22.795 3.692-10.932 7.38-12.828 11.68-18.572 1.63-1.33 4.31.06 3.431 2.59-4.987 4.645-8.546 10.988-10 14.608 1.496-.17 8.7-.723 8.862 6.742l-.025 509.749c8.02 9.204 1.126 16.279 1.557 24.276-.82.395-1.47.142-1.553-.555-1.074-8.75 1.91-12.567-.054-17.117-.94-2.176-2.697-2.074-3.72-.222-2.207 3.99.884 6.444.077 17.254-.058.787-1.022 1.014-1.415.542-.503-8.034-6.056-14.806 1.295-24.187l-.009-509.13c-.414-4.165-4.92-4.611-7.157.095-2.624 5.517-1.512 11.235-2.215 16.852-1.165 3.617-3.559 2.223-3.361-.13z" fill="#025" fill-rule="evenodd" stroke="#000" stroke-width=".222" stroke-linecap="round" stroke-linejoin="round" />
   <g fill-rule="evenodd" stroke="#000" stroke-linecap="round" stroke-linejoin="round">
      <path d="M72.414 358.646l22.133 13.058-9.563 14.434-18.174-13.202 5.604-14.29z" fill="#fac53a" stroke-width=".296" />
      <path d="M71.703 360.446l21.599 13.475-2.803 4.109-20.349-13.486 1.553-4.098zM69.29 366.757l19.576 13.527-3.029 4.504-18.326-13.539 1.778-4.492z" fill="#04a" stroke-width=".296" />
   </g>
   <path d="M58.106 383.453c3.792-2.917 8.32-2.477 4.75 1.847 3.075-2.928 9.395-2.427 3.12 3.577 5.724-3.442 6.042 1.18 3.109 3.788 3.86-2.37 4.896 1.353.961 5.14-3.921 4.884-8.518 9.875-12.953 14.727-.082.087-.192.142-.368.124-1.775-.033-3.54-1.282-2.53-4.626-2.873.53-4.84-1.773-3.18-4.385-3.115-.059-4.05-1.594-3.34-4.245-3.357-.006-4.236-1.319-3.194-4.161.138-.238.273-.421.405-.56 4.737-5.125 9.094-8.808 13.099-11.155m.862-.526c-.302 1.27.968 3 3.112 3.033m.87-.55c-.86 1.492 1.658 3.526 3.024 3.445m.352-.205c-1.265 1.565.591 4.875 3.305 3.487m-.473.523c-.732 1.66.606 3.372 2.097 3.732m-20.106 7.178c.553-.39 14.982-14.744 14.982-14.744m-18.195 10.419c.79-.8 15.099-14.038 15.099-14.038m-8.652 22.725l14.928-15.42" fill="#a13c2a" fill-rule="evenodd" stroke="#000" stroke-width=".447" stroke-linecap="round" stroke-linejoin="round" />
   <path d="M62.829 385.482c-.252.173-.293.519-.87.55-2.614.004-3.233-2.578-3.135-3.04 3.585-2.332 7.412-1.658 4.074 2.386 3.075-2.929 9.353-2.505 3.078 3.499 5.724-3.442 6.115 1.063 3.181 3.67 3.43-2.106 4.558.718 1.999 3.96-1.513-.404-2.85-2.116-1.977-3.94-2.572 1.223-4.24-2.281-3.15-3.743-1.542.183-4.06-1.851-3.2-3.342z" fill="#fff" fill-rule="evenodd" stroke="#000" stroke-width=".447" stroke-linecap="round" stroke-linejoin="round" />
   <path d="M63.726 381.952c-2.51-.925-5.802.923-13.069 7.002l-1.34-7.68c7.614-5.177 11.02-6.645 17.624-8.043" fill="#a13c2a" fill-rule="evenodd" />
   <path d="M50.657 388.954c7.267-6.08 10.664-7.937 13.174-7.012m3.04-8.666c-6.604 1.397-10.083 2.716-17.675 8.115" fill="none" stroke="#000" stroke-width=".447" />
   <g fill-rule="evenodd" stroke="#000" stroke-linecap="round" stroke-linejoin="round">
      <path d="M-2298.264 185.199l129.779 8.359-8.488 77.742-132.395-13.063 11.104-73.038z" fill="#fac53a" transform="matrix(.27041 -.0044 .0051 .23311 733.16 159.218)" />
      <path d="M-2299.299 193.609l129.66 10.549-2.604 22.255-130.567-9.952 3.511-22.852zM-2304.076 224.65L-2173.32 236l-2.746 24.159-131.762-10.989 3.753-24.52z" fill="#04a" transform="matrix(.27041 -.0044 .0051 .23311 733.16 159.218)" />
   </g>
   <g fill-rule="evenodd" stroke="#000" stroke-linecap="round" stroke-linejoin="round">
      <path d="M-2306.297 184.523l126.243 8.061-.132 78.445-129.182-12.792 3.07-73.714z" fill="#fac53a" transform="matrix(.24708 -.01956 .01664 .23246 847.885 125.43)" />
      <path d="M-2306.69 192.987l126.446 10.278-.033 22.472-127.353-9.681.94-23.07zM-2307.61 224.353l127.059 11.038.146 24.403-128.228-10.692 1.023-24.749z" fill="#04a" transform="matrix(.24708 -.01956 .01664 .23246 847.885 125.43)" />
   </g>
   <g fill-rule="evenodd" stroke="#000" stroke-linecap="round" stroke-linejoin="round">
      <path d="M-2301.611 184.81l110.51 7.598-12.757 77.185-100.902-10.518 3.149-74.266z" fill="#fac53a" transform="matrix(.26671 .04479 -.03732 .23016 749.763 711.484)" />
      <path d="M-2302.218 193.931l109.506 8.31-3.595 21.223-106.536-7.241.625-22.292zM-2303.251 224.49l104.788 11.037-4.15 23.206-101.819-9.488 1.18-24.755z" fill="#04a" transform="matrix(.26671 .04479 -.03732 .23016 749.763 711.484)" />
   </g>
   <g fill-rule="evenodd" stroke="#000" stroke-linecap="round" stroke-linejoin="round">
      <path d="M-2305.348 184.73l117.692 7.561-12.03 77.508-107.182-11.397 1.52-73.671z" fill="#fac53a" transform="matrix(.27001 -.01538 .01457 .23271 866.37 578.739)" />
      <path d="M-2305.446 193.202l116.011 9.648-3.645 22.187-112.856-8.782.49-23.053zM-2306.264 224.506l112.106 10.117-3.892 24.083-108.633-9.46.42-24.74z" fill="#04a" transform="matrix(.27001 -.01538 .01457 .23271 866.37 578.739)" />
   </g>
   <path d="M273.814 511.772c-93.566-15.728-110.626-86.262-103.648-177.191l85.233-15.066c8.086 13.446 12.852 31.613 6.775 41.444 7.923 50.096 12.735 101.017 11.64 150.813z" fill="#fac53a" fill-rule="evenodd" stroke="#000" stroke-width=".224" />
   <g>
      <path d="M255.127 319.365l-6.486-30.812-78.408 37.95-.239 7.872 85.133-15.01z" fill="#fac53a" fill-rule="evenodd" stroke="#000" stroke-linecap="round" stroke-linejoin="round" stroke-width=".22358" />
      <path d="M221.318 307.89l6.862-2.854 1.714 4.238-6.963 2.478-1.613-3.862z" fill="#04a" fill-rule="evenodd" stroke="#04a" stroke-width=".25845848" />
      <path d="M230.923 303.896l6.241-2.62 2.005 4.887-6.392 2.181-1.854-4.448z" fill="#c13c1b" fill-rule="evenodd" stroke="#c13c1b" stroke-width=".25845848" />
      <path d="M239.957 300.302l7.115-2.999 2.153 5.19-7.377 2.573-1.891-4.764z" fill="#04a" fill-rule="evenodd" stroke="#04a" stroke-width=".25845848" />
      <path d="M248.639 288.44l.764 3.778-75.643 33.173-3.36.94 78.239-37.891z" fill="#fff" fill-rule="evenodd" stroke="#000" stroke-linecap="round" stroke-linejoin="round" stroke-width=".22358" />
      <path d="M183.335 323.343l6.261-2.504.888 2.404-6.327 2.329-.822-2.23z" fill="#04a" fill-rule="evenodd" stroke="#04a" stroke-width=".25845848" />
      <path d="M192.701 319.62l6.641-2.79 1.027 2.836-6.691 2.398-.977-2.444z" fill="#c13c1b" fill-rule="evenodd" stroke="#c13c1b" stroke-width=".25845848" />
      <path d="M202.062 315.859l6.741-2.906 1.419 3.343-7.07 2.444-1.09-2.881z" fill="#04a" fill-rule="evenodd" stroke="#04a" stroke-width=".25845848" />
      <path d="M211.767 311.636l6.918-2.856 1.689 3.998-7.079 2.515-1.528-3.657z" fill="#308d57" fill-rule="evenodd" />
      <path d="M251.351 301.97l-69.235 24.39M250.101 295.926l-70.117 28.684M238.98 300.636l1.99 4.752M238.07 300.882l1.975 4.885M248.891 296.496l2.174 5.428M247.989 296.874l2.219 5.38M230.025 304.335l1.958 4.308M229.057 304.683l1.915 4.32M220.498 308.2l1.573 3.806M219.56 308.442l1.709 3.986M210.583 312.165l1.56 3.385M209.722 312.556l1.502 3.401M201.179 316.18l1.05 2.848M200.218 316.576l1.133 2.839M191.829 319.985l.817 2.518M190.78 320.356l.903 2.56M182.488 323.701l.814 2.123M181.66 323.944l.894 2.175" fill="none" stroke="#000" stroke-width=".25845848" stroke-linecap="round" stroke-linejoin="round" />
      <path d="M242.448 311.235l7.407-2.18 1.556 5.4-7.62 1.726-1.343-4.946z" fill="#04a" fill-rule="evenodd" stroke="#04a" stroke-width=".25845848" />
      <path d="M233.067 313.79l6.497-1.9 1.523 5.024-6.679 1.504-1.341-4.629z" fill="#c13c1b" fill-rule="evenodd" stroke="#c13c1b" stroke-width=".25845848" />
      <path d="M223.074 316.677l7.139-2.063 1.227 4.404-7.198 1.679-1.168-4.02z" fill="#04a" fill-rule="evenodd" stroke="#04a" stroke-width=".25845848" />
      <path d="M213.162 319.326l7.195-2.06 1.229 4.162-7.317 1.703-1.107-3.805z" fill="#308d57" fill-rule="evenodd" />
      <path d="M203.044 322.43l7.025-2.13 1.034 3.482-7.387 1.705-.672-3.058z" fill="#04a" fill-rule="evenodd" stroke="#04a" stroke-width=".25845848" />
      <path d="M193.326 325.047l6.906-1.958.701 2.934-6.918 1.63-.689-2.606z" fill="#c13c1b" fill-rule="evenodd" stroke="#c13c1b" stroke-width=".25845848" />
      <path d="M184.003 327.754l6.205-1.687.666 2.334-6.28 1.502-.591-2.149z" fill="#04a" fill-rule="evenodd" stroke="#04a" stroke-width=".25845848" />
      <path d="M253.914 314.023l-71.871 16.598M252.648 308.176l-72.323 20.425M241.44 311.457l1.443 4.945M240.507 311.598l1.413 5.077M251.75 308.446l1.553 5.65M250.815 308.732l1.6 5.596M232.126 314.125l1.46 4.5M231.124 314.361l1.417 4.51M222.224 316.893l1.135 3.96M221.266 317.028l1.248 4.153M211.926 319.718l1.17 3.539M211.026 320.01l1.11 3.548M202.13 322.65l.723 2.948M201.13 322.935l.807 2.948M192.331 325.38l.687 2.512M191.326 325.63l.73 2.682M183.344 327.858l.616 2.28M182.676 328.046l.502 2.185" fill="none" stroke="#000" stroke-width=".25845848" stroke-linecap="round" stroke-linejoin="round" />
      <path d="M182.889 326.754l68.922-22.92M183.064 327.262l69.182-21.178M182.189 331.205l72.002-15.752M181.12 331.974l73.646-14.3M176.503 324.753l73.098-31.39M178.372 324.648l71.52-29.986" fill="none" stroke="#000" stroke-width=".22358" />
      <path d="M169.957 334.416c8.178-1.852 14.18-1.01 13.033-7.12-.836-4.456-8.51-2.33-12.751-.96l-.282 8.08z" fill="#fac53a" fill-rule="evenodd" stroke="#000" stroke-linecap="round" stroke-linejoin="round" stroke-width=".22358" />
   </g>
   <g>
      <path d="M152.755 511.593l17.562-176.108 91.67-.11c1.194 4.863 5.467 13.811.326 26.86 7.878 49.984 12.656 100.466 11.564 150.146l-121.122-.788z" fill="#fff" fill-rule="evenodd" stroke="#000" stroke-width=".44716" />
      <path d="M273.61 511.968c-93.557-15.777-110.58-86.321-103.553-177.246l85.241-15.02c8.079 13.45 12.976 32.55 6.893 42.378 7.896 50.101 12.54 100.092 11.419 149.888z" fill="#fac53a" fill-rule="evenodd" stroke="#000" stroke-width=".22358" />
      <path d="M255.109 319.78l-69.111 135.394M250.982 320.488l-66.89 131.041M182.327 447.61l64.536-126.429M242.711 321.937l-62.103 121.665M179.024 439.329l59.541-116.646M234.427 323.413L177.504 434.93M176.093 430.318L230.3 324.119M226.189 324.8l-51.392 100.679M173.6 420.449l48.425-94.869M217.879 326.326l-45.325 88.794M171.563 409.685l42.164-82.603M209.615 327.762l-38.859 76.126M170.052 397.89l35.417-69.382M201.337 329.226l-31.846 62.388M169.065 385.073l28.127-55.104M193.066 330.675l-24.273 47.552M168.662 371.108l20.277-39.725M184.775 332.164l-16.083 31.508M168.877 355.934l11.786-23.09M176.497 333.628l-7.358 14.415M169.697 339.573l2.675-5.24M257.201 323.058L187.963 458.7M190.017 462.053l69.01-135.195M260.725 330.908l-68.609 134.41M194.306 468.403l67.945-133.108M263.559 340.11l-66.973 131.204M198.916 474.126l65.651-128.616M264.886 352.263l-63.542 124.484M203.797 479.318L262.609 364.1M263.454 369.82l-57.12 111.905M208.864 484.145l55.4-108.532M265.118 381.316l-53.609 105.022M214.227 488.391L265.89 387.18M266.708 392.954l-49.733 97.43M219.796 492.235l47.585-93.223M268.135 404.911l-45.506 89.15M225.532 495.75l43.321-84.869M269.417 417.153l-40.97 80.262M231.442 498.925l38.73-75.873M270.663 429.466l-36.19 70.898M237.577 501.66l33.686-65.993M271.67 442.246l-31.003 60.738M243.789 504.245l28.366-55.571M272.619 455.142l-25.604 50.16M250.175 506.487l22.772-44.611M273.238 468.682l-19.767 38.724M256.794 508.274l16.754-32.822M273.721 482.488l-13.613 26.67M263.45 509.989l10.336-20.25M273.887 496.917l-7.02 13.752M270.299 511.324l3.471-6.801" fill="none" stroke="#c13c1b" stroke-width=".44716" />
      <path d="M273.574 511.968c-93.557-15.777-110.58-86.321-103.552-177.246l85.24-15.02c8.08 13.45 12.976 32.55 6.894 42.378 7.896 50.101 12.54 100.092 11.418 149.888z" fill="none" stroke="#000" stroke-width=".44716" />
   </g>
   <path d="M173.485 317.441a.841 2.117-.507 11-1.682 0 .841 2.117-.507 111.682 0z" style="marker:none" color="#000" fill-opacity=".706" fill-rule="evenodd" overflow="visible" />
   <g>
      <path d="M235.795 142.196l-7.92-50.838c7.052-25.782 17.136-50.552 25.926-75.754-7.989-.676-15.978-1.897-23.967-3.166-3.238 23.341-9.262 44.872-14.018 67.154-.878 4.113-1.758 7.564-6.504 8.423-13.086 2.367-27.155 1.903-39.53 11.205-20.27 8.377-37.909 20.265-50.522 38.851-2.74 4.175 5.138 4.244 6.715 2.078 10.394-11.129 29.45-21.334 33.095-23.502.614-.474 1.618.388.64.8-8.669 4.852-19.86 13.192-28.859 19.984-1.214.97.482 1.582 3.198.64 44.324-25.48 58.845-18.655 61.626 9.45.061.623-.418 4.382-.368 5.027" fill-rule="evenodd" stroke="#000" stroke-width=".6332118" />
      <path d="M195.466 89.766c1.963-25.833 4.397-51.997 5.744-80.04l21.389.451c-4.335 25.776-6.344 51.552-9.497 77.328" fill-rule="evenodd" stroke="#000" stroke-width=".6332118" />
      <g fill-rule="evenodd" stroke-width=".873" stroke-linecap="round" stroke-linejoin="round">
         <path d="M177.335 99.586c2.278-1.86 7.649-4.25 10.148-3.909 1.496.205 5.8 2.048 10.21 2.974 3.07.645 5.593 1.042 8.18 1.099.266.47.136.941.066 1.412-2.742.026-5.172-.03-9.36-.854-3.042-.714-6.064-2.379-10.016-2.693-1.563-.344-4.393.497-8.67 2.693-.481-.044-.856-.16-.558-.722z" fill="#fff" stroke="#fff" stroke-width=".18392364" />
         <path d="M177.86 107.697c3.065-5.916 5.327-6.803 7.52-6.272 0 0 10.576 2.167 11.692 2.299 1.247.146 7.554.197 7.554.197.16.678.29 1.357-.066 2.036-2.714.275-6.692.269-10.969.197-1.017.748-2.227 1.351-3.94 1.576-3.066.11-6.482.088-10.247-.065-.082.037-.448.097-.789.394-.662.15-.987.072-.755-.362z" fill="#fff" stroke="#000" stroke-width=".18392364" />
         <path d="M185.467 107.369c-2.098-.297-3.65-.795-3.728-2.917-.078-2.155.473-3.187 2.53-3.29l5.644 1.153c-.004 2.102-.401 2.955-.855 3.63-.633.717-.947 1.573-3.591 1.424z" stroke="#000" stroke-width=".18392364" />
      </g>
      <path d="M166.744 100.659c2.45 3.667.344 6.255-2.238 7.514-17.38 8.477-32.466 18.192-42.688 32.296" fill="none" stroke="gray" stroke-width=".6332118" />
   </g>
   <path d="M194.628 150.613l-2.623 11.12c5.51 7.105 27.076 3.465 30.49 1.73l-6.264-15.302 1.18-.533c-1.468-.637-5.082-.384-6.663.847-2.993-.567-5.176-.736-8.018.734-2.415-1.156-7.232.045-8.102 1.404z" fill="#a13c2a" fill-rule="evenodd" stroke="#000" stroke-width=".224" />
   <path d="M212.07 87.083c-5.42-.13-10.55-.244-16.899 2.941 5.813-1.105 7.283-.604 14.513.028.325-.803 1.393-2.31 2.385-2.97z" fill="#025" fill-rule="evenodd" stroke="#025" stroke-width=".224" />
   <path d="M189.942 129.75c-7.755 2.062-10.655 13.452-12.228 19.96-5.316 22-3.622 40.244-3.517 67.99h25.974l-.265-52.273c-4.373-12.76-4.417-29.525-9.964-35.677z" fill="#025" fill-rule="evenodd" stroke="#000" stroke-width=".224" stroke-linecap="round" stroke-linejoin="round" />
   <g>
      <path d="M173.905 205.62h26.425v12.196h-26.425V205.62z" fill="#fac53a" fill-rule="evenodd" stroke="#000" stroke-width=".224" />
      <path d="M175.545 206.634l22.88.104M175.535 208.773l22.88.103M175.609 210.747l22.88.104M175.599 212.646l22.88.104M175.75 214.619l22.875-.055M175.665 216.598l22.95-.215" fill="none" stroke="#c13c1b" stroke-width=".665" stroke-linecap="round" stroke-linejoin="round" />
   </g>
   <path d="M285.5 124.474c-12.292-14.006-34.191-27.186-57.55-33.61l-7.39 4.862-1.48 1.659c7.055 7.98 15.454 19.212-9.497 26.433 5.16 13.456 5.2 21.647 5.81 33.552 1.215 23.636 1.49 60.33 1.49 60.33h26.426c.302-19.875-.562-53.303.83-66.526.274-2.613-.152-2.271.329-2.997l24.81 5.276c49.087 12.958 44.01 46.139 43.02 56.992l1.203 16.177 6.669-.16-1.118-48.07c-4.336-20.109-18.885-37.21-33.551-53.918z" fill="#025" fill-rule="evenodd" stroke="#000" stroke-width=".224" stroke-linecap="round" stroke-linejoin="round" />
   <g>
      <path d="M312.445 214.407l7.367-.01.36 12.086-6.823.12-.904-12.196z" fill="#fac53a" fill-rule="evenodd" stroke="#000" stroke-width=".22358" />
      <path d="M312.851 215.6l5.434.104M313.01 217.419l5.265.104M313.062 219.393l5.207.104M313.244 221.452l5.095.104M313.395 223.471l5.09.059M313.48 225.258l4.966-.017" fill="none" stroke="#c13c1b" stroke-width=".66447976" stroke-linecap="round" stroke-linejoin="round" />
      <path d="M312.42 214.368l.96 12.197" fill="none" stroke="#000" stroke-width=".22358" />
   </g>
   <g>
      <path d="M906.05 448.36h25.973v12.197H906.05V448.36z" fill="#fac53a" fill-rule="evenodd" stroke="#000" stroke-width=".224" transform="matrix(1.02727 0 0 1 -714.06 -242.735)" />
      <path d="M907.416 449.554l22.88.103M907.406 451.373l22.88.103M907.4 453.347l22.881.104M907.47 455.406l22.88.103M907.62 457.538l22.876-.055M907.536 459.438l22.95-.215" fill="none" stroke="#c13c1b" stroke-width=".665" stroke-linecap="round" stroke-linejoin="round" transform="matrix(1.02727 0 0 1 -714.06 -242.735)" />
   </g>
</svg>