<svg width="626" height="600" xmlns="http://www.w3.org/2000/svg">
    <path d="M21.4 595.19c-25.85-15.76-27.79-43.14-4.48-63.63 12.57-11.06 28.76-17.29 66.37-25.55 104.48-22.93 180.11-70.73 229.4-144.99 20.82-31.35 49.91-90.92 80.04-163.99 42.14-102.12 55.75-128.16 81.38-155.51C497.42 16.6 517.8 5.64 548.67 1.4c25.37-3.48 62.55 9.61 72.37 25.5 4.83 7.83 4.96 14.79 4.96 285.48 0 274.07-.05 277.5-5.09 282.54-5.04 5.03-8.47 5.08-298.37 5.08-282.74-.03-293.56-.2-301.14-4.81m588.82-10.95c2.34-2.34 3.06-66.56 3.06-273.56V40.17l-8.45-8.44c-18.15-18.13-53.8-21.08-83.8-6.89-42.47 20.06-62.85 52.12-118.71 186.81-29.21 70.4-51.71 117.79-69.67 146.65-53.39 85.73-118.03 129-237.76 159.17-50.71 12.77-68.3 20.83-75.73 34.68-6.33 11.82-3.61 21.1 8.6 29.34l8.63 5.8h285.39c218.56 0 286.1-.71 288.44-3.05" />
    <path fill="#c57a36" d="M27.76 581.49c-12.21-8.24-14.93-17.52-8.6-29.34 7.43-13.85 25.02-21.91 75.73-34.68 119.73-30.17 184.37-73.44 237.76-159.17 17.96-28.86 40.46-76.25 69.67-146.65C457.97 77.47 478.61 44.87 520.47 25.09c30.26-14.31 66.24-11.46 84.36 6.64l8.45 8.44v270.51c0 207-.72 271.22-3.06 273.56-2.34 2.34-69.88 3.05-288.44 3.05H36.39l-8.63-5.8" />
</svg>