<svg width="800" height="200" xmlns="http://www.w3.org/2000/svg">
    <path d="M215.01 198.28c-13.34-1.81-31.38-7.01-40.52-11.68-11.37-5.82-18.76-12.94-35.05-33.87-17.54-22.52-28.06-33.09-36.4-36.57-4.46-1.88-7.93-1.96-18.85-.49-16.51 2.22-43.23 1-54.41-2.52-13.49-4.22-23.52-11.91-27.2-20.87-3.05-7.42-3.07-8.05-.41-16.51C5.79 64.28 13.92 56.94 33.3 47.74c8.23-3.9 15.74-7.09 16.7-7.09 4.99 0 2.95-4.57-6.14-13.77-7.66-7.74-9.93-11.11-9.52-14.05.37-2.59 1.78-4.07 4.22-4.41 2.75-.39 7.66 3.17 19.47 14.21 19.26 17.96 21.73 18.51 30.77 6.82C110.44 1.43 114.24-1.97 120.89.59c4.68 1.8 2.37 7.98-6.96 18.71-5.18 5.92-10.63 12.72-12.1 15.09l-2.71 4.33 16.89 8.21c20.07 9.74 25.3 14.61 42.38 39.49 6.98 10.15 16.73 22.77 21.67 28.04 21.55 22.97 40.95 23.1 101.3.69 85.8-31.85 118.53-30.13 228.17 12.04 50.29 19.33 72.23 26.45 96.2 31.23 29.56 5.91 42.76 6.39 89.47 3.35 51.62-3.36 91.79-2.83 99.53 1.34 8.84 4.74 6.58 10.22-7.03 17.09-8.47 4.26-26.32 7.75-55.04 10.74-51.51 5.4-76.9 5.03-160.65-2.35-56.12-4.96-124.37-9.91-150.31-10.88-26.71-1.01-34.88-.1-83.62 9.43-18 3.51-39.91 7.49-48.68 8.84-20.17 3.11-59.54 4.31-74.39 2.3m57.62-8.8c11.15-1.32 37.07-5.66 57.59-9.64 54.23-10.52 60.81-11.27 90.62-10.28 26.74.9 117.95 7.45 163.34 11.74 67.93 6.44 109.92 6.42 159.84-.06 21.46-2.8 30.08-4.75 37.16-8.41 3.63-1.89 4.18-2.75 2.43-3.87-3.62-2.28-49.59-1.71-89.18 1.12-70.93 5.09-95.78.73-181.65-31.85-120.05-45.55-137.61-46.73-226.22-15.17-41.33 14.71-53.13 17.35-73.85 16.48-13.42-.55-16.73-1.28-24.22-5.38-11.03-6.05-21.17-17.22-37.82-41.62-7.29-10.7-16.11-22.05-19.62-25.22-3.5-3.17-13.42-9.09-22.05-13.17-13.49-6.38-17.53-7.53-28.68-8.2-10.46-.62-15.02-.08-23.52 2.78C20.59 60.88 2.39 78.36 12.67 91.07c2.86 3.55 3.09 3.56 8.26.88 2.92-1.51 6.35-2.36 7.61-1.87 3.69 1.42 2.63 5.56-2.04 8.02l-4.32 2.27 9.59 3.68c12.34 4.71 29.1 5.85 50.05 3.36 28.01-3.33 34.77.46 61.61 34.61 24.7 31.39 30.69 36.21 53.75 43.2 22.6 6.85 43.49 8.03 75.45 4.26" />
    <path d="M230.43 172.36c-1.79-1.79-3.25-5.08-3.25-7.32s1.46-5.53 3.25-7.32c1.78-1.79 5.06-3.25 7.3-3.25s5.52 1.46 7.3 3.25c1.79 1.79 3.25 5.08 3.25 7.32s-1.46 5.53-3.25 7.32c-1.78 1.79-5.06 3.25-7.3 3.25s-5.52-1.46-7.3-3.25m11.97-5.25c1.35-2.17 1.14-3.44-.92-5.52-4.87-4.86-12.11 1.5-7.73 6.8 2.52 3.04 6.28 2.49 8.65-1.28M184.99 167.48c-1.79-1.79-3.25-5.07-3.25-7.32 0-2.24 1.46-5.53 3.25-7.31 1.78-1.79 5.06-3.26 7.3-3.26s5.52 1.47 7.3 3.26c1.79 1.78 3.25 5.07 3.25 7.31 0 2.25-1.46 5.53-3.25 7.32-1.78 1.79-5.06 3.25-7.3 3.25s-5.52-1.46-7.3-3.25m11.98-5.25c1.34-2.16 1.13-3.43-.93-5.51-4.87-4.87-12.1 1.49-7.72 6.79 2.51 3.04 6.28 2.49 8.65-1.28M511.16 164.23c-6.43-6.44-1.76-17.89 7.3-17.89 5.21 0 10.55 5.35 10.55 10.57 0 5.22-5.34 10.57-10.55 10.57-2.24 0-5.52-1.46-7.3-3.25m11.97-5.25c1.35-2.17 1.14-3.44-.92-5.52-4.87-4.86-12.11 1.5-7.73 6.8 2.52 3.04 6.28 2.49 8.65-1.28M274.24 160.98c-1.79-1.79-3.25-5.08-3.25-7.32 0-2.25 1.46-5.53 3.25-7.32 1.78-1.79 5.06-3.25 7.3-3.25s5.52 1.46 7.3 3.25c1.79 1.79 3.25 5.07 3.25 7.32 0 2.24-1.46 5.53-3.25 7.32-1.78 1.78-5.06 3.25-7.3 3.25s-5.52-1.47-7.3-3.25m11.98-5.26c1.34-2.16 1.13-3.43-.93-5.51-4.87-4.86-12.11 1.5-7.72 6.8 2.51 3.04 6.28 2.49 8.65-1.29M467.34 154.47c-6.42-6.44-1.75-17.88 7.31-17.88 5.2 0 10.54 5.34 10.54 10.56 0 5.22-5.34 10.57-10.54 10.57-2.24 0-5.52-1.46-7.31-3.25m11.98-5.25c1.35-2.16 1.13-3.43-.93-5.51-4.86-4.86-12.1 1.49-7.72 6.79 2.51 3.04 6.28 2.49 8.65-1.28M321.3 146.34c-1.79-1.79-3.25-5.07-3.25-7.32 0-2.24 1.46-5.52 3.25-7.31 1.78-1.79 5.06-3.25 7.3-3.25s5.52 1.46 7.3 3.25c1.79 1.79 3.25 5.07 3.25 7.31 0 2.25-1.46 5.53-3.25 7.32-1.78 1.79-5.06 3.25-7.3 3.25s-5.52-1.46-7.3-3.25m11.97-5.25c1.35-2.16 1.14-3.43-.92-5.51-4.87-4.86-12.11 1.49-7.73 6.79 2.52 3.04 6.28 2.49 8.65-1.28M417.04 144.72c-6.43-6.44-1.75-17.89 7.3-17.89 5.21 0 10.55 5.35 10.55 10.57 0 5.22-5.34 10.57-10.55 10.57-2.24 0-5.52-1.47-7.3-3.25m11.97-5.26c1.35-2.16 1.14-3.43-.92-5.51-4.87-4.86-12.11 1.5-7.72 6.8 2.51 3.04 6.28 2.49 8.64-1.29M371.6 139.84c-1.78-1.79-3.24-5.08-3.24-7.32s1.46-5.53 3.24-7.32c1.79-1.79 5.07-3.25 7.3-3.25 2.24 0 5.52 1.46 7.31 3.25 1.78 1.79 3.24 5.08 3.24 7.32s-1.46 5.53-3.24 7.32c-1.79 1.79-5.07 3.25-7.31 3.25-2.23 0-5.51-1.46-7.3-3.25m11.98-5.25c1.34-2.17 1.13-3.44-.93-5.52-4.87-4.86-12.1 1.5-7.72 6.8 2.51 3.04 6.28 2.49 8.65-1.28M147.67 138.21c-1.79-1.79-3.25-5.07-3.25-7.32 0-2.24 1.46-5.52 3.25-7.31 1.78-1.79 5.06-3.25 7.3-3.25s5.52 1.46 7.3 3.25c1.79 1.79 3.25 5.07 3.25 7.31 0 2.25-1.46 5.53-3.25 7.32-1.78 1.79-5.06 3.25-7.3 3.25s-5.52-1.46-7.3-3.25m11.97-5.25c1.35-2.16 1.14-3.43-.92-5.51-4.87-4.86-12.11 1.49-7.73 6.79 2.52 3.04 6.28 2.49 8.65-1.28M123.33 107.32c-1.79-1.79-3.25-5.08-3.25-7.32s1.46-5.53 3.25-7.32c1.78-1.79 5.06-3.25 7.3-3.25s5.52 1.46 7.3 3.25c1.79 1.79 3.25 5.08 3.25 7.32s-1.46 5.53-3.25 7.32c-1.78 1.79-5.06 3.25-7.3 3.25s-5.52-1.46-7.3-3.25m11.97-5.25c1.35-2.17 1.14-3.44-.92-5.52-4.87-4.86-12.11 1.5-7.73 6.8 2.52 3.04 6.28 2.49 8.65-1.28M42.92 80.57c-5.4-5.43-5.4-14.24 0-19.68 8.76-8.76 23.61-2.56 23.61 9.84 0 7.94-5.87 13.82-13.79 13.82-4.03 0-7.06-1.23-9.82-3.98m16.2-3.45c1.39-1.41 2.54-4.27 2.54-6.39 0-3.79-3.76-8.94-6.52-8.94-.8 0-.23 2.1 1.23 4.68 2.5 4.36 2.5 4.96-.11 8.94-3.05 4.67-1.2 5.78 2.86 1.71" />
    <path fill="#fca022" d="M218.26 190.07c-11.85-1.71-30.22-7.16-38.59-11.44-9.64-4.92-17.8-13.17-36.24-36.61-26.84-34.15-33.6-37.94-61.61-34.61-20.95 2.49-37.71 1.35-50.05-3.36l-9.59-3.68 4.32-2.27c4.67-2.46 5.73-6.6 2.04-8.02-1.26-.49-4.69.36-7.61 1.87-5.17 2.68-5.4 2.67-8.26-.88-8.55-10.57 3.48-25.79 28.76-36.39 28.75-12.06 42.76-12.18 67.57-.5 8.63 4.06 18.55 9.97 22.05 13.14 3.51 3.17 12.33 14.52 19.62 25.22 16.65 24.4 26.79 35.57 37.82 41.62 7.49 4.1 10.8 4.83 24.22 5.38 20.72.87 32.52-1.77 73.85-16.48 88.61-31.56 106.17-30.38 226.22 15.17 85.87 32.58 110.72 36.94 181.65 31.85 39.59-2.83 85.56-3.4 89.18-1.12 1.75 1.12 1.2 1.98-2.43 3.87-7.08 3.66-15.7 5.61-37.16 8.41-49.92 6.48-91.91 6.5-159.84.06-45.39-4.29-136.6-10.84-163.34-11.74-29.81-.99-36.39-.24-90.62 10.28-57.85 11.23-86.76 13.87-111.96 10.23m26.77-17.71c1.79-1.79 3.25-5.08 3.25-7.32s-1.46-5.53-3.25-7.32c-1.78-1.79-5.06-3.25-7.3-3.25s-5.52 1.46-7.3 3.25c-1.79 1.79-3.25 5.08-3.25 7.32s1.46 5.53 3.25 7.32c1.78 1.79 5.06 3.25 7.3 3.25s5.52-1.46 7.3-3.25m-45.44-4.88c1.79-1.79 3.25-5.07 3.25-7.32 0-2.24-1.46-5.53-3.25-7.31-1.78-1.79-5.06-3.26-7.3-3.26s-5.52 1.47-7.3 3.26c-1.79 1.78-3.25 5.07-3.25 7.31 0 2.25 1.46 5.53 3.25 7.32 1.78 1.79 5.06 3.25 7.3 3.25s5.52-1.46 7.3-3.25m326.17-3.25c6.43-6.44 1.75-17.89-7.3-17.89-5.21 0-10.55 5.35-10.55 10.57 0 5.22 5.34 10.57 10.55 10.57 2.24 0 5.52-1.46 7.3-3.25m-236.92-3.25c1.79-1.79 3.25-5.08 3.25-7.32 0-2.25-1.46-5.53-3.25-7.32-1.78-1.79-5.06-3.25-7.3-3.25s-5.52 1.46-7.3 3.25c-1.79 1.79-3.25 5.07-3.25 7.32 0 2.24 1.46 5.53 3.25 7.32 1.78 1.78 5.06 3.25 7.3 3.25s5.52-1.47 7.3-3.25m193.11-6.51c6.42-6.44 1.75-17.88-7.3-17.88-5.21 0-10.55 5.34-10.55 10.56 0 5.22 5.34 10.57 10.55 10.57 2.23 0 5.51-1.46 7.3-3.25m-146.05-8.13c1.79-1.79 3.25-5.07 3.25-7.32 0-2.24-1.46-5.52-3.25-7.31-1.78-1.79-5.06-3.25-7.3-3.25s-5.52 1.46-7.3 3.25c-1.79 1.79-3.25 5.07-3.25 7.31 0 2.25 1.46 5.53 3.25 7.32 1.78 1.79 5.06 3.25 7.3 3.25s5.52-1.46 7.3-3.25m95.74-1.62c6.43-6.44 1.76-17.89-7.3-17.89-5.21 0-10.55 5.35-10.55 10.57 0 5.22 5.34 10.57 10.55 10.57 2.24 0 5.52-1.47 7.3-3.25m-45.43-4.88c1.78-1.79 3.24-5.08 3.24-7.32s-1.46-5.53-3.24-7.32c-1.79-1.79-5.07-3.25-7.31-3.25-2.23 0-5.51 1.46-7.3 3.25-1.78 1.79-3.24 5.08-3.24 7.32s1.46 5.53 3.24 7.32c1.79 1.79 5.07 3.25 7.3 3.25 2.24 0 5.52-1.46 7.31-3.25m-223.94-1.63c1.79-1.79 3.25-5.07 3.25-7.32 0-2.24-1.46-5.52-3.25-7.31-1.78-1.79-5.06-3.25-7.3-3.25s-5.52 1.46-7.3 3.25c-1.79 1.79-3.25 5.07-3.25 7.31 0 2.25 1.46 5.53 3.25 7.32 1.78 1.79 5.06 3.25 7.3 3.25s5.52-1.46 7.3-3.25m-24.34-30.89c1.79-1.79 3.25-5.08 3.25-7.32s-1.46-5.53-3.25-7.32c-1.78-1.79-5.06-3.25-7.3-3.25s-5.52 1.46-7.3 3.25c-1.79 1.79-3.25 5.08-3.25 7.32s1.46 5.53 3.25 7.32c1.78 1.79 5.06 3.25 7.3 3.25s5.52-1.46 7.3-3.25M62.56 80.57c8.74-8.78 2.56-23.66-9.82-23.66-7.92 0-13.79 5.89-13.79 13.82 0 7.94 5.87 13.82 13.79 13.82 4.02 0 7.06-1.23 9.82-3.98" />
    <path fill="#eb2e00" d="M56.18 75.54c2.22-3.39 2.35-4.89.78-8.34-2.34-5.17-1.43-6.45 2.07-2.94 3.35 3.35 3.38 9.56.09 12.86-4.01 4.02-5.93 2.99-2.94-1.58" />
    <path fill="#762b17" d="M233.75 168.39c-4.38-5.3 2.86-11.66 7.73-6.8 2.06 2.08 2.27 3.35.92 5.52-2.37 3.77-6.13 4.32-8.65 1.28M188.32 163.51c-4.38-5.3 2.85-11.66 7.72-6.79 2.06 2.08 2.27 3.35.93 5.51-2.37 3.77-6.14 4.32-8.65 1.28M514.48 160.26c-4.38-5.3 2.86-11.66 7.73-6.8 2.06 2.08 2.27 3.35.92 5.52-2.37 3.77-6.13 4.32-8.65 1.28M277.57 157.01c-4.39-5.3 2.85-11.66 7.72-6.8 2.06 2.08 2.27 3.35.93 5.51-2.37 3.78-6.14 4.33-8.65 1.29M470.67 150.5c-4.38-5.3 2.86-11.65 7.72-6.79 2.06 2.08 2.28 3.35.93 5.51-2.37 3.77-6.14 4.32-8.65 1.28M324.62 142.37c-4.38-5.3 2.86-11.65 7.73-6.79 2.06 2.08 2.27 3.35.92 5.51-2.37 3.77-6.13 4.32-8.65 1.28M420.37 140.75c-4.39-5.3 2.85-11.66 7.72-6.8 2.06 2.08 2.27 3.35.92 5.51-2.36 3.78-6.13 4.33-8.64 1.29M374.93 135.87c-4.38-5.3 2.85-11.66 7.72-6.8 2.06 2.08 2.27 3.35.93 5.52-2.37 3.77-6.14 4.32-8.65 1.28M150.99 134.24c-4.38-5.3 2.86-11.65 7.73-6.79 2.06 2.08 2.27 3.35.92 5.51-2.37 3.77-6.13 4.32-8.65 1.28M126.95 103.79c-2.96-2.96-2.44-5.89 1.44-7.95 4.69-2.52 9.61 1.92 6.91 6.23-2.25 3.56-5.79 4.29-8.35 1.72" />
</svg>