<svg xmlns="http://www.w3.org/2000/svg" width="350" height="740" version="1.0">
   <defs>
      <linearGradient id="prefix__a">
         <stop offset="0" stop-color="#c13c1b" />
         <stop offset=".839" stop-color="#c13c1b" stop-opacity=".498" />
         <stop offset="1" stop-color="#c13c1b" stop-opacity="0" />
      </linearGradient>
   </defs>
   <path d="M198.157 98.85l6.02-1.02 2.1-40.82c-2.308-.131-3.943-.772-5.85-.872l-2.27 42.711z" fill="#fff" fill-rule="evenodd" stroke="#000" stroke-width=".656" stroke-linecap="round" stroke-linejoin="round" />
   <path d="M204.291 97.794c16.118-1.938 26.306-.307 33.503-2.567 18.214-3.817 31.633-11.612 42.632-24.654 19.912-23.61 17.052-52.769 32.68-60.554-12.536-7.693-21.33 6.558-26.872 17.912-15.9 32.572-35.224 32.583-79.83 29.082" fill="#c13c1b" fill-rule="evenodd" stroke="#000" stroke-width=".656" stroke-linecap="round" stroke-linejoin="round" />
   <path d="M200.31 56.145c-5.962-.267-12.462.927-17.04 3.227l4.53-5.834c2.485-2.047.893-3.657-2.038-3.962-9.228-5.823-19.124-4.23-26.688.824-6.796 4.54-12.126 15.815-10.111 22.331.72 2.328 3.304-7.852 3.954-12.072-.463 3.16-1.643 8.178.763 7.374 1.687-.563 1.221-11.462 10.595-16.264 7.357-3.77 16.056-2.081 19.581 1.515-.552 1.724-4.74 5.669-8.326 8.665-6.699 5.599-8.29 14.644-2.676 19.087-5.913 8.355-2.41 13.503 2.026 18.335-6.427-1.375-11.878-3.553-15.174-8.216-3.048-4.312-3.812-10.665-4.534-10.814-.709-.054-.609 3.972-.577 6.053-1.45-3.253-1.584-10.175-2.446-9.14-1.824 2.186-1.533 11.639 7.443 19.638 7.106 4.884 10.66 8.54 21.892 6.364 2.763-.536-.428-2.69-4.115-7.146-.173-.208 2.155.774 2.418.91 3.835 1.977 8.826 3.618 18.231 1.893" fill="#fac53a" fill-rule="evenodd" stroke="#c13c1b" stroke-width=".656" stroke-linecap="round" stroke-linejoin="round" />
   <path d="M174.354 67.296c3.32-3.805 6.226-6.417 8.952-7.912" fill="none" stroke="#c13c1b" stroke-width=".656" stroke-linecap="round" stroke-linejoin="round" />
   <path d="M203.277 56.711l-2.045 41.52" fill="none" stroke="#000" stroke-width=".656" stroke-linecap="round" stroke-linejoin="round" />
   <path d="M173.935 91.484c.282 1.567 2.704 4.04 3.546 4.658" fill="none" stroke="#c13c1b" stroke-width=".656" stroke-linecap="round" stroke-linejoin="round" />
   <g color="#000" fill="#c13c1b" fill-rule="evenodd" stroke="#c13c1b" stroke-width="3" stroke-linecap="round" stroke-linejoin="round">
      <path style="marker:none" d="M-379.817 808.41a6.06 5.556 0 11-12.122 0 6.06 5.556 0 1112.122 0z" transform="rotate(4.417 509.305 3100.548) scale(.14153 .14942)" overflow="visible" />
      <path transform="rotate(4.417 718.453 3076.806) scale(.14153 .14942)" d="M-379.817 808.41a6.06 5.556 0 11-12.122 0 6.06 5.556 0 1112.122 0z" style="marker:none" overflow="visible" />
   </g>
   <path d="M281.419 274.33l16.503.962.546-30.38c.714-11.606.086-16.311-2.26-24.027-6.448-27.633-13.63-55.42-26.023-84.303-9.502-17.078-10.126-40.663-44.501-39.514-8.466-.372-16.945-.22-25.464 1.344-2.746 1.363-19.755 2.311-22.7 28.307 16.238-.327 20.46 5.744 35.72 11.874l3.605 2.235 4.38 11.938c-4.631 5.261-6.947 19.723-8.359 37.527-1.826 25.446-2.261 50.962-4.283 76.396l24.376.965 6.5-20.735 33.025-18.304c8.698 7.458 5.513 6.048 9.6 27.785-.354 5.155-.01 11.157-.665 17.93z" fill="#025" fill-rule="evenodd" stroke="#000" stroke-width=".205" stroke-linecap="round" stroke-linejoin="round" />
   <path d="M274.155 261.792l23.97 1.114-.211 12.357-24.607-.478.848-12.993z" fill="#fac53a" fill-rule="evenodd" stroke-linecap="round" stroke-linejoin="round" stroke="#c13c1b" stroke-width=".42" />
   <g fill="none" stroke="#c13c1b" stroke-width="3" stroke-linecap="round" stroke-linejoin="round">
      <path d="M275.104 263.437l21.675.825M275.029 265.387l21.675.825M275.029 267.487l21.675.825M274.954 269.437l21.675.825M275.029 271.462l21.675.675M274.879 273.562l21.75.525" stroke-width=".63" />
   </g>
   <path d="M147.698 723.62c23.779-5.526 41.441-16.17 48.103-21.243.148-.36.422-2.544.415-2.862l2.034-29.799h3.606l-1.91 28.001c-5.87 9.447-35.538 22.974-52.395 25.88l-9.015-.955c-1.052 2.667-2.535 6.653 3.606 7.505 60.093-.215 44.512-1.143 68.261-2 1.596 3.003 13.484 1.635 15.211 1.39 3.617-1.402 4.435-8.159 3.819-9.758-1.367-3.55-2.24-8.852-3.182-13.577-1.473-12.091-.6-24.182-.637-36.274 5.987-37.83 3.849-80.114 1.061-113.489 5.594-51.134 11.774-107.837 14-159.733 27.414-18.16-7.953-67.375-5.09-75.942 3.741-25.387 15.06-47.743 27.152-69.79h.424v2.333l-1.06 14.85c-.559 23.341 3.898 51.921 2.633 72.376-4.924 25.755-2.32 50.397.336 75.901l.213 12.94 19.303.425.849-12.94c3.411-22.415 5.344-44.83 4.242-67.245.4-2.706.314-4.949-.75-7.637 1.147-24.395 1.242-48.79.75-73.184l.213-14c.466-4.06 1.087-8.282 1.484-12.092 1.915-18.879-4.715-28.595-15.485-32.668-15.395-5.822-28.704-8.941-42.638-12.834l-39.904-4.773-42.19 15.91c-18.989 8-16.241 23.247-18.243 36.91l-3.606 14.425c-7.661 26.465-13.972 53.155-18.243 80.185-17.952 21.962-32.756 45.926-44.485 71.848l-5.4 9 10.8 10.5 7.5-9c14.273-14.147 36.825-36.432 47.7-62.4 3.352-2.297 4.221-6.597 4.766-9.413 12.175-28.257 20.966-68.458 24.3-85.349l3.033-15.186.9-2.25h.9v4.95c-1.388 6.55-2.212 13.1-2.4 19.65-1.398 3.239-1.951 4.708 1.2 5.1 1.428 4.342 7.503 10.9 9.9 12.9 9.812 6.863 7.687 15.062 6.6 22.8-11.225 79.877-21.417 114.682 1.8 228.596-1.858 13.574 1.2 24.2 1.8 36.3-3.18 30.599-5.59 61.198-5.4 91.798-.167 38.43-11.757 29.914-60.332 53.579l-7.637-.425c-2.31 2.876-.967 6.182.424 7.213l34.471.08c-5.562-1.43-3.762-4.785-2.924-7.55l9.117 1.022z" fill="#f5ca44" fill-rule="evenodd" stroke="#000" stroke-width=".42" stroke-linecap="round" stroke-linejoin="round" />
   <path d="M64.568 420.452c-7.607.454-16.967 2.371-23.982 11.688l-3.958 1.954c1.557 4.538 5.692 2.418 7.151.267-.928 1.936-.664 3.257 1.706 3.489-.682 1.824-.126 2.972 2.07 3.225-1.35 1.732-.117 3.491 1.948 3.312-.941 2.293.228 3.417 1.48 3.562 3.207 1.76 19.039-15.308 20.682-16.782" fill="#f5ca44" fill-rule="evenodd" stroke="#000" stroke-width=".21" stroke-linecap="round" stroke-linejoin="round" />
   <g fill-rule="evenodd" stroke="#000" stroke-linecap="round" stroke-linejoin="round">
      <path d="M270.063 522.252c2.643-.864 4.81-.533 6.894 0l-1.216-33.075 15.75 1.052c-.481-2.369-.644-4.737 0-7.106l-15.75 1.105h0c3.299-5.896 7.924-11.124 9.588-19.746 3.361-17.425-5.524-16.693-11.688-16.75-6.71-.06-16.616.99-12.495 17.492 1.896 7.59 6.517 13.56 10.246 19.004h0l-17.7-1.105c.594 2.369.536 4.737 0 7.106l17.7-1.052h0l-1.33 33.075z" fill="#025" stroke-width=".21" />
      <path d="M271.392 479.358c-3.402-4.619-6.666-9.131-7.488-15.089-1.662-12.042 4.59-13.387 9.65-13.418 4.497-.026 11.144.611 8.169 13.312-1.397 5.96-3.568 11.32-5.982 15.195-1.51 2.045-3.133 1.71-4.35 0z" fill="#fff" stroke-width=".21" />
   </g>
   <path d="M265.07 429.48c-.974 4.87-3.379 10.024-5.727 15.168-3.105 4.927-3.306 11.215-2.44 17.182l-.318 5.621c8.742 1.047.296-10.62 5.834-14.955l.848 8.061c1.585 1.509 3.148 2.703 4.455.318 1.556 1.743 3.111 1.617 4.667-.318 1.902 2.46 3.455.728 5.091 0 1.744 1.364 3.59 1.849 4.773-1.273.344-8.514 2.891-16.782 2.28-29.273" fill="#f5ca44" fill-rule="evenodd" stroke="#000" stroke-width=".21" stroke-linecap="round" stroke-linejoin="round" />
   <path d="M259.015 204.466l-26.786-7.795-39.166-4.193-27.784 10.413c4.997 22.963 23.07 34.203 45.132 34.974 20.897.727 30.727-4.517 37.644-11.678 6.575-6.807 9.734-15.344 10.96-21.721z" fill="#fff" fill-rule="evenodd" stroke="#000" stroke-width=".22449" stroke-linecap="round" stroke-linejoin="round" />
   <path style="marker:none" d="M247.882 201.21c-4.616 19.073-16.576 26.143-37.797 25.037-20.574-1.072-31.25-13.713-33.374-26.57l-.335-.942" color="#000" fill="none" stroke="#04a" stroke-width="4.001969999999999" stroke-linejoin="round" overflow="visible" />
   <path style="marker:none" d="M237.636 198.266c-4.235 14.92-12.947 18.07-26.994 17.347-13.18-.678-23.292-9.395-23.201-20.207l-.235-.733" color="#000" fill="none" stroke="#308d57" stroke-width="2.45574" overflow="visible" />
   <path style="marker:none" d="M244.468 200.276c-3.53 13.463-11.328 23.64-34.075 22.355-19.206-1.086-28.807-13.555-29.992-24.624l-.211-.688" color="#000" fill="none" stroke="#c13c1b" stroke-width="2.45574" overflow="visible" />
   <path style="marker:none" d="M234.298 197.232c-.072.23-.032.182-.106.42-2.068 6.676-4.924 15.974-23.496 14.33-12.599-1.115-19.168-8.72-19.555-15.743-.018-.518-.2-1.782-.22-2.434l-.136-.443" color="#000" fill="none" stroke="#04a" stroke-width="3.6017099999999997" overflow="visible" />
   <path style="marker:none" d="M241.036 199.312c-4.576 18.08-18.564 20.712-30.813 19.827-16.807-1.217-25.805-11.652-26.307-22.672l-.199-.527" color="#000" fill="none" stroke="#04a" stroke-width="3.6017099999999997" overflow="visible" />
   <path style="marker:none" d="M254.476 203.137c-5.286 20.224-17.287 31.228-43.591 29.957a91.154 91.154 0 01-.33-.016c-30.525-1.583-38.193-21.255-40.567-31.035l-.292-.745" color="#000" fill="none" stroke="#fac53a" stroke-width="8.98317" overflow="visible" />
   <g fill="none" stroke="#c13c1b">
      <path d="M199.952 233.822c.541-1.585.26-4.392-.134-6.233-1.319 1.308-3.154 3.495-3.63 4.995-.914 2.883 2.842 3.932 3.764 1.238z" stroke-width=".22457" />
      <path d="M199.466 233.623c.401-1.174.195-3.252-.093-4.614-.975.969-2.331 2.59-2.683 3.7-.677 2.136 2.093 2.91 2.776.914z" stroke-width=".22457" />
      <path d="M199.473 233.564a2.21 2.21 0 00-1.2-.968c-.67-.216-1.127-.095-1.509.07M199.63 231.434c-.195-.252-.63-.502-.843-.568-.232-.07-.728-.059-.957.001" style="marker:none" color="#000" stroke-linecap="round" stroke-linejoin="round" overflow="visible" stroke-width=".22457" />
   </g>
   <g fill="none" stroke="#c13c1b">
      <path d="M204.663 234.6c.386-1.631-.167-4.397-.736-6.191-1.186 1.429-2.802 3.784-3.13 5.323-.63 2.958 3.21 3.638 3.866.867z" stroke-width=".22457" />
      <path d="M204.16 234.448c.286-1.207-.12-3.255-.539-4.583-.876 1.059-2.07 2.804-2.312 3.943-.467 2.191 2.365 2.693 2.852.64z" stroke-width=".22457" />
      <path d="M204.161 234.389a2.21 2.21 0 00-1.287-.848c-.687-.15-1.13.016-1.495.216M204.112 232.253c-.218-.232-.675-.438-.895-.483-.237-.048-.73.012-.952.094" style="marker:none" color="#000" stroke-linecap="round" stroke-linejoin="round" overflow="visible" stroke-width=".22457" />
   </g>
   <g fill="none" stroke="#c13c1b">
      <path d="M195.153 232.465c.697-1.524.695-4.344.487-6.215-1.443 1.17-3.487 3.164-4.108 4.61-1.196 2.777 2.436 4.194 3.621 1.605z" stroke-width=".22457" />
      <path d="M194.69 232.218c.516-1.128.517-3.216.366-4.6-1.066.867-2.577 2.346-3.038 3.416-.886 2.058 1.794 3.102 2.672 1.184z" stroke-width=".22457" />
      <path d="M194.702 232.16a2.21 2.21 0 00-1.097-1.082c-.645-.281-1.112-.206-1.509-.08M195.071 230.056c-.17-.27-.577-.561-.783-.648-.224-.094-.718-.131-.953-.094" style="marker:none" color="#000" stroke-linecap="round" stroke-linejoin="round" overflow="visible" stroke-width=".22457" />
   </g>
   <g fill="none" stroke="#c13c1b">
      <path d="M214.128 235.15c.052-1.674-1.044-4.273-1.961-5.917-.876 1.637-1.987 4.268-2 5.842-.025 3.024 3.873 2.922 3.961.075z" stroke-width=".22457" />
      <path d="M213.606 235.103c.038-1.24-.77-3.165-1.447-4.382-.646 1.212-1.466 3.161-1.475 4.326-.02 2.24 2.856 2.164 2.922.056z" stroke-width=".22457" />
      <path style="marker:none" d="M213.595 235.045a2.21 2.21 0 00-1.431-.573c-.704-.009-1.106.242-1.422.511M213.119 232.962c-.261-.183-.75-.294-.974-.293-.242 0-.713.157-.914.282" color="#000" stroke-linecap="round" stroke-linejoin="round" overflow="visible" stroke-width=".22457" />
   </g>
   <g fill="none" stroke="#c13c1b">
      <path d="M218.692 235.129c-.015-1.675-1.212-4.23-2.193-5.836-.81 1.671-1.817 4.344-1.768 5.916.093 3.023 3.984 2.768 3.96-.08z" stroke-width=".22457" />
      <path d="M218.168 235.102c-.011-1.24-.894-3.132-1.618-4.322-.598 1.237-1.34 3.217-1.304 4.381.069 2.24 2.94 2.05 2.922-.059z" stroke-width=".22457" />
      <path d="M218.154 235.044a2.21 2.21 0 00-1.452-.515c-.704.019-1.095.284-1.401.566M217.597 232.983c-.268-.174-.76-.265-.984-.256-.243.01-.706.186-.903.318" style="marker:none" color="#000" stroke-linecap="round" stroke-linejoin="round" overflow="visible" stroke-width=".22457" />
   </g>
   <g fill="none" stroke="#c13c1b">
      <path d="M209.351 235.064c.239-1.658-.559-4.363-1.286-6.1-1.054 1.53-2.452 4.02-2.641 5.582-.364 3.002 3.52 3.337 3.927.518z" stroke-width=".22457" />
      <path d="M208.837 234.959c.177-1.228-.41-3.231-.947-4.517-.778 1.133-1.81 2.978-1.95 4.134-.27 2.224 2.596 2.47 2.897.383z" stroke-width=".22457" />
      <path d="M208.833 234.9a2.21 2.21 0 00-1.358-.73c-.698-.087-1.125.117-1.47.35M208.593 232.777c-.239-.211-.712-.376-.935-.4-.24-.028-.726.076-.94.178" style="marker:none" color="#000" stroke-linecap="round" stroke-linejoin="round" overflow="visible" stroke-width=".22457" />
   </g>
   <g fill="none" stroke="#c13c1b">
      <path d="M250.432 217.897c-1.37-.964-4.143-1.479-6.02-1.617.885 1.633 2.472 4.007 3.779 4.883 2.512 1.685 4.57-1.627 2.241-3.266z" stroke-width=".22457" />
      <path d="M250.105 218.307c-1.015-.713-3.066-1.097-4.455-1.202.657 1.207 1.834 2.963 2.802 3.612 1.86 1.248 3.378-1.196 1.653-2.41z" stroke-width=".22457" />
      <path style="marker:none" d="M250.05 218.284a2.21 2.21 0 00-1.264.88c-.395.584-.407 1.056-.356 1.47M248.05 217.537c-.297.117-.658.464-.781.651-.133.203-.26.682-.267.92" color="#000" stroke-linecap="round" stroke-linejoin="round" overflow="visible" stroke-width=".22457" />
   </g>
   <g fill="none" stroke="#c13c1b">
      <path d="M252.955 213.404c-1.459-.825-4.269-1.065-6.15-1.018 1.041 1.537 2.853 3.745 4.24 4.488 2.664 1.43 4.388-2.067 1.91-3.47z" stroke-width=".22457" />
      <path d="M252.67 213.844c-1.08-.61-3.16-.791-4.553-.759.773 1.136 2.116 2.769 3.143 3.32 1.974 1.059 3.245-1.522 1.41-2.56z" stroke-width=".22457" />
      <path d="M252.613 213.827a2.21 2.21 0 00-1.173 1c-.335.619-.3 1.09-.21 1.496M250.548 213.28c-.284.144-.609.525-.713.724-.113.215-.192.704-.175.94" style="marker:none" color="#000" stroke-linecap="round" stroke-linejoin="round" overflow="visible" stroke-width=".22457" />
   </g>
   <g fill="none" stroke="#c13c1b">
      <path d="M247.664 221.937c-1.213-1.156-3.879-2.075-5.715-2.49.634 1.746 1.852 4.33 3.014 5.389 2.235 2.038 4.761-.933 2.7-2.899z" stroke-width=".22457" />
      <path d="M247.28 222.295c-.898-.856-2.87-1.54-4.229-1.849.472 1.291 1.375 3.202 2.236 3.987 1.656 1.51 3.519-.682 1.993-2.138z" stroke-width=".22457" />
      <path style="marker:none" d="M247.229 222.264a2.21 2.21 0 00-1.381.683c-.477.518-.559.984-.57 1.4M245.36 221.228c-.31.072-.718.362-.868.529-.162.18-.358.636-.4.87" color="#000" stroke-linecap="round" stroke-linejoin="round" overflow="visible" stroke-width=".22457" />
   </g>
   <g fill="none" stroke="#c13c1b">
      <path d="M255.955 204.484c-1.602-.489-4.397-.113-6.224.341 1.35 1.275 3.598 3.037 5.113 3.462 2.912.817 3.835-2.971 1.111-3.803z" stroke-width=".22457" />
      <path d="M255.773 204.976c-1.187-.362-3.256-.087-4.609.247 1.001.941 2.667 2.243 3.789 2.558 2.156.606 2.837-2.19.82-2.805z" stroke-width=".22457" />
      <path d="M255.714 204.971a2.21 2.21 0 00-.928 1.231c-.193.677-.057 1.13.12 1.506M253.58 204.885c-.246.203-.481.646-.54.862-.063.234-.034.73.034.956" style="marker:none" color="#000" stroke-linecap="round" stroke-linejoin="round" overflow="visible" stroke-width=".22457" />
   </g>
   <g fill="none" stroke="#c13c1b">
      <path d="M254.592 208.857c-1.549-.639-4.367-.531-6.23-.253 1.224 1.397 3.294 3.365 4.76 3.933 2.822 1.09 4.102-2.593 1.47-3.68z" stroke-width=".22457" />
      <path d="M254.363 209.33c-1.147-.473-3.233-.397-4.611-.193.907 1.032 2.44 2.487 3.527 2.907 2.09.808 3.034-1.91 1.084-2.714z" stroke-width=".22457" />
      <path d="M254.304 209.32a2.21 2.21 0 00-1.04 1.136c-.257.656-.164 1.12-.024 1.511M252.188 209.03c-.264.179-.54.597-.618.807-.086.227-.104.722-.059.955" style="marker:none" color="#000" stroke-linecap="round" stroke-linejoin="round" overflow="visible" stroke-width=".22457" />
   </g>
   <g fill="none" stroke="#c13c1b">
      <path d="M240.542 228.64c-.833-1.454-3.127-3.095-4.77-4.015.112 1.854.543 4.677 1.355 6.024 1.562 2.59 4.83.462 3.415-2.01z" stroke-width=".22457" />
      <path d="M240.072 228.873c-.617-1.076-2.314-2.293-3.527-2.976.084 1.371.406 3.46 1.008 4.458 1.157 1.919 3.567.348 2.519-1.482z" stroke-width=".22457" />
      <path style="marker:none" d="M240.032 228.83a2.21 2.21 0 00-1.519.26c-.604.361-.815.785-.944 1.18M238.536 227.304c-.318-.02-.792.142-.983.26-.207.127-.525.507-.631.719" color="#000" stroke-linecap="round" stroke-linejoin="round" overflow="visible" stroke-width=".22457" />
   </g>
   <g fill="none" stroke="#c13c1b">
      <path d="M244.155 225.665c-1.058-1.298-3.588-2.545-5.358-3.186.41 1.811 1.295 4.527 2.315 5.724 1.962 2.302 4.84-.329 3.043-2.538z" stroke-width=".22457" />
      <path d="M243.729 225.972c-.784-.962-2.655-1.887-3.964-2.364.306 1.34.964 3.35 1.72 4.236 1.453 1.705 3.576-.236 2.244-1.872z" stroke-width=".22457" />
      <path d="M243.682 225.935a2.21 2.21 0 00-1.456.505c-.537.454-.677.906-.74 1.318M241.959 224.674c-.317.032-.759.268-.928.415-.184.16-.436.586-.506.813" style="marker:none" color="#000" stroke-linecap="round" stroke-linejoin="round" overflow="visible" stroke-width=".22457" />
   </g>
   <g fill="none" stroke="#c13c1b">
      <path d="M236.417 231.065c-.67-1.535-2.773-3.415-4.306-4.508-.09 1.855.032 4.709.694 6.136 1.272 2.744 4.751.982 3.612-1.628z" stroke-width=".22457" />
      <path d="M235.924 231.246c-.496-1.137-2.05-2.53-3.184-3.34-.064 1.372.03 3.484.52 4.54.942 2.033 3.508.733 2.664-1.2z" stroke-width=".22457" />
      <path style="marker:none" d="M235.89 231.198a2.21 2.21 0 00-1.539.096c-.64.293-.895.691-1.066 1.07M234.568 229.52c-.315-.054-.803.055-1.006.151-.22.104-.576.448-.705.647" color="#000" stroke-linecap="round" stroke-linejoin="round" overflow="visible" stroke-width=".22457" />
   </g>
   <g fill="none" stroke="#c13c1b">
      <path d="M227.697 233.983c-.298-1.648-1.91-3.963-3.15-5.38-.516 1.784-1.055 4.589-.74 6.13.604 2.964 4.395 2.053 3.89-.75z" stroke-width=".22457" />
      <path d="M227.176 234.046c-.221-1.221-1.412-2.936-2.327-3.986-.38 1.32-.776 3.397-.543 4.539.447 2.195 3.244 1.522 2.87-.553z" stroke-width=".22457" />
      <path d="M227.153 233.99a2.21 2.21 0 00-1.519-.261c-.69.137-1.03.466-1.285.795M226.254 232.053c-.293-.125-.794-.132-1.013-.085-.238.05-.665.303-.836.467" style="marker:none" color="#000" stroke-linecap="round" stroke-linejoin="round" overflow="visible" stroke-width=".22457" />
   </g>
   <g fill="none" stroke="#c13c1b">
      <path d="M232.099 232.788c-.458-1.611-2.289-3.757-3.66-5.046-.34 1.826-.602 4.67-.138 6.173.89 2.89 4.575 1.613 3.798-1.127z" stroke-width=".22457" />
      <path d="M231.586 232.901c-.34-1.193-1.692-2.783-2.705-3.739-.249 1.352-.44 3.457-.097 4.57.66 2.14 3.378 1.198 2.802-.83z" stroke-width=".22457" />
      <path style="marker:none" d="M231.558 232.849a2.21 2.21 0 00-1.537-.113c-.673.205-.98.565-1.2.918M230.474 231.008c-.304-.096-.803-.053-1.017.015-.23.073-.631.366-.785.546" color="#000" stroke-linecap="round" stroke-linejoin="round" overflow="visible" stroke-width=".22457" />
   </g>
   <g fill="none" stroke="#c13c1b">
      <path d="M223.282 234.742c-.121-1.67-1.478-4.143-2.56-5.684-.703 1.72-1.537 4.45-1.388 6.017.286 3.01 4.153 2.508 3.948-.333z" stroke-width=".22457" />
      <path d="M222.757 234.75c-.09-1.238-1.092-3.07-1.89-4.211-.518 1.273-1.132 3.295-1.022 4.455.212 2.23 3.064 1.859 2.912-.245z" stroke-width=".22457" />
      <path d="M222.74 234.692a2.21 2.21 0 00-1.482-.422c-.701.064-1.075.354-1.362.655M222.052 232.67c-.278-.156-.775-.215-.998-.192-.242.025-.693.23-.88.375" style="marker:none" color="#000" stroke-linecap="round" stroke-linejoin="round" overflow="visible" stroke-width=".22457" />
   </g>
   <g fill="none" stroke="#c13c1b">
      <path d="M186.385 228.572c1.003-1.342 1.597-4.1 1.788-5.972-1.656.839-4.076 2.357-4.989 3.638-1.756 2.462 1.496 4.615 3.201 2.334z" stroke-width=".22457" />
      <path d="M185.984 228.233c.743-.994 1.185-3.034 1.33-4.42-1.225.624-3.015 1.75-3.691 2.698-1.3 1.824 1.098 3.412 2.361 1.722z" stroke-width=".22457" />
      <path style="marker:none" d="M186.009 228.18a2.21 2.21 0 00-.844-1.29c-.571-.411-1.044-.437-1.458-.398M186.813 226.2c-.108-.3-.444-.67-.628-.798-.2-.14-.674-.28-.911-.293" color="#000" stroke-linecap="round" stroke-linejoin="round" overflow="visible" stroke-width=".22457" />
   </g>
   <g fill="none" stroke="#c13c1b">
      <path d="M190.56 230.79c.883-1.424 1.236-4.223 1.264-6.105-1.577.98-3.856 2.7-4.655 4.056-1.536 2.605 1.89 4.468 3.391 2.048z" stroke-width=".22457" />
      <path d="M190.131 230.487c.654-1.055.918-3.125.942-4.518-1.167.726-2.852 2.003-3.443 3.007-1.138 1.93 1.39 3.303 2.501 1.51z" stroke-width=".22457" />
      <path d="M190.15 230.43a2.21 2.21 0 00-.951-1.21c-.605-.361-1.078-.345-1.487-.27M190.781 228.39c-.134-.29-.501-.63-.695-.742-.21-.121-.696-.22-.933-.213" style="marker:none" color="#000" stroke-linecap="round" stroke-linejoin="round" overflow="visible" stroke-width=".22457" />
   </g>
   <g fill="none" stroke="#c13c1b">
      <path d="M182.406 225.884c1.193-1.176 2.195-3.813 2.666-5.636-1.764.58-4.384 1.717-5.48 2.846-2.106 2.171.785 4.788 2.814 2.79z" stroke-width=".22457" />
      <path d="M182.06 225.489c.884-.871 1.628-2.822 1.979-4.17-1.305.432-3.243 1.276-4.054 2.112-1.56 1.608.573 3.538 2.075 2.058z" stroke-width=".22457" />
      <path d="M182.093 225.439a2.21 2.21 0 00-.64-1.402c-.504-.492-.967-.588-1.382-.612M183.186 223.604c-.062-.313-.34-.73-.502-.885-.175-.167-.624-.378-.856-.427" style="marker:none" color="#000" stroke-linecap="round" stroke-linejoin="round" overflow="visible" stroke-width=".22457" />
   </g>
   <g fill="none" stroke="#c13c1b">
      <path d="M175.585 219.126c1.468-.806 3.151-3.07 4.102-4.694-1.856.077-4.686.456-6.048 1.243-2.619 1.514-.551 4.82 1.946 3.451z" stroke-width=".22457" />
      <path d="M175.36 218.652c1.088-.597 2.336-2.27 3.041-3.472-1.373.06-3.468.343-4.476.926-1.94 1.121-.414 3.56 1.435 2.546z" stroke-width=".22457" />
      <path style="marker:none" d="M175.405 218.613a2.21 2.21 0 00-.234-1.524c-.35-.61-.769-.83-1.162-.966M176.957 217.145c.026-.317-.127-.795-.241-.987-.123-.21-.498-.535-.708-.645" color="#000" stroke-linecap="round" stroke-linejoin="round" overflow="visible" stroke-width=".22457" />
   </g>
   <g fill="none" stroke="#c13c1b">
      <path d="M178.773 222.75c1.335-1.013 2.67-3.497 3.372-5.244-1.824.347-4.57 1.136-5.801 2.114-2.37 1.88.159 4.849 2.43 3.13z" stroke-width=".22457" />
      <path d="M178.481 222.313c.99-.75 1.98-2.587 2.502-3.879-1.35.26-3.381.846-4.294 1.57-1.754 1.393.111 3.583 1.792 2.309z" stroke-width=".22457" />
      <path d="M178.52 222.268a2.21 2.21 0 00-.454-1.473c-.435-.553-.882-.708-1.29-.786M179.841 220.59c-.02-.319-.242-.768-.383-.943-.152-.188-.57-.455-.794-.533" style="marker:none" color="#000" stroke-linecap="round" stroke-linejoin="round" overflow="visible" stroke-width=".22457" />
   </g>
   <g fill="none" stroke="#c13c1b">
      <path d="M173.073 215.215c1.502-.741 3.282-2.929 4.303-4.51-1.857-.005-4.702.25-6.097.978-2.682 1.398-.76 4.791 1.794 3.532z" stroke-width=".22457" />
      <path d="M172.87 214.732c1.112-.55 2.432-2.167 3.189-3.336-1.375 0-3.48.191-4.513.73-1.986 1.035-.569 3.538 1.323 2.606z" stroke-width=".22457" />
      <path style="marker:none" d="M172.915 214.694a2.21 2.21 0 00-.166-1.532c-.323-.625-.732-.862-1.12-1.015M174.53 213.296c.04-.316-.092-.8-.197-.997-.115-.214-.474-.555-.68-.675" color="#000" stroke-linecap="round" stroke-linejoin="round" overflow="visible" stroke-width=".22457" />
   </g>
   <g fill="none" stroke="#c13c1b">
      <path d="M169.378 206.542c1.609-.467 3.745-2.309 5.027-3.688-1.828-.329-4.673-.576-6.174-.105-2.885.907-1.589 4.585 1.147 3.793z" stroke-width=".22457" />
      <path d="M169.262 206.03c1.192-.346 2.775-1.707 3.725-2.725-1.353-.242-3.46-.422-4.57-.073-2.138.672-1.18 3.384.845 2.798z" stroke-width=".22457" />
      <path d="M169.314 206.001a2.21 2.21 0 00.105-1.537c-.209-.673-.57-.978-.924-1.196M171.149 204.908c.094-.305.05-.804-.02-1.017-.075-.23-.37-.63-.55-.783" style="marker:none" color="#000" stroke-linecap="round" stroke-linejoin="round" overflow="visible" stroke-width=".22457" />
   </g>
   <g fill="none" stroke="#c13c1b">
      <path d="M170.91 210.88c1.567-.593 3.549-2.6 4.716-4.077-1.848-.182-4.704-.201-6.162.39-2.804 1.133-1.217 4.696 1.447 3.687z" stroke-width=".22457" />
      <path d="M170.754 210.38c1.16-.44 2.63-1.923 3.495-3.015-1.368-.132-3.482-.143-4.562.294-2.076.84-.906 3.467 1.067 2.72z" stroke-width=".22457" />
      <path style="marker:none" d="M170.804 210.347a2.21 2.21 0 00-.02-1.54c-.26-.655-.645-.93-1.015-1.12M172.545 209.11c.07-.31-.015-.805-.1-1.012-.094-.224-.42-.598-.612-.736" color="#000" stroke-linecap="round" stroke-linejoin="round" overflow="visible" stroke-width=".22457" />
   </g>
   <path d="M259.015 204.466l-26.786-7.795-39.166-4.193-27.784 10.413c4.997 22.963 23.07 34.203 45.132 34.974 20.897.727 30.727-4.517 37.644-11.678 6.575-6.807 9.734-15.344 10.96-21.721z" fill="none" stroke="#000" stroke-width=".22449" stroke-linecap="round" stroke-linejoin="round" />
   <path d="M201.979 206.801c-9.708-5.887-6.833-8.549-11.711-25.604-4.653.07-11.44-.53-13.796-1.593-1.858-.838-2.45-1.853-3.04-3.967-.334-1.199.018-3.116.526-5.185-.654-.917-1.78-1.183-2.697-1.735-.82-1.083-.273-2.215-.15-2.7-.578-.661-1.23-1.706-.832-2.599.664-1.102.918-2.19.29-3.246-2.458-.235-6.94-1.748-4.571-7.194 2.136-4.91 5.463-10.371 8.3-15.622l3.304-10.553c5.754.02 33.414-.187 33.436 9.86l4.456 1 4.033 3.025-.035.12 3.9-.3c-2.11 7.492-4.304 9.756-7.815 68.947-2.567.264-8.47-.032-13.598-2.654z" fill="#f5ca44" fill-rule="evenodd" stroke="#000" stroke-width=".205" />
   <path d="M177.972 131.171c3.29-1.83 6.56-2.31 9.913-2.118 1.75.1 3.971.552 5.809 1.82 7.276 5.016 7.282 4.424 10.035 5.348.128.194.318.392.011.547-1.405-.117-3.37-.73-5.38-1.51-1.874-.727-3.923-2.486-6.842-3.458-2.152-.716-4.592-.797-6.903-.736-2.136.057-4.28.85-6.751 1.64-.565.181-2.077-.317.108-1.533zM176.7 139.297c2.921-3.117 5.587-3.764 7.9-3.992 3.536-.35 8.9.212 11.755 1.38 2.05.84 4.099.487 6.67 1.034.48.103.494.893.003.924-2.411.156-5.117-.252-7.196.51-2.536.931-5.285 2.08-7.028 2.707-1.683.605-3.886 1.023-7.405.128-1.158-.295-2.187-.412-3.421.116-3.077 1.317-3.054-.91-1.277-2.807z" fill-rule="evenodd" stroke="#000" stroke-width=".205" />
   <path d="M170.308 163.527c4.783-.431 6.219 1.734 10.491 1.682M171.334 168.724c5.319.166 6.632-2.23 9.72-2.93" fill="none" stroke="#000" stroke-width=".105" stroke-linecap="round" stroke-linejoin="round" />
   <path d="M171.076 166.068c1.751.371 6.3.063 7.918-.165" fill="none" stroke="#000" stroke-width=".21" stroke-linecap="round" stroke-linejoin="round" />
   <path d="M178.087 140.319c.78-1.43 1.949-1.668 2.98-2.33-.029 1.009.456 1.77 1.293 2.27-1.04-.006-3.711-.203-4.273.06zM190.225 136.99c-.016 1.261-.196 2.471-1.228 3.41 1.795-.29 3.57-1.73 5.026-3.072-1.26.27-2.425-.142-3.798-.338z" fill="#fff" fill-rule="evenodd" stroke="#000" stroke-width=".21" />
   <path d="M172.811 154.563c3.76 3.045 1.74 4.93-.037 4.852-1.758-.078-4.297-3.064-4.929-1.389-.638 1.692 2.85 1.09 2.798.611" fill="none" stroke="#000" stroke-width=".084" />
   <path d="M220.98 150.293c-3.62 2.232-8.033 24.31-8.16 37.745-1.774 25.17-2.178 50.616-4.178 75.77l24.377.964 2-67.234" fill="#025" fill-rule="evenodd" stroke="#000" stroke-width=".205" stroke-linecap="round" stroke-linejoin="round" />
   <path d="M198.266 669.716h27.417c5.987-37.83 3.795-79.902 1.008-113.277 5.594-51.134 11.773-107.837 14-159.733 27.414-18.16-7.954-67.375-5.09-75.942 2.239-15.193 7.334-28.202 13.543-41.808h-89.13c1.428 4.342 7.383 9.25 9.78 11.25 9.813 6.863 7.687 15.062 6.6 22.8-11.225 79.877-21.416 114.682 1.8 228.596-1.857 13.574 1.2 24.2 1.8 36.3-3.18 30.599-5.59 61.198-5.4 91.798l23.672.016z" fill="#c13c1b" fill-rule="evenodd" stroke="#000" stroke-width=".42" stroke-linecap="round" stroke-linejoin="round" />
   <path d="M248.338 279.466l-3.097 7.066h-79.016c-2.123-2.145-4.323-4.7-5.512-7.066h87.625z" fill="#fff" fill-rule="evenodd" stroke="#fff" stroke-width=".63" />
   <path d="M161.044 280.583h87.188M166.229 286.678h79.236M164.413 285.03h81.823" fill="none" stroke="#000" stroke-width=".42" stroke-linecap="round" stroke-linejoin="round" />
   <g fill="none" stroke="#000" stroke-width="2" stroke-linecap="round" stroke-linejoin="round">
      <path d="M165.846 280.775v4.027M167.742 280.775v4.027M169.75 280.775v4.027" stroke-width=".42" />
   </g>
   <g fill="none" stroke="#000" stroke-width="2" stroke-linecap="round" stroke-linejoin="round">
      <path d="M180.593 280.775v4.027M182.488 280.775v4.027M184.497 280.775v4.027" stroke-width=".42" />
   </g>
   <g fill="none" stroke="#000" stroke-width="2" stroke-linecap="round" stroke-linejoin="round">
      <path d="M194.768 280.775v4.027M196.664 280.775v4.027M198.673 280.775v4.027" stroke-width=".42" />
   </g>
   <g fill="none" stroke="#000" stroke-width="2" stroke-linecap="round" stroke-linejoin="round">
      <path d="M209.244 280.775v4.027M211.14 280.775v4.027M213.148 280.775v4.027" stroke-width=".42" />
   </g>
   <g fill="none" stroke="#000" stroke-width="2" stroke-linecap="round" stroke-linejoin="round">
      <path d="M224.558 280.775v4.027M226.453 280.775v4.027M228.462 280.775v4.027" stroke-width=".42" />
   </g>
   <g fill="none" stroke="#000" stroke-width="2" stroke-linecap="round" stroke-linejoin="round">
      <path d="M238.134 280.775v4.027M240.03 280.775v4.027M242.038 280.775v4.027" stroke-width=".42" />
   </g>
   <path d="M226.186 662.5l-.975 6.995-50.153-.159.062-6.854 51.066.017z" fill="#fff" fill-rule="evenodd" stroke="#fff" stroke-width=".63" />
   <path d="M174.568 663.546h51.834M174.864 669.641h50.721M174.568 667.993h51" fill="none" stroke="#000" stroke-width=".42" stroke-linecap="round" stroke-linejoin="round" />
   <g fill="none" stroke="#000" stroke-width="2" stroke-linecap="round" stroke-linejoin="round">
      <path d="M177.71 663.738v4.027M179.605 663.738v4.027M181.614 663.738v4.027" stroke-width=".42" />
   </g>
   <g fill="none" stroke="#000" stroke-width="2" stroke-linecap="round" stroke-linejoin="round">
      <path d="M190.507 663.738v4.027M192.402 663.738v4.027M194.41 663.738v4.027" stroke-width=".42" />
   </g>
   <g fill="none" stroke="#000" stroke-width="2" stroke-linecap="round" stroke-linejoin="round">
      <path d="M204.664 663.738v4.027M206.56 663.738v4.027M208.568 663.738v4.027" stroke-width=".42" />
   </g>
   <g fill="none" stroke="#000" stroke-width="2" stroke-linecap="round" stroke-linejoin="round">
      <path d="M218.599 663.738v4.027M220.495 663.738v4.027M222.503 663.738v4.027" stroke-width=".42" />
   </g>
   <path d="M174.652 662.137h51.958" fill="none" stroke="#000" stroke-width=".42" stroke-linecap="round" stroke-linejoin="round" />
   <g fill-rule="evenodd" stroke="#000" stroke-linecap="round" stroke-linejoin="round">
      <path d="M156.851 206.117l12.426 72.88h12.494l-18.283-75.392-6.637 2.512z" fill="#fff" stroke-width=".21" />
      <path d="M158.013 205.67l13.177 73.326h8.781l-17.84-74.896-4.118 1.57z" fill="#c13c1b" stroke-width=".21" />
   </g>
   <g fill-rule="evenodd" stroke="#000" stroke-linecap="round" stroke-linejoin="round">
      <path d="M258.611 204.384l-22.578 74.572h10.5l18.027-72.595-5.949-1.977z" fill="#fff" stroke-width=".21" />
      <path d="M259.795 204.774l-21.853 74.182h6.682l18.655-73.073-3.484-1.109z" fill="#c13c1b" stroke-width=".21" />
   </g>
   <g fill-rule="evenodd" stroke="#000" stroke-linecap="round" stroke-linejoin="round">
      <path d="M132.827 245.397l26.278 5.302-2.94 14.559-27.1-5.24 3.762-14.621z" fill="#fac53a" stroke-width=".21" />
      <path d="M132.388 247.068l26.382 5.467-.98 4.792-26.627-5.53 1.225-4.73zM130.797 253.485l26.607 5.617-.98 4.452-26.852-5.34 1.225-4.73z" fill="#04a" stroke-width=".21" />
   </g>
   <g fill-rule="evenodd" stroke="#000" stroke-linecap="round" stroke-linejoin="round">
      <path d="M66.903 411.126l13.374 10.313-8.41 9.88-10.846-10.614 5.882-9.579z" fill="#fac53a" stroke-width=".21" />
      <path d="M66.112 412.414l12.871 10.32-2.48 2.93-12.1-10.333 1.709-2.917zM63.46 416.656l12.122 10.245-2.481 2.931-11.35-10.259 1.709-2.917z" fill="#04a" stroke-width=".21" />
   </g>
   <g stroke="#c13c1b" stroke-width="2">
      <path d="M209.456 251.186l23.97 1.114-.477 12.41-24.342-.531.849-12.993z" fill="#fac53a" fill-rule="evenodd" stroke-linecap="round" stroke-linejoin="round" stroke-width=".42" />
   </g>
   <path d="M261.362 116.39l-21.4 58.559-9.02-3.836 26.134-57.489c-17.765 5.831-53.386 3.35-76.898 1.681.649-1.762 2.509-5.344 2.696-5.344 34.758 3.786 67.594.92 73.532-1.195" fill="#fff" fill-rule="evenodd" stroke="#000" stroke-width=".21" stroke-linecap="round" stroke-linejoin="round" />
   <path d="M257.668 108.941c.313-.252.412-.469.426-.671 2.379-8.936 7.48-8.691 9.308-7.256 4.89 4.267-.155 6.341-4.37 12.087l28.831 59.086-7.609 3.256-23.492-59.053-21.85 58.034-6.994-2.936 26.608-59.246c-15.73 6.698-54.052 4.185-78.134 2.367.808-1.762 1.724-3.667 1.938-3.905 34.759 3.785 69.4.352 75.338-1.763z" fill="#d40000" fill-rule="evenodd" />
   <path d="M262.632 110.357c-1.019-2.564.185-4.735 1.686-5.593" fill="none" stroke="#000" stroke-width=".21" />
   <path d="M260.65 116.39c-1.978-4.809-3.137-6.389-2.616-8.117 2.7-8.948 7.428-8.694 9.255-7.259 4.89 4.267-.154 6.341-4.37 12.087l28.832 59.086-7.61 3.256s-16.643-42.402-23.491-59.053z" fill="none" stroke="#000" stroke-width=".21" stroke-linecap="round" stroke-linejoin="round" />
   <path d="M170.86 158.65c-1.322-.784-2.593-1.742-3.015-.624-.638 1.692 2.85 1.09 2.798.611" fill-rule="evenodd" stroke="#000" stroke-width=".084" />
   <g stroke="#000">
      <path d="M219.28 142.504c-3.653-2.282-3.81-5.887-2.63-7.87 2.825-4.753 5.05-5.618 7.176-5.057 4.112 1.086 3.624 6.183 2.757 10.548-.842 4.237-4.14 7.125-5.921 10.683-1.109 2.214-1.613 3.744-2.347 4.578-.85.965-2.338 2.372-4.43 1.423-2.306-1.046-1.803-3.878-.669-7.453.9-2.834 3.594-5.22 4.962-6.041" fill="#f5ca44" fill-rule="evenodd" stroke-width=".20454" />
      <path d="M216.4 150.346c-.966-.302 2.075-2.944 3.642-5.325 2.022-3.072-.154-4.456-1.149-6.338-1.637-3.097 1.028-7.834 3.861-7.115 3.372.856 4.836 5.2.704 11.733-1.856 2.933-4.94 7.706-7.058 7.045z" fill="none" stroke-width=".21" />
      <path style="marker:none" d="M216.717 153.933a1.312 1.425 0 11-2.625 0 1.312 1.425 0 112.625 0z" color="#000" fill="none" stroke-linecap="round" stroke-linejoin="round" overflow="visible" stroke-width=".21" />
   </g>
   <path d="M178.502 180.197c12.135 1.963 17.545.663 22.006-2.377M191.347 184.763c3.104-.138 6.133-1.401 9.15-2.7M192.247 188.583c4.104.774 6.762-1.538 9.75-2.85" fill="none" stroke="#000" stroke-width=".105" />
   <g fill-rule="evenodd" stroke="#000" stroke-linecap="round" stroke-linejoin="round">
      <path d="M263.1 253.82l26.786 1.096-.234 14.99-27.663-.636 1.112-15.45z" fill="#fac53a" stroke-width=".21" />
      <path d="M262.93 255.538l26.915 1.243-.064 4.887-27.015-1.267.165-4.863zM262.445 262.126l27.236 1.355-.043 4.626-27.582-.818.39-5.163z" fill="#04a" stroke-width=".21" />
   </g>
   <g fill-rule="evenodd" stroke="#000" stroke-linecap="round" stroke-linejoin="round">
      <path d="M174.219 677.234l23.273 1.01-1.105 14.915-24.694-1.424 2.526-14.5z" fill="#fac53a" stroke-width=".21" />
      <path d="M173.958 678.784l23.43 1.25-.237 4.214-24.023-.802.83-4.662zM172.873 685.52l24.044 1.104-.293 4.362-24.604-.761.853-4.705z" fill="#04a" stroke-width=".21" />
   </g>
   <g fill-rule="evenodd" stroke="#000" stroke-linecap="round" stroke-linejoin="round">
      <path d="M201.23 679.362l24.355-.058-.156 14.95-25.316-.29 1.116-14.602z" fill="#fac53a" stroke-width=".21" />
      <path d="M201.093 680.922l24.47.175-.043 4.22-24.671.3.244-4.695zM200.636 687.7l24.812.002-.093 4.746-25.143-.008.424-4.74z" fill="#04a" stroke-width=".21" />
   </g>
   <g fill-rule="evenodd" stroke="#000" stroke-linecap="round" stroke-linejoin="round">
      <path d="M265.087 416.806l20.417.159-.848 12.887-19.463-.743-.106-12.303z" fill="#fac53a" stroke-width=".21" />
      <path d="M265.087 418.662l20.258.265-.208 3.981-19.997-.314-.053-3.932z" fill="#04a" stroke-width=".21" />
      <path d="M265.087 416.806l20.417.159-.848 12.887-19.463-.743-.106-12.303z" fill="#fac53a" stroke-width=".21" />
      <path d="M265.087 418.662l20.258.265-.208 3.981-19.997-.314-.053-3.932zM265.087 423.837l19.94.265-.209 3.981-19.678-.314-.053-3.932z" fill="#04a" stroke-width=".21" />
   </g>
   <g fill="none" stroke="#c13c1b" stroke-width="3" stroke-linecap="round" stroke-linejoin="round">
      <path d="M210.192 252.556l21.675.825M210.117 254.506l21.675.825M210.117 256.606l21.675.825M210.042 258.556l21.675.825M210.117 260.58l21.675.676M209.967 262.68l21.75.526" stroke-width=".63" />
   </g>
   <path d="M39.983 240.145c.702-6.984-.397-13.116 2.472-21.608 3.5-10.364 6.996-12.16 11.072-17.606 1.544-1.261 4.086.057 3.252 2.456-4.727 4.403-8.102 10.415-9.48 13.847 1.419-.16 8.248-.685 8.4 6.392l-.023 483.219c7.604 8.726 1.068 15.432 1.477 23.013-.777.374-1.394.135-1.473-.526-1.018-8.295 1.812-11.913-.05-16.227-.891-2.062-2.557-1.966-3.528-.21-2.092 3.782.838 6.109.074 16.356-.056.746-.97.962-1.342.514-.476-7.616-5.74-14.035 1.228-22.928l-.008-482.633c-.393-3.948-4.664-4.371-6.786.09-2.486 5.23-1.432 10.65-2.099 15.974-1.104 3.43-3.374 2.108-3.186-.123z" fill="#025" fill-rule="evenodd" stroke="#000" stroke-width=".21" stroke-linecap="round" stroke-linejoin="round" />
   <g fill-rule="evenodd" stroke="#000" stroke-linecap="round" stroke-linejoin="round">
      <path d="M53.972 427.402c2.876-1.802 6.043-1.184 3.228 1.627 2.371-1.859 6.8-1.075 1.961 2.738 4.276-2.042 4.187 1.245 1.938 2.886 2.887-1.41 3.365 1.289.33 3.696-3.102 3.182-6.687 6.395-10.149 9.52-.064.056-.145.087-.268.062-1.252-.144-2.413-1.146-1.472-3.439-2.066.18-3.298-1.58-1.949-3.313-2.195-.253-2.751-1.4-2.07-3.224-2.37-.233-2.901-1.22-1.972-3.156.114-.159.221-.279.324-.368 3.693-3.297 7.02-5.602 10.009-6.987m.644-.313c-.3.876.48 2.184 1.992 2.354m.651-.33c-.708.995.932 2.603 1.902 2.639m.262-.121c-1 1.019.086 3.482 2.097 2.687m-.37.337c-.629 1.123.2 2.423 1.228 2.778M47.6 441.178c.417-.238 11.583-9.394 11.583-9.394m-13.558 6.12c.612-.51 11.617-8.886 11.617-8.886m-7.654 15.46l11.59-9.875" fill="#f5ca44" stroke-width=".21" />
      <path d="M57.17 429.156c-.19.105-.243.346-.652.328-1.847-.173-2.109-2.039-2.007-2.359 2.69-1.403 5.346-.667 2.714 1.962 2.37-1.86 6.775-1.133 1.936 2.68 4.276-2.042 4.246 1.167 1.997 2.808 2.566-1.254 3.17.817 1.142 2.933-1.04-.388-1.869-1.688-1.128-2.917-1.9.689-2.839-1.9-1.97-2.858-1.102.025-2.741-1.583-2.033-2.577z" fill="#fff" stroke-width=".21" />
   </g>
   <path d="M58.042 426.724c-1.709-.824-4.16.257-9.705 4.057l-.424-5.516c5.729-3.138 8.235-3.943 12.993-4.48" fill="#f5ca44" fill-rule="evenodd" />
   <path d="M48.337 430.78c5.546-3.799 8.071-4.88 9.78-4.056m2.736-5.913c-4.758.538-7.305 1.232-13.034 4.53" fill="none" stroke="#000" stroke-width=".21" />
</svg>