<svg xmlns="http://www.w3.org/2000/svg" width="350" height="820" version="1.0">
   <path d="M280.015 598.961l-.307 12.343c.092 17.745.562 36.573 4.167 49.573l19.3 143.75 11.118-1.236c-8.34-48.112-10.088-94.906-15.132-142.36-3.038-31.148-9.486-22.25-19.146-62.07z" fill="#fac53a" fill-rule="evenodd" stroke="#c13c1b" stroke-width=".432" />
   <path d="M311.275 321.926h-30.133m30.679 9.062l-30.243.436" fill="none" stroke="#000" stroke-width=".216" />
   <path d="M229.886 261.046l39.73.702c19.383 6.146 34.85 13.406 40.869 34.502 2.172 12.132.178 16.432.926 25.631l.618 9.573c1.33 20.65 1.876 41.458.309 62.688-1.256 18.426 2.697 38.087 3.088 56.512-.628 15.45-4.375 26.909-5.096 40.415l-19.3-1.505c-8.86-49.93-3.742-66.268-5.867-89.246-3.22-28.03-3.231-55.26-4.324-82.76-11.899 21.466-24.346 42.2-31.19 70.408v4.67l6.486 29.917c3.48 4.881 13.453 27.038 6.212 39.67 8.264 48.38 12.168 97.852 11.699 146.232l.617 15.749c1.314 21.452 9.939 42.913 9.573 66.393-.366 23.48-4.595 46.461-7.72 68.864-1.184 25.837 2.385 30.425 1.491 39.849-.894 9.423-6.162 8.991-11.533 8.931-5.473-.061-10.785-.987-10.974-4.595-5.652-1.587-13.63 4.933-72.263 2.662-2.538-.344-2.726-4.075-2.96-6.724 2.614-.713 5.325-1.043 8.229-.595 19.497-9.53 38.654-13.62 58.673-31.499.948-.981 1.746-2.3 1.544-5.867-2.523-35.346-10.216-72.039-13.278-107.465l-.927-5.558c-2.707-6.919-5.105-15.692-8.338-19.455-1.311-7.206-1.854-14.411-6.485-21.617l-14.931-.309c-6.778 19.142-7.697 26.922-11.735 39.837-3.147 18.89-.326 26.912-4.832 41.997-4.543 15.21-14.255 34.955-21.925 49.718-4.702 12.669-11.177 26.046-13.33 37.752-.617 7.54.635 13.363-.259 22.787-.893 9.423-6.162 8.991-11.532 8.931-5.474-.061-10.785-.987-10.974-4.595-5.653-1.587-13.631 4.933-72.263 2.662-2.539-.344-2.727-4.075-2.96-6.724 2.614-.713 5.324-1.043 8.228-.595 19.497-9.53 43.904-14.856 63.897-32.734 1.93-2.156 2.544-4.532 3.28-6.887l22.634-109.224c.029-11.065-1.372-21.58 3.706-34.587l.309-8.646L175.68 436.07l-2.074-7.225c-2.65-6.114-.76-12.588-.85-18.336-2.217-17.228-5.72-34.134-9.572-50.953-2.438-5.673-4.693-12.494-6.507-19.662-1.791-.695-2.317-2.68-1.084-4.556-1.216-5.466-2.153-11.033-2.704-16.362l-.822-.183-1.224 11.04c-.477 2.676-.396 5.31-.856 7.94-3.447 19.673-7.005 39.094-18.982 73.803l-3.979 8.724c-9.02 26.126-22.207 46.39-35.88 65.973l-17.032-12.271c9.843-24.333 16.773-49.597 31.63-72.328l2.653-6.442c1.046-18.874 3.392-45.47 8.431-66.334l1.971-15.639c-5.587-25.87 6.441-43.13 29.366-46.96l37.863-7.364" fill="#a13c2a" fill-rule="evenodd" stroke="#000" stroke-width=".432" stroke-linecap="round" stroke-linejoin="round" />
   <g fill-rule="evenodd" stroke="#000" stroke-linecap="round" stroke-linejoin="round">
      <path d="M-2306.297 184.523l126.243 8.061-.277 76.804-129.037-11.151 3.07-73.714z" fill="#fac53a" transform="matrix(.23889 -.01891 .0161 .22474 828.86 234.627)" />
      <path d="M-2306.69 192.987l126.446 10.278-.033 22.472-127.353-9.681.94-23.07zm-.92 31.366l127.059 11.038.146 24.403-128.228-10.692 1.023-24.749z" fill="#04a" transform="matrix(.23889 -.01891 .0161 .22474 828.86 234.627)" />
   </g>
   <path d="M282.626 609.263c-.447-2.634-1.628-5.47-2.009-8.516-4.272-34.2-4.916-92.64-15.083-137.459 2.938-8.146 1.788-17.4-.399-25.109-2.16-7.61-5.229-13.556-6.802-15.793-1.138-5.323-4.491-21.112-5.654-32.29a1.08 1.08 0 00-1.095-.986h0a1.08 1.08 0 00-1.054 1.21c1.195 11.483 4.618 27.496 5.729 32.694.033.15.097.29.189.412 1.148 1.568 4.461 7.781 6.606 15.341 2.146 7.56 3.184 16.555.352 24.096a1.08 1.08 0 00-.04.614c8.55 37.497 10.41 84.89 13.396 119.58.87 10.114 2.725 19.264 3.093 26.543" fill="#fac53a" fill-rule="evenodd" stroke="#000" stroke-width=".216" stroke-linecap="round" stroke-linejoin="round" />
   <path d="M156.798 607.93l16.833-171.093 88.382-.891c1.158 4.702 6.011 14.323.463 26.557 7.642 48.321 12.4 97.275 11.37 145.307l-117.048.12z" fill="#fff" fill-rule="evenodd" stroke="#000" stroke-width=".432" />
   <path d="M273.84 608.148c-90.462-15.205-106.956-83.4-100.209-171.31l82.405-14.567c7.817 13 12.343 30.673 6.468 40.178 7.66 48.434 12.394 97.555 11.335 145.699z" fill="#fac53a" fill-rule="evenodd" stroke="#000" stroke-width=".216" />
   <path d="M153.208 265.216l32.876-6.574 46.534-3.71 35.83 7.407c-6.735 33.983-29.78 46.135-56.481 46.728-25.289.558-37.1-5.937-45.357-14.706-7.848-8.335-12.017-21.411-13.402-29.145z" fill="#fff" fill-rule="evenodd" stroke="#000" stroke-linecap="round" stroke-linejoin="round" stroke-width=".272" />
   <path d="M166.941 262.468c4.956 24.507 19.253 33.587 45.6 32.55 26.412-1.04 39.559-17.992 41.17-34.45-.009-.222-.016-.547.115-1.128" style="marker:none" color="#000" fill="none" stroke="#04a" stroke-width="4.841" stroke-linejoin="round" overflow="visible" />
   <path d="M179.478 260.12c4.82 18.648 15.354 22.692 32.552 22.026 16.068-.622 27.977-11.153 27.858-24.364-.042-.503.136-.833.1-1.133" style="marker:none" color="#000" fill="none" stroke="#308d57" stroke-width="3.674" overflow="visible" />
   <path d="M171.262 261.882c3.622 17.165 12.732 29.993 40.96 28.757 24.574-1.076 36.363-17.699 36.835-31.59-.016-.062-.017-.355.046-.648" style="marker:none" color="#000" fill="none" stroke="#c13c1b" stroke-width="2.971" overflow="visible" />
   <path d="M183.566 259.205c2.44 8.14 5.164 20.31 28.454 18.548 15.258-1.155 22.631-10.254 23.207-18.743.047-.965.04-3.107.157-3.388" style="marker:none" color="#000" fill="none" stroke="#04a" stroke-width="4.357" overflow="visible" />
   <path d="M175.268 260.846c4.875 23.183 22.08 26.472 37.215 25.572 20.56-1.227 31.622-13.958 32.192-27.434.018-.247.014-1.17.131-1.545" style="marker:none" color="#000" fill="none" stroke="#04a" stroke-width="4.357" overflow="visible" />
   <path d="M158.75 264.261c5.384 26.016 19.893 40.195 52.718 39.028l.387-.015h.011c43.57-1.704 49.082-34.322 50.663-41.916" style="marker:none" color="#000" fill="none" stroke="#fac53a" stroke-width="10.867" overflow="visible" />
   <path d="M153.208 265.216l32.876-6.574 46.534-3.71 35.83 7.407c-6.735 33.983-29.78 46.135-56.481 46.728-25.289.558-37.1-5.937-45.357-14.706-7.848-8.335-12.017-21.411-13.402-29.145z" fill="none" stroke="#000" stroke-width=".543" stroke-linecap="round" stroke-linejoin="round" />
   <g fill="none" stroke="#c13c1b" stroke-width=".272">
      <path d="M224.682 304.337c-.631-1.926-.247-5.316.257-7.537 1.576 1.601 3.763 4.276 4.314 6.098 1.062 3.501-3.497 4.713-4.571 1.439z" />
      <path d="M225.272 304.104c-.467-1.427-.186-3.936.184-5.58 1.164 1.187 2.78 3.169 3.189 4.518.786 2.593-2.577 3.486-3.373 1.062z" />
      <path style="marker:none" d="M225.265 304.032a2.675 2.675 0 011.466-1.152c.813-.25 1.365-.097 1.825.107m-3.449-1.534c.24-.302.77-.597 1.03-.673.281-.083.88-.06 1.157.016" color="#000" stroke-linecap="round" stroke-linejoin="round" overflow="visible" />
   </g>
   <g fill="none" stroke="#c13c1b" stroke-width=".272">
      <path d="M218.97 305.205c-.44-1.978.27-5.315.987-7.477 1.412 1.747 3.33 4.62 3.703 6.487.717 3.588-3.938 4.352-4.69.99z" />
      <path d="M219.58 305.03c-.326-1.465.197-3.936.724-5.536 1.043 1.294 2.46 3.423 2.736 4.806.531 2.657-2.903 3.22-3.46.73z" />
      <path style="marker:none" d="M219.58 304.958c.206-.28.736-.835 1.57-1.005.835-.17 1.369.036 1.807.284m-3.284-1.861c.268-.278.824-.52 1.09-.57.288-.056.883.025 1.15.127" color="#000" stroke-linecap="round" stroke-linejoin="round" overflow="visible" />
   </g>
   <g fill="none" stroke="#c13c1b" stroke-width=".272">
      <path d="M230.507 302.769c-.819-1.854-.773-5.265-.493-7.525 1.727 1.437 4.169 3.881 4.899 5.639 1.404 3.379-3.012 5.037-4.406 1.886z" />
      <path d="M231.071 302.478c-.606-1.373-.576-3.898-.371-5.57 1.276 1.065 3.08 2.877 3.622 4.179 1.04 2.502-2.219 3.725-3.25 1.391z" />
      <path style="marker:none" d="M231.057 302.408a2.675 2.675 0 011.344-1.292c.785-.33 1.349-.233 1.826-.075m-3.583-1.184c.209-.324.706-.67.957-.772.272-.11.871-.148 1.154-.099" color="#000" stroke-linecap="round" stroke-linejoin="round" overflow="visible" />
   </g>
   <g fill="none" stroke="#c13c1b" stroke-width=".272">
      <path d="M207.512 305.726c-.036-2.026 1.329-5.153 2.464-7.128 1.034 1.994 2.338 5.194 2.33 7.097-.017 3.66-4.73 3.476-4.794.03z" />
      <path d="M208.145 305.677c-.026-1.5.98-3.817 1.818-5.28.763 1.478 1.724 3.848 1.718 5.257-.012 2.71-3.489 2.574-3.536.023z" />
      <path d="M208.16 305.606c.257-.233.888-.67 1.74-.67.85 0 1.333.309 1.712.64m-2.845-2.481c.319-.218.911-.344 1.182-.34.294.003.86.2 1.102.355" style="marker:none" color="#000" stroke-linecap="round" stroke-linejoin="round" overflow="visible" />
   </g>
   <g fill="none" stroke="#c13c1b" stroke-width=".272">
      <path d="M201.992 305.63c.044-2.026 1.53-5.097 2.743-7.026.955 2.034 2.131 5.283 2.048 7.184-.16 3.655-4.863 3.286-4.79-.158z" />
      <path d="M202.627 305.606c.032-1.5 1.13-3.776 2.024-5.204.704 1.506 1.571 3.912 1.51 5.32-.119 2.708-3.588 2.435-3.534-.116z" />
      <path style="marker:none" d="M202.644 305.536a2.675 2.675 0 011.765-.601c.85.033 1.32.36 1.686.706m-2.745-2.591c.327-.205.924-.308 1.195-.294.293.016.85.236 1.086.4" color="#000" stroke-linecap="round" stroke-linejoin="round" overflow="visible" />
   </g>
   <g fill="none" stroke="#c13c1b" stroke-width=".272">
      <path d="M213.292 305.696c-.262-2.01.744-5.27 1.65-7.36 1.252 1.867 2.905 4.9 3.11 6.793.393 3.637-4.311 3.983-4.76.567z" />
      <path d="M213.916 305.576c-.195-1.488.547-3.903 1.215-5.45.923 1.383 2.144 3.63 2.296 5.032.291 2.694-3.18 2.948-3.511.418z" />
      <path style="marker:none" d="M213.922 305.504c.23-.26.807-.765 1.654-.86.846-.096 1.36.157 1.773.443m-3.104-2.147c.292-.252.867-.444 1.136-.47.293-.03.877.104 1.135.23" color="#000" stroke-linecap="round" stroke-linejoin="round" overflow="visible" />
   </g>
   <g fill="none" stroke="#c13c1b" stroke-width=".272">
      <path d="M164.298 285.663c1.673-1.145 5.035-1.725 7.308-1.863-1.096 1.961-3.052 4.81-4.646 5.849-3.065 2-5.504-2.039-2.662-3.986z" />
      <path d="M164.688 286.165c1.238-.848 3.726-1.281 5.408-1.386-.814 1.45-2.264 3.556-3.445 4.326-2.27 1.48-4.069-1.498-1.963-2.94z" />
      <path d="M164.754 286.138a2.675 2.675 0 011.517 1.084c.468.711.475 1.284.408 1.782m.507-3.74c.357.146.789.572.935.8.158.247.304.829.308 1.116" style="marker:none" color="#000" stroke-linecap="round" stroke-linejoin="round" overflow="visible" />
   </g>
   <g fill="none" stroke="#c13c1b" stroke-width=".272">
      <path d="M161.67 280.92c1.777-.976 5.18-1.223 7.456-1.137-1.284 1.843-3.51 4.486-5.198 5.364-3.246 1.69-5.277-2.569-2.258-4.228z" />
      <path d="M162.008 281.457c1.316-.722 3.835-.909 5.519-.848-.953 1.362-2.603 3.316-3.853 3.967-2.404 1.25-3.902-1.89-1.666-3.12z" />
      <path style="marker:none" d="M162.077 281.437a2.675 2.675 0 011.403 1.227c.396.754.347 1.324.23 1.814m.873-3.672c.341.18.729.646.851.887.134.262.222.855.198 1.141" color="#000" stroke-linecap="round" stroke-linejoin="round" overflow="visible" />
   </g>
   <g fill="none" stroke="#c13c1b" stroke-width=".272">
      <path d="M167.499 290.23c1.484-1.38 4.724-2.452 6.952-2.925-.795 2.102-2.307 5.208-3.73 6.472-2.734 2.431-5.745-1.201-3.222-3.548z" />
      <path d="M167.958 290.668c1.1-1.022 3.496-1.819 5.144-2.171-.59 1.554-1.713 3.852-2.767 4.788-2.025 1.8-4.245-.88-2.377-2.617z" />
      <path d="M168.02 290.631a2.675 2.675 0 011.66.848c.569.634.66 1.199.668 1.702m-.052-3.774c.375.092.864.449 1.042.653.194.221.424.775.47 1.058" style="marker:none" color="#000" stroke-linecap="round" stroke-linejoin="round" overflow="visible" />
   </g>
   <g fill="none" stroke="#c13c1b" stroke-width=".272">
      <path d="M157.807 270.623c1.946-.566 5.322-.069 7.525.509-1.654 1.52-4.4 3.617-6.238 4.108-3.535.944-4.594-3.653-1.287-4.617z" />
      <path d="M158.02 271.221c1.442-.42 3.941-.055 5.572.37-1.226 1.123-3.26 2.672-4.622 3.036-2.619.7-3.399-2.692-.95-3.406z" />
      <path style="marker:none" d="M158.093 271.216c.292.187.88.682 1.102 1.503.224.822.052 1.368-.168 1.82m1.649-3.395c.293.25.57.79.638 1.052.073.284.031.882-.055 1.156" color="#000" stroke-linecap="round" stroke-linejoin="round" overflow="visible" />
   </g>
   <g fill="none" stroke="#c13c1b" stroke-width=".272">
      <path d="M156.461 265.286c1.969-.481 5.32.162 7.496.834-1.718 1.448-4.553 3.424-6.41 3.835-3.574.79-4.432-3.849-1.086-4.669z" />
      <path d="M156.649 265.893c1.457-.356 3.938.116 5.55.61-1.274 1.07-3.374 2.53-4.75 2.834-2.646.585-3.279-2.837-.8-3.444z" />
      <path d="M156.72 265.891c.285.2.85.719 1.037 1.55.188.83-.008 1.368-.247 1.811m1.794-3.321c.283.263.536.813.592 1.078.061.288-.007.884-.104 1.153" style="marker:none" color="#000" stroke-linecap="round" stroke-linejoin="round" overflow="visible" />
   </g>
   <g fill="none" stroke="#c13c1b" stroke-width=".272">
      <path d="M159.48 275.935c1.884-.749 5.291-.575 7.54-.21-1.502 1.672-4.036 4.02-5.82 4.684-3.428 1.277-4.92-3.199-1.72-4.474z" />
      <path d="M159.75 276.51c1.395-.554 3.917-.43 5.58-.162-1.112 1.235-2.99 2.97-4.311 3.462-2.54.946-3.64-2.356-1.269-3.3z" />
      <path style="marker:none" d="M159.821 276.499c.309.158.94.594 1.241 1.39.3.798.181 1.358.006 1.83m1.317-3.538c.317.221.644.731.736.986.1.276.115.876.056 1.156" color="#000" stroke-linecap="round" stroke-linejoin="round" overflow="visible" />
   </g>
   <g fill="none" stroke="#c13c1b" stroke-width=".272">
      <path d="M175.748 297.717c1.03-1.745 3.83-3.695 5.831-4.783-.163 2.24-.728 5.65-1.731 7.266-1.93 3.11-5.85.485-4.1-2.483z" />
      <path d="M176.313 298.007c.763-1.293 2.834-2.739 4.313-3.547-.123 1.658-.545 4.18-1.288 5.378-1.43 2.303-4.32.367-3.025-1.831z" />
      <path d="M176.363 297.954a2.675 2.675 0 011.833.34c.725.446.974.961 1.124 1.441m-1.125-3.602c.386-.02.957.183 1.186.328.248.157.627.622.752.88" style="marker:none" color="#000" stroke-linecap="round" stroke-linejoin="round" overflow="visible" />
   </g>
   <g fill="none" stroke="#c13c1b" stroke-width=".272">
      <path d="M171.33 294.244c1.3-1.555 4.38-3.023 6.531-3.772-.525 2.185-1.636 5.456-2.89 6.888-2.408 2.755-5.85-.472-3.64-3.116z" />
      <path d="M171.84 294.622c.964-1.152 3.242-2.242 4.832-2.799-.39 1.616-1.217 4.036-2.145 5.097-1.784 2.04-4.322-.34-2.686-2.298z" />
      <path style="marker:none" d="M171.898 294.578a2.675 2.675 0 011.753.633c.644.558.805 1.107.875 1.605m-.524-3.738c.383.044.914.337 1.116.517.22.195.518.716.6.99" color="#000" stroke-linecap="round" stroke-linejoin="round" overflow="visible" />
   </g>
   <g fill="none" stroke="#c13c1b" stroke-width=".272">
      <path d="M180.613 300.441c.835-1.846 3.408-4.088 5.279-5.386.08 2.245-.112 5.695-.934 7.41-1.582 3.3-5.763 1.116-4.345-2.024z" />
      <path d="M181.206 300.668c.619-1.368 2.52-3.03 3.903-3.993.057 1.662-.089 4.215-.698 5.486-1.17 2.444-4.255.832-3.205-1.493z" />
      <path d="M181.25 300.61a2.676 2.676 0 011.858.14c.77.364 1.073.85 1.274 1.31m-1.508-3.46c.381-.06.97.08 1.214.2.264.129.69.55.843.793" style="marker:none" color="#000" stroke-linecap="round" stroke-linejoin="round" overflow="visible" />
   </g>
   <g fill="none" stroke="#c13c1b" stroke-width=".272">
      <path d="M191.117 304.105c.386-1.99 2.372-4.764 3.893-6.46.596 2.167 1.206 5.568.801 7.427-.776 3.576-5.349 2.416-4.694-.967z" />
      <path d="M191.746 304.189c.287-1.474 1.753-3.53 2.876-4.786.44 1.604.887 4.122.587 5.5-.575 2.647-3.948 1.791-3.463-.714z" />
      <path style="marker:none" d="M191.775 304.123c.3-.175 1.008-.471 1.841-.294s1.24.58 1.542.982m-2.266-3.018c.357-.147.963-.148 1.227-.087.286.064.8.376 1.003.577" color="#000" stroke-linecap="round" stroke-linejoin="round" overflow="visible" />
   </g>
   <g fill="none" stroke="#c13c1b" stroke-width=".272">
      <path d="M185.81 302.592c.58-1.942 2.827-4.51 4.506-6.048.382 2.214.656 5.658.072 7.47-1.123 3.482-5.56 1.88-4.577-1.422z" />
      <path d="M186.429 302.737c.429-1.439 2.09-3.342 3.33-4.482.28 1.639.479 4.189.046 5.53-.831 2.58-4.104 1.397-3.376-1.048z" />
      <path d="M186.464 302.674a2.675 2.675 0 011.86-.113c.812.258 1.178.698 1.44 1.128m-1.961-3.225c.37-.111.973-.052 1.23.033.278.093.758.453.942.673" style="marker:none" color="#000" stroke-linecap="round" stroke-linejoin="round" overflow="visible" />
   </g>
   <g fill="none" stroke="#c13c1b" stroke-width=".272">
      <path d="M196.446 305.092c.172-2.02 1.852-4.99 3.184-6.837.824 2.09 1.79 5.407 1.586 7.3-.392 3.637-5.062 2.97-4.77-.463z" />
      <path d="M197.08 305.108c.128-1.496 1.368-3.696 2.352-5.064.607 1.548 1.319 4.004 1.168 5.405-.291 2.695-3.736 2.201-3.52-.341z" />
      <path style="marker:none" d="M197.102 305.04c.28-.206.952-.576 1.8-.488.846.087 1.294.444 1.637.812m-2.574-2.76c.339-.184.942-.249 1.21-.217.293.034.835.289 1.06.467" color="#000" stroke-linecap="round" stroke-linejoin="round" overflow="visible" />
   </g>
   <g fill="none" stroke="#c13c1b" stroke-width=".272">
      <path d="M241.173 298.195c-1.192-1.639-1.868-4.983-2.07-7.251 1.99 1.04 4.893 2.913 5.978 4.477 2.086 3.006-1.88 5.56-3.908 2.774z" />
      <path d="M241.664 297.792c-.883-1.214-1.387-3.689-1.54-5.367 1.472.772 3.619 2.162 4.422 3.32 1.546 2.226-1.38 4.11-2.882 2.047z" />
      <path d="M241.635 297.726a2.675 2.675 0 011.04-1.547c.698-.489 1.27-.512 1.77-.459m-3.753-.4c.135-.361.548-.804.773-.957.242-.165.82-.328 1.106-.34" style="marker:none" color="#000" stroke-linecap="round" stroke-linejoin="round" overflow="visible" />
   </g>
   <g fill="none" stroke="#c13c1b" stroke-width=".272">
      <path d="M236.09 300.813c-1.046-1.736-1.43-5.126-1.436-7.403 1.893 1.208 4.623 3.326 5.569 4.977 1.818 3.176-2.355 5.377-4.134 2.426z" />
      <path d="M236.613 300.454c-.775-1.286-1.063-3.795-1.07-5.48 1.4.897 3.419 2.467 4.119 3.69 1.346 2.352-1.732 3.975-3.05 1.79z" />
      <path style="marker:none" d="M236.59 300.386a2.675 2.675 0 011.17-1.451c.737-.427 1.309-.4 1.803-.304m-3.704-.724c.166-.348.616-.754.852-.886.256-.144.846-.256 1.132-.244" color="#000" stroke-linecap="round" stroke-linejoin="round" overflow="visible" />
   </g>
   <g fill="none" stroke="#c13c1b" stroke-width=".272">
      <path d="M246.029 295.004c-1.425-1.44-2.597-4.645-3.139-6.857 2.126.729 5.277 2.144 6.585 3.527 2.514 2.658-1.023 5.78-3.446 3.33z" />
      <path d="M246.453 294.532c-1.056-1.067-1.926-3.438-2.33-5.074 1.572.542 3.903 1.593 4.872 2.617 1.862 1.969-.748 4.27-2.542 2.457z" />
      <path style="marker:none" d="M246.414 294.471c.025-.346.18-1.098.796-1.686.616-.588 1.178-.697 1.68-.72m-3.77.169c.08-.377.422-.878.62-1.062.216-.2.762-.448 1.043-.503" color="#000" stroke-linecap="round" stroke-linejoin="round" overflow="visible" />
   </g>
   <g fill="none" stroke="#c13c1b" stroke-width=".272">
      <path d="M254.384 286.935c-1.764-.998-3.765-3.761-4.89-5.742 2.243.122 5.661.624 7.297 1.597 3.144 1.872.592 5.84-2.407 4.145z" />
      <path d="M254.663 286.365c-1.307-.74-2.79-2.783-3.626-4.246 1.66.092 4.19.467 5.401 1.188 2.33 1.386.446 4.313-1.775 3.058z" />
      <path d="M254.61 286.317a2.675 2.675 0 01.305-1.84c.432-.733.943-.991 1.42-1.15m-3.581 1.191c-.026-.385.166-.96.307-1.191.152-.251.61-.639.866-.769" style="marker:none" color="#000" stroke-linecap="round" stroke-linejoin="round" overflow="visible" />
   </g>
   <g fill="none" stroke="#c13c1b" stroke-width=".272">
      <path d="M250.471 291.269c-1.6-1.245-3.175-4.271-3.998-6.395 2.201.448 5.51 1.444 6.985 2.647 2.837 2.31-.267 5.863-2.987 3.748z" />
      <path d="M250.83 290.745c-1.184-.921-2.353-3.16-2.965-4.73 1.628.334 4.076 1.075 5.169 1.965 2.101 1.712-.189 4.332-2.203 2.765z" />
      <path style="marker:none" d="M250.785 290.69a2.675 2.675 0 01.571-1.774c.535-.663 1.078-.844 1.574-.931m-3.717.655c.03-.385.304-.926.477-1.134.187-.226.697-.542.969-.634" color="#000" stroke-linecap="round" stroke-linejoin="round" overflow="visible" />
   </g>
   <g fill="none" stroke="#c13c1b" stroke-width=".272">
      <path d="M257.482 282.243c-1.805-.92-3.925-3.594-5.135-5.523 2.246.023 5.683.376 7.36 1.277 3.222 1.733.846 5.808-2.225 4.246z" />
      <path d="M257.736 281.66c-1.337-.68-2.909-2.657-3.807-4.083 1.663.02 4.206.284 5.448.952 2.387 1.283.634 4.289-1.64 3.132z" />
      <path d="M257.68 281.615a2.675 2.675 0 01.226-1.85c.4-.752.9-1.032 1.37-1.212m-3.526 1.346c-.044-.383.123-.966.254-1.204.14-.257.581-.664.831-.805" style="marker:none" color="#000" stroke-linecap="round" stroke-linejoin="round" overflow="visible" />
   </g>
   <g fill="none" stroke="#c13c1b" stroke-width=".272">
      <path d="M262.08 272.261c-1.94-.589-4.495-2.85-6.024-4.538 2.216-.37 5.661-.625 7.47-.032 3.476 1.141 1.85 5.57-1.446 4.57z" />
      <path d="M262.228 271.644c-1.436-.437-3.33-2.107-4.464-3.354 1.64-.272 4.19-.457 5.53-.017 2.575.845 1.376 4.111-1.066 3.37z" />
      <path style="marker:none" d="M262.165 271.608a2.675 2.675 0 01-.102-1.861c.262-.81.704-1.174 1.135-1.433m-3.236 1.943c-.11-.37-.047-.972.04-1.23.094-.277.457-.755.678-.938" color="#000" stroke-linecap="round" stroke-linejoin="round" overflow="visible" />
   </g>
   <g fill="none" stroke="#c13c1b" stroke-width=".272">
      <path d="M260.161 277.305c-1.885-.743-4.252-3.2-5.642-5.005 2.239-.192 5.694-.171 7.449.565 3.374 1.415 1.4 5.7-1.807 4.44z" />
      <path d="M260.358 276.701c-1.396-.55-3.15-2.367-4.181-3.7 1.657-.14 4.214-.12 5.514.425 2.499 1.048 1.042 4.209-1.333 3.275z" />
      <path d="M260.299 276.66a2.675 2.675 0 01.046-1.863c.326-.787.796-1.113 1.247-1.337m-3.381 1.678c-.08-.377.03-.973.138-1.222.116-.27.515-.718.75-.882" style="marker:none" color="#000" stroke-linecap="round" stroke-linejoin="round" overflow="visible" />
   </g>
   <g fill="none" stroke="#c13c1b" stroke-width=".272">
      <path d="M263.813 267.012c-1.991-.378-4.775-2.35-6.477-3.864 2.163-.606 5.562-1.23 7.423-.835 3.58.76 2.44 5.338-.946 4.699z" />
      <path d="M263.894 266.382c-1.475-.28-3.537-1.737-4.799-2.855 1.602-.446 4.118-.904 5.497-.611 2.65.563 1.81 3.94-.698 3.466z" />
      <path style="marker:none" d="M263.828 266.353a2.675 2.675 0 01-.302-1.84c.173-.833.574-1.242.975-1.546m-3.008 2.28c-.149-.356-.152-.962-.093-1.227.064-.286.373-.8.573-1.006" color="#000" stroke-linecap="round" stroke-linejoin="round" overflow="visible" />
   </g>
   <path d="M280.064 597.87l-1.202.32.74 12.022c.093 17.746.563 36.573 4.168 49.573l5.23-8.442 10.056 8.597c-3.039-31.15-9.332-22.25-18.992-62.07z" fill="#04a" fill-rule="evenodd" stroke="#000" stroke-width=".432" />
   <path d="M285.125 667.192l5.853-8.287 7.865 6.628" fill="none" stroke="#c13c1b" stroke-width=".432" stroke-linecap="round" stroke-linejoin="round" />
   <path d="M286.093 674.388l5.723-8.033 7.637 6.376m-12.284 9.196l5.476-7.764 7.417 6.203m-11.791 9.601l5.412-7.638 7.149 5.957m-11.593 9.094l5.264-7.54 7.105 5.923m-11.288 9.415l5.021-7.233 6.895 5.828m-10.726 9.077l4.888-7.018 6.719 5.69m-10.61 8.658l4.72-6.758 6.455 5.481m-10.256 8.18l4.621-6.587 6.235 5.309m-10.139 8.612l4.802-6.42 6.041 5.014m-9.956 8.671l4.894-6.225 5.835 4.958m-9.786 8.663l4.57-5.734 6.159 4.535m-9.706 8.471l4.595-5.635 5.745 4.135m-7.706 20.374l4.43-5.173 5.418 3.504m-10.722-4.181l4.364-5.557 5.668 3.903m-10.818-4.978l4.441-5.171 5.554 3.734m-7.45 20.484l4.472-5.274 5.311 3.974m-8.908 7.463l4.199-5.017 5.495 3.503m-8.179 13.742l4.43-5.017 5.728 3.503m-10.8-4.699l4.155-4.753 5.619 3.596m-8.797 9.62l10.15-1.533" fill="none" stroke="#c13c1b" stroke-width=".432" stroke-linecap="round" stroke-linejoin="round" />
   <g fill-rule="evenodd" stroke="#000" stroke-linecap="round" stroke-linejoin="round" stroke-width=".214">
      <path d="M294.847 593.392c2.696-.881 4.905-.544 7.031 0l-1.24-33.733 16.064 1.073c-.492-2.416-.658-4.832 0-7.248l-16.063 1.127h0c3.364-6.013 8.081-11.345 9.778-20.139 3.428-17.771-5.634-17.025-11.92-17.082-6.844-.062-16.948 1.008-12.744 17.84 1.933 7.741 6.647 13.83 10.45 19.38h0l-18.053-1.126c.606 2.416.548 4.832 0 7.248l18.052-1.073h0l-1.355 33.733z" fill="#025" />
      <path d="M296.202 549.644c-3.47-4.71-6.798-9.313-7.637-15.388-1.694-12.282 4.683-13.654 9.842-13.685 4.587-.028 11.366.623 8.332 13.577-1.424 6.077-3.639 11.545-6.1 15.496-1.541 2.086-3.196 1.745-4.437 0z" fill="#fff" />
   </g>
   <path d="M310.26 497.132l-19.85-.541c-.993 4.966-3.446 10.223-5.841 15.469-3.166 5.025-3.372 11.439-2.488 17.524l-.325 5.734c8.916 1.067.302-10.832 5.95-15.253l.865 8.221c1.617 1.539 3.21 2.757 4.544.325 1.586 1.777 3.173 1.648 4.76-.325 1.94 2.508 3.523.743 5.192 0 1.778 1.391 3.66 1.886 4.868-1.298.35-8.683 2.948-17.116 2.325-29.856z" fill="#a13c2a" fill-rule="evenodd" stroke="#000" stroke-width=".432" stroke-linecap="round" stroke-linejoin="round" />
   <g fill-rule="evenodd" stroke="#000" stroke-linecap="round" stroke-linejoin="round" stroke-width=".214">
      <path d="M290.24 485.395l20.824.163-.866 13.143-19.85-.757-.108-12.549z" fill="#fac53a" />
      <path d="M290.24 487.289l20.661.27-.212 4.06-20.395-.32-.054-4.01z" fill="#04a" />
      <path d="M290.022 485.34l20.878.218-.593 13.088-20.232-.702-.053-12.603z" fill="#fac53a" />
      <path d="M290.047 487.289l20.854.27-.25 4.06-20.55-.32-.054-4.01zm.039 5.239l20.49.309-.212 4.06-20.224-.359-.054-4.01z" fill="#04a" />
   </g>
   <path d="M78.756 473.277c-10.26 1.609-22.706 5.431-31.006 18.985l-5.114 3.168c2.705 5.951 8.037 2.536 9.736-.573-1.007 2.748-.477 4.505 2.77 4.511-.688 2.563.216 4.048 3.228 4.104-1.604 2.526.297 4.752 3.075 4.24-.977 3.232.756 4.605 2.472 4.637 4.58 1.969 25.029-23.414 27.066-25.628" fill="#a13c2a" fill-rule="evenodd" stroke="#000" stroke-width=".432" stroke-linecap="round" stroke-linejoin="round" />
   <path d="M52.357 281.553c.717-7.123-.404-13.378 2.521-22.039 3.57-10.57 7.136-12.402 11.293-17.955 1.575-1.287 4.167.058 3.316 2.504-4.82 4.491-8.262 10.623-9.668 14.123 1.447-.164 8.412-.699 8.568 6.519l-.024 492.833c7.755 8.899 1.089 15.739 1.506 23.47-.793.382-1.422.138-1.503-.536-1.038-8.46 1.848-12.15-.051-16.55-.908-2.103-2.608-2.005-3.598-.214-2.133 3.857.855 6.23.076 16.682-.057.76-.989.98-1.369.523-.486-7.767-5.855-14.314 1.252-23.384l-.008-492.235c-.4-4.026-4.757-4.458-6.92.092-2.536 5.334-1.461 10.862-2.141 16.292-1.126 3.498-3.441 2.15-3.25-.125z" fill="#025" fill-rule="evenodd" stroke="#000" stroke-width=".214" stroke-linecap="round" stroke-linejoin="round" />
   <g fill-rule="evenodd" stroke="#000" stroke-linecap="round" stroke-linejoin="round" stroke-width=".286">
      <path d="M79.123 460.103l21.398 12.625-9.246 13.956-17.57-12.765 5.418-13.816z" fill="#fac53a" />
      <path d="M78.435 461.844l20.882 13.028-2.71 3.972-19.673-13.039 1.5-3.96zm-2.333 6.101l18.927 13.079-2.929 4.354-17.718-13.09 1.72-4.343z" fill="#04a" />
   </g>
   <path d="M65.29 484.087c3.666-2.82 8.043-2.394 4.591 1.786 2.974-2.83 9.084-2.346 3.018 3.458 5.533-3.328 5.841 1.142 3.005 3.662 3.732-2.29 4.733 1.309.93 4.97-3.792 4.722-8.236 9.548-12.524 14.239-.08.084-.186.137-.356.12-1.716-.033-3.423-1.24-2.445-4.474-2.779.513-4.68-1.713-3.076-4.239-3.011-.056-3.915-1.541-3.228-4.104-3.246-.006-4.096-1.275-3.088-4.023.133-.23.263-.407.39-.541 4.58-4.955 8.793-8.515 12.665-10.785m.833-.508c-.29 1.227.936 2.9 3.01 2.932m.84-.531c-.831 1.441 1.604 3.408 2.925 3.33m.34-.198c-1.224 1.513.571 4.712 3.195 3.37m-.457.507c-.708 1.605.586 3.26 2.027 3.607m-19.438 6.94c.534-.377 14.484-14.254 14.484-14.254M55.34 499.424c.763-.773 14.598-13.572 14.598-13.572m-8.365 21.97l14.433-14.907" fill="#a13c2a" fill-rule="evenodd" stroke="#000" stroke-width=".432" stroke-linecap="round" stroke-linejoin="round" />
   <path d="M69.855 486.049c-.243.168-.282.502-.84.53-2.527.006-3.127-2.49-3.031-2.937 3.465-2.255 7.166-1.604 3.938 2.306 2.973-2.831 9.043-2.421 2.977 3.383 5.533-3.328 5.911 1.029 3.075 3.549 3.316-2.036 4.406.694 1.932 3.828-1.462-.39-2.756-2.045-1.911-3.81-2.487 1.183-4.099-2.204-3.045-3.618-1.492.177-3.926-1.79-3.095-3.231z" fill="#fff" fill-rule="evenodd" stroke="#000" stroke-width=".432" stroke-linecap="round" stroke-linejoin="round" />
   <path d="M70.722 482.636c-2.426-.894-5.608.892-12.634 6.77l-1.296-7.426c7.361-5.004 10.655-6.424 17.04-7.775" fill="#a13c2a" fill-rule="evenodd" />
   <path d="M58.088 489.406c7.026-5.878 10.31-7.674 12.736-6.78m2.94-8.378c-6.385 1.351-9.75 2.626-17.09 7.846" fill="none" stroke="#000" stroke-width=".432" />
   <g fill-rule="evenodd" stroke="#000" stroke-linecap="round" stroke-linejoin="round">
      <path d="M-2298.264 185.199l129.779 8.359-8.488 77.742-132.395-13.063 11.104-73.038z" fill="#fac53a" transform="matrix(.26144 -.00426 .00494 .22537 717.942 267.293)" />
      <path d="M-2299.299 193.609l129.66 10.549-2.604 22.255-130.567-9.952 3.511-22.852zm-4.777 31.041L-2173.32 236l-2.746 24.159-131.762-10.989 3.753-24.52z" fill="#04a" transform="matrix(.26144 -.00426 .00494 .22537 717.942 267.293)" />
   </g>
   <g fill-rule="evenodd" stroke="#000" stroke-linecap="round" stroke-linejoin="round">
      <path d="M-2301.611 184.81l110.51 7.598-12.757 77.185-100.902-10.518 3.149-74.266z" fill="#fac53a" transform="matrix(.25786 .0433 -.03608 .22252 733.995 801.233)" />
      <path d="M-2302.218 193.931l109.506 8.31-3.595 21.223-106.536-7.241.625-22.292zm-1.033 30.559l104.788 11.037-4.15 23.206-101.819-9.488 1.18-24.755z" fill="#04a" transform="matrix(.25786 .0433 -.03608 .22252 733.995 801.233)" />
   </g>
   <g fill-rule="evenodd" stroke="#000" stroke-linecap="round" stroke-linejoin="round">
      <path d="M-2305.348 184.73l117.692 7.561-12.03 77.508-107.182-11.397 1.52-73.671z" fill="#fac53a" transform="matrix(.26105 -.01487 .01408 .22499 846.733 672.893)" />
      <path d="M-2305.446 193.202l116.011 9.648-3.645 22.187-112.856-8.782.49-23.053zm-.818 31.304l112.106 10.117-3.892 24.083-108.633-9.46.42-24.74z" fill="#04a" transform="matrix(.26105 -.01487 .01408 .22499 846.733 672.893)" />
   </g>
   <path d="M273.84 608.148c-90.462-15.205-106.956-83.4-100.209-171.31l82.405-14.567c7.817 13 12.425 30.564 6.55 40.068 7.66 48.435 12.312 97.665 11.253 145.809z" fill="#fac53a" fill-rule="evenodd" stroke="#000" stroke-width=".216" />
   <path d="M255.772 422.126l-6.27-29.79-75.806 36.691-.231 7.61 82.307-14.511z" fill="#fac53a" fill-rule="evenodd" stroke="#000" stroke-linecap="round" stroke-linejoin="round" stroke-width=".216" />
   <path d="M223.085 411.032l6.634-2.76 1.658 4.098-6.732 2.396-1.56-3.734z" fill="#04a" fill-rule="evenodd" stroke="#04a" stroke-width=".25" />
   <path d="M232.371 407.17l6.035-2.532 1.938 4.724-6.18 2.109-1.793-4.3z" fill="#c13c1b" fill-rule="evenodd" stroke="#c13c1b" stroke-width=".25" />
   <path d="M241.106 403.696l6.879-2.9 2.081 5.018-7.132 2.487-1.828-4.605z" fill="#04a" fill-rule="evenodd" stroke="#04a" stroke-width=".25" />
   <path d="M249.5 392.227l.738 3.653-73.133 32.072-3.249.908 75.643-36.633z" fill="#fff" fill-rule="evenodd" stroke="#000" stroke-linecap="round" stroke-linejoin="round" stroke-width=".216" />
   <path d="M186.362 425.972l6.054-2.42.858 2.324-6.116 2.251-.796-2.155z" fill="#04a" fill-rule="evenodd" stroke="#04a" stroke-width=".25" />
   <path d="M195.418 422.372l6.42-2.697.994 2.743-6.47 2.317-.944-2.363z" fill="#c13c1b" fill-rule="evenodd" stroke="#c13c1b" stroke-width=".25" />
   <path d="M204.469 418.736l6.517-2.81 1.372 3.233-6.835 2.362-1.054-2.785z" fill="#04a" fill-rule="evenodd" stroke="#04a" stroke-width=".25" />
   <path d="M213.851 414.654l6.689-2.762 1.632 3.865-6.843 2.432-1.478-3.535z" fill="#308d57" fill-rule="evenodd" />
   <path d="M252.122 405.309l-66.938 23.58m65.729-29.424l-67.79 27.732m57.037-23.178l1.926 4.593m-2.805-4.356l1.91 4.723m8.552-8.963l2.102 5.248m-2.974-4.883l2.146 5.202m-19.513 2.012l1.892 4.165m-2.829-3.83l1.852 4.178m-10.126-.778l1.52 3.682m-2.426-3.447l1.65 3.854m-10.33-.254l1.508 3.272m-2.341-2.894l1.452 3.288m-9.712.216l1.015 2.754m-1.943-2.371l1.095 2.744m-9.206.552l.79 2.434m-1.805-2.076l.873 2.475m-8.889.759l.787 2.052m-1.588-1.817l.865 2.102" fill="none" stroke="#000" stroke-width=".25" stroke-linecap="round" stroke-linejoin="round" />
   <path d="M243.514 414.266l7.162-2.108 1.503 5.22-7.366 1.67-1.299-4.782z" fill="#04a" fill-rule="evenodd" stroke="#04a" stroke-width=".25" />
   <path d="M234.444 416.736l6.281-1.838 1.473 4.858-6.457 1.455-1.297-4.475z" fill="#c13c1b" fill-rule="evenodd" stroke="#c13c1b" stroke-width=".25" />
   <path d="M224.783 419.528l6.902-1.995 1.187 4.257-6.96 1.624-1.13-3.886z" fill="#04a" fill-rule="evenodd" stroke="#04a" stroke-width=".25" />
   <path d="M215.2 422.088l6.956-1.991 1.188 4.024-7.074 1.647-1.07-3.68z" fill="#308d57" fill-rule="evenodd" />
   <path d="M205.418 425.089l6.792-2.058.999 3.365-7.141 1.649-.65-2.956z" fill="#04a" fill-rule="evenodd" stroke="#04a" stroke-width=".25" />
   <path d="M196.022 427.62l6.677-1.894.678 2.837-6.689 1.575-.666-2.518z" fill="#c13c1b" fill-rule="evenodd" stroke="#c13c1b" stroke-width=".25" />
   <path d="M187.008 430.237l6-1.632.644 2.257-6.072 1.453-.572-2.078z" fill="#04a" fill-rule="evenodd" stroke="#04a" stroke-width=".25" />
   <path d="M254.6 416.962l-69.487 16.047m68.263-21.7l-69.923 19.747m59.086-16.576l1.396 4.781m-2.297-4.644l1.366 4.908m9.504-7.956l1.501 5.463m-2.406-5.186l1.547 5.41m-19.615-.196l1.411 4.35m-2.38-4.122l1.37 4.36m-9.974-1.912l1.096 3.828m-2.023-3.697l1.207 4.015m-10.237-1.414l1.131 3.42m-2.001-3.139l1.073 3.431m-9.674-.879l.699 2.851m-1.665-2.574l.78 2.85m-9.288-.486l.664 2.428m-1.635-2.188l.706 2.594m-8.423-.439l.595 2.204m-1.241-2.021l.485 2.111" fill="none" stroke="#000" stroke-width=".25" stroke-linecap="round" stroke-linejoin="round" />
   <path d="M185.931 429.27l66.636-22.16M186.1 429.76l66.888-20.474m-67.733 24.287l69.612-15.23m-70.647 15.974l71.204-13.827m-75.666 6.845l70.672-30.349m-68.865 30.247l69.147-28.99" fill="none" stroke="#000" stroke-width=".216" />
   <path d="M173.43 436.678c7.905-1.791 13.707-.977 12.6-6.883-.809-4.309-8.229-2.253-12.329-.93l-.272 7.813z" fill="#fac53a" fill-rule="evenodd" stroke="#000" stroke-linecap="round" stroke-linejoin="round" stroke-width=".216" />
   <path d="M156.797 607.976l16.98-170.265 88.627-.107c1.155 4.702 5.287 13.354.316 25.97 7.616 48.325 12.236 97.132 11.18 145.163l-117.103-.761z" fill="#fff" fill-rule="evenodd" stroke="#000" stroke-width=".432" />
   <path d="M273.642 608.338c-90.453-15.254-106.91-83.457-100.116-171.365l82.412-14.522c7.81 13.004 12.545 31.472 6.664 40.973 7.634 48.438 12.124 96.77 11.04 144.914z" fill="#fac53a" fill-rule="evenodd" stroke="#000" stroke-width=".216" />
   <path d="M255.755 422.528l-66.818 130.9m62.828-130.216l-64.67 126.692m-1.706-3.788l62.393-122.234m-4.013.731L183.727 542.24m-1.532-4.131l57.565-112.775m-4 .706l-55.035 107.816m-1.364-4.459l52.41-102.675m-3.977.658l-49.686 97.338m-1.158-4.862l46.819-91.72m-4.009.72l-43.82 85.847m-.959-5.254l40.766-79.862m-3.977.658l-37.568 73.6m-.681-5.799l34.24-67.08m-3.994.694l-30.789 60.317m-.412-6.324l27.194-53.275m-3.989.682l-23.467 45.975m-.127-6.883l19.604-38.407m-4.026.755l-15.55 30.463m.179-7.482l11.395-22.323m-4.027.757l-7.114 13.937m.539-8.188l2.586-5.067m82.015-10.901l-66.94 131.141m1.985 3.242l66.72-130.708m1.642 3.915l-66.332 129.949m2.117 2.984l65.69-128.691m1.265 4.654l-64.75 126.85m2.252 2.719L264.9 447.404m.308 6.528l-61.434 120.353m2.372 2.485l56.86-111.394m.818 5.532l-55.226 108.19m2.446 2.34l53.562-104.93m.826 5.513l-51.83 101.538m2.628 1.984l49.949-97.853m.791 5.583l-48.083 94.197m2.727 1.79l46.006-90.13m.73 5.703l-43.997 86.193m2.807 1.632l41.883-82.053m.546 6.065l-39.61 77.598m2.895 1.46l37.444-73.356m.475 6.202l-34.989 68.545m3.001 1.253l32.568-63.803m.394 6.361l-29.975 58.722m3.018 1.218l27.425-53.726m.449 6.253l-24.755 48.496m3.056 1.146L273 559.908m.283 6.58l-19.111 37.439m3.212.84l16.198-31.734m.168 6.803l-13.162 25.785m3.231.803l9.993-19.578m.098 6.94l-6.786 13.296m3.316.633l3.357-6.575" fill="none" stroke="#c13c1b" stroke-width=".432" />
   <path d="M273.608 608.338c-90.453-15.254-106.91-83.457-100.117-171.365l82.413-14.522c7.81 13.004 12.545 31.472 6.664 40.973 7.634 48.438 12.124 96.77 11.04 144.914z" fill="none" stroke="#000" stroke-width=".432" />
   <path d="M176.84 420.266a.813 2.047-.507 11-1.627 0 .813 2.047-.507 111.627 0z" style="marker:none" color="#000" fill-opacity=".706" fill-rule="evenodd" overflow="visible" />
   <path d="M221.973 188.298l2.956 40.868 7.323 26.137c-1.157 9.623-5.945 17.077-20.834 18.688-13.585 1.47-21.97-4.2-24.597-17.925-1.324-4.641-3.567-9.774-4.522-13.947-4.734 1.424-26.263-3.906-25.341-8.749.358-.902.716-2.723 1.074-4.766-.035-2.08-.804-2.82-2.16-3.024-.776.195-1.79-3.744.439-4.17-2.2.056-2.106-2.602-1.69-3.657.43-1.108.65-2.475.363-3.344-4.477-.21-7.826-3.169-5.557-7.908 2.173-4.54 8.25-12.698 11.55-18.12-.113-2.096.915-6.172 2.533-9.256 6.545-.73 38.286-3.291 33.28 11.664l25.183-2.491z" fill="#a13c2a" fill-rule="evenodd" stroke="#000" stroke-width=".363" />
   <path d="M198.42 193.017c-1.185 32.283-10.022 50.124-39.165 43.97" fill="none" stroke="#000" stroke-width="1.451" />
   <path d="M195.59 190.36c-2.492-.626-4.885-1.454-7.03-2.775-4.04-2.484-7.044-5.815-12.707-6.97-4.542-.846-8.585-.443-11.242.707-2.695 1.166-1.5 3.34.616 2.529 2.116-.812 5.94-1.518 9.578-.769 3.637.75 9.227 5.046 12.706 6.97 3.479 1.924 5.37 2.321 7.895 2.837.411-.93.43-1.763.185-2.529zm.186 4.071c-6.61-.797-8.376-.852-13.878-2.96-7.324-2.547-15.67-5.853-19.43.555-1.648 2.61-2.93 3.563 1.05 3.269 10.26 2.382 12.585.045 17.208-.925 3.442.594 9.034 1.85 14.557 3.084.464-.933.686-1.926.493-3.023z" fill-rule="evenodd" stroke="#000" stroke-width=".086" />
   <path d="M175.443 190.29c-3.68-1.543-7.202-2.364-10.075-.218.237 2.003.917 3.633 2.66 4.362 2.084.473 5.644.283 6.935-.873 1.29-1.155 1.64-2.696.48-3.27z" fill="none" stroke="#000" stroke-width=".086" />
   <path d="M179.464 192.937c-1.615-.453-2.505-1.052-3.576-1.614.16 1.13-.35 1.812-.872 2.486.581.219 3.693-.654 4.448-.872zm-14.057-1.996c-1.217 1.382-1.614 1.951-1.828 3.318 1.687-.188 3.088.502 4.406.175-1.714-1.105-2.364-1.927-2.578-3.493z" fill="#fff" fill-rule="evenodd" stroke="#000" stroke-width=".086" />
   <path d="M166.098 223.7c-3.63-1.58-7.296.6-10.642 1.264m-.829-7.196c4.25-1.791 7.563 2.5 10.599 2.006m-6.968-11.689c4.425 3.586 2.048 5.805-.043 5.714-2.07-.092-5.057-3.609-5.8-1.636-.752 1.992 3.353 1.283 3.292.72m10.093 8.723c-.305-.088-9.552-.088-9.552-.088" fill="none" stroke="#000" stroke-width=".086" />
   <path d="M169.15 240.66c-4.704-.641-10.241-3.965-11.915-5.836-4.682 19.842-3.162 45.553-25.73 42.242-.472-.058-.911-.08-1.28.115-3.314 2.83-1.96 9.38 9.896 7.481 20.62-3.304 24.245-32.155 29.029-44.001z" fill-rule="evenodd" stroke="#000" stroke-width=".254" />
   <path d="M155.973 212.932c-1.575-.93-3.101-2.101-3.604-.769-.75 1.992 3.355 1.283 3.293.72" fill-opacity=".706" fill-rule="evenodd" stroke="#000" stroke-width=".086" />
   <path d="M209.515 105.097L165.53 19.826c-.527-.95-.83-2.355.823-2.16h94.297c2.813-.231 3.42 1.322 2.865 2.904l-44.525 84.333-9.474.194z" fill="#fff" fill-rule="evenodd" stroke="#000" stroke-width=".544" />
   <path d="M203.3 64.307l.972-43.4c-.097-1.916 1.555-2.533 2.04-.096l8.02 42.378m-23.814-1.312c0-.584-8.407-39.997-8.407-39.997-1.028-1.896-.349-5.304 1.846-.583l15.746 38.879" fill="#c13c1b" fill-rule="evenodd" />
   <path d="M194.26 74.755c0-.388.292-52.486.292-52.486-.296-3.468 2.112-4.26 3.013-.39l15.552 57.202" fill="#04a" fill-rule="evenodd" />
   <path d="M227.113 62.8c-.007-.688 19.32-42.79 19.537-42.573 1.14-2.033 2.507-2.224 1.652.972L236.784 65.23m-24.639-2.138l12.247-41.504c1.692-4.11 1.681-.883 1.555 1.167l-2.576 43.301" fill="#c13c1b" fill-rule="evenodd" />
   <path d="M230.515 80.976l-10.456 1.708-1.402-15.899 16.232-45.974c.632-2.594 2.701-3.091 2.236.291l-6.61 59.874z" fill="#04a" fill-rule="evenodd" />
   <path d="M205.892 98.188l6.921-77.772c.372-2.396 2.639-1.976 2.75.137l6.46 78.04" fill="#308d57" fill-rule="evenodd" />
   <path d="M208.791 79.955L168.31 19.353c-1.36-1.602-3.236-.142-1.75 1.846l37.054 72.961 2.749 4.312m13.703-18.031l40.872-60.894c1.404-1.927 3.132-1.474 1.944 1.555L223.029 97.43l-1.553 1.82" fill="#308d57" fill-rule="evenodd" />
   <path d="M205.94 210.52c.085-8.245 20.715-20.326-9.05-19.95.663-10.788-16.276-12.208-33.287-11.665 6.759-34.902 28.754-33.773 48.935-33.814 34.988-.072 46.697 26.283 51.41 59.932 5.355 38.238-3.68 52.547-31.686 49.595l.315 64.963-29.746.632.275-87.149c1.413-7.665-1.323-15.564 2.834-22.543z" fill="#025" fill-rule="evenodd" stroke="#000" stroke-width=".544" />
   <path d="M209.889 145.124c.292-13.082 1.338-26.914-.325-39.752l9.474.049c-2.654 13.012-.688 26.56-1.113 39.67l-8.036.033z" fill="#c13c1b" fill-rule="evenodd" stroke="#000" stroke-width=".544" />
   <path d="M207.43 77.866l-39.12-58.513c-1.36-1.602-3.34-.795-1.75 1.846l39.025 75.912M187.65 48.268c0-.584-5.54-26.388-5.54-26.388-.856-3.373-.073-5.338 1.847-.583l10.409 25.716m-.008 11.215c0-.389.194-35.96.194-35.96-.296-3.467 2.112-4.258 3.013-.388l11.288 41.61" fill="none" stroke="#000" stroke-width="1.089" />
   <path d="M203.78 44.772l.492-23.864c-.097-1.917 1.555-2.534 2.04-.097l4.37 22.644" fill="none" stroke="#000" stroke-width="1.089" />
   <path d="M205.843 96.827l6.873-75.877c.372-2.396 2.736-2.51 2.846-.397l6.564 77.94m-4.476-53.826l6.742-23.079c.914-3.235 2.067-3.27 1.7.292l-1.866 28.826m-4.936 13.869l15.6-43.764c1.044-2.697 2.654-2.52 2.188.863L232.51 61.38" fill="none" stroke="#000" stroke-width="1.089" />
   <path d="M234.23 46.845c-.007-.688 12.203-26.834 12.42-26.618.9-1.723 2.614-3.242 1.652 1.041l-7.17 27.45m-20.67 30.457l40.476-59.628c1.404-1.927 3.132-1.474 1.944 1.555l-40.607 77.394" fill="none" stroke="#000" stroke-width="1.089" />
   <path d="M223.76 74.561c.292-.583 11.13-46.85 11.13-46.85m-31.801 43.692l-6.787-46.121m25.125 64.831l37.956-65.609m-52.681 63.908l-36.158-63.13" fill="none" stroke="#000" stroke-width=".816" stroke-linecap="round" stroke-linejoin="round" />
   <g fill="none" stroke="#fac53a" stroke-width=".816">
      <path d="M205.843 96.827l6.873-75.877c.372-2.396 2.736-2.51 2.846-.397l6.564 77.94M207.43 77.866l-39.12-58.513c-1.36-1.602-3.34-.795-1.75 1.846l39.025 75.912M187.65 48.268c0-.584-5.54-26.388-5.54-26.388-.856-3.373-.073-5.338 1.847-.583l10.409 25.716m-.008 11.215c0-.389.194-35.96.194-35.96-.296-3.467 2.112-4.258 3.013-.388l11.288 41.61" />
      <path d="M203.78 44.772l.492-23.864c-.097-1.917 1.555-2.534 2.04-.097l4.37 22.644m6.968 1.212l6.742-23.079c.914-3.235 2.067-3.27 1.7.292l-1.866 28.826m-4.936 13.869l15.6-43.764c1.044-2.697 2.654-2.52 2.188.863L232.51 61.38" />
      <path d="M234.23 46.845c-.007-.688 12.203-26.834 12.42-26.618.9-1.723 2.614-3.242 1.652 1.041l-7.17 27.45m-20.67 30.457l40.476-59.628c1.404-1.927 3.132-1.474 1.944 1.555l-40.607 77.394" />
   </g>
   <path d="M206.702 88.412l-36.158-63.13m32.545 46.121l-6.787-46.121m25.125 64.831l37.956-65.609M223.76 74.561c.292-.583 11.13-46.85 11.13-46.85" fill="none" stroke="#fac53a" stroke-width=".653" stroke-linecap="round" stroke-linejoin="round" />
   <path d="M214.186 93.126V23.435" fill="none" stroke="#000" stroke-width=".816" stroke-linecap="round" stroke-linejoin="round" />
   <path d="M214.186 93.126V23.435" fill="none" stroke="#fac53a" stroke-width=".653" stroke-linecap="round" stroke-linejoin="round" />
   <path d="M205.632 97.178c2.605-2.438 5.731-2.776 8.624-2.789 2.892-.013 6.321 1.466 8.039 3.922l-3.369 6.479h-9.308l-3.986-7.612z" fill="#308d57" fill-rule="evenodd" stroke="#000" stroke-width="1.089" stroke-linecap="round" stroke-linejoin="round" />
   <path d="M205.632 97.178c2.605-2.438 5.731-2.776 8.624-2.789 2.892-.013 6.321 1.466 8.039 3.922l-3.369 6.479h-9.308l-3.986-7.612z" fill="none" stroke="#fac53a" stroke-width=".816" stroke-linecap="round" stroke-linejoin="round" />
   <path d="M205.197 198.46c-6.291 2.95-6.476 7.403-4.366 10.697 1.244 2.49 4.048 1.934 4.856.685.85-1.313 1.649-3.05 2.778-4.76 9.786-12.534 8.425-15.941 8.456-16.39.055-.786-1.922-6.302-5.366-6.007-3.536.303-12.168 4.945-4.639 13.5" fill="#a13c2a" fill-rule="evenodd" />
   <path d="M205.134 198.46c-6.291 2.95-6.476 7.403-4.366 10.697 1.244 2.49 4.048 1.934 4.856.685.85-1.313 1.649-3.05 2.778-4.76 9.786-12.534 8.425-15.941 8.456-16.39.055-.786-1.922-6.302-5.366-6.007-3.536.303-12.168 4.945-4.639 13.5 1.638 1.833-.117 3.491-1.884 5.81m2.015-11.38c5.081 1.213 3.94 6.004-.733 12.825-3.42 1.954-4.344 2.968-4.078 2.285.275-.705.085-1.795 2.883-3.73" fill="none" stroke="#000" stroke-width=".725" />
   <g>
      <path d="M210.945-175.397h26.425v12.196h-26.425v-12.196z" fill="#fac53a" fill-rule="evenodd" stroke="#000" stroke-width=".224" transform="matrix(1.13128 0 0 1.12189 -35.78 503.437)" />
      <path d="M212.585-174.204l22.881.104m-22.891 2.034l22.88.104m-22.805 1.871l22.88.104m-22.891 1.795l22.881.103m-22.73 1.869l22.875-.054m-22.959 2.034l22.95-.215" fill="none" stroke="#c13c1b" stroke-width=".665" stroke-linecap="round" stroke-linejoin="round" transform="matrix(1.13128 0 0 1.12189 -35.78 503.437)" />
   </g>
</svg>