<svg xmlns="http://www.w3.org/2000/svg" width="350" height="925" version="1.0">
   <defs>
      <linearGradient id="prefix__a">
         <stop offset="0" stop-color="#c13c1b" />
         <stop offset=".839" stop-color="#c13c1b" stop-opacity=".498" />
         <stop offset="1" stop-color="#c13c1b" stop-opacity="0" />
      </linearGradient>
   </defs>
   <path d="M246.088 279.492c8.527-.235 11.626 3.463 13.714 6.362 1.245 1.728-.031 52.942-.173 80.523-.343 18.054-.343 193.128-.343 193.128" fill="none" stroke="#000" stroke-width="9" stroke-linecap="round" stroke-linejoin="round" />
   <path d="M246.088 279.492c8.527-.235 11.626 3.463 13.714 6.362 1.245 1.728-.031 52.942-.173 80.523-.343 18.054-.343 188.128-.343 188.128" fill="none" stroke="#c13c1b" stroke-width="8" stroke-linecap="round" stroke-linejoin="round" />
   <path d="M279.96 709.274l-.308 12.343c.092 17.746.562 36.573 4.168 49.573l19.3 143.75 11.117-1.235c-8.34-48.113-10.088-94.907-15.131-142.36-3.04-31.149-9.486-22.25-19.146-62.07z" fill="#fac53a" fill-rule="evenodd" stroke="#c13c1b" stroke-width=".432" />
   <path d="M311.22 432.239h-30.134M311.765 441.3l-30.242.438" fill="none" stroke="#000" stroke-width=".216" />
   <path d="M229.83 371.36l39.73.701c19.383 6.147 34.85 13.406 40.87 34.503 2.171 12.131.177 16.431.925 25.63l.618 9.574c1.33 20.65 1.876 41.458.309 62.688-1.256 18.425 2.698 38.086 3.088 56.511-.628 15.45-4.375 26.909-5.095 40.416l-19.3-1.506c-8.862-49.929-3.742-66.267-5.868-89.245-3.22-28.032-3.23-55.26-4.323-82.76-11.9 21.466-24.347 42.2-31.19 70.407v4.671l6.485 29.916c3.48 4.882 13.453 27.038 6.212 39.67 8.264 48.38 12.168 97.852 11.699 146.232l.617 15.75c1.314 21.45 9.94 42.912 9.573 66.393-.365 23.48-4.595 46.46-7.72 68.864-1.184 25.837 2.385 30.425 1.491 39.848-.893 9.424-6.162 8.992-11.532 8.932-5.474-.062-10.785-.988-10.974-4.596-5.653-1.586-13.631 4.934-72.263 2.662-2.539-.343-2.727-4.074-2.96-6.723 2.614-.714 5.324-1.043 8.228-.596 19.497-9.53 38.655-13.62 58.674-31.498.947-.982 1.745-2.3 1.544-5.868-2.524-35.346-10.217-72.038-13.28-107.465l-.926-5.558c-2.707-6.918-5.104-15.692-8.337-19.455-1.312-7.205-1.855-14.411-6.485-21.616l-14.932-.31c-6.778 19.143-7.696 26.922-11.735 39.837-3.146 18.89-.326 26.913-4.832 41.998-4.543 15.21-14.255 34.954-21.925 49.718-4.702 12.668-11.177 26.046-13.33 37.751-.617 7.54.635 13.364-.258 22.787-.894 9.424-6.163 8.992-11.533 8.932-5.474-.062-10.785-.988-10.974-4.596-5.652-1.586-13.63 4.934-72.263 2.662-2.538-.343-2.727-4.074-2.96-6.723 2.614-.714 5.324-1.043 8.229-.596 19.497-9.53 43.904-14.856 63.897-32.733 1.929-2.157 2.543-4.533 3.28-6.888l22.633-109.224c.029-11.065-1.372-21.58 3.706-34.586l.309-8.647 18.673-170.841-2.075-7.225c-2.65-6.114-.76-12.588-.849-18.336-2.218-17.227-5.721-34.134-9.573-50.953-2.438-5.673-4.692-12.494-6.507-19.662-1.79-.695-2.317-2.68-1.083-4.555-1.216-5.467-2.154-11.034-2.705-16.362l-.822-.183-1.224 11.039c-.477 2.676-.395 5.31-.856 7.941-3.447 19.672-7.004 39.093-18.982 73.802l-3.978 8.724c-9.02 26.126-22.208 46.39-35.88 65.973l-17.033-12.271c9.843-24.333 16.773-49.596 31.63-72.328l2.653-6.442c1.046-18.874 3.392-45.47 8.431-66.333l1.972-15.64c-5.587-25.87 6.44-43.13 29.365-46.96l37.863-7.364" fill="#a13c2a" fill-rule="evenodd" stroke="#000" stroke-width=".432" stroke-linecap="round" stroke-linejoin="round" />
   <g fill-rule="evenodd" stroke="#000" stroke-linecap="round" stroke-linejoin="round">
      <path d="M-2306.297 184.523l126.243 8.061-.277 76.804-129.037-11.151 3.07-73.714z" fill="#fac53a" transform="matrix(.23889 -.01891 .0161 .22474 828.805 344.94)" />
      <path d="M-2306.69 192.987l126.446 10.278-.033 22.472-127.353-9.681.94-23.07zM-2307.61 224.353l127.059 11.038.146 24.403-128.228-10.692 1.022-24.749z" fill="#04a" transform="matrix(.23889 -.01891 .0161 .22474 828.805 344.94)" />
   </g>
   <path d="M282.57 719.576c-.447-2.634-1.628-5.47-2.009-8.515-4.272-34.2-4.916-92.64-15.083-137.46 2.938-8.146 1.788-17.4-.399-25.108-2.16-7.611-5.229-13.556-6.802-15.794-1.137-5.323-4.491-21.112-5.654-32.29a1.08 1.08 0 00-1.095-.986h0a1.081 1.081 0 00-1.054 1.21c1.196 11.483 4.618 27.496 5.729 32.694.033.15.098.29.19.413 1.148 1.568 4.46 7.78 6.606 15.34 2.145 7.56 3.183 16.555.35 24.096a1.08 1.08 0 00-.04.615c8.552 37.496 10.412 84.889 13.398 119.58.87 10.114 2.724 19.264 3.092 26.543" fill="#fac53a" fill-rule="evenodd" stroke="#000" stroke-width=".216" stroke-linecap="round" stroke-linejoin="round" />
   <path d="M156.743 718.243l16.832-171.093 88.382-.89c1.158 4.701 6.012 14.323.464 26.557 7.642 48.32 12.4 97.274 11.37 145.306l-117.048.12z" fill="#fff" fill-rule="evenodd" stroke="#000" stroke-width=".432" />
   <path d="M273.783 718.461c-90.46-15.205-106.955-83.4-100.208-171.31l82.405-14.567c7.818 13 12.343 30.674 6.468 40.178 7.66 48.434 12.394 97.556 11.335 145.7z" fill="#fac53a" fill-rule="evenodd" stroke="#000" stroke-width=".216" />
   <path d="M153.152 375.53l32.876-6.575 46.534-3.71 35.83 7.407c-6.734 33.984-29.78 46.135-56.48 46.728-25.29.558-37.1-5.936-45.357-14.705-7.85-8.336-12.018-21.412-13.403-29.145z" fill="#fff" fill-rule="evenodd" stroke="#000" stroke-linecap="round" stroke-linejoin="round" stroke-width=".27168" />
   <path d="M166.885 372.781c4.956 24.508 19.253 33.587 45.6 32.55 26.412-1.039 39.559-17.992 41.17-34.45-.009-.222-.016-.547.115-1.127" style="marker:none" color="#000" fill="none" stroke="#04a" stroke-width="4.841337599999999" stroke-linejoin="round" overflow="visible" />
   <path d="M179.422 370.434c4.82 18.648 15.355 22.691 32.552 22.025 16.068-.622 27.977-11.153 27.858-24.363-.042-.503.136-.834.101-1.134" style="marker:none" color="#000" fill="none" stroke="#308d57" stroke-width="3.6739286399999997" overflow="visible" />
   <path d="M171.206 372.196c3.622 17.164 12.732 29.993 40.961 28.756 24.573-1.076 36.362-17.698 36.834-31.589-.015-.062-.016-.355.046-.648" style="marker:none" color="#000" fill="none" stroke="#c13c1b" stroke-width="2.9708208" overflow="visible" />
   <path d="M183.51 369.518c2.44 8.14 5.165 20.311 28.455 18.548 15.258-1.155 22.63-10.254 23.206-18.743.047-.964.04-3.106.157-3.388" style="marker:none" color="#000" fill="none" stroke="#04a" stroke-width="4.3572038399999995" overflow="visible" />
   <path d="M175.212 371.16c4.876 23.182 22.08 26.471 37.215 25.572 20.56-1.228 31.623-13.959 32.192-27.435.019-.247.014-1.17.132-1.544" style="marker:none" color="#000" fill="none" stroke="#04a" stroke-width="4.3572038399999995" overflow="visible" />
   <path d="M158.694 374.574c5.384 26.016 19.894 40.196 52.718 39.028l.387-.014.011-.001c43.57-1.704 49.082-34.322 50.663-41.916" style="marker:none" color="#000" fill="none" stroke="#fac53a" stroke-width="10.867199999999999" overflow="visible" />
   <path d="M153.152 375.53l32.876-6.575 46.534-3.71 35.83 7.407c-6.734 33.984-29.78 46.135-56.48 46.728-25.29.558-37.1-5.936-45.357-14.705-7.85-8.336-12.018-21.412-13.403-29.145z" fill="none" stroke="#000" stroke-width=".54336" stroke-linecap="round" stroke-linejoin="round" />
   <g fill="none" stroke="#c13c1b">
      <path d="M224.626 414.65c-.63-1.926-.246-5.316.257-7.537 1.576 1.602 3.763 4.277 4.315 6.098 1.061 3.502-3.498 4.713-4.572 1.44z" stroke-width=".27168" />
      <path d="M225.217 414.417c-.467-1.426-.187-3.936.183-5.58 1.164 1.187 2.78 3.17 3.189 4.518.786 2.594-2.577 3.487-3.372 1.062z" stroke-width=".27168" />
      <path style="marker:none" d="M225.21 414.346a2.675 2.675 0 011.465-1.153c.814-.25 1.365-.097 1.825.108M225.051 411.766c.24-.302.77-.597 1.03-.673.282-.082.881-.06 1.157.016" color="#000" stroke-linecap="round" stroke-linejoin="round" overflow="visible" stroke-width=".27168" />
   </g>
   <g fill="none" stroke="#c13c1b">
      <path d="M218.915 415.518c-.442-1.978.27-5.315.986-7.477 1.413 1.747 3.33 4.621 3.703 6.487.717 3.588-3.938 4.352-4.69.99z" stroke-width=".27168" />
      <path d="M219.525 415.343c-.327-1.465.196-3.935.723-5.536 1.044 1.294 2.46 3.424 2.736 4.806.532 2.657-2.902 3.22-3.459.73z" stroke-width=".27168" />
      <path style="marker:none" d="M219.525 415.271c.205-.28.736-.834 1.57-1.005.834-.17 1.368.036 1.806.284M219.617 412.69c.268-.278.824-.52 1.09-.571.289-.055.883.025 1.15.128" color="#000" stroke-linecap="round" stroke-linejoin="round" overflow="visible" stroke-width=".27168" />
   </g>
   <g fill="none" stroke="#c13c1b">
      <path d="M230.451 413.082c-.819-1.853-.773-5.265-.492-7.525 1.726 1.437 4.168 3.882 4.898 5.639 1.404 3.379-3.012 5.037-4.406 1.886z" stroke-width=".27168" />
      <path d="M231.016 412.792c-.607-1.373-.577-3.898-.372-5.571 1.276 1.066 3.081 2.877 3.622 4.18 1.04 2.502-2.218 3.724-3.25 1.39z" stroke-width=".27168" />
      <path style="marker:none" d="M231.002 412.721a2.675 2.675 0 011.343-1.292c.785-.33 1.349-.232 1.827-.074M230.588 410.17c.209-.324.706-.67.957-.772.273-.11.871-.147 1.154-.099" color="#000" stroke-linecap="round" stroke-linejoin="round" overflow="visible" stroke-width=".27168" />
   </g>
   <g fill="none" stroke="#c13c1b">
      <path d="M207.457 416.04c-.037-2.027 1.328-5.154 2.463-7.129 1.034 1.995 2.338 5.195 2.33 7.098-.016 3.659-4.73 3.475-4.793.03z" stroke-width=".27168" />
      <path d="M208.09 415.99c-.027-1.5.98-3.817 1.817-5.279.763 1.477 1.724 3.847 1.718 5.256-.011 2.71-3.489 2.574-3.535.023z" stroke-width=".27168" />
      <path d="M208.104 415.92c.257-.234.888-.67 1.74-.67.851 0 1.333.308 1.712.64M208.712 413.408c.318-.218.91-.344 1.182-.34.293.004.86.201 1.101.356" style="marker:none" color="#000" stroke-linecap="round" stroke-linejoin="round" overflow="visible" stroke-width=".27168" />
   </g>
   <g fill="none" stroke="#c13c1b">
      <path d="M201.937 415.943c.043-2.026 1.53-5.097 2.742-7.025.955 2.033 2.131 5.282 2.048 7.183-.16 3.656-4.863 3.287-4.79-.158z" stroke-width=".27168" />
      <path d="M202.571 415.92c.033-1.501 1.13-3.776 2.024-5.204.704 1.506 1.572 3.911 1.51 5.32-.118 2.707-3.588 2.434-3.534-.117z" stroke-width=".27168" />
      <path style="marker:none" d="M202.588 415.85a2.675 2.675 0 011.765-.602c.85.033 1.32.361 1.686.706M203.294 413.364c.327-.206.924-.309 1.195-.294.293.015.851.235 1.087.399" color="#000" stroke-linecap="round" stroke-linejoin="round" overflow="visible" stroke-width=".27168" />
   </g>
   <g fill="none" stroke="#c13c1b">
      <path d="M213.237 416.009c-.263-2.01.743-5.27 1.65-7.359 1.25 1.866 2.904 4.9 3.109 6.792.394 3.638-4.311 3.983-4.76.567z" stroke-width=".27168" />
      <path d="M213.86 415.89c-.194-1.489.547-3.903 1.215-5.45.924 1.382 2.144 3.63 2.296 5.031.292 2.694-3.18 2.948-3.51.418z" stroke-width=".27168" />
      <path style="marker:none" d="M213.866 415.818c.23-.261.808-.766 1.654-.861.846-.095 1.36.158 1.773.444M214.19 413.254c.291-.252.866-.444 1.136-.47.292-.03.877.103 1.134.23" color="#000" stroke-linecap="round" stroke-linejoin="round" overflow="visible" stroke-width=".27168" />
   </g>
   <g fill="none" stroke="#c13c1b">
      <path d="M164.243 395.976c1.672-1.144 5.034-1.724 7.308-1.862-1.097 1.96-3.053 4.809-4.647 5.848-3.064 2-5.504-2.038-2.661-3.986z" stroke-width=".27168" />
      <path d="M164.632 396.478c1.238-.848 3.727-1.28 5.408-1.386-.814 1.45-2.264 3.556-3.445 4.326-2.27 1.481-4.068-1.498-1.963-2.94z" stroke-width=".27168" />
      <path d="M164.699 396.451a2.675 2.675 0 011.516 1.084c.468.712.475 1.284.408 1.783M167.13 395.578c.357.145.789.57.935.8.158.247.304.828.308 1.115" style="marker:none" color="#000" stroke-linecap="round" stroke-linejoin="round" overflow="visible" stroke-width=".27168" />
   </g>
   <g fill="none" stroke="#c13c1b">
      <path d="M161.614 391.233c1.777-.975 5.18-1.223 7.456-1.137-1.284 1.844-3.51 4.486-5.198 5.365-3.246 1.688-5.277-2.57-2.258-4.228z" stroke-width=".27168" />
      <path d="M161.952 391.77c1.316-.722 3.835-.909 5.519-.848-.953 1.363-2.603 3.316-3.853 3.967-2.404 1.25-3.902-1.89-1.666-3.119z" stroke-width=".27168" />
      <path style="marker:none" d="M162.021 391.75a2.675 2.675 0 011.403 1.228c.397.754.347 1.324.231 1.813M164.527 391.12c.341.18.729.645.852.887.133.262.221.855.197 1.14" color="#000" stroke-linecap="round" stroke-linejoin="round" overflow="visible" stroke-width=".27168" />
   </g>
   <g fill="none" stroke="#c13c1b">
      <path d="M167.443 400.543c1.485-1.38 4.724-2.451 6.952-2.925-.795 2.102-2.307 5.208-3.73 6.473-2.734 2.43-5.744-1.202-3.222-3.548z" stroke-width=".27168" />
      <path d="M167.902 400.981c1.1-1.022 3.496-1.818 5.144-2.171-.59 1.554-1.713 3.852-2.766 4.788-2.026 1.8-4.246-.879-2.378-2.617z" stroke-width=".27168" />
      <path d="M167.964 400.945a2.675 2.675 0 011.66.847c.57.634.66 1.2.668 1.703M170.24 399.72c.375.092.864.449 1.043.653.193.222.424.775.47 1.058" style="marker:none" color="#000" stroke-linecap="round" stroke-linejoin="round" overflow="visible" stroke-width=".27168" />
   </g>
   <g fill="none" stroke="#c13c1b">
      <path d="M157.752 380.936c1.945-.566 5.321-.069 7.524.51-1.653 1.52-4.4 3.617-6.238 4.108-3.535.944-4.594-3.653-1.286-4.618z" stroke-width=".27168" />
      <path d="M157.965 381.534c1.441-.419 3.94-.054 5.571.37-1.225 1.124-3.26 2.673-4.622 3.036-2.618.7-3.399-2.692-.949-3.406z" stroke-width=".27168" />
      <path style="marker:none" d="M158.037 381.53c.292.187.88.68 1.103 1.503.223.822.051 1.367-.169 1.82M160.62 381.458c.294.25.57.789.638 1.051.074.285.031.883-.054 1.157" color="#000" stroke-linecap="round" stroke-linejoin="round" overflow="visible" stroke-width=".27168" />
   </g>
   <g fill="none" stroke="#c13c1b">
      <path d="M156.406 375.6c1.968-.482 5.319.161 7.495.834-1.718 1.448-4.552 3.423-6.41 3.834-3.573.79-4.432-3.849-1.085-4.668z" stroke-width=".27168" />
      <path d="M156.593 376.206c1.458-.356 3.939.116 5.55.611-1.273 1.07-3.374 2.529-4.75 2.833-2.646.585-3.279-2.837-.8-3.444z" stroke-width=".27168" />
      <path d="M156.665 376.205c.284.2.849.718 1.036 1.55.188.83-.008 1.368-.247 1.81M159.248 376.245c.283.262.537.813.593 1.078.06.287-.008.883-.105 1.153" style="marker:none" color="#000" stroke-linecap="round" stroke-linejoin="round" overflow="visible" stroke-width=".27168" />
   </g>
   <g fill="none" stroke="#c13c1b">
      <path d="M159.425 386.249c1.883-.75 5.29-.576 7.539-.21-1.501 1.671-4.035 4.02-5.82 4.683-3.428 1.277-4.92-3.198-1.72-4.473z" stroke-width=".27168" />
      <path d="M159.694 386.824c1.395-.555 3.917-.43 5.581-.163-1.113 1.235-2.99 2.971-4.312 3.463-2.54.945-3.64-2.356-1.269-3.3z" stroke-width=".27168" />
      <path style="marker:none" d="M159.765 386.812c.31.158.94.595 1.241 1.391.3.797.182 1.357.006 1.829M162.33 386.495c.316.22.643.73.735.985.1.276.115.876.056 1.157" color="#000" stroke-linecap="round" stroke-linejoin="round" overflow="visible" stroke-width=".27168" />
   </g>
   <g fill="none" stroke="#c13c1b">
      <path d="M175.693 408.03c1.03-1.745 3.83-3.694 5.83-4.782-.162 2.24-.727 5.649-1.73 7.266-1.93 3.109-5.85.484-4.1-2.483z" stroke-width=".27168" />
      <path d="M176.258 408.32c.763-1.292 2.833-2.739 4.312-3.546-.123 1.658-.545 4.18-1.288 5.378-1.429 2.303-4.32.366-3.024-1.832z" stroke-width=".27168" />
      <path d="M176.307 408.268a2.675 2.675 0 011.833.34c.725.445.974.96 1.124 1.44M178.14 406.446c.385-.02.956.184 1.185.329.248.157.627.622.752.88" style="marker:none" color="#000" stroke-linecap="round" stroke-linejoin="round" overflow="visible" stroke-width=".27168" />
   </g>
   <g fill="none" stroke="#c13c1b">
      <path d="M171.275 404.557c1.3-1.554 4.38-3.023 6.53-3.771-.525 2.184-1.636 5.455-2.889 6.888-2.409 2.754-5.85-.473-3.641-3.117z" stroke-width=".27168" />
      <path d="M171.785 404.935c.963-1.151 3.24-2.242 4.831-2.798-.39 1.615-1.217 4.036-2.145 5.097-1.784 2.04-4.322-.34-2.686-2.3z" stroke-width=".27168" />
      <path style="marker:none" d="M171.842 404.891a2.675 2.675 0 011.753.633c.644.558.806 1.107.875 1.605M173.946 403.392c.384.043.914.336 1.117.517.219.195.517.715.599.99" color="#000" stroke-linecap="round" stroke-linejoin="round" overflow="visible" stroke-width=".27168" />
   </g>
   <g fill="none" stroke="#c13c1b">
      <path d="M180.558 410.754c.834-1.846 3.407-4.088 5.278-5.386.08 2.245-.112 5.695-.934 7.411-1.581 3.3-5.762 1.115-4.344-2.025z" stroke-width=".27168" />
      <path d="M181.15 410.981c.62-1.367 2.52-3.03 3.904-3.992.057 1.661-.09 4.215-.699 5.486-1.17 2.444-4.255.832-3.204-1.494z" stroke-width=".27168" />
      <path d="M181.194 410.924c.332-.101 1.09-.226 1.859.139.77.364 1.072.85 1.273 1.311M182.818 408.914c.381-.06.971.08 1.214.199.264.129.691.55.843.793" style="marker:none" color="#000" stroke-linecap="round" stroke-linejoin="round" overflow="visible" stroke-width=".27168" />
   </g>
   <g fill="none" stroke="#c13c1b">
      <path d="M191.061 414.419c.386-1.99 2.372-4.765 3.893-6.46.597 2.166 1.206 5.567.802 7.427-.777 3.575-5.35 2.415-4.695-.967z" stroke-width=".27168" />
      <path d="M191.69 414.502c.287-1.473 1.753-3.53 2.877-4.785.439 1.603.886 4.121.587 5.499-.576 2.648-3.948 1.791-3.463-.714z" stroke-width=".27168" />
      <path style="marker:none" d="M191.72 414.436c.3-.175 1.007-.47 1.84-.293.833.177 1.24.58 1.542.981M192.836 412.106c.357-.147.963-.147 1.227-.087.287.065.8.376 1.004.577" color="#000" stroke-linecap="round" stroke-linejoin="round" overflow="visible" stroke-width=".27168" />
   </g>
   <g fill="none" stroke="#c13c1b">
      <path d="M185.755 412.905c.579-1.942 2.826-4.51 4.505-6.048.383 2.214.656 5.658.072 7.47-1.123 3.482-5.56 1.88-4.577-1.422z" stroke-width=".27168" />
      <path d="M186.373 413.05c.429-1.438 2.09-3.341 3.33-4.481.28 1.638.48 4.188.047 5.53-.832 2.579-4.105 1.397-3.377-1.05z" stroke-width=".27168" />
      <path d="M186.408 412.987a2.675 2.675 0 011.86-.112c.812.258 1.178.698 1.44 1.128M187.747 410.777c.37-.111.973-.052 1.23.034.279.092.758.452.942.672" style="marker:none" color="#000" stroke-linecap="round" stroke-linejoin="round" overflow="visible" stroke-width=".27168" />
   </g>
   <g fill="none" stroke="#c13c1b">
      <path d="M196.39 415.405c.173-2.02 1.852-4.99 3.184-6.836.824 2.09 1.79 5.407 1.586 7.299-.392 3.638-5.062 2.97-4.77-.463z" stroke-width=".27168" />
      <path d="M197.025 415.421c.128-1.495 1.368-3.695 2.351-5.064.607 1.548 1.32 4.004 1.168 5.406-.29 2.694-3.736 2.2-3.52-.342z" stroke-width=".27168" />
      <path style="marker:none" d="M197.046 415.353c.28-.206.952-.576 1.8-.488.847.088 1.294.445 1.637.813M197.91 412.917c.338-.184.94-.249 1.21-.217.292.034.835.29 1.06.467" color="#000" stroke-linecap="round" stroke-linejoin="round" overflow="visible" stroke-width=".27168" />
   </g>
   <g fill="none" stroke="#c13c1b">
      <path d="M241.118 408.509c-1.193-1.64-1.869-4.984-2.072-7.252 1.992 1.04 4.895 2.913 5.98 4.477 2.086 3.006-1.88 5.56-3.908 2.775z" stroke-width=".27168" />
      <path d="M241.608 408.105c-.883-1.214-1.387-3.688-1.54-5.366 1.472.772 3.62 2.161 4.423 3.32 1.545 2.226-1.381 4.11-2.883 2.046z" stroke-width=".27168" />
      <path d="M241.58 408.04a2.675 2.675 0 011.04-1.548c.697-.488 1.269-.511 1.77-.458M240.636 405.634c.136-.362.549-.805.773-.957.243-.166.82-.329 1.106-.34" style="marker:none" color="#000" stroke-linecap="round" stroke-linejoin="round" overflow="visible" stroke-width=".27168" />
   </g>
   <g fill="none" stroke="#c13c1b">
      <path d="M236.033 411.127c-1.045-1.736-1.43-5.127-1.435-7.404 1.894 1.209 4.624 3.326 5.57 4.978 1.817 3.175-2.355 5.376-4.135 2.426z" stroke-width=".27168" />
      <path d="M236.557 410.767c-.775-1.285-1.062-3.794-1.07-5.48 1.4.897 3.419 2.467 4.12 3.69 1.346 2.352-1.733 3.976-3.05 1.79z" stroke-width=".27168" />
      <path style="marker:none" d="M236.534 410.7a2.675 2.675 0 011.17-1.452c.737-.426 1.31-.4 1.803-.304M235.803 408.22c.166-.347.616-.753.852-.886.257-.143.846-.256 1.132-.243" color="#000" stroke-linecap="round" stroke-linejoin="round" overflow="visible" stroke-width=".27168" />
   </g>
   <g fill="none" stroke="#c13c1b">
      <path d="M245.973 405.318c-1.425-1.441-2.596-4.646-3.138-6.858 2.125.729 5.277 2.144 6.584 3.527 2.515 2.658-1.023 5.78-3.446 3.33z" stroke-width=".27168" />
      <path d="M246.397 404.845c-1.055-1.067-1.926-3.438-2.33-5.074 1.572.542 3.904 1.593 4.872 2.617 1.862 1.969-.747 4.271-2.542 2.457z" stroke-width=".27168" />
      <path style="marker:none" d="M246.359 404.784c.024-.346.18-1.097.795-1.685.617-.588 1.178-.697 1.681-.72M245.065 402.548c.08-.378.42-.878.62-1.063.215-.2.76-.447 1.042-.503" color="#000" stroke-linecap="round" stroke-linejoin="round" overflow="visible" stroke-width=".27168" />
   </g>
   <g fill="none" stroke="#c13c1b">
      <path d="M254.328 397.248c-1.764-.997-3.765-3.76-4.89-5.741 2.243.121 5.662.623 7.297 1.597 3.144 1.871.593 5.839-2.407 4.144z" stroke-width=".27168" />
      <path d="M254.607 396.678c-1.306-.739-2.79-2.782-3.625-4.246 1.66.093 4.19.468 5.4 1.189 2.33 1.386.447 4.312-1.775 3.057z" stroke-width=".27168" />
      <path d="M254.554 396.63a2.675 2.675 0 01.305-1.839c.433-.734.943-.992 1.42-1.15M252.698 394.831c-.026-.385.166-.96.307-1.191.153-.251.61-.638.866-.768" style="marker:none" color="#000" stroke-linecap="round" stroke-linejoin="round" overflow="visible" stroke-width=".27168" />
   </g>
   <g fill="none" stroke="#c13c1b">
      <path d="M250.415 401.582c-1.599-1.244-3.175-4.27-3.998-6.394 2.202.448 5.51 1.444 6.985 2.646 2.837 2.31-.267 5.863-2.987 3.748z" stroke-width=".27168" />
      <path d="M250.775 401.059c-1.185-.922-2.354-3.16-2.966-4.73 1.629.334 4.076 1.074 5.17 1.965 2.1 1.711-.19 4.331-2.204 2.765z" stroke-width=".27168" />
      <path style="marker:none" d="M250.73 401.003a2.675 2.675 0 01.57-1.774c.535-.663 1.078-.843 1.574-.93M249.157 398.953c.03-.385.304-.925.477-1.134.188-.226.697-.542.97-.633" color="#000" stroke-linecap="round" stroke-linejoin="round" overflow="visible" stroke-width=".27168" />
   </g>
   <g fill="none" stroke="#c13c1b">
      <path d="M257.427 392.556c-1.806-.92-3.926-3.593-5.136-5.523 2.247.024 5.684.376 7.36 1.278 3.222 1.732.846 5.807-2.224 4.245z" stroke-width=".27168" />
      <path d="M257.68 391.974c-1.337-.681-2.909-2.658-3.806-4.084 1.662.02 4.206.285 5.447.952 2.387 1.283.634 4.29-1.64 3.132z" stroke-width=".27168" />
      <path d="M257.625 391.928a2.675 2.675 0 01.225-1.85c.4-.752.9-1.032 1.37-1.212M255.693 390.212c-.043-.383.124-.966.255-1.203.141-.258.582-.665.831-.806" style="marker:none" color="#000" stroke-linecap="round" stroke-linejoin="round" overflow="visible" stroke-width=".27168" />
   </g>
   <g fill="none" stroke="#c13c1b">
      <path d="M262.024 382.574c-1.94-.589-4.495-2.85-6.024-4.537 2.216-.37 5.661-.626 7.47-.032 3.476 1.14 1.85 5.57-1.446 4.57z" stroke-width=".27168" />
      <path d="M262.172 381.957c-1.436-.436-3.33-2.107-4.464-3.354 1.64-.271 4.191-.457 5.53-.017 2.575.845 1.376 4.112-1.066 3.371z" stroke-width=".27168" />
      <path style="marker:none" d="M262.11 381.922a2.675 2.675 0 01-.103-1.862c.262-.81.704-1.173 1.135-1.432M259.907 380.57c-.11-.37-.048-.972.04-1.229.094-.278.456-.756.677-.938" color="#000" stroke-linecap="round" stroke-linejoin="round" overflow="visible" stroke-width=".27168" />
   </g>
   <g fill="none" stroke="#c13c1b">
      <path d="M260.106 387.618c-1.886-.742-4.253-3.2-5.642-5.005 2.238-.192 5.693-.17 7.448.566 3.374 1.415 1.4 5.7-1.806 4.439z" stroke-width=".27168" />
      <path d="M260.303 387.014c-1.397-.55-3.151-2.366-4.182-3.7 1.657-.139 4.214-.12 5.514.425 2.5 1.049 1.042 4.209-1.332 3.275z" stroke-width=".27168" />
      <path d="M260.243 386.974a2.675 2.675 0 01.047-1.863c.326-.787.795-1.114 1.246-1.338M258.155 385.451c-.08-.377.03-.973.138-1.222.116-.27.516-.717.75-.881" style="marker:none" color="#000" stroke-linecap="round" stroke-linejoin="round" overflow="visible" stroke-width=".27168" />
   </g>
   <g fill="none" stroke="#c13c1b">
      <path d="M263.757 377.325c-1.99-.377-4.774-2.35-6.476-3.864 2.163-.606 5.56-1.23 7.422-.835 3.58.76 2.44 5.339-.946 4.699z" stroke-width=".27168" />
      <path d="M263.838 376.695c-1.474-.28-3.537-1.737-4.798-2.854 1.601-.446 4.117-.905 5.496-.612 2.65.563 1.81 3.94-.698 3.466z" stroke-width=".27168" />
      <path style="marker:none" d="M263.772 376.667a2.675 2.675 0 01-.302-1.84c.174-.833.574-1.242.975-1.546M261.437 375.56c-.149-.356-.152-.962-.093-1.226.064-.287.373-.8.573-1.006" color="#000" stroke-linecap="round" stroke-linejoin="round" overflow="visible" stroke-width=".27168" />
   </g>
   <path d="M280.008 708.183l-1.202.32.74 12.023c.093 17.745.563 36.572 4.168 49.572l5.23-8.442L299 770.253c-3.039-31.149-9.332-22.25-18.992-62.07z" fill="#04a" fill-rule="evenodd" stroke="#000" stroke-width=".432" />
   <path d="M285.07 777.506l5.852-8.287 7.865 6.627" fill="none" stroke="#c13c1b" stroke-width=".432" stroke-linecap="round" stroke-linejoin="round" />
   <path d="M286.037 784.701l5.723-8.032 7.637 6.376M287.113 792.24l5.476-7.763 7.417 6.203M288.216 800.28l5.411-7.637 7.149 5.956M289.183 807.694l5.264-7.54 7.105 5.922M290.264 815.491l5.022-7.232 6.894 5.827M291.454 823.163l4.889-7.018 6.718 5.69M292.451 830.493l4.72-6.758 6.455 5.482M293.37 837.397l4.621-6.587 6.235 5.308M294.087 844.73l4.803-6.419 6.04 5.014M294.975 851.995l4.893-6.225 5.835 4.959M295.918 859.391l4.57-5.734 6.158 4.535M296.94 866.663l4.596-5.635 5.744 4.136M299.574 885.537l4.43-5.172 5.418 3.503M298.7 879.687l4.364-5.557 5.668 3.904M297.915 873.055l4.44-5.17 5.554 3.734M300.46 892.102l4.471-5.273 5.312 3.974M301.334 898.266l4.199-5.018 5.495 3.504M302.85 910.494l4.43-5.018 5.727 3.504M302.207 904.28l4.155-4.752 5.62 3.595M303.184 912.743l10.15-1.533" fill="none" stroke="#c13c1b" stroke-width=".432" stroke-linecap="round" stroke-linejoin="round" />
   <g fill-rule="evenodd" stroke="#000" stroke-linecap="round" stroke-linejoin="round">
      <path d="M294.791 703.705c2.696-.88 4.905-.544 7.032 0l-1.24-33.732 16.063 1.072c-.491-2.415-.658-4.831 0-7.247l-16.063 1.126h0c3.364-6.013 8.081-11.345 9.778-20.138 3.428-17.772-5.633-17.025-11.92-17.082-6.844-.062-16.947 1.008-12.744 17.839 1.933 7.742 6.647 13.83 10.45 19.381h0l-18.053-1.126c.606 2.416.548 4.832 0 7.247l18.052-1.072h0l-1.355 33.732z" fill="#025" stroke-width=".21417" />
      <path d="M296.146 659.958c-3.469-4.71-6.798-9.313-7.636-15.389-1.695-12.282 4.682-13.654 9.841-13.685 4.587-.027 11.367.623 8.332 13.577-1.424 6.078-3.639 11.545-6.1 15.497-1.541 2.086-3.196 1.745-4.437 0z" fill="#fff" stroke-width=".21417" />
   </g>
   <path d="M310.205 607.445l-19.85-.54c-.994 4.965-3.447 10.222-5.842 15.468-3.166 5.026-3.372 11.44-2.488 17.525l-.324 5.733c8.915 1.067.301-10.832 5.95-15.253l.865 8.222c1.616 1.538 3.21 2.756 4.543.324 1.586 1.777 3.173 1.649 4.76-.324 1.94 2.508 3.523.742 5.192 0 1.778 1.39 3.661 1.885 4.868-1.299.35-8.683 2.948-17.116 2.326-29.856z" fill="#a13c2a" fill-rule="evenodd" stroke="#000" stroke-width=".432" stroke-linecap="round" stroke-linejoin="round" />
   <g fill-rule="evenodd" stroke="#000" stroke-linecap="round" stroke-linejoin="round">
      <path d="M290.184 595.709l20.824.162-.866 13.143-19.85-.757-.108-12.548z" fill="#fac53a" stroke-width=".21417" />
      <path d="M290.184 597.602l20.662.27-.213 4.061-20.395-.32-.054-4.011z" fill="#04a" stroke-width=".21417" />
      <path d="M289.966 595.654l20.878.217-.592 13.089-20.233-.703-.053-12.603z" fill="#fac53a" stroke-width=".21417" />
      <path d="M289.991 597.602l20.855.27-.252 4.061-20.549-.32-.054-4.011zM290.03 602.841l20.491.31-.212 4.06-20.225-.36-.054-4.01z" fill="#04a" stroke-width=".21417" />
   </g>
   <path d="M78.7 583.59c-10.26 1.61-22.705 5.432-31.006 18.986l-5.114 3.167c2.705 5.952 8.038 2.536 9.736-.572-1.007 2.748-.476 4.504 2.77 4.51-.687 2.563.217 4.048 3.228 4.104-1.604 2.526.297 4.752 3.075 4.24-.977 3.233.756 4.605 2.473 4.637 4.58 1.97 25.028-23.414 27.065-25.628" fill="#a13c2a" fill-rule="evenodd" stroke="#000" stroke-width=".432" stroke-linecap="round" stroke-linejoin="round" />
   <path d="M52.301 391.866c.717-7.123-.404-13.377 2.521-22.038 3.57-10.57 7.136-12.402 11.293-17.956 1.575-1.287 4.167.058 3.317 2.504-4.822 4.491-8.263 10.623-9.669 14.123 1.447-.164 8.412-.698 8.568 6.519l-.024 492.833c7.755 8.9 1.09 15.739 1.506 23.47-.793.383-1.422.138-1.502-.535-1.038-8.461 1.847-12.15-.052-16.55-.908-2.104-2.607-2.006-3.598-.215-2.133 3.858.856 6.23.076 16.682-.057.761-.989.98-1.369.524-.485-7.767-5.855-14.315 1.253-23.384l-.008-492.235c-.401-4.027-4.757-4.459-6.92.092-2.537 5.333-1.462 10.862-2.142 16.292-1.126 3.497-3.44 2.15-3.25-.125z" fill="#025" fill-rule="evenodd" stroke="#000" stroke-width=".214" stroke-linecap="round" stroke-linejoin="round" />
   <path d="M70.667 592.95c-2.427-.894-5.609.892-12.635 6.77l-1.296-7.427c7.361-5.004 10.655-6.423 17.04-7.775" fill="#a13c2a" fill-rule="evenodd" />
   <g fill-rule="evenodd" stroke="#000" stroke-linecap="round" stroke-linejoin="round">
      <path d="M79.067 570.417l21.398 12.625-9.246 13.955-17.57-12.765 5.418-13.815z" fill="#fac53a" stroke-width=".28617" />
      <path d="M78.38 572.158l20.881 13.027-2.71 3.973-19.673-13.04 1.501-3.96zM76.046 578.259l18.927 13.078-2.929 4.355-17.718-13.09 1.72-4.343z" fill="#04a" stroke-width=".28617" />
   </g>
   <path d="M65.234 594.4c3.666-2.82 8.043-2.394 4.592 1.787 2.973-2.832 9.083-2.347 3.017 3.458 5.533-3.329 5.841 1.141 3.005 3.662 3.732-2.292 4.733 1.308.93 4.97-3.792 4.721-8.236 9.547-12.523 14.238-.08.084-.187.137-.356.12-1.717-.032-3.424-1.24-2.446-4.473-2.779.512-4.68-1.714-3.076-4.24-3.011-.056-3.915-1.54-3.228-4.104-3.246-.01-4.095-1.275-3.088-4.023.133-.23.263-.407.391-.54 4.58-4.956 8.792-8.516 12.665-10.785m.833-.509c-.292 1.227.936 2.9 3.009 2.932m.84-.531c-.83 1.442 1.604 3.408 2.925 3.33m.34-.198c-1.223 1.513.571 4.713 3.195 3.37m-.457.507c-.707 1.605.586 3.26 2.027 3.608m-19.438 6.94c.534-.377 14.484-14.255 14.484-14.255m-17.591 10.073c.763-.773 14.598-13.572 14.598-13.572m-8.365 21.97l14.433-14.907" fill="#a13c2a" fill-rule="evenodd" stroke="#000" stroke-width=".432" stroke-linecap="round" stroke-linejoin="round" />
   <path d="M69.8 596.362c-.243.168-.283.502-.841.531-2.527.01-3.126-2.491-3.03-2.938 3.465-2.255 7.165-1.603 3.937 2.306 2.974-2.83 9.043-2.42 2.977 3.383 5.533-3.328 5.911 1.029 3.075 3.55 3.317-2.037 4.407.693 1.932 3.828-1.462-.39-2.755-2.046-1.911-3.81-2.487 1.183-4.098-2.205-3.045-3.619-1.491.177-3.926-1.79-3.094-3.231z" fill="#fff" fill-rule="evenodd" stroke="#000" stroke-width=".432" stroke-linecap="round" stroke-linejoin="round" />
   <path d="M58.032 599.72c7.026-5.878 10.31-7.674 12.736-6.78m2.94-8.379c-6.385 1.351-9.749 2.626-17.09 7.846" fill="none" stroke="#000" stroke-width=".432" />
   <g fill-rule="evenodd" stroke="#000" stroke-linecap="round" stroke-linejoin="round">
      <path d="M-2298.264 185.199l129.779 8.359-8.488 77.742-132.395-13.063 11.104-73.038z" fill="#fac53a" transform="matrix(.26144 -.00426 .00494 .22537 717.886 377.606)" />
      <path d="M-2299.299 193.609l129.66 10.549-2.604 22.255-130.567-9.952 3.511-22.852zM-2304.076 224.65L-2173.32 236l-2.746 24.159-131.762-10.989 3.753-24.52z" fill="#04a" transform="matrix(.26144 -.00426 .00494 .22537 717.886 377.606)" />
   </g>
   <g fill-rule="evenodd" stroke="#000" stroke-linecap="round" stroke-linejoin="round">
      <path d="M-2301.611 184.81l110.51 7.598-12.757 77.185-100.902-10.518 3.149-74.266z" fill="#fac53a" transform="matrix(.25786 .0433 -.03608 .22252 733.94 911.546)" />
      <path d="M-2302.218 193.931l109.506 8.31-3.596 21.223-106.535-7.241.625-22.292zM-2303.251 224.49l104.788 11.037-4.15 23.206-101.819-9.488 1.18-24.755z" fill="#04a" transform="matrix(.25786 .0433 -.03608 .22252 733.94 911.546)" />
   </g>
   <g fill-rule="evenodd" stroke="#000" stroke-linecap="round" stroke-linejoin="round">
      <path d="M-2305.348 184.73l117.692 7.561-12.03 77.508-107.182-11.397 1.52-73.671z" fill="#fac53a" transform="matrix(.26105 -.01487 .01408 .22499 846.677 783.206)" />
      <path d="M-2305.446 193.202l116.011 9.648-3.645 22.187-112.855-8.782.49-23.053zM-2306.264 224.506l112.106 10.117-3.893 24.083-108.632-9.46.42-24.74z" fill="#04a" transform="matrix(.26105 -.01487 .01408 .22499 846.677 783.206)" />
   </g>
   <path d="M273.783 718.461c-90.46-15.205-106.955-83.4-100.208-171.31l82.405-14.567c7.818 13 12.425 30.564 6.55 40.069 7.66 48.434 12.312 97.665 11.253 145.808z" fill="#fac53a" fill-rule="evenodd" stroke="#000" stroke-width=".216" />
   <g>
      <path d="M255.716 532.44l-6.27-29.79-75.806 36.69-.231 7.611 82.307-14.512z" fill="#fac53a" fill-rule="evenodd" stroke="#000" stroke-linecap="round" stroke-linejoin="round" stroke-width=".21617" />
      <path d="M223.03 521.345l6.634-2.759 1.657 4.097-6.731 2.396-1.56-3.734z" fill="#04a" fill-rule="evenodd" stroke="#04a" stroke-width=".24989251999999998" />
      <path d="M232.316 517.484l6.034-2.533 1.939 4.725-6.181 2.108-1.792-4.3z" fill="#c13c1b" fill-rule="evenodd" stroke="#c13c1b" stroke-width=".24989251999999998" />
      <path d="M241.05 514.01l6.879-2.9 2.082 5.017-7.133 2.488-1.828-4.606z" fill="#04a" fill-rule="evenodd" stroke="#04a" stroke-width=".24989251999999998" />
      <path d="M249.444 502.54l.738 3.654-73.132 32.071-3.25.909 75.644-36.634z" fill="#fff" fill-rule="evenodd" stroke="#000" stroke-linecap="round" stroke-linejoin="round" stroke-width=".21617" />
      <path d="M186.307 536.285l6.053-2.42.858 2.324-6.116 2.251-.795-2.155z" fill="#04a" fill-rule="evenodd" stroke="#04a" stroke-width=".24989251999999998" />
      <path d="M195.363 532.685l6.42-2.696.993 2.742-6.47 2.318-.943-2.364z" fill="#c13c1b" fill-rule="evenodd" stroke="#c13c1b" stroke-width=".24989251999999998" />
      <path d="M204.413 529.05l6.517-2.81 1.372 3.232-6.835 2.363-1.054-2.786z" fill="#04a" fill-rule="evenodd" stroke="#04a" stroke-width=".24989251999999998" />
      <path d="M213.795 524.967l6.689-2.761 1.633 3.865-6.844 2.432-1.478-3.536z" fill="#308d57" fill-rule="evenodd" />
      <path d="M252.066 515.622l-66.938 23.581M250.858 509.778l-67.791 27.733M240.105 514.332l1.925 4.594M239.225 514.57l1.91 4.723M249.688 510.33l2.101 5.247M248.815 510.695l2.146 5.201M231.448 517.908l1.892 4.165M230.511 518.244l1.852 4.178M222.237 521.644l1.52 3.681M221.33 521.879l1.652 3.854M212.65 525.479l1.51 3.272M211.818 525.856l1.452 3.289M203.559 529.36l1.015 2.754M202.63 529.743l1.095 2.745M194.52 533.039l.789 2.435M193.504 533.398l.874 2.475M185.488 536.632l.787 2.052M184.687 536.867l.865 2.102" fill="none" stroke="#000" stroke-width=".24989251999999998" stroke-linecap="round" stroke-linejoin="round" />
      <path d="M243.458 524.58l7.162-2.108 1.504 5.22-7.367 1.669-1.299-4.782z" fill="#04a" fill-rule="evenodd" stroke="#04a" stroke-width=".24989251999999998" />
      <path d="M234.389 527.049l6.28-1.837 1.474 4.857-6.457 1.455-1.297-4.475z" fill="#c13c1b" fill-rule="evenodd" stroke="#c13c1b" stroke-width=".24989251999999998" />
      <path d="M224.727 529.841l6.902-1.995 1.187 4.258-6.959 1.623-1.13-3.886z" fill="#04a" fill-rule="evenodd" stroke="#04a" stroke-width=".24989251999999998" />
      <path d="M215.144 532.401l6.957-1.991 1.187 4.024-7.074 1.647-1.07-3.68z" fill="#308d57" fill-rule="evenodd" />
      <path d="M205.362 535.402l6.792-2.058 1 3.366-7.142 1.648-.65-2.956z" fill="#04a" fill-rule="evenodd" stroke="#04a" stroke-width=".24989251999999998" />
      <path d="M195.967 537.933l6.676-1.893.678 2.836-6.689 1.576-.665-2.519z" fill="#c13c1b" fill-rule="evenodd" stroke="#c13c1b" stroke-width=".24989251999999998" />
      <path d="M186.953 540.55l6-1.631.643 2.256-6.072 1.453-.571-2.078z" fill="#04a" fill-rule="evenodd" stroke="#04a" stroke-width=".24989251999999998" />
      <path d="M254.544 527.275l-69.486 16.047M253.32 521.622l-69.923 19.747M242.483 524.794l1.396 4.78M241.582 524.93l1.366 4.909M252.452 521.882l1.501 5.463M251.547 522.16l1.547 5.41M233.479 527.373l1.411 4.351M232.51 527.602l1.37 4.359M223.906 530.05l1.097 3.828M222.979 530.18l1.207 4.015M213.95 532.78l1.13 3.422M213.08 533.062l1.073 3.432M204.478 535.615l.699 2.85M203.512 535.891l.78 2.85M195.005 538.255l.663 2.428M194.033 538.496l.706 2.594M186.316 540.65l.596 2.204M185.67 540.833l.485 2.112" fill="none" stroke="#000" stroke-width=".24989251999999998" stroke-linecap="round" stroke-linejoin="round" />
      <path d="M185.876 539.583l66.635-22.16M186.045 540.074l66.887-20.474M185.2 543.886l69.611-15.229M184.165 544.63l71.203-13.826M179.702 537.649l70.672-30.35M181.51 537.547l69.146-28.99" fill="none" stroke="#000" stroke-width=".21617" />
      <path d="M173.373 546.991c7.907-1.79 13.709-.977 12.6-6.883-.808-4.308-8.228-2.253-12.328-.93l-.272 7.813z" fill="#fac53a" fill-rule="evenodd" stroke="#000" stroke-linecap="round" stroke-linejoin="round" stroke-width=".21617" />
   </g>
   <g>
      <path d="M156.742 718.289l16.979-170.265 88.627-.107c1.156 4.703 5.287 13.354.316 25.97 7.616 48.325 12.236 97.132 11.18 145.164l-117.102-.762z" fill="#fff" fill-rule="evenodd" stroke="#000" stroke-width=".43234" />
      <path d="M273.586 718.651c-90.452-15.254-106.91-83.457-100.116-171.364l82.412-14.522c7.81 13.003 12.545 31.47 6.665 40.972 7.634 48.439 12.124 96.77 11.04 144.914z" fill="#fac53a" fill-rule="evenodd" stroke="#000" stroke-width=".21617" />
      <path d="M255.699 532.84l-66.818 130.901M251.71 533.525l-64.67 126.693M185.333 656.43l62.394-122.235M243.713 534.926l-60.042 117.627M182.14 648.422l57.565-112.775M235.704 536.353L180.669 644.17M179.305 639.71l52.41-102.674M227.739 537.693l-49.686 97.339M176.894 630.169l46.819-91.72M219.704 539.17l-43.82 85.847M174.926 619.762L215.69 539.9M211.715 540.558l-37.57 73.6M173.465 608.36l34.241-67.081M203.711 541.973l-30.788 60.317M172.51 595.967l27.194-53.275M195.715 543.374l-23.467 45.974M172.12 582.465l19.605-38.407M187.7 544.813l-15.55 30.463M172.328 567.795l11.395-22.324M179.696 546.229l-7.114 13.937M173.122 551.977l2.586-5.066M257.722 536.01l-66.94 131.14M192.768 670.392l66.719-130.708M261.129 543.6l-66.332 129.948M196.914 676.532l65.69-128.691M263.869 552.495l-64.75 126.85M201.371 682.065l63.473-124.348M265.152 564.245L203.718 684.6M206.09 687.084l56.86-111.394M263.768 581.22l-55.226 108.192M210.989 691.751l53.56-104.93M265.376 592.335l-51.83 101.537M216.174 695.857l49.949-97.854M266.914 603.586l-48.083 94.197M221.558 699.573l46.006-90.13M268.293 615.147l-43.996 86.192M227.104 702.971l41.884-82.052M269.533 626.983l-39.61 77.598M232.818 706.041l37.444-73.355M270.737 638.887l-34.989 68.546M238.75 708.686l32.567-63.804M271.711 651.243l-29.974 58.722M244.755 711.184l27.424-53.727M272.628 663.71l-24.754 48.496M250.93 713.352l22.015-43.13M273.227 676.801l-19.11 37.44M257.328 715.08l16.198-31.734M273.694 690.15l-13.162 25.784M263.763 716.738l9.994-19.579M273.854 704.1l-6.786 13.295M270.385 718.028l3.356-6.575" fill="none" stroke="#c13c1b" stroke-width=".43234" />
      <path d="M273.552 718.651c-90.453-15.254-106.91-83.457-100.116-171.364l82.412-14.522c7.81 13.003 12.545 31.47 6.664 40.972 7.634 48.439 12.124 96.77 11.04 144.914z" fill="none" stroke="#000" stroke-width=".43234" />
   </g>
   <path d="M176.784 530.58a.813 2.047-.507 11-1.627 0 .813 2.047-.507 111.627 0z" style="marker:none" color="#000" fill-opacity=".706" fill-rule="evenodd" overflow="visible" />
   <path d="M221.917 298.611l2.956 40.868 7.324 26.138c-1.157 9.622-5.946 17.077-20.835 18.688-13.584 1.47-21.969-4.2-24.597-17.926-1.324-4.641-3.566-9.773-4.522-13.947-4.734 1.424-26.263-3.905-25.34-8.748.357-.902.715-2.724 1.073-4.767-.035-2.079-.804-2.82-2.16-3.024-.776.196-1.789-3.744.439-4.169-2.2.055-2.106-2.603-1.69-3.658.43-1.107.65-2.474.364-3.343-4.478-.21-7.826-3.17-5.558-7.908 2.173-4.541 8.25-12.699 11.55-18.12-.112-2.097 1.167-5.92 2.786-9.004 6.545-.73 26.858-2.092 33.027 11.412l25.183-2.492z" fill="#a13c2a" fill-rule="evenodd" stroke="#000" stroke-width=".363" />
   <path d="M198.365 303.33c-1.186 32.283-10.023 50.125-39.166 43.97" fill="none" stroke="#000" stroke-width="1.451" />
   <path d="M195.535 300.674c-2.493-.627-4.886-1.454-7.031-2.776-4.04-2.483-7.043-5.815-12.707-6.97-4.542-.846-8.585-.442-11.242.707-2.695 1.166-1.499 3.341.617 2.53 2.115-.812 5.94-1.52 9.577-.77 3.638.75 9.227 5.046 12.706 6.97 3.479 1.925 5.37 2.322 7.895 2.838.412-.93.431-1.763.185-2.53zM195.72 304.745c-6.61-.798-8.376-.852-13.878-2.961-7.324-2.547-15.67-5.853-19.43.555-1.648 2.61-2.93 3.564 1.05 3.27 10.261 2.382 12.585.044 17.208-.926 3.443.594 9.034 1.85 14.557 3.084.464-.933.686-1.926.493-3.022z" fill-rule="evenodd" stroke="#000" stroke-width=".086" />
   <path d="M175.387 300.604c-3.68-1.543-7.202-2.364-10.075-.218.238 2.003.917 3.632 2.66 4.361 2.084.474 5.644.283 6.935-.872 1.291-1.156 1.64-2.696.48-3.271z" fill="none" stroke="#000" stroke-width=".086" />
   <path d="M179.409 303.25c-1.616-.453-2.506-1.051-3.577-1.613.16 1.129-.35 1.811-.872 2.486.581.218 3.693-.655 4.449-.873zM165.35 301.255c-1.216 1.381-1.613 1.95-1.826 3.318 1.686-.189 3.088.501 4.405.174-1.714-1.104-2.363-1.927-2.578-3.492z" fill="#fff" fill-rule="evenodd" stroke="#000" stroke-width=".086" />
   <path d="M166.042 334.013c-3.63-1.58-7.295.601-10.642 1.264m-.829-7.196c4.25-1.79 7.563 2.5 10.599 2.006" fill="none" stroke="#000" stroke-width=".086" />
   <path d="M163.955 289.51c-.065-1.437.754-3.757 1.295-5.798 12.563-.39 21.051-1.343 41.634 9.622-2.375 2.755-4.466 5.51-5.86 8.265" fill="none" stroke="red" stroke-width=".086" />
   <g>
      <path d="M156.67 248.093l76.2-225.474c4.822-17.24 36.19-14.083 31.648 7.253l-58.962 219.365 66.612-221.85c4.909-18.728 32.848-15.52 29.59 5.432L254.3 250.523l-97.63-2.43z" fill="#fac53a" fill-rule="evenodd" stroke="#c13c1b" stroke-width="1.002" />
      <path d="M178.63 248.576L251.583 11.95m2.573.428l-68.613 236.287M226.14 249.808L289.464 15.38m2.86.572l-59.751 234M207.32 244.233c5.76-1.927 14.321-1.531 19.657 2.328M234.234 244.887c6.266-.446 13.465-.649 20.127 4.049M208.853 239.134c8.446-1.483 14.39.248 18.952 3.184M235.006 241.073c6.46-1.516 13.873-.29 20.199 4.102M173.372 197.492c6.548-1.125 13.622.042 19.419 4.085M175.156 193.497c6.542-.434 13.964.16 19.374 4.444M200.19 197.59c6.28-.72 12.653.284 17.984 4.684M198.759 202.158c6.95-.595 13.014.186 18.13 4.66M219.75 200.685c5.575-.49 11.376-1.075 18.799 2.5M218.482 205.109c5.403-.852 11.458-1.096 18.842 1.667M244.309 204.916c6.381-.34 12.902-.024 18.951 4.22M243.273 208.883c6.99-.21 13.698.823 19.078 4.574M186.57 159.542c6.23-.738 12.356-.474 18.118 3.336M187.985 155.158c6.844-.718 12.972.884 18.064 3.872M211.153 160.344c6.966-.542 12.25 1.006 17.006 3.209M210.119 164.617c6.584-.636 12.113.333 16.878 3.336M231.54 163.236c6.334-.773 12.094-.083 17.081 2.578M229.731 167.98c5.975-.768 12.027-.378 17.535 2.33M253.848 167.706c5.958-.38 12.225.959 17.647 4.605M252.74 171.859c6.287-.241 12.816.887 17.895 4.47M199.733 120.787c6.426-1.024 12.282-.139 17.562 2.678M198.321 124.49c6.502-.469 12.464.288 17.486 3.183M221.509 125.35c6.688-.691 11.92 1.18 16.4 3.766M220.328 128.917c5.797.018 11.349.922 16.273 4.093M241.655 129.336c7.022-.76 12.179.553 16.173 3.158M240.493 133.202c6.11-.546 11.763-.137 16.197 2.805M262.553 133.202c6.141-.177 11.809.766 16.273 4.548M261.643 137.043c6.335-.196 11.841 1.124 16.223 4.497M210.181 88.986c7.807-.628 12.28 1.317 16.299 3.613M208.984 92.688c5.901-.024 11.583.6 16.349 3.916M230.75 93.307c5.632.008 11.19.296 15.894 3.815M229.253 97.53c6.112-.17 11.526.911 16.02 3.639M249.866 100.61c5.161-.106 10.81.024 15.507 3.031M269.86 104.3c5.701-.154 11.516.683 15.608 4.08M251.336 96.317c5.098-.071 10.892-.15 15.53 3.462M270.82 100.353c5.037-.066 10.593-.071 15.432 3.815M219.317 62.991c5.215-.004 10.487-.615 15.313 3.588M220.252 59.11c5.584-.545 10.887-.02 15.465 3.26M239.236 62.713c5.341.127 10.343.306 14.858 4.074M238.598 66.535c5.175.262 10.364.45 14.883 4.321M259.495 69.726c4.883-.112 9.796-.6 14.353 3.26M260.582 66.213c4.967-.334 9.848-.172 14.15 3.285M278.548 70.282c5.043-.392 9.996-.335 14.176 3.588M277.639 73.743c4.81-.336 9.619.059 14.428 3.462M284.972 45.515c4.816.015 9.533.288 13.09 3.614M286.154 41.706c4.596-.26 9.012.31 12.938 3.133M268.584 38.878c4.967-.43 11.27.446 13.494 2.426M267.775 42.403c3.906-.246 9.066-.08 13.51 2.747M247.183 35.517c4.512.193 9.22.243 14.656 3.761M246.207 38.954c4.927-.299 10.51.667 14.533 4.09M229.739 31.702c6.009-.745 9.765.335 14.365 2.771M228.752 35.235c5.06.078 10.18-.076 14.504 2.86" fill="none" stroke="#c13c1b" stroke-width="1.002" />
      <path d="M254.284 251.197l-97.66-2.395c6.604 12.68 6.544 27.433 6.874 40.635 16.52-.573 24.867-.096 32.914 11.565 35.078-.182 19.388 21.138 28.338 38.163 11.488-29.144 21.548-58.825 29.534-87.968z" fill="#c13c1b" fill-rule="evenodd" stroke="#000" stroke-width=".566" />
      <path d="M161.065 235.968c6.543-.969 14.326.742 19.662 4.6M187.29 241.332c6.265-.446 12.56-.777 19.221 3.92M162.423 231.927c8.445-1.483 15.444 1.83 20.006 4.765M188.663 237.526c6.46-1.516 12.485-.639 18.81 3.753" fill="none" stroke="#c13c1b" stroke-width="1.002" />
   </g>
   <path d="M158.203 318.399c4.425 3.586 2.047 5.805-.044 5.713-2.07-.092-5.057-3.608-5.8-1.635-.752 1.991 3.353 1.282 3.292.72M165.744 331.919c-.305-.087-9.552-.087-9.552-.087" fill="none" stroke="#000" stroke-width=".086" />
   <path d="M169.094 350.974c-4.704-.642-10.241-3.965-11.915-5.836-4.682 19.842-3.162 45.552-25.729 42.24-.472-.056-.912-.08-1.28.116-3.315 2.83-1.96 9.381 9.895 7.482 20.62-3.305 24.245-32.155 29.03-44.002z" fill-rule="evenodd" stroke="#000" stroke-width=".254" />
   <path d="M155.917 323.245c-1.575-.93-3.1-2.1-3.603-.769-.752 1.992 3.354 1.283 3.293.72" fill-opacity=".706" fill-rule="evenodd" stroke="#000" stroke-width=".086" />
   <path d="M205.142 308.774c-6.292 2.95-6.476 7.402-4.366 10.696 1.244 2.491 4.047 1.934 4.855.686.85-1.314 1.649-3.05 2.779-4.76 9.785-12.535 8.424-15.942 8.455-16.39.055-.787-1.921-6.303-5.366-6.008-3.536.303-12.168 4.945-4.638 13.5" fill="#a13c2a" fill-rule="evenodd" />
   <path d="M205.078 308.774c-6.29 2.95-6.475 7.402-4.366 10.696 1.244 2.491 4.048 1.934 4.856.686.85-1.314 1.649-3.05 2.779-4.76 9.785-12.535 8.424-15.942 8.455-16.39.055-.787-1.921-6.303-5.366-6.008-3.536.303-12.168 4.945-4.639 13.5 1.638 1.834-.117 3.491-1.884 5.811m2.015-11.38c5.081 1.213 3.94 6.003-.733 12.824-3.42 1.955-4.344 2.968-4.078 2.286.275-.706.085-1.796 2.883-3.73" fill="none" stroke="#000" stroke-width=".725" />
</svg>