<svg width="589" height="600" xmlns="http://www.w3.org/2000/svg">
    <path d="M10.65 598.78C1.5 597.33 0 596.63 0 593.78c0-3.58 4.55-8.77 10.99-12.54 6.22-3.64 14.16-5.14 37.12-6.99 8.39-.68 26.37-3.04 39.96-5.24l24.7-4.01 4.86-5.22c5.8-6.25 8.55-14.58 13.25-40.25 3.74-20.49 6.51-73.3 5.09-97.21-1.92-32.42-7.23-66.39-15.61-99.79-7.16-28.56-9.17-32.12-32.82-58.11-22.71-24.94-38.01-43.55-43.84-53.34-9.71-16.3-15.11-35.21-18.5-64.96-1.02-8.87-3.29-20.08-5.34-26.38-3.34-10.22-3.58-12.38-3.57-32.83l.01-21.89 7.94-30.9C31.94 4.18 33.63 0 38.09 0c.82 0 6.03 5.19 11.56 11.54l10.06 11.53 4.56-4C82.78 2.83 126.06-1.82 162.16 8.55c12.61 3.62 19.12 6.75 25.24 12.1l4.44 3.92 8.63-12.36c6.65-9.52 9.21-12.26 11.21-11.95 2.09.31 4.32 5.06 11.66 24.83 5 13.45 9.77 25.14 10.6 25.97 3.21 3.21 5.14 17.75 5.02 37.78-.11 17.36-.54 21.34-3.33 30.52l-3.21 10.54 11.07 6.74c16.19 9.83 43.15 29.21 54.18 38.94 20.48 18.08 29.41 29.76 74.88 98.03 50.87 76.39 53.99 80.75 111.42 156.43 62.32 82.11 102.39 138.97 104.41 148.19 1.11 5.07-1.7 16.61-4.29 17.6-6.01 2.29-29.76-18.59-74.01-65.07-17.03-17.91-31.26-32.28-31.6-31.94-.35.35 1.1 2.84 3.2 5.51 5.69 7.28 39.58 58.25 48.92 73.63 12.31 20.22 11.1 22.89-9.83 21.65-15.78-.92-50.78-7.54-66.87-12.64-13.44-4.26-32.69-13.71-38.03-18.66-1.82-1.67-5.25-6.38-7.6-10.46-2.38-4.09-15.24-26.24-28.62-49.27l-24.3-41.84-17.98-11.36c-9.89-6.26-18.12-11.17-18.32-10.94-.62.76 4.38 34.98 7.18 49.11 2.89 14.58 2.32 20.18-2.05 20.18-1.08 0-8.2-4.55-15.81-10.14-7.63-5.58-16.77-11.58-20.31-13.34-7.47-3.71-19.88-7.95-20.74-7.1-.71.73 1.64 39.4 3.41 56.33 1.73 16.42 3.29 21.74 6.76 23.18 1.56.66 12.41 2.36 24.1 3.8 33.26 4.09 50.03 9.89 59.76 20.65 9.42 10.42 18.01 9.61-108.11 10.21-61.67.3-134.15.59-161.09.66-26.93.06-54.77.51-61.86.99-7.09.48-15.93.39-19.64-.19m23.61-7.11c4.69-1.39 7.01-2.95 8.74-5.88 1.3-2.19 1.99-4.36 1.56-4.81-1.1-1.08-21.82 1.99-26.22 3.89-1.93.83-4.95 2.41-6.69 3.49l-3.16 1.98 6.38 1.48c8.83 2.06 12.03 2.04 19.39-.15m493.52.6c.44-.69-11.92-21.7-27.47-46.67-15.53-24.96-28.98-46.83-29.88-48.6-7.36-14.42-44.09-47.37-70.39-63.13-6.3-3.79-11.75-7.23-12.1-7.65-.35-.41-7.02-4.84-14.82-9.81-23.16-14.8-193.93-139.29-202.57-147.68-11.07-10.74-16.42-22.97-16.48-37.64-.05-9.13.44-11.33 4.19-18.93 6.39-12.98 20.7-25.74 36.97-32.98 18.61-8.28 25.81-9.58 54.16-9.83 13.47-.11 24.77-.72 25.13-1.34.65-1.12-6.33-6.98-21.35-17.97-9.42-6.89-22.29-13.82-23.86-12.85-.63.39-3.67 4.58-6.78 9.33-12.26 18.76-21.83 26.86-47.25 39.92-16.44 8.44-18.23 9.06-32.76 11.23-15.13 2.26-15.6 2.26-31.85-.42-32.22-5.29-54.58-18.43-74.94-44.03l-3.59-4.51.8 5.8c1.69 12.32 4.8 25.4 7.76 32.67 9.94 24.46 33 54.44 75.32 98 45.38 46.69 61.72 65.11 75.4 84.99 7.18 10.46 18.82 34.3 25.75 52.79 4.79 12.8 12.24 39.9 12.24 44.56 0 1.34.73 2.45 1.61 2.46.89 0 8.33.57 16.54 1.25 12.73 1.06 16.91 2.02 28.35 6.53 15.39 6.05 25.92 11.66 35.85 19.11 3.83 2.86 7.37 4.94 7.87 4.63.51-.31-.44-9.42-2.09-20.24-6.38-41.6-6.26-40.56-4.44-42.74 2.87-3.46 6.46-2.34 19.29 6.05 6.81 4.44 15.96 10.37 20.35 13.17 7.94 5.07 8.05 5.23 26.98 37.94 37.48 64.83 39.14 67.39 46.15 71.5 16.52 9.64 55.01 22.15 76.96 24.99 11.87 1.55 24.04 1.6 24.95.1m-386.02-5.78c2.83-2.76 5.17-5.57 5.17-6.23 0-.69-2.81-.81-6.77-.27-3.72.5-11.47 1.37-17.22 1.91-8.76.81-11.22 1.57-15.17 4.71l-4.7 3.73 4.2.87c2.32.47 9.86.74 16.77.6l12.54-.27 5.18-5.05m-41.77-2.21l8.88-6.71 23.07-2.91c12.69-1.6 23.3-3.13 23.57-3.4.27-.27 3.09-20.71 6.28-45.42 5.3-41.26 5.6-45.07 3.66-46.5-2.18-1.59-12.83-4.14-19.3-4.61l-3.69-.27-2.27 22.19c-2.71 26.47-7.25 48.87-12.05 59.57-3.19 7.1-10.46 15.45-13.43 15.45-.66 0-14.5 2.03-30.75 4.51-16.26 2.49-30.16 4.51-30.89 4.51-1.59 0-3.32 7.13-2.19 8.98.51.8 8.47 1.32 20.53 1.32h19.71l8.87-6.71m242.87 4.75c5.55-6.68-19.23-14.47-53.52-16.8-16.02-1.08-19.8-2.42-22.05-7.77-2.19-5.25-3.76-20.7-5.69-55.88-1.18-21.63-1.82-26.69-3.52-28-1.16-.89-5.66-1.61-10.07-1.61-4.38 0-9.87-.39-12.19-.85l-4.23-.84.8 8.24c.44 4.55 1.51 21.88 2.37 38.54l1.56 30.28-4.32 8.1c-2.37 4.44-5.23 8.56-6.35 9.14-1.12.6-15.96 2.05-32.97 3.25-17.01 1.2-32.23 2.7-33.83 3.35-2.19.88-2.9 2.21-2.9 5.44 0 2.36.7 4.97 1.55 5.82 1.17 1.17 23.5 1.55 92.64 1.55 79.89 0 91.29-.25 92.72-1.96m238.95-6.15c1.09-4.36.67-5.55-5.67-16-10.69-17.64-21.05-32.24-47.42-66.82-71.12-93.28-115.96-155.18-158.75-219.1-41.42-61.9-53.21-77.82-68.61-92.67-4.98-4.79-7.27-5.88-18.51-8.81-23.86-6.19-54.51-5.52-74.47 1.64-15.21 5.45-24.2 10.87-33.86 20.38-15.01 14.8-18.29 29.13-10.52 45.95 6.37 13.78 11.6 18.56 55.98 50.88 75.96 55.34 165.36 118.5 194.02 137.08 12.85 8.35 48.41 38.31 70.48 59.4 5.95 5.69 20.11 20.24 31.46 32.34 41.43 44.15 59.93 61.97 63.21 60.9.82-.26 2-2.59 2.66-5.17m-393.43-14.44c36.97-3.04 34.07-2.28 38-10.02 3.28-6.45 3.36-7.14 2.56-22.77l-.83-16.12-9.33-8.78c-11.33-10.64-21.85-18.3-33.7-24.53-9.23-4.86-12.38-5.68-12.38-3.26 0 2.07-8.91 78.32-9.73 83.24-.38 2.31-.14 4.19.53 4.19s11.87-.88 24.88-1.95m37.89-69.83c-5.09-57.87-24.91-108.97-56.89-146.66-16.16-19.04-46.17-51.04-46.62-49.7-.24.74 1.03 6.47 2.82 12.74 11.67 40.66 18.51 93.6 17.18 132.78-.6 17.9-.55 18.38 2.11 18.85 1.48.27 8.5 1.79 15.59 3.39 19.37 4.35 41.58 16.57 59.29 32.63 3.54 3.2 6.66 5.85 6.92 5.89.26.03.08-4.44-.4-9.92m-79.69-309.25c19.74-4.07 43.81-17.51 57.17-31.93 19.09-20.59 28.72-44.24 28.72-70.52 0-16.7-.96-20.52-13.17-53.3l-8.83-23.7-4.31 6.26c-6.36 9.25-12.85 16.02-15.31 16.02-1.2 0-4.17-2.1-6.61-4.67-15.83-16.67-65.05-23-97.95-12.62-8.02 2.53-11.58 4.53-17.13 9.6-3.85 3.52-7.9 6.4-8.98 6.4-1.09 0-6.56-4.96-12.18-10.99L37.79 8.9 32.5 29.88c-8.18 32.49-9.97 43.52-9.78 60.58.17 14.51.78 17.68 5.36 27.99 1.1 2.48 2.99 7.2 4.21 10.49 5.29 14.44 21.48 33.34 37.82 44.16 12.92 8.54 23.92 13.23 38.15 16.25 14.26 3.01 23.73 3.02 38.32.01" />
    <path d="M123.19 140.02c-1.05-1.6-7.49-14.77-14.32-29.29-6.85-14.52-12.83-26.81-13.3-27.31-.48-.51-3.42 1.08-6.52 3.54-10.04 7.95-19.58 8.87-28.62 2.78-12.33-8.29-14.68-23.43-5.34-34.5 4-4.77 12.17-8.84 17.73-8.84 4.9 0 13.4 3.87 16.75 7.63 1.42 1.58 10.43 19.4 20.01 39.59 9.59 20.19 17.95 36.68 18.57 36.65.63-.02 8.66-16.45 17.82-36.51 9.18-20.05 17.93-37.84 19.45-39.53 3.55-3.93 11.99-7.83 16.95-7.83 5.56 0 13.73 4.07 17.74 8.84 9.33 11.07 6.98 26.21-5.35 34.5-9.12 6.14-19.61 5.05-28.5-2.98l-5-4.51-1.95 2.97c-1.07 1.64-7.24 14.57-13.72 28.73-6.5 14.16-12.39 26.47-13.12 27.36-2.13 2.59-7.22 1.88-9.28-1.29M76.92 86.19c5.08-1.92 10.41-7.33 12.02-12.18 3.47-10.49-9.93-23.74-20.13-19.89-8.89 3.36-14.72 13.04-12.05 20.06 1.86 4.91 6.14 9.43 10.9 11.56 4.79 2.12 4.82 2.12 9.26.45m109.55 0c5.08-1.92 10.41-7.33 12.02-12.18 3.47-10.49-9.93-23.74-20.13-19.89-8.89 3.36-14.72 13.04-12.05 20.06 1.86 4.91 6.14 9.43 10.91 11.56 4.78 2.12 4.82 2.12 9.25.45" />
    <path d="M65.02 77.96c-6.94-6.95-2.03-18.73 7.8-18.73 6.29 0 10.95 4.66 10.95 10.94 0 6.28-4.66 10.95-10.95 10.95-3.2 0-5.61-.98-7.8-3.16M174.57 77.96c-6.94-6.95-2.03-18.73 7.8-18.73 6.29 0 10.96 4.66 10.96 10.94 0 6.28-4.67 10.95-10.96 10.95-3.2 0-5.61-.98-7.8-3.16" />
    <path fill="#d7d6c7" d="M108.26 189.35c-14.23-3.02-25.23-7.71-38.15-16.25-16.34-10.82-32.53-29.72-37.82-44.16-1.22-3.29-3.11-8.01-4.21-10.49-4.58-10.31-5.19-13.48-5.36-27.99-.1-9.92.63-19.35 2.17-27.37 2.73-14.3 11.43-49.76 12.74-51.9.56-.9 4.63 2.55 10.74 9.13C53.8 26.14 59.11 30.9 60.19 30.9c1.07 0 5.12-2.88 8.97-6.4 5.55-5.07 9.11-7.07 17.13-9.6 32.9-10.38 82.12-4.05 97.95 12.62 2.44 2.57 5.41 4.67 6.61 4.67 2.46 0 8.95-6.77 15.31-16.02l4.31-6.26 8.83 23.7c12.21 32.78 13.17 36.6 13.17 53.3 0 26.28-9.63 49.93-28.72 70.52-13.36 14.42-37.43 27.86-57.17 31.93-14.59 3.01-24.06 3-38.32-.01m24.21-48.04c.73-.89 6.62-13.2 13.12-27.36 6.48-14.16 12.65-27.09 13.72-28.73l1.95-2.97 5 4.51c8.89 8.03 19.38 9.12 28.5 2.98 12.33-8.29 14.68-23.43 5.35-34.5-4.01-4.77-12.18-8.84-17.74-8.84-4.96 0-13.4 3.9-16.95 7.83-1.52 1.69-10.27 19.48-19.45 39.53-9.16 20.06-17.19 36.49-17.82 36.51-.62.03-8.98-16.46-18.57-36.65C100 73.43 90.99 55.61 89.57 54.03c-3.35-3.76-11.85-7.63-16.75-7.63-5.56 0-13.73 4.07-17.73 8.84-9.34 11.07-6.99 26.21 5.34 34.5 9.04 6.09 18.58 5.17 28.62-2.78 3.1-2.46 6.04-4.05 6.52-3.54.47.5 6.45 12.79 13.3 27.31 6.83 14.52 13.27 27.69 14.32 29.29 2.06 3.17 7.15 3.88 9.28 1.29" />
    <path fill="#eb2e00" d="M67.66 85.74c-4.76-2.13-9.04-6.65-10.9-11.56C52.87 63.9 66.74 50.3 77.1 54.23c8.57 3.25 14.2 12.61 11.87 19.7-1.64 4.92-6.94 10.33-12.05 12.26-4.44 1.67-4.47 1.67-9.26-.45m12.96-7.78c6.94-6.95 2.03-18.73-7.8-18.73-6.29 0-10.96 4.66-10.96 10.94 0 6.28 4.67 10.95 10.96 10.95 3.2 0 5.61-.98 7.8-3.16M177.22 85.74c-4.77-2.13-9.05-6.65-10.91-11.56-2.67-7.02 3.16-16.7 12.05-20.06 10.2-3.85 23.6 9.4 20.13 19.89-1.61 4.85-6.94 10.26-12.02 12.18-4.43 1.67-4.47 1.67-9.25-.45m12.95-7.78c6.95-6.95 2.03-18.73-7.8-18.73-6.29 0-10.95 4.66-10.95 10.94 0 6.28 4.66 10.95 10.95 10.95 3.2 0 5.61-.98 7.8-3.16" />
    <path fill="#f8c574" d="M502.83 592.17c-21.95-2.84-60.44-15.35-76.96-24.99-7.01-4.11-8.67-6.67-46.15-71.5-18.93-32.71-19.04-32.87-26.98-37.94-4.39-2.8-13.54-8.73-20.35-13.17-12.83-8.39-16.42-9.51-19.29-6.05-1.82 2.18-1.94 1.14 4.44 42.74 1.65 10.82 2.6 19.93 2.09 20.24-.5.31-4.04-1.77-7.87-4.63-9.93-7.45-20.46-13.06-35.85-19.11-11.44-4.51-15.62-5.47-28.35-6.53-8.21-.68-15.65-1.25-16.54-1.25-.88-.01-1.61-1.12-1.61-2.46 0-4.66-7.45-31.76-12.24-44.56-6.93-18.49-18.57-42.33-25.75-52.79-13.68-19.88-30.02-38.3-75.4-84.99-42.32-43.56-65.38-73.54-75.32-98-2.96-7.27-6.07-20.35-7.76-32.67l-.8-5.8 3.59 4.51c13.67 17.19 30.46 30.13 48.44 37.33 6.01 2.39 16.6 5.08 26.5 6.7 16.25 2.68 16.72 2.68 31.85.42 14.53-2.17 16.32-2.79 32.76-11.23 25.44-13.07 34.99-21.16 47.29-39.98 4.23-6.46 6.42-8.69 8.57-8.69 3.43 0 18.84 9.26 29.59 17.78 14.04 11.12 15.2 12.15 14.46 12.87-.38.4-11.87.82-25.5.93-28.69.25-35.79 1.52-54.46 9.83-16.27 7.24-30.58 20-36.97 32.98-3.75 7.6-4.24 9.8-4.19 18.93.06 14.67 5.41 26.9 16.48 37.64 8.64 8.39 179.41 132.88 202.57 147.68 7.8 4.97 14.47 9.4 14.82 9.81.35.42 5.8 3.86 12.1 7.65 26.3 15.76 63.03 48.71 70.39 63.13.9 1.77 14.35 23.64 29.88 48.6 15.55 24.97 27.91 45.98 27.47 46.67-.91 1.5-13.08 1.45-24.95-.1" />
    <path fill="#f8c574" d="M219.75 502.64c-17.71-16.06-39.92-28.28-59.29-32.63-7.09-1.6-14.11-3.12-15.59-3.39-2.66-.47-2.71-.95-2.11-18.85 1.33-39.18-5.51-92.12-17.18-132.78-1.79-6.27-3.06-12-2.82-12.74.45-1.34 30.46 30.66 46.62 49.7 27.49 32.4 45.73 73.73 53.49 121.23 2.54 15.55 4.67 35.46 3.8 35.35-.26-.04-3.38-2.69-6.92-5.89" />
    <path fill="#6b8e92" d="M570.13 582.17c-8.66-7.3-24.71-23.59-54.19-55.02-11.35-12.1-25.51-26.65-31.46-32.34-22.07-21.09-57.63-51.05-70.48-59.4-28.66-18.58-118.06-81.74-194.02-137.08-44.38-32.32-49.61-37.1-55.98-50.88-7.77-16.82-4.49-31.15 10.52-45.95 9.68-9.55 18.64-14.93 34.01-20.43 19.65-7.04 50.63-7.7 74.32-1.57 11.25 2.91 13.52 3.99 18.51 8.79 15.4 14.85 27.19 30.77 68.61 92.67 42.79 63.92 87.63 125.82 158.75 219.1 26.37 34.58 36.73 49.18 47.42 66.82 6.34 10.45 6.76 11.64 5.67 16-.66 2.58-1.84 4.91-2.66 5.17-.81.27-4.87-2.38-9.02-5.88" />
    <path fill="#828282" d="M50.88 589.67c-1.13-1.85.6-8.98 2.19-8.98.73 0 14.63-2.02 30.89-4.51 16.25-2.48 30.09-4.51 30.75-4.51.65 0 3.15-1.72 5.56-3.82 9.31-8.18 15.87-31.48 19.74-70.21 1.2-12.04 2.81-22.31 3.58-22.83.77-.51 2.27-.69 3.34-.41 1.07.3 5.19 1.17 9.17 1.96 12.73 2.52 12.25-1.61 5.69 49.48-3.19 24.71-6.01 45.15-6.28 45.42-.27.27-10.88 1.8-23.57 3.4l-23.07 2.91-8.88 6.71-8.87 6.71H71.41c-12.06 0-20.02-.52-20.53-1.32M157.5 589.44c-.85-.85-1.55-3.46-1.55-5.82 0-3.23.71-4.56 2.9-5.44 1.6-.65 16.82-2.15 33.83-3.35 17.01-1.2 31.85-2.65 32.97-3.25 1.12-.58 3.98-4.7 6.35-9.14l4.32-8.1-1.56-30.28c-.86-16.66-1.93-33.99-2.37-38.54l-.8-8.24 4.23.84c2.32.46 7.81.85 12.19.85 4.41 0 8.91.72 10.07 1.61 1.7 1.31 2.34 6.37 3.52 28 1.93 35.18 3.5 50.63 5.69 55.88 2.25 5.35 6.03 6.69 22.05 7.77 34.29 2.33 59.07 10.12 53.52 16.8-1.43 1.71-12.83 1.96-92.72 1.96-69.14 0-91.47-.38-92.64-1.55" />
    <path fill="#e4e2cb" d="M14.87 591.82l-6.38-1.48 3.16-1.98c1.74-1.08 4.76-2.66 6.69-3.49 4.4-1.9 25.12-4.97 26.22-3.89.43.45-.26 2.62-1.56 4.81-1.73 2.93-4.05 4.49-8.74 5.88-7.36 2.19-10.56 2.21-19.39.15M107.27 591.21l-4.2-.87 4.7-3.73c4.06-3.22 6.32-3.88 16.45-4.8 6.47-.6 14.21-1.45 17.23-1.9 3.03-.45 5.48-.28 5.48.36 0 .65-2.34 3.46-5.17 6.22l-5.18 5.05-12.54.27c-6.91.14-14.45-.13-16.77-.6" />
</svg>