<svg width="600" height="173" xmlns="http://www.w3.org/2000/svg">
    <path d="M224.27 172.19c-17.87-1.89-47.9-9.58-66.93-17.15-14.34-5.7-46.24-21.75-58.12-29.24-19.15-12.08-24.61-16.61-46.39-38.57C33.16 67.4 28.5 61.97 19.84 48.84.89 20.05-3.24 9.6 1.67 2.87 3.31.62 7.57.59 270.81.28 567.96-.05 543.19-.71 558.9 7.87c20.55 11.23 33.89 29.63 38.81 53.55 2.72 13.21 2.85 20.49.56 31.41-3.52 16.76-12.1 30.26-22.26 35-14.71 6.86-29.16.17-42.23-19.56-4.64-7-10.11-22.53-10.08-28.6.03-4.59 3.28-16.77 8.16-30.49l3.64-10.25-2.85-5.64c-3.1-6.13-7.03-10.36-8.69-9.34-.57.36-5.48 7.17-10.9 15.12-30.25 44.5-55.11 70.81-86.71 91.79-16.04 10.65-39.76 21.8-57.27 26.95-27.88 8.16-39.51 10.45-68.49 13.44-15.43 1.59-64.48 2.19-76.32.94m41.09-6.25c0-.73-6.07-1.18-15.85-1.18s-15.85.45-15.85 1.18 6.07 1.18 15.85 1.18 15.85-.45 15.85-1.18m17.61-8.83v-10h-14.09V167.12h14.09v-10.01m-52.83-.59v-9.41h-14.09v17.5l3.81.48c2.1.26 5.28.55 7.05.66l3.23.19v-9.42m65 8.67l5.45-.75v-17.33H286.5v9.41c0 10.38-.47 9.92 8.64 8.67m-82.62-9.84v-8.24h-14.2l.35 6.77.35 6.75 5.87 1.37c3.23.75 6.27 1.41 6.75 1.47.49.07.88-3.59.88-8.12m52.84-1.18v-7.06h-31.7v14.12h31.7v-7.06m66.93 6.01c2.58-.71 2.98-1.54 3.29-6.94l.35-6.13h-31.82v14.12l12.62-.12c6.94-.06 13.94-.48 15.56-.93m-137.38-7.19v-5.88h-15.85c-8.72 0-15.85.46-15.85 1.01 0 1.19 7.77 4.39 19.37 7.97 12.32 3.8 12.33 3.8 12.33-3.1m158.51-2.01v-3.87h-14.09v11.52l7.05-1.89c6.8-1.83 7.04-2.03 7.04-5.76m11.89-.02c3.14-1.13 5.73-2.45 5.73-2.94 0-.51-3.17-.91-7.05-.91-6.73 0-7.04.13-7.04 2.94 0 3.5.82 3.58 8.36.91m12.46-3.38c-.39-.4-1.41-.44-2.26-.09-.94.37-.66.64.72.7 1.23.05 1.92-.22 1.54-.61m-218.08-11.06v-7.06h-15.85c-19.92 0-20.65 1.27-5.08 8.86 7.68 3.75 12.24 5.26 15.85 5.26h5.08v-7.06m17.61-8.83V111.8h-14.09v31.78h14.09v-15.89m17.61 0V111.8h-14.09v31.78h14.09v-15.89m35.23 8.83v-7.06h-31.71v14.12h31.71v-7.06m17.61-8.83V111.8h-14.09v31.78h14.09v-15.89m17.61 0V111.8h-14.09v31.78h14.09v-15.89m35.23 8.83v-7.06h-31.71v14.12h31.71v-7.06m18.78-8.83V111.8h-15.26v31.78h15.26v-15.89m16.44 0V111.8H322.9v31.78h12.91v-15.89m35.23 8.83v-7.06h-31.71v14.12h31.71v-7.06m17.35-9.12l.33-15.6h-14.16v31.9l6.75-.36 6.75-.35.33-15.59m11.39 9.46l6.48-3.19V111.8h-14.09v14.13c0 7.76.26 14.12.57 14.12.3 0 3.47-1.44 7.04-3.19m13.53-6.95c0-.24-.8-.45-1.76-.45-.97 0-1.77.51-1.77 1.14 0 .62.8.83 1.77.46.96-.37 1.76-.89 1.76-1.15m-288.85-8.69v-9.42h-14.09v11.43l6.75 3.67c3.71 2.01 6.88 3.69 7.05 3.7.16.02.29-4.2.29-9.38m35.23-2.36v-7.06h-31.71V125.93h31.71v-7.07m70.45 0v-7.06h-31.71V125.93h31.71v-7.07m70.45 0v-7.06h-31.71V125.93h31.71v-7.07m70.45 0v-7.06h-31.71V125.93h31.71v-7.07m57.7.4c5.07-3.66 9.22-6.83 9.22-7.06 0-.22-6.34-.4-14.09-.4h-14.09V125.93h4.87c4.03 0 6.42-1.13 14.09-6.67m143.01 1.99c5.75-2.94 10.94-9.2 15.36-18.53 11.59-24.49 4.53-55.19-17.72-76.99-10.24-10.05-28.71-19.66-34.84-18.12-1.44.37-3.5 2.01-4.58 3.65-1.9 2.92-1.85 3.09 2.27 7.33 4.75 4.91 10.23 15.8 10.17 20.25-.03 1.62-1.91 8.23-4.17 14.71-7.73 22.01-8.13 24.32-5.78 33.04 3.57 13.22 16.26 30.26 25.86 34.75 5.97 2.77 7.85 2.76 13.43-.09m-464.9-5.33v-4.12h-6.46c-3.56 0-6.46.26-6.46.59 0 .73 10.84 7.6 12.04 7.63.48.01.88-1.84.88-4.1M89.24 92.38V76.5H75.15V98.45l6.02 4.9c3.32 2.71 6.49 4.92 7.05 4.92.56 0 1.02-7.15 1.02-15.89m35.22 8.83v-7.06h-31.7v14.12h31.7v-7.06m17.61-8.83V76.5h-14.09V108.27h14.09V92.38m17.62 0V76.5H145.6V108.27h14.09V92.38m35.22 8.83v-7.06h-31.7v14.12h31.7v-7.06m17.61-8.83V76.5h-14.09V108.27h14.09V92.38m17.62 0V76.5h-14.09V108.27h14.09V92.38m35.22 8.83v-7.06h-31.7v14.12h31.7v-7.06m17.61-8.83V76.5h-14.09V108.27h14.09V92.38m17.62 0V76.5H286.5V108.27h14.09V92.38m35.22 8.83v-7.06h-31.7v14.12h31.7v-7.06m17.61-8.83V76.5h-14.09V108.27h14.09V92.38m17.62 0V76.5h-14.09V108.27h14.09V92.38m35.22 8.83v-7.06h-31.7v14.12h31.7v-7.06m17.61-8.83V76.5h-14.09V108.27h14.09V92.38m17.62 0V76.5H427.4V108.27h14.09V92.38m16.44 2.22c0-.25-2.92-.45-6.46-.45h-6.46V106.09l6.46-5.51c3.54-3.05 6.46-5.74 6.46-5.98M71.62 85.32V76.5h-7.04c-9.19 0-9.25 1.81-.33 10.85 3.69 3.74 6.86 6.8 7.05 6.8.17 0 .32-3.98.32-8.83m52.84-1.76V76.5h-31.7v14.12h31.7v-7.06m70.45 0V76.5h-31.7v14.12h31.7v-7.06m70.45 0V76.5h-31.7v14.12h31.7v-7.06m70.45 0V76.5h-31.7v14.12h31.7v-7.06m70.45 0V76.5h-31.7v14.12h31.7v-7.06m59.98 2.65c2.25-2.43 5.08-5.61 6.29-7.07l2.2-2.64h-29.72v14.12h8.57c8.38 0 8.65-.1 12.66-4.41M54.01 57.08V41.19H39.92l.01 10.3v10.3l4.78 5.59c2.63 3.07 5.8 5.59 7.05 5.59 2.11 0 2.25-1 2.25-15.89m35.23 8.82v-7.06H57.53V72.97h31.71V65.9m17.61-8.82V41.19H92.76v31.78h14.09V57.08m17.61 0V41.19h-14.09v31.78h14.09V57.08m35.23 8.82v-7.06h-31.71V72.97h31.71V65.9m17.61-8.82V41.19h-14.09v31.78h14.09V57.08m17.61 0V41.19h-14.09v31.78h14.09V57.08m35.23 8.82v-7.06h-31.71V72.97h31.71V65.9m17.61-8.82V41.19h-14.09v31.78h14.09V57.08m17.61 0V41.19h-14.09v31.78h14.09V57.08m35.23 8.82v-7.06h-31.71V72.97h31.71V65.9m18.78-8.82V41.19h-15.26v31.78h15.26V57.08m16.44 0V41.19H322.9v31.78h12.91V57.08m35.23 8.82v-7.06h-31.71V72.97h31.71V65.9m17.61-8.82V41.19h-14.09v31.78h14.09V57.08m17.61 0V41.19h-14.09v31.78h14.09V57.08m35.23 8.82v-7.06h-31.71V72.97h31.71V65.9m17.61-8.82V41.19h-14.09v31.78h14.09V57.08m17.61 0V41.19h-14.09v31.78h14.09V57.08m10.99 3.23c.65-1.07-.26-1.47-3.29-1.47h-4.18V70.97l3.29-4.59c1.82-2.52 3.7-5.25 4.18-6.07M36 41.57c-.29-.29-2.97-.36-5.96-.16l-5.45.37 5.61 8.07 5.61 8.09.35-7.93c.19-4.36.12-8.15-.16-8.44m53.24 6.68v-7.06H57.53v14.12h31.71v-7.06m70.45 0v-7.06h-31.71v14.12h31.71v-7.06m70.45 0v-7.06h-31.71v14.12h31.71v-7.06m70.45 0v-7.06h-31.71v14.12h31.71v-7.06m70.45 0v-7.06h-31.71v14.12h31.71v-7.06m70.45 0v-7.06h-31.71v14.12h31.71v-7.06m54.17 1.47c6.75-9.05 7.05-8.53-4.79-8.53h-10.64v14.12h5.63c5.35 0 5.85-.28 9.8-5.59M54.01 30.6v-7.06h-31.7v14.12h31.7V30.6m17.61-8.83V5.88H57.53v31.78h14.09V21.77m17.62 0V5.88H75.15v31.78h14.09V21.77m35.22 8.83v-7.06h-31.7v14.12h31.7V30.6m17.61-8.83V5.88h-14.09v31.78h14.09V21.77m17.62 0V5.88H145.6v31.78h14.09V21.77m35.22 8.83v-7.06h-31.7v14.12h31.7V30.6m17.61-8.83V5.88h-14.09v31.78h14.09V21.77m17.62 0V5.88h-14.09v31.78h14.09V21.77m35.22 8.83v-7.06h-31.7v14.12h31.7V30.6m17.61-8.83V5.88h-14.09v31.78h14.09V21.77m17.62 0V5.88H286.5v31.78h14.09V21.77m35.22 8.83v-7.06h-31.7v14.12h31.7V30.6m17.61-8.83V5.88h-14.09v31.78h14.09V21.77m17.62 0V5.88h-14.09v31.78h14.09V21.77m35.22 8.83v-7.06h-31.7v14.12h31.7V30.6m17.61-8.83V5.88h-14.09v31.78h14.09V21.77m17.62 0V5.88H427.4v31.78h14.09V21.77m35.22 8.83v-7.06h-31.7v14.12h31.7V30.6m17.61-8.83V5.88h-14.09v31.78h14.09V21.77m13.85 9.65c3.43-5.67 3.77-7.09 3.77-15.89V5.88h-14.09v31.78h3.27c2.7 0 3.94-1.09 7.05-6.24M18.79 18.83V5.88h-3.61c-4.42 0-8.13 1.88-8.13 4.12 0 1.57 10.54 21.78 11.36 21.78.21 0 .38-5.83.38-12.95m35.22-5.88V5.88h-31.7V20.01h31.7v-7.06m70.45 0V5.88h-31.7V20.01h31.7v-7.06m70.45 0V5.88h-31.7V20.01h31.7v-7.06m70.45 0V5.88h-31.7V20.01h31.7v-7.06m70.45 0V5.88h-31.7V20.01h31.7v-7.06m70.45 0V5.88h-31.7V20.01h31.7v-7.06m70.45 0V5.88h-31.7V20.01h31.7v-7.06m46.97-6.43c0-.35-1.84-.64-4.11-.64h-4.11v13.5l4.11-6.1c2.27-3.37 4.11-6.41 4.11-6.76" />
    <path d="M555.38 109.74c-5.96-3.85-10.39-11.02-13.54-21.95-2.44-8.49-1.98-12.42 3.54-30.06 2.32-7.41 4.53-16.68 4.92-20.6 1.37-13.83 4.68-14.75 14.67-4.07 6.94 7.44 14.46 20.57 18 31.51 4.2 12.96.44 33.33-7.94 43.05-3.08 3.58-4.8 4.51-9.08 4.97-4.39.47-6.18-.01-10.57-2.85m15.09-6.74c4.11-4.7 8.39-17.29 8.39-24.68 0-9.2-5.83-23.56-13.9-34.22-5.77-7.62-6.89-7.76-7.89-.92-.44 3.12-2.66 11.49-4.92 18.61-2.35 7.39-4.1 15.37-4.1 18.59.03 10.52 10.55 26.72 17.36 26.72.81 0 3.09-1.85 5.06-4.1" />
    <path fill="#f1b053" d="M268.88 157.11v-10h14.09V167.12h-14.09v-10.01M219.86 165.09l-3.81-.48v-17.5h14.09v18.83l-3.23-.19c-1.77-.11-4.95-.4-7.05-.66M286.5 156.52v-9.41h14.09v17.33l-5.45.75c-9.11 1.25-8.64 1.71-8.64-8.67M204.89 162l-5.87-1.37-.35-6.75-.35-6.77h14.2v8.24c0 4.53-.39 8.19-.88 8.12-.48-.06-3.52-.72-6.75-1.47M339.33 152.88v-5.77h14.09v3.87c0 3.73-.24 3.93-7.04 5.76l-7.05 1.89v-5.75M356.95 150.05c0-2.81.31-2.94 7.04-2.94 3.88 0 7.05.4 7.05.91 0 .91-10.42 4.97-12.78 4.97-.73 0-1.31-1.31-1.31-2.94M163.21 127.69V111.8h14.09v31.78h-14.09v-15.89M180.82 127.69V111.8h14.09v31.78h-14.09v-15.89M233.66 127.69V111.8h14.09v31.78h-14.09v-15.89M251.27 127.69V111.8h14.09v31.78h-14.09v-15.89M304.11 127.69V111.8h15.26v31.78h-15.26v-15.89M322.9 127.69V111.8h12.91v31.78H322.9v-15.89M374.56 127.75V111.8h14.16l-.33 15.6-.33 15.59-6.75.35-6.75.36v-15.95M392.17 125.93V111.8h14.09V133.67l-6.48 3.19c-3.57 1.75-6.74 3.19-7.04 3.19-.31 0-.57-6.36-.57-14.12M117.12 126.9l-6.75-3.67V111.8h14.09v9.42c0 5.18-.13 9.4-.29 9.38-.17-.01-3.34-1.69-7.05-3.7M99.51 116.49c-3.06-1.93-5.58-3.78-5.58-4.1 0-.33 2.9-.59 6.46-.59h6.46v4.12c0 2.26-.4 4.11-.88 4.1-.48-.01-3.39-1.6-6.46-3.53M81.17 103.35l-6.02-4.9V76.5h14.09v15.88c0 8.74-.46 15.89-1.02 15.89s-3.73-2.21-7.05-4.92M127.98 92.38V76.5h14.09V108.27h-14.09V92.38M145.6 92.38V76.5h14.09V108.27H145.6V92.38M198.43 92.38V76.5h14.09V108.27h-14.09V92.38M216.05 92.38V76.5h14.09V108.27h-14.09V92.38M268.88 92.38V76.5h14.09V108.27h-14.09V92.38M286.5 92.38V76.5h14.09V108.27H286.5V92.38M339.33 92.38V76.5h14.09V108.27h-14.09V92.38M356.95 92.38V76.5h14.09V108.27h-14.09V92.38M409.78 92.38V76.5h14.09V108.27h-14.09V92.38M427.4 92.38V76.5h14.09V108.27H427.4V92.38M64.25 87.35c-8.92-9.04-8.86-10.85.33-10.85h7.04v8.82c0 4.85-.15 8.83-.32 8.83-.19 0-3.36-3.06-7.05-6.8M44.71 67.38l-4.78-5.59v-10.3l-.01-10.3h14.09v15.89c0 14.89-.14 15.89-2.25 15.89-1.25 0-4.42-2.52-7.05-5.59M92.76 57.08V41.19h14.09v31.78H92.76V57.08M110.37 57.08V41.19h14.09v31.78h-14.09V57.08M163.21 57.08V41.19h14.09v31.78h-14.09V57.08M180.82 57.08V41.19h14.09v31.78h-14.09V57.08M233.66 57.08V41.19h14.09v31.78h-14.09V57.08M251.27 57.08V41.19h14.09v31.78h-14.09V57.08M304.11 57.08V41.19h15.26v31.78h-15.26V57.08M322.9 57.08V41.19h12.91v31.78H322.9V57.08M374.56 57.08V41.19h14.09v31.78h-14.09V57.08M392.17 57.08V41.19h14.09v31.78h-14.09V57.08M445.01 57.08V41.19h14.09v31.78h-14.09V57.08M462.62 57.08V41.19h14.09v31.78h-14.09V57.08M30.2 49.85l-5.61-8.07 5.45-.37c2.99-.2 5.67-.13 5.96.16.28.29.35 4.08.16 8.44l-.35 7.93-5.61-8.09M57.53 21.77V5.88h14.09v31.78H57.53V21.77M75.15 21.77V5.88h14.09v31.78H75.15V21.77M127.98 21.77V5.88h14.09v31.78h-14.09V21.77M145.6 21.77V5.88h14.09v31.78H145.6V21.77M198.43 21.77V5.88h14.09v31.78h-14.09V21.77M216.05 21.77V5.88h14.09v31.78h-14.09V21.77M268.88 21.77V5.88h14.09v31.78h-14.09V21.77M286.5 21.77V5.88h14.09v31.78H286.5V21.77M339.33 21.77V5.88h14.09v31.78h-14.09V21.77M356.95 21.77V5.88h14.09v31.78h-14.09V21.77M409.78 21.77V5.88h14.09v31.78h-14.09V21.77M427.4 21.77V5.88h14.09v31.78H427.4V21.77M480.23 21.77V5.88h14.09v31.78h-14.09V21.77M497.85 21.77V5.88h14.09v9.65c0 8.8-.34 10.22-3.77 15.89-3.11 5.15-4.35 6.24-7.05 6.24h-3.27V21.77M12.54 21.73c-3.02-5.54-5.49-10.84-5.49-11.8 0-1.96 4.56-4.05 8.88-4.05 2.86 0 2.86.02 2.86 12.95 0 7.12-.17 12.95-.38 12.95s-2.85-4.52-5.87-10.05" />
    <path fill="#c57a36" d="M233.66 165.94c0-.73 6.07-1.18 15.85-1.18s15.85.45 15.85 1.18-6.07 1.18-15.85 1.18-15.85-.45-15.85-1.18M233.66 154.17v-7.06h31.7v14.12h-31.7v-7.06M304.11 154.17v-7.06h31.82l-.35 6.13c-.44 7.5-.94 7.71-18.85 7.87l-12.62.12v-7.06M182.58 156.09c-11.6-3.58-19.37-6.78-19.37-7.97 0-.55 7.13-1.01 15.85-1.01h15.85v5.88c0 6.9-.01 6.9-12.33 3.1M375.51 147.49c.85-.35 1.87-.31 2.26.09.38.39-.31.66-1.54.61-1.38-.06-1.66-.33-.72-.7M138.76 138.32c-15.57-7.59-14.84-8.86 5.08-8.86h15.85v14.12h-5.08c-3.61 0-8.17-1.51-15.85-5.26M198.43 136.52v-7.06h31.71v14.12h-31.71v-7.06M268.88 136.52v-7.06h31.71v14.12h-31.71v-7.06M339.33 136.52v-7.06h31.71v14.12h-31.71v-7.06M409.78 130.6c0-.63.8-1.14 1.77-1.14.96 0 1.76.21 1.76.45 0 .26-.8.78-1.76 1.15-.97.37-1.77.16-1.77-.46M127.98 118.86v-7.06h31.71V125.93h-31.71v-7.07M198.43 118.86v-7.06h31.71V125.93h-31.71v-7.07M268.88 118.86v-7.06h31.71V125.93h-31.71v-7.07M339.33 118.86v-7.06h31.71V125.93h-31.71v-7.07M409.78 118.86v-7.06h14.09c7.75 0 14.09.18 14.09.4 0 .23-4.15 3.4-9.22 7.06-7.67 5.54-10.06 6.67-14.09 6.67h-4.87v-7.07M558.32 121.34c-9.6-4.49-22.29-21.53-25.86-34.75-2.35-8.72-1.95-11.03 5.78-33.04 2.26-6.48 4.14-13.09 4.17-14.71.06-4.45-5.42-15.34-10.17-20.25-4.12-4.24-4.17-4.41-2.27-7.33 1.08-1.64 3.14-3.28 4.58-3.65 6.13-1.54 24.6 8.07 34.84 18.12 22.25 21.8 29.31 52.5 17.72 76.99-4.42 9.33-9.61 15.59-15.36 18.53-5.58 2.85-7.46 2.86-13.43.09m16.71-13.72c8.38-9.72 12.14-30.09 7.94-43.05-3.54-10.94-11.06-24.07-18-31.51-9.99-10.68-13.3-9.76-14.67 4.07-.39 3.92-2.6 13.19-4.92 20.6-5.52 17.64-5.98 21.57-3.54 30.06 4.86 16.87 13.66 25.92 24.11 24.8 4.28-.46 6-1.39 9.08-4.97M92.76 101.21v-7.06h31.7v14.12h-31.7v-7.06M163.21 101.21v-7.06h31.7v14.12h-31.7v-7.06M233.66 101.21v-7.06h31.7v14.12h-31.7v-7.06M304.11 101.21v-7.06h31.7v14.12h-31.7v-7.06M374.56 101.21v-7.06h31.7v14.12h-31.7v-7.06M445.01 100.13v-5.98h6.46c3.54 0 6.46.2 6.46.45 0 .24-2.92 2.93-6.46 5.98l-6.46 5.51v-5.96M92.76 83.56V76.5h31.7v14.12h-31.7v-7.06M163.21 83.56V76.5h31.7v14.12h-31.7v-7.06M233.66 83.56V76.5h31.7v14.12h-31.7v-7.06M304.11 83.56V76.5h31.7v14.12h-31.7v-7.06M374.56 83.56V76.5h31.7v14.12h-31.7v-7.06M445.01 83.56V76.5h29.72l-2.2 2.64c-9.31 11.22-9.74 11.48-18.95 11.48h-8.57v-7.06M57.53 65.9v-7.06h31.71V72.97H57.53V65.9M127.98 65.9v-7.06h31.71V72.97h-31.71V65.9M198.43 65.9v-7.06h31.71V72.97h-31.71V65.9M268.88 65.9v-7.06h31.71V72.97h-31.71V65.9M339.33 65.9v-7.06h31.71V72.97h-31.71V65.9M409.78 65.9v-7.06h31.71V72.97h-31.71V65.9M480.23 64.9v-6.06h4.18c4.58 0 4.61-.11-.89 7.54l-3.29 4.59V64.9M57.53 48.25v-7.06h31.71v14.12H57.53v-7.06M127.98 48.25v-7.06h31.71v14.12h-31.71v-7.06M198.43 48.25v-7.06h31.71v14.12h-31.71v-7.06M268.88 48.25v-7.06h31.71v14.12h-31.71v-7.06M339.33 48.25v-7.06h31.71v14.12h-31.71v-7.06M409.78 48.25v-7.06h31.71v14.12h-31.71v-7.06M480.23 48.25v-7.06h10.64c11.84 0 11.54-.52 4.79 8.53-3.95 5.31-4.45 5.59-9.8 5.59h-5.63v-7.06M22.31 30.6v-7.06h31.7v14.12h-31.7V30.6M92.76 30.6v-7.06h31.7v14.12h-31.7V30.6M163.21 30.6v-7.06h31.7v14.12h-31.7V30.6M233.66 30.6v-7.06h31.7v14.12h-31.7V30.6M304.11 30.6v-7.06h31.7v14.12h-31.7V30.6M374.56 30.6v-7.06h31.7v14.12h-31.7V30.6M445.01 30.6v-7.06h31.7v14.12h-31.7V30.6M22.54 13.24l.36-6.77 15.55-.33 15.56-.33v14.2H22.19l.35-6.77M92.76 12.95V5.88h31.7V20.01h-31.7v-7.06M163.21 12.95V5.88h31.7V20.01h-31.7v-7.06M233.66 12.95V5.88h31.7V20.01h-31.7v-7.06M304.11 12.95V5.88h31.7V20.01h-31.7v-7.06M374.56 12.95V5.88h31.7V20.01h-31.7v-7.06M445.01 12.95V5.88h31.7V20.01h-31.7v-7.06M515.46 12.64V5.88h4.11c2.27 0 4.11.29 4.11.64 0 .35-1.84 3.39-4.11 6.76l-4.11 6.1v-6.74" />
</svg>