<svg width="800" height="224" xmlns="http://www.w3.org/2000/svg">
    <path d="M196.2 220.83c-10.03-3.93-16.22-9.88-20.75-19.99l-3.65-8.17-15.44-.55c-14.79-.52-15.54-.39-18.56 3.34-10.21 12.59-14.19 16-22.24 19.01-10.84 4.06-17.13 4.06-27.97 0-15.9-5.96-26.14-22.93-23.92-39.67 1.02-7.73.93-7.97-6.06-14.97-6.67-6.69-7.47-7.05-13.33-6.06-10.59 1.8-24.86-3.23-33.3-11.72C2.74 133.75 0 126.26 0 112c0-14.29 2.72-21.75 11.02-30.1 8.93-8.97 24.05-13.97 34.37-11.34 6.09 1.55 6.25 1.47 12.61-5.93 6.16-7.16 6.41-7.89 5.53-15.35-2-16.91 8.23-33.82 24.06-39.75 10.79-4.04 17.13-4.06 27.78-.07 8.98 3.36 16.47 10.1 20.79 18.7 2.12 4.21 3.35 5.09 6.09 4.35 1.88-.5 9.28-.93 16.43-.94l13.02-.02 3.65-8.28c2.02-4.56 6.24-10.57 9.41-13.35C190.61 4.76 203.35 0 211.24 0c8.07 0 21.33 6.15 27.14 12.59 5.02 5.58 10.44 18.63 10.44 25.19 0 1.88 3.31 3.22 12.99 5.25 12.91 2.72 13.01 2.72 15.36-.56 7.63-10.68 13.41-15.73 21.44-18.74 10.84-4.06 17.14-4.06 27.97 0 15.39 5.77 26.18 23.06 24.07 38.56l-.93 6.72 12.15 5.08c6.68 2.78 20.05 9.15 29.72 14.15l17.56 9.09 13.94-4.58c45.76-15.01 85.81-24.73 118.6-28.8 24.44-3.03 60.64-3.08 80.36-.13 86.49 12.99 116.88 18.54 143.07 26.17 19.26 5.62 27.08 9.36 31.59 15.08 4.12 5.26 4.16 8.55.11 13.71-9.13 11.63-47.32 21.65-136.98 35.91-65.34 10.39-99.04 10.34-151.53-.24-23.82-4.81-54.31-13.06-82.77-22.42l-16.2-5.31-20.8 10.49c-11.45 5.77-24.54 12-29.09 13.85-8.21 3.33-8.27 3.41-8.27 10.25 0 10.63-4.28 22.75-10.44 29.59-6.09 6.74-19.15 12.59-28.14 12.59-13.26 0-31.29-11.48-34.65-22.07-.88-2.77-1.93-3.29-5.27-2.58-2.3.49-8.6 1.73-14.02 2.79-7.32 1.42-9.84 2.57-9.84 4.5 0 6.64-5.39 19.67-10.44 25.28-6.25 6.91-19.31 12.64-28.6 12.51-3.21-.03-9.32-1.43-13.58-3.09m23.49-9.29c3.46-1.6 8.2-4.96 10.55-7.45 4.14-4.45 9.95-16.07 8.66-17.37-.35-.36-10.14.49-21.73 1.87-11.61 1.38-24.11 2.87-27.78 3.28l-6.7.77 2.22 4.24c4.55 8.73 17.18 17.48 25.33 17.56 1.73.02 5.98-1.29 9.45-2.9m-108.67-6.31c6.82-3.17 17.64-13.5 15.5-14.8-.72-.42-5.58-1.65-10.77-2.73-11.06-2.25-35.04-10.68-36.32-12.74-1.68-2.75-5.37-1.41-6.28 2.28-2.11 8.38 7.62 22.74 18.98 27.99 7.89 3.67 11 3.67 18.89 0m209.89-13.65c7.77-3.25 14.26-9.54 17.83-17.27 3.23-6.97 3.61-10 1.62-13.14-1.05-1.67-6.09-.6-24.79 5.25-33.16 10.41-30.34 8.57-24.07 15.71 5.29 6.03 15.37 11.8 20.75 11.87 1.55.01 5.45-1.08 8.66-2.42m-121.57-8.66c20.74-1.98 69.23-10.44 81.76-14.26 2.6-.79 12.51-3.67 22.02-6.42 36.69-10.55 94.31-35.44 107.12-46.25l4.72-3.99-4.72-3.99c-12.81-10.81-70.43-35.7-107.12-46.25-9.51-2.75-19.42-5.63-22.02-6.42-5.34-1.63-21.78-4.94-47.24-9.51-47.37-8.51-90.6-8.48-124.25.09-14.96 3.8-24.6 8.52-37.42 18.28-8.03 6.12-10.54 9.28-15.31 19.28-5.43 11.39-5.7 12.75-5.7 28.52s.27 17.13 5.7 28.52c4.77 10 7.28 13.16 15.31 19.28 12.83 9.78 22.46 14.46 37.62 18.34 24.47 6.27 56.24 7.95 89.53 4.78m454.99-35.27c46.55-7.35 44.16-6.77 46.21-11.26 2-4.42 1.33-6.72-4.78-16.42-2.44-3.85-4.42-8.25-4.42-9.75 0-1.52 2.88-6.09 6.39-10.16 3.7-4.28 6.02-8.36 5.51-9.69-.48-1.26-.88-3.17-.88-4.24 0-1.31-7.71-3.12-23.23-5.49-12.77-1.92-32.07-5.08-42.91-6.99-16.35-2.87-25.56-3.45-54.33-3.41-37.7.05-53.81 2.09-94.09 11.95-17.83 4.37-65.03 18.17-67.71 19.79-.64.4.38 2.81 2.27 5.37l3.44 4.65-3.44 4.65c-1.89 2.56-2.91 4.97-2.27 5.37 2.29 1.39 48.68 15.08 64.16 18.93 43.88 10.91 65.42 13.61 103.15 12.96 25.83-.45 36.46-1.45 66.93-6.26m-609.81-4.5c2.39-1.82 2.36-2.79-.49-12.98-1.7-6.06-3.07-13.86-3.07-17.35.03-5.88 3.17-21.83 5.51-27.91.68-1.78-.12-3.24-2.44-4.49-9.7-5.21-30.31 9.2-34.47 24.09-1.75 6.23-1.75 8.75 0 14.98 4.33 15.53 26.19 30.32 34.96 23.66m686.36-9.05c34.74-7.37 57.06-15.02 60.6-20.74 2.06-3.36-6.85-8.98-21.91-13.81-11.95-3.83-57.6-14.37-62.28-14.37-.68 0-.94 2.02-.58 4.48.52 3.49-.76 6.11-5.84 11.99-7.34 8.5-7.33 10.18.34 20.92 3.7 5.2 4.52 7.67 3.77 11.44-1.2 6.01-1.96 6.01 25.9.09M341.06 60.87c2.33-9.33-10.4-25.74-22.87-29.48-8.47-2.55-18.27 1.2-26.22 10-5.39 5.97-5.62 6.61-2.87 7.68 6.25 2.39 47.2 15.29 49.06 15.45 1.07.08 2.36-1.56 2.9-3.65M90.11 44.25c6.68-2.65 16.96-5.92 22.83-7.24 16.29-3.69 15.89-3.24 9.08-10.24-8.43-8.63-17.75-12.07-26.04-9.58-8.34 2.5-17.07 10.42-20.78 18.84-3.17 7.16-2.66 15.44.85 13.9 1.05-.46 7.37-3.02 14.06-5.68m148.38-9.94c-3.32-10.79-12.02-19.99-22.02-23.28-10.39-3.44-25.43 4.18-31.51 15.93l-2.27 4.4 6.7.79c3.67.44 14.83 1.8 24.78 3.03 26.54 3.26 25.61 3.31 24.32-.87" />
    <path d="M133.95 162.49c-6.44-.72-17.78-3.29-25.19-5.71-11-3.56-15-5.8-21.7-12.14-13.5-12.76-17.55-28.46-12.1-46.95 1.95-6.61 4.55-10.57 11.42-17.37 7.6-7.52 10.79-9.41 21.86-13.03 16.77-5.45 38.78-7.74 63.41-6.59 25.2 1.17 37.25 2.78 78.74 10.48 47.17 8.73 116.65 29.53 126.37 37.81l3.55 3.01-3.55 3.01c-9.74 8.3-79.23 29.08-126.37 37.81-18.61 3.44-39.18 6.99-45.67 7.89-16.83 2.32-56.97 3.33-70.77 1.78m68.41-10.42c40.65-4.89 84-14.86 137.4-31.6 12.35-3.88 22.44-7.68 22.44-8.47 0-1.64-33.79-12.48-68.5-21.96C227.67 72 159.45 64.55 124.19 71.54c-13.13 2.6-28.49 9.6-33.95 15.47-11.23 12.07-11.23 37.91 0 49.98 4.55 4.89 19.41 12.36 28.94 14.54 20.96 4.8 46.39 4.95 83.18.54" />
    <path fill="#d47231" d="M201.57 212.03c-6.53-2.84-13.59-9.25-16.66-15.15l-2.22-4.24 6.7-.77c3.67-.41 16.17-1.9 27.78-3.28 11.59-1.38 21.38-2.23 21.73-1.87 1.29 1.3-4.52 12.92-8.66 17.37-4.7 5-15.11 10.4-20 10.35-1.74-.02-5.63-1.1-8.67-2.41M92.13 205.23c-11.36-5.25-21.09-19.61-18.98-27.99.91-3.69 4.6-5.03 6.28-2.28 1.28 2.06 25.26 10.49 36.32 12.74 5.19 1.08 10.05 2.31 10.77 2.73 2.14 1.3-8.68 11.63-15.5 14.8-7.89 3.67-11 3.67-18.89 0M303.13 191.09c-3.46-1.59-8.7-5.61-11.63-8.96-6.27-7.14-9.09-5.3 24.07-15.71 24.12-7.55 26.13-7.62 26.1-.79-.02 4.26-5.75 14.91-10.36 19.25-4.87 4.56-14.49 9.16-19.06 9.12-1.54-.02-5.64-1.33-9.12-2.91M31.5 143.06c-3.04-.96-8.74-4.98-12.68-8.91-14-13.99-14-30.29 0-44.31 8.41-8.41 19.42-12.53 25.21-9.42 2.32 1.25 3.12 2.71 2.44 4.49-2.34 6.08-5.48 22.03-5.51 27.91 0 3.49 1.37 11.29 3.07 17.35 2.85 10.19 2.88 11.16.49 12.98-3.04 2.31-5.51 2.29-13.02-.09M314.17 57.29c-12.12-3.89-23.4-7.58-25.07-8.22-2.75-1.07-2.52-1.71 2.87-7.68 7.95-8.8 17.75-12.55 26.22-10 8.35 2.49 17.07 10.41 20.79 18.84 3.13 7.1 2.71 14.57-.82 14.29-1.07-.1-11.86-3.35-23.99-7.23M73.17 46.82c-2.38-9.48 10.23-25.86 22.81-29.63 8.29-2.49 17.61.95 26.04 9.58 6.81 7 7.21 6.55-9.08 10.24-8.63 1.94-25.07 7.7-36.89 12.92-1.11.49-2.32-.84-2.88-3.11M214.17 35.18c-9.95-1.23-21.11-2.59-24.78-3.03l-6.7-.79 2.27-4.4c6.03-11.66 21.35-19.29 31.81-15.84 9.72 3.22 18.43 12.53 21.72 23.19 1.29 4.18 2.22 4.13-24.32.87" />
    <path fill="#d74000" d="M133.28 182.78c-15.34-1.99-34.82-7.21-43.8-11.77-4.24-2.14-12.02-7.19-17.29-11.21-8.03-6.12-10.54-9.28-15.31-19.28-5.43-11.39-5.7-12.75-5.7-28.52s.27-17.13 5.7-28.52c4.77-10 7.28-13.16 15.31-19.28 12.8-9.75 22.46-14.46 37.45-18.3 33.13-8.47 77.26-8.5 124.22-.07 25.46 4.57 41.9 7.88 47.24 9.51 2.6.79 12.51 3.67 22.02 6.42 36.69 10.55 94.31 35.44 107.12 46.25l4.72 3.99-4.72 3.99c-12.81 10.81-70.43 35.7-107.12 46.25-9.51 2.75-19.42 5.63-22.02 6.42-12.53 3.82-61.02 12.28-81.76 14.26-20.02 1.91-50.58 1.85-66.06-.14m71.44-22.07c6.49-.9 27.06-4.45 45.67-7.89 47.14-8.73 116.63-29.51 126.37-37.81l3.55-3.01-3.55-3.01c-9.72-8.28-79.2-29.08-126.37-37.81-41.49-7.7-53.54-9.31-78.74-10.48-24.63-1.15-46.64 1.14-63.41 6.59-11.07 3.62-14.26 5.51-21.86 13.03-6.87 6.8-9.47 10.76-11.42 17.37-5.45 18.49-1.4 34.19 12.1 46.95 6.7 6.34 10.7 8.58 21.7 12.14 7.41 2.42 18.75 4.99 25.19 5.71 13.8 1.55 53.94.54 70.77-1.78" />
    <path fill="#ff7231" d="M140.16 154.56c-18.14-1.75-26.92-3.93-37.51-9.31-15.2-7.71-20.76-16.62-20.76-33.25 0-16.74 5.54-25.52 21.04-33.39 25.72-13.07 74.98-12.92 143.53.39 36.42 7.08 115.74 29.69 115.74 33 0 1.64-33.79 12.48-68.5 21.96-56.46 15.43-119.59 23.9-153.54 20.6" />
    <path fill="#ff981d" d="M541.39 152.26c-30.26-4.31-58.38-10.82-96.51-22.37-12.99-3.95-24.14-7.49-24.79-7.87-.64-.4.38-2.81 2.27-5.37l3.44-4.65-3.44-4.65c-1.89-2.56-2.91-4.97-2.27-5.37 2.68-1.62 49.88-15.42 67.71-19.79 39.9-9.77 56.37-11.85 94.09-11.93 28.85-.05 37.94.52 54.33 3.39 10.84 1.91 30.14 5.07 42.91 6.99 15.52 2.37 23.23 4.18 23.23 5.49 0 1.07.4 2.98.88 4.24.51 1.33-1.81 5.41-5.51 9.69-3.51 4.07-6.39 8.64-6.39 10.16 0 1.5 1.98 5.9 4.42 9.75 6.11 9.7 6.78 12 4.78 16.42-2.05 4.49.34 3.91-46.21 11.26-30.47 4.81-41.1 5.81-66.93 6.26-20.46.35-35.81-.19-46.01-1.65" />
    <path fill="#f1efd4" d="M704.98 134.01c.75-3.77-.07-6.24-3.77-11.44-7.64-10.71-7.68-12.43-.49-20.76 4.34-5 6.37-8.83 6.37-11.99 0-2.55.33-4.64.72-4.64.39 0 11.15 2.18 23.91 4.83 39.6 8.25 63.35 17.53 59.76 23.35-3.54 5.72-25.86 13.37-60.6 20.74-27.86 5.92-27.1 5.92-25.9-.09" />
</svg>