<svg width="600" height="660" xmlns="http://www.w3.org/2000/svg">
   <path fill="#FFF" d="M300.273 657.768S1.773 545.449 1.773 259.997V1.445h597.001v258.552c-.001 285.45-298.501 397.771-298.501 397.771z" />
   <path fill="#ED1C24" d="M2.468 2.532v83.094l7.969 8 24.625 24.719 24.625 24.719 24.594 24.719 24.625 24.688 24.625 24.719 24.625 24.719 24.625 24.719 24.594 24.719L232 316.065l24.625 24.719 24.625 24.719 24.626 24.719 24.625 24.72 24.595 24.719 24.625 24.688 24.624 24.72 24.625 24.719 24.625 24.719s6.779 6.785 13.438 13.469c25.201-23.494 49.77-51.153 70.75-83.312a70741.074 70741.074 0 01-15.812-15.875l-24.625-24.719-24.625-24.688-24.625-24.719-24.596-24.725-24.625-24.719L374.25 304.5l-24.625-24.719L325 255.063l-24.594-24.719-24.625-24.719-24.625-24.719-24.625-24.719-24.626-24.687-24.625-24.719-24.594-24.719-24.625-24.719-24.625-24.719L78.812 7.907s-3.525-3.549-5.344-5.375h-71zm100.969 30.093l14.406-14.344a7.548 7.548 0 001.656 8.156c2.552 2.562 6.839 2.777 9.75.906l3.875 3.844c-1.883 2.904-1.614 7.313.938 9.875 2.449 2.458 6.193 2.874 9.062 1.25l-.656.656a7.6 7.6 0 001.656 8.188c2.552 2.562 6.839 2.777 9.75.906l3.875 3.844c-1.883 2.904-1.614 7.312.938 9.875 2.449 2.458 6.193 2.874 9.062 1.25l-.656.656c-1.1 2.71-.576 5.946 1.625 8.156 2.552 2.562 6.87 2.777 9.781.906l3.875 3.875c-1.883 2.904-1.614 7.312.938 9.875 2.449 2.459 6.193 2.873 9.062 1.25l-.656.656c-1.1 2.711-.576 5.945 1.625 8.156 2.552 2.562 6.87 2.777 9.781.906l3.875 3.844c-1.883 2.904-1.614 7.344.938 9.906 2.449 2.459 6.193 2.873 9.062 1.25 0 0-.631.6-.688.656a7.548 7.548 0 001.656 8.156c2.552 2.562 6.87 2.777 9.781.906l3.875 3.844c-1.883 2.904-1.614 7.344.938 9.906 2.449 2.459 6.193 2.873 9.062 1.25l-.688.656-14.406 14.344s13.151-13.062 14.406-14.312a7.54 7.54 0 001.656 8.125c2.552 2.562 6.839 2.777 9.75.906l3.906 3.844c-1.883 2.904-1.646 7.344.906 9.906 2.449 2.459 6.193 2.873 9.062 1.25l-.656.656a7.548 7.548 0 001.656 8.156c2.552 2.562 6.839 2.777 9.75.906l3.875 3.844c-1.883 2.904-1.614 7.312.938 9.875 2.45 2.459 6.194 2.904 9.063 1.281l-.656.656a7.548 7.548 0 001.656 8.156c2.551 2.562 6.838 2.777 9.75.906l3.875 3.844c-1.883 2.904-1.614 7.312.938 9.875 2.449 2.459 6.193 2.904 9.062 1.281l-.655.656c-1.101 2.711-.576 5.945 1.625 8.156 2.551 2.562 6.869 2.777 9.78.906l3.875 3.844c-1.883 2.904-1.614 7.312.938 9.875 2.449 2.459 6.193 2.904 9.062 1.281l-.655.656c-1.101 2.711-.576 5.945 1.625 8.156 2.551 2.562 6.869 2.777 9.78.906l3.875 3.844c-1.883 2.904-1.614 7.312.938 9.875 2.449 2.459 6.193 2.873 9.062 1.25l-.688.688a7.548 7.548 0 001.656 8.156c2.551 2.562 6.869 2.777 9.781.906l3.875 3.844c-1.883 2.904-1.615 7.312.938 9.875a7.524 7.524 0 009.031 1.25L374.25 304.5l14.406-14.344a7.548 7.548 0 001.656 8.156c2.551 2.562 6.838 2.777 9.75.906l3.875 3.844c-1.884 2.904-1.615 7.313.938 9.875a7.57 7.57 0 009.062 1.25l-.656.655a7.542 7.542 0 001.656 8.156c2.551 2.562 6.838 2.777 9.75.906l3.875 3.875c-1.884 2.903-1.615 7.313.938 9.875a7.567 7.567 0 009.062 1.25l-.656.655c-1.101 2.712-.578 5.947 1.625 8.156 2.551 2.562 6.869 2.777 9.781.906l3.875 3.875c-1.884 2.904-1.615 7.314.938 9.875a7.567 7.567 0 009.062 1.25l-.656.656c-1.101 2.711-.578 5.946 1.625 8.156 2.551 2.562 6.869 2.776 9.781.905l3.875 3.845c-1.884 2.903-1.615 7.346.938 9.905a7.567 7.567 0 009.062 1.25l-.656.656c-1.101 2.711-.578 5.947 1.625 8.156 2.551 2.562 6.869 2.776 9.781.905l3.875 3.845c-1.884 2.903-1.615 7.346.938 9.905 2.449 2.46 6.193 2.875 9.062 1.25 0 0-.632.601-.688.656l-14.406 14.344s13.15-13.062 14.406-14.312a7.538 7.538 0 001.656 8.125c2.551 2.562 6.869 2.777 9.78.906l3.875 3.844c-1.883 2.904-1.614 7.346.938 9.906a7.521 7.521 0 009.031 1.25l-.656.655a7.543 7.543 0 001.656 8.156c2.551 2.562 6.838 2.777 9.75.906 0 0 .918.926 1.844 1.844.023-.039.039-.084.062-.125l-4.03-4 1-1.031 3.78 3.75c.013-.02.021-.04.031-.062-.276-.27-.608-.574-.719-.688 2.082-2.006 3.721-4.284 4.562-6.719.92-2.574 2.041-4.512 3.375-5.906 25.264-48.778 41.78-106.352 41.78-173.5V2.523h-475.59c.297.228.566.493.844.781 1.617 1.68 1.665 4.704.281 5.875-2.291 1.958-5.307 1.944-9.344-.094.176-.156 2.131-.604 2.562-1.406.477-.885.604-2.43-2.156-2.969-2.76-.539-3.878.979-5.188 1.812-.258-.274-1.375-1.346-1.594-1.562.577-.596 2.023-1.584 3.844-2.438h-2.281a20.346 20.346 0 00-2.062 1.844c-.32-.283-1.402-1.342-1.906-1.844h-.125l5.062 5.031-1 1.031s-3.709-3.693-6.094-6.062h-8.844c2.576 1.757 6.191 1.739 8.75.094l3.906 3.844c-1.883 2.904-1.646 7.313.906 9.875 2.449 2.458 6.193 2.874 9.062 1.25l-15.06 15.04zm202.438 357.594s-13.153 13.062-14.407 14.312a7.541 7.541 0 00-1.656-8.125c-2.553-2.562-6.871-2.777-9.782-.906l-3.875-3.844c1.883-2.904 1.614-7.312-.938-9.875-2.449-2.459-6.193-2.904-9.062-1.281 0 0 .63-.598.688-.656l14.406-14.344s-13.151 13.062-14.406 14.312a7.54 7.54 0 00-1.656-8.125c-2.552-2.562-6.839-2.777-9.75-.906l-3.906-3.844c1.883-2.904 1.646-7.312-.906-9.875-2.449-2.46-6.193-2.904-9.062-1.281l.656-.656a7.549 7.549 0 00-1.656-8.156c-2.552-2.561-6.839-2.776-9.75-.906l-3.875-3.844c1.883-2.903 1.614-7.312-.938-9.875-2.449-2.459-6.193-2.873-9.062-1.25L232 316.062l-14.406 14.345a7.549 7.549 0 00-1.656-8.156c-2.552-2.561-6.839-2.777-9.75-.906l-3.875-3.844c1.883-2.904 1.614-7.313-.938-9.875-2.449-2.459-6.193-2.873-9.062-1.25l15.062-15.031-14.406 14.344c1.1-2.711.576-5.945-1.625-8.156-2.552-2.562-6.87-2.777-9.781-.906l-3.875-3.844c1.883-2.904 1.614-7.312-.938-9.875-2.449-2.459-6.193-2.873-9.062-1.25l.656-.656c1.1-2.711.576-5.945-1.625-8.156-2.552-2.562-6.87-2.777-9.781-.906l-3.875-3.875c1.883-2.904 1.614-7.312-.938-9.875-2.449-2.459-6.193-2.873-9.062-1.25 0 0 .631-.6.688-.656a7.548 7.548 0 00-1.656-8.156c-2.552-2.562-6.87-2.777-9.781-.906l-3.875-3.875c1.883-2.904 1.614-7.312-.938-9.875a7.524 7.524 0 00-9.031-1.25l.656-.656a7.548 7.548 0 00-1.656-8.156c-2.552-2.562-6.839-2.777-9.75-.906l-3.875-3.844c1.883-2.904 1.614-7.344-.938-9.906-2.449-2.459-6.193-2.873-9.062-1.25l.656-.656a7.548 7.548 0 00-1.656-8.156c-2.552-2.562-6.839-2.777-9.75-.906l-3.875-3.844c1.883-2.904 1.614-7.344-.938-9.906-2.449-2.459-6.193-2.873-9.062-1.25l.656-.656c1.1-2.711.576-5.945-1.625-8.156-2.552-2.562-6.87-2.777-9.781-.906l-3.875-3.844c1.883-2.904 1.614-7.344-.938-9.906-2.449-2.459-6.193-2.873-9.062-1.25l.656-.656c1.1-2.711.576-5.945-1.625-8.156-2.552-2.562-6.87-2.777-9.781-.906l-3.875-3.844c1.883-2.904 1.614-7.312-.938-9.875-2.449-2.459-6.193-2.904-9.062-1.281l.656-.656c1.1-2.711.576-5.945-1.625-8.156-2.552-2.562-6.87-2.777-9.781-.906l-3.875-3.844c1.883-2.904 1.614-7.312-.938-9.875a7.48 7.48 0 00-1.938-1.406v9.781c.293-.292.594-.625.594-.625l8.312 8.25-1.031 1.031-7.875-7.844v1.031c.179-.134.35-.291.531-.406.258.273 1.344 1.314 1.562 1.531-.372.384-1.14.955-2.094 1.531v1.344a20.72 20.72 0 002.625-2.25c.362.32 1.823 1.718 2.156 2.062-2.083 2.006-3.721 4.285-4.562 6.719-.069.193-.147.376-.219.562v129.844c0 285.451 298.501 397.781 298.501 397.781s63.295-23.834 131.594-77.406c.248-4.278 2.359-8.18 8.688-10.062 2.469-.865 5.004-2.58 7-4.625.178.158.613.598 1.062 1.031.021-.019.039-.043.062-.062l-4.188-4.156 1.031-1s2.127 2.109 4.25 4.22c.033-.027.062-.064.094-.095-1.024-1.016-2.062-2.03-2.062-2.03 1.883-2.904 1.613-7.312-.938-9.875-2.448-2.459-6.192-2.873-9.062-1.25l.656-.656c1.1-2.709.575-5.978-1.625-8.188-2.554-2.561-6.871-2.776-9.781-.905l-3.875-3.845c1.883-2.903 1.613-7.312-.938-9.875-2.448-2.459-6.192-2.873-9.062-1.25l.688-.655a7.548 7.548 0 00-1.655-8.156c-2.554-2.562-6.841-2.777-9.75-.906l-3.906-3.875c1.883-2.903 1.645-7.312-.906-9.875-2.448-2.459-6.192-2.873-9.062-1.25l.656-.656a7.547 7.547 0 00-1.656-8.155c-2.553-2.562-6.84-2.777-9.75-.906l-3.875-3.844c1.883-2.904 1.613-7.345-.938-9.906-2.448-2.459-6.192-2.873-9.062-1.25l.656-.656a7.549 7.549 0 00-1.656-8.156c-2.553-2.561-6.84-2.776-9.75-.905l-3.875-3.845c1.883-2.903 1.613-7.344-.938-9.905-2.448-2.459-6.192-2.873-9.062-1.25l.656-.656c1.1-2.709.575-5.945-1.625-8.156-2.554-2.561-6.871-2.776-9.781-.906l-3.875-3.844c1.883-2.903 1.613-7.344-.938-9.906-2.448-2.459-6.192-2.872-9.062-1.25l.656-.655c1.1-2.709.575-5.945-1.625-8.156-2.554-2.562-6.871-2.777-9.781-.906l-3.875-3.844c1.883-2.904 1.613-7.312-.938-9.875-2.449-2.459-6.193-2.904-9.062-1.281 0 0 .629-.598.688-.656l14.403-14.359zM129.187 9.844c1.115.043 2.312.444 3.156 1.25 5.277 5.026.045 13.683-1.688 15.344-.217-.218-1.287-1.337-1.562-1.594.839-1.303 2.352-2.378 1.812-5.125-.539-2.746-2.111-2.63-3-2.156-.834.444-1.262 2.513-1.406 2.562-2.044-4.02-2.031-7.034-.062-9.312.588-.688 1.634-1.012 2.75-.969zm17.406 1.531a21.58 21.58 0 012.344.062l.031.031.031.031c.572 5.328-.861 10.668-8.594 12.969-2.471.866-5.005 2.581-7 4.625a83.318 83.318 0 01-2.188-2.094c2.083-2.006 3.721-4.285 4.562-6.719 2.261-6.318 5.636-8.725 10.814-8.905zm-18.469 12.657l8.312 8.25-1.031 1-8.281-8.25 1-1zm15.75 1.687c1.967.023 3.893.67 5.469 2.312 1.617 1.68 1.665 4.704.281 5.875-2.291 1.958-5.307 1.944-9.344-.094.176-.156 2.131-.604 2.562-1.406.477-.885.572-2.43-2.188-2.969-2.76-.539-3.847.979-5.156 1.812-.258-.274-1.375-1.346-1.594-1.562 1.15-1.184 5.642-4.019 9.97-3.968zm9.938 8.844c1.115.043 2.281.444 3.125 1.25 5.277 5.026.076 13.683-1.656 15.344-.217-.218-1.318-1.337-1.594-1.594.839-1.303 2.352-2.378 1.812-5.125-.539-2.746-2.08-2.63-2.969-2.156-.889.474-1.321 2.816-1.438 2.562-2.044-4.02-2-7.034-.031-9.312.589-.688 1.635-1.012 2.751-.969zm18.531 1.5c.384.003.779.032 1.188.062l.062.062.031.031c.572 5.328-.861 10.668-8.594 12.969-2.471.866-5.005 2.581-7 4.625a83.318 83.318 0 01-2.188-2.094c2.083-2.006 3.721-4.285 4.562-6.719 2.26-6.32 5.635-8.727 10.812-8.906.371-.011.743-.033 1.127-.03zM152.749 48.75l8.312 8.25-1.031 1-8.312-8.25 1.031-1zm15.75 1.688c1.967.023 3.893.639 5.469 2.281 1.617 1.68 1.665 4.735.281 5.906-2.291 1.958-5.307 1.944-9.344-.094-.255-.116 2.086-.521 2.562-1.406.476-.885.572-2.43-2.188-2.969-2.76-.539-3.878.947-5.188 1.781-.258-.274-1.344-1.315-1.562-1.531 1.15-1.184 5.642-4.019 9.97-3.968zm9.938 8.844c1.115.043 2.281.444 3.125 1.25 5.277 5.026.076 13.683-1.656 15.344-.217-.218-1.318-1.337-1.594-1.594.839-1.303 2.352-2.379 1.812-5.125-.54-2.746-2.08-2.63-2.969-2.156-.889.474-1.321 2.816-1.438 2.562-2.044-4.02-2-7.034-.031-9.312.589-.689 1.635-1.013 2.751-.969zm17.468 1.5c.348-.011.698-.009 1.062 0 .389.009.779.032 1.188.062l.062.062.031.031c.572 5.328-.893 10.668-8.625 12.969-2.471.866-4.974 2.581-6.969 4.625a83.318 83.318 0 01-2.188-2.094c2.083-2.006 3.721-4.285 4.562-6.719 2.272-6.346 5.66-8.775 10.877-8.936zm-18.531 12.687l8.312 8.25-1.031 1-8.312-8.25 1.031-1zm15.719 1.688c1.967.023 3.924.639 5.5 2.281 1.617 1.68 1.634 4.735.25 5.906-2.291 1.958-5.307 1.944-9.344-.094-.255-.116 2.117-.521 2.594-1.406.477-.885.572-2.43-2.188-2.969-2.759-.539-3.878.947-5.188 1.781-.258-.274-1.344-1.315-1.562-1.531 1.149-1.184 5.61-4.02 9.938-3.968zM203.062 84c1.115.043 2.281.444 3.125 1.25 5.277 5.025.045 13.652-1.688 15.312-.217-.218-1.287-1.306-1.562-1.562.839-1.303 2.352-2.379 1.812-5.125s-2.111-2.63-3-2.156c-.889.474-1.29 2.816-1.406 2.562-2.044-4.021-2-7.034-.031-9.312.588-.688 1.634-1.012 2.75-.969zm17.468 1.5c.348-.011.698-.009 1.062 0 .389.009.779.032 1.188.062l.031.062.062.031c.572 5.328-.893 10.668-8.625 12.969-2.471.865-5.005 2.581-7 4.625-.362-.32-1.823-1.749-2.156-2.094 2.083-2.006 3.721-4.285 4.562-6.719 2.271-6.346 5.659-8.774 10.876-8.936zm-18.531 12.688l8.312 8.25-1.031 1-8.312-8.25 1.031-1zm15.719 1.687c1.967.023 3.924.639 5.5 2.281 1.617 1.68 1.634 4.735.25 5.906-2.291 1.958-5.307 1.943-9.344-.094-.255-.115 2.086-.521 2.562-1.406.476-.885.604-2.43-2.156-2.969-2.759-.539-3.878.947-5.188 1.781-.258-.273-1.344-1.314-1.562-1.531 1.149-1.183 5.61-4.018 9.938-3.968zm9.969 8.844c1.115.043 2.281.444 3.125 1.25 5.277 5.025.045 13.652-1.688 15.312-.217-.218-1.287-1.306-1.562-1.562.839-1.303 2.352-2.379 1.812-5.125-.54-2.746-2.111-2.661-3-2.188-.889.473-1.29 2.816-1.406 2.562-2.044-4.02-2.031-7.003-.062-9.281.588-.687 1.665-1.011 2.781-.968zm17.375 1.5a22.1 22.1 0 012.344.062l.031.062.062.031c.572 5.328-.893 10.668-8.625 12.969-2.471.865-5.005 2.581-7 4.625-.362-.32-1.823-1.749-2.156-2.094 2.083-2.006 3.721-4.285 4.562-6.719 2.26-6.319 5.604-8.756 10.782-8.936zm-18.469 12.656l8.312 8.281-1 1-8.312-8.25 1-1.031zm-218.75 1.657c.217.218 1.287 1.306 1.562 1.562-.839 1.303-2.352 2.41-1.812 5.156.54 2.746 2.111 2.63 3 2.156.889-.474 1.29-2.816 1.406-2.562 2.044 4.021 2.031 7.034.062 9.312-1.178 1.376-4.219 1.299-5.906-.312-5.277-5.025-.045-13.652 1.688-15.312zm234.5.062c1.967.023 3.924.639 5.5 2.281 1.617 1.68 1.634 4.735.25 5.906-2.291 1.958-5.307 1.943-9.344-.094-.255-.115 2.086-.521 2.562-1.406.476-.885.604-2.43-2.156-2.969-2.759-.539-3.878.947-5.188 1.781-.258-.273-1.375-1.314-1.594-1.531 1.149-1.184 5.642-4.019 9.97-3.968zm9.937 8.844c1.115.043 2.312.444 3.156 1.25 5.277 5.025.045 13.652-1.688 15.312-.217-.218-1.287-1.306-1.562-1.562.839-1.303 2.352-2.379 1.812-5.125s-2.111-2.661-3-2.188-1.29 2.816-1.406 2.562c-2.044-4.02-2.031-7.003-.062-9.281.589-.687 1.635-1.011 2.75-.968zm17.407 1.5a22.1 22.1 0 012.344.062l.031.062.031.031c.572 5.328-.861 10.668-8.594 12.969-2.471.865-5.005 2.581-7 4.625-.362-.32-1.823-1.749-2.156-2.094 2.083-2.006 3.689-4.285 4.531-6.719 2.26-6.319 5.635-8.756 10.813-8.936zm-252.188 5.375c1.546.012 3.324.513 5.344 1.531.255.115-2.086.521-2.562 1.406-.476.885-.604 2.43 2.156 2.969 2.76.539 3.878-.947 5.188-1.781.258.273 1.344 1.314 1.562 1.531-1.67 1.723-10.392 6.943-15.438 1.688-1.617-1.68-1.634-4.735-.25-5.906 1.146-.979 2.454-1.45 4-1.438zm10.188 2.062l8.312 8.25-1.031 1.031-8.312-8.25 1.031-1.031zm2.031 4.188c.362.32 1.823 1.749 2.156 2.094-2.083 2.006-3.721 4.285-4.562 6.719-2.582 7.223-6.598 9.364-13.125 8.875l-.031-.031-.062-.062c-.572-5.328.893-10.668 8.625-12.969 2.469-.866 5.004-2.582 6.999-4.626zm221.5 1.031l8.312 8.25-1 1.031-8.312-8.25 1-1.031zM32.437 149.25c.217.218 1.318 1.306 1.594 1.562-.839 1.303-2.352 2.41-1.812 5.156.54 2.746 2.08 2.63 2.969 2.156s1.321-2.816 1.438-2.562c2.044 4.02 2 7.003.031 9.281-1.178 1.376-4.188 1.33-5.875-.281-5.279-5.024-.078-13.651 1.655-15.312zm234.531.063c1.967.023 3.893.639 5.469 2.281 1.617 1.68 1.665 4.735.281 5.906-2.291 1.958-5.307 1.943-9.344-.094-.255-.115 2.086-.521 2.562-1.406s.604-2.43-2.156-2.969c-2.76-.539-3.878.947-5.188 1.781-.258-.273-1.375-1.314-1.594-1.531 1.149-1.184 5.642-4.019 9.97-3.968zm9.937 8.812c1.115.043 2.312.476 3.156 1.281 5.278 5.025.045 13.652-1.688 15.312-.217-.218-1.287-1.306-1.562-1.562.839-1.303 2.352-2.41 1.812-5.156s-2.111-2.63-3-2.156c-.806.43-1.25 2.387-1.406 2.562-2.044-4.021-2.031-7.003-.062-9.281.589-.687 1.635-1.042 2.75-1zm17.407 1.532c.74-.025 1.496.002 2.312.062l.062.031.031.062c.572 5.328-.861 10.668-8.594 12.969-2.471.865-5.006 2.581-7 4.625a81.71 81.71 0 01-2.188-2.094c2.083-2.006 3.721-4.285 4.563-6.719 2.261-6.319 5.636-8.757 10.814-8.936zm-252.188 5.375c1.546.012 3.324.513 5.344 1.531.255.115-2.117.521-2.594 1.406-.477.885-.572 2.43 2.188 2.969 2.76.539 3.878-.947 5.188-1.781.258.273 1.344 1.314 1.562 1.531-1.67 1.723-10.392 6.943-15.438 1.688-1.617-1.68-1.665-4.735-.281-5.906 1.145-.979 2.485-1.45 4.031-1.438zm10.188 2.062l8.312 8.25-1.031 1.031-8.312-8.25 1.031-1.031zm2 4.188a81.71 81.71 0 012.188 2.094c-2.083 2.006-3.721 4.285-4.562 6.719-2.582 7.223-6.598 9.364-13.125 8.875l-.062-.062-.031-.031c-.572-5.328.861-10.668 8.594-12.969 2.468-.866 5.002-2.582 6.998-4.626zm221.531 1.031l8.313 8.25-1.031 1.031-8.313-8.25 1.031-1.031zm-218.781 1.656c.217.218 1.318 1.306 1.594 1.562-.839 1.303-2.352 2.379-1.812 5.125.54 2.746 2.08 2.661 2.969 2.188.889-.473 1.321-2.816 1.438-2.562 2.044 4.02 2 7.003.031 9.281-1.178 1.376-4.188 1.33-5.875-.281-5.279-5.026-.078-13.653 1.655-15.313zm234.531.063c1.967.023 3.893.639 5.469 2.281 1.617 1.68 1.664 4.735.281 5.906-2.291 1.958-5.307 1.943-9.344-.094-.256-.115 2.086-.521 2.562-1.406.476-.885.572-2.43-2.188-2.969s-3.879.947-5.188 1.781c-.258-.273-1.344-1.314-1.563-1.531 1.151-1.184 5.643-4.019 9.971-3.968zm9.938 8.812c1.115.043 2.281.476 3.125 1.281 5.277 5.025.076 13.652-1.656 15.312a117.245 117.245 0 00-1.594-1.562c.838-1.303 2.352-2.41 1.812-5.156-.54-2.746-2.079-2.63-2.969-2.156-.889.474-1.322 2.816-1.438 2.562-2.045-4.02-2-7.034-.031-9.312.589-.688 1.636-1.012 2.751-.969zm17.407 1.531c.74-.025 1.496.002 2.312.062l.062.031.03.062c.572 5.328-.86 10.668-8.594 12.969-2.472.865-5.006 2.581-7 4.625a81.71 81.71 0 01-2.188-2.094c2.082-2.006 3.722-4.285 4.562-6.719 2.263-6.318 5.638-8.756 10.816-8.936zM66.749 189.75c1.546.012 3.293.513 5.312 1.531.255.115-2.086.521-2.562 1.406s-.572 2.43 2.188 2.969c2.76.539 3.878-.947 5.188-1.781.258.273 1.344 1.314 1.562 1.531-1.67 1.723-10.392 6.943-15.438 1.688-1.617-1.68-1.665-4.735-.281-5.906 1.145-.979 2.485-1.449 4.031-1.438zm10.188 2.063l8.312 8.25-1.031 1.031-8.312-8.281 1.031-1zm2 4.187a81.71 81.71 0 012.188 2.094c-2.083 2.006-3.721 4.285-4.562 6.719-2.582 7.223-6.598 9.364-13.125 8.875l-.062-.062-.031-.031c-.572-5.328.861-10.668 8.594-12.969 2.468-.866 5.002-2.582 6.998-4.626zm221.531 1.032l8.313 8.25-1.031 1.031-8.313-8.25 1.031-1.031zm-218.781 1.656c.217.218 1.287 1.306 1.562 1.562-.839 1.303-2.352 2.379-1.812 5.125s2.111 2.661 3 2.188c.806-.43 1.25-2.387 1.406-2.562 2.044 4.02 2.031 7.003.062 9.281-1.178 1.376-4.219 1.33-5.906-.281-5.277-5.026-.045-13.653 1.688-15.313zm234.532.062c1.967.023 3.893.639 5.469 2.281 1.617 1.68 1.664 4.704.281 5.875-2.291 1.958-5.338 1.975-9.375-.062-.256-.115 2.117-.521 2.594-1.406.478-.885.572-2.461-2.188-3s-3.879.979-5.188 1.812c-.258-.273-1.345-1.314-1.562-1.531 1.148-1.184 5.641-4.019 9.969-3.969zm9.937 8.813c1.115.043 2.281.476 3.125 1.281 5.277 5.025.076 13.652-1.656 15.312-.217-.218-1.318-1.337-1.594-1.594.838-1.303 2.352-2.379 1.812-5.125s-2.079-2.63-2.969-2.156c-.89.474-1.321 2.816-1.438 2.562-2.045-4.02-2-7.034-.03-9.312.588-.687 1.635-1.011 2.75-.968zm17.375 1.531a22.1 22.1 0 012.344.062l.062.031.03.062c.572 5.328-.893 10.668-8.625 12.969-2.471.865-5.006 2.55-7 4.594a77.875 77.875 0 01-2.155-2.062c2.082-2.006 3.721-4.285 4.562-6.719 2.261-6.32 5.605-8.757 10.782-8.937zm-252.157 5.375c1.546.012 3.293.513 5.312 1.531.255.115-2.086.521-2.562 1.406-.476.885-.572 2.43 2.188 2.969 2.76.539 3.847-.947 5.156-1.781.258.273 1.375 1.314 1.594 1.531-1.67 1.723-10.392 6.943-15.438 1.688-1.617-1.68-1.665-4.735-.281-5.906 1.145-.979 2.485-1.449 4.031-1.438zm10.156 2.063l8.312 8.25-1 1-8.312-8.25 1-1zm2.032 4.187a81.71 81.71 0 012.188 2.094c-2.083 2.006-3.721 4.285-4.562 6.719-2.582 7.223-6.629 9.364-13.156 8.875l-.031-.062-.031-.031c-.572-5.328.861-10.668 8.594-12.969 2.468-.866 5.002-2.582 6.998-4.626zm221.532 1.031l8.312 8.25-1.031 1.031-8.312-8.25 1.031-1.031zm-218.782 1.657c.217.218 1.287 1.306 1.562 1.562-.839 1.303-2.352 2.379-1.812 5.125.54 2.746 2.111 2.63 3 2.156s1.29-2.816 1.406-2.562c2.044 4.02 2.031 7.034.062 9.312-1.178 1.376-4.219 1.33-5.906-.281-5.277-5.025-.045-13.652 1.688-15.312zm234.5.062c1.967.023 3.924.639 5.5 2.281 1.617 1.68 1.633 4.704.25 5.875-2.291 1.958-5.308 1.975-9.345-.062-.256-.115 2.087-.521 2.562-1.406.476-.885.604-2.461-2.156-3-2.76-.539-3.879.979-5.188 1.812-.258-.273-1.344-1.314-1.562-1.531 1.15-1.185 5.611-4.02 9.939-3.969zm9.969 8.813c1.115.043 2.281.476 3.125 1.281 5.277 5.025.045 13.652-1.688 15.312-.217-.218-1.286-1.337-1.562-1.594.838-1.303 2.352-2.379 1.812-5.125-.54-2.746-2.11-2.63-3-2.156-.889.474-1.29 2.816-1.405 2.562-2.045-4.02-2.031-7.034-.062-9.312.587-.687 1.665-1.011 2.78-.968zm17.375 1.531a22.1 22.1 0 012.344.062l.031.031.062.062c.572 5.328-.893 10.637-8.625 12.938-2.471.865-5.006 2.581-7 4.625a77.503 77.503 0 01-2.155-2.094c2.082-2.006 3.721-4.254 4.562-6.688 2.26-6.319 5.604-8.756 10.781-8.936zm-252.157 5.375c1.546.012 3.293.513 5.312 1.531.255.115-2.086.521-2.562 1.406s-.604 2.43 2.156 2.969c2.76.539 3.878-.947 5.188-1.781.258.273 1.375 1.314 1.594 1.531-1.67 1.723-10.392 6.943-15.438 1.688-1.617-1.68-1.665-4.735-.281-5.906 1.145-.979 2.485-1.45 4.031-1.438zm10.156 2.062l8.312 8.25-1 1-8.312-8.25 1-1zm2.032 4.188c.362.32 1.823 1.749 2.156 2.094-2.083 2.006-3.721 4.285-4.562 6.719-2.582 7.223-6.598 9.365-13.125 8.875l-.031-.062-.062-.031c-.572-5.328.893-10.668 8.625-12.969 2.469-.866 5.003-2.582 6.999-4.626zm221.532 1.031l8.281 8.25-1 1.031-8.312-8.281 1.031-1zm-218.782 1.625c.217.218 1.287 1.337 1.562 1.594-.839 1.303-2.352 2.379-1.812 5.125s2.111 2.63 3 2.156c.889-.474 1.29-2.816 1.406-2.562 2.044 4.02 2.031 7.034.062 9.312-1.178 1.376-4.219 1.33-5.906-.281-5.277-5.025-.045-13.684 1.688-15.344zm234.501.094c1.967.023 3.924.639 5.5 2.281 1.617 1.68 1.633 4.704.25 5.875-2.291 1.958-5.307 1.975-9.344-.062-.256-.115 2.086-.521 2.562-1.406.476-.885.604-2.461-2.156-3s-3.879.979-5.188 1.812c-.258-.273-1.345-1.314-1.562-1.531 1.148-1.185 5.609-4.02 9.938-3.969zm9.937 8.812c1.115.043 2.312.476 3.156 1.281 5.277 5.025.045 13.652-1.688 15.312-.217-.218-1.286-1.337-1.562-1.594.838-1.303 2.352-2.379 1.812-5.125s-2.11-2.63-3-2.156c-.889.474-1.29 2.816-1.405 2.562-2.045-4.02-2.031-7.034-.062-9.312.587-.686 1.634-1.01 2.749-.968zm17.406 1.532a22.1 22.1 0 012.344.062l.031.031.062.031c.572 5.328-.893 10.668-8.625 12.969-2.471.865-5.006 2.581-7 4.625a77.503 77.503 0 01-2.155-2.094c2.082-2.006 3.721-4.285 4.562-6.719 2.26-6.319 5.604-8.726 10.781-8.905zm-252.188 5.343c1.546.012 3.324.544 5.344 1.562.255.115-2.086.521-2.562 1.406-.476.885-.604 2.43 2.156 2.969 2.759.539 3.878-.947 5.188-1.781.258.273 1.344 1.314 1.562 1.531-1.67 1.723-10.392 6.943-15.438 1.688-1.617-1.68-1.634-4.735-.25-5.906 1.145-.978 2.454-1.48 4-1.469zm10.187 2.094l8.312 8.25-1.031 1-8.281-8.25 1-1zm2.032 4.188c.362.32 1.823 1.749 2.156 2.094-2.083 2.006-3.721 4.285-4.562 6.719-2.582 7.223-6.598 9.364-13.125 8.875l-.031-.062-.062-.031c-.572-5.328.893-10.668 8.625-12.969 2.469-.866 5.003-2.582 6.999-4.626zm221.5 1.031l8.312 8.25-1 1-8.312-8.25 1-1zm-218.75 1.625c.217.218 1.287 1.337 1.562 1.594-.839 1.303-2.352 2.379-1.812 5.125.54 2.746 2.111 2.63 3 2.156s1.29-2.816 1.406-2.562c2.044 4.02 2.031 7.034.062 9.312-1.178 1.376-4.219 1.33-5.906-.281-5.277-5.026-.045-13.684 1.688-15.344zm234.5.062c1.967.023 3.893.67 5.469 2.312 1.617 1.68 1.664 4.704.281 5.875-2.291 1.958-5.308 1.943-9.345-.094.177-.156 2.132-.604 2.562-1.406.477-.885.604-2.43-2.156-2.969-2.76-.539-3.879.979-5.188 1.812-.258-.273-1.375-1.346-1.594-1.562 1.151-1.183 5.643-4.018 9.971-3.968zm9.938 8.844c1.115.043 2.312.444 3.156 1.25 5.276 5.025.045 13.684-1.688 15.344-.219-.218-1.287-1.337-1.562-1.594.838-1.303 2.352-2.379 1.812-5.125-.54-2.746-2.11-2.63-3-2.156-.889.474-1.291 2.816-1.405 2.562-2.045-4.02-2.031-7.034-.062-9.312.587-.688 1.634-1.012 2.749-.969zm17.406 1.531c.737-.025 1.526.002 2.344.062l.031.031.031.031c.571 5.328-.861 10.668-8.595 12.969-2.471.865-5.006 2.581-7 4.625a81.71 81.71 0 01-2.188-2.094c2.082-2.006 3.721-4.285 4.562-6.719 2.263-6.319 5.638-8.725 10.815-8.905zm-252.188 5.344c1.546.012 3.324.544 5.344 1.562-.049.144-2.115.577-2.562 1.406-.477.885-.604 2.43 2.156 2.969 2.759.539 3.878-.947 5.188-1.781.258.273 1.344 1.314 1.562 1.531-1.67 1.723-10.392 6.912-15.438 1.656-1.617-1.68-1.634-4.704-.25-5.875 1.145-.978 2.454-1.479 4-1.468zm10.187 2.094l8.312 8.25-1.031 1-8.312-8.25 1.031-1zm2.032 4.187c.362.32 1.823 1.749 2.156 2.094-2.083 2.006-3.721 4.285-4.562 6.719-2.582 7.223-6.598 9.333-13.125 8.844l-.062-.031-.031-.031c-.572-5.328.893-10.668 8.625-12.969 2.469-.866 5.003-2.582 6.999-4.626zm221.501 1.032l8.312 8.25-1 1-8.312-8.25 1-1zm-218.783 1.625c.217.218 1.318 1.337 1.594 1.594-.839 1.303-2.352 2.379-1.812 5.125s2.08 2.63 2.969 2.156c.889-.474 1.321-2.816 1.438-2.562 2.044 4.021 2 7.034.031 9.312-1.178 1.377-4.188 1.33-5.875-.281-5.278-5.026-.077-13.684 1.655-15.344zm234.533.062c1.968.023 3.892.67 5.47 2.312 1.617 1.68 1.664 4.704.28 5.875-2.29 1.958-5.307 1.942-9.344-.094.176-.156 2.131-.604 2.562-1.406.477-.885.569-2.43-2.188-2.969-2.76-.539-3.848.947-5.155 1.781-.259-.273-1.375-1.314-1.595-1.531 1.149-1.184 5.641-4.019 9.97-3.968zm9.937 8.844c1.115.045 2.312.444 3.156 1.25 5.276 5.025.045 13.684-1.688 15.344-.219-.217-1.287-1.336-1.562-1.595.838-1.303 2.352-2.379 1.812-5.125-.54-2.745-2.11-2.629-3-2.155-.834.444-1.262 2.514-1.405 2.562-2.046-4.02-2.033-7.034-.062-9.312.587-.689 1.634-1.013 2.749-.969zm18.531 1.5c.383.004.778.032 1.188.062l.062.062.031.03c.571 5.328-.861 10.669-8.595 12.968-2.471.865-5.006 2.582-7 4.625a77.237 77.237 0 01-2.188-2.094c2.082-2.006 3.721-4.285 4.562-6.719 2.26-6.319 5.635-8.726 10.812-8.906.372-.009.743-.031 1.128-.028zm-253.313 5.374c1.546.012 3.324.545 5.344 1.562-.049.145-2.146.578-2.594 1.406-.477.885-.572 2.43 2.188 2.969 2.759.539 3.878-.979 5.188-1.812.258.272 1.344 1.346 1.562 1.562-1.67 1.723-10.392 6.912-15.438 1.656-1.617-1.681-1.665-4.703-.281-5.875 1.145-.977 2.485-1.479 4.031-1.468zm10.187 2.094l8.312 8.25-1.031 1-8.312-8.25 1.031-1zm2 4.188c.362.322 1.854 1.75 2.188 2.094-2.083 2.007-3.721 4.285-4.562 6.72-2.582 7.223-6.598 9.334-13.125 8.844l-.062-.031-.031-.03c-.572-5.328.861-10.669 8.594-12.97 2.469-.867 5.003-2.582 6.998-4.627zm221.532 1.031l8.312 8.25-1.031 1-8.312-8.25 1.031-1zM204.78 322.25c.217.219 1.318 1.338 1.594 1.594-.839 1.304-2.352 2.379-1.812 5.125s2.08 2.631 2.969 2.156c.889-.473 1.321-2.816 1.438-2.562 2.044 4.021 2 7.035.031 9.312-1.178 1.377-4.188 1.299-5.875-.312-5.278-5.026-.077-13.651 1.655-15.313zm234.532.062c1.967.022 3.891.639 5.469 2.28 1.617 1.681 1.664 4.736.281 5.906-2.291 1.959-5.308 1.943-9.345-.094-.256-.115 2.086-.521 2.562-1.406.476-.885.569-2.43-2.188-2.969-2.76-.539-3.879.946-5.188 1.78-.258-.272-1.344-1.313-1.562-1.53 1.151-1.181 5.643-4.017 9.971-3.967zm9.938 8.844c1.115.045 2.281.444 3.125 1.25 5.277 5.024.076 13.684-1.656 15.344-.219-.217-1.317-1.336-1.594-1.594.838-1.304 2.352-2.379 1.812-5.125-.54-2.746-2.08-2.629-2.97-2.156-.889.475-1.321 2.816-1.438 2.562-2.045-4.021-2.002-7.033-.031-9.312.59-.687 1.637-1.012 2.752-.969zm17.469 1.5a20.887 20.887 0 012.25.062l.062.062.031.03c.571 5.328-.861 10.669-8.595 12.97-2.471.864-5.006 2.582-7 4.625a78.707 78.707 0 01-2.188-2.095c2.082-2.006 3.721-4.284 4.562-6.719 2.272-6.345 5.659-8.773 10.878-8.935zm-252.251 5.375c1.546.012 3.293.514 5.312 1.531.255.116-2.086.521-2.562 1.405-.476.886-.572 2.461 2.188 3 2.759.539 3.878-.979 5.188-1.812.258.272 1.344 1.313 1.562 1.531-1.67 1.723-10.392 6.942-15.438 1.688-1.617-1.68-1.665-4.703-.281-5.875 1.145-.978 2.485-1.479 4.031-1.468zm10.187 2.063l8.312 8.281-1.031 1-8.312-8.25 1.031-1.031zm2 4.218a84.99 84.99 0 012.188 2.094c-2.083 2.006-3.721 4.254-4.562 6.688-2.582 7.224-6.598 9.365-13.125 8.875l-.062-.031-.031-.062c-.572-5.328.861-10.637 8.594-12.938 2.469-.866 5.003-2.581 6.998-4.626zm221.533 1.032l8.312 8.25-1.031 1-8.312-8.25 1.031-1zm-218.783 1.625c.217.219 1.287 1.338 1.562 1.594-.839 1.304-2.352 2.38-1.812 5.125.54 2.746 2.111 2.632 3 2.156.812-.432 1.252-2.41 1.406-2.562 2.044 4.021 2.031 7.035.062 9.312-1.178 1.377-4.219 1.299-5.906-.312-5.277-5.026-.044-13.651 1.688-15.313zm234.533.062c1.968.022 3.892.639 5.47 2.281 1.617 1.68 1.664 4.735.28 5.905-2.291 1.959-5.338 1.943-9.375-.094-.256-.115 2.117-.521 2.595-1.406.477-.885.569-2.43-2.188-2.969-2.76-.539-3.879.947-5.188 1.781-.258-.273-1.344-1.314-1.562-1.531 1.147-1.182 5.639-4.018 9.968-3.967zm9.937 8.844c1.115.045 2.281.445 3.125 1.25 5.277 5.025.076 13.652-1.656 15.312a123.346 123.346 0 00-1.594-1.562c.838-1.303 2.352-2.379 1.812-5.125-.54-2.746-2.111-2.629-3-2.156-.89.476-1.291 2.816-1.406 2.562-2.045-4.021-2.002-7.033-.031-9.312.588-.688 1.635-1.012 2.75-.969zm17.375 1.5c.738-.025 1.527.002 2.344.062l.031.062.062.031c.571 5.328-.894 10.668-8.625 12.969-2.472.865-5.007 2.582-7 4.625-.363-.32-1.824-1.748-2.156-2.094 2.082-2.006 3.721-4.285 4.562-6.72 2.261-6.316 5.604-8.755 10.782-8.935zm-252.157 5.375c1.546.012 3.293.514 5.312 1.531.255.117-2.086.521-2.562 1.406-.476.885-.604 2.461 2.156 3 2.759.538 3.878-.979 5.188-1.812.258.273 1.375 1.314 1.594 1.531-1.67 1.723-10.392 6.942-15.438 1.688-1.617-1.68-1.665-4.703-.281-5.875 1.145-.979 2.485-1.481 4.031-1.469zm10.156 2.062l8.312 8.25-1 1.03-8.312-8.25 1-1.03zm2.031 4.219c.362.321 1.823 1.75 2.156 2.094-2.083 2.006-3.689 4.254-4.531 6.688-2.582 7.224-6.629 9.365-13.156 8.875l-.031-.03-.031-.062c-.572-5.328.861-10.668 8.594-12.969 2.47-.867 5.004-2.551 6.999-4.596zm221.532 1.031l8.312 8.25-1.031 1-8.312-8.25 1.031-1zm-218.782 1.626c.217.22 1.287 1.339 1.562 1.595-.839 1.303-2.352 2.379-1.812 5.125.54 2.746 2.111 2.631 3 2.155.889-.473 1.29-2.815 1.406-2.562 2.044 4.021 2.031 7.035.062 9.312-1.178 1.378-4.219 1.3-5.906-.312-5.277-5.026-.044-13.651 1.688-15.313zm234.501.062c1.967.023 3.922.639 5.5 2.281 1.617 1.68 1.633 4.735.25 5.906-2.291 1.959-5.308 1.942-9.344-.095-.257-.114 2.086-.521 2.562-1.405.476-.886.602-2.431-2.156-2.97-2.76-.539-3.879.947-5.188 1.781-.258-.273-1.345-1.314-1.562-1.531 1.149-1.182 5.61-4.018 9.938-3.967zm9.969 8.844c1.115.045 2.281.445 3.125 1.25 5.277 5.025.045 13.652-1.688 15.312-.22-.217-1.287-1.306-1.562-1.562.838-1.303 2.352-2.379 1.812-5.125-.54-2.746-2.111-2.66-3-2.188-.89.475-1.291 2.815-1.406 2.562-2.045-4.02-2.033-7.002-.062-9.28.588-.688 1.666-1.012 2.781-.969zm17.375 1.5c.738-.024 1.527.002 2.344.062l.031.062.062.031c.571 5.328-.894 10.668-8.625 12.969-2.472.865-5.007 2.582-7 4.625-.363-.319-1.824-1.748-2.156-2.094 2.082-2.006 3.721-4.285 4.562-6.719 2.261-6.317 5.604-8.757 10.782-8.936zm-252.188 5.375c1.546.013 3.324.515 5.344 1.531.255.117-2.086.521-2.562 1.406-.476.885-.604 2.461 2.156 3 2.759.539 3.878-.979 5.188-1.812.258.273 1.344 1.314 1.562 1.531-1.67 1.723-10.392 6.943-15.438 1.688-1.617-1.68-1.634-4.702-.25-5.875 1.145-.979 2.454-1.481 4-1.469zm10.187 2.062l8.312 8.25-1 1.031-8.312-8.25 1-1.031zm2.031 4.188c.362.322 1.823 1.75 2.156 2.094-2.083 2.007-3.721 4.285-4.562 6.72-2.582 7.223-6.598 9.364-13.125 8.875l-.031-.031-.062-.062c-.572-5.328.893-10.669 8.625-12.97 2.47-.866 5.004-2.581 6.999-4.626zm221.533 1.031l8.281 8.281-1 1-8.312-8.25 1.031-1.031zm-218.783 1.656c.217.219 1.287 1.307 1.562 1.562-.839 1.304-2.352 2.41-1.812 5.156.54 2.746 2.111 2.631 3 2.156.889-.474 1.29-2.816 1.407-2.562 2.043 4.021 2.031 7.035.062 9.312-1.178 1.377-4.219 1.299-5.907-.312-5.277-5.025-.044-13.65 1.688-15.312zm234.501.063c1.967.023 3.922.64 5.5 2.281 1.617 1.68 1.633 4.736.25 5.906-2.291 1.959-5.308 1.942-9.344-.094-.257-.115 2.086-.521 2.562-1.406s.602-2.431-2.156-2.969c-2.76-.539-3.879.946-5.188 1.78-.258-.272-1.345-1.313-1.562-1.53 1.149-1.183 5.61-4.019 9.938-3.968zm9.938 8.812c1.115.045 2.312.477 3.156 1.281 5.277 5.024.045 13.651-1.688 15.312-.22-.217-1.287-1.305-1.562-1.562.838-1.304 2.352-2.38 1.812-5.125-.54-2.746-2.111-2.66-3-2.188-.89.475-1.291 2.816-1.406 2.562-2.045-4.02-2.033-7.002-.062-9.28.588-.687 1.635-1.043 2.75-1zm17.406 1.531c.738-.025 1.527.002 2.344.062l.031.062.062.031c.571 5.328-.894 10.668-8.625 12.969-2.472.865-5.007 2.582-7 4.625-.363-.319-1.824-1.747-2.156-2.094 2.082-2.006 3.721-4.285 4.562-6.719 2.261-6.316 5.604-8.756 10.782-8.936zm-252.188 5.376c1.545.013 3.324.515 5.344 1.531.254.117-2.086.521-2.562 1.406-.476.885-.604 2.43 2.156 2.969s3.877-.946 5.188-1.781c.258.273 1.344 1.314 1.562 1.531-1.67 1.724-10.393 6.943-15.438 1.688-1.617-1.681-1.635-4.734-.25-5.906 1.145-.98 2.453-1.45 4-1.438zm10.188 2.062l8.312 8.25-1.03 1.031-8.313-8.25 1.031-1.031zm2.031 4.188c.361.322 1.822 1.75 2.156 2.095-2.084 2.006-3.722 4.285-4.563 6.719-2.582 7.223-6.598 9.365-13.125 8.875l-.031-.031-.062-.062c-.572-5.328.893-10.668 8.625-12.969 2.47-.868 5.004-2.583 7-4.627zm221.5 1.031l8.312 8.25-1 1.031-8.312-8.25 1-1.031zm-218.75 1.656c.217.219 1.287 1.307 1.562 1.562-.84 1.303-2.352 2.409-1.812 5.155.539 2.746 2.111 2.631 3 2.156.889-.473 1.289-2.816 1.406-2.562 2.043 4.021 2 7.004.03 9.28-1.178 1.377-4.188 1.33-5.875-.28-5.276-5.024-.043-13.649 1.689-15.311zm234.5.063c1.967.023 3.891.64 5.469 2.281 1.617 1.681 1.664 4.736.281 5.906-2.291 1.959-5.308 1.943-9.344-.094-.257-.115 2.086-.521 2.562-1.406s.602-2.43-2.156-2.969c-2.76-.539-3.879.946-5.188 1.781-.258-.273-1.375-1.314-1.595-1.531 1.151-1.183 5.643-4.019 9.971-3.968zm9.938 8.812c1.115.045 2.312.477 3.156 1.281 5.277 5.024.045 13.651-1.688 15.312-.22-.217-1.287-1.305-1.562-1.562.838-1.304 2.352-2.41 1.812-5.156-.54-2.746-2.111-2.629-3-2.156-.808.431-1.25 2.388-1.406 2.562-2.045-4.021-2.033-7.002-.062-9.281.588-.688 1.635-1.043 2.75-1zm-234.781 6.906c1.545.012 3.324.514 5.345 1.531.254.116-2.117.521-2.595 1.405-.477.886-.571 2.431 2.188 2.97 2.758.538 3.877-.947 5.188-1.781.258.272 1.344 1.313 1.562 1.531-1.67 1.723-10.394 6.942-15.438 1.688-1.617-1.68-1.635-4.734-.25-5.906 1.144-.979 2.453-1.449 4-1.438zm10.187 2.063l8.312 8.25-1.031 1.031-8.312-8.25 1.031-1.031zm2 4.187c.361.321 1.854 1.75 2.188 2.094-2.084 2.006-3.721 4.285-4.562 6.719-2.582 7.224-6.599 9.365-13.125 8.875l-.062-.062-.031-.031c-.572-5.328.893-10.668 8.625-12.969 2.469-.866 4.971-2.581 6.967-4.626zm2.75 2.688c.217.219 1.318 1.308 1.594 1.562-.84 1.303-2.352 2.379-1.812 5.125s2.079 2.662 2.969 2.188c.89-.473 1.319-2.815 1.438-2.562 2.043 4.021 2 7.004.03 9.28-1.178 1.378-4.188 1.33-5.875-.28-5.278-5.026-.076-13.651 1.656-15.313zm9.687 15.781c1.545.012 3.293.514 5.312 1.531.254.117-2.086.521-2.562 1.406-.477.885-.572 2.43 2.188 2.969s3.877-.947 5.188-1.781c.258.273 1.345 1.314 1.562 1.531-1.67 1.723-10.393 6.942-15.438 1.688-1.617-1.68-1.666-4.733-.281-5.906 1.145-.979 2.485-1.45 4.031-1.438zm10.188 2.063l8.312 8.25-1.031 1.031-8.312-8.281 1.031-1zm2 4.187c.361.322 1.854 1.75 2.188 2.094-2.084 2.006-3.721 4.285-4.562 6.719-2.582 7.224-6.599 9.365-13.125 8.875l-.062-.062-.031-.031c-.572-5.328.861-10.668 8.594-12.969 2.469-.866 5.002-2.581 6.998-4.626zm2.75 2.687a106.5 106.5 0 001.594 1.562c-.84 1.303-2.352 2.379-1.812 5.125s2.079 2.662 2.969 2.188 1.319-2.816 1.438-2.562c2.043 4.021 2 7.004.03 9.281-1.178 1.377-4.188 1.33-5.875-.281-5.278-5.025-.076-13.65 1.656-15.313zm9.688 15.782c1.545.013 3.293.515 5.312 1.531.254.117-2.086.521-2.562 1.406-.476.885-.571 2.43 2.188 2.969s3.847-.947 5.156-1.781c.258.273 1.375 1.314 1.594 1.531-1.67 1.723-10.394 6.943-15.438 1.688-1.617-1.68-1.666-4.733-.28-5.905 1.143-.98 2.483-1.451 4.03-1.439zm10.187 2.062l8.281 8.25-1 1-8.312-8.25 1.031-1zm2 4.188c.361.322 1.854 1.75 2.188 2.094-2.084 2.007-3.721 4.285-4.562 6.72-2.582 7.223-6.629 9.364-13.156 8.875l-.03-.062-.031-.03c-.572-5.328.861-10.669 8.594-12.97 2.468-.867 5.001-2.582 6.997-4.627zm2.75 2.687c.217.219 1.287 1.307 1.562 1.562-.84 1.304-2.353 2.379-1.812 5.125s2.111 2.631 3 2.156c.834-.443 1.262-2.512 1.406-2.562 2.043 4.021 2.031 7.034.062 9.312-1.178 1.377-4.219 1.33-5.905-.281-5.278-5.025-.045-13.65 1.687-15.312zm9.687 15.75c1.545.012 3.293.545 5.312 1.562.254.117-2.086.521-2.562 1.406-.477.885-.604 2.43 2.155 2.969 2.761.539 3.878-.946 5.188-1.78.258.272 1.375 1.313 1.594 1.53-1.67 1.724-10.393 6.943-15.438 1.688-1.617-1.681-1.666-4.734-.281-5.906 1.146-.979 2.486-1.48 4.032-1.469zm10.157 2.094l8.312 8.25-1 1-8.312-8.25 1-1zm2.031 4.187a85.28 85.28 0 012.156 2.094c-2.084 2.006-3.689 4.285-4.531 6.719-2.582 7.223-6.629 9.365-13.156 8.875l-.031-.062-.062-.03c-.571-5.328.894-10.668 8.625-12.97 2.47-.866 5.003-2.581 6.999-4.626zm2.75 2.657c.217.219 1.287 1.338 1.562 1.594-.841 1.304-2.353 2.38-1.812 5.125.54 2.746 2.111 2.632 3 2.156.889-.473 1.289-2.815 1.406-2.562 2.043 4.021 2.031 7.035.062 9.312-1.178 1.377-4.221 1.33-5.905-.281-5.278-5.026-.045-13.682 1.687-15.344zm9.656 15.781c1.545.012 3.324.545 5.344 1.562.254.116-2.086.521-2.562 1.405-.476.886-.604 2.431 2.156 2.97 2.758.538 3.877-.947 5.188-1.781.258.272 1.344 1.313 1.562 1.531-1.67 1.723-10.393 6.942-15.438 1.688-1.617-1.68-1.635-4.734-.25-5.906 1.145-.979 2.453-1.481 4-1.469zm10.188 2.094l8.312 8.25-1 1-8.312-8.25 1-1zm2.031 4.187c.361.322 1.822 1.75 2.156 2.094-2.084 2.006-3.722 4.285-4.562 6.719-2.582 7.224-6.598 9.365-13.125 8.875l-.031-.062-.063-.032c-.572-5.328.893-10.668 8.625-12.969 2.469-.865 5.004-2.58 7-4.625zm2.75 2.657c.217.22 1.287 1.339 1.562 1.595-.841 1.303-2.353 2.379-1.812 5.125s2.111 2.631 3 2.155c.889-.473 1.289-2.815 1.406-2.562 2.043 4.021 2.031 7.035.062 9.312-1.178 1.378-4.221 1.33-5.905-.28-5.278-5.027-.045-13.683 1.687-15.345zm9.656 15.781c1.545.013 3.324.545 5.344 1.562-.051.145-2.115.578-2.562 1.406-.477.885-.604 2.43 2.156 2.969 2.758.539 3.877-.979 5.188-1.812.258.273 1.344 1.347 1.562 1.562-1.67 1.723-10.393 6.912-15.438 1.656-1.617-1.681-1.635-4.703-.25-5.875 1.145-.978 2.453-1.48 4-1.468z" />
   <path fill="#FFF" d="M1.951 73.648l472.246 469.904c26.533-26.155 35.957-37.574 57.901-68.533L62.967 1.736l-61.468.452.452 71.46z" />
   <path fill="none" d="M-.001 0H600v660H-.001z" />
   <path fill="#fcef3c" d="M361.2 18.4q-1.6 5.6-4.96 15.68-2.72 6.56-9.76 6.56-4.96 0-4.48-.48l.16 78.88q.32.32 3.36-1.76l.96 1.12-11.68 7.68q-1.6 1.28-3.36 2.56-1.6 1.28-3.2 1.28-5.6-2.88-8.8-10.4-3.04-6.88-2.56-14.08v-61.6q-1.6-7.52-9.28-7.52-4.16 0-7.52 2.24-1.76 1.28-5.6 5.44-.32 0-.8-.48 3.68-14.4 5.6-19.84 2.88-4 16.16-4l30.4 1.92q2.72.32 4.8.32 3.68 0 5.92-1.12 4.32-2.24 4.64-2.4zm-21.6 99.68L339.44 40q-3.04-.32-4.8-.32v73.12q-.16 2.56 2.08 4l2.88 1.28zm81.92-27.2q0 14.56-11.04 26.56-11.04 11.84-25.6 11.84-9.12 0-14.72-4.48-6.24-4.96-6.24-13.92 0-.8.16-1.44 11.2-7.36 22.88-14.24v3.68q-.16 3.04-.16 3.84 0 5.44 3.2 9.44 3.2 4 8.64 4 7.84 0 7.84-9.28 0-8.64-11.2-15.68-10.24-6.4-20.64-12.8-11.2-9.12-11.2-23.04 0-10.72 5.92-17.44 3.68-4 15.2-10.88 9.76-5.76 15.2-9.6.64 0 2.08 4 1.6 3.84 4.64 4 .48.16 1.12.16 2.24 0 8.8-4.96 0 3.04-2.56 8.32-3.84 8-15.68 9.76-1.76-.48-3.36-.96-2.24-.96-3.84-3.36-2.72 1.44-4.48 4.8-1.76 3.36-1.76 6.72 0 7.04 9.44 13.28 8.96 5.76 17.76 11.52 9.6 8.32 9.6 20.16zM417.68 84q-2.24-7.52-11.68-13.92l-16.32-10.24q-8.32-6.4-8.32-14.56 0-4.64 3.52-9.12 3.68-4.48 3.68-3.84 0-.96-1.12-1.28-3.2 1.76-6.88 6.72-3.52 4.96-3.52 8.48 0 9.28 9.6 17.44 5.44 4.64 18.56 11.68 11.04 5.92 12.48 8.64zM398 119.04q-14.4-1.44-13.92-17.92-.48.64-1.6 4.32t-1.12 4.48q-.32 5.44 4 8.48 3.36 2.24 8 2.24 4.48 0 4.64-1.6zm91.84-49.28v65.12q-8.48.96-17.76 10.56-9.28 9.6-15.36 9.6-8.96 0-10.4-8 6.4 3.2 9.92 3.2 4.8 0 8.64-4 4-3.84 4.96-9.44.32-1.44.32-3.36v-17.6l-3.36 1.12q-4.8 2.56-20.8 12.64-17.92-12.48-17.92-39.36V62.88q.32-11.68 2.88-18.24 4.16-10.4 14.88-15.36 7.68-3.52 10.08-4-.32.8-1.44 2.88l-6.08 9.28q-2.08 3.68-1.92 10.56l.16 40q0 8.16.32 9.76 1.92 4.16 4.32 8.48-.16-3.68 0-8.48V42.08q.8-3.36 9.92-23.68-.32 0 .96 2.08 3.2 7.84 12 7.84 4.48 0 10.72-6.4-1.6 10.4-7.36 16.8-5.6 6.4-13.12 6.4-5.92 0-9.44-2.72-1.12.48-1.12 2.24v65.12q1.6 5.12 6.88 5.12 2.72 0 5.6-1.92 3.52-2.24 4.64-5.76V82.72q-.64-4.8-4.16-4.96-3.2-.16-5.92 3.68-2.56 3.84-4.96 7.68 1.12-4.48 7.36-19.36zM408.44 228.38q-5.362-2.24-17.92-3.122-.068-3.462-.747-6.72-1.561-7.807-5.77-13.238.61-.203 3.055.475 2.918.883 4.683.883 2.92.068 5.227-1.561l15.681-15.681q6.11-6.11 6.992-7.807 2.58-5.023-2.512-10.114l-.882-.883q-.611-.746-.815-.95-1.697-1.697-2.443-3.801-.815-2.58.678-4.073 1.562-1.562 4.413-1.019 2.376.476 3.394 1.494 1.018 1.018 1.561 2.783.679 1.765.204 2.919-.679-1.086-1.765-1.086-1.018-.068-1.765.679-1.765 1.765 1.29 4.82 3.122 3.122 14.39 2.579 1.29 5.227 2.512 10.522 1.222 4.887 3.802 8.145l-.815.815q-5.43-2.987-9.707.34l-21.654 21.654q-2.58 2.715-1.087 11.947zm-10.521-4.955q-.815-.815-1.901-5.43-.747-3.191-1.561-6.314 2.376.611 7.67-3.462l20.569-20.568q4.073-4.616 3.53-10.183-1.29-.475-3.19-.882.27 3.937-1.63 6.788-.543.95-3.53 3.937l-19.89 19.89q-2.918 2.24-8.688 2.036.95 1.901 2.308 7.603 1.222 5.295 1.357 5.43-.203-.203 4.956 1.155zm55.527 50.911l-6.516-5.973q-4.21-3.666-8.282-5.702-2.444-1.222-8.146-2.716-4.955-1.29-5.498-1.833-.611-.61-2.037-8.281-.814-4.073-1.561-8.214-.883-3.055-2.851-5.974-2.308-3.53-2.715-4.616 8.892-1.29 13.033-5.43.882-.883 1.697-1.969.747 6.585 5.974 13.17l-3.394 1.493q-1.698.747-3.598 2.511-2.308 1.901-2.783 6.857-.543 5.294 1.832 7.806 3.87 4.005 11.472.883 5.567-2.173 9.097-5.703 9.707-9.707 3.122-16.291-.203-.204-3.122-1.901-2.851-1.765-3.055-1.969-2.715-2.715-.679-4.751.543-.543 1.9-.543 1.494 0 2.241.746.61.611 2.444 3.53 1.833 2.92 1.968 3.055 6.313 6.313 13.645-1.018 3.394-3.395 5.362-7.671 3.055-6.72-.814-10.59-1.9-1.9-5.567-1.493-3.665.407-5.43 2.172-1.426 1.426-3.326 4.684-2.987-2.987-5.363-4.005-3.123-1.222-6.245-2.308 4.887-5.702 6.516-10.59 1.29 1.154 11.54 4.888 10.319 3.801 10.386 3.87 7.943 17.173 9.029 18.26l2.511 2.511 3.802 3.801q-2.376.476-8.553 6.653-4.005 4.005-4.548 4.82-.68 1.765-1.29 3.462-9.775-9.504-17.242-11.54 3.665 10.318 11.88 18.667-5.77 2.512-10.047 6.788-3.123 3.123-4.006 4.413-1.493 2.172-2.783 6.041zm20.093-39.914q8.146-8.146 3.462-13.509-.61 2.376-2.986 6.11-2.308 3.665-4.684 6.04-2.58 2.58-5.091 4.142 3.462 1.154 5.973 0 1.086-.543 3.326-2.783zm-18.803-22.741q.815-1.086 1.697-2.104 1.561-1.969 1.154-2.376-.882-.883-3.394-2.037-2.036 2.987-3.055 5.091 1.494.544 3.598 1.426zm-1.697 43.92q8.825-8.825 5.16-12.49-.34-.34-.883-.611-1.154 2.24-2.376 4.548-1.154 2.24-3.87 4.955-3.054 3.055-6.177 4.82-2.783 1.29-5.566 2.715 4.276 5.498 13.712-3.937zm-25.931-16.156q-.815-4.48-3.598-7.807-1.222.272-3.326.883 3.87 4.412 4.752 10.046.475-.475 1.154-1.697.679-1.222 1.018-1.425zm87.092 57.089q-3.325.068-9.503 6.245-1.154 1.154-3.054 3.19-1.833 1.969-2.444 2.58-1.222 1.222-1.969 3.326-.61 2.104-1.29 2.92-.61-.205-1.221-.68-.408-.271-.95-.95-.68-.815-.951-1.086-5.499-5.499-15.07-8.96-4.684-1.562-9.436-3.191-.475-7.535-3.326-12.966-2.444-4.616-8.417-10.59l.747-1.425q4.683-1.833 7.06-4.209 1.221-1.221 3.461-4.955l11.133 11.133q-1.154.882-3.801 3.53-2.852 2.85-4.21 8.417-1.425 6.042 1.223 8.689 3.122 3.123 9.707-.34 4.548-2.375 8.553-6.38 11.812-11.812 2.715-20.908-2.783-2.783-5.973-3.258-1.63-.272-5.43.135-3.734.34-5.839-.271l.068-3.734q9.91-8.281 11.133-9.503 1.086-1.086 8.214-10.25 4.276 2.24 11.472 2.511 3.801 7.739 11.064 15.002l5.499 5.499q.815.814 8.825 7.195l-.136.543-.679.543q-7.06-.95-12.626 1.358-.95.407-4.955 1.697-9.911-10.725-14.256-15.07-1.629-1.63-8.62-8.214l-9.233 8.825.204.475q6.788.679 11.268 2.987 4.548 2.24 9.504 7.196 2.987 2.986 6.38 10.86 2.648 6.042 5.16 12.084zm4.549-25.049l-21.111-21.111q2.172-2.58 2.919-3.19-1.698-.747-3.598-.747l-4.141 4.955q2.036 1.358 2.715 2.036l12.151 12.151q5.566 5.567 6.177 7.535 1.494-.814 4.888-1.629zm-18.668 3.598l-1.222-1.63q1.29 5.77.068 9.844-1.357 4.344-6.38 9.367-5.363 5.363-11.88 8.621.747.34 4.548 1.426 7.467-4.344 9.504-6.38 5.227-5.228 6.924-9.369.61-1.561.068-6.041-.544-4.48-1.63-5.838zm-29.46-2.308q-2.376-2.512-2.648-2.647-.34.339-1.833 1.968-1.425 1.561-2.376 2.512-1.425 1.425-2.58 2.172l2.309 2.308q3.665-1.493 7.127-6.313zm66.456 82.477q-1.9-.136-8.621-2.376-5.091-1.697-9.3-.475l-.34-.475q.815-7.196-3.597-18.397l.407-.407q.95.136 2.58 1.222 1.765 1.086 2.715 1.086 1.494 0 2.919-1.968l1.426-1.833-21.112-21.112 2.376-2.24q16.767.611 25.184-.34 15.953-1.696 22.809-8.417 6.788 4.616 12.422 5.227 2.58 10.997 2.783 15.953l-3.19-1.426q-5.023-.95-11.88-2.647-13.576-3.394-45.073-4.888l17.989 17.99 5.294-5.296q1.969-1.968 1.562-6.992 3.054 2.105 13.169 4.616 1.9 8.418 4.684 13.509-6.856 1.018-10.522 4.684-.747.747-1.493 1.629 0 .543 4.887 5.023l-2.715 2.716-4.752-4.752q-.136-.136-.815.543-1.765 1.765-1.629 3.937.068 1.154 1.154 3.326.883 1.833.68 2.58zm22.47-49.758q.067-.068 0-.136-.137-.135-1.155-.34-.882-.203-1.086-.406-1.63-1.63-2.444-1.222-1.154.746-3.394 2.036-4.209 2.308-14.052 4.413 7.196 1.9 10.25 1.29 1.562-.34 7.604-3.395 4.208-2.172 4.276-2.24zm-33.942 44.395q-.272-2.987-1.018-9.028 1.086-.272 2.308-1.358.882-.747 2.172-2.172 1.561-1.833 1.833-2.104 10.59-10.59 9.775-12.084-.272-.407-1.697-1.018-1.426-.61-1.969-.475-1.018 3.87-8.214 11.065l-4.072 4.073q-2.24 1.697-4.616.95 1.086 3.123 1.629 12.355 1.629-.272 3.869-.204zM162.316 387.53q-2.121 2.121-4.837 1.782-2.715-.34-4.836-2.461-4.582-4.582-1.782-9.928 1.273-2.46 6.703-7.891 5.091-5.091.085-10.098-5.006-5.006-17.395 4.667-4.327 3.31-15.019 14l2.885 2.886q2.63 2.63 2.885 2.715 1.952 1.443 5.43 1.697 1.698-.509 2.631-1.442 1.528-1.528 1.528-5.261l2.12 1.782q1.274 1.273 1.02 3.564-.086 2.29-1.274 3.479-3.733 3.733-6.024 3.479.424 2.12-.679 3.563.085.085-2.206 2.376-1.782 1.782-4.497 1.273-2.63-.424-4.413-2.206l-1.273-1.443q2.546.849 5.94-2.036 2.206-3.394-1.442-7.043-.594-.594-1.443-1.273-.763-.594-.933-.763l-2.8-2.8q-1.103 1.103-4.073 3.903-3.394 3.224-5.176 5.006-17.65 17.65-10.183 25.116 5.007 5.007 11.031 3.564 5.091-1.188 9.419-6.364.933-1.103 1.782-1.951 5.6-5.6 9.503-1.697 1.103 1.103 1.019 2.885 0 1.866-1.104 2.97-.509.509-1.866.509-1.358 0-1.952-.594l-.933-1.443v-2.376q-.17.17-1.103.425-.849.17-1.188.509-2.122 2.12-4.413 7.806-2.206 5.77-4.242 7.807-2.546 2.545-6.958 1.187-3.988-1.103-5.94-3.733l-11.54-15.274q-6.11-7.806-11.285-12.982-8.061-8.061-12.22-4.073-.933.933-.254 2.97.68 2.036 1.697 3.055l.425.084q2.376-1.357 4.751.68.68.678.68 1.866.084 1.273-.51 1.867-1.103 1.103-3.564 0-1.866-1.018-3.054-2.376-3.14-3.48-2.461-8.57l1.103-1.782q2.885-2.885 8.91-.594 7.042 2.63 10.097 1.612 6.11-2.036 21.637-17.564l8.486-8.486q11.03-11.03 14.764-18.667 1.612-3.31-.679-8.995-2.036-4.921 1.019-7.976 1.866-1.867 4.836-1.442 2.97.424 4.837 2.12 4.751 4.074 1.782 7.044-1.443 1.442-3.48-.594-1.95-1.952-.169-4.413-3.14-3.479-5.855-.763-3.564 3.564 3.564 10.182 3.224 2.885 11.964 9.588 7.637 5.94 11.625 9.928 4.243 4.243 3.903 7.976-.34 2.885-3.733 6.28-1.103 1.103-3.819 3.478-2.63 2.291-3.903 3.564-2.8 2.8-1.527 4.073l2.376.679q.254-1.273 1.527-2.546 3.14-3.14 5.26-1.018.68.679.17 2.376-.509 1.697-1.357 2.546zm-24.607 48.366q-2.207 2.206-2.885 3.564l-2.716 6.448-6.873-6.873q1.358-5.26 5.43-9.334l39.797-39.796q6.194-5.176 3.903-9.333 1.018-.17 5.43.34 4.498.423 5.431.848 1.018 3.903-2.29 8.57-1.359 1.867-5.77 6.279zm35.044 25.031q-3.734 3.734-7.976 4.073-1.782.255-10.268-1.273-8.315-1.527-9.079-2.29-.254-.255-.594-3.82-.34-3.563-2.715-5.939-1.782-1.782-1.952-1.782-.848-.509-2.036.68-1.103 1.102-2.546 1.017-.509-.509 2.121-3.14 2.63-2.63 6.958-1.357 3.65 1.103 6.619 4.073 2.546 2.546 3.14 6.364.593 3.818.339 3.564 2.29 2.29 7.467-2.885 1.697-1.697 2.715-5.77 1.188-4.073-.34-5.6-.593-.594-5.43-1.528-4.836-.933-5.94-2.036-2.63-2.63-1.442-6.704 1.018-3.394 3.818-6.194 4.158-4.158 11.37-3.394 6.28 1.188 12.474 2.291 2.291.085 5.26.51.255.084-.848 4.412-1.272 4.836.934 7.042.254.255 1.867.51 1.697.339 1.951.593.17.17-.764.764l-1.187.679q-1.358 1.358-4.752.509-3.225-.848-4.752-2.376-4.327-4.327-2.63-11.116-3.904-2.715-8.655 2.037-1.528 1.527-2.376 5.26-.849 3.734.509 5.092.933.933 5.6 1.527 4.667.594 6.194 2.122 2.716 2.715 1.188 7.297-1.272 3.818-4.242 6.788zm21.213 35.978q-2.121.424-5.855.254-3.055-.17-5.94-.34-2.545-2.545-.848-10.86-10.267.085-11.54-1.188-1.358-1.358 2.29-18.583l11.117.594q2.545-10.352 6.448-14.255 3.649-3.649 9.08-3.48 5.515.086 9.249 3.82 7.212 7.212 2.46 16.036-2.121 3.819-11.794 13.492-5.007 5.006-5.6 6.11-2.376 3.903 1.018 7.466zm5.855-30.293q8.146-8.146 2.63-13.661-2.206-2.206-5.26-1.697-2.97.594-5.262 2.885-2.12 2.121-3.988 7.552-.763 2.8-1.527 5.43 5.6.51 11.964.594.594-.254 1.443-1.103zm-15.783 16.462l11.795-11.795q-13.831-.933-14.001-.763-.594.593-1.443 6.363-.763 5.686-.424 6.025.51.51 4.073.17zm40.051 50.402q-6.789 6.789-14.935 7.467-6.618-.34-13.321-.763-7.383-.255-12.474 4.497-2.885 2.715-2.8 5.176-.085 1.951 2.037 4.752 1.103 1.442 2.375 1.697 1.273.254 2.461.763 1.188 0 3.734-2.036-1.019-2.885.678-4.582.68-.679 2.122-.255 1.188.17 1.697.68 2.206 2.205-1.188 5.6-3.224 3.224-7.552 3.478-4.327.255-7.212-3.309-5.686-6.703 1.612-14 4.412-4.413 10.012-5.261.255-.085 9.164-.34 4.837-.085 7.383-2.63.763-.764 1.442-1.782l2.885-2.885q2.885-2.885 3.394-6.958.51-4.073-2.376-6.958-1.612-1.612-3.648-1.782-2.037-.17-2.291-.424-.68-.68 0-1.358.34-.34 32.329-9.249l-14.85-14.85q-10.776 9.08-31.65 27.069-11.625 11.285-25.625 23.759l1.612-1.612q1.697-1.698 1.612-1.782-.764.254-4.582 3.394v-1.019q17.565-21.637 51.506-55.918.509-.678 4.242-12.388l3.734 3.564q10.182-11.2 13.152-13.662 1.952-.254 12.219-.17 11.116.086 12.134 1.104 1.442 1.442 2.63 8.06 1.103 6.195.594 8.571-9.079-.085-9.334-.34-.339-.339-1.357-6.448-.849-6.11-1.782-7.213-.255.085-1.952-.085t-1.951.085q-9.334 9.334-17.225 16.886l-.594.594q4.666 4.667 11.285 11.116 7.891 7.552 11.54 11.2l-33.177 9.419q2.63 1.273 2.885 1.527 3.903 3.904 3.648 9.758-.254 5.855-4.242 9.843z" />
   <path fill="none" stroke="#640000" stroke-width="2" d="M300 657.405s297.505-111.946 297.505-396.446V3.269H2.495v257.69C2.495 545.459 300 657.405 300 657.405z" />
</svg>