<svg xmlns="http://www.w3.org/2000/svg" width="350" height="800" version="1.0">
   <path d="M263.239 177.936c11.25-53.945 26.764-106.067 38.638-159.856l-15.657.252c-4.933 26.685-9.666 51.097-17.93 77.782l-96.35-.298c9.96 28.257 12.812 50.783 14.906 78.08 24.441-.868 49.947.898 76.393 4.04z" fill="#c13c1b" fill-rule="evenodd" stroke="#000" stroke-width=".25" />
   <path d="M212.479 91.568c-19.257-14.741-60.992-45.15-58.337-61.366 1.156-7.056 6.458-10.137 12.122-10.102 6.45.04 9.697 5.826 9.597 10.354-.128 5.765-5.29 9.436-10.102 9.092-5.512-.395-7.871-4.526-7.071-9.092.676-3.855 3.568-5.246 6.819-5.303 3.688-.065 6.172 2.946 6.06 5.808-.107 2.777-2.82 5.07-5.05 4.798-2.432-.296-4.154-1.697-4.04-4.04.112-2.34 1.696-3.178 3.03-3.03.888.098 1.854.311 2.02 1.767.133 1.17-.63 2.108-1.263 2.02" fill="none" stroke="#000" stroke-width="2.4" stroke-linecap="round" stroke-linejoin="round" />
   <path d="M212.479 91.568c-19.257-14.741-60.992-45.15-58.337-61.366 1.156-7.056 6.458-10.137 12.122-10.102 6.45.04 9.697 5.826 9.597 10.354-.128 5.765-5.29 9.436-10.102 9.092-5.512-.395-7.871-4.526-7.071-9.092.676-3.855 3.568-5.246 6.819-5.303 3.688-.065 6.172 2.946 6.06 5.808-.107 2.777-2.82 5.07-5.05 4.798-2.432-.296-4.154-1.697-4.04-4.04.112-2.34 1.696-3.178 3.03-3.03.888.098 1.854.311 2.02 1.767.133 1.17-.63 2.108-1.263 2.02" fill="none" stroke="#c13c1b" stroke-width="2" stroke-linecap="round" stroke-linejoin="round" />
   <path d="M189.458 174.274c-1.247-33.14 8.667-67.002 22.857-84.107 15.338-18.487 37.346-42.886 41.965-54.643-.111-4.107-1.273-8.75.357-12.857 7.037-12.116 24.368-3.575 22.5 7.143-1.523 5.496-5.248 9.23-9.107 12.857-.913 41.364 2.592 62.807-9.465 132.679" fill="#fff" fill-rule="evenodd" stroke="#000" stroke-width=".75" />
   <path d="M273.756 580.91l-.307 12.343c.092 17.746.562 36.573 4.168 49.573l19.3 143.75 11.117-1.235c-8.34-48.113-10.088-94.907-15.131-142.36-3.04-31.149-9.487-22.25-19.147-62.07z" fill="#fac53a" fill-rule="evenodd" stroke="#c13c1b" stroke-width=".432" />
   <path d="M305.016 303.875h-30.133m30.679 9.062l-30.243.437" fill="none" stroke="#000" stroke-width=".216" />
   <path d="M223.627 242.996l39.73.701c19.383 6.147 34.85 13.406 40.869 34.503 2.172 12.131.178 16.431.926 25.63l.618 9.574c1.33 20.65 1.876 41.458.309 62.688-1.256 18.425 2.698 38.086 3.088 56.512-.628 15.45-4.375 26.908-5.095 40.415l-19.3-1.506c-8.862-49.929-3.742-66.267-5.868-89.245-3.22-28.031-3.23-55.26-4.324-82.76-11.898 21.466-24.346 42.2-31.19 70.408l.001 4.67 6.485 29.916c3.48 4.882 13.453 27.039 6.212 39.67 8.264 48.38 12.168 97.852 11.699 146.232l.617 15.75c1.314 21.451 9.94 42.912 9.573 66.393-.365 23.48-4.595 46.46-7.72 68.864-1.184 25.837 2.385 30.425 1.491 39.848-.893 9.424-6.162 8.992-11.532 8.932-5.474-.062-10.785-.988-10.974-4.595-5.653-1.587-13.631 4.933-72.263 2.662-2.539-.344-2.727-4.075-2.96-6.724 2.614-.714 5.324-1.043 8.228-.596 19.497-9.53 38.655-13.62 58.673-31.498.948-.982 1.746-2.3 1.545-5.867-2.524-35.346-10.217-72.04-13.28-107.465l-.926-5.559c-2.707-6.918-5.104-15.692-8.337-19.455-1.312-7.205-1.855-14.41-6.485-21.616l-14.932-.31c-6.778 19.143-7.696 26.922-11.735 39.837-3.146 18.89-.326 26.913-4.832 41.998-4.543 15.21-14.255 34.954-21.925 49.718-4.702 12.668-11.177 26.046-13.33 37.751-.617 7.54.635 13.364-.258 22.787-.894 9.424-6.163 8.992-11.533 8.932-5.474-.062-10.785-.988-10.974-4.595-5.653-1.587-13.63 4.933-72.263 2.662-2.538-.344-2.727-4.075-2.96-6.724 2.614-.714 5.324-1.043 8.228-.596 19.498-9.53 43.905-14.856 63.898-32.733 1.929-2.157 2.543-4.532 3.28-6.888l22.633-109.224c.029-11.065-1.372-21.58 3.706-34.586l.309-8.647 18.673-170.841-2.075-7.225c-2.65-6.114-.76-12.588-.85-18.335-2.217-17.228-5.72-34.134-9.572-50.954-2.438-5.673-4.693-12.494-6.507-19.661-1.79-.695-2.317-2.681-1.083-4.556-1.216-5.467-2.154-11.034-2.705-16.362l-.822-.183-1.224 11.039c-.477 2.676-.395 5.311-.856 7.941-3.447 19.672-7.004 39.094-18.982 73.803l-3.978 8.723c-9.02 26.126-22.208 46.39-35.88 65.973l-17.033-12.27c9.843-24.334 16.773-49.597 31.63-72.329l2.653-6.442c1.046-18.874 3.392-45.47 8.431-66.333l1.972-15.64c-5.587-25.87 6.44-43.13 29.365-46.96l37.863-7.364" fill="#a13c2a" fill-rule="evenodd" stroke="#000" stroke-width=".432" stroke-linecap="round" stroke-linejoin="round" />
   <g fill-rule="evenodd" stroke="#000" stroke-linecap="round" stroke-linejoin="round">
      <path d="M-2306.297 184.523l126.243 8.061-.277 76.804-129.037-11.151 3.07-73.714z" fill="#fac53a" transform="matrix(.23889 -.01891 .0161 .22474 822.602 216.576)" />
      <path d="M-2306.69 192.987l126.446 10.278-.033 22.472-127.353-9.681.94-23.07zm-.92 31.366l127.059 11.038.146 24.403-128.228-10.692 1.023-24.749z" fill="#04a" transform="matrix(.23889 -.01891 .0161 .22474 822.602 216.576)" />
   </g>
   <path d="M276.367 591.212c-.447-2.634-1.628-5.47-2.009-8.515-4.272-34.2-4.916-92.64-15.083-137.46 2.938-8.146 1.788-17.4-.399-25.108-2.16-7.611-5.229-13.556-6.802-15.794-1.137-5.323-4.491-21.112-5.654-32.29a1.08 1.08 0 00-1.095-.986h0a1.08 1.08 0 00-1.053 1.21c1.195 11.483 4.617 27.496 5.728 32.695.033.149.098.29.19.412 1.148 1.568 4.46 7.78 6.606 15.34 2.145 7.56 3.183 16.555.35 24.096a1.08 1.08 0 00-.04.615c8.551 37.496 10.412 84.889 13.397 119.58.871 10.114 2.725 19.264 3.093 26.543" fill="#fac53a" fill-rule="evenodd" stroke="#000" stroke-width=".216" stroke-linecap="round" stroke-linejoin="round" />
   <path d="M150.54 589.88l16.832-171.093 88.382-.892c1.158 4.702 6.012 14.324.464 26.558 7.642 48.32 12.4 97.275 11.37 145.307l-117.048.12z" fill="#fff" fill-rule="evenodd" stroke="#000" stroke-width=".432" />
   <path d="M267.58 590.098c-90.46-15.206-106.955-83.4-100.208-171.311l82.405-14.566c7.818 13 12.343 30.673 6.468 40.177 7.66 48.435 12.394 97.556 11.335 145.7z" fill="#fac53a" fill-rule="evenodd" stroke="#000" stroke-width=".216" />
   <path d="M146.949 247.166l32.876-6.575 46.534-3.71 35.83 7.407c-6.734 33.984-29.78 46.135-56.48 46.728-25.29.558-37.1-5.936-45.358-14.705-7.848-8.336-12.017-21.412-13.402-29.145z" fill="#fff" fill-rule="evenodd" stroke="#000" stroke-linecap="round" stroke-linejoin="round" stroke-width=".272" />
   <path style="marker:none" d="M160.682 244.417c4.956 24.508 19.253 33.587 45.6 32.55 26.412-1.039 39.559-17.992 41.17-34.45-.009-.222-.016-.547.115-1.127" color="#000" fill="none" stroke="#04a" stroke-width="4.841" stroke-linejoin="round" overflow="visible" />
   <path style="marker:none" d="M173.219 242.07c4.82 18.648 15.355 22.691 32.552 22.025 16.068-.621 27.977-11.153 27.858-24.363-.042-.503.136-.834.101-1.134" color="#000" fill="none" stroke="#308d57" stroke-width="3.674" overflow="visible" />
   <path style="marker:none" d="M165.003 243.832c3.622 17.164 12.732 29.993 40.961 28.756 24.573-1.076 36.362-17.698 36.834-31.589-.016-.062-.017-.355.046-.648" color="#000" fill="none" stroke="#c13c1b" stroke-width="2.971" overflow="visible" />
   <path style="marker:none" d="M177.307 241.154c2.44 8.14 5.165 20.311 28.455 18.548 15.258-1.155 22.63-10.253 23.206-18.742.047-.965.04-3.107.157-3.389" color="#000" fill="none" stroke="#04a" stroke-width="4.357" overflow="visible" />
   <path style="marker:none" d="M169.009 242.795c4.876 23.183 22.08 26.472 37.215 25.573 20.56-1.228 31.623-13.958 32.192-27.435.018-.247.014-1.17.132-1.544" color="#000" fill="none" stroke="#04a" stroke-width="4.357" overflow="visible" />
   <path style="marker:none" d="M152.49 246.21c5.385 26.016 19.895 40.196 52.72 39.028l.386-.014h.011c43.57-1.705 49.082-34.323 50.663-41.917" color="#000" fill="none" stroke="#fac53a" stroke-width="10.867" overflow="visible" />
   <path d="M146.949 247.166l32.876-6.575 46.534-3.71 35.83 7.407c-6.734 33.984-29.78 46.135-56.48 46.728-25.29.558-37.1-5.936-45.358-14.705-7.848-8.336-12.017-21.412-13.402-29.145z" fill="none" stroke="#000" stroke-width=".543" stroke-linecap="round" stroke-linejoin="round" />
   <g fill="none" stroke="#c13c1b" stroke-width=".272">
      <path d="M218.423 286.286c-.63-1.925-.246-5.316.257-7.537 1.576 1.602 3.763 4.277 4.315 6.098 1.061 3.502-3.498 4.713-4.572 1.44z" />
      <path d="M219.014 286.053c-.468-1.426-.187-3.936.183-5.58 1.164 1.187 2.78 3.17 3.189 4.518.786 2.594-2.577 3.487-3.372 1.062z" />
      <path d="M219.007 285.982a2.675 2.675 0 011.465-1.153c.814-.25 1.365-.097 1.825.108m-3.449-1.534c.24-.302.77-.598 1.03-.674.282-.082.881-.06 1.157.016" style="marker:none" color="#000" stroke-linecap="round" stroke-linejoin="round" overflow="visible" />
   </g>
   <g fill="none" stroke="#c13c1b" stroke-width=".272">
      <path d="M212.712 287.154c-.442-1.978.27-5.315.986-7.477 1.412 1.747 3.33 4.621 3.703 6.487.717 3.588-3.938 4.353-4.69.99z" />
      <path d="M213.322 286.98c-.327-1.466.196-3.936.723-5.537 1.044 1.295 2.46 3.424 2.736 4.806.532 2.657-2.902 3.22-3.459.73z" />
      <path d="M213.322 286.907c.205-.28.736-.834 1.57-1.005.834-.17 1.368.036 1.806.284m-3.284-1.861c.268-.277.824-.52 1.09-.57.289-.055.883.025 1.15.128" style="marker:none" color="#000" stroke-linecap="round" stroke-linejoin="round" overflow="visible" />
   </g>
   <g fill="none" stroke="#c13c1b" stroke-width=".272">
      <path d="M224.248 284.719c-.819-1.854-.773-5.266-.492-7.526 1.726 1.437 4.168 3.882 4.898 5.64 1.404 3.378-3.012 5.036-4.406 1.886z" />
      <path d="M224.813 284.428c-.607-1.373-.577-3.898-.372-5.571 1.276 1.066 3.081 2.878 3.622 4.18 1.04 2.502-2.218 3.725-3.25 1.39z" />
      <path d="M224.798 284.357a2.675 2.675 0 011.344-1.292c.785-.33 1.349-.232 1.827-.074m-3.584-1.184c.209-.325.706-.67.957-.772.273-.11.871-.148 1.154-.1" style="marker:none" color="#000" stroke-linecap="round" stroke-linejoin="round" overflow="visible" />
   </g>
   <g fill="none" stroke="#c13c1b" stroke-width=".272">
      <path d="M201.254 287.675c-.037-2.026 1.328-5.153 2.463-7.127 1.034 1.994 2.338 5.194 2.33 7.097-.016 3.659-4.73 3.475-4.793.03z" />
      <path d="M201.887 287.626c-.027-1.5.98-3.816 1.817-5.279.763 1.477 1.724 3.847 1.718 5.257-.012 2.71-3.489 2.574-3.535.022z" />
      <path style="marker:none" d="M201.9 287.556c.258-.234.889-.67 1.74-.67.852 0 1.334.309 1.713.64m-2.844-2.482c.318-.218.91-.344 1.182-.34.293.004.86.201 1.101.356" color="#000" stroke-linecap="round" stroke-linejoin="round" overflow="visible" />
   </g>
   <g fill="none" stroke="#c13c1b" stroke-width=".272">
      <path d="M195.734 287.58c.043-2.027 1.53-5.098 2.742-7.026.955 2.033 2.131 5.282 2.048 7.183-.16 3.656-4.863 3.287-4.79-.158z" />
      <path d="M196.368 287.555c.032-1.5 1.13-3.775 2.024-5.203.704 1.506 1.571 3.911 1.51 5.32-.118 2.707-3.588 2.434-3.534-.117z" />
      <path d="M196.385 287.485a2.675 2.675 0 011.765-.6c.85.033 1.32.36 1.686.706M197.091 285c.327-.206.924-.308 1.195-.294.293.015.851.235 1.086.399" style="marker:none" color="#000" stroke-linecap="round" stroke-linejoin="round" overflow="visible" />
   </g>
   <g fill="none" stroke="#c13c1b" stroke-width=".272">
      <path d="M207.034 287.645c-.263-2.01.743-5.27 1.65-7.359 1.25 1.866 2.904 4.9 3.109 6.792.394 3.638-4.311 3.983-4.76.567z" />
      <path d="M207.657 287.525c-.194-1.488.547-3.902 1.215-5.449.924 1.382 2.144 3.63 2.296 5.031.292 2.694-3.18 2.948-3.51.418z" />
      <path d="M207.663 287.454c.23-.26.808-.766 1.654-.861.846-.095 1.36.158 1.773.444m-3.104-2.147c.292-.252.867-.444 1.137-.47.292-.03.877.103 1.134.23" style="marker:none" color="#000" stroke-linecap="round" stroke-linejoin="round" overflow="visible" />
   </g>
   <g fill="none" stroke="#c13c1b" stroke-width=".272">
      <path d="M158.04 267.612c1.672-1.144 5.034-1.724 7.308-1.862-1.097 1.96-3.053 4.809-4.647 5.848-3.064 2-5.504-2.038-2.661-3.986z" />
      <path d="M158.429 268.114c1.238-.847 3.727-1.28 5.408-1.385-.814 1.45-2.264 3.555-3.445 4.325-2.27 1.481-4.068-1.498-1.963-2.94z" />
      <path style="marker:none" d="M158.496 268.087a2.675 2.675 0 011.516 1.085c.468.71.475 1.283.408 1.782m.507-3.74c.357.145.789.571.935.8.158.247.304.829.308 1.115" color="#000" stroke-linecap="round" stroke-linejoin="round" overflow="visible" />
   </g>
   <g fill="none" stroke="#c13c1b" stroke-width=".272">
      <path d="M155.411 262.869c1.777-.975 5.18-1.222 7.456-1.137-1.284 1.844-3.51 4.487-5.198 5.365-3.246 1.689-5.277-2.57-2.258-4.228z" />
      <path d="M155.75 263.406c1.315-.722 3.834-.908 5.518-.848-.953 1.363-2.603 3.317-3.853 3.967-2.404 1.251-3.902-1.89-1.666-3.119z" />
      <path d="M155.818 263.386a2.675 2.675 0 011.403 1.228c.396.754.347 1.324.231 1.813m.872-3.672c.341.18.729.646.852.888.133.262.221.855.197 1.14" style="marker:none" color="#000" stroke-linecap="round" stroke-linejoin="round" overflow="visible" />
   </g>
   <g fill="none" stroke="#c13c1b" stroke-width=".272">
      <path d="M161.24 272.179c1.485-1.38 4.724-2.451 6.952-2.924-.795 2.101-2.307 5.207-3.73 6.472-2.734 2.43-5.744-1.202-3.222-3.548z" />
      <path d="M161.7 272.617c1.099-1.021 3.495-1.818 5.143-2.17-.59 1.553-1.713 3.851-2.767 4.787-2.025 1.8-4.245-.879-2.377-2.617z" />
      <path style="marker:none" d="M161.761 272.58a2.675 2.675 0 011.66.849c.57.634.66 1.199.668 1.702m-.052-3.774c.375.091.864.448 1.043.652.193.222.424.775.47 1.058" color="#000" stroke-linecap="round" stroke-linejoin="round" overflow="visible" />
   </g>
   <g fill="none" stroke="#c13c1b" stroke-width=".272">
      <path d="M151.549 252.573c1.945-.567 5.321-.07 7.524.508-1.653 1.521-4.4 3.618-6.238 4.109-3.535.944-4.594-3.653-1.286-4.617z" />
      <path d="M151.762 253.17c1.441-.419 3.94-.054 5.571.37-1.225 1.124-3.26 2.673-4.622 3.037-2.618.699-3.399-2.693-.949-3.406z" />
      <path d="M151.834 253.166c.292.187.88.681 1.103 1.503.223.822.051 1.368-.169 1.82m1.649-3.395c.294.25.57.789.638 1.051.073.285.031.883-.054 1.157" style="marker:none" color="#000" stroke-linecap="round" stroke-linejoin="round" overflow="visible" />
   </g>
   <g fill="none" stroke="#c13c1b" stroke-width=".272">
      <path d="M150.202 247.236c1.969-.482 5.32.161 7.496.834-1.718 1.448-4.552 3.424-6.41 3.834-3.573.79-4.432-3.848-1.086-4.668z" />
      <path d="M150.39 247.842c1.458-.356 3.939.116 5.55.611-1.274 1.07-3.374 2.53-4.75 2.833-2.646.585-3.279-2.837-.8-3.444z" />
      <path style="marker:none" d="M150.462 247.84c.284.2.849.72 1.036 1.55.188.83-.008 1.369-.247 1.812m1.794-3.321c.283.262.537.813.593 1.078.06.287-.008.883-.105 1.153" color="#000" stroke-linecap="round" stroke-linejoin="round" overflow="visible" />
   </g>
   <g fill="none" stroke="#c13c1b" stroke-width=".272">
      <path d="M153.222 257.885c1.883-.749 5.29-.576 7.538-.21-1.5 1.671-4.034 4.02-5.818 4.684-3.43 1.276-4.921-3.2-1.72-4.474z" />
      <path d="M153.491 258.46c1.395-.555 3.917-.43 5.581-.163-1.113 1.235-2.99 2.971-4.312 3.463-2.54.945-3.64-2.356-1.269-3.3z" />
      <path d="M153.562 258.448c.31.159.94.595 1.241 1.391.3.797.182 1.357.006 1.829m1.318-3.538c.316.222.643.732.735.986.1.277.115.876.056 1.157" style="marker:none" color="#000" stroke-linecap="round" stroke-linejoin="round" overflow="visible" />
   </g>
   <g fill="none" stroke="#c13c1b" stroke-width=".272">
      <path d="M169.49 279.667c1.03-1.746 3.83-3.695 5.83-4.783-.162 2.24-.727 5.649-1.731 7.266-1.93 3.109-5.85.485-4.1-2.483z" />
      <path d="M170.055 279.956c.763-1.292 2.833-2.738 4.312-3.546-.123 1.658-.545 4.18-1.288 5.378-1.429 2.303-4.32.366-3.024-1.832z" />
      <path style="marker:none" d="M170.104 279.904a2.675 2.675 0 011.833.34c.725.445.974.96 1.124 1.441m-1.125-3.603c.386-.019.957.184 1.186.329.248.157.627.622.752.88" color="#000" stroke-linecap="round" stroke-linejoin="round" overflow="visible" />
   </g>
   <g fill="none" stroke="#c13c1b" stroke-width=".272">
      <path d="M165.072 276.193c1.3-1.554 4.38-3.023 6.53-3.771-.525 2.184-1.636 5.455-2.89 6.888-2.408 2.754-5.85-.472-3.64-3.117z" />
      <path d="M165.582 276.571c.963-1.151 3.24-2.242 4.831-2.798-.39 1.616-1.217 4.036-2.145 5.097-1.784 2.04-4.322-.34-2.686-2.299z" />
      <path d="M165.639 276.527a2.675 2.675 0 011.753.633c.644.558.805 1.107.875 1.605m-.524-3.737c.384.043.914.336 1.117.517.219.195.517.715.599.99" style="marker:none" color="#000" stroke-linecap="round" stroke-linejoin="round" overflow="visible" />
   </g>
   <g fill="none" stroke="#c13c1b" stroke-width=".272">
      <path d="M174.355 282.39c.834-1.846 3.407-4.087 5.278-5.386.08 2.245-.112 5.695-.934 7.411-1.581 3.3-5.763 1.116-4.344-2.024z" />
      <path d="M174.948 282.617c.618-1.367 2.52-3.03 3.903-3.992.057 1.661-.09 4.215-.699 5.486-1.17 2.444-4.255.832-3.204-1.494z" />
      <path style="marker:none" d="M174.99 282.56c.333-.101 1.09-.226 1.86.139s1.072.85 1.273 1.311m-1.508-3.46c.381-.06.971.08 1.214.199.264.13.691.55.843.793" color="#000" stroke-linecap="round" stroke-linejoin="round" overflow="visible" />
   </g>
   <g fill="none" stroke="#c13c1b" stroke-width=".272">
      <path d="M184.858 286.055c.386-1.99 2.372-4.765 3.893-6.46.597 2.166 1.206 5.567.802 7.427-.777 3.575-5.35 2.415-4.695-.967z" />
      <path d="M185.488 286.138c.286-1.473 1.752-3.529 2.876-4.785.439 1.603.886 4.121.587 5.499-.576 2.648-3.949 1.792-3.463-.714z" />
      <path d="M185.516 286.072c.3-.174 1.008-.47 1.841-.293s1.24.58 1.542.982m-2.266-3.019c.357-.147.963-.147 1.227-.087.287.065.8.376 1.004.577" style="marker:none" color="#000" stroke-linecap="round" stroke-linejoin="round" overflow="visible" />
   </g>
   <g fill="none" stroke="#c13c1b" stroke-width=".272">
      <path d="M179.552 284.541c.579-1.942 2.826-4.51 4.505-6.047.382 2.213.656 5.658.072 7.469-1.123 3.482-5.56 1.88-4.577-1.422z" />
      <path d="M180.17 284.686c.429-1.438 2.09-3.341 3.33-4.481.28 1.638.479 4.188.046 5.53-.831 2.579-4.104 1.397-3.376-1.049z" />
      <path style="marker:none" d="M180.205 284.623a2.675 2.675 0 011.86-.112c.812.258 1.178.698 1.44 1.128m-1.961-3.225c.37-.112.973-.053 1.23.033.279.092.758.452.942.672" color="#000" stroke-linecap="round" stroke-linejoin="round" overflow="visible" />
   </g>
   <g fill="none" stroke="#c13c1b" stroke-width=".272">
      <path d="M190.187 287.041c.173-2.02 1.852-4.99 3.184-6.836.824 2.09 1.79 5.407 1.586 7.299-.392 3.638-5.062 2.97-4.77-.463z" />
      <path d="M190.822 287.057c.128-1.495 1.368-3.695 2.35-5.064.608 1.548 1.32 4.004 1.169 5.406-.29 2.694-3.736 2.2-3.52-.342z" />
      <path d="M190.843 286.989c.28-.206.952-.576 1.8-.488.847.088 1.294.445 1.637.813m-2.574-2.761c.34-.184.942-.249 1.211-.217.292.034.835.29 1.06.468" style="marker:none" color="#000" stroke-linecap="round" stroke-linejoin="round" overflow="visible" />
   </g>
   <g fill="none" stroke="#c13c1b" stroke-width=".272">
      <path d="M234.914 280.145c-1.192-1.64-1.868-4.983-2.07-7.252 1.99 1.04 4.894 2.914 5.979 4.477 2.086 3.006-1.88 5.56-3.909 2.775z" />
      <path d="M235.405 279.741c-.883-1.213-1.387-3.688-1.54-5.366 1.472.772 3.62 2.161 4.423 3.32 1.545 2.226-1.381 4.11-2.883 2.046z" />
      <path style="marker:none" d="M235.376 279.675a2.675 2.675 0 011.04-1.546c.698-.489 1.27-.512 1.77-.46m-3.753-.399c.136-.361.549-.805.773-.957.243-.166.82-.328 1.106-.34" color="#000" stroke-linecap="round" stroke-linejoin="round" overflow="visible" />
   </g>
   <g fill="none" stroke="#c13c1b" stroke-width=".272">
      <path d="M229.83 282.763c-1.045-1.736-1.43-5.126-1.435-7.404 1.894 1.209 4.624 3.326 5.569 4.978 1.818 3.175-2.354 5.376-4.134 2.426z" />
      <path d="M230.354 282.403c-.775-1.285-1.063-3.794-1.07-5.48 1.4.897 3.419 2.467 4.119 3.69 1.347 2.353-1.732 3.976-3.05 1.79z" />
      <path d="M230.33 282.335a2.675 2.675 0 011.171-1.45c.737-.427 1.31-.4 1.803-.305m-3.704-.723c.166-.348.616-.754.852-.887.257-.143.846-.256 1.132-.243" style="marker:none" color="#000" stroke-linecap="round" stroke-linejoin="round" overflow="visible" />
   </g>
   <g fill="none" stroke="#c13c1b" stroke-width=".272">
      <path d="M239.77 276.954c-1.425-1.441-2.596-4.646-3.138-6.858 2.125.73 5.276 2.144 6.584 3.527 2.515 2.658-1.023 5.78-3.446 3.33z" />
      <path d="M240.194 276.481c-1.055-1.067-1.926-3.438-2.33-5.074 1.572.542 3.904 1.593 4.872 2.617 1.862 1.97-.747 4.271-2.542 2.457z" />
      <path d="M240.156 276.42c.024-.346.18-1.097.795-1.685.616-.588 1.178-.697 1.681-.72m-3.77.169c.08-.377.42-.878.62-1.062.215-.2.76-.448 1.042-.503" style="marker:none" color="#000" stroke-linecap="round" stroke-linejoin="round" overflow="visible" />
   </g>
   <g fill="none" stroke="#c13c1b" stroke-width=".272">
      <path d="M248.125 268.884c-1.764-.997-3.765-3.76-4.89-5.741 2.243.121 5.662.623 7.297 1.597 3.144 1.871.592 5.84-2.407 4.144z" />
      <path d="M248.404 268.314c-1.306-.739-2.79-2.782-3.625-4.246 1.66.093 4.19.468 5.4 1.189 2.33 1.386.447 4.312-1.775 3.057z" />
      <path style="marker:none" d="M248.35 268.266a2.675 2.675 0 01.306-1.839c.433-.734.943-.992 1.42-1.15m-3.581 1.19c-.026-.385.166-.96.307-1.19.153-.252.61-.64.866-.77" color="#000" stroke-linecap="round" stroke-linejoin="round" overflow="visible" />
   </g>
   <g fill="none" stroke="#c13c1b" stroke-width=".272">
      <path d="M244.212 273.218c-1.599-1.244-3.175-4.27-3.998-6.394 2.202.448 5.51 1.444 6.985 2.646 2.837 2.31-.267 5.863-2.987 3.748z" />
      <path d="M244.572 272.695c-1.185-.922-2.354-3.16-2.966-4.73 1.629.334 4.076 1.075 5.17 1.965 2.1 1.711-.19 4.331-2.204 2.765z" />
      <path d="M244.526 272.64a2.675 2.675 0 01.571-1.775c.535-.663 1.078-.843 1.574-.93m-3.717.654c.03-.384.304-.925.477-1.134.188-.226.697-.542.97-.633" style="marker:none" color="#000" stroke-linecap="round" stroke-linejoin="round" overflow="visible" />
   </g>
   <g fill="none" stroke="#c13c1b" stroke-width=".272">
      <path d="M251.224 264.192c-1.806-.92-3.926-3.593-5.136-5.523 2.246.024 5.683.376 7.36 1.278 3.222 1.732.846 5.807-2.224 4.245z" />
      <path d="M251.478 263.61c-1.338-.68-2.91-2.658-3.807-4.084 1.662.02 4.206.285 5.447.952 2.387 1.284.634 4.29-1.64 3.132z" />
      <path style="marker:none" d="M251.422 263.565a2.675 2.675 0 01.225-1.85c.4-.753.9-1.033 1.37-1.212m-3.527 1.345c-.043-.383.124-.965.255-1.203.141-.257.582-.664.831-.805" color="#000" stroke-linecap="round" stroke-linejoin="round" overflow="visible" />
   </g>
   <g fill="none" stroke="#c13c1b" stroke-width=".272">
      <path d="M255.82 254.21c-1.938-.589-4.494-2.85-6.023-4.537 2.216-.37 5.661-.626 7.47-.032 3.476 1.141 1.85 5.57-1.446 4.57z" />
      <path d="M255.969 253.593c-1.436-.436-3.33-2.107-4.464-3.354 1.64-.271 4.191-.456 5.53-.017 2.575.845 1.376 4.112-1.066 3.371z" />
      <path d="M255.906 253.558a2.675 2.675 0 01-.102-1.862c.262-.81.704-1.173 1.135-1.432m-3.235 1.943c-.11-.37-.048-.973.04-1.23.093-.278.456-.756.677-.938" style="marker:none" color="#000" stroke-linecap="round" stroke-linejoin="round" overflow="visible" />
   </g>
   <g fill="none" stroke="#c13c1b" stroke-width=".272">
      <path d="M253.902 259.254c-1.885-.742-4.252-3.2-5.641-5.004 2.238-.192 5.693-.172 7.448.565 3.374 1.415 1.4 5.7-1.807 4.44z" />
      <path d="M254.1 258.65c-1.397-.55-3.151-2.366-4.182-3.7 1.657-.139 4.214-.12 5.514.426 2.499 1.048 1.042 4.208-1.333 3.275z" />
      <path style="marker:none" d="M254.04 258.61a2.675 2.675 0 01.046-1.863c.326-.787.796-1.114 1.247-1.338m-3.381 1.678c-.08-.377.03-.973.138-1.222.116-.27.516-.717.75-.881" color="#000" stroke-linecap="round" stroke-linejoin="round" overflow="visible" />
   </g>
   <g fill="none" stroke="#c13c1b" stroke-width=".272">
      <path d="M257.554 248.961c-1.99-.377-4.775-2.35-6.477-3.863 2.164-.607 5.562-1.231 7.423-.836 3.58.761 2.44 5.339-.946 4.7z" />
      <path d="M257.635 248.331c-1.475-.28-3.537-1.736-4.798-2.854 1.601-.446 4.117-.905 5.496-.612 2.65.563 1.81 3.94-.698 3.466z" />
      <path d="M257.57 248.303a2.675 2.675 0 01-.303-1.84c.173-.833.574-1.242.975-1.546m-3.008 2.279c-.149-.355-.152-.961-.093-1.226.064-.287.373-.8.573-1.006" style="marker:none" color="#000" stroke-linecap="round" stroke-linejoin="round" overflow="visible" />
   </g>
   <path d="M164.765 205.02c6.137 17.966 12.695 30.807 21.366 45.745 3.909 2.405 8.221 2.748 13 3.065l37.705-31.242-20.807-49.288-26.435 1.535-18.76 8.186-4.967 3.929-2.196 6.133-6.608 9.214.715.593c1.453 2.228 4.313 2.373 6.987 2.13z" fill="#fff" fill-rule="evenodd" stroke="#000" stroke-width=".387" stroke-linecap="round" stroke-linejoin="round" />
   <path d="M177.664 180.595l2.686 2.167 38.936 16.202 2.059-9.182c-15.948-19.478-33.984-13.089-43.681-9.187z" fill="#c13c1b" fill-rule="evenodd" />
   <path d="M178.012 245.472l5.788 4.842c4.753 3.448 12.773 6.848 20.676 4.948l-6.154-15.208 1.053-.677c-1.495-.4-4.915.356-6.251 1.758-2.944-.116-5.055.032-7.563 1.843-2.475-.763-6.91 1.07-7.55 2.494z" fill="#a13c2a" fill-rule="evenodd" stroke="#000" stroke-width=".216" />
   <path d="M226.648 237.899l39.925 7.195c45.256 13.667 38.112 43.494 38.562 55.35l.393 7.642 8.647-.174-.196-36.393-.237-2.146c-4.126-21.7-8.519-46.448-22.453-64.389-11.883-15.3-23.004-28.054-45.72-34.58-11.133-3.199-16.03-3.012-24.191-3.863-11.164.237-32.984 4-52.035 16.048-2.068 1.308-2.307 6.031 1.82 3.293 23.825-16.949 47.426-6.83 51.625 12.574 2.797 12.923-3.255 26.347-28.752 28.867-1.575.218-1.86.808-.607 2.773 7.332 9.318 8.831 28.536 9.385 41.074.493 21.766.639 35.6.639 35.6h25.544c.16-11.815.058-20.042.083-34.683-.885-12.037-.674-24.858-2.432-34.188z" fill="#025" fill-rule="evenodd" stroke="#000" stroke-width=".23" stroke-linecap="round" stroke-linejoin="round" />
   <path style="marker:none" d="M157.06 208.122c.04.299-.265.293-.337.154-2.609-6.733 2.157-13.267 6.619-17.344.618.046 2.906.367 3.3 1.082 2.244 6.298 7.74 7.46 10.366 8.233 1.426.72 1.499 3.204-.221 3.537-3.022-1.6-8.2-4.248-13.415-1.055-6.053-4.502-7.516 3.062-6.312 5.393z" color="#000" fill="#04a" fill-rule="evenodd" stroke="#000" stroke-width=".214" stroke-linecap="round" stroke-linejoin="round" overflow="visible" />
   <path style="marker:none" d="M157.86 203.043c1.157 2.15 5.718 2.616 8.19 1.603" color="#000" fill="none" stroke="#000" stroke-width=".214" stroke-linecap="round" stroke-linejoin="round" overflow="visible" />
   <path d="M172.12 194.93c.864-9.197 6.794-11.285 9.484-11.904 6.784-1.42 11.867.339 14.892 5.945-2.743 4.02-4.539 9.285-10.97 10.847-3.919-.248-8.182-.565-12.581-2.574" fill="#f5ca44" fill-rule="evenodd" />
   <path style="marker:none" d="M172.963 194.854c-.142.59-.73.411-.858.061-.605-4.51 2.902-13.533 13.115-13.911 3.216.028 9.311 2.333 12.318 5.025-1.74-3.76-8.306-5.825-9.004-6.852 2.638.082 8.664 2.763 12.244 5.484 1.495 1.135 1.534 1.11 1.308.309-1.042-2.589-4.18-5.024-7.158-6.969 2.993.239 8.853 4.617 12.629 8.617-.35-2.033-3.488-4.902-5.3-7.373 2.697.975 7.368 5.911 10.06 10.316-.238-2.27-1.851-5.055-2.777-7.583 1.81 1.854 4.022 6.185 5.671 10.651.27-1.763-.859-5.157-1.476-7.955 1.84 3.154 3.596 6.955 4.04 11.733.574-2.706-.143-4.876-.476-7.204 1.898 3.123 2.382 6.348 1.995 9.635-1.9 16.623-14.557 21.843-29.907 24.207-.959.05-1.494-.697-.858-.858 26.456-4.51 27.475-22.567 19.974-25.666-2.264-.935-7.056-1.953-11.646-.401-2.86.967-6.257 2.373-8.161 6.58-1.616 3.568-1.558 6.169-1.644 8.272-.126 3.049.527 5.735-1.209 10.847-.822 2.422-3.935 1.964-4.177.245-.806-5.7-.454-12.057-3.003-15.075-.678-.803-.555-1.769.245-2.942.63-.925 1.42-2.789.245-4.124-.928-1.055-2.41-1.473-4.29-1.76-3.263-.496-1.965-2.627.49-2.206 3.453 2.357 7.651 2.64 10.56 1.861 5.608-1.5 7.558-6.694 6.568-10.364-.705-2.612-3.404-4.421-7.69-4.359-3.036-.075-5.485 1.151-7.231 2.628-2.9 2.451-4.368 6.418-4.597 9.131z" color="#000" fill="#025" fill-rule="evenodd" stroke="#000" stroke-width=".129" stroke-linecap="round" stroke-linejoin="round" overflow="visible" />
   <path style="marker:none" d="M177.1 191.992c.339-4.084 2.126-6.387 4.68-7.366 4.56-1.749 7.164 1.099 8.147 3.77 1.293 3.51-1.491 6.267-3.943 6.933-3.71 1.009-6.928.064-8.364-1.907" color="#000" fill="#fac53a" fill-rule="evenodd" stroke="#000" stroke-width=".214" stroke-linecap="round" stroke-linejoin="round" overflow="visible" />
   <path style="marker:none" d="M176.71 193.336c.054-.805 1.067-1.125 1.087-1.351.339-3.682 1.931-5.717 4.33-6.666 3.067-1.214 5.453-.047 6.804 3.077 1.077 2.492-.227 5.03-3.294 6.11-2.884 1.015-5.264-.058-7.573-1.72-.105-.076-.513.584-1.354.55zm-2.46 35.359c-16.577 11.497-14.534 25.014-16 38.36-.045.41-.09 40.252-.137 40.661l24.293-.368-.016-40.293c-.024-6.573 2.203-10.88 4.428-14.64l-12.567-23.72z" color="#000" fill="#025" fill-rule="evenodd" stroke="#000" stroke-width=".214" stroke-linecap="round" stroke-linejoin="round" overflow="visible" />
   <path d="M273.805 579.819l-1.202.32.74 12.023c.093 17.745.563 36.572 4.168 49.573l5.23-8.443 10.056 8.597c-3.039-31.149-9.332-22.25-18.992-62.07z" fill="#04a" fill-rule="evenodd" stroke="#000" stroke-width=".432" />
   <path d="M278.867 649.142l5.852-8.287 7.865 6.627" fill="none" stroke="#c13c1b" stroke-width=".432" stroke-linecap="round" stroke-linejoin="round" />
   <path d="M279.834 656.337l5.723-8.032 7.637 6.376m-12.284 9.196l5.476-7.764 7.417 6.203m-11.79 9.6l5.411-7.637 7.149 5.956m-11.593 9.095l5.264-7.54 7.105 5.922m-11.289 9.415l5.023-7.232 6.894 5.828m-10.726 9.076l4.888-7.017 6.719 5.689m-10.61 8.659l4.72-6.759 6.455 5.482m-10.256 8.18l4.621-6.587 6.235 5.308m-10.139 8.613l4.803-6.42 6.04 5.014m-9.955 8.67l4.893-6.224 5.835 4.958m-9.785 8.662l4.57-5.734 6.158 4.535m-9.706 8.471l4.596-5.635 5.744 4.136m-7.706 20.373l4.43-5.172 5.418 3.503m-10.722-4.181l4.364-5.557 5.668 3.904m-10.817-4.979l4.44-5.17 5.554 3.734m-7.45 20.483l4.472-5.273 5.312 3.974m-8.909 7.463l4.199-5.018 5.495 3.504m-8.178 13.742l4.43-5.018 5.727 3.504m-10.8-4.7l4.155-4.752 5.619 3.595m-8.798 9.621l10.15-1.534" fill="none" stroke="#c13c1b" stroke-width=".432" stroke-linecap="round" stroke-linejoin="round" />
   <g fill-rule="evenodd" stroke="#000" stroke-linecap="round" stroke-linejoin="round" stroke-width=".214">
      <path d="M288.588 575.341c2.696-.88 4.905-.544 7.032 0l-1.24-33.732 16.063 1.073c-.491-2.416-.658-4.832 0-7.248l-16.063 1.127h0c3.364-6.014 8.081-11.346 9.778-20.14 3.428-17.77-5.634-17.024-11.92-17.081-6.844-.062-16.947 1.008-12.744 17.839 1.933 7.742 6.647 13.83 10.45 19.382h0l-18.053-1.127c.606 2.416.548 4.832 0 7.248l18.052-1.073h0l-1.355 33.732z" fill="#025" />
      <path d="M289.943 531.594c-3.47-4.71-6.798-9.313-7.636-15.389-1.695-12.282 4.682-13.654 9.841-13.685 4.587-.027 11.367.623 8.332 13.577-1.424 6.078-3.639 11.545-6.1 15.497-1.541 2.086-3.196 1.745-4.437 0z" fill="#fff" />
   </g>
   <path d="M304.002 479.081l-19.85-.54c-.994 4.965-3.447 10.223-5.842 15.469-3.166 5.025-3.372 11.438-2.488 17.524l-.324 5.733c8.915 1.067.301-10.832 5.95-15.253l.865 8.222c1.616 1.538 3.21 2.756 4.543.324 1.586 1.777 3.173 1.649 4.76-.324 1.94 2.508 3.523.742 5.192 0 1.778 1.39 3.661 1.885 4.868-1.298.35-8.684 2.948-17.117 2.326-29.857z" fill="#a13c2a" fill-rule="evenodd" stroke="#000" stroke-width=".432" stroke-linecap="round" stroke-linejoin="round" />
   <g fill-rule="evenodd" stroke="#000" stroke-linecap="round" stroke-linejoin="round" stroke-width=".214">
      <path d="M283.981 467.345l20.824.162-.866 13.143-19.85-.757-.108-12.548z" fill="#fac53a" />
      <path d="M283.981 469.238l20.661.27-.212 4.061-20.395-.32-.054-4.011z" fill="#04a" />
      <path d="M283.763 467.29l20.878.217-.592 13.089-20.233-.703-.053-12.603z" fill="#fac53a" />
      <path d="M283.788 469.238l20.854.27-.25 4.061-20.55-.32-.054-4.011zm.039 5.239l20.491.31-.213 4.06-20.224-.36-.054-4.01z" fill="#04a" />
   </g>
   <path d="M151.83-196.826h25.973v12.197H151.83v-12.197z" fill="#fac53a" fill-rule="evenodd" stroke="#000" stroke-width=".224" transform="matrix(.93386 0 0 .96682 16.352 486.22)" />
   <path d="M153.196-195.633l22.881.104m-22.891 1.715l22.881.104m-22.887 1.87l22.882.105m-22.812 1.955l22.881.103m-22.731 2.029l22.877-.055m-22.96 1.955l22.95-.216" fill="none" stroke="#c13c1b" stroke-width=".665" stroke-linecap="round" stroke-linejoin="round" transform="matrix(.93386 0 0 .96682 16.352 486.22)" />
   <path d="M72.497 455.226c-10.26 1.61-22.705 5.432-31.006 18.986l-5.114 3.167c2.705 5.952 8.038 2.536 9.736-.572-1.007 2.748-.476 4.505 2.77 4.51-.688 2.564.217 4.048 3.228 4.104-1.604 2.526.297 4.752 3.075 4.24-.977 3.233.756 4.605 2.473 4.637 4.58 1.97 25.028-23.414 27.065-25.628" fill="#a13c2a" fill-rule="evenodd" stroke="#000" stroke-width=".432" stroke-linecap="round" stroke-linejoin="round" />
   <path d="M46.098 263.502c.717-7.123-.404-13.377 2.521-22.038 3.57-10.57 7.136-12.402 11.293-17.956 1.575-1.287 4.167.058 3.317 2.505-4.822 4.49-8.263 10.622-9.669 14.122 1.447-.163 8.412-.698 8.568 6.52l-.024 492.832c7.755 8.9 1.09 15.739 1.506 23.47-.793.383-1.422.138-1.502-.535-1.038-8.461 1.847-12.15-.052-16.55-.908-2.103-2.607-2.005-3.598-.215-2.133 3.858.856 6.23.076 16.682-.057.761-.989.98-1.369.524-.485-7.767-5.855-14.314 1.253-23.384l-.009-492.235c-.4-4.027-4.756-4.459-6.92.091-2.536 5.334-1.461 10.863-2.14 16.293-1.127 3.497-3.442 2.15-3.25-.126z" fill="#025" fill-rule="evenodd" stroke="#000" stroke-width=".214" stroke-linecap="round" stroke-linejoin="round" />
   <g fill-rule="evenodd" stroke="#000" stroke-linecap="round" stroke-linejoin="round" stroke-width=".286">
      <path d="M72.864 442.053l21.398 12.625-9.246 13.955-17.57-12.764 5.418-13.816z" fill="#fac53a" />
      <path d="M72.176 443.794l20.882 13.027-2.71 3.973-19.673-13.039 1.501-3.961zm-2.333 6.101l18.927 13.078-2.929 4.355-17.718-13.09 1.72-4.343z" fill="#04a" />
   </g>
   <path d="M59.03 466.037c3.667-2.82 8.044-2.395 4.593 1.786 2.973-2.831 9.083-2.347 3.017 3.458 5.533-3.328 5.841 1.142 3.005 3.662 3.732-2.291 4.733 1.308.93 4.97-3.792 4.721-8.236 9.547-12.523 14.238a.396.396 0 01-.356.12c-1.717-.032-3.424-1.24-2.446-4.473-2.779.512-4.68-1.714-3.076-4.24-3.011-.056-3.915-1.54-3.228-4.103-3.246-.006-4.095-1.275-3.088-4.023.133-.23.263-.408.391-.542 4.58-4.955 8.792-8.515 12.665-10.784m.833-.509c-.292 1.228.936 2.9 3.009 2.932m.84-.53c-.83 1.44 1.604 3.407 2.925 3.33m.34-.199c-1.223 1.513.571 4.713 3.195 3.371m-.457.506c-.707 1.605.586 3.26 2.027 3.608m-19.438 6.94c.534-.377 14.484-14.255 14.484-14.255m-17.591 10.073c.763-.773 14.598-13.572 14.598-13.572m-8.365 21.97l14.433-14.907" fill="#a13c2a" fill-rule="evenodd" stroke="#000" stroke-width=".432" stroke-linecap="round" stroke-linejoin="round" />
   <path d="M63.597 467.998c-.243.168-.283.502-.841.531-2.527.006-3.126-2.49-3.03-2.938 3.465-2.254 7.165-1.603 3.937 2.307 2.974-2.831 9.043-2.422 2.977 3.383 5.533-3.328 5.911 1.028 3.075 3.548 3.317-2.036 4.407.694 1.932 3.829-1.462-.39-2.755-2.046-1.911-3.81-2.487 1.183-4.098-2.205-3.045-3.618-1.491.176-3.926-1.79-3.094-3.232z" fill="#fff" fill-rule="evenodd" stroke="#000" stroke-width=".432" stroke-linecap="round" stroke-linejoin="round" />
   <path d="M64.464 464.585c-2.427-.893-5.609.893-12.635 6.77l-1.296-7.425c7.361-5.005 10.655-6.424 17.04-7.776" fill="#a13c2a" fill-rule="evenodd" />
   <path d="M51.829 471.356c7.026-5.878 10.31-7.674 12.736-6.78m2.94-8.378c-6.385 1.35-9.749 2.625-17.09 7.846" fill="none" stroke="#000" stroke-width=".432" />
   <path d="M4025.317 656.303l33.517-.045-.218 55.187-31.768.818-1.531-55.96z" fill="#fac53a" fill-rule="evenodd" stroke="#000" transform="matrix(.2675 0 0 .21617 -771.66 154.1)" />
   <path d="M4026.335 661.639l27.84.463m-27.47 7.954l26.968.182m-26.855 8.367l26.602.463m-26.013 8.744l26.667.463m-26.107 8.569l26.528.26m-26.374 7.732l26.545-.079" fill="none" stroke="#c13c1b" stroke-width="2.972" stroke-linecap="round" stroke-linejoin="round" transform="matrix(.2675 0 0 .21617 -771.66 154.1)" />
   <path d="M4025.205 656.13l1.555 54.548" fill="none" stroke="#000" transform="matrix(.2675 0 0 .21617 -771.66 154.1)" />
   <g fill-rule="evenodd" stroke="#000" stroke-linecap="round" stroke-linejoin="round">
      <path d="M-2298.264 185.199l129.779 8.359-8.488 77.742-132.395-13.063 11.104-73.038z" fill="#fac53a" transform="matrix(.26144 -.00426 .00494 .22537 711.683 249.243)" />
      <path d="M-2299.299 193.609l129.66 10.549-2.604 22.255-130.567-9.952 3.511-22.852zm-4.777 31.041L-2173.32 236l-2.746 24.159-131.762-10.989 3.753-24.52z" fill="#04a" transform="matrix(.26144 -.00426 .00494 .22537 711.683 249.243)" />
   </g>
   <g fill-rule="evenodd" stroke="#000" stroke-linecap="round" stroke-linejoin="round">
      <path d="M-2301.611 184.81l110.51 7.598-12.757 77.185-100.902-10.518 3.149-74.266z" fill="#fac53a" transform="matrix(.25786 .0433 -.03608 .22252 727.736 783.182)" />
      <path d="M-2302.218 193.931l109.506 8.31-3.595 21.223-106.536-7.241.625-22.292zm-1.033 30.559l104.788 11.037-4.15 23.206-101.819-9.488 1.18-24.755z" fill="#04a" transform="matrix(.25786 .0433 -.03608 .22252 727.736 783.182)" />
   </g>
   <g fill-rule="evenodd" stroke="#000" stroke-linecap="round" stroke-linejoin="round">
      <path d="M-2305.348 184.73l117.692 7.561-12.03 77.508-107.182-11.397 1.52-73.671z" fill="#fac53a" transform="matrix(.26105 -.01487 .01408 .22499 840.474 654.842)" />
      <path d="M-2305.446 193.202l116.011 9.648-3.645 22.187-112.856-8.782.49-23.053zm-.818 31.304l112.106 10.117-3.892 24.083-108.633-9.46.42-24.74z" fill="#04a" transform="matrix(.26105 -.01487 .01408 .22499 840.474 654.842)" />
   </g>
   <path d="M267.58 590.098c-90.46-15.206-106.955-83.4-100.208-171.311l82.405-14.566c7.818 13 12.425 30.563 6.55 40.068 7.66 48.434 12.312 97.665 11.253 145.809z" fill="#fac53a" fill-rule="evenodd" stroke="#000" stroke-width=".216" />
   <path d="M249.513 404.076l-6.27-29.79-75.806 36.69-.231 7.611 82.307-14.511z" fill="#fac53a" fill-rule="evenodd" stroke="#000" stroke-linecap="round" stroke-linejoin="round" stroke-width=".216" />
   <path d="M216.826 392.981l6.635-2.759 1.657 4.097-6.732 2.396-1.56-3.734z" fill="#04a" fill-rule="evenodd" stroke="#04a" stroke-width=".25" />
   <path d="M226.113 389.12l6.034-2.532 1.939 4.724-6.181 2.108-1.792-4.3z" fill="#c13c1b" fill-rule="evenodd" stroke="#c13c1b" stroke-width=".25" />
   <path d="M234.847 385.645l6.879-2.9 2.081 5.018-7.132 2.488-1.828-4.606z" fill="#04a" fill-rule="evenodd" stroke="#04a" stroke-width=".25" />
   <path d="M243.24 374.177l.74 3.653-73.133 32.071-3.25.909 75.644-36.633z" fill="#fff" fill-rule="evenodd" stroke="#000" stroke-linecap="round" stroke-linejoin="round" stroke-width=".216" />
   <path d="M180.104 407.921l6.053-2.42.858 2.324-6.116 2.252-.795-2.156z" fill="#04a" fill-rule="evenodd" stroke="#04a" stroke-width=".25" />
   <path d="M189.16 404.322l6.42-2.697.993 2.742-6.47 2.318-.944-2.363z" fill="#c13c1b" fill-rule="evenodd" stroke="#c13c1b" stroke-width=".25" />
   <path d="M198.21 400.685l6.517-2.809 1.372 3.232-6.835 2.363-1.054-2.786z" fill="#04a" fill-rule="evenodd" stroke="#04a" stroke-width=".25" />
   <path d="M207.592 396.603l6.689-2.761 1.633 3.865-6.844 2.432-1.478-3.536z" fill="#308d57" fill-rule="evenodd" />
   <path d="M245.863 387.258l-66.938 23.581m65.73-29.425l-67.791 27.733m57.038-23.179l1.925 4.594m-2.805-4.357l1.91 4.724m8.553-8.963l2.101 5.247m-2.974-4.883l2.146 5.203m-19.513 2.012l1.892 4.164m-2.829-3.829l1.852 4.178m-10.126-.778l1.52 3.681m-2.426-3.446l1.651 3.854m-10.331-.254l1.508 3.272m-2.341-2.895l1.452 3.289m-9.711.215l1.015 2.754m-1.944-2.37l1.095 2.744m-9.206.551l.79 2.435m-1.805-2.076l.874 2.475m-8.89.759l.787 2.052m-1.588-1.817l.865 2.102" fill="none" stroke="#000" stroke-width=".25" stroke-linecap="round" stroke-linejoin="round" />
   <path d="M237.255 396.215l7.162-2.107 1.504 5.22-7.367 1.67-1.299-4.783z" fill="#04a" fill-rule="evenodd" stroke="#04a" stroke-width=".25" />
   <path d="M228.186 398.685l6.28-1.837 1.474 4.857-6.457 1.455-1.297-4.475z" fill="#c13c1b" fill-rule="evenodd" stroke="#c13c1b" stroke-width=".25" />
   <path d="M218.524 401.477l6.902-1.995 1.187 4.258-6.959 1.623-1.13-3.886z" fill="#04a" fill-rule="evenodd" stroke="#04a" stroke-width=".25" />
   <path d="M208.941 404.037l6.957-1.99 1.187 4.023-7.074 1.647-1.07-3.68z" fill="#308d57" fill-rule="evenodd" />
   <path d="M199.159 407.038l6.792-2.058 1 3.366-7.142 1.648-.65-2.956z" fill="#04a" fill-rule="evenodd" stroke="#04a" stroke-width=".25" />
   <path d="M189.764 409.57l6.676-1.894.678 2.836-6.689 1.576-.665-2.519z" fill="#c13c1b" fill-rule="evenodd" stroke="#c13c1b" stroke-width=".25" />
   <path d="M180.75 412.186l5.999-1.631.644 2.256-6.072 1.453-.571-2.078z" fill="#04a" fill-rule="evenodd" stroke="#04a" stroke-width=".25" />
   <path d="M248.34 398.911l-69.485 16.047m68.262-21.7l-69.923 19.747m59.086-16.575l1.396 4.78m-2.296-4.643l1.365 4.908m9.504-7.957l1.501 5.464m-2.406-5.187l1.547 5.41m-19.615-.195l1.411 4.35m-2.38-4.122l1.37 4.36m-9.974-1.913l1.097 3.829m-2.024-3.698l1.207 4.016m-10.237-1.415l1.131 3.421m-2.001-3.14l1.073 3.432m-9.674-.879l.699 2.85m-1.664-2.574l.779 2.85m-9.287-.486l.663 2.428m-1.635-2.187l.706 2.594m-8.423-.44l.596 2.205m-1.242-2.022l.485 2.112" fill="none" stroke="#000" stroke-width=".25" stroke-linecap="round" stroke-linejoin="round" />
   <path d="M179.672 411.22l66.636-22.16m-66.466 22.65l66.887-20.474m-67.733 24.286l69.612-15.229m-70.646 15.973l71.203-13.826m-75.665 6.845l70.671-30.35m-68.865 30.248l69.147-28.99" fill="none" stroke="#000" stroke-width=".216" />
   <path d="M167.17 418.627c7.907-1.79 13.708-.976 12.6-6.883-.808-4.308-8.228-2.253-12.328-.93l-.272 7.813z" fill="#fac53a" fill-rule="evenodd" stroke="#000" stroke-linecap="round" stroke-linejoin="round" stroke-width=".216" />
   <g>
      <path d="M150.539 589.925l16.979-170.264 88.627-.107c1.156 4.702 5.287 13.353.316 25.97 7.616 48.324 12.236 97.132 11.18 145.163l-117.102-.762z" fill="#fff" fill-rule="evenodd" stroke="#000" stroke-width=".432" />
      <path d="M267.383 590.287c-90.452-15.254-106.91-83.456-100.116-171.364l82.412-14.522c7.81 13.003 12.545 31.471 6.665 40.972 7.634 48.439 12.124 96.771 11.04 144.914z" fill="#fac53a" fill-rule="evenodd" stroke="#000" stroke-width=".216" />
      <path d="M249.496 404.477l-66.818 130.9m62.828-130.215l-64.67 126.692m-1.706-3.788l62.394-122.234m-4.014.73L177.468 524.19m-1.532-4.132l57.566-112.775m-4.002.707l-55.034 107.816m-1.364-4.46l52.41-102.674m-3.976.658l-49.686 97.338m-1.159-4.863l46.819-91.72m-4.009.721l-43.82 85.847m-.959-5.254l40.766-79.863m-3.976.658l-37.57 73.6m-.68-5.799l34.241-67.08m-3.995.695l-30.788 60.317m-.413-6.324l27.194-53.275m-3.989.682l-23.467 45.975m-.127-6.883l19.604-38.407m-4.025.755l-15.55 30.462m.178-7.481l11.395-22.324m-4.027.758l-7.114 13.937m.54-8.189l2.586-5.066m82.014-10.901l-66.94 131.14m1.985 3.242l66.72-130.708m1.642 3.915l-66.332 129.95m2.117 2.983l65.69-128.69m1.265 4.654l-64.75 126.85m2.252 2.718l63.473-124.347m.308 6.528l-61.434 120.354m2.372 2.485l56.86-111.394m.818 5.531l-55.226 108.19m2.447 2.34l53.56-104.93m.827 5.513l-51.83 101.538m2.627 1.985l49.95-97.853m.79 5.582l-48.082 94.197m2.727 1.791l46.006-90.13m.729 5.703l-43.996 86.192m2.807 1.632l41.884-82.052m.545 6.064l-39.61 77.599m2.895 1.459l37.444-73.355m.475 6.201l-34.989 68.546m3.001 1.253l32.568-63.804m.394 6.361L235.533 581.6m3.019 1.22l27.424-53.727m.449 6.254l-24.754 48.495m3.055 1.146l22.016-43.13m.282 6.579l-19.11 37.44m3.211.839l16.198-31.733m.168 6.803L254.33 587.57m3.23.804l9.994-19.579m.097 6.941l-6.786 13.295m3.317.633l3.356-6.575" fill="none" stroke="#c13c1b" stroke-width=".432" />
      <path d="M267.349 590.287c-90.453-15.254-106.91-83.456-100.116-171.364l82.412-14.522c7.81 13.003 12.545 31.471 6.664 40.972 7.634 48.439 12.124 96.771 11.04 144.914z" fill="none" stroke="#000" stroke-width=".432" />
   </g>
   <path style="marker:none" d="M170.581 402.216a.813 2.047-.507 11-1.627 0 .813 2.047-.507 111.627 0z" color="#000" fill-opacity=".706" fill-rule="evenodd" overflow="visible" />
   <g>
      <path d="M210.945-175.397h26.425v12.196h-26.425v-12.196z" fill="#fac53a" fill-rule="evenodd" stroke="#000" stroke-width=".224" transform="matrix(.97491 0 0 .96682 -2.37 465.386)" />
      <path d="M212.585-174.204l22.881.104m-22.891 2.034l22.88.104m-22.805 1.871l22.88.104m-22.891 1.795l22.881.103m-22.73 1.869l22.875-.054m-22.959 2.034l22.95-.215" fill="none" stroke="#c13c1b" stroke-width=".665" stroke-linecap="round" stroke-linejoin="round" transform="matrix(.97491 0 0 .96682 -2.37 465.386)" />
   </g>
   <g color="#000" fill-rule="evenodd" stroke-width=".193" stroke-linecap="round" stroke-linejoin="round">
      <path d="M168.27 185.154c-.613-.379-1.426-.203-2.126.241s-1.332 1.144-1.836 2.017-.8 1.78-.846 2.629c-.045.848.19 1.672.803 2.05.612.38 1.426.203 2.126-.24.7-.444 1.352-1.132 1.856-2.005.504-.872.78-1.793.825-2.641.046-.848-.19-1.673-.802-2.051z" style="marker:none" fill="#025" stroke="#000" overflow="visible" />
      <path d="M166.946 187.446c.039.024.099.081.085.339-.014.258-.134.668-.372 1.08-.237.412-.53.716-.743.85-.213.136-.29.108-.328.084-.038-.023-.077-.067-.063-.326a2.63 2.63 0 01.35-1.092c.238-.412.551-.703.764-.838.213-.135.27-.12.307-.097z" style="marker:none" fill="#fff" stroke="#fff" overflow="visible" />
   </g>
</svg>