<svg xmlns="http://www.w3.org/2000/svg" width="350" height="768">
   <defs>
      <linearGradient id="prefix__a">
         <stop offset="0" stop-color="#c13c1b" />
         <stop offset=".839" stop-color="#c13c1b" stop-opacity=".498" />
         <stop offset="1" stop-color="#c13c1b" stop-opacity="0" />
      </linearGradient>
   </defs>
   <path d="M62.991 711.488s.166-2.409.026.792c-.14 3.202.289 42.716-.876 47.97h-1.365c-1.573-5.298-1.171-44.782-1.3-48.04-.129-3.258-.1-.73-.1-.73h0l-.167-443.214c-2.89-.404-2.753-2.31-3.714-7.573-.962-5.262-8.888-7.992-8.708-8.97.18-.978 1.426-.777 2.316-1.231.89-.454 2.282-.77 2.921-1.07.64-.301 2.486-.391 3.472-.56.985-.17 1.455-.323 2.442-.445.988-.122 1.064-.231 3.164-.231s2.175.109 3.163.231c.988.122 1.457.276 2.443.445.985.169 2.831.259 3.471.56.64.3 2.03.616 2.92 1.07.891.454 2.137.253 2.317 1.231.18.978-7.746 3.708-8.708 8.97-.961 5.263-.824 7.17-3.811 7.587z" fill="#308d57" fill-rule="evenodd" stroke="#000" stroke-width=".21" stroke-linecap="round" stroke-linejoin="round" />
   <path d="M288.734 304.972l16.502.963.546-30.38c.714-11.606.087-16.311-2.26-24.027-6.447-27.632-13.63-55.42-26.022-84.303-9.503-17.078-10.126-40.663-44.502-39.514-8.465-.372-16.945-.22-25.463 1.344-2.746 1.363-19.756 2.311-22.7 28.307 16.238-.327 20.46 5.744 35.72 11.874l3.605 2.235 4.379 11.938c-4.63 5.261-6.946 19.724-8.358 37.527-1.826 25.446-2.262 50.962-4.284 76.396l24.377.965 6.5-20.735 33.024-18.304c8.699 7.458 5.514 6.048 9.6 27.785-.353 5.155-.01 11.157-.664 17.93z" fill="#025" fill-rule="evenodd" stroke="#000" stroke-width=".205" stroke-linecap="round" stroke-linejoin="round" />
   <path d="M281.47 292.436l23.97 1.113-.212 12.357-24.607-.478.849-12.992z" fill="#fac53a" fill-rule="evenodd" stroke-linecap="round" stroke-linejoin="round" stroke="#c13c1b" stroke-width=".42" />
   <g fill="none" stroke="#c13c1b" stroke-width="3" stroke-linecap="round" stroke-linejoin="round">
      <path d="M282.418 294.08l21.675.825M282.344 296.03l21.674.825M282.344 298.13l21.674.825M282.269 300.08l21.674.825M282.344 302.105l21.674.675M282.194 304.205l21.75.525" stroke-width=".63" />
   </g>
   <path d="M155.013 754.263c23.778-5.526 41.44-16.17 48.103-21.243.147-.36.421-2.543.415-2.862l2.034-29.799h3.606l-1.91 28.001c-5.87 9.447-35.539 22.974-52.395 25.88l-9.016-.955c-1.051 2.667-2.534 6.653 3.606 7.505 60.093-.215 44.513-1.143 68.262-2 1.596 3.003 13.483 1.635 15.211 1.39 3.616-1.401 4.434-8.159 3.818-9.758-1.366-3.55-2.24-8.852-3.181-13.577-1.474-12.09-.6-24.182-.637-36.274 5.987-37.83 3.848-80.114 1.06-113.488 5.595-51.135 11.774-107.838 14.001-159.733 27.414-18.16-7.954-67.376-5.09-75.943 3.741-25.387 15.06-47.743 27.152-69.79h.424v2.333l-1.06 14.85c-.559 23.341 3.898 51.921 2.633 72.376-4.924 25.755-2.32 50.398.336 75.902l.212 12.94 19.304.424.848-12.94c3.412-22.415 5.344-44.83 4.243-67.245.399-2.706.314-4.949-.75-7.637 1.147-24.394 1.242-48.79.75-73.184l.212-14c.466-4.06 1.088-8.282 1.485-12.092 1.915-18.879-4.716-28.595-15.485-32.668-15.396-5.822-28.705-8.94-42.638-12.834l-39.904-4.772-42.19 15.91c-18.99 8-16.242 23.246-18.243 36.91l-3.606 14.424C128.96 316.78 122.65 343.47 118.38 370.5c-17.952 21.962-32.756 45.926-44.485 71.848l-5.4 9 10.8 10.5 7.5-9c14.273-14.147 36.824-36.432 47.699-62.4 3.352-2.297 4.222-6.597 4.767-9.413 12.175-28.256 20.966-68.458 24.3-85.349l3.032-15.186.9-2.25h.9v4.95c-1.388 6.55-2.211 13.1-2.4 19.65-1.398 3.24-1.95 4.708 1.2 5.1 1.429 4.342 7.503 10.9 9.9 12.9 9.813 6.863 7.687 15.062 6.6 22.8-11.225 79.877-21.416 114.682 1.8 228.596-1.857 13.574 1.2 24.2 1.8 36.3-3.18 30.599-5.59 61.198-5.4 91.798-.167 38.43-11.756 29.915-60.332 53.579l-7.636-.424c-2.31 2.875-.968 6.18.424 7.212l34.471.08c-5.562-1.43-3.763-4.785-2.924-7.55l9.117 1.023z" fill="#f5ca44" fill-rule="evenodd" stroke="#000" stroke-width=".42" stroke-linecap="round" stroke-linejoin="round" />
   <path d="M71.883 451.095c-7.608.454-16.967 2.372-23.983 11.688l-3.958 1.955c1.558 4.537 5.693 2.417 7.152.266-.929 1.936-.665 3.257 1.706 3.49-.682 1.823-.126 2.97 2.07 3.224-1.35 1.732-.118 3.492 1.948 3.312-.941 2.293.228 3.418 1.48 3.562 3.207 1.76 19.039-15.308 20.682-16.782" fill="#f5ca44" fill-rule="evenodd" stroke="#000" stroke-width=".21" stroke-linecap="round" stroke-linejoin="round" />
   <g fill-rule="evenodd" stroke="#000" stroke-linecap="round" stroke-linejoin="round">
      <path d="M277.378 552.895c2.643-.864 4.809-.533 6.894 0l-1.216-33.074 15.75 1.051c-.482-2.368-.645-4.737 0-7.106l-15.75 1.105h0c3.299-5.896 7.924-11.124 9.587-19.746 3.362-17.425-5.523-16.693-11.687-16.749-6.71-.06-16.617.988-12.495 17.491 1.895 7.59 6.517 13.56 10.245 19.004h0l-17.7-1.105c.595 2.369.537 4.738 0 7.106l17.7-1.051h0l-1.328 33.074z" fill="#025" stroke-width=".21" />
      <path d="M278.706 510c-3.402-4.618-6.666-9.13-7.488-15.087-1.661-12.043 4.591-13.388 9.65-13.419 4.498-.026 11.145.611 8.17 13.312-1.397 5.96-3.569 11.32-5.982 15.195-1.51 2.045-3.133 1.71-4.35 0z" fill="#fff" stroke-width=".21" />
   </g>
   <path d="M272.385 460.123c-.974 4.87-3.379 10.024-5.727 15.168-3.105 4.927-3.307 11.215-2.44 17.182l-.318 5.622c8.742 1.046.296-10.621 5.833-14.956l.849 8.061c1.585 1.509 3.148 2.703 4.455.319 1.555 1.742 3.11 1.616 4.667-.319 1.901 2.46 3.454.728 5.09 0 1.744 1.364 3.59 1.85 4.774-1.272.343-8.515 2.89-16.783 2.28-29.274" fill="#f5ca44" fill-rule="evenodd" stroke="#000" stroke-width=".21" stroke-linecap="round" stroke-linejoin="round" />
   <path d="M266.33 235.109l-26.787-7.795-39.165-4.193-27.784 10.413c4.997 22.963 23.07 34.203 45.132 34.974 20.896.727 30.726-4.517 37.644-11.678 6.575-6.807 9.733-15.344 10.96-21.721z" fill="#fff" fill-rule="evenodd" stroke="#000" stroke-width=".22449" stroke-linecap="round" stroke-linejoin="round" />
   <path style="marker:none" d="M255.196 231.853c-4.615 19.074-16.576 26.143-37.797 25.037-20.573-1.072-31.25-13.713-33.374-26.57l-.334-.942" color="#000" fill="none" stroke="#04a" stroke-width="4.001969999999999" stroke-linejoin="round" overflow="visible" />
   <path style="marker:none" d="M244.95 228.91c-4.235 14.918-12.946 18.069-26.993 17.346-13.181-.678-23.292-9.395-23.201-20.207l-.236-.733" color="#000" fill="none" stroke="#308d57" stroke-width="2.45574" overflow="visible" />
   <path style="marker:none" d="M251.783 230.919c-3.53 13.463-11.328 23.641-34.075 22.355-19.207-1.086-28.807-13.555-29.992-24.624l-.212-.688" color="#000" fill="none" stroke="#c13c1b" stroke-width="2.45574" overflow="visible" />
   <path style="marker:none" d="M241.612 227.875c-.072.23-.032.182-.105.42-2.068 6.676-4.925 15.974-23.496 14.33-12.6-1.115-19.168-8.72-19.555-15.743-.019-.518-.2-1.782-.22-2.434l-.137-.443" color="#000" fill="none" stroke="#04a" stroke-width="3.6017099999999997" overflow="visible" />
   <path style="marker:none" d="M248.35 229.955c-4.576 18.081-18.563 20.712-30.812 19.828-16.808-1.218-25.806-11.653-26.307-22.673l-.199-.527" color="#000" fill="none" stroke="#04a" stroke-width="3.6017099999999997" overflow="visible" />
   <path style="marker:none" d="M261.79 233.78c-5.286 20.224-17.287 31.228-43.59 29.957l-.32-.016h-.01c-30.526-1.583-38.193-21.255-40.567-31.035l-.293-.745" color="#000" fill="none" stroke="#fac53a" stroke-width="8.98317" overflow="visible" />
   <g fill="none" stroke="#c13c1b">
      <path d="M207.266 264.465c.542-1.585.26-4.392-.133-6.233-1.32 1.308-3.155 3.495-3.63 4.995-.914 2.883 2.841 3.932 3.763 1.238z" stroke-width=".22457" />
      <path d="M206.78 264.266c.402-1.174.196-3.252-.092-4.614-.975.969-2.332 2.59-2.684 3.7-.677 2.136 2.094 2.91 2.777.914z" stroke-width=".22457" />
      <path d="M206.787 264.207a2.21 2.21 0 00-1.199-.968c-.67-.216-1.127-.095-1.51.07M206.945 262.077c-.195-.252-.63-.502-.844-.568-.232-.07-.727-.059-.957.002" style="marker:none" color="#000" stroke-linecap="round" stroke-linejoin="round" overflow="visible" stroke-width=".22457" />
   </g>
   <g fill="none" stroke="#c13c1b">
      <path d="M211.978 265.242c.385-1.63-.167-4.396-.737-6.19-1.186 1.429-2.8 3.784-3.129 5.323-.63 2.958 3.21 3.638 3.866.867z" stroke-width=".22457" />
      <path d="M211.475 265.091c.286-1.207-.12-3.255-.54-4.583-.875 1.059-2.069 2.804-2.311 3.943-.467 2.191 2.365 2.693 2.851.64z" stroke-width=".22457" />
      <path d="M211.476 265.032a2.21 2.21 0 00-1.287-.847c-.688-.15-1.131.015-1.496.215M211.427 262.896c-.219-.232-.675-.438-.895-.482-.238-.049-.73.011-.952.093" style="marker:none" color="#000" stroke-linecap="round" stroke-linejoin="round" overflow="visible" stroke-width=".22457" />
   </g>
   <g fill="none" stroke="#c13c1b">
      <path d="M202.468 263.108c.697-1.524.695-4.344.486-6.215-1.442 1.17-3.486 3.164-4.108 4.61-1.196 2.777 2.437 4.194 3.622 1.605z" stroke-width=".22457" />
      <path d="M202.005 262.862c.515-1.129.517-3.216.365-4.601-1.066.867-2.577 2.346-3.037 3.416-.886 2.058 1.794 3.103 2.672 1.185z" stroke-width=".22457" />
      <path d="M202.017 262.803a2.21 2.21 0 00-1.097-1.082c-.645-.281-1.112-.206-1.509-.08M202.386 260.7c-.17-.27-.577-.562-.784-.649-.223-.094-.718-.13-.952-.094" style="marker:none" color="#000" stroke-linecap="round" stroke-linejoin="round" overflow="visible" stroke-width=".22457" />
   </g>
   <g fill="none" stroke="#c13c1b">
      <path d="M221.443 265.793c.051-1.674-1.044-4.273-1.961-5.917-.876 1.638-1.987 4.269-2 5.842-.026 3.024 3.873 2.922 3.961.075z" stroke-width=".22457" />
      <path d="M220.92 265.746c.038-1.24-.77-3.165-1.446-4.382-.647 1.212-1.466 3.161-1.476 4.326-.019 2.24 2.857 2.164 2.922.056z" stroke-width=".22457" />
      <path style="marker:none" d="M220.91 265.688a2.21 2.21 0 00-1.432-.573c-.703-.009-1.105.242-1.422.511M220.433 263.606c-.26-.184-.749-.295-.973-.294-.243 0-.713.157-.914.282" color="#000" stroke-linecap="round" stroke-linejoin="round" overflow="visible" stroke-width=".22457" />
   </g>
   <g fill="none" stroke="#c13c1b">
      <path d="M226.006 265.772c-.014-1.675-1.21-4.229-2.192-5.836-.811 1.671-1.817 4.344-1.769 5.916.094 3.023 3.985 2.768 3.961-.08z" stroke-width=".22457" />
      <path d="M225.482 265.745c-.01-1.24-.894-3.132-1.618-4.322-.598 1.238-1.34 3.217-1.304 4.381.07 2.24 2.94 2.05 2.922-.059z" stroke-width=".22457" />
      <path d="M225.469 265.687a2.21 2.21 0 00-1.452-.515c-.704.019-1.095.285-1.401.566M224.911 263.626c-.267-.174-.76-.265-.984-.256-.242.01-.706.186-.902.319" style="marker:none" color="#000" stroke-linecap="round" stroke-linejoin="round" overflow="visible" stroke-width=".22457" />
   </g>
   <g fill="none" stroke="#c13c1b">
      <path d="M216.666 265.708c.238-1.659-.56-4.364-1.287-6.1-1.053 1.529-2.452 4.02-2.64 5.58-.365 3.004 3.52 3.338 3.927.52z" stroke-width=".22457" />
      <path d="M216.152 265.602c.176-1.228-.411-3.231-.947-4.517-.778 1.133-1.81 2.978-1.95 4.134-.27 2.224 2.596 2.47 2.897.383z" stroke-width=".22457" />
      <path d="M216.147 265.543a2.21 2.21 0 00-1.357-.729c-.699-.088-1.126.116-1.47.348M215.907 263.42c-.238-.211-.711-.376-.934-.4-.241-.028-.726.076-.94.178" style="marker:none" color="#000" stroke-linecap="round" stroke-linejoin="round" overflow="visible" stroke-width=".22457" />
   </g>
   <g fill="none" stroke="#c13c1b">
      <path d="M257.747 248.54c-1.37-.964-4.143-1.479-6.02-1.617.885 1.633 2.472 4.007 3.778 4.883 2.512 1.685 4.57-1.627 2.242-3.266z" stroke-width=".22457" />
      <path d="M257.42 248.95c-1.015-.713-3.067-1.097-4.456-1.202.658 1.207 1.834 2.963 2.802 3.612 1.86 1.248 3.379-1.196 1.654-2.41z" stroke-width=".22457" />
      <path style="marker:none" d="M257.365 248.928a2.21 2.21 0 00-1.265.88c-.394.583-.406 1.056-.355 1.468M255.364 248.18c-.296.117-.657.464-.78.651-.134.203-.26.682-.267.92" color="#000" stroke-linecap="round" stroke-linejoin="round" overflow="visible" stroke-width=".22457" />
   </g>
   <g fill="none" stroke="#c13c1b">
      <path d="M260.27 244.047c-1.459-.825-4.27-1.065-6.151-1.018 1.042 1.537 2.853 3.745 4.24 4.488 2.665 1.43 4.389-2.067 1.91-3.47z" stroke-width=".22457" />
      <path d="M259.984 244.487c-1.08-.61-3.16-.791-4.552-.759.773 1.137 2.116 2.769 3.143 3.32 1.974 1.059 3.245-1.522 1.41-2.56z" stroke-width=".22457" />
      <path d="M259.927 244.47a2.21 2.21 0 00-1.172 1c-.336.619-.3 1.09-.21 1.497M257.863 243.922c-.284.145-.61.526-.713.725-.113.215-.193.704-.176.94" style="marker:none" color="#000" stroke-linecap="round" stroke-linejoin="round" overflow="visible" stroke-width=".22457" />
   </g>
   <g fill="none" stroke="#c13c1b">
      <path d="M254.979 252.58c-1.213-1.156-3.88-2.075-5.716-2.49.635 1.746 1.852 4.33 3.015 5.389 2.235 2.038 4.76-.933 2.7-2.899z" stroke-width=".22457" />
      <path d="M254.594 252.938c-.898-.856-2.87-1.54-4.228-1.849.471 1.291 1.375 3.202 2.236 3.987 1.655 1.51 3.518-.682 1.992-2.138z" stroke-width=".22457" />
      <path style="marker:none" d="M254.544 252.907a2.21 2.21 0 00-1.382.683c-.476.519-.558.985-.569 1.4M252.676 251.872c-.311.071-.72.361-.87.528-.161.18-.358.636-.4.87" color="#000" stroke-linecap="round" stroke-linejoin="round" overflow="visible" stroke-width=".22457" />
   </g>
   <g fill="none" stroke="#c13c1b">
      <path d="M263.27 235.127c-1.602-.488-4.398-.113-6.225.341 1.351 1.275 3.599 3.037 5.113 3.462 2.912.817 3.836-2.971 1.112-3.803z" stroke-width=".22457" />
      <path d="M263.087 235.619c-1.186-.362-3.256-.087-4.608.247 1 .942 2.667 2.243 3.788 2.558 2.157.606 2.838-2.19.82-2.805z" stroke-width=".22457" />
      <path d="M263.028 235.614a2.21 2.21 0 00-.927 1.231c-.193.677-.057 1.13.12 1.506M260.894 235.528c-.245.203-.48.646-.539.862-.063.234-.035.73.033.956" style="marker:none" color="#000" stroke-linecap="round" stroke-linejoin="round" overflow="visible" stroke-width=".22457" />
   </g>
   <g fill="none" stroke="#c13c1b">
      <path d="M261.906 239.5c-1.548-.639-4.367-.531-6.229-.253 1.224 1.398 3.293 3.365 4.76 3.933 2.821 1.09 4.101-2.592 1.47-3.68z" stroke-width=".22457" />
      <path d="M261.678 239.973c-1.147-.473-3.234-.397-4.611-.193.906 1.032 2.44 2.487 3.527 2.907 2.09.808 3.033-1.91 1.084-2.714z" stroke-width=".22457" />
      <path d="M261.619 239.962a2.21 2.21 0 00-1.04 1.137c-.257.656-.165 1.12-.024 1.511M259.503 239.673c-.264.18-.54.597-.619.807-.085.227-.104.723-.058.955" style="marker:none" color="#000" stroke-linecap="round" stroke-linejoin="round" overflow="visible" stroke-width=".22457" />
   </g>
   <g fill="none" stroke="#c13c1b">
      <path d="M247.856 259.283c-.833-1.454-3.127-3.095-4.769-4.015.111 1.854.542 4.677 1.355 6.024 1.562 2.59 4.83.462 3.414-2.01z" stroke-width=".22457" />
      <path d="M247.386 259.516c-.617-1.076-2.313-2.293-3.527-2.976.085 1.371.407 3.46 1.008 4.458 1.157 1.919 3.567.349 2.52-1.482z" stroke-width=".22457" />
      <path style="marker:none" d="M247.346 259.472a2.21 2.21 0 00-1.518.262c-.605.36-.816.784-.945 1.18M245.85 257.947c-.318-.02-.792.142-.983.26-.206.127-.524.507-.63.719" color="#000" stroke-linecap="round" stroke-linejoin="round" overflow="visible" stroke-width=".22457" />
   </g>
   <g fill="none" stroke="#c13c1b">
      <path d="M251.47 256.308c-1.059-1.298-3.589-2.545-5.359-3.186.411 1.811 1.295 4.527 2.316 5.724 1.962 2.302 4.84-.329 3.043-2.538z" stroke-width=".22457" />
      <path d="M251.044 256.615c-.784-.962-2.655-1.887-3.964-2.364.306 1.34.963 3.35 1.72 4.236 1.452 1.705 3.575-.236 2.244-1.872z" stroke-width=".22457" />
      <path d="M250.997 256.578a2.21 2.21 0 00-1.456.505c-.538.454-.677.907-.74 1.318M249.273 255.317c-.317.032-.758.268-.928.415-.183.16-.435.586-.505.813" style="marker:none" color="#000" stroke-linecap="round" stroke-linejoin="round" overflow="visible" stroke-width=".22457" />
   </g>
   <g fill="none" stroke="#c13c1b">
      <path d="M243.732 261.708c-.671-1.535-2.774-3.415-4.307-4.507-.09 1.854.033 4.708.695 6.135 1.272 2.744 4.75.982 3.612-1.628z" stroke-width=".22457" />
      <path d="M243.24 261.89c-.498-1.138-2.052-2.531-3.185-3.342-.064 1.373.03 3.485.52 4.542.942 2.032 3.508.732 2.664-1.2z" stroke-width=".22457" />
      <path style="marker:none" d="M243.204 261.841a2.21 2.21 0 00-1.538.096c-.64.293-.895.691-1.067 1.07M241.882 260.163c-.314-.054-.803.055-1.005.152-.22.104-.577.447-.705.646" color="#000" stroke-linecap="round" stroke-linejoin="round" overflow="visible" stroke-width=".22457" />
   </g>
   <g fill="none" stroke="#c13c1b">
      <path d="M235.011 264.626c-.298-1.648-1.91-3.963-3.15-5.38-.515 1.784-1.054 4.589-.74 6.13.605 2.964 4.396 2.053 3.89-.75z" stroke-width=".22457" />
      <path d="M234.49 264.689c-.22-1.221-1.411-2.936-2.326-3.986-.38 1.32-.776 3.397-.543 4.539.447 2.195 3.244 1.522 2.87-.553z" stroke-width=".22457" />
      <path d="M234.467 264.634a2.21 2.21 0 00-1.518-.262c-.69.137-1.031.466-1.285.795M233.569 262.696c-.294-.125-.794-.132-1.014-.085-.237.05-.664.303-.835.467" style="marker:none" color="#000" stroke-linecap="round" stroke-linejoin="round" overflow="visible" stroke-width=".22457" />
   </g>
   <g fill="none" stroke="#c13c1b">
      <path d="M239.413 263.431c-.458-1.611-2.288-3.757-3.66-5.046-.34 1.826-.602 4.67-.138 6.173.891 2.89 4.576 1.613 3.798-1.127z" stroke-width=".22457" />
      <path d="M238.9 263.544c-.338-1.193-1.691-2.783-2.705-3.739-.248 1.352-.44 3.457-.096 4.57.66 2.141 3.378 1.198 2.802-.83z" stroke-width=".22457" />
      <path style="marker:none" d="M238.873 263.492a2.21 2.21 0 00-1.537-.113c-.674.205-.98.565-1.201.918M237.789 261.651c-.304-.096-.803-.053-1.017.015-.231.074-.632.366-.786.546" color="#000" stroke-linecap="round" stroke-linejoin="round" overflow="visible" stroke-width=".22457" />
   </g>
   <g fill="none" stroke="#c13c1b">
      <path d="M230.597 265.385c-.122-1.67-1.479-4.143-2.56-5.684-.703 1.72-1.537 4.45-1.388 6.017.286 3.01 4.153 2.508 3.948-.333z" stroke-width=".22457" />
      <path d="M230.072 265.392c-.09-1.237-1.092-3.069-1.89-4.21-.518 1.273-1.133 3.296-1.022 4.455.211 2.23 3.064 1.859 2.912-.245z" stroke-width=".22457" />
      <path d="M230.055 265.335a2.21 2.21 0 00-1.482-.422c-.701.064-1.075.354-1.362.655M229.367 263.313c-.278-.156-.776-.215-.998-.192-.242.025-.693.23-.88.375" style="marker:none" color="#000" stroke-linecap="round" stroke-linejoin="round" overflow="visible" stroke-width=".22457" />
   </g>
   <g fill="none" stroke="#c13c1b">
      <path d="M193.7 259.215c1.003-1.342 1.596-4.1 1.788-5.972-1.657.839-4.076 2.357-4.989 3.638-1.756 2.462 1.496 4.615 3.201 2.334z" stroke-width=".22457" />
      <path d="M193.299 258.877c.742-.994 1.185-3.035 1.33-4.42-1.226.623-3.015 1.749-3.691 2.697-1.3 1.824 1.098 3.412 2.361 1.723z" stroke-width=".22457" />
      <path style="marker:none" d="M193.323 258.822a2.21 2.21 0 00-.843-1.29c-.572-.41-1.044-.436-1.458-.397M194.128 256.844c-.108-.3-.445-.671-.629-.8-.198-.138-.674-.28-.91-.292" color="#000" stroke-linecap="round" stroke-linejoin="round" overflow="visible" stroke-width=".22457" />
   </g>
   <g fill="none" stroke="#c13c1b">
      <path d="M197.875 261.432c.882-1.423 1.235-4.222 1.264-6.104-1.578.98-3.857 2.7-4.655 4.056-1.536 2.605 1.89 4.468 3.39 2.048z" stroke-width=".22457" />
      <path d="M197.446 261.13c.653-1.055.918-3.125.942-4.518-1.167.726-2.852 2.003-3.444 3.007-1.137 1.93 1.39 3.303 2.502 1.51z" stroke-width=".22457" />
      <path d="M197.465 261.074a2.21 2.21 0 00-.952-1.212c-.604-.36-1.077-.344-1.486-.27M198.096 259.033c-.134-.29-.501-.63-.696-.742-.21-.121-.696-.22-.933-.213" style="marker:none" color="#000" stroke-linecap="round" stroke-linejoin="round" overflow="visible" stroke-width=".22457" />
   </g>
   <g fill="none" stroke="#c13c1b">
      <path d="M189.72 256.527c1.193-1.176 2.195-3.813 2.666-5.635-1.764.58-4.384 1.716-5.48 2.846-2.105 2.17.786 4.787 2.815 2.789z" stroke-width=".22457" />
      <path d="M189.375 256.132c.883-.871 1.628-2.822 1.979-4.17-1.305.432-3.243 1.276-4.055 2.112-1.56 1.608.573 3.538 2.076 2.058z" stroke-width=".22457" />
      <path d="M189.407 256.082a2.21 2.21 0 00-.64-1.402c-.503-.492-.966-.588-1.381-.612M190.5 254.247c-.062-.313-.339-.73-.501-.885-.176-.167-.625-.378-.857-.426" style="marker:none" color="#000" stroke-linecap="round" stroke-linejoin="round" overflow="visible" stroke-width=".22457" />
   </g>
   <g fill="none" stroke="#c13c1b">
      <path d="M182.9 249.77c1.468-.807 3.151-3.07 4.101-4.695-1.855.077-4.686.456-6.047 1.243-2.619 1.514-.552 4.82 1.946 3.451z" stroke-width=".22457" />
      <path d="M182.675 249.295c1.087-.597 2.336-2.27 3.04-3.472-1.372.06-3.467.343-4.476.926-1.939 1.121-.414 3.56 1.436 2.546z" stroke-width=".22457" />
      <path style="marker:none" d="M182.72 249.256a2.21 2.21 0 00-.234-1.523c-.35-.611-.77-.83-1.162-.966M184.272 247.788c.025-.317-.127-.794-.241-.987-.124-.21-.498-.534-.708-.645" color="#000" stroke-linecap="round" stroke-linejoin="round" overflow="visible" stroke-width=".22457" />
   </g>
   <g fill="none" stroke="#c13c1b">
      <path d="M186.088 253.392c1.335-1.011 2.669-3.496 3.372-5.243-1.825.347-4.57 1.136-5.802 2.114-2.369 1.88.16 4.849 2.43 3.13z" stroke-width=".22457" />
      <path d="M185.796 252.956c.989-.75 1.979-2.587 2.501-3.879-1.35.26-3.38.846-4.293 1.57-1.755 1.393.11 3.583 1.792 2.31z" stroke-width=".22457" />
      <path d="M185.835 252.91a2.21 2.21 0 00-.454-1.472c-.435-.553-.882-.708-1.29-.786M187.156 251.232c-.021-.318-.242-.767-.383-.942-.153-.188-.57-.455-.794-.533" style="marker:none" color="#000" stroke-linecap="round" stroke-linejoin="round" overflow="visible" stroke-width=".22457" />
   </g>
   <g fill="none" stroke="#c13c1b">
      <path d="M180.388 245.858c1.502-.74 3.282-2.929 4.302-4.51-1.857-.005-4.701.25-6.096.978-2.682 1.398-.76 4.791 1.794 3.532z" stroke-width=".22457" />
      <path d="M180.184 245.375c1.112-.55 2.432-2.167 3.19-3.336-1.375 0-3.48.191-4.513.73-1.987 1.035-.57 3.538 1.323 2.606z" stroke-width=".22457" />
      <path style="marker:none" d="M180.23 245.337a2.21 2.21 0 00-.167-1.531c-.322-.626-.732-.863-1.118-1.016M181.845 243.94c.04-.317-.092-.8-.198-.998-.114-.214-.474-.555-.679-.675" color="#000" stroke-linecap="round" stroke-linejoin="round" overflow="visible" stroke-width=".22457" />
   </g>
   <g fill="none" stroke="#c13c1b">
      <path d="M176.693 237.185c1.609-.467 3.744-2.309 5.026-3.687-1.827-.33-4.672-.577-6.173-.105-2.886.906-1.589 4.584 1.147 3.792z" stroke-width=".22457" />
      <path d="M176.577 236.673c1.191-.346 2.774-1.707 3.724-2.725-1.352-.242-3.459-.422-4.57-.073-2.137.672-1.18 3.385.846 2.798z" stroke-width=".22457" />
      <path d="M176.629 236.644a2.21 2.21 0 00.104-1.537c-.208-.673-.57-.978-.923-1.196M178.464 235.55c.094-.304.049-.803-.02-1.016-.075-.23-.37-.63-.55-.783" style="marker:none" color="#000" stroke-linecap="round" stroke-linejoin="round" overflow="visible" stroke-width=".22457" />
   </g>
   <g fill="none" stroke="#c13c1b">
      <path d="M178.225 241.524c1.567-.594 3.549-2.6 4.716-4.078-1.848-.182-4.704-.2-6.162.39-2.804 1.134-1.217 4.696 1.446 3.688z" stroke-width=".22457" />
      <path d="M178.069 241.023c1.16-.44 2.629-1.923 3.495-3.014-1.368-.133-3.482-.144-4.562.293-2.077.84-.906 3.467 1.067 2.72z" stroke-width=".22457" />
      <path style="marker:none" d="M178.118 240.99a2.21 2.21 0 00-.018-1.54c-.262-.654-.647-.93-1.017-1.12M179.86 239.753c.07-.31-.015-.805-.101-1.011-.093-.225-.419-.599-.611-.737" color="#000" stroke-linecap="round" stroke-linejoin="round" overflow="visible" stroke-width=".22457" />
   </g>
   <path d="M266.33 235.109l-26.787-7.795-39.165-4.193-27.784 10.413c4.997 22.963 23.07 34.203 45.132 34.974 20.896.727 30.726-4.517 37.644-11.678 6.575-6.807 9.733-15.344 10.96-21.721z" fill="none" stroke="#000" stroke-width=".22449" stroke-linecap="round" stroke-linejoin="round" />
   <path d="M209.293 237.444c-9.707-5.887-6.833-8.549-11.71-25.604-4.653.07-11.44-.529-13.796-1.593-1.858-.838-2.45-1.852-3.04-3.967-.334-1.199.017-3.116.525-5.185-.654-.916-1.779-1.183-2.696-1.735-.82-1.083-.273-2.215-.151-2.7-.578-.661-1.23-1.706-.831-2.599.664-1.102.917-2.19.289-3.246-2.457-.235-6.94-1.748-4.57-7.194 2.135-4.91 5.463-10.371 8.3-15.622l3.303-10.553c5.755.02 33.415-.187 33.437 9.86l4.456 1 4.033 3.025-.035.12 3.9-.3c-2.11 7.492-4.305 9.756-7.815 68.947-2.567.264-8.47-.032-13.599-2.654z" fill="#f5ca44" fill-rule="evenodd" stroke="#000" stroke-width=".205" />
   <path d="M185.287 161.814c3.29-1.83 6.56-2.31 9.912-2.118 1.75.1 3.972.552 5.81 1.82 7.275 5.016 7.281 4.424 10.034 5.348.129.194.32.392.012.547-1.406-.117-3.37-.73-5.38-1.51-1.874-.727-3.923-2.486-6.842-3.458-2.152-.716-4.592-.797-6.903-.736-2.136.057-4.281.85-6.752 1.64-.564.181-2.076-.317.109-1.533zM184.015 169.94c2.92-3.117 5.586-3.764 7.9-3.992 3.536-.35 8.9.213 11.755 1.38 2.05.84 4.098.487 6.67 1.034.48.103.493.893.002.924-2.411.156-5.117-.252-7.196.51-2.536.932-5.285 2.08-7.028 2.707-1.682.605-3.886 1.023-7.404.128-1.16-.295-2.188-.411-3.422.116-3.077 1.317-3.054-.91-1.277-2.807z" fill-rule="evenodd" stroke="#000" stroke-width=".205" />
   <path d="M177.623 194.17c4.782-.431 6.218 1.734 10.49 1.682M178.649 199.367c5.318.166 6.632-2.23 9.72-2.93" fill="none" stroke="#000" stroke-width=".105" stroke-linecap="round" stroke-linejoin="round" />
   <path d="M178.391 196.711c1.75.371 6.3.063 7.918-.165" fill="none" stroke="#000" stroke-width=".21" stroke-linecap="round" stroke-linejoin="round" />
   <path d="M185.401 170.962c.78-1.43 1.95-1.668 2.98-2.33-.028 1.009.457 1.77 1.294 2.27-1.04-.006-3.711-.203-4.274.06zM197.54 167.633c-.017 1.261-.196 2.471-1.228 3.41 1.794-.29 3.569-1.73 5.026-3.072-1.26.27-2.426-.142-3.798-.338z" fill="#fff" fill-rule="evenodd" stroke="#000" stroke-width=".21" />
   <path d="M180.126 185.206c3.76 3.045 1.74 4.93-.037 4.852-1.759-.078-4.297-3.064-4.93-1.389-.638 1.692 2.85 1.09 2.799.611" fill="none" stroke="#000" stroke-width=".084" />
   <path d="M228.295 180.936c-3.62 2.232-8.034 24.31-8.16 37.745-1.775 25.17-2.178 50.616-4.178 75.77l24.376.964 2-67.234" fill="#025" fill-rule="evenodd" stroke="#000" stroke-width=".205" stroke-linecap="round" stroke-linejoin="round" />
   <path d="M205.58 700.36h27.418c5.986-37.83 3.795-79.903 1.007-113.277 5.595-51.135 11.774-107.838 14.001-159.733 27.414-18.16-7.954-67.376-5.091-75.943 2.24-15.193 7.335-28.202 13.544-41.808h-89.131c1.428 4.342 7.384 9.25 9.78 11.25 9.814 6.863 7.688 15.062 6.6 22.8-11.224 79.877-21.415 114.682 1.8 228.596-1.856 13.574 1.2 24.2 1.8 36.3-3.18 30.599-5.59 61.198-5.4 91.798l23.672.016z" fill="#c13c1b" fill-rule="evenodd" stroke="#000" stroke-width=".42" stroke-linecap="round" stroke-linejoin="round" />
   <path d="M255.652 310.109l-3.097 7.067H173.54c-2.122-2.146-4.322-4.701-5.511-7.067h87.624z" fill="#fff" fill-rule="evenodd" stroke="#fff" stroke-width=".63" />
   <path d="M168.359 311.226h87.187M173.543 317.321h79.236M171.727 315.674h81.823" fill="none" stroke="#000" stroke-width=".42" stroke-linecap="round" stroke-linejoin="round" />
   <g fill="none" stroke="#000" stroke-width="2" stroke-linecap="round" stroke-linejoin="round">
      <path d="M173.16 311.418v4.027M175.057 311.418v4.027M177.065 311.418v4.027" stroke-width=".42" />
   </g>
   <g fill="none" stroke="#000" stroke-width="2" stroke-linecap="round" stroke-linejoin="round">
      <path d="M187.907 311.418v4.027M189.803 311.418v4.027M191.811 311.418v4.027" stroke-width=".42" />
   </g>
   <g fill="none" stroke="#000" stroke-width="2" stroke-linecap="round" stroke-linejoin="round">
      <path d="M202.083 311.418v4.027M203.979 311.418v4.027M205.987 311.418v4.027" stroke-width=".42" />
   </g>
   <g fill="none" stroke="#000" stroke-width="2" stroke-linecap="round" stroke-linejoin="round">
      <path d="M216.558 311.418v4.027M218.454 311.418v4.027M220.463 311.418v4.027" stroke-width=".42" />
   </g>
   <g fill="none" stroke="#000" stroke-width="2" stroke-linecap="round" stroke-linejoin="round">
      <path d="M231.872 311.418v4.027M233.768 311.418v4.027M235.776 311.418v4.027" stroke-width=".42" />
   </g>
   <g fill="none" stroke="#000" stroke-width="2" stroke-linecap="round" stroke-linejoin="round">
      <path d="M245.449 311.418v4.027M247.344 311.418v4.027M249.353 311.418v4.027" stroke-width=".42" />
   </g>
   <path d="M233.5 693.142l-.974 6.996-50.153-.159.062-6.854 51.066.017z" fill="#fff" fill-rule="evenodd" stroke="#fff" stroke-width=".63" />
   <path d="M181.883 694.19h51.833M182.179 700.284h50.72M181.883 698.637h51" fill="none" stroke="#000" stroke-width=".42" stroke-linecap="round" stroke-linejoin="round" />
   <g fill="none" stroke="#000" stroke-width="2" stroke-linecap="round" stroke-linejoin="round">
      <path d="M185.024 694.381v4.027M186.92 694.381v4.027M188.928 694.381v4.027" stroke-width=".42" />
   </g>
   <g fill="none" stroke="#000" stroke-width="2" stroke-linecap="round" stroke-linejoin="round">
      <path d="M197.821 694.381v4.027M199.717 694.381v4.027M201.725 694.381v4.027" stroke-width=".42" />
   </g>
   <g fill="none" stroke="#000" stroke-width="2" stroke-linecap="round" stroke-linejoin="round">
      <path d="M211.978 694.381v4.027M213.874 694.381v4.027M215.883 694.381v4.027" stroke-width=".42" />
   </g>
   <g fill="none" stroke="#000" stroke-width="2" stroke-linecap="round" stroke-linejoin="round">
      <path d="M225.913 694.381v4.027M227.81 694.381v4.027M229.817 694.381v4.027" stroke-width=".42" />
   </g>
   <path d="M181.967 692.78h51.958" fill="none" stroke="#000" stroke-width=".42" stroke-linecap="round" stroke-linejoin="round" />
   <g fill-rule="evenodd" stroke="#000" stroke-linecap="round" stroke-linejoin="round">
      <path d="M164.166 236.76l12.426 72.88h12.494l-18.283-75.392-6.637 2.512z" fill="#fff" stroke-width=".21" />
      <path d="M165.327 236.314l13.178 73.326h8.78l-17.84-74.897-4.118 1.57z" fill="#c13c1b" stroke-width=".21" />
   </g>
   <g fill-rule="evenodd" stroke="#000" stroke-linecap="round" stroke-linejoin="round">
      <path d="M265.926 235.027l-22.578 74.572h10.5l18.027-72.595-5.949-1.977z" fill="#fff" stroke-width=".21" />
      <path d="M267.11 235.418l-21.853 74.18h6.682l18.654-73.072-3.483-1.108z" fill="#c13c1b" stroke-width=".21" />
   </g>
   <g fill-rule="evenodd" stroke="#000" stroke-linecap="round" stroke-linejoin="round">
      <path d="M140.141 276.04l26.278 5.302-2.939 14.56-27.101-5.24 3.762-14.622z" fill="#fac53a" stroke-width=".21" />
      <path d="M139.702 277.71l26.383 5.468-.981 4.792-26.626-5.53 1.224-4.73zM138.111 284.128l26.608 5.617-.981 4.452-26.851-5.34 1.224-4.73z" fill="#04a" stroke-width=".21" />
   </g>
   <g fill-rule="evenodd" stroke="#000" stroke-linecap="round" stroke-linejoin="round">
      <path d="M74.218 441.77l13.374 10.312-8.411 9.88-10.845-10.614 5.882-9.579z" fill="#fac53a" stroke-width=".21" />
      <path d="M73.426 443.057l12.872 10.32-2.481 2.93-12.1-10.333 1.71-2.917zM70.775 447.3l12.121 10.244-2.48 2.931-11.35-10.259 1.709-2.917z" fill="#04a" stroke-width=".21" />
   </g>
   <g stroke="#c13c1b" stroke-width="2">
      <path d="M216.77 281.83l23.971 1.113-.477 12.41-24.342-.531.849-12.993z" fill="#fac53a" fill-rule="evenodd" stroke-linecap="round" stroke-linejoin="round" stroke-width=".42" />
   </g>
   <path d="M268.677 147.033l-21.4 58.559-9.02-3.836 26.134-57.489c-17.765 5.831-53.386 3.351-76.898 1.681.648-1.762 2.508-5.344 2.696-5.344 34.758 3.786 67.594.92 73.532-1.195" fill="#fff" fill-rule="evenodd" stroke="#000" stroke-width=".21" stroke-linecap="round" stroke-linejoin="round" />
   <path d="M264.983 139.584c.312-.252.411-.469.425-.671 2.38-8.936 7.481-8.691 9.308-7.256 4.89 4.267-.154 6.341-4.37 12.087l28.832 59.086-7.61 3.256-23.491-59.053-21.85 58.034-6.994-2.936 26.608-59.246c-15.73 6.698-54.053 4.185-78.134 2.367.808-1.762 1.724-3.667 1.938-3.905 34.758 3.785 69.4.352 75.338-1.763z" fill="#d40000" fill-rule="evenodd" />
   <path d="M269.946 141c-1.018-2.564.185-4.735 1.687-5.593" fill="none" stroke="#000" stroke-width=".21" />
   <path d="M267.964 147.033c-1.977-4.808-3.136-6.389-2.615-8.117 2.699-8.948 7.428-8.694 9.255-7.259 4.89 4.267-.155 6.341-4.37 12.087l28.831 59.086-7.609 3.256s-16.644-42.402-23.492-59.053z" fill="none" stroke="#000" stroke-width=".21" stroke-linecap="round" stroke-linejoin="round" />
   <path d="M178.174 189.294c-1.321-.785-2.592-1.743-3.014-.625-.639 1.692 2.85 1.09 2.798.611" fill-rule="evenodd" stroke="#000" stroke-width=".084" />
   <g stroke="#000">
      <path d="M226.595 173.147c-3.653-2.282-3.81-5.887-2.631-7.87 2.826-4.753 5.05-5.618 7.177-5.056 4.111 1.085 3.624 6.182 2.756 10.547-.841 4.237-4.14 7.125-5.92 10.683-1.109 2.214-1.613 3.744-2.348 4.578-.85.965-2.337 2.372-4.429 1.423-2.306-1.046-1.804-3.878-.669-7.452.9-2.835 3.593-5.22 4.962-6.042" fill="#f5ca44" fill-rule="evenodd" stroke-width=".20454" />
      <path d="M223.715 180.989c-.966-.302 2.075-2.944 3.642-5.325 2.022-3.072-.154-4.456-1.15-6.338-1.636-3.097 1.029-7.834 3.862-7.115 3.372.856 4.835 5.2.704 11.733-1.856 2.933-4.94 7.706-7.058 7.045z" fill="none" stroke-width=".21" />
      <path style="marker:none" d="M224.032 184.576c0 .787-.588 1.425-1.312 1.425-.725 0-1.313-.638-1.313-1.425s.588-1.425 1.313-1.425c.724 0 1.312.638 1.312 1.425z" color="#000" fill="none" stroke-linecap="round" stroke-linejoin="round" overflow="visible" stroke-width=".21" />
   </g>
   <path d="M185.817 210.84c12.134 1.963 17.545.663 22.005-2.377M198.662 215.407c3.104-.139 6.132-1.402 9.15-2.7M199.562 219.226c4.103.774 6.761-1.538 9.75-2.85" fill="none" stroke="#000" stroke-width=".105" />
   <path d="M200.825 127.431h49.894V11.238h-8.156v35.461h-17.75v71.617h-23.988v9.115" fill="#025" fill-rule="evenodd" stroke="#000" stroke-width=".475" />
   <g fill-rule="evenodd" stroke="#000" stroke-linecap="round" stroke-linejoin="round">
      <path d="M270.415 284.462l26.786 1.097-.234 14.99-27.663-.636 1.111-15.45z" fill="#fac53a" stroke-width=".21" />
      <path d="M270.245 286.181l26.915 1.243-.064 4.887-27.015-1.267.164-4.863zM269.76 292.769l27.235 1.356-.042 4.625-27.582-.818.389-5.163z" fill="#04a" stroke-width=".21" />
   </g>
   <g fill-rule="evenodd" stroke="#000" stroke-linecap="round" stroke-linejoin="round">
      <path d="M181.533 707.877l23.274 1.01-1.106 14.915-24.693-1.424 2.525-14.5z" fill="#fac53a" stroke-width=".21" />
      <path d="M181.273 709.427l23.43 1.25-.237 4.214-24.023-.802.83-4.662zM180.188 716.163l24.044 1.104-.293 4.363-24.604-.762.853-4.705z" fill="#04a" stroke-width=".21" />
   </g>
   <g fill-rule="evenodd" stroke="#000" stroke-linecap="round" stroke-linejoin="round">
      <path d="M208.544 710.005l24.356-.058-.156 14.95-25.316-.29 1.116-14.602z" fill="#fac53a" stroke-width=".21" />
      <path d="M208.408 711.565l24.47.176-.043 4.22-24.672.299.245-4.695zM207.95 718.344h24.812l-.093 4.747-25.142-.008.424-4.74z" fill="#04a" stroke-width=".21" />
   </g>
   <g fill-rule="evenodd" stroke="#000" stroke-linecap="round" stroke-linejoin="round">
      <path d="M272.401 447.449l20.418.159-.849 12.887-19.463-.743-.106-12.303z" fill="#fac53a" stroke-width=".21" />
      <path d="M272.401 449.305l20.259.265-.209 3.981-19.997-.314-.053-3.932z" fill="#04a" stroke-width=".21" />
      <path d="M272.401 447.449l20.418.159-.849 12.887-19.463-.743-.106-12.303z" fill="#fac53a" stroke-width=".21" />
      <path d="M272.401 449.305l20.259.265-.209 3.981-19.997-.314-.053-3.932zM272.401 454.48l19.94.265-.208 3.981-19.679-.314-.053-3.932z" fill="#04a" stroke-width=".21" />
   </g>
   <g fill="none" stroke="#c13c1b" stroke-width="3" stroke-linecap="round" stroke-linejoin="round">
      <path d="M217.507 283.2l21.675.824M217.432 285.15l21.675.824M217.432 287.25l21.675.824M217.357 289.2l21.675.824M217.432 291.224l21.675.675M217.282 293.324l21.75.525" stroke-width=".63" />
   </g>
   <g fill-rule="evenodd" stroke="#000" stroke-linecap="round" stroke-linejoin="round">
      <path d="M61.286 458.045c2.877-1.802 6.044-1.183 3.229 1.627 2.37-1.859 6.8-1.075 1.96 2.738 4.276-2.042 4.187 1.245 1.938 2.886 2.887-1.41 3.366 1.29.33 3.697-3.101 3.181-6.686 6.394-10.148 9.519-.064.056-.146.087-.269.062-1.251-.144-2.413-1.146-1.472-3.439-2.065.18-3.297-1.58-1.948-3.313-2.196-.252-2.752-1.4-2.07-3.224-2.37-.233-2.901-1.22-1.973-3.156.114-.159.222-.279.324-.368 3.694-3.297 7.021-5.601 10.01-6.987m.643-.313c-.299.876.48 2.184 1.992 2.354m.652-.33c-.709.995.931 2.603 1.901 2.639m.263-.12c-1 1.018.086 3.481 2.097 2.686m-.37.337c-.63 1.123.2 2.423 1.227 2.778m-14.686 3.703c.417-.238 11.582-9.394 11.582-9.394m-13.557 6.121c.612-.511 11.617-8.887 11.617-8.887m-7.655 15.46l11.59-9.875" fill="#f5ca44" stroke-width=".21" />
      <path d="M64.484 459.799c-.19.105-.242.347-.652.329-1.846-.174-2.108-2.04-2.007-2.36 2.69-1.403 5.347-.667 2.715 1.962 2.37-1.859 6.775-1.133 1.936 2.68 4.275-2.042 4.245 1.167 1.997 2.808 2.565-1.254 3.17.817 1.142 2.933-1.04-.388-1.87-1.688-1.128-2.917-1.9.689-2.839-1.899-1.97-2.857-1.102.024-2.742-1.584-2.033-2.578z" fill="#fff" stroke-width=".21" />
   </g>
   <path d="M65.357 457.367c-1.71-.824-4.16.257-9.705 4.057l-.424-5.516c5.728-3.137 8.234-3.943 12.993-4.48" fill="#f5ca44" fill-rule="evenodd" />
   <path d="M55.652 461.424c5.546-3.8 8.07-4.88 9.78-4.057m2.736-5.913c-4.759.538-7.305 1.232-13.034 4.53" fill="none" stroke="#000" stroke-width=".21" />
</svg>