<svg xmlns="http://www.w3.org/2000/svg" width="350" height="825" version="1.0">
   <defs>
      <linearGradient id="prefix__a">
         <stop offset="0" stop-color="#c13c1b" />
         <stop offset=".839" stop-color="#c13c1b" stop-opacity=".498" />
         <stop offset="1" stop-color="#c13c1b" stop-opacity="0" />
      </linearGradient>
   </defs>
   <g transform="translate(-44.719 22.215)">
      <path d="M299.159 155.286c-3.393 1.415-4.09 8.562-4.462 12.299l-46.461-.341c-.165-3.933-.84-10.487-3.812-11.958" fill="#c13c1b" fill-rule="evenodd" stroke="#000" stroke-width=".5" />
      <path d="M269.905 135.575c-12.574-9.095-6.926 4.69-35.387-8.66-35.555-27.02-18.054-55.92-20.539-88.838-2.076-27.503-17.07-46.06-29.695-51.966 11.289 13.037 21.926 28.553 23.261 51.966-.042 32.221-15.302 65.302 12.373 89.085 29.513 25.362 44.175 10.121 43.8 26.641h17.042c-.374-16.52 14.287-1.279 43.8-26.641 27.675-23.783 12.415-56.864 12.373-89.085 1.335-23.413 11.972-38.93 23.26-51.966-12.623 5.905-27.618 24.463-29.694 51.966-2.485 32.918 15.017 61.817-20.54 88.837-28.46 13.352-22.812-.434-35.385 8.661" fill-rule="evenodd" stroke="#000" stroke-width=".49" />
      <path d="M211.894 95.548c.251 4.964.334 26.365-5.004 27.126-5.401.514-3.921-6.342-4.271-10.39.138-3.902 2.01-9.869 1.616-13.159-1.358-11.338-8.853-12.012-12.93-11.774-1.367-1.232-5.076-1.14-7.618.808-.21.343-.435.668-.346 1.385 1.745 2.498 4.96 2.607 8.427 2.309.384.077.538.308.461.692-2.711 2.52-2.964 4.852-2.885 7.157 1.484 7.603 2.792 15.98 4.597 22.789.306 10.052 19.623 9.375 22.035 1.508 1.666-5.43 3.017-10.118 2.795-10.629" fill="#fac53a" fill-rule="evenodd" stroke="#000" stroke-width=".42918744" />
      <path d="M202.174 92.678l-.45-.241c-1.936-1.202-3.192-2.7-6.087-3.355-1.832-.524-3.85-.08-5.714.289-.986.378-1.88.197-2.712-.347-.799-.75-2.082-.07-3.291 0l-.414-.09c.068-.268.194-.461.316-.66 2.542-1.947 6.022-2.04 7.39-.808 3.076-.18 8.1.16 10.962 5.212zM200.848 113.028c-2.217.636-4.753.75-7.078.297 0 0 2.325.453-.04-.085a551.996 551.996 0 002.38 10.778l.04-.041c-.201-3.126 4.46-3.24 4.898-1.592-.39-3.686-.082-.204-.082-.204-.308-3.482-.302-6.476-.118-9.153z" fill="#308d57" fill-rule="evenodd" />
      <path d="M200.926 122.181c-1.168-13.219 2.441-20.137 1.448-24.514-1.33-5.865-5.342-5.589-6.055-5.566-.736.023-4.645.549-4.896 6.486-.18 4.244 1.383 10.667 4.605 25.471" fill="none" stroke="#000" stroke-width=".1616802" />
      <path d="M191.936 104.183c3.24 1.235 6.893 1.53 10.164-.491-.404 2.516-1 5.64-1.26 9.462-2.227.561-4.745.624-7.084.211-.854-3.859-1.441-6.775-1.82-9.182z" fill="#c13c1b" fill-rule="evenodd" />
      <path d="M191.92 104.264c3.24 1.235 6.868 1.45 10.12-.53" fill="none" stroke="#000" stroke-width=".1616802" />
      <path d="M191.872 104.265c3.24 1.234 6.88 1.448 10.141-.513.429-2.492.693-4.463.325-6.085-1.33-5.865-5.342-5.589-6.055-5.566-.736.023-4.645.549-4.896 6.486-.065 1.52.107 3.317.485 5.678z" fill="#04a" fill-rule="evenodd" />
      <path d="M193.73 113.325c2.325.453 4.843.39 7.059-.245M184.091 88.91c1.21-.072 2.153-.723 2.952.026.833.545 1.694.749 2.713.482 1.831-.48 3.99-.894 5.822-.37 2.895.655 4.72 2.505 6.657 3.707" fill="none" stroke="#000" stroke-width=".1616802" />
      <path style="marker:none" d="M189.78 88.342a.861.763 0 11-1.723 0 .861.763 0 111.723 0z" color="#000" fill-rule="evenodd" stroke="#000" stroke-linecap="round" stroke-linejoin="round" overflow="visible" stroke-width=".1378" />
      <path d="M196.11 123.977c-.202-3.126 4.46-3.24 4.979-1.388" fill="none" stroke="#000" stroke-width=".1616802" />
      <path d="M196.053 124.141c1.957-.495 3.635-.624 5.375-1.552M198.038 126.358c1.84-.264 3.25-1.45 4.192-2.475M200.01 127.517c1.474-.765 2.512-1.387 3.334-2.695" fill="none" stroke="#000" stroke-width=".0857395" />
      <g fill="none" stroke="#000" stroke-width=".188">
         <path d="M200.893 122.181c-1.168-13.219 2.441-20.137 1.448-24.514-1.33-5.865-5.342-5.589-6.055-5.566-.736.023-4.645.549-4.896 6.486-.18 4.244 1.383 10.667 4.605 25.471M191.887 104.264c3.24 1.235 6.868 1.45 10.12-.53M193.697 113.325c2.325.453 4.843.39 7.06-.245" stroke-width=".1613792" />
         <path d="M196.077 123.977c-.202-3.126 4.46-3.24 4.979-1.388" stroke-linecap="round" stroke-linejoin="round" stroke-width=".1613792" />
      </g>
      <path d="M197.605 121.635c-1.71-9.878-.63-18.798-2.23-29.247.707-.346 1.415-.355 2.122-.163 1.942 6.714.443 20.094 2.076 29.283" fill="#fac53a" fill-rule="evenodd" stroke="#000" stroke-width=".1616802" />
      <path d="M195.392 124.687c.598 1.355 3.834 4.108 8.355 4.255 2.19.07 7.286-.587 9.517-2.799 1.667-1.653 2.977-5.74 4.64-13.276" fill="none" stroke="#000" stroke-width=".21459372" stroke-linecap="round" stroke-linejoin="round" stroke-dasharray="1.752 3.504" />
      <path d="M196.044 123.844c-.203-1.975 3.366-3.633 5-1.341" fill="none" stroke="#000" stroke-width=".21459372" stroke-linecap="round" stroke-linejoin="round" />
      <path d="M332.615 92.357c3.22 29.24 4.04 21.637 6.292 41.907-.11.985-1.325.927-1.518.357-2.532-14.615-6.783-17.47-8.813-29.9" fill="#fac53a" fill-rule="evenodd" stroke="#000" stroke-width=".515" />
      <path d="M312.846 81.234c0 27.167-18.6 39.088-43.258 39.088-24.659 0-42.812-13.122-42.412-39.088.4-25.968 17.753-39.087 42.412-39.087 24.658 0 43.258 12.32 43.258 39.087z" style="marker:none" color="#000" fill="#c13c1b" fill-rule="evenodd" stroke="#c13c1b" stroke-width="33.076" stroke-linecap="round" stroke-linejoin="round" overflow="visible" />
      <path d="M329.112 81.038c0 36.196-24.783 52.079-57.636 52.079-32.854 0-57.04-17.483-56.508-52.079.532-34.6 23.654-52.078 56.508-52.078 32.853 0 57.636 16.415 57.636 52.078z" style="marker:none" color="#000" fill="none" stroke="#fff" stroke-width="5.718" stroke-linecap="round" stroke-linejoin="round" overflow="visible" />
      <path d="M330.21 80.996c0 36.938-25.29 53.146-58.818 53.146-33.527 0-58.209-17.841-57.666-53.146.543-35.31 24.14-53.146 57.666-53.146 33.528 0 58.819 16.75 58.819 53.146z" style="marker:none" color="#000" fill="none" stroke="#000" stroke-width="6.867" stroke-linecap="round" stroke-linejoin="round" overflow="visible" />
      <path style="marker:none" d="M330.21 80.996c0 36.938-25.29 53.146-58.818 53.146-33.527 0-58.209-17.841-57.666-53.146.543-35.31 24.14-53.146 57.666-53.146 33.528 0 58.819 16.75 58.819 53.146z" color="#000" fill="none" stroke="#fac53a" stroke-width="5.836" stroke-linecap="round" stroke-linejoin="round" overflow="visible" />
      <path d="M331.74 80.859c0 38.054-26.055 54.752-60.596 54.752-34.54 0-59.968-18.38-59.409-54.752.56-36.376 24.869-54.753 59.41-54.753 34.54 0 60.595 17.258 60.595 54.753z" style="marker:none" color="#000" fill="none" stroke="#000" stroke-width=".429" stroke-linecap="round" stroke-linejoin="round" stroke-dasharray=".429 3.434" overflow="visible" />
      <path d="M330.432 80.842c0 37.31-25.29 53.682-58.818 53.682-33.526 0-58.208-18.021-57.665-53.682.543-35.665 24.139-53.682 57.665-53.682 33.527 0 58.818 16.92 58.818 53.682z" style="marker:none" color="#000" fill="none" stroke="#000" stroke-width=".216" stroke-linecap="round" stroke-linejoin="round" stroke-dasharray=".216 5.176" overflow="visible" />
      <g>
         <path d="M332.041 342.035l16.503.962.546-30.38c.714-11.605.086-16.31-2.26-24.026-6.447-27.633-13.63-55.42-26.022-84.303-9.503-17.079-10.126-40.664-44.502-39.514-8.465-.373-16.945-.221-25.463 1.343-2.747 1.364-19.756 2.312-22.7 28.307 16.238-.326 20.46 5.744 35.72 11.875l3.604 2.234 4.38 11.939c-4.63 5.261-6.947 19.723-8.358 37.527-1.826 25.446-2.262 50.961-4.284 76.396l24.377.965 6.5-20.735 33.024-18.304c8.698 7.458 5.514 6.047 9.6 27.784-.353 5.156-.01 11.158-.665 17.93z" fill="#025" fill-rule="evenodd" stroke="#000" stroke-width=".205" stroke-linecap="round" stroke-linejoin="round" />
         <path d="M324.778 329.498l23.97 1.114-.212 12.356-24.607-.477.849-12.993z" fill="#fac53a" fill-rule="evenodd" stroke-linecap="round" stroke-linejoin="round" stroke="#c13c1b" stroke-width=".42" />
         <g fill="none" stroke="#c13c1b" stroke-width="3" stroke-linecap="round" stroke-linejoin="round">
            <path d="M325.726 331.143l21.675.825M325.651 333.092l21.675.825M325.651 335.192l21.675.825M325.576 337.142l21.675.825M325.651 339.167l21.675.675M325.501 341.267l21.75.525" stroke-width=".63" />
         </g>
         <path d="M198.32 791.325c23.779-5.526 41.441-16.17 48.103-21.242.148-.36.422-2.544.416-2.862l2.033-29.799h3.606l-1.909 28.001c-5.87 9.447-35.54 22.974-52.396 25.88l-9.015-.955c-1.051 2.667-2.534 6.653 3.606 7.505 60.093-.215 44.513-1.144 68.262-2 1.596 3.002 13.483 1.634 15.21 1.39 3.617-1.402 4.435-8.159 3.82-9.759-1.367-3.549-2.242-8.851-3.183-13.576-1.473-12.091-.6-24.183-.636-36.274 5.986-37.83 3.848-80.114 1.06-113.489 5.595-51.134 11.774-107.837 14.001-159.733 27.414-18.16-7.954-67.375-5.091-75.942 3.742-25.387 15.06-47.743 27.152-69.79h.425v2.333l-1.061 14.85c-.558 23.34 3.899 51.92 2.633 72.376-4.923 25.755-2.319 50.397.337 75.901l.212 12.94 19.304.424.848-12.94c3.412-22.415 5.344-44.83 4.243-67.244.399-2.707.314-4.949-.75-7.637 1.147-24.395 1.242-48.79.75-73.184l.212-14.001c.466-4.06 1.088-8.281 1.485-12.091 1.914-18.879-4.716-28.595-15.486-32.668-15.395-5.823-28.704-8.941-42.638-12.834l-39.903-4.773-42.19 15.91c-18.99 8-16.242 23.247-18.243 36.91l-3.607 14.425c-7.661 26.465-13.972 53.155-18.243 80.185-17.951 21.961-32.755 45.926-44.484 71.847l-5.4 9 10.8 10.5 7.5-9c14.273-14.146 36.824-36.431 47.699-62.399 3.352-2.297 4.221-6.597 4.766-9.413 12.176-28.257 20.967-68.458 24.3-85.349l3.033-15.186.9-2.25h.9v4.95c-1.388 6.55-2.212 13.1-2.4 19.65-1.398 3.239-1.95 4.708 1.2 5.1 1.429 4.342 7.503 10.9 9.9 12.9 9.813 6.862 7.687 15.061 6.6 22.799-11.225 79.878-21.416 114.683 1.8 228.596-1.857 13.574 1.2 24.2 1.8 36.3-3.18 30.6-5.59 61.199-5.4 91.798-.167 38.432-11.756 29.915-60.332 53.58l-7.636-.425c-2.31 2.876-.968 6.182.424 7.213l34.47.08c-5.561-1.43-3.762-4.785-2.923-7.55l9.116 1.022z" fill="#f5ca44" fill-rule="evenodd" stroke="#000" stroke-width=".42" stroke-linecap="round" stroke-linejoin="round" />
         <path d="M115.19 488.158c-7.607.454-16.966 2.371-23.982 11.688L87.25 501.8c1.557 4.537 5.692 2.417 7.152.266-.929 1.937-.665 3.257 1.706 3.49-.683 1.824-.127 2.971 2.07 3.224-1.35 1.732-.118 3.492 1.947 3.313-.94 2.293.229 3.417 1.48 3.561 3.207 1.76 19.04-15.307 20.683-16.781" fill="#f5ca44" fill-rule="evenodd" stroke="#000" stroke-width=".21" stroke-linecap="round" stroke-linejoin="round" />
         <g fill-rule="evenodd" stroke="#000" stroke-linecap="round" stroke-linejoin="round">
            <path d="M320.685 589.958c2.644-.864 4.81-.534 6.894 0l-1.215-33.075 15.75 1.052c-.482-2.369-.645-4.738 0-7.106l-15.75 1.104h0c3.298-5.895 7.924-11.124 9.587-19.746 3.362-17.424-5.523-16.693-11.687-16.748-6.71-.061-16.617.988-12.496 17.49 1.896 7.592 6.518 13.561 10.246 19.004h0l-17.7-1.104c.594 2.368.537 4.737 0 7.106l17.7-1.052h0l-1.329 33.075z" fill="#025" stroke-width=".21" />
            <path d="M322.014 547.063c-3.402-4.618-6.666-9.13-7.488-15.088-1.662-12.042 4.591-13.387 9.65-13.418 4.497-.027 11.144.61 8.169 13.312-1.396 5.96-3.568 11.32-5.981 15.194-1.51 2.046-3.133 1.711-4.35 0z" fill="#fff" stroke-width=".21" />
         </g>
         <path d="M315.693 497.186c-.974 4.869-3.38 10.024-5.728 15.167-3.104 4.928-3.306 11.216-2.44 17.183l-.317 5.621c8.741 1.046.295-10.62 5.833-14.955l.849 8.061c1.585 1.509 3.147 2.703 4.454.318 1.556 1.742 3.112 1.617 4.667-.318 1.902 2.46 3.455.728 5.091 0 1.744 1.364 3.59 1.849 4.773-1.273.344-8.514 2.891-16.782 2.28-29.274" fill="#f5ca44" fill-rule="evenodd" stroke="#000" stroke-width=".21" stroke-linecap="round" stroke-linejoin="round" />
         <path d="M309.637 272.171l-26.786-7.794-39.165-4.193-27.784 10.413c4.997 22.962 23.069 34.203 45.132 34.973 20.896.728 30.726-4.516 37.643-11.677 6.575-6.807 9.734-15.344 10.96-21.722z" fill="#fff" fill-rule="evenodd" stroke="#000" stroke-width=".22449" stroke-linecap="round" stroke-linejoin="round" />
         <path style="marker:none" d="M298.504 268.915c-4.615 19.074-16.576 26.143-37.797 25.038-20.573-1.072-31.25-13.713-33.374-26.57l-.335-.942" color="#000" fill="none" stroke="#04a" stroke-width="4.001969999999999" stroke-linejoin="round" overflow="visible" />
         <path style="marker:none" d="M288.258 265.972c-4.235 14.919-12.946 18.07-26.993 17.347-13.181-.678-23.293-9.395-23.202-20.207l-.235-.733" color="#000" fill="none" stroke="#308d57" stroke-width="2.45574" overflow="visible" />
         <path style="marker:none" d="M295.09 267.982c-3.529 13.463-11.328 23.64-34.074 22.354-19.207-1.086-28.808-13.555-29.992-24.623l-.212-.688" color="#000" fill="none" stroke="#c13c1b" stroke-width="2.45574" overflow="visible" />
         <path style="marker:none" d="M284.92 264.937c-.072.23-.032.183-.106.42-2.067 6.677-4.924 15.974-23.495 14.33-12.6-1.114-19.169-8.72-19.555-15.742-.019-.518-.201-1.783-.22-2.434l-.137-.443" color="#000" fill="none" stroke="#04a" stroke-width="3.6017099999999997" overflow="visible" />
         <path style="marker:none" d="M291.658 267.018c-4.576 18.08-18.564 20.712-30.813 19.827-16.807-1.218-25.805-11.652-26.307-22.672l-.198-.528" color="#000" fill="none" stroke="#04a" stroke-width="3.6017099999999997" overflow="visible" />
         <path style="marker:none" d="M305.098 270.843c-5.286 20.224-17.287 31.228-43.591 29.957a91.154 91.154 0 01-.33-.017c-30.525-1.583-38.193-21.255-40.566-31.034l-.293-.745" color="#000" fill="none" stroke="#fac53a" stroke-width="8.98317" overflow="visible" />
         <g fill="none" stroke="#c13c1b">
            <path d="M250.574 301.528c.542-1.586.26-4.392-.134-6.233-1.318 1.307-3.154 3.495-3.63 4.995-.914 2.883 2.842 3.932 3.764 1.238z" stroke-width=".22457" />
            <path d="M250.088 301.329c.401-1.174.196-3.252-.093-4.615-.974.97-2.33 2.59-2.683 3.701-.677 2.136 2.094 2.91 2.776.914z" stroke-width=".22457" />
            <path d="M250.095 301.27a2.21 2.21 0 00-1.199-.968c-.67-.216-1.127-.095-1.51.07M250.253 299.14c-.195-.253-.63-.502-.844-.568-.232-.071-.728-.059-.957.001" style="marker:none" color="#000" stroke-linecap="round" stroke-linejoin="round" overflow="visible" stroke-width=".22457" />
         </g>
         <g fill="none" stroke="#c13c1b">
            <path d="M255.286 302.305c.385-1.63-.167-4.396-.737-6.19-1.186 1.429-2.801 3.784-3.13 5.322-.63 2.958 3.21 3.639 3.867.868z" stroke-width=".22457" />
            <path d="M254.783 302.154c.285-1.207-.12-3.255-.54-4.584-.876 1.06-2.069 2.804-2.312 3.944-.467 2.19 2.366 2.692 2.852.64z" stroke-width=".22457" />
            <path d="M254.784 302.094a2.21 2.21 0 00-1.287-.847c-.688-.15-1.132.015-1.496.216M254.735 299.96c-.22-.233-.676-.44-.895-.484-.238-.048-.73.012-.953.094" style="marker:none" color="#000" stroke-linecap="round" stroke-linejoin="round" overflow="visible" stroke-width=".22457" />
         </g>
         <g fill="none" stroke="#c13c1b">
            <path d="M245.776 300.17c.696-1.523.694-4.344.486-6.215-1.442 1.17-3.486 3.165-4.108 4.61-1.196 2.778 2.437 4.195 3.622 1.605z" stroke-width=".22457" />
            <path d="M245.312 299.924c.516-1.128.518-3.216.366-4.6-1.066.867-2.577 2.346-3.037 3.416-.886 2.057 1.794 3.102 2.671 1.184z" stroke-width=".22457" />
            <path d="M245.325 299.866a2.21 2.21 0 00-1.097-1.082c-.646-.281-1.113-.206-1.51-.08M245.693 297.762c-.169-.27-.576-.561-.783-.648-.224-.094-.718-.131-.952-.094" style="marker:none" color="#000" stroke-linecap="round" stroke-linejoin="round" overflow="visible" stroke-width=".22457" />
         </g>
         <g fill="none" stroke="#c13c1b">
            <path d="M264.75 302.856c.052-1.674-1.043-4.273-1.96-5.917-.877 1.637-1.987 4.268-2 5.841-.026 3.025 3.872 2.923 3.96.076z" stroke-width=".22457" />
            <path d="M264.228 302.809c.038-1.24-.77-3.165-1.447-4.383-.646 1.213-1.465 3.162-1.475 4.327-.019 2.24 2.857 2.164 2.922.056z" stroke-width=".22457" />
            <path style="marker:none" d="M264.217 302.75a2.21 2.21 0 00-1.43-.572c-.705-.009-1.106.241-1.423.51M263.741 300.668c-.26-.183-.75-.294-.973-.294-.243 0-.713.158-.915.283" color="#000" stroke-linecap="round" stroke-linejoin="round" overflow="visible" stroke-width=".22457" />
         </g>
         <g fill="none" stroke="#c13c1b">
            <path d="M269.314 302.835c-.015-1.675-1.211-4.23-2.193-5.836-.81 1.67-1.817 4.344-1.768 5.916.094 3.023 3.985 2.768 3.961-.08z" stroke-width=".22457" />
            <path d="M268.79 302.808c-.011-1.24-.894-3.132-1.618-4.322-.598 1.237-1.34 3.217-1.304 4.381.07 2.24 2.94 2.05 2.922-.059z" stroke-width=".22457" />
            <path d="M268.777 302.75a2.21 2.21 0 00-1.453-.515c-.703.018-1.095.284-1.4.566M268.22 300.688c-.269-.173-.761-.264-.985-.255-.243.01-.706.185-.903.318" style="marker:none" color="#000" stroke-linecap="round" stroke-linejoin="round" overflow="visible" stroke-width=".22457" />
         </g>
         <g fill="none" stroke="#c13c1b">
            <path d="M259.974 302.77c.238-1.658-.56-4.363-1.287-6.1-1.054 1.53-2.452 4.02-2.641 5.582-.364 3.002 3.521 3.337 3.928.518z" stroke-width=".22457" />
            <path d="M259.46 302.665c.176-1.228-.411-3.232-.948-4.517-.777 1.133-1.81 2.977-1.95 4.134-.27 2.224 2.597 2.47 2.897.383z" stroke-width=".22457" />
            <path d="M259.455 302.605a2.21 2.21 0 00-1.358-.728c-.698-.088-1.125.116-1.47.348M259.215 300.483c-.238-.212-.711-.376-.934-.401-.241-.027-.726.077-.94.179" style="marker:none" color="#000" stroke-linecap="round" stroke-linejoin="round" overflow="visible" stroke-width=".22457" />
         </g>
         <g fill="none" stroke="#c13c1b">
            <path d="M301.055 285.602c-1.37-.963-4.144-1.478-6.021-1.616.886 1.632 2.472 4.007 3.779 4.883 2.512 1.685 4.57-1.627 2.242-3.267z" stroke-width=".22457" />
            <path d="M300.728 286.013c-1.015-.714-3.067-1.098-4.456-1.202.657 1.207 1.834 2.963 2.802 3.612 1.86 1.247 3.379-1.196 1.654-2.41z" stroke-width=".22457" />
            <path style="marker:none" d="M300.673 285.99a2.21 2.21 0 00-1.265.88c-.395.583-.406 1.056-.356 1.47M298.672 285.243c-.297.116-.658.463-.78.65-.134.204-.261.683-.268.92" color="#000" stroke-linecap="round" stroke-linejoin="round" overflow="visible" stroke-width=".22457" />
         </g>
         <g fill="none" stroke="#c13c1b">
            <path d="M303.577 281.11c-1.458-.825-4.268-1.065-6.15-1.019 1.041 1.538 2.853 3.745 4.24 4.49 2.665 1.43 4.388-2.069 1.91-3.472z" stroke-width=".22457" />
            <path d="M303.292 281.55c-1.08-.61-3.16-.791-4.552-.76.772 1.137 2.116 2.77 3.142 3.32 1.974 1.06 3.245-1.521 1.41-2.56z" stroke-width=".22457" />
            <path d="M303.235 281.533a2.21 2.21 0 00-1.172 1c-.336.618-.301 1.09-.21 1.496M301.17 280.985c-.283.145-.609.526-.713.725-.112.215-.192.704-.175.94" style="marker:none" color="#000" stroke-linecap="round" stroke-linejoin="round" overflow="visible" stroke-width=".22457" />
         </g>
         <g fill="none" stroke="#c13c1b">
            <path d="M298.286 289.643c-1.212-1.156-3.878-2.076-5.715-2.49.635 1.745 1.852 4.329 3.015 5.389 2.234 2.038 4.76-.933 2.7-2.899z" stroke-width=".22457" />
            <path d="M297.902 290c-.898-.855-2.87-1.539-4.229-1.848.472 1.29 1.376 3.202 2.237 3.987 1.655 1.51 3.518-.682 1.992-2.138z" stroke-width=".22457" />
            <path style="marker:none" d="M297.851 289.97a2.21 2.21 0 00-1.381.683c-.477.518-.558.984-.57 1.4M295.983 288.934c-.31.072-.719.362-.868.529-.162.18-.359.636-.4.87" color="#000" stroke-linecap="round" stroke-linejoin="round" overflow="visible" stroke-width=".22457" />
         </g>
         <g fill="none" stroke="#c13c1b">
            <path d="M306.578 272.19c-1.603-.489-4.398-.113-6.225.34 1.35 1.275 3.599 3.037 5.113 3.462 2.912.818 3.836-2.97 1.112-3.802z" stroke-width=".22457" />
            <path d="M306.395 272.682c-1.187-.362-3.256-.087-4.608.247 1 .941 2.666 2.243 3.788 2.558 2.157.605 2.838-2.19.82-2.805z" stroke-width=".22457" />
            <path d="M306.336 272.677a2.21 2.21 0 00-.928 1.23c-.193.678-.056 1.13.12 1.507M304.202 272.59c-.246.204-.48.646-.54.863-.063.234-.034.729.034.956" style="marker:none" color="#000" stroke-linecap="round" stroke-linejoin="round" overflow="visible" stroke-width=".22457" />
         </g>
         <g fill="none" stroke="#c13c1b">
            <path d="M305.214 276.563c-1.549-.639-4.367-.531-6.229-.253 1.223 1.397 3.293 3.365 4.76 3.932 2.821 1.092 4.101-2.592 1.469-3.679z" stroke-width=".22457" />
            <path d="M304.985 277.035c-1.147-.473-3.233-.396-4.61-.193.906 1.033 2.44 2.487 3.527 2.908 2.089.808 3.033-1.91 1.083-2.715z" stroke-width=".22457" />
            <path d="M304.927 277.025a2.21 2.21 0 00-1.04 1.137c-.257.655-.165 1.12-.025 1.51M302.81 276.736c-.263.179-.54.597-.618.807-.086.227-.104.722-.058.955" style="marker:none" color="#000" stroke-linecap="round" stroke-linejoin="round" overflow="visible" stroke-width=".22457" />
         </g>
         <g fill="none" stroke="#c13c1b">
            <path d="M291.164 296.345c-.833-1.453-3.127-3.094-4.77-4.014.112 1.853.543 4.677 1.356 6.024 1.561 2.59 4.829.462 3.414-2.01z" stroke-width=".22457" />
            <path d="M290.694 296.579c-.617-1.077-2.313-2.294-3.527-2.977.084 1.372.406 3.461 1.008 4.459 1.157 1.918 3.567.348 2.519-1.482z" stroke-width=".22457" />
            <path style="marker:none" d="M290.654 296.535a2.21 2.21 0 00-1.519.261c-.604.361-.815.785-.944 1.18M289.158 295.01c-.318-.02-.792.142-.983.26-.207.126-.525.507-.63.719" color="#000" stroke-linecap="round" stroke-linejoin="round" overflow="visible" stroke-width=".22457" />
         </g>
         <g fill="none" stroke="#c13c1b">
            <path d="M294.777 293.371c-1.058-1.299-3.588-2.545-5.358-3.186.411 1.811 1.295 4.527 2.316 5.724 1.962 2.302 4.84-.33 3.042-2.538z" stroke-width=".22457" />
            <path d="M294.351 293.678c-.783-.962-2.655-1.887-3.964-2.364.307 1.34.964 3.349 1.72 4.236 1.453 1.705 3.576-.236 2.244-1.872z" stroke-width=".22457" />
            <path d="M294.305 293.641a2.21 2.21 0 00-1.456.505c-.538.454-.677.906-.74 1.317M292.581 292.38c-.317.032-.759.268-.928.415-.183.16-.435.586-.506.812" style="marker:none" color="#000" stroke-linecap="round" stroke-linejoin="round" overflow="visible" stroke-width=".22457" />
         </g>
         <g fill="none" stroke="#c13c1b">
            <path d="M287.04 298.77c-.671-1.534-2.774-3.414-4.307-4.507-.09 1.855.033 4.708.694 6.135 1.273 2.744 4.751.983 3.612-1.627z" stroke-width=".22457" />
            <path d="M286.547 298.952c-.497-1.137-2.051-2.53-3.184-3.341-.065 1.373.03 3.485.52 4.542.941 2.032 3.508.732 2.664-1.201z" stroke-width=".22457" />
            <path style="marker:none" d="M286.512 298.904a2.21 2.21 0 00-1.538.095c-.64.294-.896.692-1.067 1.07M285.19 297.226c-.314-.054-.803.055-1.005.151-.22.104-.577.448-.706.647" color="#000" stroke-linecap="round" stroke-linejoin="round" overflow="visible" stroke-width=".22457" />
         </g>
         <g fill="none" stroke="#c13c1b">
            <path d="M278.32 301.689c-.3-1.649-1.911-3.963-3.15-5.38-.516 1.784-1.056 4.588-.741 6.13.604 2.963 4.396 2.052 3.89-.75z" stroke-width=".22457" />
            <path d="M277.798 301.751c-.221-1.22-1.412-2.935-2.327-3.985-.38 1.32-.776 3.397-.543 4.539.448 2.194 3.245 1.522 2.87-.554z" stroke-width=".22457" />
            <path d="M277.775 301.697a2.21 2.21 0 00-1.518-.263c-.69.138-1.031.466-1.285.796M276.876 299.759c-.293-.125-.794-.132-1.013-.085-.237.05-.664.302-.835.466" style="marker:none" color="#000" stroke-linecap="round" stroke-linejoin="round" overflow="visible" stroke-width=".22457" />
         </g>
         <g fill="none" stroke="#c13c1b">
            <path d="M282.721 300.494c-.458-1.612-2.289-3.757-3.66-5.046-.34 1.825-.602 4.67-.138 6.173.891 2.89 4.575 1.612 3.798-1.127z" stroke-width=".22457" />
            <path d="M282.209 300.607c-.34-1.194-1.692-2.784-2.706-3.74-.249 1.352-.44 3.458-.096 4.571.66 2.14 3.377 1.198 2.802-.831z" stroke-width=".22457" />
            <path style="marker:none" d="M282.18 300.555a2.21 2.21 0 00-1.537-.113c-.673.205-.98.565-1.2.917M281.096 298.714c-.304-.096-.803-.054-1.016.015-.232.073-.632.366-.786.546" color="#000" stroke-linecap="round" stroke-linejoin="round" overflow="visible" stroke-width=".22457" />
         </g>
         <g fill="none" stroke="#c13c1b">
            <path d="M273.904 302.448c-.121-1.67-1.478-4.143-2.56-5.684-.702 1.72-1.537 4.45-1.388 6.017.287 3.01 4.153 2.508 3.948-.333z" stroke-width=".22457" />
            <path d="M273.38 302.455c-.09-1.238-1.092-3.07-1.89-4.21-.518 1.272-1.133 3.295-1.023 4.455.212 2.23 3.065 1.859 2.913-.245z" stroke-width=".22457" />
            <path d="M273.362 302.398a2.21 2.21 0 00-1.482-.422c-.7.064-1.074.354-1.362.654M272.675 300.376c-.278-.156-.776-.216-.999-.192-.241.025-.693.23-.88.375" style="marker:none" color="#000" stroke-linecap="round" stroke-linejoin="round" overflow="visible" stroke-width=".22457" />
         </g>
         <g fill="none" stroke="#c13c1b">
            <path d="M237.008 296.278c1.002-1.342 1.596-4.1 1.788-5.972-1.657.839-4.076 2.356-4.99 3.637-1.755 2.463 1.496 4.616 3.202 2.335z" stroke-width=".22457" />
            <path d="M236.607 295.94c.742-.995 1.185-3.035 1.329-4.42-1.225.622-3.014 1.748-3.69 2.697-1.301 1.824 1.098 3.412 2.36 1.722z" stroke-width=".22457" />
            <path style="marker:none" d="M236.631 295.885a2.21 2.21 0 00-.843-1.29c-.572-.41-1.044-.436-1.458-.397M237.436 293.906c-.108-.3-.445-.67-.629-.799-.199-.139-.674-.28-.91-.293" color="#000" stroke-linecap="round" stroke-linejoin="round" overflow="visible" stroke-width=".22457" />
         </g>
         <g fill="none" stroke="#c13c1b">
            <path d="M241.182 298.495c.883-1.424 1.236-4.222 1.265-6.104-1.578.979-3.857 2.7-4.656 4.056-1.536 2.605 1.89 4.468 3.391 2.048z" stroke-width=".22457" />
            <path d="M240.754 298.193c.653-1.055.917-3.126.941-4.518-1.166.726-2.851 2.003-3.443 3.006-1.138 1.93 1.39 3.304 2.502 1.512z" stroke-width=".22457" />
            <path d="M240.773 298.136a2.21 2.21 0 00-.952-1.211c-.605-.36-1.078-.345-1.487-.27M241.404 296.096c-.134-.29-.502-.63-.696-.742-.21-.121-.696-.22-.933-.213" style="marker:none" color="#000" stroke-linecap="round" stroke-linejoin="round" overflow="visible" stroke-width=".22457" />
         </g>
         <g fill="none" stroke="#c13c1b">
            <path d="M233.028 293.59c1.193-1.177 2.195-3.813 2.666-5.636-1.764.58-4.384 1.717-5.48 2.846-2.106 2.17.785 4.788 2.814 2.79z" stroke-width=".22457" />
            <path d="M232.683 293.194c.883-.87 1.627-2.821 1.978-4.17-1.304.432-3.243 1.277-4.054 2.113-1.56 1.607.573 3.538 2.076 2.057z" stroke-width=".22457" />
            <path d="M232.715 293.144a2.21 2.21 0 00-.64-1.401c-.503-.493-.966-.589-1.382-.613M233.808 291.31c-.062-.313-.339-.73-.501-.885-.176-.168-.625-.378-.857-.427" style="marker:none" color="#000" stroke-linecap="round" stroke-linejoin="round" overflow="visible" stroke-width=".22457" />
         </g>
         <g fill="none" stroke="#c13c1b">
            <path d="M226.207 286.832c1.469-.806 3.152-3.07 4.102-4.694-1.855.077-4.686.455-6.048 1.243-2.618 1.514-.551 4.82 1.946 3.45z" stroke-width=".22457" />
            <path d="M225.983 286.358c1.087-.597 2.335-2.27 3.04-3.472-1.372.06-3.467.343-4.476.926-1.94 1.12-.414 3.56 1.436 2.546z" stroke-width=".22457" />
            <path style="marker:none" d="M226.027 286.318a2.21 2.21 0 00-.233-1.523c-.35-.61-.77-.83-1.162-.966M227.58 284.851c.025-.318-.128-.795-.242-.988-.123-.209-.497-.534-.707-.644" color="#000" stroke-linecap="round" stroke-linejoin="round" overflow="visible" stroke-width=".22457" />
         </g>
         <g fill="none" stroke="#c13c1b">
            <path d="M229.395 290.455c1.335-1.012 2.67-3.497 3.372-5.243-1.824.347-4.569 1.136-5.801 2.114-2.37 1.88.16 4.848 2.43 3.13z" stroke-width=".22457" />
            <path d="M229.104 290.019c.988-.75 1.979-2.588 2.501-3.879-1.35.26-3.38.846-4.293 1.57-1.755 1.393.11 3.582 1.792 2.309z" stroke-width=".22457" />
            <path d="M229.142 289.973a2.21 2.21 0 00-.453-1.472c-.435-.554-.882-.709-1.291-.786M230.463 288.295c-.02-.318-.241-.768-.382-.942-.153-.189-.57-.455-.795-.534" style="marker:none" color="#000" stroke-linecap="round" stroke-linejoin="round" overflow="visible" stroke-width=".22457" />
         </g>
         <g fill="none" stroke="#c13c1b">
            <path d="M223.695 282.92c1.503-.74 3.283-2.928 4.303-4.51-1.857-.004-4.701.251-6.096.978-2.682 1.399-.761 4.792 1.793 3.533z" stroke-width=".22457" />
            <path d="M223.491 282.437c1.113-.549 2.433-2.166 3.19-3.335-1.374-.001-3.48.19-4.513.73-1.986 1.035-.568 3.538 1.323 2.605z" stroke-width=".22457" />
            <path style="marker:none" d="M223.538 282.4a2.21 2.21 0 00-.167-1.532c-.323-.625-.732-.862-1.119-1.016M225.153 281.002c.04-.316-.093-.8-.198-.997-.114-.215-.474-.556-.68-.675" color="#000" stroke-linecap="round" stroke-linejoin="round" overflow="visible" stroke-width=".22457" />
         </g>
         <g fill="none" stroke="#c13c1b">
            <path d="M220 274.247c1.61-.466 3.745-2.308 5.027-3.687-1.828-.33-4.673-.576-6.174-.105-2.885.907-1.588 4.584 1.147 3.792z" stroke-width=".22457" />
            <path d="M219.885 273.735c1.191-.345 2.774-1.706 3.724-2.725-1.353-.241-3.459-.421-4.57-.072-2.138.671-1.18 3.384.846 2.797z" stroke-width=".22457" />
            <path d="M219.937 273.707a2.21 2.21 0 00.104-1.537c-.208-.673-.57-.978-.924-1.197M221.771 272.613c.095-.304.05-.803-.02-1.016-.074-.231-.369-.63-.55-.783" style="marker:none" color="#000" stroke-linecap="round" stroke-linejoin="round" overflow="visible" stroke-width=".22457" />
         </g>
         <g fill="none" stroke="#c13c1b">
            <path d="M221.533 278.586c1.566-.593 3.548-2.6 4.716-4.077-1.848-.182-4.704-.201-6.162.389-2.804 1.134-1.218 4.696 1.446 3.688z" stroke-width=".22457" />
            <path d="M221.376 278.085c1.16-.44 2.63-1.923 3.495-3.014-1.367-.132-3.481-.144-4.561.293-2.077.84-.906 3.468 1.066 2.721z" stroke-width=".22457" />
            <path style="marker:none" d="M221.426 278.053a2.21 2.21 0 00-.019-1.541c-.261-.654-.646-.929-1.016-1.119M223.168 276.816c.07-.311-.015-.805-.101-1.012-.094-.224-.419-.598-.612-.736" color="#000" stroke-linecap="round" stroke-linejoin="round" overflow="visible" stroke-width=".22457" />
         </g>
         <path d="M309.637 272.171l-26.786-7.794-39.165-4.193-27.784 10.413c4.997 22.962 23.069 34.203 45.132 34.973 20.896.728 30.726-4.516 37.643-11.677 6.575-6.807 9.734-15.344 10.96-21.722z" fill="none" stroke="#000" stroke-width=".22449" stroke-linecap="round" stroke-linejoin="round" />
         <path d="M252.6 274.507c-9.707-5.887-6.832-8.55-11.71-25.604-4.652.07-11.439-.53-13.796-1.593-1.857-.838-2.45-1.853-3.04-3.967-.334-1.199.018-3.116.526-5.186-.654-.916-1.779-1.183-2.696-1.734-.82-1.083-.273-2.216-.152-2.7-.577-.661-1.23-1.707-.83-2.599.664-1.102.917-2.19.289-3.246-2.457-.235-6.94-1.748-4.57-7.195 2.135-4.91 5.462-10.37 8.3-15.621l3.303-10.553c5.755.02 33.414-.188 33.437 9.86l4.456 1 4.033 3.025-.035.12 3.9-.3c-2.11 7.492-4.305 9.756-7.815 68.947-2.568.264-8.47-.032-13.6-2.654z" fill="#f5ca44" fill-rule="evenodd" stroke="#000" stroke-width=".205" />
         <path d="M228.595 198.877c3.29-1.83 6.56-2.31 9.912-2.119 1.75.1 3.971.553 5.809 1.82 7.276 5.017 7.282 4.424 10.035 5.349.129.193.319.392.012.546-1.406-.117-3.37-.729-5.38-1.51-1.875-.727-3.923-2.485-6.843-3.457-2.152-.716-4.592-.798-6.903-.736-2.136.057-4.28.85-6.751 1.64-.564.18-2.077-.318.109-1.533zM227.323 207.003c2.92-3.118 5.586-3.764 7.9-3.993 3.535-.348 8.9.213 11.754 1.381 2.05.839 4.1.487 6.67 1.034.481.103.494.892.003.924-2.41.156-5.117-.253-7.196.51-2.536.931-5.285 2.08-7.028 2.707-1.682.605-3.886 1.023-7.404.128-1.16-.295-2.188-.412-3.422.116-3.077 1.317-3.054-.91-1.277-2.807z" fill-rule="evenodd" stroke="#000" stroke-width=".205" />
         <path d="M220.93 231.233c4.783-.431 6.219 1.734 10.492 1.681M221.957 236.43c5.318.166 6.632-2.23 9.719-2.93" fill="none" stroke="#000" stroke-width=".105" stroke-linecap="round" stroke-linejoin="round" />
         <path d="M221.699 233.774c1.75.371 6.3.062 7.917-.166" fill="none" stroke="#000" stroke-width=".21" stroke-linecap="round" stroke-linejoin="round" />
         <path d="M228.709 208.024c.78-1.43 1.949-1.668 2.98-2.33-.029 1.01.457 1.77 1.293 2.271-1.039-.006-3.71-.203-4.273.06zM240.848 204.695c-.017 1.262-.196 2.472-1.228 3.41 1.794-.29 3.569-1.73 5.025-3.071-1.259.27-2.425-.142-3.797-.339z" fill="#fff" fill-rule="evenodd" stroke="#000" stroke-width=".21" />
         <path d="M223.434 222.269c3.76 3.045 1.74 4.93-.037 4.852-1.759-.078-4.297-3.064-4.93-1.39-.638 1.692 2.85 1.09 2.798.612" fill="none" stroke="#000" stroke-width=".084" />
         <path d="M271.603 217.999c-3.62 2.231-8.034 24.31-8.16 37.744-1.775 25.17-2.179 50.617-4.179 75.77l24.377.965 2-67.234" fill="#025" fill-rule="evenodd" stroke="#000" stroke-width=".205" stroke-linecap="round" stroke-linejoin="round" />
         <path d="M248.888 737.422h27.418c5.986-37.83 3.795-79.902 1.007-113.277 5.594-51.134 11.774-107.837 14-159.733 27.414-18.16-7.953-67.375-5.09-75.942 2.239-15.194 7.335-28.202 13.544-41.809h-89.131c1.428 4.343 7.384 9.251 9.78 11.25 9.813 6.863 7.688 15.062 6.6 22.8-11.224 79.878-21.416 114.683 1.8 228.596-1.857 13.574 1.2 24.2 1.8 36.3-3.18 30.6-5.59 61.199-5.4 91.798l23.672.017z" fill="#c13c1b" fill-rule="evenodd" stroke="#000" stroke-width=".42" stroke-linecap="round" stroke-linejoin="round" />
         <path d="M298.96 347.172l-3.097 7.066h-79.016c-2.122-2.145-4.322-4.7-5.511-7.066h87.624z" fill="#fff" fill-rule="evenodd" stroke="#fff" stroke-width=".63" />
         <path d="M211.667 348.29h87.187M216.85 354.384h79.237M215.035 352.736h81.823" fill="none" stroke="#000" stroke-width=".42" stroke-linecap="round" stroke-linejoin="round" />
         <g fill="none" stroke="#000" stroke-width="2" stroke-linecap="round" stroke-linejoin="round">
            <path d="M216.468 348.481v4.027M218.364 348.481v4.027M220.373 348.481v4.027" stroke-width=".42" />
         </g>
         <g fill="none" stroke="#000" stroke-width="2" stroke-linecap="round" stroke-linejoin="round">
            <path d="M231.215 348.481v4.027M233.11 348.481v4.027M235.119 348.481v4.027" stroke-width=".42" />
         </g>
         <g fill="none" stroke="#000" stroke-width="2" stroke-linecap="round" stroke-linejoin="round">
            <path d="M245.39 348.481v4.027M247.287 348.481v4.027M249.295 348.481v4.027" stroke-width=".42" />
         </g>
         <g fill="none" stroke="#000" stroke-width="2" stroke-linecap="round" stroke-linejoin="round">
            <path d="M259.866 348.481v4.027M261.762 348.481v4.027M263.77 348.481v4.027" stroke-width=".42" />
         </g>
         <g fill="none" stroke="#000" stroke-width="2" stroke-linecap="round" stroke-linejoin="round">
            <path d="M275.18 348.481v4.027M277.076 348.481v4.027M279.084 348.481v4.027" stroke-width=".42" />
         </g>
         <g fill="none" stroke="#000" stroke-width="2" stroke-linecap="round" stroke-linejoin="round">
            <path d="M288.756 348.481v4.027M290.652 348.481v4.027M292.66 348.481v4.027" stroke-width=".42" />
         </g>
         <path d="M276.808 730.205l-.975 6.996-50.153-.159.063-6.854 51.065.017z" fill="#fff" fill-rule="evenodd" stroke="#fff" stroke-width=".63" />
         <path d="M225.19 731.252h51.834M225.487 737.347h50.72M225.19 735.7h51" fill="none" stroke="#000" stroke-width=".42" stroke-linecap="round" stroke-linejoin="round" />
         <g fill="none" stroke="#000" stroke-width="2" stroke-linecap="round" stroke-linejoin="round">
            <path d="M228.332 731.444v4.027M230.228 731.444v4.027M232.236 731.444v4.027" stroke-width=".42" />
         </g>
         <g fill="none" stroke="#000" stroke-width="2" stroke-linecap="round" stroke-linejoin="round">
            <path d="M241.129 731.444v4.027M243.025 731.444v4.027M245.033 731.444v4.027" stroke-width=".42" />
         </g>
         <g fill="none" stroke="#000" stroke-width="2" stroke-linecap="round" stroke-linejoin="round">
            <path d="M255.286 731.444v4.027M257.182 731.444v4.027M259.19 731.444v4.027" stroke-width=".42" />
         </g>
         <g fill="none" stroke="#000" stroke-width="2" stroke-linecap="round" stroke-linejoin="round">
            <path d="M269.221 731.444v4.027M271.117 731.444v4.027M273.125 731.444v4.027" stroke-width=".42" />
         </g>
         <path d="M225.274 729.843h51.959" fill="none" stroke="#000" stroke-width=".42" stroke-linecap="round" stroke-linejoin="round" />
         <g fill-rule="evenodd" stroke="#000" stroke-linecap="round" stroke-linejoin="round">
            <path d="M207.473 273.823l12.427 72.88h12.493l-18.282-75.393-6.638 2.513z" fill="#fff" stroke-width=".21" />
            <path d="M208.635 273.377l13.177 73.325h8.782l-17.841-74.897-4.118 1.572z" fill="#c13c1b" stroke-width=".21" />
         </g>
         <g fill-rule="evenodd" stroke="#000" stroke-linecap="round" stroke-linejoin="round">
            <path d="M309.234 272.09l-22.578 74.571h10.5l18.026-72.594-5.948-1.977z" fill="#fff" stroke-width=".21" />
            <path d="M310.418 272.48l-21.853 74.181h6.681l18.655-73.072-3.483-1.109z" fill="#c13c1b" stroke-width=".21" />
         </g>
         <g fill-rule="evenodd" stroke="#000" stroke-linecap="round" stroke-linejoin="round">
            <path d="M183.449 313.103l26.278 5.302-2.939 14.559-27.101-5.24 3.762-14.621z" fill="#fac53a" stroke-width=".21" />
            <path d="M183.01 314.773l26.383 5.468-.981 4.792-26.626-5.53 1.224-4.73zM181.42 321.19l26.607 5.618-.981 4.451-26.851-5.34 1.224-4.729z" fill="#04a" stroke-width=".21" />
         </g>
         <g fill-rule="evenodd" stroke="#000" stroke-linecap="round" stroke-linejoin="round">
            <path d="M117.526 478.832l13.373 10.313-8.41 9.88-10.845-10.614 5.882-9.579z" fill="#fac53a" stroke-width=".21" />
            <path d="M116.734 480.12l12.872 10.32-2.482 2.93-12.1-10.334 1.71-2.916zM114.082 484.362l12.122 10.245-2.481 2.931-11.35-10.26 1.71-2.916z" fill="#04a" stroke-width=".21" />
         </g>
         <g stroke="#c13c1b" stroke-width="2">
            <path d="M260.078 318.892l23.97 1.113-.476 12.41-24.342-.53.848-12.993z" fill="#fac53a" fill-rule="evenodd" stroke-linecap="round" stroke-linejoin="round" stroke-width=".42" />
         </g>
         <path d="M311.984 184.095l-21.4 58.56-9.019-3.837L307.7 181.33c-17.766 5.83-53.387 3.35-76.899 1.681.65-1.762 2.509-5.344 2.696-5.344 34.759 3.785 67.594.92 73.532-1.195" fill="#fff" fill-rule="evenodd" stroke="#000" stroke-width=".21" stroke-linecap="round" stroke-linejoin="round" />
         <path d="M308.29 176.647c.313-.252.412-.47.426-.672 2.379-8.935 7.481-8.69 9.308-7.255 4.89 4.267-.155 6.341-4.37 12.086l28.831 59.087-7.608 3.256-23.493-59.054-21.85 58.035-6.994-2.937 26.609-59.246c-15.73 6.699-54.053 4.186-78.134 2.368.807-1.762 1.724-3.667 1.938-3.905 34.758 3.785 69.4.352 75.337-1.763z" fill="#d40000" fill-rule="evenodd" />
         <path d="M313.254 178.063c-1.018-2.564.185-4.735 1.686-5.594" fill="none" stroke="#000" stroke-width=".21" />
         <path d="M311.272 184.095c-1.977-4.808-3.137-6.388-2.616-8.116 2.7-8.948 7.429-8.694 9.256-7.26 4.89 4.268-.155 6.342-4.37 12.087l28.83 59.087-7.608 3.256s-16.644-42.403-23.492-59.054z" fill="none" stroke="#000" stroke-width=".21" stroke-linecap="round" stroke-linejoin="round" />
         <path d="M221.482 226.356c-1.322-.784-2.593-1.742-3.015-.624-.638 1.691 2.85 1.09 2.798.611" fill-rule="evenodd" stroke="#000" stroke-width=".084" />
         <g stroke="#000">
            <path d="M269.903 210.21c-3.654-2.283-3.81-5.887-2.631-7.87 2.825-4.753 5.05-5.618 7.176-5.057 4.112 1.086 3.624 6.183 2.757 10.547-.842 4.238-4.14 7.126-5.92 10.683-1.11 2.215-1.614 3.745-2.348 4.578-.85.966-2.338 2.372-4.43 1.424-2.306-1.046-1.803-3.878-.668-7.453.9-2.835 3.593-5.22 4.962-6.042" fill="#f5ca44" fill-rule="evenodd" stroke-width=".20454" />
            <path d="M267.022 218.052c-.965-.302 2.075-2.944 3.643-5.326 2.021-3.072-.154-4.455-1.15-6.337-1.637-3.098 1.029-7.834 3.861-7.115 3.373.856 4.836 5.2.704 11.733-1.855 2.933-4.94 7.706-7.058 7.045z" fill="none" stroke-width=".21" />
            <path style="marker:none" d="M267.34 221.638a1.312 1.425 0 11-2.625 0 1.312 1.425 0 112.625 0z" color="#000" fill="none" stroke-linecap="round" stroke-linejoin="round" overflow="visible" stroke-width=".21" />
         </g>
         <path d="M229.124 247.903c12.135 1.963 17.545.663 22.006-2.378M241.97 252.47c3.103-.14 6.132-1.403 9.15-2.7M242.87 256.289c4.103.774 6.76-1.538 9.75-2.85" fill="none" stroke="#000" stroke-width=".105" />
         <g fill-rule="evenodd" stroke="#000" stroke-linecap="round" stroke-linejoin="round">
            <path d="M313.723 321.525l26.786 1.097-.234 14.99-27.664-.636 1.112-15.45z" fill="#fac53a" stroke-width=".21" />
            <path d="M313.553 323.244l26.914 1.243-.064 4.887-27.014-1.267.164-4.863zM313.068 329.831l27.235 1.356-.043 4.626-27.582-.819.39-5.163z" fill="#04a" stroke-width=".21" />
         </g>
         <g fill-rule="evenodd" stroke="#000" stroke-linecap="round" stroke-linejoin="round">
            <path d="M224.841 744.94l23.273 1.01-1.105 14.915-24.693-1.424 2.525-14.501z" fill="#fac53a" stroke-width=".21" />
            <path d="M224.58 746.49l23.43 1.25-.236 4.213-24.024-.802.83-4.661zM223.495 753.226l24.044 1.104-.293 4.362-24.603-.761.852-4.705z" fill="#04a" stroke-width=".21" />
         </g>
         <g fill-rule="evenodd" stroke="#000" stroke-linecap="round" stroke-linejoin="round">
            <path d="M251.852 747.068l24.355-.058-.155 14.95-25.316-.291 1.116-14.601z" fill="#fac53a" stroke-width=".21" />
            <path d="M251.716 748.627l24.47.176-.044 4.22-24.671.3.245-4.696zM251.258 755.406l24.812.002-.093 4.746-25.143-.009.424-4.739z" fill="#04a" stroke-width=".21" />
         </g>
         <g fill-rule="evenodd" stroke="#000" stroke-linecap="round" stroke-linejoin="round">
            <path d="M315.71 484.511l20.416.16-.848 12.886-19.463-.742-.106-12.304z" fill="#fac53a" stroke-width=".21" />
            <path d="M315.71 486.367l20.257.266-.208 3.981-19.997-.314-.053-3.933z" fill="#04a" stroke-width=".21" />
            <path d="M315.71 484.511l20.416.16-.848 12.886-19.463-.742-.106-12.304z" fill="#fac53a" stroke-width=".21" />
            <path d="M315.71 486.367l20.257.266-.208 3.981-19.997-.314-.053-3.933zM315.71 491.542l19.94.266-.21 3.981-19.678-.314-.053-3.933z" fill="#04a" stroke-width=".21" />
         </g>
         <g fill="none" stroke="#c13c1b" stroke-width="3" stroke-linecap="round" stroke-linejoin="round">
            <path d="M260.815 320.262l21.674.825M260.74 322.212l21.674.825M260.74 324.312l21.674.825M260.665 326.262l21.674.825M260.74 328.287l21.674.675M260.59 330.387l21.75.525" stroke-width=".63" />
         </g>
         <path d="M90.605 307.851c.703-6.984-.396-13.116 2.472-21.609 3.5-10.363 6.996-12.16 11.072-17.605 1.544-1.262 4.086.057 3.252 2.456-4.727 4.403-8.101 10.415-9.48 13.847 1.419-.16 8.248-.685 8.401 6.392L106.3 774.55c7.603 8.725 1.068 15.432 1.476 23.013-.777.374-1.394.135-1.473-.526-1.018-8.296 1.812-11.913-.05-16.227-.89-2.062-2.557-1.966-3.528-.21-2.091 3.782.839 6.109.074 16.356-.055.746-.97.961-1.342.514-.476-7.616-5.74-14.036 1.228-22.928l-.008-482.633c-.393-3.949-4.664-4.372-6.785.09-2.487 5.229-1.433 10.65-2.1 15.974-1.104 3.43-3.373 2.108-3.186-.123z" fill="#025" fill-rule="evenodd" stroke="#000" stroke-width=".21" stroke-linecap="round" stroke-linejoin="round" />
         <g fill-rule="evenodd" stroke="#000" stroke-linecap="round" stroke-linejoin="round">
            <path d="M104.594 495.108c2.877-1.802 6.044-1.184 3.229 1.627 2.37-1.859 6.8-1.075 1.96 2.738 4.276-2.042 4.187 1.245 1.938 2.886 2.887-1.411 3.366 1.289.33 3.696-3.102 3.182-6.687 6.395-10.148 9.52-.064.055-.146.087-.269.062-1.251-.144-2.413-1.146-1.472-3.44-2.065.18-3.297-1.58-1.948-3.312-2.196-.253-2.752-1.4-2.07-3.225-2.37-.232-2.902-1.219-1.973-3.155.114-.159.221-.28.324-.368 3.694-3.298 7.02-5.602 10.009-6.987m.644-.313c-.299.876.48 2.184 1.992 2.353m.651-.329c-.708.995.932 2.602 1.902 2.639m.263-.121c-1 1.019.086 3.482 2.097 2.686m-.37.338c-.63 1.123.199 2.423 1.227 2.778m-14.686 3.703c.417-.238 11.582-9.395 11.582-9.395m-13.558 6.122c.612-.511 11.617-8.888 11.617-8.888m-7.654 15.46l11.59-9.874" fill="#f5ca44" stroke-width=".21" />
            <path d="M107.791 496.861c-.189.106-.241.347-.651.33-1.846-.175-2.108-2.04-2.007-2.36 2.69-1.403 5.347-.667 2.714 1.962 2.371-1.86 6.775-1.133 1.937 2.68 4.275-2.042 4.245 1.167 1.996 2.808 2.566-1.254 3.17.817 1.143 2.933-1.041-.388-1.87-1.688-1.129-2.918-1.9.69-2.838-1.898-1.97-2.857-1.101.024-2.741-1.583-2.033-2.578z" fill="#fff" stroke-width=".21" />
         </g>
         <path d="M108.665 494.43c-1.71-.824-4.16.257-9.705 4.056l-.424-5.515c5.728-3.138 8.234-3.943 12.992-4.481" fill="#f5ca44" fill-rule="evenodd" />
         <path d="M98.96 498.486c5.545-3.799 8.07-4.88 9.78-4.057m2.735-5.913c-4.758.538-7.305 1.233-13.033 4.53" fill="none" stroke="#000" stroke-width=".21" />
      </g>
      <rect width="60" height="2.054" x="241.683" y="153.856" ry=".694" fill="#c13c1b" stroke="#000" stroke-width=".5" stroke-linecap="round" stroke-linejoin="round" />
   </g>
</svg>