<svg xmlns="http://www.w3.org/2000/svg" width="350" height="775" version="1.0">
   <defs>
      <linearGradient id="prefix__a">
         <stop offset="0" stop-color="#c13c1b" />
         <stop offset=".839" stop-color="#c13c1b" stop-opacity=".498" />
         <stop offset="1" stop-color="#c13c1b" stop-opacity="0" />
      </linearGradient>
   </defs>
   <path d="M290.61 312.356l16.503.962.546-30.38c.714-11.605.087-16.31-2.26-24.026-6.447-27.633-13.63-55.42-26.022-84.304-9.503-17.078-10.126-40.663-44.502-39.513-8.465-.373-16.944-.221-25.463 1.343-2.746 1.364-19.756 2.312-22.7 28.307 16.238-.326 20.46 5.744 35.72 11.875l3.605 2.234 4.379 11.939c-4.63 5.261-6.946 19.723-8.358 37.527-1.826 25.445-2.262 50.961-4.284 76.396l24.377.965 6.5-20.735 33.024-18.304c8.699 7.458 5.514 6.047 9.6 27.784-.353 5.156-.01 11.158-.664 17.93z" fill="#025" fill-rule="evenodd" stroke="#000" stroke-width=".205" stroke-linecap="round" stroke-linejoin="round" />
   <path d="M283.347 299.82l23.97 1.113-.212 12.356-24.607-.477.849-12.993z" fill="#fac53a" fill-rule="evenodd" stroke-linecap="round" stroke-linejoin="round" stroke="#c13c1b" stroke-width=".42" />
   <g fill="none" stroke="#c13c1b" stroke-width="3" stroke-linecap="round" stroke-linejoin="round">
      <path d="M284.296 301.463l21.674.825M284.22 303.413l21.675.825M284.22 305.513l21.675.825M284.146 307.463l21.674.825M284.22 309.488l21.675.675M284.07 311.588l21.75.525" stroke-width=".63" />
   </g>
   <path d="M156.89 761.646c22.707-4.633 41.798-16.26 48.281-21.421.148-.36.243-2.365.237-2.683l2.034-29.8h3.606l-1.91 28.002c-5.87 9.447-35.539 22.974-52.395 25.88l-9.016-.955c-1.051 2.667-2.534 6.653 3.606 7.505 60.093-.215 44.513-1.144 68.262-2 1.596 3.002 13.484 1.634 15.211 1.39 3.616-1.402 4.434-8.159 3.818-9.759-1.366-3.549-2.24-8.851-3.181-13.576-1.474-12.091-.6-24.183-.637-36.274 5.987-37.83 3.848-80.114 1.06-113.489 5.595-51.134 11.774-107.837 14.001-159.733 27.414-18.16-7.954-67.375-5.09-75.942 3.741-25.387 15.06-47.743 27.152-69.79h.424v2.333l-1.06 14.85c-.559 23.34 3.898 51.92 2.633 72.376-4.924 25.755-2.32 50.397.336 75.901l.212 12.94 19.304.424.848-12.94c3.412-22.415 5.344-44.83 4.243-67.244.399-2.707.314-4.95-.75-7.637 1.147-24.395 1.242-48.79.75-73.185l.212-14c.466-4.06 1.088-8.281 1.485-12.091 1.915-18.879-4.716-28.595-15.485-32.668-15.396-5.823-28.705-8.941-42.638-12.834l-39.904-4.773-42.19 15.91c-18.99 8-16.242 23.247-18.243 36.91l-3.606 14.425c-7.662 26.465-13.973 53.155-18.243 80.185-17.952 21.961-32.756 45.926-44.485 71.847l-5.4 9 10.8 10.5 7.5-9c14.273-14.146 36.825-36.431 47.699-62.399 3.352-2.297 4.222-6.597 4.767-9.413 12.175-28.257 20.966-68.458 24.3-85.349l3.032-15.186.9-2.25h.9v4.95c-1.388 6.55-2.211 13.1-2.4 19.65-1.398 3.239-1.95 4.708 1.2 5.1 1.429 4.342 7.503 10.9 9.9 12.9 9.813 6.862 7.687 15.061 6.6 22.799-11.225 79.878-21.416 114.682 1.8 228.596-1.857 13.574 1.2 24.2 1.8 36.3-3.18 30.6-5.59 61.199-5.4 91.798-.167 38.431-11.756 29.915-60.331 53.58l-7.637-.425c-2.31 2.876-.968 6.181.424 7.213l34.471.08c-5.562-1.43-3.763-4.785-2.924-7.55l9.117 1.022z" fill="#f5ca44" fill-rule="evenodd" stroke="#000" stroke-width=".42" stroke-linecap="round" stroke-linejoin="round" />
   <path d="M73.76 458.479c-7.608.454-16.967 2.371-23.983 11.688l-3.958 1.954c1.558 4.537 5.693 2.417 7.152.266-.929 1.937-.665 3.257 1.706 3.49-.682 1.823-.126 2.971 2.07 3.224-1.35 1.732-.118 3.492 1.948 3.313-.941 2.293.228 3.417 1.48 3.561 3.207 1.76 19.039-15.307 20.682-16.781" fill="#f5ca44" fill-rule="evenodd" stroke="#000" stroke-width=".21" stroke-linecap="round" stroke-linejoin="round" />
   <g fill-rule="evenodd" stroke="#000" stroke-linecap="round" stroke-linejoin="round">
      <path d="M279.255 560.279c2.643-.864 4.81-.534 6.894 0l-1.216-33.075 15.75 1.052c-.482-2.369-.645-4.738 0-7.106l-15.75 1.104h0c3.299-5.896 7.924-11.124 9.587-19.746 3.362-17.425-5.523-16.693-11.687-16.748-6.71-.061-16.617.988-12.495 17.49 1.895 7.591 6.517 13.561 10.245 19.004h0l-17.7-1.104c.595 2.368.537 4.737 0 7.106l17.7-1.052h0l-1.328 33.075z" fill="#025" stroke-width=".21" />
      <path d="M280.583 517.384c-3.401-4.618-6.666-9.13-7.488-15.088-1.661-12.042 4.591-13.388 9.65-13.418 4.498-.027 11.145.61 8.17 13.312-1.397 5.96-3.568 11.32-5.982 15.194-1.51 2.046-3.133 1.711-4.35 0z" fill="#fff" stroke-width=".21" />
   </g>
   <path d="M274.262 467.507c-.974 4.869-3.379 10.024-5.727 15.167-3.105 4.928-3.307 11.216-2.44 17.183l-.318 5.621c8.742 1.046.296-10.62 5.833-14.955l.849 8.06c1.585 1.51 3.148 2.704 4.455.32 1.555 1.741 3.11 1.616 4.667-.32 1.902 2.46 3.454.73 5.09 0 1.744 1.365 3.59 1.85 4.774-1.272.343-8.514 2.89-16.782 2.28-29.274" fill="#f5ca44" fill-rule="evenodd" stroke="#000" stroke-width=".21" stroke-linecap="round" stroke-linejoin="round" />
   <path d="M268.207 242.492l-26.787-7.795-39.165-4.192-27.784 10.413c4.997 22.962 23.07 34.203 45.132 34.973 20.896.728 30.726-4.516 37.644-11.677 6.575-6.807 9.733-15.344 10.96-21.722z" fill="#fff" fill-rule="evenodd" stroke="#000" stroke-width=".22449" stroke-linecap="round" stroke-linejoin="round" />
   <path style="marker:none" d="M257.073 239.236c-4.615 19.074-16.576 26.143-37.797 25.038-20.573-1.072-31.25-13.713-33.374-26.57l-.334-.942" color="#000" fill="none" stroke="#04a" stroke-width="4.001969999999999" stroke-linejoin="round" overflow="visible" />
   <path style="marker:none" d="M246.828 236.293c-4.236 14.919-12.947 18.07-26.994 17.347-13.181-.678-23.292-9.395-23.201-20.207l-.236-.733" color="#000" fill="none" stroke="#308d57" stroke-width="2.45574" overflow="visible" />
   <path style="marker:none" d="M253.66 238.303c-3.53 13.463-11.328 23.64-34.075 22.354-19.207-1.086-28.807-13.555-29.992-24.623l-.212-.688" color="#000" fill="none" stroke="#c13c1b" stroke-width="2.45574" overflow="visible" />
   <path style="marker:none" d="M243.49 235.258c-.073.23-.033.183-.106.42-2.068 6.677-4.925 15.974-23.496 14.33-12.6-1.114-19.168-8.72-19.555-15.742-.018-.518-.2-1.783-.22-2.434l-.137-.443" color="#000" fill="none" stroke="#04a" stroke-width="3.6017099999999997" overflow="visible" />
   <path style="marker:none" d="M250.227 237.339c-4.576 18.08-18.563 20.712-30.812 19.827-16.808-1.218-25.806-11.652-26.307-22.672l-.199-.528" color="#000" fill="none" stroke="#04a" stroke-width="3.6017099999999997" overflow="visible" />
   <path style="marker:none" d="M263.667 241.164c-5.286 20.224-17.287 31.228-43.59 29.957a91.154 91.154 0 01-.33-.017c-30.526-1.583-38.193-21.255-40.567-31.034l-.293-.746" color="#000" fill="none" stroke="#fac53a" stroke-width="8.98317" overflow="visible" />
   <g fill="none" stroke="#c13c1b">
      <path d="M209.143 271.848c.542-1.585.26-4.391-.133-6.232-1.319 1.307-3.155 3.495-3.63 4.995-.914 2.883 2.841 3.932 3.763 1.237z" stroke-width=".22457" />
      <path d="M208.658 271.65c.4-1.175.195-3.252-.093-4.615-.975.97-2.331 2.59-2.684 3.701-.677 2.136 2.094 2.91 2.777.913z" stroke-width=".22457" />
      <path d="M208.664 271.59a2.21 2.21 0 00-1.199-.967c-.67-.216-1.127-.095-1.51.07M208.822 269.46c-.195-.252-.63-.501-.844-.567-.232-.071-.727-.059-.957.001" style="marker:none" color="#000" stroke-linecap="round" stroke-linejoin="round" overflow="visible" stroke-width=".22457" />
   </g>
   <g fill="none" stroke="#c13c1b">
      <path d="M213.855 272.626c.385-1.63-.167-4.396-.737-6.19-1.186 1.428-2.8 3.784-3.129 5.322-.63 2.958 3.21 3.639 3.866.868z" stroke-width=".22457" />
      <path d="M213.352 272.475c.286-1.208-.12-3.255-.54-4.584-.875 1.06-2.068 2.804-2.311 3.944-.467 2.19 2.365 2.692 2.851.64z" stroke-width=".22457" />
      <path d="M213.353 272.415a2.21 2.21 0 00-1.287-.847c-.688-.15-1.131.015-1.496.216M213.304 270.28c-.219-.232-.675-.438-.895-.483-.238-.048-.73.012-.952.094" style="marker:none" color="#000" stroke-linecap="round" stroke-linejoin="round" overflow="visible" stroke-width=".22457" />
   </g>
   <g fill="none" stroke="#c13c1b">
      <path d="M204.345 270.491c.697-1.523.695-4.344.486-6.215-1.442 1.17-3.486 3.165-4.108 4.61-1.196 2.778 2.437 4.195 3.622 1.605z" stroke-width=".22457" />
      <path d="M203.882 270.245c.515-1.128.517-3.216.365-4.6-1.066.867-2.577 2.345-3.037 3.416-.886 2.057 1.794 3.102 2.672 1.184z" stroke-width=".22457" />
      <path d="M203.894 270.187a2.21 2.21 0 00-1.097-1.082c-.645-.281-1.112-.206-1.509-.08M204.263 268.083c-.17-.27-.577-.562-.784-.648-.223-.094-.718-.131-.952-.094" style="marker:none" color="#000" stroke-linecap="round" stroke-linejoin="round" overflow="visible" stroke-width=".22457" />
   </g>
   <g fill="none" stroke="#c13c1b">
      <path d="M223.32 273.177c.051-1.674-1.044-4.273-1.961-5.917-.876 1.637-1.987 4.268-2 5.841-.026 3.025 3.873 2.923 3.961.076z" stroke-width=".22457" />
      <path d="M222.797 273.13c.038-1.24-.77-3.165-1.446-4.383-.646 1.213-1.466 3.162-1.476 4.327-.019 2.24 2.857 2.164 2.922.056z" stroke-width=".22457" />
      <path style="marker:none" d="M222.786 273.071a2.21 2.21 0 00-1.43-.572c-.704-.009-1.106.241-1.423.51M222.31 270.99c-.26-.184-.749-.295-.973-.295-.243 0-.713.158-.914.283" color="#000" stroke-linecap="round" stroke-linejoin="round" overflow="visible" stroke-width=".22457" />
   </g>
   <g fill="none" stroke="#c13c1b">
      <path d="M227.883 273.156c-.014-1.675-1.21-4.23-2.192-5.836-.811 1.67-1.817 4.343-1.769 5.916.094 3.023 3.985 2.767 3.961-.08z" stroke-width=".22457" />
      <path d="M227.36 273.129c-.012-1.24-.895-3.132-1.619-4.322-.598 1.237-1.34 3.217-1.304 4.381.07 2.24 2.94 2.05 2.922-.059z" stroke-width=".22457" />
      <path d="M227.346 273.071a2.21 2.21 0 00-1.452-.515c-.704.018-1.095.284-1.401.566M226.788 271.01c-.267-.174-.76-.265-.984-.256-.242.01-.706.185-.902.318" style="marker:none" color="#000" stroke-linecap="round" stroke-linejoin="round" overflow="visible" stroke-width=".22457" />
   </g>
   <g fill="none" stroke="#c13c1b">
      <path d="M218.543 273.091c.238-1.658-.56-4.363-1.287-6.1-1.053 1.53-2.452 4.02-2.64 5.582-.365 3.002 3.52 3.337 3.927.518z" stroke-width=".22457" />
      <path d="M218.029 272.986c.176-1.228-.411-3.232-.947-4.517-.778 1.133-1.81 2.977-1.95 4.134-.27 2.224 2.596 2.47 2.897.383z" stroke-width=".22457" />
      <path d="M218.024 272.926a2.21 2.21 0 00-1.357-.728c-.699-.088-1.126.116-1.47.348M217.784 270.804c-.238-.212-.711-.376-.934-.401-.241-.027-.726.077-.94.178" style="marker:none" color="#000" stroke-linecap="round" stroke-linejoin="round" overflow="visible" stroke-width=".22457" />
   </g>
   <g fill="none" stroke="#c13c1b">
      <path d="M259.624 255.923c-1.37-.963-4.143-1.478-6.02-1.616.885 1.632 2.472 4.007 3.778 4.883 2.512 1.685 4.57-1.627 2.242-3.267z" stroke-width=".22457" />
      <path d="M259.297 256.334c-1.015-.714-3.067-1.098-4.456-1.202.658 1.207 1.835 2.963 2.802 3.612 1.86 1.247 3.379-1.196 1.654-2.41z" stroke-width=".22457" />
      <path style="marker:none" d="M259.242 256.311a2.21 2.21 0 00-1.265.88c-.394.583-.406 1.056-.355 1.469M257.241 255.563c-.296.117-.657.464-.78.652-.134.203-.26.682-.267.919" color="#000" stroke-linecap="round" stroke-linejoin="round" overflow="visible" stroke-width=".22457" />
   </g>
   <g fill="none" stroke="#c13c1b">
      <path d="M262.146 251.43c-1.458-.824-4.268-1.065-6.15-1.018 1.042 1.538 2.854 3.745 4.24 4.489 2.665 1.43 4.389-2.068 1.91-3.47z" stroke-width=".22457" />
      <path d="M261.861 251.871c-1.08-.61-3.16-.792-4.552-.76.773 1.137 2.116 2.77 3.143 3.32 1.974 1.06 3.245-1.521 1.41-2.56z" stroke-width=".22457" />
      <path d="M261.804 251.854a2.21 2.21 0 00-1.172 1c-.336.618-.3 1.09-.21 1.496M259.74 251.306c-.284.145-.61.526-.713.725-.113.214-.193.704-.176.94" style="marker:none" color="#000" stroke-linecap="round" stroke-linejoin="round" overflow="visible" stroke-width=".22457" />
   </g>
   <g fill="none" stroke="#c13c1b">
      <path d="M256.856 259.964c-1.213-1.156-3.88-2.076-5.716-2.49.635 1.745 1.852 4.329 3.015 5.389 2.235 2.038 4.76-.933 2.7-2.899z" stroke-width=".22457" />
      <path d="M256.471 260.322c-.898-.856-2.87-1.54-4.228-1.849.471 1.29 1.375 3.202 2.236 3.987 1.655 1.51 3.519-.682 1.992-2.138z" stroke-width=".22457" />
      <path style="marker:none" d="M256.42 260.29a2.21 2.21 0 00-1.38.684c-.477.518-.559.984-.57 1.4M254.553 259.255c-.311.072-.72.362-.87.529-.161.18-.358.636-.399.869" color="#000" stroke-linecap="round" stroke-linejoin="round" overflow="visible" stroke-width=".22457" />
   </g>
   <g fill="none" stroke="#c13c1b">
      <path d="M265.147 242.51c-1.602-.488-4.398-.112-6.224.342 1.35 1.274 3.598 3.036 5.113 3.461 2.911.818 3.835-2.97 1.111-3.802z" stroke-width=".22457" />
      <path d="M264.964 243.003c-1.186-.362-3.256-.087-4.608.247 1.001.941 2.667 2.243 3.788 2.558 2.157.605 2.838-2.19.82-2.805z" stroke-width=".22457" />
      <path d="M264.905 242.998a2.21 2.21 0 00-.927 1.23c-.193.678-.057 1.13.12 1.507M262.771 242.911c-.245.204-.48.646-.539.863-.063.234-.035.729.033.956" style="marker:none" color="#000" stroke-linecap="round" stroke-linejoin="round" overflow="visible" stroke-width=".22457" />
   </g>
   <g fill="none" stroke="#c13c1b">
      <path d="M263.783 246.884c-1.548-.639-4.367-.531-6.228-.253 1.223 1.397 3.292 3.365 4.76 3.932 2.82 1.092 4.1-2.592 1.468-3.68z" stroke-width=".22457" />
      <path d="M263.555 247.356c-1.147-.473-3.233-.396-4.611-.193.906 1.033 2.44 2.487 3.527 2.908 2.09.808 3.033-1.91 1.084-2.715z" stroke-width=".22457" />
      <path d="M263.496 247.346a2.21 2.21 0 00-1.04 1.137c-.257.655-.165 1.12-.024 1.51M261.38 247.057c-.264.179-.54.597-.619.807-.085.227-.104.722-.058.955" style="marker:none" color="#000" stroke-linecap="round" stroke-linejoin="round" overflow="visible" stroke-width=".22457" />
   </g>
   <g fill="none" stroke="#c13c1b">
      <path d="M249.733 266.666c-.833-1.453-3.127-3.094-4.769-4.014.111 1.853.542 4.677 1.355 6.024 1.562 2.59 4.83.462 3.414-2.01z" stroke-width=".22457" />
      <path d="M249.263 266.9c-.617-1.077-2.313-2.294-3.527-2.977.085 1.372.407 3.461 1.008 4.459 1.157 1.918 3.567.348 2.52-1.482z" stroke-width=".22457" />
      <path style="marker:none" d="M249.223 266.856a2.21 2.21 0 00-1.518.261c-.605.361-.816.785-.945 1.18M247.728 265.33c-.319-.019-.793.143-.984.26-.206.127-.524.508-.63.72" color="#000" stroke-linecap="round" stroke-linejoin="round" overflow="visible" stroke-width=".22457" />
   </g>
   <g fill="none" stroke="#c13c1b">
      <path d="M253.347 263.692c-1.059-1.299-3.589-2.545-5.359-3.186.411 1.81 1.295 4.527 2.316 5.724 1.962 2.301 4.84-.33 3.043-2.538z" stroke-width=".22457" />
      <path d="M252.92 263.999c-.783-.962-2.654-1.887-3.963-2.364.306 1.34.963 3.349 1.72 4.236 1.452 1.704 3.575-.237 2.244-1.872z" stroke-width=".22457" />
      <path d="M252.874 263.962a2.21 2.21 0 00-1.456.505c-.538.454-.677.906-.74 1.317M251.15 262.7c-.317.032-.758.269-.928.416-.183.16-.435.586-.505.812" style="marker:none" color="#000" stroke-linecap="round" stroke-linejoin="round" overflow="visible" stroke-width=".22457" />
   </g>
   <g fill="none" stroke="#c13c1b">
      <path d="M245.609 269.092c-.671-1.535-2.774-3.415-4.307-4.508-.09 1.855.033 4.708.695 6.135 1.272 2.744 4.75.983 3.612-1.627z" stroke-width=".22457" />
      <path d="M245.116 269.273c-.497-1.137-2.051-2.53-3.184-3.341-.064 1.373.03 3.484.52 4.541.942 2.033 3.508.733 2.664-1.2z" stroke-width=".22457" />
      <path style="marker:none" d="M245.081 269.225a2.21 2.21 0 00-1.538.095c-.64.294-.895.692-1.066 1.07M243.76 267.547c-.315-.054-.804.055-1.006.151-.22.104-.577.448-.705.647" color="#000" stroke-linecap="round" stroke-linejoin="round" overflow="visible" stroke-width=".22457" />
   </g>
   <g fill="none" stroke="#c13c1b">
      <path d="M236.888 272.01c-.298-1.649-1.91-3.963-3.15-5.38-.515 1.784-1.054 4.588-.74 6.13.605 2.963 4.396 2.052 3.89-.75z" stroke-width=".22457" />
      <path d="M236.367 272.072c-.22-1.22-1.411-2.935-2.326-3.985-.38 1.32-.776 3.397-.543 4.538.447 2.195 3.244 1.523 2.87-.553z" stroke-width=".22457" />
      <path d="M236.344 272.017a2.21 2.21 0 00-1.518-.262c-.69.138-1.031.466-1.285.796M235.446 270.08c-.294-.126-.794-.132-1.014-.085-.237.05-.664.302-.835.466" style="marker:none" color="#000" stroke-linecap="round" stroke-linejoin="round" overflow="visible" stroke-width=".22457" />
   </g>
   <g fill="none" stroke="#c13c1b">
      <path d="M241.29 270.815c-.458-1.612-2.288-3.757-3.66-5.046-.34 1.825-.602 4.67-.138 6.172.891 2.89 4.576 1.613 3.798-1.126z" stroke-width=".22457" />
      <path d="M240.778 270.928c-.34-1.194-1.692-2.784-2.705-3.74-.25 1.352-.44 3.458-.097 4.571.66 2.14 3.378 1.198 2.802-.831z" stroke-width=".22457" />
      <path style="marker:none" d="M240.75 270.875a2.21 2.21 0 00-1.537-.112c-.674.205-.98.565-1.201.917M239.666 269.035c-.304-.096-.803-.054-1.017.015-.231.073-.632.365-.786.546" color="#000" stroke-linecap="round" stroke-linejoin="round" overflow="visible" stroke-width=".22457" />
   </g>
   <g fill="none" stroke="#c13c1b">
      <path d="M232.474 272.769c-.122-1.67-1.479-4.143-2.56-5.684-.703 1.719-1.537 4.45-1.388 6.016.286 3.011 4.153 2.508 3.948-.332z" stroke-width=".22457" />
      <path d="M231.949 272.776c-.09-1.238-1.092-3.07-1.89-4.21-.518 1.272-1.133 3.295-1.022 4.455.211 2.23 3.064 1.859 2.912-.245z" stroke-width=".22457" />
      <path d="M231.932 272.719a2.21 2.21 0 00-1.482-.422c-.701.063-1.075.354-1.362.654M231.244 270.697c-.278-.156-.776-.216-.998-.192-.242.025-.693.23-.88.375" style="marker:none" color="#000" stroke-linecap="round" stroke-linejoin="round" overflow="visible" stroke-width=".22457" />
   </g>
   <g fill="none" stroke="#c13c1b">
      <path d="M195.577 266.599c1.003-1.342 1.597-4.1 1.788-5.972-1.657.839-4.076 2.356-4.989 3.637-1.756 2.463 1.496 4.616 3.201 2.335z" stroke-width=".22457" />
      <path d="M195.176 266.26c.742-.994 1.185-3.034 1.33-4.42-1.226.623-3.015 1.75-3.691 2.698-1.3 1.824 1.098 3.412 2.361 1.722z" stroke-width=".22457" />
      <path style="marker:none" d="M195.2 266.206a2.21 2.21 0 00-.843-1.29c-.572-.41-1.044-.436-1.458-.397M196.005 264.227c-.108-.3-.445-.67-.629-.799-.198-.139-.674-.28-.91-.293" color="#000" stroke-linecap="round" stroke-linejoin="round" overflow="visible" stroke-width=".22457" />
   </g>
   <g fill="none" stroke="#c13c1b">
      <path d="M199.752 268.816c.882-1.424 1.235-4.222 1.264-6.104-1.578.979-3.857 2.7-4.655 4.056-1.536 2.605 1.89 4.468 3.39 2.048z" stroke-width=".22457" />
      <path d="M199.323 268.514c.653-1.055.918-3.126.942-4.519-1.167.727-2.852 2.004-3.444 3.007-1.137 1.93 1.39 3.304 2.502 1.512z" stroke-width=".22457" />
      <path d="M199.343 268.457a2.21 2.21 0 00-.952-1.211c-.605-.36-1.078-.345-1.487-.27M199.973 266.417c-.134-.29-.501-.63-.696-.742-.21-.121-.696-.22-.932-.213" style="marker:none" color="#000" stroke-linecap="round" stroke-linejoin="round" overflow="visible" stroke-width=".22457" />
   </g>
   <g fill="none" stroke="#c13c1b">
      <path d="M191.598 263.91c1.192-1.176 2.194-3.812 2.665-5.635-1.764.58-4.384 1.717-5.48 2.846-2.105 2.17.786 4.788 2.815 2.79z" stroke-width=".22457" />
      <path d="M191.252 263.515c.883-.87 1.628-2.821 1.979-4.17-1.305.432-3.243 1.276-4.055 2.113-1.56 1.607.573 3.538 2.076 2.057z" stroke-width=".22457" />
      <path d="M191.284 263.465a2.21 2.21 0 00-.64-1.401c-.503-.493-.966-.589-1.381-.613M192.377 261.63c-.062-.312-.339-.73-.501-.884-.176-.168-.625-.378-.857-.427" style="marker:none" color="#000" stroke-linecap="round" stroke-linejoin="round" overflow="visible" stroke-width=".22457" />
   </g>
   <g fill="none" stroke="#c13c1b">
      <path d="M184.777 257.153c1.468-.806 3.151-3.07 4.102-4.694-1.856.076-4.687.455-6.048 1.243-2.619 1.514-.552 4.82 1.946 3.45z" stroke-width=".22457" />
      <path d="M184.552 256.678c1.087-.597 2.336-2.27 3.04-3.471-1.372.06-3.467.343-4.476.926-1.939 1.12-.414 3.56 1.436 2.545z" stroke-width=".22457" />
      <path style="marker:none" d="M184.597 256.64a2.21 2.21 0 00-.234-1.524c-.35-.61-.769-.83-1.162-.966M186.149 255.172c.026-.318-.127-.795-.241-.988-.124-.209-.498-.534-.708-.644" color="#000" stroke-linecap="round" stroke-linejoin="round" overflow="visible" stroke-width=".22457" />
   </g>
   <g fill="none" stroke="#c13c1b">
      <path d="M187.965 260.776c1.335-1.012 2.669-3.497 3.372-5.243-1.825.347-4.57 1.135-5.802 2.114-2.369 1.88.16 4.848 2.43 3.129z" stroke-width=".22457" />
      <path d="M187.673 260.34c.989-.75 1.98-2.588 2.501-3.879-1.35.26-3.38.846-4.293 1.57-1.755 1.392.11 3.582 1.792 2.309z" stroke-width=".22457" />
      <path d="M187.712 260.294a2.21 2.21 0 00-.454-1.472c-.435-.554-.882-.709-1.29-.786M189.033 258.616c-.021-.318-.242-.768-.383-.942-.153-.189-.57-.456-.794-.534" style="marker:none" color="#000" stroke-linecap="round" stroke-linejoin="round" overflow="visible" stroke-width=".22457" />
   </g>
   <g fill="none" stroke="#c13c1b">
      <path d="M182.265 253.242c1.502-.741 3.282-2.929 4.302-4.511-1.857-.004-4.701.251-6.096.978-2.682 1.398-.76 4.792 1.794 3.533z" stroke-width=".22457" />
      <path d="M182.06 252.758c1.113-.549 2.433-2.166 3.19-3.335-1.374-.001-3.48.19-4.512.73-1.987 1.035-.57 3.538 1.323 2.605z" stroke-width=".22457" />
      <path style="marker:none" d="M182.107 252.721a2.21 2.21 0 00-.167-1.532c-.322-.625-.732-.862-1.118-1.016M183.722 251.323c.04-.317-.092-.8-.198-.998-.114-.214-.474-.555-.679-.674" color="#000" stroke-linecap="round" stroke-linejoin="round" overflow="visible" stroke-width=".22457" />
   </g>
   <g fill="none" stroke="#c13c1b">
      <path d="M178.57 244.568c1.609-.466 3.745-2.308 5.026-3.687-1.827-.33-4.672-.577-6.173-.105-2.886.907-1.589 4.584 1.147 3.792z" stroke-width=".22457" />
      <path d="M178.454 244.056c1.191-.345 2.774-1.706 3.725-2.725-1.353-.241-3.46-.421-4.571-.072-2.137.671-1.18 3.384.846 2.797z" stroke-width=".22457" />
      <path d="M178.506 244.028a2.21 2.21 0 00.104-1.537c-.208-.673-.57-.978-.923-1.197M180.34 242.934c.095-.304.05-.803-.02-1.016-.074-.231-.369-.63-.55-.783" style="marker:none" color="#000" stroke-linecap="round" stroke-linejoin="round" overflow="visible" stroke-width=".22457" />
   </g>
   <g fill="none" stroke="#c13c1b">
      <path d="M180.102 248.907c1.567-.593 3.549-2.6 4.716-4.077-1.848-.182-4.704-.201-6.162.389-2.804 1.134-1.217 4.696 1.446 3.688z" stroke-width=".22457" />
      <path d="M179.946 248.406c1.16-.44 2.629-1.923 3.495-3.014-1.368-.133-3.482-.144-4.562.293-2.077.84-.906 3.468 1.067 2.721z" stroke-width=".22457" />
      <path style="marker:none" d="M179.996 248.374a2.21 2.21 0 00-.02-1.541c-.26-.654-.646-.929-1.016-1.119M181.737 247.137c.07-.311-.015-.805-.101-1.012-.093-.224-.419-.598-.611-.736" color="#000" stroke-linecap="round" stroke-linejoin="round" overflow="visible" stroke-width=".22457" />
   </g>
   <path d="M268.207 242.492l-26.787-7.795-39.165-4.192-27.784 10.413c4.997 22.962 23.07 34.203 45.132 34.973 20.896.728 30.726-4.516 37.644-11.677 6.575-6.807 9.733-15.344 10.96-21.722z" fill="none" stroke="#000" stroke-width=".22449" stroke-linecap="round" stroke-linejoin="round" />
   <path d="M211.17 244.828c-9.707-5.887-6.833-8.55-11.71-25.604-4.653.07-11.44-.53-13.796-1.593-1.858-.838-2.45-1.853-3.04-3.967-.334-1.199.017-3.116.525-5.186-.654-.916-1.778-1.183-2.696-1.734-.82-1.083-.273-2.216-.151-2.7-.577-.662-1.23-1.707-.831-2.599.664-1.102.917-2.19.289-3.247-2.457-.234-6.94-1.747-4.57-7.194 2.135-4.91 5.463-10.37 8.3-15.621l3.303-10.553c5.755.02 33.415-.188 33.437 9.86l4.456 1 4.033 3.025-.035.12 3.9-.3c-2.11 7.492-4.305 9.755-7.815 68.947-2.567.264-8.47-.032-13.599-2.654z" fill="#f5ca44" fill-rule="evenodd" stroke="#000" stroke-width=".205" />
   <path d="M187.164 169.198c3.29-1.83 6.56-2.31 9.912-2.119 1.75.1 3.972.553 5.81 1.82 7.275 5.017 7.281 4.424 10.034 5.349.129.193.32.392.012.546-1.406-.117-3.37-.729-5.38-1.51-1.874-.727-3.923-2.486-6.842-3.457-2.152-.716-4.592-.798-6.903-.736-2.136.057-4.281.85-6.752 1.64-.564.18-2.076-.318.109-1.533zM185.892 177.324c2.92-3.118 5.586-3.764 7.9-3.993 3.536-.349 8.9.213 11.755 1.381 2.05.839 4.098.487 6.67 1.034.48.103.493.892.003.924-2.412.156-5.118-.253-7.196.51-2.537.931-5.286 2.08-7.029 2.707-1.682.605-3.886 1.023-7.404.128-1.159-.295-2.188-.412-3.421.116-3.078 1.317-3.055-.91-1.278-2.807z" fill-rule="evenodd" stroke="#000" stroke-width=".205" />
   <path d="M179.5 201.554c4.782-.432 6.218 1.734 10.49 1.681M180.526 206.75c5.318.167 6.632-2.228 9.72-2.93" fill="none" stroke="#000" stroke-width=".105" stroke-linecap="round" stroke-linejoin="round" />
   <path d="M180.268 204.095c1.75.371 6.3.062 7.918-.166" fill="none" stroke="#000" stroke-width=".21" stroke-linecap="round" stroke-linejoin="round" />
   <path d="M187.278 178.345c.78-1.43 1.95-1.668 2.98-2.33-.028 1.01.457 1.77 1.294 2.271-1.04-.007-3.711-.203-4.274.06zM199.417 175.016c-.017 1.262-.196 2.472-1.228 3.41 1.794-.29 3.569-1.73 5.026-3.071-1.26.27-2.426-.142-3.798-.339z" fill="#fff" fill-rule="evenodd" stroke="#000" stroke-width=".21" />
   <path d="M182.003 192.59c3.76 3.045 1.74 4.93-.037 4.852-1.758-.078-4.297-3.064-4.93-1.39-.638 1.692 2.85 1.09 2.799.612" fill="none" stroke="#000" stroke-width=".084" />
   <path d="M230.172 188.32c-3.62 2.231-8.034 24.31-8.16 37.744-1.775 25.17-2.178 50.617-4.178 75.77l24.377.965 2-67.234" fill="#025" fill-rule="evenodd" stroke="#000" stroke-width=".205" stroke-linecap="round" stroke-linejoin="round" />
   <path d="M207.457 707.743h27.418c5.986-37.83 3.795-79.902 1.007-113.277 5.595-51.134 11.774-107.837 14.001-159.733 27.414-18.16-7.954-67.375-5.091-75.942 2.24-15.194 7.335-28.203 13.544-41.809h-89.131c1.428 4.343 7.384 9.25 9.78 11.25 9.814 6.863 7.688 15.062 6.6 22.8-11.224 79.878-21.415 114.682 1.8 228.596-1.856 13.574 1.2 24.2 1.8 36.3-3.18 30.6-5.59 61.199-5.4 91.798l23.672.017z" fill="#c13c1b" fill-rule="evenodd" stroke="#000" stroke-width=".42" stroke-linecap="round" stroke-linejoin="round" />
   <path d="M257.53 317.493l-3.098 7.066h-79.016c-2.122-2.145-4.322-4.7-5.511-7.066h87.624z" fill="#fff" fill-rule="evenodd" stroke="#fff" stroke-width=".63" />
   <path d="M170.236 318.61h87.187M175.42 324.705h79.236M173.604 323.057h81.823" fill="none" stroke="#000" stroke-width=".42" stroke-linecap="round" stroke-linejoin="round" />
   <g fill="none" stroke="#000" stroke-width="2" stroke-linecap="round" stroke-linejoin="round">
      <path d="M175.038 318.802v4.027M176.934 318.802v4.027M178.942 318.802v4.027" stroke-width=".42" />
   </g>
   <g fill="none" stroke="#000" stroke-width="2" stroke-linecap="round" stroke-linejoin="round">
      <path d="M189.784 318.802v4.027M191.68 318.802v4.027M193.688 318.802v4.027" stroke-width=".42" />
   </g>
   <g fill="none" stroke="#000" stroke-width="2" stroke-linecap="round" stroke-linejoin="round">
      <path d="M203.96 318.802v4.027M205.856 318.802v4.027M207.864 318.802v4.027" stroke-width=".42" />
   </g>
   <g fill="none" stroke="#000" stroke-width="2" stroke-linecap="round" stroke-linejoin="round">
      <path d="M218.435 318.802v4.027M220.331 318.802v4.027M222.34 318.802v4.027" stroke-width=".42" />
   </g>
   <g fill="none" stroke="#000" stroke-width="2" stroke-linecap="round" stroke-linejoin="round">
      <path d="M233.75 318.802v4.027M235.645 318.802v4.027M237.653 318.802v4.027" stroke-width=".42" />
   </g>
   <g fill="none" stroke="#000" stroke-width="2" stroke-linecap="round" stroke-linejoin="round">
      <path d="M247.326 318.802v4.027M249.221 318.802v4.027M251.23 318.802v4.027" stroke-width=".42" />
   </g>
   <path d="M235.378 700.526l-.975 6.996-50.153-.16.062-6.853 51.066.017z" fill="#fff" fill-rule="evenodd" stroke="#fff" stroke-width=".63" />
   <path d="M183.76 701.573h51.833M184.056 707.668h50.72M183.76 706.02h51" fill="none" stroke="#000" stroke-width=".42" stroke-linecap="round" stroke-linejoin="round" />
   <g fill="none" stroke="#000" stroke-width="2" stroke-linecap="round" stroke-linejoin="round">
      <path d="M186.901 701.765v4.027M188.797 701.765v4.027M190.805 701.765v4.027" stroke-width=".42" />
   </g>
   <g fill="none" stroke="#000" stroke-width="2" stroke-linecap="round" stroke-linejoin="round">
      <path d="M199.698 701.765v4.027M201.594 701.765v4.027M203.602 701.765v4.027" stroke-width=".42" />
   </g>
   <g fill="none" stroke="#000" stroke-width="2" stroke-linecap="round" stroke-linejoin="round">
      <path d="M213.855 701.765v4.027M215.751 701.765v4.027M217.76 701.765v4.027" stroke-width=".42" />
   </g>
   <g fill="none" stroke="#000" stroke-width="2" stroke-linecap="round" stroke-linejoin="round">
      <path d="M227.79 701.765v4.027M229.686 701.765v4.027M231.695 701.765v4.027" stroke-width=".42" />
   </g>
   <path d="M183.844 700.164h51.958" fill="none" stroke="#000" stroke-width=".42" stroke-linecap="round" stroke-linejoin="round" />
   <g fill-rule="evenodd" stroke="#000" stroke-linecap="round" stroke-linejoin="round">
      <path d="M166.043 244.144l12.426 72.88h12.494L172.68 241.63l-6.637 2.513z" fill="#fff" stroke-width=".21" />
      <path d="M167.204 243.698l13.178 73.325h8.78l-17.84-74.897-4.118 1.572z" fill="#c13c1b" stroke-width=".21" />
   </g>
   <g fill-rule="evenodd" stroke="#000" stroke-linecap="round" stroke-linejoin="round">
      <path d="M267.803 242.41l-22.578 74.572h10.5l18.027-72.594-5.949-1.977z" fill="#fff" stroke-width=".21" />
      <path d="M268.987 242.801l-21.853 74.181h6.682l18.654-73.073-3.483-1.108z" fill="#c13c1b" stroke-width=".21" />
   </g>
   <g fill-rule="evenodd" stroke="#000" stroke-linecap="round" stroke-linejoin="round">
      <path d="M142.018 283.424l26.278 5.302-2.938 14.559-27.102-5.24 3.762-14.621z" fill="#fac53a" stroke-width=".21" />
      <path d="M141.58 285.094l26.382 5.468-.981 4.791-26.626-5.53 1.224-4.729zM139.988 291.511l26.608 5.618-.981 4.451-26.851-5.34 1.224-4.729z" fill="#04a" stroke-width=".21" />
   </g>
   <g fill-rule="evenodd" stroke="#000" stroke-linecap="round" stroke-linejoin="round">
      <path d="M76.095 449.153l13.374 10.312-8.411 9.881-10.845-10.614 5.882-9.579z" fill="#fac53a" stroke-width=".21" />
      <path d="M75.303 450.44l12.872 10.32-2.481 2.932-12.1-10.335 1.71-2.916zM72.652 454.683l12.121 10.245-2.48 2.931-11.35-10.26 1.709-2.916z" fill="#04a" stroke-width=".21" />
   </g>
   <g stroke="#c13c1b" stroke-width="2">
      <path d="M218.648 289.213l23.97 1.113-.477 12.41-24.342-.53.849-12.993z" fill="#fac53a" fill-rule="evenodd" stroke-linecap="round" stroke-linejoin="round" stroke-width=".42" />
   </g>
   <path d="M270.554 154.416l-21.4 58.56-9.02-3.837 26.134-57.488c-17.765 5.83-53.386 3.35-76.898 1.68.648-1.762 2.508-5.343 2.696-5.343 34.758 3.785 67.594.92 73.532-1.195" fill="#fff" fill-rule="evenodd" stroke="#000" stroke-width=".21" stroke-linecap="round" stroke-linejoin="round" />
   <path d="M266.86 146.968c.312-.252.411-.47.425-.672 2.38-8.935 7.481-8.69 9.308-7.255 4.89 4.267-.154 6.34-4.37 12.086l28.832 59.087-7.61 3.255-23.491-59.053-21.85 58.035-6.994-2.937 26.608-59.246c-15.73 6.699-54.053 4.186-78.134 2.368.808-1.762 1.724-3.667 1.938-3.906 34.758 3.786 69.4.353 75.338-1.762z" fill="#d40000" fill-rule="evenodd" />
   <path d="M271.823 148.384c-1.018-2.564.186-4.735 1.687-5.594" fill="none" stroke="#000" stroke-width=".21" />
   <path d="M269.841 154.416c-1.977-4.808-3.136-6.388-2.615-8.116 2.699-8.948 7.428-8.695 9.255-7.26 4.89 4.268-.155 6.342-4.37 12.087l28.831 59.087-7.609 3.255s-16.644-42.402-23.492-59.053z" fill="none" stroke="#000" stroke-width=".21" stroke-linecap="round" stroke-linejoin="round" />
   <path d="M180.051 196.677c-1.321-.784-2.592-1.742-3.014-.624-.639 1.691 2.85 1.09 2.798.61" fill-rule="evenodd" stroke="#000" stroke-width=".084" />
   <g stroke="#000">
      <path d="M228.472 180.53c-3.653-2.282-3.81-5.886-2.631-7.87 2.826-4.753 5.05-5.617 7.177-5.056 4.112 1.086 3.624 6.182 2.756 10.547-.841 4.238-4.14 7.126-5.92 10.683-1.109 2.215-1.613 3.745-2.348 4.578-.85.966-2.337 2.372-4.429 1.424-2.306-1.046-1.804-3.878-.669-7.453.9-2.835 3.593-5.22 4.962-6.042" fill="#f5ca44" fill-rule="evenodd" stroke-width=".20454" />
      <path d="M225.592 188.373c-.966-.302 2.075-2.944 3.642-5.326 2.022-3.072-.154-4.455-1.15-6.337-1.636-3.098 1.029-7.834 3.862-7.115 3.372.856 4.835 5.2.704 11.733-1.856 2.933-4.94 7.706-7.058 7.045z" fill="none" stroke-width=".21" />
      <path style="marker:none" d="M225.909 191.96a1.312 1.425 0 11-2.625 0 1.312 1.425 0 112.625 0z" color="#000" fill="none" stroke-linecap="round" stroke-linejoin="round" overflow="visible" stroke-width=".21" />
   </g>
   <path d="M187.694 218.224c12.134 1.963 17.545.663 22.005-2.378M200.539 222.79c3.104-.138 6.132-1.402 9.15-2.7M201.439 226.61c4.103.774 6.761-1.538 9.75-2.85" fill="none" stroke="#000" stroke-width=".105" />
   <g fill-rule="evenodd" stroke="#000" stroke-linecap="round" stroke-linejoin="round">
      <path d="M272.293 291.846l26.785 1.097-.234 14.99-27.663-.636 1.112-15.451z" fill="#fac53a" stroke-width=".21" />
      <path d="M272.122 293.565l26.915 1.243-.064 4.887-27.015-1.267.164-4.863zM271.637 300.152l27.235 1.356-.042 4.626-27.582-.819.39-5.163z" fill="#04a" stroke-width=".21" />
   </g>
   <g fill-rule="evenodd" stroke="#000" stroke-linecap="round" stroke-linejoin="round">
      <path d="M183.41 715.26l23.274 1.01-1.106 14.916-24.693-1.424 2.525-14.501z" fill="#fac53a" stroke-width=".21" />
      <path d="M183.15 716.81l23.43 1.25-.237 4.214-24.023-.802.83-4.662zM182.065 723.547l24.044 1.104-.293 4.362-24.604-.761.853-4.705z" fill="#04a" stroke-width=".21" />
   </g>
   <g fill-rule="evenodd" stroke="#000" stroke-linecap="round" stroke-linejoin="round">
      <path d="M210.421 717.388l24.356-.058-.156 14.951-25.316-.291 1.116-14.602z" fill="#fac53a" stroke-width=".21" />
      <path d="M210.285 718.948l24.47.176-.043 4.22-24.672.3.245-4.696zM209.828 725.727l24.811.001-.093 4.747-25.142-.009.424-4.739z" fill="#04a" stroke-width=".21" />
   </g>
   <g fill-rule="evenodd" stroke="#000" stroke-linecap="round" stroke-linejoin="round">
      <path d="M274.278 454.832l20.418.16-.849 12.886-19.463-.742-.106-12.304z" fill="#fac53a" stroke-width=".21" />
      <path d="M274.278 456.688l20.259.266-.209 3.981-19.997-.314-.053-3.933z" fill="#04a" stroke-width=".21" />
      <path d="M274.278 454.832l20.418.16-.849 12.886-19.463-.742-.106-12.304z" fill="#fac53a" stroke-width=".21" />
      <path d="M274.278 456.688l20.259.266-.209 3.981-19.997-.314-.053-3.933zM274.278 461.863l19.94.265-.208 3.982-19.679-.314-.053-3.933z" fill="#04a" stroke-width=".21" />
   </g>
   <g fill="none" stroke="#c13c1b" stroke-width="3" stroke-linecap="round" stroke-linejoin="round">
      <path d="M219.384 290.583l21.675.825M219.31 292.533l21.674.825M219.31 294.633l21.674.825M219.234 296.583l21.675.825M219.31 298.608l21.674.675M219.16 300.708l21.749.525" stroke-width=".63" />
   </g>
   <path d="M49.174 278.172c.703-6.984-.396-13.116 2.472-21.609 3.5-10.363 6.997-12.16 11.073-17.605 1.544-1.262 4.085.057 3.252 2.456-4.727 4.403-8.102 10.415-9.48 13.847 1.418-.16 8.247-.685 8.4 6.391l-.023 483.22c7.603 8.725 1.068 15.432 1.477 23.013-.778.374-1.394.134-1.473-.526-1.018-8.296 1.811-11.913-.051-16.227-.89-2.062-2.557-1.966-3.527-.21-2.092 3.782.838 6.108.074 16.356-.056.746-.97.961-1.342.513-.477-7.615-5.741-14.035 1.228-22.927l-.009-482.633c-.393-3.949-4.664-4.372-6.785.09-2.487 5.229-1.432 10.65-2.1 15.974-1.103 3.429-3.373 2.108-3.186-.123z" fill="#025" fill-rule="evenodd" stroke="#000" stroke-width=".21" stroke-linecap="round" stroke-linejoin="round" />
   <g fill-rule="evenodd" stroke="#000" stroke-linecap="round" stroke-linejoin="round">
      <path d="M63.164 465.429c2.876-1.802 6.043-1.184 3.228 1.627 2.371-1.859 6.8-1.075 1.96 2.738 4.277-2.042 4.187 1.245 1.938 2.886 2.888-1.411 3.366 1.289.33 3.696-3.101 3.182-6.686 6.395-10.148 9.52-.064.055-.146.087-.268.062-1.252-.144-2.414-1.146-1.473-3.44-2.065.18-3.297-1.58-1.948-3.312-2.196-.253-2.752-1.4-2.07-3.225-2.37-.232-2.901-1.219-1.972-3.155.113-.16.22-.28.323-.368 3.694-3.298 7.021-5.602 10.01-6.987m.643-.313c-.299.876.48 2.184 1.992 2.353m.652-.329c-.709.995.931 2.602 1.902 2.639m.262-.121c-1 1.019.086 3.482 2.097 2.686m-.37.338c-.63 1.123.2 2.423 1.228 2.777m-14.687 3.704c.417-.239 11.582-9.395 11.582-9.395m-13.557 6.122c.612-.512 11.617-8.888 11.617-8.888m-7.655 15.46l11.59-9.874" fill="#f5ca44" stroke-width=".21" />
      <path d="M66.36 467.182c-.189.106-.241.347-.65.33-1.847-.175-2.109-2.04-2.008-2.36 2.69-1.403 5.347-.667 2.715 1.961 2.37-1.858 6.775-1.132 1.936 2.68 4.276-2.041 4.246 1.168 1.997 2.809 2.565-1.254 3.17.817 1.142 2.932-1.04-.387-1.87-1.687-1.128-2.917-1.9.69-2.839-1.898-1.97-2.857-1.102.024-2.742-1.583-2.033-2.578z" fill="#fff" stroke-width=".21" />
   </g>
   <path d="M67.234 464.75c-1.71-.823-4.16.258-9.705 4.057l-.424-5.515c5.728-3.138 8.234-3.943 12.993-4.481" fill="#f5ca44" fill-rule="evenodd" />
   <path d="M57.53 468.807c5.545-3.799 8.07-4.88 9.78-4.057m2.735-5.913c-4.759.538-7.305 1.233-13.034 4.53" fill="none" stroke="#000" stroke-width=".21" />
   <g stroke="#000" stroke-width="4" stroke-linecap="round" stroke-linejoin="round">
      <path d="M206.22 14.857c16.095 0 18.159 10.42 21.91 22.36 7.854 25 7.709 50.254 0 74.82-3.755 11.967-5.1 22.36-21.196 22.36" fill="none" />
      <path d="M253.72 14.857c-16.096 0-16.374 10.42-20.125 22.36-7.855 25-7.709 50.254 0 74.82 3.755 11.967 3.672 22.36 19.767 22.36" fill="none" />
      <path d="M230.947 36.575c10.301 0 17.177 6.71 18.594 14.897 2.884 16.655 3.148 33.123 0 49.846-1.54 8.183-8.293 14.897-18.594 14.897-10.3 0-16.79-6.762-18.593-14.897-3.686-16.63-3.249-33.833 0-49.846 1.652-8.146 8.292-14.897 18.593-14.897z" fill="#308d57" />
   </g>
</svg>