<svg width="600" height="300" xmlns="http://www.w3.org/2000/svg">
    <path d="M2.34 297.66C.02 295.34 0 293.75 0 150.22 0 26.77.25 4.79 1.66 2.86 3.3.62 7.85.59 299.31.28c294.91-.29 296-.28 298.33 2.05C599.98 4.66 600 6.11 600 150c0 143.75-.02 145.34-2.34 147.66-2.34 2.33-3.91 2.34-297.66 2.34s-295.32-.01-297.66-2.34m589.22-6.1c2.04-2.04 2.04-281.08 0-283.12-2.05-2.05-581.07-2.05-583.12 0-2.04 2.04-2.04 281.08 0 283.12 2.05 2.05 581.07 2.05 583.12 0" />
    <path d="M16.41 283.59c-2.32-2.32-2.35-3.9-2.35-133.59s.03-131.27 2.35-133.59c2.33-2.34 3.9-2.35 283.59-2.35s281.26.01 283.59 2.35c2.32 2.32 2.35 3.9 2.35 133.59s-.03 131.27-2.35 133.59c-2.33 2.34-3.9 2.35-283.59 2.35s-281.26-.01-283.59-2.35m561.09-6.09c2.04-2.04 2.04-252.96 0-255-2.05-2.05-552.95-2.05-555 0-1.86 1.86-2.05 250.66-.19 254.14 1.19 2.23 5.53 2.27 277.5 2.27 213.32 0 276.6-.32 277.69-1.41" />
    <path fill="#b76720" d="M8.44 291.56c-1.08-1.08-1.41-34.16-1.41-141.75 0-137.56.05-140.38 2.26-141.56 3.51-1.87 580.4-1.69 582.27.19 2.04 2.04 2.04 281.08 0 283.12-2.05 2.05-581.07 2.05-583.12 0m575.15-7.97c2.32-2.32 2.35-3.9 2.35-133.59s-.03-131.27-2.35-133.59c-2.33-2.34-3.9-2.35-283.59-2.35s-281.26.01-283.59 2.35c-2.32 2.32-2.35 3.9-2.35 133.59s.03 131.27 2.35 133.59c2.33 2.34 3.9 2.35 283.59 2.35s281.26-.01 283.59-2.35" />
    <path fill="#0885ff" d="M22.31 276.64c-.82-1.52-1.22-43.47-1.22-127.69 0-122.81.05-125.45 2.27-126.64 3.5-1.87 552.26-1.69 554.14.19 2.04 2.04 2.04 252.96 0 255-1.09 1.09-64.37 1.41-277.69 1.41-271.97 0-276.31-.04-277.5-2.27" />
</svg>