<svg xmlns="http://www.w3.org/2000/svg" width="350" height="750" version="1.0">
   <defs>
      <linearGradient id="prefix__a">
         <stop offset="0" stop-color="#c13c1b" />
         <stop offset=".839" stop-color="#c13c1b" stop-opacity=".498" />
         <stop offset="1" stop-color="#c13c1b" stop-opacity="0" />
      </linearGradient>
   </defs>
   <path d="M279.04 527.98l-.308 12.344c.093 17.745.563 36.573 4.168 49.573l19.3 143.75 11.117-1.236c-8.34-48.112-10.087-94.906-15.131-142.36-3.039-31.148-9.486-22.25-19.146-62.07z" fill="#fac53a" fill-rule="evenodd" stroke="#c13c1b" stroke-width=".432" />
   <path d="M310.3 250.945h-30.134M310.846 260.007l-30.243.437" fill="none" stroke="#000" stroke-width=".216" />
   <path d="M228.91 190.066l39.73.702c19.384 6.146 34.85 13.406 40.87 34.502 2.171 12.132.178 16.432.926 25.631l.617 9.573c1.33 20.65 1.876 41.458.31 62.688-1.257 18.426 2.697 38.086 3.087 56.512-.627 15.45-4.375 26.909-5.095 40.415l-19.3-1.505c-8.861-49.93-3.742-66.268-5.868-89.246-3.22-28.031-3.23-55.26-4.323-82.76-11.9 21.466-24.347 42.2-31.19 70.408v4.67l6.485 29.916c3.48 4.882 13.453 27.039 6.212 39.671 8.264 48.38 12.169 97.852 11.7 146.231l.617 15.75c1.313 21.451 9.938 42.913 9.573 66.393-.366 23.48-4.596 46.461-7.72 68.864-1.184 25.837 2.384 30.425 1.49 39.849-.893 9.423-6.162 8.991-11.532 8.931-5.474-.062-10.785-.988-10.974-4.595-5.653-1.587-13.63 4.933-72.263 2.662-2.538-.344-2.727-4.075-2.96-6.724 2.614-.714 5.324-1.043 8.228-.595 19.498-9.53 38.655-13.621 58.674-31.499.947-.982 1.746-2.3 1.544-5.867-2.524-35.346-10.217-72.039-13.279-107.465l-.926-5.559c-2.707-6.918-5.105-15.691-8.338-19.454-1.312-7.206-1.854-14.411-6.485-21.617l-14.932-.309c-6.778 19.142-7.696 26.922-11.735 39.836-3.146 18.89-.325 26.913-4.831 41.998-4.544 15.21-14.255 34.955-21.926 49.718-4.702 12.669-11.177 26.046-13.33 37.752-.617 7.54.636 13.363-.258 22.787-.894 9.423-6.163 8.991-11.533 8.931-5.473-.062-10.785-.988-10.974-4.595-5.652-1.587-13.63 4.933-72.263 2.662-2.538-.344-2.726-4.075-2.96-6.724 2.614-.714 5.324-1.043 8.229-.595 19.497-9.53 43.904-14.856 63.897-32.734 1.929-2.157 2.544-4.532 3.28-6.887l22.634-109.225c.028-11.064-1.372-21.58 3.705-34.586l.31-8.647 18.672-170.84-2.075-7.226c-2.65-6.113-.76-12.587-.849-18.335-2.217-17.228-5.721-34.134-9.573-50.953-2.438-5.673-4.692-12.494-6.507-19.662-1.79-.695-2.317-2.68-1.083-4.556-1.216-5.466-2.154-11.034-2.705-16.362l-.822-.183-1.224 11.04c-.477 2.676-.395 5.31-.856 7.94-3.447 19.673-7.004 39.094-18.982 73.803l-3.978 8.724c-9.02 26.126-22.207 46.39-35.88 65.973L73.139 403.02c9.842-24.333 16.772-49.596 31.629-72.327l2.653-6.442c1.047-18.874 3.392-45.47 8.432-66.334l1.971-15.639c-5.587-25.87 6.44-43.13 29.365-46.96l37.864-7.364" fill="#a13c2a" fill-rule="evenodd" stroke="#000" stroke-width=".432" stroke-linecap="round" stroke-linejoin="round" />
   <g fill-rule="evenodd" stroke="#000" stroke-linecap="round" stroke-linejoin="round">
      <path d="M-2306.297 184.523l126.243 8.061-.277 76.804-129.037-11.151 3.07-73.714z" fill="#fac53a" transform="matrix(.23889 -.01891 .0161 .22474 827.885 163.646)" />
      <path d="M-2306.69 192.987l126.446 10.278-.033 22.472-127.353-9.681.94-23.07zM-2307.61 224.353l127.059 11.038.146 24.403-128.228-10.692 1.023-24.749z" fill="#04a" transform="matrix(.23889 -.01891 .0161 .22474 827.885 163.646)" />
   </g>
   <path d="M281.65 538.283c-.447-2.635-1.628-5.47-2.008-8.516-4.273-34.2-4.916-92.64-15.084-137.459 2.938-8.146 1.789-17.4-.399-25.109-2.16-7.61-5.228-13.556-6.802-15.793-1.137-5.323-4.49-21.112-5.654-32.29a1.08 1.08 0 00-1.094-.986h0a1.08 1.08 0 00-1.054 1.209c1.195 11.484 4.617 27.496 5.728 32.695.033.15.098.29.19.412 1.148 1.568 4.46 7.781 6.606 15.341 2.145 7.56 3.184 16.555.351 24.096-.073.196-.087.41-.04.614 8.55 37.497 10.411 84.89 13.397 119.58.87 10.114 2.724 19.264 3.092 26.543" fill="#fac53a" fill-rule="evenodd" stroke="#000" stroke-width=".216" stroke-linecap="round" stroke-linejoin="round" />
   <path d="M155.823 536.95l16.833-171.093 88.382-.891c1.157 4.702 6.01 14.323.463 26.557 7.642 48.321 12.4 97.275 11.37 145.307l-117.048.12z" fill="#fff" fill-rule="evenodd" stroke="#000" stroke-width=".432" />
   <path d="M272.864 537.168c-90.461-15.206-106.956-83.4-100.208-171.31l82.404-14.567c7.818 13 12.344 30.673 6.468 40.178 7.66 48.434 12.394 97.555 11.336 145.699z" fill="#fac53a" fill-rule="evenodd" stroke="#000" stroke-width=".216" />
   <path d="M152.232 194.236l32.876-6.574 46.534-3.71 35.83 7.407c-6.734 33.983-29.78 46.135-56.48 46.728-25.29.558-37.1-5.937-45.357-14.706-7.849-8.335-12.018-21.411-13.403-29.145z" fill="#fff" fill-rule="evenodd" stroke="#000" stroke-linecap="round" stroke-linejoin="round" stroke-width=".27168" />
   <path d="M165.965 191.488c4.957 24.507 19.253 33.587 45.6 32.55 26.413-1.04 39.559-17.992 41.17-34.45-.008-.222-.016-.547.115-1.128" style="marker:none" color="#000" fill="none" stroke="#04a" stroke-width="4.841337599999999" stroke-linejoin="round" overflow="visible" />
   <path d="M178.502 189.14c4.821 18.648 15.355 22.691 32.552 22.026 16.068-.622 27.977-11.154 27.859-24.364-.043-.503.136-.834.1-1.133" style="marker:none" color="#000" fill="none" stroke="#308d57" stroke-width="3.6739286399999997" overflow="visible" />
   <path d="M170.287 190.902c3.621 17.165 12.731 29.993 40.96 28.757 24.573-1.076 36.362-17.699 36.834-31.59-.015-.062-.016-.355.046-.648" style="marker:none" color="#000" fill="none" stroke="#c13c1b" stroke-width="2.9708208" overflow="visible" />
   <path d="M182.59 188.225c2.44 8.14 5.165 20.31 28.455 18.548 15.258-1.155 22.63-10.254 23.207-18.743.046-.965.04-3.107.156-3.388" style="marker:none" color="#000" fill="none" stroke="#04a" stroke-width="4.3572038399999995" overflow="visible" />
   <path d="M174.292 189.866c4.876 23.183 22.081 26.472 37.215 25.572 20.56-1.227 31.623-13.958 32.193-27.435.018-.246.014-1.17.13-1.544" style="marker:none" color="#000" fill="none" stroke="#04a" stroke-width="4.3572038399999995" overflow="visible" />
   <path d="M157.774 193.28c5.384 26.017 19.894 40.196 52.718 39.029l.387-.015h.012c43.57-1.705 49.081-34.322 50.662-41.916" style="marker:none" color="#000" fill="none" stroke="#fac53a" stroke-width="10.867199999999999" overflow="visible" />
   <path d="M152.232 194.236l32.876-6.574 46.534-3.71 35.83 7.407c-6.734 33.983-29.78 46.135-56.48 46.728-25.29.558-37.1-5.937-45.357-14.706-7.849-8.335-12.018-21.411-13.403-29.145z" fill="none" stroke="#000" stroke-width=".54336" stroke-linecap="round" stroke-linejoin="round" />
   <g fill="none" stroke="#c13c1b">
      <path d="M223.706 233.357c-.63-1.926-.246-5.316.258-7.537 1.575 1.601 3.762 4.276 4.314 6.097 1.061 3.502-3.498 4.713-4.572 1.44z" stroke-width=".27168" />
      <path d="M224.297 233.124c-.467-1.427-.186-3.937.184-5.58 1.163 1.187 2.78 3.169 3.188 4.518.786 2.593-2.577 3.486-3.372 1.062z" stroke-width=".27168" />
      <path style="marker:none" d="M224.29 233.052a2.675 2.675 0 011.465-1.152c.814-.25 1.365-.097 1.825.107M224.132 230.473c.24-.302.769-.597 1.03-.673.281-.083.88-.06 1.157.016" color="#000" stroke-linecap="round" stroke-linejoin="round" overflow="visible" stroke-width=".27168" />
   </g>
   <g fill="none" stroke="#c13c1b">
      <path d="M217.995 234.225c-.441-1.978.27-5.315.986-7.477 1.413 1.747 3.33 4.62 3.703 6.487.718 3.588-3.937 4.352-4.69.99z" stroke-width=".27168" />
      <path d="M218.605 234.05c-.326-1.465.196-3.936.723-5.536 1.044 1.294 2.46 3.423 2.737 4.805.53 2.658-2.903 3.221-3.46.73z" stroke-width=".27168" />
      <path style="marker:none" d="M218.605 233.978c.205-.28.736-.835 1.57-1.005.835-.17 1.368.035 1.806.283M218.698 231.396c.268-.278.823-.52 1.09-.57.288-.056.882.024 1.15.127" color="#000" stroke-linecap="round" stroke-linejoin="round" overflow="visible" stroke-width=".27168" />
   </g>
   <g fill="none" stroke="#c13c1b">
      <path d="M229.531 231.789c-.819-1.854-.773-5.265-.492-7.526 1.726 1.438 4.168 3.882 4.898 5.64 1.404 3.378-3.012 5.037-4.406 1.886z" stroke-width=".27168" />
      <path d="M230.096 231.498c-.607-1.373-.576-3.898-.372-5.57 1.276 1.065 3.081 2.877 3.622 4.179 1.04 2.502-2.218 3.725-3.25 1.391z" stroke-width=".27168" />
      <path style="marker:none" d="M230.082 231.428a2.675 2.675 0 011.343-1.293c.785-.33 1.35-.232 1.827-.074M229.668 228.877c.209-.324.706-.67.958-.772.272-.11.87-.148 1.153-.1" color="#000" stroke-linecap="round" stroke-linejoin="round" overflow="visible" stroke-width=".27168" />
   </g>
   <g fill="none" stroke="#c13c1b">
      <path d="M206.537 234.746c-.036-2.026 1.328-5.154 2.463-7.128 1.035 1.994 2.338 5.194 2.33 7.097-.016 3.66-4.73 3.476-4.793.03z" stroke-width=".27168" />
      <path d="M207.17 234.697c-.027-1.5.98-3.817 1.817-5.28.763 1.478 1.725 3.847 1.718 5.257-.011 2.71-3.489 2.574-3.535.023z" stroke-width=".27168" />
      <path d="M207.184 234.626c.257-.233.888-.67 1.74-.67.851 0 1.333.309 1.712.64M207.792 232.115c.318-.218.91-.345 1.182-.34.294.003.86.2 1.101.355" style="marker:none" color="#000" stroke-linecap="round" stroke-linejoin="round" overflow="visible" stroke-width=".27168" />
   </g>
   <g fill="none" stroke="#c13c1b">
      <path d="M201.017 234.65c.043-2.026 1.53-5.097 2.742-7.026.955 2.034 2.132 5.282 2.048 7.184-.16 3.655-4.862 3.286-4.79-.158z" stroke-width=".27168" />
      <path d="M201.651 234.626c.033-1.5 1.13-3.776 2.024-5.204.704 1.506 1.572 3.912 1.51 5.32-.118 2.707-3.587 2.435-3.534-.116z" stroke-width=".27168" />
      <path style="marker:none" d="M201.669 234.556a2.675 2.675 0 011.764-.602c.85.034 1.32.362 1.686.707M202.375 232.07c.326-.205.923-.308 1.194-.294.293.016.851.236 1.087.4" color="#000" stroke-linecap="round" stroke-linejoin="round" overflow="visible" stroke-width=".27168" />
   </g>
   <g fill="none" stroke="#c13c1b">
      <path d="M212.317 234.715c-.263-2.009.743-5.27 1.65-7.358 1.251 1.866 2.904 4.9 3.109 6.792.394 3.637-4.31 3.982-4.76.566z" stroke-width=".27168" />
      <path d="M212.94 234.596c-.194-1.488.547-3.903 1.215-5.45.924 1.383 2.145 3.63 2.296 5.032.292 2.694-3.179 2.948-3.51.418z" stroke-width=".27168" />
      <path style="marker:none" d="M212.947 234.524c.229-.26.807-.765 1.653-.86.846-.096 1.36.157 1.774.443M213.27 231.96c.291-.252.866-.444 1.136-.47.292-.03.877.104 1.134.23" color="#000" stroke-linecap="round" stroke-linejoin="round" overflow="visible" stroke-width=".27168" />
   </g>
   <g fill="none" stroke="#c13c1b">
      <path d="M163.323 214.683c1.672-1.145 5.035-1.725 7.308-1.863-1.097 1.961-3.052 4.81-4.647 5.849-3.064 1.999-5.503-2.039-2.661-3.986z" stroke-width=".27168" />
      <path d="M163.712 215.185c1.239-.848 3.727-1.281 5.409-1.386-.814 1.45-2.265 3.556-3.445 4.326-2.27 1.48-4.07-1.498-1.964-2.94z" stroke-width=".27168" />
      <path d="M163.779 215.158a2.675 2.675 0 011.516 1.084c.469.711.476 1.283.408 1.782M166.21 214.284c.358.146.79.571.935.8.158.247.305.829.309 1.116" style="marker:none" color="#000" stroke-linecap="round" stroke-linejoin="round" overflow="visible" stroke-width=".27168" />
   </g>
   <g fill="none" stroke="#c13c1b">
      <path d="M160.695 209.94c1.776-.976 5.18-1.223 7.455-1.137-1.284 1.843-3.51 4.486-5.198 5.364-3.246 1.689-5.277-2.569-2.257-4.228z" stroke-width=".27168" />
      <path d="M161.033 210.477c1.315-.722 3.834-.91 5.518-.849-.952 1.363-2.602 3.317-3.853 3.967-2.404 1.251-3.902-1.89-1.665-3.118z" stroke-width=".27168" />
      <path style="marker:none" d="M161.102 210.457a2.675 2.675 0 011.402 1.227c.397.754.348 1.324.231 1.814M163.607 209.826c.341.18.73.646.852.887.133.262.222.855.198 1.141" color="#000" stroke-linecap="round" stroke-linejoin="round" overflow="visible" stroke-width=".27168" />
   </g>
   <g fill="none" stroke="#c13c1b">
      <path d="M166.524 219.25c1.484-1.38 4.723-2.452 6.951-2.925-.794 2.101-2.307 5.208-3.73 6.472-2.734 2.431-5.744-1.201-3.221-3.548z" stroke-width=".27168" />
      <path d="M166.983 219.688c1.1-1.022 3.496-1.819 5.143-2.172-.59 1.555-1.713 3.852-2.766 4.789-2.026 1.8-4.246-.88-2.377-2.617z" stroke-width=".27168" />
      <path d="M167.045 219.651a2.675 2.675 0 011.66.848c.568.634.66 1.199.667 1.702M169.32 218.427c.375.091.865.448 1.043.653.193.221.424.775.47 1.058" style="marker:none" color="#000" stroke-linecap="round" stroke-linejoin="round" overflow="visible" stroke-width=".27168" />
   </g>
   <g fill="none" stroke="#c13c1b">
      <path d="M156.832 199.643c1.946-.566 5.321-.069 7.524.509-1.653 1.52-4.4 3.617-6.238 4.108-3.535.944-4.594-3.653-1.286-4.617z" stroke-width=".27168" />
      <path d="M157.045 200.241c1.441-.42 3.94-.055 5.571.37-1.225 1.123-3.26 2.672-4.622 3.036-2.618.7-3.399-2.692-.949-3.406z" stroke-width=".27168" />
      <path style="marker:none" d="M157.117 200.236c.293.187.88.681 1.103 1.503.223.822.051 1.368-.168 1.82M159.7 200.164c.294.25.571.79.639 1.052.073.284.03.882-.055 1.156" color="#000" stroke-linecap="round" stroke-linejoin="round" overflow="visible" stroke-width=".27168" />
   </g>
   <g fill="none" stroke="#c13c1b">
      <path d="M155.486 194.306c1.968-.481 5.32.162 7.495.834-1.718 1.448-4.552 3.424-6.41 3.835-3.573.79-4.432-3.849-1.085-4.669z" stroke-width=".27168" />
      <path d="M155.673 194.913c1.458-.357 3.939.116 5.55.61-1.273 1.07-3.373 2.53-4.75 2.834-2.646.585-3.278-2.837-.8-3.444z" stroke-width=".27168" />
      <path d="M155.745 194.911c.284.2.85.719 1.037 1.55.187.83-.008 1.368-.247 1.811M158.329 194.951c.282.263.536.813.592 1.078.06.288-.007.883-.105 1.153" style="marker:none" color="#000" stroke-linecap="round" stroke-linejoin="round" overflow="visible" stroke-width=".27168" />
   </g>
   <g fill="none" stroke="#c13c1b">
      <path d="M158.505 204.955c1.883-.749 5.29-.575 7.539-.21-1.501 1.672-4.035 4.02-5.819 4.684-3.429 1.276-4.92-3.199-1.72-4.474z" stroke-width=".27168" />
      <path d="M158.774 205.53c1.395-.554 3.918-.43 5.581-.162-1.112 1.235-2.99 2.97-4.312 3.462-2.54.946-3.64-2.356-1.269-3.3z" stroke-width=".27168" />
      <path style="marker:none" d="M158.845 205.519c.31.158.941.594 1.241 1.39.301.798.182 1.357.006 1.829M161.41 205.201c.316.22.643.73.736.986.1.276.114.876.055 1.156" color="#000" stroke-linecap="round" stroke-linejoin="round" overflow="visible" stroke-width=".27168" />
   </g>
   <g fill="none" stroke="#c13c1b">
      <path d="M174.773 226.737c1.03-1.745 3.83-3.695 5.83-4.783-.162 2.24-.727 5.65-1.73 7.266-1.93 3.11-5.85.485-4.1-2.483z" stroke-width=".27168" />
      <path d="M175.338 227.027c.763-1.293 2.833-2.74 4.312-3.547-.123 1.658-.545 4.18-1.288 5.378-1.429 2.303-4.32.367-3.024-1.831z" stroke-width=".27168" />
      <path d="M175.387 226.974a2.675 2.675 0 011.833.34c.726.446.974.961 1.124 1.441M177.22 225.153c.385-.02.956.183 1.185.328.248.157.627.622.752.88" style="marker:none" color="#000" stroke-linecap="round" stroke-linejoin="round" overflow="visible" stroke-width=".27168" />
   </g>
   <g fill="none" stroke="#c13c1b">
      <path d="M170.355 223.264c1.3-1.555 4.38-3.024 6.53-3.772-.524 2.185-1.636 5.456-2.889 6.888-2.409 2.755-5.85-.472-3.641-3.116z" stroke-width=".27168" />
      <path d="M170.865 223.641c.963-1.15 3.241-2.241 4.832-2.798-.391 1.616-1.217 4.036-2.145 5.097-1.784 2.04-4.323-.34-2.687-2.299z" stroke-width=".27168" />
      <path style="marker:none" d="M170.922 223.598a2.675 2.675 0 011.754.633c.643.557.805 1.107.875 1.605M173.027 222.098c.383.044.913.337 1.116.517.22.195.517.716.6.99" color="#000" stroke-linecap="round" stroke-linejoin="round" overflow="visible" stroke-width=".27168" />
   </g>
   <g fill="none" stroke="#c13c1b">
      <path d="M179.638 229.461c.835-1.847 3.407-4.088 5.278-5.386.081 2.245-.111 5.694-.934 7.41-1.581 3.3-5.762 1.116-4.344-2.024z" stroke-width=".27168" />
      <path d="M180.23 229.688c.62-1.368 2.521-3.03 3.904-3.993.057 1.662-.09 4.215-.698 5.486-1.171 2.444-4.256.832-3.205-1.493z" stroke-width=".27168" />
      <path d="M180.274 229.63c.332-.1 1.09-.225 1.859.14.77.364 1.073.85 1.274 1.31M181.899 227.62c.38-.06.97.08 1.214.2.263.128.69.55.843.793" style="marker:none" color="#000" stroke-linecap="round" stroke-linejoin="round" overflow="visible" stroke-width=".27168" />
   </g>
   <g fill="none" stroke="#c13c1b">
      <path d="M190.142 233.125c.386-1.99 2.371-4.764 3.892-6.46.597 2.167 1.206 5.567.802 7.427-.777 3.576-5.35 2.416-4.694-.967z" stroke-width=".27168" />
      <path d="M190.771 233.209c.286-1.474 1.753-3.53 2.876-4.786.439 1.604.886 4.122.587 5.5-.575 2.647-3.948 1.79-3.463-.714z" stroke-width=".27168" />
      <path style="marker:none" d="M190.8 233.143c.3-.175 1.008-.471 1.84-.294.833.177 1.24.58 1.543.982M191.917 230.813c.356-.147.962-.148 1.226-.088.287.065.8.377 1.004.578" color="#000" stroke-linecap="round" stroke-linejoin="round" overflow="visible" stroke-width=".27168" />
   </g>
   <g fill="none" stroke="#c13c1b">
      <path d="M184.835 231.612c.579-1.942 2.826-4.51 4.506-6.048.382 2.214.655 5.658.071 7.47-1.122 3.482-5.56 1.88-4.577-1.422z" stroke-width=".27168" />
      <path d="M185.453 231.756c.429-1.438 2.09-3.34 3.33-4.48.28 1.638.48 4.188.047 5.529-.832 2.58-4.105 1.397-3.377-1.049z" stroke-width=".27168" />
      <path d="M185.488 231.694a2.675 2.675 0 011.861-.113c.812.258 1.177.698 1.439 1.128M186.828 229.484c.369-.112.972-.053 1.23.033.278.093.758.453.941.673" style="marker:none" color="#000" stroke-linecap="round" stroke-linejoin="round" overflow="visible" stroke-width=".27168" />
   </g>
   <g fill="none" stroke="#c13c1b">
      <path d="M195.47 234.111c.173-2.019 1.852-4.989 3.185-6.836.823 2.09 1.79 5.407 1.586 7.3-.393 3.637-5.063 2.97-4.77-.464z" stroke-width=".27168" />
      <path d="M196.105 234.128c.128-1.496 1.368-3.696 2.351-5.064.607 1.548 1.32 4.004 1.168 5.405-.29 2.695-3.735 2.201-3.519-.341z" stroke-width=".27168" />
      <path style="marker:none" d="M196.127 234.06c.28-.207.952-.576 1.799-.488.847.087 1.294.444 1.637.812M196.99 231.624c.339-.185.941-.25 1.21-.217.292.034.835.289 1.06.467" color="#000" stroke-linecap="round" stroke-linejoin="round" overflow="visible" stroke-width=".27168" />
   </g>
   <g fill="none" stroke="#c13c1b">
      <path d="M240.198 227.215c-1.192-1.639-1.868-4.983-2.071-7.251 1.99 1.04 4.894 2.913 5.979 4.477 2.086 3.006-1.88 5.56-3.908 2.774z" stroke-width=".27168" />
      <path d="M240.688 226.812c-.883-1.214-1.387-3.689-1.54-5.367 1.472.772 3.62 2.162 4.423 3.32 1.545 2.226-1.381 4.11-2.883 2.047z" stroke-width=".27168" />
      <path d="M240.66 226.746a2.675 2.675 0 011.04-1.547c.697-.489 1.269-.512 1.77-.459M239.716 224.34c.136-.361.549-.805.773-.957.243-.165.82-.328 1.107-.34" style="marker:none" color="#000" stroke-linecap="round" stroke-linejoin="round" overflow="visible" stroke-width=".27168" />
   </g>
   <g fill="none" stroke="#c13c1b">
      <path d="M235.114 229.833c-1.046-1.736-1.43-5.126-1.436-7.404 1.894 1.21 4.624 3.327 5.57 4.978 1.817 3.176-2.355 5.377-4.134 2.426z" stroke-width=".27168" />
      <path d="M235.637 229.474c-.774-1.286-1.062-3.795-1.07-5.48 1.4.897 3.42 2.467 4.12 3.69 1.346 2.352-1.732 3.975-3.05 1.79z" stroke-width=".27168" />
      <path style="marker:none" d="M235.614 229.406a2.675 2.675 0 011.17-1.451c.738-.427 1.31-.4 1.803-.304M234.883 226.927c.166-.348.616-.754.853-.886.256-.144.845-.256 1.132-.244" color="#000" stroke-linecap="round" stroke-linejoin="round" overflow="visible" stroke-width=".27168" />
   </g>
   <g fill="none" stroke="#c13c1b">
      <path d="M245.053 224.024c-1.425-1.44-2.596-4.645-3.138-6.857 2.125.728 5.277 2.144 6.584 3.527 2.515 2.658-1.022 5.779-3.446 3.33z" stroke-width=".27168" />
      <path d="M245.477 223.552c-1.055-1.068-1.926-3.438-2.33-5.074 1.572.542 3.904 1.593 4.872 2.617 1.863 1.968-.747 4.27-2.542 2.457z" stroke-width=".27168" />
      <path style="marker:none" d="M245.439 223.49c.025-.345.18-1.097.796-1.685.616-.588 1.178-.697 1.68-.72M244.145 221.254c.08-.377.421-.878.62-1.062.215-.2.761-.448 1.043-.503" color="#000" stroke-linecap="round" stroke-linejoin="round" overflow="visible" stroke-width=".27168" />
   </g>
   <g fill="none" stroke="#c13c1b">
      <path d="M253.408 215.955c-1.764-.998-3.765-3.761-4.89-5.742 2.244.122 5.662.624 7.297 1.597 3.144 1.872.593 5.84-2.407 4.145z" stroke-width=".27168" />
      <path d="M253.687 215.385c-1.306-.74-2.79-2.783-3.625-4.247 1.66.093 4.19.468 5.4 1.19 2.33 1.385.447 4.312-1.775 3.057z" stroke-width=".27168" />
      <path d="M253.634 215.336a2.675 2.675 0 01.306-1.838c.432-.734.943-.992 1.42-1.151M251.779 213.538c-.027-.385.166-.96.306-1.191.153-.251.61-.639.866-.769" style="marker:none" color="#000" stroke-linecap="round" stroke-linejoin="round" overflow="visible" stroke-width=".27168" />
   </g>
   <g fill="none" stroke="#c13c1b">
      <path d="M249.496 220.289c-1.6-1.245-3.175-4.271-3.999-6.395 2.202.448 5.51 1.444 6.986 2.646 2.837 2.311-.267 5.864-2.987 3.749z" stroke-width=".27168" />
      <path d="M249.855 219.765c-1.184-.922-2.354-3.16-2.966-4.73 1.629.334 4.077 1.075 5.17 1.965 2.1 1.712-.19 4.332-2.204 2.765z" stroke-width=".27168" />
      <path style="marker:none" d="M249.81 219.71a2.675 2.675 0 01.57-1.775c.535-.662 1.078-.843 1.574-.93M248.237 217.66c.03-.385.304-.926.477-1.134.188-.226.698-.543.97-.634" color="#000" stroke-linecap="round" stroke-linejoin="round" overflow="visible" stroke-width=".27168" />
   </g>
   <g fill="none" stroke="#c13c1b">
      <path d="M256.507 211.263c-1.806-.92-3.926-3.594-5.136-5.523 2.247.023 5.684.376 7.36 1.277 3.223 1.733.847 5.808-2.224 4.246z" stroke-width=".27168" />
      <path d="M256.76 210.68c-1.337-.68-2.908-2.657-3.806-4.083 1.662.02 4.206.284 5.447.952 2.387 1.283.634 4.289-1.64 3.132z" stroke-width=".27168" />
      <path d="M256.705 210.635a2.675 2.675 0 01.226-1.85c.4-.752.899-1.033 1.369-1.212M254.774 208.919c-.043-.383.123-.966.254-1.204.141-.257.582-.664.832-.805" style="marker:none" color="#000" stroke-linecap="round" stroke-linejoin="round" overflow="visible" stroke-width=".27168" />
   </g>
   <g fill="none" stroke="#c13c1b">
      <path d="M261.104 201.28c-1.939-.588-4.494-2.85-6.024-4.537 2.216-.37 5.662-.625 7.47-.032 3.476 1.141 1.851 5.57-1.446 4.57z" stroke-width=".27168" />
      <path d="M261.252 200.664c-1.436-.437-3.33-2.108-4.464-3.354 1.64-.272 4.191-.457 5.53-.017 2.576.845 1.376 4.111-1.066 3.37z" stroke-width=".27168" />
      <path style="marker:none" d="M261.19 200.628a2.675 2.675 0 01-.103-1.861c.262-.81.704-1.174 1.136-1.433M258.987 199.277c-.11-.37-.047-.973.04-1.23.094-.278.456-.755.677-.938" color="#000" stroke-linecap="round" stroke-linejoin="round" overflow="visible" stroke-width=".27168" />
   </g>
   <g fill="none" stroke="#c13c1b">
      <path d="M259.186 206.325c-1.886-.743-4.252-3.2-5.642-5.005 2.238-.192 5.693-.171 7.448.565 3.374 1.415 1.4 5.7-1.806 4.44z" stroke-width=".27168" />
      <path d="M259.383 205.72c-1.397-.549-3.151-2.366-4.182-3.699 1.657-.14 4.214-.12 5.514.425 2.5 1.048 1.043 4.209-1.332 3.275z" stroke-width=".27168" />
      <path d="M259.323 205.68a2.675 2.675 0 01.047-1.863c.326-.787.796-1.113 1.246-1.337M257.236 204.158c-.08-.378.03-.973.137-1.222.116-.27.516-.718.751-.882" style="marker:none" color="#000" stroke-linecap="round" stroke-linejoin="round" overflow="visible" stroke-width=".27168" />
   </g>
   <g fill="none" stroke="#c13c1b">
      <path d="M262.838 196.031c-1.991-.377-4.775-2.35-6.477-3.863 2.163-.607 5.561-1.23 7.423-.835 3.579.76 2.439 5.338-.946 4.698z" stroke-width=".27168" />
      <path d="M262.918 195.402c-1.474-.28-3.537-1.737-4.798-2.855 1.601-.446 4.117-.904 5.496-.611 2.651.563 1.81 3.94-.698 3.466z" stroke-width=".27168" />
      <path style="marker:none" d="M262.852 195.373a2.675 2.675 0 01-.302-1.84c.174-.833.574-1.242.975-1.546M260.517 194.267c-.148-.356-.151-.962-.092-1.227.063-.286.372-.8.572-1.006" color="#000" stroke-linecap="round" stroke-linejoin="round" overflow="visible" stroke-width=".27168" />
   </g>
   <path d="M185.706 187.721l-.73 1.717c5.29 10.59 7.863 15.598 26.212 14.501l-3.118-10.564-3.412-6.927c-1.495-.401-5.718-.984-6.519.329-1.368-.817-5.436-.78-7.384.414-1.403-1.21-4.41-.893-5.05.53z" fill="#a13c2a" fill-rule="evenodd" stroke="#000" stroke-width=".216" />
   <path d="M231.931 184.97l39.926 7.195c45.255 13.666 38.111 43.494 38.561 55.35l.393 7.642 8.647-.175-.196-36.393-.237-2.146c-4.126-21.7-8.519-46.448-22.453-64.388-11.883-15.3-27.944-31.98-50.265-39.632-17.656-6.053-24.38-5.978-34.81-6.502-1.418 4.93-1.21 15.846 6.978 39.605-12.794 22.129-13.92 25.272-17.977 31.64 7.332 9.318 7.046 28.536 7.599 41.074.493 21.766.639 35.6.639 35.6h25.545c.158-11.814.058-20.042.082-34.683-.885-12.037-.674-24.857-2.432-34.188z" fill="#025" fill-rule="evenodd" stroke="#000" stroke-width=".23" stroke-linecap="round" stroke-linejoin="round" />
   <path d="M279.089 526.89l-1.203.32.74 12.022c.093 17.745.563 36.573 4.168 49.573l5.23-8.442 10.056 8.596c-3.038-31.148-9.331-22.25-18.991-62.07z" fill="#04a" fill-rule="evenodd" stroke="#000" stroke-width=".432" />
   <path d="M284.15 596.212l5.852-8.287 7.866 6.628" fill="none" stroke="#c13c1b" stroke-width=".432" stroke-linecap="round" stroke-linejoin="round" />
   <path d="M285.117 603.408l5.723-8.033 7.637 6.376M286.193 610.947l5.477-7.764 7.416 6.203M287.296 618.986l5.412-7.637 7.148 5.957M288.263 626.4l5.264-7.54 7.105 5.922M289.344 634.198l5.022-7.233 6.894 5.828M290.534 641.87l4.889-7.018 6.718 5.69M291.532 649.2l4.72-6.758 6.455 5.481M292.45 656.103l4.622-6.587 6.235 5.309M293.168 663.437l4.802-6.42 6.04 5.014M294.055 670.702l4.893-6.225 5.835 4.958M294.998 678.098l4.57-5.735 6.159 4.536M296.02 685.37l4.596-5.635 5.745 4.135M298.655 704.243l4.43-5.172 5.418 3.504M297.78 698.393l4.364-5.557 5.668 3.904M296.995 691.762l4.44-5.171 5.554 3.734M299.54 710.809l4.472-5.274 5.31 3.974M300.415 716.972l4.198-5.017 5.496 3.503M301.93 729.2l4.43-5.017 5.727 3.503M301.288 722.987l4.154-4.753 5.62 3.596M302.264 731.45l10.15-1.533" fill="none" stroke="#c13c1b" stroke-width=".432" stroke-linecap="round" stroke-linejoin="round" />
   <g fill-rule="evenodd" stroke="#000" stroke-linecap="round" stroke-linejoin="round">
      <path d="M293.871 522.412c2.697-.881 4.906-.544 7.032 0l-1.24-33.733 16.063 1.073c-.491-2.416-.657-4.832 0-7.248l-16.063 1.127h0c3.364-6.013 8.082-11.345 9.778-20.139 3.429-17.771-5.633-17.025-11.92-17.082-6.844-.062-16.947 1.008-12.744 17.84 1.934 7.741 6.647 13.83 10.45 19.38h0l-18.052-1.126c.606 2.416.547 4.832 0 7.248l18.052-1.073h0l-1.356 33.733z" fill="#025" stroke-width=".21417" />
      <path d="M295.227 478.664c-3.47-4.71-6.799-9.313-7.637-15.388-1.695-12.282 4.682-13.654 9.841-13.686 4.588-.027 11.367.624 8.332 13.578-1.424 6.077-3.639 11.545-6.1 15.496-1.54 2.086-3.196 1.745-4.436 0z" fill="#fff" stroke-width=".21417" />
   </g>
   <path d="M309.285 426.152l-19.85-.541c-.994 4.965-3.446 10.223-5.842 15.469-3.166 5.025-3.372 11.439-2.488 17.524l-.324 5.733c8.915 1.068.301-10.831 5.95-15.252l.865 8.221c1.616 1.539 3.21 2.756 4.543.325 1.587 1.777 3.173 1.648 4.76-.325 1.94 2.508 3.523.743 5.192 0 1.779 1.391 3.661 1.886 4.868-1.298.35-8.683 2.949-17.116 2.326-29.856z" fill="#a13c2a" fill-rule="evenodd" stroke="#000" stroke-width=".432" stroke-linecap="round" stroke-linejoin="round" />
   <g fill-rule="evenodd" stroke="#000" stroke-linecap="round" stroke-linejoin="round">
      <path d="M289.264 414.415l20.824.163-.865 13.143-19.85-.757-.109-12.549z" fill="#fac53a" stroke-width=".21417" />
      <path d="M289.264 416.308l20.662.27-.213 4.062-20.395-.321-.054-4.01z" fill="#04a" stroke-width=".21417" />
      <path d="M289.046 414.36l20.878.218-.592 13.088-20.232-.702-.054-12.603z" fill="#fac53a" stroke-width=".21417" />
      <path d="M289.071 416.308l20.855.27-.251 4.062-20.55-.321-.054-4.01zM289.11 421.548l20.491.309-.212 4.06-20.225-.359-.054-4.01z" fill="#04a" stroke-width=".21417" />
   </g>
   <path d="M77.78 402.296c-10.26 1.61-22.705 5.432-31.006 18.986l-5.114 3.168c2.706 5.951 8.038 2.536 9.737-.573-1.008 2.748-.477 4.505 2.77 4.51-.688 2.564.216 4.048 3.227 4.105-1.604 2.526.297 4.752 3.076 4.24-.978 3.232.755 4.605 2.472 4.637 4.58 1.969 25.028-23.414 27.065-25.628" fill="#a13c2a" fill-rule="evenodd" stroke="#000" stroke-width=".432" stroke-linecap="round" stroke-linejoin="round" />
   <path d="M51.381 210.573c.717-7.123-.404-13.378 2.521-22.039 3.57-10.57 7.136-12.402 11.293-17.955 1.575-1.287 4.167.057 3.317 2.504-4.821 4.49-8.263 10.623-9.669 14.122 1.447-.163 8.412-.698 8.568 6.52l-.024 492.832c7.755 8.9 1.09 15.74 1.506 23.471-.792.382-1.422.138-1.502-.536-1.038-8.46 1.848-12.15-.052-16.55-.908-2.103-2.607-2.005-3.597-.215-2.133 3.858.855 6.231.075 16.683-.057.76-.988.98-1.368.523-.486-7.767-5.855-14.314 1.252-23.384l-.008-492.235c-.401-4.027-4.757-4.458-6.92.092-2.537 5.333-1.462 10.862-2.142 16.292-1.126 3.497-3.44 2.15-3.25-.125z" fill="#025" fill-rule="evenodd" stroke="#000" stroke-width=".214" stroke-linecap="round" stroke-linejoin="round" />
   <g fill-rule="evenodd" stroke="#000" stroke-linecap="round" stroke-linejoin="round">
      <path d="M78.147 389.123l21.398 12.625-9.245 13.956-17.57-12.765 5.417-13.816z" fill="#fac53a" stroke-width=".28617" />
      <path d="M77.46 390.864l20.882 13.028-2.71 3.972-19.674-13.039 1.501-3.961zM75.126 396.965l18.927 13.079-2.928 4.354-17.718-13.09 1.72-4.343z" fill="#04a" stroke-width=".28617" />
   </g>
   <path d="M64.314 413.107c3.666-2.82 8.043-2.394 4.592 1.786 2.973-2.831 9.083-2.346 3.017 3.458 5.533-3.328 5.841 1.142 3.005 3.662 3.732-2.291 4.734 1.309.93 4.97-3.792 4.721-8.235 9.548-12.523 14.239-.08.084-.186.137-.356.12-1.717-.033-3.423-1.24-2.446-4.474-2.778.513-4.68-1.713-3.075-4.24-3.012-.055-3.916-1.54-3.229-4.103-3.246-.006-4.095-1.275-3.088-4.023.133-.23.264-.407.391-.541 4.58-4.955 8.792-8.516 12.665-10.785m.833-.508c-.291 1.227.936 2.9 3.01 2.932m.84-.531c-.831 1.441 1.603 3.408 2.924 3.33m.34-.198c-1.223 1.512.572 4.712 3.196 3.37m-.458.507c-.707 1.605.586 3.26 2.027 3.607m-19.438 6.94c.535-.377 14.485-14.254 14.485-14.254m-17.592 10.073c.763-.773 14.598-13.572 14.598-13.572m-8.365 21.97l14.433-14.908" fill="#a13c2a" fill-rule="evenodd" stroke="#000" stroke-width=".432" stroke-linecap="round" stroke-linejoin="round" />
   <path d="M68.88 415.069c-.243.167-.283.502-.841.53-2.527.006-3.126-2.49-3.03-2.937 3.465-2.255 7.165-1.604 3.938 2.306 2.973-2.831 9.042-2.421 2.976 3.383 5.533-3.328 5.912 1.028 3.075 3.549 3.317-2.036 4.407.693 1.933 3.828-1.463-.39-2.756-2.045-1.912-3.81-2.487 1.183-4.098-2.205-3.045-3.618-1.491.177-3.926-1.79-3.094-3.231z" fill="#fff" fill-rule="evenodd" stroke="#000" stroke-width=".432" stroke-linecap="round" stroke-linejoin="round" />
   <path d="M69.747 411.656c-2.426-.894-5.609.892-12.635 6.77L55.817 411c7.36-5.004 10.655-6.424 17.04-7.775" fill="#a13c2a" fill-rule="evenodd" />
   <path d="M57.112 418.426c7.026-5.878 10.31-7.674 12.737-6.78m2.939-8.378c-6.385 1.35-9.749 2.626-17.089 7.846" fill="none" stroke="#000" stroke-width=".432" />
   <g>
      <path d="M4025.317 656.303l33.517-.045-.218 55.187-31.768.818-1.531-55.96z" fill="#fac53a" fill-rule="evenodd" stroke="#000" transform="matrix(.2675 0 0 .21617 -766.377 101.171)" />
      <path d="M4026.335 661.639l27.84.463M4026.705 670.056l26.968.182M4026.818 678.605l26.602.463M4027.407 687.812l26.667.463M4027.967 696.844l26.528.26M4028.121 704.836l26.545-.079" fill="none" stroke="#c13c1b" stroke-width="2.972" stroke-linecap="round" stroke-linejoin="round" transform="matrix(.2675 0 0 .21617 -766.377 101.171)" />
      <path d="M4025.205 656.13l1.555 54.548" fill="none" stroke="#000" transform="matrix(.2675 0 0 .21617 -766.377 101.171)" />
   </g>
   <g fill-rule="evenodd" stroke="#000" stroke-linecap="round" stroke-linejoin="round">
      <path d="M-2298.264 185.199l129.779 8.359-8.488 77.742-132.395-13.063 11.104-73.038z" fill="#fac53a" transform="matrix(.26144 -.00426 .00494 .22537 716.966 196.313)" />
      <path d="M-2299.299 193.609l129.66 10.549-2.604 22.255-130.567-9.952 3.511-22.852zM-2304.076 224.65L-2173.32 236l-2.746 24.159-131.762-10.989 3.753-24.52z" fill="#04a" transform="matrix(.26144 -.00426 .00494 .22537 716.966 196.313)" />
   </g>
   <g fill-rule="evenodd" stroke="#000" stroke-linecap="round" stroke-linejoin="round">
      <path d="M-2301.611 184.81l110.51 7.598-12.757 77.185-100.902-10.518 3.149-74.266z" fill="#fac53a" transform="matrix(.25786 .0433 -.03608 .22252 733.02 730.253)" />
      <path d="M-2302.218 193.931l109.506 8.31-3.595 21.223-106.536-7.241.625-22.292zM-2303.251 224.49l104.788 11.037-4.15 23.206-101.819-9.488 1.18-24.755z" fill="#04a" transform="matrix(.25786 .0433 -.03608 .22252 733.02 730.253)" />
   </g>
   <g fill-rule="evenodd" stroke="#000" stroke-linecap="round" stroke-linejoin="round">
      <path d="M-2305.348 184.73l117.692 7.561-12.03 77.508-107.182-11.397 1.52-73.671z" fill="#fac53a" transform="matrix(.26105 -.01487 .01408 .22499 845.757 601.913)" />
      <path d="M-2305.446 193.202l116.011 9.648-3.645 22.187-112.856-8.782.49-23.053zM-2306.264 224.506l112.106 10.117-3.892 24.083-108.633-9.46.42-24.74z" fill="#04a" transform="matrix(.26105 -.01487 .01408 .22499 845.757 601.913)" />
   </g>
   <path d="M272.864 537.168c-90.461-15.206-106.956-83.4-100.208-171.31l82.404-14.567c7.818 13 12.426 30.564 6.55 40.068 7.66 48.435 12.312 97.665 11.254 145.809z" fill="#fac53a" fill-rule="evenodd" stroke="#000" stroke-width=".216" />
   <g>
      <path d="M254.796 351.146l-6.27-29.79-75.806 36.691-.23 7.61 82.306-14.511z" fill="#fac53a" fill-rule="evenodd" stroke="#000" stroke-linecap="round" stroke-linejoin="round" stroke-width=".21617" />
      <path d="M222.11 340.051l6.634-2.759 1.658 4.098-6.732 2.396-1.56-3.735z" fill="#04a" fill-rule="evenodd" stroke="#04a" stroke-width=".24989251999999998" />
      <path d="M231.396 336.19l6.034-2.532 1.939 4.724-6.18 2.109-1.793-4.3z" fill="#c13c1b" fill-rule="evenodd" stroke="#c13c1b" stroke-width=".24989251999999998" />
      <path d="M240.13 332.716l6.88-2.9 2.08 5.018-7.131 2.487-1.829-4.605z" fill="#04a" fill-rule="evenodd" stroke="#04a" stroke-width=".24989251999999998" />
      <path d="M248.524 321.247l.739 3.653-73.133 32.072-3.25.908 75.644-36.633z" fill="#fff" fill-rule="evenodd" stroke="#000" stroke-linecap="round" stroke-linejoin="round" stroke-width=".21617" />
      <path d="M185.387 354.991l6.054-2.42.858 2.325-6.117 2.251-.795-2.156z" fill="#04a" fill-rule="evenodd" stroke="#04a" stroke-width=".24989251999999998" />
      <path d="M194.443 351.392l6.42-2.697.993 2.742-6.469 2.318-.944-2.363z" fill="#c13c1b" fill-rule="evenodd" stroke="#c13c1b" stroke-width=".24989251999999998" />
      <path d="M203.493 347.756l6.517-2.81 1.372 3.233-6.834 2.362-1.055-2.785z" fill="#04a" fill-rule="evenodd" stroke="#04a" stroke-width=".24989251999999998" />
      <path d="M212.876 343.673l6.688-2.76 1.633 3.864-6.844 2.432-1.477-3.536z" fill="#308d57" fill-rule="evenodd" />
      <path d="M251.146 334.329l-66.937 23.58M249.938 328.485l-67.79 27.732M239.185 333.038l1.925 4.594M238.305 333.276l1.91 4.723M248.768 329.036l2.102 5.248M247.896 329.401l2.145 5.202M230.528 336.615l1.892 4.164M229.592 336.95l1.852 4.178M221.317 340.35l1.52 3.681M220.411 340.585l1.651 3.854M211.731 344.185l1.509 3.272M210.899 344.562l1.452 3.29M202.639 348.067l1.015 2.753M201.71 348.45l1.096 2.744M193.6 351.746l.789 2.434M192.584 352.104l.874 2.475M184.568 355.338l.787 2.052M183.767 355.573l.865 2.102" fill="none" stroke="#000" stroke-width=".24989251999999998" stroke-linecap="round" stroke-linejoin="round" />
      <path d="M242.539 343.286l7.161-2.108 1.504 5.22-7.367 1.67-1.298-4.782z" fill="#04a" fill-rule="evenodd" stroke="#04a" stroke-width=".24989251999999998" />
      <path d="M233.469 345.755l6.28-1.837 1.474 4.858-6.457 1.454-1.297-4.475z" fill="#c13c1b" fill-rule="evenodd" stroke="#c13c1b" stroke-width=".24989251999999998" />
      <path d="M223.807 348.548l6.903-1.996 1.186 4.258-6.959 1.623-1.13-3.885z" fill="#04a" fill-rule="evenodd" stroke="#04a" stroke-width=".24989251999999998" />
      <path d="M214.224 351.108l6.957-1.991 1.188 4.024-7.074 1.646-1.07-3.68z" fill="#308d57" fill-rule="evenodd" />
      <path d="M204.442 354.109l6.792-2.058 1 3.365-7.142 1.649-.65-2.956z" fill="#04a" fill-rule="evenodd" stroke="#04a" stroke-width=".24989251999999998" />
      <path d="M195.047 356.64l6.676-1.894.678 2.837-6.688 1.575-.666-2.518z" fill="#c13c1b" fill-rule="evenodd" stroke="#c13c1b" stroke-width=".24989251999999998" />
      <path d="M186.033 359.257l6-1.632.644 2.257-6.073 1.453-.571-2.078z" fill="#04a" fill-rule="evenodd" stroke="#04a" stroke-width=".24989251999999998" />
      <path d="M253.624 345.982l-69.486 16.047M252.4 340.329l-69.923 19.747M241.563 343.5l1.396 4.781M240.662 343.637l1.367 4.908M251.532 340.589l1.502 5.463M250.628 340.866l1.546 5.41M232.559 346.08l1.412 4.35M231.59 346.308l1.37 4.36M222.986 348.756l1.097 3.828M222.06 348.887l1.207 4.015M213.03 351.487l1.13 3.421M212.16 351.769l1.073 3.431M203.558 354.321l.7 2.851M202.592 354.598l.78 2.85M194.085 356.961l.664 2.429M193.113 357.202l.706 2.594M185.396 359.357l.596 2.204M184.75 359.54l.485 2.111" fill="none" stroke="#000" stroke-width=".24989251999999998" stroke-linecap="round" stroke-linejoin="round" />
      <path d="M184.956 358.29l66.635-22.16M185.125 358.78l66.887-20.474M184.28 362.593l69.612-15.23M183.245 363.337l71.203-13.827M178.782 356.355l70.673-30.35M180.59 356.253l69.146-28.99" fill="none" stroke="#000" stroke-width=".21617" />
      <path d="M172.454 365.698c7.906-1.791 13.708-.977 12.6-6.883-.809-4.309-8.228-2.253-12.329-.93l-.271 7.813z" fill="#fac53a" fill-rule="evenodd" stroke="#000" stroke-linecap="round" stroke-linejoin="round" stroke-width=".21617" />
   </g>
   <g>
      <path d="M155.822 536.996L172.8 366.73l88.628-.107c1.155 4.702 5.286 13.354.315 25.97 7.617 48.325 12.237 97.132 11.18 145.163l-117.102-.761z" fill="#fff" fill-rule="evenodd" stroke="#000" stroke-width=".43234" />
      <path d="M272.666 537.358c-90.452-15.254-106.91-83.457-100.116-171.365l82.412-14.522c7.811 13.004 12.545 31.471 6.665 40.973 7.634 48.438 12.124 96.77 11.04 144.914z" fill="#fac53a" fill-rule="evenodd" stroke="#000" stroke-width=".21617" />
      <path d="M254.78 351.547l-66.818 130.9M250.79 352.232l-64.67 126.692M184.413 475.136l62.394-122.234M242.793 353.633L182.751 471.26M181.22 467.129l57.565-112.775M234.784 355.06L179.75 462.876M178.385 458.417l52.41-102.675M226.819 356.4l-49.686 97.338M175.975 448.876l46.818-91.72M218.785 357.876l-43.82 85.847M174.006 438.469l40.765-79.862M210.795 359.265l-37.569 73.6M172.546 427.066l34.24-67.08M202.792 360.68l-30.79 60.317M171.59 414.673l27.194-53.275M194.796 362.08l-23.468 45.975M171.201 401.172l19.605-38.407M186.78 363.52l-15.55 30.463M171.409 386.501l11.395-22.323M178.777 364.935l-7.114 13.937M172.202 370.684l2.586-5.067M256.802 354.716l-66.94 131.141M191.848 489.099l66.72-130.708M260.21 362.306l-66.333 129.949M195.994 495.239l65.69-128.691M262.949 371.202l-64.75 126.85M200.451 500.771l63.473-124.347M264.232 382.952l-61.434 120.353M205.17 505.79l56.861-111.394M262.848 399.927l-55.225 108.191M210.069 510.458l53.561-104.93M264.456 411.041l-51.83 101.538M215.254 514.563l49.949-97.853M265.994 422.293L217.91 516.49M220.638 518.28l46.006-90.13M267.374 433.853l-43.997 86.193M226.184 521.678l41.884-82.053M268.613 445.69l-39.61 77.598M231.898 524.748l37.444-73.356M269.817 457.594l-34.988 68.545M237.83 527.392l32.568-63.803M270.791 469.95l-29.974 58.722M243.835 529.89l27.425-53.726M271.708 482.417l-24.754 48.496M250.01 532.059l22.015-43.131M272.307 495.508l-19.11 37.439M256.408 533.787l16.199-31.734M272.774 508.856l-13.161 25.785M262.843 535.444l9.994-19.578M272.935 522.806l-6.787 13.296M269.465 536.735l3.357-6.575" fill="none" stroke="#c13c1b" stroke-width=".43234" />
      <path d="M272.632 537.358c-90.452-15.254-106.91-83.457-100.116-171.365l82.412-14.522c7.81 13.004 12.545 31.471 6.665 40.973 7.634 48.438 12.124 96.77 11.04 144.914z" fill="none" stroke="#000" stroke-width=".43234" />
   </g>
   <path d="M175.864 349.286a.813 2.047-.507 11-1.626 0 .813 2.047-.507 111.626 0z" style="marker:none" color="#000" fill-opacity=".706" fill-rule="evenodd" overflow="visible" />
   <g>
      <path d="M210.945-175.397h26.425v12.196h-26.425v-12.196z" fill="#fac53a" fill-rule="evenodd" stroke="#000" stroke-width=".224" transform="matrix(.97491 0 0 .96682 2.913 412.456)" />
      <path d="M212.585-174.204l22.881.104M212.575-172.066l22.88.104M212.65-170.091l22.88.104M212.639-168.192l22.881.103M212.79-166.22l22.875-.054M212.706-164.24l22.95-.215" fill="none" stroke="#c13c1b" stroke-width=".665" stroke-linecap="round" stroke-linejoin="round" transform="matrix(.97491 0 0 .96682 2.913 412.456)" />
   </g>
   <path d="M191.368 173.187c-4.453.166-8.533.875-12.558 3.09-15.794 11.385-15.975 24.7-17.42 37.85-.044.409.044 39.67-.002 40.08l25.81.033s.12-39.833.118-40.115c.665-14.17-3.595-28.769 4.052-40.938z" style="marker:none" color="#000" fill="#025" fill-rule="evenodd" stroke="#000" stroke-width=".214" stroke-linecap="round" stroke-linejoin="round" overflow="visible" />
   <g>
      <path d="M210.945-175.397h26.425v12.196h-26.425v-12.196z" fill="#fac53a" fill-rule="evenodd" stroke="#000" stroke-width=".224" transform="matrix(.97491 0 0 .96682 -44.23 412.1)" />
      <path d="M212.585-174.204l22.881.104M212.575-172.066l22.88.104M212.65-170.091l22.88.104M212.639-168.192l22.881.103M212.79-166.22l22.875-.054M212.706-164.24l22.95-.215" fill="none" stroke="#c13c1b" stroke-width=".665" stroke-linecap="round" stroke-linejoin="round" transform="matrix(.97491 0 0 .96682 -44.23 412.1)" />
   </g>
   <g fill-rule="evenodd" stroke="#000">
      <path d="M165.551 111.757c-6.99-17.696.068-28.504 15.114-31.862-1.069-3.067-.664-16.03 9.515-8.809-9.595-10.917-10.647-17.236.508-.766-.573-2.358-1.13-3.973-2.263-6.675-3.655-8.715-.664-6.384 2.537-.784 1.505-.068 3.01-.123 4.51-.161-1.14-7.985.988-8.101 2.246-.043.972-.013 1.943-.016 2.912-.01.58-8.113 1.925-8.251 2.656.044 1.774.049 3.542.136 5.303.271 3.08-7.379 4.959-7.04 2.244 1.56-.109.345-1.645 4.358-1.268 4.395 9.312-13.256 11.536-11.302-.306 1.992 6.414-6.99 9.195.326 8.986 6.331 10.22-.49 26.897 9.745 17.973 33.291 2.36 12.657 5.675 35.866 4.085 54.328-2.188 25.416-16.486 31.3-38.601 30.636-22.119-.663-39.09-9.76-40.44-28.39-1.444-19.933.252-45.581 4.29-55.348z" stroke-width=".40437" />
      <path d="M159.009 103.076c-.677-7.161-5.508-17.091-11.41-22.385 1.427-2.417 5.098-7.296-.866-9.531 4.516-4.994 7.37-10.183 2.167-16.32 6.029-1.685 6.965-6.13 5.127-12.42 16.013-1.768 20.166-12.734 20.29-16.32.052-1.484 2.974-.271 2.744 1.3-2.606 17.87-12.022 5.538-20.94 33.65-.855 3.432-2.992 22.55 5.488 37.694-.198 2.95-.868 4.836-2.6 4.332zM242.41 103.076c.676-7.161 5.508-17.091 11.409-22.385-1.426-2.417-5.097-7.296.867-9.531-4.516-4.994-7.37-10.183-2.167-16.32-6.029-1.685-6.965-6.13-5.127-12.42-16.013-1.768-20.166-12.734-20.29-16.32-.052-1.484-2.974-.271-2.745 1.3 2.607 17.87 12.023 5.538 20.941 33.65.855 3.432 2.992 22.55-5.488 37.694.197 2.95.868 4.836 2.6 4.332zM160.886 113.474c-9.092 11.849-17.214 31.927-10.975 33.65 8.276 2.287 9.408-21.88 13.43-30.906 1.425-2.888-.101-4.831-2.455-2.744zM159.009 165.032c-7.571 11.354-16.602 35.073-3.755 58.923 2.363 4.388 6.12 3.188 4.622-1.733-2.673-8.779-6.76-19.683-6.25-30.769 5.124 25.304 7.333 19.147 6.75 18.077-4.334-8.46-4.389-28.433-2.214-34.683.456-1.312 1.437-2.421 2.291-3.605.53-.096 2.57-7.184-1.444-6.21zM240.838 113.474c9.092 11.849 17.214 31.927 10.976 33.65-8.277 2.287-9.41-21.88-13.431-30.906-1.425-2.888.101-4.831 2.455-2.744zM242.79 165.032c7.572 11.354 16.602 35.073 3.755 58.923-2.363 4.388-6.119 3.188-4.621-1.733 2.672-8.779 6.76-19.683 6.25-30.769-5.125 25.304-7.333 19.147-6.75 18.077 4.334-8.46 4.388-28.433 2.213-34.683-.456-1.312-1.437-2.421-2.29-3.605-.53-.096-2.57-7.184 1.444-6.21z" stroke-width=".40437" />
   </g>
</svg>