<svg width="293" height="600" xmlns="http://www.w3.org/2000/svg">
    <path d="M101.97 597.42c-1.42-1.41-2.58-3.01-2.58-3.54 0-.52.84-8.85 1.86-18.5 4.54-42.94 3.79-70.85-2.24-83.9-10.1-21.86-40.06-40.13-88.99-54.27C1.5 434.76 0 432.77 0 424.02c-.01-9.7 47.53-411.16 49.36-416.9C51.62.04 56.24-1.21 69.04 1.8c25.02 5.89 47.67 23.93 59.13 47.1l4.13 8.34.34 268.79c.32 267.62.32 268.81-2.26 271.38-2.21 2.2-4.3 2.59-14.21 2.59-9.9 0-12.01-.39-14.2-2.58m20.65-6.43c2.52-2.51 2.58-4.29 2.58-67.37v-64.79l-3.55-4.74c-13.05-17.36-53.99-37.85-101.84-50.91l-9.21-2.52-.83 7.29c-.44 4-1.12 9.41-1.51 12.01-.93 6.17 2.23 9.43 10.3 10.64 22.14 3.31 63.14 24.92 77.65 40.94 12.25 13.52 15.99 26.83 16.02 57 0 14.86-1.57 41.11-3.23 53.65-.65 5.02-.34 6.45 1.9 8.69 3.4 3.39 8.39 3.43 11.72.11m.25-176.36c-6.01-8.11-25.38-19.89-49.3-30.01-12.17-5.15-47.06-17.31-55.62-19.38l-3.34-.81-1.5 13.81c-2.25 20.77-2.29 20.46 3.17 21.48 8.73 1.65 41.13 12.59 55.8 18.86 19.73 8.46 33.86 16.95 44.02 26.48l8.46 7.91.36-17.55c.32-15.46.08-17.92-2.05-20.79m-.53-42.22c-9.74-10.44-41.73-25.72-83.93-40.07l-18.86-6.41-.76 4.74c-1.13 7.09-3.38 30.19-2.97 30.6.2.2 10.06 3.57 21.91 7.49 37.06 12.23 64.94 25.15 79.25 36.74l7.58 6.14.36-18.03c.33-17.25.23-18.19-2.58-21.2m.36-39.5c-4.42-4.69-21.96-14.54-38.8-21.8-15.79-6.81-59.45-23.1-60.05-22.4-.89 1.05-4.13 33.95-3.42 34.62.48.43 5.77 2.33 11.75 4.24 33.48 10.58 73.47 28.14 85.92 37.75l6.46 4.97.36-17.32c.32-15.82.14-17.55-2.22-20.06m-1.18-42.1c-8.72-7.83-30.57-18.52-58.27-28.48-22.93-8.24-34.88-11.48-35.47-9.57-1.37 4.36-3.44 32.11-2.46 32.96.64.54 7.53 3.18 15.34 5.86 32.69 11.2 64.59 25.49 77.44 34.71l6.46 4.62.37-18.36.38-18.34-3.79-3.4m-.81-41.84c-8.29-7.23-39.07-21.1-75.25-33.91-6.6-2.34-12.21-4.03-12.48-3.75-.38.38-4.58 33.72-4.58 36.35 0 .31 7.69 3 17.1 5.98 31.64 10.01 58.33 21.52 72.6 31.3l6.46 4.41.38-18.17.39-18.18-4.62-4.03m2.7-36.72c-4.88-6.94-28.18-20.55-50.48-29.46-9.93-3.97-35.49-12.91-35.51-12.42 0 .13-.88 7.16-1.94 15.63-3 24.06-4.15 21.45 11.96 27.06 30.73 10.7 61.67 24.34 72.6 31.97l4.52 3.16.36-16.64c.28-12.88-.07-17.22-1.51-19.3m-4.54-45.06c-8.1-7.48-31.03-19.25-54.33-27.86-9.58-3.54-18.65-6.8-20.15-7.25-2.62-.78-2.8-.13-4.52 15.64-.99 9.04-1.79 17.24-1.79 18.21 0 1.09 6.5 4 17.42 7.79 31.01 10.75 57.45 23.97 65.83 32.92l3.23 3.45.38-18.46.39-18.45-6.46-5.99m5-32.06c-2.17-4.06-15.29-13.12-29.26-20.22-15.8-8.03-45.32-20-47.38-19.21-1.89.72-5.45 31.54-3.81 32.98.61.53 7.5 3.14 15.31 5.79 26.63 9.04 56.19 23.83 63.3 31.69 2.53 2.79 2.53 2.78 2.89-12.81.22-9.52-.18-16.62-1.05-18.22m-1.53-38.29c-6.97-7.6-30.14-20.11-57.89-31.26-9.55-3.85-13.43-4.88-14.11-3.76-.53.83-1.36 5.96-1.83 11.38-.48 5.42-1.2 12.02-1.62 14.68-.51 3.32-.27 4.82.8 4.82 2.98 0 31.73 11.78 45.86 18.8 7.84 3.88 18.01 9.83 22.62 13.2l8.39 6.15.36-15.41c.35-14.5.19-15.59-2.58-18.6m-1.65-36.16c-5.79-6.23-23.01-15.72-46.99-25.9-13-5.53-18.87-7.45-19.53-6.4-.5.82-1.3 5.92-1.77 11.34s-1.16 11.59-1.53 13.71c-.66 3.81-.52 3.93 10.7 8.19 17.24 6.58 52 23.99 57.82 28.99l5.17 4.41.36-14.69.36-14.69-4.59-4.96m-2.39-11.43C106.69 30.19 88.42 15.7 68.59 9.82c-9.93-2.93-11.78-1.66-13.75 9.49l-.78 4.51 15.24 6.31c19.27 7.98 40.81 18.71 47.51 23.65 2.84 2.1 5.37 3.63 5.63 3.41.25-.2-1.61-3.78-4.14-7.94M262.02 597.42c-1.42-1.41-2.58-3.01-2.58-3.54 0-.52.84-8.85 1.86-18.5 4.54-42.94 3.79-70.85-2.23-83.9-10.11-21.86-40.07-40.13-89-54.27-8.53-2.47-10.02-4.44-10.02-13.28 0-5.45 46.5-403.3 48.46-414.67 1.64-9.47 7.48-11.11 23.63-6.65 24.06 6.65 45.04 23.97 56.08 46.29l4.13 8.34.34 268.79c.32 267.62.32 268.81-2.26 271.38-2.21 2.2-4.3 2.59-14.21 2.59-9.9 0-12-.39-14.2-2.58m20.65-6.43c2.52-2.51 2.59-4.29 2.59-67.37v-64.79l-3.55-4.74c-13.05-17.36-54-37.85-101.84-50.91l-9.22-2.52-.83 7.29c-.44 4-1.12 9.41-1.51 12.01-.93 6.17 2.24 9.43 10.3 10.64 22.14 3.31 63.15 24.92 77.66 40.94 12.24 13.52 15.99 26.83 16.01 57 0 14.86-1.57 41.11-3.22 53.65-.66 5.02-.35 6.45 1.89 8.69 3.4 3.39 8.39 3.43 11.72.11m.25-176.36c-6-8.11-25.38-19.89-49.29-30.01-12.18-5.15-47.07-17.31-55.62-19.38l-3.35-.81-1.49 13.81c-2.26 20.77-2.3 20.46 3.16 21.48 8.74 1.65 41.14 12.59 55.8 18.86 19.73 8.46 33.87 16.95 44.03 26.48l8.45 7.91.36-17.55c.32-15.46.08-17.92-2.05-20.79m-.53-42.22c-9.73-10.44-41.73-25.72-83.92-40.07l-18.86-6.41-.76 4.74c-1.14 7.09-3.39 30.19-2.97 30.6.19.2 10.05 3.57 21.9 7.49 37.06 12.23 64.94 25.15 79.25 36.74l7.58 6.14.36-18.03c.34-17.25.23-18.19-2.58-21.2m.36-39.5c-4.41-4.69-21.95-14.54-38.8-21.8-15.78-6.81-59.45-23.1-60.04-22.4-.89 1.05-4.13 33.95-3.42 34.62.47.43 5.77 2.33 11.74 4.24 33.48 10.58 73.47 28.14 85.93 37.75l6.45 4.97.36-17.32c.32-15.82.14-17.55-2.22-20.06m-1.17-42.1c-8.73-7.83-30.58-18.52-58.28-28.48-22.92-8.24-34.88-11.48-35.47-9.57-1.37 4.36-3.43 32.11-2.45 32.96.63.54 7.52 3.18 15.33 5.86 32.7 11.2 64.59 25.49 77.45 34.71l6.45 4.62.37-18.36.38-18.34-3.78-3.4m-.82-41.84c-8.28-7.23-39.07-21.1-75.25-33.91-6.59-2.34-12.21-4.03-12.48-3.75-.37.38-4.58 33.72-4.58 36.35 0 .31 7.69 3 17.1 5.98 31.64 10.01 58.33 21.52 72.61 31.3l6.45 4.41.39-18.17.38-18.18-4.62-4.03m2.7-36.72c-4.88-6.94-28.18-20.55-50.48-29.46-9.93-3.97-35.48-12.91-35.51-12.42 0 .13-.88 7.16-1.93 15.63-3.01 24.06-4.16 21.45 11.95 27.06 30.73 10.7 61.67 24.34 72.6 31.97l4.52 3.16.36-16.64c.29-12.88-.06-17.22-1.51-19.3m-4.54-45.06c-8.1-7.48-31.03-19.25-54.33-27.86-9.59-3.54-18.65-6.8-20.15-7.25-2.62-.78-2.8-.13-4.52 15.64-.99 9.04-1.79 17.24-1.79 18.21 0 1.09 6.51 4 17.43 7.79 31 10.75 57.45 23.97 65.82 32.92l3.23 3.45.39-18.46.38-18.45-6.46-5.99m5.01-32.06c-2.17-4.06-15.3-13.12-29.27-20.22-15.79-8.03-45.31-20-47.38-19.21-1.88.72-5.45 31.54-3.81 32.98.61.53 7.5 3.14 15.31 5.79 26.63 9.04 56.19 23.83 63.3 31.69 2.53 2.79 2.53 2.78 2.89-12.81.22-9.52-.18-16.62-1.04-18.22m-1.54-38.29c-6.97-7.6-30.14-20.11-57.89-31.26-9.55-3.85-13.42-4.88-14.11-3.76-.53.83-1.35 5.96-1.83 11.38-.48 5.42-1.2 12.02-1.61 14.68-.52 3.32-.28 4.82.8 4.82 2.98 0 31.72 11.78 45.86 18.8 7.83 3.88 18 9.83 22.61 13.2l8.39 6.15.36-15.41c.35-14.5.2-15.59-2.58-18.6m-1.65-36.16c-5.78-6.23-23-15.72-46.99-25.9-12.99-5.53-18.87-7.45-19.52-6.4-.51.82-1.31 5.92-1.77 11.34-.48 5.42-1.16 11.59-1.54 13.71-.66 3.81-.52 3.93 10.7 8.19 17.25 6.58 52.01 23.99 57.83 28.99l5.16 4.41.36-14.69.36-14.69-4.59-4.96m-2.39-11.43c-11.6-19.06-29.88-33.55-49.71-39.43-9.92-2.93-11.78-1.66-13.74 9.49l-.79 4.51 15.24 6.31c19.27 7.98 40.82 18.71 47.52 23.65 2.84 2.1 5.37 3.63 5.62 3.41.25-.2-1.61-3.78-4.14-7.94" />
    <path fill="#21af28" d="M110.9 590.88c-2.24-2.24-2.55-3.67-1.9-8.69 1.66-12.54 3.23-38.79 3.23-53.65-.03-30.17-3.77-43.48-16.02-57-14.51-16.02-55.51-37.63-77.65-40.94-8.07-1.21-11.23-4.47-10.3-10.64.39-2.6 1.07-8.01 1.51-12.01l.83-7.29 9.21 2.52c47.85 13.06 88.79 33.55 101.84 50.91l3.55 4.74v64.79c0 63.08-.06 64.86-2.58 67.37-3.33 3.32-8.32 3.28-11.72-.11M270.95 590.88c-2.24-2.24-2.55-3.67-1.89-8.69 1.65-12.54 3.22-38.79 3.22-53.65-.02-30.17-3.77-43.48-16.01-57-14.51-16.02-55.52-37.63-77.66-40.94-8.06-1.21-11.23-4.47-10.3-10.64.39-2.6 1.07-8.01 1.51-12.01l.83-7.29 9.22 2.52c47.84 13.06 88.79 33.55 101.84 50.91l3.55 4.74v64.79c0 63.08-.07 64.86-2.59 67.37-3.33 3.32-8.32 3.28-11.72-.11" />
    <path fill="#21af28" d="M116.1 445.06c-10.16-9.53-24.29-18.02-44.02-26.48-14.67-6.27-47.07-17.21-55.8-18.86-5.46-1.02-5.42-.71-3.17-21.48l1.5-13.81 3.34.81c8.56 2.07 43.45 14.23 55.62 19.38 23.92 10.12 43.29 21.9 49.3 30.01 2.13 2.87 2.37 5.33 2.05 20.79l-.36 17.55-8.46-7.91M276.16 445.06c-10.16-9.53-24.3-18.02-44.03-26.48-14.66-6.27-47.06-17.21-55.8-18.86-5.46-1.02-5.42-.71-3.16-21.48l1.49-13.81 3.35.81c8.55 2.07 43.44 14.23 55.62 19.38 23.91 10.12 43.29 21.9 49.29 30.01 2.13 2.87 2.37 5.33 2.05 20.79l-.36 17.55-8.45-7.91" />
    <path fill="#21af28" d="M116.98 405.5c-14.31-11.59-42.19-24.51-79.25-36.74-11.85-3.92-21.71-7.29-21.91-7.49-.41-.41 1.84-23.51 2.97-30.6l.76-4.74 18.86 6.41c42.2 14.35 74.19 29.63 83.93 40.07 2.81 3.01 2.91 3.95 2.58 21.2l-.36 18.03-7.58-6.14M277.03 405.5c-14.31-11.59-42.19-24.51-79.25-36.74-11.85-3.92-21.71-7.29-21.9-7.49-.42-.41 1.83-23.51 2.97-30.6l.76-4.74 18.86 6.41c42.19 14.35 74.19 29.63 83.92 40.07 2.81 3.01 2.92 3.95 2.58 21.2l-.36 18.03-7.58-6.14" />
    <path fill="#21af28" d="M118.1 365.32c-12.45-9.61-52.44-27.17-85.92-37.75-5.98-1.91-11.27-3.81-11.75-4.24-.71-.67 2.53-33.57 3.42-34.62.6-.7 44.26 15.59 60.05 22.4 16.84 7.26 34.38 17.11 38.8 21.8 2.36 2.51 2.54 4.24 2.22 20.06l-.36 17.32-6.46-4.97M278.16 365.32c-12.46-9.61-52.45-27.17-85.93-37.75-5.97-1.91-11.27-3.81-11.74-4.24-.71-.67 2.53-33.57 3.42-34.62.59-.7 44.26 15.59 60.04 22.4 16.85 7.26 34.39 17.11 38.8 21.8 2.36 2.51 2.54 4.24 2.22 20.06l-.36 17.32-6.45-4.97" />
    <path fill="#21af28" d="M118.1 326.29c-12.85-9.22-44.75-23.51-77.44-34.71-7.81-2.68-14.7-5.32-15.34-5.86-.98-.85 1.09-28.6 2.46-32.96.59-1.91 12.54 1.33 35.47 9.57 27.7 9.96 49.55 20.65 58.27 28.48l3.79 3.4-.38 18.34-.37 18.36-6.46-4.62M278.16 326.29c-12.86-9.22-44.75-23.51-77.45-34.71-7.81-2.68-14.7-5.32-15.33-5.86-.98-.85 1.08-28.6 2.45-32.96.59-1.91 12.55 1.33 35.47 9.57 27.7 9.96 49.55 20.65 58.28 28.48l3.78 3.4-.38 18.34-.37 18.36-6.45-4.62" />
    <path fill="#21af28" d="M118.1 284.94c-14.27-9.78-40.96-21.29-72.6-31.3-9.41-2.98-17.1-5.67-17.1-5.98 0-2.63 4.2-35.97 4.58-36.35.27-.28 5.88 1.41 12.48 3.75 36.18 12.81 66.96 26.68 75.25 33.91l4.62 4.03-.39 18.18-.38 18.17-6.46-4.41M278.16 284.94c-14.28-9.78-40.97-21.29-72.61-31.3-9.41-2.98-17.1-5.67-17.1-5.98 0-2.63 4.21-35.97 4.58-36.35.27-.28 5.89 1.41 12.48 3.75 36.18 12.81 66.97 26.68 75.25 33.91l4.62 4.03-.38 18.18-.39 18.17-6.45-4.41" />
    <path fill="#21af28" d="M120.04 245.03c-10.93-7.63-41.87-21.27-72.6-31.97-16.11-5.61-14.96-3-11.96-27.06 1.06-8.47 1.94-15.5 1.94-15.63.02-.49 25.58 8.45 35.51 12.42 22.3 8.91 45.6 22.52 50.48 29.46 1.44 2.08 1.79 6.42 1.51 19.3l-.36 16.64-4.52-3.16M280.09 245.03c-10.93-7.63-41.87-21.27-72.6-31.97-16.11-5.61-14.96-3-11.95-27.06 1.05-8.47 1.93-15.5 1.93-15.63.03-.49 25.58 8.45 35.51 12.42 22.3 8.91 45.6 22.52 50.48 29.46 1.45 2.08 1.8 6.42 1.51 19.3l-.36 16.64-4.52-3.16" />
    <path fill="#21af28" d="M121.33 206.64c-8.38-8.95-34.82-22.17-65.83-32.92-10.92-3.79-17.42-6.7-17.42-7.79 0-.97.8-9.17 1.79-18.21 1.72-15.77 1.9-16.42 4.52-15.64 1.5.45 10.57 3.71 20.15 7.25 23.3 8.61 46.23 20.38 54.33 27.86l6.46 5.99-.39 18.45-.38 18.46-3.23-3.45M281.38 206.64c-8.37-8.95-34.82-22.17-65.82-32.92-10.92-3.79-17.43-6.7-17.43-7.79 0-.97.8-9.17 1.79-18.21 1.72-15.77 1.9-16.42 4.52-15.64 1.5.45 10.56 3.71 20.15 7.25 23.3 8.61 46.23 20.38 54.33 27.86l6.46 5.99-.38 18.45-.39 18.46-3.23-3.45" />
    <path fill="#21af28" d="M122.03 166.16c-7.11-7.86-36.67-22.65-63.3-31.69-7.81-2.65-14.7-5.26-15.31-5.79-1.64-1.44 1.92-32.26 3.81-32.98 2.06-.79 31.58 11.18 47.38 19.21 13.97 7.1 27.09 16.16 29.26 20.22.87 1.6 1.27 8.7 1.05 18.22-.36 15.59-.36 15.6-2.89 12.81M282.08 166.16c-7.11-7.86-36.67-22.65-63.3-31.69-7.81-2.65-14.7-5.26-15.31-5.79-1.64-1.44 1.93-32.26 3.81-32.98 2.07-.79 31.59 11.18 47.38 19.21 13.97 7.1 27.1 16.16 29.27 20.22.86 1.6 1.26 8.7 1.04 18.22-.36 15.59-.36 15.6-2.89 12.81" />
    <path fill="#21af28" d="M116.17 124.7c-4.61-3.37-14.78-9.32-22.62-13.2-14.13-7.02-42.88-18.8-45.86-18.8-1.07 0-1.31-1.5-.8-4.82.42-2.66 1.14-9.26 1.62-14.68.47-5.42 1.3-10.55 1.83-11.38 1.72-2.77 45.28 16.22 61.31 26.73 13.62 8.93 13.69 9.07 13.27 26.89l-.36 15.41-8.39-6.15M276.22 124.7c-4.61-3.37-14.78-9.32-22.61-13.2-14.14-7.02-42.88-18.8-45.86-18.8-1.08 0-1.32-1.5-.8-4.82.41-2.66 1.13-9.26 1.61-14.68.48-5.42 1.3-10.55 1.83-11.38 1.72-2.77 45.28 16.22 61.31 26.73 13.62 8.93 13.7 9.07 13.27 26.89l-.36 15.41-8.39-6.15" />
    <path fill="#21af28" d="M119.39 90.61c-5.82-5-40.58-22.41-57.82-28.99-11.22-4.26-11.36-4.38-10.7-8.19.37-2.12 1.06-8.29 1.53-13.71.47-5.42 1.27-10.52 1.77-11.34.66-1.05 6.53.87 19.53 6.4 23.98 10.18 41.2 19.67 46.99 25.9l4.59 4.96-.36 14.69-.36 14.69-5.17-4.41M279.45 90.61c-5.82-5-40.58-22.41-57.83-28.99-11.22-4.26-11.36-4.38-10.7-8.19.38-2.12 1.06-8.29 1.54-13.71.46-5.42 1.26-10.52 1.77-11.34.65-1.05 6.53.87 19.52 6.4 23.99 10.18 41.21 19.67 46.99 25.9l4.59 4.96-.36 14.69-.36 14.69-5.16-4.41M116.81 53.78c-6.7-4.94-28.24-15.67-47.51-23.65l-15.24-6.31.78-4.51c.44-2.48 1.11-5.56 1.49-6.83 3.08-10.47 34.82 3.65 52.02 23.15 5.31 6.01 14.97 20.82 14.09 21.56-.26.22-2.79-1.31-5.63-3.41M276.87 53.78c-6.7-4.94-28.25-15.67-47.52-23.65l-15.24-6.31.79-4.51c1.96-11.15 3.82-12.42 13.74-9.49 19.83 5.88 38.11 20.37 49.71 39.43 2.53 4.16 4.39 7.74 4.14 7.94-.25.22-2.78-1.31-5.62-3.41" />
</svg>