<svg xmlns="http://www.w3.org/2000/svg" xmlns:xlink="http://www.w3.org/1999/xlink" width="350" height="800" version="1.0">
   <defs>
      <linearGradient id="prefix__a">
         <stop offset="0" stop-color="#c13c1b" />
         <stop offset=".839" stop-color="#c13c1b" stop-opacity=".498" />
         <stop offset="1" stop-color="#c13c1b" stop-opacity="0" />
      </linearGradient>
      <linearGradient xlink:href="#prefix__a" id="prefix__b" gradientUnits="userSpaceOnUse" gradientTransform="matrix(.79841 -.38606 -.38574 -.98115 -1301.456 6285.05)" x1="1719.31" y1="1012.714" x2="1765.716" y2="1012.714" />
      <linearGradient xlink:href="#prefix__a" id="prefix__c" gradientUnits="userSpaceOnUse" gradientTransform="matrix(.79084 -.33766 -.35686 -.99752 -1331.09 6199.43)" x1="1719.31" y1="1012.714" x2="1765.716" y2="1012.714" />
      <linearGradient xlink:href="#prefix__a" id="prefix__d" gradientUnits="userSpaceOnUse" gradientTransform="matrix(.79935 -.38651 -.35866 -.91228 -1355.779 6180.625)" x1="1719.31" y1="1012.714" x2="1765.716" y2="1012.714" />
      <linearGradient xlink:href="#prefix__a" id="prefix__e" gradientUnits="userSpaceOnUse" gradientTransform="matrix(.79841 -.38606 -.38574 -.98115 -1337.94 6232.964)" x1="1719.31" y1="1012.714" x2="1765.716" y2="1012.714" />
      <linearGradient xlink:href="#prefix__a" id="prefix__f" gradientUnits="userSpaceOnUse" gradientTransform="matrix(.79084 -.33766 -.35686 -.99752 -1367.573 6147.345)" x1="1719.31" y1="1012.714" x2="1765.716" y2="1012.714" />
      <linearGradient xlink:href="#prefix__a" id="prefix__g" gradientUnits="userSpaceOnUse" gradientTransform="matrix(.79935 -.38651 -.35866 -.91228 -1392.263 6128.54)" x1="1719.31" y1="1012.714" x2="1765.716" y2="1012.714" />
      <linearGradient xlink:href="#prefix__a" id="prefix__h" gradientUnits="userSpaceOnUse" gradientTransform="matrix(.79841 -.38606 -.38574 -.98115 -1394.38 6155.329)" x1="1719.31" y1="1012.714" x2="1765.716" y2="1012.714" />
      <linearGradient xlink:href="#prefix__a" id="prefix__i" gradientUnits="userSpaceOnUse" gradientTransform="matrix(.79084 -.33766 -.35686 -.99752 -1424.015 6069.71)" x1="1719.31" y1="1012.714" x2="1765.716" y2="1012.714" />
      <linearGradient xlink:href="#prefix__a" id="prefix__j" gradientUnits="userSpaceOnUse" gradientTransform="matrix(.79935 -.38651 -.35866 -.91228 -1317.766 6235.546)" x1="1719.31" y1="1012.714" x2="1765.716" y2="1012.714" />
      <linearGradient xlink:href="#prefix__a" id="prefix__k" gradientUnits="userSpaceOnUse" gradientTransform="matrix(.79834 -.31593 -.33863 -1.00507 -1426.654 6079.477)" x1="1719.31" y1="1012.714" x2="1765.716" y2="1012.714" />
   </defs>
   <g transform="rotate(19.73 -340.072 1091.229) scale(.11481)">
      <path d="M-1426.038 1847.662l-26.222 30.962" fill="none" stroke="url(#prefix__b)" stroke-width="4.347" stroke-linecap="round" />
      <path d="M-1439.56 1830.65l-26.368 29.263" fill="none" stroke="url(#prefix__c)" stroke-width="4.294" stroke-linecap="round" />
      <path d="M-1451.083 1812.716l-26.683 29.902" fill="none" stroke="url(#prefix__d)" stroke-width="4.195" stroke-linecap="round" />
      <path d="M-1462.522 1795.576l-26.221 30.962" fill="none" stroke="url(#prefix__e)" stroke-width="4.347" stroke-linecap="round" />
      <path d="M-1476.044 1778.565l-26.368 29.262" fill="none" stroke="url(#prefix__f)" stroke-width="4.294" stroke-linecap="round" />
      <path d="M-1487.568 1760.63l-26.683 29.902" fill="none" stroke="url(#prefix__g)" stroke-width="4.195" stroke-linecap="round" />
      <path d="M-1518.963 1717.94l-26.222 30.962" fill="none" stroke="url(#prefix__h)" stroke-width="4.347" stroke-linecap="round" />
      <path d="M-1532.485 1700.93l-26.367 29.262" fill="none" stroke="url(#prefix__i)" stroke-width="4.294" stroke-linecap="round" />
      <path d="M-1413.07 1867.637l-26.683 29.901" fill="none" stroke="url(#prefix__j)" stroke-width="4.195" stroke-linecap="round" />
      <path d="M-1503.296 1741.3l-26.955 28.503" fill="none" stroke="url(#prefix__k)" stroke-width="4.294" stroke-linecap="round" />
      <path d="M-1406.323 1970.857c.526-4.627 1.39-9.941-.914-15.096l-604.405-834.723s-61.192-89.42-81.528-112.576c-1.052-1.198-44.25-66.539-51.952-77.256 18.697-20.448 28.715-26.206 31.067-29.486l133.238 180.442 618.121 842.629c3.467 2.867 7.01 5.434 11.552 4.041" fill-rule="evenodd" fill="#04a" />
      <path style="marker:none" color="#000" fill="#fac53a" fill-rule="evenodd" overflow="visible" d="M-1517.756 1800.637l39.768-36.244 65.652 89.802-39.768 36.244zm-119.55-164.462l37.268-34.873 60.468 81.037-37.268 34.874zm-119.586-163.905l37.268-34.875 60.468 81.038-37.268 34.874z" />
      <rect style="marker:none" width="51.382" height="99.326" x="-2300.302" y="-279.205" transform="matrix(.7445 -.66762 .58145 .81358 0 0)" ry="0" color="#000" fill="#fac53a" fill-rule="evenodd" overflow="visible" />
      <path style="marker:none" d="M-1983.562 1158.75l35.297-32.217 60.71 78.723-38.254 34.303-57.753-80.81zm-105.379-150.32l32.703-28.786 48.431 64.903-35.768 30.79-45.366-66.907zm684.849 960.008l50.86-38.143-9.892-6.324-42.5 33.52 1.532 10.947z" color="#000" fill="#fac53a" fill-rule="evenodd" overflow="visible" />
      <path d="M621.238-338.35l64.476 97.855 295.719 453.072c1.666 1.72 3.76 2.303 5.954 2.627L955.62 233.43c1.463-2.553 1.113-6.143-.072-7.834L667.143-222.638s-56.859-89.006-64.764-102.354" transform="matrix(1.82577 -.1874 .17261 1.98212 -3190.133 1686.958)" fill="none" stroke="#000" stroke-width="2" stroke-linecap="round" stroke-linejoin="round" />
      <path d="M-1364.998 1923.12l-40.385 31.313" fill="none" stroke="#000" stroke-width="4.294" stroke-linecap="round" />
   </g>
   <path d="M46.75 314.967c-.736 3.677.445 7.587 1.964 10.849 2.78-2.362 4.995-5.53 6.305-9.252.02-.176.114-.133.073.042-.22 3.843.597 7.349 2.116 10.611 2.78-2.361 5-5.858 6.31-9.58.047-.2.187-.195.113.04-.572 3.839.425 7.27 1.944 10.532 2.78-2.362 5.455-4.412 6.265-9.43l9.565-120.203.428-2.458.037.299 3.32-2.746c-1.395-2.334-3.509-5.668-4.554-6.331-1.046-.664-3.388-.317-4.611.701-1.224 1.019-2.282 7.108-3.1 10.659L46.75 314.967z" fill="#fac53a" fill-rule="evenodd" stroke="#000" stroke-width=".389" stroke-linejoin="round" />
   <path d="M81.02 187.921l-5.048.616m5.558 8.993l-8.23-.634m7.92 2.615l-8.162-1.169m11.752-4.648l-11.037 2.347m8.104-7.153l-6.775.994m9.354 2.766l-10.425 1.736m9.531-3.141l-9.124 1.305m8.274-2.515l-8.077 1.15" style="marker:none" color="#000" fill="none" stroke="#000" stroke-width=".254" stroke-linecap="round" overflow="visible" />
   <path d="M71.202 310.944l-.56 6.426-5.545-.428.753-6.482 3.077-2.745 2.275 3.229z" fill="#c13c1b" fill-rule="evenodd" />
   <path d="M68.455 312.067c1.266 1.95 2.461 4.6 2.025 7.227-.481 2.9-2.477 5.278-4.45 6.994-1.047-2.186-1.8-4.857-1.364-7.482.481-2.901 1.944-4.93 3.789-6.74z" fill="#04a" stroke="#000" stroke-width=".254" stroke-linecap="round" />
   <path d="M70.566 318.49l6.417-73.017m-2.661-.36l-9.435 72.603" fill="#ff0" fill-rule="evenodd" stroke="#000" stroke-width=".254" />
   <path d="M2388.08 1498.878l16.708-42.66 41.651 20.565m-70.281-11.578l16.419-41.405 40.374 19.71m-68.338-12.502l15.626-39.962 39.224 19.19m-67.169-12.943l15.481-39.334 37.781 18.396m-65.183-12.735l14.939-38.749 37.55 18.293m-63.972-13.574l14.21-37.138 36.526 18.106m-62.593-14.474l13.855-36.051 35.607 17.69m-61.342-15.71l13.398-34.734 34.225 17.065m-59.837-16.276l13.148-33.876 33.076 16.543m-58.397-17.009l13.192-32.748 31.903 15.459m-56.556-16.176l12.107-31.576 30.942 15.44m-54.803-17.601l11.649-30.258 30.46 14.666m-54.156-18.415l11.358-29.004 29.143 14.208m-52.361-20.236l10.755-27.06 27.7 13.417m-50.229-19.132l10.191-27.038 27.24 13.208m-49.729-20.847l10.025-25.449 25.337 12.208m-47.201-21.227l9.527-23.734 24.29 11.457m-45.716-20.832l9.214-23.044 23.6 11.144m-44.672-21.606l8.734-22.292 22.387 10.457m-43.19-22.738l8.592-20.138 21.173 9.769" transform="matrix(-.08378 .02337 .02074 .09069 240.17 119.428)" stroke="#000" stroke-width="2.827" fill="none" />
   <g stroke="#000" stroke-width="2.827">
      <path d="M2505.96 1541.513L2246.594 803.2m28.933-11.418l292.165 725.283" fill="#ff0" fill-rule="evenodd" transform="matrix(-.08467 .01904 .01674 .0917 248.46 128.441)" />
      <path d="M2388.08 1498.878l16.708-42.66 41.651 20.565m-70.281-11.578l16.419-41.405 40.374 19.71m-68.338-12.502l15.626-39.962 39.224 19.19m-67.169-12.943l15.481-39.334 37.781 18.396m-65.183-12.735l14.939-38.749 37.55 18.293m-63.972-13.574l14.21-37.138 36.526 18.106m-62.593-14.474l13.855-36.051 35.607 17.69m-61.342-15.71l13.398-34.734 34.225 17.065m-59.837-16.276l13.148-33.876 33.076 16.543m-58.397-17.009l13.192-32.748 31.903 15.459m-56.556-16.176l12.107-31.576 30.942 15.44m-54.803-17.601l11.649-30.258 30.46 14.666m-54.156-18.415l11.358-29.004 29.143 14.208m-52.361-20.236l10.755-27.06 27.7 13.417m-50.229-19.132l10.191-27.038 27.24 13.208m-49.729-20.847l10.025-25.449 25.337 12.208m-47.201-21.227l9.527-23.734 24.29 11.457m-45.716-20.832l9.214-23.044 23.6 11.144m-44.672-21.606l8.734-22.292 22.387 10.457m-43.19-22.738l8.592-20.138 21.173 9.769" transform="matrix(-.08467 .01904 .01674 .0917 240.126 127.304)" fill="none" />
   </g>
   <path d="M53.393 316.201l13.02-72.083m-2.614-.639L47.9 314.806" fill="#ff0" fill-rule="evenodd" stroke="#000" stroke-width=".254" />
   <path d="M2388.08 1498.878l16.708-42.66 41.651 20.565m-70.281-11.578l16.419-41.405 40.374 19.71m-68.338-12.502l15.626-39.962 39.224 19.19m-67.169-12.943l15.481-39.334 37.781 18.396m-65.183-12.735l14.939-38.749 37.55 18.293m-63.972-13.574l14.21-37.138 36.526 18.106m-62.593-14.474l13.855-36.051 35.607 17.69m-61.342-15.71l13.398-34.734 34.225 17.065m-59.837-16.276l13.148-33.876 33.076 16.543m-58.397-17.009l13.192-32.748 31.903 15.459m-56.556-16.176l12.107-31.576 30.942 15.44m-54.803-17.601l11.649-30.258 30.46 14.666m-54.156-18.415l11.358-29.004 29.143 14.208m-52.361-20.236l10.755-27.06 27.7 13.417m-50.229-19.132l10.191-27.038 27.24 13.208m-49.729-20.847l10.025-25.449 25.337 12.208m-47.201-21.227l9.527-23.734 24.29 11.457m-45.716-20.832l9.214-23.044 23.6 11.144m-44.672-21.606l8.734-22.292 22.387 10.457m-43.19-22.738l8.592-20.138 21.173 9.769" transform="matrix(-.0854 .01442 .01248 .09253 239.987 135.803)" stroke="#000" stroke-width="2.827" fill="none" />
   <path d="M54.53 308.923l-1.774-3.447-3.128 2.238-1.672 6.968 5.403 1.29 1.171-7.05zm8.555 1.209l-2.226-3.317-3.014 2.428-1.175 6.155 5.419 1.061.996-6.327z" fill="#c13c1b" fill-rule="evenodd" />
   <path d="M60 310.766c1.267 1.95 2.462 4.6 2.026 7.227-.481 2.901-2.477 5.279-4.45 6.994-1.047-2.186-1.8-4.856-1.364-7.481.481-2.902 1.944-4.93 3.789-6.74zm-10.859 12.963c-1.266-1.95-2.102-4.7-1.666-7.327.481-2.902 2.477-5.28 4.45-6.995 1.047 2.187 1.8 4.857 1.364 7.482-.481 2.901-2.303 5.03-4.148 6.84z" fill="#04a" stroke="#000" stroke-width=".254" stroke-linecap="round" />
   <path d="M72.996 245.067l-9.373 72.342m-8.551-.929l12.64-72.278" fill="none" stroke="#000" stroke-width=".254" />
   <path d="M77.283 244.892l-.197-4.444-2.75-.38-1.22 4.251 4.167.573z" fill="#04a" fill-rule="evenodd" stroke="#000" stroke-width=".254" stroke-linejoin="round" />
   <path d="M66.707 226.617l12.325 1.696m-1.47 17.233l-14.554-2.168m15.522-8.988l-13.242-1.863m12.806 7.505l-13.993-1.94" fill="none" stroke="#000" stroke-width=".254" />
   <path d="M72.571 244.239l-.196-4.444-2.75-.381-1.221 4.252 4.167.573zm-4.731-.656l-.197-4.445-2.75-.38-1.221 4.252 4.167.573z" fill="#04a" fill-rule="evenodd" stroke="#000" stroke-width=".254" stroke-linejoin="round" />
   <path d="M77.453 239.366l-.099-4.601-2.465-.342-1.173 4.43 3.737.513zm-4.416-.644l-.104-4.602-2.484-.344-1.178 4.43 3.766.516zm-4.365-.574l-.125-4.605-2.562-.355-1.196 4.427 3.883.533z" fill="#c13c1b" fill-rule="evenodd" stroke="#000" stroke-width=".254" stroke-linejoin="round" />
   <path d="M78.035 233.65l-.058-4.66-2.345-.325-1.151 4.498 3.554.488zm-4.245-.599l-.065-4.66-2.254-.307-1.097 4.506 3.416.461zm-4.162-.574l-.068-4.663-2.386-.33-1.16 4.497 3.614.496z" fill="#04a" fill-rule="evenodd" stroke="#000" stroke-width=".254" stroke-linejoin="round" />
   <path d="M80.445 208.69l-9.478-1.381" fill="none" stroke="#000" stroke-width=".254" />
   <path d="M77.503 222.08c.63.744 1.24 1.751 1.087 2.74-.168 1.092-1.055 1.978-1.943 2.614-.532-.83-1.103-1.885-.95-2.874.168-1.092.979-1.807 1.806-2.48z" fill="none" stroke="#000" stroke-width=".254" stroke-linecap="round" />
   <path d="M79.846 208.687l-1.302 16.417m-.635-16.608l-2.216 16.128" fill="none" stroke="#000" stroke-width=".254" />
   <path d="M73.667 221.594c.63.744 1.299 1.807 1.146 2.796-.168 1.092-1.113 1.922-2.002 2.558-.532-.831-1.044-1.859-.891-2.847.168-1.092.92-1.834 1.747-2.507zm-4.416 4.806c-.63-.743-1.222-1.816-1.07-2.805.17-1.092 1.204-1.948 2.092-2.584.532.831 1.113 1.884.96 2.872-.168 1.093-1.155 1.845-1.982 2.518z" fill="none" stroke="#000" stroke-width=".254" stroke-linecap="round" />
   <path d="M74.764 224.713l1.897-16.422m-4.771 16.147l2.613-16.45m-3.345 16.296c-.035-.207 2.411-16.447 2.411-16.447m-5.424 15.953l3.527-16.29" fill="none" stroke="#000" stroke-width=".254" />
   <g stroke="#000" stroke-width="2.827" fill="none">
      <path d="M219.389 2203.615l17.04-19.11 14.642 19.643m-30.835-20.685l16.193-19.137 14.464 19.822m-29.897-20.711l15.433-19.11L250 2163.968m-26.964-19.998l13.393-19.286 13.214 19.107m-26.351-20.4l13.137-19.065 12.5 19.822" transform="matrix(-.08547 -.01213 -.01199 .09286 123.962 19.73)" />
      <path d="M225.179 2103.97l11.25-19.465 13.238 20.442" transform="matrix(-.08547 -.01213 -.01199 .09286 123.962 19.73)" />
      <path d="M225.714 2083.79l11.51-18.031 11.754 19.59" transform="matrix(-.08547 -.01213 -.01199 .09286 123.962 19.73)" />
   </g>
   <path d="M220.714 2204.148l15.715-19.643 16.435 18.054m-31.435-18.232l15-20 16.189 19.36m-30.297-19.717l14.108-19.643 15.228 20.308m-30.347-20.205l15.119-19.746 14.939 18.645m-28.872-19.873l13.933-19.13 14.423 19.825m-27.398-19.721l12.975-19.925 12.975 19.181m-25.613-19.898l12.638-18.926 13.147 19.958" transform="matrix(-.08547 -.01213 -.01199 .09286 120.471 19.544)" stroke="#000" stroke-width="2.827" fill="none" />
   <g stroke="#000" stroke-width="2.745" fill="none">
      <path d="M220.714 2204.148l15.715-19.643 14.642 19.643" transform="matrix(-.08966 -.019 -.018 .0918 131.007 22.742)" />
      <path d="M221.429 2184.327l15-20 13.269 20.803m-27.377-21.16l14.108-19.643L250 2163.968m-26.964-19.998l13.393-19.286 13.214 19.107m-25.357-20.001l12.143-19.463 12.5 19.82m-23.75-20.177l11.25-19.465 11.25 19.643m-21.965-20.358l11.914-19.51 10.52 20.227" transform="matrix(-.08966 -.019 -.018 .0918 131.007 22.742)" />
   </g>
   <path transform="matrix(-.07829 .02184 .0196 .08574 235.11 121.718)" d="M2159.286 368.076c0 7.101-5.837 12.858-13.036 12.858-7.2 0-13.036-5.757-13.036-12.858 0-7.1 5.837-12.857 13.036-12.857 7.2 0 13.036 5.757 13.036 12.857z" fill="#04a" stroke="#000" stroke-width="3.008" stroke-linecap="round" stroke-linejoin="round" />
   <path transform="matrix(-.08355 .0233 .02097 .0917 245.371 119.203)" d="M2159.286 368.076c0 7.101-5.837 12.858-13.036 12.858-7.2 0-13.036-5.757-13.036-12.858 0-7.1 5.837-12.857 13.036-12.857 7.2 0 13.036 5.757 13.036 12.857z" fill="#c13c1b" stroke="#000" stroke-width="2.815" stroke-linecap="round" stroke-linejoin="round" />
   <path transform="matrix(-.08355 .0233 .02097 .0917 244.67 122.12)" d="M2159.286 368.076c0 7.101-5.837 12.858-13.036 12.858-7.2 0-13.036-5.757-13.036-12.858 0-7.1 5.837-12.857 13.036-12.857 7.2 0 13.036 5.757 13.036 12.857z" fill="#04a" stroke="#000" stroke-width="2.815" stroke-linecap="round" stroke-linejoin="round" />
   <path transform="matrix(-.0757 .03096 .02817 .0828 231.812 104.006)" d="M2159.286 368.076c0 7.101-5.837 12.858-13.036 12.858-7.2 0-13.036-5.757-13.036-12.858 0-7.1 5.837-12.857 13.036-12.857 7.2 0 13.036 5.757 13.036 12.857z" fill="#04a" stroke="#000" stroke-width="3.008" stroke-linecap="round" stroke-linejoin="round" />
   <path transform="matrix(-.08079 .03306 .03011 .08856 241.679 100.25)" d="M2159.286 368.076c0 7.101-5.837 12.858-13.036 12.858-7.2 0-13.036-5.757-13.036-12.858 0-7.1 5.837-12.857 13.036-12.857 7.2 0 13.036 5.757 13.036 12.857z" fill="#c13c1b" stroke="#000" stroke-width="2.815" stroke-linecap="round" stroke-linejoin="round" />
   <path transform="matrix(-.08079 .03306 .03011 .08856 241.275 103.23)" d="M2159.286 368.076c0 7.101-5.837 12.858-13.036 12.858-7.2 0-13.036-5.757-13.036-12.858 0-7.1 5.837-12.857 13.036-12.857 7.2 0 13.036 5.757 13.036 12.857z" fill="#04a" stroke="#000" stroke-width="2.815" stroke-linecap="round" stroke-linejoin="round" />
   <path transform="matrix(-.0774 .02537 .02292 .08473 234.793 114.933)" d="M2159.286 368.076c0 7.101-5.837 12.858-13.036 12.858-7.2 0-13.036-5.757-13.036-12.858 0-7.1 5.837-12.857 13.036-12.857 7.2 0 13.036 5.757 13.036 12.857z" fill="#04a" stroke="#000" stroke-width="3.008" stroke-linecap="round" stroke-linejoin="round" />
   <path transform="matrix(-.08261 .02708 .02451 .09062 244.806 111.981)" d="M2159.286 368.076c0 7.101-5.837 12.858-13.036 12.858-7.2 0-13.036-5.757-13.036-12.858 0-7.1 5.837-12.857 13.036-12.857 7.2 0 13.036 5.757 13.036 12.857z" fill="#c13c1b" stroke="#000" stroke-width="2.815" stroke-linecap="round" stroke-linejoin="round" />
   <path transform="matrix(-.08261 .02708 .02451 .09062 244.315 114.935)" d="M2159.286 368.076c0 7.101-5.837 12.858-13.036 12.858-7.2 0-13.036-5.757-13.036-12.858 0-7.1 5.837-12.857 13.036-12.857 7.2 0 13.036 5.757 13.036 12.857z" fill="#04a" stroke="#000" stroke-width="2.815" stroke-linecap="round" stroke-linejoin="round" />
   <path d="M2388.08 1498.878l16.708-42.66 41.651 20.565m-70.281-11.578l16.419-41.405 40.374 19.71m-68.338-12.502l15.626-39.962 39.224 19.19m-67.169-12.943l15.481-39.334 37.781 18.396m-65.183-12.735l14.939-38.749 37.55 18.293m-63.972-13.574l14.21-37.138 36.526 18.106m-62.593-14.474l13.855-36.051 35.607 17.69m-61.342-15.71l13.398-34.734 34.225 17.065m-59.837-16.276l13.148-33.876 33.076 16.543m-58.397-17.009l13.192-32.748 31.903 15.459m-56.556-16.176l12.107-31.576 30.942 15.44m-54.803-17.601l11.649-30.258 30.46 14.666m-54.156-18.415l11.358-29.004 29.143 14.208m-52.361-20.236l10.755-27.06 27.7 13.417m-50.229-19.132l10.191-27.038 27.24 13.208m-49.729-20.847l10.025-25.449 25.337 12.208m-47.201-21.227l9.527-23.734 24.29 11.457m-45.716-20.832l9.214-23.044 23.6 11.144m-44.672-21.606l8.734-22.292 22.387 10.457m-43.19-22.738l8.592-20.138 21.173 9.769" transform="matrix(-.08378 .02337 .02074 .09069 240.17 119.428)" stroke="#000" stroke-width="2.827" fill="none" />
   <g transform="scale(-.78873 .78873) rotate(8.573 -7904.61 20069.7)">
      <path d="M-3159.919-516.317c.173-.523.404-1.118.233-1.773l-56.814-111.843s-6.138-11.262-8.163-14.454c-.105-.165-.344-.272-.458-.339-.13-.076-.155-.137-.333-.162-5.504-.78-18.002-2.319-23.874-10.866-6.124-8.913-4.772-21.605 4.878-27.876 9.65-6.272 20.295-4.945 26.615.695 8.19 9.605 2.927 15.592 10.333 29.432.12 1.794-3.616 3.2-4.637 2.397-6.852-13.44-3.697-14.9-7.001-24.024-2.754-6.735-12.718-10.056-20.822-4.494-8.103 5.561-7.655 16.346-3.907 20.037 5.215 6.822 10.43 7.622 20.904 9.273.594.093 1.264.293 1.47.474.263.23.535.267.841.76l8.927 15.413 58.358 113.102c.37.419.756.805 1.36.757" fill-rule="evenodd" fill="#04a" stroke="#c13c1b" stroke-width=".47" stroke-linecap="round" stroke-linejoin="round" />
      <path style="marker:none" d="M-3239.885-648.483l2.08-5.63c2.89 1.442 6.009 2.28 9.235 2.827l-1.882 5.701c-3.295-.701-6.576-1.429-9.433-2.898zm-13.137-17.333l6.43-1.19c.012 4.26 1.547 5.94 2.967 7.816l-6.19 2.575c-1.685-2.731-2.754-5.798-3.207-9.2zm82.966 126.991l5.837-3.206 6.192 12.048-5.838 3.206zm-11.254-22.047l5.492-3.11 5.741 10.903-5.492 3.11zm-11.269-21.984l5.492-3.11 5.74 10.903-5.491 3.11z" color="#000" fill="#fac53a" fill-rule="evenodd" overflow="visible" />
      <rect style="marker:none" width="6.364" height="12.084" x="-2596.137" y="-2052.979" transform="matrix(.88034 -.47434 .44723 .89442 0 0)" ry="0" color="#000" fill="#fac53a" fill-rule="evenodd" overflow="visible" />
      <path style="marker:none" d="M-3213.874-624.856l5.182-2.85 5.825 10.64-5.603 3.019-5.404-10.809zm-9.983-18.38l4.98-2.415 4.89 8.508-4.98 2.456-4.89-8.55zm-18.997-41.354l3.933 4.392c-2.486 1.23-4.485 3.372-6.075 6.282l-5.024-4.17c1.844-2.48 3.783-4.904 7.166-6.504zm83.204 168.056l7.278-3.149-1.099-.98-6.119 2.822-.059 1.307zm-61.236-168.641l-2.365 5.11c-2.089-1.295-4.4-2.41-8.148-2.378l.91-5.479c4.176.461 7.098 1.507 9.603 2.747zm9.078 18.994l-5.211.486c-.454-3.35-1.257-6.44-2.155-9.456l5.56-.567a1167.1 1167.1 0 011.806 9.537zm4.316 12.791c-.71 1.643-2.056 2.65-4.777 2.282l-2.437-5.709 4.996-1.398 2.218 4.826z" color="#000" fill="#fac53a" fill-rule="evenodd" overflow="visible" />
      <path d="M-3152.039-519.808l-7.94 3.49c.404-.562.477-1.396.24-1.82l-56.761-111.795s-6.138-11.262-8.163-14.454c-.105-.165-.344-.272-.458-.339-.13-.076-.155-.137-.333-.162-5.504-.78-18.002-2.319-23.874-10.866-6.124-8.913-4.772-21.605 4.878-27.876 9.65-6.272 20.295-4.945 26.615.695 8.19 9.605 2.927 15.592 10.333 29.432.12 1.794-3.616 3.2-4.637 2.397-6.852-13.44-3.697-14.9-7.001-24.024-2.754-6.735-12.718-10.056-20.822-4.494-8.103 5.561-7.655 16.346-3.907 20.037 5.215 6.822 10.43 7.622 20.904 9.273.594.093 1.264.293 1.47.474.263.23.535.267.841.76l8.927 15.413 58.358 113.102c.348.442.825.629 1.33.757z" fill="none" stroke="#000" stroke-width=".47" stroke-linecap="round" stroke-linejoin="round" />
   </g>
   <path d="M118.11 706.247l-5.067 6.556 2.18 18.124h5.953l1.791-18.543-4.858-6.137z" fill="#fff" fill-rule="evenodd" />
   <path d="M269.895 192.778c-.239-10.984 13.75-10.488 13.898-1.537" fill="none" stroke="#c13c1b" stroke-width="2.401" />
   <path d="M269.895 192.778c-.239-10.984 13.75-10.488 13.898-1.537" fill="none" stroke="#fac53a" stroke-width="2" />
   <path d="M106.01 188.453h25.019" fill="none" stroke="#025" stroke-width="1.5" stroke-linecap="round" stroke-linejoin="round" />
   <path d="M138.755 345.14l27.004-6.85 4.004 24.653-31.141 5.275" fill="#308d57" fill-rule="evenodd" stroke="#000" stroke-width=".25" />
   <path d="M207.11 203.213l-16.818 11.14s-5.13 22.333-11.734 50.424c-4.747 20.195-10.172 43.355-13.536 62.988-1.075 6.273-2.362 10.052-.419 19.444 13.205 63.829 17.481 120.658 36.387 188.748-3.59 37.059-3.77 120.661 1.302 156.266-2.619 9.684-26.63 15.846-34.28 20.761-12.814 7.035-28.85 11.112-41.942 17.62-4.619 1.758-10.84.965-14.883.947-3.786-1.257-3.84 7.087 2.313 10.1 38.052.264 93.56-.075 132.32.117 7.336-6.603 2.736-18.287.841-26.144-1.15-4.769-2.314-9.267-1.362-14.214 7.525-63.873 9.955-103.752 2.795-159.988 7.853-46.377 12.008-88.797 15.078-128.942l3.637-45.778c9.1-8.908 1.917-36.019 1.462-44.415 1.95-51.729 4.697-99.291 6.321-128.535l-21.832-4.699-4.168 1.293" fill="#fff" fill-rule="evenodd" stroke="#000" stroke-width=".75" />
   <path d="M183.179 134.295c2.283-46.179 84.002-42.454 84.905-1.768.143 6.406-3.59 19.185-11.455 27.602-4.314 4.616-7.302 9.193-9.133 13.357l-18.715-1.392c-12.022-17.85-23.29-41.292-45.602-37.799z" fill="#04a" fill-rule="evenodd" stroke="#000" stroke-width=".25" />
   <path d="M108.138 334.907c-2.16-.42 4.282-4.357 1.49-21.95a1.42 1.42 0 01.52-.068c.177.01.145-.272.108-.687-1.26-.483-1.869-.08-4.424-1.044-1.73-.653-2.383-3.287-1.265-4.909.482-1.028 1.802-.883 2.971-.753.973.238 5.022.072 6.22-.41 3.761-.628 6.762.08 10.204.199 7.584.928 10.932 7.134 17.314 10.413-.308 6.32-.668 13.486-.976 19.806-7.247-1-19.888 1.792-32.162-.597z" fill="#308d57" fill-rule="evenodd" stroke="#000" stroke-width=".134" />
   <g stroke="#c13c1b" stroke-linecap="round" stroke-linejoin="round">
      <path d="M68.272 795.143l28.686-53.135h165.86v53.135H68.271z" fill="#fac53a" fill-rule="evenodd" stroke-width=".766" />
      <path d="M102.371 750.302l151.419-.04v36.627H84.12l18.25-36.587z" fill="#04a" fill-rule="evenodd" stroke-width=".766" />
      <path d="M128.89 742.395v7.48m3.227-7.48v7.48m3.393-7.48v7.48m3.625-7.48v7.48M151.46 742.395v7.48m3.226-7.48v7.48m3.394-7.48v7.48m3.625-7.48v7.48M174.674 742.395v7.48m3.226-7.48v7.48m3.394-7.48v7.48m3.626-7.48v7.48M196.598 742.395v7.48m3.227-7.48v7.48m3.394-7.48v7.48m3.625-7.48v7.48M218.265 742.395v7.48m3.227-7.48v7.48m3.394-7.48v7.48m3.624-7.48v7.48M238.642 742.395v7.48m3.228-7.48v7.48m3.393-7.48v7.48m3.625-7.48v7.48M86.846 787.276v7.48m3.227-7.48v7.48m3.394-7.48v7.48m3.624-7.48v7.48M89.213 757.9l6.586 3.546m-5.056-6.387l6.586 3.546m-4.977-6.535l6.586 3.547m-4.868-6.737l6.587 3.546" stroke-width=".459" fill="none" />
      <path d="M-161.852 1800.38v29.295m12.638-29.295v29.295m13.29-29.295v29.295m14.196-29.295v29.295" transform="matrix(.14286 -.25532 .26529 .13749 -377.86 491.601)" fill="none" stroke-width="1.553" />
      <path d="M109.287 787.276v7.48m3.226-7.48v7.48m3.394-7.48v7.48m3.625-7.48v7.48M105.418 742.395v7.48m3.226-7.48v7.48m3.394-7.48v7.48m3.625-7.48v7.48M131.985 787.276v7.48m3.227-7.48v7.48m3.394-7.48v7.48m3.624-7.48v7.48M200.339 787.276v7.48m3.226-7.48v7.48m3.395-7.48v7.48m3.624-7.48v7.48M221.747 787.276v7.48m3.227-7.48v7.48m3.394-7.48v7.48m3.625-7.48v7.48M241.608 787.276v7.48m3.227-7.48v7.48m3.394-7.48v7.48m3.625-7.48v7.48M262.003 773.846h-7.48m7.48 3.227h-7.48m7.48 3.393h-7.48m7.48 3.625h-7.48M262.003 751.421h-7.48m7.48 3.227h-7.48m7.48 3.394h-7.48m7.48 3.624h-7.48M155.2 787.276v7.48m3.226-7.48v7.48m3.394-7.48v7.48m3.625-7.48v7.48M177.64 787.276v7.48m3.227-7.48v7.48m3.393-7.48v7.48m3.625-7.48v7.48" stroke-width=".459" fill="none" />
   </g>
   <path d="M140.811 315.626c.843 0 26.74-.82 26.74-.82l-3.583 23.916-24.527-3.471" fill="#308d57" fill-rule="evenodd" stroke="#000" stroke-width=".25" />
   <path d="M248.388 190.676c-.092 3.916-.684 6.637-3.7 10.577-4.595 6.004-14.277 7.643-19.711 7.805-13.948.416-20.149-2.75-24.322-22.394-3.734 1.403-21.324-2.137-20.763-6.286.262-.781.483-2.343.693-4.092-.124-1.761-.81-2.354-1.97-2.466-.648.201-1.687-3.094.183-3.556-1.863.147-1.905-2.112-1.6-3.026.314-.959.44-2.128.156-2.852-3.807.026-6.298-2.13-5.074-6.454 2.112-3.799 6.736-11.143 8.97-15.895-.19-1.773.722-5.074 1.954-7.763 1.481-1.303 33.457-5.498 32.841 12.8l3.482.387 5.052.383-.022 11.998c.648 5.204 2.527 9.117 5.037 12.39l17.892 1.324c-1.6 4.641-3.845 10.439.902 17.12z" fill="#308d57" fill-rule="evenodd" stroke="#000" stroke-width=".185" />
   <path d="M217.13 148.56c-2.781 32.155-12.387 38.879-29.42 37.05" fill="none" stroke="#000" stroke-width=".739" />
   <path d="M211.423 142.24c-2.143-.418-4.21-1.01-6.09-2.034-3.54-1.922-6.238-4.61-11.094-5.333-3.891-.51-7.302.015-9.504 1.112-2.232 1.112-1.119 2.902.639 2.117 1.757-.785 4.968-1.558 8.088-1.088 3.12.47 8.056 3.859 11.094 5.333 3.038 1.473 4.661 1.724 6.825 2.047.307-.808.286-1.515.042-2.154zm.343 3.445c-5.643-.376-7.144-.342-11.906-1.88-6.328-1.826-13.557-4.25-16.454 1.356-1.28 2.289-2.324 3.156 1.038 2.725 8.812 1.553 10.677-.535 14.554-1.568 2.947.347 7.747 1.157 12.487 1.952.35-.812.494-1.664.28-2.585z" fill-rule="evenodd" stroke="#000" stroke-width=".043" />
   <path d="M194.331 143.098c-3.191-1.14-6.216-1.677-8.555.274.293 1.688.943 3.04 2.455 3.578 1.79.307 4.8-.016 5.842-1.055 1.042-1.04 1.268-2.362.258-2.797z" fill-rule="evenodd" stroke="#000" stroke-width=".043" />
   <path d="M198.06 144.827c-1.391-.31-2.173-.777-3.107-1.205.187.95-.214 1.552-.627 2.148.503.159 3.103-.724 3.734-.943zm-12.189-1.238c-.969 1.227-1.818 2.15-1.937 3.32 1.422-.237 3.158.38 4.26.043-1.504-.858-2.07-2.045-2.323-3.363z" fill="#fff" fill-rule="evenodd" stroke="#000" stroke-width=".043" />
   <g stroke="#000">
      <path d="M177.965 162.867c-1.767-1.227-2.736-1.287-2.873-.319-.198 1.395 1.557.623 2.781.547" fill-rule="evenodd" stroke-width=".153" />
      <path d="M179.922 158.716c3.916 2.84 2 4.83.223 4.848-1.76.016-4.453-2.83-4.994-1.123-.547 1.723 2.903.935 2.825.46" fill="none" stroke-width=".191" />
   </g>
   <path d="M186.805 169.905c-.263-.06-8.105.36-8.105.36" fill="none" stroke="#000" stroke-width=".192" stroke-linecap="round" stroke-linejoin="round" />
   <path d="M222.448 151.985c.694.765-.308 1.728-1.072 2.173-4.78 3.462-4.225 7.206-1.94 9.618 1.435 1.88 3.685.97 4.16-.2.5-1.232.89-2.808 1.56-4.414 6.17-12.016 4.491-14.642 4.446-15.02-.08-.666-2.607-4.954-5.434-4.159-2.901.816-9.365 6.063-1.72 12.002z" fill="#308d57" fill-rule="evenodd" />
   <path d="M221.684 154.116c-4.78 3.462-4.224 7.206-1.94 9.618 1.435 1.88 3.685.97 4.16-.2.501-1.232.891-2.808 1.561-4.414 6.169-12.016 4.49-14.642 4.445-15.02-.08-.666-2.606-4.954-5.433-4.159-2.902.816-9.365 6.063-1.72 12.002 1.658 1.269.457 2.931-.648 5.148m-.13-9.815c4.432.202 4.242 4.381 1.43 10.816-2.24 2.364-2.608 2.772-3.039 2.556-.398-.2-.215-1.512 1.812-3.57" fill="none" stroke="#000" stroke-width=".369" />
   <path d="M220.713 146.91c.1-3.62 2.997-5.564 4.23-5.6 1.143-.034 2.701 1.119 3.65 3.795.66 1.86-.684 4.698-1.632 6.877" fill="none" stroke="#000" stroke-width=".23" />
   <path d="M222.141 162.22a.802.802 0 01-.652.927.802.802 0 01-.921-.66.802.802 0 01.652-.929.802.802 0 01.921.661z" style="marker:none" color="#000" fill="none" stroke="#000" stroke-width=".153" overflow="visible" />
   <path d="M177.129 167.354c4.862-1.328 7.968 1.535 10.478 2m-9.253 4.223c3.912-.302 7.583-2.763 9.189-2.966" fill="none" stroke="#000" stroke-width=".154" stroke-linecap="round" stroke-linejoin="round" />
   <path style="marker:none" d="M272.202 234.38c-10.49 9.58-24.784 16.1-43.64 16.953-18.954.857-33.553-1.952-44.672-8.848l-1.973 9.025c12.622 6.91 28.325 9.428 47.01 8.584 17.26-.78 31.585-6.046 42.828-14.094l.447-11.62z" color="#000" fill="#04a" fill-rule="evenodd" overflow="visible" />
   <path style="marker:none" d="M272.197 193.174c-4.406 19.41-22.125 33.805-44.417 34.796-14.296.636-25.383-.987-33.793-6.831a32.467 32.467 0 01-4.256-3.536l-1.45 5.961c.851.712 1.727 1.38 2.63 2.007 9.831 6.833 22.25 8.482 37.077 7.823 20.864-.928 38.433-12.79 46.265-29.745l.725-9.794-2.781-.68z" color="#000" fill="#308d57" fill-rule="evenodd" overflow="visible" />
   <path style="marker:none" d="M272.91 223.878c-9.825 11.29-24.619 19.607-44.818 20.623-19.123.962-32.585-2.505-42.321-8.999l-1.49 5.424c10.711 6.578 25.06 9.903 44.072 8.947 18.964-.954 33.674-8.033 44.261-18.076l.296-7.92z" color="#000" fill="#c13c1b" fill-rule="evenodd" overflow="visible" />
   <path style="marker:none" d="M262.194 191.131c-2.774 13.6-12.815 24.99-33.727 27.298-11.317 1.25-21.823.985-31.812-8.057l-6.122 4.03-.428 2.104c7.678 6.953 19.736 11.183 38.092 9.587 23.937-2.081 38.757-16.97 42.92-33.002l-8.923-1.96z" color="#000" fill="#04a" fill-rule="evenodd" overflow="visible" />
   <path style="marker:none" d="M273.785 207.123c-7.45 14.96-22.545 26.374-45.38 27.94-12.386.845-25.225-.386-35.722-6.78a40.976 40.976 0 01-4.745-3.37l-1.962 8.454c.85.597 1.712 1.162 2.588 1.695 12.543 7.64 27.12 8.779 40.363 7.875 19.443-1.333 34.367-9.484 44.238-21.033l.62-14.781z" color="#000" fill="#04a" fill-rule="evenodd" overflow="visible" />
   <path style="marker:none" d="M271.622 248.276c-10.417 7.449-24.558 12.749-44.468 13.643-.002 0-.02-.002-.052 0-.206.01-.37.044-.574.052-19.642.803-34.074-2.25-45.13-8.46l-4.788 21.456c13.966 6.45 30.883 9.292 50.605 8.486.232-.01.446-.041.678-.052 16.849-.757 30.95-4.607 42.613-10.333l1.116-24.792z" color="#000" fill="#fac53a" fill-rule="evenodd" overflow="visible" />
   <g fill="none" stroke="#c13c1b" stroke-width=".599">
      <path d="M828.256 211.133c-.133-7.458 4.89-18.968 9.068-26.236 3.807 7.34 8.604 19.118 8.573 26.123-.058 13.468-17.408 12.792-17.64.113z" transform="matrix(.43972 -.15548 .13536 .50506 -142.728 296.576)" />
      <path d="M830.586 210.952c-.098-5.523 3.607-14.048 6.69-19.431 2.808 5.437 6.346 14.16 6.324 19.348-.043 9.975-12.842 9.474-13.014.083z" transform="matrix(.43972 -.15548 .13536 .50506 -142.728 296.576)" />
      <path style="marker:none" d="M830.639 210.693c.946-.86 3.268-2.467 6.402-2.467 3.135 0 4.908 1.137 6.304 2.354m-10.469-9.131c1.17-.803 3.352-1.268 4.35-1.254 1.081.015 3.165.742 4.055 1.31" color="#000" stroke-linecap="round" stroke-linejoin="round" overflow="visible" transform="matrix(.43972 -.15548 .13536 .50506 -142.728 296.576)" />
   </g>
   <g fill="none" stroke="#c13c1b" stroke-width=".599">
      <path d="M828.256 211.133c-.133-7.458 4.89-18.968 9.068-26.236 3.807 7.34 8.604 19.118 8.573 26.123-.058 13.468-17.408 12.792-17.64.113z" transform="matrix(.45076 -.10584 .09214 .51774 -152.421 254.47)" />
      <path d="M830.586 210.952c-.098-5.523 3.607-14.048 6.69-19.431 2.808 5.437 6.346 14.16 6.324 19.348-.043 9.975-12.842 9.474-13.014.083z" transform="matrix(.45076 -.10584 .09214 .51774 -152.421 254.47)" />
      <path style="marker:none" d="M830.639 210.693c.946-.86 3.268-2.467 6.402-2.467 3.135 0 4.908 1.137 6.304 2.354m-10.469-9.131c1.17-.803 3.352-1.268 4.35-1.254 1.081.015 3.165.742 4.055 1.31" color="#000" stroke-linecap="round" stroke-linejoin="round" overflow="visible" transform="matrix(.45076 -.10584 .09214 .51774 -152.421 254.47)" />
   </g>
   <g fill="none" stroke="#c13c1b" stroke-width=".599">
      <path d="M828.256 211.133c-.133-7.458 4.89-18.968 9.068-26.236 3.807 7.34 8.604 19.118 8.573 26.123-.058 13.468-17.408 12.792-17.64.113z" transform="matrix(.4241 -.20488 .17837 .48712 -129.006 338.23)" />
      <path d="M830.586 210.952c-.098-5.523 3.607-14.048 6.69-19.431 2.808 5.437 6.346 14.16 6.324 19.348-.043 9.975-12.842 9.474-13.014.083z" transform="matrix(.4241 -.20488 .17837 .48712 -129.006 338.23)" />
      <path style="marker:none" d="M830.639 210.693c.946-.86 3.268-2.467 6.402-2.467 3.135 0 4.908 1.137 6.304 2.354m-10.469-9.131c1.17-.803 3.352-1.268 4.35-1.254 1.081.015 3.165.742 4.055 1.31" color="#000" stroke-linecap="round" stroke-linejoin="round" overflow="visible" transform="matrix(.4241 -.20488 .17837 .48712 -129.006 338.23)" />
   </g>
   <g fill="none" stroke="#c13c1b" stroke-width=".599">
      <path d="M828.256 211.133c-.133-7.458 4.89-18.968 9.068-26.236 3.807 7.34 8.604 19.118 8.573 26.123-.058 13.468-17.408 12.792-17.64.113z" transform="matrix(.46009 0 0 .52845 -160.09 165.564)" />
      <path d="M830.586 210.952c-.098-5.523 3.607-14.048 6.69-19.431 2.808 5.437 6.346 14.16 6.324 19.348-.043 9.975-12.842 9.474-13.014.083z" transform="matrix(.46009 0 0 .52845 -160.09 165.564)" />
      <path d="M830.639 210.693c.946-.86 3.268-2.467 6.402-2.467 3.135 0 4.908 1.137 6.304 2.354m-10.469-9.131c1.17-.803 3.352-1.268 4.35-1.254 1.081.015 3.165.742 4.055 1.31" style="marker:none" color="#000" stroke-linecap="round" stroke-linejoin="round" overflow="visible" transform="matrix(.46009 0 0 .52845 -160.09 165.564)" />
   </g>
   <g fill="none" stroke="#c13c1b" stroke-width=".599">
      <path d="M828.256 211.133c-.133-7.458 4.89-18.968 9.068-26.236 3.807 7.34 8.604 19.118 8.573 26.123-.058 13.468-17.408 12.792-17.64.113z" transform="matrix(.45973 .0208 -.0181 .52804 -165.321 148.242)" />
      <path d="M830.586 210.952c-.098-5.523 3.607-14.048 6.69-19.431 2.808 5.437 6.346 14.16 6.324 19.348-.043 9.975-12.842 9.474-13.014.083z" transform="matrix(.45973 .0208 -.0181 .52804 -165.321 148.242)" />
      <path style="marker:none" d="M830.639 210.693c.946-.86 3.268-2.467 6.402-2.467 3.135 0 4.908 1.137 6.304 2.354m-10.469-9.131c1.17-.803 3.352-1.268 4.35-1.254 1.081.015 3.165.742 4.055 1.31" color="#000" stroke-linecap="round" stroke-linejoin="round" overflow="visible" transform="matrix(.45973 .0208 -.0181 .52804 -165.321 148.242)" />
   </g>
   <g fill="none" stroke="#c13c1b" stroke-width=".599">
      <path d="M828.256 211.133c-.133-7.458 4.89-18.968 9.068-26.236 3.807 7.34 8.604 19.118 8.573 26.123-.058 13.468-17.408 12.792-17.64.113z" transform="matrix(.4572 -.05915 .0515 .52513 -158.78 215.195)" />
      <path d="M830.586 210.952c-.098-5.523 3.607-14.048 6.69-19.431 2.808 5.437 6.346 14.16 6.324 19.348-.043 9.975-12.842 9.474-13.014.083z" transform="matrix(.4572 -.05915 .0515 .52513 -158.78 215.195)" />
      <path style="marker:none" d="M830.639 210.693c.946-.86 3.268-2.467 6.402-2.467 3.135 0 4.908 1.137 6.304 2.354m-10.469-9.131c1.17-.803 3.352-1.268 4.35-1.254 1.081.015 3.165.742 4.055 1.31" color="#000" stroke-linecap="round" stroke-linejoin="round" overflow="visible" transform="matrix(.4572 -.05915 .0515 .52513 -158.78 215.195)" />
   </g>
   <g fill="none" stroke="#c13c1b" stroke-width=".599">
      <path d="M831.703 197.658c1.764-4.736 3.524-9.114 5.621-12.761 3.807 7.34 8.604 19.118 8.573 26.123-.033 7.71-5.183 10.447-10.094 9.289l-4.1-22.65z" transform="matrix(.41577 .2263 -.19702 .47755 -127.338 -21.399)" />
      <path d="M832.6 202.597c1.344-4.02 2.896-7.969 4.675-11.076 2.809 5.437 6.347 14.16 6.325 19.348-.025 5.8-4.365 8.059-8.026 7.086l-2.974-15.358z" transform="matrix(.41577 .2263 -.19702 .47755 -127.338 -21.399)" />
      <path d="M834.043 209.08c.72-.212 2.255-.675 2.973-.533 3 .59 4.933.816 6.33 2.033m-10.47-9.131c1.17-.803 3.352-1.268 4.35-1.254 1.081.015 3.165.742 4.055 1.31" style="marker:none" color="#000" stroke-linecap="round" stroke-linejoin="round" overflow="visible" transform="matrix(.41577 .2263 -.19702 .47755 -127.338 -21.399)" />
   </g>
   <g fill="none" stroke="#c13c1b" stroke-width=".599">
      <path d="M828.256 211.133c-.133-7.458 4.89-18.968 9.068-26.236 3.807 7.34 8.604 19.118 8.573 26.123-.058 13.468-17.408 12.792-17.64.113z" transform="matrix(.45002 .10994 -.09572 .51689 -159.31 73.795)" />
      <path d="M830.586 210.952c-.098-5.523 3.607-14.048 6.69-19.431 2.808 5.437 6.346 14.16 6.324 19.348-.043 9.975-12.842 9.474-13.014.083z" transform="matrix(.45002 .10994 -.09572 .51689 -159.31 73.795)" />
      <path style="marker:none" d="M830.639 210.693c.946-.86 3.268-2.467 6.402-2.467 3.135 0 4.908 1.137 6.304 2.354m-10.469-9.131c1.17-.803 3.352-1.268 4.35-1.254 1.081.015 3.165.742 4.055 1.31" color="#000" stroke-linecap="round" stroke-linejoin="round" overflow="visible" transform="matrix(.45002 .10994 -.09572 .51689 -159.31 73.795)" />
   </g>
   <g fill="none" stroke="#c13c1b" stroke-width=".599">
      <path d="M828.256 211.133c-.133-7.458 4.89-18.968 9.068-26.236 3.807 7.34 8.604 19.118 8.573 26.123-.058 13.468-17.408 12.792-17.64.113z" transform="matrix(.4385 .15997 -.13927 .50366 -149.56 32.21)" />
      <path d="M830.586 210.952c-.098-5.523 3.607-14.048 6.69-19.431 2.808 5.437 6.346 14.16 6.324 19.348-.043 9.975-12.842 9.474-13.014.083z" transform="matrix(.4385 .15997 -.13927 .50366 -149.56 32.21)" />
      <path d="M830.639 210.693c.946-.86 3.268-2.467 6.402-2.467 3.135 0 4.908 1.137 6.304 2.354m-10.469-9.131c1.17-.803 3.352-1.268 4.35-1.254 1.081.015 3.165.742 4.055 1.31" style="marker:none" color="#000" stroke-linecap="round" stroke-linejoin="round" overflow="visible" transform="matrix(.4385 .15997 -.13927 .50366 -149.56 32.21)" />
   </g>
   <g fill="none" stroke="#c13c1b" stroke-width=".599">
      <path d="M828.256 211.133c-.133-7.458 4.89-18.968 9.068-26.236 3.807 7.34 8.604 19.118 8.573 26.123-.058 13.468-17.408 12.792-17.64.113z" transform="matrix(.45764 .0544 -.04737 .52564 -166.805 119.858)" />
      <path d="M830.586 210.952c-.098-5.523 3.607-14.048 6.69-19.431 2.808 5.437 6.346 14.16 6.324 19.348-.043 9.975-12.842 9.474-13.014.083z" transform="matrix(.45764 .0544 -.04737 .52564 -166.805 119.858)" />
      <path style="marker:none" d="M830.639 210.693c.946-.86 3.268-2.467 6.402-2.467 3.135 0 4.908 1.137 6.304 2.354m-10.469-9.131c1.17-.803 3.352-1.268 4.35-1.254 1.081.015 3.165.742 4.055 1.31" color="#000" stroke-linecap="round" stroke-linejoin="round" overflow="visible" transform="matrix(.45764 .0544 -.04737 .52564 -166.805 119.858)" />
   </g>
   <g fill="none" stroke="#c13c1b" stroke-width=".599">
      <path d="M828.256 211.133c-.133-7.458 4.89-18.968 9.068-26.236 1.71 3.297 2.835 6.118 4.417 10.37l-12.733 19.454c-.774-1.406-.715-1.557-.752-3.588z" transform="matrix(.39828 -.26455 .23032 .45747 -109.138 390.11)" />
      <path d="M837.275 191.52c1.153 2.231 1.294 4.018 2.396 6.884l-9.629 14.61c.818-7.6 3.673-14.787 7.233-21.493z" transform="matrix(.39828 -.26455 .23032 .45747 -109.138 390.11)" />
      <path style="marker:none" d="M832.876 201.449c1.17-.803 3.352-1.268 4.35-1.254 1.081.015.263-.594 1.153-.026" color="#000" stroke-linecap="round" stroke-linejoin="round" overflow="visible" transform="matrix(.39828 -.26455 .23032 .45747 -109.138 390.11)" />
   </g>
   <path d="M251.723 189.373c-3.387 11.164-8.003 16.532-18.572 19.302-11.207 2.312-20.36 2.526-26.997-4.462l-8.24 5.263c4.74 4.433 7.757 6.06 12.552 7.49 8.605 2.569 15.638 1.422 23.825-.223 6.211-1.247 12.777-4.687 18.26-9.58 4.552-4.064 7.194-9.837 8.503-16.297l-8.202-1.754-1.129.26z" fill="#fac53a" fill-rule="evenodd" />
   <path d="M176.05 274.802c32.068 13.882 72.498 9.564 94.104-1.77" fill="none" stroke="#000" stroke-width=".25" />
   <path style="marker:none" d="M125.929 175.43c0 4.27-3.452 12.715-7.704 12.715-4.253 0-7.704-8.444-7.704-12.714s3.451-7.736 7.704-7.736c4.252 0 7.704 3.465 7.704 7.736z" color="#000" fill="#fff" fill-rule="evenodd" stroke="#025" stroke-width="1.5" stroke-linecap="round" stroke-linejoin="round" overflow="visible" />
   <path d="M101.964 178.83c.819-8.14-.462-15.286 2.88-25.184 4.08-12.077 8.155-14.171 12.905-20.518 1.8-1.47 4.762.067 3.79 2.862-5.51 5.132-9.442 12.139-11.048 16.138 1.653-.187 9.612-.798 9.79 7.45l-.027 544.293c8.861 10.169 1.245 17.985 1.72 26.82-.905.436-1.624.157-1.716-.613-1.186-9.668 2.111-13.884-.059-18.911-1.038-2.404-2.98-2.292-4.11-.246-2.438 4.408.976 7.12.085 19.063-.064.87-1.13 1.12-1.563.598-.556-8.875-6.69-16.357 1.43-26.72l-.008-543.61c-.459-4.602-5.436-5.095-7.908.104-2.898 6.095-1.67 12.413-2.447 18.617-1.287 3.997-3.932 2.457-3.714-.143z" fill="#025" fill-rule="evenodd" stroke="#025" stroke-width=".147" stroke-linecap="round" stroke-linejoin="round" />
   <g fill-rule="evenodd" stroke="#000" stroke-width=".174" stroke-linecap="round" stroke-linejoin="round">
      <path d="M155.522 315.023l-.297 22.433-15.647-1.984 1.178-19.96 14.766-.49z" fill="#fac53a" />
      <path d="M154.116 315.1l-.159 22.272-5.557-.804.607-21.282 5.11-.187zm-7.37.245l-.517 20.952c-1.607-.33-3.323-.404-4.918-.618l1.25-20.084 4.185-.25z" fill="#04a" />
   </g>
   <path d="M108.47 344.659c-1.288-.484-1.905-.069-4.517-1.034-1.767-.654-2.451-3.334-1.323-4.994.485-1.052 1.832-.913 3.024-.789.993.236 4.9-.809 6.118-1.308 3.829-.666 6.885-1.029 10.394-.93 7.736.894 12.546 4.961 17.094 9.391-.271 6.443.26 16.765-.01 23.208-7.85.896-16.756 1.357-24.651.31-.197-.032-.452-.084-.917-.117-.466-.034-2.948-.718-3.139-.738a2.88 2.88 0 01-.672-.165c-2.647-1.527-2.838-3.152-.296-5.43-2.27-1.6-2.564-3.439-.24-5.593-2.965-.928-2.978-4.067-.453-5.597-2.95-1.94-2.428-4.117-1.103-5.345.159-.16.46-.58.69-.87z" fill="#308d57" fill-rule="evenodd" stroke="#000" stroke-width=".136" />
   <g fill-rule="evenodd">
      <path d="M109.953 702.07c1.376-1.114 2.053-3.42 2.31-5.805l-.017-492.992V200.5h12.258v2.773l.001 492.917c.162 1.739.543 4.855 1.937 5.88h-16.489z" fill="#fac53a" stroke="#000" stroke-width=".2" />
      <path d="M124.486 618.58v25.793h-12.221l.026-25.793h12.195zm0 51.851v25.793h-12.221l.026-25.793h12.195zm0-103.999v25.792h-12.221l.026-25.792h12.195zm0-104v25.793h-12.221l.026-25.793h12.195zm0 51.851v25.793h-12.221l.026-25.793h12.195zm0-104.09v25.793h-12.221l.026-25.793h12.195zm0-103.999v25.793h-12.221l.026-25.793h12.195zm0 51.851v25.792h-12.221l.026-25.792h12.195zm0-104v25.793h-12.221l.026-25.793h12.195zm0-50.812v24.34h-12.221l.026-24.34h12.195z" style="marker:none" overflow="visible" stroke-width=".1" color="#000" fill="#04a" stroke="#025" stroke-linecap="round" stroke-linejoin="round" />
   </g>
   <path d="M129.304 368.478c8.659-1.06 2.958-25.476-1.516-24.875-6.623.104-9.777.343-16.577.07a.438.438 0 00-.367.136c-1.38 1.166-2.627 5.088.23 7.163-2.592 1.412-2.723 4.548.195 5.611-2.42 2.046-2.212 3.896-.017 5.599-2.644 2.158-2.528 3.79.045 5.437.256.106.475.168.664.197 6.894 1.135 12.599 1.339 17.204.681" fill="#308d57" fill-rule="evenodd" />
   <g fill-rule="evenodd" stroke="#000" stroke-width=".18" stroke-linecap="round" stroke-linejoin="round">
      <path d="M127.603 312.428c4.78.277 7.925 3.688 2.395 4.666 4.244-.217 8.708 4.455.03 4.92 6.587 1.173 3.81 5.018-.117 5.079 4.474.752 2.828 4.377-2.629 4.687-6.162 1.179-12.907 1.986-19.438 2.793-.12.013-.24-.02-.36-.152-1.325-1.228-1.847-3.404 1.103-5.345-2.525-1.53-2.512-4.669.452-5.597-2.323-2.154-2.03-3.993.24-5.593-2.54-2.278-2.35-3.903.297-5.43.26-.093.481-.146.672-.165 6.939-.817 12.647-.758 17.217.11m.996.171c-1.057.793-1.224 3.01.38 4.488m1.018.158c-1.626.588-1.045 3.89.043 4.752m.4.077c-1.98.372-2.734 4.227.23 4.975m-.701.09c-1.639.81-1.743 3.059-.847 4.35m-19.932-7.976c.674.068 20.988-1.433 20.988-1.433m-20.6-4.138c1.121-.094 20.616-.8 20.616-.8m-21.4 11.984l21.388-1.999" fill="#308d57" />
      <path d="M129.859 317.218c-.304-.034-.561.21-1.018-.158-1.986-1.765-.769-4.212-.392-4.508 4.24.596 6.702 3.716 1.53 4.63 4.244-.216 8.727 4.367.049 4.832 6.587 1.173 3.941 4.975.014 5.036 3.977.669 2.987 3.649-1.07 4.462-.884-1.341-.78-3.591 1.074-4.432-2.75-.781-1.724-4.66.056-5.071-1.288-.901-1.87-4.203-.243-4.791z" fill="#fff" />
   </g>
   <g transform="translate(268.384 -38.534) scale(1.66876)" stroke-linecap="round" stroke-linejoin="round">
      <path d="M-95.77 137.348l11.843-.006c-1.048.312-1.839 1.839-1.856 3.495l-8.261-.012c-.035-1.649-1.073-3.035-1.725-3.477z" style="marker:none" color="#000" fill="#04a" fill-rule="evenodd" stroke="#000" stroke-width=".021" overflow="visible" />
      <path style="marker:none" d="M-95.309 141.682h10.755c-.855.62-1.173 2.172-1.229 3.022h-8.261c-.15-1.188-.613-2.58-1.265-3.022z" color="#000" fill="#c13c1b" fill-rule="evenodd" stroke="#000" stroke-width=".021" overflow="visible" />
      <path d="M-95.309 145.55h10.755c-.778.774-1.096 2.192-1.229 3.042h-8.297c-.11-.995-.5-2.332-1.229-3.042z" style="marker:none" color="#000" fill="#04a" fill-rule="evenodd" stroke="#000" stroke-width=".021" overflow="visible" />
      <path style="marker:none" d="M-95.309 149.407h10.755c-1.047.313-1.212 2.445-1.229 4.101h-8.297c-.034-1.648-.577-3.66-1.229-4.1z" color="#000" fill="#308d57" fill-rule="evenodd" stroke="#000" stroke-width=".021" overflow="visible" />
      <path d="M-89.93 145.74v2.662m-.584-2.662l.095 2.662m-.801-2.662c.159.521.272 1.422.285 2.662m-.977-2.662c.14.358.318 1.45.407 2.662m-1.141-2.662c.211.453.463 1.517.57 2.662m-1.235-2.662c.287.521.48 1.245.638 2.662m-1.29-2.662c.366.584.548 1.526.747 2.662m-1.467-2.634c.602.76.772 1.699.95 2.634m5.053-2.662a21.56 21.56 0 00-.286 2.662m.978-2.662c-.141.358-.319 1.45-.407 2.662m1.141-2.662c-.212.453-.463 1.517-.57 2.662m1.235-2.662c-.287.521-.48 1.245-.638 2.662m1.29-2.662c-.366.584-.548 1.526-.747 2.662m1.467-2.634c-.602.76-.772 1.699-.951 2.634m-3.151-2.662l-.122 2.662M-89.93 149.62v3.622m-.584-3.622l.095 3.622m-.801-3.622c.159.708.272 1.934.285 3.622m-.977-3.622c.14.487.318 1.971.407 3.622m-1.141-3.622c.211.616.463 2.064.57 3.622m-1.235-3.622c.287.708.48 1.694.638 3.622m-1.29-3.622c.366.794.548 2.075.747 3.622m-1.467-3.585c.602 1.033.772 2.312.95 3.585m5.053-3.622c-.16.708-.272 1.934-.286 3.622m.978-3.622c-.141.487-.319 1.971-.407 3.622m1.141-3.622c-.212.616-.463 2.064-.57 3.622m1.235-3.622c-.287.708-.48 1.694-.638 3.622m1.29-3.622c-.366.794-.548 2.075-.747 3.622m1.39-3.623c-.602 1.033-.695 2.35-.874 3.623m-3.151-3.622l-.122 3.622M-89.93 141.861v2.662m-.584-2.662l.095 2.662m-.801-2.662c.159.52.272 1.422.285 2.662m-.977-2.662c.14.358.318 1.449.407 2.662m-1.141-2.662c.211.453.463 1.517.57 2.662m-1.235-2.662c.287.52.48 1.245.638 2.662m-1.29-2.662c.366.584.548 1.525.747 2.662m-1.467-2.635c.602.76.772 1.7.95 2.635m5.11-2.662c-.136.52-.255 1.422-.343 2.662m.978-2.662c-.141.358-.319 1.449-.407 2.662m1.141-2.662c-.212.453-.463 1.517-.57 2.662m1.235-2.662c-.287.52-.48 1.245-.638 2.662m1.29-2.662c-.366.584-.548 1.525-.747 2.662m1.467-2.635c-.602.76-.772 1.7-.951 2.635m-3.151-2.662l-.122 2.662M-89.93 137.56v3.045m-.584-3.045l.095 3.045m-.801-3.045c.159.595.272 1.626.285 3.045m-.977-3.045c.14.408.318 1.657.407 3.045m-1.141-3.045c.211.517.463 1.734.57 3.045m-1.235-3.045c.287.595.48 1.424.638 3.045m-1.29-3.045c.366.667.548 1.744.747 3.045m-1.64-3.015c.64.62.945 1.944 1.124 3.015m5.052-3.045c-.082.556-.176 1.51-.286 3.045m.978-3.045c-.141.408-.319 1.657-.407 3.045m1.141-3.045c-.212.517-.463 1.734-.57 3.045m1.235-3.045c-.287.595-.48 1.424-.638 3.045m1.29-3.045c-.366.667-.548 1.744-.747 3.045m1.601-3.015c-.544.504-.906 1.944-1.085 3.015m-3.151-3.045l-.122 3.045" stroke-width=".138" fill="none" stroke="#fff" stroke-opacity=".706" />
      <rect style="marker:none" width="17.518" height=".848" x="-98.71" y="148.594" ry=".353" color="#000" fill="#fac53a" fill-rule="evenodd" stroke="#000" stroke-width=".021" overflow="visible" />
      <rect ry=".353" y="144.715" x="-98.71" height=".848" width="17.518" style="marker:none" color="#000" fill="#fac53a" fill-rule="evenodd" stroke="#000" stroke-width=".021" overflow="visible" />
      <rect ry=".353" y="140.836" x="-98.71" height=".848" width="17.535" style="marker:none" color="#000" fill="#fac53a" fill-rule="evenodd" stroke="#000" stroke-width=".021" overflow="visible" />
      <rect style="marker:none" width="17.576" height=".848" x="-98.71" y="136.495" ry=".353" color="#000" fill="#fac53a" fill-rule="evenodd" stroke="#000" stroke-width=".021" overflow="visible" />
   </g>
   <path d="M109.798 343.196c5.493 1.22 10.467.36 15.698.527" fill="none" stroke="#000" stroke-width=".25" />
   <g fill-rule="evenodd" stroke="#000" stroke-width=".174" stroke-linecap="round" stroke-linejoin="round">
      <path d="M154.866 341.127l1.489 24.14-17.431 2.98-.02-23.68 15.962-3.44z" fill="#fac53a" />
      <path d="M152.775 341.57l1.572 24.122-5.441.891-1.107-23.939 4.976-1.074zm-7.749 1.76l1.274 23.762-5.475.876-.19-23.792 4.391-.846z" fill="#04a" />
   </g>
   <g fill="none" stroke="#c13c1b" stroke-width=".112">
      <path d="M233.087 214.761c-.443-1.423-.254-3.875.033-5.473 1.05 1.22 2.514 3.241 2.904 4.585.75 2.585-2.183 3.307-2.937.888z" />
      <path d="M233.628 214.484c-.278-.895-.17-2.434.002-3.436.652.77 1.563 2.043 1.808 2.889.471 1.624-1.337 2.068-1.81.547z" />
   </g>
   <g fill="none" stroke="#c13c1b" stroke-width=".112">
      <path d="M237.227 213.707c-.633-1.349-.781-3.805-.715-5.427 1.206 1.065 2.933 2.868 3.503 4.147 1.096 2.457-1.711 3.573-2.788 1.28z" />
      <path d="M237.725 213.358c-.398-.848-.501-2.388-.468-3.404.751.673 1.828 1.811 2.186 2.615.689 1.545-1.042 2.232-1.718.79z" />
   </g>
   <g fill="none" stroke="#c13c1b" stroke-width=".112">
      <path d="M241.092 212.07c-.739-1.295-1.082-3.73-1.145-5.353 1.287.966 3.153 2.625 3.822 3.854 1.288 2.362-1.42 3.699-2.677 1.499z" />
      <path d="M241.56 211.682c-.464-.814-.689-2.34-.737-3.356.802.611 1.966 1.66 2.387 2.433.81 1.485-.86 2.307-1.65.923z" />
   </g>
   <g fill="none" stroke="#c13c1b" stroke-width=".112">
      <path d="M244.896 210.15c-.95-1.148-1.705-3.49-2.046-5.077 1.434.73 3.556 2.046 4.427 3.141 1.674 2.107-.766 3.888-2.381 1.936z" />
      <path d="M245.29 209.688c-.596-.722-1.08-2.187-1.3-3.18.894.465 2.22 1.298 2.768 1.987 1.053 1.325-.452 2.421-1.467 1.193z" />
   </g>
   <g fill="none" stroke="#c13c1b" stroke-width=".112">
      <path d="M248.306 207.659c-1.05-1.057-2.016-3.32-2.5-4.87 1.495.597 3.728 1.713 4.695 2.725 1.859 1.946-.409 3.942-2.195 2.145z" />
      <path d="M248.658 207.163c-.66-.665-1.276-2.08-1.586-3.049.933.382 2.33 1.09 2.938 1.727 1.169 1.223-.23 2.452-1.352 1.322z" />
   </g>
   <g fill="none" stroke="#c13c1b" stroke-width=".112">
      <path d="M251.463 204.77c-1.236-.833-2.622-2.866-3.397-4.292 1.582.296 3.989.958 5.134 1.763 2.2 1.547.363 3.945-1.737 2.53z" />
      <path d="M251.711 204.216c-.776-.525-1.654-1.794-2.147-2.683.99.192 2.498.617 3.218 1.124 1.384.973.25 2.45-1.07 1.559z" />
   </g>
   <g fill="none" stroke="#c13c1b" stroke-width=".112">
      <path d="M253.864 201.533c-1.293-.74-2.826-2.664-3.705-4.03 1.6.178 4.05.66 5.25 1.378 2.31 1.381.655 3.908-1.545 2.652z" />
      <path d="M254.071 200.961c-.813-.465-1.782-1.666-2.34-2.517 1.002.12 2.537.432 3.292.883 1.453.868.431 2.425-.952 1.634z" />
   </g>
   <g fill="none" stroke="#c13c1b" stroke-width=".112">
      <path d="M255.837 197.975c-1.363-.603-3.086-2.359-4.1-3.627 1.609.013 4.095.24 5.364.83 2.44 1.136 1.053 3.82-1.264 2.797z" />
      <path d="M255.984 197.385c-.857-.38-1.945-1.473-2.587-2.262 1.008.015 2.567.167 3.365.539 1.534.714.679 2.367-.778 1.723z" />
   </g>
   <g fill="none" stroke="#c13c1b" stroke-width=".112">
      <path d="M257.382 194.06c-1.391-.535-3.198-2.204-4.274-3.42 1.608-.067 4.102.037 5.399.565 2.492 1.014 1.24 3.763-1.125 2.855z" />
      <path d="M257.5 193.463c-.875-.336-2.015-1.376-2.695-2.132 1.008-.034 2.572.041 3.387.373 1.568.638.795 2.331-.692 1.76z" />
   </g>
   <g fill="none" stroke="#c13c1b" stroke-width=".112">
      <path d="M231.99 214.984c-.156-1.482-1.3-3.66-2.197-5.013-.48 1.536-1.025 3.972-.851 5.36.334 2.67 3.314 2.173 3.048-.347z" />
      <path d="M231.384 214.944c-.099-.932-.808-2.303-1.362-3.155-.294.964-.626 2.495-.517 3.368.21 1.68 2.046 1.371 1.879-.213z" />
   </g>
   <g fill="none" stroke="#c13c1b" stroke-width=".112">
      <path d="M227.957 215.561c.006-1.49-.894-3.78-1.637-5.223-.645 1.474-1.453 3.837-1.431 5.236.04 2.69 3.057 2.52 3.068-.013z" />
      <path d="M227.359 215.455c.003-.937-.552-2.377-1.01-3.285-.397.927-.895 2.412-.881 3.292.026 1.692 1.884 1.586 1.89-.007z" />
   </g>
   <g>
      <g fill="none" stroke="#c13c1b" stroke-width=".112">
         <path d="M223.927 215.984c.08-1.488-.704-3.82-1.374-5.299-.718 1.44-1.643 3.76-1.691 5.158-.094 2.69 2.927 2.67 3.065.14z" />
         <path d="M223.335 215.848c.05-.936-.432-2.402-.844-3.331-.444.905-1.015 2.364-1.045 3.244-.059 1.69 1.803 1.677 1.889.087z" />
      </g>
   </g>
   <g fill="none" stroke="#c13c1b" stroke-width=".112">
      <path d="M219.609 216.16c.234-1.471-.304-3.872-.817-5.412-.864 1.357-2.024 3.568-2.217 4.954-.373 2.665 2.634 2.96 3.034.458z" />
      <path d="M219.034 215.963c.147-.925-.18-2.433-.494-3.4-.535.854-1.254 2.246-1.376 3.117-.234 1.676 1.619 1.856 1.87.283z" />
   </g>
   <g fill="none" stroke="#c13c1b" stroke-width=".112">
      <path d="M215.218 215.723c.44-1.423.248-3.876-.042-5.473-1.047 1.221-2.509 3.245-2.897 4.59-.746 2.585 2.189 3.303 2.94.883z" />
      <path d="M214.677 215.447c.276-.895.166-2.435-.008-3.437-.65.771-1.56 2.047-1.803 2.892-.47 1.626 1.34 2.067 1.81.545z" />
   </g>
   <path d="M223.521 138.862c-48.223-42.094 37.654-58.526 28.575 2.324-2.535 16.995-11.899 33.419-15.45 50.998-2.127 10.536 6.067 12.332 5.196 1.094.291-3.125 5.12-3.712 4.922 2.324.608-3.94 6.282-2.988 5.332 2.325.474-2.714 6.07-3.312 4.102 2.871-2.772 7.21-8.872 16.41-24.405 12.237-5.605-1.506-8.063-4.574-9.956-9.512-3.61-9.415-3.023-23.472-1.078-38.498.032-.244 2.287-.971 2.32-1.216" fill="#025" fill-rule="evenodd" stroke="#000" stroke-width=".096" />
   <path d="M231.066 6.514c-22.879 2.09-44.86 5.95-50.041 42.93-.381 21.321 8.954 41.603 49.22 44.026 29.662-1.429 48.343-21.598 49.22-41.564-.936-30.594-18.08-44.697-48.4-45.392z" fill="#e6e6e6" fill-rule="evenodd" stroke="#000" stroke-width=".096" />
   <path d="M171.448 54.727c7.93 37.746 37.959 47.823 56.461 48.052 20.049.248 44.8-4.094 59.166-47.859 2.138-6.513-.79-7.463-3.48-1.353-14.699 33.369-38.905 40.097-54.913 39.897-20.71-.26-46.27-13.26-54.914-40.09-.917-2.846-3.21-2.877-2.32 1.353z" fill="#fac53a" fill-rule="evenodd" stroke="#000" stroke-width=".096" />
   <path d="M275.855 187.95l.773 45.245c-5.047 2.563-5.623 18.564 8.121 19.142 9.095.383 16.23-12.643 6.574-19.722l2.9-45.632-18.368.966z" fill="#fac53a" fill-rule="evenodd" stroke="#000" stroke-width=".957" stroke-linecap="round" stroke-linejoin="round" />
   <g>
      <g fill="none" stroke="#c13c1b" stroke-width=".112">
         <path d="M210.833 214.707c.8-1.257 1.26-3.674 1.401-5.291-1.332.902-3.275 2.47-4.003 3.665-1.4 2.298 1.241 3.763 2.602 1.626z" />
         <path d="M210.384 214.298c.503-.79.801-2.305.898-3.317-.83.572-2.044 1.563-2.502 2.315-.88 1.444.749 2.346 1.604 1.002z" />
      </g>
   </g>
   <g fill="#04a">
      <g fill-rule="evenodd" stroke="#c13c1b" stroke-width=".112">
         <path d="M208.268 212.707c.95-1.147 1.708-3.488 2.049-5.076-1.434.73-3.557 2.044-4.429 3.14-1.675 2.105.764 3.887 2.38 1.936z" />
         <path d="M207.873 212.245c.598-.722 1.082-2.187 1.304-3.18-.895.465-2.222 1.298-2.77 1.986-1.054 1.324.45 2.421 1.466 1.194z" />
      </g>
      <g fill-rule="evenodd" stroke="#c13c1b" stroke-width=".112">
         <path d="M205.299 210.33c1.117-.987 2.227-3.182 2.811-4.697-1.53.498-3.831 1.467-4.862 2.414-1.981 1.82.152 3.96 2.05 2.283z" />
         <path d="M204.98 209.812c.702-.62 1.408-1.993 1.781-2.939-.956.32-2.396.937-3.044 1.532-1.246 1.145.07 2.462 1.263 1.407z" />
      </g>
      <path d="M202.466 194.919c-13.365 8.337-14.702 34.098-18.595 58.928.082 13.112 4.888 20.657 15.177 21.739 11.469.963 14.826-10.28 14.082-21.33-1.055-15.67-4.568-39.922-3.008-46.759" fill="#308d57" fill-rule="evenodd" stroke="#000" stroke-width=".574" />
      <path d="M203.833 200.935c-9.894 13.349-4.319 32.017-6.996 52.091-.178 1.333 2.125 2.487 2.484 0 2.617-18.112-5.697-37.599 4.512-52.091z" fill="#000" fill-rule="evenodd" stroke="#000" stroke-width=".096" />
      <path d="M203.263 197.52c-10.625 5.114-11.43 22.343-14.066 38.672m14.646-36.642c-9.904 5.13-8.023 23.766-10.393 36.738m.629 4.641c-.462 10.027-3.462 21.609 2.03 22.526m-7.734-22.526c-.55 4.744-7.133 27.327 7.637 29.197m-4.35-29.487c-1.58 11.003-5.095 23.904 4.254 26.393m6.887-26.006c.228 8.348 2.265 21.817-2.537 22.526m.29 2.9c6.702-2.998 7.242-6.366 5.671-25.426m-5.671 29.004c11.961-2.803 9.576-16.64 8.605-29.391m-3.094-38.091c-5.534 8.34-5.002 20.5-3.674 33.16m4.351-.386c-.687-12.032-2.471-24.92 1.063-30.744" stroke-width="1.436" fill="none" stroke="#c13c1b" stroke-linecap="round" stroke-linejoin="round" />
      <path d="M199.59 252.724c-.533 1.99-2.572 2.645-2.804.677l-1.16 21.462c1.496.539 3.192.767 5.027.725l-1.064-22.864zm-13.052-16.822l11.215.096-.097 4.834h-11.698l.58-4.93zm12.955.193l11.601-.483.677 5.027-11.795.29-.483-4.834z" fill="#fac53a" fill-rule="evenodd" stroke="#000" stroke-width=".383" stroke-linecap="round" stroke-linejoin="round" />
   </g>
   <path d="M223.614 139.41c11.4 2.872 16.02 3.37 27.96 4.443-.562 4.511-2.841 10.8-3.76 13.535-11.097-1.29-16.179-2.223-24.336-2.871l.136-15.108z" fill="#fac53a" fill-rule="evenodd" stroke="#000" stroke-width=".096" />
   <path d="M251.438 145.357c-9.492-.923-18.864-2.202-28.097-3.897l-.069 4.102 27.208 4.033.957-4.238zm-1.71 6.493l-22.354-3.212-.478 4.307 21.534 2.734 1.298-3.828z" fill="#04a" fill-rule="evenodd" stroke="#000" stroke-width=".096" />
   <path d="M222.738 151.767c.694.766-.308 1.728-1.072 2.173-4.78 3.463-4.225 7.207-1.94 9.619 1.435 1.88 3.685.969 4.16-.201.5-1.231.89-2.807 1.56-4.414 6.17-12.016 4.491-14.641 4.446-15.02-.08-.666-2.607-4.953-5.434-4.158-2.901.815-9.364 6.062-1.72 12.001z" fill="#308d57" fill-rule="evenodd" />
   <path d="M221.612 154.116c-4.78 3.462-4.225 7.206-1.94 9.618 1.435 1.88 3.685.97 4.16-.2.5-1.232.89-2.808 1.56-4.414 6.17-12.016 4.491-14.642 4.446-15.02-.08-.666-2.607-4.954-5.434-4.159-2.901.816-9.364 6.063-1.72 12.002 1.658 1.269.458 2.931-.647 5.148m-.13-9.815c4.432.202 4.242 4.381 1.43 10.816-2.24 2.364-2.608 2.772-3.04 2.556-.397-.2-.214-1.511 1.813-3.57" fill="none" stroke="#000" stroke-width=".369" />
   <path d="M193.068 186.266c-4.991-.484-11.213-3.086-13.056-4.992-4.124 21.135-1.46 48.207-25.414 45.643-.501-.041-.966-.047-1.347.174-3.381 3.124-1.682 9.982 10.752 7.488 21.627-4.337 24.504-35.613 29.065-48.313z" fill-rule="evenodd" stroke="#000" stroke-width=".269" />
   <g stroke="#fff" stroke-width="4" stroke-linecap="round" stroke-linejoin="round" fill="none">
      <path d="M246.696 195.534c-1.234 5.838-3.62 8.426-9.57 9.57-6.186.824-9.077-1.627-13.912.392" stroke-width=".383" />
      <path d="M252.241 197.395c-1.62 5.988-8.218 10.935-11.63 11.88-8.045 2.23-6.318-2.418-14.902.82m-4.622-10.931c4.766.05 11.742 2.833 16.048 5.752m-17.063-12.954c4.381 1.262 8.736 3.018 11.6 6.429m-4.012 1.837c2.65-1.264 5.333-2.483 8.363-3.24m-7.879-2.223c2.124-1.616 4.634-2.741 8.17-2.562m-16.871-8.797c4.02 2.157 7.755 4.642 11.505 9.377m-2.418-2.997c2.568-2.012 6.366-3.36 9.379-4.157m-18.079-10.876c5.107 2.941 9.786 6.585 13.1 12.471m-3.722-5.462c3.29-2.197 7.384-3.79 11.698-5.22m-9.891-3.604c3.898-2.64 8.136-3.583 12.501-3.89m-22.043-2.271c3.871.949 8.907 5.497 14.067 11.601m-9.813-19.094c3.65 2.629 7.626 6.576 9.088 11.263m-2.32-5.027c3.993-2.663 8.94-3.791 13.825-4.544m-8.443-56.295c-2.196 4.694-2.402 9.534-2.806 14.228" stroke-width=".383" />
      <path d="M217.027 131.958c11.34 3.332 23.646 4.154 35.343 4.99" stroke-width=".191" />
      <path d="M211.376 107.416l15.081 10.828" stroke-width=".383" />
      <path d="M210.624 108.647l15.081 10.828m-15.833-9.325l15.081 10.829m-15.628-9.187l15.082 10.828m-15.424-8.914l15.082 10.828m-15.287-8.846l14.74 10.486m-1.088-23.633l-1.007 11.967m-.486-12.165l-.9 11.16m-.742-11.03l-.82 9.938m-.868-9.34l-.684 8.192m-1.184-7.243l-.499 6.093m-1.323-5.077l-.299 3.867m18.759-5.965l-1.37 16.754m-.074-16.737l-1.369 16.726m-.297-16.726l-1.38 16.856m-.191-16.846l-1.496 17.223m-.337-17.35l-1.152 14.046m-.551-14.158l-1.033 13.063m14.092-11.861l-.256 3.13m-1.13-3.827l-1.676 15.784m.04-16.157l-1.379 16.857m6.482-14.645l-3.064 3.947m10.402 2.822l-9.487 12.285m8.622-13.517l-9.825 12.722m8.73-14.021l-10.207 13.217m9.015-14.232l-10.636 13.629m9.44-14.598l-6.956 8.514m5.51-9.793l-5.056 5.944m11.935 1.404l-9.064 11.737m11.399-7.043l-7.489 9.606m6.829-11.21l-7.728 10.006m6.949-11.714l-9.943 12.874m12.164-7.598l-6.252 7.998m-28.587 2.473c11.341 3.332 24.603 4.223 36.3 5.059m-37.667-6.7c11.341 3.333 26.107 4.428 37.804 5.264m-38.829-6.699c11.34 3.332 27.064 4.496 38.76 5.332m-39.512-6.905c11.34 3.333 27.816 4.702 39.513 5.538m-40.539-6.973c11.341 3.332 28.842 4.77 40.539 5.605m-28.614 8.905c9.029 2.493 18.487 3.472 27.823 4.189m-29.604-5.852c9.364 2.67 19.888 3.743 29.803 4.503m-31.47-6.208c9.58 2.816 21.313 3.986 31.776 4.785m-25.576 16.636c6.762 1.328 13.68 2.01 20.537 2.542m-19.994-3.718c6.766 1.216 13.52 1.832 20.28 2.35m-21.198.115c6.766 1.216 13.82 1.889 20.581 2.407" stroke-width=".191" />
   </g>
   <path d="M208.784 116.48l42.14 3.71c1.15 3.088 1.513 6.175 1.637 9.262l-40.418-4.186c-2.158-2.41-2.698-5.628-3.359-8.786zm8.473 16.161c11.4 2.873 23.266 4.19 35.206 5.264l-.205 1.914c-11.098-1.29-22.195-2.018-33.292-5.195l-1.71-1.983z" fill="#fac53a" fill-rule="evenodd" stroke="#000" stroke-width=".096" />
   <path d="M209.152 118.148l42.248 3.867c.898 1.677.786 3.691.967 5.607l-41.571-4.254c-1.075-1.837-1.503-3.818-1.644-5.22z" fill="#04a" fill-rule="evenodd" stroke="#000" stroke-width=".096" />
   <g stroke="#c13c1b" fill="none">
      <path d="M186.87 236.551l10.117.137m-10.117.478l10.117.137m-10.117.479l10.117.136m-10.083.479l10.118.137m-10.118.478l10.118.137m-10.118.444l10.118.137m-10.118.479l10.118.136" stroke-width=".096" />
   </g>
   <g stroke="#c13c1b" fill="none">
      <path d="M200.456 236.587l10.115-.27m-10.09.884l10.115-.269m-10.09.884l10.115-.27m-10.056.884l10.114-.27m-10.089.884l10.114-.27m-10.091.851l10.114-.27m-10.09.885l10.115-.27" stroke-width=".096" />
   </g>
   <g stroke="#c13c1b" fill="none">
      <path d="M-73.214 859.505l108.971-7.199m-108.152 11.088l107.31-.59m-106.938 5.998l105.961 2.453M-72.001 873.7l104.858 6.52m-105.895-.973l104.814 9.58" transform="matrix(.00135 .1851 -.09474 .00264 280.548 266.126)" />
   </g>
   <path d="M286.097 240.926a1.64 1.777 0 11-3.281 0 1.64 1.777 0 113.28 0z" style="marker:none" color="#000" fill-rule="evenodd" stroke="#000" stroke-width=".574" stroke-linecap="round" stroke-linejoin="round" overflow="visible" />
   <path d="M284.579 251.765c1.484-2.76 2.264-5.519 0-8.279-1.967 2.76-2.284 5.52 0 8.28zm.068-13.194c1.484-2.76 2.264-5.519 0-8.278-1.966 2.76-2.284 5.519 0 8.278zm-10.858 2.512c2.76 1.484 5.519 2.263 8.279 0-2.76-1.967-5.52-2.284-8.28 0zm13.262 0c2.76 1.484 5.52 2.263 8.279 0-2.76-1.967-5.52-2.284-8.279 0z" fill="#04a" fill-rule="evenodd" stroke="#04a" stroke-width=".253" />
   <path d="M276.153 234.041c1.207 2.892 2.858 5.237 6.427 5.219-.903-3.266-2.845-5.252-6.427-5.219z" fill="#c13c1b" fill-rule="evenodd" stroke="#c13c1b" stroke-width=".253" />
   <path d="M292.63 234.246c-1.208 2.892-2.858 5.237-6.428 5.22.903-3.267 2.845-5.253 6.427-5.22z" fill="#308d57" fill-rule="evenodd" stroke="#308d57" stroke-width=".253" />
   <path d="M292.903 248.147c-1.207-2.892-2.858-5.237-6.427-5.219.902 3.266 2.845 5.252 6.427 5.219z" fill="#c13c1b" fill-rule="evenodd" stroke="#c13c1b" stroke-width=".253" />
   <path d="M276.153 248.078c1.207-2.891 2.858-5.236 6.427-5.218-.903 3.266-2.845 5.252-6.427 5.218z" fill="#308d57" fill-rule="evenodd" stroke="#308d57" stroke-width=".253" />
   <path d="M278.374 190.463l.386 38.285 11.408.193 1.547-39.251-13.341.773z" fill="none" stroke="#c13c1b" stroke-width=".957" stroke-linecap="round" stroke-linejoin="round" />
</svg>