<svg xmlns="http://www.w3.org/2000/svg" width="350" height="840" version="1.0">
   <defs>
      <linearGradient id="prefix__a">
         <stop offset="0" stop-color="#c13c1b" />
         <stop offset=".839" stop-color="#c13c1b" stop-opacity=".498" />
         <stop offset="1" stop-color="#c13c1b" stop-opacity="0" />
      </linearGradient>
   </defs>
   <path d="M280.754 625.197l-.307 12.343c.092 17.746.562 36.573 4.168 49.573l19.3 143.75 11.117-1.235c-8.34-48.113-10.088-94.907-15.131-142.36-3.04-31.149-9.486-22.25-19.147-62.07z" fill="#fac53a" fill-rule="evenodd" stroke="#c13c1b" stroke-width=".432" />
   <path d="M312.014 348.162h-30.133M312.56 357.224l-30.243.437" fill="none" stroke="#000" stroke-width=".216" />
   <path d="M230.625 287.283l38.783 1.206c19.383 6.147 35.798 12.901 41.816 33.998 2.172 12.13.178 16.431.926 25.63l.618 9.574c1.33 20.65 1.876 41.458.309 62.688-1.256 18.425 2.698 38.086 3.088 56.511-.628 15.45-4.375 26.909-5.095 40.416l-19.3-1.506c-8.862-49.929-3.742-66.267-5.868-89.245-3.22-28.032-3.23-55.261-4.323-82.76-11.9 21.466-24.347 42.2-31.19 70.407v4.671l6.485 29.916c3.48 4.882 13.453 27.038 6.212 39.67 8.264 48.38 12.168 97.852 11.699 146.232l.617 15.749c1.314 21.452 9.94 42.913 9.573 66.394-.365 23.48-4.595 46.46-7.72 68.864-1.184 25.837 2.385 30.425 1.491 39.848-.893 9.424-6.162 8.992-11.532 8.931-5.474-.061-10.785-.987-10.974-4.595-5.653-1.586-13.631 4.934-72.263 2.662-2.539-.343-2.727-4.075-2.96-6.723 2.614-.714 5.324-1.044 8.228-.596 19.497-9.53 38.655-13.62 58.674-31.498.947-.982 1.745-2.3 1.544-5.868-2.524-35.346-10.217-72.039-13.28-107.465l-.926-5.558c-2.707-6.918-5.104-15.692-8.337-19.455-1.312-7.206-1.855-14.411-6.485-21.617l-14.932-.308c-6.778 19.141-7.696 26.921-11.735 39.836-3.146 18.89-.326 26.913-4.832 41.998-4.543 15.21-14.255 34.954-21.925 49.718-4.702 12.668-11.177 26.046-13.33 37.751-.617 7.54.635 13.364-.258 22.787-.894 9.424-6.163 8.992-11.533 8.931-5.474-.061-10.785-.987-10.974-4.595-5.652-1.586-13.63 4.934-72.263 2.662-2.538-.343-2.727-4.075-2.96-6.723 2.614-.714 5.324-1.044 8.228-.596 19.498-9.53 43.905-14.856 63.898-32.734 1.929-2.156 2.543-4.532 3.28-6.887l22.633-109.224c.029-11.065-1.372-21.58 3.706-34.587l.309-8.646 18.673-170.841-2.075-7.225c-2.65-6.114-.76-12.588-.849-18.336-2.218-17.227-5.721-34.134-9.573-50.953-2.438-5.673-4.692-12.494-6.507-19.662-1.79-.695-2.317-2.68-1.083-4.555-1.216-5.467-2.154-11.034-2.705-16.362l-.822-.183-1.224 11.039c-.477 2.676-.395 5.31-.856 7.941-3.447 19.672-7.004 39.093-18.982 73.802l-3.978 8.724c-9.02 26.126-22.208 46.39-35.88 65.973l-17.033-12.271c9.843-24.333 16.773-49.596 31.63-72.328l2.653-6.442c1.046-18.874 3.392-45.47 8.431-66.333l1.972-15.64c-5.587-25.87 6.44-43.13 29.365-46.96l37.863-7.364" fill="#a13c2a" fill-rule="evenodd" stroke="#000" stroke-width=".432" stroke-linecap="round" stroke-linejoin="round" />
   <g fill-rule="evenodd" stroke="#000" stroke-linecap="round" stroke-linejoin="round">
      <path d="M-2306.297 184.523l126.243 8.061-.277 76.804-129.037-11.151 3.07-73.714z" fill="#fac53a" transform="matrix(.23889 -.01891 .0161 .22474 829.6 260.863)" />
      <path d="M-2306.69 192.987l126.446 10.278-.033 22.472-127.353-9.681.94-23.07zM-2307.61 224.353l127.059 11.038.146 24.403-128.228-10.692 1.023-24.749z" fill="#04a" transform="matrix(.23889 -.01891 .0161 .22474 829.6 260.863)" />
   </g>
   <path d="M283.365 635.5c-.447-2.635-1.628-5.47-2.009-8.516-4.272-34.2-4.916-92.64-15.083-137.46 2.938-8.146 1.788-17.4-.399-25.108-2.16-7.611-5.229-13.556-6.802-15.794-1.137-5.323-4.491-21.112-5.654-32.29a1.08 1.08 0 00-1.095-.986h0a1.08 1.08 0 00-1.053 1.21c1.195 11.483 4.617 27.496 5.728 32.694.033.15.098.29.19.412 1.148 1.569 4.46 7.782 6.606 15.341 2.145 7.56 3.183 16.555.35 24.096a1.08 1.08 0 00-.04.615c8.552 37.496 10.412 84.889 13.397 119.58.871 10.114 2.725 19.264 3.093 26.543" fill="#fac53a" fill-rule="evenodd" stroke="#000" stroke-width=".216" stroke-linecap="round" stroke-linejoin="round" />
   <path d="M157.538 634.166l16.832-171.093 88.382-.89c1.158 4.7 6.012 14.323.464 26.557 7.642 48.32 12.4 97.274 11.37 145.306l-117.048.12z" fill="#fff" fill-rule="evenodd" stroke="#000" stroke-width=".432" />
   <path d="M274.578 634.384c-90.46-15.205-106.955-83.4-100.208-171.31l82.405-14.567c7.818 13 12.343 30.673 6.468 40.178 7.66 48.434 12.394 97.556 11.335 145.7z" fill="#fac53a" fill-rule="evenodd" stroke="#000" stroke-width=".216" />
   <path d="M153.947 291.453l32.876-6.575 46.534-3.71 35.83 7.407c-6.734 33.984-29.78 46.135-56.48 46.728-25.29.558-37.1-5.936-45.357-14.706-7.85-8.335-12.018-21.41-13.403-29.144z" fill="#fff" fill-rule="evenodd" stroke="#000" stroke-linecap="round" stroke-linejoin="round" stroke-width=".27168" />
   <path d="M167.68 288.704c4.956 24.508 19.253 33.587 45.6 32.55 26.412-1.039 39.559-17.992 41.17-34.45-.009-.222-.016-.547.115-1.127" style="marker:none" color="#000" fill="none" stroke="#04a" stroke-width="4.841337599999999" stroke-linejoin="round" overflow="visible" />
   <path d="M180.217 286.357c4.82 18.648 15.355 22.69 32.552 22.025 16.068-.622 27.977-11.153 27.858-24.363-.042-.503.136-.834.101-1.134" style="marker:none" color="#000" fill="none" stroke="#308d57" stroke-width="3.6739286399999997" overflow="visible" />
   <path d="M172.001 288.119c3.622 17.164 12.732 29.992 40.961 28.756 24.573-1.076 36.362-17.698 36.834-31.589-.015-.062-.016-.356.046-.649" style="marker:none" color="#000" fill="none" stroke="#c13c1b" stroke-width="2.9708208" overflow="visible" />
   <path d="M184.305 285.44c2.44 8.142 5.165 20.312 28.455 18.55 15.258-1.156 22.63-10.255 23.206-18.744.047-.964.04-3.106.157-3.388" style="marker:none" color="#000" fill="none" stroke="#04a" stroke-width="4.3572038399999995" overflow="visible" />
   <path d="M176.007 287.082c4.876 23.183 22.08 26.472 37.215 25.573 20.56-1.228 31.623-13.959 32.192-27.435.019-.247.014-1.17.132-1.544" style="marker:none" color="#000" fill="none" stroke="#04a" stroke-width="4.3572038399999995" overflow="visible" />
   <path d="M159.489 290.497c5.384 26.016 19.894 40.196 52.718 39.028l.387-.015h.011c43.57-1.704 49.082-34.322 50.663-41.916" style="marker:none" color="#000" fill="none" stroke="#fac53a" stroke-width="10.867199999999999" overflow="visible" />
   <path d="M153.947 291.453l32.876-6.575 46.534-3.71 35.83 7.407c-6.734 33.984-29.78 46.135-56.48 46.728-25.29.558-37.1-5.936-45.357-14.706-7.85-8.335-12.018-21.41-13.403-29.144z" fill="none" stroke="#000" stroke-width=".54336" stroke-linecap="round" stroke-linejoin="round" />
   <g fill="none" stroke="#c13c1b">
      <path d="M225.421 330.573c-.63-1.926-.246-5.316.257-7.537 1.576 1.602 3.763 4.276 4.315 6.098 1.061 3.501-3.498 4.713-4.572 1.44z" stroke-width=".27168" />
      <path d="M226.012 330.34c-.467-1.426-.187-3.936.183-5.58 1.164 1.187 2.78 3.17 3.189 4.518.786 2.594-2.577 3.487-3.372 1.062z" stroke-width=".27168" />
      <path style="marker:none" d="M226.005 330.268a2.675 2.675 0 011.465-1.152c.814-.25 1.365-.097 1.825.108M225.846 327.69c.24-.303.77-.598 1.03-.674.282-.083.881-.06 1.157.016" color="#000" stroke-linecap="round" stroke-linejoin="round" overflow="visible" stroke-width=".27168" />
   </g>
   <g fill="none" stroke="#c13c1b">
      <path d="M219.71 331.441c-.442-1.978.27-5.315.986-7.477 1.413 1.747 3.33 4.62 3.703 6.487.717 3.588-3.938 4.352-4.69.99z" stroke-width=".27168" />
      <path d="M220.32 331.266c-.327-1.465.196-3.936.723-5.536 1.044 1.294 2.46 3.424 2.736 4.806.532 2.657-2.902 3.22-3.459.73z" stroke-width=".27168" />
      <path style="marker:none" d="M220.32 331.194c.205-.28.736-.834 1.57-1.005.834-.17 1.368.036 1.806.284M220.412 328.612c.268-.277.824-.52 1.09-.57.289-.055.883.025 1.15.128" color="#000" stroke-linecap="round" stroke-linejoin="round" overflow="visible" stroke-width=".27168" />
   </g>
   <g fill="none" stroke="#c13c1b">
      <path d="M231.246 329.005c-.819-1.853-.773-5.265-.492-7.525 1.726 1.437 4.168 3.881 4.898 5.639 1.404 3.379-3.012 5.037-4.406 1.886z" stroke-width=".27168" />
      <path d="M231.81 328.715c-.606-1.373-.576-3.899-.37-5.571 1.275 1.066 3.08 2.877 3.62 4.179 1.04 2.503-2.217 3.725-3.25 1.392z" stroke-width=".27168" />
      <path style="marker:none" d="M231.796 328.644a2.675 2.675 0 011.344-1.292c.785-.33 1.349-.232 1.827-.074M231.383 326.093c.209-.324.706-.67.957-.772.273-.11.871-.147 1.154-.099" color="#000" stroke-linecap="round" stroke-linejoin="round" overflow="visible" stroke-width=".27168" />
   </g>
   <g fill="none" stroke="#c13c1b">
      <path d="M208.252 331.962c-.037-2.026 1.328-5.153 2.463-7.128 1.034 1.995 2.338 5.194 2.33 7.098-.016 3.659-4.73 3.475-4.793.03z" stroke-width=".27168" />
      <path d="M208.885 331.913c-.027-1.5.98-3.817 1.817-5.28.763 1.478 1.724 3.848 1.718 5.257-.012 2.71-3.489 2.574-3.535.023z" stroke-width=".27168" />
      <path d="M208.899 331.843c.257-.234.888-.67 1.74-.67.851 0 1.333.308 1.712.639M209.507 329.331c.318-.218.91-.344 1.182-.34.293.003.86.201 1.101.356" style="marker:none" color="#000" stroke-linecap="round" stroke-linejoin="round" overflow="visible" stroke-width=".27168" />
   </g>
   <g fill="none" stroke="#c13c1b">
      <path d="M202.732 331.866c.043-2.026 1.53-5.097 2.742-7.025.955 2.033 2.131 5.282 2.048 7.183-.16 3.656-4.863 3.287-4.79-.158z" stroke-width=".27168" />
      <path d="M203.366 331.842c.032-1.5 1.13-3.775 2.024-5.204.704 1.506 1.571 3.912 1.51 5.32-.118 2.708-3.588 2.435-3.534-.116z" stroke-width=".27168" />
      <path style="marker:none" d="M203.383 331.772a2.675 2.675 0 011.765-.601c.85.033 1.32.361 1.686.706M204.09 329.287c.326-.206.923-.309 1.194-.294.293.015.851.235 1.087.399" color="#000" stroke-linecap="round" stroke-linejoin="round" overflow="visible" stroke-width=".27168" />
   </g>
   <g fill="none" stroke="#c13c1b">
      <path d="M214.032 331.932c-.263-2.01.743-5.27 1.65-7.359 1.25 1.866 2.904 4.9 3.109 6.792.394 3.638-4.311 3.983-4.76.567z" stroke-width=".27168" />
      <path d="M214.655 331.812c-.194-1.488.547-3.902 1.215-5.45.924 1.383 2.144 3.63 2.296 5.032.292 2.694-3.18 2.948-3.51.418z" stroke-width=".27168" />
      <path style="marker:none" d="M214.661 331.74c.23-.26.808-.765 1.654-.86.846-.096 1.36.158 1.773.444M214.984 329.177c.292-.252.867-.444 1.137-.47.292-.03.877.103 1.134.23" color="#000" stroke-linecap="round" stroke-linejoin="round" overflow="visible" stroke-width=".27168" />
   </g>
   <g fill="none" stroke="#c13c1b">
      <path d="M165.038 311.9c1.672-1.145 5.034-1.725 7.308-1.863-1.097 1.96-3.053 4.809-4.647 5.848-3.064 2-5.504-2.038-2.661-3.986z" stroke-width=".27168" />
      <path d="M165.427 312.401c1.238-.848 3.727-1.28 5.408-1.386-.814 1.45-2.264 3.556-3.445 4.326-2.27 1.481-4.068-1.498-1.963-2.94z" stroke-width=".27168" />
      <path d="M165.494 312.374a2.675 2.675 0 011.516 1.084c.468.712.475 1.284.408 1.782M167.925 311.5c.357.146.789.572.935.8.158.248.304.83.308 1.116" style="marker:none" color="#000" stroke-linecap="round" stroke-linejoin="round" overflow="visible" stroke-width=".27168" />
   </g>
   <g fill="none" stroke="#c13c1b">
      <path d="M162.41 307.156c1.776-.975 5.179-1.223 7.455-1.137-1.284 1.844-3.51 4.486-5.198 5.365-3.246 1.688-5.277-2.57-2.258-4.228z" stroke-width=".27168" />
      <path d="M162.747 307.693c1.316-.722 3.835-.909 5.519-.848-.953 1.363-2.603 3.316-3.853 3.967-2.404 1.25-3.902-1.89-1.666-3.119z" stroke-width=".27168" />
      <path style="marker:none" d="M162.816 307.673a2.675 2.675 0 011.403 1.228c.397.753.347 1.324.231 1.813M165.322 307.042c.341.18.729.646.852.888.133.261.221.855.197 1.14" color="#000" stroke-linecap="round" stroke-linejoin="round" overflow="visible" stroke-width=".27168" />
   </g>
   <g fill="none" stroke="#c13c1b">
      <path d="M168.238 316.466c1.485-1.38 4.724-2.452 6.952-2.925-.795 2.102-2.307 5.208-3.73 6.472-2.734 2.431-5.744-1.2-3.222-3.547z" stroke-width=".27168" />
      <path d="M168.697 316.904c1.1-1.022 3.496-1.818 5.144-2.171-.59 1.554-1.713 3.852-2.766 4.788-2.026 1.8-4.246-.88-2.378-2.617z" stroke-width=".27168" />
      <path d="M168.76 316.868a2.675 2.675 0 011.66.847c.568.634.66 1.2.667 1.702M171.035 315.644c.375.09.864.448 1.043.652.193.221.424.775.47 1.058" style="marker:none" color="#000" stroke-linecap="round" stroke-linejoin="round" overflow="visible" stroke-width=".27168" />
   </g>
   <g fill="none" stroke="#c13c1b">
      <path d="M158.547 296.86c1.945-.567 5.321-.07 7.524.508-1.653 1.521-4.4 3.618-6.238 4.108-3.535.945-4.594-3.652-1.286-4.617z" stroke-width=".27168" />
      <path d="M158.76 297.457c1.441-.419 3.94-.055 5.571.37-1.225 1.124-3.26 2.673-4.622 3.036-2.618.7-3.399-2.692-.949-3.406z" stroke-width=".27168" />
      <path style="marker:none" d="M158.832 297.453c.292.187.88.68 1.103 1.503.223.821.051 1.367-.169 1.82M161.415 297.38c.294.25.57.79.638 1.052.074.284.031.883-.054 1.156" color="#000" stroke-linecap="round" stroke-linejoin="round" overflow="visible" stroke-width=".27168" />
   </g>
   <g fill="none" stroke="#c13c1b">
      <path d="M157.2 291.523c1.969-.482 5.32.161 7.496.834-1.718 1.448-4.552 3.423-6.41 3.834-3.573.79-4.432-3.849-1.086-4.668z" stroke-width=".27168" />
      <path d="M157.388 292.13c1.458-.357 3.939.115 5.55.61-1.273 1.07-3.374 2.529-4.75 2.833-2.646.585-3.279-2.837-.8-3.444z" stroke-width=".27168" />
      <path d="M157.46 292.128c.284.2.849.718 1.036 1.549.188.83-.008 1.369-.247 1.811M160.043 292.168c.283.262.537.812.593 1.078.06.287-.008.883-.105 1.153" style="marker:none" color="#000" stroke-linecap="round" stroke-linejoin="round" overflow="visible" stroke-width=".27168" />
   </g>
   <g fill="none" stroke="#c13c1b">
      <path d="M160.22 302.172c1.883-.75 5.29-.576 7.539-.21-1.502 1.67-4.035 4.02-5.82 4.683-3.428 1.277-4.92-3.199-1.72-4.473z" stroke-width=".27168" />
      <path d="M160.49 302.747c1.394-.555 3.916-.43 5.58-.163-1.113 1.235-2.99 2.971-4.312 3.463-2.54.945-3.64-2.356-1.269-3.3z" stroke-width=".27168" />
      <path style="marker:none" d="M160.56 302.735c.31.158.94.594 1.241 1.391.3.797.182 1.357.006 1.828M163.125 302.418c.316.22.643.73.735.985.1.276.115.876.056 1.157" color="#000" stroke-linecap="round" stroke-linejoin="round" overflow="visible" stroke-width=".27168" />
   </g>
   <g fill="none" stroke="#c13c1b">
      <path d="M176.488 323.953c1.03-1.745 3.83-3.695 5.83-4.783-.162 2.241-.727 5.65-1.73 7.267-1.93 3.109-5.85.484-4.1-2.484z" stroke-width=".27168" />
      <path d="M177.053 324.243c.763-1.293 2.833-2.739 4.312-3.546-.123 1.658-.545 4.18-1.288 5.378-1.429 2.303-4.32.366-3.024-1.832z" stroke-width=".27168" />
      <path d="M177.102 324.19a2.675 2.675 0 011.833.34c.725.446.974.961 1.124 1.442M178.935 322.369c.385-.02.956.183 1.185.329.248.157.627.622.752.88" style="marker:none" color="#000" stroke-linecap="round" stroke-linejoin="round" overflow="visible" stroke-width=".27168" />
   </g>
   <g fill="none" stroke="#c13c1b">
      <path d="M172.07 320.48c1.3-1.554 4.38-3.023 6.53-3.771-.525 2.184-1.636 5.455-2.889 6.888-2.409 2.754-5.85-.473-3.641-3.117z" stroke-width=".27168" />
      <path d="M172.58 320.858c.963-1.152 3.24-2.242 4.831-2.798-.39 1.615-1.217 4.036-2.145 5.097-1.784 2.04-4.322-.341-2.686-2.3z" stroke-width=".27168" />
      <path style="marker:none" d="M172.637 320.814a2.675 2.675 0 011.753.633c.644.558.806 1.107.875 1.605M174.741 319.315c.384.043.914.336 1.117.516.219.196.517.716.599.991" color="#000" stroke-linecap="round" stroke-linejoin="round" overflow="visible" stroke-width=".27168" />
   </g>
   <g fill="none" stroke="#c13c1b">
      <path d="M181.353 326.677c.834-1.846 3.407-4.088 5.278-5.386.08 2.245-.112 5.695-.934 7.411-1.581 3.3-5.762 1.115-4.344-2.025z" stroke-width=".27168" />
      <path d="M181.946 326.904c.618-1.367 2.52-3.03 3.903-3.992.057 1.661-.09 4.214-.699 5.486-1.17 2.444-4.255.832-3.204-1.494z" stroke-width=".27168" />
      <path d="M181.989 326.847c.332-.101 1.09-.226 1.859.139.77.364 1.072.85 1.273 1.311M183.613 324.837c.381-.06.971.08 1.214.199.264.129.691.55.843.793" style="marker:none" color="#000" stroke-linecap="round" stroke-linejoin="round" overflow="visible" stroke-width=".27168" />
   </g>
   <g fill="none" stroke="#c13c1b">
      <path d="M191.856 330.341c.386-1.989 2.372-4.764 3.893-6.459.597 2.166 1.206 5.567.802 7.427-.777 3.575-5.35 2.415-4.695-.968z" stroke-width=".27168" />
      <path d="M192.486 330.425c.286-1.473 1.752-3.53 2.876-4.785.439 1.603.886 4.121.587 5.498-.576 2.649-3.949 1.792-3.463-.713z" stroke-width=".27168" />
      <path style="marker:none" d="M192.514 330.36c.3-.176 1.008-.472 1.841-.295.833.178 1.24.58 1.542.982M193.631 328.03c.357-.148.963-.148 1.227-.088.287.065.8.376 1.004.577" color="#000" stroke-linecap="round" stroke-linejoin="round" overflow="visible" stroke-width=".27168" />
   </g>
   <g fill="none" stroke="#c13c1b">
      <path d="M186.55 328.828c.579-1.942 2.826-4.51 4.505-6.048.383 2.214.656 5.658.072 7.47-1.123 3.482-5.56 1.88-4.577-1.422z" stroke-width=".27168" />
      <path d="M187.168 328.973c.429-1.439 2.09-3.341 3.33-4.482.28 1.64.48 4.189.046 5.53-.83 2.58-4.104 1.398-3.376-1.048z" stroke-width=".27168" />
      <path d="M187.203 328.91a2.675 2.675 0 011.86-.112c.812.258 1.178.698 1.44 1.128M188.542 326.7c.37-.111.973-.052 1.23.034.279.092.758.452.942.672" style="marker:none" color="#000" stroke-linecap="round" stroke-linejoin="round" overflow="visible" stroke-width=".27168" />
   </g>
   <g fill="none" stroke="#c13c1b">
      <path d="M197.185 331.328c.173-2.02 1.852-4.99 3.184-6.836.824 2.09 1.79 5.407 1.586 7.299-.392 3.638-5.062 2.97-4.77-.463z" stroke-width=".27168" />
      <path d="M197.82 331.344c.128-1.495 1.368-3.695 2.351-5.064.607 1.548 1.32 4.004 1.168 5.406-.29 2.694-3.736 2.2-3.52-.342z" stroke-width=".27168" />
      <path style="marker:none" d="M197.841 331.276c.28-.206.952-.576 1.8-.488.847.088 1.294.445 1.637.812M198.704 328.84c.34-.184.942-.249 1.211-.217.292.034.835.289 1.06.467" color="#000" stroke-linecap="round" stroke-linejoin="round" overflow="visible" stroke-width=".27168" />
   </g>
   <g fill="none" stroke="#c13c1b">
      <path d="M241.912 324.432c-1.192-1.64-1.868-4.984-2.07-7.252 1.99 1.04 4.894 2.913 5.979 4.477 2.086 3.006-1.88 5.56-3.909 2.775z" stroke-width=".27168" />
      <path d="M242.403 324.028c-.883-1.214-1.387-3.688-1.54-5.366 1.472.772 3.62 2.161 4.423 3.32 1.545 2.226-1.381 4.11-2.883 2.046z" stroke-width=".27168" />
      <path d="M242.374 323.962a2.675 2.675 0 011.04-1.547c.698-.488 1.27-.512 1.77-.458M241.431 321.556c.136-.36.549-.804.773-.957.243-.165.82-.328 1.106-.34" style="marker:none" color="#000" stroke-linecap="round" stroke-linejoin="round" overflow="visible" stroke-width=".27168" />
   </g>
   <g fill="none" stroke="#c13c1b">
      <path d="M236.828 327.05c-1.045-1.736-1.43-5.127-1.435-7.404 1.894 1.209 4.624 3.326 5.569 4.978 1.818 3.175-2.354 5.376-4.134 2.426z" stroke-width=".27168" />
      <path d="M237.352 326.69c-.775-1.286-1.062-3.795-1.07-5.48 1.4.897 3.419 2.467 4.12 3.69 1.346 2.352-1.733 3.975-3.05 1.79z" stroke-width=".27168" />
      <path style="marker:none" d="M237.329 326.622a2.675 2.675 0 011.17-1.451c.737-.426 1.31-.4 1.803-.304M236.598 324.144c.166-.348.616-.754.852-.887.257-.144.846-.256 1.132-.243" color="#000" stroke-linecap="round" stroke-linejoin="round" overflow="visible" stroke-width=".27168" />
   </g>
   <g fill="none" stroke="#c13c1b">
      <path d="M246.768 321.24c-1.425-1.44-2.596-4.645-3.138-6.857 2.125.729 5.277 2.144 6.584 3.527 2.515 2.658-1.023 5.78-3.446 3.33z" stroke-width=".27168" />
      <path d="M247.192 320.768c-1.055-1.067-1.926-3.438-2.33-5.074 1.572.542 3.904 1.593 4.872 2.617 1.862 1.969-.747 4.27-2.542 2.457z" stroke-width=".27168" />
      <path style="marker:none" d="M247.154 320.707c.024-.346.18-1.098.795-1.685.617-.588 1.178-.697 1.681-.72M245.86 318.47c.08-.377.42-.877.62-1.062.215-.2.76-.447 1.042-.503" color="#000" stroke-linecap="round" stroke-linejoin="round" overflow="visible" stroke-width=".27168" />
   </g>
   <g fill="none" stroke="#c13c1b">
      <path d="M255.123 313.171c-1.764-.997-3.765-3.76-4.89-5.741 2.243.121 5.662.623 7.297 1.597 3.144 1.871.593 5.839-2.407 4.144z" stroke-width=".27168" />
      <path d="M255.402 312.601c-1.306-.739-2.79-2.782-3.625-4.246 1.66.093 4.19.468 5.4 1.189 2.33 1.386.447 4.312-1.775 3.057z" stroke-width=".27168" />
      <path d="M255.348 312.553a2.675 2.675 0 01.306-1.839c.433-.734.943-.992 1.42-1.15M253.493 310.754c-.026-.385.166-.96.307-1.191.153-.251.61-.638.866-.768" style="marker:none" color="#000" stroke-linecap="round" stroke-linejoin="round" overflow="visible" stroke-width=".27168" />
   </g>
   <g fill="none" stroke="#c13c1b">
      <path d="M251.21 317.505c-1.599-1.244-3.175-4.27-3.998-6.394 2.202.448 5.51 1.444 6.985 2.646 2.837 2.31-.267 5.863-2.987 3.748z" stroke-width=".27168" />
      <path d="M251.57 316.982c-1.185-.922-2.354-3.16-2.966-4.73 1.629.334 4.076 1.074 5.17 1.965 2.1 1.711-.19 4.331-2.204 2.765z" stroke-width=".27168" />
      <path style="marker:none" d="M251.524 316.926a2.675 2.675 0 01.571-1.774c.535-.663 1.078-.844 1.574-.93M249.952 314.876c.03-.385.304-.925.477-1.134.188-.226.697-.542.97-.633" color="#000" stroke-linecap="round" stroke-linejoin="round" overflow="visible" stroke-width=".27168" />
   </g>
   <g fill="none" stroke="#c13c1b">
      <path d="M258.222 308.479c-1.806-.92-3.926-3.593-5.136-5.523 2.247.024 5.683.376 7.36 1.277 3.222 1.733.846 5.808-2.224 4.246z" stroke-width=".27168" />
      <path d="M258.476 307.897c-1.338-.681-2.91-2.658-3.807-4.084 1.662.02 4.206.285 5.447.952 2.387 1.283.634 4.29-1.64 3.132z" stroke-width=".27168" />
      <path d="M258.42 307.851a2.675 2.675 0 01.225-1.85c.4-.752.9-1.032 1.37-1.212M256.488 306.135c-.043-.383.124-.966.255-1.203.141-.258.582-.665.831-.806" style="marker:none" color="#000" stroke-linecap="round" stroke-linejoin="round" overflow="visible" stroke-width=".27168" />
   </g>
   <g fill="none" stroke="#c13c1b">
      <path d="M262.819 298.497c-1.94-.589-4.495-2.85-6.024-4.537 2.216-.37 5.661-.626 7.47-.032 3.476 1.14 1.85 5.57-1.446 4.57z" stroke-width=".27168" />
      <path d="M262.967 297.88c-1.436-.436-3.33-2.107-4.464-3.354 1.64-.271 4.191-.457 5.53-.017 2.575.845 1.376 4.112-1.066 3.37z" stroke-width=".27168" />
      <path style="marker:none" d="M262.904 297.845a2.675 2.675 0 01-.102-1.862c.262-.81.704-1.173 1.135-1.432M260.702 296.493c-.11-.37-.048-.972.04-1.229.093-.278.456-.756.677-.939" color="#000" stroke-linecap="round" stroke-linejoin="round" overflow="visible" stroke-width=".27168" />
   </g>
   <g fill="none" stroke="#c13c1b">
      <path d="M260.9 303.54c-1.885-.741-4.252-3.2-5.641-5.004 2.238-.192 5.693-.17 7.448.565 3.374 1.416 1.4 5.7-1.806 4.44z" stroke-width=".27168" />
      <path d="M261.097 302.937c-1.396-.55-3.15-2.366-4.18-3.7 1.656-.139 4.213-.12 5.513.425 2.499 1.049 1.042 4.209-1.333 3.275z" stroke-width=".27168" />
      <path d="M261.038 302.897a2.675 2.675 0 01.047-1.863c.326-.787.795-1.114 1.246-1.338M258.95 301.374c-.08-.377.03-.973.138-1.222.116-.27.516-.717.75-.882" style="marker:none" color="#000" stroke-linecap="round" stroke-linejoin="round" overflow="visible" stroke-width=".27168" />
   </g>
   <g fill="none" stroke="#c13c1b">
      <path d="M264.552 293.248c-1.99-.377-4.774-2.35-6.476-3.864 2.163-.606 5.56-1.23 7.422-.835 3.58.76 2.44 5.339-.946 4.699z" stroke-width=".27168" />
      <path d="M264.633 292.618c-1.474-.28-3.537-1.737-4.798-2.854 1.601-.446 4.117-.905 5.496-.612 2.65.563 1.81 3.94-.698 3.466z" stroke-width=".27168" />
      <path style="marker:none" d="M264.567 292.59a2.675 2.675 0 01-.302-1.84c.173-.834.574-1.242.975-1.546M262.232 291.483c-.149-.356-.152-.962-.093-1.226.064-.287.373-.801.573-1.006" color="#000" stroke-linecap="round" stroke-linejoin="round" overflow="visible" stroke-width=".27168" />
   </g>
   <path d="M280.803 624.106l-1.202.32.74 12.023c.093 17.745.563 36.572 4.168 49.572l5.23-8.442 10.056 8.597c-3.039-31.149-9.332-22.25-18.992-62.07z" fill="#04a" fill-rule="evenodd" stroke="#000" stroke-width=".432" />
   <path d="M285.865 693.429l5.852-8.287 7.865 6.627" fill="none" stroke="#c13c1b" stroke-width=".432" stroke-linecap="round" stroke-linejoin="round" />
   <path d="M286.832 700.624l5.723-8.032 7.637 6.376M287.908 708.164l5.476-7.764 7.417 6.203M289.01 716.203l5.412-7.637 7.149 5.956M289.978 723.617l5.264-7.54 7.105 5.922M291.059 731.414l5.022-7.232 6.894 5.827M292.249 739.085l4.888-7.017 6.719 5.69M293.246 746.416l4.72-6.758 6.455 5.482M294.165 753.32l4.621-6.588 6.235 5.31M294.882 760.653l4.803-6.419 6.04 5.014M295.77 767.918l4.893-6.225 5.835 4.959M296.713 775.314l4.57-5.734 6.158 4.535M297.735 782.586l4.596-5.635 5.744 4.135M300.37 801.46l4.43-5.172 5.417 3.503M299.495 795.61l4.364-5.557 5.668 3.903M298.71 788.978l4.44-5.17 5.554 3.733M301.254 808.025l4.472-5.273 5.312 3.973M302.13 814.189l4.198-5.018 5.495 3.503M303.645 826.417l4.43-5.018 5.727 3.504M303.002 820.203l4.155-4.753 5.619 3.596M303.979 828.666l10.15-1.533" fill="none" stroke="#c13c1b" stroke-width=".432" stroke-linecap="round" stroke-linejoin="round" />
   <g fill-rule="evenodd" stroke="#000" stroke-linecap="round" stroke-linejoin="round">
      <path d="M295.586 619.628c2.696-.88 4.905-.544 7.032 0l-1.24-33.732 16.063 1.072c-.491-2.416-.658-4.831 0-7.247l-16.063 1.126h0c3.364-6.013 8.081-11.345 9.778-20.139 3.428-17.771-5.634-17.025-11.92-17.081-6.844-.062-16.947 1.008-12.744 17.839 1.933 7.741 6.647 13.83 10.45 19.381h0l-18.053-1.126c.606 2.416.548 4.831 0 7.247l18.052-1.072h0l-1.355 33.732z" fill="#025" stroke-width=".21417" />
      <path d="M296.941 575.88c-3.469-4.71-6.798-9.312-7.636-15.388-1.695-12.282 4.682-13.654 9.841-13.685 4.587-.027 11.367.623 8.332 13.577-1.424 6.078-3.639 11.545-6.1 15.496-1.541 2.087-3.196 1.745-4.437 0z" fill="#fff" stroke-width=".21417" />
   </g>
   <path d="M311 523.368l-19.85-.54c-.994 4.965-3.447 10.222-5.842 15.468-3.166 5.026-3.372 11.44-2.488 17.525l-.324 5.733c8.915 1.067.301-10.832 5.95-15.253l.865 8.221c1.616 1.54 3.21 2.757 4.543.325 1.586 1.777 3.173 1.649 4.76-.325 1.94 2.509 3.523.743 5.192 0 1.778 1.392 3.661 1.886 4.868-1.298.35-8.683 2.948-17.116 2.326-29.856z" fill="#a13c2a" fill-rule="evenodd" stroke="#000" stroke-width=".432" stroke-linecap="round" stroke-linejoin="round" />
   <g fill-rule="evenodd" stroke="#000" stroke-linecap="round" stroke-linejoin="round">
      <path d="M290.98 511.632l20.823.162-.866 13.143-19.85-.757-.108-12.548z" fill="#fac53a" stroke-width=".21417" />
      <path d="M290.98 513.525l20.66.27-.212 4.06-20.395-.32-.054-4.01z" fill="#04a" stroke-width=".21417" />
      <path d="M290.76 511.577l20.879.217-.592 13.089-20.233-.703-.053-12.603z" fill="#fac53a" stroke-width=".21417" />
      <path d="M290.786 513.525l20.855.27-.252 4.06-20.549-.32-.054-4.01zM290.825 518.764l20.491.31-.212 4.06-20.225-.36-.054-4.01z" fill="#04a" stroke-width=".21417" />
   </g>
   <path d="M79.495 499.513c-10.26 1.609-22.705 5.432-31.006 18.986l-5.114 3.167c2.705 5.952 8.038 2.536 9.736-.572-1.007 2.748-.476 4.504 2.77 4.51-.687 2.563.217 4.048 3.228 4.104-1.604 2.526.297 4.752 3.075 4.24-.977 3.233.756 4.605 2.473 4.637 4.58 1.97 25.028-23.414 27.065-25.628" fill="#a13c2a" fill-rule="evenodd" stroke="#000" stroke-width=".432" stroke-linecap="round" stroke-linejoin="round" />
   <path d="M53.096 307.79c.717-7.124-.404-13.378 2.521-22.04 3.57-10.569 7.136-12.401 11.293-17.955 1.575-1.287 4.167.058 3.317 2.504-4.822 4.491-8.263 10.623-9.669 14.123 1.447-.164 8.412-.698 8.568 6.519l-.024 492.833c7.755 8.899 1.09 15.739 1.506 23.47-.793.383-1.422.138-1.502-.536-1.038-8.46 1.847-12.15-.052-16.55-.908-2.103-2.607-2.005-3.598-.214-2.133 3.858.856 6.23.076 16.682-.057.761-.989.98-1.369.524-.485-7.767-5.855-14.315 1.253-23.384l-.009-492.236c-.4-4.026-4.756-4.458-6.92.092-2.536 5.334-1.461 10.863-2.14 16.293-1.127 3.497-3.442 2.15-3.25-.126z" fill="#025" fill-rule="evenodd" stroke="#000" stroke-width=".214" stroke-linecap="round" stroke-linejoin="round" />
   <g fill-rule="evenodd" stroke="#000" stroke-linecap="round" stroke-linejoin="round">
      <path d="M79.862 486.34l21.398 12.625-9.246 13.955-17.57-12.765 5.418-13.815z" fill="#fac53a" stroke-width=".28617" />
      <path d="M79.174 488.08l20.882 13.028-2.71 3.973-19.673-13.04 1.501-3.96zM76.84 494.182l18.928 13.078-2.929 4.355-17.718-13.09 1.72-4.343z" fill="#04a" stroke-width=".28617" />
   </g>
   <path d="M66.029 510.324c3.666-2.82 8.043-2.395 4.592 1.786 2.973-2.832 9.083-2.347 3.017 3.458 5.533-3.329 5.841 1.141 3.005 3.662 3.732-2.292 4.733 1.308.93 4.97-3.792 4.72-8.236 9.547-12.523 14.238-.08.084-.187.137-.356.12-1.717-.032-3.424-1.24-2.446-4.473-2.779.512-4.68-1.714-3.076-4.24-3.011-.056-3.915-1.54-3.228-4.104-3.246-.005-4.095-1.275-3.088-4.023.133-.23.263-.407.391-.541 4.58-4.955 8.792-8.515 12.665-10.784m.833-.51c-.292 1.228.936 2.9 3.009 2.933m.84-.531c-.83 1.442 1.604 3.408 2.925 3.33m.34-.198c-1.223 1.513.571 4.713 3.195 3.37m-.457.507c-.707 1.605.586 3.26 2.027 3.608m-19.438 6.94c.534-.377 14.484-14.255 14.484-14.255M56.08 525.66c.763-.773 14.598-13.572 14.598-13.572m-8.365 21.97l14.433-14.907" fill="#a13c2a" fill-rule="evenodd" stroke="#000" stroke-width=".432" stroke-linecap="round" stroke-linejoin="round" />
   <path d="M70.595 512.285c-.243.168-.283.502-.841.531-2.527.005-3.126-2.491-3.03-2.938 3.465-2.255 7.165-1.603 3.937 2.306 2.974-2.83 9.043-2.42 2.977 3.383 5.533-3.328 5.911 1.029 3.075 3.549 3.317-2.036 4.407.694 1.932 3.829-1.462-.39-2.755-2.046-1.911-3.81-2.487 1.183-4.098-2.205-3.045-3.619-1.491.177-3.926-1.79-3.094-3.231z" fill="#fff" fill-rule="evenodd" stroke="#000" stroke-width=".432" stroke-linecap="round" stroke-linejoin="round" />
   <path d="M71.462 508.872c-2.427-.893-5.609.893-12.635 6.77l-1.296-7.426c7.361-5.004 10.655-6.424 17.04-7.775" fill="#a13c2a" fill-rule="evenodd" />
   <path d="M58.827 515.642c7.026-5.877 10.31-7.673 12.736-6.78m2.94-8.378c-6.385 1.351-9.749 2.626-17.09 7.846" fill="none" stroke="#000" stroke-width=".432" />
   <g fill-rule="evenodd" stroke="#000" stroke-linecap="round" stroke-linejoin="round">
      <path d="M-2298.264 185.199l129.779 8.359-8.488 77.742-132.395-13.063 11.104-73.038z" fill="#fac53a" transform="matrix(.26144 -.00426 .00494 .22537 718.681 293.53)" />
      <path d="M-2299.299 193.609l129.66 10.549-2.604 22.255-130.567-9.952 3.511-22.852zM-2304.076 224.65L-2173.32 236l-2.746 24.159-131.762-10.989 3.753-24.52z" fill="#04a" transform="matrix(.26144 -.00426 .00494 .22537 718.681 293.53)" />
   </g>
   <g fill-rule="evenodd" stroke="#000" stroke-linecap="round" stroke-linejoin="round">
      <path d="M-2301.611 184.81l110.51 7.598-12.757 77.185-100.902-10.518 3.149-74.266z" fill="#fac53a" transform="matrix(.25786 .0433 -.03608 .22252 734.734 827.47)" />
      <path d="M-2302.218 193.931l109.506 8.31-3.595 21.223-106.536-7.241.625-22.292zM-2303.251 224.49l104.788 11.037-4.15 23.206-101.819-9.488 1.18-24.755z" fill="#04a" transform="matrix(.25786 .0433 -.03608 .22252 734.734 827.47)" />
   </g>
   <g fill-rule="evenodd" stroke="#000" stroke-linecap="round" stroke-linejoin="round">
      <path d="M-2305.348 184.73l117.692 7.561-12.03 77.508-107.182-11.397 1.52-73.671z" fill="#fac53a" transform="matrix(.26105 -.01487 .01408 .22499 847.472 699.129)" />
      <path d="M-2305.446 193.202l116.011 9.648-3.645 22.187-112.856-8.782.49-23.053zM-2306.264 224.506l112.106 10.117-3.892 24.083-108.633-9.46.42-24.74z" fill="#04a" transform="matrix(.26105 -.01487 .01408 .22499 847.472 699.129)" />
   </g>
   <path d="M274.578 634.384c-90.46-15.205-106.955-83.4-100.208-171.31l82.405-14.567c7.818 13 12.425 30.564 6.55 40.069 7.66 48.434 12.312 97.665 11.253 145.808z" fill="#fac53a" fill-rule="evenodd" stroke="#000" stroke-width=".216" />
   <g>
      <path d="M256.511 448.362l-6.27-29.79-75.806 36.691-.231 7.611 82.307-14.512z" fill="#fac53a" fill-rule="evenodd" stroke="#000" stroke-linecap="round" stroke-linejoin="round" stroke-width=".21617" />
      <path d="M223.824 437.268l6.635-2.76 1.657 4.098-6.731 2.396-1.56-3.734z" fill="#04a" fill-rule="evenodd" stroke="#04a" stroke-width=".24989251999999998" />
      <path d="M233.11 433.407l6.035-2.533 1.939 4.725-6.181 2.108-1.792-4.3z" fill="#c13c1b" fill-rule="evenodd" stroke="#c13c1b" stroke-width=".24989251999999998" />
      <path d="M241.845 429.932l6.879-2.9 2.081 5.018-7.132 2.488-1.828-4.606z" fill="#04a" fill-rule="evenodd" stroke="#04a" stroke-width=".24989251999999998" />
      <path d="M250.239 418.463l.738 3.653-73.132 32.072-3.25.909 75.644-36.634z" fill="#fff" fill-rule="evenodd" stroke="#000" stroke-linecap="round" stroke-linejoin="round" stroke-width=".21617" />
      <path d="M187.102 452.208l6.053-2.42.858 2.324-6.116 2.251-.795-2.155z" fill="#04a" fill-rule="evenodd" stroke="#04a" stroke-width=".24989251999999998" />
      <path d="M196.158 448.608l6.42-2.696.993 2.742-6.47 2.318-.943-2.364z" fill="#c13c1b" fill-rule="evenodd" stroke="#c13c1b" stroke-width=".24989251999999998" />
      <path d="M205.208 444.972l6.517-2.809 1.372 3.232-6.835 2.363-1.054-2.786z" fill="#04a" fill-rule="evenodd" stroke="#04a" stroke-width=".24989251999999998" />
      <path d="M214.59 440.89l6.689-2.761 1.633 3.865-6.844 2.432-1.478-3.536z" fill="#308d57" fill-rule="evenodd" />
      <path d="M252.86 431.545l-66.937 23.581M251.653 425.701l-67.791 27.733M240.9 430.255l1.925 4.594M240.02 430.492l1.91 4.724M250.483 426.252l2.101 5.248M249.61 426.618l2.146 5.201M232.243 433.831l1.892 4.165M231.306 434.167l1.852 4.178M223.032 437.567l1.52 3.68M222.126 437.802l1.651 3.853M213.446 441.402l1.509 3.272M212.613 441.779l1.452 3.289M204.354 445.283l1.015 2.754M203.425 445.666l1.095 2.744M195.314 448.962l.79 2.435M194.3 449.32l.873 2.476M186.283 452.555l.787 2.052M185.482 452.79l.865 2.102" fill="none" stroke="#000" stroke-width=".24989251999999998" stroke-linecap="round" stroke-linejoin="round" />
      <path d="M244.253 440.502l7.162-2.107 1.504 5.22-7.367 1.669-1.299-4.782z" fill="#04a" fill-rule="evenodd" stroke="#04a" stroke-width=".24989251999999998" />
      <path d="M235.184 442.972l6.28-1.837 1.474 4.857-6.457 1.455-1.297-4.475z" fill="#c13c1b" fill-rule="evenodd" stroke="#c13c1b" stroke-width=".24989251999999998" />
      <path d="M225.522 445.764l6.902-1.995 1.187 4.258-6.959 1.623-1.13-3.886z" fill="#04a" fill-rule="evenodd" stroke="#04a" stroke-width=".24989251999999998" />
      <path d="M215.94 448.324l6.956-1.991 1.187 4.024-7.074 1.647-1.07-3.68z" fill="#308d57" fill-rule="evenodd" />
      <path d="M206.157 451.325l6.792-2.058 1 3.366-7.142 1.648-.65-2.956z" fill="#04a" fill-rule="evenodd" stroke="#04a" stroke-width=".24989251999999998" />
      <path d="M196.762 453.856l6.676-1.893.678 2.836-6.689 1.576-.665-2.519z" fill="#c13c1b" fill-rule="evenodd" stroke="#c13c1b" stroke-width=".24989251999999998" />
      <path d="M187.748 456.473l5.999-1.631.644 2.256-6.072 1.453-.571-2.078z" fill="#04a" fill-rule="evenodd" stroke="#04a" stroke-width=".24989251999999998" />
      <path d="M255.339 443.198l-69.486 16.047M254.115 437.545l-69.923 19.747M243.278 440.716l1.396 4.782M242.377 440.853l1.366 4.909M253.247 437.805l1.501 5.463M252.342 438.082l1.547 5.41M234.274 443.296l1.411 4.351M233.305 443.525l1.37 4.359M224.7 445.972l1.098 3.829M223.774 446.103l1.207 4.015M214.744 448.704l1.131 3.42M213.874 448.985l1.073 3.431M205.273 451.538l.699 2.85M204.307 451.814l.78 2.85M195.8 454.178l.663 2.428M194.828 454.419l.706 2.594M187.111 456.573l.596 2.204M186.465 456.755l.485 2.113" fill="none" stroke="#000" stroke-width=".24989251999999998" stroke-linecap="round" stroke-linejoin="round" />
      <path d="M186.67 455.506l66.636-22.16M186.84 455.997l66.887-20.475M185.994 459.81l69.612-15.23M184.96 460.553l71.203-13.826M180.497 453.571l70.672-30.349M182.304 453.47l69.147-28.99" fill="none" stroke="#000" stroke-width=".21617" />
      <path d="M174.168 462.914c7.907-1.79 13.709-.977 12.6-6.883-.808-4.309-8.228-2.253-12.328-.93l-.272 7.813z" fill="#fac53a" fill-rule="evenodd" stroke="#000" stroke-linecap="round" stroke-linejoin="round" stroke-width=".21617" />
   </g>
   <g>
      <path d="M157.537 634.212l16.979-170.265 88.627-.107c1.156 4.703 5.287 13.354.316 25.97 7.616 48.325 12.236 97.132 11.18 145.164l-117.102-.762z" fill="#fff" fill-rule="evenodd" stroke="#000" stroke-width=".43234" />
      <path d="M274.381 634.574c-90.452-15.254-106.91-83.457-100.116-171.364l82.412-14.523c7.81 13.004 12.545 31.472 6.665 40.973 7.634 48.439 12.124 96.77 11.04 144.914z" fill="#fac53a" fill-rule="evenodd" stroke="#000" stroke-width=".21617" />
      <path d="M256.494 448.764l-66.818 130.9M252.504 449.448l-64.67 126.693M186.128 572.352l62.394-122.234M244.508 450.849l-60.042 117.627M182.934 564.345L240.5 451.57M236.499 452.276l-55.035 107.816M180.1 555.633l52.41-102.674M228.534 453.616l-49.686 97.339M177.69 546.092l46.818-91.72M220.5 455.092l-43.821 85.848M175.72 535.685l40.766-79.862M212.51 456.48l-37.57 73.6M174.26 524.282l34.241-67.08M204.506 457.896l-30.788 60.317M173.305 511.89l27.194-53.275M196.51 459.297l-23.467 45.974M172.916 498.388l19.604-38.407M188.495 460.736l-15.55 30.463M173.123 483.718l11.395-22.324M180.491 462.152l-7.114 13.936M173.917 467.9l2.586-5.066M258.517 451.932l-66.94 131.141M193.563 586.315l66.719-130.708M261.924 459.522l-66.332 129.95M197.71 592.455l65.69-128.691M264.664 468.418l-64.75 126.85M202.166 597.988L265.64 473.64M265.947 480.168l-61.434 120.354M206.885 603.007l56.86-111.394M264.563 497.144l-55.226 108.19M211.784 607.674l53.56-104.93M266.17 508.258l-51.828 101.537M216.969 611.78l49.949-97.854M267.709 519.509l-48.083 94.197M222.353 615.496l46.006-90.13M269.088 531.07l-43.996 86.192M227.9 618.894l41.883-82.053M270.328 542.905l-39.61 77.6M233.613 621.964l37.444-73.356M271.532 554.81l-34.989 68.545M239.544 624.608l32.568-63.803M272.506 567.166l-29.975 58.722M245.55 627.107l27.424-53.727M273.423 579.633l-24.754 48.496M251.724 629.275l22.016-43.13M274.022 592.724l-19.11 37.44M258.123 631.003l16.198-31.734M274.49 606.073l-13.163 25.784M264.558 632.66l9.994-19.578M274.65 620.023l-6.787 13.295M271.18 633.95l3.356-6.574" fill="none" stroke="#c13c1b" stroke-width=".43234" />
      <path d="M274.347 634.574c-90.453-15.254-106.91-83.457-100.116-171.364l82.412-14.523c7.81 13.004 12.545 31.472 6.664 40.973 7.634 48.439 12.124 96.77 11.04 144.914z" fill="none" stroke="#000" stroke-width=".43234" />
   </g>
   <path d="M177.579 446.503a.813 2.047-.507 11-1.627 0 .813 2.047-.507 111.627 0z" style="marker:none" color="#000" fill-opacity=".706" fill-rule="evenodd" overflow="visible" />
   <path d="M222.712 219.891l2.956 40.868 7.502 20.424c-1.157 9.622-5.588 17.79-20.477 19.402-13.585 1.47-21.3-2.354-25.133-15.783-.836-2.93-3.03-8.702-4.522-11.09-4.734 1.424-26.263-3.905-25.34-8.748.357-.902.715-2.724 1.073-4.767-.035-2.079-.804-2.819-2.16-3.024-.776.196-1.789-3.744.439-4.169-2.2.056-2.106-2.603-1.69-3.658.43-1.107.65-2.474.364-3.343-4.478-.21-7.826-3.17-5.558-7.908 2.173-4.54 8.25-12.699 11.55-18.12-.112-2.097.915-7.423 2.533-10.506 6.545-.73 40.786-2.042 35.78 12.914l22.683-2.492z" fill="#a13c2a" fill-rule="evenodd" stroke="#000" stroke-width=".363" />
   <path d="M199.874 225.146c-1.186 32.283-10.737 49.589-39.88 43.434" fill="none" stroke="#000" stroke-width="1.451" />
   <path d="M196.33 221.954c-2.493-.627-4.886-1.454-7.031-2.776-4.04-2.483-7.043-5.815-12.707-6.97-4.542-.846-8.585-.442-11.242.707-2.695 1.166-1.499 3.341.617 2.53 2.115-.812 5.939-1.519 9.577-.77 3.638.75 9.227 5.046 12.706 6.97 3.479 1.925 5.37 2.322 7.895 2.838.412-.93.431-1.763.185-2.53zM196.515 226.025c-6.61-.798-8.376-.852-13.878-2.96-7.324-2.548-15.67-5.854-19.43.554-1.648 2.61-2.93 3.564 1.05 3.27 10.261 2.382 12.585.045 17.208-.926 3.443.594 9.034 1.85 14.557 3.084.464-.933.686-1.926.493-3.022z" fill-rule="evenodd" stroke="#000" stroke-width=".086" />
   <path d="M176.182 221.884c-3.68-1.543-7.202-2.364-10.075-.218.238 2.003.917 3.632 2.66 4.361 2.084.474 5.644.284 6.935-.872 1.291-1.156 1.64-2.696.48-3.271z" fill="none" stroke="#000" stroke-width=".086" />
   <path d="M180.204 224.53c-1.616-.453-2.506-1.051-3.577-1.613.16 1.129-.35 1.812-.872 2.486.581.218 3.693-.655 4.449-.872zM166.146 222.535c-1.217 1.381-1.614 1.95-1.827 3.318 1.686-.189 3.088.501 4.405.174-1.714-1.104-2.363-1.927-2.578-3.492z" fill="#fff" fill-rule="evenodd" stroke="#000" stroke-width=".086" />
   <path d="M166.837 255.293c-3.63-1.58-7.296.601-10.642 1.264m-.829-7.196c4.25-1.79 7.563 2.5 10.599 2.006M158.998 239.679c4.425 3.586 2.047 5.805-.044 5.713-2.07-.092-5.057-3.608-5.8-1.635-.752 1.991 3.353 1.282 3.292.72M166.54 253.2c-.306-.088-9.553-.088-9.553-.088" fill="none" stroke="#000" stroke-width=".086" />
   <path d="M169.89 272.254c-4.705-.642-10.242-3.965-11.916-5.836-4.682 19.842-3.162 45.552-25.729 42.241-.472-.057-.912-.08-1.28.115-3.315 2.83-1.96 9.381 9.895 7.482 20.62-3.305 24.245-32.155 29.03-44.002z" fill-rule="evenodd" stroke="#000" stroke-width=".254" />
   <path d="M156.712 244.525c-1.575-.93-3.1-2.1-3.603-.768-.752 1.991 3.354 1.282 3.293.72" fill-opacity=".706" fill-rule="evenodd" stroke="#000" stroke-width=".086" />
   <path d="M205.937 230.054c-6.292 2.95-6.476 7.402-4.366 10.696 1.244 2.491 4.047 1.934 4.855.686.85-1.314 1.649-3.05 2.779-4.76 9.785-12.535 8.424-15.942 8.455-16.39.055-.787-1.921-6.303-5.366-6.008-3.536.304-12.168 4.945-4.638 13.5" fill="#a13c2a" fill-rule="evenodd" />
   <path d="M205.873 230.054c-6.29 2.95-6.476 7.402-4.366 10.696 1.244 2.491 4.048 1.934 4.856.686.85-1.314 1.649-3.05 2.779-4.76 9.785-12.535 8.424-15.942 8.455-16.39.055-.787-1.922-6.303-5.366-6.008-3.536.304-12.168 4.945-4.639 13.5 1.638 1.834-.117 3.492-1.884 5.811m2.015-11.38c5.081 1.213 3.94 6.003-.733 12.824-3.42 1.955-4.344 2.968-4.078 2.286.275-.706.085-1.796 2.883-3.73" fill="none" stroke="#000" stroke-width=".725" />
   <path d="M312.245 333.268c-.066 4.546-.32 9.092-.063 13.637" fill="none" stroke="#000" stroke-width=".5" />
   <g stroke="#000">
      <path d="M253.65 189.827c.282-.19.381-.364.408-.534 1.957-8.186 7.393-7.36 8.824-6.015 3.797 3.96-.37 7.347-5.029 10.453 0 0 25.758 60.984 32.966 81.815.114.327-.072.958-.483.985-3.433.22-12.628 1.239-16.083 1.249-.362.001-.686-.005-.768-.383-4.419-20.3-17.789-81.067-17.789-81.067l-1.571-3.66-.475-2.843z" fill-rule="evenodd" fill="#fac53a" stroke-width=".22737494000000003" />
      <g transform="matrix(.43092 -.03286 .03286 .43092 189.032 -111.161)">
         <path d="M129.311 660.685s54.825-244.4 64.262-320.196c5.092-40.901-42.34-48.985-56.316 14.142L71.48 651.72l57.831 8.964z" fill="#fac53a" fill-rule="evenodd" />
         <path d="M75.79 632.703c9.057 2.365 18.568 8.425 22.915 13.677M74.424 639.834c9.057 2.365 18.434 8.113 22.781 13.365M79.191 618.82c9.057 2.366 18.346 7.846 22.693 13.098M77.67 625.357c9.057 2.365 18.404 8.09 22.75 13.342M82.319 603.832c9.057 2.365 18.479 8.38 22.826 13.632M80.863 610.784c9.058 2.365 18.435 8.247 22.782 13.499M85.63 589.905c9.058 2.365 18.346 7.845 22.693 13.097M84.131 596.679c9.057 2.365 18.256 7.979 22.603 13.23M88.572 575.135c9.057 2.365 18.881 8.693 23.228 13.945M87.25 582.266c9.058 2.365 18.704 8.38 23.05 13.633M91.75 561.298c9.058 2.365 18.882 8.068 23.229 13.32M90.385 568.16c9.057 2.366 18.658 8.114 23.005 13.366M94.527 546.647c9.057 2.365 18.987 8.14 23.334 13.391M92.982 553.645c9.057 2.364 18.843 8.023 23.19 13.275M97.526 532.542c9.058 2.365 19.04 8.035 23.388 13.287M96.7 539.016c9.057 2.365 18.782 8.342 23.13 13.594M101.454 517.693c9.057 2.365 18.167 8.202 22.514 13.454M99.91 524.69c9.056 2.365 18.21 8.024 22.558 13.276M104.454 503.588c9.057 2.365 18.345 7.845 22.692 13.097M102.869 510.377c9.057 2.365 18.593 8.216 22.94 13.468M107.893 488.778c9.058 2.365 18.167 8.202 22.514 13.454M106.349 495.775c9.057 2.365 18.212 8.023 22.559 13.275M110.893 474.672c9.058 2.365 18.346 7.845 22.693 13.097M109.372 481.588c9.057 2.365 18.593 7.837 22.94 13.09M113.98 460.078c9.058 2.365 18.736 8.518 23.083 13.77M112.626 467.264c9.057 2.365 18.59 8.15 22.937 13.402M117.044 445.91c9.057 2.364 18.85 8.223 23.197 13.475M115.838 453.204c9.057 2.365 18.404 8.027 22.751 13.278M120.357 431.288c9.058 2.365 18.799 8.392 23.146 13.644M119.128 438.286c9.058 2.364 18.528 8.213 22.875 13.464M123.42 417.31c9.057 2.364 18.914 7.908 23.261 13.16M121.899 424.162c9.057 2.365 18.467 8.28 22.814 13.531M125.442 410.036c9.057 2.365 18.167 8.202 22.514 13.454M128.442 395.931c9.057 2.365 18.345 7.845 22.692 13.097M126.73 402.847c9.058 2.365 18.468 8.153 22.815 13.405M131.435 380.942c9.057 2.365 18.672 8.581 23.02 13.833M129.98 388.028c9.057 2.365 18.716 8.34 23.064 13.592M134.167 366.837c9.057 2.365 19.04 8.476 23.387 13.728M132.792 373.805c9.057 2.365 19.035 8.405 23.382 13.657M136.116 358.584c9.057 2.364 19.04 8.476 23.387 13.728M139.862 344.363c9.058 2.365 18.781 8.585 23.128 13.837M138.17 351.149c9.057 2.365 18.431 9.132 22.778 14.384M142.505 337.69c7.726 1.498 16.731 9.97 21.97 15.025M146.576 328.968c6.874 2.697 16.302 11.488 20.299 17.686M152.637 320.255c7.238 5.508 11.535 14.335 15.888 21.749M161.32 312.688c2.65 6.187 7.07 28.79 7.07 28.79M169.527 309.405c1.35 6.874.044 21.304-.632 32.072M177.482 309.405l-8.208 32.451M187.204 314.834c-6.386 5.957-12.438 17.355-17.93 26.517M191.245 321.78c-7.395 4.09-15.347 13.35-22.413 20.518M193.391 331.628c-6.441.543-19.914 11.142-25.253 14.269M192.274 348.641c-3.387-1.533-18.293 2.245-24.805 5.706M193.326 342.127c-8.797.364-16.35 2.473-24.891 7.284M133.362 644.359c-9.228-1.576-20.77.028-26.894 3.023M131.67 651.42c-9.228-1.577-20.141-.202-26.265 2.793M135.98 630.308c-9.227-1.576-20.2-.282-26.325 2.713M134.674 636.89c-9.227-1.575-20.355-.208-26.48 2.787M139.305 615.361c-9.227-1.576-20.544.151-26.668 3.146M137.767 622.296c-9.227-1.576-20.195-.079-26.32 2.916M142.023 601.307c-9.227-1.576-20.264-.345-26.388 2.65M140.6 608.097c-9.228-1.576-20.238-.186-26.363 2.809M145.427 586.636c-9.227-1.576-20.786.144-26.91 3.14M143.694 593.679c-9.228-1.576-20.495-.068-26.62 2.927M148.23 572.718c-9.227-1.576-20.528-.425-26.652 2.57M146.648 579.535c-9.227-1.576-20.343-.293-26.468 2.702M151.736 558.225c-9.227-1.576-20.655-.405-26.78 2.59M150.261 565.237c-9.227-1.576-20.98-.45-27.105 2.545M154.813 544.136c-9.228-1.575-21.165-.521-27.29 2.474M152.9 550.376c-9.228-1.576-20.552-.135-26.677 2.86M157.666 528.988c-9.227-1.576-20.69-.136-26.815 2.86M156.191 536c-9.227-1.576-20.91-.064-27.034 2.931M160.427 514.9c-9.227-1.577-20.516-.409-26.64 2.586M159.075 521.739c-9.228-1.576-20.77.017-26.894 3.012M163.709 499.987c-9.227-1.576-20.817-.01-26.941 2.986M162.297 507.125c-9.227-1.576-20.973-.316-27.097 2.679M166.47 485.898c-9.227-1.576-20.517-.408-26.641 2.587M165.008 492.826c-9.227-1.575-20.578-.387-26.703 2.608M169.669 471.327c-9.228-1.575-20.581.045-26.705 3.04M167.943 478.434c-9.227-1.576-20.297-.231-26.421 2.764M172.714 457.155c-9.228-1.576-20.565-.27-26.69 2.724M170.808 464.299c-9.227-1.576-20.077-.267-26.201 2.728M175.717 442.467c-9.227-1.575-20.586-.096-26.71 2.899M173.954 449.35c-9.227-1.576-20.265-.148-26.39 2.847M178.684 428.468c-9.227-1.576-20.492-.585-26.617 2.41M177.248 435.339c-9.227-1.576-20.743-.063-26.868 2.932M179.838 421.008c-9.227-1.576-19.933-.01-26.057 2.985M182.915 406.919c-9.228-1.576-20.264-.408-26.389 2.587M181.625 413.925c-9.227-1.576-20.628.012-26.752 3.007M185.539 391.897c-9.069-1.344-19.908.347-25.851 3.254M184.194 398.99c-9.116-1.42-20.042.045-26.04 2.979M187.783 377.771c-8.871-1.094-19.356.362-25.067 3.154M186.524 384.732c-8.942-1.185-19.603.216-25.391 3.046M189.305 369.435c-8.85-1.07-19.276.385-24.965 3.167M191.622 354.922c-8.797-1.014-18.86 1.626-24.52 4.395M190.516 361.829c-8.818-.971-19.008 1.217-24.7 4" fill="none" />
         <path d="M104.625 656.392s43.89-209.69 60.546-288.272c1.93-9.107 4.538-25.777 3.534-26.342-1.046-.589-5.374 14.428-7.827 25.142-17.997 78.621-63.892 288.399-63.892 288.399" fill="#fac53a" fill-rule="evenodd" />
         <g>
            <path d="M-44.275 633.643s54.826-244.401 64.262-320.197c5.092-40.901-42.34-48.985-56.316 14.142l-65.777 297.09 57.831 8.965z" fill="#fac53a" fill-rule="evenodd" />
            <path d="M-97.796 605.66c9.057 2.365 18.569 8.426 22.916 13.677M-99.162 612.791c9.057 2.365 18.435 8.113 22.782 13.365M-94.395 591.778c9.058 2.365 18.346 7.845 22.693 13.097M-95.916 598.315c9.057 2.365 18.404 8.09 22.751 13.342M-91.267 576.79c9.057 2.364 18.48 8.38 22.826 13.632M-92.722 583.742c9.057 2.365 18.434 8.246 22.781 13.498M-87.955 562.863c9.057 2.364 18.346 7.845 22.693 13.097M-89.455 569.636c9.057 2.365 18.256 7.98 22.604 13.231M-85.014 548.092c9.058 2.365 18.882 8.694 23.229 13.946M-86.335 555.224c9.057 2.364 18.703 8.38 23.05 13.632M-81.835 534.255c9.057 2.365 18.881 8.068 23.228 13.32M-83.201 541.118c9.057 2.365 18.658 8.113 23.005 13.365M-79.06 519.605c9.058 2.365 18.989 8.139 23.336 13.39M-80.604 526.602c9.058 2.365 18.843 8.024 23.19 13.275M-76.06 505.5c9.058 2.365 19.04 8.034 23.388 13.286M-76.886 511.973c9.057 2.365 18.783 8.343 23.13 13.595M-72.132 490.65c9.057 2.366 18.167 8.203 22.514 13.455M-73.677 497.648c9.058 2.365 18.212 8.023 22.56 13.275M-69.132 476.545c9.057 2.365 18.345 7.845 22.692 13.097M-70.717 483.335c9.057 2.365 18.594 8.216 22.94 13.468M-65.692 461.735c9.057 2.365 18.167 8.202 22.514 13.454M-67.237 468.732c9.057 2.365 18.212 8.024 22.559 13.276M-62.692 447.63c9.057 2.365 18.345 7.845 22.692 13.097M-64.214 454.545c9.057 2.365 18.594 7.838 22.94 13.09M-59.605 433.035c9.057 2.365 18.735 8.518 23.082 13.77M-60.96 440.222c9.057 2.365 18.59 8.15 22.937 13.401M-56.542 418.867c9.057 2.365 18.85 8.224 23.198 13.476M-57.748 426.161c9.057 2.365 18.404 8.027 22.751 13.279M-53.228 404.246c9.057 2.365 18.798 8.391 23.145 13.643M-54.457 411.243c9.057 2.365 18.527 8.213 22.874 13.465M-50.166 390.267c9.058 2.365 18.914 7.908 23.261 13.16M-51.687 397.12c9.057 2.364 18.467 8.279 22.814 13.53M-48.144 382.994c9.057 2.365 18.167 8.202 22.514 13.454M-45.144 368.889c9.057 2.364 18.345 7.845 22.692 13.097M-46.855 375.804c9.057 2.365 18.467 8.153 22.814 13.405M-42.15 353.9c9.057 2.364 18.671 8.58 23.018 13.832M-43.606 360.986c9.057 2.365 18.717 8.34 23.064 13.591M-39.419 339.794c9.057 2.365 19.04 8.477 23.387 13.729M-40.794 346.762c9.057 2.365 19.035 8.406 23.382 13.658M-37.47 331.54c9.057 2.366 19.04 8.477 23.387 13.73M-33.724 317.32c9.058 2.365 18.782 8.586 23.129 13.838M-35.416 324.106c9.057 2.365 18.432 9.132 22.779 14.384M-31.08 310.647c7.725 1.498 16.73 9.97 21.97 15.026M-27.01 301.925c6.874 2.697 16.302 11.489 20.3 17.687M-20.949 293.212c7.238 5.508 11.535 14.335 15.889 21.75M-12.267 285.645c2.652 6.187 7.071 28.79 7.071 28.79M-4.06 282.362c1.35 6.874.045 21.304-.63 32.073M3.896 282.362l-8.208 32.451M13.618 287.792c-6.386 5.956-12.438 17.354-17.93 26.516M17.66 294.737c-7.396 4.09-15.347 13.35-22.414 20.518M19.806 304.586c-6.442.543-19.915 11.141-25.254 14.268M18.689 321.599c-3.388-1.534-18.294 2.244-24.806 5.706M19.74 315.084c-8.796.364-16.35 2.474-24.891 7.285M-40.224 617.316c-9.227-1.576-20.77.029-26.894 3.024M-41.917 624.377c-9.227-1.576-20.14-.201-26.264 2.794M-37.605 603.265c-9.228-1.576-20.201-.282-26.326 2.713M-38.911 609.848c-9.228-1.576-20.356-.209-26.48 2.786M-34.28 588.319c-9.228-1.576-20.545.15-26.669 3.146M-35.819 595.253c-9.227-1.576-20.195-.079-26.32 2.916M-31.563 574.264c-9.227-1.576-20.264-.345-26.388 2.65M-32.986 581.054c-9.227-1.575-20.238-.186-26.362 2.81M-28.159 559.594c-9.227-1.576-20.786.144-26.91 3.139M-29.892 566.636c-9.227-1.576-20.494-.067-26.619 2.928M-25.355 545.676c-9.227-1.576-20.529-.426-26.653 2.57M-26.937 552.492c-9.228-1.576-20.344-.293-26.468 2.702M-21.85 531.182c-9.227-1.575-20.655-.404-26.779 2.59M-23.325 538.195c-9.227-1.576-20.98-.45-27.104 2.544M-18.773 517.094c-9.228-1.576-21.164-.522-27.289 2.473M-20.686 523.333c-9.227-1.576-20.552-.135-26.676 2.86M-15.92 501.945c-9.227-1.576-20.69-.135-26.814 2.86M-17.394 508.957c-9.228-1.575-20.91-.064-27.035 2.931M-13.159 487.857c-9.227-1.576-20.516-.409-26.64 2.586M-14.511 494.696c-9.227-1.576-20.77.017-26.894 3.012M-9.877 472.944c-9.227-1.576-20.816-.01-26.94 2.986M-11.288 480.083c-9.228-1.576-20.974-.317-27.098 2.678M-7.116 458.856c-9.227-1.576-20.516-.409-26.64 2.586M-8.578 465.784c-9.227-1.576-20.578-.388-26.702 2.607M-3.917 444.285c-9.228-1.576-20.58.044-26.705 3.04M-5.643 451.392c-9.227-1.576-20.297-.232-26.421 2.763M-.872 430.113c-9.227-1.576-20.565-.271-26.69 2.724M-2.778 437.256c-9.227-1.576-20.077-.267-26.201 2.728M2.131 415.425c-9.227-1.576-20.586-.097-26.71 2.898M.369 422.307c-9.228-1.576-20.266-.148-26.39 2.847M5.098 401.425c-9.227-1.576-20.492-.585-26.616 2.41M3.662 408.296c-9.227-1.576-20.743-.063-26.868 2.932M6.252 393.965c-9.227-1.576-19.933-.01-26.057 2.986M9.329 379.876c-9.227-1.575-20.264-.408-26.389 2.587M8.04 386.883c-9.228-1.576-20.629.011-26.753 3.006M11.953 364.854c-9.069-1.343-19.907.347-25.851 3.254M10.608 371.948c-9.116-1.421-20.042.045-26.04 2.978M14.197 350.729c-8.871-1.094-19.355.36-25.067 3.154M12.939 357.69c-8.943-1.185-19.604.215-25.392 3.046M15.72 342.393c-8.85-1.07-19.276.384-24.965 3.166M18.036 327.88c-8.797-1.015-18.86 1.626-24.52 4.394M16.93 334.786c-8.818-.97-19.008 1.217-24.7 4" fill="none" />
            <path d="M-68.96 629.35s43.89-209.69 60.546-288.273c1.93-9.106 4.537-25.776 3.534-26.341-1.047-.59-5.375 14.427-7.827 25.142C-30.704 418.498-76.6 628.276-76.6 628.276" fill="#fac53a" fill-rule="evenodd" />
         </g>
         <g>
            <path d="M71.354 651.741s54.825-244.401 64.262-320.197c5.092-40.9-42.34-48.984-56.316 14.143L13.523 642.776l57.831 8.965z" fill="#fac53a" fill-rule="evenodd" />
            <path d="M17.833 623.758c9.057 2.365 18.568 8.426 22.915 13.678M16.467 630.89c9.057 2.364 18.434 8.112 22.781 13.364M21.234 609.876c9.057 2.365 18.346 7.845 22.693 13.097M19.713 616.413c9.057 2.365 18.404 8.09 22.75 13.342M24.362 594.887c9.057 2.365 18.479 8.381 22.826 13.633M22.906 601.84c9.058 2.365 18.435 8.247 22.782 13.499M27.674 580.96c9.057 2.366 18.345 7.846 22.692 13.098M26.174 587.735c9.057 2.365 18.256 7.979 22.603 13.23M30.615 566.19c9.057 2.366 18.881 8.694 23.228 13.946M29.294 573.322c9.057 2.365 18.703 8.38 23.05 13.632M33.794 552.353c9.057 2.365 18.88 8.069 23.228 13.32M32.428 559.217c9.057 2.365 18.658 8.113 23.005 13.364M36.57 537.703c9.057 2.365 18.987 8.14 23.334 13.391M35.025 544.7c9.057 2.365 18.843 8.024 23.19 13.276M39.57 523.598c9.057 2.365 19.04 8.034 23.387 13.286M38.742 530.071c9.058 2.365 18.783 8.343 23.13 13.595M43.497 508.749c9.057 2.365 18.167 8.202 22.514 13.454M41.952 515.746c9.057 2.365 18.212 8.024 22.559 13.276M46.497 494.644c9.057 2.365 18.345 7.845 22.692 13.097M44.912 501.433c9.057 2.365 18.593 8.216 22.94 13.468M49.936 479.833c9.058 2.365 18.167 8.202 22.514 13.454M48.392 486.83c9.057 2.365 18.212 8.024 22.559 13.276M52.936 465.728c9.058 2.365 18.346 7.845 22.693 13.097M51.415 472.644c9.057 2.364 18.593 7.837 22.94 13.089M56.024 451.133c9.057 2.365 18.735 8.518 23.082 13.77M54.669 458.32c9.057 2.365 18.59 8.15 22.937 13.402M59.087 436.965c9.057 2.365 18.85 8.224 23.197 13.476M57.88 444.26c9.058 2.364 18.405 8.026 22.752 13.278M62.4 422.344c9.058 2.365 18.799 8.392 23.146 13.644M61.171 429.341c9.058 2.365 18.528 8.213 22.875 13.465M65.463 408.365c9.057 2.365 18.914 7.908 23.261 13.16M63.942 415.218c9.057 2.364 18.467 8.279 22.814 13.53M67.485 401.092c9.057 2.365 18.167 8.202 22.514 13.454M70.485 386.987c9.057 2.365 18.345 7.845 22.692 13.097M68.774 393.902c9.057 2.365 18.467 8.153 22.814 13.405M73.478 371.998c9.057 2.365 18.672 8.58 23.02 13.833M72.023 379.084c9.057 2.365 18.716 8.34 23.063 13.591M76.21 357.893c9.057 2.365 19.04 8.476 23.387 13.728M74.834 364.86c9.058 2.365 19.036 8.406 23.383 13.658M78.159 349.64c9.057 2.364 19.04 8.476 23.387 13.728M81.905 335.419c9.057 2.365 18.781 8.585 23.128 13.837M80.213 342.205c9.057 2.365 18.431 9.132 22.778 14.384M84.548 328.745c7.726 1.498 16.731 9.97 21.97 15.026M88.62 320.023c6.873 2.697 16.3 11.49 20.298 17.687M94.68 311.31c7.238 5.508 11.535 14.335 15.888 21.75M103.362 303.744c2.652 6.187 7.071 28.789 7.071 28.789M111.57 300.46c1.35 6.875.044 21.305-.632 32.073M119.525 300.46l-8.208 32.452M129.247 305.89c-6.386 5.956-12.438 17.354-17.93 26.517M133.288 312.835c-7.395 4.09-15.347 13.35-22.413 20.519M135.434 322.684c-6.441.543-19.914 11.141-25.253 14.268M134.317 339.697c-3.387-1.534-18.293 2.245-24.805 5.706M135.369 333.182c-8.797.364-16.35 2.474-24.891 7.285M75.405 635.414c-9.228-1.576-20.77.029-26.894 3.024M73.712 642.475c-9.227-1.576-20.14-.201-26.264 2.794M78.023 621.363c-9.227-1.575-20.2-.282-26.325 2.713M76.717 627.947c-9.227-1.576-20.355-.21-26.48 2.785M81.348 606.417c-9.227-1.576-20.544.15-26.668 3.146M79.81 613.352c-9.227-1.576-20.195-.08-26.32 2.916M84.066 592.362c-9.227-1.576-20.264-.345-26.388 2.65M82.643 599.153c-9.228-1.576-20.238-.187-26.363 2.808M87.47 577.692c-9.227-1.576-20.786.144-26.91 3.139M85.737 584.734c-9.228-1.576-20.495-.067-26.62 2.928M90.274 563.774c-9.228-1.576-20.529-.426-26.653 2.57M88.691 570.59c-9.227-1.575-20.343-.292-26.468 2.703M93.779 549.28c-9.227-1.575-20.655-.404-26.78 2.59M92.304 556.293c-9.227-1.576-20.98-.45-27.105 2.544M96.856 535.192c-9.228-1.576-21.165-.522-27.29 2.473M94.943 541.432c-9.228-1.576-20.552-.136-26.677 2.86M99.71 520.044c-9.228-1.576-20.691-.136-26.816 2.859M98.234 527.056c-9.227-1.576-20.91-.064-27.034 2.93M102.47 505.955c-9.227-1.576-20.516-.408-26.64 2.587M101.118 512.794c-9.228-1.576-20.77.017-26.894 3.012M105.752 491.042c-9.227-1.575-20.817-.009-26.941 2.986M104.34 498.18c-9.227-1.575-20.973-.316-27.097 2.68M108.513 476.954c-9.227-1.576-20.517-.408-26.641 2.587M107.05 483.882c-9.226-1.576-20.577-.387-26.702 2.608M111.712 462.383c-9.228-1.576-20.581.044-26.705 3.04M109.986 469.49c-9.227-1.576-20.297-.232-26.421 2.763M114.757 448.211c-9.228-1.576-20.565-.271-26.69 2.724M112.85 455.354c-9.226-1.575-20.076-.266-26.2 2.729M117.76 433.523c-9.227-1.576-20.586-.097-26.71 2.898M115.997 440.405c-9.227-1.576-20.265-.148-26.39 2.847M120.727 419.523c-9.227-1.575-20.492-.584-26.617 2.41M119.291 426.394c-9.227-1.576-20.743-.062-26.868 2.933M121.881 412.063c-9.227-1.576-19.933-.009-26.057 2.986M124.958 397.975c-9.228-1.576-20.264-.409-26.389 2.586M123.668 404.981c-9.227-1.576-20.628.012-26.752 3.007M127.582 382.952c-9.069-1.343-19.908.348-25.851 3.254M126.237 390.046c-9.116-1.42-20.042.045-26.04 2.978M129.826 368.827c-8.871-1.094-19.356.361-25.067 3.154M128.567 375.788c-8.942-1.185-19.603.216-25.391 3.046M131.348 360.491c-8.85-1.07-19.276.385-24.965 3.167M133.665 345.977c-8.797-1.013-18.86 1.627-24.52 4.395M132.559 352.884c-8.819-.97-19.008 1.217-24.7 4.001" fill="none" />
            <path d="M46.668 647.448s43.89-209.69 60.546-288.272c1.93-9.107 4.538-25.777 3.534-26.342-1.046-.59-5.374 14.427-7.827 25.142C84.924 436.597 39.03 646.375 39.03 646.375" fill="#fac53a" fill-rule="evenodd" />
         </g>
         <g>
            <path d="M13.675 642.634s54.826-244.401 64.262-320.197c5.093-40.9-42.339-48.985-56.316 14.142l-65.777 297.09 57.831 8.965z" fill="#fac53a" fill-rule="evenodd" />
            <path d="M-39.846 614.651c9.057 2.365 18.569 8.426 22.916 13.678M-41.212 621.782c9.057 2.365 18.435 8.113 22.782 13.365M-36.444 600.77c9.057 2.364 18.345 7.844 22.692 13.096M-37.966 607.306c9.057 2.365 18.404 8.09 22.751 13.342M-33.317 585.78c9.057 2.365 18.48 8.381 22.826 13.633M-34.772 592.733c9.057 2.365 18.435 8.247 22.782 13.498M-30.005 571.854c9.058 2.365 18.346 7.845 22.693 13.097M-31.505 578.628c9.058 2.364 18.257 7.979 22.604 13.23M-27.063 557.084c9.057 2.365 18.88 8.693 23.228 13.945M-28.385 564.215c9.058 2.365 18.703 8.38 23.05 13.632M-23.885 543.246c9.057 2.365 18.881 8.069 23.228 13.32M-25.251 550.11c9.057 2.364 18.658 8.112 23.005 13.364M-21.109 528.596c9.057 2.365 18.988 8.139 23.335 13.39M-22.653 535.593c9.057 2.365 18.842 8.024 23.19 13.276M-18.11 514.49c9.058 2.366 19.04 8.035 23.388 13.287M-18.936 520.964c9.057 2.365 18.783 8.343 23.13 13.595M-14.182 499.642c9.057 2.365 18.167 8.202 22.514 13.454M-15.726 506.639c9.057 2.365 18.211 8.023 22.558 13.275M-11.182 485.537c9.057 2.364 18.346 7.845 22.693 13.097M-12.767 492.326c9.058 2.365 18.594 8.216 22.94 13.468M-7.742 470.726c9.057 2.365 18.167 8.202 22.514 13.454M-9.287 477.723c9.058 2.365 18.212 8.024 22.559 13.276M-4.742 456.62c9.057 2.366 18.345 7.846 22.692 13.098M-6.264 463.536c9.057 2.365 18.594 7.838 22.94 13.09M-1.655 442.026c9.057 2.365 18.735 8.518 23.082 13.77M-3.01 449.213c9.057 2.365 18.59 8.15 22.937 13.402M1.408 427.858c9.057 2.365 18.85 8.224 23.198 13.476M.202 435.152c9.057 2.365 18.404 8.027 22.751 13.279M4.722 413.237c9.057 2.365 18.798 8.392 23.145 13.643M3.493 420.234c9.057 2.365 18.527 8.213 22.874 13.465M7.785 399.258c9.057 2.365 18.913 7.908 23.26 13.16M6.263 406.11c9.057 2.365 18.467 8.28 22.814 13.532M9.806 391.985c9.057 2.365 18.167 8.202 22.514 13.454M12.806 377.88c9.057 2.365 18.346 7.845 22.693 13.097M11.095 384.795c9.057 2.365 18.467 8.153 22.814 13.405M15.8 362.89c9.057 2.366 18.672 8.582 23.019 13.834M14.344 369.977c9.057 2.365 18.717 8.34 23.064 13.591M18.531 348.785c9.058 2.365 19.04 8.477 23.387 13.729M17.156 355.753c9.057 2.365 19.035 8.406 23.382 13.658M20.48 340.532c9.057 2.365 19.04 8.476 23.387 13.728M24.227 326.311c9.057 2.365 18.78 8.586 23.128 13.838M22.534 333.098c9.057 2.364 18.432 9.132 22.779 14.383M26.87 319.638c7.726 1.498 16.73 9.97 21.97 15.026M30.94 310.916c6.874 2.697 16.302 11.489 20.3 17.687M37.002 302.204c7.237 5.507 11.534 14.334 15.888 21.748M45.683 294.636c2.652 6.188 7.072 28.79 7.072 28.79M53.891 291.353c1.35 6.874.044 21.304-.631 32.073M61.846 291.353l-8.208 32.452M71.569 296.783c-6.386 5.956-12.439 17.354-17.93 26.516M75.61 303.728c-7.396 4.09-15.347 13.35-22.413 20.518M77.756 313.577c-6.442.543-19.915 11.141-25.254 14.268M76.639 330.59c-3.388-1.534-18.293 2.245-24.806 5.706M77.69 324.075c-8.796.364-16.349 2.474-24.89 7.285M17.726 626.307c-9.227-1.576-20.77.029-26.894 3.024M16.033 633.368c-9.227-1.576-20.14-.201-26.264 2.794M20.345 612.256c-9.228-1.576-20.201-.282-26.326 2.713M19.039 618.84c-9.228-1.576-20.356-.21-26.48 2.785M23.67 597.31c-9.228-1.576-20.544.15-26.669 3.146M22.132 604.244c-9.228-1.575-20.196-.078-26.32 2.917M26.388 583.255c-9.228-1.576-20.264-.345-26.389 2.65M24.964 590.046c-9.227-1.576-20.238-.187-26.362 2.808M29.792 568.585c-9.228-1.576-20.786.144-26.91 3.139M28.058 575.627c-9.227-1.576-20.494-.067-26.619 2.928M32.595 554.667c-9.227-1.576-20.528-.426-26.653 2.57M31.013 561.483c-9.228-1.576-20.344-.293-26.468 2.702M36.1 540.174c-9.227-1.576-20.654-.405-26.779 2.59M34.626 547.186c-9.228-1.576-20.98-.45-27.105 2.544M39.177 526.085c-9.227-1.576-21.164-.522-27.289 2.473M37.264 532.324c-9.227-1.575-20.552-.135-26.676 2.86M42.03 510.936c-9.227-1.575-20.69-.135-26.814 2.86M40.556 517.949c-9.228-1.576-20.91-.065-27.035 2.93M44.792 496.848c-9.228-1.576-20.517-.408-26.641 2.587M43.439 503.687c-9.227-1.576-20.77.017-26.894 3.012M48.073 481.935c-9.227-1.576-20.816-.009-26.94 2.986M46.662 489.074c-9.228-1.576-20.973-.317-27.098 2.678M50.834 467.847c-9.227-1.576-20.516-.409-26.64 2.586M49.372 474.775c-9.227-1.576-20.578-.387-26.702 2.608M54.033 453.276c-9.227-1.576-20.58.044-26.705 3.04M52.308 460.383c-9.228-1.576-20.297-.232-26.422 2.763M57.078 439.104c-9.227-1.576-20.564-.271-26.689 2.724M55.172 446.247c-9.227-1.576-20.076-.267-26.2 2.728M60.081 424.416c-9.227-1.576-20.586-.097-26.71 2.898M58.319 431.298c-9.227-1.576-20.266-.148-26.39 2.847M63.048 410.416c-9.227-1.576-20.492-.584-26.616 2.41M61.612 417.287c-9.227-1.576-20.743-.063-26.867 2.932M64.202 402.956c-9.227-1.576-19.932-.01-26.057 2.986M67.28 388.868c-9.228-1.576-20.265-.409-26.39 2.586M65.99 395.874c-9.228-1.576-20.629.011-26.753 3.007M69.903 373.845c-9.069-1.343-19.907.347-25.85 3.254M68.558 380.94c-9.116-1.422-20.042.044-26.04 2.977M72.148 359.72c-8.872-1.094-19.356.361-25.067 3.154M70.889 366.68c-8.943-1.184-19.604.217-25.392 3.047M73.67 351.384c-8.85-1.07-19.276.384-24.965 3.167M75.986 336.87c-8.797-1.014-18.86 1.627-24.52 4.395M74.88 343.777c-8.818-.97-19.008 1.217-24.7 4" fill="none" />
            <path d="M-11.01 638.34s43.89-209.689 60.546-288.272c1.93-9.106 4.538-25.776 3.534-26.341-1.047-.59-5.375 14.427-7.827 25.142C27.246 427.49-18.65 637.267-18.65 637.267" fill="#fac53a" fill-rule="evenodd" />
         </g>
         <path d="M-98.424 636.815l220.516 33.92c-14.738 2.03-28.543 20.92-32.213 43.17L-82.436 687.16c2.962-22.25-8.134-43.057-15.988-50.344z" style="marker:none" color="#000" fill="#fac53a" fill-rule="evenodd" stroke-width="1.5" stroke-linecap="round" stroke-linejoin="round" overflow="visible" />
         <g fill="none" stroke-width="2" stroke-linecap="round" stroke-linejoin="round">
            <path d="M10.685 656.772L4.433 697.31M-1.061 654.96l-4.34 40.832M-14.372 652.77c1.971 8.42.339 22.49-1.408 41.421M-29.196 650.622c2.893 6.956 3.009 23.05 1.943 41.8M-42.696 648.704c3.184 7.55 4.495 24.173 3.97 41.949M-57.33 646.283c4.554 8.819 6.727 20.447 6.586 42.516M-70.442 644.26c5.996 10.024 7.433 24.925 8.772 42.854M-83.817 642.441c8.576 8.8 10.547 27.375 10.696 42.537M36.886 660.826c-2.792 7.163-7.705 19.39-13.06 39.474M51.174 663.153c-3.68 5.009-11.242 20.715-15.875 38.916M65.389 665.071c-5.31 6.24-13.762 21.66-18.617 38.767M77.88 667.135c-7 7.037-12.575 17.47-19.09 38.557M90.992 669.157c-8.737 7.751-14.597 21.527-21.275 38.22M107.216 672.578c-11.27 7.162-17.218 17.525-25.512 36.578M22.976 658.668l-8.71 40.157M-7.132 653.89l-4.34 40.83M-21.336 651.699c1.97 8.42 2.124 22.49-.516 41.421M-35.267 649.55c2 5.885 3.008 23.05 1.943 41.8M-50.018 647.276c3.184 7.549 5.746 24.53 5.221 42.305M-63.402 645.212c4.554 8.819 6.728 20.446 6.587 42.516M-76.513 643.19c5.996 10.023 7.433 24.924 8.771 42.853M-91.138 641.013c11.611 10.228 11.975 29.695 12.124 43.786M5.685 656.058l-6.252 40.537M29.922 659.934c-2.793 7.162-5.74 19.568-11.095 39.651M43.853 662.082c-3.68 5.008-9.635 20.715-14.268 38.916M58.067 664.357c-5.31 6.239-12.154 21.48-17.01 38.588M71.987 666.421c-7 7.037-12.753 17.291-19.268 38.378M84.206 668.443c-8.023 7.75-12.811 21.527-19.49 38.22M99.002 670.97c-10.021 6.806-17.397 23.597-23.191 37.293M16.905 657.954L9.267 698.11" />
         </g>
         <rect transform="rotate(8.767)" style="marker:none" width="239.223" height="11.543" x="-8.616" y="632.768" ry="4.806" color="#000" fill="#fac53a" fill-rule="evenodd" stroke-width="1.5" stroke-linecap="round" stroke-linejoin="round" overflow="visible" />
      </g>
      <path d="M164.024 209.897c1.078-31.099 34.735-34.976 52.203-34.222 41.242 1.781 52.343 27.434 49.42 55.085-1.92 18.183-8.632 31.222-11.568 43.736l.013.162-42.402-1.062c-6.522-15.796-13.4-30.932-13.44-52.274-.009-5.31-4.043-8.503-8.421-9.98-9.908-3.344-17.99-1.917-25.805-1.445z" fill="#025" fill-rule="evenodd" stroke-width=".45506" />
      <path d="M210.158 269.877c.573-.044 44.616 1.564 44.616 1.564l-.734 3.225-42.265-1.037-1.617-3.752z" fill="#fac53a" fill-rule="evenodd" stroke-width=".45506" />
      <path d="M257.723 191.391c-.665-2.235.51-3.973 1.839-4.583" fill="none" stroke-width=".22737494000000003" />
      <path d="M262.36 202.402c-1.437-4.538-5.415-9.834-8.308-12.966l-79.393-2.82c-3.788 3.26-6.224 7.225-8.284 11.523.912-.127 95.985 4.263 95.985 4.263z" fill="#fac53a" fill-rule="evenodd" stroke-width=".45506" />
      <g fill="none">
         <path d="M182.465 181.71l65.832 3.233M165.432 201.124l98.233 4.824M193.948 212.65l71.82 3.526M199.228 223.033l66.623 3.272M199.918 233.192l64.911 3.188M201.746 243.407l60.972 2.995M204.661 253.675l55.021 2.702M208.613 263.995l47.834 2.349" stroke-width=".45506" />
      </g>
   </g>
   <path d="M173.568 187.803l81.506 2.841M167.143 196.953l94.397 3.914M172.407 188.875l83.716 3.03M167.679 195.882l93.339 3.588" fill="none" stroke="#000" stroke-width=".5" />
</svg>