<svg width="800" height="200" xmlns="http://www.w3.org/2000/svg">
    <path d="M.03 191.67c.05-15.86 7.1-42.13 16.67-62.19C28.86 104 52.75 75 79.11 53.7c26.35-21.27 69.67-46.38 88.51-51.29C175.73.3 215.06 0 488.44 0h311.59l-.41 99.6-.41 99.61-399.61.39L0 200l.03-8.33M796.83 100V11.11H181.21l-14.02 4.94c-17.17 6.05-47.73 21.08-60.29 29.63-24.33 16.62-49.66 42.61-67.44 69.19-15.19 22.72-23.75 42.26-25.95 59.32-.54 4.16-1.32 9.16-1.72 11.13l-.74 3.57h785.78V100" />
    <path fill="#c57a36" d="M11.79 185.32c.4-1.97 1.18-6.97 1.72-11.13 5.03-38.82 47.36-97.06 93.39-128.51 13.13-8.95 44.4-24.2 61.13-29.82l14.19-4.75h614.61v177.78H11.05l.74-3.57" />
</svg>