<svg xmlns="http://www.w3.org/2000/svg" xmlns:xlink="http://www.w3.org/1999/xlink" width="350" height="710" version="1.0">
   <defs>
      <linearGradient id="prefix__a">
         <stop offset="0" stop-color="#c13c1b" />
         <stop offset=".839" stop-color="#c13c1b" stop-opacity=".498" />
         <stop offset="1" stop-color="#c13c1b" stop-opacity="0" />
      </linearGradient>
   </defs>
   <g transform="rotate(-29.338 551.214 -52.62) scale(.39849)">
      <path d="M541.57-351.544c23.32 6.889 45.953 13.317 71.405 23.575 3.18 1.28 1.875 10.43-2.857 9.911-22.887-2.51-46.34-5.176-74.077-10.882" id="prefix__b" fill="#fac53a" fill-rule="evenodd" stroke="#000" stroke-width=".5" stroke-linecap="butt" stroke-linejoin="miter" stroke-miterlimit="4" stroke-dasharray="none" stroke-opacity="1" />
      <use x="0" y="0" xlink:href="#prefix__b" id="prefix__c" transform="rotate(-72 523.275 -343.908)" width="744.094" height="1052.362" />
      <use x="0" y="0" xlink:href="#prefix__c" id="prefix__d" transform="rotate(-72 523.275 -343.908)" width="744.094" height="1052.362" />
      <use x="0" y="0" xlink:href="#prefix__d" id="prefix__e" transform="rotate(-72 523.275 -343.908)" width="744.094" height="1052.362" />
      <use xlink:href="#prefix__e" transform="rotate(-72 523.275 -343.908)" width="744.094" height="1052.362" />
      <path style="marker:none" d="M542.857-341.924a20.714 20 0 11-41.428 0 20.714 20 0 1141.428 0z" transform="matrix(.7257 -.61895 .64106 .75162 363.544 236.354)" color="#000" fill="#fac53a" fill-rule="evenodd" stroke="#000" stroke-width=".5" stroke-linecap="round" stroke-linejoin="round" overflow="visible" />
   </g>
   <g stroke="#000">
      <path d="M66.53 396.471c-1.95 2.633-2.432 3.192-3.743 5.004-10.877 21.62-16.272 19.893-21.962 24.535-.26-.482-2.286 3.073-2.464 2.666-4.986-4.352 7.543-11.306 9.243-13.416 1.645-2.04 2.415-3.992 3.703-6.967l-.715-.693c-23.252 15.47-18.088 25.748-20.632 29.898-.569.843-1.698 2.43-3.101 1.563.398-1.52-.06-2.632.732-4-3.038 2.831-3.267 2.731-4.62 2.117.437-.985.674-1.985 1.071-2.802-2.282 1.827-3.15 1.532-4.438.375a186.272 186.272 0 001.711-3.578c-3.132 2.384-4.086 2.379-5.296 1.15l1.91-2.826c1.014-4.277-.48-5.702 5.52-14.873 5.343-8.167 19.399-14.682 26.363-20.187l5.476-8.052" fill="#f5ca44" fill-rule="evenodd" stroke-width=".233" stroke-linecap="round" stroke-linejoin="round" />
      <path d="M21.382 431.117c.657-8.676 3.81-15.483 10.179-20.268M24.06 434.42c.658-8.676 3.72-16.911 10.09-21.696M27.604 435.109c.657-8.677 4.016-16.529 10.385-21.313" fill="none" stroke-width=".25" />
   </g>
   <path d="M270.669 247.381l16.502.963.546-30.38c.714-11.606.087-16.311-2.26-24.027-6.447-27.632-13.63-55.42-26.022-84.303-9.503-17.078-11.876-37.913-44.502-39.513-8.465-.373-16.945-.222-25.463 1.343-2.746 1.364-20.11 3.372-23.054 29.367 16.238-.326 14.803 5.921 30.063 12.052l9.616.997 4.379 11.938c-4.63 5.261-6.946 19.724-8.358 37.527-1.826 25.446-2.262 50.962-4.284 76.396l24.377.965 6.5-20.735 33.024-18.303c8.699 7.457 5.514 6.047 9.6 27.784-.353 5.155-.01 11.157-.664 17.93z" fill="#025" fill-rule="evenodd" stroke="#000" stroke-width=".205" stroke-linecap="round" stroke-linejoin="round" />
   <path d="M263.405 234.845l23.97 1.113-.212 12.357-24.607-.477.849-12.993z" fill="#fac53a" fill-rule="evenodd" stroke-linecap="round" stroke-linejoin="round" stroke="#c13c1b" stroke-width=".42" />
   <g fill="none" stroke="#c13c1b" stroke-width="3" stroke-linecap="round" stroke-linejoin="round">
      <path d="M264.354 236.489l21.674.825M264.279 238.439l21.674.825M264.279 240.539l21.674.825M264.204 242.489l21.674.825M264.279 244.514l21.674.675M264.129 246.614l21.75.525" stroke-width=".63" />
   </g>
   <path d="M136.948 696.672c23.778-5.526 41.44-16.17 48.103-21.243.148-.36.421-2.543.415-2.862l2.034-29.799h3.606l-1.91 28.001c-5.87 9.447-35.539 22.974-52.395 25.88l-9.016-.954c-1.051 2.666-2.534 6.652 3.607 7.504 60.092-.215 44.512-1.143 68.261-2 1.596 3.003 13.484 1.635 15.211 1.39 3.616-1.401 4.434-8.159 3.819-9.758-1.367-3.55-2.241-8.852-3.182-13.576-1.474-12.092-.6-24.183-.637-36.274 5.987-37.83 3.849-80.114 1.06-113.49 5.595-51.134 11.774-107.837 14.001-159.732 27.414-18.16-7.954-67.376-5.09-75.942 3.741-25.388 15.06-47.744 27.152-69.79h.424v2.333l-1.06 14.849c-.559 23.341 3.898 51.921 2.633 72.376-4.924 25.755-2.32 50.398.336 75.902l.212 12.94 19.304.424.849-12.94c3.411-22.415 5.343-44.83 4.242-67.245.399-2.706.314-4.949-.75-7.637 1.147-24.394 1.242-48.79.75-73.184l.212-14c.466-4.06 1.088-8.282 1.485-12.092 1.915-18.879-4.716-28.595-15.485-32.668-15.395-5.822-28.705-8.94-42.638-12.834l-39.904-4.772-42.19 15.91c-18.989 8-16.242 23.246-18.243 36.91l-3.606 14.424c-7.662 26.465-13.973 53.155-18.243 80.185-17.952 21.962-32.756 45.926-44.485 71.848l-5.4 9 10.8 10.5 7.5-9c14.273-14.147 36.825-36.432 47.699-62.4 3.352-2.297 4.222-6.597 4.767-9.413 12.175-28.256 20.966-68.458 24.3-85.349l3.032-15.186.9-2.25h.9v4.95c-1.388 6.55-2.211 13.1-2.4 19.65-1.398 3.24-1.95 4.708 1.2 5.1 1.429 4.342 7.503 10.9 9.9 12.9 9.813 6.863 7.688 15.062 6.6 22.8-11.224 79.877-21.416 114.682 1.8 228.596-1.857 13.574 1.2 24.2 1.8 36.3-3.18 30.599-5.59 61.198-5.4 91.798-.167 38.43-11.756 29.915-60.331 53.579l-7.637-.424c-2.31 2.875-.968 6.181.424 7.212l34.471.08c-5.562-1.43-3.763-4.785-2.924-7.55l9.117 1.023z" fill="#f5ca44" fill-rule="evenodd" stroke="#000" stroke-width=".42" stroke-linecap="round" stroke-linejoin="round" />
   <g fill-rule="evenodd" stroke="#000" stroke-linecap="round" stroke-linejoin="round">
      <path d="M259.313 495.304c2.643-.864 4.81-.533 6.894 0l-1.216-33.074 15.75 1.051c-.482-2.368-.645-4.737 0-7.106l-15.75 1.105h0c3.299-5.896 7.924-11.124 9.587-19.746 3.362-17.425-5.523-16.693-11.687-16.749-6.71-.06-16.617.988-12.495 17.491 1.895 7.591 6.517 13.56 10.245 19.004h0l-17.7-1.105c.595 2.369.537 4.738 0 7.106l17.7-1.051h0l-1.328 33.074z" fill="#025" stroke-width=".21" />
      <path d="M260.641 452.41c-3.401-4.619-6.666-9.131-7.488-15.088-1.661-12.043 4.591-13.388 9.65-13.419 4.498-.026 11.145.611 8.17 13.313-1.397 5.959-3.568 11.32-5.982 15.194-1.51 2.045-3.133 1.71-4.35 0z" fill="#fff" stroke-width=".21" />
   </g>
   <path d="M254.32 402.533c-.974 4.868-3.379 10.023-5.727 15.167-3.105 4.927-3.307 11.215-2.44 17.182l-.318 5.622c8.742 1.046.296-10.621 5.833-14.956l.849 8.061c1.585 1.51 3.148 2.703 4.455.319 1.555 1.742 3.111 1.616 4.667-.319 1.901 2.46 3.454.729 5.09 0 1.744 1.364 3.59 1.85 4.774-1.272.344-8.514 2.89-16.783 2.28-29.274" fill="#f5ca44" fill-rule="evenodd" stroke="#000" stroke-width=".21" stroke-linecap="round" stroke-linejoin="round" />
   <path d="M248.265 177.518l-26.787-7.795-39.165-4.193-27.784 10.413c4.997 22.963 23.07 34.203 45.132 34.974 20.896.727 30.726-4.517 37.644-11.678 6.575-6.807 9.733-15.344 10.96-21.721z" fill="#fff" fill-rule="evenodd" stroke="#000" stroke-width=".22449" stroke-linecap="round" stroke-linejoin="round" />
   <path style="marker:none" d="M237.131 174.262c-4.615 19.074-16.576 26.143-37.797 25.037-20.573-1.072-31.25-13.713-33.374-26.57l-.334-.942" color="#000" fill="none" stroke="#04a" stroke-width="4.001969999999999" stroke-linejoin="round" overflow="visible" />
   <path style="marker:none" d="M226.886 171.318c-4.236 14.92-12.947 18.07-26.994 17.347-13.181-.678-23.292-9.395-23.201-20.207l-.236-.733" color="#000" fill="none" stroke="#308d57" stroke-width="2.45574" overflow="visible" />
   <path style="marker:none" d="M233.718 173.328c-3.53 13.463-11.328 23.641-34.075 22.355-19.207-1.086-28.807-13.555-29.992-24.624l-.212-.688" color="#000" fill="none" stroke="#c13c1b" stroke-width="2.45574" overflow="visible" />
   <path style="marker:none" d="M223.547 170.284c-.072.23-.032.183-.105.42-2.068 6.676-4.925 15.974-23.496 14.33-12.6-1.115-19.168-8.72-19.555-15.743-.018-.517-.2-1.782-.22-2.433l-.137-.444" color="#000" fill="none" stroke="#04a" stroke-width="3.6017099999999997" overflow="visible" />
   <path style="marker:none" d="M230.285 172.364c-4.576 18.081-18.563 20.712-30.812 19.828-16.808-1.218-25.806-11.653-26.307-22.672l-.199-.528" color="#000" fill="none" stroke="#04a" stroke-width="3.6017099999999997" overflow="visible" />
   <path style="marker:none" d="M243.725 176.19c-5.286 20.223-17.287 31.227-43.59 29.956a91.154 91.154 0 01-.33-.016c-30.526-1.583-38.193-21.255-40.567-31.035l-.293-.745" color="#000" fill="none" stroke="#fac53a" stroke-width="8.98317" overflow="visible" />
   <g fill="none" stroke="#c13c1b">
      <path d="M189.201 206.874c.542-1.585.26-4.392-.133-6.233-1.319 1.308-3.155 3.496-3.63 4.995-.914 2.883 2.841 3.932 3.763 1.238z" stroke-width=".22457" />
      <path d="M188.716 206.675c.4-1.174.195-3.251-.093-4.614-.975.969-2.331 2.59-2.684 3.7-.677 2.136 2.094 2.91 2.777.914z" stroke-width=".22457" />
      <path d="M188.722 206.616a2.21 2.21 0 00-1.199-.968c-.67-.216-1.127-.095-1.51.07M188.88 204.486c-.195-.252-.63-.502-.844-.567-.232-.072-.727-.06-.957 0" style="marker:none" color="#000" stroke-linecap="round" stroke-linejoin="round" overflow="visible" stroke-width=".22457" />
   </g>
   <g fill="none" stroke="#c13c1b">
      <path d="M193.913 207.651c.385-1.63-.167-4.396-.737-6.19-1.186 1.429-2.8 3.784-3.129 5.323-.63 2.958 3.21 3.638 3.866.867z" stroke-width=".22457" />
      <path d="M193.41 207.5c.286-1.207-.12-3.255-.54-4.583-.875 1.059-2.068 2.804-2.311 3.943-.467 2.191 2.365 2.693 2.851.64z" stroke-width=".22457" />
      <path d="M193.411 207.44a2.21 2.21 0 00-1.287-.846c-.688-.15-1.131.015-1.496.215M193.362 205.306c-.219-.233-.675-.439-.895-.483-.238-.049-.73.011-.952.093" style="marker:none" color="#000" stroke-linecap="round" stroke-linejoin="round" overflow="visible" stroke-width=".22457" />
   </g>
   <g fill="none" stroke="#c13c1b">
      <path d="M184.403 205.517c.697-1.524.695-4.344.486-6.215-1.442 1.17-3.486 3.164-4.108 4.61-1.196 2.777 2.437 4.194 3.622 1.605z" stroke-width=".22457" />
      <path d="M183.94 205.27c.515-1.128.517-3.215.365-4.6-1.066.867-2.577 2.346-3.037 3.416-.886 2.058 1.794 3.103 2.672 1.185z" stroke-width=".22457" />
      <path d="M183.952 205.212a2.21 2.21 0 00-1.097-1.082c-.645-.28-1.112-.206-1.509-.08M184.32 203.109c-.168-.27-.576-.562-.783-.649-.223-.094-.718-.13-.952-.094" style="marker:none" color="#000" stroke-linecap="round" stroke-linejoin="round" overflow="visible" stroke-width=".22457" />
   </g>
   <g fill="none" stroke="#c13c1b">
      <path d="M203.378 208.202c.051-1.674-1.044-4.273-1.961-5.917-.876 1.638-1.987 4.269-2 5.842-.025 3.024 3.873 2.922 3.961.075z" stroke-width=".22457" />
      <path d="M202.855 208.155c.038-1.24-.77-3.165-1.446-4.382-.646 1.213-1.466 3.161-1.476 4.326-.019 2.24 2.857 2.164 2.922.056z" stroke-width=".22457" />
      <path style="marker:none" d="M202.844 208.097a2.21 2.21 0 00-1.43-.572c-.704-.01-1.106.24-1.423.51M202.368 206.015c-.26-.184-.749-.295-.973-.294-.243 0-.713.157-.914.282" color="#000" stroke-linecap="round" stroke-linejoin="round" overflow="visible" stroke-width=".22457" />
   </g>
   <g fill="none" stroke="#c13c1b">
      <path d="M207.941 208.181c-.014-1.675-1.21-4.229-2.192-5.835-.81 1.67-1.817 4.343-1.769 5.915.094 3.023 3.985 2.768 3.961-.08z" stroke-width=".22457" />
      <path d="M207.417 208.154c-.01-1.24-.894-3.132-1.618-4.322-.598 1.238-1.34 3.217-1.304 4.382.07 2.239 2.94 2.05 2.922-.06z" stroke-width=".22457" />
      <path d="M207.404 208.097a2.21 2.21 0 00-1.452-.516c-.704.019-1.095.285-1.401.566M206.846 206.035c-.267-.173-.76-.265-.984-.256-.242.01-.706.186-.902.319" style="marker:none" color="#000" stroke-linecap="round" stroke-linejoin="round" overflow="visible" stroke-width=".22457" />
   </g>
   <g fill="none" stroke="#c13c1b">
      <path d="M198.601 208.117c.238-1.658-.56-4.364-1.287-6.1-1.053 1.53-2.452 4.02-2.64 5.581-.365 3.003 3.52 3.337 3.927.519z" stroke-width=".22457" />
      <path d="M198.087 208.011c.176-1.228-.411-3.231-.947-4.517-.778 1.133-1.81 2.978-1.95 4.135-.27 2.223 2.596 2.47 2.897.382z" stroke-width=".22457" />
      <path d="M198.082 207.952a2.21 2.21 0 00-1.357-.729c-.699-.088-1.126.116-1.47.348M197.842 205.83c-.238-.212-.711-.377-.934-.402-.241-.027-.726.077-.94.179" style="marker:none" color="#000" stroke-linecap="round" stroke-linejoin="round" overflow="visible" stroke-width=".22457" />
   </g>
   <g fill="none" stroke="#c13c1b">
      <path d="M239.682 190.949c-1.37-.964-4.143-1.478-6.02-1.616.885 1.632 2.472 4.006 3.778 4.882 2.512 1.685 4.57-1.627 2.242-3.266z" stroke-width=".22457" />
      <path d="M239.355 191.36c-1.015-.714-3.067-1.098-4.456-1.203.658 1.207 1.835 2.963 2.802 3.612 1.86 1.248 3.379-1.195 1.654-2.41z" stroke-width=".22457" />
      <path style="marker:none" d="M239.3 191.337a2.21 2.21 0 00-1.265.88c-.394.583-.406 1.056-.355 1.468M237.3 190.589c-.297.117-.658.464-.781.651-.134.203-.26.682-.267.92" color="#000" stroke-linecap="round" stroke-linejoin="round" overflow="visible" stroke-width=".22457" />
   </g>
   <g fill="none" stroke="#c13c1b">
      <path d="M242.204 186.456c-1.458-.825-4.268-1.065-6.15-1.018 1.042 1.537 2.854 3.745 4.24 4.489 2.665 1.43 4.389-2.068 1.91-3.471z" stroke-width=".22457" />
      <path d="M241.92 186.896c-1.08-.61-3.16-.791-4.553-.759.773 1.137 2.116 2.769 3.143 3.32 1.974 1.059 3.245-1.522 1.41-2.56z" stroke-width=".22457" />
      <path d="M241.862 186.88a2.21 2.21 0 00-1.172 1c-.336.618-.3 1.09-.21 1.496M239.798 186.331c-.284.146-.61.527-.713.725-.113.215-.193.704-.176.94" style="marker:none" color="#000" stroke-linecap="round" stroke-linejoin="round" overflow="visible" stroke-width=".22457" />
   </g>
   <g fill="none" stroke="#c13c1b">
      <path d="M236.914 194.99c-1.213-1.156-3.88-2.076-5.716-2.49.635 1.745 1.852 4.328 3.015 5.388 2.235 2.038 4.76-.932 2.7-2.899z" stroke-width=".22457" />
      <path d="M236.53 195.347c-.899-.856-2.871-1.54-4.23-1.849.472 1.291 1.376 3.202 2.237 3.987 1.655 1.51 3.519-.682 1.992-2.138z" stroke-width=".22457" />
      <path style="marker:none" d="M236.479 195.316a2.21 2.21 0 00-1.382.684c-.476.518-.558.984-.569 1.4M234.61 194.28c-.31.072-.719.362-.868.53-.162.18-.359.635-.4.869" color="#000" stroke-linecap="round" stroke-linejoin="round" overflow="visible" stroke-width=".22457" />
   </g>
   <g fill="none" stroke="#c13c1b">
      <path d="M245.205 177.536c-1.602-.488-4.398-.113-6.224.341 1.35 1.275 3.598 3.037 5.113 3.462 2.911.817 3.835-2.971 1.111-3.803z" stroke-width=".22457" />
      <path d="M245.022 178.028c-1.186-.362-3.256-.087-4.608.247 1.001.942 2.667 2.243 3.788 2.558 2.157.606 2.838-2.19.82-2.805z" stroke-width=".22457" />
      <path d="M244.963 178.024a2.21 2.21 0 00-.927 1.23c-.193.677-.057 1.13.12 1.507M242.83 177.937c-.246.203-.481.646-.54.862-.063.234-.035.73.033.956" style="marker:none" color="#000" stroke-linecap="round" stroke-linejoin="round" overflow="visible" stroke-width=".22457" />
   </g>
   <g fill="none" stroke="#c13c1b">
      <path d="M243.841 181.91c-1.548-.64-4.367-.532-6.228-.254 1.223 1.398 3.292 3.366 4.76 3.933 2.82 1.091 4.1-2.592 1.468-3.68z" stroke-width=".22457" />
      <path d="M243.613 182.382c-1.147-.473-3.233-.397-4.611-.193.906 1.032 2.44 2.487 3.527 2.907 2.09.808 3.033-1.91 1.084-2.714z" stroke-width=".22457" />
      <path d="M243.554 182.372a2.21 2.21 0 00-1.04 1.136c-.257.656-.165 1.12-.024 1.511M241.438 182.082c-.264.18-.54.597-.619.807-.085.227-.104.723-.058.955" style="marker:none" color="#000" stroke-linecap="round" stroke-linejoin="round" overflow="visible" stroke-width=".22457" />
   </g>
   <g fill="none" stroke="#c13c1b">
      <path d="M229.791 201.692c-.833-1.454-3.127-3.095-4.769-4.015.111 1.854.542 4.677 1.355 6.024 1.562 2.59 4.83.462 3.414-2.01z" stroke-width=".22457" />
      <path d="M229.321 201.925c-.617-1.076-2.313-2.293-3.527-2.976.085 1.371.407 3.46 1.008 4.458 1.157 1.919 3.567.349 2.52-1.482z" stroke-width=".22457" />
      <path style="marker:none" d="M229.281 201.881a2.21 2.21 0 00-1.518.262c-.605.36-.816.784-.945 1.18M227.786 200.356c-.319-.02-.793.142-.984.26-.206.127-.524.507-.63.72" color="#000" stroke-linecap="round" stroke-linejoin="round" overflow="visible" stroke-width=".22457" />
   </g>
   <g fill="none" stroke="#c13c1b">
      <path d="M233.405 198.718c-1.059-1.3-3.589-2.545-5.359-3.187.411 1.811 1.295 4.527 2.316 5.724 1.962 2.302 4.84-.329 3.043-2.537z" stroke-width=".22457" />
      <path d="M232.979 199.024c-.784-.962-2.655-1.887-3.964-2.363.306 1.34.963 3.348 1.72 4.235 1.452 1.705 3.575-.236 2.244-1.872z" stroke-width=".22457" />
      <path d="M232.932 198.987a2.21 2.21 0 00-1.456.505c-.538.455-.677.907-.74 1.318M231.208 197.726c-.317.032-.758.268-.928.415-.183.16-.435.586-.505.813" style="marker:none" color="#000" stroke-linecap="round" stroke-linejoin="round" overflow="visible" stroke-width=".22457" />
   </g>
   <g fill="none" stroke="#c13c1b">
      <path d="M225.667 204.117c-.671-1.535-2.774-3.415-4.307-4.507-.09 1.854.033 4.708.695 6.135 1.272 2.744 4.75.982 3.612-1.628z" stroke-width=".22457" />
      <path d="M225.174 204.298c-.497-1.137-2.051-2.53-3.184-3.34-.064 1.372.03 3.484.52 4.541.942 2.032 3.508.732 2.664-1.2z" stroke-width=".22457" />
      <path style="marker:none" d="M225.14 204.25a2.21 2.21 0 00-1.539.096c-.64.293-.895.691-1.066 1.07M223.817 202.572c-.314-.054-.803.055-1.005.152-.22.104-.577.447-.705.646" color="#000" stroke-linecap="round" stroke-linejoin="round" overflow="visible" stroke-width=".22457" />
   </g>
   <g fill="none" stroke="#c13c1b">
      <path d="M216.946 207.035c-.298-1.648-1.91-3.963-3.15-5.38-.515 1.784-1.054 4.589-.74 6.13.605 2.964 4.396 2.053 3.89-.75z" stroke-width=".22457" />
      <path d="M216.425 207.098c-.22-1.221-1.411-2.936-2.326-3.986-.38 1.32-.776 3.397-.543 4.539.447 2.195 3.244 1.522 2.87-.553z" stroke-width=".22457" />
      <path d="M216.402 207.043a2.21 2.21 0 00-1.518-.262c-.69.137-1.031.466-1.285.795M215.504 205.105c-.294-.125-.794-.132-1.014-.085-.237.05-.664.303-.835.467" style="marker:none" color="#000" stroke-linecap="round" stroke-linejoin="round" overflow="visible" stroke-width=".22457" />
   </g>
   <g fill="none" stroke="#c13c1b">
      <path d="M221.348 205.84c-.458-1.611-2.288-3.757-3.66-5.046-.34 1.826-.602 4.67-.138 6.173.891 2.89 4.576 1.613 3.798-1.127z" stroke-width=".22457" />
      <path d="M220.836 205.953c-.34-1.193-1.692-2.783-2.705-3.739-.25 1.352-.44 3.457-.097 4.57.66 2.141 3.378 1.198 2.802-.83z" stroke-width=".22457" />
      <path style="marker:none" d="M220.808 205.9a2.21 2.21 0 00-1.537-.111c-.674.204-.98.564-1.201.917M219.724 204.06c-.304-.096-.803-.053-1.017.015-.231.074-.632.366-.786.546" color="#000" stroke-linecap="round" stroke-linejoin="round" overflow="visible" stroke-width=".22457" />
   </g>
   <g fill="none" stroke="#c13c1b">
      <path d="M212.532 207.794c-.122-1.67-1.479-4.143-2.56-5.684-.703 1.72-1.537 4.45-1.388 6.017.286 3.011 4.153 2.508 3.948-.333z" stroke-width=".22457" />
      <path d="M212.007 207.801c-.09-1.237-1.092-3.069-1.89-4.21-.518 1.273-1.133 3.296-1.022 4.455.211 2.23 3.064 1.86 2.912-.245z" stroke-width=".22457" />
      <path d="M211.99 207.744a2.21 2.21 0 00-1.482-.422c-.701.064-1.075.354-1.362.655M211.302 205.722c-.278-.156-.776-.215-.998-.192-.242.025-.693.23-.88.375" style="marker:none" color="#000" stroke-linecap="round" stroke-linejoin="round" overflow="visible" stroke-width=".22457" />
   </g>
   <g fill="none" stroke="#c13c1b">
      <path d="M175.635 201.624c1.003-1.342 1.597-4.099 1.788-5.972-1.657.839-4.076 2.357-4.989 3.638-1.756 2.463 1.496 4.615 3.201 2.334z" stroke-width=".22457" />
      <path d="M175.234 201.286c.742-.994 1.185-3.034 1.33-4.42-1.226.623-3.015 1.749-3.691 2.698-1.3 1.824 1.098 3.411 2.361 1.722z" stroke-width=".22457" />
      <path style="marker:none" d="M175.258 201.231a2.21 2.21 0 00-.843-1.29c-.572-.41-1.044-.435-1.458-.397M176.063 199.253c-.108-.3-.445-.67-.629-.8-.198-.138-.674-.28-.91-.292" color="#000" stroke-linecap="round" stroke-linejoin="round" overflow="visible" stroke-width=".22457" />
   </g>
   <g fill="none" stroke="#c13c1b">
      <path d="M179.81 203.842c.882-1.424 1.235-4.222 1.264-6.105-1.578.98-3.857 2.7-4.655 4.056-1.536 2.606 1.89 4.468 3.39 2.049z" stroke-width=".22457" />
      <path d="M179.38 203.539c.654-1.055.919-3.125.943-4.518-1.167.726-2.852 2.003-3.444 3.007-1.137 1.93 1.39 3.303 2.502 1.511z" stroke-width=".22457" />
      <path d="M179.4 203.483a2.21 2.21 0 00-.951-1.212c-.605-.36-1.078-.344-1.487-.27M180.03 201.442c-.133-.29-.5-.63-.695-.742-.21-.121-.696-.22-.932-.213" style="marker:none" color="#000" stroke-linecap="round" stroke-linejoin="round" overflow="visible" stroke-width=".22457" />
   </g>
   <g fill="none" stroke="#c13c1b">
      <path d="M171.656 198.936c1.192-1.176 2.194-3.813 2.665-5.635-1.764.58-4.384 1.716-5.48 2.846-2.105 2.17.786 4.787 2.815 2.789z" stroke-width=".22457" />
      <path d="M171.31 198.54c.883-.87 1.628-2.82 1.979-4.169-1.305.432-3.243 1.276-4.055 2.112-1.56 1.608.573 3.538 2.076 2.058z" stroke-width=".22457" />
      <path d="M171.342 198.49a2.21 2.21 0 00-.64-1.4c-.503-.493-.966-.59-1.381-.613M172.435 196.656c-.062-.313-.339-.73-.501-.885-.176-.167-.625-.378-.857-.426" style="marker:none" color="#000" stroke-linecap="round" stroke-linejoin="round" overflow="visible" stroke-width=".22457" />
   </g>
   <g fill="none" stroke="#c13c1b">
      <path d="M164.835 192.178c1.468-.806 3.151-3.069 4.102-4.694-1.856.077-4.687.456-6.048 1.243-2.619 1.514-.552 4.82 1.946 3.451z" stroke-width=".22457" />
      <path d="M164.61 191.704c1.087-.597 2.336-2.27 3.04-3.472-1.372.06-3.467.343-4.476.926-1.939 1.121-.414 3.56 1.436 2.546z" stroke-width=".22457" />
      <path style="marker:none" d="M164.655 191.665a2.21 2.21 0 00-.234-1.523c-.35-.611-.769-.83-1.162-.966M166.207 190.198c.026-.318-.127-.795-.241-.988-.124-.21-.498-.534-.708-.644" color="#000" stroke-linecap="round" stroke-linejoin="round" overflow="visible" stroke-width=".22457" />
   </g>
   <g fill="none" stroke="#c13c1b">
      <path d="M168.023 195.802c1.335-1.012 2.669-3.497 3.372-5.244-1.825.347-4.57 1.136-5.802 2.114-2.369 1.88.16 4.849 2.43 3.13z" stroke-width=".22457" />
      <path d="M167.731 195.365c.989-.75 1.98-2.587 2.501-3.878-1.35.259-3.38.845-4.293 1.57-1.755 1.392.11 3.582 1.792 2.308z" stroke-width=".22457" />
      <path d="M167.77 195.32a2.21 2.21 0 00-.454-1.473c-.435-.553-.882-.708-1.29-.786M169.09 193.642c-.02-.319-.241-.768-.382-.942-.153-.19-.57-.456-.794-.534" style="marker:none" color="#000" stroke-linecap="round" stroke-linejoin="round" overflow="visible" stroke-width=".22457" />
   </g>
   <g fill="none" stroke="#c13c1b">
      <path d="M162.323 188.267c1.502-.74 3.282-2.928 4.302-4.51-1.857-.005-4.701.25-6.096.978-2.682 1.398-.76 4.791 1.794 3.532z" stroke-width=".22457" />
      <path d="M162.119 187.784c1.112-.55 2.432-2.167 3.19-3.336-1.375 0-3.48.191-4.513.73-1.987 1.035-.57 3.538 1.323 2.606z" stroke-width=".22457" />
      <path style="marker:none" d="M162.165 187.746a2.21 2.21 0 00-.167-1.531c-.322-.626-.732-.863-1.118-1.016M163.78 186.348c.04-.316-.092-.8-.198-.997-.114-.214-.474-.555-.679-.674" color="#000" stroke-linecap="round" stroke-linejoin="round" overflow="visible" stroke-width=".22457" />
   </g>
   <g fill="none" stroke="#c13c1b">
      <path d="M158.628 179.594c1.609-.467 3.745-2.309 5.026-3.687-1.827-.33-4.672-.577-6.173-.105-2.886.906-1.589 4.584 1.147 3.792z" stroke-width=".22457" />
      <path d="M158.512 179.082c1.191-.346 2.774-1.707 3.725-2.725-1.353-.242-3.46-.422-4.571-.073-2.137.672-1.18 3.385.846 2.798z" stroke-width=".22457" />
      <path d="M158.564 179.053a2.21 2.21 0 00.104-1.537c-.208-.672-.57-.977-.923-1.196M160.399 177.96c.094-.305.049-.804-.02-1.017-.075-.23-.37-.63-.55-.783" style="marker:none" color="#000" stroke-linecap="round" stroke-linejoin="round" overflow="visible" stroke-width=".22457" />
   </g>
   <g fill="none" stroke="#c13c1b">
      <path d="M160.16 183.933c1.567-.594 3.549-2.6 4.716-4.078-1.848-.182-4.704-.2-6.162.39-2.804 1.134-1.217 4.696 1.446 3.688z" stroke-width=".22457" />
      <path d="M160.004 183.432c1.16-.44 2.629-1.923 3.495-3.014-1.368-.133-3.482-.144-4.562.293-2.077.84-.906 3.467 1.067 2.72z" stroke-width=".22457" />
      <path style="marker:none" d="M160.054 183.4a2.21 2.21 0 00-.02-1.542c-.26-.653-.646-.928-1.016-1.118M161.795 182.162c.07-.31-.015-.804-.101-1.011-.093-.225-.419-.599-.611-.737" color="#000" stroke-linecap="round" stroke-linejoin="round" overflow="visible" stroke-width=".22457" />
   </g>
   <path d="M248.265 177.518l-26.787-7.795-39.165-4.193-27.784 10.413c4.997 22.963 23.07 34.203 45.132 34.974 20.896.727 30.726-4.517 37.644-11.678 6.575-6.807 9.733-15.344 10.96-21.721z" fill="none" stroke="#000" stroke-width=".22449" stroke-linecap="round" stroke-linejoin="round" />
   <path d="M191.228 179.853c-9.707-5.887-6.833-8.549-11.71-25.604-4.653.07-11.44-.529-13.796-1.593-1.858-.838-2.45-1.852-3.04-3.967-.334-1.199.017-3.115.526-5.185-.655-.916-1.78-1.183-2.697-1.735-.82-1.083-.273-2.215-.151-2.7-.578-.661-1.23-1.706-.831-2.599.664-1.102.917-2.19.289-3.246-2.457-.235-6.94-1.748-4.57-7.194 2.135-4.91 5.463-10.371 8.3-15.622l3.178-10.647c9.552.393 28.1-2.313 29.673 12.518l8.257.645 4.12.816-.034.12 3.9-.3c-2.11 7.492-4.305 9.756-7.815 68.947-2.567.264-8.47-.032-13.599-2.654z" fill="#f5ca44" fill-rule="evenodd" stroke="#000" stroke-width=".205" />
   <path d="M167.222 104.223c3.29-1.83 6.56-2.31 9.912-2.118 1.75.1 3.972.552 5.81 1.82 7.275 5.016 7.281 4.424 10.034 5.348.129.194.32.392.012.547-1.406-.117-3.37-.73-5.38-1.51-1.874-.727-3.923-2.486-6.842-3.457-2.152-.717-4.592-.798-6.903-.737-2.136.057-4.281.85-6.752 1.64-.564.181-2.076-.317.109-1.533zM165.95 112.35c2.92-3.118 5.587-3.765 7.9-3.993 3.536-.35 8.9.213 11.755 1.38 2.05.84 4.098.487 6.67 1.035.48.102.493.892.003.924-2.412.155-5.118-.253-7.196.51-2.537.93-5.286 2.08-7.028 2.706-1.683.605-3.887 1.023-7.405.128-1.159-.295-2.188-.411-3.421.116-3.078 1.317-3.055-.91-1.278-2.807z" fill-rule="evenodd" stroke="#000" stroke-width=".205" />
   <path d="M159.558 136.58c4.782-.432 6.218 1.733 10.49 1.68M160.584 141.776c5.318.167 6.632-2.229 9.72-2.93" fill="none" stroke="#000" stroke-width=".105" stroke-linecap="round" stroke-linejoin="round" />
   <path d="M160.326 139.12c1.75.371 6.3.063 7.918-.165" fill="none" stroke="#000" stroke-width=".21" stroke-linecap="round" stroke-linejoin="round" />
   <path d="M167.336 113.37c.78-1.43 1.95-1.667 2.98-2.33-.028 1.01.457 1.77 1.294 2.272-1.04-.007-3.711-.204-4.274.059zM179.475 110.042c-.017 1.261-.196 2.471-1.228 3.41 1.794-.29 3.569-1.73 5.026-3.072-1.26.27-2.426-.142-3.798-.338z" fill="#fff" fill-rule="evenodd" stroke="#000" stroke-width=".21" />
   <path d="M162.06 127.615c3.761 3.046 1.74 4.93-.036 4.852-1.758-.078-4.297-3.064-4.93-1.389-.638 1.692 2.85 1.09 2.799.611" fill="none" stroke="#000" stroke-width=".084" />
   <path d="M210.23 123.345c-3.62 2.232-8.034 24.311-8.16 37.745-1.774 25.17-2.178 50.617-4.178 75.77l24.377.964 2-67.234" fill="#025" fill-rule="evenodd" stroke="#000" stroke-width=".205" stroke-linecap="round" stroke-linejoin="round" />
   <path d="M187.515 642.768h27.418c5.986-37.83 3.795-79.901 1.007-113.276 5.595-51.135 11.774-107.838 14.001-159.733 27.414-18.16-7.954-67.376-5.091-75.942 2.24-15.194 7.335-28.203 13.544-41.81h-89.131c1.428 4.343 7.384 9.251 9.781 11.25 9.813 6.864 7.687 15.063 6.6 22.8-11.225 79.878-21.416 114.683 1.8 228.597-1.857 13.574 1.2 24.2 1.8 36.3-3.18 30.599-5.59 61.198-5.4 91.798l23.671.016z" fill="#c13c1b" fill-rule="evenodd" stroke="#000" stroke-width=".42" stroke-linecap="round" stroke-linejoin="round" />
   <g>
      <path d="M237.587 252.518l-3.096 7.067h-79.017c-2.122-2.146-4.322-4.701-5.511-7.067h87.624z" fill="#fff" fill-rule="evenodd" stroke="#fff" stroke-width=".63" />
      <path d="M150.294 253.636h87.187M155.478 259.73h79.237M153.662 258.083h81.823" fill="none" stroke="#000" stroke-width=".42" stroke-linecap="round" stroke-linejoin="round" />
      <g fill="none" stroke="#000" stroke-width="2" stroke-linecap="round" stroke-linejoin="round">
         <path d="M155.096 253.828v4.026M156.992 253.828v4.026M159 253.828v4.026" stroke-width=".42" />
      </g>
      <g fill="none" stroke="#000" stroke-width="2" stroke-linecap="round" stroke-linejoin="round">
         <path d="M169.842 253.828v4.026M171.738 253.828v4.026M173.746 253.828v4.026" stroke-width=".42" />
      </g>
      <g fill="none" stroke="#000" stroke-width="2" stroke-linecap="round" stroke-linejoin="round">
         <path d="M184.018 253.828v4.026M185.914 253.828v4.026M187.922 253.828v4.026" stroke-width=".42" />
      </g>
      <g fill="none" stroke="#000" stroke-width="2" stroke-linecap="round" stroke-linejoin="round">
         <path d="M198.494 253.828v4.026M200.39 253.828v4.026M202.398 253.828v4.026" stroke-width=".42" />
      </g>
      <g fill="none" stroke="#000" stroke-width="2" stroke-linecap="round" stroke-linejoin="round">
         <path d="M213.807 253.828v4.026M215.703 253.828v4.026M217.712 253.828v4.026" stroke-width=".42" />
      </g>
      <g fill="none" stroke="#000" stroke-width="2" stroke-linecap="round" stroke-linejoin="round">
         <path d="M227.384 253.828v4.026M229.28 253.828v4.026M231.288 253.828v4.026" stroke-width=".42" />
      </g>
   </g>
   <path d="M215.435 635.551l-.974 6.996-50.153-.159.062-6.854 51.065.017z" fill="#fff" fill-rule="evenodd" stroke="#fff" stroke-width=".63" />
   <path d="M163.818 636.598h51.833M164.114 642.693h50.72M163.818 641.046h51" fill="none" stroke="#000" stroke-width=".42" stroke-linecap="round" stroke-linejoin="round" />
   <g fill="none" stroke="#000" stroke-width="2" stroke-linecap="round" stroke-linejoin="round">
      <path d="M166.96 636.79v4.027M168.855 636.79v4.027M170.863 636.79v4.027" stroke-width=".42" />
   </g>
   <g fill="none" stroke="#000" stroke-width="2" stroke-linecap="round" stroke-linejoin="round">
      <path d="M179.756 636.79v4.027M181.652 636.79v4.027M183.66 636.79v4.027" stroke-width=".42" />
   </g>
   <g fill="none" stroke="#000" stroke-width="2" stroke-linecap="round" stroke-linejoin="round">
      <path d="M193.913 636.79v4.027M195.81 636.79v4.027M197.818 636.79v4.027" stroke-width=".42" />
   </g>
   <g fill="none" stroke="#000" stroke-width="2" stroke-linecap="round" stroke-linejoin="round">
      <path d="M207.848 636.79v4.027M209.744 636.79v4.027M211.753 636.79v4.027" stroke-width=".42" />
   </g>
   <path d="M163.902 635.19h51.958" fill="none" stroke="#000" stroke-width=".42" stroke-linecap="round" stroke-linejoin="round" />
   <g fill-rule="evenodd" stroke="#000" stroke-linecap="round" stroke-linejoin="round">
      <path d="M146.1 179.17l12.427 72.879h12.494l-18.283-75.392-6.637 2.512z" fill="#fff" stroke-width=".21" />
      <path d="M147.262 178.723l13.178 73.326h8.78l-17.84-74.897-4.118 1.571z" fill="#c13c1b" stroke-width=".21" />
   </g>
   <g fill-rule="evenodd" stroke="#000" stroke-linecap="round" stroke-linejoin="round">
      <path d="M247.861 177.436l-22.578 74.572h10.5l18.027-72.595-5.949-1.977z" fill="#fff" stroke-width=".21" />
      <path d="M249.045 177.827l-21.853 74.18h6.682l18.654-73.072-3.483-1.108z" fill="#c13c1b" stroke-width=".21" />
   </g>
   <g fill-rule="evenodd" stroke="#000" stroke-linecap="round" stroke-linejoin="round">
      <path d="M122.076 218.45l26.278 5.302-2.938 14.558-27.102-5.239 3.762-14.622z" fill="#fac53a" stroke-width=".21" />
      <path d="M121.637 220.12l26.383 5.467-.981 4.792-26.626-5.53 1.224-4.73zM120.046 226.537l26.608 5.617-.981 4.452-26.851-5.34 1.224-4.73z" fill="#04a" stroke-width=".21" />
   </g>
   <g fill-rule="evenodd" stroke="#000" stroke-linecap="round" stroke-linejoin="round">
      <path d="M56.153 384.178l13.374 10.313-8.411 9.881-10.845-10.615 5.882-9.579z" fill="#fac53a" stroke-width=".21" />
      <path d="M55.361 385.466l12.872 10.32-2.481 2.931-12.1-10.334 1.71-2.917zM52.71 389.709l12.121 10.244-2.48 2.932L51 392.625l1.709-2.916z" fill="#04a" stroke-width=".21" />
   </g>
   <g stroke="#c13c1b" stroke-width="2">
      <path d="M198.706 224.238l23.97 1.114-.477 12.41-24.342-.53.849-12.994z" fill="#fac53a" fill-rule="evenodd" stroke-linecap="round" stroke-linejoin="round" stroke-width=".42" />
   </g>
   <path d="M160.11 131.703c-1.322-.784-2.593-1.743-3.015-.625-.639 1.692 2.85 1.09 2.798.611" fill-rule="evenodd" stroke="#000" stroke-width=".084" />
   <path d="M167.752 153.25c12.134 1.962 17.545.662 22.005-2.378M180.597 157.816c3.104-.139 6.132-1.402 9.15-2.7M181.497 161.635c4.103.774 6.761-1.538 9.75-2.85" fill="none" stroke="#000" stroke-width=".105" />
   <g fill-rule="evenodd" stroke="#000" stroke-linecap="round" stroke-linejoin="round">
      <path d="M252.35 226.871l26.786 1.097-.234 14.99-27.663-.636 1.112-15.45z" fill="#fac53a" stroke-width=".21" />
      <path d="M252.18 228.59l26.915 1.244-.064 4.886-27.015-1.267.164-4.863zM251.695 235.178l27.235 1.356-.042 4.625-27.582-.818.39-5.163z" fill="#04a" stroke-width=".21" />
   </g>
   <g fill-rule="evenodd" stroke="#000" stroke-linecap="round" stroke-linejoin="round">
      <path d="M163.468 650.286l23.274 1.01-1.106 14.915-24.693-1.424 2.525-14.5z" fill="#fac53a" stroke-width=".21" />
      <path d="M163.208 651.836l23.43 1.25-.237 4.214-24.023-.802.83-4.662zM162.123 658.572l24.044 1.104-.293 4.363-24.604-.762.853-4.705z" fill="#04a" stroke-width=".21" />
   </g>
   <g fill-rule="evenodd" stroke="#000" stroke-linecap="round" stroke-linejoin="round">
      <path d="M190.48 652.414l24.355-.058-.156 14.95-25.316-.29 1.116-14.602z" fill="#fac53a" stroke-width=".21" />
      <path d="M190.343 653.974l24.47.176-.043 4.22-24.672.299.245-4.695zM189.886 660.753h24.811l-.093 4.747-25.142-.008.424-4.74z" fill="#04a" stroke-width=".21" />
   </g>
   <g fill-rule="evenodd" stroke="#000" stroke-linecap="round" stroke-linejoin="round">
      <path d="M254.336 389.858l20.418.159-.849 12.887-19.463-.743-.106-12.303z" fill="#fac53a" stroke-width=".21" />
      <path d="M254.336 391.714l20.259.265-.209 3.982-19.997-.315-.053-3.932z" fill="#04a" stroke-width=".21" />
      <path d="M254.336 389.858l20.418.159-.849 12.887-19.463-.743-.106-12.303z" fill="#fac53a" stroke-width=".21" />
      <path d="M254.336 391.714l20.259.265-.209 3.982-19.997-.315-.053-3.932zM254.336 396.889l19.94.265-.208 3.981-19.679-.314-.053-3.932z" fill="#04a" stroke-width=".21" />
   </g>
   <g fill="none" stroke="#c13c1b" stroke-width="3" stroke-linecap="round" stroke-linejoin="round">
      <path d="M199.442 225.608l21.675.825M199.367 227.558l21.675.825M199.367 229.658l21.675.825M199.292 231.608l21.675.825M199.367 233.633l21.675.675M199.217 235.733l21.75.525" stroke-width=".63" />
   </g>
   <g stroke="#000">
      <path d="M202.228 116.99c-3.537-2.46-3.516-6.068-2.241-7.99 3.056-4.61 5.32-5.363 7.417-4.698 4.053 1.286 3.315 6.353 2.235 10.67-1.05 4.191-4.486 6.913-6.44 10.379-1.216 2.157-1.795 3.66-2.569 4.457-.897.922-2.451 2.254-4.494 1.204-2.252-1.158-1.61-3.962-.302-7.477 1.039-2.787 3.846-5.036 5.253-5.79" fill="#f5ca44" fill-rule="evenodd" stroke-width=".20454" />
      <path d="M198.965 124.68c-.95-.349 2.218-2.838 3.9-5.14 2.17-2.969.065-4.457-.836-6.386-1.483-3.174 1.412-7.774 4.206-6.917 3.326 1.021 4.574 5.433.126 11.754-1.997 2.838-5.313 7.454-7.396 6.689z" fill="none" stroke-width=".21" />
      <path d="M199.106 128.278a1.312 1.425 2.819 11-2.622-.13 1.312 1.425 2.819 112.622.13z" style="marker:none" color="#000" fill="none" stroke-linecap="round" stroke-linejoin="round" overflow="visible" stroke-width=".21" />
   </g>
   <g>
      <path d="M250.478 89.902l-21.4 58.56-9.02-3.837 26.134-57.488c-17.765 5.83-53.386 3.35-76.899 1.68.65-1.762 2.51-5.343 2.697-5.343 34.758 3.785 67.594.919 73.532-1.196" fill="#fff" fill-rule="evenodd" stroke="#000" stroke-width=".21" stroke-linecap="round" stroke-linejoin="round" />
      <path d="M246.784 82.454c.312-.253.411-.47.425-.672 2.38-8.935 7.481-8.69 9.308-7.255 4.89 4.267-.154 6.34-4.37 12.086l28.832 59.087-7.61 3.255-23.491-59.053-21.85 58.034-6.995-2.936 26.609-59.246c-15.73 6.699-54.053 4.186-78.134 2.368.808-1.763 1.724-3.667 1.938-3.906 34.758 3.786 69.4.352 75.338-1.762z" fill="#d40000" fill-rule="evenodd" />
      <path d="M251.747 83.87c-1.018-2.564.185-4.736 1.687-5.594" fill="none" stroke="#000" stroke-width=".21" />
      <path d="M249.765 89.902c-1.977-4.808-3.136-6.388-2.615-8.116 2.699-8.948 7.428-8.695 9.255-7.26 4.89 4.268-.155 6.342-4.37 12.087l28.831 59.087-7.609 3.255s-16.644-42.402-23.492-59.053z" fill="none" stroke="#000" stroke-width=".21" stroke-linecap="round" stroke-linejoin="round" />
   </g>
</svg>