<svg width="391" height="600" xmlns="http://www.w3.org/2000/svg">
    <path d="M325.83 580.45C142.61 480.59 42.81 390.18 13.54 297.56.16 255.19-3.79 197.86 3.89 157.63c9.35-49.06 29.24-87.64 59.97-116.3 17.37-16.19 35.17-25.87 63.42-34.52 17.02-5.18 20.87-5.59 53.96-5.59 34.48.02 36.34.22 56.74 6.61 28.9 9.01 43.99 16.96 57.98 30.51 28.9 27.97 40.42 76.15 30 125.47-4.99 23.63-8.86 33.36-19.98 50.3-21.49 32.76-64.07 58.35-100.03 60.08-32.16 1.55-56.47-7.06-78.08-27.64-25.66-24.45-36.78-65.92-26.05-97.08 5.93-17.16 12.26-26.97 25.87-39.9 15.94-15.2 30.44-22.52 42.94-21.71 8.68.55 9.88 1.31 14.14 8.75 3.13 5.47 4.48 10.76 4.13 16.19-.49 7.57-1.28 8.48-12.75 14.89-14.23 7.95-21.5 14.38-29.85 26.4-15.17 21.84-13.36 33.94 8.31 55.56 14.07 14.06 31.38 23.9 45.21 25.75 6.03.82 11.14-.69 24.68-7.24 13.6-6.57 19.96-11.27 31.22-23.12 23.4-24.63 37.47-57.18 34.39-79.53-6.96-50.62-41.11-79.1-104.28-86.93-18.68-2.32-25.78-1.6-44.68 4.42-50.73 16.21-98.26 85.93-103.68 152.05-2.87 35.17 12.67 88.33 37.82 129.36 20.48 33.41 58.83 75.86 92.72 102.65 30.67 24.22 92.62 63.84 172.08 110.03 21.83 12.71 42.21 25.87 45.27 29.27 12.4 13.75 3.42 33.72-15.07 33.58-7.23-.06-15.25-3.58-44.46-19.49m51.42 5.7c8.64-7.4 1.84-13.53-45.31-40.92-79.3-46.09-141.37-85.79-172.08-110.04-33.88-26.78-72.21-69.19-92.72-102.65-34.54-56.3-46.82-123.19-32.48-176.95 9.02-33.86 29.69-69.11 54.5-92.95 29.48-28.31 59.58-37.75 103.29-32.38 55.9 6.86 87.42 27.58 100.88 66.35 6.01 17.33 7.41 43.42 3.22 59.76-8.55 33.17-34.42 65.73-63.25 79.54-19.92 9.56-27.64 11.13-40.61 8.22-17.45-3.93-32.12-12.27-46.25-26.34-15.33-15.27-21.38-28.78-19.67-43.93 2.22-19.73 19.28-42.55 40.1-53.64 6.78-3.6 12.34-7.64 12.34-8.99-.02-2.8-7.56-15.64-9.21-15.64-4.8 0-24.5 12.86-34.72 22.66-13.6 13.04-20.85 24.81-26.51 43-3.22 10.37-3.36 13.26-1.08 24.4 8.12 39.93 38.85 71.29 77.2 78.84 16.03 3.15 26.37 1.93 44.09-5.17 29.91-12 53.97-30.63 68.85-53.35 11.12-16.94 14.99-26.66 19.98-50.3 4.97-23.55 4.93-34.21-.24-54.42-5.93-23.19-15.69-41.17-29.76-54.78-14.03-13.58-29.16-21.53-57.98-30.46-19.26-5.96-23.48-6.53-48.59-6.59-24.31-.06-29.61.57-45.82 5.53-49.14 15.03-79.11 40.8-102.92 88.51C17.21 134.14 8.15 171.95 8.15 205.2c0 22.56 6.15 60.83 13.54 84.22 25.66 81.22 103.74 158.95 246.1 245.01 41.98 25.36 101.32 57.33 103.82 55.93 1.14-.63 3.69-2.52 5.64-4.21" />
    <path fill="#757575" d="M333.94 572.2C151.84 473.41 50.95 382.05 21.69 289.42 14.3 266.03 8.15 227.76 8.15 205.2c0-33.25 9.06-71.06 24.35-101.74 11.59-23.22 22.48-38.11 39.51-54 17.39-16.21 35.25-25.93 63.41-34.47 16.09-4.86 21.69-5.55 45.82-5.55 25.24.02 29.23.55 48.59 6.57 28.84 8.93 43.97 16.88 57.98 30.46 14.07 13.61 23.83 31.59 29.76 54.78 5.17 20.21 5.21 30.87.24 54.42-4.99 23.64-8.86 33.36-19.98 50.3-14.88 22.72-38.94 41.35-68.85 53.35-17.72 7.1-28.06 8.32-44.09 5.17-38.35-7.55-69.08-38.91-77.2-78.84-2.28-11.14-2.14-14.03 1.08-24.4 5.66-18.19 12.91-29.96 26.51-43 10.22-9.8 29.92-22.66 34.72-22.66 1.65 0 9.19 12.84 9.21 15.64 0 1.35-5.56 5.39-12.34 8.99-20.82 11.09-37.88 33.91-40.1 53.64-3.16 28 28.63 61.91 65.92 70.27 12.97 2.91 20.69 1.34 40.61-8.22 28.83-13.81 54.7-46.37 63.25-79.54 4.19-16.34 2.79-42.43-3.22-59.76-13.46-38.77-44.98-59.49-100.88-66.35-31.57-3.88-57.53.59-80.28 13.83-13.34 7.75-34.97 29.23-47.08 46.72-43.58 62.97-48 137.35-12.75 214.27 19.34 42.21 62.76 94.74 107.52 130.11 30.71 24.25 92.78 63.95 172.08 110.04 36.98 21.5 48.88 30.14 48.88 35.65 0 2.12-4.75 7-9.21 9.48-1.14.65-18.08-7.53-37.67-18.16" />
</svg>