<svg width="707" height="600" xmlns="http://www.w3.org/2000/svg">
    <path d="M3.66 596.34C.04 592.72 0 590.25 0 300.35 0 50.76.38 7.5 2.6 4.46 5.15.97 11.1.91 352.42.44c345.55-.46 347.24-.46 350.9 3.2C706.98 7.3 707 9.38 707 300c0 290.25-.04 292.72-3.66 296.34-3.65 3.64-6.1 3.66-349.84 3.66-343.74 0-346.19-.02-349.84-3.66m346.18-198.47c0-194.22.03-196.69 3.66-200.31 3.33-3.33 6.1-3.66 31.14-3.66s27.8.33 31.13 3.66c3.61 3.6 3.67 6.09 3.67 166.1 0 123.89.51 162.95 2.2 164.63 3.16 3.17 210.39 3.17 213.56 0 3.19-3.18 3.19-453.4 0-456.58-3.19-3.19-556.55-3.19-559.74 0-1.68 1.68-2.2 62.49-2.2 262.5v260.3h276.58V397.87M58.25 586.83c1.68-1.68 2.19-62.27 2.19-261.59 0-256.95.04-259.42 3.67-263.04 3.62-3.63 6.1-3.66 290.31-3.66s286.68.03 290.31 3.66c3.62 3.62 3.66 6.09 3.66 237.8s-.04 234.18-3.66 237.8c-3.59 3.59-6.1 3.66-116.31 3.66-110.21 0-112.72-.07-116.31-3.66-3.61-3.6-3.66-6.09-3.66-166.09 0-123.9-.51-162.95-2.2-164.64-3.02-3.02-40.2-3.02-43.23 0-3.18 3.19-3.18 376.58 0 379.76 3.19 3.18 327.61 3.18 330.79 0 3.19-3.18 3.19-570.48 0-573.66-3.2-3.2-675.59-3.2-678.79 0-3.19 3.18-3.19 570.48 0 573.66 1.43 1.43 8.96 2.19 21.61 2.19 12.66 0 20.19-.76 21.62-2.19" />
    <path fill="#c55436" d="M15.02 586.83c-1.69-1.68-2.2-67.96-2.2-287.12 0-279.84.06-284.98 3.54-286.83 5.45-2.93 674.52-2.64 677.45.29 3.19 3.18 3.19 570.48 0 573.66-3.18 3.18-327.6 3.18-330.79 0-3.18-3.18-3.18-376.57 0-379.76 3.03-3.02 40.21-3.02 43.23 0 1.69 1.69 2.2 40.74 2.2 164.64 0 160 .05 162.49 3.66 166.09 3.59 3.59 6.1 3.66 116.31 3.66 110.21 0 112.72-.07 116.31-3.66 3.62-3.62 3.66-6.09 3.66-237.8s-.04-234.18-3.66-237.8c-3.63-3.63-6.1-3.66-290.31-3.66s-286.69.03-290.31 3.66c-3.63 3.62-3.67 6.09-3.67 263.04 0 199.32-.51 259.91-2.19 261.59-1.43 1.43-8.96 2.19-21.62 2.19-12.65 0-20.18-.76-21.61-2.19" />
    <path fill="#efcd84" d="M73.26 333.91c0-255.78.08-260.65 3.54-262.5 5.46-2.92 555.47-2.63 558.4.3 3.19 3.18 3.19 453.4 0 456.58-3.17 3.17-210.4 3.17-213.56 0-1.69-1.68-2.2-40.74-2.2-164.63 0-160.01-.06-162.5-3.67-166.1-3.33-3.33-6.09-3.66-31.13-3.66s-27.81.33-31.14 3.66c-3.63 3.62-3.66 6.09-3.66 200.31v196.64H73.26v-260.6" />
</svg>