<svg width="600" height="243" xmlns="http://www.w3.org/2000/svg">
    <path d="M11.21 240.03c-5.73-2.62-6.19-3.18-8.63-10.41-3.39-10.01-3.29-14.18.42-18.6 5.3-6.29 12.75-9 24.96-9.06 9.29-.04 12.34.5 22.64 4.11 11.16 3.91 12.75 4.16 25.59 3.97 15.14-.21 48.94-3.13 67.05-5.79 17.64-2.58 26.96-7.38 33.09-17.06 1.88-2.97 3.43-5.82 3.43-6.32s-2.43-3.9-5.4-7.54c-6.9-8.48-7.69-10.71-7.72-21.84-.02-10.56-1.94-25.28-3.49-26.83-.61-.62-5.32 2.34-11.3 7.12-20.48 16.34-25.75 18.36-35.33 13.47-3.73-1.92-5.42-3.85-7.56-8.68-2.58-5.83-3.13-6.31-8.73-7.74-6.93-1.79-15.55-6.9-22.05-13.11-4.6-4.37-9.13-11.75-9.13-14.86 0-1.81 18.46-29.79 36.69-55.6 13.81-19.54 33.8-42.32 38.62-44 3.85-1.34 8.16.24 11.91 4.4 2.1 2.31 2.17 2.3 7.65-.48 3.04-1.53 6.41-2.8 7.5-2.8 4.09 0 13.29 3.95 16.41 7.03 2.4 2.37 5.41 3.6 11.56 4.73 16.78 3.05 21.57 6.92 66.69 53.79 18.31 19.03 25.55 24.15 41.06 29.06 13.16 4.16 22.61 4.86 34.96 2.53 13.32-2.49 35.84-9.22 64.45-19.23l22.62-7.93 6.16-12.66c11.53-23.63 22.82-35.17 39.94-40.78 12.63-4.14 32.84-3.88 47.87.64 14.24 4.28 42.42 18.21 51.26 25.37 14.77 11.95 19.67 28.15 10.04 33.14-9.17 4.74-18.95.32-36.54-16.45-9.5-9.08-15.1-13.41-20.65-16.02-12.49-5.86-20.1-7.95-29.13-7.98-7.1-.03-9.62.56-16.07 3.75-6.74 3.32-20.28 14.96-18.88 16.22.28.27 4.54-.23 9.45-1.1 20.87-3.73 39.27-.49 61.9 10.87 30.88 15.5 55.84 42.99 63.74 70.21 1.69 5.8 1.93 10.35 1.42 26.73-.93 30.02-6.42 46.8-20.13 61.46-14.43 15.44-29.72 19.4-62.29 16.12-5.89-.6-34.88-1.74-64.43-2.55l-53.71-1.46-7.94 2.8-7.94 2.81-8.94-4.43-8.95-4.44-7.49 4.2c-8.55 4.79-11.99 5.1-21.17 1.94-14.11-4.86-17.62-8.17-15.39-14.56 1.02-2.95.84-3.92-1.11-5.87-2.63-2.63-2.92-4.97-1.05-8.47 1.93-3.61.81-3.73-4.97-.55-8.43 4.62-27.06 11.1-37.81 13.14-5.48 1.04-14.72 1.88-20.54 1.88-9.5 0-10.58.23-10.58 2.21 0 5.81-2.56 9.57-7.89 11.61-4.89 1.87-9.96 1.97-59.73 1.14-29.93-.5-68.23-1.08-85.12-1.31l-30.71-.4-4.16-3.65c-5.2-4.57-6.88-4.57-10.27.05-4.24 5.76-7.87 7.04-19.62 6.93-8.3-.08-11.74-.67-16.53-2.87m16.59-10.91c3.39-3.99 7.07-5.13 8.57-2.69.44.7-.97 3.11-3.12 5.34-7.24 7.48-.89 6.86 7.92-.77 8.39-7.26 12.69-7.5 20.01-1.06l3.88 3.41 57.65.95c90.47 1.51 111.36 1.33 113.61-.92 1.04-1.04 3.44-8.49 5.35-16.56 1.9-8.08 3.98-15.21 4.63-15.86.63-.63 2.07-.81 3.19-.38 2.08.8 2.06 2.04-.25 15.51l-.8 4.65 13.57-.71c15.98-.84 20.67-2.14 44.94-12.41 27.5-11.64 56.68-19.53 85.16-23.06 11.56-1.43 44.96-.92 52.32.79l3.36.78-3.66-5.94c-15.36-24.98-23.19-56.06-20.37-80.81.67-5.85 1.75-12.48 2.39-14.72.66-2.25 1.04-4.26.85-4.43-.19-.19-13.98 4.16-30.63 9.68-38.14 12.63-51.49 16.15-64.26 16.96-16.85 1.06-36.18-5.05-50.59-15.97-3.28-2.5-14.17-13.38-24.2-24.19-22.87-24.66-29.74-31.19-39.53-37.6-6.84-4.48-20.03-10.05-23.77-10.05-.85 0-1.03 2.27-.53 6.85 1.16 10.58-2.7 30.77-6.13 32.08-3.57 1.38-4.25-1.44-2.1-8.7 1.28-4.31 2.1-11.12 2.13-17.72.06-12.23-1.83-17.25-7.59-20.23-7.45-3.86-14.2-1.36-22.01 8.18-2.48 3.03-5.27 5.49-6.18 5.49-2.38 0-3.22-2.95-1.66-5.86.73-1.35 1.17-2.47.99-2.46-.19.01-2.95.8-6.13 1.77-7.73 2.35-12.07 5.2-19.42 12.74-6.29 6.46-50.34 68.37-50.38 70.8-.02 1.94 11.66 14.39 16.06 17.12 2.06 1.27 6.54 2.92 9.95 3.64 7.52 1.62 8.25 1.23 21.71-11.64 6.13-5.84 10-8.71 11.17-8.26 3.5 1.34 1.72 4.23-8.6 13.88-5.73 5.36-10.84 10.48-11.35 11.37-1.5 2.65 2.2 9.73 6.13 11.77 6.32 3.28 2.05 5.84 44.15-26.46 10.47-8.04 19.66-15.74 20.4-17.13.86-1.6 1.06-5.37.57-10.39-1.47-15.22-1.49-15.02 1.11-15.02 2.95 0 4.74 5.08 5.84 16.72.72 7.53.52 8.81-1.92 12.43-2.49 3.71-7.99 8.63-18.74 16.78-3.88 2.94-3.97 3.19-2.57 7.14.81 2.26 1.9 11.19 2.46 19.85.81 12.66 1.49 16.53 3.47 19.74 2.53 4.09 7.04 8.75 7.65 7.88.19-.27 1.56-4.77 3.04-10.02 4-14.08 7.88-22.03 10.76-22.03 3.63 0 4.01 1.86 1.43 6.94-1.31 2.55-4.03 11.21-6.05 19.24-4.58 18.12-8.79 26.65-16.67 33.73-7.7 6.94-15.96 10.02-30.65 11.46-6.4.62-22.6 2.29-36.03 3.71-29.63 3.12-36.97 2.76-60.66-2.96-17.31-4.18-18.84-4.36-25.59-3.02-8.56 1.68-13.22 3.92-14.96 7.17-2.43 4.54.17 4.76 5.4.48 5.29-4.34 9.18-4.98 9.83-1.64.21 1.11-1.29 2.61-3.8 3.81-4.8 2.29-7.85 6.4-8.19 11.06-.37 5.05 2.14 4.73 4.21-.56 1.78-4.53 7.78-9.6 11.36-9.61 3.06 0 3.02 3.76-.05 6.37-3.92 3.3-6.03 7.58-5.02 10.1.72 1.8.94 1.78 2.18-.27.75-1.25 2.89-4.07 4.76-6.26m326.96 3.76c3.56-2.3 7.51-4.17 8.8-4.17 1.27 0 5.96 1.68 10.4 3.72l8.1 3.73 7.73-1.94c8.89-2.24 29.66-2.45 77.47-.82 16.37.56 29.88.92 30.03.77.15-.13-3.34-2.61-7.73-5.5-4.39-2.88-12.13-9.21-17.19-14.04l-9.2-8.81-11.54 1.98c-33.46 5.71-74.09 5.17-102.46-1.36-8.17-1.87-8.82-1.86-13.44.23-5.84 2.63-11.15 7.3-10.13 8.92.42.7 3.15-.05 6.72-1.87 5.57-2.82 9.35-3.14 9.35-.79 0 .55-2.71 3.05-6 5.57-6.46 4.92-8.88 8.26-7.57 10.4.52.84 1.42.18 2.45-1.77 2.32-4.43 12.13-10.99 13.85-9.26.99.98-.11 2.68-4.27 6.49-3.08 2.83-5.61 5.75-5.61 6.47 0 3.39 3.05 2.41 8.04-2.58 6.02-6.04 9.36-7.64 11.43-5.55 1.03 1.05.45 2.17-2.38 4.59-4.07 3.48-6.73 7.8-5.54 9 1.23 1.23 1.92.96 8.69-3.41m198.89 2.25c18.06-5.35 30.24-19.34 36.91-42.36 1.93-6.65 2.68-13.33 3.17-27.97.56-17.25.37-20.08-1.87-27.4-3.8-12.41-12.22-25.62-24.25-38.07-16.94-17.52-36.65-29.57-57.49-35.15-13.68-3.67-32.62-3.68-44.44-.04-8.62 2.66-8.76 2.77-11.62 9.02-3.66 7.99-5.67 23.47-4.67 35.89l.79 9.58 4.99-4.99c8.41-8.42 20.28-9.73 33.32-3.66 8.3 3.87 15.74 10.48 14.74 13.09-1.23 3.18-5.43 2.35-10.62-2.11-5.09-4.36-13.48-7.8-18.99-7.8-5.14 0-12.7 3.5-15.08 6.98-3.3 4.81-5.09 14.52-3.65 19.75 2.06 7.46 9.05 22.88 13.66 30.11 11.97 18.83 30.52 32.42 51.69 37.91 9.25 2.39 19.84 1.81 33.81-1.87 9.55-2.52 12.49-2.07 11.06 1.67-1.31 3.41-24.93 8.38-36.35 7.63-14.96-.99-40.18-13.04-54.01-25.84-19.42-17.96-28.31-38.84-30.8-72.35-1.85-25-.38-35.92 6.79-50.41 8.64-17.47 20.03-28.34 35.07-33.43 9.95-3.39 18.61-2.65 34.75 2.96 11.45 3.98 12.15 4.08 14.31 2.13 5.26-4.76 5-6.12-1.77-9.1-11.04-4.86-22.1-7.1-35.48-7.18-22.02-.14-35.61 6.41-46.82 22.58-26.81 38.68-28.68 82.41-5.4 125.64 17.18 31.89 48.11 59.55 72.46 64.8 10.87 2.34 27.87 2.33 35.79-.01M442.75 203c16-2.38 17.3-3.06 11.95-6.31-7.82-4.77-20.18-6.67-42.8-6.63-18 .04-22.85.48-35.71 3.24-8.19 1.77-17.02 3.83-19.64 4.59l-4.76 1.38 3.57 1.51c1.96.83 8.65 2.1 14.88 2.83 6.22.72 12.91 1.53 14.88 1.8 7.3.99 45.52-.61 57.63-2.41M147.2 11.83c3.68-1.38 4.41-3.18 1.82-4.56-1.82-.98-2.97-.42-6.28 3.05-4.32 4.53-3.97 4.66 4.46 1.51" />
    <path d="M83.38 105.48c-2.67-3.23 2.48-11.38 7.18-11.38 5.19 0 5.64 6.23.79 10.76-2.98 2.77-5.98 3.01-7.97.62M114.29 71.47c-1.52-1.51-2.39-3.97-2.39-6.72 0-3.61.99-5.32 5.79-10.12 4.8-4.8 6.51-5.79 10.12-5.79 5.86 0 9.09 3.36 9.09 9.43 0 10.91-15.73 20.09-22.61 13.2m18.79-14.17c-.5-4.17-3.57-5.7-7.69-3.82l-3.37 1.53 3.27 1.71c1.78.94 3.6 3.12 4.04 4.84.75 3 .86 3.04 2.44.87.92-1.25 1.5-3.56 1.31-5.13" />
    <path fill="#f1b053" d="M20.86 235.65c-1.01-2.52 1.1-6.8 5.02-10.1 3.07-2.61 3.11-6.37.05-6.37-3.58.01-9.58 5.08-11.36 9.61-2.07 5.29-4.58 5.61-4.21.56.34-4.66 3.39-8.77 8.19-11.06 2.51-1.2 4.01-2.7 3.8-3.81-.65-3.34-4.54-2.7-9.83 1.64-5.23 4.28-7.83 4.06-5.4-.48 1.74-3.25 6.4-5.49 14.96-7.17 6.75-1.34 8.28-1.16 25.59 3.02 23.69 5.72 31.03 6.08 60.66 2.96 13.43-1.42 29.63-3.09 36.03-3.71 14.69-1.44 22.95-4.52 30.65-11.46 7.88-7.08 12.09-15.61 16.67-33.73 2.02-8.03 4.74-16.69 6.05-19.24 2.58-5.08 2.2-6.94-1.43-6.94-2.88 0-6.76 7.95-10.76 22.03-1.48 5.25-2.85 9.75-3.04 10.02-.61.87-5.12-3.79-7.65-7.88-1.98-3.21-2.66-7.08-3.47-19.74-.56-8.66-1.65-17.59-2.46-19.85-1.4-3.95-1.31-4.2 2.57-7.14 10.75-8.15 16.25-13.07 18.74-16.78 2.44-3.62 2.64-4.9 1.92-12.43-1.1-11.64-2.89-16.72-5.84-16.72-2.6 0-2.58-.2-1.11 15.02.49 5.02.29 8.79-.57 10.39-1.18 2.2-12.45 11.18-48.46 38.61-4.96 3.76-9.78 6.85-10.74 6.85-5.95 0-13.87-9.41-11.48-13.64.51-.89 5.62-6.01 11.35-11.37 10.32-9.65 12.1-12.54 8.6-13.88-1.17-.45-5.04 2.42-11.17 8.26-13.46 12.87-14.19 13.26-21.71 11.64-3.41-.72-7.89-2.37-9.95-3.64-4.4-2.73-16.08-15.18-16.06-17.12.04-2.43 44.09-64.34 50.38-70.8 7.35-7.54 11.69-10.39 19.42-12.74 3.18-.97 5.94-1.76 6.13-1.77.18-.01-.26 1.11-.99 2.46-1.56 2.91-.72 5.86 1.66 5.86.91 0 3.7-2.46 6.18-5.49 7.81-9.54 14.56-12.04 22.01-8.18 5.76 2.98 7.65 8 7.59 20.23-.03 6.6-.85 13.41-2.13 17.72-2.15 7.26-1.47 10.08 2.1 8.7 3.43-1.31 7.29-21.5 6.13-32.08-.5-4.58-.32-6.85.53-6.85 3.74 0 16.93 5.57 23.77 10.05 9.79 6.41 16.66 12.94 39.53 37.6 10.03 10.81 20.92 21.69 24.2 24.19 14.41 10.92 33.74 17.03 50.59 15.97 12.77-.81 26.12-4.33 64.26-16.96 16.65-5.52 30.44-9.87 30.63-9.68.19.17-.19 2.18-.85 4.43-.64 2.24-1.72 8.87-2.39 14.72-2.82 24.75 5.01 55.83 20.37 80.81l3.66 5.94-3.36-.78c-7.36-1.71-40.76-2.22-52.32-.79-28.48 3.53-57.66 11.42-85.16 23.06-24.27 10.27-28.96 11.57-44.94 12.41l-13.57.71.8-4.65c2.31-13.47 2.33-14.71.25-15.51-1.12-.43-2.56-.25-3.19.38-.65.65-2.73 7.78-4.63 15.86-1.91 8.07-4.31 15.52-5.35 16.56-2.25 2.25-23.14 2.43-113.61.92l-57.65-.95-3.88-3.41c-7.32-6.44-11.62-6.2-20.01 1.06-8.81 7.63-15.16 8.25-7.92.77 4-4.14 4.05-6.64.13-6.64-2.05 0-7.3 5.18-10.34 10.25-1.24 2.05-1.46 2.07-2.18.27m70.49-130.79c4.85-4.53 4.4-10.76-.79-10.76-4.7 0-9.85 8.15-7.18 11.38 1.99 2.39 4.99 2.15 7.97-.62m35.95-32.75c12.6-6.52 12.97-23.27.51-23.27-3.61 0-5.32.99-10.12 5.79-4.8 4.8-5.79 6.51-5.79 10.12 0 7.98 7.37 11.51 15.4 7.36" />
    <path fill="#f1b053" d="M346.07 236.29c-1.19-1.2 1.47-5.52 5.54-9 2.83-2.42 3.41-3.54 2.38-4.59-2.07-2.09-5.41-.49-11.43 5.55-4.99 4.99-8.04 5.97-8.04 2.58 0-.72 2.53-3.64 5.61-6.47 4.16-3.81 5.26-5.51 4.27-6.49-1.72-1.73-11.53 4.83-13.85 9.26-1.03 1.95-1.93 2.61-2.45 1.77-1.31-2.14 1.11-5.48 7.57-10.4 3.29-2.52 6-5.02 6-5.57 0-2.35-3.78-2.03-9.35.79-3.57 1.82-6.3 2.57-6.72 1.87-1.02-1.62 4.29-6.29 10.13-8.92 4.62-2.09 5.27-2.1 13.44-.23 28.37 6.53 69 7.07 102.46 1.36l11.54-1.98 9.2 8.81c5.06 4.83 12.8 11.16 17.19 14.04 4.39 2.89 7.88 5.37 7.73 5.5-.15.15-13.66-.21-30.03-.77-47.81-1.63-68.58-1.42-77.47.82l-7.73 1.94-8.1-3.73c-4.44-2.04-9.13-3.72-10.4-3.72-1.29 0-5.24 1.87-8.8 4.17-6.77 4.37-7.46 4.64-8.69 3.41M517.86 235.14c-24.35-5.25-55.28-32.91-72.46-64.8-23.28-43.23-21.41-86.96 5.4-125.64 11.21-16.17 24.8-22.72 46.82-22.58 13.38.08 24.44 2.32 35.48 7.18 6.77 2.98 7.03 4.34 1.77 9.1-2.16 1.95-2.86 1.85-14.31-2.13-16.14-5.61-24.8-6.35-34.75-2.96-15.04 5.09-26.43 15.96-35.07 33.43-7.17 14.49-8.64 25.41-6.79 50.41 2.49 33.51 11.38 54.39 30.8 72.35 13.83 12.8 39.05 24.85 54.01 25.84 11.42.75 35.04-4.22 36.35-7.63 1.43-3.74-1.51-4.19-11.06-1.67-13.97 3.68-24.56 4.26-33.81 1.87-21.17-5.49-39.72-19.08-51.69-37.91-4.61-7.23-11.6-22.65-13.66-30.11-1.44-5.23.35-14.94 3.65-19.75 2.38-3.48 9.94-6.98 15.08-6.98 5.51 0 13.9 3.44 18.99 7.8 5.19 4.46 9.39 5.29 10.62 2.11 1-2.61-6.44-9.22-14.74-13.09-13.04-6.07-24.91-4.76-33.32 3.66l-4.99 4.99-.79-9.58c-1-12.42 1.01-27.9 4.67-35.89 2.86-6.25 3-6.36 11.62-9.02 6.93-2.13 11.43-2.66 21.82-2.59 15.6.09 27.29 2.86 42.05 9.92 28.84 13.79 54.74 41.19 62.31 65.93 2.24 7.32 2.43 10.15 1.87 27.4-.49 14.64-1.24 21.32-3.17 27.97-6.67 23.02-18.85 37.01-36.91 42.36-7.92 2.34-24.92 2.35-35.79.01M142.24 10.82c1.97-2.11 4.49-3.61 5.7-3.42 4.81.77 1.57 4.02-6.27 6.31-2.97.86-2.97.85.57-2.89" />
    <path fill="#eb2e00" d="M129.33 61.56c-.44-1.72-2.26-3.91-4.04-4.85l-3.27-1.73 3.58-1.38c2.27-.87 4.22-.97 5.35-.27 2.42 1.5 2.86 6.31.82 9.1-1.58 2.17-1.69 2.13-2.44-.87" />
</svg>