<svg xmlns="http://www.w3.org/2000/svg" xmlns:xlink="http://www.w3.org/1999/xlink" width="350" height="760" version="1.0">
   <defs>
      <linearGradient id="prefix__a">
         <stop offset="0" stop-color="#c13c1b" />
         <stop offset=".839" stop-color="#c13c1b" stop-opacity=".498" />
         <stop offset="1" stop-color="#c13c1b" stop-opacity="0" />
      </linearGradient>
      <linearGradient xlink:href="#prefix__a" id="prefix__k" gradientUnits="userSpaceOnUse" gradientTransform="matrix(-.10891 -.00413 .00493 -.12635 601.807 534.183)" x1="1719.31" y1="1012.714" x2="1765.716" y2="1012.714" />
      <linearGradient xlink:href="#prefix__a" id="prefix__j" gradientUnits="userSpaceOnUse" gradientTransform="matrix(-.1116 -.01203 .01074 -.1167 594.167 556.017)" x1="1719.31" y1="1012.714" x2="1765.716" y2="1012.714" />
      <linearGradient xlink:href="#prefix__a" id="prefix__i" gradientUnits="userSpaceOnUse" gradientTransform="matrix(-.10879 -.00687 .00743 -.12622 601.13 533.188)" x1="1719.31" y1="1012.714" x2="1765.716" y2="1012.714" />
      <linearGradient xlink:href="#prefix__a" id="prefix__h" gradientUnits="userSpaceOnUse" gradientTransform="matrix(-.11146 -.01201 .01155 -.12551 600.614 543.982)" x1="1719.31" y1="1012.714" x2="1765.716" y2="1012.714" />
      <linearGradient xlink:href="#prefix__a" id="prefix__g" gradientUnits="userSpaceOnUse" gradientTransform="matrix(-.1116 -.01203 .01074 -.1167 599.385 541.053)" x1="1719.31" y1="1012.714" x2="1765.716" y2="1012.714" />
      <linearGradient xlink:href="#prefix__a" id="prefix__f" gradientUnits="userSpaceOnUse" gradientTransform="matrix(-.10879 -.00687 .00743 -.12622 597.052 544.139)" x1="1719.31" y1="1012.714" x2="1765.716" y2="1012.714" />
      <linearGradient xlink:href="#prefix__a" id="prefix__e" gradientUnits="userSpaceOnUse" gradientTransform="matrix(-.11146 -.01201 .01155 -.12551 596.536 554.933)" x1="1719.31" y1="1012.714" x2="1765.716" y2="1012.714" />
      <linearGradient xlink:href="#prefix__a" id="prefix__d" gradientUnits="userSpaceOnUse" gradientTransform="matrix(-.1116 -.01203 .01074 -.1167 596.818 548.345)" x1="1719.31" y1="1012.714" x2="1765.716" y2="1012.714" />
      <linearGradient xlink:href="#prefix__a" id="prefix__c" gradientUnits="userSpaceOnUse" gradientTransform="matrix(-.10879 -.00687 .00743 -.12622 594.485 551.431)" x1="1719.31" y1="1012.714" x2="1765.716" y2="1012.714" />
      <linearGradient xlink:href="#prefix__a" id="prefix__b" gradientUnits="userSpaceOnUse" gradientTransform="matrix(-.11146 -.01201 .01155 -.12551 593.969 562.225)" x1="1719.31" y1="1012.714" x2="1765.716" y2="1012.714" />
   </defs>
   <g transform="translate(-211.414 -120.007)">
      <g stroke-width="5.526">
         <path d="M474.603 180.85c-.1.477-.061.317-.28 1.148-1.991 5.11-10.435 73.26-12.091 84.454-20.275 1.396-39.182 3.117-47.491 24.259 3.486-9.607 4.807-11.503 7.266-15.017 9.548-25.03 18.274-63.102 20.415-71.71 2.268-13 8.85-29.292 12.176-34.096 5.885-8.502 14.293-11.586 22.006-10.476 7.712 1.11 13.524 6.475 12.833 12.497-.692 6.024-7.11 9.716-14.834 8.94z" fill="#04a" fill-rule="evenodd" />
         <path d="M473.688 181.017c7.723.776 14.142-2.916 14.833-8.94.691-6.022-5.12-11.388-12.833-12.497-7.713-1.11-16.121 1.974-22.006 10.475-3.326 4.805-9.908 21.097-12.176 34.097-2.14 8.608-6.876 39.963-22.049 75.958" fill="none" stroke="#fac53a" stroke-linecap="round" stroke-linejoin="round" stroke-width="1.29988098" />
         <g fill-rule="evenodd">
            <path d="M481.775 177.616c2.318-1.874 3.393-6.214 1.663-8.63-2.534-3.541-6.866-4.579-12.428-4.085-5.73.508-10.488 4.117-14.686 11.506-5.339 9.397-18.07 64.45-27.465 97.432l7.977-3.628c6.79-31.49 18.151-83.205 23.054-92.623 2.838-5.45 7.47-9.036 13.36-9.317 2.85.166 5.59.877 7.562 2.93 1.988 2.072-.344 6.06-.344 6.06.187.397.438.763 1.307.355z" fill="#c13c1b" />
            <path d="M477.45 177.007c.347-1.34-.04-2.21-.53-3.059-.682-1.184-2.275-2.024-4.174-2.1-2.53-.102-4.999.626-8.048 5.908-5.02 8.697-15.009 60.422-22.568 90.805l7.438-.799c6.008-29.462 13.255-78.357 18.025-88.24 1.372-2.842 2.882-4.79 5.028-4.977 2.146-.187 3.019 1.663 3.617 2.63.187.397 1.078.31 1.212-.168z" fill="#308d57" />
            <path d="M455.36 267.39c5.328-29.194 12.764-80.942 17.397-86.746.868-.323 1.767.258 1.523 1.232-4.67 25.912-7.98 56.053-11.543 84.736l-7.377.778z" fill="#c13c1b" />
         </g>
         <path d="M414.16 290.879c8.31-21.142 27.93-23.102 48.142-24.057" fill="none" stroke="#fac53a" stroke-linecap="round" stroke-linejoin="round" stroke-width="1.29988098" />
      </g>
      <g stroke-width="5.526">
         <path d="M359.666 242.55c-.775.736.004 2.943.203 4.233-1.434-12.679-19.254-15.183-26.896-16.987 25.58-56.052 55.158-67.358 59.02-77.295.365-2.57.216-1.736-.551-2.113-6.151.364-6.085-9.004-1.46-13.74 4.625-4.734 11.278-3.082 12.81-2.326 1.532.756 12.498 3.716 10.102 18.788-3.547 22.037-36.279 34.769-53.228 89.44z" fill="#04a" fill-rule="evenodd" />
         <path d="M390.862 150.555c-6.15.365-6.085-9.003-1.46-13.738 4.625-4.735 11.278-3.083 12.81-2.327 1.532.756 12.498 3.716 10.102 18.788-3.808 25.6-40.936 37.035-52.271 91.946" fill="none" stroke="#fac53a" stroke-linecap="round" stroke-linejoin="round" stroke-width="1.29988098" />
         <g fill-rule="evenodd">
            <path d="M391.83 146.122c-.804.922-1.873 1.072-1.427-.71 1.6-4.86 4.109-6.802 6.38-7.457 4.91-1.043 13.656 2.296 12.184 14.702-1.17 9.859-16.102 21.003-27.532 34.752-8.926 10.738-19.015 30.476-26.354 49.452l-5.617-3.218c8.487-16.734 16.569-35.046 30.486-51.355 8.043-10.015 24.038-21.507 25.081-29.895.667-5.364-.95-9.623-4.696-10.884-3.082-1.037-5.806 1.318-8.505 4.613z" fill="#c13c1b" />
            <path d="M394.975 149.164c-1.065.462-.945.051-.842-.839.103-.89 1.285-2.675 3.036-2.812 2.748-.07 3.777.84 4.477 3.99 1.282 7.051-8.719 13.82-15.03 20.68-18.042 16.456-27.962 37.27-41.526 62.08l-4.598-1.289c11.432-21.992 23.795-43.491 33.269-53.002 8.575-8.244 23.462-22.784 23.993-25.537.364-1.008 1.076-1.843.245-3.445-.775-1.593-1.959-.288-3.024.174z" fill="#308d57" />
            <path d="M331.798 229.227c22.499-49.302 56.68-74.54 59.876-78.376.385-.463 3.297-.595 1.486 1.906-5.595 7.728-32.172 25.486-56.923 77.346" fill="#c13c1b" />
         </g>
         <path d="M359.413 246.226c-1.434-12.678-20.076-14.458-27.706-16.26" fill="none" stroke="#fac53a" stroke-linecap="round" stroke-linejoin="round" stroke-width="1.29988098" />
         <g fill="none" stroke="#fff" stroke-linecap="round" stroke-linejoin="round" stroke-opacity=".49">
            <path d="M410.321 145.07c-3.368-5.687-9.452-7.817-13.647-9.135M358.524 237.273c-2.013-8.334-11.481-14.072-21.965-16.575M360.937 229.28c-2.081-6.936-9.854-12.326-20.735-15.875M363.298 222.046c-3.221-6.448-8.64-10.672-19.589-14.45M366.678 214.99c-4.183-5.151-8.633-9.504-19.365-12.962M370.028 209.322c-3.236-5.516-8.479-10.13-18.446-13.055M373.844 203.632c-3.683-5.46-7.98-9.758-18.301-13.432M377.276 198.594c-3.349-5.589-7.508-10.046-17.717-13.738M380.87 193.538c-3.7-6.384-8.47-9.646-16.87-13.662M385.526 188.376c-3.334-5.757-7.48-9.613-17.039-14.08M390.632 182.73c-3.028-4.982-9.155-9.921-17.354-13.31M394.88 178.114c-1.342-3.452-8.135-10.11-16.58-13.329M398.375 173.75c-1.541-4.101-7.149-9.835-15.764-13.426M402.911 169.268c-2.977-6.081-7.844-9.46-15.624-13.161M407.898 160.55c-.578-6.009-12.7-14.353-19.739-14.195M410.665 150.523c-3.37-5.856-10.732-11.734-19.972-11.72M405.956 164.117c-1.293-3.878-5.85-8.74-14.66-11.921M409.868 155.33c-1.465-5.6-14.667-14.272-21.117-12.962" stroke-width="1.29988098" />
         </g>
      </g>
      <g stroke-width="5.526" fill="none" stroke="#fff" stroke-linecap="round" stroke-linejoin="round" stroke-opacity=".49">
         <path d="M427.828 265.081c4.195-3.58 25.147-6.68 33.905-6.313M430.213 257.782c4.624-3.011 23.652-5.703 32.41-5.337M432.362 250.957c5.453-4.081 22.27-5.168 31.027-4.802M434.44 244.633c6.736-4.75 20.863-4.47 29.62-4.103M436.4 237.952c6.594-3.752 19.743-4.606 28.5-4.24M437.006 232.438c4.172-3.414 19.648-5.129 28.406-4.763M438.655 225.543c4.528-3.533 19.192-4.294 27.95-3.928M440.518 218.34c5.576-2.538 17.826-3.18 26.584-2.813M441.963 212.004c4.195-3.58 17.507-4.396 26.264-4.03M443.357 204.925c4.624-3.01 16.766-4.513 25.524-4.147M445.036 198.035c5.453-4.082 16.423-4.553 25.18-4.187M446.912 191.441c6.735-4.749 15.05-4.087 23.807-3.721M448.955 185.012c6.595-3.75 16.2-4.145 22.893-2.75M451.141 179.36c7.78-6.025 20.081-3.238 26.76-.885M454.504 172.228c8.248-4.657 25.682.649 29.02 4.571M458.992 166.833c9.557-2.696 22.552 1.306 27.1 5.998M466.235 162.47c6.568-.742 16.472 2.315 19.045 5.372" stroke-width="1.29988098" />
      </g>
      <g stroke="#000" stroke-width=".75">
         <path d="M359.948 247.25c6.55-44.558 41.422-70.596 50.54-79.666 9.251-9.202 26.934-19.899 24.049-33.428 15.082-18.432 32.289-9.646 25.77 14.668-12.697 7.973-14.246 26.351-16.245 35.875-2.001 9.538-7.402 58.59-30.483 106.803l.135-.101c-4.663-3.04-17.114-10.463-16.02-20.014l-.022-11.23-7.948-.33c.523-16.035-23.564-13.745-29.776-12.578z" fill="#fff" fill-rule="evenodd" />
         <path d="M434.654 134.173c9.575 4.042 18.125 8.856 25.552 14.516" fill="none" />
      </g>
      <path d="M356.682 463.279c-13.73 62.607-1.366 105.288 15.662 161.682-3.308 35.03-1.144 118.836 3.528 152.492-2.412 9.154-24.532 14.978-31.578 19.624-11.805 6.65-26.578 10.504-38.638 16.656-4.255 1.661-9.986.911-13.71.894-3.488-1.188-3.539 6.7 2.13 9.547 35.055.25 86.189-.07 121.895.11 6.758-6.24 2.52-17.285.775-24.711-1.06-4.508-2.132-8.76-1.255-13.436 6.932-60.376 9.17-98.072 2.575-151.23 11.504-42.243 15.332-83.536 17.384-121.484 6.139-18.463.06-32.251-5.19-56.416l-2.054-20.702 1.527-8.231 1.183-2.686c17.422 8.378 51.377 14.272 77.856 18.897 5.328 1.172 5.864-2.476 5.813-5.587-4.46-33.632-19.9-60.847-30.555-94.478.183-11.274-3.743-23.247-16.06-26.926-12.316-3.679-35.873-8.59-48.523-10.84-12.65-2.251-39.933 3.42-39.933 3.42l-41.68 8.08c-19.037 3.353-27.019 18.236-28.006 36.983-10.911 29.408-22.191 65.504-29.76 98.13-.632 3.08 2.894 4.387 4.744 2.84 24.135-4.662 48.918-10.279 72.141-18.448.356 5.844-.24 19.913-.238 25.771" fill="#fff" fill-rule="evenodd" stroke="#000" stroke-width=".75" />
      <path d="M397.703 419.327c2.204-1.96 1.235-1.115 1.79-1.578.798-.68 1.976-1.647 1.915-3.498-.063-1.896-1.06-3.4-2.223-3.362-.047.002.366-.085.36-.143-.04-.083 1.46-1.76 1.4-3.578-.063-1.896-1.053-3.4-2.215-3.361-.175.006.097-.095.031-.171-.104-.113 1.359-1.398 1.302-3.095-.062-1.896-1.06-3.4-2.222-3.361-.256.008-.002-.198-.043-.313-.076-.108 1.104-1.183 1.046-2.934-.063-1.896-1.053-3.408-2.215-3.37-.188.007-.316-.092-.424-.22-.045-.098-.115-.09-.058-.15.917-.456 4.187-1.393 4.607-3.896.587-1.653-.028-4.713-2.608-3.237-1.576 1.018-3.31 1.11-6.733 1.537-4.686 1.808-9.02 2.268-12.956 4.419-4.903 2.678-9.19 7.98-12.775 21.771l6.257 18.39c.422.7.239 2.187 1.14 1.361 8.671-2.633 16.997-6.328 24.624-11.211zM406.025 417.246c-.186-.09-.423-.219-.874-.391-.762-.33-2.15-1.519-2.205-3.168-.056-1.689.846-3.088 2.008-3.126.047-.002-.178-.151-.176-.202.036-.077-1.76-1.376-1.813-2.995-.056-1.69.838-3.088 2-3.127.175-.005.453.148.514.077.097-.108-2-1.384-2.05-2.896-.055-1.689.846-3.088 2.008-3.126.256-.009-.085-.073-.051-.178.07-.1-1.101-1.085-1.153-2.646-.056-1.689.838-3.094 2-3.133.187-.006.371.026.547.087.175.061.227-.233.314-.664-1.132-.865-1.869-.639-4.168-2.378-1.558-1.178-1.432-4.04.184-5.348.795-.898 2.089-.357 3.234.124.914.531 5.101.665 6.458.535 3.996.487 7.134 1.043 10.585 2.192 7.402 3.204 8.59 12.45 14.073 17.676-2.199 6.307-4.702 13.456-6.901 19.764-8.05-1.464-17.02-3.674-24.534-7.077z" fill="#308d57" fill-rule="evenodd" stroke="#000" stroke-width=".235" />
      <path d="M350.88 315.413l28.465-5.692 40.29-3.213 31.024 6.413c-5.831 29.425-25.785 39.946-48.903 40.46-21.896.483-32.123-5.14-39.272-12.733-6.796-7.217-10.405-18.54-11.605-25.235z" fill="#fff" fill-rule="evenodd" stroke="#000" stroke-linecap="round" stroke-linejoin="round" stroke-width=".23523" />
      <path style="marker:none" d="M362.77 313.033c4.291 21.22 16.67 29.081 39.482 28.183 22.87-.9 34.252-15.578 35.646-29.827a3.44 3.44 0 01.1-.977" color="#000" fill="none" stroke="#04a" stroke-width="4.1917986" stroke-linejoin="round" overflow="visible" />
      <path style="marker:none" d="M373.625 311.001c4.174 16.146 13.295 19.647 28.185 19.07 13.912-.538 24.672-9.657 24.57-21.095a2.727 2.727 0 01.086-.981" color="#000" fill="none" stroke="#308d57" stroke-width="2.57224005" overflow="visible" />
      <path style="marker:none" d="M366.512 312.526c3.135 14.862 11.023 25.97 35.465 24.899 21.276-.932 31.484-15.324 31.892-27.351a1.846 1.846 0 01.04-.562" color="#000" fill="none" stroke="#c13c1b" stroke-width="2.57224005" overflow="visible" />
      <path style="marker:none" d="M377.165 310.208c2.113 7.048 4.471 17.586 24.637 16.06 13.21-1 20.192-8.879 20.691-16.229.04-.835.035-2.69.136-2.933" color="#000" fill="none" stroke="#04a" stroke-width="3.77261874" overflow="visible" />
      <path style="marker:none" d="M369.98 311.629c4.221 20.073 19.118 22.92 32.222 22.141 17.802-1.062 27.38-12.085 27.874-23.754.015-.213.012-1.012.113-1.337" color="#000" fill="none" stroke="#04a" stroke-width="3.77261874" overflow="visible" />
      <path style="marker:none" d="M355.678 314.586c4.662 22.525 17.225 34.802 45.645 33.791l.335-.012h.01c37.725-1.476 42.497-29.718 43.866-36.293" color="#000" fill="none" stroke="#fac53a" stroke-width="9.4092" overflow="visible" />
      <path d="M350.88 315.413l28.465-5.692 40.29-3.213 31.024 6.413c-5.831 29.425-25.785 39.946-48.903 40.46-21.896.483-32.123-5.14-39.272-12.733-6.796-7.217-10.405-18.54-11.605-25.235z" fill="none" stroke="#000" stroke-width=".47046" stroke-linecap="round" stroke-linejoin="round" />
      <g fill="none" stroke="#c13c1b">
         <path d="M412.764 349.285c-.546-1.667-.213-4.603.223-6.526 1.364 1.387 3.258 3.703 3.736 5.28.919 3.032-3.029 4.08-3.959 1.246z" stroke-width=".23523" />
         <path d="M413.276 349.083c-.405-1.235-.161-3.408.159-4.831 1.008 1.028 2.407 2.744 2.76 3.912.681 2.245-2.23 3.019-2.92.92z" stroke-width=".23523" />
         <path d="M413.27 349.021c.153-.258.564-.78 1.268-.998.705-.217 1.183-.084 1.58.093M413.133 346.788c.208-.261.666-.517.891-.583.244-.071.763-.052 1.002.014" style="marker:none" color="#000" stroke-linecap="round" stroke-linejoin="round" overflow="visible" stroke-width=".23523" />
      </g>
      <g fill="none" stroke="#c13c1b">
         <path d="M407.82 350.036c-.383-1.712.233-4.602.853-6.473 1.223 1.512 2.884 4 3.207 5.616.62 3.107-3.41 3.769-4.06.857z" stroke-width=".23523" />
         <path d="M408.348 349.885c-.283-1.268.17-3.408.626-4.793.903 1.12 2.13 2.964 2.37 4.16.46 2.302-2.514 2.79-2.996.633z" stroke-width=".23523" />
         <path d="M408.348 349.823a2.316 2.316 0 011.36-.87c.722-.148 1.184.03 1.563.245M408.428 347.587c.232-.24.713-.45.943-.494.25-.048.765.022.997.11" style="marker:none" color="#000" stroke-linecap="round" stroke-linejoin="round" overflow="visible" stroke-width=".23523" />
      </g>
      <g fill="none" stroke="#c13c1b">
         <path d="M417.808 347.928c-.709-1.605-.67-4.56-.426-6.516 1.495 1.244 3.609 3.36 4.241 4.882 1.216 2.926-2.608 4.362-3.815 1.634z" stroke-width=".23523" />
         <path d="M418.297 347.676c-.525-1.189-.5-3.375-.322-4.824 1.105.923 2.668 2.492 3.136 3.619.9 2.167-1.92 3.225-2.814 1.205z" stroke-width=".23523" />
         <path d="M418.285 347.615a2.316 2.316 0 011.163-1.12c.68-.285 1.168-.2 1.582-.064M417.927 345.406c.18-.28.611-.58.829-.668.235-.096.754-.128.998-.086" style="marker:none" color="#000" stroke-linecap="round" stroke-linejoin="round" overflow="visible" stroke-width=".23523" />
      </g>
      <g fill="none" stroke="#c13c1b">
         <path d="M397.899 350.488c-.032-1.755 1.15-4.462 2.133-6.172.895 1.727 2.024 4.497 2.016 6.145-.013 3.168-4.095 3.01-4.15.027z" stroke-width=".23523" />
         <path d="M398.447 350.445c-.024-1.3.848-3.305 1.573-4.57.66 1.278 1.493 3.33 1.488 4.55-.01 2.347-3.021 2.23-3.061.02z" stroke-width=".23523" />
         <path style="marker:none" d="M398.459 350.384c.223-.202.769-.58 1.506-.58s1.155.267 1.483.554M398.985 348.21c.276-.19.789-.299 1.024-.295.254.003.744.174.953.308" color="#000" stroke-linecap="round" stroke-linejoin="round" overflow="visible" stroke-width=".23523" />
      </g>
      <g fill="none" stroke="#c13c1b">
         <path d="M393.12 350.405c.037-1.755 1.324-4.414 2.373-6.083.827 1.76 1.846 4.573 1.774 6.22-.139 3.164-4.21 2.845-4.148-.137z" stroke-width=".23523" />
         <path d="M393.669 350.384c.028-1.3.977-3.27 1.752-4.506.61 1.304 1.36 3.387 1.307 4.606-.102 2.345-3.106 2.109-3.06-.1z" stroke-width=".23523" />
         <path d="M393.683 350.323c.23-.193.791-.55 1.528-.52.737.029 1.143.312 1.46.611M394.295 348.171c.282-.178.8-.267 1.034-.254.254.013.737.203.94.345" style="marker:none" color="#000" stroke-linecap="round" stroke-linejoin="round" overflow="visible" stroke-width=".23523" />
      </g>
      <g fill="none" stroke="#c13c1b">
         <path d="M402.903 350.461c-.228-1.74.644-4.562 1.429-6.371 1.083 1.616 2.515 4.242 2.692 5.88.34 3.15-3.733 3.45-4.121.491z" stroke-width=".23523" />
         <path d="M403.443 350.358c-.168-1.289.473-3.38 1.052-4.719.8 1.197 1.856 3.143 1.988 4.357.252 2.332-2.753 2.552-3.04.362z" stroke-width=".23523" />
         <path d="M403.448 350.296a2.316 2.316 0 011.432-.746c.733-.082 1.177.137 1.536.385M403.728 348.076c.253-.218.75-.385.984-.408.253-.025.76.09.982.2" style="marker:none" color="#000" stroke-linecap="round" stroke-linejoin="round" overflow="visible" stroke-width=".23523" />
      </g>
      <g fill="none" stroke="#c13c1b">
         <path d="M360.482 333.116c1.448-.99 4.36-1.493 6.328-1.612-.95 1.697-2.643 4.163-4.023 5.064-2.654 1.73-4.766-1.766-2.305-3.452z" stroke-width=".23523" />
         <path d="M360.82 333.55c1.072-.733 3.226-1.108 4.682-1.199-.705 1.255-1.96 3.079-2.983 3.746-1.965 1.282-3.523-1.298-1.7-2.546z" stroke-width=".23523" />
         <path style="marker:none" d="M360.877 333.528c.291.074.908.322 1.313.938.406.616.412 1.112.353 1.543M362.983 332.771c.309.126.682.495.809.693.137.214.263.717.267.966" color="#000" stroke-linecap="round" stroke-linejoin="round" overflow="visible" stroke-width=".23523" />
      </g>
      <g fill="none" stroke="#c13c1b">
         <path d="M358.207 329.01c1.538-.845 4.484-1.06 6.455-.985-1.112 1.596-3.039 3.884-4.5 4.645-2.811 1.462-4.57-2.224-1.955-3.66z" stroke-width=".23523" />
         <path d="M358.5 329.475c1.139-.626 3.32-.787 4.777-.735-.824 1.18-2.253 2.872-3.336 3.435-2.081 1.083-3.378-1.637-1.442-2.7z" stroke-width=".23523" />
         <path d="M358.559 329.457c.282.103.871.41 1.215 1.063.343.653.3 1.146.2 1.57M360.729 328.91c.295.157.63.56.737.77.115.226.192.74.171.987" style="marker:none" color="#000" stroke-linecap="round" stroke-linejoin="round" overflow="visible" stroke-width=".23523" />
      </g>
      <g fill="none" stroke="#c13c1b">
         <path d="M363.253 337.07c1.286-1.194 4.09-2.122 6.02-2.532-.688 1.82-1.998 4.51-3.23 5.604-2.367 2.105-4.974-1.04-2.79-3.072z" stroke-width=".23523" />
         <path d="M363.651 337.45c.952-.885 3.027-1.575 4.454-1.88-.512 1.346-1.484 3.335-2.396 4.146-1.754 1.559-3.676-.762-2.058-2.266z" stroke-width=".23523" />
         <path style="marker:none" d="M363.705 337.418c.299.031.945.185 1.437.734.492.55.572 1.038.578 1.474M365.675 336.358c.324.08.748.389.903.565.167.192.367.671.407.916" color="#000" stroke-linecap="round" stroke-linejoin="round" overflow="visible" stroke-width=".23523" />
      </g>
      <g fill="none" stroke="#c13c1b">
         <path d="M354.862 320.094c1.685-.49 4.608-.06 6.515.44-1.432 1.318-3.81 3.133-5.401 3.558-3.061.817-3.978-3.163-1.114-3.998z" stroke-width=".23523" />
         <path d="M355.047 320.612c1.248-.363 3.411-.047 4.823.32-1.06.973-2.822 2.314-4.002 2.63-2.267.605-2.942-2.332-.821-2.95z" stroke-width=".23523" />
         <path d="M355.109 320.608c.253.162.762.59.955 1.301.193.712.044 1.185-.146 1.577M357.345 320.546c.255.216.495.683.553.91.064.246.027.764-.047 1.001" style="marker:none" color="#000" stroke-linecap="round" stroke-linejoin="round" overflow="visible" stroke-width=".23523" />
      </g>
      <g fill="none" stroke="#c13c1b">
         <path d="M353.697 315.474c1.704-.417 4.605.14 6.49.722-1.488 1.253-3.942 2.964-5.551 3.32-3.094.684-3.837-3.333-.94-4.042z" stroke-width=".23523" />
         <path d="M353.859 315.999c1.262-.309 3.41.1 4.805.529-1.102.926-2.92 2.19-4.112 2.453-2.291.506-2.84-2.457-.693-2.982z" stroke-width=".23523" />
         <path style="marker:none" d="M353.92 315.997c.247.173.736.623.899 1.342.162.72-.007 1.185-.214 1.568M356.158 316.032c.245.227.464.704.513.933.053.25-.007.765-.09.999" color="#000" stroke-linecap="round" stroke-linejoin="round" overflow="visible" stroke-width=".23523" />
      </g>
      <g fill="none" stroke="#c13c1b">
         <path d="M356.31 324.694c1.631-.649 4.582-.498 6.528-.182-1.3 1.447-3.494 3.48-5.038 4.055-2.969 1.106-4.26-2.77-1.49-3.873z" stroke-width=".23523" />
         <path d="M356.544 325.192c1.208-.48 3.392-.372 4.832-.141-.963 1.07-2.59 2.572-3.733 2.998-2.2.819-3.152-2.04-1.099-2.857z" stroke-width=".23523" />
         <path d="M356.605 325.182c.268.137.815.514 1.075 1.204s.157 1.175.005 1.583M358.826 324.907c.274.19.557.633.637.853.086.24.1.758.048 1.001" style="marker:none" color="#000" stroke-linecap="round" stroke-linejoin="round" overflow="visible" stroke-width=".23523" />
      </g>
      <g fill="none" stroke="#c13c1b">
         <path d="M370.396 343.553c.892-1.51 3.316-3.199 5.049-4.14-.141 1.94-.63 4.89-1.5 6.29-1.67 2.692-5.064.42-3.549-2.15z" stroke-width=".23523" />
         <path d="M370.885 343.804c.66-1.119 2.454-2.371 3.734-3.07-.107 1.435-.472 3.62-1.115 4.656-1.237 1.994-3.74.317-2.619-1.586z" stroke-width=".23523" />
         <path style="marker:none" d="M370.928 343.759a2.316 2.316 0 011.587.294c.628.386.843.832.973 1.248M372.515 342.181c.333-.016.828.16 1.026.285.215.136.543.539.651.762" color="#000" stroke-linecap="round" stroke-linejoin="round" overflow="visible" stroke-width=".23523" />
      </g>
      <g fill="none" stroke="#c13c1b">
         <path d="M366.57 340.546c1.126-1.346 3.793-2.618 5.655-3.266-.454 1.892-1.416 4.724-2.501 5.965-2.086 2.384-5.066-.41-3.153-2.699z" stroke-width=".23523" />
         <path d="M367.013 340.873c.833-.997 2.806-1.941 4.183-2.423-.339 1.4-1.054 3.495-1.857 4.414-1.545 1.766-3.743-.295-2.326-1.99z" stroke-width=".23523" />
         <path d="M367.062 340.835c.3-.007.961.065 1.518.548.557.483.697.959.758 1.39M368.884 339.537c.332.038.791.291.967.447.19.17.448.62.518.858" style="marker:none" color="#000" stroke-linecap="round" stroke-linejoin="round" overflow="visible" stroke-width=".23523" />
      </g>
      <g fill="none" stroke="#c13c1b">
         <path d="M374.608 345.912c.723-1.599 2.95-3.54 4.57-4.664.07 1.944-.096 4.931-.808 6.417-1.37 2.857-4.99.966-3.762-1.753z" stroke-width=".23523" />
         <path d="M375.122 346.108c.535-1.184 2.182-2.623 3.38-3.457.048 1.439-.078 3.65-.605 4.75-1.014 2.116-3.685.72-2.775-1.293z" stroke-width=".23523" />
         <path style="marker:none" d="M375.16 346.058a2.316 2.316 0 011.609.12c.666.317.928.737 1.103 1.136M376.566 344.319c.33-.053.84.068 1.05.171.23.112.599.477.73.687" color="#000" stroke-linecap="round" stroke-linejoin="round" overflow="visible" stroke-width=".23523" />
      </g>
      <g fill="none" stroke="#c13c1b">
         <path d="M383.703 349.084c.334-1.722 2.053-4.125 3.37-5.592.517 1.875 1.044 4.82.694 6.43-.672 3.096-4.631 2.091-4.064-.838z" stroke-width=".23523" />
         <path d="M384.248 349.157c.248-1.276 1.517-3.056 2.49-4.144.38 1.389.767 3.569.508 4.761-.498 2.293-3.418 1.552-2.998-.617z" stroke-width=".23523" />
         <path d="M384.273 349.1c.26-.152.872-.408 1.594-.255.72.154 1.073.502 1.335.85M385.24 347.082c.308-.127.833-.127 1.062-.075.248.056.692.325.869.5" style="marker:none" color="#000" stroke-linecap="round" stroke-linejoin="round" overflow="visible" stroke-width=".23523" />
      </g>
      <g fill="none" stroke="#c13c1b">
         <path d="M379.108 347.774c.501-1.682 2.447-3.904 3.901-5.236.331 1.917.568 4.899.062 6.467-.972 3.015-4.813 1.628-3.963-1.231z" stroke-width=".23523" />
         <path d="M379.644 347.9c.37-1.246 1.809-2.893 2.883-3.88.242 1.418.415 3.626.04 4.787-.72 2.234-3.554 1.21-2.923-.908z" stroke-width=".23523" />
         <path style="marker:none" d="M379.674 347.845c.273-.125.908-.32 1.61-.097.704.223 1.02.604 1.247.976M380.834 345.932c.32-.097.841-.046 1.064.028.241.08.657.392.816.583" color="#000" stroke-linecap="round" stroke-linejoin="round" overflow="visible" stroke-width=".23523" />
      </g>
      <g fill="none" stroke="#c13c1b">
         <path d="M388.317 349.938c.15-1.748 1.603-4.32 2.757-5.919.713 1.81 1.55 4.682 1.373 6.32-.34 3.15-4.383 2.572-4.13-.4z" stroke-width=".23523" />
         <path d="M388.866 349.953c.111-1.295 1.185-3.2 2.036-4.385.525 1.34 1.142 3.467 1.011 4.68-.251 2.333-3.234 1.906-3.047-.295z" stroke-width=".23523" />
         <path d="M388.885 349.893a2.316 2.316 0 011.558-.422c.733.076 1.12.385 1.418.703M389.632 347.784c.294-.16.815-.215 1.048-.188.253.03.723.25.917.405" style="marker:none" color="#000" stroke-linecap="round" stroke-linejoin="round" overflow="visible" stroke-width=".23523" />
      </g>
      <g fill="none" stroke="#c13c1b">
         <path d="M427.043 343.967c-1.032-1.419-1.617-4.314-1.793-6.278 1.724.9 4.238 2.522 5.177 3.876 1.806 2.603-1.628 4.814-3.384 2.402z" stroke-width=".23523" />
         <path d="M427.468 343.618c-.764-1.05-1.2-3.194-1.333-4.647 1.274.669 3.133 1.872 3.83 2.875 1.337 1.928-1.197 3.558-2.497 1.772z" stroke-width=".23523" />
         <path style="marker:none" d="M427.443 343.561c.067-.293.297-.916.9-1.34.605-.422 1.1-.443 1.533-.396M426.627 341.478c.117-.313.475-.697.669-.829.21-.143.71-.284.958-.294" color="#000" stroke-linecap="round" stroke-linejoin="round" overflow="visible" stroke-width=".23523" />
      </g>
      <g fill="none" stroke="#c13c1b">
         <path d="M422.641 346.234c-.905-1.503-1.237-4.438-1.243-6.41 1.64 1.046 4.004 2.88 4.823 4.31 1.574 2.75-2.04 4.655-3.58 2.1z" stroke-width=".23523" />
         <path d="M423.095 345.923c-.67-1.113-.92-3.286-.926-4.745 1.212.777 2.96 2.136 3.566 3.195 1.166 2.037-1.5 3.442-2.64 1.55z" stroke-width=".23523" />
         <path d="M423.075 345.864a2.316 2.316 0 011.013-1.256c.638-.37 1.133-.347 1.561-.263M422.442 343.718c.144-.301.533-.653.738-.768.222-.124.732-.221.98-.21" style="marker:none" color="#000" stroke-linecap="round" stroke-linejoin="round" overflow="visible" stroke-width=".23523" />
      </g>
      <g fill="none" stroke="#c13c1b">
         <path d="M431.247 341.205c-1.233-1.248-2.248-4.023-2.717-5.938 1.84.631 4.57 1.857 5.701 3.054 2.177 2.301-.885 5.004-2.984 2.884z" stroke-width=".23523" />
         <path d="M431.614 340.795c-.913-.924-1.667-2.976-2.016-4.393 1.36.47 3.38 1.38 4.218 2.266 1.612 1.705-.647 3.698-2.202 2.127z" stroke-width=".23523" />
         <path d="M431.581 340.743c.022-.3.156-.95.69-1.46.533-.509 1.02-.603 1.455-.623M430.461 338.806c.069-.327.365-.76.537-.92.186-.173.659-.387.903-.435" style="marker:none" color="#000" stroke-linecap="round" stroke-linejoin="round" overflow="visible" stroke-width=".23523" />
      </g>
      <g fill="none" stroke="#c13c1b">
         <path d="M438.481 334.218c-1.527-.864-3.26-3.257-4.233-4.971 1.942.105 4.902.54 6.318 1.382 2.722 1.62.513 5.056-2.085 3.589z" stroke-width=".23523" />
         <path d="M438.723 333.724c-1.131-.64-2.416-2.409-3.139-3.676 1.437.08 3.628.404 4.676 1.029 2.017 1.2.387 3.734-1.537 2.647z" stroke-width=".23523" />
         <path style="marker:none" d="M438.677 333.682a2.316 2.316 0 01.265-1.592c.374-.635.816-.859 1.23-.996M437.07 332.125c-.022-.333.144-.83.266-1.031.132-.218.529-.553.75-.666" color="#000" stroke-linecap="round" stroke-linejoin="round" overflow="visible" stroke-width=".23523" />
      </g>
      <g fill="none" stroke="#c13c1b">
         <path d="M435.094 337.97c-1.385-1.077-2.75-3.698-3.462-5.536 1.906.388 4.77 1.25 6.048 2.29 2.456 2.002-.231 5.077-2.586 3.246z" stroke-width=".23523" />
         <path d="M435.405 337.517c-1.025-.798-2.038-2.736-2.568-4.096 1.41.29 3.53.931 4.476 1.702 1.82 1.482-.164 3.75-1.908 2.394z" stroke-width=".23523" />
         <path d="M435.365 337.47c-.017-.301.032-.964.495-1.537.463-.574.933-.73 1.362-.806M434.004 335.694c.026-.333.264-.801.414-.982.162-.196.603-.47.839-.548" style="marker:none" color="#000" stroke-linecap="round" stroke-linejoin="round" overflow="visible" stroke-width=".23523" />
      </g>
      <g fill="none" stroke="#c13c1b">
         <path d="M441.164 330.155c-1.563-.796-3.398-3.111-4.446-4.782 1.945.02 4.92.326 6.372 1.106 2.79 1.5.733 5.029-1.926 3.676z" stroke-width=".23523" />
         <path d="M441.384 329.651c-1.158-.59-2.519-2.301-3.296-3.536 1.44.018 3.642.246 4.717.824 2.067 1.111.548 3.714-1.42 2.712z" stroke-width=".23523" />
         <path style="marker:none" d="M441.336 329.612a2.316 2.316 0 01.195-1.603c.347-.65.779-.893 1.186-1.049M439.664 328.126c-.038-.332.107-.837.22-1.042.122-.223.504-.576.72-.698" color="#000" stroke-linecap="round" stroke-linejoin="round" overflow="visible" stroke-width=".23523" />
      </g>
      <g fill="none" stroke="#c13c1b">
         <path d="M445.145 321.513c-1.679-.51-3.891-2.468-5.216-3.93 1.919-.32 4.902-.541 6.468-.027 3.01.988 1.603 4.822-1.252 3.957z" stroke-width=".23523" />
         <path d="M445.273 320.978c-1.243-.378-2.883-1.824-3.865-2.904 1.42-.235 3.629-.395 4.789-.015 2.229.732 1.19 3.56-.924 2.919z" stroke-width=".23523" />
         <path d="M445.219 320.947a2.316 2.316 0 01-.089-1.611c.227-.702.61-1.016.984-1.24M443.312 319.778c-.095-.32-.041-.843.034-1.065.082-.24.395-.655.587-.813" style="marker:none" color="#000" stroke-linecap="round" stroke-linejoin="round" overflow="visible" stroke-width=".23523" />
      </g>
      <g fill="none" stroke="#c13c1b">
         <path d="M443.484 325.88c-1.633-.643-3.682-2.771-4.885-4.334 1.938-.166 4.93-.148 6.45.49 2.92 1.225 1.211 4.935-1.565 3.843z" stroke-width=".23523" />
         <path d="M443.655 325.357c-1.21-.476-2.729-2.05-3.62-3.204 1.434-.12 3.648-.104 4.773.368 2.164.908.903 3.644-1.153 2.836z" stroke-width=".23523" />
         <path style="marker:none" d="M443.603 325.322a2.316 2.316 0 01.04-1.614c.283-.68.69-.964 1.08-1.157M441.795 324.003c-.068-.326.027-.842.12-1.058.1-.233.446-.62.65-.763" color="#000" stroke-linecap="round" stroke-linejoin="round" overflow="visible" stroke-width=".23523" />
      </g>
      <g fill="none" stroke="#c13c1b">
         <path d="M446.646 316.967c-1.724-.326-4.134-2.035-5.608-3.345 1.873-.525 4.815-1.066 6.427-.723 3.099.659 2.112 4.622-.82 4.068z" stroke-width=".23523" />
         <path d="M446.716 316.422c-1.277-.242-3.063-1.504-4.155-2.471 1.387-.387 3.565-.784 4.759-.53 2.295.488 1.567 3.411-.604 3.001z" stroke-width=".23523" />
         <path d="M446.659 316.397a2.316 2.316 0 01-.262-1.592c.15-.722.497-1.076.844-1.34M444.637 315.44c-.129-.309-.131-.833-.08-1.062.055-.249.322-.694.495-.872" style="marker:none" color="#000" stroke-linecap="round" stroke-linejoin="round" overflow="visible" stroke-width=".23523" />
      </g>
      <path d="M414.234 291.785c3.365 12.696 9.757 17.919 1.353 26.008-2.779 2.675-6.443 5.376-13.686 5.841-21.14 1.36-20.928-9.008-25.871-27.791-3.44 1.293-19.645-1.968-19.128-5.79.242-.72.445-2.159.64-3.77-.116-1.623-.747-2.17-1.815-2.272-.598.185-1.555-2.85.168-3.276-1.717.135-1.755-1.946-1.474-2.788.289-.883.404-1.96.144-2.627-3.508.024-5.802-1.962-4.675-5.946 1.945-3.5 6.205-10.265 8.264-14.643-.175-1.633.664-4.674 1.8-7.151 1.364-1.201 30.82-5.065 30.254 11.791l3.208.357 4.654.353-.02 11.052c-.337 9.93 10.14 15.447 16.184 20.652z" fill="#308d57" fill-rule="evenodd" stroke="#000" stroke-width=".284" />
      <path d="M401.252 474.636l-.536-1.608 1.682-.836c8.698-4.044 18.894-6.09 28.88-8.417l-.023-.913-3.136-25.892-70.933.386-.196 26.042c10.448 5.025 20.476 6.096 30.924 8.72l-2.149 2.887c-28.969 28.471-23.373 133.915-23.858 159.703l16.357-.665-.406-13.507c.47-28.52-3.535-114.904 10.1-139.35 1.134-2.144 2.323-4.227 4.7-4.975.821-.178 1.643-.24 2.465.21 2.388 1.365 4.172 5.11 4.62 8.458 4.309 32.124 7.412 95.723 5.48 148.528l14.997-.465c-1.99-54.182-2.477-141.21-18.968-158.306z" fill="#c13c1b" fill-rule="evenodd" stroke="maroon" stroke-width=".47" />
      <path d="M356.822 437.614l-6.71-24.253 15.333-2.812 6.838 20.097-15.46 6.968zM437.698 404.44l12.23 2.884L442.623 430l-12.225-5.023 7.3-20.535z" fill="#fac53a" fill-rule="evenodd" stroke="#c13c1b" stroke-width=".706" stroke-linecap="round" stroke-linejoin="round" />
      <path d="M362.35 630.533l15.094-1.505M406.573 628.797l12.122-1.394" fill="none" stroke="#000" stroke-width=".235" />
      <path d="M252.408 873.46l26.426-48.95H431.63v48.95H252.408z" fill="#fac53a" fill-rule="evenodd" stroke="#c13c1b" stroke-width="1.176" stroke-linecap="round" stroke-linejoin="round" />
      <path d="M283.821 832.15l139.492-.037v33.742H267.01l16.812-33.705z" fill="#04a" fill-rule="evenodd" stroke="#c13c1b" stroke-width="1.176" stroke-linecap="round" stroke-linejoin="round" />
      <path d="M377.93 452.403c6.361 3.468 11.785 7.457 16.13 12.045 4.68-4.584 9.493-9.036 15.715-12.078l-31.846.033z" fill="#fff" fill-rule="evenodd" stroke="maroon" stroke-width=".47" />
      <path d="M361.87 629.942l16.33-.998.181 5.19-16.822.75.312-4.942zM405.29 628.435l14.766-.998.198 5.601-15.154.947.19-5.55z" fill-rule="evenodd" stroke="#000" stroke-width=".235" />
      <path d="M399.044 432.593c.172-.523.404-1.118.232-1.773l-56.814-111.843s-6.138-11.262-8.163-14.454c-.104-.165-.344-.272-.458-.339-.13-.076-.155-.137-.332-.162-5.505-.78-18.002-2.319-23.875-10.866-6.124-8.913-4.772-21.604 4.878-27.876 9.65-6.272 20.295-4.945 26.615.695 8.19 9.605 2.927 15.592 10.333 29.432.12 1.794-3.616 3.2-4.636 2.397-6.853-13.44-3.698-14.9-7.002-24.024-2.754-6.735-12.718-10.056-20.821-4.494-8.104 5.561-7.655 16.346-3.908 20.037 5.215 6.822 10.431 7.622 20.905 9.273.594.093 1.263.293 1.47.474.262.23.535.267.84.76l8.928 15.413 58.357 113.102c.37.42.757.805 1.36.757" fill-rule="evenodd" fill="#04a" stroke="#c13c1b" stroke-width=".47046" stroke-linecap="round" stroke-linejoin="round" />
      <path d="M319.078 300.427l2.079-5.63c2.891 1.442 6.01 2.28 9.236 2.827l-1.882 5.701c-3.296-.701-6.577-1.429-9.433-2.898zM305.94 283.094l6.431-1.19c.01 4.26 1.546 5.94 2.966 7.816l-6.19 2.575c-1.685-2.731-2.754-5.798-3.207-9.2z" style="marker:none" color="#000" fill="#fac53a" fill-rule="evenodd" overflow="visible" />
      <path d="M391.207 260.74c.428 25.274-9.257 35.72-32.286 32.134" fill="none" stroke="#000" stroke-width="1.135" />
      <path d="M385.95 254.918c-1.974-.385-3.879-.93-5.61-1.873-3.261-1.771-5.748-4.248-10.221-4.913-3.584-.47-6.726.014-8.755 1.024-2.056 1.024-1.03 2.673.588 1.95 1.62-.723 4.577-1.436 7.451-1.002 2.874.433 7.422 3.555 10.22 4.912 2.8 1.358 4.295 1.589 6.289 1.886.282-.744.262-1.395.038-1.984zM386.265 258.091c-5.197-.346-6.58-.314-10.967-1.73-5.83-1.683-12.49-3.916-15.158 1.248-1.18 2.108-2.141 2.908.956 2.51 8.118 1.431 9.836-.492 13.407-1.444 2.715.32 7.137 1.066 11.504 1.799.323-.749.455-1.534.258-2.383z" fill-rule="evenodd" stroke="#000" stroke-width=".068" />
      <path d="M370.204 255.709c-2.94-1.051-5.726-1.545-7.881.252.27 1.555.869 2.8 2.262 3.296 1.648.283 4.421-.015 5.382-.972.96-.957 1.168-2.176.237-2.576z" fill-rule="evenodd" stroke="#000" stroke-width=".068" />
      <path d="M373.639 257.302c-1.281-.287-2.002-.717-2.862-1.111.172.875-.197 1.43-.577 1.979.463.146 2.858-.667 3.439-.868zM362.41 256.16c-.892 1.131-1.674 1.982-1.784 3.059 1.31-.218 2.91.351 3.925.04-1.386-.79-1.907-1.884-2.14-3.098z" fill="#fff" fill-rule="evenodd" stroke="#000" stroke-width=".068" />
      <g stroke="#000">
         <path d="M355.127 273.92c-1.628-1.13-2.52-1.185-2.647-.293-.182 1.285 1.435.573 2.563.504" fill-rule="evenodd" stroke-width=".23523" />
         <path d="M356.93 270.096c3.608 2.617 1.843 4.45.205 4.466-1.62.015-4.102-2.607-4.6-1.034-.504 1.588 2.674.861 2.603.424" fill="none" stroke-width=".2940375" />
      </g>
      <path d="M363.27 280.404c-.241-.056-7.466.332-7.466.332" fill="none" stroke="#000" stroke-width=".294" stroke-linecap="round" stroke-linejoin="round" />
      <path d="M396.106 263.895c.64.706-.284 1.592-.987 2.002-4.403 3.19-3.892 6.639-1.787 8.861 1.321 1.732 3.394.893 3.832-.185.461-1.134.82-2.586 1.438-4.066 5.682-11.07 4.136-13.488 4.095-13.837-.073-.613-2.402-4.563-5.006-3.831-2.673.752-8.627 5.585-1.585 11.056z" fill="#308d57" fill-rule="evenodd" />
      <path d="M395.403 265.858c-4.403 3.19-3.892 6.64-1.787 8.862 1.321 1.732 3.394.892 3.832-.186.461-1.134.82-2.586 1.438-4.065 5.683-11.07 4.137-13.489 4.095-13.838-.073-.613-2.401-4.563-5.006-3.83-2.673.751-8.627 5.584-1.585 11.056 1.528 1.169.422 2.7-.596 4.743m-.12-9.043c4.083.187 3.908 4.037 1.318 9.964-2.064 2.178-2.403 2.554-2.8 2.355-.367-.184-.198-1.392 1.67-3.29" fill="none" stroke="#000" stroke-width=".5676099899999999" />
      <path d="M394.508 259.22c.092-3.334 2.761-5.125 3.897-5.159 1.053-.031 2.488 1.031 3.362 3.496.608 1.714-.63 4.329-1.503 6.336" fill="none" stroke="#000" stroke-width=".35284499999999996" />
      <path d="M395.824 273.324a.739.739 0 01-.6.855.739.739 0 01-.85-.61.739.739 0 01.6-.854c.401-.068.781.204.85.609z" style="marker:none" color="#000" fill="none" stroke="#000" overflow="visible" stroke-width=".23523" />
      <path d="M354.357 278.054c4.479-1.223 7.34 1.414 9.653 1.842M355.485 283.787c3.604-.278 6.986-2.546 8.466-2.733" fill="none" stroke="#000" stroke-width=".235" stroke-linecap="round" stroke-linejoin="round" />
      <path style="marker:none" color="#000" fill="#fac53a" fill-rule="evenodd" overflow="visible" d="M388.907 410.085l5.837-3.205 6.192 12.048-5.838 3.206z" />
      <path d="M393.995 384.207c.42.829 1.857.688 3.144.087 1.413-.66 3.301-1.084 2.995-1.397l-.737-.425c-.752.223-1.348.377-5.402 1.735z" fill="#fff" fill-rule="evenodd" stroke="#000" stroke-width=".235" />
      <path style="marker:none" color="#000" fill="#fac53a" fill-rule="evenodd" overflow="visible" d="M377.654 388.038l5.492-3.11 5.74 10.903-5.491 3.11zM366.383 366.054l5.492-3.11 5.74 10.903-5.49 3.11z" />
      <rect ry="0" transform="matrix(.88034 -.47434 .44723 .89442 0 0)" y="471.71" x="163.96" height="12.084" width="6.364" style="marker:none" color="#000" fill="#fac53a" fill-rule="evenodd" overflow="visible" />
      <path d="M345.088 324.054l5.183-2.85 5.824 10.64-5.602 3.019-5.405-10.809zM335.105 305.674l4.98-2.415 4.89 8.508-4.98 2.457-4.89-8.55zM316.108 264.32l3.934 4.392c-2.486 1.23-4.486 3.372-6.075 6.282l-5.024-4.17c1.843-2.48 3.782-4.904 7.165-6.504z" style="marker:none" color="#000" fill="#fac53a" fill-rule="evenodd" overflow="visible" />
      <path d="M409.422 384.7c-.42.828-1.857.657-3.53.264-1.518-.357-3.212-.786-2.906-1.1l1.004-.365c.753.223 3.457.912 5.432 1.2z" fill="#fff" fill-rule="evenodd" stroke="#000" stroke-width=".235" />
      <path d="M399.313 432.376l7.278-3.149-1.1-.98-6.118 2.822-.06 1.307zM338.076 263.735l-2.365 5.11c-2.088-1.295-4.4-2.41-8.148-2.378l.911-5.478c4.176.46 7.097 1.506 9.602 2.746zM347.154 282.729l-5.21.486c-.455-3.35-1.257-6.439-2.156-9.456l5.561-.567c.662 3.417 1.256 6.567 1.805 9.537zM351.47 295.52c-.71 1.643-2.056 2.65-4.777 2.282l-2.437-5.709 4.996-1.398 2.219 4.826z" style="marker:none" color="#000" fill="#fac53a" fill-rule="evenodd" overflow="visible" />
      <path d="M406.924 429.102l-7.94 3.49c.404-.562.477-1.396.24-1.82l-56.762-111.795s-6.138-11.262-8.163-14.454c-.104-.165-.344-.272-.458-.339-.13-.076-.155-.137-.332-.162-5.505-.78-18.002-2.319-23.875-10.866-6.124-8.913-4.772-21.604 4.878-27.876 9.65-6.272 20.295-4.945 26.615.695 8.19 9.605 2.927 15.592 10.333 29.432.12 1.794-3.616 3.2-4.636 2.397-6.853-13.44-3.698-14.9-7.002-24.024-2.754-6.735-12.718-10.056-20.821-4.494-8.104 5.561-7.655 16.346-3.908 20.037 5.215 6.822 10.431 7.622 20.905 9.273.594.093 1.263.293 1.47.474.262.23.535.267.84.76l8.928 15.413 58.357 113.102c.349.442.825.63 1.33.757z" fill="none" stroke="#000" stroke-width=".47046" stroke-linecap="round" stroke-linejoin="round" />
      <path d="M368.21 295.45c-4.367-.424-9.812-2.701-11.425-4.37-3.609 18.496-1.278 42.187-22.24 39.943-.438-.036-.845-.041-1.178.152-2.96 2.734-1.472 8.735 9.409 6.553 18.926-3.795 21.443-31.165 25.434-42.279z" fill-rule="evenodd" stroke="#000" stroke-width=".235" />
      <path d="M378.64 393.109c4.844.226 6.488-1.36 9.268-2.02l12.495 25.342c-.03 1.05-4.449 3.44-6.639 5.024L378.64 393.11z" fill="#308d57" fill-rule="evenodd" />
      <path d="M352.445 413.096l6.44 23.205M353.685 412.71l6.44 23.205M354.914 412.458l6.322 22.73M361.118 411.492l6.084 21.244M362.358 411.106l5.965 21.245M363.587 410.854l5.846 21.067M447.882 407.057l-7.606 21.8M446.831 406.824l-7.641 21.726M445.808 406.598l-7.593 21.37M442.14 405.552l-7.786 20.682M440.935 405.068l-7.667 20.691M439.73 404.717l-7.534 20.523" fill="none" stroke="#c13c1b" stroke-width=".423" stroke-linecap="round" stroke-linejoin="round" />
      <path d="M363.697 629.049l.098 2.255M366.306 628.876l.098 2.255M368.74 628.77l.097 2.255M371.348 628.597l.098 2.255M373.887 628.19l.098 2.255M376.496 628.017l.098 2.255M407.131 627.369l.098 2.255M409.354 627.255l.098 2.255M411.46 627.15l.098 2.255M413.416 626.947l.098 2.255M415.925 626.687l.098 2.256M418.177 626.336l.098 2.256" fill="none" stroke="#000" stroke-width=".941" stroke-linecap="round" stroke-linejoin="round" />
      <path d="M359.868 439.326l.12 10.693M364.027 439.326l.119 10.693M367.947 439.326l.12 10.693M372.106 439.326l.119 10.693M376.74 439.326l.118 10.693M380.898 439.326l.119 10.693M384.819 439.326l.118 10.693M388.977 439.326l.119 10.693M393.135 439.326l.12 10.693M397.769 439.326l.119 10.693M402.284 439.326l.118 10.693M407.036 439.326l.119 10.693M411.907 439.326l.12 10.693M416.303 439.326l.12 10.693M420.58 439.326l.12 10.693M425.214 439.326l.119 10.693M394.01 463.511c.024 2.807.767 7.86 2.797 11.556l-5.797 1.64c-2.395-4.481-3.994-5.305-3.314-6.27 1.362-1.932 5.175-6.95 6.347-7.21 3.691.352 7.751 6.389 8.166 8.92-1.737.84-5.055 1.743-6.05 1.765-.656.034-2.914-10.094-2.149-10.477.088 3.583.788 8.77 2.42 11.692M359.29 462.985c.3-3.23 1.86-8.089 3.59-11.987M363.167 464.554c1.14-4.16 2.953-10.153 5.185-12.701M367.238 466.072c1.057-4.573 4.806-12.043 6.862-13.34M371.253 467.313c.98-4.05 5.02-10.976 7.408-12.877M376.04 468.012c1.683-4.153 3.61-9.313 6.064-11.281M380.303 469.126c.86-4.236 3.636-8.22 5.728-10.188M384.496 469.605c1.47-3.767 2.382-5.06 4.871-7.689M377.025 568.963c-4.695 1-8.82.466-13.515-.085M377.042 573.121c-4.695.634-9.39.858-14.085.153M377.059 577.042c-4.695 1.217-9.39.684-14.086.153M377.076 581.2c-4.695 1.21-9.39.948-14.086.153M377.096 585.834c-4.781.7-9.59 1.616-14.086.153M377.113 589.992c-4.695 1.005-9.39.423-14.086.153M377.13 593.913c-4.696.82-9.39.9-14.086.153M377.147 598.071c-4.53.933-9.262.783-14.086.153M377.165 602.23c-4.314.918-8.89 1.242-14.086.152M377.184 606.863c-4.695 1.388-9.39.985-14.086.153M377.203 611.378c-4.695.899-9.39 1.045-14.086.153M377.223 616.13c-4.695.985-9.39.96-14.086.153M377.243 621.001c-4.01.57-8.6.702-14.085.153M377.262 625.397c-4.601.666-9.197.629-14.086.153M379.914 508.358c-3.623.465-5.274.005-8.67-1.064M379.257 512.532c-3.57.103-5.772-.14-9.144-1.361M379.298 516.47c-3.51.681-6.774-.37-10.038-1.42M378.724 520.586c-3.51.673-6.811-.229-10.038-1.54M378.085 525.171c-3.498.16-7.336-.193-10.495-1.301M378.088 529.389c-4.203.707-7.114-.167-11.196-.73M377.614 533.416c-4.186.523-7.046.19-11.082-.849M377.69 537.442c-4.052.646-7.38.2-11.54-.73M377.536 541.588c-3.862.645-7.325.68-11.767-.73M377.087 546.207c-4.24 1.09-8.309.393-12.337-.73M376.792 550.707c-4.193.602-8.315.453-12.337-.73M376.758 555.563c-4.202.688-8.65.368-12.68-.73M376.658 560.36c-3.564.317-8.162.16-12.908-.73M376.666 564.564c-4.089.375-8.563.05-12.794-.73M417.11 566.843c-3.659 1.015-7.322.734-10.987.198M417.138 571c-3.661.65-7.323.89-10.988.2M417.163 574.922a34.888 34.888 0 01-10.988.198M417.61 579.248c-3.995.47-7.743.81-11.408.03M417.802 583.603c-3.988.716-8.335.47-11.505.03M417.579 587.593c-3.916 1.02-8.005.705-11.253.199M418.11 591.514c-3.917.835-7.836.93-11.757.198M418.138 595.672c-3.777.947-7.728.813-11.757.198M418.167 599.83c-3.598.933-7.416 1.271-11.757.199M418.2 604.107c-3.915 1.404-7.836 1.015-11.758.199M418.23 608.86c-3.916.914-7.835 1.075-11.757.198M418.42 613.73c-3.916 1-7.835.99-11.757.2M418.706 618.518c-3.346.583-7.429.813-12.01.282M418.794 622.998c-4.101.68-8.2.658-12.562.198M411.073 505.487c-3.017.894-5.263 1.04-8.363.808M411.725 509.636c-3.037.852-5.843.874-8.699.725M412.28 513.465c-3.006 1.434-5.937 1.457-9.036 1.145M412.931 517.447c-3.594 1.426-5.838 1.72-9.455 1.396M413.358 521.902c-3.09.922-6.102 1.556-9.624 1.481M414.261 526.136c-3.017 1.222-6.958 1.616-10.043 1.565M414.564 530.217c-3.027 1.037-7.186 1.168-10.296.977M415.084 534.534c-3.374 1.142-6.97 1.213-10.663.81M415.353 538.6c-3.452.72-7.081.951-10.663.809M415.736 543.308c-4.052.514-6.47 1.087-10.663.809M415.691 547.813c-3.404.725-6.925.98-10.663.81M416.166 552.976c-3.833.614-7.476.891-10.83.389M416.313 557.417c-3.005.756-6.474 1.101-10.663.809M416.596 561.804c-3.445.878-6.93 1.055-10.663.809M380.67 504.325c-3.623.465-5.274.005-8.67-1.064M381.93 499.788c-3.623.465-5.274.006-8.67-1.063M382.285 495.48c-3.623.464-3.848-.114-7.244-1.183M383.084 491.723c-2.079-.248-4.442-.945-6.174-1.598M384.383 487.607c-1.425-.367-4.323-1.183-5.342-1.718M385.43 484.019c-1.258-1.052-3.143-1.478-4.095-1.896M387.164 480.085c-.89-.783-2.066-1.42-3.026-1.836M389.115 477.273c-.653-.842-1.71-1.48-2.67-1.539M402.366 502.521c3.238-.324 4.77-.627 7.957-1.064M402.25 498.39c2.493-.664 5.63-1.183 7.243-1.183M401.925 494.218c1.782-.618 4.105-1.366 6.174-1.598M401.398 490.102c1.61-.793 4.548-1.23 5.699-1.242M400.767 485.326c1.024-.378 3.33-1.17 4.748-1.48M399.746 481.213c1.354-.738 2.695-1.09 3.917-1.42M397.914 477.867c1.151-.908 2.765-1.44 3.679-1.48" fill="none" stroke="maroon" stroke-width=".941" stroke-linecap="round" stroke-linejoin="round" />
      <path d="M361.41 450.846l8.382.336v.35h-8.446l.063-.686z" style="marker:none" color="#000" fill="#c13c1b" fill-rule="evenodd" stroke="#c13c1b" stroke-width=".941" stroke-linecap="round" stroke-linejoin="round" overflow="visible" />
      <path d="M428.768 462.525c-.572-3.193-2.79-8.155-5.429-11.136M425.373 463.24c-1.487-4.049-4.976-9.196-7.416-11.546M421.445 464.508c-1.44-4.467-6.226-10.586-8.384-11.704M417.297 465.495c-1.318-3.952-5.678-9.336-8.217-11.029M413.006 466.848c-1.692-3.995-5.055-8.638-7.667-10.392M408.6 468.403c-1.214-4.149-4.233-7.38-6.484-9.164M404.547 470.074c-1.782-3.63-2.885-5.514-5.587-7.922" fill="none" stroke="maroon" stroke-width=".941" stroke-linecap="round" stroke-linejoin="round" />
      <path style="marker:none" d="M425.443 451.207h-8.446v.35h8.446v-.35z" color="#000" fill="#c13c1b" fill-rule="evenodd" stroke="#c13c1b" stroke-width=".941" stroke-linecap="round" stroke-linejoin="round" overflow="visible" />
      <path d="M359.04 452.116l68.05.023" fill="none" stroke="maroon" stroke-width=".235" />
      <path d="M409.275 412.961l4.323 2.451" fill="none" stroke="url(#prefix__b)" stroke-width=".535" stroke-linecap="round" />
      <path d="M410.31 410.517l4.279 2.253" fill="none" stroke="url(#prefix__c)" stroke-width=".529" stroke-linecap="round" />
      <path d="M411.067 408.046l4.34 2.314" fill="none" stroke="url(#prefix__d)" stroke-width=".516" stroke-linecap="round" />
      <path d="M411.842 405.669l4.323 2.45" fill="none" stroke="url(#prefix__e)" stroke-width=".535" stroke-linecap="round" />
      <path d="M412.877 403.224l4.28 2.254" fill="none" stroke="url(#prefix__f)" stroke-width=".529" stroke-linecap="round" />
      <path d="M413.634 400.754l4.341 2.313" fill="none" stroke="url(#prefix__g)" stroke-width=".516" stroke-linecap="round" />
      <path d="M415.92 394.718l4.324 2.45" fill="none" stroke="url(#prefix__h)" stroke-width=".535" stroke-linecap="round" />
      <path d="M416.955 392.273l4.28 2.254" fill="none" stroke="url(#prefix__i)" stroke-width=".529" stroke-linecap="round" />
      <path d="M408.416 415.718l4.34 2.313" fill="none" stroke="url(#prefix__j)" stroke-width=".516" stroke-linecap="round" />
      <path d="M414.854 397.962l4.324 2.145" fill="none" stroke="url(#prefix__k)" stroke-width=".529" stroke-linecap="round" />
      <path d="M545.652 411.363c2.07 4.149 1.73 9.232.755 13.657a26.19 26.19 0 01-10.982-8.915c-.08-.204-.187-.12-.082.076 1.454 4.524 1.462 9 .486 13.424-4.32-1.875-8.259-5.3-11.088-9.307-.121-.224-.3-.17-.133.088 1.907 4.397 1.66 8.845.684 13.27-4.319-1.876-8.408-3.414-10.983-9.143l-48.944-140.59-1.302-2.796.043.37-5.136-2.15c1.096-3.27 2.821-7.983 3.974-9.135 1.153-1.152 4.293-1.54 6.187-.74 1.894.801 5.117 7.726 7.256 11.696l69.265 130.195z" fill="#fac53a" fill-rule="evenodd" stroke="#000" stroke-width=".5" stroke-linejoin="round" />
      <path d="M462.624 271.039l6.726-.991M464.885 282.713l10.468-3.574M465.89 284.979l10.217-4.193M459.468 279.246l15.013-.97M461.807 272.49l9.08-1.13M459.61 277.872l14.033-1.49M460.34 275.885l12.216-1.562M461.074 274.146l10.812-1.388" style="marker:none" color="#000" fill="none" stroke="#000" stroke-width=".327" stroke-linecap="round" overflow="visible" />
      <path d="M512.753 414.917l2.678 7.5 7.054-2.41-2.946-7.5-4.822-2.233-1.964 4.643z" fill="#c13c1b" fill-rule="evenodd" />
      <path d="M516.653 415.321c-1.047 2.767-1.79 6.348-.426 9.343 1.506 3.307 4.814 5.47 7.891 6.848.692-2.975.856-6.429-.507-9.421-1.506-3.308-4.018-5.235-6.958-6.77z" fill="#04a" stroke="#000" stroke-width=".327" stroke-linecap="round" />
      <path d="M515.872 423.732l-30.517-85.194m3.337-1.341l34.3 83.664" fill="#ff0" fill-rule="evenodd" stroke="#000" stroke-width=".327" />
      <g stroke="#000" stroke-width="2.827" fill="none">
         <path d="M512.848 415.171l1.902-4.945 4.831 2.349M511.446 411.286l1.87-4.8 4.682 2.25M510.086 407.34l1.78-4.633 4.549 2.192M508.638 403.45l1.762-4.56 4.382 2.1M507.236 399.564l1.7-4.491 4.355 2.088M505.884 395.637l1.616-4.305 4.237 2.068M504.489 391.77l1.576-4.178 4.13 2.02M503.09 387.84l1.525-4.027 3.97 1.95M501.654 383.923l1.496-3.927 3.837 1.89M500.222 379.96l1.502-3.796 3.7 1.765M498.873 376.098l1.377-3.66 3.59 1.764M497.49 372.205l1.325-3.507 3.533 1.674M496.073 368.281l1.292-3.362 3.38 1.623M494.676 364.239l1.225-3.137 3.212 1.532M493.291 360.457l1.16-3.134 3.159 1.508M491.845 356.456l1.14-2.95 2.94 1.393M490.451 352.478l1.085-2.751 2.817 1.308M489.052 348.658l1.049-2.671 2.737 1.272M487.657 344.792l.994-2.584 2.596 1.193M486.236 340.802l.98-2.334 2.455 1.114" stroke-width=".32691428" />
      </g>
      <g stroke="#000" stroke-width="2.827">
         <path d="M526.556 419.644l-34.524-83.65m3.27-1.498l38.231 81.943" fill="#ff0" fill-rule="evenodd" stroke-width=".32691428" />
         <g fill="none">
            <path d="M523.13 411.237l1.665-5.03 4.937 2.117M521.545 407.423l1.64-4.883 4.784 2.025M520 403.545l1.557-4.711 4.648 1.973M518.369 399.728l1.544-4.638 4.476 1.89M516.783 395.914l1.485-4.567 4.45 1.88M515.247 392.055l1.41-4.376 4.33 1.864M513.67 388.26l1.376-4.25 4.222 1.823M512.087 384.399l1.332-4.094 4.058 1.758M510.466 380.555l1.309-3.994 3.921 1.706M508.848 376.664l1.32-3.863 3.78 1.588M507.317 372.871l1.202-3.721 3.669 1.59M505.75 369.048l1.158-3.566 3.609 1.505M504.149 365.196l1.132-3.42 3.453 1.46M502.562 361.224l1.074-3.192 3.282 1.378M501 357.512l1.009-3.185 3.227 1.356M499.365 353.584l1-3 3.001 1.252M497.784 349.677l.953-2.8 2.876 1.173M496.205 345.927l.921-2.718 2.794 1.141M494.628 342.132l.87-2.628 2.65 1.068M493.02 338.214l.867-2.378 2.506.996" stroke-width=".32691428" />
         </g>
      </g>
      <path d="M537.422 415.114l-38.787-81.816m3.192-1.66l42.286 79.926" fill="#ff0" fill-rule="evenodd" stroke="#000" stroke-width=".327" />
      <g stroke="#000" stroke-width="2.827" fill="none">
         <path d="M533.462 406.89l1.412-5.107 5.036 1.867M531.688 403.16l1.393-4.96 4.88 1.784M529.95 399.364l1.32-4.783 4.741 1.737M528.13 395.634l1.31-4.71 4.566 1.664M526.356 391.903l1.255-4.636 4.538 1.655M524.628 388.126l1.19-4.441 4.418 1.645M522.863 384.414l1.162-4.312 4.307 1.608M521.089 380.638l1.125-4.156 4.141 1.554M519.278 376.88l1.107-4.054 4.002 1.507M517.467 373.075l1.125-3.924 3.854 1.396M515.748 369.363l1.014-3.776 3.744 1.405M513.992 365.624l.978-3.62 3.679 1.322M512.2 361.856l.959-3.472 3.522 1.286M510.416 357.969l.913-3.241 3.347 1.211M508.67 354.34l.848-3.232 3.291 1.193M506.84 350.499l.848-3.047 3.06 1.1M505.065 346.676l.812-2.844 2.931 1.027M503.3 343.01l.784-2.76 2.848.999M501.535 339.298l.738-2.668 2.7.934M499.733 335.466l.748-2.419 2.552.87" stroke-width=".32691428" />
      </g>
      <path d="M533.735 406.792l1.25-4.732 4.732 1.607 4.286 7.768-6.607 3.393-3.661-8.036zM523.02 411.167l1.876-4.732 4.643 1.875 3.392 6.964-6.696 3.125-3.214-7.232z" fill="#c13c1b" fill-rule="evenodd" />
      <path d="M527.209 410.87c-1.047 2.768-1.79 6.349-.426 9.343 1.506 3.308 4.813 5.47 7.891 6.848.692-2.975.856-6.428-.507-9.42-1.506-3.309-4.018-5.236-6.958-6.77zM545.218 422.668c1.047-2.767 1.295-6.345-.069-9.34-1.506-3.307-4.814-5.47-7.891-6.848-.692 2.975-.856 6.429.507 9.422 1.506 3.307 4.513 5.231 7.453 6.766z" fill="#04a" stroke="#000" stroke-width=".327" stroke-linecap="round" />
      <path d="M490.396 336.688l34.14 83.373M535.332 416.023l-38.354-82.18" fill="none" stroke="#000" stroke-width=".327" />
      <path d="M484.79 337.946l-1.097-5.387 3.446-1.397 2.875 4.671-5.225 2.113z" fill="#04a" fill-rule="evenodd" stroke="#000" stroke-width=".327" stroke-linejoin="round" />
      <path d="M492.932 312.453l-15.45 6.248M484.627 338.823l18.193-7.576M479.98 325.803l16.588-6.763M482.26 332.406l17.537-7.112" fill="none" stroke="#000" stroke-width=".327" />
      <path d="M490.694 335.551l-1.097-5.387 3.447-1.397 2.874 4.671-5.224 2.113zM496.624 333.146l-1.096-5.387 3.446-1.397 2.875 4.671-5.225 2.113z" fill="#04a" fill-rule="evenodd" stroke="#000" stroke-width=".327" stroke-linejoin="round" />
      <path d="M482.889 331.39l-1.272-5.541 3.09-1.253 2.866 4.9-4.684 1.894zM488.413 329.108l-1.265-5.544 3.114-1.262 2.872 4.898-4.721 1.908zM493.893 326.927l-1.238-5.555 3.21-1.301 2.897 4.888-4.869 1.968z" fill="#c13c1b" fill-rule="evenodd" stroke="#000" stroke-width=".327" stroke-linejoin="round" />
      <path d="M480.397 324.749l-1.343-5.599 2.939-1.191 2.859 4.99-4.455 1.8zM485.713 322.578l-1.332-5.6 2.826-1.139 2.791 5.018-4.285 1.72zM490.93 320.466l-1.33-5.604 2.99-1.212 2.872 4.985-4.532 1.831z" fill="#04a" fill-rule="evenodd" stroke="#000" stroke-width=".327" stroke-linejoin="round" />
      <path d="M469.684 295.7l11.857-4.898" fill="none" stroke="#000" stroke-width=".327" />
      <path d="M477.567 310.719c-.59 1.105-1.074 2.52-.575 3.65.55 1.25 1.968 2.007 3.312 2.464.437-1.177.856-2.634.358-3.765-.551-1.25-1.819-1.828-3.095-2.35z" fill="none" stroke="#000" stroke-width=".327" stroke-linecap="round" />
      <path d="M470.46 295.49l6.677 19.204M472.91 294.6l7.775 18.544" fill="none" stroke="#000" stroke-width=".327" />
      <path d="M482.388 308.824c-.59 1.105-1.133 2.607-.634 3.738.55 1.25 2.027 1.92 3.371 2.377.437-1.177.787-2.583.29-3.713-.551-1.25-1.751-1.88-3.027-2.402zM489.57 313.065c.59-1.106 1.031-2.593.533-3.725-.55-1.25-2.151-1.919-3.496-2.376-.436 1.177-.868 2.636-.37 3.767.55 1.25 2.057 1.812 3.333 2.334z" fill="none" stroke="#000" stroke-width=".327" stroke-linecap="round" />
      <path d="M481.916 312.932l-7.45-19.005M485.554 311.619l-8.387-18.794M486.456 311.185c-.017-.261-8.124-18.86-8.124-18.86M490.21 309.56l-9.523-18.289" fill="none" stroke="#000" stroke-width=".327" />
      <g stroke="#000" stroke-width="2.827" fill="none">
         <path d="M475.781 310.709l.988-2.792 2.427 1.462M474.99 308.514l.895-2.757 2.416 1.49M474.195 306.338l.815-2.721 2.312 1.508M473.56 304.165l.59-2.65 2.251 1.466M472.688 301.95l.571-2.615 2.206 1.575" stroke-width=".32691428" />
         <path d="M472.04 299.79l.352-2.576 2.312 1.608" stroke-width=".32691428" />
         <path d="M471.214 297.606l.442-2.434 2.116 1.583" stroke-width=".32691428" />
      </g>
      <g stroke="#000" stroke-width="2.827" fill="none">
         <path d="M480.412 309.29l.822-2.79 2.55 1.212M479.62 307.137l.731-2.797 2.58 1.363M478.825 304.919l.65-2.72 2.52 1.507M477.862 302.872l.754-2.776 2.415 1.342M477.07 300.575l.655-2.658 2.411 1.49M476.34 298.496l.517-2.7 2.229 1.485M475.473 296.272l.525-2.579 2.28 1.56" stroke-width=".32691428" />
      </g>
      <g stroke="#000" stroke-width="2.745" fill="none">
         <path d="M220.714 2204.148l15.715-19.643 14.642 19.643" transform="matrix(.11037 -.05344 .05122 .10371 347.638 90.455)" />
         <path d="M221.429 2184.327l15-20 13.269 20.803M222.321 2163.97l14.108-19.643L250 2163.968M223.036 2143.97l13.393-19.286 13.214 19.107M224.286 2123.79l12.143-19.463 12.5 19.82M225.179 2103.97l11.25-19.465 11.25 19.643M225.714 2083.79l11.914-19.51 10.52 20.227" transform="matrix(.11037 -.05344 .05122 .10371 347.638 90.455)" />
      </g>
      <path transform="matrix(.10806 -.00066 .00067 .10933 242.88 244.546)" d="M2159.286 368.076c0 7.101-5.837 12.858-13.036 12.858-7.2 0-13.036-5.757-13.036-12.858 0-7.1 5.837-12.857 13.036-12.857 7.2 0 13.036 5.757 13.036 12.857z" fill="#04a" stroke="#000" stroke-width="3.008" stroke-linecap="round" stroke-linejoin="round" />
      <path transform="matrix(.11532 -.0007 .00072 .11692 228.821 245.048)" d="M2159.286 368.076c0 7.101-5.837 12.858-13.036 12.858-7.2 0-13.036-5.757-13.036-12.858 0-7.1 5.837-12.857 13.036-12.857 7.2 0 13.036 5.757 13.036 12.857z" fill="#c13c1b" stroke="#000" stroke-width="2.815" stroke-linecap="round" stroke-linejoin="round" />
      <path transform="matrix(.11532 -.0007 .00072 .11692 230.617 248.3)" d="M2159.286 368.076c0 7.101-5.837 12.858-13.036 12.858-7.2 0-13.036-5.757-13.036-12.858 0-7.1 5.837-12.857 13.036-12.857 7.2 0 13.036 5.757 13.036 12.857z" fill="#04a" stroke="#000" stroke-width="2.815" stroke-linecap="round" stroke-linejoin="round" />
      <path transform="matrix(.10748 .01114 -.01132 .10874 241.766 222.218)" d="M2159.286 368.076c0 7.101-5.837 12.858-13.036 12.858-7.2 0-13.036-5.757-13.036-12.858 0-7.1 5.837-12.857 13.036-12.857 7.2 0 13.036 5.757 13.036 12.857z" fill="#04a" stroke="#000" stroke-width="3.008" stroke-linecap="round" stroke-linejoin="round" />
      <path transform="matrix(.1147 .01191 -.01208 .1163 227.841 221.101)" d="M2159.286 368.076c0 7.101-5.837 12.858-13.036 12.858-7.2 0-13.036-5.757-13.036-12.858 0-7.1 5.837-12.857 13.036-12.857 7.2 0 13.036 5.757 13.036 12.857z" fill="#c13c1b" stroke="#000" stroke-width="2.815" stroke-linecap="round" stroke-linejoin="round" />
      <path transform="matrix(.1147 .01191 -.01208 .1163 229.27 224.53)" d="M2159.286 368.076c0 7.101-5.837 12.858-13.036 12.858-7.2 0-13.036-5.757-13.036-12.858 0-7.1 5.837-12.857 13.036-12.857 7.2 0 13.036 5.757 13.036 12.857z" fill="#04a" stroke="#000" stroke-width="2.815" stroke-linecap="round" stroke-linejoin="round" />
      <path transform="matrix(.108 .00387 -.00393 .10926 241.226 236.317)" d="M2159.286 368.076c0 7.101-5.837 12.858-13.036 12.858-7.2 0-13.036-5.757-13.036-12.858 0-7.1 5.837-12.857 13.036-12.857 7.2 0 13.036 5.757 13.036 12.857z" fill="#04a" stroke="#000" stroke-width="3.008" stroke-linecap="round" stroke-linejoin="round" />
      <path transform="matrix(.11525 .00414 -.0042 .11685 227.357 236.212)" d="M2159.286 368.076c0 7.101-5.837 12.858-13.036 12.858-7.2 0-13.036-5.757-13.036-12.858 0-7.1 5.837-12.857 13.036-12.857 7.2 0 13.036 5.757 13.036 12.857z" fill="#c13c1b" stroke="#000" stroke-width="2.815" stroke-linecap="round" stroke-linejoin="round" />
      <path transform="matrix(.11525 .00414 -.0042 .11685 228.891 239.578)" d="M2159.286 368.076c0 7.101-5.837 12.858-13.036 12.858-7.2 0-13.036-5.757-13.036-12.858 0-7.1 5.837-12.857 13.036-12.857 7.2 0 13.036 5.757 13.036 12.857z" fill="#04a" stroke="#000" stroke-width="2.815" stroke-linecap="round" stroke-linejoin="round" />
      <g stroke="#000" stroke-width="2.827" fill="none">
         <path d="M512.848 415.171l1.902-4.945 4.831 2.349M511.446 411.286l1.87-4.8 4.682 2.25M510.086 407.34l1.78-4.633 4.549 2.192M508.638 403.45l1.762-4.56 4.382 2.1M507.236 399.564l1.7-4.491 4.355 2.088M505.884 395.637l1.616-4.305 4.237 2.068M504.489 391.77l1.576-4.178 4.13 2.02M503.09 387.84l1.525-4.027 3.97 1.95M501.654 383.923l1.496-3.927 3.837 1.89M500.222 379.96l1.502-3.796 3.7 1.765M498.873 376.098l1.377-3.66 3.59 1.764M497.49 372.205l1.325-3.507 3.533 1.674M496.073 368.281l1.292-3.362 3.38 1.623M494.676 364.239l1.225-3.137 3.212 1.532M493.291 360.457l1.16-3.134 3.159 1.508M491.845 356.456l1.14-2.95 2.94 1.393M490.451 352.478l1.085-2.751 2.817 1.308M489.052 348.658l1.049-2.671 2.737 1.272M487.657 344.792l.994-2.584 2.596 1.193M486.236 340.802l.98-2.334 2.455 1.114" stroke-width=".32691428" />
      </g>
      <g fill="#04a" stroke="#c13c1b" stroke-width="2" stroke-linecap="round" stroke-linejoin="round">
         <path d="M411.331 427.591c-.232-.5-.53-1.063-.435-1.733l43.55-117.644s4.231-12.463 5.875-15.867c.085-.176 2.992-9.223 3.544-10.731-3.023-1.565-4.455-1.818-4.861-2.094l-9.73 25.532-44.938 119.073c-.32.458-.659.886-1.264.908" fill-rule="evenodd" stroke="none" />
      </g>
      <path style="marker:none" color="#000" fill="#fac53a" fill-rule="evenodd" overflow="visible" d="M418.769 404.066l-6.168-2.512-4.762 12.682 6.168 2.512zM427.407 380.87l-5.813-2.457-4.447 11.492 5.814 2.456zM436.07 357.733l-5.814-2.456-4.447 11.491 5.814 2.456z" />
      <rect style="marker:none" width="6.364" height="12.084" x="-532.314" y="146.659" transform="matrix(-.92913 -.36975 -.3412 .93999 0 0)" ry="0" color="#000" fill="#fac53a" fill-rule="evenodd" overflow="visible" />
      <path style="marker:none" d="M452.384 313.56l-5.476-2.235-4.56 11.24 5.913 2.353 4.123-11.359zM459.804 292.51l-5.036-1.951-3.561 9.204 5.482 2.055 3.115-9.308zM410.971 427.407l-7.591-2.29.979-1.1 6.403 2.099.21 1.291z" color="#000" fill="#fac53a" fill-rule="evenodd" overflow="visible" />
      <g fill="none" stroke="#000" stroke-width="2" stroke-linecap="round" stroke-linejoin="round">
         <path d="M458.967 279.306l-9.845 25.748-44.938 119.073c-.296.479-.747.72-1.235.905l8.222 2.575c-.465-.512-.567-1.355-.38-1.803l43.503-117.59s8.544-23.33 9.683-26.796" stroke-width=".47046" />
      </g>
      <path d="M404.557 423.848l6.064 1.933" fill="none" stroke="#000" stroke-width=".529" stroke-linecap="round" />
      <path d="M423.861 391.768c-3.005.685-6.247.47-8.767.088l-8.928 25.018c.285 1.011 5.272 2.195 7.782 3.198l9.913-28.304z" fill="#308d57" fill-rule="evenodd" />
      <path d="M379.547 393.095c5.508-.136 6.618-1.835 10.03-2.28.601-.08 3.655-.683 3.823-.722.61-.142 1.284-.079 2.133-.023M423.994 391.918c-5.635.452-6.975.202-10.305-.053-1.66-.128-3.613.62-7.352-.638" fill="none" stroke="#0b280b" stroke-width=".235" />
      <g fill="none" stroke="#c13c1b" stroke-width="3" stroke-linecap="round" stroke-linejoin="round">
         <path d="M308.251 824.866v6.89M311.224 824.866v6.89M314.35 824.866v6.89M317.69 824.866v6.89" stroke-width=".7056899999999999" />
      </g>
      <g fill="none" stroke="#c13c1b" stroke-width="3" stroke-linecap="round" stroke-linejoin="round">
         <path d="M329.043 824.866v6.89M332.016 824.866v6.89M335.142 824.866v6.89M338.481 824.866v6.89" stroke-width=".7056899999999999" />
      </g>
      <g fill="none" stroke="#c13c1b" stroke-width="3" stroke-linecap="round" stroke-linejoin="round">
         <path d="M350.429 824.866v6.89M353.402 824.866v6.89M356.528 824.866v6.89M359.867 824.866v6.89" stroke-width=".7056899999999999" />
      </g>
      <g fill="none" stroke="#c13c1b" stroke-width="3" stroke-linecap="round" stroke-linejoin="round">
         <path d="M370.627 824.866v6.89M373.6 824.866v6.89M376.726 824.866v6.89M380.065 824.866v6.89" stroke-width=".7056899999999999" />
      </g>
      <g fill="none" stroke="#c13c1b" stroke-width="3" stroke-linecap="round" stroke-linejoin="round">
         <path d="M390.587 824.866v6.89M393.56 824.866v6.89M396.686 824.866v6.89M400.025 824.866v6.89" stroke-width=".7056899999999999" />
      </g>
      <g fill="none" stroke="#c13c1b" stroke-width="3" stroke-linecap="round" stroke-linejoin="round">
         <path d="M409.359 824.866v6.89M412.332 824.866v6.89M415.458 824.866v6.89M418.797 824.866v6.89" stroke-width=".7056899999999999" />
      </g>
      <g fill="none" stroke="#c13c1b" stroke-width="3" stroke-linecap="round" stroke-linejoin="round">
         <path d="M269.52 866.212v6.89M272.492 866.212v6.89M275.618 866.212v6.89M278.958 866.212v6.89" stroke-width=".7056899999999999" />
      </g>
      <g fill="none" stroke="#c13c1b" stroke-width="3" stroke-linecap="round" stroke-linejoin="round">
         <path d="M271.7 839.15l6.067 3.267M273.11 836.532l6.067 3.267M274.592 833.78l6.067 3.267M276.175 830.84l6.067 3.266" stroke-width=".7056899999999999" />
      </g>
      <g fill="none" stroke="#c13c1b" stroke-width="2.592" stroke-linecap="round" stroke-linejoin="round">
         <path d="M-161.852 1800.38v29.295M-149.214 1800.38v29.295M-135.924 1800.38v29.295M-121.728 1800.38v29.295" transform="matrix(.1316 -.2352 .2444 .12666 -158.584 593.826)" />
      </g>
      <g fill="none" stroke="#c13c1b" stroke-width="3" stroke-linecap="round" stroke-linejoin="round">
         <path d="M290.192 866.212v6.89M293.165 866.212v6.89M296.291 866.212v6.89M299.63 866.212v6.89" stroke-width=".7056899999999999" />
      </g>
      <g fill="none" stroke="#c13c1b" stroke-width="3" stroke-linecap="round" stroke-linejoin="round">
         <path d="M286.628 824.866v6.89M289.6 824.866v6.89M292.727 824.866v6.89M296.066 824.866v6.89" stroke-width=".7056899999999999" />
      </g>
      <g fill="none" stroke="#c13c1b" stroke-width="3" stroke-linecap="round" stroke-linejoin="round">
         <path d="M311.103 866.212v6.89M314.075 866.212v6.89M317.202 866.212v6.89M320.541 866.212v6.89" stroke-width=".7056899999999999" />
      </g>
      <g fill="none" stroke="#c13c1b" stroke-width="3" stroke-linecap="round" stroke-linejoin="round">
         <path d="M374.072 866.212v6.89M377.045 866.212v6.89M380.171 866.212v6.89M383.51 866.212v6.89" stroke-width=".7056899999999999" />
      </g>
      <g fill="none" stroke="#c13c1b" stroke-width="3" stroke-linecap="round" stroke-linejoin="round">
         <path d="M393.795 866.212v6.89M396.767 866.212v6.89M399.894 866.212v6.89M403.233 866.212v6.89" stroke-width=".7056899999999999" />
      </g>
      <g fill="none" stroke="#c13c1b" stroke-width="3" stroke-linecap="round" stroke-linejoin="round">
         <path d="M412.091 866.212v6.89M415.064 866.212v6.89M418.19 866.212v6.89M421.53 866.212v6.89" stroke-width=".7056899999999999" />
      </g>
      <g fill="none" stroke="#c13c1b" stroke-width="3" stroke-linecap="round" stroke-linejoin="round">
         <path d="M430.88 853.84h-6.892M430.88 856.812h-6.892M430.88 859.938h-6.892M430.88 863.278h-6.892" stroke-width=".7056899999999999" />
      </g>
      <g fill="none" stroke="#c13c1b" stroke-width="3" stroke-linecap="round" stroke-linejoin="round">
         <path d="M430.88 833.18h-6.892M430.88 836.154h-6.892M430.88 839.28h-6.892M430.88 842.62h-6.892" stroke-width=".7056899999999999" />
      </g>
      <g fill="none" stroke="#c13c1b" stroke-width="3" stroke-linecap="round" stroke-linejoin="round">
         <path d="M332.489 866.212v6.89M335.461 866.212v6.89M338.588 866.212v6.89M341.927 866.212v6.89" stroke-width=".7056899999999999" />
      </g>
      <g fill="none" stroke="#c13c1b" stroke-width="3" stroke-linecap="round" stroke-linejoin="round">
         <path d="M353.162 866.212v6.89M356.134 866.212v6.89M359.26 866.212v6.89M362.6 866.212v6.89" stroke-width=".7056899999999999" />
      </g>
   </g>
</svg>