<svg xmlns="http://www.w3.org/2000/svg" width="350" height="725" version="1.0">
   <defs>
      <linearGradient id="prefix__a">
         <stop offset="0" stop-color="#c13c1b" />
         <stop offset=".839" stop-color="#c13c1b" stop-opacity=".498" />
         <stop offset="1" stop-color="#c13c1b" stop-opacity="0" />
      </linearGradient>
   </defs>
   <path d="M64.746 664.556s.166-2.409.026.793c-.14 3.201.29 42.715-.875 47.969H62.53c-1.573-5.297-1.17-44.782-1.3-48.04-.128-3.258-.099-.73-.099-.73h0l-.167-443.213c-2.89-.405-2.753-2.31-3.715-7.573-.961-5.263-8.887-7.993-8.707-8.97.18-.978 1.426-.778 2.316-1.232.89-.454 2.281-.77 2.92-1.07.64-.301 2.487-.391 3.472-.56.985-.17 1.455-.323 2.443-.445.987-.122 1.064-.231 3.163-.231 2.1 0 2.176.109 3.164.231.987.122 1.457.276 2.442.445.986.169 2.832.259 3.471.56.64.3 2.031.616 2.921 1.07.89.454 2.137.254 2.317 1.232.18.977-7.747 3.707-8.708 8.97-.962 5.262-.825 7.168-3.812 7.586z" fill="#308d57" fill-rule="evenodd" stroke="#000" stroke-width=".21" stroke-linecap="round" stroke-linejoin="round" />
   <path d="M290.327 258.299l16.502.962.546-30.38c.714-11.605.087-16.31-2.26-24.026-6.447-27.633-13.63-55.42-26.022-84.304-9.503-17.078-10.126-40.663-44.502-39.513-8.465-.373-16.944-.221-25.463 1.343-2.746 1.364-19.756 2.312-22.7 28.307 16.238-.326 20.46 5.744 35.72 11.875l3.605 2.234 4.38 11.939c-4.631 5.261-6.947 19.723-8.359 37.527-1.826 25.446-2.261 50.961-4.284 76.396l24.377.965 6.5-20.735 33.024-18.304c8.699 7.458 5.514 6.047 9.601 27.784-.354 5.156-.01 11.158-.665 17.93z" fill="#025" fill-rule="evenodd" stroke="#000" stroke-width=".205" stroke-linecap="round" stroke-linejoin="round" />
   <path d="M283.063 245.762l23.97 1.114-.212 12.356-24.606-.477.848-12.993z" fill="#fac53a" fill-rule="evenodd" stroke-linecap="round" stroke-linejoin="round" stroke="#c13c1b" stroke-width=".42" />
   <g fill="none" stroke="#c13c1b" stroke-width="3" stroke-linecap="round" stroke-linejoin="round">
      <path d="M284.012 247.406l21.674.825M283.937 249.356l21.674.825M283.937 251.456l21.674.825M283.862 253.406l21.674.825M283.937 255.431l21.674.675M283.787 257.531l21.75.525" stroke-width=".63" />
   </g>
   <path d="M156.606 707.59c23.778-5.527 41.44-16.17 48.103-21.243.148-.36.422-2.544.415-2.862l2.034-29.8h3.606l-1.91 28.002c-5.87 9.447-35.539 22.974-52.395 25.88l-9.016-.955c-1.051 2.667-2.534 6.653 3.607 7.505 60.093-.215 44.512-1.144 68.261-2 1.596 3.002 13.484 1.634 15.211 1.39 3.616-1.402 4.435-8.159 3.819-9.759-1.367-3.549-2.241-8.851-3.182-13.576-1.473-12.091-.6-24.183-.637-36.274 5.987-37.83 3.849-80.114 1.06-113.489 5.595-51.134 11.775-107.837 14.001-159.733 27.414-18.16-7.954-67.375-5.09-75.942 3.741-25.387 15.06-47.743 27.152-69.79h.424v2.333l-1.06 14.85c-.559 23.34 3.898 51.92 2.633 72.376-4.924 25.755-2.32 50.397.336 75.901l.212 12.94 19.304.424.849-12.94c3.411-22.415 5.344-44.83 4.242-67.244.399-2.707.314-4.95-.75-7.637 1.147-24.395 1.242-48.79.75-73.185l.212-14c.467-4.06 1.088-8.281 1.485-12.091 1.915-18.879-4.715-28.595-15.485-32.668-15.395-5.823-28.705-8.941-42.638-12.834l-39.904-4.773-42.19 15.91c-18.989 8-16.241 23.247-18.243 36.91l-3.606 14.425c-7.662 26.465-13.973 53.155-18.243 80.185-17.952 21.961-32.756 45.926-44.485 71.847l-5.4 9 10.8 10.5 7.5-9c14.273-14.146 36.825-36.431 47.7-62.399 3.352-2.297 4.22-6.597 4.766-9.413 12.175-28.257 20.966-68.458 24.3-85.349l3.033-15.186.9-2.25h.9v4.95c-1.389 6.55-2.212 13.1-2.4 19.65-1.398 3.239-1.951 4.708 1.2 5.1 1.428 4.342 7.502 10.9 9.9 12.9 9.812 6.862 7.687 15.061 6.6 22.799-11.225 79.878-21.417 114.683 1.8 228.596-1.858 13.574 1.2 24.2 1.8 36.3-3.18 30.6-5.59 61.199-5.4 91.798-.168 38.431-11.757 29.915-60.332 53.58l-7.637-.425c-2.31 2.876-.968 6.182.424 7.213l34.471.08c-5.562-1.43-3.763-4.785-2.924-7.55l9.117 1.022z" fill="#f5ca44" fill-rule="evenodd" stroke="#000" stroke-width=".42" stroke-linecap="round" stroke-linejoin="round" />
   <path d="M73.476 404.422c-7.607.454-16.967 2.371-23.983 11.688l-3.958 1.954c1.558 4.537 5.693 2.417 7.152.266-.929 1.937-.665 3.257 1.706 3.49-.682 1.823-.126 2.971 2.07 3.224-1.35 1.732-.118 3.492 1.948 3.313-.941 2.293.228 3.417 1.48 3.561 3.207 1.76 19.039-15.307 20.682-16.781" fill="#f5ca44" fill-rule="evenodd" stroke="#000" stroke-width=".21" stroke-linecap="round" stroke-linejoin="round" />
   <g fill-rule="evenodd" stroke="#000" stroke-linecap="round" stroke-linejoin="round">
      <path d="M278.97 506.222c2.644-.864 4.81-.534 6.895 0l-1.216-33.075 15.75 1.052c-.482-2.369-.645-4.738 0-7.106l-15.75 1.104h0c3.299-5.896 7.924-11.124 9.588-19.746 3.361-17.424-5.524-16.693-11.688-16.748-6.71-.061-16.617.988-12.495 17.49 1.896 7.592 6.517 13.561 10.245 19.004h0l-17.7-1.104c.595 2.368.537 4.737 0 7.106l17.7-1.052h0l-1.328 33.075z" fill="#025" stroke-width=".21" />
      <path d="M280.3 463.327c-3.402-4.618-6.666-9.13-7.488-15.088-1.662-12.042 4.59-13.387 9.65-13.418 4.497-.027 11.144.61 8.168 13.312-1.396 5.96-3.567 11.32-5.98 15.194-1.511 2.046-3.134 1.711-4.35 0z" fill="#fff" stroke-width=".21" />
   </g>
   <path d="M273.978 413.45c-.974 4.869-3.379 10.024-5.727 15.167-3.105 4.928-3.307 11.216-2.44 17.183l-.318 5.621c8.742 1.046.296-10.62 5.834-14.955l.848 8.06c1.585 1.51 3.148 2.704 4.455.32 1.555 1.741 3.111 1.616 4.667-.32 1.902 2.46 3.454.73 5.09 0 1.745 1.365 3.59 1.85 4.774-1.272.344-8.514 2.89-16.782 2.28-29.274" fill="#f5ca44" fill-rule="evenodd" stroke="#000" stroke-width=".21" stroke-linecap="round" stroke-linejoin="round" />
   <path d="M267.923 188.435l-26.786-7.794-39.166-4.193-27.784 10.413c4.997 22.962 23.07 34.203 45.132 34.973 20.896.728 30.727-4.516 37.644-11.677 6.575-6.807 9.734-15.344 10.96-21.722z" fill="#fff" fill-rule="evenodd" stroke="#000" stroke-width=".22449" stroke-linecap="round" stroke-linejoin="round" />
   <path style="marker:none" d="M256.79 185.18c-4.616 19.073-16.576 26.142-37.798 25.037-20.573-1.072-31.25-13.713-33.373-26.57l-.335-.942" color="#000" fill="none" stroke="#04a" stroke-width="4.001969999999999" stroke-linejoin="round" overflow="visible" />
   <path style="marker:none" d="M246.544 182.236c-4.236 14.919-12.947 18.07-26.994 17.347-13.18-.678-23.292-9.395-23.201-20.207l-.235-.733" color="#000" fill="none" stroke="#308d57" stroke-width="2.45574" overflow="visible" />
   <path style="marker:none" d="M253.376 184.246c-3.53 13.463-11.328 23.64-34.075 22.354-19.206-1.086-28.807-13.555-29.992-24.623l-.211-.688" color="#000" fill="none" stroke="#c13c1b" stroke-width="2.45574" overflow="visible" />
   <path style="marker:none" d="M243.206 181.201c-.073.23-.033.183-.106.42-2.068 6.677-4.924 15.974-23.496 14.33-12.6-1.114-19.168-8.72-19.555-15.742-.018-.518-.2-1.783-.22-2.434l-.136-.443" color="#000" fill="none" stroke="#04a" stroke-width="3.6017099999999997" overflow="visible" />
   <path style="marker:none" d="M249.943 183.282c-4.575 18.08-18.563 20.712-30.812 19.827-16.808-1.218-25.805-11.652-26.307-22.672l-.199-.528" color="#000" fill="none" stroke="#04a" stroke-width="3.6017099999999997" overflow="visible" />
   <path style="marker:none" d="M263.384 187.107c-5.286 20.224-17.288 31.228-43.592 29.957l-.32-.016h-.009c-30.526-1.584-38.193-21.256-40.567-31.035l-.293-.746" color="#000" fill="none" stroke="#fac53a" stroke-width="8.98317" overflow="visible" />
   <g fill="none" stroke="#c13c1b">
      <path d="M208.86 217.791c.541-1.585.26-4.391-.134-6.232-1.319 1.307-3.155 3.495-3.63 4.995-.914 2.883 2.842 3.932 3.764 1.237z" stroke-width=".22457" />
      <path d="M208.374 217.593c.4-1.175.195-3.252-.093-4.615-.975.97-2.331 2.59-2.683 3.701-.677 2.136 2.093 2.91 2.776.914z" stroke-width=".22457" />
      <path d="M208.38 217.533a2.21 2.21 0 00-1.199-.967c-.67-.216-1.127-.095-1.51.07M208.538 215.403c-.195-.252-.63-.501-.844-.567-.232-.071-.727-.059-.957.001" style="marker:none" color="#000" stroke-linecap="round" stroke-linejoin="round" overflow="visible" stroke-width=".22457" />
   </g>
   <g fill="none" stroke="#c13c1b">
      <path d="M213.571 218.569c.386-1.63-.167-4.396-.736-6.19-1.186 1.428-2.802 3.784-3.13 5.322-.63 2.958 3.21 3.639 3.866.868z" stroke-width=".22457" />
      <path d="M213.068 218.418c.286-1.208-.12-3.255-.54-4.584-.875 1.06-2.068 2.804-2.311 3.944-.467 2.19 2.365 2.692 2.851.64z" stroke-width=".22457" />
      <path d="M213.07 218.358a2.21 2.21 0 00-1.288-.847c-.688-.15-1.131.015-1.496.216M213.02 216.223c-.219-.232-.675-.438-.895-.483-.238-.048-.73.012-.952.094" style="marker:none" color="#000" stroke-linecap="round" stroke-linejoin="round" overflow="visible" stroke-width=".22457" />
   </g>
   <g fill="none" stroke="#c13c1b">
      <path d="M204.061 216.434c.697-1.523.695-4.344.487-6.215-1.443 1.17-3.487 3.165-4.109 4.61-1.196 2.778 2.437 4.195 3.622 1.605z" stroke-width=".22457" />
      <path d="M203.598 216.188c.515-1.128.517-3.216.365-4.6-1.065.867-2.576 2.346-3.037 3.416-.886 2.057 1.794 3.102 2.672 1.184z" stroke-width=".22457" />
      <path d="M203.61 216.13a2.21 2.21 0 00-1.097-1.082c-.645-.281-1.112-.206-1.509-.08M203.979 214.026c-.17-.27-.577-.562-.783-.648-.224-.094-.719-.131-.953-.094" style="marker:none" color="#000" stroke-linecap="round" stroke-linejoin="round" overflow="visible" stroke-width=".22457" />
   </g>
   <g fill="none" stroke="#c13c1b">
      <path d="M223.036 219.12c.051-1.674-1.044-4.273-1.961-5.917-.876 1.637-1.987 4.268-2 5.841-.025 3.025 3.873 2.923 3.961.076z" stroke-width=".22457" />
      <path d="M222.513 219.073c.038-1.24-.77-3.165-1.446-4.383-.646 1.213-1.466 3.162-1.476 4.327-.018 2.24 2.857 2.164 2.922.056z" stroke-width=".22457" />
      <path style="marker:none" d="M222.502 219.014a2.21 2.21 0 00-1.43-.572c-.704-.009-1.106.241-1.423.51M222.026 216.932c-.26-.183-.749-.294-.973-.294-.243 0-.713.158-.914.283" color="#000" stroke-linecap="round" stroke-linejoin="round" overflow="visible" stroke-width=".22457" />
   </g>
   <g fill="none" stroke="#c13c1b">
      <path d="M227.6 219.099c-.015-1.675-1.212-4.23-2.193-5.836-.81 1.67-1.817 4.343-1.768 5.916.093 3.023 3.984 2.767 3.96-.08z" stroke-width=".22457" />
      <path d="M227.075 219.072c-.01-1.24-.893-3.132-1.618-4.322-.597 1.237-1.34 3.217-1.304 4.381.07 2.24 2.94 2.05 2.922-.059z" stroke-width=".22457" />
      <path d="M227.062 219.014a2.21 2.21 0 00-1.452-.515c-.704.018-1.095.284-1.401.566M226.505 216.952c-.268-.173-.76-.264-.985-.255-.242.01-.706.185-.902.318" style="marker:none" color="#000" stroke-linecap="round" stroke-linejoin="round" overflow="visible" stroke-width=".22457" />
   </g>
   <g fill="none" stroke="#c13c1b">
      <path d="M218.26 219.034c.237-1.658-.56-4.363-1.288-6.1-1.053 1.53-2.452 4.02-2.64 5.582-.364 3.002 3.52 3.337 3.927.518z" stroke-width=".22457" />
      <path d="M217.745 218.929c.176-1.228-.41-3.232-.947-4.517-.778 1.133-1.81 2.977-1.95 4.134-.27 2.224 2.596 2.47 2.897.383z" stroke-width=".22457" />
      <path d="M217.74 218.87a2.21 2.21 0 00-1.357-.73c-.699-.087-1.126.117-1.47.349M217.5 216.747c-.238-.212-.711-.376-.934-.401-.241-.027-.726.077-.94.178" style="marker:none" color="#000" stroke-linecap="round" stroke-linejoin="round" overflow="visible" stroke-width=".22457" />
   </g>
   <g fill="none" stroke="#c13c1b">
      <path d="M259.34 201.866c-1.37-.963-4.143-1.478-6.02-1.616.885 1.632 2.472 4.007 3.778 4.883 2.512 1.685 4.57-1.627 2.242-3.267z" stroke-width=".22457" />
      <path d="M259.013 202.277c-1.015-.714-3.067-1.098-4.456-1.202.658 1.207 1.835 2.963 2.802 3.612 1.86 1.247 3.379-1.196 1.654-2.41z" stroke-width=".22457" />
      <path style="marker:none" d="M258.958 202.254a2.21 2.21 0 00-1.265.88c-.394.583-.406 1.056-.355 1.469M256.958 201.506c-.297.117-.658.464-.781.652-.134.203-.26.682-.267.919" color="#000" stroke-linecap="round" stroke-linejoin="round" overflow="visible" stroke-width=".22457" />
   </g>
   <g fill="none" stroke="#c13c1b">
      <path d="M261.862 197.373c-1.458-.824-4.268-1.064-6.15-1.018 1.042 1.538 2.854 3.745 4.24 4.49 2.665 1.43 4.389-2.069 1.91-3.472z" stroke-width=".22457" />
      <path d="M261.577 197.814c-1.08-.61-3.16-.792-4.552-.76.773 1.137 2.116 2.77 3.143 3.32 1.974 1.06 3.245-1.521 1.41-2.56z" stroke-width=".22457" />
      <path d="M261.52 197.797a2.21 2.21 0 00-1.172 1c-.335.618-.3 1.09-.21 1.496M259.456 197.249c-.284.145-.61.526-.713.725-.113.214-.192.704-.176.94" style="marker:none" color="#000" stroke-linecap="round" stroke-linejoin="round" overflow="visible" stroke-width=".22457" />
   </g>
   <g fill="none" stroke="#c13c1b">
      <path d="M256.572 205.907c-1.213-1.156-3.879-2.076-5.715-2.49.634 1.745 1.851 4.329 3.014 5.389 2.235 2.038 4.761-.933 2.7-2.899z" stroke-width=".22457" />
      <path d="M256.188 206.265c-.898-.856-2.87-1.54-4.23-1.849.473 1.29 1.376 3.202 2.237 3.987 1.655 1.51 3.519-.682 1.993-2.138z" stroke-width=".22457" />
      <path style="marker:none" d="M256.137 206.234a2.21 2.21 0 00-1.382.683c-.476.518-.558.984-.569 1.4M254.269 205.198c-.311.072-.72.362-.869.529-.162.18-.358.636-.4.87" color="#000" stroke-linecap="round" stroke-linejoin="round" overflow="visible" stroke-width=".22457" />
   </g>
   <g fill="none" stroke="#c13c1b">
      <path d="M264.863 188.454c-1.602-.489-4.397-.113-6.224.34 1.35 1.275 3.598 3.037 5.113 3.462 2.912.818 3.835-2.97 1.111-3.802z" stroke-width=".22457" />
      <path d="M264.68 188.946c-1.186-.362-3.256-.087-4.608.247 1.001.941 2.667 2.243 3.789 2.558 2.156.605 2.837-2.19.82-2.805z" stroke-width=".22457" />
      <path d="M264.621 188.941a2.21 2.21 0 00-.927 1.23c-.193.678-.057 1.13.12 1.507M262.487 188.854c-.245.204-.48.646-.539.863-.063.234-.034.729.033.956" style="marker:none" color="#000" stroke-linecap="round" stroke-linejoin="round" overflow="visible" stroke-width=".22457" />
   </g>
   <g fill="none" stroke="#c13c1b">
      <path d="M263.5 192.827c-1.55-.639-4.367-.531-6.23-.253 1.224 1.397 3.293 3.365 4.76 3.932 2.822 1.092 4.102-2.592 1.47-3.68z" stroke-width=".22457" />
      <path d="M263.27 193.3c-1.146-.474-3.232-.397-4.61-.194.906 1.033 2.44 2.487 3.527 2.908 2.09.808 3.033-1.91 1.084-2.715z" stroke-width=".22457" />
      <path d="M263.212 193.29a2.21 2.21 0 00-1.04 1.136c-.257.655-.164 1.12-.024 1.51M261.096 193c-.264.179-.54.597-.618.807-.086.227-.105.722-.059.955" style="marker:none" color="#000" stroke-linecap="round" stroke-linejoin="round" overflow="visible" stroke-width=".22457" />
   </g>
   <g fill="none" stroke="#c13c1b">
      <path d="M249.45 212.61c-.833-1.454-3.127-3.095-4.77-4.015.111 1.853.543 4.677 1.355 6.024 1.562 2.59 4.83.462 3.414-2.01z" stroke-width=".22457" />
      <path d="M248.98 212.843c-.618-1.077-2.314-2.294-3.528-2.977.085 1.372.407 3.461 1.009 4.459 1.156 1.918 3.567.348 2.518-1.482z" stroke-width=".22457" />
      <path style="marker:none" d="M248.94 212.799a2.21 2.21 0 00-1.52.261c-.604.361-.815.785-.944 1.18M247.444 211.274c-.318-.02-.793.142-.983.26-.207.126-.525.507-.631.719" color="#000" stroke-linecap="round" stroke-linejoin="round" overflow="visible" stroke-width=".22457" />
   </g>
   <g fill="none" stroke="#c13c1b">
      <path d="M253.063 209.635c-1.058-1.299-3.588-2.545-5.358-3.186.41 1.81 1.295 4.527 2.315 5.724 1.962 2.301 4.84-.33 3.043-2.538z" stroke-width=".22457" />
      <path d="M252.637 209.942c-.784-.962-2.655-1.887-3.964-2.364.306 1.34.964 3.349 1.72 4.236 1.453 1.705 3.576-.236 2.244-1.872z" stroke-width=".22457" />
      <path d="M252.59 209.905a2.21 2.21 0 00-1.456.505c-.537.454-.677.906-.74 1.317M250.867 208.643c-.318.032-.76.269-.928.416-.184.16-.436.586-.506.812" style="marker:none" color="#000" stroke-linecap="round" stroke-linejoin="round" overflow="visible" stroke-width=".22457" />
   </g>
   <g fill="none" stroke="#c13c1b">
      <path d="M245.325 215.035c-.67-1.535-2.774-3.415-4.307-4.508-.09 1.855.033 4.708.695 6.135 1.272 2.744 4.75.983 3.612-1.627z" stroke-width=".22457" />
      <path d="M244.832 215.216c-.497-1.137-2.05-2.53-3.184-3.341-.064 1.373.03 3.485.52 4.542.942 2.032 3.508.732 2.664-1.201z" stroke-width=".22457" />
      <path style="marker:none" d="M244.797 215.168a2.21 2.21 0 00-1.538.095c-.64.294-.895.692-1.066 1.07M243.475 213.49c-.314-.054-.803.055-1.005.151-.22.104-.577.448-.705.647" color="#000" stroke-linecap="round" stroke-linejoin="round" overflow="visible" stroke-width=".22457" />
   </g>
   <g fill="none" stroke="#c13c1b">
      <path d="M236.605 217.953c-.299-1.649-1.91-3.963-3.15-5.38-.516 1.784-1.055 4.588-.74 6.13.604 2.963 4.395 2.052 3.89-.75z" stroke-width=".22457" />
      <path d="M236.083 218.015c-.22-1.22-1.411-2.935-2.326-3.985-.38 1.32-.776 3.397-.543 4.538.447 2.195 3.244 1.523 2.87-.553z" stroke-width=".22457" />
      <path d="M236.06 217.96a2.21 2.21 0 00-1.518-.262c-.69.138-1.031.466-1.285.796M235.162 216.023c-.293-.126-.794-.132-1.013-.085-.238.05-.665.302-.836.466" style="marker:none" color="#000" stroke-linecap="round" stroke-linejoin="round" overflow="visible" stroke-width=".22457" />
   </g>
   <g fill="none" stroke="#c13c1b">
      <path d="M241.007 216.758c-.458-1.612-2.29-3.757-3.661-5.046-.34 1.825-.601 4.67-.138 6.172.892 2.89 4.576 1.613 3.799-1.126z" stroke-width=".22457" />
      <path d="M240.494 216.87c-.34-1.193-1.692-2.783-2.705-3.738-.25 1.351-.44 3.457-.097 4.57.66 2.14 3.378 1.198 2.802-.831z" stroke-width=".22457" />
      <path style="marker:none" d="M240.466 216.818a2.21 2.21 0 00-1.537-.112c-.674.205-.98.565-1.201.917M239.382 214.978c-.304-.096-.803-.054-1.017.015-.231.073-.631.366-.786.546" color="#000" stroke-linecap="round" stroke-linejoin="round" overflow="visible" stroke-width=".22457" />
   </g>
   <g fill="none" stroke="#c13c1b">
      <path d="M232.19 218.712c-.122-1.67-1.479-4.143-2.56-5.684-.703 1.719-1.537 4.45-1.388 6.017.286 3.01 4.153 2.508 3.948-.333z" stroke-width=".22457" />
      <path d="M231.665 218.719c-.09-1.238-1.092-3.07-1.89-4.21-.518 1.272-1.133 3.295-1.022 4.455.212 2.23 3.064 1.859 2.912-.245z" stroke-width=".22457" />
      <path d="M231.648 218.662a2.21 2.21 0 00-1.482-.422c-.701.063-1.075.354-1.362.654M230.96 216.64c-.278-.156-.775-.216-.998-.192-.242.025-.693.23-.88.375" style="marker:none" color="#000" stroke-linecap="round" stroke-linejoin="round" overflow="visible" stroke-width=".22457" />
   </g>
   <g fill="none" stroke="#c13c1b">
      <path d="M195.293 212.542c1.003-1.342 1.597-4.1 1.788-5.972-1.656.839-4.076 2.356-4.989 3.637-1.756 2.463 1.496 4.616 3.201 2.335z" stroke-width=".22457" />
      <path d="M194.892 212.203c.743-.994 1.185-3.034 1.33-4.42-1.226.623-3.015 1.75-3.691 2.698-1.3 1.824 1.098 3.412 2.361 1.722z" stroke-width=".22457" />
      <path style="marker:none" d="M194.917 212.149a2.21 2.21 0 00-.844-1.29c-.571-.41-1.044-.436-1.458-.397M195.721 210.17c-.108-.3-.445-.67-.628-.799-.2-.139-.675-.28-.911-.293" color="#000" stroke-linecap="round" stroke-linejoin="round" overflow="visible" stroke-width=".22457" />
   </g>
   <g fill="none" stroke="#c13c1b">
      <path d="M199.468 214.76c.882-1.425 1.235-4.223 1.264-6.105-1.578.979-3.856 2.7-4.655 4.056-1.536 2.605 1.89 4.468 3.39 2.048z" stroke-width=".22457" />
      <path d="M199.039 214.457c.654-1.055.918-3.126.942-4.518-1.167.726-2.852 2.003-3.443 3.006-1.138 1.93 1.39 3.304 2.501 1.512z" stroke-width=".22457" />
      <path d="M199.059 214.4a2.21 2.21 0 00-.952-1.211c-.605-.36-1.078-.345-1.487-.27M199.69 212.36c-.135-.29-.502-.63-.696-.742-.21-.121-.696-.22-.933-.213" style="marker:none" color="#000" stroke-linecap="round" stroke-linejoin="round" overflow="visible" stroke-width=".22457" />
   </g>
   <g fill="none" stroke="#c13c1b">
      <path d="M191.314 209.853c1.193-1.176 2.194-3.812 2.665-5.635-1.764.58-4.384 1.717-5.479 2.846-2.106 2.17.785 4.788 2.814 2.79z" stroke-width=".22457" />
      <path d="M190.968 209.458c.884-.87 1.628-2.821 1.979-4.17-1.305.432-3.243 1.277-4.054 2.113-1.56 1.607.572 3.538 2.075 2.057z" stroke-width=".22457" />
      <path d="M191 209.408a2.21 2.21 0 00-.64-1.401c-.503-.493-.966-.589-1.381-.613M192.093 207.573c-.061-.312-.339-.73-.5-.884-.177-.168-.625-.378-.857-.427" style="marker:none" color="#000" stroke-linecap="round" stroke-linejoin="round" overflow="visible" stroke-width=".22457" />
   </g>
   <g fill="none" stroke="#c13c1b">
      <path d="M184.493 203.096c1.468-.806 3.151-3.07 4.102-4.694-1.856.076-4.686.455-6.048 1.243-2.619 1.514-.552 4.82 1.946 3.45z" stroke-width=".22457" />
      <path d="M184.268 202.622c1.088-.598 2.336-2.27 3.041-3.472-1.373.06-3.468.343-4.476.926-1.94 1.12-.414 3.56 1.435 2.546z" stroke-width=".22457" />
      <path style="marker:none" d="M184.313 202.582a2.21 2.21 0 00-.234-1.523c-.35-.61-.769-.83-1.162-.966M185.865 201.115c.026-.318-.127-.795-.241-.988-.124-.209-.498-.534-.708-.644" color="#000" stroke-linecap="round" stroke-linejoin="round" overflow="visible" stroke-width=".22457" />
   </g>
   <g fill="none" stroke="#c13c1b">
      <path d="M187.68 206.72c1.336-1.013 2.67-3.498 3.373-5.244-1.824.347-4.57 1.135-5.802 2.114-2.369 1.88.16 4.848 2.43 3.13z" stroke-width=".22457" />
      <path d="M187.39 206.283c.988-.75 1.978-2.588 2.5-3.879-1.35.26-3.38.846-4.293 1.57-1.755 1.393.11 3.582 1.792 2.309z" stroke-width=".22457" />
      <path d="M187.428 206.237a2.21 2.21 0 00-.454-1.472c-.435-.554-.882-.709-1.29-.786M188.749 204.56c-.021-.32-.242-.769-.383-.943-.152-.189-.57-.456-.794-.534" style="marker:none" color="#000" stroke-linecap="round" stroke-linejoin="round" overflow="visible" stroke-width=".22457" />
   </g>
   <g fill="none" stroke="#c13c1b">
      <path d="M181.98 199.185c1.503-.741 3.283-2.929 4.304-4.511-1.857-.004-4.702.251-6.097.978-2.682 1.399-.76 4.792 1.794 3.533z" stroke-width=".22457" />
      <path d="M181.777 198.701c1.113-.549 2.433-2.166 3.19-3.335-1.375-.001-3.48.19-4.513.73-1.987 1.035-.569 3.538 1.323 2.605z" stroke-width=".22457" />
      <path style="marker:none" d="M181.823 198.664a2.21 2.21 0 00-.166-1.532c-.323-.625-.733-.862-1.12-1.016M183.438 197.266c.04-.316-.092-.8-.198-.997-.114-.215-.474-.556-.679-.675" color="#000" stroke-linecap="round" stroke-linejoin="round" overflow="visible" stroke-width=".22457" />
   </g>
   <g fill="none" stroke="#c13c1b">
      <path d="M178.286 190.511c1.609-.466 3.745-2.308 5.026-3.687-1.827-.33-4.672-.577-6.173-.105-2.886.907-1.589 4.584 1.147 3.792z" stroke-width=".22457" />
      <path d="M178.17 190c1.192-.346 2.774-1.707 3.725-2.726-1.353-.241-3.46-.421-4.571-.072-2.137.671-1.18 3.384.846 2.797z" stroke-width=".22457" />
      <path d="M178.222 189.97a2.21 2.21 0 00.104-1.536c-.208-.673-.57-.978-.923-1.197M180.057 188.877c.094-.304.05-.803-.02-1.016-.075-.231-.37-.63-.55-.783" style="marker:none" color="#000" stroke-linecap="round" stroke-linejoin="round" overflow="visible" stroke-width=".22457" />
   </g>
   <g fill="none" stroke="#c13c1b">
      <path d="M179.818 194.85c1.567-.593 3.549-2.6 4.716-4.077-1.848-.182-4.704-.201-6.162.389-2.804 1.134-1.217 4.696 1.446 3.688z" stroke-width=".22457" />
      <path d="M179.662 194.35c1.16-.44 2.63-1.924 3.495-3.015-1.368-.133-3.482-.144-4.562.293-2.077.84-.906 3.468 1.067 2.721z" stroke-width=".22457" />
      <path style="marker:none" d="M179.712 194.317a2.21 2.21 0 00-.02-1.541c-.26-.654-.645-.929-1.016-1.119M181.453 193.08c.07-.311-.015-.805-.101-1.012-.093-.224-.418-.598-.611-.736" color="#000" stroke-linecap="round" stroke-linejoin="round" overflow="visible" stroke-width=".22457" />
   </g>
   <path d="M267.923 188.435l-26.786-7.794-39.166-4.193-27.784 10.413c4.997 22.962 23.07 34.203 45.132 34.973 20.896.728 30.727-4.516 37.644-11.677 6.575-6.807 9.734-15.344 10.96-21.722z" fill="none" stroke="#000" stroke-width=".22449" stroke-linecap="round" stroke-linejoin="round" />
   <path d="M210.886 190.77c-9.707-5.886-6.832-8.548-11.71-25.603-4.653.07-11.44-.53-13.796-1.593-1.858-.838-2.45-1.853-3.04-3.967-.334-1.199.017-3.116.526-5.186-.655-.916-1.78-1.183-2.697-1.734-.82-1.083-.273-2.216-.151-2.7-.577-.661-1.23-1.707-.831-2.599.664-1.102.917-2.19.29-3.247-2.458-.234-6.94-1.747-4.571-7.194 2.136-4.91 5.463-10.37 8.3-15.621l3.304-10.553c5.754.02 33.414-.188 33.436 9.86l4.456 1 4.033 3.025-.035.12 3.9-.3c-2.11 7.492-4.304 9.755-7.815 68.947-2.567.264-8.47-.032-13.599-2.654z" fill="#f5ca44" fill-rule="evenodd" stroke="#000" stroke-width=".205" />
   <path d="M186.88 115.14c3.29-1.83 6.56-2.309 9.913-2.118 1.75.1 3.971.553 5.808 1.82 7.276 5.017 7.283 4.424 10.035 5.349.13.193.32.392.012.546-1.406-.117-3.37-.729-5.38-1.51-1.874-.727-3.923-2.485-6.842-3.457-2.152-.716-4.592-.798-6.903-.736-2.136.057-4.28.85-6.751 1.64-.565.18-2.077-.318.108-1.533zM185.608 123.267c2.92-3.118 5.587-3.764 7.9-3.993 3.536-.349 8.9.213 11.755 1.381 2.05.839 4.099.487 6.67 1.034.48.103.493.892.002.924-2.41.156-5.117-.253-7.196.51-2.536.931-5.285 2.08-7.028 2.707-1.682.605-3.886 1.023-7.404.128-1.159-.295-2.188-.412-3.422.116-3.077 1.317-3.054-.91-1.277-2.807z" fill-rule="evenodd" stroke="#000" stroke-width=".205" />
   <path d="M179.216 147.497c4.782-.432 6.218 1.734 10.491 1.681M180.242 152.694c5.318.166 6.632-2.23 9.72-2.93" fill="none" stroke="#000" stroke-width=".105" stroke-linecap="round" stroke-linejoin="round" />
   <path d="M179.984 150.038c1.751.371 6.3.062 7.918-.166" fill="none" stroke="#000" stroke-width=".21" stroke-linecap="round" stroke-linejoin="round" />
   <path d="M186.994 124.288c.78-1.43 1.95-1.668 2.98-2.33-.028 1.01.457 1.77 1.294 2.271-1.04-.007-3.711-.203-4.274.06zM199.133 120.96c-.016 1.26-.196 2.47-1.228 3.41 1.794-.291 3.57-1.731 5.026-3.072-1.26.27-2.426-.142-3.798-.339z" fill="#fff" fill-rule="evenodd" stroke="#000" stroke-width=".21" />
   <path d="M181.72 138.533c3.76 3.045 1.739 4.93-.038 4.852-1.758-.078-4.297-3.064-4.93-1.39-.638 1.692 2.85 1.09 2.799.612" fill="none" stroke="#000" stroke-width=".084" />
   <path d="M229.889 134.263c-3.62 2.231-8.035 24.31-8.16 37.744-1.775 25.17-2.18 50.617-4.18 75.77l24.378.965 2-67.234" fill="#025" fill-rule="evenodd" stroke="#000" stroke-width=".205" stroke-linecap="round" stroke-linejoin="round" />
   <path d="M207.173 653.686h27.418c5.986-37.83 3.795-79.902 1.008-113.277 5.594-51.134 11.773-107.837 14-159.733 27.414-18.16-7.954-67.375-5.091-75.942 2.24-15.194 7.335-28.203 13.544-41.809h-89.13c1.428 4.343 7.383 9.25 9.78 11.25 9.813 6.863 7.687 15.062 6.6 22.8-11.225 79.878-21.416 114.683 1.8 228.596-1.857 13.574 1.2 24.2 1.8 36.3-3.18 30.6-5.59 61.199-5.4 91.798l23.671.017z" fill="#c13c1b" fill-rule="evenodd" stroke="#000" stroke-width=".42" stroke-linecap="round" stroke-linejoin="round" />
   <path d="M257.245 263.436l-3.096 7.066h-79.017c-2.122-2.145-4.322-4.7-5.51-7.066h87.623z" fill="#fff" fill-rule="evenodd" stroke="#fff" stroke-width=".63" />
   <path d="M169.952 264.553h87.187M175.136 270.648h79.237M173.32 269h81.824" fill="none" stroke="#000" stroke-width=".42" stroke-linecap="round" stroke-linejoin="round" />
   <g fill="none" stroke="#000" stroke-width="2" stroke-linecap="round" stroke-linejoin="round">
      <path d="M174.754 264.745v4.027M176.65 264.745v4.027M178.658 264.745v4.027" stroke-width=".42" />
   </g>
   <g fill="none" stroke="#000" stroke-width="2" stroke-linecap="round" stroke-linejoin="round">
      <path d="M189.5 264.745v4.027M191.396 264.745v4.027M193.405 264.745v4.027" stroke-width=".42" />
   </g>
   <g fill="none" stroke="#000" stroke-width="2" stroke-linecap="round" stroke-linejoin="round">
      <path d="M203.676 264.745v4.027M205.572 264.745v4.027M207.58 264.745v4.027" stroke-width=".42" />
   </g>
   <g fill="none" stroke="#000" stroke-width="2" stroke-linecap="round" stroke-linejoin="round">
      <path d="M218.152 264.745v4.027M220.047 264.745v4.027M222.056 264.745v4.027" stroke-width=".42" />
   </g>
   <g fill="none" stroke="#000" stroke-width="2" stroke-linecap="round" stroke-linejoin="round">
      <path d="M233.465 264.745v4.027M235.361 264.745v4.027M237.37 264.745v4.027" stroke-width=".42" />
   </g>
   <g fill="none" stroke="#000" stroke-width="2" stroke-linecap="round" stroke-linejoin="round">
      <path d="M247.042 264.745v4.027M248.938 264.745v4.027M250.946 264.745v4.027" stroke-width=".42" />
   </g>
   <path d="M235.094 646.469l-.975 6.996-50.153-.16.062-6.853 51.066.017z" fill="#fff" fill-rule="evenodd" stroke="#fff" stroke-width=".63" />
   <path d="M183.476 647.516h51.834M183.772 653.61h50.72M183.476 651.963h51" fill="none" stroke="#000" stroke-width=".42" stroke-linecap="round" stroke-linejoin="round" />
   <g fill="none" stroke="#000" stroke-width="2" stroke-linecap="round" stroke-linejoin="round">
      <path d="M186.617 647.708v4.027M188.513 647.708v4.027M190.521 647.708v4.027" stroke-width=".42" />
   </g>
   <g fill="none" stroke="#000" stroke-width="2" stroke-linecap="round" stroke-linejoin="round">
      <path d="M199.414 647.708v4.027M201.31 647.708v4.027M203.319 647.708v4.027" stroke-width=".42" />
   </g>
   <g fill="none" stroke="#000" stroke-width="2" stroke-linecap="round" stroke-linejoin="round">
      <path d="M213.572 647.708v4.027M215.467 647.708v4.027M217.476 647.708v4.027" stroke-width=".42" />
   </g>
   <g fill="none" stroke="#000" stroke-width="2" stroke-linecap="round" stroke-linejoin="round">
      <path d="M227.507 647.708v4.027M229.402 647.708v4.027M231.41 647.708v4.027" stroke-width=".42" />
   </g>
   <path d="M183.56 646.107h51.958" fill="none" stroke="#000" stroke-width=".42" stroke-linecap="round" stroke-linejoin="round" />
   <g fill-rule="evenodd" stroke="#000" stroke-linecap="round" stroke-linejoin="round">
      <path d="M165.759 190.087l12.426 72.88h12.494l-18.283-75.393-6.637 2.513z" fill="#fff" stroke-width=".21" />
      <path d="M166.92 189.64l13.178 73.326h8.781l-17.84-74.897-4.119 1.572z" fill="#c13c1b" stroke-width=".21" />
   </g>
   <g fill-rule="evenodd" stroke="#000" stroke-linecap="round" stroke-linejoin="round">
      <path d="M267.52 188.354l-22.579 74.571h10.5l18.027-72.594-5.949-1.977z" fill="#fff" stroke-width=".21" />
      <path d="M268.703 188.744l-21.853 74.181h6.682l18.654-73.073-3.483-1.108z" fill="#c13c1b" stroke-width=".21" />
   </g>
   <g fill-rule="evenodd" stroke="#000" stroke-linecap="round" stroke-linejoin="round">
      <path d="M141.734 229.367l26.279 5.302-2.94 14.559-27.1-5.24 3.761-14.621z" fill="#fac53a" stroke-width=".21" />
      <path d="M141.296 231.037l26.382 5.468-.98 4.792-26.627-5.53 1.225-4.73zM139.705 237.454l26.607 5.618-.98 4.451-26.852-5.34 1.225-4.729z" fill="#04a" stroke-width=".21" />
   </g>
   <g fill-rule="evenodd" stroke="#000" stroke-linecap="round" stroke-linejoin="round">
      <path d="M75.811 395.096l13.374 10.312-8.411 9.882-10.845-10.615 5.882-9.579z" fill="#fac53a" stroke-width=".21" />
      <path d="M75.02 396.384l12.871 10.32-2.481 2.93-12.1-10.334 1.71-2.916zM72.368 400.626l12.122 10.245-2.482 2.931-11.35-10.26 1.71-2.916z" fill="#04a" stroke-width=".21" />
   </g>
   <g stroke="#c13c1b" stroke-width="2">
      <path d="M218.364 235.156l23.97 1.113-.477 12.41-24.342-.53.849-12.993z" fill="#fac53a" fill-rule="evenodd" stroke-linecap="round" stroke-linejoin="round" stroke-width=".42" />
   </g>
   <g>
      <path d="M231.309 86.685l10.35-53.839c2.19-8.071 4.246-22.654 18.982-24.046 4.506-.426 15.53 4.234 12.303 14.285-.576 1.796-2.845 5.858-8.946 3.816-1.426-.223-3.002 2.602-2.905 6.464.244 9.811 1.205 26.045 1.233 37.79.007 2.992-1.539 4.512-3.585 4.515-19.61.025-23.928 3.998-26.412 11.152" fill="#04a" fill-rule="evenodd" stroke="#000" stroke-width=".23698" />
      <path d="M226.087 109.371l15.059-76.678c2.19-8.071 4.788-23.653 19.556-24.657 6.063-.415 16.813 4.747 12.681 15.694-1.254 3.324-4.712 4.583-8.875 3.24" fill="none" stroke="#000" stroke-width="3.31772" stroke-linecap="round" stroke-linejoin="round" />
      <path d="M226.087 109.371l15.059-76.678c2.19-8.071 4.788-23.653 19.556-24.657 6.063-.415 16.813 4.747 12.681 15.694-1.254 3.324-4.712 4.583-8.875 3.24" fill="none" stroke="#fac53a" stroke-width="2.84376" stroke-linecap="round" stroke-linejoin="round" />
      <path d="M234.763 77.167c2.61-6.172 18.94-5.816 26.1-5.708M235.712 70.56c5.458-5.743 17.727-4.537 24.886-4.43M237.128 65.137c5.17-4.482 16.562-4.039 23.478-3.747M238.128 60.01c5.196-2.986 15.155-3.296 22.314-3.189M239.287 55.457c6.746-2.534 13.925-2.975 21.084-2.867M239.965 51.103c5.395-2.151 12.998-3.018 20.158-2.91M241.022 46.344c3.98-1.887 11.949-3 19.108-2.892M241.917 42.296c3.42-2.117 10.89-3.52 18.05-3.412M243.194 37.446c1.968-1.513 10.802-3.112 16.709-2.37M244.023 33.828c2.584-2.268 10.26-3.365 15.777-2.546M244.936 29.24c3.77-2.496 12.8-3.138 16.2-1.967M246.719 24.372c6.79-2.97 18.607-2.185 22.297-.459M248.642 19.233c7.69-2.15 17.296-2.229 23.136 1.209M253.808 13.245c4.296-1.707 15.006-.041 16.868 1.91" fill="none" stroke="#fff" stroke-width="1.1849" stroke-linecap="round" stroke-linejoin="round" stroke-opacity=".706" />
   </g>
   <path d="M270.27 100.36l-21.4 58.559-9.02-3.837 26.134-57.488c-17.765 5.83-53.386 3.35-76.898 1.681.649-1.763 2.508-5.344 2.696-5.344 34.758 3.785 67.594.92 73.532-1.195" fill="#fff" fill-rule="evenodd" stroke="#000" stroke-width=".21" stroke-linecap="round" stroke-linejoin="round" />
   <path d="M266.576 92.911c.313-.252.411-.47.425-.672 2.38-8.935 7.481-8.69 9.309-7.255 4.89 4.267-.155 6.34-4.37 12.086l28.83 59.087-7.608 3.256-23.492-59.054-21.85 58.035-6.994-2.937 26.608-59.246c-15.73 6.699-54.053 4.186-78.134 2.368.808-1.762 1.724-3.667 1.938-3.906 34.759 3.786 69.4.353 75.338-1.762z" fill="#d40000" fill-rule="evenodd" />
   <path d="M271.54 94.327c-1.019-2.564.185-4.735 1.686-5.594" fill="none" stroke="#000" stroke-width=".21" />
   <path d="M269.557 100.36c-1.977-4.809-3.136-6.39-2.615-8.117 2.7-8.948 7.428-8.695 9.255-7.26 4.89 4.268-.155 6.342-4.37 12.087l28.831 59.087-7.608 3.256s-16.645-42.403-23.493-59.054z" fill="none" stroke="#000" stroke-width=".21" stroke-linecap="round" stroke-linejoin="round" />
   <path d="M179.768 142.62c-1.322-.784-2.593-1.742-3.015-.624-.639 1.691 2.85 1.09 2.798.611" fill-rule="evenodd" stroke="#000" stroke-width=".084" />
   <g stroke="#000">
      <path d="M228.189 126.474c-3.654-2.283-3.81-5.887-2.632-7.87 2.826-4.754 5.05-5.618 7.177-5.057 4.112 1.086 3.624 6.182 2.757 10.547-.842 4.238-4.14 7.126-5.921 10.683-1.109 2.215-1.613 3.745-2.347 4.578-.85.966-2.338 2.372-4.43 1.424-2.306-1.046-1.804-3.878-.669-7.453.9-2.835 3.594-5.22 4.962-6.042" fill="#f5ca44" fill-rule="evenodd" stroke-width=".20454" />
      <path d="M225.308 134.316c-.966-.302 2.075-2.944 3.642-5.326 2.022-3.072-.154-4.455-1.149-6.337-1.637-3.098 1.028-7.834 3.861-7.115 3.372.856 4.836 5.2.704 11.733-1.856 2.933-4.94 7.706-7.058 7.045z" fill="none" stroke-width=".21" />
      <path style="marker:none" d="M225.625 137.902c0 .787-.587 1.425-1.312 1.425-.725 0-1.313-.638-1.313-1.425s.588-1.425 1.313-1.425 1.312.638 1.312 1.425z" color="#000" fill="none" stroke-linecap="round" stroke-linejoin="round" overflow="visible" stroke-width=".21" />
   </g>
   <path d="M187.41 164.167c12.134 1.963 17.545.663 22.005-2.378M200.255 168.733c3.104-.138 6.133-1.402 9.15-2.7M201.155 172.553c4.103.774 6.761-1.538 9.75-2.85" fill="none" stroke="#000" stroke-width=".105" />
   <g fill-rule="evenodd" stroke="#000" stroke-linecap="round" stroke-linejoin="round">
      <path d="M272.009 237.789l26.785 1.097-.234 14.99-27.663-.636 1.112-15.451z" fill="#fac53a" stroke-width=".21" />
      <path d="M271.838 239.508l26.915 1.243-.064 4.887-27.015-1.267.164-4.863zM271.353 246.095l27.235 1.356-.042 4.626-27.582-.819.39-5.163z" fill="#04a" stroke-width=".21" />
   </g>
   <g fill-rule="evenodd" stroke="#000" stroke-linecap="round" stroke-linejoin="round">
      <path d="M183.126 661.204l23.274 1.01-1.106 14.915-24.693-1.424 2.525-14.501z" fill="#fac53a" stroke-width=".21" />
      <path d="M182.866 662.753l23.43 1.251-.237 4.213-24.023-.802.83-4.662zM181.78 669.49l24.045 1.104-.293 4.362-24.604-.761.853-4.705z" fill="#04a" stroke-width=".21" />
   </g>
   <g fill-rule="evenodd" stroke="#000" stroke-linecap="round" stroke-linejoin="round">
      <path d="M210.137 663.331l24.356-.058-.156 14.951-25.316-.291 1.116-14.602z" fill="#fac53a" stroke-width=".21" />
      <path d="M210.001 664.891l24.47.176-.043 4.22-24.672.3.245-4.696zM209.544 671.67l24.811.001-.092 4.747-25.143-.009.424-4.739z" fill="#04a" stroke-width=".21" />
   </g>
   <g fill-rule="evenodd" stroke="#000" stroke-linecap="round" stroke-linejoin="round">
      <path d="M273.995 400.775l20.417.16-.849 12.886-19.462-.742-.106-12.304z" fill="#fac53a" stroke-width=".21" />
      <path d="M273.995 402.631l20.258.266-.209 3.981-19.996-.314-.053-3.933z" fill="#04a" stroke-width=".21" />
      <path d="M273.995 400.775l20.417.16-.849 12.886-19.462-.742-.106-12.304z" fill="#fac53a" stroke-width=".21" />
      <path d="M273.995 402.631l20.258.266-.209 3.981-19.996-.314-.053-3.933zM273.995 407.806l19.94.266-.209 3.981-19.678-.314-.053-3.933z" fill="#04a" stroke-width=".21" />
   </g>
   <g fill="none" stroke="#c13c1b" stroke-width="3" stroke-linecap="round" stroke-linejoin="round">
      <path d="M219.1 236.526l21.675.825M219.025 238.476l21.675.825M219.025 240.576l21.675.825M218.95 242.526l21.675.825M219.025 244.55l21.675.676M218.875 246.65l21.75.526" stroke-width=".63" />
   </g>
   <g fill-rule="evenodd" stroke="#000" stroke-linecap="round" stroke-linejoin="round">
      <path d="M62.88 411.372c2.876-1.802 6.043-1.184 3.228 1.627 2.371-1.859 6.8-1.075 1.961 2.738 4.276-2.042 4.187 1.245 1.938 2.886 2.887-1.411 3.365 1.289.33 3.696-3.102 3.182-6.687 6.395-10.149 9.52-.064.055-.146.087-.268.062-1.252-.144-2.414-1.146-1.472-3.44-2.066.18-3.298-1.58-1.949-3.312-2.195-.253-2.751-1.4-2.07-3.225-2.37-.232-2.901-1.219-1.972-3.155.113-.159.22-.28.324-.368 3.693-3.298 7.02-5.602 10.008-6.987m.645-.313c-.3.876.48 2.184 1.991 2.353m.652-.329c-.709.995.931 2.602 1.902 2.639m.262-.121c-1 1.019.086 3.482 2.097 2.686m-.37.338c-.629 1.123.2 2.423 1.228 2.778m-14.687 3.703c.417-.238 11.582-9.395 11.582-9.395m-13.557 6.122c.612-.512 11.617-8.888 11.617-8.888m-7.655 15.46l11.59-9.874" fill="#f5ca44" stroke-width=".21" />
      <path d="M66.077 413.125c-.19.106-.242.347-.652.33-1.846-.175-2.108-2.04-2.007-2.36 2.69-1.403 5.347-.667 2.715 1.961 2.37-1.858 6.775-1.132 1.936 2.68 4.276-2.041 4.246 1.168 1.997 2.81 2.566-1.255 3.17.816 1.142 2.931-1.04-.387-1.869-1.687-1.128-2.917-1.9.69-2.839-1.898-1.97-2.857-1.102.024-2.742-1.583-2.033-2.578z" fill="#fff" stroke-width=".21" />
   </g>
   <path d="M66.95 410.693c-1.71-.823-4.16.258-9.705 4.057l-.424-5.515c5.729-3.138 8.235-3.943 12.993-4.481" fill="#f5ca44" fill-rule="evenodd" />
   <path d="M57.245 414.75c5.546-3.799 8.07-4.88 9.78-4.057m2.736-5.913c-4.758.538-7.305 1.233-13.034 4.53" fill="none" stroke="#000" stroke-width=".21" />
</svg>