<svg width="800" height="114" xmlns="http://www.w3.org/2000/svg">
    <path d="M309.63 110.77c-16.33-3.69-30.31-11.07-38.34-20.24-3.41-3.87-6.2-7.67-6.2-8.42 0-.74-58.53-1.36-130.07-1.36-116.13 0-130.33-.27-132.54-2.49-3.62-3.62-3.62-37.31 0-40.94 2.21-2.22 16.33-2.49 131.63-2.49h129.15l3.34-5.43c8.3-13.47 25.2-22.91 48.62-27.14 14.36-2.59 15.87-2.59 29.76.04 25.1 4.73 40.71 14.28 49.8 30.46 2.6 4.62 4.95 8.41 5.22 8.41.27 0 2.62-3.79 5.22-8.41 9.12-16.23 24.7-25.73 50.09-30.53 14.29-2.69 15.52-2.69 29.82 0 23.35 4.42 40.05 13.81 48.27 27.17l3.34 5.43h129.15c115.3 0 129.42.27 131.63 2.49 3.62 3.63 3.62 37.32 0 40.94-2.21 2.22-16.41 2.49-132.54 2.49-71.54 0-130.07.62-130.07 1.36 0 .75-2.87 4.64-6.37 8.63-8.73 9.94-23.96 17.34-43.14 20.96-14.6 2.77-15.75 2.77-30.09.07-25.39-4.8-40.97-14.3-50.09-30.53-2.6-4.62-4.95-8.41-5.22-8.41-.27 0-2.62 3.79-5.22 8.41-8.71 15.5-22.65 24.53-45.81 29.66-16.66 3.7-22.56 3.69-39.34-.13m35.57-8.66c34.52-8.17 54.96-36.12 43.17-59.04-8.43-16.38-25.94-28.22-47.43-32.08-14.45-2.58-29.27-.11-44.26 7.41-9.75 4.91-13.38 8.1-24.76 21.8l-3.44 4.13h-127.6c-97.16 0-128.08.46-129.52 1.9-2.48 2.49-2.48 20.63 0 23.12 1.44 1.44 32.35 1.9 129.5 1.9h127.61l9.75 10.1c18.49 19.18 42.4 26.59 66.98 20.76m140.43 0c14.84-3.5 25.33-9.53 36.15-20.76l9.75-10.1h127.61c97.15 0 128.06-.46 129.5-1.9 2.48-2.49 2.48-20.63 0-23.12-1.44-1.44-32.36-1.9-129.52-1.9h-127.6l-3.44-4.13c-11.38-13.7-15.01-16.89-24.76-21.8-14.99-7.52-29.81-9.99-44.26-7.41-21.49 3.86-39 15.7-47.43 32.08-11.65 22.65 8.55 50.73 42.44 58.98 11.92 2.88 19.57 2.89 31.56.06" />
    <path fill="#f6c767" d="M313.64 102.05c-14.09-3.44-24.82-9.71-35.42-20.7l-9.75-10.1H140.86c-97.15 0-128.06-.46-129.5-1.9-2.48-2.49-2.48-20.63 0-23.12 1.44-1.44 32.36-1.9 129.52-1.9h127.6l3.44-4.13c11.38-13.7 15.01-16.89 24.77-21.8 21.94-11.01 44.25-11.01 66.2 0 11.61 5.84 19.94 13.9 25.48 24.67 11.79 22.92-8.65 50.87-43.17 59.04-11.99 2.83-19.65 2.82-31.56-.06M454.07 102.05c-33.89-8.25-54.09-36.33-42.44-58.98 5.54-10.77 13.87-18.83 25.48-24.67 22.12-11.1 44.09-11.1 66.21 0 9.75 4.91 13.38 8.1 24.76 21.8l3.44 4.13h127.6c97.16 0 128.08.46 129.52 1.9 2.48 2.49 2.48 20.63 0 23.12-1.44 1.44-32.35 1.9-129.5 1.9H531.53l-9.75 10.1c-10.82 11.23-21.31 17.26-36.15 20.76-11.99 2.83-19.64 2.82-31.56-.06" />
</svg>