<svg width="600" height="196" xmlns="http://www.w3.org/2000/svg">
    <path d="M23.26 193.29c-5.18-2.91-10.14-10.96-10.14-16.46 0-1.72 1.25-5.62 2.78-8.64l2.79-5.51-4.24-2.76c-5.47-3.56-9.15-11.96-7.98-18.2.45-2.42 2.35-6.1 4.22-8.2l3.4-3.81-4.25-2.41C3.03 123.43.6 119.2.63 111.31c.05-8.59 3.1-14.12 9.84-17.86l4.98-2.76-3.06-4.63c-5.57-8.42-4.96-18.61 1.58-26.38 6.15-7.33 3.43-7.08 77.52-7.18 58.72-.06 67.06-.29 62.59-1.68-2.84-.9-7.28-3.09-9.85-4.88-11.55-8.02-22.37-33.77-17.8-42.33 2.22-4.17 7.28-4.03 20.46.57 6.8 2.37 18.52 5.97 26.07 7.99 13.72 3.67 13.72 3.67 28.8 2.29 8.29-.76 23.59-2.74 33.99-4.39C290.11 1.42 310.43-.69 328.03.5c14.73.99 50.15 5.11 63.82 7.42 24.51 4.15 48.32 14.44 77.63 33.57 23.61 15.41 26.21 16.33 44.04 15.43 22.02-1.1 54.63-7.1 72.02-13.25 6.89-2.43 9.21-2.32 12.07.55 2.32 2.32 2.39 3.98 2.39 58.56 0 55.57-.02 56.2-2.52 58.69-3.23 3.24-7.73 2.88-39.83-3.09-13.12-2.45-28.15-4.53-33.4-4.63l-9.54-.18-19.08 9.18c-31.63 15.19-48.42 21.45-71.44 26.62-26.09 5.85-26.14 5.85-216.64 6.24l-179.52.37-4.77-2.69m368.93-6.92c21.39-2.32 47.64-9.28 69.44-18.38 4.26-1.78 16.2-7.29 26.53-12.25 26.56-12.76 27.65-12.86 65.32-6.48 16.08 2.72 30.38 5.26 31.8 5.64 1.69.45 3.41-.16 5.07-1.82 2.45-2.45 2.49-3.39 2.49-49.79 0-27.83-.46-48.16-1.14-49.41-1.09-2.04-1.66-2-11.63.71-20.42 5.56-43.74 8.92-66.55 9.59-26.05.75-26.47.63-51.2-15.51-29.29-19.13-53.1-29.43-77.63-33.58-20.96-3.55-55.05-7.09-67.39-7.01-13.59.09-30.7 2.1-63.22 7.42-11.48 1.88-26.25 4.02-32.81 4.76-6.56.74-16.1 1.92-21.19 2.64-5.11.72-12.09.94-15.51.51-7.47-.95-29.02-6.59-41.33-10.81-4.87-1.66-9.06-2.84-9.3-2.58-.97.98 4.67 13.61 8.71 19.5 5.2 7.56 12.87 12.91 21.19 14.75 6.57 1.46 9.97 1.19 47.29-3.71 15.51-2.03 23.1-2.44 35.79-1.9 15.98.67 43.45 4.39 51.11 6.9 4.8 1.58 6.79 5.7 9.12 18.85 3.13 17.74 9.6 31.99 18.88 41.66 3.62 3.77 4.53 5.41 3.53 6.41-1.02 1.02-3.53-.58-9.87-6.26-13.53-12.13-22.19-24.82-25.77-37.8l-2.07-7.47H158.76c-129.83.01-133.21.07-136.93 2.34-2.54 1.56-4.27 3.89-5.21 7.04-1.91 6.4 1.12 12.81 7.83 16.58l4.77 2.69 91.94.01 91.92.02 2.07-6.57c1.14-3.61 2.58-6.57 3.2-6.57 1.42 0 1.44-.32-.67 12.55-2.1 12.76-2.36 46.38-.48 59.94.71 5.13 2.59 12.52 4.18 16.42 3.12 7.73 3.4 9.09 1.86 9.09-.55 0-1.98-2.15-3.16-4.78l-2.15-4.78h-93.58c-82.83 0-94.03.21-97.55 1.89-5.04 2.4-7.12 7.63-5.25 13.28 2.62 7.95-10.13 7.44 183.37 7.49 115.49.03 179.66-.39 187.27-1.22m-177.98-29.51c-1.45-4.65-3.08-15.27-3.08-20.19v-5.21l-90.95.02-90.96.01-6.16 2.88c-10.23 4.77-12.28 10.85-6.05 17.97 5.55 6.35 5.89 6.36 105.64 6.49 87.31.11 92.19.01 91.56-1.97m-4.27-37.17c0-3.19.35-9.93.78-14.97l.77-9.19-95.31.34-95.31.34-5.36 3.01c-4.21 2.35-5.75 4.1-7.14 8.11-1.57 4.52-1.56 5.48.02 8.29 2.13 3.81 8.26 7.6 14.17 8.76 2.35.45 45.48.89 95.83.98l91.55.13v-5.8m71.57-68.95c-4.26-.86-15.35-2.49-24.64-3.64-16.74-2.04-17.1-2.04-38.17.66-11.71 1.5-24.51 3.13-28.44 3.61-3.94.49 16.72.89 45.92.9 46.8.03 52.17-.15 45.33-1.53" />
    <path fill="#ae3c2a" d="M26.04 185.81c-4.18-2.28-6.24-8.39-4.5-13.39 2.7-7.74-.8-7.49 102.81-7.49h93.58l2.15 4.78c1.18 2.63 2.61 4.78 3.16 4.78 1.54 0 1.26-1.36-1.86-9.09-1.59-3.9-3.47-11.29-4.18-16.42-1.88-13.56-1.62-47.18.48-59.94 2.11-12.87 2.09-12.55.67-12.55-.62 0-2.06 2.96-3.2 6.57l-2.07 6.57-91.92-.02-91.94-.01-4.77-2.69c-6.71-3.77-9.74-10.18-7.83-16.58.94-3.15 2.67-5.48 5.21-7.04 3.72-2.27 7.1-2.33 136.93-2.34h133.09l2.07 7.47c3.58 12.98 12.24 25.67 25.77 37.8 6.34 5.68 8.85 7.28 9.87 6.26 1-1 .09-2.64-3.53-6.41-9.28-9.67-15.75-23.92-18.88-41.66-2.33-13.15-4.32-17.27-9.12-18.85-7.66-2.51-35.13-6.23-51.11-6.9-12.69-.54-20.28-.13-35.79 1.9-37.32 4.9-40.72 5.17-47.29 3.71-8.32-1.84-15.99-7.19-21.19-14.75-4.04-5.89-9.68-18.52-8.71-19.5.24-.26 4.43.92 9.3 2.58 12.31 4.22 33.86 9.86 41.33 10.81 3.42.43 10.4.21 15.51-.51 5.09-.72 14.63-1.9 21.19-2.64 6.56-.74 21.33-2.88 32.81-4.76 32.11-5.26 49.52-7.29 63.22-7.4 12.34-.09 46.45 3.44 67.39 6.99 24.53 4.15 48.34 14.45 77.63 33.58 24.73 16.14 25.15 16.26 51.2 15.51 22.81-.67 46.13-4.03 66.55-9.59 9.97-2.71 10.54-2.75 11.63-.71.68 1.25 1.14 21.58 1.14 49.41 0 46.4-.04 47.34-2.49 49.79-1.66 1.66-3.38 2.27-5.07 1.82-1.42-.38-15.72-2.92-31.8-5.64-37.67-6.38-38.76-6.28-65.32 6.48-10.33 4.96-22.27 10.47-26.53 12.25-21.8 9.1-48.05 16.06-69.44 18.38-7.61.83-71.78 1.25-187.27 1.22-151.12-.04-176.14-.29-178.88-1.78" />
    <path fill="#ae3c2a" d="M25.05 157.05c-5.77-1.78-10.27-5.99-11.45-10.71-1.09-4.32 2.32-8.65 9.46-11.97l6.16-2.88 90.96-.01 90.95-.02v5.21c0 4.92 1.63 15.54 3.08 20.19.63 1.98-4.25 2.08-91.56 1.97-75.06-.09-93.23-.43-97.6-1.78M22.56 124.38c-5.91-1.16-12.04-4.95-14.17-8.76-1.58-2.81-1.59-3.77-.02-8.29 1.39-4.01 2.93-5.76 7.14-8.11l5.36-3.01 95.31-.34 95.31-.34-.77 9.19c-.43 5.04-.78 11.78-.78 14.97v5.8l-91.55-.13c-50.35-.09-93.48-.53-95.83-.98" />
</svg>