<svg width="600" height="243" xmlns="http://www.w3.org/2000/svg">
    <path d="M79.92 241.3c-28.56-5.49-65.43-24.52-75.5-38.97-2.09-3.01-3.72-7.18-4.09-10.48-.53-4.74-.2-5.91 2.48-8.6 4.8-4.82 10.64-4.24 22.72 2.29 41.64 22.46 61.8 28.48 90.17 26.92 16.88-.93 25.06-5.37 21.66-11.75-2.48-4.67-5.75-5.26-29.72-5.35-21.52-.1-23.35-.3-26.52-2.65-6.76-5.04-6.78-13.34-.06-17.44 3.45-2.11 6.28-2.39 25.57-2.51 11.92-.07 28.73-.21 37.35-.3l15.66-.18 15.06 7.25 15.06 7.25 10.84-.08c6.86-.06 18.17-1.5 30.73-3.92 10.92-2.1 32.61-5.43 48.19-7.4 66.59-8.4 85.44-8.87 150.6-3.78 26.83 2.1 52.05 4.33 56.02 4.96 23.87 3.77 28.53-.71 30.72-29.44.68-9.18 1.77-21.96 2.41-28.41.62-6.45 1.98-24.5 3.02-40.13 3.41-51.66 4.89-60.2 12.06-69.65 5.1-6.68 9.28-8.24 22.28-8.29 12.6-.04 17.92 1.85 24.33 8.62 6.75 7.15 8.35 13.32 9.57 37.14 1.43 28.22 5.49 91.52 7.39 115.6.81 10.31 1.47 24.72 1.47 32.04-.03 11.88-.34 13.88-3.02 18.74-2.01 3.64-4.59 6.23-7.82 7.85-4.75 2.39-7.37 2.42-200.67 2.57l-195.87.14-16.18 5.53c-20.64 7.03-22.87 7.63-40.29 10.56-18.99 3.21-44.25 4.05-55.62 1.87m52.61-9.2c8.82-1.49 22.3-4.97 32.53-8.41 9.6-3.21 19.1-6.25 21.08-6.72 1.99-.48 90.25-.76 196.11-.63 146.28.18 193.57-.11 196.99-1.21 11.86-3.79 14.65-11.93 12.48-36.47-.77-8.83-2.23-28.57-3.21-43.86-1-15.29-2.34-34.06-2.98-41.71-.64-7.65-1.19-19.89-1.22-27.2-.04-17.8-1.89-35.75-4.21-41.36-3.83-9.21-14.51-17.19-23.09-17.25-11.85-.09-21.14 10.55-23.74 27.18-.41 2.65-2.1 23.59-3.74 46.54-6.53 91.19-7.04 94.52-15.43 100.8-4.22 3.16-17.22 4.04-30.7 2.09-15.85-2.28-100.8-8.59-115.68-8.58-27.9.01-95.39 7.53-132.78 14.79-15.66 3.03-23.08 3.86-34.98 3.9l-15.08.04-14.89-7.26-14.88-7.25-10.99.19c-58.96 1.06-58.58 1.02-58.58 4.08 0 .61 1.62 1.94 3.59 2.97 2.91 1.51 7.68 1.81 25 1.59 14.44-.19 22.5.19 24.73 1.16 7.31 3.16 10.3 14.24 5.83 21.6-3.52 5.77-10.91 7.86-30.23 8.55-32.86 1.17-59.4-6.28-90.87-25.48-8.89-5.42-11.2-6.17-13.41-4.34-2.63 2.19-2.24 3.16 3.82 9.66 12.72 13.64 42.13 28.29 69.13 34.43 10.04 2.29 29.05 1.58 49.4-1.84" />
    <path fill="#ae3c2a" d="M83.13 233.94c-18.83-4.27-41.96-14.07-57.14-24.19-6.46-4.29-17.56-15.25-17.56-17.32 0-2.06 3.47-4.04 5.76-3.31 1.26.4 5.48 2.68 9.4 5.07 31.47 19.2 58.01 26.65 90.87 25.48 19.32-.69 26.71-2.78 30.23-8.55 4.47-7.36 1.48-18.44-5.83-21.6-2.23-.97-10.29-1.35-24.73-1.16-17.32.22-22.09-.08-25-1.59-3.85-2.01-4.48-3.5-2.08-5.05.83-.55 11.54-1.16 23.79-1.39 12.26-.23 27.23-.5 33.28-.61l10.99-.19 14.88 7.25 14.89 7.26 15.08-.04c11.9-.04 19.32-.87 34.98-3.9 37.39-7.26 104.88-14.78 132.78-14.79 14.88-.01 99.83 6.3 115.68 8.58 13.48 1.95 26.48 1.07 30.7-2.09 8.39-6.28 8.9-9.61 15.43-100.8 1.64-22.95 3.33-43.89 3.74-46.54 3.92-25.09 23.04-34.86 39.37-20.11 2.67 2.42 5.87 6.67 7.09 9.45 2.63 5.94 4.52 23.35 4.58 42.09.03 7.31.58 19.55 1.22 27.2.64 7.65 1.98 26.42 2.98 41.71.98 15.29 2.44 35.03 3.21 43.86 2.17 24.54-.62 32.68-12.48 36.47-3.42 1.1-50.71 1.39-196.99 1.21-105.86-.13-194.12.15-196.11.63-1.98.47-11.48 3.51-21.08 6.72-28.92 9.71-64.66 14.18-81.93 10.25" />
</svg>