<svg width="606" height="500" xmlns="http://www.w3.org/2000/svg">
    <path d="M211.92 494.05C207.71 487.64 13.35 51.41 4.93 29.49c-6.75-17.62-6.5-26.44.85-28.26C8.96.44 26.58.13 44.94.54l33.38.74 6.83 12.82C90.72 24.56 273.88 446 284.77 473.41c1.77 4.41 2.82 11.92 2.36 16.67l-.82 8.64-35.21.72c-34.56.69-35.28.59-39.18-5.39m61.73-10.92C271.42 474.21 83.53 40.59 74.88 24.36l-6.83-12.82-27.81-.72-27.81-.74 1.74 5.87C17 25.41 217.8 477.13 222.14 483.72c3.7 5.64 5.57 6.02 28.55 6.02h24.63l-1.67-6.61M527.71 491.74c-2.11-4.64-50.13-112.79-106.69-240.38C338.41 65.03 318.3 17.59 318.92 10.33l.77-9.05H399.14l66.17 152.57c139.53 321.64 141.05 325.25 140.2 335.41l-.79 9.46-36.6.72-36.61.69-3.8-8.39m64.32-8.66c-.92-3.67-46.99-111.29-102.4-239.11L388.89 11.54l-28.81-.72c-18.72-.49-28.83.21-28.83 1.92 0 1.49 44.93 103.93 99.83 227.67 54.9 123.74 102.23 230.46 105.13 237.15l5.31 12.18h52.21l-1.7-6.66" />
    <path fill="#757575" d="M222.14 483.72C216.65 475.38 16 23 14.97 16.67c-.8-4.85.59-5.13 26.11-5.13h26.97l6.83 12.82c8.65 16.23 196.54 449.85 198.77 458.77l1.67 6.61h-24.63c-22.98 0-24.85-.38-28.55-6.02M536.21 477.56c-2.9-6.69-50.23-113.41-105.13-237.15-54.9-123.74-99.83-226.18-99.83-227.67 0-1.71 10.11-2.41 28.83-1.92l28.81.72 100.74 232.43c55.41 127.82 101.48 235.44 102.4 239.11l1.7 6.66h-52.21l-5.31-12.18" />
</svg>