<svg xmlns="http://www.w3.org/2000/svg" xmlns:xlink="http://www.w3.org/1999/xlink" width="700" height="720" version="1.0">
   <defs>
      <linearGradient id="prefix__a">
         <stop offset="0" stop-color="#c13c1b" />
         <stop offset=".839" stop-color="#c13c1b" stop-opacity=".498" />
         <stop offset="1" stop-color="#c13c1b" stop-opacity="0" />
      </linearGradient>
   </defs>
   <use height="1052.362" width="744.094" transform="matrix(-1 0 0 1 703.658 0)" xlink:href="#prefix__b" />
   <g id="prefix__b" fill-rule="evenodd">
      <path d="M1193.695 267.709c-3.923 4.993-.726 5.753 2.118 2.754 10.548-13.682 34.407-18.325 47.671-6.163 4.485 4.113 8.416 10.937 8.368 20.115v.013l-1.253 671.664 6.644.025 1.253-671.676c-4.89-33.237-45.598-41.175-64.801-16.732z" stroke-width="20" stroke-linecap="round" stroke-linejoin="round" transform="translate(-1177.174 -242.31)" />
      <g stroke="#000" stroke-width=".454">
         <path d="M76.99 308.153h4.375c2.087-.135 2.329 3.7 0 3.727h-4.537M76.99 270.36h4.375c2.087-.135 2.329 3.7 0 3.727h-4.537M76.99 46.096h4.375c2.087-.135 2.329 3.7 0 3.727h-4.537M76.99 50.795h4.375c2.087-.135 2.329 3.7 0 3.727h-4.537M76.99 55.495h4.375c2.087-.135 2.329 3.7 0 3.727h-4.537M76.99 60.194h4.375c2.087-.135 2.329 3.7 0 3.727h-4.537M76.99 64.893h4.375c2.087-.135 2.329 3.7 0 3.727h-4.537M76.99 69.593h4.375c2.087-.135 2.329 3.7 0 3.727h-4.537M76.99 74.292h4.375c2.087-.135 2.329 3.7 0 3.727h-4.537M76.99 78.991h4.375c2.087-.135 2.329 3.7 0 3.727h-4.537M76.99 83.482h4.375c2.087-.135 2.329 3.7 0 3.727h-4.537M76.99 87.973h4.375c2.087-.136 2.329 3.7 0 3.726h-4.537M76.99 92.672h4.375c2.087-.135 2.329 3.7 0 3.727h-4.537M76.99 97.371h4.375c2.087-.135 2.329 3.7 0 3.727h-4.537M76.99 102.055h4.375c2.087-.135 2.329 3.7 0 3.727h-4.537M76.99 106.755h4.375c2.087-.135 2.329 3.7 0 3.727h-4.537M76.99 111.454h4.375c2.087-.135 2.329 3.7 0 3.727h-4.537M76.99 116.153h4.375c2.087-.135 2.329 3.7 0 3.727h-4.537M76.99 120.853h4.375c2.087-.135 2.329 3.7 0 3.726h-4.537M76.99 125.552h4.375c2.087-.135 2.329 3.7 0 3.727h-4.537M76.99 130.251h4.375c2.087-.135 2.329 3.7 0 3.727h-4.537M76.99 134.95h4.375c2.087-.135 2.329 3.7 0 3.727h-4.537M76.99 139.441h4.375c2.087-.135 2.329 3.7 0 3.727h-4.537M76.99 143.932h4.375c2.087-.135 2.329 3.7 0 3.727h-4.537M76.99 148.63h4.375c2.087-.134 2.329 3.7 0 3.728h-4.537M76.99 153.33h4.375c2.087-.135 2.329 3.7 0 3.727h-4.537M76.99 158.432h4.375c2.087-.135 2.329 3.7 0 3.727h-4.537M76.99 163.131h4.375c2.087-.135 2.329 3.7 0 3.727h-4.537M76.99 167.83h4.375c2.087-.134 2.329 3.7 0 3.728h-4.537M76.99 172.53h4.375c2.087-.135 2.329 3.7 0 3.727h-4.537M76.99 177.23h4.375c2.087-.136 2.329 3.7 0 3.726h-4.537M76.99 181.929h4.375c2.087-.135 2.329 3.7 0 3.727h-4.537M76.99 186.628h4.375c2.087-.135 2.329 3.7 0 3.727h-4.537M76.99 191.327h4.375c2.087-.135 2.329 3.7 0 3.727h-4.537M76.99 195.818h4.375c2.087-.135 2.329 3.7 0 3.727h-4.537M76.99 200.308h4.375c2.087-.135 2.329 3.7 0 3.727h-4.537M76.99 205.008h4.375c2.087-.135 2.329 3.7 0 3.727h-4.537M76.99 209.707h4.375c2.087-.135 2.329 3.7 0 3.727h-4.537M76.99 214.39h4.375c2.087-.134 2.329 3.7 0 3.728h-4.537M76.99 219.09h4.375c2.087-.135 2.329 3.7 0 3.727h-4.537M76.99 223.79h4.375c2.087-.135 2.329 3.7 0 3.727h-4.537M76.99 228.489h4.375c2.087-.135 2.329 3.7 0 3.727h-4.537M76.99 233.188h4.375c2.087-.135 2.329 3.7 0 3.727h-4.537M76.99 237.888h4.375c2.087-.135 2.329 3.7 0 3.727h-4.537M76.99 242.587h4.375c2.087-.135 2.329 3.7 0 3.727h-4.537M76.99 247.286h4.375c2.087-.135 2.329 3.7 0 3.727h-4.537M76.99 251.777h4.375c2.087-.135 2.329 3.7 0 3.727h-4.537M76.99 256.267h4.375c2.087-.135 2.329 3.7 0 3.727h-4.537M76.99 260.967h4.375c2.087-.135 2.329 3.7 0 3.727h-4.537M76.99 265.666h4.375c2.087-.135 2.329 3.7 0 3.727h-4.537M76.99 312.644h4.375c2.087-.135 2.329 3.7 0 3.727h-4.537M76.99 317.343h4.375c2.087-.135 2.329 3.7 0 3.727h-4.537M76.99 322.043h4.375c2.087-.135 2.329 3.7 0 3.727h-4.537M76.99 326.727h4.375c2.087-.135 2.329 3.7 0 3.727h-4.537M76.99 331.426h4.375c2.087-.135 2.329 3.7 0 3.727h-4.537M76.99 336.125h4.375c2.087-.135 2.329 3.7 0 3.727h-4.537M76.99 340.825h4.375c2.087-.135 2.329 3.7 0 3.727h-4.537M76.99 345.524h4.375c2.087-.135 2.329 3.7 0 3.727h-4.537M76.99 350.223h4.375c2.087-.135 2.329 3.7 0 3.727h-4.537M76.99 354.923h4.375c2.087-.135 2.329 3.7 0 3.727h-4.537M76.99 359.622h4.375c2.087-.135 2.329 3.7 0 3.727h-4.537M76.99 364.113h4.375c2.087-.135 2.329 3.7 0 3.727h-4.537M76.99 368.603h4.375c2.087-.135 2.329 3.7 0 3.727h-4.537M76.99 373.302h4.375c2.087-.135 2.329 3.7 0 3.727h-4.537M76.99 378.002h4.375c2.087-.135 2.329 3.7 0 3.727h-4.537M76.99 383.521h4.375c2.087-.135 2.329 3.7 0 3.727h-4.537M76.99 388.22h4.375c2.087-.135 2.329 3.7 0 3.727h-4.537M76.99 392.92h4.375c2.087-.135 2.329 3.7 0 3.727h-4.537M76.99 397.619h4.375c2.087-.135 2.329 3.7 0 3.727h-4.537M76.99 402.318h4.375c2.087-.135 2.329 3.7 0 3.727h-4.537M76.99 407.018h4.375c2.087-.135 2.329 3.7 0 3.727h-4.537M76.99 411.717h4.375c2.087-.135 2.329 3.7 0 3.727h-4.537M76.99 416.416h4.375c2.087-.135 2.329 3.7 0 3.727h-4.537M76.99 420.907h4.375c2.087-.135 2.329 3.7 0 3.727h-4.537M76.99 425.397h4.375c2.087-.135 2.329 3.7 0 3.727h-4.537M76.99 430.097h4.375c2.087-.135 2.329 3.7 0 3.727h-4.537M76.99 434.796h4.375c2.087-.135 2.329 3.7 0 3.727h-4.537M76.99 439.48h4.375c2.087-.135 2.329 3.7 0 3.727h-4.537M76.99 444.18h4.375c2.087-.136 2.329 3.7 0 3.726h-4.537M76.99 448.879h4.375c2.087-.135 2.329 3.7 0 3.727h-4.537M76.99 453.578h4.375c2.087-.135 2.329 3.7 0 3.727h-4.537M76.99 458.277h4.375c2.087-.135 2.329 3.7 0 3.727h-4.537M76.99 462.977h4.375c2.087-.135 2.329 3.7 0 3.727h-4.537M76.99 467.676h4.375c2.087-.135 2.329 3.7 0 3.727h-4.537M76.99 472.375h4.375c2.087-.135 2.329 3.7 0 3.727h-4.537M76.99 476.866h4.375c2.087-.135 2.329 3.7 0 3.727h-4.537M76.99 481.356h4.375c2.087-.135 2.329 3.7 0 3.727h-4.537M76.99 486.056h4.375c2.087-.135 2.329 3.7 0 3.727h-4.537M73.765 29.655l3.967-1.844c1.836-1.002 3.67 2.374 1.57 3.38l-4.114 1.912M75.422 33.187l4.256-1.015c1.998-.615 3.122 3.06.864 3.626l-4.414 1.052M76.392 37.97l4.217-1.165c1.975-.686 3.23 2.946.992 3.592l-4.373 1.209" />
         <path d="M76.99 41.299h4.375c2.087-.135 2.329 3.7 0 3.727h-4.537M76.99 293.846h4.375c2.087-.135 2.329 3.7 0 3.727h-4.537M76.99 275.263h4.375c2.087-.135 2.329 3.7 0 3.727h-4.537M76.99 279.753h4.375c2.087-.135 2.329 3.7 0 3.727h-4.537M76.99 284.453h4.375c2.087-.135 2.329 3.7 0 3.727h-4.537M76.99 289.152h4.375c2.087-.135 2.329 3.7 0 3.727h-4.537M76.99 303.443h4.375c2.087-.135 2.329 3.7 0 3.727h-4.537M76.99 298.748h4.375c2.087-.135 2.329 3.7 0 3.727h-4.537M76.99 490.956h4.375c2.087-.135 2.329 3.7 0 3.727h-4.537M76.99 495.655h4.375c2.087-.135 2.329 3.7 0 3.727h-4.537M76.99 500.355h4.375c2.087-.135 2.329 3.7 0 3.727h-4.537M76.99 505.054h4.375c2.087-.135 2.329 3.7 0 3.727h-4.537M76.99 509.545h4.375c2.087-.136 2.329 3.7 0 3.726h-4.537M76.99 514.035h4.375c2.087-.135 2.329 3.7 0 3.727h-4.537M76.99 518.734h4.375c2.087-.135 2.329 3.7 0 3.727h-4.537M76.99 523.856h4.375c2.087-.135 2.329 3.7 0 3.727h-4.537M76.99 529.123h4.375c2.087-.135 2.329 3.7 0 3.727h-4.537M76.99 533.822h4.375c2.087-.135 2.329 3.7 0 3.727h-4.537M76.99 538.522h4.375c2.087-.135 2.329 3.7 0 3.727h-4.537M76.99 543.22h4.375c2.087-.134 2.329 3.7 0 3.728h-4.537M76.99 547.92h4.375c2.087-.135 2.329 3.7 0 3.727h-4.537M76.99 552.62h4.375c2.087-.135 2.329 3.7 0 3.727h-4.537M76.99 557.319h4.375c2.087-.135 2.329 3.7 0 3.727h-4.537M76.99 562.018h4.375c2.087-.135 2.329 3.7 0 3.727h-4.537M76.99 566.509h4.375c2.087-.135 2.329 3.7 0 3.727h-4.537M76.99 571h4.375c2.087-.136 2.329 3.7 0 3.726h-4.537M76.99 575.699h4.375c2.087-.135 2.329 3.7 0 3.727h-4.537M76.99 580.599h4.375c2.087-.135 2.329 3.7 0 3.727h-4.537M76.99 585.298h4.375c2.087-.135 2.329 3.7 0 3.727h-4.537M76.99 589.998h4.375c2.087-.135 2.329 3.7 0 3.727h-4.537M76.99 594.697h4.375c2.087-.135 2.329 3.7 0 3.727h-4.537M76.99 599.187h4.375c2.087-.135 2.329 3.7 0 3.727h-4.537M76.99 603.678h4.375c2.087-.135 2.329 3.7 0 3.727h-4.537M76.99 608.377h4.375c2.087-.135 2.329 3.7 0 3.727h-4.537M76.99 613.5h4.375c2.087-.136 2.329 3.7 0 3.726h-4.537M76.99 618.48h4.375c2.087-.135 2.329 3.7 0 3.727h-4.537M76.99 623.18h4.375c2.087-.135 2.329 3.7 0 3.727h-4.537M76.99 627.879h4.375c2.087-.135 2.329 3.7 0 3.727h-4.537M76.99 632.578h4.375c2.087-.135 2.329 3.7 0 3.727h-4.537M76.99 637.278h4.375c2.087-.135 2.329 3.7 0 3.727h-4.537M76.99 641.977h4.375c2.087-.135 2.329 3.7 0 3.727h-4.537M76.99 646.676h4.375c2.087-.135 2.329 3.7 0 3.727h-4.537M76.99 651.376h4.375c2.087-.135 2.329 3.7 0 3.727h-4.537M76.99 655.866h4.375c2.087-.135 2.329 3.7 0 3.727h-4.537M76.99 660.357h4.375c2.087-.135 2.329 3.7 0 3.727h-4.537M76.99 665.056h4.375c2.087-.135 2.329 3.7 0 3.727h-4.537M76.99 669.956h4.375c2.087-.135 2.329 3.7 0 3.727h-4.537M76.99 674.656h4.375c2.087-.135 2.329 3.7 0 3.727h-4.537M76.99 679.355h4.375c2.087-.135 2.329 3.7 0 3.727h-4.537M76.99 684.054h4.375c2.087-.135 2.329 3.7 0 3.727h-4.537M76.99 688.545h4.375c2.087-.135 2.329 3.7 0 3.727h-4.537M76.99 693.035h4.375c2.087-.135 2.329 3.7 0 3.727h-4.537M76.99 697.735h4.375c2.087-.135 2.329 3.7 0 3.727h-4.537M76.99 702.857h4.375c2.087-.135 2.329 3.7 0 3.727h-4.537" />
      </g>
   </g>
   <path d="M210.794 520.692c-.617 7.54.635 13.363-.259 22.787-.893 9.423-6.162 8.991-11.532 8.931-5.474-.062-10.785-.988-10.974-4.595-5.653-1.587-13.631 4.933-72.263 2.662-2.539-.344-2.727-4.075-2.96-6.724 2.614-.714 5.324-1.043 8.228-.595 19.497-9.53 43.904-14.856 63.897-32.734 1.93-2.157 2.544-4.532 3.28-6.887M307.633 225.14l-42.76 8.801c-24.837 4.392-27.158 9.411-35.943 24.782l-46.433 48.903-54.057-64.312-22.396 22.139c21.482 33.05 35.723 69.596 72.6 95.211 32.046-23.047 59.79-49.633 85.31-78.05l1.61.843 9.724 21.561c-1.393 2.242-.799 4.615 1.224 5.445 2.049 8.567 8.31 11.358 11.063 18.138 6.5 18.333 10.685 35.877 13.19 56.467-.268 17.173-2.5 30.732-3.925 50.708l112.832-36.772-.91-9.644v-5.582c5.364-33.356 8.438-79.716 23.902-107.516l8.402 6.352c25.52 28.417 53.265 55.003 85.311 78.05 36.877-25.615 51.117-62.162 72.6-95.211l-22.397-22.14-54.057 64.313-45.891-47.96c-6.885-10.552-19.251-22.029-26.282-26.63-8.333-5.454-23.452-8.178-32.845-9.09l-8.888-1.307" fill="#a13c2a" fill-rule="evenodd" stroke="#000" stroke-width=".5" stroke-linecap="round" stroke-linejoin="round" />
   <path d="M204.701 512.74l-58.303-106.798c-10.011-16.638 7.713-30.327 13.498-35.05 5.353-4.368 17.985-19.21 39.483-3.783 38.035 25.896 73.097 55.552 103.167 91.526" fill="#a13c2a" fill-rule="evenodd" stroke="#000" stroke-width=".5" />
   <path d="M241.086 493.744c-14.487-32-31.834-61.673-51.74-89.262l26.18-25.448c31.674 22.776 60.988 48.886 86.663 79.6" fill="#fac53a" fill-rule="evenodd" />
   <g stroke-width=".5" fill="none" stroke="#000">
      <path d="M215.903 379.353l-26.2 25.129c19.906 27.589 37.254 57.261 51.74 89.262M214.27 380.961c29.748 27.565 70.497 55.85 85.984 87.883M212.096 383.139c29.748 27.564 70.908 55.902 86.395 87.936M210.031 385.178c29.674 27.271 70.699 55.739 86.005 87.398M208.116 387.269c29.664 27.3 69.734 55.142 85.066 86.856M205.79 389.207c29.533 26.943 68.722 54.458 83.845 85.738M203.852 391.277c29.141 26.618 67.773 53.788 83.373 84.59M201.425 393.116c28.884 26.165 67.415 53.47 83.043 83.665M199.655 395.34c28.69 26.008 66.036 52.581 81.75 82.587M197.433 397.559c28.569 25.656 65.031 51.909 80.38 81.506M195.252 399.413c28.264 25.445 64.434 51.465 80.194 80.74M193.247 401.611c28.05 25.001 63.968 51.084 79.59 79.764M191.031 403.44c27.83 24.895 62.872 50.372 78.655 78.938M191.74 407.242c27.66 24.095 60.371 48.89 74.388 76.63M198.44 416.756c25.13 21.439 52.344 43.6 65.248 68.036M204.458 425.663c22.505 19.107 45.258 39.034 56.655 60.406M209.846 434.078c19.379 16.754 37.861 34.134 48.038 52.842M213.595 440.849c17.41 15.357 33.057 30.051 42.225 47.086M218.227 448.597c14.864 13.66 27.186 26.046 35.21 40.436M223.208 457.353c11.246 10.866 20.998 21.209 27.568 32.823M227.576 465.776c8.074 8.47 15.026 16.6 20.154 25.601M216.005 378.67c29.748 27.566 69.1 56.014 85.96 87.684M234.083 478.212c3.783 4.737 7.14 9.553 9.934 14.459" />
   </g>
   <path d="M291.276 445.495c-33.697 7.967-67.29 15.057-98.001 29.762-16.64 7.968-31.526 16.72-45.198 28.819-6.357 6.247-.12 42.67 4.1 47.552 95.717 5.992 164.781 2.823 237.192.804 31.86-.537 64.7-2.64 94.072.804 5.426-.055 4.691-9.472 0-10.854-16.799-4.017-39.076-8.679-46.62-10.49-19.486-4.678-27.135-18.376-39.814-19.662-6.55-.187-15.09 5.482-22.94 6.553 12.861-10.701 41.776-35.758 38.217-77.71" fill="#a13c2a" fill-rule="evenodd" stroke="#000" stroke-width=".5" />
   <path d="M412.408 441.073c3.559 41.952-6.873 57.276-19.735 67.978-11.914 8.417-21.703 11.172-36.24 11.752-32.232.752-77.464-11.655-109.022-10.189-18.904.878-36.333 1.875-57.922 9.657-2.714-12.874-5.944-25.359-11.659-35.981l-.032-.976c5.03-2.825 10.223-5.482 15.601-8.057 30.711-14.705 64.304-21.795 98.002-29.762l2.55.897" fill="#fac53a" fill-rule="evenodd" stroke="#000" stroke-width=".5" />
   <path d="M294.702 446.474c-34.637 9.885-92.907 27.963-105.257 73.696-2.752-12.773-5.982-25.258-11.697-35.88l-.032-.976c5.029-2.825 10.223-5.482 15.6-8.057 30.274-14.496 68.433-22.867 101.728-30.676l-.342 1.893z" fill="#fff" fill-rule="evenodd" stroke="#000" stroke-width=".5" stroke-linecap="round" stroke-linejoin="round" />
   <path d="M307.286 416.696a.918 2.446-.47 11-1.837 0 .918 2.446-.47 111.837 0z" style="marker:none" color="#000" fill-opacity=".706" fill-rule="evenodd" overflow="visible" />
   <path d="M177.706 484.29c5.715 10.622 8.945 23.107 11.659 35.98 21.588-7.78 39.018-8.778 57.922-9.656 31.557-1.466 76.79 10.941 109.022 10.189 29.933-.703 27.92-8 41.073-8.625" fill="none" stroke="#000" stroke-width=".5" />
   <path d="M215.028 482.883c25.943-2.104 64.698-2.948 93.135-5.615 19.103-1.792 34.497-3.955 46.039-7.625 12.101-3.848 19.647-5.816 18.684-26.761" fill="none" stroke="#000" stroke-width=".25" />
   <path d="M207.054 490.12c25.943-2.104 76.692-5.561 105.13-8.23 19.102-1.791 35.501-4.154 47.043-7.825 12.102-3.848 20.652-10.137 18.685-30.781" fill="none" stroke="#000" stroke-width=".25" />
   <path d="M200.754 497.28c25.943-2.103 77.766-5.686 106.203-8.354 19.103-1.792 46.758-6.768 58.3-10.439 12.102-3.848 20.451-14.358 18.484-35.002" fill="none" stroke="#000" stroke-width=".25" />
   <path d="M196.045 504.356c25.943-2.103 81.872-6.129 110.309-8.796 19.103-1.792 46.758-6.97 58.3-10.64 12.102-3.849 25.879-12.349 23.911-42.44" fill="none" stroke="#000" stroke-width=".25" />
   <path d="M192.656 511.995c28.217-1.25 87.667-8.683 109.075-9.601 17.789-.756 47.361-6.166 58.903-9.836 12.101-3.848 36.33-9.735 32.956-49.877" fill="none" stroke="#000" stroke-width=".25" />
   <path d="M262.53 510.783c18.25-1.449 35.026-2.76 44.427-3.163 17.789-.756 47.303-6.98 58.844-10.65 12.102-3.848 35.184-9.323 32.412-54.29" fill="none" stroke="#000" stroke-width=".25" />
   <path d="M294.127 514.384c6.024-.34 12.987-.769 16.85-.935 17.79-.756 46.759-7.773 58.3-11.444 6.596-2.097 16.697-5.99 23.892-14.916 6.005-7.451 10.728-24.152 9.467-44.61" fill="none" stroke="#000" stroke-width=".25" />
   <path d="M327.404 518.77c16.404-2.817 36.35-8.695 45.29-11.538 6.596-2.098 16.698-5.991 23.892-14.917 6.005-7.45 11.532-18.925 10.472-50.036" fill="none" stroke="#000" stroke-width=".25" />
   <path d="M351.358 520.664c16.907-4.327 36.587-9.216 49.047-22.118 6.005-7.45 12.939-19.528 11.276-56.066M222.732 476.652c25.943-2.104 49.758-1.139 78.195-3.807 19.102-1.792 34.095-3.988 45.636-6.453 12.42-2.651 21.858-4.474 21.7-23.51" fill="none" stroke="#000" stroke-width=".25" />
   <path d="M233.995 469.904c21.643-1.732 42.358-.131 65.324-2.687 9.662-1.075 28.954-2.111 43.647-5.17 12.467-2.594 21.26-6.567 21.12-18.137M316.06 460.167c14.995-1.959 43.887-1.274 42.811-16.272M316.06 455.141c12.994-1.794 37.53-1.424 36.581-11.104M316.604 450.163c10.567-1.004 24.863-1.653 30.261-5.94M241.03 466.084c16.57-.32 40.571-.779 56.494-2.018M266.77 455.276c10.664-.78 21.101-.987 31.735-1.225M249.233 462.326c15.634-.276 31.884-.861 47.488-1.878M257.48 458.899c13.649-.323 28.591-.807 39.642-1.668" fill="none" stroke="#000" stroke-width=".25" />
   <path d="M210.733 486.31c25.943-2.103 70.802-3.963 99.24-6.63 19.102-1.792 34.697-3.754 46.239-7.424 12.101-3.848 21.387-7.823 19.135-29.32" fill="none" stroke="#000" stroke-width=".25" />
   <path d="M204.13 493.398c25.943-2.103 81.2-5.658 109.637-8.325 19.102-1.792 35.928-4.724 47.47-8.395 12.102-3.848 21.078-10.848 19.68-34.05" fill="none" stroke="#000" stroke-width=".25" />
   <path d="M198.784 500.494c25.943-2.103 81.888-5.718 110.325-8.386 19.103-1.792 46.617-7.337 58.158-11.008 12.102-3.848 21.02-17.912 19.053-38.555" fill="none" stroke="#000" stroke-width=".25" />
   <path d="M194.28 508.107c25.944-2.104 86.215-6.982 114.653-9.65 19.102-1.792 46.19-7.254 57.731-10.924 12.102-3.849 26.984-14.258 24.615-45.154" fill="none" stroke="#000" stroke-width=".25" />
   <path d="M235.761 511.244c18.45-2.123 58.776-5.842 67.98-6.237 17.789-.756 47.93-6.45 59.472-10.12 12.101-3.849 36.566-10.758 32.79-52.608m-205.174 73.83c3.478-.155 10.007-.427 14.393-.787" fill="none" stroke="#000" stroke-width=".25" />
   <path d="M282.148 512.672c8.217-.694 19.487-1.242 26.92-1.936 18.746-.997 47.344-7.909 58.886-11.58 12.101-3.848 34.465-8.22 32.571-56.877" fill="none" stroke="#000" stroke-width=".25" />
   <path d="M307.362 516.42c.207-.01 6.04-.376 6.249-.386 17.835-.89 46.269-7.788 57.677-11.415 6.595-2.098 16.697-5.991 23.89-14.917 6.006-7.45 10.729-21.451 9.61-47.452" fill="none" stroke="#000" stroke-width=".25" />
   <path d="M336.796 520.077c13.795-3.027 30.632-7.918 37.909-10.232 6.596-2.098 16.697-5.991 23.891-14.917 6.005-7.45 12.1-18.925 11.04-52.737M218.765 479.677c25.943-2.104 55.735-1.953 84.172-4.62 19.102-1.792 34.095-4.156 45.636-6.62 12.42-2.652 22.594-5.754 22.009-25.358" fill="none" stroke="#000" stroke-width=".25" />
   <path d="M227.123 473.654c21.643-1.732 51.127-2.092 74.206-3.824 19.132-1.435 34.095-3.753 45.636-6.217 11.208-2.393 19.02-5.235 19.273-20.217M279.655 450.923c6.492-.407 12.917-.622 19.37-.786M316.06 463.01c14.995-1.96 46.023-2.36 45.63-19.115M316.487 457.558c24.506-1.794 39.755-3.272 39.375-13.52M316.889 452.579c10.566-1.003 32.538-1.653 32.392-8.356" fill="none" stroke="#000" stroke-width=".25" />
   <g fill-rule="evenodd" stroke="#000" stroke-width=".25">
      <path d="M315.549 441.22c1.553 20.498 1.947 23.02-1.728 23.222-2.312.127-3.736-6.205-3.557-22.946M298.174 441.22c-1.553 20.498-1.947 23.02 1.728 23.222 2.312.127 3.736-6.205 3.556-22.946" fill="#c13c1b" stroke-width=".200935" />
      <path d="M310.536 441.41c.311 9.493-1.14 21.017 4.593 28.131l-16.792-.143c5.28-5.676 4.406-17.506 4.736-28.131" fill="#04a" stroke-width=".200935" />
      <path d="M306.788 441.353l-.353 23.366c-.041 2.691-.952 4.5-1.239 4.715h2.799c-.436-.244-.925-1.99-.929-4.714l-.026-23.363-.252-.004zM300.397 441.415l-.834 19.515c-.032.495.186 1.127.394.43l.686-19.937-.246-.008zM313.298 441.415l.834 19.515c.031.495-.187 1.127-.395.43l-.686-19.937.247-.008z" fill="#fff" stroke-width=".200935" />
   </g>
   <path d="M412.794 442.474l-2.865-42.932-113.361 36.304-1.833 10.604 118.059-3.976z" fill="#fac53a" fill-rule="evenodd" stroke="#000" stroke-linecap="round" stroke-linejoin="round" stroke-width=".30552" />
   <path d="M369.254 420.463l9.83-2.545 1.508 6.063-9.896 2.017-1.442-5.535z" fill="#04a" fill-rule="evenodd" stroke="#04a" stroke-width=".35318112" />
   <path d="M383.015 416.902l8.947-2.347 1.775 6.996-9.068 1.725-1.654-6.374z" fill="#c13c1b" fill-rule="evenodd" stroke="#c13c1b" stroke-width=".35318112" />
   <path d="M395.927 413.772l10.201-2.692 1.918 7.434-10.474 2.066-1.645-6.808z" fill="#04a" fill-rule="evenodd" stroke="#04a" stroke-width=".35318112" />
   <path d="M409.948 399.389l.31 5.258-108.705 30.37-4.727.627 113.122-36.255z" fill="#fff" fill-rule="evenodd" stroke="#000" stroke-linecap="round" stroke-linejoin="round" stroke-width=".30552" />
   <path d="M314.9 434.083l8.952-2.186.74 3.423-9.007 1.937-.685-3.174z" fill="#04a" fill-rule="evenodd" stroke="#04a" stroke-width=".35318112" />
   <path d="M328.287 430.843l9.52-2.5.845 4.034-9.513 1.96-.852-3.494z" fill="#c13c1b" fill-rule="evenodd" stroke="#c13c1b" stroke-width=".35318112" />
   <path d="M341.673 427.55l9.678-2.638 1.278 4.795-10.033 1.95-.923-4.107z" fill="#04a" fill-rule="evenodd" stroke="#04a" stroke-width=".35318112" />
   <path d="M355.613 423.699l9.907-2.537 1.519 5.733-10.06 2.045-1.366-5.241z" fill="#308d57" fill-rule="evenodd" />
   <path d="M411.022 418.215l-98.35 19.718M410.49 409.798l-100.367 25.357M394.54 414.037l1.783 6.81M393.262 414.194l1.735 6.989M408.744 410.337l1.9 7.76M407.451 410.675l1.97 7.705M381.716 417.324l1.822 6.203M380.339 417.608l1.763 6.213M368.085 420.724l1.398 5.453M366.77 420.872l1.547 5.721M353.91 424.188l1.462 4.878M352.67 424.55l1.38 4.891M340.416 427.816l.874 4.055M339.04 428.168l.989 4.057M327.036 431.17l.622 3.564M325.545 431.47l.731 3.637M313.685 434.406l.694 3.028M312.518 434.576l.794 3.113" fill="none" stroke="#000" stroke-width=".35318112" stroke-linecap="round" stroke-linejoin="round" />
   <path d="M397.2 429.042l10.44-1.528 1.068 7.603-10.64.874-.868-6.95z" fill="#04a" fill-rule="evenodd" stroke="#04a" stroke-width=".35318112" />
   <path d="M384.018 430.698l9.154-1.324 1.097 7.09-9.324.754-.927-6.52z" fill="#c13c1b" fill-rule="evenodd" stroke="#c13c1b" stroke-width=".35318112" />
   <path d="M369.943 432.689l10.055-1.423.816 6.194-10.06.89-.81-5.661z" fill="#04a" fill-rule="evenodd" stroke="#04a" stroke-width=".35318112" />
   <path d="M356.025 434.37l10.13-1.406.864 5.867-10.226.9-.768-5.361z" fill="#308d57" fill-rule="evenodd" />
   <path d="M341.74 436.629l9.914-1.533.73 4.908-10.32.89-.323-4.265z" fill="#04a" fill-rule="evenodd" stroke="#04a" stroke-width=".35318112" />
   <path d="M328.091 438.306l9.719-1.325.386 4.104-9.673.878-.432-3.657z" fill="#c13c1b" fill-rule="evenodd" stroke="#c13c1b" stroke-width=".35318112" />
   <path d="M314.958 440.18l8.719-1.093.454 3.286-8.786.828-.387-3.021z" fill="#04a" fill-rule="evenodd" stroke="#04a" stroke-width=".35318112" />
   <path d="M412.177 435.014l-100.421 8.669M411.587 426.86L309.82 440.62M395.793 429.148l1.004 6.968M394.505 429.161l.938 7.14M410.32 427.052l1.017 7.943M409 427.26l1.09 7.878M382.68 430.972l1.112 6.369M381.28 431.1l1.052 6.371M368.753 432.817l.775 5.575M367.43 432.816l.893 5.859M354.278 434.664l.904 5.012M353.005 434.885l.82 5.015M340.462 436.75l.412 4.128M339.055 436.946l.526 4.143M326.681 438.566l.447 3.53M325.274 438.71l.473 3.77M314.047 440.194l.396 3.202M313.107 440.32l.26 3.053" fill="none" stroke="#000" stroke-width=".35318112" stroke-linecap="round" stroke-linejoin="round" />
   <path d="M313.642 438.613l97.646-17.79M313.781 439.334l97.664-15.38M311.842 444.5l100.436-7.499M310.247 445.336l102.384-5.22M305.387 434.68l104.92-28.447M307.936 434.897l102.515-26.849" fill="none" stroke="#000" stroke-width=".30552" />
   <path d="M294.677 446.499c11.42-.937 19.377 1.353 18.998-7.132-.276-6.19-11.067-4.786-17.068-3.747l-1.93 10.879z" fill="#fac53a" fill-rule="evenodd" stroke="#000" stroke-linecap="round" stroke-linejoin="round" stroke-width=".30552" />
   <path d="M110.433 250.52c-3.921-.157-46.425.94-48.334-5.278-1.417-1.734-1.516-4.616 2.524-6.373-2.855-2.33-2.246-6.1 1.62-6.637-2.487-3.043-1.774-5.195 1.355-6.675-2.734-3.233-1.435-5.244 2.147-6.562-4.525.935-12.423-1.484-8.788-9.198l7.467 2.41c20.485-3.188 34.793 5.96 45.055 14.805l1.317 1.24" fill="#a13c2a" fill-rule="evenodd" stroke="#000" stroke-width=".5" stroke-linecap="round" stroke-linejoin="round" />
   <path d="M97.39 226.924c-1.16-3.167-5.622-4.823-17.399-6.848l6.291-7.558c11.19 3.095 15.383 5.173 22.117 10.38" fill="#a13c2a" fill-rule="evenodd" />
   <path d="M91.36 222.747c5.9 1.265 9.172 5.977 2.101 6.074 5.325.567 10.002 7.052-.891 5.92 7.98 2.692 3.796 6.772-1.105 6.08 5.43 1.776 2.695 5.811-4.158 5.12-7.895.216-16.446-.129-24.73-.432-.15-.008-.294-.07-.42-.253-1.417-1.734-1.656-4.451 2.384-6.209-2.856-2.33-2.247-6.1 1.619-6.637-2.486-3.042-1.773-5.194 1.355-6.675-2.734-3.232-2.19-5.149 1.393-6.467.342-.062.628-.082.87-.068 8.793.371 15.89 1.554 21.415 3.49m1.209.398c-1.466.747-2.094 3.379-.375 5.468m1.238.387c-2.136.39-2.036 4.472-.844 5.72m.485.17c-2.537.061-4.204 4.547-.654 6.024m-.89-.028c-2.193.652-2.747 3.335-1.876 5.062m-23.312-13.47c.827.213 26.404 2.369 26.404 2.369M67.71 225.8c1.413.106 25.82 3.058 25.82 3.058m-28.91 10.23l27.01 1.766" fill="#a13c2a" fill-rule="evenodd" stroke="#000" stroke-width=".5" stroke-linecap="round" stroke-linejoin="round" />
   <path d="M93.265 228.943c-.372-.1-.738.143-1.239-.387-2.138-2.509-.161-5.212.364-5.494 5.167 1.542 7.644 5.772 1.031 5.863 5.325.566 10.042 6.948-.851 5.816 7.98 2.692 3.968 6.746-.933 6.053 4.825 1.58 3.03 4.968-2.175 5.154-.847-1.784-.293-4.467 2.174-5.117-3.275-1.474-1.267-5.937 1.028-6.083-1.435-1.333-1.535-5.414.6-5.805z" fill="#fff" fill-rule="evenodd" stroke="#000" stroke-width=".5" stroke-linecap="round" stroke-linejoin="round" />
   <path d="M79.991 220.076c11.777 2.025 16.335 3.774 17.495 6.941m10.812-4.15c-6.733-5.208-10.84-7.477-22.228-10.369" fill="none" stroke="#000" stroke-width=".5" />
   <g fill-rule="evenodd" stroke="#000" stroke-linecap="round" stroke-linejoin="round">
      <path d="M129.1 243.584l-22.607 22.467-15.201-15.677 22.99-22.647 14.817 15.857z" fill="#fac53a" stroke-width=".37329" />
      <path d="M126.527 240.947l-22.429 22.972-4.305-4.562 22.878-22.072 3.856 3.662zM120.434 234.47l-22.978 22.267-4.731-4.947 23.17-22.012 4.54 4.691z" fill="#04a" stroke-width=".37329" />
   </g>
   <g>
      <path d="M287.635 229.169l34.503-7.924 49.004-5.31 38.04 6.746c-6.09 36.071-30.051 49.587-58.215 51.012-26.675 1.346-39.336-5.155-48.314-14.164-8.533-8.562-13.325-22.24-15.018-30.36z" fill="#fff" fill-rule="evenodd" stroke="#000" stroke-linecap="round" stroke-linejoin="round" stroke-width=".28687" />
      <path style="marker:none" d="M302.048 225.856c5.964 25.72 21.326 34.875 49.104 32.992 27.846-1.888 41.215-20.175 42.422-37.594-.015-.235-.033-.577.088-1.194" color="#000" fill="none" stroke="#04a" stroke-width="5.1120234" stroke-linejoin="round" overflow="visible" />
      <path style="marker:none" d="M315.21 223.004c5.646 19.538 16.885 23.49 35.017 22.273 16.94-1.138 29.742-12.626 29.221-26.565-.06-.53.003-.896.073-1.2" color="#000" fill="none" stroke="#308d57" stroke-width="3.1369234500000003" overflow="visible" />
      <path style="marker:none" d="M306.591 225.11c4.336 18.008 14.336 31.275 44.094 29.125 25.904-1.872 37.85-19.769 37.932-34.444-.018-.066-.028-.375.029-.686" color="#000" fill="none" stroke="#c13c1b" stroke-width="3.1369234500000003" overflow="visible" />
      <path style="marker:none" d="M319.497 221.915c2.82 8.519 6.06 21.283 30.589 18.725 16.07-1.676 24.308-11.52 24.662-20.498.02-1.02-.05-3.28.064-3.581" color="#000" fill="none" stroke="#04a" stroke-width="4.60082106" overflow="visible" />
      <path style="marker:none" d="M310.788 223.895c5.84 24.324 24.098 27.28 40.045 25.877 21.665-1.91 32.96-15.679 33.157-29.92.012-.261-.02-1.235.092-1.634" color="#000" fill="none" stroke="#04a" stroke-width="4.60082106" overflow="visible" />
      <path style="marker:none" d="M293.455 227.995c6.462 27.297 22.201 41.83 56.812 39.614l.408-.027h.012c45.936-3.104 50.777-37.696 52.218-45.759" color="#000" fill="none" stroke="#fac53a" stroke-width="11.4748" overflow="visible" />
      <path d="M287.635 229.169l34.503-7.924 49.004-5.31 38.04 6.746c-6.09 36.071-30.051 49.587-58.215 51.012-26.675 1.346-39.336-5.155-48.314-14.164-8.533-8.562-13.325-22.24-15.018-30.36z" fill="none" stroke="#000" stroke-width=".57374" stroke-linecap="round" stroke-linejoin="round" />
      <g fill="none" stroke="#c13c1b">
         <path d="M364.245 268.32c-.723-2.014-.419-5.604.046-7.963 1.711 1.643 4.1 4.4 4.737 6.307 1.225 3.664-3.551 5.08-4.783 1.656z" stroke-width=".28687" />
         <path d="M364.862 268.056c-.536-1.491-.315-4.149.027-5.895 1.263 1.218 3.029 3.262 3.5 4.673.908 2.714-2.615 3.758-3.527 1.222z" stroke-width=".28687" />
         <path d="M364.852 267.98c.178-.32.66-.97 1.512-1.26.852-.288 1.438-.143 1.93.06M364.608 265.263c.244-.326.794-.653 1.066-.741.295-.096.929-.09 1.223-.018" style="marker:none" color="#000" stroke-linecap="round" stroke-linejoin="round" overflow="visible" stroke-width=".28687" />
      </g>
      <g fill="none" stroke="#c13c1b">
         <path d="M358.243 269.407c-.525-2.074.125-5.618.817-7.921 1.544 1.801 3.654 4.777 4.103 6.736.865 3.765-4.026 4.711-4.92 1.185z" stroke-width=".28687" />
         <path d="M358.882 269.204c-.389-1.536.089-4.16.598-5.865 1.14 1.335 2.699 3.54 3.031 4.99.64 2.79-2.967 3.487-3.629.875z" stroke-width=".28687" />
         <path d="M358.88 269.128a2.824 2.824 0 011.627-1.108c.875-.205 1.445-.003 1.915.246M358.9 266.4c.275-.3.854-.573 1.133-.635.303-.067.933 0 1.219.1" style="marker:none" color="#000" stroke-linecap="round" stroke-linejoin="round" overflow="visible" stroke-width=".28687" />
      </g>
      <g fill="none" stroke="#c13c1b">
         <path d="M370.347 266.49c-.92-1.931-.974-5.534-.745-7.928 1.865 1.466 4.516 3.973 5.339 5.806 1.583 3.524-3.029 5.407-4.594 2.123z" stroke-width=".28687" />
         <path d="M370.934 266.167c-.681-1.431-.725-4.097-.56-5.869 1.38 1.087 3.339 2.945 3.949 4.303 1.172 2.61-2.23 3.998-3.39 1.566z" stroke-width=".28687" />
         <path d="M370.917 266.093a2.824 2.824 0 011.38-1.404c.818-.372 1.416-.286 1.925-.133M370.404 263.413c.21-.348.725-.729.987-.843.284-.125.915-.182 1.215-.14" style="marker:none" color="#000" stroke-linecap="round" stroke-linejoin="round" overflow="visible" stroke-width=".28687" />
      </g>
      <g fill="none" stroke="#c13c1b">
         <path d="M346.165 270.3c-.099-2.137 1.248-5.479 2.387-7.597 1.151 2.074 2.623 5.412 2.67 7.421.094 3.863-4.887 3.81-5.057.176z" stroke-width=".28687" />
         <path d="M346.832 270.23c-.074-1.584.92-4.059 1.76-5.627.85 1.536 1.935 4.009 1.97 5.496.07 2.861-3.605 2.822-3.73.13z" stroke-width=".28687" />
         <path style="marker:none" d="M346.845 270.154a2.824 2.824 0 011.816-.76c.898-.025 1.416.287 1.826.625M347.41 267.485c.33-.24.952-.39 1.238-.394.31-.005.914.187 1.174.342" color="#000" stroke-linecap="round" stroke-linejoin="round" overflow="visible" stroke-width=".28687" />
      </g>
      <g fill="none" stroke="#c13c1b">
         <path d="M340.336 270.364c-.015-2.14 1.463-5.426 2.684-7.497 1.069 2.117 2.408 5.511 2.377 7.52-.06 3.863-5.034 3.615-5.061-.023z" stroke-width=".28687" />
         <path d="M341.005 270.32c-.01-1.585 1.079-4.02 1.98-5.553.788 1.568 1.776 4.081 1.753 5.57-.044 2.86-3.714 2.677-3.733-.018z" stroke-width=".28687" />
         <path d="M341.02 270.245a2.824 2.824 0 011.845-.687c.9.01 1.404.341 1.801.695M341.692 267.6c.338-.226.965-.352 1.252-.345.31.007.905.223 1.159.388" style="marker:none" color="#000" stroke-linecap="round" stroke-linejoin="round" overflow="visible" stroke-width=".28687" />
      </g>
      <g fill="none" stroke="#c13c1b">
         <path d="M352.265 270.095c-.338-2.113.627-5.584 1.521-7.817 1.377 1.933 3.212 5.085 3.485 7.076.525 3.828-4.43 4.333-5.006.74z" stroke-width=".28687" />
         <path d="M352.92 269.95c-.25-1.565.46-4.135 1.119-5.788 1.016 1.431 2.371 3.767 2.573 5.241.389 2.835-3.267 3.207-3.693.547z" stroke-width=".28687" />
         <path d="M352.924 269.874c.234-.282.829-.832 1.72-.958.89-.126 1.439.126 1.884.416M353.188 267.159c.3-.275.901-.495 1.185-.531.308-.04.929.083 1.204.209" style="marker:none" color="#000" stroke-linecap="round" stroke-linejoin="round" overflow="visible" stroke-width=".28687" />
      </g>
      <g fill="none" stroke="#c13c1b">
         <path d="M299.953 250.418c1.73-1.258 5.262-1.971 7.658-2.185-1.1 2.102-3.078 5.167-4.73 6.312-3.174 2.202-5.87-1.987-2.928-4.127z" stroke-width=".28687" />
         <path d="M300.379 250.936c1.282-.932 3.895-1.464 5.667-1.625-.816 1.555-2.284 3.821-3.507 4.67-2.351 1.63-4.34-1.46-2.16-3.045z" stroke-width=".28687" />
         <path style="marker:none" d="M300.448 250.905a2.824 2.824 0 011.633 1.1c.516.736.54 1.34.484 1.868M302.989 249.91c.381.144.85.58 1.01.817.175.256.346.866.36 1.168" color="#000" stroke-linecap="round" stroke-linejoin="round" overflow="visible" stroke-width=".28687" />
      </g>
      <g fill="none" stroke="#c13c1b">
         <path d="M297.037 245.49c1.846-1.083 5.43-1.446 7.835-1.423-1.3 1.984-3.57 4.84-5.326 5.818-3.375 1.88-5.647-2.554-2.51-4.395z" stroke-width=".28687" />
         <path d="M297.41 246.047c1.367-.802 4.02-1.074 5.799-1.06-.965 1.466-2.648 3.578-3.948 4.302-2.5 1.392-4.175-1.878-1.851-3.242z" stroke-width=".28687" />
         <path d="M297.482 246.024c.348.115 1.076.47 1.517 1.253.441.784.406 1.387.298 1.908M300.108 245.283c.365.18.788.66.925.911.148.272.26.896.243 1.198" style="marker:none" color="#000" stroke-linecap="round" stroke-linejoin="round" overflow="visible" stroke-width=".28687" />
      </g>
      <g fill="none" stroke="#c13c1b">
         <path d="M303.468 255.142c1.525-1.501 4.912-2.729 7.25-3.295-.776 2.242-2.28 5.566-3.743 6.943-2.814 2.647-6.1-1.096-3.507-3.648z" stroke-width=".28687" />
         <path d="M303.965 255.59c1.13-1.11 3.636-2.023 5.365-2.445-.577 1.658-1.693 4.117-2.777 5.137-2.084 1.96-4.508-.801-2.588-2.691z" stroke-width=".28687" />
         <path style="marker:none" d="M304.03 255.55a2.824 2.824 0 011.778.845c.619.653.732 1.246.755 1.777M306.395 254.19c.398.085.926.448 1.12.658.21.228.47.805.528 1.102" color="#000" stroke-linecap="round" stroke-linejoin="round" overflow="visible" stroke-width=".28687" />
      </g>
      <g fill="none" stroke="#c13c1b">
         <path d="M292.651 234.738c2.037-.656 5.615-.232 7.958.311-1.7 1.655-4.536 3.95-6.462 4.524-3.703 1.102-4.958-3.719-1.496-4.835z" stroke-width=".28687" />
         <path d="M292.895 235.363c1.508-.486 4.157-.176 5.89.223-1.259 1.223-3.36 2.919-4.787 3.343-2.742.817-3.668-2.74-1.103-3.566z" stroke-width=".28687" />
         <path d="M292.97 235.356c.315.188.949.692 1.21 1.553.26.86.095 1.442-.124 1.926M295.694 235.202c.318.255.627.816.706 1.09.086.299.059.931-.023 1.223" style="marker:none" color="#000" stroke-linecap="round" stroke-linejoin="round" overflow="visible" stroke-width=".28687" />
      </g>
      <g fill="none" stroke="#c13c1b">
         <path d="M291.07 229.145c2.064-.567 5.62.012 7.937.656-1.77 1.58-4.702 3.75-6.651 4.24-3.748.94-4.793-3.93-1.285-4.896z" stroke-width=".28687" />
         <path d="M291.287 229.78c1.528-.42 4.16.004 5.876.478-1.312 1.167-3.485 2.77-4.929 3.133-2.775.697-3.545-2.896-.947-3.611z" stroke-width=".28687" />
         <path style="marker:none" d="M291.362 229.776c.306.202.918.733 1.141 1.604.223.872.033 1.445-.206 1.92M294.09 229.741c.307.269.591.842.658 1.12.073.302.019.932-.076 1.22" color="#000" stroke-linecap="round" stroke-linejoin="round" overflow="visible" stroke-width=".28687" />
      </g>
      <g fill="none" stroke="#c13c1b">
         <path d="M294.577 240.295c1.965-.847 5.566-.766 7.95-.448-1.534 1.81-4.138 4.364-6.001 5.118-3.581 1.45-5.29-3.229-1.95-4.67z" stroke-width=".28687" />
         <path d="M294.878 240.894c1.455-.628 4.122-.571 5.886-.34-1.138 1.338-3.068 3.226-4.448 3.785-2.652 1.074-3.912-2.378-1.438-3.445z" stroke-width=".28687" />
         <path d="M294.953 240.88c.33.157 1.01.598 1.351 1.43.341.832.232 1.427.061 1.93M297.65 240.467c.34.224.7.752.806 1.019.114.288.147.92.093 1.219" style="marker:none" color="#000" stroke-linecap="round" stroke-linejoin="round" overflow="visible" stroke-width=".28687" />
      </g>
      <g fill="none" stroke="#c13c1b">
         <path d="M312.399 262.798c1.035-1.873 3.932-4.015 6.011-5.223-.105 2.37-.599 5.984-1.61 7.721-1.943 3.34-6.159.687-4.401-2.498z" stroke-width=".28687" />
         <path d="M313.004 263.087c.767-1.387 2.909-2.976 4.445-3.872-.08 1.753-.45 4.428-1.198 5.714-1.44 2.474-4.55.516-3.247-1.842z" stroke-width=".28687" />
         <path style="marker:none" d="M313.054 263.03a2.824 2.824 0 011.945.303c.78.45 1.057.986 1.23 1.488M314.934 261.052c.406-.032 1.015.165 1.261.312.267.158.68.637.82.906" color="#000" stroke-linecap="round" stroke-linejoin="round" overflow="visible" stroke-width=".28687" />
      </g>
      <g fill="none" stroke="#c13c1b">
         <path d="M307.632 259.264c1.325-1.68 4.532-3.322 6.78-4.176-.489 2.321-1.564 5.807-2.843 7.357-2.46 2.979-6.19-.324-3.937-3.18z" stroke-width=".28687" />
         <path d="M308.182 259.648c.982-1.245 3.353-2.464 5.016-3.099-.365 1.718-1.164 4.297-2.112 5.445-1.822 2.206-4.572-.23-2.904-2.346z" stroke-width=".28687" />
         <path d="M308.24 259.6a2.824 2.824 0 011.87.615c.696.57.883 1.144.972 1.668M310.417 257.954c.406.034.975.328 1.194.512.237.2.567.74.662 1.028" style="marker:none" color="#000" stroke-linecap="round" stroke-linejoin="round" overflow="visible" stroke-width=".28687" />
      </g>
      <g fill="none" stroke="#c13c1b">
         <path d="M317.615 265.527c.826-1.974 3.474-4.417 5.41-5.843.153 2.367.053 6.014-.764 7.85-1.57 3.53-6.048 1.35-4.646-2.007z" stroke-width=".28687" />
         <path d="M318.248 265.749c.612-1.462 2.57-3.273 4-4.33.11 1.751.032 4.45-.573 5.81-1.162 2.615-4.466 1.006-3.427-1.48z" stroke-width=".28687" />
         <path style="marker:none" d="M318.292 265.687a2.824 2.824 0 011.966.091c.823.362 1.158.865 1.384 1.346M319.947 263.517c.4-.075 1.026.055 1.287.173.282.129.745.56.913.813" color="#000" stroke-linecap="round" stroke-linejoin="round" overflow="visible" stroke-width=".28687" />
      </g>
      <g fill="none" stroke="#c13c1b">
         <path d="M328.812 269.08c.347-2.111 2.36-5.1 3.915-6.934.694 2.268 1.44 5.84 1.068 7.814-.712 3.798-5.573 2.71-4.983-.88z" stroke-width=".28687" />
         <path d="M329.478 269.15c.258-1.564 1.745-3.778 2.892-5.137.512 1.679 1.06 4.323.785 5.786-.528 2.812-4.114 2.01-3.677-.65z" stroke-width=".28687" />
         <path d="M329.507 269.08a2.824 2.824 0 011.934-.366c.884.162 1.326.575 1.657.99M330.616 266.586c.372-.165 1.011-.184 1.292-.128.304.06.855.373 1.077.579" style="marker:none" color="#000" stroke-linecap="round" stroke-linejoin="round" overflow="visible" stroke-width=".28687" />
      </g>
      <g fill="none" stroke="#c13c1b">
         <path d="M323.165 267.642c.553-2.067 2.848-4.845 4.575-6.518.47 2.325.861 5.952.299 7.881-1.08 3.71-5.812 2.152-4.874-1.363z" stroke-width=".28687" />
         <path d="M323.822 267.776c.41-1.531 2.105-3.589 3.38-4.83.345 1.722.632 4.407.215 5.836-.8 2.747-4.29 1.597-3.595-1.006z" stroke-width=".28687" />
         <path style="marker:none" d="M323.857 267.709a2.824 2.824 0 011.96-.175c.865.248 1.264.702 1.553 1.148M325.205 265.336c.386-.128 1.025-.084 1.299-.001.296.089.814.454 1.014.681" color="#000" stroke-linecap="round" stroke-linejoin="round" overflow="visible" stroke-width=".28687" />
      </g>
      <g fill="none" stroke="#c13c1b">
         <path d="M334.465 269.962c.122-2.137 1.806-5.322 3.157-7.311.932 2.181 2.051 5.653 1.892 7.657-.305 3.851-5.254 3.286-5.049-.346z" stroke-width=".28687" />
         <path d="M335.136 269.96c.09-1.582 1.333-3.942 2.33-5.415.687 1.615 1.512 4.186 1.394 5.67-.226 2.853-3.876 2.435-3.724-.255z" stroke-width=".28687" />
         <path d="M335.156 269.887c.29-.226.988-.636 1.885-.569.897.068 1.38.43 1.753.809M335.995 267.29c.352-.204.986-.29 1.27-.265.31.027.89.28 1.133.462" style="marker:none" color="#000" stroke-linecap="round" stroke-linejoin="round" overflow="visible" stroke-width=".28687" />
      </g>
      <g fill="none" stroke="#c13c1b">
         <path d="M381.468 261.344c-1.307-1.694-2.121-5.204-2.403-7.592 2.133 1.038 5.253 2.928 6.445 4.546 2.292 3.11-1.818 5.925-4.042 3.046z" stroke-width=".28687" />
         <path d="M381.973 260.903c-.968-1.254-1.574-3.851-1.786-5.618 1.577.77 3.885 2.173 4.768 3.372 1.697 2.303-1.335 4.379-2.982 2.246z" stroke-width=".28687" />
         <path style="marker:none" d="M381.941 260.835c.07-.36.33-1.128 1.052-1.664.721-.537 1.324-.579 1.854-.537M380.874 258.324c.132-.386.555-.866.787-1.034.251-.181.855-.37 1.157-.392" color="#000" stroke-linecap="round" stroke-linejoin="round" overflow="visible" stroke-width=".28687" />
      </g>
      <g fill="none" stroke="#c13c1b">
         <path d="M376.18 264.26c-1.156-1.802-1.662-5.369-1.737-7.772 2.035 1.219 4.98 3.372 6.027 5.087 2.014 3.297-2.324 5.745-4.29 2.684z" stroke-width=".28687" />
         <path d="M376.722 263.864c-.856-1.334-1.235-3.973-1.293-5.752 1.504.905 3.682 2.502 4.458 3.772 1.491 2.442-1.71 4.247-3.165 1.98z" stroke-width=".28687" />
         <path d="M376.696 263.793a2.824 2.824 0 011.191-1.567c.766-.472 1.37-.461 1.894-.374M375.85 261.199c.165-.372.627-.814.873-.961.266-.16.885-.296 1.188-.291" style="marker:none" color="#000" stroke-linecap="round" stroke-linejoin="round" overflow="visible" stroke-width=".28687" />
      </g>
      <g fill="none" stroke="#c13c1b">
         <path d="M386.497 257.83c-1.547-1.478-2.88-4.825-3.517-7.144 2.264.706 5.633 2.106 7.055 3.526 2.733 2.73-.907 6.13-3.538 3.619z" stroke-width=".28687" />
         <path d="M386.93 257.32c-1.145-1.096-2.135-3.572-2.61-5.287 1.675.525 4.167 1.565 5.22 2.617 2.025 2.022-.66 4.53-2.61 2.67z" stroke-width=".28687" />
         <path d="M386.888 257.256a2.824 2.824 0 01.79-1.803c.632-.639 1.222-.77 1.752-.81M385.455 254.934c.073-.4.419-.94.623-1.14.221-.217.79-.495 1.086-.562" style="marker:none" color="#000" stroke-linecap="round" stroke-linejoin="round" overflow="visible" stroke-width=".28687" />
      </g>
      <g fill="none" stroke="#c13c1b">
         <path d="M395.074 249.063c-1.892-1-4.087-3.857-5.333-5.913 2.371.06 5.994.488 7.75 1.467 3.374 1.88.8 6.145-2.417 4.446z" stroke-width=".28687" />
         <path d="M395.352 248.453c-1.401-.74-3.03-2.853-3.954-4.373 1.755.048 4.436.368 5.736 1.093 2.5 1.393.6 4.538-1.782 3.28z" stroke-width=".28687" />
         <path style="marker:none" d="M395.294 248.404a2.824 2.824 0 01.267-1.95c.435-.788.966-1.075 1.465-1.257M393.282 246.56c-.04-.405.146-1.017.288-1.266.153-.27.625-.692.891-.837" color="#000" stroke-linecap="round" stroke-linejoin="round" overflow="visible" stroke-width=".28687" />
      </g>
      <g fill="none" stroke="#c13c1b">
         <path d="M391.074 253.755c-1.725-1.266-3.479-4.413-4.411-6.63 2.337.407 5.858 1.36 7.452 2.584 3.063 2.354-.107 6.196-3.04 4.046z" stroke-width=".28687" />
         <path d="M391.438 253.192c-1.278-.938-2.58-3.266-3.272-4.904 1.729.304 4.335 1.012 5.515 1.919 2.269 1.744-.07 4.578-2.243 2.985z" stroke-width=".28687" />
         <path d="M391.388 253.134a2.824 2.824 0 01.55-1.89c.545-.715 1.112-.922 1.633-1.03M389.667 251.017c.02-.407.294-.985.47-1.21.191-.245.72-.594 1.004-.698" style="marker:none" color="#000" stroke-linecap="round" stroke-linejoin="round" overflow="visible" stroke-width=".28687" />
      </g>
      <g fill="none" stroke="#c13c1b">
         <path d="M398.204 244.018c-1.933-.917-4.25-3.675-5.586-5.676 2.372-.042 6.01.227 7.807 1.128 3.453 1.732 1.067 6.105-2.22 4.548z" stroke-width=".28687" />
         <path d="M398.455 243.396c-1.432-.679-3.15-2.718-4.14-4.196 1.755-.029 4.447.174 5.778.841 2.558 1.283.797 4.508-1.638 3.355z" stroke-width=".28687" />
         <path style="marker:none" d="M398.395 243.35a2.824 2.824 0 01.182-1.96c.4-.806.918-1.117 1.41-1.32M396.305 241.596c-.057-.403.101-1.023.232-1.278.142-.276.594-.719.854-.875" color="#000" stroke-linecap="round" stroke-linejoin="round" overflow="visible" stroke-width=".28687" />
      </g>
      <g fill="none" stroke="#c13c1b">
         <path d="M402.758 233.345c-2.065-.564-4.83-2.874-6.494-4.61 2.328-.456 5.957-.83 7.883-.257 3.703 1.1 2.12 5.824-1.39 4.867z" stroke-width=".28687" />
         <path d="M402.896 232.689c-1.53-.418-3.578-2.125-4.812-3.406 1.723-.336 4.41-.608 5.836-.184 2.743.815 1.575 4.299-1.024 3.59z" stroke-width=".28687" />
         <path d="M402.828 232.653a2.824 2.824 0 01-.164-1.961c.253-.863.709-1.26 1.156-1.546M400.463 231.293c-.127-.387-.079-1.025.005-1.299.091-.296.46-.811.687-1.01" style="marker:none" color="#000" stroke-linecap="round" stroke-linejoin="round" overflow="visible" stroke-width=".28687" />
      </g>
      <g fill="none" stroke="#c13c1b">
         <path d="M400.884 238.726c-2.013-.727-4.584-3.25-6.105-5.114 2.357-.27 6.004-.35 7.879.374 3.603 1.393 1.648 5.974-1.774 4.74z" stroke-width=".28687" />
         <path d="M401.074 238.083c-1.49-.539-3.397-2.404-4.524-3.78 1.744-.197 4.444-.253 5.832.283 2.67 1.032 1.226 4.411-1.308 3.497z" stroke-width=".28687" />
         <path style="marker:none" d="M401.01 238.042a2.824 2.824 0 01-.007-1.968c.32-.84.807-1.2 1.276-1.45M398.76 236.497c-.095-.396.004-1.028.11-1.294.114-.288.522-.772.765-.953" color="#000" stroke-linecap="round" stroke-linejoin="round" overflow="visible" stroke-width=".28687" />
      </g>
      <g fill="none" stroke="#c13c1b">
         <path d="M404.43 227.752c-2.113-.338-5.11-2.337-6.952-3.884 2.265-.705 5.833-1.465 7.81-1.103 3.8.695 2.735 5.561-.858 4.987z" stroke-width=".28687" />
         <path d="M404.497 227.085c-1.565-.25-3.786-1.727-5.15-2.869 1.677-.519 4.318-1.078 5.782-.81 2.815.515 2.028 4.104-.632 3.68z" stroke-width=".28687" />
         <path d="M404.426 227.057a2.824 2.824 0 01-.374-1.932c.158-.886.569-1.33.983-1.662M401.928 225.96c-.167-.372-.189-1.012-.134-1.293.058-.304.369-.856.574-1.079" style="marker:none" color="#000" stroke-linecap="round" stroke-linejoin="round" overflow="visible" stroke-width=".28687" />
      </g>
   </g>
   <path d="M359.645 148.295l3.093 42.767 7.664 27.353c-1.21 10.07-6.221 17.87-21.803 19.557-14.216 1.538-22.99-4.395-25.74-18.759-1.386-4.857-3.732-10.228-4.732-14.595-4.954 1.49-27.484-4.088-26.52-9.156.375-.944.75-2.85 1.124-4.988-.036-2.175-.84-2.95-2.26-3.164-.812.205-1.872-3.918.46-4.363-2.303.058-2.204-2.724-1.77-3.828.45-1.159.682-2.59.382-3.499-4.686-.22-8.19-3.316-5.817-8.276 2.275-4.751 8.634-13.288 12.087-18.962-.117-2.194.958-6.46 2.651-9.686 6.85-.765 40.066-3.445 34.827 12.206l26.354-2.607z" fill="#a13c2a" fill-rule="evenodd" stroke="#000" stroke-width=".38" />
   <path d="M342.063 171.196c.087-8.46 21.25-20.853-9.285-20.467.68-11.067-16.697-12.524-34.148-11.967 6.934-35.805 29.498-34.647 50.202-34.69 35.893-.073 47.905 26.964 52.74 61.483.966 6.903 1.476 13.045 1.503 18.464.09 17.945-5.113 27.966-16.536 31.416-4.734 1.43-10.536 1.73-17.474 1l.324 66.644-30.515.647.282-89.404c1.45-7.863-1.357-15.966 2.907-23.126z" fill="#025" fill-rule="evenodd" stroke="#000" stroke-width=".558" />
   <path d="M334.998 153.233c-1.241 33.784-10.489 52.455-40.987 46.014" fill="none" stroke="#000" stroke-width="1.518" />
   <path d="M342.09 158.93c-6.584 3.087-6.777 7.746-4.57 11.193 1.302 2.607 4.236 2.024 5.082.718.89-1.375 1.725-3.192 2.908-4.981 10.24-13.118 8.815-16.683 8.848-17.152.057-.823-2.01-6.596-5.616-6.287-3.7.317-12.733 5.174-4.854 14.128" fill="#a13c2a" fill-rule="evenodd" />
   <path d="M332.037 150.453c-2.61-.656-5.113-1.521-7.359-2.904-4.227-2.6-7.37-6.086-13.297-7.294-4.753-.886-8.984-.464-11.765.74-2.82 1.22-1.568 3.496.646 2.646 2.213-.85 6.215-1.589 10.022-.804 3.807.784 9.656 5.28 13.297 7.293 3.64 2.014 5.62 2.43 8.262 2.97.43-.974.45-1.845.194-2.647z" fill-rule="evenodd" stroke="#000" stroke-width=".09" />
   <path d="M342.023 158.93c-6.583 3.087-6.776 7.746-4.569 11.193 1.302 2.607 4.236 2.024 5.082.718.89-1.375 1.725-3.192 2.907-4.981 10.24-13.118 8.816-16.683 8.849-17.152.057-.823-2.01-6.596-5.616-6.287-3.7.317-12.733 5.174-4.854 14.128 1.714 1.918-.123 3.653-1.972 6.08m2.11-11.909c5.317 1.27 4.122 6.283-.768 13.42-3.578 2.046-4.546 3.107-4.268 2.392.288-.738.09-1.878 3.018-3.902" fill="none" stroke="#000" stroke-width=".759" />
   <g>
      <path d="M210.945-175.397h26.425v12.196h-26.425v-12.196z" fill="#fac53a" fill-rule="evenodd" stroke="#000" stroke-width=".224" transform="matrix(1.16847 0 0 1.17404 92.157 475.328)" />
      <path d="M212.585-174.204l22.881.104M212.575-172.066l22.88.104M212.65-170.091l22.88.104M212.639-168.192l22.881.103M212.79-166.22l22.875-.054M212.706-164.24l22.95-.215" fill="none" stroke="#c13c1b" stroke-width=".665" stroke-linecap="round" stroke-linejoin="round" transform="matrix(1.16847 0 0 1.17404 92.157 475.328)" />
   </g>
   <path d="M332.23 154.713c-6.917-.834-8.766-.891-14.523-3.098-7.665-2.665-16.398-6.125-20.332.581-1.726 2.73-3.068 3.73 1.097 3.421 10.738 2.493 13.171.047 18.009-.968 3.602.622 9.454 1.936 15.233 3.227.485-.976.718-2.015.516-3.163z" fill-rule="evenodd" stroke="#000" stroke-width=".09" />
   <path d="M304.367 203.092c-4.6-1.96-10.718-4.15-12.47-6.108-4.899 20.764-3.308 47.67-26.925 44.205-.494-.06-.954-.084-1.34.12-3.468 2.962-2.051 9.818 10.356 7.83 21.579-3.458 25.372-33.65 30.379-46.047z" fill-rule="evenodd" stroke="#000" stroke-width=".266" />
   <path d="M310.952 150.38c-3.851-1.615-7.537-2.474-10.544-.228.25 2.096.96 3.801 2.784 4.564 2.181.495 5.907.296 7.258-.913 1.35-1.21 1.716-2.821.502-3.423z" fill="none" stroke="#000" stroke-width=".09" />
   <path d="M315.16 153.15c-1.69-.475-2.622-1.1-3.742-1.689.167 1.182-.367 1.896-.913 2.602.608.228 3.865-.686 4.655-.913zM300.45 151.061c-1.274 1.446-1.69 2.042-1.913 3.472 1.765-.197 3.232.525 4.61.183-1.793-1.156-2.473-2.017-2.698-3.655z" fill="#fff" fill-rule="evenodd" stroke="#000" stroke-width=".09" />
   <path d="M301.173 185.342c-3.8-1.653-7.635.63-11.137 1.323m-.867-7.53c4.447-1.874 7.914 2.615 11.09 2.099" fill="none" stroke="#000" stroke-width=".25" />
   <path d="M292.969 169.002c4.63 3.753 2.142 6.075-.046 5.979-2.165-.096-5.292-3.776-6.07-1.712-.787 2.085 3.51 1.343 3.446.754M300.86 183.15c-.319-.09-9.995-.09-9.995-.09" fill="none" stroke="#000" stroke-width=".425" />
   <path d="M290.577 174.074c-1.648-.973-3.245-2.199-3.771-.805-.786 2.085 3.51 1.343 3.446.754" fill-opacity=".706" fill-rule="evenodd" stroke="#000" stroke-width=".09" />
   <path d="M360.42 66.916c2.427.01 6.144.812 7.232 1.665.887.696.752 1.142-.97 1.022-1.586-.09-7.17-.22-8.813.066-3.086.536-5.927 1.795-7.976 4.056-2.049 2.26-4.214 5.476-4.19 10.071v.007l.628 42.186-3.327.013-.628-42.193c.375-10.79 9.95-17.579 18.044-16.893z" fill-rule="evenodd" />
   <path d="M344.846 82.953h-2.191c-1.045-.068-1.166 1.852 0 1.866h2.272M344.846 85.635h-2.191c-1.045-.068-1.166 1.853 0 1.866h2.272M344.846 88.317h-2.191c-1.045-.067-1.166 1.853 0 1.866h2.272M344.846 91.268h-2.191c-1.045-.068-1.166 1.852 0 1.866h2.272M344.846 93.95h-2.191c-1.045-.067-1.166 1.853 0 1.866h2.272M344.846 96.633h-2.191c-1.045-.068-1.166 1.852 0 1.866h2.272M344.846 99.673h-2.191c-1.045-.068-1.166 1.852 0 1.866h2.272M344.846 102.355h-2.191c-1.045-.068-1.166 1.853 0 1.866h2.272M344.846 105.037h-2.191c-1.045-.067-1.166 1.853 0 1.866h2.272M344.846 108.167h-2.191c-1.045-.068-1.166 1.852 0 1.866h2.272M344.846 110.85h-2.191c-1.045-.069-1.166 1.852 0 1.865h2.272M344.846 113.531h-2.191c-1.045-.067-1.166 1.853 0 1.867h2.272M345.114 116.46h-2.19c-1.046-.067-1.166 1.853 0 1.866h2.27M345.114 119.143h-2.19c-1.046-.068-1.166 1.852 0 1.866h2.27M345.114 121.825h-2.19c-1.046-.068-1.166 1.853 0 1.866h2.27M345.383 80.503l-2.074-.704c-.968-.4-1.7 1.38-.6 1.767l2.152.73M346.187 78.268l-1.924-1.047c-.885-.559-1.91 1.07-.892 1.639l1.995 1.086" fill-rule="evenodd" stroke="#000" stroke-width=".227" />
   <g>
      <path d="M386.64 122.31l-22.012 60.232-9.276-3.946 26.88-59.131c-17.93 5.885-53.541 3.54-77.72 1.827l3.697-5.353c34.89 3.526 67.357.657 73.334-1.471" fill="#fff" fill-rule="evenodd" stroke="#000" stroke-width=".2159234" stroke-linecap="round" stroke-linejoin="round" />
      <path d="M382.84 114.648c.322-.26.424-.482.439-.69 2.447-9.191 7.694-8.94 9.574-7.464 5.03 4.39-.16 6.523-4.496 12.432l39.786 54.996-8.085 4.453-33.851-57.168-22.659 60.795-7.193-3.02 27.369-60.94c-15.862 6.755-54.056 4.404-78.889 2.547l2.583-3.911c35.047 3.54 69.433.103 75.423-2.03z" fill="#c13c1b" fill-rule="evenodd" />
      <path d="M385.908 120.656c-2.651-4.644-3.227-4.918-2.69-6.695 2.776-9.204 7.64-8.943 9.519-7.467 5.03 4.39-.16 6.523-4.495 12.432l40.09 55.03-8.377 4.45c-11.314-19.265-20.404-33.848-34.047-57.75z" fill="none" stroke="#000" stroke-width=".2159234" stroke-linecap="round" stroke-linejoin="round" />
      <path d="M387.946 116.105c-1.047-2.638.19-4.871 1.735-5.754" fill="none" stroke="#000" stroke-width=".2159234" />
   </g>
   <g fill-rule="evenodd" stroke="#000" stroke-linecap="round" stroke-linejoin="round">
      <path d="M209.943 278.638l29.749 29.566 20.004-20.63-30.254-29.804-19.499 20.868z" fill="#fac53a" stroke-width=".49124" />
      <path d="M213.328 275.169l29.516 30.23 5.666-6.004-30.107-29.046-5.075 4.82zM221.346 266.643l30.238 29.304 6.227-6.51-30.49-28.966-5.975 6.172z" fill="#04a" stroke-width=".49124" />
   </g>
   <g>
      <path d="M594.588 250.52c3.92-.157 46.425.94 48.333-5.278 1.418-1.734 1.516-4.616-2.524-6.373 2.855-2.33 2.246-6.1-1.62-6.637 2.487-3.043 1.774-5.195-1.355-6.675 2.735-3.233 1.436-5.244-2.147-6.562 4.525.935 12.423-1.484 8.789-9.198l-7.467 2.41c-20.486-3.188-34.794 5.96-45.056 14.805l-1.316 1.24" fill="#a13c2a" fill-rule="evenodd" stroke="#000" stroke-width=".5" stroke-linecap="round" stroke-linejoin="round" />
      <path d="M607.63 226.924c1.16-3.167 5.623-4.823 17.4-6.848l-6.292-7.558c-11.19 3.095-15.383 5.173-22.116 10.38" fill="#a13c2a" fill-rule="evenodd" />
      <path d="M613.66 222.747c-5.9 1.265-9.171 5.977-2.1 6.074-5.326.567-10.002 7.052.89 5.92-7.98 2.692-3.795 6.772 1.105 6.08-5.429 1.776-2.695 5.811 4.158 5.12 7.895.216 16.446-.129 24.73-.432.151-.008.294-.07.42-.253 1.417-1.734 1.657-4.451-2.383-6.209 2.855-2.33 2.246-6.1-1.62-6.637 2.487-3.042 1.774-5.194-1.355-6.675 2.735-3.232 2.19-5.149-1.393-6.467a3.737 3.737 0 00-.869-.068c-8.793.371-15.89 1.554-21.415 3.49m-1.21.398c1.467.747 2.094 3.379.376 5.468m-1.238.387c2.135.39 2.035 4.472.843 5.72m-.485.17c2.537.061 4.204 4.547.655 6.024m.89-.028c2.192.652 2.746 3.335 1.875 5.062m23.312-13.47c-.827.213-26.403 2.369-26.403 2.369m24.867-8.989c-1.413.106-25.82 3.058-25.82 3.058m28.91 10.23l-27.01 1.766" fill="#a13c2a" fill-rule="evenodd" stroke="#000" stroke-width=".5" stroke-linecap="round" stroke-linejoin="round" />
      <path d="M611.756 228.943c.372-.1.738.143 1.238-.387 2.138-2.509.162-5.212-.363-5.494-5.168 1.542-7.644 5.772-1.032 5.863-5.325.566-10.041 6.948.852 5.816-7.981 2.692-3.968 6.746.932 6.053-4.825 1.58-3.03 4.968 2.176 5.154.846-1.784.292-4.467-2.175-5.117 3.276-1.474 1.267-5.937-1.027-6.083 1.434-1.333 1.534-5.414-.601-5.805z" fill="#fff" fill-rule="evenodd" stroke="#000" stroke-width=".5" stroke-linecap="round" stroke-linejoin="round" />
      <path d="M625.03 220.076c-11.777 2.025-16.336 3.774-17.495 6.941m-10.813-4.15c6.734-5.208 10.841-7.477 22.229-10.369" fill="none" stroke="#000" stroke-width=".5" />
   </g>
   <g fill-rule="evenodd" stroke="#000" stroke-linecap="round" stroke-linejoin="round">
      <path d="M575.921 243.584l22.606 22.467 15.202-15.677-22.99-22.647-14.818 15.857z" fill="#fac53a" stroke-width=".37329" />
      <path d="M578.493 240.947l22.43 22.972 4.305-4.562-22.879-22.072-3.856 3.662zM584.586 234.47l22.978 22.267 4.732-4.947-23.17-22.012-4.54 4.691z" fill="#04a" stroke-width=".37329" />
   </g>
   <g fill-rule="evenodd" stroke="#000" stroke-linecap="round" stroke-linejoin="round">
      <path d="M495.077 278.638l-29.748 29.566-20.005-20.63 30.254-29.804 19.5 20.868z" fill="#fac53a" stroke-width=".49124" />
      <path d="M491.693 275.169l-29.516 30.23-5.666-6.004 30.107-29.046 5.075 4.82zM483.674 266.643l-30.238 29.304-6.226-6.51 30.49-28.966 5.974 6.172z" fill="#04a" stroke-width=".49124" />
   </g>
   <rect ry="0" y="655.702" x="113.756" height="59.206" width="472.904" style="marker:none" color="#000" fill="#308d57" fill-rule="evenodd" stroke="#000" stroke-width="1.974" stroke-linecap="round" stroke-linejoin="round" overflow="visible" />
   <path d="M537.202 352.374c-.174 4.873-2.206 9.282-4.24 13.691a82.137 82.137 0 01-3.157 5.561c-3.433 4.647-7.119 3.887-9.883 0-7.729-10.493-15.145-20.746-17.012-34.28-3.592-26.029 9.09-30.062 20.228-30.453l5.99-7.136c-1.478-.02-2.705.03-4.094.018-15.247-.138-37.754 2.245-28.39 39.74 4.307 17.246 14.807 30.809 23.278 43.175h0l-28.47-.868c1.349 5.382 1.219 6.976 0 12.358l28.47-.243h0l-3.019 75.145c6.006-1.962 10.927-1.212 15.664 0l-2.762-75.145 28.712.243c-1.094-5.382-1.464-6.976 0-12.358l-28.712.868h0c5.168-9.237 10.877-17.396 15.716-28.217l6.77-17.456" fill="#025" fill-rule="evenodd" stroke="#000" stroke-width=".477" stroke-linecap="round" stroke-linejoin="round" />
   <path d="M164.31 691.36h364.664M164.31 703.481h364.664M164.31 666.106h364.664M164.31 678.733h364.664" fill="none" stroke="#000" stroke-width="3" />
   <g transform="translate(-959.99 -242.31)" stroke="#000">
      <rect ry="0" y="898.254" x="1286.021" height="59.079" width="57.944" style="marker:none" color="#000" fill="#fac53a" fill-rule="evenodd" stroke-width="1.977" stroke-linecap="round" stroke-linejoin="round" overflow="visible" />
      <g fill="none" stroke-width="2.026">
         <path d="M1310.556 900.96v54.055M1301.974 900.96v54.055M1293.393 900.96v54.055M1336.607 900.96v54.055M1328.025 900.96v54.055M1319.444 900.96v54.055" />
      </g>
   </g>
   <g transform="translate(-1172.754 -242.31)" stroke="#000">
      <rect ry="0" y="898.254" x="1286.021" height="59.079" width="57.944" style="marker:none" color="#000" fill="#fac53a" fill-rule="evenodd" stroke-width="1.977" stroke-linecap="round" stroke-linejoin="round" overflow="visible" />
      <g fill="none" stroke-width="2.026">
         <path d="M1310.556 900.96v54.055M1301.974 900.96v54.055M1293.393 900.96v54.055M1336.607 900.96v54.055M1328.025 900.96v54.055M1319.444 900.96v54.055" />
      </g>
   </g>
   <g transform="translate(-755.94 -242.31)" stroke="#000">
      <rect style="marker:none" width="57.944" height="59.079" x="1286.021" y="898.254" ry="0" color="#000" fill="#fac53a" fill-rule="evenodd" stroke-width="1.977" stroke-linecap="round" stroke-linejoin="round" overflow="visible" />
      <g fill="none" stroke-width="2.026">
         <path d="M1310.556 900.96v54.055M1301.974 900.96v54.055M1293.393 900.96v54.055M1336.607 900.96v54.055M1328.025 900.96v54.055M1319.444 900.96v54.055" />
      </g>
   </g>
   <g>
      <path d="M566.084 455.537l29.657-.133 2.9 8.385-35.44-.038 2.883-8.214z" fill="#308d57" fill-rule="evenodd" />
      <path d="M568.395 446.01l25.173.015 1.803 8.286-28.85-.151 1.874-8.15z" fill="#04a" fill-rule="evenodd" />
      <path d="M569.681 436.59l22.663.035 1.009 8.091-24.765-.001 1.093-8.125z" fill="#c13c1b" fill-rule="evenodd" />
      <path d="M570.355 427.532l21.303.029.525 7.857-22.332-.13.504-7.756z" fill="#04a" fill-rule="evenodd" />
      <path d="M570.85 418.6l20.324.004.403 7.57-21.079-.015.352-7.56z" fill="#308d57" fill-rule="evenodd" />
      <path d="M571.173 409.757l19.65-.015.337 7.55-20.205-.04.218-7.495z" fill="#04a" fill-rule="evenodd" />
      <path d="M571.459 401.052l19.042.002.256 7.398-19.498-.101.2-7.299z" fill="#c13c1b" fill-rule="evenodd" />
      <path d="M568.667 444.587h24.687l.161 1.515h-25.161l.313-1.515zM566.5 454.057h28.907l.352 1.515h-29.686l.428-1.515zM569.842 435.224h22.318l.161 1.515h-22.64l.16-1.515zM570.507 426.077h21.063l.086 1.515h-21.29l.141-1.515zM570.964 417.144h20.207l.028 1.515h-20.396l.161-1.515zM571.23 408.32h19.541l.047 1.515h-19.673l.085-1.515z" fill="#fac53a" fill-rule="evenodd" stroke="#000" stroke-width=".150665" />
      <path d="M571.668 390.437h18.456l.257 9.391h-18.874l.16-9.391z" fill="#fac53a" fill-rule="evenodd" />
      <path d="M571.478 399.645h18.97l.066 1.515h-19.103l.067-1.515z" fill="#fac53a" fill-rule="evenodd" stroke="#000" stroke-width=".150665" />
      <path d="M598.643 463.725c-6.835-17.47-6.84-27.03-8.503-73.21h-18.426c-1.206 46.18-1.667 55.74-8.503 73.21M603.487 463.81h-46.42" fill="none" stroke="#000" stroke-width=".30133" />
      <g transform="translate(508.25 308.063) scale(.34522)" stroke-linecap="round" stroke-linejoin="round">
         <rect style="marker:none" width="114.02" height="5.52" x="153.396" y="181.602" ry="2.298" color="#000" fill="#fac53a" fill-rule="evenodd" stroke="#000" stroke-width=".436" overflow="visible" />
         <rect ry="2.298" y="206.852" x="153.396" height="5.52" width="114.02" style="marker:none" color="#000" fill="#fac53a" fill-rule="evenodd" stroke="#000" stroke-width=".436" overflow="visible" />
         <rect style="marker:none" width="114.129" height="5.52" x="153.396" y="156.352" ry="2.298" color="#000" fill="#fac53a" fill-rule="evenodd" stroke="#000" stroke-width=".436" overflow="visible" />
         <rect ry="2.298" y="128.102" x="153.396" height="5.52" width="114.395" style="marker:none" color="#000" fill="#fac53a" fill-rule="evenodd" stroke="#000" stroke-width=".436" overflow="visible" />
         <path style="marker:none" d="M172.534 133.654l77.075-.042c-6.818 2.033-11.965 11.967-12.078 22.75l-53.772-.08c-.222-10.732-6.982-19.757-11.225-22.628z" color="#000" fill="#04a" fill-rule="evenodd" stroke="#000" stroke-width=".23" overflow="visible" />
         <path d="M175.531 161.862h70c-5.568 4.033-7.637 14.136-8 19.67H183.76c-.972-7.732-3.985-16.798-8.228-19.67z" style="marker:none" color="#000" fill="#c13c1b" fill-rule="evenodd" stroke="#000" stroke-width=".23" overflow="visible" />
         <path style="marker:none" d="M175.531 187.15h70c-5.068 5.033-7.137 14.156-8 19.69h-54c-.722-6.482-3.257-15.068-8-19.69z" color="#000" fill="#04a" fill-rule="evenodd" stroke="#000" stroke-width=".23" overflow="visible" />
         <path d="M175.531 212.454h70c-6.818 2.033-7.887 15.598-8 26.382h-54c-.222-10.732-3.757-23.51-8-26.382z" style="marker:none" color="#000" fill="#308d57" fill-rule="evenodd" stroke="#000" stroke-width=".23" overflow="visible" />
         <g fill="none" stroke="#fff" stroke-width="1.5" stroke-opacity=".706">
            <path d="M210.541 188.278v17.324M206.74 188.278l.62 17.324M202.144 188.278c1.034 3.388 1.768 9.251 1.856 17.324M197.636 188.278c.92 2.327 2.075 9.428 2.652 17.324M192.863 188.278c1.375 2.946 3.012 9.87 3.713 17.324M188.532 188.278c1.87 3.388 3.123 8.102 4.155 17.324M184.29 188.278c2.383 3.798 3.564 9.926 4.861 17.324M179.605 188.454c3.919 4.943 5.024 11.058 6.187 17.148M218.673 188.278c-.659 4.013-1.393 8.626-1.856 17.324M223.18 188.278c-.919 2.327-2.074 9.428-2.651 17.324M227.954 188.278c-1.375 2.946-3.012 9.87-3.713 17.324M232.285 188.278c-1.87 3.388-3.123 8.102-4.155 17.324M236.527 188.278c-2.384 3.798-3.564 9.926-4.861 17.324M241.212 188.454c-3.919 4.943-5.024 11.058-6.187 17.148M214.519 188.278l-.796 17.324" />
         </g>
         <g fill="none" stroke="#fff" stroke-width="1.5" stroke-opacity=".706">
            <path d="M210.541 213.528v23.574M206.74 213.528l.62 23.574M202.144 213.528c1.034 4.61 1.768 12.589 1.856 23.574M197.636 213.528c.92 3.167 2.075 12.83 2.652 23.574M192.863 213.528c1.375 4.009 3.012 13.43 3.713 23.574M188.532 213.528c1.87 4.61 3.123 11.025 4.155 23.574M184.29 213.528c2.383 5.168 3.564 13.506 4.861 23.574M179.605 213.768c3.919 6.726 5.024 15.046 6.187 23.334M218.673 213.528c-1.034 4.61-1.768 12.589-1.856 23.574M223.18 213.528c-.919 3.167-2.074 12.83-2.651 23.574M227.954 213.528c-1.375 4.009-3.012 13.43-3.713 23.574M232.285 213.528c-1.87 4.61-3.123 11.025-4.155 23.574M236.527 213.528c-2.384 5.168-3.564 13.506-4.861 23.574M240.712 213.518c-3.919 6.726-4.524 15.296-5.687 23.584M214.519 213.528l-.796 23.574" />
         </g>
         <g fill="none" stroke="#fff" stroke-width="1.5" stroke-opacity=".706">
            <path d="M210.541 163.028v17.324M206.74 163.028l.62 17.324M202.144 163.028c1.034 3.388 1.768 9.251 1.856 17.324M197.636 163.028c.92 2.327 2.075 9.428 2.652 17.324M192.863 163.028c1.375 2.946 3.012 9.87 3.713 17.324M188.532 163.028c1.87 3.388 3.123 8.102 4.155 17.324M184.29 163.028c2.383 3.798 3.564 9.926 4.861 17.324M179.605 163.204c3.919 4.943 5.024 11.058 6.187 17.148M219.048 163.028c-.886 3.388-1.663 9.251-2.231 17.324M223.18 163.028c-.919 2.327-2.074 9.428-2.651 17.324M227.954 163.028c-1.375 2.946-3.012 9.87-3.713 17.324M232.285 163.028c-1.87 3.388-3.123 8.102-4.155 17.324M236.527 163.028c-2.384 3.798-3.564 9.926-4.861 17.324M241.212 163.204c-3.919 4.943-5.024 11.058-6.187 17.148M214.519 163.028l-.796 17.324" />
         </g>
         <g fill="none" stroke="#fff" stroke-width="1.5" stroke-opacity=".706">
            <path d="M210.541 135.028v19.824M206.74 135.028l.62 19.824M202.144 135.028c1.034 3.877 1.768 10.586 1.856 19.824M197.636 135.028c.92 2.663 2.075 10.788 2.652 19.824M192.863 135.028c1.375 3.371 3.012 11.294 3.713 19.824M188.532 135.028c1.87 3.877 3.123 9.271 4.155 19.824M184.29 135.028c2.383 4.346 3.564 11.358 4.861 19.824M178.48 135.23c4.169 4.03 6.149 12.653 7.312 19.622M218.673 135.028c-.534 3.627-1.143 9.836-1.856 19.824M223.18 135.028c-.919 2.663-2.074 10.788-2.651 19.824M227.954 135.028c-1.375 3.371-3.012 11.294-3.713 19.824M232.285 135.028c-1.87 3.877-3.123 9.271-4.155 19.824M236.527 135.028c-2.384 4.346-3.564 11.358-4.861 19.824M242.087 135.23c-3.544 3.28-5.899 12.653-7.062 19.622M214.519 135.028l-.796 19.824" />
         </g>
         <rect style="marker:none" width="134.3" height="6.575" x="141.383" y="448.232" ry="2.737" color="#000" fill="#fac53a" fill-rule="evenodd" stroke="#000" stroke-width=".873" overflow="visible" />
      </g>
      <path d="M572.431 391.484h16.85" fill="none" stroke="#c13c1b" stroke-width=".30343930999999996" stroke-linecap="round" stroke-linejoin="round" />
      <path d="M572.39 392.534h16.932" fill="none" stroke="#c13c1b" stroke-width=".3043433" stroke-linecap="round" stroke-linejoin="round" />
      <path d="M572.348 393.576h17.015" fill="none" stroke="#c13c1b" stroke-width=".30494596" stroke-linecap="round" stroke-linejoin="round" />
      <path d="M572.307 394.612h17.098" fill="none" stroke="#c13c1b" stroke-width=".30584995" stroke-linecap="round" stroke-linejoin="round" />
      <path d="M572.265 395.641h17.181" fill="none" stroke="#c13c1b" stroke-width=".30645260999999996" stroke-linecap="round" stroke-linejoin="round" />
      <path d="M572.224 396.663h17.264" fill="none" stroke="#c13c1b" stroke-width=".3073566" stroke-linecap="round" stroke-linejoin="round" />
      <path d="M572.182 397.686h17.347" fill="none" stroke="#c13c1b" stroke-width=".30795926" stroke-linecap="round" stroke-linejoin="round" />
      <path d="M572.14 398.708h17.43" fill="none" stroke="#c13c1b" stroke-width=".30886325" stroke-linecap="round" stroke-linejoin="round" />
   </g>
   <path d="M460.276 377.892c.536-5.325-.302-10 1.885-16.474 2.668-7.901 5.334-9.271 8.441-13.423 1.178-.962 3.115.043 2.48 1.872-3.604 3.357-6.177 7.941-7.228 10.557 1.082-.122 6.288-.521 6.405 4.874l-.018 81.143c5.797 6.652.814 11.765 1.126 17.545-.593.285-1.063.103-1.123-.401-.776-6.325 1.38-9.083-.039-12.372-.679-1.572-1.949-1.499-2.69-.16-1.594 2.884.64 4.658.057 12.47-.042.57-.739.733-1.023.392-.363-5.806-4.377-10.7.936-17.48l-.006-80.697c-.3-3.01-3.556-3.332-5.173.069-1.896 3.987-1.092 8.12-1.6 12.18-.842 2.613-2.573 1.606-2.43-.095z" fill="#025" fill-rule="evenodd" stroke="#000" stroke-width=".16" stroke-linecap="round" stroke-linejoin="round" />
   <path d="M76.963 247.177h4.375c2.087-.135 2.329 3.7 0 3.727h-4.537" fill-rule="evenodd" stroke="#000" stroke-width=".454" />
   <path d="M74.79 249.561v-3.214l5.648.09v4.084l-5.647-.96z" fill-rule="evenodd" stroke="#000" />
   <path d="M626.693 247.177h-4.375c-2.086-.135-2.328 3.7 0 3.727h4.537" fill-rule="evenodd" stroke="#000" stroke-width=".454" />
   <path d="M628.866 249.561v-3.214l-5.648.09v4.084l5.648-.96z" fill-rule="evenodd" stroke="#000" />
   <g stroke="#000" stroke-linecap="round" stroke-linejoin="round">
      <path d="M112.094 551.384h477.171l1.41.704c-23.42 41.882-47.146 84.421-121.989 104.114l-241.209-.214c-67.146-18.46-97.236-57.958-115.383-104.605z" fill="#308d57" fill-rule="evenodd" stroke-width="1.974" />
      <path style="marker:none" color="#000" fill="#308d57" fill-rule="evenodd" stroke-width="4" overflow="visible" d="M356.544 575.295l28.166 28.166-28.166 28.165-28.165-28.165z" />
      <path style="marker:none" color="#000" fill="none" stroke-width="4" overflow="visible" d="M356.835 553.316l50.143 50.143-50.143 50.143-50.143-50.143z" />
      <path style="marker:none" d="M335.622 653.602l-50.143-50.143 50.143-50.143" color="#000" fill="none" stroke-width="4" overflow="visible" />
      <path d="M316.934 653.602l-50.143-50.143 50.143-50.143" style="marker:none" color="#000" fill="none" stroke-width="4" overflow="visible" />
      <path d="M299.256 653.602l-50.143-50.143 50.143-50.143" style="marker:none" color="#000" fill="none" stroke-width="4" overflow="visible" />
      <path style="marker:none" d="M280.568 653.602l-50.143-50.143 50.143-50.143" color="#000" fill="none" stroke-width="4" overflow="visible" />
      <path d="M261.375 653.602l-50.142-50.143 50.142-50.143" style="marker:none" color="#000" fill="none" stroke-width="4" overflow="visible" />
      <path style="marker:none" d="M242.688 653.602l-50.143-50.143 50.143-50.143" color="#000" fill="none" stroke-width="4" overflow="visible" />
      <path style="marker:none" d="M225.01 653.602l-50.143-50.143 50.143-50.143" color="#000" fill="none" stroke-width="4" overflow="visible" />
      <path d="M191.953 639.233l-35.774-35.774 50.143-50.143M143.796 599.68l46.364-46.364M135.434 589.354l36.038-36.038M128.25 578.86l25.544-25.544M120.65 567.772l14.456-14.456M379.423 653.602l50.143-50.143-50.143-50.143" style="marker:none" color="#000" fill="none" stroke-width="4" overflow="visible" />
      <path style="marker:none" d="M398.11 653.602l50.144-50.143-50.143-50.143" color="#000" fill="none" stroke-width="4" overflow="visible" />
      <path style="marker:none" d="M415.788 653.602l50.143-50.143-50.143-50.143" color="#000" fill="none" stroke-width="4" overflow="visible" />
      <path d="M434.476 653.602l50.143-50.143-50.143-50.143" style="marker:none" color="#000" fill="none" stroke-width="4" overflow="visible" />
      <path style="marker:none" d="M453.67 653.602l50.142-50.143-50.143-50.143" color="#000" fill="none" stroke-width="4" overflow="visible" />
      <path d="M472.357 653.602l50.143-50.143-50.143-50.143" style="marker:none" color="#000" fill="none" stroke-width="4" overflow="visible" />
      <path d="M502.582 641.054l37.595-37.595-50.142-50.143M555.38 599.974l-46.658-46.658M562.83 591.261l-37.945-37.945M570.028 579.77l-26.455-26.454M576.467 568.533l-15.217-15.217M584.35 557.728l-4.412-4.412" style="marker:none" color="#000" fill="none" stroke-width="4" overflow="visible" />
   </g>
   <g stroke="#000" stroke-linecap="round" stroke-linejoin="round">
      <path d="M447.458 465.842h154.643l.456.229c-7.59 13.573-15.279 27.359-39.534 33.74-28.203 6.952-53.764 5.317-78.171-.069-21.76-5.982-31.513-18.782-37.394-33.9z" fill="#308d57" fill-rule="evenodd" stroke-width=".63973392" />
      <path style="marker:none" color="#000" fill="none" stroke-width="1.29632" overflow="visible" d="M526.68 473.592l9.128 9.127-9.128 9.128-9.128-9.128z" />
      <path style="marker:none" color="#000" fill="none" stroke-width="1.29632" overflow="visible" d="M526.774 466.469l16.25 16.25-16.25 16.25-16.25-16.25z" />
      <path d="M524.72 503.255l-21.071-20.536 16.25-16.25" style="marker:none" color="#000" fill="none" stroke-width="1.29632" overflow="visible" />
      <path style="marker:none" d="M518.894 503.515l-21.301-20.796 16.25-16.25" color="#000" fill="none" stroke-width="1.29632" overflow="visible" />
      <path style="marker:none" d="M512.155 503.136l-20.291-20.417 16.25-16.25" color="#000" fill="none" stroke-width="1.29632" overflow="visible" />
      <path d="M504.836 502.252l-19.029-19.533 16.25-16.25" style="marker:none" color="#000" fill="none" stroke-width="1.29632" overflow="visible" />
      <path style="marker:none" d="M497.605 500.99l-18.018-18.271 16.25-16.25" color="#000" fill="none" stroke-width="1.29632" overflow="visible" />
      <path d="M490.413 499.853l-16.882-17.134 16.25-16.25" style="marker:none" color="#000" fill="none" stroke-width="1.29632" overflow="visible" />
      <path d="M484.052 498.97l-16.25-16.251 16.25-16.25" style="marker:none" color="#000" fill="none" stroke-width="1.29632" overflow="visible" />
      <path style="marker:none" d="M473.339 494.312l-11.594-11.593 16.25-16.25M457.732 481.494l15.026-15.026M455.022 478.148l11.68-11.68M452.694 474.747l8.278-8.279M450.231 471.153l4.685-4.685M528.737 503.433l21.608-20.714-16.25-16.25" color="#000" fill="none" stroke-width="1.29632" overflow="visible" />
      <path d="M535.353 503.136l21.048-20.417-16.25-16.25" style="marker:none" color="#000" fill="none" stroke-width="1.29632" overflow="visible" />
      <path d="M541.84 502.631l20.29-19.912-16.25-16.25" style="marker:none" color="#000" fill="none" stroke-width="1.29632" overflow="visible" />
      <path style="marker:none" d="M548.906 501.62l19.28-18.901-16.25-16.25" color="#000" fill="none" stroke-width="1.29632" overflow="visible" />
      <path d="M556.389 500.484l18.018-17.765-16.25-16.25" style="marker:none" color="#000" fill="none" stroke-width="1.29632" overflow="visible" />
      <path style="marker:none" d="M564.213 498.97l16.25-16.251-16.25-16.25" color="#000" fill="none" stroke-width="1.29632" overflow="visible" />
      <path style="marker:none" d="M574.008 494.903l12.184-12.184-16.25-16.25M591.12 481.59l-15.122-15.122M593.533 478.766l-12.297-12.298M595.866 475.042l-8.574-8.574M597.953 471.4l-4.932-4.932M600.508 467.898l-1.43-1.43" color="#000" fill="none" stroke-width="1.29632" overflow="visible" />
   </g>
   <g>
      <g transform="translate(576.353 -312.758)">
         <path d="M-475.782 989.733a22.223 19.698 0 11-44.447 0 22.223 19.698 0 1144.447 0z" style="marker:none" color="#000" fill="#fff" fill-rule="evenodd" stroke="#000" stroke-linecap="round" stroke-linejoin="round" overflow="visible" />
         <path d="M-535.571 994.53c2.037-69.15 13.664-63.363 41.063-70.579 4.532-2.105 9.56-3.601 17.526-2.656.428 2.734 1.823 5.226-.253 8.586-6.474 8.152-10.125 17.837-12.374 27.274 4.267 2.189 3.633 5.388 2.273 6.566-33.049-7.15-37.793 18.037-41.417 31.062-1.767 3.989-6.566 2.52-6.818-.252z" fill="#308d57" fill-rule="evenodd" stroke="#000" stroke-width=".5" />
         <path d="M-528.929 994.684c5.576-26.086 10.277-46.609 28.215-51.786-14.14 6.076-13.06 13.086-7.796 16.726 4.38 3.03 10.945 3.121 20.653 3.988" fill="none" stroke="#000" />
         <path d="M-471.246 989.757c0 15.029-12.198 27.226-27.226 27.226-15.029 0-27.226-12.197-27.226-27.226s12.197-27.226 27.226-27.226c15.028 0 27.226 12.197 27.226 27.226zm-8.82.161c0 10.11-8.205 18.316-18.315 18.316-10.11 0-18.315-8.206-18.315-18.316s8.205-18.315 18.315-18.315c10.11 0 18.316 8.205 18.316 18.315z" style="marker:none" color="#000" fill="#fac53a" fill-rule="evenodd" stroke="#000" stroke-linecap="round" stroke-linejoin="round" overflow="visible" />
         <rect ry="4.107" y="1016.502" x="-526.48" height="11.112" width="55.053" style="marker:none" color="#000" fill="#fac53a" fill-rule="evenodd" stroke="#000" stroke-linecap="round" stroke-linejoin="round" overflow="visible" />
         <path d="M-491.844 1027.719h3v-20.706l-3 1.515c-4.698 2.11-9.35 3.111-13.812-.442l-3-1.578v21.21h3" fill="#fac53a" fill-rule="evenodd" />
         <path d="M-508.656 1005.056v22.663h3v-21.085l-3-1.578zM-503.29 1007.486v20.233h3v-19.633l-3-.6zM-497.647 1008.37v19.349h3v-19.79l-3 .441zM-491.844 1007.076v20.643h3v-22.158l-3 1.515z" fill-rule="evenodd" />
      </g>
      <path style="marker:none" d="M94.356 612.82a1.768 1.515 0 11-3.536 0 1.768 1.515 0 113.536 0z" color="#000" fill-rule="evenodd" stroke="#000" stroke-linecap="round" stroke-linejoin="round" overflow="visible" />
      <path d="M50.036 672.167c3.772-19.432 9.995-35.981 25.127-42.048-15.1 6.021-14.92 17.836.253 19.32-17.423 2.198-21.026 12.688-25.38 22.728z" fill-rule="evenodd" stroke="#000" />
   </g>
   <g>
      <g transform="matrix(-1 0 0 1 123.791 -312.758)">
         <path style="marker:none" d="M-475.782 989.733a22.223 19.698 0 11-44.447 0 22.223 19.698 0 1144.447 0z" color="#000" fill="#fff" fill-rule="evenodd" stroke="#000" stroke-linecap="round" stroke-linejoin="round" overflow="visible" />
         <path d="M-535.571 994.53c2.037-69.15 13.664-63.363 41.063-70.579 4.532-2.105 9.56-3.601 17.526-2.656.428 2.734 1.823 5.226-.253 8.586-6.474 8.152-10.125 17.837-12.374 27.274 4.267 2.189 3.633 5.388 2.273 6.566-33.049-7.15-37.793 18.037-41.417 31.062-1.767 3.989-6.566 2.52-6.818-.252z" fill="#308d57" fill-rule="evenodd" stroke="#000" stroke-width=".5" />
         <path d="M-528.929 994.684c5.576-26.086 10.277-46.609 28.215-51.786-14.14 6.076-13.06 13.086-7.796 16.726 4.38 3.03 10.945 3.121 20.653 3.988" fill="none" stroke="#000" />
         <path style="marker:none" d="M-471.246 989.757c0 15.029-12.198 27.226-27.226 27.226-15.029 0-27.226-12.197-27.226-27.226s12.197-27.226 27.226-27.226c15.028 0 27.226 12.197 27.226 27.226zm-8.82.161c0 10.11-8.205 18.316-18.315 18.316-10.11 0-18.315-8.206-18.315-18.316s8.205-18.315 18.315-18.315c10.11 0 18.316 8.205 18.316 18.315z" color="#000" fill="#fac53a" fill-rule="evenodd" stroke="#000" stroke-linecap="round" stroke-linejoin="round" overflow="visible" />
         <rect style="marker:none" width="55.053" height="11.112" x="-526.48" y="1016.502" ry="4.107" color="#000" fill="#fac53a" fill-rule="evenodd" stroke="#000" stroke-linecap="round" stroke-linejoin="round" overflow="visible" />
         <path d="M-491.844 1027.719h3v-20.706l-3 1.515c-4.698 2.11-9.35 3.111-13.812-.442l-3-1.578v21.21h3" fill="#fac53a" fill-rule="evenodd" />
         <path d="M-508.656 1005.056v22.663h3v-21.085l-3-1.578zM-503.38 1007.486v20.233h3v-19.633l-3-.6zM-497.715 1008.37v19.349h3v-19.79l-3 .441zM-491.844 1007.076v20.643h3v-22.158l-3 1.515z" fill-rule="evenodd" />
      </g>
      <path d="M605.789 612.82a1.515 1.768 90 103.535 0 1.515 1.768 90 10-3.535 0z" style="marker:none" color="#000" fill-rule="evenodd" stroke="#000" stroke-linecap="round" stroke-linejoin="round" overflow="visible" />
      <path d="M650.11 672.167c-3.773-19.432-9.996-35.981-25.128-42.048 15.1 6.021 14.92 17.836-.253 19.32 17.423 2.198 21.026 12.688 25.38 22.728z" fill-rule="evenodd" stroke="#000" />
   </g>
</svg>