<svg xmlns="http://www.w3.org/2000/svg" width="350" height="750" version="1.0">
   <path d="M282.191 518.49l-.318 12.766c.095 18.355.582 37.828 4.31 51.274l19.963 148.684 11.5-1.278c-8.627-49.764-10.435-98.164-15.652-147.246-3.143-32.217-9.811-23.013-19.803-64.2z" fill="#fac53a" fill-rule="evenodd" stroke="#c13c1b" stroke-width=".447" />
   <path d="M314.524 231.945h-31.168m31.733 9.373l-31.281.452" fill="none" stroke="#000" stroke-width=".224" />
   <path d="M230.341 168.977l41.094.725c20.048 6.358 36.046 13.866 42.271 35.687 2.247 12.548.185 16.995.959 26.51l.638 9.902c1.376 21.36 1.94 42.881.32 64.84-1.3 19.058 2.79 39.393 3.194 58.451-.65 15.98-4.526 27.832-5.27 41.803l-19.963-1.558c-9.165-51.642-3.87-68.542-6.069-92.308-3.33-28.994-3.342-57.157-4.472-85.601-12.307 22.203-25.182 43.65-32.26 72.825v4.83l6.708 30.943c3.6 5.05 13.915 27.967 6.425 41.033 8.548 50.04 12.586 101.21 12.1 151.25l.64 16.29c1.358 22.188 10.279 44.386 9.9 68.672-.377 24.286-4.752 48.055-7.984 71.228-1.225 26.723 2.466 31.469 1.542 41.216-.925 9.747-6.374 9.3-11.929 9.238-5.661-.064-11.155-1.022-11.35-4.753-5.847-1.641-14.099 5.103-74.744 2.753-2.625-.355-2.82-4.215-3.061-6.954 2.704-.739 5.507-1.08 8.51-.616 20.167-9.857 39.982-14.088 60.688-32.58.98-1.015 1.806-2.378 1.597-6.069-2.61-36.559-10.567-74.511-13.734-111.153l-.959-5.75c-2.8-7.155-5.28-16.23-8.624-20.122-1.356-7.453-1.918-14.906-6.707-22.358l-15.445-.32c-7.01 19.799-7.96 27.846-12.137 41.204-3.254 19.539-.337 27.836-4.998 43.439-4.7 15.732-14.744 36.154-22.677 51.424-4.864 13.104-11.561 26.94-13.788 39.048-.638 7.799.657 13.822-.267 23.569-.925 9.747-6.374 9.3-11.929 9.238-5.661-.064-11.155-1.022-11.35-4.753-5.847-1.641-14.099 5.103-74.744 2.753-2.625-.355-2.82-4.215-3.061-6.954 2.703-.739 5.507-1.08 8.51-.616 20.167-9.857 45.412-15.366 66.09-33.857 1.996-2.231 2.632-4.688 3.394-7.124l23.41-112.973c.03-11.445-1.419-22.32 3.833-35.774l.32-8.943 19.313-176.705-2.146-7.473c-2.74-6.323-.786-13.02-.878-18.965-2.294-17.819-5.918-35.305-9.902-52.702-2.521-5.868-4.853-12.923-6.73-20.336-1.852-.72-2.396-2.773-1.12-4.713-1.258-5.654-2.228-11.412-2.798-16.923l-.85-.19-1.266 11.419c-.493 2.768-.409 5.493-.886 8.214-3.565 20.347-7.244 40.435-19.633 76.335l-4.115 9.023c-9.329 27.023-22.97 47.983-37.111 68.237l-17.617-12.692c10.18-25.168 17.348-51.299 32.714-74.81l2.745-6.663c1.082-19.522 3.509-47.032 8.72-68.61l2.04-16.934c-5.779-26.758 6.662-44.61 30.373-48.573l38.532-7.868" fill="#a13c2a" fill-rule="evenodd" stroke="#000" stroke-width=".447" stroke-linecap="round" stroke-linejoin="round" />
   <path d="M284.891 529.145c-.462-2.725-1.684-5.658-2.078-8.808-4.418-35.373-5.084-95.82-15.6-142.177 3.038-8.426 1.85-17.998-.413-25.97-2.234-7.873-5.408-14.022-7.036-16.336-1.176-5.506-4.645-21.837-5.848-33.398a1.118 1.118 0 00-1.132-1.02h0a1.118 1.118 0 00-1.09 1.25c1.236 11.878 4.776 28.44 5.925 33.818.034.154.101.3.196.426 1.188 1.622 4.614 8.048 6.833 15.867 2.219 7.82 3.293 17.123.363 24.923-.075.203-.09.424-.042.636 8.845 38.783 10.77 87.802 13.857 123.684.9 10.46 2.818 19.925 3.199 27.454" fill="#fac53a" fill-rule="evenodd" stroke="#000" stroke-linecap="round" stroke-linejoin="round" stroke-width=".224" />
   <path d="M154.745 527.766l17.41-176.965 91.416-.922c1.198 4.863 6.217 14.815.48 27.47 7.903 49.979 12.825 100.613 11.76 150.293l-121.066.124z" fill="#fff" fill-rule="evenodd" stroke="#000" stroke-width=".447" />
   <path d="M275.803 527.992c-93.566-15.728-110.626-86.262-103.648-177.19l85.233-15.067c8.086 13.446 12.767 31.726 6.69 41.557 7.923 50.096 12.82 100.904 11.725 150.7z" fill="#fac53a" fill-rule="evenodd" stroke="#000" stroke-width=".224" />
   <path d="M152.041 172.532l34.005-6.8 48.13-3.838 37.06 7.662c-6.965 35.15-30.802 47.719-58.419 48.331-26.156.578-38.372-6.14-46.913-15.21-8.118-8.621-12.43-22.146-13.863-30.145z" fill="#fff" fill-rule="evenodd" stroke="#000" stroke-linecap="round" stroke-linejoin="round" stroke-width=".281" />
   <path d="M166.246 169.69c5.126 25.348 19.913 34.74 47.165 33.667 27.319-1.075 40.916-18.61 42.582-35.632-.008-.23-.016-.567.12-1.167" style="marker:none" color="#000" fill="none" stroke="#04a" stroke-width="5.008" stroke-linejoin="round" overflow="visible" />
   <path d="M179.213 167.262c4.986 19.287 15.882 23.47 33.67 22.78 16.619-.642 29.472-11.535 29.35-25.2-.045-.52.027-.876.104-1.172" style="marker:none" color="#000" fill="none" stroke="#308d57" stroke-width="3.073" overflow="visible" />
   <path d="M170.715 169.084c3.746 17.753 13.169 31.022 42.367 29.743 25.416-1.113 37.61-18.306 38.098-32.673-.016-.065-.017-.368.047-.67" style="marker:none" color="#000" fill="none" stroke="#c13c1b" stroke-width="3.073" overflow="visible" />
   <path d="M183.441 166.314c2.524 8.42 5.342 21.008 29.432 19.185 15.781-1.195 24.121-10.606 24.717-19.386.048-.998.042-3.214.162-3.505" style="marker:none" color="#000" fill="none" stroke="#04a" stroke-width="4.507" overflow="visible" />
   <path d="M174.858 168.012c5.043 23.978 22.839 27.38 38.493 26.45 21.266-1.27 32.708-14.437 33.297-28.377.019-.255.015-1.21.136-1.597" style="marker:none" color="#000" fill="none" stroke="#04a" stroke-width="4.507" overflow="visible" />
   <path d="M157.773 171.544c5.57 26.909 20.577 41.575 54.528 40.367l.4-.015h.012c45.066-1.763 50.766-35.5 52.402-43.355" style="marker:none" color="#000" fill="none" stroke="#fac53a" stroke-width="11.24" overflow="visible" />
   <path d="M152.041 172.532l34.005-6.8 48.13-3.838 37.06 7.662c-6.965 35.15-30.802 47.719-58.419 48.331-26.156.578-38.372-6.14-46.913-15.21-8.118-8.621-12.43-22.146-13.863-30.145z" fill="none" stroke="#000" stroke-width=".562" stroke-linecap="round" stroke-linejoin="round" />
   <g fill="none" stroke="#c13c1b" stroke-width=".281">
      <path d="M225.969 212.995c-.653-1.991-.255-5.498.266-7.795 1.63 1.656 3.891 4.423 4.462 6.307 1.098 3.622-3.618 4.874-4.728 1.488z" />
      <path d="M226.58 212.754c-.484-1.475-.193-4.071.19-5.771 1.203 1.228 2.875 3.278 3.297 4.673.814 2.682-2.665 3.606-3.488 1.098z" />
      <path style="marker:none" d="M226.572 212.68a2.766 2.766 0 011.516-1.192c.841-.259 1.412-.1 1.887.111m-3.566-1.586c.248-.313.795-.618 1.064-.697.292-.085.912-.062 1.198.017" color="#000" stroke-linecap="round" stroke-linejoin="round" overflow="visible" />
   </g>
   <g fill="none" stroke="#c13c1b" stroke-width=".281">
      <path d="M220.061 213.893c-.456-2.046.279-5.497 1.02-7.733 1.461 1.806 3.445 4.779 3.83 6.71.743 3.71-4.072 4.5-4.85 1.023z" />
      <path d="M220.692 213.712c-.338-1.515.203-4.07.748-5.726 1.08 1.339 2.545 3.541 2.83 4.97.55 2.75-3.002 3.332-3.578.756z" />
      <path style="marker:none" d="M220.692 213.638c.212-.29.761-.863 1.624-1.04.863-.176 1.415.037 1.868.294m-3.396-1.925c.277-.287.852-.538 1.127-.59.298-.057.913.026 1.19.132" color="#000" stroke-linecap="round" stroke-linejoin="round" overflow="visible" />
   </g>
   <g fill="none" stroke="#c13c1b" stroke-width=".281">
      <path d="M231.994 211.374c-.847-1.917-.8-5.446-.51-7.784 1.786 1.487 4.312 4.015 5.067 5.833 1.452 3.495-3.116 5.21-4.557 1.95z" />
      <path d="M232.577 211.073c-.627-1.42-.596-4.032-.384-5.762 1.32 1.102 3.187 2.976 3.746 4.323 1.076 2.588-2.294 3.853-3.362 1.44z" />
      <path style="marker:none" d="M232.563 211a2.766 2.766 0 011.39-1.336c.811-.342 1.395-.24 1.889-.077m-3.707-1.225c.216-.335.73-.694.99-.799.282-.114.901-.152 1.194-.102" color="#000" stroke-linecap="round" stroke-linejoin="round" overflow="visible" />
   </g>
   <g fill="none" stroke="#c13c1b" stroke-width=".281">
      <path d="M208.21 214.432c-.038-2.096 1.374-5.33 2.548-7.372 1.07 2.062 2.418 5.372 2.409 7.34-.016 3.785-4.892 3.595-4.957.032z" />
      <path d="M208.865 214.381c-.028-1.552 1.013-3.947 1.88-5.46.788 1.528 1.783 3.979 1.776 5.437-.012 2.803-3.608 2.662-3.656.023z" />
      <path d="M208.88 214.308a2.766 2.766 0 011.799-.693c.88 0 1.379.32 1.77.662m-2.941-2.567c.329-.225.942-.355 1.222-.351.304.004.89.208 1.14.368" style="marker:none" color="#000" stroke-linecap="round" stroke-linejoin="round" overflow="visible" />
   </g>
   <g fill="none" stroke="#c13c1b" stroke-width=".281">
      <path d="M202.5 214.333c.045-2.096 1.583-5.272 2.837-7.267.987 2.104 2.204 5.464 2.118 7.43-.165 3.781-5.03 3.4-4.955-.163z" />
      <path d="M203.157 214.308c.033-1.552 1.168-3.905 2.093-5.382.728 1.557 1.625 4.046 1.562 5.502-.123 2.8-3.711 2.519-3.655-.12z" />
      <path style="marker:none" d="M203.174 214.236a2.763 2.763 0 011.825-.622c.88.034 1.366.373 1.744.73m-2.838-2.679c.337-.213.955-.32 1.235-.304.303.016.88.243 1.124.412" color="#000" stroke-linecap="round" stroke-linejoin="round" overflow="visible" />
   </g>
   <g fill="none" stroke="#c13c1b" stroke-width=".281">
      <path d="M214.188 214.4c-.272-2.078.769-5.45 1.707-7.61 1.294 1.93 3.004 5.067 3.216 7.024.407 3.763-4.46 4.12-4.923.587z" />
      <path d="M214.833 214.277c-.201-1.54.566-4.036 1.257-5.636.955 1.43 2.218 3.754 2.374 5.203.302 2.787-3.288 3.05-3.63.433z" />
      <path style="marker:none" d="M214.84 214.203c.237-.27.835-.792 1.71-.89.875-.099 1.406.163 1.834.459m-3.21-2.221c.301-.26.896-.46 1.175-.487.302-.03.907.108 1.173.239" color="#000" stroke-linecap="round" stroke-linejoin="round" overflow="visible" />
   </g>
   <g fill="none" stroke="#c13c1b" stroke-width=".281">
      <path d="M163.513 193.68c1.73-1.183 5.207-1.783 7.558-1.926-1.134 2.028-3.157 4.974-4.806 6.05-3.17 2.067-5.692-2.11-2.752-4.123z" />
      <path d="M163.915 194.2c1.281-.877 3.855-1.325 5.594-1.434-.842 1.5-2.342 3.678-3.563 4.475-2.348 1.531-4.208-1.55-2.03-3.042z" />
      <path d="M163.984 194.172a2.77 2.77 0 011.569 1.121c.484.736.491 1.328.421 1.843m.526-3.868c.369.15.815.591.966.827.164.256.315.858.32 1.154" style="marker:none" color="#000" stroke-linecap="round" stroke-linejoin="round" overflow="visible" />
   </g>
   <g fill="none" stroke="#c13c1b" stroke-width=".281">
      <path d="M160.794 188.774c1.838-1.008 5.357-1.264 7.711-1.176-1.328 1.907-3.63 4.64-5.376 5.55-3.357 1.746-5.458-2.658-2.335-4.374z" />
      <path d="M161.144 189.33c1.36-.747 3.966-.94 5.708-.877-.985 1.41-2.692 3.43-3.986 4.103-2.486 1.294-4.036-1.955-1.722-3.226z" />
      <path style="marker:none" d="M161.215 189.31c.338.122 1.041.49 1.451 1.27.41.779.36 1.368.239 1.875m.902-3.798c.353.186.754.668.88.918.138.27.23.884.205 1.18" color="#000" stroke-linecap="round" stroke-linejoin="round" overflow="visible" />
   </g>
   <g fill="none" stroke="#c13c1b" stroke-width=".281">
      <path d="M166.823 198.404c1.535-1.427 4.886-2.536 7.19-3.025-.821 2.174-2.386 5.387-3.857 6.694-2.829 2.515-5.942-1.242-3.333-3.67z" />
      <path d="M167.298 198.857c1.137-1.057 3.616-1.88 5.32-2.246-.61 1.608-1.772 3.985-2.861 4.953-2.095 1.862-4.392-.91-2.459-2.707z" />
      <path d="M167.362 198.82c.357.036 1.13.22 1.717.876.588.656.683 1.24.69 1.76m-.053-3.903c.387.095.894.464 1.078.675.2.23.439.802.487 1.095" style="marker:none" color="#000" stroke-linecap="round" stroke-linejoin="round" overflow="visible" />
   </g>
   <g fill="none" stroke="#c13c1b" stroke-width=".281">
      <path d="M156.799 178.125c2.012-.586 5.504-.072 7.783.526-1.71 1.573-4.551 3.741-6.453 4.249-3.656.977-4.751-3.778-1.33-4.775z" />
      <path d="M157.02 178.743c1.49-.434 4.075-.057 5.762.382-1.268 1.162-3.372 2.765-4.781 3.14-2.708.724-3.515-2.784-.981-3.522z" />
      <path style="marker:none" d="M157.094 178.738c.302.194.91.705 1.14 1.555.231.85.054 1.414-.173 1.883m1.704-3.512c.304.258.591.816.66 1.087.077.294.033.913-.056 1.196" color="#000" stroke-linecap="round" stroke-linejoin="round" overflow="visible" />
   </g>
   <g fill="none" stroke="#c13c1b" stroke-width=".281">
      <path d="M155.406 172.605c2.037-.498 5.502.167 7.753.862-1.777 1.498-4.708 3.541-6.63 3.966-3.696.817-4.584-3.98-1.123-4.828z" />
      <path d="M155.6 173.232c1.508-.369 4.074.12 5.74.632-1.316 1.106-3.488 2.615-4.912 2.93-2.737.605-3.391-2.934-.828-3.562z" />
      <path d="M155.674 173.23c.294.207.879.744 1.073 1.603.194.86-.008 1.416-.256 1.873m1.856-3.434c.292.271.555.84.613 1.115.062.297-.008.913-.109 1.192" style="marker:none" color="#000" stroke-linecap="round" stroke-linejoin="round" overflow="visible" />
   </g>
   <g fill="none" stroke="#c13c1b" stroke-width=".281">
      <path d="M158.53 183.62c1.947-.775 5.472-.596 7.797-.218-1.553 1.729-4.174 4.158-6.018 4.844-3.547 1.32-5.09-3.308-1.78-4.627z" />
      <path d="M158.808 184.214c1.443-.574 4.052-.445 5.772-.168-1.15 1.277-3.093 3.073-4.46 3.581-2.626.978-3.764-2.437-1.312-3.413z" />
      <path style="marker:none" d="M158.881 184.202c.32.164.973.615 1.284 1.439.31.824.188 1.403.006 1.89m1.363-3.658c.327.229.666.756.76 1.02.104.286.12.906.059 1.196" color="#000" stroke-linecap="round" stroke-linejoin="round" overflow="visible" />
   </g>
   <g fill="none" stroke="#c13c1b" stroke-width=".281">
      <path d="M175.356 206.148c1.065-1.805 3.961-3.821 6.03-4.947-.168 2.318-.752 5.843-1.79 7.516-1.996 3.216-6.05.501-4.24-2.569z" />
      <path d="M175.94 206.448c.79-1.337 2.93-2.833 4.46-3.668-.127 1.715-.563 4.324-1.332 5.563-1.478 2.381-4.469.378-3.128-1.895z" />
      <path d="M175.99 206.394a2.766 2.766 0 011.897.351c.75.461 1.007.994 1.163 1.491m-1.164-3.726c.399-.02.99.19 1.226.34.257.162.649.643.778.91" style="marker:none" color="#000" stroke-linecap="round" stroke-linejoin="round" overflow="visible" />
   </g>
   <g fill="none" stroke="#c13c1b" stroke-width=".281">
      <path d="M170.786 202.556c1.344-1.608 4.53-3.127 6.755-3.901-.543 2.26-1.693 5.643-2.989 7.125-2.491 2.848-6.05-.49-3.766-3.224z" />
      <path d="M171.314 202.947c.996-1.191 3.352-2.32 4.997-2.895-.404 1.672-1.259 4.175-2.219 5.272-1.845 2.11-4.47-.352-2.778-2.377z" />
      <path style="marker:none" d="M171.373 202.901a2.766 2.766 0 011.813.655c.666.577.833 1.145.905 1.66m-.541-3.866c.396.045.945.348 1.154.535.227.202.535.74.62 1.025" color="#000" stroke-linecap="round" stroke-linejoin="round" overflow="visible" />
   </g>
   <g fill="none" stroke="#c13c1b" stroke-width=".281">
      <path d="M180.388 208.966c.863-1.91 3.524-4.228 5.46-5.571.083 2.322-.116 5.89-.967 7.665-1.636 3.413-5.96 1.154-4.493-2.094z" />
      <path d="M181 209.2c.64-1.414 2.608-3.133 4.038-4.129.059 1.719-.092 4.36-.722 5.674-1.212 2.528-4.402.86-3.315-1.545z" />
      <path d="M181.046 209.14a2.766 2.766 0 011.922.145c.796.377 1.11.88 1.318 1.356m-1.56-3.578c.394-.063 1.004.081 1.256.205.272.134.714.57.872.82" style="marker:none" color="#000" stroke-linecap="round" stroke-linejoin="round" overflow="visible" />
   </g>
   <g fill="none" stroke="#c13c1b" stroke-width=".281">
      <path d="M191.252 212.756c.4-2.058 2.453-4.928 4.026-6.681.617 2.24 1.247 5.758.83 7.681-.804 3.698-5.534 2.498-4.856-1z" />
      <path d="M191.903 212.842c.296-1.524 1.813-3.65 2.974-4.95.454 1.659.917 4.263.608 5.688-.595 2.74-4.084 1.853-3.582-.738z" />
      <path style="marker:none" d="M191.932 212.774a2.766 2.766 0 011.904-.304c.862.184 1.283.6 1.595 1.016m-2.343-3.122c.368-.152.995-.152 1.269-.09.296.067.826.389 1.038.597" color="#000" stroke-linecap="round" stroke-linejoin="round" overflow="visible" />
   </g>
   <g fill="none" stroke="#c13c1b" stroke-width=".281">
      <path d="M185.763 211.19c.599-2.008 2.923-4.664 4.66-6.255.396 2.29.679 5.852.074 7.726-1.16 3.602-5.75 1.945-4.734-1.47z" />
      <path d="M186.403 211.34c.443-1.488 2.16-3.456 3.444-4.635.29 1.695.495 4.332.048 5.72-.86 2.668-4.245 1.445-3.492-1.085z" />
      <path d="M186.439 211.275a2.766 2.766 0 011.924-.116c.84.267 1.218.722 1.488 1.167m-2.027-3.336c.382-.116 1.006-.055 1.272.034.288.096.784.468.974.696" style="marker:none" color="#000" stroke-linecap="round" stroke-linejoin="round" overflow="visible" />
   </g>
   <g fill="none" stroke="#c13c1b" stroke-width=".281">
      <path d="M196.763 213.776c.179-2.088 1.916-5.16 3.294-7.071.852 2.162 1.852 5.593 1.64 7.55-.405 3.763-5.236 3.072-4.934-.479z" />
      <path d="M197.42 213.793c.132-1.547 1.415-3.823 2.432-5.238.627 1.601 1.364 4.142 1.208 5.591-.3 2.787-3.864 2.277-3.64-.353z" />
      <path style="marker:none" d="M197.442 213.722c.29-.213.985-.595 1.861-.504.876.09 1.339.46 1.694.84m-2.662-2.855c.35-.19.974-.258 1.252-.225.302.036.863.3 1.096.484" color="#000" stroke-linecap="round" stroke-linejoin="round" overflow="visible" />
   </g>
   <g fill="none" stroke="#c13c1b" stroke-width=".281">
      <path d="M243.026 206.643c-1.233-1.695-1.932-5.154-2.142-7.5 2.06 1.075 5.062 3.013 6.184 4.63 2.158 3.11-1.945 5.75-4.042 2.87z" />
      <path d="M243.533 206.226c-.913-1.256-1.434-3.815-1.593-5.551 1.523.799 3.744 2.236 4.575 3.434 1.598 2.302-1.429 4.25-2.982 2.117z" />
      <path d="M243.503 206.158c.08-.35.355-1.095 1.076-1.6.722-.506 1.313-.53 1.83-.475m-3.881-.413c.14-.374.568-.833.8-.99.25-.172.848-.34 1.144-.353" style="marker:none" color="#000" stroke-linecap="round" stroke-linejoin="round" overflow="visible" />
   </g>
   <g fill="none" stroke="#c13c1b" stroke-width=".281">
      <path d="M237.767 209.35c-1.081-1.795-1.478-5.301-1.484-7.657 1.958 1.25 4.782 3.44 5.76 5.149 1.88 3.284-2.435 5.56-4.276 2.509z" />
      <path d="M238.309 208.98c-.801-1.33-1.099-3.926-1.106-5.669 1.448.928 3.535 2.552 4.26 3.817 1.393 2.433-1.791 4.111-3.154 1.851z" />
      <path style="marker:none" d="M238.285 208.909c.11-.342.448-1.06 1.21-1.501.763-.441 1.354-.414 1.865-.314m-3.831-.749c.172-.36.637-.78.882-.917.265-.148.874-.264 1.17-.251" color="#000" stroke-linecap="round" stroke-linejoin="round" overflow="visible" />
   </g>
   <g fill="none" stroke="#c13c1b" stroke-width=".281">
      <path d="M248.048 203.343c-1.474-1.49-2.685-4.805-3.246-7.093 2.198.753 5.458 2.217 6.81 3.648 2.601 2.75-1.057 5.977-3.564 3.445z" />
      <path d="M248.487 202.854c-1.092-1.104-1.992-3.556-2.41-5.248 1.626.56 4.037 1.647 5.04 2.707 1.925 2.036-.774 4.417-2.63 2.54z" />
      <path style="marker:none" d="M248.447 202.79a2.766 2.766 0 01.823-1.743c.637-.608 1.219-.72 1.738-.744m-3.899.175c.082-.39.435-.908.64-1.1.223-.206.788-.462 1.08-.52" color="#000" stroke-linecap="round" stroke-linejoin="round" overflow="visible" />
   </g>
   <g fill="none" stroke="#c13c1b" stroke-width=".281">
      <path d="M256.69 194.996c-1.825-1.032-3.895-3.89-5.058-5.938 2.32.125 5.856.644 7.547 1.651 3.253 1.936.613 6.04-2.49 4.287z" />
      <path d="M256.978 194.406c-1.35-.764-2.886-2.877-3.75-4.392 1.718.096 4.334.484 5.587 1.23 2.409 1.434.461 4.46-1.837 3.162z" />
      <path d="M256.923 194.357a2.766 2.766 0 01.316-1.902c.448-.76.976-1.026 1.47-1.19m-3.705 1.231c-.027-.398.172-.992.318-1.232.157-.26.63-.66.895-.795" style="marker:none" color="#000" stroke-linecap="round" stroke-linejoin="round" overflow="visible" />
   </g>
   <g fill="none" stroke="#c13c1b" stroke-width=".281">
      <path d="M252.643 199.479c-1.654-1.287-3.284-4.418-4.135-6.614 2.277.463 5.698 1.494 7.224 2.737 2.935 2.39-.276 6.064-3.089 3.877z" />
      <path d="M253.015 198.938c-1.225-.954-2.435-3.27-3.068-4.893 1.685.346 4.216 1.112 5.347 2.032 2.173 1.77-.196 4.48-2.28 2.86z" />
      <path style="marker:none" d="M252.967 198.88c-.02-.358.038-1.15.591-1.835.554-.686 1.115-.873 1.628-.963m-3.845.678c.031-.398.315-.957.494-1.173.194-.234.721-.561 1.002-.655" color="#000" stroke-linecap="round" stroke-linejoin="round" overflow="visible" />
   </g>
   <g fill="none" stroke="#c13c1b" stroke-width=".281">
      <path d="M259.895 190.143c-1.868-.951-4.06-3.717-5.312-5.712 2.324.024 5.879.388 7.612 1.32 3.334 1.793.876 6.008-2.3 4.392z" />
      <path d="M260.158 189.541c-1.384-.705-3.01-2.75-3.938-4.224 1.72.02 4.35.294 5.634.985 2.47 1.327.656 4.436-1.696 3.239z" />
      <path d="M260.1 189.494a2.766 2.766 0 01.233-1.914c.414-.778.93-1.068 1.416-1.253m-3.647 1.392c-.044-.397.128-1 .263-1.245.147-.266.602-.687.86-.833" style="marker:none" color="#000" stroke-linecap="round" stroke-linejoin="round" overflow="visible" />
   </g>
   <g fill="none" stroke="#c13c1b" stroke-width=".281">
      <path d="M264.65 179.819c-2.006-.61-4.649-2.948-6.23-4.694 2.291-.383 5.855-.647 7.725-.033 3.596 1.18 1.915 5.761-1.495 4.727z" />
      <path d="M264.803 179.18c-1.485-.451-3.444-2.18-4.617-3.469 1.697-.28 4.335-.472 5.72-.018 2.663.874 1.423 4.253-1.103 3.487z" />
      <path style="marker:none" d="M264.738 179.144a2.766 2.766 0 01-.106-1.926c.271-.838.729-1.214 1.175-1.482m-3.347 2.01c-.113-.382-.049-1.006.041-1.272.097-.287.472-.782.701-.97" color="#000" stroke-linecap="round" stroke-linejoin="round" overflow="visible" />
   </g>
   <g fill="none" stroke="#c13c1b" stroke-width=".281">
      <path d="M262.666 185.035c-1.95-.767-4.398-3.31-5.836-5.176 2.316-.199 5.889-.177 7.704.585 3.49 1.463 1.448 5.895-1.868 4.591z" />
      <path d="M262.87 184.411c-1.445-.569-3.26-2.448-4.325-3.827 1.713-.144 4.358-.124 5.703.44 2.585 1.084 1.078 4.353-1.379 3.387z" />
      <path d="M262.808 184.37a2.766 2.766 0 01.048-1.928c.337-.814.823-1.152 1.29-1.383m-3.497 1.735c-.083-.39.031-1.006.142-1.264.12-.279.533-.742.776-.912" style="marker:none" color="#000" stroke-linecap="round" stroke-linejoin="round" overflow="visible" />
   </g>
   <g fill="none" stroke="#c13c1b" stroke-width=".281">
      <path d="M266.443 174.389c-2.06-.39-4.939-2.43-6.7-3.996 2.238-.627 5.753-1.273 7.678-.864 3.702.787 2.524 5.522-.978 4.86z" />
      <path d="M266.527 173.738c-1.526-.29-3.66-1.797-4.964-2.953 1.657-.461 4.26-.936 5.685-.632 2.742.582 1.872 4.075-.721 3.585z" />
      <path style="marker:none" d="M266.458 173.708a2.766 2.766 0 01-.312-1.902c.18-.863.594-1.286 1.008-1.6m-3.111 2.358c-.154-.368-.157-.995-.096-1.269.066-.296.385-.828.592-1.04" color="#000" stroke-linecap="round" stroke-linejoin="round" overflow="visible" />
   </g>
   <path d="M191.957 153.014c-3.706-10.868-1.862-7.463-50.705-15.206l-1.676-1.134-.69-1.084-.345-2.02-.246-1.923-.986-1.232-1.725-.789-1.775-1.43-.394-.64-3.844-9.266-.523-.233-.558-.07-.627-.731-.174-.663.14-.488.382-.174 1.116-.209 3.59-.523 5.367-.836 4.74-1.15 4.113-.976 5.576-1.046 3.973-.697 4.74-.697 4.74-.767 3.207-.557h3.555c9.06-5.451 15.884-6.004 24.118-7.877 2.797-15.06 5.113-30.215 9.131-45.03 2.728-12.587 5.515-25 8.504-36.804 1.553-3.436 3.204-4.037 5.019.14 4.303 19.192 5.951 31.897 6.412 44.96.16 4.551.569 14.218-.676 19.091 2.384-5.158 2.522-15.769 3.087-20.904 2.181-19.82 5.153-30.706 7.697-44.333.708-2.896 1.687-3.483 3.137-.07 6.197 21.47 12.209 42.972 15.31 64.958.076 10.725-2.074 19.514-8.035 24.99-2.281.719-4.002 3.008-7.492.345l-.344-.444-.395.345-.296 1.134-.049.64 1.479 1.233c11.558 13.197 15.021 25.68 17.793 38.1l.185.39.254 9.05c-6.529.315-56.272 10.334-63.224 6.834l-2.586-12.207z" fill-rule="evenodd" stroke="#818181" stroke-width=".224" />
   <g stroke-width=".195">
      <path d="M238.155 23.506l-1.085 3.746-.788 6.704-.887 8.872-.592 6.309-.099 6.21-.197 5.126-.098 5.324-.296 5.619.296 5.126.69 5.619 1.478 4.14 1.578 4.535 1.478 3.746 1.972 3.647 2.366 1.479 2.957-.198 1.479-1.577 1.577-3.351.887-3.254.296-5.224-.296-4.436-.492-4.24-.69-4.534-1.085-4.83-1.281-6.013-1.38-7.985-1.184-4.93-1.38-5.618-1.774-5.915-1.676-6.605-1.774-7.492z" fill="#f2f2f2" fill-rule="evenodd" stroke="#fff" />
      <path d="M239.683 31.146c-.785 6.17-1.743 12.32-2.443 18.5-1 9.42-1.054 18.901-1.253 28.361-.076 1.697-.132 3.395-.247 5.09m6.358-43.325c-.66 3.419-1.265 6.85-1.407 10.336-.263 4.315-.82 8.607-.938 12.932-.4 7.13-1.674 14.184-1.89 21.329-.035 1.326-.26 2.635-.398 3.953m7.048-39.579c-.743 3.07-1.223 6.188-1.637 9.317-.582 3.451-1.143 6.902-1.495 10.386-.67 5.82-1.551 11.62-2.01 17.463-.172 2.165-.227 4.335-.33 6.504m7.296-34.158c-.863 3.549-1.605 7.121-2.114 10.738-.952 5.901-1.185 11.917-2.632 17.734-.647 2.839-1.051 5.7-1.366 8.594m7.393-30.609c-1.194 4.48-1.668 9.11-2.421 13.678-.566 3.905-1.285 7.793-2.33 11.599-.297 2.434-.637 4.868-1.41 7.205m7.739-25.778c-1.236 3.645-1.34 7.541-2.374 11.24-.65 3.645-1.643 7.212-2.753 10.743-.42 1.802-.843 3.602-1.183 5.421m7.197-20.75c-.933 2.043-.812 4.34-1.294 6.502-.452 2.248-1.138 4.45-1.697 6.677-.738 2.697-1.558 5.376-2.135 8.114m5.816-12.963c-.442 3.172-.704 6.44-2.078 9.377l-1.126 2.748" fill="none" stroke="#000" />
   </g>
   <path d="M138.284 131.057l2.858.349 2.44.07h4.53l8.365-.07h8.365l1.812.07" fill="none" stroke="#818181" stroke-width=".195" />
   <g fill-rule="evenodd" stroke-width=".195" stroke-linecap="round" stroke-linejoin="round">
      <path d="M179.526 107.64c2.418-1.973 8.117-4.51 10.77-4.147 1.587.217 6.154 2.173 10.834 3.155 3.26.685 5.936 1.107 8.683 1.167.282.5.143.999.07 1.498-2.91.028-5.49-.032-9.933-.906-3.23-.758-6.436-2.525-10.63-2.858-1.66-.365-4.662.528-9.202 2.858-.51-.047-.907-.17-.592-.767z" fill="#fff" stroke="#fff" />
      <path d="M180.084 116.249c3.252-6.278 5.652-7.22 7.98-6.657 0 0 11.223 2.3 12.408 2.44 1.323.155 8.017.209 8.017.209.17.72.307 1.44-.07 2.16-2.88.293-7.103.286-11.641.21-1.079.794-2.363 1.434-4.182 1.673-3.253.116-6.878.093-10.874-.07-.087.04-.475.103-.837.418-.702.16-1.047.077-.801-.383z" fill="#fff" stroke="#000" />
      <path d="M188.156 115.9c-2.226-.315-3.874-.844-3.956-3.096-.082-2.286.503-3.382 2.686-3.49l5.988 1.223c-.004 2.23-.425 3.136-.907 3.851-.672.762-1.005 1.67-3.811 1.512z" stroke="#000" />
   </g>
   <path d="M196.617 166.833l-2.623 11.12c5.51 7.105 27.076 3.465 30.491 1.73l-6.265-15.302 1.18-.533c-1.468-.637-5.082-.383-6.663.847-2.993-.566-5.176-.736-8.018.734-2.415-1.156-7.232.045-8.102 1.404z" fill="#a13c2a" fill-rule="evenodd" stroke="#000" stroke-width=".224" />
   <path d="M297.592 134.633c-12.293-14.006-23.937-25.232-47.296-31.656-1.409 2.423-6.177 8.881-11.676 4.327l-.849 1.784c7.252 13.925-.487 25.351-24.86 30.326 5.16 13.455 3.86 22.271 4.472 34.176 1.214 23.636 1.49 60.33 1.49 60.33h26.425c.302-19.874-.562-53.303.83-66.526.274-2.613-.152-2.271.329-2.997l24.81 5.277c49.088 12.957 44.011 46.138 43.02 56.99l1.203 16.178 6.67-.16-1.119-48.07c-4.336-20.109-8.784-43.27-23.45-59.98zm-111.108 10.444c-13.238 32.89-10.434 52.89-10.297 88.843h25.973l-.265-52.273c-4.373-12.759-6.47-33.275-15.41-36.57z" fill="#025" fill-rule="evenodd" stroke="#000" stroke-linecap="round" stroke-linejoin="round" stroke-width=".224" />
   <path d="M219.648 95.615c-8.64-.634-15.473.387-21.19 4.71 5.812-1.105 13.343-1.615 20.699-.415l.491-4.295z" fill="#025" fill-rule="evenodd" stroke="#025" stroke-width=".224" />
   <path d="M218.873 221.724h26.425v12.196h-26.425v-12.196zm-42.686 0h25.973v12.196h-25.973v-12.196z" fill="#fac53a" fill-rule="evenodd" stroke="#000" stroke-width=".224" />
   <path d="M282.242 517.36l-1.244.331.766 12.436c.095 18.354.581 37.828 4.31 51.274l5.41-8.732 10.401 8.892c-3.143-32.218-9.652-23.014-19.643-64.2z" fill="#04a" fill-rule="evenodd" stroke="#000" stroke-width=".447" />
   <path d="M287.477 589.063l6.052-8.572 8.136 6.855" fill="none" stroke="#c13c1b" stroke-width=".447" stroke-linecap="round" stroke-linejoin="round" />
   <path d="M288.477 596.505l5.92-8.308 7.898 6.595m-12.705 9.512l5.664-8.031 7.672 6.416m-12.196 9.929l5.598-7.899 7.394 6.161m-11.991 9.407l5.445-7.799 7.348 6.125m-11.675 9.739l5.194-7.48 7.131 6.027m-11.094 9.388l5.056-7.258 6.95 5.884m-10.974 8.956l4.882-6.99 6.676 5.67m-10.608 8.461l4.78-6.814 6.449 5.491m-10.487 8.908l4.967-6.64 6.248 5.186m-10.297 8.968l5.06-6.439 6.036 5.129m-10.121 8.96l4.727-5.931 6.37 4.69m-10.04 8.762l4.754-5.828 5.942 4.277m-7.971 21.073l4.582-5.35 5.604 3.624m-11.09-4.325l4.514-5.748 5.862 4.038m-11.188-5.149l4.593-5.349 5.744 3.863m-7.706 21.186l4.626-5.454 5.494 4.11m-9.214 7.72l4.342-5.19 5.684 3.623m-8.459 14.214l4.582-5.19 5.923 3.624m-11.17-4.86l4.298-4.916 5.812 3.718m-9.099 9.951l10.498-1.586" fill="none" stroke="#c13c1b" stroke-width=".447" stroke-linecap="round" stroke-linejoin="round" />
   <g fill-rule="evenodd" stroke="#000" stroke-linecap="round" stroke-linejoin="round" stroke-width=".222">
      <path d="M297.532 512.73c2.788-.912 5.073-.563 7.272 0l-1.282-34.891 16.615 1.11c-.509-2.5-.68-4.998 0-7.497l-16.615 1.165h0c3.48-6.22 8.36-11.734 10.114-20.83 3.546-18.381-5.827-17.61-12.33-17.668-7.078-.064-17.528 1.043-13.18 18.451 2 8.008 6.874 14.305 10.807 20.047h0l-18.671-1.165c.627 2.499.566 4.998 0 7.496l18.671-1.11h0l-1.401 34.891z" fill="#025" />
      <path d="M298.933 467.48c-3.588-4.872-7.031-9.632-7.899-15.917-1.753-12.703 4.844-14.122 10.18-14.154 4.744-.029 11.757.644 8.618 14.043-1.473 6.286-3.764 11.941-6.31 16.028-1.594 2.158-3.305 1.805-4.589 0z" fill="#fff" />
   </g>
   <path d="M313.474 413.165l-20.531-.56c-1.028 5.137-3.565 10.575-6.042 16-3.275 5.199-3.488 11.832-2.574 18.127l-.335 5.93c9.221 1.103.312-11.204 6.154-15.777l.895 8.504c1.672 1.591 3.32 2.85 4.699.336 1.641 1.837 3.282 1.705 4.923-.336 2.006 2.594 3.644.768 5.37 0 1.84 1.439 3.788 1.95 5.036-1.343.362-8.981 3.05-17.703 2.405-30.88z" fill="#a13c2a" fill-rule="evenodd" stroke="#000" stroke-width=".447" stroke-linecap="round" stroke-linejoin="round" />
   <g fill-rule="evenodd" stroke="#000" stroke-linecap="round" stroke-linejoin="round" stroke-width=".222">
      <path d="M292.767 401.026l21.538.168-.895 13.594-20.532-.783-.111-12.979z" fill="#fac53a" />
      <path d="M292.767 402.984l21.37.28-.22 4.2-21.094-.332-.056-4.148z" fill="#04a" />
      <path d="M292.54 400.97l21.596.224-.613 13.538-20.927-.727-.055-13.035z" fill="#fac53a" />
      <path d="M292.567 402.984l21.57.28-.26 4.2-21.254-.332-.056-4.148zm.04 5.419l21.194.32-.22 4.2-20.918-.372-.056-4.148z" fill="#04a" />
   </g>
   <path d="M177.553 222.917l22.88.103m-22.89 1.716l22.88.103m-22.886 1.871l22.88.104m-22.81 1.955l22.88.103m-22.73 2.028l22.876-.054m-22.96 1.954l22.95-.215" fill="none" stroke="#c13c1b" stroke-width=".664" stroke-linecap="round" stroke-linejoin="round" />
   <path d="M74.024 388.491c-10.612 1.665-23.485 5.618-32.07 19.638l-5.29 3.276c2.798 6.156 8.313 2.623 10.07-.592-1.041 2.842-.493 4.659 2.865 4.665-.71 2.651.224 4.187 3.34 4.245-1.66 2.612.306 4.915 3.18 4.385-1.01 3.344.781 4.763 2.557 4.797 4.738 2.036 25.888-24.218 27.995-26.508" fill="#a13c2a" fill-rule="evenodd" stroke="#000" stroke-width=".447" stroke-linecap="round" stroke-linejoin="round" />
   <path d="M46.719 190.187c.741-7.368-.418-13.837 2.607-22.795 3.693-10.932 7.38-12.828 11.68-18.572 1.63-1.33 4.31.06 3.431 2.59-4.986 4.646-8.546 10.988-10 14.608 1.496-.17 8.7-.722 8.862 6.743l-.025 509.748c8.02 9.204 1.127 16.279 1.558 24.276-.82.395-1.47.142-1.554-.554-1.074-8.752 1.91-12.568-.054-17.118-.94-2.176-2.697-2.074-3.72-.222-2.207 3.99.884 6.444.077 17.254-.058.787-1.022 1.014-1.415.542-.503-8.034-6.056-14.806 1.295-24.187l-.008-509.13c-.415-4.165-4.92-4.611-7.158.095-2.623 5.517-1.511 11.236-2.215 16.852-1.165 3.617-3.559 2.223-3.361-.13z" fill="#025" fill-rule="evenodd" stroke="#000" stroke-width=".222" stroke-linecap="round" stroke-linejoin="round" />
   <g fill-rule="evenodd" stroke="#000" stroke-linecap="round" stroke-linejoin="round" stroke-width=".296">
      <path d="M74.403 374.866l22.133 13.058-9.563 14.434-18.174-13.203 5.604-14.29z" fill="#fac53a" />
      <path d="M73.692 376.666l21.599 13.475-2.803 4.109-20.349-13.487 1.553-4.097zm-2.413 6.311l19.576 13.527-3.029 4.504L69.5 387.47l1.779-4.492z" fill="#04a" />
   </g>
   <path d="M60.095 399.673c3.792-2.917 8.32-2.477 4.75 1.847 3.075-2.928 9.395-2.427 3.12 3.577 5.724-3.442 6.042 1.18 3.109 3.788 3.86-2.37 4.896 1.353.961 5.14-3.921 4.884-8.518 9.875-12.952 14.727-.083.087-.193.142-.369.124-1.775-.033-3.54-1.282-2.53-4.626-2.873.53-4.84-1.773-3.18-4.385-3.115-.059-4.05-1.594-3.34-4.245-3.357-.006-4.236-1.319-3.194-4.161a2.98 2.98 0 01.405-.56c4.737-5.125 9.094-8.808 13.1-11.155m.86-.526c-.3 1.27.969 3 3.113 3.033m.87-.55c-.86 1.492 1.658 3.526 3.024 3.445m.352-.205c-1.265 1.565.591 4.875 3.305 3.487m-.473.523c-.731 1.66.606 3.373 2.097 3.732m-20.106 7.178C53.57 419.471 68 405.117 68 405.117m-18.195 10.419c.79-.8 15.099-14.038 15.099-14.038m-8.652 22.725l14.928-15.42" fill="#a13c2a" fill-rule="evenodd" stroke="#000" stroke-width=".447" stroke-linecap="round" stroke-linejoin="round" />
   <path d="M64.818 401.702c-.252.173-.293.519-.87.55-2.614.005-3.233-2.578-3.134-3.04 3.584-2.332 7.411-1.658 4.073 2.386 3.075-2.929 9.353-2.505 3.079 3.499 5.723-3.442 6.114 1.063 3.18 3.67 3.43-2.106 4.558.718 1.999 3.96-1.513-.403-2.85-2.116-1.977-3.94-2.572 1.223-4.24-2.281-3.15-3.743-1.542.183-4.06-1.851-3.2-3.342z" fill="#fff" fill-rule="evenodd" stroke="#000" stroke-width=".447" stroke-linecap="round" stroke-linejoin="round" />
   <path d="M65.715 398.172c-2.51-.925-5.801.923-13.069 7.002l-1.34-7.68c7.614-5.177 11.021-6.645 17.625-8.043" fill="#a13c2a" fill-rule="evenodd" />
   <path d="M52.646 405.174c7.268-6.08 10.664-7.937 13.174-7.012m3.04-8.666c-6.604 1.397-10.083 2.716-17.675 8.115" fill="none" stroke="#000" stroke-width=".447" />
   <path d="M220.513 222.917l22.88.103m-22.89 2.035l22.88.104m-22.806 1.871l22.88.103m-22.89 1.795l22.88.104m-22.73 1.868l22.876-.054m-22.959 2.034l22.949-.215" fill="none" stroke="#c13c1b" stroke-width=".664" stroke-linecap="round" stroke-linejoin="round" />
   <path d="M314.434 230.627l7.367-.01.36 12.086-6.823.12-.904-12.196z" fill="#fac53a" fill-rule="evenodd" stroke="#000" stroke-width=".224" />
   <path d="M314.84 231.82l5.434.104M315 233.639l5.264.104m-5.214 1.871l5.209.103m-5.026 1.955l5.095.104m-4.944 1.915l5.09.059m-5.004 1.728l4.965-.017" fill="none" stroke="#c13c1b" stroke-width=".664" stroke-linecap="round" stroke-linejoin="round" />
   <path d="M314.41 230.588l.96 12.197" fill="none" stroke="#000" stroke-width=".224" />
   <g fill-rule="evenodd" stroke="#000" stroke-linecap="round" stroke-linejoin="round">
      <path d="M-2298.264 185.199l129.779 8.359-8.488 77.742-132.395-13.063 11.104-73.038z" fill="#fac53a" transform="matrix(.27041 -.0044 .0051 .23311 735.148 175.438)" />
      <path d="M-2299.299 193.609l129.66 10.549-2.604 22.255-130.567-9.952 3.511-22.852zm-4.777 31.041L-2173.32 236l-2.746 24.159-131.762-10.989 3.753-24.52z" fill="#04a" transform="matrix(.27041 -.0044 .0051 .23311 735.148 175.438)" />
   </g>
   <g fill-rule="evenodd" stroke="#000" stroke-linecap="round" stroke-linejoin="round">
      <path d="M-2306.297 184.523l126.243 8.061-.132 78.445-129.182-12.792 3.07-73.714z" fill="#fac53a" transform="matrix(.24708 -.01956 .01664 .23246 849.874 141.65)" />
      <path d="M-2306.69 192.987l126.446 10.278-.033 22.472-127.353-9.681.94-23.07zm-.92 31.366l127.059 11.038.146 24.403-128.228-10.692 1.023-24.749z" fill="#04a" transform="matrix(.24708 -.01956 .01664 .23246 849.874 141.65)" />
   </g>
   <g fill-rule="evenodd" stroke="#000" stroke-linecap="round" stroke-linejoin="round">
      <path d="M-2301.611 184.81l110.51 7.598-12.757 77.185-100.902-10.518 3.149-74.266z" fill="#fac53a" transform="matrix(.26671 .04479 -.03732 .23016 751.753 727.704)" />
      <path d="M-2302.218 193.931l109.506 8.31-3.595 21.223-106.536-7.241.625-22.292zm-1.033 30.559l104.788 11.037-4.15 23.206-101.819-9.488 1.18-24.755z" fill="#04a" transform="matrix(.26671 .04479 -.03732 .23016 751.753 727.704)" />
   </g>
   <g fill-rule="evenodd" stroke="#000" stroke-linecap="round" stroke-linejoin="round">
      <path d="M-2305.348 184.73l117.692 7.561-12.03 77.508-107.182-11.397 1.52-73.671z" fill="#fac53a" transform="matrix(.27001 -.01538 .01457 .23271 868.36 594.959)" />
      <path d="M-2305.446 193.202l116.011 9.648-3.645 22.187-112.856-8.782.49-23.053zm-.818 31.304l112.106 10.117-3.892 24.083-108.633-9.46.42-24.74z" fill="#04a" transform="matrix(.27001 -.01538 .01457 .23271 868.36 594.959)" />
   </g>
   <path d="M275.803 527.992c-93.566-15.728-110.626-86.262-103.648-177.19l85.233-15.067c8.086 13.446 12.852 31.613 6.775 41.444 7.923 50.097 12.735 101.017 11.64 150.813z" fill="#fac53a" fill-rule="evenodd" stroke="#000" stroke-width=".224" />
   <path d="M257.116 335.585l-6.486-30.812-78.408 37.95-.239 7.872 85.133-15.01z" fill="#fac53a" fill-rule="evenodd" stroke="#000" stroke-linecap="round" stroke-linejoin="round" stroke-width=".224" />
   <path d="M223.307 324.11l6.862-2.854 1.715 4.238-6.963 2.478-1.614-3.862z" fill="#04a" fill-rule="evenodd" stroke="#04a" stroke-width=".258" />
   <path d="M232.912 320.116l6.242-2.62 2.005 4.887-6.393 2.181-1.854-4.448z" fill="#c13c1b" fill-rule="evenodd" stroke="#c13c1b" stroke-width=".258" />
   <path d="M241.946 316.522l7.115-2.999 2.153 5.19-7.377 2.573-1.891-4.764z" fill="#04a" fill-rule="evenodd" stroke="#04a" stroke-width=".258" />
   <path d="M250.628 304.66l.764 3.778-75.643 33.173-3.36.94 78.239-37.891z" fill="#fff" fill-rule="evenodd" stroke="#000" stroke-linecap="round" stroke-linejoin="round" stroke-width=".224" />
   <path d="M185.324 339.563l6.261-2.504.888 2.405-6.327 2.328-.822-2.23z" fill="#04a" fill-rule="evenodd" stroke="#04a" stroke-width=".258" />
   <path d="M194.69 335.84l6.641-2.79 1.027 2.837-6.69 2.397-.978-2.444z" fill="#c13c1b" fill-rule="evenodd" stroke="#c13c1b" stroke-width=".258" />
   <path d="M204.052 332.079l6.74-2.906 1.42 3.343-7.07 2.444-1.09-2.881z" fill="#04a" fill-rule="evenodd" stroke="#04a" stroke-width=".258" />
   <path d="M213.756 327.856l6.918-2.856 1.689 3.998-7.079 2.515-1.528-3.657z" fill="#308d57" fill-rule="evenodd" />
   <path d="M253.34 318.19l-69.235 24.391m67.985-30.435l-70.117 28.684m58.996-23.974l1.99 4.752m-2.9-4.506l1.975 4.885m8.846-9.271l2.174 5.428m-3.076-5.05l2.219 5.38m-20.182 2.081l1.957 4.308m-2.926-3.96l1.915 4.32m-10.474-.803l1.573 3.806m-2.51-3.564l1.708 3.986m-10.686-.263l1.56 3.385m-2.421-2.994l1.502 3.401m-10.045.223l1.05 2.848m-2.011-2.451l1.133 2.838m-9.522.57l.817 2.519m-1.867-2.148l.904 2.56m-9.195.785l.814 2.123m-1.642-1.88l.894 2.175" fill="none" stroke="#000" stroke-width=".258" stroke-linecap="round" stroke-linejoin="round" />
   <path d="M244.437 327.455l7.407-2.18 1.556 5.4-7.62 1.726-1.343-4.946z" fill="#04a" fill-rule="evenodd" stroke="#04a" stroke-width=".258" />
   <path d="M235.056 330.01l6.497-1.9 1.523 5.024-6.678 1.504-1.342-4.628z" fill="#c13c1b" fill-rule="evenodd" stroke="#c13c1b" stroke-width=".258" />
   <path d="M225.063 332.898l7.14-2.064 1.226 4.404-7.197 1.679-1.17-4.02z" fill="#04a" fill-rule="evenodd" stroke="#04a" stroke-width=".258" />
   <path d="M215.151 335.546l7.195-2.06 1.229 4.162-7.317 1.704-1.107-3.806z" fill="#308d57" fill-rule="evenodd" />
   <path d="M205.033 338.65l7.025-2.13 1.034 3.482-7.386 1.705-.673-3.057z" fill="#04a" fill-rule="evenodd" stroke="#04a" stroke-width=".258" />
   <path d="M195.315 341.268l6.906-1.96.701 2.935-6.918 1.63-.689-2.605z" fill="#c13c1b" fill-rule="evenodd" stroke="#c13c1b" stroke-width=".258" />
   <path d="M185.992 343.974l6.205-1.687.667 2.334-6.281 1.502-.591-2.149z" fill="#04a" fill-rule="evenodd" stroke="#04a" stroke-width=".258" />
   <path d="M255.903 330.243l-71.871 16.598m70.606-22.445l-72.324 20.425m61.114-17.144l1.444 4.945m-2.376-4.804l1.414 5.077m9.83-8.229l1.552 5.65m-2.488-5.364l1.6 5.596m-20.289-.203l1.46 4.5m-2.462-4.264l1.418 4.51m-10.317-1.978l1.134 3.96m-2.093-3.825l1.249 4.153m-10.589-1.463l1.17 3.539m-2.069-3.247l1.11 3.548m-10.007-.908l.723 2.948m-1.722-2.663l.806 2.948m-9.606-.503l.687 2.512m-1.691-2.262l.73 2.682m-8.712-.454l.616 2.28m-1.285-2.092l.502 2.185" fill="none" stroke="#000" stroke-width=".258" stroke-linecap="round" stroke-linejoin="round" />
   <path d="M184.878 342.974l68.923-22.92m-68.748 23.428l69.183-21.177m-70.058 25.12l72.002-15.752m-73.071 16.521l73.646-14.3m-78.262 7.079l73.097-31.39m-71.228 31.285l71.52-29.986" fill="none" stroke="#000" stroke-width=".224" />
   <path d="M171.947 350.636c8.177-1.852 14.178-1.01 13.032-7.12-.836-4.455-8.51-2.33-12.751-.96l-.281 8.08z" fill="#fac53a" fill-rule="evenodd" stroke="#000" stroke-linecap="round" stroke-linejoin="round" stroke-width=".224" />
   <g>
      <path d="M154.744 527.814l17.562-176.109 91.67-.11c1.194 4.863 5.467 13.812.326 26.86 7.878 49.984 12.656 100.467 11.564 150.147l-121.122-.788z" fill="#fff" fill-rule="evenodd" stroke="#000" stroke-width=".447" />
      <path d="M275.599 528.188c-93.557-15.777-110.58-86.321-103.553-177.246l85.241-15.02c8.08 13.45 12.976 32.551 6.893 42.378 7.897 50.102 12.54 100.092 11.419 149.888z" fill="#fac53a" fill-rule="evenodd" stroke="#000" stroke-width=".224" />
      <path d="M257.098 336l-69.111 135.394m64.984-134.686l-66.89 131.041m-1.765-3.919l64.536-126.429m-4.152.756l-62.103 121.665m-1.584-4.273l59.542-116.646m-4.139.731L179.493 451.15m-1.411-4.612l54.209-106.199m-4.113.681l-51.392 100.679m-1.198-5.03l48.426-94.869m-4.146.746l-45.325 88.794m-.991-5.435l42.164-82.603m-4.112.68l-38.859 76.127m-.703-5.999l35.416-69.382m-4.132.718l-31.846 62.388m-.426-6.541l28.127-55.104m-4.126.706l-24.273 47.552m-.131-7.119l20.278-39.725m-4.165.781l-16.083 31.508m.185-7.738l11.786-23.09m-4.166.784l-7.358 14.415m.558-8.47l2.675-5.24m84.829-11.275L189.952 474.92m2.054 3.353l69.01-135.195m1.698 4.05l-68.609 134.41m2.19 3.086l67.945-133.109m1.308 4.815l-66.973 131.204m2.33 2.812l65.652-128.616m.318 6.753l-63.542 124.484m2.453 2.571l58.812-115.218m.846 5.72l-57.121 111.905m2.53 2.42l55.4-108.532m.854 5.703l-53.608 105.022m2.717 2.053L267.88 403.4m.817 5.774l-49.732 97.43m2.82 1.851l47.585-93.223m.754 5.899l-45.506 89.15m2.904 1.689l43.32-84.869m.564 6.272l-40.97 80.263m2.996 1.509l38.729-75.873m.491 6.414l-36.19 70.899m3.104 1.295l33.686-65.993m.408 6.579l-31.004 60.738m3.122 1.261l28.366-55.571m.464 6.468l-25.604 50.16m3.16 1.185l22.772-44.61m.291 6.805l-19.766 38.724m3.322.869l16.754-32.823m.173 7.036l-13.613 26.67m3.341.831l10.337-20.25m.101 7.178l-7.02 13.752m3.432.655l3.471-6.801" fill="none" stroke="#c13c1b" stroke-width=".447" />
      <path d="M275.564 528.188c-93.558-15.777-110.58-86.321-103.553-177.246l85.24-15.02c8.08 13.45 12.976 32.551 6.894 42.378 7.896 50.102 12.54 100.092 11.419 149.888z" fill="none" stroke="#000" stroke-width=".447" />
   </g>
   <path d="M175.474 333.661a.841 2.117-.507 11-1.682 0 .841 2.117-.507 111.682 0z" style="marker:none" color="#000" fill-opacity=".706" fill-rule="evenodd" overflow="visible" />
</svg>