<svg width="535" height="600" xmlns="http://www.w3.org/2000/svg">
    <path d="M299.57 598c-41.6-3.14-72.25-3.53-106.48-1.33-17.64 1.12-39.44 2.05-48.43 2.05-14.66 0-16.63-.27-18.93-2.57-1.41-1.41-2.56-3.15-2.56-3.86s-2.28.2-5.06 2.04c-5.03 3.32-5.09 3.34-16.38 1.73-9.68-1.35-13.79-1.28-28.13.53-26.57 3.36-35.03 2.64-40.08-3.45-1.64-1.97-3.7-1.65-12.57 1.87-3.31 1.32-4.44 1.31-6.09-.05-3.16-2.61-2.43-6.05 2.41-11.41 7.94-8.78 8.98-8.96 75.75-13.79 15.52-1.13 29.48-2.54 31.03-3.16 7.36-2.87 17.68-35.64 24.6-78.15 6.63-40.69 7.21-46.91 7.17-76.27-.05-29.9-1.67-45.82-9.57-94.87-4.98-30.95-6.65-37.53-13.28-52.57-15.41-34.95-26.2-70.3-29.11-95.45-2.65-22.85-.11-40.58 9.16-63.76 7.55-18.91 6.05-35.13-3.89-42.02-6.31-4.37-16.47-5.41-65.14-6.64l-33.61-.86-2.31 4.08c-1.57 2.77-3.12 3.96-4.86 3.72-2.12-.28-2.65-1.48-2.97-6.73-.57-9.03 1.92-16.76 6.68-20.79 9.68-8.17 35.11-16.79 63.64-21.53 6.71-1.12 23.74-4.31 37.85-7.09 14.11-2.79 30.86-5.64 37.21-6.36C167.15-1.1 202.89.14 220.39 3.9c13.84 2.97 16.88 8.66 24.09 45.09 5.57 28.16 7.75 32.82 20.03 42.86 12.77 10.43 27.35 26.32 40.67 44.28 22.04 29.74 86.33 120.91 95.94 136.05 21.71 34.23 22.42 35.73 63.73 136.15 13.06 31.73 33.88 81.76 46.29 111.18 12.39 29.43 22.9 55.73 23.33 58.46.91 5.68-1.57 11.7-6.17 14.9-3.37 2.36-12.04 2.55-15.93.35-1.5-.85-9.52-8.64-17.81-17.3s-15.27-15.55-15.51-15.32c-.23.25 1.12 5.16 3 10.91 4.03 12.27 3.43 15.85-3.44 20.48-7.72 5.19-17.18 7.15-30.81 6.38-20.74-1.18-33.17-7.78-45.52-24.19-9.11-12.12-14.05-22.85-35.4-76.91a47027.52 47027.52 0 00-20.73-52.4c-1.16-2.81-2.77 1.1-13.04 31.41-11.1 32.75-11.93 34.68-15.43 35.89-3.31 1.14-5.87.16-24.25-9.32-11.29-5.82-20.76-10.36-21.04-10.09-1.07 1.07-6.78 70.71-6.01 73.2.45 1.45 1.47 3.05 2.25 3.57.79.52 19.63.97 41.85.98 42.75.05 54.82 1.03 62.72 5.05 6.87 3.5 12.98 10.82 12.98 15.56 0 5.01-2.71 5.93-9.01 3.1l-5.03-2.27-3.76 4.02-3.76 4.03-21.62-.18c-11.89-.09-31.43-.91-43.43-1.82m59.66-7.62c1.39-1.66.79-1.92-4.37-1.92-6.94 0-13.2-2.34-16.67-6.23-2.38-2.68-3.3-2.74-38.23-2.74h-35.78l-3.16-3.14c-4.08-4.09-4.07-8.08.07-51.86 1.77-18.62 3.2-34.28 3.2-34.81 0-1.03-7.03-3.78-9.65-3.78-1.15 0-1.75 7.19-2.29 27.88-.8 30.39-2.64 42.81-7.97 53.69-2.6 5.32-4.27 7.04-8.4 8.7-8.2 3.28-20.3 4.56-51.23 5.45-20.29.59-29.64 1.33-31.43 2.5-1.43.91-6.25 2.52-10.73 3.56-9.76 2.28-12.07 3.88-4.03 2.82 28.05-3.73 114.93-4.15 171.92-.83 21.52 1.25 40.94 2.36 43.15 2.46 2.2.1 4.73-.69 5.6-1.75m109.83-2.42c3.59-1.68 6.83-3.84 7.22-4.82.37-.96-2.12-9.54-5.52-19.02l-6.2-17.29L433.39 516c-37.35-36.94-79.17-76.82-79.8-76.12-.25.27 3.53 10.89 8.39 23.58 35.29 92.05 41.48 104.39 59.09 117.62 13.06 9.82 34.94 12.95 47.99 6.88m-379.89-.13l16.68-.01 2.23-3.54c1.23-1.95 4.12-4.74 6.41-6.2l4.19-2.67-10.27.73c-5.64.4-17.32 1.12-25.93 1.59-14.28.78-15.93 1.13-18.55 3.91-1.58 1.68-5.93 3.95-9.66 5.03-3.75 1.09-6.8 2.3-6.8 2.7 0 .4 5.63.22 12.51-.41 6.88-.61 20.01-1.13 29.19-1.13m435.57-3.21c1.41-1.41 2.56-3.13 2.56-3.84 0-6.86-108.72-261.57-119.28-279.43-17.42-29.5-92.45-137.89-103.6-149.66-21.78-23.02-75.9-30.47-108.11-14.87-9.21 4.46-18.58 13.96-22.81 23.13-3.01 6.5-3.39 8.92-3.35 20.82.02 11.26.61 15.14 3.55 23.72 12.05 35.16 38.27 74.92 82.64 125.29 7.27 8.27 59.53 60.17 116.12 115.32 56.58 55.16 112.47 109.68 124.17 121.18 11.71 11.49 22.24 20.9 23.41 20.9 1.17 0 3.28-1.15 4.7-2.56m-377.67-11.93c.14-.14 6.1-22.46 13.26-49.61 7.16-27.16 13.28-50.29 13.62-51.43.43-1.48-1.04-2.68-5.35-4.32-6.51-2.48-8.16-1.66-8.2 4.05-.04 4.91-6.34 37.66-10.45 54.26-4.63 18.77-10.67 34.45-16.56 43.01l-4.21 6.11 8.82-.91c4.85-.49 8.93-1.02 9.07-1.16m73.45-.96c10.22-1.65 14.96-4.06 17.42-8.82 2.69-5.19 6.24-42.74 6.31-66.76.05-18.36-.22-20.68-3.47-30.44-1.95-5.83-4.02-10.58-4.61-10.58-.58 0-1.44 2.45-1.91 5.45-3.9 24.79-4.85 28.07-8.97 30.57-2.18 1.34-5.17 2.43-6.62 2.44-1.45 0-10.06-4.33-19.13-9.62-9.07-5.28-16.82-9.61-17.24-9.6-1.22.01-27 97.76-26.15 99.14.96 1.55 52.68.12 64.37-1.78m108.47-107.15l12.58-36.86-19.08-18.18c-28.74-27.4-75.06-76.98-98.12-105.05-42.85-52.14-64.64-97.22-62.41-129.18 2.04-29.18 22.33-48.12 57.45-53.62 17.52-2.74 48.15.67 63.49 7.08 4.42 1.85 4.49 1.83 3.07-.81-.79-1.47-9.84-11.1-20.1-21.41-22.23-22.29-23.11-23.92-29.25-53.99-7.13-34.98-8.65-38.46-17.87-40.97-10.11-2.76-48.23-4.4-66.44-2.87-17.61 1.47-37.91 4.92-39.92 6.77-2.27 2.07 3.46 13.2 10.93 21.22 10.6 11.37 10.94 15.06 2.3 24.21l-3.66 3.87 1.98 6.39c3.34 10.78 1.82 24.27-4.64 41-5.78 15.03-8.85 28.91-8.91 40.38-.08 15.48 5.87 44.68 13.87 67.95 7.15 20.87 25.14 63.23 28.44 66.99 2.5 2.85 58.88 99.71 69.59 119.55 12.05 22.35 19.15 37.36 25.86 54.74 2.65 6.84 5.48 12.98 6.3 13.65.82.66 4.11 2.11 7.28 3.21 3.17 1.11 15.85 7.17 28.2 13.49 15.93 8.17 23 11.17 24.45 10.4 1.23-.66 7.04-15.77 14.61-37.96m-107.19 18c.27-.25 2.36-9.7 4.63-20.99l4.15-20.55-13.46-25.32c-23.88-44.96-62.84-112.62-64.13-111.35-.25.27.99 9.35 2.78 20.17 6.98 42.24 7.71 50.95 7.76 91.79l.05 38.79 8.34 3.32c4.58 1.82 9.49 4.37 10.9 5.68 1.42 1.29 9.5 6.38 17.97 11.3 13.93 8.09 18.29 9.58 21.01 7.16M120.38 53.15c1.8-3.93.13-4.93-12.06-7.24-13.25-2.5-73.62-2.2-81.38.41-5.55 1.86-4.53 1.97 26.94 2.77 36.08.92 48.69 2.22 56.81 5.81 6.29 2.78 7.75 2.51 9.69-1.75M26.3 38.06c7.19-1.69 71.62-2.15 81.84-.57l6.15.93-3.75-5.43c-2.06-2.99-4.54-7.8-5.52-10.67l-1.77-5.22-26.28 4.73C40.91 28.35 24.44 33.1 17.32 39.08c-2.57 2.15-2.57 2.15 0 1.33 1.41-.46 5.45-1.51 8.98-2.35" />
    <path d="M152.76 47.82c-12.26-6.45-13.6-23.38-2.47-31.53 4.85-3.55 13.56-4.15 18.97-1.29 12.27 6.45 13.6 23.38 2.48 31.53-4.85 3.55-13.56 4.15-18.98 1.29m16.7-7.97c2.77-2.79 3.74-4.97 3.74-8.44 0-6.51-5.67-12.18-12.19-12.18-6.51 0-12.19 5.67-12.19 12.18s5.68 12.18 12.19 12.18c3.48 0 5.66-.97 8.45-3.74" />
    <path d="M155.24 37.18c-5.08-5.08-1.39-14.1 5.77-14.1 4.12 0 8.34 4.21 8.34 8.33 0 1.77-1.15 4.36-2.56 5.77-1.41 1.41-4.01 2.56-5.78 2.56-1.77 0-4.36-1.15-5.77-2.56" />
    <path fill="#e5e3cc" d="M435.36 588.37c-21.88-6.92-34.08-24.05-54.75-76.83-17.89-45.69-27.48-71.16-27.02-71.66.63-.7 42.45 39.18 79.8 76.12l31.17 30.83 6.2 17.29c3.4 9.48 5.89 18.06 5.52 19.02-.39.98-3.63 3.14-7.22 4.82-8.38 3.9-22.17 4.07-33.7.41M289.93 492.14c-12.35-6.32-25.03-12.38-28.2-13.49-3.17-1.1-6.46-2.55-7.28-3.21-.82-.67-3.65-6.81-6.3-13.65-6.71-17.38-13.81-32.39-25.86-54.74-10.71-19.84-67.09-116.7-69.59-119.55-3.3-3.76-21.29-46.12-28.44-66.99-8-23.27-13.95-52.47-13.87-67.95.06-11.47 3.13-25.35 8.91-40.38 6.46-16.73 7.98-30.22 4.64-41l-1.98-6.39 3.66-3.87c8.64-9.15 8.3-12.84-2.3-24.21-7.47-8.02-13.2-19.15-10.93-21.22 2.08-1.91 22.6-5.32 40.58-6.76 18.76-1.5 55.63.12 65.78 2.87 9.22 2.5 10.74 5.98 17.87 40.96 6.16 30.16 6.94 31.58 30.03 54.82 18.36 18.47 22.47 23.58 17.21 21.48-8.39-3.35-28.52-7.27-40.74-7.92-38.87-2.08-67.85 12-77.68 37.71-12.59 32.9 8.02 83.9 58.93 145.84 23.06 28.07 69.38 77.65 98.12 105.05l19.08 18.18-12.58 36.86c-7.57 22.19-13.38 37.3-14.61 37.96-1.45.77-8.52-2.23-24.45-10.4M171.74 46.53c5.23-3.84 8.11-10.35 7.44-16.86-1.06-10.46-9.57-17.48-19.91-16.41-18.39 1.86-22.9 25.95-6.51 34.56 5.42 2.86 14.13 2.26 18.98-1.29M200.79 475.42c-8.47-4.92-16.55-10.01-17.97-11.3-1.41-1.31-6.32-3.86-10.9-5.68l-8.34-3.32-.05-38.79c-.05-40.84-.78-49.55-7.76-91.79-1.79-10.82-3.03-19.9-2.78-20.17 1.29-1.27 40.25 66.39 64.13 111.35l13.46 25.32-4.15 20.55c-2.27 11.29-4.36 20.74-4.63 20.99-2.72 2.42-7.08.93-21.01-7.16" />
    <path fill="#7fa2a0" d="M110.69 54.9c-8.12-3.59-20.73-4.89-56.81-5.81-31.47-.8-32.49-.91-26.94-2.77 7.76-2.61 68.13-2.91 81.38-.41 12.19 2.31 13.86 3.31 12.06 7.24-1.94 4.26-3.4 4.53-9.69 1.75M17.32 39.08c3.59-3.02 12.42-6.72 23.04-9.68 9.65-2.69 55.81-11.45 60.34-11.45 1.96 0 3.17 1.31 4.43 4.81.95 2.64 3.4 7.25 5.44 10.24l3.72 5.42-6.15-.93c-3.39-.53-21.73-.95-40.78-.94-32.07 0-40.01.62-50.04 3.86-2.57.82-2.57.82 0-1.33" />
    <path fill="#eb2e00" d="M152.57 39.85c-7.52-7.52-3.39-18.77 7.42-20.22 4.78-.64 5.83-.27 9.3 3.19 2.94 2.92 3.91 5.08 3.91 8.59 0 6.51-5.67 12.18-12.19 12.18-3.47 0-5.65-.97-8.44-3.74m14.22-2.67c5.08-5.08 1.38-14.1-5.78-14.1-4.12 0-8.34 4.21-8.34 8.33 0 1.77 1.16 4.36 2.57 5.77 1.41 1.41 4 2.56 5.77 2.56 1.77 0 4.37-1.15 5.78-2.56" />
    <path fill="#e1441f" d="M496.63 566.28c-11.7-11.5-67.59-66.02-124.17-121.18-56.59-55.15-108.85-107.05-116.12-115.32-44.37-50.37-70.59-90.13-82.64-125.29-2.94-8.58-3.53-12.46-3.55-23.72-.04-11.9.34-14.32 3.35-20.82 4.23-9.17 13.6-18.67 22.81-23.13 32.17-15.58 86.35-8.13 108.11 14.87 11.15 11.77 86.18 120.16 103.6 149.66 10.56 17.86 119.28 272.57 119.28 279.43 0 2.04-4.94 6.4-7.26 6.4-1.17 0-11.7-9.41-23.41-20.9" />
    <path fill="gray" d="M310.48 589.67c-56.99-3.32-143.87-2.9-171.92.83-8.04 1.06-5.73-.54 4.03-2.82 4.48-1.04 9.3-2.65 10.73-3.56 1.79-1.17 11.14-1.91 31.43-2.5 30.93-.89 43.03-2.17 51.23-5.45 4.13-1.66 5.8-3.38 8.4-8.7 5.33-10.88 7.17-23.3 7.97-53.69.54-20.69 1.14-27.88 2.29-27.88 2.62 0 9.65 2.75 9.65 3.78 0 .53-1.43 16.19-3.2 34.81-4.14 43.78-4.15 47.77-.07 51.86l3.16 3.14h35.78c34.93 0 35.85.06 38.23 2.74 3.47 3.89 9.73 6.23 16.67 6.23 5.16 0 5.76.26 4.37 1.92-.87 1.06-3.4 1.85-5.6 1.75-2.21-.1-21.63-1.21-43.15-2.46M47.47 589.37c0-.4 3.05-1.61 6.8-2.7 3.73-1.08 8.08-3.35 9.66-5.03 2.62-2.78 4.27-3.13 18.55-3.91 8.61-.47 20.29-1.19 25.93-1.59l10.27-.73-4.19 2.67c-2.29 1.46-5.18 4.25-6.41 6.2l-2.23 3.54-16.68.01c-9.18 0-22.31.52-29.19 1.13-6.88.63-12.51.81-12.51.41M133.39 568.65c5.89-8.56 11.93-24.24 16.56-43.01 4.21-17.02 10.42-49.46 10.42-54.41 0-4.96 2.7-6.09 8.79-3.7 3.8 1.5 5.2 2.7 4.77 4.15-.32 1.11-6.44 24.24-13.6 51.4-7.16 27.15-13.12 49.47-13.26 49.61-.14.14-4.22.67-9.07 1.16l-8.82.91 4.21-6.11" />
</svg>