<svg xmlns="http://www.w3.org/2000/svg" width="350" height="685" version="1.0">
   <defs>
      <linearGradient id="prefix__a">
         <stop offset="0" stop-color="#c13c1b" />
         <stop offset=".839" stop-color="#c13c1b" stop-opacity=".498" />
         <stop offset="1" stop-color="#c13c1b" stop-opacity="0" />
      </linearGradient>
   </defs>
   <path d="M280.015 467.641l-.307 12.343c.092 17.746.562 36.573 4.167 49.573l19.3 143.75 11.118-1.235c-8.34-48.113-10.088-94.907-15.132-142.36-3.038-31.15-9.486-22.25-19.146-62.07z" fill="#fac53a" fill-rule="evenodd" stroke="#c13c1b" stroke-width=".432" />
   <path d="M311.275 190.606h-30.133M311.821 199.668l-30.243.436" fill="none" stroke="#000" stroke-width=".216" />
   <path d="M229.886 129.726l39.73.702c19.383 6.147 34.85 13.406 40.869 34.502 2.172 12.132.178 16.432.926 25.632l.618 9.573c1.33 20.65 1.876 41.457.309 62.687-1.256 18.426 2.697 38.087 3.088 56.512-.628 15.45-4.375 26.909-5.096 40.415l-19.3-1.505c-8.86-49.929-3.742-66.268-5.867-89.245-3.22-28.032-3.231-55.261-4.324-82.76-11.899 21.465-24.346 42.2-31.19 70.407v4.671l6.486 29.916c3.48 4.881 13.453 27.038 6.212 39.67 8.264 48.38 12.168 97.852 11.699 146.232l.617 15.749c1.314 21.452 9.939 42.913 9.573 66.394-.366 23.48-4.595 46.46-7.72 68.864-1.184 25.836 2.385 30.425 1.491 39.848-.894 9.423-6.162 8.992-11.533 8.931-5.473-.061-10.785-.987-10.974-4.595-5.652-1.587-13.63 4.934-72.263 2.662-2.538-.344-2.726-4.075-2.96-6.723 2.614-.714 5.325-1.044 8.229-.596 19.497-9.53 38.654-13.62 58.673-31.498.948-.982 1.746-2.3 1.544-5.868-2.523-35.346-10.216-72.039-13.278-107.465l-.927-5.558c-2.707-6.919-5.105-15.692-8.338-19.455-1.311-7.206-1.854-14.411-6.485-21.617l-14.931-.309c-6.778 19.142-7.697 26.922-11.735 39.837-3.147 18.89-.326 26.913-4.832 41.998-4.543 15.21-14.255 34.954-21.925 49.717-4.702 12.669-11.177 26.047-13.33 37.752-.617 7.54.635 13.364-.259 22.787-.893 9.423-6.162 8.992-11.532 8.931-5.474-.061-10.785-.987-10.974-4.595-5.653-1.587-13.631 4.934-72.263 2.662-2.539-.344-2.727-4.075-2.96-6.723 2.614-.714 5.324-1.044 8.228-.596 19.497-9.53 43.904-14.856 63.897-32.734 1.93-2.156 2.544-4.532 3.28-6.887l22.634-109.224c.029-11.065-1.372-21.58 3.706-34.587l.309-8.646L175.68 304.75l-2.074-7.225c-2.65-6.114-.76-12.588-.85-18.336-2.217-17.228-5.72-34.134-9.572-50.953-2.438-5.673-4.693-12.494-6.507-19.662-1.791-.695-2.317-2.68-1.084-4.556-1.216-5.466-2.153-11.033-2.704-16.362l-.822-.183-1.224 11.04c-.477 2.676-.396 5.31-.856 7.941-3.447 19.672-7.005 39.093-18.982 73.802l-3.979 8.724c-9.02 26.126-22.207 46.39-35.88 65.973l-17.032-12.271c9.843-24.333 16.773-49.597 31.63-72.328l2.653-6.442c1.046-18.874 3.392-45.47 8.431-66.334l1.971-15.639c-5.587-25.87 6.441-43.13 29.366-46.96l37.863-7.364" fill="#a13c2a" fill-rule="evenodd" stroke="#000" stroke-width=".432" stroke-linecap="round" stroke-linejoin="round" />
   <g fill-rule="evenodd" stroke="#000" stroke-linecap="round" stroke-linejoin="round">
      <path d="M-2306.297 184.523l126.243 8.061-.277 76.804-129.037-11.151 3.07-73.714z" fill="#fac53a" transform="matrix(.23889 -.01891 .0161 .22474 828.86 103.307)" />
      <path d="M-2306.69 192.987l126.446 10.278-.033 22.472-127.353-9.681.94-23.07zM-2307.61 224.353l127.059 11.038.146 24.403-128.228-10.692 1.023-24.749z" fill="#04a" transform="matrix(.23889 -.01891 .0161 .22474 828.86 103.307)" />
   </g>
   <path d="M282.626 477.943c-.447-2.634-1.628-5.47-2.009-8.515-4.272-34.2-4.916-92.64-15.083-137.46 2.938-8.146 1.788-17.4-.399-25.108-2.16-7.612-5.229-13.557-6.802-15.794-1.138-5.323-4.491-21.112-5.655-32.29a1.08 1.08 0 00-1.094-.986h0a1.08 1.08 0 00-1.054 1.21c1.195 11.483 4.618 27.496 5.729 32.694.033.15.097.29.189.412 1.148 1.569 4.461 7.781 6.606 15.341 2.146 7.56 3.184 16.555.352 24.096a1.08 1.08 0 00-.04.615c8.55 37.496 10.41 84.888 13.396 119.58.87 10.113 2.725 19.263 3.093 26.542" fill="#fac53a" fill-rule="evenodd" stroke="#000" stroke-width=".216" stroke-linecap="round" stroke-linejoin="round" />
   <path d="M156.798 476.61l16.833-171.093 88.382-.891c1.158 4.702 6.011 14.323.463 26.557 7.642 48.321 12.4 97.275 11.37 145.307l-117.048.12z" fill="#fff" fill-rule="evenodd" stroke="#000" stroke-width=".432" />
   <path d="M273.84 476.828c-90.462-15.205-106.956-83.4-100.209-171.31l82.405-14.567c7.817 13 12.343 30.673 6.468 40.178 7.66 48.434 12.394 97.555 11.335 145.7z" fill="#fac53a" fill-rule="evenodd" stroke="#000" stroke-width=".216" />
   <path d="M153.208 133.896l32.876-6.574 46.534-3.71 35.83 7.407c-6.735 33.984-29.78 46.135-56.481 46.728-25.289.558-37.1-5.936-45.357-14.706-7.848-8.335-12.017-21.411-13.402-29.145z" fill="#fff" fill-rule="evenodd" stroke="#000" stroke-linecap="round" stroke-linejoin="round" stroke-width=".27168" />
   <path d="M166.941 131.148c4.956 24.508 19.253 33.587 45.6 32.55 26.412-1.039 39.559-17.992 41.17-34.45-.009-.222-.016-.547.115-1.127" style="marker:none" color="#000" fill="none" stroke="#04a" stroke-width="4.841337599999999" stroke-linejoin="round" overflow="visible" />
   <path d="M179.478 128.801c4.82 18.648 15.354 22.69 32.552 22.025 16.068-.622 27.977-11.153 27.858-24.364-.042-.503.136-.833.1-1.133" style="marker:none" color="#000" fill="none" stroke="#308d57" stroke-width="3.6739286399999997" overflow="visible" />
   <path d="M171.262 130.563c3.622 17.164 12.732 29.992 40.96 28.756 24.574-1.076 36.363-17.698 36.835-31.589-.016-.062-.017-.356.046-.649" style="marker:none" color="#000" fill="none" stroke="#c13c1b" stroke-width="2.9708208" overflow="visible" />
   <path d="M183.566 127.885c2.44 8.14 5.164 20.31 28.454 18.548 15.258-1.155 22.631-10.254 23.207-18.743.047-.965.04-3.107.157-3.388" style="marker:none" color="#000" fill="none" stroke="#04a" stroke-width="4.3572038399999995" overflow="visible" />
   <path d="M175.268 129.526c4.875 23.183 22.08 26.472 37.215 25.572 20.56-1.227 31.622-13.958 32.192-27.434.018-.247.014-1.17.131-1.544" style="marker:none" color="#000" fill="none" stroke="#04a" stroke-width="4.3572038399999995" overflow="visible" />
   <path d="M158.75 132.941c5.384 26.016 19.893 40.196 52.718 39.028l.387-.015h.011c43.57-1.704 49.082-34.322 50.663-41.916" style="marker:none" color="#000" fill="none" stroke="#fac53a" stroke-width="10.867199999999999" overflow="visible" />
   <path d="M153.208 133.896l32.876-6.574 46.534-3.71 35.83 7.407c-6.735 33.984-29.78 46.135-56.481 46.728-25.289.558-37.1-5.936-45.357-14.706-7.848-8.335-12.017-21.411-13.402-29.145z" fill="none" stroke="#000" stroke-width=".54336" stroke-linecap="round" stroke-linejoin="round" />
   <g fill="none" stroke="#c13c1b">
      <path d="M224.682 173.017c-.631-1.926-.247-5.316.257-7.537 1.576 1.602 3.763 4.276 4.314 6.098 1.062 3.501-3.497 4.713-4.571 1.44z" stroke-width=".27168" />
      <path d="M225.272 172.784c-.467-1.426-.186-3.936.184-5.58 1.164 1.187 2.78 3.169 3.189 4.518.786 2.593-2.577 3.487-3.373 1.062z" stroke-width=".27168" />
      <path style="marker:none" d="M225.265 172.712a2.675 2.675 0 011.466-1.152c.813-.25 1.365-.097 1.825.107M225.107 170.133c.24-.302.77-.597 1.03-.673.281-.083.88-.06 1.157.016" color="#000" stroke-linecap="round" stroke-linejoin="round" overflow="visible" stroke-width=".27168" />
   </g>
   <g fill="none" stroke="#c13c1b">
      <path d="M218.97 173.885c-.44-1.978.27-5.315.987-7.477 1.412 1.747 3.33 4.62 3.703 6.487.717 3.588-3.938 4.352-4.69.99z" stroke-width=".27168" />
      <path d="M219.58 173.71c-.326-1.465.197-3.936.724-5.536 1.043 1.294 2.46 3.424 2.736 4.806.531 2.657-2.903 3.22-3.46.73z" stroke-width=".27168" />
      <path style="marker:none" d="M219.58 173.638c.206-.28.736-.834 1.57-1.005.835-.17 1.369.036 1.807.284M219.673 171.056c.268-.278.824-.52 1.09-.57.288-.056.883.025 1.15.128" color="#000" stroke-linecap="round" stroke-linejoin="round" overflow="visible" stroke-width=".27168" />
   </g>
   <g fill="none" stroke="#c13c1b">
      <path d="M230.507 171.45c-.819-1.854-.773-5.266-.493-7.526 1.727 1.437 4.169 3.881 4.899 5.639 1.404 3.379-3.012 5.037-4.406 1.886z" stroke-width=".27168" />
      <path d="M231.071 171.159c-.606-1.373-.576-3.899-.371-5.571 1.276 1.065 3.08 2.877 3.622 4.179 1.04 2.502-2.219 3.725-3.25 1.392z" stroke-width=".27168" />
      <path style="marker:none" d="M231.057 171.088a2.675 2.675 0 011.344-1.292c.785-.33 1.349-.232 1.826-.075M230.644 168.537c.209-.324.706-.67.957-.772.272-.11.871-.147 1.154-.099" color="#000" stroke-linecap="round" stroke-linejoin="round" overflow="visible" stroke-width=".27168" />
   </g>
   <g fill="none" stroke="#c13c1b">
      <path d="M207.512 174.406c-.036-2.026 1.329-5.153 2.464-7.128 1.034 1.995 2.338 5.194 2.33 7.097-.017 3.66-4.73 3.476-4.794.031z" stroke-width=".27168" />
      <path d="M208.145 174.357c-.026-1.5.98-3.817 1.818-5.28.763 1.478 1.724 3.848 1.718 5.257-.012 2.71-3.489 2.574-3.536.023z" stroke-width=".27168" />
      <path d="M208.16 174.287c.257-.234.888-.67 1.74-.67.85 0 1.333.308 1.712.639M208.767 171.775c.319-.218.911-.344 1.182-.34.294.003.86.201 1.102.355" style="marker:none" color="#000" stroke-linecap="round" stroke-linejoin="round" overflow="visible" stroke-width=".27168" />
   </g>
   <g fill="none" stroke="#c13c1b">
      <path d="M201.992 174.31c.044-2.026 1.53-5.097 2.743-7.025.955 2.033 2.131 5.282 2.048 7.183-.16 3.656-4.863 3.287-4.79-.158z" stroke-width=".27168" />
      <path d="M202.627 174.286c.032-1.5 1.13-3.775 2.024-5.204.704 1.506 1.571 3.912 1.51 5.32-.119 2.708-3.588 2.435-3.534-.116z" stroke-width=".27168" />
      <path style="marker:none" d="M202.644 174.216a2.675 2.675 0 011.765-.601c.85.033 1.32.36 1.686.706M203.35 171.73c.327-.205.924-.308 1.195-.293.293.015.85.235 1.086.399" color="#000" stroke-linecap="round" stroke-linejoin="round" overflow="visible" stroke-width=".27168" />
   </g>
   <g fill="none" stroke="#c13c1b">
      <path d="M213.292 174.376c-.262-2.01.744-5.27 1.65-7.36 1.252 1.867 2.905 4.9 3.11 6.793.393 3.638-4.311 3.983-4.76.567z" stroke-width=".27168" />
      <path d="M213.916 174.256c-.195-1.488.547-3.902 1.215-5.45.923 1.383 2.144 3.63 2.296 5.032.291 2.694-3.18 2.948-3.511.418z" stroke-width=".27168" />
      <path style="marker:none" d="M213.922 174.184c.23-.26.807-.765 1.654-.86.846-.096 1.36.157 1.773.444M214.245 171.62c.292-.252.867-.443 1.136-.47.293-.029.877.104 1.135.23" color="#000" stroke-linecap="round" stroke-linejoin="round" overflow="visible" stroke-width=".27168" />
   </g>
   <g fill="none" stroke="#c13c1b">
      <path d="M164.298 154.343c1.673-1.144 5.035-1.724 7.308-1.862-1.096 1.96-3.052 4.808-4.646 5.848-3.065 2-5.504-2.039-2.662-3.986z" stroke-width=".27168" />
      <path d="M164.688 154.845c1.238-.848 3.726-1.28 5.408-1.386-.814 1.45-2.264 3.556-3.445 4.326-2.27 1.48-4.069-1.498-1.963-2.94z" stroke-width=".27168" />
      <path d="M164.754 154.818a2.675 2.675 0 011.517 1.084c.468.711.475 1.284.408 1.782M167.186 153.944c.357.146.789.572.935.8.158.248.304.83.308 1.116" style="marker:none" color="#000" stroke-linecap="round" stroke-linejoin="round" overflow="visible" stroke-width=".27168" />
   </g>
   <g fill="none" stroke="#c13c1b">
      <path d="M161.67 149.6c1.777-.975 5.18-1.223 7.456-1.137-1.284 1.843-3.51 4.486-5.198 5.364-3.246 1.69-5.277-2.568-2.258-4.227z" stroke-width=".27168" />
      <path d="M162.008 150.137c1.316-.722 3.835-.909 5.519-.848-.953 1.362-2.603 3.316-3.853 3.967-2.404 1.25-3.902-1.89-1.666-3.119z" stroke-width=".27168" />
      <path style="marker:none" d="M162.077 150.117a2.675 2.675 0 011.403 1.228c.396.753.347 1.324.23 1.813M164.583 149.486c.341.18.729.646.851.888.134.261.222.855.198 1.14" color="#000" stroke-linecap="round" stroke-linejoin="round" overflow="visible" stroke-width=".27168" />
   </g>
   <g fill="none" stroke="#c13c1b">
      <path d="M167.499 158.91c1.484-1.38 4.724-2.452 6.952-2.925-.795 2.102-2.307 5.208-3.73 6.472-2.734 2.431-5.745-1.201-3.222-3.548z" stroke-width=".27168" />
      <path d="M167.958 159.348c1.1-1.022 3.496-1.818 5.144-2.171-.59 1.554-1.713 3.852-2.767 4.788-2.025 1.8-4.245-.88-2.377-2.617z" stroke-width=".27168" />
      <path d="M168.02 159.312a2.675 2.675 0 011.66.847c.569.634.66 1.2.668 1.702M170.296 158.087c.375.092.864.449 1.042.653.194.221.424.775.47 1.058" style="marker:none" color="#000" stroke-linecap="round" stroke-linejoin="round" overflow="visible" stroke-width=".27168" />
   </g>
   <g fill="none" stroke="#c13c1b">
      <path d="M157.807 139.303c1.946-.566 5.322-.069 7.525.509-1.654 1.52-4.4 3.617-6.238 4.108-3.535.944-4.594-3.653-1.287-4.617z" stroke-width=".27168" />
      <path d="M158.02 139.901c1.442-.419 3.941-.055 5.572.37-1.226 1.123-3.26 2.673-4.622 3.036-2.619.7-3.399-2.692-.95-3.406z" stroke-width=".27168" />
      <path style="marker:none" d="M158.093 139.897c.292.186.88.68 1.102 1.502.224.822.052 1.368-.168 1.82M160.676 139.825c.293.25.57.788.638 1.05.073.285.031.884-.055 1.157" color="#000" stroke-linecap="round" stroke-linejoin="round" overflow="visible" stroke-width=".27168" />
   </g>
   <g fill="none" stroke="#c13c1b">
      <path d="M156.461 133.966c1.969-.48 5.32.162 7.496.835-1.718 1.448-4.553 3.423-6.41 3.834-3.574.79-4.432-3.849-1.086-4.669z" stroke-width=".27168" />
      <path d="M156.649 134.573c1.457-.356 3.938.116 5.55.61-1.274 1.07-3.374 2.53-4.75 2.834-2.646.585-3.279-2.837-.8-3.444z" stroke-width=".27168" />
      <path d="M156.72 134.572c.285.199.85.718 1.037 1.549.188.83-.008 1.369-.247 1.811M159.304 134.612c.283.262.536.812.592 1.078.061.287-.007.883-.104 1.153" style="marker:none" color="#000" stroke-linecap="round" stroke-linejoin="round" overflow="visible" stroke-width=".27168" />
   </g>
   <g fill="none" stroke="#c13c1b">
      <path d="M159.48 144.616c1.884-.75 5.291-.576 7.54-.21-1.502 1.67-4.036 4.02-5.82 4.683-3.428 1.277-4.92-3.199-1.72-4.473z" stroke-width=".27168" />
      <path d="M159.75 145.19c1.395-.554 3.917-.43 5.58-.162-1.112 1.235-2.99 2.971-4.311 3.463-2.54.945-3.64-2.356-1.269-3.3z" stroke-width=".27168" />
      <path style="marker:none" d="M159.821 145.18c.309.157.94.593 1.241 1.39.3.797.181 1.357.006 1.828M162.385 144.861c.317.221.644.731.736.986.1.276.115.876.056 1.156" color="#000" stroke-linecap="round" stroke-linejoin="round" overflow="visible" stroke-width=".27168" />
   </g>
   <g fill="none" stroke="#c13c1b">
      <path d="M175.748 166.397c1.03-1.745 3.83-3.695 5.831-4.783-.163 2.241-.728 5.65-1.731 7.267-1.93 3.109-5.85.484-4.1-2.484z" stroke-width=".27168" />
      <path d="M176.313 166.687c.763-1.293 2.834-2.739 4.313-3.546-.123 1.658-.545 4.18-1.288 5.378-1.43 2.302-4.32.366-3.025-1.832z" stroke-width=".27168" />
      <path d="M176.363 166.634a2.675 2.675 0 011.833.34c.725.446.974.961 1.124 1.442M178.195 164.813c.386-.02.957.183 1.186.328.248.158.627.622.752.88" style="marker:none" color="#000" stroke-linecap="round" stroke-linejoin="round" overflow="visible" stroke-width=".27168" />
   </g>
   <g fill="none" stroke="#c13c1b">
      <path d="M171.33 162.924c1.3-1.555 4.38-3.023 6.531-3.772-.525 2.185-1.636 5.456-2.89 6.889-2.408 2.754-5.85-.473-3.64-3.117z" stroke-width=".27168" />
      <path d="M171.84 163.302c.964-1.152 3.242-2.242 4.832-2.799-.39 1.616-1.217 4.037-2.145 5.098-1.784 2.04-4.322-.341-2.686-2.3z" stroke-width=".27168" />
      <path style="marker:none" d="M171.898 163.258a2.675 2.675 0 011.753.633c.644.558.805 1.107.875 1.605M174.002 161.758c.383.044.914.337 1.116.517.22.196.518.716.6.99" color="#000" stroke-linecap="round" stroke-linejoin="round" overflow="visible" stroke-width=".27168" />
   </g>
   <g fill="none" stroke="#c13c1b">
      <path d="M180.613 169.121c.835-1.846 3.408-4.088 5.279-5.386.08 2.245-.112 5.695-.934 7.41-1.582 3.3-5.763 1.116-4.345-2.024z" stroke-width=".27168" />
      <path d="M181.206 169.348c.619-1.368 2.52-3.03 3.903-3.992.057 1.661-.089 4.214-.698 5.485-1.17 2.444-4.255.832-3.205-1.493z" stroke-width=".27168" />
      <path d="M181.25 169.29c.332-.1 1.089-.225 1.858.14.77.364 1.073.85 1.274 1.311M182.874 167.281c.381-.06.97.079 1.214.198.264.13.69.55.843.794" style="marker:none" color="#000" stroke-linecap="round" stroke-linejoin="round" overflow="visible" stroke-width=".27168" />
   </g>
   <g fill="none" stroke="#c13c1b">
      <path d="M191.117 172.785c.386-1.989 2.372-4.764 3.893-6.459.596 2.166 1.206 5.567.801 7.426-.776 3.576-5.349 2.416-4.694-.967z" stroke-width=".27168" />
      <path d="M191.746 172.869c.287-1.473 1.753-3.53 2.876-4.786.44 1.604.887 4.122.587 5.5-.575 2.648-3.948 1.791-3.463-.714z" stroke-width=".27168" />
      <path style="marker:none" d="M191.775 172.803c.3-.175 1.008-.47 1.841-.294.833.177 1.24.58 1.542.982M192.892 170.473c.357-.147.963-.147 1.227-.087.286.065.8.376 1.003.577" color="#000" stroke-linecap="round" stroke-linejoin="round" overflow="visible" stroke-width=".27168" />
   </g>
   <g fill="none" stroke="#c13c1b">
      <path d="M185.81 171.272c.58-1.942 2.827-4.51 4.506-6.048.382 2.214.656 5.658.072 7.47-1.123 3.482-5.56 1.88-4.577-1.422z" stroke-width=".27168" />
      <path d="M186.429 171.417c.429-1.439 2.09-3.341 3.33-4.482.28 1.64.479 4.189.046 5.53-.831 2.58-4.104 1.397-3.376-1.048z" stroke-width=".27168" />
      <path d="M186.464 171.354a2.675 2.675 0 011.86-.112c.812.257 1.178.698 1.44 1.128M187.803 169.144c.37-.111.973-.052 1.23.033.278.093.758.453.942.673" style="marker:none" color="#000" stroke-linecap="round" stroke-linejoin="round" overflow="visible" stroke-width=".27168" />
   </g>
   <g fill="none" stroke="#c13c1b">
      <path d="M196.446 173.772c.172-2.02 1.852-4.99 3.184-6.837.824 2.09 1.79 5.408 1.586 7.3-.392 3.638-5.062 2.97-4.77-.463z" stroke-width=".27168" />
      <path d="M197.08 173.788c.128-1.495 1.368-3.696 2.352-5.064.607 1.548 1.319 4.004 1.168 5.405-.291 2.695-3.736 2.202-3.52-.341z" stroke-width=".27168" />
      <path style="marker:none" d="M197.102 173.72c.28-.206.952-.576 1.8-.488.846.087 1.294.444 1.637.812M197.965 171.284c.339-.184.942-.249 1.21-.217.293.034.835.289 1.06.467" color="#000" stroke-linecap="round" stroke-linejoin="round" overflow="visible" stroke-width=".27168" />
   </g>
   <g fill="none" stroke="#c13c1b">
      <path d="M241.173 166.875c-1.192-1.638-1.868-4.983-2.07-7.251 1.99 1.04 4.893 2.913 5.978 4.477 2.086 3.006-1.88 5.56-3.908 2.774z" stroke-width=".27168" />
      <path d="M241.664 166.472c-.883-1.214-1.387-3.689-1.54-5.367 1.472.773 3.619 2.162 4.422 3.32 1.546 2.227-1.38 4.11-2.882 2.047z" stroke-width=".27168" />
      <path d="M241.635 166.406a2.675 2.675 0 011.04-1.547c.698-.488 1.27-.512 1.77-.458M240.692 164c.135-.36.548-.804.773-.957.242-.165.82-.328 1.106-.34" style="marker:none" color="#000" stroke-linecap="round" stroke-linejoin="round" overflow="visible" stroke-width=".27168" />
   </g>
   <g fill="none" stroke="#c13c1b">
      <path d="M236.09 169.493c-1.046-1.735-1.43-5.126-1.436-7.403 1.893 1.208 4.623 3.326 5.569 4.978 1.818 3.175-2.355 5.376-4.134 2.425z" stroke-width=".27168" />
      <path d="M236.613 169.134c-.775-1.286-1.063-3.795-1.07-5.48 1.4.897 3.419 2.467 4.119 3.69 1.346 2.352-1.732 3.975-3.05 1.79z" stroke-width=".27168" />
      <path style="marker:none" d="M236.59 169.066a2.675 2.675 0 011.17-1.451c.737-.427 1.309-.4 1.803-.304M235.859 166.588c.166-.349.616-.755.852-.887.256-.144.846-.256 1.132-.243" color="#000" stroke-linecap="round" stroke-linejoin="round" overflow="visible" stroke-width=".27168" />
   </g>
   <g fill="none" stroke="#c13c1b">
      <path d="M246.029 163.685c-1.425-1.441-2.597-4.646-3.139-6.858 2.126.729 5.277 2.144 6.585 3.527 2.514 2.658-1.023 5.78-3.446 3.33z" stroke-width=".27168" />
      <path d="M246.453 163.212c-1.056-1.067-1.926-3.438-2.33-5.074 1.572.542 3.903 1.593 4.872 2.617 1.862 1.969-.748 4.27-2.542 2.457z" stroke-width=".27168" />
      <path style="marker:none" d="M246.414 163.151c.025-.346.18-1.098.796-1.686.616-.587 1.178-.696 1.68-.72M245.12 160.915c.08-.378.422-.878.62-1.063.216-.2.762-.447 1.043-.503" color="#000" stroke-linecap="round" stroke-linejoin="round" overflow="visible" stroke-width=".27168" />
   </g>
   <g fill="none" stroke="#c13c1b">
      <path d="M254.384 155.615c-1.764-.997-3.765-3.761-4.89-5.741 2.243.121 5.661.623 7.297 1.597 3.144 1.871.592 5.839-2.407 4.144z" stroke-width=".27168" />
      <path d="M254.663 155.045c-1.307-.74-2.79-2.782-3.626-4.246 1.66.092 4.19.467 5.401 1.188 2.33 1.386.446 4.313-1.775 3.058z" stroke-width=".27168" />
      <path d="M254.61 154.997a2.675 2.675 0 01.305-1.84c.432-.733.943-.991 1.42-1.15M252.754 153.198c-.026-.385.166-.96.307-1.191.152-.251.61-.639.866-.769" style="marker:none" color="#000" stroke-linecap="round" stroke-linejoin="round" overflow="visible" stroke-width=".27168" />
   </g>
   <g fill="none" stroke="#c13c1b">
      <path d="M250.471 159.949c-1.6-1.245-3.175-4.271-3.998-6.394 2.201.448 5.51 1.444 6.985 2.646 2.837 2.31-.267 5.863-2.987 3.748z" stroke-width=".27168" />
      <path d="M250.83 159.426c-1.184-.922-2.353-3.16-2.965-4.73 1.628.334 4.076 1.074 5.169 1.964 2.101 1.712-.189 4.332-2.203 2.766z" stroke-width=".27168" />
      <path style="marker:none" d="M250.785 159.37a2.675 2.675 0 01.571-1.774c.535-.663 1.078-.844 1.574-.931M249.213 157.32c.03-.385.304-.925.477-1.134.187-.226.697-.542.969-.633" color="#000" stroke-linecap="round" stroke-linejoin="round" overflow="visible" stroke-width=".27168" />
   </g>
   <g fill="none" stroke="#c13c1b">
      <path d="M257.482 150.923c-1.805-.92-3.925-3.594-5.135-5.523 2.246.024 5.683.376 7.36 1.277 3.222 1.733.846 5.808-2.225 4.246z" stroke-width=".27168" />
      <path d="M257.736 150.341c-1.337-.681-2.909-2.658-3.807-4.084 1.663.02 4.206.285 5.448.952 2.387 1.283.634 4.29-1.64 3.132z" stroke-width=".27168" />
      <path d="M257.68 150.295a2.675 2.675 0 01.226-1.85c.4-.752.9-1.032 1.37-1.212M255.75 148.58c-.044-.384.123-.967.254-1.204.14-.258.581-.665.831-.806" style="marker:none" color="#000" stroke-linecap="round" stroke-linejoin="round" overflow="visible" stroke-width=".27168" />
   </g>
   <g fill="none" stroke="#c13c1b">
      <path d="M262.08 140.941c-1.94-.589-4.495-2.85-6.024-4.537 2.216-.37 5.661-.626 7.47-.032 3.476 1.14 1.85 5.57-1.446 4.57z" stroke-width=".27168" />
      <path d="M262.228 140.324c-1.436-.437-3.33-2.107-4.464-3.354 1.64-.271 4.19-.457 5.53-.017 2.575.845 1.376 4.112-1.066 3.37z" stroke-width=".27168" />
      <path style="marker:none" d="M262.165 140.288a2.675 2.675 0 01-.102-1.86c.262-.811.704-1.174 1.135-1.434M259.962 138.937c-.11-.37-.047-.972.04-1.229.094-.278.457-.756.678-.939" color="#000" stroke-linecap="round" stroke-linejoin="round" overflow="visible" stroke-width=".27168" />
   </g>
   <g fill="none" stroke="#c13c1b">
      <path d="M260.161 145.985c-1.885-.742-4.252-3.2-5.642-5.005 2.239-.192 5.694-.171 7.449.565 3.374 1.416 1.4 5.7-1.807 4.44z" stroke-width=".27168" />
      <path d="M260.358 145.381c-1.396-.55-3.15-2.366-4.181-3.7 1.657-.14 4.214-.12 5.514.425 2.499 1.048 1.042 4.209-1.333 3.275z" stroke-width=".27168" />
      <path d="M260.299 145.341a2.675 2.675 0 01.046-1.864c.326-.786.796-1.113 1.247-1.337M258.211 143.818c-.08-.377.03-.973.138-1.222.116-.27.515-.717.75-.882" style="marker:none" color="#000" stroke-linecap="round" stroke-linejoin="round" overflow="visible" stroke-width=".27168" />
   </g>
   <g fill="none" stroke="#c13c1b">
      <path d="M263.813 135.692c-1.991-.377-4.775-2.35-6.477-3.864 2.163-.606 5.562-1.23 7.423-.835 3.58.76 2.44 5.338-.946 4.699z" stroke-width=".27168" />
      <path d="M263.894 135.062c-1.475-.28-3.537-1.737-4.799-2.854 1.602-.447 4.118-.905 5.497-.612 2.65.563 1.81 3.94-.698 3.466z" stroke-width=".27168" />
      <path style="marker:none" d="M263.828 135.034a2.675 2.675 0 01-.302-1.84c.173-.834.574-1.242.975-1.546M261.493 133.927c-.149-.356-.152-.962-.093-1.226.064-.287.373-.801.573-1.006" color="#000" stroke-linecap="round" stroke-linejoin="round" overflow="visible" stroke-width=".27168" />
   </g>
   <path d="M280.064 466.55l-1.202.32.74 12.022c.093 17.746.563 36.573 4.168 49.573l5.23-8.442 10.056 8.597c-3.039-31.149-9.332-22.25-18.992-62.07z" fill="#04a" fill-rule="evenodd" stroke="#000" stroke-width=".432" />
   <path d="M285.125 535.872l5.853-8.286 7.865 6.627" fill="none" stroke="#c13c1b" stroke-width=".432" stroke-linecap="round" stroke-linejoin="round" />
   <path d="M286.093 543.068l5.723-8.033 7.637 6.376M287.169 550.608l5.476-7.765 7.417 6.204M288.271 558.647l5.412-7.637 7.149 5.956M289.239 566.06l5.264-7.54 7.105 5.923M290.32 573.858l5.021-7.232 6.895 5.827M291.51 581.53l4.888-7.018 6.719 5.69M292.507 588.86l4.72-6.758 6.455 5.482M293.426 595.763l4.621-6.587 6.235 5.31M294.143 603.097l4.802-6.419 6.041 5.014M295.03 610.362l4.894-6.225 5.835 4.959M295.973 617.758l4.57-5.734 6.159 4.535M296.996 625.03l4.595-5.635 5.745 4.135M299.63 643.904l4.43-5.172 5.418 3.503M298.756 638.054l4.364-5.557 5.668 3.903M297.97 631.422l4.441-5.17 5.554 3.733M300.515 650.469l4.472-5.274 5.311 3.974M301.39 656.633l4.199-5.018 5.495 3.503M302.905 668.86l4.43-5.017 5.728 3.504M302.263 662.647l4.155-4.753 5.619 3.596M303.24 671.11l10.15-1.533" fill="none" stroke="#c13c1b" stroke-width=".432" stroke-linecap="round" stroke-linejoin="round" />
   <g fill-rule="evenodd" stroke="#000" stroke-linecap="round" stroke-linejoin="round">
      <path d="M294.847 462.072c2.696-.88 4.905-.544 7.031 0l-1.24-33.732 16.064 1.072c-.492-2.416-.658-4.832 0-7.248l-16.063 1.127h0c3.364-6.013 8.081-11.345 9.778-20.139 3.428-17.771-5.634-17.025-11.92-17.082-6.844-.061-16.948 1.008-12.744 17.84 1.933 7.741 6.647 13.83 10.45 19.381h0l-18.053-1.127c.606 2.416.548 4.832 0 7.248l18.052-1.072h0l-1.355 33.732z" fill="#025" stroke-width=".21417" />
      <path d="M296.202 418.324c-3.47-4.71-6.798-9.312-7.637-15.388-1.694-12.282 4.683-13.654 9.842-13.685 4.587-.027 11.366.623 8.332 13.577-1.424 6.077-3.639 11.545-6.1 15.496-1.541 2.087-3.196 1.745-4.437 0z" fill="#fff" stroke-width=".21417" />
   </g>
   <path d="M310.26 365.812l-19.85-.54c-.993 4.965-3.446 10.222-5.841 15.468-3.166 5.026-3.372 11.44-2.488 17.524l-.325 5.734c8.916 1.067.302-10.832 5.95-15.253l.865 8.221c1.617 1.54 3.21 2.757 4.544.325 1.586 1.777 3.173 1.648 4.76-.325 1.94 2.509 3.523.743 5.192 0 1.778 1.392 3.66 1.886 4.868-1.298.35-8.683 2.948-17.116 2.325-29.856z" fill="#a13c2a" fill-rule="evenodd" stroke="#000" stroke-width=".432" stroke-linecap="round" stroke-linejoin="round" />
   <g fill-rule="evenodd" stroke="#000" stroke-linecap="round" stroke-linejoin="round">
      <path d="M290.24 354.076l20.824.162-.866 13.143-19.85-.757-.108-12.548z" fill="#fac53a" stroke-width=".21417" />
      <path d="M290.24 355.969l20.661.27-.212 4.06-20.395-.32-.054-4.01z" fill="#04a" stroke-width=".21417" />
      <path d="M290.022 354.021l20.878.217-.593 13.088-20.232-.702-.053-12.603z" fill="#fac53a" stroke-width=".21417" />
      <path d="M290.047 355.969l20.854.27-.25 4.06-20.55-.32-.054-4.01zM290.086 361.208l20.49.309-.212 4.06-20.224-.359-.054-4.01z" fill="#04a" stroke-width=".21417" />
   </g>
   <path d="M78.756 341.957c-10.26 1.609-22.706 5.432-31.006 18.986l-5.114 3.167c2.705 5.952 8.037 2.536 9.736-.573-1.007 2.749-.477 4.505 2.77 4.511-.688 2.563.216 4.048 3.228 4.104-1.604 2.526.297 4.752 3.075 4.24-.977 3.232.756 4.605 2.472 4.637 4.58 1.97 25.029-23.414 27.066-25.628" fill="#a13c2a" fill-rule="evenodd" stroke="#000" stroke-width=".432" stroke-linecap="round" stroke-linejoin="round" />
   <path d="M52.357 150.233c.717-7.123-.404-13.377 2.521-22.039 3.57-10.569 7.136-12.401 11.293-17.955 1.575-1.287 4.167.058 3.316 2.504-4.82 4.491-8.262 10.623-9.668 14.123 1.447-.164 8.412-.698 8.568 6.519l-.024 492.833c7.755 8.899 1.089 15.739 1.506 23.47-.793.382-1.422.138-1.503-.536-1.038-8.46 1.848-12.15-.051-16.55-.908-2.103-2.608-2.005-3.598-.214-2.133 3.857.855 6.23.076 16.682-.057.76-.989.98-1.369.524-.486-7.768-5.855-14.315 1.252-23.385l-.008-492.235c-.4-4.026-4.757-4.458-6.92.092-2.536 5.334-1.461 10.863-2.141 16.292-1.126 3.498-3.441 2.15-3.25-.125z" fill="#025" fill-rule="evenodd" stroke="#000" stroke-width=".214" stroke-linecap="round" stroke-linejoin="round" />
   <g fill-rule="evenodd" stroke="#000" stroke-linecap="round" stroke-linejoin="round">
      <path d="M79.123 328.784l21.398 12.624-9.246 13.956-17.57-12.765 5.418-13.815z" fill="#fac53a" stroke-width=".28617" />
      <path d="M78.435 330.524l20.882 13.028-2.71 3.973-19.673-13.04 1.5-3.96zM76.102 336.625l18.927 13.079-2.929 4.355-17.718-13.09 1.72-4.344z" fill="#04a" stroke-width=".28617" />
   </g>
   <path d="M65.29 352.768c3.666-2.82 8.043-2.395 4.591 1.785 2.974-2.83 9.084-2.346 3.018 3.458 5.533-3.328 5.841 1.142 3.005 3.662 3.732-2.29 4.733 1.309.93 4.971-3.792 4.72-8.236 9.547-12.524 14.238-.08.084-.186.137-.356.12-1.716-.033-3.423-1.24-2.445-4.473-2.779.512-4.68-1.714-3.076-4.24-3.011-.056-3.915-1.54-3.228-4.104-3.246-.006-4.096-1.275-3.088-4.023.133-.23.263-.407.39-.541 4.58-4.955 8.793-8.515 12.665-10.784m.833-.51c-.29 1.228.936 2.9 3.01 2.933m.84-.531c-.831 1.442 1.603 3.408 2.925 3.33m.34-.198c-1.224 1.513.571 4.712 3.195 3.37m-.457.507c-.708 1.605.586 3.26 2.027 3.607m-19.438 6.941c.534-.377 14.484-14.255 14.484-14.255M55.34 368.104c.763-.773 14.598-13.572 14.598-13.572m-8.365 21.97l14.433-14.907" fill="#a13c2a" fill-rule="evenodd" stroke="#000" stroke-width=".432" stroke-linecap="round" stroke-linejoin="round" />
   <path d="M69.855 354.729c-.243.168-.282.502-.84.531-2.527.005-3.127-2.491-3.031-2.938 3.465-2.255 7.166-1.604 3.938 2.306 2.973-2.83 9.043-2.421 2.977 3.383 5.533-3.328 5.911 1.029 3.075 3.549 3.316-2.036 4.406.694 1.932 3.828-1.462-.39-2.756-2.045-1.911-3.81-2.487 1.184-4.099-2.204-3.045-3.618-1.492.177-3.926-1.79-3.095-3.231z" fill="#fff" fill-rule="evenodd" stroke="#000" stroke-width=".432" stroke-linecap="round" stroke-linejoin="round" />
   <path d="M70.722 351.316c-2.426-.894-5.608.893-12.634 6.77l-1.296-7.426c7.361-5.004 10.655-6.424 17.04-7.775" fill="#a13c2a" fill-rule="evenodd" />
   <path d="M58.088 358.086c7.026-5.877 10.31-7.673 12.736-6.78m2.94-8.378c-6.385 1.351-9.75 2.626-17.09 7.846" fill="none" stroke="#000" stroke-width=".432" />
   <g fill-rule="evenodd" stroke="#000" stroke-linecap="round" stroke-linejoin="round">
      <path d="M-2298.264 185.199l129.779 8.359-8.488 77.742-132.395-13.063 11.104-73.038z" fill="#fac53a" transform="matrix(.26144 -.00426 .00494 .22537 717.942 135.973)" />
      <path d="M-2299.299 193.609l129.66 10.549-2.604 22.255-130.567-9.952 3.511-22.852zM-2304.076 224.65L-2173.32 236l-2.746 24.159-131.762-10.989 3.753-24.52z" fill="#04a" transform="matrix(.26144 -.00426 .00494 .22537 717.942 135.973)" />
   </g>
   <g fill-rule="evenodd" stroke="#000" stroke-linecap="round" stroke-linejoin="round">
      <path d="M-2301.611 184.81l110.51 7.598-12.757 77.185-100.902-10.518 3.149-74.266z" fill="#fac53a" transform="matrix(.25786 .0433 -.03608 .22252 733.995 669.913)" />
      <path d="M-2302.218 193.931l109.506 8.31-3.595 21.223-106.536-7.241.625-22.292zM-2303.251 224.49l104.788 11.037-4.15 23.206-101.819-9.488 1.18-24.755z" fill="#04a" transform="matrix(.25786 .0433 -.03608 .22252 733.995 669.913)" />
   </g>
   <g fill-rule="evenodd" stroke="#000" stroke-linecap="round" stroke-linejoin="round">
      <path d="M-2305.348 184.73l117.692 7.561-12.03 77.508-107.182-11.397 1.52-73.671z" fill="#fac53a" transform="matrix(.26105 -.01487 .01408 .22499 846.733 541.573)" />
      <path d="M-2305.446 193.202l116.011 9.648-3.645 22.187-112.856-8.782.49-23.053zM-2306.264 224.506l112.106 10.117-3.892 24.083-108.633-9.46.42-24.74z" fill="#04a" transform="matrix(.26105 -.01487 .01408 .22499 846.733 541.573)" />
   </g>
   <path d="M273.84 476.828c-90.462-15.205-106.956-83.4-100.209-171.31l82.405-14.567c7.817 13 12.425 30.564 6.55 40.069 7.66 48.434 12.312 97.664 11.253 145.808z" fill="#fac53a" fill-rule="evenodd" stroke="#000" stroke-width=".216" />
   <g>
      <path d="M255.772 290.806l-6.27-29.79-75.806 36.691-.231 7.61 82.307-14.51z" fill="#fac53a" fill-rule="evenodd" stroke="#000" stroke-linecap="round" stroke-linejoin="round" stroke-width=".21617" />
      <path d="M223.085 279.712l6.634-2.76 1.658 4.098-6.732 2.396-1.56-3.734z" fill="#04a" fill-rule="evenodd" stroke="#04a" stroke-width=".24989251999999998" />
      <path d="M232.371 275.85l6.035-2.532 1.938 4.724-6.18 2.11-1.793-4.302z" fill="#c13c1b" fill-rule="evenodd" stroke="#c13c1b" stroke-width=".24989251999999998" />
      <path d="M241.106 272.376l6.879-2.9 2.081 5.018-7.132 2.487-1.828-4.605z" fill="#04a" fill-rule="evenodd" stroke="#04a" stroke-width=".24989251999999998" />
      <path d="M249.5 260.907l.738 3.653-73.133 32.072-3.249.909 75.643-36.634z" fill="#fff" fill-rule="evenodd" stroke="#000" stroke-linecap="round" stroke-linejoin="round" stroke-width=".21617" />
      <path d="M186.362 294.652l6.054-2.42.858 2.324-6.116 2.251-.796-2.155z" fill="#04a" fill-rule="evenodd" stroke="#04a" stroke-width=".24989251999999998" />
      <path d="M195.418 291.052l6.42-2.697.994 2.743-6.47 2.318-.944-2.364z" fill="#c13c1b" fill-rule="evenodd" stroke="#c13c1b" stroke-width=".24989251999999998" />
      <path d="M204.469 287.416l6.517-2.81 1.372 3.233-6.835 2.363-1.054-2.786z" fill="#04a" fill-rule="evenodd" stroke="#04a" stroke-width=".24989251999999998" />
      <path d="M213.851 283.334l6.689-2.761 1.632 3.865-6.843 2.432-1.478-3.536z" fill="#308d57" fill-rule="evenodd" />
      <path d="M252.122 273.989l-66.938 23.58M250.913 268.145l-67.79 27.732M240.16 272.699l1.926 4.594M239.281 272.936l1.91 4.723M249.743 268.696l2.102 5.248M248.871 269.062l2.146 5.201M231.504 276.275l1.892 4.165M230.567 276.611l1.852 4.177M222.293 280.011l1.52 3.68M221.387 280.245l1.65 3.854M212.707 283.845l1.508 3.272M211.874 284.223l1.452 3.289M203.614 287.727l1.015 2.754M202.686 288.11l1.095 2.744M194.575 291.406l.79 2.434M193.56 291.764l.873 2.475M185.544 294.999l.787 2.052M184.743 295.234l.865 2.102" fill="none" stroke="#000" stroke-width=".24989251999999998" stroke-linecap="round" stroke-linejoin="round" />
      <path d="M243.514 282.946l7.162-2.107 1.503 5.22-7.366 1.669-1.299-4.782z" fill="#04a" fill-rule="evenodd" stroke="#04a" stroke-width=".24989251999999998" />
      <path d="M234.444 285.416l6.281-1.838 1.473 4.858-6.457 1.455-1.297-4.475z" fill="#c13c1b" fill-rule="evenodd" stroke="#c13c1b" stroke-width=".24989251999999998" />
      <path d="M224.783 288.208l6.902-1.995 1.187 4.258-6.96 1.623-1.13-3.886z" fill="#04a" fill-rule="evenodd" stroke="#04a" stroke-width=".24989251999999998" />
      <path d="M215.2 290.768l6.956-1.991 1.188 4.024-7.074 1.647-1.07-3.68z" fill="#308d57" fill-rule="evenodd" />
      <path d="M205.418 293.769l6.792-2.058.999 3.366-7.141 1.648-.65-2.956z" fill="#04a" fill-rule="evenodd" stroke="#04a" stroke-width=".24989251999999998" />
      <path d="M196.022 296.3l6.677-1.894.678 2.837-6.689 1.575-.666-2.518z" fill="#c13c1b" fill-rule="evenodd" stroke="#c13c1b" stroke-width=".24989251999999998" />
      <path d="M187.008 298.917l6-1.631.644 2.256-6.072 1.453-.572-2.078z" fill="#04a" fill-rule="evenodd" stroke="#04a" stroke-width=".24989251999999998" />
      <path d="M254.6 285.642l-69.487 16.047M253.376 279.989l-69.923 19.747M242.539 283.16l1.396 4.782M241.638 283.297l1.366 4.908M252.508 280.25l1.501 5.462M251.603 280.526l1.547 5.41M233.535 285.74l1.411 4.351M232.566 285.969l1.37 4.359M223.962 288.416l1.096 3.829M223.035 288.547l1.207 4.015M214.005 291.148l1.131 3.42M213.135 291.429l1.073 3.431M204.534 293.982l.699 2.85M203.568 294.258l.78 2.85M195.06 296.622l.664 2.428M194.089 296.862l.706 2.595M186.372 299.017l.595 2.204M185.726 299.2l.485 2.112" fill="none" stroke="#000" stroke-width=".24989251999999998" stroke-linecap="round" stroke-linejoin="round" />
      <path d="M185.931 297.95l66.636-22.16M186.1 298.441l66.888-20.475M185.255 302.253l69.612-15.23M184.22 302.997l71.204-13.826M179.758 296.015l70.672-30.349M181.565 295.913l69.147-28.99" fill="none" stroke="#000" stroke-width=".21617" />
      <path d="M173.43 305.358c7.905-1.79 13.707-.977 12.6-6.883-.809-4.309-8.229-2.253-12.329-.93l-.272 7.813z" fill="#fac53a" fill-rule="evenodd" stroke="#000" stroke-linecap="round" stroke-linejoin="round" stroke-width=".21617" />
   </g>
   <g>
      <path d="M156.797 476.656l16.98-170.265 88.627-.107c1.155 4.703 5.287 13.354.316 25.97 7.616 48.325 12.236 97.132 11.18 145.164l-117.103-.762z" fill="#fff" fill-rule="evenodd" stroke="#000" stroke-width=".43234" />
      <path d="M273.642 477.018c-90.453-15.254-106.91-83.457-100.116-171.365l82.412-14.522c7.81 13.004 12.545 31.472 6.664 40.973 7.634 48.439 12.124 96.77 11.04 144.914z" fill="#fac53a" fill-rule="evenodd" stroke="#000" stroke-width=".21617" />
      <path d="M255.755 291.208l-66.818 130.9M251.765 291.892l-64.67 126.693M185.389 414.796l62.393-122.234M243.769 293.293L183.727 410.92M182.195 406.789l57.565-112.775M235.76 294.72l-55.035 107.816M179.361 398.077l52.41-102.675M227.794 296.06L178.108 393.4M176.95 388.536l46.819-91.72M219.76 297.536l-43.82 85.847M174.981 378.13l40.766-79.863M211.77 298.925l-37.568 73.6M173.521 366.726l34.24-67.08M203.767 300.34l-30.789 60.317M172.566 354.333l27.194-53.274M195.771 301.74l-23.467 45.975M172.177 340.832l19.604-38.407M187.755 303.18l-15.55 30.463M172.384 326.162l11.395-22.324M179.752 304.595l-7.114 13.937M173.177 310.344l2.586-5.066M257.778 294.376l-66.94 131.141M192.823 428.759l66.72-130.708M261.185 301.966l-66.332 129.95M196.97 434.899l65.69-128.691M263.925 310.862l-64.75 126.85M201.427 440.431L264.9 316.084M265.208 322.612l-61.434 120.353M206.146 445.45l56.86-111.393M263.824 339.588l-55.226 108.19M211.044 450.118l53.562-104.93M265.432 350.701l-51.83 101.538M216.23 454.223l49.949-97.853M266.97 361.953l-48.083 94.197M221.614 457.94l46.006-90.13M268.35 373.514l-43.997 86.192M227.16 461.338l41.883-82.053M269.589 385.35l-39.61 77.598M232.874 464.408l37.444-73.356M270.793 397.254l-34.989 68.545M238.805 467.052l32.568-63.803M271.767 409.61l-29.975 58.722M244.81 469.55l27.425-53.726M272.684 422.077l-24.755 48.496M250.985 471.719L273 428.589M273.283 435.168l-19.111 37.44M257.384 473.447l16.198-31.734M273.75 448.516l-13.162 25.785M263.819 475.104l9.993-19.578M273.91 462.467l-6.786 13.295M270.44 476.395l3.357-6.575" fill="none" stroke="#c13c1b" stroke-width=".43234" />
      <path d="M273.608 477.018c-90.453-15.254-106.91-83.457-100.117-171.365l82.413-14.522c7.81 13.004 12.545 31.472 6.664 40.973 7.634 48.439 12.124 96.77 11.04 144.914z" fill="none" stroke="#000" stroke-width=".43234" />
   </g>
   <path d="M176.84 288.946a.813 2.047-.507 11-1.627 0 .813 2.047-.507 111.627 0z" style="marker:none" color="#000" fill-opacity=".706" fill-rule="evenodd" overflow="visible" />
   <path d="M221.973 56.978l2.956 40.868 7.323 26.138c-1.157 9.622-5.945 17.076-20.834 18.687-13.585 1.47-21.97-4.199-24.597-17.925-1.324-4.641-3.567-9.774-4.522-13.947-4.734 1.424-26.263-3.906-25.341-8.749.358-.902.716-2.723 1.074-4.766-.035-2.08-.804-2.82-2.16-3.024-.776.196-1.79-3.744.439-4.169-2.2.055-2.106-2.603-1.69-3.658.43-1.108.65-2.475.363-3.343-4.477-.21-7.826-3.17-5.557-7.909 2.173-4.54 8.25-12.698 11.55-18.12-.113-2.096.915-6.172 2.533-9.255 6.545-.731 38.286-3.292 33.28 11.663l25.183-2.491z" fill="#a13c2a" fill-rule="evenodd" stroke="#000" stroke-width=".363" />
   <path d="M198.42 61.697c-1.185 32.283-10.022 50.124-39.165 43.97" fill="none" stroke="#000" stroke-width="1.451" />
   <path d="M195.59 59.04c-2.492-.626-4.885-1.454-7.03-2.775-4.04-2.484-7.044-5.815-12.707-6.97-4.542-.846-8.585-.443-11.242.707-2.695 1.166-1.5 3.34.616 2.529 2.116-.812 5.94-1.518 9.578-.769 3.637.75 9.227 5.046 12.706 6.97 3.479 1.924 5.37 2.321 7.895 2.837.411-.93.43-1.762.185-2.529zM195.776 63.111c-6.61-.797-8.376-.852-13.878-2.96-7.324-2.547-15.67-5.853-19.43.555-1.648 2.61-2.93 3.563 1.05 3.269 10.26 2.382 12.585.045 17.208-.925 3.442.594 9.034 1.85 14.557 3.084.464-.933.686-1.926.493-3.023z" fill-rule="evenodd" stroke="#000" stroke-width=".086" />
   <path d="M175.443 58.97c-3.68-1.542-7.202-2.364-10.075-.218.237 2.004.917 3.633 2.66 4.362 2.084.473 5.644.283 6.935-.872 1.29-1.156 1.64-2.697.48-3.272z" fill="none" stroke="#000" stroke-width=".086" />
   <path d="M179.464 61.617c-1.615-.453-2.505-1.051-3.576-1.613.16 1.129-.35 1.811-.872 2.486.581.218 3.693-.655 4.448-.873zM165.407 59.621c-1.217 1.382-1.614 1.951-1.828 3.318 1.687-.188 3.088.502 4.406.175-1.714-1.105-2.364-1.927-2.578-3.493z" fill="#fff" fill-rule="evenodd" stroke="#000" stroke-width=".086" />
   <path d="M166.098 92.38c-3.63-1.58-7.296.601-10.642 1.264m-.829-7.196c4.25-1.79 7.563 2.5 10.599 2.006M158.258 76.765c4.425 3.586 2.048 5.806-.043 5.714-2.07-.092-5.057-3.608-5.8-1.636-.752 1.992 3.353 1.283 3.292.72M165.8 90.286c-.305-.087-9.552-.087-9.552-.087" fill="none" stroke="#000" stroke-width=".086" />
   <path d="M169.15 109.34c-4.704-.641-10.241-3.964-11.915-5.836-4.682 19.842-3.162 45.553-25.73 42.242-.472-.057-.911-.08-1.28.115-3.314 2.83-1.96 9.381 9.896 7.481 20.62-3.304 24.245-32.155 29.029-44.001z" fill-rule="evenodd" stroke="#000" stroke-width=".254" />
   <path d="M155.973 81.612c-1.575-.93-3.101-2.101-3.604-.769-.75 1.992 3.355 1.283 3.293.72" fill-opacity=".706" fill-rule="evenodd" stroke="#000" stroke-width=".086" />
   <path d="M205.94 79.201c.085-8.246 20.715-20.327-9.05-19.95.663-10.788-16.276-12.208-33.287-11.665 6.759-34.902 28.754-33.774 48.935-33.815 51.115.017 82.625 92.025 99.373 128.378 1.466 3.181 3.161 7.725 3.895 11.621 1.875 9.956 1.427 35.363 1.427 35.363l-5.804-.004-.122-3.038c2.324-27.582-7.385-47.143-42.748-54.99-20.021-3.145-30.84-7.228-36.297-7.803l.315 64.964-29.746.63.275-87.148c1.413-7.665-1.323-15.564 2.834-22.543z" fill="#025" fill-rule="evenodd" stroke="#000" stroke-width=".544" />
   <g>
      <path d="M232.25-175.397h5.12v12.196h-5.199l.079-12.196z" fill="#fac53a" fill-rule="evenodd" stroke="#000" stroke-width=".224" transform="matrix(1.13128 0 0 1.12189 48.822 372.474)" />
      <path d="M232.25-174.115l4.084.015M232.21-171.977l3.996.015M232.408-170.003l3.754.016M232.25-168.103l3.901.014M232.33-166.266l3.77-.008M232.37-164.422l3.68-.033" fill="none" stroke="#c13c1b" stroke-width=".665" stroke-linecap="round" stroke-linejoin="round" transform="matrix(1.13128 0 0 1.12189 48.822 372.474)" />
   </g>
   <path d="M205.197 67.141c-6.291 2.95-6.476 7.402-4.366 10.696 1.244 2.49 4.048 1.934 4.856.685.85-1.313 1.649-3.05 2.778-4.76 9.786-12.534 8.425-15.94 8.456-16.39.055-.786-1.922-6.302-5.366-6.007-3.536.303-12.168 4.945-4.639 13.5" fill="#a13c2a" fill-rule="evenodd" />
   <path d="M205.134 67.141c-6.291 2.95-6.476 7.402-4.366 10.696 1.244 2.49 4.048 1.934 4.856.685.85-1.313 1.649-3.05 2.778-4.76 9.786-12.534 8.425-15.94 8.456-16.39.055-.786-1.922-6.302-5.366-6.007-3.536.303-12.168 4.945-4.639 13.5 1.638 1.834-.117 3.491-1.884 5.811m2.015-11.38c5.081 1.212 3.94 6.003-.733 12.824-3.42 1.954-4.344 2.968-4.078 2.285.275-.705.085-1.795 2.883-3.729" fill="none" stroke="#000" stroke-width=".725" />
   <g>
      <path d="M210.945-175.397h26.425v12.196h-26.425v-12.196z" fill="#fac53a" fill-rule="evenodd" stroke="#000" stroke-width=".224" transform="matrix(1.13128 0 0 1.12189 -35.78 372.117)" />
      <path d="M212.585-174.204l22.881.104M212.575-172.066l22.88.104M212.65-170.091l22.88.104M212.639-168.192l22.881.103M212.79-166.22l22.875-.054M212.706-164.24l22.95-.215" fill="none" stroke="#c13c1b" stroke-width=".665" stroke-linecap="round" stroke-linejoin="round" transform="matrix(1.13128 0 0 1.12189 -35.78 372.117)" />
   </g>
   <path d="M311.506 175.712c-.066 4.546-.32 9.091-.063 13.637" fill="none" stroke="#000" stroke-width=".5" />
</svg>