<svg xmlns="http://www.w3.org/2000/svg" width="350" height="768" version="1.0">
   <defs>
      <linearGradient id="prefix__a">
         <stop offset="0" stop-color="#c13c1b" />
         <stop offset=".839" stop-color="#c13c1b" stop-opacity=".498" />
         <stop offset="1" stop-color="#c13c1b" stop-opacity="0" />
      </linearGradient>
   </defs>
   <path d="M271.332 550.457l-.307 12.343c.092 17.746.562 36.573 4.168 49.573l19.3 143.75 11.117-1.235c-8.34-48.113-10.088-94.907-15.132-142.36-3.038-31.15-9.486-22.25-19.146-62.07z" fill="#fac53a" fill-rule="evenodd" stroke="#c13c1b" stroke-width=".43216854" />
   <path d="M302.592 273.422H272.46M303.138 282.484l-30.243.436" fill="none" stroke="#000" stroke-width=".21656768" />
   <path d="M221.203 212.543l39.73.701c19.383 6.147 34.85 13.406 40.869 34.503 2.172 12.13.178 16.43.926 25.63l.618 9.574c1.33 20.65 1.876 41.458.309 62.687-1.256 18.426 2.697 38.087 3.088 56.512-.628 15.45-4.375 26.909-5.095 40.415l-19.3-1.505c-8.862-49.929-3.742-66.268-5.868-89.245-3.22-28.032-3.231-55.261-4.324-82.76-11.898 21.465-24.346 42.2-31.19 70.407v4.671l6.486 29.916c3.48 4.881 13.453 27.038 6.212 39.67 8.264 48.38 12.168 97.852 11.699 146.232l.617 15.749c1.314 21.452 9.939 42.913 9.573 66.394-.365 23.48-4.595 46.46-7.72 68.864-1.184 25.836 2.385 30.425 1.491 39.848-.894 9.423-6.162 8.992-11.532 8.931-5.474-.061-10.786-.987-10.974-4.595-5.653-1.587-13.631 4.934-72.263 2.662-2.539-.344-2.727-4.075-2.96-6.723 2.613-.714 5.324-1.044 8.228-.596 19.497-9.53 38.654-13.62 58.673-31.498.948-.982 1.746-2.3 1.544-5.868-2.523-35.346-10.216-72.039-13.278-107.465l-.927-5.558c-2.707-6.919-5.105-15.692-8.337-19.455-1.312-7.206-1.855-14.411-6.485-21.617l-14.932-.308c-6.778 19.141-7.696 26.921-11.735 39.836-3.146 18.89-.326 26.913-4.832 41.997-4.543 15.21-14.255 34.955-21.925 49.718-4.702 12.669-11.177 26.047-13.33 37.752-.617 7.54.635 13.364-.258 22.787-.894 9.423-6.163 8.992-11.533 8.931-5.474-.061-10.785-.987-10.974-4.595-5.653-1.587-13.63 4.934-72.263 2.662-2.539-.344-2.727-4.075-2.96-6.723 2.614-.714 5.324-1.044 8.228-.596 19.498-9.53 43.905-14.856 63.897-32.734 1.93-2.156 2.544-4.532 3.28-6.887L144.31 601.64c.029-11.065-1.372-21.58 3.706-34.587l.309-8.646 18.673-170.841-2.075-7.225c-2.65-6.114-.76-12.588-.85-18.336-2.217-17.227-5.72-34.134-9.572-50.953-2.438-5.673-4.693-12.494-6.507-19.662-1.79-.695-2.317-2.68-1.084-4.556-1.215-5.466-2.153-11.033-2.704-16.362l-.822-.183-1.224 11.04c-.477 2.676-.395 5.31-.856 7.941-3.447 19.672-7.005 39.093-18.982 73.802l-3.979 8.724c-9.019 26.126-22.207 46.39-35.88 65.973l-17.032-12.271c9.843-24.333 16.773-49.597 31.63-72.328l2.653-6.442c1.046-18.874 3.392-45.47 8.431-66.333l1.972-15.64c-5.587-25.87 6.44-43.13 29.365-46.96l37.863-7.364" fill="#a13c2a" fill-rule="evenodd" stroke="#000" stroke-width=".43216854" stroke-linecap="round" stroke-linejoin="round" />
   <g fill-rule="evenodd" stroke="#000" stroke-linecap="round" stroke-linejoin="round">
      <path d="M-2306.297 184.523l126.243 8.061-.277 76.804-129.037-11.151 3.07-73.714z" fill="#fac53a" transform="matrix(.23889 -.01891 .0161 .22474 820.177 186.123)" />
      <path d="M-2306.69 192.987l126.446 10.278-.033 22.472-127.353-9.681.94-23.07zM-2307.61 224.353l127.059 11.038.146 24.403-128.228-10.692 1.023-24.749z" fill="#04a" transform="matrix(.23889 -.01891 .0161 .22474 820.177 186.123)" />
   </g>
   <path d="M273.943 560.76c-.447-2.635-1.628-5.47-2.009-8.516-4.272-34.2-4.916-92.64-15.083-137.46 2.938-8.146 1.788-17.4-.399-25.108-2.16-7.612-5.229-13.557-6.802-15.794-1.138-5.323-4.491-21.112-5.654-32.29a1.08 1.08 0 00-1.095-.986h0a1.08 1.08 0 00-1.054 1.21c1.196 11.483 4.618 27.496 5.729 32.694.033.15.098.29.189.412 1.149 1.569 4.461 7.782 6.607 15.341 2.145 7.56 3.183 16.555.35 24.096a1.08 1.08 0 00-.04.615c8.551 37.496 10.412 84.889 13.397 119.58.87 10.113 2.725 19.264 3.093 26.542" fill="#fac53a" fill-rule="evenodd" stroke="#000" stroke-width=".21656768" stroke-linecap="round" stroke-linejoin="round" />
   <path d="M148.115 559.426l16.833-171.093 88.382-.891c1.158 4.702 6.011 14.323.464 26.557 7.642 48.321 12.4 97.275 11.37 145.307l-117.049.12z" fill="#fff" fill-rule="evenodd" stroke="#000" stroke-width=".43216854" />
   <path d="M265.156 559.644c-90.46-15.205-106.955-83.4-100.208-171.31l82.405-14.567c7.817 13 12.343 30.673 6.468 40.178 7.66 48.434 12.394 97.555 11.335 145.7z" fill="#fac53a" fill-rule="evenodd" stroke="#000" stroke-width=".21656768" />
   <path d="M144.525 216.712l32.876-6.574 46.534-3.71 35.83 7.407c-6.734 33.984-29.78 46.135-56.48 46.728-25.29.558-37.1-5.936-45.358-14.706-7.848-8.335-12.017-21.411-13.402-29.145z" fill="#fff" fill-rule="evenodd" stroke="#000" stroke-linecap="round" stroke-linejoin="round" stroke-width=".27168" />
   <path style="marker:none" d="M158.258 213.964c4.956 24.508 19.253 33.587 45.6 32.55 26.412-1.039 39.559-17.992 41.17-34.45-.009-.222-.016-.547.115-1.127" color="#000" fill="none" stroke="#04a" stroke-width="4.841337599999999" stroke-linejoin="round" overflow="visible" />
   <path style="marker:none" d="M170.795 211.617c4.82 18.648 15.354 22.69 32.552 22.025 16.068-.622 27.977-11.153 27.858-24.364-.042-.503.136-.833.101-1.133" color="#000" fill="none" stroke="#308d57" stroke-width="3.6739286399999997" overflow="visible" />
   <path style="marker:none" d="M162.58 213.379c3.62 17.164 12.73 29.992 40.96 28.756 24.573-1.076 36.362-17.698 36.834-31.589-.016-.062-.017-.356.046-.649" color="#000" fill="none" stroke="#c13c1b" stroke-width="2.9708208" overflow="visible" />
   <path style="marker:none" d="M174.883 210.7c2.44 8.142 5.165 20.312 28.455 18.55 15.258-1.156 22.63-10.255 23.206-18.744.047-.965.04-3.107.157-3.388" color="#000" fill="none" stroke="#04a" stroke-width="4.3572038399999995" overflow="visible" />
   <path style="marker:none" d="M166.585 212.342c4.875 23.183 22.08 26.472 37.215 25.572 20.56-1.227 31.622-13.958 32.192-27.434.018-.247.014-1.17.132-1.544" color="#000" fill="none" stroke="#04a" stroke-width="4.3572038399999995" overflow="visible" />
   <path style="marker:none" d="M150.067 215.757c5.384 26.016 19.893 40.196 52.718 39.028l.387-.015h.011c43.57-1.704 49.082-34.322 50.663-41.916" color="#000" fill="none" stroke="#fac53a" stroke-width="10.867199999999999" overflow="visible" />
   <path d="M144.525 216.712l32.876-6.574 46.534-3.71 35.83 7.407c-6.734 33.984-29.78 46.135-56.48 46.728-25.29.558-37.1-5.936-45.358-14.706-7.848-8.335-12.017-21.411-13.402-29.145z" fill="none" stroke="#000" stroke-width=".54336" stroke-linecap="round" stroke-linejoin="round" />
   <g fill="none" stroke="#c13c1b">
      <path d="M215.999 255.833c-.63-1.926-.246-5.316.257-7.537 1.576 1.602 3.763 4.276 4.315 6.098 1.061 3.501-3.498 4.713-4.572 1.44z" stroke-width=".27168" />
      <path d="M216.59 255.6c-.468-1.426-.187-3.936.183-5.58 1.164 1.187 2.78 3.169 3.189 4.518.786 2.593-2.577 3.487-3.372 1.062z" stroke-width=".27168" />
      <path d="M216.582 255.528a2.675 2.675 0 011.466-1.152c.814-.25 1.365-.097 1.825.107M216.424 252.95c.24-.303.77-.598 1.03-.674.282-.083.88-.06 1.157.016" style="marker:none" color="#000" stroke-linecap="round" stroke-linejoin="round" overflow="visible" stroke-width=".27168" />
   </g>
   <g fill="none" stroke="#c13c1b">
      <path d="M210.288 256.7c-.442-1.977.27-5.314.986-7.476 1.412 1.747 3.33 4.62 3.703 6.487.717 3.588-3.938 4.352-4.69.99z" stroke-width=".27168" />
      <path d="M210.898 256.526c-.327-1.465.196-3.936.723-5.536 1.043 1.294 2.46 3.424 2.736 4.806.532 2.657-2.902 3.22-3.46.73z" stroke-width=".27168" />
      <path d="M210.898 256.454c.205-.28.735-.834 1.57-1.005.834-.17 1.368.036 1.806.284M210.99 253.872c.268-.278.824-.52 1.09-.57.289-.056.883.025 1.15.128" style="marker:none" color="#000" stroke-linecap="round" stroke-linejoin="round" overflow="visible" stroke-width=".27168" />
   </g>
   <g fill="none" stroke="#c13c1b">
      <path d="M221.824 254.265c-.819-1.853-.773-5.265-.492-7.525 1.726 1.437 4.168 3.881 4.898 5.639 1.404 3.379-3.012 5.037-4.406 1.886z" stroke-width=".27168" />
      <path d="M222.389 253.975c-.607-1.373-.577-3.899-.372-5.571 1.276 1.065 3.081 2.877 3.622 4.179 1.04 2.502-2.218 3.725-3.25 1.392z" stroke-width=".27168" />
      <path d="M222.374 253.904a2.675 2.675 0 011.344-1.292c.785-.33 1.349-.232 1.827-.075M221.96 251.353c.21-.324.707-.67.958-.772.273-.11.871-.147 1.154-.099" style="marker:none" color="#000" stroke-linecap="round" stroke-linejoin="round" overflow="visible" stroke-width=".27168" />
   </g>
   <g fill="none" stroke="#c13c1b">
      <path d="M198.83 257.222c-.037-2.026 1.328-5.153 2.463-7.128 1.034 1.995 2.338 5.194 2.33 7.097-.017 3.66-4.73 3.476-4.794.031z" stroke-width=".27168" />
      <path d="M199.463 257.173c-.027-1.5.98-3.817 1.817-5.28.763 1.478 1.724 3.848 1.718 5.257-.012 2.71-3.489 2.574-3.535.023z" stroke-width=".27168" />
      <path style="marker:none" d="M199.477 257.103c.257-.234.888-.67 1.74-.67.85 0 1.333.308 1.712.639M200.085 254.591c.318-.218.91-.344 1.182-.34.293.003.86.201 1.101.355" color="#000" stroke-linecap="round" stroke-linejoin="round" overflow="visible" stroke-width=".27168" />
   </g>
   <g fill="none" stroke="#c13c1b">
      <path d="M193.31 257.126c.043-2.026 1.53-5.097 2.742-7.025.955 2.033 2.131 5.282 2.048 7.183-.16 3.656-4.863 3.287-4.79-.158z" stroke-width=".27168" />
      <path d="M193.944 257.102c.032-1.5 1.13-3.775 2.024-5.204.704 1.506 1.571 3.912 1.51 5.32-.119 2.708-3.588 2.435-3.534-.116z" stroke-width=".27168" />
      <path d="M193.961 257.032a2.675 2.675 0 011.765-.601c.85.033 1.32.36 1.686.706M194.667 254.546c.327-.205.924-.308 1.195-.293.293.015.85.235 1.086.399" style="marker:none" color="#000" stroke-linecap="round" stroke-linejoin="round" overflow="visible" stroke-width=".27168" />
   </g>
   <g fill="none" stroke="#c13c1b">
      <path d="M204.61 257.192c-.263-2.01.743-5.27 1.65-7.36 1.25 1.867 2.904 4.9 3.109 6.793.394 3.638-4.311 3.983-4.76.567z" stroke-width=".27168" />
      <path d="M205.233 257.072c-.195-1.488.547-3.902 1.215-5.45.924 1.383 2.144 3.63 2.296 5.032.292 2.694-3.18 2.948-3.511.418z" stroke-width=".27168" />
      <path d="M205.24 257c.229-.26.807-.765 1.653-.86.846-.096 1.36.157 1.773.444M205.562 254.437c.292-.253.867-.444 1.137-.471.292-.029.877.104 1.134.23" style="marker:none" color="#000" stroke-linecap="round" stroke-linejoin="round" overflow="visible" stroke-width=".27168" />
   </g>
   <g fill="none" stroke="#c13c1b">
      <path d="M155.616 237.16c1.672-1.145 5.034-1.725 7.308-1.863-1.097 1.96-3.053 4.808-4.647 5.848-3.064 2-5.504-2.039-2.661-3.986z" stroke-width=".27168" />
      <path d="M156.005 237.66c1.238-.847 3.726-1.28 5.408-1.385-.814 1.45-2.264 3.556-3.445 4.326-2.27 1.48-4.068-1.498-1.963-2.94z" stroke-width=".27168" />
      <path style="marker:none" d="M156.071 237.634a2.675 2.675 0 011.517 1.084c.468.711.475 1.284.408 1.782M158.503 236.76c.357.146.789.572.935.8.158.248.304.83.308 1.116" color="#000" stroke-linecap="round" stroke-linejoin="round" overflow="visible" stroke-width=".27168" />
   </g>
   <g fill="none" stroke="#c13c1b">
      <path d="M152.987 232.416c1.777-.975 5.18-1.223 7.456-1.137-1.284 1.844-3.51 4.486-5.198 5.364-3.246 1.69-5.277-2.568-2.258-4.227z" stroke-width=".27168" />
      <path d="M153.325 232.953c1.316-.722 3.835-.909 5.519-.848-.953 1.362-2.603 3.316-3.853 3.967-2.404 1.25-3.902-1.89-1.666-3.119z" stroke-width=".27168" />
      <path d="M153.394 232.933a2.675 2.675 0 011.403 1.228c.396.753.347 1.324.231 1.813M155.9 232.302c.341.18.729.646.852.888.133.261.221.855.197 1.14" style="marker:none" color="#000" stroke-linecap="round" stroke-linejoin="round" overflow="visible" stroke-width=".27168" />
   </g>
   <g fill="none" stroke="#c13c1b">
      <path d="M158.816 241.725c1.485-1.38 4.724-2.45 6.952-2.924-.795 2.102-2.307 5.208-3.73 6.472-2.734 2.431-5.744-1.201-3.222-3.548z" stroke-width=".27168" />
      <path d="M159.275 242.164c1.1-1.022 3.496-1.818 5.144-2.171-.59 1.554-1.713 3.852-2.767 4.788-2.025 1.8-4.245-.88-2.377-2.617z" stroke-width=".27168" />
      <path style="marker:none" d="M159.337 242.128a2.675 2.675 0 011.66.847c.57.634.66 1.2.668 1.702M161.613 240.903c.375.092.864.449 1.043.653.193.221.423.775.47 1.058" color="#000" stroke-linecap="round" stroke-linejoin="round" overflow="visible" stroke-width=".27168" />
   </g>
   <g fill="none" stroke="#c13c1b">
      <path d="M149.125 222.12c1.945-.567 5.321-.07 7.524.508-1.653 1.52-4.4 3.617-6.238 4.108-3.535.944-4.594-3.653-1.286-4.617z" stroke-width=".27168" />
      <path d="M149.338 222.717c1.441-.419 3.94-.055 5.57.37-1.224 1.123-3.26 2.673-4.621 3.036-2.618.7-3.399-2.692-.949-3.406z" stroke-width=".27168" />
      <path d="M149.41 222.713c.292.186.88.68 1.103 1.503.223.821.051 1.367-.169 1.82M151.993 222.64c.293.25.57.79.638 1.052.073.284.031.883-.054 1.156" style="marker:none" color="#000" stroke-linecap="round" stroke-linejoin="round" overflow="visible" stroke-width=".27168" />
   </g>
   <g fill="none" stroke="#c13c1b">
      <path d="M147.778 216.782c1.969-.48 5.32.162 7.496.835-1.718 1.448-4.552 3.423-6.41 3.834-3.573.79-4.432-3.849-1.086-4.669z" stroke-width=".27168" />
      <path d="M147.966 217.39c1.458-.357 3.939.115 5.55.61-1.274 1.07-3.374 2.529-4.75 2.833-2.646.585-3.279-2.837-.8-3.444z" stroke-width=".27168" />
      <path style="marker:none" d="M148.038 217.388c.284.199.849.718 1.036 1.549.188.83-.008 1.369-.247 1.811M150.621 217.428c.283.262.537.812.593 1.078.06.287-.008.883-.105 1.153" color="#000" stroke-linecap="round" stroke-linejoin="round" overflow="visible" stroke-width=".27168" />
   </g>
   <g fill="none" stroke="#c13c1b">
      <path d="M150.798 227.432c1.883-.75 5.29-.576 7.538-.21-1.5 1.67-4.035 4.02-5.818 4.683-3.43 1.277-4.921-3.199-1.72-4.473z" stroke-width=".27168" />
      <path d="M151.067 228.007c1.395-.555 3.917-.43 5.581-.163-1.113 1.235-2.99 2.971-4.312 3.463-2.54.945-3.64-2.356-1.269-3.3z" stroke-width=".27168" />
      <path d="M151.138 227.995c.31.158.94.594 1.241 1.391.3.797.182 1.357.006 1.828M153.702 227.677c.317.221.644.731.736.986.1.276.115.876.056 1.157" style="marker:none" color="#000" stroke-linecap="round" stroke-linejoin="round" overflow="visible" stroke-width=".27168" />
   </g>
   <g fill="none" stroke="#c13c1b">
      <path d="M167.066 249.213c1.03-1.745 3.83-3.695 5.83-4.783-.163 2.241-.727 5.65-1.731 7.267-1.93 3.109-5.85.484-4.1-2.484z" stroke-width=".27168" />
      <path d="M167.63 249.503c.764-1.293 2.834-2.739 4.313-3.546-.123 1.658-.545 4.18-1.288 5.378-1.43 2.302-4.32.366-3.024-1.832z" stroke-width=".27168" />
      <path style="marker:none" d="M167.68 249.45a2.675 2.675 0 011.833.34c.725.446.974.961 1.124 1.442M169.512 247.629c.386-.02.957.183 1.186.328.248.158.627.622.752.88" color="#000" stroke-linecap="round" stroke-linejoin="round" overflow="visible" stroke-width=".27168" />
   </g>
   <g fill="none" stroke="#c13c1b">
      <path d="M162.648 245.74c1.3-1.554 4.38-3.023 6.53-3.772-.525 2.185-1.636 5.456-2.89 6.889-2.408 2.754-5.85-.473-3.64-3.117z" stroke-width=".27168" />
      <path d="M163.158 246.118c.963-1.152 3.24-2.242 4.831-2.799-.39 1.616-1.217 4.037-2.145 5.098-1.784 2.04-4.322-.341-2.686-2.3z" stroke-width=".27168" />
      <path d="M163.215 246.074a2.675 2.675 0 011.753.633c.644.558.805 1.107.875 1.605M165.32 244.574c.383.044.913.337 1.115.517.22.196.518.716.6.99" style="marker:none" color="#000" stroke-linecap="round" stroke-linejoin="round" overflow="visible" stroke-width=".27168" />
   </g>
   <g fill="none" stroke="#c13c1b">
      <path d="M171.93 251.937c.835-1.846 3.408-4.088 5.28-5.386.08 2.245-.113 5.695-.935 7.41-1.581 3.3-5.763 1.116-4.345-2.024z" stroke-width=".27168" />
      <path d="M172.524 252.164c.618-1.368 2.52-3.03 3.903-3.992.056 1.661-.09 4.214-.699 5.485-1.17 2.444-4.255.832-3.204-1.493z" stroke-width=".27168" />
      <path style="marker:none" d="M172.567 252.106c.332-.1 1.09-.225 1.859.14.77.364 1.072.85 1.273 1.311M174.191 250.097c.381-.06.97.079 1.214.199.264.129.691.55.843.793" color="#000" stroke-linecap="round" stroke-linejoin="round" overflow="visible" stroke-width=".27168" />
   </g>
   <g fill="none" stroke="#c13c1b">
      <path d="M182.434 255.601c.386-1.989 2.372-4.764 3.893-6.459.597 2.166 1.206 5.567.802 7.426-.777 3.576-5.35 2.416-4.695-.967z" stroke-width=".27168" />
      <path d="M183.064 255.685c.286-1.473 1.752-3.53 2.875-4.786.44 1.604.887 4.122.588 5.5-.576 2.648-3.949 1.791-3.463-.714z" stroke-width=".27168" />
      <path d="M183.092 255.62c.3-.176 1.008-.472 1.841-.295s1.24.58 1.542.982M184.21 253.289c.356-.147.962-.147 1.226-.087.287.065.8.376 1.004.577" style="marker:none" color="#000" stroke-linecap="round" stroke-linejoin="round" overflow="visible" stroke-width=".27168" />
   </g>
   <g fill="none" stroke="#c13c1b">
      <path d="M177.128 254.088c.578-1.942 2.826-4.51 4.505-6.048.382 2.214.656 5.658.072 7.47-1.123 3.482-5.56 1.88-4.577-1.422z" stroke-width=".27168" />
      <path d="M177.746 254.233c.429-1.439 2.09-3.341 3.33-4.482.28 1.64.479 4.189.046 5.53-.831 2.58-4.104 1.397-3.376-1.048z" stroke-width=".27168" />
      <path style="marker:none" d="M177.78 254.17a2.675 2.675 0 011.862-.112c.811.257 1.177.698 1.438 1.128M179.12 251.96c.37-.111.973-.052 1.23.033.279.093.758.453.942.673" color="#000" stroke-linecap="round" stroke-linejoin="round" overflow="visible" stroke-width=".27168" />
   </g>
   <g fill="none" stroke="#c13c1b">
      <path d="M187.763 256.588c.173-2.02 1.852-4.99 3.184-6.837.824 2.09 1.79 5.408 1.586 7.3-.392 3.638-5.062 2.97-4.77-.463z" stroke-width=".27168" />
      <path d="M188.398 256.604c.128-1.495 1.367-3.696 2.35-5.064.608 1.548 1.32 4.004 1.169 5.405-.29 2.695-3.736 2.202-3.52-.341z" stroke-width=".27168" />
      <path d="M188.42 256.535c.279-.205.951-.575 1.798-.487.847.087 1.295.444 1.638.812M189.282 254.1c.34-.184.942-.249 1.211-.217.292.034.835.289 1.06.467" style="marker:none" color="#000" stroke-linecap="round" stroke-linejoin="round" overflow="visible" stroke-width=".27168" />
   </g>
   <g fill="none" stroke="#c13c1b">
      <path d="M232.49 249.691c-1.192-1.638-1.868-4.983-2.07-7.251 1.99 1.04 4.894 2.913 5.979 4.477 2.086 3.006-1.88 5.56-3.909 2.774z" stroke-width=".27168" />
      <path d="M232.98 249.288c-.882-1.214-1.386-3.688-1.54-5.367 1.473.773 3.62 2.162 4.424 3.32 1.545 2.227-1.382 4.11-2.883 2.047z" stroke-width=".27168" />
      <path style="marker:none" d="M232.952 249.222a2.675 2.675 0 011.04-1.547c.698-.488 1.27-.512 1.77-.458M232.01 246.816c.135-.36.548-.804.772-.957.243-.165.82-.328 1.106-.34" color="#000" stroke-linecap="round" stroke-linejoin="round" overflow="visible" stroke-width=".27168" />
   </g>
   <g fill="none" stroke="#c13c1b">
      <path d="M227.406 252.31c-1.045-1.736-1.43-5.127-1.435-7.404 1.893 1.208 4.624 3.326 5.569 4.978 1.818 3.175-2.355 5.376-4.134 2.425z" stroke-width=".27168" />
      <path d="M227.93 251.95c-.775-1.286-1.063-3.795-1.07-5.48 1.4.897 3.419 2.467 4.119 3.69 1.347 2.352-1.732 3.975-3.05 1.79z" stroke-width=".27168" />
      <path d="M227.907 251.882a2.675 2.675 0 011.17-1.451c.737-.427 1.31-.4 1.803-.304M227.176 249.404c.166-.349.616-.755.852-.887.257-.144.846-.256 1.132-.243" style="marker:none" color="#000" stroke-linecap="round" stroke-linejoin="round" overflow="visible" stroke-width=".27168" />
   </g>
   <g fill="none" stroke="#c13c1b">
      <path d="M237.346 246.5c-1.425-1.44-2.597-4.645-3.138-6.857 2.125.729 5.276 2.144 6.584 3.527 2.515 2.658-1.023 5.78-3.446 3.33z" stroke-width=".27168" />
      <path d="M237.77 246.028c-1.056-1.067-1.926-3.438-2.33-5.074 1.572.542 3.904 1.593 4.872 2.617 1.862 1.969-.747 4.27-2.542 2.457z" stroke-width=".27168" />
      <path d="M237.731 245.967c.025-.346.18-1.098.796-1.686.616-.587 1.178-.696 1.68-.719M236.437 243.73c.08-.377.422-.877.62-1.062.216-.2.762-.447 1.043-.503" style="marker:none" color="#000" stroke-linecap="round" stroke-linejoin="round" overflow="visible" stroke-width=".27168" />
   </g>
   <g fill="none" stroke="#c13c1b">
      <path d="M245.7 238.431c-1.763-.997-3.764-3.761-4.89-5.741 2.244.121 5.663.623 7.298 1.597 3.144 1.871.592 5.839-2.407 4.144z" stroke-width=".27168" />
      <path d="M245.98 237.86c-1.307-.738-2.79-2.781-3.625-4.245 1.66.092 4.19.467 5.4 1.188 2.33 1.386.446 4.313-1.775 3.058z" stroke-width=".27168" />
      <path style="marker:none" d="M245.926 237.813a2.675 2.675 0 01.306-1.84c.433-.733.943-.991 1.42-1.15M244.071 236.014c-.026-.385.166-.96.307-1.191.153-.251.61-.639.866-.769" color="#000" stroke-linecap="round" stroke-linejoin="round" overflow="visible" stroke-width=".27168" />
   </g>
   <g fill="none" stroke="#c13c1b">
      <path d="M241.788 242.765c-1.599-1.245-3.175-4.271-3.998-6.394 2.201.448 5.51 1.444 6.985 2.646 2.837 2.31-.267 5.863-2.987 3.748z" stroke-width=".27168" />
      <path d="M242.148 242.242c-1.185-.922-2.354-3.16-2.966-4.73 1.628.334 4.076 1.074 5.17 1.965 2.1 1.71-.19 4.331-2.204 2.765z" stroke-width=".27168" />
      <path d="M242.102 242.186a2.675 2.675 0 01.571-1.774c.535-.663 1.078-.844 1.574-.931M240.53 240.136c.03-.385.304-.925.477-1.134.188-.226.697-.542.97-.633" style="marker:none" color="#000" stroke-linecap="round" stroke-linejoin="round" overflow="visible" stroke-width=".27168" />
   </g>
   <g fill="none" stroke="#c13c1b">
      <path d="M248.8 233.739c-1.806-.92-3.926-3.594-5.136-5.523 2.246.024 5.683.376 7.36 1.277 3.222 1.733.846 5.808-2.225 4.246z" stroke-width=".27168" />
      <path d="M249.053 233.157c-1.337-.681-2.909-2.658-3.807-4.084 1.663.02 4.207.285 5.448.952 2.387 1.283.634 4.29-1.64 3.132z" stroke-width=".27168" />
      <path style="marker:none" d="M248.998 233.111a2.675 2.675 0 01.225-1.85c.4-.752.9-1.032 1.37-1.212M247.066 231.395c-.043-.383.124-.966.255-1.203.141-.258.582-.665.831-.806" color="#000" stroke-linecap="round" stroke-linejoin="round" overflow="visible" stroke-width=".27168" />
   </g>
   <g fill="none" stroke="#c13c1b">
      <path d="M253.397 223.757c-1.94-.589-4.495-2.85-6.024-4.537 2.216-.37 5.661-.626 7.47-.032 3.476 1.14 1.85 5.57-1.446 4.57z" stroke-width=".27168" />
      <path d="M253.545 223.14c-1.436-.437-3.33-2.107-4.464-3.354 1.64-.271 4.191-.457 5.53-.017 2.575.845 1.376 4.112-1.066 3.37z" stroke-width=".27168" />
      <path d="M253.482 223.104a2.675 2.675 0 01-.102-1.86c.262-.811.704-1.174 1.135-1.434M251.28 221.753c-.11-.37-.048-.972.04-1.229.093-.278.456-.756.677-.939" style="marker:none" color="#000" stroke-linecap="round" stroke-linejoin="round" overflow="visible" stroke-width=".27168" />
   </g>
   <g fill="none" stroke="#c13c1b">
      <path d="M251.478 228.8c-1.885-.741-4.252-3.2-5.641-5.004 2.238-.192 5.693-.17 7.448.565 3.374 1.416 1.4 5.7-1.807 4.44z" stroke-width=".27168" />
      <path d="M251.675 228.197c-1.396-.55-3.15-2.366-4.18-3.7 1.656-.14 4.213-.12 5.513.425 2.499 1.048 1.042 4.209-1.333 3.275z" stroke-width=".27168" />
      <path style="marker:none" d="M251.616 228.157a2.675 2.675 0 01.046-1.864c.326-.786.796-1.113 1.247-1.337M249.528 226.634c-.08-.377.03-.973.138-1.222.116-.27.516-.717.75-.882" color="#000" stroke-linecap="round" stroke-linejoin="round" overflow="visible" stroke-width=".27168" />
   </g>
   <g fill="none" stroke="#c13c1b">
      <path d="M255.13 218.508c-1.99-.377-4.775-2.35-6.477-3.864 2.164-.606 5.562-1.23 7.423-.835 3.58.76 2.44 5.338-.946 4.699z" stroke-width=".27168" />
      <path d="M255.211 217.878c-1.475-.28-3.537-1.737-4.798-2.854 1.601-.447 4.117-.905 5.496-.612 2.65.563 1.81 3.94-.698 3.466z" stroke-width=".27168" />
      <path d="M255.145 217.85a2.675 2.675 0 01-.302-1.84c.173-.834.574-1.242.975-1.546M252.81 216.743c-.149-.356-.152-.962-.093-1.226.064-.287.373-.801.573-1.006" style="marker:none" color="#000" stroke-linecap="round" stroke-linejoin="round" overflow="visible" stroke-width=".27168" />
   </g>
   <path d="M162.34 174.566c6.138 17.966 12.696 30.808 21.367 45.746 3.909 2.405 8.221 2.747 13 3.065l37.705-31.242-20.807-49.289-26.435 1.535-18.76 8.186-4.967 3.93-2.196 6.133-6.608 9.213.715.594c1.453 2.227 4.313 2.373 6.986 2.129z" fill="#fff" fill-rule="evenodd" stroke="#000" stroke-width=".386728" stroke-linecap="round" stroke-linejoin="round" />
   <path d="M175.24 150.142l2.686 2.167 38.936 16.202 2.059-9.182c-15.948-19.478-33.984-13.089-43.681-9.187z" fill="#c13c1b" fill-rule="evenodd" />
   <path d="M175.588 215.019l5.788 4.842c4.753 3.447 12.773 6.847 20.676 4.947l-6.154-15.207 1.052-.677c-1.494-.401-4.914.356-6.25 1.758-2.944-.117-5.055.032-7.564 1.842-2.474-.762-6.91 1.071-7.548 2.495z" fill="#a13c2a" fill-rule="evenodd" stroke="#000" stroke-width=".21656768" />
   <path d="M224.224 207.446l39.925 7.195c45.256 13.667 38.112 43.494 38.562 55.35l.392 7.642 8.648-.175-.196-36.393-.237-2.146c-4.126-21.699-8.519-46.448-22.453-64.388-11.883-15.3-23.004-28.055-45.72-34.58-11.133-3.2-16.03-3.013-24.191-3.864-11.164.237-32.984 4-52.035 16.048-2.068 1.308-2.307 6.032 1.82 3.294 23.825-16.949 47.426-6.83 51.625 12.574 2.797 12.923-3.255 26.346-28.752 28.866-1.575.219-1.86.809-.607 2.774 7.332 9.318 8.831 28.535 9.384 41.073.494 21.767.64 35.6.64 35.6h25.544c.16-11.814.058-20.042.083-34.683-.885-12.037-.674-24.857-2.432-34.187z" fill="#025" fill-rule="evenodd" stroke="#000" stroke-width=".23010316" stroke-linecap="round" stroke-linejoin="round" />
   <path style="marker:none" d="M154.636 177.669c.04.298-.265.293-.337.153-2.609-6.732 2.157-13.267 6.619-17.343.618.045 2.906.367 3.3 1.082 2.244 6.298 7.74 7.46 10.366 8.233 1.426.719 1.499 3.204-.221 3.536-3.022-1.599-8.2-4.247-13.415-1.054-6.053-4.502-7.516 3.062-6.312 5.393z" color="#000" fill="#04a" fill-rule="evenodd" stroke="#000" stroke-width=".21463404" stroke-linecap="round" stroke-linejoin="round" overflow="visible" />
   <path style="marker:none" d="M155.436 172.59c1.157 2.15 5.718 2.616 8.19 1.603" color="#000" fill="none" stroke="#000" stroke-width=".21463404" stroke-linecap="round" stroke-linejoin="round" overflow="visible" />
   <path d="M169.695 164.476c.865-9.196 6.795-11.284 9.485-11.903 6.784-1.42 11.867.339 14.892 5.945-2.743 4.02-4.539 9.285-10.97 10.847-3.919-.248-8.182-.565-12.581-2.574" fill="#f5ca44" fill-rule="evenodd" />
   <path style="marker:none" d="M170.54 164.4c-.143.591-.73.412-.859.062-.605-4.51 2.902-13.533 13.115-13.911 3.216.027 9.311 2.333 12.318 5.025-1.74-3.76-8.306-5.825-9.005-6.852 2.64.082 8.665 2.763 12.245 5.483 1.495 1.136 1.534 1.11 1.308.31-1.042-2.589-4.18-5.024-7.158-6.97 2.993.24 8.853 4.617 12.629 8.618-.35-2.033-3.488-4.902-5.3-7.374 2.697.976 7.368 5.912 10.06 10.317-.238-2.27-1.851-5.055-2.777-7.583 1.81 1.854 4.022 6.184 5.671 10.651.27-1.763-.859-5.158-1.476-7.956 1.84 3.155 3.596 6.956 4.04 11.734.574-2.707-.143-4.876-.476-7.205 1.898 3.124 2.382 6.348 1.995 9.635-1.901 16.623-14.557 21.843-29.907 24.208-.959.05-1.494-.697-.858-.858 26.456-4.51 27.475-22.567 19.974-25.666-2.264-.935-7.056-1.953-11.646-.402-2.86.967-6.257 2.373-8.161 6.58-1.616 3.569-1.558 6.17-1.645 8.273-.125 3.048.528 5.734-1.208 10.847-.822 2.422-3.935 1.964-4.177.245-.806-5.7-.454-12.057-3.003-15.076-.678-.802-.555-1.768.245-2.941.63-.926 1.42-2.79.245-4.124-.928-1.055-2.41-1.474-4.29-1.76-3.264-.496-1.965-2.627.49-2.206 3.453 2.357 7.65 2.639 10.56 1.86 5.608-1.5 7.558-6.693 6.568-10.363-.705-2.612-3.404-4.422-7.69-4.36-3.036-.075-5.485 1.152-7.232 2.628-2.9 2.452-4.367 6.418-4.596 9.132z" color="#000" fill="#025" fill-rule="evenodd" stroke="#000" stroke-width=".12858706" stroke-linecap="round" stroke-linejoin="round" overflow="visible" />
   <path style="marker:none" d="M174.676 161.54c.339-4.086 2.126-6.389 4.68-7.368 4.56-1.748 7.164 1.1 8.147 3.77 1.293 3.511-1.491 6.267-3.943 6.934-3.71 1.008-6.928.063-8.364-1.907" color="#000" fill="#fac53a" fill-rule="evenodd" stroke="#000" stroke-width=".21463404" stroke-linecap="round" stroke-linejoin="round" overflow="visible" />
   <path style="marker:none" d="M174.286 162.882c.054-.804 1.067-1.124 1.087-1.35.339-3.683 1.931-5.717 4.33-6.666 3.067-1.214 5.453-.047 6.804 3.076 1.077 2.493-.227 5.03-3.294 6.11-2.884 1.016-5.264-.057-7.573-1.72-.105-.075-.513.585-1.354.55zM171.827 198.242c-16.578 11.496-14.535 25.014-16.001 38.36-.045.41-.09 40.251-.137 40.66l24.293-.367-.016-40.294c-.024-6.572 2.203-10.88 4.428-14.64l-12.567-23.719z" color="#000" fill="#025" fill-rule="evenodd" stroke="#000" stroke-width=".21463404" stroke-linecap="round" stroke-linejoin="round" overflow="visible" />
   <path d="M271.381 549.365l-1.202.32.74 12.023c.093 17.746.563 36.573 4.168 49.573l5.23-8.442 10.056 8.597c-3.039-31.149-9.332-22.25-18.992-62.07z" fill="#04a" fill-rule="evenodd" stroke="#000" stroke-width=".43216854" />
   <path d="M276.443 618.688l5.852-8.286 7.865 6.627" fill="none" stroke="#c13c1b" stroke-width=".43216854" stroke-linecap="round" stroke-linejoin="round" />
   <path d="M277.41 625.884l5.723-8.033 7.637 6.377M278.486 633.424l5.476-7.765 7.417 6.204M279.588 641.463l5.412-7.637 7.149 5.956M280.556 648.877l5.264-7.54 7.105 5.922M281.636 656.674l5.023-7.232 6.894 5.827M282.827 664.345l4.888-7.017 6.719 5.69M283.824 671.676l4.72-6.758L295 670.4M284.743 678.58l4.621-6.588 6.235 5.31M285.46 685.913l4.803-6.419 6.04 5.013M286.348 693.178l4.893-6.225 5.835 4.959M287.29 700.574l4.571-5.734 6.158 4.535M288.313 707.845l4.595-5.634 5.745 4.135M290.947 726.72l4.43-5.172 5.418 3.503M290.073 720.87l4.364-5.557 5.668 3.903M289.288 714.238l4.44-5.17 5.554 3.733M291.832 733.285l4.472-5.274 5.312 3.974M292.707 739.449l4.199-5.018 5.495 3.503M294.223 751.677l4.43-5.018 5.727 3.503M293.58 745.463l4.155-4.753 5.619 3.596M294.557 753.926l10.15-1.533" fill="none" stroke="#c13c1b" stroke-width=".43216854" stroke-linecap="round" stroke-linejoin="round" />
   <g fill-rule="evenodd" stroke="#000" stroke-linecap="round" stroke-linejoin="round">
      <path d="M286.164 544.888c2.696-.88 4.905-.544 7.031 0l-1.24-33.732 16.064 1.072c-.491-2.416-.658-4.832 0-7.247l-16.063 1.126h0c3.364-6.013 8.081-11.345 9.778-20.139 3.428-17.771-5.634-17.025-11.92-17.081-6.844-.062-16.948 1.007-12.744 17.839 1.933 7.741 6.647 13.83 10.45 19.381h0l-18.053-1.126c.606 2.415.548 4.831 0 7.247l18.052-1.072h0l-1.355 33.732z" fill="#025" stroke-width=".21417" />
      <path d="M287.52 501.14c-3.47-4.71-6.8-9.312-7.638-15.388-1.694-12.282 4.683-13.654 9.842-13.685 4.587-.027 11.367.623 8.332 13.577-1.424 6.078-3.639 11.545-6.1 15.496-1.541 2.087-3.196 1.745-4.437 0z" fill="#fff" stroke-width=".21417" />
   </g>
   <path d="M301.577 448.628l-19.85-.54c-.993 4.965-3.446 10.222-5.841 15.468-3.166 5.026-3.372 11.44-2.488 17.524l-.325 5.734c8.916 1.067.302-10.832 5.95-15.253l.865 8.221c1.617 1.54 3.21 2.757 4.544.325 1.586 1.777 3.173 1.648 4.76-.325 1.94 2.509 3.523.743 5.192 0 1.778 1.392 3.661 1.886 4.868-1.298.35-8.683 2.948-17.116 2.325-29.856z" fill="#a13c2a" fill-rule="evenodd" stroke="#000" stroke-width=".43216854" stroke-linecap="round" stroke-linejoin="round" />
   <g fill-rule="evenodd" stroke="#000" stroke-linecap="round" stroke-linejoin="round">
      <path d="M281.557 436.892l20.824.162-.866 13.143-19.85-.757-.108-12.548z" fill="#fac53a" stroke-width=".21417" />
      <path d="M281.557 438.785l20.661.27-.212 4.06-20.395-.32-.054-4.01z" fill="#04a" stroke-width=".21417" />
      <path d="M281.339 436.837l20.878.217-.593 13.089-20.232-.703-.053-12.603z" fill="#fac53a" stroke-width=".21417" />
      <path d="M281.364 438.785l20.854.27-.25 4.06-20.55-.32-.054-4.01zM281.403 444.024l20.49.309-.212 4.06-20.224-.359-.054-4.01z" fill="#04a" stroke-width=".21417" />
   </g>
   <g>
      <path d="M151.83-196.826h25.973v12.197H151.83v-12.197z" fill="#fac53a" fill-rule="evenodd" stroke="#000" stroke-width=".224" transform="matrix(.93386 0 0 .96682 13.928 455.766)" />
      <path d="M153.196-195.633l22.881.104M153.186-193.814l22.881.104M153.18-191.84l22.882.105M153.25-189.78l22.881.103M153.4-187.648l22.877-.055M153.317-185.748l22.95-.216" fill="none" stroke="#c13c1b" stroke-width=".665" stroke-linecap="round" stroke-linejoin="round" transform="matrix(.93386 0 0 .96682 13.928 455.766)" />
   </g>
   <path d="M70.073 424.773c-10.26 1.609-22.706 5.432-31.006 18.986l-5.114 3.167c2.705 5.952 8.038 2.536 9.736-.572-1.007 2.748-.476 4.504 2.77 4.51-.688 2.563.216 4.048 3.228 4.104-1.604 2.526.297 4.752 3.075 4.24-.977 3.232.756 4.605 2.473 4.637 4.58 1.97 25.028-23.414 27.065-25.628" fill="#a13c2a" fill-rule="evenodd" stroke="#000" stroke-width=".43216854" stroke-linecap="round" stroke-linejoin="round" />
   <path d="M43.674 233.05c.717-7.124-.404-13.378 2.521-22.04 3.57-10.569 7.136-12.401 11.293-17.955 1.575-1.287 4.167.058 3.317 2.504-4.822 4.491-8.263 10.623-9.67 14.123 1.448-.164 8.413-.698 8.569 6.519l-.024 492.833c7.755 8.899 1.09 15.739 1.506 23.47-.793.382-1.422.138-1.502-.536-1.039-8.46 1.847-12.15-.052-16.55-.908-2.103-2.607-2.005-3.598-.214-2.133 3.857.856 6.23.076 16.682-.057.76-.989.98-1.369.524-.486-7.768-5.855-14.315 1.253-23.384l-.009-492.236c-.4-4.026-4.756-4.458-6.92.092-2.536 5.334-1.461 10.863-2.14 16.293-1.127 3.497-3.442 2.15-3.251-.126z" fill="#025" fill-rule="evenodd" stroke="#000" stroke-width=".21463404" stroke-linecap="round" stroke-linejoin="round" />
   <g fill-rule="evenodd" stroke="#000" stroke-linecap="round" stroke-linejoin="round">
      <path d="M70.44 411.6l21.398 12.624-9.246 13.956-17.57-12.765L70.44 411.6z" fill="#fac53a" stroke-width=".28617" />
      <path d="M69.752 413.34l20.882 13.028-2.71 3.973-19.673-13.04 1.501-3.96zM67.419 419.441l18.927 13.079-2.929 4.355-17.718-13.09 1.72-4.344z" fill="#04a" stroke-width=".28617" />
   </g>
   <path d="M56.607 435.584c3.666-2.82 8.043-2.395 4.592 1.785 2.973-2.83 9.083-2.346 3.017 3.458 5.533-3.328 5.841 1.142 3.005 3.662 3.732-2.29 4.733 1.309.93 4.971-3.792 4.72-8.236 9.547-12.523 14.238-.08.084-.187.137-.356.12-1.717-.033-3.424-1.24-2.446-4.473-2.779.512-4.68-1.714-3.076-4.24-3.011-.056-3.915-1.54-3.228-4.104-3.246-.006-4.096-1.275-3.088-4.023.133-.23.263-.407.39-.541 4.58-4.955 8.793-8.515 12.666-10.784m.832-.51c-.29 1.228.936 2.9 3.01 2.933m.84-.531c-.83 1.442 1.604 3.408 2.925 3.33m.34-.198c-1.223 1.513.571 4.713 3.195 3.37m-.457.507c-.707 1.605.586 3.26 2.027 3.607m-19.438 6.941c.534-.377 14.484-14.255 14.484-14.255M46.657 450.92c.763-.773 14.598-13.572 14.598-13.572m-8.365 21.97l14.433-14.907" fill="#a13c2a" fill-rule="evenodd" stroke="#000" stroke-width=".43216854" stroke-linecap="round" stroke-linejoin="round" />
   <path d="M61.172 437.545c-.243.168-.282.502-.84.531-2.527.005-3.126-2.491-3.03-2.938 3.465-2.255 7.165-1.604 3.937 2.306 2.974-2.83 9.043-2.421 2.977 3.383 5.533-3.328 5.911 1.029 3.075 3.549 3.317-2.036 4.407.694 1.932 3.829-1.462-.39-2.755-2.046-1.911-3.81-2.487 1.183-4.098-2.205-3.045-3.619-1.491.177-3.926-1.79-3.095-3.231z" fill="#fff" fill-rule="evenodd" stroke="#000" stroke-width=".43216854" stroke-linecap="round" stroke-linejoin="round" />
   <path d="M62.04 434.132c-2.427-.894-5.61.893-12.635 6.77l-1.296-7.426c7.361-5.004 10.655-6.424 17.04-7.775" fill="#a13c2a" fill-rule="evenodd" />
   <path d="M49.405 440.902c7.026-5.877 10.31-7.673 12.736-6.78m2.94-8.378c-6.385 1.351-9.749 2.626-17.09 7.846" fill="none" stroke="#000" stroke-width=".43216854" />
   <g>
      <path d="M4025.317 656.303l33.517-.045-.218 55.187-31.768.818-1.531-55.96z" fill="#fac53a" fill-rule="evenodd" stroke="#000" transform="matrix(.2675 0 0 .21617 -774.084 123.647)" />
      <path d="M4026.335 661.639l27.84.463M4026.705 670.056l26.968.182M4026.818 678.605l26.602.463M4027.407 687.812l26.667.463M4027.967 696.844l26.528.26M4028.121 704.836l26.545-.079" fill="none" stroke="#c13c1b" stroke-width="2.972" stroke-linecap="round" stroke-linejoin="round" transform="matrix(.2675 0 0 .21617 -774.084 123.647)" />
      <path d="M4025.205 656.13l1.555 54.548" fill="none" stroke="#000" transform="matrix(.2675 0 0 .21617 -774.084 123.647)" />
   </g>
   <g fill-rule="evenodd" stroke="#000" stroke-linecap="round" stroke-linejoin="round">
      <path d="M-2298.264 185.199l129.779 8.359-8.488 77.742-132.395-13.063 11.104-73.038z" fill="#fac53a" transform="matrix(.26144 -.00426 .00494 .22537 709.259 218.79)" />
      <path d="M-2299.299 193.609l129.66 10.549-2.604 22.255-130.567-9.952 3.511-22.852zM-2304.076 224.65L-2173.32 236l-2.746 24.159-131.762-10.989 3.753-24.52z" fill="#04a" transform="matrix(.26144 -.00426 .00494 .22537 709.259 218.79)" />
   </g>
   <g fill-rule="evenodd" stroke="#000" stroke-linecap="round" stroke-linejoin="round">
      <path d="M-2301.611 184.81l110.51 7.598-12.757 77.185-100.902-10.518 3.149-74.266z" fill="#fac53a" transform="matrix(.25786 .0433 -.03608 .22252 725.312 752.729)" />
      <path d="M-2302.218 193.931l109.506 8.31-3.595 21.223-106.536-7.241.625-22.292zM-2303.251 224.49l104.788 11.037-4.15 23.206-101.819-9.488 1.18-24.755z" fill="#04a" transform="matrix(.25786 .0433 -.03608 .22252 725.312 752.729)" />
   </g>
   <g fill-rule="evenodd" stroke="#000" stroke-linecap="round" stroke-linejoin="round">
      <path d="M-2305.348 184.73l117.692 7.561-12.03 77.508-107.182-11.397 1.52-73.671z" fill="#fac53a" transform="matrix(.26105 -.01487 .01408 .22499 838.05 624.389)" />
      <path d="M-2305.446 193.202l116.011 9.648-3.645 22.187-112.856-8.782.49-23.053zM-2306.264 224.506l112.106 10.117-3.892 24.083-108.633-9.46.42-24.74z" fill="#04a" transform="matrix(.26105 -.01487 .01408 .22499 838.05 624.389)" />
   </g>
   <path d="M265.156 559.644c-90.46-15.205-106.955-83.4-100.208-171.31l82.405-14.567c7.817 13 12.425 30.564 6.55 40.069 7.66 48.434 12.312 97.664 11.253 145.808z" fill="#fac53a" fill-rule="evenodd" stroke="#000" stroke-width=".21656768" />
   <g>
      <path d="M247.09 373.622l-6.272-29.79-75.805 36.691-.231 7.61 82.307-14.51z" fill="#fac53a" fill-rule="evenodd" stroke="#000" stroke-linecap="round" stroke-linejoin="round" stroke-width=".21617" />
      <path d="M214.402 362.528l6.635-2.76 1.657 4.098-6.732 2.396-1.56-3.734z" fill="#04a" fill-rule="evenodd" stroke="#04a" stroke-width=".24989251999999998" />
      <path d="M223.688 358.666l6.035-2.532 1.939 4.724-6.181 2.11-1.793-4.302z" fill="#c13c1b" fill-rule="evenodd" stroke="#c13c1b" stroke-width=".24989251999999998" />
      <path d="M232.423 355.192l6.879-2.9 2.081 5.018-7.132 2.487-1.828-4.605z" fill="#04a" fill-rule="evenodd" stroke="#04a" stroke-width=".24989251999999998" />
      <path d="M240.817 343.723l.738 3.653-73.132 32.072-3.25.909 75.644-36.634z" fill="#fff" fill-rule="evenodd" stroke="#000" stroke-linecap="round" stroke-linejoin="round" stroke-width=".21617" />
      <path d="M177.68 377.468l6.053-2.42.858 2.324-6.116 2.251-.795-2.155z" fill="#04a" fill-rule="evenodd" stroke="#04a" stroke-width=".24989251999999998" />
      <path d="M186.735 373.868l6.421-2.697.993 2.743-6.47 2.318-.944-2.364z" fill="#c13c1b" fill-rule="evenodd" stroke="#c13c1b" stroke-width=".24989251999999998" />
      <path d="M195.786 370.232l6.517-2.81 1.372 3.233-6.835 2.363-1.054-2.786z" fill="#04a" fill-rule="evenodd" stroke="#04a" stroke-width=".24989251999999998" />
      <path d="M205.168 366.15l6.689-2.761 1.633 3.865-6.844 2.432-1.478-3.536z" fill="#308d57" fill-rule="evenodd" />
      <path d="M243.439 356.805L176.5 380.386M242.23 350.961l-67.79 27.732M231.478 355.515l1.925 4.594M230.598 355.752l1.91 4.723M241.06 351.512l2.102 5.248M240.188 351.878l2.146 5.201M222.821 359.091l1.892 4.165M221.884 359.427l1.852 4.177M213.61 362.827l1.52 3.68M212.704 363.061l1.651 3.854M204.024 366.661l1.508 3.272M203.191 367.039l1.452 3.289M194.932 370.543l1.015 2.754M194.003 370.926l1.095 2.744M185.892 374.222l.79 2.435M184.877 374.58l.874 2.475M176.86 377.815l.788 2.052M176.06 378.05l.865 2.102" fill="none" stroke="#000" stroke-width=".24989251999999998" stroke-linecap="round" stroke-linejoin="round" />
      <path d="M234.831 365.762l7.162-2.107 1.504 5.22-7.367 1.669-1.299-4.782z" fill="#04a" fill-rule="evenodd" stroke="#04a" stroke-width=".24989251999999998" />
      <path d="M225.762 368.232l6.28-1.838 1.474 4.858-6.457 1.455-1.297-4.475z" fill="#c13c1b" fill-rule="evenodd" stroke="#c13c1b" stroke-width=".24989251999999998" />
      <path d="M216.1 371.024l6.902-1.995 1.187 4.258-6.959 1.623-1.13-3.886z" fill="#04a" fill-rule="evenodd" stroke="#04a" stroke-width=".24989251999999998" />
      <path d="M206.517 373.584l6.957-1.991 1.187 4.024-7.074 1.647-1.07-3.68z" fill="#308d57" fill-rule="evenodd" />
      <path d="M196.735 376.585l6.792-2.058 1 3.366-7.142 1.648-.65-2.956z" fill="#04a" fill-rule="evenodd" stroke="#04a" stroke-width=".24989251999999998" />
      <path d="M187.34 379.116l6.676-1.894.678 2.837-6.689 1.575-.665-2.518z" fill="#c13c1b" fill-rule="evenodd" stroke="#c13c1b" stroke-width=".24989251999999998" />
      <path d="M178.326 381.733l5.999-1.631.644 2.256-6.072 1.453-.571-2.078z" fill="#04a" fill-rule="evenodd" stroke="#04a" stroke-width=".24989251999999998" />
      <path d="M245.917 368.458l-69.486 16.047M244.693 362.805l-69.923 19.747M233.856 365.976l1.396 4.782M232.955 366.113l1.366 4.908M243.825 363.065l1.501 5.463M242.92 363.342l1.547 5.41M224.852 368.556l1.411 4.351M223.883 368.785l1.37 4.359M215.279 371.232l1.097 3.829M214.352 371.363l1.207 4.015M205.322 373.964l1.131 3.42M204.452 374.245l1.073 3.431M195.851 376.798l.699 2.85M194.885 377.074l.78 2.85M186.378 379.438l.663 2.428M185.406 379.679l.706 2.594M177.69 381.833l.595 2.204M177.043 382.015l.485 2.113" fill="none" stroke="#000" stroke-width=".24989251999999998" stroke-linecap="round" stroke-linejoin="round" />
      <path d="M177.248 380.766l66.636-22.16M177.418 381.257l66.887-20.475M176.572 385.069l69.612-15.23M175.538 385.813l71.203-13.826M171.075 378.831l70.672-30.349M172.882 378.73l69.147-28.99" fill="none" stroke="#000" stroke-width=".21617" />
      <path d="M164.746 388.174c7.907-1.79 13.708-.977 12.6-6.883-.808-4.309-8.228-2.253-12.328-.93l-.272 7.813z" fill="#fac53a" fill-rule="evenodd" stroke="#000" stroke-linecap="round" stroke-linejoin="round" stroke-width=".21617" />
   </g>
   <g>
      <path d="M148.115 559.472l16.978-170.265 88.628-.107c1.156 4.703 5.287 13.354.316 25.97 7.616 48.325 12.236 97.132 11.18 145.164l-117.102-.762z" fill="#fff" fill-rule="evenodd" stroke="#000" stroke-width=".43234" />
      <path d="M264.96 559.834c-90.453-15.254-106.911-83.457-100.117-171.364l82.412-14.523c7.81 13.004 12.545 31.472 6.665 40.973 7.634 48.439 12.124 96.77 11.04 144.914z" fill="#fac53a" fill-rule="evenodd" stroke="#000" stroke-width=".21617" />
      <path d="M247.072 374.024l-66.818 130.9M243.082 374.708l-64.67 126.693M176.706 497.612L239.1 375.378M235.086 376.109l-60.042 117.627M173.512 489.605l57.566-112.775M227.077 377.536l-55.035 107.816M170.678 480.893l52.41-102.675M219.112 378.876l-49.686 97.339M168.267 471.352l46.819-91.72M211.077 380.352l-43.82 85.848M166.298 460.945l40.766-79.862M203.088 381.74l-37.57 73.6M164.838 449.542l34.241-67.08M195.084 383.156l-30.789 60.317M163.883 437.15l27.194-53.275M187.088 384.557l-23.467 45.974M163.494 423.648l19.604-38.407M179.072 385.996l-15.549 30.463M163.701 408.978l11.395-22.324M171.07 387.412l-7.115 13.936M164.494 393.16l2.586-5.066M249.095 377.192l-66.94 131.141M184.14 511.575l66.72-130.708M252.502 384.782l-66.332 129.95M188.287 517.715l65.69-128.691M255.242 393.678l-64.75 126.85M192.744 523.247L256.217 398.9M256.525 405.428l-61.434 120.354M197.463 528.267l56.86-111.394M255.14 422.404l-55.225 108.19M202.362 532.934l53.56-104.93M256.749 433.518l-51.83 101.537M207.547 537.04l49.949-97.854M258.286 444.769l-48.082 94.197M212.93 540.756l46.007-90.13M259.666 456.33l-43.996 86.192M218.477 544.154l41.884-82.053M260.906 468.165l-39.61 77.6M224.191 547.224l37.444-73.356M262.11 480.07l-34.989 68.545M230.122 549.868l32.568-63.803M263.084 492.426l-29.975 58.722M236.128 552.367l27.424-53.727M264.001 504.893l-24.755 48.496M242.302 554.535l22.016-43.13M264.6 517.984l-19.111 37.44M248.7 556.263l16.2-31.734M265.067 531.332l-13.162 25.785M255.136 557.92l9.994-19.578M265.227 545.283l-6.786 13.295M261.758 559.21l3.356-6.574" fill="none" stroke="#c13c1b" stroke-width=".43234" />
      <path d="M264.925 559.834c-90.453-15.254-106.91-83.457-100.116-171.364l82.412-14.523c7.81 13.004 12.545 31.472 6.664 40.973 7.634 48.439 12.124 96.77 11.04 144.914z" fill="none" stroke="#000" stroke-width=".43234" />
   </g>
   <path style="marker:none" d="M168.157 371.762a.813 2.047-.507 11-1.627 0 .813 2.047-.507 111.627 0z" color="#000" fill-opacity=".706" fill-rule="evenodd" overflow="visible" />
   <g>
      <path d="M285.75 75.347c3.626 32.933 4.55 24.37 7.087 47.2-.125 1.11-1.494 1.045-1.71.403-2.852-16.461-7.64-19.677-9.926-33.678" fill="#fac53a" fill-rule="evenodd" stroke="#000" stroke-width=".5800919999999999" />
      <path d="M150.176 94.31c.283 5.59 5.304 12.096-.708 12.954-6.084.579-4.417-7.144-4.811-11.702.156-4.396 2.264-11.116 1.82-14.821-1.529-12.771-9.97-13.53-14.561-13.262-1.54-1.388-5.72-1.283-8.581.91-.237.387-.49.753-.39 1.56 1.965 2.814 5.587 2.936 9.49 2.6.434.087.607.347.52.78-3.054 2.84-3.338 5.465-3.25 8.062 1.672 8.562 3.145 17.997 5.179 25.666 3.806 14.354 21.988 7.213 23.47 2.563 1.127-1.731.169-5.044.135-6.99" fill="#fac53a" fill-rule="evenodd" stroke="#000" stroke-width=".48341" />
      <path d="M144.157 73.479l-.507-.272c-2.181-1.354-3.596-3.04-6.856-3.778-2.064-.59-4.337-.09-6.436.325-1.11.426-2.117.223-3.055-.39-.9-.845-2.345-.08-3.706 0l-.467-.103c.076-.3.22-.518.357-.742 2.862-2.193 6.782-2.298 8.322-.91 3.465-.203 9.123.18 12.348 5.87zM142.663 96.4c-2.497.715-5.353.844-7.972.334 0 0 2.619.51-.046-.095.69 3.32 1.584 7.356 2.68 12.138l.047-.046c-.228-3.52 5.023-3.648 5.516-1.793-.439-4.152-.092-.23-.092-.23-.347-3.922-.34-7.294-.133-10.308z" fill="#308d57" fill-rule="evenodd" />
      <path d="M142.75 106.708c-1.315-14.888 2.75-22.68 1.632-27.61-1.499-6.606-6.017-6.295-6.82-6.27-.829.027-5.232.62-5.515 7.307-.202 4.78 1.558 12.014 5.187 28.688" fill="none" stroke="#000" stroke-width=".18176216" />
      <path d="M132.625 86.438c3.65 1.39 7.763 1.722 11.448-.554-.455 2.834-1.126 6.353-1.42 10.658-2.508.631-5.343.702-7.978.237-.962-4.347-1.623-7.631-2.05-10.341z" fill="#c13c1b" fill-rule="evenodd" />
      <path d="M132.608 86.529c3.65 1.39 7.735 1.631 11.397-.598" fill="none" stroke="#000" stroke-width=".18176216" />
      <path d="M132.553 86.53c3.65 1.39 7.749 1.63 11.422-.578.483-2.807.78-5.027.366-6.853-1.499-6.607-6.017-6.296-6.82-6.27-.829.026-5.232.618-5.515 7.306-.072 1.71.12 3.735.547 6.395z" fill="#04a" fill-rule="evenodd" />
      <path d="M134.645 96.734c2.62.51 5.455.44 7.951-.276M123.79 69.234c1.361-.08 2.425-.814 3.324.03.938.614 1.908.844 3.055.543 2.063-.54 4.494-1.007 6.558-.416 3.26.737 5.316 2.821 7.497 4.175" fill="none" stroke="#000" stroke-width=".18176216" />
      <path d="M130.196 68.595a.97.86 0 11-1.94 0 .97.86 0 111.94 0z" style="marker:none" color="#000" fill-rule="evenodd" stroke="#000" stroke-linecap="round" stroke-linejoin="round" overflow="visible" stroke-width=".1552" />
      <path d="M137.326 108.731c-.227-3.52 5.023-3.648 5.608-1.563" fill="none" stroke="#000" stroke-width=".18176216" />
      <path d="M137.263 108.916c2.203-.557 4.094-.703 6.053-1.749M139.498 111.413c2.072-.298 3.66-1.633 4.72-2.788M141.72 112.718c1.659-.862 2.828-1.562 3.754-3.035" fill="none" stroke="#000" stroke-width=".096682" />
      <g fill="none" stroke="#000" stroke-width=".188">
         <path d="M142.713 106.708c-1.315-14.888 2.75-22.68 1.632-27.61-1.499-6.606-6.017-6.295-6.82-6.27-.829.027-5.232.62-5.515 7.307-.202 4.78 1.558 12.014 5.187 28.688M132.57 86.529c3.65 1.39 7.736 1.631 11.398-.598M134.608 96.734c2.62.51 5.455.44 7.951-.276" stroke-width=".18176216" />
         <path d="M137.289 108.731c-.227-3.52 5.023-3.648 5.608-1.563" stroke-linecap="round" stroke-linejoin="round" stroke-width=".18176216" />
      </g>
      <path d="M139.01 106.094c-1.927-11.126-.71-21.173-2.511-32.942.796-.39 1.593-.4 2.39-.183 2.187 7.562.499 22.631 2.338 32.982" fill="#fac53a" fill-rule="evenodd" stroke="#000" stroke-width=".18176216" />
      <path d="M262.472 73.968c0 30.598-20.95 44.024-48.723 44.024-27.772 0-48.218-14.779-47.768-44.024.45-29.248 19.996-44.024 47.768-44.024 27.773 0 48.723 13.876 48.723 44.024z" style="marker:none" color="#000" fill="#c13c1b" fill-rule="evenodd" stroke="#c13c1b" stroke-width="37.253508239999995" stroke-linecap="round" stroke-linejoin="round" overflow="visible" />
      <path d="M280.792 73.747c0 40.768-27.913 58.656-64.916 58.656s-64.244-19.69-63.645-58.656c.6-38.97 26.642-58.655 63.645-58.655s64.916 18.487 64.916 58.655z" style="marker:none" color="#000" fill="none" stroke="#fff" stroke-width="6.44095484" stroke-linecap="round" stroke-linejoin="round" overflow="visible" />
      <path d="M282.03 73.7c0 41.603-28.486 59.858-66.248 59.858s-65.561-20.095-64.95-59.859c.612-39.768 27.188-59.858 64.95-59.858s66.247 18.867 66.247 59.858z" style="marker:none" color="#000" fill="none" stroke="#000" stroke-width="7.73456" stroke-linecap="round" stroke-linejoin="round" overflow="visible" />
      <path style="marker:none" d="M282.03 73.7c0 41.603-28.486 59.858-66.248 59.858s-65.561-20.095-64.95-59.859c.612-39.768 27.188-59.858 64.95-59.858s66.247 18.867 66.247 59.858z" color="#000" fill="none" stroke="#fac53a" stroke-width="6.57244236" stroke-linecap="round" stroke-linejoin="round" overflow="visible" />
      <path d="M283.752 73.545c0 42.86-29.346 61.668-68.25 61.668-38.902 0-67.542-20.702-66.912-61.668.63-40.97 28.01-61.668 66.913-61.668 38.903 0 68.25 19.438 68.25 61.668z" style="marker:none" color="#000" fill="none" stroke="#000" stroke-width=".48341" stroke-linecap="round" stroke-linejoin="round" stroke-dasharray=".5 4" overflow="visible" />
      <path d="M282.279 73.526c0 42.023-28.485 60.463-66.247 60.463-37.761 0-65.56-20.298-64.949-60.463.612-40.17 27.188-60.462 64.95-60.462 37.76 0 66.246 19.057 66.246 60.462z" style="marker:none" color="#000" fill="none" stroke="#000" stroke-width=".24267182" stroke-linecap="round" stroke-linejoin="round" stroke-dasharray=".251 6.03" overflow="visible" />
      <path d="M136.518 109.53c2.986 6.474 11.314 7.215 19.595 1.123" fill="none" stroke="#000" stroke-width=".241705" stroke-linecap="round" stroke-linejoin="round" stroke-dasharray="1 2" />
      <path d="M137.467 110.308c3.287 3.467 6.895 6.541 18.3.086" fill="none" stroke="#000" stroke-width=".193364" stroke-linecap="round" stroke-linejoin="round" stroke-dasharray=".2 2.4" />
      <path d="M137.252 108.581c-.228-2.224 3.79-4.092 5.632-1.51" fill="none" stroke="#000" stroke-width=".241705" stroke-linecap="round" stroke-linejoin="round" />
   </g>
   <g>
      <path d="M210.945-175.397h26.425v12.196h-26.425v-12.196z" fill="#fac53a" fill-rule="evenodd" stroke="#000" stroke-width=".224" transform="matrix(.97491 0 0 .96682 -4.794 434.933)" />
      <path d="M212.585-174.204l22.881.104M212.575-172.066l22.88.104M212.65-170.091l22.88.104M212.639-168.192l22.881.103M212.79-166.22l22.875-.054M212.706-164.24l22.95-.215" fill="none" stroke="#c13c1b" stroke-width=".665" stroke-linecap="round" stroke-linejoin="round" transform="matrix(.97491 0 0 .96682 -4.794 434.933)" />
   </g>
   <g color="#000" fill-rule="evenodd" stroke-width=".2" stroke-linecap="round" stroke-linejoin="round">
      <path d="M165.846 154.7c-.613-.378-1.426-.202-2.126.242s-1.332 1.144-1.836 2.017c-.504.872-.8 1.78-.846 2.628-.045.848.19 1.673.803 2.052.612.378 1.426.202 2.126-.242s1.352-1.131 1.856-2.004.78-1.793.825-2.641c.046-.848-.19-1.673-.802-2.052z" style="marker:none" fill="#025" stroke="#000" overflow="visible" stroke-width=".193364" />
      <path d="M164.522 156.993c.039.024.099.08.085.339-.014.258-.134.668-.372 1.08-.238.411-.53.715-.743.85-.213.135-.29.108-.328.084-.038-.024-.077-.068-.063-.326.013-.258.113-.68.35-1.093.238-.411.55-.702.764-.837.213-.136.27-.12.307-.097z" style="marker:none" fill="#fff" stroke="#fff" overflow="visible" stroke-width=".193364" />
   </g>
</svg>