<svg width="536" height="600" xmlns="http://www.w3.org/2000/svg">
    <path d="M305.66 596.17c-15.5-10.41-27.92-34.45-33.62-65.03-2.49-13.3-2.23-27.13.84-46.53 1.58-10 1.52-11.7-.68-17.48-1.99-5.2-3.56-6.93-8.32-9.25-5.15-2.51-6.4-2.64-10.09-1.1-9.75 4.03-15.48 15.16-21.44 41.63-1.87 8.25-4.31 16.43-5.46 18.18-2.87 4.43-12.2 8.34-19.96 8.38-13.66.06-20.37-6.08-22.11-20.21-1.9-15.45-17-37.06-32.24-46.18-9.2-5.48-20.95-8.58-32.64-8.58-20.86 0-24.73-6.57-19.78-33.6 1.08-5.89 2.63-17.47 3.47-25.72 3.53-35.17 8-55.13 17.35-77.38 3.4-8.13 5.85-15.14 5.41-15.56-.42-.43-5.25-1.97-10.73-3.43-19.15-5.08-52.8-20.63-71.33-32.96-11.68-7.75-28.06-24.77-33.9-35.2C4.96 216.35 0 199.21 0 190.1c0-8.18 3.66-24.69 7.01-31.63 4.35-9 15.6-20.42 24.58-24.94 34.41-17.38 71.16-3.49 79.69 30.08 4.69 18.46-2.25 39.63-15.97 48.71-5.77 3.82-20.45 8.56-26.53 8.58-12.55.04-26.08-8.05-30.78-18.39-3.59-7.91-3.48-22.93.19-26.6 5.77-5.77 16.36-1.58 16.36 6.48.02 8.82 10.55 18.12 18.31 16.17 5.28-1.32 14.5-10.21 17.43-16.83 2.53-5.71 2.52-5.82-.37-12.56-3.6-8.38-13.52-17.89-22.03-21.15-5.92-2.26-6.8-2.27-12.76-.24-18.52 6.31-31.44 20.86-34.06 38.34-2.37 15.83 15.48 41.96 39.72 58.15 22.83 15.24 76.37 37.51 78.11 32.49 1.28-3.72 26.05-39.24 36.13-51.8 15.01-18.74 29.3-32.11 60.58-56.73 36.29-28.57 50.82-41.32 63.25-55.55 14.41-16.48 18.24-24.74 21.76-46.79 6.78-42.63 11.48-53.09 27.51-61.27 24.51-12.5 54.07 2.68 54.18 27.81.06 13.2-4.43 23.55-22.25 51.41-14.01 21.88-15.12 25.21-15.03 45.71.05 12.91 1.14 23.16 4.5 42.27 4.09 23.3 4.36 26.83 3.72 46.36-.45 13.79-1.92 28.09-4.23 41.14-3.31 18.83-9.98 46.93-13.04 54.97-.76 1.99-1.37 4.17-1.37 4.86 0 2.22 8.33 5.61 25.12 10.24 72.61 19.96 112.45 48.08 142.28 100.4 8.44 14.84 14.59 31.28 13.42 35.95-1.35 5.4-5.65 8.81-11.12 8.81-7.23 0-9.45-1.82-12.89-10.53-5.56-14.09-15.31-31.97-23.2-42.53-10.18-13.68-27.89-30.41-42.26-39.97-11.81-7.84-32.27-18.32-33.47-17.13-.36.37 2.62 4.64 6.6 9.51 29.72 36.24 47.91 83.11 49.73 128.07.71 17.66.6 18.69-2.19 21.48-3.69 3.69-10.23 3.79-13.83.19-2.03-2.04-2.72-4.56-2.74-9.89 0-10.57-3.61-32.75-7.55-46.47-12.99-45.26-45.64-91.61-81.37-115.5-6.7-4.48-12.73-8.14-13.41-8.14-1.85 0-4.01 4.73-16.77 36.9-18.81 47.37-24.5 71.15-24.57 102.87-.08 29.7 5.17 53.59 18.32 83.43 8.8 19.97 8.77 26.52-.08 31.1-6.11 3.15-12.52 2.55-18.97-1.77m14.55-6.48c4.08-2.85 3.84-5.11-1.75-16.77-13.14-27.44-20.11-57.52-20.26-87.47-.19-36.28 5.9-60.45 30.57-121.36 19.45-47.97 27.08-74.06 33.32-113.86 4.75-30.33 4.57-46.73-.83-77.81-3.29-18.86-4.28-28.69-4.35-42.87-.11-22.5 1.04-25.94 17.04-51.26 14.18-22.46 18.91-32.62 19.81-42.49.89-9.71-1.62-16.35-7.98-21.2-14-10.67-36.94-6.81-45.41 7.64-5.29 9.01-7.08 15.34-10.25 36.26-5.25 34.62-9.71 43.77-33.22 67.95-13.26 13.64-19.33 18.79-65.04 55.17-33.5 26.66-49.1 43.69-73.45 80.2-30.49 45.72-41.24 75.45-46.6 128.86-.83 8.25-2.39 19.83-3.46 25.72-3.99 21.78-2.2 25.42 12.5 25.42 20.16 0 36.59 7.4 51.43 23.18 11.17 11.88 17.95 24.03 20.16 36.14 1.99 10.93 3.07 12.57 9.44 14.48 5.86 1.76 14.63.12 17.44-3.26.78-.94 3.35-9.37 5.7-18.74 6.88-27.41 13.33-38.98 23.98-43.05 15.34-5.86 30.27 3.07 32.79 19.64.63 4.06.15 11.33-1.3 20.02-2.78 16.59-2.86 27.27-.35 40.44 5.17 26.96 17.44 50.91 30.06 58.6 5.07 3.09 6.14 3.13 10.01.42m142.28-73.13c3.93-7.32-2.84-49.05-11.68-72.03-11.9-30.93-32.77-63.58-53.12-83.1-5.11-4.91-6.3-9.16-2.9-10.46 4.97-1.91 37.97 12.7 56.47 25 14.65 9.73 32.22 26.37 42.69 40.42 7.24 9.72 17.02 27.87 24.17 44.86 2.84 6.75 4.73 7.73 8.96 4.65 2.4-1.77 2.36-2.22-1.23-11.6-3.98-10.44-17.18-33.29-25.72-44.53-9.46-12.49-27.1-29.07-40.36-37.97-24.26-16.31-48.56-26.81-85.7-37.01-9.18-2.53-17.28-4.97-18.02-5.42-.74-.45-2.28 1.03-3.45 3.28l-2.11 4.1 5.12 2.65c31.11 16.02 65.7 56.6 83.57 98.03 9.3 21.56 16.32 51.76 16.34 70.28.01 10.39 3.67 15.03 6.97 8.85M130.94 287.7c2.09-3.9 1.14-4.73-7.78-6.74-14.69-3.28-51-20-67.83-31.24-24.11-16.1-40.5-39.98-40.82-59.49-.24-14.29 7.91-31.18 19.2-39.73 5.87-4.45 18.27-9.76 25.62-10.97 6.07-1 19.28 4.51 26.25 10.93 6.4 5.89 9.89 11.66 12.66 20.94 1.53 5.11 1.39 6.5-1.35 13.25-4.94 12.15-17.02 21.31-28.01 21.22-8.97-.07-19.77-9.78-19.78-17.77 0-1.92-.91-4.68-2.05-6.14-2.02-2.61-2.07-2.61-4.09 0-6.56 8.49 4.72 27.09 18.69 30.84 12.53 3.38 29.18-3.54 37.42-15.54 11.42-16.59 9.03-35.87-6.34-51.24-9.86-9.86-17.34-12.94-31.36-12.93-10.28 0-12.72.52-21.55 4.6-11.25 5.19-22.35 15.9-27.48 26.49-4.39 9.07-6.22 23.55-4.39 34.69 4.15 25.12 25.55 49.28 60.24 67.99 18.77 10.12 51.61 23.08 59.62 23.5.91.05 2.33-1.15 3.13-2.66" />
    <path fill="#fefefe" d="M310.2 589.27c-12.62-7.69-24.89-31.64-30.06-58.6-2.51-13.17-2.43-23.85.35-40.44 1.45-8.69 1.93-15.96 1.3-20.02-2.52-16.57-17.45-25.5-32.79-19.64-10.65 4.07-17.1 15.64-23.98 43.05-2.35 9.37-4.92 17.8-5.7 18.74-2.81 3.38-11.58 5.02-17.44 3.26-6.37-1.91-7.45-3.55-9.44-14.48-2.21-12.11-8.99-24.26-20.16-36.14-14.84-15.78-31.27-23.18-51.43-23.18-14.7 0-16.49-3.64-12.5-25.42 1.07-5.89 2.63-17.47 3.46-25.72 5.36-53.41 16.11-83.14 46.6-128.86 24.35-36.51 39.95-53.54 73.45-80.2 45.71-36.38 51.78-41.53 65.04-55.17 23.51-24.18 27.97-33.33 33.22-67.95 3.17-20.92 4.96-27.25 10.25-36.26C348.8 7.85 371.74 4 385.78 14.62c6.36 4.81 8.87 11.47 7.98 21.18-.9 9.87-5.63 20.03-19.81 42.49-16 25.32-17.15 28.76-17.04 51.26.07 14.18 1.06 24.01 4.35 42.87 5.4 31.08 5.58 47.48.83 77.81-6.24 39.8-13.87 65.89-33.32 113.86-24.67 60.91-30.76 85.08-30.57 121.36.15 29.95 7.12 60.03 20.26 87.47 5.59 11.66 5.83 13.92 1.75 16.77-3.87 2.71-4.94 2.67-10.01-.42" />
    <path fill="#ffbf53" d="M456.95 516.91c-.78-1.46-1.42-5.6-1.43-9.2-.02-18.52-7.04-48.72-16.34-70.28-17.87-41.43-52.46-82.01-83.57-98.03l-5.12-2.65 2.11-4.1c1.17-2.25 2.71-3.73 3.45-3.28.74.45 8.84 2.89 18.02 5.42 37.14 10.2 61.44 20.7 85.7 37.01 13.26 8.9 30.9 25.48 40.36 37.97 8.54 11.24 21.74 34.09 25.72 44.53 3.59 9.38 3.63 9.83 1.23 11.6-4.23 3.08-6.12 2.1-8.96-4.65-7.15-16.99-16.93-35.14-24.17-44.86-10.47-14.05-28.04-30.69-42.69-40.42-18.5-12.3-51.5-26.91-56.47-25-3.4 1.3-2.21 5.55 2.9 10.46 20.35 19.52 41.22 52.17 53.12 83.1 8.84 22.98 15.61 64.71 11.68 72.03-1.97 3.68-3.7 3.79-5.54.35M118.66 288.27c-9.66-2.59-37.32-14.32-50.47-21.41-34.69-18.71-56.09-42.87-60.24-67.99-1.83-11.14 0-25.62 4.39-34.69 5.12-10.55 16.23-21.3 27.36-26.43 8.66-3.99 11.25-4.55 21.56-4.6 14.15-.09 21.53 2.94 31.47 12.87 15.37 15.37 17.76 34.65 6.34 51.24-8.24 12-24.89 18.92-37.42 15.54-13.97-3.75-25.25-22.35-18.69-30.84 2.02-2.61 2.07-2.61 4.09 0 1.14 1.46 2.05 4.22 2.05 6.14.01 7.99 10.81 17.7 19.78 17.77 10.99.09 23.07-9.07 28.01-21.22 2.74-6.75 2.88-8.14 1.35-13.25-4.32-14.49-13.42-24.51-26.75-29.51-8.96-3.36-12.27-3.18-24.14 1.28-15.23 5.73-25.9 17.07-30.62 32.58-9.13 29.95 13.64 63.05 59.03 85.78 17.58 8.81 38.85 17.52 47.4 19.43 8.92 2.01 9.87 2.84 7.78 6.74-1.71 3.2-2.31 3.23-12.28.57" />
</svg>