<svg width="133" height="600" xmlns="http://www.w3.org/2000/svg">
    <path d="M102.01 597.42c-1.42-1.41-2.58-3.01-2.58-3.54 0-.52.84-8.85 1.86-18.5 4.54-42.94 3.79-70.85-2.24-83.9-10.11-21.86-40.08-40.13-89.03-54.27C1.5 434.76 0 432.77 0 424.02c-.01-9.7 47.54-411.16 49.38-416.9C51.64.04 56.26-1.21 69.07 1.8c25.02 5.89 47.69 23.93 59.15 47.1l4.13 8.34.34 268.79c.32 267.62.32 268.81-2.26 271.38-2.21 2.2-4.3 2.59-14.22 2.59-9.9 0-12.01-.39-14.2-2.58m20.66-6.43c2.52-2.51 2.58-4.29 2.58-67.37v-64.79l-3.55-4.74c-13.05-17.36-54.01-37.85-101.88-50.91l-9.22-2.52-.83 7.29c-.43 4-1.12 9.41-1.51 12.01-.93 6.17 2.24 9.43 10.31 10.64 22.14 3.31 63.17 24.92 77.68 40.94 12.25 13.52 16 26.83 16.03 57 0 14.86-1.58 41.11-3.23 53.65-.66 5.02-.35 6.45 1.9 8.69 3.39 3.39 8.39 3.43 11.72.11m.25-176.36c-6.01-8.11-25.39-19.89-49.32-30.01-12.17-5.15-47.08-17.31-55.64-19.38l-3.34-.81-1.5 13.81c-2.26 20.77-2.3 20.46 3.16 21.48 8.74 1.65 41.16 12.59 55.82 18.86 19.75 8.46 33.89 16.95 44.05 26.48l8.46 7.91.36-17.55c.32-15.46.08-17.92-2.05-20.79m-.53-42.22c-9.74-10.44-41.75-25.72-83.96-40.07l-18.87-6.41-.76 4.74c-1.14 7.09-3.38 30.19-2.97 30.6.19.2 10.06 3.57 21.91 7.49 37.08 12.23 64.97 25.15 79.29 36.74l7.58 6.14.36-18.03c.33-17.25.23-18.19-2.58-21.2m.36-39.5c-4.42-4.69-21.97-14.54-38.82-21.8-15.79-6.81-59.47-23.1-60.07-22.4-.89 1.05-4.13 33.95-3.42 34.62.48.43 5.77 2.33 11.75 4.24 33.5 10.58 73.5 28.14 85.96 37.75l6.46 4.97.36-17.32c.32-15.82.14-17.55-2.22-20.06m-1.18-42.1c-8.73-7.83-30.59-18.52-58.3-28.48-22.93-8.24-34.89-11.48-35.48-9.57-1.37 4.36-3.44 32.11-2.46 32.96.64.54 7.53 3.18 15.34 5.86 32.71 11.2 64.62 25.49 77.48 34.71l6.46 4.62.37-18.36.38-18.34-3.79-3.4m-.81-41.84c-8.29-7.23-39.09-21.1-75.28-33.91-6.6-2.34-12.22-4.03-12.49-3.75-.37.38-4.58 33.72-4.58 36.35 0 .31 7.69 3 17.11 5.98 31.65 10.01 58.35 21.52 72.63 31.3l6.46 4.41.38-18.17.39-18.18-4.62-4.03m2.7-36.72c-4.88-6.94-28.19-20.55-50.5-29.46-9.93-3.97-35.5-12.91-35.53-12.42 0 .13-.87 7.16-1.93 15.63-3.01 24.06-4.16 21.45 11.95 27.06 30.75 10.7 61.7 24.34 72.64 31.97l4.52 3.16.36-16.64c.28-12.88-.07-17.22-1.51-19.3m-4.55-45.06c-8.09-7.48-31.04-19.25-54.35-27.86-9.58-3.54-18.66-6.8-20.15-7.25-2.62-.78-2.81-.13-4.52 15.64-1 9.04-1.8 17.24-1.8 18.21 0 1.09 6.51 4 17.43 7.79 31.02 10.75 57.48 23.97 65.86 32.92l3.23 3.45.38-18.46.39-18.45-6.47-5.99m5.01-32.06c-2.17-4.06-15.3-13.12-29.27-20.22-15.81-8.03-45.34-20-47.4-19.21-1.89.72-5.45 31.54-3.81 32.98.6.53 7.5 3.14 15.31 5.79 26.64 9.04 56.21 23.83 63.33 31.69 2.53 2.79 2.53 2.78 2.89-12.81.22-9.52-.18-16.62-1.05-18.22m-1.53-38.29c-6.98-7.6-30.16-20.11-57.92-31.26-9.55-3.85-13.43-4.88-14.11-3.76-.53.83-1.36 5.96-1.83 11.38-.48 5.42-1.21 12.02-1.62 14.68-.51 3.32-.27 4.82.8 4.82 2.98 0 31.74 11.78 45.88 18.8 7.84 3.88 18.01 9.83 22.62 13.2l8.4 6.15.36-15.41c.35-14.5.19-15.59-2.58-18.6m-1.66-36.16c-5.78-6.23-23.01-15.72-47-25.9-13-5.53-18.88-7.45-19.54-6.4-.5.82-1.3 5.92-1.76 11.34-.48 5.42-1.17 11.59-1.54 13.71-.66 3.81-.52 3.93 10.7 8.19 17.25 6.58 52.03 23.99 57.85 28.99l5.17 4.41.36-14.69.36-14.69-4.6-4.96m-2.39-11.43C106.74 30.19 88.45 15.7 68.62 9.82c-9.93-2.93-11.79-1.66-13.75 9.49l-.79 4.51 15.25 6.31c19.28 7.98 40.83 18.71 47.53 23.65 2.84 2.1 5.37 3.63 5.63 3.41.24-.2-1.61-3.78-4.15-7.94" />
    <path fill="#21af28" d="M110.95 590.88c-2.25-2.24-2.56-3.67-1.9-8.69 1.65-12.54 3.23-38.79 3.23-53.65-.03-30.17-3.78-43.48-16.03-57-14.51-16.02-55.54-37.63-77.68-40.94-8.07-1.21-11.24-4.47-10.31-10.64.39-2.6 1.08-8.01 1.51-12.01l.83-7.29 9.22 2.52c47.87 13.06 88.83 33.55 101.88 50.91l3.55 4.74v64.79c0 63.08-.06 64.86-2.58 67.37-3.33 3.32-8.33 3.28-11.72-.11" />
    <path fill="#21af28" d="M116.15 445.06c-10.16-9.53-24.3-18.02-44.05-26.48-14.66-6.27-47.08-17.21-55.82-18.86-5.46-1.02-5.42-.71-3.16-21.48l1.5-13.81 3.34.81c8.56 2.07 43.47 14.23 55.64 19.38 23.93 10.12 43.31 21.9 49.32 30.01 2.13 2.87 2.37 5.33 2.05 20.79l-.36 17.55-8.46-7.91" />
    <path fill="#21af28" d="M117.03 405.5c-14.32-11.59-42.21-24.51-79.29-36.74-11.85-3.92-21.72-7.29-21.91-7.49-.41-.41 1.83-23.51 2.97-30.6l.76-4.74 18.87 6.41c42.21 14.35 74.22 29.63 83.96 40.07 2.81 3.01 2.91 3.95 2.58 21.2l-.36 18.03-7.58-6.14" />
    <path fill="#21af28" d="M118.15 365.32c-12.46-9.61-52.46-27.17-85.96-37.75-5.98-1.91-11.27-3.81-11.75-4.24-.71-.67 2.53-33.57 3.42-34.62.6-.7 44.28 15.59 60.07 22.4 16.85 7.26 34.4 17.11 38.82 21.8 2.36 2.51 2.54 4.24 2.22 20.06l-.36 17.32-6.46-4.97" />
    <path fill="#21af28" d="M118.15 326.29c-12.86-9.22-44.77-23.51-77.48-34.71-7.81-2.68-14.7-5.32-15.34-5.86-.98-.85 1.09-28.6 2.46-32.96.59-1.91 12.55 1.33 35.48 9.57 27.71 9.96 49.57 20.65 58.3 28.48l3.79 3.4-.38 18.34-.37 18.36-6.46-4.62" />
    <path fill="#21af28" d="M118.15 284.94c-14.28-9.78-40.98-21.29-72.63-31.3-9.42-2.98-17.11-5.67-17.11-5.98 0-2.63 4.21-35.97 4.58-36.35.27-.28 5.89 1.41 12.49 3.75 36.19 12.81 66.99 26.68 75.28 33.91l4.62 4.03-.39 18.18-.38 18.17-6.46-4.41" />
    <path fill="#21af28" d="M120.09 245.03c-10.94-7.63-41.89-21.27-72.64-31.97-16.11-5.61-14.96-3-11.95-27.06 1.06-8.47 1.93-15.5 1.93-15.63.03-.49 25.6 8.45 35.53 12.42 22.31 8.91 45.62 22.52 50.5 29.46 1.44 2.08 1.79 6.42 1.51 19.3l-.36 16.64-4.52-3.16" />
    <path fill="#21af28" d="M121.38 206.64c-8.38-8.95-34.84-22.17-65.86-32.92-10.92-3.79-17.43-6.7-17.43-7.79 0-.97.8-9.17 1.8-18.21 1.71-15.77 1.9-16.42 4.52-15.64 1.49.45 10.57 3.71 20.15 7.25 23.31 8.61 46.26 20.38 54.35 27.86l6.47 5.99-.39 18.45-.38 18.46-3.23-3.45" />
    <path fill="#21af28" d="M122.08 166.16c-7.12-7.86-36.69-22.65-63.33-31.69-7.81-2.65-14.71-5.26-15.31-5.79-1.64-1.44 1.92-32.26 3.81-32.98 2.06-.79 31.59 11.18 47.4 19.21 13.97 7.1 27.1 16.16 29.27 20.22.87 1.6 1.27 8.7 1.05 18.22-.36 15.59-.36 15.6-2.89 12.81" />
    <path fill="#21af28" d="M116.21 124.7c-4.61-3.37-14.78-9.32-22.62-13.2-14.14-7.02-42.9-18.8-45.88-18.8-1.07 0-1.31-1.5-.8-4.82.41-2.66 1.14-9.26 1.62-14.68.47-5.42 1.3-10.55 1.83-11.38 1.72-2.77 45.3 16.22 61.33 26.73 13.63 8.93 13.7 9.07 13.28 26.89l-.36 15.41-8.4-6.15" />
    <path fill="#21af28" d="M119.44 90.61c-5.82-5-40.6-22.41-57.85-28.99-11.22-4.26-11.36-4.38-10.7-8.19.37-2.12 1.06-8.29 1.54-13.71.46-5.42 1.26-10.52 1.76-11.34.66-1.05 6.54.87 19.54 6.4 23.99 10.18 41.22 19.67 47 25.9l4.6 4.96-.36 14.69-.36 14.69-5.17-4.41M116.86 53.78c-6.7-4.94-28.25-15.67-47.53-23.65l-15.25-6.31.79-4.51c.43-2.48 1.11-5.56 1.48-6.83 3.09-10.47 34.84 3.65 52.04 23.15 5.32 6.01 14.98 20.82 14.1 21.56-.26.22-2.79-1.31-5.63-3.41" />
</svg>