<svg width="359" height="600" xmlns="http://www.w3.org/2000/svg">
    <path d="M283.47 598.07c-11.95-6.48-32.32-63.8-36.3-102.11-1.93-18.62-6.41-25.85-18.98-30.65-5.58-2.14-6.2-2.14-11.61-.07-7.34 2.8-14.93 11.35-17.7 19.94-1.43 4.42-2.13 10.97-2.13 19.79 0 17.45.41 17.16-23.82 17.16-9.97 0-19.06-.36-20.21-.79-2.95-1.14-5.35-6.4-6.94-15.2-3.29-18.33-18.67-39.8-34.11-47.57-14.15-7.15-27.11-9.17-71.43-11.11-21.65-.96-23.17-1.24-24.99-4.63-.79-1.47-1.94-11.66-2.55-22.65-1.01-18.17-8.08-71.67-11.31-85.71-.73-3.17-1.34-9.63-1.36-14.36-.06-14.39-5.05-13.28 64-14.1 62.34-.74 79.79-1.9 119.94-7.95 28.41-4.29 43.81-7.47 44.38-9.18.26-.77-1.43-3.61-3.75-6.32-9.54-11.1-29.88-33.33-54.73-59.79C112.76 161.95 57.11 99.69 48.42 86.9c-4.02-5.93-6.75-11.86-8.62-18.82-3.43-12.68-3.44-17.76-.11-29.81C46.36 14.25 56.6 5.37 82.4 1.28c8.86-1.42 11.45-1.36 19.38.44 12.37 2.82 14.71 3.82 20.17 8.61 5.83 5.12 8.96 11.16 11.07 21.32 3.12 15.11-4.14 33.58-15.84 40.32-11.09 6.4-26.56 7.27-35.22 2-15.77-9.58-8.75-43.33 8.99-43.33 9.42 0 13.47 12.48 6.15 18.9-4.36 3.82-4.81 5.95-1.64 7.73 3.03 1.7 7.97-1.05 13.53-7.55 6.29-7.34 6.8-10.48 2.8-17.29-3.81-6.48-14.29-13.26-20.53-13.27C78.56 19.12 63.85 30.4 58.85 44c-4.23 11.48-2.04 19 9.77 33.5 15.52 19.09 76.99 87.05 119.82 132.49 11.95 12.66 30.59 32.93 41.42 45.04 10.84 12.1 20.43 21.99 21.34 21.99 4.93 0 12.42-17.03 22.18-50.42 24.85-85.08 36.27-123.83 46.53-157.94 6.6-21.96 12.96-43.38 14.14-47.61 3.27-11.81 5.49-14.04 13.9-13.96 10.6.1 11.38 1.25 10.72 15.82-.41 8.97-2.66 21.16-8.47 46.03-4.35 18.61-14.75 63.98-23.11 100.85-14.25 62.82-22.05 96.52-34.45 148.71-10.58 44.56-12.85 65.95-12.82 120.65.02 52.63 2.26 68.09 17.35 120.27 3.79 13.12 6.89 25.36 6.89 27.19 0 4.29-3.19 10.4-6.31 12.08-3.45 1.83-10.31 1.54-14.28-.62m10.92-7.73c1.1-1.11 2.01-2.33 2.01-2.71 0-.38-2.86-10.25-6.35-21.92-15.1-50.42-16.88-62.21-17.59-116.81-.87-65.77 1.16-86.23 13.86-140.18 11.16-47.41 22.51-96.69 38.17-165.74 15.63-68.89 22.79-100.16 26.4-115.2 1.66-6.93 1.75-8.98.46-10.53-2.53-3.05-5.01-2.28-7.07 2.22-2.6 5.68-40.33 132.43-66.48 223.36-10.3 35.81-14.24 42.14-30.86 49.71-12.15 5.53-24.1 8.32-53.39 12.46-51.55 7.31-77.84 8.99-140.06 9.03-37.58.01-43.17.27-44.64 2.03-1.36 1.65-1.38 3.7-.09 11.17 5.14 29.67 10.61 71.77 11.5 88.56.68 12.55 1.62 20.1 2.69 21.38 1.08 1.32 3.83 1.98 8.18 1.98 14.19.01 61.67 3.96 69.57 5.79 4.61 1.06 12.01 3.73 16.45 5.92 16.04 7.88 31.62 29.13 35.66 48.61 3.11 14.92 3.21 15 19.43 15 9.01 0 14.31-.54 15.31-1.53.97-.97 1.53-5.79 1.53-13 0-20.99 6.72-35.12 19.56-41.09 10.25-4.76 13.98-5.07 22.97-1.83 16.46 5.91 20.16 11.58 23.28 35.64 4.52 35.01 21.13 84.51 32.25 96.17 3.88 4.07 4.54 4.21 7.25 1.51m-52.43-309.27c.77-1.24-29.88-35.53-66.94-74.9C125.19 153.23 66.2 87.26 58.47 75.8c-8.44-12.49-9.88-23.46-4.82-36.86 4.33-11.45 13.63-20.08 25.57-23.71 11.04-3.36 17.8-2.77 27.18 2.32 11.1 6.02 17.23 19.25 13.3 28.66-2.34 5.58-9.14 13.37-13.79 15.77-5.28 2.73-13.4 2.37-16.48-.7-4.09-4.09-3.41-10.94 1.52-15.55 3.19-2.98 3.8-4.27 2.79-5.86-1.98-3.14-3.56-3.17-7.44-.12-6.99 5.49-9.08 16.33-4.59 23.7 3.7 6.05 9.32 8.5 17.6 7.64 27.4-2.83 38.04-38.08 16.94-56.12C109.69 9.36 101.64 7 89.43 7.1c-22.56.19-36.83 10.8-43.49 32.3-1.38 4.45-2.5 10.57-2.5 13.58 0 8.4 4.46 20.95 10.5 29.59 8.9 12.7 67.28 77.86 121.05 135.09 14.51 15.45 34.3 36.84 43.97 47.55 15.16 16.78 17.92 19.28 19.97 18.18 1.32-.7 2.69-1.75 3.03-2.32" />
    <path fill="#ffbf53" d="M218.96 265.21c-9.67-10.71-29.46-32.1-43.97-47.55C121.22 160.43 62.84 95.27 53.94 82.57c-6.04-8.64-10.5-21.19-10.5-29.59 0-3.01 1.12-9.13 2.5-13.58C52.6 17.9 66.65 7.47 89.37 7.15c12.24-.17 20.28 2.18 26.88 7.82 21.1 18.04 10.46 53.29-16.94 56.12-8.28.86-13.9-1.59-17.6-7.64-4.49-7.37-2.4-18.21 4.59-23.7 3.88-3.05 5.46-3.02 7.44.12 1.01 1.59.4 2.88-2.79 5.86-4.93 4.61-5.61 11.46-1.52 15.55 3.08 3.07 11.2 3.43 16.48.7 4.65-2.4 11.45-10.19 13.79-15.77 3.93-9.41-2.2-22.64-13.3-28.66-9.38-5.09-16.14-5.68-27.18-2.32-11.94 3.63-21.24 12.26-25.57 23.71-5.06 13.4-3.62 24.37 4.82 36.86 7.73 11.46 66.72 77.43 116.55 130.37 37.06 39.37 67.71 73.66 66.94 74.9-.34.57-1.71 1.62-3.03 2.32-2.05 1.1-4.81-1.4-19.97-18.18" />
    <path fill="red" d="M287.14 588.83c-11.12-11.66-27.73-61.16-32.25-96.17-3.12-24.06-6.82-29.73-23.28-35.64-8.99-3.24-12.72-2.93-22.97 1.83-12.84 5.97-19.56 20.1-19.56 41.09 0 7.21-.56 12.03-1.53 13-1 .99-6.3 1.53-15.31 1.53-16.22 0-16.32-.08-19.43-15-4.04-19.48-19.62-40.73-35.66-48.61-4.44-2.19-11.84-4.86-16.45-5.92-7.9-1.83-55.38-5.78-69.57-5.79-4.35 0-7.1-.66-8.18-1.98-1.07-1.28-2.01-8.83-2.69-21.38-.89-16.79-6.36-58.89-11.5-88.56-1.29-7.47-1.27-9.52.09-11.17 1.47-1.76 7.06-2.02 44.64-2.03 62.22-.04 88.51-1.72 140.06-9.03 29.29-4.14 41.24-6.93 53.39-12.46 16.62-7.57 20.56-13.9 30.86-49.71 21.41-74.43 61.93-211.3 65.35-220.69 2.15-5.95 5.14-7.84 7.97-5.03 1.66 1.66 1.63 2.92-.21 10.58-3.61 15.1-10.75 46.24-26.42 115.29-15.66 69.05-27.01 118.33-38.17 165.74-12.7 53.95-14.73 74.41-13.86 140.18.71 54.6 2.49 66.39 17.59 116.81 3.49 11.67 6.35 21.54 6.35 21.92 0 1.03-3.87 4.71-4.96 4.71-.52 0-2.46-1.58-4.3-3.51" />
</svg>