<svg xmlns="http://www.w3.org/2000/svg" width="350" height="701.969" viewBox="0 63.031 350 701.969">
	<path fill="#FFA14A" stroke="#000" stroke-linecap="round" stroke-linejoin="round" d="M42.968 163.617h47.063v3.315H42.968zM42.968 172.457h47.063v3.315H42.968zM42.968 181.297h47.063v3.315H42.968z" />
	<path fill="#F5CA44" stroke="#000" stroke-linecap="round" stroke-linejoin="round" d="M142.689 283.18l3.606-14.425c2.002-13.663-.746-28.91 18.243-36.91l42.19-15.91 39.903 4.773c13.934 3.893 27.243 7.011 42.638 12.833 10.771 4.073 17.4 13.79 15.485 32.668-.396 3.811-1.019 8.032-1.484 12.092l-.212 14c.491 24.395.396 48.79-.75 73.185 1.063 2.688 1.148 4.931.75 7.637 1.101 22.415-.831 44.83-4.243 67.245l-.849 12.939-19.304-.424-.212-12.94c-2.655-25.504-5.26-50.146-.336-75.901 1.265-20.455-3.192-49.035-2.634-72.376l1.061-14.85v-2.333h-.424c-12.093 22.047-23.411 44.403-27.152 69.79-2.863 8.566 32.505 57.781 5.091 75.942-2.227 51.896-8.406 108.599-14.001 159.732 2.788 33.375 4.926 75.659-1.061 113.489.036 12.091-.836 24.183.637 36.273.941 4.725 1.815 10.027 3.182 13.577.616 1.6-.202 8.356-3.818 9.758-1.728.245-13.615 1.613-15.211-1.39-23.749.856-8.169 1.785-68.262 2-6.141-.853-4.657-4.838-3.605-7.505l9.015.955c16.856-2.906 46.525-16.434 52.396-25.88l1.909-28.001h-3.606l-2.033 29.799c.006.318-.09 2.323-.237 2.683-6.483 5.162-25.574 16.788-48.281 21.422l-9.117-1.022c-.839 2.765-2.638 6.12 2.925 7.55l-34.472-.08c-1.392-1.031-2.733-4.337-.424-7.213l7.637.425c48.575-23.665 60.165-15.148 60.331-53.579-.189-30.6 2.22-61.199 5.4-91.799-.6-12.1-3.657-22.726-1.8-36.3-23.216-113.913-13.025-148.718-1.8-228.596 1.087-7.738 3.213-15.938-6.601-22.8-2.396-2-8.471-8.558-9.899-12.9-3.151-.392-3.436-3.316-1.2-5.1.188-6.55.063-8.884 5.4-14.649l-3-9.95h-.9l-.9 2.25-3.033 15.187c-3.333 16.891-14.441 52.79-28.299 63.349-11.153-2.834-14.161-6.566-24.347-17.467-16.976-22.459-24.897-44.159-29.947-63.609l-4.007-11.008 14.506-4.055 5.064 9.193c15.699 29.761 21.569 32.38 33.146 49.442.432-13.393 6.702-30.868 6.702-30.868" />
	<g stroke="#000" stroke-linecap="round" stroke-linejoin="round">
		<path fill="#025" d="M283.444 545.76c2.644-.863 4.81-.533 6.895 0l-1.216-33.074 15.75 1.051c-.481-2.369-.644-4.737 0-7.106l-15.75 1.104h0c3.299-5.895 7.924-11.124 9.588-19.746 3.361-17.424-5.523-16.692-11.688-16.748-6.71-.06-16.617.988-12.495 17.491 1.896 7.591 6.517 13.561 10.246 19.003h0l-17.7-1.104c.594 2.369.536 4.737 0 7.106l17.7-1.051h0l-1.33 33.074z" stroke-width=".21" />
		<path fill="#FFF" d="M284.774 502.865c-3.402-4.618-6.666-9.13-7.489-15.088-1.66-12.042 4.592-13.387 9.65-13.418 4.498-.026 11.145.61 8.17 13.313-1.397 5.96-3.568 11.32-5.982 15.193-1.51 2.046-3.133 1.711-4.35 0z" stroke-width=".21" />
	</g>
	<path fill="#F5CA44" stroke="#000" stroke-linecap="round" stroke-linejoin="round" d="M278.452 452.989c-.974 4.869-3.379 10.023-5.728 15.167-3.104 4.928-3.306 11.216-2.439 17.183l-.318 5.621c8.742 1.047.296-10.62 5.834-14.955l.849 8.062c1.585 1.509 3.147 2.702 4.454.318 1.556 1.742 3.111 1.616 4.667-.318 1.902 2.459 3.455.728 5.092 0 1.743 1.364 3.589 1.849 4.772-1.272.344-8.515 2.891-16.783 2.28-29.274" />
	<path fill="#FFF" stroke="#000" stroke-linecap="round" stroke-linejoin="round" d="M211.647 693.225h27.418c5.986-37.83 3.795-79.902 1.007-113.277 5.595-51.134 11.774-107.837 14.001-159.732 27.414-18.161-7.954-67.376-5.091-75.942 2.239-15.194 7.335-28.202 13.544-41.809h-89.131c1.428 4.343 7.384 9.25 9.78 11.25 9.813 6.862 7.688 15.062 6.601 22.8-11.225 79.878-21.416 114.683 1.8 228.596-1.857 13.574 1.2 24.2 1.8 36.3-3.181 30.6-5.59 61.199-5.4 91.799l23.671.015z" />
	<path fill="#FFD800" d="M239.567 686.007l-.975 6.996-50.152-.158.062-6.854 51.065.016z" />
	<path fill="none" stroke="#000" stroke-width=".7" stroke-linecap="round" stroke-linejoin="round" d="M187.95 687.055h51.833M188.246 693.15h50.721M187.95 691.502h51" />
	<g fill="none" stroke="#000" stroke-width=".7" stroke-linecap="round" stroke-linejoin="round">
		<path d="M191.092 687.246v4.028M192.988 687.246v4.028M194.996 687.246v4.028" stroke-width=".147" />
	</g>
	<g fill="none" stroke="#000" stroke-width=".7" stroke-linecap="round" stroke-linejoin="round">
		<path d="M203.89 687.246v4.028M205.785 687.246v4.028M207.794 687.246v4.028" stroke-width=".147" />
	</g>
	<g fill="none" stroke="#000" stroke-width=".7" stroke-linecap="round" stroke-linejoin="round">
		<path d="M218.047 687.246v4.028M219.942 687.246v4.028M221.95 687.246v4.028" stroke-width=".147" />
	</g>
	<g fill="none" stroke="#000" stroke-width=".7" stroke-linecap="round" stroke-linejoin="round">
		<path d="M231.981 687.246v4.028M233.878 687.246v4.028M235.885 687.246v4.028" stroke-width=".147" />
	</g>
	<path fill="none" stroke="#000" stroke-width=".7" stroke-linecap="round" stroke-linejoin="round" d="M188.034 685.646h51.958" />
	<g fill="#FFF" stroke="#000" stroke-linecap="round" stroke-linejoin="round">
		<path d="M170.233 229.625l18.427 72.88h12.494l-24.283-75.391-6.638 2.511z" stroke-width=".21" />
		<path stroke-width=".105" d="M171.395 229.179l19.178 73.326h8.781l-23.84-74.897-4.119 1.571z" />
	</g>
	<g fill="#FFF" stroke="#000" stroke-linecap="round" stroke-linejoin="round">
		<path d="M271.993 227.893l-31.578 74.571h12.5l25.027-72.595-5.949-1.976z" stroke-width=".21" />
		<path stroke-width=".105" d="M273.177 228.282l-30.852 74.182h8.681l25.655-73.073-3.484-1.109z" />
	</g>
	<g stroke="#000" stroke-linecap="round" stroke-linejoin="round">
		<path fill="#FAC53A" d="M146.207 268.906l26.277 5.303-2.938 14.559-27.102-5.24 3.763-14.622z" stroke-width=".21" />
		<path fill="#04A" d="M145.767 270.577l26.383 5.467-.981 4.792-26.626-5.53 1.224-4.729zM144.176 276.994l26.608 5.617-.98 4.451-26.852-5.34 1.224-4.728z" stroke-width=".21" />
	</g>
	<g stroke="#000" stroke-linecap="round" stroke-linejoin="round">
		<path fill="#FAC53A" d="M276.48 277.328l26.787 1.097-.234 14.99-27.664-.636 1.112-15.451z" stroke-width=".21" />
		<path fill="#04A" d="M276.311 279.047l26.914 1.244-.063 4.885-27.015-1.266.164-4.863zM275.826 285.634l27.235 1.356-.042 4.626-27.582-.818.389-5.164z" stroke-width=".21" />
	</g>
	<g stroke="#000" stroke-linecap="round" stroke-linejoin="round">
		<path fill="#FAC53A" d="M187.602 700.74l23.273 1.01-1.106 14.915-24.693-1.423 2.526-14.501z" stroke-width=".21" />
		<path fill="#04A" d="M187.34 702.29l23.432 1.25-.238 4.214-24.023-.802.83-4.662zM186.256 709.027l24.044 1.103-.293 4.363-24.604-.761.853-4.705z" stroke-width=".21" />
	</g>
	<g stroke="#000" stroke-linecap="round" stroke-linejoin="round">
		<path fill="#FAC53A" d="M214.61 702.871l24.356-.058-.155 14.95-25.317-.29 1.116-14.602z" stroke-width=".21" />
		<path fill="#04A" d="M214.474 704.431l24.47.176-.044 4.22-24.67.3.244-4.696zM214.016 711.21l24.812.001-.093 4.746-25.143-.009.424-4.738z" stroke-width=".21" />
	</g>
	<g stroke="#000" stroke-linecap="round" stroke-linejoin="round">
		<path fill="#FAC53A" d="M278.469 440.314l20.417.159-.849 12.887-19.461-.743-.107-12.303z" stroke-width=".21" />
		<path fill="#04A" d="M278.469 442.17l20.258.265-.208 3.981-19.997-.314-.053-3.932z" stroke-width=".21" />
		<path fill="#FAC53A" d="M278.469 440.314l20.417.159-.849 12.886-19.463-.742-.105-12.303z" stroke-width=".21" />
		<path fill="#04A" d="M278.469 442.17l20.258.265-.208 3.981-19.997-.314-.053-3.932zM278.469 447.345l19.94.264-.208 3.983-19.68-.315-.052-3.932z" stroke-width=".21" />
	</g>
	<path fill="#F5CA44" stroke="#000" stroke-linecap="round" stroke-linejoin="round" d="M84.241 244.087c-6.173-4.469-16.198-9.671-27.616-7.289l-4.264-1.14c-1.819 4.438 2.688 5.57 5.203 4.915-1.975.843-2.648 2.011-1.019 3.749-1.714.92-2.053 2.151-.569 3.789-2.156.413-2.389 2.548-.719 3.775-2.218 1.104-2.081 2.719-1.234 3.653 1.251 3.438 24.407 1.038 26.614 1.013 0 0 .751.191 1.286 1.023s.892 1.901.892 1.901l14.718-3.716s-9.643-9.032-13.292-11.673z" />
	<g stroke="#000" stroke-linecap="round" stroke-linejoin="round">
		<path fill="#FAC53A" d="M102.935 265.522l-15.639 6.374-4.31-12.24 14.628-4.035 5.321 9.9z" stroke-width=".21" />
		<path fill="#04A" d="M102.22 264.19l-15.392 5.936-1.286-3.62 15.017-5.26 1.662 2.944zM99.888 259.764l-14.952 5.326-1.286-3.619 14.575-4.65 1.663 2.943z" stroke-width=".21" />
	</g>
	<path fill="none" stroke="#000" d="M63.35 240.885c6.674.798 9.286 1.65 10.029 3.396m6.227-3.225c-3.933-2.732-6.579-3.307-13.06-4.604" />
	<path fill="none" stroke="#000" stroke-width=".252" d="M303.423 282.125l-.05-3.116c.012-1.522 1.008-6.863 1.275-10.566" />
	<path fill="#FFD800" d="M261.72 302.975l-3.096 7.065h-79.017c-2.122-2.144-4.322-4.7-5.512-7.065h87.625z" />
	<path fill="none" stroke="#000" stroke-linecap="round" stroke-linejoin="round" d="M174.426 304.092h87.188M179.611 310.187h79.236M177.796 308.538h81.822" stroke-width=".21" />
	<g fill="none" stroke="#000" stroke-linecap="round" stroke-linejoin="round">
		<path d="M179.228 304.283v4.028M181.125 304.283v4.028M183.133 304.283v4.028" stroke-width=".21" />
	</g>
	<g fill="none" stroke="#000" stroke-linecap="round" stroke-linejoin="round">
		<path d="M193.975 304.283v4.028M195.87 304.283v4.028M197.88 304.283v4.028" stroke-width=".21" />
	</g>
	<g fill="none" stroke="#000" stroke-linecap="round" stroke-linejoin="round">
		<path d="M208.15 304.283v4.028M210.047 304.283v4.028M212.055 304.283v4.028" stroke-width=".21" />
	</g>
	<g fill="none" stroke="#000" stroke-linecap="round" stroke-linejoin="round">
		<path d="M222.626 304.283v4.028M224.522 304.283v4.028M226.53 304.283v4.028" stroke-width=".21" />
	</g>
	<g fill="none" stroke="#000" stroke-linecap="round" stroke-linejoin="round">
		<path d="M237.94 304.283v4.028M239.835 304.283v4.028M241.844 304.283v4.028" stroke-width=".21" />
	</g>
	<g fill="none" stroke="#000" stroke-linecap="round" stroke-linejoin="round">
		<path d="M251.516 304.283v4.028M253.412 304.283v4.028M255.42 304.283v4.028" stroke-width=".21" />
	</g>
	<path fill="none" stroke="#000" stroke-linecap="round" stroke-linejoin="round" d="M211.647 693.225h27.418c5.986-37.83 3.795-79.902 1.007-113.277 5.595-51.134 11.774-107.837 14.001-159.732 27.414-18.161-7.954-67.376-5.091-75.942 2.239-15.194 7.335-28.202 13.544-41.809h-89.131c1.428 4.343 7.384 9.25 9.78 11.25 9.813 6.862 7.688 15.062 6.601 22.8-11.225 79.878-21.416 114.683 1.8 228.596-1.857 13.574 1.2 24.2 1.8 36.3-3.181 30.6-5.59 61.199-5.4 91.799l23.671.015z" />
	<path fill="#FFE6AE" stroke="#000" stroke-linecap="round" stroke-linejoin="round" d="M67.461 146.236c-12.138 0-17.171 6.217-16.579 16.579.617 10.787 11.485 43.548 11.485 43.548l-4.394-1.397c.752 2.998.68 5.994 0 8.991l4.394-1.331-1.682 66.844c3.345-1.092 6.085-.675 8.723 0l-1.538-66.844 3.926 1.331c-.609-2.997-.815-5.993 0-8.991l-3.926 1.397s13.839-31.938 14.393-43.845c.592-12.729-6.809-16.282-14.802-16.282zm9.716 19.839c-1.875 8.436-11.783 35.751-11.783 35.751s-8.302-27.985-9.105-36.153 2.812-14.193 10.176-14.193 12.586 6.159 10.712 14.595z" />
	<g stroke="#000" stroke-linecap="round" stroke-linejoin="round">
		<path fill="#FFA14A" d="M65.259 199.416c8.034 0 17.407 1.473 14.863 9.909s-12.051 10.444-14.862 10.176-12.453-4.418-13.524-11.248 4.551-8.837 13.523-8.837z" />
		<path fill="#FFA14A" d="M54.236 204.87s-2.945-2.512-5.024-.433-.606 5.111 1.906 6.324 3.119-.173 3.032-1.04-.953-1.732-.953-1.732" />
		<path fill="none" d="M56.574 206.603s1.213-.867 2.772-.52 3.032 1.56 3.032 1.56-1.906 1.3-3.378 1.04-2.426-2.08-2.426-2.08z" />
		<path fill="#FFA14A" d="M78.021 204.87s2.945-2.512 5.024-.433.606 5.111-1.906 6.324-3.119-.173-3.032-1.04.953-1.732.953-1.732" />
		<path fill="none" d="M75.509 204.524s-3.725-1.04-5.63-.087-2.252 4.245-1.819 5.198 1.213 1.646.78 2.252-1.819.78-1.819.78h-1.783s-1.386-.173-1.819-.78.347-1.299.78-2.252.086-4.245-1.819-5.198-5.63.087-5.63.087" />
		<path fill="none" d="M75.682 206.603s-1.213-.867-2.772-.52-3.032 1.56-3.032 1.56 1.906 1.3 3.378 1.04 2.426-2.08 2.426-2.08zM62.898 214.226s1.125.953 2.945.953 3.378-.693 3.378-.693M64.457 216.998s1.993.52 2.772-.173" />
	</g>
	<g>
		<path fill="#FFF" stroke="#000" stroke-width=".22449" stroke-linecap="round" stroke-linejoin="round" d="M281.138 231.16l-34.062-14.531-44.826-.129-40.738 16.696c7.365 29.073 30.9 42.63 59.073 42.66 26.685.027 38.997-7.086 47.51-16.519 8.094-8.966 11.754-19.99 13.043-28.177z" />
		<path fill="none" stroke="#C13C1B" stroke-width=".84" d="M263.61 223.954c-3.921 17.324-14.635 33.132-43.704 32.474-24.544-.558-37.327-16.047-39.316-30.114l-.301-.869" />
		<path fill="none" stroke="#04A" stroke-width=".63" stroke-linejoin="round" d="M267.49 225.44c-5.064 24.528-20.707 36.107-47.822 35.613-26.287-.48-40.45-16.142-43.714-32.45l-.467-1.187" />
		<path fill="none" stroke="#308D57" stroke-width=".84" d="M254.8 220.083c-4.315 23.376-16.931 27.697-34.879 27.382-16.842-.296-30.114-10.978-30.464-24.771l-.332-.926" />
		<path fill="none" stroke="#04A" stroke-width=".63" d="M250.396 218.19c-.082.296-1.13 5.044-1.213 5.35-2.35 8.605-5.593 20.586-29.35 19.291-16.118-.878-24.825-10.294-25.622-19.234-.045-.661-.333-2.267-.385-3.096l-.193-.56" />
		<path fill="none" stroke="#04A" stroke-width=".63" d="M259.368 221.801c-5.541 27.332-24.17 30.78-39.83 30.18-21.49-.828-33.417-13.75-34.533-27.783l-.274-.664" />
		<path fill="none" stroke="#FAC53A" stroke-width="2.52" d="M275.51 228.572c-5.869 26.023-20.92 41.665-54.526 41.18l-.407-.007h-.013c-39.003-.703-49.631-25.462-53.082-37.833l-.405-.938" />
		<g fill="none" stroke="#C13C1B" stroke-width=".5">
			<path d="M207.072 271.151c.62-2.045.14-5.613-.44-7.944-1.627 1.725-3.873 4.595-4.414 6.528-1.042 3.717 3.793 4.893 4.854 1.416z" stroke-width=".112285" />
			<path d="M206.442 270.918c.462-1.514.11-4.155-.318-5.88-1.2 1.277-2.86 3.404-3.26 4.835-.773 2.753 2.794 3.62 3.578 1.045z" stroke-width=".112285" />
			<path stroke-linecap="round" stroke-linejoin="round" d="M206.449 270.843a2.814 2.814 0 00-1.572-1.183c-.863-.246-1.441-.072-1.921.154M206.558 268.12c-.26-.313-.824-.614-1.1-.688-.3-.08-.93-.044-1.22.042" stroke-width=".112285" />
		</g>
		<g fill="none" stroke="#C13C1B" stroke-width=".5">
			<path d="M213.113 271.939c.423-2.096-.402-5.6-1.206-7.864-1.45 1.875-3.408 4.947-3.76 6.924-.677 3.8 4.25 4.503 4.966.94z" stroke-width=".112285" />
			<path d="M212.467 271.769c.312-1.553-.295-4.148-.886-5.824-1.072 1.389-2.52 3.665-2.778 5.13-.502 2.815 3.132 3.332 3.664.694z" stroke-width=".112285" />
			<path stroke-linecap="round" stroke-linejoin="round" d="M212.464 271.693a2.808 2.808 0 00-1.678-1.026c-.883-.161-1.44.07-1.897.34M212.31 268.97c-.289-.285-.88-.53-1.16-.576-.307-.052-.932.046-1.213.16" stroke-width=".112285" />
		</g>
		<g fill="none" stroke="#C13C1B" stroke-width=".5">
			<path d="M200.892 269.626c.823-1.973.699-5.57.352-7.947-1.79 1.554-4.31 4.187-5.041 6.056-1.404 3.595 3.291 5.246 4.69 1.891z" stroke-width=".112285" />
			<path d="M200.292 269.332c.608-1.46.52-4.124.266-5.883-1.32 1.153-3.185 3.104-3.726 4.489-1.04 2.662 2.423 3.878 3.46 1.394z" stroke-width=".112285" />
			<path stroke-linecap="round" stroke-linejoin="round" d="M200.304 269.258a2.812 2.812 0 00-1.446-1.332c-.836-.33-1.427-.215-1.927-.039M200.684 266.558c-.227-.337-.761-.691-1.027-.792-.289-.11-.922-.137-1.219-.079" stroke-width=".112285" />
		</g>
		<g fill="none" stroke="#C13C1B" stroke-width=".5">
			<path d="M225.211 272.234c-.007-2.138-1.516-5.405-2.757-7.463-1.047 2.126-2.35 5.53-2.3 7.537.098 3.859 5.067 3.56 5.057-.074z" stroke-width=".112285" />
			<path d="M224.542 272.196c-.006-1.583-1.119-4.004-2.035-5.528-.772 1.575-1.733 4.097-1.695 5.583.073 2.858 3.736 2.637 3.73-.055z" stroke-width=".112285" />
			<path stroke-linecap="round" stroke-linejoin="round" d="M224.525 272.122a2.83 2.83 0 00-1.85-.668c-.898.019-1.4.356-1.79.713M223.829 269.487c-.341-.223-.97-.343-1.254-.333-.31.01-.904.233-1.155.4" stroke-width=".112285" />
		</g>
		<g fill="none" stroke="#C13C1B" stroke-width=".5">
			<path d="M231.03 272.01c-.091-2.135-1.728-5.342-3.05-7.35-.96 2.167-2.13 5.62-2 7.623.25 3.852 5.203 3.358 5.05-.273z" stroke-width=".112285" />
			<path d="M230.36 271.998c-.067-1.582-1.276-3.956-2.25-5.442-.71 1.604-1.57 4.159-1.474 5.643.185 2.854 3.838 2.489 3.725-.201z" stroke-width=".112285" />
			<path stroke-linecap="round" stroke-linejoin="round" d="M230.34 271.925a2.815 2.815 0 00-1.875-.595c-.894.054-1.383.411-1.763.783M229.54 269.32c-.348-.21-.98-.306-1.266-.285-.309.024-.893.267-1.137.446" stroke-width=".112285" />
		</g>
		<g fill="none" stroke="#C13C1B" stroke-width=".5">
			<path d="M219.114 272.331c.232-2.125-.902-5.54-1.905-7.724-1.279 1.995-2.954 5.231-3.126 7.232-.336 3.845 4.634 4.104 5.03.492z" stroke-width=".112285" />
			<path d="M218.453 272.219c.173-1.575-.662-4.104-1.403-5.72-.943 1.477-2.18 3.875-2.31 5.357-.246 2.847 3.42 3.038 3.713.363z" stroke-width=".112285" />
			<path stroke-linecap="round" stroke-linejoin="round" d="M218.446 272.143c-.248-.27-.87-.79-1.764-.87-.895-.082-1.431.196-1.86.506M218.048 269.447c-.314-.26-.924-.45-1.21-.472-.309-.024-.922.13-1.19.269" stroke-width=".112285" />
		</g>
		<g fill="none" stroke="#C13C1B" stroke-width=".5">
			<path d="M270.771 248.66c-1.789-1.17-5.348-1.706-7.749-1.8 1.2 2.042 3.325 5.003 5.03 6.064 3.278 2.04 5.76-2.272 2.72-4.263z" stroke-width=".112285" />
			<path d="M270.372 249.198c-1.326-.865-3.96-1.268-5.736-1.341.892 1.51 2.468 3.7 3.73 4.486 2.428 1.512 4.258-1.67 2.006-3.145z" stroke-width=".112285" />
			<path stroke-linecap="round" stroke-linejoin="round" d="M270.3 249.172a2.815 2.815 0 00-1.575 1.176c-.478.761-.472 1.364-.39 1.889M267.716 248.304c-.374.162-.82.62-.967.865-.162.264-.303.882-.302 1.183" stroke-width=".112285" />
		</g>
		<g fill="none" stroke="#C13C1B" stroke-width=".5">
			<path d="M273.794 242.821c-1.895-.988-5.49-1.173-7.89-1.032 1.397 1.915 3.802 4.654 5.602 5.541 3.461 1.709 5.51-2.826 2.288-4.509z" stroke-width=".112285" />
			<path d="M273.449 243.395c-1.404-.732-4.065-.872-5.84-.771 1.036 1.415 2.82 3.44 4.154 4.098 2.562 1.266 4.071-2.08 1.686-3.327z" stroke-width=".112285" />
			<path stroke-linecap="round" stroke-linejoin="round" d="M273.376 243.375a2.824 2.824 0 00-1.452 1.326c-.402.805-.337 1.405-.204 1.919M270.72 242.767c-.356.196-.755.696-.88.955-.134.279-.215.906-.182 1.207" stroke-width=".112285" />
		</g>
		<g fill="none" stroke="#C13C1B" stroke-width=".5">
			<path d="M267.413 253.933c-1.596-1.421-5.037-2.48-7.396-2.928.884 2.198 2.549 5.44 4.076 6.743 2.94 2.503 6.033-1.395 3.32-3.815z" stroke-width=".112285" />
			<path d="M266.94 254.407c-1.183-1.054-3.729-1.84-5.475-2.175.658 1.625 1.894 4.024 3.025 4.988 2.175 1.854 4.458-1.022 2.45-2.813z" stroke-width=".112285" />
			<path stroke-linecap="round" stroke-linejoin="round" d="M266.874 254.37c-.364.045-1.15.249-1.733.93-.586.682-.669 1.28-.666 1.81M264.446 253.13c-.393.104-.902.492-1.086.711-.2.237-.429.827-.472 1.126" stroke-width=".112285" />
		</g>
		<g fill="none" stroke="#C13C1B" stroke-width=".5">
			<path d="M277.237 231.314c-2.066-.553-5.614.046-7.925.705 1.777 1.567 4.72 3.718 6.67 4.194 3.75.917 4.765-3.954 1.255-4.899z" stroke-width=".112285" />
			<path d="M277.025 231.95c-1.53-.41-4.157.03-5.868.514 1.316 1.158 3.499 2.747 4.943 3.1 2.777.68 3.524-2.915.925-3.613z" stroke-width=".112285" />
			<path stroke-linecap="round" stroke-linejoin="round" d="M276.949 231.947a2.822 2.822 0 00-1.13 1.61c-.218.872-.023 1.444.219 1.916M274.222 231.93c-.303.269-.583.843-.65 1.122-.07.301-.012.93.084 1.218" stroke-width=".112285" />
		</g>
		<g fill="none" stroke="#C13C1B" stroke-width=".5">
			<path d="M275.686 236.951c-2.004-.748-5.593-.49-7.956-.054 1.62 1.73 4.344 4.15 6.24 4.81 3.646 1.272 5.12-3.482 1.716-4.756z" stroke-width=".112285" />
			<path d="M275.415 237.564c-1.484-.553-4.141-.366-5.891-.047 1.203 1.278 3.22 3.067 4.625 3.557 2.701.94 3.787-2.566 1.266-3.51z" stroke-width=".112285" />
			<path stroke-linecap="round" stroke-linejoin="round" d="M275.34 237.554c-.323.173-.98.648-1.28 1.495-.298.847-.16 1.434.036 1.928M272.627 237.276c-.328.24-.663.785-.753 1.056-.1.293-.102.926-.034 1.221" stroke-width=".112285" />
		</g>
		<g fill="none" stroke="#C13C1B" stroke-width=".5">
			<path d="M258.619 262.79c-1.124-1.819-4.121-3.812-6.257-4.914.223 2.36.893 5.941 1.988 7.624 2.105 3.236 6.18.38 4.269-2.71z" stroke-width=".112285" />
			<path d="M258.029 263.108c-.832-1.347-3.049-2.826-4.626-3.644.166 1.745.668 4.396 1.477 5.642 1.559 2.398 4.566.29 3.149-1.998z" stroke-width=".112285" />
			<path stroke-linecap="round" stroke-linejoin="round" d="M257.976 263.054a2.823 2.823 0 00-1.925.398c-.755.487-1.005 1.036-1.154 1.545M256.004 261.173c-.408-.011-1.004.215-1.244.373-.258.171-.647.67-.774.944" stroke-width=".112285" />
		</g>
		<g fill="none" stroke="#C13C1B" stroke-width=".5">
			<path d="M263.1 258.84c-1.406-1.61-4.688-3.09-6.972-3.833.602 2.293 1.846 5.719 3.2 7.202 2.601 2.851 6.16-.63 3.771-3.368z" stroke-width=".112285" />
			<path d="M262.57 259.25c-1.042-1.193-3.468-2.292-5.157-2.844.447 1.696 1.372 4.23 2.374 5.328 1.928 2.112 4.55-.455 2.783-2.484z" stroke-width=".112285" />
			<path stroke-linecap="round" stroke-linejoin="round" d="M262.508 259.204c-.367 0-1.168.105-1.834.707-.668.603-.826 1.185-.888 1.713M260.256 257.67c-.404.054-.957.376-1.165.57-.228.211-.532.766-.612 1.058" stroke-width=".112285" />
		</g>
		<g fill="none" stroke="#C13C1B" stroke-width=".5">
			<path d="M253.462 266.062c-.922-1.93-3.684-4.237-5.687-5.563-.034 2.37.246 6.004 1.151 7.795 1.74 3.445 6.103 1.048 4.536-2.232z" stroke-width=".112285" />
			<path d="M252.842 266.314c-.682-1.428-2.725-3.14-4.205-4.124-.024 1.753.188 4.443.857 5.77 1.29 2.551 4.509.783 3.348-1.646z" stroke-width=".112285" />
			<path stroke-linecap="round" stroke-linejoin="round" d="M252.796 266.253c-.353-.097-1.155-.212-1.958.189-.803.403-1.113.92-1.314 1.412M251.037 264.17c-.402-.054-1.022.107-1.276.237-.275.143-.717.596-.87.856" stroke-width=".112285" />
		</g>
		<g fill="none" stroke="#C13C1B" stroke-width=".5">
			<path d="M242.466 270.16c-.452-2.09-2.607-4.973-4.249-6.727-.582 2.298-1.148 5.899-.68 7.851.9 3.754 5.694 2.428 4.93-1.124z" stroke-width=".112285" />
			<path d="M241.804 270.262c-.335-1.548-1.926-3.683-3.14-4.983-.427 1.7-.843 4.367-.496 5.813.666 2.779 4.205 1.802 3.636-.83z" stroke-width=".112285" />
			<path stroke-linecap="round" stroke-linejoin="round" d="M241.772 270.193c-.321-.177-1.073-.474-1.947-.269-.874.206-1.295.64-1.606 1.07M240.543 267.76c-.38-.147-1.019-.133-1.295-.064-.302.075-.836.414-1.047.631" stroke-width=".112285" />
		</g>
		<g fill="none" stroke="#C13C1B" stroke-width=".5">
			<path d="M248.03 268.445c-.654-2.034-3.081-4.694-4.887-6.278-.353 2.344-.566 5.982.09 7.879 1.263 3.648 5.905 1.86 4.796-1.601z" stroke-width=".112285" />
			<path d="M247.38 268.612c-.484-1.508-2.277-3.478-3.612-4.652-.258 1.734-.41 4.427.075 5.833.933 2.702 4.359 1.382 3.537-1.181z" stroke-width=".112285" />
			<path stroke-linecap="round" stroke-linejoin="round" d="M247.342 268.546a2.817 2.817 0 00-1.964-.077c-.85.29-1.227.763-1.493 1.222M245.88 266.245c-.392-.108-1.027-.033-1.295.063-.292.103-.79.495-.979.73" stroke-width=".112285" />
		</g>
		<g fill="none" stroke="#C13C1B" stroke-width=".5">
			<path d="M236.868 271.319c-.227-2.126-2.065-5.22-3.511-7.14-.821 2.224-1.768 5.744-1.51 7.734.494 3.829 5.404 3.02 5.02-.594z" stroke-width=".112285" />
			<path d="M236.2 271.35c-.17-1.574-1.526-3.868-2.594-5.289-.605 1.647-1.303 4.253-1.112 5.728.367 2.834 3.989 2.238 3.706-.439z" stroke-width=".112285" />
			<path stroke-linecap="round" stroke-linejoin="round" d="M236.174 271.278a2.822 2.822 0 00-1.909-.475c-.89.111-1.355.5-1.708.894M235.21 268.729c-.362-.188-.999-.242-1.283-.203-.306.043-.873.324-1.105.517" stroke-width=".112285" />
		</g>
		<g fill="none" stroke="#C13C1B" stroke-width=".5">
			<path d="M189.542 265.04c1.22-1.755 1.859-5.297 2.023-7.694-2.078 1.141-5.097 3.182-6.208 4.855-2.133 3.218 2.108 5.822 4.185 2.84z" stroke-width=".112285" />
			<path d="M189.014 264.627c.905-1.3 1.382-3.922 1.505-5.695-1.535.847-3.768 2.361-4.59 3.599-1.58 2.383 1.548 4.305 3.085 2.096z" stroke-width=".112285" />
			<path stroke-linecap="round" stroke-linejoin="round" d="M189.044 264.556a2.82 2.82 0 00-1.132-1.608c-.746-.5-1.35-.512-1.876-.444M189.985 261.998c-.152-.378-.596-.837-.837-.992-.258-.17-.87-.329-1.172-.335" stroke-width=".112285" />
		</g>
		<g fill="none" stroke="#C13C1B" stroke-width=".5">
			<path d="M194.963 267.689c1.062-1.854 1.392-5.438 1.347-7.84-1.97 1.316-4.803 3.61-5.762 5.373-1.847 3.39 2.603 5.618 4.415 2.467z" stroke-width=".112285" />
			<path d="M194.403 267.321c.786-1.373 1.035-4.025 1.005-5.803-1.457.978-3.551 2.678-4.262 3.984-1.368 2.51 1.915 4.154 3.257 1.82z" stroke-width=".112285" />
			<path stroke-linecap="round" stroke-linejoin="round" d="M194.424 267.25a2.823 2.823 0 00-1.266-1.505c-.788-.434-1.39-.393-1.91-.28M195.14 264.619c-.183-.363-.667-.782-.919-.916-.273-.146-.897-.251-1.199-.232" stroke-width=".112285" />
		</g>
		<g fill="none" stroke="#C13C1B" stroke-width=".5">
			<path d="M184.35 261.784c1.47-1.552 2.634-4.958 3.157-7.303-2.225.816-5.518 2.379-6.866 3.866-2.594 2.86 1.207 6.073 3.71 3.437z" stroke-width=".112285" />
			<path d="M183.892 261.295c1.089-1.15 1.954-3.67 2.344-5.403-1.647.605-4.082 1.766-5.08 2.867-1.921 2.118.883 4.488 2.736 2.536z" stroke-width=".112285" />
			<path stroke-linecap="round" stroke-linejoin="round" d="M183.93 261.23a2.818 2.818 0 00-.876-1.76c-.663-.607-1.259-.71-1.789-.721M185.245 258.842c-.091-.396-.463-.917-.677-1.107-.23-.205-.814-.454-1.11-.507" stroke-width=".112285" />
		</g>
		<g fill="none" stroke="#C13C1B" stroke-width=".5">
			<path d="M175.357 253.46c1.839-1.093 3.888-4.052 5.03-6.165-2.364.178-5.957.784-7.66 1.846-3.275 2.044-.495 6.172 2.63 4.318z" stroke-width=".112285" />
			<path d="M175.05 252.863c1.362-.808 2.882-2.997 3.73-4.559-1.748.135-4.409.587-5.67 1.374-2.426 1.514-.375 4.559 1.94 3.185z" stroke-width=".112285" />
			<path stroke-linecap="round" stroke-linejoin="round" d="M175.106 252.811a2.827 2.827 0 00-.363-1.932c-.472-.764-1.018-1.025-1.524-1.183M177.022 250.874c.02-.407-.196-1.009-.35-1.25-.167-.262-.657-.66-.93-.792" stroke-width=".112285" />
		</g>
		<g fill="none" stroke="#C13C1B" stroke-width=".5">
			<path d="M179.58 257.942c1.659-1.348 3.254-4.575 4.076-6.833-2.312.521-5.779 1.646-7.309 2.946-2.94 2.501.412 6.179 3.234 3.887z" stroke-width=".112285" />
			<path d="M179.189 257.398c1.23-.998 2.414-3.385 3.023-5.055-1.71.389-4.274 1.224-5.409 2.188-2.178 1.852.297 4.564 2.386 2.867z" stroke-width=".112285" />
			<path stroke-linecap="round" stroke-linejoin="round" d="M179.238 257.339c.011-.366-.065-1.173-.644-1.859-.578-.687-1.154-.866-1.68-.947M180.849 255.14c-.04-.404-.34-.968-.53-1.183-.201-.235-.745-.557-1.035-.647" stroke-width=".112285" />
		</g>
		<g fill="none" stroke="#C13C1B" stroke-width=".5">
			<path d="M171.985 248.579c1.884-1.01 4.06-3.877 5.294-5.939-2.37.075-5.986.523-7.735 1.511-3.36 1.898-.763 6.144 2.441 4.428z" stroke-width=".112285" />
			<path d="M171.704 247.971c1.395-.748 3.009-2.87 3.923-4.393-1.751.06-4.429.394-5.723 1.126-2.489 1.407-.572 4.539 1.8 3.267z" stroke-width=".112285" />
			<path stroke-linecap="round" stroke-linejoin="round" d="M171.762 247.922c.081-.357.16-1.162-.279-1.947-.44-.785-.97-1.068-1.47-1.247M173.76 246.068c.038-.405-.15-1.015-.294-1.263-.155-.269-.63-.688-.896-.832" stroke-width=".112285" />
		</g>
		<g fill="none" stroke="#C13C1B" stroke-width=".5">
			<path d="M166.897 237.675c2.033-.663 4.678-3.106 6.253-4.919-2.346-.342-5.985-.534-7.879.132-3.641 1.28-1.828 5.916 1.626 4.787z" stroke-width=".112285" />
			<path d="M166.728 237.028c1.505-.493 3.466-2.296 4.633-3.636-1.737-.25-4.43-.39-5.833.105-2.697.948-1.359 4.367 1.2 3.53z" stroke-width=".112285" />
			<path stroke-linecap="round" stroke-linejoin="round" d="M166.793 236.99a2.825 2.825 0 00.067-1.966c-.294-.849-.77-1.222-1.23-1.486M169.086 235.515c.107-.392.028-1.027-.07-1.296-.104-.29-.498-.787-.734-.975" stroke-width=".112285" />
		</g>
		<g fill="none" stroke="#C13C1B" stroke-width=".5">
			<path d="M169.04 243.143c1.973-.825 4.414-3.469 5.84-5.404-2.367-.152-6.01-.054-7.844.762-3.528 1.568-1.35 6.044 2.004 4.642z" stroke-width=".112285" />
			<path d="M168.818 242.511c1.46-.61 3.271-2.566 4.328-3.995-1.75-.11-4.447-.033-5.806.57-2.612 1.161-1.006 4.463 1.478 3.425z" stroke-width=".112285" />
			<path stroke-linecap="round" stroke-linejoin="round" d="M168.88 242.468a2.823 2.823 0 00-.09-1.965c-.362-.822-.864-1.157-1.345-1.382M171.049 240.814c.076-.4-.055-1.025-.173-1.285-.128-.282-.56-.745-.812-.913" stroke-width=".112285" />
		</g>
		<path fill="none" stroke="#000" stroke-width=".22449" stroke-linecap="round" stroke-linejoin="round" d="M281.138 231.16l-34.013-14.535-44.875-.125-40.738 16.696c7.365 29.073 30.9 42.63 59.073 42.66 26.685.027 38.997-7.086 47.51-16.519 8.094-8.966 11.754-19.99 13.043-28.177z" />
	</g>
	<g>
		<path fill="#E9DDAF" stroke="#E9DDAF" d="M209.163 158.258l2.004-41.924 13 9.667-2.175 34.657-12.829-2.4z" />
		<path fill="#494544" d="M244.866 197.383c3.782-7.363 7.929-27.753-1.483-43.67-7.643-12.925-11.882-14.607-13.883-14.962-1.438-7.813-5.507-19.081-18.236-29.365-5.098 1.568-1.196 19.791-9.356 31.377-8.311 6.169-22.812 3.993-27.618 14.908-5.359 4.81-12.925 10.406-16.628 18.898-3.428 1.464-2.759 7.274 3.366 5.711 3.381 6.643 5.458 8.789 8.086 9.538.134 1.238.586 1.642 1.145 1.682 2.492 10.066 20.407 3.873 31.241 8.832 2 7.013-5.025 15.913-3.624 19.502 0 0 2.159 17.144 24.5 18.375 11.5 0 21.936-6.39 25-21.25-.001 0-7.274-10.302-2.51-19.576zm-25.274-38.948l-.46-.281c2.081-1.03-7.63-5.959-6.868-7.941 7.317-2.958-.764-31.821.245-31.421 8.292 6.756 12.79 35.655 7.083 39.643z" />
		<path fill="none" stroke="#000" stroke-width=".5" d="M219.592 158.435l-.46-.281c2.081-1.03-7.63-5.959-6.868-7.941 7.317-2.958-.764-31.821.245-31.421 8.292 6.756 12.79 35.655 7.083 39.643z" />
		<path fill="#E9DDAF" stroke="#E9DDAF" stroke-width=".101" stroke-linecap="round" stroke-linejoin="round" d="M177.165 196.488c-1.887-1.891-2.975-3.253-4.094-6.487-1.062.203-2.186.179-3.533 0-.112.532.685 1 1.046 1.154 3.011 5.552 3.891 4.36 6.581 5.333z" />
		<path fill="#E9DDAF" stroke="#E9DDAF" stroke-width=".101" d="M161.893 180.264l-.577-.793c-9.277.884-1.595-7.472 1.082-.722 2.568 3.965 4.994 8.128 10.458 8.078.598.775 2.23 1.655.145 2.163-6.45 1.453-9.016-3.261-11.108-8.726z" />
		<path fill="none" stroke="#000" stroke-width=".7" stroke-linecap="round" stroke-linejoin="round" d="M191.153 189.512c1.16.693 2.09 2.532.324 4.11M193.244 189.657c.854 1.46 1.221 2.964-.216 4.615" />
		<path fill="none" stroke="#C13C1B" stroke-width=".5" stroke-linecap="round" stroke-linejoin="round" d="M157.674 176.703c1.193-.963 4.265-.644 4.868 2.443 2.496 2.09 3.371 7.804 10.386 7.682M163.588 180.552l-1.227.83M164.303 181.402l-1.473 1.063M164.85 182.428l-1.515 1.117M165.572 183.366l-1.659 1.298M166.292 184.267l-1.622 1.55M167.302 185.277l-1.515 1.767M168.456 186.034l-1.118 2.2M170.19 186.697l-.633 2.327" />
		<path fill="#FFF" stroke="#C13C1B" stroke-width=".5" stroke-linecap="round" stroke-linejoin="round" d="M171.738 190.83c0 .199-.16.36-.36.36s-.505-.197-.505-.396c0-.198.306-.324.505-.324s.36.16.36.36zM173.361 192.165c0 .199-.018.469-.217.469s-.505-.27-.505-.47a.36.36 0 11.722 0zM173.397 193.787a.361.361 0 01-.36.36c-.199 0-.3-.17-.36-.36-.109-.343.161-.36.36-.36a.36.36 0 01.36.36zM174.928 194.628c0 .198.055.433-.144.433-.199 0-.577-.234-.577-.433a.36.36 0 11.721 0z" />
		<path fill="none" stroke="#000" stroke-width=".7" stroke-linecap="round" stroke-linejoin="round" d="M190.526 191.562s-8.833-2-10.368-2.59-11.045.846-11.045.846c-2.628-.749-4.705-2.896-8.086-9.538-6.125 1.563-6.794-4.247-3.366-5.711 3.703-8.492 11.269-14.089 16.628-18.898 4.807-10.915 19.308-8.739 27.618-14.908 8.16-11.586 4.259-29.809 9.356-31.377 29.604 23.918 17.959 58.602 8.09 49.22 5.905-3.585 1.564-32.962-6.844-39.813-.984-.39 6.728 27.496.271 31.173 0 0-1.046.412-.781 1.074s.529 1.457.529 1.457" />
		<path fill="none" stroke="#000" d="M244.866 197.383c3.782-7.363 7.929-27.753-1.483-43.67-7.643-12.925-11.882-14.607-13.883-14.962-1.25-7.625-5.507-19.081-18.236-29.365-5.098 1.568-1.196 19.791-9.356 31.377-8.311 6.169-22.812 3.993-27.618 14.908-5.359 4.81-12.925 10.406-16.628 18.898-3.428 1.464-2.759 7.274 3.366 5.711 3.381 6.643 5.458 8.789 8.086 9.538.134 1.238.586 1.642 1.145 1.682 2.492 10.066 20.407 3.873 31.241 8.832 2 7.013-5.025 15.913-3.624 19.502 0 0 2.159 17.144 24.5 18.375 12.375 0 21.936-6.39 25-21.25-.001 0-7.274-10.302-2.51-19.576zm-25.274-38.948l-.46-.281c2.081-1.03-7.63-5.959-6.868-7.941 7.317-2.958-.764-31.821.245-31.421 8.292 6.756 12.79 35.655 7.083 39.643z" />
		<g>
			<path fill="#FFF" stroke="#000" stroke-width="1.01" stroke-linecap="round" stroke-linejoin="round" d="M179.534 167.028c.782-.444 2.395-4.024 3.111-6.132 2.787-2.787 4.813-2.613 8.56-2.72 2.189.398 5.403 1.708 5.771 2.521.728 1.607-3.571 2.563-5.369 3.925-4.813 3.093-10.287.713-11.652 2.746-.446.349-.563-.021-.421-.34z" />
			<path fill="#8FB4EA" stroke="#000" stroke-linecap="round" stroke-linejoin="round" d="M189.668 158.312c-2.363-.301-4.979.876-6.572 2.344-.229 8.48 11.119 5.086 6.572-2.344z" />
			<path stroke="#000" stroke-width=".051" stroke-linecap="round" stroke-linejoin="round" d="M188.05 161.008c.432.5.14 1.308-.407 1.778-.548.472-1.352.408-1.782-.091-.431-.5-.287-1.143.259-1.615.548-.471 1.501-.571 1.93-.072z" />
			<path d="M214.637 161.05l1.062-4.578s-9.234 2.699-10.628 3.163-8.691 1.062-8.691 1.062 4.577 1.46 7.497 1.924 10.76-1.571 10.76-1.571z" />
			<path fill="none" stroke="#000" stroke-width=".7" stroke-linecap="round" stroke-linejoin="round" d="M176.162 161.221s4.067-10.158 13.47-9.981c5.136.097 9.304 4.554 14.633 3.101" />
		</g>
		<g fill="#FAC53A" stroke="#000" stroke-width=".7" stroke-linecap="round" stroke-linejoin="round">
			<path d="M230.435 139.241c-1.038-1.533-2.65-2.344-4.661-2.344-2.539 0-3.914 1.271-4.622 2.337-3.214 4.846.683 16.499 2.535 21.351-1.523 4.06-5.964 17.059-2.44 22.263 1.037 1.533 2.649 2.344 4.66 2.344 2.538 0 3.915-1.271 4.622-2.337 3.216-4.847-.679-16.501-2.529-21.354 1.523-4.059 5.96-17.055 2.435-22.26zm-6.497 1.841c.26-.392.704-.842 1.836-.842 1.152 0 1.617.467 1.894.875 1.755 2.593.291 9.803-1.589 15.721l-.465-1.103-.054.133c-1.864-5.73-3.24-12.344-1.622-14.784zm3.806 39.924c-.261.393-.704.842-1.837.842-1.152 0-1.616-.467-1.892-.874-1.756-2.593-.29-9.809 1.593-15.729l.466 1.104.052-.129c1.862 5.733 3.237 12.347 1.618 14.786z" />
			<path d="M232.426 157.988c0 .875-.709 1.583-1.583 1.583h-10.005a1.583 1.583 0 01-1.583-1.583h0c0-.875.709-1.583 1.583-1.583h10.005c.874 0 1.583.708 1.583 1.583h0zM232.426 161.281c0 .875-.709 1.583-1.583 1.583h-10.005a1.583 1.583 0 01-1.583-1.583h0c0-.875.709-1.583 1.583-1.583h10.005c.874 0 1.583.708 1.583 1.583h0zM232.426 164.574c0 .875-.709 1.583-1.583 1.583h-10.005a1.583 1.583 0 01-1.583-1.583h0c0-.875.709-1.583 1.583-1.583h10.005c.874 0 1.583.708 1.583 1.583h0z" />
		</g>
	</g>
	<path d="M160.41 178.848s.349-.674.84-.54c.66.18.78.78.78.78s-1.38.96-1.62-.24z" />
	<path fill="#F5CA44" stroke="#000" stroke-linecap="round" stroke-linejoin="round" d="M79.358 240.998c-3.934-2.732-10.51-5.151-19.108-4.777-2.453.118-3.625.576-3.625.576l-4.264-1.14s-1.423 3.353 1.101 4.406 4.126.624 4.126.624l2.413-.021c10.842.831 12.579 1.819 13.322 3.564" />
	<g stroke="#000" stroke-linecap="round" stroke-linejoin="round">
		<path fill="#F5CA44" d="M69.813 242.058c3.35.542 5.325 3.095 1.355 3.352 3.008.166 5.822 3.674-.33 3.351 4.56 1.283 2.328 3.697-.445 3.448 3.101.842 1.681 3.189-2.189 2.998-4.429.347-9.243.4-13.905.468a.295.295 0 01-.245-.13c-.845-.933-1.057-2.453 1.16-3.557-1.67-1.227-1.437-3.361.72-3.775-1.485-1.638-1.146-2.867.569-3.79-1.63-1.736-1.378-2.829.597-3.673.19-.044.35-.063.486-.062 4.951-.046 8.971.415 12.131 1.343m.691.188c-.803.463-1.078 1.96-.053 3.083m.706.183c-1.188.28-1.014 2.57-.307 3.237m.275.082c-1.423.108-2.229 2.676-.193 3.402m-.5.01c-1.215.431-1.448 1.955-.909 2.898m-13.485-6.896c.47.097 14.902.572 14.902.572m-14.23-4.335c.797.02 14.594.974 14.594.974m-15.946 6.58l15.224.216" stroke-width=".21" />
		<path fill="#FFF" d="M71.06 245.485c-.211-.046-.409.101-.705-.183-1.274-1.347-.241-2.923.046-3.096 2.947.717 4.46 3.022.748 3.263 3.007.166 5.841 3.614-.311 3.292 4.56 1.283 2.423 3.677-.35 3.428 2.757.748 1.846 2.705-1.073 2.959-.527-.978-.294-2.501 1.073-2.939-1.882-.732-.882-3.298.403-3.445-.844-.708-1.018-2.999.17-3.279z" stroke-width=".21" />
	</g>
</svg>