<svg width="440" height="600" xmlns="http://www.w3.org/2000/svg">
    <path d="M6.67 593.33C.1 586.77 0 582.23 0 300.63 0 58.9.73 13.6 4.73 8.13 9.3 1.87 15.97 1.63 218 .77c205.43-.9 208.63-.8 215.27 5.83C439.93 13.27 440 16.73 440 300c0 282.23-.1 286.77-6.67 293.33-6.53 6.54-11.1 6.67-213.33 6.67-202.23 0-206.8-.13-213.33-6.67M100 561.67v-18.34H20v14.34c0 7.86 1.8 16.13 4 18.33 2.63 2.63 16.43 4 40 4h36v-18.33m40-20v-38.34h-36.67V580H140v-38.33m40 0v-38.34h-36.67V580H180v-38.33m80 20v-18.34h-76.67V580H260v-18.33m40-20v-38.34h-36.67V580H300v-38.33m40 0v-38.34h-36.67V580H340v-38.33M416 576c2.2-2.2 4-10.43 4-18.33v-14.34h-76.67V580h34.34c22.26 0 35.73-1.4 38.33-4m-316-54.33v-18.34H20V540h80v-18.33m160 0v-18.34h-76.67V540H260v-18.33m160 0v-18.34h-76.67V540H420v-18.33m-360-60v-38.34H20V500h40v-38.33m40 0v-38.34H63.33V500H100v-38.33m80 20v-18.34h-76.67V500H180v-18.33m40-20v-38.34h-36.67V500H220v-38.33m40 0v-38.34h-36.67V500H260v-38.33m80 20v-18.34h-76.67V500H340v-18.33m40-20v-38.34h-36.67V500H380v-38.33m40 0v-38.34h-36.67V500H420v-38.33m-240-20v-18.34h-76.67V460H180v-18.33m160 0v-18.34h-76.67V460H340v-18.33m-240-40v-18.34H20V420h80v-18.33m40-20v-38.34h-36.67V420H140v-38.33m40 0v-38.34h-36.67V420H180v-38.33m80 20v-18.34h-76.67V420H260v-18.33m40-20v-38.34h-36.67V420H300v-38.33m40 0v-38.34h-36.67V420H340v-38.33m80 20v-18.34h-76.67V420H420v-18.33m-320-40v-18.34H20V380h80v-18.33m160 0v-18.34h-76.67V380H260v-18.33m160 0v-18.34h-76.67V380H420v-18.33m-360-60v-38.34H20V340h40v-38.33m40 0v-38.34H63.33V340H100v-38.33m80 20v-18.34h-76.67V340H180v-18.33m40-20v-38.34h-36.67V340H220v-38.33m40 0v-38.34h-36.67V340H260v-38.33m80 20v-18.34h-76.67V340H340v-18.33m40-20v-38.34h-36.67V340H380v-38.33m40 0v-38.34h-36.67V340H420v-38.33m-240-20v-18.34h-76.67V300H180v-18.33m160 0v-18.34h-76.67V300H340v-18.33m-240-40v-18.34H20V260h80v-18.33m40-20v-38.34h-36.67V260H140v-38.33m40 0v-38.34h-36.67V260H180v-38.33m80 20v-18.34h-76.67V260H260v-18.33m40-20v-38.34h-36.67V260H300v-38.33m40 0v-38.34h-36.67V260H340v-38.33m80 20v-18.34h-76.67V260H420v-18.33m-320-40v-18.34H20V220h80v-18.33m160 0v-18.34h-76.67V220H260v-18.33m160 0v-18.34h-76.67V220H420v-18.33m-360-60v-38.34H20V180h40v-38.33m40 0v-38.34H63.33V180H100v-38.33m80 20v-18.34h-76.67V180H180v-18.33m40-20v-38.34h-36.67V180H220v-38.33m40 0v-38.34h-36.67V180H260v-38.33m80 20v-18.34h-76.67V180H340v-18.33m40-20v-38.34h-36.67V180H380v-38.33m40 0v-38.34h-36.67V180H420v-38.33m-240-20v-18.34h-76.67V140H180v-18.33m160 0v-18.34h-76.67V140H340v-18.33m-240-40V63.33H20V100h80V81.67M140 60V20h-36.67v80H140V60m40 0V20h-36.67v80H180V60m80 21.67V63.33h-76.67V100H260V81.67M300 60V20h-36.67v80H300V60m40 0V20h-36.67v80H340V60m80 21.67V63.33h-76.67V100H420V81.67M100 40V20H64c-23.57 0-37.37 1.37-40 4-2.2 2.2-4 11.2-4 20v16h80V40m160 0V20h-76.67v40H260V40m160 4c0-8.8-1.8-17.8-4-20-2.6-2.6-16.07-4-38.33-4h-34.34v40H420V44" />
    <path fill="#eaab6c" d="M24 576c-2.2-2.2-4-10.47-4-18.33v-14.34h80V580H64c-23.57 0-37.37-1.37-40-4M183.33 561.67v-18.34H260V580h-76.67v-18.33M343.33 561.67v-18.34H420v14.34c0 7.9-1.8 16.13-4 18.33-2.6 2.6-16.07 4-38.33 4h-34.34v-18.33M20 521.67v-18.34h80V540H20v-18.33M183.33 521.67v-18.34H260V540h-76.67v-18.33M343.33 521.67v-18.34H420V540h-76.67v-18.33M103.33 481.67v-18.34H180V500h-76.67v-18.33M263.33 481.67v-18.34H340V500h-76.67v-18.33M103.33 441.67v-18.34H180V460h-76.67v-18.33M263.33 441.67v-18.34H340V460h-76.67v-18.33M20 401.67v-18.34h80V420H20v-18.33M183.33 401.67v-18.34H260V420h-76.67v-18.33M343.33 401.67v-18.34H420V420h-76.67v-18.33M20 361.67v-18.34h80V380H20v-18.33M183.33 361.67v-18.34H260V380h-76.67v-18.33M343.33 361.67v-18.34H420V380h-76.67v-18.33M103.33 321.67v-18.34H180V340h-76.67v-18.33M263.33 321.67v-18.34H340V340h-76.67v-18.33M103.33 281.67v-18.34H180V300h-76.67v-18.33M263.33 281.67v-18.34H340V300h-76.67v-18.33M20 241.67v-18.34h80V260H20v-18.33M183.33 241.67v-18.34H260V260h-76.67v-18.33M343.33 241.67v-18.34H420V260h-76.67v-18.33M20 201.67v-18.34h80V220H20v-18.33M183.33 201.67v-18.34H260V220h-76.67v-18.33M343.33 201.67v-18.34H420V220h-76.67v-18.33M103.33 161.67v-18.34H180V180h-76.67v-18.33M263.33 161.67v-18.34H340V180h-76.67v-18.33M103.33 121.67v-18.34H180V140h-76.67v-18.33M263.33 121.67v-18.34H340V140h-76.67v-18.33M20 81.67V63.33h80V100H20V81.67M183.33 81.67V63.33H260V100h-76.67V81.67M343.33 81.67V63.33H420V100h-76.67V81.67M20 43.47C20 21.93 23.83 20 66.43 20H100v40H20V43.47M183.33 40V20H260v40h-76.67V40M343.33 40V20h34.34c22.26 0 35.73 1.4 38.33 4 2.2 2.2 4 11.2 4 20v16h-76.67V40" />
    <path fill="#8e5e2f" d="M103.33 541.67v-38.34H140V580h-36.67v-38.33M143.33 541.67v-38.34H180V580h-36.67v-38.33M263.33 541.67v-38.34H300V580h-36.67v-38.33M303.33 541.67v-38.34H340V580h-36.67v-38.33M20 461.67v-38.34h40V500H20v-38.33M63.33 461.67v-38.34H100V500H63.33v-38.33M183.33 461.67v-38.34H220V500h-36.67v-38.33M223.33 461.67v-38.34H260V500h-36.67v-38.33M343.33 461.67v-38.34H380V500h-36.67v-38.33M383.33 461.67v-38.34H420V500h-36.67v-38.33M103.33 381.67v-38.34H140V420h-36.67v-38.33M143.33 381.67v-38.34H180V420h-36.67v-38.33M263.33 381.67v-38.34H300V420h-36.67v-38.33M303.33 381.67v-38.34H340V420h-36.67v-38.33M20 301.67v-38.34h40V340H20v-38.33M63.33 301.67v-38.34H100V340H63.33v-38.33M183.33 301.67v-38.34H220V340h-36.67v-38.33M223.33 301.67v-38.34H260V340h-36.67v-38.33M343.33 301.67v-38.34H380V340h-36.67v-38.33M383.33 301.67v-38.34H420V340h-36.67v-38.33M103.33 221.67v-38.34H140V260h-36.67v-38.33M143.33 221.67v-38.34H180V260h-36.67v-38.33M263.33 221.67v-38.34H300V260h-36.67v-38.33M303.33 221.67v-38.34H340V260h-36.67v-38.33M20 141.67v-38.34h40V180H20v-38.33M63.33 141.67v-38.34H100V180H63.33v-38.33M183.33 141.67v-38.34H220V180h-36.67v-38.33M223.33 141.67v-38.34H260V180h-36.67v-38.33M343.33 141.67v-38.34H380V180h-36.67v-38.33M383.33 141.67v-38.34H420V180h-36.67v-38.33M104.07 60.83l.93-39.16 17.5-1 17.5-1V100H103.13l.94-39.17M143.33 60V20H180v80h-36.67V60M263.33 60V20H300v80h-36.67V60M303.33 60V20H340v80h-36.67V60" />
</svg>