<svg xmlns="http://www.w3.org/2000/svg" width="350" height="690" version="1.0">
   <path d="M273.445 469.86l-.308 12.342c.092 17.746.562 36.573 4.168 49.573l19.3 143.75 11.117-1.235c-8.34-48.113-10.088-94.907-15.131-142.36-3.04-31.149-9.486-22.25-19.146-62.07z" fill="#fac53a" fill-rule="evenodd" stroke="#c13c1b" stroke-width=".432" />
   <path d="M304.704 192.824h-30.133M305.25 201.886l-30.242.437" fill="none" stroke="#000" stroke-width=".216" />
   <path d="M223.315 131.945l39.73.701c19.383 6.147 34.85 13.406 40.869 34.503 2.172 12.131.178 16.431.926 25.63l.618 9.574c1.33 20.65 1.876 41.458.309 62.688-1.256 18.425 2.698 38.086 3.088 56.511-.628 15.45-4.375 26.91-5.095 40.416l-19.3-1.506c-8.862-49.929-3.742-66.267-5.868-89.245-3.22-28.031-3.23-55.26-4.323-82.76-11.9 21.466-24.347 42.2-31.19 70.408v4.67l6.485 29.916c3.48 4.882 13.453 27.038 6.212 39.67 8.264 48.38 12.168 97.852 11.699 146.232l.617 15.75c1.314 21.451 9.94 42.912 9.573 66.393-.365 23.48-4.595 46.46-7.72 68.864-1.184 25.837 2.385 30.425 1.491 39.848-.893 9.424-6.162 8.992-11.532 8.932-5.474-.062-10.785-.988-10.974-4.596-5.653-1.586-13.631 4.934-72.263 2.662-2.539-.343-2.727-4.074-2.96-6.723 2.614-.714 5.324-1.044 8.228-.596 19.497-9.53 38.655-13.62 58.674-31.498.947-.982 1.745-2.3 1.544-5.868-2.524-35.346-10.217-72.038-13.28-107.465l-.926-5.558c-2.707-6.918-5.104-15.692-8.337-19.455-1.312-7.205-1.855-14.41-6.485-21.616l-14.932-.31c-6.778 19.142-7.696 26.922-11.735 39.837-3.146 18.89-.325 26.913-4.832 41.998-4.543 15.21-14.255 34.954-21.925 49.718-4.702 12.668-11.177 26.046-13.33 37.751-.617 7.54.635 13.364-.258 22.787-.894 9.424-6.163 8.992-11.533 8.932-5.474-.062-10.785-.988-10.974-4.596-5.652-1.586-13.63 4.934-72.263 2.662-2.538-.343-2.727-4.074-2.96-6.723 2.614-.714 5.324-1.044 8.229-.596 19.497-9.53 43.904-14.856 63.897-32.733 1.929-2.157 2.543-4.533 3.28-6.888l22.633-109.224c.029-11.065-1.372-21.58 3.706-34.586l.309-8.647 18.673-170.841-2.075-7.225c-2.65-6.114-.76-12.588-.85-18.336-2.217-17.227-5.72-34.133-9.572-50.953-2.438-5.673-4.692-12.494-6.507-19.661-1.79-.695-2.317-2.681-1.083-4.556-1.216-5.467-2.154-11.034-2.705-16.362l-.822-.183-1.224 11.039c-.477 2.676-.395 5.31-.856 7.941-3.447 19.672-7.004 39.094-18.982 73.802l-3.978 8.724c-9.02 26.126-22.208 46.39-35.88 65.973L67.544 344.9c9.842-24.333 16.772-49.596 31.629-72.328l2.653-6.442c1.046-18.874 3.392-45.47 8.431-66.333l1.972-15.64c-5.587-25.87 6.44-43.13 29.365-46.96l37.863-7.364" fill="#a13c2a" fill-rule="evenodd" stroke="#000" stroke-width=".432" stroke-linecap="round" stroke-linejoin="round" />
   <g fill-rule="evenodd" stroke="#000" stroke-linecap="round" stroke-linejoin="round">
      <path d="M-2306.297 184.523l126.243 8.061-.277 76.804-129.037-11.151 3.07-73.714z" fill="#fac53a" transform="matrix(.23889 -.01891 .0161 .22474 822.29 105.525)" />
      <path d="M-2306.69 192.987l126.446 10.278-.033 22.472-127.353-9.681.94-23.07zM-2307.61 224.353l127.059 11.038.146 24.403-128.228-10.692 1.023-24.749z" fill="#04a" transform="matrix(.23889 -.01891 .0161 .22474 822.29 105.525)" />
   </g>
   <path d="M276.055 480.161c-.447-2.634-1.628-5.47-2.009-8.515-4.272-34.2-4.916-92.64-15.083-137.46 2.938-8.146 1.788-17.4-.399-25.108-2.16-7.611-5.229-13.556-6.802-15.794-1.137-5.323-4.491-21.112-5.654-32.29a1.081 1.081 0 00-1.095-.986h0a1.08 1.08 0 00-1.053 1.21c1.195 11.483 4.617 27.496 5.728 32.694.033.15.098.29.19.413 1.148 1.568 4.46 7.78 6.606 15.34 2.145 7.56 3.183 16.555.35 24.096a1.08 1.08 0 00-.04.615c8.552 37.496 10.412 84.889 13.398 119.58.87 10.114 2.724 19.264 3.092 26.543" fill="#fac53a" fill-rule="evenodd" stroke="#000" stroke-width=".216" stroke-linecap="round" stroke-linejoin="round" />
   <path d="M150.228 478.828l16.832-171.092 88.382-.892c1.158 4.702 6.012 14.324.464 26.558 7.642 48.32 12.4 97.274 11.37 145.306l-117.048.12z" fill="#fff" fill-rule="evenodd" stroke="#000" stroke-width=".432" />
   <path d="M267.268 479.046c-90.46-15.205-106.955-83.399-100.208-171.31l82.405-14.567c7.818 13 12.343 30.674 6.468 40.178 7.66 48.434 12.394 97.556 11.335 145.7z" fill="#fac53a" fill-rule="evenodd" stroke="#000" stroke-width=".216" />
   <path d="M146.637 136.115l32.876-6.575 46.534-3.71 35.83 7.407c-6.734 33.984-29.78 46.135-56.48 46.728-25.29.558-37.1-5.936-45.358-14.705-7.848-8.336-12.017-21.412-13.402-29.145z" fill="#fff" fill-rule="evenodd" stroke="#000" stroke-linecap="round" stroke-linejoin="round" stroke-width=".27168" />
   <path style="marker:none" d="M160.37 133.366c4.956 24.508 19.253 33.587 45.6 32.55 26.412-1.039 39.559-17.992 41.17-34.45-.009-.222-.016-.547.115-1.127" color="#000" fill="none" stroke="#04a" stroke-width="4.841337599999999" stroke-linejoin="round" overflow="visible" />
   <path style="marker:none" d="M172.907 131.02c4.82 18.647 15.355 22.69 32.552 22.024 16.068-.622 27.977-11.153 27.858-24.363-.042-.503.136-.834.101-1.134" color="#000" fill="none" stroke="#308d57" stroke-width="3.6739286399999997" overflow="visible" />
   <path style="marker:none" d="M164.691 132.78c3.622 17.165 12.732 29.993 40.961 28.757 24.573-1.076 36.362-17.698 36.834-31.589-.016-.062-.017-.355.046-.648" color="#000" fill="none" stroke="#c13c1b" stroke-width="2.9708208" overflow="visible" />
   <path style="marker:none" d="M176.995 130.103c2.44 8.14 5.165 20.311 28.455 18.548 15.258-1.155 22.63-10.254 23.206-18.743.047-.964.04-3.106.157-3.388" color="#000" fill="none" stroke="#04a" stroke-width="4.3572038399999995" overflow="visible" />
   <path style="marker:none" d="M168.697 131.744c4.876 23.183 22.08 26.472 37.215 25.573 20.56-1.228 31.623-13.959 32.192-27.435.018-.247.014-1.17.132-1.544" color="#000" fill="none" stroke="#04a" stroke-width="4.3572038399999995" overflow="visible" />
   <path style="marker:none" d="M152.179 135.16c5.384 26.015 19.894 40.195 52.718 39.027l.387-.014h.011c43.57-1.705 49.082-34.323 50.663-41.917" color="#000" fill="none" stroke="#fac53a" stroke-width="10.867199999999999" overflow="visible" />
   <path d="M146.637 136.115l32.876-6.575 46.534-3.71 35.83 7.407c-6.734 33.984-29.78 46.135-56.48 46.728-25.29.558-37.1-5.936-45.358-14.705-7.848-8.336-12.017-21.412-13.402-29.145z" fill="none" stroke="#000" stroke-width=".54336" stroke-linecap="round" stroke-linejoin="round" />
   <g fill="none" stroke="#c13c1b">
      <path d="M218.111 175.235c-.63-1.926-.246-5.316.257-7.537 1.576 1.602 3.763 4.277 4.315 6.098 1.061 3.502-3.498 4.713-4.572 1.44z" stroke-width=".27168" />
      <path d="M218.702 175.002c-.468-1.426-.187-3.936.183-5.58 1.164 1.187 2.78 3.17 3.189 4.518.786 2.594-2.577 3.487-3.372 1.062z" stroke-width=".27168" />
      <path d="M218.695 174.93a2.675 2.675 0 011.465-1.152c.814-.25 1.365-.097 1.825.108M218.536 172.351c.24-.302.77-.597 1.03-.673.282-.083.881-.06 1.157.016" style="marker:none" color="#000" stroke-linecap="round" stroke-linejoin="round" overflow="visible" stroke-width=".27168" />
   </g>
   <g fill="none" stroke="#c13c1b">
      <path d="M212.4 176.103c-.442-1.978.27-5.315.986-7.477 1.412 1.747 3.33 4.621 3.703 6.487.717 3.588-3.938 4.352-4.69.99z" stroke-width=".27168" />
      <path d="M213.01 175.928c-.327-1.465.196-3.936.723-5.536 1.044 1.294 2.46 3.424 2.736 4.806.532 2.657-2.902 3.22-3.459.73z" stroke-width=".27168" />
      <path d="M213.01 175.856c.205-.28.736-.834 1.57-1.005.834-.17 1.368.036 1.806.284M213.102 173.274c.268-.277.824-.52 1.09-.57.289-.055.883.025 1.15.128" style="marker:none" color="#000" stroke-linecap="round" stroke-linejoin="round" overflow="visible" stroke-width=".27168" />
   </g>
   <g fill="none" stroke="#c13c1b">
      <path d="M223.936 173.667c-.819-1.853-.773-5.265-.492-7.525 1.726 1.437 4.168 3.881 4.898 5.639 1.404 3.379-3.012 5.037-4.406 1.886z" stroke-width=".27168" />
      <path d="M224.5 173.377c-.606-1.373-.576-3.899-.37-5.571 1.275 1.066 3.08 2.877 3.62 4.18 1.04 2.502-2.217 3.724-3.25 1.39z" stroke-width=".27168" />
      <path d="M224.486 173.306a2.675 2.675 0 011.344-1.292c.785-.33 1.349-.232 1.827-.074M224.073 170.756c.209-.325.706-.671.957-.773.273-.11.871-.147 1.154-.099" style="marker:none" color="#000" stroke-linecap="round" stroke-linejoin="round" overflow="visible" stroke-width=".27168" />
   </g>
   <g fill="none" stroke="#c13c1b">
      <path d="M200.942 176.624c-.037-2.026 1.328-5.153 2.463-7.128 1.034 1.995 2.338 5.194 2.33 7.098-.016 3.659-4.73 3.475-4.793.03z" stroke-width=".27168" />
      <path d="M201.575 176.575c-.027-1.5.98-3.817 1.817-5.279.763 1.477 1.724 3.847 1.718 5.256-.012 2.71-3.489 2.574-3.535.023z" stroke-width=".27168" />
      <path style="marker:none" d="M201.589 176.505c.257-.234.888-.67 1.74-.67.851 0 1.333.308 1.712.639M202.197 173.993c.318-.218.91-.344 1.182-.34.293.004.86.201 1.101.356" color="#000" stroke-linecap="round" stroke-linejoin="round" overflow="visible" stroke-width=".27168" />
   </g>
   <g fill="none" stroke="#c13c1b">
      <path d="M195.422 176.528c.043-2.026 1.53-5.097 2.742-7.025.955 2.033 2.131 5.282 2.048 7.183-.16 3.656-4.863 3.287-4.79-.158z" stroke-width=".27168" />
      <path d="M196.056 176.504c.032-1.5 1.13-3.775 2.024-5.203.704 1.505 1.571 3.911 1.51 5.32-.118 2.707-3.588 2.434-3.534-.117z" stroke-width=".27168" />
      <path d="M196.073 176.434a2.675 2.675 0 011.765-.601c.85.033 1.32.361 1.686.706M196.78 173.949c.326-.206.923-.309 1.194-.294.293.015.851.235 1.086.399" style="marker:none" color="#000" stroke-linecap="round" stroke-linejoin="round" overflow="visible" stroke-width=".27168" />
   </g>
   <g fill="none" stroke="#c13c1b">
      <path d="M206.722 176.594c-.263-2.01.743-5.27 1.65-7.359 1.25 1.866 2.904 4.9 3.109 6.792.394 3.638-4.311 3.983-4.76.567z" stroke-width=".27168" />
      <path d="M207.345 176.474c-.194-1.488.547-3.902 1.215-5.45.924 1.383 2.144 3.63 2.296 5.032.292 2.694-3.18 2.948-3.51.418z" stroke-width=".27168" />
      <path d="M207.351 176.403c.23-.261.808-.766 1.654-.861.846-.095 1.36.158 1.773.444M207.674 173.839c.292-.252.867-.444 1.137-.47.292-.03.877.103 1.134.23" style="marker:none" color="#000" stroke-linecap="round" stroke-linejoin="round" overflow="visible" stroke-width=".27168" />
   </g>
   <g fill="none" stroke="#c13c1b">
      <path d="M157.728 156.561c1.672-1.144 5.034-1.724 7.308-1.862-1.097 1.96-3.053 4.809-4.647 5.848-3.064 2-5.504-2.038-2.661-3.986z" stroke-width=".27168" />
      <path d="M158.117 157.063c1.238-.848 3.727-1.28 5.408-1.386-.814 1.45-2.264 3.556-3.445 4.326-2.27 1.481-4.068-1.498-1.963-2.94z" stroke-width=".27168" />
      <path style="marker:none" d="M158.184 157.036a2.675 2.675 0 011.516 1.084c.468.712.475 1.284.408 1.782M160.615 156.163c.357.145.789.57.935.8.158.247.304.828.308 1.115" color="#000" stroke-linecap="round" stroke-linejoin="round" overflow="visible" stroke-width=".27168" />
   </g>
   <g fill="none" stroke="#c13c1b">
      <path d="M155.1 151.818c1.776-.975 5.179-1.223 7.455-1.137-1.284 1.844-3.51 4.486-5.198 5.365-3.246 1.688-5.277-2.57-2.258-4.228z" stroke-width=".27168" />
      <path d="M155.437 152.355c1.316-.722 3.835-.909 5.519-.848-.953 1.363-2.603 3.316-3.853 3.967-2.404 1.25-3.902-1.89-1.666-3.119z" stroke-width=".27168" />
      <path d="M155.506 152.335a2.675 2.675 0 011.403 1.228c.396.754.347 1.324.231 1.813M158.012 151.704c.341.18.729.646.852.888.133.262.221.855.197 1.14" style="marker:none" color="#000" stroke-linecap="round" stroke-linejoin="round" overflow="visible" stroke-width=".27168" />
   </g>
   <g fill="none" stroke="#c13c1b">
      <path d="M160.928 161.128c1.485-1.38 4.724-2.452 6.952-2.925-.795 2.102-2.307 5.208-3.73 6.473-2.734 2.43-5.744-1.202-3.222-3.548z" stroke-width=".27168" />
      <path d="M161.387 161.566c1.1-1.022 3.496-1.818 5.144-2.171-.59 1.554-1.713 3.852-2.767 4.788-2.025 1.8-4.245-.879-2.377-2.617z" stroke-width=".27168" />
      <path style="marker:none" d="M161.45 161.53a2.675 2.675 0 011.66.847c.568.634.66 1.2.667 1.702M163.725 160.306c.375.09.864.448 1.043.652.193.221.424.775.47 1.058" color="#000" stroke-linecap="round" stroke-linejoin="round" overflow="visible" stroke-width=".27168" />
   </g>
   <g fill="none" stroke="#c13c1b">
      <path d="M151.237 141.521c1.945-.566 5.321-.069 7.524.509-1.653 1.521-4.4 3.618-6.238 4.109-3.535.944-4.594-3.653-1.286-4.618z" stroke-width=".27168" />
      <path d="M151.45 142.12c1.441-.42 3.94-.055 5.571.37-1.225 1.123-3.26 2.672-4.622 3.035-2.618.7-3.399-2.692-.949-3.406z" stroke-width=".27168" />
      <path d="M151.522 142.115c.292.187.88.68 1.103 1.503.223.821.051 1.367-.169 1.82M154.105 142.043c.294.25.57.789.638 1.051.073.284.031.883-.054 1.157" style="marker:none" color="#000" stroke-linecap="round" stroke-linejoin="round" overflow="visible" stroke-width=".27168" />
   </g>
   <g fill="none" stroke="#c13c1b">
      <path d="M149.89 136.185c1.969-.482 5.32.161 7.496.834-1.718 1.448-4.552 3.423-6.41 3.834-3.573.79-4.432-3.849-1.086-4.668z" stroke-width=".27168" />
      <path d="M150.078 136.791c1.458-.356 3.939.116 5.55.611-1.274 1.07-3.374 2.529-4.75 2.833-2.646.585-3.279-2.837-.8-3.444z" stroke-width=".27168" />
      <path style="marker:none" d="M150.15 136.79c.284.2.849.718 1.036 1.55.188.83-.008 1.368-.247 1.81M152.733 136.83c.283.262.537.813.593 1.078.06.287-.008.883-.105 1.153" color="#000" stroke-linecap="round" stroke-linejoin="round" overflow="visible" stroke-width=".27168" />
   </g>
   <g fill="none" stroke="#c13c1b">
      <path d="M152.91 146.834c1.883-.75 5.29-.576 7.538-.21-1.5 1.671-4.034 4.02-5.818 4.683-3.43 1.277-4.921-3.198-1.72-4.473z" stroke-width=".27168" />
      <path d="M153.18 147.409c1.394-.555 3.916-.43 5.58-.163-1.113 1.235-2.99 2.971-4.312 3.463-2.54.945-3.64-2.356-1.269-3.3z" stroke-width=".27168" />
      <path d="M153.25 147.397c.31.158.94.594 1.241 1.391.3.797.182 1.357.006 1.828M155.815 147.08c.316.22.643.73.735.985.1.276.115.876.056 1.157" style="marker:none" color="#000" stroke-linecap="round" stroke-linejoin="round" overflow="visible" stroke-width=".27168" />
   </g>
   <g fill="none" stroke="#c13c1b">
      <path d="M169.178 168.615c1.03-1.745 3.83-3.694 5.83-4.782-.162 2.24-.727 5.649-1.731 7.266-1.93 3.109-5.85.484-4.1-2.484z" stroke-width=".27168" />
      <path d="M169.743 168.905c.763-1.292 2.833-2.739 4.312-3.546-.123 1.658-.545 4.18-1.288 5.378-1.429 2.303-4.32.366-3.024-1.832z" stroke-width=".27168" />
      <path style="marker:none" d="M169.792 168.853a2.675 2.675 0 011.833.34c.725.445.974.96 1.124 1.44M171.624 167.031c.386-.02.957.184 1.186.329.248.157.627.622.752.88" color="#000" stroke-linecap="round" stroke-linejoin="round" overflow="visible" stroke-width=".27168" />
   </g>
   <g fill="none" stroke="#c13c1b">
      <path d="M164.76 165.142c1.3-1.554 4.38-3.023 6.53-3.771-.525 2.184-1.636 5.455-2.89 6.888-2.408 2.754-5.85-.473-3.64-3.117z" stroke-width=".27168" />
      <path d="M165.27 165.52c.963-1.151 3.24-2.242 4.831-2.798-.39 1.615-1.217 4.036-2.145 5.097-1.784 2.04-4.322-.34-2.686-2.3z" stroke-width=".27168" />
      <path d="M165.327 165.476a2.675 2.675 0 011.753.633c.644.558.805 1.107.875 1.605M167.431 163.977c.384.043.914.336 1.117.517.219.195.517.715.599.99" style="marker:none" color="#000" stroke-linecap="round" stroke-linejoin="round" overflow="visible" stroke-width=".27168" />
   </g>
   <g fill="none" stroke="#c13c1b">
      <path d="M174.043 171.34c.834-1.847 3.407-4.089 5.278-5.387.08 2.245-.112 5.695-.934 7.411-1.581 3.3-5.763 1.115-4.344-2.025z" stroke-width=".27168" />
      <path d="M174.636 171.566c.618-1.367 2.52-3.03 3.903-3.992.057 1.661-.09 4.215-.699 5.486-1.17 2.444-4.255.832-3.204-1.494z" stroke-width=".27168" />
      <path style="marker:none" d="M174.679 171.509c.332-.101 1.09-.226 1.859.139.77.364 1.072.85 1.273 1.311M176.303 169.5c.381-.062.971.078 1.214.198.264.129.691.55.843.793" color="#000" stroke-linecap="round" stroke-linejoin="round" overflow="visible" stroke-width=".27168" />
   </g>
   <g fill="none" stroke="#c13c1b">
      <path d="M184.546 175.004c.386-1.99 2.372-4.765 3.893-6.46.597 2.166 1.206 5.567.802 7.427-.777 3.575-5.35 2.415-4.695-.967z" stroke-width=".27168" />
      <path d="M185.176 175.087c.286-1.473 1.752-3.53 2.876-4.785.439 1.603.886 4.121.587 5.499-.576 2.648-3.949 1.791-3.463-.714z" stroke-width=".27168" />
      <path d="M185.204 175.021c.3-.175 1.008-.47 1.841-.293s1.24.58 1.542.981M186.321 172.691c.357-.147.963-.147 1.227-.087.287.065.8.376 1.004.577" style="marker:none" color="#000" stroke-linecap="round" stroke-linejoin="round" overflow="visible" stroke-width=".27168" />
   </g>
   <g fill="none" stroke="#c13c1b">
      <path d="M179.24 173.49c.579-1.942 2.826-4.51 4.505-6.048.382 2.214.656 5.658.072 7.47-1.123 3.482-5.56 1.88-4.577-1.422z" stroke-width=".27168" />
      <path d="M179.858 173.635c.429-1.438 2.09-3.341 3.33-4.481.28 1.638.479 4.188.046 5.53-.831 2.579-4.104 1.397-3.376-1.05z" stroke-width=".27168" />
      <path style="marker:none" d="M179.893 173.572a2.675 2.675 0 011.86-.112c.812.258 1.178.698 1.44 1.128M181.232 171.362c.37-.111.973-.052 1.23.034.279.092.758.452.942.672" color="#000" stroke-linecap="round" stroke-linejoin="round" overflow="visible" stroke-width=".27168" />
   </g>
   <g fill="none" stroke="#c13c1b">
      <path d="M189.875 175.99c.173-2.02 1.852-4.99 3.184-6.836.824 2.09 1.79 5.407 1.586 7.299-.392 3.638-5.062 2.97-4.77-.463z" stroke-width=".27168" />
      <path d="M190.51 176.006c.128-1.495 1.368-3.695 2.35-5.064.608 1.548 1.32 4.004 1.169 5.406-.29 2.694-3.736 2.2-3.52-.342z" stroke-width=".27168" />
      <path d="M190.531 175.938c.28-.206.952-.576 1.8-.488.847.088 1.294.445 1.637.813M191.394 173.502c.34-.184.942-.249 1.211-.217.292.034.835.289 1.06.467" style="marker:none" color="#000" stroke-linecap="round" stroke-linejoin="round" overflow="visible" stroke-width=".27168" />
   </g>
   <g fill="none" stroke="#c13c1b">
      <path d="M234.602 169.094c-1.192-1.64-1.868-4.984-2.07-7.252 1.99 1.04 4.894 2.913 5.979 4.477 2.086 3.006-1.88 5.56-3.909 2.775z" stroke-width=".27168" />
      <path d="M235.093 168.69c-.883-1.214-1.387-3.688-1.54-5.366 1.472.772 3.62 2.161 4.423 3.32 1.545 2.226-1.381 4.11-2.883 2.046z" stroke-width=".27168" />
      <path style="marker:none" d="M235.064 168.624a2.675 2.675 0 011.04-1.547c.698-.488 1.27-.512 1.77-.458M234.121 166.219c.136-.362.549-.805.773-.957.243-.166.82-.329 1.106-.34" color="#000" stroke-linecap="round" stroke-linejoin="round" overflow="visible" stroke-width=".27168" />
   </g>
   <g fill="none" stroke="#c13c1b">
      <path d="M229.518 171.712c-1.045-1.736-1.43-5.127-1.435-7.404 1.894 1.209 4.624 3.326 5.569 4.978 1.818 3.175-2.354 5.376-4.134 2.426z" stroke-width=".27168" />
      <path d="M230.042 171.352c-.775-1.285-1.063-3.795-1.07-5.48 1.4.897 3.419 2.467 4.119 3.69 1.347 2.352-1.732 3.975-3.05 1.79z" stroke-width=".27168" />
      <path d="M230.019 171.284a2.675 2.675 0 011.17-1.451c.737-.426 1.31-.4 1.803-.304M229.288 168.806c.166-.348.616-.754.852-.887.257-.143.846-.256 1.132-.243" style="marker:none" color="#000" stroke-linecap="round" stroke-linejoin="round" overflow="visible" stroke-width=".27168" />
   </g>
   <g fill="none" stroke="#c13c1b">
      <path d="M239.458 165.903c-1.425-1.441-2.596-4.646-3.138-6.858 2.125.729 5.276 2.144 6.584 3.527 2.515 2.658-1.023 5.78-3.446 3.33z" stroke-width=".27168" />
      <path d="M239.882 165.43c-1.055-1.067-1.926-3.438-2.33-5.074 1.572.542 3.904 1.593 4.872 2.617 1.862 1.969-.747 4.271-2.542 2.457z" stroke-width=".27168" />
      <path d="M239.844 165.37c.024-.347.18-1.099.795-1.686.616-.588 1.178-.697 1.681-.72M238.55 163.133c.08-.378.42-.878.62-1.063.215-.2.76-.447 1.042-.503" style="marker:none" color="#000" stroke-linecap="round" stroke-linejoin="round" overflow="visible" stroke-width=".27168" />
   </g>
   <g fill="none" stroke="#c13c1b">
      <path d="M247.813 157.833c-1.764-.997-3.765-3.76-4.89-5.741 2.243.121 5.662.623 7.297 1.597 3.144 1.871.592 5.839-2.407 4.144z" stroke-width=".27168" />
      <path d="M248.092 157.263c-1.306-.739-2.79-2.782-3.625-4.246 1.66.093 4.19.468 5.4 1.189 2.33 1.386.447 4.312-1.775 3.057z" stroke-width=".27168" />
      <path style="marker:none" d="M248.038 157.215a2.675 2.675 0 01.306-1.839c.433-.734.943-.992 1.42-1.15M246.183 155.416c-.026-.385.166-.96.307-1.191.153-.251.61-.638.866-.768" color="#000" stroke-linecap="round" stroke-linejoin="round" overflow="visible" stroke-width=".27168" />
   </g>
   <g fill="none" stroke="#c13c1b">
      <path d="M243.9 162.167c-1.599-1.244-3.175-4.27-3.998-6.394 2.202.448 5.51 1.444 6.985 2.646 2.837 2.31-.267 5.863-2.987 3.748z" stroke-width=".27168" />
      <path d="M244.26 161.644c-1.185-.922-2.354-3.16-2.966-4.73 1.629.334 4.076 1.074 5.17 1.965 2.1 1.711-.19 4.331-2.204 2.765z" stroke-width=".27168" />
      <path d="M244.214 161.588a2.675 2.675 0 01.571-1.774c.535-.663 1.078-.843 1.574-.93M242.642 159.538c.03-.385.304-.925.477-1.134.188-.226.697-.542.97-.633" style="marker:none" color="#000" stroke-linecap="round" stroke-linejoin="round" overflow="visible" stroke-width=".27168" />
   </g>
   <g fill="none" stroke="#c13c1b">
      <path d="M250.912 153.141c-1.806-.92-3.926-3.593-5.136-5.523 2.246.024 5.683.376 7.36 1.277 3.222 1.733.846 5.808-2.224 4.246z" stroke-width=".27168" />
      <path d="M251.166 152.56c-1.338-.682-2.91-2.659-3.807-4.085 1.662.02 4.206.285 5.447.952 2.387 1.283.634 4.29-1.64 3.132z" stroke-width=".27168" />
      <path style="marker:none" d="M251.11 152.513a2.675 2.675 0 01.225-1.85c.4-.752.9-1.032 1.37-1.212M249.178 150.797c-.043-.383.124-.966.255-1.203.141-.258.582-.665.831-.806" color="#000" stroke-linecap="round" stroke-linejoin="round" overflow="visible" stroke-width=".27168" />
   </g>
   <g fill="none" stroke="#c13c1b">
      <path d="M255.509 143.16c-1.94-.59-4.495-2.85-6.024-4.538 2.216-.37 5.661-.626 7.47-.032 3.476 1.14 1.85 5.57-1.446 4.57z" stroke-width=".27168" />
      <path d="M255.657 142.542c-1.436-.436-3.33-2.107-4.464-3.354 1.64-.271 4.191-.457 5.53-.017 2.575.845 1.376 4.112-1.066 3.371z" stroke-width=".27168" />
      <path d="M255.594 142.507a2.675 2.675 0 01-.102-1.862c.262-.81.704-1.173 1.135-1.432M253.392 141.156c-.11-.37-.048-.973.04-1.23.093-.278.456-.756.677-.939" style="marker:none" color="#000" stroke-linecap="round" stroke-linejoin="round" overflow="visible" stroke-width=".27168" />
   </g>
   <g fill="none" stroke="#c13c1b">
      <path d="M253.59 148.203c-1.885-.742-4.252-3.2-5.641-5.005 2.238-.192 5.693-.17 7.448.566 3.374 1.415 1.4 5.7-1.807 4.439z" stroke-width=".27168" />
      <path d="M253.787 147.6c-1.396-.55-3.15-2.367-4.18-3.7 1.656-.14 4.213-.12 5.513.424 2.499 1.049 1.042 4.209-1.333 3.275z" stroke-width=".27168" />
      <path style="marker:none" d="M253.728 147.56a2.675 2.675 0 01.046-1.864c.326-.787.796-1.114 1.247-1.338M251.64 146.036c-.08-.377.03-.973.138-1.222.116-.27.516-.717.75-.881" color="#000" stroke-linecap="round" stroke-linejoin="round" overflow="visible" stroke-width=".27168" />
   </g>
   <g fill="none" stroke="#c13c1b">
      <path d="M257.242 137.91c-1.99-.377-4.775-2.35-6.477-3.864 2.164-.606 5.562-1.23 7.423-.835 3.58.76 2.44 5.339-.946 4.699z" stroke-width=".27168" />
      <path d="M257.323 137.28c-1.475-.28-3.537-1.737-4.798-2.854 1.601-.446 4.117-.905 5.496-.612 2.65.563 1.81 3.94-.698 3.466z" stroke-width=".27168" />
      <path d="M257.257 137.252a2.675 2.675 0 01-.302-1.84c.173-.834.574-1.242.975-1.546M254.922 136.145c-.149-.356-.152-.962-.093-1.226.064-.287.373-.801.573-1.006" style="marker:none" color="#000" stroke-linecap="round" stroke-linejoin="round" overflow="visible" stroke-width=".27168" />
   </g>
   <path d="M273.493 468.768l-1.202.32.74 12.023c.093 17.745.563 36.572 4.168 49.572l5.23-8.442 10.056 8.597c-3.039-31.149-9.332-22.25-18.992-62.07z" fill="#04a" fill-rule="evenodd" stroke="#000" stroke-width=".432" />
   <path d="M278.555 538.09l5.852-8.286 7.865 6.627" fill="none" stroke="#c13c1b" stroke-width=".432" stroke-linecap="round" stroke-linejoin="round" />
   <path d="M279.522 545.286l5.723-8.032 7.637 6.376M280.598 552.826l5.476-7.764 7.417 6.203M281.7 560.865l5.412-7.637 7.149 5.956M282.668 568.279l5.264-7.54 7.105 5.922M283.749 576.076l5.022-7.232 6.894 5.827M284.939 583.748l4.889-7.018 6.718 5.69M285.936 591.078l4.72-6.758 6.455 5.482M286.855 597.982l4.621-6.588 6.235 5.31M287.572 605.316l4.803-6.42 6.04 5.014M288.46 612.58l4.893-6.225 5.835 4.959M289.403 619.976l4.57-5.734 6.158 4.535M290.425 627.248l4.596-5.635 5.744 4.136M293.06 646.122l4.43-5.172 5.417 3.503M292.185 640.272l4.364-5.557 5.668 3.904M291.4 633.64l4.44-5.17 5.554 3.733M293.944 652.687l4.472-5.273 5.312 3.974M294.82 658.85l4.198-5.017 5.495 3.504M296.335 671.079l4.43-5.018 5.727 3.504M295.692 664.865l4.155-4.752 5.619 3.595M296.669 673.328l10.15-1.533" fill="none" stroke="#c13c1b" stroke-width=".432" stroke-linecap="round" stroke-linejoin="round" />
   <g fill-rule="evenodd" stroke="#000" stroke-linecap="round" stroke-linejoin="round">
      <path d="M288.276 464.29c2.696-.88 4.905-.544 7.032 0l-1.24-33.732 16.063 1.072c-.491-2.415-.658-4.831 0-7.247l-16.063 1.126h0c3.364-6.013 8.081-11.345 9.778-20.138 3.428-17.772-5.634-17.025-11.92-17.082-6.844-.062-16.947 1.008-12.744 17.839 1.933 7.742 6.647 13.83 10.45 19.381h0l-18.053-1.126c.606 2.416.548 4.832 0 7.247l18.052-1.072h0l-1.355 33.732z" fill="#025" stroke-width=".21417" />
      <path d="M289.631 420.543c-3.47-4.71-6.798-9.313-7.636-15.389-1.695-12.282 4.682-13.654 9.841-13.685 4.587-.027 11.367.623 8.332 13.577-1.424 6.078-3.639 11.545-6.1 15.497-1.541 2.086-3.196 1.745-4.437 0z" fill="#fff" stroke-width=".21417" />
   </g>
   <path d="M303.69 368.03l-19.85-.54c-.994 4.965-3.447 10.222-5.842 15.468-3.166 5.026-3.372 11.44-2.488 17.525l-.324 5.733c8.915 1.067.301-10.832 5.95-15.253l.865 8.222c1.616 1.538 3.21 2.756 4.543.324 1.586 1.777 3.173 1.649 4.76-.324 1.94 2.508 3.523.742 5.192 0 1.778 1.39 3.661 1.885 4.868-1.299.35-8.683 2.948-17.116 2.326-29.856z" fill="#a13c2a" fill-rule="evenodd" stroke="#000" stroke-width=".432" stroke-linecap="round" stroke-linejoin="round" />
   <g fill-rule="evenodd" stroke="#000" stroke-linecap="round" stroke-linejoin="round">
      <path d="M283.67 356.294l20.823.162-.866 13.143-19.85-.757-.108-12.548z" fill="#fac53a" stroke-width=".21417" />
      <path d="M283.67 358.187l20.66.27-.212 4.061-20.395-.32-.054-4.011z" fill="#04a" stroke-width=".21417" />
      <path d="M283.45 356.24l20.879.216-.592 13.089-20.233-.703-.053-12.603z" fill="#fac53a" stroke-width=".21417" />
      <path d="M283.476 358.187l20.855.27-.252 4.061-20.549-.32-.054-4.011zM283.515 363.426l20.491.31-.213 4.06-20.224-.36-.054-4.01z" fill="#04a" stroke-width=".21417" />
   </g>
   <path d="M72.185 344.175c-10.26 1.61-22.705 5.432-31.006 18.986l-5.114 3.167c2.705 5.952 8.038 2.536 9.736-.572-1.007 2.748-.476 4.504 2.77 4.51-.687 2.563.217 4.048 3.228 4.104-1.604 2.526.297 4.752 3.075 4.24-.977 3.233.756 4.605 2.473 4.637 4.58 1.97 25.028-23.414 27.065-25.628" fill="#a13c2a" fill-rule="evenodd" stroke="#000" stroke-width=".432" stroke-linecap="round" stroke-linejoin="round" />
   <path d="M45.786 152.451c.717-7.123-.404-13.377 2.521-22.038 3.57-10.57 7.136-12.402 11.293-17.956 1.575-1.287 4.167.058 3.317 2.504-4.822 4.491-8.263 10.623-9.669 14.123 1.447-.164 8.412-.698 8.568 6.52l-.024 492.832c7.755 8.9 1.09 15.739 1.506 23.47-.793.383-1.422.138-1.502-.535-1.038-8.461 1.847-12.15-.052-16.55-.908-2.104-2.607-2.006-3.598-.215-2.133 3.858.856 6.23.076 16.682-.057.761-.989.98-1.369.524-.485-7.767-5.855-14.315 1.253-23.384l-.009-492.235c-.4-4.027-4.756-4.459-6.92.091-2.536 5.334-1.461 10.863-2.14 16.293-1.127 3.497-3.442 2.15-3.25-.126z" fill="#025" fill-rule="evenodd" stroke="#000" stroke-width=".214" stroke-linecap="round" stroke-linejoin="round" />
   <g fill-rule="evenodd" stroke="#000" stroke-linecap="round" stroke-linejoin="round">
      <path d="M72.552 331.002l21.398 12.625-9.246 13.955-17.57-12.765 5.418-13.815z" fill="#fac53a" stroke-width=".28617" />
      <path d="M71.864 332.743l20.882 13.027-2.71 3.973-19.673-13.04 1.501-3.96zM69.53 338.844l18.928 13.078-2.929 4.355-17.718-13.09 1.72-4.343z" fill="#04a" stroke-width=".28617" />
   </g>
   <path d="M58.719 354.986c3.666-2.82 8.043-2.395 4.592 1.786 2.973-2.831 9.083-2.347 3.017 3.458 5.533-3.328 5.841 1.141 3.005 3.662 3.732-2.291 4.734 1.308.93 4.97-3.792 4.721-8.236 9.547-12.523 14.238-.08.084-.187.137-.356.12-1.717-.032-3.424-1.24-2.446-4.473-2.779.512-4.68-1.714-3.076-4.24-3.011-.056-3.915-1.54-3.228-4.103-3.246-.006-4.095-1.275-3.088-4.024a2.86 2.86 0 01.391-.54c4.58-4.956 8.792-8.516 12.665-10.785m.833-.509c-.292 1.227.936 2.9 3.009 2.932m.84-.53c-.83 1.44 1.604 3.407 2.925 3.33m.34-.199c-1.223 1.513.571 4.713 3.195 3.37m-.457.507c-.707 1.605.586 3.26 2.027 3.608m-19.438 6.94c.534-.377 14.484-14.255 14.484-14.255M48.77 370.322c.763-.773 14.598-13.572 14.598-13.572m-8.365 21.97l14.433-14.907" fill="#a13c2a" fill-rule="evenodd" stroke="#000" stroke-width=".432" stroke-linecap="round" stroke-linejoin="round" />
   <path d="M63.285 356.947c-.243.168-.283.502-.841.531-2.527.006-3.126-2.491-3.03-2.938 3.465-2.255 7.165-1.603 3.937 2.306 2.974-2.83 9.043-2.42 2.977 3.384 5.533-3.328 5.911 1.028 3.075 3.548 3.317-2.036 4.407.694 1.932 3.829-1.462-.39-2.755-2.046-1.911-3.81-2.487 1.183-4.098-2.205-3.045-3.619-1.491.177-3.926-1.79-3.094-3.23z" fill="#fff" fill-rule="evenodd" stroke="#000" stroke-width=".432" stroke-linecap="round" stroke-linejoin="round" />
   <path d="M64.152 353.534c-2.427-.893-5.609.893-12.635 6.77l-1.296-7.426c7.361-5.004 10.655-6.423 17.04-7.775" fill="#a13c2a" fill-rule="evenodd" />
   <path d="M51.517 360.304c7.026-5.877 10.31-7.673 12.736-6.78m2.94-8.378c-6.385 1.351-9.749 2.626-17.09 7.846" fill="none" stroke="#000" stroke-width=".432" />
   <g>
      <path d="M4025.317 656.303l33.517-.045-.218 55.187-31.768.818-1.531-55.96z" fill="#fac53a" fill-rule="evenodd" stroke="#000" transform="matrix(.2675 0 0 .21617 -771.972 43.05)" />
      <path d="M4026.335 661.639l27.84.463M4026.705 670.056l26.968.182M4026.818 678.605l26.602.463M4027.407 687.812l26.667.463M4027.967 696.844l26.528.26M4028.121 704.836l26.545-.079" fill="none" stroke="#c13c1b" stroke-width="2.972" stroke-linecap="round" stroke-linejoin="round" transform="matrix(.2675 0 0 .21617 -771.972 43.05)" />
      <path d="M4025.205 656.13l1.555 54.548" fill="none" stroke="#000" transform="matrix(.2675 0 0 .21617 -771.972 43.05)" />
   </g>
   <g fill-rule="evenodd" stroke="#000" stroke-linecap="round" stroke-linejoin="round">
      <path d="M-2298.264 185.199l129.779 8.359-8.488 77.742-132.395-13.063 11.104-73.038z" fill="#fac53a" transform="matrix(.26144 -.00426 .00494 .22537 711.371 138.192)" />
      <path d="M-2299.299 193.609l129.66 10.549-2.604 22.255-130.567-9.952 3.511-22.852zM-2304.076 224.65L-2173.32 236l-2.746 24.159-131.762-10.989 3.753-24.52z" fill="#04a" transform="matrix(.26144 -.00426 .00494 .22537 711.371 138.192)" />
   </g>
   <g fill-rule="evenodd" stroke="#000" stroke-linecap="round" stroke-linejoin="round">
      <path d="M-2301.611 184.81l110.51 7.598-12.757 77.185-100.902-10.518 3.149-74.266z" fill="#fac53a" transform="matrix(.25786 .0433 -.03608 .22252 727.424 672.131)" />
      <path d="M-2302.218 193.931l109.506 8.31-3.595 21.223-106.536-7.241.625-22.292zM-2303.251 224.49l104.788 11.037-4.15 23.206-101.819-9.488 1.18-24.755z" fill="#04a" transform="matrix(.25786 .0433 -.03608 .22252 727.424 672.131)" />
   </g>
   <g fill-rule="evenodd" stroke="#000" stroke-linecap="round" stroke-linejoin="round">
      <path d="M-2305.348 184.73l117.692 7.561-12.03 77.508-107.182-11.397 1.52-73.671z" fill="#fac53a" transform="matrix(.26105 -.01487 .01408 .22499 840.162 543.791)" />
      <path d="M-2305.446 193.202l116.011 9.648-3.645 22.187-112.856-8.782.49-23.053zM-2306.264 224.506l112.106 10.117-3.892 24.083-108.633-9.46.42-24.74z" fill="#04a" transform="matrix(.26105 -.01487 .01408 .22499 840.162 543.791)" />
   </g>
   <path d="M267.268 479.046c-90.46-15.205-106.955-83.399-100.208-171.31l82.405-14.567c7.818 13 12.425 30.564 6.55 40.069 7.66 48.434 12.312 97.665 11.253 145.808z" fill="#fac53a" fill-rule="evenodd" stroke="#000" stroke-width=".216" />
   <g>
      <path d="M249.201 293.024l-6.27-29.79-75.806 36.692-.231 7.61 82.307-14.512z" fill="#fac53a" fill-rule="evenodd" stroke="#000" stroke-linecap="round" stroke-linejoin="round" stroke-width=".21617" />
      <path d="M216.514 281.93l6.635-2.759 1.657 4.097-6.731 2.396-1.56-3.734z" fill="#04a" fill-rule="evenodd" stroke="#04a" stroke-width=".24989251999999998" />
      <path d="M225.8 278.069l6.035-2.533 1.939 4.725-6.181 2.108-1.792-4.3z" fill="#c13c1b" fill-rule="evenodd" stroke="#c13c1b" stroke-width=".24989251999999998" />
      <path d="M234.535 274.594l6.879-2.9 2.081 5.018-7.132 2.488-1.828-4.606z" fill="#04a" fill-rule="evenodd" stroke="#04a" stroke-width=".24989251999999998" />
      <path d="M242.929 263.125l.738 3.654-73.132 32.071-3.25.909 75.644-36.634z" fill="#fff" fill-rule="evenodd" stroke="#000" stroke-linecap="round" stroke-linejoin="round" stroke-width=".21617" />
      <path d="M179.792 296.87l6.053-2.42.858 2.324-6.116 2.251-.795-2.155z" fill="#04a" fill-rule="evenodd" stroke="#04a" stroke-width=".24989251999999998" />
      <path d="M188.848 293.27l6.42-2.696.993 2.742-6.47 2.318-.943-2.363z" fill="#c13c1b" fill-rule="evenodd" stroke="#c13c1b" stroke-width=".24989251999999998" />
      <path d="M197.898 289.634l6.517-2.809 1.372 3.232-6.835 2.363-1.054-2.786z" fill="#04a" fill-rule="evenodd" stroke="#04a" stroke-width=".24989251999999998" />
      <path d="M207.28 285.552l6.689-2.761 1.633 3.865-6.844 2.432-1.478-3.536z" fill="#308d57" fill-rule="evenodd" />
      <path d="M245.551 276.207l-66.938 23.581M244.343 270.363l-67.791 27.733M233.59 274.917l1.925 4.594M232.71 275.154l1.91 4.724M243.173 270.915l2.101 5.247M242.3 271.28l2.146 5.201M224.933 278.493l1.892 4.165M223.996 278.83l1.852 4.177M215.722 282.23l1.52 3.68M214.816 282.464l1.651 3.854M206.136 286.064l1.509 3.272M205.303 286.441l1.452 3.289M197.044 289.945l1.015 2.754M196.115 290.328l1.095 2.745M188.004 293.624l.79 2.435M186.99 293.983l.873 2.475M178.973 297.217l.787 2.052M178.172 297.452l.865 2.102" fill="none" stroke="#000" stroke-width=".24989251999999998" stroke-linecap="round" stroke-linejoin="round" />
      <path d="M236.943 285.164l7.162-2.107 1.504 5.22-7.367 1.669-1.299-4.782z" fill="#04a" fill-rule="evenodd" stroke="#04a" stroke-width=".24989251999999998" />
      <path d="M227.874 287.634l6.28-1.837 1.474 4.857-6.457 1.455-1.297-4.475z" fill="#c13c1b" fill-rule="evenodd" stroke="#c13c1b" stroke-width=".24989251999999998" />
      <path d="M218.212 290.426l6.902-1.995 1.187 4.258-6.959 1.623-1.13-3.886z" fill="#04a" fill-rule="evenodd" stroke="#04a" stroke-width=".24989251999999998" />
      <path d="M208.63 292.986l6.956-1.99 1.187 4.023-7.074 1.647-1.07-3.68z" fill="#308d57" fill-rule="evenodd" />
      <path d="M198.847 295.987l6.792-2.058 1 3.366-7.142 1.648-.65-2.956z" fill="#04a" fill-rule="evenodd" stroke="#04a" stroke-width=".24989251999999998" />
      <path d="M189.452 298.518l6.676-1.893.678 2.836-6.689 1.576-.665-2.519z" fill="#c13c1b" fill-rule="evenodd" stroke="#c13c1b" stroke-width=".24989251999999998" />
      <path d="M180.438 301.135l5.999-1.631.644 2.256-6.072 1.453-.571-2.078z" fill="#04a" fill-rule="evenodd" stroke="#04a" stroke-width=".24989251999999998" />
      <path d="M248.029 287.86l-69.486 16.047M246.805 282.207l-69.923 19.747M235.968 285.379l1.396 4.78M235.067 285.515l1.366 4.909M245.937 282.467l1.501 5.463M245.032 282.744l1.547 5.41M226.964 287.958l1.411 4.351M225.995 288.187l1.37 4.359M217.39 290.634l1.098 3.829M216.464 290.765l1.207 4.015M207.434 293.366l1.131 3.42M206.564 293.647l1.073 3.432M197.963 296.2l.699 2.85M196.997 296.476l.78 2.85M188.49 298.84l.663 2.428M187.518 299.08l.706 2.595M179.801 301.235l.596 2.204M179.155 301.418l.485 2.112" fill="none" stroke="#000" stroke-width=".24989251999999998" stroke-linecap="round" stroke-linejoin="round" />
      <path d="M179.36 300.168l66.636-22.16M179.53 300.66l66.887-20.475M178.684 304.471l69.612-15.229M177.65 305.215l71.203-13.826M173.187 298.234l70.672-30.35M174.994 298.132l69.147-28.99" fill="none" stroke="#000" stroke-width=".21617" />
      <path d="M166.858 307.576c7.907-1.79 13.709-.977 12.6-6.883-.808-4.308-8.228-2.253-12.328-.93l-.272 7.813z" fill="#fac53a" fill-rule="evenodd" stroke="#000" stroke-linecap="round" stroke-linejoin="round" stroke-width=".21617" />
   </g>
   <g>
      <path d="M150.227 478.874l16.979-170.265 88.627-.107c1.156 4.703 5.287 13.354.316 25.97 7.616 48.325 12.236 97.132 11.18 145.164l-117.102-.762z" fill="#fff" fill-rule="evenodd" stroke="#000" stroke-width=".43234" />
      <path d="M267.071 479.236c-90.452-15.254-106.91-83.457-100.116-171.364l82.412-14.522c7.81 13.003 12.545 31.471 6.665 40.972 7.634 48.439 12.124 96.77 11.04 144.914z" fill="#fac53a" fill-rule="evenodd" stroke="#000" stroke-width=".21617" />
      <path d="M249.184 293.426l-66.818 130.9M245.194 294.11l-64.67 126.693M178.818 417.014l62.394-122.234M237.198 295.511l-60.042 117.627M175.624 409.007l57.566-112.775M229.189 296.939l-55.035 107.816M172.79 400.295l52.41-102.674M221.224 298.278l-49.686 97.339M170.38 390.754l46.818-91.72M213.19 299.755l-43.821 85.847M168.41 380.348l40.766-79.863M205.2 301.143l-37.57 73.6M166.95 368.944l34.241-67.08M197.196 302.558l-30.788 60.318M165.995 356.552l27.194-53.275M189.2 303.959l-23.467 45.975M165.606 343.05l19.604-38.406M181.185 305.399l-15.55 30.462M165.813 328.38l11.395-22.324M173.181 306.814l-7.114 13.937M166.607 312.562l2.586-5.066M251.207 296.595l-66.94 131.14M186.252 430.977l66.72-130.708M254.614 304.184l-66.332 129.95M190.4 437.117l65.69-128.69M257.354 313.08l-64.75 126.85M194.856 442.65l63.473-124.348M258.637 324.83l-61.434 120.354M199.575 447.67l56.86-111.395M257.253 341.806l-55.226 108.19M204.474 452.336l53.56-104.93M258.86 352.92l-51.829 101.537M209.659 456.442l49.949-97.854M260.399 364.171l-48.083 94.197M215.043 460.158l46.006-90.13M261.778 375.732l-43.996 86.192M220.59 463.556l41.883-82.052M263.018 387.568l-39.61 77.599M226.303 466.626l37.444-73.355M264.222 399.472l-34.989 68.546M232.234 469.27l32.568-63.803M265.196 411.828l-29.975 58.722M238.24 471.77l27.424-53.728M266.113 424.295l-24.754 48.496M244.414 473.937l22.016-43.13M266.712 437.386l-19.11 37.44M250.813 475.665l16.198-31.734M267.18 450.735l-13.163 25.784M257.248 477.323l9.994-19.579M267.34 464.685l-6.787 13.295M263.87 478.613l3.356-6.575" fill="none" stroke="#c13c1b" stroke-width=".43234" />
      <path d="M267.037 479.236c-90.453-15.254-106.91-83.457-100.116-171.364l82.412-14.522c7.81 13.003 12.545 31.471 6.664 40.972 7.634 48.439 12.124 96.77 11.04 144.914z" fill="none" stroke="#000" stroke-width=".43234" />
   </g>
   <path style="marker:none" d="M170.269 291.165a.813 2.047-.507 11-1.627 0 .813 2.047-.507 111.627 0z" color="#000" fill-opacity=".706" fill-rule="evenodd" overflow="visible" />
   <path d="M122.464 96.378c-.312 1.326-.244 2.557-1.012 3.997l9.873.337c-.345-1.445-.266-2.89-.241-4.334h-8.62zM117.571 92.25l17.29-3.371 1.155 3.178-17.963 1.204-.482-1.011z" fill-rule="evenodd" stroke="#000" stroke-width=".191" />
   <path d="M186.225 37.046c-12.457 3.52-24.737 5.386-33.614 16.663-13.962 7.046-23.695 14.692-32.266 24.561l-5.202 6.164c-2.594 2.77.928 5.295 2.505 7.898 5.317-.858 12.21-.45 16.037-2.456 1.328-.946 1.96 1.317.674 1.397-2.82.043-11.756 1.818-16.47 1.637 3.16 7.066 14.58 2.497 17.866 3.468 10.696 2.855 21.627 4.664 29.184 4.334 4.176 7.085 7.341 16.148 12.425 28.606 2.564 6.282 14.283 18.575 18.878 12.425.184-1.943 13.574-.078 13.66-2.12.529-12.37-13.84-30.067-15.061-41.121 11.463-26.01 9.106-53.937-8.616-61.456zM82.187 16.524c-1.256 8.674 2.156 18.288 18.069 19.706 12.124 1.089 16.732-4.901 25.165-4.717-9.44-4.54-21.618 1.133-32.226-2.617-4.084-1.444-9.092-4.319-11.008-12.372zM141.683 23.23c15.12.55 13.543-6.221 30.3-6.232 7.895-.005 19.989 5.842 23 11.754l-1.882 1.786-3.514 3.334c-11.096-6.51-65.415-7.985-50.723-10.798 1.112.1 1.873.123 2.819.157z" fill="#308d57" fill-rule="evenodd" stroke="#000" stroke-width=".5" />
   <path d="M89.969 27.435c-2.302-1.554-2.278-1.097-.596.794 10.026 10.558 20.813-.037 32.233 2.343 8.666 1.807 17.21 3.745 26.55 3.759 11.159.017 34.31-8.575 32.058 3.347-.026.136-.191.921-.223 1.062 10.244-2.368 10.508-3.478 9.988-5.042-1.448-3.792-6.074-7.153-10.48-8.448-8.146-2.394-18.228.808-28.483.044-12.294-.916-13.249-4.395-29.99-3.633-13.054.594-17.194 11.958-31.057 5.774z" fill="#16502d" fill-rule="evenodd" stroke="#000" stroke-width=".5" />
   <path d="M303.556 11.669c1.91 8.554-.763 18.4-16.523 21.018-12.007 2.005-17.056-3.618-25.45-2.796 9.068-5.241 21.642-.508 31.934-5.051 3.963-1.75 8.739-4.995 10.04-13.171zM247.538 22.495c-18.476 3.086-15.68-4.89-33.484-3.549-6.209.468-14.746 4.763-19.33 9.562-1.229 1.285-3.153 3.735-8.804 8.63 2.867 1.901 4.753 4.196 5.848 6.807 15.697-24.683 49.094-13.35 55.77-21.45z" fill="#308d57" fill-rule="evenodd" stroke="#000" stroke-width=".5" />
   <path d="M296.624 23.139c2.177-1.725 2.188-1.267.654.746-9.198 11.287-20.756 1.54-31.963 4.779-8.504 2.458-16.876 5.038-26.188 5.76-8.36.648-21.467-1.628-27.311 1.47-2.023 1.071-8.502 4.19-15.34 15.074-1.327-3.839-2.259-5.398-4.902-7.039 1.156-3.89 10.52-13.985 16.499-16.151 7.982-2.892 17.349-.61 27.517-2.149 12.19-1.844 12.878-5.386 29.628-5.895 13.062-.396 18.05 10.622 31.406 3.405z" fill="#16502d" fill-rule="evenodd" stroke="#000" stroke-width=".5" />
   <path d="M198.072 51.686l-9.728 7.995c-9.461 2.757-14.088 11.914-19.51 14.61-2.5 1.243-2.275 2.712.186 1.632 7.41-3.252 14.416.168 22.6-10.752l7.416-4.43M188.679 59.741l2.963 5.155M190.12 58.475l3.1 5.207M191.852 56.989l3.352 5.72" fill="none" stroke="#000" stroke-width=".572" stroke-linecap="round" stroke-linejoin="round" />
   <g fill-rule="evenodd" stroke="#000" stroke-linecap="round" stroke-linejoin="round">
      <path d="M159.692 58.527c.162-.048 2.575-1.88 2.8-2.126.997-1.09 2.499-3.799 3.468-5.367 2.994-.65 5.841-1.579 9.576-.832 2.394 3.268 2.018 5.608-1.127 7.022-4.92 1.77-9.126-.627-11.29.044-.24.075-2.905 1.52-3.087 1.691-.52.245-.552-.148-.34-.432z" fill="#fff" stroke-width="1.0792557" />
      <path d="M173.924 50.537c-2.272-.837-5.13-.266-7.042.825-2.155 8.342 9.855 7.565 7.042-.825z" fill="#c13c1b" stroke-width=".64755342" />
      <path d="M171.71 52.838c.312.593-.16 1.325-.809 1.668-.649.342-1.431.096-1.744-.496-.313-.593-.025-1.197.624-1.54.65-.342 1.616-.224 1.929.368z" style="marker:none" color="#000" stroke-width=".053428500000000004" overflow="visible" />
   </g>
   <path d="M117.991 84.337c-1.087.982-.576 2.043.647 1.72 2.763-.732 1.782-3.914-.647-1.72z" fill-rule="evenodd" stroke="#000" stroke-width=".191" stroke-linecap="round" stroke-linejoin="round" />
   <path d="M121.312 77.51c.404.086.802.342.919.715M123.198 75.517c1.112.188 1.716.73 2.163 1.498M124.972 73.662c1.324.24 2.46.899 3.116 1.84" fill="none" stroke="#000" stroke-width=".572" stroke-linecap="round" stroke-linejoin="round" />
   <path d="M179.91 134.974l4.2 5.532c4.753 3.447 13.809 6.088 20.951 4.533l-3.736-15-.053-1.16c-1.494-.401-4.914.355-6.25 1.757-2.944-.116-5.055.032-7.564 1.843-2.474-.763-6.91 1.071-7.548 2.495z" fill="#a13c2a" fill-rule="evenodd" stroke="#000" stroke-width=".216" />
   <path d="M226.336 126.848l39.925 7.195c45.256 13.667 38.112 43.494 38.562 55.35l.393 7.642 8.647-.174-.196-36.393-.237-2.147c-4.126-21.699-8.519-46.447-22.453-64.388-17.324-23.399-43.77-54.21-85.145-53.97-2.53 2.38-6.542 5.505-9.585 11.359 6.451 16.297 1.3 36.097-1.807 47.408 5.063 20.006 5.979 26.179 8.062 61.388.493 21.767.639 35.601.639 35.601h25.545c.158-11.815.057-20.042.082-34.683-.885-12.038-.674-24.858-2.432-34.188z" fill="#025" fill-rule="evenodd" stroke="#000" stroke-width=".23" stroke-linecap="round" stroke-linejoin="round" />
   <path style="marker:none" d="M172.924 118.367c-15.479 11.338-13.55 24.57-14.986 37.638-.045.41-.09 40.25-.137 40.66l24.293-.368-.016-40.293c-.023-6.248 1.988-10.45 4.099-14.079-6.185-6.338-9.547-15.095-13.253-23.558z" color="#000" fill="#025" fill-rule="evenodd" stroke="#000" stroke-width=".214" stroke-linecap="round" stroke-linejoin="round" overflow="visible" />
   <g>
      <path d="M210.945-175.397h26.425v12.196h-26.425v-12.196z" fill="#fac53a" fill-rule="evenodd" stroke="#000" stroke-width=".224" transform="matrix(.97491 0 0 .96682 -2.682 354.335)" />
      <path d="M212.585-174.204l22.881.104M212.575-172.066l22.88.104M212.65-170.091l22.88.104M212.639-168.192l22.881.103M212.79-166.22l22.875-.054M212.706-164.24l22.95-.215" fill="none" stroke="#c13c1b" stroke-width=".665" stroke-linecap="round" stroke-linejoin="round" transform="matrix(.97491 0 0 .96682 -2.682 354.335)" />
   </g>
   <g>
      <path d="M151.83-196.826h25.973v12.197H151.83v-12.197z" fill="#fac53a" fill-rule="evenodd" stroke="#000" stroke-width=".224" transform="matrix(.93386 0 0 .96682 16.04 375.168)" />
      <path d="M153.196-195.633l22.881.104M153.186-193.814l22.881.104M153.18-191.84l22.882.105M153.25-189.78l22.881.103M153.4-187.648l22.877-.055M153.317-185.748l22.95-.216" fill="none" stroke="#c13c1b" stroke-width=".665" stroke-linecap="round" stroke-linejoin="round" transform="matrix(.93386 0 0 .96682 16.04 375.168)" />
   </g>
</svg>