<svg width="530" height="600" xmlns="http://www.w3.org/2000/svg">
    <path d="M14.18 597.42c-2.35-2.35-2.57-4.26-2.54-22.21.07-26.25 2.12-37.17 9.68-51.64 4.1-7.84 5.73-12.35 5.23-14.36-.41-1.62-5.65-10.3-11.63-19.27-9.08-13.61-11.26-17.9-13.14-25.88-2.14-9.09-2.14-10-.01-18.89 2.87-11.93 6.6-17.07 22.27-30.67 13.2-11.44 18.51-17.8 18.51-22.14 0-1.39-3.4-9.27-7.55-17.51-12.91-25.58-13.84-31.09-7.87-47 2.19-5.85 5.69-10.39 17.89-23.23 14.56-15.31 19.46-22.2 19.46-27.35 0-1.31-1.5-7.89-3.33-14.61-3-11.07-3.17-12.9-1.78-19.31 2.08-9.52 5.49-15.9 11.97-22.37 7.33-7.31 12.69-9.56 29.36-12.36 15.06-2.53 23.35-6.36 25-11.56.53-1.65-.83-6.3-3.76-12.76-2.53-5.59-4.94-11.92-5.38-14.07-1.04-5.26 2.43-15.29 7.36-21.26 6.53-7.92 9.88-8.99 30.91-9.93 16.38-.73 19.48-1.23 24.16-3.86 6.52-3.66 10.31-9.01 15.79-22.33 5.39-13.12 10.18-17.85 21.78-21.59l9.04-2.91 12.18 3.44c6.69 1.89 19.96 7.15 29.48 11.68 25.68 12.24 26.15 12.29 51.6 4.59 9.39-2.83 21.28-5.8 26.43-6.61l9.37-1.48-3.11-3.31c-10.35-11.01-19.82-31.36-24.1-51.81-2.65-12.66-2.76-14.53-1.2-23.61 2.08-12.09 5.41-17.4 12.45-19.85 8.02-2.79 11.69-.59 32.04 19.24 12.36 12.04 20.74 19.08 26.55 22.3 12.41 6.86 35.4 13.94 67.34 20.74 34.27 7.3 42.67 9.81 50.71 15.21 10.65 7.14 14.65 15.48 14.65 30.56 0 15.83-4.09 23.26-15.85 28.78-7.76 3.64-27.09 8.48-49.33 12.33-38.64 6.7-49.04 11.99-94.52 48.18-22.55 17.94-31.39 21.31-38.14 14.57-3.06-3.06-5.9-12.93-5.9-20.55 0-5.63 3.27-22.2 5.9-29.95 4.82-14.2 12.88-28.69 22.68-40.78 1.56-1.94 2.45-3.91 1.97-4.39-.47-.49-5.38.4-10.87 1.95-5.5 1.55-19.29 5.2-30.64 8.08l-20.63 5.25-11.41-2.74c-7.15-1.71-18.62-6.17-30.62-11.86-10.55-5.01-21.53-9.42-24.39-9.81-4.8-.64-5.61-.28-10.1 4.43-2.94 3.09-6.64 9.36-9.27 15.71-2.4 5.82-6.27 12.8-8.59 15.5-6.42 7.48-12.37 9.31-33.4 10.24-16.4.72-18.61 1.09-22.74 3.92-2.51 1.72-5.42 4.54-6.46 6.25-1.74 2.86-1.54 3.89 2.4 12.95 5.91 13.56 6.46 18.49 3.1 27.48-4.71 12.57-10.68 16.2-31.57 19.2-11.86 1.7-20.22 5.44-25.98 11.65-9.55 10.26-9.81 11.9-4.96 31.02 3.47 13.63 3.43 14.7-.9 26.26-2.14 5.71-5.67 10.29-17.4 22.57-14.23 14.91-19.82 22.77-19.82 27.87 0 1.35 3.4 9.34 7.54 17.75 13.43 27.28 14.15 32.46 6.7 47.6-3.3 6.68-6.41 10.22-17.07 19.48-25.51 22.14-25.87 23.74-10.69 46.29 11.75 17.45 15.15 25.85 15.33 37.91.12 7.77-.44 9.64-6.54 21.88-8.83 17.76-9.51 20.55-10.38 42.22-.62 15.72-1.09 18.9-3.12 20.93-3.11 3.1-6.91 3.03-10.14-.19m6.99-8.04c.34-1.6.88-10.43 1.23-19.64.71-19.16 2.18-24.91 10.44-40.93 3.43-6.66 5.85-13.05 5.85-15.54 0-8.18-3.9-17.12-14.02-32.19-11.93-17.78-14.16-23.87-11.79-32.32 2.03-7.21 7.13-13.18 22.49-26.3 10-8.54 12.87-11.86 16.29-18.76 5.32-10.82 4.95-13.04-5.95-35.6-4.69-9.71-8.84-19.96-9.22-22.79-1.17-8.73 3.7-16.95 20.55-34.6 12.16-12.73 15.41-16.97 17.7-23.08l2.81-7.51L75 269.78c-5.44-22.09-4.9-27.36 3.82-37.25 7.21-8.17 13.49-11.08 29.86-13.85 7.65-1.29 15.55-3.2 17.58-4.24 5.12-2.65 10.08-8.89 11.91-15.01 1.44-4.79 1.24-5.92-2.7-15.07-7.35-17.09-6.57-24.32 3.4-31.13 4.27-2.92 6.32-3.28 22.85-4 21.03-.93 26.98-2.76 33.4-10.24 2.32-2.7 6.19-9.68 8.59-15.5 4.82-11.64 11.46-19.75 17.43-21.25 6.36-1.59 17.01 1.6 36.88 11.04 10.45 4.96 22.97 9.95 27.82 11.08 8.79 2.08 8.86 2.08 24.94-1.9 8.87-2.2 20.97-5.45 26.9-7.22 5.93-1.77 12.18-3.22 13.9-3.22 3.29 0 5.48-3.23 3.52-5.19-1.47-1.47-13.59 1.07-32.72 6.87-27.63 8.39-32.94 7.95-60.11-5-9.3-4.43-21.19-9.33-26.41-10.88-9.17-2.73-9.73-2.75-16.32-.67-9.22 2.89-14.54 8.57-19.6 20.85-5.48 13.32-9.27 18.67-15.79 22.33-4.69 2.63-7.78 3.13-24.16 3.86-13.7.61-19.89 1.42-22.86 2.98-5.31 2.78-11.75 10.63-13.53 16.49-1.26 4.2-.93 5.69 3.35 15.17 5.91 13.05 6.76 17.86 4.11 22.99-3.24 6.25-9.75 9.35-25.03 11.94-7.61 1.29-15.27 2.91-17.05 3.6-9.82 3.85-20.52 15.98-23.34 26.44-1.15 4.3-.84 7.26 1.96 18.38 1.83 7.3 3.32 14.75 3.32 16.55 0 6.67-5.75 15.28-20.73 31.03-12.3 12.95-15.71 17.37-17.96 23.38-3.87 10.25-2.98 14.58 7.13 34.95 9.47 19.05 10.67 23.4 8.39 30.3-2.06 6.24-5.87 10.55-19.52 22.11C15 431.72 9.63 438.82 7.52 447.95c-2.49 10.79-.09 17.86 12.48 36.72 9.92 14.89 13.5 22.28 13.52 27.96.01 1.14-2.93 7.86-6.52 14.92-4.61 9.08-7.04 15.78-8.33 23-1.84 10.3-2.56 35.94-1.12 39.69 1.12 2.94 2.94 2.5 3.62-.86m325.17-384.5c2.18-1.33 12.05-8.9 21.93-16.82 23.8-19.08 42.32-31.29 54.72-36.06 5.57-2.14 17.86-5.39 27.3-7.19 46.75-8.95 56.16-11.56 63.63-17.7 11.94-9.84 11.01-27.52-2.01-38.66-7.7-6.57-15.57-9.21-48.97-16.45-60.76-13.17-75.11-19.4-96.87-42.09-12.01-12.52-21.3-20.9-23.13-20.9-2.86 0-6.25 5.46-7.7 12.43-4.16 20.03 7.36 50.91 27.43 73.45 11.21 12.61 11.03 19.86-.85 34.33-13.3 16.2-21.99 33.9-25.24 51.48-2.02 10.88-1.02 22.67 2.1 24.96 2.87 2.09 2.94 2.09 7.66-.78" />
    <path fill="#e40f0f" d="M338.68 205.66c-3.12-2.29-4.12-14.08-2.1-24.96 3.25-17.58 11.94-35.28 25.24-51.48 11.88-14.47 12.06-21.72.85-34.33-22.76-25.57-33.79-60.31-25.48-80.21 3.69-8.83 7.93-6.58 28.88 15.23C387.83 52.6 402.18 58.83 462.94 72c33.4 7.24 41.27 9.88 48.97 16.45 13.02 11.14 13.95 28.82 2.01 38.66-7.47 6.14-16.88 8.75-63.63 17.7-9.44 1.8-21.73 5.05-27.3 7.19-12.4 4.77-30.92 16.98-54.72 36.06-16.55 13.26-24.79 19.22-26.62 19.24-.4 0-1.73-.74-2.97-1.64" />
    <path fill="#f1cba1" d="M17.55 590.24c-1.44-3.75-.72-29.39 1.12-39.69 1.29-7.22 3.72-13.92 8.33-23 3.59-7.06 6.53-13.78 6.52-14.92-.02-5.68-3.6-13.07-13.52-27.96-12.57-18.86-14.97-25.93-12.48-36.72 2.11-9.13 7.48-16.23 20.71-27.45 13.65-11.56 17.46-15.87 19.52-22.11 2.28-6.9 1.08-11.25-8.39-30.3-10.11-20.37-11-24.7-7.13-34.95 2.25-6.01 5.66-10.43 17.96-23.38 14.98-15.75 20.73-24.36 20.73-31.03 0-1.8-1.49-9.25-3.32-16.55-2.8-11.12-3.11-14.08-1.96-18.38 2.82-10.46 13.52-22.59 23.34-26.44 1.78-.69 9.44-2.31 17.05-3.6 15.28-2.59 21.79-5.69 25.03-11.94 2.65-5.13 1.8-9.94-4.11-22.99-4.28-9.48-4.61-10.97-3.35-15.17 1.78-5.86 8.22-13.71 13.53-16.49 2.97-1.56 9.16-2.37 22.86-2.98 16.38-.73 19.47-1.23 24.16-3.86 6.52-3.66 10.31-9.01 15.79-22.33 5.16-12.55 10.46-18.1 19.87-20.83 6.68-1.94 7.47-1.9 16.28.72 5.09 1.51 16.88 6.38 26.18 10.81 27.17 12.95 32.48 13.39 60.11 5 19.13-5.8 31.25-8.34 32.72-6.87 1.96 1.96-.23 5.19-3.52 5.19-1.72 0-7.97 1.45-13.9 3.22-5.93 1.77-18.03 5.02-26.9 7.22-16.08 3.98-16.15 3.98-24.94 1.9-4.85-1.13-17.37-6.12-27.82-11.08-19.87-9.44-30.52-12.63-36.88-11.04-5.97 1.5-12.61 9.61-17.43 21.25-2.4 5.82-6.27 12.8-8.59 15.5-6.42 7.48-12.37 9.31-33.4 10.24-16.53.72-18.58 1.08-22.85 4-9.97 6.81-10.75 14.04-3.4 31.13 3.94 9.15 4.14 10.28 2.7 15.07-1.83 6.12-6.79 12.36-11.91 15.01-2.03 1.04-9.93 2.95-17.58 4.24-16.37 2.77-22.65 5.68-29.86 13.85-8.72 9.89-9.26 15.16-3.82 37.25l2.55 10.34-2.81 7.51c-2.29 6.11-5.54 10.35-17.7 23.08-16.85 17.65-21.72 25.87-20.55 34.6.38 2.83 4.53 13.08 9.22 22.79 10.9 22.56 11.27 24.78 5.95 35.6-3.42 6.9-6.29 10.22-16.29 18.76-15.36 13.12-20.46 19.09-22.49 26.3-2.37 8.45-.14 14.54 11.79 32.32 10.12 15.07 14.02 24.01 14.02 32.19 0 2.49-2.42 8.88-5.85 15.54-8.26 16.02-9.73 21.77-10.44 40.93-.35 9.21-.89 18.04-1.23 19.64-.68 3.36-2.5 3.8-3.62.86" />
</svg>