<svg xmlns="http://www.w3.org/2000/svg" width="350" height="675" version="1.0">
   <defs>
      <linearGradient id="prefix__a">
         <stop offset="0" stop-color="#c13c1b" />
         <stop offset=".839" stop-color="#c13c1b" stop-opacity=".498" />
         <stop offset="1" stop-color="#c13c1b" stop-opacity="0" />
      </linearGradient>
   </defs>
   <path d="M168.924 41.902c-.179.13-.943 1.245-4.439 3.275-22.898 12.742-58.944 35.095-59.431 69.177l4.753-.839c7.097-34.192 43.46-51.505 62.255-55.184.315-.062 1.787-.566 2.092-.62" fill-rule="evenodd" stroke="#000" stroke-width=".5" stroke-linecap="round" stroke-linejoin="round" />
   <path d="M268.534 448.463l-.307 12.343c.092 17.745.562 36.572 4.167 49.573l19.3 143.75 11.118-1.236c-8.34-48.113-10.088-94.907-15.132-142.36-3.039-31.149-9.486-22.25-19.146-62.07z" fill="#fac53a" fill-rule="evenodd" stroke="#c13c1b" stroke-width=".432" />
   <path d="M299.794 171.427H269.66M300.34 180.49l-30.243.436" fill="none" stroke="#000" stroke-width=".216" />
   <path d="M218.405 110.548l39.73.702c19.383 6.146 34.85 13.406 40.868 34.502 2.173 12.131.179 16.431.927 25.631l.618 9.573c1.33 20.65 1.875 41.458.308 62.688-1.256 18.426 2.698 38.086 3.088 56.512-.627 15.45-4.375 26.908-5.095 40.415l-19.3-1.506c-8.861-49.928-3.742-66.267-5.868-89.245-3.219-28.031-3.23-55.26-4.323-82.76-11.899 21.466-24.347 42.2-31.19 70.408v4.67l6.485 29.916c3.48 4.882 13.454 27.039 6.212 39.671 8.264 48.38 12.169 97.852 11.7 146.231l.617 15.75c1.313 21.451 9.939 42.913 9.573 66.393-.366 23.48-4.595 46.46-7.72 68.864-1.184 25.837 2.384 30.425 1.49 39.849-.893 9.423-6.162 8.991-11.532 8.93-5.474-.06-10.785-.987-10.974-4.594-5.652-1.587-13.63 4.933-72.263 2.662-2.538-.344-2.727-4.075-2.96-6.724 2.614-.714 5.324-1.043 8.229-.596 19.497-9.53 38.654-13.62 58.673-31.498.948-.982 1.746-2.3 1.544-5.867-2.524-35.346-10.217-72.04-13.279-107.465l-.926-5.559c-2.707-6.918-5.105-15.692-8.338-19.455-1.312-7.205-1.854-14.41-6.485-21.616l-14.932-.309c-6.778 19.142-7.696 26.922-11.734 39.836-3.147 18.89-.326 26.913-4.832 41.998-4.544 15.21-14.255 34.955-21.926 49.718-4.701 12.668-11.177 26.046-13.33 37.752-.617 7.54.636 13.363-.258 22.787-.894 9.423-6.162 8.991-11.533 8.93-5.473-.06-10.785-.987-10.974-4.594-5.652-1.587-13.63 4.933-72.263 2.662-2.538-.344-2.726-4.075-2.96-6.724 2.614-.714 5.325-1.043 8.229-.596 19.497-9.53 43.904-14.855 63.897-32.733 1.93-2.157 2.544-4.532 3.28-6.888l22.634-109.224c.028-11.064-1.372-21.58 3.705-34.586l.31-8.647 18.672-170.84-2.074-7.226c-2.65-6.113-.76-12.588-.85-18.335-2.217-17.228-5.72-34.134-9.573-50.953-2.438-5.674-4.692-12.495-6.507-19.662-1.79-.695-2.317-2.68-1.083-4.556-1.216-5.467-2.154-11.034-2.705-16.362l-.822-.183-1.224 11.04c-.476 2.675-.395 5.31-.856 7.94-3.446 19.672-7.004 39.094-18.982 73.803l-3.978 8.723c-9.02 26.127-22.207 46.391-35.88 65.973l-17.032-12.27c9.843-24.334 16.772-49.597 31.629-72.329l2.653-6.441c1.047-18.875 3.392-45.471 8.432-66.334l1.971-15.64c-5.587-25.869 6.44-43.129 29.365-46.96l37.864-7.363" fill="#a13c2a" fill-rule="evenodd" stroke="#000" stroke-width=".432" stroke-linecap="round" stroke-linejoin="round" />
   <g fill-rule="evenodd" stroke="#000" stroke-linecap="round" stroke-linejoin="round">
      <path d="M-2306.297 184.523l126.243 8.061-.277 76.804-129.037-11.151 3.07-73.714z" fill="#fac53a" transform="matrix(.23889 -.01891 .0161 .22474 817.379 84.128)" />
      <path d="M-2306.69 192.987l126.446 10.278-.033 22.472-127.353-9.681.94-23.07zM-2307.61 224.353l127.059 11.038.146 24.403-128.228-10.692 1.023-24.749z" fill="#04a" transform="matrix(.23889 -.01891 .0161 .22474 817.379 84.128)" />
   </g>
   <path d="M271.145 458.765c-.448-2.635-1.629-5.47-2.01-8.516-4.272-34.2-4.915-92.64-15.083-137.459 2.938-8.147 1.789-17.401-.398-25.109-2.16-7.611-5.23-13.556-6.803-15.793-1.137-5.324-4.49-21.112-5.654-32.29a1.08 1.08 0 00-1.094-.986h0a1.08 1.08 0 00-1.054 1.209c1.195 11.483 4.618 27.496 5.728 32.695.034.149.098.29.19.412 1.148 1.568 4.46 7.781 6.606 15.34 2.145 7.56 3.184 16.556.351 24.096a1.08 1.08 0 00-.04.615c8.551 37.496 10.411 84.89 13.397 119.58.87 10.114 2.724 19.264 3.092 26.543" fill="#fac53a" fill-rule="evenodd" stroke="#000" stroke-width=".216" stroke-linecap="round" stroke-linejoin="round" />
   <path d="M145.317 457.431L162.15 286.34l88.382-.891c1.158 4.701 6.011 14.323.463 26.557 7.642 48.321 12.4 97.275 11.37 145.307l-117.048.12z" fill="#fff" fill-rule="evenodd" stroke="#000" stroke-width=".432" />
   <path d="M262.358 457.65c-90.46-15.206-106.955-83.4-100.208-171.311l82.404-14.566c7.818 13 12.344 30.673 6.468 40.177 7.66 48.435 12.394 97.556 11.336 145.7z" fill="#fac53a" fill-rule="evenodd" stroke="#000" stroke-width=".216" />
   <path d="M141.726 114.718l32.876-6.574 46.534-3.711 35.83 7.407c-6.734 33.984-29.78 46.136-56.48 46.728-25.29.559-37.1-5.936-45.357-14.705-7.849-8.335-12.018-21.411-13.403-29.145z" fill="#fff" fill-rule="evenodd" stroke="#000" stroke-linecap="round" stroke-linejoin="round" stroke-width=".27168" />
   <path d="M155.46 111.97c4.956 24.507 19.252 33.587 45.6 32.55 26.412-1.04 39.558-17.993 41.169-34.45-.008-.222-.016-.547.115-1.128" style="marker:none" color="#000" fill="none" stroke="#04a" stroke-width="4.841337599999999" stroke-linejoin="round" overflow="visible" />
   <path d="M167.996 109.623c4.821 18.647 15.355 22.69 32.552 22.025 16.068-.622 27.977-11.154 27.859-24.364-.043-.503.136-.834.1-1.134" style="marker:none" color="#000" fill="none" stroke="#308d57" stroke-width="3.6739286399999997" overflow="visible" />
   <path d="M159.78 111.384c3.622 17.164 12.732 29.993 40.962 28.757 24.573-1.077 36.361-17.699 36.834-31.59-.016-.062-.017-.355.045-.648" style="marker:none" color="#000" fill="none" stroke="#c13c1b" stroke-width="2.9708208" overflow="visible" />
   <path d="M172.084 108.706c2.44 8.141 5.165 20.311 28.455 18.549 15.258-1.155 22.63-10.254 23.207-18.743.046-.965.04-3.107.157-3.389" style="marker:none" color="#000" fill="none" stroke="#04a" stroke-width="4.3572038399999995" overflow="visible" />
   <path d="M163.786 110.348c4.876 23.183 22.081 26.471 37.215 25.572 20.561-1.227 31.623-13.958 32.193-27.435.018-.246.014-1.17.131-1.544" style="marker:none" color="#000" fill="none" stroke="#04a" stroke-width="4.3572038399999995" overflow="visible" />
   <path d="M147.268 113.763c5.385 26.015 19.894 40.195 52.719 39.027l.386-.014h.012c43.57-1.705 49.081-34.322 50.663-41.916" style="marker:none" color="#000" fill="none" stroke="#fac53a" stroke-width="10.867199999999999" overflow="visible" />
   <path d="M141.726 114.718l32.876-6.574 46.534-3.711 35.83 7.407c-6.734 33.984-29.78 46.136-56.48 46.728-25.29.559-37.1-5.936-45.357-14.705-7.849-8.335-12.018-21.411-13.403-29.145z" fill="none" stroke="#000" stroke-width=".54336" stroke-linecap="round" stroke-linejoin="round" />
   <g fill="none" stroke="#c13c1b">
      <path d="M213.2 153.839c-.63-1.926-.246-5.317.258-7.538 1.575 1.602 3.762 4.277 4.314 6.098 1.062 3.502-3.498 4.713-4.572 1.44z" stroke-width=".27168" />
      <path d="M213.791 153.605c-.467-1.426-.186-3.936.184-5.58 1.164 1.187 2.78 3.17 3.188 4.519.787 2.593-2.577 3.486-3.372 1.061z" stroke-width=".27168" />
      <path style="marker:none" d="M213.784 153.534a2.675 2.675 0 011.465-1.153c.814-.25 1.366-.097 1.825.108M213.626 150.955c.24-.302.77-.597 1.03-.673.281-.083.88-.06 1.157.016" color="#000" stroke-linecap="round" stroke-linejoin="round" overflow="visible" stroke-width=".27168" />
   </g>
   <g fill="none" stroke="#c13c1b">
      <path d="M207.49 154.707c-.442-1.978.269-5.316.985-7.477 1.413 1.746 3.33 4.62 3.704 6.487.717 3.588-3.938 4.352-4.69.99z" stroke-width=".27168" />
      <path d="M208.1 154.532c-.327-1.465.195-3.936.723-5.537 1.043 1.295 2.46 3.424 2.736 4.806.531 2.658-2.903 3.22-3.46.73z" stroke-width=".27168" />
      <path style="marker:none" d="M208.1 154.46c.204-.28.735-.835 1.57-1.005.834-.17 1.368.035 1.805.283M208.192 151.877c.268-.277.823-.52 1.09-.57.288-.055.882.025 1.15.128" color="#000" stroke-linecap="round" stroke-linejoin="round" overflow="visible" stroke-width=".27168" />
   </g>
   <g fill="none" stroke="#c13c1b">
      <path d="M219.026 152.27c-.82-1.853-.774-5.265-.493-7.525 1.727 1.438 4.169 3.882 4.899 5.64 1.404 3.378-3.013 5.037-4.406 1.886z" stroke-width=".27168" />
      <path d="M219.59 151.98c-.606-1.373-.576-3.898-.371-5.57 1.276 1.065 3.08 2.877 3.621 4.178 1.04 2.503-2.218 3.726-3.25 1.392z" stroke-width=".27168" />
      <path style="marker:none" d="M219.576 151.91a2.675 2.675 0 011.343-1.293c.785-.33 1.35-.232 1.827-.074M219.162 149.359c.21-.324.707-.67.958-.772.272-.11.87-.148 1.153-.1" color="#000" stroke-linecap="round" stroke-linejoin="round" overflow="visible" stroke-width=".27168" />
   </g>
   <g fill="none" stroke="#c13c1b">
      <path d="M196.031 155.228c-.036-2.027 1.329-5.154 2.464-7.128 1.034 1.994 2.337 5.194 2.329 7.097-.016 3.659-4.73 3.475-4.793.03z" stroke-width=".27168" />
      <path d="M196.664 155.179c-.027-1.501.98-3.817 1.817-5.28.763 1.477 1.725 3.847 1.719 5.257-.012 2.71-3.49 2.574-3.536.023z" stroke-width=".27168" />
      <path d="M196.678 155.108c.257-.233.888-.67 1.74-.67.851 0 1.333.309 1.712.64M197.286 152.597c.318-.218.91-.345 1.182-.341.294.004.86.202 1.102.356" style="marker:none" color="#000" stroke-linecap="round" stroke-linejoin="round" overflow="visible" stroke-width=".27168" />
   </g>
   <g fill="none" stroke="#c13c1b">
      <path d="M190.511 155.132c.044-2.026 1.53-5.097 2.742-7.026.955 2.034 2.132 5.282 2.048 7.184-.16 3.655-4.862 3.286-4.79-.158z" stroke-width=".27168" />
      <path d="M191.146 155.107c.032-1.5 1.13-3.775 2.023-5.203.705 1.506 1.572 3.912 1.51 5.32-.118 2.707-3.587 2.435-3.533-.117z" stroke-width=".27168" />
      <path style="marker:none" d="M191.163 155.038a2.675 2.675 0 011.764-.602c.851.034 1.32.361 1.686.707M191.869 152.552c.326-.205.923-.308 1.194-.294.293.016.851.235 1.087.4" color="#000" stroke-linecap="round" stroke-linejoin="round" overflow="visible" stroke-width=".27168" />
   </g>
   <g fill="none" stroke="#c13c1b">
      <path d="M201.811 155.197c-.263-2.01.743-5.27 1.65-7.359 1.251 1.867 2.905 4.9 3.11 6.792.393 3.638-4.312 3.983-4.76.567z" stroke-width=".27168" />
      <path d="M202.435 155.078c-.195-1.489.546-3.903 1.215-5.45.923 1.383 2.144 3.63 2.295 5.031.292 2.695-3.179 2.949-3.51.419z" stroke-width=".27168" />
      <path style="marker:none" d="M202.44 155.006c.23-.26.808-.765 1.654-.86.847-.096 1.36.157 1.774.443M202.764 152.442c.291-.252.866-.444 1.136-.47.292-.03.877.104 1.135.23" color="#000" stroke-linecap="round" stroke-linejoin="round" overflow="visible" stroke-width=".27168" />
   </g>
   <g fill="none" stroke="#c13c1b">
      <path d="M152.817 135.165c1.672-1.145 5.035-1.725 7.308-1.863-1.097 1.96-3.052 4.809-4.646 5.849-3.065 1.999-5.504-2.039-2.662-3.986z" stroke-width=".27168" />
      <path d="M153.206 135.666c1.239-.847 3.727-1.28 5.409-1.385-.814 1.45-2.265 3.556-3.445 4.326-2.27 1.48-4.069-1.499-1.964-2.94z" stroke-width=".27168" />
      <path d="M153.273 135.64a2.675 2.675 0 011.516 1.084c.469.711.476 1.283.408 1.782M155.705 134.766c.357.146.788.571.934.8.158.247.305.829.309 1.116" style="marker:none" color="#000" stroke-linecap="round" stroke-linejoin="round" overflow="visible" stroke-width=".27168" />
   </g>
   <g fill="none" stroke="#c13c1b">
      <path d="M150.189 130.421c1.776-.975 5.18-1.222 7.455-1.137-1.284 1.844-3.51 4.487-5.198 5.365-3.246 1.689-5.277-2.569-2.257-4.228z" stroke-width=".27168" />
      <path d="M150.527 130.959c1.316-.722 3.834-.91 5.518-.849-.952 1.363-2.602 3.317-3.853 3.967-2.404 1.251-3.902-1.89-1.665-3.118z" stroke-width=".27168" />
      <path style="marker:none" d="M150.596 130.938a2.675 2.675 0 011.403 1.228c.396.754.347 1.324.23 1.814M153.102 130.308c.34.18.728.646.851.887.133.262.222.855.198 1.14" color="#000" stroke-linecap="round" stroke-linejoin="round" overflow="visible" stroke-width=".27168" />
   </g>
   <g fill="none" stroke="#c13c1b">
      <path d="M156.018 139.73c1.484-1.379 4.723-2.45 6.951-2.923-.794 2.101-2.306 5.208-3.729 6.472-2.735 2.43-5.745-1.201-3.222-3.548z" stroke-width=".27168" />
      <path d="M156.477 140.17c1.1-1.022 3.496-1.819 5.144-2.172-.59 1.554-1.713 3.852-2.767 4.789-2.026 1.8-4.246-.88-2.377-2.618z" stroke-width=".27168" />
      <path d="M156.539 140.133a2.675 2.675 0 011.66.848c.569.634.66 1.199.667 1.702M158.814 138.909c.375.091.865.448 1.043.653.193.22.424.774.47 1.057" style="marker:none" color="#000" stroke-linecap="round" stroke-linejoin="round" overflow="visible" stroke-width=".27168" />
   </g>
   <g fill="none" stroke="#c13c1b">
      <path d="M146.326 120.125c1.946-.566 5.322-.07 7.525.508-1.654 1.521-4.4 3.618-6.239 4.109-3.535.944-4.594-3.653-1.286-4.617z" stroke-width=".27168" />
      <path d="M146.54 120.723c1.44-.42 3.94-.055 5.57.37-1.225 1.123-3.26 2.672-4.622 3.036-2.618.699-3.398-2.692-.949-3.406z" stroke-width=".27168" />
      <path style="marker:none" d="M146.611 120.718c.293.187.88.681 1.103 1.503.223.822.052 1.368-.168 1.82M149.194 120.646c.294.25.571.789.639 1.051.073.285.03.883-.055 1.157" color="#000" stroke-linecap="round" stroke-linejoin="round" overflow="visible" stroke-width=".27168" />
   </g>
   <g fill="none" stroke="#c13c1b">
      <path d="M144.98 114.788c1.968-.481 5.32.162 7.495.834-1.718 1.448-4.552 3.424-6.41 3.834-3.573.79-4.431-3.848-1.085-4.668z" stroke-width=".27168" />
      <path d="M145.167 115.395c1.458-.357 3.94.116 5.55.61-1.273 1.07-3.373 2.53-4.75 2.834-2.646.585-3.278-2.837-.8-3.444z" stroke-width=".27168" />
      <path d="M145.239 115.393c.284.2.85.719 1.037 1.55.187.83-.008 1.368-.247 1.81M147.823 115.433c.282.263.536.813.592 1.078.06.287-.007.883-.105 1.153" style="marker:none" color="#000" stroke-linecap="round" stroke-linejoin="round" overflow="visible" stroke-width=".27168" />
   </g>
   <g fill="none" stroke="#c13c1b">
      <path d="M148 125.437c1.882-.749 5.29-.575 7.538-.21-1.501 1.671-4.035 4.02-5.819 4.684-3.429 1.276-4.92-3.2-1.72-4.474z" stroke-width=".27168" />
      <path d="M148.269 126.012c1.394-.554 3.917-.43 5.58-.162-1.112 1.235-2.99 2.97-4.311 3.462-2.54.946-3.64-2.356-1.27-3.3z" stroke-width=".27168" />
      <path style="marker:none" d="M148.34 126c.309.159.94.595 1.24 1.392.301.796.182 1.356.007 1.828M150.904 125.683c.316.22.644.73.736.986.1.276.115.875.056 1.156" color="#000" stroke-linecap="round" stroke-linejoin="round" overflow="visible" stroke-width=".27168" />
   </g>
   <g fill="none" stroke="#c13c1b">
      <path d="M164.267 147.219c1.03-1.745 3.83-3.695 5.831-4.783-.163 2.24-.728 5.65-1.732 7.266-1.929 3.11-5.849.485-4.099-2.483z" stroke-width=".27168" />
      <path d="M164.832 147.508c.763-1.292 2.833-2.738 4.312-3.546-.123 1.658-.544 4.18-1.288 5.378-1.429 2.303-4.32.367-3.024-1.832z" stroke-width=".27168" />
      <path d="M164.881 147.456a2.675 2.675 0 011.833.34c.726.445.974.96 1.124 1.441M166.714 145.634c.385-.019.956.184 1.185.33.248.156.627.621.752.88" style="marker:none" color="#000" stroke-linecap="round" stroke-linejoin="round" overflow="visible" stroke-width=".27168" />
   </g>
   <g fill="none" stroke="#c13c1b">
      <path d="M159.85 143.746c1.299-1.555 4.379-3.024 6.53-3.772-.525 2.184-1.637 5.456-2.89 6.888-2.408 2.754-5.85-.472-3.64-3.116z" stroke-width=".27168" />
      <path d="M160.36 144.123c.962-1.151 3.24-2.242 4.83-2.798-.39 1.616-1.216 4.036-2.144 5.097-1.784 2.04-4.323-.34-2.686-2.299z" stroke-width=".27168" />
      <path style="marker:none" d="M160.416 144.08a2.675 2.675 0 011.754.632c.643.558.805 1.107.875 1.606M162.52 142.58c.384.044.915.336 1.117.517.22.195.518.715.6.99" color="#000" stroke-linecap="round" stroke-linejoin="round" overflow="visible" stroke-width=".27168" />
   </g>
   <g fill="none" stroke="#c13c1b">
      <path d="M169.132 149.943c.835-1.847 3.407-4.088 5.279-5.386.08 2.245-.112 5.694-.935 7.41-1.58 3.3-5.762 1.116-4.344-2.024z" stroke-width=".27168" />
      <path d="M169.725 150.17c.619-1.368 2.52-3.03 3.903-3.993.057 1.662-.089 4.215-.698 5.486-1.171 2.444-4.255.832-3.205-1.493z" stroke-width=".27168" />
      <path d="M169.768 150.112c.332-.1 1.09-.226 1.86.14.769.364 1.072.85 1.273 1.31M171.393 148.103c.38-.061.97.079 1.214.198.263.13.69.55.843.793" style="marker:none" color="#000" stroke-linecap="round" stroke-linejoin="round" overflow="visible" stroke-width=".27168" />
   </g>
   <g fill="none" stroke="#c13c1b">
      <path d="M179.636 153.607c.386-1.99 2.371-4.764 3.892-6.46.597 2.166 1.206 5.567.802 7.427-.777 3.576-5.35 2.415-4.694-.967z" stroke-width=".27168" />
      <path d="M180.265 153.69c.286-1.473 1.753-3.529 2.876-4.785.439 1.603.886 4.122.587 5.499-.575 2.648-3.948 1.792-3.463-.713z" stroke-width=".27168" />
      <path style="marker:none" d="M180.294 153.625c.3-.175 1.008-.471 1.84-.294.834.177 1.24.58 1.543.982M181.41 151.295c.357-.148.963-.148 1.228-.088.286.065.799.376 1.003.578" color="#000" stroke-linecap="round" stroke-linejoin="round" overflow="visible" stroke-width=".27168" />
   </g>
   <g fill="none" stroke="#c13c1b">
      <path d="M174.33 152.093c.578-1.942 2.825-4.509 4.505-6.047.382 2.214.655 5.658.071 7.469-1.122 3.483-5.56 1.88-4.577-1.422z" stroke-width=".27168" />
      <path d="M174.947 152.238c.43-1.438 2.09-3.34 3.33-4.481.28 1.639.48 4.188.047 5.53-.832 2.58-4.105 1.397-3.377-1.049z" stroke-width=".27168" />
      <path d="M174.982 152.175a2.675 2.675 0 011.861-.112c.812.258 1.177.698 1.439 1.128M176.322 149.966c.37-.112.972-.053 1.23.033.278.093.758.452.942.673" style="marker:none" color="#000" stroke-linecap="round" stroke-linejoin="round" overflow="visible" stroke-width=".27168" />
   </g>
   <g fill="none" stroke="#c13c1b">
      <path d="M184.964 154.593c.173-2.019 1.853-4.989 3.185-6.836.823 2.09 1.79 5.407 1.586 7.3-.393 3.637-5.062 2.97-4.77-.464z" stroke-width=".27168" />
      <path d="M185.6 154.61c.127-1.496 1.367-3.696 2.35-5.064.607 1.547 1.32 4.004 1.168 5.405-.29 2.694-3.735 2.201-3.519-.341z" stroke-width=".27168" />
      <path style="marker:none" d="M185.62 154.541c.28-.206.953-.575 1.8-.488.847.088 1.294.445 1.638.813M186.484 152.105c.339-.184.941-.248 1.21-.217.292.034.835.29 1.06.468" color="#000" stroke-linecap="round" stroke-linejoin="round" overflow="visible" stroke-width=".27168" />
   </g>
   <g fill="none" stroke="#c13c1b">
      <path d="M229.692 147.697c-1.192-1.639-1.868-4.983-2.071-7.252 1.991 1.04 4.894 2.914 5.979 4.477 2.086 3.006-1.88 5.56-3.908 2.775z" stroke-width=".27168" />
      <path d="M230.182 147.294c-.883-1.214-1.387-3.689-1.54-5.367 1.473.772 3.62 2.162 4.423 3.32 1.545 2.226-1.381 4.11-2.883 2.047z" stroke-width=".27168" />
      <path d="M230.154 147.228a2.675 2.675 0 011.04-1.547c.697-.489 1.27-.512 1.77-.459M229.21 144.822c.136-.361.55-.805.773-.957.243-.165.82-.328 1.107-.34" style="marker:none" color="#000" stroke-linecap="round" stroke-linejoin="round" overflow="visible" stroke-width=".27168" />
   </g>
   <g fill="none" stroke="#c13c1b">
      <path d="M224.608 150.315c-1.046-1.736-1.43-5.126-1.436-7.404 1.894 1.209 4.624 3.326 5.57 4.978 1.818 3.176-2.355 5.376-4.134 2.426z" stroke-width=".27168" />
      <path d="M225.131 149.956c-.774-1.286-1.062-3.795-1.07-5.48 1.4.896 3.42 2.467 4.12 3.69 1.346 2.352-1.732 3.975-3.05 1.79z" stroke-width=".27168" />
      <path style="marker:none" d="M225.108 149.887a2.675 2.675 0 011.17-1.45c.738-.427 1.31-.4 1.803-.304M224.377 147.41c.166-.349.616-.755.853-.887.256-.144.845-.256 1.132-.244" color="#000" stroke-linecap="round" stroke-linejoin="round" overflow="visible" stroke-width=".27168" />
   </g>
   <g fill="none" stroke="#c13c1b">
      <path d="M234.547 144.506c-1.425-1.44-2.596-4.646-3.138-6.858 2.125.73 5.277 2.145 6.585 3.527 2.514 2.659-1.023 5.78-3.447 3.331z" stroke-width=".27168" />
      <path d="M234.971 144.034c-1.055-1.068-1.925-3.438-2.33-5.074 1.573.542 3.904 1.592 4.873 2.617 1.862 1.968-.748 4.27-2.543 2.457z" stroke-width=".27168" />
      <path style="marker:none" d="M234.933 143.973c.025-.347.18-1.098.796-1.686.616-.588 1.178-.697 1.68-.72M233.639 141.736c.08-.377.421-.878.62-1.062.215-.2.761-.448 1.043-.503" color="#000" stroke-linecap="round" stroke-linejoin="round" overflow="visible" stroke-width=".27168" />
   </g>
   <g fill="none" stroke="#c13c1b">
      <path d="M242.902 136.437c-1.764-.998-3.765-3.761-4.89-5.742 2.244.122 5.662.624 7.297 1.597 3.145 1.872.593 5.84-2.407 4.145z" stroke-width=".27168" />
      <path d="M243.181 135.866c-1.306-.739-2.79-2.782-3.625-4.246 1.66.093 4.19.468 5.401 1.189 2.329 1.386.446 4.313-1.776 3.057z" stroke-width=".27168" />
      <path d="M243.128 135.818a2.675 2.675 0 01.306-1.839c.432-.733.943-.991 1.42-1.15M241.273 134.02c-.026-.385.166-.96.307-1.192.152-.25.61-.638.866-.768" style="marker:none" color="#000" stroke-linecap="round" stroke-linejoin="round" overflow="visible" stroke-width=".27168" />
   </g>
   <g fill="none" stroke="#c13c1b">
      <path d="M238.99 140.77c-1.6-1.244-3.175-4.27-3.998-6.394 2.201.448 5.51 1.444 6.985 2.646 2.837 2.311-.267 5.863-2.987 3.749z" stroke-width=".27168" />
      <path d="M239.35 140.247c-1.185-.922-2.355-3.16-2.967-4.73 1.629.334 4.077 1.075 5.17 1.965 2.1 1.711-.19 4.332-2.204 2.765z" stroke-width=".27168" />
      <path style="marker:none" d="M239.303 140.192a2.675 2.675 0 01.572-1.775c.535-.662 1.078-.843 1.573-.93M237.731 138.141c.03-.384.304-.925.478-1.133.187-.226.697-.543.969-.634" color="#000" stroke-linecap="round" stroke-linejoin="round" overflow="visible" stroke-width=".27168" />
   </g>
   <g fill="none" stroke="#c13c1b">
      <path d="M246.001 131.744c-1.806-.92-3.926-3.593-5.136-5.522 2.247.023 5.684.376 7.36 1.277 3.223 1.732.847 5.808-2.224 4.245z" stroke-width=".27168" />
      <path d="M246.255 131.163c-1.337-.682-2.91-2.658-3.807-4.084 1.662.02 4.206.284 5.448.952 2.387 1.283.633 4.289-1.641 3.132z" stroke-width=".27168" />
      <path d="M246.2 131.117a2.675 2.675 0 01.225-1.85c.4-.753.899-1.033 1.369-1.212M244.268 129.4c-.043-.383.124-.965.254-1.203.142-.257.582-.664.832-.805" style="marker:none" color="#000" stroke-linecap="round" stroke-linejoin="round" overflow="visible" stroke-width=".27168" />
   </g>
   <g fill="none" stroke="#c13c1b">
      <path d="M250.598 121.763c-1.939-.59-4.494-2.85-6.024-4.538 2.216-.37 5.662-.626 7.47-.032 3.477 1.141 1.851 5.57-1.446 4.57z" stroke-width=".27168" />
      <path d="M250.746 121.145c-1.436-.436-3.33-2.107-4.463-3.353 1.64-.272 4.19-.457 5.53-.018 2.575.845 1.375 4.112-1.067 3.371z" stroke-width=".27168" />
      <path style="marker:none" d="M250.684 121.11a2.675 2.675 0 01-.103-1.861c.262-.81.705-1.174 1.136-1.433M248.481 119.759c-.11-.37-.047-.973.04-1.23.094-.278.456-.756.678-.938" color="#000" stroke-linecap="round" stroke-linejoin="round" overflow="visible" stroke-width=".27168" />
   </g>
   <g fill="none" stroke="#c13c1b">
      <path d="M248.68 126.806c-1.886-.742-4.252-3.2-5.642-5.004 2.239-.192 5.693-.171 7.448.565 3.375 1.415 1.4 5.7-1.806 4.44z" stroke-width=".27168" />
      <path d="M248.877 126.203c-1.397-.55-3.151-2.367-4.181-3.7 1.656-.14 4.214-.12 5.513.425 2.5 1.048 1.043 4.208-1.332 3.275z" stroke-width=".27168" />
      <path d="M248.817 126.163a2.675 2.675 0 01.047-1.864c.326-.787.796-1.114 1.246-1.337M246.73 124.64c-.08-.378.03-.974.138-1.223.116-.27.515-.717.75-.881" style="marker:none" color="#000" stroke-linecap="round" stroke-linejoin="round" overflow="visible" stroke-width=".27168" />
   </g>
   <g fill="none" stroke="#c13c1b">
      <path d="M252.332 116.513c-1.991-.377-4.775-2.35-6.477-3.863 2.163-.607 5.561-1.231 7.423-.835 3.579.76 2.44 5.338-.946 4.698z" stroke-width=".27168" />
      <path d="M252.413 115.884c-1.475-.28-3.538-1.737-4.799-2.855 1.602-.446 4.118-.905 5.496-.612 2.651.564 1.81 3.94-.697 3.467z" stroke-width=".27168" />
      <path style="marker:none" d="M252.347 115.855a2.675 2.675 0 01-.303-1.84c.174-.833.575-1.242.975-1.546M250.011 114.749c-.148-.356-.151-.962-.092-1.227.063-.287.372-.8.572-1.006" color="#000" stroke-linecap="round" stroke-linejoin="round" overflow="visible" stroke-width=".27168" />
   </g>
   <path d="M175.2 108.203l-.73 1.717c5.29 10.59 7.863 15.598 26.212 14.5l-3.118-10.563-3.412-6.928c-1.495-.4-5.718-.983-6.519.33-1.368-.817-5.436-.781-7.384.414-1.403-1.21-4.41-.893-5.049.53z" fill="#a13c2a" fill-rule="evenodd" stroke="#000" stroke-width=".216" />
   <path d="M221.425 105.451l39.926 7.196c45.255 13.666 38.111 43.494 38.561 55.35l.393 7.641 8.648-.174-.197-36.393-.237-2.146c-4.126-21.7-8.518-46.448-22.452-64.388-11.884-15.3-27.945-31.98-50.266-39.632-17.655-6.053-24.38-5.979-34.81-6.503-1.418 4.93-1.21 15.847 6.978 39.606-12.793 22.128-13.92 25.272-17.977 31.64 7.332 9.318 7.046 28.536 7.599 41.074.493 21.766.64 35.6.64 35.6h25.544c.159-11.814.058-20.042.082-34.683-.884-12.037-.674-24.857-2.432-34.188z" fill="#025" fill-rule="evenodd" stroke="#000" stroke-width=".23" stroke-linecap="round" stroke-linejoin="round" />
   <path d="M268.583 447.37l-1.203.321.741 12.023c.092 17.745.562 36.573 4.168 49.573l5.229-8.442 10.056 8.596c-3.038-31.148-9.331-22.25-18.991-62.07z" fill="#04a" fill-rule="evenodd" stroke="#000" stroke-width=".432" />
   <path d="M273.644 516.694l5.852-8.287 7.866 6.628" fill="none" stroke="#c13c1b" stroke-width=".432" stroke-linecap="round" stroke-linejoin="round" />
   <path d="M274.612 523.89l5.723-8.033 7.636 6.376M275.687 531.43l5.477-7.765 7.417 6.203M276.79 539.468l5.412-7.637 7.148 5.957M277.757 546.882l5.265-7.54 7.104 5.922M278.838 554.68l5.022-7.233 6.894 5.828M280.028 562.35l4.889-7.016 6.718 5.689M281.026 569.682l4.72-6.759 6.455 5.482M281.945 576.585l4.62-6.587 6.236 5.309M282.662 583.919l4.802-6.42 6.04 5.014M283.55 591.184l4.892-6.225 5.835 4.958M284.492 598.58l4.57-5.735 6.159 4.535M285.514 605.85l4.596-5.633 5.745 4.135M288.149 624.725l4.43-5.172 5.418 3.504M287.274 618.875l4.365-5.557 5.667 3.904M286.49 612.244l4.44-5.171 5.553 3.734M289.033 631.29l4.473-5.273 5.311 3.974M289.909 637.454l4.198-5.018 5.496 3.504M291.424 649.682l4.43-5.017 5.727 3.503M290.782 643.469l4.154-4.753 5.62 3.595M291.758 651.931l10.15-1.532" fill="none" stroke="#c13c1b" stroke-width=".432" stroke-linecap="round" stroke-linejoin="round" />
   <g fill-rule="evenodd" stroke="#000" stroke-linecap="round" stroke-linejoin="round">
      <path d="M283.366 442.894c2.696-.881 4.905-.544 7.031 0l-1.24-33.733 16.063 1.073c-.491-2.416-.657-4.832 0-7.248l-16.063 1.127h0c3.364-6.013 8.082-11.346 9.778-20.139 3.429-17.772-5.633-17.025-11.92-17.082-6.844-.062-16.947 1.008-12.744 17.84 1.934 7.74 6.647 13.83 10.45 19.38h0l-18.052-1.126c.606 2.416.547 4.832 0 7.248l18.052-1.073h0l-1.355 33.733z" fill="#025" stroke-width=".21417" />
      <path d="M284.72 399.146c-3.469-4.71-6.798-9.313-7.636-15.388-1.695-12.283 4.682-13.654 9.842-13.686 4.587-.027 11.366.623 8.331 13.577-1.424 6.078-3.638 11.546-6.1 15.497-1.54 2.086-3.195 1.745-4.436 0z" fill="#fff" stroke-width=".21417" />
   </g>
   <path d="M298.779 346.634l-19.85-.541c-.993 4.965-3.446 10.223-5.841 15.469-3.167 5.025-3.373 11.439-2.489 17.524l-.324 5.733c8.916 1.067.302-10.832 5.95-15.252l.865 8.22c1.617 1.54 3.21 2.757 4.543.325 1.587 1.777 3.173 1.649 4.76-.324 1.94 2.508 3.523.743 5.192 0 1.779 1.391 3.662 1.885 4.868-1.298.351-8.684 2.949-17.116 2.326-29.856z" fill="#a13c2a" fill-rule="evenodd" stroke="#000" stroke-width=".432" stroke-linecap="round" stroke-linejoin="round" />
   <g fill-rule="evenodd" stroke="#000" stroke-linecap="round" stroke-linejoin="round">
      <path d="M278.759 334.897l20.823.162-.865 13.144-19.85-.758-.108-12.548z" fill="#fac53a" stroke-width=".21417" />
      <path d="M278.759 336.79l20.66.27-.212 4.061-20.394-.32-.054-4.01z" fill="#04a" stroke-width=".21417" />
      <path d="M278.54 334.843l20.878.216-.592 13.09-20.232-.704-.054-12.602z" fill="#fac53a" stroke-width=".21417" />
      <path d="M278.566 336.79l20.854.27-.251 4.061-20.55-.32-.053-4.01zM278.604 342.03l20.491.309-.212 4.06-20.225-.36-.054-4.01z" fill="#04a" stroke-width=".21417" />
   </g>
   <path d="M67.275 322.778c-10.26 1.61-22.706 5.432-31.007 18.986l-5.113 3.168c2.705 5.951 8.037 2.535 9.736-.573-1.007 2.748-.477 4.505 2.77 4.51-.688 2.564.216 4.048 3.228 4.105-1.604 2.525.296 4.751 3.075 4.239-.977 3.233.755 4.605 2.472 4.638 4.58 1.969 25.029-23.414 27.066-25.629" fill="#a13c2a" fill-rule="evenodd" stroke="#000" stroke-width=".432" stroke-linecap="round" stroke-linejoin="round" />
   <path d="M40.876 131.055c.716-7.124-.405-13.378 2.52-22.039 3.57-10.57 7.136-12.402 11.293-17.956 1.575-1.286 4.167.058 3.317 2.505-4.821 4.49-8.263 10.622-9.669 14.122 1.447-.163 8.412-.698 8.568 6.52l-.024 492.832c7.755 8.9 1.09 15.74 1.506 23.471-.792.382-1.421.138-1.502-.536-1.038-8.46 1.848-12.15-.052-16.55-.908-2.103-2.607-2.005-3.597-.215-2.133 3.858.855 6.231.075 16.683-.056.76-.988.98-1.368.523-.486-7.767-5.855-14.314 1.252-23.384l-.008-492.235c-.401-4.027-4.757-4.458-6.92.092-2.537 5.333-1.462 10.862-2.141 16.292-1.127 3.497-3.441 2.15-3.25-.125z" fill="#025" fill-rule="evenodd" stroke="#000" stroke-width=".214" stroke-linecap="round" stroke-linejoin="round" />
   <g fill-rule="evenodd" stroke="#000" stroke-linecap="round" stroke-linejoin="round">
      <path d="M67.641 309.605L89.04 322.23l-9.246 13.956-17.57-12.765 5.417-13.816z" fill="#fac53a" stroke-width=".28617" />
      <path d="M66.954 311.346l20.882 13.027-2.71 3.973-19.674-13.039 1.502-3.961zM64.62 317.447l18.927 13.078-2.928 4.355L62.9 321.79l1.72-4.343z" fill="#04a" stroke-width=".28617" />
   </g>
   <path d="M53.808 333.59c3.666-2.82 8.043-2.395 4.592 1.785 2.973-2.831 9.083-2.346 3.017 3.458 5.534-3.328 5.842 1.142 3.005 3.662 3.732-2.291 4.734 1.309.93 4.97-3.791 4.721-8.235 9.548-12.523 14.238-.08.085-.186.138-.356.12-1.717-.032-3.423-1.24-2.446-4.473-2.778.513-4.68-1.713-3.075-4.24-3.012-.056-3.916-1.54-3.228-4.103-3.247-.006-4.096-1.275-3.089-4.023.134-.23.264-.407.391-.542 4.58-4.955 8.793-8.515 12.665-10.784m.833-.509c-.291 1.228.936 2.9 3.01 2.933m.84-.532c-.831 1.442 1.603 3.408 2.924 3.33m.34-.197c-1.223 1.512.572 4.712 3.196 3.37m-.458.506c-.707 1.606.586 3.26 2.028 3.608m-19.439 6.94c.535-.377 14.485-14.255 14.485-14.255m-17.592 10.074c.764-.774 14.598-13.573 14.598-13.573m-8.365 21.971l14.433-14.908" fill="#a13c2a" fill-rule="evenodd" stroke="#000" stroke-width=".432" stroke-linecap="round" stroke-linejoin="round" />
   <path d="M58.374 335.55c-.243.168-.283.503-.84.532-2.528.005-3.127-2.492-3.031-2.939 3.465-2.254 7.166-1.603 3.938 2.307 2.973-2.831 9.042-2.421 2.976 3.383 5.534-3.328 5.912 1.028 3.075 3.548 3.317-2.036 4.407.694 1.933 3.83-1.463-.391-2.756-2.046-1.912-3.81-2.486 1.182-4.098-2.206-3.045-3.62-1.49.177-3.925-1.789-3.094-3.23z" fill="#fff" fill-rule="evenodd" stroke="#000" stroke-width=".432" stroke-linecap="round" stroke-linejoin="round" />
   <path d="M59.241 332.138c-2.426-.894-5.609.892-12.635 6.77l-1.295-7.426c7.36-5.004 10.655-6.424 17.04-7.775" fill="#a13c2a" fill-rule="evenodd" />
   <path d="M46.606 338.908c7.026-5.878 10.31-7.674 12.737-6.78m2.939-8.378c-6.385 1.35-9.748 2.626-17.089 7.846" fill="none" stroke="#000" stroke-width=".432" />
   <g>
      <path d="M4025.317 656.303l33.517-.045-.218 55.187-31.768.818-1.531-55.96z" fill="#fac53a" fill-rule="evenodd" stroke="#000" transform="matrix(.2675 0 0 .21617 -776.883 21.653)" />
      <path d="M4026.335 661.639l27.84.463M4026.705 670.056l26.968.182M4026.818 678.605l26.602.463M4027.407 687.812l26.667.463M4027.967 696.844l26.528.26M4028.121 704.836l26.545-.079" fill="none" stroke="#c13c1b" stroke-width="2.972" stroke-linecap="round" stroke-linejoin="round" transform="matrix(.2675 0 0 .21617 -776.883 21.653)" />
      <path d="M4025.205 656.13l1.555 54.548" fill="none" stroke="#000" transform="matrix(.2675 0 0 .21617 -776.883 21.653)" />
   </g>
   <g fill-rule="evenodd" stroke="#000" stroke-linecap="round" stroke-linejoin="round">
      <path d="M-2298.264 185.199l129.779 8.359-8.488 77.742-132.395-13.063 11.104-73.038z" fill="#fac53a" transform="matrix(.26144 -.00426 .00494 .22537 706.46 116.795)" />
      <path d="M-2299.299 193.609l129.66 10.549-2.604 22.255-130.567-9.952 3.511-22.852zM-2304.076 224.65L-2173.32 236l-2.746 24.159-131.762-10.989 3.753-24.52z" fill="#04a" transform="matrix(.26144 -.00426 .00494 .22537 706.46 116.795)" />
   </g>
   <g fill-rule="evenodd" stroke="#000" stroke-linecap="round" stroke-linejoin="round">
      <path d="M-2301.611 184.81l110.51 7.598-12.757 77.185-100.902-10.518 3.149-74.266z" fill="#fac53a" transform="matrix(.25786 .0433 -.03608 .22252 722.514 650.735)" />
      <path d="M-2302.218 193.931l109.506 8.31-3.595 21.223-106.536-7.241.625-22.292zM-2303.251 224.49l104.788 11.037-4.15 23.206-101.819-9.488 1.18-24.755z" fill="#04a" transform="matrix(.25786 .0433 -.03608 .22252 722.514 650.735)" />
   </g>
   <g fill-rule="evenodd" stroke="#000" stroke-linecap="round" stroke-linejoin="round">
      <path d="M-2305.348 184.73l117.692 7.561-12.03 77.508-107.182-11.397 1.52-73.671z" fill="#fac53a" transform="matrix(.26105 -.01487 .01408 .22499 835.252 522.394)" />
      <path d="M-2305.446 193.202l116.011 9.648-3.645 22.187-112.856-8.782.49-23.053zM-2306.264 224.506l112.106 10.117-3.892 24.083-108.633-9.46.42-24.74z" fill="#04a" transform="matrix(.26105 -.01487 .01408 .22499 835.252 522.394)" />
   </g>
   <path d="M262.358 457.65c-90.46-15.206-106.955-83.4-100.208-171.311l82.404-14.566c7.818 13 12.426 30.564 6.55 40.068 7.66 48.435 12.312 97.665 11.254 145.809z" fill="#fac53a" fill-rule="evenodd" stroke="#000" stroke-width=".216" />
   <g>
      <path d="M244.29 271.628l-6.27-29.79-75.806 36.69-.23 7.611 82.307-14.511z" fill="#fac53a" fill-rule="evenodd" stroke="#000" stroke-linecap="round" stroke-linejoin="round" stroke-width=".21617" />
      <path d="M211.604 260.533l6.634-2.759 1.658 4.098-6.732 2.395-1.56-3.734z" fill="#04a" fill-rule="evenodd" stroke="#04a" stroke-width=".24989251999999998" />
      <path d="M220.89 256.672l6.035-2.532 1.938 4.724-6.18 2.109-1.793-4.301z" fill="#c13c1b" fill-rule="evenodd" stroke="#c13c1b" stroke-width=".24989251999999998" />
      <path d="M229.624 253.197l6.88-2.899 2.08 5.018-7.131 2.487-1.829-4.606z" fill="#04a" fill-rule="evenodd" stroke="#04a" stroke-width=".24989251999999998" />
      <path d="M238.018 241.729l.739 3.653-73.133 32.071-3.249.91 75.643-36.634z" fill="#fff" fill-rule="evenodd" stroke="#000" stroke-linecap="round" stroke-linejoin="round" stroke-width=".21617" />
      <path d="M174.881 275.473l6.054-2.42.858 2.324-6.117 2.252-.795-2.156z" fill="#04a" fill-rule="evenodd" stroke="#04a" stroke-width=".24989251999999998" />
      <path d="M183.937 271.874l6.42-2.697.993 2.742-6.469 2.318-.944-2.363z" fill="#c13c1b" fill-rule="evenodd" stroke="#c13c1b" stroke-width=".24989251999999998" />
      <path d="M192.987 268.238l6.518-2.81 1.371 3.232-6.834 2.363-1.055-2.785z" fill="#04a" fill-rule="evenodd" stroke="#04a" stroke-width=".24989251999999998" />
      <path d="M202.37 264.155l6.688-2.76 1.633 3.864-6.844 2.432-1.477-3.536z" fill="#308d57" fill-rule="evenodd" />
      <path d="M240.64 254.81l-66.937 23.581M239.432 248.967l-67.79 27.732M228.68 253.52l1.924 4.594M227.8 253.758l1.91 4.723M238.262 249.518l2.102 5.248M237.39 249.883l2.145 5.202M220.022 257.097l1.893 4.164M219.086 257.433l1.852 4.177M210.811 260.833l1.52 3.68M209.905 261.067l1.651 3.854M201.225 264.667l1.509 3.272M200.393 265.044l1.452 3.29M192.133 268.548l1.015 2.754M191.204 268.932l1.096 2.744M183.094 272.227l.789 2.435M182.079 272.586l.873 2.475M174.062 275.82l.787 2.052M173.261 276.055l.866 2.102" fill="none" stroke="#000" stroke-width=".24989251999999998" stroke-linecap="round" stroke-linejoin="round" />
      <path d="M232.033 263.767l7.161-2.107 1.504 5.22-7.366 1.67-1.3-4.783z" fill="#04a" fill-rule="evenodd" stroke="#04a" stroke-width=".24989251999999998" />
      <path d="M222.963 266.237l6.281-1.837 1.473 4.858-6.457 1.454-1.297-4.475z" fill="#c13c1b" fill-rule="evenodd" stroke="#c13c1b" stroke-width=".24989251999999998" />
      <path d="M213.301 269.03l6.903-1.996 1.186 4.258-6.959 1.623-1.13-3.886z" fill="#04a" fill-rule="evenodd" stroke="#04a" stroke-width=".24989251999999998" />
      <path d="M203.719 271.59l6.956-1.992 1.188 4.024-7.074 1.647-1.07-3.68z" fill="#308d57" fill-rule="evenodd" />
      <path d="M193.936 274.59l6.792-2.058 1 3.366-7.142 1.648-.65-2.955z" fill="#04a" fill-rule="evenodd" stroke="#04a" stroke-width=".24989251999999998" />
      <path d="M184.541 277.122l6.677-1.894.678 2.837-6.69 1.575-.665-2.518z" fill="#c13c1b" fill-rule="evenodd" stroke="#c13c1b" stroke-width=".24989251999999998" />
      <path d="M175.527 279.738l6-1.63.644 2.255-6.073 1.453-.57-2.078z" fill="#04a" fill-rule="evenodd" stroke="#04a" stroke-width=".24989251999999998" />
      <path d="M243.118 266.463l-69.486 16.047M241.895 260.81l-69.923 19.747M231.058 263.982l1.396 4.781M230.157 264.119l1.366 4.908M241.026 261.07l1.502 5.464M240.122 261.348l1.546 5.41M222.053 266.562l1.412 4.35M221.085 266.79l1.37 4.36M212.48 269.238l1.097 3.828M211.553 269.369l1.208 4.015M202.524 271.97l1.13 3.42M201.654 272.25l1.073 3.432M193.053 274.803l.698 2.85M192.087 275.08l.78 2.85M183.58 277.443l.663 2.428M182.608 277.684l.706 2.594M174.89 279.839l.596 2.204M174.245 280.02l.484 2.113" fill="none" stroke="#000" stroke-width=".24989251999999998" stroke-linecap="round" stroke-linejoin="round" />
      <path d="M174.45 278.771l66.636-22.16M174.62 279.263l66.886-20.475M173.774 283.075l69.612-15.23M172.74 283.819l71.202-13.827M168.277 276.837l70.672-30.35M170.084 276.735l69.146-28.99" fill="none" stroke="#000" stroke-width=".21617" />
      <path d="M161.948 286.18c7.906-1.791 13.708-.977 12.6-6.884-.808-4.308-8.228-2.253-12.328-.929l-.272 7.813z" fill="#fac53a" fill-rule="evenodd" stroke="#000" stroke-linecap="round" stroke-linejoin="round" stroke-width=".21617" />
   </g>
   <g>
      <path d="M145.316 457.477l16.979-170.264 88.628-.107c1.155 4.702 5.286 13.354.316 25.97 7.616 48.325 12.236 97.132 11.18 145.163l-117.103-.762z" fill="#fff" fill-rule="evenodd" stroke="#000" stroke-width=".43234" />
      <path d="M262.16 457.84c-90.452-15.254-106.91-83.457-100.116-171.365l82.412-14.522c7.811 13.004 12.546 31.471 6.665 40.973 7.634 48.438 12.124 96.77 11.04 144.913z" fill="#fac53a" fill-rule="evenodd" stroke="#000" stroke-width=".21617" />
      <path d="M244.273 272.03l-66.817 130.9M240.284 272.714l-64.67 126.692M173.907 395.618l62.394-122.234M232.288 274.114l-60.043 117.628M170.713 387.61l57.566-112.775M224.278 275.542l-55.034 107.816M167.88 378.898l52.41-102.674M216.313 276.882l-49.686 97.338M165.469 369.357l46.818-91.72M208.279 278.358l-43.82 85.847M163.5 358.95l40.765-79.861M200.289 279.746l-37.569 73.6M162.04 347.548l34.24-67.08M192.286 281.162l-30.789 60.317M161.085 335.155l27.193-53.275M184.29 282.562l-23.468 45.975M160.695 321.654l19.605-38.407M176.274 284.002l-15.55 30.462M160.903 306.983l11.395-22.323M168.27 285.417l-7.113 13.937M161.696 291.165l2.586-5.066M246.297 275.198l-66.94 131.14M181.342 409.58l66.72-130.708M249.703 282.788l-66.332 129.949M185.489 415.72l65.69-128.69M252.443 291.684l-64.75 126.85M189.946 421.253l63.472-124.348M253.726 303.434l-61.433 120.353M194.664 426.273l56.861-111.395M252.342 320.41L197.117 428.6M199.563 430.94l53.561-104.93M253.95 331.523L202.12 433.06M204.748 435.045l49.95-97.853M255.488 342.774l-48.082 94.197M210.132 438.762l46.006-90.13M256.868 354.335l-43.997 86.192M215.679 442.16l41.883-82.053M258.107 366.17l-39.61 77.6M221.393 445.23l37.444-73.356M259.312 378.075l-34.99 68.546M227.324 447.874l32.568-63.803M260.286 390.431l-29.975 58.723M233.33 450.373l27.424-53.727M261.202 402.899l-24.754 48.496M239.504 452.54l22.015-43.13M261.801 415.99l-19.11 37.439M245.902 454.269l16.199-31.734M262.269 429.338l-13.162 25.785M252.337 455.926l9.994-19.579M262.429 443.288l-6.787 13.295M258.96 457.216l3.356-6.575" fill="none" stroke="#c13c1b" stroke-width=".43234" />
      <path d="M262.126 457.84c-90.452-15.254-106.91-83.457-100.116-171.365l82.412-14.522c7.811 13.004 12.545 31.471 6.665 40.973 7.634 48.438 12.124 96.77 11.04 144.913z" fill="none" stroke="#000" stroke-width=".43234" />
   </g>
   <path d="M165.358 269.768a.813 2.047-.507 11-1.626 0 .813 2.047-.507 111.626 0z" style="marker:none" color="#000" fill-opacity=".706" fill-rule="evenodd" overflow="visible" />
   <g>
      <path d="M210.945-175.397h26.425v12.196h-26.425v-12.196z" fill="#fac53a" fill-rule="evenodd" stroke="#000" stroke-width=".224" transform="matrix(.97491 0 0 .96682 -7.592 332.938)" />
      <path d="M212.585-174.204l22.881.104M212.575-172.066l22.88.104M212.65-170.091l22.88.104M212.639-168.192l22.881.103M212.79-166.22l22.875-.054M212.706-164.24l22.95-.215" fill="none" stroke="#c13c1b" stroke-width=".665" stroke-linecap="round" stroke-linejoin="round" transform="matrix(.97491 0 0 .96682 -7.592 332.938)" />
   </g>
   <path d="M175.14 108.267c1.304-.832 3.13-1.42 5.797.016 2.616-1.076 4.338-1.221 6.953-.157 2.1-1.429 4.29-1.963 6.39-1.267-1.395-12.872 8.14-19.141 11.027-26.971 6.795-16.464-2.607-35.313-4.35-53.379-16.493-.049-24.888 8.314-34.876 18.212.172 1.9 2.045 3.375 3.64 4.919-1.154 3.006 1.917 5.65 3.847 8.313 5.618-.174 11.22-1.174 17.133-.66 2.153.186 3.824 1.668 4.128 3.616 2.459 15.77-2.408 18.965-12.06 30.248-4.029 5.242-7.772 9.567-7.63 17.11z" fill="#308d57" fill-rule="evenodd" stroke="#000" stroke-width=".3" />
   <path d="M162.37 56.899c-6.99 3.105-45.217 15.383-54.94 54.939" fill="none" stroke="#646464" stroke-width=".5" />
   <path d="M172.052 43.784a1.953 2.115 0 103.906 0 1.953 2.115 0 10-3.906 0z" stroke="#000" stroke-width=".5820809" stroke-linecap="round" stroke-linejoin="round" />
   <path d="M169.124 48.468a.909 1.048 0 101.817 0 .909 1.048 0 10-1.817 0z" fill="none" stroke="#000" stroke-width=".7500738" stroke-linecap="round" stroke-linejoin="round" />
   <path d="M180.862 93.67c-4.453.165-8.533.874-12.558 3.09-15.793 11.384-15.975 24.7-17.42 37.848-.044.41.044 39.67-.002 40.08l25.81.034s.12-39.833.118-40.115c.665-14.17-3.595-28.769 4.052-40.938z" style="marker:none" color="#000" fill="#025" fill-rule="evenodd" stroke="#000" stroke-width=".214" stroke-linecap="round" stroke-linejoin="round" overflow="visible" />
   <g>
      <path d="M210.945-175.397h26.425v12.196h-26.425v-12.196z" fill="#fac53a" fill-rule="evenodd" stroke="#000" stroke-width=".224" transform="matrix(.97491 0 0 .96682 -54.735 332.581)" />
      <path d="M212.585-174.204l22.881.104M212.575-172.066l22.88.104M212.65-170.091l22.88.104M212.639-168.192l22.881.103M212.79-166.22l22.875-.054M212.706-164.24l22.95-.215" fill="none" stroke="#c13c1b" stroke-width=".665" stroke-linecap="round" stroke-linejoin="round" transform="matrix(.97491 0 0 .96682 -54.735 332.581)" />
   </g>
</svg>