<svg xmlns="http://www.w3.org/2000/svg" xmlns:xlink="http://www.w3.org/1999/xlink" width="1055" height="305" viewBox="0 0 2110 610">
    <path d="M316 15h4v455h-4z"/>
    <path d="M269 443.9h36.4c8.2 0 14.6 6.6 14.6 14.7v17.2c0 8.1-11 13.3-16.7 14.7-5.6 1.4-7 4.1-6.9 7.5l2.5 67c.2 4.3 4.5 8.5 8.7 9.3l40.6 9.2c3 .6 5.8 3.8 5.8 6.7v9.5H220.4v-10.3c0-2.6 2.6-5.3 5.2-5.8l41.7-9.3c4.2-.9 8-5.6 8.2-9.8L278 498c0-3.4-1.4-6.1-7-7.5-5.6-1.4-17-6.6-17-14.6v-17.3c0-8.1 6.8-14.7 15-14.7zM920 415h4v50h-4z"/>
    <path d="M935 443.9h36.4c8.2 0 14.6 6.6 14.6 14.7v17.2c0 8.1-11 13.3-16.7 14.7-5.6 1.4-7 4.1-6.9 7.5l2.5 67c.2 4.3 4.5 8.5 8.7 9.3l40.6 9.2c3 .6 5.8 3.8 5.8 6.7v9.5H886.4v-10.3c0-2.6 2.6-5.3 5.2-5.8l41.7-9.3c4.2-.9 8-5.6 8.2-9.8L944 498c0-3.4-1.4-6.1-7-7.5-5.6-1.4-17-6.6-17-14.6v-17.3c0-8.1 6.8-14.7 15-14.7z" fill="#e5c4a1"/>
    <path fill="none" stroke="#e5c4a1" stroke-width="10" d="M320 420h600"/>
    <path d="M1082 375h4v90h-4z"/>
    <path d="M1097 443.9h36.4c8.2 0 14.6 6.6 14.6 14.7v17.2c0 8.1-11 13.3-16.7 14.7-5.6 1.4-7 4.1-6.9 7.5l2.5 67c.2 4.3 4.5 8.5 8.7 9.3l40.6 9.2c3 .6 5.8 3.8 5.8 6.7v9.5h-133.6v-10.3c0-2.6 2.6-5.3 5.2-5.8l41.7-9.3c4.2-.9 8-5.6 8.2-9.8l2.5-66.5c0-3.4-1.4-6.1-7-7.5-5.6-1.4-17-6.6-17-14.6v-17.3c0-8.1 6.8-14.7 15-14.7z" fill="#e65000"/>
    <path fill="none" stroke="#e65000" stroke-width="10" d="M320 380h762"/>
    <path d="M1234 335h4v130h-4z"/>
    <path d="M1249 443.9h36.4c8.2 0 14.6 6.6 14.6 14.7v17.2c0 8.1-11 13.3-16.7 14.7-5.6 1.4-7 4.1-6.9 7.5l2.5 67c.2 4.3 4.5 8.5 8.7 9.3l40.6 9.2c3 .6 5.8 3.8 5.8 6.7v9.5h-133.6v-10.3c0-2.6 2.6-5.3 5.2-5.8l41.7-9.3c4.2-.9 8-5.6 8.2-9.8l2.5-66.5c0-3.4-1.4-6.1-7-7.5-5.6-1.4-17-6.6-17-14.6v-17.3c0-8.1 6.8-14.7 15-14.7z" fill="#e1392f"/>
    <path fill="none" stroke="#e1392f" stroke-width="10" d="M320 340h914"/>
    <path d="M1320 295h4v170h-4z"/>
    <path d="M1335 443.9h36.4c8.2 0 14.6 6.6 14.6 14.7v17.2c0 8.1-11 13.3-16.7 14.7-5.6 1.4-7 4.1-6.9 7.5l2.5 67c.2 4.3 4.5 8.5 8.7 9.3l40.6 9.2c3 .6 5.8 3.8 5.8 6.7v9.5h-133.6v-10.3c0-2.6 2.6-5.3 5.2-5.8l41.7-9.3c4.2-.9 8-5.6 8.2-9.8l2.5-66.5c0-3.4-1.4-6.1-7-7.5-5.6-1.4-17-6.6-17-14.6v-17.3c0-8.1 6.8-14.7 15-14.7z" fill="#c55e8d"/>
    <path fill="none" stroke="#c55e8d" stroke-width="10" d="M320 300h1000"/>
    <g>
        <path d="M1387 255h4v210h-4z"/>
        <path d="M1402 443.9h36.4c8.2 0 14.6 6.6 14.6 14.7v17.2c0 8.1-11 13.3-16.7 14.7-5.6 1.4-7 4.1-6.9 7.5l2.5 67c.2 4.3 4.5 8.5 8.7 9.3l40.6 9.2c3 .6 5.8 3.8 5.8 6.7v9.5h-133.6v-10.3c0-2.6 2.6-5.3 5.2-5.8l41.7-9.3c4.2-.9 8-5.6 8.2-9.8l2.5-66.5c0-3.4-1.4-6.1-7-7.5-5.6-1.4-17-6.6-17-14.6v-17.3c0-8.1 6.8-14.7 15-14.7z" fill="#6a51b7"/>
        <path fill="none" stroke="#6a51b7" stroke-width="10" d="M320 260h1067"/>
    </g>
    <g>
        <path d="M1692 215h4v250h-4z"/>
        <path d="M1707 443.9h36.4c8.2 0 14.6 6.6 14.6 14.7v17.2c0 8.1-11 13.3-16.7 14.7-5.6 1.4-7 4.1-6.9 7.5l2.5 67c.2 4.3 4.5 8.5 8.7 9.3l40.6 9.2c3 .6 5.8 3.8 5.8 6.7v9.5h-133.6v-10.3c0-2.6 2.6-5.3 5.2-5.8l41.7-9.3c4.2-.9 8-5.6 8.2-9.8l2.5-66.5c0-3.4-1.4-6.1-7-7.5-5.6-1.4-17-6.6-17-14.6v-17.3c0-8.1 6.8-14.7 15-14.7z" fill="#3e3d97"/>
        <path fill="none" stroke="#3e3d97" stroke-width="10" d="M320 220h1372"/>
    </g>
    <g>
        <path d="M1755 173h4v290h-4z"/>
        <path d="M1770 443.9h36.4c8.2 0 14.6 6.6 14.6 14.7v17.2c0 8.1-11 13.3-16.7 14.7-5.6 1.4-7 4.1-6.9 7.5l2.5 67c.2 4.3 4.5 8.5 8.7 9.3l40.6 9.2c3 .6 5.8 3.8 5.8 6.7v9.5h-133.6v-10.3c0-2.6 2.6-5.3 5.2-5.8l41.7-9.3c4.2-.9 8-5.6 8.2-9.8l2.5-66.5c0-3.4-1.4-6.1-7-7.5-5.6-1.4-17-6.6-17-14.6v-17.3c0-8.1 6.8-14.7 15-14.7z" fill="#568dd0"/>
        <path fill="none" stroke="#568dd0" stroke-width="14" d="M320 180h1435"/>
    </g>
    <g>
        <path d="M1840 135h4v330h-4z"/>
        <path d="M1855 443.9h36.4c8.2 0 14.6 6.6 14.6 14.7v17.2c0 8.1-11 13.3-16.7 14.7-5.6 1.4-7 4.1-6.9 7.5l2.5 67c.2 4.3 4.5 8.5 8.7 9.3l40.6 9.2c3 .6 5.8 3.8 5.8 6.7v9.5h-133.6v-10.3c0-2.6 2.6-5.3 5.2-5.8l41.7-9.3c4.2-.9 8-5.6 8.2-9.8l2.5-66.5c0-3.4-1.4-6.1-7-7.5-5.6-1.4-17-6.6-17-14.6v-17.3c0-8.1 6.8-14.7 15-14.7z" fill="#305c31"/>
        <path fill="none" stroke="#305c31" stroke-width="10" d="M320 140h1520"/>
    </g>
    <g>
        <path d="M1920 95h4v370h-4z"/>
        <path d="M1935 443.9h36.4c8.2 0 14.6 6.6 14.6 14.7v17.2c0 8.1-11 13.3-16.7 14.7-5.6 1.4-7 4.1-6.9 7.5l2.5 67c.2 4.3 4.5 8.5 8.7 9.3l40.6 9.2c3 .6 5.8 3.8 5.8 6.7v9.5h-133.6v-10.3c0-2.6 2.6-5.3 5.2-5.8l41.7-9.3c4.2-.9 8-5.6 8.2-9.8l2.5-66.5c0-3.4-1.4-6.1-7-7.5-5.6-1.4-17-6.6-17-14.6v-17.3c0-8.1 6.8-14.7 15-14.7z" fill="#5abf56"/>
        <path fill="none" stroke="#5abf56" stroke-width="10" d="M320 100h1600"/>
    </g>
    <g>
        <path d="M1988 55h4v410h-4z"/>
        <path d="M2003 443.9h36.4c8.2 0 14.6 6.6 14.6 14.7v17.2c0 8.1-11 13.3-16.7 14.7-5.6 1.4-7 4.1-6.9 7.5l2.5 67c.2 4.3 4.5 8.5 8.7 9.3l40.6 9.2c3 .6 5.8 3.8 5.8 6.7v9.5h-133.6v-10.3c0-2.6 2.6-5.3 5.2-5.8l41.7-9.3c4.2-.9 8-5.6 8.2-9.8l2.5-66.5c0-3.4-1.4-6.1-7-7.5-5.6-1.4-17-6.6-17-14.6v-17.3c0-8.1 6.8-14.7 15-14.7z" fill="#83dc76"/>
        <path fill="none" stroke="#83dc76" stroke-width="10" d="M320 60h1668"/>
    </g>
    <g>
        <path d="M1996 15h4v450h-4z"/>
        <path d="M2011 443.9h36.4c8.2 0 14.6 6.6 14.6 14.7v17.2c0 8.1-11 13.3-16.7 14.7-5.6 1.4-7 4.1-6.9 7.5l2.5 67c.2 4.3 4.5 8.5 8.7 9.3l40.6 9.2c3 .6 5.8 3.8 5.8 6.7v9.5h-133.6v-10.3c0-2.6 2.6-5.3 5.2-5.8l41.7-9.3c4.2-.9 8-5.6 8.2-9.8l2.5-66.5c0-3.4-1.4-6.1-7-7.5-5.6-1.4-17-6.6-17-14.6v-17.3c0-8.1 6.8-14.7 15-14.7z" fill="#bbdf94"/>
        <path fill="none" stroke="#bbdf94" stroke-width="10" d="M320 20h1676"/>
    </g>
    <text transform="translate(5 30)" font-size="36" font-family="'Courier New',monospace">
        <tspan x="0" y="0">1676 mm 5’6&quot;</tspan><tspan x="0" y="40">1668 mm 5’5⅔&quot;</tspan><tspan x="0" y="80">1600 mm 5’3&quot;</tspan><tspan x="0" y="120">1520 mm 4’11⅚&quot;</tspan><tspan x="0" y="160">1435 mm 4’8½&quot;</tspan><tspan x="0" y="200">1372 mm 4’6&quot;</tspan><tspan x="0" y="240">1067 mm 3’6&quot;</tspan><tspan x="0" y="280">1000 mm 3’3⅜&quot;</tspan><tspan x="0" y="320"> 914 mm 3’</tspan><tspan x="0" y="360"> 762 mm 2’6&quot;</tspan><tspan x="0" y="400"> 600 mm 1’11⅝&quot;</tspan>
    </text>
</svg>
