<svg xmlns="http://www.w3.org/2000/svg" xmlns:xlink="http://www.w3.org/1999/xlink" version="1.1" width="448" height="64" viewBox="0 0 14336 2048">
    <symbol id="范" viewBox="0 0 2048 2048">
        <path d="M1059 -153q-40 -20 -60.5 -26.5t-24.5 -9.5l14 -88q-5 -29 -25.5 -34t-59 38t-55.5 48q-2 0 -62.5 -19.5t-71.5 -19.5q-6 -1 -60 6.5t-65.5 17.5t-12 20t4.5 20q7 16 95.5 46.5t113 37t26.5 11.5t-10 35t-17 31.5t-25 -10.5q-17 -10 -43 -15t-31 -11l-10 -47
q-15 -45 -125 13q-109 56 -162 160t-87.5 189t-52.5 169.5t-9 143.5t45.5 75t82.5 -50.5t51 -67.5q4 -2 102 21.5t114.5 23t22.5 4.5q11 8 7 13l-10 17q-124 10 -186.5 28t-155.5 82t-84.5 103t50.5 47q12 2 49 -9t109 -11l102 -5q60 -1 72 19l4 59l2 18q-1 10 -5.5 17
t-58 20.5t-117.5 125.5t-61 227q1 45 15 74l23 41q15 35 21.5 41.5t21.5 9.5q16 2 64 -20l103 -48l68 -108q87 30 157.5 65.5t113.5 40.5t150 -48q2 45 2.5 67.5t8 61.5t32.5 40t66 -29.5t42 -46.5l17 -100l274 89q26 8 69 -22q37 -27 51 -41.5t16.5 -32.5t-37.5 -44
l-88 -34l-125 -53q3 -10 6 -14l56 -39q31 -26 30 -81q-2 -56 -54.5 -106t-140.5 32q-76 68 -63 121l6 35q-54 -3 -74 11l-60 76l-180 -116l-48 -23l51 -133q4 -13 4 -23q-1 -20 -15.5 -39t-31.5 -21q-22 -4 -88.5 69.5t-68.5 70.5l-80 -59q44 -30 54 -55l21 -69q7 -7 94 11
l79 5q46 3 58 0l62 -37l65 -25q3 -4 13.5 -19t12 -26t-38.5 -32q-17 -10 -172 -65l-157 -54q4 -27 10 -35h135q36 -3 69 -39.5t32 -80.5l-27 -107q-1 -15 6 -50q24 -132 32.5 -160.5t7.5 -48.5q-3 -27 -14 -32h-34l-56 -24q-42 -14 -42.5 -17.5t7.5 -17.5l26 -71q4 -3 56 22
t78 10q12 -8 27 -36.5t0 -37.5l-38 -36v0zM475 343l6 -26q5 -32 10 -37l90 27l124 20l-6 44q-7 54 -13 59t-67 -30l-144 -57v0zM726 196q-48 -16 -113 -29t-65 -28l32 -53q27 -49 35 -47q2 0 15.5 8.5t61.5 23t55 36.5q4 15 -9 51.5t-12 37.5zM941 363q14 61 11 80l-5 37
q-33 -1 -62 -2t-48 -8t-21.5 -11t9.5 -37l13 -54l75 3l28 -8v0zM996 132q-10 50 -14.5 80t-10 35t-55.5 0.5t-52 -9t1 -26.5q7 -67 12 -68l48 10q75 -46 71 -22zM1459 31l6 7q8 35 11 53l15 225q31 90 22 112t-14 22q-4 -1 -17.5 -13t-97 -58t-94.5 -87.5t-6 -84.5
q12 -132 23.5 -193.5t36.5 -99.5l34 -51q9 -18 13 -20q0 -1 33.5 18t39.5 19q20 -1 23.5 -74.5t-75.5 -68.5q-20 1 -51.5 28t-84 94t-76.5 132.5t-29 127.5t-21 72l-42 10q-25 7 -53 47.5t1 104.5q12 27 47 57l105 79l62 53q46 37 98 63t80 26q24 -1 69 -22.5t72 -31
t41 -22.5t15 -68t-25 -96.5t-28 -48.5l-105 -362q-6 -19 -16.5 -26.5t-17.5 -6.5q-7 0 -12 4t-9.5 22.5t-21.5 49t-10 36.5t15 6l21 -18l23 -16v0z" transform="matrix(1 0 0 -1 0 1638)"/>
    </symbol>
    <symbol id="版" viewBox="0 0 2048 2048">
        <path d="M1728 665q-20 -59 -31.5 -86.5t-28.5 -58.5l-68 -119q-3 -5 -29 -57t-32 -73l-23 -88l-23 -57q-14 -51 111 -250l29 -50q19 -34 37 -38l57 -3q14 -10 14 -33q-1 -20 -39.5 -60.5t-155.5 149.5l-116 186q-34 -42 -68 -62t-48 -8.5t-4 43.5l26 43l42 88l-97 251
q-61 156 -65.5 155t-42.5 -22.5t-46.5 -34.5t-3.5 -30l90 -372q15 -65 11 -100t-47 -45t-87 94q-23 53 -37 131l-68 401q-26 130 -23 236t-28 127l-60 24q-26 12 -61 57t-48 77.5t-5 48.5q6 12 48 19t277.5 87t365.5 167.5t141 91.5l87 -9l89 8q17 -2 54 -22.5t40 -61.5
t-46 -109q-21 -29 -32 -38l-67 -38l-270 -168l-281 -99q-19 -7 -27.5 -13.5t-12.5 -56.5l-11 -125l6 -26q75 49 134.5 89t126 60.5t193 -1t156.5 -49.5t17 -69l-20 -101v0zM1432 249l124 362q15 61 23 87t-15 32t-59 -20l-101 -57l-30 -21l-79 -48zM492 399q48 29 111 70.5
t106 35.5q32 -6 56.5 -31.5t27.5 -50t-12.5 -87.5t-15.5 -105q-1 -24 2 -42l33 -220q-9 -28 -26 -43.5t-38 -15t-25 31.5l-51 341q-96 -36 -109 -65l68 -197q3 -14 3 -24q-1 -32 -22.5 -54.5t-68 -23t-85.5 32.5q-32 25 -70.5 109t-45.5 110l-20 89l-30 112q-3 10 -13 90
l-19 116q-7 41 -29.5 274t-16.5 293q3 30 18 68t32 36t42.5 -22.5t35.5 -54.5l81 -299l23 -209l133 74l-13 405q-2 53 14.5 131t41.5 72q9 -3 36 -34t41.5 -135t12.5 -188l-5 -173q2 -29 8 -51l26 -83q8 -45 -7 -69q-14 -22 -61 -37l-88 -28q-33 -14 -71 -47t-26 -55l16 -47
v0z" transform="matrix(1 0 0 -1 0 1638)"/>
    </symbol>
    <symbol id="东" viewBox="0 0 2048 2048">
        <path d="M1070 -64q-11 47 -17.5 74.5t-14 41.5t-29 35.5t-35.5 42t-3 19.5l45 5l-12 55q-77 -33 -79 -35l-68 -45q2 -51 5 -83.5t10.5 -76t16.5 -66.5l21 -56l9 -35q10 -38 0 -53.5t-62 25.5q-17 12 -47 73t-35.5 93.5t-6.5 78t-9 64.5t-88 71.5t-179.5 201.5t-134 224.5
t-41.5 162.5l-6 233q-21 127 -1.5 144.5t40 21t85.5 -55.5q54 -51 62 -70l44 -122q17 -6 30 -3l387 82l-4 57q-77 -8 -159.5 -10t-201 30t-172.5 75t-68.5 66.5t-28.5 65.5t-15.5 58t4 22t32.5 5h57l163 -29q48 -9 151 5.5t178 19t90 22.5t20.5 68t19 56t47.5 -41l40 -58
q16 -14 163 18l96 15q71 16 81 16q23 -2 88 -43t74.5 -51t32.5 -63.5t22 -79.5t-52 -36l-490 -100l-15 -66q277 45 318 47t67 1q118 -7 153.5 -44.5t51 -72t20.5 -60.5t-66 -120q-27 -36 -92 -142.5t-61 -140.5q0 -8 4.5 -25.5t4.5 -23.5l-9 -41l6 -49q-2 -23 -23.5 -23.5
t-58.5 58.5l-328 -122l8 -113l246 -145l178 -126q8 4 34.5 31.5t38.5 23t15 -35t1 -75t-24.5 -43.5t-86.5 56t-95 69l-291 122q1 -53 6 -76t24.5 -73.5t17.5 -85.5q-2 -20 -9.5 -25t-14.5 2q-12 9 -22 35l-35 84zM965 617q8 85 6 103l-9 98l-279 -104q-64 -24 -72.5 -53
t12.5 -63t39.5 -42t84.5 10t218 51zM984 341q0 55 -2 70l-6 40q-118 -35 -119 -35l-78 -30q17 -32 29.5 -63t23.5 -35l58 21l94 32v0zM1088 373q105 27 183 60t120 41.5t49 17t15.5 41.5t3 40.5t-36.5 7.5q-51 -1 -92 -11l-196 -63q-38 -10 -42 -15.5t-4 -79.5v-39z
M1081 655q280 68 303 63l99 -30q31 8 51 76t31.5 87.5t17 43t-102.5 24.5q-20 0 -39 -4l-166 -40q-174 -5 -178 -23q-2 -6 0 -46l-11 -101z" transform="matrix(1 0 0 -1 0 1638)"/>
    </symbol>
    <symbol id="幻" viewBox="0 0 2048 2048">
        <path d="M455 794l-6 -65l262 168q11 7 16 31l-44 242q-4 21 -5 60t17 57t30 17q6 -2 20 -15l33 -31q20 -23 45.5 -111t27.5 -102l3 -73q2 -34 22.5 -102.5t44.5 -167t25 -123t-11 -37.5t-54 -11.5t-119 145.5q-41 -37 -92 -78.5t-67.5 -57t-27 -38t7.5 -176.5l5 -151l22 -95
q8 -5 24 -11.5t65.5 90t51.5 104.5q6 34 -53.5 116t-53.5 125q3 24 30.5 45t72.5 -70q119 -245 139 -293.5t32 -68.5l91 -158q4 -17 4 -30q-1 -19 -21 -42t-73 44q-52 64 -73.5 115.5t-30.5 53.5t-48 -81l-37 -68q-28 -56 -42 -77t-55 -23.5t-96 47.5t-65 204l-17 249
q-2 25 -22 41l-87 20q-56 17 -96.5 120t-31.5 256q3 55 23 168t57.5 205t96.5 205t128 111q43 -2 74 -49.5t34.5 -88t-20.5 -108.5zM1777 218l35 -325q0 -5 -2.5 -39.5t-58.5 -42.5l-105 15q-135 8 -152 19.5t-10 27.5q7 19 86.5 28t97.5 26t4 107q-8 46 -10.5 195.5
t-7 227.5t2.5 174.5t-22 90.5q-8 -2 -22.5 -10.5t-105.5 -66t-177 -95.5t-202.5 -63.5t-132.5 -0.5t-15 56q0 16 6 34t117.5 104.5t256 168t286.5 78.5q92 -3 152 -46t57 -112l-27 -98l-51 -453v0z" transform="matrix(1 0 0 -1 0 1638)"/>
    </symbol>
    <symbol id="异" viewBox="0 0 2048 2048">
        <path d="M1279 535q-20 -6 -146 -44t-254 -59.5t-170 -18.5q-123 6 -183 77t-81 137.5t-42 152.5l-72 290q-23 93 -39.5 142t-12.5 72q6 31 31 49.5t79 29.5l233 48q100 20 330 29t278 9l174 -1q158 -1 232 -78t74 -136q-1 -44 -21.5 -75t-59 -68t-39.5 -52l44 -71q6 -12 6 -21
q-1 -14 -12 -24l-93 -30l-30 -42q-5 -3 -12 -2q-9 0 -15 3l-33 27q-11 6 -30 8q-30 2 -110 -16l-94 -20l-95 -27q-6 -2 -187 -31l-377 -57q7 -124 46 -163t116 -41q19 -1 68 5l136 15q14 2 167 32t207.5 65t81.5 69l37 53q23 30 57.5 32.5t39.5 -30t-8 -60.5
q-43 -91 -58 -100l-79 -58zM563 879q2 -2 369 63t449.5 87.5t88.5 26.5l28 70l46 95q-10 26 -73 3q-62 -23 -218.5 -23.5t-392.5 -31.5l-289 -31q-54 -7 -62 -20.5t10 -62.5l44 -176v0zM1257 228l236 49l47 13q27 4 71.5 -10t79 -35.5t35 -36.5t-10 -27.5t-26.5 -15.5
l-434 -89l24 -294q3 -45 -35.5 -50.5t-60.5 69t-26 114.5l-16 146l-202 -37q25 -71 35 -91.5t33 -62.5t26.5 -79.5t-39.5 -33.5q-17 1 -39 20t-51.5 70.5t-45 100.5t-22.5 52l-37 -4l-234 -20q-122 -11 -159.5 24.5t-31.5 57.5q4 16 22.5 25t83.5 17l243 29l73 13l-39 144
q-11 36 -12 72.5t37 34.5q19 -2 30 -15.5t16.5 -32.5t31.5 -91l34 -97q123 19 238 37q-4 89 -3.5 126.5t3 70t6.5 53.5t14.5 32t49.5 11.5t47 -84.5l6 -134l2 -41v0z" transform="matrix(1 0 0 -1 0 1638)"/>
    </symbol>
    <symbol id="闻" viewBox="0 0 2048 2048">
        <path d="M1236 1291l234 126q143 77 216.5 69t101.5 -37t29 -74t1 -56l-14 -339l10 -512q-4 -102 -31.5 -128t-46.5 -26.5t-30 14.5l17 100v9q-1 18 -2.5 30.5t-9.5 66t-14 118t-6 67.5l-15 74q-37 -13 -126 -41t-184 -63q50 5 71.5 0t52 -27t27.5 -57q-6 -51 -107 -85t-114 -40.5
t-21.5 -16.5t-2.5 -64q1 -15 2 -37l2 -119q3 -142 28 -209l15 -43q34 3 51 7l39 7q39 5 63 -7q19 -12 19.5 -33t-7.5 -31q-4 -6 -24 -20t-25 -15l-51 -18q28 -54 28.5 -70t0.5 -18q-1 -26 -22.5 -49t-56.5 6q-17 13 -30 39l-37 69q-52 -10 -77 -14l-194 -42
q-120 -26 -142 -23q-29 3 -47 20.5t-18.5 39t16.5 37.5q11 11 39 18l37 8l60 14q-26 82 -43 132t-21 68t-11 76l-19 147q-59 4 -78 9.5t-161 60.5q29 -122 44.5 -177t25 -108t-13.5 -63t-58 19q-6 4 -29 36.5t-47.5 59.5t-47.5 56t-48.5 86.5t-85 220.5t-79 242t-27.5 181.5
t-8 144t1 71.5l7 122q0 49 4 73t20.5 38.5t63 17t99.5 -48.5q28 -29 35 -59l6 -52q3 -12 140 -12.5t181.5 -29t61.5 -46.5t18 -74q0 -20 -3 -40l-35 -197l8 -54q5 -56 9 -64l29 -40q8 -14 11 -28q10 -70 -138 -157l443 133q-60 70 -89 119t-40 94.5t-29 143.5t-18.5 114.5
t5.5 70.5q12 119 25 170t81 49q64 -3 74 -45l32 -85v0zM480 989l108 11q110 -8 124 8l20 36q20 35 19.5 52.5t-41.5 33.5l-122 -22q-114 -16 -117.5 -24t2.5 -51.5t7 -43.5zM545 624l47 14q108 27 117.5 43t0.5 99t-14.5 86.5t-95.5 -29.5q-75 -28 -82 -35t-12 -28t30 -120
l9 -30v0zM978 375l16 -69l148 47l-8 66zM1007 199l17 -81l107 32q45 13 47 18l-4 24l-9 48zM1203 61q-36 -3 -52.5 -6.5t-39 -11.5t-42.5 -11t-23 -6q-11 -10 5 -51l14 -39q83 11 161 28zM1219 1086l278 53l171 16q6 10 8 84l5 72q0 43 -13 53t-65 -21q-124 -73 -166 -89
l-207 -84zM1392 840l197 58q86 25 87 24l-7 91q-29 -6 -43 -7l-142 -14q-65 -10 -249 -68q30 -62 66 -115z" transform="matrix(1 0 0 -1 0 1638)"/>
    </symbol>
    <symbol id="录" viewBox="0 0 2048 2048">
        <path d="M815 324q9 47 41.5 49.5t55.5 -19.5t21 -74t-47.5 -57.5t-58.5 47t-12 54.5zM279 591q-12 22 -19 32l-39 43q-19 27 -14 108t10 111.5t74 150.5l155 270q27 47 73 78.5t85.5 32.5t103.5 -66t60 -139q-1 -11 -8.5 -39.5t-6.5 -32.5q3 -15 11.5 -22t73 -30.5t84.5 -50.5
t20.5 -58.5t-50.5 -46.5q-12 -4 -68.5 15.5t-111.5 26.5t-78 5q-22 -3 -37 -9.5t-77 -102.5l-72 -121q82 34 197.5 94.5t181.5 45.5q63 -15 63 -68q-1 -35 -35 -57l-100 -46q-25 -16 -41.5 -41t-15.5 -54q0 -27 17 -28q6 -1 56 23.5t70.5 32t36.5 -7.5l27 -45q13 -12 65 9
q49 19 84 31.5t263.5 85.5t250 99.5t28.5 58.5t-0.5 36.5t-18.5 2t-82 -48.5l-85 -55q-147 -96 -238.5 -81t-126 52.5t-49 79t-12.5 108.5q1 61 22 154t74 186.5t61.5 125.5t15.5 45.5t39.5 32t48.5 19.5q2 0 30 -4t43.5 -11.5t20.5 -45.5l-20 -163q-1 -3 -0.5 -21.5
t7.5 -27.5q7 -11 66 10t153 14q71 -6 101.5 -13.5t64 -41t33 -67.5t-1.5 -42l-68 -283q121 -21 121.5 -61.5t-16.5 -54.5l-102 -17l-266 -108l-90 -45q-2 -7 -2.5 -11.5t2.5 -13.5l17 -56q23 -91 25 -93l33 -54q8 -22 13 -21l13 6l257 104q105 42 162 35.5t66 -37t-71 -67.5
l-271 -140q-29 -14 -63 -27.5t-44 -21.5l83 -283q4 -18 4.5 -46t-23 -52t-72.5 -23.5t-85.5 33t-35.5 60.5q0 21 11 30l96 -27q10 7 10.5 21t-21.5 85q-18 54 -24.5 62t-14.5 3q-3 -2 -8.5 -11.5t-30.5 -29.5l-46 -49q-22 -21 -85.5 -54t-161.5 -27q-42 2 -55 17.5t-16 51.5
t11 50q3 3 59 15l116 72l74 31q45 19 72 21.5t27.5 7.5t-3.5 13q-16 29 -28.5 35.5t-31.5 7.5q-13 0 -48 -4.5t-50 -2.5l-76 8l-19 -3l-40 18q6 -8 10.5 -15t6 -21t-12.5 -35q-6 -8 -70 -65l-36 -34q-23 -19 -91.5 -60t-134 -89.5t-113 -57t-63.5 9t-10 48.5q3 18 30.5 54
t23.5 51q-2 6 -43 34t-69.5 112t-53.5 90l-106 -52q-27 -13 -52 -12q-40 0 -62 20.5t-27 45t60 75.5q42 32 194 116t160.5 99t9 30.5t-10 34t-27.5 18.5q-8 -1 -29 -14t-38.5 -18.5t-129.5 20.5zM518 256q0 -3 19.5 -50t46.5 -80l71 -79q34 -46 42 -19t-14 70
q-11 19 -17.5 56t-23 104t-30.5 69q-6 0 -43.5 -22.5t-44.5 -32t-6 -16.5zM1020 195q-40 18 -47.5 32.5t-6.5 26.5q1 69 55 62l66 1q43 8 107.5 2.5t69 2.5t-17.5 80l-19 62q-23 53 -35 42l-35 -20l-75 -30q-63 -6 -88 -5.5t-53.5 16.5t-28.5 26l-12 63q-47 -40 -94.5 -74.5
t-60 -56.5t-13 -35t3.5 -32q25 -147 40.5 -203.5t45.5 -57.5l70 50l128 48v0zM1163 906l226 94q122 51 170 49t53 -2l15 -3q14 -1 20.5 48.5t6.5 53.5q-2 41 -47 42q-70 0 -104 -3l-152 -42q-80 -16 -95 -27.5t-43 -80.5l-50 -129v0zM1590 16q2 33 23 59t83.5 29.5t88 -19
t29 -66.5t-19.5 -79.5t-26 -37.5l-49 15h-60q-15 2 -37 22t-27.5 45.5t-4.5 31.5z" transform="matrix(1 0 0 -1 0 1638)"/>
    </symbol>
    <use width="2048" height="2048" x="0" y="0" xlink:href="#范"/>
    <use width="2048" height="2048" x="2048" y="0" xlink:href="#版"/>
    <use width="2048" height="2048" x="4096" y="0" xlink:href="#东"/>
    <use width="2048" height="2048" x="6144" y="0" xlink:href="#幻"/>
    <use width="2048" height="2048" x="8192" y="0" xlink:href="#异"/>
    <use width="2048" height="2048" x="10240" y="0" xlink:href="#闻"/>
    <use width="2048" height="2048" x="12288" y="0" xlink:href="#录"/>
</svg>
