<svg xmlns="http://www.w3.org/2000/svg" width="200" height="200" viewBox="0 0 547.415 547.415">
    <path fill="none" stroke="#00f" stroke-width="10" d="M506.172 369.518L369.787 505.92l-192.89.012L40.494 369.548l-.013-192.89L176.867 40.255l192.89-.013L506.16 176.628l.012 192.89z"/>
    <g fill="red" stroke="yellow" stroke-linejoin="round" stroke-width="2">
        <path d="M195.384 61.184h154.4l-8.591 19.96H203.615l-8.23-19.96zm14.296 34.128l55.03-.084-.047 20.346h-46.15l-8.832-20.262zm125.807.008l-54.78-.083.048 20.345h46.149l8.583-20.261zm-110.326 35.912h94.845l-8.915 20.527h-77.483l-8.447-20.527zM67.935 177.208L177.112 68.03l8.038 20.188L87.868 185.5l-19.933-8.293zM138.707 205.078l27.384-27.384 14.937 14.986-21.093 21.094-21.228-8.696zm66.453-66.098l-27.385 27.384 14.986 14.937 21.094-21.094-8.696-21.227zM102.868 190.717l87.93-87.576 8.155 20.002-75.933 75.933-20.152-8.36zM59.805 196.654v69.4l19.96-.342v-60.827l-19.96-8.231zM59.461 351.7v-69.4l19.96.34v60.828L59.46 351.7zm35.055-140.427l-.084 55.03 20.346-.048v-46.148l-20.262-8.834zm.009 125.807l-.084-54.78 20.346.048v46.149l-20.262 8.583zm35.911-110.326v94.845l20.527-8.916v-77.482l-20.527-8.447zM177.9 475.435L68.725 366.258l20.188-8.039 97.282 97.282-8.293 19.934zM191.924 441.194l-38.972-38.853 14.42-14.353 32.633 32.633-8.081 20.573zm-88.953-88.965l38.677 38.795L156 376.603l-32.632-32.632-20.397 8.258zM205.404 405.03l-27.384-27.384 14.986-14.937 21.093 21.093-8.695 21.228zm-66.098-66.452l27.384 27.384 14.937-14.986-21.094-21.094-21.227 8.696zM225.72 414.834h38.727l-.034-21.159h-29.831l-8.862 21.159zm93.727-.25H280.72l.035-21.159h29.831l8.861 21.159zM195.06 484.648h69.4l-.34-19.96h-60.828l-8.231 19.96zm155.047.344h-69.4l.341-19.96h60.828l8.23 19.96zM210.533 450.272l124.101-.25-8.377-19.91H218.873l-8.34 20.16zM477.722 368.641L368.545 477.818l-8.038-20.188 97.282-97.282 19.933 8.293zm-70.587-28.475L340.07 407.23l-8.21-20.819 54.788-54.788 20.487 8.542zm35.48 14.793l-87.93 87.575-8.155-20.002 75.932-75.933 20.153 8.36zM416.925 321.6v-94.846l-20.527 8.916v77.482l20.527 8.447zm69.924 30.1v-69.4l-19.96.341v60.827l19.96 8.232zm.343-155.046v69.4l-19.959-.342v-60.827l19.96-8.231zm-34.719 139.573l-.25-124.101-19.91 8.377v107.385l20.16 8.34zM353.37 101.83l38.972 38.853-14.421 14.353-32.632-32.633 8.081-20.573zm88.952 88.965L403.646 152l-14.352 14.42 32.632 32.633 20.396-8.258zM339.89 137.994l27.384 27.384-14.986 14.937-21.094-21.094 8.696-21.227zm66.098 66.452l-27.384-27.384-14.937 14.986 21.094 21.093 21.227-8.695zM367.077 67.448l49.072 49.073-14.354 13.873-43.012-43.012 8.294-19.934zM476.954 176.84l-49.073-49.073-13.873 14.354 43.012 43.011 19.934-8.293z"/>
    </g>
    <g fill-rule="evenodd">
        <path fill="#fff" stroke="gold" stroke-width="10" d="M255.837 355.11c-48.817-8.781-80.01-66.003-60.925-111.797 16.116-46.773 77.124-68.962 119.5-43.36 43.778 22.873 56.74 86.32 25.265 124.45-19.135 25.15-52.962 37.664-83.84 30.708z"/>
        <path d="M273.387 192.356c-44.168 0-80.03 35.863-80.03 80.032 0-22.085 17.946-40 40.03-40 21.99 0 39.849 17.764 40 39.718v.282c.152 21.954 18.01 39.718 40 39.718s39.849-17.764 40-39.718V272.106c-.152-44.038-35.926-79.75-80-79.75z"/>
        <path d="M243.553 272.862a10.002 10.002 0 1 0-20.003 0 10.002 10.002 0 1 0 20.003 0z"/>
        <path fill="#fff" d="M323.568 272.862a10.002 10.002 0 1 0-20.003 0 10.002 10.002 0 1 0 20.003 0z"/>
    </g>
</svg>
