<svg xmlns="http://www.w3.org/2000/svg" viewBox="0 0 2600 400" height="80" width="520">
   <path class="prefix__StaffLines" fill="none" stroke="#000" stroke-width="2.73" stroke-linejoin="bevel" d="M22.123 86.164h2551.182M22.123 110.964h2551.182M22.123 135.774h2551.182M22.123 160.574h2551.182M22.123 185.374h2551.182" />
   <path class="prefix__MeasureNumber" d="M37.842 22.884c-.687 3.16-1.406 5.08-2.562 7.32-1.953 3.64-4.032 5.28-6.844 5.28-1.156 0-1.906-.49-1.906-1.21 0-.28.078-.39.39-.87.407-.52.61-1 .61-1.56 0-1.32-1.047-2.32-2.407-2.32-1.593 0-2.718 1.19-2.718 2.96 0 2.72 2.562 4.67 6.125 4.67 3.187 0 6.156-1.39 8.593-4.19 3.485-3.89 5.75-9.69 5.75-14.61 0-6.23-3-9.95-7.953-9.95a9.75 9.75 0 00-7.562 3.59c-1.797 2.21-2.828 5-2.828 7.61 0 3.8 2.906 6.67 6.797 6.67 2.64 0 4.671-1.07 6.515-3.39m-2.953-12.79c2.547 0 4.188 2.03 4.188 5.23 0 4.95-2.719 8.59-6.39 8.59-2.532 0-3.923-1.71-3.923-4.71 0-2.36.563-4.49 1.641-6.29 1.203-1.92 2.64-2.82 4.484-2.82" />
   <path class="prefix__BarLine" fill="none" stroke="#000" stroke-width="4.46" stroke-linejoin="bevel" d="M828.895 84.804v101.94M1462.315 84.804v101.94M2077.185 84.804v101.94M2571.075 84.804v101.94" />
   <path class="prefix__LedgerLine" fill="none" stroke="#000" stroke-width="3.97" stroke-linejoin="bevel" d="M212.395 234.984h49.598M212.395 210.184h49.598M299.516 210.184h49.6M386.638 234.984h49.6M386.638 210.184h49.6M473.76 234.984h49.6M473.76 210.184h49.6M560.882 210.184h49.6M1043.495 210.184h49.59M2320.325 210.184h49.6M2395.275 234.984h49.6M2395.275 210.184h49.6" />
   <path class="prefix__Stem" fill="none" stroke="#000" stroke-width="2.73" stroke-linejoin="bevel" d="M251.948 231.814v-96.04M339.07 207.004v-71.23M426.192 244.214v-108.44M513.313 231.814v-96.04M600.435 207.004v-89.84M770.408 194.604v-83.64M916.225 182.204v-71.24M999.385 194.604v-81.57M1083.045 207.004v-91.89M1165.435 194.604v-77.44M1247.825 157.404v-71.24M1408.565 182.204v-71.24M1551.145 194.604v-77.44M1681.655 182.204v-71.24M1812.175 182.204v-89.84M1942.685 157.404v-80.3M2024.255 144.994v-77.43M2165.025 194.604v-77.44M2284.935 194.604v-77.44M2359.885 207.004v-89.84M2434.825 231.814v-96.04" />
   <path class="prefix__Note" d="M252.328 226.954c-1.782-3.286-5.55-5.069-10.123-5.069-3.363 0-7.037.992-10.618 2.883-6.542 3.473-10.51 9.317-10.51 14.386 0 1.38.294 2.775.991 4.062 1.783 3.27 5.55 4.96 10.123 4.96 3.364 0 7.038-.883 10.62-2.774 6.54-3.473 10.51-9.333 10.51-14.386 0-1.395-.295-2.775-.993-4.062M339.45 202.154c-1.782-3.286-5.55-5.069-10.122-5.069-3.364 0-7.038.992-10.62 2.883-6.541 3.473-10.51 9.317-10.51 14.386 0 1.38.295 2.775.992 4.062 1.783 3.27 5.55 4.96 10.123 4.96 3.364 0 7.038-.883 10.62-2.774 6.54-3.473 10.51-9.333 10.51-14.386 0-1.395-.295-2.775-.993-4.062M426.571 239.354c-1.782-3.286-5.55-5.069-10.123-5.069-3.363 0-7.037.992-10.618 2.883-6.542 3.473-10.51 9.317-10.51 14.386 0 1.38.294 2.775.991 4.062 1.783 3.27 5.55 4.96 10.123 4.96 3.364 0 7.038-.883 10.62-2.774 6.54-3.473 10.51-9.333 10.51-14.386 0-1.395-.295-2.775-.993-4.062M513.693 226.954c-1.782-3.286-5.55-5.069-10.122-5.069-3.364 0-7.038.992-10.62 2.883-6.541 3.473-10.51 9.317-10.51 14.386 0 1.38.295 2.775.992 4.062 1.783 3.27 5.55 4.96 10.123 4.96 3.364 0 7.038-.883 10.62-2.774 6.54-3.473 10.51-9.333 10.51-14.386 0-1.395-.295-2.775-.993-4.062M600.815 202.154c-1.782-3.286-5.55-5.069-10.123-5.069-3.363 0-7.037.992-10.618 2.883-6.542 3.473-10.51 9.317-10.51 14.386 0 1.38.294 2.775.991 4.062 1.783 3.27 5.55 4.96 10.123 4.96 3.364 0 7.038-.883 10.62-2.774 6.54-3.473 10.51-9.333 10.51-14.386 0-1.395-.295-2.775-.993-4.062M770.788 189.754c-1.782-3.286-5.55-5.069-10.122-5.069-3.364 0-7.038.992-10.62 2.883-6.541 3.473-10.51 9.317-10.51 14.386 0 1.38.295 2.775.992 4.062 1.783 3.27 5.55 4.96 10.123 4.96 3.364 0 7.038-.883 10.62-2.774 6.54-3.473 10.51-9.333 10.51-14.386 0-1.395-.295-2.775-.993-4.062M916.597 177.344c-1.782-3.286-5.55-5.069-10.122-5.069-3.364 0-7.038.992-10.62 2.883-6.541 3.473-10.51 9.317-10.51 14.386 0 1.38.295 2.775.992 4.062 1.783 3.27 5.55 4.96 10.123 4.96 3.364 0 7.038-.883 10.62-2.774 6.54-3.473 10.51-9.333 10.51-14.386 0-1.395-.295-2.775-.993-4.062M999.767 189.754c-1.783-3.286-5.55-5.069-10.123-5.069-3.363 0-7.037.992-10.618 2.883-6.542 3.473-10.51 9.317-10.51 14.386 0 1.38.294 2.775.991 4.062 1.783 3.27 5.55 4.96 10.123 4.96 3.364 0 7.038-.883 10.62-2.774 6.54-3.473 10.51-9.333 10.51-14.386 0-1.395-.295-2.775-.993-4.062M1083.427 202.154c-1.782-3.286-5.55-5.069-10.122-5.069-3.364 0-7.038.992-10.62 2.883-6.541 3.473-10.51 9.317-10.51 14.386 0 1.38.295 2.775.992 4.062 1.783 3.27 5.55 4.96 10.123 4.96 3.364 0 7.038-.883 10.62-2.774 6.54-3.473 10.51-9.333 10.51-14.386 0-1.395-.295-2.775-.993-4.062M1165.817 189.754c-1.783-3.286-5.55-5.069-10.123-5.069-3.363 0-7.037.992-10.618 2.883-6.542 3.473-10.51 9.317-10.51 14.386 0 1.38.294 2.775.991 4.062 1.783 3.27 5.55 4.96 10.123 4.96 3.364 0 7.038-.883 10.62-2.774 6.54-3.473 10.51-9.333 10.51-14.386 0-1.395-.295-2.775-.993-4.062M1248.207 152.544c-1.783-3.286-5.55-5.069-10.123-5.069-3.363 0-7.037.992-10.618 2.883-6.542 3.473-10.51 9.317-10.51 14.386 0 1.38.294 2.775.991 4.062 1.783 3.27 5.55 4.96 10.123 4.96 3.364 0 7.038-.883 10.62-2.774 6.54-3.473 10.51-9.333 10.51-14.386 0-1.395-.295-2.775-.993-4.062M1408.947 177.344c-1.782-3.286-5.55-5.069-10.122-5.069-3.364 0-7.038.992-10.62 2.883-6.541 3.473-10.51 9.317-10.51 14.386 0 1.38.295 2.775.992 4.062 1.783 3.27 5.55 4.96 10.123 4.96 3.364 0 7.038-.883 10.62-2.774 6.54-3.473 10.51-9.333 10.51-14.386 0-1.395-.295-2.775-.993-4.062M1551.527 189.754c-1.783-3.286-5.55-5.069-10.123-5.069-3.363 0-7.037.992-10.618 2.883-6.542 3.473-10.51 9.317-10.51 14.386 0 1.38.294 2.775.991 4.062 1.783 3.27 5.55 4.96 10.123 4.96 3.364 0 7.038-.883 10.62-2.774 6.54-3.473 10.51-9.333 10.51-14.386 0-1.395-.295-2.775-.993-4.062M1682.037 177.344c-1.783-3.286-5.55-5.069-10.123-5.069-3.363 0-7.037.992-10.618 2.883-6.542 3.473-10.51 9.317-10.51 14.386 0 1.38.294 2.775.991 4.062 1.783 3.27 5.55 4.96 10.123 4.96 3.364 0 7.038-.883 10.62-2.774 6.54-3.473 10.51-9.333 10.51-14.386 0-1.395-.295-2.775-.993-4.062M1812.557 177.344c-1.783-3.286-5.55-5.069-10.123-5.069-3.363 0-7.037.992-10.618 2.883-6.542 3.473-10.51 9.317-10.51 14.386 0 1.38.294 2.775.991 4.062 1.783 3.27 5.55 4.96 10.123 4.96 3.364 0 7.038-.883 10.62-2.774 6.54-3.473 10.51-9.333 10.51-14.386 0-1.395-.295-2.775-.993-4.062M1943.067 152.544c-1.783-3.286-5.55-5.069-10.123-5.069-3.363 0-7.037.992-10.618 2.883-6.542 3.473-10.51 9.317-10.51 14.386 0 1.38.294 2.775.991 4.062 1.783 3.27 5.55 4.96 10.123 4.96 3.364 0 7.038-.883 10.62-2.774 6.54-3.473 10.51-9.333 10.51-14.386 0-1.395-.295-2.775-.993-4.062M2024.637 140.144c-1.782-3.286-5.55-5.069-10.122-5.069-3.364 0-7.038.992-10.62 2.883-6.541 3.473-10.51 9.317-10.51 14.386 0 1.38.295 2.775.992 4.062 1.783 3.27 5.55 4.96 10.123 4.96 3.364 0 7.038-.883 10.62-2.774 6.54-3.473 10.51-9.333 10.51-14.386 0-1.395-.295-2.775-.993-4.062M2165.397 189.754c-1.782-3.286-5.55-5.069-10.122-5.069-3.364 0-7.038.992-10.62 2.883-6.541 3.473-10.51 9.317-10.51 14.386 0 1.38.295 2.775.992 4.062 1.783 3.27 5.55 4.96 10.123 4.96 3.364 0 7.038-.883 10.62-2.774 6.54-3.473 10.51-9.333 10.51-14.386 0-1.395-.295-2.775-.993-4.062M2285.317 189.754c-1.782-3.286-5.55-5.069-10.122-5.069-3.364 0-7.038.992-10.62 2.883-6.541 3.473-10.51 9.317-10.51 14.386 0 1.38.295 2.775.992 4.062 1.783 3.27 5.55 4.96 10.123 4.96 3.364 0 7.038-.883 10.62-2.774 6.54-3.473 10.51-9.333 10.51-14.386 0-1.395-.295-2.775-.993-4.062M2360.257 202.154c-1.782-3.286-5.55-5.069-10.122-5.069-3.364 0-7.038.992-10.62 2.883-6.541 3.473-10.51 9.317-10.51 14.386 0 1.38.295 2.775.992 4.062 1.783 3.27 5.55 4.96 10.123 4.96 3.364 0 7.038-.883 10.62-2.774 6.54-3.473 10.51-9.333 10.51-14.386 0-1.395-.295-2.775-.993-4.062M2435.207 226.954c-1.782-3.286-5.55-5.069-10.122-5.069-3.364 0-7.038.992-10.62 2.883-6.541 3.473-10.51 9.317-10.51 14.386 0 1.38.295 2.775.992 4.062 1.783 3.27 5.55 4.96 10.123 4.96 3.364 0 7.038-.883 10.62-2.774 6.54-3.473 10.51-9.333 10.51-14.386 0-1.395-.295-2.775-.993-4.062" />
   <path class="prefix__Clef" d="M104.827 154.699c-1.225-5.38-3.845-9.177-4.62-10.2-3.162-4.248-7.146-7.07-11.797-8.418-3.085-.868-6.061-.992-8.464-.806a2314.672 2314.672 0 01-2.93-17.207c5.41-6.123 9.007-11.875 11.27-16.138 3.442-6.526 4.573-11.068 4.635-11.27 1.705-5.177 2.062-12.82.961-20.958-.992-7.488-3.069-14.153-5.41-17.378-1.007-1.41-2.062-2.14-3.085-2.14-1.209 0-3.705 1.226-6.573 3.985-2.278 2.17-5.518 6.03-8.06 11.998-2.977 7.007-3.194 16.417-2.837 23.083.372 7.224 1.472 12.866 1.488 12.913.015.093.279 1.581.713 4.123-.217.233-.465.45-.713.698-1.023.992-2.202 2.108-3.581 3.488-.853.853-1.798 1.752-2.79 2.713-8.372 8.076-21.068 20.307-21.068 39.313 0 4.666.9 9.053 2.667 13.037 1.565 3.565 3.844 6.82 6.758 9.673 7.674 7.503 18.184 10.681 25.176 10.526 2.93-.077 5.55-.31 7.921-.76 1.814 9.534 2.946 16.51 2.977 21.812.046 6.464-1.597 10.417-5.457 13.16-2.418 1.722-5.209 2.667-8.278 2.807-2.573.124-4.821-.341-6.232-.744h-.015s-.28-.093-.295-.28c-.016-.185.341-.232.341-.232h.031c1.907-.434 5.441-1.659 7.782-4.93 1.783-2.51 2.65-7.1.822-11.006-1.101-2.372-3.581-5.302-9.162-5.751-2.48-.202-4.728.31-6.712 1.503-1.799 1.07-3.287 2.698-4.325 4.682-2.434 4.666-1.985 10.355 1.116 14.169 2.945 3.596 7.518 5.89 12.913 6.464.852.093 1.69.124 2.527.124 4.402 0 8.758-1.193 12.308-3.38 3.628-2.557 5.736-6.51 6.403-12.09.558-4.605.17-10.48-1.21-18.495-.356-2.077-.899-5.084-1.55-8.805 5.705-1.906 9.828-5.456 13.564-11.27 3.271-5.689 4.201-11.75 2.79-18.013m-33.949 26.012c-4.604-1.209-9.006-3.69-12.727-7.177-1.302-1.21-3.162-3.364-4.62-6.728-1.348-3.147-2.015-6.557-1.953-10.107.062-4.666 1.365-9.456 3.845-14.2 2.899-5.534 7.425-11.022 13.44-16.308a89.216 89.216 0 004.077-3.814c.76 4.232 1.581 8.883 2.45 13.72-3.814 1.255-8.527 4.387-11.611 9.998-3.52 6.511-3.38 11.999-2.651 15.456.93 4.418 3.441 8.154 6.867 10.231.93.558 5.023 2.667 6.852 2.093a1.16 1.16 0 00.775-.667c.512-1.162-.512-1.798-2.046-2.743a27.278 27.278 0 01-1.984-1.318c-3.302-2.465-4.744-6.883-3.674-11.239a12.438 12.438 0 013.674-6.216c1.643-1.535 3.673-2.62 6.03-3.256 2.03 11.162 4.077 22.23 5.704 30.524.124.682.264 1.348.388 2.015-4.34.93-8.65.837-12.836-.264m11.24-32.941c10.262-.465 14.494 6.914 15.377 11.704.465 2.526.465 6.929-1.07 11.115-1.162 3.146-3.596 7.193-8.696 9.239-.062-.419-.14-.853-.217-1.271-1.535-8.713-3.457-19.626-5.395-30.787m-7.27-70.395c1.767-5.689 4.48-8.913 6.464-10.634 1.736-1.504 3.364-2.217 4.279-2.217.14 0 .263.031.356.062.465.14.992.698 1.458 1.566 2.294 4.247 1.55 10.913.216 15.316-1.612 5.363-4.51 10.929-13.238 20.462-.17-1.1-.326-2.139-.48-3.116-1.24-8.216-.915-15.44.945-21.439" />
   <path class="prefix__KeySig" d="M150.186 127.93c-.59-3.86-2.977-7.534-8.03-7.534-4.96 0-7.844 3.07-8.34 3.674l.403-31.856c0-.79-.59-1.38-1.395-1.38h-1.179c-.806 0-1.395.59-1.395 1.38l.496 59.636c0 .79.59 1.38 1.396 1.38.186 0 .589-.094.79-.186.388-.202 6.837-3.38 12.2-9.426 3.767-4.278 5.255-9.13 5.255-13.207 0-.884-.093-1.675-.201-2.48m-6.837 3.875c0 1.488-.403 6.046-2.883 9.828-1.69 2.573-5.054 5.255-6.945 6.743l.295-19.346c.201-.9 1.69-3.767 5.658-3.767 3.581 0 3.875 3.364 3.875 5.457v1.085" />
   <path class="prefix__Beam" fill-rule="evenodd" d="M250.584 129.574h264.094v12.4H250.584v-12.4M250.584 148.174h264.094v12.4H250.584v-12.4M599.071 111.064l172.701-6.3v12.41l-172.7 6.3v-12.41M771.772 123.364l-32.244 1.18v12.41l32.244-1.18v-12.41M914.855 104.694l251.94 6.27v12.41l-251.94-6.27v-12.41M914.855 123.304l251.94 6.26v12.41l-251.94-6.27v-12.4M1246.455 79.474l163.47 25.22v12.55l-163.47-25.23v-12.54M1409.925 123.294l-32.24-4.97v12.55l32.24 4.97v-12.55M1549.785 111.094l133.24-6.33v12.41l-133.24 6.33v-12.41M1810.805 86.444l214.82-25.12v12.48l-214.82 25.12v-12.48M1941.325 89.784l84.3-9.86v12.48l-84.3 9.86v-12.48M2163.655 110.964h197.59v12.41h-197.59v-12.41M2283.575 129.574h77.67v12.4h-77.67v-12.4" />
   <path class="prefix__Lyrics" d="M234.194 311.814h-12.563v-6.7h10.5v-4.11h-10.5v-6.56h12v-4.27h-30.328v4.27h13.344v6.56H205.35v4.11h11.297v6.7h-13.734v4.27h31.281v-4.27m22.828 24.89h-45.109v4.66h40.61c-4.11 4.59-9.564 10.45-14.298 15.28l4.578 2.3c6.235-6.5 13.735-14.56 18.875-20.5l-3.797-2.05-.859.31m-12.563-2.84c-1.734-2.53-5.53-6.17-9.078-8.69l-3.64 2.36c3.312 2.61 7.031 6.49 8.843 9.1l3.875-2.77m-3.39-17.45l-.563-.25h31.36v-4.27h-13.813v-7.03h11.531v-4.11h-11.53v-6.31h12.874v-4.27h-32v4.27h13.985v6.31h-11.61v4.11h11.61v7.03h-12.875v4.03l-3.563-1.58c-7.03 7.43-20.922 14.14-35.39 18.49 1.11 1.03 2.687 3 3.406 4.19 12.484-4.11 23.781-9.57 32.062-16.44 7.281 5.61 20.86 12.56 33.5 15.89.797-1.42 2.297-3.49 3.47-4.59-12.798-2.93-26.532-9-33.564-14.3l1.11-1.17M410.25 321.694v12.79h-19.516c.235-2.35.313-4.65.313-6.7v-6.09h19.203m26.063 12.79h-20.922v-12.79h20.922v12.79m5.218-17.29h-55.687v10.5c0 8.29-1.266 19.53-9.719 27.69 1.11.78 3.234 2.53 3.953 3.64 5.844-5.71 8.688-12.99 9.953-19.96h46.282v3.97h5.218v-25.84m5.141-19.36v-4.58H415.47v-6.89h-5.297v6.89H379.36v4.58h30.813v8.3h-26.156v4.57h59.172v-4.57H415.47v-8.3h31.203M509.638 289.754v58.64c0 7.34 1.75 9.33 7.828 9.33h9.64c6.47 0 7.657-4.83 8.203-19.28-1.42-.25-3.468-1.27-4.89-2.38-.313 13.28-.797 16.67-3.64 16.67h-8.688c-2.61 0-3.157-.62-3.157-4.26v-58.72h-5.296m-29.219.08v25.51c0 14.32-1.906 28.94-17.938 39.29 1.266.95 3 2.93 3.72 4.04 17.374-11.31 19.343-27.36 19.343-43.33v-25.51h-5.125M621.384 318.694c-3.796-2.61-10.67-6.24-16.828-9.31 5.141-4.75 9.641-10.44 12.563-16.83l-3.719-1.99-.937.24H583.62v4.9h25.672c-6.39 10.19-18.485 18.88-29.61 23.38 1.016 1.03 2.594 2.92 3.313 4.19 5.922-2.6 12.172-6.16 17.687-10.5 6.485 3.07 13.75 7.18 17.703 10.11l3-4.19m-41.39 20.14l-.313-4.66-8.937 1.74v-10.89h8.297v-4.83h-8.297v-12.24h-4.89v12.24h-8.22c2.375-5.61 4.58-12.24 6.485-19.11h15.64v-4.99h-14.375c.704-2.76 1.25-5.62 1.813-8.39l-5.14-1.11c-.469 3.18-1.032 6.41-1.735 9.5h-9.953v4.99h8.765c-1.656 6.47-3.39 12-4.265 13.9-1.266 3.47-2.375 6.08-3.547 6.4.547 1.26 1.266 3.71 1.578 4.65.625-.55 3-1.01 5.688-1.01h7.265v11.68a583.543 583.543 0 01-16.109 2.93l1.172 5.04c4.343-.86 9.406-1.81 14.937-3v16.53h4.891v-17.54l9.25-1.83m23.453-7.5h14.141v-4.89h-33.485v4.89h14.141v20.06h-18.64v4.91h41.39v-4.91h-17.547v-20.06M887.795 300.204c-2.45-3.23-7.73-8.22-12-11.78l-3.48 3.25c4.26 3.64 9.4 8.85 11.85 12.17l3.63-3.64m14.22 16.83v4.03h26.23v-4.03h-11.29v-8.53h9.07v-4.11h-9.07v-6.87h-4.35v6.87h-8.86v4.11h8.86v8.53h-10.59m18.8 14.85v10.12h-12.72v-10.12h12.72m4.18 14.14v-18.16h-21.08v21.72h4.18v-3.56h16.9m11.14-55.77h-42.18v29.08c0 7.58-.32 16.58-2.6 24.72-.56-1.03-1.26-2.61-1.67-3.72l-6 4.51v-33.5h-16.42v5.07h11.37v28.03c0 4.03-2.84 6.95-4.34 8.06.94.88 2.59 2.69 3.31 3.64 1.03-1.26 2.85-2.76 13.42-10.98-1.17 3.78-2.76 7.34-5.04 10.57 1.03.49 3 1.91 3.79 2.77 7.74-10.66 8.85-27.09 8.85-39.17v-24.35h32.78v56.88c0 1.27-.47 1.67-1.66 1.67-1.11.08-4.83.08-9.09-.08.72 1.35 1.58 3.47 1.75 4.82 5.69.07 9-.08 11.05-.88 1.98-.86 2.68-2.36 2.68-5.44v-61.7M995.705 289.754v58.64c0 7.34 1.75 9.33 7.83 9.33h9.64c6.47 0 7.66-4.83 8.2-19.28-1.42-.25-3.47-1.27-4.89-2.38-.31 13.28-.79 16.67-3.64 16.67h-8.69c-2.6 0-3.15-.62-3.15-4.26v-58.72h-5.3m-29.22.08v25.51c0 14.32-1.9 28.94-17.93 39.29 1.26.95 3 2.93 3.71 4.04 17.38-11.31 19.35-27.36 19.35-43.33v-25.51h-5.13M1066.475 293.094h-30.19v4.74h30.19v-4.74m2.52 52.77c-1.58-5.45-5.05-14.92-8.13-22.03l-4.34 1.19c1.66 3.86 3.31 8.28 4.81 12.54l-19.75 4.11c3.16-7.26 6.24-16.26 8.3-24.87h18.01v-4.91h-34.53v4.91h11.14c-2.04 9.31-5.45 18.79-6.64 21.4-1.25 3-2.28 5.22-3.54 5.46.62 1.34 1.5 3.86 1.81 4.97 1.65-1.11 4.42-1.74 26.7-6.63.63 2.05 1.11 3.94 1.5 5.44l4.66-1.58m34.12-41h-17.45c.23-5.61.31-11.38.31-17h-5.12c0 5.62-.08 11.39-.24 17h-11.7v5.06h11.45c-1.01 18.1-4.26 34.92-15.08 44.88 1.35.7 3.16 2.43 4.11 3.72 11.61-11.08 15-29.16 16.04-48.6h12.4c-.87 28.6-1.98 39.1-4.11 41.47-.79 1.03-1.65 1.19-3.08 1.19-1.67 0-5.86 0-10.51-.47.95 1.5 1.58 3.62 1.65 5.12 4.27.33 8.54.33 10.99.18 2.45-.25 3.87-.88 5.53-2.78 2.69-3.47 3.72-14.54 4.81-47v-2.77M1215.005 298.944v35.31h-11.06v-35.31h11.06m5.13-5.13h-21.16v51.6h4.97v-6.02h16.19v-45.58m47.25 18.32h-32v-13.66c9.95-1.89 20.7-4.42 28.28-7.36l-4.58-4.13c-6.64 2.94-18.56 5.88-29.08 7.85v20.62c0 11.85-.86 27.97-9.39 39.44 1.19.64 3.47 2.3 4.42 3.41 8.61-11.63 10.19-28.63 10.35-41.03h16.2v41.18h5.28v-41.18h10.52v-5.14M1565.615 287.554c-9.39 2.53-26.69 4.36-40.83 5.31.54 1.11 1.01 2.92 1.17 4.03 14.47-.72 32.08-2.45 42.91-5.3l-3.25-4.04m-5.05 24.9c2.37-3.79 5.05-9.72 7.5-14.7l-4.81-1.89c-1.5 4.5-4.27 10.98-6.57 14.94l3.88 1.65m-9.56-4.34c-.71-2.92-2.53-7.52-4.27-11.06l-4.03 1.26c1.66 3.55 3.41 8.38 4.03 11.3l4.27-1.5m-13.99-.08c-.86-2.61-3-6.48-5.04-9.48l-4.04 1.58c1.97 3 4.11 7.1 4.89 9.64l4.19-1.74m-14.22 13.58l-7.18 2.3v-16.36h7.82v-4.89h-7.82v-15.99h-4.89v15.99h-9.49v4.89h9.49v17.93c-3.96 1.35-7.6 2.38-10.52 3.24l1.34 5.06c2.85-.87 5.93-1.98 9.18-3v21.08c0 1.11-.41 1.44-1.43 1.44-.87.08-4.03.08-7.59 0 .72 1.42 1.42 3.54 1.59 4.81 4.97.08 7.97-.08 9.78-.95 1.83-.86 2.54-2.21 2.54-5.3v-22.75l8.06-2.67-.88-4.83m27.66 11.45h21.48v-4.58h-21.48v-10.1h18.8v-4.58h-32.39c.56-.96.95-1.99 1.34-2.94l-4.66-1.09c-1.81 5.12-5.22 9.87-9.25 13.11 1.11.54 3.08 2.06 3.88 2.84 2.22-1.97 4.26-4.5 6.15-7.34h11.15v10.1h-21.49v4.58h21.49v17.22h-13.74v-12.87h-4.83v17.39h36.27v3.73h4.81v-21.76h-4.81v13.51h-12.72v-17.22M1682.175 297.284c2.14 2.61 4.34 5.77 5.29 7.99l4.66-1.99c-.78-1.65-2.36-3.95-4.11-6h13.98v-4.11h-24.48c1.03-1.9 1.97-3.72 2.61-5.7l-4.91-1.19c-2.28 6.35-6.62 12.35-11.53 16.38 1.27.47 3.56 1.73 4.5 2.45 2.38-2.22 4.67-4.83 6.8-7.83h7.19m17.22 14.22h-22.11c.7-1.97 1.42-4.11 1.96-6.16l-5.04-1.03c-2.14 8.3-5.85 16.52-10.52 21.88 1.19.64 3.41 2.14 4.27 2.92 2.84-3.47 5.37-7.97 7.51-13.11h23.93v-4.5m-7.43 18.8c-1.5-3.71-5.12-9.16-8.68-13.11l-4.11 2.14c3.56 3.94 7.03 9.62 8.45 13.42l4.34-2.45m-42.81-33.02c1.74 2.53 3.39 5.61 4.19 7.66l4.65-1.58c-.7-1.58-2.04-3.94-3.39-6.08h11.3v-4.11h-20.86c1.11-1.83 2.14-3.64 3-5.54l-4.81-1.35c-2.77 6.35-7.5 12.58-12.64 16.61 1.26.7 3.31 2.13 4.26 3 2.54-2.37 5.14-5.37 7.5-8.61h6.8m4.03 34.77h5.21v-26h-5.21v26m-9.72-1.91v-22.44h-4.89v22.44h4.89m2.05 9.02h11.55v12.47h-11.55v-12.47m27.66 0v12.47h-11.61v-12.47h11.61m16.26 0v12.47h-11.69v-12.47h11.69m5.14 12.47v-16.83h-54.03v16.83h-8.76v4.75h71.17v-4.75h-8.38M1833.125 318.694c-3.8-2.61-10.67-6.24-16.83-9.31 5.14-4.75 9.64-10.44 12.56-16.83l-3.72-1.99-.93.24h-28.85v4.9h25.67c-6.39 10.19-18.48 18.88-29.61 23.38 1.02 1.03 2.6 2.92 3.32 4.19 5.92-2.6 12.17-6.16 17.68-10.5 6.49 3.07 13.75 7.18 17.71 10.11l3-4.19m-41.39 20.14l-.32-4.66-8.93 1.74v-10.89h8.29v-4.83h-8.29v-12.24h-4.89v12.24h-8.22c2.37-5.61 4.58-12.24 6.48-19.11h15.64v-4.99h-14.37c.7-2.76 1.25-5.62 1.81-8.39l-5.14-1.11c-.47 3.18-1.03 6.41-1.73 9.5h-9.96v4.99h8.77c-1.66 6.47-3.39 12-4.27 13.9-1.26 3.47-2.37 6.08-3.54 6.4.54 1.26 1.26 3.71 1.57 4.65.63-.55 3-1.01 5.69-1.01h7.27v11.68a587.66 587.66 0 01-16.11 2.93l1.17 5.04c4.34-.86 9.41-1.81 14.94-3v16.53h4.89v-17.54l9.25-1.83m23.45-7.5h14.14v-4.89h-33.48v4.89h14.14v20.06h-18.64v4.91h41.39v-4.91h-17.55v-20.06M1957.495 307.554h-8.77v-13.5h8.77v13.5m-12.95 0h-8.53v-13.5h8.53v13.5m-12.72 0h-8.22v-13.5h8.22v13.5m30.81-17.69h-44v21.87h44v-21.87m-45.97 35.94l-.79-4.89c-2.77.93-5.54 1.81-8.22 2.68v-16.04h8.06v-4.97h-8.06v-16h-4.97v16h-9.72v4.97h9.72v17.62c-4.11 1.35-7.91 2.44-10.91 3.31l1.35 5.15 9.56-3.1v21.33c0 1.11-.41 1.44-1.42 1.44-.88.08-4.11.08-7.68 0 .72 1.42 1.43 3.54 1.58 4.97 5.06 0 8.06-.16 9.96-1.11 1.82-.78 2.53-2.28 2.53-5.38v-22.98l9.01-3m47.39 12.87v-4.73h-21.48v-9h18.72v-4.6h-18.72v-6.87h-5.06v6.87h-17.54v4.6h17.54v9h-21.41v4.73h15.48c-3.39 5.06-7.26 9.49-8.68 10.83-1.82 1.81-3.24 3-4.66 3.23.63 1.35 1.42 3.8 1.66 4.91 2.12-.87 5.37-1.34 36.57-4.11 1.1 1.89 2.13 3.55 2.93 4.97l4.18-2.53c-2.29-3.94-6.95-10.74-10.51-15.64l-3.95 2.06c1.5 2.05 3.17 4.5 4.67 6.88l-26.39 2.2c3.64-3.7 7.11-8.22 10.26-12.8h26.39M2148.455 293.094h-30.19v4.74h30.19v-4.74m2.51 52.77c-1.57-5.45-5.04-14.92-8.12-22.03l-4.34 1.19c1.65 3.86 3.31 8.28 4.81 12.54l-19.75 4.11c3.15-7.26 6.23-16.26 8.29-24.87h18.02v-4.91h-34.53v4.91h11.14c-2.05 9.31-5.45 18.79-6.64 21.4-1.25 3-2.28 5.22-3.55 5.46.63 1.34 1.5 3.86 1.81 4.97 1.66-1.11 4.43-1.74 26.71-6.63.62 2.05 1.11 3.94 1.5 5.44l4.65-1.58m34.13-41h-17.45c.23-5.61.31-11.38.31-17h-5.13c0 5.62-.07 11.39-.23 17h-11.7v5.06h11.45c-1.02 18.1-4.27 34.92-15.08 44.88 1.34.7 3.16 2.43 4.11 3.72 11.61-11.08 15-29.16 16.03-48.6h12.41c-.88 28.6-1.99 39.1-4.11 41.47-.8 1.03-1.66 1.19-3.08 1.19-1.67 0-5.86 0-10.52-.47.96 1.5 1.58 3.62 1.66 5.12 4.27.33 8.53.33 10.99.18 2.45-.25 3.87-.88 5.53-2.78 2.68-3.47 3.72-14.54 4.81-47v-2.77M2247.355 298.084v34.12h-7.67v-34.12h7.67m4.26-5.14h-16.12v52.15h4.19v-7.76h11.93v-44.39m18.96-3.64l-.71.25h-13.36v68.98h4.35v-64.33h7.44c-1.27 5.93-3.02 12.88-4.99 19.99 4.58 7.42 6.41 12.33 6.41 16.98 0 2.53-.41 5.38-1.42 6.24-.49.48-1.19.64-2.07.64-.95.08-2.37.08-3.79-.08.71 1.19 1.11 3 1.18 4.26 1.5.08 3.16.08 4.35-.15 1.26-.08 2.53-.56 3.4-1.35 1.82-1.42 2.69-5.37 2.69-9.48 0-4.89-2.06-10.27-6.56-17.61 2.37-8.06 4.5-16.05 6.23-22.59l-3.15-1.75m16.59 20.31v22.98h-6.72v-22.98h6.72m3.95 27.8v-32.63h-14.47v38.16h3.8v-5.53h10.67m13.58-47.08h-29.37v5.06h20.92v55.84c0 1.19-.39 1.58-1.58 1.58-1.19.08-5.22.16-9.64 0 .64 1.42 1.5 3.72 1.67 5.14 5.52-.07 9.08-.15 11.2-1.03 2.07-.87 2.69-2.53 2.69-5.69v-55.84h4.11v-5.06" />
   <path class="prefix__NoteDot" d="M614.201 197.784a4.955 4.955 0 004.96 4.96 4.955 4.955 0 004.962-4.96 4.955 4.955 0 00-4.961-4.96 4.955 4.955 0 00-4.96 4.96M1261.585 148.174a4.955 4.955 0 004.96 4.96 4.955 4.955 0 004.962-4.96 4.955 4.955 0 00-4.961-4.96 4.955 4.955 0 00-4.96 4.96" />
</svg>