<svg xmlns="http://www.w3.org/2000/svg" viewBox="0 0 2500 400" height="80" width="500">
   <path class="prefix__StaffLines" fill="none" stroke="#000" stroke-width="2.73" stroke-linejoin="bevel" d="M26.417 118.17h2427.166M26.417 142.973h2427.166M26.417 167.776h2427.166M26.417 192.58h2427.166M26.417 217.383h2427.166" />
   <path class="prefix__BarLine" fill="none" stroke="#000" stroke-width="4.46" stroke-linejoin="bevel" d="M775.863 116.806v101.941M1300.743 116.806v101.941M1993.273 116.806v101.941M2451.353 116.806v101.941" />
   <path class="prefix__LedgerLine" fill="none" stroke="#000" stroke-width="3.97" stroke-linejoin="bevel" d="M271.573 242.186h49.599M399.91 242.186h49.599M528.247 242.186h49.599M684.736 266.99h49.597M684.736 242.186h49.597M825.643 266.99h49.59M825.643 242.186h49.59M954.583 242.186h49.6M1083.523 242.186h49.6" />
   <path class="prefix__Stem" fill="none" stroke="#000" stroke-width="2.73" stroke-linejoin="bevel" d="M311.126 239.011v-71.235M439.463 239.011v-71.235M567.8 239.011v-71.235M724.293 263.814V192.58M865.193 276.216V173.977M994.133 239.011v-77.436M1123.073 239.011v-83.636M1389.573 189.405V99.568M1530.093 177.003V84.304M1617.923 152.2V74.764M1705.743 177.003V99.568M1793.573 189.405V111.97M1881.393 214.208v-89.837M2082.603 189.405V118.17M2192.223 214.208v-80.775M2260.743 226.61v-83.637M2329.253 226.61v-83.637" />
   <path class="prefix__Note" d="M311.506 234.156c-1.783-3.286-5.55-5.069-10.123-5.069-3.364 0-7.038.992-10.619 2.883-6.542 3.473-10.51 9.317-10.51 14.386 0 1.38.295 2.775.992 4.062 1.783 3.27 5.55 4.96 10.123 4.96 3.364 0 7.038-.883 10.619-2.775 6.542-3.472 10.51-9.332 10.51-14.385 0-1.396-.294-2.775-.992-4.062M439.843 234.156c-1.783-3.286-5.55-5.069-10.123-5.069-3.364 0-7.038.992-10.619 2.883-6.542 3.473-10.51 9.317-10.51 14.386 0 1.38.295 2.775.992 4.062 1.783 3.27 5.55 4.96 10.123 4.96 3.364 0 7.038-.883 10.619-2.775 6.542-3.472 10.51-9.332 10.51-14.385 0-1.396-.294-2.775-.992-4.062M568.18 234.156c-1.783-3.286-5.55-5.069-10.123-5.069-3.364 0-7.038.992-10.619 2.883-6.542 3.473-10.51 9.317-10.51 14.386 0 1.38.295 2.775.992 4.062 1.783 3.27 5.55 4.96 10.123 4.96 3.364 0 7.038-.883 10.619-2.775 6.542-3.472 10.51-9.332 10.51-14.385 0-1.396-.294-2.775-.992-4.062M724.665 258.96c-1.783-3.287-5.55-5.07-10.123-5.07-3.364 0-7.038.992-10.619 2.883-6.542 3.473-10.51 9.317-10.51 14.386 0 1.38.295 2.775.992 4.062 1.783 3.27 5.55 4.96 10.123 4.96 3.364 0 7.038-.883 10.619-2.775 6.542-3.472 10.51-9.332 10.51-14.385 0-1.396-.294-2.775-.992-4.062M865.575 271.36c-1.783-3.286-5.55-5.069-10.123-5.069-3.364 0-7.038.992-10.619 2.883-6.542 3.473-10.51 9.317-10.51 14.386 0 1.38.295 2.775.992 4.062 1.783 3.27 5.55 4.96 10.123 4.96 3.364 0 7.038-.883 10.619-2.775 6.542-3.472 10.51-9.332 10.51-14.385 0-1.396-.294-2.775-.992-4.062M994.515 234.156c-1.783-3.286-5.55-5.069-10.123-5.069-3.364 0-7.038.992-10.619 2.883-6.542 3.473-10.51 9.317-10.51 14.386 0 1.38.295 2.775.992 4.062 1.783 3.27 5.55 4.96 10.123 4.96 3.364 0 7.038-.883 10.619-2.775 6.542-3.472 10.51-9.332 10.51-14.385 0-1.396-.294-2.775-.992-4.062M1123.455 234.156c-1.783-3.286-5.55-5.069-10.123-5.069-3.364 0-7.038.992-10.619 2.883-6.542 3.473-10.51 9.317-10.51 14.386 0 1.38.294 2.775.992 4.062 1.783 3.27 5.55 4.96 10.123 4.96 3.364 0 7.038-.883 10.619-2.775 6.542-3.472 10.51-9.332 10.51-14.385 0-1.396-.295-2.775-.992-4.062M1389.955 184.55c-1.783-3.287-5.55-5.07-10.123-5.07-3.364 0-7.038.992-10.619 2.883-6.542 3.473-10.51 9.317-10.51 14.386 0 1.38.294 2.775.992 4.062 1.783 3.27 5.55 4.96 10.123 4.96 3.364 0 7.038-.883 10.619-2.775 6.542-3.472 10.51-9.332 10.51-14.385 0-1.396-.295-2.775-.992-4.062M1530.475 172.148c-1.783-3.286-5.55-5.069-10.123-5.069-3.364 0-7.038.992-10.619 2.883-6.542 3.473-10.51 9.317-10.51 14.386 0 1.38.294 2.775.992 4.062 1.783 3.27 5.55 4.96 10.123 4.96 3.364 0 7.038-.883 10.619-2.775 6.542-3.472 10.51-9.332 10.51-14.385 0-1.396-.295-2.775-.992-4.062M1618.295 147.345c-1.783-3.286-5.55-5.069-10.123-5.069-3.364 0-7.038.992-10.619 2.883-6.542 3.473-10.51 9.317-10.51 14.386 0 1.38.295 2.775.992 4.062 1.783 3.27 5.55 4.96 10.123 4.96 3.364 0 7.038-.883 10.619-2.775 6.542-3.472 10.51-9.332 10.51-14.385 0-1.396-.295-2.775-.992-4.062M1706.125 172.148c-1.783-3.286-5.55-5.069-10.123-5.069-3.364 0-7.038.992-10.619 2.883-6.542 3.473-10.51 9.317-10.51 14.386 0 1.38.294 2.775.992 4.062 1.783 3.27 5.55 4.96 10.123 4.96 3.364 0 7.038-.883 10.619-2.775 6.542-3.472 10.51-9.332 10.51-14.385 0-1.396-.295-2.775-.992-4.062M1793.945 184.55c-1.783-3.287-5.55-5.07-10.123-5.07-3.364 0-7.038.992-10.619 2.883-6.542 3.473-10.51 9.317-10.51 14.386 0 1.38.294 2.775.992 4.062 1.783 3.27 5.55 4.96 10.123 4.96 3.364 0 7.038-.883 10.619-2.775 6.542-3.472 10.51-9.332 10.51-14.385 0-1.396-.295-2.775-.992-4.062M1881.775 209.353c-1.783-3.286-5.55-5.069-10.123-5.069-3.364 0-7.038.992-10.619 2.883-6.541 3.473-10.51 9.317-10.51 14.386 0 1.38.295 2.775.992 4.062 1.783 3.27 5.55 4.96 10.123 4.96 3.364 0 7.038-.883 10.619-2.775 6.542-3.472 10.51-9.332 10.51-14.385 0-1.396-.295-2.775-.992-4.062M2082.985 184.55c-1.783-3.287-5.55-5.07-10.123-5.07-3.364 0-7.038.992-10.619 2.883-6.542 3.473-10.51 9.317-10.51 14.386 0 1.38.294 2.775.992 4.062 1.783 3.27 5.55 4.96 10.123 4.96 3.364 0 7.038-.883 10.619-2.775 6.542-3.472 10.51-9.332 10.51-14.385 0-1.396-.295-2.775-.992-4.062M2192.605 209.353c-1.783-3.286-5.55-5.069-10.123-5.069-3.364 0-7.038.992-10.619 2.883-6.542 3.473-10.51 9.317-10.51 14.386 0 1.38.294 2.775.992 4.062 1.783 3.27 5.55 4.96 10.123 4.96 3.364 0 7.038-.883 10.619-2.775 6.542-3.472 10.51-9.332 10.51-14.385 0-1.396-.295-2.775-.992-4.062M2261.125 221.754c-1.783-3.286-5.55-5.069-10.123-5.069-3.364 0-7.038.992-10.619 2.883-6.542 3.473-10.51 9.317-10.51 14.386 0 1.38.294 2.775.992 4.062 1.783 3.27 5.55 4.96 10.123 4.96 3.364 0 7.038-.883 10.619-2.775 6.542-3.472 10.51-9.332 10.51-14.385 0-1.396-.295-2.775-.992-4.062M2329.635 221.754c-1.783-3.286-5.55-5.069-10.123-5.069-3.364 0-7.038.992-10.619 2.883-6.542 3.473-10.51 9.317-10.51 14.386 0 1.38.294 2.775.992 4.062 1.783 3.27 5.55 4.96 10.123 4.96 3.364 0 7.038-.883 10.619-2.775 6.542-3.472 10.51-9.332 10.51-14.385 0-1.396-.295-2.775-.992-4.062" />
   <path class="prefix__Clef" d="M109.12 186.704c-1.224-5.38-3.844-9.177-4.62-10.2-3.162-4.248-7.146-7.07-11.796-8.418-3.085-.868-6.061-.992-8.464-.806a2308.874 2308.874 0 01-2.93-17.207c5.41-6.123 9.007-11.875 11.27-16.138 3.441-6.526 4.573-11.068 4.635-11.27 1.705-5.177 2.062-12.82.961-20.958-.992-7.488-3.07-14.153-5.41-17.378-1.008-1.41-2.062-2.14-3.085-2.14-1.21 0-3.705 1.226-6.573 3.985-2.279 2.17-5.519 6.03-8.06 11.998-2.977 7.007-3.194 16.417-2.838 23.083.372 7.223 1.473 12.866 1.489 12.913.015.093.278 1.58.713 4.123-.217.233-.465.45-.713.698-1.024.992-2.202 2.108-3.581 3.488-.853.852-1.799 1.751-2.79 2.713-8.372 8.076-21.068 20.307-21.068 39.313 0 4.666.9 9.053 2.666 13.037 1.566 3.565 3.845 6.82 6.76 9.673 7.673 7.503 18.183 10.68 25.174 10.526 2.93-.078 5.55-.31 7.922-.76 1.814 9.534 2.945 16.51 2.976 21.811.047 6.465-1.596 10.418-5.456 13.162-2.419 1.72-5.209 2.666-8.279 2.806-2.573.124-4.82-.342-6.231-.745h-.015s-.28-.093-.295-.279c-.015-.186.341-.232.341-.232h.031c1.907-.434 5.441-1.659 7.782-4.93 1.783-2.511 2.651-7.1.822-11.006-1.1-2.372-3.581-5.302-9.162-5.751-2.48-.202-4.728.31-6.712 1.503-1.798 1.07-3.287 2.698-4.325 4.682-2.434 4.666-1.985 10.355 1.116 14.169 2.945 3.596 7.518 5.89 12.913 6.464.853.093 1.69.124 2.527.124 4.402 0 8.758-1.194 12.308-3.38 3.628-2.557 5.736-6.51 6.403-12.09.558-4.605.17-10.48-1.21-18.495-.356-2.077-.899-5.084-1.55-8.805 5.705-1.907 9.829-5.457 13.565-11.27 3.27-5.689 4.2-11.75 2.79-18.013m-33.95 26.012c-4.604-1.209-9.006-3.69-12.727-7.177-1.302-1.21-3.162-3.364-4.62-6.728-1.348-3.147-2.014-6.557-1.952-10.107.062-4.666 1.364-9.457 3.844-14.2 2.899-5.534 7.426-11.022 13.44-16.308a89.24 89.24 0 004.077-3.814c.76 4.232 1.582 8.883 2.45 13.72-3.814 1.255-8.526 4.387-11.611 9.998-3.52 6.511-3.38 11.999-2.651 15.456.93 4.418 3.441 8.154 6.867 10.231.93.558 5.023 2.666 6.852 2.093a1.16 1.16 0 00.775-.667c.512-1.162-.511-1.798-2.046-2.744a27.29 27.29 0 01-1.984-1.317c-3.302-2.465-4.744-6.883-3.674-11.24a12.437 12.437 0 013.674-6.215c1.643-1.535 3.674-2.62 6.03-3.256 2.03 11.162 4.077 22.23 5.705 30.524.124.682.263 1.348.387 2.015-4.34.93-8.65.837-12.835-.264m11.239-32.942c10.262-.465 14.494 6.914 15.377 11.705.465 2.526.465 6.929-1.07 11.114-1.162 3.147-3.596 7.193-8.696 9.24-.062-.419-.14-.853-.217-1.272-1.535-8.712-3.457-19.625-5.394-30.787m-7.27-70.394c1.766-5.69 4.48-8.914 6.463-10.634 1.737-1.504 3.364-2.217 4.279-2.217.14 0 .263.03.356.062.466.14.993.698 1.458 1.566 2.294 4.247 1.55 10.913.217 15.316-1.613 5.363-4.511 10.928-13.239 20.462-.17-1.1-.325-2.139-.48-3.116-1.24-8.216-.915-15.44.945-21.439" />
   <path class="prefix__KeySig" d="M154.479 159.932c-.59-3.86-2.977-7.534-8.03-7.534-4.961 0-7.845 3.07-8.34 3.674l.402-31.856c0-.791-.589-1.38-1.395-1.38h-1.178c-.806 0-1.395.589-1.395 1.38l.496 59.636c0 .79.59 1.38 1.395 1.38.186 0 .59-.094.79-.187.388-.201 6.837-3.38 12.2-9.425 3.768-4.278 5.256-9.13 5.256-13.208 0-.883-.093-1.674-.201-2.48m-6.837 3.876c0 1.488-.403 6.045-2.883 9.828-1.69 2.573-5.054 5.255-6.945 6.743l.294-19.346c.202-.9 1.69-3.767 5.659-3.767 3.58 0 3.875 3.364 3.875 5.457v1.085" />
   <path class="prefix__TimeSig" d="M215.324 147.345c-.79 2.17-2.775 9.316-7.643 9.316-6.449 0-7.844-3.968-13.192-3.968-.79 0-1.597.108-2.589.294 0 0 2.48-3.767 13.006-7.038 10.51-3.27 13.193-8.433 13.193-14.385 0-4.17-1.876-12.402-16.867-12.402-14.974 0-17.765 9.022-17.765 13.595 0 4.062 3.38 7.333 7.441 7.333a7.32 7.32 0 007.348-7.333c0-2.775-1.984-5.86-4.557-6.852-.31-.093-.698-.589-.698-1.085 0-.604.496-1.286 2.279-1.782.496-.202 1.891-.497 3.38-.497 1.379 0 2.976.295 4.154 1.086 1.891 1.193 2.588 2.976 2.588 7.44 0 11.612-13.796 14.092-19.547 22.727 0 0-2.977 4.154-2.977 8.82s2.387 4.96 3.566 4.96c1.596 0 3.286-1.286 3.286-3.069 0-.403-.108-.79-.31-1.286-.589-1.396-.79-2.48-.79-3.287 0-.294 0-.589.108-.883.093-.605.884-1.597 3.27-1.597 2.869 0 3.97 3.38 5.752 5.953 1.783 2.588 4.558 4.17 7.736 4.17 3.177 0 7.44-2.28 9.239-5.953 1.782-3.674 4.061-11.115 4.061-13.781 0-1.302-.79-1.892-1.69-1.892-.697 0-1.38.404-1.782 1.396M181.684 204.974h17.037v7.394h-8.154c-.775 0-1.41.62-1.41 1.395v1.892c0 .775.635 1.395 1.41 1.395h30.012a1.39 1.39 0 001.395-1.395v-1.892a1.39 1.39 0 00-1.395-1.395h-8.867v-7.394h8.867a1.39 1.39 0 001.395-1.395v-1.892a1.39 1.39 0 00-1.395-1.395h-8.867V184.45c0-.527-.31-1.008-.775-1.24l-1.21-.605a1.446 1.446 0 00-1.58.233l-8.976 8.247c-.28.279-.45.636-.45 1.039v8.17h-11.425s11.038-11.937 22.788-27.579c.853-1.147.357-2.186.17-2.372l-2.154-2.185a1.41 1.41 0 00-.992-.419c-.59 0-14.045.031-14.758 0-.713-.016-1.24.605-1.318 1.21 0 0-.527 7.3-3.116 15.377-2.573 8.046-5.487 12.99-8.123 16.587 0 0-.542.977-.186 1.72.341.745.977 1.815.977 1.815s.248.527 1.1.527" />
   <path class="prefix__Beam" fill-rule="evenodd" d="M309.762 161.575h131.066v12.402H309.762v-12.402M566.436 161.066l159.217 25.235v12.557l-159.217-25.236v-12.556M725.653 204.904l-32.24-5.11v12.555l32.24 5.111v-12.556M863.823 168.01l131.67-12.664v12.46l-131.67 12.663V168.01M1388.213 93.627l231.07-25.1v12.475l-231.07 25.1V93.626M1528.733 96.966l90.55-9.836v12.474l-90.55 9.836V96.966M1704.383 92.92l178.37 25.188v12.525l-178.37-25.188V92.92M1704.383 111.522l90.55 12.787v12.525l-90.55-12.787v-12.525M2081.243 111.53l180.86 25.183v12.521l-180.86-25.183V111.53M2190.863 145.395l71.24 9.92v12.521l-71.24-9.919v-12.522" />
   <path class="prefix__Lyrics" d="M284.122 356.728c.625-4.89.875-9.64.875-13.984h36.813v13.984h-37.688m37.688-32.78v13.827h-36.813v-13.828h36.813m5.437-5.14H279.7v23.858c0 12.797-1.343 28.844-14.14 40.22 1.109.702 3.156 2.687 3.953 3.796 7.734-6.89 11.687-15.812 13.656-24.812h38.641v16.578c0 1.672-.641 2.297-2.375 2.297-1.891.078-8.219.156-14.86-.079.797 1.5 1.829 3.954 2.219 5.532 8.453 0 13.594-.078 16.516-1.032 2.844-.937 3.937-2.687 3.937-6.718v-59.64M435.788 317.76v58.64c0 7.344 1.75 9.328 7.828 9.328h9.64c6.469 0 7.657-4.828 8.203-19.28-1.421-.25-3.468-1.267-4.89-2.376-.313 13.281-.797 16.672-3.641 16.672h-8.687c-2.61 0-3.157-.625-3.157-4.266V317.76h-5.296m-29.219.078v25.516c0 14.312-1.906 28.937-17.938 39.281 1.266.953 3 2.938 3.719 4.047 17.375-11.312 19.344-27.359 19.344-43.328v-25.516h-5.125M538.828 324.337v15.72h-13.672v-15.72h13.672m-13.672 36.891v-16.344h13.672v16.344h-13.672m18.562 4.906v-46.609h-23.453v54.047h4.891v-7.438h18.562m14.453-9.64c.407-3.719.563-7.266.563-10.579v-3.953h21.875v14.532h-22.438m22.438-33.579v14.22h-21.875v-14.22h21.875m5.219-4.89h-32.235v27.89c0 12.235-1.343 27.25-14.062 37.594 1.109.641 3.078 2.453 3.875 3.485 8.531-7.032 12.484-16.36 14.062-25.688h23.141v18.016c0 1.422-.469 1.89-1.891 1.984-1.422.078-6.406.156-11.609-.094.703 1.516 1.656 3.72 1.891 5.22 6.796 0 11.062-.157 13.593-1.032 2.282-.86 3.235-2.516 3.235-6.078v-61.297M858.863 329.4c-2.05 6.562-4.89 13.187-8.3 19.36-4.5-5.61-9.16-11.22-13.34-16.048l-4.27 2.297c4.73 5.61 9.95 12 14.84 18.406-5.28 8.454-11.61 15.797-18.25 20.22 1.19.952 2.94 2.765 3.96 4.03 6.4-4.734 12.32-11.687 17.54-19.906 5.13 7.031 9.71 13.75 12.55 18.875l4.83-2.765c-3.31-5.688-8.69-13.188-14.61-20.922 3.86-6.953 7.19-14.625 9.62-22.282l-4.57-1.265m-35.47-10.828v23.547c0 12.328-.86 29.14-9.39 41 1.25.625 3.47 2.453 4.26 3.562 9.16-12.578 10.5-31.53 10.5-44.562v-18.485h42.11c.16 40.844.08 62.094 10.03 62.094 4.11 0 5.21-3.25 5.77-13.75-1.03-.797-2.53-2.297-3.56-3.563-.16 6.563-.55 11.938-1.74 11.938-5.45 0-5.53-25.125-5.3-61.78h-52.68M990.453 317.76v58.64c0 7.344 1.75 9.328 7.83 9.328h9.64c6.47 0 7.66-4.828 8.21-19.28-1.43-.25-3.47-1.267-4.89-2.376-.32 13.281-.8 16.672-3.64 16.672h-8.69c-2.61 0-3.16-.625-3.16-4.266V317.76h-5.3m-29.21.078v25.516c0 14.312-1.91 28.937-17.94 39.281 1.26.953 3 2.938 3.72 4.047 17.37-11.312 19.34-27.359 19.34-43.328v-25.516h-5.12M1106.553 340.134h-14.76v-5.359h12.47v-3.953h-12.47v-5.063h13.81v-4.015h-13.81v-7.219h-4.91v7.22h-13.42v4.014h13.42v5.063h-12.16v3.953h12.16v5.36h-14.92v4.11h34.59v-4.11m-25.43 28.843v-6h16.82v6h-16.82m16.82-15.797v5.922h-16.82v-5.922h16.82m4.82-4.109h-26.3v37.515h4.66v-13.734h16.82v8.203c0 .953-.23 1.188-1.18 1.266-.88 0-3.88.078-7.43-.078.55 1.265 1.35 3.078 1.58 4.343 4.89 0 7.66 0 9.49-.859 1.81-.719 2.36-2.063 2.36-4.594v-32.062m32.15 13.828h-9.64v-9.328h9.64v9.328m-9.64-22.766h9.64v8.938h-9.64v-8.938m3.88-13.969c-1.74 3.157-3.96 6.782-6.08 9.47h-11.78c2.29-2.766 4.34-6 6.25-9.47h11.61m15.4 22.907h-4.9v-13.438h-11.38c2.69-3.547 5.45-7.969 7.42-11.844l-3.15-2.14-.86.25h-12.02c.96-1.985 1.81-4.125 2.61-6.188l-4.65-1.109c-2.93 8.078-7.6 15.984-12.96 21.266 1.1.718 3 2.296 3.78 3.093l.8-.875v2.047h11.06v8.938h-14.93v4.5h14.93v9.328h-11.45v4.422h11.45v12.953c0 1.187-.33 1.422-1.42 1.5-1.11 0-4.67.078-8.86-.078.72 1.422 1.42 3.468 1.67 4.89 5.44 0 8.85-.156 10.89-.937 1.99-.875 2.69-2.297 2.69-5.297v-13.03h9.64v3.155h4.74v-16.906h4.9v-4.5M1362.573 355.462c-1.19-2.359-7.03-12.64-9-15.797v-3.39h7.18v-4.828h-7.18v-16.922h-4.74v16.922h-8.94v4.828h8.61c-1.81 10.984-5.84 24.015-10.18 30.89.87 1.094 2.14 3 2.76 4.422 2.92-4.828 5.69-12.25 7.75-20.062v34.906h4.74v-39.656c2.2 4.422 4.97 10.031 6 12.875l3-4.188m16.98-31.437l-.86.234h-14.86v4.594h13.75c-.79 7.344-1.9 14.297-3.48 20.61-2.69-4.344-5.46-8.844-8.05-12.876l-3.41 2.453c3.16 5.047 6.57 10.891 9.8 16.657-3.15 10.203-7.26 18.484-12 23.468 1.19.797 2.69 2.454 3.55 3.641 4.58-5.062 8.45-12.328 11.53-21.422 2.06 3.953 3.95 7.672 5.14 10.594l3.8-3.156c-1.58-3.64-4.19-8.375-7.11-13.594 2.51-8.844 4.26-19.03 5.2-30.328l-3-.875m31.13 8.14h-6.39v-17.328h-4.83v17.328h-15.8v4.735h15.8v42.578c0 1.266-.55 1.656-1.74 1.734-1.18.094-5.06.094-9.72-.078.8 1.422 1.5 3.641 1.74 4.985 6.09 0 9.56-.157 11.62-1.032 2.05-.859 2.93-2.359 2.93-5.687v-42.5h6.39v-4.735m-12.8 28.985c-1.5-4.422-4.97-11.219-8.38-16.266l-3.78 1.578c3.16 5.22 6.63 12.078 8.05 16.672l4.11-1.984M1498.203 326.947v35.312h-12.1v-35.312h12.1m4.89-5.125h-21.88v51.593h4.89V367.4h16.99v-45.578m46.76 20.218h-19.34V315.4h-5.38v26.64h-19.28v5.125h19.28v39.532h5.38v-39.532h19.34v-5.125M1614.243 317.76v58.64c0 7.344 1.75 9.328 7.83 9.328h9.64c6.47 0 7.65-4.828 8.2-19.28-1.42-.25-3.47-1.267-4.89-2.376-.31 13.281-.8 16.672-3.64 16.672h-8.69c-2.61 0-3.15-.625-3.15-4.266V317.76h-5.3m-29.22.078v25.516c0 14.312-1.91 28.937-17.94 39.281 1.27.953 3 2.938 3.72 4.047 17.38-11.312 19.35-27.359 19.35-43.328v-25.516h-5.13M1698.333 351.681v-10.594h13.34v10.594h-13.34m18.17-10.594h9.47v-4.343h-9.47v-7.735h-4.83v7.735h-13.34v-7.735h-4.66v7.735h-9.48v4.343h9.48v14.782h22.83v-14.782m-2.84 32.703c-.8-3.625-2.69-9.234-4.5-13.5l-3.88.86c1.74 4.344 3.72 10.031 4.27 13.672l4.11-1.032m-12.1.641c-.07-3.719-.54-9.328-1.42-13.672l-3.93.235c.78 4.421 1.25 10.031 1.17 13.75l4.18-.313m-15.71.547c3.07-3.64 5.29-9.328 6.87-13.984l-3.8-1.422c-1.34 4.265-3.78 9.875-6.86 13.281l3.79 2.125m40.45-2.297c-1.42-3.703-4.75-9.469-7.99-13.734l-3.62 1.5c3 4.265 6.23 10.187 7.73 14.062l3.88-1.828m-42.5-45.734h42.17v-4.422h-19.03c-.88-2.375-2.53-5.86-4.03-8.485l-4.81 1.188c1.18 2.141 2.45 5 3.23 7.297h-22.36v16.906c0 9.078-.78 21.406-7.11 30.328 1.19.485 3.17 1.985 4.03 2.844 6.72-9.469 7.91-23.297 7.91-33.172v-12.484m-11.14 3c-2.38-3.39-7.5-8.532-11.61-12.172l-3.88 2.687c4.11 3.797 9.08 9.172 11.38 12.563l4.11-3.078m-1.5 12.015h-15.33v4.891h10.34v25.75c-3.46 1.266-7.42 4.422-11.37 8.375l3.09 4.125c4.42-4.906 8.53-8.938 11.38-8.938 1.81 0 4.26 2.375 7.5 4.188 5.37 3.156 12.08 3.953 21.33 3.953 7.5 0 21.48-.406 27.32-.797.16-1.422.96-3.797 1.43-4.969-7.66.704-19.36 1.25-28.6 1.25-8.61 0-15.25-.546-20.29-3.39-3.25-1.735-4.99-3.469-6.8-4.11v-30.328M1856.453 327.665c-5.85 4.891-14.38 9-21.81 11.141l2.76 4.016c8.06-2.594 16.67-7.266 22.99-12.719l-3.94-2.438m20.3 29.86c-1.66 2.844-4.11 5.453-6.8 7.578-3.8-1.813-7.74-3.719-11.3-5.14l-2.61 2.765c3.33 1.344 6.96 3.016 10.44 4.906-5.06 3.156-11.22 5.375-17.3 6.641.86.86 1.89 2.437 2.36 3.47 6.72-1.58 13.36-4.267 18.89-8.064 4.1 2.297 7.74 4.672 10.19 6.641l2.77-3.078c-2.38-1.813-5.85-4.032-9.64-6.079 3.79-3.25 6.95-7.28 9-12.015l-2.93-1.422-.7.234h-18.66c.88-1.422 1.52-2.843 2.22-4.265l-4.26-.625c-1.66 3.875-4.89 8.531-9.49 12.156 1.11.562 2.46 1.672 3.25 2.61 2.36-1.969 4.19-4.188 5.92-6.313h18.65m11.53 21.64h-42.5v-31.75h42.5v31.75m-26.63-43.843c-1.34 2.297-3.47 5.531-5.36 8.062h-15.81v43.391h5.3v-3.5h42.5v3.094h5.45v-42.985h-32c1.83-2.14 3.64-4.5 5.37-6.797l-5.45-1.265m11.22-4.735c8.06 3.547 18.17 9.157 23.06 12.875l3.49-3.406c-5.38-3.78-15.57-9.078-23.3-12.39l-3.25 2.921m-2.53-9.172c-1.02-2.218-2.44-5.062-3.78-7.203l-5.38 1.344c.96 1.734 2.05 3.875 3 5.86h-30.64v12.171h5.21v-7.906h55.37v7.594h5.45v-11.86h-29.23M2099.943 317.947h-38.55v4.656h33.74v6.953h-31.28v4.188h31.28v6.953h-33.74v4.578h38.55v-27.328m-7.03 51.281c2.53-3.953 5.53-9.953 8.06-15.172l-4.75-1.75c-1.65 4.672-4.97 11.156-7.42 15.188l4.11 1.734m-31.44.875c3.64-4.03 6.16-10.594 7.83-15.656l-4.03-1.578c-1.58 4.906-4.27 11.14-7.83 14.86l4.03 2.374m-3.31-17.953c-1.19-2.203-6.95-11.297-8.94-14.063v-3.312h8.94v-4.985h-8.94v-15.265h-5.04v15.265h-10.6v4.985h10.52c-2.46 10.984-7.52 23.781-12.41 30.422.95 1.265 2.3 3.484 2.84 4.984 3.65-5.062 7.04-13.359 9.65-21.984v38.187h5.04v-41.5c2.14 3.875 4.67 8.688 5.69 11.141l3.25-3.875m19.58-4.344c-.94 18.578-3.55 29.578-22.67 35.031 1.11.938 2.45 2.844 2.93 3.953 12.55-3.875 18.64-10.125 21.72-19.296 4.11 9.406 10.91 15.578 21.88 18.5.56-1.344 1.98-3.313 3.08-4.344-12.63-2.688-19.91-10.36-23.22-21.672.64-3.719 1.03-7.75 1.26-12.172h-4.98M2291.673 326.087v34.125h-7.67v-34.125h7.67m4.27-5.14h-16.13v52.156h4.19v-7.766h11.94v-44.39m18.95-3.64l-.7.25h-13.36v68.983h4.34v-64.328h7.44c-1.27 5.922-3.02 12.875-4.98 19.985 4.57 7.422 6.4 12.328 6.4 16.984 0 2.531-.4 5.375-1.42 6.234-.48.485-1.19.641-2.06.641-.96.078-2.38.078-3.8-.078.72 1.187 1.11 3 1.19 4.266 1.5.078 3.15.078 4.34-.157 1.27-.078 2.53-.562 3.41-1.343 1.81-1.422 2.69-5.375 2.69-9.485 0-4.89-2.07-10.265-6.57-17.609 2.38-8.063 4.5-16.047 6.24-22.594l-3.16-1.75m16.59 20.313v22.984h-6.71V337.62h6.71m3.96 27.796V332.79h-14.47v38.157h3.8v-5.532h10.67m13.58-47.078h-29.38v5.063h20.92v55.844c0 1.187-.39 1.578-1.58 1.578-1.18.078-5.21.156-9.64 0 .64 1.422 1.5 3.718 1.68 5.14 5.51-.078 9.07-.156 11.2-1.03 2.06-.876 2.69-2.532 2.69-5.688V323.4h4.11v-5.063" />
   <path class="prefix__Tempo" d="M204.604 10.72h-3.297v44.97c-1.141-.673-2.516-1.095-4.094-1.267-.437-.047-.89-.062-1.344-.062-2.718 0-5.656.781-8.39 2.265-3.188 1.72-5.75 4.188-7.172 6.922-1.453 2.766-1.594 5.47-.422 7.641 1.375 2.578 4.391 3.906 7.938 3.906 2.64 0 5.593-.734 8.406-2.25 5.14-2.78 8.359-7.375 8.375-11.375V10.72M226.182 63.048h30.234v-6.906h-30.234v6.906m0-12.359h30.234v-6.907h-30.234v6.907m62.062-3.782c0-2.875.594-7.687 1.188-10.14 1.391-4.922 3.672-7.563 6.734-7.563 1.5 0 2.578.547 2.578 1.375 0 .422-.062.61-.484 1.141a6.03 6.03 0 00-1.203 3.547c0 2.703 2.156 4.625 5.281 4.625 3.422 0 5.578-2.11 5.578-5.406 0-5.157-4.375-8.407-11.218-8.407-5.766 0-10.204 2.22-13.672 6.844-3.547 4.625-5.172 10.141-5.172 17.281 0 6 1.265 10.266 4.078 13.735 2.953 3.61 6.969 5.468 11.891 5.468 8.812 0 15.234-5.937 15.234-14.218 0-7.203-4.922-12.25-12.063-12.25-3.89 0-6.234 1.093-8.75 3.968m5.641.532c3.109.125 4.734 3 4.734 8.406 0 6.953-1.734 10.734-4.921 10.734-3.235 0-5.094-3.468-5.094-9.656 0-2.156.172-4.016.469-5.406.671-2.578 2.531-4.188 4.812-4.078m33.453-21.36c-9 0-15.594 9.188-15.594 21.672 0 12.47 6.594 21.656 15.594 21.656 8.813 0 15.547-9.187 15.547-21.359 0-7.078-1.625-12.297-5.172-16.75-2.812-3.406-6.359-5.219-10.375-5.219m-.062 3.125c1.797 0 3.25 1.078 3.906 3 .781 1.985 1.25 8.282 1.25 15.72 0 6.187-.469 12.655-1.016 14.702-.656 2.391-2.093 3.656-4.14 3.656-1.86 0-3.235-1.015-3.953-3-.782-1.984-1.266-8.343-1.266-15.53 0-6.313.484-12.845 1.016-14.89.671-2.392 2.109-3.658 4.203-3.658" />
   <path class="prefix__NoteDot" d="M581.566 229.784a4.955 4.955 0 004.96 4.96 4.955 4.955 0 004.961-4.96 4.955 4.955 0 00-4.96-4.96 4.955 4.955 0 00-4.961 4.96" />
</svg>