<svg xmlns="http://www.w3.org/2000/svg" version="1.2" viewBox="0 0 2600 1500" height="375" width="650">
   <path stroke-linejoin="bevel" stroke-width="2.73" stroke="#000" fill="none" class="prefix__StaffLines" d="M156.614 154.252H2583.78M156.614 179.055H2583.78M156.614 203.858H2583.78M156.614 228.661H2583.78M156.614 253.465H2583.78M32.598 485.26H2583.78M32.598 510.06H2583.78M32.598 534.87H2583.78M32.598 559.67H2583.78M32.598 584.47H2583.78M32.598 816.27H2583.78M32.598 841.07H2583.78M32.598 865.87H2583.78M32.598 890.68H2583.78M32.598 915.48H2583.78M32.598 1147.28H2583.78M32.598 1172.08H2583.78M32.598 1196.88H2583.78M32.598 1221.68H2583.78M32.598 1246.49H2583.78" />
   <path d="M37.083 420.34c-1.25.75-1.61 1.24-1.61 2.03 0 .77.641 1.33 1.438 1.33 1.047 0 1.641-.77 1.766-2.25 1.234-1 2.562-1.44 4.156-1.44 2.969 0 4.609 1.85 4.609 5.16 0 5.2-3.359 9.44-7.484 9.44-2.36 0-4.281-1.11-4.281-2.44 0-.24.046-.31.234-.44 1.047-.48 1.047-.48 1.328-.67.641-.48 1-1.2 1-2.05 0-1.28-1-2.23-2.406-2.23-1.75 0-3.078 1.47-3.078 3.39 0 3.53 3.047 6.08 7.328 6.08 6.469 0 11.719-5.16 11.719-11.55 0-4.05-3.079-6.89-7.438-6.89-1.734 0-3.125.36-5.047 1.33l2.235-7.56c2.125.43 3.812.64 5.25.64 2.64 0 5-.85 6.312-2.24.688-.8 1.078-1.48 1.078-2 0-.25-.125-.48-.281-.48-.109 0-.203.04-.438.15-1.312.64-3 1-4.562 1-2.391 0-5.234-.39-8.188-1.15l-3.64 12.84M48.317 752.99c-.687 3.16-1.406 5.08-2.562 7.31-1.953 3.64-4.032 5.28-6.844 5.28-1.156 0-1.906-.48-1.906-1.2 0-.28.078-.39.39-.87.407-.52.61-1 .61-1.57 0-1.31-1.047-2.31-2.407-2.31-1.593 0-2.718 1.19-2.718 2.95 0 2.72 2.562 4.68 6.125 4.68 3.187 0 6.156-1.4 8.593-4.19 3.485-3.89 5.75-9.69 5.75-14.61 0-6.24-3-9.95-7.953-9.95a9.72 9.72 0 00-7.562 3.59c-1.797 2.2-2.828 5-2.828 7.61 0 3.8 2.906 6.67 6.797 6.67 2.64 0 4.671-1.08 6.515-3.39m-2.953-12.8c2.547 0 4.188 2.03 4.188 5.24 0 4.95-2.719 8.59-6.391 8.59-2.531 0-3.922-1.72-3.922-4.72 0-2.36.563-4.48 1.641-6.28 1.203-1.92 2.64-2.83 4.484-2.83M49.958 1069.36h-1.156c-2.204 1.64-6.438 3.03-9.329 3.03l-.468 1.76h2.75c2.437 0 2.718.08 2.718.8 0 .36 0 .36-.39 1.8l-4.281 16c-.532 2-.563 2.12-.922 2.48-.407.39-1.25.52-3.36.56h-1.718l-.204 1.88h14.797l.235-1.88h-2.157c-2.593 0-3.156-.2-3.156-1.07 0-.29.156-1.21.36-1.97l6.281-23.39m17.234 13.75c1.891-.6 2.641-.93 3.61-1.57 1.875-1.23 3.031-3.43 3.031-5.67 0-3.79-3.031-6.36-7.516-6.36-4.359 0-8.047 2.72-8.047 6 0 1.64 1 2.77 2.532 2.77 1.312 0 2.281-.97 2.281-2.28 0-.69-.203-1.17-.844-1.8-.406-.37-.562-.64-.562-.92 0-.97 2-1.97 3.875-1.97 2.687 0 4.281 1.48 4.281 3.97 0 3.55-2.516 6.9-5.203 6.9-.11 0-.469-.03-.907-.07-1.171-.08-1.171-.08-1.406-.08-.875 0-1.359.4-1.359 1.12 0 .64.437 1.03 1.156 1.03.203 0 .484-.03.797-.07a8.865 8.865 0 011.531-.16c1.875 0 3.156 1.69 3.156 4.16 0 1.92-.437 3.76-1.328 5.28-1.187 2.15-3.031 3.2-5.64 3.2-2.235 0-4.157-1.12-4.157-2.41 0-.43.172-.59.797-.87 1.172-.52 1.641-1.23 1.641-2.31 0-1.41-1.109-2.49-2.547-2.49-1.719 0-2.844 1.36-2.844 3.44 0 3.88 2.953 6.31 7.75 6.31 6.047 0 10.641-4.03 10.641-9.39 0-1.44-.438-2.69-1.281-3.69-.875-1.03-1.672-1.51-3.438-2.07" class="prefix__MeasureNumber" />
   <path d="M1060.02 238.583c44.86 40.853 139.55 47.054 189.36 12.401-50.27 41.583-144.95 35.382-189.36-12.401M1312.5 238.583c31.56 29.052 94.68 29.052 126.24 0-31.56 35.997-94.68 35.997-126.24 0M1725.76 156.732c11.6-31.782 50.92-44.184 78.65-24.803-25.64-12.758-64.97-.356-78.65 24.803M1883.06 156.732c69.26-36.466 187.23-11.663 235.94 49.607-50.14-54.474-168.11-79.277-235.94-49.607M2254.83 193.937c39.07-38.101 113.91-35.001 149.69 6.201-36.07-34.263-110.91-37.363-149.69-6.201M367.546 487.74c12.051-32.23 52.226-44.63 80.349-24.8-26.075-13.2-66.249-.8-80.349 24.8M528.244 487.74c70.416-36.94 190.939-12.14 241.046 49.61-51.507-54.95-172.03-79.75-241.046-49.61M908.33 594.39c58.32 38.29 170.37 32.09 224.11-12.4-53.35 51.42-165.41 57.62-224.11 12.4M1207.15 524.94c22.71-40.73 82.47-53.14 119.52-24.8-35.63-21.54-95.4-9.13-119.52 24.8M1582.49 544.79c44.3 52.35 151.39 77.15 214.19 49.6-64.37 34.32-171.46 9.51-214.19-49.6M1868.08 609.42c51.2 43.51 158.3 49.71 214.18 12.4-56.28 44.24-163.38 38.04-214.18-12.4M2213.85 619.2c39.33 38.23 123.17 44.43 167.69 12.4-45.03 38.96-128.88 32.76-167.69-12.4M238.988 950.2c24.468 11.56 61.521-.85 74.106-24.8-10.381 30.54-47.434 42.94-74.106 24.8M387.2 962.61c21.477 14.52 58.53 8.32 74.106-12.41-14.43 27.58-51.483 33.78-74.106 12.41M535.412 925.4c38.884 28.84 111.174 22.64 144.579-12.4-32.812 41.96-105.101 48.16-144.579 12.4M814.288 913c55.632 41.26 166.892 41.26 222.522 0-55.63 48.21-166.89 48.21-222.522 0M1110.98 855.95c39.59-53.99 136.01-72.6 192.85-37.2-55.52-28.58-151.95-9.97-192.85 37.2M1485.44 875.8c46.57 53.19 157.89 78 222.64 49.6-66.26 35.18-177.58 10.37-222.64-49.6M1782.29 937.8c51.07 47.36 162.39 59.76 222.63 24.81-61.01 41.85-172.33 29.45-222.63-24.81M2139.33 950.2c58.85 47.29 235.41 47.29 294.26 0-58.85 54.23-235.41 54.23-294.26 0M238.988 1256.41c14.39 19.27 48.969 25.47 69.159 12.4-21.415 19.91-55.995 13.71-69.159-12.4M377.306 1231.61c23.161 10.17 57.74-2.24 69.159-24.81-9.074 29.11-43.654 41.51-69.159 24.81M515.624 1231.61c14.39 19.27 48.97 25.47 69.159 12.4-21.415 19.9-55.995 13.7-69.159-12.4M653.942 1268.81c14.39 19.27 48.97 25.47 69.159 12.4-21.415 19.91-55.994 13.71-69.159-12.4M853.23 1293.61c56.09 42.93 218.11 35.49 270.03-12.4-51.6 54.83-213.62 62.27-270.03 12.4M1213.27 1256.41c46.46 33.03 134.26 26.83 175.61-12.4-40.86 46.15-128.66 52.35-175.61 12.4M1570 1206.8c11.94 23.21 47.64 35.61 71.4 24.81-26.04 17.36-61.74 4.96-71.4-24.81M1712.8 1244.01c11.94 23.2 47.64 35.61 71.4 24.8-26.04 17.37-61.74 4.96-71.4-24.8M1855.6 1281.21c14.93 19.95 50.63 26.15 71.41 12.4-21.97 20.59-57.67 14.39-71.41-12.4M1998.41 1281.21c23.76 10.81 59.46-1.59 71.4-24.8-9.67 29.77-45.37 42.17-71.4 24.8M2201.4 1281.21c38.26 37.69 120.02 43.89 163.52 12.4-44.03 38.42-125.79 32.22-163.52-12.4" fill-rule="evenodd" stroke-linejoin="round" stroke-linecap="round" stroke-width="1.74" stroke="#000" class="prefix__SlurSegment" />
   <path stroke-linejoin="bevel" stroke-width="4.46" stroke="#000" class="prefix__BarLine" d="M984.94 152.888v101.941M1525.85 152.888v101.941M2183.76 152.888v101.941M2581.55 152.888v101.941M835.75 483.9v101.94M1508.41 483.9v101.94M2139.77 483.9v101.94M2581.55 483.9v101.94M740.211 814.9v101.94M1410.86 814.9v101.94M2065.25 814.9v101.94M2581.55 814.9v101.94M778.657 1145.91v101.94M1495.92 1145.91v101.94M2127.33 1145.91v101.94M2559.6 1145.91v101.94" />
   <path stroke-linejoin="bevel" stroke-width="13.64" stroke="#000" class="prefix__BarLine" d="M2576.96 1145.91v101.94" />
   <path stroke-linejoin="bevel" stroke-width="3.97" stroke="#000" class="prefix__LedgerLine" d="M1914.67 609.28h49.6M2356.74 609.28h49.6M362.401 940.28h49.598M1905.91 940.28h49.6M1980.12 940.28h49.6M2335.22 940.28h49.6M828.43 1271.29h49.6M918.44 1296.09h49.6M918.44 1271.29h49.6M1008.45 1271.29h49.6M1902.21 1271.29h49.59M2340.12 1271.29h49.6" />
   <path stroke-linejoin="bevel" stroke-width="2.73" stroke="#000" class="prefix__Stem" d="M432.642 188.282v-77.436M515.702 250.29V129.449M598.763 237.888v-83.636M781.495 237.888v-77.435M892.66 225.487v-71.235M1074.77 213.085V110.846M1137.89 188.282v-77.436M1201.01 213.085V110.846M1264.13 225.487V110.846M1327.25 213.085V135.65M1390.38 225.487V135.65M1453.5 213.085V135.65M1585.17 194.79v77.277M1711.01 182.389v74.414M1789.65 157.586v89.678M1868.3 182.389v89.678M1946.95 194.79v87.612M2025.6 219.593v73.143M2104.24 231.995v71.076M2240.08 219.593v77.277M2314.92 194.79v83.478M2419.27 225.487v-80.536M224.234 525.8v77.27M352.792 513.4v74.41M433.141 488.59v89.68M513.49 513.4v89.67M593.838 525.8v87.61M674.187 550.6v73.14M754.536 563v71.08M923.08 568.9v-77.44M997.79 593.7V489.39M1072.49 568.9v-81.57M1147.2 556.49v-71.23M1192.39 550.6v77.28M1311.92 525.8v86.81M1386.62 513.4v89.67M1597.25 519.29v-83.64M1668.64 544.09v-98.1M1740.04 556.49V456.32M1811.43 568.9V466.66M1882.83 556.49v-71.23M1954.23 606.1V485.26M2025.62 593.7V485.26M2097.02 568.9v-83.64M2228.6 593.7v-83.64M2312.45 568.9v-77.44M2396.3 606.1v-83.64M253.742 924.71V822.47M327.848 899.9v-77.43M401.954 937.11V822.47M476.06 924.71V822.47M550.166 899.9v-77.43M694.745 887.5v-71.23M829.04 887.5v-89.83M903.21 875.1v-77.43M977.39 899.9V797.67M1051.56 887.5v-89.83M1096.22 881.61v77.28M1214.9 856.81v86.81M1289.07 844.4v89.68M1500.19 850.3v-83.64M1574.41 875.1V777M1648.62 887.5V787.33M1722.83 899.9V797.67M1797.04 912.31v-71.24M1871.25 924.71v-75.37M1945.46 937.11v-79.5M2019.68 937.11v-71.24M2154.08 924.71v-83.64M2227.65 912.31v-71.24M2301.21 924.71v-83.64M2374.78 937.11v-96.04M2448.34 924.71v-83.64M253.742 1230.91v-102.24M322.901 1243.31v-124.97M392.06 1206.11V1108M461.219 1181.31v-83.64M530.378 1206.11v-83.64M599.537 1218.51v-85.7M668.696 1243.31v-100.17M737.855 1255.71v-102.23M867.99 1268.12v-89.84M958 1292.92v-116.71M1048.01 1268.12v-93.97M1138.02 1255.71v-83.63M1228.03 1230.91v-77.43M1403.64 1218.51v-71.23M1584.75 1181.31v-83.64M1656.15 1206.11V1108M1727.55 1218.51v-100.17M1798.96 1243.31v-114.64M1870.36 1255.71v-83.63M1941.76 1268.12v-102.24M2013.16 1255.71v-96.03M2084.56 1230.91v-77.43M2216.16 1255.71v-83.63M2297.91 1230.91v-77.43M2379.67 1268.12v-83.64" />
   <path d="M433.022 183.427c-1.783-3.286-5.55-5.07-10.123-5.07-3.364 0-7.038.993-10.619 2.884-6.541 3.473-10.51 9.317-10.51 14.386 0 1.38.295 2.775.992 4.062 1.783 3.27 5.55 4.96 10.123 4.96 3.364 0 7.038-.883 10.619-2.775 6.542-3.472 10.51-9.332 10.51-14.386 0-1.395-.294-2.774-.992-4.061M516.082 245.435c-1.783-3.286-5.55-5.07-10.123-5.07-3.364 0-7.038.993-10.619 2.884-6.541 3.473-10.51 9.317-10.51 14.386 0 1.38.295 2.775.992 4.062 1.783 3.27 5.55 4.96 10.123 4.96 3.364 0 7.038-.883 10.619-2.775 6.542-3.472 10.51-9.332 10.51-14.386 0-1.395-.294-2.774-.992-4.061M599.143 233.033c-1.783-3.286-5.55-5.07-10.123-5.07-3.364 0-7.038.993-10.619 2.884-6.541 3.473-10.51 9.317-10.51 14.386 0 1.38.295 2.775.992 4.062 1.783 3.27 5.55 4.96 10.123 4.96 3.364 0 7.038-.883 10.619-2.775 6.542-3.472 10.51-9.332 10.51-14.385 0-1.396-.294-2.775-.992-4.062M781.875 233.033c-1.783-3.286-5.55-5.07-10.123-5.07-3.364 0-7.038.993-10.619 2.884-6.542 3.473-10.51 9.317-10.51 14.386 0 1.38.295 2.775.992 4.062 1.783 3.27 5.55 4.96 10.123 4.96 3.364 0 7.038-.883 10.619-2.775 6.542-3.472 10.51-9.332 10.51-14.385 0-1.396-.294-2.775-.992-4.062M893.032 220.631c-1.783-3.286-5.55-5.07-10.123-5.07-3.364 0-7.038.993-10.619 2.884-6.541 3.473-10.51 9.317-10.51 14.386 0 1.38.295 2.775.992 4.062 1.783 3.27 5.55 4.96 10.123 4.96 3.364 0 7.038-.883 10.619-2.775 6.542-3.472 10.51-9.332 10.51-14.386 0-1.395-.294-2.774-.992-4.061M1075.152 208.23c-1.783-3.286-5.55-5.07-10.123-5.07-3.364 0-7.038.993-10.619 2.884-6.542 3.473-10.51 9.317-10.51 14.386 0 1.38.294 2.775.992 4.062 1.783 3.27 5.55 4.96 10.123 4.96 3.364 0 7.038-.883 10.619-2.775 6.542-3.472 10.51-9.332 10.51-14.385 0-1.396-.295-2.775-.992-4.062M1138.272 183.427c-1.783-3.286-5.55-5.07-10.123-5.07-3.364 0-7.038.993-10.619 2.884-6.542 3.473-10.51 9.317-10.51 14.386 0 1.38.294 2.775.992 4.062 1.783 3.27 5.55 4.96 10.123 4.96 3.364 0 7.038-.883 10.619-2.775 6.542-3.472 10.51-9.332 10.51-14.386 0-1.395-.295-2.774-.992-4.061M1201.392 208.23c-1.783-3.286-5.55-5.07-10.123-5.07-3.364 0-7.038.993-10.619 2.884-6.542 3.473-10.51 9.317-10.51 14.386 0 1.38.294 2.775.992 4.062 1.783 3.27 5.55 4.96 10.123 4.96 3.364 0 7.038-.883 10.619-2.775 6.542-3.472 10.51-9.332 10.51-14.385 0-1.396-.295-2.775-.992-4.062M1264.512 220.631c-1.783-3.286-5.55-5.07-10.123-5.07-3.364 0-7.038.993-10.619 2.884-6.542 3.473-10.51 9.317-10.51 14.386 0 1.38.294 2.775.992 4.062 1.783 3.27 5.55 4.96 10.123 4.96 3.364 0 7.038-.883 10.619-2.775 6.542-3.472 10.51-9.332 10.51-14.386 0-1.395-.295-2.774-.992-4.061M1327.632 208.23c-1.783-3.286-5.55-5.07-10.123-5.07-3.364 0-7.038.993-10.619 2.884-6.542 3.473-10.51 9.317-10.51 14.386 0 1.38.294 2.775.992 4.062 1.783 3.27 5.55 4.96 10.123 4.96 3.364 0 7.038-.883 10.619-2.775 6.542-3.472 10.51-9.332 10.51-14.385 0-1.396-.295-2.775-.992-4.062M1390.752 220.631c-1.783-3.286-5.55-5.07-10.123-5.07-3.364 0-7.038.993-10.619 2.884-6.542 3.473-10.51 9.317-10.51 14.386 0 1.38.294 2.775.992 4.062 1.783 3.27 5.55 4.96 10.123 4.96 3.364 0 7.038-.883 10.619-2.775 6.542-3.472 10.51-9.332 10.51-14.386 0-1.395-.295-2.774-.992-4.061M1453.872 208.23c-1.783-3.286-5.55-5.07-10.123-5.07-3.364 0-7.038.993-10.619 2.884-6.542 3.473-10.51 9.317-10.51 14.386 0 1.38.295 2.775.992 4.062 1.783 3.27 5.55 4.96 10.123 4.96 3.364 0 7.038-.883 10.619-2.775 6.542-3.472 10.51-9.332 10.51-14.385 0-1.396-.295-2.775-.992-4.062M1615.062 183.427c-1.783-3.286-5.55-5.07-10.123-5.07-3.364 0-7.038.993-10.619 2.884-6.542 3.473-10.51 9.317-10.51 14.386 0 1.38.294 2.775.992 4.062 1.783 3.27 5.55 4.96 10.123 4.96 3.364 0 7.038-.883 10.619-2.775 6.542-3.472 10.51-9.332 10.51-14.386 0-1.395-.295-2.774-.992-4.061M1740.892 171.025c-1.783-3.286-5.55-5.07-10.123-5.07-3.364 0-7.038.993-10.619 2.884-6.542 3.473-10.51 9.317-10.51 14.386 0 1.38.294 2.775.992 4.062 1.783 3.27 5.55 4.96 10.123 4.96 3.364 0 7.038-.883 10.619-2.775 6.542-3.472 10.51-9.332 10.51-14.386 0-1.395-.295-2.774-.992-4.061M1819.542 146.222c-1.783-3.286-5.55-5.07-10.123-5.07-3.364 0-7.038.993-10.619 2.884-6.542 3.473-10.51 9.317-10.51 14.386 0 1.38.294 2.775.992 4.062 1.783 3.27 5.55 4.96 10.123 4.96 3.364 0 7.038-.883 10.619-2.775 6.542-3.472 10.51-9.332 10.51-14.386 0-1.395-.295-2.774-.992-4.061M1898.192 171.025c-1.783-3.286-5.55-5.07-10.123-5.07-3.364 0-7.038.993-10.619 2.884-6.542 3.473-10.51 9.317-10.51 14.386 0 1.38.294 2.775.992 4.062 1.783 3.27 5.55 4.96 10.123 4.96 3.364 0 7.038-.883 10.619-2.775 6.542-3.472 10.51-9.332 10.51-14.386 0-1.395-.295-2.774-.992-4.061M1976.832 183.427c-1.783-3.286-5.55-5.07-10.123-5.07-3.364 0-7.038.993-10.619 2.884-6.541 3.473-10.51 9.317-10.51 14.386 0 1.38.295 2.775.992 4.062 1.783 3.27 5.55 4.96 10.123 4.96 3.364 0 7.038-.883 10.619-2.775 6.542-3.472 10.51-9.332 10.51-14.386 0-1.395-.295-2.774-.992-4.061M2055.482 208.23c-1.783-3.286-5.55-5.07-10.123-5.07-3.364 0-7.038.993-10.619 2.884-6.542 3.473-10.51 9.317-10.51 14.386 0 1.38.294 2.775.992 4.062 1.783 3.27 5.55 4.96 10.123 4.96 3.364 0 7.038-.883 10.619-2.775 6.542-3.472 10.51-9.332 10.51-14.385 0-1.396-.295-2.775-.992-4.062M2134.132 220.631c-1.783-3.286-5.55-5.07-10.123-5.07-3.364 0-7.038.993-10.619 2.884-6.542 3.473-10.51 9.317-10.51 14.386 0 1.38.294 2.775.992 4.062 1.783 3.27 5.55 4.96 10.123 4.96 3.364 0 7.038-.883 10.619-2.775 6.542-3.472 10.51-9.332 10.51-14.386 0-1.395-.295-2.774-.992-4.061M2269.972 208.23c-1.783-3.286-5.55-5.07-10.123-5.07-3.364 0-7.038.993-10.619 2.884-6.542 3.473-10.51 9.317-10.51 14.386 0 1.38.294 2.775.992 4.062 1.783 3.27 5.55 4.96 10.123 4.96 3.364 0 7.038-.883 10.619-2.775 6.542-3.472 10.51-9.332 10.51-14.385 0-1.396-.295-2.775-.992-4.062M2344.812 183.427c-1.783-3.286-5.55-5.07-10.123-5.07-3.364 0-7.038.993-10.619 2.884-6.542 3.473-10.51 9.317-10.51 14.386 0 1.38.294 2.775.992 4.062 1.783 3.27 5.55 4.96 10.123 4.96 3.364 0 7.038-.883 10.619-2.775 6.542-3.472 10.51-9.332 10.51-14.386 0-1.395-.295-2.774-.992-4.061M2419.652 220.631c-1.783-3.286-5.55-5.07-10.123-5.07-3.364 0-7.038.993-10.619 2.884-6.542 3.473-10.51 9.317-10.51 14.386 0 1.38.294 2.775.992 4.062 1.783 3.27 5.55 4.96 10.123 4.96 3.364 0 7.038-.883 10.619-2.775 6.542-3.472 10.51-9.332 10.51-14.386 0-1.395-.295-2.774-.992-4.061M254.122 514.43c-1.783-3.287-5.55-5.07-10.123-5.07-3.364 0-7.038.993-10.619 2.884-6.541 3.473-10.51 9.317-10.51 14.386 0 1.38.295 2.775.992 4.062 1.783 3.27 5.55 4.96 10.123 4.96 3.364 0 7.038-.883 10.619-2.775 6.542-3.472 10.51-9.332 10.51-14.385 0-1.396-.294-2.775-.992-4.062M382.68 502.03c-1.783-3.287-5.55-5.07-10.123-5.07-3.364 0-7.038.993-10.619 2.884-6.541 3.473-10.51 9.317-10.51 14.386 0 1.38.295 2.775.992 4.062 1.783 3.27 5.55 4.96 10.123 4.96 3.364 0 7.038-.883 10.619-2.775 6.542-3.472 10.51-9.332 10.51-14.385 0-1.396-.294-2.775-.992-4.062M463.029 477.23c-1.783-3.287-5.55-5.07-10.123-5.07-3.364 0-7.038.993-10.619 2.884-6.541 3.473-10.51 9.317-10.51 14.386 0 1.38.295 2.775.992 4.062 1.783 3.27 5.55 4.96 10.123 4.96 3.364 0 7.038-.883 10.619-2.775 6.542-3.472 10.51-9.332 10.51-14.385 0-1.396-.294-2.775-.992-4.062M543.377 502.03c-1.783-3.287-5.55-5.07-10.123-5.07-3.364 0-7.038.993-10.619 2.884-6.541 3.473-10.51 9.317-10.51 14.386 0 1.38.295 2.775.992 4.062 1.783 3.27 5.55 4.96 10.123 4.96 3.364 0 7.038-.883 10.619-2.775 6.542-3.472 10.51-9.332 10.51-14.385 0-1.396-.294-2.775-.992-4.062M623.726 514.43c-1.783-3.287-5.55-5.07-10.123-5.07-3.364 0-7.038.993-10.619 2.884-6.542 3.473-10.51 9.317-10.51 14.386 0 1.38.295 2.775.992 4.062 1.783 3.27 5.55 4.96 10.123 4.96 3.364 0 7.038-.883 10.619-2.775 6.542-3.472 10.51-9.332 10.51-14.385 0-1.396-.294-2.775-.992-4.062M704.075 539.24c-1.783-3.287-5.55-5.07-10.123-5.07-3.364 0-7.038.993-10.619 2.884-6.541 3.473-10.51 9.317-10.51 14.386 0 1.38.295 2.775.992 4.062 1.783 3.27 5.55 4.96 10.123 4.96 3.364 0 7.038-.883 10.619-2.775 6.542-3.472 10.51-9.332 10.51-14.386 0-1.395-.294-2.774-.992-4.061M784.424 551.64c-1.783-3.287-5.55-5.07-10.123-5.07-3.364 0-7.038.993-10.619 2.884-6.541 3.473-10.51 9.317-10.51 14.386 0 1.38.295 2.775.992 4.062 1.783 3.27 5.55 4.96 10.123 4.96 3.364 0 7.038-.883 10.619-2.775 6.542-3.472 10.51-9.332 10.51-14.386 0-1.395-.294-2.774-.992-4.061M923.462 564.04c-1.783-3.287-5.55-5.07-10.123-5.07-3.364 0-7.038.993-10.619 2.884-6.541 3.473-10.51 9.317-10.51 14.386 0 1.38.294 2.775.992 4.062 1.783 3.27 5.55 4.96 10.123 4.96 3.364 0 7.038-.883 10.619-2.775 6.542-3.472 10.51-9.332 10.51-14.386 0-1.395-.294-2.774-.992-4.061M998.172 588.84c-1.783-3.287-5.55-5.07-10.123-5.07-3.364 0-7.038.993-10.619 2.884-6.541 3.473-10.51 9.317-10.51 14.386 0 1.38.295 2.775.992 4.062 1.783 3.27 5.55 4.96 10.123 4.96 3.364 0 7.038-.883 10.619-2.775 6.542-3.472 10.51-9.332 10.51-14.386 0-1.395-.294-2.774-.992-4.061M1072.872 564.04c-1.783-3.287-5.55-5.07-10.123-5.07-3.364 0-7.038.993-10.619 2.884-6.542 3.473-10.51 9.317-10.51 14.386 0 1.38.295 2.775.992 4.062 1.783 3.27 5.55 4.96 10.123 4.96 3.364 0 7.038-.883 10.619-2.775 6.542-3.472 10.51-9.332 10.51-14.386 0-1.395-.295-2.774-.992-4.061M1147.572 551.64c-1.783-3.287-5.55-5.07-10.123-5.07-3.364 0-7.038.993-10.619 2.884-6.542 3.473-10.51 9.317-10.51 14.386 0 1.38.294 2.775.992 4.062 1.783 3.27 5.55 4.96 10.123 4.96 3.364 0 7.038-.883 10.619-2.775 6.542-3.472 10.51-9.332 10.51-14.386 0-1.395-.295-2.774-.992-4.061M1222.282 539.24c-1.783-3.287-5.55-5.07-10.123-5.07-3.364 0-7.038.993-10.619 2.884-6.542 3.473-10.51 9.317-10.51 14.386 0 1.38.294 2.775.992 4.062 1.783 3.27 5.55 4.96 10.123 4.96 3.364 0 7.038-.883 10.619-2.775 6.542-3.472 10.51-9.332 10.51-14.386 0-1.395-.295-2.774-.992-4.061M1341.802 514.43c-1.783-3.287-5.55-5.07-10.123-5.07-3.364 0-7.038.993-10.619 2.884-6.542 3.473-10.51 9.317-10.51 14.386 0 1.38.294 2.775.992 4.062 1.783 3.27 5.55 4.96 10.123 4.96 3.364 0 7.038-.883 10.619-2.775 6.542-3.472 10.51-9.332 10.51-14.385 0-1.396-.295-2.775-.992-4.062M1416.512 502.03c-1.783-3.287-5.55-5.07-10.123-5.07-3.364 0-7.038.993-10.619 2.884-6.542 3.473-10.51 9.317-10.51 14.386 0 1.38.294 2.775.992 4.062 1.783 3.27 5.55 4.96 10.123 4.96 3.364 0 7.038-.883 10.619-2.775 6.542-3.472 10.51-9.332 10.51-14.385 0-1.396-.295-2.775-.992-4.062M1597.622 514.43c-1.783-3.287-5.55-5.07-10.123-5.07-3.364 0-7.038.993-10.619 2.884-6.542 3.473-10.51 9.317-10.51 14.386 0 1.38.295 2.775.992 4.062 1.783 3.27 5.55 4.96 10.123 4.96 3.364 0 7.038-.883 10.619-2.775 6.542-3.472 10.51-9.332 10.51-14.385 0-1.396-.295-2.775-.992-4.062M1669.022 539.24c-1.783-3.287-5.55-5.07-10.123-5.07-3.364 0-7.038.993-10.619 2.884-6.542 3.473-10.51 9.317-10.51 14.386 0 1.38.294 2.775.992 4.062 1.783 3.27 5.55 4.96 10.123 4.96 3.364 0 7.038-.883 10.619-2.775 6.542-3.472 10.51-9.332 10.51-14.386 0-1.395-.295-2.774-.992-4.061M1740.422 551.64c-1.783-3.287-5.55-5.07-10.123-5.07-3.364 0-7.038.993-10.619 2.884-6.542 3.473-10.51 9.317-10.51 14.386 0 1.38.294 2.775.992 4.062 1.783 3.27 5.55 4.96 10.123 4.96 3.364 0 7.038-.883 10.619-2.775 6.542-3.472 10.51-9.332 10.51-14.386 0-1.395-.295-2.774-.992-4.061M1811.812 564.04c-1.783-3.287-5.55-5.07-10.123-5.07-3.364 0-7.038.993-10.619 2.884-6.542 3.473-10.51 9.317-10.51 14.386 0 1.38.294 2.775.992 4.062 1.783 3.27 5.55 4.96 10.123 4.96 3.364 0 7.038-.883 10.619-2.775 6.542-3.472 10.51-9.332 10.51-14.386 0-1.395-.295-2.774-.992-4.061M1883.212 551.64c-1.783-3.287-5.55-5.07-10.123-5.07-3.364 0-7.038.993-10.619 2.884-6.542 3.473-10.51 9.317-10.51 14.386 0 1.38.294 2.775.992 4.062 1.783 3.27 5.55 4.96 10.123 4.96 3.364 0 7.038-.883 10.619-2.775 6.542-3.472 10.51-9.332 10.51-14.386 0-1.395-.295-2.774-.992-4.061M1954.602 601.25c-1.783-3.287-5.55-5.07-10.123-5.07-3.364 0-7.038.993-10.619 2.884-6.541 3.473-10.51 9.317-10.51 14.386 0 1.38.295 2.775.992 4.062 1.783 3.27 5.55 4.96 10.123 4.96 3.364 0 7.038-.883 10.619-2.775 6.542-3.472 10.51-9.332 10.51-14.386 0-1.395-.295-2.774-.992-4.061M2026.002 588.84c-1.783-3.287-5.55-5.07-10.123-5.07-3.364 0-7.038.993-10.619 2.884-6.542 3.473-10.51 9.317-10.51 14.386 0 1.38.294 2.775.992 4.062 1.783 3.27 5.55 4.96 10.123 4.96 3.364 0 7.038-.883 10.619-2.775 6.542-3.472 10.51-9.332 10.51-14.386 0-1.395-.295-2.774-.992-4.061M2097.402 564.04c-1.783-3.287-5.55-5.07-10.123-5.07-3.364 0-7.038.993-10.619 2.884-6.542 3.473-10.51 9.317-10.51 14.386 0 1.38.294 2.775.992 4.062 1.783 3.27 5.55 4.96 10.123 4.96 3.364 0 7.038-.883 10.619-2.775 6.542-3.472 10.51-9.332 10.51-14.386 0-1.395-.295-2.774-.992-4.061M2228.982 588.84c-1.783-3.287-5.55-5.07-10.123-5.07-3.364 0-7.038.993-10.619 2.884-6.542 3.473-10.51 9.317-10.51 14.386 0 1.38.294 2.775.992 4.062 1.783 3.27 5.55 4.96 10.123 4.96 3.364 0 7.038-.883 10.619-2.775 6.542-3.472 10.51-9.332 10.51-14.386 0-1.395-.295-2.774-.992-4.061M2312.832 564.04c-1.783-3.287-5.55-5.07-10.123-5.07-3.364 0-7.038.993-10.619 2.884-6.542 3.473-10.51 9.317-10.51 14.386 0 1.38.294 2.775.992 4.062 1.783 3.27 5.55 4.96 10.123 4.96 3.364 0 7.038-.883 10.619-2.775 6.542-3.472 10.51-9.332 10.51-14.386 0-1.395-.295-2.774-.992-4.061M2396.672 601.25c-1.783-3.287-5.55-5.07-10.123-5.07-3.364 0-7.038.993-10.619 2.884-6.542 3.473-10.51 9.317-10.51 14.386 0 1.38.294 2.775.992 4.062 1.783 3.27 5.55 4.96 10.123 4.96 3.364 0 7.038-.883 10.619-2.775 6.542-3.472 10.51-9.332 10.51-14.386 0-1.395-.295-2.774-.992-4.061M254.122 919.85c-1.783-3.287-5.55-5.07-10.123-5.07-3.364 0-7.038.993-10.619 2.884-6.541 3.473-10.51 9.317-10.51 14.386 0 1.38.295 2.775.992 4.062 1.783 3.27 5.55 4.96 10.123 4.96 3.364 0 7.038-.883 10.619-2.775 6.542-3.472 10.51-9.332 10.51-14.386 0-1.395-.294-2.774-.992-4.061M328.228 895.05c-1.783-3.287-5.55-5.07-10.123-5.07-3.364 0-7.038.993-10.619 2.884-6.541 3.473-10.51 9.317-10.51 14.386 0 1.38.295 2.775.992 4.062 1.783 3.27 5.55 4.96 10.123 4.96 3.364 0 7.038-.883 10.619-2.775 6.542-3.472 10.51-9.332 10.51-14.386 0-1.395-.294-2.774-.992-4.061M402.334 932.25c-1.783-3.287-5.55-5.07-10.123-5.07-3.364 0-7.038.993-10.619 2.884-6.541 3.473-10.51 9.317-10.51 14.386 0 1.38.295 2.775.992 4.062 1.783 3.27 5.55 4.96 10.123 4.96 3.364 0 7.038-.883 10.619-2.775 6.542-3.472 10.51-9.332 10.51-14.386 0-1.395-.294-2.774-.992-4.061M476.44 919.85c-1.783-3.287-5.55-5.07-10.123-5.07-3.364 0-7.038.993-10.619 2.884-6.541 3.473-10.51 9.317-10.51 14.386 0 1.38.295 2.775.992 4.062 1.783 3.27 5.55 4.96 10.123 4.96 3.364 0 7.038-.883 10.619-2.775 6.542-3.472 10.51-9.332 10.51-14.386 0-1.395-.294-2.774-.992-4.061M550.546 895.05c-1.783-3.287-5.55-5.07-10.123-5.07-3.364 0-7.038.993-10.619 2.884-6.541 3.473-10.51 9.317-10.51 14.386 0 1.38.295 2.775.992 4.062 1.783 3.27 5.55 4.96 10.123 4.96 3.364 0 7.038-.883 10.619-2.775 6.542-3.472 10.51-9.332 10.51-14.386 0-1.395-.294-2.774-.992-4.061M695.125 882.65c-1.783-3.287-5.55-5.07-10.123-5.07-3.364 0-7.038.993-10.619 2.884-6.542 3.473-10.51 9.317-10.51 14.386 0 1.38.295 2.775.992 4.062 1.783 3.27 5.55 4.96 10.123 4.96 3.364 0 7.038-.883 10.619-2.775 6.542-3.472 10.51-9.332 10.51-14.386 0-1.395-.294-2.774-.992-4.061M829.422 882.65c-1.783-3.287-5.55-5.07-10.123-5.07-3.364 0-7.038.993-10.619 2.884-6.541 3.473-10.51 9.317-10.51 14.386 0 1.38.295 2.775.992 4.062 1.783 3.27 5.55 4.96 10.123 4.96 3.364 0 7.038-.883 10.619-2.775 6.542-3.472 10.51-9.332 10.51-14.386 0-1.395-.295-2.774-.992-4.061M903.592 870.25c-1.783-3.287-5.55-5.07-10.123-5.07-3.364 0-7.038.993-10.619 2.884-6.541 3.473-10.51 9.317-10.51 14.386 0 1.38.294 2.775.992 4.062 1.783 3.27 5.55 4.96 10.123 4.96 3.364 0 7.038-.883 10.619-2.775 6.542-3.472 10.51-9.332 10.51-14.386 0-1.395-.294-2.774-.992-4.061M977.762 895.05c-1.783-3.287-5.55-5.07-10.123-5.07-3.364 0-7.038.993-10.619 2.884-6.541 3.473-10.51 9.317-10.51 14.386 0 1.38.294 2.775.992 4.062 1.783 3.27 5.55 4.96 10.123 4.96 3.364 0 7.038-.883 10.619-2.775 6.542-3.472 10.51-9.332 10.51-14.386 0-1.395-.294-2.774-.992-4.061M1051.942 882.65c-1.783-3.287-5.55-5.07-10.123-5.07-3.364 0-7.038.993-10.619 2.884-6.542 3.473-10.51 9.317-10.51 14.386 0 1.38.294 2.775.992 4.062 1.783 3.27 5.55 4.96 10.123 4.96 3.364 0 7.038-.883 10.619-2.775 6.542-3.472 10.51-9.332 10.51-14.386 0-1.395-.295-2.774-.992-4.061M1126.112 870.25c-1.783-3.287-5.55-5.07-10.123-5.07-3.364 0-7.038.993-10.619 2.884-6.541 3.473-10.51 9.317-10.51 14.386 0 1.38.295 2.775.992 4.062 1.783 3.27 5.55 4.96 10.123 4.96 3.364 0 7.038-.883 10.619-2.775 6.542-3.472 10.51-9.332 10.51-14.386 0-1.395-.295-2.774-.992-4.061M1244.792 845.44c-1.783-3.287-5.55-5.07-10.123-5.07-3.364 0-7.038.993-10.619 2.884-6.542 3.473-10.51 9.317-10.51 14.386 0 1.38.294 2.775.992 4.062 1.783 3.27 5.55 4.96 10.123 4.96 3.364 0 7.038-.883 10.619-2.775 6.542-3.472 10.51-9.332 10.51-14.385 0-1.396-.295-2.775-.992-4.062M1318.962 833.04c-1.783-3.287-5.55-5.07-10.123-5.07-3.364 0-7.038.993-10.619 2.884-6.542 3.473-10.51 9.317-10.51 14.386 0 1.38.294 2.775.992 4.062 1.783 3.27 5.55 4.96 10.123 4.96 3.364 0 7.038-.883 10.619-2.775 6.542-3.472 10.51-9.332 10.51-14.386 0-1.395-.295-2.774-.992-4.061M1500.572 845.44c-1.783-3.287-5.55-5.07-10.123-5.07-3.364 0-7.038.993-10.619 2.884-6.542 3.473-10.51 9.317-10.51 14.386 0 1.38.294 2.775.992 4.062 1.783 3.27 5.55 4.96 10.123 4.96 3.364 0 7.038-.883 10.619-2.775 6.542-3.472 10.51-9.332 10.51-14.385 0-1.396-.295-2.775-.992-4.062M1574.782 870.25c-1.783-3.287-5.55-5.07-10.123-5.07-3.364 0-7.038.993-10.619 2.884-6.542 3.473-10.51 9.317-10.51 14.386 0 1.38.294 2.775.992 4.062 1.783 3.27 5.55 4.96 10.123 4.96 3.364 0 7.038-.883 10.619-2.775 6.542-3.472 10.51-9.332 10.51-14.386 0-1.395-.295-2.774-.992-4.061M1649.002 882.65c-1.783-3.287-5.55-5.07-10.123-5.07-3.364 0-7.038.993-10.619 2.884-6.542 3.473-10.51 9.317-10.51 14.386 0 1.38.294 2.775.992 4.062 1.783 3.27 5.55 4.96 10.123 4.96 3.364 0 7.038-.883 10.619-2.775 6.542-3.472 10.51-9.332 10.51-14.386 0-1.395-.295-2.774-.992-4.061M1723.212 895.05c-1.783-3.287-5.55-5.07-10.123-5.07-3.364 0-7.038.993-10.619 2.884-6.542 3.473-10.51 9.317-10.51 14.386 0 1.38.294 2.775.992 4.062 1.783 3.27 5.55 4.96 10.123 4.96 3.364 0 7.038-.883 10.619-2.775 6.542-3.472 10.51-9.332 10.51-14.386 0-1.395-.295-2.774-.992-4.061M1797.422 907.45c-1.783-3.287-5.55-5.07-10.123-5.07-3.364 0-7.038.993-10.619 2.884-6.542 3.473-10.51 9.317-10.51 14.386 0 1.38.294 2.775.992 4.062 1.783 3.27 5.55 4.96 10.123 4.96 3.364 0 7.038-.883 10.619-2.775 6.542-3.472 10.51-9.332 10.51-14.386 0-1.395-.295-2.774-.992-4.061M1871.632 919.85c-1.783-3.287-5.55-5.07-10.123-5.07-3.364 0-7.038.993-10.619 2.884-6.542 3.473-10.51 9.317-10.51 14.386 0 1.38.294 2.775.992 4.062 1.783 3.27 5.55 4.96 10.123 4.96 3.364 0 7.038-.883 10.619-2.775 6.542-3.472 10.51-9.332 10.51-14.386 0-1.395-.295-2.774-.992-4.061M1945.842 932.25c-1.783-3.287-5.55-5.07-10.123-5.07-3.364 0-7.038.993-10.619 2.884-6.541 3.473-10.51 9.317-10.51 14.386 0 1.38.295 2.775.992 4.062 1.783 3.27 5.55 4.96 10.123 4.96 3.364 0 7.038-.883 10.619-2.775 6.542-3.472 10.51-9.332 10.51-14.386 0-1.395-.295-2.774-.992-4.061M2020.052 932.25c-1.783-3.287-5.55-5.07-10.123-5.07-3.364 0-7.038.993-10.619 2.884-6.542 3.473-10.51 9.317-10.51 14.386 0 1.38.294 2.775.992 4.062 1.783 3.27 5.55 4.96 10.123 4.96 3.364 0 7.038-.883 10.619-2.775 6.542-3.472 10.51-9.332 10.51-14.386 0-1.395-.295-2.774-.992-4.061M2154.462 919.85c-1.783-3.287-5.55-5.07-10.123-5.07-3.364 0-7.038.993-10.619 2.884-6.542 3.473-10.51 9.317-10.51 14.386 0 1.38.294 2.775.992 4.062 1.783 3.27 5.55 4.96 10.123 4.96 3.364 0 7.038-.883 10.619-2.775 6.542-3.472 10.51-9.332 10.51-14.386 0-1.395-.295-2.774-.992-4.061M2228.022 907.45c-1.783-3.287-5.55-5.07-10.123-5.07-3.364 0-7.038.993-10.619 2.884-6.542 3.473-10.51 9.317-10.51 14.386 0 1.38.294 2.775.992 4.062 1.783 3.27 5.55 4.96 10.123 4.96 3.364 0 7.038-.883 10.619-2.775 6.542-3.472 10.51-9.332 10.51-14.386 0-1.395-.295-2.774-.992-4.061M2301.592 919.85c-1.783-3.287-5.55-5.07-10.123-5.07-3.364 0-7.038.993-10.619 2.884-6.542 3.473-10.51 9.317-10.51 14.386 0 1.38.294 2.775.992 4.062 1.783 3.27 5.55 4.96 10.123 4.96 3.364 0 7.038-.883 10.619-2.775 6.542-3.472 10.51-9.332 10.51-14.386 0-1.395-.295-2.774-.992-4.061M2375.152 932.25c-1.783-3.287-5.55-5.07-10.123-5.07-3.364 0-7.038.993-10.619 2.884-6.542 3.473-10.51 9.317-10.51 14.386 0 1.38.294 2.775.992 4.062 1.783 3.27 5.55 4.96 10.123 4.96 3.364 0 7.038-.883 10.619-2.775 6.542-3.472 10.51-9.332 10.51-14.386 0-1.395-.295-2.774-.992-4.061M2448.722 919.85c-1.783-3.287-5.55-5.07-10.123-5.07-3.364 0-7.038.993-10.619 2.884-6.542 3.473-10.51 9.317-10.51 14.386 0 1.38.294 2.775.992 4.062 1.783 3.27 5.55 4.96 10.123 4.96 3.364 0 7.038-.883 10.619-2.775 6.542-3.472 10.51-9.332 10.51-14.386 0-1.395-.295-2.774-.992-4.061M254.122 1226.06c-1.783-3.287-5.55-5.07-10.123-5.07-3.364 0-7.038.993-10.619 2.884-6.541 3.473-10.51 9.317-10.51 14.386 0 1.38.295 2.775.992 4.062 1.783 3.27 5.55 4.96 10.123 4.96 3.364 0 7.038-.883 10.619-2.775 6.542-3.472 10.51-9.332 10.51-14.385 0-1.396-.294-2.775-.992-4.062M323.281 1238.46c-1.783-3.287-5.55-5.07-10.123-5.07-3.364 0-7.038.993-10.619 2.884-6.541 3.473-10.51 9.317-10.51 14.386 0 1.38.295 2.775.992 4.062 1.783 3.27 5.55 4.96 10.123 4.96 3.364 0 7.038-.883 10.619-2.775 6.542-3.472 10.51-9.332 10.51-14.385 0-1.396-.294-2.775-.992-4.062M392.44 1201.25c-1.783-3.287-5.55-5.07-10.123-5.07-3.364 0-7.038.993-10.619 2.884-6.541 3.473-10.51 9.317-10.51 14.386 0 1.38.295 2.775.992 4.062 1.783 3.27 5.55 4.96 10.123 4.96 3.364 0 7.038-.883 10.619-2.775 6.542-3.472 10.51-9.332 10.51-14.385 0-1.396-.294-2.775-.992-4.062M461.599 1176.45c-1.783-3.287-5.55-5.07-10.123-5.07-3.364 0-7.038.993-10.619 2.884-6.541 3.473-10.51 9.317-10.51 14.386 0 1.38.295 2.775.992 4.062 1.783 3.27 5.55 4.96 10.123 4.96 3.364 0 7.038-.883 10.619-2.775 6.542-3.472 10.51-9.332 10.51-14.385 0-1.396-.294-2.775-.992-4.062M530.758 1201.25c-1.783-3.287-5.55-5.07-10.123-5.07-3.364 0-7.038.993-10.619 2.884-6.541 3.473-10.51 9.317-10.51 14.386 0 1.38.295 2.775.992 4.062 1.783 3.27 5.55 4.96 10.123 4.96 3.364 0 7.038-.883 10.619-2.775 6.542-3.472 10.51-9.332 10.51-14.385 0-1.396-.294-2.775-.992-4.062M599.917 1213.65c-1.783-3.287-5.55-5.07-10.123-5.07-3.364 0-7.038.993-10.619 2.884-6.541 3.473-10.51 9.317-10.51 14.386 0 1.38.295 2.775.992 4.062 1.783 3.27 5.55 4.96 10.123 4.96 3.364 0 7.038-.883 10.619-2.775 6.542-3.472 10.51-9.332 10.51-14.385 0-1.396-.294-2.775-.992-4.062M669.076 1238.46c-1.783-3.287-5.55-5.07-10.123-5.07-3.364 0-7.038.993-10.619 2.884-6.541 3.473-10.51 9.317-10.51 14.386 0 1.38.295 2.775.992 4.062 1.783 3.27 5.55 4.96 10.123 4.96 3.364 0 7.038-.883 10.619-2.775 6.542-3.472 10.51-9.332 10.51-14.385 0-1.396-.294-2.775-.992-4.062M738.235 1250.86c-1.783-3.287-5.55-5.07-10.123-5.07-3.364 0-7.038.993-10.619 2.884-6.542 3.473-10.51 9.317-10.51 14.386 0 1.38.295 2.775.992 4.062 1.783 3.27 5.55 4.96 10.123 4.96 3.364 0 7.038-.883 10.619-2.775 6.542-3.472 10.51-9.332 10.51-14.385 0-1.396-.294-2.775-.992-4.062M868.372 1263.26c-1.783-3.287-5.55-5.07-10.123-5.07-3.364 0-7.038.993-10.619 2.884-6.541 3.473-10.51 9.317-10.51 14.386 0 1.38.294 2.775.992 4.062 1.783 3.27 5.55 4.96 10.123 4.96 3.364 0 7.038-.883 10.619-2.775 6.542-3.472 10.51-9.332 10.51-14.385 0-1.396-.294-2.775-.992-4.062M958.382 1288.06c-1.783-3.287-5.55-5.07-10.123-5.07-3.364 0-7.038.993-10.619 2.884-6.541 3.473-10.51 9.317-10.51 14.386 0 1.38.294 2.775.992 4.062 1.783 3.27 5.55 4.96 10.123 4.96 3.364 0 7.038-.883 10.619-2.775 6.542-3.472 10.51-9.332 10.51-14.385 0-1.396-.294-2.775-.992-4.062M1048.392 1263.26c-1.783-3.287-5.55-5.07-10.123-5.07-3.364 0-7.038.993-10.619 2.884-6.542 3.473-10.51 9.317-10.51 14.386 0 1.38.294 2.775.992 4.062 1.783 3.27 5.55 4.96 10.123 4.96 3.364 0 7.038-.883 10.619-2.775 6.542-3.472 10.51-9.332 10.51-14.385 0-1.396-.295-2.775-.992-4.062M1138.402 1250.86c-1.783-3.287-5.55-5.07-10.123-5.07-3.364 0-7.038.993-10.619 2.884-6.542 3.473-10.51 9.317-10.51 14.386 0 1.38.294 2.775.992 4.062 1.783 3.27 5.55 4.96 10.123 4.96 3.364 0 7.038-.883 10.619-2.775 6.542-3.472 10.51-9.332 10.51-14.385 0-1.396-.295-2.775-.992-4.062M1228.412 1226.06c-1.783-3.287-5.55-5.07-10.123-5.07-3.364 0-7.038.993-10.619 2.884-6.542 3.473-10.51 9.317-10.51 14.386 0 1.38.294 2.775.992 4.062 1.783 3.27 5.55 4.96 10.123 4.96 3.364 0 7.038-.883 10.619-2.775 6.542-3.472 10.51-9.332 10.51-14.385 0-1.396-.295-2.775-.992-4.062M1404.012 1213.65c-1.783-3.287-5.55-5.07-10.123-5.07-3.364 0-7.038.993-10.619 2.884-6.542 3.473-10.51 9.317-10.51 14.386 0 1.38.294 2.775.992 4.062 1.783 3.27 5.55 4.96 10.123 4.96 3.364 0 7.038-.883 10.619-2.775 6.542-3.472 10.51-9.332 10.51-14.385 0-1.396-.295-2.775-.992-4.062M1585.132 1176.45c-1.783-3.287-5.55-5.07-10.123-5.07-3.364 0-7.038.993-10.619 2.884-6.542 3.473-10.51 9.317-10.51 14.386 0 1.38.294 2.775.992 4.062 1.783 3.27 5.55 4.96 10.123 4.96 3.364 0 7.038-.883 10.619-2.775 6.542-3.472 10.51-9.332 10.51-14.385 0-1.396-.295-2.775-.992-4.062M1656.532 1201.25c-1.783-3.287-5.55-5.07-10.123-5.07-3.364 0-7.038.993-10.619 2.884-6.542 3.473-10.51 9.317-10.51 14.386 0 1.38.294 2.775.992 4.062 1.783 3.27 5.55 4.96 10.123 4.96 3.364 0 7.038-.883 10.619-2.775 6.542-3.472 10.51-9.332 10.51-14.385 0-1.396-.295-2.775-.992-4.062M1727.932 1213.65c-1.783-3.287-5.55-5.07-10.123-5.07-3.364 0-7.038.993-10.619 2.884-6.542 3.473-10.51 9.317-10.51 14.386 0 1.38.294 2.775.992 4.062 1.783 3.27 5.55 4.96 10.123 4.96 3.364 0 7.038-.883 10.619-2.775 6.542-3.472 10.51-9.332 10.51-14.385 0-1.396-.295-2.775-.992-4.062M1799.332 1238.46c-1.783-3.287-5.55-5.07-10.123-5.07-3.364 0-7.038.993-10.619 2.884-6.541 3.473-10.51 9.317-10.51 14.386 0 1.38.295 2.775.992 4.062 1.783 3.27 5.55 4.96 10.123 4.96 3.364 0 7.038-.883 10.619-2.775 6.542-3.472 10.51-9.332 10.51-14.385 0-1.396-.295-2.775-.992-4.062M1870.742 1250.86c-1.783-3.287-5.55-5.07-10.123-5.07-3.364 0-7.038.993-10.619 2.884-6.542 3.473-10.51 9.317-10.51 14.386 0 1.38.294 2.775.992 4.062 1.783 3.27 5.55 4.96 10.123 4.96 3.364 0 7.038-.883 10.619-2.775 6.542-3.472 10.51-9.332 10.51-14.385 0-1.396-.295-2.775-.992-4.062M1942.142 1263.26c-1.783-3.287-5.55-5.07-10.123-5.07-3.364 0-7.038.993-10.619 2.884-6.542 3.473-10.51 9.317-10.51 14.386 0 1.38.294 2.775.992 4.062 1.783 3.27 5.55 4.96 10.123 4.96 3.364 0 7.038-.883 10.619-2.775 6.542-3.472 10.51-9.332 10.51-14.385 0-1.396-.295-2.775-.992-4.062M2013.542 1250.86c-1.783-3.287-5.55-5.07-10.123-5.07-3.364 0-7.038.993-10.619 2.884-6.542 3.473-10.51 9.317-10.51 14.386 0 1.38.294 2.775.992 4.062 1.783 3.27 5.55 4.96 10.123 4.96 3.364 0 7.038-.883 10.619-2.775 6.542-3.472 10.51-9.332 10.51-14.385 0-1.396-.295-2.775-.992-4.062M2084.942 1226.06c-1.783-3.287-5.55-5.07-10.123-5.07-3.364 0-7.038.993-10.619 2.884-6.542 3.473-10.51 9.317-10.51 14.386 0 1.38.294 2.775.992 4.062 1.783 3.27 5.55 4.96 10.123 4.96 3.364 0 7.038-.883 10.619-2.775 6.542-3.472 10.51-9.332 10.51-14.385 0-1.396-.295-2.775-.992-4.062M2216.532 1250.86c-1.783-3.287-5.55-5.07-10.123-5.07-3.364 0-7.038.993-10.619 2.884-6.542 3.473-10.51 9.317-10.51 14.386 0 1.38.294 2.775.992 4.062 1.783 3.27 5.55 4.96 10.123 4.96 3.364 0 7.038-.883 10.619-2.775 6.542-3.472 10.51-9.332 10.51-14.385 0-1.396-.295-2.775-.992-4.062M2298.292 1226.06c-1.783-3.287-5.55-5.07-10.123-5.07-3.364 0-7.038.993-10.619 2.884-6.542 3.473-10.51 9.317-10.51 14.386 0 1.38.294 2.775.992 4.062 1.783 3.27 5.55 4.96 10.123 4.96 3.364 0 7.038-.883 10.619-2.775 6.542-3.472 10.51-9.332 10.51-14.385 0-1.396-.295-2.775-.992-4.062M2380.052 1263.26c-1.783-3.287-5.55-5.07-10.123-5.07-3.364 0-7.038.993-10.619 2.884-6.542 3.473-10.51 9.317-10.51 14.386 0 1.38.294 2.775.992 4.062 1.783 3.27 5.55 4.96 10.123 4.96 3.364 0 7.038-.883 10.619-2.775 6.542-3.472 10.51-9.332 10.51-14.385 0-1.396-.295-2.775-.992-4.062" class="prefix__Note" />
   <path d="M239.318 222.786c-1.225-5.38-3.845-9.177-4.62-10.2-3.163-4.248-7.147-7.07-11.797-8.418-3.085-.868-6.061-.992-8.464-.806a2314.654 2314.654 0 01-2.93-17.207c5.41-6.124 9.007-11.875 11.27-16.138 3.441-6.526 4.573-11.068 4.635-11.27 1.705-5.178 2.062-12.82.961-20.959-.992-7.487-3.07-14.152-5.41-17.377-1.008-1.41-2.062-2.14-3.085-2.14-1.21 0-3.705 1.225-6.573 3.984-2.279 2.17-5.519 6.03-8.06 11.999-2.977 7.007-3.194 16.417-2.838 23.082.372 7.224 1.473 12.867 1.489 12.914.015.093.279 1.58.713 4.123-.217.233-.465.45-.713.698-1.024.992-2.202 2.108-3.581 3.488-.853.852-1.799 1.751-2.79 2.713-8.372 8.076-21.068 20.307-21.068 39.312 0 4.667.9 9.054 2.666 13.038 1.566 3.565 3.845 6.82 6.76 9.673 7.673 7.503 18.183 10.68 25.174 10.526 2.93-.078 5.55-.31 7.922-.76 1.814 9.534 2.945 16.51 2.976 21.811.047 6.465-1.596 10.418-5.456 13.162-2.419 1.72-5.21 2.666-8.278 2.805-2.574.124-4.822-.34-6.232-.744h-.016s-.279-.093-.294-.279c-.016-.186.34-.232.34-.232h.032c1.907-.434 5.441-1.659 7.782-4.93 1.782-2.511 2.65-7.1.821-11.006-1.1-2.372-3.58-5.302-9.161-5.751-2.48-.202-4.728.31-6.713 1.503-1.798 1.07-3.286 2.698-4.325 4.682-2.433 4.666-1.984 10.355 1.116 14.169 2.946 3.596 7.519 5.89 12.914 6.464.852.093 1.69.124 2.526.124 4.403 0 8.759-1.194 12.309-3.38 3.627-2.557 5.736-6.51 6.402-12.091.558-4.604.17-10.48-1.209-18.494-.356-2.077-.899-5.085-1.55-8.805 5.705-1.907 9.828-5.457 13.564-11.27 3.271-5.69 4.201-11.75 2.79-18.013m-33.949 26.012c-4.604-1.21-9.006-3.69-12.727-7.177-1.302-1.21-3.162-3.364-4.62-6.728-1.348-3.147-2.015-6.558-1.953-10.107.062-4.667 1.364-9.457 3.845-14.2 2.899-5.535 7.425-11.022 13.44-16.308a89.216 89.216 0 004.077-3.814c.76 4.232 1.581 8.883 2.45 13.72-3.814 1.255-8.527 4.386-11.612 9.998-3.519 6.511-3.38 11.999-2.65 15.456.93 4.418 3.44 8.154 6.867 10.23.93.559 5.022 2.667 6.852 2.094a1.16 1.16 0 00.775-.667c.511-1.163-.512-1.798-2.046-2.744a27.278 27.278 0 01-1.985-1.317c-3.302-2.465-4.743-6.883-3.674-11.24a12.438 12.438 0 013.674-6.216c1.643-1.534 3.674-2.62 6.03-3.255 2.031 11.161 4.078 22.23 5.705 30.523.124.682.264 1.349.388 2.016-4.34.93-8.65.837-12.836-.264m11.24-32.942c10.261-.465 14.493 6.914 15.377 11.704.465 2.527.465 6.93-1.07 11.115-1.162 3.147-3.596 7.193-8.696 9.24-.062-.42-.14-.853-.217-1.272-1.535-8.712-3.457-19.625-5.395-30.787m-7.27-70.394c1.767-5.69 4.48-8.914 6.464-10.634 1.736-1.504 3.364-2.217 4.279-2.217.14 0 .263.03.356.062.465.14.992.697 1.457 1.565 2.295 4.248 1.55 10.914.217 15.316-1.612 5.364-4.51 10.93-13.238 20.463-.17-1.1-.326-2.14-.48-3.116-1.241-8.216-.916-15.44.945-21.44M115.302 553.795c-1.225-5.38-3.845-9.177-4.62-10.2-3.163-4.248-7.147-7.07-11.797-8.418-3.085-.868-6.061-.992-8.464-.806a2314.832 2314.832 0 01-2.93-17.207c5.41-6.124 9.007-11.875 11.27-16.138 3.441-6.526 4.573-11.068 4.635-11.27 1.705-5.177 2.062-12.82.961-20.959-.992-7.487-3.07-14.152-5.41-17.377-1.008-1.41-2.062-2.14-3.085-2.14-1.21 0-3.705 1.225-6.573 3.985-2.279 2.17-5.519 6.03-8.06 11.998-2.977 7.007-3.194 16.417-2.838 23.083.372 7.223 1.473 12.866 1.489 12.913.015.093.279 1.58.713 4.123-.217.233-.465.45-.713.698-1.024.992-2.202 2.108-3.581 3.488-.853.852-1.799 1.751-2.79 2.713-8.372 8.076-21.068 20.307-21.068 39.313 0 4.666.9 9.053 2.666 13.037 1.566 3.565 3.845 6.82 6.76 9.673 7.673 7.503 18.183 10.68 25.174 10.526 2.93-.078 5.55-.31 7.922-.76 1.814 9.534 2.945 16.51 2.976 21.811.047 6.465-1.596 10.418-5.456 13.162-2.419 1.72-5.21 2.666-8.278 2.805-2.574.124-4.822-.34-6.232-.744h-.016s-.279-.093-.294-.279c-.016-.186.34-.232.34-.232h.032c1.907-.434 5.441-1.659 7.782-4.93 1.782-2.511 2.65-7.1.821-11.006-1.1-2.372-3.58-5.302-9.161-5.751-2.48-.202-4.728.31-6.713 1.503-1.798 1.07-3.286 2.698-4.325 4.682-2.433 4.666-1.984 10.355 1.116 14.169 2.946 3.596 7.519 5.89 12.914 6.464.852.093 1.69.124 2.526.124 4.403 0 8.759-1.194 12.309-3.38 3.627-2.557 5.736-6.51 6.402-12.091.558-4.604.17-10.48-1.209-18.494-.356-2.077-.899-5.085-1.55-8.805 5.705-1.907 9.828-5.457 13.564-11.27 3.271-5.69 4.201-11.75 2.79-18.013m-33.949 26.012c-4.604-1.21-9.006-3.69-12.727-7.177-1.302-1.21-3.162-3.364-4.62-6.728-1.348-3.147-2.015-6.558-1.953-10.108.062-4.666 1.364-9.456 3.845-14.2 2.899-5.534 7.425-11.021 13.44-16.307a89.16 89.16 0 004.077-3.814c.76 4.232 1.581 8.883 2.45 13.72-3.814 1.255-8.527 4.386-11.612 9.998-3.519 6.511-3.38 11.999-2.65 15.456.93 4.418 3.44 8.154 6.867 10.23.93.559 5.022 2.667 6.852 2.094a1.16 1.16 0 00.775-.667c.511-1.163-.512-1.798-2.046-2.744a27.285 27.285 0 01-1.985-1.317c-3.302-2.465-4.743-6.883-3.674-11.24a12.438 12.438 0 013.674-6.216c1.643-1.534 3.674-2.62 6.03-3.255 2.031 11.161 4.078 22.23 5.705 30.523.124.683.264 1.349.388 2.016-4.34.93-8.65.837-12.836-.264m11.24-32.942c10.261-.465 14.493 6.914 15.377 11.704.465 2.527.465 6.93-1.07 11.115-1.162 3.147-3.596 7.193-8.696 9.24-.062-.42-.14-.853-.217-1.272-1.535-8.712-3.457-19.625-5.395-30.787m-7.27-70.394c1.767-5.69 4.48-8.914 6.464-10.634 1.736-1.504 3.364-2.217 4.279-2.217.14 0 .263.03.356.062.465.14.992.697 1.457 1.566 2.295 4.247 1.55 10.913.217 15.315-1.612 5.364-4.51 10.93-13.238 20.463-.17-1.1-.326-2.14-.48-3.116-1.241-8.216-.916-15.44.945-21.44M115.302 884.805c-1.225-5.38-3.845-9.177-4.62-10.2-3.163-4.248-7.147-7.07-11.797-8.418-3.085-.868-6.061-.992-8.464-.806a2314.832 2314.832 0 01-2.93-17.207c5.41-6.124 9.007-11.875 11.27-16.138 3.441-6.526 4.573-11.068 4.635-11.27 1.705-5.177 2.062-12.82.961-20.959-.992-7.487-3.07-14.152-5.41-17.377-1.008-1.41-2.062-2.14-3.085-2.14-1.21 0-3.705 1.225-6.573 3.985-2.279 2.17-5.519 6.03-8.06 11.998-2.977 7.007-3.194 16.417-2.838 23.083.372 7.223 1.473 12.866 1.489 12.913.015.093.279 1.58.713 4.123-.217.233-.465.45-.713.698-1.024.992-2.202 2.108-3.581 3.488-.853.852-1.799 1.751-2.79 2.713-8.372 8.076-21.068 20.307-21.068 39.313 0 4.666.9 9.053 2.666 13.037 1.566 3.565 3.845 6.82 6.76 9.673 7.673 7.503 18.183 10.68 25.174 10.526 2.93-.077 5.55-.31 7.922-.76 1.814 9.534 2.945 16.51 2.976 21.811.047 6.465-1.596 10.418-5.456 13.162-2.419 1.72-5.21 2.666-8.278 2.805-2.574.124-4.822-.34-6.232-.744h-.016s-.279-.093-.294-.279c-.016-.186.34-.232.34-.232h.032c1.907-.434 5.441-1.659 7.782-4.93 1.782-2.511 2.65-7.1.821-11.006-1.1-2.372-3.58-5.302-9.161-5.751-2.48-.202-4.728.31-6.713 1.503-1.798 1.07-3.286 2.698-4.325 4.682-2.433 4.666-1.984 10.355 1.116 14.169 2.946 3.596 7.519 5.89 12.914 6.464.852.093 1.69.124 2.526.124 4.403 0 8.759-1.194 12.309-3.38 3.627-2.557 5.736-6.51 6.402-12.091.558-4.604.17-10.48-1.209-18.494-.356-2.077-.899-5.085-1.55-8.805 5.705-1.907 9.828-5.457 13.564-11.27 3.271-5.69 4.201-11.75 2.79-18.013m-33.949 26.012c-4.604-1.21-9.006-3.69-12.727-7.177-1.302-1.21-3.162-3.364-4.62-6.728-1.348-3.147-2.015-6.558-1.953-10.108.062-4.666 1.364-9.456 3.845-14.2 2.899-5.534 7.425-11.021 13.44-16.307a89.16 89.16 0 004.077-3.814c.76 4.232 1.581 8.883 2.45 13.72-3.814 1.255-8.527 4.386-11.612 9.998-3.519 6.511-3.38 11.999-2.65 15.456.93 4.418 3.44 8.154 6.867 10.23.93.559 5.022 2.667 6.852 2.094a1.16 1.16 0 00.775-.667c.511-1.163-.512-1.798-2.046-2.744a27.285 27.285 0 01-1.985-1.317c-3.302-2.465-4.743-6.883-3.674-11.24a12.438 12.438 0 013.674-6.216c1.643-1.534 3.674-2.62 6.03-3.255 2.031 11.161 4.078 22.23 5.705 30.523.124.683.264 1.349.388 2.016-4.34.93-8.65.837-12.836-.264m11.24-32.942c10.261-.465 14.493 6.914 15.377 11.704.465 2.527.465 6.93-1.07 11.115-1.162 3.147-3.596 7.193-8.696 9.24-.062-.42-.14-.853-.217-1.272-1.535-8.712-3.457-19.625-5.395-30.787m-7.27-70.394c1.767-5.69 4.48-8.914 6.464-10.634 1.736-1.504 3.364-2.217 4.279-2.217.14 0 .263.03.356.062.465.14.992.697 1.457 1.566 2.295 4.247 1.55 10.913.217 15.315-1.612 5.364-4.51 10.93-13.238 20.463-.17-1.1-.326-2.14-.48-3.116-1.241-8.216-.916-15.44.945-21.44M115.302 1215.805c-1.225-5.38-3.845-9.177-4.62-10.2-3.163-4.248-7.147-7.07-11.797-8.418-3.085-.868-6.061-.992-8.464-.806a2314.832 2314.832 0 01-2.93-17.207c5.41-6.124 9.007-11.875 11.27-16.138 3.441-6.526 4.573-11.068 4.635-11.27 1.705-5.178 2.062-12.82.961-20.959-.992-7.487-3.07-14.153-5.41-17.377-1.008-1.41-2.062-2.14-3.085-2.14-1.21 0-3.705 1.225-6.573 3.984-2.279 2.17-5.519 6.03-8.06 11.999-2.977 7.007-3.194 16.417-2.838 23.082.372 7.224 1.473 12.867 1.489 12.914.015.093.279 1.58.713 4.123-.217.233-.465.45-.713.698-1.024.992-2.202 2.108-3.581 3.488-.853.852-1.799 1.751-2.79 2.712-8.372 8.077-21.068 20.308-21.068 39.313 0 4.667.9 9.054 2.666 13.038 1.566 3.565 3.845 6.82 6.76 9.673 7.673 7.503 18.183 10.68 25.174 10.526 2.93-.077 5.55-.31 7.922-.76 1.814 9.534 2.945 16.51 2.976 21.811.047 6.465-1.596 10.418-5.456 13.162-2.419 1.72-5.21 2.666-8.278 2.805-2.574.124-4.822-.34-6.232-.744h-.016s-.279-.093-.294-.279c-.016-.186.34-.232.34-.232h.032c1.907-.434 5.441-1.659 7.782-4.93 1.782-2.511 2.65-7.1.821-11.006-1.1-2.372-3.58-5.302-9.161-5.752-2.48-.201-4.728.31-6.713 1.504-1.798 1.07-3.286 2.698-4.325 4.682-2.433 4.666-1.984 10.355 1.116 14.169 2.946 3.596 7.519 5.89 12.914 6.464.852.093 1.69.124 2.526.124 4.403 0 8.759-1.194 12.309-3.38 3.627-2.557 5.736-6.51 6.402-12.091.558-4.604.17-10.48-1.209-18.494-.356-2.077-.899-5.085-1.55-8.805 5.705-1.907 9.828-5.457 13.564-11.27 3.271-5.69 4.201-11.75 2.79-18.013m-33.949 26.012c-4.604-1.21-9.006-3.69-12.727-7.177-1.302-1.21-3.162-3.364-4.62-6.728-1.348-3.147-2.015-6.558-1.953-10.108.062-4.666 1.364-9.456 3.845-14.2 2.899-5.534 7.425-11.021 13.44-16.307a89.16 89.16 0 004.077-3.814c.76 4.232 1.581 8.883 2.45 13.72-3.814 1.255-8.527 4.386-11.612 9.998-3.519 6.511-3.38 11.999-2.65 15.456.93 4.418 3.44 8.154 6.867 10.23.93.559 5.022 2.667 6.852 2.094a1.16 1.16 0 00.775-.667c.511-1.163-.512-1.798-2.046-2.744a27.285 27.285 0 01-1.985-1.317c-3.302-2.465-4.743-6.883-3.674-11.24a12.438 12.438 0 013.674-6.216c1.643-1.534 3.674-2.62 6.03-3.255 2.031 11.161 4.078 22.23 5.705 30.523.124.682.264 1.349.388 2.016-4.34.93-8.65.837-12.836-.264m11.24-32.942c10.261-.465 14.493 6.914 15.377 11.704.465 2.527.465 6.93-1.07 11.115-1.162 3.147-3.596 7.193-8.696 9.24-.062-.42-.14-.853-.217-1.272-1.535-8.712-3.457-19.625-5.395-30.787m-7.27-70.394c1.767-5.69 4.48-8.914 6.464-10.634 1.736-1.504 3.364-2.217 4.279-2.217.14 0 .263.03.356.062.465.14.992.697 1.457 1.565 2.295 4.248 1.55 10.914.217 15.316-1.612 5.364-4.51 10.93-13.238 20.463-.17-1.1-.326-2.14-.48-3.116-1.241-8.216-.916-15.44.945-21.44" class="prefix__Clef" />
   <path d="M284.676 196.014c-.59-3.86-2.977-7.534-8.03-7.534-4.961 0-7.844 3.07-8.34 3.674l.403-31.857c0-.79-.59-1.38-1.396-1.38h-1.178c-.806 0-1.395.59-1.395 1.38l.496 59.637c0 .79.59 1.38 1.395 1.38.186 0 .59-.094.79-.187.388-.201 6.837-3.38 12.2-9.425 3.768-4.279 5.256-9.13 5.256-13.208 0-.883-.093-1.674-.201-2.48m-6.837 3.875c0 1.489-.403 6.046-2.883 9.829-1.69 2.573-5.054 5.255-6.945 6.743l.294-19.346c.202-.9 1.69-3.767 5.659-3.767 3.58 0 3.875 3.364 3.875 5.456v1.085M160.66 527.026c-.589-3.86-2.976-7.534-8.03-7.534-4.96 0-7.843 3.07-8.34 3.674l.404-31.857c0-.79-.59-1.38-1.396-1.38h-1.178c-.806 0-1.395.59-1.395 1.38l.496 59.636c0 .791.59 1.38 1.395 1.38.186 0 .59-.093.79-.186.388-.201 6.837-3.38 12.2-9.425 3.768-4.279 5.256-9.13 5.256-13.208 0-.883-.093-1.674-.201-2.48m-6.837 3.875c0 1.489-.403 6.046-2.883 9.829-1.69 2.573-5.054 5.255-6.945 6.743l.294-19.346c.202-.9 1.69-3.767 5.659-3.767 3.58 0 3.875 3.364 3.875 5.456v1.085M160.66 858.026c-.589-3.86-2.976-7.534-8.03-7.534-4.96 0-7.843 3.07-8.34 3.674l.404-31.857c0-.79-.59-1.38-1.396-1.38h-1.178c-.806 0-1.395.59-1.395 1.38l.496 59.637c0 .79.59 1.38 1.395 1.38.186 0 .59-.094.79-.187.388-.201 6.837-3.38 12.2-9.425 3.768-4.279 5.256-9.13 5.256-13.208 0-.883-.093-1.674-.201-2.48m-6.837 3.876c0 1.488-.403 6.045-2.883 9.828-1.69 2.573-5.054 5.255-6.945 6.743l.294-19.346c.202-.9 1.69-3.767 5.659-3.767 3.58 0 3.875 3.364 3.875 5.456v1.085M160.66 1189.036c-.589-3.86-2.976-7.534-8.03-7.534-4.96 0-7.843 3.07-8.34 3.674l.404-31.857c0-.79-.59-1.38-1.396-1.38h-1.178c-.806 0-1.395.59-1.395 1.38l.496 59.636c0 .791.59 1.38 1.395 1.38.186 0 .59-.093.79-.186.388-.201 6.837-3.38 12.2-9.425 3.768-4.279 5.256-9.13 5.256-13.208 0-.883-.093-1.674-.201-2.48m-6.837 3.876c0 1.488-.403 6.045-2.883 9.828-1.69 2.573-5.054 5.255-6.945 6.743l.294-19.346c.202-.9 1.69-3.767 5.659-3.767 3.58 0 3.875 3.364 3.875 5.456v1.085" class="prefix__KeySig" />
   <path d="M345.52 183.426c-.79 2.17-2.774 9.317-7.642 9.317-6.448 0-7.844-3.968-13.192-3.968-.79 0-1.596.108-2.589.294 0 0 2.48-3.767 13.006-7.038 10.51-3.27 13.193-8.433 13.193-14.386 0-4.17-1.876-12.401-16.866-12.401-14.975 0-17.766 9.022-17.766 13.595 0 4.062 3.38 7.333 7.441 7.333a7.32 7.32 0 007.348-7.333c0-2.775-1.984-5.86-4.557-6.852-.31-.093-.698-.589-.698-1.085 0-.604.496-1.287 2.279-1.783.496-.201 1.891-.496 3.38-.496 1.379 0 2.976.295 4.154 1.085 1.891 1.194 2.589 2.977 2.589 7.441 0 11.611-13.797 14.092-19.548 22.726 0 0-2.977 4.155-2.977 8.821 0 4.666 2.387 4.96 3.566 4.96 1.596 0 3.286-1.286 3.286-3.069 0-.403-.108-.79-.31-1.286-.59-1.396-.79-2.48-.79-3.287 0-.294 0-.589.108-.884.093-.604.884-1.596 3.27-1.596 2.869 0 3.97 3.38 5.752 5.953 1.783 2.588 4.558 4.17 7.736 4.17 3.177 0 7.44-2.28 9.239-5.953 1.783-3.674 4.061-11.115 4.061-13.781 0-1.303-.79-1.892-1.69-1.892-.697 0-1.38.403-1.782 1.395M311.881 241.056h17.037v7.394h-8.154c-.775 0-1.41.62-1.41 1.395v1.891c0 .776.635 1.396 1.41 1.396h30.012a1.39 1.39 0 001.395-1.396v-1.89a1.39 1.39 0 00-1.395-1.396h-8.867v-7.394h8.867a1.39 1.39 0 001.395-1.396v-1.89a1.39 1.39 0 00-1.395-1.396h-8.867v-15.843c0-.527-.31-1.008-.775-1.24l-1.21-.605a1.446 1.446 0 00-1.58.233l-8.976 8.247c-.28.279-.45.635-.45 1.038v8.17h-11.425s11.038-11.937 22.788-27.578c.853-1.147.357-2.186.17-2.372l-2.154-2.186a1.41 1.41 0 00-.992-.418c-.59 0-14.045.03-14.758 0-.713-.016-1.24.604-1.318 1.209 0 0-.527 7.301-3.116 15.378-2.573 8.045-5.487 12.99-8.123 16.587 0 0-.542.977-.186 1.72.341.745.977 1.815.977 1.815s.248.527 1.1.527" class="prefix__TimeSig" />
   <path d="M431.278 103.881l85.789 19.213v12.709l-85.789-19.213v-12.709M431.278 122.483l85.789 19.214v12.709l-85.789-19.214v-12.709M780.131 154.395l113.889-6.353v12.42l-113.889 6.353v-12.42M780.131 172.997l113.889-6.353v12.421l-113.889 6.353v-12.421M1073.41 104.646h192.09v12.401h-192.09v-12.401M1073.41 123.248h192.09v12.402h-192.09v-12.402M1325.89 129.449h128.97v12.401h-128.97v-12.401M1325.89 148.051h65.85v12.402h-65.85v-12.402M1583.81 265.821l207.21-25.134v12.492l-207.21 25.134v-12.492M1709.64 231.955l81.38-9.871v12.493l-81.38 9.87v-12.492M1866.94 265.813l238.67 31.362v12.508l-238.67-31.362v-12.508M1866.94 247.21l238.67 31.363v12.508l-238.67-31.362V247.21M2238.72 290.481l77.57-19.281v12.779l-77.57 19.281v-12.779M2238.72 271.878l77.57-19.28v12.779l-77.57 19.28v-12.779M222.87 596.83l211.635-25.13v12.49L222.87 609.32v-12.49M351.428 562.96l83.077-9.86v12.49l-83.077 9.86v-12.49M512.125 596.82L755.9 628.18v12.5l-243.775-31.35v-12.51M512.125 578.22L755.9 609.58v12.5l-243.775-31.36v-12.5M921.72 485.33l226.84-6.27v12.4l-226.84 6.28v-12.41M921.72 503.94l226.84-6.28v12.41l-226.84 6.27v-12.4M1191.03 621.63l196.96-25.15v12.5l-196.96 25.15v-12.5M1310.55 587.76l77.44-9.89v12.51l-77.44 9.88v-12.5M1595.88 428.99l216.92 31.4v12.53l-216.92-31.4v-12.53M1595.88 447.6l216.92 31.39v12.54l-216.92-31.4V447.6M1881.47 479.06h216.91v12.4h-216.91v-12.4M1881.47 497.66h216.91v12.4h-216.91v-12.4M2227.24 504.32l86.58-19.21v12.7l-86.58 19.21v-12.7M2227.24 522.92l86.58-19.21v12.7l-86.58 19.21v-12.7M252.378 816.27h225.046v12.4H252.378v-12.4M252.378 834.87h225.046v12.4H252.378v-12.4M548.802 816.38l147.307-6.32v12.41l-147.307 6.32v-12.41M696.109 828.66l-32.244 1.39v12.41l32.244-1.38v-12.42M827.68 791.46h225.24v12.41H827.68v-12.41M827.68 810.07h225.24v12.4H827.68v-12.4M1094.86 952.63l195.58-25.15v12.5l-195.58 25.16v-12.51M1213.54 918.77l76.9-9.89v12.5l-76.9 9.89v-12.5M1498.83 760.02l225.36 31.38v12.53l-225.36-31.39v-12.52M1498.83 778.62l225.36 31.39v12.52l-225.36-31.39v-12.52M1795.68 834.53l225.36 25.1v12.48l-225.36-25.1v-12.48M1795.68 853.13l225.36 25.11v12.48l-225.36-25.11v-12.48M2152.72 834.87h223.42v12.4h-223.42v-12.4M2152.72 853.47h223.42v12.4h-223.42v-12.4M252.378 1122.81l210.205-31.41v12.54l-210.205 31.41v-12.54M252.378 1141.41L462.583 1110v12.54l-210.205 31.41v-12.54M529.014 1115.79l210.206 31.42v12.54l-210.206-31.42v-12.54M529.014 1134.4l210.206 31.41v12.54l-210.206-31.41v-12.54M866.62 1172.14l272.76-6.26v12.4l-272.76 6.26v-12.4M866.62 1190.74l272.76-6.26v12.4l-272.76 6.27v-12.41M1226.66 1147.37l178.34-6.3v12.41l-178.34 6.3v-12.41M1405 1159.67l-32.24 1.14v12.41l32.24-1.14v-12.41M1583.39 1091.01l216.93 31.4v12.53l-216.93-31.4v-12.53M1583.39 1109.61l216.93 31.4v12.53l-216.93-31.4v-12.53M1868.99 1166.09l216.94-18.84v12.45l-216.94 18.84v-12.45M1868.99 1184.69l216.94-18.84v12.45l-216.94 18.84v-12.45M2214.79 1166.34l84.49-19.22v12.72l-84.49 19.22v-12.72M2214.79 1184.94l84.49-19.22v12.72l-84.49 19.22v-12.72" fill-rule="evenodd" class="prefix__Beam" />
   <path d="M388.341 332.61v5.843h59.25v-5.843h-59.25m5.063 25.593v5.922h48.015v-5.922h-48.015m-9.563 27.25v5.922h68.016v-5.922h-68.016M572.071 366.891c.641-4.656.875-9.156.875-13.266h36.094v13.266h-36.969m36.969-32v13.125h-36.094v-13.125h36.094m6.094-5.766h-48.11v24.172c0 12.563-1.265 28.609-13.828 39.656 1.188.875 3.547 3 4.344 4.282 7.656-6.719 11.609-15.657 13.594-24.579h37.906v15.797c0 1.735-.625 2.297-2.438 2.375-1.828 0-8.14.078-14.781-.156 1.031 1.656 2.141 4.422 2.531 6.078 8.454 0 13.672-.078 16.672-1.109 2.922-.938 4.11-3 4.11-7.11v-59.406M745.647 348.328h18.485v9.719h-18.485v-9.719m0-14.781h18.485v9.563h-18.485v-9.563m43.125 9.563h-18.875v-9.563h18.875v9.563m0 14.937h-18.875v-9.719h18.875v9.719m-18.484 31.047v-10.906h27.344v-5.766h-27.344v-8.844h24.734v-35.547h-55.375v35.547h24.094v8.844h-26.625v5.766h26.625v10.906h-31.922v5.766h70.078v-5.766h-31.609M830.03 398.641l4.73-2.438c-9.08-9.406-14.69-21.093-14.69-35.156 0-14.062 5.61-25.75 14.69-35.156l-4.73-2.453c-9.49 9.64-15.721 22.203-15.721 37.609 0 15.406 6.231 27.969 15.721 37.594m79.86-19.344c-4.35-4.187-10.89-9.484-17.92-14.937 4.65-6 8.21-13.11 10.89-21.563h9.95v-5.531h-25.67l4.11-1.5c-1.02-3.016-3.71-7.766-6-11.25l-5.53 1.75c2.14 3.406 4.42 8 5.45 11h-23.3v5.531h34.83c-2.2 7.031-5.3 13.031-9.23 18.172-6.49-4.906-13.21-9.797-19.21-13.75l-4.03 3.391c6.17 4.281 13.03 9.406 19.59 14.546-5.84 5.922-13.18 10.344-22.35 13.579 1.1 1.187 2.84 3.875 3.48 5.062 9.47-3.719 17.22-8.687 23.37-15.172 6.8 5.61 12.96 10.828 17.07 14.938l4.5-4.266m-50.39-38.875c-2.3-3.469-7.35-8.625-11.53-12.031l-4.58 3.094c4.26 3.718 9.08 8.937 11.2 12.5l4.91-3.563m-1.11 14.063h-15.8v5.531h10.11v22.906c-3.39 1.266-7.42 4.266-11.22 7.906l4.19 5.61c3.72-4.422 7.5-8.532 10.19-8.532 1.75 0 4.26 2.204 7.51 3.954 5.36 2.843 12.16 3.625 21.33 3.625 7.97 0 21.41-.391 27.56-.782.16-1.828 1.11-4.828 1.89-6.562-7.97.953-20.29 1.5-29.22 1.5-8.53 0-15.4-.469-20.39-3.156-2.76-1.5-4.5-2.922-6.15-3.641v-28.359m67.39-31.047l-4.74 2.453c9.08 9.406 14.69 21.094 14.69 35.156 0 14.063-5.61 25.75-14.69 35.156l4.74 2.438c9.48-9.625 15.72-22.188 15.72-37.594 0-15.406-6.24-27.969-15.72-37.609M1090.11 336.156c-1.81 5.063-5.3 12.094-7.98 16.516l4.18 2.047c2.85-4.266 6.25-10.734 9.18-16.266l-5.38-2.297m-28.59 16.672c-1.19-4.343-4.27-10.984-7.19-16.047l-4.34 1.75c2.84 5.141 5.68 12 6.95 16.438l4.58-2.141m-11.94 8.922c-1.33-2.203-7.42-10.734-9.63-13.578v-2.531h7.66v-5.531h-7.66v-15.204h-5.61v15.204h-10.03v5.531h9.63c-1.97 10.578-6.39 23.14-10.81 29.781.95 1.422 2.37 4.031 3 5.766 3-4.813 6-12.407 8.21-20.375v36.265h5.61v-41.797c2.29 3.875 4.89 8.375 6 10.891l3.63-4.422m12.97-4.344c0 1.579 0 3.329-.08 5.063-5.53 4.031-11.14 8.062-14.86 10.5l2.84 5.297c3.64-2.922 7.66-6.313 11.61-9.719-1.09 9.484-4.65 19.047-16.03 24.484 1.27 1.032 3 3.172 3.72 4.36 16.42-9.094 18.16-25.844 18.16-39.985v-32.421h-5.36v32.421m20.69 33.266c-1.9 0-2.21-.562-2.21-3.484V364.75c4.5 4.11 9.47 9.406 12.08 12.797l3.72-3.703c-2.84-3.641-8.84-9.328-13.59-13.438l-2.21 2.063v-37.484h-5.53v62.125c0 7.031 1.58 8.843 6.95 8.843h7.66c4.89 0 6.31-3.234 6.88-12.625-1.66-.406-3.72-1.343-5.07-2.297-.15 7.579-.47 9.641-2.12 9.641h-6.56M1296.36 344.922h5.84v-6.703h19.91v7.187h5.92v-7.187h18.41v-5.688h-18.41v-7.609h-5.92v7.609h-19.91v-7.609h-5.84v7.609h-18.88v5.688h18.88v6.703m.39 1.75c-4.5 9.156-12 18.172-19.91 23.766 1.43 1.031 3.8 3.093 4.82 4.109 2.68-2.125 5.45-4.812 8.06-7.656v30.187h5.92v-37.531c2.53-3.562 4.91-7.344 6.8-11.141l-5.69-1.734m27.41 43.516c-3.86 0-4.66-.703-4.66-3.86v-14.859c9.17-4.422 17.7-9.156 24.33-13.828l-4.27-4.656c-5.04 4.109-12.23 8.453-20.06 12.562v-18.562h-5.84v21.562c-4.03 1.891-8.14 3.797-12.1 5.453.8 1.266 1.91 3.156 2.3 4.5 3.23-1.344 6.56-2.765 9.8-4.265v12.015c0 7.578 2.14 9.625 10.03 9.625h14.53c7.26 0 9.01-3.469 9.87-15.312-1.73-.407-4.11-1.422-5.53-2.532-.47 10.188-1.09 12.157-4.73 12.157h-13.67M1620.15 339.078h-40.85v-6.39h40.85v6.39m0 10.672h-40.85v-6.406h40.85v6.406m5.84-21.562h-52.45v26.062h52.45v-26.062m-22.52 50.625h26.08v-5.203h-26.08v-8.766h31.21v-5.297h-69.36v5.297h32.39v23.766c-6.8-1.813-11.85-5.454-14.92-12.563.78-2.516 1.5-5.125 2.04-7.891l-5.92-.796c-2.12 11.531-7.11 20.39-15.33 25.671 1.27.954 3.57 3.172 4.35 4.204 5.14-3.797 9.25-8.704 12.32-14.86 6.4 10.656 16.44 13.188 32.32 13.188h21.48c.31-1.735 1.27-4.266 2.05-5.61-4.03.078-20.38.078-23.3.078-3.31 0-6.48-.156-9.33-.468v-10.75M1677.89 398.641l4.73-2.438c-9.08-9.406-14.69-21.093-14.69-35.156 0-14.062 5.61-25.75 14.69-35.156l-4.73-2.453c-9.49 9.64-15.72 22.203-15.72 37.609 0 15.406 6.23 27.969 15.72 37.594m47.56-50.313h5.61v-8.609h13.03v8.609h5.61v-8.609h12.16v-5.531h-12.16V325h-5.61v9.188h-13.03V325h-5.61v9.188h-10.75v5.531h10.75v8.609m-18.25-9.875v30.813h-9.56v-30.813h9.56m5.61 36.25V333h-20.7v48.75h5.53v-7.047h15.17m36.81-25.109c-2.53 10.656-6.56 19.109-12.33 25.906-5.53-7.109-9.4-15.719-11.92-25.672l-5.06 1.188c2.84 11.297 7.11 20.844 13.11 28.515-6.08 5.547-13.74 9.579-23.3 12.579 1.19 1.187 2.84 3.812 3.47 4.984 9.41-3.313 17.22-7.672 23.47-13.359 5.76 6.015 13.03 10.515 21.95 13.437.8-1.5 2.45-3.703 3.8-4.891-8.85-2.531-15.95-6.89-21.8-12.578 6.55-7.515 11.2-16.922 14.3-28.922l-5.69-1.187m24.02-26.156l-4.74 2.453c9.08 9.406 14.69 21.094 14.69 35.156 0 14.063-5.61 25.75-14.69 35.156l4.74 2.438c9.48-9.625 15.72-22.188 15.72-37.594 0-15.406-6.24-27.969-15.72-37.609M1866.81 334.344c-2.69-2.453-8.22-5.859-12.57-8.078l-3.39 4.047c4.35 2.453 9.72 6.078 12.41 8.609l3.55-4.578m-3.16 21.094c-2.92-2.61-8.69-6.157-13.11-8.375l-3.41 4.109c4.5 2.453 10.19 6.234 12.96 8.766l3.56-4.5m-8.77 40.609c3.78-7.437 8.21-17.234 11.61-25.609l-4.65-3.469c-3.64 9-8.71 19.437-12.25 25.594l5.29 3.484m23.22-15.656v-6.156h28.36v6.156h-28.36m28.36-16.344v5.844h-28.36v-5.844h28.36m5.61-4.578h-39.42v37.594h5.45v-12.235h28.36v5.61c0 1.015-.31 1.343-1.42 1.343-1.03.079-4.81.079-8.77-.093.71 1.515 1.43 3.64 1.66 5.062 5.61.078 9.08 0 11.38-.875 2.12-.859 2.76-2.359 2.76-5.359v-31.047m-16.83-9.016v-5.531h18.8v-4.266h-18.8v-4.968h20.71v-4.5h-20.71V325h-5.76v6.188h-20.14v4.5h20.14v4.968h-18.25v4.266h18.25v5.531h-23.07v4.516h52.38v-4.516h-23.55M2240.3 335.219v14.922h-12.87v-14.922h12.87m-12.87 35.937v-15.64h12.87v15.64h-12.87m18.39 5.454v-46.766h-23.92v54.047h5.53v-7.281h18.39m14.78-10.032c.39-3.562.47-7.031.47-10.265v-3.563h20.86v13.828h-21.33m21.33-32.703v13.5h-20.86v-13.5h20.86m5.76-5.531h-32.39v27.969c0 12.156-1.34 27.093-13.9 37.359 1.26.703 3.56 2.766 4.34 3.875 8.45-6.875 12.41-16.281 14.06-25.594h22.13v17.453c0 1.344-.55 1.813-1.89 1.891-1.42 0-6.41.078-11.38-.078.86 1.578 1.82 4.109 2.05 5.766 6.72 0 11.06-.157 13.67-1.11 2.44-1.015 3.31-2.765 3.31-6.469v-61.062M269.082 686.87c-1.813 5.06-5.297 12.1-7.985 16.52l4.188 2.04c2.843-4.26 6.25-10.73 9.172-16.26l-5.375-2.3m-28.594 16.67c-1.188-4.34-4.266-10.98-7.188-16.04l-4.343 1.75c2.843 5.14 5.687 12 6.953 16.43l4.578-2.14m-11.938 8.93c-1.328-2.21-7.422-10.74-9.625-13.58v-2.53h7.657v-5.53h-7.657v-15.21h-5.609v15.21h-10.031v5.53h9.625c-1.969 10.57-6.391 23.14-10.813 29.78.953 1.42 2.375 4.03 3 5.76 3-4.81 6-12.4 8.219-20.37v36.26h5.609V706c2.282 3.87 4.891 8.37 6 10.89l3.625-4.42m12.969-4.35c0 1.58 0 3.33-.078 5.06-5.531 4.04-11.141 8.07-14.859 10.5l2.843 5.3c3.641-2.92 7.657-6.31 11.61-9.72-1.094 9.49-4.657 19.05-16.032 24.49 1.266 1.03 3 3.17 3.719 4.36 16.422-9.1 18.156-25.85 18.156-39.99V675.7h-5.359v32.42m20.688 33.27c-1.891 0-2.204-.56-2.204-3.49v-22.43c4.5 4.11 9.469 9.4 12.079 12.79l3.718-3.7c-2.843-3.64-8.843-9.33-13.593-13.44l-2.204 2.06V675.7h-5.531v62.13c0 7.03 1.578 8.84 6.953 8.84h7.657c4.89 0 6.312-3.24 6.875-12.63-1.657-.4-3.719-1.34-5.063-2.29-.156 7.58-.469 9.64-2.125 9.64h-6.562M332.968 743.53c7.5-1.75 17.531-3.97 27.25-6.02l-.547-5.53c-10.266 2.14-20.86 4.35-27.813 5.53l1.11 6.02m9.718-24.11c6.641-6.8 13.11-15.33 18.641-24.02l-5.219-3.23c-1.656 2.84-3.39 5.76-5.281 8.45l-10.75 1.03c5.063-6.72 10.031-15.17 13.906-23.48l-5.843-2.45c-3.719 9.42-9.875 19.45-11.86 22.06-1.812 2.61-3.312 4.42-4.812 4.81.718 1.5 1.656 4.44 2.062 5.69 1.094-.63 3.156-1.02 13.344-2.13-3.641 4.82-6.953 8.77-8.453 10.19-2.61 2.84-4.5 4.74-6.406 5.14.796 1.5 1.75 4.5 2.062 5.61 1.734-.87 4.578-1.5 26.219-4.83-.156-1.34-.313-3.62-.156-5.2l-17.454 2.36m42.657 17.47v-47.96h16.828v-5.76h-40.297v5.76h17.234v47.96h-18.172v5.84h42.891v-5.84h-18.484M480.369 749.36l4.734-2.44c-9.078-9.41-14.688-21.09-14.688-35.16 0-14.06 5.61-25.75 14.688-35.15l-4.734-2.46c-9.485 9.64-15.719 22.21-15.719 37.61 0 15.41 6.234 27.97 15.719 37.6m28.906-25.11h-9.469V693.2h9.469v31.05m25.125 16.5c-5.125 0-6.156-1.02-6.156-5.21v-27.5l10.578-4.42v26.78h5.609v-29.15l10.984-4.58c0 12.64-.156 21.33-.546 23.23-.407 1.74-1.188 2.05-2.375 2.05-.875 0-3.391 0-5.297-.08.718 1.27 1.187 3.47 1.422 5.06 2.218 0 5.218 0 7.421-.56 2.219-.54 3.797-1.97 4.188-5.22.641-3 .797-14.76.797-29.53l.312-1.11-4.109-1.5-1.109.86-1.329 1.11-10.359 4.27v-19.61h-5.609v21.98l-10.578 4.5V683h-5.61v21.42l-8.219 3.39v-19.98H494.9v48.5h4.906v-6.72h14.609V709.7l1.5 3.56 6.719-2.84v25.05c0 8.45 2.688 10.57 11.61 10.57h19.437c8.219 0 10.031-3.46 10.969-14.21-1.656-.32-3.86-1.19-5.281-2.22-.563 9.01-1.344 11.14-5.922 11.14H534.4m41.719-66.6l-4.735 2.46c9.078 9.4 14.688 21.09 14.688 35.15 0 14.07-5.61 25.75-14.688 35.16l4.735 2.44c9.484-9.63 15.718-22.19 15.718-37.6 0-15.4-6.234-27.97-15.718-37.61M897.42 714.04c-1.26-2.04-6.64-10.34-8.61-13.11v-3.15h7.5v-5.38h-7.5v-16.76h-5.14v16.76h-8.61v5.38h8.38c-1.81 10.75-5.84 23.47-10.11 30.33.87 1.26 2.3 3.4 3 4.98 2.77-4.5 5.3-11.22 7.34-18.48v33.2h5.14v-39.92c2.05 3.72 4.43 8.29 5.54 10.83l3.07-4.68m7.5-26.53c4.99-2.06 10.91-5.06 15.64-8.08l-4.5-3.56c-4.11 2.94-11.14 6.81-16.18 9.11v37.77c0 3.23-1.82 4.5-3 5.12.78 1.03 1.81 3.16 2.2 4.27v.08c1.11-.86 2.92-1.66 12.41-4.74-1.89 6.31-5.69 12.35-13.19 16.61 1.01.88 2.61 2.69 3.31 3.72 15.17-9.09 16.67-24.36 16.67-36.13v-22.75h-4.9v22.68c0 3.39-.08 7.11-.71 10.89l-7.75 2.14v-37.13m38.24-4.42H924.2v64.8h5.15v-59.83h8.68v39.19c0 .93-.33 1.18-1.18 1.26-.8.08-3.41.08-6.49 0 .8 1.35 1.42 3.55 1.66 4.97 4.43 0 7.2-.08 8.86-1.03 1.81-.86 2.28-2.44 2.28-5.12v-44.24M1172.04 743.04c6.64-2.14 15.09-4.73 23.39-7.34l-.96-4.98c-8.84 2.61-17.68 5.21-23.76 6.64l1.33 5.68m5.86-41.07c4.57-6.72 8.92-15.41 12.15-23.71l-5.69-2.54c-2.92 9.42-8.21 19.53-9.87 22.14-1.58 2.68-2.92 4.5-4.34 4.81.71 1.59 1.65 4.51 1.98 5.78 1.09-.56 2.92-1.03 11.77-2.3-3.16 5.05-6.18 9-7.43 10.58-2.29 2.85-4.03 4.83-5.68 5.14.62 1.5 1.57 4.19 1.89 5.38 1.42-.88 4.11-1.66 22.03-5.3-.08-1.11-.08-3.39.08-4.89l-14.22 2.52c5.69-7.04 11.37-15.65 15.97-24.33l-4.91-2.85c-1.42 2.93-2.92 5.85-4.66 8.61l-9.07.96m59.31 9.64c-3 3.23-7.74 7.42-11.92 10.65-.72-1.18-1.5-2.53-2.14-3.86v-10.36h19.51v-5.2h-6.62c.47-7.59.93-17.06 1.01-23.94l-4.03-.32-.78.25h-30.25v5.12h29.37c-.07 2.06-.15 4.42-.31 6.8h-27.4v4.65h27.17c-.08 2.53-.24 5.14-.39 7.44h-30.89v5.2h18.17v15.02c-7.67 5.05-15.64 10.19-20.94 13.27l3.31 4.5c5.07-3.47 11.53-7.9 17.63-12.32v12.88c0 .86-.25 1.11-1.19 1.19-.87 0-3.87 0-7.19-.18.78 1.6 1.58 3.72 1.82 5.3 4.5 0 7.57-.16 9.48-1.03 1.97-.86 2.52-2.28 2.52-5.28v-14.46c4.36 6.4 10.28 11.77 16.9 14.61.8-1.34 2.38-3.32 3.64-4.42-6.08-2.14-11.68-6.33-15.79-11.45 4.5-3.09 9.87-7.27 13.98-11.22l-4.67-2.84m-23.22 9.87c-1.97-3-6.16-7.19-9.8-10.03l-3.95 2.84c3.72 3.08 7.83 7.35 9.72 10.35l4.03-3.16M1353.5 749.36l4.74-2.44c-9.08-9.41-14.69-21.09-14.69-35.16 0-14.06 5.61-25.75 14.69-35.15l-4.74-2.46c-9.48 9.64-15.72 22.21-15.72 37.61 0 15.41 6.24 27.97 15.72 37.6m79.86-19.35c-4.34-4.18-10.89-9.48-17.92-14.93 4.66-6 8.22-13.11 10.89-21.57h9.95v-5.53h-25.67l4.11-1.5c-1.01-3.01-3.7-7.76-6-11.25l-5.53 1.75c2.14 3.41 4.42 8 5.45 11h-23.29v5.53h34.82c-2.2 7.03-5.29 13.03-9.23 18.17-6.48-4.9-13.2-9.79-19.2-13.75l-4.03 3.4c6.17 4.28 13.03 9.4 19.59 14.54-5.84 5.92-13.19 10.35-22.36 13.58 1.11 1.19 2.84 3.88 3.48 5.06 9.47-3.72 17.22-8.68 23.38-15.17 6.8 5.61 12.95 10.83 17.06 14.94l4.5-4.27m-50.39-38.87c-2.3-3.47-7.34-8.63-11.53-12.03l-4.58 3.09c4.27 3.72 9.08 8.94 11.2 12.5l4.91-3.56m-1.11 14.06h-15.8v5.53h10.11v22.91c-3.39 1.26-7.42 4.26-11.21 7.9l4.18 5.61c3.72-4.42 7.5-8.53 10.19-8.53 1.75 0 4.27 2.21 7.52 3.96 5.36 2.84 12.15 3.62 21.32 3.62 7.97 0 21.41-.39 27.57-.78.15-1.83 1.11-4.83 1.89-6.56-7.97.95-20.3 1.5-29.22 1.5-8.53 0-15.41-.47-20.39-3.16-2.77-1.5-4.5-2.92-6.16-3.64V705.2m67.39-31.05l-4.73 2.46c9.08 9.4 14.69 21.09 14.69 35.15 0 14.07-5.61 25.75-14.69 35.16l4.73 2.44c9.49-9.63 15.72-22.19 15.72-37.6 0-15.4-6.23-27.97-15.72-37.61M1597.74 700.86c5.36 6.17 11.05 13.59 13.81 18.32l5.14-3.15c-3.48-5.61-10.9-14.45-16.98-20.86l-1.97 1.03v-20.41h-6.17v57.77h6.17v-32.7m-21.01-7.27c-1.5 11.06-4.19 20.06-7.99 27.49-3.16-5.36-5.84-12.16-7.81-20.85.78-2.14 1.5-4.42 2.12-6.64h13.68m2.68-5.69l-1.11.24h-13.82c.87-3.49 1.65-7.05 2.21-10.61l-6.09-1.58c-2.12 15.42-6.94 30.28-13.19 38.5 1.5.7 3.64 2.28 4.74 3.23 2.06-2.76 3.95-6 5.68-9.71 2.07 7.5 4.75 13.59 7.75 18.4-5.14 7.75-11.68 13.19-19.51 16.99 1.42.87 3.72 3.25 4.75 4.51 7.19-3.72 13.42-9.01 18.56-16.28 9.47 11.38 22.19 13.83 35.63 13.83h11.53c.31-1.67 1.42-4.59 2.36-6.09-3.08.07-11.21.07-13.58.07-12.09 0-23.86-2.12-32.78-12.95 5.29-9.47 9-21.72 10.73-37.36l-3.86-1.19M1883.33 700.86c5.35 6.17 11.04 13.59 13.81 18.32l5.14-3.15c-3.49-5.61-10.91-14.45-16.99-20.86l-1.96 1.03v-20.41h-6.18v57.77h6.18v-32.7m-21.02-7.27c-1.5 11.06-4.19 20.06-7.98 27.49-3.16-5.36-5.85-12.16-7.82-20.85.78-2.14 1.5-4.42 2.13-6.64h13.67m2.69-5.69l-1.11.24h-13.83c.87-3.49 1.66-7.05 2.22-10.61l-6.1-1.58c-2.12 15.42-6.93 30.28-13.18 38.5 1.5.7 3.64 2.28 4.73 3.23 2.06-2.76 3.95-6 5.69-9.71 2.06 7.5 4.75 13.59 7.75 18.4-5.14 7.75-11.69 13.19-19.52 16.99 1.43.87 3.72 3.25 4.75 4.51 7.19-3.72 13.43-9.01 18.57-16.28 9.46 11.38 22.18 13.83 35.62 13.83h11.53c.31-1.67 1.42-4.59 2.36-6.09-3.08.07-11.2.07-13.58.07-12.09 0-23.86-2.12-32.78-12.95 5.3-9.47 9-21.72 10.74-37.36l-3.86-1.19M2199.48 739.64v-7.74h28.98v7.74h-28.98m28.98-12.31h-28.98v-7.19h28.98v7.19m-4.34-18.33c1.34 2.04 2.84 4.18 4.57 6.15h-29.14c1.82-1.97 3.39-4.03 4.82-6.15h19.75m24.71 0v-5.14h-41.31c1.11-1.97 2.14-4.03 3-6.08h31.61v-4.81h-29.78c.7-1.91 1.27-3.88 1.81-5.77h30.33v-5.06h-29.3c.39-1.99.71-3.97.94-5.88l-6.08-.54c-.23 2.06-.47 4.28-.95 6.42h-26.06v5.06h24.89c-.49 1.89-1.11 3.86-1.83 5.77h-20.45v4.81h18.4c-1.03 2.05-2.06 4.11-3.39 6.08h-21.81V709h18.25c-4.97 6.15-11.37 11.61-19.59 15.64 1.42.95 3.25 3.15 4.03 4.65 4.5-2.36 8.45-5.04 11.92-8.04v26.54h6.02v-3.17h28.98v2.86h6.16v-26.33c3.64 3.18 7.67 5.78 11.62 7.68.86-1.5 2.69-3.65 4.11-4.83-7.44-2.92-14.94-8.61-19.83-15h18.31M211.05 1016.31h54.11v10.75h5.922v-16.2h-29.141c-.875-2.3-2.453-5.31-3.875-7.53l-6 1.75a60.924 60.924 0 012.922 5.78h-29.625v16.2h5.687v-10.75m49.688 15.72c-4.422 4.11-11.219 9.33-17.219 13.21-1.656-4.27-4.422-8.46-8.062-12.1 2.046-1.34 3.875-2.69 5.609-4.19h19.594v-5.14h-45.422v5.14h18c-7.5 5.14-18.235 9.1-28.188 11.46 1.016 1.11 2.688 3.48 3.235 4.65 7.578-2.28 15.718-5.36 22.75-9.31 1.5 1.5 2.765 3 3.797 4.66-6.875 5.14-20.079 10.75-29.938 13.11 1.094 1.18 2.359 3.32 3 4.59 9.391-2.92 21.563-8.45 29.297-13.75.953 1.81 1.578 3.72 2.141 5.53-7.829 7.11-23.157 14.45-35.782 17.38 1.094 1.34 2.438 3.48 3.078 4.98 11.297-3.48 24.797-10.03 33.813-16.91.703 6.4-.719 11.85-3.094 13.58-1.5 1.42-3 1.66-5.047 1.66-1.656 0-4.265-.16-7.109-.39.859 1.58 1.5 3.87 1.5 5.53 2.531.08 4.969.16 6.797.16 3.469 0 5.531-.63 8.047-2.77 4.265-3.31 6.25-13.03 3.562-23.22 1.188-.64 2.531-1.42 3.703-2.22 4.266 11.38 11.782 20.55 21.813 25.05.781-1.5 2.531-3.72 3.781-4.81-9.859-3.8-17.375-12.72-21-23.16 4.266-2.84 8.609-6 12.156-8.92l-4.812-3.8M359.262 1016.31h54.11v10.75h5.922v-16.2h-29.141c-.875-2.3-2.453-5.31-3.875-7.53l-6 1.75a60.924 60.924 0 012.922 5.78h-29.625v16.2h5.687v-10.75m49.688 15.72c-4.422 4.11-11.219 9.33-17.219 13.21-1.656-4.27-4.422-8.46-8.062-12.1 2.046-1.34 3.875-2.69 5.609-4.19h19.594v-5.14H363.45v5.14h18c-7.5 5.14-18.235 9.1-28.188 11.46 1.016 1.11 2.688 3.48 3.235 4.65 7.578-2.28 15.718-5.36 22.75-9.31 1.5 1.5 2.765 3 3.797 4.66-6.875 5.14-20.079 10.75-29.938 13.11 1.094 1.18 2.359 3.32 3 4.59 9.391-2.92 21.563-8.45 29.297-13.75.953 1.81 1.578 3.72 2.141 5.53-7.829 7.11-23.157 14.45-35.782 17.38 1.094 1.34 2.438 3.48 3.078 4.98 11.297-3.48 24.797-10.03 33.813-16.91.703 6.4-.719 11.85-3.094 13.58-1.5 1.42-3 1.66-5.047 1.66-1.656 0-4.265-.16-7.109-.39.859 1.58 1.5 3.87 1.5 5.53 2.531.08 4.969.16 6.797.16 3.469 0 5.531-.63 8.047-2.77 4.265-3.31 6.25-13.03 3.562-23.22 1.188-.64 2.531-1.42 3.703-2.22 4.266 11.38 11.782 20.55 21.813 25.05.781-1.5 2.531-3.72 3.781-4.81-9.859-3.8-17.375-12.72-21-23.16 4.266-2.84 8.609-6 12.156-8.92l-4.812-3.8M523.974 1038.28h-16.578v-16.51h16.578v16.51m-16.578 24.17v-18.96h16.578v18.96h-16.578m6.625-58.81c-.547 3.72-1.968 9.03-3.156 12.83h-8.844V1074h5.375v-6.26h21.953v-51.27H516.24c1.344-3.41 2.766-7.75 4.109-11.64l-6.328-1.19m53.953 12.6h-23.609c1.344-3.72 2.453-7.52 3.391-11.41l-5.61-1.34c-2.515 10.85-6.781 21.75-12.078 28.7 1.266.8 3.781 2.37 4.813 3.33 2.765-3.72 5.218-8.53 7.422-13.83h20.078c-1.032 31.44-2.219 43.45-4.828 46.22-.782 1.01-1.657 1.17-3.235 1.17-1.812 0-6.562 0-11.687-.47 1.093 1.66 1.812 4.03 1.968 5.77 4.422.23 8.922.4 11.688.07 2.687-.23 4.5-.93 6.25-3.15 3.156-3.88 4.187-16.03 5.437-52.06v-3m-12.468 35.54c-2.532-4.65-7.985-12.23-12.407-17.84l-4.578 2.69c4.344 5.68 9.641 13.5 12 18.23l4.985-3.08M802.835 1047.69l-9.094 3.8v-23.16h8.453v-5.61h-8.453v-17.97h-5.531v17.97h-9.469v5.61h9.469v25.37c-3.938 1.66-7.5 3.16-10.422 4.11l2.297 5.93c6.797-3 15.641-6.96 24.016-10.83l-1.266-5.22m33.095-22.85c-1.74 11.4-4.74 20.41-9.56 27.44-5.05-7.44-8.285-16.76-10.504-27.44h20.064m13.9 0v-5.68h-22.67l4.97-2.05c-1.58-3.73-5.2-9.34-8.45-13.47l-5.126 2.06c3.076 4.21 6.546 9.82 8.066 13.46h-22.519v5.68h6.078c2.531 12.97 6.39 23.8 12.331 32.35-5.691 6.08-13.284 10.42-23.394 13.51 1.188 1.19 3.156 3.71 3.875 4.97 9.719-3.39 17.219-7.9 23.059-13.98 5.3 6.08 12.18 10.67 20.71 13.67.86-1.58 2.68-3.87 3.93-5.06-8.61-2.69-15.46-7.19-20.68-13.19 6-8.16 9.72-18.66 12-32.27h7.82M1111.45 1066.39v-31.28h29.39v-5.84h-29.39v-24.21h-6.16v61.33h-29.47v5.86h70.39v-5.86h-34.76M1255.95 1077.53l4.73-2.44c-9.07-9.4-14.68-21.09-14.68-35.15 0-14.06 5.61-25.75 14.68-35.16l-4.73-2.45c-9.48 9.64-15.72 22.2-15.72 37.61 0 15.4 6.24 27.97 15.72 37.59m79.86-19.34c-4.34-4.19-10.89-9.49-17.92-14.94 4.65-6 8.22-13.11 10.89-21.56h9.95v-5.53h-25.67l4.11-1.5c-1.02-3.02-3.7-7.77-6-11.25l-5.53 1.75c2.14 3.4 4.42 8 5.45 11h-23.3v5.53h34.83c-2.2 7.03-5.29 13.03-9.23 18.17-6.49-4.91-13.21-9.8-19.21-13.75l-4.03 3.39c6.18 4.28 13.03 9.41 19.6 14.55-5.85 5.92-13.19 10.34-22.36 13.58 1.11 1.18 2.84 3.87 3.48 5.06 9.47-3.72 17.22-8.69 23.38-15.17 6.79 5.61 12.95 10.82 17.06 14.93l4.5-4.26m-50.39-38.88c-2.3-3.47-7.34-8.62-11.53-12.03l-4.58 3.1c4.27 3.71 9.08 8.93 11.2 12.5l4.91-3.57m-1.11 14.07h-15.8v5.53h10.11v22.9c-3.39 1.27-7.42 4.27-11.22 7.91l4.19 5.61c3.72-4.42 7.5-8.53 10.19-8.53 1.75 0 4.26 2.2 7.51 3.95 5.36 2.84 12.16 3.63 21.33 3.63 7.97 0 21.41-.39 27.56-.79.16-1.82 1.11-4.82 1.9-6.56-7.97.96-20.3 1.5-29.22 1.5-8.53 0-15.41-.47-20.39-3.15-2.77-1.5-4.5-2.93-6.16-3.64v-28.36m67.39-31.05l-4.73 2.45c9.07 9.41 14.68 21.1 14.68 35.16 0 14.06-5.61 25.75-14.68 35.15l4.73 2.44c9.48-9.62 15.72-22.19 15.72-37.59 0-15.41-6.24-27.97-15.72-37.61M1469.22 1017.66h-5.06v-5.46h5.06v5.46m9 4.18v9.88h-5.14v-9.88h5.14m-14.06 0h5.06v9.88h-5.06v-9.88m-8.85 0h4.97v9.88h-4.97v-9.88m4.97-4.18h-9.07v18.17h31.35v-18.17h-9.48v-5.46h10.44v-4.65h-33.81v4.65h10.57v5.46m19.68 26.78v-4.66h-26.22v4.66h26.22m-24.25 12.25c-1.5 4.9-4.11 9.81-7.04 13.22 1.04.62 3 1.81 3.88 2.61 2.92-3.64 5.84-9.27 7.58-14.64l-4.42-1.19m27.5-2.38v-4.81h-33.04v4.81h14.38v16.27c0 .8-.24.95-1.02 1.03-.79 0-3.15 0-6-.08.63 1.27 1.33 3 1.58 4.35 3.94 0 6.47 0 8.13-.79 1.67-.79 2.14-1.98 2.14-4.42v-16.36h13.83m-11.07 4.03c2.13 3.55 4.27 8.46 5.05 11.61l4.11-2.04c-.94-3.1-3.16-7.83-5.38-11.38l-3.78 1.81m32.55-40.12c-.88 5.92-2.14 11.84-3.72 17.69-1.73-4.66-3.62-9.16-5.45-13.35l-3.63 2.13c2.36 5.61 4.89 11.94 7.11 18.33-2.76 8.92-6.17 17.06-10.03 22.75 1.42.95 2.92 2.53 3.86 3.79 3.17-5.29 6.09-12.17 8.53-19.67 2.14 6.47 3.88 12.49 4.91 17.06l4.11-2.68c-1.35-5.69-3.8-13.52-6.8-21.57 2.13-7.5 3.88-15.48 5.22-23.39l-4.11-1.09m-18.25-9.56v27.01c0 11.38-.64 26.46-6.88 37.13.96.79 2.85 2.76 3.65 3.95 6.95-11.53 7.96-29 7.96-41.08v-22.28h18.72c-.08 38.24.33 62.17 6.8 62.17 1.81.08 3.8-2.14 5.14-10.75-.8-.62-2.45-2.12-3.33-3.47-.31 4.35-.94 7.43-1.58 7.35-2.04 0-2.92-23.63-2.28-60.03h-28.2M1656.05 1051.7h-33.01v-4.65h33.01v4.65m-33.01 16.91v-4.73h33.01v4.73h-33.01m33.01-8.45h-33.01v-4.66h33.01v4.66m13.28-22.21v-4.81h-40.37c.95-1.81 1.83-3.55 2.68-5.45h30.74v-4.58h-28.75c.7-1.73 1.42-3.56 2.12-5.37h30.18v-4.82h-15.49c1.91-2.22 3.8-4.92 5.53-7.37l-6.08-1.91c-1.34 2.78-3.79 6.5-5.76 9.28h-20.14l2.84-1.18c-1.26-2.3-3.64-5.71-5.84-8.25l-5.53 1.98c1.81 2.22 3.78 5.16 5.04 7.45h-15.48v4.82h24.5c-.64 1.81-1.34 3.64-2.06 5.37h-18.96v4.58h16.83c-.87 1.9-1.83 3.64-2.84 5.45h-21.17v4.81h18.25c-5.61 8.46-12.72 15.64-21.02 20.79 1.34 1.03 3.55 3.31 4.5 4.34 5.14-3.55 9.95-7.81 14.22-12.8v25.77h5.77v-2.94h33.01v2.7h6.02v-33.26h-38.88c1.11-1.42 2.06-3 3-4.6h43.14M1760.16 1064.42v-18.4h44.08v18.4h-44.08m44.08-42.11v17.94h-44.08v-17.94h44.08m-24.17-5.84c1.83-3.48 3.72-7.67 5.22-11.56l-7.27-1.35c-.95 3.72-2.61 8.88-4.34 12.91h-19.28v59.59h5.76v-5.79h44.08v5.4h6.09v-59.2h-30.26M2104.81 1071.3l26.77-6.8-.55-4.89c-10.11 2.2-20.53 4.58-27.33 5.92l1.11 5.77m9.39-23.63c6.16-6.87 12.17-15.33 17.38-23.86l-4.82-3.01c-1.5 2.78-3.08 5.54-4.81 8.15l-10.75 1.11c4.81-6.73 9.64-15.42 13.19-23.81l-5.36-2.45c-3.41 9.42-9.33 19.78-11.14 22.39-1.75 2.69-3.17 4.58-4.67 4.89.79 1.44 1.67 4.28 1.98 5.55 1.11-.57 3-1.11 13.34-2.46-3.7 5.21-7.03 9.39-8.61 10.99-2.45 2.84-4.26 4.65-6 5.04.63 1.43 1.5 4.11 1.82 5.22 1.65-.95 4.42-1.73 25.9-6.09-.07-1.17-.15-3.39 0-4.89l-17.45 3.23m26.16-13.34v-19.06c4.34-.55 8.76-1.19 13.18-1.97.08 7.42.32 14.47.71 21.03h-13.89m33.25 5.45v-5.45h-13.75c-.39-6.72-.63-14.08-.55-21.99 4.81-.95 9.41-2.06 13.19-3.17l-4.19-4.73c-7.97 2.53-21.72 4.98-33.48 6.56v55c0 3.16-1.68 4.75-2.85 5.53.86.96 2.13 3.31 2.52 4.67 1.5-1.18 3.79-2.21 20-7.75-.25-1.18-.57-3.56-.64-5.06l-13.5 4.27v-27.88h14.29c1.74 20.85 5.61 35.47 13.58 35.47 4.99 0 6.8-3.41 7.6-15.25-1.52-.47-3.49-1.73-4.75-2.92-.24 8.61-.94 12.48-2.29 12.48-4.03 0-7.18-11.7-8.53-29.78h13.35M223.503 1373.09c.079-1.5.079-2.85.079-4.19v-11.53h41.078v15.72h-41.157m22.188-21.25l3.641-1.11c-.954-3.1-3-7.85-4.813-11.49l-5.687 1.5c1.578 3.49 3.312 8 4.265 11.1h-25.515v17.06c0 11.86-1.032 28.22-10.594 39.84 1.422.64 4.031 2.53 4.984 3.57 7.735-9.33 10.422-22.38 11.297-33.69h41.391v5.14h5.922v-31.92h-24.891M361.822 1373.09c.078-1.5.078-2.85.078-4.19v-11.53h41.078v15.72h-41.156m22.187-21.25l3.641-1.11c-.953-3.1-3-7.85-4.813-11.49l-5.687 1.5c1.578 3.49 3.312 8 4.265 11.1H355.9v17.06c0 11.86-1.032 28.22-10.594 39.84 1.422.64 4.031 2.53 4.984 3.57 7.735-9.33 10.422-22.38 11.297-33.69h41.391v5.14h5.922v-31.92h-24.891M502.015 1363.52v-9.46h9.234c-2.047 3.31-4.422 6.46-6.875 9.46h-2.359m10.187 25.36h-17.703v-7.65h17.703v7.65m-17.703 13.04v-8.3h17.703v8.3h-17.703m22.828-59.43c-1.656 3.74-3.39 7.3-5.531 10.69v-4.34h-9.781v-8.49h-5.532v8.49H484.39v5.22h12.093v9.46h-15.64v5.22h18.719c-5.922 5.93-12.797 10.83-20.469 14.61 1.109 1.19 3.015 3.64 3.719 4.83 2.14-1.19 4.265-2.45 6.234-3.8v27.11h5.453v-4.67h17.703v3.56h5.61v-33.98h-18.407c2.688-2.36 5.125-4.97 7.5-7.66h14.453v-5.22h-10.187c4.422-5.84 8.375-12.31 11.453-19.51l-5.297-1.52m31.438 1.44l-.938.25h-23.14v67.72h5.765v-62.11h14.688c-2.532 6.31-6.235 14.69-9.641 21.41 8.297 6.86 10.75 12.79 10.75 17.76.078 2.85-.562 5.22-2.297 6.16-1.031.56-2.375.87-3.719.95-1.734.16-4.093.08-6.703-.15 1.016 1.65 1.657 4.1 1.735 5.76 2.453.16 5.218.16 7.343-.08 1.985-.23 3.875-.79 5.297-1.81 2.922-1.83 4.11-5.45 4.032-10.27 0-5.6-2.141-11.78-10.438-19.12 3.797-7.27 8.141-16.27 11.453-23.7l-4.187-2.77M877.61 1361.56H861.5v-12.8h16.11v12.8m5.76-17.86h-27.4v22.98h27.4v-22.98m-41.07 17.78h-14.77v-12.88h14.77v12.88m5.68-17.94h-25.82v23.06h25.82v-23.06m40.46 41.39v-5.61h-10.99l3.33-3.47c-2.84-2.61-8.61-6.23-13.28-8.53l-3.78 3.63c4.34 2.37 9.47 5.78 12.39 8.37h-21.88c.71-3.7 1.11-7.65 1.5-11.76h-6.23c-.33 4.11-.8 8.06-1.52 11.76h-31.106v5.61h29.536c-3.47 10.2-11.22 17.8-30.099 21.84 1.266 1.35 2.766 3.71 3.407 5.3 20.762-4.83 29.142-14 33.012-26.34 5.69 14.08 16.03 22.31 33.1 25.78.79-1.66 2.53-4.34 3.79-5.61-15.79-2.61-25.98-9.42-31.36-20.97h30.18M1235.46 1387.54h-33.01v-4.66h33.01v4.66m-33.01 16.91v-4.74h33.01v4.74h-33.01m33.01-8.46h-33.01v-4.65h33.01v4.65m13.28-22.2v-4.81h-40.37c.95-1.81 1.83-3.55 2.68-5.46h30.74v-4.57h-28.75c.7-1.74 1.42-3.57 2.12-5.38h30.18v-4.81h-15.49c1.91-2.22 3.8-4.92 5.53-7.38l-6.08-1.9c-1.34 2.78-3.79 6.5-5.76 9.28h-20.14l2.84-1.19c-1.26-2.3-3.64-5.7-5.84-8.25l-5.53 1.99c1.81 2.21 3.78 5.15 5.04 7.45h-15.48v4.81h24.5c-.64 1.81-1.34 3.64-2.06 5.38h-18.96v4.57h16.83c-.87 1.91-1.83 3.65-2.84 5.46h-21.17v4.81h18.25c-5.61 8.45-12.72 15.64-21.02 20.78 1.34 1.03 3.55 3.31 4.5 4.35 5.14-3.55 9.95-7.82 14.22-12.8v25.76h5.77v-2.93h33.01v2.7h6.02v-33.27h-38.88c1.11-1.42 2.06-3 3-4.59h43.14M1341.01 1413.37l4.73-2.44c-9.08-9.41-14.69-21.09-14.69-35.16 0-14.06 5.61-25.75 14.69-35.15l-4.73-2.45c-9.49 9.64-15.72 22.2-15.72 37.6 0 15.41 6.23 27.97 15.72 37.6m47.56-50.31h5.61v-8.61h13.03v8.61h5.61v-8.61h12.16v-5.53h-12.16v-9.19h-5.61v9.19h-13.03v-9.19h-5.61v9.19h-10.75v5.53h10.75v8.61m-18.25-9.88v30.81h-9.56v-30.81h9.56m5.61 36.25v-41.7h-20.7v48.75h5.53v-7.05h15.17m36.81-25.11c-2.53 10.66-6.56 19.11-12.33 25.91-5.53-7.11-9.4-15.72-11.92-25.67l-5.06 1.18c2.84 11.3 7.11 20.85 13.11 28.52-6.08 5.55-13.74 9.58-23.3 12.58 1.19 1.18 2.84 3.81 3.47 4.98 9.41-3.31 17.22-7.67 23.47-13.36 5.76 6.02 13.03 10.52 21.95 13.44.8-1.5 2.45-3.7 3.8-4.89-8.85-2.53-15.95-6.89-21.8-12.58 6.55-7.51 11.2-16.92 14.3-28.92l-5.69-1.19m24.02-26.15l-4.74 2.45c9.08 9.4 14.69 21.09 14.69 35.15 0 14.07-5.61 25.75-14.69 35.16l4.74 2.44c9.48-9.63 15.72-22.19 15.72-37.6 0-15.4-6.24-27.96-15.72-37.6M1563.12 1373.17l-10.98 3.07v-15.07h10.9v-5.61h-10.9v-15.75h-5.77v15.75h-11.77v5.61h11.77v16.81c-4.66 1.19-9 2.37-12.48 3.25l1.75 5.92c3.23-.95 6.86-2.06 10.73-3.16v19.99c0 1.19-.47 1.58-1.58 1.58-.95 0-4.34 0-8.14-.08.8 1.58 1.67 3.95 1.91 5.53 5.45 0 8.69-.08 10.73-1.11 2.06-.95 2.85-2.45 2.85-5.84v-21.89c3.87-1.1 7.82-2.36 11.68-3.55l-.7-5.45m42.97-26.79h-42.66v5.77h22.52v51.03c0 1.5-.63 1.99-2.13 2.06-1.67.08-7.43.08-13.2-.17.95 1.67 2.06 4.6 2.45 6.33 7.43 0 12.33-.08 15.18-1.19 2.84-.95 3.85-2.92 3.85-6.95v-51.11h13.99v-5.77M2198.07 1339.99c-.23 12 .25 50.39-32.53 66.99 1.82 1.26 3.71 3 4.74 4.58 19.26-10.27 27.64-27.97 31.28-43.77 3.8 14.7 12.25 34.2 31.98 43.45.88-1.65 2.61-3.64 4.27-4.98-27.88-12.39-32.61-45.42-33.8-54.81.39-4.68.47-8.61.55-11.46h-6.49M1858.6 1399.95v-45.35h28.36v-6h-62.4v6h27.64v45.35h-31.75v5.84h70.47v-5.84h-32.32" class="prefix__Lyrics" />
   <path d="M334.801 26.636h-3.297v44.968c-1.141-.671-2.516-1.093-4.094-1.265-.437-.047-.89-.063-1.344-.063-2.718 0-5.656.782-8.39 2.266-3.188 1.719-5.75 4.187-7.172 6.922-1.453 2.765-1.594 5.469-.422 7.64 1.375 2.579 4.391 3.907 7.938 3.907 2.64 0 5.593-.735 8.406-2.25 5.14-2.782 8.359-7.375 8.375-11.375v-50.75M356.379 78.964h30.234v-6.906h-30.234v6.906m0-12.36h30.234v-6.906h-30.234v6.906m74.109-6.781c1.75-.656 2.594-1.078 3.422-1.687 2.344-1.61 3.672-4.078 3.672-6.891 0-5.531-5.234-9.25-13.031-9.25-9.297 0-15.297 4.984-15.297 12.781 0 4.75 2.219 8.219 6.969 10.75-1.86.594-2.641.828-3.672 1.375-3 1.563-4.61 4.313-4.61 7.797 0 6.485 5.813 10.625 14.938 10.625 9.656 0 16.203-5.531 16.203-13.75 0-5.64-2.766-9.359-8.594-11.75m-3.359-1.265c-2.516-.594-4.375-1.141-5.516-1.563-2.75-1.016-4.562-3.469-4.562-6.109 0-3.313 2.765-5.766 6.484-5.766 4.016 0 6.547 2.641 6.547 6.844 0 2.703-1.031 4.984-2.953 6.594m-7.672 8.578c2.453.672 5.453 1.562 6.953 2.047 3.781 1.312 5.219 2.937 5.219 6 0 4.078-3.359 7.015-8.094 7.015-4.859 0-7.797-2.875-7.797-7.672 0-3.187 1.016-5.218 3.719-7.39m38.078-25.141c-9 0-15.594 9.188-15.594 21.672 0 12.469 6.594 21.656 15.594 21.656 8.813 0 15.547-9.187 15.547-21.359 0-7.078-1.625-12.297-5.172-16.75-2.812-3.406-6.359-5.219-10.375-5.219m-.062 3.125c1.797 0 3.25 1.078 3.906 3 .781 1.984 1.25 8.281 1.25 15.719 0 6.187-.469 12.656-1.016 14.703-.656 2.391-2.093 3.656-4.14 3.656-1.86 0-3.235-1.015-3.953-3-.782-1.984-1.266-8.344-1.266-15.531 0-6.313.484-12.844 1.016-14.891.671-2.39 2.109-3.656 4.203-3.656" class="prefix__Tempo" />
   <path d="M2433.04 216.26a4.955 4.955 0 004.96 4.96 4.955 4.955 0 004.961-4.96 4.955 4.955 0 00-4.96-4.96 4.955 4.955 0 00-4.961 4.96M2410.06 596.87a4.955 4.955 0 004.96 4.96 4.955 4.955 0 004.961-4.96 4.955 4.955 0 00-4.96-4.96 4.955 4.955 0 00-4.961 4.96M563.932 903.08a4.955 4.955 0 004.96 4.96 4.955 4.955 0 004.961-4.96 4.955 4.955 0 00-4.96-4.96 4.955 4.955 0 00-4.961 4.96M1241.79 1234.09a4.955 4.955 0 004.96 4.96 4.955 4.955 0 004.961-4.96 4.955 4.955 0 00-4.96-4.96 4.955 4.955 0 00-4.961 4.96M2393.44 1258.89a4.955 4.955 0 004.96 4.96 4.955 4.955 0 004.961-4.96 4.955 4.955 0 00-4.96-4.96 4.955 4.955 0 00-4.961 4.96" class="prefix__NoteDot" />
</svg>