<svg xmlns="http://www.w3.org/2000/svg" viewBox="0 0 2600 400" height="80" width="520">
   <path class="prefix__StaffLines" fill="none" stroke="#000" stroke-width="2.73" stroke-linejoin="bevel" d="M23.838 112.092H2575.02M23.838 136.892H2575.02M23.838 161.692H2575.02M23.838 186.502H2575.02M23.838 211.302H2575.02" />
   <path class="prefix__MeasureNumber" d="M41.198 34.172h-1.156c-2.204 1.64-6.438 3.03-9.33 3.03l-.467 1.76h2.75c2.437 0 2.718.08 2.718.8 0 .36 0 .36-.39 1.8l-4.281 16c-.532 2-.563 2.12-.922 2.48-.407.39-1.25.52-3.36.56h-1.718l-.204 1.88h14.797l.235-1.88h-2.157c-2.593 0-3.156-.2-3.156-1.07 0-.29.156-1.21.36-1.97l6.28-23.39m17.235 13.75c1.89-.6 2.64-.93 3.61-1.57 1.875-1.23 3.03-3.43 3.03-5.67 0-3.79-3.03-6.36-7.515-6.36-4.36 0-8.047 2.72-8.047 6 0 1.64 1 2.77 2.532 2.77 1.312 0 2.28-.97 2.28-2.28 0-.69-.202-1.17-.843-1.8-.406-.37-.562-.64-.562-.92 0-.97 2-1.97 3.875-1.97 2.687 0 4.28 1.48 4.28 3.97 0 3.55-2.515 6.9-5.202 6.9-.11 0-.47-.03-.907-.07-1.171-.08-1.171-.08-1.406-.08-.875 0-1.36.4-1.36 1.12 0 .64.438 1.03 1.157 1.03.203 0 .484-.03.797-.07a8.865 8.865 0 011.53-.16c1.876 0 3.157 1.69 3.157 4.16 0 1.92-.437 3.76-1.328 5.28-1.187 2.15-3.031 3.2-5.64 3.2-2.235 0-4.157-1.12-4.157-2.41 0-.43.172-.59.797-.87 1.172-.52 1.64-1.23 1.64-2.31 0-1.41-1.108-2.49-2.546-2.49-1.72 0-2.844 1.36-2.844 3.44 0 3.88 2.953 6.31 7.75 6.31 6.047 0 10.64-4.03 10.64-9.39 0-1.44-.437-2.69-1.28-3.69-.875-1.03-1.672-1.51-3.438-2.07" />
   <path class="prefix__BarLine" fill="none" stroke="#000" stroke-width="4.46" stroke-linejoin="bevel" d="M675.156 110.722v101.94M1151.08 110.722v101.94M1944.67 110.722v101.94M2369.52 110.722v101.94M2550.84 110.722v101.94" />
   <path class="prefix__BarLine" fill="none" stroke="#000" stroke-width="13.64" stroke-linejoin="bevel" d="M2568.2 110.722v101.94" />
   <path class="prefix__LedgerLine" fill="none" stroke="#000" stroke-width="3.97" stroke-linejoin="bevel" d="M1570.44 236.102h49.59M1661.27 260.902h49.6M1661.27 236.102h49.6M1752.1 236.102h49.6M1842.93 260.902h49.6M1842.93 236.102h49.6M2222.86 236.102h49.6M2277.42 260.902h49.6M2277.42 236.102h49.6M2404 260.902h49.6M2404 236.102h49.6" />
   <path class="prefix__Stem" fill="none" stroke="#000" stroke-width="2.73" stroke-linejoin="bevel" d="M244.982 170.922v-83.64M325.643 183.322v-93.74M404.305 208.122v-116.3M462.53 183.322v-89.84M520.757 170.922v-83.64M634.355 183.322v-89.84M759.987 170.922v-77.44M839.15 183.322v-89.84M920.81 208.122V93.482M982.45 170.922v-77.44M1044.1 183.322v-80.54M1238.41 208.122V93.482M1349.17 183.322v-89.84M1428.33 208.122V93.482M1519.16 220.522V93.482M1609.99 232.932v-71.24M1700.82 257.732v-96.04M1791.65 232.932v-71.24M1882.48 257.732v-96.04M2029.01 183.322v-71.23M2110.19 208.122v-80.77M2160.93 220.522v-83.63M2211.67 220.522v-77.43M2262.42 232.932v-77.89M2316.98 257.732v-89.84M2443.55 270.132v-108.44" />
   <path class="prefix__Note" d="M245.362 166.062c-1.783-3.286-5.55-5.069-10.123-5.069-3.364 0-7.038.992-10.62 2.883-6.54 3.473-10.51 9.317-10.51 14.386 0 1.38.295 2.775.993 4.062 1.782 3.27 5.55 4.96 10.122 4.96 3.364 0 7.038-.883 10.62-2.775 6.541-3.472 10.51-9.332 10.51-14.385 0-1.396-.295-2.775-.992-4.062M326.023 178.472c-1.783-3.286-5.55-5.069-10.123-5.069-3.364 0-7.038.992-10.62 2.883-6.54 3.473-10.51 9.317-10.51 14.386 0 1.38.295 2.775.993 4.062 1.782 3.27 5.55 4.96 10.122 4.96 3.364 0 7.038-.883 10.62-2.775 6.541-3.472 10.51-9.332 10.51-14.385 0-1.396-.295-2.775-.992-4.062M404.684 203.272c-1.783-3.286-5.55-5.069-10.123-5.069-3.364 0-7.038.992-10.619 2.883-6.542 3.473-10.51 9.317-10.51 14.386 0 1.38.294 2.775.992 4.062 1.782 3.27 5.55 4.96 10.122 4.96 3.364 0 7.038-.883 10.62-2.775 6.541-3.472 10.51-9.332 10.51-14.385 0-1.396-.295-2.775-.992-4.062M462.91 178.472c-1.782-3.286-5.55-5.069-10.122-5.069-3.364 0-7.038.992-10.62 2.883-6.54 3.473-10.51 9.317-10.51 14.386 0 1.38.295 2.775.993 4.062 1.782 3.27 5.55 4.96 10.122 4.96 3.364 0 7.038-.883 10.62-2.775 6.541-3.472 10.51-9.332 10.51-14.385 0-1.396-.295-2.775-.992-4.062M521.137 166.062c-1.783-3.286-5.55-5.069-10.123-5.069-3.364 0-7.038.992-10.62 2.883-6.54 3.473-10.51 9.317-10.51 14.386 0 1.38.295 2.775.993 4.062 1.782 3.27 5.55 4.96 10.122 4.96 3.364 0 7.038-.883 10.62-2.775 6.541-3.472 10.51-9.332 10.51-14.385 0-1.396-.295-2.775-.992-4.062M634.735 178.472c-1.783-3.286-5.55-5.069-10.123-5.069-3.364 0-7.038.992-10.619 2.883-6.542 3.473-10.51 9.317-10.51 14.386 0 1.38.294 2.775.992 4.062 1.782 3.27 5.55 4.96 10.122 4.96 3.364 0 7.038-.883 10.62-2.775 6.541-3.472 10.51-9.332 10.51-14.385 0-1.396-.295-2.775-.992-4.062M760.367 166.062c-1.783-3.286-5.55-5.069-10.123-5.069-3.364 0-7.038.992-10.62 2.883-6.54 3.473-10.51 9.317-10.51 14.386 0 1.38.295 2.775.993 4.062 1.782 3.27 5.55 4.96 10.122 4.96 3.364 0 7.038-.883 10.62-2.775 6.541-3.472 10.51-9.332 10.51-14.385 0-1.396-.295-2.775-.992-4.062M839.528 178.472c-1.783-3.286-5.55-5.069-10.123-5.069-3.364 0-7.038.992-10.619 2.883-6.542 3.473-10.51 9.317-10.51 14.386 0 1.38.294 2.775.992 4.062 1.782 3.27 5.55 4.96 10.122 4.96 3.364 0 7.038-.883 10.62-2.775 6.541-3.472 10.51-9.332 10.51-14.385 0-1.396-.295-2.775-.992-4.062M921.192 203.272c-1.783-3.286-5.55-5.069-10.123-5.069-3.364 0-7.038.992-10.619 2.883-6.542 3.473-10.51 9.317-10.51 14.386 0 1.38.294 2.775.992 4.062 1.782 3.27 5.55 4.96 10.122 4.96 3.364 0 7.038-.883 10.62-2.775 6.541-3.472 10.51-9.332 10.51-14.385 0-1.396-.295-2.775-.992-4.062M982.832 166.062c-1.783-3.286-5.55-5.069-10.123-5.069-3.364 0-7.038.992-10.619 2.883-6.542 3.473-10.51 9.317-10.51 14.386 0 1.38.294 2.775.992 4.062 1.782 3.27 5.55 4.96 10.122 4.96 3.364 0 7.038-.883 10.62-2.775 6.541-3.472 10.51-9.332 10.51-14.385 0-1.396-.295-2.775-.992-4.062M1044.482 178.472c-1.783-3.286-5.55-5.069-10.123-5.069-3.364 0-7.038.992-10.619 2.883-6.542 3.473-10.51 9.317-10.51 14.386 0 1.38.294 2.775.992 4.062 1.782 3.27 5.55 4.96 10.123 4.96 3.364 0 7.037-.883 10.618-2.775 6.542-3.472 10.51-9.332 10.51-14.385 0-1.396-.294-2.775-.991-4.062M1238.792 203.272c-1.783-3.286-5.55-5.069-10.123-5.069-3.364 0-7.038.992-10.619 2.883-6.542 3.473-10.51 9.317-10.51 14.386 0 1.38.294 2.775.992 4.062 1.783 3.27 5.55 4.96 10.123 4.96 3.364 0 7.037-.883 10.618-2.775 6.542-3.472 10.51-9.332 10.51-14.385 0-1.396-.294-2.775-.991-4.062M1349.542 178.472c-1.783-3.286-5.55-5.069-10.123-5.069-3.364 0-7.038.992-10.619 2.883-6.542 3.473-10.51 9.317-10.51 14.386 0 1.38.294 2.775.992 4.062 1.783 3.27 5.55 4.96 10.123 4.96 3.364 0 7.037-.883 10.618-2.775 6.542-3.472 10.51-9.332 10.51-14.385 0-1.396-.294-2.775-.991-4.062M1428.702 203.272c-1.783-3.286-5.55-5.069-10.123-5.069-3.364 0-7.038.992-10.619 2.883-6.542 3.473-10.51 9.317-10.51 14.386 0 1.38.294 2.775.992 4.062 1.783 3.27 5.55 4.96 10.123 4.96 3.364 0 7.037-.883 10.618-2.775 6.542-3.472 10.51-9.332 10.51-14.385 0-1.396-.294-2.775-.991-4.062M1519.542 215.672c-1.783-3.286-5.55-5.069-10.123-5.069-3.364 0-7.038.992-10.619 2.883-6.542 3.473-10.51 9.317-10.51 14.386 0 1.38.294 2.775.992 4.062 1.783 3.27 5.55 4.96 10.123 4.96 3.364 0 7.037-.883 10.618-2.775 6.542-3.472 10.51-9.332 10.51-14.385 0-1.396-.294-2.775-.991-4.062M1610.372 228.072c-1.783-3.286-5.55-5.069-10.123-5.069-3.364 0-7.038.992-10.619 2.883-6.542 3.473-10.51 9.317-10.51 14.386 0 1.38.294 2.775.992 4.062 1.782 3.27 5.55 4.96 10.122 4.96 3.365 0 7.038-.883 10.62-2.775 6.541-3.472 10.51-9.332 10.51-14.385 0-1.396-.295-2.775-.992-4.062M1701.202 252.872c-1.783-3.286-5.55-5.069-10.123-5.069-3.364 0-7.038.992-10.619 2.883-6.542 3.473-10.51 9.317-10.51 14.386 0 1.38.294 2.775.992 4.062 1.783 3.27 5.55 4.96 10.123 4.96 3.364 0 7.037-.883 10.618-2.775 6.542-3.472 10.51-9.332 10.51-14.385 0-1.396-.294-2.775-.991-4.062M1792.032 228.072c-1.783-3.286-5.55-5.069-10.123-5.069-3.364 0-7.038.992-10.619 2.883-6.542 3.473-10.51 9.317-10.51 14.386 0 1.38.294 2.775.992 4.062 1.783 3.27 5.55 4.96 10.123 4.96 3.364 0 7.037-.883 10.618-2.775 6.542-3.472 10.51-9.332 10.51-14.385 0-1.396-.294-2.775-.991-4.062M1882.862 252.872c-1.783-3.286-5.55-5.069-10.123-5.069-3.364 0-7.038.992-10.619 2.883-6.542 3.473-10.51 9.317-10.51 14.386 0 1.38.294 2.775.992 4.062 1.782 3.27 5.55 4.96 10.122 4.96 3.365 0 7.038-.883 10.62-2.775 6.541-3.472 10.51-9.332 10.51-14.385 0-1.396-.295-2.775-.992-4.062M2029.382 178.472c-1.783-3.286-5.55-5.069-10.123-5.069-3.364 0-7.038.992-10.619 2.883-6.542 3.473-10.51 9.317-10.51 14.386 0 1.38.294 2.775.992 4.062 1.782 3.27 5.55 4.96 10.122 4.96 3.365 0 7.038-.883 10.62-2.775 6.541-3.472 10.51-9.332 10.51-14.385 0-1.396-.295-2.775-.992-4.062M2110.572 203.272c-1.783-3.286-5.55-5.069-10.123-5.069-3.364 0-7.038.992-10.619 2.883-6.542 3.473-10.51 9.317-10.51 14.386 0 1.38.294 2.775.992 4.062 1.782 3.27 5.55 4.96 10.122 4.96 3.364 0 7.038-.883 10.62-2.775 6.541-3.472 10.51-9.332 10.51-14.385 0-1.396-.295-2.775-.992-4.062M2161.312 215.672c-1.783-3.286-5.55-5.069-10.123-5.069-3.364 0-7.038.992-10.619 2.883-6.542 3.473-10.51 9.317-10.51 14.386 0 1.38.294 2.775.992 4.062 1.782 3.27 5.55 4.96 10.122 4.96 3.364 0 7.038-.883 10.62-2.775 6.541-3.472 10.51-9.332 10.51-14.385 0-1.396-.295-2.775-.992-4.062M2212.052 215.672c-1.783-3.286-5.55-5.069-10.123-5.069-3.364 0-7.038.992-10.619 2.883-6.542 3.473-10.51 9.317-10.51 14.386 0 1.38.294 2.775.992 4.062 1.782 3.27 5.55 4.96 10.122 4.96 3.364 0 7.038-.883 10.62-2.775 6.541-3.472 10.51-9.332 10.51-14.385 0-1.396-.295-2.775-.992-4.062M2262.792 228.072c-1.783-3.286-5.55-5.069-10.123-5.069-3.364 0-7.038.992-10.619 2.883-6.542 3.473-10.51 9.317-10.51 14.386 0 1.38.294 2.775.992 4.062 1.782 3.27 5.55 4.96 10.122 4.96 3.364 0 7.038-.883 10.62-2.775 6.541-3.472 10.51-9.332 10.51-14.385 0-1.396-.295-2.775-.992-4.062M2317.352 252.872c-1.783-3.286-5.55-5.069-10.123-5.069-3.364 0-7.038.992-10.619 2.883-6.542 3.473-10.51 9.317-10.51 14.386 0 1.38.294 2.775.992 4.062 1.782 3.27 5.55 4.96 10.122 4.96 3.364 0 7.038-.883 10.62-2.775 6.541-3.472 10.51-9.332 10.51-14.385 0-1.396-.295-2.775-.992-4.062M2443.932 265.236c-1.783-3.271-5.55-5.054-10.123-5.054-3.364 0-7.038.992-10.619 2.868-6.542 3.472-10.51 9.332-10.51 14.386 0 1.395.294 2.79.992 4.077 1.782 3.286 5.55 4.976 10.122 4.976 3.364 0 7.038-.9 10.62-2.775 6.541-3.488 10.51-9.348 10.51-14.417 0-1.38-.295-2.775-.992-4.061m-4.264 6.743c-1.69 1.69-5.069 3.767-8.634 5.767-3.566 1.984-7.147 3.472-9.518 3.968-.496.109-.992.202-1.489.202-1.596 0-2.79-.59-3.472-1.891a3.213 3.213 0 01-.496-1.69c0-1.085.682-2.388 1.783-3.473 1.69-1.69 4.96-3.767 8.526-5.75 3.58-1.985 7.146-3.473 9.534-3.97.496-.108.992-.2 1.488-.2 1.58 0 2.868.588 3.565 1.875.295.496.403 1.1.403 1.69 0 1.1-.604 2.278-1.69 3.472" />
   <path class="prefix__Clef" d="M106.541 180.627c-1.225-5.38-3.844-9.177-4.62-10.2-3.162-4.248-7.146-7.07-11.797-8.418-3.084-.868-6.06-.992-8.464-.806a2314.672 2314.672 0 01-2.93-17.207c5.41-6.124 9.007-11.875 11.27-16.138 3.442-6.526 4.574-11.068 4.636-11.27 1.705-5.177 2.061-12.82.96-20.958-.991-7.488-3.069-14.153-5.41-17.378-1.007-1.41-2.061-2.14-3.084-2.14-1.21 0-3.705 1.226-6.573 3.985-2.279 2.17-5.519 6.03-8.061 11.998-2.977 7.007-3.194 16.417-2.837 23.083.372 7.223 1.473 12.866 1.488 12.913.016.093.28 1.58.713 4.123-.217.233-.465.45-.713.698-1.023.992-2.201 2.108-3.58 3.488-.854.852-1.8 1.751-2.791 2.713-8.371 8.076-21.067 20.307-21.067 39.313 0 4.666.899 9.053 2.666 13.037 1.566 3.565 3.844 6.82 6.759 9.673 7.673 7.503 18.184 10.68 25.175 10.526 2.93-.078 5.55-.31 7.921-.76 1.814 9.534 2.946 16.51 2.977 21.811.046 6.465-1.597 10.418-5.457 13.162-2.418 1.72-5.208 2.666-8.278 2.806-2.573.124-4.821-.342-6.232-.745h-.015s-.28-.093-.295-.279c-.015-.186.341-.232.341-.232h.031c1.907-.434 5.441-1.659 7.782-4.93 1.783-2.511 2.651-7.1.822-11.006-1.1-2.372-3.581-5.302-9.162-5.751-2.48-.202-4.728.31-6.712 1.503-1.798 1.07-3.287 2.698-4.325 4.682-2.434 4.666-1.984 10.355 1.116 14.169 2.945 3.596 7.518 5.89 12.913 6.464.853.093 1.69.124 2.527.124 4.402 0 8.758-1.194 12.308-3.38 3.628-2.557 5.736-6.51 6.403-12.09.558-4.605.17-10.48-1.21-18.495-.356-2.077-.898-5.084-1.55-8.805 5.705-1.907 9.829-5.457 13.565-11.27 3.27-5.689 4.2-11.75 2.79-18.013m-33.95 26.012c-4.603-1.209-9.006-3.69-12.726-7.177-1.303-1.21-3.163-3.364-4.62-6.728-1.349-3.147-2.015-6.557-1.953-10.107.062-4.666 1.364-9.457 3.844-14.2 2.9-5.534 7.426-11.022 13.44-16.308a89.216 89.216 0 004.077-3.814c.76 4.232 1.582 8.883 2.45 13.72-3.814 1.255-8.526 4.387-11.611 9.998-3.52 6.511-3.38 11.999-2.651 15.456.93 4.418 3.441 8.154 6.867 10.231.93.558 5.023 2.666 6.852 2.093a1.16 1.16 0 00.775-.667c.512-1.162-.511-1.798-2.046-2.744a27.278 27.278 0 01-1.984-1.317c-3.302-2.465-4.744-6.883-3.674-11.24a12.438 12.438 0 013.674-6.215c1.643-1.535 3.674-2.62 6.03-3.256 2.03 11.162 4.077 22.23 5.705 30.524.124.682.263 1.348.387 2.015-4.34.93-8.65.837-12.835-.264m11.239-32.942c10.262-.465 14.494 6.914 15.378 11.705.465 2.526.465 6.929-1.07 11.114-1.163 3.147-3.597 7.193-8.697 9.24-.062-.419-.14-.853-.217-1.272-1.534-8.712-3.457-19.625-5.394-30.787m-7.27-70.394c1.766-5.69 4.48-8.914 6.464-10.634 1.736-1.504 3.363-2.217 4.278-2.217.14 0 .264.03.357.062.465.14.992.698 1.457 1.566 2.294 4.247 1.55 10.913.217 15.316-1.612 5.363-4.511 10.928-13.239 20.462-.17-1.1-.325-2.14-.48-3.116-1.24-8.216-.915-15.44.945-21.439" />
   <path class="prefix__KeySig" d="M151.9 153.848c-.589-3.86-2.976-7.534-8.03-7.534-4.96 0-7.844 3.07-8.34 3.674l.403-31.856c0-.791-.589-1.38-1.395-1.38h-1.178c-.806 0-1.395.589-1.395 1.38l.496 59.636c0 .79.589 1.38 1.395 1.38.186 0 .589-.094.79-.187.388-.201 6.837-3.38 12.2-9.425 3.767-4.278 5.256-9.13 5.256-13.208 0-.883-.093-1.674-.202-2.48m-6.836 3.876c0 1.488-.403 6.045-2.884 9.828-1.69 2.573-5.053 5.255-6.945 6.743l.295-19.346c.202-.9 1.69-3.767 5.658-3.767 3.581 0 3.876 3.364 3.876 5.456v1.086" />
   <path class="prefix__Beam" fill-rule="evenodd" d="M243.618 81.002l220.277 6.28v12.41l-220.277-6.28v-12.41M243.618 99.602l220.277 6.28v12.41l-220.277-6.28v-12.41M519.393 80.922l116.326 6.35v12.42l-116.326-6.35v-12.42M635.719 105.882l-32.244-1.76v12.42l32.244 1.76v-12.42M758.623 87.282H983.82v12.4H758.623v-12.4M758.623 105.882H983.82v12.41H758.623v-12.41M1237.05 87.282h283.47v12.4h-283.47v-12.4M1237.05 105.882h283.47v12.41h-283.47v-12.41M1350.53 124.492h-32.24v12.4h32.24v-12.4M1608.63 155.492h275.22v12.4h-275.22v-12.4M1608.63 174.092h275.22v12.41h-275.22v-12.41M2027.64 105.262l134.66 25.32v12.62l-134.66-25.32v-12.62M2108.83 139.132l53.47 10.05v12.62l-53.47-10.05v-12.62M2210.31 136.082l108.03 25.44v12.74l-108.03-25.44v-12.74M2210.31 154.682l53.47 12.59v12.74l-53.47-12.59v-12.74" />
   <path class="prefix__Lyrics" d="M214.43 320.302c-.874 10.99-2.765 20.16-5.608 27.5a106.607 106.607 0 00-7.188-6.07c1.578-6.1 3.39-13.68 4.969-21.43h7.828m2.125-4.96l-.86.15h-8.218c1.03-5.53 1.89-10.98 2.53-15.98l-4.983-.39c-.547 4.98-1.422 10.68-2.453 16.37h-7.344v4.81h6.406c-1.75 8.46-3.797 16.83-5.687 22.69 3.546 2.85 7.343 6.16 10.812 9.49-3.312 6.64-7.578 11.47-12.72 14.47 1.189 1.03 2.454 2.93 3.173 4.2 5.438-3.49 9.78-8.31 13.266-14.88 2.687 2.85 5.047 5.61 6.562 8.07l3.39-4.04c-1.733-2.53-4.5-5.68-7.75-8.85 3.72-8.94 6.017-20.63 6.876-35.65l-3-.46m13.906 10.82h25.047v9.71h-25.047v-9.71m25.047-13.43v8.84h-25.047v-8.84h25.047m5.28 29.93c-2.921 2.79-7.733 6.1-11.764 8.55-2.203-3.25-3.953-6.8-5.375-10.67h16.906v-32.55h-13.828c-.938-2.78-2.672-6.42-4.266-9.36l-4.656 1.36c1.344 2.38 2.609 5.46 3.562 8H225.4v52.96c0 3.54-1.891 5.45-2.922 6.32.797.78 2.062 2.61 2.609 3.71v.25l.078-.08v.08-.08c1.422-1.03 3.875-1.99 18.563-7.2-.235-1.11-.547-3.08-.625-4.52l-12.641 4.12v-23.01h8.297c4.266 13.44 12.563 24.11 24.172 29.25.78-1.34 2.375-3.31 3.469-4.27-5.766-2.29-10.735-5.92-14.688-10.75 4.11-2.37 8.922-5.53 12.563-8.62l-3.485-3.49M300.28 333.662h-17.297v-17.21h17.297v17.21m-17.297 24.33v-19.59h17.297v19.59h-17.297m7.344-59.12c-.641 3.73-2.063 9.11-3.407 12.83h-8.765v57.37h4.828v-6.34h22.109v-51.03h-13.343c1.42-3.4 2.92-7.83 4.187-11.72l-5.61-1.11m53.469 12.67h-23.921c1.328-3.8 2.437-7.75 3.468-11.72l-5.062-1.11c-2.438 10.94-6.703 21.84-12.078 28.88 1.187.7 3.468 2.12 4.422 2.92 2.687-3.8 5.218-8.71 7.42-14.06h20.705c-1.032 32.06-2.297 44.23-4.907 47-.781 1.03-1.734 1.18-3.312 1.18-1.735 0-6.485 0-11.61-.48.954 1.42 1.579 3.56 1.735 5.14 4.422.23 8.922.39 11.609.16 2.61-.24 4.422-.88 6-3 3.172-3.8 4.266-15.88 5.53-52.15v-2.76m-12.39 35.55c-2.53-4.74-8.062-12.32-12.64-17.93l-4.031 2.36c4.422 5.69 9.797 13.52 12.25 18.33l4.422-2.76M362.144 314.152h54.578v11.22h5.297v-16.19h-27.172c-1.265-3.02-3.562-7.38-5.453-10.63l-5.062 1.27c1.5 2.86 3.234 6.42 4.578 9.36h-31.906v16.19h5.14v-11.22m30.016 49.69v-16.6h22.422v-4.89H392.16v-13.11h24.016v-4.9h-53.25v4.9h23.703v13.11h-21.813v4.89h21.813v16.6h-31.282v4.9h68.563v-4.9h-31.75m6.469-12.49c4.422 3.56 9.953 8.45 12.797 11.38l3.796-3.16c-2.921-2.84-8.61-7.5-12.953-10.83l-3.64 2.61M504.894 314.152v16.61c0 11.61-1.813 25.92-32.157 36.03 1.266 1.03 2.844 3.01 3.563 4.2 30.969-10.83 34.047-26.79 34.047-40.15v-16.69h-5.453m4.984 42.22c9.312 3.95 21 10.18 26.922 14.37l3.172-4.11c-6.094-4.26-18.016-10.11-27.094-13.9l-3 3.64m-27.422-53.05v46.17h5.219v-41.26h39.812v41.09h5.453v-46h-50.484M728.483 311.232c-1.891-3.16-6.313-7.91-10.031-11.08l-4.032 2.47c3.719 3.47 7.985 8.29 9.719 11.53l4.344-2.92m-15.25 59.98h5.219v-54.61h-5.22v54.61m54.11-41.34v-4.97h-11.453v-10.6h-5.437v10.6h-25.438v4.97h22.5c-5.437 8.92-15 17.29-26.062 23.06 1.187.87 2.765 2.61 3.562 3.64 10.422-5.69 19.344-13.34 25.438-22.2v23c0 1.17-.407 1.5-1.672 1.58-1.266.07-5.61.07-10.422-.08.703 1.5 1.578 3.62 1.812 5.12 6.25 0 10.188-.08 12.563-.94 2.375-.87 3.156-2.37 3.156-5.6v-27.58h11.453m9.953-26.3h-43.281v4.89h38.078v55.69c0 1.11-.312 1.34-1.5 1.42-.953.08-4.593.08-8.453 0 .703 1.34 1.5 3.56 1.813 4.91 5.14.07 8.53-.08 10.578-.88 2.062-.94 2.765-2.36 2.765-5.45v-60.58M824.47 362.102v-32h29.78v-5.28h-29.78v-24.45h-5.45v61.73h-29.782v5.22h70.392v-5.22h-35.16M888.12 308.852v11.53h-12.16v-11.53h12.16m-12.16 44.41v-12.02h12.16v12.02h-12.16m0-28.28h12.16v11.68h-12.16v-11.68m16.66-20.86h-21.33v60.84h4.67v-6.97h16.66v-53.87m12.09 17.68h25.44v10.44h-25.44v-10.44m25.44-14.53v10.11h-25.44v-10.11h25.44m5.92 32.47c-3.39 2.94-8.69 6.81-13.19 9.5-1.98-3.72-3.56-7.9-4.82-12.34h17.14v-34.28h-35.63v58.79c0 3.25-1.58 4.68-2.76 5.3.79 1.11 1.98 3.17 2.45 4.44 1.42-1.03 3.72-1.83 20.14-6.33-.16-1.11-.31-3.25-.23-4.75l-14.46 3.56v-26.73h8.85c3.79 15.65 11.14 27.76 23.54 33.61.71-1.42 2.36-3.49 3.63-4.58-6.47-2.61-11.61-7.13-15.56-12.89 4.59-2.69 10.2-6.25 14.37-9.66l-3.47-3.64M1010.1 308.772v11.38h-10.35v-11.38h10.35m-10.35 44.41v-12.02h10.35v12.02h-10.35m10.35-16.59h-10.35v-11.77h10.35v11.77m4.73-32.55H995v60.84h4.75v-6.97h15.08v-53.87m13.12 50.16v-6.24h24.8v6.24h-24.8m24.8-16.43v6.32h-24.8v-6.32h24.8m4.89-4.11h-34.59v37.29h4.9v-12.88h24.8v7.34c0 .88-.31 1.19-1.34 1.19-.96.08-4.27.08-7.89 0 .7 1.27 1.42 3 1.58 4.35 4.89.07 8.12 0 10.1-.79 1.9-.79 2.44-2.06 2.44-4.75v-31.75m-15.15-9.09v-5.77h17.45v-3.85h-17.45v-5.15h19.18v-4.1h-19.18v-6.5h-5.07v6.5h-17.84v4.1h17.84v5.15h-15.95v3.85h15.95v5.77h-20.14v4.11h46.3v-4.11h-21.09M1203.51 308.772v11.46h-10.1v-11.46h10.1m-10.1 44.41v-12.02h10.1v12.02h-10.1m0-28.28h10.1v11.69h-10.1v-11.69m14.45-20.86h-18.8v60.84h4.35v-6.97h14.45v-53.87m37.12 44h-8.29v-10.34h8.29v10.34m-21.87 0v-10.34h8.61v10.34h-8.61m0-25.44h8.61v10.03h-8.61v-10.03m21.87 0v10.03h-8.29v-10.03h8.29m12.8 15.1v-5.07h-8.22v-10.03h6.41v-5.06h-19.28v-10.58c5.76-.55 11.14-1.42 15.48-2.45l-2.61-4.36c-8.53 2.06-23.37 3.5-35.62 4.2.54 1.19 1.18 3 1.34 4.19 5.22-.24 10.91-.55 16.44-1.11v10.11h-19.91v5.06h6.7v10.03h-7.81v5.07h7.81v10.34h-6.95v4.97h20.16v11.14h-17.39v4.83h38.95v-4.83h-16.59v-11.14h19.2v-4.97h-6.33v-10.34h8.22M1361.36 305.152l-1.17.31h-56.87v5.14h51.81c-6 5.69-15 12.16-22.75 15.95v37.44c0 1.35-.47 1.83-2.12 1.91-1.83.08-7.83.15-14.63-.08.88 1.5 1.91 3.7 2.22 5.28 8.05 0 13.11-.08 16.11-.94 2.92-.87 3.87-2.37 3.87-6.17v-34.83c9.8-5.29 20.69-13.43 27.64-21.09l-4.11-2.92M1395.2 340.212c.62-4.26 1.09-8.84 1.42-13.73h12.08c0 5.2-.08 9.79-.16 13.73h-13.34m13.65-32.3l-.07 13.82h-11.93c.24-4.43.32-8.93.39-13.82h11.61m5.22-4.82h-35v4.82h12.96c-.08 4.82-.16 9.39-.32 13.82h-11.45v4.75h11.22c-.31 4.89-.72 9.47-1.42 13.73h-10.5v4.75h9.62c-1.97 9-5.28 16.5-10.81 22.28 1.19.78 3.47 2.85 4.27 3.8 6.15-7.05 9.71-15.66 11.68-26.08h14.14c-.31 11.77-.87 16.83-1.73 18.41-.72 1.11-1.42 1.34-2.69 1.34-1.42 0-4.75 0-8.45-.33.94 1.6 1.42 3.88 1.5 5.53 3.47.18 7.03.33 9.31 0 2.3-.31 3.72-1.01 5.06-3.23 2.38-3.63 2.38-17.06 2.61-60.59v-3m31.36.07l-.87.25h-23.46v67.55h4.97v-62.58h15.97c-2.69 6.16-6.56 14.53-10.28 21.25 8.69 7.19 11.38 12.96 11.38 18.02 0 2.76-.55 5.28-2.44 6.23-1.19.55-2.61.88-4.03.88-2.07.15-4.91.15-7.83-.16.87 1.5 1.5 3.55 1.65 4.97 2.61.23 5.77.23 8.22 0 2.07-.23 3.96-.78 5.38-1.73 2.84-1.66 4.11-5.3 4.03-9.8 0-5.53-2.38-11.61-10.91-19.11 4.03-7.28 8.46-16.13 11.85-23.31l-3.63-2.46M1501.22 371.022h5.37v-49.12h-5.37v49.12m3.31-71.87c-7.89 13.11-22.11 24.8-36.89 31.44 1.42 1.18 2.92 3.15 3.87 4.57 12.25-5.92 23.94-15.32 32.47-26.39 10.03 12.25 20.53 19.91 32.78 26.55.8-1.58 2.46-3.55 3.8-4.66-12.72-6.32-23.94-14.06-33.5-26 .72-1.09 1.42-2.2 2.06-3.39l-4.59-2.12M1575.09 308.772v11.46h-10.1v-11.46h10.1m-10.1 44.41v-12.02h10.1v12.02h-10.1m0-28.28h10.1v11.69h-10.1v-11.69m14.45-20.86h-18.8v60.84h4.35v-6.97h14.45v-53.87m37.12 44h-8.29v-10.34h8.29v10.34m-21.87 0v-10.34h8.61v10.34h-8.61m0-25.44h8.61v10.03h-8.61v-10.03m21.87 0v10.03h-8.29v-10.03h8.29m12.8 15.1v-5.07h-8.22v-10.03h6.41v-5.06h-19.28v-10.58c5.76-.55 11.14-1.42 15.48-2.45l-2.61-4.36c-8.53 2.06-23.37 3.5-35.62 4.2.54 1.19 1.18 3 1.34 4.19 5.22-.24 10.91-.55 16.44-1.11v10.11h-19.91v5.06h6.7v10.03h-7.81v5.07h7.81v10.34h-6.95v4.97h20.16v11.14h-17.39v4.83h38.95v-4.83h-16.59v-11.14h19.2v-4.97h-6.33v-10.34h8.22M1721.43 316.602v-5.06h-41.16c1.5-3.64 2.77-7.36 3.95-11.08l-5.37-1.34c-1.11 4.11-2.53 8.31-4.35 12.42h-21.64v5.06h19.43c-5.05 10.19-12.08 19.75-21.25 26.3.87 1.11 2.21 3.33 2.68 4.59 3.57-2.45 6.72-5.29 9.57-8.45v31.76h5.29v-38.09c3.71-4.97 6.88-10.42 9.47-16.11h43.38m-21.25 47.7v-23.06h18.17v-4.89h-18.17v-15.56h-5.22v15.56h-18v4.89h18v23.06h-21.08v4.91h47.55v-4.91h-21.25M1756.01 333.202h4.83v-16.68c3.46 3.16 8.14 7.66 9.79 9.72l2.92-4.19c-1.73-1.57-8.92-7.51-12.25-9.87h12.64v-4.59h-13.1v-8.47h-4.83v8.47h-14.46v4.59h12.72c-3.39 5.84-8.92 11.77-14.06 14.77 1.11.87 2.53 2.45 3.33 3.64 4.34-3 9-8.3 12.47-13.75v16.36m41.79 3.62h-24.48c1.5-1.42 2.92-2.77 4.19-4.19l-5.14-1.97c-5.61 6.63-17.3 13.43-27.64 17.39 1.09.94 2.84 2.69 3.78 3.71 6.4-2.61 13.18-6.24 19.04-10.44h27.1c-3.64 5.7-8.86 10.28-15.1 13.92-4.11-2.76-10.26-6.17-15.25-8.29l-4.03 2.92c4.75 2.14 10.21 5.37 14.22 8.14-9.15 4.36-19.98 7.04-31.19 8.62 1.1 1.19 2.44 3.57 2.85 4.91 23.76-4.03 46.2-13.05 56.23-32.5l-3.47-2.45-1.11.23m13.75-24.64v-4.59h-16.67v-8.47h-4.9v8.47h-13.35v4.59h11.69c-3.63 5.77-9.47 11.61-14.77 14.45 1.04.96 2.61 2.53 3.47 3.72 4.5-2.94 9.33-8.06 12.96-13.51v16.36h4.9v-17.24c4.03 5.94 9.64 11.7 14.69 14.94.8-1.27 2.37-2.92 3.48-3.8-5.61-3-12.09-9-15.96-14.92h14.46M2017.28 339.982v-21.64h23.46v21.64h-23.46m-28.84 0v-21.64h23.39v21.64h-23.39m28.84-26.78v-14.18h-5.45v14.18h-28.59v36.98h5.2v-4.98h23.39v25.78h5.45v-25.78h23.46v4.59h5.37v-36.59h-28.83M2174.09 310.602v34.13h-7.67v-34.13h7.67m4.27-5.14h-16.13v52.16h4.19v-7.77h11.94v-44.39m18.95-3.64l-.7.25h-13.36v68.98h4.34v-64.32h7.44c-1.27 5.92-3.02 12.87-4.98 19.98 4.57 7.42 6.4 12.33 6.4 16.99 0 2.53-.4 5.37-1.42 6.23-.48.48-1.19.64-2.06.64-.96.08-2.38.08-3.8-.08.72 1.19 1.11 3 1.19 4.27 1.5.08 3.15.08 4.34-.16 1.27-.08 2.53-.56 3.41-1.34 1.81-1.42 2.69-5.38 2.69-9.49 0-4.89-2.07-10.26-6.57-17.61 2.38-8.06 4.5-16.04 6.24-22.59l-3.16-1.75m16.6 20.31v22.99h-6.72v-22.99h6.72m3.95 27.8v-32.63h-14.47v38.16h3.8v-5.53h10.67m13.58-47.08h-29.38v5.06h20.92v55.85c0 1.19-.39 1.58-1.57 1.58-1.19.07-5.22.15-9.65 0 .65 1.42 1.5 3.71 1.68 5.14 5.51-.08 9.07-.16 11.2-1.03 2.06-.88 2.69-2.54 2.69-5.69v-55.85h4.11v-5.06" />
   <path class="prefix__NoteDot" d="M534.523 174.092a4.955 4.955 0 004.96 4.96 4.955 4.955 0 004.96-4.96 4.955 4.955 0 00-4.96-4.96 4.955 4.955 0 00-4.96 4.96M1252.17 198.902a4.955 4.955 0 004.96 4.96 4.955 4.955 0 004.96-4.96 4.955 4.955 0 00-4.96-4.96 4.955 4.955 0 00-4.96 4.96" />
</svg>