<svg xmlns="http://www.w3.org/2000/svg" version="1.2" viewBox="0 0 2600 1500" height="375" width="650">
   <path stroke-linejoin="bevel" stroke-width="2.73" stroke="#000" fill="none" class="prefix__StaffLines" d="M156.614 128.252H2583.78M156.614 153.055H2583.78M156.614 177.858H2583.78M156.614 202.661H2583.78M156.614 227.465H2583.78M32.598 461.79H2583.78M32.598 486.6H2583.78M32.598 511.4H2583.78M32.598 536.2H2583.78M32.598 561H2583.78M32.598 815.33H2583.78M32.598 840.14H2583.78M32.598 864.94H2583.78M32.598 889.74H2583.78M32.598 914.54H2583.78M32.598 1168.87H2583.78M32.598 1193.68H2583.78M32.598 1218.48H2583.78M32.598 1243.28H2583.78M32.598 1268.08H2583.78" />
   <path d="M47.192 397.62c1.891-.59 2.641-.92 3.61-1.56 1.875-1.23 3.031-3.44 3.031-5.67 0-3.8-3.031-6.36-7.516-6.36-4.359 0-8.047 2.72-8.047 6 0 1.64 1 2.77 2.532 2.77 1.312 0 2.281-.97 2.281-2.29 0-.68-.203-1.17-.844-1.79-.406-.38-.562-.64-.562-.92 0-.97 2-1.97 3.875-1.97 2.687 0 4.281 1.48 4.281 3.97 0 3.54-2.516 6.9-5.203 6.9-.11 0-.469-.03-.907-.08-1.171-.07-1.171-.07-1.406-.07-.875 0-1.359.4-1.359 1.12 0 .64.437 1.03 1.156 1.03.203 0 .484-.03.797-.08a8.718 8.718 0 011.531-.15c1.875 0 3.156 1.68 3.156 4.15 0 1.93-.437 3.77-1.328 5.28-1.187 2.16-3.031 3.21-5.64 3.21-2.235 0-4.157-1.13-4.157-2.41 0-.44.172-.59.797-.87 1.172-.52 1.641-1.24 1.641-2.32 0-1.4-1.109-2.48-2.547-2.48-1.719 0-2.844 1.36-2.844 3.44 0 3.87 2.953 6.31 7.75 6.31 6.047 0 10.641-4.03 10.641-9.39 0-1.44-.438-2.69-1.281-3.69-.875-1.03-1.672-1.51-3.438-2.08M37.083 750.41c-1.25.75-1.61 1.24-1.61 2.03 0 .77.641 1.33 1.438 1.33 1.047 0 1.641-.76 1.766-2.25 1.234-1 2.562-1.43 4.156-1.43 2.969 0 4.609 1.84 4.609 5.15 0 5.2-3.359 9.44-7.484 9.44-2.36 0-4.281-1.11-4.281-2.44 0-.23.046-.31.234-.44 1.047-.48 1.047-.48 1.328-.67.641-.48 1-1.2 1-2.04 0-1.29-1-2.24-2.406-2.24-1.75 0-3.078 1.47-3.078 3.39 0 3.53 3.047 6.08 7.328 6.08 6.469 0 11.719-5.16 11.719-11.55 0-4.04-3.079-6.89-7.438-6.89-1.734 0-3.125.36-5.047 1.33l2.235-7.56c2.125.44 3.812.64 5.25.64 2.64 0 5-.85 6.312-2.24.688-.79 1.078-1.48 1.078-2 0-.25-.125-.48-.281-.48-.109 0-.203.05-.438.16-1.312.64-3 1-4.562 1-2.391 0-5.234-.39-8.188-1.16l-3.64 12.84M53.036 1091.11c-2.125.23-4.719.41-6.953.41-1.125 0-2.406-.05-3.844-.13-1.328-.08-2.641-.16-4-.23l-1-.05-3.875 8.44 1.469.48.969-1.61c1.875-3.11 2.75-3.54 6.828-3.51h6.765l-4.359 6.25c-5.125 7.18-5.125 7.18-7.078 10.39-1.766 2.84-2.485 4.59-2.485 6.03 0 1.4.891 2.28 2.282 2.28 1.484 0 2.234-.72 2.765-2.59 2-7.52 3.203-10.13 8.75-19.11l3.766-5.85v-1.2" class="prefix__MeasureNumber" />
   <path d="M553.78 274.591c61.407 39.466 179.761 33.265 236.707-12.402-56.583 52.603-174.937 58.803-236.707 12.402M962.64 249.787c50.12 43.076 155.07 49.277 209.91 12.402-55.25 43.808-160.2 37.607-209.91-12.402M1799.02 212.583c53.22 54.636 230.71 76.959 295.81 37.204-65.97 46.645-243.45 24.322-295.81-37.204M362.41 558.52c61.819 57.46 263.854 79.78 336.725 37.21-73.634 49.48-275.669 27.15-336.725-37.21M867.5 608.13c53.71 36.4 156.35 30.2 205.29-12.4-48.52 49.53-151.16 55.73-205.29 12.4M1468.71 595.73c40.44 52.87 187.79 82.64 245.58 49.61-59.17 39.83-206.52 10.07-245.58-49.61M1840.17 632.93c55.15 32.79 155.85 20.39 201.4-24.8-44.7 52.08-145.4 64.48-201.4 24.8M1087.49 936.87c63.18 36.1 180.59 23.7 234.82-24.81-53.5 55.42-170.91 67.82-234.82 24.81M1681.33 986.47c54.75 48.98 225.12 56.42 283.94 12.41-59.13 50.95-229.49 43.5-283.94-12.41M202.729 1340.01c49.643 25.54 133.469 6.94 167.651-37.2-32.678 50.92-116.503 69.52-167.651 37.2M538.031 1315.21c36.733 41.22 120.558 53.62 167.651 24.8-48.109 35.69-131.935 23.29-167.651-24.8M873.33 1352.42c53.5 36.3 155.71 30.1 204.43-12.41-48.29 49.44-150.51 55.64-204.43 12.41M1473.25 1302.81c57.74 45.95 177.65 52.15 239.81 12.4-62.52 46.68-182.43 40.48-239.81-12.4M1835.98 1340.01c54.02 32.27 152.35 19.87 196.67-24.8-43.45 51.56-141.78 63.96-196.67 24.8" fill-rule="evenodd" stroke-linejoin="round" stroke-linecap="round" stroke-width="1.74" stroke="#000" class="prefix__SlurSegment" />
   <path stroke-linejoin="bevel" stroke-width="4.46" stroke="#000" class="prefix__BarLine" d="M1502.97 126.888v101.941M2581.55 126.888v101.941M1395.63 460.43v101.94M2581.55 460.43v101.94M1428.79 813.97v101.94M2581.55 813.97v101.94M1399.18 1167.51v101.94M2559.6 1167.51v101.94" />
   <path stroke-linejoin="bevel" stroke-width="13.64" stroke="#000" class="prefix__BarLine" d="M2576.96 1167.51v101.94" />
   <path stroke-linejoin="bevel" stroke-width="3.97" stroke="#000" class="prefix__LedgerLine" d="M356.83 252.268h49.598M528.981 252.268h49.598M842.7 585.81h49.6M1689.49 610.61h49.6M1689.49 585.81h49.6M1815.37 610.61h49.6M1815.37 585.81h49.6M2016.77 585.81h49.6M2218.18 610.61h49.6M2218.18 585.81h49.6M177.929 964.15h49.599M177.929 939.35h49.599M412.749 939.35h49.599M533.109 939.35h49.599M1656.53 964.15h49.59M1656.53 939.35h49.59M1940.47 964.15h49.6M1940.47 939.35h49.6M2224.41 964.15h49.6M2224.41 939.35h49.6M177.929 1317.69h49.599M177.929 1292.89h49.599M513.232 1292.89h49.598M680.883 1317.69h49.599M680.883 1292.89h49.599M848.53 1317.69h49.6M848.53 1292.89h49.6M1052.96 1317.69h49.6M1052.96 1292.89h49.6M1157.74 1292.89h49.6M1688.26 1292.89h49.6M1811.18 1317.69h49.6M1811.18 1292.89h49.6M2007.85 1292.89h49.6M2204.52 1317.69h49.59M2204.52 1292.89h49.59" />
   <path stroke-linejoin="bevel" stroke-width="2.73" stroke="#000" class="prefix__Stem" d="M396.383 249.093v-83.636M568.534 249.093v-83.636M805.241 236.691v-83.636M977.39 224.29v-71.235M1187.31 236.691v-77.435M1294.9 224.29v-83.636M1591.8 199.487V109.65M1813.77 187.085v-83.636M1927.54 199.487v-71.235M2109.58 224.29v-71.235M2291.62 236.691v-83.636M208.802 570.23V467.99M377.164 533.03v-65.04M545.526 557.83v-89.84M713.889 570.23V467.99M882.25 582.63V492.8M1087.55 570.23V486.6M1192.77 557.83v-83.64M1483.46 570.23V492.8M1729.05 619.84V511.4M1854.92 607.44V517.6M2056.33 582.63V505.2M2257.73 619.84V511.4M217.483 960.98v-89.84M452.302 948.57v-83.63M572.662 936.17v-83.63M837.45 923.77v-83.63M1102.25 911.37v-71.23M1337.07 886.57v-71.24M1518.62 923.77v-83.63M1696.08 960.98v-96.04M1980.02 973.38V864.94M2263.96 960.98v-96.04M217.483 1314.52v-96.04M385.134 1277.31v-58.83M552.785 1289.71v-71.23M720.436 1314.52v-96.04M888.09 1326.92v-102.24M1092.52 1314.52v-96.04M1197.3 1289.71v-83.63M1488.01 1277.31v-83.63M1727.82 1289.71v-89.83M1850.73 1314.52v-89.84M2047.4 1289.71v-77.43M2244.07 1326.92v-108.44" />
   <path d="M396.763 244.238c-1.783-3.286-5.55-5.07-10.123-5.07-3.364 0-7.038.993-10.619 2.884-6.541 3.473-10.51 9.317-10.51 14.386 0 1.38.295 2.775.992 4.062 1.783 3.27 5.55 4.96 10.123 4.96 3.364 0 7.038-.883 10.619-2.775 6.542-3.472 10.51-9.332 10.51-14.386 0-1.395-.294-2.774-.992-4.061M568.914 244.238c-1.783-3.286-5.55-5.07-10.123-5.07-3.364 0-7.038.993-10.619 2.884-6.542 3.473-10.51 9.317-10.51 14.386 0 1.38.295 2.775.992 4.062 1.783 3.27 5.55 4.96 10.123 4.96 3.364 0 7.038-.883 10.619-2.775 6.542-3.472 10.51-9.332 10.51-14.386 0-1.395-.294-2.774-.992-4.061M805.621 231.836c-1.783-3.286-5.55-5.07-10.123-5.07-3.364 0-7.038.993-10.619 2.884-6.541 3.473-10.51 9.317-10.51 14.386 0 1.38.295 2.775.992 4.062 1.783 3.27 5.55 4.96 10.123 4.96 3.364 0 7.038-.883 10.619-2.775 6.542-3.472 10.51-9.332 10.51-14.385 0-1.396-.294-2.775-.992-4.062M977.772 219.435c-1.783-3.286-5.55-5.07-10.123-5.07-3.364 0-7.038.993-10.619 2.884-6.541 3.473-10.51 9.317-10.51 14.386 0 1.38.295 2.775.992 4.062 1.783 3.27 5.55 4.96 10.123 4.96 3.364 0 7.038-.883 10.619-2.775 6.542-3.472 10.51-9.332 10.51-14.386 0-1.395-.294-2.774-.992-4.061M1187.682 231.836c-1.783-3.286-5.55-5.07-10.123-5.07-3.364 0-7.038.993-10.619 2.884-6.542 3.473-10.51 9.317-10.51 14.386 0 1.38.294 2.775.992 4.062 1.783 3.27 5.55 4.96 10.123 4.96 3.364 0 7.038-.883 10.619-2.775 6.542-3.472 10.51-9.332 10.51-14.385 0-1.396-.295-2.775-.992-4.062M1295.282 219.435c-1.783-3.286-5.55-5.07-10.123-5.07-3.364 0-7.038.993-10.619 2.884-6.542 3.473-10.51 9.317-10.51 14.386 0 1.38.294 2.775.992 4.062 1.783 3.27 5.55 4.96 10.123 4.96 3.364 0 7.038-.883 10.619-2.775 6.542-3.472 10.51-9.332 10.51-14.386 0-1.395-.295-2.774-.992-4.061M1592.182 194.631c-1.783-3.286-5.55-5.07-10.123-5.07-3.364 0-7.038.993-10.619 2.884-6.542 3.473-10.51 9.317-10.51 14.386 0 1.38.294 2.775.992 4.062 1.783 3.27 5.55 4.96 10.123 4.96 3.364 0 7.038-.883 10.619-2.775 6.542-3.472 10.51-9.332 10.51-14.386 0-1.395-.295-2.774-.992-4.061M1814.152 182.23c-1.783-3.286-5.55-5.07-10.123-5.07-3.364 0-7.038.993-10.619 2.884-6.542 3.473-10.51 9.317-10.51 14.386 0 1.38.294 2.775.992 4.062 1.783 3.27 5.55 4.96 10.123 4.96 3.364 0 7.038-.883 10.619-2.775 6.542-3.472 10.51-9.332 10.51-14.385 0-1.396-.295-2.775-.992-4.062M1927.922 194.631c-1.783-3.286-5.55-5.07-10.123-5.07-3.364 0-7.038.993-10.619 2.884-6.542 3.473-10.51 9.317-10.51 14.386 0 1.38.294 2.775.992 4.062 1.783 3.27 5.55 4.96 10.123 4.96 3.364 0 7.038-.883 10.619-2.775 6.542-3.472 10.51-9.332 10.51-14.386 0-1.395-.295-2.774-.992-4.061M2109.962 219.435c-1.783-3.286-5.55-5.07-10.123-5.07-3.364 0-7.038.993-10.619 2.884-6.542 3.473-10.51 9.317-10.51 14.386 0 1.38.294 2.775.992 4.062 1.783 3.27 5.55 4.96 10.123 4.96 3.364 0 7.038-.883 10.619-2.775 6.542-3.472 10.51-9.332 10.51-14.386 0-1.395-.295-2.774-.992-4.061M2292.002 231.79c-1.783-3.271-5.55-5.054-10.123-5.054-3.364 0-7.038.992-10.619 2.868-6.542 3.472-10.51 9.332-10.51 14.386 0 1.395.294 2.79.992 4.077 1.783 3.286 5.55 4.976 10.123 4.976 3.364 0 7.038-.9 10.619-2.775 6.542-3.488 10.51-9.348 10.51-14.417 0-1.38-.295-2.775-.992-4.062m-4.263 6.744c-1.69 1.69-5.07 3.767-8.635 5.767-3.565 1.984-7.146 3.472-9.518 3.968-.496.109-.992.202-1.488.202-1.597 0-2.79-.59-3.473-1.892a3.213 3.213 0 01-.496-1.69c0-1.084.682-2.387 1.783-3.472 1.69-1.69 4.96-3.767 8.526-5.751 3.581-1.984 7.147-3.472 9.534-3.969.496-.108.992-.201 1.488-.201 1.581 0 2.868.589 3.566 1.876.294.496.403 1.1.403 1.69 0 1.1-.605 2.278-1.69 3.472M209.181 565.38c-1.783-3.287-5.55-5.07-10.123-5.07-3.364 0-7.038.993-10.619 2.884-6.541 3.473-10.51 9.317-10.51 14.386 0 1.38.295 2.775.992 4.062 1.783 3.27 5.55 4.96 10.123 4.96 3.364 0 7.038-.883 10.619-2.775 6.542-3.472 10.51-9.332 10.51-14.386 0-1.395-.294-2.774-.992-4.061M377.544 528.17c-1.783-3.287-5.55-5.07-10.123-5.07-3.364 0-7.038.993-10.619 2.884-6.542 3.473-10.51 9.317-10.51 14.386 0 1.38.295 2.775.992 4.062 1.783 3.27 5.55 4.96 10.123 4.96 3.364 0 7.038-.883 10.619-2.775 6.542-3.472 10.51-9.332 10.51-14.386 0-1.395-.294-2.774-.992-4.061M545.906 552.97c-1.783-3.287-5.55-5.07-10.123-5.07-3.364 0-7.038.993-10.619 2.884-6.541 3.473-10.51 9.317-10.51 14.386 0 1.38.295 2.775.992 4.062 1.783 3.27 5.55 4.96 10.123 4.96 3.364 0 7.038-.883 10.619-2.775 6.542-3.472 10.51-9.332 10.51-14.386 0-1.395-.294-2.774-.992-4.061M714.269 565.38c-1.783-3.287-5.55-5.07-10.123-5.07-3.364 0-7.038.993-10.619 2.884-6.542 3.473-10.51 9.317-10.51 14.386 0 1.38.295 2.775.992 4.062 1.783 3.27 5.55 4.96 10.123 4.96 3.364 0 7.038-.883 10.619-2.775 6.542-3.472 10.51-9.332 10.51-14.386 0-1.395-.294-2.774-.992-4.061M882.632 577.78c-1.783-3.287-5.55-5.07-10.123-5.07-3.364 0-7.038.993-10.619 2.884-6.541 3.473-10.51 9.317-10.51 14.386 0 1.38.294 2.775.992 4.062 1.783 3.27 5.55 4.96 10.123 4.96 3.364 0 7.038-.883 10.619-2.775 6.542-3.472 10.51-9.332 10.51-14.386 0-1.395-.294-2.774-.992-4.061M1087.922 565.38c-1.783-3.287-5.55-5.07-10.123-5.07-3.364 0-7.038.993-10.619 2.884-6.542 3.473-10.51 9.317-10.51 14.386 0 1.38.294 2.775.992 4.062 1.783 3.27 5.55 4.96 10.123 4.96 3.364 0 7.038-.883 10.619-2.775 6.542-3.472 10.51-9.332 10.51-14.386 0-1.395-.295-2.774-.992-4.061M1193.152 552.97c-1.783-3.287-5.55-5.07-10.123-5.07-3.364 0-7.038.993-10.619 2.884-6.542 3.473-10.51 9.317-10.51 14.386 0 1.38.294 2.775.992 4.062 1.783 3.27 5.55 4.96 10.123 4.96 3.364 0 7.038-.883 10.619-2.775 6.542-3.472 10.51-9.332 10.51-14.386 0-1.395-.295-2.774-.992-4.061M1483.842 565.38c-1.783-3.287-5.55-5.07-10.123-5.07-3.364 0-7.038.993-10.619 2.884-6.541 3.473-10.51 9.317-10.51 14.386 0 1.38.295 2.775.992 4.062 1.783 3.27 5.55 4.96 10.123 4.96 3.364 0 7.038-.883 10.619-2.775 6.542-3.472 10.51-9.332 10.51-14.386 0-1.395-.295-2.774-.992-4.061M1729.422 614.98c-1.783-3.287-5.55-5.07-10.123-5.07-3.364 0-7.038.993-10.619 2.884-6.542 3.473-10.51 9.317-10.51 14.386 0 1.38.294 2.775.992 4.062 1.783 3.27 5.55 4.96 10.123 4.96 3.364 0 7.038-.883 10.619-2.775 6.542-3.472 10.51-9.332 10.51-14.386 0-1.395-.295-2.774-.992-4.061M1855.302 602.58c-1.783-3.287-5.55-5.07-10.123-5.07-3.364 0-7.038.993-10.619 2.884-6.542 3.473-10.51 9.317-10.51 14.386 0 1.38.294 2.775.992 4.062 1.783 3.27 5.55 4.96 10.123 4.96 3.364 0 7.038-.883 10.619-2.775 6.542-3.472 10.51-9.332 10.51-14.386 0-1.395-.295-2.774-.992-4.061M2056.702 577.78c-1.783-3.287-5.55-5.07-10.123-5.07-3.364 0-7.038.993-10.619 2.884-6.541 3.473-10.51 9.317-10.51 14.386 0 1.38.295 2.775.992 4.062 1.783 3.27 5.55 4.96 10.123 4.96 3.364 0 7.038-.883 10.619-2.775 6.542-3.472 10.51-9.332 10.51-14.386 0-1.395-.294-2.774-.992-4.061M2258.112 614.933c-1.783-3.27-5.55-5.053-10.123-5.053-3.364 0-7.038.992-10.619 2.868-6.542 3.472-10.51 9.332-10.51 14.385 0 1.396.294 2.79.992 4.077 1.783 3.287 5.55 4.977 10.123 4.977 3.364 0 7.038-.9 10.619-2.775 6.542-3.488 10.51-9.348 10.51-14.417 0-1.38-.295-2.775-.992-4.062m-4.263 6.744c-1.69 1.69-5.07 3.767-8.635 5.767-3.565 1.984-7.146 3.472-9.518 3.968-.496.109-.992.202-1.488.202-1.597 0-2.79-.59-3.473-1.892a3.213 3.213 0 01-.496-1.69c0-1.085.682-2.387 1.783-3.472 1.69-1.69 4.96-3.767 8.526-5.751 3.581-1.984 7.147-3.473 9.534-3.969.496-.108.992-.201 1.488-.201 1.581 0 2.868.589 3.566 1.876.294.496.403 1.1.403 1.69 0 1.1-.605 2.278-1.69 3.472M217.862 956.12c-1.783-3.287-5.55-5.07-10.123-5.07-3.364 0-7.038.993-10.619 2.884-6.541 3.473-10.51 9.317-10.51 14.386 0 1.38.295 2.775.992 4.062 1.783 3.27 5.55 4.96 10.123 4.96 3.364 0 7.038-.883 10.619-2.775 6.542-3.472 10.51-9.332 10.51-14.386 0-1.395-.294-2.774-.992-4.061M452.682 943.72c-1.783-3.287-5.55-5.07-10.123-5.07-3.364 0-7.038.993-10.619 2.884-6.541 3.473-10.51 9.317-10.51 14.386 0 1.38.295 2.775.992 4.062 1.783 3.27 5.55 4.96 10.123 4.96 3.364 0 7.038-.883 10.619-2.775 6.542-3.472 10.51-9.332 10.51-14.386 0-1.395-.294-2.774-.992-4.061M573.042 931.32c-1.783-3.287-5.55-5.07-10.123-5.07-3.364 0-7.038.993-10.619 2.884-6.541 3.473-10.51 9.317-10.51 14.386 0 1.38.295 2.775.992 4.062 1.783 3.27 5.55 4.96 10.123 4.96 3.364 0 7.038-.883 10.619-2.775 6.542-3.472 10.51-9.332 10.51-14.386 0-1.395-.294-2.774-.992-4.061M837.834 918.92c-1.783-3.287-5.55-5.07-10.123-5.07-3.364 0-7.038.993-10.619 2.884-6.542 3.473-10.51 9.317-10.51 14.386 0 1.38.295 2.775.992 4.062 1.783 3.27 5.55 4.96 10.123 4.96 3.364 0 7.038-.883 10.619-2.775 6.542-3.472 10.51-9.332 10.51-14.386 0-1.395-.295-2.774-.992-4.061M1102.622 906.51c-1.783-3.287-5.55-5.07-10.123-5.07-3.364 0-7.038.993-10.619 2.884-6.542 3.473-10.51 9.317-10.51 14.386 0 1.38.295 2.775.992 4.062 1.783 3.27 5.55 4.96 10.123 4.96 3.364 0 7.038-.883 10.619-2.775 6.542-3.472 10.51-9.332 10.51-14.386 0-1.395-.295-2.774-.992-4.061M1337.442 881.71c-1.783-3.287-5.55-5.07-10.123-5.07-3.364 0-7.038.993-10.619 2.884-6.542 3.473-10.51 9.317-10.51 14.386 0 1.38.294 2.775.992 4.062 1.783 3.27 5.55 4.96 10.123 4.96 3.364 0 7.038-.883 10.619-2.775 6.542-3.472 10.51-9.332 10.51-14.386 0-1.395-.295-2.774-.992-4.061M1518.992 918.92c-1.783-3.287-5.55-5.07-10.123-5.07-3.364 0-7.038.993-10.619 2.884-6.542 3.473-10.51 9.317-10.51 14.386 0 1.38.294 2.775.992 4.062 1.783 3.27 5.55 4.96 10.123 4.96 3.364 0 7.038-.883 10.619-2.775 6.542-3.472 10.51-9.332 10.51-14.386 0-1.395-.295-2.774-.992-4.061M1696.462 956.12c-1.783-3.287-5.55-5.07-10.123-5.07-3.364 0-7.038.993-10.619 2.884-6.542 3.473-10.51 9.317-10.51 14.386 0 1.38.294 2.775.992 4.062 1.783 3.27 5.55 4.96 10.123 4.96 3.364 0 7.038-.883 10.619-2.775 6.542-3.472 10.51-9.332 10.51-14.386 0-1.395-.295-2.774-.992-4.061M1980.402 968.52c-1.783-3.287-5.55-5.07-10.123-5.07-3.364 0-7.038.993-10.619 2.884-6.542 3.473-10.51 9.317-10.51 14.386 0 1.38.294 2.775.992 4.062 1.783 3.27 5.55 4.96 10.123 4.96 3.364 0 7.038-.883 10.619-2.775 6.542-3.472 10.51-9.332 10.51-14.386 0-1.395-.295-2.774-.992-4.061M2264.342 956.12c-1.783-3.287-5.55-5.07-10.123-5.07-3.364 0-7.038.993-10.619 2.884-6.542 3.473-10.51 9.317-10.51 14.386 0 1.38.294 2.775.992 4.062 1.783 3.27 5.55 4.96 10.123 4.96 3.364 0 7.038-.883 10.619-2.775 6.542-3.472 10.51-9.332 10.51-14.386 0-1.395-.295-2.774-.992-4.061M217.862 1309.66c-1.783-3.287-5.55-5.07-10.123-5.07-3.364 0-7.038.993-10.619 2.884-6.541 3.473-10.51 9.317-10.51 14.386 0 1.38.295 2.775.992 4.062 1.783 3.27 5.55 4.96 10.123 4.96 3.364 0 7.038-.883 10.619-2.775 6.542-3.472 10.51-9.332 10.51-14.385 0-1.396-.294-2.775-.992-4.062M385.514 1272.46c-1.783-3.287-5.55-5.07-10.123-5.07-3.364 0-7.038.993-10.619 2.884-6.541 3.473-10.51 9.317-10.51 14.386 0 1.38.295 2.775.992 4.062 1.783 3.27 5.55 4.96 10.123 4.96 3.364 0 7.038-.883 10.619-2.775 6.542-3.472 10.51-9.332 10.51-14.385 0-1.396-.294-2.775-.992-4.062M553.165 1284.86c-1.783-3.287-5.55-5.07-10.123-5.07-3.364 0-7.038.993-10.619 2.884-6.541 3.473-10.51 9.317-10.51 14.386 0 1.38.295 2.775.992 4.062 1.783 3.27 5.55 4.96 10.123 4.96 3.364 0 7.038-.883 10.619-2.775 6.542-3.472 10.51-9.332 10.51-14.385 0-1.396-.294-2.775-.992-4.062M720.816 1309.66c-1.783-3.287-5.55-5.07-10.123-5.07-3.364 0-7.038.993-10.619 2.884-6.541 3.473-10.51 9.317-10.51 14.386 0 1.38.295 2.775.992 4.062 1.783 3.27 5.55 4.96 10.123 4.96 3.364 0 7.038-.883 10.619-2.775 6.542-3.472 10.51-9.332 10.51-14.385 0-1.396-.294-2.775-.992-4.062M888.472 1322.06c-1.783-3.287-5.55-5.07-10.123-5.07-3.364 0-7.038.993-10.619 2.884-6.541 3.473-10.51 9.317-10.51 14.386 0 1.38.294 2.775.992 4.062 1.783 3.27 5.55 4.96 10.123 4.96 3.364 0 7.038-.883 10.619-2.775 6.542-3.472 10.51-9.332 10.51-14.385 0-1.396-.294-2.775-.992-4.062M1092.892 1309.66c-1.783-3.287-5.55-5.07-10.123-5.07-3.364 0-7.038.993-10.619 2.884-6.542 3.473-10.51 9.317-10.51 14.386 0 1.38.294 2.775.992 4.062 1.783 3.27 5.55 4.96 10.123 4.96 3.364 0 7.038-.883 10.619-2.775 6.542-3.472 10.51-9.332 10.51-14.385 0-1.396-.295-2.775-.992-4.062M1197.682 1284.86c-1.783-3.287-5.55-5.07-10.123-5.07-3.364 0-7.038.993-10.619 2.884-6.542 3.473-10.51 9.317-10.51 14.386 0 1.38.294 2.775.992 4.062 1.783 3.27 5.55 4.96 10.123 4.96 3.364 0 7.038-.883 10.619-2.775 6.542-3.472 10.51-9.332 10.51-14.385 0-1.396-.295-2.775-.992-4.062M1488.392 1272.46c-1.783-3.287-5.55-5.07-10.123-5.07-3.364 0-7.038.993-10.619 2.884-6.542 3.473-10.51 9.317-10.51 14.386 0 1.38.294 2.775.992 4.062 1.783 3.27 5.55 4.96 10.123 4.96 3.364 0 7.038-.883 10.619-2.775 6.542-3.472 10.51-9.332 10.51-14.385 0-1.396-.295-2.775-.992-4.062M1728.192 1284.86c-1.783-3.287-5.55-5.07-10.123-5.07-3.364 0-7.038.993-10.619 2.884-6.542 3.473-10.51 9.317-10.51 14.386 0 1.38.294 2.775.992 4.062 1.783 3.27 5.55 4.96 10.123 4.96 3.364 0 7.038-.883 10.619-2.775 6.542-3.472 10.51-9.332 10.51-14.385 0-1.396-.295-2.775-.992-4.062M1851.112 1309.66c-1.783-3.287-5.55-5.07-10.123-5.07-3.364 0-7.038.993-10.619 2.884-6.541 3.473-10.51 9.317-10.51 14.386 0 1.38.295 2.775.992 4.062 1.783 3.27 5.55 4.96 10.123 4.96 3.364 0 7.038-.883 10.619-2.775 6.542-3.472 10.51-9.332 10.51-14.385 0-1.396-.295-2.775-.992-4.062M2047.782 1284.86c-1.783-3.287-5.55-5.07-10.123-5.07-3.364 0-7.038.993-10.619 2.884-6.542 3.473-10.51 9.317-10.51 14.386 0 1.38.294 2.775.992 4.062 1.783 3.27 5.55 4.96 10.123 4.96 3.364 0 7.038-.883 10.619-2.775 6.542-3.472 10.51-9.332 10.51-14.385 0-1.396-.294-2.775-.992-4.062M2244.452 1322.014c-1.783-3.271-5.55-5.054-10.123-5.054-3.364 0-7.038.992-10.619 2.868-6.542 3.472-10.51 9.332-10.51 14.386 0 1.395.294 2.79.992 4.077 1.783 3.286 5.55 4.976 10.123 4.976 3.364 0 7.038-.9 10.619-2.775 6.542-3.488 10.51-9.348 10.51-14.417 0-1.38-.295-2.775-.992-4.061m-4.263 6.743c-1.69 1.69-5.07 3.767-8.635 5.767-3.565 1.984-7.146 3.472-9.518 3.968-.496.109-.992.202-1.488.202-1.597 0-2.79-.59-3.472-1.892a3.213 3.213 0 01-.497-1.69c0-1.084.682-2.387 1.783-3.472 1.69-1.69 4.96-3.767 8.526-5.751 3.581-1.984 7.147-3.472 9.534-3.968.496-.11.992-.202 1.488-.202 1.581 0 2.868.589 3.566 1.876.294.496.403 1.1.403 1.69 0 1.1-.605 2.278-1.69 3.472" class="prefix__Note" />
   <path d="M239.318 196.786c-1.225-5.38-3.845-9.177-4.62-10.2-3.163-4.248-7.147-7.07-11.797-8.418-3.085-.868-6.061-.992-8.464-.806a2314.654 2314.654 0 01-2.93-17.207c5.41-6.124 9.007-11.875 11.27-16.138 3.441-6.526 4.573-11.068 4.635-11.27 1.705-5.178 2.062-12.82.961-20.959-.992-7.487-3.07-14.152-5.41-17.377-1.008-1.41-2.062-2.14-3.085-2.14-1.21 0-3.705 1.225-6.573 3.984-2.279 2.17-5.519 6.03-8.06 11.999-2.977 7.007-3.194 16.417-2.838 23.082.372 7.224 1.473 12.867 1.489 12.914.015.093.279 1.58.713 4.123-.217.233-.465.45-.713.698-1.024.992-2.202 2.108-3.581 3.488-.853.852-1.799 1.751-2.79 2.713-8.372 8.076-21.068 20.307-21.068 39.312 0 4.667.9 9.054 2.666 13.038 1.566 3.565 3.845 6.82 6.76 9.673 7.673 7.503 18.183 10.68 25.174 10.526 2.93-.078 5.55-.31 7.922-.76 1.814 9.534 2.945 16.51 2.976 21.811.047 6.465-1.596 10.418-5.456 13.162-2.419 1.72-5.21 2.666-8.278 2.805-2.574.124-4.822-.34-6.232-.744h-.016s-.279-.093-.294-.279c-.016-.186.34-.232.34-.232h.032c1.907-.434 5.441-1.659 7.782-4.93 1.782-2.511 2.65-7.1.821-11.006-1.1-2.372-3.58-5.302-9.161-5.751-2.48-.202-4.728.31-6.713 1.503-1.798 1.07-3.286 2.698-4.325 4.682-2.433 4.666-1.984 10.355 1.116 14.169 2.946 3.596 7.519 5.89 12.914 6.464.852.093 1.69.124 2.526.124 4.403 0 8.759-1.194 12.309-3.38 3.627-2.557 5.736-6.51 6.402-12.091.558-4.604.17-10.48-1.209-18.494-.356-2.077-.899-5.085-1.55-8.805 5.705-1.907 9.828-5.457 13.564-11.27 3.271-5.69 4.201-11.75 2.79-18.013m-33.949 26.012c-4.604-1.21-9.006-3.69-12.727-7.177-1.302-1.21-3.162-3.364-4.62-6.728-1.348-3.147-2.015-6.558-1.953-10.107.062-4.667 1.364-9.457 3.845-14.2 2.899-5.535 7.425-11.022 13.44-16.308a89.216 89.216 0 004.077-3.814c.76 4.232 1.581 8.883 2.45 13.72-3.814 1.255-8.527 4.386-11.612 9.998-3.519 6.511-3.38 11.999-2.65 15.456.93 4.418 3.44 8.154 6.867 10.23.93.559 5.022 2.667 6.852 2.094a1.16 1.16 0 00.775-.667c.511-1.163-.512-1.798-2.046-2.744a27.278 27.278 0 01-1.985-1.317c-3.302-2.465-4.743-6.883-3.674-11.24a12.438 12.438 0 013.674-6.216c1.643-1.534 3.674-2.62 6.03-3.255 2.031 11.161 4.078 22.23 5.705 30.523.124.682.264 1.349.388 2.016-4.34.93-8.65.837-12.836-.264m11.24-32.942c10.261-.465 14.493 6.914 15.377 11.704.465 2.527.465 6.93-1.07 11.115-1.162 3.147-3.596 7.193-8.696 9.24-.062-.42-.14-.853-.217-1.272-1.535-8.712-3.457-19.625-5.395-30.787m-7.27-70.394c1.767-5.69 4.48-8.914 6.464-10.634 1.736-1.504 3.364-2.217 4.279-2.217.14 0 .263.03.356.062.465.14.992.697 1.457 1.565 2.295 4.248 1.55 10.914.217 15.316-1.612 5.364-4.51 10.93-13.238 20.463-.17-1.1-.326-2.14-.48-3.116-1.241-8.216-.916-15.44.945-21.44M115.302 530.325c-1.225-5.38-3.845-9.177-4.62-10.2-3.163-4.248-7.147-7.07-11.797-8.418-3.085-.868-6.061-.992-8.464-.806a2314.832 2314.832 0 01-2.93-17.207c5.41-6.124 9.007-11.875 11.27-16.138 3.441-6.526 4.573-11.068 4.635-11.27 1.705-5.178 2.062-12.82.961-20.959-.992-7.487-3.07-14.153-5.41-17.377-1.008-1.41-2.062-2.14-3.085-2.14-1.21 0-3.705 1.225-6.573 3.984-2.279 2.17-5.519 6.03-8.06 11.999-2.977 7.007-3.194 16.417-2.838 23.082.372 7.224 1.473 12.867 1.489 12.914.015.093.279 1.58.713 4.123-.217.233-.465.45-.713.698-1.024.992-2.202 2.108-3.581 3.488-.853.852-1.799 1.751-2.79 2.712-8.372 8.077-21.068 20.308-21.068 39.313 0 4.667.9 9.054 2.666 13.038 1.566 3.565 3.845 6.82 6.76 9.673 7.673 7.503 18.183 10.68 25.174 10.526 2.93-.077 5.55-.31 7.922-.76 1.814 9.534 2.945 16.51 2.976 21.811.047 6.465-1.596 10.418-5.456 13.162-2.419 1.72-5.21 2.666-8.278 2.805-2.574.124-4.822-.34-6.232-.744h-.016s-.279-.093-.294-.279c-.016-.186.34-.232.34-.232h.032c1.907-.434 5.441-1.659 7.782-4.93 1.782-2.511 2.65-7.1.821-11.006-1.1-2.372-3.58-5.302-9.161-5.752-2.48-.201-4.728.31-6.713 1.504-1.798 1.07-3.286 2.698-4.325 4.682-2.433 4.666-1.984 10.355 1.116 14.169 2.946 3.596 7.519 5.89 12.914 6.464.852.093 1.69.124 2.526.124 4.403 0 8.759-1.194 12.309-3.38 3.627-2.557 5.736-6.51 6.402-12.091.558-4.604.17-10.48-1.209-18.494-.356-2.077-.899-5.085-1.55-8.805 5.705-1.907 9.828-5.457 13.564-11.27 3.271-5.69 4.201-11.75 2.79-18.013m-33.949 26.012c-4.604-1.21-9.006-3.69-12.727-7.177-1.302-1.21-3.162-3.364-4.62-6.728-1.348-3.147-2.015-6.558-1.953-10.108.062-4.666 1.364-9.456 3.845-14.2 2.899-5.534 7.425-11.021 13.44-16.307a89.16 89.16 0 004.077-3.814c.76 4.232 1.581 8.883 2.45 13.72-3.814 1.255-8.527 4.386-11.612 9.998-3.519 6.511-3.38 11.999-2.65 15.456.93 4.418 3.44 8.154 6.867 10.23.93.559 5.022 2.667 6.852 2.094a1.16 1.16 0 00.775-.667c.511-1.163-.512-1.798-2.046-2.744a27.285 27.285 0 01-1.985-1.317c-3.302-2.465-4.743-6.883-3.674-11.24a12.438 12.438 0 013.674-6.216c1.643-1.534 3.674-2.62 6.03-3.255 2.031 11.161 4.078 22.23 5.705 30.523.124.682.264 1.349.388 2.016-4.34.93-8.65.837-12.836-.264m11.24-32.942c10.261-.465 14.493 6.914 15.377 11.704.465 2.527.465 6.93-1.07 11.115-1.162 3.147-3.596 7.193-8.696 9.24-.062-.42-.14-.853-.217-1.272-1.535-8.712-3.457-19.625-5.395-30.787m-7.27-70.394c1.767-5.69 4.48-8.914 6.464-10.634 1.736-1.504 3.364-2.217 4.279-2.217.14 0 .263.03.356.062.465.14.992.697 1.457 1.565 2.295 4.248 1.55 10.914.217 15.316-1.612 5.364-4.51 10.93-13.238 20.463-.17-1.1-.326-2.14-.48-3.116-1.241-8.216-.916-15.44.945-21.44M115.302 883.865c-1.225-5.38-3.845-9.177-4.62-10.2-3.163-4.248-7.147-7.07-11.797-8.418-3.085-.868-6.061-.992-8.464-.806a2314.832 2314.832 0 01-2.93-17.207c5.41-6.124 9.007-11.875 11.27-16.138 3.441-6.526 4.573-11.068 4.635-11.27 1.705-5.178 2.062-12.82.961-20.959-.992-7.487-3.07-14.152-5.41-17.377-1.008-1.41-2.062-2.14-3.085-2.14-1.21 0-3.705 1.225-6.573 3.984-2.279 2.17-5.519 6.03-8.06 11.999-2.977 7.007-3.194 16.417-2.838 23.083.372 7.223 1.473 12.866 1.489 12.913.015.093.279 1.58.713 4.123-.217.233-.465.45-.713.698-1.024.992-2.202 2.108-3.581 3.488-.853.852-1.799 1.751-2.79 2.712-8.372 8.077-21.068 20.308-21.068 39.313 0 4.667.9 9.054 2.666 13.038 1.566 3.565 3.845 6.82 6.76 9.673 7.673 7.503 18.183 10.68 25.174 10.526 2.93-.077 5.55-.31 7.922-.76 1.814 9.534 2.945 16.51 2.976 21.811.047 6.465-1.596 10.418-5.456 13.162-2.419 1.72-5.21 2.666-8.278 2.805-2.574.124-4.822-.34-6.232-.744h-.016s-.279-.093-.294-.279c-.016-.186.34-.232.34-.232h.032c1.907-.434 5.441-1.659 7.782-4.93 1.782-2.511 2.65-7.1.821-11.006-1.1-2.372-3.58-5.302-9.161-5.751-2.48-.202-4.728.31-6.713 1.503-1.798 1.07-3.286 2.698-4.325 4.682-2.433 4.666-1.984 10.355 1.116 14.169 2.946 3.596 7.519 5.89 12.914 6.464.852.093 1.69.124 2.526.124 4.403 0 8.759-1.194 12.309-3.38 3.627-2.557 5.736-6.51 6.402-12.091.558-4.604.17-10.48-1.209-18.494-.356-2.077-.899-5.085-1.55-8.805 5.705-1.907 9.828-5.457 13.564-11.27 3.271-5.69 4.201-11.75 2.79-18.013m-33.949 26.012c-4.604-1.21-9.006-3.69-12.727-7.177-1.302-1.21-3.162-3.364-4.62-6.728-1.348-3.147-2.015-6.558-1.953-10.108.062-4.666 1.364-9.456 3.845-14.2 2.899-5.534 7.425-11.021 13.44-16.307a89.16 89.16 0 004.077-3.814c.76 4.232 1.581 8.883 2.45 13.72-3.814 1.255-8.527 4.386-11.612 9.998-3.519 6.511-3.38 11.999-2.65 15.456.93 4.418 3.44 8.154 6.867 10.23.93.559 5.022 2.667 6.852 2.094a1.16 1.16 0 00.775-.667c.511-1.163-.512-1.798-2.046-2.744a27.285 27.285 0 01-1.985-1.317c-3.302-2.465-4.743-6.883-3.674-11.24a12.438 12.438 0 013.674-6.216c1.643-1.534 3.674-2.62 6.03-3.255 2.031 11.161 4.078 22.23 5.705 30.523.124.683.264 1.349.388 2.016-4.34.93-8.65.837-12.836-.264m11.24-32.942c10.261-.465 14.493 6.914 15.377 11.704.465 2.527.465 6.93-1.07 11.115-1.162 3.147-3.596 7.193-8.696 9.24-.062-.42-.14-.853-.217-1.272-1.535-8.712-3.457-19.625-5.395-30.787m-7.27-70.394c1.767-5.69 4.48-8.914 6.464-10.634 1.736-1.504 3.364-2.217 4.279-2.217.14 0 .263.03.356.062.465.14.992.697 1.457 1.566 2.295 4.247 1.55 10.913.217 15.315-1.612 5.364-4.51 10.93-13.238 20.463-.17-1.1-.326-2.14-.48-3.116-1.241-8.216-.916-15.44.945-21.44M115.302 1237.405c-1.225-5.38-3.845-9.177-4.62-10.2-3.163-4.248-7.147-7.07-11.797-8.418-3.085-.868-6.061-.992-8.464-.806a2314.832 2314.832 0 01-2.93-17.207c5.41-6.124 9.007-11.875 11.27-16.138 3.441-6.526 4.573-11.068 4.635-11.27 1.705-5.178 2.062-12.82.961-20.959-.992-7.487-3.07-14.152-5.41-17.377-1.008-1.41-2.062-2.14-3.085-2.14-1.21 0-3.705 1.225-6.573 3.984-2.279 2.17-5.519 6.03-8.06 11.999-2.977 7.007-3.194 16.417-2.838 23.082.372 7.224 1.473 12.867 1.489 12.914.015.093.279 1.58.713 4.123-.217.233-.465.45-.713.698-1.024.992-2.202 2.108-3.581 3.488-.853.852-1.799 1.751-2.79 2.712-8.372 8.077-21.068 20.308-21.068 39.313 0 4.667.9 9.054 2.666 13.038 1.566 3.565 3.845 6.82 6.76 9.673 7.673 7.503 18.183 10.68 25.174 10.526 2.93-.077 5.55-.31 7.922-.76 1.814 9.534 2.945 16.51 2.976 21.811.047 6.465-1.596 10.418-5.456 13.162-2.419 1.72-5.21 2.666-8.278 2.805-2.574.124-4.822-.34-6.232-.744h-.016s-.279-.093-.294-.279c-.016-.186.34-.232.34-.232h.032c1.907-.434 5.441-1.659 7.782-4.93 1.782-2.511 2.65-7.1.821-11.006-1.1-2.372-3.58-5.302-9.161-5.752-2.48-.201-4.728.31-6.713 1.504-1.798 1.07-3.286 2.698-4.325 4.682-2.433 4.666-1.984 10.355 1.116 14.169 2.946 3.596 7.519 5.89 12.914 6.464.852.093 1.69.124 2.526.124 4.403 0 8.759-1.194 12.309-3.38 3.627-2.557 5.736-6.51 6.402-12.091.558-4.604.17-10.48-1.209-18.494-.356-2.077-.899-5.085-1.55-8.805 5.705-1.907 9.828-5.457 13.564-11.27 3.271-5.69 4.201-11.75 2.79-18.013m-33.949 26.012c-4.604-1.21-9.006-3.69-12.727-7.177-1.302-1.21-3.162-3.364-4.62-6.728-1.348-3.147-2.015-6.557-1.953-10.107.062-4.667 1.364-9.457 3.845-14.2 2.899-5.534 7.425-11.022 13.44-16.308a89.16 89.16 0 004.077-3.814c.76 4.232 1.581 8.883 2.45 13.72-3.814 1.255-8.527 4.386-11.612 9.998-3.519 6.511-3.38 11.999-2.65 15.456.93 4.418 3.44 8.154 6.867 10.23.93.559 5.022 2.667 6.852 2.094a1.16 1.16 0 00.775-.667c.511-1.163-.512-1.798-2.046-2.744a27.285 27.285 0 01-1.985-1.317c-3.302-2.465-4.743-6.883-3.674-11.24a12.438 12.438 0 013.674-6.216c1.643-1.534 3.674-2.62 6.03-3.255 2.031 11.161 4.078 22.23 5.705 30.523.124.682.264 1.349.388 2.016-4.34.93-8.65.837-12.836-.264m11.24-32.942c10.261-.465 14.493 6.914 15.377 11.704.465 2.527.465 6.93-1.07 11.115-1.162 3.147-3.596 7.193-8.696 9.24-.062-.42-.14-.853-.217-1.272-1.535-8.712-3.457-19.625-5.395-30.787m-7.27-70.394c1.767-5.69 4.48-8.914 6.464-10.634 1.736-1.504 3.364-2.217 4.279-2.217.14 0 .263.03.356.062.465.14.992.697 1.457 1.566 2.295 4.247 1.55 10.913.217 15.315-1.612 5.364-4.51 10.93-13.238 20.463-.17-1.1-.326-2.14-.48-3.116-1.241-8.216-.916-15.44.945-21.44" class="prefix__Clef" />
   <path d="M266.941 165.713h17.037v7.394h-8.154c-.775 0-1.41.62-1.41 1.395v1.891c0 .776.635 1.396 1.41 1.396h30.012a1.39 1.39 0 001.395-1.396v-1.89a1.39 1.39 0 00-1.395-1.396h-8.867v-7.394h8.867a1.39 1.39 0 001.395-1.396v-1.89a1.39 1.39 0 00-1.395-1.396h-8.867v-15.843c0-.527-.31-1.008-.775-1.24l-1.21-.605a1.446 1.446 0 00-1.58.233l-8.976 8.247c-.28.279-.45.635-.45 1.038v8.17h-11.425s11.038-11.937 22.788-27.578c.853-1.147.357-2.186.17-2.372l-2.154-2.186a1.41 1.41 0 00-.992-.418c-.59 0-14.045.03-14.758 0-.713-.016-1.24.604-1.318 1.209 0 0-.527 7.301-3.116 15.378-2.573 8.045-5.487 12.99-8.123 16.587 0 0-.542.977-.186 1.72.341.745.977 1.815.977 1.815s.248.527 1.1.527M266.941 215.056h17.037v7.394h-8.154c-.775 0-1.41.62-1.41 1.395v1.891c0 .776.635 1.396 1.41 1.396h30.012a1.39 1.39 0 001.395-1.396v-1.89a1.39 1.39 0 00-1.395-1.396h-8.867v-7.394h8.867a1.39 1.39 0 001.395-1.396v-1.89a1.39 1.39 0 00-1.395-1.396h-8.867v-15.843c0-.527-.31-1.008-.775-1.24l-1.21-.605a1.446 1.446 0 00-1.58.233l-8.976 8.247c-.28.279-.45.635-.45 1.038v8.17h-11.425s11.038-11.937 22.788-27.578c.853-1.147.357-2.186.17-2.372l-2.154-2.186a1.41 1.41 0 00-.992-.418c-.59 0-14.045.03-14.758 0-.713-.016-1.24.604-1.318 1.209 0 0-.527 7.301-3.116 15.378-2.573 8.045-5.487 12.99-8.123 16.587 0 0-.542.977-.186 1.72.341.745.977 1.815.977 1.815s.248.527 1.1.527" class="prefix__TimeSig" />
   <path d="M976.03 146.771l212.64 6.281v12.407l-212.64-6.281v-12.407M1188.67 171.655l-32.24-.953v12.407l32.24.953v-12.407M1590.43 103.523l224.7-6.277v12.406l-224.7 6.277v-12.406M1815.13 115.848l-32.24.901v12.406l32.24-.901v-12.406M1926.18 121.622l184.77 25.175v12.516l-184.77-25.175v-12.516M207.437 461.79h507.816v12.4H207.437v-12.4M880.89 486.67l208.02-6.28v12.41l-208.02 6.28v-12.41M1088.91 498.99l-32.24.98v12.41l32.24-.98v-12.41M1482.1 486.37l248.31 18.81v12.44l-248.31-18.81v-12.44M1730.41 523.78l-32.24-2.44v12.44l32.24 2.44v-12.44M1853.56 511.55l204.13-12.56v12.42l-204.13 12.57v-12.43M216.118 865.01l237.548-6.27v12.4l-237.548 6.27v-12.4M453.666 877.34l-32.244.85v12.41l32.244-.86v-12.4M1100.88 834.19l237.55-25.09v12.47l-237.55 25.09v-12.47M1338.43 827.7l-32.24 3.41v12.47l32.24-3.41V827.7M216.118 1212.28h505.683v12.4H216.118v-12.4M886.72 1218.56l207.16-6.29v12.41l-207.16 6.29v-12.41M1093.88 1230.88l-32.24.98v12.4l32.24-.98v-12.4M1486.64 1187.4l242.54 6.27v12.41l-242.54-6.27v-12.41M1729.18 1212.28l-32.24-.84v12.41l32.24.83v-12.4M1849.37 1218.64l199.4-12.58v12.43l-199.4 12.57v-12.42" fill-rule="evenodd" class="prefix__Beam" />
   <path d="M398.491 168.93c-.093-.295-.992-3.768-.992-3.97-.093-.402-.697-.697-1.193-.697-.698 0-1.287.605-1.287 1.287v22.431c0 .496.403.884.79 1.086 4.17 1.286 12.805 6.758 19.254 17.765 1.783 3.07 4.666 7.24 4.666 15.58 0 7.146-1.1 14.68-2.883 21.624-.295 1.101-.59 2.093.496 2.48 1.085.404 1.488-.387 1.891-1.379 3.566-8.743 4.465-17.874 4.465-24.012v-1.892c-.496-12.804-7.844-22.23-7.844-22.23.294 0-9.131-12.2-11.813-16.37-3.658-5.658-5.457-11.3-5.55-11.704M807.35 156.527c-.094-.294-.993-3.767-.993-3.968-.093-.403-.697-.698-1.193-.698-.698 0-1.287.605-1.287 1.287v22.431c0 .496.403.884.79 1.086 4.17 1.286 12.805 6.758 19.254 17.765 1.783 3.07 4.666 7.24 4.666 15.58 0 7.146-1.1 14.68-2.883 21.624-.295 1.101-.59 2.093.496 2.48 1.085.404 1.488-.387 1.891-1.379 3.565-8.743 4.465-17.874 4.465-24.012v-1.892c-.496-12.804-7.844-22.23-7.844-22.23.294 0-9.131-12.2-11.813-16.37-3.658-5.658-5.457-11.3-5.55-11.704M1520.722 843.612c-.093-.294-.992-3.766-.992-3.968-.093-.403-.697-.698-1.193-.698-.698 0-1.287.605-1.287 1.287v22.431c0 .496.403.884.79 1.086 4.17 1.286 12.805 6.758 19.254 17.765 1.783 3.07 4.666 7.24 4.666 15.58 0 7.146-1.1 14.68-2.883 21.625-.295 1.1-.59 2.092.496 2.48 1.085.403 1.488-.388 1.891-1.38 3.566-8.743 4.465-17.874 4.465-24.012v-1.892c-.496-12.804-7.844-22.23-7.844-22.23.294 0-9.131-12.2-11.813-16.37-3.658-5.658-5.456-11.3-5.55-11.704" class="prefix__Hook" />
   <path d="M401.379 380.751c-2.453 0-2.844-.469-2.844-3.313v-43.687h-23.312c.328-5.938.328-11.953.406-17.719h-5.687c0 5.766 0 11.781-.329 17.719h-21.25v5.14h20.938c-1.344 18.094-6.156 35.235-23.375 44.86 1.5 1.031 3.312 2.859 4.187 4.047 18-10.75 23.141-29.485 24.797-48.907h18.172v38.547c0 6.563 1.656 8.375 7.656 8.375h9.172c5.844 0 7.11-3.718 7.657-15.797-1.5-.406-3.625-1.343-4.891-2.375-.328 10.907-.719 13.11-3.078 13.11h-8.219M541.53 357.923c.625-4.891.875-9.641.875-13.985h36.812v13.985H541.53m37.687-32.782v13.829h-36.812v-13.829h36.812m5.438-5.14h-47.547v23.859c0 12.797-1.344 28.844-14.141 40.219 1.11.703 3.157 2.687 3.954 3.797 7.734-6.891 11.687-15.813 13.656-24.813h38.64v16.578c0 1.672-.64 2.297-2.375 2.297-1.89.078-8.218.157-14.859-.078.797 1.5 1.828 3.953 2.219 5.531 8.453 0 13.594-.078 16.515-1.031 2.844-.937 3.938-2.687 3.938-6.719v-59.64M940.83 338.735h19.51v10.656h-19.51v-10.656m0-15.015h19.51v10.5h-19.51v-10.5m44.56 10.5h-20.06v-10.5h20.06v10.5m0 15.171h-20.06v-10.656h20.06v10.656m-19.75 31.125v-11.921h27.81v-4.985h-27.81v-9.469h25.12v-35.156h-55.14v35.156h24.41v9.469h-27.02v4.985h27.02v11.921h-32.31v4.985h70v-4.985h-32.08M1314.55 355.72v-4.985h-32.22v-20.219h28.99v-5.062h-28.99v-9.656h-5.45v9.656h-28.2v5.062h28.2v20.219h-32v4.985h28.28c-7.19 9.875-19.03 19.531-29.86 24.187 1.19 1.031 2.85 3.016 3.72 4.359 10.5-5.296 22.11-15.031 29.86-25.781v29.25h5.45v-29.484c7.74 10.828 19.5 20.953 30.25 26.25.88-1.344 2.54-3.406 3.64-4.344-10.82-4.75-22.75-14.562-30.1-24.437h28.43m-59.23-21.329c3.08 4.657 6.15 11.125 7.26 15.157l4.89-1.969c-1.1-4.109-4.34-10.266-7.65-14.938l-4.5 1.75m41.08 15.391c2.84-4.016 6.39-10.344 9.15-15.719l-5.45-1.812c-1.81 4.812-5.38 11.687-8.13 15.953l4.43 1.578M1597.65 330.048h-41.7v-6.875h41.7v6.875m0 10.812h-41.7v-6.953h41.7v6.953m5.3-21.719h-52.14v25.75h52.14v-25.75m-22.67 50.235h26.39v-4.735h-26.39v-9.328h31.51v-4.734h-69.35v4.734h32.54v24.422c-7.11-1.75-12.31-5.531-15.39-12.969.78-2.515 1.42-5.125 1.97-7.968l-5.22-.797c-2.12 11.781-7.26 20.703-15.56 26.156 1.19.781 3.25 2.766 4.03 3.719 5.22-3.953 9.41-9.016 12.48-15.422 6.32 11.141 16.35 13.672 32.55 13.672h21.41c.31-1.5 1.19-3.797 1.89-5.063-3.7.094-20.38.172-23.14.094-3.47 0-6.72-.172-9.72-.484v-11.297M1777.45 359.579v-6.469h18.72v6.469h-18.72m0-16.5h18.72v6.391h-18.72v-6.391m43.52 0v6.391h-19.58v-6.391h19.58m0 16.5h-19.58v-6.469h19.58v6.469m-19.58 21.25v-7.266h27.8v-4.265h-27.8v-5.844h24.88v-24.25h-24.88v-5.141h32.38v-4.343h-32.38v-6.391c9.23-.719 17.92-1.656 24.72-2.922l-2.92-4.125c-12.25 2.297-34.61 3.719-52.85 4.281.47 1.11 1.02 2.922 1.1 4.188 7.9-.156 16.36-.563 24.73-1.11v6.079h-31.76v4.343h31.76v5.141h-23.86v24.25h23.86v5.844h-26.31v4.265h26.31v7.266h-32.23v4.344h70.23v-4.344h-32.78M2265.88 318.829l-.87.234h-20.38v68.672h4.91v-63.859h13.03c-2.38 5.453-5.61 12.328-8.77 17.937 7.74 6.391 9.78 11.766 9.88 16.188 0 2.531-.56 4.578-2.14 5.531-.88.563-2.05.797-3.31.875-1.66.156-3.88.156-6.41-.156.87 1.422 1.42 3.469 1.5 4.89 2.14.079 4.83.157 6.87-.078 1.82-.234 3.49-.703 4.82-1.578 2.45-1.578 3.56-4.906 3.56-9 0-4.984-1.89-10.75-9.56-17.234 3.4-6.156 7.26-13.735 10.43-20.219l-3.56-2.203m13.27 57.266v-23.704h24.17v23.704h-24.17m24.17-50.563v21.969h-24.17v-21.969h24.17m-29.22-4.969v66.532h5.05v-6.11h24.17v5.563h5.3v-65.985h-34.52M172.485 723.87v-6.47h18.719v6.47h-18.719m0-16.5h18.719v6.39h-18.719v-6.39m43.516 0v6.39h-19.578v-6.39h19.578m0 16.5h-19.578v-6.47h19.578v6.47m-19.578 21.25v-7.27h27.796v-4.26h-27.796v-5.84h24.875V703.5h-24.875v-5.15h32.375v-4.34h-32.375v-6.39c9.234-.72 17.921-1.66 24.718-2.92l-2.922-4.13c-12.25 2.3-34.609 3.72-52.843 4.28.468 1.11 1.015 2.93 1.093 4.19 7.907-.15 16.36-.56 24.735-1.11v6.08h-31.766v4.34h31.766v5.15h-23.86v24.25h23.86v5.84h-26.313v4.26h26.313v7.27h-32.235v4.34h70.235v-4.34h-32.781M351.426 683.12l-.875.23h-20.375v68.68h4.906v-63.86h13.031c-2.375 5.45-5.609 12.33-8.766 17.93 7.735 6.4 9.782 11.77 9.875 16.19 0 2.53-.562 4.58-2.14 5.53-.875.57-2.047.8-3.313.88-1.656.15-3.875.15-6.406-.16.875 1.42 1.422 3.47 1.5 4.89 2.141.08 4.828.16 6.875-.08 1.813-.23 3.484-.7 4.813-1.57 2.453-1.58 3.562-4.91 3.562-9 0-4.99-1.891-10.75-9.562-17.24 3.406-6.15 7.265-13.73 10.437-20.22l-3.562-2.2m13.265 57.27v-23.71h24.172v23.71h-24.172m24.172-50.57v21.97h-24.172v-21.97h24.172m-29.219-4.97v66.54h5.047v-6.11h24.172v5.56h5.297v-65.99h-34.516M901.86 730.51v-4.81h-33.25c.39-1.99.78-4.19 1.01-6.41h33.11v-4.65h-32.7v-7.19h25.44v-4.58h-25.44v-6.8h28.98v-4.82h-16.83c2.15-2.85 4.5-6.33 6.49-9.66l-5.22-1.83c-1.73 3.41-4.66 8.16-7.11 11.49h-21.33l2.77-1.35c-1.27-2.84-4.11-7.05-6.95-10.14l-4.58 1.91c2.37 2.93 4.97 6.73 6.31 9.58h-16.58v4.82h28.75v6.8h-24.81v4.58h24.81v7.19h-32v4.65h31.44c-.24 2.3-.63 4.42-1.09 6.41h-28.29v4.81h26.79c-3.65 8.55-11.46 13.84-29.94 16.61.94 1.11 2.28 3.41 2.67 4.67 20.47-3.48 28.92-10.2 32.8-20.97 6.07 11.72 17.06 18.28 33.01 20.97.71-1.5 2.13-3.72 3.24-4.83-14.61-1.89-25.21-7.2-30.89-16.45h29.39M1160.24 689.28c-2.92-2.14-8.61-5.46-12.8-7.75l-3 3.72c4.19 2.45 9.88 6.07 12.72 8.29l3.08-4.26m-2.36 20.7c-3.1-2.06-9.1-5.3-13.44-7.44l-2.84 3.88c4.42 2.29 10.26 5.68 13.28 7.9l3-4.34m-10.21 40.84c4.04-7.2 9.02-17.31 12.65-25.61l-4.11-3.07c-3.94 8.92-9.32 19.43-13.11 25.67l4.57 3.01m43.15-50.32h-7.99v-11.22h7.99v11.22m14.84 16.26c-.16.16-.55.16-1.66.16h-6.87c-1.89 0-2.21-.16-2.21-1.5v-10.27h10.74v11.61m-36.25 26.78v-9.72h36.25v9.72h-36.25m9.31-38.39v2.92c0 4.35-1.73 9.57-9.31 13.68v-16.6h9.31m26 16.13h.94v7.97h-36.25v-6.96c.94.72 2.2 1.99 2.61 2.77 8.76-4.66 10.97-11.38 10.97-16.99v-2.92h7.67v10.35c0 4.67 1.34 5.78 6.08 5.78h7.98m9-32v-4.82h-52.14v4.82h16.52v11.22h-13.6v51.53h4.91v-3.82h36.25v3.49h4.98v-51.2h-15.01v-11.22h18.09M1485.74 740.23c-2.13-1.81-10.66-7.98-15.41-11.14h19.75v-4.66h-21.87v-14.45h-5.14v14.45h-22.19v4.66h19.42c-5.53 6.56-13.98 12.87-21.25 16.19 1.11.95 2.69 2.76 3.56 4.03 6.71-3.71 14.69-10.11 20.46-16.99v19.52h5.14v-19.59c4.73 3.64 11.61 9.48 14.22 12.01l3.31-4.03m-39.09-27.73c2.76 3.48 5.43 8.29 6.46 11.62l4.5-1.67c-1.18-3.16-3.86-7.97-6.78-11.3l-4.18 1.35m34.35-1.74c-1.42 3.49-4.26 8.61-6.4 11.77l4.03 1.34c2.22-3 4.98-7.5 7.19-11.53l-4.82-1.58m5.3-12.64v-6.72h17.77v-4.73h-17.77v-6.66h-5.14v6.66h-22.44v-6.66h-5.04v6.66h-18.18v4.73h18.18v4.91l-4.03-.72c-2.69 6.64-8.07 15.01-16.13 21.09 1.27.8 3 2.3 3.88 3.41 4.73-3.8 8.6-8.22 11.68-12.8h46.3c-.95 26.94-1.97 36.56-3.95 38.78-.63.96-1.43 1.19-2.69 1.19-1.42 0-4.97-.08-8.77-.39.8 1.42 1.35 3.47 1.5 4.97 3.72.16 7.35.33 9.41.08 2.36-.24 3.78-.86 5.2-2.69 2.46-3.23 3.49-13.42 4.6-44 0-.7.07-2.69.07-2.69H1452c.88-1.58 1.75-3.15 2.46-4.65h4.26v-6.49h22.44v6.72h5.14M1824.34 699.78h5.3v-6.96h20.37v7.44h5.3v-7.44h18.8v-4.97h-18.8v-7.84h-5.3v7.84h-20.37v-7.84h-5.3v7.84h-19.11v4.97h19.11v6.96m.31 1.9c-4.5 9.16-12.07 18.25-19.98 23.86 1.26.86 3.41 2.67 4.34 3.63 2.85-2.3 5.77-5.05 8.53-8.14v30.98h5.38V714.4c2.61-3.56 4.89-7.34 6.87-11.14l-5.14-1.58m26.78 44.08c-4.03 0-4.81-.72-4.81-3.87V726.4c9.31-4.42 18.08-9.23 24.64-14.06l-3.87-4.19c-5.21 4.19-12.64 8.77-20.77 13.03v-19.34h-5.29v21.95c-4.04 1.99-8.07 3.88-12 5.53.78 1.11 1.65 2.85 2.04 3.96 3.24-1.35 6.64-2.85 9.96-4.43v12.96c0 7.11 2.21 9 9.79 9h15c7.11 0 8.71-3.39 9.49-15.08-1.58-.41-3.71-1.27-4.97-2.3-.49 10.27-1.03 12.33-4.83 12.33h-14.38M2231.52 739.37c-5.06 3.23-15.01 7.03-22.98 9.02 1.17 1.03 2.76 2.86 3.55 3.87 7.98-2.2 17.93-6.01 24.25-9.97l-4.82-2.92m18.96 3.31c8.92 3.1 17.78 6.74 23.22 9.42l3.95-3.56c-5.92-2.69-15.33-6.33-24.02-9.17l-3.15 3.31m-17.38-50.72h19.99v8.07h-19.99v-8.07m31.36 22.99v7.34h-18.87v-7.34h18.87m0 18.64h-18.87v-7.5h18.87v7.5m-42.66-7.5h18.49v7.5h-18.49v-7.5m0-11.14h18.49v7.34h-18.49v-7.34m36.58-14.92v-8.07h14.46v-4.73h-14.46v-7.22h-5.29v7.22h-19.99v-7.22h-5.22v7.22h-14.14v4.73h14.14v8.07h-19.83v4.89h32.24v6h-23.55v26.7h53.02v-26.7h-24.17v-6h32.46v-4.89h-19.67M174.401 1052.5h55.046v11.06h5.297v-15.95h-29.468c-.938-2.31-2.594-5.31-4.032-7.63l-5.359 1.6c1.187 1.75 2.281 4.04 3.078 6.03H169.26v15.95h5.141v-11.06m50.312 16.11c-4.422 4.19-11.531 9.56-17.687 13.51-1.75-4.5-4.438-8.84-8.297-12.56 2.047-1.42 3.953-2.84 5.687-4.34h20.141v-4.58h-45.735v4.58h18.641c-7.5 5.3-18.484 9.48-28.516 12 .938.95 2.36 3.09 2.922 4.19 7.578-2.36 15.797-5.61 22.985-9.55 1.5 1.58 2.922 3.23 4.031 5.05-6.875 5.21-20.141 10.98-30.016 13.36.938 1.09 2.125 3 2.688 4.18 9.39-3.01 21.719-8.62 29.453-13.98.953 2.05 1.672 4.03 2.297 6-7.906 7.19-23.219 14.69-35.86 17.61 1.016 1.19 2.204 3.09 2.766 4.51 11.453-3.4 25.188-10.28 34.125-17.23.859 6.87-.641 12.8-3.25 14.62-1.5 1.35-3 1.58-5.125 1.58-1.578 0-4.344-.15-7.187-.39.859 1.42 1.421 3.47 1.421 4.89 2.516.16 4.969.24 6.782.24 3.406-.08 5.453-.63 7.828-2.61 4.422-3.24 6.406-13.19 3.562-23.38 1.328-.79 2.75-1.58 4.094-2.53 4.266 11.45 11.938 20.86 22.203 25.36.797-1.34 2.297-3.31 3.469-4.27-10.109-3.87-17.922-12.95-21.641-23.7 4.422-2.92 8.938-6.23 12.563-9.15l-4.344-3.41M529.58 1052.5h55.047v11.06h5.297v-15.95h-29.469c-.937-2.31-2.594-5.31-4.031-7.63l-5.359 1.6c1.187 1.75 2.281 4.04 3.078 6.03H524.44v15.95h5.14v-11.06m50.313 16.11c-4.422 4.19-11.532 9.56-17.688 13.51-1.75-4.5-4.437-8.84-8.297-12.56 2.047-1.42 3.953-2.84 5.688-4.34h20.14v-4.58h-45.734v4.58h18.641c-7.5 5.3-18.485 9.48-28.516 12 .938.95 2.359 3.09 2.922 4.19 7.578-2.36 15.797-5.61 22.984-9.55 1.5 1.58 2.922 3.23 4.032 5.05-6.875 5.21-20.141 10.98-30.016 13.36.937 1.09 2.125 3 2.687 4.18 9.391-3.01 21.719-8.62 29.454-13.98.953 2.05 1.671 4.03 2.296 6-7.906 7.19-23.218 14.69-35.859 17.61 1.016 1.19 2.203 3.09 2.766 4.51 11.453-3.4 25.187-10.28 34.125-17.23.859 6.87-.641 12.8-3.25 14.62-1.5 1.35-3 1.58-5.125 1.58-1.578 0-4.344-.15-7.188-.39.86 1.42 1.422 3.47 1.422 4.89 2.516.16 4.969.24 6.781.24 3.407-.08 5.453-.63 7.828-2.61 4.422-3.24 6.407-13.19 3.563-23.38 1.328-.79 2.75-1.58 4.094-2.53 4.265 11.45 11.937 20.86 22.203 25.36.797-1.34 2.297-3.31 3.469-4.27-10.11-3.87-17.922-12.95-21.641-23.7 4.422-2.92 8.937-6.23 12.562-9.15l-4.343-3.41M805.638 1095.55c1.969 3.17 3.953 7.51 4.734 10.36l4.906-1.75c-.796-2.85-2.843-6.96-4.906-10.11l-4.734 1.5m29.392-1.66c-1.27 3.48-3.88 8.53-5.94 12.02h-40.905v4.57h69.185v-4.57h-22.98c1.89-3.1 3.87-7.04 5.69-10.68l-5.05-1.34m3.86-5.05h-33.643v-10.51h33.643v10.51m5.53-14.93h-44.47v19.36h44.47v-19.36m8.37-23.55c-2.76 3.01-7.42 6.95-11.37 9.8-2.13-1.89-4.03-4.02-5.77-6.16 3.96-2.84 8.69-6.56 12.33-10.03l-4.03-2.86c-2.61 2.86-6.95 6.73-10.67 9.58-2.28-3.17-4.19-6.57-5.77-10.05l-4.58 1.42c3.4 7.6 8.15 14.55 13.83 20.55h-27.575c4.75-5.05 8.687-10.99 11.215-17.61l-3.387-1.83-.953.33h-24.563v4.42h22.031c-2.125 4.11-4.968 7.97-8.281 11.61-2.609-2.76-6.875-5.92-10.672-8.14l-2.843 2.92c3.718 2.22 7.828 5.61 10.421 8.3-5.125 4.66-11.046 8.45-16.5 10.75 1.016 1.01 2.532 2.76 3.235 3.94 6.719-3.16 13.672-7.89 19.672-14.05v3.86h28.52v-4.19c5.53 5.85 12.07 10.6 18.95 13.67.87-1.34 2.3-3.31 3.56-4.34-5.45-2.14-10.51-5.3-15.17-9.25 3.95-2.77 8.69-6.39 12.33-9.8l-3.96-2.84M1099.29 1091.77v7.89h-23.47v-7.89h23.47m4.73-4.04h-33.09v19.99h4.89v-4.03h28.2v-15.96m15.57-9.48h-63.11v34.14h5.04v-29.64h52.85v23.94c0 .87-.39 1.11-1.35 1.18-.86 0-4.42.08-7.89-.07.63 1.11 1.35 2.68 1.66 3.95 4.98 0 8.22 0 10.19-.64 1.98-.78 2.61-1.81 2.61-4.5v-28.36m-14.14-8.45h-34.52v-7.66h34.52v7.66m-39.74-11.61v15.56h45.19v-15.56h-45.19m26.08-9.33c-.88-2.53-2.06-5.86-3.17-8.63l-4.97 1.19c.86 2.22 1.81 5.06 2.53 7.44h-32.7v4.59h68.79v-4.59h-30.48M1532.77 1057.31c-.86 4.36-2.13 8.94-3.24 12.02l4.35 1.42c1.81-4.34 3.64-11.45 4.89-17.38l-3.55-1.1-.95.23h-22.99c1.04-3.56 1.9-7.36 2.54-11.25l-5.14-.7c-1.9 11.31-5.3 22.23-10.66 29.18 1.26.71 3.55 2.21 4.42 3 3-4.11 5.45-9.48 7.42-15.42h22.91m-39.97.56c-1.27 3.96-2.84 8.15-4.27 10.91l4.19 1.5c2.22-4.11 4.66-10.67 6.39-16.36l-3.47-1.11-.95.24h-15.16c1.02-3.72 1.9-7.52 2.52-11.47l-4.97-.96c-1.89 11.88-5.3 23.25-10.67 30.77 1.27.7 3.25 2.38 4.11 3.23 2.92-4.57 5.53-10.34 7.59-16.75h14.69m-8.69 42.93v-33.36h-5.06v32.4c0 3.57-2.77 6.18-4.27 7.11 1.04 1.03 2.3 3.17 2.85 4.36 1.11-1.42 3.25-2.84 18.73-12.81-.4-1.03-1.11-3-1.42-4.34l-10.83 6.64m36.17-37.39h-5.04v4.57c0 11.63-1.5 28.71-21.41 41.35 1.11.79 2.92 2.53 3.7 3.64 12.57-8.14 18.25-18.02 20.79-27.35 3.71 12.49 9.71 22.05 19.51 27.11.7-1.42 2.28-3.32 3.47-4.34-11.92-5.22-18.25-18.19-21.17-34.23.15-2.22.15-4.19.15-6.1v-4.65M1715.69 1090.89v-4.81h-33.25c.39-1.99.78-4.19 1.01-6.41h33.11v-4.65h-32.7v-7.19h25.43v-4.58h-25.43v-6.8h28.98v-4.83h-16.83c2.14-2.84 4.5-6.32 6.49-9.65l-5.22-1.83c-1.74 3.41-4.66 8.16-7.11 11.48h-21.33l2.77-1.34c-1.27-2.84-4.11-7.05-6.96-10.14l-4.57 1.91c2.37 2.93 4.96 6.73 6.31 9.57h-16.58v4.83h28.75v6.8h-24.81v4.58h24.81v7.19h-32v4.65H1678c-.24 2.3-.63 4.42-1.1 6.41h-28.28v4.81h26.78c-3.64 8.55-11.45 13.84-29.93 16.61.93 1.11 2.28 3.41 2.67 4.67 20.47-3.48 28.92-10.2 32.8-20.97 6.07 11.72 17.06 18.28 33.01 20.97.7-1.5 2.13-3.72 3.24-4.83-14.61-1.89-25.21-7.2-30.9-16.45h29.4M2231.43 1049.66c-2.93-2.14-8.61-5.46-12.8-7.75l-3 3.71c4.19 2.46 9.87 6.08 12.72 8.3l3.08-4.26m-2.36 20.7c-3.1-2.06-9.1-5.3-13.44-7.44l-2.84 3.88c4.42 2.29 10.26 5.68 13.28 7.9l3-4.34m-10.21 40.84c4.03-7.2 9.02-17.31 12.64-25.61l-4.11-3.07c-3.93 8.92-9.31 19.43-13.1 25.67l4.57 3.01m43.14-50.33h-7.98v-11.21h7.98v11.21m14.85 16.27c-.16.16-.55.16-1.66.16h-6.87c-1.89 0-2.21-.16-2.21-1.5v-10.27h10.74v11.61m-36.25 26.78v-9.72h36.25v9.72h-36.25m9.31-38.39v2.92c0 4.35-1.73 9.57-9.31 13.67v-16.59h9.31m26 16.13h.94v7.96h-36.25v-6.95c.94.72 2.2 1.99 2.61 2.77 8.76-4.66 10.97-11.38 10.97-16.99v-2.92h7.67v10.34c0 4.68 1.34 5.79 6.08 5.79h7.98m9-32v-4.82h-52.14v4.82h16.52v11.21h-13.6v51.54h4.91v-3.82h36.25v3.49h4.98v-51.21h-15.01v-11.21h18.09M186.932 1435.52c.078-1.5.078-2.92.078-4.34v-12h41.703v16.34h-41.781m22.344-21.33l3.406-1.03c-.953-3.08-2.922-7.92-4.828-11.56l-4.969 1.34c1.578 3.49 3.469 8.16 4.422 11.25h-25.75v16.99c0 11.94-1.11 28.3-10.828 40.08 1.187.56 3.562 2.14 4.5 3.09 7.906-9.48 10.593-22.55 11.453-33.92h42.031v5.37h5.297v-31.61h-24.734M522.234 1435.52c.078-1.5.078-2.92.078-4.34v-12h41.704v16.34h-41.782m22.344-21.33l3.406-1.03c-.953-3.08-2.922-7.92-4.828-11.56l-4.969 1.34c1.579 3.49 3.469 8.16 4.422 11.25h-25.75v16.99c0 11.94-1.109 28.3-10.828 40.08 1.188.56 3.563 2.14 4.5 3.09 7.906-9.48 10.594-22.55 11.453-33.92h42.032v5.37h5.296v-31.61h-24.734M877.37 1413.79c-1.35-3.31-4.52-8.47-7.44-12.27l-4.42 1.91c2.92 3.87 5.92 9.09 7.18 12.5l4.68-2.14m-1.43 29.15h19.19v-4.89h-19.19v-9.87h-5.22v9.87h-18.48v4.89h18.48v10.29h-29.31v4.96h29.31v15.91h5.22v-15.91h30.02v-4.96h-30.02v-10.29m32.38-20.45v-4.91h-18.24c3.24-3.64 6.79-8.37 9.63-12.65l-5.36-1.99c-2.3 4.44-6.72 10.77-10.03 14.64h-28.61l4.03-2.12c-1.66-3.33-5.28-8.23-8.61-11.64l-4.42 2.14c3.16 3.56 6.64 8.39 8.22 11.62h-16.44v4.91h19.52c-4.74 7.66-12.96 14.45-21.41 17.86 1.19.94 2.69 2.75 3.47 4.02 9.25-4.19 18.17-12.39 23.31-21.88h20.3c5.37 8.84 14.29 17.06 23.22 21.25.79-1.34 2.37-3.23 3.56-4.19-8.06-3.31-16.27-9.87-21.25-17.06h19.11M1176.28 1438.38c-1.66-2.3-8.94-11.14-11.46-13.83v-2.29h9.88v-4.99h-9.88v-15.26h-5.06v15.26H1148v4.99h11.14c-2.38 11.14-7.6 24.18-12.64 31.22.93 1.26 2.36 3.25 3.07 4.75 3.8-5.38 7.43-14 10.19-22.77v38.5h5.06v-43.09c2.85 3.95 6.4 9.17 7.9 11.78l3.56-4.27m41.31-26.08v-5.06h-42.5v5.06h21.02c-5.22 14.14-13.52 26.78-23.63 34.69 1.27.88 3.24 3.02 4.11 4.03 5.92-5.04 11.22-11.53 15.8-19.12v41.81h5.22v-51.38c1.57-3.23 2.92-6.56 4.11-10.03h15.87m-19.52 16.36c5.93 6.57 13.04 15.57 16.29 21.17l4.26-3.23c-3.4-5.45-10.67-14.31-16.59-20.7l-3.96 2.76M1507.07 1412.93v-5.3h-67.55v5.3h35.63c-7.97 13.67-21.72 27.19-37.52 35.09 1.11 1.19 2.77 3.25 3.62 4.52 11.15-5.94 21.1-14.31 29.16-23.64v44.98h5.61v-52.01c2.05-3 4.03-5.94 5.77-8.94h25.28m-29 17c9.48 6.15 21.33 15.4 26.93 21.34l4.11-3.95c-5.76-6.02-17.76-14.78-27.17-20.8l-3.87 3.41M1867.03 1411.66c-3.17-2.78-9.33-6.65-14.38-9.11l-3.09 3.25c4.98 2.61 11.22 6.64 14.22 9.43l3.25-3.57m-5.85 15.64c-2.68 8.22-6.25 15.57-10.67 21.97-2.12-7.67-3.72-17.45-4.5-28.44h25.2v-5.14h-25.59c-.25-4.36-.33-8.93-.33-13.61h-5.43c0 4.6.15 9.18.39 13.61h-33.19v21.97c0 10.11-.7 23.61-7.35 33.25 1.27.64 3.49 2.53 4.35 3.57 7.19-10.36 8.37-25.85 8.37-36.74v-1.42h15.18c-.32 14.3-.72 19.42-1.82 20.69-.56.72-1.34.79-2.45.79-1.42 0-4.91 0-8.69-.31.86 1.34 1.42 3.31 1.5 4.89 3.88.24 7.5.24 9.56.08 2.13-.23 3.4-.7 4.5-2.2 1.66-1.99 2.13-8.53 2.54-26.39v-2.38h-20.32v-10.66h28.21c.95 12.96 2.84 24.49 5.92 33.57-5.28 6.09-11.53 11.06-18.72 14.86 1.19 1.03 3 3.15 3.8 4.26 6.39-3.72 12-8.22 16.9-13.51 3.71 8.29 8.53 13.36 14.61 13.36 5.77 0 7.74-3.96 8.69-17.14-1.34-.41-3.31-1.58-4.5-2.77-.47 10.5-1.5 14.61-3.8 14.61-4.26 0-8.04-4.66-11.06-12.72 5.86-7.5 10.44-16.42 13.83-26.7l-5.13-1.35M2226.55 1460.35c-2.06-4.42-5.38-9.95-9.33-15.72 3.88-9.97 6.64-21.81 8.14-35.73l-3.39-.94-.87.23h-25.83v4.97h24.48c-1.26 9.66-3.39 18.5-6.15 26.25-4.27-6.09-9.1-12.25-13.52-17.54l-3.86 2.92c5.05 6.09 10.34 13.44 15.08 20.39-4.81 10.98-11.06 19.45-18.25 24.67 1.34.86 3 2.92 3.8 4.11 6.95-5.55 13.11-13.28 17.86-23.56 3.15 4.98 5.76 9.64 7.42 13.43l4.42-3.48m29.7-47.19c-2.06 13.21-6 24.36-11.22 33.28-4.26-9.4-7.18-20.78-9-33.28h20.22m2.36-5.2l-.86.23h-28.83v4.97h2.13c2.22 14.78 5.61 27.83 10.75 38.42-5.61 8.15-12.49 14.07-20.16 17.94 1.27 1.03 2.85 3.17 3.57 4.44 7.26-4.03 13.82-9.66 19.43-17.08 4.42 7.35 10.03 13.2 17.14 17.39.86-1.42 2.44-3.4 3.78-4.5-7.42-3.95-13.18-10.04-17.6-17.72 6.87-10.9 11.84-25.12 14.06-43.15l-3.41-.94" class="prefix__Lyrics" />
   <path d="M289.861 20.802h-3.297v44.969c-1.141-.672-2.516-1.094-4.094-1.266a12.674 12.674 0 00-1.344-.062c-2.719 0-5.656.781-8.39 2.265-3.188 1.719-5.75 4.188-7.172 6.922-1.453 2.766-1.594 5.469-.422 7.641 1.375 2.578 4.39 3.906 7.937 3.906 2.641 0 5.594-.734 8.407-2.25 5.14-2.781 8.359-7.375 8.375-11.375v-50.75M311.439 73.13h30.234v-6.906h-30.234v6.906m0-12.359h30.234v-6.907h-30.234v6.907m74.109-6.782c1.75-.656 2.594-1.078 3.422-1.687 2.344-1.609 3.672-4.078 3.672-6.891 0-5.531-5.235-9.25-13.031-9.25-9.297 0-15.297 4.985-15.297 12.782 0 4.75 2.218 8.218 6.968 10.75-1.859.593-2.64.828-3.671 1.375-3 1.562-4.61 4.312-4.61 7.796 0 6.485 5.813 10.625 14.938 10.625 9.656 0 16.203-5.531 16.203-13.75 0-5.64-2.766-9.359-8.594-11.75m-3.359-1.265c-2.516-.594-4.375-1.141-5.516-1.563-2.75-1.015-4.562-3.468-4.562-6.109 0-3.313 2.765-5.766 6.484-5.766 4.016 0 6.547 2.641 6.547 6.844 0 2.703-1.031 4.984-2.953 6.594m-7.672 8.578c2.453.672 5.453 1.562 6.953 2.047 3.781 1.312 5.219 2.937 5.219 6 0 4.078-3.36 7.015-8.094 7.015-4.859 0-7.797-2.875-7.797-7.671 0-3.188 1.016-5.219 3.719-7.391m38.078-25.141c-9 0-15.594 9.188-15.594 21.672 0 12.469 6.594 21.656 15.594 21.656 8.812 0 15.547-9.187 15.547-21.359 0-7.078-1.625-12.297-5.172-16.75-2.813-3.406-6.359-5.219-10.375-5.219m-.063 3.125c1.797 0 3.25 1.078 3.907 3 .781 1.985 1.25 8.282 1.25 15.719 0 6.188-.469 12.656-1.016 14.703-.656 2.391-2.094 3.656-4.141 3.656-1.859 0-3.234-1.015-3.953-3-.781-1.984-1.265-8.343-1.265-15.531 0-6.312.484-12.844 1.015-14.89.672-2.391 2.11-3.657 4.203-3.657" class="prefix__Tempo" />
   <path d="M991.16 215.063a4.955 4.955 0 004.96 4.96 4.955 4.955 0 004.961-4.96 4.955 4.955 0 00-4.96-4.96 4.955 4.955 0 00-4.961 4.96M1605.56 190.26a4.955 4.955 0 004.96 4.96 4.955 4.955 0 004.961-4.96 4.955 4.955 0 00-4.96-4.96 4.955 4.955 0 00-4.961 4.96M896.02 573.41a4.955 4.955 0 004.96 4.96 4.955 4.955 0 004.961-4.96 4.955 4.955 0 00-4.96-4.96 4.955 4.955 0 00-4.961 4.96M1497.23 573.41a4.955 4.955 0 004.96 4.96 4.955 4.955 0 004.961-4.96 4.955 4.955 0 00-4.96-4.96 4.955 4.955 0 00-4.961 4.96M231.248 951.75a4.955 4.955 0 004.96 4.96 4.955 4.955 0 004.961-4.96 4.955 4.955 0 00-4.96-4.96 4.955 4.955 0 00-4.961 4.96M1116.01 902.14a4.955 4.955 0 004.96 4.96 4.955 4.955 0 004.961-4.96 4.955 4.955 0 00-4.96-4.96 4.955 4.955 0 00-4.961 4.96M2277.73 951.75a4.955 4.955 0 004.96 4.96 4.955 4.955 0 004.961-4.96 4.955 4.955 0 00-4.96-4.96 4.955 4.955 0 00-4.961 4.96M901.85 1330.09a4.955 4.955 0 004.96 4.96 4.955 4.955 0 004.961-4.96 4.955 4.955 0 00-4.96-4.96 4.955 4.955 0 00-4.961 4.96M1501.77 1280.49a4.955 4.955 0 004.96 4.96 4.955 4.955 0 004.961-4.96 4.955 4.955 0 00-4.96-4.96 4.955 4.955 0 00-4.961 4.96" class="prefix__NoteDot" />
</svg>