<svg xmlns="http://www.w3.org/2000/svg" viewBox="0 0 2600 400" height="80" width="520">
   <path class="prefix__StaffLines" fill="none" stroke="#000" stroke-width="2.73" stroke-linejoin="bevel" d="M30.695 98.46h2551.182M30.695 123.26h2551.182M30.695 148.06h2551.182M30.695 172.87h2551.182M30.695 197.67h2551.182" />
   <path class="prefix__MeasureNumber" d="M35.18 33.54c-1.25.75-1.61 1.23-1.61 2.03 0 .76.64 1.33 1.438 1.33 1.047 0 1.64-.77 1.766-2.25 1.234-1 2.562-1.44 4.156-1.44 2.969 0 4.609 1.84 4.609 5.16 0 5.2-3.36 9.43-7.484 9.43-2.36 0-4.281-1.11-4.281-2.43 0-.24.046-.32.234-.44 1.047-.49 1.047-.49 1.328-.67.64-.49 1-1.21 1-2.05 0-1.28-1-2.23-2.406-2.23-1.75 0-3.078 1.46-3.078 3.39 0 3.53 3.047 6.07 7.328 6.07 6.469 0 11.719-5.15 11.719-11.54 0-4.05-3.08-6.89-7.438-6.89-1.734 0-3.125.36-5.047 1.32l2.235-7.56c2.125.44 3.812.64 5.25.64 2.64 0 5-.84 6.312-2.23.688-.8 1.078-1.49 1.078-2 0-.25-.125-.49-.281-.49-.11 0-.203.05-.438.16-1.312.64-3 1-4.562 1-2.391 0-5.234-.39-8.188-1.16l-3.64 12.85" />
   <path class="prefix__BarLine" fill="none" stroke="#000" stroke-width="4.46" stroke-linejoin="bevel" d="M745.346 97.09v101.94M1280.807 97.09v101.94M2129.097 97.09v101.94M2579.647 97.09v101.94" />
   <path class="prefix__LedgerLine" fill="none" stroke="#000" stroke-width="3.97" stroke-linejoin="bevel" d="M1087.527 222.47h49.6M1330.587 222.47h49.59M1429.037 247.28h49.6M1429.037 222.47h49.6M1822.837 222.47h49.6M1921.287 222.47h49.6M2019.737 247.28h49.6M2019.737 222.47h49.6M2177.877 247.28h49.6M2177.877 222.47h49.6M2310.327 247.28h49.6M2310.327 222.47h49.6" />
   <path class="prefix__Stem" fill="none" stroke="#000" stroke-width="2.73" stroke-linejoin="bevel" d="M251.839 206.9v-83.64M387.66 169.69V98.46M523.482 169.69V98.46M689.097 194.49v-71.23M828.677 206.9v-83.64M961.307 194.49v-71.23M1044.197 206.9v-83.64M1127.087 219.3v-83.64M1370.137 219.3v-96.04M1468.587 244.1V117.06M1567.037 194.49v-83.63M1665.487 194.49v-89.83M1763.937 206.9v-77.44M1862.387 219.3v-81.57M1960.837 219.3V146M2059.287 244.1v-89.84M2217.427 256.5V148.06M2349.877 256.5V148.06" />
   <path class="prefix__Note" d="M252.219 202.04c-1.783-3.286-5.55-5.07-10.123-5.07-3.364 0-7.038.993-10.619 2.884-6.542 3.473-10.51 9.317-10.51 14.386 0 1.38.294 2.775.992 4.062 1.783 3.27 5.55 4.96 10.123 4.96 3.364 0 7.038-.883 10.619-2.775 6.541-3.472 10.51-9.332 10.51-14.385 0-1.396-.295-2.775-.992-4.062M388.04 164.84c-1.783-3.286-5.55-5.07-10.123-5.07-3.364 0-7.038.993-10.619 2.884-6.542 3.473-10.51 9.317-10.51 14.386 0 1.38.294 2.775.992 4.062 1.783 3.27 5.55 4.96 10.123 4.96 3.364 0 7.038-.883 10.619-2.775 6.541-3.472 10.51-9.332 10.51-14.386 0-1.395-.295-2.774-.992-4.061M523.862 164.84c-1.783-3.286-5.55-5.07-10.123-5.07-3.364 0-7.038.993-10.619 2.884-6.542 3.473-10.51 9.317-10.51 14.386 0 1.38.294 2.775.992 4.062 1.783 3.27 5.55 4.96 10.123 4.96 3.364 0 7.038-.883 10.619-2.775 6.541-3.472 10.51-9.332 10.51-14.386 0-1.395-.295-2.774-.992-4.061M689.477 189.64c-1.783-3.286-5.55-5.07-10.123-5.07-3.364 0-7.038.993-10.619 2.884-6.542 3.473-10.51 9.317-10.51 14.386 0 1.38.294 2.775.992 4.062 1.783 3.27 5.55 4.96 10.123 4.96 3.364 0 7.038-.883 10.619-2.775 6.541-3.472 10.51-9.332 10.51-14.385 0-1.396-.295-2.775-.992-4.062M829.056 202.04c-1.783-3.286-5.55-5.07-10.123-5.07-3.364 0-7.038.993-10.619 2.884-6.542 3.473-10.51 9.317-10.51 14.386 0 1.38.294 2.775.992 4.062 1.783 3.27 5.55 4.96 10.123 4.96 3.364 0 7.038-.883 10.619-2.775 6.541-3.472 10.51-9.332 10.51-14.385 0-1.396-.295-2.775-.992-4.062M961.679 189.64c-1.783-3.286-5.55-5.07-10.123-5.07-3.364 0-7.038.993-10.619 2.884-6.542 3.473-10.51 9.317-10.51 14.386 0 1.38.294 2.775.992 4.062 1.783 3.27 5.55 4.96 10.123 4.96 3.364 0 7.038-.883 10.619-2.775 6.541-3.472 10.51-9.332 10.51-14.385 0-1.396-.295-2.775-.992-4.062M1044.569 202.04c-1.783-3.286-5.55-5.07-10.123-5.07-3.364 0-7.038.993-10.619 2.884-6.542 3.473-10.51 9.317-10.51 14.386 0 1.38.294 2.775.992 4.062 1.783 3.27 5.55 4.96 10.123 4.96 3.364 0 7.038-.883 10.619-2.775 6.541-3.472 10.51-9.332 10.51-14.385 0-1.396-.295-2.775-.992-4.062M1127.469 214.44c-1.783-3.286-5.55-5.07-10.123-5.07-3.364 0-7.038.993-10.619 2.884-6.542 3.473-10.51 9.317-10.51 14.386 0 1.38.294 2.775.992 4.062 1.783 3.27 5.55 4.96 10.123 4.96 3.364 0 7.037-.883 10.618-2.775 6.542-3.472 10.51-9.332 10.51-14.386 0-1.395-.294-2.774-.991-4.061M1370.519 214.44c-1.783-3.286-5.55-5.07-10.123-5.07-3.364 0-7.038.993-10.619 2.884-6.542 3.473-10.51 9.317-10.51 14.386 0 1.38.294 2.775.992 4.062 1.783 3.27 5.55 4.96 10.123 4.96 3.364 0 7.038-.883 10.619-2.775 6.541-3.472 10.51-9.332 10.51-14.386 0-1.395-.295-2.774-.992-4.061M1468.969 239.25c-1.783-3.286-5.55-5.07-10.123-5.07-3.364 0-7.038.993-10.619 2.884-6.542 3.473-10.51 9.317-10.51 14.386 0 1.38.294 2.775.992 4.062 1.783 3.27 5.55 4.96 10.123 4.96 3.364 0 7.037-.883 10.618-2.775 6.542-3.472 10.51-9.332 10.51-14.386 0-1.395-.294-2.774-.991-4.061M1567.419 189.64c-1.783-3.286-5.55-5.07-10.123-5.07-3.364 0-7.038.993-10.619 2.884-6.542 3.473-10.51 9.317-10.51 14.386 0 1.38.294 2.775.992 4.062 1.783 3.27 5.55 4.96 10.123 4.96 3.364 0 7.038-.883 10.619-2.775 6.541-3.472 10.51-9.332 10.51-14.385 0-1.396-.295-2.775-.992-4.062M1665.869 189.64c-1.783-3.286-5.55-5.07-10.123-5.07-3.364 0-7.038.993-10.619 2.884-6.542 3.473-10.51 9.317-10.51 14.386 0 1.38.294 2.775.992 4.062 1.783 3.27 5.55 4.96 10.123 4.96 3.364 0 7.038-.883 10.619-2.775 6.541-3.472 10.51-9.332 10.51-14.385 0-1.396-.295-2.775-.992-4.062M1764.319 202.04c-1.783-3.286-5.55-5.07-10.123-5.07-3.364 0-7.038.993-10.619 2.884-6.542 3.473-10.51 9.317-10.51 14.386 0 1.38.294 2.775.992 4.062 1.783 3.27 5.55 4.96 10.123 4.96 3.364 0 7.038-.883 10.619-2.775 6.541-3.472 10.51-9.332 10.51-14.385 0-1.396-.295-2.775-.992-4.062M1862.769 214.44c-1.783-3.286-5.55-5.07-10.123-5.07-3.364 0-7.038.993-10.619 2.884-6.542 3.473-10.51 9.317-10.51 14.386 0 1.38.294 2.775.992 4.062 1.783 3.27 5.55 4.96 10.123 4.96 3.364 0 7.038-.883 10.619-2.775 6.541-3.472 10.51-9.332 10.51-14.386 0-1.395-.295-2.774-.992-4.061M1961.219 214.44c-1.783-3.286-5.55-5.07-10.123-5.07-3.364 0-7.038.993-10.619 2.884-6.542 3.473-10.51 9.317-10.51 14.386 0 1.38.294 2.775.992 4.062 1.783 3.27 5.55 4.96 10.123 4.96 3.364 0 7.037-.883 10.618-2.775 6.542-3.472 10.51-9.332 10.51-14.386 0-1.395-.294-2.774-.991-4.061M2059.669 239.25c-1.783-3.286-5.55-5.07-10.123-5.07-3.364 0-7.038.993-10.619 2.884-6.542 3.473-10.51 9.317-10.51 14.386 0 1.38.294 2.775.992 4.062 1.783 3.27 5.55 4.96 10.123 4.96 3.364 0 7.038-.883 10.619-2.775 6.541-3.472 10.51-9.332 10.51-14.386 0-1.395-.295-2.774-.992-4.061M2217.809 251.65c-1.783-3.286-5.55-5.07-10.123-5.07-3.364 0-7.038.993-10.619 2.884-6.542 3.473-10.51 9.317-10.51 14.386 0 1.38.294 2.775.992 4.062 1.783 3.27 5.55 4.96 10.123 4.96 3.364 0 7.037-.883 10.618-2.775 6.542-3.472 10.51-9.332 10.51-14.386 0-1.395-.294-2.774-.991-4.061M2350.259 251.65c-1.783-3.286-5.55-5.07-10.123-5.07-3.364 0-7.038.993-10.619 2.884-6.542 3.473-10.51 9.317-10.51 14.386 0 1.38.294 2.775.992 4.062 1.783 3.27 5.55 4.96 10.123 4.96 3.364 0 7.037-.883 10.618-2.775 6.542-3.472 10.51-9.332 10.51-14.386 0-1.395-.294-2.774-.991-4.061" />
   <path class="prefix__Clef" d="M113.398 166.995c-1.224-5.38-3.844-9.177-4.62-10.2-3.162-4.248-7.146-7.07-11.796-8.418-3.085-.868-6.062-.992-8.464-.806a2314.064 2314.064 0 01-2.93-17.207c5.41-6.124 9.006-11.875 11.27-16.138 3.441-6.526 4.573-11.068 4.635-11.27 1.705-5.178 2.061-12.82.96-20.959-.991-7.487-3.069-14.152-5.41-17.377-1.007-1.41-2.061-2.14-3.084-2.14-1.21 0-3.705 1.225-6.573 3.984-2.279 2.17-5.519 6.03-8.061 11.999-2.977 7.007-3.194 16.417-2.837 23.082.372 7.224 1.473 12.867 1.488 12.914.015.093.28 1.58.713 4.123-.217.233-.465.45-.713.698-1.023.992-2.201 2.108-3.58 3.488-.853.852-1.799 1.751-2.791 2.713-8.371 8.076-21.067 20.307-21.067 39.312 0 4.667.899 9.054 2.666 13.038 1.566 3.565 3.845 6.82 6.759 9.673 7.673 7.503 18.184 10.68 25.175 10.526 2.93-.078 5.55-.31 7.922-.76 1.813 9.534 2.945 16.51 2.976 21.811.047 6.465-1.597 10.418-5.457 13.162-2.418 1.72-5.208 2.666-8.278 2.805-2.573.124-4.82-.34-6.232-.744h-.016s-.279-.093-.294-.279c-.015-.186.341-.232.341-.232h.031c1.907-.434 5.441-1.659 7.782-4.93 1.783-2.511 2.65-7.1.822-11.006-1.101-2.372-3.581-5.302-9.162-5.751-2.48-.202-4.728.31-6.712 1.503-1.799 1.07-3.287 2.698-4.326 4.682-2.433 4.666-1.984 10.355 1.117 14.169 2.945 3.596 7.518 5.89 12.913 6.464.852.093 1.69.124 2.527.124 4.402 0 8.758-1.194 12.308-3.38 3.628-2.557 5.736-6.51 6.402-12.091.559-4.604.171-10.48-1.209-18.494-.356-2.077-.899-5.085-1.55-8.805 5.705-1.907 9.828-5.457 13.564-11.27 3.271-5.69 4.201-11.75 2.79-18.013m-33.949 26.012c-4.604-1.21-9.006-3.69-12.727-7.177-1.302-1.21-3.162-3.364-4.62-6.728-1.348-3.147-2.015-6.558-1.953-10.107.062-4.667 1.365-9.457 3.845-14.2 2.899-5.535 7.425-11.022 13.44-16.308a89.24 89.24 0 004.077-3.814c.76 4.232 1.581 8.883 2.45 13.72-3.814 1.255-8.527 4.386-11.612 9.998-3.518 6.511-3.379 11.999-2.65 15.456.93 4.418 3.441 8.154 6.867 10.231.93.558 5.023 2.666 6.852 2.093a1.16 1.16 0 00.775-.667c.512-1.163-.512-1.798-2.046-2.744a27.29 27.29 0 01-1.985-1.317c-3.301-2.465-4.743-6.883-3.673-11.24a12.437 12.437 0 013.673-6.216c1.644-1.534 3.674-2.62 6.03-3.255 2.031 11.161 4.078 22.23 5.705 30.523.124.682.264 1.349.388 2.016-4.34.93-8.65.837-12.836-.264m11.24-32.942c10.262-.465 14.494 6.914 15.377 11.704.465 2.527.465 6.93-1.07 11.115-1.162 3.147-3.596 7.193-8.696 9.24-.062-.42-.14-.853-.217-1.272-1.535-8.712-3.457-19.625-5.395-30.787m-7.27-70.394c1.767-5.69 4.48-8.914 6.464-10.634 1.736-1.504 3.364-2.217 4.279-2.217.14 0 .263.03.356.062.465.14.992.697 1.457 1.565 2.295 4.248 1.55 10.914.217 15.316-1.612 5.364-4.51 10.93-13.238 20.463-.17-1.1-.326-2.14-.48-3.116-1.24-8.216-.915-15.44.945-21.44" />
   <path class="prefix__KeySig" d="M158.757 140.216c-.589-3.86-2.976-7.534-8.03-7.534-4.96 0-7.844 3.07-8.34 3.674l.403-31.857c0-.79-.589-1.38-1.395-1.38h-1.178c-.806 0-1.395.59-1.395 1.38l.496 59.637c0 .79.589 1.38 1.395 1.38.186 0 .589-.094.79-.187.388-.201 6.837-3.38 12.2-9.425 3.768-4.279 5.256-9.13 5.256-13.208 0-.883-.093-1.674-.202-2.48m-6.836 3.875c0 1.489-.403 6.046-2.883 9.829-1.69 2.573-5.054 5.255-6.945 6.743l.294-19.346c.202-.9 1.69-3.767 5.658-3.767 3.581 0 3.876 3.364 3.876 5.456v1.085" />
   <path class="prefix__Beam" fill-rule="evenodd" d="M250.475 117.45l138.549-25.3v12.61l-138.55 25.3v-12.61M522.118 91.78l168.343 25.21v12.54l-168.343-25.21V91.78M690.46 135.59l-32.243-4.83v12.54l32.244 4.83v-12.54M827.317 117.06h218.24v12.4h-218.24v-12.4M959.937 135.66h85.62v12.4h-85.62v-12.4M1368.777 117.22l298.08-18.78v12.43l-298.08 18.77v-12.42M1368.777 135.82l298.08-18.77v12.42l-298.08 18.78v-12.43M1762.577 123.01l298.08 25.03v12.45l-298.08-25.04v-12.44M1762.577 141.61l298.08 25.03v12.45l-298.08-25.03v-12.45" />
   <path class="prefix__Hook" d="M2219.54 151.532c-.094-.294-.993-3.767-.993-3.968-.093-.403-.698-.698-1.194-.698-.697 0-1.286.605-1.286 1.287v22.431c0 .496.403.884.79 1.086 4.17 1.286 12.805 6.758 19.254 17.765 1.782 3.07 4.666 7.24 4.666 15.58 0 7.146-1.1 14.68-2.884 21.624-.294 1.101-.589 2.093.496 2.48 1.086.404 1.489-.387 1.892-1.379 3.565-8.743 4.464-17.874 4.464-24.012v-1.892c-.496-12.804-7.844-22.23-7.844-22.23.295 0-9.13-12.2-11.812-16.37-3.659-5.658-5.457-11.3-5.55-11.704" />
   <path class="prefix__Lyrics" d="M210.225 339.12v-22.04h5.922v21.58h-.234v.46h-5.688m15.64 0h-5.53v-.46h-.313v-21.58h5.844v22.04m-1.812 9.57c.78 2.45 1.578 5.14 2.203 7.9l-5.922.88v-14h9.406v-30.74h-9.328v-13.84h-4.578v13.84h-9.797v36.43h4.187v-5.69h5.688v14.69c-5.22.87-9.953 1.57-13.672 2.14l1.03 4.81c6.564-1.11 15.25-2.69 23.86-4.27.313 2.07.548 3.88.626 5.53l3.953-1.03c-.391-4.81-1.97-12-4.031-17.61l-3.625.96m35.859 13.5v-19.91h7.266v19.91h-7.266m-21.25-19.91h6.797v19.91h-6.797v-19.91m6.797-22.52v18.1h-6.797v-18.1h6.797m10.656 22.52v19.91h-6.875v-19.91h6.875m-6.875-4.42v-18.1h6.875v18.1h-6.875m17.938 0h-7.266v-18.1h7.266v18.1m-6.641-22.67v-16.55h-4.422v16.55h-6.953V298.8h-4.422v16.39h-10.422v55.79h4.344v-5h28.516v5h4.5v-55.79h-11.141M346.047 339.12v-22.04h5.922v21.58h-.235v.46h-5.687m15.64 0h-5.531v-.46h-.312v-21.58h5.843v22.04m-1.812 9.57c.78 2.45 1.578 5.14 2.203 7.9l-5.922.88v-14h9.406v-30.74h-9.328v-13.84h-4.578v13.84h-9.797v36.43h4.188v-5.69h5.687v14.69c-5.218.87-9.953 1.57-13.672 2.14l1.032 4.81c6.562-1.11 15.25-2.69 23.859-4.27.313 2.07.547 3.88.625 5.53l3.953-1.03c-.39-4.81-1.97-12-4.031-17.61l-3.625.96m35.859 13.5v-19.91H403v19.91h-7.266m-21.25-19.91h6.797v19.91h-6.797v-19.91m6.797-22.52v18.1h-6.797v-18.1h6.797m10.656 22.52v19.91h-6.875v-19.91h6.875m-6.875-4.42v-18.1h6.875v18.1h-6.875m17.938 0h-7.266v-18.1H403v18.1m-6.641-22.67v-16.55h-4.422v16.55h-6.953V298.8h-4.422v16.39H370.14v55.79h4.343v-5H403v5h4.5v-55.79h-11.141M519.806 302.05v58.64c0 7.34 1.75 9.32 7.828 9.32h9.64c6.469 0 7.657-4.82 8.204-19.28-1.422-.25-3.47-1.26-4.891-2.37-.312 13.28-.797 16.67-3.641 16.67h-8.687c-2.61 0-3.156-.62-3.156-4.27v-58.71h-5.297m-29.22.07v25.52c0 14.31-1.905 28.94-17.936 39.28 1.265.95 3 2.94 3.718 4.05 17.375-11.31 19.344-27.36 19.344-43.33v-25.52h-5.125M802.25 311v35.08h-14.374V311h14.375m5.062-4.89h-24.328v52.14h4.89v-7.28h19.438v-44.86m32.064-6.6v44.35l-17.69 4.11v-42.03h-5.296v39.65c0 3.33-2.765 5.22-4.344 6.02.875 1.11 2.14 3.15 2.61 4.42 1.656-1.19 4.27-2.12 24.72-7.27v22.22h5.37v-71.47h-5.37M930.767 300.39c-1.5 2.94-3.7 5.95-6.16 8.87-2.04-2.84-4.5-5.7-7.57-8.46l-3.64 2.84c3.31 3.09 5.84 6.17 7.82 9.33-3.56 3.79-7.51 7.11-11.06 9.33 1.03 1.18 2.45 3.31 3.16 4.73 3.31-2.44 6.95-5.69 10.34-9.39 1.5 3.39 2.38 6.78 2.92 10.27-3.54 7.34-9.95 15.25-15.95 19.18 1.19 1.19 2.53 3.17 3.23 4.6 4.75-3.8 9.72-9.64 13.6-15.8.08 1.66.08 3.47.08 5.12 0 10.11-.71 19.52-2.69 22.13-.55.78-1.42 1.19-2.53 1.34-1.74.16-4.66.16-8.28-.07.93 1.42 1.57 3.39 1.57 5.12 3.16.17 6.24.17 8.77-.31 1.89-.31 3.39-1.11 4.34-2.46 3.08-4.18 3.88-14.45 3.88-25.67 0-9.72-.8-18.79-5.38-27.48 3-3.56 5.69-7.19 7.58-10.6l-4.03-2.62m41.64 46.23h-12.87v-9h12.87v9m-12.87-22.43h12.87v8.61h-12.87v-8.61m4.81-14.07c-1.66 3.18-3.8 6.8-5.77 9.33h-15.87c2.36-2.84 4.58-6 6.54-9.33h15.1m18.87 22.68h-5.84v-13.35h-13.34c2.76-3.56 5.68-7.98 7.57-11.76l-3.54-2.46-.8.32h-15.41c.88-1.74 1.74-3.49 2.54-5.32l-5.07-1.42c-3.62 8.72-9.7 17.25-16.18 22.77 1.1 1.03 2.84 3.33 3.46 4.36 1.19-1.03 2.3-2.22 3.49-3.49v1.74h14.37v8.61h-19.28v4.82h19.28v9h-15.4v4.74h15.4v13.12c0 1.19-.31 1.43-1.57 1.5-1.11 0-5.15 0-9.49-.07.72 1.42 1.5 3.46 1.74 4.89 5.7 0 9.32-.08 11.54-.86 2.05-.8 2.85-2.22 2.85-5.38v-13.2h12.87v3.25h4.97v-16.99h5.84v-4.82M1096.547 300.39c-1.5 2.94-3.7 5.95-6.15 8.87-2.05-2.84-4.5-5.7-7.58-8.46l-3.64 2.84c3.31 3.09 5.84 6.17 7.83 9.33-3.57 3.79-7.52 7.11-11.07 9.33 1.03 1.18 2.46 3.31 3.16 4.73 3.31-2.44 6.95-5.69 10.34-9.39 1.5 3.39 2.38 6.78 2.93 10.27-3.55 7.34-9.96 15.25-15.96 19.18 1.19 1.19 2.53 3.17 3.24 4.6 4.75-3.8 9.72-9.64 13.59-15.8.08 1.66.08 3.47.08 5.12 0 10.11-.7 19.52-2.69 22.13-.55.78-1.42 1.19-2.53 1.34-1.73.16-4.66.16-8.28-.07.94 1.42 1.58 3.39 1.58 5.12 3.15.17 6.23.17 8.76-.31 1.89-.31 3.39-1.11 4.35-2.46 3.07-4.18 3.87-14.45 3.87-25.67 0-9.72-.8-18.79-5.37-27.48 3-3.56 5.68-7.19 7.57-10.6l-4.03-2.62m41.64 46.23h-12.87v-9h12.87v9m-12.87-22.43h12.87v8.61h-12.87v-8.61m4.81-14.07c-1.66 3.18-3.8 6.8-5.76 9.33h-15.88c2.36-2.84 4.58-6 6.55-9.33h15.09m18.88 22.68h-5.85v-13.35h-13.34c2.76-3.56 5.69-7.98 7.58-11.76l-3.55-2.46-.8.32h-15.4c.87-1.74 1.73-3.49 2.53-5.32l-5.06-1.42c-3.63 8.72-9.71 17.25-16.19 22.77 1.11 1.03 2.84 3.33 3.47 4.36 1.18-1.03 2.29-2.22 3.48-3.49v1.74h14.38v8.61h-19.29v4.82h19.29v9h-15.41v4.74h15.41v13.12c0 1.19-.32 1.43-1.58 1.5-1.11 0-5.14 0-9.49-.07.72 1.42 1.5 3.46 1.74 4.89 5.7 0 9.33-.08 11.54-.86 2.05-.8 2.85-2.22 2.85-5.38v-13.2h12.87v3.25h4.97v-16.99h5.85v-4.82M1344.277 320c-1.19 10.59-3.64 19.44-7.11 26.7-3-2.45-6.25-4.73-9.41-6.79a339.31 339.31 0 004.81-19.91h11.71m2.28-5.05l-.94.16h-12.02c1.11-5.45 2.07-10.99 2.69-15.91l-5.06-.31c-.63 4.92-1.58 10.61-2.67 16.22h-8.61V320h7.65c-1.73 8.22-3.79 16.2-5.68 21.97 4.18 2.69 8.68 6 12.79 9.48-4.26 6.94-9.64 12-15.95 15.16 1.19.95 2.61 2.84 3.31 4.11 6.64-3.63 12.25-8.77 16.6-15.88 3.47 3.08 6.39 6.08 8.37 8.77l3.55-4.42c-2.13-2.77-5.45-5.93-9.24-9.16 4.27-8.78 7.11-20 8.46-34.3l-3.25-.78m45.26 17.46h-17.68v-7.99c5.53-4.73 11.29-11.37 15.07-17.22l-3.62-2.61-1.27.33h-30.5v4.81h26.86c-3.15 4.66-7.73 9.96-11.92 13.36v9.32h-18.56v4.98h18.56v27.02c0 1.09-.39 1.5-1.73 1.57-1.19 0-5.46 0-10.29-.07.8 1.42 1.75 3.54 2.07 4.96 6.08.08 9.72-.07 12.08-.86 2.37-.87 3.25-2.37 3.25-5.6v-27.02h17.68v-4.98M1527.397 361.56v-33.03h19.82v-5.12h-19.82v-23.74h-5.44v60.06c0 3.33-1.91 5.07-3.02 5.86.88.94 2.14 3.24 2.61 4.58 1.66-1.34 4.42-2.53 26-9.41-.25-1.26-.4-3.54-.33-5.21l-19.82 6.01m36.11 2.2c-3.65 0-4.35-.78-4.35-5.29V334.7c8.69-4.83 18.08-10.59 24.72-16.36l-4.34-4.51c-4.82 4.9-12.72 10.84-20.38 15.42v-30.13h-5.45v59.27c0 8.14 2.05 10.36 9.31 10.36h12.41c7.75 0 9.17-5.3 9.87-20.86-1.5-.31-3.7-1.42-5.04-2.45-.57 14.62-1.11 18.32-5.22 18.32h-11.53M1632.357 339.98c.63-4.26 1.1-8.84 1.42-13.73h12.08c0 5.2-.08 9.8-.15 13.73h-13.35m13.66-32.29l-.08 13.81h-11.92c.23-4.42.31-8.92.39-13.81h11.61m5.22-4.83h-35v4.83h12.95c-.08 4.81-.16 9.39-.31 13.81h-11.46v4.75h11.22c-.31 4.89-.72 9.47-1.42 13.73h-10.5v4.75h9.63c-1.97 9-5.28 16.5-10.82 22.28 1.19.79 3.47 2.85 4.27 3.8 6.16-7.05 9.72-15.65 11.69-26.08h14.14c-.31 11.77-.88 16.83-1.74 18.41-.72 1.11-1.42 1.34-2.68 1.34-1.43 0-4.75 0-8.46-.32.94 1.59 1.42 3.87 1.5 5.53 3.47.17 7.03.32 9.32 0s3.71-1.02 5.06-3.24c2.37-3.62 2.37-17.06 2.61-60.59v-3m31.36.08l-.88.25h-23.45v67.54h4.97v-62.57h15.97c-2.69 6.15-6.57 14.53-10.29 21.25 8.69 7.18 11.38 12.95 11.38 18.01 0 2.77-.55 5.28-2.44 6.24-1.19.54-2.61.87-4.03.87-2.06.16-4.91.16-7.83-.16.88 1.5 1.5 3.55 1.66 4.97 2.61.24 5.76.24 8.22 0 2.06-.23 3.95-.78 5.37-1.73 2.85-1.66 4.11-5.3 4.03-9.8 0-5.53-2.37-11.61-10.9-19.11 4.03-7.28 8.45-16.12 11.84-23.31l-3.62-2.45M1746.187 324.11h-12.56v-6.7h10.5v-4.11h-10.5v-6.57h12v-4.26h-30.33v4.26h13.34v6.57h-11.3v4.11h11.3v6.7h-13.73v4.26h31.28v-4.26m22.83 24.89h-45.11v4.66h40.61c-4.11 4.59-9.57 10.45-14.3 15.28l4.58 2.29c6.23-6.5 13.73-14.56 18.87-20.5l-3.79-2.04-.86.31m-12.57-2.84c-1.73-2.54-5.53-6.18-9.07-8.69l-3.65 2.36c3.32 2.61 7.04 6.48 8.85 9.09l3.87-2.76m-3.39-17.46l-.56-.25h31.36v-4.26h-13.81v-7.03h11.53v-4.11h-11.53v-6.32h12.87v-4.26h-32v4.26h13.99v6.32h-11.61v4.11h11.61v7.03h-12.88v4.03l-3.56-1.58c-7.03 7.42-20.92 14.14-35.39 18.48 1.11 1.04 2.69 3 3.4 4.19 12.49-4.11 23.79-9.56 32.07-16.44 7.28 5.61 20.86 12.57 33.5 15.89.79-1.42 2.29-3.48 3.47-4.59-12.8-2.92-26.54-9-33.57-14.3l1.11-1.17M1916.427 337.78c.24-3.95.41-8.53.49-12.95h16.11v-22.21h-22.21v4.74h17.14V320h-15.64c0 7.19-.31 16.59-.78 22.44h16.42c-.86 14.93-1.65 20.78-3.15 22.2-.71.78-1.35.86-2.69.86-1.42 0-5.28 0-9.23-.39.93 1.42 1.5 3.48 1.57 5.14 3.8.16 7.66.23 9.57.08 2.28-.16 3.62-.72 4.89-2.22 2.14-2.36 3.07-9.31 4.11-27.95.07-.72.07-2.38.07-2.38h-16.67m64.86 29.7c-2.05-5.76-7.19-14.78-12.09-21.48l-4.35 1.81c2.38 3.39 4.83 7.42 6.88 11.3l-26.38 2.2c9.96-9.55 20.3-22.11 29.22-35.55l-4.89-2.59c-2.45 4.02-5.22 8.13-7.98 11.92l-15.49 1.11c4.5-5.53 9.18-12.56 12.96-19.51h22.04v-4.89h-22.51l4.34-1.91c-1.11-2.92-3.7-7.42-6.08-10.84l-4.5 1.59c2.13 3.48 4.66 8.14 5.77 11.16h-21.89v4.89h16.9c-3.7 7.34-8.6 14.37-10.34 16.36-1.81 2.28-3.31 3.93-4.66 4.26.55 1.25 1.35 3.78 1.66 4.81 1.42-.46 3.63-.87 18.09-2.04-5.93 7.5-11.45 13.5-13.75 15.87-3.64 3.78-6.15 6.24-8.21 6.71.71 1.34 1.65 3.95 1.89 5.06 2.22-.96 5.53-1.35 36.03-4.27 1.11 2.22 1.97 4.35 2.61 6.08l4.73-2.05M2055.617 302.05v58.64c0 7.34 1.75 9.32 7.83 9.32h9.64c6.46 0 7.65-4.82 8.2-19.28-1.42-.25-3.47-1.26-4.89-2.37-.31 13.28-.8 16.67-3.64 16.67h-8.69c-2.61 0-3.16-.62-3.16-4.27v-58.71h-5.29m-29.22.07v25.52c0 14.31-1.91 28.94-17.94 39.28 1.27.95 3 2.94 3.72 4.05 17.37-11.31 19.34-27.36 19.34-43.33v-25.52h-5.12M2201.487 333.98v12.8h-19.51c.23-2.36.31-4.66.31-6.7v-6.1h19.2m26.07 12.8h-20.93v-12.8h20.93v12.8m5.21-17.3h-55.68v10.5c0 8.3-1.27 19.53-9.72 27.69 1.11.78 3.23 2.53 3.95 3.64 5.84-5.7 8.69-12.98 9.95-19.95h46.29v3.97h5.21v-25.85m5.14-19.36v-4.57h-31.2v-6.89h-5.3v6.89h-30.81v4.57h30.81v8.3h-26.15V323h59.17v-4.58h-27.72v-8.3h31.2M2312.297 310.37v34.13h-7.67v-34.13h7.67m4.27-5.14h-16.13v52.16h4.19v-7.77h11.94v-44.39m18.95-3.64l-.7.25h-13.36v68.99h4.34V306.5h7.44c-1.27 5.92-3.02 12.87-4.99 19.98 4.58 7.43 6.41 12.33 6.41 16.99 0 2.53-.41 5.37-1.42 6.23-.49.49-1.19.64-2.06.64-.96.08-2.38.08-3.8-.08.72 1.19 1.11 3 1.19 4.27 1.5.08 3.15.08 4.34-.16 1.27-.07 2.53-.56 3.41-1.34 1.81-1.42 2.68-5.37 2.68-9.48 0-4.89-2.06-10.27-6.56-17.61 2.38-8.07 4.5-16.05 6.24-22.6l-3.16-1.75m16.59 20.32v22.98h-6.72v-22.98h6.72m3.96 27.79v-32.62h-14.47v38.15h3.79v-5.53h10.68m13.57-47.08h-29.37v5.07h20.92v55.84c0 1.19-.39 1.58-1.58 1.58-1.18.08-5.22.15-9.64 0 .64 1.42 1.5 3.72 1.67 5.14 5.52-.08 9.08-.16 11.21-1.03 2.06-.88 2.69-2.53 2.69-5.69v-55.84h4.1v-5.07" />
   <path class="prefix__NoteDot" d="M537.247 160.46a4.955 4.955 0 004.96 4.96 4.955 4.955 0 004.961-4.96 4.955 4.955 0 00-4.96-4.96 4.955 4.955 0 00-4.961 4.96M2363.647 259.68a4.955 4.955 0 004.96 4.96 4.955 4.955 0 004.961-4.96 4.955 4.955 0 00-4.96-4.96 4.955 4.955 0 00-4.961 4.96" />
</svg>