<svg xmlns="http://www.w3.org/2000/svg" version="1.2" viewBox="0 0 2800 1600" height="515" width="900">
   <path stroke-linejoin="bevel" stroke-width="2.73" stroke="#000" fill="none" class="prefix__StaffLines" d="M246.614 146.22H2673.78M246.614 171.024H2673.78M246.614 195.827H2673.78M246.614 220.63H2673.78M246.614 245.433H2673.78M122.598 466.28H2673.78M122.598 491.08H2673.78M122.598 515.88H2673.78M122.598 540.69H2673.78M122.598 565.49H2673.78M122.598 826.34H2673.78M122.598 851.14H2673.78M122.598 875.94H2673.78M122.598 900.75H2673.78M122.598 925.55H2673.78M122.598 1226.39H2673.78M122.598 1251.2H2673.78M122.598 1276H2673.78M122.598 1300.8H2673.78M122.598 1325.61H2673.78" />
   <path d="M127.083 401.36c-1.25.75-1.61 1.23-1.61 2.03 0 .77.641 1.33 1.438 1.33 1.047 0 1.641-.77 1.766-2.25 1.234-1 2.562-1.44 4.156-1.44 2.969 0 4.609 1.85 4.609 5.16 0 5.2-3.359 9.44-7.484 9.44-2.36 0-4.281-1.11-4.281-2.44 0-.24.046-.31.234-.44 1.047-.48 1.047-.48 1.328-.67.641-.49 1-1.2 1-2.05 0-1.28-1-2.23-2.406-2.23-1.75 0-3.078 1.47-3.078 3.39 0 3.53 3.047 6.08 7.328 6.08 6.469 0 11.719-5.16 11.719-11.55 0-4.05-3.079-6.89-7.438-6.89-1.734 0-3.125.36-5.047 1.33l2.235-7.57c2.125.44 3.812.64 5.25.64 2.64 0 5-.84 6.312-2.23.688-.8 1.078-1.48 1.078-2 0-.25-.125-.48-.281-.48-.109 0-.203.04-.438.15-1.312.64-3 1-4.562 1-2.391 0-5.234-.39-8.188-1.15l-3.64 12.84M138.317 763.06c-.687 3.15-1.406 5.08-2.562 7.31-1.953 3.64-4.032 5.28-6.844 5.28-1.156 0-1.906-.48-1.906-1.2 0-.28.078-.39.39-.88.407-.51.61-1 .61-1.56 0-1.31-1.047-2.31-2.407-2.31-1.593 0-2.718 1.19-2.718 2.95 0 2.72 2.562 4.67 6.125 4.67 3.187 0 6.156-1.39 8.593-4.18 3.485-3.89 5.75-9.69 5.75-14.61 0-6.24-3-9.96-7.953-9.96a9.729 9.729 0 00-7.562 3.6c-1.797 2.2-2.828 5-2.828 7.61 0 3.79 2.906 6.67 6.797 6.67 2.64 0 4.671-1.08 6.515-3.39m-2.953-12.8c2.547 0 4.188 2.03 4.188 5.24 0 4.95-2.719 8.59-6.391 8.59-2.531 0-3.922-1.72-3.922-4.72 0-2.36.563-4.48 1.641-6.28 1.203-1.92 2.64-2.83 4.484-2.83M139.958 1148.48h-1.156c-2.204 1.64-6.438 3.03-9.329 3.03l-.468 1.76h2.75c2.437 0 2.718.08 2.718.8 0 .36 0 .36-.39 1.8l-4.281 16c-.532 2-.563 2.12-.922 2.48-.407.39-1.25.52-3.36.56h-1.718l-.204 1.88h14.797l.235-1.88h-2.157c-2.593 0-3.156-.2-3.156-1.08 0-.28.156-1.2.36-1.96l6.281-23.39m17.234 13.75c1.891-.6 2.641-.93 3.61-1.57 1.875-1.23 3.031-3.43 3.031-5.67 0-3.8-3.031-6.36-7.516-6.36-4.359 0-8.047 2.72-8.047 6 0 1.64 1 2.77 2.532 2.77 1.312 0 2.281-.97 2.281-2.28 0-.69-.203-1.18-.844-1.8-.406-.38-.562-.64-.562-.92 0-.97 2-1.97 3.875-1.97 2.687 0 4.281 1.48 4.281 3.97 0 3.54-2.516 6.9-5.203 6.9-.11 0-.469-.03-.907-.07-1.171-.08-1.171-.08-1.406-.08-.875 0-1.359.4-1.359 1.12 0 .64.437 1.03 1.156 1.03.203 0 .484-.03.797-.07a8.865 8.865 0 011.531-.16c1.875 0 3.156 1.69 3.156 4.16 0 1.92-.437 3.76-1.328 5.28-1.187 2.15-3.031 3.2-5.64 3.2-2.235 0-4.157-1.13-4.157-2.41 0-.43.172-.59.797-.87 1.172-.52 1.641-1.24 1.641-2.31 0-1.41-1.109-2.49-2.547-2.49-1.719 0-2.844 1.36-2.844 3.44 0 3.87 2.953 6.31 7.75 6.31 6.047 0 10.641-4.03 10.641-9.39 0-1.44-.438-2.69-1.281-3.69-.875-1.03-1.672-1.51-3.438-2.07" class="prefix__MeasureNumber" />
   <path d="M1828.51 230.551c25.92 13.04 65.79.638 79.74-24.803-11.89 32.073-51.76 44.474-79.74 24.803M1987.99 230.551c16.95 22.283 56.82 28.483 79.74 12.402-23.99 22.944-63.86 16.743-79.74-12.402M2334.74 242.953c31.39 42.743 109.99 61.345 157.21 37.204-48.82 30.899-127.42 12.297-157.21-37.204M1132.19 587.81c16.36 21.64 55.03 27.84 77.34 12.41-23.4 22.29-62.08 16.09-77.34-12.41M1516.22 612.62c18.79 29.93 68.27 42.33 98.95 24.8-32.37 24.26-81.85 11.86-98.95-24.8M506.992 1009.88c18.945 11.6 51.182 5.4 64.473-12.4-11.979 24.62-44.216 30.82-64.473 12.4M635.938 972.67c34.299 25.84 97.192 19.64 125.785-12.4-27.912 38.95-90.804 45.15-125.785 12.4M1227.5 923.07c31.08 38.25 104.13 50.65 146.09 24.8-43.12 32.69-116.17 20.29-146.09-24.8M2451.42 960.27c19.15 35.39 74.87 53.99 111.44 37.21-38.77 23.37-94.49 4.77-111.44-37.21M328.988 1310.73c11.128 14.41 38.507 20.61 54.758 12.4-17.785 14.98-45.164 8.78-54.758-12.4M438.504 1347.93c19.081 5.7 46.46-6.7 54.758-24.8-5.432 24.43-32.811 36.83-54.758 24.8M548.02 1310.73c23.755 28.52 77.171 34.73 106.831 12.4-30.461 29.22-83.876 23.02-106.831-12.4M942.81 1347.93c25.35 6.41 58.32-12.19 65.95-37.2-4.21 31.06-37.19 49.66-65.95 37.2M1833.88 1372.73c16.8 28.21 62.37 40.61 91.15 24.81-30.6 22.5-76.18 10.1-91.15-24.81M2075.86 1323.13c26.7 40.2 96.56 58.8 139.72 37.2-44.94 28.31-114.8 9.71-139.72-37.2M2269.32 1360.33c51.13 54.82 170.97 79.62 239.66 49.61-70.1 36.81-189.93 12.01-239.66-49.61" fill-rule="evenodd" stroke-linejoin="round" stroke-linecap="round" stroke-width="1.74" stroke="#000" class="prefix__SlurSegment" />
   <path stroke-linejoin="bevel" stroke-width="4.46" stroke="#000" class="prefix__BarLine" d="M1005.61 144.856v101.941M1556.77 144.856v101.941M2261.17 144.856v101.941M2671.55 144.856v101.941M900.364 464.91v101.95M1443.14 464.91v101.95M2293.93 464.91v101.95M2671.55 464.91v101.95M817.278 824.97v101.94M1434.59 824.97v101.94M2288.2 824.97v101.94M2671.55 824.97v101.94M710.406 1225.03v101.94M1205.92 1225.03v101.94M2002.29 1225.03v101.94M2449.71 1225.03v101.94M2649.6 1225.03v101.94" />
   <path stroke-linejoin="bevel" stroke-width="13.64" stroke="#000" class="prefix__BarLine" d="M2666.96 1225.03v101.94" />
   <path stroke-linejoin="bevel" stroke-width="3.97" stroke="#000" class="prefix__LedgerLine" d="M491.77 270.236h49.599M619.435 270.236h49.598M747.099 270.236h49.599M1262.08 590.29h49.59M1491.42 590.29h49.6M1590.37 615.1h49.6M1590.37 590.29h49.6M1986.17 590.29h49.6M2085.12 590.29h49.6M2184.07 615.1h49.6M2184.07 590.29h49.6M2343.21 615.1h49.6M2343.21 590.29h49.6M2450.78 615.1h49.59M2450.78 590.29h49.59M312.87 975.16h49.598M312.87 950.35h49.598M397.531 950.35h49.599M482.192 975.16h49.599M482.192 950.35h49.599M546.665 975.16h49.599M546.665 950.35h49.599M611.139 950.35h49.598M1033.38 950.35h49.6M2078.93 975.16h49.6M2078.93 950.35h49.6M2178.11 975.16h49.6M2178.11 950.35h49.6M2482.34 950.35h49.6M2538.06 975.16h49.6M2538.06 950.35h49.6M1626.79 1350.41h49.6M1717.93 1375.21h49.6M1717.93 1350.41h49.6M1809.08 1350.41h49.6M1900.23 1375.21h49.59M1900.23 1350.41h49.59M2298.26 1350.41h49.59M2352.81 1375.21h49.6M2352.81 1350.41h49.6M2484.18 1375.21h49.6M2484.18 1350.41h49.6" />
   <path stroke-linejoin="bevel" stroke-width="2.73" stroke="#000" class="prefix__Stem" d="M531.323 267.061v-71.234M658.988 267.061v-71.234M786.653 267.061v-89.837M942.32 254.66v-83.636M1092.94 242.258v-89.837M1228.79 217.455v-80.297M1313.7 205.054v-77.436M1398.61 217.455v-80.536M1685.6 217.455v-89.837M1843.26 205.054v-93.908M1923 180.25v-77.435M2002.74 205.054v-77.436M2082.48 217.455V140.02M2162.22 242.258v-89.837M2349.5 217.455V146.22M2446.24 242.258v-80.774M2506.7 254.66v-83.636M2567.17 254.66v-83.636M343.742 574.72v-83.64M495.981 537.51v-71.23M648.22 537.51v-71.23M833.854 562.32v-71.24M1023.19 574.72v-83.64M1146.94 562.32v-71.24M1224.29 574.72v-83.64M1301.63 587.12v-83.64M1530.97 587.12v-96.04M1629.92 611.92V484.88M1728.87 562.32v-83.64M1827.82 562.32v-89.84M1926.77 574.72v-77.44M2025.72 587.12v-81.57M2124.67 587.12v-73.3M2223.62 611.92v-89.83M2382.76 624.32V515.88M2490.33 624.32V515.88M352.423 971.98v-96.04M437.084 947.18v-71.24M521.746 984.38V875.94M586.219 971.98v-96.04M650.692 947.18v-89.84M776.477 934.78v-83.64M904.609 922.37v-71.23M987.77 934.78v-81.6M1072.93 947.18v-91.91M1157.59 934.78v-77.44M1242.25 897.57v-71.23M1388.35 922.37v-71.23M1523.42 934.78v-77.44M1622.6 934.78v-79.51M1721.78 922.37v-69.16M1820.95 922.37v-71.23M1920.13 922.37v-96.03M2019.31 922.37v-85.7M2118.49 984.38V847.01M2217.66 971.98V857.34M2377.03 934.78v-77.44M2466.18 934.78v-77.44M2521.89 947.18v-89.84M2577.61 971.98v-96.04M343.742 1285.23v-83.64M398.5 1297.63v-93.97M453.258 1322.43v-116.7M508.016 1297.63v-89.84M562.774 1285.23v-83.64M669.605 1297.63v-89.84M798.237 1285.23v-77.44M880.398 1297.63v-89.84M957.56 1322.43v-114.64M1023.51 1285.23v-77.44M1089.46 1297.63v-80.54M1291.75 1322.43v-114.64M1402.89 1297.63v-89.84M1484.05 1322.43v-114.64M1575.19 1334.83v-127.04M1666.34 1347.24V1276M1757.49 1372.04V1276M1848.63 1347.24V1276M1939.78 1372.04V1276M2090.62 1297.63v-71.24M2176.6 1322.43v-80.77M2230.33 1334.83v-83.63M2284.07 1334.83v-77.43M2337.81 1347.24v-77.53M2392.37 1372.04v-89.84M2523.74 1384.44V1276" />
   <path d="M659.368 262.206c-1.783-3.286-5.55-5.07-10.123-5.07-3.364 0-7.038.993-10.619 2.884-6.541 3.473-10.51 9.317-10.51 14.386 0 1.38.295 2.775.992 4.062 1.783 3.27 5.55 4.96 10.123 4.96 3.364 0 7.038-.883 10.619-2.775 6.542-3.472 10.51-9.332 10.51-14.386 0-1.395-.294-2.774-.992-4.061M787.032 262.206c-1.783-3.286-5.55-5.07-10.123-5.07-3.364 0-7.038.993-10.619 2.884-6.541 3.473-10.51 9.317-10.51 14.386 0 1.38.295 2.775.992 4.062 1.783 3.27 5.55 4.96 10.123 4.96 3.364 0 7.038-.883 10.619-2.775 6.542-3.472 10.51-9.332 10.51-14.386 0-1.395-.294-2.774-.992-4.061M942.702 249.805c-1.783-3.286-5.55-5.07-10.123-5.07-3.364 0-7.038.993-10.619 2.884-6.541 3.473-10.51 9.317-10.51 14.386 0 1.38.294 2.775.992 4.062 1.783 3.27 5.55 4.96 10.123 4.96 3.364 0 7.038-.883 10.619-2.775 6.542-3.472 10.51-9.332 10.51-14.386 0-1.395-.294-2.774-.992-4.061M1093.312 237.403c-1.783-3.286-5.55-5.07-10.123-5.07-3.364 0-7.038.993-10.619 2.884-6.542 3.473-10.51 9.317-10.51 14.386 0 1.38.294 2.775.992 4.062 1.783 3.27 5.55 4.96 10.123 4.96 3.364 0 7.038-.883 10.619-2.775 6.542-3.472 10.51-9.332 10.51-14.385 0-1.396-.295-2.775-.992-4.062M1229.172 212.6c-1.783-3.286-5.55-5.07-10.123-5.07-3.364 0-7.038.993-10.619 2.884-6.542 3.473-10.51 9.317-10.51 14.386 0 1.38.294 2.775.992 4.062 1.783 3.27 5.55 4.96 10.123 4.96 3.364 0 7.038-.883 10.619-2.775 6.542-3.472 10.51-9.332 10.51-14.386 0-1.395-.295-2.774-.992-4.061M1314.082 200.198c-1.783-3.286-5.55-5.07-10.123-5.07-3.364 0-7.038.993-10.619 2.884-6.541 3.473-10.51 9.317-10.51 14.386 0 1.38.295 2.775.992 4.062 1.783 3.27 5.55 4.96 10.123 4.96 3.364 0 7.038-.883 10.619-2.775 6.542-3.472 10.51-9.332 10.51-14.386 0-1.395-.295-2.774-.992-4.061M1398.992 212.6c-1.783-3.286-5.55-5.07-10.123-5.07-3.364 0-7.038.993-10.619 2.884-6.542 3.473-10.51 9.317-10.51 14.386 0 1.38.294 2.775.992 4.062 1.783 3.27 5.55 4.96 10.123 4.96 3.364 0 7.038-.883 10.619-2.775 6.542-3.472 10.51-9.332 10.51-14.386 0-1.395-.295-2.774-.992-4.061M1685.982 212.6c-1.783-3.286-5.55-5.07-10.123-5.07-3.364 0-7.038.993-10.619 2.884-6.542 3.473-10.51 9.317-10.51 14.386 0 1.38.294 2.775.992 4.062 1.783 3.27 5.55 4.96 10.123 4.96 3.364 0 7.038-.883 10.619-2.775 6.542-3.472 10.51-9.332 10.51-14.386 0-1.395-.295-2.774-.992-4.061M1843.642 200.198c-1.783-3.286-5.55-5.07-10.123-5.07-3.364 0-7.038.993-10.619 2.884-6.542 3.473-10.51 9.317-10.51 14.386 0 1.38.294 2.775.992 4.062 1.783 3.27 5.55 4.96 10.123 4.96 3.364 0 7.038-.883 10.619-2.775 6.542-3.472 10.51-9.332 10.51-14.386 0-1.395-.295-2.774-.992-4.061M1923.382 175.395c-1.783-3.286-5.55-5.07-10.123-5.07-3.364 0-7.038.993-10.619 2.884-6.542 3.473-10.51 9.317-10.51 14.386 0 1.38.294 2.775.992 4.062 1.783 3.27 5.55 4.96 10.123 4.96 3.364 0 7.038-.883 10.619-2.775 6.542-3.472 10.51-9.332 10.51-14.386 0-1.395-.295-2.774-.992-4.061M2003.122 200.198c-1.783-3.286-5.55-5.07-10.123-5.07-3.364 0-7.038.993-10.619 2.884-6.542 3.473-10.51 9.317-10.51 14.386 0 1.38.295 2.775.992 4.062 1.783 3.27 5.55 4.96 10.123 4.96 3.364 0 7.038-.883 10.619-2.775 6.542-3.472 10.51-9.332 10.51-14.386 0-1.395-.295-2.774-.992-4.061M2082.862 212.6c-1.783-3.286-5.55-5.07-10.123-5.07-3.364 0-7.038.993-10.619 2.884-6.542 3.473-10.51 9.317-10.51 14.386 0 1.38.294 2.775.992 4.062 1.783 3.27 5.55 4.96 10.123 4.96 3.364 0 7.038-.883 10.619-2.775 6.542-3.472 10.51-9.332 10.51-14.386 0-1.395-.295-2.774-.992-4.061M2162.602 237.403c-1.783-3.286-5.55-5.07-10.123-5.07-3.364 0-7.038.993-10.619 2.884-6.542 3.473-10.51 9.317-10.51 14.386 0 1.38.294 2.775.992 4.062 1.783 3.27 5.55 4.96 10.123 4.96 3.364 0 7.038-.883 10.619-2.775 6.542-3.472 10.51-9.332 10.51-14.385 0-1.396-.295-2.775-.992-4.062M2349.882 212.6c-1.783-3.286-5.55-5.07-10.123-5.07-3.364 0-7.038.993-10.619 2.884-6.542 3.473-10.51 9.317-10.51 14.386 0 1.38.294 2.775.992 4.062 1.783 3.27 5.55 4.96 10.123 4.96 3.364 0 7.038-.883 10.619-2.775 6.542-3.472 10.51-9.332 10.51-14.386 0-1.395-.295-2.774-.992-4.061M2446.622 237.403c-1.783-3.286-5.55-5.07-10.123-5.07-3.364 0-7.038.993-10.619 2.884-6.542 3.473-10.51 9.317-10.51 14.386 0 1.38.294 2.775.992 4.062 1.783 3.27 5.55 4.96 10.123 4.96 3.364 0 7.038-.883 10.619-2.775 6.542-3.472 10.51-9.332 10.51-14.385 0-1.396-.295-2.775-.992-4.062M2507.082 249.805c-1.783-3.286-5.55-5.07-10.123-5.07-3.364 0-7.038.993-10.619 2.884-6.542 3.473-10.51 9.317-10.51 14.386 0 1.38.294 2.775.992 4.062 1.783 3.27 5.55 4.96 10.123 4.96 3.364 0 7.038-.883 10.619-2.775 6.542-3.472 10.51-9.332 10.51-14.386 0-1.395-.295-2.774-.992-4.061M2567.542 249.805c-1.783-3.286-5.55-5.07-10.123-5.07-3.364 0-7.038.993-10.619 2.884-6.542 3.473-10.51 9.317-10.51 14.386 0 1.38.294 2.775.992 4.062 1.783 3.27 5.55 4.96 10.123 4.96 3.364 0 7.038-.883 10.619-2.775 6.542-3.472 10.51-9.332 10.51-14.386 0-1.395-.295-2.774-.992-4.061M344.122 569.86c-1.783-3.287-5.55-5.07-10.123-5.07-3.364 0-7.038.993-10.619 2.884-6.542 3.473-10.51 9.317-10.51 14.386 0 1.38.295 2.775.992 4.062 1.783 3.27 5.55 4.96 10.123 4.96 3.364 0 7.038-.883 10.619-2.775 6.542-3.472 10.51-9.332 10.51-14.386 0-1.395-.294-2.774-.992-4.061M496.361 532.66c-1.783-3.287-5.55-5.07-10.123-5.07-3.364 0-7.038.993-10.619 2.884-6.542 3.473-10.51 9.317-10.51 14.386 0 1.38.295 2.775.992 4.062 1.783 3.27 5.55 4.96 10.123 4.96 3.364 0 7.038-.883 10.619-2.775 6.542-3.472 10.51-9.332 10.51-14.386 0-1.395-.294-2.774-.992-4.061M648.6 532.66c-1.783-3.287-5.55-5.07-10.123-5.07-3.364 0-7.038.993-10.619 2.884-6.541 3.473-10.51 9.317-10.51 14.386 0 1.38.295 2.775.992 4.062 1.783 3.27 5.55 4.96 10.123 4.96 3.364 0 7.038-.883 10.619-2.775 6.542-3.472 10.51-9.332 10.51-14.386 0-1.395-.294-2.774-.992-4.061M834.234 557.46c-1.783-3.287-5.55-5.07-10.123-5.07-3.364 0-7.038.993-10.619 2.884-6.541 3.473-10.51 9.317-10.51 14.386 0 1.38.295 2.775.992 4.062 1.783 3.27 5.55 4.96 10.123 4.96 3.364 0 7.038-.883 10.619-2.775 6.542-3.472 10.51-9.332 10.51-14.386 0-1.395-.294-2.774-.992-4.061M1023.572 569.86c-1.783-3.287-5.55-5.07-10.123-5.07-3.364 0-7.038.993-10.619 2.884-6.541 3.473-10.51 9.317-10.51 14.386 0 1.38.294 2.775.992 4.062 1.783 3.27 5.55 4.96 10.123 4.96 3.364 0 7.038-.883 10.619-2.775 6.542-3.472 10.51-9.332 10.51-14.386 0-1.395-.295-2.774-.992-4.061M1147.322 557.46c-1.783-3.287-5.55-5.07-10.123-5.07-3.364 0-7.038.993-10.619 2.884-6.542 3.473-10.51 9.317-10.51 14.386 0 1.38.294 2.775.992 4.062 1.783 3.27 5.55 4.96 10.123 4.96 3.364 0 7.038-.883 10.619-2.775 6.542-3.472 10.51-9.332 10.51-14.386 0-1.395-.295-2.774-.992-4.061M1224.662 569.86c-1.783-3.287-5.55-5.07-10.123-5.07-3.364 0-7.038.993-10.619 2.884-6.542 3.473-10.51 9.317-10.51 14.386 0 1.38.294 2.775.992 4.062 1.783 3.27 5.55 4.96 10.123 4.96 3.364 0 7.038-.883 10.619-2.775 6.542-3.472 10.51-9.332 10.51-14.386 0-1.395-.295-2.774-.992-4.061M1302.012 582.26c-1.783-3.287-5.55-5.07-10.123-5.07-3.364 0-7.038.993-10.619 2.884-6.542 3.473-10.51 9.317-10.51 14.386 0 1.38.294 2.775.992 4.062 1.783 3.27 5.55 4.96 10.123 4.96 3.364 0 7.038-.883 10.619-2.775 6.542-3.472 10.51-9.332 10.51-14.386 0-1.395-.295-2.774-.992-4.061M1531.352 582.26c-1.783-3.287-5.55-5.07-10.123-5.07-3.364 0-7.038.993-10.619 2.884-6.541 3.473-10.51 9.317-10.51 14.386 0 1.38.295 2.775.992 4.062 1.783 3.27 5.55 4.96 10.123 4.96 3.364 0 7.038-.883 10.619-2.775 6.542-3.472 10.51-9.332 10.51-14.386 0-1.395-.295-2.774-.992-4.061M1630.302 607.07c-1.783-3.287-5.55-5.07-10.123-5.07-3.364 0-7.038.993-10.619 2.884-6.542 3.473-10.51 9.317-10.51 14.386 0 1.38.294 2.775.992 4.062 1.783 3.27 5.55 4.96 10.123 4.96 3.364 0 7.038-.883 10.619-2.775 6.542-3.472 10.51-9.332 10.51-14.386 0-1.395-.295-2.774-.992-4.061M1729.252 557.46c-1.783-3.287-5.55-5.07-10.123-5.07-3.364 0-7.038.993-10.619 2.884-6.542 3.473-10.51 9.317-10.51 14.386 0 1.38.294 2.775.992 4.062 1.783 3.27 5.55 4.96 10.123 4.96 3.364 0 7.038-.883 10.619-2.775 6.542-3.472 10.51-9.332 10.51-14.386 0-1.395-.295-2.774-.992-4.061M1828.202 557.46c-1.783-3.287-5.55-5.07-10.123-5.07-3.364 0-7.038.993-10.619 2.884-6.542 3.473-10.51 9.317-10.51 14.386 0 1.38.294 2.775.992 4.062 1.783 3.27 5.55 4.96 10.123 4.96 3.364 0 7.038-.883 10.619-2.775 6.542-3.472 10.51-9.332 10.51-14.386 0-1.395-.295-2.774-.992-4.061M1927.152 569.86c-1.783-3.287-5.55-5.07-10.123-5.07-3.364 0-7.038.993-10.619 2.884-6.542 3.473-10.51 9.317-10.51 14.386 0 1.38.294 2.775.992 4.062 1.783 3.27 5.55 4.96 10.123 4.96 3.364 0 7.038-.883 10.619-2.775 6.542-3.472 10.51-9.332 10.51-14.386 0-1.395-.295-2.774-.992-4.061M2026.102 582.26c-1.783-3.287-5.55-5.07-10.123-5.07-3.364 0-7.038.993-10.619 2.884-6.541 3.473-10.51 9.317-10.51 14.386 0 1.38.295 2.775.992 4.062 1.783 3.27 5.55 4.96 10.123 4.96 3.364 0 7.038-.883 10.619-2.775 6.542-3.472 10.51-9.332 10.51-14.386 0-1.395-.295-2.774-.992-4.061M2125.052 582.26c-1.783-3.287-5.55-5.07-10.123-5.07-3.364 0-7.038.993-10.619 2.884-6.542 3.473-10.51 9.317-10.51 14.386 0 1.38.294 2.775.992 4.062 1.783 3.27 5.55 4.96 10.123 4.96 3.364 0 7.038-.883 10.619-2.775 6.542-3.472 10.51-9.332 10.51-14.386 0-1.395-.295-2.774-.992-4.061M2224.002 607.07c-1.783-3.287-5.55-5.07-10.123-5.07-3.364 0-7.038.993-10.619 2.884-6.542 3.473-10.51 9.317-10.51 14.386 0 1.38.294 2.775.992 4.062 1.783 3.27 5.55 4.96 10.123 4.96 3.364 0 7.038-.883 10.619-2.775 6.542-3.472 10.51-9.332 10.51-14.386 0-1.395-.295-2.774-.992-4.061M2383.142 619.47c-1.783-3.287-5.55-5.07-10.123-5.07-3.364 0-7.038.993-10.619 2.884-6.542 3.473-10.51 9.317-10.51 14.386 0 1.38.294 2.775.992 4.062 1.783 3.27 5.55 4.96 10.123 4.96 3.364 0 7.038-.883 10.619-2.775 6.542-3.472 10.51-9.332 10.51-14.386 0-1.395-.295-2.774-.992-4.061M2490.712 619.47c-1.783-3.287-5.55-5.07-10.123-5.07-3.364 0-7.038.993-10.619 2.884-6.542 3.473-10.51 9.317-10.51 14.386 0 1.38.294 2.775.992 4.062 1.783 3.27 5.55 4.96 10.123 4.96 3.364 0 7.038-.883 10.619-2.775 6.542-3.472 10.51-9.332 10.51-14.386 0-1.395-.295-2.774-.992-4.061M352.803 967.13c-1.783-3.287-5.55-5.07-10.123-5.07-3.364 0-7.038.993-10.619 2.884-6.541 3.473-10.51 9.317-10.51 14.386 0 1.38.295 2.775.992 4.062 1.783 3.27 5.55 4.96 10.123 4.96 3.364 0 7.038-.883 10.619-2.775 6.542-3.472 10.51-9.332 10.51-14.386 0-1.395-.294-2.774-.992-4.061M437.464 942.32c-1.783-3.287-5.55-5.07-10.123-5.07-3.364 0-7.038.993-10.619 2.884-6.541 3.473-10.51 9.317-10.51 14.386 0 1.38.295 2.775.992 4.062 1.783 3.27 5.55 4.96 10.123 4.96 3.364 0 7.038-.883 10.619-2.775 6.542-3.472 10.51-9.332 10.51-14.386 0-1.395-.294-2.774-.992-4.061M522.126 979.53c-1.783-3.287-5.55-5.07-10.123-5.07-3.364 0-7.038.993-10.619 2.884-6.541 3.473-10.51 9.317-10.51 14.386 0 1.38.295 2.775.992 4.062 1.783 3.27 5.55 4.96 10.123 4.96 3.364 0 7.038-.883 10.619-2.775 6.542-3.472 10.51-9.332 10.51-14.386 0-1.395-.294-2.774-.992-4.061M586.599 967.13c-1.783-3.287-5.55-5.07-10.123-5.07-3.364 0-7.038.993-10.619 2.884-6.541 3.473-10.51 9.317-10.51 14.386 0 1.38.295 2.775.992 4.062 1.783 3.27 5.55 4.96 10.123 4.96 3.364 0 7.038-.883 10.619-2.775 6.542-3.472 10.51-9.332 10.51-14.386 0-1.395-.294-2.774-.992-4.061M651.072 942.32c-1.783-3.287-5.55-5.07-10.123-5.07-3.364 0-7.038.993-10.619 2.884-6.542 3.473-10.51 9.317-10.51 14.386 0 1.38.295 2.775.992 4.062 1.783 3.27 5.55 4.96 10.123 4.96 3.364 0 7.038-.883 10.619-2.775 6.542-3.472 10.51-9.332 10.51-14.386 0-1.395-.294-2.774-.992-4.061M776.857 929.92c-1.783-3.287-5.55-5.07-10.123-5.07-3.364 0-7.038.993-10.619 2.884-6.541 3.473-10.51 9.317-10.51 14.386 0 1.38.295 2.775.992 4.062 1.783 3.27 5.55 4.96 10.123 4.96 3.364 0 7.038-.883 10.619-2.775 6.542-3.472 10.51-9.332 10.51-14.386 0-1.395-.294-2.774-.992-4.061M904.989 917.52c-1.783-3.287-5.55-5.07-10.123-5.07-3.364 0-7.038.993-10.619 2.884-6.541 3.473-10.51 9.317-10.51 14.386 0 1.38.295 2.775.992 4.062 1.783 3.27 5.55 4.96 10.123 4.96 3.364 0 7.038-.883 10.619-2.775 6.542-3.472 10.51-9.332 10.51-14.386 0-1.395-.294-2.774-.992-4.061M988.152 929.92c-1.783-3.287-5.55-5.07-10.123-5.07-3.364 0-7.038.993-10.619 2.884-6.541 3.473-10.51 9.317-10.51 14.386 0 1.38.295 2.775.992 4.062 1.783 3.27 5.55 4.96 10.123 4.96 3.364 0 7.038-.883 10.619-2.775 6.542-3.472 10.51-9.332 10.51-14.386 0-1.395-.294-2.774-.992-4.061M1073.312 942.32c-1.783-3.287-5.55-5.07-10.123-5.07-3.364 0-7.038.993-10.619 2.884-6.542 3.473-10.51 9.317-10.51 14.386 0 1.38.294 2.775.992 4.062 1.783 3.27 5.55 4.96 10.123 4.96 3.364 0 7.038-.883 10.619-2.775 6.542-3.472 10.51-9.332 10.51-14.386 0-1.395-.295-2.774-.992-4.061M1157.972 929.92c-1.783-3.287-5.55-5.07-10.123-5.07-3.364 0-7.038.993-10.619 2.884-6.542 3.473-10.51 9.317-10.51 14.386 0 1.38.294 2.775.992 4.062 1.783 3.27 5.55 4.96 10.123 4.96 3.364 0 7.038-.883 10.619-2.775 6.542-3.472 10.51-9.332 10.51-14.386 0-1.395-.295-2.774-.992-4.061M1242.632 892.72c-1.783-3.287-5.55-5.07-10.123-5.07-3.364 0-7.038.993-10.619 2.884-6.542 3.473-10.51 9.317-10.51 14.386 0 1.38.294 2.775.992 4.062 1.783 3.27 5.55 4.96 10.123 4.96 3.364 0 7.038-.883 10.619-2.775 6.542-3.472 10.51-9.332 10.51-14.386 0-1.395-.295-2.774-.992-4.061M1388.732 917.52c-1.783-3.287-5.55-5.07-10.123-5.07-3.364 0-7.038.993-10.619 2.884-6.542 3.473-10.51 9.317-10.51 14.386 0 1.38.294 2.775.992 4.062 1.783 3.27 5.55 4.96 10.123 4.96 3.364 0 7.038-.883 10.619-2.775 6.542-3.472 10.51-9.332 10.51-14.386 0-1.395-.295-2.774-.992-4.061M1523.802 929.92c-1.783-3.287-5.55-5.07-10.123-5.07-3.364 0-7.038.993-10.619 2.884-6.542 3.473-10.51 9.317-10.51 14.386 0 1.38.294 2.775.992 4.062 1.783 3.27 5.55 4.96 10.123 4.96 3.364 0 7.038-.883 10.619-2.775 6.542-3.472 10.51-9.332 10.51-14.386 0-1.395-.295-2.774-.992-4.061M1622.982 929.92c-1.783-3.287-5.55-5.07-10.123-5.07-3.364 0-7.038.993-10.619 2.884-6.542 3.473-10.51 9.317-10.51 14.386 0 1.38.294 2.775.992 4.062 1.783 3.27 5.55 4.96 10.123 4.96 3.364 0 7.038-.883 10.619-2.775 6.542-3.472 10.51-9.332 10.51-14.386 0-1.395-.295-2.774-.992-4.061M1722.152 917.52c-1.783-3.287-5.55-5.07-10.123-5.07-3.364 0-7.038.993-10.619 2.884-6.542 3.473-10.51 9.317-10.51 14.386 0 1.38.294 2.775.992 4.062 1.783 3.27 5.55 4.96 10.123 4.96 3.364 0 7.038-.883 10.619-2.775 6.542-3.472 10.51-9.332 10.51-14.386 0-1.395-.295-2.774-.992-4.061M1821.332 917.52c-1.783-3.287-5.55-5.07-10.123-5.07-3.364 0-7.038.993-10.619 2.884-6.541 3.473-10.51 9.317-10.51 14.386 0 1.38.295 2.775.992 4.062 1.783 3.27 5.55 4.96 10.123 4.96 3.364 0 7.038-.883 10.619-2.775 6.542-3.472 10.51-9.332 10.51-14.386 0-1.395-.295-2.774-.992-4.061M1920.512 917.52c-1.783-3.287-5.55-5.07-10.123-5.07-3.364 0-7.038.993-10.619 2.884-6.542 3.473-10.51 9.317-10.51 14.386 0 1.38.294 2.775.992 4.062 1.783 3.27 5.55 4.96 10.123 4.96 3.364 0 7.038-.883 10.619-2.775 6.542-3.472 10.51-9.332 10.51-14.386 0-1.395-.295-2.774-.992-4.061M2019.692 917.52c-1.783-3.287-5.55-5.07-10.123-5.07-3.364 0-7.038.993-10.619 2.884-6.542 3.473-10.51 9.317-10.51 14.386 0 1.38.294 2.775.992 4.062 1.783 3.27 5.55 4.96 10.123 4.96 3.364 0 7.038-.883 10.619-2.775 6.542-3.472 10.51-9.332 10.51-14.386 0-1.395-.295-2.774-.992-4.061M2118.862 979.53c-1.783-3.287-5.55-5.07-10.123-5.07-3.364 0-7.038.993-10.619 2.884-6.542 3.473-10.51 9.317-10.51 14.386 0 1.38.294 2.775.992 4.062 1.783 3.27 5.55 4.96 10.123 4.96 3.364 0 7.038-.883 10.619-2.775 6.542-3.472 10.51-9.332 10.51-14.386 0-1.395-.295-2.774-.992-4.061M2218.042 967.13c-1.783-3.287-5.55-5.07-10.123-5.07-3.364 0-7.038.993-10.619 2.884-6.542 3.473-10.51 9.317-10.51 14.386 0 1.38.294 2.775.992 4.062 1.783 3.27 5.55 4.96 10.123 4.96 3.364 0 7.038-.883 10.619-2.775 6.542-3.472 10.51-9.332 10.51-14.386 0-1.395-.295-2.774-.992-4.061M2377.412 929.92c-1.783-3.287-5.55-5.07-10.123-5.07-3.364 0-7.038.993-10.619 2.884-6.542 3.473-10.51 9.317-10.51 14.386 0 1.38.294 2.775.992 4.062 1.783 3.27 5.55 4.96 10.123 4.96 3.364 0 7.038-.883 10.619-2.775 6.542-3.472 10.51-9.332 10.51-14.386 0-1.395-.295-2.774-.992-4.061M2466.562 929.92c-1.783-3.287-5.55-5.07-10.123-5.07-3.364 0-7.038.993-10.619 2.884-6.542 3.473-10.51 9.317-10.51 14.386 0 1.38.294 2.775.992 4.062 1.783 3.27 5.55 4.96 10.123 4.96 3.364 0 7.038-.883 10.619-2.775 6.542-3.472 10.51-9.332 10.51-14.386 0-1.395-.295-2.774-.992-4.061M2522.272 942.32c-1.783-3.287-5.55-5.07-10.123-5.07-3.364 0-7.038.993-10.619 2.884-6.542 3.473-10.51 9.317-10.51 14.386 0 1.38.294 2.775.992 4.062 1.783 3.27 5.55 4.96 10.123 4.96 3.364 0 7.038-.883 10.619-2.775 6.542-3.472 10.51-9.332 10.51-14.386 0-1.395-.295-2.774-.992-4.061M2577.992 967.13c-1.783-3.287-5.55-5.07-10.123-5.07-3.364 0-7.038.993-10.619 2.884-6.542 3.473-10.51 9.317-10.51 14.386 0 1.38.294 2.775.992 4.062 1.783 3.27 5.55 4.96 10.123 4.96 3.364 0 7.038-.883 10.619-2.775 6.542-3.472 10.51-9.332 10.51-14.386 0-1.395-.295-2.774-.992-4.061M344.122 1280.37c-1.783-3.287-5.55-5.07-10.123-5.07-3.364 0-7.038.993-10.619 2.884-6.542 3.473-10.51 9.317-10.51 14.386 0 1.38.295 2.775.992 4.062 1.783 3.27 5.55 4.96 10.123 4.96 3.364 0 7.038-.883 10.619-2.775 6.542-3.472 10.51-9.332 10.51-14.385 0-1.396-.294-2.775-.992-4.062M398.88 1292.77c-1.783-3.287-5.55-5.07-10.123-5.07-3.364 0-7.038.993-10.619 2.884-6.541 3.473-10.51 9.317-10.51 14.386 0 1.38.295 2.775.992 4.062 1.783 3.27 5.55 4.96 10.123 4.96 3.364 0 7.038-.883 10.619-2.775 6.542-3.472 10.51-9.332 10.51-14.385 0-1.396-.294-2.775-.992-4.062M453.637 1317.58c-1.783-3.287-5.55-5.07-10.123-5.07-3.364 0-7.038.993-10.619 2.884-6.541 3.473-10.51 9.317-10.51 14.386 0 1.38.295 2.775.992 4.062 1.783 3.27 5.55 4.96 10.123 4.96 3.364 0 7.038-.883 10.619-2.775 6.542-3.472 10.51-9.332 10.51-14.385 0-1.396-.294-2.775-.992-4.062M508.395 1292.77c-1.783-3.287-5.55-5.07-10.123-5.07-3.364 0-7.038.993-10.619 2.884-6.542 3.473-10.51 9.317-10.51 14.386 0 1.38.295 2.775.992 4.062 1.783 3.27 5.55 4.96 10.123 4.96 3.364 0 7.038-.883 10.619-2.775 6.542-3.472 10.51-9.332 10.51-14.385 0-1.396-.294-2.775-.992-4.062M563.153 1280.37c-1.783-3.287-5.55-5.07-10.123-5.07-3.364 0-7.038.993-10.619 2.884-6.541 3.473-10.51 9.317-10.51 14.386 0 1.38.295 2.775.992 4.062 1.783 3.27 5.55 4.96 10.123 4.96 3.364 0 7.038-.883 10.619-2.775 6.542-3.472 10.51-9.332 10.51-14.385 0-1.396-.294-2.775-.992-4.062M669.985 1292.77c-1.783-3.287-5.55-5.07-10.123-5.07-3.364 0-7.038.993-10.619 2.884-6.542 3.473-10.51 9.317-10.51 14.386 0 1.38.295 2.775.992 4.062 1.783 3.27 5.55 4.96 10.123 4.96 3.364 0 7.038-.883 10.619-2.775 6.542-3.472 10.51-9.332 10.51-14.385 0-1.396-.294-2.775-.992-4.062M798.617 1280.37c-1.783-3.287-5.55-5.07-10.123-5.07-3.364 0-7.038.993-10.619 2.884-6.541 3.473-10.51 9.317-10.51 14.386 0 1.38.295 2.775.992 4.062 1.783 3.27 5.55 4.96 10.123 4.96 3.364 0 7.038-.883 10.619-2.775 6.542-3.472 10.51-9.332 10.51-14.385 0-1.396-.294-2.775-.992-4.062M880.778 1292.77c-1.783-3.287-5.55-5.07-10.123-5.07-3.364 0-7.038.993-10.619 2.884-6.541 3.473-10.51 9.317-10.51 14.386 0 1.38.295 2.775.992 4.062 1.783 3.27 5.55 4.96 10.123 4.96 3.364 0 7.038-.883 10.619-2.775 6.542-3.472 10.51-9.332 10.51-14.385 0-1.396-.294-2.775-.992-4.062M957.942 1317.58c-1.783-3.287-5.55-5.07-10.123-5.07-3.364 0-7.038.993-10.619 2.884-6.541 3.473-10.51 9.317-10.51 14.386 0 1.38.294 2.775.992 4.062 1.783 3.27 5.55 4.96 10.123 4.96 3.364 0 7.038-.883 10.619-2.775 6.542-3.472 10.51-9.332 10.51-14.385 0-1.396-.294-2.775-.992-4.062M1023.892 1280.37c-1.783-3.287-5.55-5.07-10.123-5.07-3.364 0-7.038.993-10.619 2.884-6.541 3.473-10.51 9.317-10.51 14.386 0 1.38.295 2.775.992 4.062 1.783 3.27 5.55 4.96 10.123 4.96 3.364 0 7.038-.883 10.619-2.775 6.542-3.472 10.51-9.332 10.51-14.385 0-1.396-.294-2.775-.992-4.062M1089.842 1292.77c-1.783-3.287-5.55-5.07-10.123-5.07-3.364 0-7.038.993-10.619 2.884-6.541 3.473-10.51 9.317-10.51 14.386 0 1.38.295 2.775.992 4.062 1.783 3.27 5.55 4.96 10.123 4.96 3.364 0 7.038-.883 10.619-2.775 6.542-3.472 10.51-9.332 10.51-14.385 0-1.396-.295-2.775-.992-4.062M1292.122 1317.58c-1.783-3.287-5.55-5.07-10.123-5.07-3.364 0-7.038.993-10.619 2.884-6.542 3.473-10.51 9.317-10.51 14.386 0 1.38.295 2.775.992 4.062 1.783 3.27 5.55 4.96 10.123 4.96 3.364 0 7.038-.883 10.619-2.775 6.542-3.472 10.51-9.332 10.51-14.385 0-1.396-.295-2.775-.992-4.062M1403.262 1292.77c-1.783-3.287-5.55-5.07-10.123-5.07-3.364 0-7.038.993-10.619 2.884-6.542 3.473-10.51 9.317-10.51 14.386 0 1.38.294 2.775.992 4.062 1.783 3.27 5.55 4.96 10.123 4.96 3.364 0 7.038-.883 10.619-2.775 6.542-3.472 10.51-9.332 10.51-14.385 0-1.396-.295-2.775-.992-4.062M1484.432 1317.58c-1.783-3.287-5.55-5.07-10.123-5.07-3.364 0-7.038.993-10.619 2.884-6.542 3.473-10.51 9.317-10.51 14.386 0 1.38.294 2.775.992 4.062 1.783 3.27 5.55 4.96 10.123 4.96 3.364 0 7.038-.883 10.619-2.775 6.542-3.472 10.51-9.332 10.51-14.385 0-1.396-.295-2.775-.992-4.062M1575.572 1329.98c-1.783-3.287-5.55-5.07-10.123-5.07-3.364 0-7.038.993-10.619 2.884-6.542 3.473-10.51 9.317-10.51 14.386 0 1.38.294 2.775.992 4.062 1.783 3.27 5.55 4.96 10.123 4.96 3.364 0 7.038-.883 10.619-2.775 6.542-3.472 10.51-9.332 10.51-14.385 0-1.396-.295-2.775-.992-4.062M1666.722 1342.38c-1.783-3.287-5.55-5.07-10.123-5.07-3.364 0-7.038.993-10.619 2.884-6.542 3.473-10.51 9.317-10.51 14.386 0 1.38.294 2.775.992 4.062 1.783 3.27 5.55 4.96 10.123 4.96 3.364 0 7.038-.883 10.619-2.775 6.542-3.472 10.51-9.332 10.51-14.385 0-1.396-.295-2.775-.992-4.062M1757.862 1367.18c-1.783-3.287-5.55-5.07-10.123-5.07-3.364 0-7.038.993-10.619 2.884-6.541 3.473-10.51 9.317-10.51 14.386 0 1.38.295 2.775.992 4.062 1.783 3.27 5.55 4.96 10.123 4.96 3.364 0 7.038-.883 10.619-2.775 6.542-3.472 10.51-9.332 10.51-14.385 0-1.396-.295-2.775-.992-4.062M1849.012 1342.38c-1.783-3.287-5.55-5.07-10.123-5.07-3.364 0-7.038.993-10.619 2.884-6.542 3.473-10.51 9.317-10.51 14.386 0 1.38.294 2.775.992 4.062 1.783 3.27 5.55 4.96 10.123 4.96 3.364 0 7.038-.883 10.619-2.775 6.542-3.472 10.51-9.332 10.51-14.385 0-1.396-.295-2.775-.992-4.062M1940.162 1367.18c-1.783-3.287-5.55-5.07-10.123-5.07-3.364 0-7.038.993-10.619 2.884-6.542 3.473-10.51 9.317-10.51 14.386 0 1.38.294 2.775.992 4.062 1.783 3.27 5.55 4.96 10.123 4.96 3.364 0 7.038-.883 10.619-2.775 6.542-3.472 10.51-9.332 10.51-14.385 0-1.396-.295-2.775-.992-4.062M2090.992 1292.77c-1.783-3.287-5.55-5.07-10.123-5.07-3.364 0-7.038.993-10.619 2.884-6.542 3.473-10.51 9.317-10.51 14.386 0 1.38.294 2.775.992 4.062 1.783 3.27 5.55 4.96 10.123 4.96 3.364 0 7.038-.883 10.619-2.775 6.542-3.472 10.51-9.332 10.51-14.385 0-1.396-.295-2.775-.992-4.062M2176.972 1317.58c-1.783-3.287-5.55-5.07-10.123-5.07-3.364 0-7.038.993-10.619 2.884-6.542 3.473-10.51 9.317-10.51 14.386 0 1.38.294 2.775.992 4.062 1.783 3.27 5.55 4.96 10.123 4.96 3.364 0 7.038-.883 10.619-2.775 6.542-3.472 10.51-9.332 10.51-14.385 0-1.396-.295-2.775-.992-4.062M2230.712 1329.98c-1.783-3.287-5.55-5.07-10.123-5.07-3.364 0-7.038.993-10.619 2.884-6.542 3.473-10.51 9.317-10.51 14.386 0 1.38.294 2.775.992 4.062 1.783 3.27 5.55 4.96 10.123 4.96 3.364 0 7.038-.883 10.619-2.775 6.542-3.472 10.51-9.332 10.51-14.385 0-1.396-.295-2.775-.992-4.062M2284.452 1329.98c-1.783-3.287-5.55-5.07-10.123-5.07-3.364 0-7.038.993-10.619 2.884-6.542 3.473-10.51 9.317-10.51 14.386 0 1.38.294 2.775.992 4.062 1.783 3.27 5.55 4.96 10.123 4.96 3.364 0 7.038-.883 10.619-2.775 6.542-3.472 10.51-9.332 10.51-14.385 0-1.396-.295-2.775-.992-4.062M2338.192 1342.38c-1.783-3.287-5.55-5.07-10.123-5.07-3.364 0-7.038.993-10.619 2.884-6.542 3.473-10.51 9.317-10.51 14.386 0 1.38.294 2.775.992 4.062 1.783 3.27 5.55 4.96 10.123 4.96 3.364 0 7.038-.883 10.619-2.775 6.542-3.472 10.51-9.332 10.51-14.385 0-1.396-.295-2.775-.992-4.062M2392.752 1367.18c-1.783-3.287-5.55-5.07-10.123-5.07-3.364 0-7.038.993-10.619 2.884-6.542 3.473-10.51 9.317-10.51 14.386 0 1.38.294 2.775.992 4.062 1.783 3.27 5.55 4.96 10.123 4.96 3.364 0 7.038-.883 10.619-2.775 6.542-3.472 10.51-9.332 10.51-14.385 0-1.396-.295-2.775-.992-4.062M2524.112 1379.534c-1.783-3.271-5.55-5.054-10.123-5.054-3.364 0-7.038.992-10.619 2.868-6.542 3.472-10.51 9.332-10.51 14.386 0 1.395.294 2.79.992 4.077 1.783 3.286 5.55 4.976 10.123 4.976 3.364 0 7.038-.9 10.619-2.775 6.542-3.488 10.51-9.348 10.51-14.417 0-1.38-.295-2.775-.992-4.061m-4.263 6.743c-1.69 1.69-5.07 3.767-8.635 5.767-3.565 1.984-7.146 3.472-9.518 3.968-.496.109-.992.202-1.488.202-1.597 0-2.79-.59-3.473-1.892a3.213 3.213 0 01-.496-1.69c0-1.084.682-2.387 1.783-3.472 1.69-1.69 4.96-3.767 8.526-5.751 3.581-1.984 7.147-3.473 9.534-3.969.496-.108.992-.201 1.488-.201 1.581 0 2.868.589 3.566 1.876.294.496.403 1.1.403 1.69 0 1.1-.605 2.278-1.69 3.472M531.703 262.206c-1.783-3.286-5.55-5.07-10.123-5.07-3.364 0-7.038.993-10.619 2.884-6.541 3.473-10.51 9.317-10.51 14.386 0 1.38.295 2.775.992 4.062 1.783 3.27 5.55 4.96 10.123 4.96 3.364 0 7.038-.883 10.619-2.775 6.542-3.472 10.51-9.332 10.51-14.386 0-1.395-.294-2.774-.992-4.061" class="prefix__Note" />
   <path d="M329.318 214.755c-1.225-5.38-3.845-9.177-4.62-10.2-3.163-4.248-7.147-7.07-11.797-8.418-3.085-.868-6.061-.992-8.464-.806a2314.654 2314.654 0 01-2.93-17.207c5.41-6.124 9.007-11.875 11.27-16.138 3.441-6.526 4.573-11.068 4.635-11.27 1.705-5.178 2.062-12.82.961-20.959-.992-7.487-3.07-14.152-5.41-17.377-1.008-1.41-2.062-2.14-3.085-2.14-1.21 0-3.705 1.225-6.573 3.984-2.279 2.17-5.519 6.03-8.06 11.999-2.977 7.007-3.194 16.417-2.838 23.082.372 7.224 1.473 12.867 1.489 12.914.015.093.279 1.58.713 4.123-.217.233-.465.45-.713.698-1.024.992-2.202 2.108-3.581 3.488-.853.852-1.799 1.751-2.79 2.713-8.372 8.076-21.068 20.307-21.068 39.312 0 4.667.9 9.054 2.666 13.038 1.566 3.565 3.845 6.82 6.76 9.673 7.673 7.503 18.183 10.68 25.174 10.526 2.93-.078 5.55-.31 7.922-.76 1.814 9.534 2.945 16.51 2.976 21.811.047 6.465-1.596 10.418-5.456 13.162-2.419 1.72-5.209 2.666-8.278 2.805-2.574.124-4.822-.34-6.232-.744h-.016s-.279-.093-.294-.279c-.016-.186.34-.232.34-.232h.032c1.907-.434 5.441-1.659 7.782-4.93 1.782-2.511 2.65-7.1.821-11.006-1.1-2.372-3.58-5.302-9.161-5.751-2.48-.202-4.728.31-6.713 1.503-1.798 1.07-3.286 2.698-4.325 4.682-2.433 4.666-1.984 10.355 1.116 14.169 2.946 3.596 7.519 5.89 12.914 6.464.852.093 1.69.124 2.526.124 4.403 0 8.759-1.194 12.309-3.38 3.627-2.557 5.736-6.51 6.402-12.091.558-4.604.17-10.48-1.209-18.494-.356-2.077-.899-5.085-1.55-8.805 5.705-1.907 9.828-5.457 13.564-11.27 3.271-5.69 4.201-11.75 2.79-18.013m-33.949 26.012c-4.604-1.21-9.006-3.69-12.727-7.177-1.302-1.21-3.162-3.364-4.62-6.728-1.348-3.147-2.015-6.558-1.953-10.107.062-4.667 1.364-9.457 3.845-14.2 2.899-5.535 7.425-11.022 13.44-16.308a89.216 89.216 0 004.077-3.814c.76 4.232 1.581 8.883 2.45 13.72-3.814 1.255-8.527 4.386-11.612 9.998-3.519 6.511-3.38 11.999-2.65 15.456.93 4.418 3.44 8.154 6.867 10.23.93.559 5.022 2.667 6.852 2.094a1.16 1.16 0 00.775-.667c.511-1.163-.512-1.798-2.046-2.744a27.278 27.278 0 01-1.985-1.317c-3.302-2.465-4.743-6.883-3.674-11.24a12.438 12.438 0 013.674-6.216c1.643-1.534 3.674-2.62 6.03-3.255 2.031 11.161 4.078 22.23 5.705 30.523.124.682.264 1.349.388 2.016-4.34.93-8.65.837-12.836-.264m11.24-32.942c10.261-.465 14.493 6.914 15.377 11.704.465 2.527.465 6.93-1.07 11.115-1.162 3.147-3.596 7.193-8.696 9.24-.062-.42-.14-.853-.217-1.272-1.535-8.712-3.457-19.625-5.395-30.787m-7.27-70.394c1.767-5.69 4.48-8.914 6.464-10.634 1.736-1.504 3.364-2.217 4.279-2.217.14 0 .263.03.356.062.465.14.992.697 1.457 1.565 2.295 4.248 1.55 10.914.217 15.316-1.612 5.364-4.51 10.93-13.238 20.463-.17-1.1-.326-2.14-.48-3.116-1.241-8.216-.916-15.44.945-21.44M205.302 534.815c-1.225-5.38-3.845-9.177-4.62-10.2-3.163-4.248-7.147-7.07-11.797-8.418-3.085-.868-6.061-.992-8.464-.806a2314.832 2314.832 0 01-2.93-17.207c5.41-6.124 9.007-11.875 11.27-16.138 3.441-6.526 4.573-11.068 4.635-11.27 1.705-5.178 2.062-12.82.961-20.959-.992-7.487-3.07-14.153-5.41-17.377-1.008-1.41-2.062-2.14-3.085-2.14-1.21 0-3.705 1.225-6.573 3.984-2.279 2.17-5.519 6.03-8.06 11.999-2.977 7.007-3.194 16.417-2.838 23.082.372 7.224 1.473 12.867 1.489 12.914.015.093.279 1.58.713 4.123-.217.233-.465.45-.713.698-1.024.992-2.202 2.108-3.581 3.488-.853.852-1.799 1.751-2.79 2.712-8.372 8.077-21.068 20.308-21.068 39.313 0 4.667.9 9.054 2.666 13.038 1.566 3.565 3.845 6.82 6.76 9.673 7.673 7.503 18.183 10.68 25.174 10.526 2.93-.077 5.55-.31 7.922-.76 1.814 9.534 2.945 16.51 2.976 21.811.047 6.465-1.596 10.418-5.456 13.162-2.419 1.72-5.209 2.666-8.278 2.805-2.574.124-4.822-.34-6.232-.744h-.016s-.279-.093-.294-.279c-.016-.186.34-.232.34-.232h.032c1.907-.434 5.441-1.659 7.782-4.93 1.782-2.511 2.65-7.1.821-11.006-1.1-2.372-3.58-5.302-9.161-5.752-2.48-.201-4.728.31-6.713 1.504-1.798 1.07-3.286 2.698-4.325 4.682-2.433 4.666-1.984 10.355 1.116 14.169 2.946 3.596 7.519 5.89 12.914 6.464.852.093 1.69.124 2.526.124 4.403 0 8.759-1.194 12.309-3.38 3.627-2.557 5.736-6.51 6.402-12.091.558-4.604.17-10.48-1.209-18.494-.356-2.077-.899-5.085-1.55-8.805 5.705-1.907 9.828-5.457 13.564-11.27 3.271-5.69 4.201-11.75 2.79-18.013m-33.949 26.012c-4.604-1.21-9.006-3.69-12.727-7.177-1.302-1.21-3.162-3.364-4.62-6.728-1.348-3.147-2.015-6.558-1.953-10.108.062-4.666 1.364-9.456 3.845-14.2 2.899-5.534 7.425-11.021 13.44-16.307a89.16 89.16 0 004.077-3.814c.76 4.232 1.581 8.883 2.45 13.72-3.814 1.255-8.527 4.386-11.612 9.998-3.519 6.511-3.38 11.999-2.65 15.456.93 4.418 3.44 8.154 6.867 10.23.93.559 5.022 2.667 6.852 2.094a1.16 1.16 0 00.775-.667c.511-1.163-.512-1.798-2.046-2.744a27.285 27.285 0 01-1.985-1.317c-3.302-2.465-4.743-6.883-3.674-11.24a12.438 12.438 0 013.674-6.216c1.643-1.534 3.674-2.62 6.03-3.255 2.031 11.161 4.078 22.23 5.705 30.523.124.682.264 1.349.388 2.016-4.34.93-8.65.837-12.836-.264m11.24-32.942c10.261-.465 14.493 6.914 15.377 11.704.465 2.527.465 6.93-1.07 11.115-1.162 3.147-3.596 7.193-8.696 9.24-.062-.42-.14-.853-.217-1.272-1.535-8.712-3.457-19.625-5.395-30.787m-7.27-70.394c1.767-5.69 4.48-8.914 6.464-10.634 1.736-1.504 3.364-2.217 4.279-2.217.14 0 .263.03.356.062.465.14.992.697 1.457 1.565 2.295 4.248 1.55 10.914.217 15.316-1.612 5.364-4.51 10.93-13.238 20.463-.17-1.1-.326-2.14-.48-3.116-1.241-8.216-.916-15.44.945-21.44M205.302 894.875c-1.225-5.38-3.845-9.177-4.62-10.2-3.163-4.248-7.147-7.07-11.797-8.418-3.085-.868-6.061-.992-8.464-.806a2314.832 2314.832 0 01-2.93-17.207c5.41-6.124 9.007-11.875 11.27-16.138 3.441-6.526 4.573-11.068 4.635-11.27 1.705-5.178 2.062-12.82.961-20.959-.992-7.487-3.07-14.152-5.41-17.377-1.008-1.41-2.062-2.14-3.085-2.14-1.21 0-3.705 1.225-6.573 3.984-2.279 2.17-5.519 6.03-8.06 11.999-2.977 7.007-3.194 16.417-2.838 23.083.372 7.223 1.473 12.866 1.489 12.913.015.093.279 1.58.713 4.123-.217.233-.465.45-.713.698-1.024.992-2.202 2.108-3.581 3.488-.853.852-1.799 1.751-2.79 2.712-8.372 8.077-21.068 20.308-21.068 39.313 0 4.667.9 9.054 2.666 13.038 1.566 3.565 3.845 6.82 6.76 9.673 7.673 7.503 18.183 10.68 25.174 10.526 2.93-.077 5.55-.31 7.922-.76 1.814 9.534 2.945 16.51 2.976 21.811.047 6.465-1.596 10.418-5.456 13.162-2.419 1.72-5.209 2.666-8.278 2.805-2.574.124-4.822-.34-6.232-.744h-.016s-.279-.093-.294-.279c-.016-.186.34-.232.34-.232h.032c1.907-.434 5.441-1.659 7.782-4.93 1.782-2.511 2.65-7.1.821-11.006-1.1-2.372-3.58-5.302-9.161-5.751-2.48-.202-4.728.31-6.713 1.503-1.798 1.07-3.286 2.698-4.325 4.682-2.433 4.666-1.984 10.355 1.116 14.169 2.946 3.596 7.519 5.89 12.914 6.464.852.093 1.69.124 2.526.124 4.403 0 8.759-1.194 12.309-3.38 3.627-2.557 5.736-6.51 6.402-12.091.558-4.604.17-10.48-1.209-18.494-.356-2.077-.899-5.085-1.55-8.805 5.705-1.907 9.828-5.457 13.564-11.27 3.271-5.69 4.201-11.75 2.79-18.013m-33.949 26.012c-4.604-1.21-9.006-3.69-12.727-7.177-1.302-1.21-3.162-3.364-4.62-6.728-1.348-3.147-2.015-6.558-1.953-10.108.062-4.666 1.364-9.456 3.845-14.2 2.899-5.534 7.425-11.021 13.44-16.307a89.16 89.16 0 004.077-3.814c.76 4.232 1.581 8.883 2.45 13.72-3.814 1.255-8.527 4.386-11.612 9.998-3.519 6.511-3.38 11.999-2.65 15.456.93 4.418 3.44 8.154 6.867 10.23.93.559 5.022 2.667 6.852 2.094a1.16 1.16 0 00.775-.667c.511-1.163-.512-1.798-2.046-2.744a27.285 27.285 0 01-1.985-1.317c-3.302-2.465-4.743-6.883-3.674-11.24a12.438 12.438 0 013.674-6.216c1.643-1.534 3.674-2.62 6.03-3.255 2.031 11.161 4.078 22.23 5.705 30.523.124.683.264 1.349.388 2.016-4.34.93-8.65.837-12.836-.264m11.24-32.942c10.261-.465 14.493 6.914 15.377 11.704.465 2.527.465 6.93-1.07 11.115-1.162 3.147-3.596 7.193-8.696 9.24-.062-.42-.14-.853-.217-1.272-1.535-8.712-3.457-19.625-5.395-30.787m-7.27-70.394c1.767-5.69 4.48-8.914 6.464-10.634 1.736-1.504 3.364-2.217 4.279-2.217.14 0 .263.03.356.062.465.14.992.697 1.457 1.566 2.295 4.247 1.55 10.913.217 15.315-1.612 5.364-4.51 10.93-13.238 20.463-.17-1.1-.326-2.14-.48-3.116-1.241-8.216-.916-15.44.945-21.44M205.302 1294.925c-1.225-5.38-3.845-9.177-4.62-10.2-3.163-4.248-7.147-7.07-11.797-8.418-3.085-.868-6.061-.992-8.464-.806a2314.832 2314.832 0 01-2.93-17.207c5.41-6.124 9.007-11.875 11.27-16.138 3.441-6.526 4.573-11.068 4.635-11.27 1.705-5.178 2.062-12.82.961-20.959-.992-7.487-3.07-14.152-5.41-17.377-1.008-1.41-2.062-2.14-3.085-2.14-1.21 0-3.705 1.225-6.573 3.984-2.279 2.17-5.519 6.03-8.06 11.999-2.977 7.007-3.194 16.417-2.838 23.082.372 7.224 1.473 12.867 1.489 12.914.015.093.279 1.58.713 4.123-.217.233-.465.45-.713.698-1.024.992-2.202 2.108-3.581 3.488-.853.852-1.799 1.751-2.79 2.712-8.372 8.077-21.068 20.308-21.068 39.313 0 4.667.9 9.054 2.666 13.038 1.566 3.565 3.845 6.82 6.76 9.673 7.673 7.503 18.183 10.68 25.174 10.526 2.93-.077 5.55-.31 7.922-.76 1.814 9.534 2.945 16.51 2.976 21.811.047 6.465-1.596 10.418-5.456 13.162-2.419 1.72-5.209 2.666-8.278 2.805-2.574.124-4.822-.34-6.232-.744h-.016s-.279-.093-.294-.279c-.016-.186.34-.232.34-.232h.032c1.907-.434 5.441-1.659 7.782-4.93 1.782-2.511 2.65-7.1.821-11.006-1.1-2.372-3.58-5.302-9.161-5.752-2.48-.201-4.728.31-6.713 1.504-1.798 1.07-3.286 2.698-4.325 4.682-2.433 4.666-1.984 10.355 1.116 14.169 2.946 3.596 7.519 5.89 12.914 6.464.852.093 1.69.124 2.526.124 4.403 0 8.759-1.194 12.309-3.38 3.627-2.557 5.736-6.51 6.402-12.091.558-4.604.17-10.48-1.209-18.494-.356-2.077-.899-5.085-1.55-8.805 5.705-1.907 9.828-5.457 13.564-11.27 3.271-5.69 4.201-11.75 2.79-18.013m-33.949 26.012c-4.604-1.21-9.006-3.69-12.727-7.177-1.302-1.21-3.162-3.364-4.62-6.728-1.348-3.147-2.015-6.557-1.953-10.107.062-4.667 1.364-9.457 3.845-14.2 2.899-5.534 7.425-11.022 13.44-16.308a89.16 89.16 0 004.077-3.814c.76 4.232 1.581 8.883 2.45 13.72-3.814 1.255-8.527 4.386-11.612 9.998-3.519 6.511-3.38 11.999-2.65 15.456.93 4.418 3.44 8.154 6.867 10.23.93.559 5.022 2.667 6.852 2.094a1.16 1.16 0 00.775-.667c.511-1.163-.512-1.798-2.046-2.744a27.285 27.285 0 01-1.985-1.317c-3.302-2.465-4.743-6.883-3.674-11.24a12.438 12.438 0 013.674-6.216c1.643-1.534 3.674-2.62 6.03-3.255 2.031 11.161 4.078 22.23 5.705 30.523.124.682.264 1.349.388 2.016-4.34.93-8.65.837-12.836-.264m11.24-32.942c10.261-.465 14.493 6.914 15.377 11.704.465 2.527.465 6.93-1.07 11.115-1.162 3.147-3.596 7.193-8.696 9.24-.062-.42-.14-.853-.217-1.272-1.535-8.712-3.457-19.625-5.395-30.787m-7.27-70.394c1.767-5.69 4.48-8.914 6.464-10.634 1.736-1.504 3.364-2.217 4.279-2.217.14 0 .263.03.356.062.465.14.992.697 1.457 1.566 2.295 4.247 1.55 10.913.217 15.315-1.612 5.364-4.51 10.93-13.238 20.463-.17-1.1-.326-2.14-.48-3.116-1.241-8.216-.916-15.44.945-21.44" class="prefix__Clef" />
   <path d="M374.676 187.983c-.59-3.86-2.977-7.534-8.03-7.534-4.961 0-7.844 3.07-8.34 3.674l.403-31.857c0-.79-.59-1.38-1.396-1.38h-1.178c-.806 0-1.395.59-1.395 1.38l.496 59.637c0 .79.59 1.38 1.395 1.38.186 0 .59-.094.79-.187.388-.201 6.837-3.38 12.2-9.425 3.768-4.279 5.256-9.13 5.256-13.208 0-.883-.093-1.674-.201-2.48m-6.837 3.875c0 1.489-.403 6.046-2.883 9.829-1.69 2.573-5.054 5.255-6.945 6.743l.294-19.346c.202-.9 1.69-3.767 5.659-3.767 3.58 0 3.875 3.364 3.875 5.456v1.085M250.66 508.036c-.589-3.86-2.976-7.534-8.03-7.534-4.96 0-7.843 3.07-8.34 3.674l.404-31.857c0-.79-.59-1.38-1.396-1.38h-1.178c-.806 0-1.395.59-1.395 1.38l.496 59.636c0 .791.59 1.38 1.395 1.38.186 0 .59-.093.79-.186.388-.201 6.837-3.38 12.2-9.425 3.768-4.279 5.256-9.13 5.256-13.208 0-.883-.093-1.674-.201-2.48m-6.837 3.876c0 1.488-.403 6.045-2.883 9.828-1.69 2.573-5.054 5.255-6.945 6.743l.294-19.346c.202-.9 1.69-3.767 5.659-3.767 3.58 0 3.875 3.364 3.875 5.456v1.086M250.66 868.096c-.589-3.86-2.976-7.534-8.03-7.534-4.96 0-7.843 3.07-8.34 3.674l.404-31.857c0-.79-.59-1.38-1.396-1.38h-1.178c-.806 0-1.395.59-1.395 1.38l.496 59.637c0 .79.59 1.38 1.395 1.38.186 0 .59-.094.79-.187.388-.201 6.837-3.38 12.2-9.425 3.768-4.279 5.256-9.13 5.256-13.208 0-.883-.093-1.674-.201-2.48m-6.837 3.875c0 1.489-.403 6.046-2.883 9.829-1.69 2.573-5.054 5.255-6.945 6.743l.294-19.346c.202-.9 1.69-3.767 5.659-3.767 3.58 0 3.875 3.364 3.875 5.456v1.085M250.66 1268.156c-.589-3.86-2.976-7.534-8.03-7.534-4.96 0-7.843 3.07-8.34 3.674l.404-31.857c0-.79-.59-1.38-1.396-1.38h-1.178c-.806 0-1.395.59-1.395 1.38l.496 59.636c0 .791.59 1.38 1.395 1.38.186 0 .59-.093.79-.186.388-.201 6.837-3.38 12.2-9.425 3.768-4.279 5.256-9.13 5.256-13.208 0-.883-.093-1.674-.201-2.48m-6.837 3.876c0 1.488-.403 6.045-2.883 9.828-1.69 2.573-5.054 5.255-6.945 6.743l.294-19.346c.202-.9 1.69-3.767 5.659-3.767 3.58 0 3.875 3.364 3.875 5.456v1.085" class="prefix__KeySig" />
   <path d="M435.52 175.395c-.79 2.17-2.774 9.317-7.642 9.317-6.448 0-7.844-3.968-13.192-3.968-.79 0-1.596.108-2.589.294 0 0 2.48-3.767 13.006-7.038 10.51-3.27 13.193-8.433 13.193-14.386 0-4.17-1.876-12.401-16.866-12.401-14.975 0-17.766 9.022-17.766 13.595 0 4.062 3.38 7.333 7.441 7.333a7.32 7.32 0 007.348-7.333c0-2.775-1.984-5.86-4.557-6.852-.31-.093-.698-.589-.698-1.085 0-.604.496-1.287 2.279-1.783.496-.201 1.891-.496 3.38-.496 1.379 0 2.976.295 4.154 1.085 1.891 1.194 2.589 2.977 2.589 7.441 0 11.611-13.797 14.092-19.548 22.726 0 0-2.977 4.155-2.977 8.821 0 4.666 2.387 4.96 3.566 4.96 1.596 0 3.286-1.286 3.286-3.069 0-.403-.108-.79-.31-1.286-.59-1.396-.79-2.48-.79-3.287 0-.294 0-.589.108-.884.093-.604.884-1.596 3.27-1.596 2.869 0 3.97 3.38 5.752 5.953 1.783 2.588 4.558 4.17 7.736 4.17 3.177 0 7.44-2.28 9.239-5.953 1.783-3.674 4.061-11.115 4.061-13.781 0-1.303-.79-1.892-1.69-1.892-.697 0-1.38.403-1.782 1.395M401.881 233.024h17.037v7.394h-8.154c-.775 0-1.41.62-1.41 1.395v1.891c0 .776.635 1.396 1.41 1.396h30.012a1.39 1.39 0 001.395-1.396v-1.89a1.39 1.39 0 00-1.395-1.396h-8.867v-7.394h8.867a1.39 1.39 0 001.395-1.396v-1.89a1.39 1.39 0 00-1.395-1.396h-8.867v-15.843c0-.527-.31-1.008-.775-1.24l-1.21-.605a1.446 1.446 0 00-1.58.233l-8.976 8.247c-.28.279-.45.635-.45 1.038v8.17h-11.425s11.038-11.937 22.788-27.578c.853-1.147.357-2.186.17-2.372l-2.154-2.186a1.41 1.41 0 00-.992-.418c-.59 0-14.045.03-14.758 0-.713-.016-1.24.604-1.318 1.209 0 0-.527 7.301-3.116 15.378-2.573 8.045-5.487 12.99-8.123 16.587 0 0-.542.977-.186 1.72.341.745.977 1.815.977 1.815s.248.527 1.1.527" class="prefix__TimeSig" />
   <path d="M529.959 189.626h130.393v12.402H529.959v-12.402M785.288 171.127l158.402-6.309v12.411l-158.402 6.31v-12.412M943.69 183.42l-32.25 1.285v12.411l32.25-1.284V183.42M1091.57 146.488l223.49-25.11v12.48l-223.49 25.11v-12.48M1227.43 149.827l87.63-9.846v12.479l-87.63 9.846v-12.479M1684.23 121.669l240.13-25.089v12.469l-240.13 25.089v-12.469M1841.9 123.799l82.46-8.616v12.469l-82.46 8.616v-12.469M2001.38 120.918l162.21 25.228v12.551l-162.21-25.228v-12.551M2001.38 139.521l82.47 12.826v12.55l-82.47-12.826v-12.55M2348.13 139.513l159.94 25.233v12.555l-159.94-25.234v-12.554M2444.88 173.378l63.19 9.97v12.555l-63.19-9.97v-12.555M342.378 485.24L497.345 460v12.56l-154.967 25.25v-12.57M646.856 459.66l188.362 25.17v12.51l-188.362-25.17v-12.51M835.218 503.43l-32.244-4.31v12.51l32.244 4.31v-12.51M1021.83 484.88h203.82v12.4h-203.82v-12.4M1145.58 503.48h80.07v12.4h-80.07v-12.4M1529.61 485.04l299.58-18.77v12.42l-299.58 18.78v-12.43M1529.61 503.64l299.58-18.77v12.42l-299.58 18.78v-12.43M1925.41 490.83l299.58 25.03v12.45l-299.58-25.03v-12.45M1925.41 509.43l299.58 25.04v12.44l-299.58-25.03v-12.45M351.059 869.74h236.524v12.4H351.059v-12.4M351.059 888.34h236.524v12.41H351.059v-12.41M649.328 851.27l128.513-6.34v12.42l-128.513 6.33v-12.41M777.841 863.53l-32.244 1.59v12.42l32.244-1.59v-12.42M903.245 844.87l255.715 6.27v12.4l-255.715-6.26v-12.41M903.245 863.47l255.715 6.27v12.41l-255.715-6.27v-12.41M1240.89 819.58l148.82 25.27v12.58l-148.82-25.27v-12.58M1389.71 863.45l-32.24-5.47v12.58l32.24 5.47v-12.58M1522.06 851.2l300.26-6.26v12.4l-300.26 6.26v-12.4M1522.06 869.8l300.26-6.26v12.4l-300.26 6.26v-12.4M1918.77 819.82l300.26 31.29v12.46l-300.26-31.28v-12.47M1918.77 838.42l300.26 31.29v12.47l-300.26-31.29v-12.47M2375.67 851.14h147.59v12.4h-147.59v-12.4M2464.81 869.74h58.45v12.4h-58.45v-12.4M342.378 1195.28l167.002 6.31V1214l-167.002-6.31v-12.41M342.378 1213.89l167.002 6.3v12.41l-167.002-6.3v-12.41M561.409 1195.22l109.56 6.36V1214l-109.56-6.36v-12.42M670.969 1220.18l-32.244-1.87v12.42l32.244 1.88v-12.43M796.873 1201.59h228.007v12.4H796.873v-12.4M796.873 1220.19h228.007v12.41H796.873v-12.41M1290.38 1201.59h286.18v12.4h-286.18v-12.4M1290.38 1220.19h286.18v12.41h-286.18v-12.41M1404.25 1238.8h-32.24v12.4h32.24v-12.4M1664.98 1269.8h276.16v12.4h-276.16v-12.4M1664.98 1288.4h276.16v12.4h-276.16v-12.4M2089.25 1219.61l142.45 25.29v12.6l-142.45-25.29v-12.6M2175.23 1253.48l56.47 10.02v12.6l-56.47-10.03v-12.59M2282.71 1250.41l111.02 25.43v12.72l-111.02-25.43v-12.72M2282.71 1269.01l56.46 12.94v12.72l-56.46-12.93v-12.73" fill-rule="evenodd" class="prefix__Beam" />
   <path d="M2384.872 519.352c-.093-.294-.992-3.766-.992-3.968-.093-.403-.697-.698-1.193-.698-.698 0-1.287.605-1.287 1.287v22.431c0 .496.403.884.79 1.086 4.17 1.286 12.805 6.758 19.254 17.765 1.783 3.07 4.666 7.24 4.666 15.58 0 7.146-1.1 14.68-2.883 21.625-.295 1.1-.59 2.092.496 2.48 1.085.403 1.488-.388 1.891-1.38 3.565-8.743 4.465-17.874 4.465-24.012v-1.892c-.496-12.804-7.844-22.23-7.844-22.23.294 0-9.131-12.2-11.813-16.37-3.658-5.658-5.457-11.3-5.55-11.704" class="prefix__Hook" />
   <path d="M551.163 336.589v-5.359h-32.937c1.187-8.469 1.265-16.375 1.343-22.719h-5.531c-.078 6.172 0 14.172-1.266 22.719h-30.484v5.359h29.531c-3.234 15.188-11.125 30.844-30.953 39.453 1.344 1.11 3.078 2.922 3.938 4.36 19.672-9.016 28.125-24.828 31.843-40.485 6.079 18.5 16.422 33.125 31.829 40.391.953-1.578 2.609-3.703 3.875-4.891-15.25-6.406-25.672-21.031-31.282-38.828h30.094M626.296 318.183v11.531H614.14v-11.531h12.156m-12.156 44.406v-12.015h12.156v12.015H614.14m0-28.281h12.156v11.688H614.14v-11.688m16.656-20.859h-21.328v60.843h4.672v-6.968h16.656v-53.875m12.094 17.687h25.438v10.438H642.89v-10.438m25.438-14.531v10.109H642.89v-10.109h25.438m5.922 32.469c-3.391 2.937-8.688 6.812-13.188 9.5-1.984-3.719-3.562-7.907-4.828-12.344h17.141v-34.281H637.75v58.797c0 3.25-1.579 4.671-2.766 5.296.797 1.11 1.984 3.172 2.453 4.438 1.422-1.031 3.719-1.828 20.141-6.328-.157-1.11-.313-3.25-.235-4.75l-14.453 3.562V346.23h8.844c3.797 15.656 11.141 27.766 23.547 33.609.703-1.422 2.359-3.484 3.625-4.578-6.469-2.609-11.61-7.125-15.563-12.89 4.594-2.688 10.203-6.25 14.375-9.657l-3.468-3.64M761.68 359.199c-3.563 1.109-7.188 2.14-10.672 3.172v-20.797h9.406v-4.907h-9.406v-17.765h10.906v-4.985h-26.062v4.985h10.187v17.765h-9.562v4.907h9.562v22.297c-3.953 1.109-7.5 2.125-10.422 2.921l1.094 5.063c7.188-2.219 16.672-5.063 25.672-7.828l-.703-4.828m45.734-11.703v-4.813h-20.453v-14.469h16.5v-4.812h-16.5v-14.953h-5.062v14.953h-9.391a108.024 108.024 0 002.125-10.516l-4.891-.859c-1.343 9.797-3.875 19.203-8.14 25.515 1.265.547 3.39 1.813 4.343 2.61 2.047-3.313 3.797-7.344 5.219-11.938h10.735v14.469h-20.141v4.813h17.531c-4.969 10.203-13.578 20.328-22.031 25.234 1.109 1.016 2.766 2.844 3.547 4.031 7.828-5.219 15.812-14.562 21.094-24.75v28.375h5.062v-28.625c4.656 9.5 11.609 18.828 18.094 24.125.937-1.265 2.672-3.156 3.781-4.031-7.187-4.906-14.844-14.703-19.422-24.359h18M963.04 343.542h-32.55v-8.765c8.92-4.5 19.27-11.531 26.06-18.172l-3.95-3-1.09.312h-51.348v5.141h45.658c-5.69 4.734-13.83 9.875-20.71 12.953v11.531h-32.855v5.219h32.855v24.406c0 1.422-.54 1.813-2.12 1.985-1.75.078-7.52.078-14.063-.172.938 1.594 1.973 3.875 2.363 5.453 7.59 0 12.56-.078 15.4-1.016 2.85-.875 3.8-2.453 3.8-6.171v-24.485h32.55v-5.219M1089.98 359.746v7.89h-23.47v-7.89h23.47m4.73-4.032h-33.09v19.985h4.89v-4.032h28.2v-15.953m15.57-9.484h-63.11v34.141h5.04V350.73h52.85v23.937c0 .875-.39 1.11-1.35 1.188-.86 0-4.42.078-7.89-.078.63 1.109 1.35 2.687 1.66 3.953 4.98 0 8.22 0 10.19-.641 1.98-.781 2.61-1.812 2.61-4.5V346.23m-14.14-8.453h-34.52v-7.656h34.52v7.656m-39.74-11.61v15.563h45.19v-15.563h-45.19m26.08-9.328c-.88-2.531-2.06-5.859-3.17-8.625l-4.97 1.188c.86 2.219 1.81 5.062 2.53 7.437h-32.7v4.594h68.79v-4.594h-30.48M1225.83 359.746v7.89h-23.47v-7.89h23.47m4.74-4.032h-33.1v19.985h4.89v-4.032h28.21v-15.953m15.56-9.484h-63.11v34.141h5.05V350.73h52.84v23.937c0 .875-.39 1.11-1.34 1.188-.86 0-4.42.078-7.89-.078.62 1.109 1.34 2.687 1.65 3.953 4.99 0 8.22 0 10.19-.641 1.99-.781 2.61-1.812 2.61-4.5V346.23m-14.14-8.453h-34.52v-7.656h34.52v7.656m-39.73-11.61v15.563h45.18v-15.563h-45.18m26.07-9.328c-.87-2.531-2.06-5.859-3.17-8.625l-4.97 1.188c.86 2.219 1.82 5.062 2.53 7.437h-32.7v4.594h68.8v-4.594h-30.49M1288.34 342.996h-17.3v-17.219h17.3v17.219m-17.3 24.328V347.73h17.3v19.594h-17.3m7.34-59.125c-.64 3.734-2.06 9.109-3.4 12.828h-8.77v57.375h4.83v-6.344h22.11v-51.031h-13.35c1.43-3.391 2.93-7.828 4.19-11.719l-5.61-1.109m53.47 12.672h-23.92c1.33-3.797 2.44-7.75 3.47-11.719l-5.06-1.11c-2.44 10.938-6.71 21.844-12.08 28.875 1.19.704 3.47 2.125 4.42 2.922 2.69-3.797 5.22-8.703 7.42-14.062h20.7c-1.03 32.062-2.29 44.234-4.9 47-.78 1.031-1.74 1.187-3.31 1.187-1.74 0-6.49 0-11.61-.484.95 1.422 1.57 3.562 1.73 5.141 4.42.234 8.92.39 11.61.156 2.61-.235 4.42-.875 6-3 3.17-3.797 4.27-15.875 5.53-52.141v-2.765m-12.39 35.546c-2.53-4.734-8.06-12.312-12.64-17.921l-4.03 2.359c4.42 5.687 9.8 13.516 12.25 18.328l4.42-2.766M1417.37 349.871c-4.03-3.563-11.69-8.219-18.56-11.938 5.92-4.5 12.56-10.5 17.7-15.875l-4.83-2.609c-3.95 4.672-10.26 10.75-15.87 15.328-.39-6.485-.63-13.75-.72-21.485h-46.05v5.375h40.85c.85 36.735 4.65 59.407 21.09 59.407 5.44 0 7.11-3.797 7.89-16.047-1.27-.625-2.92-1.891-4.11-3-.31 8.844-1.19 13.672-3.55 13.672-8.76.078-13.03-11.938-14.86-30.969 6.8 3.875 14.3 8.766 18.18 12.25l2.84-4.109M1648.97 330.808l-11.33 43.625h-6.53l-9.17-36.219-8.97 36.219h-6.39l-11.53-43.625h5.94l9.17 36.266 9.03-36.266h5.87l9.13 36.625 9.11-36.625h5.67m35.69 27.281c0 5.334-1.37 9.542-4.1 12.625-2.74 3.084-6.4 4.625-11 4.625-4.62 0-8.3-1.541-11.02-4.625-2.72-3.083-4.09-7.291-4.09-12.625 0-5.333 1.37-9.549 4.09-12.648 2.72-3.099 6.4-4.649 11.02-4.649 4.6 0 8.26 1.55 11 4.649 2.73 3.099 4.1 7.315 4.1 12.648m-5.69 0c0-4.239-.83-7.39-2.49-9.453-1.66-2.062-3.97-3.094-6.92-3.094-2.99 0-5.3 1.032-6.95 3.094-1.65 2.063-2.47 5.214-2.47 9.453 0 4.094.83 7.201 2.49 9.321 1.65 2.119 3.96 3.179 6.93 3.179 2.94 0 5.24-1.049 6.91-3.148s2.5-5.216 2.5-9.352m41.69 0c0 5.334-1.37 9.542-4.1 12.625-2.74 3.084-6.4 4.625-11 4.625-4.62 0-8.3-1.541-11.02-4.625-2.72-3.083-4.09-7.291-4.09-12.625 0-5.333 1.37-9.549 4.09-12.648 2.72-3.099 6.4-4.649 11.02-4.649 4.6 0 8.26 1.55 11 4.649 2.73 3.099 4.1 7.315 4.1 12.648m-5.69 0c0-4.239-.83-7.39-2.49-9.453-1.66-2.062-3.97-3.094-6.92-3.094-2.99 0-5.3 1.032-6.95 3.094-1.65 2.063-2.47 5.214-2.47 9.453 0 4.094.83 7.201 2.49 9.321 1.65 2.119 3.96 3.179 6.93 3.179 2.94 0 5.24-1.049 6.91-3.148s2.5-5.216 2.5-9.352m31.41-23.906h-.3a27.22 27.22 0 00-2.38-.547c-.98-.187-1.83-.281-2.57-.281-2.37 0-4.08.523-5.14 1.57-1.07 1.047-1.6 2.935-1.6 5.664v1.125h9.94v4.625h-9.77v28.094h-5.5v-28.094h-3.72v-4.625h3.72v-1.093c0-3.886.97-6.868 2.9-8.946 1.93-2.078 4.73-3.117 8.38-3.117 1.23 0 2.34.057 3.33.172.98.115 1.88.25 2.71.406v5.047M1803.08 341.714l-8.51 32.719h-5.11l-8.41-25.219-8.34 25.219h-5.06l-8.63-32.719h5.75l6 25.328 8.17-25.328h4.55l8.38 25.328 5.68-25.328h5.53m35.74 16.375c0 5.334-1.37 9.542-4.1 12.625-2.74 3.084-6.4 4.625-11 4.625-4.62 0-8.29-1.541-11.02-4.625-2.72-3.083-4.08-7.291-4.08-12.625 0-5.333 1.36-9.549 4.08-12.648 2.73-3.099 6.4-4.649 11.02-4.649 4.6 0 8.26 1.55 11 4.649 2.73 3.099 4.1 7.315 4.1 12.648m-5.69 0c0-4.239-.83-7.39-2.49-9.453-1.66-2.062-3.97-3.094-6.92-3.094-2.98 0-5.3 1.032-6.95 3.094-1.64 2.063-2.47 5.214-2.47 9.453 0 4.094.83 7.201 2.49 9.321 1.65 2.119 3.97 3.179 6.93 3.179 2.94 0 5.24-1.049 6.91-3.148s2.5-5.216 2.5-9.352m65-27.281l-11.33 43.625h-6.53l-9.17-36.219-8.97 36.219h-6.39l-11.53-43.625h5.94l9.17 36.266 9.03-36.266h5.87l9.13 36.625 9.11-36.625h5.67M1976.32 320.558v35.078h-14.38v-35.078h14.38m5.06-4.891h-24.33v52.141h4.89v-7.281h19.44v-44.86m32.06-6.593v44.343l-17.69 4.11v-42.031h-5.29v39.656c0 3.328-2.77 5.219-4.35 6.015.88 1.11 2.14 3.157 2.61 4.422 1.66-1.187 4.27-2.125 24.72-7.265v22.218h5.38v-71.468h-5.38M2157.19 372.136h5.36v-14.922h19.43v-4.984h-19.43v-11.453h15.64v-4.891h-15.64v-9.953h-5.36v9.953h-13.6c2.46-4.265 4.83-9.25 7.11-14.531h29.71v-4.672h-27.82c.88-2.219 1.75-4.516 2.53-6.734l-5.53-1.5c-.78 2.687-1.73 5.547-2.68 8.234h-13.35v4.672h11.53c-1.97 4.891-3.95 8.844-4.81 10.266-1.58 2.843-2.92 4.89-4.19 5.218.55 1.422 1.43 3.938 1.66 5.125.7-.703 3.23-1.187 7.03-1.187h12.41v11.453h-24.17v4.984h24.17v14.922m-26.94-48.812c-2.22-3.797-7.19-9.641-11.38-13.922l-3.95 2.531c4.03 4.438 8.92 10.594 11.06 14.469l4.27-3.078m-2.84 11.843h-15.64v4.907h10.57v25.359c-3.39 1.266-7.34 5.047-11.45 10.031l3.88 5.063c3.7-5.703 7.26-10.594 9.79-10.594 1.74 0 4.42 2.844 7.66 5.047 5.53 3.641 12.17 4.516 22.44 4.516 7.89 0 22.67-.485 28.2-.875.08-1.657.94-4.422 1.58-5.922-7.83.859-19.67 1.578-29.55 1.578-9.33 0-16.03-.563-21.33-4.031-2.84-1.735-4.58-3.469-6.15-4.422v-30.657M2333.56 343.542v12.797h-19.52c.24-2.359.31-4.656.31-6.703v-6.094h19.21m26.06 12.797h-20.92v-12.797h20.92v12.797m5.22-17.297h-55.69v10.5c0 8.297-1.27 19.532-9.72 27.688 1.11.781 3.24 2.531 3.95 3.641 5.85-5.704 8.69-12.985 9.96-19.954h46.28v3.969h5.22v-25.844m5.14-19.359v-4.578h-31.2v-6.891h-5.3v6.891h-30.81v4.578h30.81v8.297h-26.16v4.578h59.17v-4.578h-27.71v-8.297h31.2M2529.58 319.933v34.125h-7.67v-34.125h7.67m4.27-5.141h-16.12v52.157h4.18v-7.766h11.94v-44.391m18.95-3.64l-.7.25h-13.36v68.984h4.34v-64.328h7.44c-1.26 5.922-3.01 12.875-4.98 19.984 4.58 7.422 6.4 12.329 6.4 16.985 0 2.531-.4 5.375-1.42 6.234-.48.485-1.19.641-2.06.641-.95.078-2.38.078-3.8-.078.72 1.187 1.11 3 1.19 4.265 1.5.078 3.16.078 4.34-.156 1.27-.078 2.54-.562 3.41-1.344 1.81-1.422 2.69-5.375 2.69-9.484 0-4.891-2.06-10.266-6.56-17.609 2.37-8.063 4.5-16.047 6.23-22.594l-3.16-1.75m16.6 20.312v22.985h-6.72v-22.985h6.72m3.95 27.797v-32.625h-14.47v38.156h3.8v-5.531h10.67m13.58-47.078h-29.38v5.063h20.93v55.843c0 1.188-.4 1.578-1.58 1.578-1.19.079-5.22.157-9.64 0 .64 1.422 1.5 3.719 1.67 5.141 5.51-.078 9.08-.156 11.2-1.031 2.06-.875 2.69-2.531 2.69-5.688v-55.843h4.11v-5.063M363.394 712.6v-4.98h-32.219V687.4h28.985v-5.07h-28.985v-9.65h-5.453v9.65h-28.203v5.07h28.203v20.22h-32v4.98h28.281c-7.187 9.88-19.031 19.53-29.859 24.19 1.188 1.03 2.844 3.01 3.719 4.36 10.5-5.3 22.109-15.03 29.859-25.78v29.25h5.453v-29.49c7.735 10.83 19.5 20.95 30.25 26.25.875-1.34 2.532-3.4 3.641-4.34-10.828-4.75-22.75-14.56-30.109-24.44h28.437m-59.234-21.33c3.078 4.66 6.156 11.13 7.265 15.16l4.891-1.97c-1.109-4.11-4.344-10.27-7.656-14.94l-4.5 1.75m41.078 15.39c2.844-4.01 6.39-10.34 9.156-15.72l-5.453-1.81c-1.813 4.81-5.375 11.69-8.125 15.95l4.422 1.58M516.539 711.26v-5.3h-32.625v-15.41h26.703v-5.22h-26.703v-12.75h-5.453v12.75h-26.156v5.22h26.156v15.41h-32.312v5.3h25.437c-5.219 9.09-11.922 17.87-14.219 20.23-2.296 2.86-4.109 4.83-5.765 5.06.703 1.43 1.578 4.11 1.734 5.22 2.922-1.11 7.188-1.42 50.485-4.89 1.578 2.52 3 4.89 4.031 6.95l4.969-2.76c-3.719-6.89-11.454-17.33-18.563-25.08l-4.578 2.14c3.781 4.19 7.734 9.33 11.141 14.24l-40.454 2.92c6.079-6.64 12.329-15.17 17.704-24.03h38.468M602.185 685.26c-1.594-3.33-5.297-8.78-8.454-12.91l-4.593 2.38c3.093 4.12 6.64 9.81 8.297 13.21l4.75-2.68m17.765 2.84l-1.109.33h-54.578v5.12h50.718c-8.937 12.18-25.046 26.71-39.5 35.08-.406-.08-.796-.15-1.187-.15-3.953 0-8.922 4.26-14.141 9.87l3.953 4.75c3.86-5.23 7.579-9.73 10.11-9.73 1.734 0 4.187 2.61 7.344 4.57 5.218 3.41 11.687 4.29 21.25 4.29 7.5 0 21.328-.49 27.25-.88.078-1.5.953-4.27 1.5-5.61-7.579.7-19.188 1.34-28.594 1.34-8.844 0-15.25-.56-20.219-3.71-.875-.63-1.734-1.19-2.531-1.74 16.281-9.87 33.969-26.47 43.687-40.84l-3.953-2.69m22.672 56.66h5.375v-54.6h-5.375v54.6m1.188-68.5c3.64 3.47 7.75 8.29 9.562 11.45l4.344-2.84c-1.891-3.16-6.156-7.82-9.875-11.08l-4.031 2.47m20.781 38.86h19.515v11.14h-19.515v-11.14m0-15.47h19.515v10.97h-19.515v-10.97m-4.735 31.03h29.219v-35.47h-29.219v35.47m46.672-53.47h-43.515v4.97h38.156v55.86c0 1.01-.328 1.42-1.422 1.42-.875 0-4.266.08-7.672-.08.719 1.42 1.422 3.63 1.735 4.97 4.828 0 8.062-.08 10.046-.95 1.969-.86 2.672-2.28 2.672-5.36v-60.83M850.96 687.87c-1.5-3.16-4.891-7.91-8.141-11.32l-3.625 2.07c3.234 3.48 6.547 8.46 7.969 11.62l3.797-2.37m-31.907-5.3H805.85c-.859-2.84-2.765-6.89-4.422-9.97l-4.734 1.03c1.344 2.77 2.766 6.17 3.703 8.94h-17.219v4.67h35.875v-4.67m-28.609 34.61c-1.5 6.31-4.109 12.72-7.422 17.14 1.109.62 3 1.89 3.875 2.53 3.234-4.59 6.234-11.78 7.969-18.72l-4.422-.95m1.828-18.88h18.563v9.96h-18.563v-9.96m23.375 14.3v-18.66H787.6v18.66h11.938v26.14c0 .8-.235 1.03-1.11 1.03-.797.08-3.39.08-6.234 0 .625 1.27 1.422 3.08 1.578 4.35 4.109.07 6.625-.08 8.297-.8 1.734-.78 2.203-1.97 2.203-4.5V712.6h11.375m1.813 17.45c-.782-3.79-3.313-9.48-5.844-13.82l-3.781 1.73c2.359 4.34 4.812 10.12 5.687 13.91l3.938-1.82m36.109-32.15v-4.74h-18.328c.469-7.04.469-13.92.547-20.34h-4.891c-.078 6.42-.078 13.3-.469 20.34h-10.672v4.74h10.266c-1.344 16.83-5.281 33.73-16.828 43.68 1.266.8 2.922 2.07 3.797 3.1 12.172-10.91 16.359-28.85 17.859-46.78h18.719m-10.672 40.68c-.781 0-1.422-.07-1.969-.39-.547-.32-.718-1.26-.718-3.09v-30.48h-4.657v29.86c0 4.81.469 6.07 1.813 7.03 1.109.87 3.094 1.18 4.75 1.18h5.047c1.422 0 3.328-.15 4.422-.79 1.187-.47 1.984-1.42 2.453-3 .39-1.5.718-5.61.797-9.16-1.344-.41-3.079-1.19-4.11-2.14-.078 4.03-.156 7.11-.39 8.45-.25 1.27-.641 1.89-1.188 2.22-.484.24-1.5.31-2.531.31h-3.719M992.61 675.43c-2.45 6.09-6.87 14.48-10.34 19.62l4.34 1.89c3.63-5.14 8.05-12.89 11.53-19.53l-5.53-1.98m-38.39 18.67c-1.9-4.98-6.17-12.42-10.59-17.95l-4.66 1.98c4.19 5.45 8.53 13.13 10.27 18.19l4.98-2.22m16.99-21.52h-5.61v28h-25.68v5.22h51.74v12.08h-49.2v5.06h49.2v13.11h-53.24v5.22h53.24v3.5h5.45v-44.19h-25.9v-28m102.68 6.13l-1.17.31h-56.87v5.14h51.81c-6 5.69-15 12.16-22.75 15.96v37.43c0 1.35-.47 1.83-2.13 1.91-1.82.08-7.82.16-14.62-.08.87 1.5 1.91 3.7 2.22 5.28 8.04 0 13.11-.08 16.11-.93 2.92-.88 3.87-2.38 3.87-6.18v-34.82c9.8-5.3 20.69-13.44 27.64-21.1l-4.11-2.92M1130.16 699.73v-11.3h18.64c-3.88 4.01-8.05 7.73-12.56 11.3h-6.08m37.69 4.96v-4.96h-23.63c7.58-6.49 14.3-13.75 20.06-21.68l-4.73-2.37c-2.85 3.97-6 7.76-9.41 11.4v-3.56h-19.98V672.6h-5.38v10.92h-20.37v4.91h20.37v11.3h-27.17v4.96h31.92c-10.28 7.04-21.58 13.04-33.34 17.38 1.19 1.11 3 3.33 3.72 4.42a153.68 153.68 0 0018.95-9.16v17.77c0 6.72 2.77 8.38 12.64 8.38h22.13c8.76 0 10.57-2.77 11.53-13.9-1.5-.32-3.64-1.03-5.06-1.98-.47 9.33-1.43 11.06-6.72 11.06h-21.88c-6.08 0-7.26-.62-7.26-3.56v-7.58c11.76-2.76 24.71-6.79 33.65-10.9l-4.67-3.79c-6.7 3.55-18.16 7.43-28.98 10.27v-8.92c4.81-2.92 9.48-6.1 13.9-9.49h29.71M1281.11 686.37c-1.42-3.72-5.06-9.27-8.45-13.38l-4.43 2.14c3.32 4.11 6.79 9.89 8.13 13.53l4.75-2.29m24.8 21.89H1268v-14.63h37.91v14.63m5.76-19.52h-13.11c2.77-4.12 5.77-9.26 8.46-13.7l-5.38-2.28c-2.05 4.82-5.69 11.39-8.92 15.98h-30.25v24.49h49.2v-24.49m-31.83 28.36c5.22 3.63 11.38 9.23 14.3 13.11l3.8-3.39c-2.85-3.72-9.1-9.09-14.39-12.64l-3.71 2.92m-23.93 23.06c3.56-4.65 6.23-11.92 7.73-18.17l-4.89-1.01c-1.5 6-4.27 12.87-7.58 16.81l4.74 2.37m25.43-1.18c-5.06 0-6-.47-6-2.77v-16.52h-5.45v16.52c0 6.02 2.38 7.52 11.22 7.52h18.09c7.02 0 8.69-2.15 9.47-10.99-1.5-.33-3.62-1.11-4.89-1.98-.4 7.11-1.11 8.22-4.98 8.22h-17.46m25.99-17.32c4.58 5.38 9.25 12.66 10.98 17.47l4.19-2.61c-1.73-4.89-6.56-11.84-11.14-17.14l-4.03 2.28M1501.42 673.07c-1.65 3.17-3.95 6.42-6.56 9.66-2.3-3.24-5.22-6.33-8.84-9.43l-3.64 2.94c3.95 3.33 6.95 6.81 9.25 10.44-3.33 3.48-6.88 6.8-10.44 9.4 1.11.96 2.77 2.38 3.56 3.47 3.24-2.43 6.31-5.28 9.24-8.36 1.67 3.63 2.61 7.27 3.17 11.05-3.56 7.44-9.95 15.33-15.72 19.36 1.34 1.03 2.84 2.69 3.62 4.03 4.43-3.64 9.18-9.4 12.88-15.33.08 1.58.08 3.16.08 4.74 0 10.67-.78 20.15-2.85 23-.7.86-1.5 1.25-2.76 1.42-1.89.23-5.13.23-9.08-.08 1.03 1.5 1.58 3.47 1.58 5.2 3.39.16 6.8.16 9.56-.31 1.97-.31 3.47-1.19 4.58-2.61 3.23-4.34 4.11-14.84 4.11-26.54 0-9.63-.8-19.04-5.53-27.88 3.23-3.8 6.15-7.84 8.45-11.8l-4.66-2.37m29.3 30.92v16.66h-12.95v-16.66h12.95m4.83 21.33v-26h-22.59v31.84h4.81v-5.84h17.78m15.23-40.92h-31.67c1.42-3.41 2.69-6.97 3.72-10.53l-4.91-1.11c-3.07 10.61-8.2 21.18-14.37 27.98 1.26.8 3.33 2.3 4.26 3.17 3.33-3.95 6.41-9.01 9.1-14.62h28.67c-1.03 33.81-2.22 46.14-4.5 48.9-.87 1.1-1.75 1.35-3.09 1.27-1.66 0-5.85 0-10.27-.41.95 1.5 1.42 3.72 1.58 5.3 4.03.16 8.22.31 10.59.08 2.61-.24 4.19-.95 5.77-3.08 3-3.72 3.95-16.28 5.12-54.03v-2.92M1689.23 694.9c-.55-4.5-2.44-11.53-4.73-17l-3.96 1.03c2.22 5.31 4.03 12.5 4.5 17.08l4.19-1.11m7.19-22.07h-4.74v26.25h-12.33v4.91h11.3c-2.92 9.09-7.97 19.84-12.72 25.38.96 1.42 2.22 3.71 2.85 5.29 3.87-5.14 7.82-13.59 10.9-21.9v31.87h4.74v-32.9c2.84 3.87 6.48 9.26 7.9 11.78l3.32-4.11c-1.58-2.13-8.69-10.6-11.22-13.28v-2.13h11.22v-4.91h-11.22v-26.25m5.76 23.57c2.07-4.42 4.6-11.63 6.57-17.49l-4.66-1.18c-1.19 5.21-3.49 12.9-5.45 17.48l3.54 1.19m14.63 3.33h23.14v9.7h-23.14v-9.7m23.14-13.44v8.84h-23.14v-8.84h23.14m4.34 29.94c-2.61 2.45-6.64 5.62-10.11 8-1.89-3.1-3.47-6.49-4.58-10.13h15.41v-32.55h-13.51c-1.04-2.78-2.61-6.42-4.27-9.36l-4.66 1.36c1.27 2.38 2.61 5.46 3.63 8h-14.45v52.96c0 3.54-1.82 5.45-2.93 6.32.8.79 2.07 2.61 2.61 3.71v.25l.08-.08v.08-.08c1.42-1.03 3.88-1.98 18.8-7.28-.31-1.11-.55-3.08-.71-4.52l-12.79 4.21V714.1h7.89c3.87 13.28 11.45 23.95 22.12 29.17.71-1.34 2.28-3.23 3.55-4.19-5.44-2.37-10.03-6.25-13.73-11.15 3.62-2.28 7.89-5.22 11.04-8.22l-3.39-3.48M1833.68 686.93h-41.7v-6.88h41.7v6.88m0 10.81h-41.7v-6.95h41.7v6.95m5.3-21.72h-52.14v25.75h52.14v-25.75m-22.68 50.24h26.4v-4.74h-26.4v-9.33h31.52v-4.73h-69.36v4.73h32.55v24.43c-7.11-1.75-12.31-5.54-15.39-12.97.78-2.52 1.42-5.13 1.97-7.97l-5.22-.8c-2.13 11.78-7.27 20.7-15.57 26.16 1.19.78 3.25 2.76 4.04 3.72 5.21-3.96 9.4-9.02 12.48-15.43 6.31 11.15 16.34 13.68 32.55 13.68h21.4c.32-1.5 1.19-3.8 1.89-5.07-3.7.1-20.37.18-23.14.1-3.47 0-6.72-.17-9.72-.49v-11.29M1946.38 708.41v-5.29h-32.55c.39-3.24.47-6.33.47-9.33v-9.55h28.69v-5.3h-62.25v5.3h28.12v9.47c0 3-.07 6.17-.56 9.41h-30.25v5.29h29.31c-2.76 11.3-10.43 23.16-31.12 31.78 1.09 1.11 2.69 3.1 3.47 4.44 20.45-8.7 28.98-20.72 32.39-32.5 6.23 15.81 16.9 27.11 32.78 32.41.8-1.42 2.3-3.55 3.55-4.66-16.11-4.67-27.02-16.12-32.46-31.47h30.41M2045.33 708.41v-5.29h-32.55c.39-3.24.47-6.33.47-9.33v-9.55h28.69v-5.3h-62.25v5.3h28.12v9.47c0 3-.07 6.17-.56 9.41H1977v5.29h29.31c-2.76 11.3-10.43 23.16-31.12 31.78 1.09 1.11 2.69 3.1 3.47 4.44 20.45-8.7 28.98-20.72 32.39-32.5 6.23 15.81 16.9 27.11 32.78 32.41.8-1.42 2.3-3.55 3.55-4.66-16.11-4.67-27.02-16.12-32.46-31.47h30.41M2095.64 696.63v-9.95h9.87a63.218 63.218 0 01-7.34 9.95h-2.53m10.9 25.28h-18.56v-8.22h18.56v8.22m-18.56 13.11v-8.84h18.56v8.84h-18.56m23.63-59.73c-1.75 3.89-3.64 7.61-5.85 11.08v-4.35h-10.12v-8.72h-4.97v8.72h-12.41v4.66h12.41v9.95h-16.03v4.75h19.11c-6 6-13.03 11.06-20.78 14.92 1.03 1.03 2.76 3.25 3.4 4.27 2.28-1.19 4.58-2.61 6.72-4.11v27.75h4.89v-4.75h18.56v3.64h5.07v-33.75h-19.28c2.84-2.44 5.45-5.12 8.06-7.97h14.92v-4.75h-10.97c4.66-5.92 8.69-12.64 11.92-20l-4.65-1.34m31.28 1.69l-.88.23h-23.22v67.48h5.21v-62.51h15.56c-2.69 6.33-6.47 14.86-10.19 21.73 8.61 7.02 11.22 13.03 11.22 18.08.08 2.92-.55 5.38-2.37 6.41-1.1.54-2.36.86-3.78.93-1.83.18-4.35.08-6.96-.15.96 1.5 1.5 3.72 1.58 5.22 2.45.15 5.3.15 7.42-.08 2.06-.24 3.88-.8 5.3-1.81 2.84-1.75 3.95-5.38 3.95-10.03 0-5.69-2.29-11.86-10.9-19.29 4.03-7.34 8.37-16.36 11.76-23.78l-3.7-2.43M2182.06 724.13v-7.67h17.62v7.67h-17.62m17.62-19.05v7.19h-17.62v-7.19h17.62m5.13-4.5h-27.64v44.02h4.89v-16.2h17.62v9.87c0 1.02-.33 1.35-1.34 1.35-1.11.07-4.5.07-8.38-.08.71 1.42 1.5 3.47 1.82 4.89 4.9 0 8.37-.08 10.42-.95 2.06-.79 2.61-2.29 2.61-5.13v-37.77m-11.14-21.43c2.06 2.68 4.18 5.93 6.01 9.18l-18.33 1.02c3.47-4.27 7.04-9.64 9.88-15.09l-5.3-1.68c-2.69 6.1-7.11 12.43-8.45 14.08-1.34 1.83-2.53 2.85-3.63 3.1.63 1.42 1.5 3.95 1.74 5.06 1.65-.64 4.26-.95 26.3-2.45.71 1.5 1.42 2.92 1.9 4.11l4.5-2.07c-1.65-4.65-6.17-11.78-10.36-17.08l-4.26 1.82m41.87 27.84c6.08 0 7.66-2.45 8.3-11.94-1.5-.4-3.56-1.18-4.66-2.14-.4 7.99-.95 9.33-4.11 9.33h-13.12c-3.71 0-4.35-.47-4.35-2.92v-8.63c7.75-2.28 16.29-5.21 22.6-8.06l-3.63-3.87c-4.59 2.37-12.01 5.37-18.97 7.59v-13.53h-5.2v26.58c0 6.01 1.97 7.59 9.16 7.59h13.98m-13.34 32.22c-3.8 0-4.6-.47-4.6-3v-9.72c8.14-2.22 17.39-5.3 23.47-8.76l-3.4-3.96c-4.66 2.92-12.63 6.08-20.07 8.3v-12.74h-5.12v26.88c0 6.09 1.97 7.67 9.23 7.67h14.22c6.41 0 7.99-2.69 8.61-13.2-1.5-.39-3.47-1.11-4.65-1.97-.4 8.92-1.04 10.5-4.35 10.5h-13.34M2370.62 690.48v36.98h4.73v-32.88h20.63v32.72h4.89v-36.82h-15.33c.95-2.61 2.14-5.69 3.24-8.61h14.39v-4.74h-34.61v4.74h15.25c-.88 2.76-1.97 6.07-3 8.61h-10.19m-2.92 5.6c-3.1-4.57-9.8-11.92-15.41-17.37.78-1.66 1.42-3.25 2.05-4.84l-4.66-1.27c-3.39 9.34-10.11 19.69-18.09 26.48 1.11.72 2.84 2.3 3.64 3.16 5.92-5.28 10.97-12.16 14.92-19.42 5.45 5.53 11.38 12.39 14.3 16.98l3.25-3.72m-22.67-.71c2.76 2.84 6.07 6.87 7.65 9.48l3.64-2.45c-1.67-2.52-4.9-6.24-7.83-9.08l-3.46 2.05m15.87 12.89l-.87.23h-23.38v4.66h21.02c-2.61 5.45-6.57 12.09-9.72 16.61-2.22-2.07-4.35-3.96-6.33-5.71l-3.55 2.63c5.92 5.14 13.11 12.4 16.5 17.15l3.8-3.07c-1.66-2.3-4.27-5.07-7.11-7.85 4.19-6 9.8-15.09 12.95-22.61l-3.31-2.04m22.59-9.88c-.23 27.74-1.18 37.47-20.14 42.92 1.02.88 2.21 2.61 2.68 3.72 20.07-6.17 21.73-17.48 21.96-46.64h-4.5m2.36 32.56c5.38 4.11 12.1 9.97 15.41 13.6l3.25-3.24c-3.33-3.56-10.2-9.17-15.48-13.12l-3.18 2.76M2452.75 684.16v34.13h-7.67v-34.13h7.67m4.26-5.14h-16.12v52.16h4.19v-7.77h11.93v-44.39m18.96-3.64l-.71.25h-13.36v68.99h4.35v-64.33h7.43c-1.26 5.92-3.01 12.87-4.98 19.98 4.58 7.42 6.41 12.33 6.41 16.99 0 2.53-.41 5.37-1.43 6.23-.48.49-1.18.64-2.06.64-.95.08-2.37.08-3.79-.08.71 1.19 1.1 3 1.18 4.27 1.5.08 3.16.08 4.35-.16 1.26-.08 2.53-.56 3.4-1.34 1.82-1.42 2.69-5.38 2.69-9.49 0-4.89-2.06-10.26-6.56-17.6 2.37-8.07 4.5-16.05 6.23-22.6l-3.15-1.75m16.59 20.31v22.99h-6.72v-22.99h6.72m3.95 27.8v-32.62h-14.47v38.15h3.8v-5.53h10.67m13.58-47.08h-29.37v5.07h20.92v55.84c0 1.19-.39 1.58-1.58 1.58-1.19.08-5.22.15-9.64 0 .64 1.42 1.5 3.72 1.67 5.14 5.52-.08 9.08-.16 11.2-1.03 2.07-.88 2.69-2.53 2.69-5.69v-55.84h4.11v-5.07M335.794 1066.55h4.906v-6.33h13.344v6.33h4.984v-6.33h13.969v-4.58h-13.969v-6.42h-4.984v6.42H340.7v-6.42h-4.906v6.42h-13.578v4.58h13.578v6.33m-18.016 13.28c-2.844-2.22-8.125-5.3-12.312-7.36l-3.078 3.64c4.265 2.22 9.546 5.53 12.156 7.83l3.234-4.11m-9.156 39.52c3.875-7.03 8.453-16.52 11.844-24.5l-4.016-3.32c-3.797 8.54-8.937 18.57-12.484 24.5l4.656 3.32m-2.375-64.89c4.109 2.53 9.25 6.25 11.781 8.7l3.313-3.95c-2.61-2.46-7.828-5.86-11.922-8.24l-3.172 3.49m36.891 26.47c.156-2.3.25-4.82.328-7.43h9.468c0 2.52-.078 5.05-.156 7.43h-9.64m30.265-7.43v-4.59h-51.515v4.59h17.14c0 2.52-.078 5.05-.234 7.43h-14.688v40h5.047v-35.35h9.328c-.875 9.41-3.156 16.67-8.687 21.64 1.031.72 2.922 2.3 3.469 3.17 3.484-3.56 5.859-7.75 7.359-12.71 1.656 2.12 3.312 4.5 4.094 6.15l3.093-2.92c-1.109-2.22-3.64-5.53-6.015-8.06.406-2.21.797-4.74 1.031-7.27h9.641c-.953 10.27-3.157 18.25-8.766 23.86 1.016.55 2.922 1.97 3.703 2.69 3.563-4.03 5.938-8.92 7.36-14.69 2.437 3.63 4.656 7.5 5.843 10.27l3.547-2.77c-1.422-3.48-5.047-8.92-8.219-13.03.329-1.98.563-4.11.797-6.33h9.407v29.86c0 1.03-.329 1.27-1.422 1.34-.953.08-4.594.08-8.782 0 .641 1.11 1.266 2.54 1.579 3.72 5.609 0 9.015 0 10.984-.64 1.906-.78 2.531-1.89 2.531-4.5v-34.43h-13.984c.156-2.38.234-4.91.312-7.43h16.047M395.158 1090.24c.079-3.39.157-6.63.157-9.55v-4.58h10.578v14.13h-10.735m10.735-32.71v13.68h-10.578v-13.68h10.578m27.656-8.93c-5.062 10.84-13.516 20.39-22.906 26.56v-22.44h-19.985v27.97c0 11.53-.406 27.02-5.453 38.08 1.188.47 3.313 1.66 4.11 2.45 3.468-7.36 4.89-17 5.515-26.08h11.063v19.11c0 .96-.313 1.27-1.188 1.27-.781.08-3.547.08-6.468 0 .625 1.34 1.343 3.56 1.5 4.83 4.343.08 6.953-.08 8.609-.96 1.734-.87 2.297-2.37 2.297-5.06v-37.12c.781 1.03 1.734 2.14 2.047 2.84 8.062-5.61 15.797-13.58 21.562-22.75 5.766 8.14 14.938 16.75 22.75 22.2.563-1.26 1.828-3.39 2.766-4.57-8.047-5.07-17.844-14.07-23.063-21.9.469-.95.953-1.9 1.422-2.78l-4.578-1.65m13.734 24.98h-26.296v4.58h26.296v-4.58m-8.359 29.38c-.484-5.05-1.906-12.72-3.406-18.8l-4.188.64c1.344 6 2.844 13.81 3.235 18.88l4.359-.72M416.33 1087c2.282 5.93 4.578 13.75 5.203 19.05l4.344-1.27c-.781-5.14-3-12.95-5.453-18.89l-4.094 1.11m34.36-2.76c-2.844 8.53-7.985 20.78-12.25 28.28h-26.219v4.75h45.812v-4.75h-15.015c4.187-7.5 8.937-18.41 12.328-27.02l-4.656-1.26M519.82 1062.28c2.359 3.4 4.812 7.58 5.687 10.35l4.813-1.89c-.953-2.3-2.766-5.53-4.813-8.46h16.735v-4.57h-26.141c1.031-2.39 1.891-5 2.688-7.53l-5.063-1.19c-2.281 8.31-6.547 16.29-11.922 21.42 1.344.72 3.547 1.98 4.5 2.84 2.766-2.92 5.375-6.7 7.578-10.97h5.938m-32.469-.23c1.891 3.78 3.859 8.45 4.578 11.38l4.735-1.83c-.625-2.52-2.282-6.24-3.954-9.55h14.469v-4.59h-21.328c1.016-2.46 1.969-4.99 2.672-7.61l-5.047-1.11c-2.297 8.64-6.484 16.7-12.016 22.08 1.344.62 3.563 1.96 4.594 2.76 2.844-3.08 5.453-7.03 7.735-11.53h3.562m55.375 29.61H509.07c1.031-3.63 1.734-7.42 2.219-11.2 9.625-1.11 18.484-2.53 25.109-4.27l-3.078-4.36c-12.485 3.41-36.172 5.45-55.375 6.41.547 1.19 1.187 3.15 1.265 4.5 8.297-.31 17.375-.94 26.297-1.81-.547 3.71-1.172 7.34-2.125 10.73h-30.734v4.75h28.922c-3.953 9.02-11.938 16.3-29.078 20.25.953 1.03 2.375 3.08 2.843 4.42 19.047-4.73 27.735-13.51 32.079-24.36 6.312 12.27 17.375 20.74 31.828 24.61.797-1.44 2.218-3.48 3.406-4.59-13.359-3.08-23.938-10.28-29.859-20.33h29.937v-4.75M608.438 1061.41h54.828v9h5.297v-13.89h-28.125c-.953-2.38-2.531-5.55-4.11-7.94l-5.375 1.36c1.188 1.89 2.532 4.44 3.407 6.58h-31.047v13.89h5.125v-9m34.687 7.11c7.422 4.5 16.266 11.3 20.532 15.87l3.718-3.54c-4.422-4.5-13.422-10.99-20.859-15.33l-3.391 3m-20.218-3.08c-4.672 5.84-12.172 11.45-19.282 15.09 1.11 1.02 2.922 3 3.719 4.02 7.109-4.17 15.156-10.66 20.453-17.45l-4.89-1.66m-3.719 29.47c6.406-4.27 12.172-9.33 16.828-14.86 5.531 6.09 11.375 10.83 17.937 14.86h-34.765m-.078 18.8v-14.07h33.5v14.07h-33.5m16.672-41.47c-7.594 11.61-21.485 21.56-36.032 27.09 1.266 1.11 2.532 2.92 3.407 4.19 3.703-1.5 7.343-3.33 10.89-5.45v23.15h5.063v-2.78h33.5v2.39h5.281v-23.56c3.406 1.83 6.875 3.64 10.594 5.22.703-1.42 2.125-3.24 3.39-4.35-12.718-5.14-24.093-11.45-33.015-21.71.547-.72 1.031-1.43 1.5-2.07l-4.578-2.12M874.683 1074.13l26.703-4.19-.39-3.94-8.063 1.27v-7.2h8.219v-4.11h-8.219v-6.1h-4.5v18.11l-5.609.96v-14.79h-4.344v15.49l-4.187.56.39 3.94m-7.265-12.49v35.63h-8.063v-35.63h8.063m4.031-5.04h-16.188v51.83h4.094v-6.1h12.094v-45.73m31.516 47.78v-5.77h12.715v5.77h-12.715m-18.094 0c.328-1.97.484-3.94.484-5.77h12.875v5.77h-13.359m20.625-24.41c-1.578 1.74-3.563 3.41-5.219 4.83h-16.266a48.495 48.495 0 005.047-4.83h16.438m-2.531 8.85h12.715v5.86h-12.715v-5.86m-17.61 0h12.875v5.86h-12.875v-5.86m34.985-4.02h-14.297c2.453-2.14 4.987-4.59 6.877-6.87l-3.002-2.15-.703.24H892.23c.625-.86 1.172-1.74 1.656-2.52l-4.187-1.36c-3.563 5.63-9.484 10.6-15.563 14.08.938.78 2.532 2.69 3.157 3.47 1.109-.7 2.218-1.42 3.312-2.2v10.26c0 6.55-1.094 14.38-8.453 20.22 1.031.47 2.766 2.3 3.484 3.33 4.579-3.56 7.11-8.22 8.375-12.97h14.219v11.06h4.735v-11.06h12.715v6.56c0 .86-.31 1.11-1.18 1.19-.94.08-3.86.08-7.192 0 .641 1.1 1.266 2.85 1.5 4.11 4.672 0 7.512-.08 9.252-.8 1.81-.79 2.28-1.96 2.28-4.42v-30.17m-9.63-16.75c-2.136 0-2.449-.23-2.449-1.73v-4.68c5.049-1.09 10.809-2.68 14.919-4.81l-3.23-3.33c-2.69 1.68-7.27 3.25-11.689 4.52v-8.16h-4.421v16.46c0 4.57 1.265 5.76 6.47 5.76h8.53c3.8 0 5.14-1.5 5.61-7.03-1.27-.23-3-.87-3.95-1.5-.24 3.94-.55 4.5-2.13 4.5h-7.66M958.74 1073.1v-9.96h9.87a63.466 63.466 0 01-7.34 9.96h-2.53m10.9 25.28h-18.56v-8.22h18.56v8.22m-18.56 13.11v-8.85h18.56v8.85h-18.56m23.62-59.74c-1.75 3.89-3.64 7.61-5.84 11.08v-4.34h-10.12v-8.72h-4.97v8.72h-12.41v4.65h12.41v9.96h-16.03v4.75h19.1c-6 6-13.03 11.06-20.78 14.92 1.03 1.03 2.77 3.25 3.41 4.26 2.28-1.18 4.58-2.6 6.72-4.1v27.75h4.89v-4.75h18.56v3.64h5.06v-33.75h-19.28c2.85-2.44 5.46-5.13 8.07-7.97h14.92v-4.75h-10.97c4.65-5.92 8.69-12.64 11.92-20l-4.66-1.35m31.29 1.69l-.88.24h-23.22v67.48h5.2v-62.52h15.57c-2.69 6.33-6.47 14.86-10.19 21.74 8.61 7.01 11.22 13.03 11.22 18.08.08 2.92-.55 5.37-2.38 6.4-1.09.55-2.36.86-3.78.94-1.83.17-4.34.08-6.95-.16.95 1.5 1.5 3.72 1.58 5.22 2.45.16 5.29.16 7.42-.08 2.06-.23 3.87-.79 5.3-1.81 2.84-1.75 3.95-5.37 3.95-10.03 0-5.69-2.3-11.86-10.91-19.28 4.03-7.34 8.38-16.36 11.77-23.78l-3.7-2.44M1076.87 1094.43v16.98h-37.6v-16.98h37.6m-42.9 26.57h5.3v-4.61h37.6v4.29h5.53v-30.99h-48.43V1121m25.13-72.03c-7.91 12.19-22.36 22.86-37.36 28.72 1.42 1.27 2.84 3.24 3.7 4.5 4.27-1.81 8.46-4.03 12.49-6.48v4.11h39.65v-4.89h-38.46c7.1-4.6 13.65-10.13 19.03-16.3 9.32 10.12 20.06 16.92 32.54 22.92.8-1.5 2.3-3.47 3.64-4.58-12.87-5.69-24.09-12.33-33.18-22.14.95-1.19 1.82-2.3 2.53-3.56l-4.58-2.3M1176.65 1060.07v-5.3h-67.54v5.3h35.62c-7.97 13.67-21.72 27.18-37.52 35.09 1.11 1.19 2.77 3.25 3.63 4.52 11.14-5.94 21.09-14.32 29.16-23.65v44.99h5.61V1069c2.04-3 4.03-5.93 5.76-8.93h25.28m-29 17c9.49 6.15 21.33 15.4 26.94 21.34l4.11-3.95c-5.77-6.02-17.77-14.78-27.17-20.8l-3.88 3.41M1257.7 1060.38c-2.61-2.53-7.82-6.58-11.93-9.27l-3.32 2.77c4.11 2.86 9.25 7.05 11.77 9.65l3.48-3.15m-40.76 24.26l-9.64 2.52v-16.34h9.25v-4.91h-9.25v-16.78h-4.89v16.78h-10.11v4.91h10.11v17.68c-4.27 1.11-8.14 2.14-11.22 2.85l1.42 5.06c2.92-.8 6.23-1.66 9.8-2.61v21.02c0 1.18-.49 1.42-1.42 1.42-.88.08-3.96.08-7.43 0 .71 1.42 1.35 3.62 1.5 4.89 4.97 0 7.89-.16 9.71-1.02 1.82-.87 2.53-2.22 2.53-5.29v-22.44c3.4-.88 6.79-1.89 10.26-2.85l-.62-4.89m31.44 30.41c-2.36 0-2.77-.47-2.77-2.84v-8.69c6.17-6.95 11.45-14.94 15.25-23.06l-4.5-1.68c-2.69 6.02-6.41 12.02-10.75 17.55v-23.62h18.02v-4.58h-30.33c.31-5.86.54-12.19.62-18.91l-5.06-.09c-.08 6.73-.16 13.14-.47 19h-10.73v4.58h10.42c-1.5 20.47-5.92 35.07-19.13 44.31 1.11.87 3.1 3.01 3.72 4.05 13.91-10.83 18.64-26.32 20.3-48.36h7.75v29.23c-4.58 4.89-9.64 9.16-15.02 12.39 1.19.95 2.69 2.38 3.57 3.41 4.03-2.53 7.81-5.61 11.45-9.1v3.57c0 5.84 1.5 7.42 7.11 7.42h9.39c4.83 0 6.17-2.69 6.64-11.61-1.42-.31-3.31-1.19-4.42-2.05-.24 7.5-.55 9.08-2.61 9.08h-8.45M1472.96 1081.47v5.69h71.72v-5.69h-71.72M1629.91 1094.11h-35.32v-5.76h35.32v5.76m-35.32 19.75v-6.31h35.32v6.31h-35.32m35.32-10.03h-35.32v-5.92h35.32v5.92m13.03-25.59v-4.42H1601c1.02-2.07 1.97-4.19 2.77-6.25h34.59v-4.27h-33.02c.71-2.05 1.35-4.09 1.89-6.23 11.46-.71 22.36-1.74 30.18-3.39l-3.39-3.9c-12.41 2.61-36.5 3.9-55.61 4.05.54 1.19 1.01 2.92 1.11 4.11 6.93 0 14.45-.23 21.95-.56-.55 1.98-1.11 3.95-1.74 5.92h-20.14v4.27h18.49c-.88 2.06-1.75 4.26-2.85 6.25h-21.5v4.42h19.05c-5.06 8.37-11.94 15.79-20.86 21.09 1.03.95 2.61 2.92 3.33 4.03a63.872 63.872 0 0014.3-11.93v29.89h5.04v-3.19h35.32v3.19h5.22v-37.24h-39.9c1.18-1.89 2.44-3.87 3.55-5.84h44.16M1738.88 1064.33c-1.5-3.15-4.89-7.9-8.14-11.31l-3.62 2.06c3.23 3.49 6.54 8.47 7.96 11.63l3.8-2.38m-31.91-5.3h-13.2c-.86-2.84-2.76-6.89-4.42-9.96l-4.73 1.03c1.34 2.76 2.76 6.17 3.7 8.93h-17.22v4.68h35.87v-4.68m-28.6 34.61c-1.5 6.32-4.11 12.72-7.43 17.14 1.11.63 3 1.9 3.88 2.54 3.23-4.6 6.23-11.79 7.97-18.72l-4.42-.96m1.82-18.87h18.57v9.95h-18.57v-9.95m23.38 14.3v-18.66h-28.05v18.66h11.94v26.14c0 .79-.24 1.03-1.11 1.03-.8.08-3.39.08-6.23 0 .62 1.26 1.42 3.08 1.57 4.34 4.11.08 6.63-.08 8.3-.8 1.73-.78 2.2-1.96 2.2-4.5v-26.21h11.38m1.81 17.45c-.78-3.8-3.31-9.49-5.84-13.83l-3.78 1.74c2.36 4.34 4.81 10.12 5.68 13.9l3.94-1.81m36.11-32.16v-4.73h-18.33c.47-7.05.47-13.92.55-20.35h-4.89c-.08 6.43-.08 13.3-.47 20.35h-10.67v4.73h10.26c-1.34 16.83-5.28 33.74-16.82 43.69 1.26.8 2.92 2.06 3.79 3.09 12.17-10.9 16.36-28.84 17.86-46.78h18.72m-10.67 40.69c-.78 0-1.42-.08-1.97-.39-.55-.33-.72-1.27-.72-3.09v-30.49h-4.66v29.86c0 4.81.47 6.08 1.82 7.03 1.11.88 3.09 1.19 4.75 1.19h5.04c1.43 0 3.33-.16 4.43-.8 1.18-.47 1.98-1.42 2.45-3 .39-1.5.72-5.61.8-9.15-1.35-.41-3.08-1.19-4.11-2.14-.08 4.03-.16 7.11-.39 8.45-.25 1.26-.64 1.89-1.19 2.22-.49.23-1.5.31-2.53.31h-3.72M1826.81 1063.39h-41.7v-6.87h41.7v6.87m0 10.82h-41.7v-6.96h41.7v6.96m5.3-21.72h-52.15v25.75h52.15v-25.75m-22.68 50.23h26.39v-4.73h-26.39v-9.33h31.52v-4.73h-69.36v4.73h32.55v24.42c-7.11-1.75-12.32-5.53-15.39-12.97.78-2.51 1.42-5.12 1.96-7.97l-5.21-.79c-2.13 11.78-7.27 20.7-15.57 26.15 1.19.78 3.25 2.77 4.03 3.72 5.22-3.95 9.41-9.01 12.49-15.42 6.31 11.14 16.34 13.67 32.55 13.67h21.4c.31-1.5 1.19-3.79 1.89-5.06-3.7.09-20.37.17-23.14.09-3.47 0-6.72-.17-9.72-.48v-11.3M1939.35 1082.89h-31.29v-7.57h24.57v-4.27h-24.57v-7.34h27.8v-4.27h-15.87c1.81-2.62 3.64-5.86 5.37-8.87l-5.14-1.5c-1.34 3.07-3.62 7.28-5.69 10.37h-21.09l3.01-1.26c-1.03-2.46-3.4-6.27-5.68-8.96l-4.6 1.58c1.99 2.7 4.03 6.11 5.14 8.64h-16.67v4.27h28.05v7.34h-24.17v4.27h24.17v7.57h-31.13v4.35h67.79v-4.35m-56.18 15.33h11.53v15.96h-11.53v-15.96m28.05 0v15.96h-11.61v-15.96h11.61m16.59 0v15.96h-11.78v-15.96h11.78m5.13 15.96v-20.46h-54.74v20.46h-8.45v4.67h71.41v-4.67h-8.22M2022.4 1074.05v20.22h-15.72v-20.22h15.72m5.45 25.13v-25.13h12.02v-5.06h-12.02v-18.67h-5.45v18.67h-15.72v-19.53h-5.2v19.53h-14.94v-17.72h-5.53v17.72h-11.61v5.06h11.61v41.7h56.56v-5.04h-51.03v-36.66h14.94v25.13h26.37M2138.33 1077.28v-5.35h-32.94c1.19-8.47 1.26-16.38 1.34-22.72h-5.53c-.08 6.17 0 14.17-1.27 22.72h-30.48v5.35h29.53c-3.23 15.19-11.12 30.85-30.95 39.46 1.34 1.11 3.08 2.92 3.94 4.36 19.67-9.02 28.12-24.83 31.84-40.49 6.08 18.5 16.42 33.13 31.83 40.39.95-1.57 2.61-3.7 3.87-4.89-15.25-6.4-25.67-21.03-31.28-38.83h30.1M2185.58 1069.86h5.14v-8.45h22.99v8.45h5.12v-8.45h16.99v-4.81h-16.99v-7.46h-5.12v7.46h-22.99v-7.46h-5.14v7.46h-16.83v4.81h16.83v8.45m-4.58 23.55v-13.75h18.41v7.5c0 2.06-.08 4.19-.49 6.25H2181m43.05-13.75v13.75h-19.67c.31-1.98.4-4.11.4-6.17v-7.58h19.27m13.19 18.72v-4.97h-7.89v-18.48h-24.57v-9.33h-5.37v9.33h-23.47v18.48h-8.22v4.97h29.78c-3.08 7.28-10.97 13.92-31.2 18.51 1.19 1.19 2.53 3.25 3.25 4.44 21.25-5.23 29.86-12.98 33.17-21.53 6.24 11.95 17.14 18.67 32.94 21.53.8-1.51 2.22-3.56 3.41-4.75-15.33-2.14-26-8-31.54-18.2h29.71M2387.76 1061.8c-1.03-3.25-3.47-8-5.76-11.64l-4.43 1.67c2.13 3.64 4.58 8.63 5.54 11.8l4.65-1.83m-27.4 6.25v-5.06h-16.21c.64-4.44 1.27-8.86 1.75-13.53l-5.14-.41c-.47 4.77-1.03 9.42-1.65 13.94h-10.35v5.06h9.55c-2.36 13.91-6.08 26.06-12.31 34.52 1.25.71 3.47 2.37 4.42 3.15 6.39-9.54 10.34-22.5 12.87-37.67h17.07m-9.33 25.91c1.42 4.26 2.84 9.17 4.03 13.82l-14.45 2.61c4.42-9.01 8.68-20.86 11.53-32l-5.07-1.42c-2.35 12.02-7.5 25.28-9.15 28.67-1.58 3.49-2.77 6.02-4.11 6.41.55 1.27 1.34 3.63 1.66 4.73 1.34-.85 3.71-1.42 20.62-4.73.39 2.2.78 4.19 1.11 6l4.34-1.5c-1.18-6.41-3.87-16.27-6.4-23.86l-4.11 1.27m18.48 6.72h11.94v11.45h-11.94v-11.45m11.94-31.93v11.38h-11.94v-11.38h11.94m0 27.27h-11.94v-11.3h11.94v11.3m16.98 16.11h-12.17v-11.45h11.06v-4.66h-11.06v-11.3h10.99v-4.59h-10.99v-11.38h11.14v-4.65h-27.97c1.91-4.36 3.57-8.94 4.99-13.53l-4.6-1.11c-3.07 10.76-8.12 21.51-14.04 28.7 1.01.8 2.67 2.92 3.31 3.87 1.97-2.53 3.88-5.37 5.69-8.53v47.49h4.73v-4.05h28.92v-4.81M2428.6 1060.63v34.12h-7.68v-34.12h7.68m4.26-5.14h-16.12v52.15h4.18v-7.76h11.94v-44.39m18.95-3.64l-.7.25h-13.36v68.98h4.35v-64.33h7.43c-1.26 5.93-3.01 12.88-4.98 19.99 4.58 7.42 6.41 12.33 6.41 16.98 0 2.53-.41 5.38-1.43 6.24-.48.48-1.18.64-2.06.64-.95.08-2.37.08-3.8-.08.72 1.19 1.11 3 1.19 4.26 1.5.08 3.16.08 4.35-.15 1.26-.08 2.53-.56 3.4-1.35 1.81-1.42 2.69-5.37 2.69-9.48 0-4.89-2.06-10.27-6.56-17.61 2.37-8.06 4.5-16.05 6.23-22.59l-3.16-1.75m16.6 20.31v22.98h-6.72v-22.98h6.72m3.95 27.8v-32.63h-14.47v38.16h3.8v-5.53h10.67m13.58-47.08h-29.38v5.06h20.93v55.84c0 1.19-.39 1.58-1.58 1.58-1.19.08-5.22.16-9.64 0 .64 1.42 1.5 3.72 1.67 5.14 5.52-.07 9.08-.15 11.2-1.03 2.07-.87 2.69-2.53 2.69-5.69v-55.84h4.11v-5.06M363.582 1460.83v-5.36h-32.938c1.188-8.47 1.266-16.38 1.344-22.72h-5.531c-.079 6.17 0 14.17-1.266 22.72h-30.484v5.36h29.531c-3.235 15.18-11.125 30.84-30.953 39.45 1.343 1.11 3.078 2.92 3.937 4.36 19.672-9.02 28.125-24.83 31.844-40.48 6.078 18.5 16.422 33.12 31.828 40.39.953-1.58 2.609-3.71 3.875-4.89-15.25-6.41-25.672-21.04-31.281-38.83h30.094M421.176 1453.41h5.14v-8.46h22.985v8.46h5.125v-8.46h16.984v-4.81h-16.984v-7.45h-5.125v7.45h-22.985v-7.45h-5.14v7.45h-16.829v4.81h16.829v8.46m-4.579 23.54v-13.75h18.407v7.5c0 2.06-.078 4.19-.485 6.25h-17.922m43.047-13.75v13.75h-19.672c.313-1.98.407-4.11.407-6.17v-7.58h19.265m13.188 18.72v-4.97h-7.891v-18.48h-24.562v-9.33h-5.375v9.33h-23.469v18.48h-8.219v4.97h29.781c-3.078 7.28-10.968 13.92-31.203 18.52 1.188 1.18 2.532 3.25 3.25 4.43 21.25-5.23 29.86-12.98 33.172-21.53 6.235 11.96 17.141 18.67 32.938 21.53.797-1.51 2.218-3.56 3.406-4.75-15.328-2.14-26-8-31.531-18.2h29.703M573.504 1445.34c-1.031-3.25-3.469-8-5.766-11.64l-4.422 1.67c2.125 3.64 4.579 8.63 5.532 11.8l4.656-1.83m-27.406 6.25v-5.06h-16.203c.64-4.44 1.265-8.86 1.75-13.53l-5.141-.41c-.469 4.77-1.031 9.42-1.656 13.94h-10.344v5.06h9.547c-2.36 13.91-6.078 26.07-12.313 34.52 1.25.72 3.469 2.37 4.422 3.15 6.391-9.54 10.344-22.5 12.875-37.67h17.063m-9.328 25.91c1.421 4.26 2.843 9.17 4.031 13.83l-14.453 2.61c4.422-9.02 8.687-20.86 11.531-32l-5.063-1.43c-2.359 12.02-7.5 25.29-9.156 28.68-1.578 3.48-2.765 6.01-4.109 6.4.547 1.27 1.344 3.63 1.656 4.74 1.344-.86 3.719-1.42 20.625-4.74.391 2.21.781 4.19 1.109 6l4.344-1.5c-1.187-6.4-3.875-16.26-6.406-23.86l-4.109 1.27m18.484 6.72h11.937v11.45h-11.937v-11.45m11.937-31.92v11.37h-11.937v-11.37h11.937m0 27.26h-11.937v-11.3h11.937v11.3m16.985 16.11h-12.172v-11.45h11.062v-4.66h-11.062v-11.3h10.984v-4.59h-10.984v-11.37h11.141v-4.66h-27.969c1.906-4.36 3.562-8.94 4.984-13.53l-4.594-1.11c-3.078 10.76-8.125 21.51-14.046 28.7 1.015.8 2.671 2.92 3.312 3.88 1.969-2.53 3.875-5.38 5.688-8.53v47.48h4.734v-4.05h28.922v-4.81M797.546 1480.03c-2.688 4.89-6.641 8.69-11.782 11.53-5.843-1.42-11.922-2.61-18.078-3.8 1.891-2.28 3.86-4.96 5.844-7.73h24.016m-38.797-27.66h12.64v11.22h-12.64v-11.22m17.625-11.45h13.422v7.03h-13.422v-7.03m32.14 11.45v11.22H794.78v-11.22h13.734m-32.14 11.22v-11.22h13.422v11.22h-13.422m42.015 16.44v-4.66h-41.781c1.422-2.21 2.688-4.51 3.797-6.56l-3.25-.8h36.578v-20.06H794.78v-7.03h22.359v-4.73h-67.312v4.73h21.562v7.03H753.78v20.06h21.094c-1.11 2.3-2.688 4.91-4.344 7.36h-21.969v4.66h18.891a121.017 121.017 0 01-8.297 10.5c6.781 1.27 13.5 2.69 19.828 4.11-7.906 2.92-17.781 4.5-30.109 5.3.875 1.18 1.75 3 2.218 4.57 14.844-1.26 26.625-3.62 35.391-7.98 10.188 2.61 19.109 5.53 25.594 8.23l4.5-4.12c-6.391-2.44-14.922-5.05-24.328-7.42 4.734-3.39 8.453-7.74 10.984-13.19h15.156M900.957 1471.26v-5.29h-32.625v-15.41h26.703v-5.22h-26.703v-12.75h-5.453v12.75h-26.156v5.22h26.156v15.41h-32.313v5.29h25.438c-5.219 9.1-11.922 17.88-14.219 20.24-2.297 2.86-4.109 4.83-5.766 5.06.704 1.42 1.579 4.11 1.735 5.22 2.922-1.11 7.187-1.42 50.484-4.89 1.578 2.52 3 4.89 4.031 6.95l4.969-2.76c-3.719-6.89-11.453-17.33-18.562-25.08l-4.578 2.14c3.781 4.19 7.734 9.33 11.14 14.23l-40.453 2.93c6.078-6.64 12.328-15.18 17.703-24.04h38.469M966.98 1435.44c-2.46 6.09-6.88 14.48-10.35 19.62l4.35 1.89c3.62-5.14 8.04-12.89 11.53-19.53l-5.53-1.98m-38.39 18.67c-1.91-4.99-6.17-12.42-10.6-17.95l-4.65 1.98c4.18 5.45 8.53 13.12 10.26 18.19l4.99-2.22m16.98-21.52h-5.61v28h-25.67v5.22h51.73v12.08h-49.2v5.06h49.2v13.11h-53.23v5.22h53.23v3.5h5.46v-44.19h-25.91v-28M1062.69 1485.72c-5.12 5.14-14.76 11.31-22.75 15.11 1.19 1.03 2.92 2.86 3.72 3.79 7.99-3.95 17.53-10.2 24.02-15.81l-4.99-3.09m19.13 3.4c7.73 4.43 17.84 11.08 22.75 15.19l4.03-3.95c-5.22-4.19-15.25-10.44-22.91-14.64l-3.87 3.4m-23.39-30.18h27.58v19.11h-27.58v-19.11m32.95 19.11v-19.11h14.38v-4.99h-47.33v-11.76c14.86-.63 31.92-2.21 43.14-4.43l-2.85-4.76c-10.9 2.31-29.93 3.89-45.57 4.76v40.29h-13.68v5.06h70.71v-5.06h-18.8M1266.04 1446.45c-1.75-3.25-5.45-8.15-8.69-11.64l-4.51 2.06c3.25 3.64 6.87 8.71 8.45 11.88l4.75-2.3m11.37 5.22c.24-3.41.32-6.73.32-9.73v-9.18h-5.3v9.1c0 3-.08 6.33-.31 9.81h-25.75v5.22h25.2c-1.91 14.22-8.14 30.25-27.5 42.89 1.34.86 3.25 2.61 4.11 3.78 20.55-13.65 26.94-31.28 28.75-46.67h27.73c-1.11 27.56-2.37 38.22-4.81 40.59-.8 1.03-1.75 1.19-3.4 1.19-1.9 0-6.96 0-12.24-.55 1.02 1.58 1.66 3.79 1.81 5.44 4.74.25 9.8.41 12.49.25 2.76-.25 4.5-.95 6.15-2.92 3.08-3.64 4.27-14.7 5.54-46.45 0-.72.07-2.77.07-2.77h-32.86m17.3 30.49c-2.14-4.11-7.03-10.5-11.3-15.16l-4.18 2.12c4.11 4.83 8.84 11.46 10.9 15.64l4.58-2.6M1415.09 1438.72l-1.18.31h-56.87v5.14h51.81c-6 5.69-15 12.16-22.75 15.95v37.44c0 1.35-.47 1.83-2.12 1.91-1.83.08-7.83.15-14.63-.08.88 1.5 1.91 3.7 2.22 5.28 8.05 0 13.11-.08 16.11-.94 2.92-.87 3.87-2.37 3.87-6.17v-34.83c9.8-5.29 20.69-13.43 27.64-21.09l-4.1-2.92M1451.58 1432.94c-4.6 12.01-12.25 23.86-20.24 31.37.95 1.27 2.45 3.88 3.02 5.13 3.07-3.16 6.07-6.71 8.92-10.74v45.77h5.05v-53.6c3.09-5.2 5.85-10.81 8.14-16.43l-4.89-1.5m12.71 8.22h30.33v15.17h-30.33v-15.17m40.05 35v-4.82h-22.36v-10.26h17.94v-24.66h-40.69v24.66h17.45v10.26h-23.37v4.82h20.14c-5.37 8.54-14.06 16.84-22.28 20.87 1.19.95 2.76 2.86 3.64 4.13 7.98-4.52 16.27-12.82 21.87-21.91v25.47h5.3v-25.64c5.3 9.01 13.27 17.48 20.7 22.23.86-1.34 2.52-3.25 3.71-4.19-7.74-4.2-16.11-12.42-21.17-20.96h19.12M1562.49 1483.58v-13.97h16.28v-4.6h-16.28v-11.92h18.33v-4.73h-40.68v4.73h17.46v11.92h-15.25v4.6h15.25v13.97h-18.64v4.51h43.51v-4.51h-19.98m5.37-10.35c3 2.77 6.49 6.57 8.06 9.08l3.55-2.12c-1.58-2.53-5.12-6.24-8.12-8.85l-3.49 1.89m-34.51 22.6v-54.58h54.03v54.58h-54.03m-5.3-59.49v68.44h5.3v-4.06h54.03v4.06h5.45v-68.44h-64.78M1655.38 1444.87c-.79-3.4-2.45-8.54-4.11-12.59l-5.06 1.42c1.58 4.05 3.24 9.35 3.88 12.75l5.29-1.58m28.03 2.77h-63.42v5.22h63.42v-5.22m-39.17 43.37c-1.34-9.17-4.75-22.82-7.9-33.5l-5.22 1.19c3.01 10.5 6.48 24.49 7.67 33.66l5.45-1.35m16.27 4.97c4.26-10.18 8.92-25.51 12.4-37.43l-6-1.11c-2.6 11.61-7.67 28.36-12.01 38.54h-38.24v5.3h69.83v-5.3h-25.98M1769.69 1438.72l-1.18.31h-56.87v5.14h51.81c-6 5.69-15 12.16-22.75 15.95v37.44c0 1.35-.47 1.83-2.12 1.91-1.83.08-7.83.15-14.63-.08.88 1.5 1.91 3.7 2.22 5.28 8.05 0 13.11-.08 16.11-.94 2.92-.87 3.87-2.37 3.87-6.17v-34.83c9.8-5.29 20.69-13.43 27.65-21.09l-4.11-2.92M1868.47 1460.83v-5.36h-32.93c1.18-8.47 1.26-16.38 1.34-22.72h-5.53c-.08 6.17 0 14.17-1.27 22.72h-30.48v5.36h29.53c-3.24 15.18-11.13 30.84-30.95 39.45 1.34 1.11 3.07 2.92 3.93 4.36 19.68-9.02 28.13-24.83 31.85-40.48 6.08 18.5 16.42 33.12 31.83 40.39.95-1.58 2.6-3.71 3.87-4.89-15.25-6.41-25.67-21.04-31.28-38.83h30.09M2071.3 1476.47c-4.34 1.11-8.77 2.37-12.95 3.48v-32.78h11.68v-4.98h-28.75v4.98h11.85v34.2c-4.89 1.19-9.31 2.36-12.88 3.24l1.35 5.3c8.22-2.3 19.59-5.46 30.26-8.54l-.56-4.9m39.58-25.67h-21.56c.15-5.38.23-10.99.23-16.77h-5.3c0 5.78-.07 11.39-.23 16.77h-13.5v5.06h13.26c-1.18 19.26-5.45 35.7-22.51 44.78 1.26.87 2.92 2.77 3.8 4.05 18.09-10.13 22.67-27.97 24.01-48.83h16.5c-1.17 28.67-2.44 39.34-4.89 41.94-.8 1.03-1.66 1.18-3.31 1.18-1.67 0-6.25 0-11.14-.47.86 1.5 1.42 3.63 1.58 5.15 4.5.31 9.07.46 11.61.23 2.6-.23 4.26-.88 5.84-2.92 3-3.56 4.26-14.86 5.61-47.41v-2.76M2246.49 1444.17v34.13h-7.67v-34.13h7.67m4.26-5.14h-16.12v52.16h4.19v-7.77h11.93v-44.39m18.96-3.64l-.71.25h-13.35v68.98h4.34v-64.32h7.44c-1.27 5.92-3.02 12.87-4.99 19.98 4.58 7.42 6.41 12.33 6.41 16.98 0 2.54-.41 5.38-1.42 6.24-.49.48-1.19.64-2.07.64-.95.08-2.37.08-3.79-.08.72 1.19 1.11 3 1.18 4.27 1.5.08 3.16.08 4.35-.16 1.26-.08 2.53-.56 3.4-1.34 1.82-1.42 2.69-5.38 2.69-9.49 0-4.89-2.06-10.26-6.56-17.61 2.37-8.06 4.5-16.04 6.23-22.59l-3.15-1.75m16.59 20.31v22.99h-6.72v-22.99h6.72m3.95 27.8v-32.63h-14.46v38.16h3.79v-5.53h10.67m13.58-47.08h-29.37v5.06h20.92v55.85c0 1.18-.39 1.58-1.58 1.58-1.19.07-5.22.15-9.64 0 .64 1.42 1.5 3.71 1.67 5.14 5.52-.08 9.08-.16 11.21-1.04 2.06-.87 2.68-2.53 2.68-5.68v-55.85h4.11v-5.06" class="prefix__Lyrics" />
   <path d="M424.801 38.77h-3.297v44.969c-1.141-.672-2.516-1.094-4.094-1.265-.437-.047-.89-.063-1.344-.063-2.718 0-5.656.781-8.39 2.266-3.188 1.718-5.75 4.187-7.172 6.922-1.453 2.765-1.594 5.468-.422 7.64 1.375 2.578 4.391 3.906 7.938 3.906 2.64 0 5.593-.734 8.406-2.25 5.14-2.781 8.359-7.375 8.375-11.375V38.77M446.379 91.099h30.234v-6.907h-30.234v6.907m0-12.36h30.234v-6.906h-30.234v6.906m62.062-3.781c0-2.875.594-7.688 1.188-10.141 1.391-4.922 3.672-7.562 6.734-7.562 1.5 0 2.578.547 2.578 1.375 0 .422-.062.609-.484 1.14a6.033 6.033 0 00-1.203 3.547c0 2.703 2.156 4.625 5.281 4.625 3.422 0 5.578-2.109 5.578-5.406 0-5.156-4.375-8.406-11.218-8.406-5.766 0-10.204 2.219-13.672 6.844-3.547 4.625-5.172 10.14-5.172 17.281 0 6 1.265 10.265 4.078 13.734 2.953 3.61 6.969 5.469 11.891 5.469 8.812 0 15.234-5.938 15.234-14.219 0-7.203-4.922-12.25-12.063-12.25-3.89 0-6.234 1.094-8.75 3.969m5.641.531c3.109.125 4.734 3 4.734 8.406 0 6.954-1.734 10.735-4.921 10.735-3.235 0-5.094-3.469-5.094-9.656 0-2.157.172-4.016.469-5.407.671-2.578 2.531-4.187 4.812-4.078m33.453-21.359c-9 0-15.594 9.187-15.594 21.672 0 12.468 6.594 21.656 15.594 21.656 8.813 0 15.547-9.188 15.547-21.359 0-7.079-1.625-12.297-5.172-16.75-2.812-3.407-6.359-5.219-10.375-5.219m-.062 3.125c1.797 0 3.25 1.078 3.906 3 .781 1.984 1.25 8.281 1.25 15.719 0 6.187-.469 12.656-1.016 14.703-.656 2.39-2.093 3.656-4.14 3.656-1.86 0-3.235-1.016-3.953-3-.782-1.984-1.266-8.344-1.266-15.531 0-6.313.484-12.844 1.016-14.891.671-2.391 2.109-3.656 4.203-3.656" class="prefix__Tempo" />
   <path d="M800.418 257.835a4.955 4.955 0 004.96 4.96 4.955 4.955 0 004.961-4.96 4.955 4.955 0 00-4.96-4.96 4.955 4.955 0 00-4.961 4.96M661.986 528.29a4.955 4.955 0 004.96 4.96 4.955 4.955 0 004.961-4.96 4.955 4.955 0 00-4.96-4.96 4.955 4.955 0 00-4.961 4.96M2504.1 627.5a4.955 4.955 0 004.96 4.96 4.955 4.955 0 004.961-4.96 4.955 4.955 0 00-4.96-4.96 4.955 4.955 0 00-4.961 4.96M664.458 937.95a4.955 4.955 0 004.96 4.96 4.955 4.955 0 004.961-4.96 4.955 4.955 0 00-4.96-4.96 4.955 4.955 0 00-4.961 4.96M1256.02 888.34a4.955 4.955 0 004.96 4.96 4.955 4.955 0 004.961-4.96 4.955 4.955 0 00-4.96-4.96 4.955 4.955 0 00-4.961 4.96M576.539 1288.4a4.955 4.955 0 004.96 4.96 4.955 4.955 0 004.961-4.96 4.955 4.955 0 00-4.96-4.96 4.955 4.955 0 00-4.961 4.96M1305.51 1313.21a4.955 4.955 0 004.96 4.96 4.955 4.955 0 004.961-4.96 4.955 4.955 0 00-4.96-4.96 4.955 4.955 0 00-4.961 4.96" class="prefix__NoteDot" />
</svg>