<?xml version="1.0" standalone="no"?>
<!DOCTYPE svg PUBLIC "-//W3C//DTD SVG 1.1//EN" "http://www.w3.org/Graphics/SVG/1.1/DTD/svg11.dtd" >
<svg>
<metadata>
Created by FontForge 20120731 at Wed Apr 17 22:34:38 2019
 By www-data
Digitized by Dan X. Solo. Software (c) 2001 by Doiver Publications Inc., New York.  
</metadata>
<defs>
<font id="AdvertisersOutline" horiz-adv-x="196" >
  <font-face 
    font-family="Advertisers Outline"
    font-weight="400"
    font-stretch="normal"
    units-per-em="1000"
    panose-1="0 0 4 0 0 0 0 0 0 0"
    ascent="800"
    descent="-200"
    x-height="567"
    cap-height="667"
    bbox="-59 -310 743 863"
    underline-thickness="20"
    underline-position="-123"
    unicode-range="U+0020-F002"
  />
<missing-glyph horiz-adv-x="500" 
d="M63 0v800h375v-800h-375zM125 63h250v675h-250v-675z" />
    <glyph glyph-name=".notdef" horiz-adv-x="500" 
d="M63 0v800h375v-800h-375zM125 63h250v675h-250v-675z" />
    <glyph glyph-name=".null" horiz-adv-x="0" 
 />
    <glyph glyph-name="glyph2" 
 />
    <glyph glyph-name="space" unicode=" " 
 />
    <glyph glyph-name="exclam" unicode="!" horiz-adv-x="224" 
d="M150 197h-106l-17 470h139zM131 217l14 430h-97l16 -430h67zM27 149h139v-149h-139v149zM47 129v-109h99v109h-99z" />
    <glyph glyph-name="quotedbl" unicode="&#x22;" horiz-adv-x="397" 
d="M221 399l-26 268h147l-27 -268h-94zM239 419h58l23 228h-103zM26 399l-26 268h147l-27 -268h-94zM44 419h58l23 228h-103z" />
    <glyph glyph-name="numbersign" unicode="#" horiz-adv-x="500" 
d="M311 1h-88l17 128h-83l-16 -128h-89l17 128h-68l14 133h69l19 154h-69l16 129h69l16 123h90l-17 -123h81l16 123h90l-17 -123h76l-17 -129h-75l-20 -154h76l-14 -133h-76zM293 24l17 128h76l9 87h-76l25 200h76l10 83h-75l16 123h-48l-16 -123h-123l17 123h-49l-15 -123
h-69l-11 -83h69l-25 -200h-69l-9 -87h69l-17 -128h48l17 128h123l-17 -128h47zM191 416l-19 -154h82l19 154h-82zM174 439h122l-25 -200h-122z" />
    <glyph glyph-name="dollar" unicode="$" horiz-adv-x="409" 
d="M136 -75v73q-113 16 -127 117q-3 18 -3 75v42h130v-41q0 -83 42 -83q46 0 46 65q0 46 -27 78q-9 12 -61 56q-67 55 -91 87q-41 55 -41 119q0 135 129 156v67h80v-66q131 -15 134 -134l2 -57h-129v18q0 61 -42 61q-17 0 -28.5 -12t-11.5 -30q0 -21 17 -42q10 -14 77 -71
q75 -63 93 -91q34 -48 34 -129q0 -168 -143 -186v-72h-80zM240 499h88l-1 36q-3 106 -133 116v65h-41v-65q-129 -15 -129 -138q0 -67 54 -127q10 -10 106 -93q60 -52 60 -120q0 -85 -66 -85q-62 0 -62 103v21h-90v-22q0 -55 2 -70q5 -40 27 -63q34 -36 102 -44l-1 -68l38 4
l1 61q144 13 144 173q0 75 -32 120q-16 24 -88 85q-68 58 -80 74q-21 26 -21 54q0 25 17 43.5t43 18.5q61 0 62 -79z" />
    <glyph glyph-name="percent" unicode="%" horiz-adv-x="612" 
d="M125 0l234 667h80l-235 -667h-79zM153 20h37l220 627h-37zM465 -3q-114 0 -114 118v153q0 116 109 116q111 0 111 -121v-148q0 -118 -106 -118zM465 17q86 0 86 98v148q0 101 -91 101q-89 0 -89 -96v-153q0 -98 94 -98zM462 317q-24 0 -24 -33v-185q0 -32 24 -32
q22 0 22 28v193q0 29 -22 29zM489 327q15 -15 15 -39v-193q0 -19 -11.5 -33.5t-30.5 -14.5q-44 0 -44 52v185q0 53 44 53q16 0 27 -10zM114 294q-114 0 -114 118v153q0 116 109 116q110 0 110 -121v-148q0 -118 -105 -118zM114 314q85 0 85 98v148q0 101 -90 101
q-89 0 -89 -96v-153q0 -98 94 -98zM110 614q-23 0 -23 -33v-185q0 -32 23 -32t23 28v193q0 29 -23 29zM138 623q15 -14 15 -38v-193q0 -20 -11.5 -34t-31.5 -14q-43 0 -43 52v185q0 53 43 53q17 0 28 -11z" />
    <glyph glyph-name="ampersand" unicode="&#x26;" horiz-adv-x="470" 
d="M255 43q-46 -53 -104 -53q-81 0 -117 53q-27 40 -27 138q0 82 20 123.5t82 92.5q-40 90 -40 143q0 62 41 99.5t102 37.5t100.5 -32.5t39.5 -91.5q0 -93 -95 -173l26 -55q30 56 73 94l60 -72q-60 -60 -84 -146l92 -201h-150zM261 82l26 -62h106l-82 179q23 89 78 149
l-35 42q-32 -31 -72 -111l-50 107q100 80 100 167q0 50 -33.5 77t-86.5 27t-88 -31.5t-35 -85.5q0 -51 45 -148q-67 -54 -85 -88q-22 -40 -22 -123q0 -62 8 -91q14 -49 55 -67q27 -13 61 -13q35 0 63 22q18 13 47 50zM221 588q-33 0 -33 -33q0 -25 29 -77q40 34 40 74
q0 36 -36 36zM221 608q24 0 40 -16t16 -40q0 -53 -66 -104q-43 75 -43 107q0 23 15.5 38t37.5 15zM142 243q-4 -23 -4 -51q0 -83 36 -83q19 0 34 51l-49 121q-14 -23 -17 -38zM163 325l66 -164q-11 -37 -16 -47q-14 -25 -39 -25q-56 0 -56 103q0 30 4.5 53.5t40.5 79.5z" />
    <glyph glyph-name="quotesingle" unicode="'" horiz-adv-x="217" 
d="M26 399l-26 268h162l-27 -268h-109zM44 419h73l23 228h-118z" />
    <glyph glyph-name="parenleft" unicode="(" horiz-adv-x="248" 
d="M17 61q-14 52 -14 128v215q0 162 71 230q51 49 121 53v-131q-42 -17 -55 -64q-9 -28 -9 -88v-215q0 -60 9 -88q14 -46 55 -63v-132q-68 3 -116 47q-44 40 -62 108zM36 66q14 -53 49 -90q39 -42 90 -48v97q-64 32 -64 164v215q0 133 64 165v96q-48 -6 -84.5 -42.5
t-51.5 -84.5q-16 -53 -16 -134v-215q0 -73 13 -123z" />
    <glyph glyph-name="parenright" unicode=")" horiz-adv-x="255" 
d="M124 -42q-51 -48 -121 -52v132q42 17 56 63q8 28 8 88v215q0 59 -9 88q-13 46 -55 64v131q69 -3 116 -47q45 -40 62 -108q14 -53 14 -128v-215q0 -163 -71 -231zM111 -27q64 62 64 216v215q0 141 -51 202q-45 53 -101 60v-97q64 -33 64 -165v-215q0 -132 -64 -164v-97
q47 6 88 45z" />
    <glyph glyph-name="asterisk" unicode="*" horiz-adv-x="373" 
d="M280 432l-73 41v-84h-77v85l-75 -42l-37 66l73 43l-73 42l37 66l75 -42v85h77v-85l73 42l39 -66l-74 -43l74 -42zM272 619l-87 -50v101h-33v-101l-88 50l-16 -28l86 -50l-86 -51l16 -28l88 50v-101h33v100l87 -49l17 28l-88 51l88 50z" />
    <glyph glyph-name="plus" unicode="+" horiz-adv-x="547" 
d="M317 102h-115v199h-202v112h202v198h115v-198h203v-112h-203v-199zM289 130v199h203v56h-203v198h-59v-198h-202v-56h202v-199h59z" />
    <glyph glyph-name="comma" unicode="," horiz-adv-x="200" 
d="M2 -50l39 50h-39v150h136v-150l-95 -94zM26 -45l20 -20l72 76v119h-96v-110l57 -1z" />
    <glyph glyph-name="hyphen" unicode="-" horiz-adv-x="269" 
d="M0 352h208v-123h-208v123zM20 332v-83h168v83h-168z" />
    <glyph glyph-name="hyphen" unicode="&#x2010;" horiz-adv-x="269" 
d="M0 352h208v-123h-208v123zM20 332v-83h168v83h-168z" />
    <glyph glyph-name="period" unicode="." horiz-adv-x="198" 
d="M1 148h139v-148h-139v148zM21 128v-108h99v108h-99z" />
    <glyph glyph-name="slash" unicode="/" horiz-adv-x="377" 
d="M342 667h-94l-253 -734h92zM314 647l-241 -694h-50l240 694h51z" />
    <glyph glyph-name="zero" unicode="0" horiz-adv-x="449" 
d="M231 -10q-139 0 -173 104q-13 38 -13 99v286q0 198 178 198q181 0 181 -207v-277q0 -203 -173 -203zM231 10q153 0 153 183v277q0 91 -33 135q-39 52 -128 52q-158 0 -158 -178v-286q0 -91 34 -134q40 -49 132 -49zM224 562q-37 0 -37 -56v-341q0 -56 38 -56q37 0 37 49
v355q0 49 -38 49zM224 582q58 0 58 -69v-355q0 -29 -14.5 -49t-42.5 -20q-58 0 -58 76v341q0 76 57 76z" />
    <glyph glyph-name="one" unicode="1" horiz-adv-x="449" 
d="M202 -3v508q-33 -20 -98 -26v110q92 19 132 80h109v-672h-143zM222 17h103v632h-78q-40 -57 -123 -76v-72q32 4 52 13q14 6 46 28v-525z" />
    <glyph glyph-name="two" unicode="2" horiz-adv-x="449" 
d="M215 124h186v-124h-356q-1 16 -1 20q0 99 54 186q8 14 90 119q64 80 72 118q6 23 6 51q0 66 -40 66q-27 0 -33 -29q-3 -15 -3 -78v-37h-140v86q0 175 174 175q181 0 181 -185q0 -78 -28 -136q-21 -45 -78 -111.5t-84 -120.5zM64 20h317v84h-197q35 78 98 152
q56 65 76 107q27 55 27 129q0 165 -161 165q-154 0 -154 -155v-66h100v17q0 64 3 79q10 48 53 48q60 0 60 -86q0 -76 -55 -145q-95 -119 -116 -154q-51 -82 -51 -175z" />
    <glyph glyph-name="three" unicode="3" horiz-adv-x="449" 
d="M313 8q-40 -18 -91 -18q-175 0 -175 182v80h140v-58q0 -37 3 -51q8 -31 35 -31q29 0 36 37q2 11 2 59q0 55 -8 72q-14 29 -61 29h-51v115h17q51 0 71 10q30 15 30 61q0 64 -37 64q-35 0 -35 -61v-22h-141v17q0 74 15 107q21 46 85 65q37 12 82 12q95 0 135 -50
q36 -44 36 -137q0 -65 -9 -88q-7 -17 -37 -34q28 -15 36 -31q11 -22 11 -105q0 -93 -10 -129q-18 -67 -79 -95zM68 496h101v2q0 81 55 81q57 0 57 -84q0 -55 -35 -76q-25 -15 -83 -15v-75h31q57 0 76 -34q13 -24 13 -87q0 -54 -5 -74q-12 -42 -53 -42q-58 0 -58 102v38h-100
v-60q0 -85 36.5 -123.5t118.5 -38.5q115 0 147 84q13 34 13 138q0 78 -9 96q-7 13 -64 40q33 16 36 17q24 14 28 24q8 19 8 81q0 85 -30 123q-35 44 -121 44q-121 0 -150 -68q-11 -27 -12 -93z" />
    <glyph glyph-name="four" unicode="4" horiz-adv-x="449" 
d="M384 0h-141v112h-213v111l130 443h224v-432h35v-122h-35v-112zM364 20v112h35v82h-35v432h-189l-125 -426v-88h213v-112h101zM208 380l-42 -146h83v141q0 58 7 194h-1q-15 -63 -47 -189zM188 386q10 32 52 206l37 -6q-8 -151 -8 -211v-161h-130z" />
    <glyph glyph-name="five" unicode="5" horiz-adv-x="449" 
d="M225 -10q-93 0 -136.5 43t-43.5 137v79h139v-61q0 -37 4 -52q8 -30 35 -30q39 0 39 76v112q0 38 -3 51q-8 30 -36 30q-32 0 -39 -50h-122v341h312v-122h-183v-76q36 16 69 16q53 0 91 -27q41 -30 48 -81q5 -37 5 -93v-85q0 -103 -36 -151q-42 -57 -143 -57zM225 10
q92 0 128 51q31 43 31 137v85q0 60 -3 80q-7 46 -33 70q-34 31 -88 31q-33 0 -89 -29v129h183v82h-272v-301h85q11 50 56 50q38 0 52 -35q7 -20 7 -66v-112q0 -96 -59 -96t-59 102v41h-99v-59q0 -85 37.5 -122.5t122.5 -37.5z" />
    <glyph glyph-name="six" unicode="6" horiz-adv-x="449" 
d="M306 5q-37 -15 -80 -15q-182 0 -182 202v307q0 86 48 134.5t133 48.5q177 0 177 -179q0 -11 -1 -33h-139v30q0 59 -37 59q-39 0 -39 -60v-101q37 36 85 36q62 0 97 -40q32 -37 35 -100q2 -37 2 -71q0 -90 -13 -128q-20 -64 -86 -90zM299 23q59 24 76 84q10 33 10 116
q0 74 -4 97q-11 55 -49 78q-28 16 -61 16q-35 0 -59 -19q-3 -2 -46 -46v150q0 80 59 80q57 0 57 -79v-10h100v13q0 119 -89 149q-32 10 -68 10q-76 0 -118.5 -42.5t-42.5 -120.5v-307q0 -182 162 -182q39 0 73 13zM224 317q-38 0 -38 -50v-98q0 -52 37 -52q39 0 39 52v98
q0 50 -38 50zM269 315q13 -18 13 -48v-98q0 -72 -59 -72q-57 0 -57 72v98q0 29 15 49.5t43 20.5t45 -22z" />
    <glyph glyph-name="seven" unicode="7" horiz-adv-x="449" 
d="M300 320q-68 -163 -70 -320h-148q5 115 30 205q21 79 74 196q45 100 59 142h-196v123h350q1 -19 1 -24q0 -64 -36 -164q-10 -27 -64 -158zM281 328q58 137 64 154q36 99 35 160v4h-311v-83h203q-16 -57 -78 -196q-55 -124 -72 -202q-15 -69 -19 -145h107q4 146 71 308z
" />
    <glyph glyph-name="eight" unicode="8" horiz-adv-x="449" 
d="M224 -10q-60 0 -103 22q-53 27 -66 79q-11 40 -11 101q0 107 10 139q7 20 31 41q-22 16 -28 34q-10 35 -10 84q0 187 178 187q102 0 143 -53q35 -46 35 -149q0 -42 -5 -58q-7 -25 -32 -46q23 -18 30 -39q9 -25 9 -135q0 -78 -16 -115q-40 -92 -165 -92zM224 10
q94 0 131 52q30 42 30 135q0 106 -8 129q-6 18 -45 45q36 27 43.5 41.5t7.5 62.5q0 95 -29 134q-36 48 -129 48q-84 0 -121 -41t-37 -126q0 -46 9 -78q5 -15 42 -39q-22 -17 -26 -21q-14 -14 -19 -27q-9 -29 -9 -133q0 -54 6 -82q11 -45 42 -69q41 -31 112 -31zM225 560
q-35 0 -35 -66q0 -64 36 -64q35 0 35 58q0 34 -3 46q-7 26 -33 26zM225 580q36 0 49 -31q7 -19 7 -61q0 -78 -55 -78q-56 0 -56 84q0 86 55 86zM256 293q-9 19 -32 19q-27 0 -34 -27q-3 -12 -3 -48v-61q0 -69 36 -69q29 0 36 32q2 11 2 53v49q0 41 -5 52zM279 286
q2 -16 2 -45v-49q0 -49 -6 -68q-12 -37 -52 -37q-56 0 -56 89v61q0 43 7 62q12 33 50 33q46 0 55 -46z" />
    <glyph glyph-name="nine" unicode="9" horiz-adv-x="449" 
d="M222 -10q-176 0 -176 173v29h139v-19q0 -60 37 -60q39 0 39 59v92q-38 -35 -80 -35q-81 0 -111 53q-22 39 -22 125v76q0 83 23 122q44 72 152 72q123 0 163 -95q17 -40 17 -102v-308q0 -182 -181 -182zM165 172h-99v-9q0 -80 37.5 -116.5t118.5 -36.5q161 0 161 162v308
q0 108 -62 150q-39 27 -98 27q-88 0 -124 -47q-31 -40 -31 -127v-76q0 -78 17 -110q25 -48 96 -48q30 0 56 19q2 2 44 43v-139q0 -79 -59 -79q-57 0 -57 79zM222 555q-37 0 -37 -53v-104q0 -53 37 -53q39 0 39 53v104q0 53 -39 53zM222 575q59 0 59 -73v-104q0 -73 -59 -73
q-57 0 -57 73v104q0 30 14.5 51.5t42.5 21.5z" />
    <glyph glyph-name="colon" unicode=":" horiz-adv-x="195" 
d="M1 567h139v-148h-139v148zM21 547v-108h99v108h-99zM1 148h139v-148h-139v148zM21 128v-108h99v108h-99z" />
    <glyph glyph-name="semicolon" unicode=";" horiz-adv-x="189" 
d="M1 567h139v-148h-139v148zM21 547v-108h99v108h-99zM2 -50l39 50h-39v150h136v-150l-95 -94zM26 -45l20 -20l72 76v119h-96v-110l57 -1z" />
    <glyph glyph-name="less" unicode="&#x3c;" horiz-adv-x="489" 
d="M3 398l433 226v-145l-279 -143l279 -143v-143l-433 226v122zM23 386v-98l393 -205v98l-303 155l303 156v99z" />
    <glyph glyph-name="equal" unicode="=" horiz-adv-x="511" 
d="M1 465h478v-87h-478v87zM21 445v-47h438v47h-438zM1 295h478v-86h-478v86zM21 275v-46h438v46h-438z" />
    <glyph glyph-name="greater" unicode="&#x3e;" horiz-adv-x="460" 
d="M2 194l279 143l-279 143v144l433 -226v-122l-433 -226v144zM22 182v-99l393 205v98l-393 205v-98l303 -156z" />
    <glyph glyph-name="question" unicode="?" horiz-adv-x="377" 
d="M259 309q-45 -67 -45 -122v-10l-116 -1q2 84 14 126q14 53 59 115q27 36 27 70q0 33 -3 46q-7 26 -32 26q-23 0 -30 -21q-3 -10 -3 -38v-58h-130v49q0 81 17 115q23 49 94 65q25 5 48 5q79 0 126.5 -43.5t47.5 -122.5q0 -61 -20 -108q-13 -32 -54 -93zM243 320
q39 59 51 88q19 44 19 102q0 70 -41.5 108t-112.5 38q-116 0 -134 -85q-5 -26 -5 -80v-29h90v38q0 79 53 79q55 0 55 -92q0 -40 -30 -82q-39 -53 -53 -97.5t-16 -111.5l76 1q3 57 48 123zM85 149h139v-149h-139v149zM105 129v-109h99v109h-99z" />
    <glyph glyph-name="at" unicode="@" horiz-adv-x="684" 
d="M637 383q0 -97 -72 -169q-65 -65 -136 -65q-55 0 -74 46q-53 -46 -104 -46q-58 0 -88 36q-28 33 -28 88q0 81 53 151q57 76 137 76q63 0 94 -52l14 37h72q-24 -68 -49 -135q-29 -80 -38 -138l8 -17q14 -6 27 -6q37 0 82 49q60 64 60 141q0 94 -81.5 166.5t-186.5 72.5
q-119 0 -206 -99q-77 -87 -77 -188q0 -118 95 -208t212 -90q140 0 222 136h53q-42 -89 -119 -135q-70 -42 -156 -42q-138 0 -245 92q-112 97 -112 236q0 71 33 145q43 94 133 146q83 49 181 49q122 0 205 -70q91 -77 91 -207zM396 404q0 22 -14 38.5t-36 16.5q-41 0 -77 -47
q-27 -37 -42 -86q-12 -39 -12 -70q0 -71 48 -71q26 0 53.5 27t45.5 77q34 90 34 115z" />
    <glyph glyph-name="A" unicode="A" horiz-adv-x="433" 
d="M229 95h-77l-13 -95h-139l94 667h192l93 -667h-142zM247 115l8 -95h101l-88 627h-157l-88 -627h98l13 95h113zM191 555h-2q-7 -105 -26 -334h53q-16 184 -25 334zM210 565q15 -217 28 -364h-97q11 124 30 374h38z" />
    <glyph glyph-name="B" unicode="B" horiz-adv-x="413" 
d="M282 13q-30 -13 -84 -13h-199v667h205q53 0 81 -12q38 -16 55 -61q14 -38 14 -102q0 -70 -13 -95q-7 -13 -40 -27q32 -10 44 -33q9 -18 11 -54v-89q0 -73 -8 -104q-16 -54 -66 -77zM274 31q43 20 56 70q6 26 6 93q0 110 -8 130.5t-41 30.5q-27 6 -55 12q78 27 86 35
q16 16 16 90q0 113 -49 141q-23 14 -81 14h-185v-627h179q50 0 76 11zM173 547h-31v-113h29q43 0 43 57q0 56 -41 56zM173 567q61 0 61 -76q0 -77 -63 -77h-49v153h51zM168 319h-26v-194h28q37 0 46 40q3 13 3 70q0 42 -6 57q-10 27 -45 27zM168 339q44 0 60 -32
q11 -22 11 -72q0 -64 -6 -85q-14 -45 -63 -45h-48v234h46z" />
    <glyph glyph-name="C" unicode="C" horiz-adv-x="413" 
d="M181 -10q-77 0 -124 36q-50 38 -56 111q-2 26 -2 65v279q0 85 22 122q45 74 167 74q174 0 174 -178v-85h-144v67q0 35 -3 47q-8 25 -34 25q-27 0 -35 -25q-4 -13 -4 -47v-279q0 -39 3 -52q8 -32 35 -32q28 0 35 32q3 11 3 52v89h144v-121q0 -180 -181 -180zM181 10
q161 0 161 160v101h-104v-69q0 -48 -7 -68q-12 -36 -51 -36q-38 0 -51 37q-7 20 -7 67v279q0 42 9 62q13 30 50 30t50 -31q7 -18 7 -61v-47h104v65q0 158 -154 158q-111 0 -150 -65q-19 -31 -19 -111v-279q0 -95 26 -134q38 -58 136 -58z" />
    <glyph glyph-name="D" unicode="D" horiz-adv-x="417" 
d="M285 21q-40 -21 -108 -21h-177v667h168q127 0 165 -60q28 -45 28 -184v-180q0 -91 -7 -124q-15 -70 -69 -98zM327 96q14 30 14 147v180q0 109 -13 148q-17 48 -65 65q-32 11 -95 11h-148v-627h157q116 0 150 76zM170 544h-28v-417h30q31 0 40 23q6 13 6 49v270
q0 38 -6 52q-10 23 -42 23zM227 537q11 -19 11 -68v-270q0 -44 -11 -64q-15 -28 -55 -28h-50v457h48q40 0 57 -27z" />
    <glyph glyph-name="E" unicode="E" horiz-adv-x="351" 
d="M-1 667h294v-130h-150v-104h144v-127h-144v-176h156v-130h-300v667zM19 647v-627h260v90h-156v216h144v87h-144v144h150v90h-254z" />
    <glyph glyph-name="F" unicode="F" horiz-adv-x="337" 
d="M144 433h145v-128h-145v-305h-144v667h291v-129h-147v-105zM124 413v145h147v89h-251v-627h104v305h145v88h-145z" />
    <glyph glyph-name="G" unicode="G" horiz-adv-x="415" 
d="M220 448v57q0 55 -39 55q-27 0 -35 -26q-4 -12 -4 -48v-291q0 -79 41 -79q37 0 37 58v106h-39v125h178v-405h-55l-17 44q-57 -54 -128 -54q-161 0 -161 194v287q0 87 25 128q47 77 158 77q96 0 139 -49q41 -45 41 -140q0 -12 -2 -39h-139zM240 468h100q1 11 1 19
q0 86 -35 126q-38 43 -125 43q-91 0 -130 -51q-33 -44 -33 -134v-287q0 -174 141 -174q42 0 75 19q25 15 60 51l24 -60h21v365h-138v-85h39v-126q0 -78 -57 -78q-41 0 -55 39q-6 17 -6 60v291q0 44 8 63q13 31 51 31q59 0 59 -75v-37z" />
    <glyph glyph-name="H" unicode="H" horiz-adv-x="425" 
d="M220 313h-76v-313h-145v667h145v-226h76v226h144v-667h-144v313zM240 333v-313h104v627h-104v-226h-116v226h-105v-627h105v313h116z" />
    <glyph glyph-name="I" unicode="I" horiz-adv-x="205" 
d="M0 667h144v-667h-144v667zM20 647v-627h104v627h-104z" />
    <glyph glyph-name="J" unicode="J" horiz-adv-x="427" 
d="M292 14q-44 -24 -108 -24q-84 0 -131 41q-50 43 -50 126v135h143v-118q0 -60 38 -60q40 0 40 60v493h144v-474q0 -67 -12 -102q-16 -51 -64 -77zM282 32q43 23 57 69q9 31 9 92v454h-104v-473q0 -80 -60 -80q-58 0 -58 80v98h-103v-115q0 -147 161 -147q59 0 98 22z" />
    <glyph glyph-name="K" unicode="K" horiz-adv-x="410" 
d="M365 666l-131 -289l131 -377h-136l-93 243l-1 -243h-133v666h133l1 -189l89 189h140zM115 360l128 -340h95l-125 358l122 268h-96l-124 -264v264h-93v-626h93v340z" />
    <glyph glyph-name="L" unicode="L" horiz-adv-x="329" 
d="M0 667h143v-536h147v-131h-290v667zM20 647v-627h250v91h-147v536h-103z" />
    <glyph glyph-name="M" unicode="M" horiz-adv-x="623" 
d="M564 -1h-143l1 296q0 45 7 204l-83 -500q-68 1 -132 0l-84 500q7 -153 7 -204l1 -296h-143v667h227q20 -118 58 -413q16 75 31 206q18 156 26 207h227v-667zM544 19v627h-190q-23 -138 -67 -447h-17q-20 149 -65 447h-190v-627h103l-1 525l19 2l95 -527h98l94 527l19 -2
l-1 -525h103z" />
    <glyph glyph-name="N" unicode="N" horiz-adv-x="429" 
d="M114 351q0 -25 4 -94l1 -257h-121v667h164l75 -371l-2 371h119v-667h-167zM111 450l94 -430h131v627h-81l-1 -429h-13l-96 429h-125v-627h78v430h13z" />
    <glyph glyph-name="O" unicode="O" horiz-adv-x="423" 
d="M183 -10q-82 0 -131 44t-49 124v334q0 184 182 184q181 0 181 -184v-343q0 -77 -54 -120q-49 -39 -129 -39zM183 10q71 0 115 33q48 37 48 106v343q0 164 -161 164q-162 0 -162 -164v-334q0 -71 43.5 -109.5t116.5 -38.5zM186 557q-39 0 -39 -76v-277q0 -38 4 -52
q8 -31 36 -31q26 0 33 33q3 12 3 53v274q0 37 -4 49q-7 27 -33 27zM243 481v-274q0 -48 -6 -68q-12 -38 -50 -38q-39 0 -52 36q-8 21 -8 67v277q0 96 59 96q37 0 49 -32q8 -20 8 -64z" />
    <glyph glyph-name="P" unicode="P" horiz-adv-x="397" 
d="M295 319q-28 -14 -61 -14h-90v-305h-144v667h207q90 0 130 -63q23 -34 23 -121q0 -62 -9 -93q-14 -50 -56 -71zM286 337q36 18 47 64q7 26 7 82q0 81 -19 110q-35 54 -114 54h-187v-627h104v305h110q28 0 52 12zM171 543h-27v-115h29q45 0 45 57q0 58 -47 58zM171 563
q67 0 67 -78q0 -77 -65 -77h-49v155h47z" />
    <glyph glyph-name="Q" unicode="Q" horiz-adv-x="445" 
d="M238 -2q-27 -8 -55 -8q-56 0 -100 24q-49 27 -67 77q-13 37 -13 90v311q0 185 179 185q184 0 184 -177v-328q0 -60 -32 -113l60 -42l-60 -81zM241 20l88 -57l37 49l-59 41q25 40 30 55q9 24 9 64v328q0 157 -164 157q-159 0 -159 -165v-311q0 -115 75 -152q38 -19 85 -19
q27 0 58 10zM185 553q-38 0 -38 -69v-300q0 -67 38 -67t38 69v298q0 69 -38 69zM237 534q6 -18 6 -50v-298q0 -89 -58 -89t-58 87v300q0 89 58 89q40 0 52 -39z" />
    <glyph glyph-name="R" unicode="R" horiz-adv-x="416" 
d="M288 349q58 -17 66 -57q4 -15 4 -50v-242h-143v239q0 69 -58 69q-4 0 -13 -1v-307h-144v667h205q86 0 122 -44q32 -40 32 -126q0 -97 -28 -127q-12 -12 -43 -21zM246 358q60 15 70 26q23 24 23 113q0 78 -27 112q-30 38 -107 38h-185v-627h104v306q28 2 33 2q78 0 78 -89
v-219h103v222q0 46 -12 64t-43 26q-39 8 -77 15zM174 544h-30v-117h28q50 0 50 55q0 62 -48 62zM174 564q68 0 68 -82q0 -75 -70 -75h-48v157h50z" />
    <glyph glyph-name="S" unicode="S" horiz-adv-x="415" 
d="M37 40q-26 27 -33 71q-3 20 -3 79v47h140v-46q0 -78 37 -78q41 0 41 60q0 44 -26 75q-8 11 -60 55q-68 57 -93 90q-41 54 -41 120q0 164 177 164q172 0 176 -141l2 -62h-140q1 17 1 23q0 56 -37 56q-35 0 -35 -37q0 -19 15 -39q11 -14 97 -87q63 -53 83 -88
q26 -45 26 -119q0 -193 -185 -193q-96 0 -142 50zM51 53q41 -43 128 -43q165 0 165 173q0 76 -31 121q-17 26 -90 87q-69 59 -80 74q-20 25 -20 51q0 23 15.5 40t39.5 17q57 0 57 -76v-3h99l-2 42q-3 121 -156 121q-157 0 -157 -144q0 -60 40 -112q22 -29 86 -83
q55 -46 67 -61q27 -34 27 -84q0 -80 -61 -80q-57 0 -57 98v26h-100v-27q0 -56 2 -72q6 -41 28 -65z" />
    <glyph glyph-name="T" unicode="T" horiz-adv-x="363" 
d="M232 0h-144v533h-81v134h310v-134h-85v-533zM212 20v533h85v94h-270v-94h81v-533h104z" />
    <glyph glyph-name="U" unicode="U" horiz-adv-x="417" 
d="M175 -10q-176 0 -176 181v496h144v-496q0 -57 35 -57q36 0 36 57v496h144v-496q0 -181 -183 -181zM175 10q163 0 163 161v476h-104v-476q0 -77 -56 -77q-55 0 -55 77v476h-104v-476q0 -161 156 -161z" />
    <glyph glyph-name="V" unicode="V" horiz-adv-x="409" 
d="M84 0l-87 667h138l21 -177q2 -15 21 -230h1q5 77 19 231l20 176h141l-89 -667h-185zM102 20h149l85 627h-101l-18 -158q-2 -19 -20 -249h-38q-7 83 -23 248l-19 159h-98z" />
    <glyph glyph-name="W" unicode="W" horiz-adv-x="641" 
d="M351 0q-15 103 -39 315q-2 26 -9 99h-1q-8 -111 -46 -414h-181l-73 667h141q18 -180 36 -416h2q10 142 42 416h164q13 -118 34 -353q2 -30 5 -63h2q5 73 19 220l21 196h136l-73 -667h-180zM368 20h145l69 627h-96q-13 -123 -40 -416l-36 3q-8 94 -23 237l-18 176h-128
q-30 -258 -42 -416h-38q-5 76 -17 229l-19 187h-100l68 -627h145q18 137 45 413l39 1l10 -117q6 -77 36 -297z" />
    <glyph glyph-name="X" unicode="X" horiz-adv-x="428" 
d="M2 4l82 341l-65 321h125q14 -70 40 -210q18 69 49 210h128l-81 -315l96 -347h-137q-4 25 -56 275q-15 -96 -44 -275h-137zM28 24h94q16 88 52 312h12q25 -107 70 -312h94l-91 327l76 295h-86q-15 -81 -63 -269l-12 2l-47 267h-84l62 -301z" />
    <glyph glyph-name="Y" unicode="Y" horiz-adv-x="421" 
d="M265 0h-143v228l-115 439h141q22 -117 48 -283q23 176 45 283h140l-116 -439v-228zM245 20v210l110 417h-97q-11 -50 -27 -165q-16 -106 -29 -161h-14l-57 326h-98l109 -417v-210h103z" />
    <glyph glyph-name="Z" unicode="Z" horiz-adv-x="386" 
d="M317 130v-130h-316v127l174 410h-171v130h330v-123l-177 -414h160zM297 110h-170l187 439v98h-290v-90h181l-184 -434v-103h276v90z" />
    <glyph glyph-name="bracketleft" unicode="[" horiz-adv-x="258" 
d="M0 667h213v-100h-100v-628h100v-98h-213v826zM20 647v-786h173v58h-100v668h100v60h-173z" />
    <glyph glyph-name="backslash" unicode="\" horiz-adv-x="360" 
d="M0 667h93l254 -734h-93zM28 647l240 -694h51l-240 694h-51z" />
    <glyph glyph-name="bracketright" unicode="]" horiz-adv-x="282" 
d="M5 -60h100v628h-100v99h213v-826h-213v99zM25 -80v-59h173v786h-173v-59h100v-668h-100z" />
    <glyph glyph-name="asciicircum" unicode="^" horiz-adv-x="233" 
d="M249 710h-99l-21 23l-19 -23h-99l67 91h108zM214 730l-40 51h-85l-42 -51h51l31 36l32 -36h53z" />
    <glyph glyph-name="underscore" unicode="_" horiz-adv-x="520" 
d="M1 -114h557v-35h-557v35z" />
    <glyph glyph-name="grave" unicode="`" horiz-adv-x="183" 
d="M14 804l121 2l61 -108h-84zM61 784l59 -66h40l-39 67z" />
    <glyph glyph-name="a" unicode="a" horiz-adv-x="386" 
d="M195 33q-42 -40 -88 -40q-106 0 -106 140v91q0 56 31 90q23 26 74 47q45 19 89 37v23q0 28 -3 37q-7 20 -29 20q-30 0 -30 -41v-43h-127v10q0 93 23 121q38 49 135 49q86 0 125.5 -41t39.5 -127v-406h-134v33zM215 80v-60h94v386q0 77 -33.5 112.5t-111.5 35.5
q-119 0 -133 -75q-4 -22 -5 -65h87v23q0 61 50 61q52 0 52 -77v-35q-21 -12 -75 -33q-49 -19 -74 -34q-45 -30 -45 -95v-91q0 -56 14 -83q20 -37 72 -37q33 0 61 21q2 2 47 46zM147 262q-16 -23 -16 -63q0 -51 4 -66q6 -22 29 -22q31 0 31 51v138q-36 -22 -48 -38zM131 274
q16 22 84 60v-172q0 -71 -51 -71q-38 0 -49 39q-4 18 -4 69q0 46 20 75z" />
    <glyph glyph-name="b" unicode="b" horiz-adv-x="386" 
d="M216 -7q-32 0 -49 9t-33 33v-35h-134v667h134v-133q41 40 84 40q75 0 98 -62q12 -33 12 -124v-197q0 -90 -13 -129q-25 -69 -99 -69zM216 13q63 0 83 64q9 32 9 114v197q0 68 -6 103q-11 63 -84 63q-30 0 -59 -23q-11 -9 -45 -47v163h-94v-627h94l1 69q34 -55 54 -65.5
t47 -10.5zM193 430q-7 20 -29 20q-30 0 -30 -45v-224q0 -47 30 -47q31 0 31 53v211q0 25 -2 32zM213 430q2 -11 2 -32v-211q0 -73 -51 -73q-50 0 -50 67v224q0 65 50 65q42 0 49 -40z" />
    <glyph glyph-name="c" unicode="c" horiz-adv-x="379" 
d="M270 19q-36 -26 -97 -26q-57 0 -100 22q-50 26 -64 76q-9 33 -9 83v230q0 94 56 137q43 33 108 33q152 0 164 -134q2 -16 2 -67v-33h-132v91q0 48 -32 48q-33 0 -33 -52v-281q0 -55 32 -55q33 0 33 55v82h132v-49q0 -61 -8 -88q-12 -44 -52 -72zM258 35q35 25 46 65
q6 23 6 79v29h-92v-62q0 -75 -53 -75q-52 0 -52 75v281q0 72 53 72q52 0 52 -68v-71h92v13q0 101 -23 133q-36 48 -123 48q-144 0 -144 -150v-230q0 -90 39 -124q40 -37 114 -37q54 0 85 22z" />
    <glyph glyph-name="d" unicode="d" horiz-adv-x="388" 
d="M197 28q-33 -35 -79 -35q-70 0 -98 56q-20 40 -20 118v239q0 77 18 114q26 54 96 54q40 0 82 -39v132h133v-667h-133zM216 77v-57h93v627h-93v-159q-43 42 -45 44q-28 22 -57 22q-60 0 -81 -49q-13 -30 -13 -99v-239q0 -70 15 -104q22 -50 83 -50q34 0 57 18q11 9 41 46z
M164 449q-30 0 -30 -51v-214q0 -63 31 -63t31 43v234q0 51 -32 51zM164 469q52 0 52 -71v-234q0 -63 -51 -63t-51 83v214q0 71 50 71z" />
    <glyph glyph-name="e" unicode="e" horiz-adv-x="379" 
d="M167 -7q-109 0 -146 74q-24 49 -24 166v74q0 135 17 180q34 87 149 87q90 0 129 -51q33 -44 33 -136v-126h-195v-122q0 -50 32 -50t32 48v86h131v-31q0 -89 -12 -118q-34 -81 -146 -81zM167 13q98 0 128 69q10 25 10 110v11h-91v-66q0 -68 -52 -68t-52 70v142h195v106
q0 83 -27 122q-33 45 -115 45q-115 0 -138 -98q-8 -35 -8 -149v-74q0 -116 27 -166q29 -54 123 -54zM161 478q-31 0 -31 -41v-77h64v71q0 47 -33 47zM210 463q4 -13 4 -32v-91h-104v97q0 61 51 61q39 0 49 -35z" />
    <glyph glyph-name="f" unicode="f" horiz-adv-x="243" 
d="M159 0h-133v446h-27v101h27v41q0 49 25 68q22 17 70 17q30 0 68 -8v-83q-18 1 -22 -1q-8 -3 -8 -20v-14h30v-101h-30v-446zM169 603v46q-24 4 -48 4q-40 0 -55 -11q-20 -14 -20 -54v-61h-27v-61h27v-446h93v446h30v61h-30v34q0 37 30 42z" />
    <glyph glyph-name="g" unicode="g" horiz-adv-x="391" 
d="M151 -73q-90 0 -164 38l51 82q47 -29 93 -29q69 0 69 58v21q-40 -40 -85 -40q-54 0 -84 37q-28 34 -28 89v239q0 65 25 104q31 48 94 48q51 0 78 -36v29h133v-475q0 -91 -46 -130q-43 -35 -136 -35zM151 -53q85 0 123.5 31.5t38.5 113.5v455h-93v-67q-46 74 -98 74
q-99 0 -99 -132v-239q0 -47 22 -75q24 -31 70 -31q31 0 59 23q11 9 44 48q2 -66 2 -72q0 -78 -89 -78q-45 0 -86 22l-30 -47q58 -26 136 -26zM168 438q-31 0 -31 -60v-131q0 -60 31 -60q32 0 32 55v140q0 56 -32 56zM213 427q7 -16 7 -45v-140q0 -75 -52 -75q-51 0 -51 80
v131q0 80 51 80q33 0 45 -31z" />
    <glyph glyph-name="h" unicode="h" horiz-adv-x="388" 
d="M197 380q0 37 -1 41q-4 27 -25 27q-34 0 -34 -68v-380h-134v667h134v-134q41 41 88 41q50 0 78 -30.5t28 -81.5v-462h-134v380zM217 380v-360h94v442q0 92 -86 92q-33 0 -62 -24q-12 -10 -46 -50v167h-94v-627h94v360q0 88 54 88q33 0 42 -31q4 -14 4 -57z" />
    <glyph glyph-name="i" unicode="i" horiz-adv-x="192" 
d="M0 667h134v-78h-134v78zM20 647v-38h94v38h-94zM0 561h134v-561h-134v561zM20 541v-521h94v521h-94z" />
    <glyph glyph-name="j" unicode="j" horiz-adv-x="225" 
d="M35 667h133v-78h-133v78zM55 647v-38h93v38h-93zM35 62v498h133v-503q0 -65 -18 -93q-24 -37 -87 -37q-31 0 -65 9v80q13 1 18 2q9 3 14 10.5t5 33.5zM18 -2v-47q21 -4 45 -4q53 0 72 31q13 22 13 79v483h-93v-478q0 -56 -37 -64z" />
    <glyph glyph-name="k" unicode="k" horiz-adv-x="392" 
d="M347 0h-134l-81 194v-194h-132v667h131l-1 -256l73 156h132l-119 -234zM110 20l1 282q1 0 117 -282h93l-126 314l112 213h-90l-107 -217v317h-90v-627h90z" />
    <glyph glyph-name="l" unicode="l" 
d="M3 667h134v-667h-134v667zM23 647v-627h94v627h-94z" />
    <glyph glyph-name="m" unicode="m" horiz-adv-x="592" 
d="M402 370q0 35 -3 45q-6 28 -28 28q-35 0 -35 -73v-370h-134v370q0 36 -2 46q-6 27 -30 27q-34 0 -34 -73v-370h-133v567h133v-44q41 51 90 51q54 0 98 -55q41 55 97 55q81 0 104 -61q10 -26 10 -83v-430h-133v370zM422 370v-350h93v410q0 86 -35 108q-25 16 -59 16
q-53 0 -97 -65q-47 65 -98 65q-36 0 -65 -27q-16 -15 -45 -56v76h-93v-527h93v350q0 93 54 93q35 0 46 -32q6 -18 6 -61v-350h94v350q0 93 55 93q34 0 45 -33q6 -18 6 -60z" />
    <glyph glyph-name="n" unicode="n" horiz-adv-x="392" 
d="M202 376q0 59 -28 59q-36 0 -36 -59v-376h-135v567h135v-41q39 48 84 48q71 0 96 -49q17 -34 17 -109v-416h-133v376zM222 376v-356h93v396q0 67 -12 95q-20 43 -81 43q-34 0 -62 -27q-15 -14 -42 -54v74h-95v-527h95v356q0 79 56 79q48 0 48 -79z" />
    <glyph glyph-name="o" unicode="o" horiz-adv-x="388" 
d="M163 -7q-162 0 -162 182v222q0 84 42 130.5t123 46.5q166 0 166 -177v-228q0 -176 -169 -176zM163 13q149 0 149 156v228q0 77 -30 114q-35 43 -116 43q-145 0 -145 -157v-222q0 -79 29 -118q34 -44 113 -44zM167 479q-33 0 -33 -49v-292q0 -50 32 -50q33 0 33 51v290
q0 50 -32 50zM219 429v-290q0 -71 -53 -71q-52 0 -52 70v292q0 69 53 69q52 0 52 -70z" />
    <glyph glyph-name="p" unicode="p" horiz-adv-x="387" 
d="M216 -7q-50 0 -83 45v-111h-134v640h134v-36q18 29 40 37q13 6 43 6q114 0 114 -156v-303q0 -51 -31.5 -86.5t-82.5 -35.5zM216 13q43 0 68.5 29.5t25.5 72.5v303q0 136 -94 136q-38 0 -64 -28q-17 -17 -39 -59v80h-94v-600h94v150q26 -43 40 -57q28 -27 63 -27zM196 398
q-1 41 -30 41q-33 0 -33 -61v-191q0 -61 33 -61q31 0 31 48zM216 399q1 -16 1 -66v-159q0 -68 -51 -68q-53 0 -53 81v191q0 81 53 81q49 0 50 -60z" />
    <glyph glyph-name="q" unicode="q" horiz-adv-x="390" 
d="M198 32q-29 -39 -84 -39q-50 0 -81.5 35.5t-31.5 86.5v303q0 156 113 156q29 0 44 -7q21 -10 40 -39v39h133v-640h-133v105zM218 89v-142h93v600h-93v-78q-21 41 -39 58q-27 27 -65 27q-93 0 -93 -136v-303q0 -43 27 -73t69 -30q36 0 62 23q14 14 39 54zM164 439
q-30 0 -30 -61v-191q0 -61 30 -61q34 0 34 61v191q0 61 -34 61zM215 417q3 -15 3 -39v-191q0 -81 -54 -81q-50 0 -50 81v191q0 81 50 81q41 0 51 -42z" />
    <glyph glyph-name="r" unicode="r" horiz-adv-x="348" 
d="M183 384q0 42 -23 42t-23 -42v-384h-134v567h134v-45q32 52 84 52q43 0 66 -27.5t23 -71.5v-173h-127v82zM203 384v-62h87v153q0 79 -69 79q-31 0 -50 -19q-18 -22 -36 -43l-19 -22l1 77h-94v-527h94v364q0 62 43 62t43 -62z" />
    <glyph glyph-name="s" unicode="s" horiz-adv-x="384" 
d="M167 -7q-59 0 -101 24q-50 27 -58 81q-5 32 -5 80v49h131v-88q0 -53 33 -53q31 0 31 51q0 64 -41 96q-72 56 -79 63q-49 42 -61 77q-9 26 -9 55q0 73 47 111q42 35 117 35q86 0 122 -43q32 -38 32 -125v-14h-132v14q0 74 -31 74q-29 0 -29 -38q0 -23 26 -48q8 -6 46 -33
q70 -49 95 -87q31 -47 31 -124q0 -157 -165 -157zM214 412h92q-1 76 -28 107q-31 35 -106 35q-144 0 -144 -126q0 -45 27 -81q18 -25 64 -60l50 -38q49 -42 49 -112q0 -71 -51 -71q-53 0 -53 73v68h-91v-29q0 -49 3 -66q6 -39 26 -60q38 -39 115 -39q145 0 145 137
q0 72 -29 114q-22 34 -88 80q-42 30 -53 41q-28 27 -28 57q0 58 49 58q50 0 51 -88z" />
    <glyph glyph-name="t" unicode="t" horiz-adv-x="244" 
d="M189 0q-66 -7 -68 -7q-54 0 -74 27q-17 22 -17 77v342h-25v105h25v123h133v-123h26v-105h-26v-319q0 -23 26 -24v-96zM169 18v60q-26 8 -26 42v339h26v65h-26v123h-93v-123h-25v-65h25v-362q0 -47 12 -63q14 -21 59 -21q11 0 48 5z" />
    <glyph glyph-name="u" unicode="u" horiz-adv-x="391" 
d="M200 34q-30 -41 -81 -41q-69 0 -96 49q-20 37 -20 111v414h134v-379q0 -60 31 -60q32 0 32 65v374h134v-567h-134v34zM220 102v-82h94v527h-94v-354q0 -85 -52 -85q-51 0 -51 80v359h-94v-394q0 -66 15 -96q21 -44 81 -44q38 0 64 29q14 15 37 60z" />
    <glyph glyph-name="v" unicode="v" horiz-adv-x="397" 
d="M88 0l-91 567h130l43 -345l1 1l39 344l134 -1l-93 -566h-163zM105 20h129l87 526l-94 1l-47 -382h-20l-50 382h-90z" />
    <glyph glyph-name="w" unicode="w" horiz-adv-x="590" 
d="M301 0l-26 343h-2l-33 -343h-168l-70 567h130l34 -369l4 9l30 360h150l26 -364l5 9l36 355h130l-70 -567h-176zM319 20h141l64 527h-89l-47 -415h-20l-36 415h-114l-42 -417h-20l-41 417h-90l64 -527h134l32 343h38z" />
    <glyph glyph-name="x" unicode="x" horiz-adv-x="415" 
d="M364 0h-135l-48 209l-48 -209h-133l67 287l-56 280h132l38 -178l36 178h133l-55 -278zM338 20l-64 269l52 258h-93l-51 -238l-55 238h-91l52 -260l-63 -267h92l65 256l63 -256h93z" />
    <glyph glyph-name="y" unicode="y" horiz-adv-x="405" 
d="M240 -44q-12 -25 -37 -31q-9 -2 -52 -2h-122l1 72h43q29 0 29 17q0 10 -3 22l-102 533h135l23 -141q7 -40 20 -189l1 -11q6 69 20 193l24 148h132l-100 -557q-7 -42 -12 -54zM221 -36q5 10 12 50l95 533h-91l-21 -131q-12 -75 -30 -256h-20q-12 152 -30 263l-21 124h-94
l98 -509q3 -14 3 -26q0 -36 -50 -36h-23v-33h102q45 0 54.5 3t15.5 18z" />
    <glyph glyph-name="z" unicode="z" horiz-adv-x="360" 
d="M298 115v-115h-295v115l154 338h-148v114h297v-104l-156 -348h148zM278 95h-159l167 372v80h-257v-74h159l-165 -363v-90h255v75z" />
    <glyph glyph-name="braceleft" unicode="{" horiz-adv-x="356" 
d="M119 -304q-64 32 -64 139v263q0 38 -9 57q-13 23 -47 33v115q32 10 44 29t12 56v269q0 63 19 94q22 37 77 42q31 3 81 3q29 0 64 -1v-132q-61 -1 -77 -12q-21 -15 -21 -68v-220q0 -46 -9 -69q-12 -28 -49 -51q36 -24 48 -52q10 -24 10 -70v-223q0 -55 22 -70
q15 -10 76 -12v-125q-40 -1 -70 -1q-93 0 -107 6zM128 -286q9 -4 98 -4h50v87q-57 3 -77.5 23t-20.5 78v223q0 53 -16 76q-11 16 -60 46q50 30 61 45q15 22 15 75v220q0 56 20 76.5t78 22.5v94h-44q-93 0 -121 -18q-36 -24 -36 -107v-263q0 -78 -56 -99v-86q56 -21 56 -105
v-263q0 -95 53 -121z" />
    <glyph glyph-name="bar" unicode="|" horiz-adv-x="209" 
d="M-1 667h146v-834h-146v834zM19 647v-794h106v794h-106z" />
    <glyph glyph-name="braceright" unicode="}" horiz-adv-x="347" 
d="M177 -304q65 32 65 139v263q0 38 9 57q12 23 47 33v115q-33 10 -44.5 29t-11.5 56v269q0 63 -19 94q-23 37 -78 42q-31 3 -81 3q-29 0 -63 -1v-132q60 -1 76 -12q21 -15 21 -68v-220q0 -46 10 -69q11 -28 48 -51q-36 -24 -48 -52q-10 -24 -10 -70v-223q0 -55 -22 -70
q-15 -10 -75 -12v-125q39 -1 70 -1q93 0 106 6zM169 -286q-10 -4 -98 -4h-50v87q57 3 77 23t20 78v223q0 53 16 76q11 16 60 46q-49 30 -60 45q-16 22 -16 75v220q0 56 -20 76.5t-77 22.5v94h43q93 0 121 -18q36 -24 36 -107l1 -263q0 -78 56 -99v-86q-56 -21 -56 -105v-263
q0 -95 -53 -121z" />
    <glyph glyph-name="asciitilde" unicode="~" horiz-adv-x="294" 
d="M25 725q15 92 87 92q16 0 47.5 -11.5t45.5 -11.5q9 0 14 15h96q-4 -41 -19 -61q-25 -33 -62 -33q-16 0 -50 12.5t-46 12.5q-13 0 -17 -15h-96zM49 745h58q9 15 31 15q16 0 48 -12.5t48 -12.5q49 0 59 54h-60q-9 -15 -28 -15q-16 0 -46.5 11.5t-46.5 11.5q-47 0 -63 -52z
" />
    <glyph glyph-name="Adieresis" unicode="&#xc4;" horiz-adv-x="435" 
d="M229 95h-77l-13 -95h-139l94 667h192l93 -667h-142zM247 115l8 -95h101l-88 627h-157l-88 -627h98l13 95h113zM191 555h-2q-7 -105 -26 -334h53q-16 184 -25 334zM210 565q15 -217 28 -364h-97q11 124 30 374h38zM226 809h96v-96h-96v96zM246 789v-56h56v56h-56zM58 809
h96v-96h-96v96zM78 789v-56h56v56h-56z" />
    <glyph glyph-name="Aring" unicode="&#xc5;" horiz-adv-x="435" 
d="M229 95h-77l-13 -95h-139l94 667h192l93 -667h-142zM247 115l8 -95h101l-88 627h-157l-88 -627h98l13 95h113zM191 555h-2q-7 -105 -26 -334h53q-16 184 -25 334zM210 565q15 -217 28 -364h-97q11 124 30 374h38zM188 698q-36 0 -61 23.5t-25 60.5q0 36 26.5 58.5
t62.5 22.5q35 0 61 -22.5t26 -57.5q0 -36 -27.5 -60.5t-62.5 -24.5zM188 718q26 0 48 19t22 46q0 26 -20 43t-47 17q-28 0 -48.5 -16.5t-20.5 -44.5t19 -46t47 -18zM190 806q-24 0 -24 -24q0 -26 24 -26q23 0 23 26q0 24 -23 24zM190 826q18 0 30.5 -12.5t12.5 -31.5
q0 -18 -12 -32t-31 -14t-31.5 13.5t-12.5 32.5q0 18 12.5 31t31.5 13z" />
    <glyph glyph-name="Ccedilla" unicode="&#xc7;" horiz-adv-x="413" 
d="M256 -112q0 -29 -17.5 -51.5t-43.5 -22.5q-25 0 -43 14l14 26q16 -12 29 -12q12 0 22.5 13t10.5 33q0 21 -10.5 33.5t-22.5 12.5q-22 0 -35 -8v65q-149 10 -159 146q-2 26 -2 65v279q0 85 22 122q45 74 167 74q174 0 174 -178v-85h-144v67q0 35 -3 47q-8 25 -34 25
q-27 0 -35 -25q-4 -13 -4 -47v-279q0 -39 3 -52q8 -32 35 -32q28 0 35 32q3 11 3 52v89h144v-121q0 -177 -175 -180v-28h8q26 0 43.5 -22t17.5 -52zM342 170v101h-104v-69q0 -48 -7 -68q-12 -36 -51 -36q-38 0 -51 37q-7 20 -7 67v279q0 42 9 62q13 30 50 30t50 -31
q7 -18 7 -61v-47h104v65q0 158 -154 158q-111 0 -150 -65q-19 -31 -19 -111v-279q0 -95 26 -134q38 -58 136 -58q161 0 161 160z" />
    <glyph glyph-name="Eacute" unicode="&#xc9;" horiz-adv-x="351" 
d="M-1 667h294v-130h-150v-104h144v-127h-144v-176h156v-130h-300v667zM19 647v-627h260v90h-156v216h144v87h-144v144h150v90h-254zM256 801l-121 2l-61 -108h84zM209 781l-59 -66h-40l39 67z" />
    <glyph glyph-name="Ntilde" unicode="&#xd1;" horiz-adv-x="427" 
d="M134 351q0 -25 4 -94l1 -257h-141v667h164l75 -371l-3 205v166h134v-667h-161zM131 450l94 -430h125v627h-95l-1 -429h-13l-96 429h-125v-627h98v430h13zM35 715q15 92 87 92q16 0 47.5 -11.5t45.5 -11.5q9 0 14 15h96q-4 -41 -19 -61q-25 -33 -62 -33q-16 0 -50 12.5
t-46 12.5q-13 0 -17 -15h-96zM59 735h58q9 15 31 15q16 0 48 -12.5t48 -12.5q49 0 59 54h-60q-9 -15 -28 -15q-16 0 -46.5 11.5t-46.5 11.5q-47 0 -63 -52z" />
    <glyph glyph-name="Odieresis" unicode="&#xd6;" horiz-adv-x="423" 
d="M183 -10q-82 0 -131 44t-49 124v334q0 184 182 184q181 0 181 -184v-343q0 -77 -54 -120q-49 -39 -129 -39zM183 10q71 0 115 33q48 37 48 106v343q0 164 -161 164q-162 0 -162 -164v-334q0 -71 43.5 -109.5t116.5 -38.5zM186 557q-39 0 -39 -76v-277q0 -38 4 -52
q8 -31 36 -31q26 0 33 33q3 12 3 53v274q0 37 -4 49q-7 27 -33 27zM243 481v-274q0 -48 -6 -68q-12 -38 -50 -38q-39 0 -52 36q-8 21 -8 67v277q0 96 59 96q37 0 49 -32q8 -20 8 -64zM216 809h96v-96h-96v96zM236 789v-56h56v56h-56zM48 809h96v-96h-96v96zM68 789v-56h56
v56h-56z" />
    <glyph glyph-name="Udieresis" unicode="&#xdc;" horiz-adv-x="415" 
d="M175 -10q-176 0 -176 181v496h144v-496q0 -57 35 -57q36 0 36 57v496h144v-496q0 -181 -183 -181zM175 10q163 0 163 161v476h-104v-476q0 -77 -56 -77q-55 0 -55 77v476h-104v-476q0 -161 156 -161zM216 809h96v-96h-96v96zM236 789v-56h56v56h-56zM48 809h96v-96h-96
v96zM68 789v-56h56v56h-56z" />
    <glyph glyph-name="aacute" unicode="&#xe1;" horiz-adv-x="386" 
d="M195 33q-42 -40 -88 -40q-106 0 -106 140v91q0 56 31 90q23 26 74 47q45 19 89 37v23q0 28 -3 37q-7 20 -29 20q-30 0 -30 -41v-43h-127v10q0 93 23 121q38 49 135 49q86 0 125.5 -41t39.5 -127v-406h-134v33zM215 80v-60h94v386q0 77 -33.5 112.5t-111.5 35.5
q-119 0 -133 -75q-4 -22 -5 -65h87v23q0 61 50 61q52 0 52 -77v-35q-21 -12 -75 -33q-49 -19 -74 -34q-45 -30 -45 -95v-91q0 -56 14 -83q20 -37 72 -37q33 0 61 21q2 2 47 46zM147 262q-16 -23 -16 -63q0 -51 4 -66q6 -22 29 -22q31 0 31 51v138q-36 -22 -48 -38zM131 274
q16 22 84 60v-172q0 -71 -51 -71q-38 0 -49 39q-4 18 -4 69q0 46 20 75zM255 708l-121 1l-61 -106h84zM208 688l-59 -65h-40l39 65h60z" />
    <glyph glyph-name="agrave" unicode="&#xe0;" horiz-adv-x="386" 
d="M195 33q-42 -40 -88 -40q-106 0 -106 140v91q0 56 31 90q23 26 74 47q45 19 89 37v23q0 28 -3 37q-7 20 -29 20q-30 0 -30 -41v-43h-127v10q0 93 23 121q38 49 135 49q86 0 125.5 -41t39.5 -127v-406h-134v33zM215 80v-60h94v386q0 77 -33.5 112.5t-111.5 35.5
q-119 0 -133 -75q-4 -22 -5 -65h87v23q0 61 50 61q52 0 52 -77v-35q-21 -12 -75 -33q-49 -19 -74 -34q-45 -30 -45 -95v-91q0 -56 14 -83q20 -37 72 -37q33 0 61 21q2 2 47 46zM147 262q-16 -23 -16 -63q0 -51 4 -66q6 -22 29 -22q31 0 31 51v138q-36 -22 -48 -38zM131 274
q16 22 84 60v-172q0 -71 -51 -71q-38 0 -49 39q-4 18 -4 69q0 46 20 75zM62 710l121 1l61 -106h-84zM109 690l59 -65h40l-39 65h-60z" />
    <glyph glyph-name="acircumflex" unicode="&#xe2;" horiz-adv-x="387" 
d="M195 33q-42 -40 -88 -40q-106 0 -106 140v91q0 56 31 90q23 26 74 47q45 19 89 37v23q0 28 -3 37q-7 20 -29 20q-30 0 -30 -41v-43h-127v10q0 93 23 121q38 49 135 49q86 0 125.5 -41t39.5 -127v-406h-134v33zM215 80v-60h94v386q0 77 -33.5 112.5t-111.5 35.5
q-119 0 -133 -75q-4 -22 -5 -65h87v23q0 61 50 61q52 0 52 -77v-35q-21 -12 -75 -33q-49 -19 -74 -34q-45 -30 -45 -95v-91q0 -56 14 -83q20 -37 72 -37q33 0 61 21q2 2 47 46zM147 262q-16 -23 -16 -63q0 -51 4 -66q6 -22 29 -22q31 0 31 51v138q-36 -22 -48 -38zM131 274
q16 22 84 60v-172q0 -71 -51 -71q-38 0 -49 39q-4 18 -4 69q0 46 20 75zM279 602h-99l-21 23l-19 -23h-99l67 91h108zM244 622l-40 51h-85l-42 -51h51l31 36l32 -36h53z" />
    <glyph glyph-name="adieresis" unicode="&#xe4;" horiz-adv-x="386" 
d="M195 33q-42 -40 -88 -40q-106 0 -106 140v91q0 56 31 90q23 26 74 47q45 19 89 37v23q0 28 -3 37q-7 20 -29 20q-30 0 -30 -41v-43h-127v10q0 93 23 121q38 49 135 49q86 0 125.5 -41t39.5 -127v-406h-134v33zM215 80v-60h94v386q0 77 -33.5 112.5t-111.5 35.5
q-119 0 -133 -75q-4 -22 -5 -65h87v23q0 61 50 61q52 0 52 -77v-35q-21 -12 -75 -33q-49 -19 -74 -34q-45 -30 -45 -95v-91q0 -56 14 -83q20 -37 72 -37q33 0 61 21q2 2 47 46zM147 262q-16 -23 -16 -63q0 -51 4 -66q6 -22 29 -22q31 0 31 51v138q-36 -22 -48 -38zM131 274
q16 22 84 60v-172q0 -71 -51 -71q-38 0 -49 39q-4 18 -4 69q0 46 20 75zM196 709h96v-96h-96v96zM216 689v-56h56v56h-56zM31 709h96v-96h-96v96zM51 689v-56h56v56h-56z" />
    <glyph glyph-name="atilde" unicode="&#xe3;" horiz-adv-x="385" 
d="M195 33q-42 -40 -88 -40q-106 0 -106 140v91q0 56 31 90q23 26 74 47q45 19 89 37v23q0 28 -3 37q-7 20 -29 20q-30 0 -30 -41v-43h-127v10q0 93 23 121q38 49 135 49q86 0 125.5 -41t39.5 -127v-406h-134v33zM215 80v-60h94v386q0 77 -33.5 112.5t-111.5 35.5
q-119 0 -133 -75q-4 -22 -5 -65h87v23q0 61 50 61q52 0 52 -77v-35q-21 -12 -75 -33q-49 -19 -74 -34q-45 -30 -45 -95v-91q0 -56 14 -83q20 -37 72 -37q33 0 61 21q2 2 47 46zM147 262q-16 -23 -16 -63q0 -51 4 -66q6 -22 29 -22q31 0 31 51v138q-36 -22 -48 -38zM131 274
q16 22 84 60v-172q0 -71 -51 -71q-38 0 -49 39q-4 18 -4 69q0 46 20 75zM15 615q15 92 87 92q16 0 47.5 -11.5t45.5 -11.5q9 0 14 15h96q-4 -41 -19 -61q-25 -33 -62 -33q-16 0 -50 12.5t-46 12.5q-13 0 -17 -15h-96zM39 635h58q9 15 31 15q16 0 48 -12.5t48 -12.5
q49 0 59 54h-60q-9 -15 -28 -15q-16 0 -46.5 11.5t-46.5 11.5q-47 0 -63 -52z" />
    <glyph glyph-name="aring" unicode="&#xe5;" horiz-adv-x="386" 
d="M195 33q-42 -40 -88 -40q-106 0 -106 140v91q0 56 31 90q23 26 74 47q45 19 89 37v23q0 28 -3 37q-7 20 -29 20q-30 0 -30 -41v-43h-127v10q0 93 23 121q38 49 135 49q86 0 125.5 -41t39.5 -127v-406h-134v33zM215 80v-60h94v386q0 77 -33.5 112.5t-111.5 35.5
q-119 0 -133 -75q-4 -22 -5 -65h87v23q0 61 50 61q52 0 52 -77v-35q-21 -12 -75 -33q-49 -19 -74 -34q-45 -30 -45 -95v-91q0 -56 14 -83q20 -37 72 -37q33 0 61 21q2 2 47 46zM147 262q-16 -23 -16 -63q0 -51 4 -66q6 -22 29 -22q31 0 31 51v138q-36 -22 -48 -38zM131 274
q16 22 84 60v-172q0 -71 -51 -71q-38 0 -49 39q-4 18 -4 69q0 46 20 75zM156 604q-36 0 -61 23.5t-25 60.5q0 36 26.5 58.5t63.5 22.5q35 0 60.5 -23t25.5 -57q0 -36 -27.5 -60.5t-62.5 -24.5zM156 624q27 0 48.5 18.5t21.5 46.5q0 26 -20 43t-46 17q-28 0 -49 -16.5
t-21 -44.5t19.5 -46t46.5 -18zM158 712q-23 0 -23 -24q0 -26 23 -26t23 26q0 24 -23 24zM158 732q19 0 31 -13t12 -31q0 -19 -11.5 -32.5t-31.5 -13.5q-18 0 -30.5 13.5t-12.5 32.5q0 18 12.5 31t30.5 13z" />
    <glyph glyph-name="ccedilla" unicode="&#xe7;" horiz-adv-x="379" 
d="M258 35q35 25 46 65q6 23 6 79v29h-92v-62q0 -75 -53 -75q-52 0 -52 75v281q0 72 53 72q52 0 52 -68v-71h92v13q0 101 -23 133q-36 48 -123 48q-144 0 -144 -150v-230q0 -90 39 -124q40 -37 114 -37q54 0 85 22zM150 -146q16 -12 29 -12q12 0 22.5 13t10.5 33
q0 21 -10.5 33.5t-22.5 12.5q-22 0 -35 -8v69q-111 13 -135 96q-9 33 -9 83v230q0 94 56 137q43 33 108 33q152 0 164 -134q2 -16 2 -67v-33h-132v91q0 48 -32 48q-33 0 -33 -52v-281q0 -55 32 -55q33 0 33 55v82h132v-49q0 -61 -8 -88q-12 -44 -52 -72q-36 -26 -97 -26h-2
v-31h8q26 0 43.5 -22t17.5 -52q0 -29 -17.5 -51.5t-43.5 -22.5q-25 0 -43 14z" />
    <glyph glyph-name="eacute" unicode="&#xe9;" horiz-adv-x="378" 
d="M167 -7q-109 0 -146 74q-24 49 -24 166v74q0 135 17 180q34 87 149 87q90 0 129 -51q33 -44 33 -136v-126h-195v-122q0 -50 32 -50t32 48v86h131v-31q0 -89 -12 -118q-34 -81 -146 -81zM167 13q98 0 128 69q10 25 10 110v11h-91v-66q0 -68 -52 -68t-52 70v142h195v106
q0 83 -27 122q-33 45 -115 45q-115 0 -138 -98q-8 -35 -8 -149v-74q0 -116 27 -166q29 -54 123 -54zM161 478q-31 0 -31 -41v-77h64v71q0 47 -33 47zM210 463q4 -13 4 -32v-91h-104v97q0 61 51 61q39 0 49 -35zM255 708l-121 1l-61 -106h84zM208 688l-59 -65h-40l39 65h60z
" />
    <glyph glyph-name="egrave" unicode="&#xe8;" horiz-adv-x="379" 
d="M167 -7q-109 0 -146 74q-24 49 -24 166v74q0 135 17 180q34 87 149 87q90 0 129 -51q33 -44 33 -136v-126h-195v-122q0 -50 32 -50t32 48v86h131v-31q0 -89 -12 -118q-34 -81 -146 -81zM167 13q98 0 128 69q10 25 10 110v11h-91v-66q0 -68 -52 -68t-52 70v142h195v106
q0 83 -27 122q-33 45 -115 45q-115 0 -138 -98q-8 -35 -8 -149v-74q0 -116 27 -166q29 -54 123 -54zM161 478q-31 0 -31 -41v-77h64v71q0 47 -33 47zM210 463q4 -13 4 -32v-91h-104v97q0 61 51 61q39 0 49 -35zM62 710l121 1l61 -106h-84zM109 690l59 -65h40l-39 65h-60z
" />
    <glyph glyph-name="ecircumflex" unicode="&#xea;" horiz-adv-x="377" 
d="M167 -7q-109 0 -146 74q-24 49 -24 166v74q0 135 17 180q34 87 149 87q90 0 129 -51q33 -44 33 -136v-126h-195v-122q0 -50 32 -50t32 48v86h131v-31q0 -89 -12 -118q-34 -81 -146 -81zM167 13q98 0 128 69q10 25 10 110v11h-91v-66q0 -68 -52 -68t-52 70v142h195v106
q0 83 -27 122q-33 45 -115 45q-115 0 -138 -98q-8 -35 -8 -149v-74q0 -116 27 -166q29 -54 123 -54zM161 478q-31 0 -31 -41v-77h64v71q0 47 -33 47zM210 463q4 -13 4 -32v-91h-104v97q0 61 51 61q39 0 49 -35zM279 602h-99l-21 23l-19 -23h-99l67 91h108zM244 622l-40 51
h-85l-42 -51h51l31 36l32 -36h53z" />
    <glyph glyph-name="edieresis" unicode="&#xeb;" horiz-adv-x="379" 
d="M167 -7q-109 0 -146 74q-24 49 -24 166v74q0 135 17 180q34 87 149 87q90 0 129 -51q33 -44 33 -136v-126h-195v-122q0 -50 32 -50t32 48v86h131v-31q0 -89 -12 -118q-34 -81 -146 -81zM167 13q98 0 128 69q10 25 10 110v11h-91v-66q0 -68 -52 -68t-52 70v142h195v106
q0 83 -27 122q-33 45 -115 45q-115 0 -138 -98q-8 -35 -8 -149v-74q0 -116 27 -166q29 -54 123 -54zM161 478q-31 0 -31 -41v-77h64v71q0 47 -33 47zM210 463q4 -13 4 -32v-91h-104v97q0 61 51 61q39 0 49 -35zM196 709h96v-96h-96v96zM216 689v-56h56v56h-56zM31 709h96
v-96h-96v96zM51 689v-56h56v56h-56z" />
    <glyph glyph-name="iacute" unicode="&#xed;" 
d="M-1 565h134v-565h-134v565zM19 545v-525h94v525h-94zM175 709h-121l-61 -106h84zM128 688l-59 -65h-40l39 65h60z" />
    <glyph glyph-name="igrave" unicode="&#xec;" horiz-adv-x="210" 
d="M-1 565h134v-565h-134v565zM19 545v-525h94v525h-94zM-30 710l121 1l61 -106h-84zM17 690l59 -65h40l-39 65h-60z" />
    <glyph glyph-name="icircumflex" unicode="&#xee;" horiz-adv-x="215" 
d="M-1 565h134v-565h-134v565zM19 545v-525h94v525h-94zM179 602h-99l-21 23l-19 -23h-99l67 91h108zM144 622l-40 51h-85l-42 -51h51l31 36l32 -36h53z" />
    <glyph glyph-name="idieresis" unicode="&#xef;" horiz-adv-x="209" 
d="M-1 565h134v-565h-134v565zM19 545v-525h94v525h-94zM86 709h96v-96h-96v96zM106 689v-56h56v56h-56zM-49 709h96v-96h-96v96zM-29 689v-56h56v56h-56z" />
    <glyph glyph-name="ntilde" unicode="&#xf1;" horiz-adv-x="393" 
d="M202 376q0 59 -28 59q-36 0 -36 -59v-376h-135v567h135v-41q39 48 84 48q71 0 96 -49q17 -34 17 -109v-416h-133v376zM222 376v-356h93v396q0 67 -12 95q-20 43 -81 43q-34 0 -62 -27q-15 -14 -42 -54v74h-95v-527h95v356q0 79 56 79q48 0 48 -79zM25 615q15 92 87 92
q16 0 47.5 -11.5t45.5 -11.5q9 0 14 15h96q-4 -41 -19 -61q-25 -33 -62 -33q-16 0 -50 12.5t-46 12.5q-13 0 -17 -15h-96zM49 635h58q9 15 31 15q16 0 48 -12.5t48 -12.5q49 0 59 54h-60q-9 -15 -28 -15q-16 0 -46.5 11.5t-46.5 11.5q-47 0 -63 -52z" />
    <glyph glyph-name="oacute" unicode="&#xf3;" horiz-adv-x="386" 
d="M163 -7q-162 0 -162 182v222q0 84 42 130.5t123 46.5q166 0 166 -177v-228q0 -176 -169 -176zM163 13q149 0 149 156v228q0 77 -30 114q-35 43 -116 43q-145 0 -145 -157v-222q0 -79 29 -118q34 -44 113 -44zM167 479q-33 0 -33 -49v-292q0 -50 32 -50q33 0 33 51v290
q0 50 -32 50zM219 429v-290q0 -71 -53 -71q-52 0 -52 70v292q0 69 53 69q52 0 52 -70zM275 708l-121 1l-61 -106h84zM228 688l-59 -65h-40l39 65h60z" />
    <glyph glyph-name="ograve" unicode="&#xf2;" horiz-adv-x="389" 
d="M163 -7q-162 0 -162 182v222q0 84 42 130.5t123 46.5q166 0 166 -177v-228q0 -176 -169 -176zM163 13q149 0 149 156v228q0 77 -30 114q-35 43 -116 43q-145 0 -145 -157v-222q0 -79 29 -118q34 -44 113 -44zM167 479q-33 0 -33 -49v-292q0 -50 32 -50q33 0 33 51v290
q0 50 -32 50zM219 429v-290q0 -71 -53 -71q-52 0 -52 70v292q0 69 53 69q52 0 52 -70zM62 710l121 1l61 -106h-84zM109 691l59 -66h40l-39 65z" />
    <glyph glyph-name="ocircumflex" unicode="&#xf4;" horiz-adv-x="385" 
d="M163 -7q-162 0 -162 182v222q0 84 42 130.5t123 46.5q166 0 166 -177v-228q0 -176 -169 -176zM163 13q149 0 149 156v228q0 77 -30 114q-35 43 -116 43q-145 0 -145 -157v-222q0 -79 29 -118q34 -44 113 -44zM167 479q-33 0 -33 -49v-292q0 -50 32 -50q33 0 33 51v290
q0 50 -32 50zM219 429v-290q0 -71 -53 -71q-52 0 -52 70v292q0 69 53 69q52 0 52 -70zM279 602h-99l-21 23l-19 -23h-99l67 91h108zM244 622l-40 51h-85l-42 -51h51l31 36l32 -36h53z" />
    <glyph glyph-name="odieresis" unicode="&#xf6;" horiz-adv-x="387" 
d="M163 -7q-162 0 -162 182v222q0 84 42 130.5t123 46.5q166 0 166 -177v-228q0 -176 -169 -176zM163 13q149 0 149 156v228q0 77 -30 114q-35 43 -116 43q-145 0 -145 -157v-222q0 -79 29 -118q34 -44 113 -44zM167 479q-33 0 -33 -49v-292q0 -50 32 -50q33 0 33 51v290
q0 50 -32 50zM219 429v-290q0 -71 -53 -71q-52 0 -52 70v292q0 69 53 69q52 0 52 -70zM196 709h96v-96h-96v96zM216 689v-56h56v56h-56zM31 709h96v-96h-96v96zM51 689v-56h56v56h-56z" />
    <glyph glyph-name="otilde" unicode="&#xf5;" horiz-adv-x="388" 
d="M163 -7q-162 0 -162 182v222q0 84 42 130.5t123 46.5q166 0 166 -177v-228q0 -176 -169 -176zM163 13q149 0 149 156v228q0 77 -30 114q-35 43 -116 43q-145 0 -145 -157v-222q0 -79 29 -118q34 -44 113 -44zM167 479q-33 0 -33 -49v-292q0 -50 32 -50q33 0 33 51v290
q0 50 -32 50zM219 429v-290q0 -71 -53 -71q-52 0 -52 70v292q0 69 53 69q52 0 52 -70zM17 615q15 92 87 92q16 0 47.5 -11.5t45.5 -11.5q9 0 14 15h96q-4 -41 -19 -61q-25 -33 -62 -33q-16 0 -50 12.5t-46 12.5q-13 0 -17 -15h-96zM41 635h58q9 15 31 15q16 0 48 -12.5
t48 -12.5q49 0 59 54h-60q-9 -15 -28 -15q-16 0 -46.5 11.5t-46.5 11.5q-47 0 -63 -52z" />
    <glyph glyph-name="uacute" unicode="&#xfa;" horiz-adv-x="392" 
d="M200 34q-30 -41 -81 -41q-69 0 -96 49q-20 37 -20 111v414h134v-379q0 -60 31 -60q32 0 32 65v374h134v-567h-134v34zM220 102v-82h94v527h-94v-354q0 -85 -52 -85q-51 0 -51 80v359h-94v-394q0 -66 15 -96q21 -44 81 -44q38 0 64 29q14 15 37 60zM265 708l-121 1
l-61 -106h84zM218 688l-59 -65h-40l39 65h60z" />
    <glyph glyph-name="ugrave" unicode="&#xf9;" horiz-adv-x="392" 
d="M200 34q-30 -41 -81 -41q-69 0 -96 49q-20 37 -20 111v414h134v-379q0 -60 31 -60q32 0 32 65v374h134v-567h-134v34zM220 102v-82h94v527h-94v-354q0 -85 -52 -85q-51 0 -51 80v359h-94v-394q0 -66 15 -96q21 -44 81 -44q38 0 64 29q14 15 37 60zM62 710l121 1l61 -106
h-84zM109 690l59 -65h40l-39 65h-60z" />
    <glyph glyph-name="ucircumflex" unicode="&#xfb;" horiz-adv-x="393" 
d="M200 34q-30 -41 -81 -41q-69 0 -96 49q-20 37 -20 111v414h134v-379q0 -60 31 -60q32 0 32 65v374h134v-567h-134v34zM220 102v-82h94v527h-94v-354q0 -85 -52 -85q-51 0 -51 80v359h-94v-394q0 -66 15 -96q21 -44 81 -44q38 0 64 29q14 15 37 60zM279 602h-99l-21 23
l-19 -23h-99l67 91h108zM244 622l-40 51h-85l-42 -51h51l31 36l32 -36h53z" />
    <glyph glyph-name="udieresis" unicode="&#xfc;" horiz-adv-x="390" 
d="M200 34q-30 -41 -81 -41q-69 0 -96 49q-20 37 -20 111v414h134v-379q0 -60 31 -60q32 0 32 65v374h134v-567h-134v34zM220 102v-82h94v527h-94v-354q0 -85 -52 -85q-51 0 -51 80v359h-94v-394q0 -66 15 -96q21 -44 81 -44q38 0 64 29q14 15 37 60zM199 709h96v-96h-96v96
zM219 689v-56h56v56h-56zM34 709h96v-96h-96v96zM54 689v-56h56v56h-56z" />
    <glyph glyph-name="dagger" unicode="&#x2020;" 
 />
    <glyph glyph-name="degree" unicode="&#xb0;" horiz-adv-x="408" 
d="M180 339q-73 0 -124.5 51.5t-51.5 124.5q0 74 52 125t126 51q72 0 123 -52t51 -123q0 -74 -51 -125.5t-125 -51.5zM180 359q66 0 111 45.5t45 111.5q0 63 -45 109t-109 46q-66 0 -112 -45t-46 -111q0 -65 45.5 -110.5t110.5 -45.5zM178 594q-31 0 -53.5 -24t-22.5 -55
q0 -33 22.5 -56t55.5 -23q31 0 54.5 23t23.5 54q0 34 -23 57.5t-57 23.5zM178 614q42 0 71 -29.5t29 -71.5q0 -39 -29.5 -68t-68.5 -29q-41 0 -69.5 29t-28.5 70q0 39 28.5 69t67.5 30z" />
    <glyph glyph-name="cent" unicode="&#xa2;" horiz-adv-x="402" 
d="M133 736h79l1 -66q138 -15 138 -171v-80h-134v62q0 37 -4 50q-9 27 -38 27t-39 -26q-5 -14 -5 -51v-279q0 -41 4 -56q9 -33 39 -33q31 0 39 33q4 14 4 56v84h134v-116q0 -154 -138 -173l1 -64l-81 3v62q-117 18 -132 133q-3 21 -3 71v279q0 83 25 125q31 50 110 62v68z
M153 716v-65q-81 -10 -110 -52q-25 -35 -25 -118v-279q0 -49 3 -68q14 -105 132 -119v-60l41 -1l-1 61q138 14 138 155v96h-94v-64q0 -50 -8 -71q-13 -38 -55 -38q-41 0 -55 38q-8 22 -8 71v279q0 97 64 97q40 0 53 -32q9 -20 9 -65v-42h94v60q0 75 -32 111t-105 42l-1 64
h-40z" />
    <glyph glyph-name="sterling" unicode="&#xa3;" horiz-adv-x="428" 
d="M228 -10q-26 0 -73.5 13.5t-72.5 13.5q-37 0 -83 -25v121q21 9 52 14q36 28 36 95q0 30 -14 65h-74v90h34q-34 68 -34 134q0 75 51 120t128 45q69 0 111 -36q37 -31 63 -97l-122 -30q-14 40 -47 40q-51 0 -51 -54q0 -28 49 -122h140v-90h-120q-4 -97 -47 -162
q51 -13 67 -13q26 0 38 13q9 9 17 35l116 -30q-42 -140 -164 -140zM228 10q102 0 139 106l-78 20q-18 -44 -68 -44q-22 0 -100 21q38 54 49 91q10 33 12 103h119v50h-131q-9 15 -36 72q-22 46 -22 70q0 32 19.5 53t51.5 21q42 0 60 -37l82 21q-43 99 -147 99q-69 0 -114 -39
t-45 -106q0 -66 47 -154h-47v-50h67q21 -49 21 -85q0 -79 -48 -114q-27 -4 -40 -9v-75q29 13 63 13q25 0 72.5 -13.5t73.5 -13.5z" />
    <glyph glyph-name="section" unicode="&#xa7;" 
 />
    <glyph glyph-name="bullet" unicode="&#x2022;" horiz-adv-x="325" 
d="M134 200q-57 0 -97.5 40.5t-40.5 98.5q0 59 40.5 99t99.5 40q57 0 97 -41.5t40 -97.5q0 -58 -40.5 -98.5t-98.5 -40.5z" />
    <glyph glyph-name="paragraph" unicode="&#xb6;" 
 />
    <glyph glyph-name="germandbls" unicode="&#xdf;" horiz-adv-x="405" 
d="M238 0h-63v106q24 2 33 9.5t9 32.5v236q0 46 -43 46q-2 0 -16 -1v90q18 3 23 8t5 24q0 29 -23 29q-21 0 -25 -23q-1 -4 -1 -37v-520h-134v540q0 63 25 91q41 46 144 46q69 0 103 -17q46 -24 46 -85q0 -35 -9.5 -51t-41.5 -31q79 -18 79 -103v-284q0 -15 -2 -27
q-5 -47 -35 -65q-24 -14 -74 -14zM178 450q59 -3 59 -66v-236q0 -53 -42 -60v-68h43q52 0 71.5 18t19.5 68v284q0 60 -42 78q-15 6 -92 14l54 22q38 18 45 29.5t7 41.5q0 52 -41 70q-27 12 -88 12q-94 0 -129 -39q-20 -22 -20 -78v-520h94v500q0 39 5 52q9 28 41 28
q43 0 43 -49q0 -40 -28 -48v-53z" />
    <glyph glyph-name="registered" unicode="&#xae;" horiz-adv-x="363" 
d="M162 383q-62 0 -106 45t-44 108q0 62 44 106t106 44t104.5 -44.5t42.5 -107.5t-42.5 -107t-104.5 -44zM162 406q51 0 88 37.5t37 90.5t-37 90.5t-88 37.5q-54 1 -90 -36t-36 -92q0 -53 37.5 -90.5t88.5 -37.5zM176 534l47 -72h-26l-47 72h-26v-72h-22v157h68q-6 0 -5 1h7
q52 0 52 -40q0 -44 -48 -46zM126 557h45q30 0 30 23q0 17 -34 17h-41v-40z" />
    <glyph glyph-name="copyright" unicode="&#xa9;" horiz-adv-x="735" 
d="M346 -11q-143 0 -242.5 100t-99.5 244q0 145 99.5 245t242.5 100t243 -100t100 -245q0 -144 -100 -244t-243 -100zM346 635q-122 0 -211 -88t-89 -214q0 -125 89 -213t211 -88t211 88t89 213q0 126 -89 214t-211 88zM355 139q-86 0 -136.5 55t-50.5 142q0 83 52 139.5
t136 56.5q59 0 103 -34t54 -91h-45q-22 81 -112 81q-67 0 -106 -44t-39 -110q0 -60 34 -103q40 -49 109 -49q94 0 115 79h43q-13 -57 -55.5 -89.5t-101.5 -32.5z" />
    <glyph glyph-name="trademark" unicode="&#x2122;" horiz-adv-x="459" 
d="M401 650v-196h-27v167h-2l-66 -167h-17l-65 167v0v-167h-28v196h46l56 -141l57 141h46zM159 650v-29h-64v-167h-28v167h-65v29h157z" />
    <glyph glyph-name="acute" unicode="&#xb4;" horiz-adv-x="267" 
d="M286 801l-121 2l-61 -108h84zM239 781l-59 -66h-40l39 67z" />
    <glyph glyph-name="dieresis" unicode="&#xa8;" horiz-adv-x="254" 
d="M176 809h96v-96h-96v96zM196 789v-56h56v56h-56zM8 809h96v-96h-96v96zM28 789v-56h56v56h-56z" />
    <glyph glyph-name="AE" unicode="&#xc6;" horiz-adv-x="617" 
d="M264 99h-99l-20 -99h-145l171 667h389v-130h-152v-104h147v-127h-147v-176h156v-130h-300v99zM284 119v-99h260v90h-156v216h147v87h-147v144h152v90h-354l-160 -627h102l21 99h135zM193 223h71v323zM169 203l82 377h33v-377h-115z" />
    <glyph glyph-name="Oslash" unicode="&#xd8;" horiz-adv-x="471" 
d="M391 503v-333q0 -85 -46 -132.5t-130 -47.5q-72 0 -121 40l-27 -53l-61 30l41 79q-14 36 -14 86v317q0 64 18 102q22 45 74 68q41 17 91 17q67 0 116 -39l29 55l59 -31l-42 -82q13 -27 13 -76zM371 503q0 48 -15 77l38 73l-24 12l-31 -59q-37 31 -55 39q-25 11 -68 11
q-101 0 -143 -66q-20 -32 -20 -101v-317q0 -48 16 -87l-36 -69l25 -13l30 60q57 -53 127 -53q75 0 115.5 41.5t40.5 118.5v333zM213 552q-37 0 -37 -65v-157l73 149v24q0 49 -36 49zM213 572q56 0 56 -69v-28l-113 -232v244q0 85 57 85zM176 188v-34q0 -37 35 -37
q38 0 38 53v160zM156 193l113 219v-242q0 -73 -58 -73q-24 0 -39.5 16t-15.5 41v39z" />
    <glyph glyph-name="plusminus" unicode="&#xb1;" 
 />
    <glyph glyph-name="yen" unicode="&#xa5;" horiz-adv-x="542" 
d="M156 666l111 -246l110 247h157l-180 -362h119v-77h-133v-72h137v-72h-137v-84h-147v84h-129v72h129v72h-128v77h114l-178 361h155zM143 646h-110l178 -361h-126v-37h128v-112h-129v-32h129v-84h107v84h137v32h-137v112h133v37h-132l181 362h-112l-123 -276z" />
    <glyph glyph-name="mu" unicode="&#xb5;" horiz-adv-x="355" 
d="M39 -1v192l-38 -23v107l38 24v365h125v-292l70 40v-108l-70 -40v-152h147v-113h-272zM289 90h-147v187l70 40v57l-70 -41v309h-81v-356l-41 -23v-57l41 23v-208h228v69z" />
    <glyph glyph-name="mu" unicode="&#x3bc;" horiz-adv-x="355" 
d="M39 -1v192l-38 -23v107l38 24v365h125v-292l70 40v-108l-70 -40v-152h147v-113h-272zM289 90h-147v187l70 40v57l-70 -41v309h-81v-356l-41 -23v-57l41 23v-208h228v69z" />
    <glyph glyph-name="ordfeminine" unicode="&#xaa;" horiz-adv-x="385" 
d="M317 130v-130h-316v127l174 410h-171v130h330v-123l-177 -414h160zM297 110h-170l187 439v98h-290v-90h181l-184 -434v-103h276v90zM41 803h99l21 -24l19 24h99l-67 -91h-108zM76 783l40 -51h85l42 51h-51l-31 -36l-32 36h-53z" />
    <glyph glyph-name="ordmasculine" unicode="&#xba;" horiz-adv-x="354" 
d="M298 115v-115h-295v115l154 338h-148v114h297v-104l-156 -348h148zM278 95h-159l167 372v80h-257v-74h159l-165 -363v-90h255v75zM31 693h99l21 -24l19 24h99l-67 -91h-108zM66 673l40 -51h85l42 51h-51l-31 -36l-32 36h-53z" />
    <glyph glyph-name="ae" unicode="&#xe6;" horiz-adv-x="580" 
d="M364 -6q-28 0 -58 6h-108v38q-22 -25 -37 -34q-19 -11 -50 -11q-107 0 -107 143v95q0 49 33 84q25 26 76 49q43 17 85 34v39q0 41 -33 41q-31 0 -31 -53v-30h-126v14q0 74 13 102q19 41 82 56q29 7 59 7q64 0 104 -25q46 25 95 25q101 0 138 -67q27 -48 27 -154v-93h-198
v-128q0 -42 33 -42t33 42v91h132v-55q0 -174 -162 -174zM28 415h86v10q0 73 51 73q53 0 53 -61v-52q-50 -19 -137 -60q-57 -34 -57 -94v-95q0 -123 87 -123q35 0 62 26q23 27 45 54v-73h90q30 -6 56 -6q78 0 111 39q31 36 31 115v35h-92v-71q0 -62 -53 -62t-53 62v148h198
v73q0 98 -22 140q-32 61 -123 61q-46 0 -96 -29q-41 29 -103 29q-95 0 -122 -48q-12 -21 -12 -91zM362 478q-34 0 -34 -43v-76h66v76q0 43 -32 43zM362 498q52 0 52 -63v-96h-106v96q0 63 54 63zM133 189q0 -53 3 -69q5 -28 32 -28q30 0 30 44v164q-37 -23 -51 -42.5
t-14 -68.5zM121 250q12 35 97 86v-200q0 -64 -50 -64q-41 0 -51 43q-4 16 -4 74q0 37 8 61z" />
    <glyph glyph-name="oslash" unicode="&#xf8;" horiz-adv-x="403" 
d="M332 389v-231q0 -120 -103 -154q-33 -11 -65 -11q-65 0 -115 37l-28 -45l-48 28l40 71q-12 26 -12 74v246q0 170 167 170q59 0 103 -34l30 51l49 -28l-39 -68q21 -39 21 -106zM312 389q0 66 -21 103l35 62l-21 13l-30 -54q-47 41 -107 41q-147 0 -147 -150v-246
q0 -48 13 -74l-37 -62l19 -13l30 49q56 -45 118 -45q104 0 136 80q12 30 12 65v231zM168 479q-34 0 -34 -49v-130l63 114v23q0 42 -29 42zM217 437v-24l-103 -186v203q0 69 54 69q49 0 49 -62zM134 176v-31q0 -61 34 -61q29 0 29 45v161zM114 181l103 187v-239
q0 -65 -49 -65q-54 0 -54 81v36z" />
    <glyph glyph-name="questiondown" unicode="&#xbf;" horiz-adv-x="372" 
d="M73 257q45 67 45 123v10h116q-2 -84 -13 -126q-15 -53 -60 -114q-27 -37 -27 -71q0 -33 4 -45q7 -26 31 -26q23 0 30 20q4 10 4 39v57h130v-48q0 -82 -17 -116q-23 -49 -95 -65q-24 -5 -48 -5q-79 0 -126 44t-47 123q0 61 19 108q14 32 54 92zM90 246q-39 -58 -52 -87
q-18 -44 -18 -102q0 -71 41.5 -109t111.5 -38q116 0 134 85q6 26 6 81v28h-90v-37q0 -79 -54 -79q-55 0 -55 91q0 41 31 83q39 52 53 99q14 43 16 109h-76q-4 -58 -48 -124zM247 417h-138v149h138v-149zM227 437v109h-98v-109h98z" />
    <glyph glyph-name="exclamdown" unicode="&#xa1;" horiz-adv-x="200" 
d="M22 369h106l18 -469h-139zM41 349l-13 -429h97l-16 429h-68zM146 418h-139v149h139v-149zM126 438v109h-99v-109h99z" />
    <glyph glyph-name="logicalnot" unicode="&#xac;" 
 />
    <glyph glyph-name="florin" unicode="&#x192;" horiz-adv-x="451" 
d="M279 208q16 -3 127 -3v-45q0 -164 -185 -164q-155 0 -173 135q-3 21 -3 71v29h-54v101h54v29h-54v101h54v19q0 98 39 142q42 48 144 48q178 0 178 -172v-29h-133q1 18 1 28q-2 22 -16 41.5t-37 19.5q-30 0 -39 -26q-6 -15 -6 -52v-19h71v-101h-71v-29h71v-101h-71v-29
q0 -40 5 -56q10 -30 41 -34q25 -3 41 21q12 20 13 44h-2q0 6 -2 16.5t-1 12.5q1 4 8 2zM378 160v17h-75q-1 -42 -21 -68q-23 -30 -64 -25q-44 6 -60 43q-10 25 -10 75v57h71v45h-71v85h71v45h-71v47q0 107 73 106q35 0 57 -27.5t25 -61.5h75v1q0 144 -150 144
q-90 0 -125 -40q-30 -35 -30 -122v-47h-54v-45h54v-85h-54v-45h54v-57q0 -91 24 -128q32 -50 124 -50q157 0 157 136z" />
    <glyph glyph-name="guillemotleft" unicode="&#xab;" horiz-adv-x="419" 
d="M202 211v132l160 148v-144l-68 -69l68 -67v-146zM230 223l104 -95v71l-79 78l79 81v69l-104 -96v-108zM2 211v132l160 148v-144l-68 -69l68 -67v-146zM30 223l104 -95v71l-79 78l79 81v69l-104 -96v-108z" />
    <glyph glyph-name="guillemotright" unicode="&#xbb;" horiz-adv-x="410" 
d="M162 211v132l-160 148v-144l68 -69l-68 -67v-146zM134 223l-104 -95v71l79 78l-79 81v69l104 -96v-108zM362 211v132l-160 148v-144l68 -69l-68 -67v-146zM334 223l-104 -95v71l79 78l-79 81v69l104 -96v-108z" />
    <glyph glyph-name="ellipsis" unicode="&#x2026;" horiz-adv-x="738" 
d="M311 148h139v-148h-139v148zM331 128v-108h99v108h-99zM541 148h139v-148h-139v148zM561 128v-108h99v108h-99zM81 148h139v-148h-139v148zM101 128v-108h99v108h-99z" />
    <glyph glyph-name="nonbreakingspace" unicode="&#xa0;" 
 />
    <glyph glyph-name="Agrave" unicode="&#xc0;" horiz-adv-x="435" 
d="M229 95h-77l-13 -95h-139l94 667h192l93 -667h-142zM247 115l8 -95h101l-88 627h-157l-88 -627h98l13 95h113zM191 555h-2q-7 -105 -26 -334h53q-16 184 -25 334zM210 565q15 -217 28 -364h-97q11 124 30 374h38zM74 804l121 2l61 -108h-84zM121 784l59 -66h40l-39 67z
" />
    <glyph glyph-name="Atilde" unicode="&#xc3;" horiz-adv-x="435" 
d="M229 95h-77l-13 -95h-139l94 667h192l93 -667h-142zM247 115l8 -95h101l-88 627h-157l-88 -627h98l13 95h113zM191 555h-2q-7 -105 -26 -334h53q-16 184 -25 334zM210 565q15 -217 28 -364h-97q11 124 30 374h38zM45 715q15 92 87 92q16 0 47.5 -11.5t45.5 -11.5
q9 0 14 15h96q-4 -41 -19 -61q-25 -33 -62 -33q-16 0 -50 12.5t-46 12.5q-13 0 -17 -15h-96zM69 735h58q9 15 31 15q16 0 48 -12.5t48 -12.5q49 0 59 54h-60q-9 -15 -28 -15q-16 0 -46.5 11.5t-46.5 11.5q-47 0 -63 -52z" />
    <glyph glyph-name="Otilde" unicode="&#xd5;" horiz-adv-x="423" 
d="M183 -10q-82 0 -131 44t-49 124v334q0 184 182 184q181 0 181 -184v-343q0 -77 -54 -120q-49 -39 -129 -39zM183 10q71 0 115 33q48 37 48 106v343q0 164 -161 164q-162 0 -162 -164v-334q0 -71 43.5 -109.5t116.5 -38.5zM186 557q-39 0 -39 -76v-277q0 -38 4 -52
q8 -31 36 -31q26 0 33 33q3 12 3 53v274q0 37 -4 49q-7 27 -33 27zM243 481v-274q0 -48 -6 -68q-12 -38 -50 -38q-39 0 -52 36q-8 21 -8 67v277q0 96 59 96q37 0 49 -32q8 -20 8 -64zM35 715q15 92 87 92q16 0 47.5 -11.5t45.5 -11.5q9 0 14 15h96q-4 -41 -19 -61
q-25 -33 -62 -33q-16 0 -50 12.5t-46 12.5q-13 0 -17 -15h-96zM59 735h58q9 15 31 15q16 0 48 -12.5t48 -12.5q49 0 59 54h-60q-9 -15 -28 -15q-16 0 -46.5 11.5t-46.5 11.5q-47 0 -63 -52z" />
    <glyph glyph-name="OE" unicode="&#x152;" horiz-adv-x="568" 
d="M193 -10q-153 0 -183 121q-8 29 -8 81v300q0 184 179 184q29 0 69 -9h265v-130h-152v-104h146v-128h-146v-176h156v-129h-269q-25 -10 -57 -10zM193 10q29 0 53 10h253v89h-156v216h146v88h-146v144h152v90h-247q-40 9 -67 9q-159 0 -159 -164v-300q0 -106 52 -149
q41 -33 119 -33zM184 553q-39 0 -39 -69v-296q0 -70 38 -70t38 66v303q0 66 -37 66zM184 573q57 0 57 -86v-303q0 -86 -58 -86t-58 90v296q0 89 59 89z" />
    <glyph glyph-name="oe" unicode="&#x153;" horiz-adv-x="584" 
d="M331 136q0 -49 34 -49q33 0 33 49v84h131v-37q0 -63 -8 -90q-12 -47 -50.5 -73.5t-101.5 -26.5q-60 0 -102 23q-51 -23 -96 -23q-79 0 -124 40q-48 42 -48 122v252q0 167 173 167q49 0 93 -27q46 27 105 27q104 0 139 -77q22 -48 22 -164v-75h-200v-122zM311 136v142h200
v55q0 109 -17 150q-30 71 -124 71q-56 0 -105 -30q-47 30 -93 30q-153 0 -153 -147v-252q0 -142 152 -142q43 0 97 26q46 -26 101 -26q123 0 137 103q3 19 3 67v17h-91v-64q0 -69 -53 -69q-54 0 -54 69zM366 479q-35 0 -35 -45v-76h67v76q0 45 -32 45zM366 499q52 0 52 -65
v-96h-107v96q0 65 55 65zM164 480q-32 0 -32 -46v-298q0 -52 33 -52q31 0 31 52v298q0 46 -32 46zM164 500q52 0 52 -66v-298q0 -72 -51 -72q-53 0 -53 72v298q0 66 52 66z" />
    <glyph glyph-name="endash" unicode="&#x2013;" horiz-adv-x="427" 
d="M3 347h364v-113h-364v113zM23 327v-73h324v73h-324z" />
    <glyph glyph-name="emdash" unicode="&#x2014;" horiz-adv-x="804" 
d="M0 348h743v-115h-743v115zM20 328v-75h703v75h-703z" />
    <glyph glyph-name="quotedblleft" unicode="&#x201c;" horiz-adv-x="375" 
d="M138 621l-39 -50h38v-150h-135v150l94 94zM114 616l-21 20l-71 -75v-120h95v110l-56 1zM318 621l-39 -50h38v-150h-135v150l94 94zM294 616l-21 20l-71 -75v-120h95v110l-56 1z" />
    <glyph glyph-name="quotedblright" unicode="&#x201d;" horiz-adv-x="373" 
d="M182 465l39 50h-39v150h136v-150l-95 -94zM206 470l20 -20l72 76v119h-96v-110l57 -1zM2 465l39 50h-39v150h136v-150l-95 -94zM26 470l20 -20l72 76v119h-96v-110l57 -1z" />
    <glyph glyph-name="quoteleft" unicode="&#x2018;" 
d="M138 623l-39 -50h38v-150h-135v150l94 94zM114 618l-21 20l-71 -75v-120h95v110l-56 1z" />
    <glyph glyph-name="quoteright" unicode="&#x2019;" 
d="M2 467l39 50h-39v150h136v-150l-95 -94zM26 472l20 -20l72 76v119h-96v-110l57 -1z" />
    <glyph glyph-name="divide" unicode="&#xf7;" 
 />
    <glyph glyph-name="ydieresis" unicode="&#xff;" horiz-adv-x="397" 
d="M240 -44q-12 -25 -37 -31q-9 -2 -52 -2h-122l1 72h43q29 0 29 17q0 10 -3 22l-102 533h135l23 -141q7 -40 20 -189l1 -11q6 69 20 193l24 148h132l-100 -557q-7 -42 -12 -54zM221 -36q5 10 12 50l95 533h-91l-21 -131q-12 -75 -30 -256h-20q-12 152 -30 263l-21 124h-94
l98 -509q3 -14 3 -26q0 -36 -50 -36h-23v-33h102q45 0 54.5 3t15.5 18zM206 699h96v-96h-96v96zM226 679v-56h56v56h-56zM38 699h96v-96h-96v96zM58 679v-56h56v56h-56z" />
    <glyph glyph-name="Ydieresis" unicode="&#x178;" horiz-adv-x="418" 
d="M254 0h-142v228l-115 439h140q22 -117 49 -283q23 176 45 283h140l-117 -439v-228zM234 20v210l111 417h-98q-10 -50 -27 -165q-15 -106 -28 -161h-15l-56 326h-98l109 -417v-210h102zM216 809h96v-96h-96v96zM236 789v-56h56v56h-56zM48 809h96v-96h-96v96zM68 789v-56
h56v56h-56z" />
    <glyph glyph-name="currency" unicode="&#xa4;" 
 />
    <glyph glyph-name="guilsinglleft" unicode="&#x2039;" horiz-adv-x="219" 
d="M2 211v132l160 148v-144l-68 -69l68 -67v-146zM30 223l104 -95v71l-79 78l79 81v69l-104 -96v-108z" />
    <glyph glyph-name="guilsinglright" unicode="&#x203a;" horiz-adv-x="210" 
d="M162 211v132l-160 148v-144l68 -69l-68 -67v-146zM134 223l-104 -95v71l79 78l-79 81v69l104 -96v-108z" />
    <glyph glyph-name="periodcentered" unicode="&#xb7;" horiz-adv-x="193" 
d="M-3 368h139v-148h-139v148zM17 348v-108h99v108h-99z" />
    <glyph glyph-name="periodcentered" unicode="&#x2219;" horiz-adv-x="193" 
d="M-3 368h139v-148h-139v148zM17 348v-108h99v108h-99z" />
    <glyph glyph-name="quotesinglbase" unicode="&#x201a;" horiz-adv-x="200" 
d="M2 -50l39 50h-39v150h136v-150l-95 -94zM26 -45l20 -20l72 76v119h-96v-110l57 -1z" />
    <glyph glyph-name="quotedblbase" unicode="&#x201e;" horiz-adv-x="380" 
d="M182 -50l39 50h-39v150h136v-150l-95 -94zM206 -45l20 -20l72 76v119h-96v-110l57 -1zM2 -50l39 50h-39v150h136v-150l-95 -94zM26 -45l20 -20l72 76v119h-96v-110l57 -1z" />
    <glyph glyph-name="Acircumflex" unicode="&#xc2;" horiz-adv-x="435" 
d="M229 95h-77l-13 -95h-139l94 667h192l93 -667h-142zM247 115l8 -95h101l-88 627h-157l-88 -627h98l13 95h113zM191 555h-2q-7 -105 -26 -334h53q-16 184 -25 334zM210 565q15 -217 28 -364h-97q11 124 30 374h38zM309 712h-99l-21 23l-19 -23h-99l67 91h108zM274 732
l-40 51h-85l-42 -51h51l31 36l32 -36h53z" />
    <glyph glyph-name="Ecircumflex" unicode="&#xca;" horiz-adv-x="351" 
d="M-1 667h294v-130h-150v-104h144v-127h-144v-176h156v-130h-300v667zM19 647v-627h260v90h-156v216h144v87h-144v144h150v90h-254zM259 712h-99l-21 23l-19 -23h-99l67 91h108zM224 732l-40 51h-85l-42 -51h51l31 36l32 -36h53z" />
    <glyph glyph-name="Aacute" unicode="&#xc1;" horiz-adv-x="435" 
d="M229 95h-77l-13 -95h-139l94 667h192l93 -667h-142zM247 115l8 -95h101l-88 627h-157l-88 -627h98l13 95h113zM191 555h-2q-7 -105 -26 -334h53q-16 184 -25 334zM210 565q15 -217 28 -364h-97q11 124 30 374h38zM296 801l-121 2l-61 -108h84zM249 781l-59 -66h-40l39 67
z" />
    <glyph glyph-name="Edieresis" unicode="&#xcb;" horiz-adv-x="351" 
d="M-1 667h294v-130h-150v-104h144v-127h-144v-176h156v-130h-300v667zM19 647v-627h260v90h-156v216h144v87h-144v144h150v90h-254zM179 809h96v-96h-96v96zM199 789v-56h56v56h-56zM11 809h96v-96h-96v96zM31 789v-56h56v56h-56z" />
    <glyph glyph-name="Egrave" unicode="&#xc8;" horiz-adv-x="351" 
d="M-1 667h294v-130h-150v-104h144v-127h-144v-176h156v-130h-300v667zM19 647v-627h260v90h-156v216h144v87h-144v144h150v90h-254zM53 800l121 1l60 -106h-84zM99 780l59 -65h40l-39 65h-60z" />
    <glyph glyph-name="Iacute" unicode="&#xcd;" horiz-adv-x="203" 
d="M0 667h144v-667h-144v667zM20 647v-627h104v627h-104zM166 801l-121 2l-61 -108h84zM119 781l-59 -66h-40l39 67z" />
    <glyph glyph-name="Icircumflex" unicode="&#xce;" horiz-adv-x="202" 
d="M0 667h144v-667h-144v667zM20 647v-627h104v627h-104zM189 712h-99l-21 23l-19 -23h-99l67 91h108zM154 732l-40 51h-85l-42 -51h51l31 36l32 -36h53z" />
    <glyph glyph-name="Idieresis" unicode="&#xcf;" horiz-adv-x="202" 
d="M0 667h144v-667h-144v667zM20 647v-627h104v627h-104zM86 809h96v-96h-96v96zM106 789v-56h56v56h-56zM-52 809h96v-96h-96v96zM-32 789v-56h56v56h-56z" />
    <glyph glyph-name="Igrave" unicode="&#xcc;" horiz-adv-x="202" 
d="M0 667h144v-667h-144v667zM20 647v-627h104v627h-104zM-28 800l121 1l61 -106h-84zM19 780l59 -65h40l-39 65h-60z" />
    <glyph glyph-name="Oacute" unicode="&#xd3;" horiz-adv-x="423" 
d="M183 -10q-82 0 -131 44t-49 124v334q0 184 182 184q181 0 181 -184v-343q0 -77 -54 -120q-49 -39 -129 -39zM183 10q71 0 115 33q48 37 48 106v343q0 164 -161 164q-162 0 -162 -164v-334q0 -71 43.5 -109.5t116.5 -38.5zM186 557q-39 0 -39 -76v-277q0 -38 4 -52
q8 -31 36 -31q26 0 33 33q3 12 3 53v274q0 37 -4 49q-7 27 -33 27zM243 481v-274q0 -48 -6 -68q-12 -38 -50 -38q-39 0 -52 36q-8 21 -8 67v277q0 96 59 96q37 0 49 -32q8 -20 8 -64zM286 811h-121l-61 -106h84zM239 791l-59 -66h-40l39 65z" />
    <glyph glyph-name="Ocircumflex" unicode="&#xd4;" horiz-adv-x="423" 
d="M183 -10q-82 0 -131 44t-49 124v334q0 184 182 184q181 0 181 -184v-343q0 -77 -54 -120q-49 -39 -129 -39zM183 10q71 0 115 33q48 37 48 106v343q0 164 -161 164q-162 0 -162 -164v-334q0 -71 43.5 -109.5t116.5 -38.5zM186 557q-39 0 -39 -76v-277q0 -38 4 -52
q8 -31 36 -31q26 0 33 33q3 12 3 53v274q0 37 -4 49q-7 27 -33 27zM243 481v-274q0 -48 -6 -68q-12 -38 -50 -38q-39 0 -52 36q-8 21 -8 67v277q0 96 59 96q37 0 49 -32q8 -20 8 -64zM299 712h-99l-21 23l-19 -23h-99l67 91h108zM264 732l-40 51h-85l-42 -51h51l31 36
l32 -36h53z" />
    <glyph glyph-name="Ograve" unicode="&#xd2;" horiz-adv-x="423" 
d="M183 -10q-82 0 -131 44t-49 124v334q0 184 182 184q181 0 181 -184v-343q0 -77 -54 -120q-49 -39 -129 -39zM183 10q71 0 115 33q48 37 48 106v343q0 164 -161 164q-162 0 -162 -164v-334q0 -71 43.5 -109.5t116.5 -38.5zM186 557q-39 0 -39 -76v-277q0 -38 4 -52
q8 -31 36 -31q26 0 33 33q3 12 3 53v274q0 37 -4 49q-7 27 -33 27zM243 481v-274q0 -48 -6 -68q-12 -38 -50 -38q-39 0 -52 36q-8 21 -8 67v277q0 96 59 96q37 0 49 -32q8 -20 8 -64zM82 810l121 1l61 -106h-84zM129 790l59 -65h40l-39 65h-60z" />
    <glyph glyph-name="Uacute" unicode="&#xda;" horiz-adv-x="415" 
d="M175 -10q-176 0 -176 181v496h144v-496q0 -57 35 -57q36 0 36 57v496h144v-496q0 -181 -183 -181zM175 10q163 0 163 161v476h-104v-476q0 -77 -56 -77q-55 0 -55 77v476h-104v-476q0 -161 156 -161zM286 801h-121l-61 -106h84zM239 781l-59 -66h-40l39 65z" />
    <glyph glyph-name="Ucircumflex" unicode="&#xdb;" horiz-adv-x="415" 
d="M175 -10q-176 0 -176 181v496h144v-496q0 -57 35 -57q36 0 36 57v496h144v-496q0 -181 -183 -181zM175 10q163 0 163 161v476h-104v-476q0 -77 -56 -77q-55 0 -55 77v476h-104v-476q0 -161 156 -161zM289 712h-99l-21 23l-19 -23h-99l67 91h108zM254 732l-40 51h-85
l-42 -51h51l31 36l32 -36h53z" />
    <glyph glyph-name="Ugrave" unicode="&#xd9;" horiz-adv-x="415" 
d="M175 -10q-176 0 -176 181v496h144v-496q0 -57 35 -57q36 0 36 57v496h144v-496q0 -181 -183 -181zM175 10q163 0 163 161v476h-104v-476q0 -77 -56 -77q-55 0 -55 77v476h-104v-476q0 -161 156 -161zM78 801h121l60 -106h-84zM124 781l59 -66h41l-40 65z" />
    <glyph glyph-name="circumflex" unicode="&#x2c6;" horiz-adv-x="233" 
d="M249 712h-99l-21 23l-19 -23h-99l67 91h108zM214 732l-40 51h-85l-42 -51h51l31 36l32 -36h53z" />
    <glyph glyph-name="tilde" unicode="&#x2dc;" horiz-adv-x="294" 
d="M25 725q15 92 87 92q16 0 47.5 -11.5t45.5 -11.5q9 0 14 15h96q-4 -41 -19 -61q-25 -33 -62 -33q-16 0 -50 12.5t-46 12.5q-13 0 -17 -15h-96zM49 745h58q9 15 31 15q16 0 48 -12.5t48 -12.5q49 0 59 54h-60q-9 -15 -28 -15q-16 0 -46.5 11.5t-46.5 11.5q-47 0 -63 -52z
" />
    <glyph glyph-name="macron" unicode="&#xaf;" horiz-adv-x="253" 
d="M8 790h263v-70h-263v70zM28 770v-30h223v30h-223z" />
    <glyph glyph-name="macron" unicode="&#x2c9;" horiz-adv-x="253" 
d="M8 790h263v-70h-263v70zM28 770v-30h223v30h-223z" />
    <glyph glyph-name="cedilla" unicode="&#xb8;" horiz-adv-x="224" 
d="M150 -146q16 -12 29 -12q12 0 22.5 13t10.5 33q0 21 -10.5 33.5t-22.5 12.5q-22 0 -35 -8v75h27v-39h8q26 0 43.5 -22t17.5 -52q0 -29 -17.5 -51.5t-43.5 -22.5q-25 0 -43 14z" />
    <glyph glyph-name="Scaron" unicode="&#x160;" 
 />
    <glyph glyph-name="scaron" unicode="&#x161;" 
 />
    <glyph glyph-name="brokenbar" unicode="&#xa6;" 
 />
    <glyph glyph-name="Eth" unicode="&#xd0;" 
 />
    <glyph glyph-name="eth" unicode="&#xf0;" 
 />
    <glyph glyph-name="Yacute" unicode="&#xdd;" 
 />
    <glyph glyph-name="yacute" unicode="&#xfd;" 
 />
    <glyph glyph-name="Thorn" unicode="&#xde;" 
 />
    <glyph glyph-name="thorn" unicode="&#xfe;" 
 />
    <glyph glyph-name="minus" unicode="&#xad;" 
 />
    <glyph glyph-name="minus" unicode="&#x2212;" 
 />
    <glyph glyph-name="multiply" unicode="&#xd7;" 
 />
    <glyph glyph-name="onesuperior" unicode="&#xb9;" 
 />
    <glyph glyph-name="twosuperior" unicode="&#xb2;" 
 />
    <glyph glyph-name="threesuperior" unicode="&#xb3;" 
 />
    <glyph glyph-name="onehalf" unicode="&#xbd;" 
 />
    <glyph glyph-name="onequarter" unicode="&#xbc;" 
 />
    <glyph glyph-name="threequarters" unicode="&#xbe;" 
 />
    <glyph glyph-name="Lslash" unicode="&#x141;" 
 />
    <glyph glyph-name="lslash" unicode="&#x142;" 
 />
    <glyph glyph-name="HT" 
 />
    <glyph glyph-name="LF" 
 />
    <glyph glyph-name="nonmarkingreturn" 
 />
    <glyph glyph-name="Zcaron" unicode="&#x17d;" 
 />
    <glyph glyph-name="zcaron" unicode="&#x17e;" 
 />
    <glyph glyph-name="DLE" 
 />
    <glyph glyph-name="DC1" 
 />
    <glyph glyph-name="DC2" 
 />
    <glyph glyph-name="DC3" 
 />
    <glyph glyph-name="DC4" 
 />
    <glyph glyph-name="RS" 
 />
    <glyph glyph-name="US" 
 />
    <glyph glyph-name="notequal" unicode="&#x2260;" 
 />
    <glyph glyph-name="infinity" unicode="&#x221e;" 
 />
    <glyph glyph-name="lessequal" unicode="&#x2264;" 
 />
    <glyph glyph-name="greaterequal" unicode="&#x2265;" 
 />
    <glyph glyph-name="partialdiff" unicode="&#x2202;" horiz-adv-x="257" 
d="M158 294v-294h-116v216l-38 -26v117l38 26v330h116v-251l44 32v-118zM180 401l-44 -32v272h-72v-320l-38 -25v-64l38 25v-235h72v283l44 33v63z" />
    <glyph glyph-name="summation" unicode="&#x2211;" horiz-adv-x="415" 
d="M37 40q-26 27 -33 71q-3 20 -3 79v47h140v-46q0 -78 37 -78q41 0 41 60q0 44 -26 75q-8 11 -60 55q-68 57 -93 90q-41 54 -41 120q0 164 177 164q172 0 176 -141l2 -62h-140q1 17 1 23q0 56 -37 56q-35 0 -35 -37q0 -19 15 -39q11 -14 97 -87q63 -53 83 -88
q26 -45 26 -119q0 -193 -185 -193q-96 0 -142 50zM51 53q41 -43 128 -43q165 0 165 173q0 76 -31 121q-17 26 -90 87q-69 59 -80 74q-20 25 -20 51q0 23 15.5 40t39.5 17q57 0 57 -76v-3h99l-2 42q-3 121 -156 121q-157 0 -157 -144q0 -60 40 -112q22 -29 86 -83
q55 -46 67 -61q27 -34 27 -84q0 -80 -61 -80q-57 0 -57 98v26h-100v-27q0 -56 2 -72q6 -41 28 -65zM61 803h99l21 -24l19 24h99l-67 -91h-108zM96 783l40 -51h85l42 51h-51l-31 -36l-32 36h-53z" />
    <glyph glyph-name="product" unicode="&#x220f;" horiz-adv-x="383" 
d="M167 -7q-59 0 -101 24q-50 27 -58 81q-5 32 -5 80v49h131v-88q0 -53 33 -53q31 0 31 51q0 64 -41 96q-72 56 -79 63q-49 42 -61 77q-9 26 -9 55q0 73 47 111q42 35 117 35q86 0 122 -43q32 -38 32 -125v-14h-132v14q0 74 -31 74q-29 0 -29 -38q0 -23 26 -48q8 -6 46 -33
q70 -49 95 -87q31 -47 31 -124q0 -157 -165 -157zM214 412h92q-1 76 -28 107q-31 35 -106 35q-144 0 -144 -126q0 -45 27 -81q18 -25 64 -60l50 -38q49 -42 49 -112q0 -71 -51 -71q-53 0 -53 73v68h-91v-29q0 -49 3 -66q6 -39 26 -60q38 -39 115 -39q145 0 145 137
q0 72 -29 114q-22 34 -88 80q-42 30 -53 41q-28 27 -28 57q0 58 49 58q50 0 51 -88zM51 693h99l21 -24l19 24h99l-67 -91h-108zM86 673l40 -51h85l42 51h-51l-31 -36l-32 36h-53z" />
    <glyph glyph-name="pi" unicode="&#x3c0;" horiz-adv-x="418" 
d="M254 0h-142v228l-115 439h140q22 -117 49 -283q23 176 45 283h140l-117 -439v-228zM234 20v210l111 417h-98q-10 -50 -27 -165q-15 -106 -28 -161h-15l-56 326h-98l109 -417v-210h102zM296 801l-121 2l-61 -108h84zM249 781l-59 -66h-40l39 67z" />
    <glyph glyph-name="integral" unicode="&#x222b;" horiz-adv-x="398" 
d="M240 -44q-12 -25 -37 -31q-9 -2 -52 -2h-122l1 72h43q29 0 29 17q0 10 -3 22l-102 533h135l23 -141q7 -40 20 -189l1 -11q6 69 20 193l24 148h132l-100 -557q-7 -42 -12 -54zM221 -36q5 10 12 50l95 533h-91l-21 -131q-12 -75 -30 -256h-20q-12 152 -30 263l-21 124h-94
l98 -509q3 -14 3 -26q0 -36 -50 -36h-23v-33h102q45 0 54.5 3t15.5 18zM276 712l-121 2l-61 -108h84zM229 692l-59 -66h-40l39 67z" />
    <glyph glyph-name="Omega" unicode="&#x3a9;" horiz-adv-x="451" 
d="M221 -1q-152 0 -170 133q-3 20 -3 70v32h-54v95h54v35h-54v95h54v22q0 97 38 140q41 47 142 47q175 0 175 -169v-26q-46 0 -96 -2q-14 0 -31 2q1 16 1 25q-2 23 -15 41q-17 23 -41 23q-32 0 -42 -27q-6 -16 -6 -54v-22h71v-95h-71v-35h71v-95h-71v-32q0 -41 6 -58
q10 -31 42 -35q28 -4 44 23q13 21 14 48h-2q-1 8 -3 22v4q1 0 4 -1q21 -4 31 -4q1 0 29 1h65v-42q0 -161 -182 -161zM381 180h-80q-2 -43 -21 -68q-22 -30 -62 -25q-42 6 -57 42q-10 23 -10 73v54h71v51h-71v79h71v51h-71v44q0 104 70 103q34 0 55 -27t24 -62h81v4
q0 147 -153 147q-92 0 -127 -41q-31 -36 -31 -124v-44h-54v-51h54v-79h-54v-51h54v-54q0 -92 25 -130q33 -51 126 -51q160 0 160 139v20z" />
    <glyph glyph-name="Omega" unicode="&#x2126;" horiz-adv-x="451" 
d="M221 -1q-152 0 -170 133q-3 20 -3 70v32h-54v95h54v35h-54v95h54v22q0 97 38 140q41 47 142 47q175 0 175 -169v-26q-46 0 -96 -2q-14 0 -31 2q1 16 1 25q-2 23 -15 41q-17 23 -41 23q-32 0 -42 -27q-6 -16 -6 -54v-22h71v-95h-71v-35h71v-95h-71v-32q0 -41 6 -58
q10 -31 42 -35q28 -4 44 23q13 21 14 48h-2q-1 8 -3 22v4q1 0 4 -1q21 -4 31 -4q1 0 29 1h65v-42q0 -161 -182 -161zM381 180h-80q-2 -43 -21 -68q-22 -30 -62 -25q-42 6 -57 42q-10 23 -10 73v54h71v51h-71v79h71v51h-71v44q0 104 70 103q34 0 55 -27t24 -62h81v4
q0 147 -153 147q-92 0 -127 -41q-31 -36 -31 -124v-44h-54v-51h54v-79h-54v-51h54v-54q0 -92 25 -130q33 -51 126 -51q160 0 160 139v20z" />
    <glyph glyph-name="radical" unicode="&#x221a;" 
 />
    <glyph glyph-name="approxequal" unicode="&#x2248;" 
 />
    <glyph glyph-name="approxequal" unicode="&#x22f2;" 
 />
    <glyph glyph-name="Delta" unicode="&#x394;" 
 />
    <glyph glyph-name="Delta" unicode="&#x2206;" 
 />
    <glyph glyph-name="lozenge" unicode="&#x25ca;" 
 />
    <glyph glyph-name="fraction" unicode="&#x2044;" 
 />
    <glyph glyph-name="fi" unicode="&#xf001;" 
 />
    <glyph glyph-name="fl" unicode="&#xf002;" 
 />
    <glyph glyph-name="dotlessi" unicode="&#x131;" horiz-adv-x="191" 
d="M-1 565h134v-565h-134v565zM19 545v-525h94v525h-94z" />
    <glyph glyph-name="breve" unicode="&#x2d8;" horiz-adv-x="293" 
d="M161 704q-138 0 -153 118l-1 11h81q11 -37 24 -45t54 -8q37 0 47.5 8t22.5 45h78q-23 -129 -153 -129zM161 724q107 0 129 89h-40q-13 -35 -32 -45q-15 -8 -52 -8q-41 0 -58 8q-22 11 -35 45h-43q18 -89 131 -89z" />
    <glyph glyph-name="dotaccent" unicode="&#x2d9;" horiz-adv-x="110" 
d="M3 820h115v-119h-115v119zM23 800v-79h75v79h-75z" />
    <glyph glyph-name="ring" unicode="&#x2da;" horiz-adv-x="166" 
d="M88 698q-36 0 -61 23.5t-25 60.5q0 36 26.5 58.5t62.5 22.5q35 0 61 -22.5t26 -57.5q0 -36 -27.5 -60.5t-62.5 -24.5zM88 718q26 0 48 19t22 46q0 26 -20 43t-47 17q-28 0 -48.5 -16.5t-20.5 -44.5t19 -46t47 -18zM90 806q-24 0 -24 -24q0 -26 24 -26q23 0 23 26
q0 24 -23 24zM90 826q18 0 30.5 -12.5t12.5 -31.5q0 -18 -12 -32t-31 -14t-31.5 13.5t-12.5 32.5q0 18 12.5 31t31.5 13z" />
    <glyph glyph-name="hungarumlaut" unicode="&#x2dd;" horiz-adv-x="247" 
d="M129 712l46 110h89l-79 -110h-56zM153 728h24l56 78h-47zM1 712l46 110h89l-78 -110h-57zM25 728h25l55 78h-47z" />
    <glyph glyph-name="ogonek" unicode="&#x2db;" horiz-adv-x="236" 
d="M26 -142q-14 20 -14 44q0 48 59 98h100l-48 -38q-31 -26 -31 -47q0 -53 49 -53q10 0 36 6l-2 -66q-11 -4 -26 -2q-25 2 -27 2q-59 0 -96 56zM47 -138q28 -35 71 -35q4 0 17 -3t21 -1l1 20q-9 -1 -16 -1q-31 0 -50 19.5t-19 53.5q0 14 15 33q13 15 26 31l-35 1
q-46 -40 -46 -78q0 -21 15 -40z" />
    <glyph glyph-name="caron" unicode="&#x2c7;" horiz-adv-x="233" 
d="M11 803h99l21 -24l19 24h99l-67 -91h-108zM46 783l40 -51h85l42 51h-51l-31 -36l-32 36h-53z" />
    </font>
</defs>
</svg>
