<?xml version="1.0" standalone="no"?>
<!DOCTYPE svg PUBLIC "-//W3C//DTD SVG 1.1//EN" "http://www.w3.org/Graphics/SVG/1.1/DTD/svg11.dtd" >
<svg>
<metadata>
Created by FontForge 20120731 at Wed Apr 17 22:37:11 2019
 By www-data
Digitized by Dan X. Solo. Software (c) 2001 by Dover Publications, Inc., New York.
</metadata>
<defs>
<font id="BenFranklinOpen" horiz-adv-x="242" >
  <font-face 
    font-family="Ben Franklin Open"
    font-weight="400"
    font-stretch="normal"
    units-per-em="1000"
    panose-1="0 0 4 0 0 0 0 0 0 0"
    ascent="800"
    descent="-200"
    x-height="450"
    cap-height="673"
    bbox="-60 -310 989 871"
    underline-thickness="20"
    underline-position="-123"
    unicode-range="U+0020-F002"
  />
<missing-glyph horiz-adv-x="500" 
d="M63 0v800h375v-800h-375zM125 63h250v675h-250v-675z" />
    <glyph glyph-name=".notdef" horiz-adv-x="500" 
d="M63 0v800h375v-800h-375zM125 63h250v675h-250v-675z" />
    <glyph glyph-name="glyph1" horiz-adv-x="0" 
 />
    <glyph glyph-name="glyph2" 
 />
    <glyph glyph-name="space" unicode=" " 
 />
    <glyph glyph-name="exclam" unicode="!" horiz-adv-x="273" 
d="M60 260q-8 26 -17 65q-4 51 -17 151q-16 75 -16 102q0 42 19 82q3 4 5 5q48 28 84 28q42 0 59 -39l1 -2q10 -24 10 -74q0 -62 -16 -172l-24 -146v-43q0 -30 -12 -32q-8 -2 -16 -6l-7 -3q-5 -2 -12 -2q-14 0 -26.5 8t-12 21.5t-2.5 56.5zM84 264q3 -14 1 -27q-1 -15 0 -28
q5 -5 14 -11q2 0 4 1l6 3q7 3 13 5q0 19 2 57l22 146q16 112 16 172q0 41 -7 61q-13 24 -40 24q-26 0 -65 -21q-15 -33 -15 -69q0 -23 15 -96q5 -67 20 -158q7 -20 14 -59zM181 79q-11 -66 -22.5 -77.5t-73.5 -14.5q-4 1 -7 2q-60 37 -60 83q0 55 85 74q16 3 48.5 -24.5
t29.5 -42.5zM105 120q-62 -14 -62 -50q0 -29 45 -58q22 0 52 6q6 6 16 59q-10 13 -19 26q-5 6 -32 17z" />
    <glyph glyph-name="quotedbl" unicode="&#x22;" horiz-adv-x="341" 
d="M251 548q-7 -44 -17 -111v-27q-2 -19 -12 -21q-4 0 -10 -3t-11 -3q-27 0 -30 22q1 20 -6 56q-6 14 -8 45q-3 41 -5 49q-9 42 -9 58q0 25 11 48q2 4 6 6q28 16 50 16q28 0 39.5 -26.5t1.5 -108.5zM200 412l2 1l3 1q2 10 5 28q17 122 17 167q0 25 -5 36t-20 11
q-13 0 -23 -11q-9 -20 -9 -32q0 -7 6 -33q6 -31 9 -64.5t4.5 -41.5t3.5 -24q0 -2 3 -31zM111 548q-7 -44 -17 -111v-27q-2 -19 -12 -21q-4 0 -10 -3t-11 -3q-27 0 -30 22q1 20 -6 56q-6 14 -8 45q-3 41 -5 49q-9 42 -9 58q0 25 11 48q2 4 6 6q28 16 50 16q28 0 39.5 -26.5
t1.5 -108.5zM60 412l2 1l3 1q2 10 5 28q17 122 17 167q0 25 -5 36t-20 11q-13 0 -23 -11q-9 -20 -9 -32q0 -7 6 -33q6 -31 9 -64.5t4.5 -41.5t3.5 -24q0 -2 3 -31z" />
    <glyph glyph-name="numbersign" unicode="#" horiz-adv-x="497" 
d="M329 145q10 0 18 30q4 23 8 45q2 9 -11 9h-54l37 196l68 1q9 0 16 29q4 22 7 44q2 9 -11 9h-61l25 138q-4 6 -12 6h-7q-10 0 -13 -16l-24 -126h-105l26 136q-4 6 -12 6h-7q-10 0 -13 -16l-23 -128h-77q-9 0 -16 -29q-4 -22 -7 -44q-2 -9 11 -9l73 -1l-39 -196h-85
q-9 0 -16 -29q-4 -22 -7 -44q-2 -9 11 -9l78 -1l-25 -121q4 -6 12 -6h8q9 0 12 16l23 111h104l-24 -121q4 -6 12 -6h8q9 0 12 16l23 110h57zM193 425h102l-38 -195l-101 -1zM277 408h-72l-31 -163h72zM407 526q29 0 29 -32q0 -14 -6 -35q-3 -12 -7 -24q-5 -27 -28 -27h-55
l-32 -161h36q29 0 29 -32q0 -14 -6 -35q-3 -12 -7 -24q-5 -27 -28 -27h-47l-21 -104q-5 -24 -27 -24h-8q-12 0 -21 9.5t-6 24.5l19 94h-71l-21 -104q-5 -24 -27 -24h-8q-12 0 -21 9.5t-6 24.5l19 94h-57q-29 0 -29 32q0 13 6 34q3 13 7 25q5 27 28 27h69l32 161h-50
q-29 0 -29 32q0 13 6 34q3 13 7 25q5 27 28 27h61l25 121q4 23 27 23h7q12 0 21 -9.5t6 -24.5l-22 -110h71l25 121q4 23 27 23h7q12 0 21 -9.5t6 -24.5l-22 -110h43z" />
    <glyph glyph-name="dollar" unicode="$" horiz-adv-x="429" 
d="M335 265q0 25 -20 59q-13 13 -35 34q-7 11 -23 27q-62 34 -69 39q-37 27 -37 55q0 18 18 33.5t43 15.5q18 0 61 -23q13 -6 34 -26q10 7 10 15q0 17 -17 36q-16 15 -31 31q-1 1 -8 1q-4 0 -13 -1.5t-12 -1.5q-5 0 -35 6t-34 6q-7 0 -30 -11.5t-37 -22.5q-21 -18 -30 -50
q-4 -18 -4 -38q0 -54 67 -98q12 -4 29 -12q34 -25 67 -50q21 -22 21 -60q0 -25 -8 -35q-13 -17 -53 -17q-61 0 -140 89q-7 -4 -13.5 -7.5t-6.5 -10.5q0 -4 49 -85q6 -11 19 -11q5 0 18 3.5t17 3.5q5 0 29 -9.5t28 -9.5q5 0 19.5 2t18.5 3.5t11 5.5q29 9 41 15q7 3 24 27
q7 7 16 17t11 21q5 27 5 34zM190 679q15 0 15 -22v-62v-5q7 -1 11 -2.5t11 -6.5h-1v-1h6t17 5t18 5q14 0 26.5 -17.5t40.5 -54.5q12 -16 12 -29q0 -12 -9 -24q-12 -14 -28 -14q-11 0 -20 8.5t-27 24.5q-28 19 -50 19q-13 0 -24.5 -10.5t-11.5 -16.5q0 -18 44 -44l48 -26
q97 -83 97 -138q0 -72 -60 -121q-13 -10 -47 -22q-30 -10 -39 -10q-5 0 -15 1q1 -4 1 -9v-82q0 -19 -12 -19q-17 0 -17 19v82q0 7 2 13q-9 1 -15 2l-13 6.5t-16 5.5t-18.5 -3t-18.5 -3q-22 0 -34 14q-18 21 -42 61q-22 37 -22 43q0 20 15.5 32.5t36.5 12.5q13 0 24 -13
t21 -25q54 -51 88 -51q40 0 40 34q0 24 -51 68q-9 8 -28 16q-22 9 -27 12q-33 21 -53 49q-5 5 -13 12q-12 49 -12 61q0 47 35 89q40 49 101 50v2v62q0 22 14 22z" />
    <glyph glyph-name="percent" unicode="%" horiz-adv-x="721" 
d="M655 166q-18 -91 -55 -127q-29 -27 -47.5 -35t-56.5 -8q-3 0 -16 8t-15 9q-41 18 -65 87q-19 56 -19 112q0 98 68 171q28 31 80 31q60 0 98 -76q32 -63 32 -129q0 -23 -4 -43zM496 23q66 0 104 60q35 53 35 130q0 72 -31 121q-35 55 -94 55q-13 0 -37 -16
q-68 -45 -68 -158q0 -75 30 -133q6 -14 24 -37q11 -9 37 -22zM593 165q-4 -34 -20 -61q-20 -36 -48 -36q-51 0 -77 103q-1 6 -6 52q0 4 13 67q4 20 18 36q15 20 34 20q32 0 60 -50.5t28 -107.5q0 -12 -2 -23zM513 321q-49 -1 -49 -96q0 -51 16 -90q18 -43 44 -43q24 0 39 38
q11 29 12 58q0 15 -6 46t-13 42q-11 20 -14 24q-9 13 -21 16q-5 1 -8 5zM265 436q-18 -91 -55 -127q-29 -27 -47.5 -35t-56.5 -8q-3 0 -16 8t-15 9q-41 18 -65 87q-19 56 -19 112q0 60 31 119q34 67 86 82q4 1 31 1q37 0 69 -36q5 -11 16 -31q44 -67 44 -144q0 -20 -3 -37z
M106 293q65 0 104 59q36 53 36 127q0 71 -34 117q-7 14 -19 34q-34 34 -73 29q-35 -4 -59 -41q-14 -14 -36 -55q-11 -34 -11 -75q0 -76 31 -136q6 -14 24 -37q11 -9 37 -22zM203 435q-4 -34 -20 -61q-20 -36 -48 -36q-51 0 -77 103q-1 6 -6 52q0 4 13 67q4 20 18 36
q15 20 34 20q32 0 60 -50.5t28 -107.5q0 -12 -2 -23zM123 591q-49 -1 -49 -96q0 -51 16 -90q18 -43 44 -43q24 0 39 38q11 29 12 58q0 15 -6 46t-13 42q-11 20 -14 24q-9 13 -21 16q-5 1 -8 5zM550 680q11 0 22.5 -8.5t11.5 -18.5q0 -6 -4 -11l-451 -622l-14 -20
q-6 -6 -24 -6q-12 0 -24 10t-12 21q0 6 3 11l451 622q11 14 17 18t24 4zM75 25q8 -13 16 -13t22 20l450 621q-5 8 -13 8q-14 0 -25 -15z" />
    <glyph glyph-name="ampersand" unicode="&#x26;" horiz-adv-x="773" 
d="M200 452q-8 8 -21.5 40t-13.5 43q0 28 16 60.5t72 55.5q51 21 94 21q7 0 68 -19q55 -18 73 -47q14 -21 14 -64q0 -22 -1.5 -27t-13.5 -24q-23 -37 -51 -37q-13 0 -32 11q-24 14 -24 32q0 5 8 21.5t9 19.5q0 15 -29 15q-23 0 -45.5 -23t-22.5 -46q0 -12 30.5 -41t30.5 -51
q0 -19 -11 -35.5t-29 -16.5q-8 0 -22.5 8.5t-28.5 8.5q-30 0 -53 -31q-18 -26 -24 -60q0 -23 12 -38l2 -4q1 -3 2 -9v-2q23 -38 69.5 -66t83.5 -28h45q42 0 92 27q57 29 62 64q0 4 8 12l2 3v3v6.5v5.5q0 24 -3 32q-1 4 -18.5 18t-19.5 14q-28 0 -36 -22q5 -10 5 -21
q0 -17 -15 -29.5t-32 -12.5q-26 0 -53 22t-27 46q0 51 54 99q5 3 35 15q10 9 19 9q58 0 101 -10q4 -1 5 -1q26 0 26 12q0 7 -17 9q-23 2 -32 7q-17 8 -17 31q0 26 32 43q27 14 55 14q40 0 61 -25t21 -64q0 -51 -45 -83q-6 -5 -13 -17v-1q11 -19 22 -39.5t11 -44.5
q0 -62 -26 -105q-24 -39 -82 -80q-13 -9 -44 -23.5t-41.5 -16t-38 -10t-39.5 -8.5q-3 0 -25.5 1t-25.5 1h-2l-5 -1q-43 -7 -40 -7q-37 0 -80 21q-27 2 -79 14q-82 37 -106 78q-7 15 -23 43l-5 5q-15 12 -20 52q-3 30 -6 61q-2 9 -2 14q0 52 31 80q4 3 30 32q17 18 37 30
q52 28 72 29q10 -1 30 1zM690 426q0 39 -18 51.5t-39 12.5q-16 0 -37 -8q-25 -10 -25 -24q0 -10 33 -14.5t33 -32.5q0 -18 -16 -27.5t-35 -9.5q-8 0 -24.5 4.5t-24.5 5.5q-15 1 -57 1q-3 -3 -10 -7q-24 -9 -25 -10q-6 -4 -22 -20q-26 -26 -26 -61q0 -12 19 -27.5t36 -15.5
q20 0 20 15q0 5 -2 13.5t-2 9.5q10 47 62 47q11 0 34.5 -19t27.5 -29q4 -13 4 -52q0 -8 -1 -13l-2 -3q-1 -2 -3 -4l-3 -3l-2 -3q-10 -47 -76 -80q-56 -29 -102 -29h-45q-45 0 -97.5 32.5t-78.5 75.5l-1 3q-1 3 -1 8v1q-16 27 -16 52q0 -4 10 33q23 83 92 83q17 0 34 -8.5
l17 -8.5q15 0 15 27q0 11 -30.5 40.5t-30.5 51.5q0 33 29.5 63.5t63.5 30.5q20 0 35 -10q19 -11 19 -30q0 -8 -7 -21l-10 -20q0 -3 12 -10.5t19 -7.5q12 0 25 17q8 14 17 28q-1 -6 -1 18q0 51 -29 71q-9 6 -73 27q-20 7 -28 7q-36 0 -80 -17q-51 -20 -64 -46t-13 -49
q0 -5 11.5 -32.5t13.5 -29.5q16 -18 16 -25q0 -5 -4 -9q-15 -14 -35 -13q-23 1 -30 -2q-27 -13 -55 -26q-29 -16 -44 -41q-8 -7 -22 -22l-16 -55q0 -1 2 -27.5t14 -78.5q5 -3 13 -13q11 -22 28 -50q62 -62 123 -69q15 -1 29.5 -3t27.5 -9q5 -3 28.5 -8t30.5 -5h2l5 1
q43 7 40 7q3 0 25.5 -1t25.5 -1q8 0 34 8q30 8 40 10q7 1 36 15t38 21q53 37 75.5 72.5t22.5 91.5q0 25 -16.5 52t-16.5 32q0 16 11 27q1 1 24 19.5t23 54.5z" />
    <glyph glyph-name="quotesingle" unicode="'" horiz-adv-x="201" 
d="M111 548q-7 -44 -17 -111v-27q-2 -19 -12 -21q-4 0 -10 -3t-11 -3q-27 0 -30 22q-2 14 -8 51q-2 34 -11 99q-9 42 -9 58q0 25 11 48q2 4 6 6q28 16 50 16q28 0 39.5 -26.5t1.5 -108.5zM60 412l2 1l3 1q2 10 5 28q17 122 17 167q0 25 -5 36t-20 11q-13 0 -23 -11
q-9 -20 -9 -32q0 -7 6 -33q4 -43 17 -130q0 -13 7 -38z" />
    <glyph glyph-name="parenleft" unicode="(" horiz-adv-x="335" 
d="M234 705q14 0 24 -10t10 -24q0 -4 -1 -6q-66 -128 -89 -189q-33 -86 -33 -158q0 -128 121 -320q2 -4 2 -7q0 -14 -10 -24t-24 -10h-20q-36 0 -40 21q-98 81 -144 198q-50 127 -18 253q35 142 170 255q4 21 32 21h20zM234 680q-31 0 -31 -10q0 -6 -11 -16
q-163 -142 -163 -326q0 -96 45 -186q44 -86 120 -147q3 -4 7 -8.5t13 -4.5h20q7 0 9 6q-123 196 -123 330q0 75 33 164q24 63 90 191q-2 7 -9 7z" />
    <glyph glyph-name="parenright" unicode=")" horiz-adv-x="344" 
d="M35 705q-15 0 -25 -10t-10 -24q1 -4 1 -6q66 -128 89 -189q34 -86 34 -158q0 -128 -122 -320q-2 -4 -2 -7q0 -14 10 -24t25 -10h19q36 0 41 21q98 81 143 198q50 127 19 253q-36 142 -171 255q-3 21 -32 21h-19zM35 680h19q12 0 12 -8.5t8 -16.5q164 -143 164 -329
q0 -95 -44 -182.5t-120 -148.5q-3 -4 -7 -8.5t-13 -4.5h-19q-7 0 -10 6q124 196 124 330q0 75 -34 164q-24 63 -90 191q2 7 10 7z" />
    <glyph glyph-name="asterisk" unicode="*" horiz-adv-x="398" 
d="M269 396q-29 2 -65 32q4 -24 4 -40q0 -34 -15.5 -46.5t-38.5 -12.5q-28 0 -39 25q-10 22 -2 74q-41 -34 -65 -36q-16 -2 -34 14.5t-18 36.5q0 26 33 45q15 8 38 17q-37 11 -64 39q-8 8 -8 23q0 20 13.5 36.5t35.5 16.5q16 0 34 -10q7 -5 38 -30q-1 5 -5 21t-4 26
q0 15 7 32q12 24 49 24q45 0 45 -55q0 -18 -4 -44q46 38 70 36q17 -1 31.5 -16.5t14.5 -34.5q0 -13 -8 -25q-13 -19 -63 -38q31 -12 42 -18q25 -14 27 -31q4 -21 -8 -40q-14 -24 -41 -21zM272 595q-10 1 -36 -18q-7 -4 -68 -54q13 78 13 106q0 11 -8 20t-18 9q-27 0 -21 -57
q5 -23 14 -78q-15 13 -43 36q-39 33 -56 33q-29 0 -29 -20q0 -18 39 -35q24 -10 79 -32q-18 -6 -52 -19q-28 -10 -43.5 -19t-18.5 -27t11 -22q15 -6 46 17q21 16 67 52q-14 -90 -14 -101q0 -15 3 -21q7 -15 27 -12q21 5 18 47q-1 9 -14 88q25 -20 50 -41q39 -29 53 -30
q9 -1 16.5 6.5t7.5 17.5q0 21 -57 43q-19 7 -59 21l60 24q45 18 53 30q3 4 3 9q0 26 -23 27z" />
    <glyph glyph-name="plus" unicode="+" horiz-adv-x="525" 
d="M230 104q-14 0 -24 10t-10 24v160h-160q-15 0 -25 10t-10 25v22q0 14 10 24t25 10h160v161q0 14 10 24t24 10h22q15 0 25 -10t10 -24v-161h160q14 0 24.5 -10t10.5 -24v-22q0 -15 -10.5 -25t-24.5 -10h-160v-160q0 -14 -10 -24t-25 -10h-22zM230 129h22q10 0 10 9v173
q0 12 12 12h173q10 0 10 10v22q0 9 -10 9h-173q-12 0 -12 13v173q0 9 -10 9h-22q-9 0 -9 -9v-173q0 -13 -13 -13h-172q-10 0 -10 -9v-22q0 -10 10 -10h172q13 0 13 -12v-173q0 -9 9 -9z" />
    <glyph glyph-name="comma" unicode="," horiz-adv-x="269" 
d="M2 74q0 33 30.5 59.5t64.5 26.5q24 0 39 -16l24 -24q4 -4 10.5 -30t5.5 -31q-8 -65 -64 -110q-47 -36 -89 -36q-18 0 -21 9q-7 21 -7 23q0 4 8 21q13 9 35 38l-2 10q-34 33 -34 60zM140 104l-20 21q-19 6 -32 6q-31 0 -61 -49q-2 -24 15.5 -40t17.5 -20q3 -20 2 -23
q-7 -28 -38 -47l-3 -7l2 -6q48 2 85.5 40t42.5 82l-1 6q-4 17 -8 32z" />
    <glyph glyph-name="hyphen" unicode="-" horiz-adv-x="345" 
d="M220 364q14 0 24 -10t10 -25v-34q0 -14 -10 -24t-24 -10h-181q-14 0 -24.5 10t-10.5 24v34q0 15 10.5 25t24.5 10h181zM220 339h-181q-10 0 -10 -10v-34q0 -9 10 -9h181q9 0 9 9v34q0 10 -9 10z" />
    <glyph glyph-name="hyphen" unicode="&#x2010;" horiz-adv-x="345" 
d="M220 364q14 0 24 -10t10 -25v-34q0 -14 -10 -24t-24 -10h-181q-14 0 -24.5 10t-10.5 24v34q0 15 10.5 25t24.5 10h181zM220 339h-181q-10 0 -10 -10v-34q0 -9 10 -9h181q9 0 9 9v34q0 10 -9 10z" />
    <glyph glyph-name="period" unicode="." horiz-adv-x="267" 
d="M156 129q3 -3 5 -7l3 -6q5 -7 9 -13q7 -10 6 -14q-12 -66 -22 -77q-13 -12 -74 -15q-5 1 -7 2q-60 37 -60 83q0 55 85 74q7 1 28 -9.5t27 -17.5zM102 130q-62 -14 -62 -50q0 -29 45 -58q23 0 52 6q7 6 16 59q-7 9 -11 17l-3 6q-4 7 -37 20z" />
    <glyph glyph-name="slash" unicode="/" horiz-adv-x="393" 
d="M275 707q13 0 27 -8.5t14 -21.5q0 -4 -1 -7l-236 -680q-9 -26 -30 -26h-18q-12 0 -22 8t-10 20q0 5 2 10l235 679q9 26 31 26h8zM17 -9q5 -7 14 -7h18q8 0 14 18l231 676q-5 9 -9 9h-18q-5 0 -12 -18z" />
    <glyph glyph-name="zero" unicode="0" horiz-adv-x="629" 
d="M582 338q1 -30 -9 -77q-29 -134 -105 -207q-69 -67 -157 -67q-108 0 -184 94q-83 102 -80 266q2 131 80.5 230.5t184.5 99.5q102 0 190 -104q48 -57 66 -124q11 -40 14 -111zM556 335q9 129 -69 224q-74 90 -174 90q-85 0 -145 -72q-49 -58 -69.5 -110t-23.5 -126
q-1 -22 6 -76t14 -74q31 -88 89 -135q53 -43 118 -43q94 0 166 83q77 91 88 239zM470 291q0 -117 -59.5 -174.5t-129.5 -21.5q-76 38 -116 169q-6 20 -6 64q0 106 18 159q34 99 101 99q68 0 129 -91q63 -94 63 -204zM446 293q0 101 -56 185q-55 80 -113 80q-50 0 -72 -70
q-20 -64 -20 -110q0 -133 60 -211q57 -72 119 -47q67 26 81 150q1 9 1 23z" />
    <glyph glyph-name="one" unicode="1" horiz-adv-x="629" 
d="M421 38q0 -45 -55 -45q-4 0 -33 4.5t-33 4.5q-3 0 -22 -3t-23 -3q-21 0 -36 20q-12 16 -12 34q0 24 23.5 49t23.5 42l-2 331v24q1 20 1 24q0 42 -22.5 68.5t-22.5 31.5q0 14 10 29q13 22 35 22q-1 0 22.5 1t42.5 2q29 0 50 -2q13 -1 23 -26.5t10 -45.5q0 -52 -4 -242
q-3 -149 0 -242q3 -12 14 -46q10 -28 10 -32zM397 43q0 4 -12.5 35t-12.5 34v128v90q1 86 1 89l3 94q0 3 1.5 29t1.5 30q0 46 -13 62q-10 13 -40 13q-7 0 -27.5 -1t-34 -1t-17.5 -3t-4 -17q0 -12 8 -23q13 -18 15 -21q8 -16 14 -46l-1 -394q-2 -16 -11 -40q-4 -7 -23 -29
q-13 -14 -13 -25q0 -26 22 -26q3 0 20.5 3t21.5 3t31 -4.5t31 -4.5q39 0 39 25z" />
    <glyph glyph-name="two" unicode="2" horiz-adv-x="629" 
d="M543 199q0 -5 -35 -70q-38 -70 -63 -107q-5 -8 -26.5 -18.5t-28.5 -10.5q2 0 -26 5q-74 14 -124 14q-4 0 -46.5 -9.5t-46.5 -9.5q-7 0 -17 7q-38 29 -38 75q0 38 37 92q35 50 76 79q30 20 60 39q41 29 64 61q6 5 14 16q20 36 20 67q0 45 -15 70q-10 19 -50 55
q-11 10 -49 10q-25 0 -69.5 -37t-65.5 -37q-12 0 -21 19q-7 15 -7 29q0 26 34 68t70 59q28 15 64.5 19t69.5 4q22 0 63.5 -20.5t58.5 -39.5q37 -42 55 -96q14 -40 14 -92q0 -89 -85 -166q-8 -8 -50 -21q-22 -7 -59 -28q-58 -32 -58 -58q0 -19 22 -19q60 0 107 26
q25 13 62 48q28 26 44 26q14 0 29.5 -15.5t15.5 -33.5zM515 201q0 5 -6.5 12t-10.5 7q-7 0 -40 -35q-39 -39 -98 -58q-21 -7 -78 -7q-18 0 -32.5 12.5t-14.5 32.5q0 24 28 52q23 23 49 36q32 11 78 30q59 34 81 83q16 35 16 90q0 31 -18.5 78.5t-39.5 72.5q-16 19 -52 38
t-61 19q-54 0 -61 -1.5t-31 -8.5q-19 -5 -24 -4q-11 1 -52 -42q-43 -46 -43 -69q0 -6 5 -15t12 -9q1 0 50 37t80 37q4 0 14.5 -2.5t13.5 -2.5q24 0 61 -36.5t42 -59.5q7 -34 7 -62q0 -82 -104 -159q-42 -30 -84 -59q-49 -40 -67 -79t-18 -54q0 -18 7 -29q18 -25 27 -25
q4 0 28 6.5t33 7.5q17 1 48 5l120 -16q15 1 35 8q19 20 56 92q2 4 25 43q19 30 19 34z" />
    <glyph glyph-name="three" unicode="3" horiz-adv-x="629" 
d="M525 210q0 -61 -30 -108q-10 -17 -21 -34q-16 -24 -33 -34q-28 -15 -71.5 -26.5t-70.5 -11.5q-33 0 -92 16q-14 8 -41 19q-17 6 -40 41t-23 51q0 13 10.5 24t20.5 11q14 0 50.5 -31.5t70.5 -31.5q26 0 68.5 24t50.5 47q9 7 20 25q7 23 7 27q0 20 -11 55q-14 46 -34 46
q-3 0 -21.5 -14t-21.5 -14q-19 0 -32 23q-10 17 -10 31q0 35 28 60q39 35 49 53q1 2 1 33q0 42 -5 49q-23 40 -81 40q-12 0 -40.5 -25t-46.5 -25q-13 0 -22 20q-7 15 -7 27q0 56 56 90q47 28 107 31q71 4 136 -82q7 -9 15.5 -37t8.5 -44q0 -34 -5 -53q-2 -11 -15 -35
q-4 -7 -26 -26q-16 -15 -16 -31q0 -10 16 -16q10 -4 20 -7q16 -9 21 -16q37 -50 45 -66q15 -32 15 -75zM504 221q0 21 -1 28q-3 17 -22 50.5t-34 42.5q-21 11 -42 23q-16 10 -16 32q0 30 31 59t31 83q0 26 -17 62q-4 8 -24.5 26.5t-30.5 24.5q-37 21 -54 21q-6 0 -18.5 -1.5
t-18.5 -1.5q-22 -5 -53 -12q-12 -2 -39 -32q-31 -34 -31 -56q0 -4 2 -7.5t2 -4.5h14q31 27 40 33q22 14 49 14q15 0 31 -8q44 -21 57 -43q10 -20 10 -71q0 -45 -10 -56q-25 -24 -50 -49q-17 -18 -17 -40q0 -13 14 -19q4 6 17.5 15.5t22.5 9.5q36 0 59 -56q17 -41 17 -70
q0 -55 -57 -102q-53 -42 -101 -42h-17q-29 0 -65.5 29.5t-37.5 29.5q-17 0 -17 -16q0 -38 61 -69q55 -27 102 -27q41 0 95 21q61 23 76 51q29 55 31 59q11 26 11 69z" />
    <glyph glyph-name="four" unicode="4" horiz-adv-x="629" 
d="M569 140q0 -13 -10 -30q-12 -21 -27 -21q-21 0 -37 23q0 10 -1 21q-4 18 -20 18q-17 0 -17 -26q0 -27 20.5 -45.5t20.5 -44.5q0 -9 -7.5 -21t-15.5 -14q-31 -7 -41 -7q-4 0 -26 3t-25 3q-4 0 -32 -3t-32 -3q-13 0 -23 17q-10 14 -10 23q0 21 19 41t19 35q0 17 -9 26
q-18 0 -67 2q-41 2 -45 2q-51 0 -76 -4l-10 -5t-12 -4q-22 0 -35 25q-10 19 -10 38q0 35 4 42q49 91 168 258q20 23 60 71q20 31 61 87q25 32 48 32q36 0 45 -36q2 -9 2 -49v-296q0 -9 5 -23q6 -18 15 -18q18 0 26 46.5t35 46.5q9 0 24.5 -13t15.5 -22v-175zM547 152v160
q0 10 -11 10q-16 -1 -24 -45.5t-38 -44.5q-32 0 -41 33q-7 29 -6 80q0 8 3 33q2 20 1 33q0 4 -2.5 15t-2.5 15v100q0 -9 3 40q2 37 -1 56.5t-22 19.5q-17 0 -41 -31q-171 -226 -223 -311q-67 -106 -67 -123q0 -7 6 -21q7 -20 16 -20q3 0 22 5.5t26 6.5q14 1 53 1
q81 0 121 -8q26 -4 26 -48q0 -24 -18.5 -46.5t-18.5 -28.5q0 -4 2 -7.5t2 -4.5h60.5h41.5q18 0 58 13v21q-16 6 -29 32q-11 22 -11 38q0 51 35 51q21 0 32.5 -12.5t20.5 -46.5h14q13 17 13 35zM345 362q0 -1 -2 -36q-4 -39 -5 -71q-1 -20 -18 -34q-9 -8 -35 -8q-1 0 -17 2
t-23 2q-5 -1 -19 -4t-19 -3q-45 0 -45 48q0 22 41 90q34 55 44 67q39 44 52 44q46 0 46 -97zM324 362q0 72 -17 72q-18 0 -74 -88q-52 -82 -52 -91q0 -20 22 -20q4 0 37 1.5t37 1.5t13.5 2t13.5 2q12 11 12 19q2 29 5 67q3 33 3 34z" />
    <glyph glyph-name="five" unicode="5" horiz-adv-x="629" 
d="M536 251q0 -3 -2.5 -14t-2.5 -16q1 -82 -57 -138q-10 -15 -29 -40q-25 -24 -43 -34q-57 -28 -156 -28q-46 0 -100 38.5t-54 75.5q0 38 30 38q17 0 58 -22t79 -22q33 0 57 16q17 12 43 43l4 18q6 7 14 25q7 25 7 63q0 15 -15 48q-12 29 -17 33q-38 40 -87 40
q-4 0 -14 -1.5t-14 -1.5q-12 0 -17 4l-30 28q-21 22 -22 41q-1 13 1 39q4 37 4 41q1 12 -4 41t-5 31q0 18 10 38q11 25 31 36q13 8 49 8q4 0 37 -4.5t37 -4.5t61 9t60 9q17 0 26 -11.5t9 -23.5q0 -29 -38 -71.5t-63 -46.5q-2 0 -11.5 -5.5t-13.5 -5.5t-7.5 1.5t-6.5 1.5
q8 0 -67 -7q-9 -1 -16 -10.5t-7 -24.5q0 -23 23 -23q4 0 21 1.5t21 1.5q37 0 99 -43q20 -13 41 -25q27 -19 39 -38q9 -17 23.5 -59.5t14.5 -48.5zM508 249q0 11 -8 40q-11 37 -24 54q-23 29 -70 60q-56 37 -95 37q-3 0 -22 -3t-23 -3q-37 0 -37 51t39 59q33 2 90 9
q28 5 58.5 31t36.5 56q6 7 6 9v11q-7 4 -19 4q-4 0 -56 -9.5t-56 -9.5t-49 4.5t-48 4.5q-15 0 -28.5 -22.5t-13.5 -36.5q0 -4 4 -15t4 -14q-3 -44 -4 -112q0 -10 19.5 -32t27.5 -22q4 0 13 1.5t12 1.5q8 0 43.5 -7.5t67.5 -48.5q28 -37 32 -70q4 -39 4 -31q0 -39 -7 -62
q-6 -9 -14 -25q-7 -36 -46.5 -67t-85.5 -31q-43 0 -83 22t-51 22q-7 0 -8 -4q4 -12 11 -27q32 -40 72 -53q27 -9 79 -9q56 0 104 20q34 15 67 67q5 8 27 30q17 17 21 33q10 46 10 87z" />
    <glyph glyph-name="six" unicode="6" horiz-adv-x="629" 
d="M538 210q0 -27 -20 -93.5t-76 -100.5q-49 -30 -114 -30q-30 0 -52.5 7.5t-44.5 15.5q-23 5 -49.5 28t-36.5 46q-10 17 -29 52q-18 40 -25 65v39q0 30 8 70q1 28 8 90q7 17 20 49q47 119 112 165q20 17 62 45q17 8 29 9q90 8 79 8q16 0 27 -17q10 -13 10 -23
q0 -21 -14 -27q-34 -14 -101 -49q-30 -18 -45 -38q-11 -14 -25 -42q-16 -32 -16 -47q0 -26 28 -26q4 0 38.5 9.5t38.5 9.5q3 0 19.5 -5.5t25.5 -6.5q68 -6 114 -69q11 -16 20 -59.5t9 -74.5zM510 210q0 31 -4 59q-3 24 -19 56q-11 25 -64 52q-13 3 -37 8q-6 1 -20.5 6.5
t-18.5 5.5t-39.5 -9.5t-39.5 -9.5q-48 0 -48 54q0 63 68 125q61 56 129 72q0 5 -1.5 11l-1.5 6h-42q-61 5 -132 -64q-67 -65 -86 -134q-10 -22 -23 -62q-1 -28 -5 -74q-1 -11 -6 -43q-5 -28 -5 -31q0 -20 21 -75q12 -31 31 -62q9 -19 32 -46q66 -41 134 -41q59 0 101 28
q50 33 62 100q4 25 11 44q3 11 3 24zM418 193q0 -45 -27 -92q-30 -53 -72 -53q-61 0 -88 73q-17 46 -17 101q0 39 29 77q32 42 74 42q46 0 57 -14q44 -55 44 -134zM390 190q0 108 -48 122q-13 5 -26 5q-27 0 -52 -38q-22 -33 -22 -55q0 -34 11 -75q13 -55 36 -66q8 -4 28 -4
q22 0 29 7q44 46 44 104z" />
    <glyph glyph-name="seven" unicode="7" horiz-adv-x="629" 
d="M521 622q0 2 -11 -36q-5 -18 -18 -56q-18 -23 -54 -71q-19 -32 -63 -93q-39 -41 -49 -98q-9 -18 -23 -55q-16 -51 -16 -72q0 -32 38.5 -42t38.5 -46q0 -21 -16 -35q-10 -8 -65 -20q-49 -12 -60 -12h-14q-34 0 -56 32q-20 27 -20 59q0 7 1 13q1 2 -2 9t-3 11q0 3 9 30.5
t12 39.5q14 68 98 164q21 19 59 58q9 10 27 41q24 39 24 56q0 27 -28 27q-76 0 -93.5 -4t-52.5 -26t-38 -22q-38 0 -38 46q0 11 11 25q18 20 22 27q43 73 62 89.5t62 16.5q27 0 45.5 -8t31.5 -8q40 0 71.5 9.5t49.5 9.5q16 0 23.5 -4.5t21 -25t13.5 -29.5zM493 624
q-14 32 -27 32q-4 0 -66 -10.5t-66 -10.5q-6 0 -30 10.5t-44 10.5q-34 0 -52 -24q-20 -32 -40 -63q-5 -8 -24 -28q-12 -12 -12 -22q0 -15 11 -20q27 19 84 45q34 7 104 7q54 0 54 -52q0 -23 -27.5 -69.5t-54.5 -69.5q-23 -19 -57 -59q-38 -45 -45 -59q-47 -106 -47 -148
q0 -18 11 -45q13 -31 30 -34q4 -1 27 -1q27 0 64.5 8.5t46.5 19.5q0 12 -7 29q-18 3 -28 8q-36 20 -36 62q0 48 36 124q2 6 6 22q9 44 26 67q58 77 140 192q3 4 12 43q1 5 6 18t5 17z" />
    <glyph glyph-name="eight" unicode="8" horiz-adv-x="629" 
d="M551 188q0 -69 -47 -112q-7 -12 -29 -33q-66 -44 -99 -44q-1 0 -31 -2t-46 -2q-3 0 -10 -3t-12 -3q-18 0 -50 7q-5 2 -18.5 10t-17.5 8t-4 -1v-1q0 -1 -4 -1q-20 0 -40 17q-65 55 -65 162q0 28 14 70.5t33 67.5q5 7 32 31q16 14 16 29q0 4 -8 13.5t-9 11.5q-19 35 -19 87
q0 38 17 69q6 16 24 46q25 29 49 40q43 20 95 20q3 0 14.5 -4t14.5 -5q19 0 53 -11q52 -33 68.5 -74.5t16.5 -91.5q0 -29 -33 -94q0 1 4 -13q5 -3 14 -8q31 -15 56 -87q21 -60 21 -99zM526 191q0 -1 2 24q1 19 -1 26q-13 55 -37 84q-13 15 -62 54q-15 11 9 35q7 8 13 24
q17 46 17 56q0 80 -49 122q-5 7 -17 17q-37 17 -84 17q-27 0 -43 -4q-12 -3 -32 -10q-35 -19 -55 -45q-11 -15 -28 -56q-4 -10 -4 -41t13 -59q8 -17 22 -28q9 -7 9 -19q0 -9 -1 -12q-6 0 -16.5 -21t-16.5 -26q-9 -5 -21 -16q-44 -77 -44 -120q0 -97 56 -147q6 -6 24 -9
l26 -6q6 -4 18 -10q21 -4 31 -4h30q25 -1 28 -1q9 0 52 7t49 11q62 38 87 73t25 84zM396 505q0 -35 -19 -67q-23 -38 -60 -38q-24 0 -39 8t-29.5 27t-15.5 34q0 7 -2 26.5t-2 23.5q0 33 20 62q23 35 59 35q43 0 68 -39q20 -33 20 -72zM427 185q0 7 -6 -25q1 -8 -2 -25
q-23 -43 -40 -61q-24 -23 -57 -23q-65 0 -98 53q-26 42 -26 103q0 115 80 151q17 8 42 8q107 0 107 -181zM374 506q0 32 -14 57q-17 31 -49 31q-27 0 -47 -31q-16 -27 -16 -50q0 -28 10 -51q16 -37 51 -37q29 0 47 24.5t18 56.5zM405 207q0 41 -12 77q-20 60 -67 60
q-55 0 -84 -47q-22 -37 -22 -88q0 -44 17 -80q26 -53 80 -53q27 0 48 22q13 14 33 50q7 13 7 59z" />
    <glyph glyph-name="nine" unicode="9" horiz-adv-x="629" 
d="M538 420q0 -20 -7 -51t-7 -32q-2 -94 -60 -188q-63 -102 -161 -149q-22 -11 -75 -11q-79 0 -79 40q0 25 14 30q22 6 64 21q17 9 50 24q27 9 57.5 52t30.5 68t-23 25q-4 0 -36.5 -6.5t-35.5 -6.5q-2 0 -49 15q-78 24 -108 78q-22 39 -22 105q0 42 5 60l20 56q8 14 23 41
q44 77 154 77q41 0 96 -24q24 -7 65 -30q32 -28 74 -135q10 -27 10 -59zM510 415q0 41 -17 80q-8 18 -25 55q-7 13 -14 27t-15 19q-48 28 -76 38t-64 10q-124 0 -163 -122q-21 -63 -21 -62q0 -11 4 -51q5 -47 10 -55q20 -38 61 -64q7 -5 38 -12q6 -1 22 -7.5t20 -6.5t35 8
t34 8q54 0 54 -58q0 -23 -10 -45q-34 -72 -117 -111q-42 -17 -84 -33q-1 -2 -2 -5q3 -3 4 -7q13 -4 42 -4q138 0 229 180q13 23 30 62q3 29 11 77q0 2 10 41q4 20 4 38zM415 431q0 -37 -35 -74t-73 -37q-37 0 -52 10q-35 24 -43 84q-1 5 -1 31q0 47 23 96q31 66 82 66
q99 0 99 -176zM387 446q0 100 -36 125q-11 8 -34 8q-39 0 -62 -56q-16 -41 -16 -77q0 -29 1 -33q10 -40 24 -54.5t41 -14.5q6 0 22 9q60 30 60 93z" />
    <glyph glyph-name="colon" unicode=":" horiz-adv-x="253" 
d="M149 129q23 -29 23 -40q-3 -55 -23 -74q-20 -22 -73 -18q-4 0 -8 2q-59 27 -59 80q0 63 85 77q8 1 28.5 -9.5t26.5 -17.5zM95 130q-62 -14 -62 -50q0 -29 45 -58q47 1 54 10q5 5 14 55q-9 14 -17 27q-4 4 -34 16zM21 389q-23 -29 -23 -40q3 -55 23 -74q20 -22 73 -18
q4 0 8 2q59 27 59 80q0 63 -85 77q-8 1 -28.5 -9.5t-26.5 -17.5zM75 390q62 -14 62 -50q0 -29 -45 -58q-47 1 -54 10q-5 5 -14 55q9 14 17 27q4 4 34 16z" />
    <glyph glyph-name="semicolon" unicode=";" horiz-adv-x="261" 
d="M38 4l-2 10q-33 31 -33 64t30 57t64 24q24 0 39 -15q44 -44 40 -85q-6 -62 -63 -108q-48 -39 -90 -39q-17 0 -21 10q-6 16 -6 26q0 14 17.5 28t24.5 28zM24 -48l-3 -7l2 -6q42 1 85.5 41t42.5 81q-1 39 -31 64l-14 3.5t-18 2.5q-28 0 -50 -33q-5 -7 -11 -16q-1 -5 -1 -9
q0 -13 20 -33.5t16 -40.5q-5 -26 -38 -47zM149 389q23 -29 23 -40q-3 -55 -23 -74q-20 -22 -73 -18q-4 0 -8 2q-59 27 -59 80q0 63 85 77q8 1 28.5 -9.5t26.5 -17.5zM95 390q-62 -14 -62 -50q0 -29 45 -58q47 1 54 10q5 5 14 55q-9 14 -17 27q-4 4 -34 16z" />
    <glyph glyph-name="less" unicode="&#x3c;" horiz-adv-x="375" 
d="M289 625l13 -13q10 -11 0 -22l-242 -242l246 -246q10 -11 0 -21l-13 -13q-5 -4 -11 -4t-11 4l-269 269q-10 10 0 21l265 267q11 10 22 0z" />
    <glyph glyph-name="equal" unicode="=" horiz-adv-x="522" 
d="M420 464q14 0 24 -10t10 -25v-34q0 -14 -10 -24t-24 -10h-381q-14 0 -24.5 10t-10.5 24v34q0 15 10.5 25t24.5 10h381zM420 439h-381q-10 0 -10 -10v-34q0 -9 10 -9h381q9 0 9 9v34q0 10 -9 10zM420 294q14 0 24 -10t10 -25v-34q0 -14 -10 -24t-24 -10h-381
q-14 0 -24.5 10t-10.5 24v34q0 15 10.5 25t24.5 10h381zM420 269h-381q-10 0 -10 -10v-34q0 -9 10 -9h381q9 0 9 9v34q0 10 -9 10z" />
    <glyph glyph-name="greater" unicode="&#x3e;" horiz-adv-x="367" 
d="M19 68l-13 13q-10 10 0 21l242 242l-246 246q-10 11 0 22l13 13q5 4 11 4t11 -4l269 -269q10 -11 0 -22l-265 -266q-11 -11 -22 0z" />
    <glyph glyph-name="question" unicode="?" horiz-adv-x="457" 
d="M310 309q-2 -2 -32 -14.5t-44 -30.5q-10 -16 -11 -36q-2 -33 -3 -37q-2 -10 -17.5 -16t-27.5 -6q-24 0 -39 13l-2 3q-10 16 -10 19q1 42 35 102l60 94q5 7 5 27q0 34 -12 77t-25 49l-32 13q-13 -1 -27 -1l-14 -15l23 -37q4 -6 1 -26q-3 -19 -7 -24q-6 -9 -20 -20
q-22 -3 -39 -3q-70 0 -70 70q0 12 3 43q6 75 82 108q56 24 118 18q54 -5 108.5 -51t71.5 -98q10 -31 10 -59q0 -71 -85 -162zM292 327q78 83 78 144q0 24 -8 51q-15 46 -61 84.5t-92 43.5q-20 2 -36 2q-114 0 -142 -96q0 -11 -1 -28.5t-1 -24.5q0 -38 41 -38q13 0 33 2l7 9
l4 27l-26 42q-1 2 -1 4q0 9 10 21.5t19 14.5q49 11 40 11q1 0 9 -5q12 -7 33 -16t36 -58q15 -44 15 -88q0 -30 -8 -43l-56 -86q-34 -57 -36 -93l5 -7q20 -14 41 0q-5 44 18 77v2q15 21 79 48zM258 37q-2 -9 -21 -32q-22 -26 -29 -25h-42q-13 3 -32 24q-10 10 -23 33
q-8 38 -4 43q18 20 43 42l41 10q16 3 52 -23q4 -3 12.5 -19.5t7.5 -20.5zM229 88q-11 8 -36 18l-34 -7l-29 -31q3 -10 6 -28l29 -33q18 0 39 -2q10 11 29 34q0 2 5 29q-8 11 -9 20z" />
    <glyph glyph-name="at" unicode="@" horiz-adv-x="722" 
d="M438 133q-60 0 -87 42q-51 -39 -100 -39q-64 0 -98 41q-30 36 -30 95q0 88 56 161q60 80 146 80q55 0 90 -39l9 23h99q-24 -67 -49 -134q-29 -81 -42 -137l3 -5q18 -3 31 -3q33 0 60 28q56 60 56 133q0 84 -70 151t-167 74q-110 9 -199 -76t-90 -196q0 -106 81 -190
t187 -95q20 -2 37 -2q57 0 99 27q34 21 83 80l54 -45q-60 -72 -105 -98q-52 -31 -127 -31q-20 0 -43 2q-139 11 -240 109q-107 104 -100 247q7 145 106 242t244 96q127 -1 220 -75q104 -83 104 -217q0 -95 -61 -170q-65 -79 -157 -79zM631 382q0 121 -95 197q-86 69 -204 70
q-135 1 -226.5 -89t-98.5 -226q-7 -130 93 -227q94 -91 224 -102q23 -2 42 -2q61 0 104 22t92 79l-16 13q-46 -54 -88.5 -75.5t-95.5 -21.5q-18 0 -40 2q-115 12 -203 103t-88 207q1 122 98 214t218 83q95 -7 171 -72t88 -151q14 -96 -62 -177q-34 -36 -77 -36q-19 0 -47 6
l-15 22q13 56 38 127q22 62 45 124h-47l-19 -53q-21 36 -38 50q-24 19 -59 19q-74 0 -128 -72q-50 -67 -50 -143q0 -49 25 -79q27 -33 79 -33q47 0 109 55q25 -59 80 -59q80 0 138 74q53 69 53 151zM346 447q-46 0 -83 -68q-35 -63 -35 -124q0 -50 29 -57q41 -9 86 79
q40 78 40 127q0 18 -10.5 30.5t-26.5 12.5zM346 472q28 0 45 -20.5t17 -47.5q0 -28 -34 -119q-20 -55 -51 -84t-60 -29q-27 0 -43.5 22.5t-16.5 61.5q0 33 12 73q15 51 44 90q39 53 87 53z" />
    <glyph glyph-name="A" unicode="A" horiz-adv-x="739" 
d="M677 36q0 -46 -67 -46q-3 0 -43.5 3t-44.5 3q-3 0 -17.5 -3t-17.5 -3q-4 0 -4 3v0q0 3 -4 3t-5.5 -3t-5.5 -3q-15 0 -31.5 15.5t-16.5 29.5q0 13 12.5 29.5t31.5 23.5q0 74 -46 83q-24 5 -66 6q-29 1 -66 0q-43 -2 -35 -2q-38 0 -54 -9q-25 -14 -25 -54q0 -17 15.5 -31
t15.5 -37q0 -48 -51 -48q-4 0 -24.5 4.5t-24.5 4.5q-3 0 -30.5 -3t-31.5 -3q-18 0 -33 11.5t-15 28.5q0 28 32 50q39 28 64 75q16 30 34 90q20 65 32 91q40 93 79 187q73 154 112 154q34 0 70 -79q15 -40 29 -80q41 -81 57 -124q1 -2 27 -80q12 -26 35 -77q14 -42 28 -83
q21 -53 58 -73q11 -5 19 -24.5t8 -29.5zM649 34q1 20 -27 39q-35 24 -44 43q-37 83 -92 228q-49 129 -98 257q-11 29 -40 57q-33 -16 -87 -139l-78 -184q-22 -41 -31 -77q-15 -53 -52 -136q-3 -8 -43 -40q-36 -30 -36 -40q0 -15 21 -15q5 0 28 4.5t27 4.5q3 0 23.5 -4.5
t24.5 -4.5q27 0 27 18q0 -1 -15.5 26t-15.5 44q0 32 18 59q21 32 56 32h191q35 0 63 -39q25 -35 25 -66q0 -24 -8.5 -34.5t-34.5 -24.5v-12q11 -9 22 -9q3 0 21 3t22 3t43.5 -3t43.5 -3q3 0 23.5 5.5t22.5 7.5zM417 308q0 -64 -77 -64h-78q-29 0 -40.5 10t-11.5 36
q0 7 30 83.5t44.5 104.5t37.5 28q12 0 16.5 -4t15.5 -25t37 -92t26 -77zM386 305q0 6 -27 86q-28 85 -36 85q-10 0 -41 -70q-32 -73 -41 -128q16 -10 21 -10t20 3t19 3q3 0 20 -3t20 -3q45 0 45 37z" />
    <glyph glyph-name="B" unicode="B" horiz-adv-x="526" 
d="M461 204q2 -73 -45 -139q-51 -73 -127 -74q-4 0 -69 5t-69 5t-43 -5.5t-42 -5.5q-24 -1 -43 10q-23 13 -23 37q0 20 13 30q19 13 25 30q11 28 10 104q-2 98 0 115l3 187q-1 60 -22 87t-21 46q0 18 22 29q19 9 39 9q2 0 32 -2.5t44 -2.5q40 1 64 3q11 1 21 2q59 1 115 -45
q60 -50 61 -112q1 -38 -15 -88t-16 -53q0 -7 28 -34t30 -31q27 -46 28 -107zM434 201q-1 52 -25 89q-10 14 -44 46q-24 23 -24 42q0 5 20.5 60t20.5 79q-1 45 -55.5 87.5t-97.5 41.5q-4 0 -34.5 -3.5t-33.5 -4.5q-3 0 -47.5 5.5t-48.5 5.5q-12 0 -26 -7v-22q0 -4 12 -15
q14 -14 16 -17q10 -16 11 -67q1 -32 -2 -64q-3 -35 -3 -69q0 -41 3 -105v-161q-5 -23 -26.5 -53l-21.5 -30q0 -16 28 -15q3 0 44 3.5t44 3.5q4 1 72.5 -4t71.5 -5q58 1 104 62q43 57 42 117zM308 494q1 -47 -18 -79q-23 -38 -68 -39q-59 -1 -62 57l-5 102q0 28 13 54
q16 34 48 35q51 1 75 -52q16 -34 17 -78zM338 199q1 -56 -18 -97q-25 -55 -77 -56q-26 -1 -54 14q-35 19 -36 51l-1 104q-2 120 80 121q57 1 85 -50q20 -37 21 -87zM276 510q0 19 -13 48q-18 39 -44 38q-34 0 -32 -93q1 -43 2 -52q7 -41 32 -41q57 1 55 100zM307 197
q-2 107 -76 105q-37 0 -45 -42q-4 -18 -3 -84q2 -100 44 -100q82 2 80 121z" />
    <glyph glyph-name="C" unicode="C" horiz-adv-x="594" 
d="M548 175q0 -3 -13 -42q-14 -42 -17 -56q-7 -29 -12 -41q-12 -27 -33 -36q-21 1 -59 -2q-4 -1 -26 -12q-11 -6 -55 -6q-4 0 -38 3t-38 3q-22 0 -47 12q-44 20 -48 21q-77 27 -124 133q-38 84 -38 159q0 112 60 223q81 149 223 149q24 0 51 -12.5l27 -12.5q3 0 18.5 4.5
t19.5 4.5q-7 0 27 -4q100 -141 100 -163q0 -46 -39 -46q-9 0 -75.5 58.5t-111.5 58.5q-80 0 -121 -91q-27 -64 -27 -136q0 -82 46 -169q54 -102 128 -102q46 0 85 39q14 15 55 73q28 40 46 40q17 0 26.5 -15.5t9.5 -34.5zM517 174q0 6 -7 10q-46 -75 -88.5 -108.5
t-95.5 -33.5q-75 0 -144 102q-63 94 -58 160v74q3 84 45 148q50 76 131 76q41 0 85 -29q34 -22 96 -82h11v17q0 3 -42.5 65.5t-53.5 62.5q-4 0 -15.5 -4.5t-15.5 -4.5t-39 11t-38 11q-128 0 -203 -130q-57 -100 -57 -204q0 -150 94 -231q87 -76 235 -76q7 0 31 12.5t53 12.5
q4 0 6.5 -1.5t5.5 -1.5q13 0 39 68q25 64 25 76z" />
    <glyph glyph-name="D" unicode="D" horiz-adv-x="600" 
d="M527 327q2 -118 -75 -219q-86 -110 -211 -113q-4 0 -54.5 2.5t-54.5 2.5q-3 0 -26.5 -3.5t-27.5 -3.5q-77 -2 -78 40q-1 29 10 35q33 21 41 49q3 25 5 50l1 305q-1 53 -28 95t-27 46q0 24 18.5 41t43.5 17q4 1 24.5 -4t24.5 -5t23 2t23 2q132 2 245 -93
q121 -102 123 -246zM496 331q-2 109 -90 204q-96 104 -224 105q-46 0 -71 2q-18 1 -44 0q-37 0 -37 -27q18 -24 44 -68q10 -27 12 -71v-76v-180l-2 -71q-2 -43 -15 -65q-7 -11 -27 -27q-14 -12 -14 -22q0 -13 16 -15h27l130 3q131 2 214 90t81 218zM403 329q2 -78 -39 -161
q-51 -103 -134 -105q-22 0 -41.5 25t-20.5 47l-5 306q-1 67 6 91q14 54 67 54q77 2 128 -108q38 -84 39 -149zM373 323q-1 57 -32 133q-42 104 -107 103q-30 -1 -38 -32q-3 -14 -2 -58l5 -336q1 -8 11.5 -23.5t20.5 -15.5q63 1 107 93q36 75 35 136z" />
    <glyph glyph-name="E" unicode="E" horiz-adv-x="596" 
d="M548 133q0 -27 -65 -91.5t-95 -64.5q-154 25 -176 25q-3 0 -21 -4.5t-22 -4.5q-45 0 -64 -3.5t-29 -3.5q-76 0 -76 50q0 17 16 32q23 21 33 41q16 35 16 99q0 -1 -4 49.5t-3 104.5q0 12 1 47q1 31 1 46q0 7 1 31q2 21 1 34q-1 19 -7 31q-9 18 -33 37q-16 14 -16 38
q0 26 26 40q21 11 50 11q3 0 73.5 -9.5t75.5 -9.5q3 0 62 9.5t63 9.5q30 0 43 -14q16 -18 50 -66q40 -55 40 -67q0 -16 -11 -29t-23 -13q-7 0 -77 43t-123 43q-54 0 -54 -133q0 -68 25 -68q23 0 31 31t14 61q10 32 35 32q22 0 39 -28q14 -24 14 -40q0 -4 -3 -64t-3 -64v-81
q0 -17 -16 -37t-32 -20q-29 0 -39 31q-6 29 -12.5 59.5t-26.5 30.5q-21 0 -26 -46v-50q0 -60 13 -76q16 -20 77 -20q45 0 97 22q26 12 77 42q37 22 49 22q15 0 24.5 -14t9.5 -31zM519 141h-19q-2 0 -18 -13q-21 -17 -47 -30q-39 -20 -93 -33q-16 -4 -54 -4q-82 0 -103 42
q-12 24 -12 112q0 47 3 57q9 43 50 43q28 0 43 -26q7 -12 18 -52q10 -34 21 -43q14 14 14 44v134q0 4 3 23t3 23q0 18 -13 42h-11q-9 -34 -19 -69q-16 -49 -56 -49q-59 0 -59 85q0 176 90 176q49 0 97 -21q32 -15 64 -39l28 -21q5 0 9 4q-11 31 -93 120q-3 0 -67.5 -6.5
t-67.5 -6.5q-4 0 -73.5 6.5t-72.5 6.5q-50 0 -50 -24q15 -18 24 -31q25 -36 32 -65l-3 -266q6 -32 6 -51q0 -67 -17 -109q-4 -11 -26 -35.5t-22 -26.5q0 -9 10 -16.5t24 -7.5q4 0 41 6.5t41 6.5h13q9 1 12 1h42q72 0 176 -17q22 0 77.5 58t54.5 72z" />
    <glyph glyph-name="F" unicode="F" horiz-adv-x="509" 
d="M472 529q0 -15 -10 -28t-25 -13q-12 0 -43 23q-41 31 -63 42q-44 23 -87 23q-56 0 -56 -147q0 -50 27 -50q25 0 32 31q4 28 9 57q9 31 40 31q46 0 46 -79q0 -3 -4 -31.5t-4 -39.5q-1 -4 0 -26q2 -26 2 -43q0 -108 -43 -108q-29 0 -40 31q-6 29 -13 59.5t-28 30.5
q-19 0 -22 -33q1 7 1 -35q0 -132 29 -152q16 -10 16 -28q0 -43 -39 -43q-1 0 -77 9q-4 0 -30.5 -4.5t-30.5 -4.5q-17 0 -33.5 13.5t-16.5 32.5q0 16 16 26t22.5 31.5t6.5 110.5v269q0 49 -14 77q-5 12 -26 34q-14 16 -14 34q0 50 80 50q4 0 70 -9t69 -9t56.5 7.5t57.5 7.5
q26 0 45 -13q10 -8 51 -62q43 -58 43 -72zM442 526v13q-34 39 -67 79q-24 28 -42 28q-10 0 -41 -7.5t-67 -7.5q-5 0 -76.5 9t-74.5 9q-7 0 -24 -6.5t-20 -9.5v-14q27 -16 43 -51q12 -27 12 -48v-317q0 -91 -13 -121q-3 -7 -18 -20.5t-15 -16.5q0 -4 2 -6.5t2 -3.5
q5 0 13.5 -2t11.5 -2t25 5t25 5q39 0 84 -9q0 1 2 5t2 6q-33 18 -42 71q-4 25 -4 111q0 43 3 54q9 43 47 43q31 0 46 -24q9 -13 17.5 -48.5t18.5 -45.5q16 25 16 59q0 11 -2 38q-3 23 -2 34l6 48q5 29 5 31q0 29 -13 50h-11q-9 -36 -19 -72q-15 -43 -56 -43q-37 0 -50 30
q-9 19 -9 61q0 70 8 98q17 68 77 68q45 0 93 -22q32 -15 67 -40l29 -22q7 0 11 4z" />
    <glyph glyph-name="G" unicode="G" horiz-adv-x="627" 
d="M572 260q0 -18 -13.5 -41.5t-13.5 -37.5q0 -4 6 -28.5t6 -27.5q0 -9 -7 -30t-14 -23q-77 -31 -154 -63q-51 -17 -114 -17q-111 0 -195 117q-73 103 -73 198q0 126 61 232q78 134 216 134q31 0 66.5 -10.5t39.5 -10.5q3 0 20 4.5t21 4.5q30 0 76 -70q42 -65 42 -87
q0 -19 -10.5 -32.5t-26.5 -13.5q-12 0 -48 32q-50 44 -74 60q-48 32 -90 32q-87 0 -125 -93q-26 -61 -26 -143q0 -64 47 -146q55 -99 129 -99q72 0 72 71q0 25 -16.5 49.5t-16.5 36.5q0 19 20 34t36 15q3 0 30.5 -6t31.5 -6q3 0 22 1.5t23 1.5q52 0 52 -38zM542 258
q0 5 -4 9q-44 -3 -63 -3q-13 0 -35.5 8t-28.5 8q-5 0 -13 -10.5t-8 -15.5q0 -1 17 -24t17 -56q0 -46 -27.5 -74.5t-77.5 -28.5q-88 0 -153 105q-54 89 -54 169q0 -5 1.5 16t1.5 65q4 54 50 114q54 73 124 73q49 0 102 -32q35 -20 75 -58q33 -32 36 -32q5 0 9 4v23l-40 62
q-36 54 -46 54q-4 0 -18.5 -6t-17.5 -6q-12 0 -53 13.5t-67 13.5q-120 0 -191 -135q-54 -102 -54 -203q0 -82 68 -178q77 -111 175 -111h29q43 0 102 27q73 32 116 41q12 16 12 32q0 4 -6 31t-6 31q0 21 14 45t14 29z" />
    <glyph glyph-name="H" unicode="H" horiz-adv-x="661" 
d="M397 270q-12 14 -42 17q-23 0 -47 1q-33 0 -89 -4q-45 -3 -45 -61q0 -117 0.5 -120t14 -22.5t14.5 -33.5q1 -47 -53 -47l-106 -1q-17 0 -30.5 11.5t-13.5 29.5q0 10 13.5 25t15.5 21q19 45 9 180q-1 15 -1 31q0 25 4 75t4 74q0 59 -5 88q-2 12 -19 44t-17 34
q0 21 18 37.5t39 16.5q16 -5 47 -9q12 3 36 7q19 0 37.5 -10t19.5 -28q0 -3 -11 -27t-12 -31q-1 -3 0 -80q0 -11 -1.5 -29.5t-1.5 -25.5q0 -23 11 -32q14 -12 52 -12q8 0 48 3q31 2 47 0q6 -2 18 -5q20 -1 37 17.5t17 38.5q1 121 2 111q-1 8 -16 28t-15 40q0 45 55 45
q11 0 30.5 -1.5t26.5 -1.5q6 0 21.5 1t23.5 1q45 0 46 -38q0 -20 -10 -30q-13 -15 -16 -24q-14 -41 -12 -114q5 -196 5 -203q0 -16 -4 -71q-2 -45 -1 -69q0 -7 17 -40.5t17 -41.5q0 -43 -74 -41q-9 0 -28.5 6t-28.5 6q-7 0 -20 -3.5t-20 -3.5q-17 0 -29 12.5t-12 29.5
q0 15 18 32t18 19zM551 640q-59 -5 -81 -3q-5 0 -16 2.5t-17 2.5q-33 -1 -34 -23q0 -11 15 -27.5t16 -34.5q3 -40 3 -59q0 -142 -84 -138q-6 2 -18 5q-14 2 -50 -1q-45 -3 -54 -3q-61 1 -75 39q-5 14 -6 88q0 57 2 72q4 45 21 66q-11 8 -21 9q-7 2 -18 0q-15 -2 -23 -2
q-4 0 -21 3.5t-27 3.5q-30 0 -32 -29q0 -4 17 -34.5t19 -39.5q6 -26 5 -80q-3 -40 -7 -119q0 -15 1 -76q2 -56 1 -88q-2 -47 -9 -73q-3 -9 -18 -35q-13 -21 -13 -33q16 -9 65 -8l68 2q14 0 15 20q1 4 -12.5 26t-14.5 28q0 35 -1 91q-4 115 70 119q81 4 89 4q95 0 115 -32
q10 -18 10 -73q0 -24 -2.5 -66.5t-2.5 -51.5q0 -16 -18 -33t-18 -22q0 -6 8 -11q28 7 44 7q11 0 34 -4t35 -4q21 0 37 10q-18 37 -21 45q-13 31 -13 46q-1 26 2 79q4 58 4 81q0 66 -2 116q-2 20 -4 57q-1 103 20 139q3 4 13 17q6 7 6 14q0 4 -2 11z" />
    <glyph glyph-name="I" unicode="I" horiz-adv-x="292" 
d="M216 630q0 -10 -19.5 -35t-22.5 -41q-4 -21 -1 -55q3 -49 3 -57l-6 -323q0 -28 12 -52.5t12 -26.5q0 -15 -15.5 -28t-28.5 -13q-56 10 -115 0q-35 0 -35 38q0 2 19 48t19 54q1 175 3 286q2 98 2 95q0 39 -16 72.5t-16 43.5q-1 32 58 37q18 -3 41 -4q16 0 36.5 1t19.5 1
q19 0 34 -9q16 -12 16 -32zM186 626q0 21 -24 21q-4 0 -26 -2.5t-26 -2.5t-17.5 3t-17.5 3q-40 0 -40 -15q0 1 17.5 -35t17.5 -84l-6 -380q-6 -33 -12 -49q-4 -11 -12 -26.5t-8 -19.5q0 -5 6.5 -11t12.5 -6q18 7 23 7q-2 0 14 -2.5t45 -1.5q12 0 29 5q5 7 1 16
q-7 13 -13.5 25t-6.5 54l6 369q-4 18 -4 34q0 38 20.5 68z" />
    <glyph glyph-name="J" unicode="J" horiz-adv-x="460" 
d="M387 626q0 -24 -9 -33q-13 -13 -14 -15q-5 -12 -13 -81l3 -142q0 -226 -57 -289q-58 -40 -97 -56q-43 -17 -96 -17q-104 0 -104 82q0 69 77 69q28 0 49 -24t34 -24q45 0 56 118q2 25 2 144v87q0 3 3 19.5t3 21.5q0 50 -19.5 91t-19.5 46q0 45 52 45q4 0 20 -3t20 -3t29 6
t28 6q24 0 38.5 -14t14.5 -34zM363 629q0 15 -27 15q-4 0 -31 -4.5t-31 -4.5t-20 3t-20 3q-25 -13 -25 -18q0 8 21 -40.5t21 -100.5q0 -4 -3 -17.5t-3 -16.5v-90q0 -4 -3 -6.5t-3 -6.5v-138q0 -60 -10 -88q-17 -50 -69 -50q-24 0 -48.5 25.5t-32.5 25.5q-55 0 -55 -47
q0 -56 82 -56q71 0 141 54q77 57 77 129v79q0 -3 3 41q3 41 2 59q-10 133 8 205q2 10 14 22.5t12 22.5z" />
    <glyph glyph-name="K" unicode="K" horiz-adv-x="630" 
d="M565 28q0 -21 -25 -34q-20 -10 -45 -10q-3 0 -32 3.5t-33 3.5t-36.5 -3.5t-35.5 -3.5q-52 0 -52 44q0 17 15.5 32t15.5 26q0 20 -50.5 110.5t-63.5 90.5q-15 0 -31.5 -17.5t-16.5 -30.5q0 6 1.5 -18t1.5 -76q0 -14 4 -43q4 -14 18 -45q12 -27 12 -31q0 -16 -15 -27.5
t-28 -11.5q-4 0 -37 5t-37 5q-3 0 -24.5 -5t-25.5 -5q-15 0 -30 19t-15 28q0 7 8.5 16.5t9.5 10.5q22 51 22 71q0 4 -1.5 14t-1.5 18v215q0 4 2 21t2 21v117q0 22 -17.5 44t-17.5 35q0 55 71 55q3 0 36 -5t37 -5q3 0 19 5t20 5q17 0 28 -26q8 -19 8 -32q0 -23 -20 -42.5
t-18 -29.5l-3 -118q2 -2 8 -2q14 0 81.5 78.5t67.5 88.5q0 3 -9.5 22t-9.5 23q0 41 51 41q4 0 19.5 -3.5t18.5 -3.5h79q19 -19 19 -37q0 -26 -14 -40q-4 -5 -24 -16t-27 -19q-11 -11 -56 -74q-51 -71 -51 -85q0 -18 22 -57q15 -24 29 -47q30 -61 90 -169q25 -37 63 -57
q24 -14 24 -39zM537 26q-2 14 -20 24q-26 13 -36 24q-45 52 -87 150q-2 6 -50 84q-38 61 -38 90q0 24 60 107q48 68 65 85q12 7 25 14q22 12 22 19v20q-15 -8 -33 -8q-11 0 -34 4t-35 4q-16 0 -23 -7q16 -41 16 -50q0 -23 -73 -108q-75 -88 -104 -88q-36 0 -36 49
q0 42 3 109q1 17 19.5 41t18.5 29q0 12 -11 22q-22 -6 -34 -6q-4 0 -38 3t-37 3h-26q-17 -3 -17 -22q0 3 17.5 -31.5t17.5 -63.5v-377q0 -40 -11 -69q-2 -7 -16 -23.5t-14 -19.5q0 -5 7 -11.5t12 -6.5q3 0 24.5 4.5t25.5 4.5t33 -4.5t32 -4.5q11 0 22 13q-10 23 -20.5 47
t-13.5 66q-3 46 -3 103q0 23 24.5 46.5t51.5 23.5q19 0 36 -18q12 -14 57 -97q50 -92 50 -114q0 -18 -10 -34.5t-20 -31.5q11 -4 25 -4q12 0 32.5 3t26.5 3q4 0 36 -5t36 -5q21 0 45 14z" />
    <glyph glyph-name="L" unicode="L" horiz-adv-x="557" 
d="M540 161q0 -25 -59.5 -104t-82.5 -79q-3 0 -25 1.5t-26.5 1.5t-5.5 4.5t-2 5.5q-6 -7 -9 -7q-4 0 -76 6.5t-76 6.5q-3 0 -55.5 -3t-56.5 -3q-66 0 -66 59q0 11 7 24q21 37 23 50q4 30 4 168v256q0 3 -11 42.5t-11 43.5q0 32 27 39q14 4 66 1q12 -1 41 1.5l29 2.5
q34 0 34 -35q0 -4 -13 -51q-15 -51 -18 -66l3 -381q9 -40 31 -50q10 -4 55 -4q55 0 111 29q32 18 81 56q38 30 49 30q32 0 32 -45zM512 162q0 8 -4 13q-136 -116 -236 -116q-4 0 -23 1.5t-23 1.5q-81 0 -81 164q0 16 1 35t1 21v254q0 34 15.5 67t15.5 32v11q-40 1 -120 -2
q-15 -1 -17 -8q4 -9 14 -49q11 -43 11 -55v-227q0 -4 -3.5 -30.5t-3.5 -29.5v-109q0 -36 -15.5 -64t-15.5 -31q0 -22 36 -22q4 0 74 3t73 3q58 0 120 -9.5t64 -9.5q6 0 61.5 73t55.5 83z" />
    <glyph glyph-name="M" unicode="M" horiz-adv-x="724" 
d="M644 32q0 -21 -23 -32q-18 -10 -41 -10q-4 0 -29 3t-29 3t-21 -3t-21 -3q-52 0 -52 45q0 18 12 33q17 19 22 36l10 317q0 17 -8 28q-51 -75 -114 -195q-33 -64 -56 -64q-26 0 -60 65q-17 32 -52 120q-26 65 -34 65q-6 0 -14 -8v-109q0 -4 -3 -57t-3 -57l1 -18
q1 -23 2 -68q1 -31 22.5 -52t21.5 -40q0 -35 -45 -35q-51 0 -100 4q-15 0 -23 16q-7 13 -7 24q0 18 17.5 30t22 26t4.5 36q0 16 -3.5 50t-3.5 50q0 27 5 79.5l5 52.5l-6 196q-2 11 -17 39.5t-15 32.5q0 13 15.5 31t28.5 18q4 0 26 -6.5t26 -6.5q3 0 17.5 3t18.5 3
q48 0 84 -75l38 -94q5 -8 26 -52q14 -31 31 -47q28 20 80 135q50 110 79 126q2 1 101 1q57 0 57 -59q0 -3 -12 -25.5t-15 -32.5q-7 -27 -7 -84v-282q0 -63 20.5 -99.5t20.5 -53.5zM615 39q0 4 -17 33t-19 42q-4 21 -4 71v285q0 57 10 96q2 9 13 28.5t11 22.5q0 23 -33 23
q-84 0 -88 -5q-38 -42 -95 -163q-46 -98 -71 -98q-26 0 -60 71q-30 65 -59 131q-34 70 -62 70q-6 0 -20.5 -3t-17.5 -3q-4 0 -22 6t-22 6q-22 0 -22 -20q0 -5 11.5 -20.5t12.5 -20.5q5 -13 6 -37l2 -34l3 -146q0 -7 -5 -79q-3 -60 -1 -91q7 -75 -2 -118q-2 -13 -20 -31
t-18 -24q0 -3 3 -6h117v17q-26 18 -35 49q-4 22 -8 45l3 202q-1 -6 -1 55q0 78 40 78q21 0 74 -112q60 -127 70 -138q15 17 88 148q62 112 82 112q17 0 29 -15t12 -38q0 -30 -3 -92.5t-3 -91.5v-89q0 -50 -8 -72q-3 -9 -16.5 -28.5t-13.5 -22.5q0 -6 4 -10q3 0 9 -2t9 -2
t19.5 5t19.5 5q4 0 29.5 -5t29.5 -5q39 13 39 21z" />
    <glyph glyph-name="N" unicode="N" horiz-adv-x="601" 
d="M525 648q0 -12 -11.5 -25t-12.5 -22q-5 -23 -6 -63q0 -28 1 -63q1 -40 1 -33v-91q0 -186 -11 -328q-2 -27 -33 -27q-34 0 -58 32q-18 24 -47 80q-35 67 -48.5 88t-164.5 260q-13 1 -13 -14v-313q0 -4 15.5 -42t15.5 -42q0 -42 -53 -42q-1 0 -26.5 -1.5t-29.5 -1.5
q-16 0 -30 15.5t-14 29.5q0 11 12 22.5t15 24.5q7 32 7 156v240q0 60 -7 81q-1 2 -15 21q-12 15 -12 31q0 60 139 60q42 0 71 -44q6 -9 28 -57q9 -21 56 -97q22 -37 43 -73q26 -43 52 -73q18 7 17 33q0 -9 1 120q1 89 -5 114q-1 3 -11 15t-10 26q0 42 78 42q66 0 66 -39z
M494 645q0 3 -8 11q-20 -1 -41 -1q-25 0 -33 -10q10 -15 21 -41q4 -24 4 -138v-105q0 -16 -11 -33q-13 -22 -34 -22q-29 0 -107 135q-8 13 -99 183q-4 8 -22.5 18t-27.5 10q-111 0 -111 -29q0 -4 12.5 -21t14.5 -23q10 -32 10 -103v-225q0 -3 -3 -34t-3 -35v-90
q0 -4 -14 -24.5t-14 -24.5q0 -15 14 -15q4 0 28.5 1.5t27.5 1.5q27 9 27 14q0 3 -13 30.5t-14 35.5q-7 44 -8 74q-2 21 -1 40q2 26 2 29q0 9 3.5 34.5t3.5 65.5q0 35 -2 85q-1 17 7.5 32.5t24.5 15.5q26 0 40 -24q23 -44 159 -253q20 -31 49 -87t44 -78q6 -9 32 -17
q6 60 9 186q2 121 4 143l4 172q-2 14 -2 28q0 35 13.5 63t13.5 25z" />
    <glyph glyph-name="O" unicode="O" horiz-adv-x="686" 
d="M619 326q0 -129 -89 -235q-94 -113 -225 -113q-120 0 -217 125q-88 115 -88 223q0 128 77 235q88 123 224 123q26 0 73 -12q43 -12 58 -20q21 -19 57 -49q69 -48 100 -139q3 -8 15 -53q15 -57 15 -85zM587 334q0 112 -84 210q-90 105 -209 105q-118 0 -197 -108
q-72 -98 -72 -217q0 -96 85 -202q91 -113 193 -113q125 0 209 107q75 97 75 218zM500 285q0 -64 -28 -122q-40 -85 -119 -85q-97 0 -173 118q-64 100 -64 177q0 64 24 122q37 86 111 86q100 0 178 -107q71 -97 71 -189zM469 282q0 82 -60 170q-67 101 -156 101
q-58 0 -89 -81q-20 -53 -20 -99q0 -65 59 -158q70 -109 150 -109q61 0 93 76q23 51 23 100z" />
    <glyph glyph-name="P" unicode="P" horiz-adv-x="495" 
d="M441 449q0 -180 -259 -222q-11 -2 -11 -62q0 -43 14 -84t14 -37q0 -20 -18 -34t-38 -14q-4 0 -27.5 4.5t-27.5 4.5q-3 0 -17.5 -3t-17.5 -3q-19 0 -36 10.5t-17 29.5q0 15 14 33t16 25q7 29 7 92q0 20 -2 94q-1 60 0 93q1 36 5 64q-3 4 0 109q-3 8 -20 37q-11 19 -11 36
q0 53 69 53q-2 0 29 -3.5t52 -3.5q12 0 35 3.5t35 3.5q87 0 153 -80q59 -72 59 -146zM413 446q0 83 -56.5 139t-140.5 56q-6 0 -27.5 -3t-24.5 -3t-41.5 4.5t-41.5 4.5q-44 0 -44 -23q0 -8 17 -31.5t17 -63.5l-6 -240q0 -18 2 -88q2 -54 0 -86q-1 -16 -19 -43t-18 -32
q0 -3 2 -4q31 1 90 -1q3 0 11 -4t11 -4q6 0 15 9t9 14q-28 100 -28 119q0 88 23 89q104 6 171 49q79 51 79 142zM326 477q0 -55 -29 -114q-34 -73 -84 -73q-70 0 -70 92l3 149q15 73 73 73q47 0 79 -46q28 -40 28 -81zM295 477q0 29 -20 60q-23 36 -56 36q-26 0 -38 -35
q-7 -21 -7 -41q0 8 1.5 -33.5t1.5 -103.5q0 -42 36 -42q35 0 61 70q21 55 21 89z" />
    <glyph glyph-name="Q" unicode="Q" horiz-adv-x="719" 
d="M655 -7q0 -70 -96 -130q-81 -50 -134 -50h-33l-215 68q-61 -5 -90.5 -21t-32.5 -16q-32 0 -32 32q0 27 42 59q38 30 59 30q3 0 3.5 -1.5t3.5 -1.5q12 0 31 18t19 22q0 17 -52 50q-58 38 -62 44q-18 25 -40 79q-26 63 -26 95q0 46 8 110t15 74q91 144 142.5 182.5
t154.5 38.5q132 0 220 -139q71 -114 71 -224q0 -132 -76 -232q-23 -30 -103 -65q-83 -35 -133 -33q-30 1 -54 -19q3 -13 23 -13q16 1 32 1q66 -11 99 -11q61 0 114 24q35 16 71 45q29 24 33 24q19 0 29 -17q9 -12 9 -23zM626 -12v14q-24 -28 -98 -60q-78 -33 -131 -33
q-39 0 -156 19q-27 5 -27 35q0 25 25 35q14 6 62 11q54 6 86 15q10 8 27 17q51 6 87 49q26 32 47 89l28 78q4 11 4 55q0 108 -62 209q-79 126 -208 126q-2 0 -28.5 -3.5t-37.5 -3.5q-40 -1 -114 -81q-69 -74 -83 -118q-19 -63 -19 -171q0 -33 27 -93q22 -48 41 -74
q5 -6 65 -42q50 -29 50 -56q0 -35 -78 -69.5t-81 -63.5q8 14 49 26q38 11 71 11q18 0 110.5 -32.5t125.5 -32.5q49 0 126 38q93 47 92 106zM481 252q0 -58 -33 -123q-41 -81 -104 -81q-105 0 -168 125q-49 98 -49 201q0 63 25 121q37 87 115 87q95 0 161 -137
q53 -109 53 -193zM450 255q0 65 -45 172q-56 130 -126 130q-71 0 -101 -75q-20 -48 -20 -117q0 -88 42 -175q53 -110 140 -110q51 0 84 73q26 57 26 102z" />
    <glyph glyph-name="R" unicode="R" horiz-adv-x="593" 
d="M521 35q0 -20 -15 -31t-31 -11h-14q-103 0 -193 118q-7 9 -37 77q-22 50 -42 50q-21 0 -21 -101q0 -27 15.5 -55t15.5 -40q0 -20 -20 -33q-15 -10 -30 -10q-16 0 -49 1.5t-49.5 1.5t-31.5 8q-19 10 -19 28q0 22 18.5 53t18.5 43v266q0 4 3 27.5t3 27.5q0 74 -17 125
t-17 52q0 43 51 43q3 0 34.5 -4.5t35.5 -4.5t40 3t39 3q80 0 144 -53q69 -58 69 -142q0 -45 -23 -88q-12 -24 -41 -62q-23 -29 -23 -38q0 -14 31 -68q23 -41 38 -61q39 -56 84 -92q33 -27 33 -33zM487 28q-52 36 -90 89q-21 29 -63 104q-30 53 -30 69q0 21 43.5 80t43.5 102
q0 82 -62 131q-55 44 -130 44q-4 0 -34 -3t-33 -3q-7 0 -40.5 4.5t-35.5 4.5q-25 0 -25 -18q0 -1 15.5 -31t16.5 -52q0 -11 2.5 -36.5t2.5 -28.5v-316q0 -49 -20 -88.5t-20 -34.5q0 -15 25 -15h80q26 0 35 10q-2 6 -18 37q-13 25 -13 50v91q0 20 15 34t36 14q18 0 34.5 -10
t18.5 -20q19 -85 90 -150q67 -62 131 -62q17 0 25 4zM298 494q0 -69 -17 -122q-25 -75 -78 -75q-62 0 -62 96q0 10 1 29t1 27l-2 9.5t-2 22.5q0 20 4 50q4 35 16.5 51t45.5 16q45 0 70 -34q23 -29 23 -70zM267 515q0 21 -21.5 36.5t-36.5 15.5q-35 0 -35 -33v-80
q0 -117 -1 -96q1 -22 17 -33q49 0 74 113q0 41 1.5 61t1.5 16z" />
    <glyph glyph-name="S" unicode="S" horiz-adv-x="499" 
d="M437 202q0 -100 -66 -156q-62 -53 -162 -53q-4 0 -30.5 6t-30.5 6q-3 0 -16.5 -3t-17.5 -3q-11 0 -27.5 6.5t-21.5 15.5l-48 84q-27 48 -27 63q0 16 12.5 27.5t26.5 11.5q23 0 50 -35q41 -53 54 -64q40 -35 94 -35q29 0 51 29q19 25 19 52q0 71 -151 162q-9 6 -77 78
q-7 8 -25 59q-20 57 -20 81q0 55 51.5 107.5t113.5 52.5q3 0 39.5 -5t40.5 -5t18.5 5t18.5 5q25 0 63 -60q34 -54 34 -67q0 -15 -12 -26.5t-24 -11.5q-11 0 -64 42t-91 42q-21 0 -34 -21q-11 -17 -11 -35q0 -39 89 -108l118 -90q22 -24 42.5 -72t20.5 -85zM409 204
q0 79 -69 147q-10 9 -129 99q-69 53 -69 95q0 93 71 93q43 0 96.5 -40.5t51.5 -40.5q17 0 17 14q0 6 -32.5 50.5t-37.5 44.5q-3 0 -17.5 -3t-18.5 -3l-83 9q-48 0 -92.5 -44t-44.5 -88q0 -50 36 -114.5t77 -87.5q160 -93 160 -184q0 -38 -26 -71q-29 -35 -69 -35
q-51 0 -99 35q-29 21 -65 64q-29 35 -36 35q-2 0 -9 -7v-22q0 -6 66 -113q6 -10 26 -10q4 0 18.5 3t18.5 3q1 0 26 -6t48 -6q81 0 133 51.5t52 131.5z" />
    <glyph glyph-name="T" unicode="T" horiz-adv-x="628" 
d="M593 537q0 -16 -14.5 -32t-30.5 -16q-2 0 -68.5 37t-73.5 37q-12 0 -24.5 -11t-12.5 -27l-3 -379q8 -31 30 -69q20 -32 20 -46q0 -38 -55 -38q-3 0 -28 3t-29 3t-48 -3t-48 -3q-44 0 -44 54q0 12 21 32q30 29 31 31q14 17 14 104q0 -3 -3.5 53t-3.5 81v139q0 47 -2 57
q-7 29 -38 29q-21 0 -72.5 -36t-79.5 -36q-14 0 -24 17q-7 12 -7 21q0 29 90 128q6 6 46 11q29 3 42 3q-7 0 34 -6t104 -6q5 0 69 4.5t68 4.5q23 0 20 1q12 -2 23 -15q27 -29 62 -75t35 -52zM565 537q-27 31 -53 61q-46 52 -57 52q-4 0 -71.5 -6t-71.5 -6t-39.5 1.5
t-39.5 1.5t-28.5 6t-27.5 6q-50 0 -63.5 -7t-51 -53t-37.5 -54q0 -5 4 -10h13l74 48t64 24q54 0 64 -43q2 -10 8 -156.5t6 -187.5q0 -103 -17 -126q-7 -10 -30 -28q-19 -16 -19 -19q0 -8 7 -20q119 9 108 9q4 0 22.5 -3t22.5 -3q22 0 33 7v10q-37 41 -46 91q-4 21 -4 81
q0 80 5 299q1 32 14 59q12 24 48 24q16 0 80.5 -37.5t63.5 -37.5q6 0 19 17z" />
    <glyph glyph-name="U" unicode="U" horiz-adv-x="670" 
d="M649 630q0 -16 -31 -42.5t-31 -59.5v-153q0 -12 -18 -110q-19 -105 -21 -120q-6 -54 -85 -113q-72 -53 -115 -53h-13q-118 0 -196 94q-75 90 -90 237q-5 87 -22 239q-4 21 -17 42q-10 18 -10 34q0 22 16.5 36t36.5 14q3 0 30.5 -6.5t31.5 -6.5t28.5 3t28.5 3q67 0 67 -51
q0 -13 -15 -33q-21 -28 -29 -45q-15 -35 -15 -85q0 -99 34 -210q47 -156 132 -156q94 0 130 167q18 83 18 192v74q0 15 -20.5 56.5t-20.5 59.5q0 5 8.5 19t14.5 14q32 5 123 5q16 0 33 -14.5t17 -30.5zM609 620q0 3 -17 20h-25h-70q-9 0 -7 -3q3 -8 -1 -14q5 -22 22 -58
q14 -27 14 -56q0 -170 -18 -259q-39 -193 -156 -193q-48 0 -60 6q-66 39 -108 178q-34 110 -34 196q0 43 13 108q4 17 25 36t21 35q0 28 -26 28q-4 0 -33 -5t-33 -5q-3 0 -29 6.5t-30 6.5q-18 0 -32 -13q13 -34 30 -92q0 -29 2 -80q0 -13 9 -58q8 -40 6 -57q-3 -42 21 -118
q29 -88 76 -145q58 -71 129 -71h40q118 0 177 141q41 99 41 208v116q0 77 27 117q4 5 15 13.5t11 11.5z" />
    <glyph glyph-name="V" unicode="V" horiz-adv-x="761" 
d="M705 630q0 -24 -18 -38q-16 -10 -32 -21q-40 -34 -66 -96l-42 -104l-78 -196q-82 -190 -113 -190q-24 0 -68 79q-20 40 -41 80q-33 64 -96 190l-66 158q-17 38 -68 90q-17 17 -17 49q0 37 48 37q4 0 31 -3t31 -3q3 0 27.5 3t28.5 3q27 0 47 -14.5t20 -40.5q0 -4 -6.5 -26
t-6.5 -26q0 -28 65 -177q69 -157 94 -157q13 0 43 81q43 117 45 120q16 31 32 61q17 36 17 79q0 3 -6.5 31t-6.5 32q0 41 62 41q3 0 33.5 -6.5t35.5 -6.5q3 0 22 3t23 3q26 0 26 -35zM678 634l-15 3q-23 -3 -39 -3t-31.5 5t-27.5 5q-20 0 -34 -10q-1 -10 5 -20q7 -13 7 -51
q0 -30 -4 -45q-21 -47 -51 -118q-20 -56 -40 -113q-38 -94 -66 -94q-11 0 -27.5 10.5t-24.5 23.5q-17 26 -74 150q-67 148 -67 187q0 4 8 25t8 25q0 23 -42 23q-4 0 -23.5 -1.5t-23.5 -1.5t-33 5t-32 5q-14 0 -26 -7v-13q0 -11 28 -39q33 -32 42 -49q16 -31 43 -96
q32 -76 116 -243l50.5 -101t51.5 -83q31 54 152 327q36 94 89 214q23 34 59 57q25 15 22 23z" />
    <glyph glyph-name="W" unicode="W" horiz-adv-x="930" 
d="M873 636q0 -14 -18 -35q-26 -30 -31 -40q-20 -33 -39 -89q-30 -84 -33 -91q-17 -42 -71 -225q-34 -114 -83 -168q-5 0 -17 4.5t-15 9.5q-26 51 -67 183q-50 160 -69 210q-24 -14 -94 -229q-13 -49 -26 -99q-23 -76 -48 -76q-68 0 -137 321q-9 20 -21.5 57.5t-31.5 117.5
q-8 52 -41 98q-31 42 -31 48q0 42 61 42q3 0 36.5 -3.5t37.5 -3.5t23.5 3.5t23.5 3.5q22 0 38 -11.5t16 -29.5q0 -5 -18.5 -33.5t-18.5 -60.5q0 -2 14 -37q17 -40 22 -59l16 -68q10 -43 24 -68q13 21 54 119q50 117 50 151q0 15 -17 30.5t-17 33.5q0 33 42 33q4 0 38.5 -5
t38.5 -5q3 0 28.5 3.5t29.5 3.5q56 0 56 -35q0 -5 -19 -29.5t-19 -49.5q0 -30 35 -134q31 -94 42 -113q14 8 59 132q44 121 44 145q0 3 -7.5 25t-7.5 26q0 33 43 33q4 0 14 -2t14 -2t30.5 6.5t30.5 6.5q17 0 28 -18q8 -14 8 -27zM851 642q0 4 -2 7t-2 4h-16q-4 0 -11.5 -4
t-10.5 -5q-29 0 -73 -4v-11q12 -19 12 -44q0 -30 -43 -156q-49 -146 -85 -146q-33 0 -72 120q-36 108 -36 157q0 37 10 47q19 19 18 36q-90 -6 -80 -6q-2 0 -34.5 3t-49.5 3q2 -9 20 -23q14 -13 14 -40q0 -26 -47 -158q-52 -148 -82 -148q-11 0 -24 9.5t-17 20.5
q-8 19 -38 131q-31 118 -31 136q0 24 12 37q12 10 25 21q0 1 -1.5 7t-1.5 7q-29 0 -87 3.5t-57 3.5q-7 0 -20 -5.5t-16 -12.5q63 -73 99 -191q26 -105 51 -210q32 -125 81 -199q14 28 51 141q40 123 61 172q35 84 57 84q31 0 72 -129q24 -82 47 -165q18 -50 21 -59
q12 -30 27 -50q16 19 77 200q82 243 96 279q18 48 37 74q6 9 31 38q18 21 18 25z" />
    <glyph glyph-name="X" unicode="X" horiz-adv-x="612" 
d="M540 635q0 -8 -4 -22q-6 -18 -13 -21q-33 -10 -101 -119q-65 -105 -65 -138q0 -16 56.5 -123t73.5 -114q29 -11 39 -23q5 -5 5 -22q0 -24 -17.5 -41t-36.5 -17q-4 0 -30.5 5t-30.5 5q-3 0 -26.5 -5t-27.5 -5q-64 0 -64 45q0 15 12.5 28.5t12.5 24.5q0 10 -25 66.5
t-34 56.5t-43.5 -52t-39.5 -71q-1 -4 3 -23q4 -22 4 -34q0 -21 -10.5 -29.5t-28.5 -8.5q-4 0 -32 5t-32 5q-3 0 -19 -1.5t-21 -1.5q-45 0 -45 37q0 16 9 26t42 24q29 13 38 30q33 55 66 109q50 83 50 95q0 5 -12 34.5t-23 48.5q-18 27 -48 75q-14 31 -42 83q-15 11 -45 37
q-4 5 -4 25q0 46 47 46q3 0 28 -3t29 -3t32 6.5t32 6.5q23 0 42.5 -15t19.5 -40q0 -4 -14 -20t-14 -29q0 -16 30 -70q27 -48 37 -59q38 31 73 116q0 1 -9.5 18t-9.5 33t12.5 37.5t32.5 21.5q4 0 32 -3t32 -3q3 0 21 1.5t22 1.5q14 0 24 -12.5t10 -24.5zM516 633q0 14 -19 14
q-4 0 -23.5 -3t-23.5 -3q-3 0 -18 3t-19 3q-31 0 -31 -31q0 -12 8 -26t8 -26q0 -16 -33 -76q-37 -67 -61 -67q-22 0 -62 70q-37 66 -37 91q0 14 14 34.5l14 20.5q0 7 -10.5 13.5t-20.5 6.5q-4 0 -32 -6.5t-32 -6.5t-28.5 3t-28.5 3q-28 0 -28 -21q0 -16 7 -19q31 -13 56 -59
q16 -31 31 -61q17 -24 45 -68q12 -25 24 -49q14 -30 14 -49q0 -20 -58 -118q-44 -75 -67 -109q-12 -17 -47 -34q-30 -15 -31 -27h42t16 0q4 0 30.5 -5t30.5 -5q19 0 19 17q0 4 -6.5 21.5t-6.5 20.5q0 15 39 83q44 76 70 76q24 0 57 -64q30 -59 30 -88q0 -24 -12.5 -40.5
t-12.5 -14.5q0 -3 7 -11q5 0 16 -1.5t14 -1.5q4 0 29.5 4.5t29.5 4.5t23 -4.5t22 -4.5q7 0 24.5 8t17.5 18v11q-28 15 -37 20q-21 14 -27 23q-29 44 -73 137q-40 85 -40 92q0 42 69.5 154.5t108.5 126.5q9 3 9 20z" />
    <glyph glyph-name="Y" unicode="Y" horiz-adv-x="719" 
d="M665 627q0 -10 -1 -13q-8 -22 -22 -28q-43 -21 -89 -79q-36 -48 -73 -96l-44 -48q-28 -34 -26 -56l-3 -177q0 -50 19 -68.5t19 -35.5q0 -41 -50 -41q-3 0 -26 5t-27 5t-31 -3.5t-31 -3.5q-25 0 -34 6q-13 8 -13 30q0 10 1 13q3 7 19 25t17 30q1 19 1 89q0 81 -1 88
q-1 13 -10 46q-4 10 -31 40q-32 36 -44 53q-18 31 -55 90q-24 36 -73 80l-24 11q-18 8 -25 24q-4 9 -4 15q0 40 63 40q4 0 31 -3t31 -3t43.5 3t43.5 3q13 0 24.5 -10t11.5 -25q0 -4 -6 -23.5t-6 -23.5q0 -13 53 -85t65 -72q28 0 76 75q45 67 45 82q0 3 -8 24t-8 26
q0 15 16 23.5t32 8.5q4 0 36.5 -4.5t36.5 -4.5t23 3t22 3q15 0 25.5 -13t10.5 -25zM643 630q0 4 -1.5 6.5t-1.5 3.5q-58 -6 -60 -6q-4 0 -33 5t-33 5q-13 0 -19.5 -4.5t-6.5 -10.5q19 -31 19 -43q0 -32 -54 -105q-58 -77 -95 -77q-26 0 -84.5 77t-58.5 105q0 3 4.5 24.5
t4.5 29.5q-44 5 -73 -1q-9 -2 -18 -2q-4 0 -36 3.5t-36 3.5q-19 0 -20 -1q-13 -2 -13 -15q0 -11 8 -15q48 -20 88 -71q8 -10 76 -112q39 -41 85 -105q14 -38 14 -76q0 -4 -2 -23q-2 -22 -3 -28q3 -42 0 -118q-1 -10 -18 -34.5t-14 -29.5h47q19 2 56 2q5 0 14 -2.5t13 -2.5
q12 0 24 7v14q-16 16 -19 20q-11 12 -14.5 24t-3.5 49q0 2 2 35.5t2 47.5q0 36 -1 72q1 42 10 64q17 38 50 68q19 18 55.5 68t40.5 53q13 14 27 28t65 44q13 8 13 23z" />
    <glyph glyph-name="Z" unicode="Z" horiz-adv-x="599" 
d="M547 119q0 -16 -8 -25q-32 -34 -99 -101q-5 -5 -19 -7q-6 -1 -45 -1q-52 0 -70 4q-30 6 -90 3q-15 -1 -44 1q-32 2 -31 2q-3 0 -14 -3.5t-17 -3.5q-40 0 -69 12q-41 16 -41 49q0 7 7 29q9 26 19 40q52 69 73 99q41 58 54.5 85t45.5 78q42 66 54.5 85l37.5 57q1 2 1 10
q0 34 -45 34q-6 0 -19 -1q-44 -4 -80 -31q-14 -12 -40 -29q-13 -7 -29 -7q-32 0 -32 38q0 28 49.5 85t77.5 57q4 0 13 -4t14 -5q50 -9 80 -11q3 0 12 -2.5t13 -2.5t70.5 11t70.5 11q25 0 44 -29q15 -24 15 -40q0 -11 -1 -17q-6 -7 -17 -25q-20 -49 -59 -105l-68 -94
q-33 -65 -98 -180q-14 -20 -45 -65q-4 -15 -4 -12q0 -26 44 -26h23q21 8 65 20q10 0 31 2q30 6 108 54q8 4 23 4q17 0 28 -15t11 -28zM519 120q0 5 -2 9t-2 5h-16q-3 0 -31 -19q-32 -20 -51 -27q-22 -3 -62 -11q-22 -8 -65 -20q-23 -3 -37 -3q-64 0 -64 55q0 13 4 20
q6 11 48 71q3 4 30 56q20 40 90 144q75 113 91 142q29 51 29 67q0 38 -51 38q-4 0 -60 -8t-59 -8q-26 0 -70 4q-10 3 -25 7q-53 8 -45 8q-15 0 -57.5 -48.5t-42.5 -66.5q0 -8 5 -12q15 1 38 18q33 23 47 30q39 20 73 20q86 0 86 -59q0 -18 -26 -57q-8 -9 -20 -25
q-63 -118 -82 -146q-20 -33 -39 -67q-30 -50 -99 -125q-9 -9 -17.5 -32t-8.5 -30q0 -17 33 -27q24 -7 48 -7q4 0 69 3t69 3t36.5 -4.5t35.5 -4.5h101q13 0 99 107z" />
    <glyph glyph-name="bracketleft" unicode="[" horiz-adv-x="290" 
d="M0 667h213v-100h-100v-628h100v-98h-213v826zM20 647v-786h173v58h-100v668h100v60h-173z" />
    <glyph glyph-name="backslash" unicode="\" horiz-adv-x="364" 
d="M31 707q-12 0 -22 -8t-10 -20q0 -5 2 -9l235 -680q9 -26 31 -26h8q11 0 21 8t10 20q0 5 -1 10l-236 679q-9 26 -30 26h-8zM288 -9q-4 -7 -13 -7h-8q-8 0 -14 18l-236 679q5 6 14 6h8q8 0 14 -17z" />
    <glyph glyph-name="bracketright" unicode="]" horiz-adv-x="315" 
d="M5 -60h100v628h-100v99h213v-826h-213v99zM25 -80v-59h173v786h-173v-59h100v-668h-100z" />
    <glyph glyph-name="asciicircum" unicode="^" horiz-adv-x="387" 
d="M249 847q8 5 16 0l144 -92q6 -4 6 -16t-6.5 -22.5t-16.5 -8.5l-137 28l-133 -34q-10 -2 -20 10t-10 24q0 9 6 12zM133 736l117 29h8l115 -23l-116 75z" />
    <glyph glyph-name="underscore" unicode="_" horiz-adv-x="389" 
d="M1 -99h416v-35h-416v35z" />
    <glyph glyph-name="grave" unicode="`" horiz-adv-x="290" 
d="M138 835q-2 2 -5 2q-11 0 -24 -27l-20 -46q-7 -14 9 -17l186 -39q9 -2 18 10.5t9 24.5q0 9 -7 12zM138 807l146 -65l-5 -14l-160 40z" />
    <glyph glyph-name="a" unicode="a" horiz-adv-x="464" 
d="M389 42q0 -25 -29 -40q-21 -11 -39 -11q-25 0 -42 4q-9 2 -20.5 10t-22.5 8q-4 0 -41.5 -9.5t-40.5 -9.5q-39 0 -46 4q-94 53 -94 136q0 32 14 67q15 39 39 55q13 9 48 19q29 8 58 15q7 1 18.5 6.5t11.5 24.5q0 8 -6 24q-8 21 -17 21q-1 0 -30 -29.5t-54 -29.5
q-18 0 -31 20q-11 17 -11 33q0 45 51 72q38 21 76 21q31 0 58 -4q11 -2 34.5 -20.5t33.5 -32.5q36 -49 36 -121q0 -17 -3 -31.5t-3 -62.5q0 -57 6 -83q3 -13 24.5 -30t21.5 -26zM361 39q-40 39 -43 53q-15 91 -3 164q2 10 2 21q0 63 -29 101q-38 50 -93 50q-32 0 -70 -17
q-46 -22 -46 -53l10 -23h11q21 7 30 19q21 27 22 28q11 12 23 12q27 0 41 -27q12 -22 12 -51q0 -14 -1 -19q-4 -21 -45 -34q-5 -4 -15 -8q-66 -6 -81 -21q-19 -18 -33 -49t-14 -54q0 -22 19 -58q1 -2 27 -26q30 -28 59 -28q11 0 36.5 9.5t48.5 9.5q25 0 41 -9.5t40 -9.5
q34 0 51 20zM243 154q0 -95 -60 -95q-34 0 -53 32q-17 26 -17 60q0 33 19 59q21 32 57 32q28 0 43 -37q11 -27 11 -51zM219 160q0 15 -8 32q-9 22 -22 22q-24 0 -36 -20.5t-12 -45.5q0 -61 39 -61t39 73z" />
    <glyph glyph-name="b" unicode="b" horiz-adv-x="459" 
d="M402 242q0 -45 -14 -79q-11 -29 -16 -40q-12 -25 -24 -38q-86 -91 -228 -91h-77q-21 0 -34 13.5t-13 33.5q0 23 12 36q19 19 28 43l10 433q-3 15 -11 40q-8 13 -17 27q-7 11 -7 22q0 17 8 24q12 13 25 15q6 1 77 1q39 0 51 -37q5 -13 9 -70q1 -15 -1 -44q-2 -33 -2 -46
q0 -26 24 -26q3 0 24.5 3t25.5 3q19 0 53 -20q3 -4 13 -14q30 -27 42 -47q27 -46 36 -118q1 -2 3.5 -10.5t2.5 -13.5zM377 242q0 48 -31 114q-39 84 -96 84q-4 0 -25.5 -3t-25.5 -3q-18 0 -21 4q-26 30 -26 39q0 3 2.5 8t2.5 9v88q0 78 -40 78q-4 0 -17 1t-17 1t-11.5 -1
t-10.5 -1q-20 0 -24 -3t-4 -17l12 -19q14 -22 21 -55q1 -6 1 -85l-6 -361q-2 -11 -7 -27q-5 -9 -22 -32q-14 -18 -14 -22q0 -14 29 -17q-1 0 36 0q62 0 94 6q48 8 91 34q25 12 56 33q53 73 53 147zM296 237q0 -42 -23 -98q-31 -73 -79 -73q-40 0 -46 51l-3 184
q0 28 15.5 49.5t47.5 21.5q47 0 71 -50q17 -37 17 -85zM272 244q0 24 -5 50q-2 13 -22.5 33t-34.5 20q-10 0 -23 -7q-16 -9 -17 -22t-1 -91q0 -89 4 -120q2 -14 20 -14q32 0 57 60q22 51 22 91z" />
    <glyph glyph-name="c" unicode="c" horiz-adv-x="434" 
d="M369 128q0 -41 -40 -83.5t-79 -52.5q-29 -7 -47 -7q-52 0 -72 10q-131 67 -131 227q0 65 46 140q54 88 124 88q4 0 27 -6.5t26 -6.5q4 0 22.5 9.5t22.5 9.5q17 0 32 -17q23 -26 49 -67q13 -22 13 -42q0 -32 -24 -32q-7 0 -56 31t-73 31q-23 0 -55 -26q-39 -31 -39 -109
q0 -66 64 -131q13 -13 39 -13q31 0 71.5 45t49.5 45q30 0 30 -43zM344 128q0 7 -4 11q-8 -4 -24.5 -25t-31.5 -30q-48 -31 -66 -31q-8 0 -26 6q-21 6 -28 13q-74 76 -74 156q0 53 16 86q34 71 102 71q33 0 102 -45q2 -1 9.5 -7.5t10.5 -6.5q7 0 7 4v10q-6 12 -28 44
q-29 41 -38 41q-4 0 -25 -8t-25 -8q-3 0 -25 6.5t-26 6.5q-53 0 -101 -72q-44 -67 -44 -128q0 -77 30 -122q4 -9 11 -22q41 -40 63 -52q26 -13 68 -13q80 0 129 75q18 28 18 40z" />
    <glyph glyph-name="d" unicode="d" horiz-adv-x="478" 
d="M393 44q0 -8 -8 -24q-10 -20 -20 -22q-14 -5 -30 -5q-4 0 -53.5 1t-53.5 1q-29 -1 -72 18q-27 12 -65 41q-41 32 -58 57q-10 16 -20 58q-12 48 -13 91q-1 105 91 190q8 8 56 19q5 2 24 2q3 0 25 -13.5t26 -13.5q21 0 19 65q0 55 -8 88q-6 14 -12 36q-1 37 33 37
q4 0 16 -2.5t17 -2.5q4 0 17.5 3t16.5 3q27 1 42 -23q13 -19 13 -46l-11 -275l3 -242q6 -8 13 -15q12 -16 12 -26zM365 45q0 4 -12.5 23t-12.5 22l-3 233q0 -8 2 23q2 25 1 76q0 60 1 81q1 14 6 57q5 39 4 42q0 45 -25 45q-4 0 -21.5 -3.5t-21.5 -3.5q-5 0 -13.5 3t-11.5 3
q-12 0 -12 -16q6 -12 15 -45q4 -27 5 -71q1 -94 -41 -95q-10 0 -32 13.5t-36 13.5q-29 0 -64 -33q-31 -29 -50 -65.5t-18 -86.5q0 -47 5 -69q8 -41 35 -72q87 -101 171 -100q4 0 48.5 -1t48.5 -1q8 0 20.5 8.5t11.5 18.5zM263 265l-1 -138q1 -22 -15.5 -40t-33.5 -18
q-19 0 -41 28q-36 46 -43 68q-20 70 -21 98q0 36 18 69q22 40 60 40q76 1 77 -107zM238 283q-1 65 -50 64q-25 0 -42 -36q-13 -28 -13 -48q1 -31 24 -101q2 -5 21.5 -35t32.5 -30q20 0 22 17q7 46 5 169z" />
    <glyph glyph-name="e" unicode="e" horiz-adv-x="435" 
d="M359 118q0 -14 -7 -25.5t-14 -23.5q-27 -50 -69 -67q-27 -11 -78 -11q-33 0 -41 1q-50 5 -102 80q-50 72 -48 126v73q0 31 19 74q15 36 56.5 70t76.5 41q14 3 64 3q40 0 79 -40q34 -35 43 -68q2 -6 14 -35q7 -18 7 -43q0 -39 -27 -51q-17 -8 -61 -8q-3 0 -25 1.5t-26 1.5
q-19 0 -54 -7q-16 -3 -26 -17q-4 -4 -4 -13q0 -36 31 -64.5t62 -28.5q26 0 55 34.5t46 34.5q29 0 29 -38zM325 131q-54 -72 -91 -72q-39 0 -52 10q-47 36 -61 64q-9 19 -9 55q0 52 107 52q4 0 36 1t36 1q22 0 31.5 8t9.5 31q0 32 -15 60q-8 16 -37 55q-15 22 -46 31
q-16 4 -60 4q-56 0 -102.5 -56t-46.5 -117q0 -40 4 -76q4 -44 48 -104q51 -70 102 -68q3 0 18 1.5t18 1.5q14 0 46.5 16t37.5 28q3 6 20 27q14 18 14 28q0 4 -1 8t-7 11zM273 313q0 -44 -54 -44q-4 0 -31 1.5t-31 1.5q-52 0 -52 46q0 27 29.5 51.5t54.5 24.5q37 0 62 -28
q22 -25 22 -53zM248 316q0 15 -19.5 37t-34.5 22q-19 0 -40 -22t-21 -41q0 -4 11 -13q6 0 26 -1.5t24 -1.5l8 -1.5t15 -1.5q31 0 31 23z" />
    <glyph glyph-name="f" unicode="f" horiz-adv-x="331" 
d="M341 594q0 -25 -12 -49q-15 -32 -41 -32q-11 -1 -25 10t-20 21l-5 34q-2 11 -13 11q-36 -1 -34 -90q0 -21 21 -34q16 -3 43 -18q8 -8 8 -26q0 -7 -4 -18q-5 -14 -12 -17q-14 -2 -40 -9q-18 -9 -18 -34q0 -8 2 -23.5t2 -20.5q-1 -26 -3 -84q-3 -51 -3 -54
q1 -50 21.5 -74.5t21.5 -44.5q0 -22 -16.5 -33.5t-34.5 -12.5q-3 0 -27 3t-27 3q-4 0 -29.5 -3.5t-29.5 -3.5q-22 -1 -36 11.5t-14 30.5q0 20 20.5 44.5t22.5 33.5q1 46 2 141q0 15 2.5 50t2.5 37q-1 9 -4 27q-2 4 -8 10q-17 0 -34 10q-20 11 -20 28q0 25 16 36q15 3 43 15
q12 8 20 36q5 20 9 40q11 42 36 78q14 19 64 38q43 15 62 15q18 1 48.5 -16.5t34.5 -29.5t8 -36zM316 597q0 20 -19.5 35t-43.5 16q-60 4 -103 -34q-46 -39 -41 -103q0 3 -7 -21q-10 -37 -30 -49q-4 -2 -21.5 -5.5t-22.5 -11.5q0 -5 4 -15q58 7 59 -66q0 -3 -2 -17t-1 -20
q0 -15 -1 -41t0 -42q0 -3 -1.5 -17t-0.5 -18l1 -77q0 -16 -21.5 -35.5t-20.5 -36.5q0 -17 25 -17q4 1 24 2.5t24 1.5t32 -2.5t31 -2.5q8 0 15 8.5t7 16.5q0 5 -2 9q-13 13 -29 36q-8 23 -9 77q-2 116 4 205q1 14 22 25q17 4 47 15v17l-4 4q-25 0 -45 21.5t-20 47.5
q-2 110 55 111q13 0 15 -1q20 -9 26 -31q1 -13 6 -32q7 -10 16 -10q6 1 16 10t12 17q4 14 4 30z" />
    <glyph glyph-name="g" unicode="g" horiz-adv-x="552" 
d="M488 402q0 -19 -16 -40.5t-33 -21.5q-13 -1 -18 10l-10 22h-13q-11 -10 -10 -16q3 -17 6 -35q3 -21 -2 -37q-9 -31 -27 -63q-22 -39 -45 -50q-36 -17 -59 -17l-75 -2q-14 0 -14 -15q0 -20 26 -24q3 -1 33 0l74 4q66 1 109 -38t44 -95q1 -55 -40 -102q-11 -12 -58 -35
q-59 -28 -160 -29h-30q-23 -1 -32 0q-47 2 -90 35q-47 37 -48 82q-1 39 41 70q37 28 70 28q18 1 33.5 -7.5t15.5 -22.5q0 -32 -30.5 -43.5t-30.5 -25.5q1 -19 25 -34q20 -12 36 -11q10 2 28 5q24 3 49 6t42.5 12.5t33 29t15.5 36.5q-1 37 -64 46q-41 3 -82 5q-31 5 -58 28
q-31 26 -31 55q0 18 10.5 34t10.5 21q0 9 -20 25q-24 20 -27 24q-32 48 -33 93q-1 21 2 29q4 15 24 41q8 16 34 43q17 11 49 22q27 9 35 9q46 1 94 -6q13 -5 27 -10q26 -10 43 -9q3 0 45.5 11.5t46.5 11.5q25 0 39 -15t15 -34zM466 404q-1 20 -36 19q-13 0 -36 -10t-47 -10
q-22 0 -40 7q-23 10 -42 14q-35 6 -84 5q-35 -1 -77 -32q-6 -4 -42 -55q-4 -6 -3 -34q0 -22 9 -42q4 -12 15 -31q19 -18 37 -35t19 -35q0 -16 -10.5 -29.5t-10.5 -23.5q0 -18 24 -36q20 -15 37 -19q14 -3 41.5 -2t38.5 -2q47 -9 65 -21q28 -18 28 -55q1 -21 -6 -33
q-11 -19 -31.5 -39t-32.5 -23t-32 -10q-25 -2 -65 -6q-36 -5 -71 14q-39 20 -40 55q0 28 21 41q11 5 24 10t13 16q-8 4 -22 3q-21 0 -50 -20q-36 -24 -35 -52q0 -18 4 -24q8 -13 33 -32.5t38 -23.5q44 -16 82 -16q9 0 19 1q5 1 10 1q36 1 47.5 3t66.5 16q22 6 72 42
q4 3 19 34.5t16 34.5t1 19q-1 29 -18 53q-8 12 -29 29q-29 23 -48 23q-4 0 -55 -4t-55 -4q-39 -1 -50 6q-24 14 -25 40q0 43 42 44h48q19 0 34.5 6.5t30 13.5t35.5 38q4 11 11 28q15 32 16 45l-1.5 12.5t-1.5 22.5q0 50 36 50q26 1 37 -23q4 2 15 16.5t11 19.5zM294 306
q1 -38 -16 -66q-21 -34 -61 -34q-25 -1 -32 3q-22 13 -40 42.5t-18 51.5q-1 26 22 57q25 36 57 37q43 0 67 -27q20 -25 21 -64zM269 306q0 26 -15.5 46.5t-42.5 20.5q-27 -1 -45 -28q-15 -23 -14 -43q0 -14 17 -41q19 -31 38 -31q32 1 49 26q14 21 13 50z" />
    <glyph glyph-name="h" unicode="h" horiz-adv-x="466" 
d="M395 29q0 -3 -3.5 -11t-3.5 -11q-13 -10 -28 -10q-3 0 -24.5 4.5t-25.5 4.5t-32 -4.5t-32 -4.5q-20 -1 -31 14t-11 32q0 3 15 18t17 22q11 44 9 170q3 10 6 26q0 6 -6 13q1 16 -11 42q-15 32 -36 32q-11 0 -24 -9t-14 -19q-7 -63 -6 -143q0 -34 4 -91q3 -12 15 -38
t12 -29q0 -5 -5.5 -20t-13.5 -15q-4 0 -34.5 6t-34.5 6q-3 0 -17 -3.5t-17 -3.5q-18 0 -38 9q-25 11 -25 27q0 12 11 30q8 11 15 21q7 16 7 46l-1 93q0 28 6 83l4 181v47q-3 24 -16 51q-7 5 -17 18q-1 1 -1 20q0 21 6 29t26 8q3 0 12.5 -1.5t13.5 -1.5q3 0 25 4.5t26 4.5
q12 0 30 -7q22 -10 22 -24l1 -107q0 -4 -4.5 -29t-4.5 -28q0 -32 15 -32q4 0 33.5 8t33.5 8q58 0 96 -49q10 -12 22 -46q12 -37 13 -58q-4 -76 0 -228q11 -24 21 -55zM368 33q-5 4 -15 32.5t-10 39.5l-1 76q1 -11 4 43q-1 30 -1 79q2 33 -12 70q-3 9 -9 22q-39 42 -81 42
q-3 0 -33 -7.5t-33 -7.5q-43 -1 -43 71q0 4 4 27q6 27 7 37q-3 3 0 73q-3 22 -31 22q-27 -3 -81 -10v-20q12 -5 24 -37.5t13 -51.5l-10 -381q-1 -5 0 -35q0 -22 -13 -44q-1 -2 -10.5 -12t-9.5 -14q0 -2 7 -9q11 -2 28 -3q4 0 18.5 3t18.5 3q2 0 25 -2.5t34 -2.5
q-9 18 -21 44q-3 13 -10 63l-1 97q3 43 6 85q12 68 66 68q31 1 56 -43q20 -36 20 -57v-25q1 -18 1 -21q1 -146 -15 -181q-12 -14 -26 -38q4 -2 10 -7q43 12 66 12q13 -4 32 -8h22q0 3 4 8z" />
    <glyph glyph-name="i" unicode="i" horiz-adv-x="268" 
d="M165 599q1 -26 -29 -43q-25 -13 -52 -14q-28 0 -51 19q-26 21 -26 49q0 27 16 46q21 23 64 23q78 1 78 -80zM187 45q0 -6 -8 -21t-16 -21q-11 -7 -27 -7q-4 0 -30.5 4t-30.5 4q-3 0 -15 -1.5t-17 -1.5q-50 0 -50 42q0 16 4 27q9 6 22 21q10 19 10 70l-1 87q0 4 3 24.5
t3 24.5q-1 47 -21 79.5t-20 43.5q0 46 37 46q2 0 19 -4.5t23 -4.5q8 2 24 3q28 1 45 -10q10 -6 12 -18q1 -7 2 -94l1 -95q0 -2 2.5 -15t2.5 -21q0 -18 -4 -53.5t-4 -36.5q1 -13 17.5 -38.5t16.5 -33.5zM141 604q0 15 -15 33t-34 18q-21 0 -38 -12q-20 -12 -19 -33
q0 -41 44 -40q62 13 62 34zM157 46q-13 19 -27 52q-2 18 -2 51q1 23 2 52.5l1 29.5v122l1 15t1 26q0 39 -17 39h-75q-4 0 -6 3t-5 3q-5 0 -10 -7.5t-5 -12.5q0 -11 7 -16q11 -9 13 -12q23 -32 23 -96q0 -4 -3 -28t-3 -28l1 -123q0 -21 -13 -43q-10 -10 -26 -31
q15 -17 28 -16q4 0 16 3t16 3q3 0 24 -4.5t24 -4.5q11 0 23 6.5t12 16.5z" />
    <glyph glyph-name="j" unicode="j" horiz-adv-x="401" 
d="M314 608q1 -60 -71 -61q-20 5 -52 10q-19 36 -20 54q0 25 18 41.5t38 16.5q7 3 20 6q9 0 33 -12.5t27 -18.5q7 -19 7 -36zM314 212q0 -4 -2.5 -11.5t-2.5 -10.5q-2 -24 -1 -85q0 -4 -1 -17v-19q0 -20 -6 -46q-10 -41 -37 -77q-30 -39 -67 -54q-4 -6 -15 -16
q-30 -16 -39 -19q-16 -7 -35 -7q-40 0 -70 16q-38 20 -38 61q0 9 8.5 26.5t16.5 19.5q13 5 32 11q26 0 48 -19.5t30 -19.5q18 0 25 14q13 28 12 134v75q0 4 5.5 48t5.5 48q0 2 -2 24.5t-3 31.5q1 8 1 15q0 11 -6 18q-14 6 -35 24q-11 14 -11 39q0 22 13 35.5t37 13.5
q3 0 16 -4.5t18 -4.5q3 0 26.5 1.5t27.5 1.5q18 0 34 -28q14 -23 14 -36zM290 613q0 15 -11 26.5t-29 11.5q-54 -1 -54 -43q0 -12 7 -26q23 -11 33 -11q54 1 54 42zM289 310q0 3 -4 4t-4 9q0 10 4 36q4 23 2 38q-1 17 -18 37q-11 -1 -64 -2q-5 0 -14 2.5t-12 2.5
q-31 0 -30 -23q0 -19 25.5 -32t28.5 -37q4 -36 4 -87q0 -4 -5.5 -54t-5.5 -54l1 -151q0 -24 -13 -49q-18 -32 -46 -33q-17 0 -37.5 20t-39.5 19q-14 0 -25.5 -8.5t-11.5 -21.5q1 -52 71 -51q28 0 47 9q12 7 40 30q20 12 59 45q14 16 27 44q14 32 14 53l-1 114q0 2 3 22.5
t3 31.5q0 44 -2 82z" />
    <glyph glyph-name="k" unicode="k" horiz-adv-x="484" 
d="M419 39q1 -16 -21 -28q-18 -10 -30 -11q-55 2 -117 3q-47 -1 -47 43q0 13 12 32t12 20q-18 33 -52 99q-20 -11 -24 -22q-1 -3 -1 -24q0 -41 14 -57.5t14 -38.5q1 -50 -62 -50q-1 0 -22.5 1.5t-31.5 1.5q-11 0 -28 -1q-35 0 -35 36q0 13 10.5 22t18.5 32q10 29 9 89
q-2 30 -3 60l-2 340q-7 7 -18 21q-10 21 -10 35q0 26 16 30q5 1 73 1q75 1 75 -60q0 -4 -4 -55.5t-4 -55.5l1 -134q-3 -11 -6 -32q0 -30 15 -30q4 0 21 24q28 40 31 44t3 13q0 4 -6.5 21.5t-6.5 20.5q0 17 17 28q13 8 27 8q4 0 30.5 -3t30.5 -3q16 2 39 3q32 1 32 -31
q0 -17 -19 -32q-10 -7 -45 -26q-17 -9 -34 -29q-19 -23 -19 -39q0 -31 25 -78q39 -76 40 -79q11 -27 57 -64q25 -20 25 -45zM392 45q-3 5 -7 12q-2 3 -6 6q-7 3 -18 11q-37 36 -45 59q-2 7 -42 82q-29 57 -30 93q0 26 31 58t58.5 40.5t31.5 27.5q-46 2 -99 3q-26 0 -26 -13
q0 -4 6.5 -19t6.5 -18q0 -15 -10 -29q-4 -7 -19 -25l-22 -36t-30 -18q-43 -1 -43 59l13 272q0 24 -5 32q-13 7 -46 6q-40 0 -50 2q0 -1 -6 -3t-6 -6t15.5 -30.5t15.5 -30.5l2 -331q-2 -26 -4 -76q1 -23 2 -47q0 -27 -5.5 -38.5t-18.5 -25.5q-9 -10 -9 -17q0 -9 4 -13h88
q36 1 36 20q-8 14 -24 46q-7 16 -7 51q0 28 11 50q14 28 38 28q20 0 36 -34q7 -17 13 -34q10 -8 21.5 -29t11.5 -36q0 -4 -12 -25.5t-12 -24.5q0 -17 20 -17q4 0 54.5 -1t54.5 -1q32 0 32 20z" />
    <glyph glyph-name="l" unicode="l" horiz-adv-x="286" 
d="M203 51q1 -22 -14.5 -38.5t-34.5 -16.5q-3 0 -19.5 4.5t-20.5 4.5t-28 -5t-28 -5q-17 0 -35 10q-23 11 -23 29q0 23 38 67q5 5 10.5 36t5.5 46l-3 354q0 31 -18.5 50t-18.5 37q0 49 47 49q3 0 14.5 -4t15.5 -4q22 2 65 -2q12 -3 21.5 -25.5t10.5 -36.5q0 -2 -5.5 -26.5
t-5.5 -35.5q-1 -22 0 -140l1 -122q-3 -41 -6 -91q-2 -22 1 -66q3 -9 18 -31q12 -18 12 -38zM179 51q-11 25 -31 71q-1 34 -3 76q0 6 4 41t4 38v79q-1 122 0 179q1 14 5.5 40.5t4.5 28.5q0 36 -21 36q-10 -1 -26 -3q-4 0 -25.5 6t-24.5 6q-28 0 -28 -25q1 -10 12 -24
q14 -17 18 -29q7 -22 8 -94l2 -309q0 -26 -10 -59q-13 -41 -34 -51q-11 -5 -9 -26q19 -12 31 -12q20 4 47 9q19 -3 44 -6q9 0 20.5 8t11.5 20z" />
    <glyph glyph-name="m" unicode="m" horiz-adv-x="708" 
d="M629 36q0 -41 -35 -41q-4 0 -30.5 4t-30.5 4q-3 0 -20.5 -1.5t-21.5 -1.5q-13 0 -31 5q-26 8 -26 20q0 18 33 53q9 11 9 66q-3 24 -6 55l-1 78q0 15 -17 42.5t-37 27.5q-42 0 -42 -71q0 -26 5 -41q-3 -12 -6 -32v-64q1 -36 8 -56q12 -15 24 -46q0 -32 -36 -32q-4 0 -21 3
t-20 3q-4 0 -32 -5t-32 -5q-17 0 -29 10t-13 24q0 2 15 30.5t17 40.5q1 7 1 69q0 64 -4 94q-8 70 -32 73q-3 1 -12 7.5t-13 6.5h-9q-7 0 -13 -11q-15 -29 -15 -63l1 -171q0 -23 4 -42q11 -15 21 -38q0 -9 -9.5 -18t-14.5 -9q-4 0 -39.5 4t-39.5 4t-16 -3t-16 -3q-11 0 -26 8
q-18 10 -18 22q0 13 11 25q9 8 18 17q10 13 10 51l-1 88l-2 24q-2 23 -1 37q1 8 3 33q2 21 2 25q0 19 -21.5 49.5t-21.5 34.5q0 17 12.5 28t28.5 11q3 0 12.5 -1.5t13.5 -1.5q3 0 27.5 4.5t28.5 4.5q21 1 36.5 -16t19.5 -17q21 12 62 30q4 1 34 1q33 1 41 -4q13 -6 45 -41
q8 0 27 11l38 22q18 7 49 8q62 0 93 -48q25 -40 25 -102q0 -15 -2 -30q-3 -33 1 -70q2 -4 5 -15l1 -107q0 -4 15.5 -25.5t15.5 -25.5zM601 29q-12 18 -27 49q-1 11 -2 100q-3 7 -5 21l-1 153q0 14 -19.5 43t-35 32.5t-32.5 3.5q-37 0 -58 -13q-30 -20 -56 -27q-15 -4 -36 21
q-24 27 -57 27q-30 0 -49 -15.5t-41 -15.5q-21 0 -34 15t-27 15q-3 0 -25 -4.5t-26 -4.5q-3 0 -9.5 1t-10.5 1q-12 0 -23 -10q10 -10 25 -35.5t15 -34.5l2 -218q0 -25 -7 -55q-1 -6 -9 -18q-3 -5 -20 -12v-14q71 4 112 2q-12 22 -11 48q0 30 -4 43q1 3 -1 139q4 32 7 64
q12 50 54 51q23 0 46 -17t33.5 -44.5t12.5 -74.5q-1 -37 -1 -73q1 -54 -1 -67q-6 -39 -31 -69l7 -7h21q-1 0 96 10q-7 12 -17 32q-10 27 -10 48l-2 161q0 29 14 55q18 35 54 36q72 0 84 -102l4 -125q1 -47 -1 -55q-6 -32 -37 -54q13 -6 74 -6q12 1 31 -4q24 -6 27 -6
q2 1 4 5t3 5z" />
    <glyph glyph-name="n" unicode="n" horiz-adv-x="483" 
d="M404 29q0 -29 -42 -29q-3 0 -29.5 2.5t-29.5 2.5q-4 0 -22.5 -1.5t-21.5 -1.5q-40 0 -40 22q0 3 13 26.5t16 32.5q7 28 6 88q0 79 -11 129q-3 14 -22 27.5t-33 13.5q-35 0 -34 -124l4 -144q12 -22 24 -49q0 -11 -8.5 -18.5t-16.5 -7.5q-4 0 -10 2.5t-9 2.5q-18 1 -55 0
q-19 -2 -39 -3q-9 0 -15 1q-29 19 -29 30q0 14 11 22q17 12 24 26q4 7 4 26q-1 24 0 28q4 32 1 55q-2 18 -5 36q-1 13 2.5 15t3.5 3q-7 4 -5 15q8 56 3 88q-1 10 -20 36.5t-19 34.5q0 34 40 34l18 -3q4 0 33.5 6.5t33.5 6.5q16 0 31 -16.5t22 -16.5q8 0 33.5 17t63.5 17
q43 0 68.5 -27t29.5 -68q1 -8 -1 -71q-3 -76 -3 -118q0 -62 5 -93q15 -24 30 -55zM377 35q-7 7 -19 32t-12 34l-1 113q3 11 5 30l-5 36q3 10 3 34q0 126 -65 126q-23 0 -60 -20t-51 -21q-11 0 -25.5 17t-24.5 17q-4 0 -28.5 -5t-27.5 -5q-9 1 -25 3q-13 0 -16 -11
q22 -30 28 -40q15 -25 15 -46q1 -143 -6 -226q0 -12 -1 -24q-1 -15 -10 -23t-24 -24l7 -7l14 1q28 3 104 3q-21 27 -22 43l-1 211q0 28 14 52q18 32 50 32q20 0 43.5 -18.5t27.5 -36.5q14 -58 15 -84v-62q0 -57 -2 -73q-6 -38 -31 -63l32 -4q11 4 24 4q11 0 30.5 -3t26.5 -3
q8 0 18 11z" />
    <glyph glyph-name="o" unicode="o" horiz-adv-x="511" 
d="M452 239q0 -67 -39 -130q-5 -15 -17 -40q-10 -15 -16 -19q-94 -68 -166 -68q-24 0 -69.5 19t-54.5 34q-20 14 -49 46q-41 78 -41 138q0 19 17 88q21 81 79 126q53 41 126 41q7 0 45 -8q44 -9 67 -18q7 -9 22 -23q43 -25 72 -89q24 -55 24 -97zM425 240q0 43 -21 87
q-24 50 -63 77q-6 8 -19 20q-18 10 -71 17q-4 1 -15.5 5t-15.5 4q-29 0 -68.5 -16t-57.5 -35q-40 -42 -55 -108q-14 -61 -14 -74q0 -54 30 -108q36 -62 97 -85q45 -18 56 -18q48 0 102 30q63 34 79 85q11 30 22 59q14 38 14 60zM348 179q0 -49 -20 -87q-25 -49 -73 -49
q-42 0 -85.5 42t-57.5 92q-17 57 -17 83q0 40 20 84q6 13 30 28.5t34 15.5q3 0 17.5 -4t20.5 -5q48 -4 86 -61q28 -42 41 -94q4 -19 4 -45zM320 176q0 40 -18 83q-20 50 -56 84q-18 17 -60 17q-31 0 -49 -36q-14 -29 -14 -58q0 -26 10 -65q14 -51 31 -71q52 -59 91 -59
q35 0 53 42q12 29 12 63z" />
    <glyph glyph-name="p" unicode="p" horiz-adv-x="477" 
d="M404 166q0 -22 -23 -97q-9 -32 -47 -55t-73 -23q-3 0 -33.5 7.5t-34.5 7.5q-20 0 -24 -21q-2 -6 -2 -34q0 -23 4 -32q18 -42 18 -39q0 -34 -33 -34h-112q-16 0 -26.5 12t-10.5 25q0 12 14.5 31.5t16.5 34.5l6 293q0 -7 -2 44q-1 44 0 63q-7 12 -24 34q-8 10 -8 25
q0 20 14 37t34 17q4 0 27.5 -1.5t27.5 -1.5q72 0 108 -4q9 -2 49.5 -29.5t57.5 -53.5q4 -7 15 -22q61 -81 61 -184zM383 162q0 66 -25 119.5t-84 114.5q-22 22 -49 31q-35 10 -81 10q1 0 -20 1.5t-37 0.5q-22 0 -36.5 -3.5t-16.5 -12.5q1 5 1 -13q0 -14 7 -19q12 -9 16 -18
q8 -13 10 -32q2 -14 1 -36q-2 -31 -2 -36t-2 -13t-2 -11q0 -5 3 -14t3 -12q0 -66 -2 -79q0 -2 -2.5 -10t-2.5 -12v-178q0 -16 -15 -32.5t-15 -24.5q0 -5 4 -10h125l1 5.5t1 6.5q-21 31 -21 66q0 83 45 83q4 0 36.5 -9t35.5 -9q7 0 31.5 7.5t35.5 14.5q21 13 33 45
q10 28 19 57q5 9 5 22zM312 199q0 -31 -17.5 -70t-38.5 -54q-11 -7 -35 -7q-18 0 -40.5 14.5t-24.5 32.5q-7 54 -7 82q0 78 4 101q12 71 59 71q9 0 35 -17t46 -70q19 -48 19 -83zM287 197q0 31 -17 79q-24 66 -61 66q-8 0 -17.5 -7.5t-11.5 -15.5q-7 -33 -7 -122
q0 -60 7 -79q9 -22 41 -22q21 0 28 7q38 42 38 94z" />
    <glyph glyph-name="q" unicode="q" horiz-adv-x="465" 
d="M400 410q0 -22 -7 -34q-36 -55 -36 -69v-121q0 -4 -6 -40.5t-6 -40.5q0 -3 3 -38.5t3 -39.5v-112q0 -3 6 -11t7.5 -12t1.5 -18q0 -25 -13 -32q-8 -5 -29 -5h-108q-14 0 -24 10t-10 22q0 16 21.5 40.5t21.5 62.5q0 40 -37 40q-4 0 -34 -10.5t-34 -10.5q-7 0 -30 7
q-27 9 -37 19q-21 20 -37 58.5t-16 70.5q0 172 124 268q20 7 62 21q22 8 45 16q16 5 44 5q1 0 35 -2.5t55 -2.5q15 0 28 -16q7 -9 7 -25zM378 418q-10 10 -31 10q-30 0 -34 1q-25 5 -33 5q-17 0 -51 -7q-15 -7 -40 -17q-22 -4 -59 -20q-50 -40 -80 -106q-27 -58 -27 -107
q0 -7 -2.5 -23t-2.5 -18q0 -5 2 -8.5t4 -6.5q14 -62 44 -86q8 -6 26 -12.5t25 -6.5q3 0 32 10.5t32 10.5q63 0 63 -68q0 -30 -11 -56q-4 -8 -18 -24t-14 -20q0 -7 4 -7q-2 0 138 0v23q0 3 -8.5 16t-8.5 18v67q-1 48 -1 68q0 8 -2 28t-2 23q0 4 6.5 45t6.5 45v115q0 22 15 51
q12 13 26 37q2 6 1 20zM252 134q0 -12 -10 -29q-19 -28 -48 -28q-22 0 -52.5 21.5t-34.5 41.5q-5 24 -5 52q0 67 34 121q8 12 39.5 31t43.5 19q16 0 26 -24q7 -19 7 -38v-167zM231 143q0 4 -1.5 23.5t-1.5 22.5v139q0 11 -11 11l-40 -22q-23 -13 -31 -32q-23 -49 -23 -94
q0 -35 7 -51q4 -10 25 -24t34 -14q17 0 29.5 13t12.5 28z" />
    <glyph glyph-name="r" unicode="r" horiz-adv-x="403" 
d="M346 368q0 -13 -15 -43q-17 -36 -35 -36q-34 -1 -50 19q-8 9 -17 37q-6 20 -17 20q-9 0 -30 -19.5t-26 -30.5q-6 -16 -6 -48q1 -24 2 -47l1 -56q-7 -46 -7 -50q0 -20 14 -35.5t15 -35.5q0 -46 -55 -47q-4 0 -22.5 4.5t-22.5 4.5q-3 0 -18 -3.5t-19 -3.5q-35 0 -36 41
q0 11 16.5 48.5t16.5 56.5q0 4 -3.5 25t-3.5 25l-2 91q3 18 2 53q-14 37 -28 81q0 13 16 28.5t28 15.5q24 0 56 -10q8 -2 25.5 -18.5t26.5 -16.5q6 1 33.5 21.5t57.5 20.5h26q25 -1 50.5 -33t26.5 -59zM321 369q0 29 -24 48t-54 19q-27 -1 -51 -23t-38 -22q-21 -1 -40 22
t-62 23q-28 -1 -27 -19q10 -25 24 -64q3 -10 4 -26q0 -11 -1 -26l-1 -15l1 -86q0 -3 3.5 -27.5t3.5 -27.5q0 -12 -9 -43.5t-12 -36.5q-11 -15 -11 -17v-19h43q4 0 23.5 -4t22.5 -4q34 0 34 22q0 9 -14 29t-15 44q0 7 9 54q1 6 -1 19.5t-2 17.5q0 10 -1.5 32.5t-1.5 34.5
q0 62 42 87q1 1 18 16q13 12 23 12q39 1 44 -29q4 -25 5 -26q7 -18 27 -18q17 1 27.5 19t10.5 34z" />
    <glyph glyph-name="s" unicode="s" horiz-adv-x="386" 
d="M305 138q0 -72 -50 -121q-11 -10 -37.5 -21t-34.5 -11q-21 0 -46 7q-2 1 -11 6.5t-14 5.5q-3 0 -15 -3t-15 -3q-19 0 -29 14q-15 21 -34 61q-19 37 -19 43q0 20 13 32.5t30 12.5q11 0 20 -13t17 -25q46 -51 74 -51q34 0 34 34q0 24 -43 68q-8 8 -25 16.5t-21 11.5
q-27 21 -45 49q-4 5 -10 12q-10 49 -10 61q0 47 29 89q34 50 85 50q-2 0 33 -5q3 -2 9 -7h-1v-1h5t14 5t15 5q12 0 22 -17.5t34 -54.5q10 -16 10 -29q0 -12 -8.5 -25t-21.5 -13q-10 0 -17.5 8.5t-22.5 24.5q-24 19 -42 19q-10 0 -19.5 -10.5t-9.5 -16.5q0 -18 36 -44l40 -26
q81 -83 81 -138zM280 135q0 25 -17 59q-11 13 -29 34q-6 11 -19 27q-52 34 -57 39q-32 27 -32 55q0 18 15 33.5t36 15.5q15 0 52 -23q10 -6 28 -26q8 7 8 15q-36 61 -40 67q-1 1 -6 1q-4 0 -11.5 -1.5t-10.5 -1.5q-4 0 -29 6t-28 6q-6 0 -25 -11.5t-31 -22.5
q-18 -18 -25 -50q-4 -18 -4 -38q0 -54 56 -98q10 -4 25 -12q28 -25 55 -50q18 -22 18 -60q0 -25 -7 -35q-11 -17 -43 -17q-51 0 -117 89q-7 -4 -12 -7.5t-5 -10.5q0 -4 41 -85q5 -11 16 -11q4 0 14.5 3.5t14.5 3.5t24 -9.5t24 -9.5t15.5 2t15 3.5t9.5 5.5q24 9 34 15
q6 3 20 27q6 7 13.5 17t9.5 21q4 27 4 34z" />
    <glyph glyph-name="t" unicode="t" horiz-adv-x="346" 
d="M271 87q0 -43 -42 -73q-36 -25 -70 -25q-112 0 -121 93q-2 17 2 47q5 40 5 46q1 10 -3 86q3 33 -3 92q-11 7 -29 24q-10 18 -10 38q0 18 0 15q1 10 13 19q66 49 78 89q2 10 8 28q13 23 40 23q15 0 17 -1q9 -4 12 -22q2 -33 5 -65q4 -37 23 -41q9 0 27 -2q32 -6 32 -49
q0 -30 -31 -41q-10 0 -28 -2q-10 -7 -14 -16q-13 -31 -13 -46v-80q0 -74 -1 -78.5t-3 -8.5t-2 -8q0 -36 23 -36q13 0 27 15.5t30 15.5q28 0 28 -37zM240 70v20q-5 -3 -22 -19q-13 -12 -16 -12h-16q-20 0 -35.5 24t-15.5 49q0 2 4.5 20t5.5 26q-3 33 -6 83q2 132 72 135
q17 0 17 7v15q-2 10 -20 14q-24 5 -27 7q-26 16 -33 55q-4 34 -7 67h-11q-11 -7 -15 -24q-6 -23 -8 -26q-36 -61 -79 -85q-2 -5 -2 -9q0 -12 20.5 -34.5t21.5 -32.5q2 -57 5 -169q0 -11 -4 -39t-4 -43q0 -34 16 -57q11 -17 28 -19q29 -4 43 -4q16 0 19 1q12 3 36 16
q33 18 33 34z" />
    <glyph glyph-name="u" unicode="u" horiz-adv-x="513" 
d="M434 34q0 -20 -16 -32q-16 -8 -52 -29q-21 -14 -42 -29q-25 -16 -38 -16q-39 0 -39 65q0 47 1 40q-2 3 -7 8q-11 -4 -44 -25q-24 -14 -42 -14q-53 0 -87 47q-31 44 -28 94q1 3 -1 18t-2 18v178q0 3 -18.5 25t-18.5 34q0 9 12 18t20 10q115 10 100 10q19 0 31 -16t12 -28
v-87q0 -4 -4.5 -57t-4.5 -57q0 -45 2 -51q7 -33 40 -33q42 0 49.5 36.5t7.5 135.5q0 43 -4 53q-11 14 -29 40q-1 2 -1 16q0 21 13 31q7 6 41 12q31 5 52 5q51 0 68 -31q1 -3 1 -24q0 -4 -6 -32q-7 -32 -8 -44q-16 -117 -16 -186q0 -35 15 -54q3 -4 28 -21q15 -11 15 -28z
M406 38q-28 5 -44 41q-14 30 -14 64q0 4 3 13t3 13v71l28 157q0 13 -5 19q-26 14 -32 14q-23 0 -85 -17q-4 -11 -4 -10q36 -36 36 -101q0 3 -1 -28t-1.5 -78.5t-24.5 -74.5t-62 -27q-20 0 -40 19q-17 16 -24 35q-3 8 -3 22q0 9 1.5 22.5l1.5 13.5q0 4 6 85t6 85
q-14 50 -19 50q-86 0 -101 -13q34 -47 34 -53v-172q0 -20 10 -90q3 -23 27.5 -46t48.5 -23q11 0 39.5 19t45.5 19q29 0 38 -26q3 -8 2 -25q-3 -45 5 -57h10q13 10 38 26q14 10 39 22q9 2 23 13.5t15 17.5z" />
    <glyph glyph-name="v" unicode="v" horiz-adv-x="532" 
d="M462 411q0 -22 -27 -39q-9 -6 -21 -29q-7 -17 -15 -35q-24 -45 -58 -124q-12 -30 -38 -83q-11 -29 -21 -58q-24 -53 -51 -53q-22 0 -51 56q-14 29 -27 58q-27 48 -110 240q-2 5 -14 15q-15 11 -22 20t-7 29q0 42 59 42q10 0 34 -2q5 -1 15 0q12 2 15 2q55 0 55 -42
q0 -3 -7.5 -27.5t-7.5 -28.5q0 -11 18 -42q10 -17 19 -33q8 -33 14 -49q10 -26 28 -48h8q12 16 45.5 94.5t33.5 89.5q0 3 -7.5 21.5t-7.5 22.5q0 17 28 28q21 8 36 8q3 0 14.5 -3t14.5 -3q4 0 14.5 3t14.5 3q26 0 26 -33zM438 406v8l-4 3q-9 -4 -20 -4q-6 0 -18 1.5t-19 1.5
q-19 0 -36 -9q1 -7 8 -23.5t7 -19.5q0 -6 -22 -65t-39 -96q-5 -11 -20 -35q-9 -15 -26 -15q-21 0 -35 20q-22 31 -37 92q-9 11 -19 30q-3 8 -14 30q-5 9 -5 30q0 20 6 30.5t9 27.5q-15 10 -30 10q-71 0 -84 -1q-16 -1 -16 -17q0 -3 20 -23.5t23 -28.5q66 -156 113 -246
q11 -25 23 -49q18 -35 30 -38q36 68 101 205q25 62 64 145q9 16 40 36z" />
    <glyph glyph-name="w" unicode="w" horiz-adv-x="705" 
d="M632 408q0 -19 -30 -48q-19 -18 -28 -49q-2 -10 -8 -32q-28 -78 -80 -222q-24 -64 -52 -64q-21 0 -39 25q-14 18 -20 36t-19 53q-18 51 -43 97q-5 1 -12 -11q-21 -51 -41 -101q-45 -99 -72 -99q-13 0 -37 31q-16 22 -27 59l-14 60q-16 53 -49 160q-6 18 -22 53
q-8 6 -19 20q-13 26 -13 37q0 6 6.5 17.5t15.5 12.5q39 4 113 4q15 0 32 -12.5t17 -27.5q0 -4 -7.5 -27t-7.5 -27q0 -15 11 -59q14 -52 26 -61q13 3 15 14q2 8 24 58q16 38 16 66q0 21 -8 41q-4 9 0 19q4 12 15 15q16 4 91 4q14 0 30.5 -15t16.5 -25q0 -4 -7.5 -19t-7.5 -35
t16.5 -67.5t23.5 -58.5h9q9 15 28 71q18 53 18 60q0 3 -9 28t-9 30q0 14 8 21.5t44 4.5q11 -1 32 0q25 2 24 2q21 0 35 -12.5t14 -26.5zM605 403v10q-9 7 -23 7q-87 0 -80 -1v-13q18 -27 18 -48q0 -20 -12 -44q-15 -33 -17 -40q-5 -19 -17 -53q-6 -14 -31 -14q-20 0 -27 11
q-47 88 -47 149q0 13 7 27.5t7 15.5q0 4 -1.5 6.5t-1.5 3.5h-88l-3 -13q7 -13 7 -37q0 -31 -9 -58l-24 -56q-18 -46 -46 -46q-19 0 -32 14q-10 11 -23 58t-13 73q0 21 15 55q-20 10 -24 10q-3 0 -27 -3t-27 -3q-4 0 -19.5 3t-19.5 3q-13 0 -13 -12q0 -8 9 -18.5t17 -19.5
q13 -18 20 -41q56 -169 71 -234q13 -53 35 -72q14 11 22.5 29t16.5 33.5t21 42.5q11 32 37 91q6 11 26 11q25 0 40 -33q8 -28 17 -55q15 -36 45 -106q2 -5 10 -10.5t12 -5.5q11 18 26 45l83 226q4 16 11 41q11 26 33 49q20 20 19 22z" />
    <glyph glyph-name="x" unicode="x" horiz-adv-x="587" 
d="M508 423q0 -7 -9 -22q-6 -9 -26 -15q-25 -7 -29.5 -10t-59.5 -70q-58 -68 -57 -73q0 -10 46 -71t59 -70q10 -3 30 -8q14 -4 27.5 -20t13.5 -28q1 -15 -11 -24.5t-24 -9.5q-4 0 -31 4.5t-30 4.5t-29.5 -6t-31.5 -6q-54 0 -57 51q0 3 5.5 16t5.5 16q-1 10 -23 41t-30 31
q-10 0 -40.5 -42.5t-32.5 -51.5q3 -14 3 -42q-2 -14 -17 -22.5t-29 -8.5q-4 0 -24.5 6t-23.5 6q-4 0 -22.5 -3t-21.5 -3q-37 0 -39 34q-1 31 32 42q49 17 52 20q27 23 65 78q36 50 36 57q0 3 -28 44t-45 63q-13 10 -40 33q-9 6 -26 20q-17 19 -18 36q0 14 12 25.5t27 11.5
q3 0 27 -6t28 -6t27 7.5t27 7.5q13 0 22.5 -9.5t9.5 -20.5q1 -15 -10.5 -26.5t-10.5 -13.5q19 -25 63 -85q5 -8 13 -8q9 0 63 70q12 16 11 32q0 3 -6.5 13.5t-6.5 14.5q-1 30 36 30q4 0 28.5 -6t28.5 -6q3 0 23.5 4.5t24.5 4.5q17 0 30 -9t13 -22zM479 415l-1 11l-4 4
q-11 0 -33.5 -4.5t-24.5 -4.5t-26 3t-36 3q0 -7 2.5 -15.5t2.5 -16.5q0 -26 -34 -67l-58 -70h-8q-29 35 -58 69q-31 39 -32 66q-1 4 5 20.5t7 22.5h-10q-32 -18 -42 -18q-4 0 -32.5 9t-31.5 9q-6 0 -13 -6l1 -26q36 -17 76 -64q28 -36 55 -70.5t27 -46.5q1 -12 -40 -64
q-22 -25 -43 -51q-9 -17 -28 -40q-8 -4 -32 -9t-38 -17q-7 -4 -6 -15q0 -6 4 -10q12 2 34 6q18 3 21 3q17 0 31.5 -7.5t15.5 -7.5q21 0 21 24q-1 34 -1 33q41 84 97 125q9 -9 43 -55q39 -51 40 -62q0 -3 -8.5 -15t-8.5 -16q1 -16 32 -16q4 0 29.5 6t29.5 6t30 -9t30 -9
q5 0 10.5 6.5t4.5 10.5q-6 7 -26 14t-26 11q-46 32 -94 118q-18 22 -36 50q0 8 57.5 77.5t76.5 83t48 21.5z" />
    <glyph glyph-name="y" unicode="y" horiz-adv-x="544" 
d="M477 432q0 -19 -15 -38q-9 -15 -31 -43q-24 -23 -38 -55q-9 -26 -19 -52q-15 -40 -65 -143q-17 -43 -33 -86q-29 -73 -61 -112q-22 -27 -56 -42q-21 -10 -43 -10q-92 0 -92 70q0 23 19 46t41 23q23 0 36.5 -20.5t21.5 -20.5q14 0 26 20q8 15 27 44q4 6 4 19q0 24 -15 57
q-24 58 -28 70t-48 91q-3 5 -31 62q-16 32 -32 49q-15 9 -38 28q-7 8 -7 34q0 34 33 34q3 0 25.5 -4.5t25.5 -4.5q4 0 35 4.5t35 4.5q19 0 36 -18t17 -34q0 -3 -8.5 -26.5t-8.5 -26.5q0 -20 15 -49q25 -46 28 -52q4 -14 9 -28q7 -19 20 -24q12 5 18 20q20 40 54 115
q7 17 7 32q0 4 -13.5 27t-13.5 27q0 37 40 37q3 0 23.5 -3t23.5 -3q4 0 16.5 1.5t16.5 1.5q16 0 29.5 -8t13.5 -14zM450 413v20l-5 -4q-37 -4 -64 -1q-4 0 -12.5 2.5t-11.5 2.5q-19 0 -19 -16q0 -2 13 -19t13 -35q0 -25 -6 -40q-15 -27 -40 -81q-7 -17 -14 -35
q-17 -35 -37 -35q-12 0 -26 12t-18 23t-36 75q-21 42 -21 71q0 4 7.5 27.5t7.5 27.5q0 22 -33 22q3 0 -32 -4q-30 -3 -46 -1q-40 6 -46 3v-17q0 -7 5.5 -12.5t16 -10.5t14.5 -9q16 -16 31 -43q22 -37 43 -73q26 -44 37 -75q1 -4 38 -89q16 -37 16 -72q0 -17 -4 -22
q-11 -20 -22 -39q-14 -25 -32 -37q-10 -7 -26 -7q-22 0 -32.5 21t-22.5 21q-10 0 -23 -15.5t-13 -27.5q0 -43 48 -43q30 0 52 9q39 17 86 104q13 33 38 92q26 53 65 141q13 32 35 85q12 28 46 69q30 36 30 35z" />
    <glyph glyph-name="z" unicode="z" horiz-adv-x="442" 
d="M357 124q0 -13 -9 -25q-19 -26 -20 -29q-8 -15 -15 -30q-11 -20 -25 -29q-24 -16 -54 -16q-4 0 -36.5 4.5t-36.5 4.5q-3 0 -21 -1.5t-22 -1.5t-31 -3t-31 -3q-22 0 -35.5 14.5t-13.5 30.5q0 15 10 37q3 8 43 63q6 14 19 41q28 44 57 87q52 81 52 93q0 15 -11 15
q-17 0 -55.5 -21t-44.5 -21q-25 0 -25 31q0 13 25 51q23 35 29 38q15 11 28 11q3 0 40 -6t43 -6q4 0 39 4.5t38 4.5q24 0 42 -18t18 -37q0 -24 -11 -37q-18 -20 -54 -65q-15 -35 -46 -99l-40 -50q-36 -47 -36 -56q0 -19 24 -19q30 0 77 30q3 2 29 28q23 22 32 22
q12 0 20 -12t8 -25zM333 123q0 4 -5 9q-25 -31 -66.5 -54.5t-72.5 -23.5q-13 0 -29.5 14.5t-16.5 31.5q0 18 36 67q20 25 40 51q18 41 49 102q9 14 55 65q7 8 7 23q0 10 -9.5 20t-26.5 10q-3 0 -38.5 -4.5t-39.5 -4.5t-37 4.5t-36 4.5q-24 0 -38.5 -25.5t-28.5 -51.5
q23 12 46 25q28 13 54 13q14 0 24.5 -11t10.5 -29q0 -14 -10.5 -30t-20.5 -31q-12 -20 -32 -53q-17 -27 -45 -73q-8 -18 -47 -77q-9 -10 -17 -30t-8 -25q0 -4 4 -11q6 -10 15 -10q4 0 55 4.5t55 4.5q3 0 33.5 -4.5t34.5 -4.5q12 0 30 7t21 12q13 16 33.5 48.5t20.5 36.5z
" />
    <glyph glyph-name="braceleft" unicode="{" horiz-adv-x="295" 
d="M119 -304q-64 32 -64 139v263q0 38 -9 57q-13 23 -47 33v115q32 10 44 29t12 56v269q0 63 19 94q22 37 77 42q31 3 81 3q29 0 64 -1v-132q-61 -1 -77 -12q-21 -15 -21 -68v-220q0 -46 -9 -69q-12 -28 -49 -51q36 -24 48 -52q10 -24 10 -70v-223q0 -55 22 -70
q15 -10 76 -12v-125q-40 -1 -70 -1q-93 0 -107 6zM128 -286q9 -4 98 -4h50v87q-57 3 -77.5 23t-20.5 78v223q0 53 -16 76q-11 16 -60 46q50 30 61 45q15 22 15 75v220q0 56 20 76.5t78 22.5v94h-44q-93 0 -121 -18q-36 -24 -36 -107v-263q0 -78 -56 -99v-86q56 -21 56 -105
v-263q0 -95 53 -121z" />
    <glyph glyph-name="bar" unicode="|" 
d="M-1 667h146v-834h-146v834zM19 647v-794h106v794h-106z" />
    <glyph glyph-name="braceright" unicode="}" horiz-adv-x="352" 
d="M177 -304q65 32 65 139v263q0 38 9 57q12 23 47 33v115q-33 10 -44.5 29t-11.5 56v269q0 63 -19 94q-23 37 -78 42q-31 3 -81 3q-29 0 -63 -1v-132q60 -1 76 -12q21 -15 21 -68v-220q0 -46 10 -69q11 -28 48 -51q-36 -24 -48 -52q-10 -24 -10 -70v-223q0 -55 -22 -70
q-15 -10 -75 -12v-125q39 -1 70 -1q93 0 106 6zM169 -286q-10 -4 -98 -4h-50v87q57 3 77 23t20 78v223q0 53 16 76q11 16 60 46q-49 30 -60 45q-16 22 -16 75v220q0 56 -20 76.5t-77 22.5v94h43q93 0 121 -18q36 -24 36 -107l1 -263q0 -78 56 -99v-86q-56 -21 -56 -105v-263
q0 -95 -53 -121z" />
    <glyph glyph-name="asciitilde" unicode="~" horiz-adv-x="395" 
d="M282 714q13 -3 28 3l107 73q6 4 6 14q0 11 -6.5 21t-14.5 8l-116 -25q-76 32 -74 32q-12 5 -28 -2l-107 -70q-6 -4 -6 -13q0 -10 7 -20t15 -8l109 21q20 -8 40 -17q39 -17 40 -17zM288 783q10 -4 19 4l83 19l3 -8l-86 -55q-19 -9 -29 -3q-18 7 -57 25q-17 8 -30 5
l-83 -20l-4 10l85 53q12 8 27 1q36 -15 72 -31z" />
    <glyph glyph-name="Adieresis" unicode="&#xc4;" horiz-adv-x="768" 
d="M705 36q0 -46 -66 -46q-4 0 -44.5 3t-44.5 3q-3 0 -17.5 -3t-17.5 -3q-4 0 -4 3v0q0 3 -4 3t-5.5 -3t-5.5 -3q-15 0 -31.5 15.5t-16.5 29.5q0 13 12.5 29.5t31.5 23.5q0 74 -46 83q-24 5 -65 6q-30 1 -67 0q-43 -2 -34 -2q-39 0 -55 -9q-24 -14 -24 -54q0 -17 15.5 -31
t15.5 -37q0 -48 -51 -48q-4 0 -25 4.5t-25 4.5q-3 0 -30.5 -3t-31.5 -3q-18 0 -33 11.5t-15 28.5q0 28 32 50q40 28 64 75q16 30 34 90q20 65 32 91q40 93 80 187q72 154 111 154q34 0 70 -79l30 -80q40 -81 57 -124q0 -2 26 -80q12 -26 35 -77q14 -42 28 -83q21 -53 58 -73
q11 -5 19 -24.5t8 -29.5zM677 34q1 20 -27 39q-35 24 -43 43q-38 83 -93 228q-49 129 -98 257q-11 29 -40 57q-33 -16 -87 -139l-78 -184q-21 -41 -31 -77q-14 -53 -52 -136q-3 -8 -41 -39t-38 -41q0 -15 22 -15q4 0 27.5 4.5t26.5 4.5q4 0 24 -4.5t24 -4.5q28 0 28 18
q0 -1 -15.5 26t-15.5 44q0 32 17 59q21 32 56 32h191q35 0 63 -39q26 -35 26 -66q0 -24 -11 -36q-7 -9 -33 -23v-12q11 -9 22 -9q3 0 21.5 3t21.5 3q4 0 43.5 -3t43.5 -3q3 0 24 5.5t22 7.5zM445 308q0 -64 -77 -64h-78q-29 0 -40 10t-11 36q0 7 30 83.5t44.5 104.5t36.5 28
q12 0 17 -4t15.5 -25t36.5 -92t26 -77zM414 305q0 6 -27 86q-28 85 -36 85q-10 0 -41 -70q-32 -73 -40 -128q15 -10 20 -10t20 3t19 3t20.5 -3t19.5 -3q45 0 45 37zM303 821q22 0 37 -12t15 -33q0 -28 -28.5 -49.5t-57.5 -21.5q-20 0 -36 12.5t-16 32.5q0 28 30 50
q27 21 56 21zM302 797q-17 0 -39 -15t-22 -32q0 -21 28 -21q19 0 40.5 14.5t21.5 32.5q0 21 -29 21zM480 821q21 0 36 -12t15 -33q0 -28 -28 -49.5t-58 -21.5q-20 0 -35.5 12.5t-15.5 32.5q0 28 28.5 49.5t57.5 21.5zM478 797q-17 0 -38.5 -15t-21.5 -32q0 -21 27 -21
q19 0 40.5 14.5t21.5 32.5q0 21 -29 21z" />
    <glyph glyph-name="Aring" unicode="&#xc5;" horiz-adv-x="746" 
d="M684 36q0 -46 -67 -46q-3 0 -43.5 3t-44.5 3q-3 0 -17.5 -3t-17.5 -3q-4 0 -4 3v0q0 3 -4 3t-5.5 -3t-5.5 -3q-15 0 -31.5 15.5t-16.5 29.5q0 13 12.5 29.5t31.5 23.5q0 74 -46 83q-24 5 -66 6q-29 1 -66 0q-43 -2 -35 -2q-38 0 -54 -9q-25 -14 -25 -54q0 -17 15.5 -31
t15.5 -37q0 -48 -51 -48q-3 0 -24 4.5t-25 4.5q-3 0 -30.5 -3t-31.5 -3q-18 0 -33 11.5t-15 28.5q0 28 32 50q39 28 64 75q16 30 34 90q20 65 32 91q40 93 79 187q73 154 112 154q34 0 70 -79q15 -40 29 -80q41 -81 57 -124q1 -2 27 -80q12 -26 35 -77q14 -42 28 -83
q21 -53 58 -73q11 -5 19 -24.5t8 -29.5zM656 34q1 20 -27 39q-35 24 -43 43q-38 83 -93 228q-49 129 -98 257q-11 29 -40 57q-33 -16 -87 -139l-78 -184q-22 -41 -31 -77q-15 -53 -52 -136q-3 -8 -41 -39t-38 -41q0 -15 22 -15q4 0 27 4.5t27 4.5t24 -4.5t24 -4.5
q27 0 27 18q0 -1 -15 26t-15 44q0 32 17 59q21 32 56 32h191q35 0 63 -39q25 -35 25 -66q0 -24 -8.5 -34.5t-34.5 -24.5v-12q11 -9 22 -9q3 0 21.5 3t21.5 3q4 0 43.5 -3t43.5 -3q3 0 23.5 5.5t22.5 7.5zM424 308q0 -64 -77 -64h-78q-29 0 -40.5 10t-11.5 36q0 7 30 83.5
t44.5 104.5t37.5 28q12 0 16.5 -4t15.5 -25t37 -92t26 -77zM393 305q0 6 -27 86q-28 85 -36 85q-10 0 -41 -70q-32 -73 -41 -128q16 -10 21 -10t20 3t19 3q3 0 20 -3t20 -3q45 0 45 37zM355 871q24 0 53 -14q38 -18 38 -59q0 -33 -30 -53t-63 -20q-32 0 -62 20t-30 53
q0 41 38 59q28 14 56 14zM352 847q-19 0 -43 -11.5t-24 -37.5q0 -20 18 -32q26 -17 50 -17q25 0 50 17q19 12 19 32q0 26 -14.5 37.5t-55.5 11.5zM351 823q25 0 25 -25q0 -24 -25 -24t-25 24q0 25 25 25z" />
    <glyph glyph-name="Ccedilla" unicode="&#xc7;" horiz-adv-x="585" 
d="M314 -18l-26 2l6 -14q8 -20 8 -34q0 -33 -38 -43q-11 -3 -11 -9q0 -10 21 -16q15 -4 28 -4q31 0 52 14q9 7 9 16q0 15 -16 39zM548 175q0 -3 -13 -42q-14 -42 -17 -56q-7 -29 -12 -41q-12 -27 -33 -36q-21 1 -59 -2q-10 -3 -24 -11q-8 -5 -35 -6l20 -29q22 -31 22 -58
q0 -32 -34 -49q-27 -14 -61 -14q-30 0 -53 11q-30 15 -30 43q0 31 37 41q13 3 13 10q0 4 -7 22l-10 29q-20 1 -44 12q-39 18 -46 20q-77 27 -124 133q-38 84 -38 159q0 112 60 223q81 149 223 149q24 0 51 -12.5l27 -12.5q3 0 18.5 4.5t19.5 4.5q-7 0 27 -4
q100 -141 100 -163q0 -46 -39 -46q-11 0 -45 30q-47 44 -65 57q-43 30 -77 30q-80 0 -121 -91q-27 -64 -27 -136q0 -82 46 -169q54 -102 128 -102q46 0 85 39q14 15 55 73q28 40 46 40q17 0 26.5 -15.5t9.5 -34.5zM517 174q0 6 -7 10q-46 -75 -88.5 -108.5t-95.5 -33.5
q-75 0 -144 102q-62 94 -58 160v74q0 82 44 148q51 76 132 76q41 0 85 -29q34 -22 96 -82h11v17q0 3 -42.5 65.5t-53.5 62.5q-4 0 -15.5 -4.5t-15.5 -4.5t-39 11t-38 11q-128 0 -203 -130q-57 -100 -57 -204q0 -150 94 -231q87 -76 235 -76q7 0 31 12.5t53 12.5
q4 0 6.5 -1.5t5.5 -1.5q13 0 39 68q25 64 25 76z" />
    <glyph glyph-name="Eacute" unicode="&#xc9;" horiz-adv-x="596" 
d="M548 133q0 -27 -65 -91.5t-95 -64.5q-154 25 -176 25q-3 0 -21 -4.5t-22 -4.5q-45 0 -64 -3.5t-29 -3.5q-76 0 -76 50q0 17 16 32q23 21 33 41q16 35 16 99q0 -1 -4 49.5t-3 104.5q0 12 1 47q1 31 1 46q0 7 1 31q2 21 1 34q-1 19 -7 31q-9 18 -33 37q-16 14 -16 38
q0 26 26 40q21 11 50 11q3 0 73.5 -9.5t75.5 -9.5q3 0 62 9.5t63 9.5q30 0 43 -14q16 -18 50 -66q40 -55 40 -67q0 -16 -11 -29t-23 -13q-7 0 -77 43t-123 43q-54 0 -54 -133q0 -68 25 -68q23 0 31 31t14 61q10 32 35 32q22 0 39 -28q14 -24 14 -40q0 -4 -3 -64t-3 -64v-81
q0 -17 -16 -37t-32 -20q-29 0 -39 31q-6 29 -12.5 59.5t-26.5 30.5q-21 0 -26 -46v-50q0 -60 13 -76q16 -20 77 -20q45 0 97 22q26 12 77 42q37 22 49 22q15 0 24.5 -14t9.5 -31zM519 141h-19q-2 0 -18 -13q-21 -17 -47 -30q-39 -20 -93 -33q-16 -4 -54 -4q-82 0 -103 42
q-12 24 -12 112q0 47 3 57q9 43 50 43q28 0 43 -26q7 -12 18 -52q10 -34 21 -43q14 14 14 44v134q0 4 3 23t3 23q0 18 -13 42h-11q-9 -34 -19 -69q-16 -49 -56 -49q-59 0 -59 85q0 176 90 176q49 0 97 -21q32 -15 64 -39l28 -21q5 0 9 4q-11 31 -93 120q-3 0 -67.5 -6.5
t-67.5 -6.5q-4 0 -73.5 6.5t-72.5 6.5q-50 0 -50 -24q15 -18 24 -31q25 -36 32 -65l-3 -266q6 -32 6 -51q0 -67 -17 -109q-4 -11 -26 -35.5t-22 -26.5q0 -9 10 -16.5t24 -7.5q4 0 41 6.5t41 6.5h13q9 1 12 1h42q72 0 176 -17q22 0 77.5 58t54.5 72zM312 835q3 2 5 2
q11 0 24 -27l20 -46q8 -14 -8 -17l-187 -39q-8 -2 -17 10.5t-9 24.5q0 9 6 12zM312 807l-146 -65l6 -14l160 40z" />
    <glyph glyph-name="Ntilde" unicode="&#xd1;" horiz-adv-x="601" 
d="M525 648q0 -12 -11.5 -25t-12.5 -22q-5 -23 -6 -63q0 -28 1 -63q1 -40 1 -33v-91q0 -186 -11 -328q-2 -27 -33 -27q-34 0 -58 32q-18 24 -47 80q-35 67 -48.5 88t-164.5 260q-13 1 -13 -14v-313q0 -4 15.5 -42t15.5 -42q0 -42 -53 -42q-1 0 -26.5 -1.5t-29.5 -1.5
q-16 0 -30 15.5t-14 29.5q0 11 12 22.5t15 24.5q7 32 7 156v240q0 60 -7 81q-1 2 -15 21q-12 15 -12 31q0 60 139 60q42 0 71 -44q6 -9 28 -57q9 -21 56 -97q22 -37 43 -73q26 -43 52 -73q18 7 17 33q0 -9 1 120q1 89 -5 114q-1 3 -11 15t-10 26q0 42 78 42q66 0 66 -39z
M494 645q0 3 -8 11q-20 -1 -41 -1q-25 0 -33 -10q10 -15 21 -41q4 -24 4 -138v-105q0 -16 -11 -33q-13 -22 -34 -22q-29 0 -107 135q-8 13 -99 183q-4 8 -22.5 18t-27.5 10q-111 0 -111 -29q0 -4 12.5 -21t14.5 -23q10 -32 10 -103v-225q0 -3 -3 -34t-3 -35v-90
q0 -4 -14 -24.5t-14 -24.5q0 -15 14 -15q4 0 28.5 1.5t27.5 1.5q27 9 27 14q0 3 -13 30.5t-14 35.5q-7 44 -8 74q-2 21 -1 40q2 26 2 29q0 9 3.5 34.5t3.5 65.5q0 35 -2 85q-1 17 7.5 32.5t24.5 15.5q26 0 40 -24q23 -44 159 -253q20 -31 49 -87t44 -78q6 -9 32 -17
q6 60 9 186q2 121 4 143l4 172q-2 14 -2 28q0 35 13.5 63t13.5 25zM282 714q13 -3 28 3l107 73q6 4 6 14q0 11 -6.5 21t-14.5 8l-116 -25q-76 32 -74 32q-12 5 -28 -2l-107 -70q-6 -4 -6 -13q0 -10 7 -20t15 -8l109 21q20 -8 40 -17q39 -17 40 -17zM288 783q10 -4 19 4
l83 19l3 -8l-86 -55q-19 -9 -29 -3q-18 7 -57 25q-17 8 -30 5l-83 -20l-4 10l85 53q12 8 27 1q36 -15 72 -31z" />
    <glyph glyph-name="Odieresis" unicode="&#xd6;" horiz-adv-x="686" 
d="M619 326q0 -129 -89 -235q-94 -113 -225 -113q-120 0 -217 125q-88 115 -88 223q0 128 77 235q88 123 224 123q26 0 73 -12q43 -12 58 -20q21 -19 57 -49q69 -48 100 -139q3 -8 15 -53q15 -57 15 -85zM587 334q0 112 -84 210q-90 105 -209 105q-118 0 -197 -108
q-72 -98 -72 -217q0 -96 85 -202q91 -113 193 -113q125 0 209 107q75 97 75 218zM500 285q0 -64 -28 -122q-40 -85 -119 -85q-97 0 -173 118q-64 100 -64 177q0 64 24 122q37 86 111 86q100 0 178 -107q71 -97 71 -189zM469 282q0 82 -60 170q-67 101 -156 101
q-58 0 -89 -81q-20 -53 -20 -99q0 -65 59 -158q70 -109 150 -109q61 0 93 76q23 51 23 100zM222 821q21 0 36.5 -12t15.5 -33q0 -28 -28.5 -49.5t-57.5 -21.5q-21 0 -36.5 12.5t-15.5 32.5q0 28 30 50q27 21 56 21zM221 797q-17 0 -39 -15t-22 -32q0 -21 27 -21
q19 0 41 14.5t22 32.5q0 21 -29 21zM398 821q22 0 37 -12t15 -33q0 -28 -28.5 -49.5t-57.5 -21.5q-20 0 -35.5 12.5t-15.5 32.5q0 28 28.5 49.5t56.5 21.5zM397 797q-17 0 -38.5 -15t-21.5 -32q0 -21 27 -21q19 0 40.5 14.5t21.5 32.5q0 21 -29 21z" />
    <glyph glyph-name="Udieresis" unicode="&#xdc;" horiz-adv-x="672" 
d="M649 630q0 -16 -31 -42.5t-31 -59.5v-153q0 -131 -39 -228q-17 -42 -72 -100q-71 -76 -128 -68q1 0 -16 0q-118 0 -195 94q-73 89 -88 237q-5 87 -22 239q-4 21 -17 42q-10 18 -10 34q0 22 16.5 36t36.5 14q3 0 30.5 -6.5t31.5 -6.5t28.5 3t28.5 3q67 0 67 -51
q0 -13 -15 -33q-21 -28 -29 -45q-15 -35 -15 -85q0 -99 34 -210q47 -156 132 -156q94 0 130 167q18 83 18 192v74q0 15 -20.5 56.5t-20.5 59.5q0 30 23 33q32 5 123 5q16 0 33 -14.5t17 -30.5zM609 620q0 3 -17 20h-25h-70q-9 0 -7 -3q3 -8 -1 -14q5 -22 22 -58
q14 -27 14 -56q0 -170 -18 -259q-39 -193 -156 -193q-48 0 -60 6q-66 39 -108 178q-34 110 -34 196q0 43 13 108q4 17 25 36t21 35q0 28 -26 28q-4 0 -33 -5t-33 -5q-3 0 -29 6.5t-30 6.5q-27 0 -29 -17q11 -32 27 -88q0 -29 2 -80q0 -13 9 -58q8 -40 6 -57q-3 -42 21 -118
q29 -88 76 -145q58 -71 129 -71h40q118 0 177 141q41 99 41 208v116q0 77 27 117q4 5 15 13.5t11 11.5zM242 821q21 0 36.5 -12t15.5 -33q0 -28 -28.5 -49.5t-57.5 -21.5q-21 0 -36.5 12.5t-15.5 32.5q0 28 30 50q27 21 56 21zM241 797q-17 0 -39 -15t-22 -32q0 -21 27 -21
q19 0 41 14.5t22 32.5q0 21 -29 21zM418 821q22 0 37 -12t15 -33q0 -28 -28.5 -49.5t-57.5 -21.5q-20 0 -35.5 12.5t-15.5 32.5q0 28 28.5 49.5t56.5 21.5zM417 797q-17 0 -38.5 -15t-21.5 -32q0 -21 27 -21q19 0 40.5 14.5t21.5 32.5q0 21 -29 21z" />
    <glyph glyph-name="aacute" unicode="&#xe1;" horiz-adv-x="454" 
d="M375 42q0 -25 -29 -40q-21 -11 -39 -11q-26 0 -43 4q-8 2 -19.5 10t-23.5 8q-3 0 -40.5 -9.5t-41.5 -9.5q-38 0 -45 4q-94 53 -94 136q0 32 14 67q15 39 39 55q13 9 48 19q29 8 58 15q7 1 18.5 6.5t11.5 24.5q0 8 -6 24q-8 21 -17 21q-1 0 -30 -29.5t-54 -29.5
q-18 0 -31 20q-11 17 -11 33q0 45 51 72q38 21 76 21q31 0 58 -4q11 -2 34.5 -20.5t33.5 -32.5q36 -49 36 -121q0 -17 -3 -31.5t-3 -62.5q0 -57 6 -83q3 -13 24.5 -30t21.5 -26zM347 39q-40 39 -43 53q-15 91 -3 164q2 10 2 21q0 63 -29 101q-38 50 -93 50q-32 0 -70 -17
q-46 -22 -46 -53l10 -23h10q22 7 31 19q21 27 22 28q11 12 23 12q27 0 41 -27q12 -22 12 -51q0 -14 -1 -19q-4 -21 -45 -34q-6 -4 -15 -8q-66 -6 -81 -21q-19 -18 -33 -49t-14 -54q0 -22 19 -58q1 -2 27 -26q30 -28 59 -28q11 0 36 9.5t49 9.5q25 0 41 -9.5t40 -9.5
q34 0 51 20zM229 154q0 -95 -60 -95q-34 0 -54 32q-16 26 -16 60q0 33 18 59q22 32 58 32q28 0 43 -37q11 -27 11 -51zM204 160q0 15 -7 32q-9 22 -22 22q-24 0 -36 -20.5t-12 -45.5q0 -61 39 -61q38 0 38 73zM232 605q3 2 5 2q11 0 24 -27l20 -46q8 -14 -8 -17l-187 -39
q-8 -2 -17 10.5t-9 24.5q0 9 6 12zM232 577l-146 -65l6 -14l160 40z" />
    <glyph glyph-name="agrave" unicode="&#xe0;" horiz-adv-x="446" 
d="M375 42q0 -25 -29 -40q-21 -11 -39 -11q-26 0 -43 4q-8 2 -19.5 10t-23.5 8q-3 0 -40.5 -9.5t-41.5 -9.5q-38 0 -45 4q-94 53 -94 136q0 32 14 67q15 39 39 55q13 9 48 19q29 8 58 15q7 1 18.5 6.5t11.5 24.5q0 8 -6 24q-8 21 -17 21q-1 0 -30 -29.5t-54 -29.5
q-18 0 -31 20q-11 17 -11 33q0 45 51 72q38 21 76 21q31 0 58 -4q11 -2 34.5 -20.5t33.5 -32.5q36 -49 36 -121q0 -17 -3 -31.5t-3 -62.5q0 -57 6 -83q3 -13 24.5 -30t21.5 -26zM347 39q-40 39 -43 53q-15 91 -3 164q2 10 2 21q0 63 -29 101q-38 50 -93 50q-32 0 -70 -17
q-46 -22 -46 -53l10 -23h10q22 7 31 19q21 27 22 28q11 12 23 12q27 0 41 -27q12 -22 12 -51q0 -14 -1 -19q-4 -21 -45 -34q-6 -4 -15 -8q-66 -6 -81 -21q-19 -18 -33 -49t-14 -54q0 -22 19 -58q1 -2 27 -26q30 -28 59 -28q11 0 36 9.5t49 9.5q25 0 41 -9.5t40 -9.5
q34 0 51 20zM229 154q0 -95 -60 -95q-34 0 -54 32q-16 26 -16 60q0 33 18 59q22 32 58 32q28 0 43 -37q11 -27 11 -51zM204 160q0 15 -7 32q-9 22 -22 22q-24 0 -36 -20.5t-12 -45.5q0 -61 39 -61q38 0 38 73zM111 605q-2 2 -5 2q-11 0 -24 -27l-20 -46q-7 -14 8 -17
l187 -39q9 -2 18 10.5t9 24.5q0 9 -7 12zM111 577l146 -65l-6 -14l-160 40z" />
    <glyph glyph-name="acircumflex" unicode="&#xe2;" horiz-adv-x="449" 
d="M375 42q0 -25 -29 -40q-21 -11 -39 -11q-26 0 -43 4q-8 2 -19.5 10t-23.5 8q-3 0 -40.5 -9.5t-41.5 -9.5q-38 0 -45 4q-94 53 -94 136q0 32 14 67q15 39 39 55q13 9 48 19q29 8 58 15q7 1 18.5 6.5t11.5 24.5q0 8 -6 24q-8 21 -17 21q-1 0 -30 -29.5t-54 -29.5
q-18 0 -31 20q-11 17 -11 33q0 45 51 72q38 21 76 21q31 0 58 -4q11 -2 34.5 -20.5t33.5 -32.5q36 -49 36 -121q0 -17 -3 -31.5t-3 -62.5q0 -57 6 -83q3 -13 24.5 -30t21.5 -26zM347 39q-40 39 -43 53q-15 91 -3 164q2 10 2 21q0 63 -29 101q-38 50 -93 50q-32 0 -70 -17
q-46 -22 -46 -53l10 -23h10q22 7 31 19q21 27 22 28q11 12 23 12q27 0 41 -27q12 -22 12 -51q0 -14 -1 -19q-4 -21 -45 -34q-6 -4 -15 -8q-66 -6 -81 -21q-19 -18 -33 -49t-14 -54q0 -22 19 -58q1 -2 27 -26q30 -28 59 -28q11 0 36 9.5t49 9.5q25 0 41 -9.5t40 -9.5
q34 0 51 20zM229 154q0 -95 -60 -95q-34 0 -54 32q-16 26 -16 60q0 33 18 59q22 32 58 32q28 0 43 -37q11 -27 11 -51zM204 160q0 15 -7 32q-9 22 -22 22q-24 0 -36 -20.5t-12 -45.5q0 -61 39 -61q38 0 38 73zM170 606q7 4 13 0l122 -78q6 -4 6 -14t-6 -19t-14 -7l-116 24
l-113 -29q-8 -2 -16.5 8t-8.5 21q0 7 5 10zM71 511l100 25q4 1 6 1l98 -20l-98 64z" />
    <glyph glyph-name="adieresis" unicode="&#xe4;" horiz-adv-x="454" 
d="M375 42q0 -25 -29 -40q-21 -11 -39 -11q-26 0 -43 4q-8 2 -19.5 10t-23.5 8q-3 0 -40.5 -9.5t-41.5 -9.5q-38 0 -45 4q-94 53 -94 136q0 32 14 67q15 39 39 55q13 9 48 19q29 8 58 15q7 1 18.5 6.5t11.5 24.5q0 8 -6 24q-8 21 -17 21q-1 0 -30 -29.5t-54 -29.5
q-18 0 -31 20q-11 17 -11 33q0 45 51 72q38 21 76 21q31 0 58 -4q11 -2 34.5 -20.5t33.5 -32.5q36 -49 36 -121q0 -17 -3 -31.5t-3 -62.5q0 -57 6 -83q3 -13 24.5 -30t21.5 -26zM347 39q-40 39 -43 53q-15 91 -3 164q2 10 2 21q0 63 -29 101q-38 50 -93 50q-32 0 -70 -17
q-46 -22 -46 -53l10 -23h10q22 7 31 19q21 27 22 28q11 12 23 12q27 0 41 -27q12 -22 12 -51q0 -14 -1 -19q-4 -21 -45 -34q-6 -4 -15 -8q-66 -6 -81 -21q-19 -18 -33 -49t-14 -54q0 -22 19 -58q1 -2 27 -26q30 -28 59 -28q11 0 36 9.5t49 9.5q25 0 41 -9.5t40 -9.5
q34 0 51 20zM229 154q0 -95 -60 -95q-34 0 -54 32q-16 26 -16 60q0 33 18 59q22 32 58 32q28 0 43 -37q11 -27 11 -51zM204 160q0 15 -7 32q-9 22 -22 22q-24 0 -36 -20.5t-12 -45.5q0 -61 39 -61q38 0 38 73zM113 592q44 0 44 -38q0 -24 -24 -42t-49 -18q-18 0 -31 10.5
t-13 27.5q0 24 24 42t49 18zM112 572q-15 0 -33.5 -13t-18.5 -27q0 -18 23 -18q16 0 34.5 12.5t18.5 27.5q0 18 -24 18zM263 592q44 0 44 -38q0 -24 -24.5 -42t-49.5 -18q-17 0 -30 10.5t-13 27.5q0 24 24 42t49 18zM262 572q-15 0 -33.5 -13t-18.5 -27q0 -18 23 -18
q16 0 34.5 12.5t18.5 27.5q0 18 -24 18z" />
    <glyph glyph-name="atilde" unicode="&#xe3;" horiz-adv-x="454" 
d="M375 42q0 -25 -29 -40q-21 -11 -39 -11q-26 0 -43 4q-8 2 -19.5 10t-23.5 8q-3 0 -40.5 -9.5t-41.5 -9.5q-38 0 -45 4q-94 53 -94 136q0 32 14 67q15 39 39 55q13 9 48 19q29 8 58 15q7 1 18.5 6.5t11.5 24.5q0 8 -6 24q-8 21 -17 21q-1 0 -30 -29.5t-54 -29.5
q-18 0 -31 20q-11 17 -11 33q0 45 51 72q38 21 76 21q31 0 58 -4q11 -2 34.5 -20.5t33.5 -32.5q36 -49 36 -121q0 -17 -3 -31.5t-3 -62.5q0 -57 6 -83q3 -13 24.5 -30t21.5 -26zM347 39q-40 39 -43 53q-15 91 -3 164q2 10 2 21q0 63 -29 101q-38 50 -93 50q-32 0 -70 -17
q-46 -22 -46 -53l10 -23h10q22 7 31 19q21 27 22 28q11 12 23 12q27 0 41 -27q12 -22 12 -51q0 -14 -1 -19q-4 -21 -45 -34q-6 -4 -15 -8q-66 -6 -81 -21q-19 -18 -33 -49t-14 -54q0 -22 19 -58q1 -2 27 -26q30 -28 59 -28q11 0 36 9.5t49 9.5q25 0 41 -9.5t40 -9.5
q34 0 51 20zM229 154q0 -95 -60 -95q-34 0 -54 32q-16 26 -16 60q0 33 18 59q22 32 58 32q28 0 43 -37q11 -27 11 -51zM204 160q0 15 -7 32q-9 22 -22 22q-24 0 -36 -20.5t-12 -45.5q0 -61 39 -61q38 0 38 73zM202 493q11 -3 24 2l90 63q5 3 5 12t-5.5 17.5t-11.5 6.5
l-99 -21q-64 27 -63 27q-10 4 -24 -1l-91 -60q-5 -4 -5 -11q0 -9 6 -17.5t13 -6.5l93 18q74 -28 68 -29zM207 552q8 -4 16 3l71 16l2 -7l-73 -46q-16 -8 -25 -3q-15 6 -48 21q-14 7 -26 5l-70 -17l-4 8l72 45q11 7 24 1q30 -13 61 -26z" />
    <glyph glyph-name="aring" unicode="&#xe5;" horiz-adv-x="450" 
d="M375 42q0 -25 -29 -40q-21 -11 -39 -11q-26 0 -43 4q-8 2 -19.5 10t-23.5 8q-3 0 -40.5 -9.5t-41.5 -9.5q-38 0 -45 4q-94 53 -94 136q0 32 14 67q15 39 39 55q13 9 48 19q29 8 58 15q7 1 18.5 6.5t11.5 24.5q0 8 -6 24q-8 21 -17 21q-1 0 -30 -29.5t-54 -29.5
q-18 0 -31 20q-11 17 -11 33q0 45 51 72q38 21 76 21q31 0 58 -4q11 -2 34.5 -20.5t33.5 -32.5q36 -49 36 -121q0 -17 -3 -31.5t-3 -62.5q0 -57 6 -83q3 -13 24.5 -30t21.5 -26zM347 39q-40 39 -43 53q-15 91 -3 164q2 10 2 21q0 63 -29 101q-38 50 -93 50q-32 0 -70 -17
q-46 -22 -46 -53l10 -23h10q22 7 31 19q21 27 22 28q11 12 23 12q27 0 41 -27q12 -22 12 -51q0 -14 -1 -19q-4 -21 -45 -34q-6 -4 -15 -8q-66 -6 -81 -21q-19 -18 -33 -49t-14 -54q0 -22 19 -58q1 -2 27 -26q30 -28 59 -28q11 0 36 9.5t49 9.5q25 0 41 -9.5t40 -9.5
q34 0 51 20zM229 154q0 -95 -60 -95q-34 0 -54 32q-16 26 -16 60q0 33 18 59q22 32 58 32q28 0 43 -37q11 -27 11 -51zM204 160q0 15 -7 32q-9 22 -22 22q-24 0 -36 -20.5t-12 -45.5q0 -61 39 -61q38 0 38 73zM164 620q21 0 46 -12q32 -15 32 -50q0 -28 -25.5 -45t-53.5 -17
q-27 0 -52.5 17t-25.5 45q0 34 32 50q24 12 47 12zM162 599q-16 0 -36.5 -9.5t-20.5 -31.5q0 -17 16 -27q21 -15 42 -15t43 15q15 10 15 27q0 26 -17 35q-12 6 -42 6zM161 580q21 0 21 -22q0 -21 -21 -21t-21 21q0 22 21 22z" />
    <glyph glyph-name="ccedilla" unicode="&#xe7;" horiz-adv-x="434" 
d="M187 -15l7 -15q8 -20 8 -34q0 -33 -38 -43q-11 -3 -11 -9q0 -10 21 -16q15 -4 28 -4q31 0 52 14q9 7 9 16q0 15 -16 39l-35 53q-6 -1 -9 -1h-16zM297 -106q0 -32 -34 -49q-27 -14 -61 -14q-30 0 -53 11q-30 15 -30 43q0 31 37 41q13 3 13 10q0 4 -7 22l-11 31
q-13 2 -20 6q-131 67 -131 227q0 65 46 140q54 88 124 88q4 0 27 -6.5t26 -6.5q4 0 22.5 9.5t22.5 9.5q17 0 32 -17q23 -26 49 -67q13 -22 13 -42q0 -32 -24 -32q-7 0 -56 31t-73 31q-23 0 -55 -26q-39 -31 -39 -109q0 -66 64 -131q13 -13 39 -13q31 0 71.5 45t49.5 45
q30 0 30 -43q0 -41 -40 -84t-79 -52l-3 -1l28 -39q22 -31 22 -58zM344 128q0 7 -4 11q-8 -4 -24.5 -25t-31.5 -30q-48 -31 -66 -31q-8 0 -26 6q-21 6 -28 13q-74 76 -74 156q0 53 16 86q34 71 102 71q33 0 102 -45q2 -1 9.5 -7.5t10.5 -6.5q7 0 7 4v10q-6 12 -28 44
q-29 41 -38 41q-4 0 -25 -8t-25 -8q-3 0 -25 6.5t-26 6.5q-53 0 -101 -72q-44 -67 -44 -128q0 -77 30 -122q4 -9 11 -22q41 -40 63 -52q26 -13 68 -13q80 0 129 75q18 28 18 40z" />
    <glyph glyph-name="eacute" unicode="&#xe9;" horiz-adv-x="435" 
d="M359 118q0 -14 -7 -25.5t-14 -23.5q-27 -50 -69 -67q-27 -11 -78 -11q-33 0 -41 1q-50 5 -102 80q-50 72 -48 126v73q0 31 19 74q15 36 56.5 70t76.5 41q14 3 64 3q40 0 79 -40q34 -35 43 -68q2 -6 14 -35q7 -18 7 -43q0 -39 -27 -51q-17 -8 -61 -8q-3 0 -25 1.5t-26 1.5
q-19 0 -54 -7q-16 -3 -26 -17q-4 -4 -4 -13q0 -36 31 -64.5t62 -28.5q26 0 55 34.5t46 34.5q29 0 29 -38zM325 131q-54 -72 -91 -72q-39 0 -52 10q-47 36 -61 64q-9 19 -9 55q0 52 107 52q4 0 36 1t36 1q22 0 31.5 8t9.5 31q0 32 -15 60q-8 16 -37 55q-15 22 -46 31
q-16 4 -60 4q-56 0 -102.5 -56t-46.5 -117q0 -40 4 -76q4 -44 48 -104q51 -70 102 -68q3 0 18 1.5t18 1.5q14 0 46.5 16t37.5 28q3 6 20 27q14 18 14 28q0 4 -1 8t-7 11zM273 313q0 -44 -54 -44q-4 0 -31 1.5t-31 1.5q-52 0 -52 46q0 27 29.5 51.5t54.5 24.5q37 0 62 -28
q22 -25 22 -53zM248 316q0 15 -19.5 37t-34.5 22q-19 0 -40 -22t-21 -41q0 -4 11 -13q6 0 26 -1.5t24 -1.5l8 -1.5t15 -1.5q31 0 31 23zM232 605q3 2 5 2q11 0 24 -27l20 -46q8 -14 -8 -17l-187 -39q-8 -2 -17 10.5t-9 24.5q0 9 6 12zM232 577l-146 -65l6 -14l160 40z" />
    <glyph glyph-name="egrave" unicode="&#xe8;" horiz-adv-x="435" 
d="M359 118q0 -14 -7 -25.5t-14 -23.5q-27 -50 -69 -67q-27 -11 -78 -11q-33 0 -41 1q-50 5 -102 80q-50 72 -48 126v73q0 31 19 74q15 36 56.5 70t76.5 41q14 3 64 3q40 0 79 -40q34 -35 43 -68q2 -6 14 -35q7 -18 7 -43q0 -39 -27 -51q-17 -8 -61 -8q-3 0 -25 1.5t-26 1.5
q-19 0 -54 -7q-16 -3 -26 -17q-4 -4 -4 -13q0 -36 31 -64.5t62 -28.5q26 0 55 34.5t46 34.5q29 0 29 -38zM325 131q-54 -72 -91 -72q-39 0 -52 10q-47 36 -61 64q-9 19 -9 55q0 52 107 52q4 0 36 1t36 1q22 0 31.5 8t9.5 31q0 32 -15 60q-8 16 -37 55q-15 22 -46 31
q-16 4 -60 4q-56 0 -102.5 -56t-46.5 -117q0 -40 4 -76q4 -44 48 -104q51 -70 102 -68q3 0 18 1.5t18 1.5q14 0 46.5 16t37.5 28q3 6 20 27q14 18 14 28q0 4 -1 8t-7 11zM273 313q0 -44 -54 -44q-4 0 -31 1.5t-31 1.5q-52 0 -52 46q0 27 29.5 51.5t54.5 24.5q37 0 62 -28
q22 -25 22 -53zM248 316q0 15 -19.5 37t-34.5 22q-19 0 -40 -22t-21 -41q0 -4 11 -13q6 0 26 -1.5t24 -1.5l8 -1.5t15 -1.5q31 0 31 23zM124 605q-2 2 -4 2q-12 0 -25 -27l-20 -46q-7 -14 9 -17l187 -39q8 -2 17 10.5t9 24.5q0 9 -7 12zM125 577l145 -65l-5 -14l-160 40z
" />
    <glyph glyph-name="ecircumflex" unicode="&#xea;" horiz-adv-x="435" 
d="M359 118q0 -14 -7 -25.5t-14 -23.5q-27 -50 -69 -67q-27 -11 -78 -11q-33 0 -41 1q-50 5 -102 80q-50 72 -48 126v73q0 31 19 74q15 36 56.5 70t76.5 41q14 3 64 3q40 0 79 -40q34 -35 43 -68q2 -6 14 -35q7 -18 7 -43q0 -39 -27 -51q-17 -8 -61 -8q-3 0 -25 1.5t-26 1.5
q-19 0 -54 -7q-16 -3 -26 -17q-4 -4 -4 -13q0 -36 31 -64.5t62 -28.5q26 0 55 34.5t46 34.5q29 0 29 -38zM325 131q-54 -72 -91 -72q-39 0 -52 10q-47 36 -61 64q-9 19 -9 55q0 52 107 52q4 0 36 1t36 1q22 0 31.5 8t9.5 31q0 32 -15 60q-8 16 -37 55q-15 22 -46 31
q-16 4 -60 4q-56 0 -102.5 -56t-46.5 -117q0 -40 4 -76q4 -44 48 -104q51 -70 102 -68q3 0 18 1.5t18 1.5q14 0 46.5 16t37.5 28q3 6 20 27q14 18 14 28q0 4 -1 8t-7 11zM273 313q0 -44 -54 -44q-4 0 -31 1.5t-31 1.5q-52 0 -52 46q0 27 29.5 51.5t54.5 24.5q37 0 62 -28
q22 -25 22 -53zM248 316q0 15 -19.5 37t-34.5 22q-19 0 -40 -22t-21 -41q0 -4 11 -13q6 0 26 -1.5t24 -1.5l8 -1.5t15 -1.5q31 0 31 23zM180 606q7 4 13 0l122 -78q6 -4 6 -14t-6 -19t-14 -7l-116 24l-113 -29q-8 -2 -16.5 8t-8.5 21q0 7 5 10zM81 511l100 25q4 1 6 1
l98 -20l-98 64z" />
    <glyph glyph-name="edieresis" unicode="&#xeb;" horiz-adv-x="435" 
d="M359 118q0 -14 -7 -25.5t-14 -23.5q-27 -50 -69 -67q-27 -11 -78 -11q-33 0 -41 1q-50 5 -102 80q-50 72 -48 126v73q0 31 19 74q15 36 56.5 70t76.5 41q14 3 64 3q40 0 79 -40q34 -35 43 -68q2 -6 14 -35q7 -18 7 -43q0 -39 -27 -51q-17 -8 -61 -8q-3 0 -25 1.5t-26 1.5
q-19 0 -54 -7q-16 -3 -26 -17q-4 -4 -4 -13q0 -36 31 -64.5t62 -28.5q26 0 55 34.5t46 34.5q29 0 29 -38zM325 131q-54 -72 -91 -72q-39 0 -52 10q-47 36 -61 64q-9 19 -9 55q0 52 107 52q4 0 36 1t36 1q22 0 31.5 8t9.5 31q0 32 -15 60q-8 16 -37 55q-15 22 -46 31
q-16 4 -60 4q-56 0 -102.5 -56t-46.5 -117q0 -40 4 -76q4 -44 48 -104q51 -70 102 -68q3 0 18 1.5t18 1.5q14 0 46.5 16t37.5 28q3 6 20 27q14 18 14 28q0 4 -1 8t-7 11zM273 313q0 -44 -54 -44q-4 0 -31 1.5t-31 1.5q-52 0 -52 46q0 27 29.5 51.5t54.5 24.5q37 0 62 -28
q22 -25 22 -53zM248 316q0 15 -19.5 37t-34.5 22q-19 0 -40 -22t-21 -41q0 -4 11 -13q6 0 26 -1.5t24 -1.5l8 -1.5t15 -1.5q31 0 31 23zM113 592q44 0 44 -38q0 -24 -24 -42t-49 -18q-18 0 -31 10.5t-13 27.5q0 24 24 42t49 18zM112 572q-15 0 -33.5 -13t-18.5 -27
q0 -18 23 -18q16 0 34.5 12.5t18.5 27.5q0 18 -24 18zM263 592q44 0 44 -38q0 -24 -24.5 -42t-49.5 -18q-17 0 -30 10.5t-13 27.5q0 24 24 42t49 18zM262 572q-15 0 -33.5 -13t-18.5 -27q0 -18 23 -18q16 0 34.5 12.5t18.5 27.5q0 18 -24 18z" />
    <glyph glyph-name="iacute" unicode="&#xed;" horiz-adv-x="271" 
d="M187 45q0 -6 -8 -21t-16 -21q-11 -7 -27 -7q-4 0 -30.5 4t-30.5 4q-3 0 -15 -1.5t-17 -1.5q-50 0 -50 42q0 16 4 27q9 6 22 21q10 19 10 70l-1 87q0 4 3 24.5t3 24.5q-1 47 -21 79.5t-20 43.5q0 46 37 46q2 0 19 -4.5t23 -4.5q8 2 24 3q28 1 45 -10q10 -6 12 -18
q1 -7 2 -94l1 -95q0 -2 2.5 -15t2.5 -21q0 -18 -4 -53.5t-4 -36.5q1 -13 17.5 -38.5t16.5 -33.5zM157 46q-13 19 -27 52q-2 18 -2 51q1 23 2 52.5l1 29.5v122l1 15t1 26q0 39 -17 39h-75q-2 3 -11 6q-5 0 -10 -7.5t-5 -12.5q0 -11 7 -16q11 -9 13 -12q23 -32 23 -96
q0 -4 -3 -28t-3 -28l1 -123q0 -21 -13 -43q-10 -10 -26 -31q15 -17 28 -16q4 0 16 3t16 3q3 0 24 -4.5t24 -4.5q11 0 23 6.5t12 16.5zM132 615q3 2 5 2q11 0 24 -27l20 -46q8 -14 -8 -17l-187 -39q-8 -2 -17 10.5t-9 24.5q0 9 6 12zM132 587l-146 -65l6 -14l160 40z" />
    <glyph glyph-name="igrave" unicode="&#xec;" horiz-adv-x="272" 
d="M187 45q0 -6 -8 -21t-16 -21q-11 -7 -27 -7q-4 0 -30.5 4t-30.5 4q-3 0 -15 -1.5t-17 -1.5q-50 0 -50 42q0 16 4 27q9 6 22 21q10 19 10 70l-1 87q0 4 3 24.5t3 24.5q-1 47 -21 79.5t-20 43.5q0 46 37 46q2 0 19 -4.5t23 -4.5q8 2 24 3q28 1 45 -10q10 -6 12 -18
q1 -7 2 -94l1 -95q0 -2 2.5 -15t2.5 -21q0 -18 -4 -53.5t-4 -36.5q1 -13 17.5 -38.5t16.5 -33.5zM157 46q-13 19 -27 52q-2 18 -2 51q1 23 2 52.5l1 29.5v122l1 15t1 26q0 39 -17 39h-75q-2 3 -11 6q-5 0 -10 -7.5t-5 -12.5q0 -11 7 -16q11 -9 13 -12q23 -32 23 -96
q0 -4 -3 -28t-3 -28l1 -123q0 -21 -13 -43q-10 -10 -26 -31q15 -17 28 -16q4 0 16 3t16 3q3 0 24 -4.5t24 -4.5q11 0 23 6.5t12 16.5zM12 605q-2 2 -5 2q-11 0 -24 -27l-20 -46q-7 -14 8 -17l187 -39q8 -2 17.5 10.5t9.5 24.5q0 9 -7 12zM12 577l146 -65l-6 -14l-160 40z
" />
    <glyph glyph-name="icircumflex" unicode="&#xee;" horiz-adv-x="272" 
d="M187 45q0 -6 -8 -21t-16 -21q-11 -7 -27 -7q-4 0 -30.5 4t-30.5 4q-3 0 -15 -1.5t-17 -1.5q-50 0 -50 42q0 16 4 27q9 6 22 21q10 19 10 70l-1 87q0 4 3 24.5t3 24.5q-1 47 -21 79.5t-20 43.5q0 46 37 46q2 0 19 -4.5t23 -4.5q8 2 24 3q28 1 45 -10q10 -6 12 -18
q1 -7 2 -94l1 -95q0 -2 2.5 -15t2.5 -21q0 -18 -4 -53.5t-4 -36.5q1 -13 17.5 -38.5t16.5 -33.5zM157 46q-13 19 -27 52q-2 18 -2 51q1 23 2 52.5l1 29.5v122l1 15t1 26q0 39 -17 39h-75q-2 3 -11 6q-5 0 -10 -7.5t-5 -12.5q0 -11 7 -16q11 -9 13 -12q23 -32 23 -96
q0 -4 -3 -28t-3 -28l1 -123q0 -21 -13 -43q-10 -10 -26 -31q15 -17 28 -16q4 0 16 3t16 3q3 0 24 -4.5t24 -4.5q11 0 23 6.5t12 16.5zM70 606q7 5 13 0l102 -78q6 -4 6 -14q0 -11 -6 -19.5t-14 -6.5l-96 24l-93 -29q-8 -3 -16.5 7.5t-8.5 20.5q0 8 5 11zM-9 511l80 25
q4 1 6 1l78 -20l-78 64z" />
    <glyph glyph-name="idieresis" unicode="&#xef;" horiz-adv-x="274" 
d="M187 45q0 -6 -8 -21t-16 -21q-11 -7 -27 -7q-4 0 -30.5 4t-30.5 4q-3 0 -15 -1.5t-17 -1.5q-50 0 -50 42q0 16 4 27q9 6 22 21q10 19 10 70l-1 87q0 4 3 24.5t3 24.5q-1 47 -21 79.5t-20 43.5q0 46 37 46q2 0 19 -4.5t23 -4.5q8 2 24 3q28 1 45 -10q10 -6 12 -18
q1 -7 2 -94l1 -95q0 -2 2.5 -15t2.5 -21q0 -18 -4 -53.5t-4 -36.5q1 -13 17.5 -38.5t16.5 -33.5zM157 46q-13 19 -27 52q-2 18 -2 51q1 23 2 52.5l1 29.5v122l1 15t1 26q0 39 -17 39h-75q-2 3 -11 6q-5 0 -10 -7.5t-5 -12.5q0 -11 7 -16q11 -9 13 -12q23 -32 23 -96
q0 -4 -3 -28t-3 -28l1 -123q0 -21 -13 -43q-10 -10 -26 -31q15 -17 28 -16q4 0 16 3t16 3q3 0 24 -4.5t24 -4.5q11 0 23 6.5t12 16.5zM13 592q44 0 44 -38q0 -24 -24 -42t-49 -18q-18 0 -31 10.5t-13 27.5q0 24 24 42t49 18zM12 572q-15 0 -33.5 -13t-18.5 -27q0 -18 23 -18
q16 0 34.5 12.5t18.5 27.5q0 18 -24 18zM163 592q44 0 44 -38q0 -24 -24.5 -42t-49.5 -18q-17 0 -30 10.5t-13 27.5q0 24 24 42t49 18zM162 572q-15 0 -33.5 -13t-18.5 -27q0 -18 23 -18q16 0 34.5 12.5t18.5 27.5q0 18 -24 18z" />
    <glyph glyph-name="ntilde" unicode="&#xf1;" horiz-adv-x="483" 
d="M404 29q0 -29 -42 -29q-3 0 -29.5 2.5t-29.5 2.5q-4 0 -22.5 -1.5t-21.5 -1.5q-40 0 -40 22q0 3 13 26.5t16 32.5q7 28 6 88q0 79 -11 129q-3 14 -22 27.5t-33 13.5q-35 0 -34 -124l4 -144q12 -22 24 -49q0 -11 -8.5 -18.5t-16.5 -7.5q-4 0 -10 2.5t-9 2.5q-18 1 -55 0
q-19 -2 -39 -3q-9 0 -15 1q-29 19 -29 30q0 14 11 22q17 12 24 26q4 7 4 26q-1 24 0 28q4 32 1 55q-2 18 -5 36q-1 13 2.5 15t3.5 3q-7 4 -5 15q8 56 3 88q-1 10 -20 36.5t-19 34.5q0 34 40 34l18 -3q4 0 33.5 6.5t33.5 6.5q16 0 31 -16.5t22 -16.5q8 0 33.5 17t63.5 17
q43 0 68.5 -27t29.5 -68q1 -8 -1 -71q-3 -76 -3 -118q0 -62 5 -93q15 -24 30 -55zM377 35q-7 7 -19 32t-12 34l-1 113q3 11 5 30l-5 36q3 10 3 34q0 126 -65 126q-23 0 -60 -20t-51 -21q-11 0 -25.5 17t-24.5 17q-4 0 -28.5 -5t-27.5 -5q-9 1 -25 3q-13 0 -16 -11
q22 -30 28 -40q15 -25 15 -46q1 -143 -6 -226q0 -12 -1 -24q-1 -15 -10 -23t-24 -24l7 -7l14 1q28 3 104 3q-21 27 -22 43l-1 211q0 28 14 52q18 32 50 32q20 0 43.5 -18.5t27.5 -36.5q14 -58 15 -84v-62q0 -57 -2 -73q-6 -38 -31 -63l32 -4q11 4 24 4q11 0 30.5 -3t26.5 -3
q8 0 18 11zM222 503q11 -3 24 2l90 63q5 3 5 12t-5.5 17.5t-11.5 6.5l-99 -21q-64 27 -63 27q-10 4 -24 -1l-91 -60q-5 -4 -5 -11q0 -9 6 -17.5t13 -6.5l93 18q74 -28 68 -29zM227 562q8 -4 16 3l71 16l2 -7l-73 -46q-16 -8 -25 -3q-15 6 -48 21q-14 7 -26 5l-70 -17l-4 8
l72 45q11 7 24 1q30 -13 61 -26z" />
    <glyph glyph-name="oacute" unicode="&#xf3;" horiz-adv-x="501" 
d="M452 239q0 -67 -39 -130q-5 -15 -17 -40q-10 -15 -16 -19q-94 -68 -166 -68q-24 0 -69.5 19t-54.5 34q-20 14 -49 46q-41 78 -41 138q0 19 17 88q21 81 79 126q53 41 126 41q7 0 45 -8q44 -9 67 -18q7 -9 22 -23q43 -25 72 -89q24 -55 24 -97zM425 240q0 43 -21 87
q-24 50 -63 77q-6 8 -19 20q-18 10 -71 17q-4 1 -15.5 5t-15.5 4q-29 0 -68.5 -16t-57.5 -35q-40 -42 -55 -108q-14 -61 -14 -74q0 -54 30 -108q36 -62 97 -85q45 -18 56 -18q48 0 102 30q63 34 79 85q11 30 22 59q14 38 14 60zM348 179q0 -49 -20 -87q-25 -49 -73 -49
q-42 0 -85.5 42t-57.5 92q-17 57 -17 83q0 40 20 84q6 13 30 28.5t34 15.5q3 0 17.5 -4t20.5 -5q48 -4 86 -61q28 -42 41 -94q4 -19 4 -45zM320 176q0 40 -18 83q-20 50 -56 84q-18 17 -60 17q-31 0 -49 -36q-14 -29 -14 -58q0 -26 10 -65q14 -51 31 -71q52 -59 91 -59
q35 0 53 42q12 29 12 63zM272 615q3 2 5 2q11 0 24 -27l20 -46q8 -14 -8 -17l-187 -39q-8 -2 -17 10.5t-9 24.5q0 9 6 12zM272 587l-146 -65l6 -14l160 40z" />
    <glyph glyph-name="ograve" unicode="&#xf2;" horiz-adv-x="506" 
d="M452 239q0 -67 -39 -130q-5 -15 -17 -40q-10 -15 -16 -19q-94 -68 -166 -68q-24 0 -69.5 19t-54.5 34q-20 14 -49 46q-41 78 -41 138q0 19 17 88q21 81 79 126q53 41 126 41q7 0 45 -8q44 -9 67 -18q7 -9 22 -23q43 -25 72 -89q24 -55 24 -97zM425 240q0 43 -21 87
q-24 50 -63 77q-6 8 -19 20q-18 10 -71 17q-4 1 -15.5 5t-15.5 4q-29 0 -68.5 -16t-57.5 -35q-40 -42 -55 -108q-14 -61 -14 -74q0 -54 30 -108q36 -62 97 -85q45 -18 56 -18q48 0 102 30q63 34 79 85q11 30 22 59q14 38 14 60zM348 179q0 -49 -20 -87q-25 -49 -73 -49
q-42 0 -85.5 42t-57.5 92q-17 57 -17 83q0 40 20 84q6 13 30 28.5t34 15.5q3 0 17.5 -4t20.5 -5q48 -4 86 -61q28 -42 41 -94q4 -19 4 -45zM320 176q0 40 -18 83q-20 50 -56 84q-18 17 -60 17q-31 0 -49 -36q-14 -29 -14 -58q0 -26 10 -65q14 -51 31 -71q52 -59 91 -59
q35 0 53 42q12 29 12 63zM153 615q-3 2 -5 2q-11 0 -24 -27q-10 -23 -21 -46q-7 -14 9 -17l187 -39q8 -2 17 10.5t9 24.5q0 9 -6 12zM153 587l145 -65l-5 -14l-160 40z" />
    <glyph glyph-name="ocircumflex" unicode="&#xf4;" horiz-adv-x="506" 
d="M452 239q0 -67 -39 -130q-5 -15 -17 -40q-10 -15 -16 -19q-94 -68 -166 -68q-24 0 -69.5 19t-54.5 34q-20 14 -49 46q-41 78 -41 138q0 19 17 88q21 81 79 126q53 41 126 41q7 0 45 -8q44 -9 67 -18q7 -9 22 -23q43 -25 72 -89q24 -55 24 -97zM425 240q0 43 -21 87
q-24 50 -63 77q-6 8 -19 20q-18 10 -71 17q-4 1 -15.5 5t-15.5 4q-29 0 -68.5 -16t-57.5 -35q-40 -42 -55 -108q-14 -61 -14 -74q0 -54 30 -108q36 -62 97 -85q45 -18 56 -18q48 0 102 30q63 34 79 85q11 30 22 59q14 38 14 60zM348 179q0 -49 -20 -87q-25 -49 -73 -49
q-42 0 -85.5 42t-57.5 92q-17 57 -17 83q0 40 20 84q6 13 30 28.5t34 15.5q3 0 17.5 -4t20.5 -5q48 -4 86 -61q28 -42 41 -94q4 -19 4 -45zM320 176q0 40 -18 83q-20 50 -56 84q-18 17 -60 17q-31 0 -49 -36q-14 -29 -14 -58q0 -26 10 -65q14 -51 31 -71q52 -59 91 -59
q35 0 53 42q12 29 12 63zM210 606q7 4 13 0l122 -78q6 -4 6 -14t-6 -19t-14 -7l-116 24l-113 -29q-8 -2 -16.5 8t-8.5 21q0 7 5 10zM111 511l100 25q4 1 6 1l98 -20l-98 64z" />
    <glyph glyph-name="odieresis" unicode="&#xf6;" horiz-adv-x="511" 
d="M452 239q0 -67 -39 -130q-5 -15 -17 -40q-10 -15 -16 -19q-94 -68 -166 -68q-24 0 -69.5 19t-54.5 34q-20 14 -49 46q-41 78 -41 138q0 19 17 88q21 81 79 126q53 41 126 41q7 0 45 -8q44 -9 67 -18q7 -9 22 -23q43 -25 72 -89q24 -55 24 -97zM425 240q0 43 -21 87
q-24 50 -63 77q-6 8 -19 20q-18 10 -71 17q-4 1 -15.5 5t-15.5 4q-29 0 -68.5 -16t-57.5 -35q-40 -42 -55 -108q-14 -61 -14 -74q0 -54 30 -108q36 -62 97 -85q45 -18 56 -18q48 0 102 30q63 34 79 85q11 30 22 59q14 38 14 60zM348 179q0 -49 -20 -87q-25 -49 -73 -49
q-42 0 -85.5 42t-57.5 92q-17 57 -17 83q0 40 20 84q6 13 30 28.5t34 15.5q3 0 17.5 -4t20.5 -5q48 -4 86 -61q28 -42 41 -94q4 -19 4 -45zM320 176q0 40 -18 83q-20 50 -56 84q-18 17 -60 17q-31 0 -49 -36q-14 -29 -14 -58q0 -26 10 -65q14 -51 31 -71q52 -59 91 -59
q35 0 53 42q12 29 12 63zM163 592q44 0 44 -38q0 -24 -24 -42t-49 -18q-18 0 -31 10.5t-13 27.5q0 24 24 42t49 18zM162 572q-15 0 -33.5 -13t-18.5 -27q0 -18 23 -18q16 0 34.5 12.5t18.5 27.5q0 18 -24 18zM313 592q44 0 44 -38q0 -24 -24.5 -42t-49.5 -18q-17 0 -30 10.5
t-13 27.5q0 24 24 42t49 18zM312 572q-15 0 -33.5 -13t-18.5 -27q0 -18 23 -18q16 0 34.5 12.5t18.5 27.5q0 18 -24 18z" />
    <glyph glyph-name="otilde" unicode="&#xf5;" horiz-adv-x="501" 
d="M452 239q0 -67 -39 -130q-5 -15 -17 -40q-10 -15 -16 -19q-94 -68 -166 -68q-24 0 -69.5 19t-54.5 34q-20 14 -49 46q-41 78 -41 138q0 19 17 88q21 81 79 126q53 41 126 41q7 0 45 -8q44 -9 67 -18q7 -9 22 -23q43 -25 72 -89q24 -55 24 -97zM425 240q0 43 -21 87
q-24 50 -63 77q-6 8 -19 20q-18 10 -71 17q-4 1 -15.5 5t-15.5 4q-29 0 -68.5 -16t-57.5 -35q-40 -42 -55 -108q-14 -61 -14 -74q0 -54 30 -108q36 -62 97 -85q45 -18 56 -18q48 0 102 30q63 34 79 85q11 30 22 59q14 38 14 60zM348 179q0 -49 -20 -87q-25 -49 -73 -49
q-42 0 -85.5 42t-57.5 92q-17 57 -17 83q0 40 20 84q6 13 30 28.5t34 15.5q3 0 17.5 -4t20.5 -5q48 -4 86 -61q28 -42 41 -94q4 -19 4 -45zM320 176q0 40 -18 83q-20 50 -56 84q-18 17 -60 17q-31 0 -49 -36q-14 -29 -14 -58q0 -26 10 -65q14 -51 31 -71q52 -59 91 -59
q35 0 53 42q12 29 12 63zM252 503q11 -3 24 2l90 63q5 3 5 12t-5.5 17.5t-11.5 6.5l-99 -21q-64 27 -63 27q-10 4 -24 -1l-91 -60q-5 -4 -5 -11q0 -9 6 -17.5t13 -6.5l93 18q74 -28 68 -29zM257 562q8 -4 16 3l71 16l2 -7l-73 -46q-16 -8 -25 -3q-15 6 -48 21q-14 7 -26 5
l-70 -17l-4 8l72 45q11 7 24 1q30 -13 61 -26z" />
    <glyph glyph-name="uacute" unicode="&#xfa;" horiz-adv-x="512" 
d="M434 34q0 -20 -16 -32q-16 -8 -52 -29q-21 -14 -42 -29q-25 -16 -38 -16q-39 0 -39 65q0 47 1 40q-2 3 -7 8q-11 -4 -44 -25q-24 -14 -42 -14q-53 0 -87 47q-31 44 -28 94q1 3 -1 18t-2 18v178q0 3 -18.5 25t-18.5 34q0 9 12 18t20 10q115 10 100 10q19 0 31 -16t12 -28
v-87q0 -4 -4.5 -57t-4.5 -57q0 -45 2 -51q7 -33 40 -33q42 0 49.5 36.5t7.5 135.5q0 43 -4 53q-11 14 -29 40q-1 2 -1 16q0 21 13 31q7 6 41 12q31 5 52 5q51 0 68 -31q1 -3 1 -24q0 -4 -6 -32q-7 -32 -8 -44q-16 -117 -16 -186q0 -35 15 -54q3 -4 28 -21q15 -11 15 -28z
M406 38q-28 5 -44 41q-14 30 -14 64q0 4 3 13t3 13v71l28 157q0 13 -5 19q-26 14 -32 14q-23 0 -85 -17q-4 -11 -4 -10q36 -36 36 -101q0 3 -1 -28t-1.5 -78.5t-24.5 -74.5t-62 -27q-20 0 -40 19q-17 16 -24 35q-3 8 -3 22q0 9 1.5 22.5l1.5 13.5q0 4 6 85t6 85
q-14 50 -19 50q-86 0 -101 -13q34 -47 34 -53v-172q0 -20 10 -90q3 -23 27.5 -46t48.5 -23q11 0 39.5 19t45.5 19q29 0 38 -26q3 -8 2 -25q-3 -45 5 -57h10q13 10 38 26q14 10 39 22q9 2 23 13.5t15 17.5zM272 615q3 2 5 2q11 0 24 -27l20 -46q8 -14 -8 -17l-187 -39
q-8 -2 -17 10.5t-9 24.5q0 9 6 12zM272 587l-146 -65l6 -14l160 40z" />
    <glyph glyph-name="ugrave" unicode="&#xf9;" horiz-adv-x="509" 
d="M434 34q0 -20 -16 -32q-16 -8 -52 -29q-21 -14 -42 -29q-25 -16 -38 -16q-39 0 -39 65q0 47 1 40q-2 3 -7 8q-11 -4 -44 -25q-24 -14 -42 -14q-53 0 -87 47q-31 44 -28 94q1 3 -1 18t-2 18v178q0 3 -18.5 25t-18.5 34q0 9 12 18t20 10q115 10 100 10q19 0 31 -16t12 -28
v-87q0 -4 -4.5 -57t-4.5 -57q0 -45 2 -51q7 -33 40 -33q42 0 49.5 36.5t7.5 135.5q0 43 -4 53q-11 14 -29 40q-1 2 -1 16q0 21 13 31q7 6 41 12q31 5 52 5q51 0 68 -31q1 -3 1 -24q0 -4 -6 -32q-7 -32 -8 -44q-16 -117 -16 -186q0 -35 15 -54q3 -4 28 -21q15 -11 15 -28z
M406 38q-28 5 -44 41q-14 30 -14 64q0 4 3 13t3 13v71l28 157q0 13 -5 19q-26 14 -32 14q-23 0 -85 -17q-4 -11 -4 -10q36 -36 36 -101q0 3 -1 -28t-1.5 -78.5t-24.5 -74.5t-62 -27q-20 0 -40 19q-17 16 -24 35q-3 8 -3 22q0 9 1.5 22.5l1.5 13.5q0 4 6 85t6 85
q-14 50 -19 50q-86 0 -101 -13q34 -47 34 -53v-172q0 -20 10 -90q3 -23 27.5 -46t48.5 -23q11 0 39.5 19t45.5 19q29 0 38 -26q3 -8 2 -25q-3 -45 5 -57h10q13 10 38 26q14 10 39 22q9 2 23 13.5t15 17.5zM136 615q-2 2 -5 2q-11 0 -24 -27l-20 -46q-7 -14 9 -17l187 -39
q8 -2 17 10.5t9 24.5q0 9 -7 12zM137 587l145 -65l-5 -14l-160 40z" />
    <glyph glyph-name="ucircumflex" unicode="&#xfb;" horiz-adv-x="513" 
d="M434 34q0 -20 -16 -32q-16 -8 -52 -29q-21 -14 -42 -29q-25 -16 -38 -16q-39 0 -39 65q0 47 1 40q-2 3 -7 8q-11 -4 -44 -25q-24 -14 -42 -14q-53 0 -87 47q-31 44 -28 94q1 3 -1 18t-2 18v178q0 3 -18.5 25t-18.5 34q0 9 12 18t20 10q115 10 100 10q19 0 31 -16t12 -28
v-87q0 -4 -4.5 -57t-4.5 -57q0 -45 2 -51q7 -33 40 -33q42 0 49.5 36.5t7.5 135.5q0 43 -4 53q-11 14 -29 40q-1 2 -1 16q0 21 13 31q7 6 41 12q31 5 52 5q51 0 68 -31q1 -3 1 -24q0 -4 -6 -32q-7 -32 -8 -44q-16 -117 -16 -186q0 -35 15 -54q3 -4 28 -21q15 -11 15 -28z
M406 38q-28 5 -44 41q-14 30 -14 64q0 4 3 13t3 13v71l28 157q0 13 -5 19q-26 14 -32 14q-23 0 -85 -17q-4 -11 -4 -10q36 -36 36 -101q0 3 -1 -28t-1.5 -78.5t-24.5 -74.5t-62 -27q-20 0 -40 19q-17 16 -24 35q-3 8 -3 22q0 9 1.5 22.5l1.5 13.5q0 4 6 85t6 85
q-14 50 -19 50q-86 0 -101 -13q34 -47 34 -53v-172q0 -20 10 -90q3 -23 27.5 -46t48.5 -23q11 0 39.5 19t45.5 19q29 0 38 -26q3 -8 2 -25q-3 -45 5 -57h10q13 10 38 26q14 10 39 22q9 2 23 13.5t15 17.5zM200 606q7 4 13 0l122 -78q6 -4 6 -14t-6 -19t-14 -7l-116 24
l-113 -29q-8 -2 -16.5 8t-8.5 21q0 7 5 10zM101 511l100 25q4 1 6 1l98 -20l-98 64z" />
    <glyph glyph-name="udieresis" unicode="&#xfc;" horiz-adv-x="513" 
d="M434 34q0 -20 -16 -32q-16 -8 -52 -29q-21 -14 -42 -29q-25 -16 -38 -16q-39 0 -39 65q0 47 1 40q-2 3 -7 8q-11 -4 -44 -25q-24 -14 -42 -14q-53 0 -87 47q-31 44 -28 94q1 3 -1 18t-2 18v178q0 3 -18.5 25t-18.5 34q0 9 12 18t20 10q115 10 100 10q19 0 31 -16t12 -28
v-87q0 -4 -4.5 -57t-4.5 -57q0 -45 2 -51q7 -33 40 -33q42 0 49.5 36.5t7.5 135.5q0 43 -4 53q-11 14 -29 40q-1 2 -1 16q0 21 13 31q7 6 41 12q31 5 52 5q51 0 68 -31q1 -3 1 -24q0 -4 -6 -32q-7 -32 -8 -44q-16 -117 -16 -186q0 -35 15 -54q3 -4 28 -21q15 -11 15 -28z
M406 38q-28 5 -44 41q-14 30 -14 64q0 4 3 13t3 13v71l28 157q0 13 -5 19q-26 14 -32 14q-23 0 -85 -17q-4 -11 -4 -10q36 -36 36 -101q0 3 -1 -28t-1.5 -78.5t-24.5 -74.5t-62 -27q-20 0 -40 19q-17 16 -24 35q-3 8 -3 22q0 9 1.5 22.5l1.5 13.5q0 4 6 85t6 85
q-14 50 -19 50q-86 0 -101 -13q34 -47 34 -53v-172q0 -20 10 -90q3 -23 27.5 -46t48.5 -23q11 0 39.5 19t45.5 19q29 0 38 -26q3 -8 2 -25q-3 -45 5 -57h10q13 10 38 26q14 10 39 22q9 2 23 13.5t15 17.5zM143 592q44 0 44 -38q0 -24 -24 -42t-49 -18q-18 0 -31 10.5
t-13 27.5q0 24 24 42t49 18zM142 572q-15 0 -33.5 -13t-18.5 -27q0 -18 23 -18q16 0 34.5 12.5t18.5 27.5q0 18 -24 18zM293 592q44 0 44 -38q0 -24 -24.5 -42t-49.5 -18q-17 0 -30 10.5t-13 27.5q0 24 24 42t49 18zM292 572q-15 0 -33.5 -13t-18.5 -27q0 -18 23 -18
q16 0 34.5 12.5t18.5 27.5q0 18 -24 18z" />
    <glyph glyph-name="dagger" unicode="&#x2020;" 
 />
    <glyph glyph-name="degree" unicode="&#xb0;" horiz-adv-x="349" 
d="M138 670q55 0 93 -41t38 -98t-38 -98t-93 -41q-54 0 -92.5 41t-38.5 98t38.5 98t92.5 41zM138 645q-43 0 -74.5 -33t-31.5 -81t31.5 -81t74.5 -33q44 0 75 33t31 81t-31 81t-75 33zM140 598q25 0 42.5 -19t17.5 -45t-17.5 -45t-42.5 -19t-42.5 19t-17.5 45t17.5 45
t42.5 19zM140 573q-14 0 -24.5 -11t-10.5 -28t10.5 -28t24.5 -11t24.5 11t10.5 28t-10.5 28t-24.5 11z" />
    <glyph glyph-name="cent" unicode="&#xa2;" horiz-adv-x="443" 
d="M355 268q0 7 -4 11q-8 -4 -24.5 -25t-31.5 -30q-48 -31 -66 -31q-8 0 -26 6q-21 6 -29 13q-73 76 -73 156q0 53 16 86q33 71 101 71q34 0 103 -45q2 -1 9 -7.5t11 -6.5q7 0 7 4v10q-6 12 -28 44q-29 41 -38 41q-4 0 -25 -8t-25 -8q-3 0 -25 6.5t-26 6.5q-54 0 -101 -72
q-45 -67 -45 -128q0 -77 31 -122q3 -9 11 -22q41 -40 63 -52q26 -13 67 -13q81 0 129 75q19 28 19 40zM198 228v5v262q-31 -13 -47 -36q-26 -36 -26 -94q0 -66 65 -131q3 -3 8 -6zM227 126v-3v-97q0 -22 -16 -22t-16 22v99q-37 2 -53 10q-131 67 -131 227q0 65 46 140
q54 88 124 88q3 0 18 -4v67q0 22 15 22q14 0 14 -22v-68v-7q4 -1 6 -1q4 0 22.5 9.5t22.5 9.5q17 0 32 -17q22 -26 48 -67q14 -22 14 -42q0 -32 -25 -32q-7 0 -51 28q-47 30 -70 33v-4v-262q0 -6 -2 -12h4q31 0 71 45t50 45q29 0 29 -43q0 -41 -39.5 -83.5t-79.5 -52.5
q-13 -3 -33 -6z" />
    <glyph glyph-name="sterling" unicode="&#xa3;" horiz-adv-x="678" 
d="M191 124q8 9 20 43q13 38 19 48q21 32 21 55q0 4 5 12t3 13l-48 2q-36 3 -36 16v14q0 8 11 25t19 17q31 1 62 3q12 4 20 37q23 90 87 168q76 92 164 92q18 0 37 -5q10 -2 20 -26t10 -36q0 -11 -9.5 -34t-17.5 -25q-33 -11 -60 -3l-4 2q-1 0 -19 10q-8 5 -14 15l-3 -1
q-6 -1 -9 -2q-14 -29 -33 -92q-19 -66 -18 -84q5 -8 19 -8q6 0 19 1.5t19 1.5q26 0 26 -30q0 -36 -36 -45l-62 -4q-45 -59 -113 -190q31 -24 68 -24q56 0 164 75q12 8 18 8q23 0 49 -18q29 -21 25 -43q-6 -35 -10 -43q-6 -13 -31 -31q-70 -53 -127 -53q-30 0 -124 26
q-10 3 -40 26q-26 21 -36 19q-9 -1 -51 -20q-88 -40 -129 -40q-60 0 -60 67q0 64 88 64q14 0 42 -2t38 -2t17 1zM541 148q-27 -20 -94 -59q-48 -23 -89 -23q-52 0 -92 36q-7 6 -3 14q11 25 63 113q57 97 68 99q25 1 49 1q33 3 33 24v5q-8 1 -23 -1t-22 -2q-24 0 -36 22l-1 4
q-4 20 21 111q27 96 46 96q3 1 12 3t14 2q8 0 11.5 -5.5t28.5 -24.5q17 -4 38 2q15 28 15 37q0 12 -16 39q-14 3 -28 3q-83 0 -152 -96q-53 -74 -76 -160q-9 -33 -36 -40q-3 -1 -59 -4l-13 -20q26 -1 53 -3q32 -3 32 -27q0 -12 -9 -28q-2 -23 -33 -89q-9 -22 -17 -43
q-15 -31 -28 -34q-6 -1 -17 -1q-10 0 -37.5 2t-42.5 2q-70 0 -70 -40q0 -42 40 -42q29 0 114 38q49 22 63 22q21 0 46 -21t37 -26q5 -2 48 -13t69 -11q47 0 110 48q34 25 34 49q0 16 -18.5 28t-32.5 13z" />
    <glyph glyph-name="section" unicode="&#xa7;" 
 />
    <glyph glyph-name="bullet" unicode="&#x2022;" horiz-adv-x="379" 
d="M156 478q57 0 97 -41.5t40 -97.5q0 -58 -40.5 -98.5t-98.5 -40.5q-57 0 -97.5 40.5t-40.5 97.5q0 59 41 99.5t99 40.5z" />
    <glyph glyph-name="paragraph" unicode="&#xb6;" horiz-adv-x="822" 
d="M726 -82q-11 0 -25 10t-17 21q-7 28 -1 37q0 2 1 5q-3 16 -14 20q-5 2 -25 2l-276 -32q-20 -1 -51 7q-48 12 -50 13q-58 10 -114 39q-66 35 -90 78q-14 18 -38 57q-32 67 -32 137q0 130 81.5 227.5t210.5 119.5q126 22 172 19q9 -1 28 0q23 1 21 1q24 0 71 -8
q51 -8 70 -17q10 -4 16.5 -23t6.5 -30q0 -27 -30 -27q-4 0 -13 3t-13 3q-7 0 -28 7q-26 9 -29 10q-11 0 -16 -10q-2 -13 -6 -41q2 -16 4 -47q0 -1 1 -3v-1q1 -6 1 -50q0 -5 -3.5 -17.5t-2.5 -17.5q5 -28 5 -74q0 -55 2 -73q0 -6 -3 -15.5t-3 -14.5v-78q0 -5 -1.5 -20.5
t-1.5 -24.5q0 -33 20 -37q5 -1 31 -1q4 0 40.5 3t39.5 3q9 0 33 -6q29 -6 42 -14q33 -20 33 -84q0 -56 -47 -56zM646 599v2l-1 4q-4 19 -8 27q-17 7 -63.5 14.5t-66.5 7.5q2 0 -22 -1q-20 -1 -29 0q-43 3 -164.5 -18t-197 -111.5t-75.5 -211.5q0 -64 29 -126q13 -18 38 -56
q41 -74 233 -115q38 -8 49 -9l276 32q32 2 47.5 -8.5t16.5 -45.5l-1 -3q0 -2 -1 -4q0 -8 3 -23q9 -11 17 -11q15 0 19 9q3 4 3 22q0 50 -21 62q-9 6 -32.5 11.5t-29.5 5.5q-3 0 -39.5 -3t-40.5 -3q-45 0 -57 13.5t-15 63.5q-1 11 -1 31v78q0 5 3 15.5t3 12.5q1 48 -6 145
q-2 8 1.5 20.5t3.5 18t1 21.5v20l-1 3q-6 8 -4 56q3 49 11 59q13 18 33 18q7 0 28 -7q26 -9 30 -9.5t13 -3.5t13 -3h5zM441 541q3 15 0 37q-9 11 -27 19q-29 0 -40 -6.5t-27 -33.5q-11 -14 -21.5 -28t-8.5 -33t-4 -49q-6 -26 -13 -51q-2 -10 -2 -59q0 -105 10 -127
q4 -25 19 -74q4 -11 11 -26q34 -34 66 -34q25 0 30 34q1 5 2 53v115v107q0 4 2.5 56t2.5 55q0 46 0 45zM466 543v-47q0 -3 -2.5 -55t-2.5 -56v-107q0 -19 3.5 -60t3.5 -62q0 -105 -64 -105q-28 0 -56 17t-38 43q-7 30 -24 85l-2 4q-11 28 -11 137q0 52 3 65.5t16 91.5
q-5 39 54 104q17 18 25 21t33 3q10 0 30.5 -10t27 -18t5.5 -24q0 -35 -1 -27z" />
    <glyph glyph-name="germandbls" unicode="&#xdf;" horiz-adv-x="550" 
d="M496 196q1 -38 -16 -72q-6 -13 -34 -51q-11 -16 -56 -49q-21 -15 -95 -23q-11 -1 -20 6l-12 15l-6 32q-3 16 18 26q59 29 65 51q5 11 15 41q6 25 6 36v55q-4 46 -23 46q-4 0 -22 -14t-22 -14q-19 0 -32 23q-10 17 -10 31q0 35 28 60q40 35 49 53q1 2 1 33q0 34 -4 49
q-12 44 -48 56q-14 4 -54 4q-35 0 -34 -91q3 -175 3 -200q-1 -26 -4 -84q-2 -51 -2 -54q1 -50 21.5 -74.5t20.5 -44.5q1 -22 -18 -35q-14 -10 -32 -11q-24 3 -54 6q-26 -4 -59 -7q-22 -1 -36 11.5t-15 30.5q0 20 20.5 44.5t23.5 33.5q4 14 6 140q1 55 1 88q-2 9 -5 27
q-2 4 -7 10q-17 0 -34 10q-20 11 -20 28q-1 25 15 36q15 3 43 15q13 8 21 36q5 20 9 40q4 16 25 67q17 33 62 54q35 16 64 18q3 1 63 1q66 0 126 -79q6 -9 14.5 -37t8.5 -44q0 -34 -4 -53q-3 -11 -16 -35q-5 -9 -22 -26q-13 -13 -13 -24q-1 -12 29 -30q17 -9 21 -16
q28 -38 38 -69q9 -27 12 -76zM472 211v28q-3 17 -19 50q-19 37 -34 46q-34 21 -37 24q-12 10 -12 28q0 13 16 30q22 25 30 38q16 30 16 74q0 26 -17 62q-4 8 -24.5 26.5t-30.5 24.5q-37 21 -54 21q-4 0 -14 1h-15t-16 -2t-13 -2q-57 3 -94 -30.5t-42 -94.5q-2 -22 -9 -46
q-8 -27 -33 -43q-4 -2 -20.5 -5.5t-21.5 -11.5q-1 -6 -1 -12q1 -4 9 -8q36 4 48 -20q6 -13 7 -46q0 -3 -1 -17v-19q0 -16 -1 -39q-1 -24 -0.5 -39t0.5 -37l-4 -81q1 -16 -20.5 -35.5t-21.5 -36.5q1 -17 25 -17q21 2 48 4q4 0 32 -2.5t32 -2.5q7 0 14 8.5t7 16.5q0 5 -1 9
q-14 13 -30 36q-4 13 -4 32q0 12 2 29t2 18q-2 118 -5 333q-2 111 56 112q-3 0 19 2q18 1 31 -1q19 -2 28 -10q37 -29 47 -58q5 -19 5 -75q0 -45 -10 -56.5t-50 -43.5q-18 -15 -18 -37q0 -6 5.5 -15.5t9.5 -11.5q4 6 17.5 15.5t22.5 9.5q36 0 46 -56q3 -19 3 -70
q0 -112 -92 -143q-4 -6 -10 -13q-2 0 -2 -1q0 -4 9 -13q4 -16 10 -15q111 22 131 60q15 15 29 30q20 29 20 98z" />
    <glyph glyph-name="registered" unicode="&#xae;" horiz-adv-x="388" 
d="M162 383q-62 0 -106 45t-44 108q0 62 44 106t106 44t104.5 -44.5t42.5 -107.5t-42.5 -107t-104.5 -44zM162 406q51 0 88 37.5t37 90.5t-37 90.5t-88 37.5q-54 1 -90 -36t-36 -92q0 -53 37.5 -90.5t88.5 -37.5zM176 534l47 -72h-26l-47 72h-26v-72h-22v157h68q-6 0 -5 1h7
q52 0 52 -40q0 -44 -48 -46zM126 557h45q30 0 30 23q0 17 -34 17h-41v-40z" />
    <glyph glyph-name="copyright" unicode="&#xa9;" horiz-adv-x="760" 
d="M346 -11q-143 0 -242.5 100t-99.5 244q0 145 99.5 245t242.5 100t243 -100t100 -245q0 -144 -100 -244t-243 -100zM346 635q-122 0 -211 -88t-89 -214q0 -125 89 -213t211 -88t211 88t89 213q0 126 -89 214t-211 88zM355 139q-86 0 -136.5 55t-50.5 142q0 83 52 139.5
t136 56.5q59 0 103 -34t54 -91h-45q-22 81 -112 81q-67 0 -106 -44t-39 -110q0 -60 34 -103q40 -49 109 -49q94 0 115 79h43q-13 -57 -55.5 -89.5t-101.5 -32.5z" />
    <glyph glyph-name="trademark" unicode="&#x2122;" horiz-adv-x="496" 
d="M401 650v-196h-27v167h-2l-66 -167h-17l-65 167v0v-167h-28v196h46l56 -141l57 141h46zM159 650v-29h-64v-167h-28v167h-65v29h157z" />
    <glyph glyph-name="acute" unicode="&#xb4;" horiz-adv-x="253" 
d="M222 835q3 2 5 2q11 0 24 -27l20 -46q8 -14 -8 -17l-187 -39q-8 -2 -17 10.5t-9 24.5q0 9 6 12zM222 807l-146 -65l6 -14l160 40z" />
    <glyph glyph-name="dieresis" unicode="&#xa8;" horiz-adv-x="336" 
d="M132 831q21 0 36.5 -12t15.5 -33q0 -28 -28.5 -49.5t-57.5 -21.5q-21 0 -36.5 12.5t-15.5 32.5q0 28 30 50q27 21 56 21zM131 807q-17 0 -39 -15t-22 -32q0 -21 27 -21q19 0 41 14.5t22 32.5q0 21 -29 21zM308 831q22 0 37 -12t15 -33q0 -28 -28.5 -49.5t-57.5 -21.5
q-20 0 -35.5 12.5t-15.5 32.5q0 28 28.5 49.5t56.5 21.5zM307 807q-17 0 -38.5 -15t-21.5 -32q0 -21 27 -21q19 0 40.5 14.5t21.5 32.5q0 21 -29 21z" />
    <glyph glyph-name="AE" unicode="&#xc6;" horiz-adv-x="1029" 
d="M989 146q0 -27 -65 -91.5t-95 -64.5q-157 20 -179 20q-3 0 -25 -1t-26 -1q-44 0 -73 -5.5t-39 -5.5q-3 0 -19.5 -3.5t-20.5 -3.5h-19q-12 0 -22 11.5t-10 24.5q0 18 24 38q21 17 40 24q12 31 12 49q0 29 -24.5 34t-57.5 6q-24 1 -52 0q-33 -2 -28 -2q-38 0 -58 -9
q-29 -14 -44 -54q-4 -11 -4 -19q0 -7 7 -21.5t5 -30.5q-7 -45 -71 -45q-4 0 -23 4.5t-23 4.5q-3 0 -31.5 -3t-32.5 -3q-35 0 -35 29q0 33 52 61q49 27 90 76q24 30 63.5 94t63.5 92l120 182q103 150 141 150q3 0 70 -6t72 -6q3 0 62 9.5t63 9.5q30 0 43 -14q16 -18 50 -66
q40 -55 40 -67q0 -16 -11 -29t-23 -13q-8 0 -77.5 43t-122.5 43q-54 0 -54 -133q0 -68 25 -68q23 0 31 31t14 61q10 32 35 32q22 0 39 -28q14 -24 14 -40q0 -4 -3 -64t-3 -64v-81q0 -17 -16 -37t-32 -20q-29 0 -40 31q-5 29 -11.5 59.5t-26.5 30.5q-21 0 -26 -46v-50
q0 -60 13 -76q16 -20 77 -20q45 0 97 22q26 12 77 42q37 22 49 22q15 0 24.5 -14t9.5 -31zM960 154h-19q-2 0 -18 -13q-21 -17 -47 -30q-39 -20 -93 -33q-16 -4 -54 -4q-82 0 -103 42q-12 24 -12 112q0 47 3 57q9 43 50 43q28 0 43 -26q7 -12 18 -52q10 -34 21 -43
q14 14 14 44v134q0 4 3 23t3 23q0 18 -13 42h-11q-10 -34 -19 -69q-17 -49 -56 -49q-59 0 -59 85q0 176 90 176q49 0 97 -21q32 -15 64 -39l28 -21q5 0 9 4q-11 31 -93 120q-3 0 -67.5 -6.5t-67.5 -6.5q-5 0 -72 6.5t-71 6.5q-35 -15 -113 -137q-96 -151 -122 -180
q-12 -13 -27 -41q-23 -40 -25 -43q-34 -53 -102 -136q-6 -8 -55.5 -39t-52.5 -41q-6 -15 16 -15q4 0 29 4.5t28 4.5q4 0 22.5 -4.5t22.5 -4.5q28 0 34 18q1 0 -3.5 17.5t-4.5 31.5q0 12 3 21q12 32 40 59q33 32 67 32h161q27 0 41 -22.5t14 -51.5q0 -18 -5 -31
q-8 -22 -20 -33t-45 -26q-8 -21 14 -21q3 0 22.5 3t23 3t45.5 3.5t46 3.5t13 1h13h41q73 0 179 -11q22 0 77.5 58t54.5 72zM495 308q-24 -64 -101 -64h-47q-41 0 -41 22q0 9 5 23t46 84q46 80 69.5 106.5t46.5 26.5q12 0 15.5 -4t6 -25t2.5 -93q0 -70 -2 -76zM463 476
q-9 0 -52 -70q-38 -61 -73 -128q12 -10 17 -10t6.5 3t4.5 3q4 0 19.5 -3t18.5 -3q45 0 59 37q5 15 5 124q0 47 -5 47z" />
    <glyph glyph-name="Oslash" unicode="&#xd8;" horiz-adv-x="677" 
d="M191 218l179 271q-59 64 -127 64q-59 0 -89 -81q-21 -53 -21 -99q0 -63 58 -155zM115 104l58 87q-68 102 -68 182q0 64 25 122q36 86 111 86q77 0 145 -68l54 81q-74 55 -157 55q-118 0 -197 -108q-71 -98 -71 -217q0 -48 27.5 -109t72.5 -111zM388 467l-181 -273
q64 -88 135 -88q62 0 94 76q22 51 22 100q0 92 -70 185zM461 577l-56 -85q38 -47 61 -104t23 -103q0 -64 -27 -122q-40 -85 -120 -85q-82 0 -152 89l-55 -83q78 -75 158 -75q125 0 208 107q76 97 76 218q0 63 -31.5 129t-84.5 114zM508 694q18 0 18 -16q0 -3 -2 -6l-45 -68
v-1q69 -49 100 -139q2 -8 14 -53q15 -57 15 -85q0 -129 -88 -235q-94 -113 -226 -113q-93 0 -176 80l-46 -69q-4 -7 -7.5 -14.5t-8.5 -7.5q-18 0 -18 16q0 3 1 6l60 90q-50 55 -79.5 123.5t-29.5 123.5q0 128 76 235q88 123 225 123q26 0 73 -12q43 -12 58 -20q4 -3 36 -31
l33 51l7.5 15t9.5 7z" />
    <glyph glyph-name="plusminus" unicode="&#xb1;" 
 />
    <glyph glyph-name="yen" unicode="&#xa5;" horiz-adv-x="647" 
d="M672 635q0 -10 -1 -13q-8 -22 -21 -28q-44 -21 -90 -79q-36 -48 -73 -96q-20 -22 -41 -45q-27 -32 -29 -53h128q29 0 29 -29v-21q0 -29 -29 -29h-129v-41h129q29 0 29 -29v-21q0 -29 -29 -29h-130q2 -38 19.5 -54t17.5 -34q0 -41 -50 -41q-3 0 -26 5t-27 5t-31 -3.5
t-31 -3.5q-25 0 -34 6q-12 8 -12 30v13q3 7 19 25t17 30v22h-124q-29 0 -29 29v21q0 29 29 29h125q1 24 1 41h-126q-29 0 -29 29v21q0 29 29 29h115l-1 2q-4 10 -31 40q-32 36 -44 53q-18 31 -55 90q-24 36 -73 80l-24 11q-18 8 -25 24q-4 9 -4 15q0 40 63 40q4 0 31 -3
t31 -3t44 3t43 3q13 0 24.5 -10t11.5 -25q0 -4 -6 -23.5t-6 -23.5q0 -13 53 -85t65 -72q28 0 76 75q45 67 45 82q0 3 -8 24t-8 26q0 15 18 24q14 8 30 8q4 0 37 -4.5t36 -4.5q4 0 23 3t22 3q15 0 25.5 -13t10.5 -25zM650 638q0 4 -1.5 6.5t-1.5 3.5q-58 -6 -60 -6
q-4 0 -33 5t-32 5q-13 0 -20 -5t-7 -10q19 -31 19 -43q0 -32 -54 -105q-58 -77 -95 -77q-26 0 -84.5 77t-58.5 105q0 3 4.5 24.5t4.5 29.5q-44 5 -73 -1q-9 -2 -18 -2q-4 0 -36 3.5t-36 3.5q-19 0 -20 -1q-12 -2 -12 -15q0 -11 7 -15q48 -20 88 -71q9 -10 76 -112
q39 -41 85 -105q4 -14 8 -32h-147q-9 0 -9 -9v-21q0 -9 9 -9h146q1 -24 2 -56v-27l-148 2q-9 0 -9 -9v-21q0 -9 9 -9h150q0 -42 -1.5 -53t-18.5 -35.5t-14 -29.5h47q-1 0 24 2q21 1 32 0q5 0 14 -2.5t13 -2.5q12 0 25 7v14l-20 20q-10 12 -13.5 23t-4.5 55l159 2q9 0 9 9v21
q0 9 -9 9l-154 -1q0 17 -1 38q1 10 0 44h155q9 0 9 9v21q0 9 -9 9h-126l-29 -2q2 23 10 55q16 38 49 68q19 18 55.5 68t40.5 53q13 14 27 28t65 44q13 8 13 23z" />
    <glyph glyph-name="mu" unicode="&#xb5;" horiz-adv-x="581" 
d="M285 384q14 10 14 11v30q0 6 -4 10l-127 -86l-1 187q0 34 15.5 67t15.5 32v11q-40 1 -120 -2q-15 -1 -17 -8q4 -9 14 -49q11 -43 11 -55l-4 -249l-48 -32q-14 -9 -14 -10v-31q0 -5 3 -9h1l57 34l-2 -99q0 -36 -15.5 -64t-15.5 -31q0 -22 36 -22q4 0 74 3t73 3
q58 0 120 -9.5t64 -9.5q6 0 61.5 73t55.5 83q0 8 -4 13q-136 -116 -236 -116q-5 0 -24 1.5t-22 1.5q-49 2 -66 68q-8 73 -5 178zM560 161q0 -25 -59.5 -104t-82.5 -79q-3 0 -25 1.5t-26 1.5t-8.5 1.5t-8.5 1.5t-76 6.5t-76 6.5q-3 0 -55.5 -3t-56.5 -3q-66 0 -66 59
q0 11 7 24q21 37 23 50t3 73l-19 -14q-5 -3 -10 -3q-9 0 -16.5 10t-7.5 20v31q0 10 7.5 16t15.5 11l31 23v1v256q0 3 -11 42.5t-11 43.5q0 32 27 39q14 4 66 1q12 -1 41 1.5l29 2.5q34 0 34 -35q0 -4 -13 -51q-15 -51 -18 -66l1 -134l86 60q5 4 10 4q9 0 16.5 -10.5
t7.5 -20.5v-30q0 -11 -23 -27l-96 -68l4 -154q9 -41 29 -50q11 -5 54 -5q55 0 111 29q32 18 81 56q38 30 49 30q32 0 32 -45z" />
    <glyph glyph-name="mu" unicode="&#x3bc;" horiz-adv-x="581" 
d="M285 384q14 10 14 11v30q0 6 -4 10l-127 -86l-1 187q0 34 15.5 67t15.5 32v11q-40 1 -120 -2q-15 -1 -17 -8q4 -9 14 -49q11 -43 11 -55l-4 -249l-48 -32q-14 -9 -14 -10v-31q0 -5 3 -9h1l57 34l-2 -99q0 -36 -15.5 -64t-15.5 -31q0 -22 36 -22q4 0 74 3t73 3
q58 0 120 -9.5t64 -9.5q6 0 61.5 73t55.5 83q0 8 -4 13q-136 -116 -236 -116q-5 0 -24 1.5t-22 1.5q-49 2 -66 68q-8 73 -5 178zM560 161q0 -25 -59.5 -104t-82.5 -79q-3 0 -25 1.5t-26 1.5t-8.5 1.5t-8.5 1.5t-76 6.5t-76 6.5q-3 0 -55.5 -3t-56.5 -3q-66 0 -66 59
q0 11 7 24q21 37 23 50t3 73l-19 -14q-5 -3 -10 -3q-9 0 -16.5 10t-7.5 20v31q0 10 7.5 16t15.5 11l31 23v1v256q0 3 -11 42.5t-11 43.5q0 32 27 39q14 4 66 1q12 -1 41 1.5l29 2.5q34 0 34 -35q0 -4 -13 -51q-15 -51 -18 -66l1 -134l86 60q5 4 10 4q9 0 16.5 -10.5
t7.5 -20.5v-30q0 -11 -23 -27l-96 -68l4 -154q9 -41 29 -50q11 -5 54 -5q55 0 111 29q32 18 81 56q38 30 49 30q32 0 32 -45z" />
    <glyph glyph-name="ordfeminine" unicode="&#xaa;" horiz-adv-x="601" 
d="M547 119q0 -16 -8 -25q-32 -34 -99 -101q-5 -5 -19 -7q-6 -1 -45 -1q-52 0 -70 4q-30 6 -90 3q-15 -1 -44 1q-32 2 -31 2q-3 0 -14 -3.5t-17 -3.5q-40 0 -69 12q-41 16 -41 49q0 7 7 29q9 26 19 40q52 69 73 99q41 58 54 85t46 78q42 66 54.5 85l37.5 57q1 2 1 10
q0 34 -45 34q-6 0 -19 -1q-44 -4 -80 -31q-14 -12 -40 -29q-13 -7 -29 -7q-32 0 -32 38q0 28 49.5 85t77.5 57q4 0 13 -4t14 -5q50 -9 80 -11q3 0 12 -2.5t13 -2.5t70.5 11t70.5 11q25 0 44 -29q15 -24 15 -40q0 -11 -1 -17q-6 -7 -17 -25q-20 -49 -59 -105l-68 -94
q-33 -65 -98 -180q-14 -20 -45 -65q-4 -15 -4 -12q0 -26 44 -26h23q21 8 65 20q10 0 31 2q30 6 108 54q8 4 23 4q17 0 28 -15t11 -28zM519 120q0 5 -2 9t-2 5h-16q-3 0 -31 -19q-32 -20 -51 -27q-22 -3 -62 -11q-22 -8 -65 -20q-23 -3 -37 -3q-64 0 -64 55q0 13 4 20
q6 11 48 71q3 4 30 56q20 40 90 144q75 113 91 142q29 51 29 67q0 38 -51 38q-4 0 -60 -8t-59 -8q-26 0 -70 4q-10 3 -25 7q-53 8 -45 8q-15 0 -57.5 -48.5t-42.5 -66.5q0 -8 5 -12q15 1 38 18q33 23 47 30q39 20 73 20q86 0 86 -59q0 -18 -26 -57q-8 -9 -20 -25
q-63 -118 -82 -146q-20 -33 -39 -67q-30 -50 -99 -125q-9 -9 -17.5 -32t-8.5 -30q0 -17 33 -27q24 -7 48 -7q4 0 69 3t69 3t36.5 -4.5t35.5 -4.5h101q13 0 99 107zM287 713q-6 -5 -13 0l-122 78q-5 3 -5 13q0 11 5.5 19.5t13.5 6.5l117 -23l113 29q8 2 16.5 -8.5t8.5 -20.5
q0 -7 -5 -11zM387 807l-100 -25h-7l-98 19l99 -63z" />
    <glyph glyph-name="ordmasculine" unicode="&#xba;" horiz-adv-x="427" 
d="M350 134q0 -13 -9 -25q-19 -26 -20 -29q-8 -15 -15 -30q-11 -20 -25 -29q-24 -16 -54 -16q-4 0 -36.5 4.5t-36.5 4.5q-3 0 -21.5 -1.5t-22 -1.5t-30.5 -3t-31 -3q-22 0 -35.5 14.5t-13.5 30.5q0 15 10 37q3 8 42 63q7 14 20 41q28 41 57 82q52 76 52 88q0 15 -11 15
q-18 0 -56 -21t-44 -21q-26 0 -26 31q0 13 26 51q23 35 28 38q16 11 29 11q3 0 40 -6t43 -6q4 0 39 4.5t38 4.5q24 0 42 -18t18 -37q0 -24 -11 -37q-18 -20 -54 -65q-15 -30 -46 -89l-40 -50q-36 -47 -36 -56q0 -19 24 -19q30 0 77 30q3 2 29 28q23 22 31 22q13 0 21 -12
t8 -25zM326 133q0 4 -5 9q-25 -31 -66.5 -54.5t-72.5 -23.5q-13 0 -29.5 14.5t-16.5 31.5q0 18 36 67q20 25 40 51q18 36 49 92q9 14 55 65q7 8 7 23q0 10 -9.5 20t-26.5 10q-3 0 -38.5 -4.5t-39.5 -4.5t-37 4.5t-36 4.5q-24 0 -38.5 -25.5t-29.5 -51.5q24 12 47 25
q28 13 54 13q14 0 24.5 -11t10.5 -29q0 -14 -10.5 -30t-20.5 -31q-12 -20 -32 -53q-17 -22 -45 -63q-8 -18 -48 -77q-8 -10 -16 -30t-8 -25q0 -4 4 -11q6 -10 15 -10q4 0 55 4.5t55 4.5q3 0 33.5 -4.5t34.5 -4.5q11 0 29.5 7t21.5 12q13 16 33.5 48.5t20.5 36.5zM207 502
q-6 -4 -11 0l-104 66q-5 3 -5 12q0 25 17 22l99 -20l96 24q7 2 14 -6.5t7 -17.5q0 -6 -4 -9zM291 582l-85 -21h-5l-83 16l83 -54z" />
    <glyph glyph-name="ae" unicode="&#xe6;" horiz-adv-x="653" 
d="M577 118q0 -14 -7 -25.5t-14 -23.5q-28 -50 -69 -67q-27 -11 -79 -11q-32 0 -40 1q-17 2 -35 13q-22 -14 -44 -14q-16 0 -33 4q-9 2 -15 10t-18 8q-4 0 -41 -9.5t-41 -9.5q-38 0 -45 4q-94 53 -94 136q0 32 14 67q15 39 39 55q13 9 48 19q29 8 58 15q6 1 18 6.5t12 24.5
q0 8 -6 24q-8 21 -17 21q-1 0 -30 -29.5t-54 -29.5q-18 0 -31 20q-11 17 -11 33q0 45 51 72q38 21 76 21q31 0 58 -4q35 -6 60 -38q35 36 82 45q14 3 65 3q40 0 79 -40q34 -35 43 -68q1 -6 14 -35q7 -18 7 -43q0 -39 -27 -51q-17 -8 -61 -8q-3 0 -25 1.5t-26 1.5
q-20 0 -54 -7q-16 -3 -26 -17q-4 -4 -4 -13q0 -36 31 -64.5t62 -28.5q26 0 55 34.5t46 34.5q29 0 29 -38zM543 131q-55 -72 -91 -72q-39 0 -52 10q-47 36 -61 64q-10 19 -10 55q0 52 108 52q4 0 36 1t36 1q22 0 31 8t9 31q0 32 -14 60q-8 16 -37 55q-16 22 -47 31
q-16 4 -60 4q-62 0 -107 -55q-25 35 -41 43.5t-60 8.5q-32 0 -70 -17q-46 -22 -46 -53l10 -23h10q22 7 31 19q20 27 22 28q11 12 23 12q27 0 41 -27q12 -22 12 -51q0 -14 -2 -19q-4 -21 -44 -34q-6 -4 -15 -8q-66 -6 -81 -21q-19 -18 -33 -49t-14 -54q0 -22 19 -58
q1 -2 26 -26q31 -28 60 -28q11 0 36 9.5t49 9.5q25 0 36 -9.5t35 -9.5q7 0 40 13q39 -23 68 -22q4 0 18.5 1.5t18.5 1.5q14 0 46.5 16t37.5 28q2 6 20 27q14 18 14 28q0 4 -1.5 8t-6.5 11zM490 313q0 -44 -53 -44q-5 0 -32 1.5t-30 1.5q-52 0 -52 46q0 27 29 51.5t55 24.5
q37 0 62 -28q21 -25 21 -53zM231 154q0 -95 -60 -95q-34 0 -54 32q-16 26 -16 60q0 33 18 59q22 32 58 32q28 0 43 -37q11 -27 11 -51zM465 316q0 15 -19.5 37t-34.5 22q-18 0 -39 -22t-21 -41q0 -4 10 -13q7 0 27 -1.5t23 -1.5l8.5 -1.5t15.5 -1.5q30 0 30 23zM206 160
q0 15 -7 32q-9 22 -22 22q-24 0 -36 -20.5t-12 -45.5q0 -61 39 -61q38 0 38 73z" />
    <glyph glyph-name="oslash" unicode="&#xf8;" horiz-adv-x="497" 
d="M143 152l113 173q-8 10 -17 18q-18 17 -60 17q-31 0 -49 -36q-14 -29 -14 -58q0 -26 10 -65q8 -29 17 -49zM85 62l42 65q-16 25 -23 50q-16 57 -16 83q0 40 20 84q5 13 31 29q23 15 32 15q3 0 18 -4t21 -5q33 -3 61 -31l47 73q-11 11 -74 20q-4 1 -15.5 5t-15.5 4
q-29 0 -68.5 -16t-58.5 -35q-39 -42 -54 -108q-15 -61 -15 -74q0 -90 68 -155zM273 302l-113 -175q50 -56 88 -56q35 0 53 42q12 29 12 63q0 64 -40 126zM338 401l-48 -74q32 -45 46 -103q5 -19 5 -45q0 -49 -20 -87q-25 -49 -73 -49q-53 0 -103 61l-39 -60q18 -12 39 -20
q45 -18 56 -18q48 0 102 30q63 34 78 85q11 30 23 59q14 38 14 60q0 41 -21 85q-22 49 -59 76zM362 485q17 0 17 -17q0 -3 -1 -5l-26 -39q42 -27 70 -90q23 -54 23 -95q0 -67 -39 -130q-5 -15 -18 -40q-9 -15 -15 -19q-94 -68 -166 -68q-20 0 -57 14t-57 29l-25 -39
l-7.5 -15t-8.5 -7q-18 0 -18 16q0 3 1 6l38 57q-16 12 -39 38q-41 78 -41 138q0 19 17 88q21 81 79 126q53 41 125 41q8 0 46 -8q44 -9 67 -18q2 -1 6 -4l12 19q4 7 7.5 14.5t9.5 7.5z" />
    <glyph glyph-name="questiondown" unicode="&#xbf;" horiz-adv-x="468" 
d="M108 171q2 2 32 14.5t44 30.5q10 16 11 36q2 32 3 36q2 10 19 17q14 5 26 5q24 0 39 -12l2 -3q10 -16 10 -19q-1 -42 -36 -103q-30 -46 -60 -93q-4 -7 -4 -27q0 -34 12 -77t25 -49l32 -14q13 2 27 2l14 15l-24 37q-3 5 0 25q2 20 7 25q6 9 20 19q21 4 38 4q70 0 70 -70
q0 -12 -2 -43q-6 -76 -82 -108q-56 -25 -118 -18q-54 5 -108.5 50.5t-71.5 98.5q-11 30 -11 59q0 70 86 162zM126 153q-79 -83 -79 -144q0 -25 9 -52q15 -45 61 -83.5t92 -43.5q19 -2 36 -2q114 0 142 96q0 11 1 28.5t1 23.5q0 39 -41 39q-13 0 -33 -3l-7 -8l-4 -28l25 -41
q1 -2 1 -4q0 -9 -9.5 -21.5t-19.5 -15.5q-48 -11 -39 -11q-2 0 -9 5q-12 8 -33 16.5t-36 57.5q-15 45 -15 89q0 30 8 43q28 42 56 85q34 57 35 93l-4 8q-20 13 -41 0q5 -44 -18 -78l-1 -1q-14 -22 -78 -48zM160 442q2 10 22.5 34t27.5 24q20 0 41 -1q14 -2 33 -23
q10 -10 23 -33q8 -38 4 -43q-18 -21 -43 -43l-42 -9q-16 -3 -51 23q-4 2 -12.5 19t-7.5 20zM189 391q10 -7 36 -18l34 8l29 31q-3 10 -6 28l-29 33q-18 0 -39 2q-10 -12 -29 -34q0 -2 -5 -30q8 -11 9 -20z" />
    <glyph glyph-name="exclamdown" unicode="&#xa1;" horiz-adv-x="306" 
d="M183 200q5 -12 12 -36q4 -51 18 -150q15 -76 15 -103q0 -41 -18 -81q-3 -4 -6 -6q-47 -27 -84 -27q-42 0 -59 39v1q-11 24 -11 75q0 62 17 171q11 73 23 146v43q1 30 11 32t18 6l6 3q6 3 13 3q14 0 26 -8.5t14 -20.5q0 -29 5 -87zM158 195q-1 29 -4 85q-5 5 -15 12
q-1 -1 -3 -2l-7 -3q-6 -3 -13 -5q1 -18 -1 -56q-11 -74 -22 -147q-16 -111 -16 -172q0 -41 7 -61q12 -24 40 -24q26 0 65 22q14 33 14 68q0 24 -15 97q-5 67 -19 158q-5 9 -11 28zM80 371l-4 6l-4 6q-4 7 -9.5 15t-5.5 13q12 66 23.5 77.5t72.5 14.5q5 -1 8 -2
q60 -37 60 -83q0 -55 -86 -74q-7 -2 -28 8.5t-27 18.5zM134 369q62 15 62 50q0 30 -45 59q-23 0 -52 -7q-7 -6 -16 -59q7 -9 11 -16l3 -6q4 -7 37 -21z" />
    <glyph glyph-name="logicalnot" unicode="&#xac;" 
 />
    <glyph glyph-name="florin" unicode="&#x192;" horiz-adv-x="696" 
d="M638 175q0 -3 -13 -42q-14 -42 -17 -56q-7 -29 -12 -41q-12 -27 -33 -36q-21 1 -59 -2q-4 -1 -26 -12q-11 -6 -55 -6q-4 0 -38 3t-38 3q-22 0 -47 12q-44 20 -48 21q-56 20 -100 82q-39 57 -49 116l-69 -1q-29 0 -29 29v27q0 29 29 29h56v10q0 20 3 45h-59q-29 0 -29 29
v27q0 29 29 29h78q31 101 88 163q71 79 173 79q24 0 51 -12.5l27 -12.5q3 0 18.5 4.5t19.5 4.5q-7 0 27 -4q100 -141 100 -163q0 -46 -39 -46q-9 0 -75.5 58.5t-111.5 58.5q-98 0 -134 -130h130q29 0 29 -29v-27q0 -29 -29 -29h-144v-12q0 -19 3 -43h141q29 0 29 -29v-27
q0 -29 -29 -29h-117q56 -143 147 -143q46 0 85 39q14 15 55 73q28 40 46 40q17 0 26.5 -15.5t9.5 -34.5zM607 174q0 6 -7 10q-87 -140 -187 -138q-103 2 -180 188l153 2q9 0 9 9v27q0 9 -9 9l-166 1l-3 30q0 9 -2 65l171 -1q9 0 9 9v27q0 9 -9 9l-167 -1q21 76 60 124
q48 58 111 58q41 0 85 -29q34 -22 96 -82h11v17q0 3 -42.5 65.5t-53.5 62.5q-4 0 -15.5 -4.5t-15.5 -4.5t-39 11t-38 11q-94 0 -145 -50q-44 -43 -101 -177l-98 -1q-9 0 -9 -9v-27q0 -9 9 -9l88 -1q-4 -30 -4 -60q0 -2 -1 -18v-17l-83 1q-9 0 -9 -9v-27q0 -9 9 -9h91
q38 -130 123 -183q71 -45 199 -45q7 0 31 12.5t53 12.5q4 0 6.5 -1.5t5.5 -1.5q13 0 39 68q25 64 25 76z" />
    <glyph glyph-name="guillemotleft" unicode="&#xab;" horiz-adv-x="361" 
d="M267 427l7 -8q4 -4 0 -13l-65 -145l68 -147q4 -9 0 -13l-8 -8q-3 -3 -13 0q-5 2 -56 79.5t-55 81.5q-6 5 0 13l109 160q5 8 13 0zM137 427l7 -8q4 -4 0 -13l-65 -145l68 -147q4 -9 0 -13l-8 -8q-3 -3 -13 0q-5 2 -56 79.5t-55 81.5q-6 5 0 13l109 160q5 8 13 0z" />
    <glyph glyph-name="guillemotright" unicode="&#xbb;" horiz-adv-x="337" 
d="M25 93l-8 8q-4 4 0 13l65 145l-67 147q-4 9 0 13l7 8q4 3 13 0q5 -2 56 -80t56 -81q5 -5 0 -13l-109 -160q-6 -8 -13 0zM155 93l-8 8q-4 4 0 13l65 145l-67 147q-4 9 0 13l7 8q4 3 13 0q5 -2 56 -80t56 -81q5 -5 0 -13l-109 -160q-6 -8 -13 0z" />
    <glyph glyph-name="ellipsis" unicode="&#x2026;" horiz-adv-x="950" 
d="M239 129q2 -3 4 -7l4 -6q4 -7 9 -13q6 -10 6 -14q-12 -66 -22 -77q-13 -12 -74 -15q-5 1 -8 2q-60 37 -60 83q0 55 86 74q7 1 28 -9.5t27 -17.5zM185 130q-62 -14 -62 -50q0 -29 45 -58q23 0 52 6q7 6 16 59q-7 9 -11 17l-3 6q-4 7 -37 20zM539 129q2 -3 4 -7l4 -6
q4 -7 9 -13q6 -10 6 -14q-12 -66 -22 -77q-13 -12 -74 -15q-5 1 -8 2q-60 37 -60 83q0 55 86 74q7 1 28 -9.5t27 -17.5zM485 130q-62 -14 -62 -50q0 -29 45 -58q23 0 52 6q7 6 16 59q-7 9 -11 17l-3 6q-4 7 -37 20zM839 129q2 -3 4 -7l4 -6q4 -7 9 -13q6 -10 6 -14
q-12 -66 -22 -77q-13 -12 -74 -15q-5 1 -8 2q-60 37 -60 83q0 55 86 74q7 1 28 -9.5t27 -17.5zM785 130q-62 -14 -62 -50q0 -29 45 -58q23 0 52 6q7 6 16 59q-7 9 -11 17l-3 6q-4 7 -37 20z" />
    <glyph glyph-name="nonbreakingspace" unicode="&#xa0;" 
 />
    <glyph glyph-name="Agrave" unicode="&#xc0;" horiz-adv-x="746" 
d="M684 36q0 -46 -67 -46q-3 0 -43.5 3t-44.5 3q-3 0 -17.5 -3t-17.5 -3q-4 0 -4 3v0q0 3 -4 3t-5.5 -3t-5.5 -3q-15 0 -31.5 15.5t-16.5 29.5q0 13 12.5 29.5t31.5 23.5q0 74 -46 83q-24 5 -66 6q-29 1 -66 0q-43 -2 -35 -2q-38 0 -54 -9q-25 -14 -25 -54q0 -17 15.5 -31
t15.5 -37q0 -48 -51 -48q-3 0 -24 4.5t-25 4.5q-3 0 -30.5 -3t-31.5 -3q-18 0 -33 11.5t-15 28.5q0 28 32 50q39 28 64 75q16 30 34 90q20 65 32 91q40 93 79 187q73 154 112 154q34 0 70 -79q15 -40 29 -80q41 -81 57 -124q1 -2 27 -80q12 -26 35 -77q14 -42 28 -83
q21 -53 58 -73q11 -5 19 -24.5t8 -29.5zM656 34q1 20 -27 39q-35 24 -43 43q-38 83 -93 228q-49 129 -98 257q-11 29 -40 57q-33 -16 -87 -139l-78 -184q-22 -41 -31 -77q-15 -53 -52 -136q-3 -8 -41 -39t-38 -41q0 -15 22 -15q4 0 27 4.5t27 4.5t24 -4.5t24 -4.5
q27 0 27 18q0 -1 -15 26t-15 44q0 32 17 59q21 32 56 32h191q35 0 63 -39q25 -35 25 -66q0 -24 -8.5 -34.5t-34.5 -24.5v-12q11 -9 22 -9q3 0 21.5 3t21.5 3q4 0 43.5 -3t43.5 -3q3 0 23.5 5.5t22.5 7.5zM424 308q0 -64 -77 -64h-78q-29 0 -40.5 10t-11.5 36q0 7 30 83.5
t44.5 104.5t37.5 28q12 0 16.5 -4t15.5 -25t37 -92t26 -77zM393 305q0 6 -27 86q-28 85 -36 85q-10 0 -41 -70q-32 -73 -41 -128q16 -10 21 -10t20 3t19 3q3 0 20 -3t20 -3q45 0 45 37zM294 835q-3 2 -5 2q-11 0 -24 -27q-11 -23 -21 -46q-7 -14 9 -17l187 -39q8 -2 17 10.5
t9 24.5q0 9 -6 12zM294 807l145 -65l-5 -14l-160 40z" />
    <glyph glyph-name="Atilde" unicode="&#xc3;" horiz-adv-x="746" 
d="M684 36q0 -46 -67 -46q-3 0 -43.5 3t-44.5 3q-3 0 -17.5 -3t-17.5 -3q-4 0 -4 3v0q0 3 -4 3t-5.5 -3t-5.5 -3q-15 0 -31.5 15.5t-16.5 29.5q0 13 12.5 29.5t31.5 23.5q0 74 -46 83q-24 5 -66 6q-29 1 -66 0q-43 -2 -35 -2q-38 0 -54 -9q-25 -14 -25 -54q0 -17 15.5 -31
t15.5 -37q0 -48 -51 -48q-3 0 -24 4.5t-25 4.5q-3 0 -30.5 -3t-31.5 -3q-18 0 -33 11.5t-15 28.5q0 28 32 50q39 28 64 75q16 30 34 90q20 65 32 91q40 93 79 187q73 154 112 154q34 0 70 -79q15 -40 29 -80q41 -81 57 -124q1 -2 27 -80q12 -26 35 -77q14 -42 28 -83
q21 -53 58 -73q11 -5 19 -24.5t8 -29.5zM656 34q1 20 -27 39q-35 24 -43 43q-38 83 -93 228q-49 129 -98 257q-11 29 -40 57q-33 -16 -87 -139l-78 -184q-22 -41 -31 -77q-15 -53 -52 -136q-3 -8 -41 -39t-38 -41q0 -15 22 -15q4 0 27 4.5t27 4.5t24 -4.5t24 -4.5
q27 0 27 18q0 -1 -15 26t-15 44q0 32 17 59q21 32 56 32h191q35 0 63 -39q25 -35 25 -66q0 -24 -8.5 -34.5t-34.5 -24.5v-12q11 -9 22 -9q3 0 21.5 3t21.5 3q4 0 43.5 -3t43.5 -3q3 0 23.5 5.5t22.5 7.5zM424 308q0 -64 -77 -64h-78q-29 0 -40.5 10t-11.5 36q0 7 30 83.5
t44.5 104.5t37.5 28q12 0 16.5 -4t15.5 -25t37 -92t26 -77zM393 305q0 6 -27 86q-28 85 -36 85q-10 0 -41 -70q-32 -73 -41 -128q16 -10 21 -10t20 3t19 3q3 0 20 -3t20 -3q45 0 45 37zM392 714q13 -3 28 3l107 73q6 4 6 14q0 11 -6.5 21t-14.5 8l-116 -25q-76 32 -74 32
q-12 5 -28 -2l-107 -70q-6 -4 -6 -13q0 -10 7 -20t15 -8l109 21q20 -8 40 -17q39 -17 40 -17zM398 783q10 -4 19 4l83 19l3 -8l-86 -55q-19 -9 -29 -3q-18 7 -57 25q-17 8 -30 5l-83 -20l-4 10l85 53q12 8 27 1q36 -15 72 -31z" />
    <glyph glyph-name="Otilde" unicode="&#xd5;" horiz-adv-x="686" 
d="M619 326q0 -129 -89 -235q-94 -113 -225 -113q-120 0 -217 125q-88 115 -88 223q0 128 77 235q88 123 224 123q26 0 73 -12q43 -12 58 -20q21 -19 57 -49q69 -48 100 -139q3 -8 15 -53q15 -57 15 -85zM587 334q0 112 -84 210q-90 105 -209 105q-118 0 -197 -108
q-72 -98 -72 -217q0 -96 85 -202q91 -113 193 -113q125 0 209 107q75 97 75 218zM500 285q0 -64 -28 -122q-40 -85 -119 -85q-97 0 -173 118q-64 100 -64 177q0 64 24 122q37 86 111 86q100 0 178 -107q71 -97 71 -189zM469 282q0 82 -60 170q-67 101 -156 101
q-58 0 -89 -81q-20 -53 -20 -99q0 -65 59 -158q70 -109 150 -109q61 0 93 76q23 51 23 100zM332 714q13 -3 28 3l107 73q6 4 6 14q0 11 -6.5 21t-14.5 8l-116 -25q-76 32 -74 32q-12 5 -28 -2l-107 -70q-6 -4 -6 -13q0 -10 7 -20t15 -8l109 21q20 -8 40 -17q39 -17 40 -17z
M338 783q10 -4 19 4l83 19l3 -8l-86 -55q-19 -9 -29 -3q-18 7 -57 25q-17 8 -30 5l-83 -20l-4 10l85 53q12 8 27 1q36 -15 72 -31z" />
    <glyph glyph-name="OE" unicode="&#x152;" horiz-adv-x="814" 
d="M766 133q0 -27 -65 -91.5t-95 -64.5q-155 25 -176 25q-3 0 -21 -4.5t-22 -4.5q-45 0 -69 -3.5t-34 -3.5q-119 0 -211 122q-83 109 -83 218q0 130 68 231q80 118 216 118q4 0 87 -8.5t88 -8.5q3 0 62 9.5t63 9.5q30 0 43 -14q16 -18 50 -66q40 -55 40 -67q0 -16 -11 -29
t-23 -13q-8 0 -77.5 43t-122.5 43q-54 0 -54 -133q0 -68 25 -68q23 0 31 31t14 61q10 32 35 32q22 0 39 -28q14 -24 14 -40q0 -4 -3 -64t-3 -64v-81q0 -17 -16 -37t-32 -20q-29 0 -40 31q-5 29 -11.5 59.5t-26.5 30.5q-21 0 -26 -46v-50q0 -60 13 -76q16 -20 77 -20
q45 0 97 22q26 12 77 42q37 22 49 22q15 0 24.5 -14t9.5 -31zM737 141h-19q-2 0 -18 -13q-21 -17 -47 -30q-39 -20 -93 -33q-16 -4 -54 -4q-82 0 -103 42q-12 24 -12 112q0 47 3 57q9 43 50 43q28 0 43 -26q7 -12 18 -52q10 -34 21 -43q14 14 14 44v134q0 4 3 23t3 23
q0 18 -13 42h-11q-10 -34 -19 -69q-17 -49 -56 -49q-59 0 -59 85q0 176 90 176q49 0 97 -21q32 -15 64 -39l28 -21q5 0 9 4q-11 31 -93 120q-3 0 -67.5 -6.5t-67.5 -6.5q-5 0 -88 8t-87 8q-117 0 -192 -108q-66 -96 -66 -217q0 -98 73 -199q81 -111 182 -111q4 0 46 6.5
t46 6.5h13q9 1 12 1h42q72 0 176 -17q22 0 77.5 58t54.5 72zM307 130q-17 -28 -39 -27q-65 12 -109 88t-44 166q0 73 31 128q34 62 101 90q3 1 9 1q27 0 35 -22q22 -63 22 -251q0 -65 -3 -127q-2 -55 -3 -46zM260 543.5q-3 7.5 -9 7.5q-7 0 -19 -9q-87 -60 -87 -181
q0 -70 30.5 -135t79.5 -96q3 -2 5 -2q22 0 22 142q0 82 -6 177q-7 89 -10 89t-6 7.5z" />
    <glyph glyph-name="oe" unicode="&#x153;" horiz-adv-x="782" 
d="M334 404q-6 8 -19 20q-19 10 -71 17q-4 1 -15.5 5t-15.5 4q-29 0 -68.5 -16t-58.5 -35q-39 -42 -54 -108q-15 -61 -15 -74q0 -54 31 -108q36 -62 97 -85q45 -18 56 -18q47 0 100 27q66 32 86 83l14 -14q23 -40 55 -65q36 -29 70 -27q4 0 18.5 1.5t18.5 1.5q14 0 46.5 16
t37.5 28q2 6 20 27q14 18 14 28q0 4 -1.5 8t-6.5 11q-55 -72 -91 -72q-39 0 -52 10q-47 36 -61 64q-10 19 -10 55q0 52 108 52q4 0 36 1t36 1q22 0 31 8t9 31q0 32 -14 60q-8 16 -37 55q-16 22 -47 31q-16 4 -60 4q-30 0 -71 -29q-37 -26 -60 -59q-33 45 -56 61zM707 118
q0 -14 -7 -25.5t-14 -23.5q-28 -50 -69 -67q-27 -11 -79 -11q-32 0 -40 1q-52 5 -105 84q-9 -18 -20 -26q-94 -68 -166 -68q-24 0 -69.5 19t-55.5 34q-19 14 -48 46q-41 78 -41 138q0 19 17 88q21 81 79 126q53 41 125 41q8 0 46 -8q44 -9 67 -18q7 -9 22 -23q24 -13 43 -40
q52 61 107 71q14 3 65 3q40 0 79 -40q34 -35 43 -68q1 -6 14 -35q7 -18 7 -43q0 -39 -27 -51q-17 -8 -61 -8q-3 0 -25 1.5t-26 1.5q-20 0 -54 -7q-16 -3 -26 -17q-4 -4 -4 -13q0 -36 31 -64.5t62 -28.5q26 0 55 34.5t46 34.5q29 0 29 -38zM341 179q0 -49 -20 -87
q-25 -49 -73 -49q-42 0 -85.5 42t-58.5 92q-16 57 -16 83q0 40 20 84q5 13 31 29q23 15 32 15q3 0 18 -4t21 -5q48 -4 86 -61q28 -42 40 -94q5 -19 5 -45zM313 176q0 40 -18 83q-20 50 -56 84q-18 17 -60 17q-31 0 -49 -36q-14 -29 -14 -58q0 -26 10 -65q13 -51 31 -71
q52 -59 91 -59q35 0 53 42q12 29 12 63zM620 313q0 -44 -53 -44q-5 0 -32 1.5t-30 1.5q-52 0 -52 46q0 27 29 51.5t55 24.5q37 0 62 -28q21 -25 21 -53zM595 316q0 15 -19.5 37t-34.5 22q-18 0 -39 -22t-21 -41q0 -4 10 -13q7 0 27 -1.5t23 -1.5l8.5 -1.5t15.5 -1.5
q30 0 30 23z" />
    <glyph glyph-name="endash" unicode="&#x2013;" horiz-adv-x="545" 
d="M420 364q14 0 24 -10t10 -25v-34q0 -14 -10 -24t-24 -10h-381q-14 0 -24.5 10t-10.5 24v34q0 15 10.5 25t24.5 10h381zM420 339h-381q-10 0 -10 -10v-34q0 -9 10 -9h381q9 0 9 9v34q0 10 -9 10z" />
    <glyph glyph-name="emdash" unicode="&#x2014;" horiz-adv-x="1045" 
d="M920 364q14 0 24 -10t10 -25v-34q0 -14 -10 -24t-24 -10h-881q-14 0 -24.5 10t-10.5 24v34q0 15 10.5 25t24.5 10h881zM920 339h-881q-10 0 -10 -10v-34q0 -9 10 -9h881q9 0 9 9v34q0 10 -9 10z" />
    <glyph glyph-name="quotedblleft" unicode="&#x201c;" horiz-adv-x="374" 
d="M259 390l-5 -6q-4 -4 -9 -4h-8q-38 0 -69 58q-14 27 -14 56q0 16 5 29q8 22 8 30q0 14 22 30t46 16q28 0 48 -24.5t20 -52.5q0 -32 -28 -49q-11 -6 -21 -12t-10 -13q0 -17 17 -34q2 -20 -2 -24zM235 407q-16 24 -16 42q0 20 26.5 36t29.5 22t3 15q0 17 -13 34.5t-30 17.5
q-14 0 -28.5 -9.5t-14.5 -11.5q0 -11 -7 -30t-7 -28q0 -5 1 -10l8 -30q3 -7 10 -18q17 -20 38 -30zM150 577q-16 -19 -44 -22l-5 -2q-8 -5 -8 -20q0 -17 7 -29q5 -8 14 -19q7 -7 7 -12q0 -6 -13 -21q-4 -4 -10 -4h-9q-37 0 -67 50q-28 46 -25 83l1 15q0 8 7.5 24t7.5 19
q0 13 25.5 29.5t35.5 16.5q66 0 79 -29q11 -22 12 -28q2 -11 -2 -32q-1 -5 -13 -19zM38 636q-1 -7 -8 -22t-7 -18q0 -30 -1 -28q10 -41 23 -59q14 -21 47 -36q-24 28 -24 58q0 31 20 43q9 5 27 8q9 2 24 22q1 10 1 22l-8 16q-26 17 -55 18q-16 -8 -39 -24z" />
    <glyph glyph-name="quotedblright" unicode="&#x201d;" horiz-adv-x="394" 
d="M43 390l5 -6q3 -4 9 -4h8q37 0 69 58q14 27 14 56q0 16 -5 29q-8 22 -8 30q0 14 -22 30t-47 16q-27 0 -47 -24.5t-20 -52.5q0 -32 28 -49q11 -6 21 -12t10 -13q0 -17 -17 -34q-2 -20 2 -24zM66 407q17 24 17 42q0 20 -25 35q-28 17 -31 23t-3 15q0 17 13 34.5t30 17.5
q14 0 28.5 -9.5t14.5 -11.5q0 -11 7 -30t7 -28q0 -5 -2 -10l-8 -30q-2 -7 -9 -18q-17 -20 -39 -30zM152 577q16 -19 44 -22l5 -2q8 -5 8 -20q0 -17 -7 -29q-5 -8 -15 -19q-6 -7 -6 -12q0 -6 13 -21q4 -4 9 -4h10q37 0 67 50q28 46 25 83l-1 15q0 8 -7.5 24t-7.5 19
q0 13 -25.5 29.5t-35.5 16.5q-66 0 -80 -29q-10 -22 -11 -28q-2 -11 2 -32q1 -5 13 -19zM264 636q1 -7 8 -22t7 -18q0 -30 1 -28q-10 -41 -23 -59q-14 -21 -47 -36q24 28 24 58q0 31 -21 43q-8 5 -26 8q-9 2 -24 22q-1 10 -1 22l8 16q26 17 55 18q16 -8 39 -24z" />
    <glyph glyph-name="quoteleft" unicode="&#x2018;" horiz-adv-x="250" 
d="M150 577q-16 -19 -44 -22l-5 -2q-8 -5 -8 -20q0 -17 7 -29q5 -8 14 -19q7 -7 7 -12q0 -6 -13 -21q-4 -4 -10 -4h-9q-37 0 -67 50q-28 46 -25 83l1 15q0 8 7.5 24t7.5 19q0 13 25.5 29.5t35.5 16.5q66 0 79 -29q11 -22 12 -28q2 -11 -2 -32q-1 -5 -13 -19zM38 636
q-1 -7 -8 -22t-7 -18q0 -30 -1 -28q10 -41 23 -59q14 -21 47 -36q-24 28 -24 58q0 31 20 43q9 5 27 8q9 2 24 22q1 10 1 22l-8 16q-26 17 -55 18q-16 -8 -39 -24z" />
    <glyph glyph-name="quoteright" unicode="&#x2019;" horiz-adv-x="255" 
d="M10 577q15 -19 44 -22l4 -2q8 -5 8 -20q0 -17 -6 -29q-5 -8 -15 -19q-7 -7 -7 -12q0 -6 13 -21q4 -4 10 -4h9q37 0 67 50q28 46 26 83l-1 15q0 8 -8 24t-8 19q0 13 -25.5 29.5t-35.5 16.5q-66 0 -79 -29q-11 -22 -12 -28q-2 -11 3 -32q0 -5 13 -19zM122 636q0 -7 7.5 -22
t7.5 -18q0 -30 0 -28q-10 -41 -23 -59q-14 -21 -47 -36q24 28 24 58q0 31 -20 43q-9 5 -26 8q-10 2 -24 22q-2 10 -2 22l8 16q26 17 55 18q16 -8 40 -24z" />
    <glyph glyph-name="divide" unicode="&#xf7;" 
 />
    <glyph glyph-name="ydieresis" unicode="&#xff;" horiz-adv-x="527" 
d="M477 432q0 -19 -15 -38q-9 -15 -31 -43q-24 -23 -38 -55q-9 -26 -19 -52q-13 -33 -35 -76q-15 -29 -30 -57q-17 -43 -33 -86q-29 -73 -61 -112q-22 -27 -56 -42q-21 -10 -43 -10q-92 0 -92 70q0 23 19 46t41 23q23 0 36.5 -20.5t21.5 -20.5q14 0 26 20q8 15 27 44
q4 6 4 19q0 24 -15 52q-22 45 -28 64q-4 13 -48 92q-3 5 -31 62q-16 32 -32 49q-15 9 -38 28q-7 8 -7 34q0 34 33 34q3 0 25.5 -4.5t25.5 -4.5q4 0 35 4.5t35 4.5q19 0 36 -18t17 -34q0 -3 -8.5 -26.5t-8.5 -26.5q0 -20 15 -49q25 -46 28 -52q4 -14 9 -28q7 -19 20 -24
q12 5 18 20q20 40 54 115q7 17 7 32q0 4 -13.5 27t-13.5 27q0 37 40 37q3 0 23.5 -3t23.5 -3q4 0 16.5 1.5t16.5 1.5q16 0 29.5 -8t13.5 -14zM450 413v20l-5 -4q-37 -4 -64 -1q-4 0 -12.5 2.5t-11.5 2.5q-19 0 -19 -16q0 -2 13 -19t13 -35q0 -25 -6 -40q-15 -27 -40 -81
q-7 -17 -14 -35q-17 -35 -37 -35q-12 0 -26 12t-18 23t-36 75q-21 42 -21 71q0 4 7.5 27.5t7.5 27.5q0 22 -33 22q3 0 -32 -4q-30 -3 -46 -1q-40 6 -46 3v-17q0 -7 6 -13q11 -6 30 -19q16 -16 31 -43q22 -37 43 -73q26 -44 37 -75q8 -21 38 -84q16 -33 16 -67q0 -17 -4 -22
q-11 -20 -22 -39q-14 -25 -32 -37q-10 -7 -26 -7q-22 0 -32.5 21t-22.5 21q-10 0 -23 -15.5t-13 -27.5q0 -43 48 -43q30 0 52 9q39 17 86 104q13 33 38 92q23 44 65 131q13 32 35 85q12 28 46 69q30 36 30 35zM183 602q44 0 44 -38q0 -24 -24 -42t-49 -18q-18 0 -31 10.5
t-13 27.5q0 24 24 42t49 18zM182 582q-15 0 -33.5 -13t-18.5 -27q0 -18 23 -18q16 0 34.5 12.5t18.5 27.5q0 18 -24 18zM333 602q44 0 44 -38q0 -24 -24.5 -42t-49.5 -18q-17 0 -30 10.5t-13 27.5q0 24 24 42t49 18zM332 582q-15 0 -33.5 -13t-18.5 -27q0 -18 23 -18
q16 0 34.5 12.5t18.5 27.5q0 18 -24 18z" />
    <glyph glyph-name="Ydieresis" unicode="&#x178;" horiz-adv-x="735" 
d="M672 627q0 -10 -1 -13q-8 -22 -21 -28q-44 -21 -90 -79q-36 -48 -73 -96l-44 -48q-28 -34 -25 -56l-4 -177q0 -50 19 -68.5t19 -35.5q0 -41 -50 -41q-3 0 -26 5t-27 5t-31 -3.5t-31 -3.5q-25 0 -34 6q-12 8 -12 30v13q3 7 19 25t17 30q1 19 1 89q0 81 -1 88q-1 13 -10 46
q-4 10 -31 40q-32 36 -44 53q-18 31 -55 90q-24 36 -73 80l-24 11q-18 8 -25 24q-4 9 -4 15q0 40 63 40q4 0 31 -3t31 -3t44 3t43 3q13 0 24.5 -10t11.5 -25q0 -4 -6 -23.5t-6 -23.5q0 -13 53 -85t65 -72q28 0 76 75q45 67 45 82q0 3 -8 24t-8 26q0 15 18 24q14 8 30 8
q4 0 37 -4.5t36 -4.5q4 0 23 3t22 3q15 0 25.5 -13t10.5 -25zM650 630q0 4 -1.5 6.5t-1.5 3.5q-58 -6 -60 -6q-4 0 -33 5t-32 5q-14 0 -20.5 -4.5t-6.5 -10.5q19 -31 19 -43q0 -32 -54 -105q-58 -77 -95 -77q-26 0 -84.5 77t-58.5 105q0 3 4.5 24.5t4.5 29.5q-44 5 -73 -1
q-9 -2 -18 -2q-4 0 -36 3.5t-36 3.5q-19 0 -20 -1q-12 -2 -12 -15q0 -11 7 -15q48 -20 88 -71q9 -10 76 -112q39 -41 85 -105q14 -38 14 -76q0 -4 -2 -23q-2 -22 -3 -28q3 -42 0 -118q-1 -10 -18 -34.5t-14 -29.5h47q19 2 56 2q5 0 14 -2.5t13 -2.5q12 0 25 7v14l-20 20
q-10 12 -14 24t-4 49q0 2 2 35.5t2 47.5q0 36 -1 72q1 42 11 64q16 38 49 68q19 18 55.5 68t40.5 53q13 14 27 28t65 44q13 8 13 23zM282 821q21 0 36.5 -12t15.5 -33q0 -28 -28.5 -49.5t-57.5 -21.5q-21 0 -36.5 12.5t-15.5 32.5q0 28 30 50q27 21 56 21zM281 797
q-17 0 -39 -15t-22 -32q0 -21 27 -21q19 0 41 14.5t22 32.5q0 21 -29 21zM458 821q22 0 37 -12t15 -33q0 -28 -28.5 -49.5t-57.5 -21.5q-20 0 -35.5 12.5t-15.5 32.5q0 28 28.5 49.5t56.5 21.5zM457 797q-17 0 -38.5 -15t-21.5 -32q0 -21 27 -21q19 0 40.5 14.5t21.5 32.5
q0 21 -29 21z" />
    <glyph glyph-name="currency" unicode="&#xa4;" 
 />
    <glyph glyph-name="guilsinglleft" unicode="&#x2039;" horiz-adv-x="231" 
d="M137 427l7 -8q4 -4 0 -13l-65 -145l68 -147q4 -9 0 -13l-8 -8q-3 -3 -13 0q-5 2 -56 79.5t-55 81.5q-6 5 0 13l109 160q5 8 13 0z" />
    <glyph glyph-name="guilsinglright" unicode="&#x203a;" horiz-adv-x="207" 
d="M25 93l-8 8q-4 4 0 13l65 145l-67 147q-4 9 0 13l7 8q4 3 13 0q5 -2 56 -80t56 -81q5 -5 0 -13l-109 -160q-6 -8 -13 0z" />
    <glyph glyph-name="daggerdbl" unicode="&#x2021;" 
 />
    <glyph glyph-name="periodcentered" unicode="&#xb7;" horiz-adv-x="249" 
d="M21 389q-2 -3 -4 -7l-4 -6q-4 -7 -9 -13q-6 -10 -6 -14q12 -66 23.5 -77.5t72.5 -14.5q5 1 8 2q60 37 60 83q0 55 -86 74q-7 1 -28 -9.5t-27 -17.5zM75 390q62 -14 62 -50q0 -29 -45 -58q-23 0 -52 6q-7 6 -16 59q7 9 11 17l3 6q4 7 37 20z" />
    <glyph glyph-name="periodcentered" unicode="&#x2219;" horiz-adv-x="249" 
d="M21 389q-2 -3 -4 -7l-4 -6q-4 -7 -9 -13q-6 -10 -6 -14q12 -66 23.5 -77.5t72.5 -14.5q5 1 8 2q60 37 60 83q0 55 -86 74q-7 1 -28 -9.5t-27 -17.5zM75 390q62 -14 62 -50q0 -29 -45 -58q-23 0 -52 6q-7 6 -16 59q7 9 11 17l3 6q4 7 37 20z" />
    <glyph glyph-name="quotesinglbase" unicode="&#x201a;" horiz-adv-x="269" 
d="M2 74q0 33 30.5 59.5t64.5 26.5q24 0 39 -16l24 -24q4 -4 10.5 -30t5.5 -31q-8 -65 -64 -110q-47 -36 -89 -36q-18 0 -21 9q-7 21 -7 23q0 4 8 21q13 9 35 38l-2 10q-34 33 -34 60zM140 104l-20 21q-19 6 -32 6q-31 0 -61 -49q-2 -24 15.5 -40t17.5 -20q3 -20 2 -23
q-7 -28 -38 -47l-3 -7l2 -6q48 2 85.5 40t42.5 82l-1 6q-4 17 -8 32z" />
    <glyph glyph-name="quotedblbase" unicode="&#x201e;" horiz-adv-x="489" 
d="M222 74q0 33 30.5 59.5t64.5 26.5q24 0 39 -16l24 -24q4 -4 10.5 -30t5.5 -31q-8 -65 -64 -110q-47 -36 -89 -36q-18 0 -21 9q-7 21 -7 23q0 4 8 21q13 9 35 38l-2 10q-34 33 -34 60zM360 104l-20 21q-19 6 -32 6q-31 0 -61 -49q-2 -24 15.5 -40t17.5 -20q3 -20 2 -23
q-7 -28 -38 -47l-3 -7l2 -6q48 2 85.5 40t42.5 82l-1 6q-4 17 -8 32zM2 74q0 33 30.5 59.5t64.5 26.5q24 0 39 -16l24 -24q4 -4 10.5 -30t5.5 -31q-8 -65 -64 -110q-47 -36 -89 -36q-18 0 -21 9q-7 21 -7 23q0 4 8 21q13 9 35 38l-2 10q-34 33 -34 60zM140 104l-20 21
q-19 6 -32 6q-31 0 -61 -49q-2 -24 15.5 -40t17.5 -20q3 -20 2 -23q-7 -28 -38 -47l-3 -7l2 -6q48 2 85.5 40t42.5 82l-1 6q-4 17 -8 32z" />
    <glyph glyph-name="perthousand" unicode="&#x2030;" 
 />
    <glyph glyph-name="Acircumflex" unicode="&#xc2;" horiz-adv-x="739" 
d="M684 36q0 -46 -67 -46q-3 0 -43.5 3t-44.5 3q-3 0 -17.5 -3t-17.5 -3q-4 0 -4 3v0q0 3 -4 3t-5.5 -3t-5.5 -3q-15 0 -31.5 15.5t-16.5 29.5q0 13 12.5 29.5t31.5 23.5q0 74 -46 83q-24 5 -66 6q-29 1 -66 0q-43 -2 -35 -2q-38 0 -54 -9q-25 -14 -25 -54q0 -17 15.5 -31
t15.5 -37q0 -48 -51 -48q-3 0 -24 4.5t-25 4.5q-3 0 -30.5 -3t-31.5 -3q-18 0 -33 11.5t-15 28.5q0 28 32 50q39 28 64 75q16 30 34 90q20 65 32 91q40 93 79 187q73 154 112 154q34 0 70 -79q15 -40 29 -80q41 -81 57 -124q1 -2 27 -80q12 -26 35 -77q14 -42 28 -83
q21 -53 58 -73q11 -5 19 -24.5t8 -29.5zM656 34q1 20 -27 39q-35 24 -43 43q-38 83 -93 228q-49 129 -98 257q-11 29 -40 57q-33 -16 -87 -139l-78 -184q-22 -41 -31 -77q-15 -53 -52 -136q-3 -8 -41 -39t-38 -41q0 -15 22 -15q4 0 27 4.5t27 4.5t24 -4.5t24 -4.5
q27 0 27 18q0 -1 -15 26t-15 44q0 32 17 59q21 32 56 32h191q35 0 63 -39q25 -35 25 -66q0 -24 -8.5 -34.5t-34.5 -24.5v-12q11 -9 22 -9q3 0 21.5 3t21.5 3q4 0 43.5 -3t43.5 -3q3 0 23.5 5.5t22.5 7.5zM424 308q0 -64 -77 -64h-78q-29 0 -40.5 10t-11.5 36q0 7 30 83.5
t44.5 104.5t37.5 28q12 0 16.5 -4t15.5 -25t37 -92t26 -77zM393 305q0 6 -27 86q-28 85 -36 85q-10 0 -41 -70q-32 -73 -41 -128q16 -10 21 -10t20 3t19 3q3 0 20 -3t20 -3q45 0 45 37zM339 847q8 5 16 0l144 -92q6 -4 6 -16t-6.5 -22.5t-16.5 -8.5l-137 28l-133 -34
q-10 -2 -20 10t-10 24q0 9 6 12zM223 736l117 29h8l115 -23l-116 75z" />
    <glyph glyph-name="Ecircumflex" unicode="&#xca;" horiz-adv-x="596" 
d="M548 133q0 -27 -65 -91.5t-95 -64.5q-154 25 -176 25q-3 0 -21 -4.5t-22 -4.5q-45 0 -64 -3.5t-29 -3.5q-76 0 -76 50q0 17 16 32q23 21 33 41q16 35 16 99q0 -1 -4 49.5t-3 104.5q0 12 1 47q1 31 1 46q0 7 1 31q2 21 1 34q-1 19 -7 31q-9 18 -33 37q-16 14 -16 38
q0 26 26 40q21 11 50 11q3 0 73.5 -9.5t75.5 -9.5q3 0 62 9.5t63 9.5q30 0 43 -14q16 -18 50 -66q40 -55 40 -67q0 -16 -11 -29t-23 -13q-7 0 -77 43t-123 43q-54 0 -54 -133q0 -68 25 -68q23 0 31 31t14 61q10 32 35 32q22 0 39 -28q14 -24 14 -40q0 -4 -3 -64t-3 -64v-81
q0 -17 -16 -37t-32 -20q-29 0 -39 31q-6 29 -12.5 59.5t-26.5 30.5q-21 0 -26 -46v-50q0 -60 13 -76q16 -20 77 -20q45 0 97 22q26 12 77 42q37 22 49 22q15 0 24.5 -14t9.5 -31zM519 141h-19q-2 0 -18 -13q-21 -17 -47 -30q-39 -20 -93 -33q-16 -4 -54 -4q-82 0 -103 42
q-12 24 -12 112q0 47 3 57q9 43 50 43q28 0 43 -26q7 -12 18 -52q10 -34 21 -43q14 14 14 44v134q0 4 3 23t3 23q0 18 -13 42h-11q-9 -34 -19 -69q-16 -49 -56 -49q-59 0 -59 85q0 176 90 176q49 0 97 -21q32 -15 64 -39l28 -21q5 0 9 4q-11 31 -93 120q-3 0 -67.5 -6.5
t-67.5 -6.5q-4 0 -73.5 6.5t-72.5 6.5q-50 0 -50 -24q15 -18 24 -31q25 -36 32 -65l-3 -266q6 -32 6 -51q0 -67 -17 -109q-4 -11 -26 -35.5t-22 -26.5q0 -9 10 -16.5t24 -7.5q4 0 41 6.5t41 6.5h13q9 1 12 1h42q72 0 176 -17q22 0 77.5 58t54.5 72zM219 847q8 5 16 0
l144 -92q6 -4 6 -16t-6.5 -22.5t-16.5 -8.5l-137 28l-133 -34q-10 -2 -20 10t-10 24q0 9 6 12zM103 736l117 29h8l115 -23l-116 75z" />
    <glyph glyph-name="Aacute" unicode="&#xc1;" horiz-adv-x="746" 
d="M684 36q0 -46 -67 -46q-3 0 -43.5 3t-44.5 3q-3 0 -17.5 -3t-17.5 -3q-4 0 -4 3v0q0 3 -4 3t-5.5 -3t-5.5 -3q-15 0 -31.5 15.5t-16.5 29.5q0 13 12.5 29.5t31.5 23.5q0 74 -46 83q-24 5 -66 6q-29 1 -66 0q-43 -2 -35 -2q-38 0 -54 -9q-25 -14 -25 -54q0 -17 15.5 -31
t15.5 -37q0 -48 -51 -48q-3 0 -24 4.5t-25 4.5q-3 0 -30.5 -3t-31.5 -3q-18 0 -33 11.5t-15 28.5q0 28 32 50q39 28 64 75q16 30 34 90q20 65 32 91q40 93 79 187q73 154 112 154q34 0 70 -79q15 -40 29 -80q41 -81 57 -124q1 -2 27 -80q12 -26 35 -77q14 -42 28 -83
q21 -53 58 -73q11 -5 19 -24.5t8 -29.5zM656 34q1 20 -27 39q-35 24 -43 43q-38 83 -93 228q-49 129 -98 257q-11 29 -40 57q-33 -16 -87 -139l-78 -184q-22 -41 -31 -77q-15 -53 -52 -136q-3 -8 -41 -39t-38 -41q0 -15 22 -15q4 0 27 4.5t27 4.5t24 -4.5t24 -4.5
q27 0 27 18q0 -1 -15 26t-15 44q0 32 17 59q21 32 56 32h191q35 0 63 -39q25 -35 25 -66q0 -24 -8.5 -34.5t-34.5 -24.5v-12q11 -9 22 -9q3 0 21.5 3t21.5 3q4 0 43.5 -3t43.5 -3q3 0 23.5 5.5t22.5 7.5zM424 308q0 -64 -77 -64h-78q-29 0 -40.5 10t-11.5 36q0 7 30 83.5
t44.5 104.5t37.5 28q12 0 16.5 -4t15.5 -25t37 -92t26 -77zM393 305q0 6 -27 86q-28 85 -36 85q-10 0 -41 -70q-32 -73 -41 -128q16 -10 21 -10t20 3t19 3q3 0 20 -3t20 -3q45 0 45 37zM412 835q3 2 5 2q11 0 24 -27l20 -46q8 -14 -8 -17l-187 -39q-8 -2 -17 10.5t-9 24.5
q0 9 6 12zM412 807l-146 -65l6 -14l160 40z" />
    <glyph glyph-name="Edieresis" unicode="&#xcb;" horiz-adv-x="596" 
d="M548 133q0 -27 -65 -91.5t-95 -64.5q-154 25 -176 25q-3 0 -21 -4.5t-22 -4.5q-45 0 -64 -3.5t-29 -3.5q-76 0 -76 50q0 17 16 32q23 21 33 41q16 35 16 99q0 -1 -4 49.5t-3 104.5q0 12 1 47q1 31 1 46q0 7 1 31q2 21 1 34q-1 19 -7 31q-9 18 -33 37q-16 14 -16 38
q0 26 26 40q21 11 50 11q3 0 73.5 -9.5t75.5 -9.5q3 0 62 9.5t63 9.5q30 0 43 -14q16 -18 50 -66q40 -55 40 -67q0 -16 -11 -29t-23 -13q-7 0 -77 43t-123 43q-54 0 -54 -133q0 -68 25 -68q23 0 31 31t14 61q10 32 35 32q22 0 39 -28q14 -24 14 -40q0 -4 -3 -64t-3 -64v-81
q0 -17 -16 -37t-32 -20q-29 0 -39 31q-6 29 -12.5 59.5t-26.5 30.5q-21 0 -26 -46v-50q0 -60 13 -76q16 -20 77 -20q45 0 97 22q26 12 77 42q37 22 49 22q15 0 24.5 -14t9.5 -31zM519 141h-19q-2 0 -18 -13q-21 -17 -47 -30q-39 -20 -93 -33q-16 -4 -54 -4q-82 0 -103 42
q-12 24 -12 112q0 47 3 57q9 43 50 43q28 0 43 -26q7 -12 18 -52q10 -34 21 -43q14 14 14 44v134q0 4 3 23t3 23q0 18 -13 42h-11q-9 -34 -19 -69q-16 -49 -56 -49q-59 0 -59 85q0 176 90 176q49 0 97 -21q32 -15 64 -39l28 -21q5 0 9 4q-11 31 -93 120q-3 0 -67.5 -6.5
t-67.5 -6.5q-4 0 -73.5 6.5t-72.5 6.5q-50 0 -50 -24q15 -18 24 -31q25 -36 32 -65l-3 -266q6 -32 6 -51q0 -67 -17 -109q-4 -11 -26 -35.5t-22 -26.5q0 -9 10 -16.5t24 -7.5q4 0 41 6.5t41 6.5h13q9 1 12 1h42q72 0 176 -17q22 0 77.5 58t54.5 72zM172 821q21 0 36.5 -12
t15.5 -33q0 -28 -28.5 -49.5t-57.5 -21.5q-21 0 -36.5 12.5t-15.5 32.5q0 28 30 50q27 21 56 21zM171 797q-17 0 -39 -15t-22 -32q0 -21 27 -21q19 0 41 14.5t22 32.5q0 21 -29 21zM348 821q22 0 37 -12t15 -33q0 -28 -28.5 -49.5t-57.5 -21.5q-20 0 -35.5 12.5t-15.5 32.5
q0 28 28.5 49.5t56.5 21.5zM347 797q-17 0 -38.5 -15t-21.5 -32q0 -21 27 -21q19 0 40.5 14.5t21.5 32.5q0 21 -29 21z" />
    <glyph glyph-name="Egrave" unicode="&#xc8;" horiz-adv-x="596" 
d="M548 133q0 -27 -65 -91.5t-95 -64.5q-154 25 -176 25q-3 0 -21 -4.5t-22 -4.5q-45 0 -64 -3.5t-29 -3.5q-76 0 -76 50q0 17 16 32q23 21 33 41q16 35 16 99q0 -1 -4 49.5t-3 104.5q0 12 1 47q1 31 1 46q0 7 1 31q2 21 1 34q-1 19 -7 31q-9 18 -33 37q-16 14 -16 38
q0 26 26 40q21 11 50 11q3 0 73.5 -9.5t75.5 -9.5q3 0 62 9.5t63 9.5q30 0 43 -14q16 -18 50 -66q40 -55 40 -67q0 -16 -11 -29t-23 -13q-7 0 -77 43t-123 43q-54 0 -54 -133q0 -68 25 -68q23 0 31 31t14 61q10 32 35 32q22 0 39 -28q14 -24 14 -40q0 -4 -3 -64t-3 -64v-81
q0 -17 -16 -37t-32 -20q-29 0 -39 31q-6 29 -12.5 59.5t-26.5 30.5q-21 0 -26 -46v-50q0 -60 13 -76q16 -20 77 -20q45 0 97 22q26 12 77 42q37 22 49 22q15 0 24.5 -14t9.5 -31zM519 141h-19q-2 0 -18 -13q-21 -17 -47 -30q-39 -20 -93 -33q-16 -4 -54 -4q-82 0 -103 42
q-12 24 -12 112q0 47 3 57q9 43 50 43q28 0 43 -26q7 -12 18 -52q10 -34 21 -43q14 14 14 44v134q0 4 3 23t3 23q0 18 -13 42h-11q-9 -34 -19 -69q-16 -49 -56 -49q-59 0 -59 85q0 176 90 176q49 0 97 -21q32 -15 64 -39l28 -21q5 0 9 4q-11 31 -93 120q-3 0 -67.5 -6.5
t-67.5 -6.5q-4 0 -73.5 6.5t-72.5 6.5q-50 0 -50 -24q15 -18 24 -31q25 -36 32 -65l-3 -266q6 -32 6 -51q0 -67 -17 -109q-4 -11 -26 -35.5t-22 -26.5q0 -9 10 -16.5t24 -7.5q4 0 41 6.5t41 6.5h13q9 1 12 1h42q72 0 176 -17q22 0 77.5 58t54.5 72zM175 835q-3 2 -5 2
q-11 0 -24 -27l-20 -46q-8 -14 8 -17l187 -39q8 -2 17 10.5t9 24.5q0 9 -6 12zM175 807l145 -65l-5 -14l-160 40z" />
    <glyph glyph-name="Iacute" unicode="&#xcd;" horiz-adv-x="292" 
d="M216 630q0 -10 -19.5 -35t-22.5 -41q-4 -21 -1 -55q3 -49 3 -57l-6 -323q0 -28 12 -52.5t12 -26.5q0 -15 -15.5 -28t-28.5 -13q-56 10 -115 0q-35 0 -35 38q0 2 19 48t19 54q1 175 3 286q2 98 2 95q0 39 -16 72.5t-16 43.5q-1 32 58 37q18 -3 41 -4q16 0 36.5 1t19.5 1
q19 0 34 -9q16 -12 16 -32zM186 626q0 21 -24 21q-4 0 -26 -2.5t-26 -2.5t-17.5 3t-17.5 3q-40 0 -40 -15q0 1 17.5 -35t17.5 -84l-6 -380q-6 -33 -12 -49q-4 -11 -12 -26.5t-8 -19.5q0 -5 6.5 -11t12.5 -6q18 7 23 7q-2 0 14 -2.5t45 -1.5q12 0 29 5q5 7 1 16
q-7 13 -13.5 25t-6.5 54l6 369q-4 18 -4 34q0 38 20.5 68zM172 835q3 2 5 2q11 0 24 -27l20 -46q8 -14 -8 -17l-187 -39q-8 -2 -17 10.5t-9 24.5q0 9 6 12zM172 807l-146 -65l6 -14l160 40z" />
    <glyph glyph-name="Icircumflex" unicode="&#xce;" horiz-adv-x="292" 
d="M216 630q0 -10 -19.5 -35t-22.5 -41q-4 -21 -1 -55q3 -49 3 -57l-6 -323q0 -28 12 -52.5t12 -26.5q0 -15 -15.5 -28t-28.5 -13q-56 10 -115 0q-35 0 -35 38q0 2 19 48t19 54q1 175 3 286q2 98 2 95q0 39 -16 72.5t-16 43.5q-1 32 58 37q18 -3 41 -4q16 0 36.5 1t19.5 1
q19 0 34 -9q16 -12 16 -32zM186 626q0 21 -24 21q-4 0 -26 -2.5t-26 -2.5t-17.5 3t-17.5 3q-40 0 -40 -15q0 1 17.5 -35t17.5 -84l-6 -380q-6 -33 -12 -49q-4 -11 -12 -26.5t-8 -19.5q0 -5 6.5 -11t12.5 -6q18 7 23 7q-2 0 14 -2.5t45 -1.5q12 0 29 5q5 7 1 16
q-7 13 -13.5 25t-6.5 54l6 369q-4 18 -4 34q0 38 20.5 68zM99 847q8 6 16 0l114 -92q6 -5 6 -17t-6.5 -22t-16.5 -8l-107 28l-103 -34q-10 -3 -19.5 9t-9.5 25q0 8 5 12zM13 736l87 29h8l85 -23l-86 75z" />
    <glyph glyph-name="Idieresis" unicode="&#xcf;" horiz-adv-x="292" 
d="M216 630q0 -10 -19.5 -35t-22.5 -41q-4 -21 -1 -55q3 -49 3 -57l-6 -323q0 -28 12 -52.5t12 -26.5q0 -15 -15.5 -28t-28.5 -13q-56 10 -115 0q-35 0 -35 38q0 2 19 48t19 54q1 175 3 286q2 98 2 95q0 39 -16 72.5t-16 43.5q-1 32 58 37q18 -3 41 -4q16 0 36.5 1t19.5 1
q19 0 34 -9q16 -12 16 -32zM186 626q0 21 -24 21q-4 0 -26 -2.5t-26 -2.5t-17.5 3t-17.5 3q-40 0 -40 -15q0 1 17.5 -35t17.5 -84l-6 -380q-6 -33 -12 -49q-4 -11 -12 -26.5t-8 -19.5q0 -5 6.5 -11t12.5 -6q18 7 23 7q-2 0 14 -2.5t45 -1.5q12 0 29 5q5 7 1 16
q-7 13 -13.5 25t-6.5 54l6 369q-4 18 -4 34q0 38 20.5 68zM42 821q21 0 36.5 -12t15.5 -33q0 -28 -28.5 -49.5t-57.5 -21.5q-21 0 -36.5 12.5t-15.5 32.5q0 28 30 50q27 21 56 21zM41 797q-17 0 -39 -15t-22 -32q0 -21 27 -21q19 0 41 14.5t22 32.5q0 21 -29 21zM218 821
q22 0 37 -12t15 -33q0 -28 -28.5 -49.5t-57.5 -21.5q-20 0 -35.5 12.5t-15.5 32.5q0 28 28.5 49.5t56.5 21.5zM217 797q-17 0 -38.5 -15t-21.5 -32q0 -21 27 -21q19 0 40.5 14.5t21.5 32.5q0 21 -29 21z" />
    <glyph glyph-name="Igrave" unicode="&#xcc;" horiz-adv-x="292" 
d="M216 630q0 -10 -19.5 -35t-22.5 -41q-4 -21 -1 -55q3 -49 3 -57l-6 -323q0 -28 12 -52.5t12 -26.5q0 -15 -15.5 -28t-28.5 -13q-56 10 -115 0q-35 0 -35 38q0 2 19 48t19 54q1 175 3 286q2 98 2 95q0 39 -16 72.5t-16 43.5q-1 32 58 37q18 -3 41 -4q16 0 36.5 1t19.5 1
q19 0 34 -9q16 -12 16 -32zM186 626q0 21 -24 21q-4 0 -26 -2.5t-26 -2.5t-17.5 3t-17.5 3q-40 0 -40 -15q0 1 17.5 -35t17.5 -84l-6 -380q-6 -33 -12 -49q-4 -11 -12 -26.5t-8 -19.5q0 -5 6.5 -11t12.5 -6q18 7 23 7q-2 0 14 -2.5t45 -1.5q12 0 29 5q5 7 1 16
q-7 13 -13.5 25t-6.5 54l6 369q-4 18 -4 34q0 38 20.5 68zM59 835q-2 2 -5 2q-11 0 -24 -27l-20 -46q-7 -14 8 -17l187 -39q9 -2 18 10.5t9 24.5q0 9 -7 12zM59 807l146 -65l-6 -14l-160 40z" />
    <glyph glyph-name="Oacute" unicode="&#xd3;" horiz-adv-x="686" 
d="M619 326q0 -129 -89 -235q-94 -113 -225 -113q-120 0 -217 125q-88 115 -88 223q0 128 77 235q88 123 224 123q26 0 73 -12q43 -12 58 -20q21 -19 57 -49q69 -48 100 -139q3 -8 15 -53q15 -57 15 -85zM587 334q0 112 -84 210q-90 105 -209 105q-118 0 -197 -108
q-72 -98 -72 -217q0 -96 85 -202q91 -113 193 -113q125 0 209 107q75 97 75 218zM500 285q0 -64 -28 -122q-40 -85 -119 -85q-97 0 -173 118q-64 100 -64 177q0 64 24 122q37 86 111 86q100 0 178 -107q71 -97 71 -189zM469 282q0 82 -60 170q-67 101 -156 101
q-58 0 -89 -81q-20 -53 -20 -99q0 -65 59 -158q70 -109 150 -109q61 0 93 76q23 51 23 100zM362 835q3 2 5 2q11 0 24 -27l20 -46q8 -14 -8 -17l-187 -39q-8 -2 -17 10.5t-9 24.5q0 9 6 12zM362 807l-146 -65l6 -14l160 40z" />
    <glyph glyph-name="Ocircumflex" unicode="&#xd4;" horiz-adv-x="686" 
d="M619 326q0 -129 -89 -235q-94 -113 -225 -113q-120 0 -217 125q-88 115 -88 223q0 128 77 235q88 123 224 123q26 0 73 -12q43 -12 58 -20q21 -19 57 -49q69 -48 100 -139q3 -8 15 -53q15 -57 15 -85zM587 334q0 112 -84 210q-90 105 -209 105q-118 0 -197 -108
q-72 -98 -72 -217q0 -96 85 -202q91 -113 193 -113q125 0 209 107q75 97 75 218zM500 285q0 -64 -28 -122q-40 -85 -119 -85q-97 0 -173 118q-64 100 -64 177q0 64 24 122q37 86 111 86q100 0 178 -107q71 -97 71 -189zM469 282q0 82 -60 170q-67 101 -156 101
q-58 0 -89 -81q-20 -53 -20 -99q0 -65 59 -158q70 -109 150 -109q61 0 93 76q23 51 23 100zM299 847q8 5 16 0l144 -92q6 -4 6 -16t-6.5 -22.5t-16.5 -8.5l-137 28l-133 -34q-10 -2 -20 10t-10 24q0 9 6 12zM183 736l117 29h8l115 -23l-116 75z" />
    <glyph glyph-name="Ograve" unicode="&#xd2;" horiz-adv-x="686" 
d="M619 326q0 -129 -89 -235q-94 -113 -225 -113q-120 0 -217 125q-88 115 -88 223q0 128 77 235q88 123 224 123q26 0 73 -12q43 -12 58 -20q21 -19 57 -49q69 -48 100 -139q3 -8 15 -53q15 -57 15 -85zM587 334q0 112 -84 210q-90 105 -209 105q-118 0 -197 -108
q-72 -98 -72 -217q0 -96 85 -202q91 -113 193 -113q125 0 209 107q75 97 75 218zM500 285q0 -64 -28 -122q-40 -85 -119 -85q-97 0 -173 118q-64 100 -64 177q0 64 24 122q37 86 111 86q100 0 178 -107q71 -97 71 -189zM469 282q0 82 -60 170q-67 101 -156 101
q-58 0 -89 -81q-20 -53 -20 -99q0 -65 59 -158q70 -109 150 -109q61 0 93 76q23 51 23 100zM227 835q-3 2 -5 2q-11 0 -25 -27l-20 -46q-7 -14 9 -17l187 -39q8 -2 17 10.5t9 24.5q0 9 -6 12zM227 807l145 -65l-5 -14l-160 40z" />
    <glyph glyph-name="Uacute" unicode="&#xda;" horiz-adv-x="670" 
d="M649 630q0 -16 -31 -42.5t-31 -59.5v-153q0 -12 -18 -110q-19 -105 -21 -120q-6 -54 -85 -113q-72 -53 -115 -53h-13q-118 0 -196 94q-75 90 -90 237q-5 87 -22 239q-4 21 -17 42q-10 18 -10 34q0 22 16.5 36t36.5 14q3 0 30.5 -6.5t31.5 -6.5t28.5 3t28.5 3q67 0 67 -51
q0 -13 -15 -33q-21 -28 -29 -45q-15 -35 -15 -85q0 -99 34 -210q47 -156 132 -156q94 0 130 167q18 83 18 192v74q0 15 -20.5 56.5t-20.5 59.5q0 5 8.5 19t14.5 14q32 5 123 5q16 0 33 -14.5t17 -30.5zM609 620q0 3 -17 20h-25h-70q-9 0 -7 -3q3 -8 -1 -14q5 -22 22 -58
q14 -27 14 -56q0 -170 -18 -259q-39 -193 -156 -193q-48 0 -60 6q-66 39 -108 178q-34 110 -34 196q0 43 13 108q4 17 25 36t21 35q0 28 -26 28q-4 0 -33 -5t-33 -5q-3 0 -29 6.5t-30 6.5q-18 0 -32 -13q13 -34 30 -92q0 -29 2 -80q0 -13 9 -58q8 -40 6 -57q-3 -42 21 -118
q29 -88 76 -145q58 -71 129 -71h40q118 0 177 141q41 99 41 208v116q0 77 27 117q4 5 15 13.5t11 11.5zM382 835q3 2 5 2q11 0 24 -27l20 -46q8 -14 -8 -17l-187 -39q-8 -2 -17 10.5t-9 24.5q0 9 6 12zM382 807l-146 -65l6 -14l160 40z" />
    <glyph glyph-name="Ucircumflex" unicode="&#xdb;" horiz-adv-x="671" 
d="M649 630q0 -16 -31 -42.5t-31 -59.5v-153q0 -12 -18 -110q-19 -105 -21 -120q-6 -54 -85 -113q-72 -53 -115 -53h-13q-118 0 -196 94q-75 90 -90 237q-5 87 -22 239q-4 21 -17 42q-10 18 -10 34q0 22 16.5 36t36.5 14q3 0 30.5 -6.5t31.5 -6.5t28.5 3t28.5 3q67 0 67 -51
q0 -13 -15 -33q-21 -28 -29 -45q-15 -35 -15 -85q0 -99 34 -210q47 -156 132 -156q94 0 130 167q18 83 18 192v74q0 15 -20.5 56.5t-20.5 59.5q0 5 8.5 19t14.5 14q32 5 123 5q16 0 33 -14.5t17 -30.5zM609 620q0 3 -17 20h-25h-70q-9 0 -7 -3q3 -8 -1 -14q5 -22 22 -58
q14 -27 14 -56q0 -170 -18 -259q-39 -193 -156 -193q-48 0 -60 6q-66 39 -108 178q-34 110 -34 196q0 43 13 108q4 17 25 36t21 35q0 28 -26 28q-4 0 -33 -5t-33 -5q-3 0 -29 6.5t-30 6.5q-18 0 -32 -13q13 -34 30 -92q0 -29 2 -80q0 -13 9 -58q8 -40 6 -57q-3 -42 21 -118
q29 -88 76 -145q58 -71 129 -71h40q118 0 177 141q41 99 41 208v116q0 77 27 117q4 5 15 13.5t11 11.5zM309 847q8 5 16 0l144 -92q6 -4 6 -16t-6.5 -22.5t-16.5 -8.5l-137 28l-133 -34q-10 -2 -20 10t-10 24q0 9 6 12zM193 736l117 29h8l115 -23l-116 75z" />
    <glyph glyph-name="Ugrave" unicode="&#xd9;" horiz-adv-x="670" 
d="M649 630q0 -16 -31 -42.5t-31 -59.5v-153q0 -12 -18 -110q-19 -105 -21 -120q-6 -54 -85 -113q-72 -53 -115 -53h-13q-118 0 -196 94q-75 90 -90 237q-5 87 -22 239q-4 21 -17 42q-10 18 -10 34q0 22 16.5 36t36.5 14q3 0 30.5 -6.5t31.5 -6.5t28.5 3t28.5 3q67 0 67 -51
q0 -13 -15 -33q-21 -28 -29 -45q-15 -35 -15 -85q0 -99 34 -210q47 -156 132 -156q94 0 130 167q18 83 18 192v74q0 15 -20.5 56.5t-20.5 59.5q0 5 8.5 19t14.5 14q32 5 123 5q16 0 33 -14.5t17 -30.5zM609 620q0 3 -17 20h-25h-70q-9 0 -7 -3q3 -8 -1 -14q5 -22 22 -58
q14 -27 14 -56q0 -170 -18 -259q-39 -193 -156 -193q-48 0 -60 6q-66 39 -108 178q-34 110 -34 196q0 43 13 108q4 17 25 36t21 35q0 28 -26 28q-4 0 -33 -5t-33 -5q-3 0 -29 6.5t-30 6.5q-18 0 -32 -13q13 -34 30 -92q0 -29 2 -80q0 -13 9 -58q8 -40 6 -57q-3 -42 21 -118
q29 -88 76 -145q58 -71 129 -71h40q118 0 177 141q41 99 41 208v116q0 77 27 117q4 5 15 13.5t11 11.5zM251 835q-2 2 -4 2q-12 0 -25 -27l-20 -46q-7 -14 9 -17l187 -39q8 -2 17 10.5t9 24.5q0 9 -7 12zM252 807l145 -65l-5 -14l-160 40z" />
    <glyph glyph-name="circumflex" unicode="&#x2c6;" horiz-adv-x="322" 
d="M179 847q8 5 16 0l144 -92q6 -4 6 -16t-6.5 -22.5t-16.5 -8.5l-137 28l-133 -34q-10 -2 -20 10t-10 24q0 9 6 12zM63 736l117 29h8l115 -23l-116 75z" />
    <glyph glyph-name="tilde" unicode="&#x2dc;" horiz-adv-x="339" 
d="M222 714q13 -3 28 3l107 73q6 4 6 14q0 11 -6.5 21t-14.5 8l-116 -25q-76 32 -74 32q-12 5 -28 -2l-107 -70q-6 -4 -6 -13q0 -10 7 -20t15 -8l109 21q20 -8 40 -17q39 -17 40 -17zM228 783q10 -4 19 4l83 19l3 -8l-86 -55q-19 -9 -29 -3q-18 7 -57 25q-17 8 -30 5
l-83 -20l-4 10l85 53q12 8 27 1q36 -15 72 -31z" />
    <glyph glyph-name="macron" unicode="&#xaf;" horiz-adv-x="304" 
d="M193 753q-27 1 -72 -1q-53 -2 -71 -2q-28 0 -28 29q0 24 19.5 48t46.5 24q12 0 36 -2q34 -3 92 -1q68 4 92 3q12 0 17 -7q9 -10 -1 -38q-19 -57 -68 -57q-9 0 -28 2q-23 1 -35 2zM290 822q-21 0 -70 -2q-45 -1 -70 -1q-10 0 -31.5 2t-31.5 2q-13 0 -24 -13t-11 -26
q0 -6 15 -5h196q14 0 25 13q8 10 8 22q0 8 -6 8z" />
    <glyph glyph-name="macron" unicode="&#x2c9;" horiz-adv-x="304" 
d="M193 753q-27 1 -72 -1q-53 -2 -71 -2q-28 0 -28 29q0 24 19.5 48t46.5 24q12 0 36 -2q34 -3 92 -1q68 4 92 3q12 0 17 -7q9 -10 -1 -38q-19 -57 -68 -57q-9 0 -28 2q-23 1 -35 2zM290 822q-21 0 -70 -2q-45 -1 -70 -1q-10 0 -31.5 2t-31.5 2q-13 0 -24 -13t-11 -26
q0 -6 15 -5h196q14 0 25 13q8 10 8 22q0 8 -6 8z" />
    <glyph glyph-name="cedilla" unicode="&#xb8;" horiz-adv-x="298" 
d="M201 0l34 -48q22 -31 22 -58q0 -32 -34 -49q-27 -14 -61 -14q-30 0 -53 11q-30 15 -30 43q0 31 37 41q13 3 13 10q0 4 -7 22l-15 42h34l13 -30q8 -20 8 -34q0 -33 -38 -43q-11 -3 -11 -9q0 -10 21 -16q15 -4 28 -4q31 0 52 14q9 7 9 16q0 15 -16 39l-45 67h39z" />
    <glyph glyph-name="Scaron" unicode="&#x160;" 
 />
    <glyph glyph-name="scaron" unicode="&#x161;" 
 />
    <glyph glyph-name="brokenbar" unicode="&#xa6;" 
 />
    <glyph glyph-name="Eth" unicode="&#xd0;" 
 />
    <glyph glyph-name="eth" unicode="&#xf0;" 
 />
    <glyph glyph-name="Yacute" unicode="&#xdd;" 
 />
    <glyph glyph-name="yacute" unicode="&#xfd;" 
 />
    <glyph glyph-name="Thorn" unicode="&#xde;" 
 />
    <glyph glyph-name="thorn" unicode="&#xfe;" 
 />
    <glyph glyph-name="minus" unicode="&#xad;" 
 />
    <glyph glyph-name="minus" unicode="&#x2212;" 
 />
    <glyph glyph-name="multiply" unicode="&#xd7;" 
 />
    <glyph glyph-name="onesuperior" unicode="&#xb9;" 
 />
    <glyph glyph-name="twosuperior" unicode="&#xb2;" 
 />
    <glyph glyph-name="threesuperior" unicode="&#xb3;" 
 />
    <glyph glyph-name="onehalf" unicode="&#xbd;" 
 />
    <glyph glyph-name="onequarter" unicode="&#xbc;" 
 />
    <glyph glyph-name="threequarters" unicode="&#xbe;" 
 />
    <glyph glyph-name=".null" 
 />
    <glyph glyph-name="Lslash" unicode="&#x141;" 
 />
    <glyph glyph-name="lslash" unicode="&#x142;" 
 />
    <glyph glyph-name="HT" 
 />
    <glyph glyph-name="LF" 
 />
    <glyph glyph-name="nonmarkingreturn" 
 />
    <glyph glyph-name="Zcaron" unicode="&#x17d;" 
 />
    <glyph glyph-name="zcaron" unicode="&#x17e;" 
 />
    <glyph glyph-name="DLE" 
 />
    <glyph glyph-name="DC1" 
 />
    <glyph glyph-name="DC2" 
 />
    <glyph glyph-name="DC3" 
 />
    <glyph glyph-name="DC4" 
 />
    <glyph glyph-name="RS" 
 />
    <glyph glyph-name="US" 
 />
    <glyph glyph-name="DEL" horiz-adv-x="1002" 
 />
    <glyph glyph-name="notequal" unicode="&#x2260;" 
 />
    <glyph glyph-name="infinity" unicode="&#x221e;" 
 />
    <glyph glyph-name="lessequal" unicode="&#x2264;" 
 />
    <glyph glyph-name="greaterequal" unicode="&#x2265;" 
 />
    <glyph glyph-name="partialdiff" unicode="&#x2202;" horiz-adv-x="321" 
d="M250 374q0 -11 -8 -17t-16 -11l-44 -31l-2 -38q0 -4 1 -45q1 -44 1 -46q-2 -22 1 -66q3 -9 18 -31q12 -18 12 -38q1 -22 -14.5 -38.5t-34.5 -16.5q-16 4 -40 9q-24 -5 -56 -10q-17 0 -35 10q-23 11 -23 29q0 23 38 67q5 5 10.5 36t5.5 46l-1 47l-33 -24q-5 -3 -10 -3
q-10 0 -17.5 10.5t-7.5 20.5v21q0 10 8 16t16 11l44 32l-2 223q0 31 -18.5 50t-18.5 37q0 49 47 49q3 0 14.5 -4t15.5 -4q22 2 65 -2q12 -3 21.5 -25.5t10.5 -36.5q0 -2 -5.5 -26.5t-5.5 -35.5q-2 -38 0 -137l28 20q5 4 10 4q10 0 17.5 -10.5t7.5 -20.5v-21zM230 374v21
q0 6 -5 10q-23 -14 -60 -38q-1 184 -2 168q1 14 5.5 40.5t4.5 28.5q0 36 -21 36q-10 -1 -26 -3q-22 6 -50 12q-28 0 -28 -25q1 -10 12 -24q14 -17 18 -29q8 -23 8 -94v-172q-25 -18 -64 -44q-7 -4 -7 -6v-21q0 -5 4 -9l1 -1q26 15 66 40l2 -96q1 -26 -10 -59
q-13 -41 -34 -51q-11 -5 -9 -26q19 -12 31 -12q20 4 47 9q19 -3 44 -6q9 0 20.5 8t11.5 20q-11 25 -31 71q-1 34 -3 76q0 36 1 79l3 54q5 3 64 36q7 4 7 7z" />
    <glyph glyph-name="summation" unicode="&#x2211;" horiz-adv-x="509" 
d="M447 202q0 -100 -66 -156q-62 -53 -162 -53q-4 0 -30.5 6t-30.5 6q-3 0 -16.5 -3t-17.5 -3q-11 0 -27.5 6.5t-21.5 15.5l-48 84q-27 48 -27 63q0 16 12.5 27.5t26.5 11.5q23 0 50 -35q41 -53 54 -64q40 -35 94 -35q29 0 51 29q19 25 19 52q0 71 -151 162q-9 6 -77 78
q-7 8 -25 59q-20 57 -20 81q0 55 51.5 107.5t113.5 52.5q3 0 39.5 -5t40.5 -5t18.5 5t18.5 5q25 0 63 -60q34 -54 34 -67q0 -15 -12 -26.5t-24 -11.5q-11 0 -64 42t-91 42q-21 0 -34 -21q-11 -17 -11 -35q0 -39 89 -108l118 -90q22 -24 42.5 -72t20.5 -85zM419 204
q0 79 -69 147q-10 9 -129 99q-69 53 -69 95q0 93 71 93q43 0 96.5 -40.5t51.5 -40.5q17 0 17 14q0 6 -32.5 50.5t-37.5 44.5q-3 0 -17.5 -3t-18.5 -3l-83 9q-48 0 -92.5 -44t-44.5 -88q0 -50 36 -114.5t77 -87.5q160 -93 160 -184q0 -38 -26 -71q-29 -35 -69 -35
q-51 0 -99 35q-29 21 -65 64q-29 35 -36 35q-2 0 -9 -7v-22q0 -6 66 -113q6 -10 26 -10q4 0 18.5 3t18.5 3q1 0 26 -6t48 -6q81 0 133 51.5t52 131.5zM237 723q-6 -5 -13 0l-122 78q-5 3 -5 13q0 11 5.5 19.5t13.5 6.5l117 -23l113 29q8 2 16.5 -8.5t8.5 -20.5q0 -7 -5 -11z
M337 817l-100 -25h-7l-98 19l99 -63z" />
    <glyph glyph-name="product" unicode="&#x220f;" horiz-adv-x="384" 
d="M305 138q0 -72 -50 -121q-11 -10 -37.5 -21t-34.5 -11q-21 0 -46 7q-2 1 -11 6.5t-14 5.5q-3 0 -15 -3t-15 -3q-19 0 -29 14q-15 21 -34 61q-19 37 -19 43q0 20 13 32.5t30 12.5q11 0 20 -13t17 -25q46 -51 74 -51q34 0 34 34q0 24 -43 68q-8 8 -25 16.5t-21 11.5
q-27 21 -45 49q-4 5 -10 12q-10 49 -10 61q0 47 29 89q34 50 85 50q-2 0 33 -5q3 -2 9 -7h-1v-1h5t14 5t15 5q12 0 22 -17.5t34 -54.5q10 -16 10 -29q0 -12 -8.5 -25t-21.5 -13q-10 0 -17.5 8.5t-22.5 24.5q-24 19 -42 19q-10 0 -19.5 -10.5t-9.5 -16.5q0 -18 36 -44l40 -26
q81 -83 81 -138zM280 135q0 25 -17 59q-11 13 -29 34q-6 11 -19 27q-52 34 -57 39q-32 27 -32 55q0 18 15 33.5t36 15.5q15 0 52 -23q10 -6 28 -26q8 7 8 15q-36 61 -40 67q-1 1 -6 1q-4 0 -11.5 -1.5t-10.5 -1.5q-4 0 -29 6t-28 6q-6 0 -25 -11.5t-31 -22.5
q-18 -18 -25 -50q-4 -18 -4 -38q0 -54 56 -98q10 -4 25 -12q28 -25 55 -50q18 -22 18 -60q0 -25 -7 -35q-11 -17 -43 -17q-51 0 -117 89q-7 -4 -12 -7.5t-5 -10.5q0 -4 41 -85q5 -11 16 -11q4 0 14.5 3.5t14.5 3.5t24 -9.5t24 -9.5t15.5 2t15 3.5t9.5 5.5q24 9 34 15
q6 3 20 27q6 7 13.5 17t9.5 21q4 27 4 34zM167 502q-6 -4 -11 0l-104 66q-5 3 -5 12q0 25 17 22l99 -20l96 24q7 2 14 -6.5t7 -17.5q0 -6 -4 -9zM251 582l-85 -21h-5l-83 16l83 -54z" />
    <glyph glyph-name="pi" unicode="&#x3c0;" horiz-adv-x="735" 
d="M672 627q0 -10 -1 -13q-8 -22 -21 -28q-44 -21 -90 -79q-36 -48 -73 -96l-44 -48q-28 -34 -25 -56l-4 -177q0 -50 19 -68.5t19 -35.5q0 -41 -50 -41q-3 0 -26 5t-27 5t-31 -3.5t-31 -3.5q-25 0 -34 6q-12 8 -12 30v13q3 7 19 25t17 30q1 19 1 89q0 81 -1 88q-1 13 -10 46
q-4 10 -31 40q-32 36 -44 53q-18 31 -55 90q-24 36 -73 80l-24 11q-18 8 -25 24q-4 9 -4 15q0 40 63 40q4 0 31 -3t31 -3t44 3t43 3q13 0 24.5 -10t11.5 -25q0 -4 -6 -23.5t-6 -23.5q0 -13 53 -85t65 -72q28 0 76 75q45 67 45 82q0 3 -8 24t-8 26q0 15 18 24q14 8 30 8
q4 0 37 -4.5t36 -4.5q4 0 23 3t22 3q15 0 25.5 -13t10.5 -25zM650 630q0 4 -1.5 6.5t-1.5 3.5q-58 -6 -60 -6q-4 0 -33 5t-32 5q-14 0 -20.5 -4.5t-6.5 -10.5q19 -31 19 -43q0 -32 -54 -105q-58 -77 -95 -77q-26 0 -84.5 77t-58.5 105q0 3 4.5 24.5t4.5 29.5q-44 5 -73 -1
q-9 -2 -18 -2q-4 0 -36 3.5t-36 3.5q-19 0 -20 -1q-12 -2 -12 -15q0 -11 7 -15q48 -20 88 -71q9 -10 76 -112q39 -41 85 -105q14 -38 14 -76q0 -4 -2 -23q-2 -22 -3 -28q3 -42 0 -118q-1 -10 -18 -34.5t-14 -29.5h47q19 2 56 2q5 0 14 -2.5t13 -2.5q12 0 25 7v14l-20 20
q-10 12 -14 24t-4 49q0 2 2 35.5t2 47.5q0 36 -1 72q1 42 11 64q16 38 49 68q19 18 55.5 68t40.5 53q13 14 27 28t65 44q13 8 13 23zM412 835q3 2 5 2q11 0 24 -27l20 -46q8 -14 -8 -17l-187 -39q-8 -2 -17 10.5t-9 24.5q0 9 6 12zM412 807l-146 -65l6 -14l160 40z" />
    <glyph glyph-name="integral" unicode="&#x222b;" horiz-adv-x="528" 
d="M477 428q0 -19 -15 -38q-9 -15 -31 -43q-24 -23 -38 -55q-9 -26 -19 -52q-13 -33 -35 -76q-15 -29 -30 -57q-17 -43 -33 -86q-29 -73 -61 -112q-22 -27 -56 -42q-21 -10 -43 -10q-92 0 -92 70q0 23 19 46t41 23q23 0 36.5 -20.5t21.5 -20.5q14 0 26 20q8 15 27 44
q4 6 4 19q0 24 -15 52q-22 45 -28 64q-4 13 -48 92q-3 5 -31 62q-16 32 -32 49q-15 9 -38 28q-7 8 -7 34q0 34 33 34q3 0 25.5 -4.5t25.5 -4.5q4 0 35 4.5t35 4.5q19 0 36 -18t17 -34q0 -3 -8.5 -26.5t-8.5 -26.5q0 -20 15 -49q25 -46 28 -52q4 -14 9 -28q7 -19 20 -24
q12 5 18 20q20 40 54 115q7 17 7 32q0 4 -13.5 27t-13.5 27q0 37 40 37q3 0 23.5 -3t23.5 -3q4 0 16.5 1.5t16.5 1.5q16 0 29.5 -8t13.5 -14zM450 409v20l-5 -4q-37 -4 -64 -1q-4 0 -12.5 2.5t-11.5 2.5q-19 0 -19 -16q0 -2 13 -19t13 -35q0 -25 -6 -40q-15 -27 -40 -81
q-7 -17 -14 -35q-17 -35 -37 -35q-12 0 -26 12t-18 23t-36 75q-21 42 -21 71q0 4 7.5 27.5t7.5 27.5q0 22 -33 22q3 0 -32 -4q-30 -3 -46 -1q-40 6 -46 3v-17q0 -7 6 -13q11 -6 30 -19q16 -16 31 -43q22 -37 43 -73q26 -44 37 -75q8 -21 38 -84q16 -33 16 -67q0 -17 -4 -22
q-11 -20 -22 -39q-14 -25 -32 -37q-10 -7 -26 -7q-22 0 -32.5 21t-22.5 21q-10 0 -23 -15.5t-13 -27.5q0 -43 48 -43q30 0 52 9q39 17 86 104q13 33 38 92q23 44 65 131q13 32 35 85q12 28 46 69q30 36 30 35zM312 611q3 2 5 2q11 0 24 -27l20 -46q8 -14 -8 -17l-187 -39
q-8 -2 -17 10.5t-9 24.5q0 9 6 12zM312 583l-146 -65l6 -14l160 40z" />
    <glyph glyph-name="Omega" unicode="&#x3a9;" horiz-adv-x="696" 
d="M638 175q0 -3 -13 -42q-14 -42 -17 -56q-7 -29 -12 -41q-12 -27 -33 -36q-21 1 -59 -2q-4 -1 -26 -12q-11 -6 -55 -6q-4 0 -38 3t-38 3q-22 0 -47 12q-44 20 -48 21q-56 20 -100 82q-39 57 -49 116l-69 -1q-29 0 -29 29v27q0 29 29 29h56v10q0 20 3 45h-59q-29 0 -29 29
v27q0 29 29 29h78q31 101 88 163q71 79 173 79q24 0 51 -12.5l27 -12.5q3 0 18.5 4.5t19.5 4.5q-7 0 27 -4q100 -141 100 -163q0 -46 -39 -46q-9 0 -75.5 58.5t-111.5 58.5q-98 0 -134 -130h130q29 0 29 -29v-27q0 -29 -29 -29h-144v-12q0 -19 3 -43h141q29 0 29 -29v-27
q0 -29 -29 -29h-117q56 -143 147 -143q46 0 85 39q14 15 55 73q28 40 46 40q17 0 26.5 -15.5t9.5 -34.5zM607 174q0 6 -7 10q-87 -140 -187 -138q-103 2 -180 188l153 2q9 0 9 9v27q0 9 -9 9l-166 1l-3 30q0 9 -2 65l171 -1q9 0 9 9v27q0 9 -9 9l-167 -1q21 76 60 124
q48 58 111 58q41 0 85 -29q34 -22 96 -82h11v17q0 3 -42.5 65.5t-53.5 62.5q-4 0 -15.5 -4.5t-15.5 -4.5t-39 11t-38 11q-94 0 -145 -50q-44 -43 -101 -177l-98 -1q-9 0 -9 -9v-27q0 -9 9 -9l88 -1q-4 -30 -4 -60q0 -2 -1 -18v-17l-83 1q-9 0 -9 -9v-27q0 -9 9 -9h91
q38 -130 123 -183q71 -45 199 -45q7 0 31 12.5t53 12.5q4 0 6.5 -1.5t5.5 -1.5q13 0 39 68q25 64 25 76z" />
    <glyph glyph-name="Omega" unicode="&#x2126;" horiz-adv-x="696" 
d="M638 175q0 -3 -13 -42q-14 -42 -17 -56q-7 -29 -12 -41q-12 -27 -33 -36q-21 1 -59 -2q-4 -1 -26 -12q-11 -6 -55 -6q-4 0 -38 3t-38 3q-22 0 -47 12q-44 20 -48 21q-56 20 -100 82q-39 57 -49 116l-69 -1q-29 0 -29 29v27q0 29 29 29h56v10q0 20 3 45h-59q-29 0 -29 29
v27q0 29 29 29h78q31 101 88 163q71 79 173 79q24 0 51 -12.5l27 -12.5q3 0 18.5 4.5t19.5 4.5q-7 0 27 -4q100 -141 100 -163q0 -46 -39 -46q-9 0 -75.5 58.5t-111.5 58.5q-98 0 -134 -130h130q29 0 29 -29v-27q0 -29 -29 -29h-144v-12q0 -19 3 -43h141q29 0 29 -29v-27
q0 -29 -29 -29h-117q56 -143 147 -143q46 0 85 39q14 15 55 73q28 40 46 40q17 0 26.5 -15.5t9.5 -34.5zM607 174q0 6 -7 10q-87 -140 -187 -138q-103 2 -180 188l153 2q9 0 9 9v27q0 9 -9 9l-166 1l-3 30q0 9 -2 65l171 -1q9 0 9 9v27q0 9 -9 9l-167 -1q21 76 60 124
q48 58 111 58q41 0 85 -29q34 -22 96 -82h11v17q0 3 -42.5 65.5t-53.5 62.5q-4 0 -15.5 -4.5t-15.5 -4.5t-39 11t-38 11q-94 0 -145 -50q-44 -43 -101 -177l-98 -1q-9 0 -9 -9v-27q0 -9 9 -9l88 -1q-4 -30 -4 -60q0 -2 -1 -18v-17l-83 1q-9 0 -9 -9v-27q0 -9 9 -9h91
q38 -130 123 -183q71 -45 199 -45q7 0 31 12.5t53 12.5q4 0 6.5 -1.5t5.5 -1.5q13 0 39 68q25 64 25 76z" />
    <glyph glyph-name="radical" unicode="&#x221a;" 
 />
    <glyph glyph-name="approxequal" unicode="&#x2248;" 
 />
    <glyph glyph-name="approxequal" unicode="&#x22f2;" 
 />
    <glyph glyph-name="Delta" unicode="&#x394;" 
 />
    <glyph glyph-name="Delta" unicode="&#x2206;" 
 />
    <glyph glyph-name="lozenge" unicode="&#x25ca;" 
 />
    <glyph glyph-name="fraction" unicode="&#x2044;" 
 />
    <glyph glyph-name="fi" unicode="&#xf001;" 
 />
    <glyph glyph-name="fl" unicode="&#xf002;" 
 />
    <glyph glyph-name="apple" unicode="&#xf000;" 
 />
    <glyph glyph-name="dotlessi" unicode="&#x131;" horiz-adv-x="273" 
d="M187 45q0 -6 -8 -21t-16 -21q-11 -7 -27 -7q-4 0 -30.5 4t-30.5 4q-3 0 -15 -1.5t-17 -1.5q-50 0 -50 42q0 16 4 27q9 6 22 21q10 19 10 70l-1 87q0 4 3 24.5t3 24.5q-1 47 -21 79.5t-20 43.5q0 46 37 46q2 0 19 -4.5t23 -4.5q8 2 24 3q28 1 45 -10q10 -6 12 -18
q1 -7 2 -94l1 -95q0 -2 2.5 -15t2.5 -21q0 -18 -4 -53.5t-4 -36.5q1 -13 17.5 -38.5t16.5 -33.5zM157 46q-13 19 -27 52q-2 18 -2 51q1 23 2 52.5l1 29.5v122l1 15t1 26q0 39 -17 39h-75q-4 0 -6 3t-5 3q-5 0 -10 -7.5t-5 -12.5q0 -11 7 -16q11 -9 13 -12q23 -32 23 -96
q0 -4 -3 -28t-3 -28l1 -123q0 -21 -13 -43q-10 -10 -26 -31q15 -17 28 -16q4 0 16 3t16 3q3 0 24 -4.5t24 -4.5q11 0 23 6.5t12 16.5z" />
    <glyph glyph-name="breve" unicode="&#x2d8;" horiz-adv-x="257" 
d="M243 865q32 0 32 -37q0 -47 -40.5 -78.5t-87.5 -31.5q-61 0 -102 45q-27 31 -27 65q0 37 33 37q12 0 21 -8q3 -2 15 -14q30 -32 60 -32t60 32q13 14 17 16q8 6 19 6zM51 836q-5 0 -5 -7q0 -35 34 -60q31 -23 67 -23q48 0 80 36q20 22 20 46q0 8 -5 8q-3 0 -15 -13
q-37 -41 -80 -41q-44 0 -81 41q-11 13 -15 13z" />
    <glyph glyph-name="dotaccent" unicode="&#x2d9;" horiz-adv-x="175" 
d="M126 859q25 0 43 -14t18 -39q0 -33 -33 -58t-68 -25q-24 0 -42.5 15t-18.5 38q0 34 39 62q31 21 62 21zM125 831q-20 0 -45.5 -18t-25.5 -37q0 -11 10 -18t22 -7q22 0 47.5 17t25.5 38q0 25 -34 25z" />
    <glyph glyph-name="ring" unicode="&#x2da;" horiz-adv-x="192" 
d="M115 871q24 0 53 -14q38 -18 38 -59q0 -33 -30 -53t-63 -20q-32 0 -62 20t-30 53q0 41 38 59q28 14 56 14zM112 847q-19 0 -43 -11.5t-24 -37.5q0 -20 18 -32q26 -17 50 -17q25 0 50 17q19 12 19 32q0 26 -14.5 37.5t-55.5 11.5zM111 823q25 0 25 -25q0 -24 -25 -24
t-25 24q0 25 25 25z" />
    <glyph glyph-name="hungarumlaut" unicode="&#x2dd;" horiz-adv-x="217" 
d="M169 851q2 5 9 5q2 0 51 -21q11 -5 4 -14l-86 -108q-2 -3 -8 -3q-9 0 -18.5 6.5t-5.5 13.5zM182 836l-50 -104l10 -5l69 96zM69 851q2 5 9 5q2 0 51 -21q11 -5 4 -14l-86 -108q-2 -3 -8 -3q-9 0 -18.5 6.5t-5.5 13.5zM82 836l-50 -104l10 -5l69 96z" />
    <glyph glyph-name="ogonek" unicode="&#x2db;" horiz-adv-x="353" 
d="M259 0q-24 -33 -24 -45q0 -7 7 -7q2 0 8 3q15 6 32 6q16 0 28.5 -11.5t12.5 -28.5q0 -34 -42 -54q-34 -15 -72 -15q-36 0 -61 14q-31 17 -31 50q0 45 43 88h39l-20 -23q-29 -34 -29 -65t59 -31q20 0 47 9q34 11 34 27q0 6 -10 6q-6 0 -19 -4t-19 -4q-16 0 -28 11.5
t-12 28.5q0 18 21 45h36z" />
    <glyph glyph-name="caron" unicode="&#x2c7;" horiz-adv-x="331" 
d="M198 702q-8 -5 -15 0l-144 92q-7 4 -7 15q0 13 7 23t16 8l138 -28l133 34q9 3 19 -9t10 -24q0 -9 -6 -13zM315 813l-118 -29q-4 -1 -7 -1l-116 23l116 -75z" />
    </font>
</defs>
</svg>
