<?xml version="1.0" standalone="no"?>
<!DOCTYPE svg PUBLIC "-//W3C//DTD SVG 1.1//EN" "http://www.w3.org/Graphics/SVG/1.1/DTD/svg11.dtd" >
<svg>
<metadata>
Created by FontForge 20120731 at Wed Apr 17 22:46:33 2019
 By www-data
Digitized by Dan X. Solo. Software (c) 2001 by Dover Publications, Inc., New York.
</metadata>
<defs>
<font id="CaravelleCondensedNormal" horiz-adv-x="4" >
  <font-face 
    font-family="Caravelle Condensed"
    font-weight="400"
    font-stretch="normal"
    units-per-em="1000"
    panose-1="0 0 4 0 0 0 0 0 0 0"
    ascent="800"
    descent="-200"
    x-height="492"
    cap-height="671"
    bbox="-57 -222 983 878"
    underline-thickness="20"
    underline-position="-123"
    unicode-range="U+0020-F002"
  />
<missing-glyph horiz-adv-x="500" 
d="M63 0v800h375v-800h-375zM125 63h250v675h-250v-675z" />
    <glyph glyph-name=".notdef" horiz-adv-x="500" 
d="M63 0v800h375v-800h-375zM125 63h250v675h-250v-675z" />
    <glyph glyph-name="glyph1" horiz-adv-x="0" 
 />
    <glyph glyph-name="glyph2" horiz-adv-x="245" 
 />
    <glyph glyph-name="space" unicode=" " horiz-adv-x="245" 
 />
    <glyph glyph-name="exclam" unicode="!" horiz-adv-x="232" 
d="M182 140v-138h-150v138h150zM162 120h-110v-98h110v98zM45 199l-24 472h172l-24 -472h-124zM65 219h84l22 432h-128z" />
    <glyph glyph-name="quotedbl" unicode="&#x22;" horiz-adv-x="288" 
d="M105 660l-10 -258h-80l-10 258h100zM85 640h-60l10 -218h40zM256 660l-10 -258h-80l-10 258h100zM236 640h-60l10 -218h40z" />
    <glyph glyph-name="numbersign" unicode="#" horiz-adv-x="577" 
d="M310 671l-31 -138h71l32 138h114l-31 -138h82l-19 -96h-84l-41 -201h91l-21 -97h-90l-30 -140h-114l29 140h-71l-31 -140h-114l29 140h-86l21 97h85l42 201h-94l21 96h94l32 138h114zM285 651h-72l-32 -138h-94l-12 -56h94l-51 -241h-85l-12 -57h86l-30 -140h72l31 140
h114l-30 -140h72l30 140h90l12 57h-91l50 241h83l12 56h-82l31 138h-72l-32 -138h-113zM216 235h73l42 202h-74zM190 215l50 242h117l-50 -242h-117z" />
    <glyph glyph-name="dollar" unicode="$" horiz-adv-x="431" 
d="M226 640q77 0 122 -35.5t45 -98.5v-75h-143v10q0 3 1 10v11q0 46 -25 55v-129q96 -54 136 -100q44 -52 44 -119q0 -162 -180 -167v-56h-64v56q-173 8 -173 124v86h149q-2 -18 -2 -31q0 -48 26 -56v141q-91 43 -132 90q-44 50 -44 117q0 160 176 167v45h64v-45zM116 192
h-107v-66q0 -100 173 -104v-56h24v56q90 1 130 28q50 34 50 119q0 71 -60 128q-34 31 -120 80v166q38 -8 51.5 -25t13.5 -56q0 -3 -1 -11h103v55q0 53 -38 83.5t-110 30.5h-19v45h-24v-45q-89 -1 -128 -29q-48 -34 -48 -118q0 -71 57 -123q38 -33 119 -71v-178
q-38 5 -52 22.5t-14 57.5v11zM253 173q0 27 -27 50v-98q27 11 27 48zM273 173q0 -61 -67 -73v164q35 -26 45 -37q22 -24 22 -54zM162 518q-25 -9 -25 -43q0 -28 25 -47v90zM182 542v-150q-33 20 -45 32q-20 21 -20 51q0 57 65 67z" />
    <glyph glyph-name="percent" unicode="%" horiz-adv-x="795" 
d="M492 658h92l-322 -663h-93zM504 638l-303 -623h49l302 623h-48zM148 333q12 0 16.5 4.5t4.5 19.5v201q0 23 -21 23q-22 0 -22 -23v-201q0 -16 5 -20t17 -4zM148 313q-42 0 -42 44v201q0 43 42 43q41 0 41 -43v-201q0 -44 -41 -44zM148 668q80 0 112.5 -30.5t32.5 -104.5
v-151q0 -74 -32.5 -105t-112.5 -31t-113 30.5t-33 105.5v150q0 74 33 105t113 31zM148 648q-72 0 -99 -25t-27 -91v-150q0 -66 26.5 -91t99.5 -25q72 0 98.5 25t26.5 91v151q0 66 -26.5 90.5t-98.5 24.5zM615 82q12 0 16.5 4.5t4.5 18.5v201q0 24 -21 24q-22 0 -22 -24v-201
q0 -15 5 -19t17 -4zM615 62q-42 0 -42 43v201q0 44 42 44q41 0 41 -44v-201q0 -43 -41 -43zM615 417q80 0 112.5 -30.5t32.5 -104.5v-151q0 -75 -32.5 -105.5t-112.5 -30.5t-113 31t-33 105v150q0 74 33 105t113 31zM615 397q-72 0 -99 -25t-27 -91v-150q0 -66 27 -91
t99 -25t98.5 25t26.5 91v151q0 65 -26.5 90t-98.5 25z" />
    <glyph glyph-name="ampersand" unicode="&#x26;" horiz-adv-x="532" 
d="M444 12q-66 0 -118 60q-60 -72 -164 -72q-82 0 -131.5 51t-49.5 132q0 115 96 181q-47 54 -47 142q0 167 170 167q164 0 164 -151q0 -59 -19 -97q-20 -41 -69 -74l40 -42q17 24 35 59h171q-35 -60 -110 -173l40 -47h51v-136h-59zM444 32h39v96h-39l-58 65q4 6 100 155
h-123q-17 -34 -45 -69l-73 75q56 36 77.5 70.5t21.5 97.5q0 131 -144 131q-150 0 -150 -147q0 -49 12 -79.5t46 -65.5q-107 -70 -107 -178q0 -73 43.5 -118t117.5 -45q100 0 164 84q32 -39 50 -52q28 -20 68 -20zM165 265q-35 -32 -35 -76q0 -21 12.5 -38t29.5 -17
q18 0 60 50zM167 292l91 -107q-34 -43 -36 -45q-25 -26 -50 -26q-26 0 -44 23t-18 52q0 57 57 103zM230 518q0 32 -31 32q-33 0 -33 -45q0 -36 23 -61q41 30 41 74zM250 518q0 -36 -16 -59q-12 -17 -47 -40q-41 39 -41 86q0 65 53 65q51 0 51 -52z" />
    <glyph glyph-name="quotesingle" unicode="'" horiz-adv-x="137" 
d="M105 660l-10 -268h-80l-10 268h100zM85 640h-60l10 -228h40z" />
    <glyph glyph-name="parenleft" unicode="(" horiz-adv-x="271" 
d="M254 623h-65q-19 0 -23.5 -6.5t-4.5 -36.5v-499q0 -31 4 -37.5t24 -6.5h65v-120h-114q-115 0 -115 128v571q0 128 115 128h114v-121zM234 643v81h-94q-51 0 -73 -24.5t-22 -83.5v-571q0 -59 22 -83.5t73 -24.5h94v80h-45q-31 0 -41 16q-7 12 -7 48v499q0 36 8.5 49.5
t39.5 13.5h45z" />
    <glyph glyph-name="parenright" unicode=")" horiz-adv-x="251" 
d="M102 744q115 0 115 -128v-571q0 -128 -115 -128h-114v120h65q20 0 24 6.5t4 37.5v499q0 30 -4.5 36.5t-23.5 6.5h-65v121h114zM102 724h-94v-81h45q31 0 41 -15q7 -12 7 -48v-499q0 -36 -7 -48q-10 -16 -41 -16h-45v-80h94q51 0 73 24.5t22 83.5v571q0 59 -22 83.5
t-73 24.5z" />
    <glyph glyph-name="asterisk" unicode="*" horiz-adv-x="373" 
d="M54 628l83 -48v96h89v-96l83 48l44 -77l-83 -48l83 -48l-44 -77l-83 48v-96h-89v96l-83 -48l-45 77l83 48l-83 48zM61 601l-25 -43l96 -55l-96 -55l25 -43l96 55v-110h49v110l95 -55l25 43l-96 55l96 55l-25 43l-95 -55v110h-49v-110z" />
    <glyph glyph-name="plus" unicode="+" horiz-adv-x="624" 
d="M351 604v-224h241v-93h-241v-225h-103v225h-241v93h241v224h103zM331 584h-63v-224h-241v-53h241v-225h63v225h241v53h-241v224z" />
    <glyph glyph-name="comma" unicode="," horiz-adv-x="176" 
d="M85 -124h-94l72 126h-56v138h150v-144zM73 -104l64 106v118h-110v-98h68l-72 -126h50z" />
    <glyph glyph-name="hyphen" unicode="-" horiz-adv-x="280" 
d="M5 318h249v-126h-249v126zM25 298v-86h209v86h-209z" />
    <glyph glyph-name="hyphen" unicode="&#x2010;" horiz-adv-x="280" 
d="M5 318h249v-126h-249v126zM25 298v-86h209v86h-209z" />
    <glyph glyph-name="period" unicode="." horiz-adv-x="179" 
d="M7 140h150v-138h-150v138zM27 120v-98h110v98h-110z" />
    <glyph glyph-name="slash" unicode="/" horiz-adv-x="422" 
d="M316 684h97l-374 -767h-96zM328 664l-353 -727h52l354 727h-53z" />
    <glyph glyph-name="zero" unicode="0" horiz-adv-x="452" 
d="M227 -11q-105 0 -147 39t-42 133v320q0 95 42 133t147 38q104 0 146 -38t42 -133v-320q0 -94 -42 -133t-146 -39zM227 9q96 0 132 33.5t36 118.5v320q0 86 -35.5 118.5t-132.5 32.5t-133 -32.5t-36 -118.5v-320q0 -85 36 -118.5t133 -33.5zM225 118q21 0 28 12q5 9 5 33
v315q0 24 -5 32q-6 13 -26 13q-21 0 -28 -13q-4 -9 -4 -32v-315q0 -24 4 -32q6 -13 26 -13zM225 98q-50 0 -50 65v315q0 65 52 65q51 0 51 -65v-315q0 -65 -53 -65z" />
    <glyph glyph-name="one" unicode="1" horiz-adv-x="452" 
d="M196 501h-99v94l90 44h168v-637h-159v499zM216 521v-499h119v597h-143l-75 -36v-62h99z" />
    <glyph glyph-name="two" unicode="2" horiz-adv-x="452" 
d="M42 112q0 38 35 91q31 40 61 81q35 45 69 90q48 69 48 100q0 45 -31 45q-18 0 -24.5 -13t-6.5 -54v-21h-151v61q0 160 191 160q176 0 176 -172q0 -84 -55 -158l-142 -191h198v-129h-368v110zM62 22h328v89h-218l166 223q51 68 51 146q0 152 -156 152q-90 0 -130.5 -34
t-40.5 -106v-41h111v1q0 41 7 58q11 29 44 29q51 0 51 -65q0 -36 -48 -106q-36 -48 -73 -96q-25 -34 -51 -68q-34 -47 -39 -71q-2 -9 -2 -21v-90z" />
    <glyph glyph-name="three" unicode="3" horiz-adv-x="452" 
d="M200 208v-68q0 -22 27 -22q28 0 28 20v104q0 17 -7 23t-34 6h-61v132h59q43 0 43 28v72q0 20 -28 20q-27 0 -27 -21v-66h-155v74q0 144 178 144q189 0 189 -152v-56q0 -80 -62 -104q65 -23 65 -111v-89q0 -81 -44 -117t-143 -36q-191 0 -191 139v80h163zM180 188h-123
v-60q0 -119 171 -119q92 0 129.5 30.5t37.5 102.5v89q0 96 -93 99l-1 19q52 9 71.5 30.5t19.5 66.5v56q0 132 -169 132q-158 0 -158 -124v-54h115v46q0 41 47 41q48 0 48 -40v-72q0 -48 -63 -48h-39v-92h41q61 0 61 -49v-104q0 -40 -48 -40q-47 0 -47 42v48z" />
    <glyph glyph-name="four" unicode="4" horiz-adv-x="452" 
d="M238 464l-76 -184h70zM261 573l-10 -313h-119zM232 155h-215v130l157 354h213v-355h49v-129h-49v-153h-155v153zM252 175v-153h115v153h49v89h-49v355h-180l-150 -338v-106h215z" />
    <glyph glyph-name="five" unicode="5" horiz-adv-x="452" 
d="M194 209v-43q0 -47 30 -47q21 0 27 14q4 9 4 33v124q0 24 -4 33q-6 14 -27 14t-27 -18q-3 -9 -4 -36h-134v356h330v-128h-181v-72q30 22 72 22q131 0 131 -128v-207q0 -137 -187 -137q-95 0 -139 35.5t-44 113.5v71h153zM174 189h-113v-51q0 -68 37 -98.5t126 -30.5
q167 0 167 117v207q0 108 -111 108q-32 0 -53 -13q-14 -9 -39 -38v141h181v88h-290v-316h95q5 54 50 54q51 0 51 -67v-124q0 -67 -51 -67q-50 0 -50 67v23z" />
    <glyph glyph-name="six" unicode="6" horiz-adv-x="452" 
d="M229 522q-23 0 -29 -8.5t-6 -31.5v-106q32 25 85 25q135 0 135 -155v-110q0 -78 -46 -112.5t-143 -34.5q-96 0 -141 40t-45 125v342q0 85 45 120.5t146 35.5q100 0 142 -35t42 -121v-65h-151v62q0 29 -34 29zM229 542q54 0 54 -49v-42h111v45q0 76 -35.5 106t-128.5 30
q-94 0 -132.5 -30.5t-38.5 -105.5v-342q0 -76 38.5 -110.5t127.5 -34.5q91 0 130 29.5t39 97.5v110q0 135 -115 135q-39 0 -61 -14q-18 -10 -44 -42v157q0 60 55 60zM225 119q29 0 29 29v107q0 28 -30 28t-30 -28v-107q0 -29 31 -29zM225 99q-51 0 -51 49v107q0 48 50 48
t50 -48v-107q0 -49 -49 -49z" />
    <glyph glyph-name="seven" unicode="7" horiz-adv-x="452" 
d="M411 528l-164 -526h-159l163 503h-210v134h370v-111zM391 531v88h-330v-94h218l-163 -503h116z" />
    <glyph glyph-name="eight" unicode="8" horiz-adv-x="452" 
d="M253 495q0 28 -26 28q-27 0 -27 -28v-62q0 -28 27 -28q26 0 26 28v62zM273 495v-62q0 -48 -46 -48q-47 0 -47 48v62q0 48 47 48q46 0 46 -48zM227 280q-27 0 -27 -29v-107q0 -28 27 -28q26 0 26 28v107q0 29 -26 29zM227 300q46 0 46 -49v-107q0 -48 -46 -48
q-47 0 -47 48v107q0 49 47 49zM102 346q-54 26 -54 94v78q0 134 179 134q93 0 136 -33t43 -108v-61q0 -78 -56 -105q62 -21 62 -108v-111q0 -78 -46 -110q-42 -29 -139 -29t-140 29q-46 32 -46 110v111q0 88 61 109zM147 333q-47 -2 -66.5 -24t-19.5 -72v-111q0 -67 37 -93
t129 -26q91 0 128 26t37 93v111q0 50 -20 72t-68 24v20q82 10 82 97v61q0 65 -36.5 93t-122.5 28q-159 0 -159 -114v-78q0 -77 80 -87z" />
    <glyph glyph-name="nine" unicode="9" horiz-adv-x="452" 
d="M224 119q23 0 28.5 9t5.5 31v106q-32 -25 -85 -25q-135 0 -135 155v110q0 78 46 112.5t143 34.5q187 0 187 -165v-342q0 -85 -45.5 -120.5t-146.5 -35.5q-100 0 -142 35t-42 121v65h151v-61q0 -30 35 -30zM224 99q-55 0 -55 50v41h-111v-45q0 -76 35.5 -106t128.5 -30
q94 0 133 30.5t39 105.5v342q0 76 -39 110.5t-128 34.5q-91 0 -130 -29.5t-39 -97.5v-110q0 -135 115 -135q39 0 61 14q18 10 44 42v-157q0 -60 -54 -60zM227 522q-29 0 -29 -29v-107q0 -28 30 -28t30 28v107q0 29 -31 29zM227 542q51 0 51 -49v-107q0 -48 -50 -48t-50 48
v107q0 49 49 49z" />
    <glyph glyph-name="colon" unicode=":" horiz-adv-x="189" 
d="M7 461h150v-138h-150v138zM27 441v-98h110v98h-110zM7 140h150v-138h-150v138zM27 120v-98h110v98h-110z" />
    <glyph glyph-name="semicolon" unicode=";" horiz-adv-x="190" 
d="M7 461h150v-138h-150v138zM27 441v-98h110v98h-110zM85 -124h-94l72 126h-56v138h150v-144zM73 -104l64 106v118h-110v-98h68l-72 -126h50z" />
    <glyph glyph-name="less" unicode="&#x3c;" horiz-adv-x="475" 
d="M443 471l-310 -153l310 -152v-97l-436 209v80l436 210v-97zM427 484v57l-404 -196v-54l404 -195v57l-340 165z" />
    <glyph glyph-name="equal" unicode="=" horiz-adv-x="479" 
d="M432 422v-94h-415v94h415zM412 402h-375v-54h375v54zM432 239v-94h-415v94h415zM412 219h-375v-54h375v54z" />
    <glyph glyph-name="greater" unicode="&#x3e;" horiz-adv-x="481" 
d="M5 471l300 -153l-300 -152v-97l426 209v80l-426 210v-97zM21 484v57l394 -196v-54l-394 -195v57l330 165z" />
    <glyph glyph-name="question" unicode="?" horiz-adv-x="366" 
d="M227 2h-149v138h149v-138zM207 22v98h-109v-98h109zM-9 525q0 159 171 159q182 0 182 -175q0 -84 -51 -146l-42 -46q-24 -30 -24 -57v-63h-154v85q0 41 29 85q9 14 54 67q29 34 29 52v46q0 22 -23 22t-23 -25v-72h-148v68zM11 525v-48h108v52q0 45 43 45t43 -42v-46
q0 -25 -56 -90.5t-56 -113.5v-65h114v43q0 37 30 72q55 63 57 66q30 47 30 111q0 81 -38.5 118t-123.5 37q-80 0 -115.5 -33t-35.5 -106z" />
    <glyph glyph-name="at" unicode="@" horiz-adv-x="757" 
d="M381 411q-45 0 -78.5 -49t-33.5 -119q0 -74 60 -74q56 0 84 64q9 21 32 116q-11 62 -64 62zM381 429q67 0 80 -81l-22 -94q-11 -46 -41.5 -74.5t-68.5 -28.5q-76 0 -76 92q0 76 37.5 131t90.5 55zM427 151q-39 -51 -116 -51q-130 0 -130 145q0 99 56.5 166.5t135.5 67.5
q65 0 96 -48l18 34h75l-60 -248q-3 -12 -3 -17q0 -25 29 -25q38 0 78 43q55 62 55 153q0 97 -70 159t-186 62q-139 0 -231 -89.5t-92 -229.5q0 -121 79 -194.5t213 -73.5q131 0 242 80l36 -54q-127 -99 -275 -99q-153 0 -252 79q-129 102 -129 259q0 141 81 244
q121 153 330 153q133 0 226 -70q108 -81 108 -225q0 -111 -67 -192t-163 -81q-72 0 -84 52zM311 118q48 0 75 19q23 16 51 61l1 -22q2 -58 73 -58q90 0 152 75t62 179q0 136 -104 212q-88 65 -214 65q-197 0 -311 -144q-78 -99 -78 -231q0 -156 116 -248q95 -76 243 -76
q139 0 252 85l-17 26q-107 -74 -238 -74q-139 0 -223.5 78t-84.5 208q0 147 96.5 242t242.5 95q121 0 196.5 -66.5t75.5 -172.5q0 -99 -60 -166q-44 -48 -89 -48t-45 43q0 8 3 22l55 225h-45l-26 -52q-19 37 -39.5 51.5t-57.5 14.5q-72 0 -124 -62t-52 -154q0 -127 114 -127
z" />
    <glyph glyph-name="A" unicode="A" horiz-adv-x="430" 
d="M218 254l-27 217l-29 -217h56zM240 234h-100l41 314h19zM87 671h207l126 -669h-168l-16 114h-91l-16 -114h-168zM103 651l-118 -629h126l16 114h127l16 -114h126l-118 629h-175z" />
    <glyph glyph-name="B" unicode="B" horiz-adv-x="438" 
d="M12 671h202q83 0 130 -34.5t47 -93.5v-95q0 -70 -60 -95q70 -27 70 -104v-109q0 -73 -46 -105.5t-141 -32.5h-202v669zM32 651v-629h182q89 0 128 28t39 90v109q0 87 -99 93v20q89 5 89 86v95q0 49 -40 78.5t-117 29.5h-182zM168 130q7 -1 21 -1q55 0 55 39v83
q0 33 -54 33h-12q-8 -1 -11 -1zM148 113v190q7 1 42 1q74 0 74 -53v-83q0 -59 -75 -59q-21 0 -41 4zM182 411q55 0 55 31v66q0 34 -54 34q-10 0 -15 -1v-129q4 -1 14 -1zM182 391q-17 0 -34 2l1 170q7 1 17 0q13 -1 17 -1q74 0 74 -54v-66q0 -51 -75 -51z" />
    <glyph glyph-name="C" unicode="C" horiz-adv-x="423" 
d="M198 -11q-109 0 -152 39.5t-43 140.5v335q0 100 43 140t152 40q108 0 151.5 -39.5t43.5 -140.5v-82h-161v80q0 48 -35 48q-33 0 -33 -47v-334q0 -25 5 -34q7 -12 28 -12q23 0 30 15q5 10 5 37v86h161v-92q0 -101 -43.5 -140.5t-151.5 -39.5zM198 9q100 0 137.5 34
t37.5 126v72h-121v-66q0 -72 -55 -72q-53 0 -53 66v334q0 67 53 67q55 0 55 -68v-60h121v62q0 92 -37.5 126t-137.5 34q-101 0 -138 -34t-37 -126v-335q0 -92 37 -126t138 -34z" />
    <glyph glyph-name="D" unicode="D" horiz-adv-x="435" 
d="M400 533v-391q0 -79 -51 -111q-46 -29 -156 -29h-181v669h181q109 0 155 -29q52 -31 52 -109zM380 533q0 66 -41.5 92t-145.5 26h-161v-629h161q105 0 146 26t41 94v391zM171 139l29 -1q38 0 38 35v329q0 15 -5 23q-8 10 -40 10h-22v-396zM151 120v434q22 1 42 1
q65 0 65 -53v-329q0 -55 -58 -55q5 0 -49 2z" />
    <glyph glyph-name="E" unicode="E" horiz-adv-x="355" 
d="M331 533h-160v-113h154v-139h-154v-141h160v-138h-319v669h319v-138zM311 553v98h-279v-629h279v98h-160v181h154v99h-154v153h160z" />
    <glyph glyph-name="F" unicode="F" horiz-adv-x="352" 
d="M336 533h-160v-113h154v-139h-154v-279h-160v669h320v-138zM316 553v98h-280v-629h120v279h154v99h-154v153h160z" />
    <glyph glyph-name="G" unicode="G" horiz-adv-x="425" 
d="M285 2q-13 18 -21 36q-33 -49 -115 -49q-147 0 -147 147v385q0 88 44.5 125.5t150.5 37.5q102 0 149 -35.5t47 -119.5v-60h-162q2 19 2 34q0 47 -35 47q-24 0 -30 -17q-4 -8 -4 -37v-291q0 -50 5.5 -65t28.5 -15q34 0 34 39v116h-44v135h205v-413h-108zM295 22h78v373
h-165v-95h44v-136q0 -59 -54 -59q-39 0 -49 34q-5 15 -5 66v291q0 36 8 52q12 22 46 22q55 0 55 -67v-14h120v40q0 74 -40 104.5t-136 30.5q-99 0 -137 -32t-38 -111v-385q0 -127 127 -127q86 0 108 58l10 27q7 -25 28 -72z" />
    <glyph glyph-name="H" unicode="H" horiz-adv-x="443" 
d="M12 671h158v-260h78v260h159v-669h-159v270h-78v-270h-158v669zM32 651v-629h118v270h118v-270h119v629h-119v-260h-118v260h-118z" />
    <glyph glyph-name="I" unicode="I" horiz-adv-x="216" 
d="M180 2h-164v669h164v-669zM160 22v629h-124v-629h124z" />
    <glyph glyph-name="J" unicode="J" horiz-adv-x="398" 
d="M131 225v-59q0 -43 31 -43q21 0 26 12t5 55v481h161v-522q0 -86 -45.5 -123t-146.5 -37q-187 0 -187 155v81h156zM111 205h-116v-61q0 -135 167 -135q95 0 133.5 32t38.5 108v502h-121v-461q0 -44 -5 -58q-10 -29 -46 -29q-51 0 -51 63v39z" />
    <glyph glyph-name="K" unicode="K" horiz-adv-x="460" 
d="M12 671h159v-262l95 262h169l-133 -324l145 -345h-175l-101 274v-274h-159v669zM32 651v-629h119v366l135 -366h131l-137 325l125 304h-125l-129 -356v356h-119z" />
    <glyph glyph-name="L" unicode="L" horiz-adv-x="333" 
d="M180 140h153v-138h-317v669h164v-531zM160 120v531h-124v-629h277v98h-153z" />
    <glyph glyph-name="M" unicode="M" horiz-adv-x="651" 
d="M236 2l-78 443l4 -443h-150v669h241l60 -422q21 139 61 422h241v-669h-150q4 394 4 443l-78 -443h-155zM252 22h123l91 512l20 3l-1 -515h110v629l-201 1l-72 -490h-17l-72 490l-201 -1v-629l106 -1l-1 525h24z" />
    <glyph glyph-name="N" unicode="N" horiz-adv-x="529" 
d="M161 442l-1 -440h-148v669h211l122 -454v453l148 1v-669h-211zM296 22h177l-1 627h-104l-1 -501h-24l-136 503h-175v-629l103 2v530l17 3z" />
    <glyph glyph-name="O" unicode="O" horiz-adv-x="426" 
d="M198 -11q-109 0 -152 39.5t-43 140.5v335q0 100 43 140t152 40t151.5 -39.5t42.5 -140.5v-335q0 -101 -42.5 -140.5t-151.5 -39.5zM198 9q101 0 137.5 34t36.5 126v335q0 92 -36.5 126t-137.5 34t-138 -34t-37 -126v-335q0 -92 37 -126t138 -34zM163 171q0 -48 33 -48
q26 0 33 16q4 9 4 38v324q0 29 -7 39t-28 10q-35 0 -35 -48v-331zM143 171v331q0 68 55 68t55 -69v-324q0 -37 -9 -53q-13 -21 -48 -21q-53 0 -53 68z" />
    <glyph glyph-name="P" unicode="P" horiz-adv-x="412" 
d="M171 364h9q28 0 38.5 9.5t10.5 33.5v91q0 39 -49 39h-9v-173zM151 346v209q16 2 29 2q69 0 69 -59v-91q0 -63 -69 -63q-13 0 -29 2zM12 671h178q104 0 152 -32.5t48 -111.5v-153q0 -144 -168 -144h-51v-228h-159v669zM32 651v-629h119v228h71q78 0 113 30t35 94v153
q0 68 -40.5 96t-139.5 28h-158z" />
    <glyph glyph-name="Q" unicode="Q" horiz-adv-x="425" 
d="M164 171q0 -48 34 -48q23 0 30 17q3 8 3 37v324q0 36 -12 44q-6 5 -21 5q-34 0 -34 -48v-331zM144 171v331q0 68 54 68q53 0 53 -69v-324q0 -36 -8 -52q-12 -22 -45 -22q-54 0 -54 68zM270 -166q-76 0 -105 13q-22 11 -30 41q-5 22 -5 72v34q-127 11 -127 175v335
q0 100 43 140t152 40t151.5 -39.5t42.5 -140.5v-335q0 -166 -132 -175q-1 -8 -1 -13q0 -19 11 -24q7 -4 30 -4q8 0 46 2v-120q-34 -1 -76 -1zM270 -146h56v80q-18 -1 -26 -1q-61 0 -61 48q0 7 3 33q75 2 104 41q26 35 26 114v335q0 92 -36.5 126t-137.5 34t-138 -34
t-37 -126v-335q0 -79 26 -113q29 -40 103 -43q-2 -25 -2 -53q0 -84 24.5 -95t95.5 -11z" />
    <glyph glyph-name="R" unicode="R" horiz-adv-x="447" 
d="M242 242q0 41 -55 41q-7 0 -19 -1v-280h-156v669h202q83 0 130 -34.5t47 -93.5v-95q0 -70 -60 -95q70 -25 70 -117v-193q3 -12 35 -41h-167q-27 13 -27 40v200zM262 242v-200q0 -14 11 -20h116q-6 8 -8 19v195q0 99 -99 106v20q89 5 89 86v95q0 49 -40 78.5t-117 29.5
h-182v-629h116v279q30 2 39 2q75 0 75 -61zM181 411q51 0 51 35v58q0 34 -52 34h-12v-126q4 -1 13 -1zM181 391q-16 0 -33 2v163q17 2 32 2q72 0 72 -54v-58q0 -55 -71 -55z" />
    <glyph glyph-name="S" unicode="S" horiz-adv-x="420" 
d="M155 223v-10v-13q-1 -8 -1 -11q0 -37 7.5 -49t27.5 -12q22 0 29 11q6 8 6 30q0 37 -13 57q-9 15 -43 41q-67 52 -88 71q-61 53 -74 86q-11 26 -11 86q0 92 48.5 133t155.5 41q95 0 139 -43.5t44 -137.5q0 -10 -3 -47h-158v31q0 30 -3 39q-5 19 -27 19q-34 0 -34 -42
q0 -32 19 -53q4 -5 45 -36q77 -60 95 -77q51 -49 67 -101q3 -11 3 -67q0 -98 -42 -139t-150 -41q-105 0 -152 42t-47 134q0 8 2 58h158zM135 203h-119q-1 -28 -1 -38q0 -83 41 -119.5t138 -36.5q100 0 137 37q35 34 35 123q0 52 -6 72q-7 24 -38 61q-18 22 -113 96
q-44 34 -51 42q-21 25 -21 63q0 62 54 62q32 0 43 -25q7 -16 7 -53v-11h120q1 18 1 27q0 85 -38 123t-125 38q-100 0 -142 -36t-42 -118q0 -53 8 -75t43 -57q25 -26 114 -95q38 -30 51 -51.5t13 -62.5q0 -61 -55 -61t-55 81q0 2 1 14z" />
    <glyph glyph-name="T" unicode="T" horiz-adv-x="374" 
d="M79 531h-105v140h370v-140h-104v-529h-161v529zM99 551v-529h121v529h104v100h-330v-100h105z" />
    <glyph glyph-name="U" unicode="U" horiz-adv-x="436" 
d="M171 671v-481q0 -43 5 -55.5t26 -12.5t26 12t5 55v482h159v-522q0 -87 -43 -123.5t-147 -36.5t-147 36.5t-43 123.5v522h159zM151 651h-119v-502q0 -77 36.5 -108.5t133.5 -31.5t133.5 31.5t36.5 108.5v502h-119v-462q0 -44 -5 -58q-10 -29 -46 -29t-46 29q-5 15 -5 59
v461z" />
    <glyph glyph-name="V" unicode="V" horiz-adv-x="432" 
d="M129 671l62 -481l61 481h168l-126 -669h-207l-126 669h168zM111 651h-126l118 -629h175l118 629h-126l-66 -513h-26z" />
    <glyph glyph-name="W" unicode="W" horiz-adv-x="705" 
d="M480 199l47 472h164l-100 -669h-197q-34 196 -62 460q-26 -242 -63 -460h-197l-99 669h163l47 -472l60 472h177zM573 22l94 629h-122l-50 -509h-29l-64 509h-141l-66 -506h-27l-50 506h-121l91 -630l165 1q40 247 69 538h20q32 -323 68 -538h163z" />
    <glyph glyph-name="X" unicode="X" horiz-adv-x="470" 
d="M118 349l-147 322h173l64 -185l64 185h173l-147 -322l161 -347h-175l-76 207l-76 -207h-175zM140 349l-151 -327h129l90 245l90 -245h129l-151 327l137 302h-127l-78 -226l-78 226h-127z" />
    <glyph glyph-name="Y" unicode="Y" horiz-adv-x="438" 
d="M116 255l-157 416h174l62 -243l61 243h174l-157 -416v-253h-157v253zM136 259v-237h117v237l149 392h-130l-65 -264h-22l-68 264h-130z" />
    <glyph glyph-name="Z" unicode="Z" horiz-adv-x="383" 
d="M-5 140l180 395h-173v136h345v-122l-185 -411h201v-136h-368v138zM15 135v-113h328v96h-211l195 436v97h-305v-96h185z" />
    <glyph glyph-name="bracketleft" unicode="[" horiz-adv-x="269" 
d="M252 37v-120h-227v767h227v-120h-91v-527h91zM232 17h-91v567h91v80h-187v-727h187v80z" />
    <glyph glyph-name="backslash" unicode="\" horiz-adv-x="385" 
d="M317 -83l-374 767h97l373 -767h-96zM329 -63h52l-353 727h-53z" />
    <glyph glyph-name="bracketright" unicode="]" horiz-adv-x="264" 
d="M81 564h-91v120h227v-767h-227v120h91v527zM101 584v-567h-91v-80h187v727h-187v-80h91z" />
    <glyph glyph-name="asciicircum" unicode="^" horiz-adv-x="340" 
d="M204 815l96 -107l-82 -1l-65 37l-65 -37l-78 1l92 107h102zM193 799h-81l-66 -75l35 -1l72 42l72 -42h38z" />
    <glyph glyph-name="underscore" unicode="_" horiz-adv-x="475" 
d="M493 -116h-510v-57h510v57z" />
    <glyph glyph-name="grave" unicode="`" horiz-adv-x="293" 
d="M43 817l124 -124l79 -1l-77 126zM89 799h72l55 -88h-38z" />
    <glyph glyph-name="a" unicode="a" horiz-adv-x="413" 
d="M152 131q0 -28 28 -28q26 0 33 24v101q-16 -8 -43 -23q-18 -12 -18 -33v-41zM132 131v41q0 32 30 52l56 30l15 10v-140q-11 -41 -53 -41q-48 0 -48 48zM221 32q-39 -42 -98 -42q-125 0 -125 156q0 74 26 108q20 27 68 42q92 30 94 31q29 13 29 34q0 28 -28 28t-28 -43
q0 -2 1 -7v-8v-10h-143v27q0 156 175 156q174 0 174 -149v-223q0 -91 19 -131h-155q-6 19 -9 31zM236 56q3 -18 8 -35h111q-9 31 -9 111v223q0 68 -36.5 98.5t-117.5 30.5t-118 -33t-37 -103v-7h102v5q0 63 48 63t48 -48q0 -35 -41 -52q-10 -4 -89 -29q-45 -14 -63 -37
q-24 -30 -24 -97q0 -73 24.5 -104.5t80.5 -31.5q38 0 65 20q19 14 44 51z" />
    <glyph glyph-name="b" unicode="b" horiz-adv-x="404" 
d="M164 152q0 -24 3 -30q5 -11 25 -11t25 12q3 7 3 29v189q0 24 -4 32.5t-24 8.5q-19 0 -25 -12q-3 -6 -3 -29v-189zM144 152v189q0 61 48 61q30 0 40 -17q8 -13 8 -44v-189q0 -30 -8 -43q-11 -18 -40 -18q-30 0 -40 17q-8 13 -8 44zM9 2v669h155v-215q40 48 102 48
q111 0 111 -134v-246q0 -135 -112 -135q-65 0 -108 50v-37h-148zM29 22h108v84q30 -49 50 -68q32 -29 78 -29q92 0 92 115v246q0 114 -91 114q-46 0 -77 -31q-18 -18 -45 -70v268h-115v-629z" />
    <glyph glyph-name="c" unicode="c" horiz-adv-x="380" 
d="M352 132q0 -143 -177 -143q-98 0 -138 42q-39 39 -39 131v165q0 91 41.5 134t135.5 43q82 0 129.5 -38.5t47.5 -104.5v-69h-150v56q0 37 -23 37q-25 0 -25 -34v-197q0 -25 2 -31q4 -15 23 -15q23 0 23 38v63h150v-77zM332 132v57h-110v-43q0 -58 -43 -58q-29 0 -38 20
q-7 13 -7 46v197q0 54 45 54q43 0 43 -57v-36h110v49q0 56 -41 89.5t-116 33.5q-85 0 -121 -37t-36 -120v-165q0 -84 33 -117q35 -36 124 -36q157 0 157 123z" />
    <glyph glyph-name="d" unicode="d" horiz-adv-x="407" 
d="M189 382q-20 0 -24 -8.5t-4 -32.5v-189q0 -23 3 -30q5 -11 25 -11t25 11q3 6 3 30v189q0 23 -4.5 32t-23.5 9zM189 402q48 0 48 -61v-189q0 -31 -8 -44q-10 -17 -40 -17t-40 18q-8 13 -8 43v189q0 31 8 44q10 17 40 17zM224 39q-43 -50 -108 -50q-112 0 -112 135v246
q0 134 111 134q62 0 103 -48v215h154v-669h-148v37zM244 106v-84h108v629h-114v-268q-27 51 -46 70q-31 31 -77 31q-91 0 -91 -114v-246q0 -115 92 -115q46 0 78 29q20 19 50 68z" />
    <glyph glyph-name="e" unicode="e" horiz-adv-x="398" 
d="M222 311v45q0 33 -35 33q-32 0 -32 -33v-45h67zM242 291h-107v65q0 53 52 53q55 0 55 -53v-65zM367 145q0 -156 -172 -156q-99 0 -145 31q-50 33 -50 108v234q0 143 188 143q179 0 179 -153v-143h-212v-71q0 -32 36 -32q31 0 31 32v49h145v-42zM347 145v22h-105v-29
q0 -52 -51 -52q-56 0 -56 52v91h212v123q0 133 -159 133q-168 0 -168 -123v-234q0 -63 41 -91t134 -28q80 0 116 32.5t36 103.5z" />
    <glyph glyph-name="f" unicode="f" horiz-adv-x="298" 
d="M32 366h-41v126h39q-1 13 -1 16q0 89 33.5 126t119.5 37h88v-131q-36 3 -43 3q-24 0 -30 -8.5t-6 -32.5q0 -3 1 -10h78v-126h-78v-364h-160v364zM52 386v-364h120v364h78v86h-78v10v13l-1 7q0 33 11.5 47t44.5 14q8 0 23 -2v90h-68q-77 0 -105 -31t-28 -112q0 -4 1 -13
v-13v-10h-39v-86h41z" />
    <glyph glyph-name="g" unicode="g" horiz-adv-x="400" 
d="M372 492v-514q0 -83 -40 -118t-135 -35q-94 0 -137 26.5t-43 92.5q0 16 2 40h139q2 -23 6 -30q6 -12 25 -12q16 0 22.5 7.5t6.5 33.5v67q-41 -48 -103 -48q-111 0 -111 135v233q0 134 112 134q64 0 108 -50v38h148zM352 472h-108v-84q-31 49 -50 67q-33 29 -78 29
q-92 0 -92 -114v-233q0 -115 91 -115q46 0 77 31q19 19 46 70v-140q0 -61 -49 -61q-41 0 -49 42h-103v-20q0 -54 35 -76.5t125 -22.5q87 0 121 29.5t34 103.5v494zM217 341q0 24 -4 32.5t-24 8.5q-19 0 -25 -12q-3 -6 -3 -29v-172q0 -24 3 -31q5 -10 25 -10t25 12q3 6 3 29
v172zM237 341v-172q0 -31 -8 -43q-11 -18 -40 -18q-30 0 -40 17q-8 13 -8 44v172q0 61 48 61q30 0 40 -17q8 -13 8 -44z" />
    <glyph glyph-name="h" unicode="h" horiz-adv-x="405" 
d="M9 671h148v-217q43 50 108 50q116 0 116 -134v-368h-154v326q0 31 -2 39q-6 21 -27 21q-34 0 -34 -56v-330h-155v669zM29 651v-629h115v310q0 76 54 76q31 0 41 -23q8 -17 8 -57v-306h114v348q0 114 -96 114q-46 0 -78 -29q-20 -18 -50 -68v264h-108z" />
    <glyph glyph-name="i" unicode="i" horiz-adv-x="208" 
d="M14 671h159v-147h-159v147zM34 651v-107h119v107h-119zM14 492h159v-490h-159v490zM34 472v-450h119v450h-119z" />
    <glyph glyph-name="j" unicode="j" horiz-adv-x="215" 
d="M21 671h159v-147h-159v147zM41 651v-107h119v107h-119zM21 1v491h159v-529q0 -76 -35 -107t-118 -31h-64v125h10q35 0 41.5 8t6.5 43zM-17 -70v-85h44q76 0 104.5 25.5t28.5 92.5v509h-119v-471q0 -42 -11 -56t-47 -15z" />
    <glyph glyph-name="k" unicode="k" horiz-adv-x="399" 
d="M9 671h155v-352l57 173h159l-84 -238l97 -251h-165l-64 183v-183h-155v668zM163 251l79 -228h121l-89 231l78 218h-117zM163 251l-19 -57v457h-115v-628h115v281z" />
    <glyph glyph-name="l" unicode="l" horiz-adv-x="208" 
d="M14 671h159v-669h-159v669zM34 651v-629h119v629h-119z" />
    <glyph glyph-name="m" unicode="m" horiz-adv-x="630" 
d="M265 504q74 0 102 -59q45 59 116 59q111 0 111 -134v-368h-154v331q0 29 -1 34q-5 18 -24 18q-20 0 -27.5 -11t-7.5 -42v-330h-155v331q0 30 -2 36q-5 16 -26 16q-34 0 -34 -53v-330h-154v502h148v-50q43 50 108 50zM265 484q-46 0 -78 -29q-20 -18 -50 -68v97h-108v-462
h114v310q0 73 54 73q31 0 41 -20q7 -14 7 -52v-311h115v310q0 73 55 73q30 0 39 -23q6 -14 6 -49v-311h114v348q0 114 -91 114q-70 0 -121 -85q-14 45 -31 63q-22 22 -66 22z" />
    <glyph glyph-name="n" unicode="n" horiz-adv-x="418" 
d="M9 492h148v-38q43 50 108 50q116 0 116 -134v-368h-154v326q0 31 -2 39q-6 21 -27 21q-34 0 -34 -56v-330h-155v490zM29 472v-450h115v310q0 76 54 76q31 0 41 -23q8 -17 8 -57v-306h114v348q0 114 -96 114q-46 0 -78 -29q-20 -18 -50 -68v85h-108z" />
    <glyph glyph-name="o" unicode="o" horiz-adv-x="403" 
d="M370 149q0 -87 -42.5 -123.5t-143.5 -36.5q-102 0 -144 36.5t-42 123.5v198q0 85 43 121t143 36t143 -36t43 -121v-198zM350 149v198q0 76 -36.5 106.5t-129.5 30.5t-129.5 -30.5t-36.5 -106.5v-198q0 -78 35.5 -109t130.5 -31q94 0 130 31t36 109zM183 386
q-21 0 -26 -16q-2 -7 -2 -36v-177q0 -49 28 -49q23 0 28 16q2 7 2 38v173q0 32 -6 41.5t-24 9.5zM183 406q31 0 42 -20q8 -15 8 -51v-173q0 -39 -7 -53q-11 -21 -43 -21q-48 0 -48 69v177q0 37 7 51q10 21 41 21z" />
    <glyph glyph-name="p" unicode="p" horiz-adv-x="406" 
d="M157 454q43 50 108 50q112 0 112 -134v-246q0 -135 -111 -135q-62 0 -102 48v-200h-155v655h148v-38zM137 387v85h-108v-615h115v254q27 -52 45 -71q31 -31 77 -31q91 0 91 115v246q0 114 -92 114q-46 0 -78 -29q-20 -18 -50 -68zM192 111q20 0 25 11q3 6 3 30v189
q0 23 -4.5 32t-23.5 9q-20 0 -24 -8.5t-4 -32.5v-189q0 -23 3 -30q5 -11 25 -11zM192 91q-30 0 -40 18q-8 13 -8 43v189q0 31 8 44q10 17 40 17q48 0 48 -61v-189q0 -31 -8 -44q-10 -17 -40 -17z" />
    <glyph glyph-name="q" unicode="q" horiz-adv-x="407" 
d="M215 346q0 35 -26 35q-19 0 -23 -11q-3 -6 -3 -29v-195q0 -33 25 -33q27 0 27 36v197zM235 346v-197q0 -56 -47 -56q-45 0 -45 53v195q0 30 7 43q11 17 39 17q46 0 46 -55zM372 492v-669h-153v216q-43 -50 -104 -50q-111 0 -111 135v246q0 134 111 134q61 0 105 -50v38
h152zM352 472h-112v-84q-30 49 -49 66q-32 30 -76 30q-91 0 -91 -114v-246q0 -115 91 -115q44 0 75 30q19 18 49 67v-263h113v629z" />
    <glyph glyph-name="r" unicode="r" horiz-adv-x="321" 
d="M14 492h159l-2 -56q33 43 120 72v-191q-27 4 -39 4q-43 0 -61 -20t-18 -65v-234h-159v490zM34 472v-450h119v214q0 105 99 105q9 0 19 -1v140q-60 -23 -85 -58q-13 -18 -40 -92l7 142h-119z" />
    <glyph glyph-name="s" unicode="s" horiz-adv-x="381" 
d="M152 182q-2 -19 -2 -32q0 -44 30 -44q29 0 29 31q0 27 -44 49q-40 19 -81 39.5t-60 46.5q-24 34 -24 88q0 144 180 144q81 0 126 -38.5t45 -110.5q0 -13 -2 -30h-146q3 16 3 26q0 37 -26 37q-27 0 -27 -23q0 -20 29 -37q42 -20 83 -41q48 -24 71 -51q29 -36 29 -90
q0 -158 -183 -158q-182 0 -182 157q0 14 2 37h150zM130 162h-110v-17q0 -72 38 -104.5t124 -32.5q163 0 163 138q0 65 -55 104q-6 4 -102 52q-55 28 -55 63q0 19 13.5 31t33.5 12q47 0 46 -57v-6h105v10q0 129 -151 129q-160 0 -160 -124q0 -49 23 -79q18 -23 58 -43l74 -34
q54 -28 54 -67q0 -51 -49 -51q-50 0 -50 64v12z" />
    <glyph glyph-name="t" unicode="t" horiz-adv-x="298" 
d="M-12 366v126h45v122h159v-122h78v-126h-78v-195q0 -33 50 -33q2 0 8 1h10h10v-137h-113q-69 0 -95 20q-29 22 -29 85v259h-45zM8 386h45v-279q0 -53 21 -69t83 -16h93v97q-6 -1 -8 -1q-70 0 -70 53v215h78v86h-78v122h-119v-122h-45v-86z" />
    <glyph glyph-name="u" unicode="u" horiz-adv-x="406" 
d="M376 2h-147v38q-44 -51 -109 -51q-115 0 -115 135v368h158v-331q0 -42 10 -49q5 -4 17 -4q32 0 32 53v331h154v-490zM356 22v450h-114v-311q0 -73 -52 -73q-30 0 -40 21q-7 15 -7 52v311h-118v-348q0 -115 95 -115q46 0 78 29q20 18 51 67v-83h107z" />
    <glyph glyph-name="v" unicode="v" horiz-adv-x="407" 
d="M-40 492h166l45 -299l45 299h166l-121 -490h-180zM-14 472l111 -450h148l111 450h-122l-54 -353q-11 -3 -18 0l-54 353h-122z" />
    <glyph glyph-name="w" unicode="w" horiz-adv-x="625" 
d="M403 211l37 281h157l-104 -490h-180l-31 268l-30 -268h-180l-104 490h157l37 -281l34 281h173zM392 128l-41 344h-137l-42 -350q-6 -1 -17 -3l-48 353h-115l96 -450h146l39 342q9 -3 18 0l40 -342h146l96 450h-115l-47 -344q-6 -7 -9 -6z" />
    <glyph glyph-name="x" unicode="x" horiz-adv-x="381" 
d="M66 259l-93 233h164l27 -132l27 132h165l-93 -233l101 -257h-163l-37 147l-36 -147h-163zM88 259l-93 -237h117l52 210l53 -210h117l-93 237l85 213h-119l-43 -213l-43 213h-118z" />
    <glyph glyph-name="y" unicode="y" horiz-adv-x="396" 
d="M90 -18q14 0 14 11q0 77 -26 169q-16 56 -58.5 165.5t-57.5 164.5h160l58 -315l43 315h155l-121 -526q-16 -68 -38 -92q-30 -32 -97 -32h-99v140h67zM90 -38h-47v-100h79q58 0 82 25q19 21 33 84l115 501h-111l-57 -421l-78 421h-118q42 -120 83 -240q53 -156 53 -239
q0 -31 -34 -31z" />
    <glyph glyph-name="z" unicode="z" horiz-adv-x="350" 
d="M-15 122l145 244h-145v126h323v-116l-146 -248h150v-126h-327v120zM5 117v-95h287v86h-166l162 273v91h-283v-86h161z" />
    <glyph glyph-name="braceleft" unicode="{" horiz-adv-x="436" 
d="M410 579h-10h-12q-8 1 -11 1q-51 0 -66 -17t-15 -69v-107q0 -59 -14 -89q-17 -34 -60 -50q43 -17 60 -51q14 -30 14 -89v-106q0 -52 15 -69t67 -17h10.5h11.5h10v-98h-41q-95 0 -138 23q-34 19 -46 56q-9 28 -9 86v110q0 59 -22.5 82.5t-80.5 23.5h-11h-10h-10v99h10
q3 0 11 -1h10q58 0 80.5 23t22.5 82v111q0 58 9 85q11 38 46 57q43 23 147 23h32v-99zM390 599v59h-12q-99 0 -137 -21q-31 -16 -40 -54q-5 -21 -5 -70v-111q0 -67 -28.5 -96t-94.5 -29h-11v-58h11q67 0 95 -29.5t28 -96.5v-110q0 -56 8 -80q13 -38 56 -52q36 -13 109 -13
h21v58h-12q-61 0 -81.5 23t-20.5 83v106q0 79 -32 105q-19 16 -103 35q84 18 103 34q32 26 32 105v107q0 60 20 83t81 23q3 0 13 -1z" />
    <glyph glyph-name="bar" unicode="|" horiz-adv-x="325" 
d="M277 717v-930h-107v930h107zM257 697h-67v-890h67v890z" />
    <glyph glyph-name="braceright" unicode="}" horiz-adv-x="403" 
d="M69 678q103 0 146 -23q35 -19 46 -57q9 -27 9 -85v-111q0 -59 22.5 -82t80.5 -23h10q7 1 11 1h10v-99h-10h-10h-11q-58 0 -80.5 -23.5t-22.5 -82.5v-110q0 -58 -9 -85q-11 -38 -46 -57q-42 -23 -146 -23h-32v98h10h11.5h10.5q53 0 69 19q12 16 12 67v106q0 58 16 90.5
t58 49.5q-43 16 -59 51q-15 30 -15 88v107q0 52 -14.5 69t-65.5 17q-3 0 -11 -1h-12h-10v99h32zM69 658h-12v-59q10 1 13 1q60 0 80 -23t20 -83v-107q0 -79 32 -105q20 -16 104 -34q-84 -19 -104 -35q-32 -26 -32 -105v-106q0 -60 -20 -83t-81 -23h-12v-58h12q99 0 136 21
q31 17 40 54q5 21 5 70v110q0 67 28 96.5t95 29.5h11v58h-11q-67 0 -95 29t-28 96v111q0 49 -5 70q-9 38 -40 54q-38 21 -136 21z" />
    <glyph glyph-name="asciitilde" unicode="~" horiz-adv-x="286" 
d="M267 804q-24 -102 -92 -102q-15 0 -44 16.5t-44 16.5q-20 0 -29 -28h-59q22 100 90 100q16 0 46 -16.5t45 -16.5q20 0 28 30h59zM247 788h-27q-11 -30 -40 -30q-15 0 -45 16.5t-46 16.5q-52 0 -70 -68h28q11 28 40 28q15 0 44 -16.5t44 -16.5q53 0 72 70z" />
    <glyph glyph-name="Adieresis" unicode="&#xc4;" horiz-adv-x="430" 
d="M218 254l-27 217l-29 -217h56zM240 234h-100l41 314h19zM87 671h207l126 -669h-168l-16 114h-91l-16 -114h-168zM103 651l-118 -629h126l16 114h127l16 -114h126l-118 629h-175zM157 826v-103h-104v103h104zM141 810h-72v-71h72v71zM313 826v-103h-104v103h104zM297 810
h-72v-71h72v71z" />
    <glyph glyph-name="Aring" unicode="&#xc5;" horiz-adv-x="430" 
d="M420 2h-168l-16 114h-91l-16 -114h-168l126 669h207zM396 22l-118 629h-175l-118 -629h126l16 114h127l16 -114h126zM240 234h-100l41 314h19zM218 254l-27 217l-29 -217h56zM191 709q-38 0 -65 24.5t-27 60.5q0 35 27 59.5t65 24.5q39 0 66 -24.5t27 -59.5
q0 -36 -27 -60.5t-66 -24.5zM191 863q-32 0 -54 -20.5t-22 -48.5q0 -29 22 -49t54 -20q33 0 55 20t22 49q0 28 -22 48.5t-55 20.5zM191 751q-19 0 -32.5 12t-13.5 31q0 18 13.5 30.5t32.5 12.5t33 -12.5t14 -30.5q0 -19 -13.5 -31t-33.5 -12zM191 821q-30 0 -30 -27t30 -27
q31 0 31 27t-31 27z" />
    <glyph glyph-name="Ccedilla" unicode="&#xc7;" horiz-adv-x="423" 
d="M174 -81h11q57 0 57 -41q0 -43 -48 -43q-2 0 -66 17l2 -42q2 0 33 -10q6 -2 23 -2q101 0 101 79q0 42 -14 58.5t-58 16.5h-10v60l20 -2q84 4 116 38.5t32 120.5v72h-121v-66q0 -72 -55 -72q-53 0 -53 66v334q0 67 53 67q55 0 55 -68v-60h121v62q0 92 -37.5 126t-137.5 34
q-101 0 -138 -34t-37 -126v-335q0 -82 29 -118t104 -42h19zM225 -28q47 -2 66 -26q16 -21 16 -69q0 -99 -121 -99q-25 0 -39 7q-25 11 -37 15v78q4 -1 41 -15q20 -8 43 -8q28 0 28 23q0 21 -37 21q-12 0 -31 -2v94q-83 7 -117 47.5t-34 130.5v335q0 100 43 140t152 40
q108 0 151.5 -39.5t43.5 -140.5v-82h-161v80q0 48 -35 48q-33 0 -33 -47v-334q0 -25 5 -34q7 -12 28 -12q23 0 30 15q5 10 5 37v86h161v-92q0 -95 -38 -135t-130 -44v-18z" />
    <glyph glyph-name="Eacute" unicode="&#xc9;" horiz-adv-x="355" 
d="M331 533h-160v-113h154v-139h-154v-141h160v-138h-319v669h319v-138zM311 553v98h-279v-629h279v98h-160v181h154v99h-154v153h160zM286 817l-123 -124l-80 -1l74 125h129zM240 799h-72l-54 -88h38z" />
    <glyph glyph-name="Ntilde" unicode="&#xd1;" horiz-adv-x="529" 
d="M161 442l-1 -440h-148v669h211l122 -454v453l148 1v-669h-211zM296 22h177l-1 627h-104l-1 -501h-24l-136 503h-175v-629l103 2v530l17 3zM387 804q-24 -102 -92 -102q-15 0 -44 16.5t-44 16.5q-20 0 -29 -28h-59q22 100 90 100q16 0 46 -16.5t45 -16.5q20 0 28 30h59z
M367 788h-27q-11 -30 -40 -30q-15 0 -45 16.5t-46 16.5q-52 0 -70 -68h28q11 28 40 28q15 0 44 -16.5t44 -16.5q53 0 72 70z" />
    <glyph glyph-name="Odieresis" unicode="&#xd6;" horiz-adv-x="426" 
d="M198 -11q-109 0 -152 39.5t-43 140.5v335q0 100 43 140t152 40t151.5 -39.5t42.5 -140.5v-335q0 -101 -42.5 -140.5t-151.5 -39.5zM198 9q101 0 137.5 34t36.5 126v335q0 92 -36.5 126t-137.5 34t-138 -34t-37 -126v-335q0 -92 37 -126t138 -34zM163 171q0 -48 33 -48
q26 0 33 16q4 9 4 38v324q0 29 -7 39t-28 10q-35 0 -35 -48v-331zM143 171v331q0 68 55 68t55 -69v-324q0 -37 -9 -53q-13 -21 -48 -21q-53 0 -53 68zM167 826v-103h-104v103h104zM151 810h-72v-71h72v71zM323 826v-103h-104v103h104zM307 810h-72v-71h72v71z" />
    <glyph glyph-name="Udieresis" unicode="&#xdc;" horiz-adv-x="436" 
d="M171 671v-481q0 -43 5 -55.5t26 -12.5t26 12t5 55v482h159v-522q0 -87 -43 -123.5t-147 -36.5t-147 36.5t-43 123.5v522h159zM151 651h-119v-502q0 -77 36.5 -108.5t133.5 -31.5t133.5 31.5t36.5 108.5v502h-119v-462q0 -44 -5 -58q-10 -29 -46 -29t-46 29q-5 15 -5 59
v461zM177 826v-103h-104v103h104zM161 810h-72v-71h72v71zM333 826v-103h-104v103h104zM317 810h-72v-71h72v71z" />
    <glyph glyph-name="aacute" unicode="&#xe1;" horiz-adv-x="413" 
d="M152 131q0 -28 28 -28q26 0 33 24v101q-16 -8 -43 -23q-18 -12 -18 -33v-41zM132 131v41q0 32 30 52l56 30l15 10v-140q-11 -41 -53 -41q-48 0 -48 48zM221 32q-39 -42 -98 -42q-125 0 -125 156q0 74 26 108q20 27 68 42q92 30 94 31q29 13 29 34q0 28 -28 28t-28 -43
q0 -2 1 -7v-8v-10h-143v27q0 156 175 156q174 0 174 -149v-223q0 -91 19 -131h-155q-6 19 -9 31zM236 56q3 -18 8 -35h111q-9 31 -9 111v223q0 68 -36.5 98.5t-117.5 30.5t-118 -33t-37 -103v-7h102v5q0 63 48 63t48 -48q0 -35 -41 -52q-10 -4 -89 -29q-45 -14 -63 -37
q-24 -30 -24 -97q0 -73 24.5 -104.5t80.5 -31.5q38 0 65 20q19 14 44 51zM326 674l-124 -125l-85 -1l84 127zM280 656l-67 -2l-60 -87h38z" />
    <glyph glyph-name="agrave" unicode="&#xe0;" horiz-adv-x="413" 
d="M152 131q0 -28 28 -28q26 0 33 24v101q-16 -8 -43 -23q-18 -12 -18 -33v-41zM132 131v41q0 32 30 52l56 30l15 10v-140q-11 -41 -53 -41q-48 0 -48 48zM221 32q-39 -42 -98 -42q-125 0 -125 156q0 74 26 108q20 27 68 42q92 30 94 31q29 13 29 34q0 28 -28 28t-28 -43
q0 -2 1 -7v-8v-10h-143v27q0 156 175 156q174 0 174 -149v-223q0 -91 19 -131h-155q-6 19 -9 31zM236 56q3 -18 8 -35h111q-9 31 -9 111v223q0 68 -36.5 98.5t-117.5 30.5t-118 -33t-37 -103v-7h102v5q0 63 48 63t48 -48q0 -35 -41 -52q-10 -4 -89 -29q-45 -14 -63 -37
q-24 -30 -24 -97q0 -73 24.5 -104.5t80.5 -31.5q38 0 65 20q19 14 44 51zM83 667l124 -124l79 -1l-77 126zM129 649h72l55 -88h-38z" />
    <glyph glyph-name="acircumflex" unicode="&#xe2;" horiz-adv-x="413" 
d="M152 131q0 -28 28 -28q26 0 33 24v101q-16 -8 -43 -23q-18 -12 -18 -33v-41zM132 131v41q0 32 30 52l56 30l15 10v-140q-11 -41 -53 -41q-48 0 -48 48zM221 32q-39 -42 -98 -42q-125 0 -125 156q0 74 26 108q20 27 68 42q92 30 94 31q29 13 29 34q0 28 -28 28t-28 -43
q0 -2 1 -7v-8v-10h-143v27q0 156 175 156q174 0 174 -149v-223q0 -91 19 -131h-155q-6 19 -9 31zM236 56q3 -18 8 -35h111q-9 31 -9 111v223q0 68 -36.5 98.5t-117.5 30.5t-118 -33t-37 -103v-7h102v5q0 63 48 63t48 -48q0 -35 -41 -52q-10 -4 -89 -29q-45 -14 -63 -37
q-24 -30 -24 -97q0 -73 24.5 -104.5t80.5 -31.5q38 0 65 20q19 14 44 51zM244 655l96 -107l-82 -1l-65 37l-65 -37l-78 1l92 107h102zM233 639h-81l-66 -75l35 -1l72 42l72 -42h38z" />
    <glyph glyph-name="adieresis" unicode="&#xe4;" horiz-adv-x="413" 
d="M152 131q0 -28 28 -28q26 0 33 24v101q-16 -8 -43 -23q-18 -12 -18 -33v-41zM132 131v41q0 32 30 52l56 30l15 10v-140q-11 -41 -53 -41q-48 0 -48 48zM221 32q-39 -42 -98 -42q-125 0 -125 156q0 74 26 108q20 27 68 42q92 30 94 31q29 13 29 34q0 28 -28 28t-28 -43
q0 -2 1 -7v-8v-10h-143v27q0 156 175 156q174 0 174 -149v-223q0 -91 19 -131h-155q-6 19 -9 31zM236 56q3 -18 8 -35h111q-9 31 -9 111v223q0 68 -36.5 98.5t-117.5 30.5t-118 -33t-37 -103v-7h102v5q0 63 48 63t48 -48q0 -35 -41 -52q-10 -4 -89 -29q-45 -14 -63 -37
q-24 -30 -24 -97q0 -73 24.5 -104.5t80.5 -31.5q38 0 65 20q19 14 44 51zM167 656v-103h-104v103h104zM151 640h-72v-71h72v71zM323 656v-103h-104v103h104zM307 640h-72v-71h72v71z" />
    <glyph glyph-name="atilde" unicode="&#xe3;" horiz-adv-x="413" 
d="M152 131q0 -28 28 -28q26 0 33 24v101q-16 -8 -43 -23q-18 -12 -18 -33v-41zM132 131v41q0 32 30 52l56 30l15 10v-140q-11 -41 -53 -41q-48 0 -48 48zM221 32q-39 -42 -98 -42q-125 0 -125 156q0 74 26 108q20 27 68 42q92 30 94 31q29 13 29 34q0 28 -28 28t-28 -43
q0 -2 1 -7v-8v-10h-143v27q0 156 175 156q174 0 174 -149v-223q0 -91 19 -131h-155q-6 19 -9 31zM236 56q3 -18 8 -35h111q-9 31 -9 111v223q0 68 -36.5 98.5t-117.5 30.5t-118 -33t-37 -103v-7h102v5q0 63 48 63t48 -48q0 -35 -41 -52q-10 -4 -89 -29q-45 -14 -63 -37
q-24 -30 -24 -97q0 -73 24.5 -104.5t80.5 -31.5q38 0 65 20q19 14 44 51zM317 644q-24 -102 -92 -102q-15 0 -44 16.5t-44 16.5q-20 0 -29 -28h-59q22 100 90 100q16 0 46 -16.5t45 -16.5q20 0 28 30h59zM297 628h-27q-11 -30 -40 -30q-15 0 -45 16.5t-46 16.5
q-52 0 -70 -68h28q11 28 40 28q15 0 44 -16.5t44 -16.5q53 0 72 70z" />
    <glyph glyph-name="aring" unicode="&#xe5;" horiz-adv-x="413" 
d="M152 131q0 -28 28 -28q26 0 33 24v101q-16 -8 -43 -23q-18 -12 -18 -33v-41zM132 131v41q0 32 30 52l56 30l15 10v-140q-11 -41 -53 -41q-48 0 -48 48zM221 32q-39 -42 -98 -42q-125 0 -125 156q0 74 26 108q20 27 68 42q92 30 94 31q29 13 29 34q0 28 -28 28t-28 -43
q0 -2 1 -7v-8v-10h-143v27q0 156 175 156q174 0 174 -149v-223q0 -91 19 -131h-155q-6 19 -9 31zM236 56q3 -18 8 -35h111q-9 31 -9 111v223q0 68 -36.5 98.5t-117.5 30.5t-118 -33t-37 -103v-7h102v5q0 63 48 63t48 -48q0 -35 -41 -52q-10 -4 -89 -29q-45 -14 -63 -37
q-24 -30 -24 -97q0 -73 24.5 -104.5t80.5 -31.5q38 0 65 20q19 14 44 51zM181 539q-38 0 -65 24.5t-27 60.5q0 35 27 59.5t65 24.5q39 0 66 -24.5t27 -59.5q0 -36 -27 -60.5t-66 -24.5zM181 693q-32 0 -54 -20.5t-22 -48.5q0 -29 22 -49t54 -20q33 0 55 20t22 49
q0 28 -22 48.5t-55 20.5zM181 581q-19 0 -32.5 12t-13.5 31q0 18 13.5 30.5t32.5 12.5t33 -12.5t14 -30.5q0 -19 -13.5 -31t-33.5 -12zM181 651q-30 0 -30 -27t30 -27q31 0 31 27t-31 27z" />
    <glyph glyph-name="ccedilla" unicode="&#xe7;" horiz-adv-x="380" 
d="M332 132v57h-110v-43q0 -58 -43 -58q-29 0 -38 20q-7 13 -7 46v197q0 54 45 54q43 0 43 -57v-36h110v49q0 56 -41 89.5t-116 33.5q-85 0 -121 -37t-36 -120v-165q0 -161 133 -163v-65h9q45 0 45 -32q0 -35 -38 -35q-1 0 -53 14l2 -34q36 -9 44 -9q81 0 81 63q0 32 -9 44
q-12 16 -48 16h-8v36l-1 2q72 0 114.5 34t42.5 99zM192 -24q37 -1 51 -19t14 -56q0 -79 -97 -79q-19 0 -30 5q-20 9 -30 12v62q3 -1 33 -12q16 -6 34 -6q22 0 22 19q0 16 -29 16q-10 0 -25 -1l1 64q-138 16 -138 181v165q0 91 41.5 134t135.5 43q82 0 129.5 -38.5
t47.5 -104.5v-69h-150v56q0 37 -23 37q-25 0 -25 -34v-197q0 -25 2 -31q4 -15 23 -15q23 0 23 38v63h150v-77q0 -145 -160 -152v-4z" />
    <glyph glyph-name="eacute" unicode="&#xe9;" horiz-adv-x="398" 
d="M222 311v45q0 33 -35 33q-32 0 -32 -33v-45h67zM242 291h-107v65q0 53 52 53q55 0 55 -53v-65zM367 145q0 -156 -172 -156q-99 0 -145 31q-50 33 -50 108v234q0 143 188 143q179 0 179 -153v-143h-212v-71q0 -32 36 -32q31 0 31 32v49h145v-42zM347 145v22h-105v-29
q0 -52 -51 -52q-56 0 -56 52v91h212v123q0 133 -159 133q-168 0 -168 -123v-234q0 -63 41 -91t134 -28q80 0 116 32.5t36 103.5zM316 674l-124 -125l-85 -1l82 125zM270 656l-67 -2l-60 -87h38z" />
    <glyph glyph-name="egrave" unicode="&#xe8;" horiz-adv-x="398" 
d="M222 311v45q0 33 -35 33q-32 0 -32 -33v-45h67zM242 291h-107v65q0 53 52 53q55 0 55 -53v-65zM367 145q0 -156 -172 -156q-99 0 -145 31q-50 33 -50 108v234q0 143 188 143q179 0 179 -153v-143h-212v-71q0 -32 36 -32q31 0 31 32v49h145v-42zM347 145v22h-105v-29
q0 -52 -51 -52q-56 0 -56 52v91h212v123q0 133 -159 133q-168 0 -168 -123v-234q0 -63 41 -91t134 -28q80 0 116 32.5t36 103.5zM73 668l128 -127l75 1l-77 126h-126zM119 649h72l55 -88h-38z" />
    <glyph glyph-name="ecircumflex" unicode="&#xea;" horiz-adv-x="398" 
d="M222 311v45q0 33 -35 33q-32 0 -32 -33v-45h67zM242 291h-107v65q0 53 52 53q55 0 55 -53v-65zM367 145q0 -156 -172 -156q-99 0 -145 31q-50 33 -50 108v234q0 143 188 143q179 0 179 -153v-143h-212v-71q0 -32 36 -32q31 0 31 32v49h145v-42zM347 145v22h-105v-29
q0 -52 -51 -52q-56 0 -56 52v91h212v123q0 133 -159 133q-168 0 -168 -123v-234q0 -63 41 -91t134 -28q80 0 116 32.5t36 103.5zM234 655l96 -107l-82 -1l-65 37l-65 -37l-78 1l92 107h102zM227 637l-85 2l-66 -75l35 -1l72 42l72 -42h38z" />
    <glyph glyph-name="edieresis" unicode="&#xeb;" horiz-adv-x="398" 
d="M222 311v45q0 33 -35 33q-32 0 -32 -33v-45h67zM242 291h-107v65q0 53 52 53q55 0 55 -53v-65zM367 145q0 -156 -172 -156q-99 0 -145 31q-50 33 -50 108v234q0 143 188 143q179 0 179 -153v-143h-212v-71q0 -32 36 -32q31 0 31 32v49h145v-42zM347 145v22h-105v-29
q0 -52 -51 -52q-56 0 -56 52v91h212v123q0 133 -159 133q-168 0 -168 -123v-234q0 -63 41 -91t134 -28q80 0 116 32.5t36 103.5zM147 656v-103h-104v103h104zM131 640h-72v-71h72v71zM303 656v-103h-104v103h104zM287 640h-72v-71h72v71z" />
    <glyph glyph-name="iacute" unicode="&#xed;" horiz-adv-x="208" 
d="M14 492h159v-490h-159v490zM34 472v-450h119v450h-119zM206 674l-119 -125l-85 -1l79 126h125zM165 656l-67 -2l-60 -87h38z" />
    <glyph glyph-name="igrave" unicode="&#xec;" horiz-adv-x="208" 
d="M14 492h159v-490h-159v490zM34 472v-450h119v450h-119zM-7 668l128 -127l75 1l-77 126h-126zM39 649h72l55 -88h-38z" />
    <glyph glyph-name="icircumflex" unicode="&#xee;" horiz-adv-x="208" 
d="M14 492h159v-490h-159v490zM34 472v-450h119v450h-119zM144 655l96 -108h-82l-65 37l-65 -37h-78l92 108h102zM133 639h-81l-66 -76h35l72 42l72 -42h38z" />
    <glyph glyph-name="idieresis" unicode="&#xef;" horiz-adv-x="208" 
d="M14 492h159v-490h-159v490zM34 472v-450h119v450h-119zM67 656v-103h-104v103h104zM51 640h-72v-71h72v71zM223 656v-103h-104v103h104zM207 640h-72v-71h72v71z" />
    <glyph glyph-name="ntilde" unicode="&#xf1;" horiz-adv-x="418" 
d="M9 492h148v-38q43 50 108 50q116 0 116 -134v-368h-154v326q0 31 -2 39q-6 21 -27 21q-34 0 -34 -56v-330h-155v490zM29 472v-450h115v310q0 76 54 76q31 0 41 -23q8 -17 8 -57v-306h114v348q0 114 -96 114q-46 0 -78 -29q-20 -18 -50 -68v85h-108zM317 644
q-24 -102 -92 -102q-15 0 -44 16.5t-44 16.5q-20 0 -29 -28h-59q22 100 90 100q16 0 46 -16.5t45 -16.5q20 0 28 30h59zM297 628h-27q-11 -30 -40 -30q-15 0 -45 16.5t-46 16.5q-52 0 -70 -68h28q11 28 40 28q15 0 44 -16.5t44 -16.5q53 0 72 70z" />
    <glyph glyph-name="oacute" unicode="&#xf3;" horiz-adv-x="403" 
d="M370 149q0 -87 -42.5 -123.5t-143.5 -36.5q-102 0 -144 36.5t-42 123.5v198q0 85 43 121t143 36t143 -36t43 -121v-198zM350 149v198q0 76 -36.5 106.5t-129.5 30.5t-129.5 -30.5t-36.5 -106.5v-198q0 -78 35.5 -109t130.5 -31q94 0 130 31t36 109zM183 386
q-21 0 -26 -16q-2 -7 -2 -36v-177q0 -49 28 -49q23 0 28 16q2 7 2 38v173q0 32 -6 41.5t-24 9.5zM183 406q31 0 42 -20q8 -15 8 -51v-173q0 -39 -7 -53q-11 -21 -43 -21q-48 0 -48 69v177q0 37 7 51q10 21 41 21zM326 674l-124 -126h-85l84 126h125zM280 656l-67 -2l-60 -87
h38z" />
    <glyph glyph-name="ograve" unicode="&#xf2;" horiz-adv-x="403" 
d="M370 149q0 -87 -42.5 -123.5t-143.5 -36.5q-102 0 -144 36.5t-42 123.5v198q0 85 43 121t143 36t143 -36t43 -121v-198zM350 149v198q0 76 -36.5 106.5t-129.5 30.5t-129.5 -30.5t-36.5 -106.5v-198q0 -78 35.5 -109t130.5 -31q94 0 130 31t36 109zM183 386
q-21 0 -26 -16q-2 -7 -2 -36v-177q0 -49 28 -49q23 0 28 16q2 7 2 38v173q0 32 -6 41.5t-24 9.5zM183 406q31 0 42 -20q8 -15 8 -51v-173q0 -39 -7 -53q-11 -21 -43 -21q-48 0 -48 69v177q0 37 7 51q10 21 41 21zM73 668l128 -127l75 1l-77 126h-126zM119 649h72l55 -88h-38
z" />
    <glyph glyph-name="ocircumflex" unicode="&#xf4;" horiz-adv-x="403" 
d="M370 149q0 -87 -42.5 -123.5t-143.5 -36.5q-102 0 -144 36.5t-42 123.5v198q0 85 43 121t143 36t143 -36t43 -121v-198zM350 149v198q0 76 -36.5 106.5t-129.5 30.5t-129.5 -30.5t-36.5 -106.5v-198q0 -78 35.5 -109t130.5 -31q94 0 130 31t36 109zM183 386
q-21 0 -26 -16q-2 -7 -2 -36v-177q0 -49 28 -49q23 0 28 16q2 7 2 38v173q0 32 -6 41.5t-24 9.5zM183 406q31 0 42 -20q8 -15 8 -51v-173q0 -39 -7 -53q-11 -21 -43 -21q-48 0 -48 69v177q0 37 7 51q10 21 41 21zM234 655l96 -107l-82 -1l-65 37l-65 -37l-78 1l92 107h102z
M224 637l-82 2l-66 -75l35 -1l72 42l72 -42h38z" />
    <glyph glyph-name="odieresis" unicode="&#xf6;" horiz-adv-x="403" 
d="M370 149q0 -87 -42.5 -123.5t-143.5 -36.5q-102 0 -144 36.5t-42 123.5v198q0 85 43 121t143 36t143 -36t43 -121v-198zM350 149v198q0 76 -36.5 106.5t-129.5 30.5t-129.5 -30.5t-36.5 -106.5v-198q0 -78 35.5 -109t130.5 -31q94 0 130 31t36 109zM183 386
q-21 0 -26 -16q-2 -7 -2 -36v-177q0 -49 28 -49q23 0 28 16q2 7 2 38v173q0 32 -6 41.5t-24 9.5zM183 406q31 0 42 -20q8 -15 8 -51v-173q0 -39 -7 -53q-11 -21 -43 -21q-48 0 -48 69v177q0 37 7 51q10 21 41 21zM157 656v-103h-104v103h104zM141 640h-72v-71h72v71z
M313 656v-103h-104v103h104zM297 640h-72v-71h72v71z" />
    <glyph glyph-name="otilde" unicode="&#xf5;" horiz-adv-x="403" 
d="M370 149q0 -87 -42.5 -123.5t-143.5 -36.5q-102 0 -144 36.5t-42 123.5v198q0 85 43 121t143 36t143 -36t43 -121v-198zM350 149v198q0 76 -36.5 106.5t-129.5 30.5t-129.5 -30.5t-36.5 -106.5v-198q0 -78 35.5 -109t130.5 -31q94 0 130 31t36 109zM183 386
q-21 0 -26 -16q-2 -7 -2 -36v-177q0 -49 28 -49q23 0 28 16q2 7 2 38v173q0 32 -6 41.5t-24 9.5zM183 406q31 0 42 -20q8 -15 8 -51v-173q0 -39 -7 -53q-11 -21 -43 -21q-48 0 -48 69v177q0 37 7 51q10 21 41 21zM317 644q-24 -102 -92 -102q-15 0 -44 16.5t-44 16.5
q-20 0 -29 -28h-59q22 100 90 100q16 0 46 -16.5t45 -16.5q20 0 28 30h59zM297 628h-27q-11 -30 -40 -30q-15 0 -45 16.5t-46 16.5q-52 0 -70 -68h28q11 28 40 28q15 0 44 -16.5t44 -16.5q53 0 72 70z" />
    <glyph glyph-name="uacute" unicode="&#xfa;" horiz-adv-x="406" 
d="M376 2h-147v38q-44 -51 -109 -51q-115 0 -115 135v368h158v-331q0 -42 10 -49q5 -4 17 -4q32 0 32 53v331h154v-490zM356 22v450h-114v-311q0 -73 -52 -73q-30 0 -40 21q-7 15 -7 52v311h-118v-348q0 -115 95 -115q46 0 78 29q20 18 51 67v-83h107zM326 666l-124 -125
l-85 -1l84 127zM280 648l-67 -2l-60 -87h38z" />
    <glyph glyph-name="ugrave" unicode="&#xf9;" horiz-adv-x="406" 
d="M376 2h-147v38q-44 -51 -109 -51q-115 0 -115 135v368h158v-331q0 -42 10 -49q5 -4 17 -4q32 0 32 53v331h154v-490zM356 22v450h-114v-311q0 -73 -52 -73q-30 0 -40 21q-7 15 -7 52v311h-118v-348q0 -115 95 -115q46 0 78 29q20 18 51 67v-83h107zM73 668l128 -127l75 1
l-77 126h-126zM119 649h72l55 -88h-38z" />
    <glyph glyph-name="ucircumflex" unicode="&#xfb;" horiz-adv-x="406" 
d="M376 2h-147v38q-44 -51 -109 -51q-115 0 -115 135v368h158v-331q0 -42 10 -49q5 -4 17 -4q32 0 32 53v331h154v-490zM356 22v450h-114v-311q0 -73 -52 -73q-30 0 -40 21q-7 15 -7 52v311h-118v-348q0 -115 95 -115q46 0 78 29q20 18 51 67v-83h107zM244 655l96 -107
l-82 -1l-65 37l-65 -37l-78 1l92 107h102zM233 637l-81 2l-66 -75l35 -1l72 42l72 -42h38z" />
    <glyph glyph-name="udieresis" unicode="&#xfc;" horiz-adv-x="406" 
d="M376 2h-147v38q-44 -51 -109 -51q-115 0 -115 135v368h158v-331q0 -42 10 -49q5 -4 17 -4q32 0 32 53v331h154v-490zM356 22v450h-114v-311q0 -73 -52 -73q-30 0 -40 21q-7 15 -7 52v311h-118v-348q0 -115 95 -115q46 0 78 29q20 18 51 67v-83h107zM157 656v-103h-104
v103h104zM141 640h-72v-71h72v71zM313 656v-103h-104v103h104zM297 640h-72v-71h72v71z" />
    <glyph glyph-name="dagger" unicode="&#x2020;" horiz-adv-x="209" 
 />
    <glyph glyph-name="degree" unicode="&#xb0;" horiz-adv-x="233" 
d="M111 677q49 0 83.5 -35t34.5 -83q0 -49 -34.5 -84t-83.5 -35t-83.5 35t-34.5 84q0 48 34.5 83t83.5 35zM111 657q-41 0 -69.5 -29t-28.5 -69q0 -41 28.5 -70t69.5 -29t69.5 29t28.5 70q0 40 -28.5 69t-69.5 29z" />
    <glyph glyph-name="cent" unicode="&#xa2;" horiz-adv-x="420" 
d="M169 229v278q-30 -7 -30 -36v-212q0 -27 30 -30zM189 530v-322h-13q-57 0 -57 51v212q0 32 19 45q15 10 51 14zM233 113v-63h-64v63h-3q-160 0 -160 131v249q0 128 163 134v49h64v-49q82 -5 121 -38.5t39 -104.5v-52h-133v49q0 18 -27 26v-275q27 13 27 27v54h133v-51
q0 -79 -37 -113.5t-123 -35.5zM189 133v-63h24v63h14q82 0 114 29t32 100v31h-93v-34q0 -42 -67 -52v323q67 -7 67 -49v-29h93v32q0 72 -46 100q-35 21 -114 23v49h-24v-49q-76 -1 -112 -19q-51 -27 -51 -95v-249q0 -111 140 -111h23z" />
    <glyph glyph-name="sterling" unicode="&#xa3;" horiz-adv-x="418" 
d="M-6 20q0 114 96 135q14 20 14 43q0 38 -35 100h-87v59h65q-34 72 -34 136q0 161 191 161q86 0 133.5 -38t47.5 -109v-72h-147v28q0 33 -8 44.5t-29 11.5q-32 0 -32 -35q0 -45 43 -127h99v-59h-74q12 -31 12 -56q0 -51 -47 -92q8 -1 43 -12q31 -10 37 -10q13 0 17 6
q1 3 3 19h110v-19q0 -146 -126 -146q-29 0 -65 9q-32 9 -63 18q-18 4 -29 4q-21 0 -32 -18h-103v19zM392 133h-73q-6 -25 -37 -25q-9 0 -42.5 11.5t-90.5 15.5q43 32 54 44q26 28 26 63q0 26 -22 76h84v19h-91q-51 96 -51 147q0 55 52 55q57 0 57 -76v-8h107v52
q0 127 -161 127q-171 0 -171 -141q0 -66 46 -156h-77v-19h79q43 -76 43 -120q0 -31 -22 -61q-88 -17 -88 -117v-9l-10 10h82q14 18 43 18q17 0 69 -15.5t88 -15.5q106 0 106 125z" />
    <glyph glyph-name="section" unicode="&#xa7;" horiz-adv-x="209" 
 />
    <glyph glyph-name="bullet" unicode="&#x2022;" horiz-adv-x="452" 
d="M268 492q63 0 108.5 -41.5t45.5 -99.5q0 -59 -45.5 -100.5t-109.5 -41.5t-109 41t-45 101q0 59 45.5 100t109.5 41zM268 472q-56 0 -95.5 -36t-39.5 -85q0 -51 39 -86.5t95 -35.5t95.5 36t39.5 86q0 49 -39 85t-95 36z" />
    <glyph glyph-name="paragraph" unicode="&#xb6;" horiz-adv-x="470" 
d="M446 595h-47v-593h-83v593h-63v-593h-83v299q-80 5 -131 60q-49 52 -49 123q0 78 56.5 136.5t144.5 58.5h255v-84zM426 615v44h-235q-81 0 -133 -56q-48 -51 -48 -119q0 -73 57 -120q52 -41 123 -44v-298h43v593h103v-593h43v593h47z" />
    <glyph glyph-name="germandbls" unicode="&#xdf;" horiz-adv-x="423" 
d="M9 504q0 93 40 134t142 41q188 0 188 -142q0 -43 -20 -80t-53 -50q80 -26 80 -91v-171q0 -74 -24 -106q-29 -37 -102 -37h-66v135q23 1 28 4q10 6 10 27v143q0 21 -10 27q-5 3 -28 4v132q15 0 25.5 16t10.5 34q0 29 -32 29q-35 0 -35 -43l1 -508h-155v502zM29 504v-482
h115l-1 488q0 63 55 63q52 0 52 -49q0 -19 -10.5 -37t-26.5 -22l1 -105q38 -6 38 -49v-143q0 -43 -38 -49v-97h46q63 0 86 29q20 26 20 94v171q0 68 -106 80q-8 1 -8 6t13 8q40 8 67 43t27 84q0 122 -168 122q-94 0 -128 -35t-34 -120z" />
    <glyph glyph-name="registered" unicode="&#xae;" horiz-adv-x="363" 
d="M162 383q-62 0 -106 45t-44 108q0 62 44 106t106 44t104.5 -44.5t42.5 -107.5t-42.5 -107t-104.5 -44zM162 406q51 0 88 37.5t37 90.5t-37 90.5t-88 37.5q-54 1 -90 -36t-36 -92q0 -53 37.5 -90.5t88.5 -37.5zM176 534l47 -72h-26l-47 72h-26v-72h-22v157h68q-6 0 -5 1h7
q52 0 52 -40q0 -44 -48 -46zM126 557h45q30 0 30 23q0 17 -34 17h-41v-40z" />
    <glyph glyph-name="copyright" unicode="&#xa9;" horiz-adv-x="735" 
d="M346 -11q-143 0 -242.5 100t-99.5 244q0 145 99.5 245t242.5 100t243 -100t100 -245q0 -144 -100 -244t-243 -100zM346 635q-122 0 -211 -88t-89 -214q0 -125 89 -213t211 -88t211 88t89 213q0 126 -89 214t-211 88zM355 139q-86 0 -136.5 55t-50.5 142q0 83 52 139.5
t136 56.5q59 0 103 -34t54 -91h-45q-22 81 -112 81q-67 0 -106 -44t-39 -110q0 -60 34 -103q40 -49 109 -49q94 0 115 79h43q-13 -57 -55.5 -89.5t-101.5 -32.5z" />
    <glyph glyph-name="trademark" unicode="&#x2122;" horiz-adv-x="459" 
d="M401 650v-196h-27v167h-2l-66 -167h-17l-65 167v0v-167h-28v196h46l56 -141l57 141h46zM159 650v-29h-64v-167h-28v167h-65v29h157z" />
    <glyph glyph-name="acute" unicode="&#xb4;" horiz-adv-x="293" 
d="M249 816l-124 -124l-86 -1l81 125h129zM202 798h-72l-54 -88h38z" />
    <glyph glyph-name="dieresis" unicode="&#xa8;" horiz-adv-x="408" 
d="M187 826v-103h-104v103h104zM171 810h-72v-71h72v71zM343 826v-103h-104v103h104zM327 810h-72v-71h72v71z" />
    <glyph glyph-name="AE" unicode="&#xc6;" horiz-adv-x="594" 
d="M251 518l-62 -261h62v261zM271 567v-330h-108l79 330h29zM132 671h438v-138h-160v-113h154v-139h-154v-142h160v-137h-319v117h-94l-32 -117h-165zM148 651l-162 -629h123l32 117h130v-117h279v97h-160v182h154v99h-154v153h160v98h-402z" />
    <glyph glyph-name="Oslash" unicode="&#xd8;" horiz-adv-x="436" 
d="M163 342l70 155v11q0 42 -35 42t-35 -48v-160zM143 249v253q0 68 55 68t55 -62v-15zM198 -11q-85 0 -129 24l-31 -65l-65 28l46 90q-16 33 -16 103v335q0 100 43 140t152 40q84 0 121 -20l27 51l67 -27l-40 -77q19 -31 19 -107v-335q0 -101 -42.5 -140.5t-151.5 -39.5z
M198 9q101 0 137.5 34t36.5 126v335q0 76 -23 106l36 68l-29 12l-30 -55q-38 29 -128 29q-101 0 -138 -34t-37 -126v-335q0 -70 18 -103l-40 -80l27 -12l33 67q50 -32 137 -32zM233 345l-70 -153v-12q0 -28 4 -38q7 -19 29 -19q26 0 33 16q4 9 4 38v168zM253 436v-259
q0 -37 -9 -53q-13 -21 -48 -21q-53 0 -53 77v16z" />
    <glyph glyph-name="plusminus" unicode="&#xb1;" horiz-adv-x="209" 
 />
    <glyph glyph-name="yen" unicode="&#xa5;" horiz-adv-x="443" 
d="M116 234h-153v70h128l-14 38h-114v70h87l-92 227h169l63 -232l63 232h170l-94 -227h89v-70h-117l-14 -38h131v-70h-153v-232h-149v232zM136 254v-232h109v232h153v30h-139l28 78h111v30h-99l94 227h-124l-79 -288l-79 288h-123l92 -227h-97v-30h108l28 -78h-136v-30h153z
" />
    <glyph glyph-name="uni00B5" unicode="&#xb5;" horiz-adv-x="393" 
d="M295 410v69l-96 -79v251h-124l2 -352l-56 -44v-69l54 44v-208h277v98h-153v214zM219 140h153v-138h-317v187l-54 -44v120l54 45v361h164v-228l96 78v-120l-96 -78v-183z" />
    <glyph glyph-name="uni00B5" unicode="&#x3bc;" horiz-adv-x="393" 
d="M295 410v69l-96 -79v251h-124l2 -352l-56 -44v-69l54 44v-208h277v98h-153v214zM219 140h153v-138h-317v187l-54 -44v120l54 45v361h164v-228l96 78v-120l-96 -78v-183z" />
    <glyph glyph-name="ordfeminine" unicode="&#xaa;" horiz-adv-x="383" 
d="M-5 140l180 395h-173v136h345v-122l-185 -411h201v-136h-368v138zM15 135v-113h328v96h-211l195 436v97h-305v-96h185zM126 706l-96 108h82l66 -38l64 38h79l-93 -108h-102zM137 721l82 1l65 74l-35 2l-72 -42l-72 42h-37z" />
    <glyph glyph-name="ordmasculine" unicode="&#xba;" horiz-adv-x="350" 
d="M-15 122l145 244h-145v126h323v-116l-146 -248h150v-126h-327v120zM5 117v-95h287v86h-166l162 273v91h-283v-86h161zM107 527l-96 108h82l65 -38l65 38h78l-92 -108h-102zM118 542l81 1l66 74l-35 2l-72 -42l-72 42h-38z" />
    <glyph glyph-name="ae" unicode="&#xe6;" horiz-adv-x="613" 
d="M152 131q0 -28 28 -28q26 0 33 24v101q-16 -8 -43 -23q-18 -12 -18 -33v-41zM132 131v41q0 32 30 52l56 30l15 10v-140q-11 -41 -53 -41q-48 0 -48 48zM434 311v45q0 33 -34 33q-33 0 -33 -33v-45h67zM454 291h-107v65q0 53 53 53q54 0 54 -53v-65zM579 145
q0 -157 -172 -157q-110 0 -152 62q-47 -60 -132 -60q-125 0 -125 156q0 74 26 108q20 27 68 42q92 30 94 31q29 13 29 34q0 28 -28 28t-28 -43q0 -2 1 -7v-8v-10h-143v10v10q-1 5 -1 9q0 155 172 155q60 0 106 -37q46 37 106 37q179 0 179 -153v-143h-212v-71q0 -34 35 -34
q32 0 32 34v49h145v-42zM559 145v22h-105v-29q0 -54 -52 -54q-55 0 -55 54v91h212v123q0 133 -159 133q-57 0 -106 -43q-49 43 -106 43q-152 0 -152 -135v-9h103v5q0 63 48 63t48 -48q0 -35 -41 -52q-10 -4 -89 -29q-45 -14 -63 -37q-24 -30 -24 -97q0 -73 24.5 -104.5
t80.5 -31.5q50 0 79 18q24 15 55 58q26 -47 61 -63q30 -15 89 -15q79 0 115.5 33t36.5 104z" />
    <glyph glyph-name="oslash" unicode="&#xf8;" horiz-adv-x="402" 
d="M184 504q60 0 87 -9l28 50l63 -31l-29 -51q37 -31 37 -116v-198q0 -87 -42.5 -123.5t-143.5 -36.5q-66 0 -109 17l-31 -61l-63 28l39 71q-22 31 -22 105v198q0 85 43 121t143 36zM184 484q-93 0 -129.5 -30.5t-36.5 -106.5v-198q0 -72 26 -103l-35 -64l25 -11l31 60
q51 -22 119 -22q94 0 130 31t36 109v198q0 81 -43 109l27 49l-27 13l-27 -48q-33 14 -96 14zM210 380q-8 6 -26 6q-25 0 -31 -15q-4 -8 -4 -37v-82zM234 384l-105 -221v171q0 37 9 52q12 20 46 20q32 0 50 -22zM150 129q6 -21 37 -21q26 0 32 15q3 8 3 39v113zM128 132
l114 228v-198q0 -39 -8 -53q-12 -21 -47 -21q-49 0 -59 44z" />
    <glyph glyph-name="questiondown" unicode="&#xbf;" horiz-adv-x="366" 
d="M108 484h149v-139h-149v139zM128 464v-99h109v99h-109zM344 -40q0 -158 -171 -158q-182 0 -182 175q0 84 51 145q21 24 42 47q24 29 24 56v64h154v-86q0 -41 -29 -85q-9 -14 -54 -67q-29 -34 -29 -52v-45q0 -23 23 -23t23 26v72h148v-69zM324 -40v49h-108v-52
q0 -46 -43 -46t-43 43v45q0 26 56 91t56 113v66h-114v-44q0 -36 -30 -71q-55 -63 -57 -66q-30 -47 -30 -111q0 -81 38.5 -118t123.5 -37q80 0 115.5 33t35.5 105z" />
    <glyph glyph-name="exclamdown" unicode="&#xa1;" horiz-adv-x="232" 
d="M32 333v138h150v-138h-150zM52 353h110v98h-110v-98zM169 274l24 -472h-172l24 472h124zM149 254h-84l-22 -432h128z" />
    <glyph glyph-name="logicalnot" unicode="&#xac;" horiz-adv-x="14" 
 />
    <glyph glyph-name="florin" unicode="&#x192;" horiz-adv-x="474" 
d="M445 169q0 -101 -43.5 -140.5t-151.5 -39.5q-109 0 -152 39.5t-43 140.5v79h-56v74h56v46h-56v74h56v62q0 100 43 140t152 40q108 0 152 -40t43 -140v-22h-161v20q0 48 -35 48q-33 0 -33 -47v-61h118v-74h-118v-46h118v-74h-118v-79q0 -25 5 -34q7 -12 28 -12t28 6.5
t7 36.5v25h161v-22zM425 169v2h-121l1 -7q4 -61 -56 -61q-53 0 -53 66l-1 99h119v34h-118v86h118v34l-118 -1v82q0 67 53 67q55 0 55 -68h121v2q0 92 -37.5 126t-137.5 34q-101 0 -138 -34.5t-37 -125.5v-82h-56v-34h56v-86h-56v-34h56v-99q0 -92 37 -126t138 -34
q100 0 137.5 34t37.5 126z" />
    <glyph glyph-name="guillemotleft" unicode="&#xab;" horiz-adv-x="398" 
d="M229 131l-58 121l58 122h121l-63 -122l66 -121h-124zM246 151h72l-57 101l56 102h-72l-48 -102zM62 131l-68 121l68 122h116l-68 -122l68 -121h-116zM79 151h62l-57 101l56 102h-62l-58 -102z" />
    <glyph glyph-name="guillemotright" unicode="&#xbb;" horiz-adv-x="398" 
d="M118 374l58 -121l-58 -122h-121l63 122l-66 121h124zM102 354h-72l57 -101l-56 -102h72l48 102zM285 374l68 -121l-68 -122h-116l68 122l-68 121h116zM269 354h-62l57 -101l-56 -102h62l58 102z" />
    <glyph glyph-name="ellipsis" unicode="&#x2026;" horiz-adv-x="904" 
d="M65 140h150v-138h-150v138zM85 120v-98h110v98h-110zM398 140h150v-138h-150v138zM418 120v-98h110v98h-110zM732 140h150v-138h-150v138zM752 120v-98h110v98h-110z" />
    <glyph glyph-name="uni00A0" unicode="&#xa0;" horiz-adv-x="245" 
 />
    <glyph glyph-name="Agrave" unicode="&#xc0;" horiz-adv-x="430" 
d="M218 254l-27 217l-29 -217h56zM240 234h-100l41 314h19zM87 671h207l126 -669h-168l-16 114h-91l-16 -114h-168zM103 651l-118 -629h126l16 114h127l16 -114h126l-118 629h-175zM73 817l124 -124l79 -1l-70 125h-133zM119 799h73l54 -88h-38z" />
    <glyph glyph-name="Atilde" unicode="&#xc3;" horiz-adv-x="430" 
d="M218 254l-27 217l-29 -217h56zM240 234h-100l41 314h19zM87 671h207l126 -669h-168l-16 114h-91l-16 -114h-168zM103 651l-118 -629h126l16 114h127l16 -114h126l-118 629h-175zM327 804q-24 -102 -92 -102q-15 0 -44 16.5t-44 16.5q-20 0 -29 -28h-59q22 100 90 100
q16 0 46 -16.5t45 -16.5q20 0 28 30h59zM307 788h-27q-11 -30 -40 -30q-15 0 -45 16.5t-46 16.5q-52 0 -70 -68h28q11 28 40 28q15 0 44 -16.5t44 -16.5q53 0 72 70z" />
    <glyph glyph-name="Otilde" unicode="&#xd5;" horiz-adv-x="426" 
d="M198 -11q-109 0 -152 39.5t-43 140.5v335q0 100 43 140t152 40t151.5 -39.5t42.5 -140.5v-335q0 -101 -42.5 -140.5t-151.5 -39.5zM198 9q101 0 137.5 34t36.5 126v335q0 92 -36.5 126t-137.5 34t-138 -34t-37 -126v-335q0 -92 37 -126t138 -34zM163 171q0 -48 33 -48
q26 0 33 16q4 9 4 38v324q0 29 -7 39t-28 10q-35 0 -35 -48v-331zM143 171v331q0 68 55 68t55 -69v-324q0 -37 -9 -53q-13 -21 -48 -21q-53 0 -53 68zM327 804q-24 -102 -92 -102q-15 0 -44 16.5t-44 16.5q-20 0 -29 -28h-59q22 100 90 100q16 0 46 -16.5t45 -16.5
q20 0 28 30h59zM307 788h-27q-11 -30 -40 -30q-15 0 -45 16.5t-46 16.5q-52 0 -70 -68h28q11 28 40 28q15 0 44 -16.5t44 -16.5q53 0 72 70z" />
    <glyph glyph-name="OE" unicode="&#x152;" horiz-adv-x="582" 
d="M553 2h-251q-40 -13 -104 -13q-109 0 -152 39.5t-43 140.5v335q0 100 43 140t152 40q64 0 104 -13h251v-139h-160v-113h154v-138h-154v-141h160v-138zM533 22v98h-160v181h154v98h-154v153h160v100h-250q-76 12 -85 12q-101 0 -138 -34t-37 -126v-335q0 -92 37 -126
t138 -34q63 0 95 14zM253 177q0 -37 -9 -53q-13 -21 -48 -21q-53 0 -53 68v331q0 68 55 68t55 -69v-324zM233 177v324q0 29 -7 39t-28 10q-35 0 -35 -48v-331q0 -48 33 -48q26 0 33 16q4 9 4 38z" />
    <glyph glyph-name="oe" unicode="&#x153;" horiz-adv-x="621" 
d="M589 145q0 -156 -172 -156q-79 0 -117 20q-45 -20 -116 -20q-102 0 -144 36.5t-42 123.5v198q0 85 43 121t143 36q70 0 113 -24q46 25 113 25q179 0 179 -153v-143h-212v-71q0 -32 36 -32q31 0 31 32v49h145v-42zM569 145v22h-105v-29q0 -52 -51 -52q-56 0 -56 52v91h212
v123q0 133 -159 133q-74 0 -113 -18q-37 17 -113 17q-93 0 -129.5 -30.5t-36.5 -106.5v-198q0 -78 35.5 -109t130.5 -31q79 0 117 18q40 -18 116 -18q80 0 116 32.5t36 103.5zM464 291h-107v65q0 53 52 53q55 0 55 -53v-65zM233 162q0 -39 -7 -53q-11 -21 -43 -21
q-48 0 -48 69v177q0 37 7 51q10 21 41 21t42 -20q8 -15 8 -51v-173zM444 311v45q0 33 -35 33q-32 0 -32 -33v-45h67zM213 162v173q0 32 -6 41.5t-24 9.5q-21 0 -26 -16q-2 -7 -2 -36v-177q0 -49 28 -49q23 0 28 16q2 7 2 38z" />
    <glyph glyph-name="endash" unicode="&#x2013;" horiz-adv-x="507" 
d="M-37 300h520v-91h-520v91zM-17 280v-51h480v51h-480z" />
    <glyph glyph-name="emdash" unicode="&#x2014;" horiz-adv-x="1007" 
d="M-37 300h1020v-91h-1020v91zM-17 280v-51h980v51h-980z" />
    <glyph glyph-name="quotedblleft" unicode="&#x201c;" horiz-adv-x="391" 
d="M78 671h95l-63 -127h47v-138h-150v144zM90 651l-63 -107v-118h110v98h-59l63 127h-51zM264 671h95l-63 -127h47v-138h-150v144zM276 651l-63 -107v-118h110v98h-59l63 127h-51z" />
    <glyph glyph-name="quotedblright" unicode="&#x201d;" horiz-adv-x="370" 
d="M271 406h-94l62 127h-46v138h150v-144zM259 426l64 107v118h-110v-98h58l-62 -127h50zM85 406h-94l62 127h-46v138h149v-144zM73 426l63 107v118h-109v-98h58l-62 -127h50z" />
    <glyph glyph-name="quoteleft" unicode="&#x2018;" horiz-adv-x="182" 
d="M68 671h95l-63 -127h47v-138h-150v144zM80 651l-63 -107v-118h110v98h-59l63 127h-51z" />
    <glyph glyph-name="quoteright" unicode="&#x2019;" horiz-adv-x="193" 
d="M85 406h-94l62 127h-46v138h149v-144zM73 426l63 107v118h-109v-98h58l-62 -127h50z" />
    <glyph glyph-name="divide" unicode="&#xf7;" horiz-adv-x="209" 
 />
    <glyph glyph-name="ydieresis" unicode="&#xff;" horiz-adv-x="388" 
d="M90 -18q14 0 14 11q0 77 -26 169q-16 56 -58.5 165.5t-57.5 164.5h160l58 -315l43 315h155l-121 -526q-16 -68 -38 -92q-30 -32 -97 -32h-99v140h67zM90 -38h-47v-100h79q58 0 82 25q19 21 33 84l115 501h-111l-57 -421l-78 421h-118q42 -120 83 -240q53 -156 53 -239
q0 -31 -34 -31zM147 646v-103h-104v103h104zM131 630h-72v-71h72v71zM303 646v-103h-104v103h104zM287 630h-72v-71h72v71z" />
    <glyph glyph-name="Ydieresis" unicode="&#x178;" horiz-adv-x="424" 
d="M116 255l-157 416h174l62 -243l61 243h174l-157 -416v-253h-157v253zM136 259v-237h117v237l149 392h-130l-65 -264h-22l-68 264h-130zM167 826v-103h-104v103h104zM151 810h-72v-71h72v71zM323 826v-103h-104v103h104zM307 810h-72v-71h72v71z" />
    <glyph glyph-name="currency" unicode="&#xa4;" horiz-adv-x="29" 
 />
    <glyph glyph-name="guilsinglleft" unicode="&#x2039;" horiz-adv-x="217" 
d="M62 131l-68 121l68 122h116l-68 -122l68 -121h-116zM79 151h62l-57 101l56 102h-62l-58 -102z" />
    <glyph glyph-name="guilsinglright" unicode="&#x203a;" horiz-adv-x="217" 
d="M120 374l68 -121l-68 -122h-116l68 122l-68 121h116zM104 354h-62l57 -101l-56 -102h62l58 102z" />
    <glyph glyph-name="daggerdbl" unicode="&#x2021;" horiz-adv-x="209" 
 />
    <glyph glyph-name="periodcentered" unicode="&#xb7;" horiz-adv-x="193" 
d="M82 387q38 0 63.5 -24t25.5 -59q0 -34 -26.5 -58.5t-62.5 -24.5t-63 24.5t-27 58.5t26.5 58.5t63.5 24.5zM82 367q-29 0 -49.5 -19t-20.5 -44t21 -44t49 -19q29 0 49 19t20 44q0 26 -19.5 44.5t-49.5 18.5z" />
    <glyph glyph-name="periodcentered" unicode="&#x2219;" horiz-adv-x="193" 
d="M82 387q38 0 63.5 -24t25.5 -59q0 -34 -26.5 -58.5t-62.5 -24.5t-63 24.5t-27 58.5t26.5 58.5t63.5 24.5zM82 367q-29 0 -49.5 -19t-20.5 -44t21 -44t49 -19q29 0 49 19t20 44q0 26 -19.5 44.5t-49.5 18.5z" />
    <glyph glyph-name="quotesinglbase" unicode="&#x201a;" horiz-adv-x="175" 
d="M85 -124h-94l62 126h-46v138h149v-143zM73 -104l63 106v118h-109v-98h58l-62 -126h50z" />
    <glyph glyph-name="quotedblbase" unicode="&#x201e;" horiz-adv-x="352" 
d="M261 -124h-94l62 126h-46v138h150v-144zM249 -104l64 106v118h-110v-98h58l-62 -126h50zM85 -124h-94l62 126h-46v138h149v-143zM73 -104l63 106v118h-109v-98h58l-62 -126h50z" />
    <glyph glyph-name="perthousand" unicode="&#x2030;" horiz-adv-x="209" 
 />
    <glyph glyph-name="Acircumflex" unicode="&#xc2;" horiz-adv-x="430" 
d="M218 254l-27 217l-29 -217h56zM240 234h-100l41 314h19zM87 671h207l126 -669h-168l-16 114h-91l-16 -114h-168zM103 651l-118 -629h126l16 114h127l16 -114h126l-118 629h-175zM234 815l96 -107l-82 -1l-65 37l-65 -37l-78 1l92 107h102zM223 799h-81l-66 -75l35 -1
l72 42l72 -42h38z" />
    <glyph glyph-name="Ecircumflex" unicode="&#xca;" horiz-adv-x="430" 
d="M218 254l-27 217l-29 -217h56zM240 234h-100l41 314h19zM87 671h207l126 -669h-168l-16 114h-91l-16 -114h-168zM103 651l-118 -629h126l16 114h127l16 -114h126l-118 629h-175zM234 815l96 -107l-82 -1l-65 37l-65 -37l-78 1l92 107h102zM223 799h-81l-66 -75l35 -1
l72 42l72 -42h38z" />
    <glyph glyph-name="Aacute" unicode="&#xc1;" horiz-adv-x="430" 
d="M218 254l-27 217l-29 -217h56zM240 234h-100l41 314h19zM87 671h207l126 -669h-168l-16 114h-91l-16 -114h-168zM103 651l-118 -629h126l16 114h127l16 -114h126l-118 629h-175zM296 817l-123 -124l-80 -1l74 125h129zM250 799h-72l-54 -88h38z" />
    <glyph glyph-name="Edieresis" unicode="&#xcb;" horiz-adv-x="430" 
d="M218 254l-27 217l-29 -217h56zM240 234h-100l41 314h19zM87 671h207l126 -669h-168l-16 114h-91l-16 -114h-168zM103 651l-118 -629h126l16 114h127l16 -114h126l-118 629h-175zM164 826v-103h-104v103h104zM148 810h-72v-71h72v71zM320 826v-103h-104v103h104zM304 810
h-72v-71h72v71z" />
    <glyph glyph-name="Egrave" unicode="&#xc8;" horiz-adv-x="430" 
d="M218 254l-27 217l-29 -217h56zM240 234h-100l41 314h19zM87 671h207l126 -669h-168l-16 114h-91l-16 -114h-168zM103 651l-118 -629h126l16 114h127l16 -114h126l-118 629h-175zM73 817l124 -124l79 -1l-70 125h-133zM119 799h73l54 -88h-38z" />
    <glyph glyph-name="Iacute" unicode="&#xcd;" horiz-adv-x="216" 
d="M180 2h-164v669h164v-669zM160 22v629h-124v-629h124zM206 817l-123 -124l-80 -1l74 125h129zM160 799h-72l-54 -88h38z" />
    <glyph glyph-name="Icircumflex" unicode="&#xce;" horiz-adv-x="216" 
d="M180 2h-164v669h164v-669zM160 22v629h-124v-629h124zM144 815l96 -107l-82 -1l-65 37l-65 -37l-78 1l92 107h102zM133 799h-81l-66 -75l35 -1l72 42l72 -42h38z" />
    <glyph glyph-name="Idieresis" unicode="&#xcf;" horiz-adv-x="216" 
d="M180 2h-164v669h164v-669zM160 22v629h-124v-629h124zM77 826v-103h-104v103h104zM61 810h-72v-71h72v71zM233 826v-103h-104v103h104zM217 810h-72v-71h72v71z" />
    <glyph glyph-name="Igrave" unicode="&#xcc;" horiz-adv-x="216" 
d="M180 2h-164v669h164v-669zM160 22v629h-124v-629h124zM-7 817l124 -124l79 -1l-70 125h-133zM39 799h73l54 -88h-38z" />
    <glyph glyph-name="Oacute" unicode="&#xd3;" horiz-adv-x="426" 
d="M198 -11q-109 0 -152 39.5t-43 140.5v335q0 100 43 140t152 40t151.5 -39.5t42.5 -140.5v-335q0 -101 -42.5 -140.5t-151.5 -39.5zM198 9q101 0 137.5 34t36.5 126v335q0 92 -36.5 126t-137.5 34t-138 -34t-37 -126v-335q0 -92 37 -126t138 -34zM163 171q0 -48 33 -48
q26 0 33 16q4 9 4 38v324q0 29 -7 39t-28 10q-35 0 -35 -48v-331zM143 171v331q0 68 55 68t55 -69v-324q0 -37 -9 -53q-13 -21 -48 -21q-53 0 -53 68zM306 827l-123 -124l-80 -1l74 125h129zM260 809h-72l-54 -88h38z" />
    <glyph glyph-name="Ocircumflex" unicode="&#xd4;" horiz-adv-x="426" 
d="M198 -11q-109 0 -152 39.5t-43 140.5v335q0 100 43 140t152 40t151.5 -39.5t42.5 -140.5v-335q0 -101 -42.5 -140.5t-151.5 -39.5zM198 9q101 0 137.5 34t36.5 126v335q0 92 -36.5 126t-137.5 34t-138 -34t-37 -126v-335q0 -92 37 -126t138 -34zM163 171q0 -48 33 -48
q26 0 33 16q4 9 4 38v324q0 29 -7 39t-28 10q-35 0 -35 -48v-331zM143 171v331q0 68 55 68t55 -69v-324q0 -37 -9 -53q-13 -21 -48 -21q-53 0 -53 68zM244 815l96 -107l-82 -1l-65 37l-65 -37l-78 1l92 107h102zM233 799h-81l-66 -75l35 -1l72 42l72 -42h38z" />
    <glyph glyph-name="Ograve" unicode="&#xd2;" horiz-adv-x="426" 
d="M198 -11q-109 0 -152 39.5t-43 140.5v335q0 100 43 140t152 40t151.5 -39.5t42.5 -140.5v-335q0 -101 -42.5 -140.5t-151.5 -39.5zM198 9q101 0 137.5 34t36.5 126v335q0 92 -36.5 126t-137.5 34t-138 -34t-37 -126v-335q0 -92 37 -126t138 -34zM163 171q0 -48 33 -48
q26 0 33 16q4 9 4 38v324q0 29 -7 39t-28 10q-35 0 -35 -48v-331zM143 171v331q0 68 55 68t55 -69v-324q0 -37 -9 -53q-13 -21 -48 -21q-53 0 -53 68zM73 836l124 -123l79 -1l-70 125zM119 819h73l54 -88h-38z" />
    <glyph glyph-name="Uacute" unicode="&#xda;" horiz-adv-x="436" 
d="M171 671v-481q0 -43 5 -55.5t26 -12.5t26 12t5 55v482h159v-522q0 -87 -43 -123.5t-147 -36.5t-147 36.5t-43 123.5v522h159zM151 651h-119v-502q0 -77 36.5 -108.5t133.5 -31.5t133.5 31.5t36.5 108.5v502h-119v-462q0 -44 -5 -58q-10 -29 -46 -29t-46 29q-5 15 -5 59
v461zM296 816l-123 -123l-80 -1l74 125zM250 799h-72l-54 -88h38z" />
    <glyph glyph-name="Ucircumflex" unicode="&#xdb;" horiz-adv-x="436" 
d="M171 671v-481q0 -43 5 -55.5t26 -12.5t26 12t5 55v482h159v-522q0 -87 -43 -123.5t-147 -36.5t-147 36.5t-43 123.5v522h159zM151 651h-119v-502q0 -77 36.5 -108.5t133.5 -31.5t133.5 31.5t36.5 108.5v502h-119v-462q0 -44 -5 -58q-10 -29 -46 -29t-46 29q-5 15 -5 59
v461zM254 815l96 -107l-82 -1l-65 37l-65 -37l-78 1l92 107h102zM243 799h-81l-66 -75l35 -1l72 42l72 -42h38z" />
    <glyph glyph-name="Ugrave" unicode="&#xd9;" horiz-adv-x="436" 
d="M171 671v-481q0 -43 5 -55.5t26 -12.5t26 12t5 55v482h159v-522q0 -87 -43 -123.5t-147 -36.5t-147 36.5t-43 123.5v522h159zM151 651h-119v-502q0 -77 36.5 -108.5t133.5 -31.5t133.5 31.5t36.5 108.5v502h-119v-462q0 -44 -5 -58q-10 -29 -46 -29t-46 29q-5 15 -5 59
v461zM93 816l124 -123l79 -1l-70 125zM139 799h73l54 -88h-38z" />
    <glyph glyph-name="circumflex" unicode="&#x2c6;" horiz-adv-x="340" 
d="M204 815l96 -107l-82 -1l-65 37l-65 -37l-78 1l92 107h102zM193 799h-81l-66 -75l35 -1l72 42l72 -42h38z" />
    <glyph glyph-name="tilde" unicode="&#x2dc;" horiz-adv-x="286" 
d="M267 804q-24 -102 -92 -102q-15 0 -44 16.5t-44 16.5q-20 0 -29 -28h-59q22 100 90 100q16 0 46 -16.5t45 -16.5q20 0 28 30h59zM247 788h-27q-11 -30 -40 -30q-15 0 -45 16.5t-46 16.5q-52 0 -70 -68h28q11 28 40 28q15 0 44 -16.5t44 -16.5q53 0 72 70z" />
    <glyph glyph-name="macron" unicode="&#xaf;" horiz-adv-x="397" 
d="M323 819v-89h-250v89h250zM303 799h-210v-49h210v49z" />
    <glyph glyph-name="macron" unicode="&#x2c9;" horiz-adv-x="397" 
d="M323 819v-89h-250v89h250zM303 799h-210v-49h210v49z" />
    <glyph glyph-name="cedilla" unicode="&#xb8;" horiz-adv-x="333" 
d="M255 -18q47 -2 66 -26q16 -21 16 -69q0 -99 -121 -99q-25 0 -39 7q-25 11 -37 15v78q4 -1 41 -15q20 -8 43 -8q28 0 28 23q0 21 -37 21q-12 0 -31 -2v115h71v-40zM235 -38v40h-31v-73h11q57 0 57 -41q0 -43 -48 -43q-2 0 -66 17l2 -42q2 0 33 -10q6 -2 23 -2
q101 0 101 79q0 42 -14 58.5t-58 16.5h-10z" />
    <glyph glyph-name="Scaron" unicode="&#x160;" 
 />
    <glyph glyph-name="scaron" unicode="&#x161;" 
 />
    <glyph glyph-name="brokenbar" unicode="&#xa6;" 
 />
    <glyph glyph-name="Eth" unicode="&#xd0;" 
 />
    <glyph glyph-name="eth" unicode="&#xf0;" 
 />
    <glyph glyph-name="Yacute" unicode="&#xdd;" 
 />
    <glyph glyph-name="yacute" unicode="&#xfd;" 
 />
    <glyph glyph-name="Thorn" unicode="&#xde;" 
 />
    <glyph glyph-name="thorn" unicode="&#xfe;" 
 />
    <glyph glyph-name="uni00AD" unicode="&#xad;" 
 />
    <glyph glyph-name="uni00AD" unicode="&#x2212;" 
 />
    <glyph glyph-name="multiply" unicode="&#xd7;" 
 />
    <glyph glyph-name="uni00B9" unicode="&#xb9;" 
 />
    <glyph glyph-name="uni00B2" unicode="&#xb2;" 
 />
    <glyph glyph-name="uni00B3" unicode="&#xb3;" 
 />
    <glyph glyph-name="onehalf" unicode="&#xbd;" 
 />
    <glyph glyph-name="onequarter" unicode="&#xbc;" 
 />
    <glyph glyph-name="threequarters" unicode="&#xbe;" 
 />
    <glyph glyph-name="Lslash" unicode="&#x141;" 
 />
    <glyph glyph-name="lslash" unicode="&#x142;" 
 />
    <glyph glyph-name="glyph220" 
 />
    <glyph glyph-name="glyph221" 
 />
    <glyph glyph-name="glyph222" 
 />
    <glyph glyph-name="Zcaron" unicode="&#x17d;" 
 />
    <glyph glyph-name="zcaron" unicode="&#x17e;" 
 />
    <glyph glyph-name="glyph225" 
 />
    <glyph glyph-name="glyph226" 
 />
    <glyph glyph-name="glyph227" 
 />
    <glyph glyph-name="glyph228" 
 />
    <glyph glyph-name="glyph229" 
 />
    <glyph glyph-name="glyph230" 
 />
    <glyph glyph-name="glyph231" 
 />
    <glyph glyph-name="glyph232" horiz-adv-x="1000" 
 />
    <glyph glyph-name="notequal" unicode="&#x2260;" horiz-adv-x="209" 
 />
    <glyph glyph-name="infinity" unicode="&#x221e;" horiz-adv-x="209" 
 />
    <glyph glyph-name="lessequal" unicode="&#x2264;" horiz-adv-x="209" 
 />
    <glyph glyph-name="greaterequal" unicode="&#x2265;" horiz-adv-x="209" 
 />
    <glyph glyph-name="partialdiff" unicode="&#x2202;" horiz-adv-x="272" 
d="M251 366l-48 -40v-321h-159v189l-43 -36v120l43 36v354h159v-222l48 40v-120zM231 376v68l-48 -38v242h-119v-342l-43 -38v-69l43 34v-208h119v314z" />
    <glyph glyph-name="summation" unicode="&#x2211;" horiz-adv-x="420" 
d="M155 223v-10v-13q-1 -8 -1 -11q0 -37 7.5 -49t27.5 -12q22 0 29 11q6 8 6 30q0 37 -13 57q-9 15 -43 41q-67 52 -88 71q-61 53 -74 86q-11 26 -11 86q0 92 48.5 133t155.5 41q95 0 139 -43.5t44 -137.5q0 -10 -3 -47h-158v31q0 30 -3 39q-5 19 -27 19q-34 0 -34 -42
q0 -32 19 -53q4 -5 45 -36q77 -60 95 -77q51 -49 67 -101q3 -11 3 -67q0 -98 -42 -139t-150 -41q-105 0 -152 42t-47 134q0 8 2 58h158zM135 203h-119q-1 -28 -1 -38q0 -83 41 -119.5t138 -36.5q100 0 137 37q35 34 35 123q0 52 -6 72q-7 24 -38 61q-18 22 -113 96
q-44 34 -51 42q-21 25 -21 63q0 62 54 62q32 0 43 -25q7 -16 7 -53v-11h120q1 18 1 27q0 85 -38 123t-125 38q-100 0 -142 -36t-42 -118q0 -53 8 -75t43 -57q25 -26 114 -95q38 -30 51 -51.5t13 -62.5q0 -61 -55 -61t-55 81q0 2 1 14zM147 707l-96 108h82l65 -38l65 38h78
l-92 -108h-102zM158 722l81 1l66 74l-35 2l-72 -42l-72 42h-38z" />
    <glyph glyph-name="product" unicode="&#x220f;" horiz-adv-x="381" 
d="M152 182q-2 -19 -2 -32q0 -44 30 -44q29 0 29 31q0 27 -44 49q-40 19 -81 39.5t-60 46.5q-24 34 -24 88q0 144 180 144q81 0 126 -38.5t45 -110.5q0 -13 -2 -30h-146q3 16 3 26q0 37 -26 37q-27 0 -27 -23q0 -20 29 -37q42 -20 83 -41q48 -24 71 -51q29 -36 29 -90
q0 -158 -183 -158q-182 0 -182 157q0 14 2 37h150zM130 162h-110v-17q0 -72 38 -104.5t124 -32.5q163 0 163 138q0 65 -55 104q-6 4 -102 52q-55 28 -55 63q0 19 13.5 31t33.5 12q47 0 46 -57v-6h105v10q0 129 -151 129q-160 0 -160 -124q0 -49 23 -79q18 -23 58 -43l74 -34
q54 -28 54 -67q0 -51 -49 -51q-50 0 -50 64v12zM127 527l-96 108h82l65 -38l65 38h78l-92 -108h-102zM138 542l81 1l66 74l-35 2l-72 -42l-72 42h-38z" />
    <glyph glyph-name="pi" unicode="&#x3c0;" horiz-adv-x="438" 
d="M116 255l-157 416h174l62 -243l61 243h174l-157 -416v-253h-157v253zM136 259v-237h117v237l149 392h-130l-65 -264h-22l-68 264h-130zM349 816l-124 -124l-86 1l81 123h129zM302 798h-72l-54 -88h38z" />
    <glyph glyph-name="integral" unicode="&#x222b;" horiz-adv-x="396" 
d="M90 -18q14 0 14 11q0 77 -26 169q-16 56 -58.5 165.5t-57.5 164.5h160l58 -315l43 315h155l-121 -526q-16 -68 -38 -92q-30 -32 -97 -32h-99v140h67zM90 -38h-47v-100h79q58 0 82 25q19 21 33 84l115 501h-111l-57 -421l-78 421h-118q42 -120 83 -240q53 -156 53 -239
q0 -31 -34 -31zM299 656l-124 -124l-86 -1l81 125h129zM252 638h-72l-54 -88h38z" />
    <glyph glyph-name="Omega" unicode="&#x3a9;" horiz-adv-x="474" 
d="M445 169q0 -101 -43.5 -140.5t-151.5 -39.5q-109 0 -152 39.5t-43 140.5v79h-56v74h56v46h-56v74h56v62q0 100 43 140t152 40q108 0 152 -40t43 -140v-22h-161v20q0 48 -35 48q-33 0 -33 -47v-61h118v-74h-118v-46h118v-74h-118v-79q0 -25 5 -34q7 -12 28 -12t28 6.5
t7 36.5v25h161v-22zM425 169v2h-121l1 -7q4 -61 -56 -61q-53 0 -53 66l-1 99h119v34h-118v86h118v34l-118 -1v82q0 67 53 67q55 0 55 -68h121v2q0 92 -37.5 126t-137.5 34q-101 0 -138 -34.5t-37 -125.5v-82h-56v-34h56v-86h-56v-34h56v-99q0 -92 37 -126t138 -34
q100 0 137.5 34t37.5 126z" />
    <glyph glyph-name="Omega" unicode="&#x2126;" horiz-adv-x="474" 
d="M445 169q0 -101 -43.5 -140.5t-151.5 -39.5q-109 0 -152 39.5t-43 140.5v79h-56v74h56v46h-56v74h56v62q0 100 43 140t152 40q108 0 152 -40t43 -140v-22h-161v20q0 48 -35 48q-33 0 -33 -47v-61h118v-74h-118v-46h118v-74h-118v-79q0 -25 5 -34q7 -12 28 -12t28 6.5
t7 36.5v25h161v-22zM425 169v2h-121l1 -7q4 -61 -56 -61q-53 0 -53 66l-1 99h119v34h-118v86h118v34l-118 -1v82q0 67 53 67q55 0 55 -68h121v2q0 92 -37.5 126t-137.5 34q-101 0 -138 -34.5t-37 -125.5v-82h-56v-34h56v-86h-56v-34h56v-99q0 -92 37 -126t138 -34
q100 0 137.5 34t37.5 126z" />
    <glyph glyph-name="radical" unicode="&#x221a;" horiz-adv-x="11" 
 />
    <glyph glyph-name="approxequal" unicode="&#x2248;" horiz-adv-x="209" 
 />
    <glyph glyph-name="approxequal" unicode="&#x22f2;" horiz-adv-x="209" 
 />
    <glyph glyph-name="Delta" unicode="&#x394;" horiz-adv-x="209" 
 />
    <glyph glyph-name="Delta" unicode="&#x2206;" horiz-adv-x="209" 
 />
    <glyph glyph-name="lozenge" unicode="&#x25ca;" horiz-adv-x="209" 
 />
    <glyph glyph-name="fraction" unicode="&#x2044;" horiz-adv-x="23" 
 />
    <glyph glyph-name="uniF001" unicode="&#xf001;" horiz-adv-x="25" 
 />
    <glyph glyph-name="uniF002" unicode="&#xf002;" horiz-adv-x="209" 
 />
    <glyph glyph-name="uniF000" unicode="&#xf000;" horiz-adv-x="209" 
 />
    <glyph glyph-name="dotlessi" unicode="&#x131;" horiz-adv-x="203" 
d="M14 492h159v-490h-159v490zM34 472v-450h119v450h-119z" />
    <glyph glyph-name="breve" unicode="&#x2d8;" horiz-adv-x="332" 
d="M97 818q3 -29 19 -37q11 -6 47 -6t47 6q15 8 18 37h74q-5 -61 -38.5 -87.5t-100.5 -26.5q-66 0 -99 27t-37 88zM83 802h-36q5 -44 36 -63q25 -16 80 -19q103 -8 121 82h-42q-5 -28 -29 -38q-15 -5 -50 -5t-50 5q-25 10 -30 38z" />
    <glyph glyph-name="dotaccent" unicode="&#x2d9;" horiz-adv-x="261" 
d="M187 826v-103h-104v103h104zM171 810h-72v-71h72v71z" />
    <glyph glyph-name="ring" unicode="&#x2da;" horiz-adv-x="246" 
d="M111 709q-38 0 -65 24.5t-27 60.5q0 35 27 59.5t65 24.5q39 0 66 -24.5t27 -59.5q0 -36 -27 -60.5t-66 -24.5zM111 863q-32 0 -54 -20.5t-22 -48.5q0 -29 22 -49t54 -20q33 0 55 20t22 49q0 28 -22 48.5t-55 20.5zM111 751q-19 0 -32.5 12t-13.5 31q0 18 13.5 30.5
t32.5 12.5t33 -12.5t14 -30.5q0 -19 -13.5 -31t-33.5 -12zM111 821q-30 0 -30 -27t30 -27q31 0 31 27t-31 27z" />
    <glyph glyph-name="hungarumlaut" unicode="&#x2dd;" horiz-adv-x="371" 
d="M178 827l-104 -131h-50l40 131h114zM146 810h-70l-32 -99h23zM331 827l-139 -131h-55l75 131h119zM295 810h-72l-63 -99h25z" />
    <glyph glyph-name="ogonek" unicode="&#x2db;" horiz-adv-x="251" 
d="M209 22q-82 -61 -82 -101q0 -30 30 -25l60 10v-98l-62 -10q-14 -2 -27 -2q-45 0 -72 26t-27 68q0 76 80 129zM154 -4l-39 3q-41 -27 -55 -55q-11 -20 -11 -54q0 -31 18 -52q21 -24 57 -24q15 0 31 4l42 10v58l-40 -10q-6 -2 -11 -2q-39 0 -39 47q0 31 47 75z" />
    <glyph glyph-name="caron" unicode="&#x2c7;" horiz-adv-x="340" 
d="M106 707l-96 107l82 1l65 -38l65 38l78 -1l-92 -107h-102zM117 722l81 1l66 74l-35 2l-72 -42l-72 42h-38z" />
    </font>
</defs>
</svg>
