<?xml version="1.0" standalone="no"?>
<!DOCTYPE svg PUBLIC "-//W3C//DTD SVG 1.1//EN" "http://www.w3.org/Graphics/SVG/1.1/DTD/svg11.dtd" >
<svg>
<metadata>
Created by FontForge 20120731 at Wed Apr 17 22:56:11 2019
 By www-data
Digitized by Dan X. Solo. Software (c) 2001 by Dover Publications, Inc., New York.
</metadata>
<defs>
<font id="ColumnaOutline" horiz-adv-x="8" >
  <font-face 
    font-family="Columna Outline "
    font-weight="400"
    font-stretch="normal"
    units-per-em="1000"
    panose-1="0 0 4 0 0 0 0 0 0 0"
    ascent="800"
    descent="-200"
    x-height="671"
    cap-height="673"
    bbox="-59 -200 926 860"
    underline-thickness="20"
    underline-position="-123"
    unicode-range="U+0020-F002"
  />
<missing-glyph horiz-adv-x="500" 
d="M63 0v800h375v-800h-375zM125 63h250v675h-250v-675z" />
    <glyph glyph-name=".notdef" horiz-adv-x="500" 
d="M63 0v800h375v-800h-375zM125 63h250v675h-250v-675z" />
    <glyph glyph-name="glyph1" horiz-adv-x="0" 
 />
    <glyph glyph-name="glyph2" horiz-adv-x="255" 
 />
    <glyph glyph-name="space" unicode=" " horiz-adv-x="255" 
 />
    <glyph glyph-name="exclam" unicode="!" horiz-adv-x="196" 
d="M149 54q0 -28 -19.5 -47.5t-47.5 -19.5t-47.5 19t-19.5 47q0 30 19.5 49t49.5 19q29 0 47 -19t18 -48zM84 96q-44 0 -44 -43q0 -17 12 -29t30 -12t30 12t12 30q0 42 -40 42zM30 376q-22 128 -22 213q0 105 74 105q75 0 75 -103q0 -161 -75 -447q-37 143 -52 232zM55 380
q11 -65 27 -135q50 205 50 346q0 78 -50 78q-49 0 -49 -80q0 -83 22 -209z" />
    <glyph glyph-name="quotedbl" unicode="&#x22;" horiz-adv-x="306" 
d="M3 669h118l-18 -245h-82zM31 643l14 -194h34l14 194h-62zM150 669h118l-17 -245h-83zM178 643l15 -194h33l14 194h-62z" />
    <glyph glyph-name="numbersign" unicode="#" horiz-adv-x="448" 
d="M364 446l-47 -210h59l-17 -91h-64l-36 -143l-75 2l34 141h-74l-37 -143h-76l37 143h-65l18 91h69l47 210h-65l19 90h69l31 135h76l-32 -135h75l32 135h76l-32 -135h58l-18 -90h-62zM349 464h61l12 53h-60l32 135h-38l-31 -135h-114l32 135h-37l-32 -135h-68l-12 -53h66
l-55 -247h-69l-11 -53h67l-37 -143h37l37 143h113l-35 -143h37l36 143h63l10 53h-59zM166 236h75l46 210h-74zM143 217l55 247h112l-54 -247h-113z" />
    <glyph glyph-name="dollar" unicode="$" horiz-adv-x="429" 
d="M389 474q-38 69 -51 85q-34 41 -86 48v-180q73 -49 106 -90q47 -58 47 -131q0 -75 -44 -131t-115 -79v-91h-80v80h-5q-56 0 -160 34v178q85 -102 165 -108v229q-77 48 -107 81q-47 53 -47 123q0 71 46 118q42 42 113 57v79h81v-78q11 -2 44 -11q29 -7 43 -7q8 0 28 16
q16 12 22 20v-242zM362 569v90q-5 -3 -23 -3q-16 0 -50 9t-50 10l-11 1v76h-33v-75q-159 -28 -159 -155q0 -65 49 -115q27 -27 104 -75v-267h-11q-83 0 -154 69v-98q86 -27 137 -27h28v-80h33v85q76 23 110 64q49 56 49 128q0 70 -48 124q-30 35 -105 84v219q87 -5 134 -64z
M132 535q0 -32 39 -61v124q-39 -22 -39 -63zM138 603q16 16 57 31v-206q-46 32 -58 44q-29 29 -29 63q0 39 30 68zM246 112q38 30 38 75q0 44 -36 77l-2 2v-154zM222 69v248q46 -38 59 -54q27 -34 27 -76t-25 -72q-18 -22 -61 -46z" />
    <glyph glyph-name="percent" unicode="%" horiz-adv-x="899" 
d="M315 641q63 -70 63 -180q0 -95 -44 -161q-52 -76 -142 -76q-88 0 -140 75q-46 67 -46 158q0 96 46 162q52 76 143 76q72 0 120 -54zM298 625q-42 46 -103 46q-81 0 -126 -69q-39 -59 -39 -145q0 -81 39 -141q46 -68 123 -68q80 0 125 69q38 59 38 144q0 101 -57 164z
M110 458q0 -50 17 -96q23 -61 65 -61q43 0 66 64q17 47 17 97q0 52 -17 97q-23 62 -68 62q-41 0 -64 -65q-16 -48 -16 -98zM126 606q29 39 64 39q57 0 86 -68q22 -51 22 -115q0 -62 -22 -115q-29 -70 -84 -70q-54 0 -83 68q-22 52 -22 113q0 96 39 148zM821 393
q63 -70 63 -181q0 -95 -45 -161q-51 -75 -142 -75q-87 0 -139 75q-46 66 -46 157q0 96 45 162q53 76 144 76q72 0 120 -53zM803 377q-41 45 -102 45q-81 0 -126 -69q-39 -59 -39 -145q0 -81 39 -140q45 -68 122 -68q81 0 125 68q38 59 38 144q0 101 -57 165zM616 209
q0 -49 17 -95q22 -62 64 -62q43 0 66 64q17 47 17 97q0 53 -17 98q-23 61 -68 61q-41 0 -63 -65q-16 -48 -16 -98zM631 357q29 39 64 39q57 0 86 -68q23 -51 23 -115q0 -62 -22 -115q-30 -70 -85 -70q-54 0 -83 68q-22 52 -22 113q0 96 39 148zM332 -13l-76 36l308 660
l76 -38zM321 18l287 617l-33 16l-288 -617z" />
    <glyph glyph-name="ampersand" unicode="&#x26;" horiz-adv-x="640" 
d="M614 344q-39 15 -71 15q-7 0 -20 -1q40 -53 40 -112q0 -116 -96 -186q-87 -63 -206 -63q-112 0 -186 59q-82 65 -82 174q0 63 28 105q25 38 82 69q-43 55 -43 115q0 84 67 127q56 37 143 37q40 0 91 -7v-116q-49 31 -89 31q-44 0 -70.5 -25t-26.5 -68q0 -67 80 -113
q-138 -38 -138 -136q0 -66 48 -104q44 -35 112 -35q70 0 115 39t45 107q0 39 -24 67t-62 28q-8 0 -37 -4q5 45 5 60q0 14 -6 60q75 -22 145 -22q76 0 156 22q-4 -57 0 -123zM589 437q-64 -15 -131 -15q-61 0 -118 14q2 -17 2 -29q0 -14 -2 -34q6 1 11 1q49 0 79 -35.5
t30 -82.5q0 -79 -54 -126q-51 -43 -129 -43q-76 0 -127 40q-56 44 -56 122q0 97 109 143q-51 44 -51 106q0 53 33.5 84.5t86.5 31.5q32 0 66 -15v57q-37 4 -68 4q-81 0 -131 -33q-56 -37 -56 -108q0 -54 55 -122q-68 -37 -95 -73t-27 -94q0 -98 73 -156q68 -54 172 -54
q112 0 192 59q87 64 87 167q0 54 -62 131l26 3q31 2 39 2q23 0 47 -5q-2 31 -1 60z" />
    <glyph glyph-name="quotesingle" unicode="'" horiz-adv-x="184" 
d="M11 675l123 -1l-19 -286h-86zM38 650l16 -237h37l14 236q-33 1 -67 1z" />
    <glyph glyph-name="parenleft" unicode="(" horiz-adv-x="247" 
d="M129 330q0 -173 106 -425q-12 -9 -25 -17q-42 42 -69 77q-57 73 -94 168q-40 101 -40 185q0 239 201 438q2 -2 20 -9q15 -6 14 -9q-72 -169 -81 -196q-32 -100 -32 -212zM52 475q-27 -82 -27 -145q0 -81 40 -185q38 -99 92 -168q27 -35 57 -67q-110 238 -110 424
q0 94 36 204q13 38 76 193q-127 -139 -164 -256z" />
    <glyph glyph-name="parenright" unicode=")" horiz-adv-x="267" 
d="M30 -108q-3 4 -14 8q-15 4 -17.5 5.5t-1.5 3.5q66 157 79 196q32 100 32 210q0 173 -107 425q12 10 26 17q42 -42 68 -76q57 -73 94 -168q40 -102 40 -185q0 -238 -199 -436zM79 669q-27 34 -57 66q110 -238 110 -424q0 -93 -36 -203q-13 -39 -76 -194q127 140 164 257
q27 82 27 144q0 81 -40 185q-38 99 -92 169z" />
    <glyph glyph-name="asterisk" unicode="*" horiz-adv-x="338" 
d="M231 525l76 -44l-37 -65l-77 44v-88h-75v88l-76 -44l-37 65l76 44l-76 44l37 65l76 -44v88h75v-88l77 44l37 -65zM191 525l89 51l-18 31l-89 -52v103h-35v-103l-88 52l-18 -31l89 -51l-89 -51l18 -30l88 51v-103h35v103l89 -51l18 30z" />
    <glyph glyph-name="plus" unicode="+" horiz-adv-x="513" 
d="M3 277v120h178l-1 182h124l-1 -182h179v-120h-179l2 -183h-125v183h-177zM28 302h177v-183h74l-1 183h179v70h-179v182l-73 5l1 -187h-178v-70z" />
    <glyph glyph-name="comma" unicode="," horiz-adv-x="195" 
d="M10 -114l-22 -5q39 44 57 103q-54 15 -54 70q0 32 23.5 56t55.5 24q37 0 58 -26t21 -64q0 -127 -139 -158zM70 108q-22 0 -38.5 -15t-16.5 -36q0 -47 59 -55q-13 -50 -39 -89q32 5 60 48.5t28 82.5q0 64 -53 64z" />
    <glyph glyph-name="hyphen" unicode="-" horiz-adv-x="335" 
d="M289 267q0 -20 5 -79q-75 26 -148 26q-71 0 -146 -26q5 59 5 79q0 19 -5 77q76 -23 146 -23q71 0 148 23q-5 -58 -5 -77zM264 267q0 15 2 43q-50 -14 -120 -14q-69 0 -118 14q2 -28 2 -43q0 -16 -2 -43q44 15 118 15q75 0 120 -15q-2 27 -2 43z" />
    <glyph glyph-name="hyphen" unicode="&#x2010;" horiz-adv-x="335" 
d="M289 267q0 -20 5 -79q-75 26 -148 26q-71 0 -146 -26q5 59 5 79q0 19 -5 77q76 -23 146 -23q71 0 148 23q-5 -58 -5 -77zM264 267q0 15 2 43q-50 -14 -120 -14q-69 0 -118 14q2 -28 2 -43q0 -16 -2 -43q44 15 118 15q75 0 120 -15q-2 27 -2 43z" />
    <glyph glyph-name="period" unicode="." horiz-adv-x="210" 
d="M166 68q0 -36 -22 -58t-58 -22q-34 0 -57 21.5t-23 55.5q0 38 22.5 60.5t59.5 22.5q34 0 56 -23t22 -57zM88 123q-57 0 -57 -58q0 -24 15.5 -38t39.5 -14q55 0 55 55q0 24 -14.5 39.5t-38.5 15.5z" />
    <glyph glyph-name="slash" unicode="/" horiz-adv-x="452" 
d="M52 -131l-81 39l424 888l79 -39zM40 -97l401 842l-34 17l-403 -842z" />
    <glyph glyph-name="zero" unicode="0" horiz-adv-x="592" 
d="M474 607q94 -103 94 -267q0 -142 -69 -239q-78 -109 -215 -109q-131 0 -211 109q-70 98 -70 234q0 144 70 243q79 110 217 110q109 0 184 -81zM455 590q-67 73 -165 73q-127 0 -199 -103q-63 -91 -63 -225q0 -125 63 -216q72 -102 193 -102q126 0 197 102q62 90 62 221
q0 154 -88 250zM150 337q0 -80 29 -153q38 -96 105 -96q69 0 107 98q30 75 30 158q0 82 -29 153q-39 93 -110 93q-69 0 -105 -99q-27 -72 -27 -154zM282 615q83 0 128 -100q36 -77 36 -171q0 -95 -35 -176q-46 -105 -127 -105q-79 0 -124 103q-35 79 -35 171q0 94 33 173
q43 105 124 105z" />
    <glyph glyph-name="one" unicode="1" horiz-adv-x="344" 
d="M232 678v-538q0 -69 13 -88q10 -14 75 -51h-306q66 36 76 49q14 20 14 90v365q0 58 -19 75q-11 10 -74 29q74 21 221 69zM91 607q38 -25 38 -102v-365q0 -45 -3 -60q-5 -33 -24 -54h133q-20 21 -26 53q-2 14 -2 61v502q-61 -21 -116 -35z" />
    <glyph glyph-name="two" unicode="2" horiz-adv-x="492" 
d="M46 515q0 79 56 124q53 42 133 42q94 0 155.5 -56.5t61.5 -149.5q0 -97 -73 -195q-82 -109 -155 -176h124q46 0 72 29q8 9 42 68v-224q-38 25 -69 25h-385l116 129q149 166 182 252q12 33 12 69q0 52 -34 81.5t-86 29.5q-64 0 -98 -35q-18 -19 -52 -89q-2 68 -2 76z
M72 534q44 54 126 54q63 0 104 -37t41 -99q0 -74 -60.5 -161.5t-140.5 -176.5l-78 -87h329q25 0 44 -7v95q-31 -36 -89 -36h-189q206 183 253 307q15 41 15 89q0 83 -54 132t-138 49q-65 0 -109 -30q-48 -33 -54 -92z" />
    <glyph glyph-name="three" unicode="3" horiz-adv-x="475" 
d="M206 -7q-95 0 -151 54.5t-56 145.5q0 7 4 67q36 -80 63 -109q44 -48 115 -48q58 0 98.5 35.5t40.5 91.5q0 55 -38.5 88t-91.5 33q-25 0 -106 -12l163 231h-148q-45 0 -65 -22q-6 -6 -34 -61v210q37 -25 60 -25h382l-176 -239q86 -8 136 -63.5t50 -146.5q0 -104 -73 -168
q-69 -62 -173 -62zM25 574q25 21 74 21h197l-158 -223q33 4 52 4q63 0 109 -40t46 -106q0 -67 -48 -109.5t-116 -42.5q-98 0 -154 80q11 -68 58.5 -104t120.5 -36q93 0 157 56t64 149q0 89 -51 137q-48 45 -134 49l-24 1l174 237h-332q-19 0 -35 6v-79z" />
    <glyph glyph-name="four" unicode="4" horiz-adv-x="540" 
d="M292 44q16 14 16 70v51h-313l425 558v-460h11q34 0 52 20q4 4 31 48v-247q-13 29 -27 58q-16 23 -53 23h-14v-51q0 -55 22 -76q10 -9 74 -36h-299q43 15 75 42zM489 176v79q-22 -17 -58 -17h-36v411l-350 -459h288v-76q0 -67 -23 -87h113q-28 27 -28 87v76h39
q35 0 55 -14zM197 263h111v152zM147 238l186 253v-253h-186z" />
    <glyph glyph-name="five" unicode="5" horiz-adv-x="462" 
d="M199 -1q-80 0 -138 45q-64 49 -64 126q0 15 13 65q32 -62 61 -87q38 -34 99 -34q55 0 93.5 32.5t38.5 86.5t-39.5 87.5t-94.5 33.5q-50 0 -136 -46l18 365h270q35 0 49 6q9 4 37 29v-224q-34 59 -42 67q-20 18 -73 18h-139l-6 -117q35 8 66 8q99 0 160.5 -64.5
t61.5 -166.5t-66 -166t-169 -64zM59 351q57 28 109 28q66 0 112.5 -40.5t46.5 -105.5t-46 -104.5t-111 -39.5q-94 0 -148 75q3 -65 59 -104q50 -36 118 -36q92 0 151 56.5t59 148.5q0 91 -54.5 148.5t-142.5 57.5q-33 0 -93 -15l9 174h163q62 0 89 -25v88q-20 -9 -60 -9
h-246z" />
    <glyph glyph-name="six" unicode="6" horiz-adv-x="496" 
d="M133 273q1 -57 27 -97q31 -47 86 -47q38 0 62 25.5t24 62.5q0 43 -29.5 69.5t-72.5 26.5q-27 0 -52 -12q-9 -5 -45 -28zM284 594q-69 -57 -110.5 -142t-40.5 -173v-2q14 34 19 44q13 24 28 39q48 45 113 45q78 0 128 -57.5t50 -135.5q0 -93 -67 -153t-162 -60
q-112 0 -179 85q-63 79 -63 193q0 169 129 292q126 120 298 126l33 1q-57 -18 -93 -40q-30 -18 -83 -62zM268 613q31 26 71 47q-133 -32 -223.5 -140t-90.5 -243q0 -104 55 -175q61 -78 162 -78q84 0 144 53t60 135q0 68 -43 118t-110 50q-66 0 -104 -48q20 6 41 6
q54 0 90.5 -34t36.5 -87q0 -48 -31.5 -80.5t-79.5 -32.5q-67 0 -105 56q-33 49 -33 119q0 94 43.5 184t116.5 150z" />
    <glyph glyph-name="seven" unicode="7" horiz-adv-x="524" 
d="M-1 0l330 569h-205q-47 0 -72 -19q-13 -10 -45 -56v211q27 -24 37.5 -28.5t43.5 -4.5h424l-359 -672h-154zM43 25h95l332 622h-382q-39 0 -56 8v-89l2 2q32 26 90 26h249z" />
    <glyph glyph-name="eight" unicode="8" horiz-adv-x="470" 
d="M218 -6q-88 0 -150 55q-65 58 -65 144q0 118 128 178q-92 62 -92 147q0 73 55 117q52 41 126 41q71 0 121 -37q56 -41 56 -109q0 -71 -90 -134q73 -38 102 -72q38 -45 38 -118q0 -94 -66.5 -153t-162.5 -59zM218 19q86 0 145 51.5t59 135.5q0 76 -44 120q-25 24 -110 68
q48 32 70 55q34 38 34 81q0 57 -49 91q-43 30 -103 30q-64 0 -108 -34q-48 -36 -48 -99q0 -52 33 -90q23 -27 76 -58q-70 -29 -102 -63q-43 -44 -43 -114q0 -76 56 -125t134 -49zM282 521q-2 27 -21 44.5t-45 17.5q-28 0 -49 -18.5t-21 -45.5q0 -51 85 -88q23 15 38 40.5
t13 49.5zM216 608q37 0 63.5 -24.5t25.5 -61.5q-1 -72 -73 -112q-31 9 -55 25q-56 37 -56 84q0 37 28.5 63t66.5 26zM205 325q-46 -24 -66 -48q-27 -31 -27 -77q0 -44 28.5 -72.5t72.5 -28.5q45 0 75.5 31t30.5 75q0 39 -28 67q-17 17 -61 41q-13 8 -22 11zM245 334
q50 -27 71 -50q31 -33 31 -79q0 -55 -38 -93t-94 -38q-54 0 -89.5 35.5t-35.5 89.5q0 93 110 149q2 2 6 2q12 0 39 -16z" />
    <glyph glyph-name="nine" unicode="9" horiz-adv-x="496" 
d="M338 406q0 57 -27 97q-32 47 -85 47q-39 0 -63 -25t-24 -63q0 -43 29 -69.5t73 -26.5q27 0 52 12q10 5 45 28zM342 122q-57 -53 -135 -88q-85 -38 -156 -34q-24 2 -36 22q57 18 106 45q117 65 169 163q48 92 48 173q-14 -35 -19 -45q-13 -24 -28 -39q-48 -45 -112 -45
q-79 0 -129 57t-50 136q0 92 68 154q66 59 160 59q111 0 179 -84q64 -79 64 -191q0 -164 -129 -283zM70 23q64 5 135 38.5t120 78.5q121 112 121 265q0 102 -57 173q-61 77 -161 77q-83 0 -143 -53t-60 -135q0 -69 42 -117q44 -51 112 -51q65 0 103 48q-20 -6 -41 -6
q-54 0 -90.5 33.5t-36.5 87.5q0 48 31.5 80.5t80.5 32.5q65 0 103 -55q34 -49 34 -117q0 -94 -49 -182q-48 -83 -128 -139q-48 -34 -116 -59z" />
    <glyph glyph-name="colon" unicode=":" horiz-adv-x="200" 
d="M166 68q0 -36 -22 -58t-58 -22q-34 0 -57 21.5t-23 55.5q0 38 22.5 60.5t59.5 22.5q34 0 56 -23t22 -57zM88 123q-57 0 -57 -58q0 -24 15.5 -38t39.5 -14q55 0 55 55q0 24 -14.5 39.5t-38.5 15.5zM166 304q0 -35 -22 -57.5t-58 -22.5q-34 0 -57 21.5t-23 56.5
q0 37 22.5 60t59.5 23q34 0 56 -23t22 -58zM88 360q-57 0 -57 -58q0 -24 15.5 -38.5t39.5 -14.5q55 0 55 55q0 24 -15 40t-38 16z" />
    <glyph glyph-name="semicolon" unicode=";" horiz-adv-x="197" 
d="M2 65q0 33 23.5 57t56.5 24q39 0 60 -26.5t21 -65.5q0 -131 -142 -162l-38 -9q39 43 44 51q22 27 31 59q-56 14 -56 72zM27 65q0 -28 19 -40q12 -8 43 -12q-15 -59 -34 -85q83 33 83 126q0 67 -56 67q-22 0 -38.5 -17t-16.5 -39zM166 302q0 -36 -22.5 -58t-57.5 -22
t-58 21.5t-23 55.5q0 37 22.5 60t59.5 23q34 0 56.5 -23t22.5 -57zM87 357q-57 0 -57 -58q0 -24 16 -38t40 -14q55 0 55 55q0 24 -15 39.5t-39 15.5z" />
    <glyph glyph-name="less" unicode="&#x3c;" horiz-adv-x="468" 
d="M1 365l438 275v-123l-273 -167l273 -177v-125l-438 286v31zM20 354v-10l400 -261v80l-288 188l288 176v78z" />
    <glyph glyph-name="equal" unicode="=" horiz-adv-x="479" 
d="M5 477h449v-103h-449v103zM24 458v-65h411v65h-411zM5 317h449v-103h-449v103zM24 298v-65h411v65h-411z" />
    <glyph glyph-name="greater" unicode="&#x3e;" horiz-adv-x="468" 
d="M441 365l-437 275v-123l273 -167l-273 -177v-125l437 286v31zM423 354v-10l-400 -261v80l288 188l-288 176v78z" />
    <glyph glyph-name="question" unicode="?" horiz-adv-x="344" 
d="M204 354q-38 -38 -38 -70q0 -38 43 -38q19 0 89 37q-34 -64 -45 -76q-28 -32 -83 -32q-54 0 -91.5 37t-37.5 90t35 98q8 9 66 64q35 34 35 60q0 25 -19.5 38.5t-44.5 13.5q-37 0 -67 -27q-6 -5 -49 -56l8 169q84 29 142 29q72 0 117 -38q47 -41 47 -111q0 -57 -32 -106
q-19 -28 -75 -82zM236 225q-13 -4 -27 -4q-29 0 -48.5 17t-19.5 46q0 37 38 78q35 37 70 75q37 49 37 105q0 60 -39 92t-100 32q-51 0 -118 -22l-4 -79q35 36 88 36q36 0 62.5 -21t26.5 -56t-34 -68.5t-67 -64.5q-35 -41 -35 -89q0 -43 30.5 -72.5t73.5 -29.5q44 0 66 25z
M157 3q-31 0 -52 21t-21 51q0 32 21.5 53t53.5 21t51.5 -20.5t19.5 -52.5q0 -31 -21 -52t-52 -21zM157 28q20 0 34 13.5t14 34.5q0 48 -46 48q-22 0 -36 -13.5t-14 -35.5q0 -20 14 -33.5t34 -13.5z" />
    <glyph glyph-name="at" unicode="@" horiz-adv-x="685" 
d="M626 130q-10 -15 -45 -54q-105 -96 -239 -96q-136 0 -234 93q-103 97 -103 244q0 85 31 167q33 88 91 142q94 88 218 88q128 0 222 -86q98 -90 98 -223q0 -75 -38 -139q-34 -56 -88 -88q-47 -29 -92 -29q-49 0 -75 36q-50 -37 -94 -37q-67 0 -106 57q-27 39 -27 93
q0 88 61.5 165.5t139.5 77.5q52 0 86 -35l6 19h110q-30 -95 -85 -281q-3 -11 -3 -15q0 -8 9 -8q12 0 32 13q39 24 61.5 70t22.5 97q0 106 -66 168q-60 56 -150 56q-102 0 -178 -69q-85 -77 -94 -206q-8 -117 73 -201t191 -84q120 0 208 106q3 0 30 -15q32 -16 27 -26z
M568 142q-82 -99 -216 -99q-74 0 -136 36q-65 37 -106 113.5t-35 159.5q10 140 101 222q82 74 191 74q99 0 165 -62q73 -68 73 -185q0 -55 -25 -106t-68 -78q-24 -15 -46 -15q-26 0 -26 27q0 9 9 38l72 238h-68l-14 -40q-41 56 -93 56q-77 0 -129 -74q-48 -67 -48 -150
q0 -56 26 -91q29 -38 83 -38q40 0 100 47l6 -10q19 -36 64 -36q81 0 141 80q56 73 56 156q0 121 -86 204q-83 79 -197 84q-122 4 -215 -82q-53 -50 -85 -121.5t-32 -144.5q0 -163 97 -256q87 -84 215 -84q161 0 258 122q-2 -2 -4 -2q-3 0 -11.5 9.5t-12.5 9.5q-2 0 -4 -2z
M370 464q-44 0 -79 -83q-30 -73 -27 -124q3 -37 29 -37q44 0 74 94q10 27 20 55q11 36 11 57q0 38 -28 38zM370 484q23 0 35.5 -17.5t12.5 -40.5q0 -26 -22.5 -93.5t-38.5 -91.5q-26 -41 -64 -41q-49 0 -49 66q0 29 9 66q14 54 39 95q35 57 78 57z" />
    <glyph glyph-name="A" unicode="A" horiz-adv-x="676" 
d="M434 2v-3l8 3q55 21 55 45q0 18 -35 103q-19 45 -47 113h-175q-13 -35 -45 -117q-33 -90 -33 -105q0 -22 31 -36l9 -3l-184 -1q43 34 65 88l251 620l270 -628q21 -50 78 -79h-248zM584 72l-250 579l-230 -570q-12 -28 -35 -59h74q-3 13 -3 19q0 23 36 118q24 63 49 126
h204q18 -41 53 -125q37 -87 37 -113q0 -7 -6 -23h104q-25 28 -33 48zM237 316l88 228l93 -228h-181zM325 485l-56 -147h116z" />
    <glyph glyph-name="B" unicode="B" horiz-adv-x="543" 
d="M269 0h-260q51 20 61 38q7 12 7 64v468q0 49 -11.5 67t-56.5 34h283q76 0 125 -38q54 -42 54 -117q1 -104 -108 -157q150 -41 150 -168q0 -191 -244 -191zM297 351q91 45 123 84q26 31 26 81q0 62 -43 96t-111 34h-201q11 -26 11 -76v-468q0 -50 -12 -77h179
q219 0 219 166q0 64 -45 101.5t-146 58.5zM237 365l-75 -4l1 256h83q53 0 88.5 -31.5t35.5 -85.5q0 -56 -38 -94.5t-95 -40.5zM249 65q-50 0 -68.5 16.5t-18.5 55.5v201h77q68 0 115 -32q55 -38 55 -109q0 -84 -47 -112q-33 -20 -113 -20zM246 592h-60l1 -202h50q46 0 77 32
t31 78q0 43 -28 67.5t-71 24.5zM239 313h-52v-176q0 -28 9 -36q12 -11 53 -11q74 0 100 16q35 22 35 91q0 57 -45 89q-39 27 -100 27z" />
    <glyph glyph-name="C" unicode="C" horiz-adv-x="640" 
d="M586 24q-133 -42 -228 -42q-156 0 -260 99t-104 255q0 155 106 253q103 96 259 96q30 0 88.5 -8t86.5 -8q18 0 42 34v-193q-75 100 -198 100q-118 0 -186.5 -75t-68.5 -194q0 -121 67 -195t187 -74q133 0 223 112zM377 47q-131 0 -207 84q-72 79 -72 210q0 128 74 209
q77 85 206 85q102 0 173 -57v69q-11 -3 -17 -3q-28 0 -86.5 8t-88.5 8q-146 0 -243 -90t-97 -234q0 -145 96.5 -237t242.5 -92q87 0 204 36l7 69q-86 -65 -192 -65z" />
    <glyph glyph-name="D" unicode="D" horiz-adv-x="715" 
d="M290 0h-285q46 19 62.5 38.5t16.5 63.5v468q0 44 -18 65q-15 18 -61 36h319q159 0 255 -81q102 -87 102 -242q0 -168 -114 -261q-105 -87 -277 -87zM324 646h-231q16 -31 16 -76v-468q0 -46 -16 -77h197q163 0 262 81q104 86 104 242q0 144 -94 223q-88 75 -238 75z
M302 63h-59q-74 0 -74 83v471h124q130 0 207 -68q80 -72 80 -202q0 -124 -77 -204t-201 -80zM293 592h-99v-446q0 -31 8 -43q11 -15 41 -15h59q113 0 183 72.5t70 186.5q0 119 -70.5 182t-191.5 63z" />
    <glyph glyph-name="E" unicode="E" horiz-adv-x="507" 
d="M451 2h-455q53 20 65.5 37t12.5 65v466q0 48 -12 64.5t-66 36.5h372q25 0 40 12q9 7 28 32v-234q-26 63 -50.5 84t-74.5 21h-130v-180h114q46 0 64 9q25 13 48 60v-235q-23 52 -45 65q-16 11 -65 11h-116v-161q0 -32 7 -45q11 -19 42 -19h90q55 0 87.5 25t52.5 81l10 -2
q-15 -108 -19 -193zM320 66h-90q-74 0 -74 89v186h141q57 0 85 -15v75q-34 -20 -87 -20h-139v230h155q60 0 100 -32v75q-22 -8 -43 -8h-280q11 -26 11 -76v-466q0 -50 -12 -77h340q2 34 6 77q-49 -38 -113 -38z" />
    <glyph glyph-name="F" unicode="F" horiz-adv-x="500" 
d="M314 590h-132l1 -189h124q55 0 68 7q17 8 38 69l-1 -234q-21 63 -41 72q-13 6 -69 6h-120l1 -217q0 -48 18 -67q13 -14 67 -35h-270q53 20 65 37t12 65v468q0 44 -15 63.5t-62 37.5h358q40 0 52.5 5.5t31.5 33.5l1 -199q-26 53 -52 66q-20 11 -75 11zM388 648q6 0 -32 0
h-272q16 -32 16 -76v-468q0 -50 -12 -77h85q-15 30 -15 77v242h144h40q24 -2 45 -11l1 51q-20 -8 -43 -9q-4 -1 -38 -1h-149v239h156q65 0 100 -23q-1 63 0 63q0 -5 -26 -7z" />
    <glyph glyph-name="G" unicode="G" horiz-adv-x="681" 
d="M587 226q1 -27 1 -212q-116 -32 -222 -32q-155 0 -257.5 99t-102.5 254q0 160 110 257q105 93 267 93q28 0 83.5 -9.5t81.5 -9.5q13 0 41 38v-202q-39 59 -90 83q-43 20 -107 20q-121 0 -190.5 -74.5t-69.5 -196.5q0 -111 64 -187q68 -81 177 -81q66 0 107 11v156
q0 34 -8 51.5t-35 30.5q-5 4 -43 20h276q-47 -21 -66 -50q-12 -20 -17 -59zM486 310q19 -31 19 -77v-175q-60 -17 -132 -17q-121 0 -196 90q-70 83 -70 203q0 132 76.5 214t208.5 82q104 0 172 -55v71q-12 -5 -16 -5q-26 0 -81.5 9.5t-83.5 9.5q-152 0 -250 -87
q-102 -89 -102 -238q0 -144 95 -236t240 -92q95 0 197 26q1 172 -1 197q7 47 26 80h-102z" />
    <glyph glyph-name="H" unicode="H" horiz-adv-x="696" 
d="M404 0q57 21 72 39t15 63v208h-305v-208q0 -46 14.5 -63.5t72.5 -38.5h-277q53 20 65.5 37t12.5 65v469q0 49 -12 65t-66 36h276q-56 -21 -71 -38.5t-15 -62.5v-169h305v169q0 46 -14.5 63t-72.5 38h277q-53 -20 -65 -36.5t-12 -64.5v-469q0 -49 11 -64q12 -18 66 -38
h-277zM501 647q15 -29 15 -76v-194h-355v194q0 46 16 76h-89q11 -26 11 -76v-469q0 -50 -12 -77h89q-15 30 -15 77v233h355v-233q0 -46 -16 -77h90q-11 26 -11 77v469q0 49 11 76h-89z" />
    <glyph glyph-name="I" unicode="I" horiz-adv-x="297" 
d="M12 0q52 20 64 33q18 18 18 65v474q0 48 -13.5 64.5t-69.5 36.5h274q-52 -19 -65 -33q-17 -17 -17 -64v-474q0 -48 13 -64.5t69 -37.5h-273zM106 648q13 -28 13 -76v-474q0 -44 -14 -73h86q-13 28 -13 77v474q0 44 13 72h-85z" />
    <glyph glyph-name="J" unicode="J" horiz-adv-x="407" 
d="M320 572v-375q0 -92 -41 -145q-45 -60 -135 -60q-56 0 -97.5 34t-41.5 90q0 14 7 58q19 -53 39 -74q23 -24 62 -24q96 0 96 122v368q0 48 -13.5 66.5t-68.5 40.5h280q-55 -20 -68 -34q-19 -19 -19 -67zM218 648q16 -29 16 -82v-368q0 -147 -121 -147q-32 0 -78 24
q50 -58 109 -58q151 0 151 180v375q0 47 15 76h-92z" />
    <glyph glyph-name="K" unicode="K" horiz-adv-x="590" 
d="M607 0h-291q16 5 28 21q11 13 11 22q0 23 -72 129q-51 73 -99 135l-1 -199q0 -42 16 -67q11 -18 42 -40l-245 -1l30 21q32 23 32 88v456q0 79 -52 105l-5 3h224q-22 -27 -29 -41q-13 -26 -13 -67v-161q50 66 160 209q2 10 2 16q0 31 -42 45h269q-31 -12 -43 -20l-30 -20
q-25 -21 -25 -22q-19 -17 -39 -45q-51 -72 -139 -195q57 -82 148 -226q53 -83 67 -97q26 -25 96 -49zM493 27q-19 27 -70 106q-105 166 -159 239q54 75 160 214q26 38 66 63l-122 -1q11 -13 11 -28q-22 -29 -205 -263q206 -272 206 -314q0 -8 -5 -16h118zM179 647h-119
q23 -21 23 -82v-456q0 -64 -21 -82h117q-21 17 -21 82v456q0 63 21 82z" />
    <glyph glyph-name="L" unicode="L" horiz-adv-x="506" 
d="M465 0h-465q62 23 74.5 37t12.5 65v470q0 34 -3 46q-7 22 -30 34q-5 4 -54 21h284q-62 -23 -73 -35q-14 -15 -14 -66v-416q0 -38 8 -50q10 -15 45 -15h88q49 0 70 11q37 18 73 94q-11 -120 -16 -196zM420 79q-27 -13 -82 -13h-88q-48 0 -65 24q-13 19 -13 66v416
q0 24 2 36q2 19 13 40h-90q12 -21 14 -40q1 -11 1 -36v-470q0 -25 -1 -36q-2 -20 -14 -41h345q2 32 5 72q-17 -12 -27 -18z" />
    <glyph glyph-name="M" unicode="M" horiz-adv-x="844" 
d="M580 0q46 22 58 40t12 59q0 68 -11 174q-15 134 -18 190l-220 -470q-66 146 -214 479q-20 -329 -20 -385q0 -36 15 -53q10 -12 49 -33l-230 -1q49 24 62 47q9 15 11 64q8 117 16 233q9 141 9 234q0 56 -64 79q0 3 -36 16h214l200 -447l209 447h206q-59 -21 -79 -39
q-23 -22 -23 -61q0 -80 11 -213q14 -158 16 -213q3 -63 16 -87q18 -32 81 -60h-270zM728 146q-2 55 -16 214q-11 133 -11 213q0 41 24 75h-87l-225 -484l-216 484h-98q25 -33 25 -70q0 -94 -9 -234l-16 -234q-2 -50 -24 -84h80q-13 28 -13 61q0 77 8 206l18 288l233 -525
l240 515q6 -112 22 -276q12 -129 12 -196q0 -46 -14 -74h97q-26 38 -30 121z" />
    <glyph glyph-name="N" unicode="N" horiz-adv-x="755" 
d="M672 567v-603l-496 546l-1 -406q0 -46 15 -63.5t72 -38.5h-253q45 19 61.5 38.5t16.5 63.5v439q0 90 -84 130l185 1l395 -433v331q0 48 -12.5 64t-69.5 37h253q-56 -20 -69 -39t-13 -67zM595 648q10 -21 12 -40q1 -12 1 -36v-401l-438 477h-89q30 -33 30 -67v-519
q0 -14 -8 -35h62q-15 30 -15 77v476l497 -545v532q0 43 0 38q0 22 9 43h-61z" />
    <glyph glyph-name="O" unicode="O" horiz-adv-x="726" 
d="M355 -16q-147 0 -242 104t-95 252q0 155 95 250t250 95q149 0 241 -98.5t92 -248.5q0 -148 -96.5 -251t-244.5 -103zM363 660q-145 0 -232.5 -87.5t-87.5 -232.5q0 -139 88 -235t224 -96q137 0 226.5 95.5t89.5 233.5q0 141 -85 231.5t-223 90.5zM354 48q-114 0 -181 95
q-58 82 -58 193q0 112 61 195q68 95 182 95q119 0 185 -91q56 -79 56 -197q0 -116 -58 -197q-67 -93 -187 -93zM358 601q-100 0 -162 -84q-56 -76 -56 -181q0 -104 54 -179q60 -84 160 -84q107 0 167 82q53 74 53 183q0 110 -52 182q-58 81 -164 81z" />
    <glyph glyph-name="P" unicode="P" horiz-adv-x="521" 
d="M182 344q37 -10 56 -10q51 0 92 44.5t41 96.5q0 120 -139 120q-23 0 -50 -3v-248zM290 290q-63 -1 -108 37v-224q0 -42 11 -59q15 -22 67 -43h-250q42 20 53 40q11 17 11 62v467q0 73 -69 102h262q99 0 157 -40q68 -47 68 -143q0 -82 -59 -139t-143 -60zM267 647h-186
q18 -32 18 -77v-467q0 -50 -12 -77h81q-11 26 -11 77v511q38 4 68 4q171 0 171 -143q0 -100 -115 -161q84 7 135 56t51 119q0 159 -200 158z" />
    <glyph glyph-name="Q" unicode="Q" horiz-adv-x="733" 
d="M587 -165q-168 0 -290 144q-130 26 -204 122t-74 229q0 152 96 253.5t247 101.5q153 0 246 -101t93 -254q0 -130 -71.5 -222.5t-200.5 -126.5q109 -105 284 -112l3 -17q-74 -17 -129 -17zM362 660q-140 0 -229 -93.5t-89 -236.5q0 -126 69 -213q72 -90 198 -115
q59 -70 120 -102q68 -36 167 -41q-128 46 -217 137q295 71 295 334q0 144 -86 237t-228 93zM366 34q-121 0 -189 98q-59 85 -59 204q0 112 56 193q65 94 179 94q116 0 186 -91q63 -81 63 -197q0 -113 -56 -199q-65 -102 -180 -102zM353 598q-101 0 -159 -84
q-51 -73 -51 -178q0 -112 54 -189q62 -88 169 -88q101 0 160 91q51 78 51 185q0 108 -58 182q-62 81 -166 81z" />
    <glyph glyph-name="R" unicode="R" horiz-adv-x="530" 
d="M368 0l-157 296h-34l1 -194q0 -49 19 -68q13 -14 68 -34h-272q15 10 37 24.5t28 32.5q6 13 6 45l2 454q0 42 -12 64q-18 33 -69 53h281q95 0 153 -39q68 -47 71 -139q3 -77 -42 -126t-124 -62q27 -48 121 -232q21 -27 33 -40q30 -30 55 -35h-165zM425 61q-50 95 -141 266
q186 27 181 167q-3 79 -60 119q-51 36 -139 36l-195 1q18 -44 18 -77v-471q0 -46 -16 -77h95q-16 31 -15 77l2 218l80 -1q9 -36 146 -294h77q-13 10 -33 36zM224 356h-71v256h70q173 0 173 -121q0 -72 -59 -107q-46 -28 -113 -28zM223 587h-45v-206h46q61 0 100 24
q47 28 47 86q0 96 -148 96z" />
    <glyph glyph-name="S" unicode="S" horiz-adv-x="406" 
d="M152 -18q-54 0 -152 32v153q87 -95 163 -95q44 0 77.5 30t33.5 73q0 63 -85 122q-104 71 -119 85q-58 56 -58 132q0 79 60 127q54 44 136 44q20 0 57.5 -11t57.5 -11q9 0 34 23l8 -191q-35 58 -69.5 80t-88.5 22q-37 0 -63 -18t-26 -53q0 -41 82 -94l66 -45
q115 -83 115 -193q0 -93 -67.5 -152.5t-161.5 -59.5zM234 379q-32 20 -92 63q-49 40 -49 84q0 47 36 73q32 23 78 23q72 0 129 -52l-2 70q-5 -1 -23 -1q-17 0 -37 6q-32 10 -37 11q-16 4 -29 4q-73 0 -122 -39.5t-49 -106.5q0 -51 30 -91q23 -30 71 -63l80 -54
q81 -58 81 -131q0 -54 -41.5 -91t-94.5 -37q-66 0 -138 59v-74q79 -25 127 -25q85 0 144.5 52.5t59.5 134.5q0 62 -37 110q-27 36 -85 75z" />
    <glyph glyph-name="T" unicode="T" horiz-adv-x="606" 
d="M450 592h-105v-492q0 -47 15 -64t72 -38h-286q62 23 74.5 37t12.5 65v492h-99q-62 0 -91 -24q-17 -13 -41 -79v217q12 -10 38 -26q17 -7 57 -7h386q57 0 95 35v-220q-25 60 -54.5 82t-73.5 22zM553 657q-33 -12 -70 -12h-386q-42 0 -70 10v-70q43 29 107 29h124v-517
q0 -45 -17 -76l95 -1q-15 26 -16 41v36v517h130q58 0 103 -34v77z" />
    <glyph glyph-name="U" unicode="U" horiz-adv-x="665" 
d="M588 572v-306q0 -148 -65.5 -215.5t-214.5 -67.5q-125 0 -189 64q-58 59 -58 211v314q0 33 -3 44q-4 15 -22.5 34t-32.5 23h245q-56 -21 -68 -39q-9 -14 -9 -62v-329q0 -87 31 -125q36 -44 126 -44q93 0 132 48q34 42 34 135v315q0 34 -3 46q-7 22 -30 34q-1 3 -42 21
h236q-67 -22 -67 -101zM504 648q12 -21 14 -40q1 -11 1 -36v-315q0 -102 -40 -151q-46 -57 -151 -57q-102 0 -145 53q-37 45 -37 141v329q0 48 15 76h-90q11 -21 13 -40q2 -11 2 -36v-314q0 -142 51 -193q56 -57 171 -57q144 0 203 66q52 58 52 192v306q0 48 16 76h-75z" />
    <glyph glyph-name="V" unicode="V" horiz-adv-x="747" 
d="M695 641q-24 -26 -53 -87l-279 -591l-295 618q-35 74 -79 91h254q-44 -14 -58 -26q-8 -7 -8 -21q0 -11 16 -44l182 -386l187 400q10 22 10 32q0 14 -7 20q-13 12 -56 25h236q-32 -12 -50 -31zM673 647h-79q3 -13 3 -20q0 -16 -12 -43l-210 -448l-205 435q-20 43 -20 57
q0 -3 7 19h-103q22 -30 45 -78l263 -548l258 544q18 37 53 82z" />
    <glyph glyph-name="W" unicode="W" horiz-adv-x="922" 
d="M926 672q-31 -31 -45 -56q-4 -8 -30 -65l-259 -590l-138 335l-157 -335l-250 648q-20 50 -52 63l211 1q-41 -15 -41 -39q0 -13 72 -202q43 -110 85 -220l87 185l-92 208q-13 31 -29 43q-11 10 -47 24h442q-41 -15 -53 -24q-17 -13 -33 -47l-80 -169l93 -214
q46 109 93 217q81 189 81 202q0 17 -46 35h188zM520 643q0 8 -14 17t-23 9h-11q-12 0 -26 -7q-17 -8 -17 -19q0 -9 44 -112q47 95 47 112zM875 647h-65v-6q1 -11 -12 -42l-188 -445l-120 279q32 73 103 214h-46q-5 -25 -34 -87q-21 -44 -43 -88l-38 90q-29 71 -28 85l-86 1
q12 -11 22 -32l96 -219l-116 -249l-171 451q-8 22 -8 33q0 5 4 15l-90 -1q11 -17 15 -28l229 -594l156 334l138 -334l236 537q14 34 20 45q12 24 26 41z" />
    <glyph glyph-name="X" unicode="X" horiz-adv-x="645" 
d="M411 2q42 19 42 35q0 17 -145 232l-140 -201q-14 -20 -14 -32q0 -17 44 -34h-213q31 16 56 46q5 7 42 60l171 241l-180 264q-18 26 -35 36q-24 12 -48 23h249q-41 -15 -41 -38q0 -17 53 -92l70 -96q37 47 73 94q56 76 56 91q0 11 -17.5 24.5t-30.5 16.5h238
q-26 -9 -39 -18q-31 -22 -71 -76l-155 -213l174 -266q24 -37 48 -56q10 -8 61 -41h-248zM346 365l165 228q24 33 46 54l-86 1q0 -3 3 -9.5t3 -9.5q0 -13 -69 -109l-86 -118q-45 62 -89 123q-70 101 -66 111l4 12l-93 -1q20 -21 45 -57l163 -241l-182 -256q-31 -43 -53 -66
h79q-1 5 -1 10q0 19 19 45l161 231q33 -49 98 -148q18 -24 50 -74q26 -48 26 -65l90 1q-22 24 -44 58z" />
    <glyph glyph-name="Y" unicode="Y" horiz-adv-x="649" 
d="M556 575l-174 -282v-191q0 -49 18 -68q14 -14 69 -34h-288q57 22 72 39t15 63v191l-197 307q-31 50 -72 65l-11 6h267q-62 -20 -62 -42q0 -15 16 -40l127 -201l132 216q8 14 8 26q0 21 -63 41h235q-47 -29 -59 -43q-1 -2 -33 -53zM498 646q3 -11 3 -16q0 -19 -12 -39
l-153 -251l-148 236q-20 31 -20 53q0 6 4 17h-103q15 -18 26 -36q6 -10 18 -29l180 -281v-198q0 -47 -16 -77h95q-15 30 -15 77v198l178 288q23 37 40 58h-77z" />
    <glyph glyph-name="Z" unicode="Z" horiz-adv-x="609" 
d="M182 86h285q48 0 77 29q25 26 49 89v-234q-24 20 -40 25.5t-45 5.5h-513l424 593h-260q-56 0 -82.5 -23.5t-49.5 -89.5v221q23 -21 35 -25.5t40 -4.5h500zM573 113q-48 -47 -106 -47h-324l420 586h-461q-31 0 -55 8v-85q46 39 112 39h299l-424 -593h474q36 0 65 -11v103z
" />
    <glyph glyph-name="bracketleft" unicode="[" horiz-adv-x="235" 
d="M-2 691l203 1v-69h-44q-40 0 -46 -6t-6 -47v-587q0 -42 6 -48t46 -6h44v-68h-203v830zM17 672v-792h165v30h-43q-38 -1 -46 12q-7 10 -7 61v587q0 51 7 61t44 10h47v32z" />
    <glyph glyph-name="backslash" unicode="\" horiz-adv-x="407" 
d="M363 -131l81 39l-424 888l-79 -39zM375 -97l-401 842l34 17l402 -842z" />
    <glyph glyph-name="bracketright" unicode="]" horiz-adv-x="250" 
d="M201 691l-203 1v-69h44q40 0 46 -6t6 -47v-587q0 -42 -6 -48t-46 -6h-44v-68h203v830zM182 672v-792h-165v30h43q38 -1 46 12q7 10 7 61v587q0 51 -7 61t-44 10h-46l-1 32z" />
    <glyph glyph-name="asciicircum" unicode="^" horiz-adv-x="240" 
d="M265 721l-17 -20l-114 38l-115 -41l-14 14l127 117zM133 795l-77 -62l78 31l83 -32z" />
    <glyph glyph-name="underscore" unicode="_" horiz-adv-x="421" 
d="M-6 -91v-46h471v46h-471z" />
    <glyph glyph-name="grave" unicode="`" horiz-adv-x="218" 
d="M45 822h126l70 -125h-64zM96 801l89 -84h20l-47 82z" />
    <glyph glyph-name="a" unicode="a" horiz-adv-x="676" 
d="M420 2v-3l8 3q54 21 54 45q0 18 -34 103q-19 45 -48 113h-174q-14 -35 -45 -117q-34 -90 -34 -105q0 -22 32 -36l9 -3l-184 -1q43 34 65 88l251 620l270 -628q21 -50 78 -79h-248zM569 72l-249 579l-231 -570q-11 -28 -34 -59h74q-4 13 -4 19q0 23 36 118l50 126h204
q18 -41 53 -125q36 -87 36 -113q0 -7 -5 -23h104q-25 28 -34 48zM222 316l89 228l93 -228h-182zM311 485l-56 -147h116z" />
    <glyph glyph-name="b" unicode="b" horiz-adv-x="541" 
d="M269 0h-260q51 20 61 38q7 12 7 64v468q0 49 -11.5 67t-56.5 34h283q76 0 125 -38q54 -42 54 -117q1 -104 -108 -157q150 -41 150 -168q0 -191 -244 -191zM297 351q91 45 123 84q26 31 26 81q0 62 -43 96t-111 34h-201q11 -26 11 -76v-468q0 -50 -12 -77h179
q219 0 219 166q0 64 -45 101.5t-146 58.5zM237 365l-75 -4l1 256h83q53 0 88.5 -31.5t35.5 -85.5q0 -56 -38 -94.5t-95 -40.5zM249 65q-50 0 -68.5 16.5t-18.5 55.5v201h77q68 0 115 -32q55 -38 55 -109q0 -84 -47 -112q-33 -20 -113 -20zM246 592h-60l1 -202h50q46 0 77 32
t31 78q0 43 -28 67.5t-71 24.5zM239 313h-52v-176q0 -28 9 -36q12 -11 53 -11q74 0 100 16q35 22 35 91q0 57 -45 89q-39 27 -100 27z" />
    <glyph glyph-name="c" unicode="c" horiz-adv-x="640" 
d="M600 24q-132 -42 -227 -42q-157 0 -261 99t-104 255q0 155 106 253q103 96 259 96q30 0 88.5 -8t86.5 -8q18 0 42 34v-193q-75 100 -198 100q-117 0 -186 -75t-69 -194q0 -121 67 -195t187 -74q133 0 224 112zM391 47q-131 0 -207 84q-72 79 -72 210q0 128 74 209
q77 85 206 85q102 0 173 -57v69q-11 -3 -17 -3q-28 0 -86.5 8t-88.5 8q-146 0 -243 -90t-97 -234q0 -145 96.5 -237t243.5 -92q86 0 203 36l7 69q-86 -65 -192 -65z" />
    <glyph glyph-name="d" unicode="d" horiz-adv-x="708" 
d="M290 0h-285q46 19 62.5 38.5t16.5 63.5v468q0 44 -18 65q-15 18 -61 36h319q159 0 255 -81q102 -87 102 -242q0 -168 -114 -261q-105 -87 -277 -87zM324 646h-231q16 -31 16 -76v-468q0 -46 -16 -77h197q163 0 262 81q104 86 104 242q0 144 -94 223q-88 75 -238 75z
M302 63h-59q-74 0 -74 83v471h124q130 0 207 -68q80 -72 80 -202q0 -124 -77 -204t-201 -80zM293 592h-99v-446q0 -31 8 -43q11 -15 41 -15h59q113 0 183 72.5t70 186.5q0 119 -70.5 182t-191.5 63z" />
    <glyph glyph-name="e" unicode="e" horiz-adv-x="493" 
d="M451 2h-455q53 20 65.5 37t12.5 65v466q0 48 -12 64.5t-66 36.5h372q25 0 40 12q9 7 28 32v-234q-26 63 -50.5 84t-74.5 21h-130v-180h114q46 0 64 9q25 13 48 60v-235q-23 52 -45 65q-16 11 -65 11h-116v-161q0 -32 7 -45q11 -19 42 -19h90q55 0 87.5 25t52.5 81l10 -2
q-15 -108 -19 -193zM320 66h-90q-74 0 -74 89v186h141q57 0 85 -15v75q-34 -20 -87 -20h-139v230h155q60 0 100 -32v75q-22 -8 -43 -8h-280q11 -26 11 -76v-466q0 -50 -12 -77h340q2 34 6 77q-49 -38 -113 -38z" />
    <glyph glyph-name="f" unicode="f" horiz-adv-x="465" 
d="M314 590h-132l1 -189h124q55 0 68 7q17 8 38 69l-1 -234q-21 63 -41 72q-13 6 -69 6h-120l1 -217q0 -48 18 -67q13 -14 67 -35h-270q53 20 65 37t12 65v468q0 44 -15 63.5t-62 37.5h358q40 0 52.5 5.5t31.5 33.5l1 -199q-26 53 -52 66q-20 11 -75 11zM388 648q6 0 -32 0
h-272q16 -32 16 -76v-468q0 -50 -12 -77h85q-15 30 -15 77v242h144h40q24 -2 45 -11l1 51q-20 -8 -43 -9q-4 -1 -38 -1h-149v239h156q65 0 100 -23q-1 63 0 63q0 -5 -26 -7z" />
    <glyph glyph-name="g" unicode="g" horiz-adv-x="660" 
d="M587 226q1 -27 1 -212q-116 -32 -222 -32q-155 0 -257.5 99t-102.5 254q0 160 110 257q105 93 267 93q28 0 83.5 -9.5t81.5 -9.5q13 0 41 38v-202q-39 59 -90 83q-43 20 -107 20q-121 0 -190.5 -74.5t-69.5 -196.5q0 -111 64 -187q68 -81 177 -81q66 0 107 11v156
q0 34 -8 51.5t-35 30.5q-5 4 -43 20h276q-47 -21 -66 -50q-12 -20 -17 -59zM486 310q19 -31 19 -77v-175q-60 -17 -132 -17q-121 0 -196 90q-70 83 -70 203q0 132 76.5 214t208.5 82q104 0 172 -55v71q-12 -5 -16 -5q-26 0 -81.5 9.5t-83.5 9.5q-152 0 -250 -87
q-102 -89 -102 -238q0 -144 95 -236t240 -92q95 0 197 26q1 172 -1 197q7 47 26 80h-102z" />
    <glyph glyph-name="h" unicode="h" horiz-adv-x="696" 
d="M404 0q57 21 72 39t15 63v208h-305v-208q0 -46 14.5 -63.5t72.5 -38.5h-277q53 20 65.5 37t12.5 65v469q0 49 -12 65t-66 36h276q-56 -21 -71 -38.5t-15 -62.5v-169h305v169q0 46 -14.5 63t-72.5 38h277q-53 -20 -65 -36.5t-12 -64.5v-469q0 -49 11 -64q12 -18 66 -38
h-277zM501 647q15 -29 15 -76v-194h-355v194q0 46 16 76h-89q11 -26 11 -76v-469q0 -50 -12 -77h89q-15 30 -15 77v233h355v-233q0 -46 -16 -77h90q-11 26 -11 77v469q0 49 11 76h-89z" />
    <glyph glyph-name="i" unicode="i" horiz-adv-x="319" 
d="M12 0q52 20 64 33q18 18 18 65v474q0 48 -13.5 64.5t-69.5 36.5h274q-52 -19 -65 -33q-17 -17 -17 -64v-474q0 -48 13 -64.5t69 -37.5h-273zM106 648q13 -28 13 -76v-474q0 -44 -14 -73h86q-13 28 -13 77v474q0 44 13 72h-85z" />
    <glyph glyph-name="j" unicode="j" horiz-adv-x="435" 
d="M320 572v-375q0 -92 -41 -145q-45 -60 -135 -60q-56 0 -97.5 34t-41.5 90q0 14 7 58q19 -53 39 -74q23 -24 62 -24q96 0 96 122v368q0 48 -13.5 66.5t-68.5 40.5h280q-55 -20 -68 -34q-19 -19 -19 -67zM218 648q16 -29 16 -82v-368q0 -147 -121 -147q-32 0 -78 24
q50 -58 109 -58q151 0 151 180v375q0 47 15 76h-92z" />
    <glyph glyph-name="k" unicode="k" horiz-adv-x="604" 
d="M607 0h-291q16 5 28 21q11 13 11 22q0 23 -72 129q-51 73 -99 135l-1 -199q0 -42 16 -67q11 -18 42 -40l-245 -1l30 21q32 23 32 88v456q0 79 -52 105l-5 3h224q-22 -27 -29 -41q-13 -26 -13 -67v-161q50 66 160 209q2 10 2 16q0 31 -42 45h269q-31 -12 -43 -20l-30 -20
q-25 -21 -25 -22q-19 -17 -39 -45q-51 -72 -139 -195q57 -82 148 -226q53 -83 67 -97q26 -25 96 -49zM493 27q-19 27 -70 106q-105 166 -159 239q54 75 160 214q26 38 66 63l-122 -1q11 -13 11 -28q-22 -29 -205 -263q206 -272 206 -314q0 -8 -5 -16h118zM179 647h-119
q23 -21 23 -82v-456q0 -64 -21 -82h117q-21 17 -21 82v456q0 63 21 82z" />
    <glyph glyph-name="l" unicode="l" horiz-adv-x="513" 
d="M471 0h-465q63 23 75.5 37t12.5 65v470q0 34 -4 46q-6 22 -29 34q-5 4 -55 21h284q-61 -23 -72 -35q-14 -15 -14 -66v-416q0 -38 7 -50q10 -15 45 -15h88q49 0 71 11q36 18 72 94q-10 -120 -16 -196zM426 79q-27 -13 -82 -13h-88q-47 0 -64 24q-13 19 -13 66v416
q0 24 1 36q2 19 13 40h-89q11 -21 13 -40q2 -11 2 -36v-470q0 -25 -2 -36q-2 -20 -13 -41h344q3 32 6 72q-18 -12 -28 -18z" />
    <glyph glyph-name="m" unicode="m" horiz-adv-x="851" 
d="M580 0q46 22 58 40t12 59q0 68 -11 174q-15 134 -18 190l-220 -470q-66 146 -214 479q-20 -329 -20 -385q0 -36 15 -53q10 -12 49 -33l-230 -1q49 24 62 47q9 15 11 64q8 117 16 233q9 141 9 234q0 56 -64 79q0 3 -36 16h214l200 -447l209 447h206q-59 -21 -79 -39
q-23 -22 -23 -61q0 -80 11 -213q14 -158 16 -213q3 -63 16 -87q18 -32 81 -60h-270zM728 146q-2 55 -16 214q-11 133 -11 213q0 41 24 75h-87l-225 -484l-216 484h-98q25 -33 25 -70q0 -94 -9 -234l-16 -234q-2 -50 -24 -84h80q-13 28 -13 61q0 77 8 206l18 288l233 -525
l240 515q6 -112 22 -276q12 -129 12 -196q0 -46 -14 -74h97q-26 38 -30 121z" />
    <glyph glyph-name="n" unicode="n" horiz-adv-x="755" 
d="M679 567v-596l-497 545v-412q0 -46 15 -63.5t72 -38.5h-253q45 19 61.5 38.5t16.5 63.5v439q0 90 -84 130h179l401 -438v332q0 49 -12 65q-14 20 -70 41h253q-56 -20 -69 -39t-13 -67zM602 648q10 -21 12 -40q1 -12 1 -36v-401l-438 477h-89q30 -33 30 -67v-519
q0 -14 -8 -35h62q-15 30 -15 77v476l497 -545v532q0 43 0 38q0 22 9 43h-61z" />
    <glyph glyph-name="o" unicode="o" horiz-adv-x="705" 
d="M334 -16q-147 0 -244 105q-93 103 -93 251q0 155 95 250t250 95q149 0 241 -98.5t92 -248.5q0 -148 -96.5 -251t-244.5 -103zM342 660q-145 0 -232.5 -87.5t-87.5 -232.5q0 -139 88 -235t224 -96q137 0 226.5 95.5t89.5 233.5q0 141 -85 231.5t-223 90.5zM333 48
q-114 0 -181 95q-58 82 -58 193q0 112 61 195q68 95 182 95q119 0 184 -91q57 -79 57 -197q0 -116 -58 -197q-67 -93 -187 -93zM337 601q-101 0 -162 -84q-56 -76 -56 -181q0 -104 54 -179q60 -84 160 -84q106 0 167 82q53 74 53 183q0 110 -52 182q-58 81 -164 81z" />
    <glyph glyph-name="p" unicode="p" horiz-adv-x="521" 
d="M182 344q37 -10 56 -10q51 0 92 44.5t41 96.5q0 120 -139 120q-23 0 -50 -3v-248zM290 290q-63 -1 -108 37v-224q0 -42 11 -59q15 -22 67 -43h-250q42 20 53 40q11 17 11 62v467q0 73 -69 102h262q99 0 157 -40q68 -47 68 -143q0 -82 -59 -139t-143 -60zM267 647h-186
q18 -32 18 -77v-467q0 -50 -12 -77h81q-11 26 -11 77v511q38 4 68 4q171 0 171 -143q0 -100 -115 -161q84 7 135 56t51 119q0 159 -200 158z" />
    <glyph glyph-name="q" unicode="q" horiz-adv-x="705" 
d="M566 -165q-168 0 -290 144q-130 26 -204 122t-74 229q0 152 95.5 253.5t247.5 101.5t247 -102q92 -100 92 -253q0 -130 -71.5 -222.5t-200.5 -126.5q109 -105 284 -112l3 -17q-74 -17 -129 -17zM341 660q-141 0 -229.5 -93.5t-88.5 -236.5q0 -126 69 -213
q71 -90 197 -115q59 -70 121 -102q68 -36 167 -41q-129 46 -217 137q295 71 295 334q0 144 -85 236q-88 94 -229 94zM345 34q-121 0 -190 98q-59 85 -59 204q0 112 56 193q65 94 179 94q117 0 187 -91q62 -81 62 -197q0 -113 -55 -199q-65 -102 -180 -102zM331 598
q-100 0 -158 -84q-52 -73 -52 -178q0 -112 55 -189q62 -88 169 -88q100 0 159 91q51 78 51 185q0 108 -57 182q-63 81 -167 81z" />
    <glyph glyph-name="r" unicode="r" horiz-adv-x="530" 
d="M368 0l-157 296h-34l1 -194q0 -49 19 -68q13 -14 68 -34h-272q15 10 37 24.5t28 32.5q6 13 6 45l2 454q0 42 -12 64q-18 33 -69 53h281q95 0 153 -39q68 -47 71 -139q3 -77 -42 -126t-124 -62q27 -48 121 -232q21 -27 33 -40q30 -30 55 -35h-165zM425 61q-50 95 -141 266
q186 27 181 167q-3 79 -60 119q-51 36 -139 36l-195 1q18 -44 18 -77v-471q0 -46 -16 -77h95q-16 31 -15 77l2 218l80 -1q9 -36 146 -294h77q-13 10 -33 36zM224 356h-71v256h70q173 0 173 -121q0 -72 -59 -107q-46 -28 -113 -28zM223 587h-45v-206h46q61 0 100 24
q47 28 47 86q0 96 -148 96z" />
    <glyph glyph-name="s" unicode="s" horiz-adv-x="406" 
d="M152 -18q-54 0 -152 32v153q87 -95 163 -95q44 0 77.5 30t33.5 73q0 63 -85 122q-104 71 -119 85q-58 56 -58 132q0 79 60 127q54 44 136 44q20 0 57.5 -11t57.5 -11q9 0 34 23l8 -191q-35 58 -69.5 80t-88.5 22q-37 0 -63 -18t-26 -53q0 -41 82 -94l66 -45
q115 -83 115 -193q0 -93 -67.5 -152.5t-161.5 -59.5zM234 379q-32 20 -92 63q-49 40 -49 84q0 47 36 73q32 23 78 23q72 0 129 -52l-2 70q-5 -1 -23 -1q-17 0 -37 6q-32 10 -37 11q-16 4 -29 4q-73 0 -122 -39.5t-49 -106.5q0 -51 30 -91q23 -30 71 -63l80 -54
q81 -58 81 -131q0 -54 -41.5 -91t-94.5 -37q-66 0 -138 59v-74q79 -25 127 -25q85 0 144.5 52.5t59.5 134.5q0 62 -37 110q-27 36 -85 75z" />
    <glyph glyph-name="t" unicode="t" horiz-adv-x="606" 
d="M450 592h-105v-492q0 -47 15 -64t72 -38h-286q62 23 74.5 37t12.5 65v492h-99q-62 0 -91 -24q-17 -13 -41 -79v217q12 -10 38 -26q17 -7 57 -7h386q57 0 95 35v-220q-25 60 -54.5 82t-73.5 22zM553 657q-33 -12 -70 -12h-386q-42 0 -70 10v-70q43 29 107 29h124v-517
q0 -45 -17 -76l95 -1q-15 26 -16 41v36v517h130q58 0 103 -34v77z" />
    <glyph glyph-name="u" unicode="u" horiz-adv-x="665" 
d="M588 572v-306q0 -148 -65.5 -215.5t-214.5 -67.5q-125 0 -189 64q-58 59 -58 211v314q0 33 -3 44q-4 15 -22.5 34t-32.5 23h245q-56 -21 -68 -39q-9 -14 -9 -62v-329q0 -87 31 -125q36 -44 126 -44q93 0 132 48q34 42 34 135v315q0 34 -3 46q-7 22 -30 34q-1 3 -42 21
h236q-67 -22 -67 -101zM504 648q12 -21 14 -40q1 -11 1 -36v-315q0 -102 -40 -151q-46 -57 -151 -57q-102 0 -145 53q-37 45 -37 141v329q0 48 15 76h-90q11 -21 13 -40q2 -11 2 -36v-314q0 -142 51 -193q56 -57 171 -57q144 0 203 66q52 58 52 192v306q0 48 16 76h-75z" />
    <glyph glyph-name="v" unicode="v" horiz-adv-x="747" 
d="M695 641q-24 -26 -53 -87l-279 -591l-295 618q-35 74 -79 91h254q-44 -14 -58 -26q-8 -7 -8 -21q0 -11 16 -44l182 -386l187 400q10 22 10 32q0 14 -7 20q-13 12 -56 25h236q-32 -12 -50 -31zM673 647h-79q3 -13 3 -20q0 -16 -12 -43l-210 -448l-205 435q-20 43 -20 57
q0 -3 7 19h-103q22 -30 45 -78l263 -548l258 544q18 37 53 82z" />
    <glyph glyph-name="w" unicode="w" horiz-adv-x="922" 
d="M926 672q-31 -31 -45 -56q-4 -8 -30 -65l-259 -590l-138 335l-157 -335l-250 648q-20 50 -52 63l211 1q-41 -15 -41 -39q0 -13 72 -202q43 -110 85 -220l87 185l-92 208q-13 31 -29 43q-11 10 -47 24h442q-41 -15 -53 -24q-17 -13 -33 -47l-80 -169l93 -214
q46 109 93 217q81 189 81 202q0 17 -46 35h188zM520 643q0 8 -14 17t-23 9h-11q-12 0 -26 -7q-17 -8 -17 -19q0 -9 44 -112q47 95 47 112zM875 647h-65v-6q1 -11 -12 -42l-188 -445l-120 279q32 73 103 214h-46q-5 -25 -34 -87q-21 -44 -43 -88l-38 90q-29 71 -28 85l-86 1
q12 -11 22 -32l96 -219l-116 -249l-171 451q-8 22 -8 33q0 5 4 15l-90 -1q11 -17 15 -28l229 -594l156 334l138 -334l236 537q14 34 20 45q12 24 26 41z" />
    <glyph glyph-name="x" unicode="x" horiz-adv-x="660" 
d="M418 2q42 19 42 35q0 17 -145 232l-140 -201q-13 -20 -13 -32q0 -17 43 -34h-213q31 16 56 46q5 7 42 60l171 241l-180 264q-18 26 -35 36q-24 12 -48 23h249q-41 -15 -41 -38q0 -17 53 -92l70 -96q37 47 73 94q56 76 56 91q0 11 -17.5 24.5t-30.5 16.5h239
q-27 -9 -40 -18q-31 -22 -71 -76l-155 -213l174 -266q24 -37 48 -56q10 -8 61 -41h-248zM353 365l165 228q24 33 46 54l-86 1q0 -3 3 -9.5t3 -9.5q0 -13 -69 -109l-86 -118q-44 62 -89 123q-70 101 -66 111l4 12l-93 -1q20 -21 45 -57l164 -241l-183 -256q-31 -43 -52 -66
h78q-1 5 -1 10q0 19 19 45l161 231q33 -49 98 -148q18 -24 50 -74q26 -48 26 -65l90 1q-22 24 -44 58z" />
    <glyph glyph-name="y" unicode="y" horiz-adv-x="649" 
d="M556 575l-174 -282v-191q0 -49 18 -68q14 -14 69 -34h-288q57 22 72 39t15 63v191l-197 307q-31 50 -72 65l-11 6h267q-62 -20 -62 -42q0 -15 16 -40l127 -201l132 216q8 14 8 26q0 21 -63 41h235q-47 -29 -59 -43q-1 -2 -33 -53zM498 646q3 -11 3 -16q0 -19 -12 -39
l-153 -251l-148 236q-20 31 -20 53q0 6 4 17h-103q15 -18 26 -36q6 -10 18 -29l180 -281v-198q0 -47 -16 -77h95q-15 30 -15 77v198l178 288q23 37 40 58h-77z" />
    <glyph glyph-name="z" unicode="z" horiz-adv-x="623" 
d="M189 86h285q48 0 77 29q25 26 49 89v-234q-24 20 -40 25.5t-45 5.5h-513l424 593h-260q-56 0 -82.5 -23.5t-49.5 -89.5v221q23 -21 35 -25.5t40 -4.5h500zM580 113q-48 -47 -106 -47h-324l420 586h-461q-31 0 -55 8v-85q46 39 112 39h299l-424 -593h474q36 0 65 -11v103z
" />
    <glyph glyph-name="braceleft" unicode="{" horiz-adv-x="293" 
d="M214 135v-95q0 -93 13 -113q18 -30 96 -30v-66q-110 2 -119 3q-62 6 -91 37q-36 38 -36 121q0 31 1.5 91.5t1.5 91.5q0 44 -22.5 83.5t-55.5 41.5v59q41 3 59.5 20.5t18.5 58.5q0 22 -2 161q-2 149 62 182q30 16 51 18q14 2 93 2h39v-65q-69 -2 -88.5 -18.5t-19.5 -80.5
v-159q0 -56 -6 -83q-11 -46 -46 -66q51 -31 51 -194zM195 135q0 161 -78 195q55 21 69 54q10 23 10 94v159q0 65 20 88q22 27 88 29v28h-20h-69q-42 -3 -65 -17q-30 -18 -40.5 -52t-9.5 -106q0 -21 -1 -84v-85q0 -89 -78 -96v-25q39 -3 61 -54q17 -40 17 -88
q0 -31 -1.5 -91.5t-1.5 -91.5q0 -103 62 -129q29 -12 146 -13v28q-69 2 -89 32.5t-20 129.5v95z" />
    <glyph glyph-name="bar" unicode="|" horiz-adv-x="183" 
d="M8 803h125v-976h-125v976zM27 784v-938h87v938h-87z" />
    <glyph glyph-name="braceright" unicode="}" horiz-adv-x="294" 
d="M108 135v-95q0 -93 -13 -113q-18 -30 -96 -30v-66q110 2 119 3q61 6 91 37q36 38 36 121q0 31 -1.5 91.5t-1.5 91.5q0 44 22.5 83.5t55.5 41.5v59q-41 3 -59.5 20.5t-18.5 58.5q0 22 2 161q2 149 -62 182q-30 16 -51 18q-15 2 -93 2h-39v-65q69 -2 88.5 -18.5t19.5 -80.5
v-159q0 -56 6 -83q11 -46 46 -66q-51 -31 -51 -194zM126 135q0 161 78 195q-54 21 -68 54q-11 23 -11 94v159q0 65 -19 88q-22 27 -89 29v28h21h69q42 -3 65 -17q29 -18 40 -52t10 -106v-84q1 -72 1 -85q0 -89 78 -96v-25q-40 -3 -61 -54q-17 -40 -17 -88q0 -31 1.5 -91.5
t1.5 -91.5q0 -103 -63 -129q-28 -12 -146 -13v28q70 2 89.5 32.5t19.5 129.5v95z" />
    <glyph glyph-name="asciitilde" unicode="~" horiz-adv-x="405" 
d="M417 756q-20 -31 -55 -31q-20 0 -57 12q-40 12 -55 13q-34 3 -62 -18q10 25 20 51q14 30 34 40q12 6 27 6q16 0 51.5 -10.5t53.5 -10.5q32 0 56 23l18 16q-5 -12 -13 -47q-6 -25 -18 -44zM414 795q-19 -9 -40 -9q-20 0 -56 11.5t-51 11.5q-24 0 -44 -43q10 4 23 4
q19 0 58 -12t56 -12q32 0 54 49z" />
    <glyph glyph-name="Adieresis" unicode="&#xc4;" horiz-adv-x="661" 
d="M353 724v93h94v-93h-94zM185 724v93h93v-93h-93zM420 2v-3l8 3q54 21 54 45q0 18 -34 103q-19 45 -48 113h-174q-14 -35 -45 -117q-34 -90 -34 -105q0 -22 32 -36l9 -3l-184 -1q43 34 65 88l251 620l270 -628q21 -50 78 -79h-248zM430 800h-60v-59h60v59zM261 800h-59
v-59h59v59zM569 72l-249 579l-231 -570q-11 -28 -34 -59h74q-4 13 -4 19q0 23 36 118l50 126h204q18 -41 53 -125q36 -87 36 -113q0 -7 -5 -23h104q-25 28 -34 48zM222 316l89 228l93 -228h-182zM311 485l-56 -147h116z" />
    <glyph glyph-name="Aring" unicode="&#xc5;" horiz-adv-x="662" 
d="M420 2v-3l8 3q54 21 54 45q0 18 -34 103q-19 45 -48 113h-174q-14 -35 -45 -117q-34 -90 -34 -105q0 -22 32 -36l9 -3l-184 -1q43 34 65 88l237 585l29 -3l255 -590q21 -50 78 -79h-248zM569 72l-249 579l-231 -570q-11 -28 -34 -59h74q-4 13 -4 19q0 23 36 118l50 126
h204q18 -41 53 -125q36 -87 36 -113q0 -7 -5 -23h104q-25 28 -34 48zM222 316l89 228l93 -228h-182zM311 485l-56 -147h116zM319 824q17 0 28.5 -11.5t11.5 -28.5q0 -16 -11.5 -27.5t-28.5 -11.5q-16 0 -27.5 11.5t-11.5 27.5q0 17 11.5 28.5t27.5 11.5zM319 808
q-23 0 -23 -24q0 -23 23 -23q24 0 24 23q0 24 -24 24zM319 857q31 0 52.5 -21.5t21.5 -52.5q0 -30 -23 -51.5t-53 -21.5q-31 0 -51 21.5t-20 51.5q0 31 21.5 52.5t51.5 21.5zM319 841q-24 0 -40.5 -17t-16.5 -41t15.5 -40.5t39.5 -16.5t42 17t18 40q0 24 -17 41t-41 17z" />
    <glyph glyph-name="Ccedilla" unicode="&#xc7;" horiz-adv-x="615" 
d="M370 -38q30 -2 53.5 -25.5t23.5 -53.5q0 -41 -35 -64q-28 -19 -68 -19q-26 0 -74 8v79q36 -16 68 -16q22 0 22 12q0 18 -25 18q-43 0 -61 2l21 84q-128 22 -207.5 117t-79.5 232q0 155 106 253q103 96 259 96q30 0 88.5 -8t86.5 -8q18 0 42 34v-193q-75 100 -198 100
q-117 0 -186 -75t-69 -194q0 -121 67 -195t187 -74q68 0 111 18q52 21 98 78v-142q-137 -44 -225 -44zM291 -175q32 -5 53 -5q34 0 58.5 16.5t24.5 46.5q0 23 -19.5 41t-42.5 18q-3 0 -22 -2l11 69h29l-1 -2q83 2 194 36l1 69q-86 -65 -186 -65q-131 0 -207 84
q-72 79 -72 210q0 128 74 209q77 85 206 85q102 0 173 -57v69q-11 -3 -17 -3q-28 0 -86.5 8t-88.5 8q-146 0 -243 -90t-97 -234q0 -132 82 -222q79 -88 207 -104l-21 -89h39q16 0 28 -10.5t12 -27.5q0 -33 -42 -33q-28 0 -47 6v-31z" />
    <glyph glyph-name="Eacute" unicode="&#xc9;" horiz-adv-x="491" 
d="M451 -5h-455q53 20 65.5 37t12.5 65v473q0 48 -12 64.5t-66 36.5h372q25 0 40 12q9 7 28 32v-224q-26 63 -50.5 84t-74.5 21h-130v-197h114q46 0 68 15.5t44 60.5v-242q-23 52 -45 65q-16 11 -65 11h-116v-161q0 -32 7 -45q11 -19 42 -19h90q55 0 87.5 25t52.5 81l10 -2
q-15 -108 -19 -193zM320 59h-90q-74 0 -74 89v186h141q57 0 85 -15v75q-34 -20 -87 -20h-139v247h155q60 0 100 -32v65q-22 -8 -43 -8h-280q11 -26 11 -76v-473q0 -50 -12 -77h340q2 34 6 77q-49 -38 -113 -38zM371 822h-126l-70 -125h64zM319 801l-88 -84h-20l46 82z" />
    <glyph glyph-name="Ntilde" unicode="&#xd1;" horiz-adv-x="775" 
d="M679 565v-594l-497 543v-417q0 -46 15 -63.5t72 -38.5h-253q45 19 61.5 38.5t16.5 63.5v444q0 90 -84 130h169l411 -446v340q0 49 -12 65q-14 20 -70 41h253q-56 -20 -69 -39t-13 -67zM602 646q10 -21 12 -40q1 -12 1 -36v-409l-448 485l-74 1q25 -39 25 -68v-524
q0 -14 -8 -35h62q-15 30 -15 77v481l497 -543v530q0 43 0 38q0 22 9 43h-61zM487 756q-20 -31 -61 -31q-24 0 -66 12q-46 12 -60 13q-34 3 -62 -18q10 25 20 51q14 30 34 40q12 6 29 6t57.5 -10.5t61.5 -10.5q36 0 60 23l18 16q-5 -12 -13 -47q-6 -25 -18 -44zM470 767
q6 10 14 28q-19 -9 -44 -9q-28 0 -64.5 11.5t-51.5 11.5q-31 0 -51 -43q10 4 24 4q20 0 65 -12t64 -12q30 0 44 21z" />
    <glyph glyph-name="Odieresis" unicode="&#xd6;" horiz-adv-x="696" 
d="M334 -16q-147 0 -244 105q-93 103 -93 251q0 155 95 250t250 95q149 0 241 -98.5t92 -248.5q0 -148 -96.5 -251t-244.5 -103zM342 660q-145 0 -232.5 -87.5t-87.5 -232.5q0 -139 88 -235t224 -96q137 0 226.5 95.5t89.5 233.5q0 141 -85 231.5t-223 90.5zM333 38
q-113 0 -181 100q-58 86 -58 198t61 195q68 95 182 95q119 0 184 -91q57 -79 57 -197t-58 -202q-67 -98 -187 -98zM337 601q-101 0 -162 -84q-56 -76 -56 -181t54 -184q61 -89 160 -89q106 0 167 87q53 77 53 188q0 110 -52 182q-58 81 -164 81zM362 819h96v-96h-96v96z
M382 799v-56h56v56h-56zM194 819h96v-96h-96v96zM214 799v-56h56v56h-56z" />
    <glyph glyph-name="Udieresis" unicode="&#xdc;" horiz-adv-x="650" 
d="M578 570v-306q0 -148 -65.5 -215.5t-214.5 -67.5q-125 0 -189 64q-58 59 -58 211v314q0 34 -4 46q-6 22 -30 34q3 -1 3 6q0 6 -27 15h255q-59 -22 -73 -39t-14 -62v-329q0 -87 31 -125q36 -44 126 -44q93 0 132 48q34 42 34 135v315q0 34 -3 46q-7 22 -30 34q-8 4 -52 21
h246q-67 -22 -67 -101zM494 646q12 -21 14 -40q1 -11 1 -36v-315q0 -102 -40 -151q-46 -57 -151 -57q-102 0 -145 53q-37 45 -37 141v329q0 48 15 76h-90q11 -21 13 -40q2 -11 2 -36v-314q0 -142 51 -193q56 -57 171 -57q144 0 203 66q52 58 52 192v306q0 48 16 76h-75z
M352 819h96v-96h-96v96zM372 799v-56h56v56h-56zM184 819h96v-96h-96v96zM204 799v-56h56v56h-56z" />
    <glyph glyph-name="aacute" unicode="&#xe1;" horiz-adv-x="665" 
d="M338 736h-61l59 104l121 1zM420 2v-3l8 3q54 21 54 45q0 18 -34 103q-19 45 -48 113h-174q-14 -35 -45 -117q-34 -90 -34 -105q0 -22 32 -36l9 -3l-184 -1q43 34 65 88l251 620l270 -628q21 -50 78 -79h-248zM348 823l-41 -70h24l82 69zM569 72l-249 579l-231 -570
q-11 -28 -34 -59h74q-4 13 -4 19q0 23 36 118l50 126h204q18 -41 53 -125q36 -87 36 -113q0 -7 -5 -23h104q-25 28 -34 48zM222 316l89 228l93 -228h-182zM311 485l-56 -147h116z" />
    <glyph glyph-name="agrave" unicode="&#xe0;" horiz-adv-x="665" 
d="M336 737l-108 104l121 -1l59 -104zM420 2v-3l8 3q54 21 54 45q0 18 -34 103q-19 45 -48 113h-174q-14 -35 -45 -117q-34 -90 -34 -105q0 -22 32 -36l9 -3l-184 -1q43 34 65 88l251 620l270 -628q21 -50 78 -79h-248zM337 823l-63 1l80 -71h23zM569 72l-249 579l-231 -570
q-11 -28 -34 -59h74q-4 13 -4 19q0 23 36 118l50 126h204q18 -41 53 -125q36 -87 36 -113q0 -7 -5 -23h104q-25 28 -34 48zM222 316l89 228l93 -228h-182zM311 485l-56 -147h116z" />
    <glyph glyph-name="acircumflex" unicode="&#xe2;" horiz-adv-x="661" 
d="M427 713l-113 37l-115 -40l-11 12l125 115l130 -106zM420 2v-3l8 3q54 21 54 45q0 18 -34 103q-19 45 -48 113h-174q-14 -35 -45 -117q-34 -90 -34 -105q0 -22 32 -36l9 -3l-184 -1q43 34 65 88l251 620l270 -628q21 -50 78 -79h-248zM313 807l-86 -70l87 36l93 -36z
M569 72l-249 579l-231 -570q-11 -28 -34 -59h74q-4 13 -4 19q0 23 36 118l50 126h204q18 -41 53 -125q36 -87 36 -113q0 -7 -5 -23h104q-25 28 -34 48zM222 316l89 228l93 -228h-182zM311 485l-56 -147h116z" />
    <glyph glyph-name="adieresis" unicode="&#xe4;" horiz-adv-x="661" 
d="M353 724v93h94v-93h-94zM185 724v93h93v-93h-93zM420 2v-3l8 3q54 21 54 45q0 18 -34 103q-19 45 -48 113h-174q-14 -35 -45 -117q-34 -90 -34 -105q0 -22 32 -36l9 -3l-184 -1q43 34 65 88l251 620l270 -628q21 -50 78 -79h-248zM430 800h-60v-59h60v59zM261 800h-59
v-59h59v59zM569 72l-249 579l-231 -570q-11 -28 -34 -59h74q-4 13 -4 19q0 23 36 118l50 126h204q18 -41 53 -125q36 -87 36 -113q0 -7 -5 -23h104q-25 28 -34 48zM222 316l89 228l93 -228h-182zM311 485l-56 -147h116z" />
    <glyph glyph-name="atilde" unicode="&#xe3;" horiz-adv-x="661" 
d="M420 2v-3l8 3q54 21 54 45q0 18 -34 103q-19 45 -48 113h-174q-14 -35 -45 -117q-34 -90 -34 -105q0 -22 32 -36l9 -3l-184 -1q43 34 65 88l251 620l270 -628q21 -50 78 -79h-248zM569 72l-249 579l-231 -570q-11 -28 -34 -59h74q-4 13 -4 19q0 23 36 118l50 126h204
q18 -41 53 -125q36 -87 36 -113q0 -7 -5 -23h104q-25 28 -34 48zM222 316l89 228l93 -228h-182zM311 485l-56 -147h116zM440 748q-24 -26 -59 -26q-26 0 -79 19q-47 17 -64 14q-14 -2 -26.5 -3.5t-23.5 -9.5q20 47 21 49q15 29 35 39q11 6 24 6q19 0 64 -17.5t68 -17.5
q29 0 50 20l18 16q-5 -12 -10 -47q-3 -25 -18 -42zM417 755q11 14 27 40q-26 -13 -51 -13q-18 0 -39 7q-17 7 -34 13q-43 14 -58 14q-27 0 -40 -42q9 6 22 6q20 0 70 -21t70 -21q22 0 33 17z" />
    <glyph glyph-name="aring" unicode="&#xe5;" horiz-adv-x="662" 
d="M420 2v-3l8 3q54 21 54 45q0 18 -34 103q-19 45 -48 113h-174q-14 -35 -45 -117q-34 -90 -34 -105q0 -22 32 -36l9 -3l-184 -1q43 34 65 88l237 585l29 -3l255 -590q21 -50 78 -79h-248zM569 72l-249 579l-231 -570q-11 -28 -34 -59h74q-4 13 -4 19q0 23 36 118l50 126
h204q18 -41 53 -125q36 -87 36 -113q0 -7 -5 -23h104q-25 28 -34 48zM222 316l89 228l93 -228h-182zM311 485l-56 -147h116zM319 824q17 0 28.5 -11.5t11.5 -28.5q0 -16 -11.5 -27.5t-28.5 -11.5q-16 0 -27.5 11.5t-11.5 27.5q0 17 11.5 28.5t27.5 11.5zM319 808
q-23 0 -23 -24q0 -23 23 -23q24 0 24 23q0 24 -24 24zM319 857q31 0 52.5 -21.5t21.5 -52.5q0 -30 -23 -51.5t-53 -21.5q-31 0 -51 21.5t-20 51.5q0 31 21.5 52.5t51.5 21.5zM319 841q-24 0 -40.5 -17t-16.5 -41t15.5 -40.5t39.5 -16.5t42 17t18 40q0 24 -17 41t-41 17z" />
    <glyph glyph-name="ccedilla" unicode="&#xe7;" horiz-adv-x="615" 
d="M370 -38q30 -2 53.5 -25.5t23.5 -53.5q0 -41 -35 -64q-28 -19 -68 -19q-26 0 -74 8v79q36 -16 68 -16q22 0 22 12q0 18 -25 18q-43 0 -61 2l21 84q-128 22 -207.5 117t-79.5 232q0 155 106 253q103 96 259 96q30 0 88.5 -8t86.5 -8q18 0 42 34v-193q-75 100 -198 100
q-117 0 -186 -75t-69 -194q0 -121 67 -195t187 -74q68 0 111 18q52 21 98 78v-142q-137 -44 -225 -44zM291 -175q32 -5 53 -5q34 0 58.5 16.5t24.5 46.5q0 23 -19.5 41t-42.5 18q-3 0 -22 -2l11 69h29l-1 -2q83 2 194 36l1 69q-86 -65 -186 -65q-131 0 -207 84
q-72 79 -72 210q0 128 74 209q77 85 206 85q102 0 173 -57v69q-11 -3 -17 -3q-28 0 -86.5 8t-88.5 8q-146 0 -243 -90t-97 -234q0 -132 82 -222q79 -88 207 -104l-21 -89h39q16 0 28 -10.5t12 -27.5q0 -33 -42 -33q-28 0 -47 6v-31z" />
    <glyph glyph-name="eacute" unicode="&#xe9;" horiz-adv-x="491" 
d="M451 -5h-455q53 20 65.5 37t12.5 65v473q0 48 -12 64.5t-66 36.5h372q25 0 40 12q9 7 28 32v-224q-26 63 -50.5 84t-74.5 21h-130v-197h114q46 0 68 15.5t44 60.5v-242q-23 52 -45 65q-16 11 -65 11h-116v-161q0 -32 7 -45q11 -19 42 -19h90q55 0 87.5 25t52.5 81l10 -2
q-15 -108 -19 -193zM320 59h-90q-74 0 -74 89v186h141q57 0 85 -15v75q-34 -20 -87 -20h-139v247h155q60 0 100 -32v65q-22 -8 -43 -8h-280q11 -26 11 -76v-473q0 -50 -12 -77h340q2 34 6 77q-49 -38 -113 -38zM371 822h-126l-70 -125h64zM319 801l-88 -84h-20l46 82z" />
    <glyph glyph-name="egrave" unicode="&#xe8;" horiz-adv-x="491" 
d="M451 -5h-455q53 20 65.5 37t12.5 65v473q0 48 -12 64.5t-66 36.5h372q25 0 40 12q9 7 28 32v-224q-26 63 -50.5 84t-74.5 21h-130v-197h114q46 0 68 15.5t44 60.5v-242q-23 52 -45 65q-16 11 -65 11h-116v-161q0 -32 7 -45q11 -19 42 -19h90q55 0 87.5 25t52.5 81l10 -2
q-15 -108 -19 -193zM320 59h-90q-74 0 -74 89v186h141q57 0 85 -15v75q-34 -20 -87 -20h-139v247h155q60 0 100 -32v65q-22 -8 -43 -8h-280q11 -26 11 -76v-473q0 -50 -12 -77h340q2 34 6 77q-49 -38 -113 -38zM125 822h126l70 -125h-64zM176 801l89 -84h20l-47 82z" />
    <glyph glyph-name="ecircumflex" unicode="&#xea;" horiz-adv-x="491" 
d="M451 -5h-455q53 20 65.5 37t12.5 65v473q0 48 -12 64.5t-66 36.5h372q25 0 40 12q9 7 28 32v-224q-26 63 -50.5 84t-74.5 21h-130v-197h114q46 0 68 15.5t44 60.5v-242q-23 52 -45 65q-16 11 -65 11h-116v-161q0 -32 7 -45q11 -19 42 -19h90q55 0 87.5 25t52.5 81l10 -2
q-15 -108 -19 -193zM320 59h-90q-74 0 -74 89v186h141q57 0 85 -15v75q-34 -20 -87 -20h-139v247h155q60 0 100 -32v65q-22 -8 -43 -8h-280q11 -26 11 -76v-473q0 -50 -12 -77h340q2 34 6 77q-49 -38 -113 -38zM365 731l-17 -20l-114 38l-115 -41l-14 14l127 117zM233 805
l-77 -62l78 31l83 -32z" />
    <glyph glyph-name="edieresis" unicode="&#xeb;" horiz-adv-x="491" 
d="M451 -5h-455q53 20 65.5 37t12.5 65v473q0 48 -12 64.5t-66 36.5h372q25 0 40 12q9 7 28 32v-224q-26 63 -50.5 84t-74.5 21h-130v-197h114q46 0 68 15.5t44 60.5v-242q-23 52 -45 65q-16 11 -65 11h-116v-161q0 -32 7 -45q11 -19 42 -19h90q55 0 87.5 25t52.5 81l10 -2
q-15 -108 -19 -193zM320 59h-90q-74 0 -74 89v186h141q57 0 85 -15v75q-34 -20 -87 -20h-139v247h155q60 0 100 -32v65q-22 -8 -43 -8h-280q11 -26 11 -76v-473q0 -50 -12 -77h340q2 34 6 77q-49 -38 -113 -38zM272 809h96v-96h-96v96zM292 789v-56h56v56h-56zM104 809h96
v-96h-96v96zM124 789v-56h56v56h-56z" />
    <glyph glyph-name="iacute" unicode="&#xed;" horiz-adv-x="312" 
d="M12 -5q52 20 64 33q18 18 18 65v477q0 48 -13.5 64.5t-69.5 36.5h274q-52 -19 -65 -33q-17 -17 -17 -64v-477q0 -48 13 -64.5t69 -37.5h-273zM106 646q13 -28 13 -76v-477q0 -44 -14 -73h86q-13 28 -13 77v477q0 44 13 72h-85zM271 822h-126l-70 -125h64zM219 801
l-88 -84h-20l46 82z" />
    <glyph glyph-name="igrave" unicode="&#xec;" horiz-adv-x="312" 
d="M12 -5q52 20 64 33q18 18 18 65v477q0 48 -13.5 64.5t-69.5 36.5h274q-52 -19 -65 -33q-17 -17 -17 -64v-477q0 -48 13 -64.5t69 -37.5h-273zM106 646q13 -28 13 -76v-477q0 -44 -14 -73h86q-13 28 -13 77v477q0 44 13 72h-85zM45 822h126l70 -125h-64zM96 801l89 -84h20
l-47 82z" />
    <glyph glyph-name="icircumflex" unicode="&#xee;" horiz-adv-x="305" 
d="M12 -5q52 20 64 33q18 18 18 65v477q0 48 -13.5 64.5t-69.5 36.5h274q-52 -19 -65 -33q-17 -17 -17 -64v-477q0 -48 13 -64.5t69 -37.5h-273zM106 646q13 -28 13 -76v-477q0 -44 -14 -73h86q-13 28 -13 77v477q0 44 13 72h-85zM275 731l-17 -20l-114 38l-115 -41l-14 14
l127 117zM143 805l-77 -62l78 31l83 -32z" />
    <glyph glyph-name="idieresis" unicode="&#xef;" horiz-adv-x="305" 
d="M12 -5q52 20 64 33q18 18 18 65v477q0 48 -13.5 64.5t-69.5 36.5h274q-52 -19 -65 -33q-17 -17 -17 -64v-477q0 -48 13 -64.5t69 -37.5h-273zM106 646q13 -28 13 -76v-477q0 -44 -14 -73h86q-13 28 -13 77v477q0 44 13 72h-85zM182 809h96v-96h-96v96zM202 789v-56h56v56
h-56zM14 809h96v-96h-96v96zM34 789v-56h56v56h-56z" />
    <glyph glyph-name="ntilde" unicode="&#xf1;" horiz-adv-x="775" 
d="M679 565v-594l-497 543v-417q0 -46 15 -63.5t72 -38.5h-253q45 19 61.5 38.5t16.5 63.5v444q0 90 -84 130h169l411 -446v340q0 49 -12 65q-14 20 -70 41h253q-56 -20 -69 -39t-13 -67zM600 647q15 -20 16 -41l-1 -445l-448 485l-85 1q36 -55 36 -68v-524q0 -14 -8 -35h62
q-15 30 -15 77v481l497 -543v568q5 19 16 44h-70zM490 748q-24 -26 -59 -26q-26 0 -79 19q-47 17 -64 14q-14 -2 -26.5 -3.5t-23.5 -9.5q20 47 21 49q15 29 35 39q11 6 24 6q19 0 64 -17.5t68 -17.5q29 0 50 20l18 16q-5 -12 -10 -47q-3 -25 -18 -42zM471 761q9 11 23 34
q-26 -13 -51 -13q-18 0 -39 7q-17 7 -34 13q-43 14 -58 14q-27 0 -40 -42q10 6 24 6q20 0 69.5 -18.5t70.5 -18.5q24 0 35 18z" />
    <glyph glyph-name="oacute" unicode="&#xf3;" horiz-adv-x="682" 
d="M334 -16q-147 0 -244 105q-93 103 -93 251q0 155 95 250t250 95q149 0 241 -98.5t92 -248.5q0 -148 -96.5 -251t-244.5 -103zM342 660q-145 0 -232.5 -87.5t-87.5 -232.5q0 -139 88 -235t224 -96q137 0 226.5 95.5t89.5 233.5q0 141 -85 231.5t-223 90.5zM333 38
q-113 0 -181 100q-58 86 -58 198t61 195q68 95 182 95q119 0 184 -91q57 -79 57 -197t-58 -202q-67 -98 -187 -98zM337 601q-101 0 -162 -84q-56 -76 -56 -181t54 -184q61 -89 160 -89q106 0 167 87q53 77 53 188q0 110 -52 182q-58 81 -164 81zM471 832h-126l-70 -125h64z
M419 811l-88 -84h-20l46 82z" />
    <glyph glyph-name="ograve" unicode="&#xf2;" horiz-adv-x="679" 
d="M334 -16q-147 0 -244 105q-93 103 -93 251q0 155 95 250t250 95q149 0 241 -98.5t92 -248.5q0 -148 -96.5 -251t-244.5 -103zM342 660q-145 0 -232.5 -87.5t-87.5 -232.5q0 -139 88 -235t224 -96q137 0 226.5 95.5t89.5 233.5q0 141 -85 231.5t-223 90.5zM333 38
q-113 0 -181 100q-58 86 -58 198t61 195q68 95 182 95q119 0 184 -91q57 -79 57 -197t-58 -202q-67 -98 -187 -98zM337 601q-101 0 -162 -84q-56 -76 -56 -181t54 -184q61 -89 160 -89q106 0 167 87q53 77 53 188q0 110 -52 182q-58 81 -164 81zM224 831l127 1l70 -125h-64z
M276 811l89 -84h20l-47 82z" />
    <glyph glyph-name="ocircumflex" unicode="&#xf4;" horiz-adv-x="679" 
d="M334 -16q-147 0 -244 105q-93 103 -93 251q0 155 95 250t250 95q149 0 241 -98.5t92 -248.5q0 -148 -96.5 -251t-244.5 -103zM342 660q-145 0 -232.5 -87.5t-87.5 -232.5q0 -139 88 -235t224 -96q137 0 226.5 95.5t89.5 233.5q0 141 -85 231.5t-223 90.5zM333 38
q-113 0 -181 100q-58 86 -58 198t61 195q68 95 182 95q119 0 184 -91q57 -79 57 -197t-58 -202q-67 -98 -187 -98zM337 601q-101 0 -162 -84q-56 -76 -56 -181t54 -184q61 -89 160 -89q106 0 167 87q53 77 53 188q0 110 -52 182q-58 81 -164 81zM465 731l-17 -20l-114 38
l-115 -41l-14 14l127 117zM333 805l-77 -62l78 31l83 -32z" />
    <glyph glyph-name="odieresis" unicode="&#xf6;" horiz-adv-x="676" 
d="M334 -16q-147 0 -244 105q-93 103 -93 251q0 155 95 250t250 95q149 0 241 -98.5t92 -248.5q0 -148 -96.5 -251t-244.5 -103zM342 660q-145 0 -232.5 -87.5t-87.5 -232.5q0 -139 88 -235t224 -96q137 0 226.5 95.5t89.5 233.5q0 141 -85 231.5t-223 90.5zM333 38
q-113 0 -181 100q-58 86 -58 198t61 195q68 95 182 95q119 0 184 -91q57 -79 57 -197t-58 -202q-67 -98 -187 -98zM337 601q-101 0 -162 -84q-56 -76 -56 -181t54 -184q61 -89 160 -89q106 0 167 87q53 77 53 188q0 110 -52 182q-58 81 -164 81zM362 819h96v-96h-96v96z
M382 799v-56h56v56h-56zM194 819h96v-96h-96v96zM214 799v-56h56v56h-56z" />
    <glyph glyph-name="otilde" unicode="&#xf5;" horiz-adv-x="679" 
d="M334 -16q-147 0 -244 105q-93 103 -93 251q0 155 95 250t250 95q149 0 241 -98.5t92 -248.5q0 -148 -96.5 -251t-244.5 -103zM342 660q-145 0 -232.5 -87.5t-87.5 -232.5q0 -139 88 -235t224 -96q137 0 226.5 95.5t89.5 233.5q0 141 -85 231.5t-223 90.5zM333 38
q-113 0 -181 100q-58 86 -58 198t61 195q68 95 182 95q119 0 184 -91q57 -79 57 -197t-58 -202q-67 -98 -187 -98zM337 601q-101 0 -162 -84q-56 -76 -56 -181t54 -184q61 -89 160 -89q106 0 167 87q53 77 53 188q0 110 -52 182q-58 81 -164 81zM430 748q-24 -26 -59 -26
q-26 0 -79 19q-47 17 -64 14q-14 -2 -26.5 -3.5t-23.5 -9.5q20 47 21 49q15 29 35 39q11 6 24 6q19 0 64 -17.5t68 -17.5q29 0 50 20l18 16q-5 -12 -10 -47q-3 -25 -18 -42zM411 761q9 11 23 34q-26 -13 -51 -13q-18 0 -39 7q-17 7 -34 13q-43 14 -58 14q-27 0 -40 -42
q10 6 24 6q20 0 69.5 -18.5t70.5 -18.5q24 0 35 18z" />
    <glyph glyph-name="uacute" unicode="&#xfa;" horiz-adv-x="665" 
d="M578 570v-306q0 -148 -65.5 -215.5t-214.5 -67.5q-125 0 -189 64q-58 59 -58 211v314q0 34 -4 46q-6 22 -30 34q3 -1 3 6q0 6 -27 15h255q-59 -22 -73 -39t-14 -62v-329q0 -87 31 -125q36 -44 126 -44q93 0 132 48q34 42 34 135v315q0 34 -3 46q-7 22 -30 34q-8 4 -52 21
h246q-67 -22 -67 -101zM494 646q12 -21 14 -40q1 -11 1 -36v-315q0 -102 -40 -151q-46 -57 -151 -57q-102 0 -145 53q-37 45 -37 141v329q0 48 15 76h-90q11 -21 13 -40q2 -11 2 -36v-314q0 -142 51 -193q56 -57 171 -57q144 0 203 66q52 58 52 192v306q0 48 16 76h-75z
M461 822h-126l-70 -125h64zM409 801l-88 -84h-20l46 82z" />
    <glyph glyph-name="ugrave" unicode="&#xf9;" horiz-adv-x="665" 
d="M578 570v-306q0 -148 -65.5 -215.5t-214.5 -67.5q-125 0 -189 64q-58 59 -58 211v314q0 33 -3 44q-4 15 -22.5 34t-32.5 23h255q-59 -22 -73 -39t-14 -62v-329q0 -87 31 -125q36 -44 126 -44q93 0 132 48q34 42 34 135v315q0 34 -3 46q-7 22 -30 34q-8 4 -52 21h246
q-67 -22 -67 -101zM494 646q12 -21 14 -40q1 -11 1 -36v-315q0 -102 -40 -151q-46 -57 -151 -57q-102 0 -145 53q-37 45 -37 141v329q0 48 15 76h-90q11 -21 13 -40q2 -11 2 -36v-314q0 -142 51 -193q56 -57 171 -57q144 0 203 66q52 58 52 192v306q0 48 16 76h-75zM205 822
h126l70 -125h-64zM256 801l89 -84h20l-47 82z" />
    <glyph glyph-name="ucircumflex" unicode="&#xfb;" horiz-adv-x="665" 
d="M578 570v-306q0 -148 -65.5 -215.5t-214.5 -67.5q-125 0 -189 64q-58 59 -58 211v314q0 34 -4 46q-6 22 -30 34q3 -1 3 6q0 6 -27 15h255q-59 -22 -73 -39t-14 -62v-329q0 -87 31 -125q36 -44 126 -44q93 0 132 48q34 42 34 135v315q0 34 -3 46q-7 22 -30 34q-8 4 -52 21
h246q-67 -22 -67 -101zM494 646q12 -21 14 -40q1 -11 1 -36v-315q0 -102 -40 -151q-46 -57 -151 -57q-102 0 -145 53q-37 45 -37 141v329q0 48 15 76h-90q11 -21 13 -40q2 -11 2 -36v-314q0 -142 51 -193q56 -57 171 -57q144 0 203 66q52 58 52 192v306q0 48 16 76h-75z
M445 731l-17 -20l-114 38l-115 -41l-14 14l127 117zM313 805l-77 -62l78 31l83 -32z" />
    <glyph glyph-name="udieresis" unicode="&#xfc;" horiz-adv-x="665" 
d="M578 570v-306q0 -148 -65.5 -215.5t-214.5 -67.5q-125 0 -189 64q-58 59 -58 211v314q0 34 -4 46q-6 22 -30 34q3 -1 3 6q0 6 -27 15h255q-59 -22 -73 -39t-14 -62v-329q0 -87 31 -125q36 -44 126 -44q93 0 132 48q34 42 34 135v315q0 34 -3 46q-7 22 -30 34q-8 4 -52 21
h246q-67 -22 -67 -101zM494 646q12 -21 14 -40q1 -11 1 -36v-315q0 -102 -40 -151q-46 -57 -151 -57q-102 0 -145 53q-37 45 -37 141v329q0 48 15 76h-90q11 -21 13 -40q2 -11 2 -36v-314q0 -142 51 -193q56 -57 171 -57q144 0 203 66q52 58 52 192v306q0 48 16 76h-75z
M352 819h96v-96h-96v96zM372 799v-56h56v56h-56zM184 819h96v-96h-96v96zM204 799v-56h56v56h-56z" />
    <glyph glyph-name="dagger" unicode="&#x2020;" horiz-adv-x="14" 
 />
    <glyph glyph-name="degree" unicode="&#xb0;" horiz-adv-x="318" 
d="M311 537q0 -62 -45 -108t-112 -46q-66 0 -111.5 44.5t-45.5 109.5q0 63 46 108.5t111 45.5q64 0 110.5 -46t46.5 -108zM154 670q-54 0 -94 -36q-43 -38 -43 -97q0 -57 39.5 -95.5t97.5 -38.5t97.5 40t39.5 94t-40.5 93.5t-96.5 39.5zM90 537q0 -28 18.5 -47t46.5 -19
t47.5 19t19.5 46q0 28 -19.5 46.5t-47.5 18.5q-27 0 -46 -18.5t-19 -45.5zM154 621q37 0 62.5 -24t25.5 -61q0 -36 -25.5 -60.5t-61.5 -24.5t-60.5 25t-24.5 61q0 35 25 59.5t59 24.5z" />
    <glyph glyph-name="cent" unicode="&#xa2;" horiz-adv-x="416" 
d="M177 57v59q-75 14 -122.5 77.5t-47.5 152.5q0 94 47 163t123 88v57h86v-51q54 -4 86.5 -34.5t32.5 -77.5q0 -27 -18.5 -45.5t-46.5 -18.5q-53 0 -65 64q-3 18 -5 20.5t-23 2.5q-75 0 -75 -126q0 -84 36 -132q33 -45 83 -45q30 0 48 11q8 6 38 36l60 -39q-31 -42 -34 -45
q-17 -19 -43 -34q-34 -20 -73 -26l-1 -57h-86zM202 82h36v55q53 6 80.5 20t58.5 55l-19 15q-27 -27 -44.5 -34t-45.5 -7q-63 0 -103.5 55.5t-40.5 146.5q0 150 94 150q41 0 51 -21q7 -22 15 -45q13 -20 33 -20q40 0 40 39q0 46 -43 69q-33 18 -76 19v50h-36v-52
q-82 -17 -128 -83q-42 -62 -42 -148q0 -83 44 -139q46 -59 126 -69v-56z" />
    <glyph glyph-name="sterling" unicode="&#xa3;" horiz-adv-x="462" 
d="M398 489q-33 54 -54 75q-38 37 -83 37q-28 0 -50 -15q-25 -17 -25 -43q0 -24 29 -94l32 -74h127v-71h-107q7 -28 7 -54q0 -75 -37 -153q48 -17 67 -17q63 0 138 73v-145q-59 -33 -124 -33t-133 37q-39 -39 -93 -39q-43 0 -72 21q-32 23 -32 64q0 39 29 61q27 19 66 19
q28 0 72 -12q4 22 4 41q0 62 -31 137h-109v71h86q-41 101 -41 151q0 73 60 121q56 44 131 44q60 0 130 -36zM367 576l-5 63q-55 28 -107 28q-65 0 -114 -37q-53 -41 -53 -104q0 -38 18 -90q2 -6 34 -85h-97v-23h102q38 -91 38 -161q0 -27 -10 -72q-61 19 -90 19
q-71 0 -71 -56q0 -31 26 -47q21 -14 54 -14q31 0 50 11q14 8 39 35q75 -44 137 -44q55 0 100 23v76q-53 -42 -114 -42q-26 0 -100 27q46 92 46 167q0 29 -15 78h115v23h-119q-18 43 -37 85q-32 78 -32 107q0 37 32 61q29 21 67 21q55 0 106 -49zM80 60q-17 0 -17 -8
q0 -10 21 -10q17 0 30 10q-18 8 -34 8zM80 84q29 0 73 -25q-34 -41 -69 -41q-45 0 -45 34q0 32 41 32z" />
    <glyph glyph-name="section" unicode="&#xa7;" horiz-adv-x="11" 
 />
    <glyph glyph-name="bullet" unicode="&#x2022;" horiz-adv-x="245" 
d="M-10 339q0 48 34 81t82 33q47 0 79.5 -34t32.5 -80q0 -48 -33 -81t-81 -33q-47 0 -80.5 33.5t-33.5 80.5zM10 339q0 -39 28 -66.5t66 -27.5q40 0 67 27.5t27 66.5q0 38 -27 66t-65 28q-40 0 -68 -27t-28 -67z" />
    <glyph glyph-name="paragraph" unicode="&#xb6;" 
 />
    <glyph glyph-name="germandbls" unicode="&#xdf;" 
 />
    <glyph glyph-name="registered" unicode="&#xae;" horiz-adv-x="316" 
d="M162 383q-62 0 -106 45t-44 108q0 62 44 106t106 44t104.5 -44.5t42.5 -107.5t-42.5 -107t-104.5 -44zM162 406q51 0 88 37.5t37 90.5t-37 90.5t-88 37.5q-54 1 -90 -36t-36 -92q0 -53 37.5 -90.5t88.5 -37.5zM176 534l47 -72h-26l-47 72h-26v-72h-22v157h68q-6 0 -5 1h7
q52 0 52 -40q0 -44 -48 -46zM126 557h45q30 0 30 23q0 17 -34 17h-41v-40z" />
    <glyph glyph-name="copyright" unicode="&#xa9;" horiz-adv-x="649" 
d="M346 -6q-141 0 -239 98.5t-98 240.5t98 241t239 99t239.5 -99t98.5 -241t-98.5 -240.5t-239.5 -98.5zM346 640q-124 0 -214.5 -89.5t-90.5 -217.5q0 -127 90.5 -216.5t214.5 -89.5t214.5 89.5t90.5 216.5q0 128 -90.5 217.5t-214.5 89.5zM472 412q-24 81 -116 81
q-69 0 -109.5 -45.5t-40.5 -113.5q0 -62 35 -106q41 -51 113 -51q96 0 118 79h34q-14 -52 -54.5 -82t-96.5 -30q-83 0 -132.5 53.5t-49.5 138.5q0 81 51 136t132 55q55 0 97.5 -31.5t53.5 -83.5h-35z" />
    <glyph glyph-name="trademark" unicode="&#x2122;" horiz-adv-x="436" 
d="M401 670v-196h-27v167h-2l-66 -167h-17l-65 167v0v-167h-28v196h46l56 -141l57 141h46zM159 670v-29h-64v-167h-28v167h-65v29h157z" />
    <glyph glyph-name="acute" unicode="&#xb4;" horiz-adv-x="191" 
d="M211 822h-126l-61 -107h64zM159 801l-79 -66h-20l37 64z" />
    <glyph glyph-name="dieresis" unicode="&#xa8;" horiz-adv-x="300" 
d="M166 819h96v-96h-96v96zM186 799v-56h56v56h-56zM8 819h96v-96h-96v96zM28 799v-56h56v56h-56z" />
    <glyph glyph-name="AE" unicode="&#xc6;" horiz-adv-x="898" 
d="M882 -3h-448q51 20 61 32q14 15 14 67v214h-186l-151 -222q-29 -42 -29 -58q0 -20 36 -28v-5q-187 6 -193 3q11 4 48 55l402 566q10 15 10 16q0 26 -40 35h395q27 0 41 10q7 6 24 28v-213q-16 44 -32 62q-20 22 -41 27q-12 5 -50 5h-132v-195h117q49 0 72 13q18 11 38 52
v-215q-26 62 -64 64q-15 1 -43 1h-120v-163q0 -39 11 -53t42 -14h90q56 0 90 30q12 9 24.5 19.5t24.5 43.5q-8 -56 -9 -102q-1 -37 -2 -75zM754 56h-90q-43 0 -62 24q-16 20 -16 68v188h145q28 0 46.5 -1t35.5 -11v64q-29 -17 -85 -17h-142v245h157q65 0 98 -29v67
q-17 -7 -40 -7h-326q-1 -16 -19 -41l-402 -566q-6 -9 -14 -17h78v7q0 24 33 73l159 232h224v-239q0 -50 -13 -73h337q3 22 6 74q-14 -17 -49.5 -29t-60.5 -12zM334 367l171 244h29v-244h-200zM509 574l-127 -182h127v182z" />
    <glyph glyph-name="Oslash" unicode="&#xd8;" horiz-adv-x="697" 
d="M336 -17q-87 0 -175 50l-71 -89l-58 45l71 92q-103 99 -103 256q0 152 92 248t244 96q88 0 166 -39l46 68l63 -43l-49 -68q109 -102 109 -262q0 -147 -93 -249q-96 -105 -242 -105zM534 594l44 66l-24 16l-45 -62q-82 42 -173 42q-141 0 -226 -88.5t-85 -230.5
q0 -77 22 -133q25 -62 86 -120l-70 -90l21 -15l70 87q101 -58 182 -58q135 0 224 97q86 95 86 232q0 153 -112 257zM328 40q-70 0 -149 63l329 459q72 -116 72 -231q0 -118 -62 -199q-69 -92 -190 -92zM162 127q-70 107 -70 209q0 117 62 198q70 89 189 89q43 0 67 -6
q34 -9 73 -38zM506 517l-295 -411q55 -45 114 -45q108 0 172 84q58 76 58 186q0 106 -49 186zM343 598q-106 0 -169 -80q-57 -73 -57 -182q0 -95 47 -169l290 405q-37 26 -111 26z" />
    <glyph glyph-name="plusminus" unicode="&#xb1;" horiz-adv-x="22" 
 />
    <glyph glyph-name="yen" unicode="&#xa5;" horiz-adv-x="661" 
d="M250 333q-58 89 -170 266q-22 34 -81 74h258l-30 -16q-22 -15 -22 -28q0 -14 16 -39l125 -198l130 213q8 13 8 25q0 13 -23 28q-14 8 -28 15h230q-49 -33 -58 -43q-6 -6 -37 -56l-149 -241h140v-90h-165v-50h165v-90h-165v-6q0 -50 20 -69q6 -5 65 -35h-288q58 30 64 35
q21 20 21 69v6h-163v90h163v50h-163v90h137zM294 309h-157v-42h163v-98h-163v-42h163v-30q0 -56 -23 -80h115q-22 24 -22 80v30h165v42h-165v98h165v42h-159q64 103 191 310q11 19 23 30h-86q4 -8 4 -19q0 -19 -12 -38l-150 -246l-146 231q-19 31 -19 52q0 11 5 20h-115
q16 -16 29 -37q41 -65 194 -303z" />
    <glyph glyph-name="uni00B5" unicode="&#xb5;" horiz-adv-x="504" 
d="M92 335v235q0 49 -14 65q-6 7 -61 38h277q-32 -13 -75 -39q-13 -14 -13 -64v-179l131 64l1 -104l-132 -65v-130q0 -38 7 -49q9 -14 43 -14h88q64 0 92 25q14 13 54 80q-12 -130 -17 -200h-470q32 13 75 39q14 15 14 65v129l-95 -46v104zM97 22h354q3 39 7 84
q-37 -37 -114 -37h-88q-47 0 -63 25q-11 18 -11 62v145l131 65l-1 51l-130 -64v217q0 58 18 79h-103q19 -21 19 -79v-250l-96 -49l1 -48l95 46v-167q0 -58 -19 -80z" />
    <glyph glyph-name="uni00B5" unicode="&#x3bc;" horiz-adv-x="504" 
d="M92 335v235q0 49 -14 65q-6 7 -61 38h277q-32 -13 -75 -39q-13 -14 -13 -64v-179l131 64l1 -104l-132 -65v-130q0 -38 7 -49q9 -14 43 -14h88q64 0 92 25q14 13 54 80q-12 -130 -17 -200h-470q32 13 75 39q14 15 14 65v129l-95 -46v104zM97 22h354q3 39 7 84
q-37 -37 -114 -37h-88q-47 0 -63 25q-11 18 -11 62v145l131 65l-1 51l-130 -64v217q0 58 18 79h-103q19 -21 19 -79v-250l-96 -49l1 -48l95 46v-167q0 -58 -19 -80z" />
    <glyph glyph-name="ordfeminine" unicode="&#xaa;" horiz-adv-x="612" 
d="M189 86h285q48 0 77 29q25 26 49 89v-234q-24 20 -40 25.5t-45 5.5h-513l424 590h-260q-56 0 -82.5 -23.5t-49.5 -89.5v221q23 -21 35 -25.5t40 -4.5h500zM580 113q-48 -47 -106 -47h-324l420 583h-461q-31 0 -55 8v-85q46 39 112 39h299l-424 -590h474q36 0 65 -11v103z
M190 840l32 -10l89 -33l120 43l-119 -129zM275 778l36 -40l64 64l-63 -25l-60 25z" />
    <glyph glyph-name="ordmasculine" unicode="&#xba;" horiz-adv-x="612" 
d="M189 85h285q48 0 77 29q25 26 49 89v-234q-24 20 -40 25.5t-45 5.5h-513l424 591h-260q-56 0 -82.5 -23.5t-49.5 -89.5v221q23 -21 35 -25.5t40 -4.5h500zM580 112q-48 -47 -106 -47h-324l420 584h-461q-31 0 -55 8v-85q46 39 112 39h299l-424 -591h474q36 0 65 -11v103z
M200 840l32 -10l89 -33l120 43l-119 -129zM285 778l36 -40l64 64l-63 -25l-60 25z" />
    <glyph glyph-name="ae" unicode="&#xe6;" horiz-adv-x="898" 
d="M882 -3h-448q51 20 61 32q14 15 14 67v214h-186l-151 -222q-29 -42 -29 -58q0 -20 36 -28v-5q-192 6 -196 4q16 6 51 54l402 566q10 15 10 16q0 26 -40 35h395q27 0 41 10q7 6 24 28v-203q-16 44 -32 62q-20 22 -41 27q-12 5 -50 5h-132v-205h117q49 0 72 13q18 11 38 52
v-215q-26 62 -64 64q-15 1 -43 1h-120v-163q0 -39 11 -53t42 -14h90q56 0 90 30q12 9 24.5 19.5t24.5 43.5q-8 -56 -9 -102q-1 -37 -2 -75zM754 56h-90q-43 0 -62 24q-16 20 -16 68v188h145q28 0 46.5 -1t35.5 -11v64q-29 -17 -85 -17h-142v255h157q65 0 98 -29v57
q-17 -7 -40 -7h-326q-1 -16 -19 -41l-402 -566q-6 -9 -14 -17h78v7q0 24 33 73l159 232h224v-239q0 -50 -13 -73h337q3 22 6 74q-14 -17 -49.5 -29t-60.5 -12zM334 367l171 244h29v-244h-200zM509 574l-127 -182h127v182z" />
    <glyph glyph-name="oslash" unicode="&#xf8;" horiz-adv-x="658" 
d="M336 -17q-87 0 -175 50l-71 -89l-58 45l71 92q-103 99 -103 256q0 152 92 248t244 96q88 0 166 -39l46 68l63 -43l-46 -67q106 -100 106 -263q0 -147 -93 -249q-96 -105 -242 -105zM534 594l44 66l-24 16l-45 -62q-82 42 -173 42q-141 0 -226 -88.5t-85 -230.5
q0 -77 22 -133q25 -62 86 -120l-70 -90l21 -15l70 87q101 -58 182 -58q135 0 224 97q86 95 86 232q0 153 -112 257zM328 40q-70 0 -149 63l329 459q72 -116 72 -231q0 -118 -62 -199q-69 -92 -190 -92zM162 127q-70 107 -70 209q0 117 62 198q70 89 189 89q43 0 67 -6
q34 -9 73 -38zM506 517l-295 -411q55 -45 114 -45q108 0 172 84q58 76 58 186q0 106 -49 186zM343 598q-106 0 -169 -80q-57 -73 -57 -182q0 -95 47 -169l290 405q-37 26 -111 26z" />
    <glyph glyph-name="questiondown" unicode="&#xbf;" horiz-adv-x="347" 
d="M105 211q38 38 38 70q0 38 -44 38q-18 0 -88 -38q34 65 44 76q29 32 84 32q53 0 91 -36.5t38 -90.5q0 -53 -35 -97q-8 -10 -66 -65q-36 -33 -36 -59q0 -25 20 -39t45 -14q37 0 67 27q6 5 48 56l-7 -168q-84 -30 -142 -30q-72 0 -117 39q-48 40 -48 111q0 57 33 105
q19 28 75 83zM72 340q14 4 27 4q29 0 49 -17t20 -46q0 -38 -38 -79l-70 -74q-38 -49 -38 -105q0 -60 41 -94q37 -31 99 -31q51 0 118 23l3 79q-34 -37 -87 -37q-36 0 -63 21t-27 57q0 34 36 70q33 31 66 63q35 41 35 88q0 43 -30.5 72.5t-73.5 29.5q-44 0 -67 -24zM152 561
q30 0 51.5 -20.5t21.5 -51.5q0 -32 -21.5 -53t-53.5 -21t-51.5 21t-19.5 53q0 30 21 51t52 21zM152 536q-21 0 -34.5 -13.5t-13.5 -33.5q0 -49 46 -49q22 0 36 13.5t14 35.5q0 20 -14 33.5t-34 13.5z" />
    <glyph glyph-name="exclamdown" unicode="&#xa1;" horiz-adv-x="193" 
d="M15 497q0 29 19.5 48t48.5 19q28 0 47.5 -19t19.5 -47q0 -30 -19.5 -49t-49.5 -19q-29 0 -47.5 19t-18.5 48zM81 455q44 0 44 43q0 17 -12.5 29t-29.5 12q-18 0 -30.5 -12t-12.5 -30q0 -42 41 -42zM135 175q22 -128 22 -213q0 -105 -75 -105q-74 0 -74 103q0 161 74 447
q37 -143 53 -232zM110 171q-11 66 -28 135q-49 -205 -49 -346q0 -78 49 -78q50 0 50 80q0 83 -22 209z" />
    <glyph glyph-name="logicalnot" unicode="&#xac;" horiz-adv-x="18" 
 />
    <glyph glyph-name="florin" unicode="&#x192;" horiz-adv-x="693" 
d="M92 461q38 108 128.5 169.5t212.5 61.5q30 0 83.5 -8t81.5 -8q12 0 49 45v-230q-53 65 -82 84q-42 28 -113 28q-155 0 -215 -142h192v-83h-213q-2 -18 -2 -37q0 -10 1 -20h214v-83h-200q52 -159 222 -159q74 0 126 34q37 24 96 91l-17 -186q-138 -43 -223 -43
q-131 0 -225 71t-125 192h-85v83h73v15q0 22 2 42h-75v83h94zM109 437h-87v-35h78q-5 -39 -5 -66q0 -13 2 -39h-75v-35h80q29 -124 116.5 -193.5t214.5 -69.5q79 0 201 37l9 99q-85 -80 -192 -80q-199 0 -253 207h207v35h-213q-2 28 -2 44q0 26 5 61h210v35h-202
q66 190 249 190q101 0 171 -71v104q-12 -8 -25 -8q-28 0 -81.5 8t-83.5 8q-117 0 -201 -59q-87 -60 -123 -172z" />
    <glyph glyph-name="guillemotleft" unicode="&#xab;" horiz-adv-x="327" 
d="M250 275l55 -101l-31 -46l-121 151l132 146l22 -49zM100 275l55 -101l-31 -46l-121 151l132 146l22 -49zM281 398l-108 -120l100 -125l15 22l-55 101l58 101zM131 398l-108 -120l100 -125l15 22l-55 101l58 101z" />
    <glyph glyph-name="guillemotright" unicode="&#xbb;" horiz-adv-x="330" 
d="M174 128l-22 49l57 101l-55 101l31 47l121 -152zM24 128l-22 49l57 101l-55 101l31 47l121 -152zM186 400l-14 -22l55 -100l-58 -101l9 -22l109 120zM36 400l-14 -22l55 -100l-58 -101l9 -22l109 120z" />
    <glyph glyph-name="ellipsis" unicode="&#x2026;" horiz-adv-x="753" 
d="M726 68q0 -36 -22 -58t-58 -22q-34 0 -57 21.5t-23 55.5q0 38 22.5 60.5t59.5 22.5q34 0 56 -23t22 -57zM648 123q-57 0 -57 -58q0 -24 15.5 -38t39.5 -14q55 0 55 55q0 24 -14.5 39.5t-38.5 15.5zM476 68q0 -36 -22 -58t-58 -22q-34 0 -57 21.5t-23 55.5q0 38 22.5 60.5
t59.5 22.5q34 0 56 -23t22 -57zM398 123q-57 0 -57 -58q0 -24 15.5 -38t39.5 -14q55 0 55 55q0 24 -14.5 39.5t-38.5 15.5zM226 68q0 -36 -22 -58t-58 -22q-34 0 -57 21.5t-23 55.5q0 38 22.5 60.5t59.5 22.5q34 0 56 -23t22 -57zM148 123q-57 0 -57 -58q0 -24 15.5 -38
t39.5 -14q55 0 55 55q0 24 -14.5 39.5t-38.5 15.5z" />
    <glyph glyph-name="uni00A0" unicode="&#xa0;" horiz-adv-x="256" 
 />
    <glyph glyph-name="Agrave" unicode="&#xc0;" horiz-adv-x="665" 
d="M336 737l-108 104l121 -1l59 -104zM420 2v-3l8 3q54 21 54 45q0 18 -34 103q-19 45 -48 113h-174q-14 -35 -45 -117q-34 -90 -34 -105q0 -22 32 -36l9 -3l-184 -1q43 34 65 88l251 620l270 -628q21 -50 78 -79h-248zM337 823l-63 1l80 -71h23zM569 72l-249 579l-231 -570
q-11 -28 -34 -59h74q-4 13 -4 19q0 23 36 118l50 126h204q18 -41 53 -125q36 -87 36 -113q0 -7 -5 -23h104q-25 28 -34 48zM222 316l89 228l93 -228h-182zM311 485l-56 -147h116z" />
    <glyph glyph-name="Atilde" unicode="&#xc3;" horiz-adv-x="665" 
d="M431 808q-3 -23 -15 -41q-20 -30 -54 -30q-21 0 -56 11q-38 12 -56 14q-33 2 -59 -16q10 24 19 48q14 28 32 37.5t43 5.5q10 -2 44 -12q27 -8 45 -8q31 0 57 23l8 6q-4 -11 -8 -38zM420 2v-3l8 3q54 21 54 45q0 18 -34 103q-19 45 -48 113h-174q-14 -35 -45 -117
q-34 -90 -34 -105q0 -22 32 -36l9 -3l-184 -1q43 34 65 88l251 620l270 -628q21 -50 78 -79h-248zM268 820q-26 0 -48 -47q22 8 49 3q7 -2 45 -13q29 -8 46 -8q27 0 41 21q7 11 17 32q-22 -10 -45 -10q-20 0 -55 11t-50 11zM569 72l-249 579l-231 -570q-11 -28 -34 -59h74
q-4 13 -4 19q0 23 36 118l50 126h204q18 -41 53 -125q36 -87 36 -113q0 -7 -5 -23h104q-25 28 -34 48zM222 316l89 228l93 -228h-182zM311 485l-56 -147h116z" />
    <glyph glyph-name="Otilde" unicode="&#xd5;" horiz-adv-x="681" 
d="M334 -16q-147 0 -244 105q-93 103 -93 251q0 155 95 250t250 95q149 0 241 -98.5t92 -248.5q0 -148 -96.5 -251t-244.5 -103zM342 660q-145 0 -232.5 -87.5t-87.5 -232.5q0 -139 88 -235t224 -96q137 0 226.5 95.5t89.5 233.5q0 141 -85 231.5t-223 90.5zM333 48
q-114 0 -181 95q-58 82 -58 193q0 112 61 195q68 95 182 95q119 0 184 -91q57 -79 57 -197q0 -116 -58 -197q-67 -93 -187 -93zM337 601q-101 0 -162 -84q-56 -76 -56 -181q0 -104 54 -179q60 -84 160 -84q106 0 167 82q53 74 53 183q0 110 -52 182q-58 81 -164 81zM437 746
q-20 -31 -55 -31q-20 0 -57 12q-40 12 -55 13q-34 3 -62 -18q10 25 20 51q14 30 34 40q12 6 27 6q16 0 51.5 -10.5t53.5 -10.5q32 0 56 23l18 16q-5 -12 -13 -47q-6 -25 -18 -44zM434 785q-19 -9 -40 -9q-20 0 -56 11.5t-51 11.5q-24 0 -44 -43q10 4 23 4q19 0 58 -12
t56 -12q32 0 54 49z" />
    <glyph glyph-name="OE" unicode="&#x152;" horiz-adv-x="802" 
d="M727 231q-19 51 -56 66q-13 5 -57 5h-103q-2 -62 -2 -91q0 -90 9 -100.5t33 -10.5q97 0 111 1q37 4 57 24q12 14 25 28q20 25 51 83q-9 -59 -17 -118q-7 -53 -10 -118h-285q-27 0 -80 -3.5t-79 -3.5q-140 0 -233 105q-91 100 -91 241q0 149 91.5 247.5t234.5 98.5
q30 0 90.5 -6t90.5 -6h174q27 0 42 14.5t31 30.5v-207l-21 22q-32 35 -46 42q-18 10 -60 10h-116v-181h102q56 0 81 20q13 11 33 48v-241zM702 306v98q-27 -25 -89 -25h-127v231h141q71 0 102 -41v92q-21 -13 -48 -13h-174q-30 0 -90.5 6t-90.5 6q-133 0 -217 -91t-84 -230
q0 -131 84 -224q87 -97 215 -97q26 0 79 3.5t80 3.5h261q3 45 9 98q-40 -50 -136 -50q-11 0 -33.5 1t-32.5 1q-37 0 -50 13t-15 46v193h128q66 0 88 -21zM159 466q-28 -57 -28 -129q0 -103 52 -177q56 -81 144 -81q32 0 67 16v484q-22 7 -46 7q-46 0 -102 -28.5t-87 -91.5z
M236 580q57 30 110 30q36 0 73 -13v-518q-51 -25 -92 -25q-102 0 -164 87q-56 79 -56 190q0 81 32 147q34 70 97 102z" />
    <glyph glyph-name="oe" unicode="&#x153;" horiz-adv-x="802" 
d="M727 231q-19 51 -56 66q-13 5 -57 5h-103q-2 -62 -2 -91q0 -90 9 -100.5t33 -10.5q97 0 111 1q37 4 57 24q12 14 25 28q20 25 51 83q-9 -59 -17 -118q-7 -53 -10 -118h-285q-27 0 -80 -3.5t-79 -3.5q-140 0 -233 105q-91 100 -91 241q0 149 91.5 247.5t234.5 98.5
q30 0 90.5 -6t90.5 -6h174q60 0 73 45v-207l-21 22q-32 35 -46 42q-18 10 -60 10h-116v-181h102q56 0 81 20q13 11 33 48v-241zM702 306v98q-27 -25 -89 -25h-127v231h141q71 0 102 -41v92q-21 -13 -48 -13h-174q-30 0 -90.5 6t-90.5 6q-133 0 -217 -91t-84 -230
q0 -131 84 -224q87 -97 215 -97q26 0 79 3.5t80 3.5h261q3 45 9 98q-40 -50 -136 -50q-11 0 -33.5 1t-32.5 1q-37 0 -50 13t-15 46v193h128q66 0 88 -21zM159 466q-28 -57 -28 -129q0 -103 52 -177q56 -81 144 -81q32 0 67 16v484q-22 7 -46 7q-46 0 -102 -28.5t-87 -91.5z
M236 580q57 30 110 30q36 0 73 -13v-518q-51 -25 -92 -25q-102 0 -164 87q-56 79 -56 190q0 81 32 147q34 70 97 102z" />
    <glyph glyph-name="endash" unicode="&#x2013;" horiz-adv-x="469" 
d="M5 317h443v-100h-443v100zM24 298v-62h405v62h-405z" />
    <glyph glyph-name="emdash" unicode="&#x2014;" horiz-adv-x="928" 
d="M5 317h913v-100h-913v100zM24 298v-62h875v62h-875z" />
    <glyph glyph-name="quotedblleft" unicode="&#x201c;" horiz-adv-x="343" 
d="M141 527q0 -27 -20 -47.5t-47 -20.5q-32 0 -50 22.5t-18 54.5q0 65 41 100q30 27 93 42q-23 -25 -43 -91q44 -13 44 -60zM118 525q0 38 -50 44q9 35 31 69q-26 -5 -47 -31q-23 -30 -21 -71q4 -52 43 -52q17 0 30.5 12t13.5 29zM303 527q0 -27 -20 -47.5t-47 -20.5
q-32 0 -50 22.5t-18 54.5q0 65 41 100q30 27 93 42q-23 -25 -43 -91q44 -13 44 -60zM280 525q0 38 -50 44q9 35 31 69q-26 -5 -47 -31q-23 -30 -21 -71q4 -52 43 -52q17 0 30.5 12t13.5 29z" />
    <glyph glyph-name="quotedblright" unicode="&#x201d;" horiz-adv-x="351" 
d="M178 610q0 28 20 48t48 20q32 0 49.5 -22t17.5 -54q0 -106 -146 -143q42 46 56 92q-45 12 -45 59zM202 613q0 -38 49 -45q-9 -35 -31 -68q27 4 47 31q24 30 21 71q-3 51 -42 51q-18 0 -31 -12t-13 -28zM16 610q0 28 20 48t48 20q32 0 49.5 -22t17.5 -54q0 -64 -45 -97
q-29 -20 -97 -37q40 45 52 83q-45 12 -45 59zM40 613q0 -38 49 -45q-9 -35 -31 -68q27 4 47 31q24 30 21 71q-3 51 -42 51q-18 0 -31 -12t-13 -28z" />
    <glyph glyph-name="quoteleft" unicode="&#x2018;" horiz-adv-x="195" 
d="M151 527q0 -27 -20 -47.5t-47 -20.5q-32 0 -50 22.5t-18 54.5q0 65 41 100q30 27 93 42q-23 -25 -43 -91q44 -13 44 -60zM128 525q0 38 -50 44q9 35 31 69q-26 -5 -47 -31q-23 -30 -21 -71q4 -52 43 -52q17 0 30.5 12t13.5 29z" />
    <glyph glyph-name="quoteright" unicode="&#x2019;" horiz-adv-x="194" 
d="M16 610q0 28 20 48t48 20q32 0 49.5 -22t17.5 -54q0 -65 -43 -99q-31 -25 -96 -41q32 31 49 89q-45 12 -45 59zM40 613q0 -38 49 -45q-9 -35 -31 -68q27 4 47 31q24 30 21 71q-3 51 -42 51q-18 0 -31 -12t-13 -28z" />
    <glyph glyph-name="divide" unicode="&#xf7;" horiz-adv-x="390" 
 />
    <glyph glyph-name="ydieresis" unicode="&#xff;" horiz-adv-x="650" 
d="M556 578l-174 -285v-191q0 -49 18 -68q14 -14 69 -34h-288q57 22 72 39t15 63v191q-93 144 -197 310q-31 50 -72 65l-11 6h267q-62 -20 -62 -42q0 -14 16 -40l127 -204l132 219q8 14 8 26q0 21 -63 41h235q-47 -29 -59 -43q-2 -3 -33 -53zM498 649q3 -11 3 -16
q0 -19 -12 -39l-153 -254l-148 239q-20 31 -20 53q0 6 4 17h-103q15 -18 26 -36q6 -10 18 -29l180 -284v-198q0 -47 -16 -77h95q-15 30 -15 77v198l178 291q22 36 40 58h-77zM366 809h96v-96h-96v96zM386 789v-56h56v56h-56zM198 809h96v-96h-96v96zM218 789v-56h56v56h-56z
" />
    <glyph glyph-name="Ydieresis" unicode="&#x178;" horiz-adv-x="650" 
d="M556 577l-174 -284v-191q0 -49 18 -68q14 -14 69 -34h-288q57 22 72 39t15 63v191q-117 182 -197 309q-31 50 -72 65l-11 6h267q-62 -20 -62 -42q0 -15 16 -40l127 -203l132 218q8 14 8 26q0 21 -63 41h235q-47 -29 -59 -43q-2 -3 -33 -53zM498 648q3 -11 3 -16
q0 -19 -12 -39l-153 -253l-148 238q-20 31 -20 53q0 6 4 17h-103q15 -18 26 -36q6 -10 18 -29l180 -283v-198q0 -47 -16 -77h95q-15 30 -15 77v198l178 290q22 36 40 58h-77zM366 809h96v-96h-96v96zM386 789v-56h56v56h-56zM198 809h96v-96h-96v96zM218 789v-56h56v56h-56z
" />
    <glyph glyph-name="currency" unicode="&#xa4;" horiz-adv-x="21" 
 />
    <glyph glyph-name="guilsinglleft" unicode="&#x2039;" horiz-adv-x="179" 
d="M100 275l55 -101l-31 -46l-121 151l132 146l22 -49zM131 398l-108 -120l100 -125l15 22l-55 101l58 101z" />
    <glyph glyph-name="guilsinglright" unicode="&#x203a;" horiz-adv-x="182" 
d="M24 128l-22 49l57 101l-55 101l31 47l121 -152zM36 400l-14 -22l55 -100l-58 -101l9 -22l109 120z" />
    <glyph glyph-name="daggerdbl" unicode="&#x2021;" horiz-adv-x="15" 
 />
    <glyph glyph-name="periodcentered" unicode="&#xb7;" horiz-adv-x="193" 
d="M166 304q0 -35 -22 -57.5t-58 -22.5q-34 0 -57 21.5t-23 56.5q0 37 22.5 60t59.5 23q34 0 56 -23t22 -58zM88 360q-57 0 -57 -58q0 -24 15.5 -38.5t39.5 -14.5q55 0 55 55q0 24 -15 40t-38 16z" />
    <glyph glyph-name="periodcentered" unicode="&#x2219;" horiz-adv-x="193" 
d="M166 304q0 -35 -22 -57.5t-58 -22.5q-34 0 -57 21.5t-23 56.5q0 37 22.5 60t59.5 23q34 0 56 -23t22 -58zM88 360q-57 0 -57 -58q0 -24 15.5 -38.5t39.5 -14.5q55 0 55 55q0 24 -15 40t-38 16z" />
    <glyph glyph-name="quotesinglbase" unicode="&#x201a;" horiz-adv-x="165" 
d="M2 46q0 28 20 48t47 20q32 0 50 -22t18 -55q0 -106 -117 -132l-24 -6q36 39 51 87q-45 13 -45 60zM25 48q0 -37 50 -44q-11 -42 -31 -73q23 4 45.5 39.5t22.5 66.5q0 52 -43 52q-17 0 -30.5 -12t-13.5 -29z" />
    <glyph glyph-name="quotedblbase" unicode="&#x201e;" horiz-adv-x="326" 
d="M162 46q0 28 20 48t47 20q32 0 50 -22t18 -55q0 -106 -117 -132l-24 -6q36 39 51 87q-45 13 -45 60zM185 48q0 -37 50 -44q-11 -42 -31 -73q23 4 45.5 39.5t22.5 66.5q0 52 -43 52q-17 0 -30.5 -12t-13.5 -29zM2 46q0 28 20 48t47 20q32 0 50 -22t18 -55
q0 -106 -117 -132l-24 -6q36 39 51 87q-45 13 -45 60zM25 48q0 -37 50 -44q-11 -42 -31 -73q23 4 45.5 39.5t22.5 66.5q0 52 -43 52q-17 0 -30.5 -12t-13.5 -29z" />
    <glyph glyph-name="perthousand" unicode="&#x2030;" horiz-adv-x="18" 
 />
    <glyph glyph-name="Acircumflex" unicode="&#xc2;" horiz-adv-x="661" 
d="M427 713l-113 37l-115 -40l-11 12l125 115l130 -106zM420 2v-3l8 3q54 21 54 45q0 18 -34 103q-19 45 -48 113h-174q-14 -35 -45 -117q-34 -90 -34 -105q0 -22 32 -36l9 -3l-184 -1q43 34 65 88l251 620l270 -628q21 -50 78 -79h-248zM313 807l-86 -70l87 36l93 -36z
M569 72l-249 579l-231 -570q-11 -28 -34 -59h74q-4 13 -4 19q0 23 36 118l50 126h204q18 -41 53 -125q36 -87 36 -113q0 -7 -5 -23h104q-25 28 -34 48zM222 316l89 228l93 -228h-182zM311 485l-56 -147h116z" />
    <glyph glyph-name="Ecircumflex" unicode="&#xca;" horiz-adv-x="491" 
d="M451 -5h-455q53 20 65.5 37t12.5 65v473q0 48 -12 64.5t-66 36.5h372q25 0 40 12q9 7 28 32v-224q-26 63 -50.5 84t-74.5 21h-130v-197h114q46 0 68 15.5t44 60.5v-242q-23 52 -45 65q-16 11 -65 11h-116v-161q0 -32 7 -45q11 -19 42 -19h90q55 0 87.5 25t52.5 81l10 -2
q-15 -108 -19 -193zM320 59h-90q-74 0 -74 89v186h141q57 0 85 -15v75q-34 -20 -87 -20h-139v247h155q60 0 100 -32v65q-22 -8 -43 -8h-280q11 -26 11 -76v-473q0 -50 -12 -77h340q2 34 6 77q-49 -38 -113 -38zM365 731l-17 -20l-114 38l-115 -41l-14 14l127 117zM233 805
l-77 -62l78 31l83 -32z" />
    <glyph glyph-name="Aacute" unicode="&#xc1;" horiz-adv-x="665" 
d="M338 736h-61l59 104l121 1zM420 2v-3l8 3q54 21 54 45q0 18 -34 103q-19 45 -48 113h-174q-14 -35 -45 -117q-34 -90 -34 -105q0 -22 32 -36l9 -3l-184 -1q43 34 65 88l251 620l270 -628q21 -50 78 -79h-248zM348 823l-41 -70h24l82 69zM569 72l-249 579l-231 -570
q-11 -28 -34 -59h74q-4 13 -4 19q0 23 36 118l50 126h204q18 -41 53 -125q36 -87 36 -113q0 -7 -5 -23h104q-25 28 -34 48zM222 316l89 228l93 -228h-182zM311 485l-56 -147h116z" />
    <glyph glyph-name="Edieresis" unicode="&#xcb;" horiz-adv-x="305" 
d="M12 -5q52 20 64 33q18 18 18 65v477q0 48 -13.5 64.5t-69.5 36.5h274q-52 -19 -65 -33q-17 -17 -17 -64v-477q0 -48 13 -64.5t69 -37.5h-273zM106 646q13 -28 13 -76v-477q0 -44 -14 -73h86q-13 28 -13 77v477q0 44 13 72h-85zM182 809h96v-96h-96v96zM202 789v-56h56v56
h-56zM14 809h96v-96h-96v96zM34 789v-56h56v56h-56z" />
    <glyph glyph-name="Egrave" unicode="&#xc8;" horiz-adv-x="491" 
d="M451 -5h-455q53 20 65.5 37t12.5 65v473q0 48 -12 64.5t-66 36.5h372q25 0 40 12q9 7 28 32v-224q-26 63 -50.5 84t-74.5 21h-130v-197h114q46 0 68 15.5t44 60.5v-242q-23 52 -45 65q-16 11 -65 11h-116v-161q0 -32 7 -45q11 -19 42 -19h90q55 0 87.5 25t52.5 81l10 -2
q-15 -108 -19 -193zM320 59h-90q-74 0 -74 89v186h141q57 0 85 -15v75q-34 -20 -87 -20h-139v247h155q60 0 100 -32v65q-22 -8 -43 -8h-280q11 -26 11 -76v-473q0 -50 -12 -77h340q2 34 6 77q-49 -38 -113 -38zM125 822h126l70 -125h-64zM176 801l89 -84h20l-47 82z" />
    <glyph glyph-name="Iacute" unicode="&#xcd;" horiz-adv-x="314" 
d="M12 -5q52 20 64 33q18 18 18 65v477q0 48 -13.5 64.5t-69.5 36.5h274q-52 -19 -65 -33q-17 -17 -17 -64v-477q0 -48 13 -64.5t69 -37.5h-273zM106 646q13 -28 13 -76v-477q0 -44 -14 -73h86q-13 28 -13 77v477q0 44 13 72h-85zM271 822h-126l-70 -125h64zM219 801
l-88 -84h-20l46 82z" />
    <glyph glyph-name="Icircumflex" unicode="&#xce;" horiz-adv-x="305" 
d="M12 -5q52 20 64 33q18 18 18 65v477q0 48 -13.5 64.5t-69.5 36.5h274q-52 -19 -65 -33q-17 -17 -17 -64v-477q0 -48 13 -64.5t69 -37.5h-273zM106 646q13 -28 13 -76v-477q0 -44 -14 -73h86q-13 28 -13 77v477q0 44 13 72h-85zM275 731l-17 -20l-114 38l-115 -41l-14 14
l127 117zM143 805l-77 -62l78 31l83 -32z" />
    <glyph glyph-name="Idieresis" unicode="&#xcf;" horiz-adv-x="305" 
d="M12 -5q52 20 64 33q18 18 18 65v477q0 48 -13.5 64.5t-69.5 36.5h274q-52 -19 -65 -33q-17 -17 -17 -64v-477q0 -48 13 -64.5t69 -37.5h-273zM106 646q13 -28 13 -76v-477q0 -44 -14 -73h86q-13 28 -13 77v477q0 44 13 72h-85zM182 809h96v-96h-96v96zM202 789v-56h56v56
h-56zM14 809h96v-96h-96v96zM34 789v-56h56v56h-56z" />
    <glyph glyph-name="Igrave" unicode="&#xcc;" horiz-adv-x="305" 
d="M12 -5q52 20 64 33q18 18 18 65v477q0 48 -13.5 64.5t-69.5 36.5h274q-52 -19 -65 -33q-17 -17 -17 -64v-477q0 -48 13 -64.5t69 -37.5h-273zM106 646q13 -28 13 -76v-477q0 -44 -14 -73h86q-13 28 -13 77v477q0 44 13 72h-85zM182 809h96v-96h-96v96zM202 789v-56h56v56
h-56zM14 809h96v-96h-96v96zM34 789v-56h56v56h-56z" />
    <glyph glyph-name="Oacute" unicode="&#xd3;" horiz-adv-x="679" 
d="M334 -16q-147 0 -244 105q-93 103 -93 251q0 155 95 250t250 95q149 0 241 -98.5t92 -248.5q0 -148 -96.5 -251t-244.5 -103zM342 660q-145 0 -232.5 -87.5t-87.5 -232.5q0 -139 88 -235t224 -96q137 0 226.5 95.5t89.5 233.5q0 141 -85 231.5t-223 90.5zM333 38
q-113 0 -181 100q-58 86 -58 198t61 195q68 95 182 95q119 0 184 -91q57 -79 57 -197t-58 -202q-67 -98 -187 -98zM337 601q-101 0 -162 -84q-56 -76 -56 -181t54 -184q61 -89 160 -89q106 0 167 87q53 77 53 188q0 110 -52 182q-58 81 -164 81zM471 832h-126l-70 -125h64z
M419 811l-88 -84h-20l46 82z" />
    <glyph glyph-name="Ocircumflex" unicode="&#xd4;" horiz-adv-x="679" 
d="M334 -16q-147 0 -244 105q-93 103 -93 251q0 155 95 250t250 95q149 0 241 -98.5t92 -248.5q0 -148 -96.5 -251t-244.5 -103zM342 660q-145 0 -232.5 -87.5t-87.5 -232.5q0 -139 88 -235t224 -96q137 0 226.5 95.5t89.5 233.5q0 141 -85 231.5t-223 90.5zM333 38
q-113 0 -181 100q-58 86 -58 198t61 195q68 95 182 95q119 0 184 -91q57 -79 57 -197t-58 -202q-67 -98 -187 -98zM337 601q-101 0 -162 -84q-56 -76 -56 -181t54 -184q61 -89 160 -89q106 0 167 87q53 77 53 188q0 110 -52 182q-58 81 -164 81zM465 731l-17 -20l-114 38
l-115 -41l-14 14l127 117zM333 805l-77 -62l78 31l83 -32z" />
    <glyph glyph-name="Ograve" unicode="&#xd2;" horiz-adv-x="679" 
d="M334 -16q-147 0 -244 105q-93 103 -93 251q0 155 95 250t250 95q149 0 241 -98.5t92 -248.5q0 -148 -96.5 -251t-244.5 -103zM342 660q-145 0 -232.5 -87.5t-87.5 -232.5q0 -139 88 -235t224 -96q137 0 226.5 95.5t89.5 233.5q0 141 -85 231.5t-223 90.5zM333 38
q-113 0 -181 100q-58 86 -58 198t61 195q68 95 182 95q119 0 184 -91q57 -79 57 -197t-58 -202q-67 -98 -187 -98zM337 601q-101 0 -162 -84q-56 -76 -56 -181t54 -184q61 -89 160 -89q106 0 167 87q53 77 53 188q0 110 -52 182q-58 81 -164 81zM224 831l127 1l70 -125h-64z
M276 811l89 -84h20l-47 82z" />
    <glyph glyph-name="Uacute" unicode="&#xda;" horiz-adv-x="654" 
d="M578 570v-306q0 -148 -65.5 -215.5t-214.5 -67.5q-125 0 -189 64q-58 59 -58 211v314q0 34 -4 46q-6 22 -30 34q3 -1 3 6q0 6 -27 15h255q-59 -22 -73 -39t-14 -62v-329q0 -87 31 -125q36 -44 126 -44q93 0 132 48q34 42 34 135v315q0 34 -3 46q-7 22 -30 34q-8 4 -52 21
h246q-67 -22 -67 -101zM494 646q12 -21 14 -40q1 -11 1 -36v-315q0 -102 -40 -151q-46 -57 -151 -57q-102 0 -145 53q-37 45 -37 141v329q0 48 15 76h-90q11 -21 13 -40q2 -11 2 -36v-314q0 -142 51 -193q56 -57 171 -57q144 0 203 66q52 58 52 192v306q0 48 16 76h-75z
M461 822h-126l-70 -125h64zM409 801l-88 -84h-20l46 82z" />
    <glyph glyph-name="Ucircumflex" unicode="&#xdb;" horiz-adv-x="645" 
d="M578 570v-306q0 -148 -65.5 -215.5t-214.5 -67.5q-125 0 -189 64q-58 59 -58 211v314q0 34 -4 46q-6 22 -30 34q3 -1 3 6q0 6 -27 15h255q-59 -22 -73 -39t-14 -62v-329q0 -87 31 -125q36 -44 126 -44q93 0 132 48q34 42 34 135v315q0 34 -3 46q-7 22 -30 34q-8 4 -52 21
h246q-67 -22 -67 -101zM494 646q12 -21 14 -40q1 -11 1 -36v-315q0 -102 -40 -151q-46 -57 -151 -57q-102 0 -145 53q-37 45 -37 141v329q0 48 15 76h-90q11 -21 13 -40q2 -11 2 -36v-314q0 -142 51 -193q56 -57 171 -57q144 0 203 66q52 58 52 192v306q0 48 16 76h-75z
M445 731l-17 -20l-114 38l-115 -41l-14 14l127 117zM313 805l-77 -62l78 31l83 -32z" />
    <glyph glyph-name="Ugrave" unicode="&#xd9;" horiz-adv-x="648" 
d="M578 570v-306q0 -148 -65.5 -215.5t-214.5 -67.5q-125 0 -189 64q-58 59 -58 211v314q0 33 -3 44q-4 15 -22.5 34t-32.5 23h255q-59 -22 -73 -39t-14 -62v-329q0 -87 31 -125q36 -44 126 -44q93 0 132 48q34 42 34 135v315q0 34 -3 46q-7 22 -30 34q-8 4 -52 21h246
q-67 -22 -67 -101zM494 646q12 -21 14 -40q1 -11 1 -36v-315q0 -102 -40 -151q-46 -57 -151 -57q-102 0 -145 53q-37 45 -37 141v329q0 48 15 76h-90q11 -21 13 -40q2 -11 2 -36v-314q0 -142 51 -193q56 -57 171 -57q144 0 203 66q52 58 52 192v306q0 48 16 76h-75zM205 822
h126l70 -125h-64zM256 801l89 -84h20l-47 82z" />
    <glyph glyph-name="circumflex" unicode="&#x2c6;" horiz-adv-x="264" 
d="M265 731l-17 -20l-114 38l-115 -41l-14 14l127 117zM133 805l-77 -62l78 31l83 -32z" />
    <glyph glyph-name="tilde" unicode="&#x2dc;" horiz-adv-x="329" 
d="M290 748q-24 -26 -59 -26q-26 0 -79 19q-47 17 -64 14q-14 -2 -26.5 -3.5t-23.5 -9.5q8 23 16 47q12 27 40 41q11 6 24 6q19 0 64 -17.5t68 -17.5q29 0 50 20l18 16q-5 -12 -10 -47q-3 -25 -18 -42zM271 761q9 11 23 34q-26 -13 -51 -13q-18 0 -39 7q-17 7 -34 13
q-38 12 -53 12q-30 0 -43 -46q10 7 25 7q19 0 67 -16t68 -16q25 0 37 18z" />
    <glyph glyph-name="macron" unicode="&#xaf;" horiz-adv-x="292" 
d="M274 726h-268v96h268v-96zM250 750v48h-220v-48h220z" />
    <glyph glyph-name="macron" unicode="&#x2c9;" horiz-adv-x="292" 
d="M274 726h-268v96h268v-96zM250 750v48h-220v-48h220z" />
    <glyph glyph-name="cedilla" unicode="&#xb8;" horiz-adv-x="199" 
d="M110 -38q30 -2 53.5 -25.5t23.5 -53.5q0 -41 -35 -64q-28 -19 -68 -19q-26 0 -74 8v79q36 -16 68 -16q22 0 22 12q0 18 -25 18q-33 0 -51 2l33 106h66zM31 -175q32 -5 53 -5q34 0 58.5 16.5t24.5 46.5q0 23 -19.5 41t-42.5 18q-3 0 -22 -2l13 48h-24l-21 -67h29
q16 0 28 -10.5t12 -27.5q0 -33 -42 -33q-28 0 -47 6v-31z" />
    <glyph glyph-name="Scaron" unicode="&#x160;" 
 />
    <glyph glyph-name="scaron" unicode="&#x161;" 
 />
    <glyph glyph-name="brokenbar" unicode="&#xa6;" 
 />
    <glyph glyph-name="Eth" unicode="&#xd0;" 
 />
    <glyph glyph-name="eth" unicode="&#xf0;" 
 />
    <glyph glyph-name="Yacute" unicode="&#xdd;" 
 />
    <glyph glyph-name="yacute" unicode="&#xfd;" 
 />
    <glyph glyph-name="Thorn" unicode="&#xde;" 
 />
    <glyph glyph-name="thorn" unicode="&#xfe;" 
 />
    <glyph glyph-name="uni00AD" unicode="&#xad;" 
 />
    <glyph glyph-name="uni00AD" unicode="&#x2212;" 
 />
    <glyph glyph-name="multiply" unicode="&#xd7;" 
 />
    <glyph glyph-name="uni00B9" unicode="&#xb9;" 
 />
    <glyph glyph-name="uni00B2" unicode="&#xb2;" 
 />
    <glyph glyph-name="uni00B3" unicode="&#xb3;" 
 />
    <glyph glyph-name="onehalf" unicode="&#xbd;" 
 />
    <glyph glyph-name="onequarter" unicode="&#xbc;" 
 />
    <glyph glyph-name="threequarters" unicode="&#xbe;" 
 />
    <glyph glyph-name="Lslash" unicode="&#x141;" 
 />
    <glyph glyph-name="lslash" unicode="&#x142;" 
 />
    <glyph glyph-name="glyph220" 
 />
    <glyph glyph-name="glyph221" 
 />
    <glyph glyph-name="glyph222" 
 />
    <glyph glyph-name="Zcaron" unicode="&#x17d;" 
 />
    <glyph glyph-name="zcaron" unicode="&#x17e;" 
 />
    <glyph glyph-name="glyph225" 
 />
    <glyph glyph-name="glyph226" 
 />
    <glyph glyph-name="glyph227" 
 />
    <glyph glyph-name="glyph228" 
 />
    <glyph glyph-name="glyph229" 
 />
    <glyph glyph-name="glyph230" 
 />
    <glyph glyph-name="glyph231" 
 />
    <glyph glyph-name="glyph232" horiz-adv-x="1002" 
 />
    <glyph glyph-name="notequal" unicode="&#x2260;" 
 />
    <glyph glyph-name="infinity" unicode="&#x221e;" horiz-adv-x="22" 
 />
    <glyph glyph-name="lessequal" unicode="&#x2264;" horiz-adv-x="16" 
 />
    <glyph glyph-name="greaterequal" unicode="&#x2265;" horiz-adv-x="16" 
 />
    <glyph glyph-name="partialdiff" unicode="&#x2202;" horiz-adv-x="501" 
d="M92 335v235q0 49 -14 65q-6 7 -61 38h277q-32 -13 -75 -39q-13 -14 -13 -64v-179l131 61l1 -103l-132 -63v-130q0 -38 7 -49q9 -14 43 -14h88q64 0 92 25q14 13 54 80q-12 -130 -17 -200h-470q32 13 75 39q14 15 14 65v129l-95 -46v104zM97 22h354q3 39 7 84
q-37 -37 -114 -37h-88q-47 0 -63 25q-11 18 -11 62v145l131 63v50l-131 -61v217q0 58 18 79h-103q19 -21 19 -79v-250l-96 -49l1 -45l95 43v-167q0 -58 -19 -80z" />
    <glyph glyph-name="summation" unicode="&#x2211;" horiz-adv-x="388" 
d="M152 -18q-54 0 -152 32v153q87 -95 163 -95q44 0 77.5 30t33.5 73q0 63 -85 122q-104 71 -119 85q-58 56 -58 132q0 79 60 127q54 44 136 44q20 0 57.5 -11t57.5 -11q9 0 34 23l8 -191q-35 58 -69.5 80t-88.5 22q-37 0 -63 -18t-26 -53q0 -41 82 -94l66 -45
q115 -83 115 -193q0 -93 -67.5 -152.5t-161.5 -59.5zM234 379q-32 20 -92 63q-49 40 -49 84q0 47 36 73q32 23 78 23q79 0 129 -46l-2 64q-9 -2 -11 -2q-20 0 -57.5 11t-57.5 11q-73 0 -122 -39.5t-49 -106.5q0 -51 30 -91q23 -30 71 -63l80 -54q81 -58 81 -131
q0 -54 -41.5 -91t-94.5 -37q-66 0 -138 59v-74q79 -25 127 -25q85 0 144.5 52.5t59.5 134.5q0 62 -37 110q-27 36 -85 75zM80 840l32 -10l89 -33l120 43l-119 -129zM165 778l36 -40l64 64l-63 -25l-60 25z" />
    <glyph glyph-name="product" unicode="&#x220f;" horiz-adv-x="397" 
d="M152 -18q-54 0 -152 32v153q87 -95 163 -95q44 0 77.5 30t33.5 73q0 63 -85 122q-104 71 -119 85q-58 56 -58 132q0 79 60 127q54 44 136 44q20 0 57.5 -11t57.5 -11q9 0 34 23l8 -195q-36 60 -70.5 84.5t-87.5 24.5q-37 0 -63 -19.5t-26 -54.5q0 -41 82 -94l66 -45
q115 -83 115 -193q0 -93 -67.5 -152.5t-161.5 -59.5zM234 379q-32 20 -92 63q-49 40 -49 84q0 47 36 74q32 25 78 25q75 0 129 -49l-2 64q-9 -2 -11 -2q-20 0 -57.5 11t-57.5 11q-73 0 -122 -39.5t-49 -106.5q0 -51 30 -91q23 -30 71 -63l80 -54q81 -58 81 -131
q0 -54 -41.5 -91t-94.5 -37q-66 0 -138 59v-74q79 -25 127 -25q85 0 144.5 52.5t59.5 134.5q0 62 -37 110q-27 36 -85 75zM80 840l32 -10l89 -33l120 43l-119 -129zM165 778l36 -40l64 64l-63 -25l-60 25z" />
    <glyph glyph-name="pi" unicode="&#x3c0;" horiz-adv-x="643" 
d="M556 575l-174 -282v-196q0 -49 18 -68q14 -14 69 -34h-288q57 22 72 39t15 63v196l-197 307q-31 50 -72 65l-11 6h267q-62 -20 -62 -42q0 -15 16 -40l127 -201l132 216q8 14 8 26q0 21 -63 41h235q-47 -29 -59 -43q-1 -2 -33 -53zM498 646q3 -11 3 -16q0 -19 -12 -39
l-153 -251l-148 236q-20 31 -20 53q0 6 4 17h-103q15 -18 26 -36q6 -10 18 -29l180 -281v-203q0 -47 -16 -77h95q-15 30 -15 77v203l178 288q23 37 40 58h-77zM441 822h-126l-61 -107h64zM389 801l-79 -66h-20l37 64z" />
    <glyph glyph-name="integral" unicode="&#x222b;" horiz-adv-x="643" 
d="M556 575l-174 -282v-196q0 -49 18 -68q14 -14 69 -34h-288q57 22 72 39t15 63v196l-197 307q-31 50 -72 65l-11 6h267q-62 -20 -62 -42q0 -15 16 -40l127 -201l132 216q8 14 8 26q0 21 -63 41h235q-47 -29 -59 -43q-1 -2 -33 -53zM498 646q3 -11 3 -16q0 -19 -12 -39
l-153 -251l-148 236q-20 31 -20 53q0 6 4 17h-103q15 -18 26 -36q6 -10 18 -29l180 -281v-203q0 -47 -16 -77h95q-15 30 -15 77v203l178 288q23 37 40 58h-77zM441 822h-126l-61 -107h64zM382 799l-72 -64h-20l37 64h55z" />
    <glyph glyph-name="Omega" unicode="&#x3a9;" horiz-adv-x="693" 
d="M92 461q38 108 128.5 169.5t212.5 61.5q30 0 83.5 -8t81.5 -8q12 0 49 45v-230q-53 65 -82 84q-42 28 -113 28q-155 0 -215 -142h192v-83h-213q-2 -18 -2 -37q0 -10 1 -20h214v-83h-200q52 -159 222 -159q74 0 126 34q37 24 96 91l-17 -186q-138 -43 -223 -43
q-131 0 -225 71t-125 192h-85v83h73v15q0 22 2 42h-75v83h94zM109 437h-87v-35h78q-5 -39 -5 -66q0 -13 2 -39h-75v-35h80q29 -124 116.5 -193.5t214.5 -69.5q79 0 201 37l9 99q-85 -80 -192 -80q-199 0 -253 207h207v35h-213q-2 28 -2 44q0 26 5 61h210v35h-202
q66 190 249 190q101 0 171 -71v104q-12 -8 -25 -8q-28 0 -81.5 8t-83.5 8q-117 0 -201 -59q-87 -60 -123 -172z" />
    <glyph glyph-name="Omega" unicode="&#x2126;" horiz-adv-x="693" 
d="M92 461q38 108 128.5 169.5t212.5 61.5q30 0 83.5 -8t81.5 -8q12 0 49 45v-230q-53 65 -82 84q-42 28 -113 28q-155 0 -215 -142h192v-83h-213q-2 -18 -2 -37q0 -10 1 -20h214v-83h-200q52 -159 222 -159q74 0 126 34q37 24 96 91l-17 -186q-138 -43 -223 -43
q-131 0 -225 71t-125 192h-85v83h73v15q0 22 2 42h-75v83h94zM109 437h-87v-35h78q-5 -39 -5 -66q0 -13 2 -39h-75v-35h80q29 -124 116.5 -193.5t214.5 -69.5q79 0 201 37l9 99q-85 -80 -192 -80q-199 0 -253 207h207v35h-213q-2 28 -2 44q0 26 5 61h210v35h-202
q66 190 249 190q101 0 171 -71v104q-12 -8 -25 -8q-28 0 -81.5 8t-83.5 8q-117 0 -201 -59q-87 -60 -123 -172z" />
    <glyph glyph-name="radical" unicode="&#x221a;" horiz-adv-x="18" 
 />
    <glyph glyph-name="approxequal" unicode="&#x2248;" horiz-adv-x="18" 
 />
    <glyph glyph-name="approxequal" unicode="&#x22f2;" horiz-adv-x="18" 
 />
    <glyph glyph-name="Delta" unicode="&#x394;" horiz-adv-x="21" 
 />
    <glyph glyph-name="Delta" unicode="&#x2206;" horiz-adv-x="21" 
 />
    <glyph glyph-name="lozenge" unicode="&#x25ca;" horiz-adv-x="469" 
d="M187 315l-182 49l182 49l48 181l49 -181l182 -49l-182 -49l-49 -181zM207 336l28 -106l29 106l105 28l-105 29l-29 105l-28 -105l-106 -29z" />
    <glyph glyph-name="fraction" unicode="&#x2044;" horiz-adv-x="29" 
 />
    <glyph glyph-name="uniF001" unicode="&#xf001;" horiz-adv-x="12" 
 />
    <glyph glyph-name="uniF002" unicode="&#xf002;" horiz-adv-x="15" 
 />
    <glyph glyph-name="uniF000" unicode="&#xf000;" horiz-adv-x="21" 
 />
    <glyph glyph-name="dotlessi" unicode="&#x131;" horiz-adv-x="300" 
d="M12 -5q52 20 64 33q18 18 18 65v477q0 48 -13.5 64.5t-69.5 36.5h274q-52 -19 -65 -33q-17 -17 -17 -64v-477q0 -48 13 -64.5t69 -37.5h-273zM106 646q13 -28 13 -76v-477q0 -44 -14 -73h86q-13 28 -13 77v477q0 44 13 72h-85z" />
    <glyph glyph-name="breve" unicode="&#x2d8;" horiz-adv-x="278" 
d="M130 716q-55 1 -92 34q-41 37 -41 99l1 8q92 -39 134 -39q45 0 111 32l21 10v-19q0 -61 -42 -95q-38 -32 -92 -30zM23 828q28 -87 108 -87t108 87q-44 -35 -108 -35t-108 35z" />
    <glyph glyph-name="dotaccent" unicode="&#x2d9;" horiz-adv-x="162" 
d="M143 771q0 -30 -21.5 -50.5t-51.5 -20.5q-29 0 -51 21t-22 50q0 31 22 52.5t53 21.5q29 0 50 -22.5t21 -51.5zM72 821q-21 0 -36 -14.5t-15 -35.5q0 -19 15 -33t34 -14q20 0 34.5 13.5t14.5 33.5q0 19 -14 34.5t-33 15.5z" />
    <glyph glyph-name="ring" unicode="&#x2da;" horiz-adv-x="165" 
d="M79 824q17 0 28.5 -11.5t11.5 -28.5q0 -16 -11.5 -27.5t-28.5 -11.5q-16 0 -27.5 11.5t-11.5 27.5q0 17 11.5 28.5t27.5 11.5zM79 808q-23 0 -23 -24q0 -23 23 -23q24 0 24 23q0 24 -24 24zM79 857q31 0 52.5 -21.5t21.5 -52.5q0 -30 -23 -51.5t-53 -21.5q-31 0 -51 21.5
t-20 51.5q0 31 21.5 52.5t51.5 21.5zM79 841q-24 0 -40.5 -17t-16.5 -41t15.5 -40.5t39.5 -16.5t42 17t18 40q0 24 -17 41t-41 17z" />
    <glyph glyph-name="hungarumlaut" unicode="&#x2dd;" horiz-adv-x="306" 
d="M307 822l-126 -1l-36 -107h64zM255 800l-54 -66l-27 1l19 64zM160 822l-126 -1l-36 -107h64zM108 800l-54 -66l-25 1l17 64z" />
    <glyph glyph-name="ogonek" unicode="&#x2db;" horiz-adv-x="255" 
d="M-1 -94q0 69 86 111l112 -1q-107 -57 -107 -99q0 -25 33 -25q18 0 59 31v-102q-41 -14 -73 -14q-45 0 -77.5 27.5t-32.5 71.5zM109 -169q25 0 49 8v38q-17 -9 -35 -9q-57 0 -57 49q0 35 61 75l-37 1q-67 -34 -67 -87q0 -34 25.5 -54.5t60.5 -20.5z" />
    <glyph glyph-name="caron" unicode="&#x2c7;" horiz-adv-x="306" 
d="M10 857l40 -3l112 -28l116 28l33 3l-149 -151q-24 26 -152 151zM162 740l80 80l-80 -19l-74 19q10 -11 74 -80z" />
    </font>
</defs>
</svg>
