<?xml version="1.0" standalone="no"?>
<!DOCTYPE svg PUBLIC "-//W3C//DTD SVG 1.1//EN" "http://www.w3.org/Graphics/SVG/1.1/DTD/svg11.dtd" >
<svg>
<metadata>
Created by FontForge 20120731 at Wed Apr 17 23:10:42 2019
 By www-data
Digitized by Dan x. Solo. Software (c) 2001 by Dover Publications, Inc., New York.  
</metadata>
<defs>
<font id="EuropaOutlineNormal" horiz-adv-x="20" >
  <font-face 
    font-family="Europa Outline"
    font-weight="400"
    font-stretch="normal"
    units-per-em="1000"
    panose-1="0 0 4 0 0 0 0 0 0 0"
    ascent="800"
    descent="-200"
    x-height="484"
    cap-height="673"
    bbox="-88 -220 1007 902"
    underline-thickness="20"
    underline-position="-123"
    unicode-range="U+0020-F002"
  />
<missing-glyph horiz-adv-x="500" 
d="M63 0v800h375v-800h-375zM125 63h250v675h-250v-675z" />
    <glyph glyph-name=".notdef" horiz-adv-x="500" 
d="M63 0v800h375v-800h-375zM125 63h250v675h-250v-675z" />
    <glyph glyph-name=".null" horiz-adv-x="0" 
 />
    <glyph glyph-name="glyph2" horiz-adv-x="234" 
 />
    <glyph glyph-name="space" unicode=" " horiz-adv-x="234" 
 />
    <glyph glyph-name="exclam" unicode="!" horiz-adv-x="280" 
d="M212 0h-167v177h167v-177zM172 40v97h-87v-97h87zM212 242h-168l-8 435h187zM173 282l9 355h-106l7 -355h90z" />
    <glyph glyph-name="quotedbl" unicode="&#x22;" horiz-adv-x="400" 
d="M43 395l-23 277h151l-23 -277h-105zM77 431h37l19 204h-75zM231 395l-22 277h152l-25 -277h-105zM265 431h37l20 204h-74z" />
    <glyph glyph-name="numbersign" unicode="#" horiz-adv-x="618" 
d="M527 171h-81l-28 -173h-133l27 173h-62l-28 -173h-132l27 173h-81l19 121h81l13 83h-81l19 122h82l27 172h132l-27 -172h63l27 172h134l-28 -172h81l-19 -122h-81l-13 -83h81zM495 209l7 45h-82l25 159h81l7 46h-80l27 172h-56l-28 -172h-139l27 172h-56l-27 -172h-81
l-7 -46h81l-25 -159h-81l-8 -45h81l-27 -173h56l27 173h140l-28 -173h57l27 173h82zM282 375l-13 -83h62l14 83h-63zM250 413h139l-25 -159h-140z" />
    <glyph glyph-name="dollar" unicode="$" horiz-adv-x="660" 
d="M368 416q125 -10 170 -37q69 -43 69 -163q0 -129 -64 -176q-51 -38 -175 -41v-77h-124v77q-111 3 -164 37q-73 46 -73 160q0 11 2 50h168q3 -67 6 -73q9 -20 61 -22v119q-119 7 -164 36q-65 42 -65 163q0 122 62 168q48 35 167 40v67h124v-68q129 -5 173 -49
q47 -47 44 -178h-163q-3 52 -7 59q-8 12 -47 13v-105zM330 380v180q70 -1 84 -6q37 -13 43 -67h91q2 103 -65 133q-35 16 -153 19v67h-48v-66q-128 -3 -166 -23q-63 -34 -63 -148q0 -79 31 -115q25 -31 81 -40q17 -3 117 -8v-194q-83 2 -101 10q-35 17 -40 86h-96v-12
q0 -105 75 -139q44 -19 162 -21v-76h48v76q133 2 174 24q65 35 65 156q0 78 -35 115q-28 30 -88 40q-9 1 -116 9zM198 512q-11 -9 -11 -39q0 -33 14 -42q9 -6 43 -8v98q-16 0 -24 -1q-15 -3 -22 -8zM223 558q7 1 59 2v-177q-75 4 -91 11q-42 17 -42 79q0 78 74 85zM368 150
q39 -1 52.5 11.5t13.5 50.5q0 34 -18 44q-11 6 -48 7v-113zM362 112l-32 1v189q78 -3 96 -9q46 -17 46 -81q0 -58 -27 -80t-83 -20z" />
    <glyph glyph-name="percent" unicode="%" horiz-adv-x="799" 
d="M242 0l-122 -1l410 673h114zM215 29l373 607h-41l-367 -607h35zM314 469q0 -89 -32.5 -122.5t-121.5 -33.5q-100 0 -130 44q-22 34 -22 137q0 107 25 139q31 37 135 37q103 0 130 -53q16 -31 16 -148zM168 636q-88 0 -108 -28q-14 -20 -14 -114q0 -89 12 -111
q20 -32 102 -32q70 0 94 27q20 24 20 92q0 91 1 89q-3 40 -24 57q-24 20 -83 20zM123 468q0 -26 6.5 -33.5t32.5 -8.5q38 -3 38 43q0 -3 -2 48q-2 29 -7.5 35.5t-34.5 6.5q-36 0 -36 -35q0 -6 1.5 -25t1.5 -31zM156 592q43 0 57 -10q19 -14 19 -58v-25q1 -17 1 -25
q0 -39 -12 -57q-15 -24 -56 -24q-51 0 -63.5 13t-12.5 61q0 8 -1 27q-1 16 -1 25q0 36 12 52q16 21 57 21zM754 149q0 -89 -32.5 -122.5t-121.5 -33.5q-100 0 -130 44q-22 34 -22 137q0 107 25 139q31 37 135 37q103 0 130 -53q16 -31 16 -148zM608 316q-88 0 -108 -28
q-14 -20 -14 -114q0 -89 12 -111q20 -32 102 -32q73 0 94.5 22.5t21.5 96.5v88q-4 41 -25 58q-24 20 -83 20zM563 148q0 -26 6.5 -33.5t32.5 -8.5q38 -3 38 43q0 -3 -2 48q-2 29 -7.5 35.5t-34.5 6.5q-36 0 -36 -35q0 -6 1.5 -25t1.5 -31zM596 272q43 0 57 -10
q19 -14 19 -58v-25q1 -17 1 -25q0 -39 -12 -57q-15 -24 -56 -24q-51 0 -63.5 13t-12.5 61q0 8 -1 27q-1 16 -1 25q0 36 12 52q16 21 57 21z" />
    <glyph glyph-name="ampersand" unicode="&#x26;" horiz-adv-x="712" 
d="M603 365v-20q0 -124 -13 -174l90 -78l-95 -114l-71 61q-35 -37 -101 -47q-34 -6 -113 -6q-159 0 -213 28q-87 46 -87 201q0 151 102 181q-36 43 -36 111q0 112 71 152q50 27 166 27q106 0 154 -20q79 -33 90 -130q-1 -32 -2 -95l-168 -1v20q0 52 -5 60q-9 16 -57 16
q-41 0 -51 -6q-13 -7 -13 -37q0 -24 11 -39q3 -4 30 -27l146 -127q0 26 -1 64h166zM563 325h-85q0 -27 -1 -111q-79 67 -232 202q-34 31 -34 78q0 54 33 72q21 11 71 11q61 0 81 -20.5t21 -75.5h92q-1 106 -49 140q-39 29 -156 29q-104 0 -143 -24q-50 -30 -50 -119
q0 -55 18 -81q5 -6 61 -57q-90 -9 -117 -34q-33 -30 -33 -119q0 -130 64 -166q43 -24 193 -24q86 0 116 7q58 14 95 64l72 -61l44 53l-76 71q16 47 15 165zM182 222q0 -55 21 -69q17 -12 83 -12q74 0 97 12l-170 143q-18 -3 -24.5 -18t-6.5 -56zM151 292q17 42 75 46
l224 -189q-48 -34 -81 -41q-7 -1 -81 -4q-77 -4 -107 15q-39 25 -39 103q0 48 9 70z" />
    <glyph glyph-name="quotesingle" unicode="'" horiz-adv-x="219" 
d="M43 395l-23 277h151l-23 -277h-105zM77 431h37l19 204h-75z" />
    <glyph glyph-name="parenleft" unicode="(" horiz-adv-x="362" 
d="M297 -215q-34 -1 -53 -1q-83 0 -125 20q-54 26 -76 97q-19 63 -22 209q1 -19 1 219q0 244 68 309q50 47 179 47h28v-162q-38 5 -35 5q-60 0 -60 -171q0 -24 1 -59.5t1 -43.5q0 -28 2 -80.5t2 -80.5q0 -84 6.5 -110t32.5 -35q14 -4 50 -4v-159zM257 -180v85
q-47 4 -66.5 29t-20.5 73q-6 208 -6 260q0 119 9 209q9 78 84 86v85q-75 -3 -113 -24q-47 -26 -63 -92q-15 -62 -18 -201q-1 -10 -1 -208q0 -220 61 -269q39 -31 134 -33z" />
    <glyph glyph-name="parenright" unicode=")" horiz-adv-x="366" 
d="M19 -215q34 -1 53 -1q83 0 125 20q54 26 76 97q19 63 22 209q-1 -19 -1 219q0 244 -68 309q-50 47 -179 47h-28v-162q38 5 35 5q60 0 60 -171q0 -24 -1 -59.5t-1 -43.5q0 -28 -2 -80.5t-2 -80.5q0 -84 -6.5 -110t-32.5 -35q-14 -4 -50 -4v-159zM59 -180v85q47 4 66.5 29
t20.5 73q6 208 6 260q0 119 -9 209q-8 78 -84 86v85q75 -3 113 -24q47 -26 63 -92q15 -62 18 -201q1 -10 1 -208q0 -220 -61 -269q-39 -31 -134 -33z" />
    <glyph glyph-name="asterisk" unicode="*" horiz-adv-x="406" 
d="M269 482l60 -85l-78 -59l-62 90l-67 -89l-79 58l62 86l-101 38l33 93l100 -36v107h99v-107l103 37l31 -99zM318 574l-113 -40v119h-36v-119l-113 40l-12 -34l111 -41l-68 -95l29 -22l74 99l69 -98l27 20l-67 96l111 37z" />
    <glyph glyph-name="plus" unicode="+" horiz-adv-x="637" 
d="M210 252h-188v163h188v194h174v-194h189v-163h-189v-194h-174v194zM250 292v-194h94v194h189v83h-189v194h-94v-194h-188v-83h188z" />
    <glyph glyph-name="comma" unicode="," horiz-adv-x="242" 
d="M198 9q0 -80 -25 -119q-31 -50 -108 -50q-8 0 -44 2v99q3 0 11 -1h11q31 0 35 40h-48v175h168v-146zM158 9v106h-88v-95h49v-20q0 -82 -59 -89l1 -31h4q56 -1 76 34q17 27 17 95z" />
    <glyph glyph-name="hyphen" unicode="-" horiz-adv-x="329" 
d="M270 351v-169h-270v169h270zM230 311h-190v-89h190v89z" />
    <glyph glyph-name="hyphen" unicode="&#x2010;" horiz-adv-x="329" 
d="M270 351v-169h-270v169h270zM230 311h-190v-89h190v89z" />
    <glyph glyph-name="period" unicode="." horiz-adv-x="236" 
d="M172 0h-167v177h167v-177zM132 40v97h-87v-97h87z" />
    <glyph glyph-name="slash" unicode="/" horiz-adv-x="587" 
d="M64 -220h-144l499 907h144zM40 -180l455 827h-53l-454 -827h52z" />
    <glyph glyph-name="zero" unicode="0" horiz-adv-x="632" 
d="M563 271q0 -157 -65 -217q-61 -56 -216 -56q-141 0 -203 43q-56 38 -70 126q-8 48 -8 210q0 175 57.5 238t229.5 63q142 1 205 -50q54 -43 66 -141q4 -37 4 -216zM288 640q-129 2 -184 -42q-49 -38 -59 -128q-4 -35 -4 -206q0 -140 50 -186q47 -43 190 -43q134 0 190 48
q45 39 53 127q-1 -8 -1 197q0 139 -47 184t-188 49zM282 155q65 0 88 26q18 20 18 72q0 9 -1 31.5t-1 35.5q0 131 -11 164q-9 26 -44 32q-9 2 -64 2q-87 0 -87 -119q0 -200 9 -215q16 -29 93 -29zM269 556q98 0 125.5 -27t27.5 -123q0 -126 2 -158q-4 -65 -31 -95
q-33 -36 -107 -36q-102 0 -127 40q-18 27 -18 138q0 16 -1 50.5t-1 51.5q0 76 22 111q30 48 108 48z" />
    <glyph glyph-name="one" unicode="1" horiz-adv-x="505" 
d="M409 0h-182v479l-102 -100l-111 123l194 171h201v-673zM369 40v593h-146l-152 -134l56 -63l140 136v-532h102z" />
    <glyph glyph-name="two" unicode="2" horiz-adv-x="602" 
d="M535 0h-529v158q0 104 49 150q36 34 120 51q123 24 147 32.5t29 26.5q3 7 3 41q0 49 -24 59q-8 3 -66 3q-60 0 -72 -20q-7 -10 -7 -75v-20h-177v50q0 133 63 181q55 41 201 41q137 0 192 -39q70 -49 70 -185q0 -97 -40 -147q-32 -41 -104 -62q-75 -16 -149 -32
q-35 -8 -43 -14q-12 -11 -13 -43h350v-156zM495 40v76h-350v20q0 58 14 78q16 25 73 38q63 14 126 27q86 24 110 56q26 36 26 119q0 114 -53 152q-44 32 -169 32q-130 0 -173 -31q-51 -36 -51 -151v-10h97q1 68 23 91.5t96 23.5q72 0 94 -12q36 -19 36 -90
q0 -61 -18.5 -81.5t-78.5 -34.5q-55 -11 -109 -22q-73 -17 -100 -36q-42 -32 -42 -127v-118h449z" />
    <glyph glyph-name="three" unicode="3" horiz-adv-x="603" 
d="M478 346q69 -33 69 -147q0 -127 -81 -173q-56 -31 -186 -31q-135 0 -192 30q-86 45 -86 177q0 14 1 56h179q-1 -80 11 -93t85 -13q57 0 67 6q21 11 21 63q0 33 -15 42q-9 5 -48 7q9 0 -72 0v147h20q67 0 55 0q44 2 49 17q3 10 3 28q0 37 -12 50q-9 10 -35 10h-19
q-14 -1 -23 -1q-57 0 -68 -10t-11 -67v-20h-178v44q0 128 68 174q54 36 190 36q124 0 181 -27q88 -42 88 -161q0 -107 -61 -144zM271 377v-67q75 2 96 -7q39 -16 39 -82q0 -73 -33 -94q-23 -15 -95 -15q-75 0 -99 13q-39 21 -38 93h-99v-16q0 -107 65 -142q46 -25 173 -25
q120 0 166 26q61 35 61 138q0 68 -23 93t-90 31v39q62 9 83.5 36t21.5 92q0 93 -66 125q-47 23 -163 23q-77 0 -115 -9q-68 -16 -90 -65q-13 -28 -13 -96v-4h99q2 61 26 79t92 18q74 0 94 -10q35 -18 35 -89q0 -62 -37 -78q-22 -10 -90 -7z" />
    <glyph glyph-name="four" unicode="4" horiz-adv-x="602" 
d="M519 278h63v-147h-63v-131h-182v131h-336v185l268 357h250v-395zM479 238v395h-190l-248 -331v-131h336v-131h102v131h63v67h-63zM337 489l-160 -211h160v211zM377 562v-324h-280l245 324h35z" />
    <glyph glyph-name="five" unicode="5" horiz-adv-x="600" 
d="M179 452q34 23 122 23q131 0 181 -58q47 -53 47 -183q0 -146 -73 -198q-58 -41 -206 -41q-137 0 -190 42q-63 49 -65 187h179q5 -56 19 -66q9 -6 65 -6q66 0 78 11.5t12 76.5q0 59 -12 71.5t-70 12.5h-50q-35 -4 -39 -22l-3 -16h-165v387h492v-148h-322v-73zM461 565v68
h-412v-307h95q14 28 54 36q15 2 68 2q75 0 98.5 -24.5t23.5 -99.5q0 -81 -23.5 -104.5t-106.5 -23.5q-58 0 -77 8q-35 14 -43 64h-102q6 -91 59 -123q44 -26 155 -26q136 0 183 34q56 40 56 165q0 115 -38 158t-150 43q-53 0 -72 -5q-34 -9 -59 -42h-31v177h322z" />
    <glyph glyph-name="six" unicode="6" horiz-adv-x="603" 
d="M185 400q31 25 114 25q128 0 177 -34q65 -43 65 -171q0 -133 -65 -183q-55 -42 -189 -42q-181 0 -235 63q-49 56 -49 238v148q4 145 74 195q55 39 192 39q140 0 189 -29q73 -42 73 -181v-20h-172v20q0 39 -14 47q-9 6 -55 6q-70 0 -80 -5q-25 -12 -25 -75v-41zM398 488
h92q-4 101 -57 129q-38 21 -164 21q-121 0 -164 -28q-59 -40 -62 -167v-147q0 -117 14 -164q17 -57 68 -78q48 -19 162 -19q121 0 164 33q50 39 50 152q0 106 -47 138q-39 27 -155 27q-55 0 -73 -5q-28 -7 -42 -34h-39v95q0 82 42 106q22 12 103 14q49 2 72 -10
q32 -16 36 -63zM233 272q-27 -2 -38 -11.5t-11 -37.5q0 -52 13 -62.5t72 -10.5q62 0 74 7q17 9 17 55q0 33 -5 44q-8 14 -34 16h-45.5h-42.5zM230 312h44q71 0 92 -11q34 -19 34 -89t-37 -90q-22 -12 -94 -12t-96 19q-29 22 -29 94q0 84 86 89z" />
    <glyph glyph-name="seven" unicode="7" horiz-adv-x="559" 
d="M519 518l-240 -518h-200l240 509h-315v164h515v-155zM479 526v107h-435v-84h338l-240 -509h112z" />
    <glyph glyph-name="eight" unicode="8" horiz-adv-x="597" 
d="M70 347q-36 19 -50 51t-14 88q0 127 85 167q51 24 183 24q127 0 178 -25q82 -41 82 -167q0 -103 -64 -138q72 -35 72 -154q0 -129 -86 -171q-54 -27 -189 -27q-131 0 -186 28q-84 42 -84 169q0 119 73 155zM422 338l1 25q43 11 57 34.5t14 87.5q0 101 -61 134
q-44 23 -159 23q-123 0 -166 -22q-62 -32 -62 -134q0 -60 25 -92q18 -26 44 -29l-1 -27q-77 -15 -77 -146q0 -101 63 -134q44 -23 167 -23q127 0 171 22q64 33 64 136q0 136 -80 145zM187 473q0 -34 10 -44.5t41 -11.5q8 0 23 1h24q46 0 57.5 8t11.5 48q0 29 -8.5 39
t-35.5 11q3 0 -43 0q-59 0 -69.5 -8t-10.5 -43zM223 564h44q69 0 89 -9q38 -17 38 -81q0 -61 -29 -81q-22 -15 -80 -15q-78 0 -96 8q-42 17 -42 87q0 87 76 91zM221 269q-29 -2 -37 -17q-6 -10 -6 -41q0 -46 22 -54q11 -4 73 -4q60 0 74.5 7.5t14.5 52.5q0 33 -9.5 44
t-39.5 12q-54 2 -92 0zM218 309h48q75 0 95 -9q41 -18 41 -87t-36 -88q-22 -12 -93 -12q-74 0 -95 9q-40 19 -40 89q0 49 18 72t62 26z" />
    <glyph glyph-name="nine" unicode="9" horiz-adv-x="602" 
d="M361 270q-35 -22 -112 -22q-126 0 -175 32q-65 42 -65 167q0 144 66 192q54 39 200 39q174 0 227 -69q42 -57 42 -235q0 -171 -5 -207q-12 -90 -67 -128q-62 -44 -206 -44q-95 0 -142 13q-80 21 -106 86q-13 35 -15 132h180q1 -48 10 -61.5t36 -13.5q5 0 21 1h25
q65 0 77 13t10 77zM145 186h-101q3 -83 40 -115q33 -30 119 -35q21 -1 63 -1q115 0 159 20q66 32 76 132q3 36 3 187q0 166 -34 210q-41 54 -195 54q-134 0 -176 -31q-50 -37 -50 -160q0 -103 46 -135q38 -26 152 -26q57 0 87 9q14 4 68 32v-85q0 -80 -22.5 -105t-104.5 -25
q-68 0 -84 6q-40 13 -46 68zM228 521q-26 -3 -33 -18q-6 -10 -6 -43q0 -38 10.5 -49t85.5 -11q50 0 62 8q16 9 16 47q0 36 -6 47q-7 17 -35 19q-12 1 -49 1q-33 0 -45 -1zM224 560q14 2 49 2q74 0 96 -13q34 -21 34 -94q0 -61 -35 -82q-24 -13 -83 -13q-76 0 -97 10
q-39 18 -39 90q0 48 15 70q17 26 60 30z" />
    <glyph glyph-name="colon" unicode=":" horiz-adv-x="260" 
d="M194 0h-161v170h161v-170zM154 40v90h-81v-90h81zM194 313h-161v170h161v-170zM154 353v90h-81v-90h81z" />
    <glyph glyph-name="semicolon" unicode=";" horiz-adv-x="260" 
d="M191 314h-161v170h161v-170zM151 354v90h-81v-90h81zM208 9q0 -80 -25 -119q-31 -50 -108 -50q-8 0 -44 2v99q3 0 11 -1h11q31 0 35 40h-48v175h168v-146zM168 9v106h-88v-95h49v-20q0 -82 -59 -89l1 -31h4q56 -1 76 34q17 27 17 95z" />
    <glyph glyph-name="less" unicode="&#x3c;" horiz-adv-x="475" 
d="M413 443l-191 -123l191 -124v-182l-401 236v140l401 236v-183zM373 468v92l-321 -194v-91l321 -195v91l-239 149z" />
    <glyph glyph-name="equal" unicode="=" horiz-adv-x="583" 
d="M514 499v-156h-506v156h506zM474 459h-426v-76h426v76zM514 291v-157h-506v157h506zM474 251h-426v-77h426v77z" />
    <glyph glyph-name="greater" unicode="&#x3e;" horiz-adv-x="475" 
d="M12 197l191 124l-191 123v182l401 -236v-140l-401 -236v183zM52 172v-92l321 194v92l-321 194v-91l239 -148z" />
    <glyph glyph-name="question" unicode="?" horiz-adv-x="528" 
d="M289 0h-161v170h161v-170zM249 40v90h-81v-90h81zM127 213q-2 108 18 140q18 28 110 71q47 21 47 59q0 37 -10.5 45.5t-51.5 8.5q-45 0 -59 -8.5t-14 -33.5l4 -50h-167q2 107 13 136q22 64 105 86q45 11 126 11q114 0 162 -37q56 -44 56 -158q0 -85 -35 -124
q-23 -26 -106 -65q-27 -12 -31 -31q-1 -4 0 -50h-167zM147 253h107q3 52 48 75q41 21 81 41q43 35 43 114q0 94 -41 126q-36 29 -137 29q-165 0 -193 -68q-9 -22 -11 -85h85q0 54 25 73t86 19q55 0 76 -17q26 -20 26 -77q0 -47 -30 -72q-16 -13 -65 -33q-45 -19 -62 -39
q-20 -23 -18 -105z" />
    <glyph glyph-name="at" unicode="@" horiz-adv-x="791" 
d="M381 411q-45 0 -78.5 -49t-33.5 -119q0 -74 60 -74q56 0 84 64q9 21 32 116q-11 62 -64 62zM381 429q67 0 80 -81l-22 -94q-11 -46 -41.5 -74.5t-68.5 -28.5q-76 0 -76 92q0 76 37.5 131t90.5 55zM427 151q-39 -51 -116 -51q-130 0 -130 145q0 99 56.5 166.5t135.5 67.5
q65 0 96 -48l18 34h75l-60 -248q-3 -12 -3 -17q0 -25 29 -25q38 0 78 43q55 62 55 153q0 97 -70 159t-186 62q-139 0 -231 -89.5t-92 -229.5q0 -121 79 -194.5t213 -73.5q131 0 242 80l36 -54q-127 -99 -275 -99q-153 0 -252 79q-129 102 -129 259q0 141 81 244
q121 153 330 153q133 0 226 -70q108 -81 108 -225q0 -111 -67 -192t-163 -81q-72 0 -84 52zM311 118q48 0 75 19q23 16 51 61l1 -22q2 -58 73 -58q90 0 152 75t62 179q0 136 -104 212q-88 65 -214 65q-197 0 -311 -144q-78 -99 -78 -231q0 -156 116 -248q95 -76 243 -76
q139 0 252 85l-17 26q-107 -74 -238 -74q-139 0 -223.5 78t-84.5 208q0 147 96.5 242t242.5 95q121 0 196.5 -66.5t75.5 -172.5q0 -99 -60 -166q-44 -48 -89 -48t-45 43q0 8 3 22l55 225h-45l-26 -52q-19 37 -39.5 51.5t-57.5 14.5q-72 0 -124 -62t-52 -154q0 -127 114 -127
z" />
    <glyph glyph-name="A" unicode="A" horiz-adv-x="712" 
d="M233 115l-35 -115h-192l212 671h248l215 -671h-189l-37 115h-222zM205 153h278l36 -115h110l-193 597h-190l-188 -597h112zM344 478l-67 -218h135zM359 558l105 -336h-238l103 336h30z" />
    <glyph glyph-name="B" unicode="B" horiz-adv-x="631" 
d="M505 346q69 -32 69 -153q0 -111 -54 -155q-47 -38 -158 -38h-359v673h350q107 0 154 -36q54 -43 54 -152q0 -103 -56 -139zM43 633v-593h319q97 0 133 29q39 33 39 124q0 59 -9 81q-14 36 -62 47q-13 3 -13 24q0 16 10 19q35 12 49 42q12 26 12 79q0 89 -39 120
q-35 28 -129 28h-310zM303 414q48 0 60.5 7.5t12.5 45.5q0 31 -8.5 38.5t-43.5 7.5h-134v-99h113zM303 374h-153v179h174q48 0 68 -16q24 -19 24 -70q0 -61 -33 -81q-22 -12 -80 -12zM297 161q57 0 71 6q21 8 21 45q-1 41 -16 51q-12 7 -59 7h-124v-109h107zM297 121h-147
v189h164q60 0 83 -16q31 -20 32 -81q1 -62 -41 -81q-24 -11 -91 -11z" />
    <glyph glyph-name="C" unicode="C" horiz-adv-x="654" 
d="M584 272q1 -28 1 -51q0 -145 -63 -187q-50 -32 -227 -36q-173 -4 -233 56q-55 55 -60 219q-1 39 -1 126q0 169 76 229q61 48 221 50q175 3 226 -42q55 -49 55 -220l-180 -1q-2 71 -14 84.5t-82 13.5q-63 0 -86.5 -15.5t-27.5 -51.5v-85q0 -125 9 -151q16 -49 101 -49
q68 -1 86 11t18 58q0 12 -1 43zM547 233h-104q-1 -72 -36 -94q-29 -19 -108 -18q-91 0 -125 47q-24 34 -24 111q0 13 1 41v41q0 86 3 105q7 45 37 65q34 22 112 22q73 0 98 -15q31 -19 36 -83l100 -2q4 125 -55 161q-44 26 -184 24q-147 -2 -197 -42q-60 -49 -60 -197
q0 -196 13 -244q22 -78 86 -104q48 -18 155 -16q120 3 151 11q83 22 97 103q4 29 4 84z" />
    <glyph glyph-name="D" unicode="D" horiz-adv-x="677" 
d="M3 673h343q140 0 201 -65q57 -62 59 -204q2 -112 2 -104q0 -148 -43 -212q-59 -88 -222 -88h-340v673zM43 633v-593h300q141 0 191 76q35 54 35 180v52q-1 35 -1 52q0 126 -49.5 179.5t-172.5 53.5h-303zM324 165q58 0 80 37q16 26 16 82q0 10 -1 30v29t1 28v29
q0 51 -15 74q-21 32 -77 32h-138v-341h134zM324 125h-174v421h178q93 0 119 -65q12 -31 12 -138q0 -113 -13 -147q-26 -71 -122 -71z" />
    <glyph glyph-name="E" unicode="E" horiz-adv-x="556" 
d="M186 414h282v-143h-282v-110h304v-161h-491v673h487v-160h-300v-99zM146 374v179h300v80h-407v-593h411v81h-304v190h282v63h-282z" />
    <glyph glyph-name="F" unicode="F" horiz-adv-x="548" 
d="M190 406h269v-160h-269v-246h-187v673h475v-160h-288v-107zM150 366v187h288v80h-395v-593h107v246h269v80h-269z" />
    <glyph glyph-name="G" unicode="G" horiz-adv-x="680" 
d="M608 387q1 -27 1 -155q0 -159 -86 -207q-56 -30 -220 -30q-161 0 -224 47q-75 57 -80 221q0 -3 0 101q0 195 75 259q65 55 251 55q158 0 210 -35q69 -47 72 -203h-186q-4 49 -16 62.5t-61 13.5q-99 0 -119 -11q-36 -20 -36 -108q0 -188 13 -211q15 -29 105 -29
q71 0 90 10q27 15 26 71v6h-139v143h324zM568 347h-244v-63h137q2 -36 2 -46q0 -81 -47 -106q-29 -15 -109 -15q-97 0 -126 30.5t-32 134.5v115t51 140q33 19 144 19q50 0 74 -14q31 -17 39 -62h109q-6 107 -65 137q-42 21 -176 21q-169 0 -222 -44q-64 -53 -64 -230
q0 -142 10 -191q15 -75 68 -105q57 -33 186 -33q155 0 200 25q66 37 66 172q0 96 -1 115z" />
    <glyph glyph-name="H" unicode="H" horiz-adv-x="664" 
d="M593 0h-187v260h-216v-260h-187v673h187v-248h216v248h187v-673zM553 40v593h-107v-248h-296v248h-107v-593h107v260h296v-260h107z" />
    <glyph glyph-name="I" unicode="I" horiz-adv-x="263" 
d="M190 0h-187v673h187v-673zM150 40v593h-107v-593h107z" />
    <glyph glyph-name="J" unicode="J" horiz-adv-x="537" 
d="M466 214q0 -127 -49 -173t-176 -46q-148 0 -195.5 45t-47.5 192q0 22 1 65h177q0 -10 -1.5 -32.5t-1.5 -33.5q0 -72 57 -71q49 1 49 78v435h187v-459zM426 214v419h-107v-395q0 -58 -14 -83q-20 -33 -75 -35q-70 -2 -87 40q-4 12 -8 97h-97q-1 -35 -1 -57q0 -99 36 -131
q40 -34 168 -34q111 0 148 35t37 144z" />
    <glyph glyph-name="K" unicode="K" horiz-adv-x="672" 
d="M190 425h24l186 248h228l-254 -329l278 -344h-233l-204 260h-25v-260h-187v673h187v-248zM150 385v248h-107v-593h107v260h84l204 -260h130l-245 303l224 290h-127l-186 -248h-84z" />
    <glyph glyph-name="L" unicode="L" horiz-adv-x="538" 
d="M190 167h280v-167h-467v673h187v-506zM150 127v506h-107v-593h387v87h-280z" />
    <glyph glyph-name="M" unicode="M" horiz-adv-x="876" 
d="M404 283q27 94 132 390h270v-673h-184v286q0 47 2 107q-44 -131 -140 -393l-163 1q-29 78 -135 389q3 -61 3 -113l-1 -277h-185v673h265q48 -129 136 -390zM766 40v593h-202q-86 -244 -138 -418l-4 -14h-35q-48 161 -147 432h-197v-593h105v503l28 4q61 -192 179 -507
h101q118 319 176 508h29l1 -508h104z" />
    <glyph glyph-name="N" unicode="N" horiz-adv-x="722" 
d="M468 249q1 -10 1 96v328h185v-673h-280q-65 142 -189 428q2 -57 2 -101v-327h-184v673h279q63 -140 186 -424zM614 40v593h-105v-288v-217l-34 1q-64 160 -219 504h-213v-593h104v287q0 190 -2 221h35q67 -173 220 -508h214z" />
    <glyph glyph-name="O" unicode="O" horiz-adv-x="683" 
d="M625 337q0 -201 -53 -265q-62 -77 -262 -77q-178 0 -244 75q-61 71 -61 254q0 149 15 208q21 80 89.5 113t220.5 33q189 0 249 -83q46 -65 46 -258zM585 337q0 181 -39 234q-48 67 -216 67q-139 0 -197 -25t-76 -94q-12 -52 -12 -195q0 -168 50 -226q55 -63 215 -63
q126 0 183 25.5t76 92.5q16 54 16 184zM197 318q0 -85 1 -97q5 -35 30 -47.5t93 -12.5q87 0 108 49q10 25 10 131q0 108 -16 137q-22 39 -107 39q-74 0 -101 -31q-20 -23 -20 -81q0 -12 1 -41t1 -46zM315 553q115 0 143 -45q19 -31 19 -161q0 -135 -17 -169
q-28 -57 -139 -57q-115 0 -143 40q-21 31 -21 157q0 110 1 125q6 56 37 81q36 29 120 29z" />
    <glyph glyph-name="P" unicode="P" horiz-adv-x="631" 
d="M3 673h284q85 0 104 -2q174 -15 174 -240q0 -159 -64 -208q-52 -40 -210 -40h-101v-183h-187v673zM43 633v-593h107v183h141q145 0 186 32q48 38 48 176q0 134 -65 175q-41 26 -154 26zM291 349q60 0 72.5 11t12.5 67q0 57 -11 71.5t-61 14.5h-114v-164h101zM291 309
h-141v244h154q71 0 94 -32q18 -25 18 -94q0 -75 -25.5 -96.5t-99.5 -21.5z" />
    <glyph glyph-name="Q" unicode="Q" horiz-adv-x="701" 
d="M605 -3l-67 47q-44 -33 -111 -43q-40 -6 -120 -6q-177 0 -238.5 65.5t-61.5 241.5q0 152 13 211q20 87 84 125q70 40 219 40q137 0 203 -36q62 -35 83 -114q15 -61 15 -197q0 -119 -10 -167l73 -50zM595 53l36 51l-62 43q15 61 15 184q0 130 -12 182q-18 69 -71 97
q-56 28 -178 28q-134 0 -191.5 -30.5t-73.5 -106.5q-11 -52 -11 -199q0 -161 50.5 -214t209.5 -53q87 0 121 6q60 12 108 53zM338 357l97 -67q1 54 1 91q0 51 -4 71q-8 46 -37 56q-17 5 -75 5q-69 0 -86 -8q-31 -15 -37 -77q-1 -7 -1 -113q0 -86 2 -96q5 -35 31.5 -47
t100.5 -12q26 0 38 3l-111 76zM348 301l-35 -51l140 -97q-50 -22 -59 -25q-26 -8 -64 -8q-87 0 -123 18t-45 62q-6 26 -6 115v31q-1 23 -1 36q0 133 61 160q26 11 104 11q99 0 127.5 -33t28.5 -139q0 -74 -4 -165z" />
    <glyph glyph-name="R" unicode="R" horiz-adv-x="649" 
d="M508 276q61 -13 61 -129v-147h-189v119q0 38 -14 54t-48 16h-128v-189h-187v673h336q122 0 174 -40q62 -48 62 -170q0 -84 -7 -112q-13 -51 -60 -75zM43 633v-593h107v189h168q102 0 102 -110v-79h109v107q0 112 -81 112l-3 26q58 6 76 52q14 34 14 126q0 100 -50 138
q-43 32 -146 32h-296zM322 353q44 0 55 17q9 13 9 68q0 47 -10.5 58.5t-53.5 11.5h-132v-155h132zM322 313h-172v235h172q62 0 83 -24.5t21 -85.5q0 -65 -15 -89q-21 -36 -89 -36z" />
    <glyph glyph-name="S" unicode="S" horiz-adv-x="634" 
d="M371 448v14q0 45 -13.5 54.5t-68.5 9.5q-57 0 -67 -3q-34 -9 -34 -50q0 -31 19 -43q14 -9 49 -12q78 -3 156 -7q78 -8 113 -44q43 -45 43 -151q0 -144 -76 -189q-53 -32 -200 -32q-116 0 -160 10q-92 22 -119 97q-12 36 -13 139h180v-24q-1 -45 11 -58t52 -13q10 0 30 1
h34q45 0 57 8q20 12 20 55q0 34 -23 44q-10 4 -51 8l-154 10q-77 11 -112 50q-42 47 -42 151q0 137 85 179q53 26 199 26q155 0 203 -34q64 -45 61 -196h-179zM410 482h101q2 108 -67 139q-39 17 -158 17q-131 0 -171 -17q-73 -32 -73 -148q0 -111 56 -144q33 -18 160 -26
l74 -4q43 -4 64 -20q28 -22 28 -69q0 -62 -35 -85q-26 -17 -85 -17q-13 0 -33 1h-28q-96 0 -96 93l-107 1q3 -98 41 -131.5t139 -36.5h72q137 0 180 26q56 35 56 155q0 95 -42 127q-35 28 -142 34l-88 2q-51 3 -76 20q-32 22 -32 74q0 63 45 82q26 11 96 11q62 0 85 -13
q32 -17 36 -71z" />
    <glyph glyph-name="T" unicode="T" horiz-adv-x="581" 
d="M354 0h-187v507h-171v166h537v-166h-179v-507zM314 40v507h179v86h-457v-86h171v-507h107z" />
    <glyph glyph-name="U" unicode="U" horiz-adv-x="652" 
d="M583 673v-430q0 -151 -69 -204q-57 -44 -210 -44q-117 0 -169 14q-95 27 -120 110q-11 36 -11 113v441h186v-441q0 -56 30 -70q15 -7 78 -7t80.5 14t17.5 70v434h187zM543 633h-107v-394q0 -78 -35 -102q-26 -17 -103 -17q-80 0 -105 13q-43 22 -43 99v401h-106v-401
q0 -109 37.5 -150t145.5 -46q22 -1 77 -1q140 0 186 36q53 41 53 172v390z" />
    <glyph glyph-name="V" unicode="V" horiz-adv-x="704" 
d="M331 213q32 115 140 460h193l-206 -673h-255l-202 673h190q49 -153 140 -460zM610 633h-110q-53 -169 -152 -509h-35q-42 161 -151 509h-107l178 -593h195z" />
    <glyph glyph-name="W" unicode="W" horiz-adv-x="1041" 
d="M716 228q25 123 103 445h188l-164 -673h-243q-32 126 -92 378q-20 -84 -98 -378h-240l-160 673h188q35 -148 100 -447q29 121 117 447h189q39 -148 112 -445zM811 40l145 593h-105q-42 -172 -61 -254q-32 -141 -54 -256h-37q-34 154 -126 510h-128q-45 -169 -130 -510
h-39q-30 170 -110 510h-105l140 -593h178q39 145 110 438h38q29 -142 104 -438h180z" />
    <glyph glyph-name="X" unicode="X" horiz-adv-x="726" 
d="M352 452q37 73 118 219h217l-196 -327l207 -346h-215q-88 160 -130 242q-48 -92 -131 -242h-220l211 346l-197 327h218q40 -72 118 -219zM444 344l177 290h-128q-45 -81 -130 -245h-19q-7 13 -135 244h-123l174 -289l-187 -306h125q85 152 142 264h27q51 -103 139 -264
h122z" />
    <glyph glyph-name="Y" unicode="Y" horiz-adv-x="705" 
d="M338 437q45 90 124 236h216l-248 -428v-245h-186v245l-240 428h212q77 -145 122 -236zM390 256l218 377h-122q-79 -147 -134 -256h-29q-54 111 -131 256h-120l212 -377v-216h106v216z" />
    <glyph glyph-name="Z" unicode="Z" horiz-adv-x="623" 
d="M303 508h-285v163h532v-150l-306 -360h308v-163h-552v151zM510 536v95h-452v-83h305v-31l-323 -382v-97h472v83h-327v32z" />
    <glyph glyph-name="bracketleft" unicode="[" horiz-adv-x="304" 
d="M146 -19h104v-141h-251v832h247v-140h-100v-551zM106 572h100v60h-167v-752h171v61h-104v631z" />
    <glyph glyph-name="backslash" unicode="\" horiz-adv-x="587" 
d="M493 -220h143l-498 907h-144zM516 -180l-454 827h52l455 -827h-53z" />
    <glyph glyph-name="bracketright" unicode="]" horiz-adv-x="304" 
d="M103 -19h-104v-141h251v832h-247v-140h100v-551zM143 572h-100v60h167v-752h-171v61h104v631z" />
    <glyph glyph-name="asciicircum" unicode="^" horiz-adv-x="500" 
d="M420 769l-34 -67l-137 58l-134 -59l-35 68l168 108zM387 760l-138 88l-136 -88l14 -26l121 53l126 -53z" />
    <glyph glyph-name="underscore" unicode="_" horiz-adv-x="607" 
d="M-7 -71h623v-67h-623v67z" />
    <glyph glyph-name="grave" unicode="`" horiz-adv-x="357" 
d="M241 730l-165 78l36 47l141 -111zM248 699l40 49l-181 142l-69 -91z" />
    <glyph glyph-name="a" unicode="a" horiz-adv-x="532" 
d="M467 2l-161 -4l-3 24q-32 -25 -118 -25q-90 0 -130 31q-48 37 -48 128q0 87 52 121q41 26 131 26q76 0 111 -12v28q0 34 -14 44q-11 7 -46 7q-39 0 -43.5 -4.5t-4.5 -42.5h-169v21q0 101 65 130q37 16 152 16q112 0 160 -28q66 -40 66 -152v-308zM427 310q0 89 -47 118
q-37 22 -139 22q-9 0 -29 1h-30q-57 0 -83 -16q-37 -22 -34 -80h90q6 34 31 46q18 9 55 9q51 0 72 -18q25 -21 25 -73v-74q-49 18 -72 21q-17 2 -76 2q-72 0 -104 -21q-39 -26 -39 -91q0 -71 35 -99q32 -27 108 -27q83 0 116 24l38 17l-2 -29h85v268zM242 85q-52 0 -73 10
q-31 15 -31 64q0 43 29 59q21 12 67 12q50 0 71 -10q33 -16 33 -61q0 -47 -31 -64q-20 -10 -65 -10zM234 195q-33 0 -42 -3q-19 -7 -19 -33q0 -30 22 -37q8 -2 47 -2q37 0 49 7t12 32q0 27 -24 33q-9 3 -45 3z" />
    <glyph glyph-name="b" unicode="b" horiz-adv-x="535" 
d="M165 13l1 -12l-162 1v673h167l1 -206q31 20 119 20q118 0 157 -71q26 -47 26 -168q0 -128 -27 -177q-40 -77 -165 -77q-63 0 -57 0q-33 2 -60 17zM44 635v-593h96l-3 29q45 -27 70 -34t75 -7q99 0 130 59q22 41 22 161q0 112 -22 149q-28 51 -123 51q-82 0 -114 -16
l-44 -28v229h-87zM172 258q0 -77 6 -93q10 -31 57 -31q54 0 66 29q5 12 5 76q0 71 -6 86q-11 26 -59 26q-46 0 -60 -26q-9 -18 -9 -67zM132 258q0 63 18 93q25 40 91 40q74 0 94 -47q11 -24 11 -105q0 -78 -14 -103q-22 -42 -97 -42q-74 0 -93 53q-10 26 -10 111z" />
    <glyph glyph-name="c" unicode="c" horiz-adv-x="515" 
d="M459 209q-2 -127 -46.5 -171.5t-171.5 -44.5q-142 0 -190 56q-45 52 -45 200q0 134 42 186q48 59 183 59q126 0 170 -36q50 -42 52 -168h-161q-1 48 -4 55q-8 15 -52 15q-39 0 -54 -18q-11 -14 -11 -45v-24q1 -17 1 -27q0 -7 -1 -23v-22q0 -36 11 -52q16 -21 56 -21
q45 0 55 25q4 10 3 56h163zM420 171h-86q-3 -45 -23.5 -62.5t-74.5 -17.5q-72 0 -91 40q-11 24 -11 115q0 84 10 107q19 43 92 43q47 0 66 -13q23 -15 27 -55h85q-4 82 -47 107q-35 21 -136 21q-116 0 -154 -45q-33 -41 -33 -162q0 -133 34 -174q37 -44 163 -44
q100 0 139.5 28.5t39.5 111.5z" />
    <glyph glyph-name="d" unicode="d" horiz-adv-x="535" 
d="M303 481l1 194h166v-673l-159 -2v27q-35 -31 -114 -31q-124 0 -164 72q-28 47 -28 174t26 178q40 80 162 80q72 0 110 -19zM430 42v593h-86l-1 -215q-37 15 -74 31q-28 9 -76 9q-96 0 -127 -59q-21 -41 -21 -159q0 -117 22 -155q30 -51 130 -51q56 0 81 10q5 3 71 42v-46
h81zM172 245q0 -66 4 -77q10 -36 59 -36q54 0 67 32q6 15 6 78t-7 78q-13 31 -68 31q-49 0 -59 -31q-2 -8 -2 -75zM233 391q76 0 98 -42q12 -24 12 -104q0 -82 -12 -107q-20 -46 -96 -46q-71 0 -92 43q-12 24 -12 98q0 86 10 110q20 48 92 48z" />
    <glyph glyph-name="e" unicode="e" horiz-adv-x="530" 
d="M171 211q-2 -12 -2 -21q0 -63 69 -63q36 0 45 4q15 7 15 36v10h164q4 -118 -55 -154q-42 -26 -166 -26q-144 0 -193 60q-43 52 -43 198q0 135 46 185q49 54 185 54q135 0 187 -55q43 -47 43 -155q0 -30 -3 -74zM423 147h-86q-6 -38 -36 -51q-19 -9 -63 -9
q-116 0 -108 136l1 23h292q2 125 -29 164q-36 44 -158 44q-118 0 -154.5 -39.5t-36.5 -159.5q0 -132 34 -172q37 -46 162 -46q91 0 124 13q55 23 58 97zM234 362q-42 0 -53.5 -11.5t-13.5 -37.5l131 -3q6 52 -64 52zM344 342q3 -12 0 -31q-3 -23 -3 -32l-214 -1q-1 16 -1 28
q0 51 23 74t86 23q98 0 109 -61z" />
    <glyph glyph-name="f" unicode="f" horiz-adv-x="368" 
d="M63 353h-59v133h59q2 114 42 154t164 40q69 0 56 1l-1 -131h-50q-34 0 -42 -17q-3 -9 -3 -47h93v-133h-92v-351h-167v351zM103 393v-351h87v351h93v53h-93v20q0 68 7 86q16 38 77 38q8 0 15 -1v53q-9 0 -26 1q-101 2 -130.5 -32t-29.5 -145v-20h-60v-53h60z" />
    <glyph glyph-name="g" unicode="g" horiz-adv-x="544" 
d="M309 464l-4 20h169v-462q0 -130 -60 -178q-51 -41 -183 -41q-174 0 -201 91q-10 32 -10 36q-3 15 1 45h161q0 -31 12 -38q8 -4 44 -4q37 0 49 9q16 11 20 48l4 37q-32 -27 -114 -27q-120 0 -162 72q-30 53 -30 183q0 118 34 170q42 64 154 64q86 0 116 -25zM434 22v422
l-89 -1v-30l-40 15q-37 21 -112 21q-93 0 -124 -53q-24 -39 -24 -141q0 -113 20 -151q30 -59 132 -64q17 -1 39 -3q17 -2 24 -2q15 0 85 36l2 -81q2 -94 -116 -94q-42 0 -57 7q-19 8 -22 37l-90 -2q2 -35 8 -46q8 -16 39 -31q38 -18 122 -18q115 0 155 30q48 36 48 149z
M173 244q0 -62 5 -75q11 -31 58 -31q52 0 64 27q5 12 5 74q0 70 -5 82q-11 30 -64 30q-50 0 -60 -29q-3 -8 -3 -78zM236 391q74 0 96 -42q13 -26 13 -110q0 -76 -14 -102q-22 -39 -95 -39q-69 0 -89 42q-14 27 -14 104q0 81 12 106q20 41 91 41z" />
    <glyph glyph-name="h" unicode="h" horiz-adv-x="521" 
d="M457 -3h-167v287q0 36 -6 46q-9 15 -42 15q-42 0 -57 -17.5t-15 -58.5v-272h-166v673h166l1 -214q43 35 117 35q169 0 169 -165v-329zM130 37l-1 255q-3 47 41 73q32 19 64 19q96 0 96 -100v-247h87v289q0 126 -136 126q-81 0 -152 -61l1 239h-86v-593h86z" />
    <glyph glyph-name="i" unicode="i" horiz-adv-x="241" 
d="M173 533h-167v140h167v-140zM133 573v60h-87v-60h87zM173 0h-167v483h167v-483zM133 40v403h-87v-403h87z" />
    <glyph glyph-name="j" unicode="j" horiz-adv-x="279" 
d="M210 537h-164v138h164v-138zM172 575v62h-88v-62h88zM210 14q0 -82 -34.5 -118.5t-116.5 -36.5q-21 0 -59 9v124q28 -3 31 -3q14 0 14 37v459h165v-471zM38 -49v-52q11 -2 21 -2q66 0 89.5 25.5t23.5 91.5v433h-89v-421q0 -69 -45 -75z" />
    <glyph glyph-name="k" unicode="k" horiz-adv-x="515" 
d="M170 183v-183h-165v671h165v-360h8l-17 -9l109 179h188l-152 -229l184 -252h-199zM132 273v360h-89v-595h89v188h55l125 -188h103l-155 213l128 192h-97l-103 -170h-56z" />
    <glyph glyph-name="l" unicode="l" horiz-adv-x="241" 
d="M172 -2h-165v671h165v-671zM134 36v595h-89v-595h89z" />
    <glyph glyph-name="m" unicode="m" horiz-adv-x="775" 
d="M405 435q36 52 141 52q91 0 131 -43q37 -41 37 -129v-314h-164v279q0 40 -5 50q-8 18 -42 18q-40 0 -52 -14.5t-12 -53.5v-279h-165v287q0 37 -4 45q-7 15 -39 15q-39 0 -52.5 -15.5t-13.5 -53.5v-278h-164v481h165l-1 -28q40 33 110 33q98 0 130 -52zM275 449
q-11 2 -21 2q-34 0 -65 -16q-9 -5 -61 -39l-2 48h-87v-405h88v240q0 107 104 107q51 0 68 -26q13 -20 13 -72v-249h89v241q0 55 22.5 80.5t79.5 25.5q53 0 71 -30q14 -22 14 -76v-241h88v276q0 73 -26 102q-29 32 -104 32q-104 0 -148 -62q-16 50 -123 62z" />
    <glyph glyph-name="n" unicode="n" horiz-adv-x="521" 
d="M155 457q30 33 122 34q174 3 174 -160v-334h-165v287q0 41 -4 51q-8 19 -43 19q-73 0 -73 -69v-288h-165v489l154 2v-31zM124 450l-85 -2v-413h89v250q0 107 111 107q54 0 72 -30q13 -22 13 -78v-249h89l-1 287q0 69 -31 100t-104 31q-57 0 -89 -11q-36 -12 -60 -45l-3 9
z" />
    <glyph glyph-name="o" unicode="o" horiz-adv-x="528" 
d="M476 254q0 -152 -39 -202q-46 -60 -193 -60t-194 53q-43 50 -43 200q0 148 48.5 198t192.5 50q130 0 179 -50.5t49 -188.5zM248 455q-128 0 -165.5 -39t-37.5 -171q0 -134 32 -173q37 -42 167 -42q129 0 165 48q29 39 29 176q0 121 -39 161t-151 40zM173 244q0 -75 3 -86
q11 -32 65 -32q55 0 66 36q3 11 3 88q0 66 -7 82q-12 27 -63 27q-46 1 -58 -21q-9 -18 -9 -94zM175 389q23 8 65 8q69 0 91 -38q17 -29 17 -109q0 -88 -11 -114q-20 -48 -96 -48q-75 0 -95 45q-11 25 -11 111q0 63 2 81q8 52 38 64z" />
    <glyph glyph-name="p" unicode="p" horiz-adv-x="541" 
d="M167 31l2 -215h-164l1 669l158 1v-27q34 33 128 33q114 0 155 -67q31 -50 31 -170q0 -131 -30 -183q-40 -71 -159 -71q-89 0 -122 30zM131 449h-88q5 -273 0 -595h90l1 235q72 -50 155 -50q100 0 131 60q20 40 20 156q0 105 -21 143q-31 56 -127 56q-75 0 -96 -8.5
t-65 -61.5v65zM174 251q0 -68 6 -83q13 -31 65 -31q49 0 61 28q6 15 6 76q0 68 -7 86q-13 32 -63 31t-61 -29q-7 -15 -7 -78zM242 396q73 0 94 -43q11 -24 14 -112q3 -73 -14 -103q-23 -39 -91 -39q-72 0 -94 46q-13 28 -13 108q0 77 14 104q22 39 90 39z" />
    <glyph glyph-name="q" unicode="q" horiz-adv-x="538" 
d="M298 468l1 16h164v-671h-165v208q-47 -23 -114 -23q-123 0 -162 77q-26 51 -26 183q0 116 31 165q41 66 155 66q36 0 116 -21zM425 -149v595l-92 2v-38q-78 41 -151 41q-96 0 -127 -55q-21 -37 -21 -138q0 -118 17 -155q29 -67 133 -67q47 -1 75 6q23 5 68 24l8 4l1 -219
h89zM162 255q0 -74 4 -85q11 -36 64 -36q46 0 59 25q8 17 8 71q0 76 -4 88q-11 36 -64 36q-49 0 -61 -25q-6 -13 -6 -74zM229 392q73 0 94 -47q12 -27 12 -115q0 -69 -17 -97q-23 -37 -88 -37q-74 0 -94 45q-12 26 -12 114q0 71 16 99q22 38 89 38z" />
    <glyph glyph-name="r" unicode="r" horiz-adv-x="449" 
d="M165 459q42 32 98 32q91 0 118 -68q15 -37 15 -140v-18h-154q1 32 1 37q0 31 -2 37q-5 15 -26 15q-31 0 -40 -24q-6 -13 -6 -49v-279h-164v482l156 2q1 -9 4 -27zM129 446h-86v-406h88v241q0 111 84 111q41 0 56 -27q10 -19 10 -63h77q0 77 -10 102q-19 48 -86 48
q-42 0 -71 -12q-30 -15 -61 -30z" />
    <glyph glyph-name="s" unicode="s" horiz-adv-x="512" 
d="M288 325q-7 36 -12 39t-51 3h-40q-18 -4 -18 -26q0 -30 77 -33q63 -2 126 -5q92 -16 92 -139q0 -102 -73 -140q-52 -26 -162 -26q-115 0 -161 25q-66 35 -63 138l1 10h164q0 -6 1.5 -12t1.5 -11q0 -23 21 -27q3 -1 42 -1q37 0 43 2q23 5 23 27q0 24 -10 31.5t-33 7.5
q-137 2 -173 15q-78 27 -78 132q0 102 69 136q46 23 156 23q105 0 149 -23q62 -33 62 -127v-20zM133 136h-91q3 -71 62 -91q29 -9 123 -9q95 0 134 17q63 28 63 111q0 74 -49 96q-26 11 -116 15q-76 4 -84 6q-46 12 -46 60q0 43 29 56q18 8 67 8q46 0 61 -5q23 -9 32 -40h87
q-3 63 -62 85q-36 14 -112 14q-93 0 -129 -16q-58 -26 -58 -108q0 -42 10 -64q14 -28 51 -40q18 -5 115 -10q84 -4 101 -20.5t17 -51.5q0 -43 -33 -57q-21 -10 -71 -10q-53 0 -67 5q-31 10 -34 49z" />
    <glyph glyph-name="t" unicode="t" horiz-adv-x="472" 
d="M389 353h-169v-187q0 -27 1 -29q3 -13 20 -13q21 0 25 16q1 5 1 37q0 5 -1 35h142v-39q0 -105 -37.5 -143t-144.5 -38q-90 0 -128 32q-42 34 -42 120v209h-56v132h56v96h164v-96h169v-132zM305 174q0 -43 -10 -62q-14 -26 -54 -26q-38 0 -50 24q-9 17 -9 56v225h169v56
h-169v96h-88v-96h-56v-56h56v-247q0 -69 31 -93q27 -21 101 -21q91 0 117 27t27 117h-65z" />
    <glyph glyph-name="u" unicode="u" horiz-adv-x="523" 
d="M287 33q-41 -38 -118 -38q-167 0 -167 169v321h165v-285q0 -40 5 -50q9 -16 45 -16q46 0 60 27q9 17 9 68v256h165v-484h-167zM413 39v408h-89v-218q0 -65 -19 -95q-24 -38 -88 -38q-55 0 -74 28q-14 21 -14 76v247h-89v-283q0 -67 29.5 -99t99.5 -32q48 0 68 10
q30 15 59 30l33 27l-3 -61h87z" />
    <glyph glyph-name="v" unicode="v" horiz-adv-x="527" 
d="M251 183q17 79 71 301h172l-127 -483h-227l-139 483h173q44 -168 77 -301zM337 39l109 409h-93q-30 -122 -84 -364h-34q-27 117 -92 364h-93l118 -409h169z" />
    <glyph glyph-name="w" unicode="w" horiz-adv-x="778" 
d="M520 191q32 189 51 293h161l-95 -484h-215q-19 97 -55 283l-56 -283h-217l-98 484h163q26 -143 50 -292l64 292h183q5 -22 64 -293zM606 38l79 412h-83q-22 -117 -62 -355h-34q-11 52 -80 353h-123q-27 -115 -80 -350h-32q-10 68 -32 175q-28 132 -36 175h-85l87 -410
h155q23 108 68 329h35q7 -36 70 -329h153z" />
    <glyph glyph-name="x" unicode="x" horiz-adv-x="545" 
d="M367 253l146 -253h-193l-65 129l-62 -129h-198l149 253l-132 231h194l49 -106l52 106h193zM323 253l117 197h-103l-83 -163l-73 163h-104l111 -197l-127 -215h109l84 177l90 -177h103z" />
    <glyph glyph-name="y" unicode="y" horiz-adv-x="533" 
d="M256 170q27 133 67 316h170l-118 -496q-25 -103 -64 -140q-44 -42 -145 -42q-18 0 -59 1v129q35 -2 41 -2q31 0 45 19q10 13 17 50h-60l-150 481h174q28 -107 82 -316zM338 -1l107 449h-91q-27 -122 -78 -368h-33l-15 60q-11 43 -83 308h-93l126 -405h75q-8 -71 -23 -99
q-24 -47 -82 -46h-3v-53q4 0 10 1h11q86 0 121 34q29 28 51 119z" />
    <glyph glyph-name="z" unicode="z" horiz-adv-x="475" 
d="M412 485v-130l-201 -223h201v-130h-411v133l198 220h-181v130h394zM374 447h-318v-54h228l-245 -273v-80h335v54h-249l249 276v77z" />
    <glyph glyph-name="braceleft" unicode="{" horiz-adv-x="380" 
d="M345 -1v-151h-23q-134 0 -191 65t-58 293v32q-7 34 -30 59q-8 10 -41 35l44 34q25 24 27 58v32q1 67 6 120q14 129 53 173q57 66 190 65h19v-151q-11 1 -21 1q-53 0 -62 -53q-2 -170 -1 -225q-21 -42 -50 -56q31 -15 50 -54q-1 -56 1 -225q9 -53 66 -53q10 0 21 1z
M310 -117v85q-88 9 -92 85q-2 56 2 218q-13 30 -65 59q50 28 65 61q-4 162 -2 218q4 76 92 85v85q-74 -3 -111 -24q-46 -26 -65 -92q-15 -51 -23 -265q-29 -64 -57 -66q27 -2 57 -68q2 -62 5 -112q8 -119 18 -153q19 -66 65 -92q37 -21 111 -24z" />
    <glyph glyph-name="bar" unicode="|" horiz-adv-x="233" 
d="M142 -182h-135v981h135v-981zM104 -144v905h-59v-905h59z" />
    <glyph glyph-name="braceright" unicode="}" horiz-adv-x="380" 
d="M343 332q-32 -25 -41 -35q-23 -25 -30 -59v-32q0 -67 -6 -120q-14 -129 -52 -173q-57 -65 -191 -65h-22v151q10 -1 20 -1q58 0 66 53q2 170 1 225q20 39 51 54q-30 14 -51 56q1 56 -1 225q-8 53 -62 53q-10 0 -20 -1v151h18q134 0 191 -65t58 -293v-32q2 -34 27 -58z
M291 332q-28 2 -57 66q-2 62 -5 112q-7 119 -18 153q-19 66 -64 92q-38 21 -112 24v-85q88 -9 92 -85q3 -56 -1 -218q14 -33 64 -61q-51 -29 -64 -59q4 -162 1 -218q-4 -76 -92 -85v-85q74 3 112 24q45 26 64 92q16 51 23 265q30 66 57 68z" />
    <glyph glyph-name="asciitilde" unicode="~" horiz-adv-x="500" 
d="M448 814q-26 -47 -46 -67q-32 -32 -74 -32q-37 0 -84 28t-60 28q-20 0 -44 -44l-88 49q32 49 50 66q33 30 77 30q32 0 79.5 -28t62.5 -28q16 0 39 44zM413 804l-43 23q-21 -36 -49 -36q-23 0 -69.5 28t-72.5 28q-49 0 -91 -62l43 -24q22 35 53 35q21 0 66.5 -28t77.5 -28
q48 0 85 64z" />
    <glyph glyph-name="Adieresis" unicode="&#xc4;" horiz-adv-x="711" 
d="M226 115l-35 -115h-192l212 671h247l216 -671h-189l-37 115h-222zM198 153h278l36 -115h110l-193 597h-190l-188 -597h112zM337 478l-67 -218h135zM352 558l105 -336h-238l103 336h30zM506 718h-134v141h134v-141zM474 750v77h-70v-77h70zM286 718h-134v141h134v-141z
M254 750v77h-70v-77h70z" />
    <glyph glyph-name="Aring" unicode="&#xc5;" horiz-adv-x="712" 
d="M226 115l-35 -115h-192l212 671h247l216 -671h-189l-37 115h-222zM198 153h278l36 -115h110l-193 597h-190l-188 -597h112zM337 478l-67 -218h135zM352 558l105 -336h-238l103 336h30zM417 805q0 -41 -28 -69t-69 -28t-69 28.5t-28 69.5t29 68.5t69 27.5t68 -28.5
t28 -68.5zM321 877q-30 0 -51.5 -20.5t-21.5 -50.5q0 -31 20.5 -52t51.5 -21q30 0 51 21t21 51t-20.5 51t-50.5 21zM298 803q0 -22 22 -22q23 0 23 23q0 22 -23 22q-22 0 -22 -23zM320 847q17 0 30 -12t13 -30t-12.5 -31t-30.5 -13t-30 13t-12 31t12 30t30 12z" />
    <glyph glyph-name="Ccedilla" unicode="&#xc7;" horiz-adv-x="666" 
d="M593 272q7 -169 -55 -226q-50 -45 -196 -47l-59 -178h-129l92 177q-138 6 -186.5 66t-47.5 209q0 27 -1 70v56q0 169 76 229q61 48 221 50q175 3 225 -42q55 -49 55 -220l-179 -1q-2 71 -14 84.5t-82 13.5q-63 0 -86.5 -15.5t-27.5 -51.5v-85q0 -125 9 -151
q20 -60 100 -56q78 4 93 22t13 96h179zM557 238h-105q3 -77 -37 -101q-28 -15 -114 -15q-87 0 -118 47q-23 35 -23 114q0 12 1 39v39q0 86 3 105q7 45 37 65q34 22 112 22q71 0 98 -18q32 -21 33 -82h103q4 125 -55 161q-44 26 -184 24q-147 -2 -197 -42q-60 -49 -60 -197
q0 -134 -1 -129q3 -76 14 -115q20 -71 73 -98q43 -22 128 -22l25 -1l-88 -184h55l73 182q204 3 223 117q4 27 4 89z" />
    <glyph glyph-name="Eacute" unicode="&#xc9;" horiz-adv-x="556" 
d="M186 414h282v-143h-282v-110h304v-161h-491v673h487v-160h-300v-99zM146 374v179h300v80h-407v-593h411v81h-304v190h282v63h-282zM180 730l165 78l-36 47l-141 -111zM173 699l-40 49l181 142l69 -91z" />
    <glyph glyph-name="Ntilde" unicode="&#xd1;" horiz-adv-x="734" 
d="M468 249q1 -10 1 96v328h185v-673h-280q-65 142 -189 428q2 -57 2 -101v-327h-184v673h279q63 -140 186 -424zM614 40v593h-105v-288v-217l-34 1q-64 160 -219 504h-213v-593h104v287q0 190 -2 221h35q67 -173 220 -508h214zM518 814q-26 -47 -46 -67q-32 -32 -74 -32
q-37 0 -84 28t-60 28q-20 0 -44 -44l-88 49q32 49 50 66q33 30 77 30q32 0 79.5 -28t62.5 -28q16 0 39 44zM483 804l-43 23q-21 -36 -49 -36q-23 0 -69.5 28t-72.5 28q-49 0 -91 -62l43 -24q22 35 53 35q21 0 66.5 -28t77.5 -28q48 0 85 64z" />
    <glyph glyph-name="Odieresis" unicode="&#xd6;" horiz-adv-x="691" 
d="M625 337q0 -201 -53 -265q-62 -77 -262 -77q-178 0 -244 75q-61 71 -61 254q0 149 15 208q21 80 89.5 113t220.5 33q189 0 249 -83q46 -65 46 -258zM585 337q0 181 -39 234q-48 67 -216 67q-139 0 -197 -25t-76 -94q-12 -52 -12 -195q0 -168 50 -226q55 -63 215 -63
q126 0 183 25.5t76 92.5q16 54 16 184zM197 318q0 -85 1 -97q5 -35 30 -47.5t93 -12.5q87 0 108 49q10 25 10 131q0 108 -16 137q-22 39 -107 39q-74 0 -101 -31q-20 -23 -20 -81q0 -12 1 -41t1 -46zM315 553q115 0 143 -45q19 -31 19 -161q0 -135 -17 -169
q-28 -57 -139 -57q-115 0 -143 40q-21 31 -21 157q0 110 1 125q6 56 37 81q36 29 120 29zM496 718h-134v141h134v-141zM464 750v77h-70v-77h70zM276 718h-134v141h134v-141zM244 750v77h-70v-77h70z" />
    <glyph glyph-name="Udieresis" unicode="&#xdc;" horiz-adv-x="652" 
d="M583 673v-430q0 -151 -69 -204q-57 -44 -210 -44q-117 0 -169 14q-95 27 -120 110q-11 36 -11 113v441h186v-441q0 -56 30 -70q15 -7 78 -7t80.5 14t17.5 70v434h187zM543 633h-107v-394q0 -78 -35 -102q-26 -17 -103 -17q-80 0 -105 13q-43 22 -43 99v401h-106v-401
q0 -109 37.5 -150t145.5 -46q22 -1 77 -1q140 0 186 36q53 41 53 172v390zM456 708h-134v141h134v-141zM424 740v77h-70v-77h70zM236 708h-134v141h134v-141zM204 740v77h-70v-77h70z" />
    <glyph glyph-name="aacute" unicode="&#xe1;" horiz-adv-x="530" 
d="M467 2l-161 -4l-3 24q-32 -25 -118 -25q-90 0 -130 31q-48 37 -48 128q0 87 52 121q41 26 131 26q76 0 111 -12v28q0 34 -14 44q-11 7 -46 7q-39 0 -43.5 -4.5t-4.5 -42.5h-169v21q0 101 65 130q37 16 152 16q112 0 160 -28q66 -40 66 -152v-308zM427 310q0 89 -47 118
q-37 22 -139 22q-9 0 -29 1h-30q-57 0 -83 -16q-37 -22 -34 -80h90q6 34 31 46q18 9 55 9q51 0 72 -18q25 -21 25 -73v-74q-49 18 -72 21q-17 2 -76 2q-72 0 -104 -21q-39 -26 -39 -91q0 -71 35 -99q32 -27 108 -27q83 0 116 24l38 17l-2 -29h85v268zM242 85q-52 0 -73 10
q-31 15 -31 64q0 43 29 59q21 12 67 12q50 0 71 -10q33 -16 33 -61q0 -47 -31 -64q-20 -10 -65 -10zM234 195q-33 0 -42 -3q-19 -7 -19 -33q0 -30 22 -37q8 -2 47 -2q37 0 49 7t12 32q0 27 -24 33q-9 3 -45 3zM176 539l165 78l-36 47l-141 -111zM169 508l-40 49l181 143
l69 -92z" />
    <glyph glyph-name="agrave" unicode="&#xe0;" horiz-adv-x="532" 
d="M467 2l-161 -4l-3 24q-32 -25 -118 -25q-90 0 -130 31q-48 37 -48 128q0 87 52 121q41 26 131 26q76 0 111 -12v28q0 34 -14 44q-11 7 -46 7q-39 0 -43.5 -4.5t-4.5 -42.5h-169v21q0 101 65 130q37 16 152 16q112 0 160 -28q66 -40 66 -152v-308zM427 310q0 89 -47 118
q-37 22 -139 22q-9 0 -29 1h-30q-57 0 -83 -16q-37 -22 -34 -80h90q6 34 31 46q18 9 55 9q51 0 72 -18q25 -21 25 -73v-74q-49 18 -72 21q-17 2 -76 2q-72 0 -104 -21q-39 -26 -39 -91q0 -71 35 -99q32 -27 108 -27q83 0 116 24l38 17l-2 -29h85v268zM242 85q-52 0 -73 10
q-31 15 -31 64q0 43 29 59q21 12 67 12q50 0 71 -10q33 -16 33 -61q0 -47 -31 -64q-20 -10 -65 -10zM234 195q-33 0 -42 -3q-19 -7 -19 -33q0 -30 22 -37q8 -2 47 -2q37 0 49 7t12 32q0 27 -24 33q-9 3 -45 3z" />
    <glyph glyph-name="acircumflex" unicode="&#xe2;" horiz-adv-x="532" 
d="M467 2l-161 -4l-3 24q-32 -25 -118 -25q-90 0 -130 31q-48 37 -48 128q0 87 52 121q41 26 131 26q76 0 111 -12v28q0 34 -14 44q-11 7 -46 7q-39 0 -43.5 -4.5t-4.5 -42.5h-169v21q0 101 65 130q37 16 152 16q112 0 160 -28q66 -40 66 -152v-308zM427 310q0 89 -47 118
q-37 22 -139 22q-9 0 -29 1h-30q-57 0 -83 -16q-37 -22 -34 -80h90q6 34 31 46q18 9 55 9q51 0 72 -18q25 -21 25 -73v-74q-49 18 -72 21q-17 2 -76 2q-72 0 -104 -21q-39 -26 -39 -91q0 -71 35 -99q32 -27 108 -27q83 0 116 24l38 17l-2 -29h85v268zM242 85q-52 0 -73 10
q-31 15 -31 64q0 43 29 59q21 12 67 12q50 0 71 -10q33 -16 33 -61q0 -47 -31 -64q-20 -10 -65 -10zM234 195q-33 0 -42 -3q-19 -7 -19 -33q0 -30 22 -37q8 -2 47 -2q37 0 49 7t12 32q0 27 -24 33q-9 3 -45 3zM403 585l-35 -68l-137 58l-133 -58l-36 67l169 109zM370 576
l-139 87l-136 -87l14 -27l122 53l126 -53z" />
    <glyph glyph-name="adieresis" unicode="&#xe4;" horiz-adv-x="535" 
d="M467 2l-161 -4l-3 24q-32 -25 -118 -25q-90 0 -130 31q-48 37 -48 128q0 87 52 121q41 26 131 26q76 0 111 -12v28q0 34 -14 44q-11 7 -46 7q-39 0 -43.5 -4.5t-4.5 -42.5h-169v21q0 101 65 130q37 16 152 16q112 0 160 -28q66 -40 66 -152v-308zM427 310q0 89 -47 118
q-37 22 -139 22q-9 0 -29 1h-30q-57 0 -83 -16q-37 -22 -34 -80h90q6 34 31 46q18 9 55 9q51 0 72 -18q25 -21 25 -73v-74q-49 18 -72 21q-17 2 -76 2q-72 0 -104 -21q-39 -26 -39 -91q0 -71 35 -99q32 -27 108 -27q83 0 116 24l38 17l-2 -29h85v268zM242 85q-52 0 -73 10
q-31 15 -31 64q0 43 29 59q21 12 67 12q50 0 71 -10q33 -16 33 -61q0 -47 -31 -64q-20 -10 -65 -10zM234 195q-33 0 -42 -3q-19 -7 -19 -33q0 -30 22 -37q8 -2 47 -2q37 0 49 7t12 32q0 27 -24 33q-9 3 -45 3zM406 538h-134v141h134v-141zM374 570v77h-70v-77h70zM206 538
h-134v141h134v-141zM174 570v77h-70v-77h70z" />
    <glyph glyph-name="atilde" unicode="&#xe3;" horiz-adv-x="535" 
d="M467 2l-161 -4l-3 24q-32 -25 -118 -25q-90 0 -130 31q-48 37 -48 128q0 87 52 121q41 26 131 26q76 0 111 -12v28q0 34 -14 44q-11 7 -46 7q-39 0 -43.5 -4.5t-4.5 -42.5h-169v21q0 101 65 130q37 16 152 16q112 0 160 -28q66 -40 66 -152v-308zM427 310q0 89 -47 118
q-37 22 -139 22q-9 0 -29 1h-30q-57 0 -83 -16q-37 -22 -34 -80h90q6 34 31 46q18 9 55 9q51 0 72 -18q25 -21 25 -73v-74q-49 18 -72 21q-17 2 -76 2q-72 0 -104 -21q-39 -26 -39 -91q0 -71 35 -99q32 -27 108 -27q83 0 116 24l38 17l-2 -29h85v268zM242 85q-52 0 -73 10
q-31 15 -31 64q0 43 29 59q21 12 67 12q50 0 71 -10q33 -16 33 -61q0 -47 -31 -64q-20 -10 -65 -10zM234 195q-33 0 -42 -3q-19 -7 -19 -33q0 -30 22 -37q8 -2 47 -2q37 0 49 7t12 32q0 27 -24 33q-9 3 -45 3zM428 614q-26 -47 -46 -67q-32 -32 -74 -32q-37 0 -84 28t-60 28
q-20 0 -44 -44l-88 49q32 49 50 66q33 30 77 30q32 0 79.5 -28t62.5 -28q16 0 39 44zM393 604l-43 23q-21 -36 -49 -36q-23 0 -69.5 28t-72.5 28q-49 0 -91 -62l43 -24q22 35 53 35q21 0 66.5 -28t77.5 -28q48 0 85 64z" />
    <glyph glyph-name="aring" unicode="&#xe5;" horiz-adv-x="535" 
d="M467 2l-161 -4l-3 24q-32 -25 -118 -25q-90 0 -130 31q-48 37 -48 128q0 87 52 121q41 26 131 26q76 0 111 -12v28q0 34 -14 44q-11 7 -46 7q-39 0 -43.5 -4.5t-4.5 -42.5h-169v21q0 101 65 130q37 16 152 16q112 0 160 -28q66 -40 66 -152v-308zM427 310q0 89 -47 118
q-37 22 -139 22q-9 0 -29 1h-30q-57 0 -83 -16q-37 -22 -34 -80h90q6 34 31 46q18 9 55 9q51 0 72 -18q25 -21 25 -73v-74q-49 18 -72 21q-17 2 -76 2q-72 0 -104 -21q-39 -26 -39 -91q0 -71 35 -99q32 -27 108 -27q83 0 116 24l38 17l-2 -29h85v268zM242 85q-52 0 -73 10
q-31 15 -31 64q0 43 29 59q21 12 67 12q50 0 71 -10q33 -16 33 -61q0 -47 -31 -64q-20 -10 -65 -10zM234 195q-33 0 -42 -3q-19 -7 -19 -33q0 -30 22 -37q8 -2 47 -2q37 0 49 7t12 32q0 27 -24 33q-9 3 -45 3zM337 625q0 -41 -28 -69t-69 -28t-69 28.5t-28 69.5t29 68.5
t69 27.5t68 -28.5t28 -68.5zM241 697q-30 0 -51.5 -20.5t-21.5 -50.5q0 -31 20.5 -52t51.5 -21q30 0 51 21t21 51t-20.5 51t-50.5 21zM218 623q0 -22 22 -22q23 0 23 23q0 22 -23 22q-22 0 -22 -23zM240 667q17 0 30 -12t13 -30t-12.5 -31t-30.5 -13t-30 13t-12 31t12 30
t30 12z" />
    <glyph glyph-name="ccedilla" unicode="&#xe7;" horiz-adv-x="524" 
d="M279 -6l-29 -108h-129l52 113q-102 10 -136 67q-31 50 -31 183q0 134 42 186q48 59 183 59q126 0 170 -36q50 -42 52 -168h-161q-1 48 -4 55q-8 15 -52 15q-39 0 -54 -18q-11 -14 -11 -45v-24q1 -17 1 -27q0 -7 -1 -23v-22q0 -36 11 -52q16 -21 56 -21q45 0 55 25
q4 10 3 56h163q-2 -118 -39 -164t-141 -51zM420 171h-86q-3 -45 -23.5 -62.5t-74.5 -17.5q-72 0 -91 40q-11 24 -11 115q0 84 10 107q19 43 92 43q47 0 66 -13q23 -15 27 -55h85q-4 82 -47 107q-35 21 -136 21q-116 0 -154 -45q-33 -41 -33 -162q0 -125 27 -164
q32 -46 149 -57l-50 -113h54l34 113q163 0 162 143z" />
    <glyph glyph-name="eacute" unicode="&#xe9;" horiz-adv-x="530" 
d="M171 211q-2 -12 -2 -21q0 -63 69 -63q36 0 45 4q15 7 15 36v10h164q4 -118 -55 -154q-42 -26 -166 -26q-144 0 -193 60q-43 52 -43 198q0 135 46 185q49 54 185 54q135 0 187 -55q43 -47 43 -155q0 -30 -3 -74zM423 147h-86q-6 -38 -36 -51q-19 -9 -63 -9
q-116 0 -108 136l1 23h292q2 125 -29 164q-36 44 -158 44q-118 0 -154.5 -39.5t-36.5 -159.5q0 -132 34 -172q37 -46 162 -46q91 0 124 13q55 23 58 97zM234 362q-42 0 -53.5 -11.5t-13.5 -37.5l131 -3q6 52 -64 52zM344 342q3 -12 0 -31q-3 -23 -3 -32l-214 -1q-1 16 -1 28
q0 51 23 74t86 23q98 0 109 -61zM176 539l165 78l-36 47l-141 -111zM169 508l-40 49l181 143l69 -92z" />
    <glyph glyph-name="egrave" unicode="&#xe8;" horiz-adv-x="524" 
d="M171 211q-2 -12 -2 -21q0 -63 69 -63q36 0 45 4q15 7 15 36v10h164q4 -118 -55 -154q-42 -26 -166 -26q-144 0 -193 60q-43 52 -43 198q0 135 46 185q49 54 185 54q135 0 187 -55q43 -47 43 -155q0 -30 -3 -74zM423 147h-86q-6 -38 -36 -51q-19 -9 -63 -9
q-116 0 -108 136l1 23h292q2 125 -29 164q-36 44 -158 44q-118 0 -154.5 -39.5t-36.5 -159.5q0 -132 34 -172q37 -46 162 -46q91 0 124 13q55 23 58 97zM234 362q-42 0 -53.5 -11.5t-13.5 -37.5l131 -3q6 52 -64 52zM344 342q3 -12 0 -31q-3 -23 -3 -32l-214 -1q-1 16 -1 28
q0 51 23 74t86 23q98 0 109 -61zM305 539l-164 78l35 47l141 -111zM312 508l41 49l-182 143l-69 -92z" />
    <glyph glyph-name="ecircumflex" unicode="&#xea;" horiz-adv-x="524" 
d="M171 211q-2 -12 -2 -21q0 -63 69 -63q36 0 45 4q15 7 15 36v10h164q4 -118 -55 -154q-42 -26 -166 -26q-144 0 -193 60q-43 52 -43 198q0 135 46 185q49 54 185 54q135 0 187 -55q43 -47 43 -155q0 -30 -3 -74zM423 147h-86q-6 -38 -36 -51q-19 -9 -63 -9
q-116 0 -108 136l1 23h292q2 125 -29 164q-36 44 -158 44q-118 0 -154.5 -39.5t-36.5 -159.5q0 -132 34 -172q37 -46 162 -46q91 0 124 13q55 23 58 97zM234 362q-42 0 -53.5 -11.5t-13.5 -37.5l131 -3q6 52 -64 52zM344 342q3 -12 0 -31q-3 -23 -3 -32l-214 -1q-1 16 -1 28
q0 51 23 74t86 23q98 0 109 -61zM403 585l-35 -68l-137 58l-133 -58l-36 67l169 109zM370 576l-139 87l-136 -87l14 -27l122 53l126 -53z" />
    <glyph glyph-name="edieresis" unicode="&#xeb;" horiz-adv-x="527" 
d="M171 211q-2 -12 -2 -21q0 -63 69 -63q36 0 45 4q15 7 15 36v10h164q4 -118 -55 -154q-42 -26 -166 -26q-144 0 -193 60q-43 52 -43 198q0 135 46 185q49 54 185 54q134 0 181.5 -46.5t47.5 -181.5q0 -25 -2 -56zM423 147h-86q-6 -38 -36 -51q-19 -9 -63 -9
q-116 0 -108 136l1 23h292q2 26 2 47q0 89 -40 125t-149 36q-118 0 -154.5 -39.5t-36.5 -159.5q0 -132 34 -172q37 -46 162 -46q91 0 124 13q55 23 58 97zM234 362q-42 0 -53.5 -11.5t-13.5 -37.5l131 -3q6 52 -64 52zM344 342q3 -12 0 -31q-3 -23 -3 -32l-214 -1
q-1 15 -1 28q0 51 23 74t86 23q98 0 109 -61zM406 538h-134v141h134v-141zM374 570v77h-70v-77h70zM206 538h-134v141h134v-141zM174 570v77h-70v-77h70z" />
    <glyph glyph-name="iacute" unicode="&#xed;" horiz-adv-x="233" 
d="M173 0h-167v483h167v-483zM133 40v403h-87v-403h87zM6 539l165 78l-36 47l-141 -111zM-1 508l-40 49l181 143l69 -92z" />
    <glyph glyph-name="igrave" unicode="&#xec;" horiz-adv-x="233" 
d="M173 0h-167v483h167v-483zM133 40v403h-87v-403h87zM180 539l-165 78l35 47l141 -111zM187 508l40 49l-182 143l-69 -92z" />
    <glyph glyph-name="icircumflex" unicode="&#xee;" horiz-adv-x="233" 
d="M173 0h-167v483h167v-483zM133 40v403h-87v-403h87zM253 585l-35 -68l-137 58l-133 -58l-36 67l169 109zM220 576l-139 87l-136 -87l14 -27l122 53l126 -53z" />
    <glyph glyph-name="idieresis" unicode="&#xef;" horiz-adv-x="233" 
d="M173 0h-167v483h167v-483zM133 40v403h-87v-403h87zM256 538h-134v141h134v-141zM224 570v77h-70v-77h70zM66 538h-134v141h134v-141zM34 570v77h-70v-77h70z" />
    <glyph glyph-name="ntilde" unicode="&#xf1;" horiz-adv-x="515" 
d="M155 457q30 33 122 34q174 3 174 -160v-334h-165v287q0 41 -4 51q-8 19 -43 19q-73 0 -73 -69v-288h-165v489l154 2v-31zM124 450l-85 -2v-413h89v250q0 107 111 107q54 0 72 -30q13 -22 13 -78v-249h89l-1 287q0 69 -31 100t-104 31q-57 0 -89 -11q-36 -12 -60 -45l-3 9
zM418 614q-26 -47 -46 -67q-32 -32 -74 -32q-37 0 -84 28t-60 28q-20 0 -44 -44l-88 49q32 49 50 66q33 30 77 30q32 0 79.5 -28t62.5 -28q16 0 39 44zM383 604l-43 23q-21 -36 -49 -36q-23 0 -69.5 28t-72.5 28q-49 0 -91 -62l43 -24q22 35 53 35q21 0 66.5 -28t77.5 -28
q48 0 85 64z" />
    <glyph glyph-name="oacute" unicode="&#xf3;" horiz-adv-x="528" 
d="M476 254q0 -152 -39 -202q-46 -60 -193 -60t-194 53q-43 50 -43 200q0 148 48.5 198t192.5 50q130 0 179 -50.5t49 -188.5zM248 455q-128 0 -165.5 -39t-37.5 -171q0 -134 32 -173q37 -42 167 -42q129 0 165 48q29 39 29 176q0 121 -39 161t-151 40zM173 244q0 -75 3 -86
q11 -32 65 -32q55 0 66 36q3 11 3 88q0 66 -7 82q-12 27 -63 27q-46 1 -58 -21q-9 -18 -9 -94zM175 389q23 8 65 8q69 0 91 -38q17 -29 17 -109q0 -88 -11 -114q-20 -48 -96 -48q-75 0 -95 45q-11 25 -11 111q0 63 2 81q8 52 38 64zM176 539l165 78l-36 47l-141 -111z
M169 508l-40 49l181 143l69 -92z" />
    <glyph glyph-name="ograve" unicode="&#xf2;" horiz-adv-x="528" 
d="M476 254q0 -152 -39 -202q-46 -60 -193 -60t-194 53q-43 50 -43 200q0 148 48.5 198t192.5 50q130 0 179 -50.5t49 -188.5zM248 455q-128 0 -165.5 -39t-37.5 -171q0 -134 32 -173q37 -42 167 -42q129 0 165 48q29 39 29 176q0 121 -39 161t-151 40zM173 244q0 -75 3 -86
q11 -32 65 -32q55 0 66 36q3 11 3 88q0 66 -7 82q-12 27 -63 27q-46 1 -58 -21q-9 -18 -9 -94zM175 389q23 8 65 8q69 0 91 -38q17 -29 17 -109q0 -88 -11 -114q-20 -48 -96 -48q-75 0 -95 45q-11 25 -11 111q0 63 2 81q8 52 38 64zM307 539l-164 78l35 47l141 -111z
M314 508l41 49l-192 143l-59 -92z" />
    <glyph glyph-name="ocircumflex" unicode="&#xf4;" horiz-adv-x="528" 
d="M476 254q0 -152 -39 -202q-46 -60 -193 -60t-194 53q-43 50 -43 200q0 148 48.5 198t192.5 50q130 0 179 -50.5t49 -188.5zM248 455q-128 0 -165.5 -39t-37.5 -171q0 -134 32 -173q37 -42 167 -42q129 0 165 48q29 39 29 176q0 121 -39 161t-151 40zM173 244q0 -75 3 -86
q11 -32 65 -32q55 0 66 36q3 11 3 88q0 66 -7 82q-12 27 -63 27q-46 1 -58 -21q-9 -18 -9 -94zM175 389q23 8 65 8q69 0 91 -38q17 -29 17 -109q0 -88 -11 -114q-20 -48 -96 -48q-75 0 -95 45q-11 25 -11 111q0 63 2 81q8 52 38 64zM403 585l-35 -68l-137 58l-133 -58
l-36 67l169 109zM370 576l-139 87l-136 -87l14 -27l122 53l126 -53z" />
    <glyph glyph-name="odieresis" unicode="&#xf6;" horiz-adv-x="528" 
d="M476 254q0 -152 -39 -202q-46 -60 -193 -60t-194 53q-43 50 -43 200q0 148 48.5 198t192.5 50q130 0 179 -50.5t49 -188.5zM248 455q-128 0 -165.5 -39t-37.5 -171q0 -134 32 -173q37 -42 167 -42q129 0 165 48q29 39 29 176q0 121 -39 161t-151 40zM173 244q0 -75 3 -86
q11 -32 65 -32q55 0 66 36q3 11 3 88q0 66 -7 82q-12 27 -63 27q-46 1 -58 -21q-9 -18 -9 -94zM175 389q23 8 65 8q69 0 91 -38q17 -29 17 -109q0 -88 -11 -114q-20 -48 -96 -48q-75 0 -95 45q-11 25 -11 111q0 63 2 81q8 52 38 64zM406 538h-134v141h134v-141zM374 570v77
h-70v-77h70zM206 538h-134v141h134v-141zM174 570v77h-70v-77h70z" />
    <glyph glyph-name="otilde" unicode="&#xf5;" horiz-adv-x="528" 
d="M476 254q0 -152 -39 -202q-46 -60 -193 -60t-194 53q-43 50 -43 200q0 148 48.5 198t192.5 50q130 0 179 -50.5t49 -188.5zM248 455q-128 0 -165.5 -39t-37.5 -171q0 -134 32 -173q37 -42 167 -42q129 0 165 48q29 39 29 176q0 121 -39 161t-151 40zM173 244q0 -75 3 -86
q11 -32 65 -32q55 0 66 36q3 11 3 88q0 66 -7 82q-12 27 -63 27q-46 1 -58 -21q-9 -18 -9 -94zM175 389q23 8 65 8q69 0 91 -38q17 -29 17 -109q0 -88 -11 -114q-20 -48 -96 -48q-75 0 -95 45q-11 25 -11 111q0 63 2 81q8 52 38 64zM428 624q-26 -47 -46 -67
q-32 -32 -74 -32q-37 0 -84 28t-60 28q-20 0 -44 -44l-88 49q32 49 50 66q33 30 77 30q32 0 79.5 -28t62.5 -28q16 0 39 44zM393 614l-43 23q-21 -36 -49 -36q-23 0 -69.5 28t-72.5 28q-49 0 -91 -62l43 -24q22 35 53 35q21 0 66.5 -28t77.5 -28q48 0 85 64z" />
    <glyph glyph-name="uacute" unicode="&#xfa;" horiz-adv-x="523" 
d="M287 33q-41 -38 -118 -38q-167 0 -167 169v321h165v-285q0 -40 5 -50q9 -16 45 -16q46 0 60 27q9 17 9 68v256h165v-484h-167zM413 39v408h-89v-218q0 -65 -19 -95q-24 -38 -88 -38q-55 0 -74 28q-14 21 -14 76v247h-89v-283q0 -67 29.5 -99t99.5 -32q48 0 68 10
q30 15 59 30l33 27l-3 -61h87zM146 539l165 78l-36 47l-141 -111zM139 508l-40 49l181 143l69 -92z" />
    <glyph glyph-name="ugrave" unicode="&#xf9;" horiz-adv-x="523" 
d="M287 33q-41 -38 -118 -38q-167 0 -167 169v321h165v-285q0 -40 5 -50q9 -16 45 -16q46 0 60 27q9 17 9 68v256h165v-484h-167zM413 39v408h-89v-218q0 -65 -19 -95q-24 -38 -88 -38q-55 0 -74 28q-14 21 -14 76v247h-89v-283q0 -67 29.5 -99t99.5 -32q48 0 68 10
q30 15 59 30l33 27l-3 -61h87zM301 539l-165 78l35 47l141 -111zM308 508l40 49l-182 143l-68 -92z" />
    <glyph glyph-name="ucircumflex" unicode="&#xfb;" horiz-adv-x="523" 
d="M287 33q-41 -38 -118 -38q-167 0 -167 169v321h165v-285q0 -40 5 -50q9 -16 45 -16q46 0 60 27q9 17 9 68v256h165v-484h-167zM413 39v408h-89v-218q0 -65 -19 -95q-24 -38 -88 -38q-55 0 -74 28q-14 21 -14 76v247h-89v-283q0 -67 29.5 -99t99.5 -32q48 0 68 10
q30 15 59 30l33 27l-3 -61h87zM393 585l-35 -68l-137 58l-133 -58l-36 67l169 109zM360 576l-139 87l-136 -87l14 -27l122 53l126 -53z" />
    <glyph glyph-name="udieresis" unicode="&#xfc;" horiz-adv-x="523" 
d="M287 33q-41 -38 -118 -38q-167 0 -167 169v321h165v-285q0 -40 5 -50q9 -16 45 -16q46 0 60 27q9 17 9 68v256h165v-484h-167zM413 39v408h-89v-218q0 -65 -19 -95q-24 -38 -88 -38q-55 0 -74 28q-14 21 -14 76v247h-89v-283q0 -67 29.5 -99t99.5 -32q48 0 68 10
q30 15 59 30l33 27l-3 -61h87zM386 538h-134v141h134v-141zM354 570v77h-70v-77h70zM186 538h-134v141h134v-141zM154 570v77h-70v-77h70z" />
    <glyph glyph-name="dagger" unicode="&#x2020;" horiz-adv-x="397" 
d="M354 452h-87l-7 -457h-164l-5 457h-83v99h82l-2 120h182l-2 -120h86v-99zM331 478v43h-98l2 115h-111l-1 -115h-86v-43h89l5 -448h94l8 448h98z" />
    <glyph glyph-name="degree" unicode="&#xb0;" horiz-adv-x="357" 
d="M149 690q63 0 108 -45t45 -108t-45 -108t-108 -45t-108 45t-45 108t45 108t108 45zM149 655q-49 0 -83.5 -34.5t-34.5 -83.5t34.5 -83.5t83.5 -34.5t83.5 34.5t34.5 83.5t-34.5 83.5t-83.5 34.5z" />
    <glyph glyph-name="cent" unicode="&#xa2;" horiz-adv-x="507" 
d="M459 309q-2 -117 -38.5 -163t-137.5 -52v-92h-105v93q-99 11 -133 70q-27 48 -35 186q-1 23 -1 42q0 97 37.5 143t131.5 56v78h105l1 -77q93 -6 129 -46q38 -44 40 -157h-161q-1 48 -4 55q-8 15 -52 15q-39 0 -54 -18q-11 -14 -11 -45v-24q1 -17 1 -27q0 -7 -1 -23v-22
q0 -36 11 -52q16 -21 56 -21q46 0 56 25q5 11 4 56h161zM420 271h-86q-4 -81 -88 -81q-73 0 -96 40q-16 30 -16 116q0 84 10 107q19 43 92 43q47 0 66 -13q23 -15 27 -55h85q-4 77 -44 105q-35 23 -121 25l-1 78h-35l2 -79q-105 1 -140 -48q-31 -42 -31 -160
q0 -219 143 -219q12 0 24 2l1 -95h36l1 95l26 -1q79 0 112 31.5t33 108.5z" />
    <glyph glyph-name="sterling" unicode="&#xa3;" horiz-adv-x="602" 
d="M531 448h-170q0 51 -15 65.5t-68 12.5q-56 -3 -61 -4q-28 -9 -29 -50q2 -58 0 -60q70 1 141 2v-144h-143v-110h354v-160h-539l1 473q0 137 79 177q46 24 191 26q163 2 208 -33q53 -41 51 -195zM493 481q4 111 -60 140q-34 16 -155 16q-97 0 -118 -3q-59 -7 -86 -38
q-32 -37 -32 -119l1 -439h459v81h-354v190h142v64l-141 1l-1 83q0 64 42 88q28 16 92 19q108 4 114 -84z" />
    <glyph glyph-name="section" unicode="&#xa7;" horiz-adv-x="19" 
 />
    <glyph glyph-name="bullet" unicode="&#x2022;" horiz-adv-x="354" 
d="M34 276q0 54 38.5 92.5t92.5 38.5t92.5 -38.5t38.5 -92.5t-38.5 -92.5t-92.5 -38.5t-92.5 38.5t-38.5 92.5z" />
    <glyph glyph-name="paragraph" unicode="&#xb6;" horiz-adv-x="22" 
 />
    <glyph glyph-name="germandbls" unicode="&#xdf;" horiz-adv-x="550" 
d="M403 420q93 -33 93 -199q0 -117 -39 -167q-46 -57 -161 -57q-37 0 -84 17v134q8 -3 24 -13q10 -6 26 -6q42 0 46 2q13 5 16 35q3 22 3 72q0 65 -6 81q-12 35 -61 35q-10 0 -44 -2v133q29 -2 34 -2q31 0 38 3q16 6 16 32q0 28 -17 37q-11 5 -45 5q-46 0 -58 -16
q-10 -12 -10 -58v-483h-168v476q0 126 59 171q50 39 176 39q105 0 153 -23q71 -35 71 -132q0 -81 -62 -114zM251 448v-59h9q65 0 87 -45q15 -30 15 -106q0 -80 -10 -102q-19 -42 -90 -42q-7 0 -7.5 2t-7.5 4v-61q29 -7 49 -7q100 0 135 47q30 40 30 142q0 116 -41 151
q-24 20 -34 25q-19 10 -44 8v28q50 7 69 27.5t19 73.5q0 80 -62 105q-36 15 -127 15q-115 0 -155 -31q-45 -36 -45 -144v-441h98v448q0 60 19 83q23 26 84 26q48 0 70 -14q27 -18 27 -63q0 -43 -25 -59q-18 -10 -63 -11z" />
    <glyph glyph-name="registered" unicode="&#xae;" horiz-adv-x="374" 
d="M162 383q-62 0 -106 45t-44 108q0 62 44 106t106 44t104.5 -44.5t42.5 -107.5t-42.5 -107t-104.5 -44zM162 406q51 0 88 37.5t37 90.5t-37 90.5t-88 37.5q-54 1 -90 -36t-36 -92q0 -53 37.5 -90.5t88.5 -37.5zM176 534l47 -72h-26l-47 72h-26v-72h-22v157h68q-6 0 -5 1h7
q52 0 52 -40q0 -44 -48 -46zM126 557h45q30 0 30 23q0 17 -34 17h-41v-40z" />
    <glyph glyph-name="copyright" unicode="&#xa9;" horiz-adv-x="757" 
d="M346 -11q-143 0 -242.5 100t-99.5 244q0 145 99.5 245t242.5 100t243 -100t100 -245q0 -144 -100 -244t-243 -100zM346 635q-122 0 -211 -88t-89 -214q0 -125 89 -213t211 -88t211 88t89 213q0 126 -89 214t-211 88zM355 139q-86 0 -136.5 55t-50.5 142q0 83 52 139.5
t136 56.5q59 0 103 -34t54 -91h-45q-22 81 -112 81q-67 0 -106 -44t-39 -110q0 -60 34 -103q40 -49 109 -49q94 0 115 79h43q-13 -57 -55.5 -89.5t-101.5 -32.5z" />
    <glyph glyph-name="trademark" unicode="&#x2122;" horiz-adv-x="472" 
d="M401 650v-196h-27v167h-2l-66 -167h-17l-65 167v0v-167h-28v196h46l56 -141l57 141h46zM159 650v-29h-64v-167h-28v167h-65v29h157z" />
    <glyph glyph-name="acute" unicode="&#xb4;" horiz-adv-x="335" 
d="M80 730l165 78l-36 47l-141 -111zM73 699l-40 49l181 142l69 -91z" />
    <glyph glyph-name="dieresis" unicode="&#xa8;" horiz-adv-x="437" 
d="M356 708h-134v141h134v-141zM324 740v77h-70v-77h70zM136 708h-134v141h134v-141zM104 740v77h-70v-77h70z" />
    <glyph glyph-name="AE" unicode="&#xc6;" horiz-adv-x="1022" 
d="M969 0l-482 1l1 114h-226l-72 -115h-192l426 671q165 2 541 2v-161h-270v-98h252v-144h-252v-110h274v-160zM929 120h-274v190h252v64h-252v178h270v83h-485l-378 -597h112l71 115h278l-1 -115q117 2 406 -1zM528 558l-1 -336h-238l209 336h30zM488 478l-136 -218h135z
" />
    <glyph glyph-name="Oslash" unicode="&#xd8;" horiz-adv-x="691" 
d="M625 337q0 -201 -53 -266q-62 -76 -262 -76q-69 0 -118 10l-26 -47h-143l54 100q-72 69 -72 266q0 149 15 208q21 80 89.5 113t220.5 33q47 0 85 -4l24 43h144l-45 -83q59 -39 77 -134q10 -50 10 -163zM586 337q0 119 -18 180q-23 80 -84 103l32 57h-53l-30 -46
q-93 7 -102 7q-138 0 -196.5 -25t-75.5 -94q-13 -52 -13 -195q0 -101 13 -150q17 -70 70 -108l-37 -68h52l30 55q35 -18 137 -18q126 0 183 25.5t77 92.5q15 54 15 184zM478 345q0 -134 -17 -168q-29 -56 -140 -56q-84 0 -96 14l208 393q34 -18 42 -76q3 -20 3 -107z
M391 551l-208 -389q-26 22 -26 155q0 109 2 126q6 57 37 81q37 29 120 29q32 2 75 -2zM440 340q0 102 -3 117l-161 -301q18 -1 42 -1q88 0 110 52q12 28 12 133zM329 517h-13q-77 0 -103 -32q-21 -25 -21 -86q0 -11 1 -38v-42q0 -8 1 -28.5t1 -27.5z" />
    <glyph glyph-name="plusminus" unicode="&#xb1;" horiz-adv-x="14" 
 />
    <glyph glyph-name="yen" unicode="&#xa5;" horiz-adv-x="726" 
d="M678 673l-197 -341h89v-117h-140v-43h140v-117h-140v-55h-186v55h-144v117h144v43h-144v117h95l-191 341h212q39 -72 122 -236l124 236h216zM605 633h-122l-149 -278l-145 278h-120l187 -335l-124 -1v-47l146 2v-116l-146 1v-47h143q4 -58 0 -58h111v55l146 3v47l-143 -1
v116l143 -2v47l-118 1z" />
    <glyph glyph-name="mu" unicode="&#xb5;" horiz-adv-x="573" 
d="M534 0h-467v199l-67 -43v128l67 42v347h182l1 -225l140 89v-136l-138 -85v-149h282v-167zM494 40v87h-280l1 199l143 99v57l-146 -98v249h-105l1 -315l-79 -52v-55l79 49l-1 -220h387z" />
    <glyph glyph-name="mu" unicode="&#x3bc;" horiz-adv-x="573" 
d="M534 0h-467v199l-67 -43v128l67 42v347h182l1 -225l140 89v-136l-138 -85v-149h282v-167zM494 40v87h-280l1 199l143 99v57l-146 -98v249h-105l1 -315l-79 -52v-55l79 49l-1 -220h387z" />
    <glyph glyph-name="ordfeminine" unicode="&#xaa;" horiz-adv-x="623" 
d="M303 508h-285v163h532v-150l-306 -360h308v-163h-552v151zM510 536v95h-452v-83h305v-31l-323 -382v-97h472v83h-327v32zM110 810l34 67l137 -58l133 58l36 -67l-169 -109zM142 819l139 -88l136 88l-14 26l-122 -53l-125 53z" />
    <glyph glyph-name="ordmasculine" unicode="&#xba;" horiz-adv-x="464" 
d="M412 485v-130l-201 -223h201v-130h-411v133l198 220h-181v130h394zM374 447h-318v-54h228l-245 -273v-80h335v54h-249l249 276v77zM50 620l34 67l137 -58l133 58l36 -67l-169 -109zM82 629l139 -88l136 88l-14 26l-122 -53l-125 53z" />
    <glyph glyph-name="ae" unicode="&#xe6;" horiz-adv-x="827" 
d="M385 444q36 47 152 47q142 0 186 -70q33 -52 33 -201v-17h-297q1 -55 9 -67q12 -17 59 -17q50 0 58.5 7.5t11.5 52.5h158q2 -27 2 -33q0 -93 -70 -130q-51 -28 -155 -28q-128 0 -168 55q-40 -55 -172 -55q-99 0 -141 29q-55 36 -55 132q0 91 54 127q44 30 143 30
q72 0 104 -23v32q0 41 -16 50q-12 7 -45 7q-38 0 -46.5 -8t-10.5 -47h-166q2 41 6 61q6 36 21 58q39 55 175 55t170 -47zM722 145h-93q-5 -41 -35 -53q-18 -8 -67 -8q-73 0 -92 42q-10 23 -11 111h298q-1 126 -28 166q-36 53 -157 53q-116 0 -134 -52l-4 -12h-27
q-6 19 -11 26q-8 14 -20 20q-37 18 -126 18q-119 0 -147 -40q-14 -20 -18 -65h97q8 55 89 55q54 0 75 -20t21 -71v-97h-32q-14 36 -40 47q-18 7 -67 7q-85 0 -119 -21q-43 -27 -43 -102q0 -80 44 -107q32 -19 117 -19q69 0 95 8q43 14 65 63h26q17 -47 61 -62q28 -9 93 -9
q89 0 130 18q60 27 60 104zM589 346q-10 15 -63 15q-36 0 -48 -7q-17 -10 -18 -42h137q-2 26 -8 34zM617 366q14 -20 16 -89h-209q2 68 16 89q20 29 86 29q70 0 91 -29zM173 179q-10 -6 -10 -28q0 -23 9 -29q12 -9 53 -9q50 0 65 8q10 7 10 27q0 25 -9 30q-14 9 -64 9
q-40 0 -54 -8zM156 209q22 12 71 12q54 0 75 -10q32 -15 32 -63q0 -45 -35 -60q-22 -10 -74 -10q-47 0 -68 13q-29 16 -29 60q0 42 28 58z" />
    <glyph glyph-name="oslash" unicode="&#xf8;" horiz-adv-x="528" 
d="M310 255l-72 -129h3q54 -1 66 36q3 11 3 88v5zM348 250q0 -88 -11 -114q-20 -48 -96 -48q-16 0 -56 4l149 263q14 -23 14 -105zM68 -41h44l47 74q24 -8 85 -8q129 0 165 51q29 40 29 178q0 159 -62 180l40 74h-44l-36 -63q-16 10 -88 10q-128 0 -165.5 -39t-37.5 -171
q0 -96 6 -120q12 -50 68 -83zM172 208l85 158h-21q-45 1 -56 -24q-7 -18 -7 -98q0 -5 -1 -36zM150 119q-15 27 -15 125q0 93 10 115q18 38 95 38q48 0 65 -5zM130 -71h-113l54 97q-37 26 -51 80q-13 48 -13 139q0 148 48.5 198t192.5 50q46 0 79 -5l27 50h113l-49 -87
q58 -50 58 -197q0 -152 -39 -202q-46 -60 -193 -60q-10 0 -77 8z" />
    <glyph glyph-name="questiondown" unicode="&#xbf;" horiz-adv-x="524" 
d="M180 678h161v-170h-161v170zM220 638v-90h81v90h-81zM342 465q3 -108 -18 -140q-18 -28 -110 -70q-47 -22 -47 -60t9.5 -47t50.5 -9q51 0 66.5 11.5t15.5 45.5q0 11 -1 35l152 1q-2 -112 -10 -135q-20 -64 -103 -85q-45 -12 -125 -12q-115 0 -162 37q-56 44 -56 158
q0 85 34 124q23 26 106 65q27 13 31 32q1 3 0 49h167zM303 425h-88q-3 -52 -48 -75q-40 -20 -81 -41q-42 -34 -42 -114q0 -94 40 -126q37 -29 138 -29q80 0 120 12q69 20 79 78q3 20 2 64l-82 -1q0 -54 -27 -73q-23 -18 -84 -18q-56 0 -77 16q-26 20 -26 77q0 47 31 72
q15 13 64 34q45 18 63 39t18 85z" />
    <glyph glyph-name="exclamdown" unicode="&#xa1;" horiz-adv-x="241" 
d="M16 677h168v-178h-168v178zM56 637v-98h88v98h-88zM16 434h169l8 -434h-187zM55 394l-8 -354h105l-6 354h-91z" />
    <glyph glyph-name="logicalnot" unicode="&#xac;" horiz-adv-x="19" 
 />
    <glyph glyph-name="florin" unicode="&#x192;" horiz-adv-x="699" 
d="M240 466h145v-101h-144v-39h144v-101h-143v-17q19 -54 102 -54q20 0 64 5q34 4 44 33q5 14 5 57h172q4 -119 -18 -166q-34 -74 -146 -82q-60 -4 -231 0q-74 2 -124 59q-43 49 -50 115q-2 14 -4 50h-55v101h52v39h-52v101h55q13 168 183 204q138 13 219 3q80 -9 121.5 -49
t50.5 -122v-72q-179 4 -176 -3q-3 41 -7 53q-8 27 -37 37q-18 3 -62 3t-61 -3q-34 -10 -47 -51zM595 463v37q-9 73 -47 105q-31 26 -94 33q-77 9 -209 -3q-148 -32 -155 -187l-1 -17h-53v-35h52q-1 -50 0 -102h-52v-34h53q1 -27 6.5 -82t40.5 -95q40 -46 99 -47
q170 -4 227 0q85 6 114 56q21 37 19 122l-104 1q-1 -33 -18 -56q-22 -30 -64 -31q-30 -6 -61 -6q-118 0 -141 81v57h143v34h-144l-1 102h145v35h-145l-1 35q14 68 75 85q21 4 70 4t70 -4q33 -11 52 -36t14 -53q24 0 110 1z" />
    <glyph glyph-name="guillemotleft" unicode="&#xab;" horiz-adv-x="561" 
d="M376 245l127 -174l-74 -50l-208 226l208 212l70 -55zM332 246l118 152l-18 14l-163 -166l165 -179l19 13zM156 245l127 -174l-74 -50l-208 226l208 212l70 -55zM112 246l118 152l-18 14l-163 -166l165 -179l19 13z" />
    <glyph glyph-name="guillemotright" unicode="&#xbb;" horiz-adv-x="558" 
d="M128 235l-127 174l73 50l209 -226l-208 -212l-71 55zM172 234l-119 -152l18 -14l163 166l-165 179l-19 -13zM348 235l-127 174l73 50l209 -226l-208 -212l-71 55zM392 234l-119 -152l18 -14l163 166l-165 179l-19 -13z" />
    <glyph glyph-name="ellipsis" unicode="&#x2026;" horiz-adv-x="936" 
d="M572 0h-167v177h167v-177zM532 40v97h-87v-97h87zM872 0h-167v177h167v-177zM832 40v97h-87v-97h87zM272 0h-167v177h167v-177zM232 40v97h-87v-97h87z" />
    <glyph glyph-name="nonbreakingspace" unicode="&#xa0;" horiz-adv-x="234" 
 />
    <glyph glyph-name="Agrave" unicode="&#xc0;" horiz-adv-x="712" 
d="M226 115l-35 -115h-192l212 671h247l216 -671h-189l-37 115h-222zM198 153h278l36 -115h110l-193 597h-190l-188 -597h112zM337 478l-67 -218h135zM352 558l105 -336h-238l103 336h30zM408 730l-165 78l35 47l141 -111zM414 699l41 49l-182 142l-69 -91z" />
    <glyph glyph-name="Atilde" unicode="&#xc3;" horiz-adv-x="712" 
d="M226 115l-35 -115h-192l212 671h247l216 -671h-189l-37 115h-222zM198 153h278l36 -115h110l-193 597h-190l-188 -597h112zM337 478l-67 -218h135zM352 558l105 -336h-238l103 336h30zM528 814q-26 -47 -46 -67q-32 -32 -74 -32q-37 0 -84 28t-60 28q-20 0 -44 -44
l-88 49q32 49 50 66q33 30 77 30q32 0 79.5 -28t62.5 -28q16 0 39 44zM493 804l-43 23q-21 -36 -49 -36q-23 0 -69.5 28t-72.5 28q-49 0 -91 -62l43 -24q22 35 53 35q21 0 66.5 -28t77.5 -28q48 0 85 64z" />
    <glyph glyph-name="Otilde" unicode="&#xd5;" horiz-adv-x="688" 
d="M625 337q0 -201 -53 -265q-62 -77 -262 -77q-178 0 -244 75q-61 71 -61 254q0 149 15 208q21 80 89.5 113t220.5 33q189 0 249 -83q46 -65 46 -258zM585 337q0 181 -39 234q-48 67 -216 67q-139 0 -197 -25t-76 -94q-12 -52 -12 -195q0 -168 50 -226q55 -63 215 -63
q126 0 183 25.5t76 92.5q16 54 16 184zM197 318q0 -85 1 -97q5 -35 30 -47.5t93 -12.5q87 0 108 49q10 25 10 131q0 108 -16 137q-22 39 -107 39q-74 0 -101 -31q-20 -23 -20 -81q0 -12 1 -41t1 -46zM315 553q115 0 143 -45q19 -31 19 -161q0 -135 -17 -169
q-28 -57 -139 -57q-115 0 -143 40q-21 31 -21 157q0 110 1 125q6 56 37 81q36 29 120 29zM508 814q-26 -47 -46 -67q-32 -32 -74 -32q-37 0 -84 28t-60 28q-20 0 -44 -44l-88 49q32 49 50 66q33 30 77 30q32 0 79.5 -28t62.5 -28q16 0 39 44zM473 804l-43 23
q-21 -36 -49 -36q-23 0 -69.5 28t-72.5 28q-49 0 -91 -62l43 -24q22 35 53 35q21 0 66.5 -28t77.5 -28q48 0 85 64z" />
    <glyph glyph-name="OE" unicode="&#x152;" horiz-adv-x="995" 
d="M930 0h-617q-179 0 -246 73q-62 69 -62 251q0 151 13 207q20 79 86 111t219 32l603 -1v-160h-300v-99h282v-143h-282v-110h304v-161zM890 40v81h-294v189l272 1v63l-276 -2l1 180l293 1v80l-557 2q-138 0 -196 -24.5t-76 -92.5q-12 -51 -12 -194q0 -166 54.5 -225
t216.5 -59h574zM474 237q-6 -116 -153 -116q-113 0 -145 48q-23 35 -22 144q2 112 3 126q7 58 38 84q36 30 120 30q91 0 129 -28q30 -33 30 -86v-202zM439 376q0 82 -20 109q-25 31 -103 32q-69 1 -97 -26q-23 -22 -27 -72q0 -52 -1 -104q-1 -82 13 -108q25 -46 117 -46
q68 0 95 28q23 25 23 78v109z" />
    <glyph glyph-name="oe" unicode="&#x153;" horiz-adv-x="850" 
d="M786 208h-297q-1 -10 -1 -20q0 -61 70 -61q36 0 45 4q15 7 15 36v10h164q4 -118 -55 -154q-42 -26 -166 -26q-62 0 -88 5q-47 8 -76 39q-29 -36 -69 -45q-20 -4 -84 -4q-147 0 -194 53q-43 50 -43 200q0 148 48.5 198t192.5 50q64 0 98 -13q29 -11 57 -43q26 30 58.5 41
t101.5 12q126 0 179 -60q46 -53 46 -168q0 -25 -2 -54zM749 243q6 110 -39.5 160.5t-153.5 50.5q-111 1 -154 -61q-44 62 -154 62q-128 0 -165.5 -39t-37.5 -171q0 -134 32 -173q37 -42 167 -42q112 0 154 64q43 -57 163 -57q91 0 124 13q55 23 58 97h-86q-6 -38 -36 -51
q-19 -9 -63 -9q-63 0 -87 35q-19 28 -22 94l-1 28zM662 344q2 -13 1 -32q-2 -25 -2 -33l-214 -1q-8 117 107 118q49 1 67 -5q34 -11 41 -47zM348 250q0 -88 -11 -114q-20 -48 -96 -48q-75 0 -95 45q-11 25 -11 111q0 63 2 81q8 52 38 64q23 8 65 8q69 0 91 -38
q17 -29 17 -109zM618 310q6 52 -64 52q-37 0 -51 -11.5t-16 -41.5zM310 250q0 66 -7 82q-12 27 -63 27q-46 1 -58 -21q-9 -18 -9 -94q0 -75 3 -86q11 -32 65 -32q55 0 66 36q3 11 3 88z" />
    <glyph glyph-name="endash" unicode="&#x2013;" horiz-adv-x="519" 
d="M470 351v-169h-470v169h470zM430 311h-390v-89h390v89z" />
    <glyph glyph-name="emdash" unicode="&#x2014;" horiz-adv-x="1034" 
d="M970 351v-169h-970v169h970zM930 311h-890v-89h890v89z" />
    <glyph glyph-name="quotedblleft" unicode="&#x201c;" horiz-adv-x="475" 
d="M1 529q0 -80 24 -119q32 -50 109 -50q8 0 44 2v99q-4 0 -11 -1h-11q-31 0 -36 40h49v175h-168v-146zM41 529v106h88v-95h-49v-20q0 -82 58 -89v-31h-4q-56 -1 -77 34q-16 27 -16 95zM241 529q0 -80 24 -119q32 -50 109 -50q8 0 44 2v99q-4 0 -11 -1h-11q-31 0 -36 40h49
v175h-168v-146zM281 529v106h88v-95h-49v-20q0 -82 58 -89v-31h-4q-56 -1 -77 34q-16 27 -16 95z" />
    <glyph glyph-name="quotedblright" unicode="&#x201d;" horiz-adv-x="475" 
d="M418 529q0 -80 -25 -119q-31 -50 -108 -50q-8 0 -44 2v99q3 0 11 -1h11q31 0 35 40h-48v175h168v-146zM378 529v106h-88v-95h49v-20q0 -82 -59 -89l1 -31h4q56 -1 76 34q17 27 17 95zM178 529q0 -80 -25 -119q-31 -50 -108 -50q-8 0 -44 2v99q3 0 11 -1h11q31 0 35 40
h-48v175h168v-146zM138 529v106h-88v-95h49v-20q0 -82 -59 -89l1 -31h4q56 -1 76 34q17 27 17 95z" />
    <glyph glyph-name="quoteleft" unicode="&#x2018;" horiz-adv-x="233" 
d="M1 529q0 -80 24 -119q32 -50 109 -50q8 0 44 2v99q-4 0 -11 -1h-11q-31 0 -36 40h49v175h-168v-146zM41 529v106h88v-95h-49v-20q0 -82 58 -89v-31h-4q-56 -1 -77 34q-16 27 -16 95z" />
    <glyph glyph-name="quoteright" unicode="&#x2019;" horiz-adv-x="235" 
d="M178 529q0 -80 -25 -119q-31 -50 -108 -50q-8 0 -44 2v99q3 0 11 -1h11q31 0 35 40h-48v175h168v-146zM138 529v106h-88v-95h49v-20q0 -82 -59 -89l1 -31h4q56 -1 76 34q17 27 17 95z" />
    <glyph glyph-name="divide" unicode="&#xf7;" horiz-adv-x="5" 
 />
    <glyph glyph-name="ydieresis" unicode="&#xff;" horiz-adv-x="532" 
d="M256 170q27 133 67 316h170l-118 -496q-25 -103 -64 -140q-44 -42 -145 -42q-18 0 -59 1v129q35 -2 41 -2q31 0 45 19q10 13 17 50h-60l-150 481h174q28 -107 82 -316zM338 -1l107 449h-91q-27 -122 -78 -368h-33l-15 60q-11 43 -83 308h-93l126 -405h75q-8 -71 -23 -99
q-24 -47 -82 -46h-3v-53q4 0 10 1h11q86 0 121 34q29 28 51 119zM426 538h-134v141h134v-141zM394 570v77h-70v-77h70zM206 538h-134v141h134v-141zM174 570v77h-70v-77h70z" />
    <glyph glyph-name="Ydieresis" unicode="&#x178;" horiz-adv-x="713" 
d="M338 437q45 90 124 236h216l-248 -428v-245h-186v245l-240 428h212q77 -145 122 -236zM390 256l218 377h-122q-79 -147 -134 -256h-29q-54 111 -131 256h-120l212 -377v-216h106v216zM516 708h-134v141h134v-141zM484 740v77h-70v-77h70zM296 708h-134v141h134v-141z
M264 740v77h-70v-77h70z" />
    <glyph glyph-name="currency" unicode="&#xa4;" horiz-adv-x="17" 
 />
    <glyph glyph-name="guilsinglleft" unicode="&#x2039;" horiz-adv-x="319" 
d="M156 245l127 -174l-74 -50l-208 226l208 212l70 -55zM112 246l118 152l-18 14l-163 -166l165 -179l19 13z" />
    <glyph glyph-name="guilsinglright" unicode="&#x203a;" horiz-adv-x="319" 
d="M128 235l-127 174l73 50l209 -226l-208 -212l-71 55zM172 234l-119 -152l18 -14l163 166l-165 179l-19 -13z" />
    <glyph glyph-name="daggerdbl" unicode="&#x2021;" horiz-adv-x="22" 
 />
    <glyph glyph-name="periodcentered" unicode="&#xb7;" horiz-adv-x="231" 
d="M164 263h-161v170h161v-170zM124 303v90h-81v-90h81z" />
    <glyph glyph-name="periodcentered" unicode="&#x2219;" horiz-adv-x="231" 
d="M164 263h-161v170h161v-170zM124 303v90h-81v-90h81z" />
    <glyph glyph-name="quotesinglbase" unicode="&#x201a;" horiz-adv-x="230" 
d="M168 9q0 -80 -25 -119q-31 -50 -108 -50q-8 0 -44 2v99q3 0 11 -1h11q31 0 35 40h-48v175h168v-146zM128 9v106h-88v-95h49v-20q0 -82 -59 -89l1 -31h4q56 -1 76 34q17 27 17 95z" />
    <glyph glyph-name="quotedblbase" unicode="&#x201e;" horiz-adv-x="472" 
d="M408 9q0 -80 -25 -119q-31 -50 -108 -50q-8 0 -44 2v99q3 0 11 -1h11q31 0 35 40h-48v175h168v-146zM368 9v106h-88v-95h49v-20q0 -82 -59 -89l1 -31h4q56 -1 76 34q17 27 17 95zM168 9q0 -80 -25 -119q-31 -50 -108 -50q-8 0 -44 2v99q3 0 11 -1h11q31 0 35 40h-48v175
h168v-146zM128 9v106h-88v-95h49v-20q0 -82 -59 -89l1 -31h4q56 -1 76 34q17 27 17 95z" />
    <glyph glyph-name="perthousand" unicode="&#x2030;" horiz-adv-x="17" 
 />
    <glyph glyph-name="Acircumflex" unicode="&#xc2;" horiz-adv-x="712" 
d="M233 115l-35 -115h-192l212 671h248l215 -671h-189l-37 115h-222zM205 153h278l36 -115h110l-193 597h-190l-188 -597h112zM344 478l-67 -218h135zM359 558l105 -336h-238l103 336h30zM507 769l-34 -67l-137 58l-133 -59l-36 68l169 108zM475 760l-139 88l-136 -88
l14 -26l122 53l125 -53z" />
    <glyph glyph-name="Ecircumflex" unicode="&#xca;" horiz-adv-x="556" 
d="M186 414h282v-143h-282v-110h304v-161h-491v673h487v-160h-300v-99zM146 374v179h300v80h-407v-593h411v81h-304v190h282v63h-282zM420 769l-34 -67l-137 58l-134 -59l-35 68l168 108zM387 760l-138 88l-136 -88l14 -26l121 53l126 -53z" />
    <glyph glyph-name="Aacute" unicode="&#xc1;" horiz-adv-x="712" 
d="M226 115l-35 -115h-192l212 671h247l216 -671h-189l-37 115h-222zM198 153h278l36 -115h110l-193 597h-190l-188 -597h112zM337 478l-67 -218h135zM352 558l105 -336h-238l103 336h30zM250 730l165 78l-36 47l-141 -111zM243 699l-40 49l181 142l69 -91z" />
    <glyph glyph-name="Edieresis" unicode="&#xcb;" horiz-adv-x="556" 
d="M186 414h282v-143h-282v-110h304v-161h-491v673h487v-160h-300v-99zM146 374v179h300v80h-407v-593h411v81h-304v190h282v63h-282zM416 718h-134v141h134v-141zM384 750v77h-70v-77h70zM196 718h-134v141h134v-141zM164 750v77h-70v-77h70z" />
    <glyph glyph-name="Egrave" unicode="&#xc8;" horiz-adv-x="556" 
d="M186 414h282v-143h-282v-110h304v-161h-491v673h487v-160h-300v-99zM146 374v179h300v80h-407v-593h411v81h-304v190h282v63h-282zM307 730l-165 78l35 47l141 -111zM314 699l40 49l-182 142l-68 -91z" />
    <glyph glyph-name="Iacute" unicode="&#xcd;" horiz-adv-x="263" 
d="M190 0h-187v673h187v-673zM150 40v593h-107v-593h107zM20 730l165 78l-36 47l-141 -111zM13 699l-40 49l181 142l69 -91z" />
    <glyph glyph-name="Icircumflex" unicode="&#xce;" horiz-adv-x="263" 
d="M190 0h-187v673h187v-673zM150 40v593h-107v-593h107zM270 769l-34 -67l-137 58l-134 -59l-35 68l168 108zM237 760l-138 88l-136 -88l14 -26l121 53l126 -53z" />
    <glyph glyph-name="Idieresis" unicode="&#xcf;" horiz-adv-x="263" 
d="M190 0h-187v673h187v-673zM150 40v593h-107v-593h107zM266 718h-134v141h134v-141zM234 750v77h-70v-77h70zM66 718h-134v141h134v-141zM34 750v77h-70v-77h70z" />
    <glyph glyph-name="Igrave" unicode="&#xcc;" horiz-adv-x="263" 
d="M190 0h-187v673h187v-673zM150 40v593h-107v-593h107zM177 730l-165 78l35 47l142 -111zM184 699l40 49l-181 142l-69 -91z" />
    <glyph glyph-name="Oacute" unicode="&#xd3;" horiz-adv-x="691" 
d="M625 337q0 -201 -53 -265q-62 -77 -262 -77q-178 0 -244 75q-61 71 -61 254q0 149 15 208q21 80 89.5 113t220.5 33q189 0 249 -83q46 -65 46 -258zM585 337q0 181 -39 234q-48 67 -216 67q-139 0 -197 -25t-76 -94q-12 -52 -12 -195q0 -168 50 -226q55 -63 215 -63
q126 0 183 25.5t76 92.5q16 54 16 184zM197 318q0 -85 1 -97q5 -35 30 -47.5t93 -12.5q87 0 108 49q10 25 10 131q0 108 -16 137q-22 39 -107 39q-74 0 -101 -31q-20 -23 -20 -81q0 -12 1 -41t1 -46zM315 553q115 0 143 -45q19 -31 19 -161q0 -135 -17 -169
q-28 -57 -139 -57q-115 0 -143 40q-21 31 -21 157q0 110 1 125q6 56 37 81q36 29 120 29zM250 730l165 78l-36 47l-141 -111zM243 699l-40 49l181 142l69 -91z" />
    <glyph glyph-name="Ocircumflex" unicode="&#xd4;" horiz-adv-x="691" 
d="M625 337q0 -201 -53 -265q-62 -77 -262 -77q-178 0 -244 75q-61 71 -61 254q0 149 15 208q21 80 89.5 113t220.5 33q189 0 249 -83q46 -65 46 -258zM585 337q0 181 -39 234q-48 67 -216 67q-139 0 -197 -25t-76 -94q-12 -52 -12 -195q0 -168 50 -226q55 -63 215 -63
q126 0 183 25.5t76 92.5q16 54 16 184zM197 318q0 -85 1 -97q5 -35 30 -47.5t93 -12.5q87 0 108 49q10 25 10 131q0 108 -16 137q-22 39 -107 39q-74 0 -101 -31q-20 -23 -20 -81q0 -12 1 -41t1 -46zM315 553q115 0 143 -45q19 -31 19 -161q0 -135 -17 -169
q-28 -57 -139 -57q-115 0 -143 40q-21 31 -21 157q0 110 1 125q6 56 37 81q36 29 120 29zM470 769l-34 -67l-137 58l-134 -59l-35 68l168 108zM437 760l-138 88l-136 -88l14 -26l121 53l126 -53z" />
    <glyph glyph-name="Ograve" unicode="&#xd2;" horiz-adv-x="700" 
d="M625 337q0 -201 -53 -265q-62 -77 -262 -77q-178 0 -244 75q-61 71 -61 254q0 149 15 208q21 80 89.5 113t220.5 33q189 0 249 -83q46 -65 46 -258zM585 337q0 181 -39 234q-48 67 -216 67q-139 0 -197 -25t-76 -94q-12 -52 -12 -195q0 -168 50 -226q55 -63 215 -63
q126 0 183 25.5t76 92.5q16 54 16 184zM197 318q0 -85 1 -97q5 -35 30 -47.5t93 -12.5q87 0 108 49q10 25 10 131q0 108 -16 137q-22 39 -107 39q-74 0 -101 -31q-20 -23 -20 -81q0 -12 1 -41t1 -46zM315 553q115 0 143 -45q19 -31 19 -161q0 -135 -17 -169
q-28 -57 -139 -57q-115 0 -143 40q-21 31 -21 157q0 110 1 125q6 56 37 81q36 29 120 29zM380 730l-164 78l35 47l141 -111zM387 699l41 49l-182 142l-69 -91z" />
    <glyph glyph-name="Uacute" unicode="&#xda;" horiz-adv-x="652" 
d="M583 673v-430q0 -151 -69 -204q-57 -44 -210 -44q-117 0 -169 14q-95 27 -120 110q-11 36 -11 113v441h186v-441q0 -56 30 -70q15 -7 78 -7t80.5 14t17.5 70v434h187zM543 633h-107v-394q0 -78 -35 -102q-26 -17 -103 -17q-80 0 -105 13q-43 22 -43 99v401h-106v-401
q0 -109 37.5 -150t145.5 -46q22 -1 77 -1q140 0 186 36q53 41 53 172v390zM210 730l165 78l-36 47l-141 -111zM203 699l-40 49l181 142l69 -91z" />
    <glyph glyph-name="Ucircumflex" unicode="&#xdb;" horiz-adv-x="652" 
d="M583 673v-430q0 -151 -69 -204q-57 -44 -210 -44q-117 0 -169 14q-95 27 -120 110q-11 36 -11 113v441h186v-441q0 -56 30 -70q15 -7 78 -7t80.5 14t17.5 70v434h187zM543 633h-107v-394q0 -78 -35 -102q-26 -17 -103 -17q-80 0 -105 13q-43 22 -43 99v401h-106v-401
q0 -109 37.5 -150t145.5 -46q22 -1 77 -1q140 0 186 36q53 41 53 172v390zM460 769l-34 -67l-137 58l-134 -59l-35 68l168 108zM427 760l-138 88l-136 -88l14 -26l121 53l126 -53z" />
    <glyph glyph-name="Ugrave" unicode="&#xd9;" horiz-adv-x="652" 
d="M583 673v-430q0 -151 -69 -204q-57 -44 -210 -44q-117 0 -169 14q-95 27 -120 110q-11 36 -11 113v441h186v-441q0 -56 30 -70q15 -7 78 -7t80.5 14t17.5 70v434h187zM543 633h-107v-394q0 -78 -35 -102q-26 -17 -103 -17q-80 0 -105 13q-43 22 -43 99v401h-106v-401
q0 -109 37.5 -150t145.5 -46q22 -1 77 -1q140 0 186 36q53 41 53 172v390zM350 730l-164 78l35 47l141 -111zM357 699l41 49l-182 142l-69 -91z" />
    <glyph glyph-name="circumflex" unicode="&#x2c6;" horiz-adv-x="500" 
d="M420 769l-34 -67l-137 58l-134 -59l-35 68l168 108zM387 760l-138 88l-136 -88l14 -26l121 53l126 -53z" />
    <glyph glyph-name="tilde" unicode="&#x2dc;" horiz-adv-x="500" 
d="M448 814q-26 -47 -46 -67q-32 -32 -74 -32q-37 0 -84 28t-60 28q-20 0 -44 -44l-88 49q32 49 50 66q33 30 77 30q32 0 79.5 -28t62.5 -28q16 0 39 44zM413 804l-43 23q-21 -36 -49 -36q-23 0 -69.5 28t-72.5 28q-49 0 -91 -62l43 -24q22 35 53 35q21 0 66.5 -28t77.5 -28
q48 0 85 64z" />
    <glyph glyph-name="macron" unicode="&#xaf;" horiz-adv-x="500" 
d="M398 827v-102h-296v102h296zM373 802h-246v-52h246v52z" />
    <glyph glyph-name="macron" unicode="&#x2c9;" horiz-adv-x="500" 
d="M398 827v-102h-296v102h296zM373 802h-246v-52h246v52z" />
    <glyph glyph-name="cedilla" unicode="&#xb8;" horiz-adv-x="392" 
d="M255 36l-72 -215h-129l112 215h89zM225 20h-39l-78 -170h49z" />
    <glyph glyph-name="Scaron" unicode="&#x160;" 
 />
    <glyph glyph-name="scaron" unicode="&#x161;" 
 />
    <glyph glyph-name="brokenbar" unicode="&#xa6;" 
 />
    <glyph glyph-name="Eth" unicode="&#xd0;" 
 />
    <glyph glyph-name="eth" unicode="&#xf0;" 
 />
    <glyph glyph-name="Yacute" unicode="&#xdd;" 
 />
    <glyph glyph-name="yacute" unicode="&#xfd;" 
 />
    <glyph glyph-name="Thorn" unicode="&#xde;" 
 />
    <glyph glyph-name="thorn" unicode="&#xfe;" 
 />
    <glyph glyph-name="minus" unicode="&#xad;" 
 />
    <glyph glyph-name="minus" unicode="&#x2212;" 
 />
    <glyph glyph-name="multiply" unicode="&#xd7;" 
 />
    <glyph glyph-name="onesuperior" unicode="&#xb9;" 
 />
    <glyph glyph-name="twosuperior" unicode="&#xb2;" 
 />
    <glyph glyph-name="threesuperior" unicode="&#xb3;" 
 />
    <glyph glyph-name="onehalf" unicode="&#xbd;" 
 />
    <glyph glyph-name="onequarter" unicode="&#xbc;" 
 />
    <glyph glyph-name="threequarters" unicode="&#xbe;" 
 />
    <glyph glyph-name="Lslash" unicode="&#x141;" 
 />
    <glyph glyph-name="lslash" unicode="&#x142;" 
 />
    <glyph glyph-name="HT" 
 />
    <glyph glyph-name="LF" 
 />
    <glyph glyph-name="nonmarkingreturn" 
 />
    <glyph glyph-name="Zcaron" unicode="&#x17d;" 
 />
    <glyph glyph-name="zcaron" unicode="&#x17e;" 
 />
    <glyph glyph-name="DLE" 
 />
    <glyph glyph-name="DC1" 
 />
    <glyph glyph-name="DC2" 
 />
    <glyph glyph-name="DC3" 
 />
    <glyph glyph-name="DC4" 
 />
    <glyph glyph-name="RS" 
 />
    <glyph glyph-name="US" 
 />
    <glyph glyph-name="notequal" unicode="&#x2260;" horiz-adv-x="8" 
 />
    <glyph glyph-name="infinity" unicode="&#x221e;" horiz-adv-x="19" 
 />
    <glyph glyph-name="lessequal" unicode="&#x2264;" horiz-adv-x="14" 
 />
    <glyph glyph-name="greaterequal" unicode="&#x2265;" horiz-adv-x="11" 
 />
    <glyph glyph-name="partialdiff" unicode="&#x2202;" horiz-adv-x="285" 
d="M268 343l-60 -39v-303h-165v200l-44 -27v127l44 27v345h165v-241l60 39v-128zM240 361v54l-70 -41v261h-89v-318l-53 -34v-58l53 33v-219h89v278z" />
    <glyph glyph-name="summation" unicode="&#x2211;" horiz-adv-x="628" 
d="M371 448v14q0 45 -13.5 54.5t-68.5 9.5q-57 0 -67 -3q-34 -9 -34 -50q0 -31 19 -43q14 -9 49 -12q78 -3 156 -7q78 -8 113 -44q43 -45 43 -151q0 -144 -76 -189q-53 -32 -200 -32q-116 0 -160 10q-92 22 -119 97q-12 36 -13 139h180v-24q-1 -45 11 -58t52 -13q10 0 30 1
h34q45 0 57 8q20 12 20 55q0 34 -23 44q-10 4 -51 8l-154 10q-77 11 -112 50q-42 47 -42 151q0 137 85 179q53 26 199 26q155 0 203 -34q64 -45 61 -196h-179zM410 482h101q2 108 -67 139q-39 17 -158 17q-131 0 -171 -17q-73 -32 -73 -148q0 -111 56 -144q33 -18 160 -26
l74 -4q43 -4 64 -20q28 -22 28 -69q0 -62 -35 -85q-26 -17 -85 -17q-13 0 -33 1h-28q-96 0 -96 93l-107 1q3 -98 41 -131.5t139 -36.5h72q137 0 180 26q56 35 56 155q0 95 -42 127q-35 28 -142 34l-88 2q-51 3 -76 20q-32 22 -32 74q0 63 45 82q26 11 96 11q62 0 85 -13
q32 -17 36 -71zM110 810l34 67l137 -58l133 58l36 -67l-169 -109zM142 819l139 -88l136 88l-14 26l-122 -53l-125 53z" />
    <glyph glyph-name="product" unicode="&#x220f;" horiz-adv-x="505" 
d="M288 325q-7 36 -12 39t-51 3h-40q-18 -4 -18 -26q0 -30 77 -33q63 -2 126 -5q92 -16 92 -139q0 -102 -73 -140q-52 -26 -162 -26q-115 0 -161 25q-66 35 -63 138l1 10h164q0 -6 1.5 -12t1.5 -11q0 -23 21 -27q3 -1 42 -1q37 0 43 2q23 5 23 27q0 24 -10 31.5t-33 7.5
q-137 2 -173 15q-78 27 -78 132q0 102 69 136q46 23 156 23q105 0 149 -23q62 -33 62 -127v-20zM133 136h-91q3 -71 62 -91q29 -9 123 -9q95 0 134 17q63 28 63 111q0 74 -49 96q-26 11 -116 15q-76 4 -84 6q-46 12 -46 60q0 43 29 56q18 8 67 8q46 0 61 -5q23 -9 32 -40h87
q-3 63 -62 85q-36 14 -112 14q-93 0 -129 -16q-58 -26 -58 -108q0 -42 10 -64q14 -28 51 -40q18 -5 115 -10q84 -4 101 -20.5t17 -51.5q0 -43 -33 -57q-21 -10 -71 -10q-53 0 -67 5q-31 10 -34 49zM60 620l34 67l137 -58l133 58l36 -67l-169 -109zM92 629l139 -88l136 88
l-14 26l-122 -53l-125 53z" />
    <glyph glyph-name="pi" unicode="&#x3c0;" horiz-adv-x="713" 
d="M338 437q45 90 124 236h216l-248 -428v-245h-186v245l-240 428h212q77 -145 122 -236zM390 256l218 377h-122q-79 -147 -134 -256h-29q-54 111 -131 256h-120l212 -377v-216h106v216zM250 730l165 78l-36 47l-141 -111zM243 699l-40 49l181 142l69 -91z" />
    <glyph glyph-name="integral" unicode="&#x222b;" horiz-adv-x="533" 
d="M256 170q27 133 67 316h170l-118 -496q-25 -103 -64 -140q-44 -42 -145 -42q-18 0 -59 1v129q35 -2 41 -2q31 0 45 19q10 13 17 50h-60l-150 481h174q28 -107 82 -316zM338 -1l107 449h-91q-27 -122 -78 -368h-33l-15 60q-11 43 -83 308h-93l126 -405h75q-8 -71 -23 -99
q-24 -47 -82 -46h-3v-53q4 0 10 1h11q86 0 121 34q29 28 51 119zM170 550l165 78l-36 47l-141 -111zM163 519l-40 49l181 142l69 -91z" />
    <glyph glyph-name="Omega" unicode="&#x3a9;" horiz-adv-x="703" 
d="M240 466h145v-101h-144v-39h144v-101h-143v-17q19 -54 102 -54q20 0 64 5q34 4 44 33q5 14 5 57h172q4 -119 -18 -166q-34 -74 -146 -82q-60 -4 -231 0q-74 2 -124 59q-43 49 -50 115q-2 14 -4 50h-55v101h52v39h-52v101h55q13 168 183 204q138 13 219 3q80 -9 121.5 -49
t50.5 -122v-72q-179 4 -176 -3q-3 41 -7 53q-8 27 -37 37q-18 3 -62 3t-61 -3q-34 -10 -47 -51zM595 463v37q-9 73 -47 105q-31 26 -94 33q-77 9 -209 -3q-148 -32 -155 -187l-1 -17h-53v-35h52q-1 -50 0 -102h-52v-34h53q1 -27 6.5 -82t40.5 -95q40 -46 99 -47
q170 -4 227 0q85 6 114 56q21 37 19 122l-104 1q-1 -33 -18 -56q-22 -30 -64 -31q-30 -6 -61 -6q-118 0 -141 81v57h143v34h-144l-1 102h145v35h-145l-1 35q14 68 75 85q21 4 70 4t70 -4q33 -11 52 -36t14 -53q24 0 110 1z" />
    <glyph glyph-name="Omega" unicode="&#x2126;" horiz-adv-x="703" 
d="M240 466h145v-101h-144v-39h144v-101h-143v-17q19 -54 102 -54q20 0 64 5q34 4 44 33q5 14 5 57h172q4 -119 -18 -166q-34 -74 -146 -82q-60 -4 -231 0q-74 2 -124 59q-43 49 -50 115q-2 14 -4 50h-55v101h52v39h-52v101h55q13 168 183 204q138 13 219 3q80 -9 121.5 -49
t50.5 -122v-72q-179 4 -176 -3q-3 41 -7 53q-8 27 -37 37q-18 3 -62 3t-61 -3q-34 -10 -47 -51zM595 463v37q-9 73 -47 105q-31 26 -94 33q-77 9 -209 -3q-148 -32 -155 -187l-1 -17h-53v-35h52q-1 -50 0 -102h-52v-34h53q1 -27 6.5 -82t40.5 -95q40 -46 99 -47
q170 -4 227 0q85 6 114 56q21 37 19 122l-104 1q-1 -33 -18 -56q-22 -30 -64 -31q-30 -6 -61 -6q-118 0 -141 81v57h143v34h-144l-1 102h145v35h-145l-1 35q14 68 75 85q21 4 70 4t70 -4q33 -11 52 -36t14 -53q24 0 110 1z" />
    <glyph glyph-name="radical" unicode="&#x221a;" horiz-adv-x="19" 
 />
    <glyph glyph-name="approxequal" unicode="&#x2248;" horiz-adv-x="16" 
 />
    <glyph glyph-name="approxequal" unicode="&#x22f2;" horiz-adv-x="16" 
 />
    <glyph glyph-name="Delta" unicode="&#x394;" horiz-adv-x="19" 
 />
    <glyph glyph-name="Delta" unicode="&#x2206;" horiz-adv-x="19" 
 />
    <glyph glyph-name="lozenge" unicode="&#x25ca;" horiz-adv-x="502" 
d="M210 553l140 -241l-140 -241l-141 241zM210 503l-112 -191l112 -191l111 191z" />
    <glyph glyph-name="fraction" unicode="&#x2044;" horiz-adv-x="22" 
 />
    <glyph glyph-name="fi" unicode="&#xf001;" horiz-adv-x="17" 
 />
    <glyph glyph-name="fl" unicode="&#xf002;" horiz-adv-x="17" 
 />
    <glyph glyph-name="dotlessi" unicode="&#x131;" horiz-adv-x="238" 
d="M173 0h-167v483h167v-483zM133 40v403h-87v-403h87z" />
    <glyph glyph-name="breve" unicode="&#x2d8;" horiz-adv-x="500" 
d="M184 877q15 -68 66 -68t66 68h101q-13 -70 -37 -101q-49 -62 -129 -62q-64 0 -109.5 41.5t-55.5 106.5l-2 15h100zM164 852h-51q11 -51 49 -82t89 -31q110 0 136 113h-51q-19 -68 -86 -68q-66 0 -86 68z" />
    <glyph glyph-name="dotaccent" unicode="&#x2d9;" horiz-adv-x="500" 
d="M309 732h-118v111h118v-111zM284 757v61h-68v-61h68z" />
    <glyph glyph-name="ring" unicode="&#x2da;" horiz-adv-x="500" 
d="M347 805q0 -41 -28 -69t-69 -28t-69 28.5t-28 69.5t29 68.5t69 27.5t68 -28.5t28 -68.5zM251 877q-30 0 -51.5 -20.5t-21.5 -50.5q0 -31 20.5 -52t51.5 -21q30 0 51 21t21 51t-20.5 51t-50.5 21zM228 803q0 -22 22 -22q23 0 23 23q0 22 -23 22q-22 0 -22 -23zM250 847
q17 0 30 -12t13 -30t-12.5 -31t-30.5 -13t-30 13t-12 31t12 30t30 12z" />
    <glyph glyph-name="hungarumlaut" unicode="&#x2dd;" horiz-adv-x="500" 
d="M282 816l-155 -119l-48 51l127 146zM244 819l-37 38l-94 -108l17 -18zM440 816l-154 -119l-49 52l128 145zM403 819l-38 38l-94 -108l17 -18z" />
    <glyph glyph-name="ogonek" unicode="&#x2db;" horiz-adv-x="500" 
d="M353 13q-107 -63 -107 -88q0 -19 28 -19q11 0 49 13v-88q-33 -13 -61 -13q-45 0 -74 23q-33 26 -33 70q0 60 74 102h124zM265 -13h-29q-56 -32 -56 -76q0 -33 24 -50.5t58 -17.5q19 0 36 5v37q-14 -4 -24 -4q-53 0 -53 44q0 30 44 62z" />
    <glyph glyph-name="caron" unicode="&#x2c7;" horiz-adv-x="545" 
d="M100 810l34 67l137 -58l133 58l36 -67l-169 -109zM132 819l139 -88l136 88l-14 26l-122 -53l-125 53z" />
    </font>
</defs>
</svg>
