<?xml version="1.0" standalone="no"?>
<!DOCTYPE svg PUBLIC "-//W3C//DTD SVG 1.1//EN" "http://www.w3.org/Graphics/SVG/1.1/DTD/svg11.dtd" >
<svg>
<metadata>
Created by FontForge 20120731 at Wed Apr 17 23:19:15 2019
 By www-data
Digitized by Dan X. Solo. Software (c) 2001 by Dover Publications, Inc., New York.
</metadata>
<defs>
<font id="GrafitoOutline" horiz-adv-x="20" >
  <font-face 
    font-family="Grafito Outline"
    font-weight="400"
    font-stretch="normal"
    units-per-em="1000"
    panose-1="0 0 4 0 0 0 0 0 0 0"
    ascent="800"
    descent="-200"
    x-height="505"
    cap-height="685"
    bbox="-48 -220 1051 910"
    underline-thickness="20"
    underline-position="-123"
    unicode-range="U+0020-F002"
  />
<missing-glyph horiz-adv-x="500" 
d="M63 0v800h375v-800h-375zM125 63h250v675h-250v-675z" />
    <glyph glyph-name=".notdef" horiz-adv-x="500" 
d="M63 0v800h375v-800h-375zM125 63h250v675h-250v-675z" />
    <glyph glyph-name=".null" horiz-adv-x="0" 
 />
    <glyph glyph-name="glyph2" horiz-adv-x="203" 
 />
    <glyph glyph-name="space" unicode=" " horiz-adv-x="203" 
 />
    <glyph glyph-name="exclam" unicode="!" horiz-adv-x="305" 
d="M242 534q0 -131 -46 -303q-8 -29 -59 -29q-37 0 -45 2q-31 7 -38 34q-19 72 -34 218q-11 112 -11 140q0 80 103 80q81 0 109 -38q21 -29 21 -104zM232 87v-31q-2 -20 -15 -35t-52 -26q-34 -9 -60 -9q-79 0 -79 79q0 28 1 33q2 14 17 41q7 14 62 31q48 15 67 15
q59 0 59 -98zM204 524q0 59 -11 81q-19 37 -81 37q-34 0 -48 -9q-18 -11 -18 -44q0 -2 13 -112q15 -120 19 -177q3 -35 11 -46q11 -14 41 -14q18 0 22 1q10 4 17 17q13 29 24 117q11 85 11 149zM197 94q0 50 -32 50q-22 0 -63 -13q-12 -3 -30 -13q-12 -15 -12 -50
q0 -28 17 -38q13 -6 43 -6q43 0 60 14.5t17 55.5z" />
    <glyph glyph-name="quotedbl" unicode="&#x22;" horiz-adv-x="351" 
d="M315 596q0 -78 -27 -182q-5 -17 -35 -17q-45 0 -50 21q-12 44 -21 131q-7 68 -7 84q0 49 62 49q49 0 66 -24q12 -17 12 -62zM288 588q0 32 -6 44q-10 20 -44 20q-35 0 -35 -29q0 -1 7 -62q7 -66 10 -97q3 -42 28 -42q16 0 21 10q7 15 13 68t6 88zM135 596q0 -78 -27 -182
q-5 -17 -35 -17q-45 0 -50 21q-12 44 -21 131q-7 68 -7 84q0 49 62 49q49 0 66 -24q12 -17 12 -62zM108 588q0 32 -6 44q-10 20 -44 20q-35 0 -35 -29q0 -1 7 -62q7 -66 10 -97q3 -42 28 -42q16 0 21 10q7 15 13 68t6 88z" />
    <glyph glyph-name="numbersign" unicode="#" horiz-adv-x="567" 
d="M502 462q-14 -72 -54 -72q-5 0 -11 1l-22 5q-9 -60 -29 -128l16 1q15 0 30 -11t15 -28q0 -9 -5 -18q-24 -49 -30 -55q-19 -23 -58 -25q-13 -88 -15 -95q-18 -52 -71 -53q-43 -1 -43 49q0 34 22 96l-67 -1q-4 -27 -16 -79q-20 -58 -62 -58q-22 0 -39 15t-17 34q0 6 2 11
l26 74q-60 0 -60 40q0 13 5 39q14 67 53 67q6 0 11 -1l25 -5q7 43 28 128q-57 1 -57 43q0 5 10 61q4 17 18.5 32.5t33.5 15.5q4 0 9 -1l19 -5q7 64 28 103q12 44 57 44q44 0 44 -40q0 -6 -1 -13l-22 -95l67 1q10 47 19 94q20 56 67 57q21 1 33.5 -14.5t8.5 -35.5
q-2 -41 -20 -98q58 0 58 -41q0 -12 -6 -39zM326 154h-1q5 9 6 11q5 6 12 6q17 0 42 7q2 1 26 50q3 7 -22 7q-7 0 -32 -1q-10 -1 -14 5q-4 5 0 16q27 80 38 150q5 29 23 29q12 -4 37 -10q18 -1 22 20t12 47q4 14 3 16q0 1 -10 1q-12 -1 -45 -3l-5 6q1 -1 0 -3l-1 1
q-12 11 -7 24q23 65 25 111q3 12 -8 12q-22 0 -26 -20l-26 -109q1 -10 -4 -17.5t-15 -5.5l-113 -8q2 9 -2 16q-5 11 -4 16q10 33 24 90q4 17 3 24q-2 9 -11 9q-18 -1 -23 -22q-22 -39 -27 -102q-1 -24 -26 -24q-6 0 -17 3t-17 3q-14 0 -22 -26q-5 -19 -9 -39q-6 -16 -5 -18
h9q3 0 45 2q17 0 17 -17q0 -6 -3 -14q-9 -26 -18 -82t-15 -71q-8 -20 -28 -16q-13 3 -35 6q-14 1 -20 -13q-1 -4 -6 -28l-4 -23q-2 -10 13 -10q4 -1 40 3q12 3 14 -16h-2l4 -5l-37 -102q-2 -6 7 -10t14 -4q21 0 32 43q5 28 15 76q4 17 28 17l67 2q9 2 15 2q15 0 29 -20
q-11 -40 -26 -101q-4 -15 -3 -20q0 -7 8 -6q39 1 48 52q2 31 7 79zM309 251q0 -8 -9 -18t-16 -7l-92 2q-24 1 -24 17q0 4 2 8q23 59 28 75q9 33 11 79q0 21 20 25l108 3q18 -3 8 -29q-29 -81 -36 -155zM245 396q-3 -58 -30 -132l62 1q7 73 28 132z" />
    <glyph glyph-name="dollar" unicode="$" horiz-adv-x="477" 
d="M440 291q0 -42 -29 -81q-35 -44 -95 -63q-3 -4 -3.5 -43t-3.5 -44q-16 -16 -72 -16q-64 0 -84 13q-5 10 -5 28q0 7 1 19t1 16q0 13 -6 14q-50 7 -85.5 43.5t-35.5 77.5q0 28 7 42t28 18q47 8 81 8q40 0 40 -25v-7q-1 -5 -1 -7q0 -36 70 -36q23 0 27 7q1 2 1 20
q0 21 -4 25q-7 6 -50 22q-66 16 -131 32q-79 25 -79 94q0 46 35 82q26 27 91 63q1 29 2 67q33 25 110 25q21 0 38 -18t17 -46q0 -7 -2 -15q3 -4 16 -4q42 0 70 -41q24 -34 24 -72q0 -28 -53 -42q-45 -13 -76 -7q-4 2 -11 8q1 25 -2 56q-5 4 -26 4q-22 0 -44 -8
q-28 -9 -28 -24q0 -23 69 -41q99 -26 129 -41q69 -36 69 -103zM406 282q0 53 -51 84q-32 19 -105 37t-90.5 29.5t-17.5 39.5q0 67 112 67q30 0 37.5 -10t12.5 -58h18q18 -1 53 20q6 41 -24 63q-25 19 -70 20q-9 5 -9 39v37q-12 4 -30 4q-11 0 -38 -6q-31 -6 -38 -12
q3 -10 4 -36q1 -28 -4 -30q-61 -31 -82 -48q-38 -29 -38 -65q0 -44 22 -57q24 -16 69 -27q71 -17 75 -18l48 -12q31 -9 39 -22.5t8 -57.5q0 -35 -4 -41q-7 -12 -44 -12q-27 0 -60 9q-39 10 -46 24q0 14 -2 38q-10 8 -33 8q-43 0 -61 -14q0 -37 1 -40q13 -39 56 -56l60 -18
q9 -4 10 -38v-41q16 -4 44 -4q32 0 47 5q1 2 5 43q3 36 9 39q117 51 117 117z" />
    <glyph glyph-name="percent" unicode="%" horiz-adv-x="709" 
d="M662 204q0 -68 -34 -132q-44 -85 -121 -85q-7 0 -43 5q-21 2 -48 17q-21 11 -45 34q-27 25 -35 46q-11 -12 -20.5 -52t-19.5 -56q-5 -6 -17 -10h-19q-29 0 -65 23q-43 28 -43 64q0 18 14 50q27 59 77 175q1 2 -2 5q-5 -3 -13 -9q-27 -11 -59 -11q-13 0 -57 11
q-24 6 -56.5 38.5t-41.5 63.5q-11 39 -11 74q0 65 35 127q44 81 120 81q-3 0 39 -4q32 -4 74.5 -34t60.5 -67q6 22 20 64q5 6 10 9q26 12 43 12q28 0 57 -21q35 -25 35 -60q0 -5 -29 -71q-36 -85 -46 -110v-9q10 1 40 8q27 6 33 6q78 0 126 -62q41 -53 41 -120zM632 205
q0 56 -35 96q-38 45 -100 45q-22 0 -26 -2q-64 -18 -85 -67q-7 -17 -17 -55l-2 -6q-9 -34 -9 -56q0 -36 11 -57q13 -24 52.5 -48t63.5 -26q10 -1 25 -1q58 0 93 63q29 52 29 114zM459 557q0 20 -22 34q-18 11 -30 11q-19 0 -25 -5q0 -2 -3 -6l-43 -142q-27 -86 -89 -243
q-55 -140 -55 -139q0 -26 27 -44q22 -15 39 -15q15 0 21 18q9 26 37 128q4 13 10 34q59 198 100 294q33 77 33 75zM307 491q0 20 -8 49q-4 13 -11 21q-42 49 -97 60q-23 5 -36 5q-61 0 -95 -65q-27 -51 -27 -111q0 -58 38 -100q41 -45 103 -45q66 0 104 71q29 55 29 115z
M568 175q0 -29 -13 -50q-14 -26 -43 -26q-38 0 -70 35q-30 32 -30 65q0 26 13 47q17 25 46 25q40 0 68.5 -30t28.5 -66zM253 455q0 -72 -57 -72q-41 0 -69.5 30t-28.5 64q0 30 12 50q15 25 43 25q37 0 68.5 -31t31.5 -66zM537 168q0 27 -20 48.5t-46 21.5q-25 0 -25 -41
q0 -23 21 -43.5t45 -20.5q9 0 17 11t8 24zM223 455q0 21 -23 43.5t-48 22.5q-11 0 -17.5 -13t-6.5 -24q0 -27 19.5 -47t46.5 -20q29 0 29 38z" />
    <glyph glyph-name="ampersand" unicode="&#x26;" horiz-adv-x="700" 
d="M669 99q0 -42 -40 -74q-35 -29 -72 -29q-7 0 -11 1q-26 13 -56 37q-3 3 -8 3q-3 0 -30 -14q-31 -16 -48 -22q-61 -19 -95 -26q-27 -4 -89 -4q-214 0 -214 150q0 78 36 133q30 46 100 93q-36 43 -48 74q-15 35 -15 85q0 89 63 148.5t153 59.5q59 0 113 -41q60 -45 60 -107
q0 -39 -33 -88q-20 -31 -60 -73q-32 -35 -32 -39q0 2 4 -15q24 -34 60 -58q18 8 18 36v14q-1 10 -1 14q0 15 4 22t11 15q16 13 51 13q20 0 42 -5q68 -16 77 -52q6 -21 0 -114q0 -5 -4 -20t-4 -22t3 -13t26 -25.5t30 -31.5q9 -15 9 -25zM629 92q0 10 -6 17q-23 21 -52 51
q-7 12 -7 31q0 15 7 52.5t7 57.5q0 13 -2.5 25.5t-20.5 23.5q-27 16 -60 16q-19 0 -33 -11q-1 -2 -4 -50q-3 -31 -26 -48q-6 -4 -21 -4q-34 0 -72 48q-36 44 -36 71q0 10 62 80.5t62 113.5q0 49 -50 83q-44 29 -94 29q-58 0 -111 -45q-60 -50 -60 -120q0 -61 27 -109
q7 -13 30 -36q20 -20 20 -24q0 -15 -37 -38q-48 -30 -69 -59q-37 -49 -37 -128q0 -41 9 -52q20 -27 51 -39l48 -12q17 -5 77 -5q62 0 81 5q62 14 70 17q43 12 63 27q4 3 20 21q13 14 17 14q5 0 28 -21q30 -28 36 -33q19 -4 15 -4q17 0 42.5 16.5t25.5 38.5zM332 557
q0 -26 -35 -75q-39 -53 -71 -53q-19 0 -34 26q-10 20 -10 30q0 26 27 74q33 56 70 56q23 0 40 -22q13 -19 13 -36zM358 145q0 -28 -60 -49q-45 -15 -67 -15q-75 0 -75 88q0 25 12 50q17 34 45 34q22 0 82 -40q63 -43 63 -68zM299 546q0 8 -6.5 18.5t-17.5 10.5
q-15 0 -39.5 -36t-24.5 -48q0 -6 6 -14t14 -8q15 0 41.5 30.5t26.5 46.5zM310 143v14q-39 31 -63 47q-20 12 -34 12q-24 0 -24 -33q0 -66 46 -66q15 0 30 5q29 9 45 21z" />
    <glyph glyph-name="quotesingle" unicode="'" horiz-adv-x="175" 
d="M135 596q0 -78 -27 -182q-5 -17 -35 -17q-45 0 -50 21q-12 44 -21 131q-7 68 -7 84q0 49 62 49q49 0 66 -24q12 -17 12 -62zM108 588q0 32 -6 44q-10 20 -44 20q-35 0 -35 -29q0 -1 7 -62q7 -66 10 -97q3 -42 28 -42q16 0 21 10q7 15 13 68t6 88z" />
    <glyph glyph-name="parenleft" unicode="(" horiz-adv-x="310" 
d="M261 39q0 -22 -20 -44.5t-40 -22.5q-10 0 -27 8q-43 21 -91 102q-44 75 -63 155q-12 48 -12 113q0 103 29 176q15 36 25 53q16 26 48 56q37 36 60 41t21 5q19 0 35.5 -17.5t16.5 -33.5q0 -7 -1 -11q-20 -26 -40 -56q-15 -23 -25 -46q-4 -13 -12 -38q-23 -62 -23 -156
q0 -68 31 -135q18 -42 57 -96q31 -43 31 -53zM226 32q0 5 -31 54q-38 60 -58 106q-30 71 -30 130q0 38 7 83q10 55 21 91q5 15 18 42q9 19 34 57q21 32 21 35q0 20 -23 20q-11 0 -18 -6q-51 -37 -80 -83q-14 -21 -29 -74q-10 -36 -12 -67q-3 -25 -3 -60q0 -179 101 -313
q17 -22 44 -38q18 -5 13 -5q4 0 14.5 9t10.5 19z" />
    <glyph glyph-name="parenright" unicode=")" horiz-adv-x="310" 
d="M248 330q0 -47 -1 -58q-3 -23 -25 -84q-15 -42 -45 -95q-19 -32 -49 -64q-33 -36 -60 -49q-9 -4 -16 -4q-25 0 -41 32q-12 23 -12 38q0 14 5 20q91 123 103 221q5 39 5 59q0 52 -9 102q-1 10 -7 27q-19 65 -71 130q-12 14 -12 29q0 17 21.5 35.5t38.5 18.5q10 0 31 -12
q14 -8 43 -41q64 -72 93 -204q8 -39 8 -101zM213 334q0 55 -8 90q-16 65 -26 93q-20 51 -56 97q-35 43 -52 43q-6 0 -14.5 -8t-8.5 -17q0 -4 23 -38q26 -40 32 -52q24 -48 38 -144q2 -18 2 -47q0 -27 -5 -68q-4 -36 -26 -91.5t-44 -90.5q-37 -59 -37 -60q0 -6 6 -16t17 -10
q-4 0 15 4q25 19 50 49q63 74 90 201q4 22 4 65z" />
    <glyph glyph-name="asterisk" unicode="*" horiz-adv-x="328" 
d="M220 468q11 -22 11 -23q0 -18 -21 -33t-43 -15q-17 0 -28.5 14.5t-21.5 28.5q-8 -13 -29 -36q-10 -8 -24 -8q-21 0 -38 18t-17 42q0 33 36 57q-2 5 -20.5 19.5t-22.5 23.5q-3 6 -3 14q0 25 21 49t44 24q17 0 47 -31q3 5 3 18t6 22q14 18 33 18t38 -16.5t19 -35.5
q0 -7 -2 -20t-2 -20q14 8 26 8q18 0 29.5 -16.5t11.5 -39.5q0 -11 -3 -22t-21 -23q-14 -8 -29 -17zM134 621q0 1 1 -26q0 -14 -9 -24q-2 -3 -9 -3l-5 1h-1h1q-10 13 -19 26q-12 15 -26 15q-15 0 -28.5 -10.5t-13.5 -24.5q0 -16 28.5 -26.5t28.5 -27.5q0 -19 -23.5 -31
t-23.5 -30q0 -27 32 -27q21 0 33 19q17 27 24 32q5 -14 20 -39q9 -11 27 -11q26 0 26 21q0 9 -19.5 25.5t-19.5 24.5q0 7 10 13q30 -10 47 -10q29 0 29 25q0 18 -25 18q-4 0 -18 -3t-21 -3q-17 0 -17 17q0 5 10 22t10 22q0 27 -27 27q-14 0 -22 -12z" />
    <glyph glyph-name="plus" unicode="+" horiz-adv-x="733" 
d="M563 289q26 -6 37 -6q30 0 41 4q20 8 20 34q0 43 -16.5 54.5t-62.5 8.5l-155 -11h-41q9 105 9 238q0 31 -28 31q-6 0 -19.5 -1t-21.5 -1q-34 0 -42 -22q-3 -10 -3 -51q0 -109 4 -189q-77 8 -224 8q-32 0 -32 -28q0 -5 1.5 -19t1.5 -22q0 -34 22 -42q10 -3 51 -3
q79 0 188 5q2 -12 1 -38q-2 -36 -2 -50q0 -37 5 -73q-1 8 -1 -35q0 -36 5 -47q6 -16 29 -16q44 0 58.5 17t10.5 61l-13 190q54 9 106 9q41 0 71 -6zM432 630q0 -4 -16 -222l191 10q49 3 68 -16t19 -67q0 -84 -100 -84q-16 0 -65 2q-54 3 -112 3l17 -184q5 -48 -17.5 -67.5
t-72.5 -19.5q-84 0 -84 99q0 18 2 64t2 102q-173 -13 -162 -13q-108 0 -108 70q0 6 -1 22.5t-1 26.5q0 67 50 67q33 0 217 -15q-2 33 -8 97q-5 47 -5 65q0 108 69 108q7 0 23.5 1t25.5 1q68 0 68 -50z" />
    <glyph glyph-name="comma" unicode="," horiz-adv-x="296" 
d="M245 94q0 -37 -36 -123q-42 -103 -86 -103q-19 0 -50 18q-36 21 -36 43q0 10 32 49q-34 24 -39 30q-18 18 -18 43q0 23 11 55q13 37 29 48q32 23 73 23q120 0 120 -83zM209 96q0 42 -79 42t-79 -86q0 -23 23.5 -31t47.5 -15q1 -16 -21 -44t-22 -29q0 -12 19 -20
q14 -7 25 -7q15 0 18 5q17 25 40 82q28 69 28 103z" />
    <glyph glyph-name="hyphen" unicode="-" horiz-adv-x="285" 
d="M241 231q0 -60 -40 -76q-19 -8 -88 -8q-62 0 -81 9q-38 16 -38 74q0 55 17.5 75.5t70.5 20.5q52 0 106 -8q22 -4 31 -13.5t15.5 -33.5t6.5 -40zM207 249q0 30 -24 38q-13 5 -60 5q-54 0 -66 -5q-32 -11 -32 -57q0 -35 15 -44q40 -8 76 -8q57 0 70 8q21 12 21 63z" />
    <glyph glyph-name="hyphen" unicode="&#x2010;" horiz-adv-x="285" 
d="M241 231q0 -60 -40 -76q-19 -8 -88 -8q-62 0 -81 9q-38 16 -38 74q0 55 17.5 75.5t70.5 20.5q52 0 106 -8q22 -4 31 -13.5t15.5 -33.5t6.5 -40zM207 249q0 30 -24 38q-13 5 -60 5q-54 0 -66 -5q-32 -11 -32 -57q0 -35 15 -44q40 -8 76 -8q57 0 70 8q21 12 21 63z" />
    <glyph glyph-name="period" unicode="." horiz-adv-x="271" 
d="M224 75q0 -105 -137 -105q-48 0 -64.5 17.5t-16.5 64.5q0 129 92 129q21 0 60.5 -14.5t46.5 -25.5q19 -28 19 -66zM189 66q0 43 -17.5 57.5t-65.5 14.5q-49 0 -57 -31l-8 -84q13 -15 43 -15q38 0 66 11q39 15 39 47z" />
    <glyph glyph-name="slash" unicode="/" horiz-adv-x="504" 
d="M473 622q0 -11 -8 -29q-28 -61 -177 -325q-36 -62 -50 -84q-26 -43 -53 -86q-39 -61 -74 -99q-11 -12 -21 -14q-4 -1 -21 -1q-22 0 -44 15q-25 18 -25 44q0 8 4 21q2 7 32 48q99 136 213 331q35 69 110 209q16 29 41 30q-1 1 7 1q20 0 43 -19.5t23 -41.5zM439 619
q0 27 -29 27q-21 0 -31 -18q-23 -48 -66 -135q-30 -56 -133 -219q-21 -34 -92 -143q-51 -77 -51 -81q0 -11 13.5 -18.5t23.5 -7.5q8 0 5 1q22 4 37 27q72 113 112 183l181 317q8 14 22 38q8 16 8 29z" />
    <glyph glyph-name="zero" unicode="0" horiz-adv-x="521" 
d="M475 288q0 -117 -54 -202q-66 -102 -186 -102q-131 0 -191 116q-42 82 -42 205q0 147 50 239q68 123 217 123q33 0 37 -1q30 -4 53 -25q61 -54 92 -173q24 -90 24 -180zM438 308q0 63 -5 90q-14 81 -41 138q-47 97 -122 97q-33 0 -83.5 -16t-65.5 -33q-53 -57 -71 -146
q-11 -51 -11 -136q0 -277 208 -277q61 0 114.5 49.5t68.5 123.5q8 41 8 110zM336 357q0 -53 -14 -136q-15 -89 -28 -88q-4 -5 -9 -9q-18 -12 -40 -12q-30 0 -53 21q-18 17 -33 100q-12 70 -12 113q0 35 14 98.5t22 66.5q11 12 36 32q20 12 35 12q41 0 65 -80q17 -59 17 -118
zM303 371q0 36 -8 75q-12 69 -40 69q-18 0 -39.5 -24.5t-23.5 -41.5q-8 -62 -8 -119q0 -3 2.5 -24t2.5 -30q0 -29 8 -66q15 -60 45 -60q21 0 29 11q32 48 32 210z" />
    <glyph glyph-name="one" unicode="1" horiz-adv-x="348" 
d="M295 620l-17 -282l4 -205q7 -39 7 -71q0 -36 -68 -57q-47 -15 -83 -15q-21 0 -41 7q-27 8 -27 23v119l10 168v126q-7 9 -16 9q-4 0 -6.5 -1.5t-6.5 -1.5q-43 0 -43 67q0 30 5 35q17 18 99 80q87 64 98 64q22 0 53.5 -22t31.5 -43zM258 593q0 50 -52 50q-16 0 -164 -122
q-2 -19 7 -40q18 -3 35 -6q27 -7 27 -25v-112q0 2 1 -42q1 -40 1 -57q-1 -17 -6 -105q-4 -63 -2 -91q2 -4 10 -11q136 0 136 51q0 4 -5 58.5t-5 59.5v181z" />
    <glyph glyph-name="two" unicode="2" horiz-adv-x="514" 
d="M466 85q0 -31 -15 -49q-20 -24 -104 -38q-67 -11 -125 -11q-117 0 -189 32q-10 4 -20 31q-9 23 -9 35q0 85 77 171q17 19 141 130q77 68 77 109q0 43 -53 43q-13 0 -33 -8q-24 -11 -24 -24q0 -5 8.5 -21t8.5 -20q0 -34 -62 -62q-49 -22 -71 -22q-37 0 -49 28q-6 15 -6 50
q0 107 80 166q68 50 166 50q95 0 150 -69q49 -62 49 -148q0 -43 -17 -88q-21 -54 -56 -73q-22 -17 -68 -49q-32 -17 -64 -33q-40 -22 -62 -45q7 -12 21 -12q4 0 88 19t88 19q34 0 56 -48q17 -37 17 -63zM425 451q0 77 -35 128q-43 62 -131 62q-86 0 -144 -44
q-66 -49 -66 -138q0 -44 27 -44q96 26 96 50q0 3 -7 21.5t-7 22.5q0 32 37 48q27 12 57 12q84 0 84 -79q0 -53 -31 -79q-90 -75 -141.5 -116.5t-86.5 -106t-35 -109.5q0 -33 80 -47q45 -7 93 -7q119 0 196 35q11 5 11 28q0 11 -8 37t-14 30q-228 -35 -209 -35q-33 0 -33 40
q0 28 30 50l62 38q48 28 120 72q25 17 37 41q15 33 18 50v40z" />
    <glyph glyph-name="three" unicode="3" horiz-adv-x="518" 
d="M461 204q0 -109 -77 -167q-65 -50 -161 -50q-74 0 -138 29q-86 39 -86 113q0 60 35 94t95 34q29 0 44 -11q17 -14 17 -36q0 -10 -5.5 -32t-4.5 -32q1 -3 9 -9t14 -6q66 0 66 92q0 47 -55 67q-37 8 -73 16q-16 4 -25 27q-8 18 -8 31q0 42 40 63q36 14 72 27q39 18 39 53
q0 24 -7.5 32.5t-31.5 8.5h-19q-11 -3 -23 -18q10 -18 10 -34q0 -34 -42 -58q-36 -20 -70 -20q-27 0 -50.5 17.5t-23.5 44.5q0 19 15 64q5 10 15 31q22 55 90 83q52 21 110 21q91 0 143 -49t52 -136q0 -43 -16 -70q-20 -33 -70 -59q72 -23 100 -69q20 -34 20 -92zM423 210
q0 63 -35 93q-18 14 -66 30q-36 11 -36 29q0 22 28 34q42 19 51 27q28 25 28 78q0 70 -49 108q-44 35 -112 35q-176 0 -192 -174q13 -14 43 -14q45 0 69 28q1 7 -3.5 22t-4.5 17q-3 22 28 42q28 18 55 18q30 0 50 -22.5t20 -53.5q0 -47 -40 -70q-37 -13 -74 -27
q-40 -15 -40 -45q0 -25 41 -34q62 -14 78 -24q42 -26 42 -92q0 -19 -12 -65q-5 -22 -32 -41t-44 -19q-74 0 -74 52q0 11 3.5 31t3.5 28q0 19 -18 19q-94 0 -94 -88q0 -52 74 -82q56 -22 112 -22q89 0 141 42q59 47 59 140z" />
    <glyph glyph-name="four" unicode="4" horiz-adv-x="518" 
d="M493 273q0 -57 -12 -73q-6 -9 -37 -12q-5 -3 -9 -8q0 -15 2 -45q3 -33 3 -47q0 -35 -10 -56q-2 -4 -34 -22q-40 -23 -100 -23q-44 0 -49 12q-12 25 -12 63q0 10 3 50q1 34 0 58q-2 3 -8 9h-118q-42 0 -72 13q-40 18 -40 53q0 66 97 243q91 164 107 169q5 5 16 13
q8 5 33 5q38 0 86 -16q57 -18 80 -46q9 -10 9 -39l-14 -192q0 -41 23 -41q3 0 11.5 1.5t12.5 1.5q32 0 32 -71zM458 259v46q-15 -1 -48 3q-11 4 -16 10q-9 12 -10 30q-3 67 8 247q-6 11 -59.5 28.5t-74.5 17.5q-30 0 -45 -21q-23 -34 -90 -161q-85 -162 -85 -205
q0 -38 70 -38h126q11 0 26 -8.5t16 -17.5q1 -7 -1 -22q-1 -18 -1 -19v-102q0 -22 31 -22q17 0 49 7q40 10 46 21v148q0 17 23 24q14 3 27 6q9 18 8 28zM301 430q0 -20 -7 -69.5t-12 -53.5q-16 -16 -37 -21q-16 -5 -35 -5q-40 0 -63 22q5 40 47 128q45 94 66 94q41 0 41 -95z
M266 382v105q-15 -13 -29 -39q-10 -19 -19 -37q-37 -68 -37 -85q0 -6 5 -10q5 0 14.5 -2t13.5 -2q34 0 45 20q8 14 7 50z" />
    <glyph glyph-name="five" unicode="5" horiz-adv-x="518" 
d="M471 234q0 -41 -24 -109q-49 -141 -235 -141q-207 0 -207 135q0 111 80 111q37 0 73 -9q52 -13 52 -39q0 -6 -3 -19t-3 -20q0 -14 12 -23q7 -1 13 -1q37 0 55 56q12 38 12 79q0 45 -28 45q3 0 -62 -27q-20 -8 -69 -8q-43 0 -96 5q-13 1 -24.5 13t-11.5 66q0 78 16 177.5
t32 112.5t32 15q86 12 112 12q39 0 100 -7q72 -8 87.5 -19t25.5 -41q9 -24 9 -43q0 -35 -15 -40q-32 -10 -107 -13q-85 -3 -119 -9q-3 -5 -8 -12q-6 -17 -4 -47q9 -9 24 -9q4 0 40 3.5t40 3.5q38 0 87 -12t84 -81q30 -59 30 -105zM433 227q0 72 -39 119q-43 52 -120 52
q-5 0 -49.5 -5t-48.5 -5q-29 0 -37 9t-8 38q0 67 32 88q23 16 86 16h20q14 -1 21 -1q46 0 80 5q4 3 11 9q2 15 -5 36t-16 24q-54 16 -98 17q65 -2 -67 -2h-67q-46 -5 -57 -25q-13 -23 -22 -113q-7 -77 -7 -153q0 -22 8 -26q12 -7 39 -9q62 -6 65 -6q4 0 54.5 17t54.5 17
q67 0 67 -87q0 -53 -21 -96q-29 -60 -85 -60q-52 0 -52 49q0 12 3 28q1 2 -4 15q-43 14 -70 14q-28 0 -35.5 -3.5t-17 -36t-9.5 -40.5q0 -6 4 -31q3 -18 15 -24q64 -36 162 -36q163 0 205 149q8 29 8 57z" />
    <glyph glyph-name="six" unicode="6" horiz-adv-x="523" 
d="M474 232q0 -21 -23 -101q-20 -72 -91 -113q-60 -34 -128 -34q-107 0 -169 82q-55 72 -55 173q0 109 43 208q55 122 164 190q21 13 42 27q29 16 50 16q27 0 56 -35q26 -32 26 -56q0 -10 -27.5 -34.5t-80.5 -76.5q-8 -12 -27 -37v-8q10 -6 25 -2q14 3 27 3q68 0 121 -75
q47 -66 47 -127zM437 239q0 58 -35 106q-40 55 -104 55q-4 0 -35 -5t-36 -5q-13 0 -24 8q-2 69 146 188q-3 21 -17 39t-32 18q-20 0 -106 -62q-31 -23 -60.5 -60t-40.5 -65q-48 -124 -48 -225q0 -55 4 -70q19 -67 74 -104q49 -32 113 -32q87 0 145 65q56 62 56 149zM342 241
q0 -48 -22 -92q-30 -60 -84 -60q-44 0 -71 45q-22 35 -22 70q0 45 41 86.5t86 41.5q72 0 72 -91zM308 236q0 29 -4 39q-7 20 -33 20q-33 0 -63.5 -26.5t-30.5 -61.5q0 -23 13 -50q17 -34 46 -34q39 0 59 47q13 32 13 66z" />
    <glyph glyph-name="seven" unicode="7" horiz-adv-x="523" 
d="M464 543q0 -40 -5 -48q-65 -102 -115 -223q-38 -90 -81 -246q-3 -11 -16 -20q-25 -19 -75 -19q-120 0 -120 58q0 17 22 73q13 27 37 81q22 49 53 109q49 81 97 172v15q-4 3 -17 3q-4 0 -95 -18.5t-96 -18.5q-45 0 -45 57q0 33 10 71q12 44 28 49q85 29 224 29q82 0 97 -2
q63 -4 78 -26q19 -26 19 -96zM430 543q0 37 -8 58q-11 28 -151 28q-59 0 -106 -4q-76 -8 -102 -24q-17 -10 -19 -45q1 -26 1 -51q8 -7 15 -7l203 37q19 4 32 -11q10 -13 10 -25q0 -3 -53 -103q-62 -116 -83 -162.5t-43 -92.5q-21 -49 -34 -92q8 -8 34 -16t44 -8q17 0 40 7
q8 7 13 14q22 65 59 176q11 32 51 118q26 56 37 77q20 37 55 88q5 7 5 38z" />
    <glyph glyph-name="eight" unicode="8" horiz-adv-x="523" 
d="M481 189q0 -99 -86 -157q-71 -48 -159 -48q-95 0 -153 42q-69 48 -69 144q0 58 26 103q32 56 93 72q-4 8 -23 20q-23 15 -30 22q-35 35 -35 99q0 91 82 144q67 43 149 43q67 0 112 -40q49 -43 49 -112q0 -45 -22 -87q-26 -51 -73 -73q139 -32 139 -172zM443 183
q0 28 -15 66q-17 44 -38.5 57t-47.5 21t-28 9q-13 7 -13 21q0 18 26 34q35 22 47 37q25 33 25 90q0 122 -121 122q-25 0 -53 -5q-66 -11 -106 -52t-40 -95q0 -49 31 -79q16 -16 59 -37q31 -15 31 -28q0 -15 -38 -27q-51 -16 -72 -34q-38 -33 -38 -98q0 -83 54 -126
q50 -38 135 -38q64 0 125 37q77 47 77 125zM318 523q0 -36 -16 -67q-22 -39 -60 -39q-30 0 -52 28q-20 25 -20 51q0 34 28 60t65 26q55 0 55 -59zM342 190q0 -91 -90 -91q-96 0 -96 88q0 43 30 67t73 24q83 0 83 -88zM291 518q0 34 -25 34q-24 0 -45 -18t-21 -41
q0 -16 10.5 -29.5t26.5 -13.5q24 0 40 23q14 20 14 45zM308 185q0 63 -50 63q-71 0 -71 -61q0 -54 69 -54q4 0 5 1.5t5 1.5q27 0 36 14q6 11 6 35z" />
    <glyph glyph-name="nine" unicode="9" horiz-adv-x="523" 
d="M474 435q0 -44 -14.5 -123t-27.5 -107q-41 -95 -85 -136q-92 -88 -130 -88q-28 0 -71 22q-54 27 -54 64q0 13 31 37q52 41 66 55q41 40 59 86q-3 3 -11 1q-42 -15 -70 -15q-77 0 -122 71q-37 58 -37 123q0 108 72 180t181 72q104 0 163 -79q50 -68 50 -163zM437 432
q0 87 -41 142q-49 65 -141 65q-89 0 -148 -54q-62 -58 -62 -152q0 -50 23 -99q34 -70 99 -70q4 0 45.5 12t45.5 12q27 0 27 -30q0 -34 -38 -83q-25 -33 -70 -74q-37 -35 -37 -36q0 -11 30.5 -31t43.5 -20q31 0 97 72q58 63 77 102q49 95 49 244zM332 447q0 -16 -7 -42
q-8 -29 -17 -35q-50 -31 -91 -31q-39 0 -60 34q-17 29 -17 70t25 81q31 48 76 48q47 0 72 -50q19 -36 19 -75zM302 457q0 22 -16 50q-19 34 -47 34q-35 0 -52 -34q-14 -26 -14 -57q0 -81 43 -81q38 0 62 24t24 64z" />
    <glyph glyph-name="colon" unicode=":" horiz-adv-x="273" 
d="M224 339q0 -57 -29 -77q-22 -14 -80 -14t-80 15q-29 20 -29 76q0 116 99 116q119 0 119 -116zM217 80q0 -67 -27.5 -92t-91.5 -25q-60 0 -80 32q-12 21 -12 77q0 60 37 83q29 19 95 19q49 0 66 -26q13 -19 13 -68zM189 337q0 41 -15 58.5t-57 17.5q-50 0 -67 -23
q-12 -16 -12 -60q0 -32 23 -42q13 -5 47 -5q37 0 53 6q28 12 28 48zM178 75q0 39 -3 45q-9 15 -49 15q-34 0 -66 -12q-6 -3 -14 -10q-8 -18 -8 -41q0 -38 9 -52q12 -19 49 -19q47 0 62 12q20 15 20 62z" />
    <glyph glyph-name="semicolon" unicode=";" horiz-adv-x="273" 
d="M225 365q0 -55 -50 -80q-35 -17 -87 -17q-20 0 -41 1t-32 36q-8 26 -8 55q0 56 36 85q32 27 87 27q48 0 74 -36q21 -29 21 -71zM232 106q0 -47 -35 -135q-41 -104 -85 -104q-21 0 -51 19q-33 22 -33 43q0 7 11.5 27t20.5 26q-3 6 -12.5 10.5t-18.5 9.5q-12 7 -20.5 24
t-8.5 29q0 30 12 62q13 36 34 51q10 7 39 13t47 6q100 0 100 -81zM186 372q0 26 -14.5 43.5t-41.5 17.5q-88 0 -88 -84q0 -49 49 -49q35 0 60 13q35 19 35 59zM193 110q0 20 -31 30q-23 8 -48 8q-40 0 -60 -28q-16 -23 -16 -56q0 -27 23 -36q40 -15 48 -22q-16 -27 -46 -78
q27 -22 46 -22q29 0 59 92q25 79 25 112z" />
    <glyph glyph-name="less" unicode="&#x3c;" horiz-adv-x="998" 
d="M284 256l335 1h190q8 -1 35 -3q22 -3 35 -3q58 0 58 78q0 51 -52 51q-13 0 -48 -5q-31 -4 -46 -3q-26 2 -151 2q-45 0 -159 -1q-104 -1 -159 -1q-2 0 -21 -3t-30 -3q-22 0 -22 11q0 4 3 8q6 11 71 86q58 67 60 83q3 21 -34 45t-45 20q-19 -10 -80 -72q-2 -2 -42 -51
q-46 -56 -79 -95q-23 -25 -59 -76q-8 -14 -3 -28q17 -48 136.5 -153.5t163.5 -103.5q13 1 25 13q9 9 21 31t11 33q0 7 -11 18q-17 17 -57 41q-46 27 -61 39q-22 18 -22 29q0 5 5 7q11 0 32 5zM325 227q42 -27 100 -72q12 -14 12 -34q0 -38 -35 -76t-70 -38q-40 0 -125 64
q-59 46 -111 97q-108 108 -103 143q6 45 137 178q44 51 140 148q26 22 39 22q6 0 12 -3q3 -4 11 -10q31 -12 34 -14q8 -5 29 -25q16 -16 19 -22q5 -9 3 -30q-2 -37 -109 -146h27q263 5 456 -1q22 -1 60.5 4t52.5 5q68 0 68 -88q0 -61 -21.5 -83t-81.5 -22z" />
    <glyph glyph-name="equal" unicode="=" horiz-adv-x="472" 
d="M422 420q0 -57 -21 -68q-12 -7 -82 -7l-244 1q-47 4 -63 25q-11 13 -11 41q0 36 1 40q4 19 26 34q11 7 38 9l46 2q15 2 43 2q64 1 161 -4q32 -1 80 -16q10 -3 17 -17q9 -17 9 -42zM387 420q0 16 -8 31q-14 9 -35 9h-27q-27 3 -175 2q-2 0 -32 1q-26 2 -41 1
q-22 -2 -27 -8q-11 -13 -10 -44q0 -39 55 -38l74 2q72 2 98 1q12 0 41 -3q26 -2 29 -2q37 1 46 7q13 9 12 41zM422 210q0 -57 -21 -68q-12 -7 -82 -7l-244 1q-47 4 -63 25q-11 13 -11 41q0 36 1 40q4 19 26 34q11 7 38 9l46 2q15 2 43 2q64 1 161 -4q32 -1 80 -16
q10 -3 17 -17q9 -17 9 -42zM387 210q0 16 -8 31q-14 9 -35 9h-27q-27 3 -175 2q-2 0 -32 1q-26 2 -41 1q-22 -2 -27 -8q-11 -13 -10 -44q0 -39 55 -38l74 2q72 2 98 1q12 0 41 -3q26 -2 29 -2q37 1 46 7q13 9 12 41z" />
    <glyph glyph-name="greater" unicode="&#x3e;" horiz-adv-x="1019" 
d="M691 410l-335 -1h-190l-36 4q-22 2 -35 2q-58 0 -58 -77q0 -52 52 -52q13 0 48 5q31 4 46 3q26 -2 151 -2q45 0 159 1q104 1 159 1q2 0 21 3t30 3q22 0 22 -11q0 -3 -3 -8q-6 -11 -70 -85q-59 -68 -61 -84q-2 -21 36 -45q35 -24 43 -19q19 10 81 72q1 1 41 50
q46 56 80 95q22 25 59 77q7 13 2 27q-17 49 -135 153q-121 107 -165 104q-12 -1 -25 -13q-9 -9 -20.5 -30.5t-11.5 -32.5q0 -8 11 -18q17 -18 57 -42q46 -27 61 -39q23 -18 23 -29q0 -4 -6 -6q-11 0 -31 -6zM649 440q-42 26 -100 71q-12 14 -12 34q0 38 35 76t71 38
q39 0 124 -64q59 -45 111 -97q109 -108 104 -143q-7 -45 -138 -177q-44 -51 -140 -148q-25 -23 -39 -23q-6 0 -11 4q-6 1 -16 4q-24 10 -32 17q-13 13 -26 27q-17 16 -20.5 23.5t-2.5 28.5q2 37 110 146h-28q-263 -5 -456 1q-22 1 -59 -4q-40 -5 -54 -5q-68 0 -68 89
q0 61 21.5 83t82.5 21z" />
    <glyph glyph-name="question" unicode="?" horiz-adv-x="485" 
d="M441 482q0 -48 -25 -97q-10 -19 -63 -83q-49 -60 -61 -88q-3 -8 -15 -13.5t-20 -5.5q-27 0 -67 17q-48 20 -48 43q0 27 32 69q28 40 57 79q32 50 32 93q0 27 -5 36q-8 14 -35 14q-20 0 -32 -14.5t-12 -35.5q0 -10 5.5 -37.5t4.5 -41.5q-1 -25 -32 -39q-25 -11 -54 -11
q-33 0 -65 17q-40 21 -40 55q0 22 13 71q0 3 17 48q10 28 35 54.5t50 35.5q93 32 156 32q79 0 129 -66q43 -58 43 -132zM318 80q0 -46 -56 -76q-45 -25 -87 -25q-67 0 -67 100q0 59 21.5 81t78.5 22q110 0 110 -102zM403 474q0 32 -17 79q-22 58 -51 73t-43 17q5 -1 -31 -1
q-62 0 -112 -17q-66 -23 -83 -70q-9 -21 -19.5 -53.5t-10.5 -53.5q0 -43 65 -43q43 0 55 18q-2 13 -8 41q-6 24 -6 29q0 32 23 59.5t58 27.5q37 0 59 -21.5t22 -57.5q0 -21 -10.5 -52.5t-21.5 -47.5q-26 -31 -67 -86q-21 -37 -18 -54q4 -4 27.5 -16t29.5 -12q12 0 17 8
q49 61 124 161q18 30 18 72zM280 75q0 69 -67 69q-39 0 -55 -13t-16 -51q0 -67 42 -67q13 0 50 18q46 22 46 44z" />
    <glyph glyph-name="at" unicode="@" horiz-adv-x="757" 
d="M381 411q-45 0 -78.5 -49t-33.5 -119q0 -74 60 -74q56 0 84 64q9 21 32 116q-11 62 -64 62zM381 429q67 0 80 -81l-22 -94q-11 -46 -41.5 -74.5t-68.5 -28.5q-76 0 -76 92q0 76 37.5 131t90.5 55zM427 151q-39 -51 -116 -51q-130 0 -130 145q0 99 56.5 166.5t135.5 67.5
q65 0 96 -48l18 34h75l-60 -248q-3 -12 -3 -17q0 -25 29 -25q38 0 78 43q55 62 55 153q0 97 -70 159t-186 62q-139 0 -231 -89.5t-92 -229.5q0 -121 79 -194.5t213 -73.5q131 0 242 80l36 -54q-127 -99 -275 -99q-153 0 -252 79q-129 102 -129 259q0 141 81 244
q121 153 330 153q133 0 226 -70q108 -81 108 -225q0 -111 -67 -192t-163 -81q-72 0 -84 52zM311 118q48 0 75 19q23 16 51 61l1 -22q2 -58 73 -58q90 0 152 75t62 179q0 136 -104 212q-88 65 -214 65q-197 0 -311 -144q-78 -99 -78 -231q0 -156 116 -248q95 -76 243 -76
q139 0 252 85l-17 26q-107 -74 -238 -74q-139 0 -223.5 78t-84.5 208q0 147 96.5 242t242.5 95q121 0 196.5 -66.5t75.5 -172.5q0 -99 -60 -166q-44 -48 -89 -48t-45 43q0 8 3 22l55 225h-45l-26 -52q-19 37 -39.5 51.5t-57.5 14.5q-72 0 -124 -62t-52 -154q0 -127 114 -127
z" />
    <glyph glyph-name="A" unicode="A" horiz-adv-x="706" 
d="M682 87q0 -47 -84 -86q-68 -31 -107 -31q-88 0 -88 129q0 18 3 54q2 36 -8 44q-33 3 -78 -8q-49 -10 -70 -27.5t-42 -67.5q-22 -54 -43 -76.5t-76 -22.5q-51 0 -70 25q-16 21 -16 74q0 74 19 150q10 43 64 199q25 72 39 101q31 62 74 86q77 43 189 43q47 0 67 -19
q37 -34 73 -103q7 -14 52 -112q15 -34 55 -158q47 -149 47 -194zM644 108q0 47 -78 262q-22 58 -42 98.5t-40 82.5q-26 51 -53 75q-13 13 -60 13q-191 0 -241 -176l-52 -178q-36 -135 -36 -200q0 -52 61 -52q30 0 46 23q9 13 21 53q12 37 25 54q29 36 103 59q42 13 81 13
q34 0 46 -8q19 -13 21 -74q1 -32 2 -63q2 -37 9 -63q2 -7 12 -14.5t16 -7.5q27 0 87 31q72 36 72 72zM459 393q0 -53 -81 -85q-59 -24 -105 -24h-34q-25 0 -45 21t-20 43q0 57 46 119q52 71 119 71q46 0 85 -57q35 -49 35 -88zM418 395q0 20 -23 65q-13 27 -31 38
q-2 1 -21 1q-52 0 -91.5 -47.5t-39.5 -94.5q0 -25 20 -32q9 -3 48 -3q33 0 78 17q60 22 60 56z" />
    <glyph glyph-name="B" unicode="B" horiz-adv-x="635" 
d="M608 207q0 -4 -5 -23q-6 -22 -8 -31q-4 -33 -28 -69.5t-50 -49.5q-44 -21 -114 -39t-110 -18q-59 0 -132 24q-47 14 -70 25q-52 26 -63 60q-22 66 -22 189q0 104 22 188q25 98 69 136q15 13 56 34t63 27q55 17 57 17q30 7 76 7q75 0 134 -47t59 -113q0 -28 -26 -62.5
t-61 -57.5q5 -3 13 -8q44 -17 56 -24q40 -21 58 -54q26 -47 26 -111zM574 202q0 72 -41 115q-23 24 -76 48q-40 19 -40 34q0 19 45 56t45 69q0 25 -24 63q-28 41 -60 50q-44 12 -65 12q-81 0 -152 -30q-9 -4 -35 -14q-123 -48 -123 -325q0 -4 4 -53q4 -55 5 -77.5t2 -27.5
q2 -19 8 -26q29 -38 107 -60q61 -17 118 -17q68 0 149 28q106 37 116 99q1 5 9 26t8 30zM386 498q0 -43 -46 -68q-37 -21 -75 -21q-85 0 -85 75q0 46 46 70q36 19 81 19q33 0 56 -21.5t23 -53.5zM424 238q0 -50 -33.5 -82t-83.5 -32q-51 0 -84 25q-36 27 -36 75
q0 37 27.5 72.5t66.5 35.5q29 0 72 -15q50 -17 62 -38q9 -14 9 -41zM347 523q-13 15 -47 15q-88 0 -88 -54q0 -40 43 -40q27 0 57 14q39 18 39 47q0 9 -4 18zM386 230q0 27 -9 41q-50 27 -91 27q-27 0 -47 -33q-17 -27 -17 -51q0 -25 32 -40q26 -12 55 -12q77 0 77 68z" />
    <glyph glyph-name="C" unicode="C" horiz-adv-x="657" 
d="M622 205q0 -30 -55 -91q-50 -57 -82 -73q-60 -30 -90 -40q-41 -13 -85 -13q-109 0 -207 91q-101 94 -101 205q0 100 40 196q45 109 124 164q26 18 90 34t110 16q78 0 156.5 -76t78.5 -146q0 -27 -24.5 -53t-56.5 -39q-3 -3 -6.5 -6t-8.5 -3h-41q-41 0 -59 10
q-31 18 -40 75q-1 8 0 23q3 19 3 26q0 24 -13 40q-148 -34 -148 -162q0 -63 32 -128q36 -76 88 -76q41 0 82 35q21 18 67 71q10 13 41 13q12 0 27 -5q23 -8 50.5 -36.5t27.5 -51.5zM583 207q0 20 -20.5 34.5t-40.5 14.5q-16 0 -42 -30q-37 -41 -57 -55q-42 -30 -97 -30
q-74 0 -123 102q-37 79 -37 142q0 69 62.5 133.5t135.5 64.5q7 0 19.5 -10.5t14.5 -19.5q2 -13 2 -63q1 -39 10 -63q4 -8 20.5 -15t29.5 -7q25 0 60 20q42 24 42 55t-41 84q-37 47 -67 66q-41 26 -87 26q-35 0 -92 -12q-64 -14 -88 -31q-60 -44 -103 -148q-40 -96 -40 -174
q0 -89 74 -174q80 -91 182 -91q5 0 25 2q24 2 31 3q3 1 10 4q47 8 123 58q31 21 60 53q34 38 34 61z" />
    <glyph glyph-name="D" unicode="D" horiz-adv-x="658" 
d="M609 339q0 -69 -9 -115q-26 -125 -137 -185q-85 -46 -202 -46q-58 0 -117 12q-83 17 -91 48.5t-8 45.5q0 5 2 17t2 26l-49 401q0 53 113 102q83 36 115 39q57 5 59 5q106 0 189 -69q87 -73 128 -207q5 -16 5 -74zM574 332q0 82 -48 164q-55 95 -151 143q-4 2 -34 8.5
t-42 6.5q-106 0 -190 -55q-19 -10 -38 -21q-26 -14 -32 -26q-1 -2 -1 -28l42 -345v-80q0 -64 172 -64q322 0 322 297zM460 391q0 -73 -35 -147q-47 -98 -129 -98q-44 0 -74 20q-34 24 -34 69q0 11 8 114q10 118 17 171q2 15 41 34q36 17 54 17q63 0 110 -64q42 -57 42 -116z
M421 363q0 57 -21 104q-28 65 -85 65q-21 0 -25 -1q-13 -4 -25 -8q-15 -6 -17 -13q-10 -48 -19 -159q-6 -85 -6 -108q0 -30 21 -46t54 -16q51 0 90 67q33 59 33 115z" />
    <glyph glyph-name="E" unicode="E" horiz-adv-x="582" 
d="M551 124q0 -54 -102 -100q-51 -22 -86 -28q-26 -4 -91 -4q-172 0 -211 46q-8 9 -17 46q-7 28 -17 84q-20 153 -20 188q0 82 27 171q6 21 11 42q10 32 27 50.5t118 45.5q61 17 136 17q57 0 108 -9q75 -14 87 -41q5 -11 5 -41q0 -91 -93 -91h-134q-25 0 -49 -11
q-10 -5 -16 -18l9 -12q16 -2 95 -8q59 -4 100 -18q13 -5 24 -31q1 -4 1 -22q0 -62 -43 -82q-24 -11 -92 -14q-63 -2 -84 -19q5 -44 32 -57q15 -7 55 -7q4 0 48.5 3.5t49.5 3.5q45 0 77 -16q45 -22 45 -68zM512 126q0 40 -73 40q-5 0 -46 -1.5t-44 -1.5q-62 0 -90 11
q-50 22 -50 88q0 38 60 51q36 3 71 7q31 3 77 14q15 10 15 41q0 4 -5 13t-10 10q-58 9 -129 13q-39 2 -62 10q-11 4 -20 23q-7 16 -7 27q0 40 42 54q12 4 75 10q42 5 73 5q22 0 38.5 -2.5t15.5 -2.5q32 0 42 20q9 15 10 60q-34 32 -157 32q-75 0 -162 -24q-14 -5 -38 -10
q-49 -3 -74 -104q-18 -73 -18 -151q0 -149 42 -288q6 -18 64 -30q47 -10 87 -10q151 0 231 48q42 26 42 48z" />
    <glyph glyph-name="F" unicode="F" horiz-adv-x="503" 
d="M466 539q0 -35 -20.5 -54t-52.5 -19q-4 0 -33 1.5t-33 1.5q-49 0 -54 -1q-27 -3 -54 -18v-17q9 -13 25.5 -16.5t31.5 -5.5l98 -16q30 -10 30 -58q0 -30 -19 -57t-44 -27q-4 0 -53 10.5t-53 10.5q-20 0 -33 -12q-1 -32 4 -48q44 -139 44 -151q0 -36 -55 -60
q-42 -18 -75 -18q-6 0 -28.5 9t-27.5 13q-8 8 -11 18q-53 195 -53 357q0 180 63 245q20 21 88 38q61 15 69 16q4 1 46 1q65 0 119 -17q17 -5 33 -10q22 -8 29.5 -20t13.5 -48q5 -31 5 -48zM435 547q0 10 -5 30q-6 26 -14 34q-36 36 -150 36q-46 0 -53 -2q-35 -9 -69 -18
q-46 -12 -57 -24q-34 -35 -45 -94q-7 -39 -7 -117q0 -111 37 -263q6 -33 23 -94q4 -12 27 -12q14 0 48 12q42 14 42 32q0 4 -22.5 87.5t-22.5 88.5q0 66 71 66q5 0 50 -10.5t50 -10.5q14 0 24 22q8 18 8 36q0 5 -1 8q-15 11 -70 17q-61 7 -84 19q-41 20 -41 69q0 45 139 45
q5 0 36.5 -2t35.5 -2q50 0 50 47z" />
    <glyph glyph-name="G" unicode="G" horiz-adv-x="691" 
d="M646 217q0 -102 -33 -134q-19 -19 -65 -44q-42 -24 -73 -34q-48 -16 -130 -16q-104 0 -162 20q-87 31 -137 116q-40 70 -40 168q0 140 81 259q95 140 248 140q41 0 58.5 -3.5t71.5 -22.5t110 -82q58 -66 58 -115q0 -54 -63 -85q-45 -23 -84 -23q-23 0 -48 13
q-31 15 -31 38q0 13 5 49q4 32 3 52q0 16 -34 29q-27 11 -46 11q-110 0 -110 -181q0 -19 8 -103q3 -31 27 -81q33 -67 71 -67q29 0 66 16q47 22 47 55q0 12 -13 12q-5 0 -32 -5t-31 -5q-31 0 -49 39q-14 29 -14 53q0 10 6 25t13 17q31 12 117 12q89 0 131 -16
q74 -27 74 -107zM612 222q0 29 -5 37q-29 46 -166 46q-68 0 -101 -14q3 -17 6 -33q6 -22 25 -22q5 0 23.5 1.5t22.5 1.5q34 0 42 -4q20 -9 20 -48q0 -47 -51 -77q-42 -24 -90 -24q-83 0 -122 121q-26 79 -26 165q0 78 28 135q39 80 122 80q46 0 79 -23q35 -26 35 -68
q0 -20 -9 -42q-3 -9 1 -47q15 -8 44 -8q28 0 62 14q49 20 49 56q0 42 -61 102t-104 67q-103 19 -96 19q-140 0 -225 -126q-71 -107 -71 -234q0 -50 7 -80q10 -42 41 -88q67 -102 243 -102q168 0 257 98q7 7 13.5 39t6.5 58z" />
    <glyph glyph-name="H" unicode="H" horiz-adv-x="639" 
d="M596 311q0 -216 -40 -301q-6 -11 -40 -21q-29 -7 -48 -7q-31 0 -50 16.5t-22 61.5q-5 69 -4 84q2 29 -3 90q-3 26 -35 40q-23 11 -48 11q-15 0 -28 -7q-17 -9 -17 -23q0 -41 2 -65q2 -27 2 -22q0 -162 -131 -162q-27 0 -55 9q-36 11 -43 30q-26 65 -26 191
q0 105 14.5 217.5t35.5 174.5q12 36 53 36q39 0 91 -19q14 -5 21 -20q3 -7 3 -19q1 -8 0 -20q-2 -12 -2 -14v-105q0 -50 68 -50q74 0 74 74q0 18 -5.5 58.5t-5.5 59.5q0 73 71 73q107 0 147 -163q21 -85 21 -208zM557 332q0 98 -17 173q-32 138 -113 138q-33 0 -33 -45
q0 -14 4.5 -52t4.5 -58q0 -106 -110 -106q-61 0 -84 27q-19 21 -19 67q0 14 2.5 47.5t2.5 50.5q0 16 -1 30q-7 11 -35 19q-22 6 -35 6q-26 0 -29 -8q-43 -114 -43 -373q0 -121 12 -171q3 -13 34 -25q28 -11 45 -11q12 0 34.5 8.5t26.5 16.5q19 42 19 60v133q0 31 27 47
q22 13 53 13q37 0 71 -14q51 -21 51 -64v-142q0 -79 50 -79q14 0 18 1q30 6 35 21q29 87 29 290z" />
    <glyph glyph-name="I" unicode="I" horiz-adv-x="327" 
d="M292 607q0 -12 -19.5 -106t-19.5 -175l14 -254q0 -50 -18 -68.5t-65 -18.5q-53 0 -99 19q-65 27 -65 80q0 16 12 69t12 125q0 79 -19 182t-19 117q0 50 51 82q43 26 88 26q48 0 88 -15q59 -21 59 -63zM257 598q0 49 -101 49q-115 0 -115 -73q0 4 21 -127t21 -199
q0 -63 -16 -132q-5 -26 -5 -37q0 -28 41 -43q32 -13 67 -13q42 0 53 15q9 12 9 58l-10 155v151q0 4 17.5 98t17.5 98z" />
    <glyph glyph-name="J" unicode="J" horiz-adv-x="554" 
d="M506 154q0 -95 -106 -138q-68 -27 -156 -27q-234 0 -234 216q0 61 18 85q21 28 79 28q87 0 107 -46q2 -5 -3 -36q-7 -36 -7 -53q0 -46 39 -46q61 0 61 119q0 87 -32.5 182t-32.5 133q0 15 7 36q8 26 21 35q20 12 63 23.5t67 11.5q32 0 57 -18q28 -21 28 -55v-212z
M469 174l-21 224v179q0 63 -53 63q-25 0 -58 -10q-38 -12 -55 -28q-5 -5 -5 -27q0 -29 15 -86q11 -37 21 -74q22 -85 22 -145q0 -168 -96 -168q-28 0 -48 26t-20 56q0 5 7 35t7 34q0 14 -33 25q-25 9 -43 9q-65 0 -65 -75q0 -185 197 -185q85 0 141 24q87 36 87 123z" />
    <glyph glyph-name="K" unicode="K" horiz-adv-x="664" 
d="M638 116q0 -47 -53.5 -90.5t-93.5 -43.5q-49 0 -98 70q-17 25 -71 131q-37 70 -57 70q-6 0 -13 -10l-20 -110q-12 -69 -33 -109q-5 -9 -31 -17t-40 -8q-20 0 -48 8q-34 10 -46 24q-10 10 -17 70q-5 47 -5 75v252q0 31 9 94q2 26 5 53.5t18 59.5q6 15 52 29q41 13 65 13
q36 0 55 -41q15 -31 15 -73v-113q1 -3 6 -9h9q4 0 77 82q93 106 131 145q15 16 35 16q41 0 79 -57q33 -49 33 -80q0 -15 -6 -20q-16 -17 -117 -80q-90 -57 -90 -68q0 -16 66 -75q48 -43 77 -65q61 -44 92 -76q15 -16 15 -47zM601 112q0 27 -127 131.5t-127 137.5q0 17 20 32
q64 41 127 82q69 45 69 62q0 11 -23 48q-25 41 -44 41q-18 0 -125.5 -121.5t-137.5 -121.5q-18 0 -29 17q-11 14 -11 29v131q0 4 -3.5 23t-5.5 25t-9 15q-11 0 -59 -10q-12 -2 -29 -10.5t-19 -14.5q-22 -53 -22 -253l4 -180q4 -12 6 -73q1 -33 12 -48q16 -20 57 -20
q7 0 25 5q23 6 25 13q9 48 31 144q6 27 13 54q16 40 44 40q36 0 79 -68q36 -64 72 -127q42 -68 77 -68q26 0 64 23q46 29 46 62z" />
    <glyph glyph-name="L" unicode="L" horiz-adv-x="560" 
d="M527 105q0 -52 -32 -70q-79 -46 -271 -46q-75 0 -96 3q-57 7 -74.5 34t-29.5 161q-10 116 -10 211q0 105 -1 93q2 32 19 130q2 13 24 24q70 35 119 35h27q10 -3 26 -21q11 -12 19 -69q6 -40 6 -120l-17 -272q0 -31 28 -31q15 0 93.5 37.5t108.5 37.5q36 0 52 -63
q9 -36 9 -74zM496 99q0 19 -7.5 53.5t-14.5 43.5q-6 5 -20 5q-20 0 -91 -34t-110 -34q-35 0 -44 13q-7 10 -7 48l21 293q0 -10 -6 86q-3 45 -13 62q-6 11 -28 11q-13 0 -57.5 -13.5t-45.5 -18.5q-14 -76 -17 -131q-1 -18 -1 -109q0 -72 9 -216q2 -36 12 -96q3 -15 18 -21
q38 -14 130 -14q207 0 264 45q8 7 8 27z" />
    <glyph glyph-name="M" unicode="M" horiz-adv-x="785" 
d="M735 270q0 -112 -2 -133q-5 -83 -31 -120q-17 -25 -60 -25q-44 0 -87 18q-57 24 -50 65l28 166v57l-5 6q-24 -27 -56.5 -80t-48.5 -69q-26 -29 -55 -29q-60 0 -90 41q-18 24 -38 92t-41 96q-11 -8 -9 -15l45 -277q-10 -53 -80 -53q-22 0 -53 7q-40 9 -55 25
q-41 43 -41 264q0 235 73 342q9 13 37 22q25 7 44 7q17 0 67 -16q60 -20 82 -108q8 -49 33 -158q2 -6 14 -12.5t19 -6.5q16 0 27 19q8 15 63 129q37 77 72 124q7 8 38 16q45 11 94 9q4 -3 10 -11q9 -26 24 -75q32 -163 32 -317zM697 280q0 217 -39 345q-3 5 -10 14
q-24 -2 -47 -5q-28 -3 -37 -10q-27 -21 -42 -60q-29 -71 -43 -97q-18 -37 -35 -74q-32 -55 -69 -55q-60 0 -80 78q-16 73 -31 145q-28 78 -108 78q-50 0 -64 -28q-45 -97 -45 -300q0 -58 3 -101q5 -57 6 -69q5 -40 12.5 -65t86.5 -25q38 0 46 14q-3 32 -24 135
q-17 86 -17 147q0 56 42 56q25 0 45 -61q34 -106 38 -114q28 -61 75 -61q24 0 32 8q23 25 49 65q21 32 42 65q36 50 55 50q29 0 29 -68q0 -54 -13.5 -133t-13.5 -74q0 -25 35 -39q27 -11 57 -11q38 0 43 12q24 60 24 153q0 17 -1 45.5t-1 39.5z" />
    <glyph glyph-name="N" unicode="N" horiz-adv-x="653" 
d="M602 128q0 -52 -4 -67.5t-18 -29.5q-31 -30 -71 -38q-22 -4 -35 -4q-23 0 -34 12q-8 8 -25 37q-18 36 -53 103q-9 18 -31 58l-30 50q-23 33 -54 57q-14 12 -19 12q-15 0 -22 -16q-1 -3 -7 -55q1 -20 2 -51q-1 -17 0 -49q2 -37 2 -50q0 -62 -20 -100q-5 -11 -20 -14
q-26 -4 -30 -4h-21q-23 0 -56 15q-8 5 -14 13q-17 53 -23 103q-9 87 -9 192q0 148 25 285q5 29 21 48q18 23 49 29l54 8q5 2 21 2q15 0 21 -2q14 -3 21 -10q57 -62 119 -188q14 -30 45 -85h8q5 26 5 61q0 17 -1.5 52.5t-1.5 53.5q0 37 5 65q2 8 12 24t19 20q19 9 42 9
q12 0 41 -5q48 -8 72 -37q2 -3 12 -32l-3 -356q6 -75 6 -116zM572 111q0 4 -5.5 59.5t-5.5 59.5v281q0 11 5 55q3 29 -3 38q-10 17 -37 27q-23 8 -54 8q-19 0 -30 -5q-12 -23 -12 -65q1 -27 2 -55q2 -44 -5 -136q-4 -19 -25 -32q-1 0 -3 -2t-7 -2q-15 0 -29 19
q-30 44 -75 134q-13 28 -40 75l-22 38q-16 23 -30 27t-18 4q-8 0 -26 -4q-21 -6 -42 -11q-29 -8 -34 -20q-11 -26 -15 -72q-6 -73 -6 -76l-3 -179q10 1 13 -2q-14 -17 -14 -48q0 -72 4 -106q3 -37 6 -75q9 -30 52 -30q39 0 47 9t8 51q0 5 -2 50.5t-2 48.5v90q0 28 12 56
q14 34 38 34q16 0 29.5 -7.5t20.5 -13.5q47 -38 97 -122l66 -116l18 -38q11 -23 29 -30q3 -1 14 -1q35 0 59.5 23t24.5 61z" />
    <glyph glyph-name="O" unicode="O" horiz-adv-x="712" 
d="M670 323q0 -31 -10 -75q-7 -24 -18 -75q-14 -95 -124 -151q-89 -46 -185 -46q-112 0 -175 36q-20 12 -53 52q-30 37 -49 69q-49 84 -49 185q0 107 45 196q56 113 167 143q36 11 73 22q32 9 79 9q111 0 177 -58q48 -44 86 -144q36 -94 36 -163zM634 327q0 61 -31.5 143.5
t-75.5 126.5q-51 52 -167 52q-45 0 -73 -8q-8 -2 -72 -27q-169 -65 -169 -278q0 -74 35 -156q14 -35 42 -74q31 -43 56 -58q51 -30 149 -30q86 0 170 38q7 5 21 11q55 19 88 108q27 75 27 152zM552 355q0 -56 -65 -138q-69 -88 -129 -88t-83 23q-40 38 -65 98t-25 110
q0 73 59.5 140t134.5 67q76 0 128 -79q45 -67 45 -133zM517 360q0 55 -36 109q-42 63 -103 63q-56 0 -110 -64q-51 -60 -51 -111q0 -30 31 -98q32 -72 56 -83q18 -8 43 -8q58 0 115 70q55 66 55 122z" />
    <glyph glyph-name="P" unicode="P" horiz-adv-x="604" 
d="M562 435q0 -76 -23 -109q-35 -52 -135 -67q-18 -3 -94 -12q-30 -4 -58 -14q-1 -37 1 -53q2 -19 12 -67q8 -43 8 -47q0 -42 -62 -63q-41 -14 -77 -14q-42 0 -26 -1q-17 1 -32.5 12t-24.5 40q-7 23 -14 47q-13 41 -22 104l-12 100q3 4 0 78q12 75 25 150q20 82 68 128
q17 16 96 32q74 16 119 16q187 0 213 -105q4 -9 10 -25q28 -77 28 -130zM526 438q0 38 -24 109q-28 83 -70 93q-65 16 -116 16q-55 0 -118 -13q-81 -17 -95 -45q-61 -128 -61 -276q0 -73 14 -152q16 -91 43 -140q3 -5 28 -5q33 0 65 11q42 14 42 39q0 4 -10.5 72.5
t-10.5 73.5q0 45 27 52q67 9 134 19q85 13 133 54q19 17 19 92zM420 461q0 -67 -50 -98q-39 -25 -102 -25q-94 0 -94 122q0 121 108 121q61 0 99.5 -30.5t38.5 -89.5zM380 468q0 28 -1 33q-4 16 -36.5 30t-52.5 14q-81 0 -81 -100q0 -71 59 -71q23 0 56 9q37 10 44 20
q12 19 12 65z" />
    <glyph glyph-name="Q" unicode="Q" horiz-adv-x="683" 
d="M637 357q0 -160 -180 -252q5 -1 10 -1q11 0 42 8.5t50 8.5q55 0 55 -84q0 -105 -68 -105q-71 0 -199 34t-184 35q-11 0 -39 17q-33 19 -49 40q-77 98 -77 243q0 43 8 89q21 123 137 212q108 82 218 82q63 0 89 -13q80 -40 135 -138q52 -92 52 -176zM600 353q0 80 -61 177
q-73 118 -174 118q-85 0 -178 -58q-105 -67 -130 -164q-24 -91 -24 -114q0 -78 32 -159q40 -104 109 -120q35 -2 99 -9l118 -30q95 -23 145 -23q28 0 37 20q5 13 5 53q0 12 -5 26.5t-14 14.5q-5 0 -71.5 -12.5t-71.5 -12.5q-23 0 -27 2q-14 5 -14 27q0 18 59 46
q75 38 108 71q58 58 58 147zM497 372q0 -73 -61 -131.5t-130 -58.5q-68 0 -110 58q-38 50 -38 113q0 77 44 134q50 65 134 65q75 0 120 -58q41 -51 41 -122zM464 379q0 52 -36 95q-39 46 -95 46q-5 0 -19 -4t-19 -4q-15 -1 -54 -38q-40 -40 -40 -63q0 -8 4 -3
q-11 -15 -11 -50q0 -53 26 -94q34 -50 95 -50q55 0 102 53.5t47 111.5z" />
    <glyph glyph-name="R" unicode="R" horiz-adv-x="639" 
d="M604 64q0 -35 -9 -46q-17 -20 -64 -32q-42 -11 -82 -11q-82 0 -82 81q0 20 5.5 62t5.5 60q0 71 -68 71q-24 0 -49 -9t-31 -22q-11 -27 -29 -103q-15 -62 -32 -86q-26 -36 -76 -36h-22q-14 4 -25 22q-10 14 -17 65q-8 48 -17 146q-1 56 -2 90l-1 26q0 68 15 164
q17 109 36 109q2 0 8.5 4.5t9.5 6.5q20 9 60 23q20 6 57 15q100 20 151 20q57 0 115 -19q81 -27 90 -79q6 -16 15 -46q16 -82 16 -112q0 -44 -17 -65q-21 -25 -83 -44q-5 -2 -10 -8q5 -8 60 -61q48 -46 53 -73q19 -107 19 -113zM565 78q0 35 -12 81q-2 6 -11 20t-7 18.5
t-47 48.5q-52 45 -52 67q0 16 29 31q49 26 53 28q29 21 29 50q0 11 -7 56q-7 54 -15.5 83t-24.5 43q-23 21 -72 33q-43 11 -84 11q-42 0 -83 -7q-34 -6 -69 -13q-40 -7 -59 -13q-38 -12 -55 -31q-13 -15 -22 -117q-8 -83 -8 -145q0 -133 15 -267q1 -12 16 -20q11 -7 17 -7
q5 0 25 5q13 3 18 14q12 40 36 114q6 27 12 53q10 33 35 49q29 18 86 18q104 0 104 -79q0 -22 -6 -64.5t-6 -63.5q0 -29 5.5 -44.5t41.5 -15.5q28 0 83 10q15 2 29 12q6 16 6 42zM447 461q0 -108 -110 -108q-37 0 -88 11q-69 15 -75 40q-5 17 -5 50q0 80 47 110
q37 24 119 24q66 0 91 -33q21 -28 21 -94zM411 458q0 74 -36 89q-4 2 -49 2q-70 0 -88 -10q-33 -17 -33 -83q0 -31 4 -42q4 -7 57 -15q47 -7 67 -7q42 0 55 6q23 13 23 60z" />
    <glyph glyph-name="S" unicode="S" horiz-adv-x="620" 
d="M588 220q0 -61 -42 -125q-48 -72 -121 -93q-17 -5 -62.5 -13.5t-53.5 -8.5h-17q-133 0 -225 72q-34 27 -45 41q-16 20 -16 44q0 32 36.5 74t68.5 42q16 0 81 -51t115 -51q42 0 42 37q0 28 -138 83q-95 38 -137 84q-36 40 -36 124q0 106 95 167q80 52 180 52
q140 0 212 -113q17 -27 20 -34q1 -3 1 -23q0 -48 -55 -76q-41 -20 -79 -20q-31 0 -44 8q-25 16 -25 45q0 7 1.5 21t1.5 20q0 7 -1 12q-7 27 -62 27q-28 0 -53 -15q-31 -17 -31 -47q0 -33 37 -50q8 -3 168 -58q28 -9 55 -19q36 -13 58 -27q71 -44 71 -129zM549 214
q0 84 -100 128q-93 30 -185 60q-100 36 -100 103q0 42 41 69q36 22 78 22q69 0 86 -34q2 -4 7 -62q3 -33 40 -33q22 0 55 15q43 20 43 48q0 18 -28 52q-26 31 -53 51q-42 30 -126 30q-73 0 -142 -35q-92 -47 -92 -130q0 -120 88 -162q20 -11 56 -29q44 -19 88 -37
q83 -42 83 -80q0 -21 -20 -45q-24 -29 -54 -29q-39 0 -87 26q-28 15 -71 47q-34 25 -41 25q-19 0 -46.5 -28.5t-27.5 -49.5q0 -41 88 -81q72 -33 101 -33q5 0 36 -2t34 -2q63 0 123 27q75 33 102 97q24 55 24 72z" />
    <glyph glyph-name="T" unicode="T" horiz-adv-x="622" 
d="M589 552q0 -78 -75 -78l-117 14q-37 0 -37 -39q0 -5 1 -14t1 -12q0 -93 11 -182q20 -157 20 -147q0 -37 1 -32q-2 -18 -20 -35q-41 -40 -135 -40q-54 0 -71 25q-13 19 -13 71l25 280q0 55 -4 64q-11 26 -65 26q-4 0 -5 -2t-5 -2q-49 0 -69 17t-20 65q0 64 18 85
q13 15 44 24q25 6 51 13q112 34 217 34q134 0 215 -36q9 -5 13 -18q19 -59 19 -81zM554 552q0 14 -7 41.5t-11 29.5q-79 29 -195 29q-66 0 -188 -27q-82 -18 -98 -40q-11 -15 -8 -79q14 -13 22 -14q77 -6 108 -22q28 -14 33 -45q1 -9 1 -79q0 -76 -8 -147q-13 -109 -13 -118
q0 -39 9.5 -49t48.5 -10q28 0 59 8q40 11 46 28q2 4 2 29q0 2 -8 60q-8 62 -10 90q-3 50 -3 153q0 4 -1 19t-1 25q0 72 36 87q2 2 29 2q4 0 53 -5.5t54 -5.5q25 0 34 5q16 9 16 35z" />
    <glyph glyph-name="U" unicode="U" horiz-adv-x="650" 
d="M594 358q0 -29 -9 -111q-9 -90 -17 -112q-9 -27 -40 -59t-57 -46q-90 -47 -188 -47q-78 0 -141 34q-83 44 -97 132q-18 123 -18 117v247q0 9 -2.5 28.5t-2.5 28.5q0 26 13 39q22 22 74 39q46 15 74 15q53 0 69 -39q10 -22 10 -84l-32 -259q0 -42 4 -61q8 -33 48 -56
q35 -20 69 -20q72 0 68 83l-49 262v91q0 34 22 61q18 21 58 35q34 11 62 11q12 0 32 -6q26 -8 28 -20q8 -64 16 -186q6 -101 6 -117zM556 365q0 197 -19 272q-3 12 -36 12q-58 0 -81 -33q-18 -26 -18 -85q0 -64 24.5 -160t24.5 -144q0 -121 -100 -121q-70 0 -111 45t-41 121
l31 268q0 66 -22 87q-40 6 -88 -8q-58 -18 -58 -53v-237q0 -62 13 -138q16 -93 40 -116q60 -57 162 -57q74 0 150 32q98 40 112 110q2 9 9 91q8 88 8 114z" />
    <glyph glyph-name="V" unicode="V" horiz-adv-x="687" 
d="M647 592q0 -62 -51 -239q-42 -147 -63 -197q-14 -35 -29 -70q-19 -41 -44 -60q-43 -33 -142 -33q-34 0 -41 1q-13 2 -29.5 11.5t-26.5 27.5q-102 173 -160 368q-48 160 -48 196q0 49 78 75q54 18 104 18q48 0 60 -33q7 -38 14 -77q16 -95 31 -190q24 -142 62 -215
q10 0 14 13q25 91 43 208q26 165 27 170q6 36 11 73q13 37 62 37q45 0 80 -16q48 -22 48 -68zM608 612q-7 11 -37 19q-26 7 -42 7q-34 0 -39 -16q-13 -38 -37.5 -214t-52.5 -262q-4 -13 -12 -16h-18q-28 0 -38 20q-36 71 -63 209q-3 14 -37 218q-8 47 -21 69q-6 9 -26 9
q-29 0 -77 -18q-60 -23 -60 -50q0 -35 61 -208q52 -144 63 -168q36 -76 46 -95q26 -53 44 -76q10 -12 50 -12q12 0 102 15q14 3 30.5 18t22.5 28q132 315 141 523z" />
    <glyph glyph-name="W" unicode="W" horiz-adv-x="903" 
d="M851 601q0 -53 -43 -219q-4 -20 -14 -58q-31 -87 -62 -173q-41 -104 -83 -153q-5 -6 -39 -13t-52 -7q-41 0 -50 16q-19 31 -46 105q-20 57 -41 115q-1 3 -15 10q-29 -51 -51 -131q-19 -69 -37 -89q-29 -33 -99 -33q-37 0 -45 13q-25 39 -59 135q-17 50 -60 210
q-54 204 -54 265q0 46 29 62q19 11 68 11q16 0 48.5 -8.5t40 -14.5t18.5 -22q11 -36 27 -131q16 -102 26 -137q5 -18 16 -28h22q3 5 8 14q3 14 20 122q12 74 37 120q6 10 46 22q37 11 52 11q32 0 39 -23q11 -37 21 -100q14 -84 18 -101q8 -38 20 -58q16 6 19 39q0 22 1 44
q4 27 12 77q7 56 13 112q10 71 33 96q4 5 30 13q23 8 28 8q55 0 102 -30q56 -36 56 -91zM814 612q0 25 -52 49q-45 20 -74 20q-37 0 -51 -129q-3 -20 -7 -55q-8 -41 -19 -118q-4 -40 -18 -69q-10 -21 -32 -21q-27 0 -40 30q-4 7 -20 64q-6 24 -17 98q-8 62 -22 94
q-9 2 -30 -2t-31 -10q-14 -9 -18 -26q-13 -74 -35 -194q-12 -57 -56 -57q-13 0 -29 7q-21 8 -27 21q-19 44 -37 144q-12 73 -24 145q-2 9 -33 17q-26 6 -40 6q-53 0 -64 -15q-3 -59 28 -177q29 -103 58 -205q44 -161 76 -212q3 -6 28 -6q47 0 68 26q16 20 25 57q8 31 16 61
q16 54 19 60q25 56 55 56q8 0 21.5 -6.5t17.5 -14.5q18 -33 48 -135q3 -10 18 -51q6 -17 20 -41q6 -5 35 -5q30 0 56 13q9 7 14 14q33 79 67 159q42 104 60 182q46 207 46 226z" />
    <glyph glyph-name="X" unicode="X" horiz-adv-x="757" 
d="M747 101q0 -44 -90 -83q-74 -33 -109 -33q-49 0 -67 31q-16 27 -29 66q-57 160 -95 160q-17 0 -53 -78q-56 -119 -71 -145q-22 -37 -65 -37q-42 0 -101 48q-63 52 -63 100q0 36 52 76q38 25 76.5 50.5t120.5 90.5q-1 11 -40 39q-28 19 -55 38q-19 15 -66 38
q-43 22 -59 36q-26 23 -26 55q0 55 71 104q61 43 103 43q31 0 20 1q8 -1 25 -18l56 -90q47 -76 71 -76q20 0 46 48q43 79 51 90q35 48 76 48q51 0 102 -69q46 -62 46 -106q0 -33 -57 -61q-8 -4 -106 -40q-57 -21 -57 -39q0 -19 120 -113l104 -74q69 -56 69 -100zM703 106
q0 23 -75 83q-69 55 -139 110q-75 64 -75 99q0 23 58 50q14 7 107 44q58 23 58 34q0 25 -32 77q-39 60 -76 60q-17 0 -19 -2q-18 -13 -40 -46q-21 -37 -41 -73q-41 -62 -72 -62q-30 0 -69 47q-11 15 -61 89q-32 47 -46 47q-26 0 -78 -36q-59 -39 -59 -74q0 -15 63 -54
q117 -72 119 -73q63 -44 63 -71q0 -30 -64 -78q-60 -41 -120 -81q-65 -44 -65 -66q0 -27 51 -67q48 -37 70 -37q39 0 129 191q18 39 35 53q10 8 34 8q22 0 30 -8q43 -45 76 -118q21 -54 42 -107q8 -19 42 -19q23 0 81 21q73 27 73 59z" />
    <glyph glyph-name="Y" unicode="Y" horiz-adv-x="701" 
d="M659 575q0 -36 -55 -105q-32 -39 -101 -110q-53 -55 -52 -62t-4 -22.5t-5 -18.5q0 -5 13 -102t13 -102q0 -41 -50 -64q-38 -18 -80 -18q-53 0 -93 23q-45 27 -52 74l44 179q-5 27 -120 175q-111 143 -111 186q0 44 74 75q56 24 91 24q39 0 44 -1q20 -4 35 -29
q22 -35 53 -148q27 -99 49 -119q12 16 25 59q15 53 20 65q18 51 35 102q28 64 74 64q45 0 97 -38q56 -40 56 -87zM618 583q0 28 -36 52t-66 24q-31 0 -39 -15q-25 -45 -52 -140q-42 -149 -71 -149q-39 0 -74 115l-30 126q-9 39 -29 59q-15 15 -41 15q-24 0 -75 -19
q-62 -24 -62 -48q0 -17 105 -158l106 -140q6 -14 13 -28q3 -9 3 -24q0 -5 -20 -94.5t-20 -94.5q0 -24 49 -42q38 -15 63 -15t51 14q33 17 35 43l-26 191q-5 28 12 50q51 62 155 187q49 60 49 91z" />
    <glyph glyph-name="Z" unicode="Z" horiz-adv-x="658" 
d="M622 165q0 -22 -8 -51q-9 -36 -24 -47q-114 -85 -327 -85q-149 0 -208 30q-38 20 -38 67q0 116 95 216q48 51 177 139q95 66 95 97q0 22 -32 22q-36 0 -150.5 -60.5t-121.5 -60.5q-37 0 -58 54q-16 42 -16 87q0 23 9.5 47t20.5 31q34 19 133 35q87 14 141 14
q94 0 230 -27q8 -2 37 -19q13 -7 21 -38q5 -24 5 -43q0 -137 -158 -230q-47 -27 -97 -63q-85 -60 -85 -84t31 -24q9 0 120.5 48t148.5 48q22 0 25 -2q14 -8 25 -47q9 -32 9 -54zM581 169q0 58 -31 58q-25 0 -100 -31l-84 -36q-60 -24 -79 -24q-61 0 -61 58q0 52 65 99
q59 37 118 75q35 25 70 51q42 33 60 58q28 38 28 89q0 9 -4 27q-6 26 -15 32q-58 34 -216 34q-17 0 -148 -13q-71 -8 -129 -28q-12 -5 -12 -48q0 -63 27 -94q25 6 66 25q61 30 63 31q36 18 72 35q50 23 81 23q65 0 65 -59q0 -42 -93 -111q-143 -109 -171 -136
q-92 -91 -92 -187q0 -25 8.5 -37.5t70.5 -26.5q59 -15 92 -15q2 0 23 1q30 2 72 3q52 2 121 22q83 24 117 59q16 17 16 66z" />
    <glyph glyph-name="bracketleft" unicode="[" horiz-adv-x="244" 
d="M179 737v-21q0 -16 -11.5 -27t-27.5 -11h-27v-712h27q16 0 27.5 -11.5t11.5 -27.5v-21q0 -16 -11.5 -27t-27.5 -11t-48 -1t-48 -1t-27.5 11t-11.5 27v830q0 16 11.5 27.5t27.5 11.5h3q15 7 35 7q10 0 29.5 -2t28.5 -2q16 0 27.5 -11.5t11.5 -27.5zM154 737q0 14 -14 14
q8 0 -43 3q-28 2 -42 -5q-3 -1 -6 -1h-5q-14 0 -14 -14v-830q0 -13 14 -13q16 0 48 1t47 1t15 13v21q0 14 -14 14h-39q-13 0 -13 12v737q0 13 13 13h39q14 0 14 13v21z" />
    <glyph glyph-name="backslash" unicode="\" horiz-adv-x="504" 
d="M0 622q0 -11 8 -29q28 -61 177 -325q35 -62 49 -84q27 -43 53 -86q40 -61 75 -99q10 -12 21 -14q3 -1 20 -1q22 0 44 15q26 18 26 44q0 8 -5 21q-2 7 -32 48q-98 136 -212 331q-36 69 -110 209q-17 29 -41 30q0 1 -7 1q-21 0 -43.5 -19.5t-22.5 -41.5zM34 619q0 27 28 27
q21 0 31 -18q23 -48 67 -135q30 -56 133 -219q20 -34 92 -143q51 -77 51 -81q0 -11 -13.5 -18.5t-24.5 -7.5q-7 0 -5 1q-22 4 -37 27q-72 113 -112 183l-181 317q-8 14 -21 38q-8 16 -8 29z" />
    <glyph glyph-name="bracketright" unicode="]" horiz-adv-x="244" 
d="M5 -92v21q0 16 11.5 27.5t27.5 11.5h27v712h-27q-16 0 -27.5 11t-11.5 27v21q0 16 11.5 27.5t27.5 11.5t48 1t48 1t27.5 -11.5t11.5 -27.5v-830q0 -16 -11.5 -27t-27.5 -11h-3q-15 -7 -36 -7q-9 0 -28.5 2t-28.5 2q-16 0 -27.5 11t-11.5 27zM30 -92q0 -13 14 -13
q-8 0 43 -4q28 -2 42 5q3 1 5 2h6q14 0 14 13v830q0 14 -14 14q-16 0 -48 -1t-47 -1t-15 -14v-21q0 -13 14 -13h39q13 0 13 -13v-737q0 -12 -13 -12h-39q-14 0 -14 -14v-21z" />
    <glyph glyph-name="asciicircum" unicode="^" horiz-adv-x="386" 
d="M178 748q-21 -18 -66 -51q-13 -9 -27 -1q-29 16 -29 27q0 9 15 23q25 27 79 73q25 16 48 16q33 0 85 -53q41 -42 41 -52t-14.5 -21.5t-25.5 -11.5q-15 0 -46 22q-21 15 -42 29q-4 3 -18 0zM279 722q12 8 12 13q0 4 -17 14q-9 5 -26 24t-28 25q-15 9 -29 9q-23 0 -53 -30
q-37 -37 -50 -43q-8 -3 0 -13q5 -6 16 4q14 14 62 47q18 13 34 4q27 -18 79 -54z" />
    <glyph glyph-name="underscore" unicode="_" horiz-adv-x="564" 
d="M-12 -63h585v-52h-585v52z" />
    <glyph glyph-name="grave" unicode="`" horiz-adv-x="416" 
d="M126 757q63 -28 160 -48q16 -4 30 15t14 26t-7 13q-30 23 -97 60q-51 29 -64 34.5t-24 5.5q-25 0 -45 -27q-15 -20 -15 -35q0 -23 48 -44zM145 771q-37 17 -37 32q0 10 9 22q12 16 24 16q7 0 16 -4q40 -23 120 -68q25 -13 25 -24q0 -4 -3 -8t-11 -3q-9 1 -17 3
q-59 4 -126 34z" />
    <glyph glyph-name="a" unicode="a" horiz-adv-x="503" 
d="M458 159q0 -31 -7 -83q-7 -62 -17 -68q-36 -22 -80 -22q-36 0 -43 11q-3 5 -1.5 19t-4.5 18q-63 -37 -142 -37q-165 0 -165 133q0 77 103 132q49 26 145 54q33 9 33 28q0 36 -41 36q-15 0 -38 -7t-26 -16q-4 -9 1 -23q-10 -23 -42 -38q-27 -12 -51 -12q-27 0 -52 17
q-28 19 -28 46q0 51 68 103q63 49 115 51q7 1 20 4q33 5 48 5q68 0 122 -48q56 -51 66 -128q1 -5 4 -13q13 -82 13 -162zM426 166q0 121 -20 186q-40 124 -154 124q-24 0 -67 -8q-37 -7 -80 -33q-62 -37 -62 -81q0 -36 39 -36q65 0 65 41q0 9 -4 19q6 16 40 26q26 7 51 7
q76 0 76 -69q0 -33 -71 -63q-66 -27 -132 -55q-71 -38 -71 -90q0 -16 7 -37q7 -24 18 -31q49 -32 127 -32q82 0 144 55q10 -7 10 -20q0 -5 -2 -15t-2 -14q0 -11 11 -16q49 -4 62.5 12.5t13.5 33.5q0 47 -1 38q2 19 2 58zM330 166q0 -33 -56 -55q-40 -15 -67 -15
q-55 0 -55 56q0 46 41 71q33 20 77 20q24 0 42 -26.5t18 -50.5zM299 162q-3 16 -8 33t-27 17q-14 0 -39 -9q-28 -9 -33 -17.5t-5 -28.5q0 -30 22 -30q14 0 51 14.5t39 20.5z" />
    <glyph glyph-name="b" unicode="b" horiz-adv-x="536" 
d="M496 195q0 -49 -11 -81q-16 -41 -78 -79q-58 -35 -96 -35q-31 0 -61 15q-21 10 -67 43q-5 -4 -10.5 -25.5t-22.5 -31.5q-21 -11 -58 -11q-41 0 -50 21q-35 81 -35 259q0 67 1 78q16 191 55 298q3 10 15.5 19t58.5 9q59 0 86 -10q47 -17 47 -67q0 -27 -16 -69
q-12 -32 -25 -63q19 -2 45.5 4.5t42.5 6.5q114 0 155 -104q24 -60 24 -177zM462 195q0 50 -15 139q-18 108 -134 108q-32 0 -73.5 -14t-39.5 -14q-6 0 -12.5 9t-6.5 17q0 6 27.5 66t27.5 88q0 32 -24 43q-16 6 -58 6q-50 0 -61 -15t-30 -128t-19 -163v-147q0 -57 15 -134
q3 -17 17 -35q14 -2 36 2.5t30 12.5q11 12 12 35t12 32l64 -40q48 -29 71 -29q26 0 72.5 22t62.5 48q26 39 26 91zM376 217q0 -107 -71 -107q-42 0 -90 25q-61 33 -61 82q0 4 2.5 19t3.5 23q5 128 102 128q55 0 88 -68q26 -52 26 -102zM346 229q0 29 -21 74q-26 56 -62 56
q-75 0 -75 -128q0 -39 34 -65t77 -26q47 0 47 89z" />
    <glyph glyph-name="c" unicode="c" horiz-adv-x="481" 
d="M444 180q0 -27 -17 -63q-52 -113 -197 -113q-105 0 -172 86q-59 76 -59 170q0 107 76 181q72 69 165 69q45 0 66 -12q53 -29 89 -71q42 -48 42 -93q0 -32 -52 -55q-42 -19 -71 -19q-27 0 -44.5 15t-17.5 40q0 4 7 21t7 22q0 10 -20 19q-16 6 -26 6q-30 0 -51 -40
q-16 -31 -16 -50q0 -33 23 -68q26 -40 61 -40q43 0 83 32.5t57 32.5q29 0 48 -23.5t19 -46.5zM409 178q0 15 -8 28t-22 13q-5 0 -24 -18q-24 -22 -43 -33q-32 -17 -67 -17q-51 0 -89 47q-34 43 -34 91q0 35 27 78q33 51 74 51q17 0 38 -12q25 -13 31 -32q2 -5 -7 -50
q-2 -8 2 -19q14 -14 28 -14t46 16q38 19 38 39q0 43 -55.5 88t-106.5 45q-54 0 -116 -43q-68 -47 -84 -109q-7 -30 -7 -63q0 -79 52 -147q59 -76 146 -76q9 0 54 4.5t86 47.5t41 85z" />
    <glyph glyph-name="d" unicode="d" horiz-adv-x="539" 
d="M485 258q0 -175 -32 -236q-8 -16 -31 -26t-43 -10q-51 0 -59 46q-1 2 -4 6q-79 -41 -118 -41q-89 0 -148 79q-51 69 -51 147q0 93 50 165q55 81 142 81q15 0 47 -5q6 -4 20 -9h16q1 9 1 19q0 23 -11 72.5t-11 69.5q0 39 36 59q28 16 68 16q84 0 105 -86q8 -67 17 -134z
M451 272q0 170 -25 343q-6 42 -74 42q-69 0 -69 -44q0 8 16 -85q11 -59 9 -95q-13 -12 -23 -12q-4 0 -43.5 8.5t-43.5 8.5q-88 0 -129 -72q-32 -56 -32 -138q0 -71 43 -128q49 -66 128 -66q26 0 64 16t57 36q6 -11 14 -31t13 -31q17 -2 41.5 4.5t28.5 17.5q25 73 25 226z
M345 226q0 -123 -103 -123q-95 0 -95 140q0 127 94 127q55 0 84 -56q20 -40 20 -88zM314 226q0 50 -9 71q-16 38 -64 38q-43 0 -56 -26q-8 -15 -8 -56q0 -119 74 -119q63 0 63 92z" />
    <glyph glyph-name="e" unicode="e" horiz-adv-x="496" 
d="M456 313q0 -70 -58 -91q-26 -10 -93 -10q-3 0 -38.5 2t-39.5 2q-31 0 -42 -6q1 -28 41 -44q29 -12 55 -12q5 0 52.5 15.5t52.5 15.5q25 0 40 -25q13 -19 13 -38q0 -46 -63 -88q-53 -36 -93 -40q-45 -4 -56 -4q-105 0 -167 79q-56 71 -56 169q0 105 57 179q65 86 181 86
q64 0 123 -28q77 -37 88 -102q3 -17 3 -60zM425 317q0 52 -5 66q-3 7 -18 21l-20 20q-36 45 -137 45q-74 0 -117.5 -32t-80.5 -113q-9 -20 -9 -83q0 -143 121 -201q34 -16 68 -16q37 0 96 20q85 30 85 79q0 28 -22 28q-5 0 -58.5 -15.5t-58.5 -15.5q-36 0 -74 23
q-46 28 -46 70q0 9 2 18q2 3 18 9t19 6h170q24 0 47 27q20 24 20 44zM326 344q0 -26 -43 -39q-27 -7 -55 -7q-84 0 -84 31q0 34 44 63q38 26 69 26q28 0 50 -26q19 -24 19 -48zM292 353q0 9 -11 23t-22 14q-14 0 -41 -12q-33 -15 -33 -32q0 -24 38 -24q69 0 69 31z" />
    <glyph glyph-name="f" unicode="f" horiz-adv-x="454" 
d="M427 565q0 -31 -20 -49t-50 -18q-25 0 -37 8q-17 11 -23 45q-18 -10 -18 -41q0 -25 9 -26q68 -8 96.5 -33t28.5 -72q0 -37 -25 -51q-16 -9 -53.5 -13.5t-48.5 -13.5q49 -210 49 -228q0 -38 -36 -60q-30 -18 -72 -18q-122 0 -122 105v180q0 4 -2 13t-2 11q-9 10 -32 14
q-28 4 -33 7q-33 19 -33 59q0 27 10 51q12 30 33 36q9 3 53 6q2 1 5 5q35 119 46 141q41 80 116 80q52 0 104 -39q57 -43 57 -99zM396 567q0 41 -44 72q-39 28 -80 28q-65 1 -95 -57q-12 -22 -34 -108q-15 -58 -40 -58q-6 0 -18.5 2t-18.5 2q-15 0 -22 -13q-9 -18 -9 -49
q0 -33 38 -38q45 -6 56 -26q8 -16 11 -38q1 -16 0 -40q-2 -33 -2 -38q0 -102 4 -124q5 -32 21 -36q42 -12 70 -12q24 0 44 8q32 12 26 39l-49 215q-3 16 14 32t41 16q39 1 54 6.5t15 32.5q0 44 -34 53q-32 3 -63 7q-34 9 -34 56q0 91 46 91q23 0 33.5 -30.5t26.5 -30.5
q43 0 43 38z" />
    <glyph glyph-name="g" unicode="g" horiz-adv-x="552" 
d="M526 482q0 -33 -32 -50.5t-32 -25.5q0 -4 12 -21q14 -21 18 -30q19 -47 19 -80q0 -127 -159 -169q5 -7 32 -18q35 -14 45 -20q65 -39 65 -105q0 -76 -109 -114q-74 -27 -150 -27q-64 0 -130 30q-85 39 -85 104q0 54 47 85q19 12 98 42q-1 4 -17 10q-139 58 -139 198
q0 80 64.5 154t146.5 74q34 0 65 -9t35 -9t25.5 10.5t29.5 13.5q37 12 74 12q77 0 77 -55zM494 470v19q-3 12 -45 12q-36 0 -60 -8q-11 -4 -33.5 -15.5t-26.5 -11.5t-19.5 6t-18.5 7q-20 4 -50 4q-78 0 -136 -53q-61 -57 -61 -141q0 -73 43 -115q22 -21 81 -50
q43 -20 43 -40q0 -24 -41 -40q-37 -13 -75 -27q-40 -19 -40 -52q0 -58 88 -85q54 -16 112 -16q57 0 115 18q88 26 88 80q0 35 -34 65t-73 38q-70 13 -70 43q0 14 51 29q65 19 94 40q50 36 50 100q0 48 -19 82q-4 7 -24 30q-17 19 -17 24q0 9 33 29q43 26 45 28zM373 287
q0 -39 -27.5 -61t-65.5 -22q-46 0 -84 24q-45 29 -45 75q0 53 33 81.5t87 28.5q16 0 41 -5t45 -51q16 -40 16 -70zM356 -40q0 -24 -43 -41q-33 -12 -55 -12t-55 12q-45 17 -45 44q0 28 46 47q35 14 62 14q26 0 55 -17q35 -19 35 -47zM338 294q0 33 -14 56q-18 31 -55 31
q-83 0 -83 -74q0 -68 87 -68q65 0 65 55zM313 -34q-4 8 -24 17t-31 9q-28 0 -57 -18q-4 -4 -4 -13q18 -19 67 -19q18 0 41 8q8 6 8 16z" />
    <glyph glyph-name="h" unicode="h" horiz-adv-x="529" 
d="M482 176q0 6 2 -30q1 -31 0 -55q-1 -32 -6 -49q-10 -28 -56 -43q-34 -11 -69 -11q-86 0 -90 53l32 220q5 39 -23 39q-34 0 -50.5 -31.5t-22.5 -136.5q-5 -97 -26 -121q-17 -19 -58 -19q-58 0 -73.5 32.5t-28.5 135.5q-12 95 -12 159q0 87 20 199q32 185 99 185
q41 0 83 -34t42 -76q0 -28 -9 -68t-9 -56q0 -13 3 -25q10 10 30 27q38 30 74 30q50 0 92.5 -42t52.5 -104zM454 287q0 8 -3 11q0 23 -5 60q-12 41 -41.5 72.5t-61.5 31.5q-36 0 -74.5 -33.5t-44.5 -33.5q-13 0 -25 16t-10 30l21 136q-3 38 -12 51q-13 17 -36.5 28t-38.5 11
q-44 0 -68 -176q-15 -113 -15 -188q0 -190 33 -263q4 -9 29 -9q44 0 53 18q14 27 16 113q2 83 22 117q13 22 39 40.5t47 18.5q34 0 44 -30q4 -13 4 -56q0 -53 -25 -210q32 -18 62 -18q88 0 95 93q-2 85 -5 170z" />
    <glyph glyph-name="i" unicode="i" horiz-adv-x="278" 
d="M234 583q0 -51 -49 -76q-37 -20 -84 -20q-94 0 -94 78q0 62 40 98t104 36q83 0 83 -116zM230 399q0 -5 -8.5 -75t-8.5 -74l14 -184q0 -37 -9 -49q-21 -29 -97 -29q-75 0 -102 33q-9 11 -9 36q0 28 4 84l4 56l-18 198q0 78 115 78q38 0 71 -15q44 -20 44 -59zM198 588
q0 76 -60 76q-42 0 -67 -22q-28 -24 -28 -70q0 -30 19 -39q13 -7 44 -7q45 0 64 9q28 13 28 53zM195 395q0 39 -73 39q-58 0 -74 -16q-9 -9 -9 -42q0 -5 5.5 -66t5.5 -66v-140q0 -4 -1.5 -19t-1.5 -21q2 -19 34 -31q24 -9 45 -9q62 0 62 38l-7 232q2 16 8 59q6 38 6 42z" />
    <glyph glyph-name="j" unicode="j" horiz-adv-x="396" 
d="M343 574q0 -37 -18 -63q-23 -31 -63 -31q-43 0 -81 15q-50 20 -50 57q0 7 8 41.5t15 49.5t53 32q40 14 58 14q38 0 61 -46q17 -36 17 -69zM357 -15q0 -73 -61 -130q-57 -54 -123 -54q-45 0 -103 25q-70 31 -70 74q0 37 35 66t69 29q26 0 54 -39q5 0 12 6q-2 55 -21 156
q-18 96 -18 151q0 110 37 156q10 13 53 24q37 10 60 10q45 0 45 -50q0 -9 -1.5 -25.5t-1.5 -22.5q1 -68 10 -226q2 -13 13 -81q11 -64 11 -69zM311 561q0 28 -13 55q-16 34 -40 34q-92 0 -92 -87q0 -48 103 -48q42 0 42 46zM322 -7q0 18 -16 115.5t-16 156.5v136
q0 9 -13.5 14t-23.5 5q-58 0 -75 -46q-5 -14 -15 -103l39 -289q1 -2 1 -9q0 -21 -8 -39q-11 -24 -32 -24q-14 0 -39 23t-30 23q-16 0 -34 -16t-18 -37q0 -28 50 -48q40 -15 69 -15q62 0 111.5 44.5t49.5 108.5z" />
    <glyph glyph-name="k" unicode="k" horiz-adv-x="519" 
d="M493 117q0 -39 -40 -80.5t-79 -41.5q-34 0 -94 87q-31 49 -62 97l-4 -6q-3 -10 -3 -38v-15q0 -58 -11 -85q-18 -43 -68 -43q-13 0 -47 8.5t-37 14.5q-10 16 -21 46q-23 222 -23 334q0 94 2 118q4 82 24 136q4 9 18 17q33 18 78 28q6 2 23 2q43 0 59.5 -23.5t15.5 -79.5
l-32 -242l5 -5q48 58 96 117q61 74 88 74q15 0 42 -15.5t33 -28.5q19 -41 19 -63q0 -43 -15 -64q-11 -14 -46 -34q-48 -26 -77 -49q27 -28 73 -60t59 -46q24 -26 24 -60zM461 117q0 30 -83 90.5t-83 74.5q0 22 58 53q72 38 78 43q9 9 9 42q0 29 -14.5 51.5t-42.5 22.5
q-24 0 -99.5 -93.5t-95.5 -93.5q-6 0 -18.5 11t-12.5 24q0 1 9 58q26 161 26 200q0 32 -4 42q-10 22 -42 22q-17 0 -47 -9q-35 -11 -41 -24q-10 -26 -13 -74q-2 -36 -3 -72l-6 -82v-108q0 -21 11.5 -124t14.5 -108q8 -9 40 -20q29 -9 39 -9q13 0 28 12q8 41 11 82
q8 101 30 101q10 0 78 -97.5t88 -97.5q23 0 54 27t31 56z" />
    <glyph glyph-name="l" unicode="l" horiz-adv-x="290" 
d="M230 156l-14 -120q-14 -55 -84 -55t-93 33q-17 27 -14 93l6 104l-26 378q0 100 120 100q31 0 41 -3q24 -6 40 -33q12 -18 15 -58q5 -50 8 -162q7 -222 1 -277zM194 281l-4 223q-4 16 -4 43v17.5v17.5q0 35 -10 51q-14 21 -53 21q-85 0 -85 -69l25 -280v-233q0 -23 8 -40
q41 -20 72 -20q32 10 35 24q16 72 16 245z" />
    <glyph glyph-name="m" unicode="m" horiz-adv-x="706" 
d="M671 208q0 -220 -124 -220q-29 0 -56 15q-32 18 -26 45l31 212q2 7 -7 19.5t-19 12.5q-22 0 -37 -59q-10 -42 -10 -64v-92q0 -41 -45 -66q-35 -20 -71 -20q-66 0 -66 55l17 201q0 35 -21 35q-49 0 -49 -61l14 -182q0 -55 -93 -55q-56 0 -74 26q-15 22 -22 66q-4 36 -8 71
q-9 70 -9 128q0 100 17 146q31 85 126 85q25 0 34 -19q7 -15 12 -42q8 -42 9 -44q31 40 63 81q29 31 64 31q36 0 55 -34q33 -59 45 -71q3 3 52 67q31 41 62 41q42 0 79 -52q30 -42 38 -85q19 -96 19 -171zM636 229q0 43 -12 128q-4 34 -29 73q-30 48 -64 48
q-23 0 -56.5 -52.5t-57.5 -52.5q-16 0 -41 39q-34 53 -34 54q-6 5 -26 5q-38 0 -73 -54.5t-55 -54.5q-16 0 -20 13q-8 35 -26 92q-21 3 -49 -4q-33 -9 -40 -25q-21 -42 -23 -105q1 24 1 -79q0 -48 6 -112q8 -83 20 -103t56 -20q32 0 45 12q10 9 10 36q0 13 -2 35
q-3 27 -4 31q-5 71 -5 68q0 109 77 109q27 0 40.5 -16.5t13.5 -57.5q0 -21 -7 -89q-7 -60 -5 -91q3 -30 35 -30q15 0 35 8q25 10 33 25q6 11 9 36l2 64q5 68 20 108q20 57 58 57q39 0 49 -31q4 -12 4 -50q0 -4 -10.5 -92.5t-10.5 -92.5q0 -25 43 -25q54 0 67 22
q26 45 26 174z" />
    <glyph glyph-name="n" unicode="n" horiz-adv-x="521" 
d="M468 172q0 -39 -12 -123q-2 -15 -17 -28q-36 -33 -103 -33q-64 0 -64 51q0 4 12 90.5t12 90.5q0 72 -40 72q-47 0 -60 -78q-8 -72 -17 -145q-17 -78 -74 -78q-72 0 -92 67q-7 26 -7 105q0 260 16 279q44 53 113 53q26 0 24 0q12 -2 20 -14.5t8 -30.5q-1 -26 0 -31
q2 -7 6 -12q27 35 54.5 68.5t60.5 33.5q98 0 138 -148q22 -82 22 -189zM433 213q0 79 -15 138q-29 116 -106 116q-37 0 -78 -52.5t-52 -52.5q-21 0 -21 37v10q-1 38 -17 51q-31 0 -36 -1q-47 -12 -52 -25q-18 -42 -18 -136q0 -24 1.5 -65.5t1.5 -55.5q0 -11 -1 -33t-1 -32
q0 -40 11 -58q16 -24 55 -24q23 0 30 5q17 36 28 126t21.5 114.5t35.5 38.5q21 13 39 13q65 0 65 -112q0 -4 -10.5 -81t-10.5 -81q0 -30 33 -30q18 0 47 9q34 10 38 20q12 34 12 161z" />
    <glyph glyph-name="o" unicode="o" horiz-adv-x="526" 
d="M481 219q0 -115 -71 -175q-65 -56 -174 -56q-123 0 -185 92q-49 74 -49 184q0 15 8 56q16 79 93 140q72 56 138 56q121 0 187 -102q53 -83 53 -195zM450 240q0 79 -30 142q-20 43 -75 72q-51 27 -97 27q-80 0 -147 -63q-68 -66 -68 -148q0 -98 45 -162q55 -78 163 -78
q96 0 150 51q59 54 59 159zM359 233q0 -102 -90 -102q-59 0 -98 54q-33 46 -33 102q0 44 33 79t81 35q32 0 25 1q16 -2 29 -13q53 -50 53 -156zM327 231q0 43 -10 78q-18 60 -60 60q-31 0 -59 -23.5t-28 -56.5q0 -44 20 -80q27 -46 79 -46q37 0 49 17q9 13 9 51z" />
    <glyph glyph-name="p" unicode="p" horiz-adv-x="538" 
d="M495 232q0 -84 -32 -149q-45 -89 -134 -89q-51 0 -109 46h-10q-5 0 -4 -7q2 -6 3 -12q17 -123 17 -133q0 -38 -21 -60.5t-55 -22.5q-95 0 -112 36q-36 75 -36 313q0 151 28 312q4 21 18 27q32 16 78 16q29 0 41 -12l26 -34q18 11 56 30q21 9 48 9q60 0 117 -53t73 -127
q8 -38 8 -90zM464 238q0 85 -34 144q-44 78 -134 78q-35 0 -76 -23t-43 -23q-13 0 -17 16q-5 27 -12 40h-47q-31 0 -39 -14q-25 -46 -25 -198v-251q0 -67 18 -130q4 -14 32 -25q24 -8 42 -8q65 0 65 45l-17 154q0 35 28 35q19 0 53.5 -24.5t65.5 -24.5q64 0 105 71
q35 62 35 138zM380 255q0 -46 -36.5 -85t-82.5 -39q-49 0 -78 73q-20 51 -20 88q0 41 33.5 74.5t76.5 33.5q45 0 79 -60q28 -49 28 -85zM352 253q0 26 -18 64q-24 52 -59 52q-23 0 -49 -18q-32 -22 -32 -52q0 -36 16 -75q22 -55 63 -55q29 0 54 26t25 58z" />
    <glyph glyph-name="q" unicode="q" horiz-adv-x="563" 
d="M531 -5q0 -90 -22 -128q-31 -54 -117 -54q-39 0 -57 9q-25 13 -25 49q0 4 9 75t9 75q0 12 -14 12q-7 0 -50.5 -19t-79.5 -19q-93 0 -142 85q-36 64 -36 146q0 106 53 185q62 91 171 91q28 0 42 -3q21 -6 54 -28h10q0 8 4.5 26.5t29.5 18.5q22 0 68 -15q50 -17 55.5 -29.5
t5.5 -105.5zM492 -10l-24 353v95q0 17 -37 30q-29 10 -49 10q-13 0 -15 -13v-24q-1 -11 -10 -16q-13 4 -53 29q-28 17 -73 17q-60 0 -108.5 -41.5t-73.5 -113.5q-8 -23 -8 -94q0 -50 1 -54q13 -66 58 -104q40 -34 93 -34q25 0 75 21t58 21q30 0 30 -37l-14 -152q0 -20 1 -24
q6 -11 28 -11q36 0 81 15q15 5 18 10q9 19 12 36q10 48 10 81zM370 254q0 -53 -20 -87q-24 -43 -75 -43q-122 0 -122 140q0 36 28 84q36 60 85 60q54 0 83 -62q21 -45 21 -92zM342 257q0 35 -14 69q-21 50 -63 50q-43 0 -65 -49q-16 -36 -16 -71q0 -100 88 -100q70 0 70 101
z" />
    <glyph glyph-name="r" unicode="r" horiz-adv-x="412" 
d="M372 357q0 -41 -20 -67q-21 -29 -60 -29q-14 0 -31 4q-6 2 -21.5 11t-19.5 9q-11 0 -18 -11.5t-15 -51.5l21 -159q0 -9 -2 -25q-4 -12 -11 -18q-14 -15 -31 -21q-21 -8 -56 -8q-64 0 -88 36q-22 32 -22 206q0 63 8 152q10 101 21 110q30 25 74 25q39 0 60 -12
q13 -7 21 -20q3 -10 13 -31q34 45 70 55q5 1 20 1q45 0 69 -58q18 -43 18 -98zM341 361q0 39 -13 72q-17 45 -49 45q-17 0 -29 -9q-21 -15 -39 -51.5t-29 -41.5q-17 13 -21 45q-7 49 -8 49q-23 15 -52 15q-15 0 -22 -1q-29 -6 -32 -18q-17 -87 -17 -137q0 -12 1.5 -39.5
t1.5 -47.5q0 -56 1.5 -84t2.5 -55q3 -38 18 -54q17 -19 63 -19q21 0 39 7q23 9 23 26q0 5 -12.5 82.5t-12.5 82.5q0 16 14 52q19 47 42 47q4 0 40 -15.5t41 -15.5q49 0 49 65z" />
    <glyph glyph-name="s" unicode="s" horiz-adv-x="529" 
d="M490 145q0 -90 -88 -130q-60 -27 -145 -27q-74 0 -151 25q-106 34 -106 96q0 25 17.5 44.5t40.5 19.5q4 0 81 -22t108 -22q32 0 32 15q0 24 -65 45q-88 28 -120 51q-65 45 -65 130q0 98 95 139q61 26 153 26q45 0 110 -31q81 -39 81 -90q0 -34 -55 -62q-46 -24 -74 -24
q-6 0 -27.5 8.5t-23.5 14.5q-4 14 -14 40q-10 21 -42 21q-36 0 -36 -38t76 -58q118 -31 141 -44q77 -40 77 -127zM453 144q0 79 -75 110l-140 36q-75 22 -75 78q0 31 17.5 53.5t49.5 22.5q46 0 62 -20q7 -19 14.5 -39t36.5 -20q19 0 52 14q40 17 40 38q0 46 -94 70
q-60 16 -103 16q-68 0 -114 -27q-59 -34 -59 -104q0 -58 20 -79q30 -34 88 -56q48 -17 95 -34t47 -61q0 -46 -65 -46q-46 0 -110 20t-69 20q-35 0 -35 -29q0 -36 99 -64q79 -23 126 -23q66 0 117 22q75 32 75 102z" />
    <glyph glyph-name="t" unicode="t" horiz-adv-x="491" 
d="M453 134q0 -70 -74 -115q-63 -39 -131 -39q-61 0 -106 31q-51 36 -51 100q0 5 12.5 88.5t12.5 87.5v20q-35 8 -70 15q-46 16 -46 59q0 22 10 49q14 36 35 46q10 5 41 6q28 1 42 10q6 5 24 50q20 52 36 77q27 39 60 39q18 0 37.5 -15.5t19.5 -32.5v-106q0 -11 13 -15
q29 -4 87 -17q37 -11 37 -82q0 -42 -25 -56q-14 -8 -58.5 -14.5t-65.5 -21.5q-7 -4 -7 -38q0 -39 15 -103l6 -6l28 44q20 28 44 28q33 0 55 -33q19 -28 19 -56zM417 131q0 52 -36 52q-13 0 -36.5 -38t-43.5 -38q-47 0 -47 149q0 62 40 80q5 2 75 13q41 6 41 39q0 35 -13 51
q-5 6 -66 12q-55 5 -55 27v107q0 10 -7 23.5t-21 13.5q-30 0 -59 -71q-35 -84 -44 -92t-32 -8q-30 1 -35 -1q-20 -5 -32 -30q-10 -20 -10 -35q0 -34 46 -37q53 -3 62 -18q1 -11 1 -27l-22 -190q0 -51 47 -75q34 -18 80 -18q48 0 97 22q70 30 70 89z" />
    <glyph glyph-name="u" unicode="u" horiz-adv-x="522" 
d="M461 215q0 -81 -1 -97q-5 -62 -26 -98q-16 -26 -69 -26q-31 0 -52 14q-24 17 -24 48q0 13 4 27l1 2q0 3 -2 7q-90 -102 -145 -102q-85 0 -119 98q-20 57 -20 138q0 157 33 242q6 13 41 25t58 12q26 0 47 -11q27 -14 27 -41q0 -5 -14.5 -112t-14.5 -111q0 -47 17 -47
q6 0 23.5 17t23.5 29q10 18 17 54.5t7 52.5q0 8 -2 17.5t-2 19.5v94q0 38 61 38q90 0 108 -41q14 -32 16 -98q7 -167 7 -151zM428 224q0 170 -16 218q-4 13 -33 21q-23 6 -43 6q-23 0 -34 -8l-2 -164q-9 -88 -81 -142q-18 -12 -32 -12q-34 0 -34 63q0 3 11 97q13 105 17 151
q-24 15 -43 15q-14 0 -39 -5q-33 -8 -36 -18q-23 -78 -23 -205q0 -211 105 -211q39 0 75 32q23 21 73 88h17q12 -20 12 -44q0 -10 -2.5 -25.5t-2.5 -20.5q0 -26 55 -26q37 0 44 12.5t9 54.5q3 48 3 123z" />
    <glyph glyph-name="v" unicode="v" horiz-adv-x="554" 
d="M515 462q0 -19 -23 -97q-63 -210 -130 -323q-10 -16 -32 -25t-61 -18q-35 -9 -44 -9q-28 0 -42 13q-24 19 -73 112q-15 30 -59 145q-54 145 -54 191q0 33 58 56q44 16 69 16q52 0 64 -37q2 -8 26 -134q18 -95 47 -137q11 -1 14 13q12 78 25 156q16 97 36.5 120t70.5 23
q36 0 68 -14q40 -19 40 -51zM483 464q-5 11 -39 20q-27 7 -43 7q-36 0 -40 -12q-19 -52 -33 -144q-14 -97 -26 -134q-11 -33 -42 -33q-32 0 -56 84q-4 16 -20 96q-8 50 -29 134q-3 9 -27 9q-17 0 -54 -15q-44 -17 -44 -34q0 -18 41 -133q35 -100 47 -125q42 -95 61 -127
q14 -23 57 -23q24 0 56 8q38 9 44 22q112 241 147 400z" />
    <glyph glyph-name="w" unicode="w" horiz-adv-x="747" 
d="M699 449q0 -76 -64 -243q-64 -170 -107 -203q-16 -13 -52.5 -13t-23.5 -1q-8 1 -25 14q-13 10 -27 58q-19 66 -34 100q-5 0 -8 -3q-12 -17 -37 -73q-23 -51 -42 -73q-29 -33 -72 -33q-34 0 -48 13q-26 22 -76 134q-17 37 -44 155q-29 124 -29 170q0 35 38 52q28 13 69 13
q61 0 77 -48l16 -98q6 -60 24 -148q5 2 14 21q16 59 33 117q28 73 99 73q34 0 46 -37q4 -28 9 -55q6 -31 24 -94q2 0 6 7q19 83 64 243q5 13 40 25q5 1 25 1q105 0 105 -74zM666 468q-23 19 -62 19q-41 0 -49 -12q-14 -54 -40 -163q-6 -28 -11 -55q-14 -53 -36 -53
q-6 0 -20 7t-17 14q-10 21 -23 95q-10 63 -26 76q-12 3 -31 -2q-22 -6 -28 -17q-16 -26 -29 -80q-8 -33 -15 -66q-14 -45 -39 -45q-24 0 -30 14q-11 25 -18 67l-10 66q-14 85 -29 135q-4 16 -38 16q-76 0 -76 -39q0 -29 28 -140q22 -87 31 -114q37 -113 75 -163
q10 -12 38 -12q33 0 60 47q21 43 44.5 88.5t51.5 45.5q22 0 47 -70q3 -8 25 -81q5 -19 39 -19q24 0 28 5q77 99 130 279q24 83 30 157z" />
    <glyph glyph-name="x" unicode="x" horiz-adv-x="563" 
d="M527 404q0 -19 -29 -46q-26 -20 -52 -41q-11 -9 -80 -61q42 -37 84 -75q60 -54 60 -85q0 -40 -53 -75q-45 -30 -77 -30q-27 0 -41.5 14t-30.5 54q-12 31 -47 94h-9q-10 -12 -31.5 -59.5t-39.5 -67.5q-27 -32 -63 -32q-34 0 -73 22q-49 28 -49 71q0 47 62 93q54 37 107 73
q-20 22 -66.5 56t-63.5 53q-28 31 -28 67q0 43 45 68q37 21 80 21q46 0 67 -24q11 -13 28.5 -62t42.5 -79q2 0 5 1q8 11 40 77q26 55 48 75q9 9 36 9q39 0 83.5 -35t44.5 -76zM485 409q0 24 -37 49q-32 22 -52 22q-13 0 -58.5 -86.5t-72.5 -86.5q-15 0 -51 74l-36 80
q-13 22 -41 22q-32 0 -61 -12q-38 -17 -38 -46q0 -31 83 -94.5t83 -79.5q0 -14 -86.5 -70.5t-86.5 -91.5q0 -22 41 -35q30 -11 54 -11q31 0 73.5 81t57.5 81t58 -81l44 -86q5 -5 22 -5q19 0 51 18q39 23 39 51q0 10 -74 75t-74 81q0 13 81 70.5t81 80.5z" />
    <glyph glyph-name="y" unicode="y" horiz-adv-x="540" 
d="M498 436q0 -34 -27 -124q-36 -116 -102 -271q-49 -113 -79 -155q-60 -82 -142 -82q-44 0 -94 33q-59 38 -59 90q0 37 42 57q31 14 62 14q28 0 45 -21t23 -21q25 0 25 29q0 13 -25 48l-34 46q-17 27 -38 67q-24 44 -55 128q-38 106 -38 155q0 39 41 65q35 21 73 21
q47 0 62 -38q9 -40 17 -78.5t26 -117.5q11 -37 30 -65h12q5 25 22 153q9 73 32 100q30 35 107 35q74 0 74 -68zM466 431q0 24 -11 31t-36 7q-22 0 -48 -7.5t-34 -17.5q-12 -18 -18 -56q-3 -27 -7 -54q-4 -39 -9 -78q-5 -42 -14 -66q-6 -16 -34 -16q-37 0 -61 82
q-11 48 -21 96q-7 43 -28 120q-4 8 -30 8q-24 0 -48 -11q-33 -16 -33 -46q0 -43 55 -178q21 -53 57 -110l68 -104q10 -16 10 -42t-15 -46q-17 -23 -43 -23q-22 0 -37.5 21.5t-33.5 21.5q-21 0 -40 -9q-25 -11 -25 -28q0 -38 48 -64q37 -19 66 -19q22 0 25 1q50 12 61 25
q68 79 115 193l78 204q12 30 29 97q14 59 14 68z" />
    <glyph glyph-name="z" unicode="z" horiz-adv-x="511" 
d="M466 121q0 -35 -12 -56q-19 -32 -113 -58q-58 -16 -125 -16q-215 0 -215 114q0 31 9 43q36 55 126 112q124 80 147 99v9q-2 3 -14 3q-34 0 -106 -40.5t-88 -40.5q-28 0 -46 40q-14 32 -14 65q0 50 16 63q64 53 201 53q94 0 141 -16q82 -29 82 -112q0 -58 -41 -94
q-12 -10 -98 -60q-72 -42 -114 -92q8 -9 16 -9q22 0 91 51t92 51q30 0 50 -51q15 -37 15 -58zM431 110q0 23 -9 48q-12 33 -30 33q-4 0 -78.5 -49t-102.5 -49q-14 0 -27 6q-21 9 -21 29q0 33 119 119l96 58q42 29 42 78q0 97 -179 97q-128 0 -185 -43q-9 -6 -9 -38
q0 -22 7 -46q8 -32 23 -32q4 0 80 40.5t114 40.5q51 0 51 -35q0 -28 -73 -76q-68 -43 -136 -87q-73 -55 -73 -99q0 -35 26 -46q63 -30 145 -30q146 0 214 54q6 4 6 27z" />
    <glyph glyph-name="braceleft" unicode="{" horiz-adv-x="322" 
d="M138 -142q-18 0 -34 13t-16 33v317q-10 34 -24 50t-48 33q-13 6 -13 16q0 12 15 16q52 16 70 70v328q0 49 87 49q12 0 31 -1t25 -1q19 0 32 -12t13 -32v-21q0 -19 -13.5 -32.5t-32.5 -13.5h-19l-1 -262q-16 -62 -45 -86q46 -35 46 -97v-252h19q19 0 32.5 -13.5
t13.5 -32.5v-21q0 -19 -13.5 -32.5t-31 -13.5t-47.5 -1t-46 -1zM138 -107q16 0 46 1t46 1q11 0 11 11v21q0 11 -11 11h-37q-17 0 -17 18v268q0 59 -54 83q-13 6 -13 17q0 13 16 16q32 7 51 75v273q0 17 17 17h37q11 0 11 11v21q0 9 -10 9q10 0 -35 2q-31 1 -49 -1
q-24 -3 -24 -13l-1 -336q-16 -50 -60 -79q42 -28 60 -91l1 -5v-319q0 -11 15 -11z" />
    <glyph glyph-name="bar" unicode="|" horiz-adv-x="244" 
d="M145 696q18 0 18 -18v-680q0 -18 -18 -18h-86q-18 0 -18 18v680q0 18 18 18h86zM128 661h-52v-646h52v646z" />
    <glyph glyph-name="braceright" unicode="}" horiz-adv-x="322" 
d="M141 -142q18 0 34.5 13t16.5 33v317q10 34 24 50t48 33q12 6 12 16q0 12 -15 16q-51 16 -69 70v328q0 49 -88 49q-12 0 -31 -1t-24 -1q-19 0 -32.5 -12t-13.5 -32v-21q0 -19 13.5 -32.5t32.5 -13.5h20v-262q17 -62 45 -86q-45 -35 -45 -97v-252h-20q-19 0 -32.5 -13.5
t-13.5 -32.5v-21q0 -19 13.5 -32.5t32.5 -13.5q16 0 46 -1t46 -1zM141 -107q-16 0 -46 1t-46 1q-11 0 -11 11v21q0 11 11 11h37q18 0 18 18v268q0 59 54 83q13 6 13 17q0 13 -17 16q-32 7 -50 75v273q0 17 -18 17h-37q-11 0 -11 11v21q0 9 11 9q-11 0 35 2q31 1 48 -1
q25 -3 25 -13l1 -336q15 -50 60 -79q-43 -28 -60 -91l-1 -5v-319q0 -11 -16 -11z" />
    <glyph glyph-name="asciitilde" unicode="~" horiz-adv-x="509" 
d="M297 782q5 -3 18 1q23 18 67 51q12 8 27 0q29 -16 29 -27q0 -6 -32 -38q-40 -41 -47 -46q-31 -26 -58 -26q-16 0 -32 9q-36 16 -103 52q-4 3 -18 0q-22 -18 -66 -51q-12 -9 -27 -1q-29 16 -29 27q0 6 32 39q40 40 47 46q31 25 57 25q17 0 33 -9q35 -14 102 -52zM328 758
q21 15 62 47q11 11 15 5l1 -1l1 -1q10 -8 -3.5 -13t-35.5 -28q-45 -48 -70 -48q-10 0 -21 6q-18 7 -46 23.5t-61 37.5q-20 7 -34 -4q-22 -14 -62 -47q-12 -10 -16 -4v0q0 1 -1 1q-10 8 5 14q12 4 34 28q41 43 63 43q15 0 31 -9q47 -22 103 -55q19 -7 35 5z" />
    <glyph glyph-name="Adieresis" unicode="&#xc4;" horiz-adv-x="706" 
d="M682 87q0 -47 -84 -86q-68 -31 -107 -31q-88 0 -88 129q0 18 3 54q2 36 -8 44q-33 3 -78 -8q-49 -10 -70 -27.5t-42 -67.5q-22 -54 -43 -76.5t-76 -22.5q-51 0 -70 25q-16 21 -16 74q0 74 19 150q10 43 64 199q25 72 39 101q31 62 74 86q77 43 189 43q47 0 67 -19
q37 -34 73 -103q7 -14 52 -112q15 -34 55 -158q47 -149 47 -194zM644 108q0 47 -78 262q-22 58 -42 98.5t-40 82.5q-26 51 -53 75q-13 13 -60 13q-191 0 -241 -176l-52 -178q-36 -135 -36 -200q0 -52 61 -52q30 0 46 23q9 13 21 53q12 37 25 54q29 36 103 59q42 13 81 13
q34 0 46 -8q19 -13 21 -74q1 -32 2 -63q2 -37 9 -63q2 -7 12 -14.5t16 -7.5q27 0 87 31q72 36 72 72zM459 393q0 -53 -81 -85q-59 -24 -105 -24h-34q-25 0 -45 21t-20 43q0 57 46 119q52 71 119 71q46 0 85 -57q35 -49 35 -88zM418 395q0 20 -23 65q-13 27 -31 38
q-2 1 -21 1q-52 0 -91.5 -47.5t-39.5 -94.5q0 -25 20 -32q9 -3 48 -3q33 0 78 17q60 22 60 56zM423 709q-39 0 -52 22q-9 15 -9 49q0 67 85 67q33 0 45 -18q9 -13 9 -44q0 -43 -18.5 -59.5t-59.5 -16.5zM466 798q0 6 -2 8q-3 6 -24 6q-19 0 -37 -6q-2 -2 -6 -4q-4 -9 -4 -22
q0 -21 5 -28.5t24 -7.5q26 0 35 6.5t9 31.5q0 22 0 16zM223 709q-39 0 -52 22q-9 15 -9 49q0 67 85 67q33 0 45 -18q9 -13 9 -44q0 -43 -18.5 -59.5t-59.5 -16.5zM266 798q0 6 -2 8q-3 6 -24 6q-19 0 -37 -6q-2 -2 -6 -4q-4 -9 -4 -22q0 -21 5 -28.5t24 -7.5q26 0 35 6.5
t9 31.5q0 22 0 16z" />
    <glyph glyph-name="Aring" unicode="&#xc5;" horiz-adv-x="706" 
d="M682 87q0 -47 -84 -86q-68 -31 -107 -31q-88 0 -88 129q0 18 3 54q2 36 -8 44q-33 3 -78 -8q-49 -10 -70 -27.5t-42 -67.5q-22 -54 -43 -76.5t-76 -22.5q-51 0 -70 25q-16 21 -16 74q0 74 19 150q10 43 64 199q25 72 39 101q31 62 74 86q77 43 189 43q47 0 67 -19
q37 -34 73 -103q7 -14 52 -112q15 -34 55 -158q47 -149 47 -194zM644 108q0 47 -78 262q-22 58 -42 98.5t-40 82.5q-26 51 -53 75q-13 13 -60 13q-191 0 -241 -176l-52 -178q-36 -135 -36 -200q0 -52 61 -52q30 0 46 23q9 13 21 53q12 37 25 54q29 36 103 59q42 13 81 13
q34 0 46 -8q19 -13 21 -74q1 -32 2 -63q2 -37 9 -63q2 -7 12 -14.5t16 -7.5q27 0 87 31q72 36 72 72zM459 393q0 -53 -81 -85q-59 -24 -105 -24h-34q-25 0 -45 21t-20 43q0 57 46 119q52 71 119 71q46 0 85 -57q35 -49 35 -88zM418 395q0 20 -23 65q-13 27 -31 38
q-2 1 -21 1q-52 0 -91.5 -47.5t-39.5 -94.5q0 -25 20 -32q9 -3 48 -3q33 0 78 17q60 22 60 56zM447 810q0 -42 -30 -71t-72 -29t-72 29t-30 71t30 71t72 29t72 -29t30 -71zM422 810q0 31 -22.5 53t-54.5 22t-54.5 -22t-22.5 -53t22.5 -53t54.5 -22t54.5 22t22.5 53zM318 810
q0 -25 27 -25t27 25t-27 25t-27 -25zM293 810q0 21 15.5 35.5t36.5 14.5q22 0 37 -14.5t15 -35.5t-15 -35.5t-37 -14.5q-21 0 -36.5 14.5t-15.5 35.5z" />
    <glyph glyph-name="Ccedilla" unicode="&#xc7;" horiz-adv-x="657" 
d="M622 205q0 -30 -55 -91q-50 -57 -82 -73q-60 -30 -90 -40q-41 -13 -85 -13q-109 0 -207 91q-101 94 -101 205q0 100 40 196q45 109 124 164q26 18 90 34t110 16q78 0 156.5 -76t78.5 -146q0 -27 -24.5 -53t-56.5 -39q-3 -3 -6.5 -6t-8.5 -3h-41q-41 0 -59 10
q-31 18 -40 75q-1 8 0 23q3 19 3 26q0 24 -13 40q-148 -34 -148 -162q0 -63 32 -128q36 -76 88 -76q41 0 82 35q21 18 67 71q10 13 41 13q12 0 27 -5q23 -8 50.5 -36.5t27.5 -51.5zM583 207q0 20 -20.5 34.5t-40.5 14.5q-16 0 -42 -30q-37 -41 -57 -55q-42 -30 -97 -30
q-74 0 -123 102q-37 79 -37 142q0 69 62.5 133.5t135.5 64.5q7 0 19.5 -10.5t14.5 -19.5q2 -13 2 -63q1 -39 10 -63q4 -8 20.5 -15t29.5 -7q25 0 60 20q42 24 42 55t-41 84q-37 47 -67 66q-41 26 -87 26q-35 0 -92 -12q-64 -14 -88 -31q-60 -44 -103 -148q-40 -96 -40 -174
q0 -89 74 -174q80 -91 182 -91q87 0 189 67q31 21 60 53q34 38 34 61zM343 -9l-5 -36q77 -4 77 -62q0 -41 -41 -75q-46 -38 -113 -38q-7 0 -41 3q-32 -2 -32 41q0 19 10 34t27 13q72 -8 85 15q-19 4 -39 9q-27 6 -27 21q0 4 2 8q5 23 17 67q26 0 24 0q-6 -28 -16 -70
q19 -5 39 -9q26 -8 26 -24q0 -5 -2 -11q-8 -18 -36 -28q-24 -8 -47 -6l-29 3q-5 1 -7 -17t4 -21h1q36 -3 41 -3q38 0 77 22q43 23 49 54q1 7 1 12q0 45 -80 44l12 54h23z" />
    <glyph glyph-name="Eacute" unicode="&#xc9;" horiz-adv-x="582" 
d="M551 124q0 -54 -102 -100q-51 -22 -86 -28q-26 -4 -91 -4q-172 0 -211 46q-8 9 -17 46q-7 28 -17 84q-20 153 -20 188q0 82 27 171q6 21 11 42q10 32 27 50.5t118 45.5q61 17 136 17q57 0 108 -9q75 -14 87 -41q5 -11 5 -41q0 -91 -93 -91h-134q-25 0 -49 -11
q-10 -5 -16 -18l9 -12q16 -2 95 -8q59 -4 100 -18q13 -5 24 -31q1 -4 1 -22q0 -62 -43 -82q-24 -11 -92 -14q-63 -2 -84 -19q5 -44 32 -57q15 -7 55 -7q4 0 48.5 3.5t49.5 3.5q45 0 77 -16q45 -22 45 -68zM512 126q0 40 -73 40q-5 0 -46 -1.5t-44 -1.5q-62 0 -90 11
q-50 22 -50 88q0 38 60 51q36 3 71 7q31 3 77 14q15 10 15 41q0 4 -5 13t-10 10q-58 9 -129 13q-39 2 -62 10q-11 4 -20 23q-7 16 -7 27q0 40 42 54q12 4 75 10q42 5 73 5q22 0 38.5 -2.5t15.5 -2.5q32 0 42 20q9 15 10 60q-34 32 -157 32q-75 0 -162 -24q-14 -5 -38 -10
q-49 -3 -74 -104q-18 -73 -18 -151q0 -149 42 -288q6 -18 64 -30q47 -10 87 -10q151 0 231 48q42 26 42 48zM373 757q-63 -28 -160 -48q-16 -4 -30 15t-14 26t8 13q29 23 96 60q51 29 64 34.5t24 5.5q25 0 45 -27q16 -20 16 -35q0 -23 -49 -44zM354 771q38 17 38 32
q0 10 -10 22q-11 16 -23 16q-7 0 -16 -4q-41 -23 -121 -68q-25 -13 -25 -24q0 -4 4 -9q7 -10 17 -9q44 3 136 44z" />
    <glyph glyph-name="Ntilde" unicode="&#xd1;" horiz-adv-x="653" 
d="M493 785l-55 -55q-37 -32 -67 -32q-16 0 -32 8q-36 15 -103 52q-11 1 -18 0q-21 -18 -66 -51q-13 -9 -27 -1l-11 7q-18 10 -18 20q0 9 15 23q28 27 55 55q37 32 67 32q16 0 32 -9q35 -15 102 -52q12 0 18 1q22 18 67 51q13 8 27 0l11 -6q18 -11 18 -21q0 -8 -15 -22z
M602 128q0 -52 -4 -67.5t-18 -29.5q-31 -30 -71 -38q-22 -4 -35 -4q-23 0 -34 12q-8 8 -25 37q-18 36 -53 103q-9 18 -31 58l-30 50q-23 33 -54 57q-14 12 -19 12q-15 0 -22 -16q-1 -3 -7 -55q1 -20 2 -51q-1 -17 0 -49q2 -37 2 -50q0 -62 -20 -100q-5 -11 -20 -14
q-26 -4 -30 -4h-21q-23 0 -56 15q-8 5 -14 13q-17 53 -23 103q-9 87 -9 192q0 148 25 285q5 29 21 48q18 23 49 29l54 8q5 2 21 2q15 0 21 -2q14 -3 21 -10q57 -62 119 -188q14 -30 45 -85h8q5 26 5 61q0 17 -1.5 52.5t-1.5 53.5q0 37 5 65q2 8 12 24t19 20q19 9 42 9
q12 0 41 -5q48 -8 72 -37q2 -3 12 -32l-3 -356q6 -75 6 -116zM476 796q8 5 -1 14q-4 5 -15 -5q-58 -54 -89 -54q-4 0 -8 2q-41 22 -103 55q-30 17 -56 2q-14 -8 -36.5 -32.5t-39.5 -33.5q-8 -4 0 -13q5 -5 16 4q56 52 87 52q5 0 9 -1q11 -10 51 -32q28 -14 56 -29
q10 -6 21 -6q13 0 32 12q13 8 36 32.5t40 32.5zM572 111q0 4 -5.5 59.5t-5.5 59.5v281q0 11 5 55q3 29 -3 38q-10 17 -37 27q-23 8 -54 8q-19 0 -30 -5q-12 -23 -12 -65q1 -27 2 -55q2 -44 -5 -136q-4 -19 -25 -32q-1 0 -3 -2t-7 -2q-15 0 -29 19q-30 44 -75 134
q-13 28 -40 75l-22 38q-16 23 -30 27t-18 4q-8 0 -26 -4q-21 -6 -42 -11q-29 -8 -34 -20q-11 -27 -18 -83l-10 -86q-3 -214 7 -314q3 -37 6 -75q9 -30 52 -30q39 0 47 9t8 51q0 5 -2 50.5t-2 48.5v90q0 28 12 56q14 34 38 34q16 0 29.5 -7.5t20.5 -13.5q47 -38 97 -122
l66 -116l18 -38q11 -23 29 -30q3 -1 14 -1q35 0 59.5 23t24.5 61z" />
    <glyph glyph-name="Odieresis" unicode="&#xd6;" horiz-adv-x="712" 
d="M670 323q0 -31 -10 -75q-7 -24 -18 -75q-14 -95 -124 -151q-89 -46 -185 -46q-112 0 -175 36q-20 12 -53 52q-30 37 -49 69q-49 84 -49 185q0 107 45 196q56 113 167 143q36 11 73 22q32 9 79 9q111 0 177 -58q48 -44 86 -144q36 -94 36 -163zM634 327q0 61 -31.5 143.5
t-75.5 126.5q-51 52 -167 52q-45 0 -73 -8q-8 -2 -72 -27q-169 -65 -169 -278q0 -74 35 -156q14 -35 42 -74q31 -43 56 -58q51 -30 149 -30q86 0 170 38q7 5 21 11q55 19 88 108q27 75 27 152zM552 355q0 -56 -65 -138q-69 -88 -129 -88t-83 23q-40 38 -65 98t-25 110
q0 73 59.5 140t134.5 67q76 0 128 -79q45 -67 45 -133zM517 360q0 55 -36 109q-42 63 -103 63q-56 0 -110 -64q-51 -60 -51 -111q0 -30 31 -98q32 -72 56 -83q18 -8 43 -8q58 0 115 70q55 66 55 122zM433 719q-39 0 -52 22q-9 15 -9 49q0 67 85 67q33 0 45 -18q9 -13 9 -44
q0 -43 -18.5 -59.5t-59.5 -16.5zM476 808q0 6 -2 8q-3 6 -24 6q-19 0 -37 -6q-2 -2 -6 -4q-4 -9 -4 -22q0 -21 5 -28.5t24 -7.5q26 0 35 6.5t9 31.5q0 22 0 16zM233 719q-39 0 -52 22q-9 15 -9 49q0 67 85 67q33 0 45 -18q9 -13 9 -44q0 -43 -18.5 -59.5t-59.5 -16.5z
M276 808q0 6 -2 8q-3 6 -24 6q-19 0 -37 -6q-2 -2 -6 -4q-4 -9 -4 -22q0 -21 5 -28.5t24 -7.5q26 0 35 6.5t9 31.5q0 22 0 16z" />
    <glyph glyph-name="Udieresis" unicode="&#xdc;" horiz-adv-x="650" 
d="M594 358q0 -29 -9 -111q-9 -90 -17 -112q-9 -27 -40 -59t-57 -46q-90 -47 -188 -47q-78 0 -141 34q-83 44 -97 132q-18 123 -18 117v247q0 9 -2.5 28.5t-2.5 28.5q0 26 13 39q22 22 74 39q46 15 74 15q53 0 69 -39q10 -22 10 -84l-32 -259q0 -42 4 -61q8 -33 48 -56
q35 -20 69 -20q72 0 68 83l-49 262v91q0 34 22 61q18 21 58 35q34 11 62 11q12 0 32 -6q26 -8 28 -20q8 -64 16 -186q6 -101 6 -117zM556 365q0 197 -19 272q-3 12 -36 12q-58 0 -81 -33q-18 -26 -18 -85q0 -64 24.5 -160t24.5 -144q0 -121 -100 -121q-70 0 -111 45t-41 121
l31 268q0 66 -22 87q-40 6 -88 -8q-58 -18 -58 -53v-237q0 -62 13 -138q16 -93 40 -116q60 -57 162 -57q74 0 150 32q98 40 112 110q2 9 9 91q8 88 8 114zM393 699q-39 0 -52 22q-9 15 -9 49q0 67 85 67q33 0 45 -18q9 -13 9 -44q0 -43 -18.5 -59.5t-59.5 -16.5zM436 788
q0 6 -2 8q-3 6 -24 6q-19 0 -37 -6q-2 -2 -6 -4q-4 -9 -4 -22q0 -21 5 -28.5t24 -7.5q26 0 35 6.5t9 31.5q0 22 0 16zM193 699q-39 0 -52 22q-9 15 -9 49q0 67 85 67q33 0 45 -18q9 -13 9 -44q0 -43 -18.5 -59.5t-59.5 -16.5zM236 788q0 6 -2 8q-3 6 -24 6q-19 0 -37 -6
q-2 -2 -6 -4q-4 -9 -4 -22q0 -21 5 -28.5t24 -7.5q26 0 35 6.5t9 31.5q0 22 0 16z" />
    <glyph glyph-name="aacute" unicode="&#xe1;" horiz-adv-x="503" 
d="M458 159q0 -31 -7 -83q-7 -62 -17 -68q-36 -22 -80 -22q-36 0 -43 11q-3 5 -1.5 19t-4.5 18q-63 -37 -142 -37q-165 0 -165 133q0 77 103 132q49 26 145 54q33 9 33 28q0 36 -41 36q-15 0 -38 -7t-26 -16q-4 -9 1 -23q-10 -23 -42 -38q-27 -12 -51 -12q-27 0 -52 17
q-28 19 -28 46q0 51 68 103q63 49 115 51q7 1 20 4q33 5 48 5q68 0 122 -48q56 -51 66 -128q1 -5 4 -13q13 -82 13 -162zM426 166q0 121 -20 186q-40 124 -154 124q-24 0 -67 -8q-37 -7 -80 -33q-62 -37 -62 -81q0 -36 39 -36q65 0 65 41q0 9 -4 19q6 16 40 26q26 7 51 7
q76 0 76 -69q0 -33 -71 -63q-66 -27 -132 -55q-71 -38 -71 -90q0 -16 7 -37q7 -24 18 -31q49 -32 127 -32q82 0 144 55q10 -7 10 -20q0 -5 -2 -15t-2 -14q0 -11 11 -16q49 -4 62.5 12.5t13.5 33.5q0 47 -1 38q2 19 2 58zM330 166q0 -33 -56 -55q-40 -15 -67 -15
q-55 0 -55 56q0 46 41 71q33 20 77 20q24 0 42 -26.5t18 -50.5zM299 162q-3 16 -8 33t-27 17q-14 0 -39 -9q-28 -9 -33 -17.5t-5 -28.5q0 -30 22 -30q14 0 51 14.5t39 20.5zM313 587q-63 -28 -160 -48q-16 -4 -30 15t-14 26t8 13q29 23 96 60q51 29 64 34.5t24 5.5
q25 0 45 -27q16 -20 16 -35q0 -23 -49 -44zM294 601q38 17 38 32q0 10 -10 22q-11 16 -23 16q-7 0 -16 -4q-41 -23 -121 -68q-25 -13 -25 -24q0 -4 4 -9q7 -10 17 -9q44 3 136 44z" />
    <glyph glyph-name="agrave" unicode="&#xe0;" horiz-adv-x="503" 
d="M458 159q0 -31 -7 -83q-7 -62 -17 -68q-36 -22 -80 -22q-36 0 -43 11q-3 5 -1.5 19t-4.5 18q-63 -37 -142 -37q-165 0 -165 133q0 77 103 132q49 26 145 54q33 9 33 28q0 36 -41 36q-15 0 -38 -7t-26 -16q-4 -9 1 -23q-10 -23 -42 -38q-27 -12 -51 -12q-27 0 -52 17
q-28 19 -28 46q0 51 68 103q63 49 115 51q7 1 20 4q33 5 48 5q68 0 122 -48q56 -51 66 -128q1 -5 4 -13q13 -82 13 -162zM426 166q0 121 -20 186q-40 124 -154 124q-24 0 -67 -8q-37 -7 -80 -33q-62 -37 -62 -81q0 -36 39 -36q65 0 65 41q0 9 -4 19q6 16 40 26q26 7 51 7
q76 0 76 -69q0 -33 -71 -63q-66 -27 -132 -55q-71 -38 -71 -90q0 -16 7 -37q7 -24 18 -31q49 -32 127 -32q82 0 144 55q10 -7 10 -20q0 -5 -2 -15t-2 -14q0 -11 11 -16q49 -4 62.5 12.5t13.5 33.5q0 47 -1 38q2 19 2 58zM330 166q0 -33 -56 -55q-40 -15 -67 -15
q-55 0 -55 56q0 46 41 71q33 20 77 20q24 0 42 -26.5t18 -50.5zM299 162q-3 16 -8 33t-27 17q-14 0 -39 -9q-28 -9 -33 -17.5t-5 -28.5q0 -30 22 -30q14 0 51 14.5t39 20.5zM146 587q63 -28 160 -48q16 -4 30 15t14 26t-7 13q-30 23 -97 60q-51 29 -64 34.5t-24 5.5
q-25 0 -45 -27q-15 -20 -15 -35q0 -23 48 -44zM165 601q-37 17 -37 32q0 10 9 22q12 16 24 16q7 0 16 -4q40 -23 120 -68q25 -13 25 -24q0 -4 -3 -8t-11 -3q-9 1 -17 3q-59 4 -126 34z" />
    <glyph glyph-name="acircumflex" unicode="&#xe2;" horiz-adv-x="503" 
d="M458 159q0 -31 -7 -83q-7 -62 -17 -68q-36 -22 -80 -22q-36 0 -43 11q-3 5 -1.5 19t-4.5 18q-63 -37 -142 -37q-165 0 -165 133q0 77 103 132q49 26 145 54q33 9 33 28q0 36 -41 36q-15 0 -38 -7t-26 -16q-4 -9 1 -23q-10 -23 -42 -38q-27 -12 -51 -12q-27 0 -52 17
q-28 19 -28 46q0 51 68 103q63 49 115 51q7 1 20 4q33 5 48 5q68 0 122 -48q56 -51 66 -128q1 -5 4 -13q13 -82 13 -162zM426 166q0 121 -20 186q-40 124 -154 124q-24 0 -67 -8q-37 -7 -80 -33q-62 -37 -62 -81q0 -36 39 -36q65 0 65 41q0 9 -4 19q6 16 40 26q26 7 51 7
q76 0 76 -69q0 -33 -71 -63q-66 -27 -132 -55q-71 -38 -71 -90q0 -16 7 -37q7 -24 18 -31q49 -32 127 -32q82 0 144 55q10 -7 10 -20q0 -5 -2 -15t-2 -14q0 -11 11 -16q49 -4 62.5 12.5t13.5 33.5q0 47 -1 38q2 19 2 58zM330 166q0 -33 -56 -55q-40 -15 -67 -15
q-55 0 -55 56q0 46 41 71q33 20 77 20q24 0 42 -26.5t18 -50.5zM299 162q-3 16 -8 33t-27 17q-14 0 -39 -9q-28 -9 -33 -17.5t-5 -28.5q0 -30 22 -30q14 0 51 14.5t39 20.5zM218 578q-21 -18 -66 -51q-13 -9 -27 -1q-29 16 -29 27q0 9 15 23q25 27 79 73q22 14 43 14
q23 0 48 -20q9 -7 43 -41l24 -20q16 -13 16 -22q0 -10 -14.5 -21.5t-25.5 -11.5q-15 0 -46 22q-21 15 -42 29q-4 3 -18 0zM319 552q12 8 12 13q0 2 -3 4q-9 7 -16 11q-10 6 -25.5 24t-27.5 25t-27 7q-26 0 -60 -29q-22 -21 -44 -43q-6 -5 0 -13q5 -6 16 4q14 14 62 47
q18 13 34 4q27 -18 79 -54zM218 578q-21 -18 -66 -51q-13 -9 -27 -1q-29 16 -29 27q0 9 15 23q25 27 79 73q22 14 43 14q23 0 48 -20q9 -7 43 -41l24 -20q16 -13 16 -22q0 -10 -14.5 -21.5t-25.5 -11.5q-15 0 -46 22q-21 15 -42 29q-4 3 -18 0zM319 552q12 8 12 13q0 2 -3 4
q-9 7 -16 11q-10 6 -25.5 24t-27.5 25t-27 7q-26 0 -60 -29q-22 -21 -44 -43q-6 -5 0 -13q5 -6 16 4q14 14 62 47q18 13 34 4q27 -18 79 -54z" />
    <glyph glyph-name="adieresis" unicode="&#xe4;" horiz-adv-x="503" 
d="M458 159q0 -31 -7 -83q-7 -62 -17 -68q-36 -22 -80 -22q-36 0 -43 11q-3 5 -1.5 19t-4.5 18q-63 -37 -142 -37q-165 0 -165 133q0 77 103 132q49 26 145 54q33 9 33 28q0 36 -41 36q-15 0 -38 -7t-26 -16q-4 -9 1 -23q-10 -23 -42 -38q-27 -12 -51 -12q-27 0 -52 17
q-28 19 -28 46q0 51 68 103q63 49 115 51q7 1 20 4q33 5 48 5q68 0 122 -48q56 -51 66 -128q1 -5 4 -13q13 -82 13 -162zM426 166q0 121 -20 186q-40 124 -154 124q-24 0 -67 -8q-37 -7 -80 -33q-62 -37 -62 -81q0 -36 39 -36q65 0 65 41q0 9 -4 19q6 16 40 26q26 7 51 7
q76 0 76 -69q0 -33 -71 -63q-66 -27 -132 -55q-71 -38 -71 -90q0 -16 7 -37q7 -24 18 -31q49 -32 127 -32q82 0 144 55q10 -7 10 -20q0 -5 -2 -15t-2 -14q0 -11 11 -16q49 -4 62.5 12.5t13.5 33.5q0 47 -1 38q2 19 2 58zM330 166q0 -33 -56 -55q-40 -15 -67 -15
q-55 0 -55 56q0 46 41 71q33 20 77 20q24 0 42 -26.5t18 -50.5zM299 162q-3 16 -8 33t-27 17q-14 0 -39 -9q-28 -9 -33 -17.5t-5 -28.5q0 -30 22 -30q14 0 51 14.5t39 20.5zM313 539q-39 0 -52 22q-9 15 -9 49q0 67 85 67q33 0 45 -18q9 -13 9 -44q0 -43 -18.5 -59.5
t-59.5 -16.5zM356 628q0 6 -2 8q-3 6 -24 6q-19 0 -37 -6q-2 -2 -6 -4q-4 -9 -4 -22q0 -21 5 -28.5t24 -7.5q26 0 35 6.5t9 31.5q0 22 0 16zM113 539q-39 0 -52 22q-9 15 -9 49q0 67 85 67q33 0 45 -18q9 -13 9 -44q0 -43 -18.5 -59.5t-59.5 -16.5zM156 628q0 6 -2 8
q-3 6 -24 6q-19 0 -37 -6q-2 -2 -6 -4q-4 -9 -4 -22q0 -21 5 -28.5t24 -7.5q26 0 35 6.5t9 31.5q0 22 0 16z" />
    <glyph glyph-name="atilde" unicode="&#xe3;" horiz-adv-x="503" 
d="M458 159q0 -31 -7 -83q-7 -62 -17 -68q-36 -22 -80 -22q-36 0 -43 11q-3 5 -1.5 19t-4.5 18q-63 -37 -142 -37q-165 0 -165 133q0 77 103 132q49 26 145 54q33 9 33 28q0 36 -41 36q-15 0 -38 -7t-26 -16q-4 -9 1 -23q-10 -23 -42 -38q-27 -12 -51 -12q-27 0 -52 17
q-28 19 -28 46q0 51 68 103q63 49 115 51q7 1 20 4q33 5 48 5q68 0 122 -48q56 -51 66 -128q1 -5 4 -13q13 -82 13 -162zM426 166q0 121 -20 186q-40 124 -154 124q-24 0 -67 -8q-37 -7 -80 -33q-62 -37 -62 -81q0 -36 39 -36q65 0 65 41q0 9 -4 19q6 16 40 26q26 7 51 7
q76 0 76 -69q0 -33 -71 -63q-66 -27 -132 -55q-71 -38 -71 -90q0 -16 7 -37q7 -24 18 -31q49 -32 127 -32q82 0 144 55q10 -7 10 -20q0 -5 -2 -15t-2 -14q0 -11 11 -16q49 -4 62.5 12.5t13.5 33.5q0 47 -1 38q2 19 2 58zM330 166q0 -33 -56 -55q-40 -15 -67 -15
q-55 0 -55 56q0 46 41 71q33 20 77 20q24 0 42 -26.5t18 -50.5zM299 162q-3 16 -8 33t-27 17q-14 0 -39 -9q-28 -9 -33 -17.5t-5 -28.5q0 -30 22 -30q14 0 51 14.5t39 20.5zM286 633q3 -3 15 0q9 7 61 43q7 5 17 -2q5 -7 13 -15q15 -9 15 -18q0 -5 -27 -32q-17 -18 -53 -49
q-28 -18 -45 -18q-11 0 -20 6q-30 17 -86 52q-3 2 -15 0q-19 -16 -56 -44q-11 -7 -24 0q-26 15 -26 30q0 9 26 35q60 61 92 61q14 0 28 -7q28 -12 85 -42zM311 612q11 6 32 19q17 12 26 21q3 3 6 -1.5l5 -7.5q9 -7 -2.5 -11.5t-29.5 -24.5q-38 -40 -60 -40q-8 0 -18 5
q-15 6 -39 20t-51 32q-17 5 -30 -3q-18 -13 -53 -40q-9 -9 -13 -4v0v1q-3 2 -6 9q-2 9 2 11q12 5 27 20q22 24 42 36q21 13 47 -1q39 -19 86 -46q16 -5 29 5z" />
    <glyph glyph-name="aring" unicode="&#xe5;" horiz-adv-x="503" 
d="M458 159q0 -31 -7 -83q-7 -62 -17 -68q-36 -22 -80 -22q-36 0 -43 11q-3 5 -1.5 19t-4.5 18q-63 -37 -142 -37q-165 0 -165 133q0 77 103 132q49 26 145 54q33 9 33 28q0 36 -41 36q-15 0 -38 -7t-26 -16q-4 -9 1 -23q-10 -23 -42 -38q-27 -12 -51 -12q-27 0 -52 17
q-28 19 -28 46q0 51 68 103q63 49 115 51q7 1 20 4q33 5 48 5q68 0 122 -48q56 -51 66 -128q1 -5 4 -13q13 -82 13 -162zM426 166q0 121 -20 186q-40 124 -154 124q-24 0 -67 -8q-37 -7 -80 -33q-62 -37 -62 -81q0 -36 39 -36q65 0 65 41q0 9 -4 19q6 16 40 26q26 7 51 7
q76 0 76 -69q0 -33 -71 -63q-66 -27 -132 -55q-71 -38 -71 -90q0 -16 7 -37q7 -24 18 -31q49 -32 127 -32q82 0 144 55q10 -7 10 -20q0 -5 -2 -15t-2 -14q0 -11 11 -16q49 -4 62.5 12.5t13.5 33.5q0 47 -1 38q2 19 2 58zM330 166q0 -33 -56 -55q-40 -15 -67 -15
q-55 0 -55 56q0 46 41 71q33 20 77 20q24 0 42 -26.5t18 -50.5zM299 162q-3 16 -8 33t-27 17q-14 0 -39 -9q-28 -9 -33 -17.5t-5 -28.5q0 -30 22 -30q14 0 51 14.5t39 20.5zM337 640q0 -42 -30 -71t-72 -29t-72 29t-30 71t30 71t72 29t72 -29t30 -71zM312 640q0 31 -22.5 53
t-54.5 22t-54.5 -22t-22.5 -53t22.5 -53t54.5 -22t54.5 22t22.5 53zM208 640q0 -25 27 -25t27 25t-27 25t-27 -25zM183 640q0 21 15.5 35.5t36.5 14.5q22 0 37 -14.5t15 -35.5t-15 -35.5t-37 -14.5q-21 0 -36.5 14.5t-15.5 35.5z" />
    <glyph glyph-name="ccedilla" unicode="&#xe7;" horiz-adv-x="481" 
d="M444 180q0 -27 -17 -63q-52 -113 -197 -113q-105 0 -172 86q-59 76 -59 170q0 107 76 181q72 69 165 69q45 0 66 -12q53 -29 89 -71q42 -48 42 -93q0 -32 -52 -55q-42 -19 -71 -19q-27 0 -44.5 15t-17.5 40q0 4 7 21t7 22q0 10 -20 19q-16 6 -26 6q-30 0 -51 -40
q-16 -31 -16 -50q0 -33 23 -68q26 -40 61 -40q43 0 83 32.5t57 32.5q29 0 48 -23.5t19 -46.5zM409 178q0 15 -8 28t-22 13q-5 0 -24 -18q-24 -22 -43 -33q-32 -17 -67 -17q-51 0 -89 47q-34 43 -34 91q0 35 27 78q33 51 74 51q17 0 38 -12q25 -13 31 -32q2 -5 -7 -50
q-2 -8 2 -19q14 -14 28 -14t46 16q38 19 38 39q0 43 -55.5 88t-106.5 45q-54 0 -116 -43q-68 -47 -84 -109q-7 -30 -7 -63q0 -79 52 -147q59 -76 146 -76q9 0 54 4.5t86 47.5t41 85zM263 11l-5 -36q77 -4 77 -62q0 -41 -41 -75q-46 -38 -113 -38q-7 0 -41 3q-32 -2 -32 41
q0 19 10 34t27 13q72 -8 85 15q-19 4 -39 9q-27 6 -27 21q0 4 2 8q5 23 17 67q26 0 24 0q-6 -28 -16 -70q19 -5 39 -9q26 -8 26 -24q0 -5 -2 -11q-8 -18 -36 -28q-24 -8 -47 -6l-29 3q-5 1 -7 -17t4 -21h1q36 -3 41 -3q38 0 77 22q43 23 49 54q1 7 1 12q0 45 -80 44l12 54
h23z" />
    <glyph glyph-name="eacute" unicode="&#xe9;" horiz-adv-x="496" 
d="M456 313q0 -70 -58 -91q-26 -10 -93 -10q-3 0 -38.5 2t-39.5 2q-31 0 -42 -6q1 -28 41 -44q29 -12 55 -12q5 0 52.5 15.5t52.5 15.5q25 0 40 -25q13 -19 13 -38q0 -46 -63 -88q-53 -36 -93 -40q-45 -4 -56 -4q-105 0 -167 79q-56 71 -56 169q0 105 57 179q65 86 181 86
q64 0 123 -28q77 -37 88 -102q3 -17 3 -60zM425 317q0 52 -5 66q-3 7 -18 21l-20 20q-36 45 -137 45q-74 0 -117.5 -32t-80.5 -113q-9 -20 -9 -83q0 -143 121 -201q34 -16 68 -16q37 0 96 20q85 30 85 79q0 28 -22 28q-5 0 -58.5 -15.5t-58.5 -15.5q-36 0 -74 23
q-46 28 -46 70q0 9 2 18q2 3 18 9t19 6h170q24 0 47 27q20 24 20 44zM326 344q0 -26 -43 -39q-27 -7 -55 -7q-84 0 -84 31q0 34 44 63q38 26 69 26q28 0 50 -26q19 -24 19 -48zM292 353q0 9 -11 23t-22 14q-14 0 -41 -12q-33 -15 -33 -32q0 -24 38 -24q69 0 69 31zM313 577
q-63 -28 -160 -48q-16 -4 -30 15t-14 26t8 13q29 23 96 60q51 29 64 34.5t24 5.5q25 0 45 -27q16 -20 16 -35q0 -23 -49 -44zM294 591q38 17 38 32q0 10 -10 22q-11 16 -23 16q-7 0 -16 -4q-41 -23 -121 -68q-25 -13 -25 -24q0 -4 4 -9q7 -10 17 -9q44 3 136 44z" />
    <glyph glyph-name="egrave" unicode="&#xe8;" horiz-adv-x="496" 
d="M456 313q0 -70 -58 -91q-26 -10 -93 -10q-3 0 -38.5 2t-39.5 2q-31 0 -42 -6q1 -28 41 -44q29 -12 55 -12q5 0 52.5 15.5t52.5 15.5q25 0 40 -25q13 -19 13 -38q0 -46 -63 -88q-53 -36 -93 -40q-45 -4 -56 -4q-105 0 -167 79q-56 71 -56 169q0 105 57 179q65 86 181 86
q64 0 123 -28q77 -37 88 -102q3 -17 3 -60zM425 317q0 52 -5 66q-3 7 -18 21l-20 20q-36 45 -137 45q-74 0 -117.5 -32t-80.5 -113q-9 -20 -9 -83q0 -143 121 -201q34 -16 68 -16q37 0 96 20q85 30 85 79q0 28 -22 28q-5 0 -58.5 -15.5t-58.5 -15.5q-36 0 -74 23
q-46 28 -46 70q0 9 2 18q2 3 18 9t19 6h170q24 0 47 27q20 24 20 44zM326 344q0 -26 -43 -39q-27 -7 -55 -7q-84 0 -84 31q0 34 44 63q38 26 69 26q28 0 50 -26q19 -24 19 -48zM292 353q0 9 -11 23t-22 14q-14 0 -41 -12q-33 -15 -33 -32q0 -24 38 -24q69 0 69 31zM156 587
q63 -28 160 -48q16 -4 30 15t14 26t-7 13q-30 23 -97 60q-51 29 -64 34.5t-24 5.5q-25 0 -45 -27q-15 -20 -15 -35q0 -23 48 -44zM175 601q-37 17 -37 32q0 10 9 22q12 16 24 16q7 0 16 -4q40 -23 120 -68q25 -13 25 -24q0 -4 -3 -8t-11 -3q-9 1 -17 3q-59 4 -126 34z" />
    <glyph glyph-name="ecircumflex" unicode="&#xea;" horiz-adv-x="524" 
d="M456 313q0 -70 -58 -91q-26 -10 -93 -10q-3 0 -38.5 2t-39.5 2q-31 0 -42 -6q1 -28 41 -44q29 -12 55 -12q5 0 52.5 15.5t52.5 15.5q25 0 40 -25q13 -19 13 -38q0 -46 -63 -88q-53 -36 -93 -40q-45 -4 -56 -4q-105 0 -167 79q-56 71 -56 169q0 105 57 179q65 86 181 86
q64 0 123 -28q77 -37 88 -102q3 -17 3 -60zM425 317q0 52 -5 66q-3 7 -18 21l-20 20q-36 45 -137 45q-74 0 -117.5 -32t-80.5 -113q-9 -20 -9 -83q0 -143 121 -201q34 -16 68 -16q37 0 96 20q85 30 85 79q0 28 -22 28q-5 0 -58.5 -15.5t-58.5 -15.5q-36 0 -74 23
q-46 28 -46 70q0 9 2 18q2 3 18 9t19 6h170q24 0 47 27q20 24 20 44zM326 344q0 -26 -43 -39q-27 -7 -55 -7q-84 0 -84 31q0 34 44 63q38 26 69 26q28 0 50 -26q19 -24 19 -48zM292 353q0 9 -11 23t-22 14q-14 0 -41 -12q-33 -15 -33 -32q0 -24 38 -24q69 0 69 31zM228 578
q-21 -18 -66 -51q-13 -9 -27 -1q-29 16 -29 27q0 9 15 23q25 27 79 73q22 14 43 14q23 0 48 -20q9 -7 43 -41l24 -20q16 -13 16 -22q0 -10 -14.5 -21.5t-25.5 -11.5q-15 0 -46 22q-21 15 -42 29q-4 3 -18 0zM329 552q12 8 12 13q0 2 -3 4q-9 7 -16 11q-10 6 -25.5 24
t-27.5 25t-27 7q-26 0 -60 -29q-22 -21 -44 -43q-6 -5 0 -13q5 -6 16 4q14 14 62 47q18 13 34 4q27 -18 79 -54z" />
    <glyph glyph-name="edieresis" unicode="&#xeb;" horiz-adv-x="496" 
d="M456 313q0 -70 -58 -91q-26 -10 -93 -10q-3 0 -38.5 2t-39.5 2q-31 0 -42 -6q1 -28 41 -44q29 -12 55 -12q5 0 52.5 15.5t52.5 15.5q25 0 40 -25q13 -19 13 -38q0 -46 -63 -88q-53 -36 -93 -40q-45 -4 -56 -4q-105 0 -167 79q-56 71 -56 169q0 105 57 179q65 86 181 86
q64 0 123 -28q77 -37 88 -102q3 -17 3 -60zM425 317q0 52 -5 66q-3 7 -18 21l-20 20q-36 45 -137 45q-74 0 -117.5 -32t-80.5 -113q-9 -20 -9 -83q0 -143 121 -201q34 -16 68 -16q37 0 96 20q85 30 85 79q0 28 -22 28q-5 0 -58.5 -15.5t-58.5 -15.5q-36 0 -74 23
q-46 28 -46 70q0 9 2 18q2 3 18 9t19 6h170q24 0 47 27q20 24 20 44zM326 344q0 -26 -43 -39q-27 -7 -55 -7q-84 0 -84 31q0 34 44 63q38 26 69 26q28 0 50 -26q19 -24 19 -48zM292 353q0 9 -11 23t-22 14q-14 0 -41 -12q-33 -15 -33 -32q0 -24 38 -24q69 0 69 31zM313 539
q-39 0 -52 22q-9 15 -9 49q0 67 85 67q33 0 45 -18q9 -13 9 -44q0 -43 -18.5 -59.5t-59.5 -16.5zM356 628q0 6 -2 8q-3 6 -24 6q-19 0 -37 -6q-2 -2 -6 -4q-4 -9 -4 -22q0 -21 5 -28.5t24 -7.5q26 0 35 6.5t9 31.5q0 22 0 16zM113 539q-39 0 -52 22q-9 15 -9 49q0 67 85 67
q33 0 45 -18q9 -13 9 -44q0 -43 -18.5 -59.5t-59.5 -16.5zM156 628q0 6 -2 8q-3 6 -24 6q-19 0 -37 -6q-2 -2 -6 -4q-4 -9 -4 -22q0 -21 5 -28.5t24 -7.5q26 0 35 6.5t9 31.5q0 22 0 16z" />
    <glyph glyph-name="iacute" unicode="&#xed;" horiz-adv-x="278" 
d="M230 419q0 -5 -8.5 -85t-8.5 -84l14 -184q0 -37 -9 -49q-21 -29 -97 -29q-75 0 -102 33q-9 11 -9 36q0 28 4 84l4 56l-18 218q0 78 115 78q38 0 71 -15q44 -20 44 -59zM195 415q0 39 -73 39q-58 0 -74 -16q-9 -9 -9 -42q0 -5 5.5 -76t5.5 -76v-140q0 -4 -1.5 -19
t-1.5 -21q2 -19 34 -31q24 -9 45 -9q62 0 62 38l-7 252q2 16 8 59q6 38 6 42zM193 577q-63 -28 -160 -48q-16 -4 -30 15t-14 26t8 13q29 23 96 60q51 29 64 34.5t24 5.5q25 0 45 -27q16 -20 16 -35q0 -23 -49 -44zM174 591q38 17 38 32q0 10 -10 22q-11 16 -23 16
q-7 0 -16 -4q-41 -23 -121 -68q-25 -13 -25 -24q0 -4 4 -9q7 -10 17 -9q44 3 136 44z" />
    <glyph glyph-name="igrave" unicode="&#xec;" horiz-adv-x="278" 
d="M230 419q0 -5 -8.5 -75t-8.5 -74l14 -204q0 -37 -9 -49q-21 -29 -97 -29q-75 0 -102 33q-9 11 -9 36q0 28 4 84l4 56l-18 218q0 78 115 78q38 0 71 -15q44 -20 44 -59zM195 415q0 39 -73 39q-58 0 -74 -16q-9 -9 -9 -42q0 -5 5.5 -66t5.5 -66v-160q0 -4 -1.5 -19
t-1.5 -21q2 -19 34 -31q24 -9 45 -9q62 0 62 38l-7 252q2 16 8 59q6 38 6 42zM46 587q63 -28 160 -48q16 -4 30 15t14 26t-7 13q-30 23 -97 60q-51 29 -64 34.5t-24 5.5q-25 0 -45 -27q-15 -20 -15 -35q0 -23 48 -44zM65 601q-37 17 -37 32q0 10 9 22q12 16 24 16q7 0 16 -4
q40 -23 120 -68q25 -13 25 -24q0 -4 -3 -8t-11 -3q-9 1 -17 3q-59 4 -126 34z" />
    <glyph glyph-name="icircumflex" unicode="&#xee;" horiz-adv-x="278" 
d="M230 419q0 -5 -8.5 -85t-8.5 -84l14 -184q0 -37 -9 -49q-21 -29 -97 -29q-75 0 -102 33q-9 11 -9 36q0 28 4 84l4 56l-18 218q0 78 115 78q38 0 71 -15q44 -20 44 -59zM195 415q0 39 -73 39q-58 0 -74 -16q-9 -9 -9 -42q0 -5 5.5 -76t5.5 -76v-140q0 -4 -1.5 -19
t-1.5 -21q2 -19 34 -31q24 -9 45 -9q62 0 62 38l-7 232q14 128 14 121zM98 578q-21 -18 -66 -51q-13 -9 -27 -1q-29 16 -29 27q0 9 15 23q25 27 79 73q22 14 43 14q23 0 48 -20q9 -7 43 -41l24 -20q16 -13 16 -22q0 -10 -14.5 -21.5t-25.5 -11.5q-15 0 -46 22q-21 15 -42 29
q-4 3 -18 0zM199 552q12 8 12 13q0 2 -3 4q-9 7 -16 11q-10 6 -25.5 24t-27.5 25t-27 7q-26 0 -60 -29q-22 -21 -44 -43q-6 -5 0 -13q5 -6 16 4q14 14 62 47q18 13 34 4q27 -18 79 -54z" />
    <glyph glyph-name="idieresis" unicode="&#xef;" horiz-adv-x="278" 
d="M230 419q0 -5 -8.5 -75t-8.5 -74l14 -204q0 -37 -9 -49q-21 -29 -97 -29q-75 0 -102 33q-9 11 -9 36q0 28 4 84l4 56l-18 218q0 78 115 78q38 0 71 -15q44 -20 44 -59zM195 415q0 39 -73 39q-58 0 -74 -16q-9 -9 -9 -42q0 -5 5.5 -76t5.5 -76v-140q0 -4 -1.5 -19
t-1.5 -21q2 -19 34 -31q24 -9 45 -9q62 0 62 38l-7 252q2 16 8 59q6 38 6 42zM193 539q-39 0 -52 22q-9 15 -9 49q0 67 85 67q33 0 45 -18q9 -13 9 -44q0 -43 -18.5 -59.5t-59.5 -16.5zM236 628q0 6 -2 8q-3 6 -24 6q-19 0 -37 -6q-2 -2 -6 -4q-4 -9 -4 -22q0 -21 5 -28.5
t24 -7.5q26 0 35 6.5t9 31.5q0 22 0 16zM13 539q-39 0 -52 22q-9 15 -9 49q0 67 85 67q33 0 45 -18q9 -13 9 -44q0 -43 -18.5 -59.5t-59.5 -16.5zM56 628q0 6 -2 8q-3 6 -24 6q-19 0 -37 -6q-2 -2 -6 -4q-4 -9 -4 -22q0 -21 5 -28.5t24 -7.5q26 0 35 6.5t9 31.5q0 22 0 16z
" />
    <glyph glyph-name="ntilde" unicode="&#xf1;" horiz-adv-x="521" 
d="M468 172q0 -39 -12 -123q-2 -15 -17 -28q-36 -33 -103 -33q-64 0 -64 51q0 4 12 90.5t12 90.5q0 72 -40 72q-47 0 -60 -78q-8 -72 -17 -145q-17 -78 -74 -78q-72 0 -92 67q-7 26 -7 105q0 260 16 279q44 53 113 53q26 0 24 0q12 -2 20 -14.5t8 -30.5q-1 -26 0 -31
q2 -7 6 -12q27 35 54.5 68.5t60.5 33.5q98 0 138 -148q22 -82 22 -189zM433 213q0 79 -15 138q-29 116 -106 116q-37 0 -78 -52.5t-52 -52.5q-21 0 -21 37v10q-1 38 -17 51q-31 0 -36 -1q-47 -12 -52 -25q-18 -42 -18 -136q0 -24 1.5 -65.5t1.5 -55.5q0 -11 -1 -33t-1 -32
q0 -40 11 -58q16 -24 55 -24q23 0 30 5q17 36 28 126t21.5 114.5t35.5 38.5q21 13 39 13q65 0 65 -112q0 -4 -10.5 -81t-10.5 -81q0 -30 33 -30q18 0 47 9q34 10 38 20q12 34 12 161zM276 633q3 -3 15 0q9 7 61 43q7 5 17 -2q5 -7 13 -15q15 -9 15 -18q0 -5 -27 -32
q-17 -18 -53 -49q-28 -18 -45 -18q-11 0 -20 6q-30 17 -86 52q-3 2 -15 0q-19 -16 -56 -44q-11 -7 -24 0q-26 15 -26 30q0 9 26 35q60 61 92 61q14 0 28 -7q28 -12 85 -42zM301 612q11 6 32 19q17 12 26 21q3 3 6 -1.5l5 -7.5q9 -7 -2.5 -11.5t-29.5 -24.5q-38 -40 -60 -40
q-8 0 -18 5q-15 6 -39 20t-51 32q-17 5 -30 -3q-18 -13 -53 -40q-9 -9 -13 -4v0v1q-3 2 -6 9q-2 9 2 11q12 5 27 20q22 24 42 36q21 13 47 -1q39 -19 86 -46q16 -5 29 5z" />
    <glyph glyph-name="oacute" unicode="&#xf3;" horiz-adv-x="526" 
d="M481 219q0 -115 -71 -175q-65 -56 -174 -56q-123 0 -185 92q-49 74 -49 184q0 15 8 56q16 79 93 140q72 56 138 56q121 0 187 -102q53 -83 53 -195zM450 240q0 79 -30 142q-20 43 -75 72q-51 27 -97 27q-80 0 -147 -63q-68 -66 -68 -148q0 -98 45 -162q55 -78 163 -78
q96 0 150 51q59 54 59 159zM359 233q0 -102 -90 -102q-59 0 -98 54q-33 46 -33 102q0 44 33 79t81 35q32 0 25 1q16 -2 29 -13q53 -50 53 -156zM327 231q0 43 -10 78q-18 60 -60 60q-31 0 -59 -23.5t-28 -56.5q0 -44 20 -80q27 -46 79 -46q37 0 49 17q9 13 9 51zM313 587
q-63 -28 -160 -48q-16 -4 -30 15t-14 26t8 13q29 23 96 60q51 29 64 34.5t24 5.5q25 0 45 -27q16 -20 16 -35q0 -23 -49 -44zM294 601q38 17 38 32q0 10 -10 22q-11 16 -23 16q-7 0 -16 -4q-41 -23 -121 -68q-25 -13 -25 -24q0 -4 4 -9q7 -10 17 -9q44 3 136 44z" />
    <glyph glyph-name="ograve" unicode="&#xf2;" horiz-adv-x="526" 
d="M481 219q0 -115 -71 -175q-65 -56 -174 -56q-123 0 -185 92q-49 74 -49 184q0 15 8 56q16 79 93 140q72 56 138 56q121 0 187 -102q53 -83 53 -195zM450 240q0 79 -30 142q-20 43 -75 72q-51 27 -97 27q-80 0 -147 -63q-68 -66 -68 -148q0 -98 45 -162q55 -78 163 -78
q96 0 150 51q59 54 59 159zM359 233q0 -102 -90 -102q-59 0 -98 54q-33 46 -33 102q0 44 33 79t81 35q32 0 25 1q16 -2 29 -13q53 -50 53 -156zM327 231q0 43 -10 78q-18 60 -60 60q-31 0 -59 -23.5t-28 -56.5q0 -44 20 -80q27 -46 79 -46q37 0 49 17q9 13 9 51zM156 587
q63 -28 160 -48q16 -4 30 15t14 26t-7 13q-30 23 -97 60q-51 29 -64 34.5t-24 5.5q-25 0 -45 -27q-15 -20 -15 -35q0 -23 48 -44zM175 601q-37 17 -37 32q0 10 9 22q12 16 24 16q7 0 16 -4q40 -23 120 -68q25 -13 25 -24q0 -4 -3 -8t-11 -3q-9 1 -17 3q-59 4 -126 34z" />
    <glyph glyph-name="ocircumflex" unicode="&#xf4;" horiz-adv-x="526" 
d="M481 219q0 -115 -71 -175q-65 -56 -174 -56q-123 0 -185 92q-49 74 -49 184q0 15 8 56q16 79 93 140q72 56 138 56q121 0 187 -102q53 -83 53 -195zM450 240q0 79 -30 142q-20 43 -75 72q-51 27 -97 27q-80 0 -147 -63q-68 -66 -68 -148q0 -98 45 -162q55 -78 163 -78
q96 0 150 51q59 54 59 159zM359 233q0 -102 -90 -102q-59 0 -98 54q-33 46 -33 102q0 44 33 79t81 35q32 0 25 1q16 -2 29 -13q53 -50 53 -156zM327 231q0 43 -10 78q-18 60 -60 60q-31 0 -59 -23.5t-28 -56.5q0 -44 20 -80q27 -46 79 -46q37 0 49 17q9 13 9 51zM228 588
q-21 -18 -66 -51q-13 -9 -27 -1q-29 16 -29 27q0 9 15 23q25 27 79 73q22 14 43 14q23 0 48 -20q9 -7 43 -41l24 -20q16 -13 16 -22q0 -10 -14.5 -21.5t-25.5 -11.5q-15 0 -46 22q-21 15 -42 29q-4 3 -18 0zM329 562q12 8 12 13q0 2 -3 4q-9 7 -16 11q-10 6 -25.5 24
t-27.5 25t-27 7q-26 0 -60 -29q-22 -21 -44 -43q-6 -5 0 -13q5 -6 16 4q14 14 62 47q18 13 34 4q27 -18 79 -54z" />
    <glyph glyph-name="odieresis" unicode="&#xf6;" horiz-adv-x="526" 
d="M481 219q0 -115 -71 -175q-65 -56 -174 -56q-123 0 -185 92q-49 74 -49 184q0 15 8 56q16 79 93 140q72 56 138 56q121 0 187 -102q53 -83 53 -195zM450 240q0 79 -30 142q-20 43 -75 72q-51 27 -97 27q-80 0 -147 -63q-68 -66 -68 -148q0 -98 45 -162q55 -78 163 -78
q96 0 150 51q59 54 59 159zM359 233q0 -102 -90 -102q-59 0 -98 54q-33 46 -33 102q0 44 33 79t81 35q32 0 25 1q16 -2 29 -13q53 -50 53 -156zM327 231q0 43 -10 78q-18 60 -60 60q-31 0 -59 -23.5t-28 -56.5q0 -44 20 -80q27 -46 79 -46q37 0 49 17q9 13 9 51zM333 539
q-39 0 -52 22q-9 15 -9 49q0 67 85 67q33 0 45 -18q9 -13 9 -44q0 -43 -18.5 -59.5t-59.5 -16.5zM376 628q0 6 -2 8q-3 6 -24 6q-19 0 -37 -6q-2 -2 -6 -4q-4 -9 -4 -22q0 -21 5 -28.5t24 -7.5q26 0 35 6.5t9 31.5q0 22 0 16zM133 539q-39 0 -52 22q-9 15 -9 49q0 67 85 67
q33 0 45 -18q9 -13 9 -44q0 -43 -18.5 -59.5t-59.5 -16.5zM176 628q0 6 -2 8q-3 6 -24 6q-19 0 -37 -6q-2 -2 -6 -4q-4 -9 -4 -22q0 -21 5 -28.5t24 -7.5q26 0 35 6.5t9 31.5q0 22 0 16z" />
    <glyph glyph-name="otilde" unicode="&#xf5;" horiz-adv-x="526" 
d="M481 219q0 -115 -71 -175q-65 -56 -174 -56q-123 0 -185 92q-49 74 -49 184q0 15 8 56q16 79 93 140q72 56 138 56q121 0 187 -102q53 -83 53 -195zM450 240q0 79 -30 142q-20 43 -75 72q-51 27 -97 27q-80 0 -147 -63q-68 -66 -68 -148q0 -98 45 -162q55 -78 163 -78
q96 0 150 51q59 54 59 159zM359 233q0 -102 -90 -102q-59 0 -98 54q-33 46 -33 102q0 44 33 79t81 35q32 0 25 1q16 -2 29 -13q53 -50 53 -156zM327 231q0 43 -10 78q-18 60 -60 60q-31 0 -59 -23.5t-28 -56.5q0 -44 20 -80q27 -46 79 -46q37 0 49 17q9 13 9 51zM296 633
q3 -3 15 0q9 7 61 43q7 5 17 -2q5 -7 13 -15q15 -9 15 -18q0 -5 -27 -32q-17 -18 -53 -49q-28 -18 -45 -18q-11 0 -20 6q-30 17 -86 52q-3 2 -15 0q-19 -16 -56 -44q-11 -7 -24 0q-26 15 -26 30q0 9 26 35q60 61 92 61q14 0 28 -7q28 -12 85 -42zM321 612q11 6 32 19
q17 12 26 21q3 3 6 -1.5l5 -7.5q9 -7 -2.5 -11.5t-29.5 -24.5q-38 -40 -60 -40q-8 0 -18 5q-15 6 -39 20t-51 32q-17 5 -30 -3q-18 -13 -53 -40q-9 -9 -13 -4v0v1q-3 2 -6 9q-2 9 2 11q12 5 27 20q22 24 42 36q21 13 47 -1q39 -19 86 -46q16 -5 29 5z" />
    <glyph glyph-name="uacute" unicode="&#xfa;" horiz-adv-x="522" 
d="M461 215q0 -81 -1 -97q-5 -62 -26 -98q-16 -26 -69 -26q-31 0 -52 14q-24 17 -24 48q0 13 4 27l1 2q0 3 -2 7q-90 -102 -145 -102q-85 0 -119 98q-20 57 -20 138q0 157 33 242q6 13 41 25t58 12q26 0 47 -11q27 -14 27 -41q0 -5 -14.5 -112t-14.5 -111q0 -47 17 -47
q6 0 23.5 17t23.5 29q10 18 17 54.5t7 52.5q0 8 -2 17.5t-2 19.5v94q0 38 61 38q90 0 108 -41q14 -32 16 -98q7 -167 7 -151zM428 224q0 170 -16 218q-4 13 -33 21q-23 6 -43 6q-23 0 -34 -8l-2 -164q-9 -88 -81 -142q-18 -12 -32 -12q-34 0 -34 63q0 3 11 97q13 105 17 151
q-24 15 -43 15q-14 0 -39 -5q-33 -8 -36 -18q-23 -78 -23 -205q0 -211 105 -211q39 0 75 32q23 21 73 88h17q12 -20 12 -44q0 -10 -2.5 -25.5t-2.5 -20.5q0 -26 55 -26q37 0 44 12.5t9 54.5q3 48 3 123zM313 587q-63 -28 -160 -48q-16 -4 -30 15t-14 26t8 13q29 23 96 60
q51 29 64 34.5t24 5.5q25 0 45 -27q16 -20 16 -35q0 -23 -49 -44zM294 601q38 17 38 32q0 10 -10 22q-11 16 -23 16q-7 0 -16 -4q-41 -23 -121 -68q-25 -13 -25 -24q0 -4 4 -9q7 -10 17 -9q44 3 136 44z" />
    <glyph glyph-name="ugrave" unicode="&#xf9;" horiz-adv-x="522" 
d="M461 215q0 -81 -1 -97q-5 -62 -26 -98q-16 -26 -69 -26q-31 0 -52 14q-24 17 -24 48q0 13 4 27l1 2q0 3 -2 7q-90 -102 -145 -102q-85 0 -119 98q-20 57 -20 138q0 157 33 242q6 13 41 25t58 12q26 0 47 -11q27 -14 27 -41q0 -5 -14.5 -112t-14.5 -111q0 -47 17 -47
q6 0 23.5 17t23.5 29q10 18 17 54.5t7 52.5q0 8 -2 17.5t-2 19.5v94q0 38 61 38q90 0 108 -41q14 -32 16 -98q7 -167 7 -151zM428 224q0 170 -16 218q-4 13 -33 21q-23 6 -43 6q-23 0 -34 -8l-2 -164q-9 -88 -81 -142q-18 -12 -32 -12q-34 0 -34 63q0 3 11 97q13 105 17 151
q-24 15 -43 15q-14 0 -39 -5q-33 -8 -36 -18q-23 -78 -23 -205q0 -211 105 -211q39 0 75 32q23 21 73 88h17q12 -20 12 -44q0 -10 -2.5 -25.5t-2.5 -20.5q0 -26 55 -26q37 0 44 12.5t9 54.5q3 48 3 123zM146 587q63 -28 160 -48q16 -4 30 15t14 26t-7 13q-30 23 -97 60
q-51 29 -64 34.5t-24 5.5q-25 0 -45 -27q-15 -20 -15 -35q0 -23 48 -44zM165 601q-41 18 -41 30q0 9 9 20q14 19 30 19q6 0 14 -3q40 -23 120 -68q25 -13 25 -24q0 -4 -3 -8t-11 -3q-9 1 -17 3q-59 4 -126 34z" />
    <glyph glyph-name="ucircumflex" unicode="&#xfb;" horiz-adv-x="522" 
d="M461 215q0 -81 -1 -97q-5 -62 -26 -98q-16 -26 -69 -26q-31 0 -52 14q-24 17 -24 48q0 13 4 27l1 2q0 3 -2 7q-90 -102 -145 -102q-85 0 -119 98q-20 57 -20 138q0 157 33 242q6 13 41 25t58 12q26 0 47 -11q27 -14 27 -41q0 -5 -14.5 -112t-14.5 -111q0 -47 17 -47
q6 0 23.5 17t23.5 29q10 18 17 54.5t7 52.5q0 8 -2 17.5t-2 19.5v94q0 38 61 38q90 0 108 -41q14 -32 16 -98q7 -167 7 -151zM428 224q0 170 -16 218q-4 13 -33 21q-23 6 -43 6q-23 0 -34 -8l-2 -164q-9 -88 -81 -142q-18 -12 -32 -12q-34 0 -34 63q0 3 11 97q13 105 17 151
q-24 15 -43 15q-14 0 -39 -5q-33 -8 -36 -18q-23 -78 -23 -205q0 -211 105 -211q39 0 75 32q23 21 73 88h17q12 -20 12 -44q0 -10 -2.5 -25.5t-2.5 -20.5q0 -26 55 -26q37 0 44 12.5t9 54.5q3 48 3 123zM218 588q-21 -18 -66 -51q-13 -9 -27 -1q-29 16 -29 27q0 9 15 23
q25 27 79 73q22 14 43 14q23 0 48 -20q9 -7 43 -41l24 -20q16 -13 16 -22q0 -10 -14.5 -21.5t-25.5 -11.5q-15 0 -46 22q-21 15 -42 29q-4 3 -18 0zM319 562q12 8 12 13q0 2 -3 4q-9 7 -16 11q-10 6 -25.5 24t-27.5 25t-27 7q-26 0 -60 -29q-22 -21 -44 -43q-6 -5 0 -13
q5 -6 16 4q14 14 62 47q18 13 34 4q27 -18 79 -54z" />
    <glyph glyph-name="udieresis" unicode="&#xfc;" horiz-adv-x="522" 
d="M461 215q0 -81 -1 -97q-5 -62 -26 -98q-16 -26 -69 -26q-31 0 -52 14q-24 17 -24 48q0 13 4 27l1 2q0 3 -2 7q-90 -102 -145 -102q-85 0 -119 98q-20 57 -20 138q0 157 33 242q6 13 41 25t58 12q26 0 47 -11q27 -14 27 -41q0 -5 -14.5 -112t-14.5 -111q0 -47 17 -47
q6 0 23.5 17t23.5 29q10 18 17 54.5t7 52.5q0 8 -2 17.5t-2 19.5v94q0 38 61 38q90 0 108 -41q14 -32 16 -98q7 -167 7 -151zM428 224q0 170 -16 218q-4 13 -33 21q-23 6 -43 6q-23 0 -34 -8l-2 -164q-9 -88 -81 -142q-18 -12 -32 -12q-34 0 -34 63q0 3 11 97q13 105 17 151
q-24 15 -43 15q-14 0 -39 -5q-33 -8 -36 -18q-23 -78 -23 -205q0 -211 105 -211q39 0 75 32q23 21 73 88h17q12 -20 12 -44q0 -10 -2.5 -25.5t-2.5 -20.5q0 -26 55 -26q37 0 44 12.5t9 54.5q3 48 3 123zM323 539q-39 0 -52 22q-9 15 -9 49q0 67 85 67q33 0 45 -18
q9 -13 9 -44q0 -43 -18.5 -59.5t-59.5 -16.5zM366 628q0 6 -2 8q-3 6 -24 6q-19 0 -37 -6q-2 -2 -6 -4q-4 -9 -4 -22q0 -21 5 -28.5t24 -7.5q26 0 35 6.5t9 31.5q0 22 0 16zM123 539q-39 0 -52 22q-9 15 -9 49q0 67 85 67q33 0 45 -18q9 -13 9 -44q0 -43 -18.5 -59.5
t-59.5 -16.5zM166 628q0 6 -2 8q-3 6 -24 6q-19 0 -37 -6q-2 -2 -6 -4q-4 -9 -4 -22q0 -21 5 -28.5t24 -7.5q26 0 35 6.5t9 31.5q0 22 0 16z" />
    <glyph glyph-name="degree" unicode="&#xb0;" horiz-adv-x="526" 
d="M109 404q-65 0 -98 49q-26 38 -26 95q0 8 5 29q8 42 49 74q37 29 72 29q64 0 99 -54q27 -43 27 -100q0 -61 -35.5 -91.5t-92.5 -30.5zM195 605q-9 19 -34 32.5t-46 13.5q-38 0 -70 -30.5t-32 -69.5q0 -47 22 -78q25 -36 76 -36q98 0 98 99q0 38 -14 69zM125 476
q-33 0 -54 29q-17 25 -17 55q0 24 18 43.5t45 19.5q22 0 31 -8q28 -27 28 -82q0 -57 -51 -57zM119 595q-13 0 -25.5 -10.5t-12.5 -23.5q0 -21 10 -37q12 -20 34 -20q15 0 19 5t4 23q0 63 -29 63z" />
    <glyph glyph-name="cent" unicode="&#xa2;" horiz-adv-x="521" 
d="M462 319q0 -13 -11 -47q-14 -38 -56 -72q-35 -28 -75 -43q-1 -4 -1 -32v-20q0 -39 -4 -45.5t-28 -12.5q-19 -5 -29 -5q-27 0 -65 9q-41 10 -44 19q0 38 -5 80q-20 11 -56 31q-41 23 -57 78q-22 70 -22 117q0 38 8 66q14 52 32 85q35 63 87 80q6 2 9 23q2 14 4 29
q9 9 38.5 16.5t54.5 7.5q37 0 67 -11q3 -2 6 -22t8 -23q19 -7 54 -26q21 -16 39.5 -48.5t18.5 -51.5q0 -27 -50 -56q-45 -25 -67 -25q-41 0 -41 31q0 4 1 13t1 13q0 34 -47 34q-54 0 -54 -39l4 -185q13 -13 24 -17q8 -2 31 -2q24 0 23 0q16 2 22 16q1 2 -1 29q-1 26 7 39
q12 20 50 32q30 9 55 9q35 0 54 -24q15 -21 15 -50zM425 317q0 42 -39 42q-40 0 -75 -24q-1 -6 0 -42q1 -24 -9 -39q-4 -7 -28.5 -13.5t-36.5 -6.5q-20 0 -49 13q-35 15 -36 33t-1 113v107q0 21 33 34q26 11 48 11q27 0 48 -11q26 -14 27 -39q1 -10 1.5 -22t9.5 -16
q19 4 48 17q39 18 39 36q0 6 -15.5 28.5t-29.5 35.5q-25 23 -58 26q-1 1 -10 3q-4 20 -17 46q-74 0 -95 -8q-2 -20 -6 -46q-25 -13 -63 -38q-31 -28 -48 -84q-16 -49 -16 -99q0 -42 13 -86q15 -49 38 -73q13 -14 38 -24l41 -17q2 -17 2 -80q24 -14 72 -14q20 0 31 30t9 71
q3 5 8 8q52 15 87 48q39 36 39 80z" />
    <glyph glyph-name="sterling" unicode="&#xa3;" horiz-adv-x="629" 
d="M591 124q0 -54 -102 -100q-49 -21 -95 -26q-23 -3 -100 -3q-198 0 -240 49q-8 9 -16 19q-2 5 0 27q1 10 14.5 35.5t16.5 39.5q4 21 14 62q7 27 7 38q0 17 -15 33q-1 6 -34 7q-47 2 -50 53q-2 34 28 55q22 16 40 16q4 0 4 -2q26 2 26 34q0 25 -15 66q-1 4 -1 9q0 40 38 82
q34 37 88 52q42 11 73 12q-20 0 54 0q39 0 95 -29t70 -60q5 -10 5 -40q0 -51 -25 -71q-21 -17 -68 -17q-11 15 -22 31q-12 11 -32 11q-15 0 -41 -5q-11 -2 -37 -11q-4 -2 -6 -9q-2 -10 -3 -11q10 -23 24 -49q18 2 80 -12q26 -9 34 -27.5t3 -46.5t-37 -38q-12 -3 -59 -6
q-34 -3 -40 -14q12 -102 61 -102q4 0 70 16t71 16q45 0 77 -16q45 -22 45 -68zM552 126q0 40 -73 40q-5 0 -67.5 -14t-65.5 -14q-46 0 -77 30q-37 37 -37 107q0 40 10 50q2 2 21 8q6 2 16 2q8 0 25.5 -2t24.5 -2q11 0 16 3q26 16 26 21q0 4 -9 14.5t-14 11.5q-15 1 -67 3
q-4 0 -9 -1q1 -1 3 -2q-1 1 -7 3q-10 4 -25.5 40t-15.5 46q0 41 28 54q13 6 61 11q13 2 25 2q31 0 49 -10q13 -6 20 -17t8 -11q31 0 40 18q5 12 7 59q-36 34 -50 44q-39 27 -77 27q-19 0 -35.5 1.5t-21.5 1.5q-19 0 -65 -12q-23 -12 -55 -26q-32 -9 -52 -89q21 -32 21 -63
q0 -24 -10.5 -39t-21.5 -14q-3 -3 -39 -10q-30 -5 -30 -36q0 -22 24 -22q5 0 15.5 1t15.5 1q15 0 14 -12q36 -37 36 -86q0 -41 -28 -102q-26 -56 -24 -65q4 -18 86 -33q69 -13 111 -13q151 0 231 48q42 26 42 48z" />
    <glyph glyph-name="section" unicode="&#xa7;" 
 />
    <glyph glyph-name="bullet" unicode="&#x2022;" horiz-adv-x="454" 
d="M382 355q0 -53 -65 -118q-67 -68 -129 -68q-60 0 -83 23q-90 88 -90 168q0 73 59.5 140t134.5 67q76 0 128 -79q45 -67 45 -133zM347 360q0 55 -36 109q-42 63 -103 63q-56 0 -110 -64q-51 -60 -51 -111q0 -28 31 -79t56 -62q18 -8 43 -8q60 0 115 50t55 102z" />
    <glyph glyph-name="paragraph" unicode="&#xb6;" 
 />
    <glyph glyph-name="germandbls" unicode="&#xdf;" horiz-adv-x="581" 
d="M349 506q0 -36 -25 -51.5t-49 -29.5q-27 -20 -27 -63q0 -13 8 -31q9 -23 25 -27q37 -9 48 -16q30 -19 30 -67q0 -92 -66 -92q-27 0 -27 -51q0 -29 8.5 -58.5t17.5 -30.5q22 -3 43 -3q101 0 158.5 55.5t57.5 161.5q0 57 -20 91q-28 46 -100 70q50 26 70 58q16 27 16 70
q0 89 -55 147t-145 58q-77 7 -133 0q-64 0 -124 -60t-60 -134q0 -6 11 -69q12 -68 13 -82q5 -53 10 -276q1 -5 -1 -21.5t-2 -25.5q0 -50 45 -50q23 0 60 9q43 11 54 25q36 45 36 155q0 56 -18 177q-19 127 -21 181l4 14q3 12 12 12q14 4 98 0q48 0 48 -46zM156 507l39 -339
q-10 -88 -16 -103q-17 -45 -75 -45q-10 0 -22 4q-15 6 -15 15v135q0 60 -16 182.5t-16 139.5q0 66 47.5 115t107.5 49q46 11 122 0q67 0 117 -43q54 -46 54 -116q0 -53 -28 -77q-9 -9 -51 -28q-28 -12 -28 -34q0 -18 36 -29q48 -16 66 -30q35 -30 35 -93q0 -92 -59 -139
q-52 -40 -142 -40q-3 31 -6 53q86 10 88 131q0 66 -28 92q-12 10 -54 24q-29 9 -29 34q0 30 26 44.5t51 27.5q27 23 27 70q0 31 -20 53.5t-50 22.5q-60 13 -123 3q-21 0 -32 -26q-8 -19 -8 -42q0 -9 2 -11z" />
    <glyph glyph-name="registered" unicode="&#xae;" horiz-adv-x="374" 
d="M162 381q-63 0 -108 45.5t-45 109.5q0 63 45 107.5t108 44.5t106.5 -45t43.5 -109t-43.5 -108.5t-106.5 -44.5zM162 660q-53 1 -88.5 -35.5t-35.5 -90.5q0 -52 37 -88.5t87 -36.5t86 36.5t36 88.5t-36 88.5t-86 37.5zM166 621q10 4 29 -2q31 -9 31 -39q0 -44 -45 -48
l47 -72h-32l-47 72h-23v-72h-27v161h67zM167 595h-38v-35l42 -1q28 0 28 21q0 15 -32 15z" />
    <glyph glyph-name="copyright" unicode="&#xa9;" horiz-adv-x="772" 
d="M346 -16q-145 0 -246 101.5t-101 247.5q0 147 101 248.5t246 101.5q146 0 247 -101.5t101 -248.5q0 -146 -101 -247.5t-247 -101.5zM346 630q-120 0 -207.5 -86.5t-87.5 -210.5q0 -123 87.5 -209.5t207.5 -86.5t207.5 86.5t87.5 209.5q0 124 -87.5 210.5t-207.5 86.5z
M465 402q-23 81 -109 81q-64 0 -102 -42.5t-38 -106.5q0 -59 33 -100q38 -47 105 -47q91 0 111 79h53q-14 -63 -58 -97.5t-105 -34.5q-88 0 -141 58q-51 55 -51 144q0 85 53.5 143t139.5 58q61 0 106.5 -36.5t55.5 -98.5h-53z" />
    <glyph glyph-name="trademark" unicode="&#x2122;" horiz-adv-x="481" 
d="M229 596v-147h-38v206h54l53 -133l54 133h54v-206h-37v150l-59 -150h-25zM100 616v-167h-38v167h-65v39h167v-39h-64z" />
    <glyph glyph-name="acute" unicode="&#xb4;" horiz-adv-x="712" 
d="M423 757q-63 -28 -160 -48q-16 -4 -30 15t-14 26t8 13q29 23 96 60q51 29 64 34.5t24 5.5q25 0 45 -27q16 -20 16 -35q0 -23 -49 -44zM404 771q38 17 38 32q0 10 -10 22q-11 16 -23 16q-7 0 -16 -4q-41 -23 -121 -68q-25 -13 -25 -24q0 -4 4 -9q7 -10 17 -9q44 3 136 44z
" />
    <glyph glyph-name="dieresis" unicode="&#xa8;" horiz-adv-x="433" 
d="M303 719q-39 0 -52 22q-9 15 -9 49q0 67 85 67q33 0 45 -18q9 -13 9 -44q0 -43 -18.5 -59.5t-59.5 -16.5zM346 808q0 6 -2 8q-3 6 -24 6q-19 0 -37 -6q-2 -2 -6 -4q-4 -9 -4 -22q0 -21 5 -28.5t24 -7.5q26 0 35 6.5t9 31.5q0 22 0 16zM103 719q-39 0 -52 22q-9 15 -9 49
q0 67 85 67q33 0 45 -18q9 -13 9 -44q0 -43 -18.5 -59.5t-59.5 -16.5zM146 808q0 6 -2 8q-3 6 -24 6q-19 0 -37 -6q-2 -2 -6 -4q-4 -9 -4 -22q0 -21 5 -28.5t24 -7.5q26 0 35 6.5t9 31.5q0 22 0 16z" />
    <glyph glyph-name="AE" unicode="&#xc6;" horiz-adv-x="1075" 
d="M1031 109q0 -54 -102 -99q-51 -22 -86 -27q-26 -4 -91 -3h-127q-86 2 -130 13q-76 3 -76 74q0 26 13 75q6 24 -10 39q-13 2 -28 2q-77 0 -117 -27q-24 -16 -54 -65q-32 -53 -57 -74t-81 -19q-71 3 -71 60q0 16 5 42q13 73 46 148q18 42 101 194q39 71 58 99q43 60 90 82
q85 40 197 35h32q20 -3 32 -17q6 -2 16 -2q23 0 79 14q61 16 136 15q57 0 108 -10q75 -13 87 -41q5 -11 5 -41q0 -91 -93 -90l-134 2q-25 0 -49 -11q-10 -5 -16 -18q3 -5 9 -12q16 -3 95 -9q59 -5 100 -19q13 -5 24 -32q1 -3 1 -21q0 -63 -43 -82q-24 -11 -92 -13
q-63 -2 -84 -18q5 -44 32 -58q15 -7 55 -7q4 0 48.5 3t49.5 3q45 -1 77 -17q45 -23 45 -68zM992 111q0 40 -73 41q-5 0 -46 -1.5t-44 -1.5q-62 1 -90 13q-50 22 -50 88q0 39 60 50q36 4 71 7q31 2 77 13q15 9 15 41q0 4 -5 13t-10 10q-58 10 -129 14q-39 3 -62 11
q-11 4 -19 22t-8 28q0 40 42 54q12 3 75 9q59 6 96 3q15 -2 31 -4q32 0 42 19q9 15 10 60q-34 32 -157 34q-75 0 -162 -22q-14 -5 -38 -10q-45 -4 -88 9q-22 7 -43 13q-190 8 -273 -163q-94 -193 -94 -195q-66 -144 -66 -191q0 -37 52 -40q30 -1 51 22q11 12 30.5 49.5
t35.5 53.5q36 35 114 54q44 12 83 10q34 -1 45.5 -10.5t11.5 -33.5q0 -10 -5 -40q-4 -25 -2 -43q3 -22 5 -43q1 -14 37 -16q36 -15 109 -19q49 0 98 -1q151 -1 231 45q42 26 42 48zM323 277l-34 1q-25 1 -41 23t-12 44q11 56 69 116q65 68 132 65q41 -2 70 -51
q24 -42 24 -84q0 -55 -80 -89q-67 -28 -128 -25zM488 381q4 20 -10 66q-8 27 -23 38q-3 2 -22 3q-49 2 -103.5 -47.5t-54.5 -99.5q0 -17 18 -23q9 -2 44 -4q34 -1 82 14q63 20 69 53z" />
    <glyph glyph-name="Oslash" unicode="&#xd8;" horiz-adv-x="725" 
d="M424 534q-21 10 -45 10q-64 0 -117 -59.5t-53 -124.5q0 -37 15 -81zM464 528l-248 -318q-42 92 -42 150q0 78 61 146q64 73 144 73q43 0 97 -36zM298 164q22 -12 60 -12q49 0 111 79q60 76 60 124q0 35 -18 78l-7 -9q-3 -4 -66 -71l-50 -51q-26 -40 -90 -138zM475 444
q9 12 40 56q49 -87 49 -145q0 -59 -68 -145q-72 -93 -138 -93q-65 0 -105 41l105 160q4 6 53.5 59t55.5 56q3 4 8 11zM177 22l-38 -41q-8 -2 -27 -6q-23 -4 -31 -4q-12 0 -26 13.5t-14 23.5q1 5 3 12l7 28q1 1 1.5 3.5t6.5 14.5l9 11l24 32q-69 107 -69 227q0 254 256 327
q33 10 81 10q86 0 148 -33l26 33q8 10 50 24l39 -39l-4 -52l-30 -52q69 -117 69 -227q0 -162 -90 -249q-86 -83 -240 -83q-100 0 -151 27zM77 11l2 -2q2 -2 4 -3q10 1 38 7l50 54q40 -25 75 -32q26 -5 82 -5q99 0 174 42q121 67 121 255q0 107 -75 226l37 64l2 28l-13 12
l-2 -1q-4 -1 -9 -3q-1 0 -9 -11l-38 -48q-68 44 -156 44q-43 0 -73 -9q-8 -2 -68 -25q-161 -63 -161 -268q0 -115 78 -228q-17 -21 -49 -62q-1 -4 -2 -7z" />
    <glyph glyph-name="plusminus" unicode="&#xb1;" 
 />
    <glyph glyph-name="yen" unicode="&#xa5;" horiz-adv-x="701" 
d="M425 196q14 0 96 3q33 1 37 -36v-28q0 -39 -38 -39q-6 0 -12 2h-73q0 -2 1 -5l8 -27q-3 -35 -38 -57q-31 -19 -66 -19q-36 0 -78 19q-51 23 -51 55q0 15 7 34h-65q-37 -4 -45 32v32q15 28 45 33h85l7 -3q-2 -1 -5 0q-1 0 0 2l-1 -2q12 55 12 55.5t1 2.5v1q-12 -2 -89 -15
q-43 -8 -46 25l-4 46q13 35 38 35h51q-44 58 -89 116q-54 72 -81 121q-8 15 -8 24q0 33 64 61q55 24 91 24q32 0 52 -21q25 -25 48 -123q26 -110 46 -144q16 -27 28 -27q17 15 42 96q16 55 33 110q18 52 27 66q21 32 59 32q35 0 75 -26q45 -30 45 -68q0 -37 -73 -129
l-96 -112h47q37 0 37 -37v-34q0 -35 -32 -35q-6 0 -11 2l-89 10v-1v1q-1 1 0 2q1 -19 8 -54zM523 164l-47 -1v0l-46 -2q-23 -5 -37 23q-12 22 -12 53q0 19 5 27q12 21 30 21q6 0 10 -3l88 -11v34q0 1 1 2h-3h-121q55 65 162 196q46 56 46 80q0 19 -29.5 39t-55.5 20
q-20 0 -24 -7q-16 -28 -55 -155q-33 -109 -59 -132q-11 -10 -23 -10q-46 0 -76 82q-2 5 -42 153q-22 81 -47 80q-10 0 -9 0q-17 0 -64 -17q-52 -18 -56 -33q9 -22 77 -114q43 -59 137 -182h-121q-2 -2 -3 -5l3 -33q1 0 4 1l104 17q30 -10 26 -41q0 -3 -13 -62
q-9 -26 -29 -26q-5 0 -11 2h-77q-3 0 -11 -3q-1 -2 -2 -3l1 -20q3 -2 7 -1h71q33 -5 33 -30q0 -7 -3 -16q-4 -16 -6 -23v-1q3 -13 43 -27q34 -11 51 -11q21 0 43 11t25 27l-6 20q-2 9 -2 18q0 33 26 33q4 0 10 -1h77q7 -2 10 -1v3v25v4z" />
    <glyph glyph-name="mu" unicode="&#xb5;" horiz-adv-x="550" 
d="M335 471q0 -57 -29 -76l-77 -65l-10 -137q-2 -30 2.5 -36.5t31.5 -6.5q36 0 105 34.5t96 34.5q21 0 33 -11q11 -14 19 -51.5t8 -57.5q0 -39 -16 -51q-61 -49 -274 -49q-77 0 -100 3q-69 10 -75 47q-10 56 -13 108v9q-32 -27 -45 -27q-11 0 -20.5 13t-9.5 35q0 24 11 48
t27 34l31 26l-3 79q0 3 -1 38t-1 62q0 134 25 156q7 6 59.5 25t66.5 19q42 0 54 -53q1 -3 8 -87q2 -32 0 -64l28 26q25 21 42 21q13 0 20 -13t7 -33zM-4 178l71 60q4 -79 6 -105q7 -82 17 -85q36 -14 134 -14q198 0 251 40q4 11 4 25q0 49 -18 84q-2 1 -7 1
q-18 0 -88.5 -34.5t-112.5 -34.5q-45 0 -59 20q-12 17 -9 61l10 151l90 77q15 8 15 49q0 10 -3 14q5 -1 7 -4q3 1 6 1l-112 -94q10 151 -2 223q-3 16 -7 23q-5 3 -13 3t-54.5 -17t-48.5 -19q-11 -18 -12 -114q1 96 1 -115q0 -11 4 -95l-47 -39q-26 -15 -23 -62z" />
    <glyph glyph-name="mu" unicode="&#x3bc;" horiz-adv-x="550" 
d="M335 471q0 -57 -29 -76l-77 -65l-10 -137q-2 -30 2.5 -36.5t31.5 -6.5q36 0 105 34.5t96 34.5q21 0 33 -11q11 -14 19 -51.5t8 -57.5q0 -39 -16 -51q-61 -49 -274 -49q-77 0 -100 3q-69 10 -75 47q-10 56 -13 108v9q-32 -27 -45 -27q-11 0 -20.5 13t-9.5 35q0 24 11 48
t27 34l31 26l-3 79q0 3 -1 38t-1 62q0 134 25 156q7 6 59.5 25t66.5 19q42 0 54 -53q1 -3 8 -87q2 -32 0 -64l28 26q25 21 42 21q13 0 20 -13t7 -33zM-4 178l71 60q4 -79 6 -105q7 -82 17 -85q36 -14 134 -14q198 0 251 40q4 11 4 25q0 49 -18 84q-2 1 -7 1
q-18 0 -88.5 -34.5t-112.5 -34.5q-45 0 -59 20q-12 17 -9 61l10 151l90 77q15 8 15 49q0 10 -3 14q5 -1 7 -4q3 1 6 1l-112 -94q10 151 -2 223q-3 16 -7 23q-5 3 -13 3t-54.5 -17t-48.5 -19q-11 -18 -12 -114q1 96 1 -115q0 -11 4 -95l-47 -39q-26 -15 -23 -62z" />
    <glyph glyph-name="ordfeminine" unicode="&#xaa;" horiz-adv-x="658" 
d="M622 165q0 -22 -8 -51q-9 -36 -24 -47q-114 -85 -327 -85q-149 0 -208 30q-38 20 -38 67q0 116 95 216q48 51 177 139q95 66 95 97q0 22 -32 22q-36 0 -150.5 -60.5t-121.5 -60.5q-37 0 -58 54q-16 42 -16 87q0 23 9.5 47t20.5 31q34 19 133 35q87 14 141 14
q94 0 230 -27q8 -2 37 -19q13 -7 21 -38q5 -24 5 -43q0 -137 -158 -230q-47 -27 -97 -63q-85 -60 -85 -84t31 -24q9 0 120.5 48t148.5 48q22 0 25 -2q14 -8 25 -47q9 -32 9 -54zM581 169q0 58 -31 58q-25 0 -100 -31l-84 -36q-60 -24 -79 -24q-61 0 -61 58q0 52 65 99
q59 37 118 75q35 25 70 51q42 33 60 58q28 38 28 89q0 9 -4 27q-6 26 -15 32q-58 34 -216 34q-17 0 -148 -13q-71 -8 -129 -28q-12 -5 -12 -48q0 -63 27 -94q25 6 66 25q61 30 63 31q36 18 72 35q50 23 81 23q65 0 65 -59q0 -42 -93 -111q-143 -109 -171 -136
q-92 -91 -92 -187q0 -25 8.5 -37.5t70.5 -26.5q59 -15 92 -15q2 0 23 1q30 2 72 3q52 2 121 22q83 24 117 59q16 17 16 66zM298 815q18 -1 51.5 27t47.5 28q7 0 12 -3l11 -7q18 -10 18 -20q0 -9 -15 -23l-55 -55q-37 -32 -67 -32q-16 0 -32 9q-11 6 -48 39t-47 45
q-5 6 -5 11q0 8 15 18q6 5 20 13q12 5 48 -18zM215 841q-12 -8 -12 -12q0 -2 17 -12q9 -6 26 -26t28 -26q15 -9 31 -9v0q27 0 59 32q39 39 42 41q8 4 0 13q-5 6 -15 -4q-15 -14 -63 -47q-17 -13 -34 -4q-27 18 -79 54z" />
    <glyph glyph-name="ordmasculine" unicode="&#xba;" horiz-adv-x="511" 
d="M466 121q0 -35 -12 -56q-19 -32 -113 -58q-58 -16 -125 -16q-215 0 -215 114q0 31 9 43q36 55 126 112q124 80 147 99v9q-2 3 -14 3q-34 0 -106 -40.5t-88 -40.5q-28 0 -46 40q-14 32 -14 65q0 50 16 63q64 53 201 53q94 0 141 -16q82 -29 82 -112q0 -58 -41 -94
q-12 -10 -98 -60q-72 -42 -114 -92q8 -9 16 -9q22 0 91 51t92 51q30 0 50 -51q15 -37 15 -58zM431 110q0 23 -9 48q-12 33 -30 33q-4 0 -78.5 -49t-102.5 -49q-14 0 -27 6q-21 9 -21 29q0 33 119 119l96 58q42 29 42 78q0 97 -179 97q-128 0 -185 -43q-9 -6 -9 -38
q0 -22 7 -46q8 -32 23 -32q4 0 80 40.5t114 40.5q51 0 51 -35q0 -28 -73 -76q-68 -43 -136 -87q-73 -55 -73 -99q0 -35 26 -46q63 -30 145 -30q146 0 214 54q6 4 6 27zM228 635q18 -1 51.5 27t47.5 28q7 0 12 -3l11 -7q18 -10 18 -20q0 -9 -15 -23l-55 -55q-37 -32 -67 -32
q-16 0 -32 9q-11 6 -48 39t-47 45q-5 6 -5 11q0 8 15 18q6 5 20 13q12 5 48 -18zM145 661q-12 -8 -12 -13q0 -1 17 -11q9 -6 26 -26t28 -26q15 -9 31 -9q27 0 59 32q39 39 42 41q8 4 0 13q-5 6 -15 -4q-15 -14 -63 -47q-17 -13 -34 -4q-27 18 -79 54z" />
    <glyph glyph-name="ae" unicode="&#xe6;" horiz-adv-x="753" 
d="M706 313q0 -70 -58 -91q-26 -10 -93 -10q-3 0 -38.5 2t-39.5 2q-31 0 -42 -6q1 -28 41 -44q29 -12 55 -12q5 0 52.5 15.5t52.5 15.5q25 0 40 -25q13 -19 13 -38q0 -46 -63 -88q-53 -36 -93 -40q-45 -4 -56 -4q-33 -1 -73 -2q-35 -2 -50 -2q-36 0 -43 11q-3 5 -1.5 19
t-4.5 18q-63 -37 -142 -37q-165 0 -165 133q0 77 103 132q49 26 145 54q33 9 33 28q0 36 -41 36q-15 0 -38 -7t-26 -16q-4 -9 1 -23q-10 -23 -42 -38q-27 -12 -51 -12q-27 0 -52 17q-28 19 -28 46q0 51 68 103q63 49 115 51q7 1 20 4q54 8 145 7q86 -1 144 -9q63 0 122 -28
q76 -37 87 -102q3 -17 3 -60zM675 317q0 52 -5 66q-3 7 -18 21l-20 20q-32 39 -138 48q-99 8 -161 8q-93 0 -148 -12q-39 -9 -80 -34q-62 -36 -62 -80q0 -36 39 -36q65 0 65 41q0 9 -4 19q6 16 40 26q26 7 51 7q76 0 76 -69q0 -33 -71 -63q-66 -27 -132 -55q-71 -38 -71 -90
q0 -16 7 -37q7 -24 18 -31q49 -32 127 -32q82 0 144 55q10 -7 10 -20q0 -5 -2 -15t-2 -14q0 -11 11 -16h128q37 0 96 20q85 30 85 79q0 28 -22 28q-5 0 -58.5 -15.5t-58.5 -15.5q-36 0 -74 23q-46 28 -46 70q0 9 2 18q2 3 18 9t19 6h170q24 0 47 27q20 24 20 44zM576 344
q0 -26 -43 -39q-27 -7 -55 -7q-84 0 -84 31q0 34 44 63q38 26 69 26q28 0 50 -26q19 -24 19 -48zM330 166q0 -33 -56 -55q-40 -15 -67 -15q-55 0 -55 56q0 46 41 71q33 20 77 20q24 0 42 -26.5t18 -50.5zM542 353q0 9 -11 23t-22 14q-14 0 -44 -15q-35 -18 -35 -36
q0 -17 43 -17q69 0 69 31zM299 162q-3 16 -8 33t-27 17q-14 0 -39 -9q-28 -9 -33 -17.5t-5 -28.5q0 -30 22 -30q14 0 51 14.5t39 20.5z" />
    <glyph glyph-name="oslash" unicode="&#xf8;" horiz-adv-x="526" 
d="M473 240q0 -110 -61 -172t-171 -62q-60 0 -108 24q-29 -41 -95 -41q-27 0 -27 50q0 11 41 66q-42 67 -42 165q0 91 73.5 163t164.5 72q47 0 96 -24q22 33 65 37q5 2 11 2q16 0 30 -13t14 -29q0 -22 -34 -67q43 -61 43 -171zM438 240q0 108 -52 171q19 25 25 33
q13 19 19 36q-4 2 -7 3h-8q-22 0 -35.5 -15t-26.5 -31q-60 33 -105 33q-77 0 -140 -62t-63 -138q0 -95 49 -165q-18 -22 -48 -67q0 -17 0 -14q32 0 48 14q6 5 28 39q59 -36 119 -36q95 0 146 51.5t51 147.5zM269 120q-32 0 -77 25q12 18 44 58q9 16 33 46q20 19 20 24
q0 10 13 31q8 12 42 57q28 -76 28 -121q0 -52 -24 -84q-28 -36 -79 -36zM331 285q-4 -7 -7 -14q0 -17 -14 -31l-24 -24q-7 -13 -25 -37q-7 -7 -19 -20q13 -4 27 -4q67 0 67 84q0 22 -5 46zM322 390q-23 -31 -66 -94q-8 -30 -39 -59q-20 -28 -49 -70q-41 68 -41 120
q0 51 37 88t88 37q32 0 37 -1q10 -3 33 -21zM271 378h-9q-6 -1 -10 -1q-36 0 -63 -27t-27 -63q0 -27 10 -53q14 22 29 36q5 4 7 6q5 9 13 27q1 6 24 39z" />
    <glyph glyph-name="questiondown" unicode="&#xbf;" horiz-adv-x="485" 
d="M-2 16q0 49 26 97q9 19 62 83q49 61 61 89q3 7 15.5 12.5t19.5 5.5q27 0 68 -17q47 -20 47 -43q0 -26 -30 -67t-59 -80q-31 -50 -31 -93q0 -28 4 -36q8 -14 35 -14q20 0 32 14.5t12 34.5q0 11 -5 38.5t-5 41.5q1 25 33 39q24 11 53 11q33 0 65 -17q40 -21 40 -56
q0 -22 -12 -70q-1 -3 -18 -49q-9 -27 -34.5 -53.5t-49.5 -35.5q-94 -32 -157 -32q-79 0 -129 66q-43 58 -43 131zM122 419q0 45 55 76q46 25 87 25q67 0 67 -100q0 -59 -21 -81t-78 -22q-110 0 -110 102zM36 25q0 -32 17 -79q22 -59 51.5 -73.5t42.5 -16.5q-5 1 31 1
q63 0 112 17q66 23 84 70q8 20 20 55q9 31 9 52q0 43 -65 43q-43 0 -55 -18q2 -13 8 -39.5t6 -30.5q0 -32 -23 -59.5t-58 -27.5q-37 0 -59 21.5t-22 57.5q0 21 10.5 52.5t21.5 47.5q27 31 67 86q21 36 18 54q-4 4 -27.5 16t-28.5 12q-12 0 -18 -8q-49 -61 -123 -162
q-19 -29 -19 -71zM160 424q0 -69 67 -69q39 0 54.5 13t15.5 51q0 67 -41 67q-14 0 -51 -18q-45 -22 -45 -44z" />
    <glyph glyph-name="exclamdown" unicode="&#xa1;" horiz-adv-x="305" 
d="M9 -42q0 131 46 303q7 29 58 29q37 0 46 -2q30 -6 38 -34q19 -72 34 -218q11 -112 11 -140q0 -80 -103 -80q-81 0 -109 38q-21 30 -21 104zM19 405v31q2 20 15 35t52 26q34 9 60 9q79 0 79 -79q0 -28 -1 -33q-3 -14 -17 -41q-8 -14 -62 -31q-49 -15 -68 -15q-58 0 -58 98
zM46 -31q0 -60 11 -81q20 -38 82 -38q34 0 47 9q18 11 18 44q0 2 -13 112q-14 121 -18 177q-3 35 -12.5 47.5t-40.5 12.5q-18 0 -22 -1q-10 -3 -16 -17q-13 -29 -24.5 -115.5t-11.5 -149.5zM53 398q0 -50 33 -50q22 0 62 13q13 3 31 13q12 15 12 50q0 28 -18 38q-12 7 -43 7
q-42 0 -59.5 -15t-17.5 -56z" />
    <glyph glyph-name="logicalnot" unicode="&#xac;" 
 />
    <glyph glyph-name="florin" unicode="&#x192;" horiz-adv-x="582" 
d="M233 240q1 -11 2 -16v-2q0 -54 40 -67q16 -5 82 -5q1 0 3 1l10 1q101 15 125 15q43 0 43 -41q0 -36 -61 -73q-83 -50 -239 -50q-46 0 -94 10q-66 15 -74 42q-23 74 -30 185h-36q-25 22 -25 64q0 35 31 35h27v19v20h-35q-15 34 -15 61q0 31 22 42h37q25 165 100 169
q11 4 34 10q52 14 167 14q45 0 91 -12q56 -14 83 -40q-1 -50 -10 -64q-13 -20 -60 -20q1 0 -15 2t-37 2q-31 0 -73 -4q-59 -6 -62 -7q-39 -10 -39 -40v-10h78q25 3 42.5 -15.5t17.5 -41.5q0 -46 -59 -46h-76l1 -39h99q7 2 13 2q33 0 33 -39q0 -44 -40 -62h-101zM339 306
q-1 0 -6 -2h-138q-2 50 -3 109h112q25 0 25 13q0 7 -8 14t-15 6h-115q-1 49 -1 45q0 49 46 67q19 7 86 15q43 4 75 4q22 0 38.5 -2t15.5 -2q23 0 30 3q4 4 5 30q-49 33 -139 33q-74 0 -89 -1q-41 -3 -89 -18l-38 -12q-13 -8 -26 -37q-18 -41 -29 -125h-53q-2 -12 3 -33h48
q-2 -39 -2 -55v-54h-58q-2 -12 6 -29h53q7 -130 32 -211q15 -11 65 -20q41 -6 68 -6q192 0 257 74q8 10 8 14q0 3 -1 5q-4 3 -26 1q-28 -3 -26.5 -3t-73.5 -12l-11 -1q-4 -1 -8 -1q-78 0 -106 12q-50 22 -51 93q-1 10 -4 55h130q16 12 13 31z" />
    <glyph glyph-name="guillemotleft" unicode="&#xab;" horiz-adv-x="401" 
d="M301 118q14 -23 21 -23q5 0 12.5 9t7.5 15q0 4 -8 13q-12 13 -19 23l-52 81q-12 20 -5 41q17 22 71 113q5 7 10 15q-1 0 -10 11q-8 15 -14 15q-7 0 -26 -31q-24 -25 -74 -87q-15 -26 -15 -49q0 -36 40 -78q55 -58 61 -68zM279 422q22 38 39 38q11 0 21 -16q6 -9 12.5 -18
t6.5 -17q0 -11 -10 -29q-15 -27 -62 -101q-4 -5 -2 -20t3 -13l57 -86q21 -30 21 -35q0 -8 -14 -30.5t-27 -22.5q-17 0 -35 31q-31 32 -61 64q-49 57 -49 103q0 22 11 43q14 26 50 65t39 44zM121 118q14 -23 21 -23q5 0 12.5 9t7.5 15q0 4 -8 13q-12 13 -19 23l-52 81
q-12 20 -5 41q17 22 71 113q5 7 10 15q-1 0 -10 11q-8 15 -14 15q-7 0 -26 -31q-24 -25 -74 -87q-15 -26 -15 -49q0 -36 40 -78q55 -58 61 -68zM99 422q22 38 39 38q11 0 21 -16q6 -9 12.5 -18t6.5 -17q0 -11 -10 -29q-15 -27 -62 -101q-4 -5 -2 -20t3 -13l57 -86
q21 -30 21 -35q0 -8 -14 -30.5t-27 -22.5q-17 0 -35 31q-31 32 -61 64q-49 57 -49 103q0 22 11 43q14 26 50 65t39 44z" />
    <glyph glyph-name="guillemotright" unicode="&#xbb;" horiz-adv-x="401" 
d="M59 420q-13 23 -20 23q-6 0 -13 -9t-7 -15q0 -4 8 -13q12 -13 18 -23l52 -81q13 -20 5 -41q-16 -22 -70 -113q-5 -7 -11 -15q2 0 10 -11q9 -15 15 -15q7 0 25 31q25 25 75 87q14 26 14 49q0 36 -39 78q-56 58 -62 68zM82 116q-23 -38 -40 -38q-11 0 -20 16q-7 9 -13.5 18
t-6.5 17q0 11 11 29q14 27 62 101q4 5 2 20t-3 13l-58 86q-20 30 -20 35q0 8 13.5 30.5t27.5 22.5q16 0 35 -31l60 -64q50 -57 50 -103q0 -22 -11 -43q-15 -26 -50.5 -65t-38.5 -44zM239 420q-13 23 -20 23q-6 0 -13 -9t-7 -15q0 -4 8 -13q12 -13 18 -23l52 -81
q13 -20 5 -41q-16 -22 -70 -113q-5 -7 -11 -15q2 0 10 -11q9 -15 15 -15q7 0 25 31q25 25 75 87q14 26 14 49q0 36 -39 78q-56 58 -62 68zM262 116q-23 -38 -40 -38q-11 0 -20 16q-7 9 -13.5 18t-6.5 17q0 11 11 29q14 27 62 101q4 5 2 20t-3 13l-58 86q-20 30 -20 35
q0 8 13.5 30.5t27.5 22.5q16 0 35 -31l60 -64q50 -57 50 -103q0 -22 -11 -43q-15 -26 -50.5 -65t-38.5 -44z" />
    <glyph glyph-name="ellipsis" unicode="&#x2026;" horiz-adv-x="1048" 
d="M664 75q0 -105 -137 -105q-75 0 -81 82q-3 50 25 88.5t79 38.5q20 0 53.5 -13.5t41.5 -24.5q19 -28 19 -66zM629 66q0 44 -18.5 60t-64.5 12q-43 -3 -50 -28q-4 -33 -7 -66q0 -15 10 -25.5t25 -10.5q38 0 66 11q39 15 39 47zM324 75q0 -105 -137 -105q-75 0 -81 82
q-3 50 25 88.5t79 38.5q20 0 53.5 -13.5t41.5 -24.5q19 -28 19 -66zM289 66q0 44 -18.5 60t-64.5 12q-43 -3 -50 -28q-4 -33 -7 -66q0 -15 10 -25.5t25 -10.5q38 0 66 11q39 15 39 47zM994 75q0 -105 -137 -105q-75 0 -81 82q-3 50 25 88.5t79 38.5q20 0 53.5 -13.5
t41.5 -24.5q19 -28 19 -66zM959 66q0 44 -18.5 60t-64.5 12q-43 -3 -50 -28q-4 -33 -7 -66q0 -15 10 -25.5t25 -10.5q38 0 66 11q39 15 39 47z" />
    <glyph glyph-name="nonbreakingspace" unicode="&#xa0;" horiz-adv-x="202" 
 />
    <glyph glyph-name="Agrave" unicode="&#xc0;" horiz-adv-x="706" 
d="M682 87q0 -47 -84 -86q-68 -31 -107 -31q-88 0 -88 129q0 18 3 54q2 36 -8 44q-33 3 -78 -8q-49 -10 -70 -27.5t-42 -67.5q-22 -54 -43 -76.5t-76 -22.5q-51 0 -70 25q-16 21 -16 74q0 74 19 150q10 43 64 199q25 72 39 101q31 62 74 86q77 43 189 43q47 0 67 -19
q37 -34 73 -103q7 -14 52 -112q15 -34 55 -158q47 -149 47 -194zM644 108q0 47 -78 262q-22 58 -42 98.5t-40 82.5q-26 51 -53 75q-13 13 -60 13q-191 0 -241 -176l-52 -178q-36 -135 -36 -200q0 -52 61 -52q30 0 46 23q9 13 21 53q12 37 25 54q29 36 103 59q42 13 81 13
q34 0 46 -8q19 -13 21 -74q1 -32 2 -63q2 -37 9 -63q2 -7 12 -14.5t16 -7.5q27 0 87 31q72 36 72 72zM459 393q0 -53 -81 -85q-59 -24 -105 -24h-34q-25 0 -45 21t-20 43q0 57 46 119q52 71 119 71q46 0 85 -57q35 -49 35 -88zM418 395q0 20 -23 65q-13 27 -31 38
q-2 1 -21 1q-52 0 -91.5 -47.5t-39.5 -94.5q0 -25 20 -32q9 -3 48 -3q33 0 78 17q60 22 60 56zM246 757q63 -28 160 -48q16 -4 30 15t14 26t-7 13q-30 23 -97 60q-51 29 -64 34.5t-24 5.5q-25 0 -45 -27q-15 -20 -15 -35q0 -23 48 -44zM265 771q-37 17 -37 32q0 10 9 22
q12 16 24 16q7 0 16 -4q40 -23 120 -68q25 -13 25 -24q0 -4 -3 -9q-8 -10 -18 -9q-44 3 -136 44z" />
    <glyph glyph-name="Atilde" unicode="&#xc3;" horiz-adv-x="706" 
d="M523 795l-55 -55q-37 -32 -67 -32q-16 0 -32 8q-36 15 -103 52q-11 1 -18 0q-21 -18 -66 -51q-13 -9 -27 -1l-11 7q-18 10 -18 20q0 9 15 23q28 27 55 55q37 32 67 32q16 0 32 -9q35 -15 102 -52q12 0 18 1q22 18 67 51q13 8 27 0l11 -6q18 -11 18 -21q0 -8 -15 -22z
M682 87q0 -47 -84 -86q-68 -31 -107 -31q-88 0 -88 129q0 18 3 54q2 36 -8 44q-33 3 -78 -8q-49 -10 -70 -27.5t-42 -67.5q-22 -54 -43 -76.5t-76 -22.5q-51 0 -70 25q-16 21 -16 74q0 74 19 150q10 43 64 199q25 72 39 101q31 62 74 86q77 43 189 43q47 0 67 -19
q37 -34 73 -103q7 -14 52 -112q15 -34 55 -158q47 -149 47 -194zM506 806q8 5 -1 14q-4 5 -15 -5q-58 -54 -89 -54q-4 0 -8 2q-41 22 -103 55q-30 17 -56 2q-14 -8 -36.5 -32.5t-39.5 -33.5q-8 -4 0 -13q5 -5 16 4q56 52 87 52q5 0 9 -1q11 -10 51 -32q28 -14 56 -29
q10 -6 21 -6q13 0 32 12q13 8 36 32.5t40 32.5zM644 108q0 47 -78 262q-22 58 -42 98.5t-40 82.5q-26 50 -53 75q-13 13 -60 13q-191 0 -241 -176l-52 -178q-36 -135 -36 -200q0 -52 61 -52q30 0 46 23q9 13 21 53q12 37 25 54q29 36 103 59q42 13 81 13q34 0 46 -8
q19 -13 21 -74q1 -32 2 -63q2 -37 9 -63q2 -7 12 -14.5t16 -7.5q27 0 87 31q72 36 72 72zM459 393q0 -53 -81 -85q-59 -24 -105 -24h-34q-25 0 -45 21t-20 43q0 57 46 119q52 71 119 71q46 0 85 -57q35 -49 35 -88zM418 395q0 20 -23 65q-13 27 -31 38q-2 1 -21 1
q-52 0 -91.5 -47.5t-39.5 -94.5q0 -25 20 -32q9 -3 48 -3q33 0 78 17q60 22 60 56z" />
    <glyph glyph-name="Otilde" unicode="&#xd5;" horiz-adv-x="712" 
d="M532 795q-50 -48 -53 -50q-35 -28 -65 -28q-18 0 -35 9q-36 15 -103 52q-11 1 -18 0q-21 -18 -66 -51q-13 -9 -27 -1l-11 7q-20 12 -20 23q0 9 14 22l56 54q37 31 68 31q17 0 33 -9q35 -15 102 -52q12 0 18 1q22 18 67 51q13 8 27 0l11 -6q17 -11 17 -25t-15 -28z
M670 323q0 -31 -10 -75q-7 -24 -18 -75q-14 -95 -124 -151q-89 -46 -185 -46q-112 0 -175 36q-20 12 -53 52q-30 37 -49 69q-49 84 -49 185q0 107 45 196q56 113 167 143q36 11 73 22q32 9 79 9q111 0 177 -58q48 -44 86 -144q36 -94 36 -163zM515 830q-4 5 -15 -5
q-58 -54 -89 -54q-4 0 -8 2q-41 22 -103 55q-30 17 -56 2q-13 -8 -38 -31.5t-42 -32.5q-6 -4 4 -15q5 -5 16 4q56 52 87 52q5 0 9 -1q11 -10 51 -32q28 -14 56 -29q10 -6 21 -6q13 0 32 12q22 19 75 55q6 3 5 12q-1 8 -5 12zM634 327q0 61 -31.5 143.5t-75.5 126.5
q-51 52 -167 52q-45 0 -73 -8q-8 -2 -72 -27q-169 -65 -169 -278q0 -74 35 -156q14 -35 42 -74q31 -43 56 -58q51 -30 149 -30q86 0 170 38q7 5 21 11q55 19 88 108q27 75 27 152zM552 355q0 -56 -65 -138q-69 -88 -129 -88t-83 23q-40 38 -65 98t-25 110q0 73 59.5 140
t134.5 67q76 0 128 -79q45 -67 45 -133zM517 360q0 55 -36 109q-42 63 -103 63q-56 0 -110 -64q-51 -60 -51 -111q0 -30 31 -98q32 -72 56 -83q18 -8 43 -8q58 0 115 70q55 66 55 122z" />
    <glyph glyph-name="OE" unicode="&#x152;" horiz-adv-x="1094" 
d="M1051 124q0 -54 -102 -100q-51 -22 -86 -28q-26 -4 -91 -4q-151 0 -220 33q-40 -14 -76 -24q-87 -25 -143 -25q-112 0 -175 36q-20 12 -53 52q-30 37 -49 69q-49 84 -49 185q0 107 45 196q56 113 167 143q36 11 73 22q32 9 79 9q112 0 176 -57q58 13 143 34q61 17 136 17
q57 0 108 -9q75 -14 87 -41q5 -11 5 -41q0 -91 -93 -91h-134q-25 0 -49 -11q-10 -5 -16 -18l9 -12q16 -2 95 -8q59 -4 100 -18q13 -5 24 -31q1 -4 1 -22q0 -62 -43 -82q-24 -11 -92 -14q-63 -2 -84 -19q5 -44 32 -57q15 -7 55 -7q4 0 48.5 3.5t49.5 3.5q45 0 77 -16
q45 -22 45 -68zM1012 126q0 40 -73 40q-5 0 -46 -1.5t-44 -1.5q-62 0 -90 11q-50 22 -50 88q0 38 60 51q36 3 71 7q31 3 77 14q15 10 15 41q0 4 -5 13t-10 10q-58 9 -129 13q-39 2 -62 10q-11 4 -20 23q-7 16 -7 27q0 40 42 54q12 4 75 10q42 5 73 5q22 0 38.5 -2.5
t15.5 -2.5q32 0 42 20q9 15 10 60q-34 32 -157 32q-75 0 -162 -24q-10 -2 -77.5 -13t-74.5 -12q-51 51 -164 51q-45 0 -73 -8q-8 -2 -72 -27q-169 -65 -169 -278q0 -74 35 -156q14 -35 42 -74q31 -43 56 -58q51 -30 149 -30q86 0 170 38q26 13 59 27q24 -21 89 -38
q58 -15 93 -15q151 0 231 48q42 26 42 48zM552 355q0 -56 -65 -138q-69 -88 -129 -88t-83 23q-40 38 -65 98t-25 110q0 73 59.5 140t134.5 67q76 0 128 -79q45 -67 45 -133zM517 360q0 55 -36 109q-42 63 -103 63q-56 0 -110 -64q-51 -60 -51 -111q0 -30 31 -98
q32 -72 56 -83q18 -8 43 -8q58 0 115 70q55 66 55 122z" />
    <glyph glyph-name="oe" unicode="&#x153;" horiz-adv-x="829" 
d="M786 313q0 -70 -58 -91q-26 -10 -93 -10q-3 0 -38.5 2t-39.5 2q-31 0 -42 -6q1 -28 41 -44q29 -12 55 -12q5 0 52.5 15.5t52.5 15.5q25 0 40 -25q13 -19 13 -38q0 -46 -63 -88q-53 -36 -93 -40q-45 -4 -56 -4q-92 0 -151 48q-79 -50 -170 -50q-123 0 -185 92
q-49 74 -49 184q0 15 8 56q16 82 86 139.5t145 56.5q41 0 92 -21q47 -18 76 -42q46 50 163 50q64 0 123 -28q77 -37 88 -102q3 -17 3 -60zM755 317q0 52 -5 66q-3 7 -18 21l-20 20q-36 45 -137 45q-110 0 -164 -63q-25 26 -79.5 50.5t-83.5 24.5q-79 0 -144.5 -66
t-65.5 -149q0 -97 43 -157q52 -74 160 -79q88 -5 168 49q17 -14 78 -44q24 -11 70 -11q37 0 96 20q85 30 85 79q0 28 -22 28q-5 0 -58.5 -15.5t-58.5 -15.5q-36 0 -74 23q-46 28 -46 70q0 9 2 18q2 3 18 9t19 6h170q24 0 47 27q20 24 20 44zM656 344q0 -26 -43 -39
q-27 -7 -55 -7q-84 0 -84 31q0 34 44 63q38 26 69 26q28 0 50 -26q19 -24 19 -48zM359 233q0 -102 -90 -102q-59 0 -98 54q-33 46 -33 102q0 44 33 79t81 35q32 0 25 1q16 -2 29 -13q53 -50 53 -156zM622 353q0 9 -11 23t-22 14q-14 0 -41 -12q-33 -15 -33 -32q0 -24 38 -24
q69 0 69 31zM327 231q0 43 -10 78q-18 60 -60 60q-31 0 -59 -23.5t-28 -56.5q0 -44 20 -80q27 -46 79 -46q37 0 49 17q9 13 9 51z" />
    <glyph glyph-name="endash" unicode="&#x2013;" horiz-adv-x="437" 
d="M392 269q0 -62 -21.5 -83.5t-81.5 -21.5l-214 3q-74 7 -74 96q0 37 1 41q4 19 27 34q11 7 38 8q23 1 45 2q15 1 43 1q40 0 132 -4q32 -2 80 -18q10 -3 16 -16q9 -17 9 -42zM357 269q0 15 -8 30q-13 10 -35 10h-27q-25 3 -145 3q-2 0 -32 2q-26 2 -41 1q-21 -1 -27 -8
q-10 -12 -10 -44q0 -24 11 -43q15 -25 44 -25q-9 0 58 2q58 1 84 0q11 -1 39 -3.5t31 -2.5q58 0 58 78z" />
    <glyph glyph-name="emdash" unicode="&#x2014;" horiz-adv-x="826" 
d="M792 269q0 -62 -21.5 -83.5t-81.5 -21.5l-614 3q-74 7 -74 96q0 37 1 41q4 19 27 34q11 7 38 8q23 1 45 2q15 1 43 1q440 0 532 -4q32 -2 80 -18q10 -3 16 -16q9 -17 9 -42zM757 269q0 15 -8 30q-13 10 -35 10h-27q-25 3 -545 3q-2 0 -32 2q-26 2 -41 1q-21 -1 -27 -8
q-10 -12 -10 -44q0 -24 11 -43q15 -25 44 -25q-5 0 135 1q152 1 250 1q138 1 157 0q11 -1 39 -3.5t31 -2.5q58 0 58 78z" />
    <glyph glyph-name="quotedblleft" unicode="&#x201c;" horiz-adv-x="455" 
d="M404 499q0 -122 -126 -122q-28 0 -45 5q-7 2 -21 11t-18 9t-17.5 -7.5t-18.5 -9.5q-24 -8 -60 -8q-103 0 -103 78q0 37 32 122q38 103 79 103q23 0 54 -21t31 -41q0 -8 -31 -46q11 -7 35 -23q20 40 39 80q25 51 56 51q21 0 53.5 -20t32.5 -39q0 -3 -34 -49q38 -20 48 -30
q14 -15 14 -43zM369 518q-14 13 -36 19q-31 9 -36 11q-4 10 19.5 38.5t21.5 37.5q-17 22 -46 22q-28 0 -54 -87q-20 -69 -20 -97q0 -33 25 -44q15 -6 52 -6q44 0 60 28q11 20 14 78zM184 496q0 27 -27 37l-46 12v9q42 62 42 64q0 10 -19 19q-15 9 -26 9q-23 0 -53 -90
q-26 -78 -26 -99q0 -45 71 -45q29 0 52 8q6 2 19 31t13 45z" />
    <glyph glyph-name="quotedblright" unicode="&#x201d;" horiz-adv-x="459" 
d="M402 594q0 -45 -32 -125q-37 -95 -78 -95q-20 0 -51 19q-35 21 -35 43q0 15 31 44q1 7 -11 11q-16 7 -22 14q-3 0 -8 -6q-14 -45 -23 -64q-17 -36 -40 -56q-5 -5 -25 -5q-18 0 -49 18q-35 21 -35 42q0 6 11 21.5t20 23.5q-2 3 -35 27q-27 19 -27 40q0 23 9 54
q11 36 25.5 50t40 20t52.5 6q37 0 57 -8q10 -4 27 -22q10 13 41 22q27 8 55 8q53 0 76 -15q26 -19 26 -67zM371 597q0 30 -24 40q-14 5 -50 5q-38 0 -49 -5q-7 -3 -20 -27q-15 -28 -15 -50q0 -18 11.5 -30t37.5 -14q22 -2 26 -13q0 -1 -26 -37q-15 -22 -15 -36
q16 -18 41 -18t55 83q28 74 28 102zM185 603q0 20 -29 32q-23 11 -45 11q-17 0 -39.5 -7t-26.5 -15q-18 -38 -18 -73q0 -23 34 -32q38 -9 42 -16q-5 -9 -25 -37q-16 -24 -16 -28q0 -10 17 -20t29 -10q24 0 52 91q25 79 25 104z" />
    <glyph glyph-name="quoteleft" unicode="&#x2018;" horiz-adv-x="301" 
d="M15 450q0 47 34 130q40 96 83 96q21 0 50 -18q32 -21 32 -42q0 -9 -31 -48q11 -6 30 -20q12 -8 20.5 -25t8.5 -25q0 -22 -16.5 -60.5t-25.5 -44.5q-29 -19 -79 -19q-106 0 -106 76zM49 433q5 -11 39 -19q26 -6 42 -6q47 0 62 30q8 16 12 76q-13 13 -39 18.5t-33 11.5
q5 10 27 40q17 24 17 29q0 10 -17 19.5t-29 9.5q-19 0 -48 -73q-20 -52 -31 -100q-1 -12 -2 -36z" />
    <glyph glyph-name="quoteright" unicode="&#x2019;" horiz-adv-x="301" 
d="M242 601q0 -48 -35 -130q-40 -97 -82 -97q-22 0 -51 19q-32 20 -32 41q0 10 31 48q-10 7 -30 20q-11 8 -19.5 25t-8.5 26q0 22 16.5 60.5t25.5 44.5q28 18 78 18q107 0 107 -75zM207 617q-5 11 -38 19q-27 6 -42 6q-48 0 -62 -29q-8 -17 -12 -77q13 -13 39 -18.5
t33 -11.5q-6 -10 -28 -40q-17 -24 -17 -28q0 -10 17.5 -20t29.5 -10q19 0 47 74q20 51 32 100q0 12 1 35z" />
    <glyph glyph-name="divide" unicode="&#xf7;" 
 />
    <glyph glyph-name="ydieresis" unicode="&#xff;" horiz-adv-x="540" 
d="M498 436q0 -34 -27 -124q-36 -116 -102 -271q-49 -113 -79 -155q-60 -82 -142 -82q-44 0 -94 33q-59 38 -59 90q0 37 42 57q31 14 62 14q28 0 45 -21t23 -21q25 0 25 29q0 13 -25 48l-34 46q-17 27 -38 67q-24 44 -55 128q-38 106 -38 155q0 39 41 65q35 21 73 21
q47 0 62 -38q9 -40 17 -78.5t26 -117.5q11 -37 30 -65h12q5 25 22 153q9 73 32 100q30 35 107 35q74 0 74 -68zM466 431q0 24 -11 31t-36 7q-22 0 -48 -7.5t-34 -17.5q-12 -18 -18 -56q-3 -27 -7 -54q-4 -39 -9 -78q-5 -42 -14 -66q-6 -16 -34 -16q-37 0 -61 82
q-11 48 -21 96q-7 43 -28 120q-4 8 -30 8q-24 0 -48 -11q-33 -16 -33 -46q0 -43 55 -178q21 -53 57 -110l68 -104q10 -16 10 -42t-15 -46q-17 -23 -43 -23q-22 0 -37.5 21.5t-33.5 21.5q-21 0 -40 -9q-25 -11 -25 -28q0 -38 48 -64q37 -19 66 -19q22 0 25 1q50 12 61 25
q68 79 115 193l78 204q12 30 29 97q14 59 14 68zM343 559q-39 0 -52 22q-9 15 -9 49q0 67 85 67q33 0 45 -18q9 -13 9 -44q0 -43 -18.5 -59.5t-59.5 -16.5zM386 648q0 6 -2 8q-3 6 -24 6q-19 0 -37 -6q-2 -2 -6 -4q-4 -9 -4 -22q0 -21 5 -28.5t24 -7.5q26 0 35 6.5t9 31.5
q0 22 0 16zM143 559q-39 0 -52 22q-9 15 -9 49q0 67 85 67q33 0 45 -18q9 -13 9 -44q0 -43 -18.5 -59.5t-59.5 -16.5zM186 648q0 6 -2 8q-3 6 -24 6q-19 0 -37 -6q-2 -2 -6 -4q-4 -9 -4 -22q0 -21 5 -28.5t24 -7.5q26 0 35 6.5t9 31.5q0 22 0 16z" />
    <glyph glyph-name="Ydieresis" unicode="&#x178;" horiz-adv-x="701" 
d="M659 575q0 -36 -55 -105q-32 -39 -101 -110q-53 -55 -52 -62t-4 -22.5t-5 -18.5q0 -5 13 -102t13 -102q0 -41 -50 -64q-38 -18 -80 -18q-53 0 -93 23q-45 27 -52 74l44 179q-5 27 -120 175q-111 143 -111 186q0 44 74 75q56 24 91 24q39 0 44 -1q20 -4 35 -29
q22 -35 53 -148q27 -99 49 -119q12 16 25 59q15 53 20 65q18 51 35 102q28 64 74 64q45 0 97 -38q56 -40 56 -87zM618 583q0 28 -36 52t-66 24q-31 0 -39 -15q-25 -45 -52 -140q-42 -149 -71 -149q-39 0 -74 115l-30 126q-9 39 -29 59q-15 15 -41 15q-24 0 -75 -19
q-62 -24 -62 -48q0 -17 105 -158l106 -140q6 -14 13 -28q3 -9 3 -24q0 -5 -20 -94.5t-20 -94.5q0 -24 49 -42q38 -15 63 -15t51 14q33 17 35 43l-26 191q-5 28 12 50q51 62 155 187q49 60 49 91zM423 729q-39 0 -52 22q-9 15 -9 49q0 67 85 67q33 0 45 -18q9 -13 9 -44
q0 -43 -18.5 -59.5t-59.5 -16.5zM466 818q0 6 -2 8q-3 6 -24 6q-19 0 -37 -6q-2 -2 -6 -4q-4 -9 -4 -22q0 -21 5 -28.5t24 -7.5q26 0 35 6.5t9 31.5q0 22 0 16zM223 729q-39 0 -52 22q-9 15 -9 49q0 67 85 67q33 0 45 -18q9 -13 9 -44q0 -43 -18.5 -59.5t-59.5 -16.5z
M266 818q0 6 -2 8q-3 6 -24 6q-19 0 -37 -6q-2 -2 -6 -4q-4 -9 -4 -22q0 -21 5 -28.5t24 -7.5q26 0 35 6.5t9 31.5q0 22 0 16z" />
    <glyph glyph-name="currency" unicode="&#xa4;" 
 />
    <glyph glyph-name="guilsinglleft" unicode="&#x2039;" horiz-adv-x="221" 
d="M111 118q14 -23 21 -23q5 0 12.5 9t7.5 15q0 4 -8 13q-12 13 -19 23l-52 81q-12 20 -5 41q17 22 71 113q5 7 10 15q-1 0 -10 11q-8 15 -14 15q-7 0 -26 -31q-24 -25 -74 -87q-15 -26 -15 -49q0 -36 40 -78q55 -58 61 -68zM89 422q22 38 39 38q11 0 21 -16q6 -9 12.5 -18
t6.5 -17q0 -11 -10 -29q-15 -27 -62 -101q-4 -5 -2 -20t3 -13l57 -86q21 -30 21 -35q0 -8 -14 -30.5t-27 -22.5q-17 0 -35 31q-31 32 -61 64q-49 57 -49 103q0 22 11 43q14 26 50 65t39 44z" />
    <glyph glyph-name="guilsinglright" unicode="&#x203a;" horiz-adv-x="221" 
d="M49 420q-13 23 -20 23q-6 0 -13 -9t-7 -15q0 -4 8 -13q12 -13 18 -23l52 -81q13 -20 5 -41q-16 -22 -70 -113q-5 -7 -11 -15q2 0 10 -11q9 -15 15 -15q7 0 25 31q25 25 75 87q14 26 14 49q0 36 -39 78q-56 58 -62 68zM72 116q-23 -38 -40 -38q-11 0 -20 16q-7 9 -13.5 18
t-6.5 17q0 11 11 29q14 27 62 101q4 5 2 20t-3 13l-58 86q-20 30 -20 35q0 8 13.5 30.5t27.5 22.5q16 0 35 -31l60 -64q50 -57 50 -103q0 -22 -11 -43q-15 -26 -50.5 -65t-38.5 -44z" />
    <glyph glyph-name="daggerdbl" unicode="&#x2021;" 
 />
    <glyph glyph-name="periodcentered" unicode="&#xb7;" horiz-adv-x="273" 
d="M224 339q0 -57 -29 -77q-22 -14 -80 -14t-80 15q-29 20 -29 76q0 116 99 116q119 0 119 -116zM189 337q0 41 -15 58.5t-57 17.5q-50 0 -67 -23q-12 -16 -12 -60q0 -32 23 -42q13 -5 47 -5q37 0 53 6q28 12 28 48z" />
    <glyph glyph-name="periodcentered" unicode="&#x2219;" horiz-adv-x="273" 
d="M224 339q0 -57 -29 -77q-22 -14 -80 -14t-80 15q-29 20 -29 76q0 116 99 116q119 0 119 -116zM189 337q0 41 -15 58.5t-57 17.5q-50 0 -67 -23q-12 -16 -12 -60q0 -32 23 -42q13 -5 47 -5q37 0 53 6q28 12 28 48z" />
    <glyph glyph-name="quotesinglbase" unicode="&#x201a;" horiz-adv-x="296" 
d="M245 94q0 -37 -36 -123q-42 -103 -86 -103q-19 0 -50 18q-36 21 -36 43q0 10 32 49q-34 24 -39 30q-18 18 -18 43q0 23 11 55q13 37 29 48q32 23 73 23q120 0 120 -83zM209 96q0 42 -79 42t-79 -86q0 -23 23.5 -31t47.5 -15q1 -16 -21 -44t-22 -29q0 -12 19 -20
q14 -7 25 -7q15 0 18 5q17 25 40 82q28 69 28 103z" />
    <glyph glyph-name="quotedblbase" unicode="&#x201e;" horiz-adv-x="573" 
d="M515 94q0 -37 -36 -123q-42 -103 -86 -103q-19 0 -50 18q-36 21 -36 43q0 10 32 49q-34 24 -39 30q-18 18 -18 43q0 23 11 55q13 37 29 48q32 23 73 23q120 0 120 -83zM479 96q0 42 -79 42t-79 -86q0 -23 23.5 -31t47.5 -15q1 -16 -21 -44t-22 -29q0 -12 19 -20
q14 -7 25 -7q15 0 18 5q17 25 40 82q28 69 28 103zM245 94q0 -37 -36 -123q-42 -103 -86 -103q-19 0 -50 18q-36 21 -36 43q0 10 32 49q-34 24 -39 30q-18 18 -18 43q0 23 11 55q13 37 29 48q32 23 73 23q120 0 120 -83zM209 96q0 42 -79 42t-79 -86q0 -23 23.5 -31
t47.5 -15q1 -16 -21 -44t-22 -29q0 -12 19 -20q14 -7 25 -7q15 0 18 5q17 25 40 82q28 69 28 103z" />
    <glyph glyph-name="perthousand" unicode="&#x2030;" 
 />
    <glyph glyph-name="Acircumflex" unicode="&#xc2;" horiz-adv-x="706" 
d="M682 87q0 -47 -84 -86q-68 -31 -107 -31q-88 0 -88 129q0 18 3 54q2 36 -8 44q-33 3 -78 -8q-49 -10 -70 -27.5t-42 -67.5q-22 -54 -43 -76.5t-76 -22.5q-51 0 -70 25q-16 21 -16 74q0 74 19 150q10 43 64 199q25 72 39 101q31 62 74 86q77 43 189 43q47 0 67 -19
q37 -34 73 -103q7 -14 52 -112q15 -34 55 -158q47 -149 47 -194zM644 108q0 47 -78 262q-22 58 -42 98.5t-40 82.5q-26 50 -53 75q-13 13 -60 13q-191 0 -241 -176l-52 -178q-36 -135 -36 -200q0 -52 61 -52q30 0 46 23q9 13 21 53q12 37 25 54q29 36 103 59q42 13 81 13
q34 0 46 -8q19 -13 21 -74q1 -32 2 -63q2 -37 9 -63q2 -7 12 -14.5t16 -7.5q27 0 87 31q72 36 72 72zM459 393q0 -53 -81 -85q-59 -24 -105 -24h-34q-25 0 -45 21t-20 43q0 57 46 119q52 71 119 71q46 0 85 -57q35 -49 35 -88zM418 395q0 20 -23 65q-13 27 -31 38
q-2 1 -21 1q-52 0 -91.5 -47.5t-39.5 -94.5q0 -25 20 -32q9 -3 48 -3q33 0 78 17q60 22 60 56zM308 748q-21 -18 -66 -51q-13 -9 -27 -1q-29 16 -29 27q0 9 15 23q25 27 79 73q22 14 43 14q23 0 48 -20q9 -7 43 -41l24 -20q16 -13 16 -22q0 -10 -14.5 -21.5t-25.5 -11.5
q-15 0 -46 22q-21 15 -42 29q-4 3 -18 0zM409 722q12 8 12 13q0 2 -3 4q-9 7 -16 11q-10 6 -25.5 24t-26.5 24q-15 9 -29 9q-23 0 -53 -30q-37 -37 -50 -43q-8 -3 0 -13q5 -6 16 4q14 14 62 47q18 13 34 4q27 -18 79 -54z" />
    <glyph glyph-name="Ecircumflex" unicode="&#xca;" horiz-adv-x="582" 
d="M551 124q0 -54 -102 -100q-51 -22 -86 -28q-26 -4 -91 -4q-172 0 -211 46q-8 9 -17 46q-7 28 -17 84q-20 153 -20 188q0 82 27 171q6 21 11 42q10 32 27 50.5t118 45.5q61 17 136 17q57 0 108 -9q75 -14 87 -41q5 -11 5 -41q0 -91 -93 -91h-134q-25 0 -49 -11
q-10 -5 -16 -18l9 -12q16 -2 95 -8q59 -4 100 -18q13 -5 24 -31q1 -4 1 -22q0 -62 -43 -82q-24 -11 -92 -14q-63 -2 -84 -19q5 -44 32 -57q15 -7 55 -7q4 0 48.5 3.5t49.5 3.5q45 0 77 -16q45 -22 45 -68zM512 126q0 40 -73 40q-5 0 -46 -1.5t-44 -1.5q-62 0 -90 11
q-50 22 -50 88q0 38 60 51q36 3 71 7q31 3 77 14q15 10 15 41q0 4 -5 13t-10 10q-58 9 -129 13q-39 2 -62 10q-11 4 -20 23q-7 16 -7 27q0 40 42 54q12 4 75 10q42 5 73 5q22 0 38.5 -2.5t15.5 -2.5q32 0 42 20q9 15 10 60q-34 32 -157 32q-75 0 -162 -24q-14 -5 -38 -10
q-49 -3 -74 -104q-18 -73 -18 -151q0 -149 42 -288q6 -18 64 -30q47 -10 87 -10q151 0 231 48q42 26 42 48zM268 748q-21 -18 -66 -51q-13 -9 -27 -1q-29 16 -29 27q0 9 15 23q25 27 79 73q22 14 43 14q23 0 48 -20q9 -7 43 -41l24 -20q16 -13 16 -22q0 -10 -14.5 -21.5
t-25.5 -11.5q-15 0 -46 22q-21 15 -42 29q-4 3 -18 0zM369 722q12 8 12 13q0 2 -3 4q-9 7 -16 11q-10 6 -25.5 24t-26.5 24q-15 9 -29 9q-23 0 -53 -30q-37 -37 -50 -43q-8 -3 0 -13q5 -6 16 4q14 14 62 47q18 13 34 4q27 -18 79 -54z" />
    <glyph glyph-name="Aacute" unicode="&#xc1;" horiz-adv-x="706" 
d="M682 87q0 -47 -84 -86q-68 -31 -107 -31q-88 0 -88 129q0 18 3 54q2 36 -8 44q-33 3 -78 -8q-49 -10 -70 -27.5t-42 -67.5q-22 -54 -43 -76.5t-76 -22.5q-51 0 -70 25q-16 21 -16 74q0 74 19 150q10 43 64 199q25 72 39 101q31 62 74 86q77 43 189 43q47 0 67 -19
q37 -34 73 -103q7 -14 52 -112q15 -34 55 -158q47 -149 47 -194zM644 108q0 47 -78 262q-22 58 -42 98.5t-40 82.5q-26 51 -53 75q-13 13 -60 13q-191 0 -241 -176l-52 -178q-36 -135 -36 -200q0 -52 61 -52q30 0 46 23q9 13 21 53q12 37 25 54q29 36 103 59q42 13 81 13
q34 0 46 -8q19 -13 21 -74q1 -32 2 -63q2 -37 9 -63q2 -7 12 -14.5t16 -7.5q27 0 87 31q72 36 72 72zM459 393q0 -53 -81 -85q-59 -24 -105 -24h-34q-25 0 -45 21t-20 43q0 57 46 119q52 71 119 71q46 0 85 -57q35 -49 35 -88zM418 395q0 20 -23 65q-13 27 -31 38
q-2 1 -21 1q-52 0 -91.5 -47.5t-39.5 -94.5q0 -25 20 -32q9 -3 48 -3q33 0 78 17q60 22 60 56zM374 747q-49 -28 -123 -48q-12 -4 -23 15t-11 26t6 13q23 23 74 60q40 29 50 34.5t18 5.5q19 0 35 -27q12 -20 12 -35q0 -23 -38 -44zM360 761q28 17 28 32q0 10 -7 22
q-9 16 -18 16q-5 0 -12 -4q-31 -23 -93 -68q-19 -13 -19 -24q0 -4 3 -9q5 -10 13 -9q34 3 105 44z" />
    <glyph glyph-name="Edieresis" unicode="&#xcb;" horiz-adv-x="582" 
d="M551 124q0 -54 -102 -100q-51 -22 -86 -28q-26 -4 -91 -4q-172 0 -211 46q-8 9 -17 46q-7 28 -17 84q-20 153 -20 188q0 82 27 171q6 21 11 42q10 32 27 50.5t118 45.5q61 17 136 17q57 0 108 -9q75 -14 87 -41q5 -11 5 -41q0 -91 -93 -91h-134q-25 0 -49 -11
q-10 -5 -16 -18l9 -12q16 -2 95 -8q59 -4 100 -18q13 -5 24 -31q1 -4 1 -22q0 -62 -43 -82q-24 -11 -92 -14q-63 -2 -84 -19q5 -44 32 -57q15 -7 55 -7q4 0 48.5 3.5t49.5 3.5q45 0 77 -16q45 -22 45 -68zM512 126q0 40 -73 40q-5 0 -46 -1.5t-44 -1.5q-62 0 -90 11
q-50 22 -50 88q0 38 60 51q36 3 71 7q31 3 77 14q15 10 15 41q0 4 -5 13t-10 10q-58 9 -129 13q-39 2 -62 10q-11 4 -20 23q-7 16 -7 27q0 40 42 54q12 4 75 10q42 5 73 5q22 0 38.5 -2.5t15.5 -2.5q32 0 42 20q9 15 10 60q-34 32 -157 32q-75 0 -162 -24q-14 -5 -38 -10
q-49 -3 -74 -104q-18 -73 -18 -151q0 -149 42 -288q6 -18 64 -30q47 -10 87 -10q151 0 231 48q42 26 42 48zM393 719q-39 0 -52 22q-9 15 -9 49q0 67 85 67q33 0 45 -18q9 -13 9 -44q0 -43 -18.5 -59.5t-59.5 -16.5zM436 808q0 6 -2 8q-3 6 -24 6q-19 0 -37 -6q-2 -2 -6 -4
q-4 -9 -4 -22q0 -21 5 -28.5t24 -7.5q26 0 35 6.5t9 31.5q0 22 0 16zM193 719q-39 0 -52 22q-9 15 -9 49q0 67 85 67q33 0 45 -18q9 -13 9 -44q0 -43 -18.5 -59.5t-59.5 -16.5zM236 808q0 6 -2 8q-3 6 -24 6q-19 0 -37 -6q-2 -2 -6 -4q-4 -9 -4 -22q0 -21 5 -28.5t24 -7.5
q26 0 35 6.5t9 31.5q0 22 0 16z" />
    <glyph glyph-name="Egrave" unicode="&#xc8;" horiz-adv-x="582" 
d="M551 124q0 -54 -102 -100q-51 -22 -86 -28q-26 -4 -91 -4q-172 0 -211 46q-8 9 -17 46q-7 28 -17 84q-20 153 -20 188q0 82 27 171q6 21 11 42q10 32 27 50.5t118 45.5q61 17 136 17q57 0 108 -9q75 -14 87 -41q5 -11 5 -41q0 -91 -93 -91h-134q-25 0 -49 -11
q-10 -5 -16 -18l9 -12q16 -2 95 -8q59 -4 100 -18q13 -5 24 -31q1 -4 1 -22q0 -62 -43 -82q-24 -11 -92 -14q-63 -2 -84 -19q5 -44 32 -57q15 -7 55 -7q4 0 48.5 3.5t49.5 3.5q45 0 77 -16q45 -22 45 -68zM512 126q0 40 -73 40q-5 0 -46 -1.5t-44 -1.5q-62 0 -90 11
q-50 22 -50 88q0 38 60 51q36 3 71 7q31 3 77 14q15 10 15 41q0 4 -5 13t-10 10q-58 9 -129 13q-39 2 -62 10q-11 4 -20 23q-7 16 -7 27q0 40 42 54q12 4 75 10q42 5 73 5q22 0 38.5 -2.5t15.5 -2.5q32 0 42 20q9 15 10 60q-34 32 -157 32q-75 0 -162 -24q-14 -5 -38 -10
q-49 -3 -74 -104q-18 -73 -18 -151q0 -149 42 -288q6 -18 64 -30q47 -10 87 -10q151 0 231 48q42 26 42 48zM246 757q63 -28 160 -48q16 -4 30 15t14 26t-7 13q-30 23 -97 60q-51 29 -64 34.5t-24 5.5q-25 0 -45 -27q-15 -20 -15 -35q0 -23 48 -44zM265 771q-37 17 -37 32
q0 10 9 22q12 16 24 16q7 0 16 -4q40 -23 120 -68q25 -13 25 -24q0 -4 -3 -8t-11 -3q-9 1 -17 3q-59 4 -126 34z" />
    <glyph glyph-name="Iacute" unicode="&#xcd;" horiz-adv-x="327" 
d="M292 607q0 -12 -19.5 -106t-19.5 -175l14 -254q0 -50 -18 -68.5t-65 -18.5q-53 0 -99 19q-65 27 -65 80q0 16 12 69t12 125q0 79 -19 182t-19 117q0 50 51 82q43 26 88 26q48 0 88 -15q59 -21 59 -63zM257 598q0 49 -101 49q-115 0 -115 -73q0 4 21 -127t21 -199
q0 -63 -16 -132q-5 -26 -5 -37q0 -28 41 -43q32 -13 67 -13q42 0 53 15q9 12 9 58l-10 155v151q0 4 17.5 98t17.5 98zM204 757q-49 -28 -123 -48q-12 -4 -23 15t-11 26t6 13q23 23 74 60q40 29 50 34.5t18 5.5q19 0 35 -27q12 -20 12 -35q0 -23 -38 -44zM190 771
q28 17 28 32q0 10 -7 22q-9 16 -18 16q-5 0 -12 -4q-31 -23 -93 -68q-19 -13 -19 -24q0 -4 3 -9q5 -10 13 -9q34 3 105 44z" />
    <glyph glyph-name="Icircumflex" unicode="&#xce;" horiz-adv-x="327" 
d="M292 607q0 -12 -19.5 -106t-19.5 -175l14 -254q0 -50 -18 -68.5t-65 -18.5q-53 0 -99 19q-65 27 -65 80q0 16 12 69t12 125q0 79 -19 182t-19 117q0 50 51 82q43 26 88 26q48 0 88 -15q59 -21 59 -63zM257 598q0 49 -101 49q-115 0 -115 -73q0 4 21 -127t21 -199
q0 -63 -16 -132q-5 -26 -5 -37q0 -28 41 -43q32 -13 67 -13q42 0 53 15q9 12 9 58l-10 155v151q0 4 17.5 98t17.5 98zM128 748q-21 -18 -66 -51q-13 -9 -27 -1q-29 16 -29 27q0 9 15 23q25 27 79 73q22 14 43 14q23 0 48 -20q9 -7 43 -41l24 -20q16 -13 16 -22
q0 -10 -14.5 -21.5t-25.5 -11.5q-15 0 -46 22q-21 15 -42 29q-4 3 -18 0zM229 722q12 8 12 13q0 2 -3 4q-9 7 -16 11q-10 6 -25.5 24t-26.5 24q-15 9 -29 9q-23 0 -53 -30q-37 -37 -50 -43q-8 -3 0 -13q5 -6 16 4q14 14 62 47q18 13 34 4q27 -18 79 -54z" />
    <glyph glyph-name="Idieresis" unicode="&#xcf;" horiz-adv-x="327" 
d="M292 607q0 -12 -19.5 -106t-19.5 -175l14 -254q0 -50 -18 -68.5t-65 -18.5q-53 0 -99 19q-65 27 -65 80q0 16 12 69t12 125q0 79 -19 182t-19 117q0 50 51 82q43 26 88 26q48 0 88 -15q59 -21 59 -63zM257 598q0 49 -101 49q-115 0 -115 -73q0 4 21 -127t21 -199
q0 -63 -16 -132q-5 -26 -5 -37q0 -28 41 -43q32 -13 67 -13q42 0 53 15q9 12 9 58l-10 155v151q0 4 17.5 98t17.5 98zM253 719q-39 0 -52 22q-9 15 -9 49q0 67 85 67q33 0 45 -18q9 -13 9 -44q0 -43 -18.5 -59.5t-59.5 -16.5zM296 808q0 6 -2 8q-3 6 -24 6q-19 0 -37 -6
q-2 -2 -6 -4q-4 -9 -4 -22q0 -21 5 -28.5t24 -7.5q26 0 35 6.5t9 31.5q0 22 0 16zM53 719q-39 0 -52 22q-9 15 -9 49q0 67 85 67q33 0 45 -18q9 -13 9 -44q0 -43 -18.5 -59.5t-59.5 -16.5zM96 808q0 6 -2 8q-3 6 -24 6q-19 0 -37 -6q-2 -2 -6 -4q-4 -9 -4 -22q0 -21 5 -28.5
t24 -7.5q26 0 35 6.5t9 31.5q0 22 0 16z" />
    <glyph glyph-name="Igrave" unicode="&#xcc;" horiz-adv-x="327" 
d="M292 607q0 -12 -19.5 -106t-19.5 -175l14 -254q0 -50 -18 -68.5t-65 -18.5q-53 0 -99 19q-65 27 -65 80q0 16 12 69t12 125q0 79 -19 182t-19 117q0 50 51 82q43 26 88 26q48 0 88 -15q59 -21 59 -63zM257 598q0 49 -101 49q-115 0 -115 -73q0 4 21 -127t21 -199
q0 -63 -16 -132q-5 -26 -5 -37q0 -28 41 -43q32 -13 67 -13q42 0 53 15q9 12 9 58l-10 155v151q0 4 17.5 98t17.5 98zM66 757q63 -28 160 -48q16 -4 30 15t14 26t-7 13q-30 23 -97 60q-51 29 -64 34.5t-24 5.5q-25 0 -45 -27q-15 -20 -15 -35q0 -23 48 -44zM85 771
q-37 17 -37 32q0 10 9 22q12 16 24 16q7 0 16 -4q40 -23 120 -68q25 -13 25 -24q0 -4 -3 -8t-11 -3q-9 1 -17 3q-59 4 -126 34z" />
    <glyph glyph-name="Oacute" unicode="&#xd3;" horiz-adv-x="712" 
d="M670 323q0 -31 -10 -75q-7 -24 -18 -75q-14 -95 -124 -151q-89 -46 -185 -46q-112 0 -175 36q-20 12 -53 52q-30 37 -49 69q-49 84 -49 185q0 107 45 196q56 113 167 143q36 11 73 22q32 9 79 9q111 0 177 -58q48 -44 86 -144q36 -94 36 -163zM634 327q0 61 -31.5 143.5
t-75.5 126.5q-51 52 -167 52q-45 0 -73 -8q-8 -2 -72 -27q-169 -65 -169 -278q0 -74 35 -156q14 -35 42 -74q31 -43 56 -58q51 -30 149 -30q86 0 170 38q7 5 21 11q55 19 88 108q27 75 27 152zM552 355q0 -56 -65 -138q-69 -88 -129 -88t-83 23q-40 38 -65 98t-25 110
q0 73 59.5 140t134.5 67q76 0 128 -79q45 -67 45 -133zM517 360q0 55 -36 109q-42 63 -103 63q-56 0 -110 -64q-51 -60 -51 -111q0 -30 31 -98q32 -72 56 -83q18 -8 43 -8q58 0 115 70q55 66 55 122zM423 757q-63 -28 -160 -48q-16 -4 -30 15t-14 26t8 13q29 23 96 60
q51 29 64 34.5t24 5.5q25 0 45 -27q16 -20 16 -35q0 -23 -49 -44zM404 771q38 17 38 32q0 10 -10 22q-11 16 -23 16q-7 0 -16 -4q-41 -23 -121 -68q-25 -13 -25 -24q0 -4 4 -9q7 -10 17 -9q44 3 136 44z" />
    <glyph glyph-name="Ocircumflex" unicode="&#xd4;" horiz-adv-x="712" 
d="M670 323q0 -31 -10 -75q-7 -24 -18 -75q-14 -95 -124 -151q-89 -46 -185 -46q-112 0 -175 36q-20 12 -53 52q-30 37 -49 69q-49 84 -49 185q0 107 45 196q56 113 167 143q36 11 73 22q32 9 79 9q111 0 177 -58q48 -44 86 -144q36 -94 36 -163zM634 327q0 61 -31.5 143.5
t-75.5 126.5q-51 52 -167 52q-45 0 -73 -8q-8 -2 -72 -27q-169 -65 -169 -278q0 -74 35 -156q14 -35 42 -74q31 -43 56 -58q51 -30 149 -30q86 0 170 38q7 5 21 11q55 19 88 108q27 75 27 152zM552 355q0 -56 -65 -138q-69 -88 -129 -88t-83 23q-40 38 -65 98t-25 110
q0 73 59.5 140t134.5 67q76 0 128 -79q45 -67 45 -133zM517 360q0 55 -36 109q-42 63 -103 63q-56 0 -110 -64q-51 -60 -51 -111q0 -30 31 -98q32 -72 56 -83q18 -8 43 -8q58 0 115 70q55 66 55 122zM328 758q-21 -18 -66 -51q-13 -9 -27 -1q-29 16 -29 27q0 9 15 23
q25 27 79 73q22 14 43 14q23 0 48 -20q9 -7 43 -41l24 -20q16 -13 16 -22q0 -10 -14.5 -21.5t-25.5 -11.5q-15 0 -46 22q-21 15 -42 29q-4 3 -18 0zM429 732q12 8 12 13q0 2 -3 4q-9 7 -16 11q-10 6 -25.5 24t-26.5 24q-15 9 -29 9q-23 0 -53 -30q-37 -37 -50 -43
q-8 -3 0 -13q5 -6 16 4q14 14 62 47q18 13 34 4q27 -18 79 -54z" />
    <glyph glyph-name="Ograve" unicode="&#xd2;" horiz-adv-x="712" 
d="M670 323q0 -31 -10 -75q-7 -24 -18 -75q-14 -95 -124 -151q-89 -46 -185 -46q-112 0 -175 36q-20 12 -53 52q-30 37 -49 69q-49 84 -49 185q0 107 45 196q56 113 167 143q36 11 73 22q32 9 79 9q111 0 177 -58q48 -44 86 -144q36 -94 36 -163zM634 327q0 61 -31.5 143.5
t-75.5 126.5q-51 52 -167 52q-45 0 -73 -8q-8 -2 -72 -27q-169 -65 -169 -278q0 -74 35 -156q14 -35 42 -74q31 -43 56 -58q51 -30 149 -30q86 0 170 38q7 5 21 11q55 19 88 108q27 75 27 152zM552 355q0 -56 -65 -138q-69 -88 -129 -88t-83 23q-40 38 -65 98t-25 110
q0 73 59.5 140t134.5 67q76 0 128 -79q45 -67 45 -133zM517 360q0 55 -36 109q-42 63 -103 63q-56 0 -110 -64q-51 -60 -51 -111q0 -30 31 -98q32 -72 56 -83q18 -8 43 -8q58 0 115 70q55 66 55 122zM266 767q63 -28 160 -48q16 -4 30 15t14 26t-7 13q-30 23 -97 60
q-51 29 -64 34.5t-24 5.5q-25 0 -45 -27q-15 -20 -15 -35q0 -23 48 -44zM285 781q-37 17 -37 32q0 10 9 22q12 16 24 16q7 0 16 -4q40 -23 120 -68q25 -13 25 -24q0 -4 -3 -8t-11 -3q-9 1 -17 3q-59 4 -126 34z" />
    <glyph glyph-name="Uacute" unicode="&#xda;" horiz-adv-x="650" 
d="M594 358q0 -29 -9 -111q-9 -90 -17 -112q-9 -27 -40 -59t-57 -46q-90 -47 -188 -47q-78 0 -141 34q-83 44 -97 132q-18 123 -18 117v247q0 9 -2.5 28.5t-2.5 28.5q0 26 13 39q22 22 74 39q46 15 74 15q53 0 69 -39q10 -22 10 -84l-32 -259q0 -42 4 -61q8 -33 48 -56
q35 -20 69 -20q72 0 68 83l-49 262v91q0 34 22 61q18 21 58 35q34 11 62 11q12 0 32 -6q26 -8 28 -20q8 -64 16 -186q6 -101 6 -117zM556 365q0 197 -19 272q-3 12 -36 12q-58 0 -81 -33q-18 -26 -18 -85q0 -64 24.5 -160t24.5 -144q0 -121 -100 -121q-70 0 -111 45t-41 121
l31 268q0 66 -22 87q-40 6 -88 -8q-58 -18 -58 -53v-237q0 -62 13 -138q16 -93 40 -116q60 -57 162 -57q74 0 150 32q98 40 112 110q2 9 9 91q8 88 8 114zM373 757q-63 -28 -160 -48q-16 -4 -30 15t-14 26t8 13q29 23 96 60q51 29 64 34.5t24 5.5q25 0 45 -27q16 -20 16 -35
q0 -23 -49 -44zM354 771q38 17 38 32q0 10 -10 22q-11 16 -23 16q-7 0 -16 -4q-41 -23 -121 -68q-25 -13 -25 -24q0 -4 4 -9q7 -10 17 -9q44 3 136 44z" />
    <glyph glyph-name="Ucircumflex" unicode="&#xdb;" horiz-adv-x="650" 
d="M594 358q0 -29 -9 -111q-9 -90 -17 -112q-9 -27 -40 -59t-57 -46q-90 -47 -188 -47q-78 0 -141 34q-83 44 -97 132q-18 123 -18 117v247q0 9 -2.5 28.5t-2.5 28.5q0 26 13 39q22 22 74 39q46 15 74 15q53 0 69 -39q10 -22 10 -84l-32 -259q0 -42 4 -61q8 -33 48 -56
q35 -20 69 -20q72 0 68 83l-49 262v91q0 34 22 61q18 21 58 35q34 11 62 11q12 0 32 -6q26 -8 28 -20q8 -64 16 -186q6 -101 6 -117zM556 365q0 197 -19 272q-3 12 -36 12q-58 0 -81 -33q-18 -26 -18 -85q0 -64 24.5 -160t24.5 -144q0 -121 -100 -121q-70 0 -111 45t-41 121
l31 268q0 66 -22 87q-40 6 -88 -8q-58 -18 -58 -53v-237q0 -62 13 -138q16 -93 40 -116q60 -57 162 -57q74 0 150 32q98 40 112 110q2 9 9 91q8 88 8 114zM288 748q-21 -18 -66 -51q-13 -9 -27 -1q-29 16 -29 27q0 9 15 23q25 27 79 73q22 14 43 14q23 0 48 -20q9 -7 43 -41
l24 -20q16 -13 16 -22q0 -10 -14.5 -21.5t-25.5 -11.5q-15 0 -46 22q-21 15 -42 29q-4 3 -18 0zM389 722q12 8 12 13q0 2 -3 4q-9 7 -16 11q-10 6 -25.5 24t-26.5 24q-15 9 -29 9q-23 0 -53 -30q-37 -37 -50 -43q-8 -3 0 -13q5 -6 16 4q14 14 62 47q18 13 34 4
q27 -18 79 -54z" />
    <glyph glyph-name="Ugrave" unicode="&#xd9;" horiz-adv-x="650" 
d="M594 358q0 -29 -9 -111q-9 -90 -17 -112q-9 -27 -40 -59t-57 -46q-90 -47 -188 -47q-78 0 -141 34q-83 44 -97 132q-18 123 -18 117v247q0 9 -2.5 28.5t-2.5 28.5q0 26 13 39q22 22 74 39q46 15 74 15q53 0 69 -39q10 -22 10 -84l-32 -259q0 -42 4 -61q8 -33 48 -56
q35 -20 69 -20q72 0 68 83l-49 262v91q0 34 22 61q18 21 58 35q34 11 62 11q12 0 32 -6q26 -8 28 -20q8 -64 16 -186q6 -101 6 -117zM556 365q0 197 -19 272q-3 12 -36 12q-58 0 -81 -33q-18 -26 -18 -85q0 -64 24.5 -160t24.5 -144q0 -121 -100 -121q-70 0 -111 45t-41 121
l31 268q0 66 -22 87q-40 6 -88 -8q-58 -18 -58 -53v-237q0 -62 13 -138q16 -93 40 -116q60 -57 162 -57q74 0 150 32q98 40 112 110q2 9 9 91q8 88 8 114zM226 757q63 -28 160 -48q16 -4 30 15t14 26t-7 13q-30 23 -97 60q-51 29 -64 34.5t-24 5.5q-25 0 -45 -27
q-15 -20 -15 -35q0 -23 48 -44zM245 771q-37 17 -37 32q0 10 9 22q12 16 24 16q7 0 16 -4q40 -23 120 -68q25 -13 25 -24q0 -4 -3 -8t-11 -3q-9 1 -17 3q-59 4 -126 34z" />
    <glyph glyph-name="circumflex" unicode="&#x2c6;" horiz-adv-x="362" 
d="M261 708q-12 -4 -31 7q-11 6 -64 43q-4 3 -18 0q-22 -18 -66 -51q-12 -9 -27 -1q-29 16 -29 27q0 6 32 39q40 40 47 46q31 25 57 25q17 0 33.5 -9.5t39.5 -31.5q28 -29 38 -36q22 -18 22 -27t-15 -18q-6 -5 -19 -13zM259 740q6 7 -4 11l-3 1q-8 3 -17 13q-14 16 -45 43
q-16 9 -31 9q-22 0 -63 -43q-20 -22 -38 -30q-10 -4 -1 -12q1 0 1 -1v0q4 -6 16 4q7 7 62 47q14 11 34 4q10 -7 79 -54q8 6 10 8z" />
    <glyph glyph-name="tilde" unicode="&#x2dc;" horiz-adv-x="509" 
d="M406 769q-40 -41 -47 -46q-31 -26 -58 -26q-16 0 -32 9q-36 16 -103 52q-4 3 -18 0q-22 -18 -66 -51q-12 -9 -27 -1q-29 16 -29 27q0 6 32 39q40 40 47 46q31 25 57 25q17 0 33 -9q35 -14 102 -52q5 -3 18 1q23 18 67 51q12 8 27 0q29 -16 29 -27q0 -6 -32 -38zM407 808
l-1 1l-1 1q-4 6 -15 -5q-7 -6 -62 -47q-16 -12 -35 -5q-45 23 -103 55q-16 9 -31 9q-22 0 -63 -43q-20 -22 -38 -30q-10 -4 -1 -12q1 0 1 -1v0q4 -6 16 4q7 7 62 47q14 11 34 4q30 -17 61 -37q5 -5 22.5 -12.5t23.5 -11.5q11 -6 21 -6q25 0 70 48q20 22 38 29q10 5 1 12z
" />
    <glyph glyph-name="macron" unicode="&#xaf;" horiz-adv-x="367" 
d="M45 730v114h270v-114h-270zM289 812h-215v-49h215v49z" />
    <glyph glyph-name="macron" unicode="&#x2c9;" horiz-adv-x="367" 
d="M45 730v114h270v-114h-270zM289 812h-215v-49h215v49z" />
    <glyph glyph-name="cedilla" unicode="&#xb8;" horiz-adv-x="443" 
d="M243 -1l-5 -36q77 -4 77 -62q0 -41 -41 -75q-46 -38 -113 -38q-7 0 -41 3q-32 -2 -32 41q0 19 10 34t27 13q72 -8 85 15q-19 4 -39 9q-27 6 -27 21q0 4 2 8q5 23 17 67q26 0 24 0q-6 -28 -16 -70q19 -5 39 -9q26 -8 26 -24q0 -5 -2 -11q-8 -18 -36 -28q-24 -8 -47 -6
l-29 3q-5 1 -7 -17t4 -21h1q36 -3 41 -3q38 0 77 22q43 23 49 54q1 7 1 12q0 45 -80 44l12 54h23z" />
    <glyph glyph-name="Scaron" unicode="&#x160;" 
 />
    <glyph glyph-name="scaron" unicode="&#x161;" 
 />
    <glyph glyph-name="brokenbar" unicode="&#xa6;" 
 />
    <glyph glyph-name="Eth" unicode="&#xd0;" 
 />
    <glyph glyph-name="eth" unicode="&#xf0;" 
 />
    <glyph glyph-name="Yacute" unicode="&#xdd;" 
 />
    <glyph glyph-name="yacute" unicode="&#xfd;" 
 />
    <glyph glyph-name="Thorn" unicode="&#xde;" 
 />
    <glyph glyph-name="thorn" unicode="&#xfe;" 
 />
    <glyph glyph-name="minus" unicode="&#xad;" 
 />
    <glyph glyph-name="minus" unicode="&#x2212;" 
 />
    <glyph glyph-name="multiply" unicode="&#xd7;" 
 />
    <glyph glyph-name="onesuperior" unicode="&#xb9;" 
 />
    <glyph glyph-name="twosuperior" unicode="&#xb2;" 
 />
    <glyph glyph-name="threesuperior" unicode="&#xb3;" 
 />
    <glyph glyph-name="onehalf" unicode="&#xbd;" 
 />
    <glyph glyph-name="onequarter" unicode="&#xbc;" 
 />
    <glyph glyph-name="threequarters" unicode="&#xbe;" 
 />
    <glyph glyph-name="Lslash" unicode="&#x141;" 
 />
    <glyph glyph-name="lslash" unicode="&#x142;" 
 />
    <glyph glyph-name="HT" 
 />
    <glyph glyph-name="LF" 
 />
    <glyph glyph-name="nonmarkingreturn" 
 />
    <glyph glyph-name="Zcaron" unicode="&#x17d;" 
 />
    <glyph glyph-name="zcaron" unicode="&#x17e;" 
 />
    <glyph glyph-name="DLE" 
 />
    <glyph glyph-name="DC1" 
 />
    <glyph glyph-name="DC2" 
 />
    <glyph glyph-name="DC3" 
 />
    <glyph glyph-name="DC4" 
 />
    <glyph glyph-name="RS" 
 />
    <glyph glyph-name="US" 
 />
    <glyph glyph-name="notequal" unicode="&#x2260;" 
 />
    <glyph glyph-name="infinity" unicode="&#x221e;" 
 />
    <glyph glyph-name="lessequal" unicode="&#x2264;" 
 />
    <glyph glyph-name="greaterequal" unicode="&#x2265;" 
 />
    <glyph glyph-name="partialdiff" unicode="&#x2202;" horiz-adv-x="327" 
d="M55 310l-24 283q-4 46 34 69q31 19 78 19q51 0 68 -28q12 -20 12 -66v-10.5v-11.5q0 -32 5 -49l1 -80l22 16q5 1 10 1q20 0 32 -16.5t12 -40.5q0 -41 -33 -66l-41 -31q3 -181 -16 -267q-3 -16 -27 -28q-17 -9 -25 -9q-45 0 -95 24q-13 26 -13 53v93q-8 -9 -19 -9
q-19 0 -34.5 20.5t-15.5 47.5q0 36 33 60zM263 417l-68 -49l-2 143q-5 19 -4 50q0 38 -1 49q-3 36 -45 36q-82 0 -77 -50l24 -303q-21 -15 -41 -30q-30 -24 -30 -44q0 -14 14 -26l2 3l55 41v-165q0 -10 5 -27q37 -14 68 -15q13 6 18 10q18 81 15 276l44 32q31 26 31 48
q0 11 -8 21z" />
    <glyph glyph-name="summation" unicode="&#x2211;" horiz-adv-x="620" 
d="M588 220q0 -61 -42 -125q-48 -72 -121 -93q-17 -5 -62.5 -13.5t-53.5 -8.5h-17q-133 0 -225 72q-34 27 -45 41q-16 20 -16 44q0 32 36.5 74t68.5 42q16 0 81 -51t115 -51q42 0 42 37q0 28 -138 83q-95 38 -137 84q-36 40 -36 124q0 106 95 167q80 52 180 52
q140 0 212 -113q17 -27 20 -34q1 -3 1 -23q0 -48 -55 -76q-41 -20 -79 -20q-31 0 -44 8q-25 16 -25 45q0 7 1.5 21t1.5 20q0 7 -1 12q-7 27 -62 27q-28 0 -53 -15q-31 -17 -31 -47q0 -33 37 -50q8 -3 168 -58q28 -9 55 -19q36 -13 58 -27q71 -44 71 -129zM549 214
q0 84 -100 128q-93 30 -185 60q-100 36 -100 103q0 42 41 69q36 22 78 22q69 0 86 -34q2 -4 7 -62q3 -33 40 -33q22 0 55 15q43 20 43 48q0 18 -28 52q-26 31 -53 51q-42 30 -126 30q-73 0 -142 -35q-92 -47 -92 -130q0 -120 88 -162q20 -11 56 -29q44 -19 88 -37
q83 -42 83 -80q0 -21 -20 -45q-24 -29 -54 -29q-39 0 -87 26q-28 15 -71 47q-34 25 -41 25q-19 0 -46.5 -28.5t-27.5 -49.5q0 -41 88 -81q72 -33 101 -33q5 0 36 -2t34 -2q63 0 123 27q75 33 102 97q24 55 24 72zM298 815q18 -1 51.5 27t47.5 28q7 0 12 -3l11 -7
q18 -10 18 -20q0 -9 -15 -23l-55 -55q-37 -32 -67 -32q-16 0 -32 9q-11 6 -48 39t-47 45q-5 6 -5 11q0 8 15 18q6 5 20 13q12 5 48 -18zM215 841q-12 -8 -12 -12q0 -2 17 -12q9 -6 26 -26t28 -26q15 -9 31 -9q27 0 59 32q39 39 42 41q8 4 0 13q-5 6 -15 -4q-15 -14 -63 -47
q-17 -13 -34 -4q-27 18 -79 54z" />
    <glyph glyph-name="product" unicode="&#x220f;" horiz-adv-x="529" 
d="M490 145q0 -90 -88 -130q-60 -27 -145 -27q-74 0 -151 25q-106 34 -106 96q0 25 17.5 44.5t40.5 19.5q4 0 81 -22t108 -22q32 0 32 15q0 24 -65 45q-88 28 -120 51q-65 45 -65 130q0 98 95 139q61 26 153 26q45 0 110 -31q81 -39 81 -90q0 -34 -55 -62q-46 -24 -74 -24
q-6 0 -27.5 8.5t-23.5 14.5q-4 14 -14 40q-10 21 -42 21q-36 0 -36 -38t76 -58q118 -31 141 -44q77 -40 77 -127zM453 144q0 79 -75 110l-140 36q-75 22 -75 78q0 31 17.5 53.5t49.5 22.5q46 0 62 -20q7 -19 14.5 -39t36.5 -20q19 0 52 14q40 17 40 38q0 46 -94 70
q-60 16 -103 16q-68 0 -114 -27q-59 -34 -59 -104q0 -58 20 -79q30 -34 88 -56q48 -17 95 -34t47 -61q0 -46 -65 -46q-46 0 -110 20t-69 20q-35 0 -35 -29q0 -36 99 -64q79 -23 126 -23q66 0 117 22q75 32 75 102zM228 635q18 -1 51.5 27t47.5 28q7 0 12 -3l11 -7
q18 -10 18 -20q0 -9 -15 -23l-55 -55q-37 -32 -67 -32q-16 0 -32 9q-11 6 -48 39t-47 45q-5 6 -5 11q0 8 15 18q6 5 20 13q12 5 48 -18zM145 661q-12 -8 -12 -12q0 -2 17 -12q9 -6 26 -26t28 -26q15 -9 31 -9q27 0 59 32q39 39 42 41q8 4 0 13q-5 6 -15 -4q-15 -14 -63 -47
q-17 -13 -34 -4q-27 18 -79 54z" />
    <glyph glyph-name="pi" unicode="&#x3c0;" horiz-adv-x="701" 
d="M659 575q0 -36 -55 -105q-32 -39 -101 -110q-53 -55 -52 -62t-4 -22.5t-5 -18.5q0 -5 13 -102t13 -102q0 -41 -50 -64q-38 -18 -80 -18q-53 0 -93 23q-45 27 -52 74l44 179q-5 27 -120 175q-111 143 -111 186q0 44 74 75q56 24 91 24q39 0 44 -1q20 -4 35 -29
q22 -35 53 -148q27 -99 49 -119q12 16 25 59q15 53 20 65q18 51 35 102q28 64 74 64q45 0 97 -38q56 -40 56 -87zM618 583q0 28 -36 52t-66 24q-31 0 -39 -15q-25 -45 -52 -140q-42 -149 -71 -149q-39 0 -74 115l-30 126q-9 39 -29 59q-15 15 -41 15q-24 0 -75 -19
q-62 -24 -62 -48q0 -17 105 -158l106 -140q6 -14 13 -28q3 -9 3 -24q0 -5 -20 -94.5t-20 -94.5q0 -24 49 -42q38 -15 63 -15t51 14q33 17 35 43l-26 191q-5 28 12 50q51 62 155 187q49 60 49 91zM433 767q-63 -28 -160 -48q-16 -4 -30 15t-14 26t8 13q29 23 96 60
q51 29 64 34.5t24 5.5q25 0 45 -27q16 -20 16 -35q0 -23 -49 -44zM414 781q38 17 38 32q0 10 -10 22q-11 16 -23 16q-7 0 -16 -4q-41 -23 -121 -68q-25 -13 -25 -24q0 -4 4 -9q7 -10 17 -9q44 3 136 44z" />
    <glyph glyph-name="integral" unicode="&#x222b;" horiz-adv-x="362" 
d="M498 436q0 -34 -27 -124q-36 -116 -102 -271q-49 -113 -79 -155q-60 -82 -142 -82q-44 0 -94 33q-59 38 -59 90q0 37 42 57q31 14 62 14q28 0 45 -21t23 -21q25 0 25 29q0 13 -25 48l-34 46q-17 27 -38 67q-24 44 -55 128q-38 106 -38 155q0 39 41 65q35 21 73 21
q47 0 62 -38q9 -40 17 -78.5t26 -117.5q11 -37 30 -65h12q5 25 22 153q9 73 32 100q30 35 107 35q74 0 74 -68zM466 431q0 24 -11 31t-36 7q-22 0 -48 -7.5t-34 -17.5q-12 -18 -18 -56q-3 -27 -7 -54q-4 -39 -9 -78q-5 -42 -14 -66q-6 -16 -34 -16q-37 0 -61 82
q-11 48 -21 96q-7 43 -28 120q-4 8 -30 8q-24 0 -48 -11q-33 -16 -33 -46q0 -43 55 -178q21 -53 58 -110q33 -52 67 -104q10 -16 10 -42t-15 -46q-17 -23 -43 -23q-22 0 -37.5 21.5t-33.5 21.5q-21 0 -40 -9q-25 -11 -25 -28q0 -38 48 -64q37 -19 66 -19q22 0 25 1
q50 12 61 25q68 79 115 193l78 204q12 30 29 97q14 59 14 68zM343 587q-63 -28 -160 -48q-16 -4 -30 15t-14 26t8 13q29 23 96 60q51 29 64 34.5t24 5.5q25 0 45 -27q16 -20 16 -35q0 -23 -49 -44zM324 601q38 17 38 32q0 10 -10 22q-11 16 -23 16q-7 0 -16 -4
q-41 -23 -121 -68q-25 -13 -25 -24q0 -4 4 -9q7 -10 17 -9q44 3 136 44z" />
    <glyph glyph-name="Omega" unicode="&#x3a9;" horiz-adv-x="582" 
d="M233 240q1 -11 2 -16v-2q0 -54 40 -67q16 -5 82 -5q1 0 3 1l10 1q101 15 125 15q43 0 43 -41q0 -36 -61 -73q-83 -50 -239 -50q-46 0 -94 10q-66 15 -74 42q-23 74 -30 185h-36q-25 22 -25 64q0 35 31 35h27v19v20h-35q-15 34 -15 61q0 31 22 42h37q25 165 100 169
q11 4 34 10q52 14 167 14q45 0 91 -12q56 -14 83 -40q-1 -50 -10 -64q-13 -20 -60 -20q1 0 -15 2t-37 2q-31 0 -73 -4q-59 -6 -62 -7q-39 -10 -39 -40v-10h78q25 3 42.5 -15.5t17.5 -41.5q0 -46 -59 -46h-76l1 -39h99q7 2 13 2q33 0 33 -39q0 -44 -40 -62h-101zM339 306
q-1 0 -6 -2h-138q-2 50 -3 109h112q25 0 25 13q0 7 -8 14t-15 6h-115q-1 49 -1 45q0 49 46 67q19 7 86 15q43 4 75 4q22 0 38.5 -2t15.5 -2q23 0 30 3q4 4 5 30q-49 33 -139 33q-74 0 -89 -1q-41 -3 -89 -18l-38 -12q-13 -8 -26 -37q-18 -41 -29 -125h-53q-2 -12 3 -33h48
q-2 -39 -2 -55v-54h-58q-2 -12 6 -29h53q7 -130 32 -211q15 -11 65 -20q41 -6 68 -6q192 0 257 74q8 10 8 14q0 3 -1 5q-4 3 -26 1q-28 -3 -26.5 -3t-73.5 -12l-11 -1q-4 -1 -8 -1q-78 0 -106 12q-50 22 -51 93q-1 10 -4 55h130q16 12 13 31z" />
    <glyph glyph-name="Omega" unicode="&#x2126;" horiz-adv-x="582" 
d="M233 240q1 -11 2 -16v-2q0 -54 40 -67q16 -5 82 -5q1 0 3 1l10 1q101 15 125 15q43 0 43 -41q0 -36 -61 -73q-83 -50 -239 -50q-46 0 -94 10q-66 15 -74 42q-23 74 -30 185h-36q-25 22 -25 64q0 35 31 35h27v19v20h-35q-15 34 -15 61q0 31 22 42h37q25 165 100 169
q11 4 34 10q52 14 167 14q45 0 91 -12q56 -14 83 -40q-1 -50 -10 -64q-13 -20 -60 -20q1 0 -15 2t-37 2q-31 0 -73 -4q-59 -6 -62 -7q-39 -10 -39 -40v-10h78q25 3 42.5 -15.5t17.5 -41.5q0 -46 -59 -46h-76l1 -39h99q7 2 13 2q33 0 33 -39q0 -44 -40 -62h-101zM339 306
q-1 0 -6 -2h-138q-2 50 -3 109h112q25 0 25 13q0 7 -8 14t-15 6h-115q-1 49 -1 45q0 49 46 67q19 7 86 15q43 4 75 4q22 0 38.5 -2t15.5 -2q23 0 30 3q4 4 5 30q-49 33 -139 33q-74 0 -89 -1q-41 -3 -89 -18l-38 -12q-13 -8 -26 -37q-18 -41 -29 -125h-53q-2 -12 3 -33h48
q-2 -39 -2 -55v-54h-58q-2 -12 6 -29h53q7 -130 32 -211q15 -11 65 -20q41 -6 68 -6q192 0 257 74q8 10 8 14q0 3 -1 5q-4 3 -26 1q-28 -3 -26.5 -3t-73.5 -12l-11 -1q-4 -1 -8 -1q-78 0 -106 12q-50 22 -51 93q-1 10 -4 55h130q16 12 13 31z" />
    <glyph glyph-name="radical" unicode="&#x221a;" 
 />
    <glyph glyph-name="approxequal" unicode="&#x2248;" 
 />
    <glyph glyph-name="approxequal" unicode="&#x22f2;" 
 />
    <glyph glyph-name="Delta" unicode="&#x394;" 
 />
    <glyph glyph-name="Delta" unicode="&#x2206;" 
 />
    <glyph glyph-name="lozenge" unicode="&#x25ca;" 
 />
    <glyph glyph-name="fraction" unicode="&#x2044;" 
 />
    <glyph glyph-name="fi" unicode="&#xf001;" 
 />
    <glyph glyph-name="fl" unicode="&#xf002;" 
 />
    <glyph glyph-name="apple" unicode="&#xf000;" 
 />
    <glyph glyph-name="dotlessi" unicode="&#x131;" horiz-adv-x="278" 
d="M230 419q0 -5 -8.5 -85t-8.5 -84l14 -184q0 -37 -9 -49q-21 -29 -97 -29q-75 0 -102 33q-9 11 -9 36q0 28 4 84l4 56l-18 218q0 78 115 78q38 0 71 -15q44 -20 44 -59zM195 415q0 39 -73 39q-58 0 -74 -16q-9 -9 -9 -42q0 -5 5.5 -76t5.5 -76v-140q0 -4 -1.5 -19
t-1.5 -21q2 -19 34 -31q24 -9 45 -9q62 0 62 38l-7 252q2 16 8 59q6 38 6 42z" />
    <glyph glyph-name="breve" unicode="&#x2d8;" horiz-adv-x="358" 
d="M179 710q-55 0 -98 27q-49 32 -49 84v4q17 20 36 20q20 0 39 -19v-5q0 -8 14 -16q20 -10 58 -10t58 10q14 8 14 16v4q17 20 36 20q20 0 39 -19v-5q0 -52 -49 -84q-43 -27 -98 -27zM179 735q47 0 83 22.5t39 57.5q-14 10 -25 0q-8 -45 -97 -45q-88 0 -97 44q-13 11 -25 2
q3 -36 39 -58.5t83 -22.5z" />
    <glyph glyph-name="dotaccent" unicode="&#x2d9;" horiz-adv-x="236" 
d="M103 719q-39 0 -52 22q-9 15 -9 49q0 67 85 67q33 0 45 -18q9 -13 9 -44q0 -43 -18.5 -59.5t-59.5 -16.5zM146 808q0 6 -2 8q-3 6 -24 6q-19 0 -37 -6q-2 -2 -6 -4q-4 -9 -4 -22q0 -21 5 -28.5t24 -7.5q26 0 35 6.5t9 31.5q0 22 0 16z" />
    <glyph glyph-name="ring" unicode="&#x2da;" horiz-adv-x="317" 
d="M247 810q0 -42 -30 -71t-72 -29t-72 29t-30 71t30 71t72 29t72 -29t30 -71zM222 810q0 31 -22.5 53t-54.5 22t-54.5 -22t-22.5 -53t22.5 -53t54.5 -22t54.5 22t22.5 53zM118 810q0 -25 27 -25t27 25t-27 25t-27 -25zM93 810q0 21 15.5 35.5t36.5 14.5q22 0 37 -14.5
t15 -35.5t-15 -35.5t-37 -14.5q-21 0 -36.5 14.5t-15.5 35.5z" />
    <glyph glyph-name="hungarumlaut" unicode="&#x2dd;" horiz-adv-x="396" 
d="M310 796q-28 -40 -80 -85q-9 -8 -24 -2q-19 8 -19 16q0 9 29 59q26 44 37.5 60t28.5 16q9 0 20 -4q25 -11 25 -26q0 -12 -17 -34zM294 798q13 18 13 26q0 10 -15 17q-18 7 -28 -7q-21 -28 -54 -90q-8 -16 3 -21q8 -4 14 0q25 18 67 75zM190 796q-28 -40 -80 -85
q-9 -8 -24 -2q-19 8 -19 16q0 9 29 59q26 44 37.5 60t28.5 16q9 0 20 -4q25 -11 25 -26q0 -12 -17 -34zM174 798q13 18 13 26q0 10 -15 17q-18 7 -28 -7q-21 -28 -54 -90q-8 -16 3 -21q8 -4 14 0q25 18 67 75z" />
    <glyph glyph-name="ogonek" unicode="&#x2db;" horiz-adv-x="314" 
d="M126 -3q-7 -24 -7 -42q0 -38 16 -61q12 -17 23 -17q8 0 25 19t31 19q9 0 20 -6q18 -11 18 -30q0 -26 -30.5 -51.5t-63.5 -25.5q-55 0 -94 36.5t-39 90.5q0 31 4 40q7 15 15 31q1 1 15 1q14 -1 13 -3q-18 -35 -18 -64q0 -45 30.5 -76t73.5 -31q22 0 45.5 17.5t23.5 32.5
q0 13 -13 13q-6 0 -22.5 -18t-36.5 -18q-24 0 -42.5 28t-18.5 73q0 24 7 45q1 3 13 2q13 -2 12 -5z" />
    <glyph glyph-name="caron" unicode="&#x2c7;" horiz-adv-x="362" 
d="M155 791q18 0 51.5 28t47.5 28q7 0 13 -4l10 -6q18 -11 18 -21q0 -8 -14 -22q-28 -28 -56 -55q-36 -32 -67 -32q-16 0 -32 8q-11 7 -48 39.5t-47 44.5q-5 6 -5 12q0 8 15 17q6 5 20 13q13 5 48 -17q23 -17 46 -33zM72 817q-12 -8 -12 -12q0 -1 17 -11q10 -6 27 -26
t27 -27q15 -9 30 -9q22 0 52 30q37 37 51 43q7 4 -1 14q-5 5 -15 -5q-15 -13 -63 -47q-17 -12 -34 -4q-27 19 -79 54z" />
    </font>
</defs>
</svg>
