<?xml version="1.0" standalone="no"?>
<!DOCTYPE svg PUBLIC "-//W3C//DTD SVG 1.1//EN" "http://www.w3.org/Graphics/SVG/1.1/DTD/svg11.dtd" >
<svg>
<metadata>
Created by FontForge 20120731 at Wed Apr 17 23:20:49 2019
 By www-data
Digitized by Dan X. Solo. Software (c) 2001 by Dover Publcations, Inc., New York.
</metadata>
<defs>
<font id="HoboOutlineNormal" horiz-adv-x="237" >
  <font-face 
    font-family="Hobo Outline"
    font-weight="400"
    font-stretch="normal"
    units-per-em="1000"
    panose-1="0 0 4 0 0 0 0 0 0 0"
    ascent="800"
    descent="-200"
    x-height="510"
    cap-height="665"
    bbox="-35 -212 876.042 910"
    underline-thickness="20"
    underline-position="-123"
    unicode-range="U+0020-F000"
  />
<missing-glyph horiz-adv-x="500" 
d="M63 0v800h375v-800h-375zM125 63h250v675h-250v-675z" />
    <glyph glyph-name=".notdef" horiz-adv-x="500" 
d="M63 0v800h375v-800h-375zM125 63h250v675h-250v-675z" />
    <glyph glyph-name=".null" horiz-adv-x="0" 
 />
    <glyph glyph-name="glyph2" 
 />
    <glyph glyph-name="space" unicode=" " 
 />
    <glyph glyph-name="exclam" unicode="!" horiz-adv-x="271" 
d="M177 332q0 -32 9 -66q3 -8 3 -15q0 -23 -43 -23h-47q-29 0 -42 7q-28 21 -45 164q-13 105 -13 171q0 47 4 64q9 39 39 39h160q39 0 39 -28v-1q-5 -42 -37 -152q-27 -94 -27 -160zM209 643h-7h-160h-4q-9 -8 -9 -73q0 -68 10 -155q13 -112 34 -155q8 -2 26 -2h47q7 0 11 1
q-10 38 -10 73q0 138 62 309v2zM114 195q44 0 70 -31q23 -28 23 -69t-23 -69q-26 -32 -69 -32q-44 0 -70.5 31t-26.5 72q0 57 47 85q23 13 49 13zM114 165q-30 0 -48 -21.5t-18 -49.5q0 -44 37 -62q16 -8 30 -8q29 0 45.5 21t16.5 50q0 28 -16.5 49t-46.5 21z" />
    <glyph glyph-name="quotedbl" unicode="&#x22;" horiz-adv-x="365" 
d="M224 386q-12 50 -24 99q-23 102 -23 131q0 38 21 59q18 19 47 19t51 -20.5t22 -53.5q0 -38 -11 -83l-35 -151h-48zM248 424q2 14 24 98q16 62 16 98q0 19 -13 31.5t-30 12.5q-38 0 -38 -48q0 -23 18 -98q11 -47 23 -94zM44 386q-12 50 -24 99q-23 102 -23 131q0 38 21 59
q18 19 47 19t51 -20.5t22 -53.5q0 -38 -11 -83l-35 -151h-48zM68 424q2 14 24 98q16 62 16 98q0 19 -13 31.5t-30 12.5q-38 0 -38 -48q0 -23 18 -98q11 -47 23 -94z" />
    <glyph glyph-name="numbersign" unicode="#" horiz-adv-x="620" 
d="M327 664l-50 -171h54l50 171l106 -1l-46 -169l88 -1l-30 -114h-95l-22 -78h95l-31 -115h-95l-51 -185h-104l51 185h-55l-50 -185h-105l50 186h-93l30 114h96l21 78h-95l31 114h95l48 170zM291 631h-49l-51 -170h-95l-14 -50h96l-40 -142h-95l-13 -51h94l-51 -185h50
l51 185h109l-51 -185h50l50 185h95l14 51h-95l39 142h95l13 50h-93l50 170h-50l-50 -170h-109zM278 301l22 78h-54l-22 -78h54zM297 269h-109l39 142h109z" />
    <glyph glyph-name="dollar" unicode="$" horiz-adv-x="470" 
d="M160 541q-17 -4 -28 -21.5t-9 -35.5q2 -37 37 -47l3 101q-1 3 -3 3zM93 482q-2 29 16 56q20 31 48 32q33 3 36 -31l-3 -103q-1 -30 -21 -31q-28 -2 -51 22.5t-25 54.5zM164 663q7 5 7 15t1 12q5 11 42 11q38 0 46 -9q-1 -20 6 -27q1 0 55 -18q47 -15 59 -40q3 -8 -7 -42
q-8 -28 -15 -42q-8 -18 -23 -18q-13 0 -40 17t-35 19q0 -6 -3 -60q-2 -37 4 -60q34 -19 69 -39q42 -26 64 -55q29 -39 31 -92q5 -80 -36.5 -137.5t-118.5 -77.5q-4 -23 -15.5 -29.5t-37.5 -6.5q-46 0 -50 19q2 9 -2 19q-38 12 -76 23q-51 20 -59 43l-1 3q-1 23 8 65
q11 51 28 51q14 0 47 -16q46 -23 49 -24q3 90 -1 131q-11 12 -52 34q-45 24 -63 41q-49 45 -49 110q0 48 28 90.5t79 67.5q21 7 61 22zM198 654q-4 -9 -36 -21q-43 -16 -64 -29q-38 -24 -55 -64q-14 -34 -14 -63q0 -46 38 -81q21 -19 73 -46q41 -23 45 -36q7 -19 5 -96
q-1 -57 -6 -74q-5 -13 -15 -11q-14 3 -52 22t-40 19q-16 -36 -18 -78q12 -15 74 -32q57 -15 61 -31q-2 -8 2 -21q6 -4 44 -1q-1 9 4 24q33 15 65 30q43 22 64 54q28 44 23 114q-5 65 -48 100q-13 12 -76 43q-41 19 -41 47q0 10 -1 41q-1 24 -1 36q0 69 30 69q23 0 72 -33
q13 33 19 61q-13 15 -65 28q-46 11 -47 29q-1 7 -2 17h-38v-17zM265 175q1 -2 4 -4q36 7 36 52q0 44 -38 56q-3 -103 -2 -104zM334 232q3 -38 -23 -67.5t-51 -29.5t-25 30v111q0 32 23 35q27 3 52 -25q22 -26 24 -54z" />
    <glyph glyph-name="percent" unicode="%" horiz-adv-x="873" 
d="M539 664l-146 -640q-11 -47 -46 -47h-1q-5 -3 -14 -3q-19 0 -37 9q-21 9 -17 18q52 201 148 621q8 40 16 52q15 19 52 19q31 0 45 -29zM507 660q-4 3 -13 3q-23 0 -33 -11q-6 -9 -10 -31q-23 -135 -83 -385q-27 -109 -55 -219q8 -16 45 -10zM672 -1q-146 0 -170 159
q-6 37 -6 75q0 101 32 164q42 84 134 84q167 0 167 -242q0 -240 -157 -240zM662 450q-135 0 -135 -217q0 -173 94 -197q25 -6 51 -6q62 0 91 43q23 33 31 104q4 30 4 62q0 211 -136 211zM724 229q-4 -114 -62 -114q-59 0 -59 128q0 18 1 44q7 106 59 106q62 0 62 -122
q0 -31 -1 -42zM694 296q-3 66 -31 66q-29 0 -29 -119q0 -97 28 -97q32 0 32 125v25zM172 190q-146 0 -170 159q-6 37 -6 75q0 101 32 164q42 84 134 84q167 0 167 -242q0 -240 -157 -240zM162 641q-135 0 -135 -217q0 -173 94 -197q25 -6 51 -6q62 0 91 43q23 33 31 104
q4 30 4 62q0 211 -136 211zM224 420q-4 -114 -62 -114q-59 0 -59 128q0 18 1 44q7 106 59 106q62 0 62 -122q0 -31 -1 -42zM194 487q-3 66 -31 66q-29 0 -29 -119q0 -97 28 -97q32 0 32 125v25z" />
    <glyph glyph-name="ampersand" unicode="&#x26;" horiz-adv-x="743" 
d="M395 311q97 105 178 105q49 0 88 -25q45 -29 45 -76q0 -51 -39 -58h-1q-12 0 -34 8t-33 8q-13 0 -25 -8q-72 -54 -74 -89q10 -23 41 -23q33 0 69 31l9 4h3q20 0 20 -26q-16 -168 -143 -168q-64 0 -127 46q-84 -44 -180 -44q-81 0 -132 37q-57 41 -59 121q-2 61 30 112
q16 25 74 88l4 4q7 8 7 15q0 10 -21 62.5t-21 84.5q0 83 75 126q62 35 152 35q81 0 130 -33q57 -39 57 -117q0 -41 -27 -83q-14 -23 -51 -63q-30 -32 -34 -46q0 -9 7 -15q11 -12 12 -13zM609 144q-34 -22 -68 -22q-23 0 -45 14.5t-27 35.5v2q0 37 48 84t87 46q11 0 30.5 -8
t29.5 -8q12 4 12 27q0 33 -37 53q-30 17 -66 17q-68 0 -157 -96q-13 -11 -22 -11q-21 0 -38.5 26t-11.5 35l9 16q3 12 57 73q48 55 48 103q0 119 -157 119q-77 0 -129 -27q-67 -34 -67 -103q0 -29 20.5 -79t20.5 -68q0 -19 -15 -35l-4 -5q-55 -59 -67 -78q-30 -46 -29 -100
q2 -67 51 -100q41 -29 110 -29q95 0 183 50q67 -51 124 -51q92 0 110 119zM277 555q-12 -3 -15 -23q0 -16 6 -39q8 -28 20 -34q5 3 10 23q8 25 8 26q5 11 6 20q0 26 -35 27zM275 585q68 0 68 -55q0 -17 -8 -36t-15 -40q-10 -26 -26 -26q-20 0 -33 13q-30 31 -30 93v1
q8 44 43 50h1zM214 237q-18 -18 -18 -49q0 -46 43 -46q17 0 25 9q5 5 5 7q0 6 -21 38t-29 39zM166 188q0 23 11 48q14 32 36 32q24 0 53 -44q34 -51 34 -66q0 -21 -19.5 -33.5t-41.5 -12.5q-33 0 -53 22.5t-20 53.5z" />
    <glyph glyph-name="quotesingle" unicode="'" horiz-adv-x="195" 
d="M54 386q-12 50 -24 99q-23 102 -23 131q0 38 21 59q18 19 47 19t51 -20.5t22 -53.5q0 -38 -11 -83l-35 -151h-48zM78 424q2 14 24 98q16 62 16 98q0 19 -13 31.5t-30 12.5q-38 0 -38 -48q0 -23 18 -98q11 -47 23 -94z" />
    <glyph glyph-name="parenleft" unicode="(" horiz-adv-x="303" 
d="M257 690q16 0 16 -13q0 -4 -3 -9q-127 -214 -127 -354q0 -150 126 -307q4 -6 4 -11q0 -13 -16 -13h-103q-6 0 -10 4q-140 133 -140 330q0 201 150 368q5 5 11 5h92zM232 661h-60q-139 -157 -139 -344q0 -181 127 -305h68q-114 153 -114 301q0 143 118 348z" />
    <glyph glyph-name="parenright" unicode=")" horiz-adv-x="317" 
d="M14 690q-15 0 -15 -13q0 -4 3 -9q127 -214 127 -354q0 -150 -126 -307q-4 -6 -4 -11q0 -13 15 -13h104q6 0 10 4q140 133 140 330q0 201 -151 368q-4 5 -10 5h-93zM40 661h60q139 -157 139 -344q0 -181 -127 -305h-68q114 153 114 301q0 143 -118 348z" />
    <glyph glyph-name="asterisk" unicode="*" horiz-adv-x="295" 
d="M79 615l-2 43q-1 28 26 28h49q24 0 24 -33q0 -8 -1.5 -21.5t-1.5 -15.5l32 14q9 2 12 2q17 0 27 -34q4 -18 8 -37v-2q0 -19 -19 -27q-18 -4 -36 -9l25 -26q5 -12 5 -15q0 -12 -26 -35t-37 -23t-40 44l-17 -30q-11 -15 -24 -15h-5l-55 38q-7 8 -7 15q0 5 8 19l26 29l-39 7
q-19 6 -19 21q0 3 2 8l1 4l11 48q8 16 28 16h2zM108 656q2 -53 2 -57q-3 -19 -19 -19q-5 0 -13 4l-45 13l-9 -38l39 -7q25 -4 25 -20q0 -11 -38 -53l33 -23q30 52 41 52q10 0 42 -49l28 24l-24 25q-9 11 -9 20q0 15 26 24q17 5 34 9l-11 38q-45 -19 -50 -19q-19 0 -19 41
q0 16 4 41v2q0 -1 2 -2.5t5 -5.5h-44z" />
    <glyph glyph-name="plus" unicode="+" horiz-adv-x="602" 
d="M375 417h181q15 0 15 -15v-144q0 -15 -15 -15h-181v-185q0 -15 -14 -15h-142q-14 0 -14 15v185h-181q-15 0 -15 15v144q0 15 15 15h181v185q0 15 14 15h142q14 0 14 -15v-185zM346 402v186h-112v-186q0 -14 -15 -14h-181v-116h181q15 0 15 -14v-186h112v186q0 14 15 14
h181v116h-181q-15 0 -15 14z" />
    <glyph glyph-name="comma" unicode="," horiz-adv-x="228" 
d="M58 34q0 27 -29 34t-29 26q0 17 38.5 59t55.5 42q32 0 55 -35t23 -74q0 -58 -30 -95t-79 -47h-1q-26 0 -26 19q0 6 11 29t11 42zM79 -14q63 24 63 100q0 27 -16 50q-13 20 -31 27q-15 -8 -61 -64q54 -14 54 -65q0 -24 -9 -48z" />
    <glyph glyph-name="hyphen" unicode="-" horiz-adv-x="292" 
d="M198 332q16 3 26 -4.5t10 -20.5v-59q0 -21 -31 -27q-63 -10 -177 -32q-17 1 -22 6.5t-5 23.5v50q0 28 30 33zM203 307l-169 -30q-9 -2 -9 -8v-45q0 -8 4 -7l169 30q9 2 9 7v45q0 8 -4 8z" />
    <glyph glyph-name="hyphen" unicode="&#x2010;" horiz-adv-x="292" 
d="M198 332q16 3 26 -4.5t10 -20.5v-59q0 -21 -31 -27q-63 -10 -177 -32q-17 1 -22 6.5t-5 23.5v50q0 28 30 33zM203 307l-169 -30q-9 -2 -9 -8v-45q0 -8 4 -7l169 30q9 2 9 7v45q0 8 -4 8z" />
    <glyph glyph-name="period" unicode="." horiz-adv-x="244" 
d="M180 127q8 -22 8 -45q0 -44 -27.5 -73t-70.5 -29q-38 0 -62.5 24t-28.5 62v1q0 50 24.5 83.5t72.5 33.5q65 0 84 -57zM152 117q-13 37 -56 37q-67 0 -67 -86q7 -58 61 -58q23 0 33 8q35 19 35 64q0 17 -6 35z" />
    <glyph glyph-name="slash" unicode="/" horiz-adv-x="405" 
d="M374 772q10 0 22 -7.5t12 -20.5q0 -4 -2 -9l-290 -778q-11 -28 -32 -28h-48q-11 0 -21 7q-13 8 -13 21q0 4 2 9l290 778q10 28 32 28h48zM374 746h-48q-4 0 -8 -11l-289 -778q3 -2 7 -2h48q3 0 8 11l289 778q-3 2 -7 2z" />
    <glyph glyph-name="zero" unicode="0" horiz-adv-x="495" 
d="M233 671q231 0 231 -338q0 -336 -216 -336q-108 0 -166 57q-54 53 -71 164q-8 52 -8 106q0 143 44 231q59 116 186 116zM233 641q-200 0 -200 -317q0 -253 139 -288q37 -9 76 -9q92 0 136 64q33 50 45 152q5 43 5 90q0 308 -201 308zM186 352q-1 -8 -1 -13
q0 -146 48 -146q53 0 53 186q0 137 -51 137q-41 0 -49 -164zM156 353q4 82 10 112q19 81 69 81q81 0 81 -167q0 -91 -9 -132q-18 -84 -74 -84q-78 0 -78 176q0 6 1 14z" />
    <glyph glyph-name="one" unicode="1" horiz-adv-x="324" 
d="M115 0q-27 0 -35 12t-8 41q0 267 8 424q3 49 3 38q0 24 -32 41q-22 11 -22 30q0 35 78 61q64 21 108 21q61 0 61 -49q0 13 -7 -61q-12 -122 -12 -263q0 -156 19 -255l2 -9q1 -5 1 -8q0 -23 -38 -23h-126zM248 30l-1 4q-20 102 -20 261q0 191 17 300q2 18 2 24
q0 19 -31 19q-32 0 -84 -15q-59 -17 -72 -36q17 -11 33 -22q20 -14 20 -55q-3 -83 -8 -241q-2 -144 -2 -216q0 -17 2 -22q4 -1 11 -1h133z" />
    <glyph glyph-name="two" unicode="2" horiz-adv-x="483" 
d="M209 178q8 0 27.5 4.5t28.5 4.5q13 0 37 -6t34 -6q26 0 39 27q3 5 16 48q28 -35 37 -53q15 -29 16 -63q1 -65 -41.5 -100t-111.5 -35q-24 0 -71 9.5t-70 9.5q-17 0 -49.5 -9t-49.5 -9q-27 0 -36.5 12t-10.5 39q-6 156 176 302q83 66 82 105q0 10 -2 14q-7 36 -43 36
t-79.5 -50.5t-53.5 -50.5q-13 0 -32 26l-38 69q-6 10 -6 11q0 3 1 6q-1 32 40 74q34 36 69 53q53 26 112 26q93 0 151 -57.5t58 -141.5q0 -38 -13 -77q-20 -56 -88 -113q-98 -82 -109 -94q-7 -7 -15 -20q-2 3 -5 9zM83 443q76 97 133 97q34 0 55.5 -24t22.5 -58
q1 -41 -42 -85q-14 -15 -75 -63q-55 -45 -95 -106q-48 -73 -48 -137q0 -18 4 -34q3 -2 12 -2q17 0 49.5 9.5t49.5 9.5q24 0 71 -9.5t71 -9.5q124 0 121 103q0 25 -11 48q-20 -38 -64 -38q-11 0 -35 6t-36 6q-9 0 -28.5 -4t-28.5 -4q-22 0 -27 20v2q0 27 95 103q73 59 96 91
q35 50 33 124q-3 69 -53.5 111t-121.5 42q-59 0 -111 -30q-56 -32 -77 -84q-2 -6 -2 -9q2 -8 37 -68q3 -4 5 -7z" />
    <glyph glyph-name="three" unicode="3" horiz-adv-x="475" 
d="M312 402q115 -44 115 -167q0 -104 -64 -170.5t-167 -66.5q-68 0 -132 35t-64 64q0 16 36 70.5t52 54.5q5 0 23 -24q30 -31 79 -31q25 5 41.5 32.5t16.5 54.5q0 36 -32 56q-27 16 -65 16q-12 0 -28 -2h-1q-44 0 -44 30q0 14 28 45q19 20 39.5 41.5t41.5 43.5q29 34 31 54
q-4 1 -11 1q-58 -9 -133 -36q-5 -2 -19 -1q-22 0 -22 111l-1 23q0 30 40 30h267q48 0 62 -7q22 -12 22 -56q0 -98 -111 -201zM88 179q-9 -9 -31 -40.5t-26 -40.5l1 -1q11 -19 51 -40q34 -18 61 -24q21 -5 52 -5q90 0 145.5 57.5t55.5 149.5q0 103 -96 139q-25 10 -25 24
t22 32q35 29 64 78q31 54 31 95q0 19 -6 29q-6 4 -48 4h-267q-2 0 -4.5 -8t-3.5 -8q0 -27 5 -87l5 2q81 27 131 34h1q38 0 43 -25v-1q0 -41 -61 -102q-73 -75 -79 -85q4 -2 12 -2q16 2 30 2q51 0 87 -25q40 -28 40 -77q0 -39 -24.5 -75t-60.5 -42h-2q-27 0 -56 10
q-33 12 -47 32z" />
    <glyph glyph-name="four" unicode="4" horiz-adv-x="498" 
d="M202 322q28 0 35 3q9 11 42 80q69 143 128 143q26 0 26 -26q0 -14 -13 -69t-13 -80q0 -37 21 -50q18 -7 37 -14q21 -11 21 -45v-67q0 -42 -31 -36l-6 1q-35 6 -42 6q-17 0 -18 -24v-71q-2 -53 -12 -62.5t-39 -9.5h-79q-32 0 -42 3q-20 8 -20 34q0 22 5.5 65t5.5 64
q0 2 -1 3q-4 2 -7 2q-20 0 -60.5 -11t-61.5 -11q-76 0 -76 83q0 77 58 209q55 125 111 189q28 31 63 31h115q38 0 38 -27q0 -16 -42 -61q-35 -37 -84 -121q-53 -90 -59 -131zM349 632h-115q-24 0 -49 -30q-18 -24 -35 -49q-39 -54 -77 -154q-41 -106 -41 -166q0 -53 46 -53
q21 0 61.5 11t60.5 11q38 0 38 -35q0 -22 -5.5 -65t-5.5 -64q0 -2 3 -5l3 -3q-3 1 26 1h79q11 0 16 1h1l1 2q2 10 2 28v27q-1 18 -1 28q0 81 50 81q13 0 47 -7h1q1 3 1 6v67q0 6 -1 11l-2 1q-40 4 -58 26.5t-18 70.5q0 49 26 142l1 3q-42 -10 -98 -126q-12 -26 -25 -51
q-20 -39 -32 -44q-19 -1 -45 -4q-21 -1 -22 -1q-8 2 -11 22v1q0 49 70 161q59 95 108 148q3 3 6 7q0 1 -6 1z" />
    <glyph glyph-name="five" unicode="5" horiz-adv-x="483" 
d="M182 444q33 11 66 11q79 0 130.5 -57.5t51.5 -148.5q0 -105 -68 -182q-71 -79 -174 -79q-78 0 -151 46q-39 24 -39 54q0 19 25 70q28 55 47 55q5 0 36 -26.5t66 -26.5q24 0 45 24.5t25 51.5q0 70 -57 70q-17 0 -47.5 -13t-39.5 -13q-27 0 -57 22.5t-30 48.5q0 19 5 48
q8 46 9 47q7 55 23 164q6 36 20 46t52 10h247q39 0 39 -35q0 -3 -9 -55q-8 -43 -26 -56q-14 -9 -58 -9h-66q-4 0 -12 1h-12q-38 0 -41 -68zM375 635q-4 1 -8 1h-247q-27 0 -32.5 -3.5t-9.5 -27.5q-9 -67 -30 -202q-7 -42 -7 -52q0 -13 22 -26.5t35 -13.5q7 1 42 15
q26 10 45 10q41 0 64 -29t23 -72v-1q-5 -39 -34.5 -71.5t-65.5 -32.5q-55 0 -101 48q-43 -75 -43 -90q0 -17 44 -40q38 -20 61 -24q29 -6 55 -6q91 0 152 71q60 67 60 160q0 77 -41.5 126t-109.5 49q-17 0 -36 -4q-46 -9 -38 -9q-23 0 -23 28q0 103 71 103h12q8 -1 12 -1h66
q33 0 39 3q10 6 15 37q4 20 8 53v1z" />
    <glyph glyph-name="six" unicode="6" horiz-adv-x="486" 
d="M192 440l4 2q40 14 78 14q85 0 131 -70q39 -60 39 -148q0 -107 -59 -176q-62 -72 -164 -72q-113 0 -170 95q-48 78 -48 200q0 160 59 262q73 128 223 128q36 0 83 -15q62 -19 62 -49q0 -10 -7 -24l-34 -68q-16 -22 -28 -22q-3 0 -32 13.5t-57 13.5q-72 0 -80 -84z
M359 530q2 2 4 5l33 65q4 7 4 11v-3q-8 17 -55 28q-36 9 -60 9q-137 0 -201 -120q-51 -93 -51 -240q0 -71 21 -134q25 -79 73 -108q37 -23 94 -23q90 0 143 63q50 61 50 155q0 75 -31 126q-38 62 -109 62q-22 0 -53 -9t-38 -9q-21 0 -21 27q0 50 30.5 84.5t79.5 34.5
q45 0 87 -24zM215 175q5 -3 13 -3q36 0 36 63q0 65 -38 65q-36 0 -36 -61q0 -49 25 -64zM160 239q0 37 16 62q18 29 50 29q35 0 53 -31q15 -26 15 -64q0 -93 -66 -93q-14 0 -25 5q-43 21 -43 92z" />
    <glyph glyph-name="seven" unicode="7" horiz-adv-x="443" 
d="M213 503q-3 1 -15 1h-83q-14 0 -31 -13l-11 -8q-35 -26 -41 -26q-19 0 -22 42q-10 120 -10 133q0 34 39 34h315q28 0 36 -3q17 -7 17 -30v-70q0 -16 -28 -60q-19 -29 -39 -58q-32 -48 -58 -123q-27 -79 -27 -132q0 -76 60 -76q24 0 24 -20v-4q-19 -41 -60.5 -71.5
t-85.5 -30.5q-63 0 -106 42.5t-43 105.5q0 99 133 302q31 46 36 65zM301 85q-76 10 -76 105q0 140 131 333q21 31 21 40v72h-3q-6 1 -20 1h-315q-6 0 -7.5 -1.5t-1.5 -2.5q0 -18 10 -130l1 -6l3 3q5 4 12 8l10 8q25 19 49 19h83q38 0 45 -26v-2q0 -22 -89 -157
q-29 -45 -53 -102q-27 -68 -27 -111q0 -50 34.5 -84t84.5 -34q59 0 108 67z" />
    <glyph glyph-name="eight" unicode="8" horiz-adv-x="446" 
d="M391 602q36 -41 36 -100q0 -45 -21 -74q-42 -57 -43 -60q0 -9 12 -22q72 -76 72 -152q0 -99 -66 -154q-61 -51 -160 -51q-146 0 -197 95q-23 42 -23 90q0 69 45 120l35 38q4 8 4 12t-3 8q-35 50 -44 68q-19 36 -19 80q0 81 63 130q57 45 139 45q108 0 170 -73zM368 583
q-52 62 -148 62q-70 0 -118 -37q-53 -40 -53 -108q0 -50 30 -91l29 -41q7 -12 7 -24t-9 -29q-43 -48 -55 -69q-20 -36 -19 -85q1 -51 35 -86.5t85 -46.5q34 -8 72 -8q86 0 137 42q56 45 56 132q0 54 -42 105.5t-42 70.5v2q2 10 35 50q29 36 29 80q0 48 -29 81zM227 433
q26 1 25 65q0 10 -7 20t-16 10q-27 0 -27 -42q0 -13 7 -31q9 -22 18 -22zM228 403q-25 0 -42 30q-14 26 -14 53q0 29 15 50.5t42 21.5q22 0 37.5 -18.5t15.5 -41.5q1 -34 -10 -60q-14 -34 -44 -35zM207 161q7 -6 20 -6q4 0 6 1q11 3 18 18t7 29q0 23 -16 47q-10 14 -19 16
q-10 -3 -19.5 -22.5t-9.5 -32.5q-1 -38 13 -50zM188 138q-24 19 -24 61q0 35 16.5 64t40.5 33h1q27 0 48 -35q18 -30 18 -58q0 -23 -12 -46t-31 -29q-8 -3 -18 -3q-24 0 -39 13z" />
    <glyph glyph-name="nine" unicode="9" horiz-adv-x="483" 
d="M256 235l-3 -1q-38 -17 -77 -17q-84 0 -132 71q-41 61 -41 150q0 105 60 170.5t162 65.5q116 0 172 -92q47 -76 47 -201q0 -164 -52 -262q-69 -128 -218 -128q-37 0 -83 14q-62 19 -62 49q0 8 6 23l33 79q14 22 28 22q7 0 34.5 -13.5t52.5 -13.5q61 0 73 84zM99 147
q-2 -2 -4 -5q-15 -28 -36 -87q36 -34 115 -34q240 0 240 360q0 68 -23 133q-28 78 -78 106q-41 24 -88 24q-90 0 -141 -57t-51 -149q0 -76 33 -129q39 -62 110 -62q24 0 52 10.5t37 10.5q22 0 22 -26q0 -51 -29 -86t-75 -35q-34 0 -84 26zM220 503q-36 0 -36 -62
q0 -65 37 -65q36 0 36 58q0 69 -37 69zM287 435q0 -89 -66 -89q-35 0 -53 31q-14 25 -14 64q0 37 14 62q18 30 52 30q35 0 53 -33q14 -27 14 -65z" />
    <glyph glyph-name="colon" unicode=":" horiz-adv-x="233" 
d="M186 89q-1 -54 -49 -80q-19 -13 -50 -13q-37 0 -61 24t-28 63v1q0 51 21 82q25 36 74 36q46 0 71 -34q23 -30 22 -79zM156 90q2 82 -63 82t-65 -87q6 -59 59 -59q22 0 35 8q34 18 34 56zM186 391q-1 -55 -49 -81q-19 -13 -50 -13q-37 0 -61 24t-28 63v1q0 51 21 82
q25 36 74 36q46 0 70 -32t23 -80zM156 391q2 82 -63 82t-65 -87q6 -59 59 -59q22 0 35 9q34 17 34 55z" />
    <glyph glyph-name="semicolon" unicode=";" horiz-adv-x="247" 
d="M53 48q0 7 -1 9q-3 14 -27.5 21t-24.5 21q0 22 72 88q19 19 39 19q29 0 57 -33q25 -30 28 -61q0 -81 -40 -121q-47 -47 -101 -47q-21 0 -21 18q0 5 9.5 35.5t9.5 50.5zM67 -25q24 6 52.5 35t39.5 56q7 17 7 44q-2 19 -20 42.5t-35 23.5q-9 0 -36 -30q-18 -20 -37 -41
l3 -1q36 -11 43 -39v-26q0 -24 -17 -64zM189 391q-1 -55 -49 -81q-19 -13 -50 -13q-37 0 -61 24t-28 63v1q0 51 21 82q25 36 74 36q46 0 70 -32t23 -80zM159 391q2 82 -63 82t-65 -87q6 -59 59 -59q22 0 35 9q34 17 34 55z" />
    <glyph glyph-name="less" unicode="&#x3c;" horiz-adv-x="459" 
d="M405 491l-1 -142l-211 -99l211 -97l1 -141l-403 173v124zM376 442l-344 -154v-75l342 -152v71l-249 120l251 118v72z" />
    <glyph glyph-name="equal" unicode="=" horiz-adv-x="616" 
d="M543 431q14 0 23.5 -10t9.5 -23v-61q0 -14 -9.5 -23.5t-23.5 -9.5h-511q-13 0 -23 9.5t-10 23.5v61q0 13 10 23t23 10h511zM543 405h-511q-7 0 -7 -7v-61q0 -7 7 -7h511q7 0 7 7v61q0 7 -7 7zM543 231q14 0 23.5 -10t9.5 -23v-61q0 -14 -9.5 -23.5t-23.5 -9.5h-511
q-13 0 -23 9.5t-10 23.5v61q0 13 10 23t23 10h511zM543 205h-511q-7 0 -7 -7v-61q0 -7 7 -7h511q7 0 7 7v61q0 7 -7 7z" />
    <glyph glyph-name="greater" unicode="&#x3e;" horiz-adv-x="435" 
d="M4 491l1 -142l211 -99l-211 -97l-1 -141l404 173v124zM33 442l344 -154v-75l-342 -152v71l249 120l-251 118v72z" />
    <glyph glyph-name="question" unicode="?" horiz-adv-x="374" 
d="M95 232q-24 0 -32 5q-12 7 -12 29q0 5 -1 17v17q0 50 28 89q27 30 53 59q28 33 29 68q-4 30 -33 30q-18 0 -40 -15.5t-27 -15.5q-9 0 -17 8q-49 44 -49 71q0 22 31 47q26 19 49 27q43 14 84 14q78 0 128.5 -51.5t50.5 -130.5q0 -67 -37 -119q-21 -30 -88 -91
q-12 -11 -15 -15q0 2 0 -3q0 -31 -16 -37q-8 -3 -24 -3h-62zM167 272q0 18 25 40q62 57 80 82q35 47 35 106q0 67 -41.5 109.5t-107.5 42.5q-40 0 -75 -12q-44 -16 -59 -46q0 -9 27 -37l15 -5l24 12t37 12q23 0 41.5 -17t21.5 -41q0 -53 -55 -109t-55 -109v-25q2 -13 15 -13
h62h9q1 1 1 10zM210 137q8 -22 8 -45q0 -44 -27.5 -73t-70.5 -29q-38 0 -62.5 24t-28.5 62v1q0 50 24.5 83.5t72.5 33.5q65 0 84 -57zM182 127q-13 37 -56 37q-67 0 -67 -86q7 -58 61 -58q23 0 33 8q35 19 35 64q0 17 -6 35z" />
    <glyph glyph-name="at" unicode="@" horiz-adv-x="838" 
d="M575 170q3 -5 11 -11l3 -3q4 -3 7 -3q42 0 71 73q23 59 23 109q0 86 -42.5 141.5t-122.5 71.5q-47 10 -91 10q-140 0 -221.5 -91.5t-81.5 -241.5q0 -125 79.5 -205t202.5 -80t264 90q8 5 17 5q18 0 33.5 -16.5t15.5 -34.5q0 -20 -19 -29q-165 -108 -320 -108t-272 107
q-122 113 -122 278q0 195 127 312q121 111 310 111q135 0 237 -89q107 -93 107 -229q0 -111 -54 -196q-63 -100 -172 -100q-71 0 -103 51q-49 -51 -120 -51q-70 0 -107 51q-32 45 -32 116q0 94 54 174q60 91 152 93q59 2 93 -27l4 16l87 -2q17 -1 27 -5q17 -7 19 -36
q-11 -59 -23 -117q-15 -69 -35 -113q-6 -13 -6 -21zM571 138v-1l-2 2q-20 17 -20 29q0 14 7 31q10 21 12 28l45 196q0 3 -2 10q-3 2 -19 3l-66 1l-12 -42q-27 33 -43 43q-21 13 -61 11q-78 -2 -132 -82q-49 -72 -49 -159q0 -64 27 -101q30 -40 86 -40q42 0 73 20
q23 15 53 53q16 -38 35 -54q22 -19 62 -19q94 0 151 88q49 78 49 182q0 125 -99 211q-94 81 -219 81q-179 0 -293 -104q-118 -110 -118 -293q0 -153 114 -259q109 -100 254 -100q148 0 307 105q6 3 6 8q0 8 -10.5 16.5t-15.5 5.5q-150 -94 -278 -94q-134 0 -221 88t-87 223
q0 161 89 260t240 99q46 0 97 -11q88 -18 136.5 -80.5t48.5 -157.5q0 -63 -28 -128q-36 -80 -92 -80q-13 0 -23 9zM307 231q14 68 41 118q39 73 91 73q72 0 72 -92q0 -63 -31.5 -134t-67.5 -90q-17 -12 -39 -12q-70 0 -70 91q0 23 4 46zM333 225q-5 -22 -5 -42q0 -63 45 -63
q14 0 25 8q28 14 58.5 82.5t30.5 121.5q0 64 -48 64q-40 0 -73 -69q-22 -46 -33 -102z" />
    <glyph glyph-name="A" unicode="A" horiz-adv-x="586" 
d="M337 189q0 11 -2 18q-5 8 -25 11q-41 0 -71 -13q-41 -18 -41 -54q0 -26 21 -73.5t21 -56.5q0 -23 -31 -23h-128q-41 0 -55 27q-28 54 -28 144q0 146 52 272q58 142 166 218q38 27 64 27q45 0 107 -65q48 -50 78 -103q70 -127 70 -336q0 -168 -57 -181q-14 -3 -57 -3h-84
q-40 0 -40 24q0 4 3 13q37 107 37 154zM329 29q4 -1 8 -1h84q54 0 61 11q23 34 23 143q0 322 -179 453q-28 21 -46 21q-34 0 -96 -64q-49 -51 -75 -94q-36 -62 -60 -159q-21 -92 -21 -170q0 -33 7 -75q9 -57 25 -63q5 -3 21 -3h125q-38 81 -38 123q0 50 49 76q40 21 95 21h1
q38 -6 49 -28q5 -14 5 -31q0 -51 -38 -160zM216 369q1 -1 4 -2q30 4 48 4q20 0 51 -4q2 4 2 11q0 15 -17 58t-28 43q-13 0 -37 -46q-21 -42 -23 -60v-4zM187 360q-2 8 -1 14q1 26 25 71t45 58q9 6 20 6q31 0 57 -66q18 -45 18 -65q0 -41 -33 -41h-1q-30 4 -49 4
q-17 0 -47 -4h-1q-26 0 -33 23z" />
    <glyph glyph-name="B" unicode="B" horiz-adv-x="560" 
d="M294 665q187 0 187 -127q0 -44 -23 -80q-9 -15 -51 -65q-9 -10 -9 -16q1 -1 47 -55q65 -76 65 -166q0 -60 -35 -102t-93 -51q-30 -4 -75 -4h-214q-37 0 -51.5 15t-20.5 52q-15 93 -15 282q0 253 31 295q16 22 63 22h194zM294 635h-194q-26 0 -33 -5q-10 -6 -14 -29
q-17 -92 -17 -253q0 -298 30 -315q8 -4 27 -4h214q80 0 120 22q53 30 53 105q0 61 -30 108q-35 43 -69 86q-12 15 -12 29q0 16 41 63.5t41 95.5q0 97 -157 97zM209 424q0 3 6 3q16 4 43 34.5t27 48.5q0 8 -3 14q-8 10 -25 9q-49 -1 -49 -93q0 -11 1 -16zM178 440
q0 121 78 123q34 2 52 -23q7 -15 7 -30q0 -35 -45 -79q-31 -30 -52 -34h-2q-21 0 -32 11q-6 10 -6 32zM207 233q0 -15 4 -57q2 -24 28 -34q8 -2 16 -2q56 0 55 58q0 19 -11 48q-14 34 -30 34q-1 0 -20 -7t-22 -8q-9 -2 -14.5 -7.5t-5.5 -24.5zM177 233q0 30 14 45
q9 9 24 14.5t30 11.5t24 6q28 0 49 -34.5t21 -75.5q0 -49 -32 -73q-21 -17 -52 -17q-12 0 -25 3q-36 13 -46 50q-7 20 -7 70z" />
    <glyph glyph-name="C" unicode="C" horiz-adv-x="532" 
d="M492 178q0 -88 -64 -138q-57 -45 -143 -45q-67 0 -127 29q-63 30 -97 86q-58 92 -58 235q0 139 65 233q74 106 207 106q75 0 125 -22q68 -31 68 -97q0 -46 -36 -81t-82 -35q-21 0 -32 10q-6 8 -6 15q0 6 3.5 16t3.5 15q0 26 -27 26q-50 0 -76 -65q-19 -48 -19 -107
q0 -76 30 -124q35 -58 107 -58q81 0 101 70q8 26 23 26q18 0 27 -39q7 -28 7 -56zM344 479h6q34 0 61 26t27 60q0 89 -163 89q-120 0 -185 -98q-57 -85 -57 -211q0 -138 56 -223q66 -99 196 -98q76 2 124 39q53 42 53 115q0 16 -6 45q-5 -15 -9 -21q-6 -11 -18 -22
q-37 -33 -95 -33q-85 0 -129 66q-38 57 -38 146q0 73 26 129q34 73 99 73q25 0 41 -15t16 -41q0 -13 -4 -24z" />
    <glyph glyph-name="D" unicode="D" horiz-adv-x="567" 
d="M228 665q86 0 138 -37q45 -31 89 -111q63 -114 63 -262q0 -83 -30 -151q-38 -86 -109 -99q-27 -5 -69 -5h-238q-30 0 -42 20q-8 12 -14 47q-14 91 -14 254q0 303 40 333q14 11 48 11h138zM228 635h-138q-23 0 -29.5 -4.5t-11.5 -24.5q-17 -71 -17 -285q0 -63 4 -143
q7 -135 22 -145q4 -3 14 -3h238q61 0 87 12q32 15 60 65q31 57 31 148q0 105 -43 213q-52 130 -135 155q-38 12 -82 12zM200 305q0 -165 54 -165q37 0 56 64q13 44 13 93q0 48 -19 114q-22 77 -53 98q-7 5 -29 5q-22 -12 -22 -209zM170 305q0 158 13 201q10 33 35 39h1
q41 0 65 -25q16 -17 36 -63q33 -79 33 -160q0 -64 -19 -116q-27 -71 -80 -71q-56 0 -74 77q-10 39 -10 118z" />
    <glyph glyph-name="E" unicode="E" horiz-adv-x="518" 
d="M215 436q11 0 43.5 10.5t57.5 10.5q44 0 72 -19q12 -10 12 -21q0 -4 -3 -16l-37 -102q-10 -27 -25 -27q-11 0 -22 13q-16 16 -41 16q-31 0 -48.5 -23.5t-17.5 -54.5q0 -41 25.5 -68t65.5 -27q34 0 68.5 20.5t37.5 20.5q21 0 50 -65q26 -59 26 -79q0 -25 -46 -25h-347
q-34 0 -48.5 12t-20.5 46q-14 83 -14 306q0 265 43 291q14 10 44 10h341q44 0 44 -26q0 -8 -3 -17q-13 -35 -46 -102q-9 -12 -19 -12q-4 0 -27 9q-26 10 -28 11q-25 6 -52 6q-40 0 -68 -20t-28 -59q0 -15 11 -19zM403 541q7 12 41 93q-5 1 -13 1h-341q-21 0 -28 -5t-12 -25
q-17 -62 -17 -241q0 -311 24 -329q6 -5 29 -5h347q9 0 14 1l-1 2q-13 35 -45 103l-2 -2q-50 -36 -102 -36t-86.5 36t-34.5 89q0 44 26 76t70 32q34 0 60 -22l37 105q-20 13 -53 13q-20 0 -52.5 -10.5t-48.5 -10.5q-9 0 -16 4q-25 11 -25 45q0 52 38 82q35 27 88 27
q56 0 103 -23z" />
    <glyph glyph-name="F" unicode="F" horiz-adv-x="443" 
d="M52 3q-26 7 -35 54q-15 77 -15 278q0 293 42 320q15 10 46 10h341q44 0 44 -26q0 -8 -4 -17q-12 -35 -46 -102q-9 -12 -19 -12q-4 0 -28 9.5t-26 10.5q-26 6 -51 6q-41 0 -68 -19q-30 -21 -30 -60q0 -13 10 -19h3q10 0 43 10.5t57 10.5q26 0 50 -8q34 -11 34 -32
q0 -4 -4 -16q-11 -36 -23 -73q-20 -56 -38 -56q-7 0 -24.5 14.5t-38.5 14.5q-61 0 -61 -85q0 -65 29 -179q2 -8 2 -12q0 -25 -48 -25h-109q-21 0 -33 3zM211 30q-30 118 -30 186q0 49 21 79q24 36 70 36q35 0 59 -22l38 105q-19 13 -53 13q-20 0 -52.5 -10.5t-47.5 -10.5
q-10 0 -18 4q-25 12 -25 45q0 51 39 82q35 27 89 27q55 0 102 -23q7 12 41 93q-6 1 -13 1h-341q-22 0 -29 -5t-11 -25q-18 -85 -18 -270q0 -260 22 -297q4 -8 31 -8h109h17z" />
    <glyph glyph-name="G" unicode="G" horiz-adv-x="569" 
d="M334 676q66 0 110 -26q54 -31 54 -92q0 -48 -41 -86.5t-89 -38.5q-36 0 -36 26q0 5 4 15t4 16q0 25 -26 25q-28 0 -49 -19q-29 -25 -46 -80q-16 -51 -16 -108q0 -63 19 -103q22 -45 61 -45q43 0 47 51q0 13 -7 35q-8 26 -18 30q-28 12 -28 27q0 13 26 25l126 57
q18 8 27 8q18 0 27 -27q5 -20 9 -41q26 -105 26 -145q0 -93 -77 -146q-68 -46 -165 -46q-133 0 -206 96q-66 87 -66 225q0 153 85 256q92 111 245 111zM452 362q-4 -1 -133 -60q19 -10 30.5 -40t10.5 -53q-2 -33 -23 -56t-54 -23q-59 0 -88 67q-20 48 -22 116q-1 79 30 148
q39 85 110 83q57 -1 57 -54q0 -13 -5 -25l-1 -2h4q36 0 68 29.5t32 65.5q0 47 -46 71q-35 17 -88 17q-141 0 -223 -102q-77 -94 -77 -235q0 -125 57 -203q65 -88 185 -88q84 0 143 38q69 44 69 124q0 28 -12.5 89.5t-23.5 92.5z" />
    <glyph glyph-name="H" unicode="H" horiz-adv-x="596" 
d="M312 297q-43 0 -75 -20q-36 -24 -38 -64q-1 -42 25 -139l11 -42q1 -4 1 -7q0 -25 -42 -25l-130 -1q-22 0 -32 14q-6 8 -12 34q-17 72 -17 272q0 266 28 323q10 23 60 23h116q40 0 40 -25q0 -8 -6 -22q-33 -75 -38 -190q0 -5 1 -8q10 0 30 4.5t31 4.5q23 0 49 -3
q15 0 17.5 2.5t2.5 17.5q0 60 -47 170q-6 14 -6 22q0 27 41 27h124q37 0 50.5 -10.5t19.5 -48.5q20 -137 20 -305q0 -249 -34 -291q-10 -11 -31 -11h-19l-109 1q-43 0 -43 25q1 1 2 7l2 9l28 100q16 60 16 103q0 53 -36 53zM332 30q21 -1 120 -1h19q3 0 8 2q27 53 27 270
q0 84 -7 191q-10 137 -24 141q-8 2 -29 2h-124q-3 0 -6.5 -4.5t-4.5 -4.5l34 -88q19 -50 19 -92q0 -50 -51 -50h-1q-25 3 -47 3q-10 0 -29.5 -4.5t-29.5 -4.5q-35 0 -35 57q0 83 43 183q2 5 -7 5h-116q-27 0 -31.5 -3.5t-8.5 -30.5q-18 -116 -18 -282q0 -259 24 -289
q2 -1 7 -1h20q100 0 120 1v3l-9 34q-26 94 -26 133q0 80 66 110q37 17 77 17q66 0 66 -83q0 -46 -16 -107q-14 -52 -29 -104z" />
    <glyph glyph-name="I" unicode="I" horiz-adv-x="288" 
d="M241 639q0 -3 -1 -9l-2 -12q-38 -179 -38 -322q0 -119 27 -222l12 -42q1 -4 1 -7q0 -25 -42 -25l-128 -1q-24 0 -33 13q-5 6 -13 35q-18 72 -18 266q0 81 5 173q9 126 23 156q11 23 60 23h108q39 0 39 -26zM61 30q3 -1 9 -1h18q99 0 120 1l-1 3l-9 34q-28 106 -28 229
q0 146 38 329l3 11v3q3 -4 3 -6q-3 2 -12 2h-108q-27 0 -31 -3.5t-8 -30.5q-19 -124 -19 -288q0 -230 25 -282v-1z" />
    <glyph glyph-name="J" unicode="J" horiz-adv-x="381" 
d="M134 -4q-47 0 -85 20q-45 24 -50 67v1q0 45 38 107q6 17 22 17q10 0 19 -11l11 -18q9 -13 20 -17q1 -1 3 -2q25 0 25 133q0 138 -38 325q-4 14 -4 21q0 26 39 26h108q37 0 50.5 -10.5t19.5 -49.5q17 -112 17 -239q0 -104 -9 -161q-14 -100 -56 -149q-51 -60 -130 -60z
M128 625q39 -190 39 -332q0 -163 -54 -163q-9 0 -17 5q-11 4 -33 36l-3 3q-30 -56 -31 -90q4 -28 42 -45q29 -13 63 -13q109 0 145 127q20 67 20 213q0 62 -7 147q-8 116 -21 120q-8 2 -29 2h-108q-8 0 -8 -1q-1 0 2 -9z" />
    <glyph glyph-name="K" unicode="K" horiz-adv-x="552" 
d="M199 425q38 24 68 89q25 53 34 108q5 29 13.5 36t36.5 7l113 -1q36 -1 36 -24q0 -76 -104 -219q-22 -31 -22 -40v-3q25 -33 72 -108q64 -120 63 -235q0 -35 -33 -35h-138q-35 0 -43 22q-3 7 -5 56q-6 178 -37 178q-12 0 -31 -19.5t-19 -43.5q0 8 11 -70q1 -5 9 -48
q6 -34 6 -47q0 -28 -37 -28l-130 -1q-23 0 -32 14q-4 7 -11 34q-19 73 -19 266q0 81 6 173q8 126 22 156q11 23 60 23h108q40 0 40 -26q0 -5 -20 -93q-19 -84 -17 -121zM323 41q3 -11 4 -12q-2 1 11 1h120h15q4 3 5 14q4 29 -10 86q-12 49 -27 84q-20 48 -87 142
q-10 14 -10 25q0 18 25 53q19 26 38 51q57 87 66 150q1 0 -23 0h-110q-5 0 -6.5 -5.5t-2.5 -6.5q-7 -31 -15 -62q-9 -34 -22 -61q-54 -108 -102 -108q-24 0 -24 46q0 33 19 115q8 39 16 72l1 9q0 1 -8 1h-108q-27 0 -31 -3.5t-8 -30.5q-19 -124 -19 -288q0 -216 24 -272
q20 -6 18 -11h127q-9 49 -24 146q-2 10 -2 17q0 30 25.5 61.5t54.5 31.5q40 0 55 -67q6 -26 11 -97q-2 -28 4 -81z" />
    <glyph glyph-name="L" unicode="L" horiz-adv-x="471" 
d="M269 146q30 0 69 26.5t48 26.5q23 0 41 -65q10 -50 21 -99q1 -6 1 -11q0 -24 -36 -24h-338q-28 0 -37.5 9.5t-14.5 38.5q-16 87 -16 282q0 259 26 313q12 22 61 22h140q41 0 41 -26q0 -6 -6 -22q-72 -203 -72 -335q0 -136 72 -136zM236 635h-142q-30 0 -34 -7
q-3 -3 -7 -37q-16 -114 -16 -261q0 -248 21 -299q4 -1 17 -1h338q5 0 4 7q-9 44 -34 130q-27 -17 -53 -34q-31 -17 -61 -17q-102 0 -102 166q0 73 36 221q32 132 33 132z" />
    <glyph glyph-name="M" unicode="M" horiz-adv-x="677" 
d="M618 356q0 -70 -6 -169q-9 -131 -23 -162q-11 -25 -51 -25l-119 -1q-44 0 -44 23q0 3 9 35q35 120 35 250q0 35 -4 84q-14 -29 -36 -119q-13 -55 -25 -110q-7 -27 -42 -27h-30q-29 0 -37 26q-22 76 -66 227v-12q0 -124 35 -331q2 -11 2 -16q0 -32 -71 -32q-13 0 -40.5 1
t-39.5 1q-31 0 -40.5 10t-14.5 42q-12 73 -12 204q0 101 10 218q15 168 42 185q10 7 29 7h104q34 0 50 -14q11 -9 30 -44q11 -22 24 -57q19 -55 20 -57q36 90 41 100q31 63 60 69q11 3 37 3h90q35 0 46 -15q6 -8 15 -48q22 -96 22 -246zM588 356q0 191 -30 274q-1 1 -2 3
q-5 2 -21 2h-90q-29 0 -34.5 -3.5t-22 -28t-32.5 -65.5q-25 -64 -26 -67q-7 -16 -24 -20q-16 1 -26 27q-6 19 -13 39q-38 109 -60 116q-7 2 -24 2h-104q-8 0 -14 -3q-16 -28 -28 -183q-9 -123 -9 -194q0 -175 15 -214q4 -4 8 -7q8 -7 15 -7q40 -2 120 4q-7 81 -24 178
q-13 69 -13 167v21q0 27 22 34h2q19 0 32 -26q11 -41 34 -122q32 -109 36 -117q3 -1 7 -1h30q7 0 12 1q1 4 31 133q31 133 67 133h2q17 -3 20 -34q5 -41 5 -91q0 -142 -42 -278q5 0 131 1q21 0 25 8q1 2 5 28q20 129 20 290z" />
    <glyph glyph-name="N" unicode="N" horiz-adv-x="592" 
d="M185 352q-6 -30 -6 -44q0 -57 16 -138q13 -69 27 -137q1 -5 1 -8q0 -25 -37 -25h-115q-32 0 -41 10t-14 41q-12 69 -12 202q0 104 10 221q15 167 42 184q10 7 29 7h95q42 0 64 -22q9 -9 39 -58q36 -57 67 -151q1 15 1 28q0 79 -29 154q-5 14 -5 22q0 27 38 27h115
q32 0 42 -11q7 -8 13 -41q11 -67 11 -199q0 -286 -31 -385q-10 -29 -53 -29h-112q-22 0 -30.5 6t-14.5 26q-28 114 -76 241q-7 25 -34 79zM506 414q0 104 -10 207q-5 3 -10 7q-9 7 -16 7h-115q-15 0 -7 0q-1 0 -1 -2q2 -3 3 -7q31 -80 31 -164q0 -31 -5 -85q-4 -21 -20 -21
q-15 0 -20 20q-34 144 -109 241q-14 18 -47 18h-95q-7 0 -14 -10q-9 -15 -20 -102q-9 -66 -11 -103q-6 -83 -6 -167q0 -179 17 -222q4 -1 20 -1l109 -1q2 0 7 7.5l5 7.5q-13 65 -27 131q-14 75 -14 133q0 34 4 49q1 25 21 31h3q24 0 44 -43q3 -6 24 -62q48 -129 77 -244
q3 -8 5 -9h11h112q15 0 22 3q14 19 25 190q7 129 7 191z" />
    <glyph glyph-name="O" unicode="O" horiz-adv-x="604" 
d="M283 686q76 0 141 -67q54 -55 87 -137q43 -110 43 -226q0 -94 -32 -160q-41 -82 -124 -94q-35 -6 -88 -6h-92q-71 0 -108 18q-46 22 -74.5 81.5t-28.5 148.5q0 110 42 218q47 118 126 181q53 43 108 43zM283 656q-65 0 -127 -71q-47 -55 -77 -130q-42 -106 -42 -211
q0 -74 22 -129q30 -72 92 -84q27 -5 67 -5h92q77 0 110 13q49 17 77 75q27 55 27 142q0 107 -38 208q-45 118 -124 167q-41 25 -79 25zM244 178q13 -4 35 -4q41 0 53 11q28 26 28 100q0 49 -20 125q-25 95 -57 95q-24 0 -47 -61q-16 -42 -23 -82q-8 -49 -8 -92q0 -81 39 -92
zM236 149q-61 18 -61 121q0 74 23 155q31 110 85 110q51 0 83 -102q24 -80 24 -148q0 -72 -21 -103q-25 -38 -90 -38q-26 0 -43 5z" />
    <glyph glyph-name="P" unicode="P" horiz-adv-x="516" 
d="M200 388q28 7 59.5 42.5t31.5 63.5q0 35 -39 35q-28 0 -38 -23q-4 -10 -10 -47q-7 -55 -4 -71zM321 494q0 -65 -80 -119q-27 -18 -47 -18v0q-25 3 -25 49q0 15 6 57q3 26 5 35q5 21 13 32q21 29 59 29q30 0 49.5 -18t19.5 -47zM235 51q5 -14 5 -21q0 -30 -48 -30l-128 -1
q-24 0 -33 13q-5 7 -13 35q-19 75 -19 272q0 80 6 171q9 124 24 153q12 22 59 22h210q192 0 192 -151q0 -90 -78 -162q-41 -38 -156 -104q-59 -35 -59 -78q0 -23 14 -60q12 -29 24 -59zM210 31l-1 1q-1 5 -26 68q-16 40 -16 70q0 44 39 78q16 14 75 49q82 47 120 86
q59 60 59 131t-49 99q-37 22 -113 22h-210q-25 0 -30 -4t-9 -30q-20 -120 -20 -282q0 -226 25 -285q4 -3 9 -6q2 -1 20 -1q104 0 127 4z" />
    <glyph glyph-name="Q" unicode="Q" horiz-adv-x="592" 
d="M420 54q-83 -68 -170 -68q-101 0 -167 70q-60 63 -76 166q-8 46 -8 97q0 143 51 234q64 116 199 122q99 5 170.5 -51t92.5 -154q13 -54 13 -134q0 -99 -26 -177q-2 -7 -2 -13q0 1 23.5 -39.5t23.5 -69.5q0 -64 -28 -64q-15 0 -48 31l-40 42zM511 10q3 15 3 27
q0 25 -23.5 61t-23.5 48q0 11 14 53.5t14 136.5q0 238 -139 290q-54 20 -102 20q-118 0 -178 -110q-47 -88 -47 -217q0 -260 182 -299q17 -4 39 -4q86 0 150 60q10 9 21 9t28 -18q25 -21 62 -57zM324 262q6 33 6 87q0 166 -64 168q-77 1 -77 -193q0 -172 60 -172q16 0 31 9
q-35 41 -35 97q0 74 29 74q14 0 23 -27q11 -32 27 -43zM280 286q0 -2 -2.5 -13t-2.5 -15q0 -52 48 -98q-39 -38 -74 -38q-90 0 -90 202q0 224 108 223q93 -2 93 -198q0 -70 -15 -121q-7 -7 -14 -7q-10 0 -19 13q-11 2 -20 21q-6 15 -12 31z" />
    <glyph glyph-name="R" unicode="R" horiz-adv-x="570" 
d="M207 394h2q11 0 30 12q62 36 63 75q1 21 -13.5 34.5t-35.5 13.5q-12 0 -18 -4q-31 -18 -31 -109q0 -17 3 -22zM174 416q0 143 79 143q33 0 56.5 -22.5t22.5 -56.5q-1 -55 -78 -100q-26 -16 -45 -16q-13 0 -20 7q-15 11 -15 45zM397 328q1 -1 3 -5.5t28 -36.5
q96 -120 96 -238q0 -21 -5 -33q-10 -16 -35 -16q-129 0 -146 8.5t-26 36.5q-2 6 -9 46q-10 51 -18 78q-19 61 -42 64q-35 -1 -35 -59q0 -33 27 -137q0 -3 -1 -9q0 -31 -66 -31q-14 0 -42.5 1.5t-40.5 1.5h-20q-23 0 -32 14q-5 7 -12 34q-19 73 -19 266q0 81 6 173
q8 126 23 156q11 23 60 23h226q84 0 132 -39q53 -43 53 -126q0 -85 -66 -137q-14 -10 -38 -34zM197 29l3 17q-22 84 -22 127q0 89 66 89q39 -4 61 -60q12 -30 26 -105q11 -59 20.5 -63.5t31.5 -5.5q15 0 43.5 1t35.5 1q22 -1 25 1q7 2 7 17q0 108 -108 242q-19 23 -19 41v1
q3 16 31 39q36 29 49 46q25 35 25 83q0 135 -155 135h-226q-27 0 -31.5 -3.5t-8.5 -30.5q-19 -124 -19 -288q0 -227 25 -283q3 -1 8 -1h132z" />
    <glyph glyph-name="S" unicode="S" horiz-adv-x="518" 
d="M372 471q-7 0 -21 10q-59 49 -107 50q-43 -9 -43 -42q0 -34 71 -71q51 -23 102 -47q96 -57 96 -165q0 -106 -78 -165q-71 -54 -178 -54q-89 0 -151 44q-69 50 -69 136q0 29 12 67q16 50 40 50q18 0 22 -23q8 -52 42.5 -82.5t86.5 -30.5q75 0 76 63q-4 24 -30 38
q-24 10 -47 20q-97 41 -131 74q-52 49 -52 137q0 98 68 150q61 46 160 46q90 0 164 -48q33 -21 37 -47v-1q0 -25 -23 -65q-25 -44 -47 -44zM41 240q-17 -32 -17 -73q0 -73 61 -114q53 -36 129 -36q95 0 157 45q69 51 69 144q0 82 -69 130q-65 33 -130 65q-70 36 -70 88
q0 59 70 72h1q55 0 118 -52q4 -3 17 -5q13 8 23.5 32t11.5 43q-3 11 -31 29q-22 14 -39 21q-44 17 -101 17q-86 0 -138 -38q-60 -43 -60 -128t61 -132q27 -20 137 -65q54 -23 62 -69v-2q0 -94 -106 -94q-58 0 -100 33t-56 89z" />
    <glyph glyph-name="T" unicode="T" horiz-adv-x="533" 
d="M511 581q0 -13 -16 -75t-21.5 -70t-15.5 -8q-12 0 -21 14q-53 76 -73 76q-18 0 -29 -75q-10 -71 -10 -145q0 -72 38 -259q1 -7 1 -11q0 -28 -38 -28h-124q-32 0 -48 14q-23 25 -23 149q0 161 21 296q7 45 7 49q0 3 -1 6q-25 -5 -63 -31t-57 -48q-11 -13 -24 -13
q-18 0 -18 26v1q13 76 16 91q16 74 31 94q34 44 233 44q72 0 139 -19q96 -26 96 -78zM481 581q0 33 -88 53q-65 14 -117 14q-48 0 -110 -7q-86 -9 -99.5 -26t-36.5 -145q24 24 62 47q45 27 70 27q27 0 27 -36q0 -6 -7 -53q-21 -134 -21 -300q0 -95 14 -120q8 -5 27 -5h124
q5 0 8 1l-1 2q-13 66 -25 132q-13 74 -13 133q0 186 37 234q14 18 31 18q22 0 51 -31q1 -1 40 -51q27 98 27 113z" />
    <glyph glyph-name="U" unicode="U" horiz-adv-x="580" 
d="M382 8q-43 -23 -115 -23q-225 0 -256 264q-6 46 -6 97q0 98 24 258q6 40 19 50t51 10h108q39 0 39 -26q0 -4 -4 -21q-41 -189 -41 -266q0 -156 70 -156q66 0 66 143q0 62 -22 166l-24 113q-4 14 -4 21q0 26 40 26h107q38 0 51 -10.5t19 -49.5q21 -134 21 -225
q0 -296 -143 -371zM323 616l22 -106q22 -113 22 -172q0 -173 -96 -173q-100 0 -100 186q0 85 41 257q2 14 2 15q-1 1 -7 11h-108q-28 0 -32 -3.5t-8 -30.5q-24 -159 -24 -254q0 -233 114 -304q43 -27 118 -27q213 0 226 297q2 35 2 67q0 48 -9 140q-11 109 -23 113
q-8 2 -29 2h-107q-8 0 -8 -5z" />
    <glyph glyph-name="V" unicode="V" horiz-adv-x="554" 
d="M464 199q-29 -71 -83 -139q-64 -79 -125 -97q-7 -2 -14 -2q-52 0 -118 79q-55 64 -81 126q-43 103 -43 227q0 50 7 126q8 97 20 121t61 24h107q40 0 40 -26q0 -7 -4 -21q-38 -181 -38 -259q0 -97 36 -147q13 -18 17 -19q26 15 47 83q18 59 18 103q0 52 -15 127
q-14 63 -27 126q-1 5 -1 8q0 25 39 25h127q32 0 40 -13q5 -7 11 -46q20 -133 20 -184q0 -118 -41 -222zM301 624l26 -122q14 -72 14 -124q0 -54 -19 -116q-23 -76 -59 -96q-1 0 -4 -4t-6 -4q-42 0 -69 81q-21 62 -21 114q-1 59 12 132q1 7 27 131q6 18 -7 18h-107
q-27 0 -31.5 -3.5t-8.5 -30.5q-18 -113 -18 -207q0 -227 144 -361q43 -41 68 -41q22 0 63 34q30 26 52 53q118 147 118 343q0 40 -10 119q-11 89 -20 91.5t-31 2.5h-107h-8z" />
    <glyph glyph-name="W" unicode="W" horiz-adv-x="746" 
d="M344 127q-6 -5 -43 -78q-34 -68 -64 -82q-12 -6 -24 -6q-42 0 -100 87q-44 65 -67 126q-40 106 -40 269q0 207 63 222q-4 -1 53 -1h80q35 0 35 -24q0 -5 -7 -26q-28 -80 -28 -169q0 -122 29 -175q22 37 35 128q11 75 11 133q0 60 -10 85q-6 12 -6 21q0 27 35 27h140
q36 0 36 -24q0 -4 -2 -10.5t-2 -8.5q-19 -85 -19 -176q0 -114 31 -182l-1 1q-2 0 -4 2l-4 -2q39 47 39 221q0 80 -12 136q-2 8 -2 16q0 27 38 27h115q31 0 42 -14q8 -10 9 -42q2 -35 2 -70q0 -320 -140 -509q-50 -68 -97 -68q-30 0 -54 33q-15 21 -36 70.5t-31 62.5z
M205 626l-3 8h-80q-47 0 -57 -7.5t-19 -52.5q-10 -53 -10 -131q0 -109 19 -188q20 -89 72 -174q14 -24 37 -51q33 -39 49 -39q26 0 66.5 83.5t64.5 83.5q20 0 38 -35l22 -52q38 -80 61 -80q36 0 84 72q31 47 55 102q68 160 68 373q0 78 -4 88q-9 8 -19 8h-115q-8 0 -7 -7
q13 -55 13 -142q0 -59 -10 -128q-17 -121 -55 -121q-16 0 -24 17q-32 74 -32 192q0 92 19 181q1 8 -2 8h-140h-4q15 -53 15 -103q0 -68 -16 -163q-22 -132 -59 -132q-31 0 -48 88q-12 62 -12 121q0 92 33 181z" />
    <glyph glyph-name="X" unicode="X" horiz-adv-x="546" 
d="M142 327q1 6 1 7q0 3 -40 56q-71 95 -71 209q0 38 12.5 52t48.5 14h114q39 0 39 -29q0 -124 17 -155v-1q1 -1 3 -2q18 12 25 157q2 30 33 30h113q38 0 49 -27q7 -16 7 -60q0 -100 -66 -185q-39 -49 -38 -67q1 -4 42 -60q74 -103 74 -205q0 -34 -12 -50q-11 -12 -33 -12
q-3 0 -8 1h-8h-107q-32 0 -41 17q-7 10 -9 46q-1 32 -10 73q-13 62 -31 62q-24 0 -45 -150q-1 -2 -3 -19q-4 -29 -40 -29h-108q-24 0 -34 8t-9 31q3 157 117 270l15 15zM219 628l-4.5 3.5t-7.5 3.5h-114q-23 0 -27 -5t-4 -31q0 -113 86 -217q25 -31 25 -48q0 -19 -28 -47
q-105 -103 -108 -248q-1 -8 1 -9h12h108q10 0 11 5l2 18q11 75 18 101q21 74 57 74q37 0 57 -68q12 -41 14 -95q1 -13 1 -26q3 -9 19 -9h62q41 -1 61 -1q15 0 15 32q0 98 -90 217q-27 35 -27 52t28 59t56 83q21 41 21 106v38q-4 19 -26 19h-101q-12 0 -13 -4v-18
q-3 -137 -40 -159q-8 -6 -17 -6q-23 0 -31 21q-16 30 -16 159z" />
    <glyph glyph-name="Y" unicode="Y" horiz-adv-x="587" 
d="M179 665q51 0 51 -34q0 -14 -2 -43t-2 -43q0 -54 8 -82q10 -41 41 -69q3 -4 7 -4t7 4q50 50 50 154q0 13 -2.5 39t-2.5 39q0 39 38 39h119q50 0 48 -50q-2 -65 -25.5 -136.5t-61.5 -123.5q-60 -84 -81 -120q-43 -76 -43 -134q0 -25 4 -39q4 -18 4 -30q0 -32 -48 -32h-103
q-34 0 -42.5 12t-8.5 48q0 73 39 153q3 7 3 11q0 10 -34 48q-22 25 -44 49q-55 63 -76 136q-18 62 -18 157q0 32 16 43q12 8 46 8h113zM306 32q0 8 -4 24t-4 45q0 62 35 128q16 30 74 113q49 70 67 116q9 24 21 72q15 59 15 87q0 11 -2 16q-4 2 -17 2h-119q-9 0 -7 0
q-1 -3 -1 -9q0 -13 2.5 -39t2.5 -39q0 -117 -59 -175q-12 -13 -28 -13q-29 0 -61 53q-25 40 -25 132q0 14 2 43t2 43v2q-7 2 -21 2h-113q-26 0 -29 -3.5t-3 -17.5q0 -104 22 -165t87 -134q20 -21 39 -43q24 -28 24 -48q0 -11 -6 -24q-36 -74 -36 -140q0 -22 1 -28
q4 -2 20 -2h103q18 0 18 2z" />
    <glyph glyph-name="Z" unicode="Z" horiz-adv-x="517" 
d="M70 -1q-40 0 -56 8q-23 11 -23 47q0 50 79 207q27 52 113 209q19 34 19 42t-10 8q-26 0 -77 -34q-14 -9 -23 -9q-16 0 -31 41q-8 26 -16 51q-20 60 -20 68q0 28 50 28h348q58 0 58 -53q0 -28 -24 -70q-1 -1 -41 -64q-49 -75 -98 -149q-88 -139 -88 -167q0 -20 21 -27
q6 -1 9 -1q31 0 76 33.5t54 33.5q22 0 51 -80q26 -70 26 -95q0 -27 -41 -27h-356zM437 30q-12 63 -50 138q-29 -21 -59 -42q-35 -22 -68 -22q-6 0 -16 2q-44 13 -44 56q0 37 73 150l118 182q18 28 36 57q24 39 24 61q0 23 -28 23h-348q-12 0 -19 -2v-1q19 -71 41 -122l1 1
q61 39 95 38q39 0 39 -37q0 -16 -51 -111q-31 -56 -61 -112q-99 -189 -99 -235q0 -20 15 -24q3 -1 34 -1h356q6 0 11 1z" />
    <glyph glyph-name="bracketleft" unicode="[" horiz-adv-x="349" 
d="M227 -31h85v-70h-215v766h215v-70h-85v-626zM197 -61v686h85v10h-155v-706h155v10h-85z" />
    <glyph glyph-name="backslash" unicode="\" horiz-adv-x="418" 
d="M37 772q-11 0 -21 -7q-13 -8 -13 -21q0 -4 1 -9l290 -778q11 -28 33 -28h48q10 0 22 7.5t12 20.5q0 4 -2 9l-290 778q-11 28 -32 28h-48zM37 746h48q3 0 7 -11l290 -778q-4 -2 -7 -2h-48q-4 0 -8 11l-289 778q3 2 7 2z" />
    <glyph glyph-name="bracketright" unicode="]" horiz-adv-x="362" 
d="M83 665h215v-766h-215v70h85v626h-85v70zM113 635v-10h85v-686h-85v-10h155v706h-155z" />
    <glyph glyph-name="asciicircum" unicode="^" horiz-adv-x="276" 
d="M261 708q-12 -4 -31 7q-15 5 -64 33q-4 3 -18 0q-22 -13 -66 -41q-12 -9 -27 -1q-29 16 -29 27q0 6 32 39q40 40 47 46q31 25 57 25q17 0 33.5 -9.5t39.5 -31.5q28 -29 38 -36q22 -18 22 -27t-15 -18q-6 -5 -19 -13zM259 740q6 7 -4 11l-3 1q-8 3 -17 13q-4 5 -11 12
q-21 22 -36 33q-15 8 -27 8q-23 0 -65 -44q-20 -22 -38 -30q-10 -4 -1 -12q1 0 1 -1v0q4 -6 15.5 4.5t31.5 24.5q11 3 31 12q14 11 34 4q25 -12 79 -44q8 6 10 8z" />
    <glyph glyph-name="underscore" unicode="_" horiz-adv-x="484" 
d="M519 -138h-527v35h527v-35z" />
    <glyph glyph-name="grave" unicode="`" horiz-adv-x="240" 
d="M53 757q63 -28 160 -48q16 -4 30 15t14 26t-8 13q-29 23 -96 60q-52 29 -64.5 34.5t-23.5 5.5q-25 0 -45 -27q-16 -20 -16 -35q0 -23 49 -44zM72 771q-38 17 -38 32q0 10 9 22q12 16 24 16q7 0 16 -4q41 -23 121 -68q25 -13 25 -24q0 -4 -4 -9q-7 -10 -17 -9
q-44 3 -136 44z" />
    <glyph glyph-name="a" unicode="a" horiz-adv-x="444" 
d="M25 358q-12 14 -16 34v2q0 64 50 95q41 26 109 26q209 0 209 -212v-205q0 -11 2.5 -33.5t2.5 -33.5q0 -12 -8.5 -21.5t-39.5 -9.5h-150q-128 0 -170 78q-16 31 -16 69q0 127 149 179q33 11 44 14q6 2 6 11q0 29 -39 29q-33 0 -49 -25t-31 -25h-1q-31 3 -52 28zM77 360
l1 1q26 49 80 49q32 0 52 -19q17 -17 17 -40q0 -31 -27 -39q-83 -27 -117 -52q-55 -41 -55 -113q0 -117 156 -117h150q18 0 18 1q0 12 -2.5 34t-2.5 33v205q0 94 -42 138t-137 44q-128 0 -129 -89q7 -29 38 -36zM198 131q4 3 4 16v43q0 13 -2 18h-5q-18 -3 -22 -31
q0 -17 4 -29q5 -16 21 -17zM163 114q-20 19 -20 64v1q8 59 52 59q37 0 37 -48v-43q0 -37 -29 -46h-2q-24 0 -38 13z" />
    <glyph glyph-name="b" unicode="b" horiz-adv-x="449" 
d="M171 265q0 -92 20 -92q3 0 5 2q29 17 29 109q0 83 -24 104q-5 3 -9 3q-3 0 -6 -2q-15 -12 -15 -98v-26zM141 265v26q0 106 31 125q10 5 20 5q14 0 27 -9q36 -30 36 -128q0 -111 -45 -136q-12 -5 -19 -5q-50 0 -50 122zM181 497q50 18 71 18q81 0 120 -79q31 -60 31 -149
q0 -107 -44 -185q-52 -93 -150 -101q-40 -3 -100 -3q-72 0 -86 6q-28 14 -28 160q0 152 11 328q3 61 6 85q6 61 15 74.5t34 13.5h90q43 0 43 -33q0 -22 -6 -60q-7 -49 -8 -60q0 -9 1 -15zM151 635l-80 -1q-10 -4 -21 -9q-11 -17 -19 -220q-6 -149 -6 -241q0 -107 8 -119
q4 -8 20 -15q153 -1 94 -2q69 1 99 10q65 21 99 104q28 66 28 145q0 75 -23 127q-31 71 -98 71q-19 0 -42.5 -9.5t-32.5 -9.5q-25 0 -25 34q4 41 12 119q-5 8 -13 16z" />
    <glyph glyph-name="c" unicode="c" horiz-adv-x="432" 
d="M254 389q-37 0 -58 -49q-16 -37 -16 -78q0 -89 55 -108q12 -2 25 -2q31 0 49 16q9 7 23 29q10 16 20 16q16 0 27 -26q8 -21 8 -38q0 -74 -58 -116q-52 -37 -129 -37q-99 0 -152 73q-47 64 -47 168q0 123 58 201q65 90 184 90q52 0 93 -30q46 -33 46 -83q0 -24 -13 -49
q-16 -29 -38 -29q-13 0 -30 26t-47 26zM333 369l4 3q15 11 15 43q0 38 -37 62q-33 21 -72 21q-106 0 -163 -81q-49 -70 -49 -180q0 -91 39 -147q44 -64 130 -64q65 0 107 29q50 32 50 94q0 14 -5 24q-30 -51 -92 -51q-16 0 -33 4q-77 25 -77 136q0 55 24 100q29 57 80 57
q45 0 75 -44z" />
    <glyph glyph-name="d" unicode="d" horiz-adv-x="476" 
d="M232 -1q-171 0 -213 150q-14 48 -14 102q0 100 38 173q48 90 138 90h1q6 -1 21 -4.5t23 -3.5q4 4 4 23q-1 12 -8 51q-6 33 -6 52q0 33 44 33h89q25 0 35 -15q6 -10 11 -39q12 -81 18 -306q2 -70 2 -122q0 -85 -1 -93q-4 -76 -26 -86q-9 -4 -31 -4zM246 634v-2
q-1 -19 5 -51q8 -39 9 -51q0 -54 -34 -54q-9 0 -23 3q-17 4 -23 5q-57 0 -93 -50q-52 -73 -52 -183q0 -71 24 -125q30 -68 88 -86q34 -11 85 -11h24l101 1q15 0 18 1q10 15 10 152q0 178 -13 346q-2 45 -14 105q-3 1 -9 1h-89q-9 0 -14 -1zM208 158q3 -1 5 -1q30 0 30 148
q0 46 -2.5 66t-7.5 26q-2 0 -4 1q-24 0 -37 -70q-9 -48 -9 -94q0 -65 25 -76zM196 131q-43 18 -43 103q0 64 13 114q19 80 63 80q5 0 15 -3q21 -11 26 -51q3 -31 3 -69q0 -71 -4 -100q-13 -78 -56 -78q-8 0 -17 4z" />
    <glyph glyph-name="e" unicode="e" horiz-adv-x="468" 
d="M411 168q0 -72 -49 -121.5t-121 -50.5q-113 0 -178 71q-62 68 -62 185q0 112 59 190q65 87 175 87q75 0 121 -38q49 -41 49 -116q0 -110 -149 -162q-28 -9 -34 -12q-24 -11 -27 -22q1 -20 25 -32q20 -9 42 -9q44 0 67 18q14 12 41 55q8 13 18 13q23 0 23 -56zM381 168
q-37 -60 -119 -60q-36 0 -64 18q-33 20 -33 55v1q7 29 52 48.5t89 38.5q51 29 66 77q3 11 3 29q0 62 -38.5 93t-101.5 31q-97 0 -153 -78q-51 -70 -51 -169q0 -104 54.5 -165t155.5 -61q60 1 100 42t40 100zM236 376q0 16 -16 16q-20 0 -33 -21t-13 -42q0 -7 1 -11h2
q12 0 30 13.5t25 25.5q4 11 4 19zM266 376q0 -15 -7 -32q-11 -20 -36 -38t-46 -18q-10 0 -19 4q-14 10 -14 37q0 34 21.5 63.5t54.5 29.5q46 0 46 -46z" />
    <glyph glyph-name="f" unicode="f" horiz-adv-x="373" 
d="M255 100q12 -73 12 -69q0 -31 -40 -31h-98q-35 0 -45 22q-4 8 -10 54q-9 61 -9 188q0 -2 2 38q1 32 0 52q-1 28 -6 34q-7 0 -17.5 -5t-17.5 -5q-21 0 -21 38v27q0 57 30 57q27 0 36 2q5 5 17 52.5t36 72.5q36 38 106 38q97 0 97 -49v-1l-8 -50q-9 -34 -29 -34
q-3 0 -9.5 1t-9.5 1q-18 -4 -18 -31q3 -2 5 -2h22q43 0 43 -45q0 -25 -9 -46q-11 -27 -32 -27h-2q-6 1 -18 4l-5 1q-18 0 -18 -55q0 -133 16 -232zM287 561q1 6 10 56q-1 18 -67 18q-97 0 -118 -106q-8 -40 -21.5 -49.5t-53.5 -9.5q-2 -8 -2 -27v-30q12 4 29 4h2
q33 -7 33 -83q0 -17 -2 -41t-2 -29q0 -206 17 -233q5 -1 17 -1h98q6 0 10 1q0 12 -4 32q-7 28 -7 32q-17 101 -17 237q0 85 47 85q3 0 6 -1l5 -1q5 0 16 -2q10 13 10 42q0 8 -4 14q-3 1 -9 1h-22q-31 0 -35 29v2q0 54 45 62h1q7 0 18 -2z" />
    <glyph glyph-name="g" unicode="g" horiz-adv-x="463" 
d="M402 474q-2 -1 -25 -7h-2v0q-9 -2 -18 -7q-1 -1 -2 -3l20.5 -46t20.5 -88q0 -64 -39.5 -106t-106.5 -55q-87 -18 -87 -46q0 -5 2 -7h6q20 0 74 18.5t81 18.5q25 0 53.5 -17t28.5 -40q0 -19 -15 -57t-27 -49t-20 -11q-13 0 -45 23q-9 3 -20 3q-20 0 -81 -18t-92 -18
q-119 0 -119 129v1q4 39 47 75l25 22q2 3 2 6q0 2 -2 6l-11 18q-36 58 -36 117q0 85 48.5 131t134.5 46q7 0 23 -2t24 -2q17 0 46.5 35t48.5 35q11 0 24 -9q30 -22 42 -44t12 -31v-1q-2 -15 -15 -20zM345 4l1 1q8 6 20 39.5t12 45.5q-5 11 -21.5 18.5t-30.5 7.5
q-26 0 -77.5 -18.5t-77.5 -18.5q-38 0 -38 37q0 8 3 15q13 33 58 46.5t88 25.5q51 20 72 64q12 25 12 56q0 41 -20.5 82.5t-20.5 51.5q0 28 41 38q9 2 24 6q-1 -1 -1.5 -2t-1.5 -2v-2q0 3 -8 18q-19 28 -40 37q-9 -6 -43 -43q-25 -28 -52 -28q-8 0 -24 2t-24 2
q-152 0 -152 -147q0 -51 31 -101l12 -19q6 -12 6 -21q0 -15 -12 -28l-26 -22q-33 -29 -36 -55q0 -98 89 -98q30 0 89 18t84 18q17 0 34 -6q9 -5 28 -17zM192 306q3 -1 6 -1q13 0 21.5 12.5t8.5 25.5q1 54 -18 54q-15 0 -22 -17q-9 -21 -9 -38q2 -29 13 -36zM177 280
q-27 17 -27 64q0 30 12 53.5t33 27.5q10 2 15 2q23 0 36 -21t13 -51q0 -32 -16 -56t-45 -24q-12 0 -21 5z" />
    <glyph glyph-name="h" unicode="h" horiz-adv-x="458" 
d="M179 490q35 25 84 25q60 0 97 -44q33 -39 40 -101q6 -51 6 -113v-28q0 -210 -30 -224q-9 -5 -30 -5h-98q-41 0 -41 30q0 13 5 35q7 29 8 34q11 68 11 162q0 121 -23 121q-34 0 -34 -121q0 -129 16 -199q5 -23 5 -32q0 -30 -40 -30h-99q-35 0 -45 21q-3 8 -9 54
q-4 34 -4 119q0 152 13 328q3 48 5 67q6 51 14.5 63.5t33.5 12.5h90q41 0 41 -32q0 -23 -7 -69q-8 -64 -9 -69v-5zM165 634q-5 1 -11 1h-90q-6 0 -10 -1q-12 -35 -20 -212q-6 -131 -6 -228q0 -145 11 -163q5 -1 17 -1h99q6 0 10 1q-4 21 -12 64q-9 55 -9 166q0 151 64 151
q38 0 49 -62q4 -25 4 -89q0 -121 -19 -205q-4 -17 -5 -25h1q3 -1 10 -1h98q13 0 16 1q14 21 14 198v28q0 100 -13 144q-25 84 -100 84q-33 0 -59.5 -16t-33.5 -16q-21 0 -21 43q1 4 9 69q7 47 7 68v1z" />
    <glyph glyph-name="i" unicode="i" horiz-adv-x="261" 
d="M109 711q38 0 64 -21t26 -58q0 -41 -24.5 -64t-64.5 -23q-92 0 -91 85q0 37 28 60q25 21 62 21zM109 681q-59 0 -60 -51q0 -55 61 -55q59 0 59 57q0 49 -60 49zM153 512q43 0 43 -36q0 -6 -4 -33q-9 -71 -9 -147q0 -121 24 -232q5 -23 5 -32q0 -30 -41 -30h-98
q-36 0 -46 22q-2 6 -9 54q-9 58 -9 192q0 201 20 229q9 13 34 13h90zM182 33q-5 22 -12 64q-17 108 -17 199q0 78 9 151q4 24 4 29q0 3 -1 5h-1q-4 1 -11 1h-90q-6 0 -9 -1q-15 -39 -15 -211q0 -211 16 -236q6 -2 18 -2h98q6 0 11 1z" />
    <glyph glyph-name="j" unicode="j" horiz-adv-x="316" 
d="M103 480v-2q0 -7 4 -32q14 -86 14 -181v-20q0 -130 -46 -130q-17 0 -25 16q-10 -39 -16 -73q0 -34 70 -34q63 0 92 36q25 31 32 97q4 42 4 85v19q0 194 -17 219h-8h-90h-14zM77 146q14 9 14 99v20q0 93 -14 176q-4 27 -4 37q0 32 44 32h90q24 0 34 -14q7 -10 11 -39
q10 -76 10 -196v-19q0 -115 -23 -168q-36 -80 -135 -80q-100 0 -100 65v1q14 89 28 104q7 7 16 7q13 0 19 -8q1 -1 10 -17zM146 709q38 0 64 -21.5t26 -58.5q0 -40 -24.5 -62.5t-64.5 -22.5q-92 0 -91 84q0 37 26 59t64 22zM146 679q-60 0 -60 -51q-1 -54 61 -54q59 0 59 55
q0 50 -60 50z" />
    <glyph glyph-name="k" unicode="k" horiz-adv-x="455" 
d="M186 191l-1 -2q-3 -8 -3 -20q0 -39 14 -109q5 -23 5 -31q0 -29 -40 -29h-99q-35 0 -45 22q-4 8 -10 54q-2 20 -2 86q0 153 10 330q3 58 5 83q6 64 15 77t34 13h91q43 0 43 -32q0 2 -13 -103q-10 -75 -10 -146q6 13 12 37l6 25q8 34 10 38q9 16 34 16h106q37 0 37 -36v-1
q-11 -63 -75 -167q-5 -9 -6 -13q1 -3 7 -11l19 -22q83 -90 86 -207q1 -35 -31 -42q-8 -2 -61 -2h-60q-36 6 -39 34q-15 141 -39 158zM160 635h-91q-3 0 -8 -4l-5 -4q-21 -58 -21 -465q0 -114 10 -131q5 -1 17 -1h99h10q-4 21 -11 61q-8 48 -8 78q0 53 33 53q22 0 37 -34
q21 -48 32 -151l3 -6q6 -2 67 -2q55 0 62 4q1 7 1 15q0 72 -57 154q-13 18 -43 51q-13 19 -13 30q0 12 24 53q32 54 32 55q18 37 25 74q0 1 -2 3t-5 2h-106h-7q-1 -1 -8 -31l-6 -25q-8 -30 -13 -42q-10 -24 -27 -32h-4q-27 0 -27 34q0 95 19 226q1 10 3 14.5t2 6.5
q-1 12 -2 13t-12 1z" />
    <glyph glyph-name="l" unicode="l" horiz-adv-x="254" 
d="M157 665q43 0 43 -38q0 -21 -6 -60q-7 -48 -8 -61q-10 -116 -10 -237q0 -133 17 -207q5 -23 5 -32q0 -30 -40 -30h-99q-35 0 -45 22q-3 5 -10 54q-3 22 -3 88q0 153 11 329q3 60 6 84q6 61 15 74.5t33 13.5h91zM168 31q-4 21 -12 64q-10 63 -10 174q0 198 20 331
q4 25 4 32v2q-5 1 -13 1h-91h-8q-12 -18 -21 -225q-6 -158 -6 -246q0 -115 11 -132q5 -2 17 -2h99q6 0 10 1z" />
    <glyph glyph-name="m" unicode="m" horiz-adv-x="693" 
d="M618 26q-7 -28 -47 -28h-98q-41 0 -41 30q0 13 5 35q8 30 8 34q13 73 13 166q0 103 -26 103q-17 0 -17 -49q0 -9 1 -27t1 -27q0 -163 -18 -237q-7 -28 -48 -28h-98q-41 0 -41 30q0 13 6 35q6 28 7 34q11 65 11 150q0 109 -23 109q-27 0 -27 -151q0 -64 18 -145
q5 -23 5 -32q0 -30 -41 -30h-98q-35 0 -45 22q-4 9 -10 54q-9 68 -9 198q0 201 21 230q9 12 34 12h105q30 0 30 -32q0 -8 -3 -21v-2q18 17 35 34q22 20 47 20q26 0 56.5 -14l30.5 -14q7 0 27 10q37 18 85 18q163 0 162 -236q-1 -184 -18 -251zM179 29l-12 63q-11 62 -11 113
q0 73 4 99q11 82 53 82q53 0 53 -139q0 -113 -19 -193q-4 -18 -5 -25l1 -1h10h98q13 0 17 1q8 13 14 115q5 79 5 119q0 9 -1 27t-1 27q0 79 47 79q54 0 55 -122q1 -129 -20 -220q-4 -18 -5 -25l1 -1h10h98q13 0 17 1q8 13 14 121q4 79 4 127q1 206 -132 206q-30 0 -65 -14
t-47 -14q-10 0 -36.5 14t-50.5 14q-32 0 -58.5 -27t-35.5 -27q-20 0 -20 20v1q5 34 5 32v2h-105q-7 0 -10 -1q-15 -40 -15 -211q0 -215 17 -243q5 -1 17 -1h98q6 0 11 1z" />
    <glyph glyph-name="n" unicode="n" horiz-adv-x="475" 
d="M394 31q-7 -28 -47 -28h-98q-41 0 -41 30q0 16 6 43q8 34 10 44q7 57 7 132q0 108 -22 108q-3 0 -6 -2q-21 -16 -21 -148q0 -40 21 -163q1 -9 1 -14q0 -30 -40 -30h-98q-35 0 -45 22q-4 8 -10 54q-9 66 -9 231q0 184 22 201q9 7 33 7h104q31 0 31 -33q0 -8 -2 -22
q18 18 36 35q23 20 49 20q45 0 80 -30t46 -74t11 -132q0 -177 -18 -251zM174 33q-4 22 -11 64q-11 66 -11 113q0 180 57 180q52 0 52 -138q0 -113 -18 -193q-4 -18 -5 -26h1h10h98q13 0 16 1q9 13 15 121q4 83 4 127q0 79 -7 110q-13 63 -60 86q-19 10 -40 10
q-34 0 -62 -27.5t-36 -27.5q-24 0 -19 27l2 9q1 6 3 19h-2h-104h-10q-15 -21 -15 -178q0 -248 17 -276q5 -1 17 -1h98h10z" />
    <glyph glyph-name="o" unicode="o" horiz-adv-x="487" 
d="M221 528q109 0 166 -81q51 -71 51 -187q0 -85 -32 -150q-37 -78 -108 -102q-34 -12 -75 -12q-114 0 -170 81q-48 69 -48 188q0 110 52 182q59 81 164 81zM220 497q-92 0 -142 -72q-43 -63 -43 -160q0 -239 188 -239q77 0 119 42q36 36 57 115q9 30 9 77q0 103 -43 165
q-49 72 -145 72zM215 170q52 1 52 115q0 31 -8 58q-11 38 -34 38q-45 0 -45 -100t35 -111zM210 140q-60 14 -60 141q0 130 75 130q39 0 58 -46q14 -34 14 -80q0 -145 -84 -145h-2h-1z" />
    <glyph glyph-name="p" unicode="p" horiz-adv-x="456" 
d="M411 342q0 -115 -96 -202q-44 -40 -79 -40q-23 0 -49 31q2 -13 10 -54q6 -32 6 -49q0 -32 -40 -32h-98q-35 0 -45 22q-4 8 -10 54q-8 61 -8 197q0 222 30 237q8 4 24 4h140q215 0 215 -168zM367 410q-40 70 -171 70h-134q-8 0 -20 -8q-10 -14 -10 -203q0 -216 16 -242
q5 -1 17 -1h98q11 0 10 -1v3l-11 66q-7 38 -7 54v2q2 10 20 10q12 0 31.5 -15t29.5 -15q27 0 67 40q33 32 51 64q27 49 27 108q0 41 -14 68zM182 279q-2 -40 3 -42q10 1 25 15q30 28 30 87q-6 34 -28 34q-26 0 -30 -94zM152 280q3 56 9 77q13 46 51 46q48 0 58 -62v-1
q0 -72 -39 -109q-26 -25 -48 -25h-2q-24 6 -29 30q-1 9 0 44z" />
    <glyph glyph-name="q" unicode="q" horiz-adv-x="472" 
d="M228 133q-27 -32 -49 -32q-37 0 -84 43q-38 36 -61 76q-31 56 -31 123q0 168 215 168h141q26 0 35 -15q6 -9 9 -38q9 -66 9 -189q0 -180 -15 -244q-8 -28 -48 -28h-98q-40 0 -40 30q0 12 6 43q8 38 9 46.5t2 16.5zM241 27v0h10h98q13 0 17 1q16 26 16 241q0 165 -12 199
l-4 6.5t-7 6.5h-141q-185 0 -185 -138q0 -59 30 -111.5t79 -86.5q22 -14 37 -14q9 0 29 19t33 19q14 0 18 -18v-2q0 -37 -14 -98q-4 -16 -4 -24zM202 374q-21 0 -27 -34q0 -60 30 -88q15 -13 24 -15q5 3 1 74q-1 22 -3 32q-4 21 -15 28q-6 3 -10 3zM202 404q11 0 25 -7
q24 -15 30 -52q3 -12 5 -64q1 -35 0 -44q-5 -24 -29 -30h-2q-22 0 -48 25q-38 36 -38 109v1q10 62 57 62z" />
    <glyph glyph-name="r" unicode="r" horiz-adv-x="375" 
d="M176 472q37 44 76 44t63.5 -27t24.5 -66q0 -65 -59 -99q-9 -4 -17 -4q-23 0 -23 29q0 25 -23 25q-45 0 -45 -117q0 -60 28 -209q2 -9 2 -16q0 -30 -42 -30h-98q-35 0 -45 21q-3 6 -10 55q-8 57 -8 191q0 202 20 230q9 12 34 12h89q28 0 33 -39zM271 353q13 8 20 16
q19 20 19 54q0 27 -15.5 45t-42.5 18h-9q-19 -6 -40 -29.5t-34 -23.5q-14 0 -16 12t-3 24l-7 12h-89q-3 0 -8.5 -4.5l-5.5 -4.5q-10 -27 -10 -203q0 -211 16 -236q5 -1 17 -1h98h12q0 13 -5 32q-8 30 -8 32q-17 91 -17 161q0 147 75 147q51 0 53 -51z" />
    <glyph glyph-name="s" unicode="s" horiz-adv-x="426" 
d="M210 390q-19 0 -19 -19q0 -16 62 -46.5t88 -58.5q36 -38 37 -97q1 -82 -58 -131q-55 -45 -137 -45q-72 0 -122 38q-55 41 -57 111q-1 22 9 54q12 42 32 42q10 0 23 -24q21 -34 31 -45q22 -26 52 -31q27 0 35 8q5 8 5 25q-5 17 -58 45q-108 57 -111 146q-2 77 50 121
q49 43 129 43q48 0 94 -21q52 -24 69 -63q4 -9 4 -16q0 -19 -27 -55.5t-46 -36.5q-11 0 -33 28t-52 28zM297 366q41 39 41 60q0 1 -1 3q-13 32 -58 51q-39 16 -78 16q-66 0 -107 -34t-42 -99q5 -54 46 -88q8 -8 75 -47q42 -24 48 -54v-1q0 -29 -11 -45q-18 -20 -60 -20h-1
q-67 11 -106 88q-10 -20 -10 -44q0 -32 17 -62.5t44 -45.5q35 -21 89 -21q70 0 115 36q51 40 50 110q-1 57 -49 94q-4 3 -90 50q-48 26 -48 58q0 22 13.5 35.5t35.5 13.5q51 0 86 -52z" />
    <glyph glyph-name="t" unicode="t" horiz-adv-x="337" 
d="M236 379q-4 -13 -4 -98q0 -113 36 -190q8 -16 8 -26q0 -28 -58 -62q-53 -32 -84 -32q-50 0 -73 88q-16 60 -16 133q0 80 17 163q2 6 2 15q0 6 -2 9q-1 0 -19 -9q-11 -6 -20 -6q-24 0 -24 37q0 32 9 65q13 45 36 45q5 0 14.5 -2.5t14.5 -2.5q8 2 10 28q1 30 14 39
q19 13 63 28q34 11 67 22l16 6q4 2 8 2q7 0 21 -24v-4q0 -16 -9 -46.5t-9 -45.5q0 -7 2.5 -8.5t7.5 -1.5q17 3 22 3q29 0 29 -30q0 -35 -8 -63q-11 -42 -36 -42q-7 0 -17 4zM235 595q-72 -14 -121 -48q-3 -22 -6 -43q-5 -24 -33 -28h-1q-2 0 -28 5v-1q-17 -44 -17 -79v-4
q24 11 38 11h1q26 -6 26 -38q0 -12 -2 -21q-17 -80 -17 -157q0 -54 12 -111q17 -80 47 -80q20 0 62.5 24t49.5 40q0 -7 -20 50q-24 70 -24 166q0 69 0 66q3 50 20 59q6 3 13 3t20.5 -5t15.5 -5q5 6 10 35q5 26 5 40q-3 0 -19 -3h-1q-42 0 -42 40q0 7 9 36.5t9 38.5
q0 10 -7 9z" />
    <glyph glyph-name="u" unicode="u" horiz-adv-x="478" 
d="M236 31q-38 -25 -42 -27q-20 -9 -49 -9q-64 0 -100 52q-30 43 -34 111q-2 60 -2 76q0 182 18 249q7 28 46 28h89q38 0 38 -32q0 -6 -10 -67q-4 -27 -4 -148q0 -111 26 -111q4 0 6 2q20 16 20 140q0 132 -8 182v1q0 33 36 33h89q35 0 45 -21q4 -9 10 -55q9 -77 9 -239
q0 -157 -21 -179q-10 -11 -61 -17l-52 -4h-1q-23 0 -32 8q-8 14 -16 27zM170 481h-8h-89q-12 0 -16 -1q-9 -14 -14 -120q-4 -78 -4 -126q0 -80 6 -112q14 -64 60 -87q19 -10 40 -10q30 0 56 18.5t36 18.5q14 0 21.5 -12t13.5 -23q3 -1 11 -1q31 1 91 11q1 0 3 1
q12 26 12 158q0 256 -17 284q-5 1 -17 1h-89q-2 0 -6 -2q8 -51 8 -184q0 -172 -56 -172t-56 141q0 127 10 188q4 22 4 27v2z" />
    <glyph glyph-name="v" unicode="v" horiz-adv-x="458" 
d="M209 232q26 35 21 242q-1 37 36 37h103q20 0 29 -12t9 -62q0 -132 -37 -243q-47 -140 -141 -192q-14 -7 -26 -7q-17 0 -38 13q-83 51 -125 170q-34 95 -35 213q-2 109 26 118q7 2 17 2h112q28 0 28 -38q0 -7 -1 -19t-1 -15q-2 -44 3 -107q6 -83 20 -100zM260 481
q2 -30 3 -83q-3 -197 -54 -197q-25 0 -37 41q-4 15 -10 59q-4 35 -4 90q0 71 -1 90h-109h-7q-8 -15 -6 -89q1 -110 32 -202q41 -117 119 -160q10 -5 17 -5q14 0 42 25q21 18 34 35q98 124 98 352q0 33 -2 43q-2 1 -6 1h-103h-6z" />
    <glyph glyph-name="w" unicode="w" horiz-adv-x="640" 
d="M304 132q-68 -137 -108 -137q-45 0 -99 78q-43 61 -62 117q-34 103 -34 213q0 96 31 106q8 2 24 2h105q33 0 33 -27q0 -15 -6 -46.5t-6 -50.5q0 -30 7 -74q8 -54 21 -68q18 29 18 109q0 61 -7 114q0 2 -1 6t-1 6q0 31 41 31h85q46 0 46 -29q0 -6 -2 -14q-7 -31 -7 -76
q0 -122 19 -148q21 30 21 138q0 49 -5 90v1q0 38 34 38h97q31 0 37 -25q2 -20 2 -57q0 -241 -121 -386q-34 -41 -66 -48h-1q-32 0 -59 54q-17 41 -35 81zM164 481h-3h-105q-11 0 -15 -1q-10 -8 -10 -77q0 -232 130 -358q22 -20 35 -20h2q22 11 56 79q30 63 53 63h1
q19 -3 46 -71.5t43 -70.5q38 11 85 93q40 69 53 121q22 83 22 190q0 43 -2 52h-7h-97h-2q-1 -1 -2 -7q5 -42 5 -92q0 -169 -51 -169q-49 0 -49 179q0 19 9 87q-5 2 -16 2h-85q-10 0 -11 -1q0 1 2 -9q7 -46 7 -117q0 -140 -47 -140q-32 0 -48 71q-11 49 -11 102q0 8 12 94z
" />
    <glyph glyph-name="x" unicode="x" horiz-adv-x="473" 
d="M222 374q24 26 24 105q0 34 31 34h108q25 0 30 -25q2 -16 2 -24q0 -55 -23 -101q-9 -17 -56 -85q-2 -3 -3 -5l4 -8t14 -19q70 -77 70 -186q0 -7 2 -20q1 -11 0 -21q-8 -18 -19 -20q3 0 -21 0h-110q-32 0 -35 61q-2 71 -19 83q-1 1 -2 1q-20 -10 -28 -70.5t-23 -68.5
q-5 -3 -40 -3h-104q-26 16 -24 50q3 54 34 110q30 48 60 95l2 4q-3 10 -17 26.5t-18 22.5q-12 22 -25 63q-17 53 -17 88q0 52 39 52h114q30 0 30 -31q0 -82 20 -108zM45 29l92 -1q10 0 17 12l14 74q15 60 51 60q35 0 47 -59l8 -86h1h110q8 0 8 31q0 98 -62 166
q-25 28 -25 52v2q2 9 22 36q26 35 26 36q33 51 33 112q0 6 -1 19h-1l-96 -1h-13q0 -1 -1 -17q-2 -42 -7 -64q-9 -37 -33 -55q-7 -5 -14 -5q-25 0 -24.5 71t-24.5 71h-114l-8 -12q-3 -8 -3 -19q0 -35 40 -127q3 -5 23 -31q16 -21 16 -33t-48 -84t-48 -125v-17q2 -6 15 -6z
" />
    <glyph glyph-name="y" unicode="y" horiz-adv-x="451" 
d="M223 317h4q-1 -1 -4 -1q16 19 16 94q0 14 -4.5 37.5t-4.5 34.5q0 28 39 28h89q38 0 46 -20q4 -10 4 -58q0 -133 -66 -252q-72 -129 -190 -172q-68 -25 -114 -25q-33 0 -33 37v81q3 28 34 28h1q6 -1 18 -1q19 0 43 8q30 11 30 27q0 5 -25 28q-31 27 -32 28q-72 79 -69 238
q0 53 37 53h118q35 0 35 -34q0 -7 -1.5 -20t-1.5 -20q0 -24 8 -61q10 -46 23 -58zM164 480h-4h-118q-7 0 -7 -23q-3 -173 85 -241q41 -32 41 -53q0 -31 -38 -50q-31 -15 -65 -15q-4 0 -12 1h-11v0v-79v-7h3q53 0 113.5 27t97.5 65q61 64 95 151t34 176q0 33 -3 47h-1
q-5 1 -16 1h-89h-9q1 -12 5 -34q4 -18 4 -36q0 -123 -42 -123h-6q-29 0 -46 66q-13 47 -13 83q0 7 1.5 20t1.5 20q0 2 -1 4z" />
    <glyph glyph-name="z" unicode="z" horiz-adv-x="423" 
d="M169 402q-31 -5 -93 -32l-11 -2h-2q-18 0 -28 44q-5 34 -11 69v2q0 29 45 29h269q24 0 32 -18q4 -10 4 -37q0 -51 -13 -87q-13 -32 -46 -77q-53 -71 -64 -88q-46 -66 -46 -87q0 -2 1 -3q25 0 66.5 17t50.5 17q16 0 24 -20l25 -105q0 -27 -40 -27h-294q-29 0 -29 54
q0 82 55 186q14 25 105 165zM319 118l-1 -1q-28 -10 -57 -21q-32 -11 -59 -11h-2q-23 6 -25 32q0 38 75 144q81 116 90 146q4 16 4 50q0 16 -2 24q-2 1 -4 1h-269q-9 0 -14 -1l15 -80q77 32 105 32q17 0 25 -12q3 -8 3 -13q0 -10 -17 -33q-147 -200 -147 -324q0 -15 2 -24
h291q2 0 6 5.5t6 5.5q-1 -2 -25 80z" />
    <glyph glyph-name="braceleft" unicode="{" horiz-adv-x="348" 
d="M370 587q-117 -18 -117 -101v-40q1 -27 1 -40q0 -65 -24 -116t-56 -57l-7 -1q90 -25 90 -152q0 -19 -2 -55t-2 -53q0 -53 36 -77q27 -18 84 -25v-76l-15 1q-75 3 -129 29q-69 33 -86 96q-6 26 -6 65q0 16 -1.5 46.5t-1.5 46.5q0 57 -39 75q-8 3 -95 18v112q94 17 107 26
q30 19 30 96q0 94 5 120q14 60 69 94q71 42 159 47v-79zM347 613l1 26q-66 -5 -112 -33q-57 -34 -66 -95q-3 -25 -3 -105t-29 -108q-24 -23 -108 -40v-61q78 -15 100 -29q37 -24 37 -86v-48.5v-48.5q0 -152 183 -160v19q-56 8 -90 39q-37 34 -37 89q0 16 2.5 52.5t2.5 55.5
q0 117 -92 126q-4 1 -6 22t4 22q46 7 70 61q20 43 20 95q0 13 -1 40v40q0 102 124 127z" />
    <glyph glyph-name="bar" unicode="|" horiz-adv-x="174" 
d="M-1 -103v767h111v-767h-111zM29 -73h51v707h-51v-707z" />
    <glyph glyph-name="braceright" unicode="}" horiz-adv-x="401" 
d="M-6 587q118 -18 118 -101q0 -13 -1 -40v-40q0 -65 24 -116t55 -57l8 -1q-90 -25 -90 -152q0 -19 2 -55t2 -53q0 -53 -37 -77q-27 -18 -84 -25v-76l15 1q75 3 129 29q70 33 86 96q7 26 7 65q0 16 1 46.5t1 46.5q0 57 39 75q9 3 96 18v112q-94 17 -107 26q-30 19 -30 96
q0 94 -6 120q-13 60 -69 94q-71 42 -159 47v-79zM17 613v26q65 -5 112 -33q57 -34 65 -95q4 -25 4 -105t29 -108q23 -23 108 -40v-61q-78 -15 -100 -29q-38 -24 -38 -86q0 -16 1 -48v-49q0 -152 -184 -160v19q57 8 90 39q38 34 38 89q0 16 -2.5 52.5t-2.5 55.5q0 117 91 126
q5 1 7 22q1 21 -5 22q-45 7 -70 61q-19 43 -19 95v40q1 27 1 40q0 102 -125 127z" />
    <glyph glyph-name="asciitilde" unicode="~" horiz-adv-x="334" 
d="M358 800q0 -26 -11 -57q-13 -37 -30.5 -47.5t-41.5 -10.5q-26 0 -78.5 23.5t-78.5 23.5q-22 0 -41.5 -16.5t-27.5 -16.5q-18 0 -18 21q0 26 12 57q12 37 31 48q16 10 43 10q35 0 90.5 -23.5t64.5 -23.5q22 0 41.5 16.5t27.5 16.5q17 0 17 -21zM324 775q-18 -14 -55 -14
q-16 0 -67.5 22t-84.5 22q-39 0 -49 -46l-3 -14q24 17 53 17q24 0 73 -17q37 -12 73 -24q7 -3 8 -4.5t3 -1.5q23 0 33 12q8 9 13 34z" />
    <glyph glyph-name="Adieresis" unicode="&#xc4;" horiz-adv-x="584" 
d="M334 191q0 11 -2 18q-5 8 -25 11q-41 0 -71 -14q-41 -17 -41 -53q0 -26 21 -73.5t21 -56.5q0 -23 -31 -23h-128q-41 0 -55 27q-28 54 -28 144q0 145 52 272q58 142 166 218q38 26 64 26q45 0 107 -64q48 -50 78 -103q70 -127 70 -336q0 -168 -57 -181q-14 -3 -57 -3h-84
q-40 0 -40 24q0 4 3 13q37 107 37 154zM326 30h8h84q54 0 61 11q23 33 23 143q0 321 -179 453q-28 20 -46 20q-34 0 -96 -63q-49 -51 -75 -94q-36 -62 -60 -160q-21 -91 -21 -169q0 -33 7 -75q9 -57 25 -64q5 -2 21 -2h125q-38 81 -38 123q0 50 49 76q40 21 95 21h1
q38 -6 49 -29q5 -13 5 -30q0 -51 -38 -161zM213 370q1 0 4 -1q30 4 48 4q20 0 51 -4q2 4 2 11q0 15 -17 58t-28 43q-13 0 -37 -46q-21 -42 -23 -60v-5zM184 362q-2 7 -1 14q1 26 25 71t45 58q9 6 20 6q31 0 57 -66q18 -45 18 -65q0 -41 -33 -41h-1q-30 4 -49 4q-17 0 -47 -4
h-1q-26 0 -33 23zM198 812q62 0 62 -61q-5 -52 -64 -52q-36 0 -52 25q-9 15 -9 31q0 27 18 42t45 15zM198 788q-39 0 -39 -36q0 -17 17 -26q6 -3 20 -3q37 0 40 29q-1 36 -38 36zM360 812q64 0 62 -61q-2 -52 -65 -52q-35 0 -51 26q-9 13 -9 30q0 43 39 54q11 3 24 3z
M360 788q-40 0 -39 -36q0 -17 17 -26q6 -3 19 -3q40 0 41 29q1 27 -18 34q-8 2 -20 2z" />
    <glyph glyph-name="Aring" unicode="&#xc5;" horiz-adv-x="588" 
d="M532 177q0 -167 -57 -180q-14 -3 -57 -3h-84q-40 0 -40 24q0 3 3 12q37 108 37 155q0 10 -2 17q-5 8 -25 12q-41 -1 -71 -14q-41 -18 -41 -53q0 -27 21 -74.5t21 -56.5q0 -22 -31 -22h-128q-41 0 -55 27q-28 53 -28 144q0 145 52 272q58 142 166 217q38 27 64 27
q45 0 107 -64q48 -50 78 -104q70 -126 70 -336zM502 177q0 322 -179 454q-28 20 -46 20q-34 0 -96 -63q-49 -51 -75 -95q-36 -62 -60 -159q-21 -91 -21 -169q0 -34 7 -76q9 -57 25 -63q5 -2 21 -2h125q-38 79 -38 123q0 50 49 76q40 21 95 21h1q38 -6 49 -29q5 -13 5 -30
q0 -52 -38 -161h8h84q54 0 61 11q23 33 23 142zM348 374q0 -42 -33 -42h-1q-30 4 -49 4q-17 0 -46 -4h-1q-27 0 -34 23q-1 6 -1 15q2 26 25.5 71t44.5 58q9 5 20 5q31 0 57 -66q18 -45 18 -64zM318 374q0 15 -17 57.5t-28 42.5q-13 0 -37 -46q-21 -42 -23 -60v-4q1 -1 4 -2
q30 4 48 4q20 0 51 -4q2 5 2 12zM359 741q-28 -41 -75 -41q-37 0 -63 26q-29 28 -27 73q1 38 28.5 62t62.5 24q40 0 64.5 -29.5t24.5 -70.5q-3 -25 -15 -44zM214 794q0 -29 19 -52t47 -23q17 0 35 9q35 18 39 58q0 33 -20.5 56.5t-49.5 23.5q-25 0 -47.5 -20t-22.5 -52z
M235 794q0 22 15.5 36t33.5 14q21 0 35.5 -16t14.5 -39q0 -21 -16 -34.5t-35 -13.5q-23 0 -35.5 17t-12.5 36zM255 794q0 -33 27 -33q13 0 22.5 9t9.5 21q0 13 -8.5 23t-20.5 10q-30 0 -30 -30z" />
    <glyph glyph-name="Ccedilla" unicode="&#xc7;" horiz-adv-x="531" 
d="M492 168q0 -79 -53 -129q-49 -46 -127 -53q3 -4 1 -36q-1 -36 -26 -60t-56 -24q-25 0 -72 25q-50 27 -50 48q0 19 25 19q43 0 71 30q-106 29 -158 135q-44 88 -44 212q0 139 65 233q74 106 207 106q75 0 125 -22q68 -31 68 -97q0 -46 -36 -81.5t-82 -35.5q-21 0 -32 11
q-6 8 -6 15q0 5 3.5 15t3.5 16q0 26 -27 26q-50 0 -76 -65q-19 -48 -19 -107q0 -77 30 -124q35 -58 107 -58q81 0 101 70q8 26 23 26q18 0 27 -39q7 -28 7 -56zM462 168q0 16 -6 45q-5 -15 -9 -21q-6 -12 -18 -22q-37 -33 -95 -33q-85 0 -129 66q-38 57 -38 146q0 73 26 129
q34 73 99 73q25 0 41 -15t16 -41q0 -13 -4 -24l-1 -2q2 -1 6 -1q34 0 61 26.5t27 60.5q0 89 -163 89q-120 0 -185 -98q-57 -85 -57 -211q0 -112 28 -175q23 -54 89 -115q39 -36 81 -36q7 0 8 2q-7 -40 -30 -59q-16 -14 -39 -17h-22q51 -37 83 -39q43 -4 55 46q3 14 4 65
q77 7 122 46q50 42 50 115z" />
    <glyph glyph-name="Eacute" unicode="&#xc9;" horiz-adv-x="510" 
d="M209 437q11 1 43.5 11t57.5 10q44 0 72 -18q12 -10 12 -21q0 -4 -3 -16l-37 -102q-10 -27 -25 -27q-11 0 -22 13q-16 16 -41 16q-31 0 -48.5 -23.5t-17.5 -55.5q0 -40 25.5 -67t65.5 -27q34 0 68.5 20.5t37.5 20.5q21 0 50 -65q26 -59 26 -79q0 -25 -46 -25h-347
q-34 0 -48.5 12t-20.5 46q-14 83 -14 305q0 266 43 292q14 10 44 10h341q44 0 44 -26q0 -9 -3 -17q-13 -36 -46 -102q-9 -12 -19 -12q-4 0 -27 9q-26 10 -28 10q-25 7 -52 7q-40 0 -68 -20t-28 -59q0 -15 11 -20zM397 543q7 11 41 93q-5 1 -13 1h-341q-21 0 -28 -5t-12 -25
q-17 -63 -17 -242q0 -310 24 -329q6 -4 29 -4h347h14l-1 3q-13 35 -45 103l-2 -2q-50 -36 -102 -36t-86.5 36t-34.5 88q0 44 26 76.5t70 32.5q34 0 60 -22l37 105q-20 12 -53 12q-20 0 -52.5 -10t-48.5 -10q-9 0 -16 4q-25 11 -25 45q0 51 38 81q35 28 88 28q56 0 103 -23z
M316 744q-92 -41 -164 -56q-16 -3 -32 19q-12 16 -12 27q0 9 9 15q135 103 154 112q8 3 15 3q29 0 60 -42q16 -21 16 -36q0 -22 -46 -42zM292 759q39 18 39 32q0 9 -9 20q-23 31 -37 31q-5 0 -9 -2q-37 -32 -114 -85q-25 -13 -25 -24q0 -4 4.5 -10t16.5 -5q43 3 134 43z" />
    <glyph glyph-name="Ntilde" unicode="&#xd1;" horiz-adv-x="581" 
d="M428 800q0 -26 -11 -57q-13 -37 -30.5 -47.5t-41.5 -10.5q-26 0 -78.5 23.5t-78.5 23.5q-22 0 -41.5 -16.5t-27.5 -16.5q-18 0 -18 21q0 26 12 57q12 37 31 48q16 10 43 10q35 0 90.5 -23.5t64.5 -23.5q22 0 41.5 16.5t27.5 16.5q17 0 17 -21zM526 411q0 -286 -31 -386
q-10 -28 -53 -28h-112q-22 0 -30.5 5.5t-14.5 26.5q-28 113 -76 240q-11 34 -36 81h-28q1 -3 1 -6v6l14 1q0 2 3 2q4 0 11 -7q-3 -19 -3 -41q0 -58 15 -139l26 -136q1 -5 1 -8q0 -25 -37 -25h-115q-32 0 -42 11q-8 8 -13 40q-12 69 -12 202q0 103 10 220q15 168 42 185
q10 7 29 7h95q42 0 64 -22q9 -9 39 -58q36 -57 67 -152q1 16 1 29q0 78 -29 153q-5 15 -5 22q0 28 38 28h115q32 0 42 -11q7 -8 13 -42q11 -66 11 -198zM394 775q-18 -14 -55 -14q-16 0 -67.5 22t-84.5 22q-39 0 -49 -46l-3 -14q24 17 53 17q24 0 73 -17q37 -12 73 -24
q7 -3 8 -4.5t3 -1.5q23 0 33 12q8 9 13 34zM496 411q0 177 -16 219q-5 2 -20 2h-115q-11 0 -9 0q0 1 1 2q0 -1 3 -11q31 -80 31 -164q0 -31 -5 -86q-4 -20 -20 -20q-15 0 -20 20q-34 143 -109 240q-14 19 -47 19h-95q-9 0 -14 -4q-19 -31 -31 -211q-6 -84 -6 -167
q0 -179 17 -222q4 -1 20 -1h115h6q-13 69 -27 138q-14 81 -14 140q0 35 4 50q1 2 3 2q4 0 12 -6l15 1v-2h-30q0 28 21 34h3q24 0 44 -42q3 -6 24 -62q48 -129 77 -244q2 -5 3 -9h13h112q15 0 22 3q14 18 25 190q7 128 7 191z" />
    <glyph glyph-name="Odieresis" unicode="&#xd6;" horiz-adv-x="593" 
d="M273 689q76 0 141 -67q54 -55 87 -137q43 -111 43 -226q0 -94 -32 -160q-41 -82 -124 -95q-35 -5 -88 -5h-92q-71 0 -108 18q-46 22 -74.5 81.5t-28.5 148.5q0 110 42 218q47 118 126 181q53 43 108 43zM273 659q-65 0 -127 -71q-47 -55 -77 -130q-42 -106 -42 -211
q0 -74 22 -129q30 -72 92 -84q27 -5 67 -5h92q77 0 110 12q49 18 76.5 74.5t27.5 143.5q0 107 -38 208q-45 118 -124 167q-41 25 -79 25zM234 181q13 -4 35 -4q41 0 53 11q28 25 28 100q0 49 -20 125q-25 95 -57 95q-24 0 -47 -61q-16 -42 -23 -82q-8 -49 -8 -92
q0 -81 39 -92zM226 152q-61 17 -61 121q0 73 23 155q31 110 85 110q51 0 83 -103q24 -79 24 -147q0 -72 -21 -103q-25 -38 -90 -38q-26 0 -43 5zM188 809q62 0 62 -61q-5 -52 -64 -52q-36 0 -52 25q-9 15 -9 31q0 27 18 42t45 15zM188 785q-39 0 -39 -36q0 -17 17 -26
q6 -3 20 -3q37 0 40 29q-1 36 -38 36zM350 809q64 0 62 -61q-2 -52 -65 -52q-35 0 -51 26q-9 13 -9 30q0 43 39 54q11 3 24 3zM350 785q-40 0 -39 -36q0 -17 17 -26q6 -3 19 -3q40 0 41 29q1 27 -18 34q-8 2 -20 2z" />
    <glyph glyph-name="Udieresis" unicode="&#xdc;" horiz-adv-x="569" 
d="M205 638q-8 -1 -9 -1h-107q-28 0 -32 -3.5t-8 -29.5q-23 -156 -23 -254q0 -288 165 -324q32 -7 66 -7q138 0 191 119q37 83 37 245q0 48 -9 139q-11 110 -23 113q-8 2 -29 2h-107h-9q1 -4 2 -9l24 -115q23 -106 23 -171q0 -174 -96 -174q-100 0 -100 186q0 61 15 143
q14 70 29 141zM484 645q13 -26 23 -127q8 -85 8 -135q0 -175 -45 -267q-61 -127 -213 -127q-225 0 -256 264q-6 46 -6 97q0 98 24 258q6 39 19 49t51 10h107q39 0 39 -25q0 -18 -10 -64l-16 -66q-18 -93 -18 -158q0 -156 70 -156q66 0 66 144q0 61 -22 165l-24 113
q-4 15 -4 22q0 25 40 25h107q49 0 60 -22zM168 812q62 0 62 -61q-5 -52 -64 -52q-36 0 -52 25q-9 15 -9 31q0 27 18 42t45 15zM168 788q-39 0 -39 -36q0 -17 17 -26q6 -3 20 -3q37 0 40 29q-1 36 -38 36zM330 812q64 0 62 -61q-2 -52 -65 -52q-35 0 -51 26q-9 13 -9 30
q0 43 39 54q11 3 24 3zM330 788q-40 0 -39 -36q0 -17 17 -26q6 -3 19 -3q40 0 41 29q1 27 -18 34q-8 2 -20 2z" />
    <glyph glyph-name="aacute" unicode="&#xe1;" horiz-adv-x="437" 
d="M32 368q-12 14 -16 34v2q0 64 50 95q41 26 109 26q209 0 209 -211v-206q0 -11 2.5 -33.5t2.5 -33.5q0 -12 -8.5 -21.5t-39.5 -9.5h-150q-128 0 -169 78q-17 31 -17 69q0 127 150 179q32 11 43 14q6 2 6 11q0 29 -39 29q-33 0 -49 -25t-31 -25h-1q-31 4 -52 28zM84 370
l1 1q26 49 80 49q32 0 52 -19q17 -17 17 -40q0 -31 -27 -39q-83 -27 -117 -52q-55 -41 -55 -113q0 -117 156 -117h150q18 0 18 1q0 12 -2.5 34t-2.5 33v206q0 93 -42 137t-137 44q-128 0 -129 -89q7 -29 38 -36zM205 141q4 3 4 16v43q0 13 -2 18h-4q-19 -3 -23 -31
q0 -17 4 -29q5 -16 21 -17zM170 124q-20 19 -20 64v1q8 59 53 59q36 0 36 -48v-43q0 -37 -28 -46h-3q-24 0 -38 13zM259 604q-74 -33 -131 -45q-13 -2 -25 15q-10 13 -10 22q0 7 7 12q116 89 121.5 91.5t11.5 2.5q24 0 50 -35q13 -18 13 -29q0 -18 -37 -34zM239 616
q32 15 32 25q0 8 -7 17q-16 22 -25 22q-4 0 -8 -2q-32 -24 -95 -65q-20 -11 -20 -19q0 -4 3 -7q4 -6 13 -5q35 2 107 34z" />
    <glyph glyph-name="agrave" unicode="&#xe0;" horiz-adv-x="445" 
d="M34 359q-12 13 -17 34v1q0 64 50 95q42 27 109 27q210 0 210 -212v-206q0 -11 2.5 -33t2.5 -33q0 -13 -8.5 -22.5t-39.5 -9.5h-150q-128 0 -170 79q-16 30 -16 69q0 127 149 178q32 11 44 15q6 1 6 10q0 29 -39 29q-33 0 -49 -25t-31 -25h-1q-31 4 -52 29zM86 361l1 1
q26 48 80 48q32 0 52 -19q17 -17 17 -40q0 -30 -27 -39q-83 -27 -117 -52q-55 -41 -55 -112q0 -118 156 -118h150q18 0 18 2q0 11 -2.5 33t-2.5 33v206q0 93 -42 137.5t-138 44.5q-127 0 -129 -90q8 -29 39 -35zM207 131q4 3 4 16v43q0 14 -2 18h-5q-18 -3 -22 -31
q0 -17 3 -28q6 -17 22 -18zM172 115q-20 18 -20 64v1q8 58 52 58q37 0 37 -48v-43q0 -37 -29 -46h-2q-24 0 -38 14zM117 593q74 -33 132 -45q12 -2 24 15q10 13 10 22q0 7 -6 12q-60 49 -122 99q-5 2 -10 2q-21 0 -52 -42q-13 -18 -13 -29q0 -18 37 -34zM137 605
q-32 15 -32 25q0 8 7 17q19 25 30 25q3 0 7 -2q30 -25 91 -68q20 -11 20 -19q0 -4 -3 -7q-4 -6 -13 -5q-35 2 -107 34z" />
    <glyph glyph-name="acircumflex" unicode="&#xe2;" horiz-adv-x="438" 
d="M32 359q-12 14 -16 34v2q0 63 50 95q41 26 109 26q209 0 209 -212v-205q0 -12 2.5 -34t2.5 -33q0 -13 -8.5 -22t-39.5 -9h-150q-128 0 -169 78q-17 31 -17 69q0 127 150 178q32 11 43 15q6 2 6 11q0 29 -39 29q-33 0 -49 -25t-31 -25h-1q-31 3 -52 28zM84 361l1 1
q26 49 80 49q32 0 52 -19q17 -17 17 -40q0 -31 -27 -39q-83 -27 -117 -53q-55 -41 -55 -112q0 -117 156 -117h150q18 0 18 1q0 12 -2.5 33.5t-2.5 33.5v205q0 93 -42 137.5t-137 44.5q-128 0 -129 -89q7 -29 38 -36zM205 132q4 3 4 15v44q0 13 -2 17q-1 1 -4 1
q-19 -3 -23 -31q0 -18 4 -29q5 -16 21 -17zM170 115q-20 19 -20 64v1q8 59 53 59q36 0 36 -48v-44q0 -36 -28 -45h-3q-24 0 -38 13zM196 598q-19 1 -44 -19l-40 -32q-5 -3 -14 -3q-14 0 -26.5 7.5t-12.5 19.5t12 25q27 31 54 61q36 37 67 37q22 0 43 -17q45 -36 78 -82
q5 -8 5 -15t-25 -32q-5 -4 -12 -4q-16 0 -47 23q-19 16 -38 31zM295 585q-1 0 -49 49q-32 33 -57 33q-12 0 -25 -7q-23 -13 -76 -76q-6 -7 0 -13q4 -4 9 -4q11 0 44 30.5t50 30.5q5 0 10 -2.5t41 -31.5q33 -27 38 -26q18 4 15 17z" />
    <glyph glyph-name="adieresis" unicode="&#xe4;" horiz-adv-x="441" 
d="M32 358q-12 14 -16 35v1q0 64 50 95q41 26 109 26q209 0 209 -211v-206q0 -11 2.5 -33.5t2.5 -33.5q0 -12 -8.5 -21.5t-39.5 -9.5h-150q-128 0 -169 78q-17 31 -17 70q0 126 150 178q32 11 43 14q6 2 6 11q0 29 -39 29q-33 0 -49 -25t-31 -25h-1q-31 4 -52 28zM84 361
l1 1q26 48 80 48q32 0 52 -19q17 -17 17 -40q0 -31 -27 -39q-83 -27 -117 -52q-55 -41 -55 -112q0 -118 156 -118h150q18 0 18 1q0 12 -2.5 34t-2.5 33v206q0 93 -42 137t-137 44q-128 0 -129 -89q7 -29 38 -35zM205 131q4 3 4 16v43q0 13 -2 18h-4q-19 -3 -23 -31
q0 -17 4 -28q5 -17 21 -18zM170 114q-20 19 -20 64v1q8 59 53 59q36 0 36 -48v-43q0 -37 -28 -46h-3q-24 0 -38 13zM118 652q62 0 62 -61q-5 -52 -64 -52q-36 0 -52 25q-9 15 -9 31q0 27 18 42t45 15zM118 628q-39 0 -39 -36q0 -17 17 -26q6 -3 20 -3q37 0 40 29
q-1 36 -38 36zM270 652q64 0 62 -61q-2 -52 -65 -52q-35 0 -51 26q-9 13 -9 30q0 43 39 54q11 3 24 3zM270 628q-40 0 -39 -36q0 -17 17 -26q6 -3 19 -3q40 0 41 29q1 27 -18 34q-8 2 -20 2z" />
    <glyph glyph-name="atilde" unicode="&#xe3;" horiz-adv-x="438" 
d="M336 642q0 -20 -9 -46q-11 -29 -24.5 -37.5t-33.5 -8.5q-21 0 -63 18.5t-63 18.5q-17 0 -32.5 -13t-22.5 -13q-14 0 -14 17q0 20 9.5 47.5t23.5 36t35 8.5q29 0 73 -18.5t52 -18.5q17 0 32.5 13t22.5 13q14 0 14 -17zM389 32q0 -13 -8.5 -22t-39.5 -9h-150
q-128 0 -169 78q-17 31 -17 69q0 127 150 178q32 12 43 15q6 2 6 11q0 29 -39 29q-33 0 -49 -25t-31 -25h-1q-31 3 -52 28q-12 14 -16 34v2q0 63 50 95q41 26 109 26q209 0 209 -212v-205q0 -12 2.5 -34t2.5 -33zM309 622q-16 -11 -45 -11q-13 0 -54 17.5t-68 17.5
q-31 0 -38 -37l-3 -11q19 13 42 13q19 0 59 -13l58 -20q15 -4 9 -4q29 0 37 37zM359 32q0 12 -2.5 34t-2.5 33v205q0 94 -42 138t-137 44q-128 0 -129 -89q7 -29 38 -36l1 1q26 49 80 49q32 0 52 -19q17 -17 17 -40q0 -31 -27 -39q-83 -27 -117 -53q-55 -41 -55 -112
q0 -117 156 -117h150q18 0 18 1zM239 148q0 -37 -28 -46h-3q-24 0 -38 13q-20 19 -20 64v1q8 59 53 59q36 0 36 -48v-43zM209 148v43q0 13 -2 17q-1 1 -4 1q-19 -3 -23 -31q0 -31 11 -41q4 -4 14 -5q4 3 4 16z" />
    <glyph glyph-name="aring" unicode="&#xe5;" horiz-adv-x="437" 
d="M32 359q-12 14 -16 34v2q0 63 50 95q41 26 109 26q209 0 209 -212v-205q0 -12 2.5 -34t2.5 -33q0 -13 -8.5 -22.5t-39.5 -9.5h-150q-128 0 -169 79q-17 31 -17 69q0 127 150 178q32 11 43 15q6 2 6 11q0 29 -39 29q-33 0 -49 -25t-31 -25h-1q-31 3 -52 28zM84 361l1 1
q26 49 80 49q32 0 52 -20q17 -16 17 -39q0 -31 -27 -40q-83 -26 -117 -52q-55 -41 -55 -112q0 -118 156 -118h150q18 0 18 2q0 11 -2.5 33t-2.5 34v205q0 93 -42 137.5t-137 44.5q-128 0 -129 -90q7 -28 38 -35zM205 132q4 3 4 15v44q0 13 -2 17q-1 1 -4 1q-19 -3 -23 -31
q0 -18 4 -29q5 -16 21 -17zM170 115q-20 19 -20 64v1q8 59 53 59q36 0 36 -48v-44q0 -36 -28 -45h-3q-24 0 -38 13zM297 640q0 -42 -30 -71t-72 -29t-72 29t-30 71t30 71t72 29t72 -29t30 -71zM272 640q0 31 -22.5 53t-54.5 22t-54.5 -22t-22.5 -53t22.5 -53t54.5 -22
t54.5 22t22.5 53zM168 640q0 -25 27 -25t27 25t-27 25t-27 -25zM143 640q0 21 15.5 35.5t36.5 14.5q22 0 37 -14.5t15 -35.5t-15 -35.5t-37 -14.5q-21 0 -36.5 14.5t-15.5 35.5z" />
    <glyph glyph-name="ccedilla" unicode="&#xe7;" horiz-adv-x="434" 
d="M387 137q0 -51 -39 -91q-35 -37 -90 -52l14 -3q11 -2 11 -23q0 -30 -30.5 -64.5t-59.5 -34.5q-26 0 -61 18q-31 16 -52 37q-9 7 -9 17q0 19 28 19h2q14 -4 22 -4q27 0 48 30q-85 8 -130 83q-40 65 -40 156q0 121 57 200q65 91 185 91q52 0 93 -30q46 -32 46 -82
q0 -24 -13 -49q-16 -30 -38 -30q-12 0 -29.5 26t-47.5 26q-37 0 -58 -48q-16 -38 -16 -79q0 -89 55 -107q12 -3 25 -3q31 0 49 16q9 7 23 29q10 16 20 16q16 0 27 -26q8 -21 8 -38zM252 -33l-24 48q52 9 87.5 41t42.5 76q2 11 -6 29q-30 -51 -92 -51q-16 0 -33 4
q-77 25 -77 136q0 55 24 101q29 56 80 56q28 0 42 -11q7 -6 27 -36h14q15 0 15 44q0 37 -37 61q-33 21 -72 21q-107 0 -164 -82q-48 -70 -48 -179q0 -90 38 -148q44 -67 127 -62h11q-35 -91 -86 -84q47 -32 72 -32q16 0 37.5 26t21.5 42z" />
    <glyph glyph-name="eacute" unicode="&#xe9;" horiz-adv-x="463" 
d="M411 163q0 -72 -49 -121.5t-121 -50.5q-113 0 -176.5 70t-63.5 186q0 112 59 190q65 87 175 87q75 0 121 -38q49 -41 49 -116q0 -110 -149 -162q-28 -9 -34 -12q-24 -11 -27 -22q1 -20 25 -32q20 -9 42 -9q44 0 67 18q14 12 41 55q8 13 18 13q23 0 23 -56zM381 163
q-37 -60 -119 -60q-36 0 -64 18q-33 20 -33 55v1q7 29 52 48.5t89 38.5q51 29 66 77q3 11 3 29q0 62 -38.5 93t-101.5 31q-97 0 -153 -78q-51 -70 -51 -169q0 -104 54.5 -165t155.5 -61q60 1 100 42t40 100zM236 371q0 16 -16 16q-20 0 -33 -21t-13 -42q0 -7 1 -11h2
q12 0 30 13.5t25 25.5q4 11 4 19zM266 371q0 -14 -7 -32q-11 -20 -36 -38t-46 -18q-10 0 -19 4q-14 10 -14 37q0 34 21.5 63.5t54.5 29.5q46 0 46 -46zM289 594q-74 -33 -131 -45q-13 -2 -25 15q-10 13 -10 22q0 7 7 12q116 89 121.5 91.5t11.5 2.5q24 0 50 -35
q13 -18 13 -29q0 -18 -37 -34zM269 606q32 15 32 25q0 8 -7 17q-16 22 -25 22q-4 0 -8 -2q-32 -24 -95 -65q-20 -11 -20 -19q0 -4 3 -7q4 -6 13 -5q35 2 107 34z" />
    <glyph glyph-name="egrave" unicode="&#xe8;" horiz-adv-x="463" 
d="M411 165q0 -72 -49 -122t-121 -50q-113 -1 -176.5 69t-63.5 186q0 112 59 190q65 87 175 87q75 0 121 -38q49 -41 49 -116q0 -110 -149 -162q-28 -9 -34 -12q-24 -10 -27 -22q1 -20 25 -31q20 -10 42 -10q44 0 67 19q14 11 41 54q8 13 18 13q23 0 23 -55zM381 164
q-37 -60 -119 -60q-36 0 -64 18q-33 21 -33 55v2q7 29 52 48.5t89 37.5q51 29 66 77q3 11 3 29q0 62 -38.5 93t-101.5 31q-97 0 -153 -78q-51 -70 -51 -169q0 -104 54.5 -165t155.5 -60q60 0 100 41t40 100zM236 372q0 17 -16 17q-20 0 -34 -23q-12 -19 -12 -41q0 -7 1 -11
h2q12 0 30 14t25 26q4 10 4 18zM266 372q0 -14 -7 -31q-11 -21 -36 -39t-46 -18q-10 0 -19 5q-14 9 -14 36q0 34 20 62q23 32 56 32q46 0 46 -47zM155 594q-37 16 -37 34q0 11 13 29q27 35 50 35q6 0 12 -2.5t122 -91.5q6 -5 6 -12q0 -8 -10.5 -23.5t-23.5 -13.5
q-58 12 -132 45zM175 606q73 -32 107 -34q9 -1 14 5q3 3 3 7q0 8 -20 19q-46 32 -95 65q-4 2 -8 2q-9 0 -26 -22q-7 -9 -7 -17q0 -10 32 -25z" />
    <glyph glyph-name="ecircumflex" unicode="&#xea;" horiz-adv-x="466" 
d="M411 164q0 -72 -49 -121.5t-121 -50.5q-113 0 -178 71q-62 68 -62 185q0 112 59 190q65 86 175 86q75 0 122.5 -39t47.5 -114q0 -111 -149 -162q-28 -10 -34 -12q-24 -11 -27 -22q1 -20 25 -32q20 -9 42 -9q44 0 67 18q14 12 41 55q8 13 18 13q23 0 23 -56zM381 164
q-37 -60 -119 -60q-36 0 -64 17q-33 21 -33 56v1q7 29 52 48.5t89 38.5q51 28 66 77q3 11 3 29q0 62 -40 94q-37 29 -100 29q-97 0 -153 -78q-51 -69 -51 -168q0 -104 54.5 -165t155.5 -61q60 1 100 41.5t40 100.5zM236 372q0 16 -16 16q-20 0 -33 -21t-13 -43q0 -7 1 -10h2
q12 0 30 13.5t25 25.5q4 11 4 19zM266 372q0 -15 -7 -32q-11 -20 -36 -38t-46 -18q-10 0 -19 4q-14 10 -14 36q0 35 21.5 64.5t54.5 29.5q46 0 46 -46zM236 598q-19 1 -44 -19l-40 -32q-5 -3 -14 -3q-14 0 -26.5 7.5t-12.5 19.5t12 25q27 31 54 61q36 37 67 37q22 0 43 -17
q45 -36 78 -82q5 -8 5 -15t-25 -32q-5 -4 -12 -4q-16 0 -47 23q-19 16 -38 31zM335 585q-1 0 -49 49q-32 33 -57 33q-12 0 -25 -7q-23 -13 -76 -76q-6 -7 0 -13q4 -4 9 -4q11 0 44 30.5t50 30.5q5 0 10 -2.5t41 -31.5q33 -27 38 -26q18 4 15 17z" />
    <glyph glyph-name="edieresis" unicode="&#xeb;" horiz-adv-x="466" 
d="M411 163q0 -72 -49 -121.5t-121 -49.5q-113 -1 -176.5 69t-63.5 186q0 112 59 190q65 87 175 87q75 0 121 -38q49 -41 49 -116q0 -110 -149 -162q-28 -9 -34 -12q-24 -11 -27 -22q1 -20 25 -32q20 -9 42 -9q44 0 67 19q14 11 41 54q8 13 18 13q23 0 23 -56zM381 163
q-37 -60 -119 -60q-36 0 -64 18q-33 20 -33 55v2q7 28 53 49q44 18 88 37q51 29 66 77q3 11 3 29q0 62 -38.5 93t-101.5 31q-97 0 -153 -78q-51 -70 -51 -169q0 -104 54.5 -165t155.5 -60q60 0 100 41t40 100zM175 313h2q12 0 30 13.5t25 25.5q4 11 4 19q0 16 -16 16
q-21 0 -36 -26q-10 -17 -10 -37q0 -7 1 -11zM266 371q0 -14 -7 -31q-11 -21 -36 -39t-46 -18q-9 0 -19 4q-14 10 -14 37q0 33 22 63t54 30q46 0 46 -46zM138 662q62 0 62 -61q-5 -52 -64 -52q-36 0 -52 25q-9 15 -9 31q0 27 18 42t45 15zM138 638q-39 0 -39 -36
q0 -17 17 -26q6 -3 20 -3q37 0 40 29q-1 36 -38 36zM290 662q64 0 62 -61q-2 -52 -65 -52q-35 0 -51 26q-9 13 -9 30q0 43 39 54q11 3 24 3zM290 638q-40 0 -39 -36q0 -17 17 -26q6 -3 19 -3q40 0 41 29q1 27 -18 34q-8 2 -20 2z" />
    <glyph glyph-name="iacute" unicode="&#xed;" horiz-adv-x="251" 
d="M145 509q42 0 42 -36q0 -17 -3 -43q-10 -70 -10 -136q0 -122 24 -233q5 -22 5 -31q0 -30 -40 -30h-99q-35 0 -45 21q-3 6 -10 55q-8 57 -8 191q0 201 20 230q9 12 34 12h90zM173 30q-4 22 -12 65q-17 107 -17 199q0 78 10 150q3 24 3 29v6h-1h-11h-90q-6 0 -10 -1
q-14 -38 -14 -211q0 -211 16 -236q5 -1 17 -1h99h10zM159 594q-74 -33 -131 -45q-13 -2 -25 15q-10 13 -10 22q0 7 7 12q116 89 121.5 91.5t11.5 2.5q24 0 50 -35q13 -18 13 -29q0 -18 -37 -34zM139 606q32 15 32 25q0 8 -7 17q-16 22 -25 22q-4 0 -8 -2q-32 -24 -95 -65
q-20 -11 -20 -19q0 -4 3 -7q4 -6 13 -5q35 2 107 34z" />
    <glyph glyph-name="igrave" unicode="&#xec;" horiz-adv-x="251" 
d="M142 511q42 0 42 -37q0 -7 -3 -32q-9 -71 -9 -147q0 -122 24 -232q4 -23 4 -32q0 -30 -40 -30h-99q-35 0 -45 22q-3 6 -9 54q-9 57 -9 191q0 201 20 230q9 13 34 13h90zM170 32q-4 21 -11 64q-17 108 -17 199q0 78 9 151q3 23 3 28v6h-1q-4 1 -11 1h-90q-6 0 -10 -1
q-14 -39 -14 -212q0 -210 16 -235q5 -2 17 -2h99q6 0 10 1zM39 604q74 -33 132 -45q13 -2 25 15q10 13 10 22q0 7 -7 12q-115 88 -127 93q-5 3 -11 3q-18 0 -45 -37q-14 -18 -14 -29q0 -18 37 -34zM59 616q-32 15 -32 25q0 8 7 17q17 22 26 22q4 0 8 -2q31 -24 95 -65
q20 -11 20 -19q0 -4 -3 -7q-4 -6 -14 -5q-34 2 -107 34z" />
    <glyph glyph-name="icircumflex" unicode="&#xee;" horiz-adv-x="270" 
d="M144 510q42 0 42 -36q0 -7 -4 -33q-9 -71 -9 -147q0 -121 24 -232q5 -22 5 -31q0 -30 -41 -30h-98q-35 0 -45 21q-3 6 -10 55q-8 57 -8 191q0 201 20 229q8 13 33 13h91zM172 31q-4 22 -12 64q-17 108 -17 199q0 78 10 151q3 24 3 29v5l-2 1h-10h-91q-6 0 -9 -1
q-14 -38 -14 -211q0 -211 16 -236q5 -1 17 -1h98h11zM106 598q-19 1 -44 -19l-40 -32q-5 -3 -14 -3q-14 0 -26.5 7.5t-12.5 19.5t12 25q27 31 54 61q36 37 67 37q22 0 43 -17q45 -36 78 -82q5 -8 5 -15t-25 -32q-5 -4 -12 -4q-16 0 -47 23q-19 16 -38 31zM205 585
q-1 0 -49 49q-32 33 -57 33q-12 0 -25 -7q-23 -13 -76 -76q-6 -7 0 -13q4 -4 9 -4q11 0 44 30.5t50 30.5q5 0 10 -2.5t41 -31.5q33 -27 38 -26q18 4 15 17z" />
    <glyph glyph-name="idieresis" unicode="&#xef;" horiz-adv-x="256" 
d="M144 510q43 0 43 -37q0 -7 -4 -33q-9 -71 -9 -136q0 -132 24 -242q5 -23 5 -32q0 -30 -41 -30h-98q-36 0 -46 21q-2 7 -9 55q-8 57 -8 201q0 192 19 220q9 13 34 13h90zM173 31q-5 21 -12 64q-17 108 -17 209q0 67 10 140q3 23 3 29q0 4 -1 6h-1q-4 1 -11 1h-90
q-6 0 -10 -1q-13 -40 -13 -202q0 -221 16 -246q5 -1 17 -1h98q6 0 11 1zM28 662q62 0 62 -61q-5 -52 -64 -52q-36 0 -52 25q-9 15 -9 31q0 27 18 42t45 15zM28 638q-39 0 -39 -36q0 -17 17 -26q6 -3 20 -3q37 0 40 29q-1 36 -38 36zM180 662q64 0 62 -61q-2 -52 -65 -52
q-35 0 -51 26q-9 13 -9 30q0 43 39 54q11 3 24 3zM180 638q-40 0 -39 -36q0 -17 17 -26q6 -3 19 -3q40 0 41 29q1 27 -18 34q-8 2 -20 2z" />
    <glyph glyph-name="ntilde" unicode="&#xf1;" horiz-adv-x="465" 
d="M336 642q0 -20 -9 -46q-11 -29 -24.5 -37.5t-33.5 -8.5q-21 0 -63 18.5t-63 18.5q-17 0 -32.5 -13t-22.5 -13q-14 0 -14 17q0 20 9.5 47.5t23.5 36t35 8.5q29 0 73 -18.5t52 -18.5q17 0 32.5 13t22.5 13q14 0 14 -17zM412 281q0 -177 -18 -250q-7 -29 -47 -29h-98
q-41 0 -41 30q0 17 6 44q8 34 10 43q7 58 7 132q0 109 -22 109q-3 0 -6 -2q-21 -17 -21 -148q0 -41 21 -163q1 -9 1 -15q0 -30 -40 -30h-98q-35 0 -45 22q-4 8 -10 54q-9 67 -9 232q0 208 31 224q8 4 24 4h104q31 0 31 -34q0 -8 -2 -21q26 20 36 25q20 10 49 10q45 0 80 -30
t46 -74t11 -133zM309 622q-16 -11 -45 -11q-13 0 -54 17.5t-68 17.5q-31 0 -38 -37l-3 -11q19 13 42 13q19 0 59 -13l58 -20q15 -4 9 -4q29 0 37 37zM382 281q0 79 -7 111q-13 63 -60 86q-19 10 -40 10q-34 0 -62 -23t-36 -23q-26 0 -19 38l2 9q1 5 3 19h-2h-104
q-8 0 -10 -1q-15 -20 -15 -197q0 -249 17 -276q5 -2 17 -2h98q6 0 10 1q-4 22 -11 64q-11 65 -11 113q0 180 57 180q52 0 52 -139q0 -112 -18 -192q-4 -18 -5 -26h1q3 -1 10 -1h98q13 0 16 1q9 14 15 122q4 82 4 126z" />
    <glyph glyph-name="oacute" unicode="&#xf3;" horiz-adv-x="470" 
d="M211 523q109 0 166 -81q51 -71 51 -187q0 -85 -32 -150q-37 -78 -108 -102q-34 -12 -75 -12q-114 0 -170 81q-48 69 -48 188q0 110 52 182q59 81 164 81zM211 493q-92 0 -142 -73q-44 -63 -44 -160q0 -239 188 -239q77 0 119 42q36 36 57 115q9 30 9 77q0 103 -42 166
q-49 72 -145 72zM205 165q52 1 52 115q0 31 -8 58q-11 38 -34 38q-45 0 -45 -100t35 -111zM200 136q-60 13 -60 140q0 130 75 130q39 0 58 -46q14 -34 14 -80q0 -145 -84 -145h-2zM269 604q-74 -33 -131 -45q-13 -2 -25 15q-10 13 -10 22q0 7 7 12q116 89 121.5 91.5
t11.5 2.5q24 0 50 -35q13 -18 13 -29q0 -18 -37 -34zM249 616q32 15 32 25q0 8 -7 17q-16 22 -25 22q-4 0 -8 -2q-32 -24 -95 -65q-20 -11 -20 -19q0 -4 3 -7q4 -6 13 -5q35 2 107 34z" />
    <glyph glyph-name="ograve" unicode="&#xf2;" horiz-adv-x="475" 
d="M211 524q109 0 166 -80q51 -72 51 -188q0 -85 -32 -150q-37 -78 -108 -102q-34 -11 -75 -11q-114 0 -170 81q-48 69 -48 188q0 109 52 181q59 81 164 81zM211 494q-92 0 -142 -72q-44 -64 -44 -160q0 -239 188 -239q77 0 119 42q36 35 57 114q9 30 9 77q0 104 -42 166
q-49 72 -145 72zM205 166q52 2 52 116q0 31 -8 57q-11 38 -34 38q-45 0 -45 -100t35 -111zM200 137q-60 14 -60 140q0 130 75 130q39 0 58 -46q14 -34 14 -79q0 -146 -84 -146h-2zM138 604q74 -33 132 -45q13 -2 25 15q10 13 10 22q0 7 -7 12q-116 89 -122 91.5t-12 2.5
q-23 0 -50 -35q-13 -18 -13 -29q0 -18 37 -34zM158 616q-32 15 -32 25q0 8 7 17q17 22 26 22q4 0 8 -2q31 -24 95 -65q20 -11 20 -19q0 -4 -3 -7q-4 -6 -14 -5q-34 2 -107 34z" />
    <glyph glyph-name="ocircumflex" unicode="&#xf4;" horiz-adv-x="482" 
d="M218 520q109 0 166 -81q51 -71 51 -188q0 -84 -32 -149q-37 -78 -108 -102q-34 -12 -75 -12q-114 0 -170 81q-48 69 -48 188q0 109 52 181q59 82 164 82zM218 490q-92 0 -142 -73q-44 -63 -44 -160q0 -239 188 -239q77 0 119 42q36 36 57 115q9 30 9 76q0 104 -42 167
q-49 72 -145 72zM212 162q52 1 52 115q0 31 -8 58q-11 38 -34 38q-45 0 -45 -100t35 -111zM207 132q-60 14 -60 141q0 130 75 130q39 0 58 -46q14 -34 14 -80q0 -145 -84 -145h-2h-1zM223 594q-19 1 -44 -19l-40 -32q-5 -3 -14 -3q-14 0 -26.5 7.5t-12.5 19.5t12 25
q27 31 54 61q36 37 67 37q22 0 43 -17q45 -36 78 -82q5 -8 5 -15t-25 -32q-5 -4 -12 -4q-16 0 -47 23q-19 16 -38 31zM322 581q-1 0 -49 49q-32 33 -57 33q-12 0 -25 -7q-23 -13 -76 -76q-6 -7 0 -13q4 -4 9 -4q11 0 44 30.5t50 30.5q5 0 10 -2.5t41 -31.5q33 -27 38 -26
q18 4 15 17z" />
    <glyph glyph-name="odieresis" unicode="&#xf6;" horiz-adv-x="482" 
d="M218 523q109 0 166 -81q51 -71 51 -187q0 -85 -32 -150q-37 -78 -108 -102q-34 -11 -75 -11q-114 0 -170 80q-48 70 -48 188q0 110 52 182q59 81 164 81zM218 493q-92 0 -142 -73q-44 -63 -44 -160q0 -238 188 -238q77 0 119 41q36 36 57 115q9 30 9 77q0 103 -42 166
q-49 72 -145 72zM212 165q52 1 52 115q0 32 -8 58q-11 38 -34 38q-9 0 -17 -6q-28 -17 -28 -94q0 -100 35 -111zM207 136q-60 13 -60 140q0 92 41 119q17 11 34 11q39 0 58 -46q14 -34 14 -80q0 -145 -84 -145h-2zM135 662q62 0 62 -61q-5 -52 -64 -52q-36 0 -52 25
q-9 15 -9 31q0 27 18 42t45 15zM135 638q-39 0 -39 -36q0 -17 17 -26q6 -3 20 -3q37 0 40 29q-1 36 -38 36zM287 662q64 0 62 -61q-2 -52 -65 -52q-35 0 -51 26q-9 13 -9 30q0 43 39 54q11 3 24 3zM287 638q-40 0 -39 -36q0 -17 17 -26q6 -3 19 -3q40 0 41 29q1 27 -18 34
q-8 2 -20 2z" />
    <glyph glyph-name="otilde" unicode="&#xf5;" horiz-adv-x="485" 
d="M356 642q0 -20 -9 -46q-11 -29 -24.5 -37.5t-33.5 -8.5q-21 0 -63 18.5t-63 18.5q-17 0 -32.5 -13t-22.5 -13q-14 0 -14 17q0 20 9.5 47.5t23.5 36t35 8.5q29 0 73 -18.5t52 -18.5q17 0 32.5 13t22.5 13q14 0 14 -17zM438 256q0 -85 -32 -150q-37 -78 -108 -102
q-34 -12 -75 -12q-114 0 -170 81q-48 69 -48 188q0 110 52 182q59 81 164 81q109 0 166 -81q51 -71 51 -187zM329 622q-16 -11 -45 -11q-13 0 -54 17.5t-68 17.5q-31 0 -38 -37l-3 -11q19 13 42 13q19 0 59 -13l58 -20q15 -4 9 -4q29 0 37 37zM408 256q0 103 -42 166
q-49 72 -145 72q-92 0 -142 -73q-44 -63 -44 -160q0 -239 188 -239q77 0 119 42q36 36 57 115q9 30 9 77zM297 281q0 -145 -84 -145h-2h-1q-60 14 -60 141q0 130 75 130q39 0 58 -46q14 -34 14 -80zM267 281q0 31 -8 58q-11 38 -34 38q-45 0 -45 -100t35 -111q52 1 52 115z
" />
    <glyph glyph-name="uacute" unicode="&#xfa;" horiz-adv-x="467" 
d="M230 28q-38 -25 -42 -27q-20 -10 -49 -10q-64 0 -100 52q-30 44 -34 111q-2 61 -2 77q0 181 18 248q7 29 46 29h99q38 0 38 -32q0 -7 -10 -68q-14 -89 -14 -148q0 -111 26 -111q4 1 6 3q20 15 20 140q0 73 -18 181v2q0 33 36 33h99q35 0 45 -22q4 -8 10 -54q9 -78 9 -240
q0 -157 -21 -178q-10 -11 -61 -17q-26 -3 -52 -5h-1q-23 0 -32 9q-8 13 -16 27zM174 477q-3 1 -8 1h-99q-12 0 -16 -1q-9 -15 -14 -121q-4 -78 -4 -125q0 -81 6 -112q14 -64 60 -88q19 -10 40 -10q30 0 56 19t36 19q14 0 21.5 -12t13.5 -24q3 -1 11 -1q31 2 91 12q1 0 3 1
q12 26 12 157q0 257 -17 284q-5 2 -17 2h-99q-2 0 -6 -2q18 -113 18 -184q0 -173 -56 -173t-56 141q0 70 20 188q4 23 4 28v1zM269 594q-74 -33 -131 -45q-13 -2 -25 15q-10 13 -10 22q0 7 7 12q116 89 121.5 91.5t11.5 2.5q24 0 50 -35q13 -18 13 -29q0 -18 -37 -34z
M249 606q32 15 32 25q0 8 -7 17q-16 22 -25 22q-4 0 -8 -2q-32 -24 -95 -65q-20 -11 -20 -19q0 -4 3 -7q4 -6 13 -5q35 2 107 34z" />
    <glyph glyph-name="ugrave" unicode="&#xf9;" horiz-adv-x="466" 
d="M230 29q-38 -25 -42 -27q-20 -9 -49 -9q-64 0 -100 51q-30 44 -34 112q-2 60 -2 76q0 182 18 249q7 28 46 28h99q38 0 38 -32q0 -6 -10 -67q-14 -90 -14 -148q0 -111 26 -111q4 0 6 2q20 15 20 140q0 74 -18 182v1q0 33 36 33h99q35 0 45 -22q4 -8 10 -54q9 -77 9 -239
q0 -157 -21 -179q-10 -11 -61 -17l-52 -4h-1q-23 0 -32 8q-8 14 -16 27zM174 479h-8h-99q-12 0 -16 -1q-9 -14 -14 -120q-4 -78 -4 -126q0 -80 6 -112q14 -64 60 -87q19 -10 40 -10q30 0 56 18.5t36 18.5q14 0 21.5 -12t13.5 -23q3 -1 11 -1q31 1 91 11q1 0 3 1
q12 26 12 158q0 256 -17 284q-5 1 -17 1h-99q-2 0 -6 -2q18 -113 18 -184q0 -172 -56 -172t-56 141q0 69 20 187q4 23 4 28v2zM138 594q74 -33 132 -45q13 -2 25 15q10 13 10 22q0 7 -7 12q-116 89 -122 91.5t-12 2.5q-23 0 -50 -35q-13 -18 -13 -29q0 -18 37 -34zM158 606
q-32 15 -32 25q0 8 7 17q17 22 26 22q4 0 8 -2q31 -24 95 -65q20 -11 20 -19q0 -4 -3 -7q-4 -6 -14 -5q-34 2 -107 34z" />
    <glyph glyph-name="ucircumflex" unicode="&#xfb;" horiz-adv-x="459" 
d="M226 29q-38 -25 -42 -27q-20 -10 -49 -10q-64 0 -100 52q-30 44 -34 111q-2 61 -2 76q0 182 18 249q7 29 46 29h99q38 0 38 -32q0 -7 -10 -68q-14 -89 -14 -148q0 -111 26 -111q4 0 6 3q20 15 20 140q0 73 -18 181v1q0 34 36 34h99q35 0 45 -22q4 -8 10 -55q9 -77 9 -239
q0 -157 -21 -179q-10 -10 -61 -17l-52 -4h-1q-23 0 -32 9q-8 13 -16 27zM170 478q-3 1 -8 1h-99q-12 0 -16 -2q-9 -14 -14 -120q-4 -78 -4 -126q0 -80 6 -111q14 -65 60 -88q19 -10 40 -10q30 0 56 19t36 19q14 0 21.5 -12t13.5 -24q3 -1 11 -1q31 2 91 11q1 1 3 2
q12 26 12 157q0 257 -17 284q-5 2 -17 2h-99q-2 0 -6 -3q18 -112 18 -183q0 -173 -56 -173t-56 141q0 69 20 188q4 22 4 28v1zM196 598q-19 1 -44 -19l-40 -32q-5 -3 -14 -3q-14 0 -26.5 7.5t-12.5 19.5t12 25q27 31 54 61q36 37 67 37q22 0 43 -17q45 -36 78 -82
q5 -8 5 -15t-25 -32q-5 -4 -12 -4q-16 0 -47 23q-19 16 -38 31zM295 585q-1 0 -49 49q-32 33 -57 33q-12 0 -25 -7q-23 -13 -76 -76q-6 -7 0 -13q4 -4 9 -4q11 0 44 30.5t50 30.5q5 0 10 -2.5t41 -31.5q33 -27 38 -26q18 4 15 17z" />
    <glyph glyph-name="udieresis" unicode="&#xfc;" horiz-adv-x="466" 
d="M231 28q-38 -25 -42 -27q-20 -9 -49 -9q-64 0 -100 51q-30 44 -34 111q-2 61 -2 77q0 182 18 248q7 29 46 29h99q38 0 38 -32q0 -7 -10 -68q-14 -89 -14 -148q0 -111 26 -111q3 1 6 3q20 15 20 140q0 73 -18 181v2q0 33 36 33h99q35 0 45 -22q4 -8 10 -54q9 -78 9 -239
q0 -157 -21 -179q-10 -11 -60 -17q-27 -2 -53 -5h-1q-23 0 -32 9q-8 14 -16 27zM175 477q-3 1 -8 1h-99q-12 0 -16 -1q-9 -14 -14 -121q-4 -77 -4 -125q0 -81 6 -112q14 -64 60 -88q19 -9 40 -9q30 0 56 18.5t36 18.5q14 0 21.5 -12t13.5 -23q3 -2 11 -2q31 2 91 12q1 0 3 1
q12 26 12 158q0 256 -17 283q-5 2 -17 2h-99q-2 0 -6 -2q18 -113 18 -184q0 -173 -56 -173t-56 141q0 70 20 188q4 23 4 28v1zM136 662q62 0 62 -61q-5 -52 -64 -52q-36 0 -52 25q-9 15 -9 31q0 27 18 42t45 15zM136 638q-39 0 -39 -36q0 -17 17 -26q6 -3 20 -3q37 0 40 29
q-1 36 -38 36zM288 662q64 0 62 -61q-2 -52 -65 -52q-35 0 -51 26q-9 13 -9 30q0 43 39 54q11 3 24 3zM288 638q-40 0 -39 -36q0 -17 17 -26q6 -3 19 -3q40 0 41 29q1 27 -18 34q-8 2 -20 2z" />
    <glyph glyph-name="dagger" unicode="&#x2020;" 
 />
    <glyph glyph-name="degree" unicode="&#xb0;" horiz-adv-x="345" 
d="M146 746q34 0 58 -24t24 -58t-24 -58.5t-58 -24.5t-58 24.5t-24 58.5t24 58t58 24zM146 720q-23 0 -39.5 -16.5t-16.5 -39.5q0 -24 16.5 -40.5t39.5 -16.5t39.5 16.5t16.5 40.5q0 23 -16.5 39.5t-39.5 16.5zM146 812q62 0 105.5 -43.5t43.5 -104.5q0 -62 -43.5 -105.5
t-105.5 -43.5q-61 0 -104.5 43.5t-43.5 105.5q0 61 43.5 104.5t104.5 43.5zM146 786q-51 0 -86.5 -35.5t-35.5 -86.5t35.5 -87t86.5 -36t87 36t36 87t-36 86.5t-87 35.5z" />
    <glyph glyph-name="cent" unicode="&#xa2;" horiz-adv-x="392" 
d="M270 618q55 -12 71 -63q4 -15 4 -25q0 -13 -4 -31q-15 -62 -44 -62q-12 0 -22 17q-7 14 -15 27q-6 4 -10 7q-6 -16 -13 -123t-4 -125l2 -1q5 -2 12 -2q30 0 46.5 29.5t25.5 29.5q27 0 27 -65q0 -66 -50 -107q-20 -14 -34 -20q10 -16 10 -30v-1q-7 -25 -45 -31
q-7 -2 -20 -2q-20 0 -30 14q-5 6 -11 49l-1 1q-78 18 -118 86q-34 60 -34 145q0 90 33 160q38 83 113 111q12 5 19 9q9 42 15.5 48.5t47.5 6.5q14 0 27 -12q4 -9 4 -16q0 -4 -1 -11.5t-1 -11.5v-1zM242 640h-1q-6 0 -30 -3q-3 -19 -7 -37q-4 -10 -34 -22q-66 -25 -99 -100
q-28 -63 -28 -143q0 -75 28 -126q33 -62 100 -76q22 -4 24.5 -23.5t5.5 -37.5l1 -1q2 -1 5 -1q10 0 15 2q12 1 18 5l1 1q-1 4 -5 10q-10 14 -10 22q0 10 20 21q16 9 32 17q38 32 38 83q0 6 -1 13q-25 -37 -68 -37q-26 0 -35.5 10.5t-9.5 36.5q-1 27 6 122l4 68q6 59 21 70
q6 5 14 5q14 0 33 -16q10 -10 19 -29q7 11 13 32q3 19 3 24q0 10 -7 27t-15 21q-13 8 -33 12q-23 2 -18 44v6zM164 465q-28 -39 -28 -98q0 -82 30 -103q-1 0 -4 1q-2 -5 -7 -5v5v34q0 78 8 153zM140 248q-34 43 -34 119q0 39 15 79q17 46 44 65q6 4 13 4q18 0 18 -28v-1
q-11 -87 -11 -187v-34q0 -30 -23 -30q-12 0 -22 13z" />
    <glyph glyph-name="sterling" unicode="&#xa3;" horiz-adv-x="472" 
d="M213 165q5 -1 14 -1h82q19 0 45 18.5t39 18.5q20 0 22 -42q9 -131 9 -122q0 -15 -6 -24q-10 -11 -37 -11h-310q-28 0 -36 4q-17 6 -17 30v68q0 19 50 93q14 9 14 38v7q-46 -7 -50 -7q-26 0 -26 29v24q0 49 38 55l-11 22q-26 53 -26 120q0 79 58 128q55 48 135 48
q65 0 123 -33q62 -36 87 -93q5 -12 5 -21q0 -12 -15 -38l-24 -44q-17 -25 -31 -25q-10 0 -23 17q-61 80 -105 80q-20 0 -31.5 -14t-11.5 -34q0 -18 15 -52l16 -37l83 13q4 1 8 1q23 0 26 -25l4 -46q3 -27 -34 -33l-58 -10q1 -7 1 -14q0 -20 -22 -88zM27 309q4 -9 9 -21
l-1 -23q3 1 72 12q5 -30 5 -42q0 -40 -22 -60q-42 -61 -42 -71v-71h3q6 -1 20 -1h310q12 0 13 -1v6l-8 119l-1 8l-5 -4q-33 -26 -71 -26h-82q-45 0 -45 28q0 10 11.5 40t11.5 51q0 11 -5 39q33 4 96 16v2l-4 41l-106 -17l-25 58q-17 40 -17 64q0 32 20.5 55t52.5 23
q59 0 129 -92q1 2 4 6q16 25 35 66q0 21 -36 55q-30 28 -54 40q-46 22 -95 22q-67 0 -115 -40t-48 -106q0 -55 13 -87q3 -8 41 -79q-22 -1 -64 -10z" />
    <glyph glyph-name="section" unicode="&#xa7;" 
 />
    <glyph glyph-name="bullet" unicode="&#x2022;" horiz-adv-x="254" 
d="M1 306q0 41 28.5 69.5t69.5 28.5q40 0 69 -28.5t29 -69.5q0 -40 -29 -69t-69 -29q-41 0 -69.5 29t-28.5 69z" />
    <glyph glyph-name="paragraph" unicode="&#xb6;" 
 />
    <glyph glyph-name="germandbls" unicode="&#xdf;" horiz-adv-x="553" 
d="M291 142q32 0 32 26q0 29 -32 59q-30 26 -60 53q-33 35 -33 76q0 37 32.5 84t33.5 72q-6 25 -29 25q-40 0 -56 -89q-8 -47 -8 -101q0 -64 10 -161l18 -154v-1q0 -20 -12 -26q-8 -5 -30 -5h-117q-39 0 -39 51v397q0 74 18 119q23 56 81 87q49 25 116 25q131 0 202 -82
q25 -30 25 -54t-38.5 -63.5t-38.5 -71.5q0 -13 5 -22q10 -21 48 -51q44 -35 59 -57q29 -39 29 -92q0 -128 -160 -184q-34 -12 -56 -12q-27 0 -43 30q-5 11 -18 55t-13 54q0 21 29 21h1q5 -1 22 -5q14 -3 22 -3zM250 119q21 -88 32 -97q2 -2 9 -2q31 0 81 25t70 50
q35 45 35 91t-26 80q-13 15 -57 51q-37 30 -49 55q-9 18 -9 36q0 37 39 83.5t39 50.5q0 16 -24 41q-20 21 -38 32q-58 34 -136 34q-185 0 -185 -201v-397q0 -13 2 -19q2 -2 7 -2h117q8 0 12 1q-9 77 -18 155q-10 97 -10 161q0 74 13 128q24 92 81 92q48 0 59 -52v-2
q0 -34 -33 -81.5t-33 -75.5q0 -33 33 -64q30 -27 60 -53q32 -33 32 -71q0 -24 -18 -40t-44 -16q-14 0 -41 7z" />
    <glyph glyph-name="registered" unicode="&#xae;" horiz-adv-x="354" 
d="M162 383q-62 0 -106 45t-44 108q0 62 44 106t106 44t104.5 -44.5t42.5 -107.5t-42.5 -107t-104.5 -44zM162 406q51 0 88 37.5t37 90.5t-37 90.5t-88 37.5q-54 1 -90 -36t-36 -92q0 -53 37.5 -90.5t88.5 -37.5zM176 534l47 -72h-26l-47 72h-26v-72h-22v157h68q-6 0 -5 1h7
q52 0 52 -40q0 -44 -48 -46zM126 557h45q30 0 30 23q0 17 -34 17h-41v-40z" />
    <glyph glyph-name="copyright" unicode="&#xa9;" horiz-adv-x="738" 
d="M346 -11q-143 0 -242.5 100t-99.5 244q0 145 99.5 245t242.5 100t243 -100t100 -245q0 -144 -100 -244t-243 -100zM346 635q-122 0 -211 -88t-89 -214q0 -125 89 -213t211 -88t211 88t89 213q0 126 -89 214t-211 88zM355 139q-86 0 -136.5 55t-50.5 142q0 83 52 139.5
t136 56.5q59 0 103 -34t54 -91h-45q-22 81 -112 81q-67 0 -106 -44t-39 -110q0 -60 34 -103q40 -49 109 -49q94 0 115 79h43q-13 -57 -55.5 -89.5t-101.5 -32.5z" />
    <glyph glyph-name="trademark" unicode="&#x2122;" horiz-adv-x="459" 
d="M401 660v-196h-27v167h-2l-66 -167h-17l-65 167v0v-167h-28v196h46l56 -141l57 141h46zM159 660v-29h-64v-167h-28v167h-65v29h157z" />
    <glyph glyph-name="acute" unicode="&#xb4;" horiz-adv-x="254" 
d="M226 758q-92 -41 -164 -56q-16 -3 -32 19q-12 16 -12 27q0 9 9 15q73 58 150 118q7 2 14 2q30 0 65 -47q16 -21 16 -36q0 -22 -46 -42zM202 773q39 18 39 32q0 9 -9 20q-23 31 -37 31q-5 0 -9 -2q-37 -32 -114 -85q-25 -13 -25 -24q0 -4 4.5 -10t16.5 -5q43 3 134 43z
" />
    <glyph glyph-name="dieresis" unicode="&#xa8;" horiz-adv-x="357" 
d="M158 812q62 0 62 -61q-5 -52 -64 -52q-36 0 -52 25q-9 15 -9 31q0 27 18 42t45 15zM158 788q-39 0 -39 -36q0 -17 17 -26q6 -3 20 -3q37 0 40 29q-1 36 -38 36zM320 812q64 0 62 -61q-2 -52 -65 -52q-35 0 -51 26q-9 13 -9 30q0 43 39 54q11 3 24 3zM320 788
q-40 0 -39 -36q0 -17 17 -26q6 -3 19 -3q40 0 41 29q1 27 -18 34q-8 2 -20 2z" />
    <glyph glyph-name="AE" unicode="&#xc6;" horiz-adv-x="846" 
d="M220 361q31 4 48 4q18 0 51 -4q3 4 3 11q0 15 -17 56q-19 45 -29 45q-13 0 -36.5 -45t-23.5 -60q0 -3 1 -4.5t3 -2.5zM186 368q0 24 25 70.5t45 58.5q9 6 20 6q37 0 67 -92q9 -26 9 -39q0 -41 -33 -41h-1q-33 4 -50 4q-16 0 -46 -4h-1q-35 0 -35 37zM549 428
q11 0 43.5 10.5t57.5 10.5q44 0 72 -19q12 -10 12 -20q0 -7 -4 -17l-36 -102q-10 -27 -26 -27q-6 0 -23.5 15t-38.5 15q-31 0 -49 -24t-18 -55q0 -40 26 -67.5t66 -27.5q32 0 67 21t39 21q17 0 29 -28l42 -97l5 -16v-2q0 -27 -46 -27h-429q-41 0 -41 23q0 6 3 15
q37 102 37 152q0 30 -25 30q-41 0 -72 -13q-42 -18 -42 -54q0 -26 21 -73.5t21 -56.5q0 -23 -32 -23h-126q-42 0 -56 27q-28 54 -28 145q0 146 52 272q58 141 167 217q38 27 65 27q35 0 86 -46q13 23 55 23h341q45 0 45 -26q0 -8 -4 -16q-12 -36 -46 -102q-8 -13 -19 -13
q-4 0 -28 9.5t-27 10.5q-25 7 -51 7q-41 0 -67 -19q-29 -22 -29 -61q0 -14 11 -19zM207 22q-39 82 -39 123q0 50 50 76q39 21 94 21t55 -60q0 -55 -37 -159q3 -1 8 -1h429q9 0 14 1l-1 3q-13 35 -45 102q-53 -38 -104 -38q-53 0 -87.5 36t-34.5 89q0 44 26.5 76.5t70.5 32.5
q35 0 59 -23q15 35 38 106q-20 12 -53 12q-21 0 -53.5 -10.5t-47.5 -10.5q-10 0 -17 4q-24 12 -24 45q0 52 38 82q35 28 88 28q55 0 103 -24q6 10 41 94h-14h-341q-19 0 -25 -2q-1 -2 -3 -5l-20 -35q-65 65 -93 65q-35 0 -97 -64q-49 -50 -75 -94q-37 -62 -60 -159
q-22 -90 -22 -169q0 -34 7 -76q9 -57 25 -63q6 -3 22 -3h125z" />
    <glyph glyph-name="Oslash" unicode="&#xd8;" horiz-adv-x="606" 
d="M320 461q-15 32 -28 40q-4 2 -10 2q-23 0 -46 -58q-15 -38 -22 -76q-5 -22 -7 -44zM172 237q7 255 91 292q8 4 19 4q12 0 23 -5q26 -14 49 -73zM358 309l-101 -136q9 -1 21 -1q41 0 53 11q28 25 28 99q0 14 -1 27zM377 386q3 -16 8 -47q4 -36 4 -57q0 -71 -21 -102
q-26 -38 -90 -38q-30 0 -71 14zM553 255q0 -95 -32 -161q-41 -82 -125 -95q-34 -5 -87 -5h-94q-52 0 -83 9l-4 -6l-10 -13q-17 -13 -26 -13q-11 0 -50 18q-33 14 -46.5 22t-13.5 24q0 13 47 70q-24 58 -24 137q0 110 43 218q46 117 125 181q54 43 107 43q85 0 158 -83l9 10
q27 32 44 32q21 0 45.5 -12.5t29.5 -30.5v-2q0 -2 -4 -10l-3 -5q-8 -12 -59 -81q53 -116 53 -247zM533 598q-20 15 -42 15q-6 -2 -53 -59q-79 100 -158 100q-63 0 -125 -72q-47 -55 -77 -129q-43 -105 -43 -211q0 -79 29 -141q-18 -21 -50 -66q25 -13 77 -34q2 1 5 4l2 2
l6 9q4 5 17 23q38 -15 94 -15h94q76 0 109 12q50 18 77.5 74.5t27.5 144.5q0 130 -58 251q23 30 68 92z" />
    <glyph glyph-name="plusminus" unicode="&#xb1;" 
 />
    <glyph glyph-name="yen" unicode="&#xa5;" horiz-adv-x="554" 
d="M197 631q0 -15 -1 -38t-1 -38q0 -115 49 -164q16 -16 28 -16t21 9q58 58 58 175q0 13 -4 35.5t-4 36.5q0 20 9 26q6 4 25 5l115 1q8 0 15 -5q12 -8 14 -9q4 -10 4 -28q0 -60 -39 -162q-19 -49 -73 -130h34q14 0 24 -10t10 -24v-31q0 -14 -10 -24t-24 -10h-95
q-8 -14 -14 -28h88q14 0 24 -9.5t10 -24.5v-30q0 -14 -10 -24t-24 -10q-65 -1 -113 -1v-13q0 -29 5 -46q2 -14 -9 -29t-29 -13h-99q-35 0 -35 44q0 35 2 57q-55 1 -56 1q-36 5 -36 34v30q0 15 10 24.5t24 9.5h86q6 15 2 28h-109q-14 0 -24 10t-10 24v31q0 14 10 24t24 10h28
q-58 68 -78 134q-20 61 -20 165q0 35 46 35h120q32 0 32 -32zM491 637q-85 -1 -110 1q0 -1 -5.5 -5.5t-5.5 -6.5q0 -13 3.5 -33.5t3.5 -33.5q0 -128 -65 -193q-17 -17 -40 -17q-38 0 -75 61q-28 46 -28 145q0 15 1 32.5t1 30.5q0 5 -5 19l-13 1l-108 -1q-4 0 -11 -7.5
t-7 -11.5q-5 -167 127 -315h-85q-8 0 -8 -8v-31q0 -8 8 -8h125q12 -23 12 -37q0 -15 -13 -43h-103q-8 0 -8 -8v-30q0 -8 8 -8q36 -1 88 -1q-6 -41 -6 -83q0 -18 9 -18h100q6 3 11 10q-5 20 -5 52q0 14 2 39h12l125 1q8 0 8 8v30q0 8 -8 8h-126q17 44 36 80h111q8 0 8 8v31
q0 8 -8 8h-83q63 94 87 143q37 76 48 160q3 25 -8 31z" />
    <glyph glyph-name="mu" unicode="&#xb5;" horiz-adv-x="489" 
d="M208 273q2 -155 94 -155q30 0 67 21q29 20 59 39q12 -30 23 -76q10 -38 19 -76l1 -5q2 -8 -2 -13.5t-12 -5.5h-4h-354q-16 0 -28 4q-17 41 -23 205q-10 -4 -19 -4q-31 0 -31 33v33q0 17 17 27q5 4 30 13v16q0 73 5 167q9 146 27 160q8 7 41 7h150q12 0 12 -15
q0 -5 -6 -28q-21 -80 -55 -239l53 20q5 2 9 2q13 0 21 -12t8 -23v-34q0 -23 -47 -43q-27 -9 -55 -18zM252 637h-134q-4 0 -21 -5q-7 -14 -8 -19q-18 -128 -18 -284v-33q-47 -19 -47 -23v-33q0 -5 4 -9l44 17q3 -75 5 -110q5 -80 14 -110h8h343q-7 38 -27 112
q-45 -29 -52 -33q-29 -15 -61 -15q-120 0 -120 188v11l90 34q12 5 12 9v34q0 5 -3 9l-95 -37q15 100 63 286z" />
    <glyph glyph-name="mu" unicode="&#x3bc;" horiz-adv-x="489" 
d="M208 273q2 -155 94 -155q30 0 67 21q29 20 59 39q12 -30 23 -76q10 -38 19 -76l1 -5q2 -8 -2 -13.5t-12 -5.5h-4h-354q-16 0 -28 4q-17 41 -23 205q-10 -4 -19 -4q-31 0 -31 33v33q0 17 17 27q5 4 30 13v16q0 73 5 167q9 146 27 160q8 7 41 7h150q12 0 12 -15
q0 -5 -6 -28q-21 -80 -55 -239l53 20q5 2 9 2q13 0 21 -12t8 -23v-34q0 -23 -47 -43q-27 -9 -55 -18zM252 637h-134q-4 0 -21 -5q-7 -14 -8 -19q-18 -128 -18 -284v-33q-47 -19 -47 -23v-33q0 -5 4 -9l44 17q3 -75 5 -110q5 -80 14 -110h8h343q-7 38 -27 112
q-45 -29 -52 -33q-29 -15 -61 -15q-120 0 -120 188v11l90 34q12 5 12 9v34q0 5 -3 9l-95 -37q15 100 63 286z" />
    <glyph glyph-name="ordfeminine" unicode="&#xaa;" horiz-adv-x="532" 
d="M80 -1q-40 0 -56 8q-23 11 -23 47q0 50 79 207q27 52 113 209q19 34 19 42t-10 8q-26 0 -77 -34q-14 -9 -23 -9q-16 0 -31 41q-8 26 -16 51q-20 60 -20 68q0 28 50 28h348q58 0 58 -53q0 -28 -24 -70q-1 -1 -41 -64q-49 -75 -98 -149q-88 -139 -88 -167q0 -20 21 -27
q6 -1 9 -1q31 0 76 33.5t54 33.5q22 0 51 -80q26 -70 26 -95q0 -27 -41 -27h-356zM447 30q-12 63 -50 138q-29 -21 -59 -42q-35 -22 -68 -22q-6 0 -16 2q-44 13 -44 56q0 37 73 150l118 182q18 28 36 57q24 39 24 61q0 23 -28 23h-348q-12 0 -19 -2v-1q19 -71 41 -122l1 1
q61 39 95 38q39 0 39 -37q0 -16 -51 -111q-31 -56 -61 -112q-99 -189 -99 -235q0 -20 15 -24q3 -1 34 -1h356q6 0 11 1zM257 776q20 -1 45 19l40 32q5 3 14 3q14 0 26.5 -7.5t12.5 -20.5q0 -11 -12 -24l-54 -62q-37 -36 -67 -36q-22 0 -43 17q-45 36 -78 82q-6 8 -6 15
t26 31q4 5 12 5q16 0 46 -23q19 -16 38 -31zM159 789q2 -1 50 -48q32 -32 54 -32q9 0 18 5q28 17 77 74q5 4 9 8q3 3 -1 7t-9 4q-11 0 -44.5 -30.5t-49.5 -30.5q-5 0 -10 2t-41 32q-33 27 -38 26q-18 -4 -15 -17z" />
    <glyph glyph-name="ordmasculine" unicode="&#xba;" horiz-adv-x="406" 
d="M159 401q-31 -5 -93 -32l-11 -2h-2q-18 0 -28 44q-5 34 -11 69v2q0 29 45 29h269q24 0 32 -18q4 -10 4 -37q0 -49 -13 -79q-10 -21 -46 -70q-109 -148 -110 -185q0 -2 1 -3q25 0 66.5 17t50.5 17q16 0 24 -20l25 -105q0 -27 -40 -27h-294q-29 0 -29 54q0 82 55 183
q7 12 105 163zM309 122l-1 -1q-28 -10 -57 -21q-32 -11 -59 -11h-2q-23 6 -25 32q0 38 75 142q81 112 90 143q4 16 4 50q0 16 -2 24q-2 1 -4 1h-269q-9 0 -14 -1l15 -80q77 32 105 32q17 0 25 -12q3 -8 3 -13q0 -10 -17 -33q-147 -200 -147 -319q0 -15 2 -24h291q10 0 13 1
q-1 -3 -4 -5zM177 636q20 -1 45 19l40 32q5 3 14 3q14 0 26.5 -7.5t12.5 -20.5q0 -11 -12 -24l-54 -62q-37 -36 -67 -36q-22 0 -43 17q-45 36 -78 82q-6 8 -6 15t26 31q4 5 12 5q16 0 46 -23q19 -16 38 -31zM79 649q2 -1 50 -48q32 -32 54 -32q9 0 18 5q28 17 77 74q5 4 9 8
q3 3 -1 7t-9 4q-11 0 -44.5 -30.5t-49.5 -30.5q-5 0 -10 2t-41 32q-33 27 -38 26q-18 -4 -15 -17z" />
    <glyph glyph-name="ae" unicode="&#xe6;" horiz-adv-x="675" 
d="M315 478l2 2q50 39 126 39q77 0 122 -38q49 -41 49 -117q0 -66 -51 -109q-31 -25 -99 -52q-56 -22 -60 -34q1 -20 25 -32q19 -9 42 -9q44 0 68 18q14 12 41 55q8 13 17 13q16 0 21 -35v-1q0 -86 -38 -135q-43 -57 -130 -57q-21 0 -61.5 8.5t-61.5 8.5h-139
q-131 0 -171 79q-17 31 -17 68q0 128 151 179l43 15q6 1 6 12q0 27 -39 27q-34 0 -49 -25t-31 -25q-24 0 -44 19t-25 44v1q0 64 50 95q41 27 109 27q90 0 144 -41zM80 363q24 50 81 50q27 0 47 -14q22 -17 22 -43q0 -27 -24 -39q-1 -1 -46 -16q-130 -45 -130 -151
q0 -117 158 -117h139q21 0 61.5 -8.5t61.5 -8.5q127 0 138 138q-38 -56 -117 -56q-37 0 -65 18q-32 20 -32 55v2q7 29 63 52q82 35 97 45q50 35 50 94q0 125 -141 125q-56 0 -116 -40q-7 -4 -13 -4h-5l-11 8q-45 36 -127 36q-128 0 -129 -90q3 -13 14.5 -24t23.5 -12z
M445 366q0 7 -4 13q-6 3 -12 3q-21 0 -36 -26q-11 -19 -11 -37q0 -7 1.5 -9t3.5 -2q12 0 31 14q16 13 23 25q4 10 4 19zM475 366q0 -15 -7 -32q-11 -20 -34 -37q-26 -19 -47 -19q-10 0 -19 4q-16 11 -16 37q0 32 22.5 62.5t54.5 30.5q46 0 46 -46zM201 134q4 3 4 16v43
q0 14 -2 18h-4q-9 0 -16 -10t-7 -19q0 -20 4 -31q5 -16 21 -17zM166 117q-20 19 -20 65q0 22 15.5 40.5t37.5 18.5q36 0 36 -48v-43q0 -37 -28 -46h-3q-24 0 -38 13z" />
    <glyph glyph-name="oslash" unicode="&#xf8;" horiz-adv-x="487" 
d="M179 285l44 60q6 8 17 22l-4 3q-6 3 -12 3q-42 0 -45 -88zM153 200q-5 61 -5 72q0 131 76 131q15 0 28 -8.5t27 -25.5q-11 -14 -32 -42zM230 165q17 6 27 38zM180 146l118 167q-4 -87 -10 -113q-19 -67 -76 -67h-1q-8 1 -31 13zM331 491q19 21 52 21h1q34 -6 48 -30
q4 -9 4 -16q0 -11 -32 -55q33 -65 33 -158q0 -85 -31 -150q-37 -78 -109 -102q-34 -12 -75 -12q-58 0 -103 21q-23 -33 -40 -33q-21 0 -51 18t-30 36q0 8 30 49l11 13q-34 70 -34 165q0 109 51 181q59 81 164 81q62 0 111 -29zM29 31q17 -16 50 -24q5 4 30 42
q54 -30 113 -30q77 0 119 42q36 36 58 115q8 30 8 77q0 92 -38 160q14 19 35 51q1 0 2 2q0 1 -1 2q-6 11 -24 14q-19 0 -29 -14q-4 -5 -17 -15q-55 37 -115 37q-92 0 -142 -72q-43 -64 -43 -160q0 -93 39 -167q-16 -20 -45 -60z" />
    <glyph glyph-name="questiondown" unicode="&#xbf;" horiz-adv-x="347" 
d="M236 281q24 0 32 -5q12 -8 12 -29q0 -6 1 -18v-17q0 -50 -28 -89q-27 -29 -53 -59q-28 -33 -29 -68q4 -30 33 -30q18 0 40 15.5t27 15.5q9 0 17 -8q49 -44 49 -71q0 -22 -31 -46q-26 -20 -49 -28q-42 -14 -84 -14q-78 0 -128.5 51.5t-50.5 130.5q0 67 37 119q21 30 88 91
q12 11 15 15q0 -2 0 4q0 30 16 36q8 4 24 4h62zM164 241q0 -19 -25 -41q-62 -57 -80 -81q-35 -48 -35 -107q0 -67 41.5 -109.5t107.5 -42.5q40 0 75 13q44 15 59 45q0 9 -27 37l-15 5l-24 -12t-37 -12q-23 0 -41.5 17t-21.5 41q0 53 55 109t55 109v25q-2 14 -15 14h-62
q-8 0 -9 -1t-1 -9zM121 376q-8 22 -8 44q0 44 27.5 73t70.5 29q38 0 62.5 -24t28.5 -62v-1q0 -50 -23 -82q-26 -35 -74 -35q-65 0 -84 58zM149 385q13 -37 56 -37q67 0 67 86q-7 58 -61 58q-23 0 -33 -7q-35 -20 -35 -64q0 -18 6 -36z" />
    <glyph glyph-name="exclamdown" unicode="&#xa1;" horiz-adv-x="282" 
d="M63 185q0 33 -9 67q-4 8 -4 15q0 22 44 22h47q29 0 42 -6q28 -21 45 -165q13 -104 13 -171q0 -46 -4 -63q-9 -40 -39 -40h-160q-39 0 -39 29v0q5 43 37 153q27 94 27 159zM30 -125q3 -1 8 -1h160q2 0 4 1q9 8 9 72q0 69 -10 156q-13 112 -34 154q-8 2 -26 2h-47h-11
q10 -38 10 -74q0 -137 -62 -308zM116 322q-44 0 -70 32q-23 28 -23 69t24.5 70.5t67.5 29.5q44 0 70.5 -30.5t26.5 -71.5q0 -57 -47 -85q-23 -14 -49 -14zM116 352q30 0 49 23q17 20 17 49q0 44 -37 62q-16 7 -30 7q-29 0 -45.5 -20.5t-16.5 -49.5t16 -48q17 -23 47 -23z
" />
    <glyph glyph-name="logicalnot" unicode="&#xac;" 
 />
    <glyph glyph-name="florin" unicode="&#x192;" horiz-adv-x="547" 
d="M332 223h-94q40 -73 126 -73q60 0 110 67l16 22q1 -5 10 -35q5 -18 5 -36q0 -80 -58 -125q-52 -40 -132 -42q-107 -1 -174 65q-58 56 -79 157h-32q-14 0 -23.5 9.5t-9.5 23.5v29q0 14 9.5 23.5t23.5 9.5h21q-1 9 -1 17q0 19 1 28h-21q-14 0 -23.5 9.5t-9.5 23.5v29
q0 14 9.5 23.5t23.5 9.5h34q23 93 80 147q64 62 161 62q67 0 112 -18q64 -26 64 -84q0 -39 -31 -69t-70 -30q-4 0 -24 2q10 27 10 37q0 43 -44 43q-67 0 -96 -90h106q14 0 23.5 -9.5t9.5 -23.5v-29q0 -33 -33 -33h-122v-4q0 -24 2 -41h120q14 0 23.5 -9.5t9.5 -23.5v-29
q0 -14 -9.5 -23.5t-23.5 -9.5zM391 493q26 4 45 25.5t19 46.5q0 76 -150 76q-173 0 -220 -209h-55q-7 0 -7 -7v-29q0 -7 7 -7h48q-2 -29 -2 -54q0 -15 2 -43h-48q-7 0 -7 -7v-29q0 -7 7 -7h53q42 -224 232 -222q72 1 117 37q49 38 47 104v3q-41 -47 -115 -47
q-114 0 -166 125h134q7 0 7 7v29q0 7 -7 7h-143q-5 34 -5 67q0 8 1 30h147q7 0 7 7v29q0 7 -7 7h-141q37 142 131 142q31 0 50.5 -19t19.5 -50q0 -6 -1 -12z" />
    <glyph glyph-name="guillemotleft" unicode="&#xab;" horiz-adv-x="340" 
d="M245 111q5 -13 17 -13q25 0 25 28q0 7 -2 13l-50 139q16 43 41 130q6 14 6 26q0 22 -21 22q-8 0 -18 -4l-99 -157q-8 -8 -8 -22q0 -15 11 -23q26 -39 80 -117zM161 275l96 152q-4 -26 -21 -76q-14 -39 -28 -77q15 -38 30 -75q19 -45 24 -77l-2 3l-11 15q-19 27 -87 124
q-8 5 -1 11zM105 111q5 -13 17 -13q25 0 25 28q0 7 -2 13l-50 139q16 43 41 130q6 14 6 26q0 22 -21 22q-8 0 -18 -4l-99 -157q-8 -8 -8 -22q0 -15 11 -23q26 -39 80 -117zM21 275l96 152q-4 -26 -21 -76q-14 -39 -28 -77q15 -38 30 -75q19 -45 24 -77l-2 3l-11 15
q-19 27 -87 124q-8 5 -1 11z" />
    <glyph glyph-name="guillemotright" unicode="&#xbb;" horiz-adv-x="336" 
d="M37 111q-6 -13 -18 -13q-25 0 -25 28q0 7 2 13l50 139q-15 43 -41 130q-6 14 -6 26q0 22 21 22q8 0 18 -4l99 -157q8 -8 8 -22q0 -15 -11 -23q-26 -39 -80 -117zM120 275l-96 152q4 -26 22 -76q13 -39 27 -77q-15 -38 -30 -75q-18 -45 -24 -77l2 3l11 15q20 27 87 124
q9 5 1 11zM177 111q-6 -13 -18 -13q-25 0 -25 28q0 7 2 13l50 139q-15 43 -41 130q-6 14 -6 26q0 22 21 22q8 0 18 -4l99 -157q8 -8 8 -22q0 -15 -11 -23q-26 -39 -80 -117zM260 275l-96 152q4 -26 22 -76q13 -39 27 -77q-15 -38 -30 -75q-18 -45 -24 -77l2 3l11 15
q20 27 87 124q9 5 1 11z" />
    <glyph glyph-name="ellipsis" unicode="&#x2026;" horiz-adv-x="929" 
d="M576 89q-1 -54 -49 -80q-19 -13 -50 -13q-37 0 -61 24t-28 63v1q0 51 21 82q25 36 74 36q46 0 71 -34q23 -30 22 -79zM546 90q2 82 -63 82t-65 -87q6 -59 59 -59q22 0 35 8q34 18 34 56zM876 89q-1 -54 -49 -80q-19 -13 -50 -13q-37 0 -61 24t-28 63v1q0 51 21 82
q25 36 74 36q46 0 71 -34q23 -30 22 -79zM846 90q2 82 -63 82t-65 -87q6 -59 59 -59q22 0 35 8q34 18 34 56zM276 89q-1 -54 -49 -80q-19 -13 -50 -13q-37 0 -61 24t-28 63v1q0 51 21 82q25 36 74 36q46 0 71 -34q23 -30 22 -79zM246 90q2 82 -63 82t-65 -87q6 -59 59 -59
q22 0 35 8q34 18 34 56z" />
    <glyph glyph-name="nonbreakingspace" unicode="&#xa0;" 
 />
    <glyph glyph-name="Agrave" unicode="&#xc0;" horiz-adv-x="586" 
d="M337 189q0 11 -2 18q-5 8 -25 11q-41 0 -71 -13q-41 -18 -41 -54q0 -26 21 -73.5t21 -56.5q0 -23 -31 -23h-128q-41 0 -55 27q-28 54 -28 144q0 146 52 272q58 142 166 218q38 27 64 27q45 0 107 -65q48 -50 78 -103q70 -127 70 -336q0 -168 -57 -181q-14 -3 -57 -3h-84
q-40 0 -40 24q0 4 3 13q37 107 37 154zM329 29q4 -1 8 -1h84q54 0 61 11q23 34 23 143q0 322 -179 453q-28 21 -46 21q-34 0 -96 -64q-49 -51 -75 -94q-36 -62 -60 -159q-21 -92 -21 -170q0 -33 7 -75q9 -57 25 -63q5 -3 21 -3h125q-38 81 -38 123q0 50 49 76q40 21 95 21h1
q38 -6 49 -28q5 -14 5 -31q0 -51 -38 -160zM216 369q1 -1 4 -2q30 4 48 4q20 0 51 -4q2 4 2 11q0 15 -17 58t-28 43q-13 0 -37 -46q-21 -42 -23 -60v-4zM187 360q-2 8 -1 14q1 26 25 71t45 58q9 6 20 6q31 0 57 -66q18 -45 18 -65q0 -41 -33 -41h-1q-30 4 -49 4
q-17 0 -47 -4h-1q-26 0 -33 23zM203 757q63 -28 160 -48q16 -4 30 15t14 26t-8 13q-29 23 -96 60q-52 29 -64.5 34.5t-23.5 5.5q-25 0 -45 -27q-16 -20 -16 -35q0 -23 49 -44zM228 778q-15 6 -29 12.5t-14 15.5q0 11 9 20.5t19 9.5q9 0 23 -6q18 -8 118 -61q25 -13 25 -24
q0 -8 -6 -11t-21 -2q-24 2 -124 46z" />
    <glyph glyph-name="Atilde" unicode="&#xc3;" horiz-adv-x="586" 
d="M458 830q0 -26 -11 -57q-13 -37 -30.5 -47.5t-41.5 -10.5q-26 0 -78.5 23.5t-78.5 23.5q-22 0 -41.5 -16.5t-27.5 -16.5q-18 0 -18 21q0 26 12 57q12 37 31 48q16 10 43 10q35 0 90.5 -23.5t64.5 -23.5q22 0 41.5 16.5t27.5 16.5q17 0 17 -21zM535 182q0 -168 -57 -181
q-14 -3 -57 -3h-84q-40 0 -40 24q0 4 3 13q37 107 37 154q0 11 -2 18q-5 8 -25 11q-41 0 -71 -13q-41 -18 -41 -54q0 -26 21 -73.5t21 -56.5q0 -23 -31 -23h-128q-41 0 -55 27q-28 54 -28 144q0 146 52 272q58 142 166 218q38 27 64 27q45 0 107 -65q48 -50 78 -103
q70 -127 70 -336zM424 805q-18 -14 -55 -14q-16 0 -67.5 22t-84.5 22q-39 0 -49 -46l-3 -14q24 17 53 17q24 0 73 -17q37 -12 73 -24q7 -3 8 -4.5t3 -1.5q23 0 33 12q8 9 13 34zM505 182q0 322 -179 453q-28 21 -46 21q-34 0 -96 -64q-49 -51 -75 -94q-36 -62 -60 -159
q-21 -92 -21 -170q0 -33 7 -75q9 -57 25 -63q5 -3 21 -3h125q-38 81 -38 123q0 50 49 76q40 21 95 21h1q38 -6 49 -28q5 -14 5 -31q0 -51 -38 -160q4 -1 8 -1h84q54 0 61 11q23 34 23 143zM351 378q0 -41 -33 -41h-1q-30 4 -49 4q-17 0 -47 -4h-1q-26 0 -33 23q-2 8 -1 14
q1 26 25 71t45 58q9 6 20 6q31 0 57 -66q18 -45 18 -65zM321 378q0 15 -17 58t-28 43q-13 0 -37 -46q-21 -42 -23 -60v-4q1 -1 4 -2q30 4 48 4q20 0 51 -4q2 4 2 11z" />
    <glyph glyph-name="Otilde" unicode="&#xd5;" horiz-adv-x="604" 
d="M458 830q0 -26 -11 -57q-13 -37 -30.5 -47.5t-41.5 -10.5q-26 0 -78.5 23.5t-78.5 23.5q-22 0 -41.5 -16.5t-27.5 -16.5q-18 0 -18 21q0 26 12 57q12 37 31 48q16 10 43 10q35 0 90.5 -23.5t64.5 -23.5q22 0 41.5 16.5t27.5 16.5q17 0 17 -21zM554 256q0 -94 -32 -160
q-41 -82 -124 -94q-35 -6 -88 -6h-92q-71 0 -108 18q-46 22 -74.5 81.5t-28.5 148.5q0 110 42 218q47 118 126 181q53 43 108 43q76 0 141 -67q54 -55 87 -137q43 -110 43 -226zM424 805q-18 -14 -55 -14q-16 0 -67.5 22t-84.5 22q-39 0 -49 -46l-3 -14q24 17 53 17
q23 0 68 -17q68 -26 69 -26q13 -4 20 -4q23 0 33 12q8 9 13 34zM524 256q0 107 -38 208q-45 118 -124 167q-41 25 -79 25q-65 0 -127 -71q-47 -55 -77 -130q-42 -106 -42 -211q0 -74 22 -129q30 -72 92 -84q27 -5 67 -5h92q77 0 110 13q49 17 77 75q27 55 27 142zM390 285
q0 -72 -21 -103q-25 -38 -90 -38q-26 0 -43 5q-61 18 -61 121q0 74 23 155q31 110 85 110q51 0 83 -102q24 -80 24 -148zM360 285q0 49 -20 125q-25 95 -57 95q-24 0 -47 -61q-16 -42 -23 -82q-8 -49 -8 -92q0 -81 39 -92q13 -4 35 -4q41 0 53 11q28 26 28 100z" />
    <glyph glyph-name="OE" unicode="&#x152;" horiz-adv-x="842" 
d="M236 180q14 -3 34 -3q42 0 54 11q28 26 28 100q0 51 -20 127q-25 93 -57 93q-4 0 -7 -2q-36 -24 -56 -108q-16 -66 -16 -126q0 -79 40 -92zM229 151q-63 19 -63 121q0 68 19 139q23 90 65 119q11 8 25 8q51 0 82 -102q25 -78 25 -148q0 -72 -22 -103q-25 -38 -90 -38
q-23 0 -41 4zM302 0h-92q-72 0 -109 17q-46 22 -74.5 81t-28.5 148q0 110 43 218q46 119 125 182q55 43 107 43q57 0 113 -41q11 17 35 17h336q45 0 45 -25q0 -7 -5 -17q-12 -36 -45 -102q-9 -13 -20 -13q-4 0 -26 9q-25 10 -28 11q-25 7 -51 7q-41 0 -67 -19
q-30 -21 -30 -61q0 -14 9 -18l1 -1h2q10 0 43 10.5t57 10.5q26 0 51 -8q34 -11 34 -31q0 -5 -5 -17l-36 -102q-9 -26 -25 -26q-11 0 -21 13q-17 16 -41 16q-31 0 -50 -26q-18 -22 -18 -54q0 -40 26.5 -67t65.5 -27q41 0 84 30q13 12 23 12q18 0 42 -54q14 -35 28 -71
q6 -13 6 -20q0 -25 -46 -25h-294q-12 0 -34.5 1t-34.5 1q-16 0 -47.5 -1t-47.5 -1zM773 31l-1 3q-13 35 -45 102l-1 -1q-53 -37 -103 -37q-52 0 -87 36t-35 88q0 44 27 77t71 33q37 0 63 -26q1 -2 4 -5q-3 0 -5 2q-1 -3 -7 -3q13 19 23 54q15 51 17 57l1 4q-18 12 -53 12
q-20 0 -52.5 -10.5t-47.5 -10.5q-8 0 -17 4q-25 12 -25 45q0 52 38 82q35 28 89 28q55 0 102 -24q1 2 41 94h-13h-336q-4 0 -7 -1.5t-16 -35.5q-71 61 -125 61q-58 0 -116 -62q-46 -49 -76 -115q-53 -115 -53 -236q0 -74 23 -128q29 -72 91 -83q27 -5 68 -5h92q16 0 47.5 1
t47.5 1q12 0 34.5 -1t34.5 -1h294q8 0 13 1z" />
    <glyph glyph-name="oe" unicode="&#x153;" horiz-adv-x="818" 
d="M589 356q0 3 -1 6q-4 10 -15 10q-20 0 -33.5 -21.5t-13.5 -41.5q0 -7 1 -9t3 -2q12 0 30.5 14t23.5 24t5 20zM619 356q0 -37 -41 -68q-25 -20 -48 -20q-10 0 -18 4q-16 10 -16 37q0 33 22 63t55 30t44 -31q2 -9 2 -15zM311 150q52 1 52 113q0 31 -8 58q-12 40 -34 40
q-46 0 -46 -99q0 -101 36 -112zM305 120q-60 15 -60 142q0 129 76 129q38 0 57 -47q15 -35 15 -81q0 -143 -84 -143h-2h-2zM445 19q-45 -43 -127 -43q-113 0 -169 80q-48 69 -48 188q0 108 54 182q59 83 163 83q76 0 129 -51v1q57 50 140 50q76 0 122 -38q49 -41 49 -117
q0 -66 -52 -109q-31 -25 -98 -52q-56 -22 -60 -34q0 -20 25 -32q19 -9 41 -9q45 0 68 18q15 12 41 55q8 13 18 13q15 0 21 -35v-1q0 -61 -16 -98q-19 -44 -68 -71q-43 -23 -84 -23q-105 0 -149 43zM384 16q11 4 35 22q21 16 27 16q5 0 28 -18t42 -22q34 -8 78 -8
q38 0 72.5 21t52.5 54q13 26 13 86q-1 8 -3 12q10 0 12 -5q3 4 10 4q-4 -4 -12 -21q-36 -69 -125 -69q-36 0 -64 18q-32 20 -32 55v2q7 29 63 52q82 35 97 45q50 35 50 94q0 63 -38.5 94t-102.5 31q-72 0 -121 -44q-13 -9 -20 -9q-4 0 -41 26.5t-87 26.5q-91 0 -142 -74
q-45 -65 -45 -161q0 -238 187 -238q37 0 66 10z" />
    <glyph glyph-name="endash" unicode="&#x2013;" horiz-adv-x="503" 
d="M408 300q32 0 34 -23l1 -49q0 -26 -35 -26h-370q-35 0 -35 36v34q6 28 34 28h371zM34 270l-1 -1v-31v-6h5h375v38h-5h-371h-3z" />
    <glyph glyph-name="emdash" unicode="&#x2014;" horiz-adv-x="741" 
d="M647 300q32 0 34 -23v-49q0 -26 -35 -26h-609q-35 0 -35 36v34q5 28 33 28h612zM32 270v-1v-31v-2.5v-3.5h5h614l1 38h-5h-615z" />
    <glyph glyph-name="quotedblleft" unicode="&#x201c;" horiz-adv-x="417" 
d="M258 524q0 27 -29 34t-29 26q0 17 38.5 59t55.5 42q32 0 55 -35t23 -74q0 -58 -30 -95t-79 -47h-1q-26 0 -26 19q0 6 11 29t11 42zM279 476q63 24 63 100q0 27 -16 50q-13 20 -31 27q-38 -20 -61 -64q54 -14 54 -65q0 -24 -9 -48zM58 524q0 27 -29 34t-29 26
q0 17 38.5 59t55.5 42q32 0 55 -35t23 -74q0 -58 -30 -95t-79 -47h-1q-26 0 -26 19q0 6 11 29t11 42zM79 476q63 24 63 100q0 27 -16 50q-13 20 -31 27q-38 -20 -61 -64q54 -14 54 -65q0 -24 -9 -48z" />
    <glyph glyph-name="quotedblright" unicode="&#x201d;" horiz-adv-x="418" 
d="M114 596q0 -28 29 -35t29 -25t-39 -60t-55 -42q-32 0 -56 37q-22 34 -22 73q0 57 29.5 94t78.5 47h2q25 0 25 -19q0 -5 -10.5 -28.5t-10.5 -41.5zM93 644q-63 -24 -63 -100q0 -28 15 -51q14 -19 31 -27q39 21 61 64q-53 14 -53 66q0 23 9 48zM314 596q0 -28 29 -35
t29 -25t-39 -60t-55 -42q-32 0 -56 37q-22 34 -22 73q0 57 29.5 94t78.5 47h2q25 0 25 -19q0 -5 -10.5 -28.5t-10.5 -41.5zM293 644q-63 -24 -63 -100q0 -28 15 -51q14 -19 31 -27q39 21 61 64q-53 14 -53 66q0 23 9 48z" />
    <glyph glyph-name="quoteleft" unicode="&#x2018;" horiz-adv-x="218" 
d="M114 596q0 -28 29 -35t29 -25t-39 -60t-55 -42q-32 0 -56 37q-22 34 -22 73q0 57 29.5 94t78.5 47h2q25 0 25 -19q0 -5 -10.5 -28.5t-10.5 -41.5zM93 644q-63 -24 -63 -100q0 -28 15 -51q14 -19 31 -27q39 21 61 64q-53 14 -53 66q0 23 9 48z" />
    <glyph glyph-name="quoteright" unicode="&#x2019;" horiz-adv-x="217" 
d="M58 524q0 27 -29 34t-29 26q0 17 38.5 59t55.5 42q32 0 55 -35t23 -74q0 -58 -30 -95t-79 -47h-1q-26 0 -26 19q0 6 11 29t11 42zM79 476q63 24 63 100q0 27 -16 50q-13 20 -31 27q-38 -20 -61 -64q54 -14 54 -65q0 -24 -9 -48z" />
    <glyph glyph-name="divide" unicode="&#xf7;" 
 />
    <glyph glyph-name="ydieresis" unicode="&#xff;" horiz-adv-x="451" 
d="M223 317h4q-1 -1 -4 -1q16 19 16 94q0 14 -4.5 37.5t-4.5 34.5q0 28 39 28h89q38 0 46 -20q4 -10 4 -58q0 -133 -66 -252q-72 -129 -190 -172q-68 -25 -114 -25q-33 0 -33 37v81q3 28 34 28h1q6 -1 18 -1q19 0 43 8q30 11 30 27q0 5 -25 28q-31 27 -32 28q-72 79 -69 238
q0 53 37 53h118q35 0 35 -34q0 -7 -1.5 -20t-1.5 -20q0 -24 8 -61q10 -46 23 -58zM164 480h-4h-118q-7 0 -7 -23q-3 -173 85 -241q41 -32 41 -53q0 -31 -38 -50q-31 -15 -65 -15q-4 0 -12 1h-11v0v-79v-7h3q53 0 113.5 27t97.5 65q61 64 95 151t34 176q0 33 -3 47h-1
q-5 1 -16 1h-89h-9q1 -12 5 -34q4 -18 4 -36q0 -123 -42 -123h-6q-29 0 -46 66q-13 47 -13 83q0 7 1.5 20t1.5 20q0 2 -1 4zM128 662q62 0 62 -61q-5 -52 -64 -52q-36 0 -52 25q-9 15 -9 31q0 27 18 42t45 15zM128 638q-39 0 -39 -36q0 -17 17 -26q6 -3 20 -3q37 0 40 29
q-1 36 -38 36zM290 662q64 0 62 -61q-2 -52 -65 -52q-35 0 -51 26q-9 13 -9 30q0 43 39 54q11 3 24 3zM290 638q-40 0 -39 -36q0 -17 17 -26q6 -3 19 -3q40 0 41 29q1 27 -18 34q-8 2 -20 2z" />
    <glyph glyph-name="Ydieresis" unicode="&#x178;" horiz-adv-x="550" 
d="M169 667q51 0 51 -34q0 -14 -2 -43t-2 -43q0 -54 8 -82q10 -41 41 -69q3 -4 7 -4t7 4q50 50 50 154q0 13 -2.5 39t-2.5 39q0 39 38 39h119q50 0 48 -50q-2 -65 -25.5 -136.5t-61.5 -123.5q-60 -84 -81 -120q-43 -76 -43 -134q0 -25 4 -39q4 -18 4 -30q0 -32 -48 -32h-103
q-34 0 -42.5 12t-8.5 48q0 73 39 153q3 7 3 11q0 10 -34 48q-22 25 -44 49q-55 63 -76 136q-18 62 -18 157q0 32 16 43q12 8 46 8h113zM296 34q0 8 -4 24t-4 45q0 62 35 128q16 30 74 113q49 70 67 116q9 24 21 72q15 59 15 87q0 11 -2 16q-4 2 -17 2h-119q-9 0 -7 0
q-1 -3 -1 -9q0 -13 2.5 -39t2.5 -39q0 -117 -59 -175q-12 -13 -28 -13q-29 0 -61 53q-25 40 -25 132q0 14 2 43t2 43v2q-7 2 -21 2h-113q-26 0 -29 -3.5t-3 -17.5q0 -104 22 -165t87 -134q20 -21 39 -43q24 -28 24 -48q0 -11 -6 -24q-36 -74 -36 -140q0 -22 1 -28
q4 -2 20 -2h103q18 0 18 2zM178 812q62 0 62 -61q-5 -52 -64 -52q-36 0 -52 25q-9 15 -9 31q0 27 18 42t45 15zM178 788q-39 0 -39 -36q0 -17 17 -26q6 -3 20 -3q37 0 40 29q-1 36 -38 36zM340 812q64 0 62 -61q-2 -52 -65 -52q-35 0 -51 26q-9 13 -9 30q0 43 39 54
q11 3 24 3zM340 788q-40 0 -39 -36q0 -17 17 -26q6 -3 19 -3q40 0 41 29q1 27 -18 34q-8 2 -20 2z" />
    <glyph glyph-name="currency" unicode="&#xa4;" 
 />
    <glyph glyph-name="guilsinglleft" unicode="&#x2039;" horiz-adv-x="176" 
d="M105 111q5 -13 17 -13q25 0 25 28q0 7 -2 13l-50 139q12 37 37 115l4 15q6 14 6 26q0 22 -21 22q-8 0 -18 -4l-99 -157q-8 -8 -8 -22q0 -15 11 -23q26 -39 80 -117zM21 275l96 152q-4 -26 -21 -76q-14 -39 -28 -77q15 -38 30 -75q19 -45 24 -77l-2 3l-11 15
q-19 27 -87 124q-8 5 -1 11z" />
    <glyph glyph-name="guilsinglright" unicode="&#x203a;" horiz-adv-x="176" 
d="M38 111q-5 -13 -18 -13q-25 0 -25 28q0 7 3 13l50 139q-13 37 -37 115l-4 15q-7 14 -7 26q0 22 21 22q8 0 19 -4l98 -157q9 -8 9 -22q0 -15 -11 -23l-81 -117zM121 275l-95 152q3 -26 21 -76q14 -39 28 -77q-16 -38 -31 -75q-18 -45 -24 -77l2 3l12 15q19 27 86 124
q9 5 1 11z" />
    <glyph glyph-name="periodcentered" unicode="&#xb7;" horiz-adv-x="243" 
d="M186 291q-1 -55 -49 -81q-19 -13 -50 -13q-37 0 -61 24t-28 63v1q0 51 21 82q25 36 74 36q46 0 70 -32t23 -80zM156 291q2 82 -63 82t-65 -87q6 -59 59 -59q22 0 35 9q34 17 34 55z" />
    <glyph glyph-name="periodcentered" unicode="&#x2219;" horiz-adv-x="243" 
d="M186 291q-1 -55 -49 -81q-19 -13 -50 -13q-37 0 -61 24t-28 63v1q0 51 21 82q25 36 74 36q46 0 70 -32t23 -80zM156 291q2 82 -63 82t-65 -87q6 -59 59 -59q22 0 35 9q34 17 34 55z" />
    <glyph glyph-name="quotesinglbase" unicode="&#x201a;" horiz-adv-x="228" 
d="M58 34q0 27 -29 34t-29 26q0 17 38.5 59t55.5 42q32 0 55 -35t23 -74q0 -58 -30 -95t-79 -47h-1q-26 0 -26 19q0 6 11 29t11 42zM79 -14q63 24 63 100q0 27 -16 50q-13 20 -31 27q-15 -8 -61 -64q54 -14 54 -65q0 -24 -9 -48z" />
    <glyph glyph-name="quotedblbase" unicode="&#x201e;" horiz-adv-x="438" 
d="M268 34q0 27 -29 34t-29 26q0 17 38.5 59t55.5 42q32 0 55 -35t23 -74q0 -58 -30 -95t-79 -47h-1q-26 0 -26 19q0 6 11 29t11 42zM289 -14q63 24 63 100q0 27 -16 50q-13 20 -31 27q-15 -8 -61 -64q54 -14 54 -65q0 -24 -9 -48zM58 34q0 27 -29 34t-29 26q0 17 38.5 59
t55.5 42q32 0 55 -35t23 -74q0 -58 -30 -95t-79 -47h-1q-26 0 -26 19q0 6 11 29t11 42zM79 -14q63 24 63 100q0 27 -16 50q-13 20 -31 27q-15 -8 -61 -64q54 -14 54 -65q0 -24 -9 -48z" />
    <glyph glyph-name="perthousand" unicode="&#x2030;" 
 />
    <glyph glyph-name="Acircumflex" unicode="&#xc2;" horiz-adv-x="586" 
d="M337 189q0 11 -2 18q-5 8 -25 11q-41 0 -71 -13q-41 -18 -41 -54q0 -26 21 -73.5t21 -56.5q0 -23 -31 -23h-128q-41 0 -55 27q-28 54 -28 144q0 146 52 272q58 142 166 218q38 27 64 27q45 0 107 -65q48 -50 78 -103q70 -127 70 -336q0 -168 -57 -181q-14 -3 -57 -3h-84
q-40 0 -40 24q0 4 3 13q37 107 37 154zM329 29q4 -1 8 -1h84q54 0 61 11q23 34 23 143q0 322 -179 453q-28 21 -46 21q-34 0 -96 -64q-49 -51 -75 -94q-36 -62 -60 -159q-21 -92 -21 -170q0 -33 7 -75q9 -57 25 -63q5 -3 21 -3h125q-38 81 -38 123q0 50 49 76q40 21 95 21h1
q38 -6 49 -28q5 -14 5 -31q0 -51 -38 -160zM216 369q1 -1 4 -2q30 4 48 4q20 0 51 -4q2 4 2 11q0 15 -17 58t-28 43q-13 0 -37 -46q-21 -42 -23 -60v-4zM187 360q-2 8 -1 14q1 26 25 71t45 58q9 6 20 6q31 0 57 -66q18 -45 18 -65q0 -41 -33 -41h-1q-30 4 -49 4
q-17 0 -47 -4h-1q-26 0 -33 23zM276 758q-19 1 -44 -19l-40 -32q-5 -3 -14 -3q-14 0 -26.5 7.5t-12.5 19.5t12 25q27 31 54 61q36 37 67 37q22 0 43 -17q45 -36 78 -82q5 -8 5 -15t-25 -32q-5 -4 -12 -4q-16 0 -47 23q-19 16 -38 31zM375 745q-1 0 -49 49q-32 33 -57 33
q-12 0 -25 -7q-23 -13 -76 -76q-6 -7 0 -13q4 -4 9 -4q11 0 44 30.5t50 30.5q5 0 10 -2.5t41 -31.5q33 -27 38 -26q18 4 15 17z" />
    <glyph glyph-name="Ecircumflex" unicode="&#xca;" horiz-adv-x="516" 
d="M215 436q11 0 43.5 10.5t57.5 10.5q44 0 72 -19q12 -10 12 -21q0 -4 -3 -16l-37 -102q-10 -27 -25 -27q-11 0 -22 13q-16 16 -41 16q-31 0 -48.5 -23.5t-17.5 -54.5q0 -41 25.5 -68t65.5 -27q34 0 68.5 20.5t37.5 20.5q21 0 50 -65q26 -59 26 -79q0 -25 -46 -25h-347
q-34 0 -48.5 12t-20.5 46q-14 83 -14 306q0 265 43 291q14 10 44 10h341q44 0 44 -26q0 -8 -3 -17q-13 -35 -46 -102q-9 -12 -19 -12q-4 0 -27 9q-26 10 -28 11q-25 6 -52 6q-40 0 -68 -20t-28 -59q0 -15 11 -19zM403 541q7 12 41 93q-5 1 -13 1h-341q-21 0 -28 -5t-12 -25
q-17 -62 -17 -241q0 -311 24 -329q6 -5 29 -5h347q9 0 14 1l-1 2q-13 35 -45 103l-2 -2q-50 -36 -102 -36t-86.5 36t-34.5 89q0 44 26 76t70 32q34 0 60 -22l37 105q-20 13 -53 13q-20 0 -52.5 -10.5t-48.5 -10.5q-9 0 -16 4q-25 11 -25 45q0 52 38 82q35 27 88 27
q56 0 103 -23zM266 758q-19 1 -44 -19l-40 -32q-5 -3 -14 -3q-14 0 -26.5 7.5t-12.5 19.5t12 25q27 31 54 61q36 37 67 37q22 0 43 -17q45 -36 78 -82q5 -8 5 -15t-25 -32q-5 -4 -12 -4q-16 0 -47 23q-19 16 -38 31zM365 745q-2 1 -50 48q-32 32 -54 32q-9 0 -18 -6
q-42 -24 -85 -75q-6 -7 0 -13q4 -4 9 -4q11 0 44 30.5t50 30.5q5 0 10 -2.5t41 -31.5q33 -27 38 -26q18 4 15 17z" />
    <glyph glyph-name="Aacute" unicode="&#xc1;" horiz-adv-x="586" 
d="M337 189q0 11 -2 18q-5 8 -25 11q-41 0 -71 -13q-41 -18 -41 -54q0 -26 21 -73.5t21 -56.5q0 -23 -31 -23h-128q-41 0 -55 27q-28 54 -28 144q0 146 52 272q58 142 166 218q38 27 64 27q45 0 107 -65q48 -50 78 -103q70 -127 70 -336q0 -168 -57 -181q-14 -3 -57 -3h-84
q-40 0 -40 24q0 4 3 13q37 107 37 154zM329 29q4 -1 8 -1h84q54 0 61 11q23 34 23 143q0 322 -179 453q-28 21 -46 21q-34 0 -96 -64q-49 -51 -75 -94q-36 -62 -60 -159q-21 -92 -21 -170q0 -33 7 -75q9 -57 25 -63q5 -3 21 -3h125q-38 81 -38 123q0 50 49 76q40 21 95 21h1
q38 -6 49 -28q5 -14 5 -31q0 -51 -38 -160zM216 369q1 -1 4 -2q30 4 48 4q20 0 51 -4q2 4 2 11q0 15 -17 58t-28 43q-13 0 -37 -46q-21 -42 -23 -60v-4zM187 360q-2 8 -1 14q1 26 25 71t45 58q9 6 20 6q31 0 57 -66q18 -45 18 -65q0 -41 -33 -41h-1q-30 4 -49 4
q-17 0 -47 -4h-1q-26 0 -33 23zM346 758q-92 -41 -164 -56q-16 -3 -32 19q-12 16 -12 27q0 9 9 15q135 103 154 112q8 3 15 3q29 0 60 -42q16 -21 16 -36q0 -22 -46 -42zM322 773q39 18 39 32q0 9 -9 20q-23 31 -37 31q-5 0 -9 -2q-37 -32 -114 -85q-25 -13 -25 -24
q0 -4 4.5 -10t16.5 -5q43 3 134 43z" />
    <glyph glyph-name="Edieresis" unicode="&#xcb;" horiz-adv-x="516" 
d="M215 436q11 0 43.5 10.5t57.5 10.5q44 0 72 -19q12 -10 12 -21q0 -4 -3 -16l-37 -102q-10 -27 -25 -27q-11 0 -22 13q-16 16 -41 16q-31 0 -48.5 -23.5t-17.5 -54.5q0 -41 25.5 -68t65.5 -27q34 0 68.5 20.5t37.5 20.5q21 0 50 -65q26 -59 26 -79q0 -25 -46 -25h-347
q-34 0 -48.5 12t-20.5 46q-14 83 -14 306q0 265 43 291q14 10 44 10h341q44 0 44 -26q0 -8 -3 -17q-13 -35 -46 -102q-9 -12 -19 -12q-4 0 -27 9q-26 10 -28 11q-25 6 -52 6q-40 0 -68 -20t-28 -59q0 -15 11 -19zM403 541q7 12 41 93q-5 1 -13 1h-341q-21 0 -28 -5t-12 -25
q-17 -62 -17 -241q0 -311 24 -329q6 -5 29 -5h347q9 0 14 1l-1 2q-13 35 -45 103l-2 -2q-50 -36 -102 -36t-86.5 36t-34.5 89q0 44 26 76t70 32q34 0 60 -22l37 105q-20 13 -53 13q-20 0 -52.5 -10.5t-48.5 -10.5q-9 0 -16 4q-25 11 -25 45q0 52 38 82q35 27 88 27
q56 0 103 -23zM158 812q62 0 62 -61q-5 -52 -64 -52q-36 0 -52 25q-9 15 -9 31q0 27 18 42t45 15zM158 788q-39 0 -39 -36q0 -17 17 -26q6 -3 20 -3q37 0 40 29q-1 36 -38 36zM320 812q64 0 62 -61q-2 -52 -65 -52q-35 0 -51 26q-9 13 -9 30q0 43 39 54q11 3 24 3zM320 788
q-40 0 -39 -36q0 -17 17 -26q6 -3 19 -3q40 0 41 29q1 27 -18 34q-8 2 -20 2z" />
    <glyph glyph-name="Egrave" unicode="&#xc8;" horiz-adv-x="516" 
d="M215 436q11 0 43.5 10.5t57.5 10.5q44 0 72 -19q12 -10 12 -21q0 -4 -3 -16l-37 -102q-10 -27 -25 -27q-11 0 -22 13q-16 16 -41 16q-31 0 -48.5 -23.5t-17.5 -54.5q0 -41 25.5 -68t65.5 -27q34 0 68.5 20.5t37.5 20.5q21 0 50 -65q26 -59 26 -79q0 -25 -46 -25h-347
q-34 0 -48.5 12t-20.5 46q-14 83 -14 306q0 265 43 291q14 10 44 10h341q44 0 44 -26q0 -8 -3 -17q-13 -35 -46 -102q-9 -12 -19 -12q-4 0 -27 9q-26 10 -28 11q-25 6 -52 6q-40 0 -68 -20t-28 -59q0 -15 11 -19zM403 541q7 12 41 93q-5 1 -13 1h-341q-21 0 -28 -5t-12 -25
q-17 -62 -17 -241q0 -311 24 -329q6 -5 29 -5h347q9 0 14 1l-1 2q-13 35 -45 103l-2 -2q-50 -36 -102 -36t-86.5 36t-34.5 89q0 44 26 76t70 32q34 0 60 -22l37 105q-20 13 -53 13q-20 0 -52.5 -10.5t-48.5 -10.5q-9 0 -16 4q-25 11 -25 45q0 52 38 82q35 27 88 27
q56 0 103 -23zM173 747q63 -28 160 -48q16 -4 30 15t14 26t-8 13q-29 23 -96 60q-52 29 -64.5 34.5t-23.5 5.5q-25 0 -45 -27q-16 -20 -16 -35q0 -23 49 -44zM198 768q-15 6 -29 12.5t-14 15.5q0 11 9 20.5t19 9.5q9 0 23 -6q18 -8 118 -61q25 -13 25 -24q0 -8 -6 -11
t-21 -2q-24 2 -124 46z" />
    <glyph glyph-name="Iacute" unicode="&#xcd;" horiz-adv-x="281" 
d="M241 639q0 -3 -1 -9l-2 -12q-38 -179 -38 -322q0 -119 27 -222l12 -42q1 -4 1 -7q0 -25 -42 -25l-128 -1q-24 0 -33 13q-5 6 -13 35q-18 72 -18 266q0 81 5 173q9 126 23 156q11 23 60 23h108q39 0 39 -26zM61 30q3 -1 9 -1h18q99 0 120 1l-1 3l-9 34q-28 106 -28 229
q0 146 38 329l3 11v3q3 -4 3 -6q-3 2 -12 2h-108q-27 0 -31 -3.5t-8 -30.5q-19 -124 -19 -288q0 -230 25 -282v-1zM213 757q-63 -28 -160 -48q-16 -4 -30 15t-14 26t8 13q29 23 96 60q51 29 64 34.5t24 5.5q25 0 45 -27q16 -20 16 -35q0 -23 -49 -44zM194 771q38 17 38 32
q0 10 -10 22q-11 16 -23 16q-7 0 -16 -4q-41 -23 -121 -68q-25 -13 -25 -24q0 -4 4 -9q7 -10 17 -9q44 3 136 44z" />
    <glyph glyph-name="Icircumflex" unicode="&#xce;" horiz-adv-x="285" 
d="M241 639q0 -3 -3 -21q-38 -179 -38 -322q0 -119 27 -222l12 -42q1 -4 1 -7q0 -25 -42 -25l-110 -1l-22 -1q-24 -1 -31 12q-2 2 -11 37q-18 72 -18 266q0 81 5 173q9 126 23 156q11 23 60 23h108q39 0 39 -26zM61 30q3 -1 9 -1h18q99 0 120 1l-1 3l-9 34q-28 106 -28 229
q0 119 43 322q2 12 1 14q-1 3 -12 3h-108q-27 0 -31 -3.5t-8 -30.5q-19 -124 -19 -288q0 -58 6 -149q6 -108 15 -126zM146 758q-19 1 -44 -19l-40 -32q-5 -3 -14 -3q-14 0 -26.5 7.5t-12.5 19.5t12 25q27 31 54 61q36 37 67 37q22 0 43 -17q45 -36 78 -82q5 -8 5 -15
t-25 -32q-5 -4 -12 -4q-16 0 -47 23q-19 16 -38 31zM245 745q-2 1 -50 48q-32 32 -54 32q-9 0 -18 -6q-28 -16 -78 -74q-4 -3 -8 -7q-3 -3 1 -7t9 -4q11 0 44 30.5t50 30.5q5 0 10 -2.5t41 -31.5q33 -27 38 -26q18 4 15 17z" />
    <glyph glyph-name="Idieresis" unicode="&#xcf;" horiz-adv-x="281" 
d="M241 639q0 -3 -1 -9l-2 -12q-38 -179 -38 -322q0 -119 27 -222l12 -42q1 -4 1 -7q0 -25 -42 -25l-128 -1q-24 0 -33 13q-5 6 -13 35q-18 72 -18 266q0 81 5 173q9 126 23 156q11 23 60 23h108q39 0 39 -26zM61 30q3 -1 9 -1h18q99 0 120 1l-1 3l-9 34q-28 106 -28 229
q0 146 38 329l3 11v3q3 -4 3 -6q-3 2 -12 2h-108q-27 0 -31 -3.5t-8 -30.5q-19 -124 -19 -288q0 -230 25 -282v-1zM68 822q62 0 62 -61q-5 -52 -64 -52q-36 0 -52 25q-9 15 -9 31q0 27 18 42t45 15zM68 798q-39 0 -39 -36q0 -17 17 -26q6 -3 20 -3q37 0 40 29q-1 36 -38 36z
M220 822q65 0 62 -61q-2 -52 -65 -52q-35 0 -51 26q-9 13 -9 30q0 43 39 54q11 3 24 3zM220 798q-40 0 -39 -36q0 -17 17 -26q6 -3 19 -3q40 0 41 29q1 27 -18 34q-8 2 -20 2z" />
    <glyph glyph-name="Igrave" unicode="&#xcc;" horiz-adv-x="285" 
d="M241 639q0 -3 -1 -9l-2 -12q-38 -179 -38 -322q0 -119 27 -222l12 -42q1 -4 1 -7q0 -25 -42 -25l-128 -1q-24 0 -33 13q-5 6 -13 35q-18 72 -18 266q0 81 5 173q9 126 23 156q11 23 60 23h108q39 0 39 -26zM61 30q3 -1 9 -1h18q99 0 120 1l-1 3l-9 34q-28 106 -28 229
q0 146 38 329q2 10 -6 10h-108q-27 0 -31 -3.5t-8 -30.5q-19 -124 -19 -288q0 -229 21 -275zM63 747q63 -28 160 -48q16 -4 30 15t14 26t-8 13q-29 23 -96 60q-52 29 -64.5 34.5t-23.5 5.5q-25 0 -45 -27q-16 -20 -16 -35q0 -23 49 -44zM88 768q-15 6 -29 12.5t-14 15.5
q0 11 9 20.5t19 9.5q9 0 23 -6q18 -8 118 -61q25 -13 25 -24q0 -8 -6 -11t-21 -2q-24 2 -124 46z" />
    <glyph glyph-name="Oacute" unicode="&#xd3;" horiz-adv-x="604" 
d="M283 686q76 0 141 -67q54 -55 87 -137q43 -110 43 -226q0 -94 -32 -160q-41 -82 -124 -94q-35 -6 -88 -6h-92q-71 0 -108 18q-46 22 -74.5 81.5t-28.5 148.5q0 110 42 218q47 118 126 181q53 43 108 43zM283 656q-65 0 -127 -71q-47 -55 -77 -130q-42 -106 -42 -211
q0 -74 22 -129q30 -72 92 -84q27 -5 67 -5h92q77 0 110 13q49 17 77 75q27 55 27 142q0 107 -38 208q-45 118 -124 167q-41 25 -79 25zM244 178q13 -4 35 -4q41 0 53 11q28 26 28 100q0 49 -20 125q-25 95 -57 95q-24 0 -47 -61q-16 -42 -23 -82q-8 -49 -8 -92q0 -81 39 -92
zM236 149q-61 18 -61 121q0 74 23 155q31 110 85 110q51 0 83 -102q24 -80 24 -148q0 -72 -21 -103q-25 -38 -90 -38q-26 0 -43 5zM353 757q-63 -28 -160 -48q-16 -4 -30 15t-14 26t8 13q29 23 96 60q51 29 64 34.5t24 5.5q25 0 45 -27q16 -20 16 -35q0 -23 -49 -44z
M334 771q38 17 38 32q0 10 -10 22q-11 16 -23 16q-7 0 -16 -4q-41 -23 -121 -68q-25 -13 -25 -24q0 -4 4 -9q7 -10 17 -9q44 3 136 44z" />
    <glyph glyph-name="Ocircumflex" unicode="&#xd4;" horiz-adv-x="604" 
d="M283 686q76 0 141 -67q54 -55 87 -137q43 -110 43 -226q0 -94 -32 -160q-41 -82 -124 -94q-35 -6 -88 -6h-92q-71 0 -108 18q-46 22 -74.5 81.5t-28.5 148.5q0 110 42 218q47 118 126 181q53 43 108 43zM283 656q-65 0 -127 -71q-47 -55 -77 -130q-42 -106 -42 -211
q0 -74 22 -129q30 -72 92 -84q27 -5 67 -5h92q77 0 110 13q49 17 77 75q27 55 27 142q0 107 -38 208q-45 118 -124 167q-41 25 -79 25zM244 178q13 -4 35 -4q41 0 53 11q28 26 28 100q0 49 -20 125q-25 95 -57 95q-24 0 -47 -61q-16 -42 -23 -82q-8 -49 -8 -92q0 -81 39 -92
zM236 149q-61 18 -61 121q0 74 23 155q31 110 85 110q51 0 83 -102q24 -80 24 -148q0 -72 -21 -103q-25 -38 -90 -38q-26 0 -43 5zM296 758q-19 1 -44 -19l-40 -32q-5 -3 -14 -3q-14 0 -26.5 7.5t-12.5 19.5t12 25q27 31 54 61q36 37 67 37q22 0 43 -17q45 -36 78 -82
q5 -8 5 -15t-25 -32q-5 -4 -12 -4q-16 0 -47 23q-19 16 -38 31zM395 745q-2 1 -50 48q-32 32 -54 32q-9 0 -18 -6q-28 -16 -78 -74q-4 -3 -8 -7q-3 -3 1 -7t9 -4q11 0 44 30.5t50 30.5q5 0 10 -2.5t41 -31.5q33 -27 38 -26q18 4 15 17z" />
    <glyph glyph-name="Ograve" unicode="&#xd2;" horiz-adv-x="604" 
d="M283 686q76 0 141 -67q54 -55 87 -137q43 -110 43 -226q0 -94 -32 -160q-41 -82 -124 -94q-35 -6 -88 -6h-92q-71 0 -108 18q-46 22 -74.5 81.5t-28.5 148.5q0 110 42 218q47 118 126 181q53 43 108 43zM283 656q-65 0 -127 -71q-47 -55 -77 -130q-42 -106 -42 -211
q0 -74 22 -129q30 -72 92 -84q27 -5 67 -5h92q77 0 110 13q49 17 77 75q27 55 27 142q0 107 -38 208q-45 118 -124 167q-41 25 -79 25zM244 178q13 -4 35 -4q41 0 53 11q28 26 28 100q0 49 -20 125q-25 95 -57 95q-24 0 -47 -61q-16 -42 -23 -82q-8 -49 -8 -92q0 -81 39 -92
zM236 149q-61 18 -61 121q0 74 23 155q31 110 85 110q51 0 83 -102q24 -80 24 -148q0 -72 -21 -103q-25 -38 -90 -38q-26 0 -43 5zM203 757q63 -28 160 -48q16 -4 30 15t14 26t-8 13q-29 23 -96 60q-52 29 -64.5 34.5t-23.5 5.5q-25 0 -45 -27q-16 -20 -16 -35q0 -23 49 -44
zM228 778q-15 6 -29 12.5t-14 15.5q0 11 9 20.5t19 9.5q9 0 23 -6q18 -8 118 -61q25 -13 25 -24q0 -8 -6 -11t-21 -2q-24 2 -124 46z" />
    <glyph glyph-name="Uacute" unicode="&#xda;" horiz-adv-x="580" 
d="M382 8q-43 -23 -115 -23q-225 0 -256 264q-6 46 -6 97q0 98 24 258q6 40 19 50t51 10h108q39 0 39 -26q0 -4 -4 -21q-41 -189 -41 -266q0 -156 70 -156q66 0 66 143q0 62 -22 166l-24 113q-4 14 -4 21q0 26 40 26h107q38 0 51 -10.5t19 -49.5q21 -134 21 -225
q0 -296 -143 -371zM323 616l22 -106q22 -113 22 -172q0 -173 -96 -173q-100 0 -100 186q0 85 41 257q2 14 2 15q-1 1 -7 11h-108q-28 0 -32 -3.5t-8 -30.5q-24 -159 -24 -254q0 -233 114 -304q43 -27 118 -27q213 0 226 297q2 35 2 67q0 48 -9 140q-11 109 -23 113
q-8 2 -29 2h-107q-8 0 -8 -5zM340 747q-63 -28 -160 -48q-16 -4 -30 15t-14 26t8 13q29 23 96 60q52 29 64.5 34.5t23.5 5.5q25 0 45 -27q16 -20 16 -35q0 -23 -49 -44zM315 768q15 6 29 12.5t14 15.5q0 11 -9 20.5t-20 9.5q-9 0 -22 -6q-18 -8 -118 -61q-25 -13 -25 -24
q0 -8 6 -11t21 -2q24 2 124 46z" />
    <glyph glyph-name="Ucircumflex" unicode="&#xdb;" horiz-adv-x="579" 
d="M382 8q-43 -23 -115 -23q-225 0 -256 264q-6 46 -6 97q0 98 24 258q6 40 19 50t51 10h108q39 0 39 -26q0 -4 -4 -21q-41 -189 -41 -266q0 -156 70 -156q66 0 66 143q0 62 -22 166l-24 113q-4 14 -4 21q0 26 40 26h107q38 0 51 -10.5t19 -49.5q21 -134 21 -225
q0 -296 -143 -371zM323 616l22 -106q22 -113 22 -172q0 -173 -96 -173q-100 0 -100 186q0 85 41 257q2 14 2 15q-1 1 -7 11h-108q-28 0 -32 -3.5t-8 -30.5q-24 -159 -24 -254q0 -233 114 -304q43 -27 118 -27q213 0 226 297q2 35 2 67q0 48 -9 140q-11 109 -23 113
q-8 2 -29 2h-107q-8 0 -8 -5zM266 758q-19 1 -44 -19l-40 -32q-5 -3 -14 -3q-14 0 -26.5 7.5t-12.5 19.5t12 25q27 31 54 61q36 37 67 37q22 0 43 -17q45 -36 78 -82q5 -8 5 -15t-25 -32q-5 -4 -12 -4q-16 0 -47 23q-19 16 -38 31zM365 745q-2 1 -50 48q-32 32 -54 32
q-9 0 -18 -6q-28 -16 -78 -74q-4 -3 -8 -7q-3 -3 1 -7t9 -4q11 0 44 30.5t50 30.5q5 0 10 -2.5t41 -31.5q33 -27 38 -26q18 4 15 17z" />
    <glyph glyph-name="Ugrave" unicode="&#xd9;" horiz-adv-x="580" 
d="M382 8q-43 -23 -115 -23q-225 0 -256 264q-6 46 -6 97q0 98 24 258q6 40 19 50t51 10h108q39 0 39 -26q0 -4 -4 -21q-41 -189 -41 -266q0 -156 70 -156q66 0 66 143q0 62 -22 166l-24 113q-4 14 -4 21q0 26 40 26h107q38 0 51 -10.5t19 -49.5q21 -134 21 -225
q0 -296 -143 -371zM323 616l22 -106q22 -113 22 -172q0 -173 -96 -173q-100 0 -100 186q0 85 41 257q2 14 2 15q-1 1 -7 11h-108q-28 0 -32 -3.5t-8 -30.5q-24 -159 -24 -254q0 -233 114 -304q43 -27 118 -27q213 0 226 297q2 35 2 67q0 48 -9 140q-11 109 -23 113
q-8 2 -29 2h-107q-8 0 -8 -5zM173 747q63 -28 160 -48q16 -4 30 15t14 26t-8 13q-29 23 -96 60q-52 29 -64.5 34.5t-23.5 5.5q-25 0 -45 -27q-16 -20 -16 -35q0 -23 49 -44zM198 768q-15 6 -29 12.5t-14 15.5q0 11 9 20.5t19 9.5q9 0 23 -6q18 -8 118 -61q25 -13 25 -24
q0 -8 -6 -11t-21 -2q-24 2 -124 46z" />
    <glyph glyph-name="circumflex" unicode="&#x2c6;" horiz-adv-x="269" 
d="M166 758q-19 1 -44 -19l-40 -32q-5 -3 -14 -3q-14 0 -26.5 7.5t-12.5 19.5t12 25q27 31 54 61q36 37 67 37q22 0 43 -17q45 -36 78 -82q5 -8 5 -15t-25 -32q-5 -4 -12 -4q-16 0 -47 23q-19 16 -38 31zM265 745q-1 0 -49 49q-32 33 -57 33q-12 0 -25 -7q-23 -13 -76 -76
q-6 -7 0 -13q4 -4 9 -4q11 0 44 30.5t50 30.5q5 0 10 -2.5t41 -31.5q33 -27 38 -26q18 4 15 17z" />
    <glyph glyph-name="tilde" unicode="&#x2dc;" horiz-adv-x="316" 
d="M338 800q0 -26 -11 -57q-13 -37 -30.5 -47.5t-41.5 -10.5q-26 0 -78.5 23.5t-78.5 23.5q-22 0 -41.5 -16.5t-27.5 -16.5q-18 0 -18 21q0 24 12 56q13 36 31 49q14 10 24 11q-22 -1 19 -1q35 0 90.5 -23.5t64.5 -23.5q22 0 41.5 16.5t27.5 16.5q17 0 17 -21zM304 775
q-18 -14 -55 -14q-16 0 -67.5 22t-84.5 22q-39 0 -49 -46l-3 -14q24 17 53 17q24 0 73 -17q37 -12 73 -24q7 -3 8 -4.5t3 -1.5q23 0 33 12q8 9 13 34z" />
    <glyph glyph-name="macron" unicode="&#xaf;" horiz-adv-x="294" 
d="M45 730v114h270v-114h-270zM289 812h-215v-49h215v49z" />
    <glyph glyph-name="macron" unicode="&#x2c9;" horiz-adv-x="294" 
d="M45 730v114h270v-114h-270zM289 812h-215v-49h215v49z" />
    <glyph glyph-name="cedilla" unicode="&#xb8;" horiz-adv-x="294" 
d="M243 -1l-5 -36q77 -4 77 -62q0 -41 -41 -75q-46 -38 -113 -38q-7 0 -41 3q-32 -2 -32 41q0 19 10 34t27 13q72 -8 85 15q-19 4 -39 9q-27 6 -27 21q0 4 2 8q5 23 17 67q26 0 24 0q-6 -28 -16 -70q19 -5 39 -9q26 -8 26 -24q0 -5 -2 -11q-8 -18 -36 -28q-24 -8 -47 -6
l-29 3q-5 1 -7 -17t4 -21h1q36 -3 41 -3q38 0 77 22q43 23 49 54q1 7 1 12q0 45 -80 44l12 54h23z" />
    <glyph glyph-name="Scaron" unicode="&#x160;" 
 />
    <glyph glyph-name="scaron" unicode="&#x161;" 
 />
    <glyph glyph-name="brokenbar" unicode="&#xa6;" 
 />
    <glyph glyph-name="Eth" unicode="&#xd0;" 
 />
    <glyph glyph-name="eth" unicode="&#xf0;" 
 />
    <glyph glyph-name="Yacute" unicode="&#xdd;" 
 />
    <glyph glyph-name="yacute" unicode="&#xfd;" 
 />
    <glyph glyph-name="Thorn" unicode="&#xde;" 
 />
    <glyph glyph-name="thorn" unicode="&#xfe;" 
 />
    <glyph glyph-name="minus" unicode="&#xad;" 
 />
    <glyph glyph-name="minus" unicode="&#x2212;" 
 />
    <glyph glyph-name="multiply" unicode="&#xd7;" 
 />
    <glyph glyph-name="onesuperior" unicode="&#xb9;" 
 />
    <glyph glyph-name="twosuperior" unicode="&#xb2;" 
 />
    <glyph glyph-name="threesuperior" unicode="&#xb3;" 
 />
    <glyph glyph-name="onehalf" unicode="&#xbd;" 
 />
    <glyph glyph-name="onequarter" unicode="&#xbc;" 
 />
    <glyph glyph-name="threequarters" unicode="&#xbe;" 
 />
    <glyph glyph-name="Lslash" unicode="&#x141;" 
 />
    <glyph glyph-name="lslash" unicode="&#x142;" 
 />
    <glyph glyph-name="HT" 
 />
    <glyph glyph-name="LF" 
 />
    <glyph glyph-name="nonmarkingreturn" 
 />
    <glyph glyph-name="Zcaron" unicode="&#x17d;" 
 />
    <glyph glyph-name="zcaron" unicode="&#x17e;" 
 />
    <glyph glyph-name="DLE" 
 />
    <glyph glyph-name="DC1" 
 />
    <glyph glyph-name="DC2" 
 />
    <glyph glyph-name="DC3" 
 />
    <glyph glyph-name="DC4" 
 />
    <glyph glyph-name="RS" 
 />
    <glyph glyph-name="US" 
 />
    <glyph glyph-name="DEL" horiz-adv-x="1002" 
 />
    <glyph glyph-name="notequal" unicode="&#x2260;" 
 />
    <glyph glyph-name="infinity" unicode="&#x221e;" 
 />
    <glyph glyph-name="lessequal" unicode="&#x2264;" 
 />
    <glyph glyph-name="greaterequal" unicode="&#x2265;" 
 />
    <glyph glyph-name="partialdiff" unicode="&#x2202;" horiz-adv-x="326" 
d="M81 23l1 1v0zM279 303q0 -24 -21 -36q-8 -5 -41 -14q1 -143 13 -179q11 -31 11 -49q0 -34 -36 -29q-7 1 -17 1q-9 0 -28 -1t-28 -1q-40 0 -60 20l-1 1q-12 19 -12 140q0 15 1 50l-18 -5q-5 -2 -10 -2q-16 0 -25.5 14t-9.5 27v33q0 23 24 35q5 3 42 14q8 288 32 335
q6 16 38 16q13 0 37.5 -2.5t33.5 -3.5q38 0 38 -33q0 -5 -1 -12q-18 -84 -22 -254l25 8q5 1 10 1q25 0 25 -41v-33zM253 305v34q0 13 -9 13q-7 0 -23 -7q-21 -9 -29 -11q4 203 24 296q1 8 0 10q-2 2 -11 3q-25 2 -51 4q-35 2 -36 -3q-19 -46 -27 -341l-40 -10
q-25 -8 -25 -17v-34q0 -13 12 -13q-2 0 51 16q-1 -67 -1 -87q0 -111 6 -122q13 -15 42 -15q8 0 38 3q26 2 40 1q3 11 -8 43q-14 44 -14 197v10q61 19 61 30z" />
    <glyph glyph-name="summation" unicode="&#x2211;" horiz-adv-x="517" 
d="M372 471q-7 0 -21 10q-59 49 -107 50q-43 -9 -43 -42q0 -34 71 -71q51 -23 102 -47q96 -57 96 -165q0 -106 -78 -165q-71 -54 -178 -54q-89 0 -151 44q-69 50 -69 136q0 29 12 67q16 50 40 50q18 0 22 -23q8 -52 42.5 -82.5t86.5 -30.5q75 0 76 63q-4 24 -30 38
q-24 10 -47 20q-97 41 -131 74q-52 49 -52 137q0 98 68 150q61 46 160 46q90 0 164 -48q33 -21 37 -47v-1q0 -25 -23 -65q-25 -44 -47 -44zM41 240q-17 -32 -17 -73q0 -73 61 -114q53 -36 129 -36q95 0 157 45q69 51 69 144q0 82 -69 130q-65 33 -130 65q-70 36 -70 88
q0 59 70 72h1q55 0 118 -52q4 -3 17 -5q13 8 23.5 32t11.5 43q-3 11 -31 29q-22 14 -39 21q-44 17 -101 17q-86 0 -138 -38q-60 -43 -60 -128t61 -132q27 -20 137 -65q54 -23 62 -69v-2q0 -94 -106 -94q-58 0 -100 33t-56 89zM227 796q20 -1 45 19l40 32q5 3 14 3
q14 0 26.5 -7.5t12.5 -20.5q0 -11 -12 -24l-54 -62q-37 -36 -67 -36q-22 0 -43 17q-45 36 -78 82q-6 8 -6 15t26 31q4 5 12 5q16 0 46 -23q19 -16 38 -31zM129 809q2 -1 50 -48q32 -32 54 -32q9 0 18 5q28 17 77 74q5 4 9 8q3 3 -1 7t-9 4q-11 0 -44.5 -30.5t-49.5 -30.5
q-5 0 -10 2t-41 32q-33 27 -38 26q-18 -4 -15 -17z" />
    <glyph glyph-name="product" unicode="&#x220f;" horiz-adv-x="420" 
d="M200 383q-19 0 -19 -19q0 -16 62 -46.5t88 -58.5q36 -38 37 -97q1 -82 -58 -131q-55 -45 -137 -45q-72 0 -122 38q-55 41 -57 111q-1 22 9 54q12 42 32 42q10 0 23 -24q21 -34 31 -45q22 -26 52 -31q27 0 35 8q5 8 5 25q-5 17 -58 45q-108 57 -111 146q-2 77 50 121
q49 43 129 43q48 0 94 -21q52 -24 69 -63q4 -9 4 -16q0 -19 -27 -55.5t-46 -36.5q-11 0 -33 28t-52 28zM287 359q41 39 41 60q0 1 -1 3q-13 32 -58 51q-39 16 -78 16q-66 0 -107 -34t-42 -99q5 -54 46 -88q8 -8 75 -47q42 -24 48 -54v-1q0 -29 -11 -45q-18 -20 -60 -20h-1
q-73 12 -112 101q-1 2 -2 3q7 0 10 -4q2 1 7 1q-19 -24 -19 -57q0 -32 17 -62.5t44 -45.5q35 -21 89 -21q70 0 115 36q51 40 50 110q-1 57 -49 94q-4 3 -90 50q-48 26 -48 58q0 22 13.5 35.5t35.5 13.5q51 0 86 -52zM167 646q20 -1 45 19l40 32q5 3 14 3q14 0 26.5 -7.5
t12.5 -20.5q0 -11 -12 -24l-54 -62q-37 -36 -67 -36q-22 0 -43 17q-45 36 -78 82q-6 8 -6 15t26 31q4 5 12 5q16 0 46 -23q19 -16 38 -31zM69 659q2 -1 50 -48q32 -32 54 -32q9 0 18 5q28 17 77 74q5 4 9 8q3 3 -1 7t-9 4q-11 0 -44.5 -30.5t-49.5 -30.5q-5 0 -10 2t-41 32
q-33 27 -38 26q-18 -4 -15 -17z" />
    <glyph glyph-name="pi" unicode="&#x3c0;" horiz-adv-x="562" 
d="M179 665q51 0 51 -34q0 -14 -2 -43t-2 -43q0 -54 8 -82q10 -41 41 -69q3 -4 7 -4t7 4q50 50 50 154q0 13 -2.5 39t-2.5 39q0 39 38 39h119q50 0 48 -50q-2 -65 -25.5 -136.5t-61.5 -123.5q-60 -84 -81 -120q-43 -76 -43 -134q0 -25 4 -39q4 -18 4 -30q0 -32 -48 -32h-103
q-34 0 -42.5 12t-8.5 48q0 73 39 153q3 7 3 11q0 10 -34 48q-22 25 -44 49q-55 63 -76 136q-18 62 -18 157q0 32 16 43q12 8 46 8h113zM306 32q0 8 -4 24t-4 45q0 62 35 128q16 30 74 113q49 70 67 116q9 24 21 72q15 59 15 87q0 11 -2 16q-4 2 -17 2h-119q-9 0 -7 0
q-1 -3 -1 -9q0 -13 2.5 -39t2.5 -39q0 -117 -59 -175q-12 -13 -28 -13q-29 0 -61 53q-25 40 -25 132q0 14 2 43t2 43v2q-7 2 -21 2h-113q-26 0 -29 -3.5t-3 -17.5q0 -104 22 -165t87 -134q20 -21 39 -43q24 -28 24 -48q0 -11 -6 -24q-36 -74 -36 -140q0 -22 1 -28
q4 -2 20 -2h103q18 0 18 2zM346 758q-92 -41 -164 -56q-16 -3 -32 19q-12 16 -12 27q0 9 9 15q73 58 150 118q7 2 14 2q30 0 65 -47q16 -21 16 -36q0 -22 -46 -42zM322 773q39 18 39 32q0 9 -9 20q-23 31 -37 31q-5 0 -9 -2q-37 -32 -114 -85q-25 -13 -25 -24q0 -4 4.5 -10
t16.5 -5q43 3 134 43z" />
    <glyph glyph-name="integral" unicode="&#x222b;" horiz-adv-x="448" 
d="M223 317h4q-1 -1 -4 -1q16 19 16 94q0 14 -4.5 37.5t-4.5 34.5q0 28 39 28h89q38 0 46 -20q4 -10 4 -58q0 -133 -66 -252q-72 -129 -190 -172q-68 -25 -114 -25q-33 0 -33 37v81q3 28 34 28h1q6 -1 18 -1q19 0 43 8q30 11 30 27q0 5 -25 28q-31 27 -32 28q-72 79 -69 238
q0 53 37 53h118q35 0 35 -34q0 -7 -1.5 -20t-1.5 -20q0 -24 8 -61q10 -46 23 -58zM164 480h-4h-118q-7 0 -7 -23q-3 -173 85 -241q41 -32 41 -53q0 -31 -38 -50q-31 -15 -65 -15q-4 0 -12 1h-11v0v-79v-7h3q53 0 113.5 27t97.5 65q61 64 95 151t34 176q0 33 -3 47h-1
q-5 1 -16 1h-89h-9q1 -12 5 -34q4 -18 4 -36q0 -123 -42 -123h-6q-29 0 -46 66q-13 47 -13 83q0 7 1.5 20t1.5 20q0 2 -1 4zM269 594q-74 -33 -131 -45q-13 -2 -25 15q-10 13 -10 22q0 7 7 12q116 89 121.5 91.5t11.5 2.5q24 0 50 -35q13 -18 13 -29q0 -18 -37 -34zM249 606
q32 15 32 25q0 8 -7 17q-16 22 -25 22q-4 0 -8 -2q-32 -24 -95 -65q-20 -11 -20 -19q0 -4 3 -7q4 -6 13 -5q35 2 107 34z" />
    <glyph glyph-name="Omega" unicode="&#x3a9;" horiz-adv-x="547" 
d="M332 223h-94q40 -73 126 -73q60 0 110 67l16 22q1 -5 10 -35q5 -18 5 -36q0 -80 -58 -125q-52 -40 -132 -42q-107 -1 -174 65q-58 56 -79 157h-32q-14 0 -23.5 9.5t-9.5 23.5v29q0 14 9.5 23.5t23.5 9.5h21q-1 9 -1 17q0 19 1 28h-21q-14 0 -23.5 9.5t-9.5 23.5v29
q0 14 9.5 23.5t23.5 9.5h34q23 93 80 147q64 62 161 62q67 0 112 -18q64 -26 64 -84q0 -39 -31 -69t-70 -30q-4 0 -24 2q10 27 10 37q0 43 -44 43q-67 0 -96 -90h106q14 0 23.5 -9.5t9.5 -23.5v-29q0 -14 -9.5 -23.5t-23.5 -9.5h-122v-4q0 -24 2 -41h120q14 0 23.5 -9.5
t9.5 -23.5v-29q0 -14 -9.5 -23.5t-23.5 -9.5zM391 493q26 4 45 25.5t19 46.5q0 76 -150 76q-173 0 -220 -209h-55q-7 0 -7 -7v-29q0 -7 7 -7h48q-2 -29 -2 -54q0 -15 2 -43h-48q-7 0 -7 -7v-29q0 -7 7 -7h53q42 -224 232 -222q72 1 117 37q49 38 47 104v3q-41 -47 -115 -47
q-114 0 -166 125h134q7 0 7 7v29q0 7 -7 7h-143q-5 34 -5 67q0 8 1 30h147q7 0 7 7v29q0 7 -7 7h-141q37 142 131 142q31 0 50.5 -19t19.5 -50q0 -6 -1 -12z" />
    <glyph glyph-name="Omega" unicode="&#x2126;" horiz-adv-x="547" 
d="M332 223h-94q40 -73 126 -73q60 0 110 67l16 22q1 -5 10 -35q5 -18 5 -36q0 -80 -58 -125q-52 -40 -132 -42q-107 -1 -174 65q-58 56 -79 157h-32q-14 0 -23.5 9.5t-9.5 23.5v29q0 14 9.5 23.5t23.5 9.5h21q-1 9 -1 17q0 19 1 28h-21q-14 0 -23.5 9.5t-9.5 23.5v29
q0 14 9.5 23.5t23.5 9.5h34q23 93 80 147q64 62 161 62q67 0 112 -18q64 -26 64 -84q0 -39 -31 -69t-70 -30q-4 0 -24 2q10 27 10 37q0 43 -44 43q-67 0 -96 -90h106q14 0 23.5 -9.5t9.5 -23.5v-29q0 -14 -9.5 -23.5t-23.5 -9.5h-122v-4q0 -24 2 -41h120q14 0 23.5 -9.5
t9.5 -23.5v-29q0 -14 -9.5 -23.5t-23.5 -9.5zM391 493q26 4 45 25.5t19 46.5q0 76 -150 76q-173 0 -220 -209h-55q-7 0 -7 -7v-29q0 -7 7 -7h48q-2 -29 -2 -54q0 -15 2 -43h-48q-7 0 -7 -7v-29q0 -7 7 -7h53q42 -224 232 -222q72 1 117 37q49 38 47 104v3q-41 -47 -115 -47
q-114 0 -166 125h134q7 0 7 7v29q0 7 -7 7h-143q-5 34 -5 67q0 8 1 30h147q7 0 7 7v29q0 7 -7 7h-141q37 142 131 142q31 0 50.5 -19t19.5 -50q0 -6 -1 -12z" />
    <glyph glyph-name="radical" unicode="&#x221a;" 
 />
    <glyph glyph-name="approxequal" unicode="&#x2248;" 
 />
    <glyph glyph-name="approxequal" unicode="&#x22f2;" 
 />
    <glyph glyph-name="Delta" unicode="&#x394;" 
 />
    <glyph glyph-name="Delta" unicode="&#x2206;" 
 />
    <glyph glyph-name="lozenge" unicode="&#x25ca;" 
 />
    <glyph glyph-name="fraction" unicode="&#x2044;" 
 />
    <glyph glyph-name="apple" unicode="&#xf000;" 
 />
    <glyph glyph-name="dotlessi" unicode="&#x131;" horiz-adv-x="250" 
d="M143 512q43 0 43 -36q0 -6 -4 -33q-9 -71 -9 -147q0 -121 24 -232q5 -23 5 -32q0 -30 -41 -30h-98q-36 0 -46 22q-2 6 -9 54q-9 58 -9 192q0 201 20 229q9 13 34 13h90zM172 33q-5 22 -12 64q-17 108 -17 199q0 78 9 151q4 24 4 29q0 3 -1 5h-1q-4 1 -11 1h-90
q-6 0 -9 -1q-15 -39 -15 -211q0 -211 16 -236q6 -2 18 -2h98q6 0 11 1z" />
    <glyph glyph-name="breve" unicode="&#x2d8;" horiz-adv-x="304" 
d="M179 710q-55 0 -98 27q-49 32 -49 84v4q17 20 36 20q20 0 39 -19v-5q0 -8 14 -16q20 -10 58 -10t58 10q14 8 14 16v4q17 20 36 20q20 0 39 -19v-5q0 -52 -49 -84q-43 -27 -98 -27zM179 735q47 0 83 22.5t39 57.5q-14 10 -25 0q-8 -45 -97 -45q-88 0 -97 44q-13 11 -25 2
q3 -36 39 -58.5t83 -22.5z" />
    <glyph glyph-name="dotaccent" unicode="&#x2d9;" horiz-adv-x="205" 
d="M158 812q62 0 62 -61q-5 -52 -64 -52q-36 0 -52 25q-9 15 -9 31q0 27 18 42t45 15zM158 788q-39 0 -39 -36q0 -17 17 -26q6 -3 20 -3q37 0 40 29q-1 36 -38 36z" />
    <glyph glyph-name="ring" unicode="&#x2da;" horiz-adv-x="230" 
d="M247 810q0 -42 -30 -71t-72 -29t-72 29t-30 71t30 71t72 29t72 -29t30 -71zM222 810q0 31 -22.5 53t-54.5 22t-54.5 -22t-22.5 -53t22.5 -53t54.5 -22t54.5 22t22.5 53zM118 810q0 -25 27 -25t27 25t-27 25t-27 -25zM93 810q0 21 15.5 35.5t36.5 14.5q22 0 37 -14.5
t15 -35.5t-15 -35.5t-37 -14.5q-21 0 -36.5 14.5t-15.5 35.5z" />
    <glyph glyph-name="hungarumlaut" unicode="&#x2dd;" horiz-adv-x="305" 
d="M310 796q-28 -40 -80 -85q-9 -8 -24 -2q-19 8 -19 16q0 9 29 59q26 44 37.5 60t28.5 16q9 0 20 -4q25 -11 25 -26q0 -12 -17 -34zM294 798q13 18 13 26q0 10 -15 17q-18 7 -28 -7q-20 -28 -54 -90q-8 -16 3 -21q8 -4 14 0q25 18 67 75zM190 796q-28 -40 -80 -85
q-9 -8 -24 -2q-19 8 -19 16q0 9 29 59q26 44 37.5 60t28.5 16q9 0 20 -4q25 -11 25 -26q0 -12 -17 -34zM174 798q13 18 13 26q0 10 -15 17q-18 7 -28 -7q-20 -28 -54 -90q-8 -16 3 -21q8 -4 14 0q25 18 67 75z" />
    <glyph glyph-name="ogonek" unicode="&#x2db;" horiz-adv-x="235" 
d="M126 -3q-7 -24 -7 -42q0 -38 16 -61q12 -17 23 -17q8 0 25 19t31 19q9 0 20 -6q18 -11 18 -30q0 -26 -30.5 -51.5t-63.5 -25.5q-55 0 -94 36.5t-39 90.5q0 31 4 40q7 15 15 31q1 1 15 1q14 -1 13 -3q-18 -35 -18 -64q0 -45 30.5 -76t73.5 -31q22 0 45.5 17.5t23.5 32.5
q0 13 -13 13q-6 0 -22.5 -18t-36.5 -18q-24 0 -42.5 28t-18.5 73q0 24 7 45q1 3 13 2q13 -2 12 -5z" />
    <glyph glyph-name="caron" unicode="&#x2c7;" horiz-adv-x="257" 
d="M137 786q20 -1 45 19l40 32q5 3 14 3q14 0 26.5 -7.5t12.5 -20.5q0 -11 -12 -24l-54 -62q-37 -36 -67 -36q-22 0 -43 17q-45 36 -78 82q-6 8 -6 15t26 31q4 5 12 5q16 0 46 -23q19 -16 38 -31zM39 799q2 -1 50 -48q32 -32 54 -32q9 0 18 5q28 17 77 74q5 4 9 8q3 3 -1 7
t-9 4q-11 0 -44.5 -30.5t-49.5 -30.5q-5 0 -10 2t-41 32q-33 27 -38 26q-18 -4 -15 -17z" />
    </font>
</defs>
</svg>
