<?xml version="1.0" standalone="no"?>
<!DOCTYPE svg PUBLIC "-//W3C//DTD SVG 1.1//EN" "http://www.w3.org/Graphics/SVG/1.1/DTD/svg11.dtd" >
<svg>
<metadata>
Created by FontForge 20120731 at Wed Apr 17 23:26:41 2019
 By www-data
Digitized by Dan X. Solo. Software (c) 2001 by Dover Publications, Inc., New York.
</metadata>
<defs>
<font id="RomanaOutlineNormal" horiz-adv-x="246" >
  <font-face 
    font-family="Romana Outline"
    font-weight="400"
    font-stretch="normal"
    units-per-em="1000"
    panose-1="0 0 4 0 0 0 0 0 0 0"
    ascent="800"
    descent="-200"
    x-height="482"
    cap-height="672"
    bbox="-62 -223.032 929 863"
    underline-thickness="20"
    underline-position="-123"
    unicode-range="U+0020-F002"
  />
<missing-glyph horiz-adv-x="500" 
d="M63 0v800h375v-800h-375zM125 63h250v675h-250v-675z" />
    <glyph glyph-name=".notdef" horiz-adv-x="500" 
d="M63 0v800h375v-800h-375zM125 63h250v675h-250v-675z" />
    <glyph glyph-name=".null" horiz-adv-x="0" 
 />
    <glyph glyph-name="glyph2" horiz-adv-x="212" 
 />
    <glyph glyph-name="space" unicode=" " horiz-adv-x="212" 
 />
    <glyph glyph-name="exclam" unicode="!" horiz-adv-x="276" 
d="M173 178h-86q-16 102 -32 205q-19 131 -19 204q0 97 94 97t94 -99q0 -61 -25 -237zM156 196q13 83 25 165q24 166 24 224q0 81 -75 81t-75 -79q0 -69 20 -208q14 -91 28 -183h53zM43 68q0 35 25.5 57.5t61.5 22.5t61 -22.5t25 -57.5t-26 -57t-63 -22q-35 0 -59.5 22
t-24.5 57zM62 68q0 -26 18.5 -43.5t46.5 -17.5q30 0 50 17.5t20 43.5q0 27 -19 44t-48 17t-48.5 -17.5t-19.5 -43.5z" />
    <glyph glyph-name="quotedbl" unicode="&#x22;" horiz-adv-x="387" 
d="M226 386l-39 294h147l-39 -294h-69zM243 405h35l35 256h-105zM39 386l-39 294h147l-40 -294h-68zM56 405h34l36 256h-105z" />
    <glyph glyph-name="numbersign" unicode="#" horiz-adv-x="592" 
d="M454 443l-47 -210h99l-17 -91h-104l-36 -143h-96l35 143h-74l-37 -143h-96l37 143h-105l18 91h109l47 210h-105l19 90h109l31 135h96l-32 -135h75l32 135h96l-32 -135h98l-18 -90h-102zM439 461h101l12 53h-100l32 135h-58l-31 -135h-114l32 135h-57l-32 -135h-108
l-12 -53h106l-55 -247h-109l-11 -53h107l-37 -143h57l37 143h113l-35 -143h57l36 143h103l10 53h-99zM236 233h75l46 210h-74zM213 214l55 247h112l-54 -247h-113z" />
    <glyph glyph-name="dollar" unicode="$" horiz-adv-x="466" 
d="M259 21v-86h-76v85q-58 9 -95 24.5t-89 50.5l30 142h58q-2 -119 96 -147v192q-85 36 -118 65q-53 46 -53 121q0 92 73 143q40 29 98 37v80h76v-81q46 -7 147 -56l-26 -135h-57q-5 89 -64 119v-182q89 -35 122 -62q56 -45 56 -122q0 -81 -62 -135q-44 -39 -116 -53z
M248 38q74 13 115 50q55 49 55 121t-58 115q-28 20 -120 56v222q91 -32 101 -128h23l21 107q-55 26 -72 32q-31 12 -73 18v78h-38v-78q-68 -8 -106 -35q-65 -46 -65 -128q0 -71 55 -114q28 -22 116 -59v-228q-130 28 -134 152h-23l-25 -116q48 -32 86 -45q34 -13 96 -21v-83
h38v83zM146 510q0 -45 37 -72v136q-37 -19 -37 -64zM127 510q0 64 75 92v-197q-39 22 -54 41q-21 25 -21 64zM259 95q40 23 40 71q0 42 -40 70v-141zM240 66v203q40 -23 55 -40q23 -26 23 -63q0 -68 -78 -100z" />
    <glyph glyph-name="percent" unicode="%" horiz-adv-x="709" 
d="M-8 493q0 77 41 131q45 60 122 60q70 0 114.5 -55t44.5 -136t-44 -136t-115 -55q-78 0 -124 60q-40 54 -39 131zM11 493q-1 -71 36 -120q39 -53 108 -53q61 0 100.5 49t39.5 124t-39.5 123.5t-100.5 48.5q-67 0 -107 -53q-37 -48 -37 -119zM45 -1l475 669h105l-475 -669
h-105zM81 18h60l448 631h-60zM356 174q1 77 41 131q45 60 122 60q71 0 115.5 -55t44.5 -136t-44.5 -136t-115.5 -55q-78 0 -123 60q-40 54 -40 131zM375 174q0 -71 36 -119q40 -53 108 -53q62 0 102 48.5t40 123.5t-40 124t-102 49q-67 0 -107 -53q-37 -49 -37 -120z
M122 501q0 -111 16 -130q5 -6 15 -6q30 0 30 125q0 131 -31 131q-30 0 -30 -120zM103 501q0 76 11.5 107.5t37.5 31.5q37 0 47 -63q3 -21 3 -87q0 -144 -49 -144q-32 0 -42 41q-8 31 -8 114zM487 183q0 -81 7 -109t23 -28q32 0 32 125q0 131 -33 131q-29 0 -29 -119z
M468 183q0 76 11.5 107t36.5 31q52 0 52 -150q0 -144 -51 -144q-40 0 -47 77q-2 28 -2 79z" />
    <glyph glyph-name="ampersand" unicode="&#x26;" horiz-adv-x="636" 
d="M365 47q-77 -64 -163 -64q-99 0 -152 66q-45 57 -45 133q0 87 64 148q43 42 119 71l-24 56q-14 34 -14 58q0 76 52.5 122.5t132.5 46.5q65 0 112 -26q52 -28 52 -76q0 -30 -22 -50t-52 -20q-53 0 -79 66q-10 26 -17 34q-5 4 -16 4q-37 0 -37 -46q0 -28 22 -69l137 -261
q24 51 27 59q10 25 10 51q0 19 -12 26q-6 3 -30 9v50h164v-49q-24 -8 -32 -17t-15 -35q-16 -67 -33 -100q-2 -4 -41 -67l39 -60q17 -28 33.5 -39.5t49.5 -18.5v-50h-201zM370 76l35 -58h171v16q-49 12 -80 62l-45 71q40 63 48 81q15 31 30 90q12 49 46 62v16h-126v-16
q12 -4 18 -8q21 -12 21 -43q0 -42 -16 -79q-1 -2 -37 -72l-154 295q-23 45 -23 77q0 28 15.5 46.5t39.5 18.5q26 0 41 -27q12 -25 23 -50q17 -27 48 -27q23 0 39 15t16 36q0 36 -42 59.5t-103 23.5q-73 0 -119.5 -41.5t-46.5 -108.5q0 -27 16 -64q14 -30 27 -61
q-88 -33 -130 -73q-58 -56 -58 -135q0 -69 41 -121q47 -59 137 -59q52 0 91 19q30 14 77 55zM149 238q0 -52 35 -107q37 -59 83 -59q26 0 64 32q-71 126 -117 229q-65 -42 -65 -95zM130 238q0 43 28 74q18 20 65 49q52 -121 131 -261q-53 -47 -87 -47q-57 0 -99 68
q-38 60 -38 117z" />
    <glyph glyph-name="quotesingle" unicode="'" horiz-adv-x="200" 
d="M39 386l-39 294h147l-40 -294h-68zM56 405h34l36 256h-105z" />
    <glyph glyph-name="parenleft" unicode="(" horiz-adv-x="311" 
d="M3 306q0 150 70 258q63 96 192 172v-65q-45 -52 -68 -99q-54 -113 -54 -270q0 -92 21 -177q25 -101 74 -161q5 -7 27 -32v-73q-58 45 -82 66q-45 39 -76 75q-104 123 -104 306zM22 306q0 -176 100 -294q40 -48 124 -115v28q-17 20 -23 27q-51 63 -77 168q-22 88 -22 182
q0 162 56 278q20 40 67 95l1 29q-123 -89 -174.5 -180.5t-51.5 -217.5z" />
    <glyph glyph-name="parenright" unicode=")" horiz-adv-x="310" 
d="M16 -129l-15 -13v74q43 48 64 91q58 114 58 279q0 190 -77 310q-13 21 -45 59v65q136 -95 193 -180q69 -103 69 -250q0 -211 -153 -357q-24 -23 -94 -78zM20 -103q54 43 77 66q147 140 147 343q0 125 -50.5 215t-173.5 179v-22q28 -34 42 -56q80 -125 80 -320
q0 -169 -60 -288q-22 -44 -62 -89v-28z" />
    <glyph glyph-name="asterisk" unicode="*" horiz-adv-x="365" 
d="M280 432l-73 41v-84h-77v85l-75 -42l-37 66l73 43l-73 42l37 66l75 -42v85h77v-85l73 42l39 -66l-74 -43l74 -42zM272 619l-87 -50v101h-33v-101l-88 50l-16 -28l86 -50l-86 -51l16 -28l88 50v-101h33v100l87 -49l17 28l-88 51l88 50z" />
    <glyph glyph-name="plus" unicode="+" horiz-adv-x="522" 
d="M303 117h-107v186h-191v104h191v186h107v-186h191v-104h-191v-186zM284 136v186h191v66h-191v186h-69v-186h-191v-66h191v-186h69z" />
    <glyph glyph-name="comma" unicode="," horiz-adv-x="244" 
d="M-3 -126q68 66 68 91q-10 6 -26 16q-34 21 -34 63q0 36 24.5 58t62.5 22q40 0 65 -25.5t25 -65.5q0 -61 -47 -125q-43 -56 -101 -88zM20 -129l14 -23q57 40 93 92t36 93q0 33 -19.5 52.5t-51.5 19.5q-31 0 -49.5 -16.5t-18.5 -44.5q0 -33 30 -50t30 -29q0 -32 -64 -94z
" />
    <glyph glyph-name="hyphen" unicode="-" horiz-adv-x="303" 
d="M5 317h243v-100h-243v100zM24 298v-62h205v62h-205z" />
    <glyph glyph-name="hyphen" unicode="&#x2010;" horiz-adv-x="303" 
d="M5 317h243v-100h-243v100zM24 298v-62h205v62h-205z" />
    <glyph glyph-name="period" unicode="." horiz-adv-x="231" 
d="M5 71q0 34 25.5 56.5t61.5 22.5t61 -22t25 -57t-26 -57t-63 -22q-35 0 -59.5 22t-24.5 57zM24 71q0 -26 18.5 -43.5t46.5 -17.5q30 0 50 17.5t20 43.5t-19 43.5t-48 17.5t-48.5 -17.5t-19.5 -43.5z" />
    <glyph glyph-name="slash" unicode="/" horiz-adv-x="309" 
d="M13 -67l211 801h107l-211 -801h-107zM37 -48h68l202 763h-68z" />
    <glyph glyph-name="zero" unicode="0" horiz-adv-x="555" 
d="M254 -17q-120 0 -186 96t-66 260q0 140 55 233q68 112 197 112q134 0 201 -116q55 -96 51 -234q-4 -145 -56 -236q-66 -115 -196 -115zM254 2q122 0 184 110q50 88 50 222q0 136 -51 225q-62 106 -183 106t-183 -107q-51 -88 -51 -219q0 -159 62 -248t172 -89zM254 621
q-94 0 -94 -282q0 -292 94 -292t94 287t-94 287zM254 640q49 0 75 -50q37 -71 37 -256q0 -306 -112 -306q-58 0 -85 74t-27 237q0 301 112 301z" />
    <glyph glyph-name="one" unicode="1" horiz-adv-x="292" 
d="M6 47q24 7 31 15t7 32v438q0 21 -10 27q-4 2 -28 6v49q53 19 70 26q22 10 65 34h64v-580q0 -23 7 -31.5t30 -15.5v-48h-236v48zM25 33v-15h198v15q-36 14 -36 61v561h-41q-56 -31 -121 -54v-20q37 -8 37 -49v-438q0 -47 -37 -61z" />
    <glyph glyph-name="two" unicode="2" horiz-adv-x="523" 
d="M391 305q-5 -4 -55 -36q-98 -65 -161 -139h130q50 0 72.5 12t48.5 55l54 -17l-53 -181h-424v46q72 102 153 180q86 85 111 119q54 74 54 150q0 46 -15 80q-21 45 -61 45q-33 0 -42.5 -37t-18.5 -72q-18 -39 -70 -39q-33 0 -55.5 19t-22.5 51q0 62 64 104q61 40 143 40
q104 0 168 -52q69 -56 69 -156q0 -105 -89 -172zM422 361q39 50 39 116q0 70 -35 116q-26 33 -76 53t-107 20q-77 0 -133 -36.5t-56 -88.5q0 -23 17 -37t43 -14q44 0 57 38q9 36 17 71q13 39 57 39q49 0 75 -50q20 -40 20 -94q0 -81 -55 -158q-27 -37 -116 -124
q-79 -78 -147 -173v-21h391l43 150l-22 7q-23 -38 -50 -51t-79 -13h-170q84 103 191 174q47 30 51 34q27 20 45 42z" />
    <glyph glyph-name="three" unicode="3" horiz-adv-x="510" 
d="M8 115q0 31 21 51.5t53 20.5q66 0 86 -94q7 -29 15.5 -37t29.5 -8q40 0 66.5 37.5t26.5 106.5q0 128 -127 128h-38v56q78 9 110 34q40 32 40 104q0 51 -20 79q-17 25 -45 25q-25 0 -34 -18q-4 -9 -7 -40q-9 -82 -82 -82q-30 0 -51 19t-21 48q0 60 64 101q61 38 140 38
q91 0 151.5 -46t60.5 -123q0 -100 -107 -148q55 -18 90 -63.5t35 -103.5q0 -95 -72 -156t-179 -61q-79 0 -140 36q-66 39 -66 96zM27 115q0 -46 56 -79.5t131 -33.5q101 0 166.5 56t65.5 142q0 80 -70 127q-25 18 -92 37q24 9 71 32q73 44 73 119q0 67 -54 108.5t-139 41.5
q-74 0 -130 -35.5t-56 -84.5q0 -21 15.5 -34.5t38.5 -13.5q43 0 55 36q8 34 15 68q12 36 53 36q38 0 61 -33t23 -90q0 -71 -35 -107.5t-116 -46.5v-21h20q146 0 146 -147q0 -74 -30.5 -118.5t-81.5 -44.5q-28 0 -42 13t-21 47q-17 79 -68 79q-24 0 -39.5 -15t-15.5 -38z" />
    <glyph glyph-name="four" unicode="4" horiz-adv-x="530" 
d="M407 97q0 -24 6 -32t31 -15v-51h-236v50q22 8 29 16.5t7 31.5v52h-251v58l281 467h133v-421h88v-104h-88v-52zM388 97v71h88v66h-88v421h-103l-273 -453v-34h251v-71q0 -46 -36 -61v-18h198v18q-37 14 -37 61zM106 253h138v231zM72 234l191 318v-318h-191z" />
    <glyph glyph-name="five" unicode="5" horiz-adv-x="497" 
d="M3 118q0 31 20.5 50.5t52.5 19.5q65 0 80 -75q7 -32 14 -44q13 -20 40 -20q38 0 65 47q31 52 31 135q0 77 -29 119t-73 42q-35 0 -60 -25q-16 -17 -36 -57l-62 4l14 364q92 -24 155 -24q96 0 176 39l39 -40q-39 -36 -57 -50q-27 -21 -63 -38q-87 -39 -176 -39h-6l-2 -82
q51 40 126 40q95 0 153.5 -64t58.5 -168q0 -119 -71 -194t-185 -75q-78 0 -139 38q-66 40 -66 97zM22 118q0 -46 56 -81t130 -35q106 0 171.5 69.5t65.5 180.5q0 96 -53 154.5t-140 58.5q-48 0 -81 -16q-29 -14 -65 -50l3 145h25q85 0 168 38q48 22 101 72l-16 16
q-74 -34 -172 -34q-63 0 -137 18l-13 -322l32 -2q42 81 107 81q54 0 87.5 -49t33.5 -131q0 -87 -33 -144t-82 -57q-41 0 -59 35q-11 33 -21 66q-14 38 -54 38q-54 0 -54 -51z" />
    <glyph glyph-name="six" unicode="6" horiz-adv-x="524" 
d="M73 65q-70 84 -70 239q0 157 57 257q70 123 213 123q93 0 143 -45q33 -30 33 -60q0 -29 -22.5 -48t-51.5 -19q-52 0 -88 71q-16 31 -38 31q-65 0 -79 -172q47 42 111 42q92 0 147.5 -68.5t55.5 -175.5q0 -112 -64.5 -184.5t-168.5 -72.5q-111 0 -178 82zM87 77
q62 -75 164 -75q95 0 154.5 66.5t59.5 171.5q0 101 -50.5 163t-133.5 62q-44 0 -76 -21q-23 -14 -57 -54q5 102 16 145q24 97 85 97q33 0 59.5 -50.5t66.5 -50.5q22 0 39 14t17 34q0 22 -28 46q-44 40 -130 40q-134 0 -199 -118q-52 -94 -52 -243q0 -148 65 -227zM255 416
q-87 0 -87 -187q0 -180 80 -180q79 0 79 188q0 59 -11 105q-18 74 -61 74zM255 435q54 0 77 -79q14 -50 14 -119q0 -207 -98 -207q-99 0 -99 199q0 206 106 206z" />
    <glyph glyph-name="seven" unicode="7" horiz-adv-x="485" 
d="M258 41v-42h-169q29 183 65 286q46 133 137 254h-162q-37 0 -48 -11.5t-21 -50.5h-58l15 195h430v-45q-110 -148 -152 -294q-37 -128 -37 -292zM240 41q0 166 37 297q43 149 151 295v20h-393l-13 -158h23q11 37 28 49.5t56 12.5h200q-101 -129 -148 -252
q-40 -104 -70 -287h129v23z" />
    <glyph glyph-name="eight" unicode="8" horiz-adv-x="532" 
d="M-2 168q0 104 134 170q-108 57 -108 162q0 81 64 132.5t159 51.5q90 0 152.5 -44t62.5 -114q0 -96 -111 -150q137 -71 137 -186q0 -90 -70 -148.5t-173 -58.5q-93 0 -163 43q-84 51 -84 142zM17 168q0 -80 75 -126q65 -40 153 -40q97 0 160.5 53.5t63.5 134.5
q0 70 -50 118q-33 31 -113 68q65 29 93 53q44 39 44 97q0 60 -56 99.5t-140 39.5q-89 0 -147 -46.5t-58 -118.5q0 -61 40 -102q30 -31 94 -60q-73 -34 -107 -62q-52 -46 -52 -108zM164 536q0 -77 101 -119q67 41 67 112q0 41 -24 65.5t-63 24.5q-36 0 -58.5 -23t-22.5 -60z
M145 536q0 45 28 73.5t72 28.5q47 0 76.5 -30t29.5 -79q0 -85 -85 -133q-121 49 -121 140zM142 180q0 -64 27.5 -97.5t72.5 -33.5q42 0 70 29.5t28 74.5q0 46 -27 78t-97 64q-42 -20 -58 -45t-16 -70zM123 180q0 53 21 83t72 52q69 -30 99 -59q44 -41 44 -103
q0 -53 -33.5 -88t-83.5 -35q-55 0 -87 40t-32 110z" />
    <glyph glyph-name="nine" unicode="9" horiz-adv-x="531" 
d="M215 -17q-65 0 -118 28q-58 30 -58 77q0 29 22.5 48t51.5 19q42 0 72 -42q10 -19 21 -38q13 -22 33 -22q66 0 79 172q-47 -43 -111 -43q-92 0 -148 70q-55 67 -55 174q0 113 64.5 185.5t167.5 72.5q142 0 208 -125q39 -74 39 -196q0 -157 -57 -257q-69 -123 -211 -123z
M215 2q133 0 198 119q52 96 52 241q0 149 -64 228q-61 75 -165 75q-94 0 -153.5 -66.5t-59.5 -172.5q0 -100 51 -162.5t133 -62.5q44 0 76 21q23 15 57 55q-5 -102 -16 -145q-23 -97 -85 -97q-29 0 -43 22.5t-26 44.5q-23 34 -57 34q-22 0 -39 -14t-17 -34q0 -35 48.5 -60.5
t109.5 -25.5zM161 430q0 -60 11 -105q18 -75 61 -75q86 0 86 187q0 181 -80 181q-78 0 -78 -188zM142 430q0 207 97 207q99 0 99 -200q0 -206 -105 -206q-54 0 -77 79q-14 50 -14 120z" />
    <glyph glyph-name="colon" unicode=":" horiz-adv-x="225" 
d="M5 336q0 35 25.5 57t61.5 22t61 -22t25 -57t-26 -57.5t-63 -22.5q-35 0 -59.5 22.5t-24.5 57.5zM24 336q0 -27 18.5 -44t46.5 -17q30 0 50 17.5t20 43.5t-19 43t-48 17t-48.5 -17t-19.5 -43zM5 69q0 35 25.5 57.5t61.5 22.5t61 -22t25 -58q0 -34 -26 -56.5t-63 -22.5
q-35 0 -59.5 22.5t-24.5 56.5zM24 69q0 -26 18.5 -43t46.5 -17q30 0 50 17.5t20 42.5q0 27 -19 44t-48 17t-48.5 -17.5t-19.5 -43.5z" />
    <glyph glyph-name="semicolon" unicode=";" horiz-adv-x="231" 
d="M7 331q0 35 25.5 57t61.5 22t61 -22t25 -57t-26 -57.5t-62 -22.5t-60.5 22.5t-24.5 57.5zM26 331q0 -27 18.5 -44t47.5 -17t49 17.5t20 43.5t-19 43t-48 17t-48.5 -17t-19.5 -43zM-3 -107q68 65 68 91q-10 6 -26 15q-34 22 -34 64q0 36 24.5 57.5t62.5 21.5q40 0 65 -25
t25 -65q0 -59 -55 -124q-41 -50 -100 -89zM20 -110l14 -24q57 40 93 92t36 94q0 32 -19.5 52t-51.5 20q-31 0 -49.5 -17t-18.5 -44q0 -33 30 -50.5t30 -28.5q0 -32 -64 -94z" />
    <glyph glyph-name="less" unicode="&#x3c;" horiz-adv-x="482" 
d="M1 365l438 275v-123l-273 -167l273 -177v-125l-438 286v31zM20 354v-10l400 -261v80l-288 188l288 176v78z" />
    <glyph glyph-name="equal" unicode="=" horiz-adv-x="503" 
d="M5 477h449v-103h-449v103zM24 458v-65h411v65h-411zM5 317h449v-103h-449v103zM24 298v-65h411v65h-411z" />
    <glyph glyph-name="greater" unicode="&#x3e;" horiz-adv-x="457" 
d="M441 365l-437 275v-123l273 -167l-273 -177v-125l437 286v31zM423 354v-10l-400 -261v80l288 188l-288 176v78z" />
    <glyph glyph-name="question" unicode="?" horiz-adv-x="442" 
d="M192 260l-8 -85h-81l-14 194q87 1 126 26q50 31 50 110q0 50 -22 80t-50 30q-26 0 -32 -18q-3 -6 -3 -38q-1 -37 -25.5 -60t-60.5 -23q-34 0 -57.5 20.5t-23.5 53.5q0 61 63 99q60 35 144 35q98 0 160 -55.5t62 -145.5q0 -110 -82 -172q-52 -40 -146 -51zM182 278
q96 10 145 48q74 57 74 157q0 82 -56 132.5t-147 50.5q-80 0 -134 -33t-54 -83q0 -24 17.5 -40t44.5 -16q29 0 47.5 18.5t19.5 47.5q0 13 1 33q4 41 53 41q38 0 64.5 -37t26.5 -92q0 -148 -175 -154l11 -157h47l7 83zM57 68q0 35 25.5 57.5t61.5 22.5t61 -22.5t25 -57.5
t-26 -57t-63 -22q-36 0 -60 22t-24 57zM76 68q0 -26 18.5 -43.5t46.5 -17.5q30 0 50 17.5t20 43.5q0 27 -19 44t-48 17t-48.5 -17.5t-19.5 -43.5z" />
    <glyph glyph-name="at" unicode="@" horiz-adv-x="757" 
d="M381 411q-45 0 -78.5 -49t-33.5 -119q0 -74 60 -74q56 0 84 64q9 21 32 116q-11 62 -64 62zM381 429q67 0 80 -81l-22 -94q-11 -46 -41.5 -74.5t-68.5 -28.5q-76 0 -76 92q0 76 37.5 131t90.5 55zM427 151q-39 -51 -116 -51q-130 0 -130 145q0 99 56.5 166.5t135.5 67.5
q65 0 96 -48l18 34h75l-60 -248q-3 -12 -3 -17q0 -25 29 -25q38 0 78 43q55 62 55 153q0 97 -70 159t-186 62q-139 0 -231 -89.5t-92 -229.5q0 -121 79 -194.5t213 -73.5q131 0 242 80l36 -54q-127 -99 -275 -99q-153 0 -252 79q-129 102 -129 259q0 141 81 244
q121 153 330 153q133 0 226 -70q108 -81 108 -225q0 -111 -67 -192t-163 -81q-72 0 -84 52zM311 118q48 0 75 19q23 16 51 61l1 -22q2 -58 73 -58q90 0 152 75t62 179q0 136 -104 212q-88 65 -214 65q-197 0 -311 -144q-78 -99 -78 -231q0 -156 116 -248q95 -76 243 -76
q139 0 252 85l-17 26q-107 -74 -238 -74q-139 0 -223.5 78t-84.5 208q0 147 96.5 242t242.5 95q121 0 196.5 -66.5t75.5 -172.5q0 -99 -60 -166q-44 -48 -89 -48t-45 43q0 8 3 22l55 225h-45l-26 -52q-19 37 -39.5 51.5t-57.5 14.5q-72 0 -124 -62t-52 -154q0 -127 114 -127
z" />
    <glyph glyph-name="A" unicode="A" horiz-adv-x="665" 
d="M388 49q31 8 31 18q0 8 -4 22l-37 112h-186l-36 -111q-3 -14 -3 -18q0 -13 52 -22v-51h-204v50q31 7 45.5 17t23.5 36l187 572h136l183 -572q8 -26 18 -36.5t34 -16.5v-50h-240v50zM407 34v-16h202v17q-35 11 -51 61l-179 559h-108l-183 -559q-16 -48 -68 -62v-16h166v16
q-52 11 -52 38q0 6 4 23l41 125h213l40 -125q6 -17 6 -28q0 -23 -31 -33zM219 277h135l-68 206zM193 258l93 286l94 -286h-187z" />
    <glyph glyph-name="B" unicode="B" horiz-adv-x="609" 
d="M292 2h-289v50q25 8 31 15t6 31v481q0 25 -6 31.5t-31 15.5v49h107q115 0 106 0q36 3 32 3q107 0 182 -31q108 -44 108 -141q0 -96 -106 -138q60 -22 97 -67q40 -49 40 -113q0 -113 -109 -162q-55 -24 -168 -24zM292 21q109 0 160 23q99 43 99 144q0 64 -46 111
q-41 44 -106 59l-35 8q75 22 105 43q51 35 51 97q0 84 -97 124q-71 29 -175 29q5 0 -30 -3q8 1 -108 1h-89v-18q38 -13 38 -67v-474q0 -26 -7.5 -38.5t-30.5 -21.5v-17h271zM203 578v-183h29q156 0 156 112q0 107 -131 107q-35 0 -44.5 -7.5t-9.5 -28.5zM184 578
q0 30 15.5 42.5t57.5 12.5q71 0 110.5 -33t39.5 -93q0 -131 -175 -131h-48v202zM238 326h-35v-229q0 -17 9 -23q11 -9 47 -9q44 0 72 9q32 11 54 46t22 78q0 128 -169 128zM238 345q79 0 120 -22q68 -37 68 -125q0 -49 -25 -89t-64 -53q-31 -10 -78 -10q-75 0 -75 51v248h54
z" />
    <glyph glyph-name="C" unicode="C" horiz-adv-x="581" 
d="M58 129q-52 82 -52 197q0 155 91.5 256.5t234.5 101.5q77 0 214 -58l-32 -148h-50q-41 134 -148 134q-67 0 -112 -65t-45 -173t47 -194q56 -104 152 -104q51 0 98 29q31 20 79 68l51 -39q-64 -74 -118 -108q-69 -43 -151 -43q-77 0 -146.5 39.5t-112.5 106.5zM74 139
q40 -63 105.5 -100t137.5 -37q127 0 242 129l-23 17q-91 -91 -178 -91q-108 0 -169 114q-49 91 -49 203q0 113 49.5 185t126.5 72q54 0 97.5 -35.5t63.5 -98.5h22l25 118q-120 50 -192 50q-135 0 -221 -95.5t-86 -243.5q0 -109 49 -187z" />
    <glyph glyph-name="D" unicode="D" horiz-adv-x="672" 
d="M288 -1h-287v50q25 8 31 15t6 31v481q0 25 -6 31.5t-31 15.5v49h105q26 0 76 2t76 2q186 0 283 -107q89 -97 89 -249q0 -185 -129 -269q-80 -52 -213 -52zM288 18q127 0 203 49q121 78 121 253q0 145 -85 237q-92 100 -269 100q-26 0 -76 -1.5t-76 -1.5h-87v-18
q23 -8 30.5 -20.5t7.5 -39.5v-481q0 -26 -7.5 -38.5t-30.5 -21.5v-17h269zM254 612q-31 0 -41 -5q-16 -8 -16 -34v-478q0 -32 66 -32q68 0 109 24q95 57 95 239q0 177 -89 246q-51 40 -124 40zM254 631q80 0 136 -44q96 -75 96 -261q0 -193 -104 -255q-46 -27 -119 -27
q-85 0 -85 51v478q0 32 17 45t59 13z" />
    <glyph glyph-name="E" unicode="E" horiz-adv-x="561" 
d="M7 1v50q25 8 31 15t6 31v480q0 24 -6 31t-31 15v50h489l12 -163h-56q-21 54 -47 76q-30 23 -85 23h-71q-26 0 -33.5 -6t-7.5 -22v-175h86q40 0 57 12t24 49h56v-194h-58q-3 39 -19.5 52.5t-59.5 13.5h-86v-236q0 -27 12 -34q9 -5 42 -5h63q67 0 104 28q34 26 60 91
l55 -23l-42 -159h-495zM25 20h462l34 129l-22 10q-26 -61 -67 -87.5t-107 -26.5h-63q-43 0 -58 12t-15 46v255h105q87 0 96 -67h22v157h-22q-14 -61 -96 -61h-105v194q0 47 60 47h71q56 0 89 -22.5t56 -77.5h23l-10 126h-453v-17q23 -8 30.5 -21t7.5 -39v-480
q0 -26 -7.5 -39t-30.5 -21v-17z" />
    <glyph glyph-name="F" unicode="F" horiz-adv-x="522" 
d="M420 563q-36 47 -110 47h-67q-26 0 -32.5 -5.5t-6.5 -22.5v-177h86q43 0 58.5 13t19.5 54h58v-198h-59q-3 53 -37 61q-14 3 -40 3h-86v-242q0 -27 9 -35q5 -4 35 -11v-51h-246v50q26 8 32 15t6 31v483q0 24 -6 31t-32 15v50h482l15 -163h-59q-6 23 -7 27q-4 14 -13 25z
M435 574q13 -16 20 -45h23l-12 126h-445v-17q23 -8 30.5 -21t7.5 -39v-483q0 -26 -7.5 -39t-30.5 -21v-17h208v17q-27 7 -35.5 19.5t-8.5 41.5v261h105q48 0 69.5 -14.5t25.5 -49.5h22v160h-22q-5 -36 -27 -51.5t-68 -15.5h-105v196q0 47 58 47h67q83 0 125 -55z" />
    <glyph glyph-name="G" unicode="G" horiz-adv-x="706" 
d="M7 322q0 150 106.5 256t257.5 106q85 0 253 -48l-32 -153h-50q-18 43 -26 57q-16 26 -43 44q-47 33 -103 33q-88 0 -142 -77q-57 -81 -57 -216q0 -112 40 -184q50 -90 151 -90q53 0 83 24q17 14 17 46v176q0 25 -6 32t-31 15v50h237v-50q-26 -8 -32 -15t-6 -32v-170
q0 -18 10 -23q3 -2 28 -6v-49q-105 -35 -153 -46q-79 -19 -155 -19q-150 0 -248.5 96t-98.5 243zM26 322q0 -139 92.5 -229.5t235.5 -90.5q64 0 122.5 12t166.5 48v19q-38 9 -38 45v170q0 27 7.5 39.5t30.5 21.5v17h-199v-17q22 -9 29.5 -21.5t7.5 -39.5v-176
q0 -89 -119 -89q-110 0 -165 96q-45 77 -45 197q0 141 60 226.5t158 85.5q61 0 114 -36q42 -29 70 -98h23l25 120q-149 43 -231 43q-144 0 -244.5 -100.5t-100.5 -242.5z" />
    <glyph glyph-name="H" unicode="H" horiz-adv-x="664" 
d="M374 52q26 8 32 15t6 31v220h-212v-220q0 -24 6 -31t32 -15v-50h-238v50q26 8 32 15t6 31v480q0 24 -6 31t-32 15v50h238v-50q-26 -8 -32 -15t-6 -31v-183h212v183q0 24 -6 31t-32 15v50h239v-50q-26 -8 -32 -15t-6 -31v-480q0 -24 6 -31t32 -15v-50h-239v50zM393 38v-17
h201v17q-23 8 -30 21t-7 39v480q0 26 7 39t30 21v17h-201v-17q23 -8 30.5 -21t7.5 -39v-202h-250v202q0 26 7.5 39t30.5 21v17h-200v-17q23 -8 30 -21t7 -39v-480q0 -26 -7 -39t-30 -21v-17h200v17q-23 8 -30.5 21t-7.5 39v239h250v-239q0 -26 -7.5 -39t-30.5 -21z" />
    <glyph glyph-name="I" unicode="I" horiz-adv-x="278" 
d="M1 51q24 8 30 15t6 31v479q0 24 -6 31t-30 15v50h226v-50q-24 -8 -30 -15t-6 -31v-479q0 -24 6 -31t30 -15v-50h-226v50zM19 37v-17h190v17q-22 8 -28.5 21t-6.5 39v479q0 26 6.5 39t28.5 21v17h-190v-17q22 -8 28.5 -21t6.5 -39v-479q0 -26 -6.5 -39t-28.5 -21z" />
    <glyph glyph-name="J" unicode="J" horiz-adv-x="370" 
d="M136 -145q2 4 2 14v708q0 24 -6 31t-31 15v50h238v-50q-26 -8 -32 -15t-6 -31v-621q0 -77 -45.5 -123.5t-122.5 -46.5q-58 0 -95 19q-44 23 -44 65q0 27 20.5 46t47.5 19q43 0 63 -43q2 -14 11 -37zM282 -44v621q0 26 7.5 39t30.5 21v17h-201v-17q23 -8 30.5 -21t7.5 -39
v-708q0 -34 -20 -34q-18 0 -30 51q-15 30 -45 30q-20 0 -34.5 -13.5t-14.5 -32.5q0 -30 33 -47.5t87 -17.5q69 0 109 40.5t40 110.5z" />
    <glyph glyph-name="K" unicode="K" horiz-adv-x="640" 
d="M354 49q13 3 31 10v2q0 6 -10 23l-125 209l-47 -58v-140q0 -24 6 -31t32 -15v-50h-240v50q25 8 31.5 15t6.5 31v482q0 24 -6.5 31t-31.5 15v50h240v-50q-26 -8 -32 -15t-6 -31v-223l190 236q10 13 12 21q-16 3 -47 9v53h200v-50q-52 -14 -88 -60l-120 -150l193 -307
q29 -46 69 -58v-49h-258v50zM373 34v-16h220v16q-35 13 -66 62l-200 319l128 160q38 47 85 62v17h-163v-17q47 -8 47 -26q0 -12 -16 -33l-224 -276v275q0 26 7.5 39t30.5 21v17h-202v-17q23 -8 30 -21t7 -39v-482q0 -26 -7 -39t-30 -21v-17h202v17q-23 8 -30.5 21t-7.5 39
v147l68 83l139 -231q13 -21 13 -33q0 -18 -31 -27z" />
    <glyph glyph-name="L" unicode="L" horiz-adv-x="543" 
d="M2 -1v50q23 7 30 20q6 10 6 36l1 471q0 25 -6 31.5t-31 14.5v50h239v-50q-25 -8 -31 -15t-6 -31v-480q0 -22 7 -27.5t46 -5.5h33q74 0 116 42q19 19 46 78l53 -23l-39 -161h-464zM20 18h431l32 131l-22 9q-21 -46 -41 -66q-49 -48 -130 -48h-33q-40 0 -53 7
q-19 10 -19 45v480q0 26 7.5 39t29.5 21v17h-202v-17q23 -8 30.5 -21t7.5 -39v-481q0 -26 -7.5 -39t-30.5 -21v-17z" />
    <glyph glyph-name="M" unicode="M" horiz-adv-x="829" 
d="M541 46q22 7 24 8q10 6 10 22q0 78 -19 194q-17 97 -33 193l-127 -464h-72l-136 477q-18 -129 -50 -385q-3 -22 5 -28.5t49 -14.5v-49h-188v48q29 7 39 14q14 10 18 35l65 483q3 26 -9 33q-4 3 -36 10v51h207l111 -376l104 376h204v-51q-25 -6 -28 -7q-14 -7 -14 -23
q0 -100 26 -249q21 -123 42 -247q4 -24 13 -33.5t33 -16.5v-47h-238v47zM560 32v-14h200v14q-38 14 -45 62q-22 124 -43 248q-26 150 -26 250q0 33 43 45v17h-172l-118 -425l-125 425h-174v-17q45 -11 45 -45q0 -7 -1 -15l-65 -483q-6 -48 -56 -62v-14h150v14q-30 7 -40 14
q-17 11 -15 36q7 98 28 239q17 118 34 235l158 -538h44l147 538q21 -120 41 -239q24 -144 24 -241q0 -32 -34 -44z" />
    <glyph glyph-name="N" unicode="N" horiz-adv-x="646" 
d="M572 -1h-135l-300 480v-383q0 -27 13 -35q7 -4 39 -10v-52h-191v52q33 5 39 10q13 8 13 35v480q0 27 -13 35q-7 5 -39 10v52h203l283 -452v355q0 27 -13 35q-7 5 -39 10v52h192v-52q-32 -5 -39 -10q-13 -8 -13 -35v-577zM553 18v558q0 28 11.5 41.5t40.5 19.5v17h-154
v-17q29 -6 40.5 -19.5t11.5 -41.5v-417l-312 495h-174v-17q29 -6 40.5 -19.5t11.5 -41.5v-480q0 -29 -11 -42t-41 -19v-17h153v17q-30 6 -41 19t-11 42v445l329 -523h106z" />
    <glyph glyph-name="O" unicode="O" horiz-adv-x="686" 
d="M100 72q-102 97 -102 267q0 145 92.5 245t229.5 100q139 0 230.5 -100.5t91.5 -250.5t-91.5 -250t-232.5 -100q-124 0 -218 89zM113 86q88 -84 205 -84q132 0 218.5 94t86.5 237t-86 237.5t-217 94.5q-129 0 -216 -94t-87 -232q0 -162 96 -253zM163 339q0 -143 45 -220
q41 -71 112 -71q90 0 130 106q27 73 27 179q0 138 -44 215q-42 71 -113 71q-69 0 -112 -71q-45 -75 -45 -209zM145 339q0 138 47.5 218.5t127.5 80.5q82 0 129 -81t47 -224q0 -115 -32 -193q-45 -111 -144 -111q-82 0 -128.5 81.5t-46.5 228.5z" />
    <glyph glyph-name="P" unicode="P" horiz-adv-x="592" 
d="M203 281v-185q0 -27 10 -35q5 -4 34 -11v-51h-244v50q25 8 31 15t6 31v481q0 25 -6 31.5t-31 15.5v49l271 1q132 1 210.5 -50.5t78.5 -148.5t-80 -147q-76 -48 -217 -48q-24 0 -63 2zM194 300q47 -2 72 -2q278 0 278 176q0 182 -313 182q-26 0 -65.5 -1t-49.5 -1h-95v-18
q23 -8 30.5 -20.5t7.5 -39.5v-481q0 -26 -7.5 -38.5t-30.5 -21.5v-17h207v17q-26 7 -35 19.5t-9 41.5v205zM247 609q-30 0 -37 -7t-7 -37v-219q26 -1 36 -1q90 0 128 30q35 28 35 95q0 89 -60 119q-42 20 -95 20zM247 628q57 0 103 -22q71 -35 71 -136q0 -76 -42.5 -110
t-139.5 -34q-8 0 -55 2v237q0 38 13 50.5t50 12.5z" />
    <glyph glyph-name="Q" unicode="Q" horiz-adv-x="701" 
d="M373 -15q-31 -5 -53 -5q-124 0 -218 90q-101 96 -101 259q0 151 91.5 252t231.5 101q138 0 229.5 -101t91.5 -250q0 -91 -38 -171q-41 -87 -114 -133q39 -47 73 -47q18 0 57 30l46 -43q-49 -38 -69 -48q-38 -21 -81 -21q-89 0 -146 87zM385 0q53 -83 134 -83q53 0 121 51
l-18 18q-33 -25 -56 -25q-31 0 -58 24q-12 10 -43 48q79 44 121 127q40 77 40 171q0 142 -86 237t-216 95q-131 0 -217.5 -95t-86.5 -239q0 -155 95 -246q89 -84 205 -84q21 0 62 6zM166 329q0 -139 45 -214q41 -70 113 -70q6 0 12 1q-39 59 -60 59q-5 0 -40 -13l-26 54
q63 32 94 32q53 0 119 -72q57 68 57 223q0 139 -44 215q-42 72 -111 72q-72 0 -114 -72q-45 -76 -45 -215zM147 329q0 143 47.5 224.5t130.5 81.5q81 0 127.5 -81.5t46.5 -224.5q0 -127 -33 -192q-12 -25 -42 -60q-39 43 -52 54q-34 28 -68 28q-26 0 -69 -21l10 -22
q23 8 31 8q25 0 53 -35q8 -10 37 -56q-27 -7 -42 -7q-83 0 -130 80t-47 223z" />
    <glyph glyph-name="R" unicode="R" horiz-adv-x="626" 
d="M235 284q-17 0 -36 2v-193q0 -24 6.5 -31t31.5 -15v-50h-239v50q26 8 32 15t6 31v484q0 24 -6 31t-32 15v50l285 1q127 0 202 -49q78 -52 78 -145q0 -89 -74 -143q-26 -18 -74 -34q74 -236 171 -315v-62q-140 67 -210 140q-79 83 -119 219q-9 -1 -22 -1zM235 303
q16 0 36 2q37 -132 105 -210q65 -76 191 -139v23q-97 83 -175 336q60 19 86 38q66 47 66 127q0 82 -69.5 128.5t-191.5 46.5l-266 -1v-17q23 -8 30.5 -21t7.5 -39v-484q0 -26 -7.5 -39t-30.5 -21v-17h201v17q-23 8 -30 21t-7 39v214q35 -4 54 -4zM199 564v-209q22 -2 41 -2
q162 0 162 128q0 56 -41 92t-109 36q-31 0 -42 -8.5t-11 -36.5zM181 564q0 35 15.5 49.5t55.5 14.5q75 0 121.5 -41t46.5 -106q0 -147 -180 -147q-22 0 -59 5v225z" />
    <glyph glyph-name="S" unicode="S" horiz-adv-x="539" 
d="M10 65l-5 3l32 159l60 -5v-9q0 -76 40 -117q44 -44 117 -44q47 0 76 27t29 69q0 39 -25 62q-29 27 -117 64q-99 41 -136 72q-61 53 -61 139q0 90 64 144.5t165 54.5q61 0 115 -18q34 -11 110 -48l-31 -147h-56q-13 145 -132 145q-42 0 -67 -24.5t-25 -62.5
q0 -43 28.5 -70t116.5 -61q99 -39 137 -69q62 -51 62 -136q0 -92 -69.5 -151t-173.5 -59q-128 0 -254 82zM26 77q118 -75 238 -75q97 0 161 54t64 137q0 93 -90 144q-82 36 -165 71q-89 44 -89 121q0 46 30.5 75.5t79.5 29.5q60 0 100.5 -38.5t48.5 -105.5h24l24 118
q-64 31 -98 42q-50 15 -105 15q-94 0 -152.5 -49.5t-58.5 -130.5q0 -94 88 -148l164 -74q88 -44 88 -115q0 -50 -35 -82t-89 -32q-81 0 -130 49q-44 44 -46 122l-26 2z" />
    <glyph glyph-name="T" unicode="T" horiz-adv-x="662" 
d="M438 599q-21 0 -26.5 -5t-5.5 -19v-480q0 -24 6 -31t32 -15v-50h-239v50q26 8 32 15t6 31v485q0 20 -33 20q-56 0 -93 -29q-32 -24 -58 -80l-56 9l43 173h554l45 -173l-57 -8q-31 53 -60 77q-37 30 -90 30zM438 618q97 0 160 -106l23 4l-36 138h-524l-35 -138l22 -4
q54 107 162 107q51 0 51 -39v-485q0 -26 -7 -39t-30 -21v-17h201v17q-23 8 -30.5 21t-7.5 39v480q0 43 51 43z" />
    <glyph glyph-name="U" unicode="U" horiz-adv-x="635" 
d="M564 222q0 -114 -63.5 -174t-182.5 -60q-143 0 -222 69q-60 52 -60 156v364q0 25 -6 32t-32 15v50h239v-50q-25 -8 -31.5 -15t-6.5 -32v-370q0 -71 19 -101q30 -48 112 -48q157 0 157 155v363q0 27 -13 36q-7 4 -39 9v53h181v-53q-32 -5 -39 -9q-13 -9 -13 -36v-354z
M545 222v354q0 29 11.5 42.5t40.5 18.5v18h-143v-18q29 -5 40.5 -18.5t11.5 -42.5v-363q0 -83 -46 -128.5t-130 -45.5q-92 0 -128 57q-21 34 -21 111v370q0 27 7 39.5t30 20.5v18h-201v-18q23 -8 30.5 -20.5t7.5 -39.5v-364q0 -107 70 -155q77 -51 193 -51q227 0 227 215z
" />
    <glyph glyph-name="V" unicode="V" horiz-adv-x="658" 
d="M377 -1h-134l-191 572q-14 42 -53 54v49h239v-49q-29 -9 -29 -17q0 -7 5 -24l133 -406l124 406q4 12 4 16q0 14 -51 23v51h197v-50q-29 -7 -41 -16q-15 -11 -23 -37zM364 18l175 559q15 48 63 62v16h-159v-16q50 -11 50 -39q0 -7 -4 -22l-142 -461l-151 462q-6 19 -6 29
q0 21 29 31v16h-201v-16q36 -14 52 -62l186 -559h108z" />
    <glyph glyph-name="W" unicode="W" horiz-adv-x="963" 
d="M681 -1h-127l-85 285l-83 -285h-125l-209 570q-15 44 -53 53v51h245v-51q-30 -7 -30 -15t5 -23l137 -387l62 220l-45 154q-11 41 -46 52v50h247v-51q-30 -7 -30 -18q0 -8 4 -21l109 -381l120 381q3 9 3 18q0 12 -43 21v51h189v-50q-28 -8 -41 -18t-21 -35zM667 18
l180 558q14 47 60 61v17h-151v-17q43 -10 43 -36q0 -12 -4 -23l-139 -441l-126 440q-5 17 -5 27q0 24 31 33v17h-211v-17q33 -13 46 -61l46 -159l-78 -282l-158 443q-6 18 -6 29q0 21 30 30v17h-207v-17q34 -12 52 -61l204 -558h98l97 332l99 -332h99z" />
    <glyph glyph-name="X" unicode="X" horiz-adv-x="659" 
d="M163 59q5 -3 32 -7v-53h-197v53q55 9 88 56l143 207l-160 250q-30 47 -67 60v48h263v-51q-13 -2 -33 -9v-2q0 -6 10 -23l90 -142l93 143q9 13 9 18v1q-4 7 -46 14v51h198v-49q-43 -12 -74 -59l-125 -191l168 -266q29 -46 68 -59v-50h-265v53q14 2 35 9v2q0 4 -10 21
l-101 163l-108 -163q-11 -16 -11 -25zM376 36v-18h228v18q-35 14 -65 61l-175 277l133 201q32 49 70 63v16h-161v-16q46 -10 46 -31q0 -11 -11 -29l-109 -166l-106 166q-13 22 -13 33q0 19 34 27v16h-226v-16q32 -14 63 -62l168 -261l-151 -218q-35 -50 -84 -61v-18h159v18
q-32 6 -32 23q0 14 14 36l124 186l116 -186q14 -22 14 -32q0 -20 -36 -27z" />
    <glyph glyph-name="Y" unicode="Y" horiz-adv-x="651" 
d="M405 279v-184q0 -24 6.5 -31t31.5 -15v-50h-248v50q26 8 32 15t6 31v184l-161 287q-26 46 -64 58v49h262q1 -30 0 -50q-25 -6 -25 -10q0 3 -3 -9q-3 -9 1 -17l118 -214l107 214q8 15 8 21q-4 6 -42 15v50l190 -1v-49q-49 -15 -71 -57zM387 284l149 291q24 46 69 62v16
l-152 1v-16q42 -11 42 -30q0 -10 -11 -30l-123 -244l-134 244q-11 20 -11 31q0 20 36 29v16h-225v-16q34 -14 61 -62l164 -292v-189q0 -26 -7.5 -39t-30.5 -21v-17h210v17q-23 8 -30 21t-7 39v189z" />
    <glyph glyph-name="Z" unicode="Z" horiz-adv-x="592" 
d="M309 78q72 0 114 23.5t82 84.5l50 -22l-37 -163h-516v55l322 541h-70q-64 0 -105.5 -25t-74.5 -81l-57 8l45 174h495l-356 -595h108zM309 59h-143l356 595h-446l-36 -139l24 -4q64 105 190 105h104l-337 -565v-31h482l30 133l-21 9q-38 -56 -84.5 -79.5t-118.5 -23.5z
" />
    <glyph glyph-name="bracketleft" unicode="[" horiz-adv-x="297" 
d="M8 691l243 1v-69h-44q-41 0 -46.5 -5.5t-5.5 -47.5v-587q0 -42 6 -48t46 -6h44v-68h-243v830zM27 672v-792h205v30h-25q-49 0 -60 11.5t-11 61.5v587q0 51 10 62.5t58 10.5l28 -1l1 29z" />
    <glyph glyph-name="backslash" unicode="\" horiz-adv-x="346" 
d="M-1 734h106l212 -801h-108zM23 715l201 -763h69l-203 763h-67z" />
    <glyph glyph-name="bracketright" unicode="]" horiz-adv-x="303" 
d="M244 691l-242 1v-73h44q40 0 46 -5.5t6 -47.5v-584q0 -42 -6 -48t-46 -6h-44v-67h242v830zM226 672v-792h-205v29h25q49 0 60 11.5t11 61.5v584q0 51 -10 62.5t-58 10.5l-28 -1l-1 33z" />
    <glyph glyph-name="asciicircum" unicode="^" horiz-adv-x="269" 
d="M251 713l-101 -1l-21 23l-19 -23l-102 1l80 100h88zM214 732l-50 61h-65l-52 -61h51l31 36l32 -36h53z" />
    <glyph glyph-name="underscore" unicode="_" horiz-adv-x="453" 
d="M-6 -91v-46h491v46h-491z" />
    <glyph glyph-name="grave" unicode="`" horiz-adv-x="267" 
d="M-2 821l121 2l61 -108h-64zM45 801l79 -66h20l-37 64z" />
    <glyph glyph-name="a" unicode="a" horiz-adv-x="503" 
d="M262 41q-68 -48 -128 -48q-56 0 -93.5 33t-37.5 84q0 79 99 132q51 28 150 68v80q0 31 -29 31q-18 0 -25 -13.5t-13 -27.5q-27 -64 -77 -64q-27 0 -46.5 17t-19.5 43q0 52 60 83q54 28 133 28q76 0 121.5 -31t45.5 -91v-282l8 13l49 -46q-34 -31 -50 -40q-28 -17 -61 -17
q-64 0 -86 48zM275 59q15 -47 73 -47q39 0 83 38l-18 17q-8 -13 -16 -13q-14 0 -14 19v292q0 103 -148 103q-75 0 -125 -26t-50 -66q0 -17 14 -29.5t34 -12.5q38 0 59.5 53t55.5 53q48 0 48 -50v-93q-108 -44 -161 -72q-88 -48 -88 -115q0 -43 31.5 -70.5t80.5 -27.5
q56 0 137 60zM175 193q-25 -22 -25 -59q0 -50 34 -50q22 0 68 29v124q-56 -25 -77 -44zM162 207q26 23 109 59v-163q-59 -37 -87 -37q-53 0 -53 68q0 46 31 73z" />
    <glyph glyph-name="b" unicode="b" horiz-adv-x="510" 
d="M110 25q-11 4 -22 4q-13 0 -61 -20l-26 50q35 24 42 42q7 15 7 63v386q0 17 -3.5 19t-22.5 7v50q53 17 69 24q21 9 62 34h45v-242q55 41 113 41q73 0 119 -67.5t46 -163.5q0 -119 -61 -190.5t-166 -71.5q-33 0 -54 5t-87 30zM117 42q64 -24 84 -29t50 -5q96 0 152 66
t56 178q0 91 -41.5 151.5t-104.5 60.5q-58 0 -132 -62v264h-21q-52 -33 -117 -54v-21q25 -7 25 -41v-386q0 -45 -5 -62q-8 -27 -38 -49l11 -20q36 15 52 15q14 0 29 -6zM200 360v-235q0 -67 47 -67q34 0 55 44q25 50 25 144q0 146 -66 146q-26 0 -61 -32zM184 371
q43 40 77 40q85 0 85 -165q0 -98 -26.5 -152.5t-72.5 -54.5q-66 0 -66 86v243z" />
    <glyph glyph-name="c" unicode="c" horiz-adv-x="436" 
d="M213 1q-88 0 -143 67t-55 168q0 111 59.5 185t153.5 74q61 0 108.5 -32t47.5 -82q0 -28 -19 -47t-48 -19q-58 0 -70 90q-4 25 -17 25q-27 0 -47 -37q-23 -43 -23 -115q0 -85 31 -132q29 -43 77 -43q29 0 48 12q11 7 38 35l50 -30q-31 -43 -37 -49q-19 -23 -46 -39
q-53 -31 -108 -31zM213 20q50 0 98 29q29 17 66 65l-20 12q-28 -28 -44.5 -35t-44.5 -7q-58 0 -92.5 52t-34.5 142q0 76 25 123.5t64 47.5q27 0 35 -35q11 -53 13 -56q15 -24 39 -24q21 0 34.5 13.5t13.5 33.5q0 39 -40.5 67t-96.5 28q-85 0 -139.5 -67.5t-54.5 -172.5
q0 -95 50 -155.5t129 -60.5z" />
    <glyph glyph-name="d" unicode="d" horiz-adv-x="515" 
d="M288 30q-49 -40 -106 -40q-82 0 -129 64t-47 167q0 113 54 187.5t143 74.5q48 0 85 -24v91q0 16 -3 19t-21 7v50q52 17 68 24q21 9 62 34h45v-598q0 -20 3 -25.5t22 -15.5v-46h-176v31zM307 71v-53h138v16q-25 14 -25 52v580h-20q-53 -33 -118 -54v-21q25 -8 25 -41v-127
q-32 24 -48 31q-23 10 -56 10q-79 0 -128.5 -68t-49.5 -175q0 -97 42.5 -155t114.5 -58q38 0 69 19q18 10 56 44zM233 410q-44 0 -62 -78q-12 -47 -12 -107q0 -145 67 -145q23 0 62 35v226q0 31 -16 50t-39 19zM233 429q32 0 53 -25t21 -63v-234q-50 -46 -81 -46
q-85 0 -85 164q0 71 14 122q23 82 78 82z" />
    <glyph glyph-name="e" unicode="e" horiz-adv-x="441" 
d="M6 232q0 106 57 177.5t148 71.5q50 0 93.5 -26t67.5 -70q26 -51 26 -127v-39h-242q10 -126 106 -126q40 0 94 45l46 -32q-57 -64 -86 -85q-49 -35 -112 -35q-89 0 -143.5 70t-54.5 176zM24 232q0 -100 50.5 -163.5t129.5 -63.5q49 0 83.5 18.5t86.5 76.5l-16 15
q-33 -26 -53 -34q-16 -6 -43 -6q-116 0 -125 153l-1 10h244v20q0 72 -25 118q-21 39 -60.5 62.5t-83.5 23.5q-82 0 -134.5 -65t-52.5 -165zM154 290h90q16 0 19.5 4t3.5 32q0 89 -52 89q-55 0 -61 -125zM135 281q5 153 80 153q32 0 51.5 -29t19.5 -79q0 -34 -4 -43
q-6 -13 -29 -12h-119z" />
    <glyph glyph-name="f" unicode="f" horiz-adv-x="334" 
d="M165 620q-19 3 -19 -21q0 -17 37 -66q12 -17 15 -57v-7h78v-70h-78v-311q0 -20 3.5 -25.5t21.5 -15.5v-46h-201v46q19 10 22.5 15.5t3.5 25.5v311h-49v70h49v40v71q2 20 12 38q38 67 123 67q44 0 73 -19q33 -21 33 -58q0 -27 -17 -44t-44 -17q-25 0 -50 33q-3 14 -13 40z
M194 590q19 -24 34 -24q42 0 42 42q0 26 -24 42t-63 16q-74 0 -107 -58q-8 -14 -9 -30q-1 -6 -1 -69v-58h-48v-33h48v-330q0 -37 -25 -52v-16h164v16q-26 15 -26 52v330h78v33h-78v25q1 34 -14 54q-30 39 -33 44q-5 11 -5 25q0 36 40 40q10 1 18 -20q5 -14 9 -29z" />
    <glyph glyph-name="g" unicode="g" horiz-adv-x="531" 
d="M404 386q14 -22 14 -61q0 -76 -55.5 -124.5t-138.5 -48.5q-22 0 -45 4q-27 -17 -27 -29q0 -9 19 -15l184 -36q114 -34 114 -125q0 -77 -67.5 -121.5t-170.5 -44.5q-94 0 -157 30q-70 33 -70 89q0 57 80 106q-62 30 -62 77q0 55 78 98q-73 45 -73 132q0 74 58 122.5
t142 48.5q75 0 132 -45q45 45 87 45q24 0 40.5 -17t16.5 -42t-16.5 -41.5t-41.5 -16.5q-12 0 -27 7.5t-14 7.5zM420 396q16 -7 25 -7q39 0 39 40q0 17 -11 28.5t-27 11.5q-36 0 -86 -52q-61 52 -133 52q-77 0 -129 -43.5t-52 -108.5q0 -85 95 -133q-50 -25 -64 -36
q-36 -27 -36 -61q0 -41 87 -75q-106 -55 -106 -108q0 -44 59 -72t150 -28q98 0 158.5 40.5t60.5 106.5q0 88 -109 108l-175 35q-33 10 -33 33q0 24 43 49q27 -5 48 -5q76 0 125.5 43.5t49.5 110.5q0 35 -21 73q12 7 17 7q6 0 25 -9zM168 320q0 -50 18 -79q15 -24 36 -24
q55 0 55 106q0 101 -53 101q-22 0 -37 -25q-19 -28 -19 -79zM149 320q0 55 21.5 89t53.5 34q33 0 52.5 -31.5t19.5 -88.5q0 -124 -74 -124q-32 0 -52.5 33t-20.5 88zM173 -18q-55 -36 -55 -65q0 -26 30.5 -45t88.5 -19q106 0 106 67q0 18 -15 26q-21 13 -89 22q-36 5 -66 14
zM174 1q31 -9 68 -14q71 -10 95.5 -24t24.5 -43q0 -40 -33.5 -63t-91.5 -23q-63 0 -100 23t-37 60q0 28 23 51q12 12 47 34z" />
    <glyph glyph-name="h" unicode="h" horiz-adv-x="490" 
d="M242 45q19 10 22.5 15.5t3.5 25.5v274q0 23 -14 23q-22 0 -78 -40v-257q0 -20 3.5 -25.5t22.5 -15.5v-46h-201v46q18 10 21.5 15.5t3.5 25.5v465q0 16 -5 20q-1 1 -20 5v50q52 17 68 24q21 9 62 35h45v-263q93 61 148 61q93 0 93 -104v-293q0 -20 3.5 -25.5t21.5 -15.5
v-46h-200v46zM261 34v-16h163v16q-26 15 -26 52v293q0 86 -74 86q-52 0 -166 -79v280h-21q-53 -32 -118 -53v-22q26 -7 26 -40v-465q0 -37 -26 -52v-16h164v16q-25 15 -25 52v267q68 49 96 49q32 0 32 -42v-274q0 -37 -25 -52z" />
    <glyph glyph-name="i" unicode="i" horiz-adv-x="253" 
d="M7 606q0 33 27 52q24 18 59 18q36 0 60.5 -19t24.5 -52t-24.5 -52t-60.5 -19q-37 0 -60 18q-26 19 -26 54zM26 606q0 -53 67 -53q30 0 48 14t18 38t-18 38t-48 14q-29 0 -48 -14t-19 -37zM1 45q18 10 21.5 15.5t3.5 25.5v266q0 17 -5 20q-1 1 -21 5v51q53 16 69 23
q21 9 63 35h45v-400q0 -20 3.5 -25.5t21.5 -15.5v-46h-201v46zM20 34v-16h163v16q-25 14 -25 52v381h-21q-53 -33 -118 -53v-22q26 -5 26 -40v-266q0 -38 -25 -52z" />
    <glyph glyph-name="j" unicode="j" horiz-adv-x="251" 
d="M26 607q0 33 27 52q24 18 59 18t59.5 -19t24.5 -52t-24.5 -52t-59.5 -19q-37 0 -60 18q-26 19 -26 54zM45 607q0 -53 67 -53q29 0 47 14t18 38t-18 38t-47 14q-30 0 -48.5 -14t-18.5 -37zM85 -109q-3 7 -26 43q-17 26 -17 46v373q0 16 -5 20q-1 1 -20 6v50q53 16 69 23
q20 9 61 35h45v-514v-84q-1 -25 -10 -44q-31 -64 -131 -64q-48 0 -78 18q-35 20 -35 59q0 25 18.5 42.5t44.5 17.5q31 0 46 -16q7 -8 21 -41q6 -11 14 -11q9 0 9 15q0 11 -6 26zM51 -200q88 0 114 53q8 16 9 38v82v495h-21q-53 -33 -117 -53v-22q25 -7 25 -40v-360
q0 -29 27 -70.5t27 -55.5t-12.5 -24.5t-28.5 -10.5q-12 0 -27 34t-46 34q-18 0 -31 -12.5t-13 -29.5q0 -58 94 -58z" />
    <glyph glyph-name="k" unicode="k" horiz-adv-x="504" 
d="M309 424h-1q-13 3 -39 7v51h187v-50q-48 -11 -94 -61l-56 -61l122 -215q12 -23 20.5 -30.5t30.5 -14.5v-51h-224v52q7 2 22 6q-2 7 -8 17l-69 127l-22 -23v-92q0 -20 3.5 -25.5t22.5 -15.5v-46h-200v46q18 10 21.5 15.5t3.5 25.5v465q0 17 -5 20q-1 1 -21 4v51
q53 17 69 24q21 9 62 35h44v-407l123 135q6 5 7 9zM273 36v-18h187v18q-27 11 -49 50l-129 227l66 71q49 52 90 63v17h-150v-17l25 -4q16 -5 16 -17q0 -11 -14 -26l-155 -170v436h-20q-53 -33 -118 -53v-22q26 -6 26 -40v-465q0 -37 -26 -52v-16h163v16q-25 15 -25 52v100
l44 47l82 -150q10 -18 10 -28q0 -12 -18 -17z" />
    <glyph glyph-name="l" unicode="l" horiz-adv-x="252" 
d="M0 45q18 10 21.5 15.5t3.5 25.5v465q0 17 -2.5 19t-22.5 6v50q53 17 69 24q21 9 62 35h45v-599q0 -20 3.5 -25.5t21.5 -15.5v-46h-201v46zM19 34v-16h163v16q-25 15 -25 52v580h-21q-53 -32 -117 -53v-22q25 -6 25 -40v-465q0 -37 -25 -52z" />
    <glyph glyph-name="m" unicode="m" horiz-adv-x="714" 
d="M465 45q19 10 22.5 15.5t3.5 25.5v269q0 27 -16 27q-13 0 -65 -29v-267q0 -20 3.5 -25.5t21.5 -15.5v-46h-200v46q18 10 21.5 15.5t3.5 25.5v272q0 24 -15 24q-13 0 -67 -31v-265q0 -20 3 -25.5t22 -15.5v-46h-199v46q18 10 21.5 15.5t3.5 25.5v267q0 16 -5 20
q-1 1 -20 6v49q52 17 68 24q21 9 62 34h44v-60q86 57 138 57q66 0 86 -59q93 59 145 59t78 -37q15 -23 15 -67v-293q0 -20 3.5 -25.5t21.5 -15.5v-46h-200v46zM484 34v-16h163v16q-26 14 -26 52v293q0 85 -74 85q-48 0 -156 -70q-9 36 -23 51q-17 19 -52 19q-37 0 -83 -25
q-17 -10 -74 -49v77h-19q-53 -32 -118 -53v-21q26 -8 26 -40v-267q0 -38 -26 -52v-16h162v16q-25 14 -25 52v276q68 38 86 38q34 0 34 -42v-272q0 -38 -25 -52v-16h162v16q-25 14 -25 52v278q66 36 84 36q34 0 34 -45v-269q0 -38 -25 -52z" />
    <glyph glyph-name="n" unicode="n" horiz-adv-x="492" 
d="M235 45q18 10 21.5 15.5t3.5 25.5v269q0 29 -12 29q-19 0 -79 -38v-260q0 -20 3.5 -25.5t22.5 -15.5v-46h-203v46q19 10 22.5 15.5t3.5 25.5v266q0 16 -4 20q-2 1 -21 6v50q52 16 70.5 24t60.5 34h45v-65q94 62 146 62q95 0 95 -104v-293q0 -20 3.5 -25.5t21.5 -15.5v-46
h-200v46zM254 34v-16h162v16q-25 14 -25 52v293q0 85 -76 85q-36 0 -87 -28q-19 -11 -78 -50v81h-21q-54 -33 -117 -53v-22q25 -7 25 -40v-266q0 -38 -26 -52v-16h165v16q-26 14 -26 52v270q73 46 98 46q31 0 31 -47v-269q0 -38 -25 -52z" />
    <glyph glyph-name="o" unicode="o" horiz-adv-x="496" 
d="M226 -7q-77 0 -138 45q-91 65 -91 204q0 104 63.5 174.5t165.5 70.5q77 0 139 -46q90 -67 90 -203q0 -135 -91 -200q-61 -45 -138 -45zM226 12q71 0 127 41q83 60 83 185q0 127 -83 188q-56 42 -127 42q-94 0 -152 -64.5t-58 -161.5q0 -130 83 -189q57 -41 127 -41z
M148 240q0 -181 78 -181t78 177q0 185 -78 185t-78 -181zM130 240q0 200 96 200t96 -204q0 -196 -96 -196t-96 200z" />
    <glyph glyph-name="p" unicode="p" horiz-adv-x="502" 
d="M179 11v-128q0 -20 3.5 -25.5t21.5 -15.5v-46h-201v46q19 10 22 15.5t3 25.5v467q0 16 -2.5 18t-23.5 7v50q54 17 70 23q21 9 62 36h45v-46q53 43 109 43q79 0 127 -68q46 -64 46 -165q0 -111 -54 -184q-56 -77 -145 -77q-44 0 -83 24zM175 37q43 -31 87 -31
q79 0 129.5 68.5t50.5 173.5q0 95 -42.5 154.5t-111.5 59.5q-37 0 -70 -20q-20 -11 -58 -45v68h-21q-53 -34 -118 -53v-22q26 -7 26 -40v-467q0 -37 -25 -52v-16h163v16q-25 15 -25 52v164zM179 354v-227q0 -28 17 -46.5t40 -18.5q30 0 49 41q23 48 23 141q0 145 -67 145
q-24 0 -62 -35zM163 366q46 41 78 41q85 0 85 -163q0 -96 -24 -148.5t-66 -52.5q-32 0 -54 24.5t-22 59.5v236z" />
    <glyph glyph-name="q" unicode="q" horiz-adv-x="501" 
d="M260 -158q18 10 21.5 15.5t3.5 25.5v141q-51 -37 -107 -37q-80 0 -125.5 64t-45.5 165q0 117 63 191t167 74q66 0 114 -30l19 33h66v-601q0 -20 3.5 -25.5t21.5 -15.5v-46h-201v46zM279 -169v-16h163v16q-25 15 -25 52v582h-36l-23 -40q-55 37 -121 37q-95 0 -153 -68
t-58 -178q0 -96 41 -153t111 -57q38 0 68 16q19 10 58 41v-180q0 -37 -25 -52zM277 397q-12 17 -37 17q-44 0 -67 -80q-17 -58 -17 -115q0 -76 21 -115q18 -34 47 -34q24 0 61 31v254q0 31 -8 42zM292 408q12 -16 12 -53v-263q-49 -41 -80 -41q-40 0 -63 44t-23 124
q0 68 20 129q28 85 82 85q35 0 52 -25z" />
    <glyph glyph-name="r" unicode="r" horiz-adv-x="372" 
d="M243 348q-2 1 -17 9q-11 6 -15 6q-15 0 -31 -16v-267q0 -20 3.5 -25.5t21.5 -15.5v-46h-201v46q19 10 22 15.5t3 25.5v266q0 16 -4 20q-2 1 -21 6v50q53 16 69 23q21 9 62 35h45v-41q40 38 85 38q30 0 51 -19.5t21 -49.5q0 -28 -18.5 -46.5t-46.5 -18.5q-17 0 -29 5z
M250 365q9 -3 22 -3q46 0 46 46q0 22 -15 36t-38 14q-31 0 -59 -22q-15 -11 -45 -45v70h-21q-52 -33 -117 -53v-22q25 -7 25 -40v-266q0 -38 -25 -52v-16h163v16q-25 14 -25 52v275q25 27 50 27q9 0 20 -6q18 -10 19 -11z" />
    <glyph glyph-name="s" unicode="s" horiz-adv-x="416" 
d="M3 55l-6 4l38 137l54 -18q-3 -33 -3 -36q0 -31 25.5 -55.5t60.5 -24.5q27 0 43 14.5t16 35.5q0 26 -35 48q-29 14 -57 28q-126 64 -126 152q0 65 53 107q50 40 126 40q60 0 162 -50l-38 -131l-53 18q3 31 3 33q0 26 -20.5 45t-51.5 19q-23 0 -38 -13t-15 -30
q0 -28 47 -55q37 -17 73 -35q113 -57 113 -142q0 -68 -53.5 -110.5t-131.5 -42.5q-75 0 -186 62zM19 68q101 -56 170 -56q72 0 119.5 38t47.5 96q0 60 -61 101l-112 58q-60 33 -60 73q0 26 20.5 44t50.5 18q38 0 64.5 -24.5t26.5 -58.5q0 -3 -2 -20l20 -7l29 97
q-85 41 -140 41q-70 0 -115 -36t-45 -92q0 -43 30 -76q23 -26 69 -50l74 -38q44 -24 44 -64q0 -30 -21.5 -49.5t-55.5 -19.5q-42 0 -73.5 29.5t-31.5 69.5q0 4 2 23l-21 7z" />
    <glyph glyph-name="t" unicode="t" horiz-adv-x="335" 
d="M75 21q-24 24 -24 70v325h-51v61q100 42 146 169h55v-162h70v-68h-70v-325q0 -15 2.5 -17.5t4.5 -2.5q11 0 37 33l49 -40q-35 -40 -57 -54q-33 -22 -75 -22q-54 0 -87 33zM162 7q54 0 105 55l-19 15q-21 -25 -40 -25q-26 0 -26 39v344h70v31h-70v161h-23
q-45 -119 -140 -162v-30h50v-344q0 -26 9 -42q21 -42 84 -42z" />
    <glyph glyph-name="u" unicode="u" horiz-adv-x="496" 
d="M268 47q-86 -61 -147 -61q-94 0 -94 107v256q0 16 -5 20q-1 1 -20 5v51q52 16 68 23q21 9 62 35h45v-372q0 -24 14 -24q23 0 77 40v222q0 16 -5 20q-2 1 -21 5v51q53 16 69 23q21 9 62 35h45v-400q0 -21 3.5 -26t21.5 -15v-46h-175v51zM286 84v-69h139v16q-26 14 -26 52
v381h-21q-52 -33 -117 -53v-22q25 -7 25 -40v-231q-65 -50 -95 -50q-32 0 -32 43v353h-21q-53 -33 -118 -53v-22q26 -7 26 -40v-256q0 -88 75 -88q58 0 165 79z" />
    <glyph glyph-name="v" unicode="v" horiz-adv-x="517" 
d="M303 0h-129l-125 392q-7 21 -16 29q-7 5 -31 13v49h218v-50q-10 1 -27 -10q0 -7 4 -18l75 -239l70 239q2 8 -6 18q-2 2 -36 9v51h180v-51q-31 -7 -38 -11q-13 -8 -21 -32zM289 19l114 376q8 24 19.5 35t38.5 17v17h-142v-17q44 -9 44 -29q0 -7 -3 -19l-87 -295l-94 295
q-5 15 -5 25q0 14 27 23v17h-180v-17q33 -11 45 -49l121 -379h102z" />
    <glyph glyph-name="w" unicode="w" horiz-adv-x="736" 
d="M515 -1h-125l-40 173l-52 -173h-125l-131 393q-7 22 -14.5 28.5t-29.5 12.5v50h217v-50q-10 -2 -27 -10q0 -7 5 -16l74 -240l37 140l-23 87q-5 20 -14 28q-6 4 -30 12v49h213v-49q-10 -2 -26 -10q0 -6 3 -19l64 -237l70 235q3 10 3 16q-4 4 -43 13v51h178v-50
q-32 -9 -36 -12q-15 -8 -22 -28zM501 18l122 381q7 21 18.5 30.5t39.5 17.5v17h-141v-17q43 -11 43 -28q0 -4 -3 -21l-90 -295l-81 297q-3 13 -3 22q0 16 25 25v17h-175v-17q34 -12 43 -48l25 -92l-55 -204l-94 297q-5 13 -5 24q0 14 26 23v17h-180v-17q31 -10 44 -48
l126 -381h98l66 234l54 -234h97z" />
    <glyph glyph-name="x" unicode="x" horiz-adv-x="517" 
d="M307 424q-1 1 -32 7v51h175v-50q-30 -8 -41 -15q-14 -9 -30 -32l-69 -100l101 -189q12 -22 24 -31q9 -5 37 -13v-52h-228v51q2 0 15 5l3 1q-1 2 -9 19l-39 85l-50 -87q-6 -10 -7 -14h1q4 -1 37 -6v-54h-191v53q36 7 47 12q18 9 33 33l83 129l-90 160q-12 23 -21.5 30.5
t-33.5 15.5v49h225v-50q-8 -2 -22 -6q2 -8 8 -19l30 -55q19 26 44 72zM263 37v-18h190v19q-39 11 -58 49l-107 199l75 110q27 39 68 50v17h-137v-17q33 -6 33 -19q0 -11 -12 -28l-55 -81l-44 80q-10 19 -10 29q0 13 18 18l4 1v17h-187v-17q31 -11 53 -50l95 -170l-90 -139
q-24 -38 -76 -49v-19h153v19q-37 6 -37 23q0 9 9 23l68 113l54 -113q11 -22 11 -29q0 -11 -15 -17z" />
    <glyph glyph-name="y" unicode="y" horiz-adv-x="500" 
d="M136 -114q4 6 8 16l42 105l-137 383q-8 23 -16 29t-34 14v49h228v-50q-10 -2 -28 -10q0 -5 4 -17l61 -199l66 200q4 8 4 14q-8 5 -40 11v51h171v-49q-29 -9 -36 -13q-12 -8 -20 -30l-188 -514q-36 -97 -120 -97q-33 0 -57 20.5t-24 51.5q0 27 19 45t46 18q30 0 51 -28z
M203 -117l188 514q14 37 55 50v16h-133v-16q39 -9 39 -27q0 -10 -5 -21l-83 -248l-79 248q-5 14 -5 24q0 15 29 24v16h-191v-16q35 -12 49 -50l140 -390l-45 -112q-12 -30 -26 -30q-7 0 -19 15.5t-32 15.5q-19 0 -32.5 -13t-13.5 -32q0 -22 18 -37.5t44 -15.5q71 0 102 85z
" />
    <glyph glyph-name="z" unicode="z" horiz-adv-x="482" 
d="M244 65q54 0 86 27q26 22 50 77l55 -21l-44 -146h-402l256 418h-36q-52 0 -75.5 -20.5t-38.5 -73.5l-62 17l34 140h366v-42l-230 -376h41zM244 47h-75l246 400v17h-331l-26 -108l24 -7q16 49 46 69.5t81 20.5h70l-256 -418h354l35 116l-22 8q-47 -98 -146 -98z" />
    <glyph glyph-name="braceleft" unicode="{" horiz-adv-x="390" 
d="M214 135v-95q0 -93 13 -113q18 -30 96 -30v-66q-110 2 -119 3q-62 6 -91 37q-36 38 -36 121q0 31 1.5 91.5t1.5 91.5q0 44 -22.5 83.5t-55.5 41.5v59q41 3 59.5 20.5t18.5 58.5q0 22 -2 161q-2 149 62 182q30 16 51 18q14 2 93 2h39v-65q-69 -2 -88.5 -18.5t-19.5 -80.5
v-159q0 -56 -6 -83q-11 -46 -46 -66q51 -31 51 -194zM195 135q0 161 -78 195q55 21 69 54q10 23 10 94v159q0 65 20 88q22 27 88 29v28h-20h-69q-42 -3 -65 -17q-30 -18 -40.5 -52t-9.5 -106q0 -21 -1 -84v-85q0 -89 -78 -96v-25q39 -3 61 -54q17 -40 17 -88
q0 -31 -1.5 -91.5t-1.5 -91.5q0 -103 62 -129q29 -12 146 -13v28q-69 2 -89 32.5t-20 129.5v95z" />
    <glyph glyph-name="bar" unicode="|" horiz-adv-x="204" 
d="M8 803h125v-976h-125v976zM27 784v-938h87v938h-87z" />
    <glyph glyph-name="braceright" unicode="}" horiz-adv-x="372" 
d="M108 135v-95q0 -93 -13 -113q-18 -30 -96 -30v-66q110 2 119 3q61 6 91 37q36 38 36 121q0 31 -1.5 91.5t-1.5 91.5q0 44 22.5 83.5t55.5 41.5v59q-41 3 -59.5 20.5t-18.5 58.5q0 22 2 161q2 149 -62 182q-30 16 -51 18q-15 2 -93 2h-39v-65q69 -2 88.5 -18.5t19.5 -80.5
v-159q0 -56 6 -83q11 -46 46 -66q-51 -31 -51 -194zM126 135q0 161 78 195q-54 21 -68 54q-11 23 -11 94v159q0 65 -19 88q-22 27 -89 29v28h21h69q42 -3 65 -17q29 -18 40 -52t10 -106v-84q1 -72 1 -85q0 -89 78 -96v-25q-40 -3 -61 -54q-17 -40 -17 -88q0 -31 1.5 -91.5
t1.5 -91.5q0 -103 -63 -129q-28 -12 -146 -13v28q70 2 89.5 32.5t19.5 129.5v95z" />
    <glyph glyph-name="asciitilde" unicode="~" horiz-adv-x="294" 
d="M25 725q15 92 87 92q16 0 47.5 -11.5t45.5 -11.5q9 0 14 15h96q-4 -41 -19 -61q-25 -33 -62 -33q-16 0 -50 12.5t-46 12.5q-13 0 -17 -15h-96zM49 745h58q9 15 31 15q16 0 48 -12.5t48 -12.5q49 0 59 54h-60q-9 -15 -28 -15q-16 0 -46.5 11.5t-46.5 11.5q-47 0 -63 -52z
" />
    <glyph glyph-name="Adieresis" unicode="&#xc4;" horiz-adv-x="665" 
d="M388 49q31 8 31 18q0 8 -4 22l-37 112h-186l-36 -111q-3 -14 -3 -18q0 -13 52 -22v-51h-204v50q31 7 45.5 17t23.5 36l187 572h136l183 -572q8 -26 18 -36.5t34 -16.5v-50h-240v50zM407 34v-16h202v17q-35 11 -51 61l-179 559h-108l-183 -559q-16 -48 -68 -62v-16h166v16
q-52 11 -52 38q0 6 4 23l41 125h213l40 -125q6 -17 6 -28q0 -23 -31 -33zM219 277h135l-68 206zM193 258l93 286l94 -286h-187zM356 819h96v-96h-96v96zM376 799v-56h56v56h-56zM188 819h96v-96h-96v96zM208 799v-56h56v56h-56z" />
    <glyph glyph-name="Aring" unicode="&#xc5;" horiz-adv-x="665" 
d="M388 49q31 8 31 18q0 8 -4 22l-37 112h-186l-36 -111q-3 -14 -3 -18q0 -13 52 -22v-51h-204v50q31 7 45.5 17t23.5 36l187 572h136l183 -572q8 -26 18 -36.5t34 -16.5v-50h-240v50zM407 34v-16h202v17q-35 11 -51 61l-179 559h-108l-183 -559q-16 -48 -68 -62v-16h166v16
q-52 11 -52 38q0 6 4 23l41 125h213l40 -125q6 -17 6 -28q0 -23 -31 -33zM219 277h135l-68 206zM193 258l93 286l94 -286h-187zM318 715q-29 0 -49 18.5t-20 48.5q0 29 21.5 47t50.5 18q28 0 48.5 -18.5t20.5 -46.5t-22 -47.5t-50 -19.5zM318 731q21 0 38.5 15t17.5 36
t-16 35t-37 14q-23 0 -38 -13q-18 -14 -18 -36q0 -23 15.5 -37t37.5 -14z" />
    <glyph glyph-name="Ccedilla" unicode="&#xc7;" horiz-adv-x="581" 
d="M559 131l-23 17q-91 -91 -178 -91q-108 0 -169 114q-49 91 -49 203q0 113 49.5 185t126.5 72q54 0 97.5 -35.5t63.5 -98.5h22l25 118q-120 50 -192 50q-135 0 -221 -95.5t-86 -243.5q0 -109 49 -187q34 -54 93.5 -92.5t122.5 -44.5l-12 -79q1 0 38 1q13 0 24 -12.5
t9 -32.5t-15.5 -33t-26.5 -13q-44 -1 -58 15l-24 -34q28 -20 78 -19q31 0 60.5 23.5t32.5 58.5q3 32 -21 53.5t-56 21.5l6 48q72 1 127 35q46 28 107 96zM417 -117q-7 -52 -43 -80q-31 -26 -74 -26q-66 -1 -103 29l44 66q21 -21 70 -20q14 0 17 26q2 25 -11 26q-40 2 -62 -2
l13 86q-134 22 -210 141q-49 77 -52 197q-5 162 89 261q90 97 237 97q77 0 214 -58l-32 -148h-50q-41 134 -148 134q-67 0 -112 -65t-45 -173t47 -194q56 -104 152 -104q51 0 98 29q31 20 79 68l51 -39q-65 -75 -107 -105q-63 -44 -141 -44l-2 -14q34 -4 59.5 -31t21.5 -57z
" />
    <glyph glyph-name="Eacute" unicode="&#xc9;" horiz-adv-x="561" 
d="M7 1v50q25 8 31 15t6 31v480q0 24 -6 31t-31 15v50h489l12 -163h-56q-21 54 -47 76q-30 23 -85 23h-71q-26 0 -33.5 -6t-7.5 -22v-175h86q40 0 57 12t24 49h56v-194h-58q-3 39 -19.5 52.5t-59.5 13.5h-86v-236q0 -27 12 -34q9 -5 42 -5h63q67 0 104 28q34 26 60 91
l55 -23l-42 -159h-495zM25 20h462l34 129l-22 10q-26 -61 -67 -87.5t-107 -26.5h-63q-43 0 -58 12t-15 46v255h105q87 0 96 -67h22v157h-22q-14 -61 -96 -61h-105v194q0 47 60 47h71q56 0 89 -22.5t56 -77.5h23l-10 126h-453v-17q23 -8 30.5 -21t7.5 -39v-480
q0 -26 -7.5 -39t-30.5 -21v-17zM391 822h-126l-61 -107h64zM339 801l-79 -66h-20l37 64z" />
    <glyph glyph-name="Ntilde" unicode="&#xd1;" horiz-adv-x="646" 
d="M572 -1h-135l-300 480v-383q0 -27 13 -35q7 -4 39 -10v-52h-191v52q33 5 39 10q13 8 13 35v480q0 27 -13 35q-7 5 -39 10v52h203l283 -452v355q0 27 -13 35q-7 5 -39 10v52h192v-52q-32 -5 -39 -10q-13 -8 -13 -35v-577zM553 18v558q0 28 11.5 41.5t40.5 19.5v17h-154
v-17q29 -6 40.5 -19.5t11.5 -41.5v-417l-312 495h-174v-17q29 -6 40.5 -19.5t11.5 -41.5v-480q0 -29 -11 -42t-41 -19v-17h153v17q-30 6 -41 19t-11 42v445l329 -523h106zM155 725q15 92 87 92q16 0 47.5 -11.5t45.5 -11.5q9 0 14 15h96q-4 -41 -19 -61q-25 -33 -62 -33
q-16 0 -50 12.5t-46 12.5q-13 0 -17 -15h-96zM179 745h58q9 15 31 15q16 0 48 -12.5t48 -12.5q49 0 59 54h-60q-9 -15 -28 -15q-16 0 -46.5 11.5t-46.5 11.5q-47 0 -63 -52z" />
    <glyph glyph-name="Odieresis" unicode="&#xd6;" horiz-adv-x="686" 
d="M100 72q-102 97 -102 267q0 145 92.5 245t229.5 100q139 0 230.5 -100.5t91.5 -250.5t-91.5 -250t-232.5 -100q-124 0 -218 89zM113 86q88 -84 205 -84q132 0 218.5 94t86.5 237t-86 237.5t-217 94.5q-129 0 -216 -94t-87 -232q0 -162 96 -253zM163 339q0 -143 45 -220
q41 -71 112 -71q90 0 130 106q27 73 27 179q0 138 -44 215q-42 71 -113 71q-69 0 -112 -71q-45 -75 -45 -209zM145 339q0 138 47.5 218.5t127.5 80.5q82 0 129 -81t47 -224q0 -115 -32 -193q-45 -111 -144 -111q-82 0 -128.5 81.5t-46.5 228.5zM356 819h96v-96h-96v96z
M376 799v-56h56v56h-56zM188 819h96v-96h-96v96zM208 799v-56h56v56h-56z" />
    <glyph glyph-name="Udieresis" unicode="&#xdc;" horiz-adv-x="635" 
d="M564 222q0 -114 -63.5 -174t-182.5 -60q-141 0 -221 68q-61 52 -61 157v364q0 25 -6 32t-32 15v50h239v-50q-25 -8 -31.5 -15t-6.5 -32v-370q0 -71 19 -101q30 -48 112 -48q157 0 157 155v363q0 27 -13 36q-7 4 -39 9v53h181v-53q-32 -5 -39 -9q-13 -9 -13 -36v-354z
M545 222v354q0 29 11.5 42.5t40.5 18.5v18h-143v-18q29 -5 40.5 -18.5t11.5 -42.5v-363q0 -83 -46 -128.5t-130 -45.5q-92 0 -128 57q-21 34 -21 111v370q0 27 7 39.5t30 20.5v18h-201v-18q23 -8 30.5 -20.5t7.5 -39.5v-364q0 -107 70 -155q77 -51 193 -51q227 0 227 215z
M346 819h96v-96h-96v96zM366 799v-56h56v56h-56zM178 819h96v-96h-96v96zM198 799v-56h56v56h-56z" />
    <glyph glyph-name="aacute" unicode="&#xe1;" horiz-adv-x="478" 
d="M262 41q-68 -48 -128 -48q-56 0 -93.5 33t-37.5 84q0 79 99 132q51 28 150 68v80q0 31 -29 31q-18 0 -25 -13.5t-13 -27.5q-27 -64 -77 -64q-27 0 -46.5 17t-19.5 43q0 52 60 83q54 28 133 28q76 0 121.5 -31t45.5 -91v-282l8 13l49 -46q-34 -31 -50 -40q-28 -17 -61 -17
q-64 0 -86 48zM275 59q15 -47 73 -47q39 0 83 38l-18 17q-8 -13 -16 -13q-14 0 -14 19v292q0 103 -148 103q-75 0 -125 -26t-50 -66q0 -17 14 -29.5t34 -12.5q38 0 59.5 53t55.5 53q48 0 48 -50v-93q-108 -44 -161 -72q-88 -48 -88 -115q0 -43 31.5 -70.5t80.5 -27.5
q56 0 137 60zM175 193q-25 -22 -25 -59q0 -50 34 -50q22 0 68 29v124q-56 -25 -77 -44zM162 207q26 23 109 59v-163q-59 -37 -87 -37q-53 0 -53 68q0 46 31 73zM331 632h-126l-61 -107h64zM279 611l-79 -66h-20l37 64z" />
    <glyph glyph-name="agrave" unicode="&#xe0;" horiz-adv-x="478" 
d="M262 41q-68 -48 -128 -48q-56 0 -93.5 33t-37.5 84q0 79 99 132q51 28 150 68v80q0 31 -29 31q-18 0 -25 -13.5t-13 -27.5q-27 -64 -77 -64q-27 0 -46.5 17t-19.5 43q0 52 60 83q54 28 133 28q76 0 121.5 -31t45.5 -91v-282l8 13l49 -46q-34 -31 -50 -40q-28 -17 -61 -17
q-64 0 -86 48zM275 59q15 -47 73 -47q39 0 83 38l-18 17q-8 -13 -16 -13q-14 0 -14 19v292q0 103 -148 103q-75 0 -125 -26t-50 -66q0 -17 14 -29.5t34 -12.5q38 0 59.5 53t55.5 53q48 0 48 -50v-93q-108 -44 -161 -72q-88 -48 -88 -115q0 -43 31.5 -70.5t80.5 -27.5
q56 0 137 60zM175 193q-25 -22 -25 -59q0 -50 34 -50q22 0 68 29v124q-56 -25 -77 -44zM162 207q26 23 109 59v-163q-59 -37 -87 -37q-53 0 -53 68q0 46 31 73zM118 632h126l61 -107h-64zM169 611l79 -66h21l-37 64z" />
    <glyph glyph-name="acircumflex" unicode="&#xe2;" horiz-adv-x="490" 
d="M262 41q-68 -48 -128 -48q-56 0 -93.5 33t-37.5 84q0 79 99 132q51 28 150 68v80q0 31 -29 31q-18 0 -25 -13.5t-13 -27.5q-27 -64 -77 -64q-27 0 -46.5 17t-19.5 43q0 52 60 83q54 28 133 28q76 0 121.5 -31t45.5 -91v-282l8 13l49 -46q-34 -31 -50 -40q-28 -17 -61 -17
q-64 0 -86 48zM275 59q15 -47 73 -47q39 0 83 38l-18 17q-8 -13 -16 -13q-14 0 -14 19v292q0 103 -148 103q-75 0 -125 -26t-50 -66q0 -17 14 -29.5t34 -12.5q38 0 59.5 53t55.5 53q48 0 48 -50v-93q-108 -44 -161 -72q-88 -48 -88 -115q0 -43 31.5 -70.5t80.5 -27.5
q56 0 137 60zM175 193q-25 -22 -25 -59q0 -50 34 -50q22 0 68 29v124q-56 -25 -77 -44zM162 207q26 23 109 59v-163q-59 -37 -87 -37q-53 0 -53 68q0 46 31 73zM331 523l-101 -1l-21 23l-19 -23l-102 1l80 100h88zM294 542l-50 61h-65l-52 -61h51l31 36l32 -36h53z" />
    <glyph glyph-name="adieresis" unicode="&#xe4;" horiz-adv-x="503" 
d="M262 41q-68 -48 -128 -48q-56 0 -93.5 33t-37.5 84q0 79 99 132q51 28 150 68v80q0 31 -29 31q-18 0 -25 -13.5t-13 -27.5q-27 -64 -77 -64q-27 0 -46.5 17t-19.5 43q0 52 60 83q54 28 133 28q76 0 121.5 -31t45.5 -91v-282l8 13l49 -46q-34 -31 -50 -40q-28 -17 -61 -17
q-64 0 -86 48zM275 59q15 -47 73 -47q39 0 83 38l-18 17q-8 -13 -16 -13q-14 0 -14 19v292q0 103 -148 103q-75 0 -125 -26t-50 -66q0 -17 14 -29.5t34 -12.5q38 0 59.5 53t55.5 53q48 0 48 -50v-93q-108 -44 -161 -72q-88 -48 -88 -115q0 -43 31.5 -70.5t80.5 -27.5
q56 0 137 60zM175 193q-25 -22 -25 -59q0 -50 34 -50q22 0 68 29v124q-56 -25 -77 -44zM162 207q26 23 109 59v-163q-59 -37 -87 -37q-53 0 -53 68q0 46 31 73zM256 619h96v-96h-96v96zM276 599v-56h56v56h-56zM88 619h96v-96h-96v96zM108 599v-56h56v56h-56z" />
    <glyph glyph-name="atilde" unicode="&#xe3;" horiz-adv-x="503" 
d="M262 41q-68 -48 -128 -48q-56 0 -93.5 33t-37.5 84q0 79 99 132q51 28 150 68v80q0 31 -29 31q-18 0 -25 -13.5t-13 -27.5q-27 -64 -77 -64q-27 0 -46.5 17t-19.5 43q0 52 60 83q54 28 133 28q76 0 121.5 -31t45.5 -91v-282l8 13l49 -46q-34 -31 -50 -40q-28 -17 -61 -17
q-64 0 -86 48zM275 59q15 -47 73 -47q39 0 83 38l-18 17q-8 -13 -16 -13q-14 0 -14 19v292q0 103 -148 103q-75 0 -125 -26t-50 -66q0 -17 14 -29.5t34 -12.5q38 0 59.5 53t55.5 53q48 0 48 -50v-93q-108 -44 -161 -72q-88 -48 -88 -115q0 -43 31.5 -70.5t80.5 -27.5
q56 0 137 60zM175 193q-25 -22 -25 -59q0 -50 34 -50q22 0 68 29v124q-56 -25 -77 -44zM162 207q26 23 109 59v-163q-59 -37 -87 -37q-53 0 -53 68q0 46 31 73zM65 535q15 92 87 92q16 0 47.5 -11.5t45.5 -11.5q9 0 14 15h96q-4 -41 -19 -61q-25 -33 -62 -33q-16 0 -50 12.5
t-46 12.5q-13 0 -17 -15h-96zM89 555h58q9 15 31 15q16 0 48 -12.5t48 -12.5q49 0 59 54h-60q-9 -15 -28 -15q-16 0 -46.5 11.5t-46.5 11.5q-47 0 -63 -52z" />
    <glyph glyph-name="aring" unicode="&#xe5;" horiz-adv-x="503" 
d="M262 41q-68 -48 -128 -48q-56 0 -93.5 33t-37.5 84q0 79 99 132q51 28 150 68v80q0 31 -29 31q-18 0 -25 -13.5t-13 -27.5q-27 -64 -77 -64q-27 0 -46.5 17t-19.5 43q0 52 60 83q54 28 133 28q76 0 121.5 -31t45.5 -91v-282l8 13l49 -46q-34 -31 -50 -40q-28 -17 -61 -17
q-64 0 -86 48zM275 59q15 -47 73 -47q39 0 83 38l-18 17q-8 -13 -16 -13q-14 0 -14 19v292q0 103 -148 103q-75 0 -125 -26t-50 -66q0 -17 14 -29.5t34 -12.5q38 0 59.5 53t55.5 53q48 0 48 -50v-93q-108 -44 -161 -72q-88 -48 -88 -115q0 -43 31.5 -70.5t80.5 -27.5
q56 0 137 60zM175 193q-25 -22 -25 -59q0 -50 34 -50q22 0 68 29v124q-56 -25 -77 -44zM162 207q26 23 109 59v-163q-59 -37 -87 -37q-53 0 -53 68q0 46 31 73zM228 525q-29 0 -49 18.5t-20 48.5q0 29 21.5 47t50.5 18q28 0 48.5 -18.5t20.5 -46.5t-22 -47.5t-50 -19.5z
M228 541q21 0 38.5 15t17.5 36t-16 35t-37 14q-23 0 -38 -13q-18 -14 -18 -36q0 -23 15.5 -37t37.5 -14z" />
    <glyph glyph-name="ccedilla" unicode="&#xe7;" horiz-adv-x="436" 
d="M311 49q29 17 66 65l-20 12q-28 -28 -44.5 -35t-44.5 -7q-58 0 -92.5 52t-34.5 142q0 76 25 123.5t64 47.5q27 0 35 -35q11 -53 13 -56q15 -24 39 -24q21 0 34.5 13.5t13.5 33.5q0 39 -40.5 67t-96.5 28q-85 0 -139.5 -67.5t-54.5 -172.5q0 -82 41.5 -143t108.5 -70
l-10 -81h30q10 0 19 -11t8 -28q-4 -35 -28 -35q-27 -1 -49 7l-14 -22q19 -14 57 -13q63 0 70 65q2 26 -16.5 42t-43.5 17l6 56q43 -4 98 29zM283 -96q-11 -80 -86 -79q-54 0 -82 23l31 49q14 -14 53 -14q12 0 15 22q2 20 -9 20q-32 2 -50 -1l11 83q-68 18 -109.5 81
t-41.5 148q0 111 59.5 185t153.5 74q61 0 108.5 -32t47.5 -82q0 -28 -19 -47t-48 -19q-58 0 -70 90q-4 25 -17 25q-27 0 -47 -37q-23 -43 -23 -115q0 -85 31 -132q29 -43 77 -43q29 0 48 12q11 7 38 35l50 -30q-31 -43 -37 -49q-19 -23 -46 -39q-35 -20 -94 -28l-4 -24
q27 -4 45.5 -25.5t14.5 -50.5z" />
    <glyph glyph-name="eacute" unicode="&#xe9;" horiz-adv-x="441" 
d="M6 232q0 106 57 177.5t148 71.5q50 0 93.5 -26t67.5 -70q26 -51 26 -127v-39h-242q10 -126 106 -126q40 0 94 45l46 -32q-57 -64 -86 -85q-49 -35 -112 -35q-89 0 -143.5 70t-54.5 176zM24 232q0 -100 50.5 -163.5t129.5 -63.5q49 0 83.5 18.5t86.5 76.5l-16 15
q-33 -26 -53 -34q-16 -6 -43 -6q-116 0 -125 153l-1 10h244v20q0 72 -25 118q-21 39 -60.5 62.5t-83.5 23.5q-82 0 -134.5 -65t-52.5 -165zM154 290h90q16 0 19.5 4t3.5 32q0 89 -52 89q-55 0 -61 -125zM135 281q5 153 80 153q32 0 51.5 -29t19.5 -79q0 -34 -4 -43
q-6 -13 -29 -12h-119zM331 632h-126l-61 -107h64zM279 611l-79 -66h-20l37 64z" />
    <glyph glyph-name="egrave" unicode="&#xe8;" horiz-adv-x="441" 
d="M6 232q0 106 57 177.5t148 71.5q50 0 93.5 -26t67.5 -70q26 -51 26 -127v-39h-242q10 -126 106 -126q40 0 94 45l46 -32q-57 -64 -86 -85q-49 -35 -112 -35q-89 0 -143.5 70t-54.5 176zM24 232q0 -100 50.5 -163.5t129.5 -63.5q49 0 83.5 18.5t86.5 76.5l-16 15
q-33 -26 -53 -34q-16 -6 -43 -6q-116 0 -125 153l-1 10h244v20q0 72 -25 118q-21 39 -60.5 62.5t-83.5 23.5q-82 0 -134.5 -65t-52.5 -165zM154 290h90q16 0 19.5 4t3.5 32q0 89 -52 89q-55 0 -61 -125zM135 281q5 153 80 153q32 0 51.5 -29t19.5 -79q0 -34 -4 -43
q-6 -13 -29 -12h-119zM108 632h126l61 -107h-64zM159 611l79 -66h21l-37 64z" />
    <glyph glyph-name="ecircumflex" unicode="&#xea;" horiz-adv-x="441" 
d="M6 232q0 106 57 177.5t148 71.5q50 0 93.5 -26t67.5 -70q26 -51 26 -127v-39h-242q10 -126 106 -126q40 0 94 45l46 -32q-57 -64 -86 -85q-49 -35 -112 -35q-89 0 -143.5 70t-54.5 176zM24 232q0 -100 50.5 -163.5t129.5 -63.5q49 0 83.5 18.5t86.5 76.5l-16 15
q-33 -26 -53 -34q-16 -6 -43 -6q-116 0 -125 153l-1 10h244v20q0 72 -25 118q-21 39 -60.5 62.5t-83.5 23.5q-82 0 -134.5 -65t-52.5 -165zM154 290h90q16 0 19.5 4t3.5 32q0 89 -52 89q-55 0 -61 -125zM135 281q5 153 80 153q32 0 51.5 -29t19.5 -79q0 -34 -4 -43
q-6 -13 -29 -12h-119zM321 523l-101 -1l-21 23l-19 -23l-102 1l80 100h88zM284 542l-50 61h-65l-52 -61h51l31 36l32 -36h53z" />
    <glyph glyph-name="edieresis" unicode="&#xeb;" horiz-adv-x="441" 
d="M6 232q0 106 57 177.5t148 71.5q50 0 93.5 -26t67.5 -70q26 -51 26 -127v-39h-242q10 -126 106 -126q40 0 94 45l46 -32q-57 -64 -86 -85q-49 -35 -112 -35q-89 0 -143.5 70t-54.5 176zM24 232q0 -100 50.5 -163.5t129.5 -63.5q49 0 83.5 18.5t86.5 76.5l-16 15
q-33 -26 -53 -34q-16 -6 -43 -6q-116 0 -125 153l-1 10h244v20q0 72 -25 118q-21 39 -60.5 62.5t-83.5 23.5q-82 0 -134.5 -65t-52.5 -165zM154 290h90q16 0 19.5 4t3.5 32q0 89 -52 89q-55 0 -61 -125zM135 281q5 153 80 153q32 0 51.5 -29t19.5 -79q0 -34 -4 -43
q-6 -13 -29 -12h-119zM236 619h96v-96h-96v96zM256 599v-56h56v56h-56zM68 619h96v-96h-96v96zM88 599v-56h56v56h-56z" />
    <glyph glyph-name="iacute" unicode="&#xed;" horiz-adv-x="253" 
d="M1 45q18 10 21.5 15.5t3.5 25.5v266q0 17 -5 20q-1 1 -21 5v51q53 16 69 23q21 9 63 35h45v-400q0 -20 3.5 -25.5t21.5 -15.5v-46h-201v46zM20 34v-16h163v16q-25 14 -25 52v381h-21q-53 -33 -118 -53v-22q26 -5 26 -40v-266q0 -38 -25 -52zM191 632h-126l-61 -107h64z
M139 611l-79 -66h-20l37 64z" />
    <glyph glyph-name="igrave" unicode="&#xec;" horiz-adv-x="253" 
d="M1 45q18 10 21.5 15.5t3.5 25.5v266q0 17 -5 20q-1 1 -21 5v51q53 16 69 23q21 9 63 35h45v-400q0 -20 3.5 -25.5t21.5 -15.5v-46h-201v46zM20 34v-16h163v16q-25 14 -25 52v381h-21q-53 -33 -118 -53v-22q26 -5 26 -40v-266q0 -38 -25 -52zM-12 632h126l61 -107h-64z
M39 611l79 -66h21l-37 64z" />
    <glyph glyph-name="icircumflex" unicode="&#xee;" horiz-adv-x="253" 
d="M1 45q18 10 21.5 15.5t3.5 25.5v266q0 17 -5 20q-1 1 -21 5v51q53 16 69 23q21 9 63 35h45v-400q0 -20 3.5 -25.5t21.5 -15.5v-46h-201v46zM20 34v-16h163v16q-25 14 -25 52v381h-21q-53 -33 -118 -53v-22q26 -5 26 -40v-266q0 -38 -25 -52zM211 523l-101 -1l-21 23
l-19 -23l-102 1l80 100h88zM174 542l-50 61h-65l-52 -61h51l31 36l32 -36h53z" />
    <glyph glyph-name="idieresis" unicode="&#xef;" horiz-adv-x="253" 
d="M1 45q18 10 21.5 15.5t3.5 25.5v266q0 17 -5 20q-1 1 -21 5v51q53 16 69 23q21 9 63 35h45v-400q0 -20 3.5 -25.5t21.5 -15.5v-46h-201v46zM20 34v-16h163v16q-25 14 -25 52v381h-21q-53 -33 -118 -53v-22q26 -5 26 -40v-266q0 -38 -25 -52zM126 619h96v-96h-96v96z
M146 599v-56h56v56h-56zM-22 619h96v-96h-96v96zM-2 599v-56h56v56h-56z" />
    <glyph glyph-name="ntilde" unicode="&#xf1;" horiz-adv-x="492" 
d="M242 45q19 10 22.5 15.5t3.5 25.5v269q0 29 -13 29q-19 0 -79 -38v-260q0 -20 3.5 -25.5t22.5 -15.5v-46h-202v46q18 10 21.5 15.5t3.5 25.5v266q0 16 -4 20q-2 1 -20 6v50q52 16 68 24q20 8 62 34h45v-65q94 62 147 62q94 0 94 -104v-293q0 -20 3.5 -25.5t21.5 -15.5
v-46h-200v46zM261 34v-16h163v16q-26 14 -26 52v293q0 85 -75 85q-37 0 -88 -28q-19 -11 -77 -50v81h-21q-55 -33 -118 -53v-22q25 -7 25 -40v-266q0 -38 -26 -52v-16h165v16q-25 14 -25 52v270q72 46 97 46q31 0 31 -47v-269q0 -38 -25 -52zM65 535q15 92 87 92
q16 0 47.5 -11.5t45.5 -11.5q9 0 14 15h96q-4 -41 -19 -61q-25 -33 -62 -33q-16 0 -50 12.5t-46 12.5q-13 0 -17 -15h-96zM89 555h58q9 15 31 15q16 0 48 -12.5t48 -12.5q49 0 59 54h-60q-9 -15 -28 -15q-16 0 -46.5 11.5t-46.5 11.5q-47 0 -63 -52z" />
    <glyph glyph-name="oacute" unicode="&#xf3;" horiz-adv-x="496" 
d="M226 -7q-77 0 -138 45q-91 65 -91 204q0 104 63.5 174.5t165.5 70.5q77 0 139 -46q90 -67 90 -203q0 -135 -91 -200q-61 -45 -138 -45zM226 12q71 0 127 41q83 60 83 185q0 127 -83 188q-56 42 -127 42q-94 0 -152 -64.5t-58 -161.5q0 -130 83 -189q57 -41 127 -41z
M148 240q0 -181 78 -181t78 177q0 185 -78 185t-78 -181zM130 240q0 200 96 200t96 -204q0 -196 -96 -196t-96 200zM331 632h-126l-61 -107h64zM279 611l-79 -66h-20l37 64z" />
    <glyph glyph-name="ograve" unicode="&#xf2;" horiz-adv-x="496" 
d="M226 -7q-77 0 -138 45q-91 65 -91 204q0 104 63.5 174.5t165.5 70.5q77 0 139 -46q90 -67 90 -203q0 -135 -91 -200q-61 -45 -138 -45zM226 12q71 0 127 41q83 60 83 185q0 127 -83 188q-56 42 -127 42q-94 0 -152 -64.5t-58 -161.5q0 -130 83 -189q57 -41 127 -41z
M148 240q0 -181 78 -181t78 177q0 185 -78 185t-78 -181zM130 240q0 200 96 200t96 -204q0 -196 -96 -196t-96 200zM118 632h126l61 -107h-64zM169 611l79 -66h21l-37 64z" />
    <glyph glyph-name="ocircumflex" unicode="&#xf4;" horiz-adv-x="496" 
d="M226 -7q-77 0 -138 45q-91 65 -91 204q0 104 63.5 174.5t165.5 70.5q77 0 139 -46q90 -67 90 -203q0 -135 -91 -200q-61 -45 -138 -45zM226 12q71 0 127 41q83 60 83 185q0 127 -83 188q-56 42 -127 42q-94 0 -152 -64.5t-58 -161.5q0 -130 83 -189q57 -41 127 -41z
M148 240q0 -181 78 -181t78 177q0 185 -78 185t-78 -181zM130 240q0 200 96 200t96 -204q0 -196 -96 -196t-96 200zM341 523l-101 -1l-21 23l-19 -23l-102 1l80 100h88zM304 542l-50 61h-65l-52 -61h51l31 36l32 -36h53z" />
    <glyph glyph-name="odieresis" unicode="&#xf6;" horiz-adv-x="496" 
d="M226 -7q-77 0 -138 45q-91 65 -91 204q0 104 63.5 174.5t165.5 70.5q77 0 139 -46q90 -67 90 -203q0 -135 -91 -200q-61 -45 -138 -45zM226 12q71 0 127 41q83 60 83 185q0 127 -83 188q-56 42 -127 42q-94 0 -152 -64.5t-58 -161.5q0 -130 83 -189q57 -41 127 -41z
M148 240q0 -181 78 -181t78 177q0 185 -78 185t-78 -181zM130 240q0 200 96 200t96 -204q0 -196 -96 -196t-96 200zM266 619h96v-96h-96v96zM286 599v-56h56v56h-56zM98 619h96v-96h-96v96zM118 599v-56h56v56h-56z" />
    <glyph glyph-name="otilde" unicode="&#xf5;" horiz-adv-x="496" 
d="M226 -7q-77 0 -138 45q-91 65 -91 204q0 104 63.5 174.5t165.5 70.5q77 0 139 -46q90 -67 90 -203q0 -135 -91 -200q-61 -45 -138 -45zM226 12q71 0 127 41q83 60 83 185q0 127 -83 188q-56 42 -127 42q-94 0 -152 -64.5t-58 -161.5q0 -130 83 -189q57 -41 127 -41z
M148 240q0 -181 78 -181t78 177q0 185 -78 185t-78 -181zM130 240q0 200 96 200t96 -204q0 -196 -96 -196t-96 200zM75 535q15 92 87 92q16 0 47.5 -11.5t45.5 -11.5q9 0 14 15h96q-4 -41 -19 -61q-25 -33 -62 -33q-16 0 -50 12.5t-46 12.5q-13 0 -17 -15h-96zM99 555h58
q9 15 31 15q16 0 48 -12.5t48 -12.5q49 0 59 54h-60q-9 -15 -28 -15q-16 0 -46.5 11.5t-46.5 11.5q-47 0 -63 -52z" />
    <glyph glyph-name="uacute" unicode="&#xfa;" horiz-adv-x="496" 
d="M268 47q-86 -61 -147 -61q-94 0 -94 107v256q0 16 -5 20q-1 1 -20 5v51q52 16 68 23q21 9 62 35h45v-372q0 -24 14 -24q23 0 77 40v222q0 16 -5 20q-2 1 -21 5v51q53 16 69 23q21 9 62 35h45v-400q0 -21 3.5 -26t21.5 -15v-46h-175v51zM286 84v-69h139v16q-26 14 -26 52
v381h-21q-52 -33 -117 -53v-22q25 -7 25 -40v-231q-65 -50 -95 -50q-32 0 -32 43v353h-21q-53 -33 -118 -53v-22q26 -7 26 -40v-256q0 -88 75 -88q58 0 165 79zM331 632h-126l-61 -107h64zM279 611l-79 -66h-20l37 64z" />
    <glyph glyph-name="ugrave" unicode="&#xf9;" horiz-adv-x="496" 
d="M268 47q-86 -61 -147 -61q-94 0 -94 107v256q0 16 -5 20q-1 1 -20 5v51q52 16 68 23q21 9 62 35h45v-372q0 -24 14 -24q23 0 77 40v222q0 16 -5 20q-2 1 -21 5v51q53 16 69 23q21 9 62 35h45v-400q0 -21 3.5 -26t21.5 -15v-46h-175v51zM286 84v-69h139v16q-26 14 -26 52
v381h-21q-52 -33 -117 -53v-22q25 -7 25 -40v-231q-65 -50 -95 -50q-32 0 -32 43v353h-21q-53 -33 -118 -53v-22q26 -7 26 -40v-256q0 -88 75 -88q58 0 165 79zM118 632h126l61 -107h-64zM169 611l79 -66h21l-37 64z" />
    <glyph glyph-name="ucircumflex" unicode="&#xfb;" horiz-adv-x="496" 
d="M268 47q-86 -61 -147 -61q-94 0 -94 107v256q0 16 -5 20q-1 1 -20 5v51q52 16 68 23q21 9 62 35h45v-372q0 -24 14 -24q23 0 77 40v222q0 16 -5 20q-2 1 -21 5v51q53 16 69 23q21 9 62 35h45v-400q0 -21 3.5 -26t21.5 -15v-46h-175v51zM286 84v-69h139v16q-26 14 -26 52
v381h-21q-52 -33 -117 -53v-22q25 -7 25 -40v-231q-65 -50 -95 -50q-32 0 -32 43v353h-21q-53 -33 -118 -53v-22q26 -7 26 -40v-256q0 -88 75 -88q58 0 165 79zM331 523l-101 -1l-21 23l-19 -23l-102 1l80 100h88zM294 542l-50 61h-65l-52 -61h51l31 36l32 -36h53z" />
    <glyph glyph-name="udieresis" unicode="&#xfc;" horiz-adv-x="496" 
d="M268 47q-86 -61 -147 -61q-94 0 -94 107v256q0 16 -5 20q-1 1 -20 5v51q52 16 68 23q21 9 62 35h45v-372q0 -24 14 -24q23 0 77 40v222q0 16 -5 20q-2 1 -21 5v51q53 16 69 23q21 9 62 35h45v-400q0 -21 3.5 -26t21.5 -15v-46h-175v51zM286 84v-69h139v16q-26 14 -26 52
v381h-21q-52 -33 -117 -53v-22q25 -7 25 -40v-231q-65 -50 -95 -50q-32 0 -32 43v353h-21q-53 -33 -118 -53v-22q26 -7 26 -40v-256q0 -88 75 -88q58 0 165 79zM256 619h96v-96h-96v96zM276 599v-56h56v56h-56zM88 619h96v-96h-96v96zM108 599v-56h56v56h-56z" />
    <glyph glyph-name="dagger" unicode="&#x2020;" horiz-adv-x="20" 
 />
    <glyph glyph-name="degree" unicode="&#xb0;" horiz-adv-x="342" 
d="M153 682q61 0 104 -43t43 -104q0 -60 -43 -103t-104 -43q-60 0 -103 43t-43 103q0 61 43 104t103 43zM153 657q-50 0 -85.5 -35.5t-35.5 -86.5q0 -50 35.5 -85.5t85.5 -35.5q51 0 86.5 35.5t35.5 85.5q0 51 -35.5 86.5t-86.5 35.5zM154 606q27 0 47 -20t20 -48t-20 -47.5
t-47 -19.5q-28 0 -48 19.5t-20 47.5t20 48t48 20zM154 581q-18 0 -30.5 -12.5t-12.5 -30.5q0 -17 12.5 -29.5t30.5 -12.5q17 0 29.5 12.5t12.5 29.5q0 18 -12.5 30.5t-29.5 12.5z" />
    <glyph glyph-name="cent" unicode="&#xa2;" horiz-adv-x="423" 
d="M177 -53v59q-75 14 -122.5 77.5t-47.5 152.5q0 94 47 163t123 88v57h86v-51q54 -4 86.5 -34.5t32.5 -77.5q0 -27 -18.5 -45.5t-46.5 -18.5q-53 0 -65 64q-3 18 -5 20.5t-23 2.5q-75 0 -75 -126q0 -84 36 -132q33 -45 83 -45q30 0 48 11q8 6 38 36l60 -39q-31 -42 -34 -45
q-17 -19 -43 -34q-34 -20 -73 -26l-1 -57h-86zM202 -28h36v55q53 6 80.5 20t58.5 55l-19 15q-27 -27 -44.5 -34t-45.5 -7q-63 0 -103.5 55.5t-40.5 146.5q0 150 94 150q41 0 51 -21q7 -22 15 -45q13 -20 33 -20q40 0 40 39q0 46 -43 69q-33 18 -76 19v50h-36v-52
q-82 -17 -128 -83q-42 -62 -42 -148q0 -83 44 -139q46 -59 126 -69v-56z" />
    <glyph glyph-name="sterling" unicode="&#xa3;" horiz-adv-x="523" 
d="M465 2l-455 1q34 42 45 67q15 32 17 81.5t3 158.5h-61v76h60q-2 134 62 211q63 74 171 74q66 0 113 -27q52 -30 52 -79q0 -29 -20.5 -48.5t-49.5 -19.5q-36 0 -58 28q-13 16 -31 59q-7 17 -24 17q-42 0 -59 -67q-5 -20 -1 -72q3 -28 7 -76h104v-76h-106q-6 -104 -8 -119
q-8 -67 -35 -113l77 1q76 1 110.5 19.5t74.5 79.5l53 -20zM461 154q-37 -56 -76.5 -75t-115.5 -20l-118 -1q44 60 55 131q4 70 9 141h104v36h-102q-3 27 -8 88q-4 61 1 85q10 37 31.5 60t47.5 23t41 -27q12 -26 24 -51q17 -27 48 -27q21 0 35.5 14t14.5 34q0 37 -43 63
t-104 26q-117 0 -171 -92q-44 -75 -38 -196h-62v-36h62q0 -62 -3 -181q-4 -72 -42 -128l398 1l33 124z" />
    <glyph glyph-name="section" unicode="&#xa7;" horiz-adv-x="20" 
 />
    <glyph glyph-name="bullet" unicode="&#x2022;" horiz-adv-x="292" 
d="M125 402q49 0 84 -35t35 -84t-35 -83.5t-84 -34.5t-84 34.5t-35 83.5t35 84t84 35zM125 386q-42 0 -72.5 -30t-30.5 -73q0 -42 30.5 -72t72.5 -30q43 0 73 30t30 72q0 43 -30 73t-73 30z" />
    <glyph glyph-name="paragraph" unicode="&#xb6;" horiz-adv-x="20" 
 />
    <glyph glyph-name="germandbls" unicode="&#xdf;" horiz-adv-x="485" 
d="M228 -5q-18 0 -18 22q0 23 17 23q88 0 88 154q0 62 -19.5 91.5t-70.5 41.5q-26 7 -26 30q0 32 26 39q21 4 54 15q21 13 21 75q0 124 -99 124q-34 0 -64 -14t-30 -25q0 -19 26.5 -41.5t25.5 -62.5v-387q0 -21 4 -28.5t22 -17.5v-32h-184v32q17 10 21 17.5t4 28.5v421
q0 67 19 108q33 69 159 69q91 0 158 -42q76 -48 76 -129q0 -87 -114 -136l-9 -4q141 -43 141 -165q0 -92 -62.5 -149t-165.5 -58zM352 334q-4 2 -51 23q-14 7 -10 12q3 5 24 13q105 43 103 125q-1 70 -71 114q-63 40 -145 40q-62 0 -102 -25q-45 -27 -50 -77q-4 -46 -4 -58
v-421q0 -38 -25 -58h144q-26 20 -26 58v388q1 30 -14.5 44.5t-29.5 28.5q-8 12 -8 30q0 21 34 39t75 18q52 0 85 -31q39 -37 39 -111q0 -39 -7 -56q-9 -22 -39 -34q-11 -5 -46 -16q-12 -7 -12 -18t9 -15q69 -30 86 -53q20 -27 20 -104q0 -160 -99 -165q-10 -8 -2 -13
q5 -4 19 -4q78 -1 132.5 57.5t54.5 136.5q0 50 -20 81q-19 28 -64 51z" />
    <glyph glyph-name="registered" unicode="&#xae;" horiz-adv-x="311" 
d="M162 383q-62 0 -106 45t-44 108q0 62 44 106t106 44t104.5 -44.5t42.5 -107.5t-42.5 -107t-104.5 -44zM162 406q51 0 88 37.5t37 90.5t-37 90.5t-88 37.5q-54 1 -90 -36t-36 -92q0 -53 37.5 -90.5t88.5 -37.5zM176 534l47 -72h-26l-47 72h-26v-72h-22v157h68q-6 0 -5 1h7
q52 0 52 -40q0 -44 -48 -46zM126 557h45q30 0 30 23q0 17 -34 17h-41v-40z" />
    <glyph glyph-name="copyright" unicode="&#xa9;" horiz-adv-x="735" 
d="M346 -6q-141 0 -239 98.5t-98 240.5t98 241t239 99t239.5 -99t98.5 -241t-98.5 -240.5t-239.5 -98.5zM346 640q-124 0 -214.5 -89.5t-90.5 -217.5q0 -127 90.5 -216.5t214.5 -89.5t214.5 89.5t90.5 216.5q0 128 -90.5 217.5t-214.5 89.5zM472 412q-24 81 -116 81
q-69 0 -109.5 -45.5t-40.5 -113.5q0 -62 35 -106q41 -51 113 -51q96 0 118 79h34q-14 -52 -54.5 -82t-96.5 -30q-83 0 -132.5 53.5t-49.5 138.5q0 81 51 136t132 55q55 0 97.5 -31.5t53.5 -83.5h-35z" />
    <glyph glyph-name="trademark" unicode="&#x2122;" horiz-adv-x="459" 
d="M401 673v-196h-27v167h-2l-66 -167h-17l-65 167v0v-167h-28v196h46l56 -141l57 141h46zM159 673v-29h-64v-167h-28v167h-65v29h157z" />
    <glyph glyph-name="acute" unicode="&#xb4;" horiz-adv-x="278" 
d="M211 822h-126l-61 -107h64zM159 801l-79 -66h-20l37 64z" />
    <glyph glyph-name="dieresis" unicode="&#xa8;" horiz-adv-x="275" 
d="M176 819h96v-96h-96v96zM196 799v-56h56v56h-56zM8 819h96v-96h-96v96zM28 799v-56h56v56h-56z" />
    <glyph glyph-name="AE" unicode="&#xc6;" horiz-adv-x="945" 
d="M889 3h-515l-2 41q13 3 34 12q12 9 12 37l2 112l-182 -2q-28 -42 -77 -130q-2 -5 -2 -9q0 -6 14.5 -10.5t23.5 -6.5l5 -44h-201l1 46q64 15 88 56l323 564h469l12 -159h-49q-21 50 -53 66q-27 14 -82 14h-71q-25 0 -33 -5q-12 -7 -12 -27v-156h90q40 0 58 12.5t26 48.5
h49v-207h-50q-6 40 -23 53.5t-60 13.5h-90v-212q0 -23 10 -25q4 0 19.5 1t28.5 1h63q71 0 105.5 19.5t60.5 78.5l48 -20zM892 160q-28 -58 -73 -77q-34 -15 -104 -15h-63q-50 0 -54 1q-24 7 -24 42v232h110q86 0 100 -67h13v167h-13q-19 -61 -100 -61h-110v176q0 52 65 52
h71q58 0 87 -12q39 -18 61 -68h15l-9 119l-439 -1l-318 -553q-25 -43 -85 -59l-1 -13l164 -1l-5 14q-41 12 -41 29q0 11 13 33l75 127h212l1 -132q0 -29 -10 -42.5t-37 -21.5v-6h481l31 131zM440 253l-202 -1l202 346v-345zM273 272l147 1v251z" />
    <glyph glyph-name="Oslash" unicode="&#xd8;" horiz-adv-x="686" 
d="M318 -13q-92 0 -176 56l-42 -59l-60 48l44 62q-82 97 -82 245q0 144 91.5 242.5t226.5 98.5q84 0 156 -41l41 57l63 -51l-41 -55q99 -102 99 -257q0 -149 -90.5 -247.5t-229.5 -98.5zM513 587l39 54l-31 26l-40 -55q-77 48 -161 48q-126 0 -212 -92.5t-86 -228.5
q0 -147 88 -244l-43 -60l29 -22l42 58q89 -64 180 -64q130 0 215 92.5t85 233.5q0 153 -105 254zM161 167q-21 87 -21 172q0 137 47.5 210.5t132.5 73.5q90 0 129 -56zM320 44q-101 0 -142 81l292 403q31 -93 31 -195q0 -112 -32 -185q-46 -104 -149 -104zM320 603
q-73 0 -115 -63q-45 -68 -45 -201q0 -66 11 -125l253 353q-19 25 -46 32q-16 4 -58 4zM463 484l-262 -360q20 -38 52 -51q24 -9 67 -9q90 0 131 91q30 69 30 178q0 83 -18 151z" />
    <glyph glyph-name="plusminus" unicode="&#xb1;" horiz-adv-x="20" 
 />
    <glyph glyph-name="yen" unicode="&#xa5;" horiz-adv-x="651" 
d="M542 568l-126 -246h99v-77h-120v-43h120v-77h-120v-30q0 -26 8 -35q5 -6 29 -14v-43h-240v43q16 5 20 7q10 6 14 14.5t4 27.5v30h-122v77h122v43h-122v77h98l-138 246q-24 44 -63 60v41h255v-43q-36 -8 -36 -17q0 -7 9 -24l121 -219l110 219q8 16 8 23q0 8 -41 18v43
l182 -1v-42q-50 -18 -71 -58zM593 648l-142 1v-7q41 -12 41 -34q0 -11 -10 -32l-128 -253l-139 253q-11 21 -11 33q0 23 30 31l6 2v7h-215v-8q35 -17 61 -63l154 -276h-112v-37h122v-83h-122v-37h122v-50q0 -47 -38 -63v-9h200v9q-37 16 -37 63v50h120v37h-120v83h120v37
h-111l141 275q23 45 68 63v8z" />
    <glyph glyph-name="mu" unicode="&#xb5;" horiz-adv-x="514" 
d="M463 3h-458v43q16 5 20 7q11 6 14.5 14.5t3.5 27.5v51l-45 -32v93l45 31v338q0 26 -8 35q-6 6 -30 14v43h232v-43q-15 -5 -19 -7q-11 -6 -14.5 -14.5t-3.5 -27.5v-227l122 85v-92l-122 -86v-160q0 -26 10 -31.5t47 -5.5h33q75 0 119 44q19 18 45 75l47 -20zM464 152
q-55 -113 -174 -113h-33q-42 0 -55 7q-22 12 -22 50v171l122 85v44l-122 -86v266q0 47 37 63v9h-192v-9q38 -16 38 -63v-348l-45 -32v-43l45 31v-89q0 -47 -38 -63v-9h422l30 123z" />
    <glyph glyph-name="mu" unicode="&#x3bc;" horiz-adv-x="514" 
d="M463 3h-458v43q16 5 20 7q11 6 14.5 14.5t3.5 27.5v51l-45 -32v93l45 31v338q0 26 -8 35q-6 6 -30 14v43h232v-43q-15 -5 -19 -7q-11 -6 -14.5 -14.5t-3.5 -27.5v-227l122 85v-92l-122 -86v-160q0 -26 10 -31.5t47 -5.5h33q75 0 119 44q19 18 45 75l47 -20zM464 152
q-55 -113 -174 -113h-33q-42 0 -55 7q-22 12 -22 50v171l122 85v44l-122 -86v266q0 47 37 63v9h-192v-9q38 -16 38 -63v-348l-45 -32v-43l45 31v-89q0 -47 -38 -63v-9h422l30 123z" />
    <glyph glyph-name="ordfeminine" unicode="&#xaa;" horiz-adv-x="592" 
d="M309 78q72 0 114 23.5t82 84.5l50 -22l-37 -163h-516v55l322 541h-70q-64 0 -105.5 -25t-74.5 -81l-57 8l45 174h495l-356 -595h108zM309 59h-143l356 595h-446l-36 -139l24 -4q64 105 190 105h104l-337 -565v-31h482l30 133l-21 9q-38 -56 -84.5 -79.5t-118.5 -23.5z
M181 803h99l21 -24l19 24h99l-67 -91h-108zM216 783l40 -51h85l42 51h-51l-31 -36l-32 36h-53z" />
    <glyph glyph-name="ordmasculine" unicode="&#xba;" horiz-adv-x="482" 
d="M244 65q54 0 86 27q26 22 50 77l55 -21l-44 -146h-402l256 418h-36q-52 0 -75.5 -20.5t-38.5 -73.5l-62 17l34 140h366v-42l-230 -376h41zM244 47h-75l246 400v17h-331l-26 -108l24 -7q16 49 46 69.5t81 20.5h70l-256 -418h354l35 116l-22 8q-47 -98 -146 -98zM131 613
h99l21 -24l19 24h99l-67 -91h-108zM166 593l40 -51h85l42 51h-51l-31 -36l-32 36h-53z" />
    <glyph glyph-name="ae" unicode="&#xe6;" horiz-adv-x="690" 
d="M454 -10q-88 0 -145 74q-105 -67 -175 -67q-55 0 -91 31.5t-36 81.5q0 93 174 167q26 11 75 30v73q0 17 -7.5 21t-25.5 4t-30 -15q-3 -4 -17 -29q-22 -42 -68 -42q-25 0 -44 16.5t-19 40.5q0 50 59 80q53 27 131 27q82 0 126 -35q46 29 100 29q49 0 91.5 -25.5
t65.5 -68.5q27 -50 27 -135v-35h-243q12 -123 110 -123q30 0 53 12q10 6 43 33l36 -40q-52 -58 -83 -77q-44 -28 -107 -28zM625 248q0 80 -24 126q-21 38 -59 60.5t-81 22.5q-52 0 -102 -35q-43 41 -124 41q-74 0 -122 -25t-48 -62q0 -15 12.5 -26t30.5 -11q34 0 55.5 43
t59.5 43q53 0 53 -45v-86q-55 -23 -163 -73q-86 -47 -86 -111q0 -40 30 -66.5t77 -26.5q71 0 180 75q56 -82 140 -82q49 0 79 14q39 17 89 71l-14 14q-50 -39 -96 -39q-73 0 -104 51q-22 37 -27 112h244v15zM501 267l-122 -1q1 34 11 102q14 48 70 48q75 0 81 -90
q2 -30 -4 -41q-8 -18 -36 -18zM184 71q-58 0 -58 63q0 38 25 59q6 4 58 30q18 10 67 30v-143q-62 -39 -92 -39zM460 396q-44 0 -55 -40q-3 -10 -5 -70h103q16 -1 17 16q1 6 1 24q0 45 -20 60q-13 10 -41 10zM256 223q-22 -10 -66 -29.5t-44 -59.5q0 -43 38 -43q24 0 72 30
v102z" />
    <glyph glyph-name="oslash" unicode="&#xf8;" horiz-adv-x="496" 
d="M226 -3q-63 0 -120 33q-8 -9 -42 -46l-50 43l37 51q-50 63 -50 164q0 102 62 171.5t163 69.5q55 0 107 -26l29 39l60 -44l-30 -40q59 -67 59 -174q0 -104 -61.5 -172.5t-163.5 -68.5zM365 410l28 38l-27 20l-28 -37q-57 32 -112 32q-92 0 -148.5 -63t-56.5 -158
q0 -99 55 -163l-36 -50l23 -22l38 50q62 -40 125 -40q94 0 150 64q55 61 55 157q0 105 -66 172zM130 151q-7 57 -5 89q5 97 30 140t75 43q31 0 44 -5q19 -8 31 -32zM226 55q-65 0 -85 55l177 236q9 -62 9 -110q0 -181 -101 -181zM257 406q-4 0 -12.5 -1.5t-14.5 -1.5
q-85 0 -85 -163v-35l136 183q-10 18 -24 18zM305 296l-142 -190q10 -25 28 -30q4 -1 35 -1q39 0 58 30q23 38 23 131q0 29 -2 60z" />
    <glyph glyph-name="questiondown" unicode="&#xbf;" horiz-adv-x="442" 
d="M219 223l8 85h81l14 -194q-87 -1 -126 -26q-50 -31 -50 -110q0 -50 22 -80t50 -30q26 0 32 18q3 6 3 38q1 37 25.5 60t60.5 23q34 0 57.5 -20.5t23.5 -53.5q0 -61 -61.5 -97.5t-145.5 -36.5q-98 0 -160 55.5t-62 145.5q0 110 82 172q52 40 146 51zM229 205
q-96 -10 -145 -48q-74 -57 -74 -157q0 -82 56 -132.5t147 -50.5q80 0 134 33t54 83q0 24 -17.5 40t-44.5 16q-29 0 -47.5 -18.5t-19.5 -47.5q0 -13 -1 -33q-4 -41 -53 -41q-38 0 -64.5 37t-26.5 92q0 148 175 154l-11 157h-47l-7 -83zM354 415q0 -35 -25.5 -57.5
t-61.5 -22.5t-61 22.5t-25 57.5t26 57t63 22q36 0 60 -22t24 -57zM335 415q0 26 -18.5 43.5t-46.5 17.5q-30 0 -50 -17.5t-20 -43.5q0 -27 19 -44t48 -17t48.5 17.5t19.5 43.5z" />
    <glyph glyph-name="exclamdown" unicode="&#xa1;" horiz-adv-x="276" 
d="M87 305h86q16 -102 32 -205q19 -131 19 -204q0 -97 -94 -97t-94 99q0 61 25 237zM104 287q-13 -83 -25 -165q-24 -166 -24 -224q0 -81 75 -81t75 79q0 69 -20 208q-14 91 -28 183h-53zM217 415q0 -35 -25.5 -57.5t-61.5 -22.5t-61 22.5t-25 57.5t26 57t63 22
q35 0 59.5 -22t24.5 -57zM198 415q0 26 -18.5 43.5t-46.5 17.5q-30 0 -50 -17.5t-20 -43.5q0 -27 19 -44t48 -17t48.5 17.5t19.5 43.5z" />
    <glyph glyph-name="logicalnot" unicode="&#xac;" horiz-adv-x="20" 
 />
    <glyph glyph-name="florin" unicode="&#x192;" horiz-adv-x="659" 
d="M357 -12q-112 0 -194.5 74.5t-104.5 186.5h-52v77h45q0 32 4 63h-49v77h68q36 99 115 156t183 57q75 0 208 -56l-30 -140h-43q-39 114 -151 114q-117 0 -151 -131h196v-77h-206l-1 -15q0 -19 3 -48h204v-77h-188q55 -176 184 -176q50 0 93 33q11 8 72 69l57 -42
q-64 -72 -115 -104q-68 -41 -147 -41zM563 151q-57 -55 -87 -73q-37 -23 -79 -23q-149 0 -207 212h193v41h-201q-6 39 -6 66q0 12 1 33h206l2 43q-21 -2 -106.5 -3.5t-98.5 -0.5q36 169 176 169q122 0 164 -114h16l24 111q-118 49 -188 49q-104 0 -177.5 -57t-107.5 -156
h-63v-41h52q-7 -48 -7 -99h-45v-41h49q13 -76 44 -126q40 -62 104.5 -98.5t135.5 -36.5q121 0 236 125z" />
    <glyph glyph-name="guillemotleft" unicode="&#xab;" horiz-adv-x="345" 
d="M250 275l55 -101l-31 -46l-121 151l132 146l22 -49zM100 275l55 -101l-31 -46l-121 151l132 146l22 -49zM281 398l-108 -120l100 -125l15 22l-55 101l58 101zM131 398l-108 -120l100 -125l15 22l-55 101l58 101z" />
    <glyph glyph-name="guillemotright" unicode="&#xbb;" horiz-adv-x="345" 
d="M174 128l-22 49l57 101l-55 101l31 47l121 -152zM24 128l-22 49l57 101l-55 101l31 47l121 -152zM186 400l-14 -22l55 -100l-58 -101l9 -22l109 120zM36 400l-14 -22l55 -100l-58 -101l9 -22l109 120z" />
    <glyph glyph-name="ellipsis" unicode="&#x2026;" horiz-adv-x="889" 
d="M75 71q0 34 25.5 56.5t61.5 22.5t61 -22t25 -57t-26 -57t-63 -22q-35 0 -59.5 22t-24.5 57zM94 71q0 -26 18.5 -43.5t46.5 -17.5q30 0 50 17.5t20 43.5t-19 43.5t-48 17.5t-48.5 -17.5t-19.5 -43.5zM675 71q0 34 25.5 56.5t61.5 22.5t61 -22t25 -57t-26 -57t-63 -22
q-35 0 -59.5 22t-24.5 57zM694 71q0 -26 18.5 -43.5t46.5 -17.5q30 0 50 17.5t20 43.5t-19 43.5t-48 17.5t-48.5 -17.5t-19.5 -43.5zM375 71q0 34 25.5 56.5t61.5 22.5t61 -22t25 -57t-26 -57t-63 -22q-35 0 -59.5 22t-24.5 57zM394 71q0 -26 18.5 -43.5t46.5 -17.5
q30 0 50 17.5t20 43.5t-19 43.5t-48 17.5t-48.5 -17.5t-19.5 -43.5z" />
    <glyph glyph-name="nonbreakingspace" unicode="&#xa0;" horiz-adv-x="213" 
 />
    <glyph glyph-name="Agrave" unicode="&#xc0;" horiz-adv-x="665" 
d="M388 49q31 8 31 18q0 8 -4 22l-37 112h-186l-36 -111q-3 -14 -3 -18q0 -13 52 -22v-51h-204v50q31 7 45.5 17t23.5 36l187 572h136l183 -572q8 -26 18 -36.5t34 -16.5v-50h-240v50zM407 34v-16h202v17q-35 11 -51 61l-179 559h-108l-183 -559q-16 -48 -68 -62v-16h166v16
q-52 11 -52 38q0 6 4 23l41 125h213l40 -125q6 -17 6 -28q0 -23 -31 -33zM219 277h135l-68 206zM193 258l93 286l94 -286h-187zM208 821h123l59 -106h-64zM259 800l75 -65h20l-37 64z" />
    <glyph glyph-name="Atilde" unicode="&#xc3;" horiz-adv-x="665" 
d="M388 49q31 8 31 18q0 8 -4 22l-37 112h-186l-36 -111q-3 -14 -3 -18q0 -13 52 -22v-51h-204v50q31 7 45.5 17t23.5 36l187 572h136l183 -572q8 -26 18 -36.5t34 -16.5v-50h-240v50zM407 34v-16h202v17q-35 11 -51 61l-179 559h-108l-183 -559q-16 -48 -68 -62v-16h166v16
q-52 11 -52 38q0 6 4 23l41 125h213l40 -125q6 -17 6 -28q0 -23 -31 -33zM219 277h135l-68 206zM193 258l93 286l94 -286h-187zM185 725q15 92 87 92q16 0 47.5 -11.5t45.5 -11.5q9 0 14 15h96q-4 -41 -19 -61q-25 -33 -62 -33q-16 0 -50 12.5t-46 12.5q-13 0 -17 -15h-96z
M209 745h58q9 15 31 15q16 0 48 -12.5t48 -12.5q49 0 59 54h-60q-9 -15 -28 -15q-16 0 -46.5 11.5t-46.5 11.5q-47 0 -63 -52z" />
    <glyph glyph-name="Otilde" unicode="&#xd5;" horiz-adv-x="686" 
d="M100 72q-102 97 -102 267q0 145 92.5 245t229.5 100q139 0 230.5 -100.5t91.5 -250.5t-91.5 -250t-232.5 -100q-124 0 -218 89zM113 86q88 -84 205 -84q132 0 218.5 94t86.5 237t-86 237.5t-217 94.5q-129 0 -216 -94t-87 -232q0 -162 96 -253zM163 339q0 -143 45 -220
q41 -71 112 -71q90 0 130 106q27 73 27 179q0 138 -44 215q-42 71 -113 71q-69 0 -112 -71q-45 -75 -45 -209zM145 339q0 138 47.5 218.5t127.5 80.5q82 0 129 -81t47 -224q0 -115 -32 -193q-45 -111 -144 -111q-82 0 -128.5 81.5t-46.5 228.5zM165 725q15 92 87 92
q16 0 47.5 -11.5t45.5 -11.5q9 0 14 15h96q-4 -41 -19 -61q-25 -33 -62 -33q-16 0 -50 12.5t-46 12.5q-13 0 -17 -15h-96zM189 745h58q9 15 31 15q16 0 48 -12.5t48 -12.5q49 0 59 54h-60q-9 -15 -28 -15q-16 0 -46.5 11.5t-46.5 11.5q-47 0 -63 -52z" />
    <glyph glyph-name="OE" unicode="&#x152;" horiz-adv-x="924" 
d="M894 160l-42 -159h-525q-152 0 -227 71q-102 97 -102 267q0 144 91.5 239t229.5 95h527l12 -163h-56q-21 54 -47 76q-30 23 -85 23h-71q-26 0 -33.5 -6t-7.5 -22v-175h86q40 0 57 12t24 49h56v-194h-58q-3 39 -19.5 52.5t-59.5 13.5h-86v-236q0 -27 12 -34q9 -5 42 -5h63
q67 0 104 28q34 26 60 91zM871 149l-22 10q-26 -61 -67 -87.5t-107 -26.5h-63q-43 0 -58 12t-15 46v255h105q87 0 96 -67h22v157h-22q-14 -61 -96 -61h-105v194q0 47 60 47h71q56 0 89 -22.5t56 -77.5h23l-10 126h-509q-129 0 -215.5 -89t-86.5 -226q0 -162 96 -253
q69 -66 232 -66h492zM420 583v-496q0 -25 -27 -29l-77 -1q-171 0 -171 282q0 136 48 208q46 69 128 69h69q30 0 30 -33zM400 93v483q0 14 -2.5 18t-13.5 4q0 -1 -30.5 0t-30.5 0q-72 0 -113 -60q-47 -68 -47 -199q0 -263 157 -263l58 -1q8 1 15 2.5t7 15.5z" />
    <glyph glyph-name="oe" unicode="&#x153;" horiz-adv-x="742" 
d="M562 92q30 0 52 12q9 6 44 34l49 -47q-50 -55 -89 -77q-48 -26 -114 -26q-78 0 -132 57q-63 -50 -146 -50q-76 0 -138 44q-90 64 -90 203q0 103 63 173t165 70q90 0 154 -58q55 52 131 52q49 0 92.5 -25.5t66.5 -69.5q27 -50 27 -136v-37h-242q11 -119 107 -119zM562 67
q-75 0 -107 54q-22 38 -27 115h244v12q0 80 -24 125q-20 37 -57.5 59t-79.5 22q-72 0 -130 -63q-68 69 -155 69q-91 0 -147 -62t-56 -156q0 -126 80 -183q55 -39 123 -39q81 0 148 61q56 -68 130 -68q52 0 79 10q41 15 88 66l-14 16q-48 -38 -95 -38zM554 300q10 0 11.5 1
t2.5 11v14q0 44 -16 59q-12 11 -37 11q-59 0 -63 -97zM557 275l-130 -1q2 67 13 96q20 51 75 51q78 0 78 -95q0 -33 -2 -38q-5 -13 -34 -13zM147 240q0 -95 23 -133q18 -29 56 -29t56 29q23 36 23 129q0 96 -23 135q-18 31 -56 31q-79 0 -79 -162zM122 240q0 187 104 187
t104 -191q0 -183 -104 -183q-54 0 -79 44t-25 143z" />
    <glyph glyph-name="endash" unicode="&#x2013;" horiz-adv-x="498" 
d="M5 317h443v-100h-443v100zM24 298v-62h405v62h-405z" />
    <glyph glyph-name="emdash" unicode="&#x2014;" horiz-adv-x="968" 
d="M5 317h913v-100h-913v100zM24 298v-62h875v62h-875z" />
    <glyph glyph-name="quotedblleft" unicode="&#x201c;" horiz-adv-x="443" 
d="M182 629q-69 -66 -69 -91q10 -6 26 -16q34 -21 34 -63q0 -36 -24.5 -58t-62.5 -22q-40 0 -64.5 25.5t-24.5 65.5q0 59 54 124q42 50 100 88zM158 632l-13 24q-58 -40 -94 -92.5t-36 -93.5q0 -33 19.5 -52.5t51.5 -19.5q31 0 50 17t19 44q0 33 -30.5 50t-30.5 29
q0 32 64 94zM402 629q-69 -66 -69 -91q10 -6 26 -16q34 -21 34 -63q0 -36 -24.5 -58t-62.5 -22q-40 0 -64.5 25.5t-24.5 65.5q0 59 54 124q42 50 100 88zM378 632l-13 24q-58 -40 -94 -92.5t-36 -93.5q0 -33 19.5 -52.5t51.5 -19.5q31 0 50 17t19 44q0 33 -30.5 50t-30.5 29
q0 32 64 94z" />
    <glyph glyph-name="quotedblright" unicode="&#x201d;" horiz-adv-x="443" 
d="M217 433q68 65 68 91q-10 6 -26 15q-34 22 -34 64q0 36 24.5 57.5t62.5 21.5q40 0 65 -25t25 -65q0 -59 -55 -124q-41 -50 -100 -89zM240 430l14 -24q57 40 93 92t36 94q0 32 -19.5 52t-51.5 20q-31 0 -49.5 -17t-18.5 -44q0 -33 30 -50.5t30 -28.5q0 -32 -64 -94z
M-3 433q68 65 68 91q-10 6 -26 15q-34 22 -34 64q0 36 24.5 57.5t62.5 21.5q40 0 65 -25t25 -65q0 -59 -55 -124q-41 -50 -100 -89zM20 430l14 -24q57 40 93 92t36 94q0 32 -19.5 52t-51.5 20q-31 0 -49.5 -17t-18.5 -44q0 -33 30 -50.5t30 -28.5q0 -32 -64 -94z" />
    <glyph glyph-name="quoteleft" unicode="&#x2018;" horiz-adv-x="231" 
d="M182 629q-69 -66 -69 -91q10 -6 26 -16q34 -21 34 -63q0 -36 -24.5 -58t-62.5 -22q-40 0 -64.5 25.5t-24.5 65.5q0 59 54 124q42 50 100 88zM158 632l-13 24q-58 -40 -94 -92.5t-36 -93.5q0 -33 19.5 -52.5t51.5 -19.5q31 0 50 17t19 44q0 33 -30.5 50t-30.5 29
q0 32 64 94z" />
    <glyph glyph-name="quoteright" unicode="&#x2019;" horiz-adv-x="231" 
d="M-3 433q68 65 68 91q-10 6 -26 15q-34 22 -34 64q0 36 24.5 57.5t62.5 21.5q40 0 65 -25t25 -65q0 -59 -55 -124q-41 -50 -100 -89zM20 430l14 -24q57 40 93 92t36 94q0 32 -19.5 52t-51.5 20q-31 0 -49.5 -17t-18.5 -44q0 -33 30 -50.5t30 -28.5q0 -32 -64 -94z" />
    <glyph glyph-name="divide" unicode="&#xf7;" horiz-adv-x="20" 
 />
    <glyph glyph-name="ydieresis" unicode="&#xff;" horiz-adv-x="500" 
d="M136 -114q4 6 8 16l42 105l-137 383q-8 23 -16 29t-34 14v49h228v-50q-10 -2 -28 -10q0 -5 4 -17l61 -199l66 200q4 8 4 14q-8 5 -40 11v51h171v-49q-29 -9 -36 -13q-12 -8 -20 -30l-188 -514q-36 -97 -120 -97q-33 0 -57 20.5t-24 51.5q0 27 19 45t46 18q30 0 51 -28z
M203 -117l188 514q14 37 55 50v16h-133v-16q39 -9 39 -27q0 -10 -5 -21l-83 -248l-79 248q-5 14 -5 24q0 15 29 24v16h-191v-16q35 -12 49 -50l140 -390l-45 -112q-12 -30 -26 -30q-7 0 -19 15.5t-32 15.5q-19 0 -32.5 -13t-13.5 -32q0 -22 18 -37.5t44 -15.5q71 0 102 85z
M266 629h96v-96h-96v96zM286 609v-56h56v56h-56zM98 629h96v-96h-96v96zM118 609v-56h56v56h-56z" />
    <glyph glyph-name="Ydieresis" unicode="&#x178;" horiz-adv-x="651" 
d="M398 279v-184q0 -24 6.5 -31t31.5 -15v-50h-248v50q26 8 32 15t6 31v184l-161 287q-26 46 -64 58v49h262q1 -30 0 -50q-25 -6 -25 -10q0 3 -3 -9q-3 -9 1 -17l118 -214l107 214q8 15 8 21q-4 6 -42 15v50l190 -1v-49q-49 -15 -71 -57zM380 284l149 291q24 46 69 62v16
l-152 1v-16q41 -11 41 -30q0 -10 -10 -30l-123 -244l-134 244q-11 20 -11 31q0 20 36 29v16h-225v-16q34 -14 61 -62l164 -292v-189q0 -26 -7.5 -39t-30.5 -21v-17h210v17q-23 8 -30 21t-7 39v189zM346 819h96v-96h-96v96zM366 799v-56h56v56h-56zM178 819h96v-96h-96v96z
M198 799v-56h56v56h-56z" />
    <glyph glyph-name="currency" unicode="&#xa4;" horiz-adv-x="20" 
 />
    <glyph glyph-name="guilsinglleft" unicode="&#x2039;" horiz-adv-x="198" 
d="M100 275l55 -101l-31 -46l-121 151l132 146l22 -49zM131 398l-108 -120l100 -125l15 22l-55 101l58 101z" />
    <glyph glyph-name="guilsinglright" unicode="&#x203a;" horiz-adv-x="198" 
d="M24 128l-22 49l57 101l-55 101l31 47l121 -152zM36 400l-14 -22l55 -100l-58 -101l9 -22l109 120z" />
    <glyph glyph-name="daggerdbl" unicode="&#x2021;" horiz-adv-x="17" 
 />
    <glyph glyph-name="periodcentered" unicode="&#xb7;" horiz-adv-x="225" 
d="M5 336q0 35 25.5 57t61.5 22t61 -22t25 -57t-26 -57.5t-63 -22.5q-35 0 -59.5 22.5t-24.5 57.5zM24 336q0 -27 18.5 -44t46.5 -17q30 0 50 17.5t20 43.5t-19 43t-48 17t-48.5 -17t-19.5 -43z" />
    <glyph glyph-name="periodcentered" unicode="&#x2219;" horiz-adv-x="225" 
d="M5 336q0 35 25.5 57t61.5 22t61 -22t25 -57t-26 -57.5t-63 -22.5q-35 0 -59.5 22.5t-24.5 57.5zM24 336q0 -27 18.5 -44t46.5 -17q30 0 50 17.5t20 43.5t-19 43t-48 17t-48.5 -17t-19.5 -43z" />
    <glyph glyph-name="quotesinglbase" unicode="&#x201a;" horiz-adv-x="231" 
d="M-3 -107q68 65 68 91q-10 6 -26 15q-34 22 -34 64q0 36 24.5 57.5t62.5 21.5q40 0 65 -25t25 -65q0 -59 -55 -124q-41 -50 -100 -89zM20 -110l14 -24q57 40 93 92t36 94q0 32 -19.5 52t-51.5 20q-31 0 -49.5 -17t-18.5 -44q0 -33 30 -50.5t30 -28.5q0 -32 -64 -94z" />
    <glyph glyph-name="quotedblbase" unicode="&#x201e;" horiz-adv-x="443" 
d="M217 -107q68 65 68 91q-10 6 -26 15q-34 22 -34 64q0 36 24.5 57.5t62.5 21.5q40 0 65 -25t25 -65q0 -59 -55 -124q-41 -50 -100 -89zM240 -110l14 -24q57 40 93 92t36 94q0 32 -19.5 52t-51.5 20q-31 0 -49.5 -17t-18.5 -44q0 -33 30 -50.5t30 -28.5q0 -32 -64 -94z
M-3 -107q68 65 68 91q-10 6 -26 15q-34 22 -34 64q0 36 24.5 57.5t62.5 21.5q40 0 65 -25t25 -65q0 -59 -55 -124q-41 -50 -100 -89zM20 -110l14 -24q57 40 93 92t36 94q0 32 -19.5 52t-51.5 20q-31 0 -49.5 -17t-18.5 -44q0 -33 30 -50.5t30 -28.5q0 -32 -64 -94z" />
    <glyph glyph-name="perthousand" unicode="&#x2030;" horiz-adv-x="20" 
 />
    <glyph glyph-name="Acircumflex" unicode="&#xc2;" horiz-adv-x="665" 
d="M376 49q31 8 31 18q0 8 -5 22l-37 112h-185l-36 -111q-3 -14 -3 -18q0 -13 51 -22v-51h-203v50q30 7 43 16q17 11 25 37l188 572h135l184 -572q8 -26 18 -36.5t33 -16.5v-50h-239v50zM394 34v-16h203v17q-35 11 -51 61l-179 559h-109l-183 -559q-16 -48 -68 -62v-16h167
v16q-52 11 -52 38q0 6 4 23l40 125h213l41 -125q5 -17 5 -28q0 -23 -31 -33zM206 277h135l-67 206zM180 258l94 286l93 -286h-187zM439 714h-101l-21 23l-19 -23h-101l79 101h88zM402 734l-50 60h-65l-52 -60h51l31 35l32 -35h53z" />
    <glyph glyph-name="Ecircumflex" unicode="&#xca;" horiz-adv-x="561" 
d="M7 1v50q25 8 31 15t6 31v480q0 24 -6 31t-31 15v50h489l12 -163h-56q-21 54 -47 76q-30 23 -85 23h-71q-26 0 -33.5 -6t-7.5 -22v-175h86q40 0 57 12t24 49h56v-194h-58q-3 39 -19.5 52.5t-59.5 13.5h-86v-236q0 -27 12 -34q9 -5 42 -5h63q67 0 104 28q34 26 60 91
l55 -23l-42 -159h-495zM25 20h462l34 129l-22 10q-26 -61 -67 -87.5t-107 -26.5h-63q-43 0 -58 12t-15 46v255h105q87 0 96 -67h22v157h-22q-14 -61 -96 -61h-105v194q0 47 60 47h71q56 0 89 -22.5t56 -77.5h23l-10 126h-453v-17q23 -8 30.5 -21t7.5 -39v-480
q0 -26 -7.5 -39t-30.5 -21v-17zM381 713l-101 -1l-21 23l-19 -23l-102 1l80 100h88zM344 732l-50 61h-65l-52 -61h51l31 36l32 -36h53z" />
    <glyph glyph-name="Aacute" unicode="&#xc1;" horiz-adv-x="665" 
d="M388 49q31 8 31 18q0 8 -4 22l-37 112h-186l-36 -111q-3 -14 -3 -18q0 -13 52 -22v-51h-204v50q31 7 45.5 17t23.5 36l187 572h136l183 -572q8 -26 18 -36.5t34 -16.5v-50h-240v50zM407 34v-16h202v17q-35 11 -51 61l-179 559h-108l-183 -559q-16 -48 -68 -62v-16h166v16
q-52 11 -52 38q0 6 4 23l41 125h213l40 -125q6 -17 6 -28q0 -23 -31 -33zM219 277h135l-68 206zM193 258l93 286l94 -286h-187zM436 821l-121 1l-61 -107h64zM389 801l-79 -66h-20l37 64z" />
    <glyph glyph-name="Edieresis" unicode="&#xcb;" horiz-adv-x="561" 
d="M7 1v50q25 8 31 15t6 31v480q0 24 -6 31t-31 15v50h489l12 -163h-56q-21 54 -47 76q-30 23 -85 23h-71q-26 0 -33.5 -6t-7.5 -22v-175h86q40 0 57 12t24 49h56v-194h-58q-3 39 -19.5 52.5t-59.5 13.5h-86v-236q0 -27 12 -34q9 -5 42 -5h63q67 0 104 28q34 26 60 91
l55 -23l-42 -159h-495zM25 20h462l34 129l-22 10q-26 -61 -67 -87.5t-107 -26.5h-63q-43 0 -58 12t-15 46v255h105q87 0 96 -67h22v157h-22q-14 -61 -96 -61h-105v194q0 47 60 47h71q56 0 89 -22.5t56 -77.5h23l-10 126h-453v-17q23 -8 30.5 -21t7.5 -39v-480
q0 -26 -7.5 -39t-30.5 -21v-17zM306 819h96v-96h-96v96zM326 799v-56h56v56h-56zM138 819h96v-96h-96v96zM158 799v-56h56v56h-56z" />
    <glyph glyph-name="Egrave" unicode="&#xc8;" horiz-adv-x="561" 
d="M7 1v50q25 8 31 15t6 31v480q0 24 -6 31t-31 15v50h489l12 -163h-56q-21 54 -47 76q-30 23 -85 23h-71q-26 0 -33.5 -6t-7.5 -22v-175h86q40 0 57 12t24 49h56v-194h-58q-3 39 -19.5 52.5t-59.5 13.5h-86v-236q0 -27 12 -34q9 -5 42 -5h63q67 0 104 28q34 26 60 91
l55 -23l-42 -159h-495zM25 20h462l34 129l-22 10q-26 -61 -67 -87.5t-107 -26.5h-63q-43 0 -58 12t-15 46v255h105q87 0 96 -67h22v157h-22q-14 -61 -96 -61h-105v194q0 47 60 47h71q56 0 89 -22.5t56 -77.5h23l-10 126h-453v-17q23 -8 30.5 -21t7.5 -39v-480
q0 -26 -7.5 -39t-30.5 -21v-17zM158 819l123 2l59 -106h-64zM209 800l75 -65h20l-37 64z" />
    <glyph glyph-name="Iacute" unicode="&#xcd;" horiz-adv-x="278" 
d="M1 51q24 8 30 15t6 31v479q0 24 -6 31t-30 15v50h226v-50q-24 -8 -30 -15t-6 -31v-479q0 -24 6 -31t30 -15v-50h-226v50zM19 37v-17h190v17q-22 8 -28.5 21t-6.5 39v479q0 26 6.5 39t28.5 21v17h-190v-17q22 -8 28.5 -21t6.5 -39v-479q0 -26 -6.5 -39t-28.5 -21zM211 822
h-126l-61 -107h64zM159 801l-79 -66h-20l37 64z" />
    <glyph glyph-name="Icircumflex" unicode="&#xce;" horiz-adv-x="278" 
d="M1 51q24 8 30 15t6 31v479q0 24 -6 31t-30 15v50h226v-50q-24 -8 -30 -15t-6 -31v-479q0 -24 6 -31t30 -15v-50h-226v50zM19 37v-17h190v17q-22 8 -28.5 21t-6.5 39v479q0 26 6.5 39t28.5 21v17h-190v-17q22 -8 28.5 -21t6.5 -39v-479q0 -26 -6.5 -39t-28.5 -21zM241 713
l-101 -1l-21 23l-19 -23l-102 1l80 100h88zM204 732l-50 61h-65l-52 -61h51l31 36l32 -36h53z" />
    <glyph glyph-name="Idieresis" unicode="&#xcf;" horiz-adv-x="278" 
d="M1 51q24 8 30 15t6 31v479q0 24 -6 31t-30 15v50h226v-50q-24 -8 -30 -15t-6 -31v-479q0 -24 6 -31t30 -15v-50h-226v50zM19 37v-17h190v17q-22 8 -28.5 21t-6.5 39v479q0 26 6.5 39t28.5 21v17h-190v-17q22 -8 28.5 -21t6.5 -39v-479q0 -26 -6.5 -39t-28.5 -21zM146 819
h96v-96h-96v96zM166 799v-56h56v56h-56zM-12 819h96v-96h-96v96zM8 799v-56h56v56h-56z" />
    <glyph glyph-name="Igrave" unicode="&#xcc;" horiz-adv-x="278" 
d="M1 51q24 8 30 15t6 31v479q0 24 -6 31t-30 15v50h226v-50q-24 -8 -30 -15t-6 -31v-479q0 -24 6 -31t30 -15v-50h-226v50zM19 37v-17h190v17q-22 8 -28.5 21t-6.5 39v479q0 26 6.5 39t28.5 21v17h-190v-17q22 -8 28.5 -21t6.5 -39v-479q0 -26 -6.5 -39t-28.5 -21zM18 819
l123 2l59 -106h-64zM69 800l75 -65h20l-37 64z" />
    <glyph glyph-name="Oacute" unicode="&#xd3;" horiz-adv-x="686" 
d="M100 72q-102 97 -102 267q0 145 92.5 245t229.5 100q139 0 230.5 -100.5t91.5 -250.5t-91.5 -250t-232.5 -100q-124 0 -218 89zM113 86q88 -84 205 -84q132 0 218.5 94t86.5 237t-86 237.5t-217 94.5q-129 0 -216 -94t-87 -232q0 -162 96 -253zM163 339q0 -143 45 -220
q41 -71 112 -71q90 0 130 106q27 73 27 179q0 138 -44 215q-42 71 -113 71q-69 0 -112 -71q-45 -75 -45 -209zM145 339q0 138 47.5 218.5t127.5 80.5q82 0 129 -81t47 -224q0 -115 -32 -193q-45 -111 -144 -111q-82 0 -128.5 81.5t-46.5 228.5zM441 822h-126l-61 -107h64z
M389 801l-79 -66h-20l37 64z" />
    <glyph glyph-name="Ocircumflex" unicode="&#xd4;" horiz-adv-x="686" 
d="M100 72q-102 97 -102 267q0 145 92.5 245t229.5 100q139 0 230.5 -100.5t91.5 -250.5t-91.5 -250t-232.5 -100q-124 0 -218 89zM113 86q88 -84 205 -84q132 0 218.5 94t86.5 237t-86 237.5t-217 94.5q-129 0 -216 -94t-87 -232q0 -162 96 -253zM163 339q0 -143 45 -220
q41 -71 112 -71q90 0 130 106q27 73 27 179q0 138 -44 215q-42 71 -113 71q-69 0 -112 -71q-45 -75 -45 -209zM145 339q0 138 47.5 218.5t127.5 80.5q82 0 129 -81t47 -224q0 -115 -32 -193q-45 -111 -144 -111q-82 0 -128.5 81.5t-46.5 228.5zM441 713l-101 -1l-21 23
l-19 -23l-102 1l80 100h88zM404 732l-50 61h-65l-52 -61h51l31 36l32 -36h53z" />
    <glyph glyph-name="Ograve" unicode="&#xd2;" horiz-adv-x="686" 
d="M100 72q-102 97 -102 267q0 145 92.5 245t229.5 100q139 0 230.5 -100.5t91.5 -250.5t-91.5 -250t-232.5 -100q-124 0 -218 89zM113 86q88 -84 205 -84q132 0 218.5 94t86.5 237t-86 237.5t-217 94.5q-129 0 -216 -94t-87 -232q0 -162 96 -253zM163 339q0 -143 45 -220
q41 -71 112 -71q90 0 130 106q27 73 27 179q0 138 -44 215q-42 71 -113 71q-69 0 -112 -71q-45 -75 -45 -209zM145 339q0 138 47.5 218.5t127.5 80.5q82 0 129 -81t47 -224q0 -115 -32 -193q-45 -111 -144 -111q-82 0 -128.5 81.5t-46.5 228.5zM238 819l123 2l59 -106h-64z
M289 800l75 -65h20l-37 64z" />
    <glyph glyph-name="Uacute" unicode="&#xda;" horiz-adv-x="635" 
d="M564 222q0 -114 -63.5 -174t-182.5 -60q-141 0 -221 68q-61 52 -61 157v364q0 25 -6 32t-32 15v50h239v-50q-25 -8 -31.5 -15t-6.5 -32v-370q0 -71 19 -101q30 -48 112 -48q157 0 157 155v363q0 27 -13 36q-7 4 -39 9v53h181v-53q-32 -5 -39 -9q-13 -9 -13 -36v-354z
M545 222v354q0 29 11.5 42.5t40.5 18.5v18h-143v-18q29 -5 40.5 -18.5t11.5 -42.5v-363q0 -83 -46 -128.5t-130 -45.5q-92 0 -128 57q-21 34 -21 111v370q0 27 7 39.5t30 20.5v18h-201v-18q23 -8 30.5 -20.5t7.5 -39.5v-364q0 -107 70 -155q77 -51 193 -51q227 0 227 215z
M421 822h-126l-61 -107h64zM369 801l-79 -66h-20l37 64z" />
    <glyph glyph-name="Ucircumflex" unicode="&#xdb;" horiz-adv-x="635" 
d="M564 222q0 -114 -63.5 -174t-182.5 -60q-141 0 -221 68q-61 52 -61 157v364q0 25 -6 32t-32 15v50h239v-50q-25 -8 -31.5 -15t-6.5 -32v-370q0 -71 19 -101q30 -48 112 -48q157 0 157 155v363q0 27 -13 36q-7 4 -39 9v53h181v-53q-32 -5 -39 -9q-13 -9 -13 -36v-354z
M545 222v354q0 29 11.5 42.5t40.5 18.5v18h-143v-18q29 -5 40.5 -18.5t11.5 -42.5v-363q0 -83 -46 -128.5t-130 -45.5q-92 0 -128 57q-21 34 -21 111v370q0 27 7 39.5t30 20.5v18h-201v-18q23 -8 30.5 -20.5t7.5 -39.5v-364q0 -107 70 -155q77 -51 193 -51q227 0 227 215z
M421 713l-101 -1l-21 23l-19 -23l-102 1l80 100h88zM384 732l-50 61h-65l-52 -61h51l31 36l32 -36h53z" />
    <glyph glyph-name="Ugrave" unicode="&#xd9;" horiz-adv-x="635" 
d="M564 222q0 -114 -63.5 -174t-182.5 -60q-141 0 -221 68q-61 52 -61 157v364q0 25 -6 32t-32 15v50h239v-50q-25 -8 -31.5 -15t-6.5 -32v-370q0 -71 19 -101q30 -48 112 -48q157 0 157 155v363q0 27 -13 36q-7 4 -39 9v53h181v-53q-32 -5 -39 -9q-13 -9 -13 -36v-354z
M545 222v354q0 29 11.5 42.5t40.5 18.5v18h-143v-18q29 -5 40.5 -18.5t11.5 -42.5v-363q0 -83 -46 -128.5t-130 -45.5q-92 0 -128 57q-21 34 -21 111v370q0 27 7 39.5t30 20.5v18h-201v-18q23 -8 30.5 -20.5t7.5 -39.5v-364q0 -107 70 -155q77 -51 193 -51q227 0 227 215z
M196 821l123 2l61 -108h-64zM248 799l76 -64h20l-37 64h-59z" />
    <glyph glyph-name="circumflex" unicode="&#x2c6;" horiz-adv-x="269" 
d="M251 713l-101 -1l-21 23l-19 -23l-102 1l80 100h88zM214 732l-50 61h-65l-52 -61h51l31 36l32 -36h53z" />
    <glyph glyph-name="tilde" unicode="&#x2dc;" horiz-adv-x="294" 
d="M25 725q15 92 87 92q16 0 47.5 -11.5t45.5 -11.5q9 0 14 15h96q-4 -41 -19 -61q-25 -33 -62 -33q-16 0 -50 12.5t-46 12.5q-13 0 -17 -15h-96zM49 745h58q9 15 31 15q16 0 48 -12.5t48 -12.5q49 0 59 54h-60q-9 -15 -28 -15q-16 0 -46.5 11.5t-46.5 11.5q-47 0 -63 -52z
" />
    <glyph glyph-name="macron" unicode="&#xaf;" horiz-adv-x="253" 
d="M8 790h263v-70h-263v70zM28 770v-30h223v30h-223z" />
    <glyph glyph-name="macron" unicode="&#x2c9;" horiz-adv-x="253" 
d="M8 790h263v-70h-263v70zM28 770v-30h223v30h-223z" />
    <glyph glyph-name="cedilla" unicode="&#xb8;" horiz-adv-x="581" 
d="M406 -117q-5 -35 -41.5 -67t-73.5 -32t-53 3q-21 5 -41 22l43 64q25 -21 66 -21q13 0 17 26q3 25 -10 26q-39 2 -62 -1l19 127l73 1l-8 -60q32 -5 54 -31t17 -57zM391 -117q4 31 -18.5 49.5t-55.5 19.5l8 58h-33l-17 -87q1 1 38 1q13 0 25 -13t10 -33q-3 -21 -15.5 -33.5
t-24.5 -12.5q-33 0 -60 12l-20 -29q15 -11 70 -11q29 0 59 25.5t34 53.5z" />
    <glyph glyph-name="Scaron" unicode="&#x160;" 
 />
    <glyph glyph-name="scaron" unicode="&#x161;" 
 />
    <glyph glyph-name="brokenbar" unicode="&#xa6;" 
 />
    <glyph glyph-name="Eth" unicode="&#xd0;" 
 />
    <glyph glyph-name="eth" unicode="&#xf0;" 
 />
    <glyph glyph-name="Yacute" unicode="&#xdd;" 
 />
    <glyph glyph-name="yacute" unicode="&#xfd;" 
 />
    <glyph glyph-name="Thorn" unicode="&#xde;" 
 />
    <glyph glyph-name="thorn" unicode="&#xfe;" 
 />
    <glyph glyph-name="minus" unicode="&#xad;" 
 />
    <glyph glyph-name="minus" unicode="&#x2212;" 
 />
    <glyph glyph-name="multiply" unicode="&#xd7;" 
 />
    <glyph glyph-name="onesuperior" unicode="&#xb9;" 
 />
    <glyph glyph-name="twosuperior" unicode="&#xb2;" 
 />
    <glyph glyph-name="threesuperior" unicode="&#xb3;" 
 />
    <glyph glyph-name="onehalf" unicode="&#xbd;" 
 />
    <glyph glyph-name="onequarter" unicode="&#xbc;" 
 />
    <glyph glyph-name="threequarters" unicode="&#xbe;" 
 />
    <glyph glyph-name="Lslash" unicode="&#x141;" 
 />
    <glyph glyph-name="lslash" unicode="&#x142;" 
 />
    <glyph glyph-name="HT" 
 />
    <glyph glyph-name="LF" 
 />
    <glyph glyph-name="nonmarkingreturn" 
 />
    <glyph glyph-name="Zcaron" unicode="&#x17d;" 
 />
    <glyph glyph-name="zcaron" unicode="&#x17e;" 
 />
    <glyph glyph-name="DLE" 
 />
    <glyph glyph-name="DC1" 
 />
    <glyph glyph-name="DC2" 
 />
    <glyph glyph-name="DC3" 
 />
    <glyph glyph-name="DC4" 
 />
    <glyph glyph-name="RS" 
 />
    <glyph glyph-name="US" 
 />
    <glyph glyph-name="notequal" unicode="&#x2260;" horiz-adv-x="20" 
 />
    <glyph glyph-name="infinity" unicode="&#x221e;" horiz-adv-x="20" 
 />
    <glyph glyph-name="lessequal" unicode="&#x2264;" horiz-adv-x="20" 
 />
    <glyph glyph-name="greaterequal" unicode="&#x2265;" horiz-adv-x="20" 
 />
    <glyph glyph-name="partialdiff" unicode="&#x2202;" horiz-adv-x="277" 
d="M202 255v-169q0 -20 4 -26.5t21 -16.5v-40h-193v40q8 4 21 16q4 6 4 27v67l-54 -39v93l54 38v306q0 17 -3.5 20.5t-21.5 7.5v44q73 24 128 58h40v-334l46 33v-93zM228 341l-46 -33v353h-15q-51 -32 -113 -52v-14q25 -10 25 -44v-316l-54 -39v-43l54 39v-106
q0 -38 -25 -55v-8h153v8q-25 17 -25 55v179l46 33v43z" />
    <glyph glyph-name="summation" unicode="&#x2211;" horiz-adv-x="539" 
d="M10 65l-5 3l32 159l60 -5v-9q0 -76 40 -117q44 -44 117 -44q47 0 76 27t29 69q0 39 -25 62q-29 27 -117 64q-99 41 -136 72q-61 53 -61 139q0 90 64 144.5t165 54.5q61 0 115 -18q34 -11 110 -48l-31 -147h-56q-13 145 -132 145q-42 0 -67 -24.5t-25 -62.5
q0 -43 28.5 -70t116.5 -61q99 -39 137 -69q62 -51 62 -136q0 -92 -69.5 -151t-173.5 -59q-128 0 -254 82zM26 77q118 -75 238 -75q97 0 161 54t64 137q0 93 -90 144q-82 36 -165 71q-89 44 -89 121q0 46 30.5 75.5t79.5 29.5q60 0 100.5 -38.5t48.5 -105.5h24l24 118
q-64 31 -98 42q-50 15 -105 15q-94 0 -152.5 -49.5t-58.5 -130.5q0 -94 88 -148l164 -74q88 -44 88 -115q0 -50 -35 -82t-89 -32q-81 0 -130 49q-44 44 -46 122l-26 2zM141 803h99l21 -24l19 24h99l-67 -91h-108zM176 783l40 -51h85l42 51h-51l-31 -36l-32 36h-53z" />
    <glyph glyph-name="product" unicode="&#x220f;" horiz-adv-x="416" 
d="M3 55l-6 4l38 137l54 -18q-3 -33 -3 -36q0 -31 25.5 -55.5t60.5 -24.5q27 0 43 14.5t16 35.5q0 26 -35 48q-29 14 -57 28q-126 64 -126 152q0 65 53 107q50 40 126 40q60 0 162 -50l-38 -131l-53 18q3 31 3 33q0 26 -20.5 45t-51.5 19q-23 0 -38 -13t-15 -30
q0 -28 47 -55q37 -17 73 -35q113 -57 113 -142q0 -68 -53.5 -110.5t-131.5 -42.5q-75 0 -186 62zM19 68q101 -56 170 -56q72 0 119.5 38t47.5 96q0 60 -61 101l-112 58q-60 33 -60 73q0 26 20.5 44t50.5 18q38 0 64.5 -24.5t26.5 -58.5q0 -3 -2 -20l20 -7l29 97
q-85 41 -140 41q-70 0 -115 -36t-45 -92q0 -43 30 -76q23 -26 69 -50l74 -38q44 -24 44 -64q0 -30 -21.5 -49.5t-55.5 -19.5q-42 0 -73.5 29.5t-31.5 69.5q0 4 2 23l-21 7zM81 613h99l21 -24l19 24h99l-67 -91h-108zM116 593l40 -51h85l42 51h-51l-31 -36l-32 36h-53z" />
    <glyph glyph-name="pi" unicode="&#x3c0;" horiz-adv-x="651" 
d="M398 279v-184q0 -24 6.5 -31t31.5 -15v-50h-248v50q26 8 32 15t6 31v184l-161 287q-26 46 -64 58v49h262q1 -30 0 -50q-25 -6 -25 -10q0 3 -3 -9q-3 -9 1 -17l118 -214l107 214q8 15 8 21q-4 6 -42 15v50l190 -1v-49q-49 -15 -71 -57zM380 284l149 291q24 46 69 62v16
l-152 1v-16q41 -11 41 -30q0 -10 -10 -30l-123 -244l-134 244q-11 20 -11 31q0 20 36 29v16h-225v-16q34 -14 61 -62l164 -292v-189q0 -26 -7.5 -39t-30.5 -21v-17h210v17q-23 8 -30 21t-7 39v189zM431 821l-126 1l-61 -107h64zM379 801l-79 -66l-22 -1l39 65z" />
    <glyph glyph-name="integral" unicode="&#x222b;" horiz-adv-x="500" 
d="M136 -114q4 6 8 16l42 105l-137 383q-8 23 -16 29t-34 14v49h228v-50q-10 -2 -28 -10q0 -5 4 -17l61 -199l66 200q4 8 4 14q-8 5 -40 11v51h171v-49q-29 -9 -36 -13q-12 -8 -20 -30l-188 -514q-36 -97 -120 -97q-33 0 -57 20.5t-24 51.5q0 27 19 45t46 18q30 0 51 -28z
M203 -117l188 514q14 37 55 50v16h-133v-16q39 -9 39 -27q0 -10 -5 -21l-83 -248l-79 248q-5 14 -5 24q0 15 29 24v16h-191v-16q35 -12 49 -50l140 -390l-45 -112q-12 -30 -26 -30q-7 0 -19 15.5t-32 15.5q-19 0 -32.5 -13t-13.5 -32q0 -22 18 -37.5t44 -15.5q71 0 102 85z
M351 631l-126 1l-61 -107h64zM299 611l-79 -66l-22 -1l39 65z" />
    <glyph glyph-name="Omega" unicode="&#x3a9;" horiz-adv-x="659" 
d="M48 328q1 30 4 58h-49v82h69q36 99 115.5 156.5t184.5 57.5q76 0 211 -58l-31 -143h-46q-39 113 -150 113q-115 0 -148 -126h196v-82h-207v-12q0 -19 3 -46h204v-82h-188q53 -171 181 -171q50 0 93 34q9 6 72 69l61 -44q-65 -74 -117 -106q-68 -43 -149 -43
q-113 0 -196 75t-105 186h-53v82h45zM564 148q-57 -54 -87 -73q-37 -23 -80 -23q-152 0 -211 217h195v36h-202q-5 41 -5 69q0 12 1 35h206l1 38q-21 -2 -111 -3q-92 -1 -94 1q36 172 179 172q124 0 166 -113h12l23 107q-116 48 -185 48q-103 0 -178 -59q-71 -56 -105 -155
h-63v-36h53q-8 -50 -7 -104h-46v-36h49q13 -77 45 -126q39 -62 103 -98.5t134 -36.5q120 0 232 123z" />
    <glyph glyph-name="Omega" unicode="&#x2126;" horiz-adv-x="659" 
d="M48 328q1 30 4 58h-49v82h69q36 99 115.5 156.5t184.5 57.5q76 0 211 -58l-31 -143h-46q-39 113 -150 113q-115 0 -148 -126h196v-82h-207v-12q0 -19 3 -46h204v-82h-188q53 -171 181 -171q50 0 93 34q9 6 72 69l61 -44q-65 -74 -117 -106q-68 -43 -149 -43
q-113 0 -196 75t-105 186h-53v82h45zM564 148q-57 -54 -87 -73q-37 -23 -80 -23q-152 0 -211 217h195v36h-202q-5 41 -5 69q0 12 1 35h206l1 38q-21 -2 -111 -3q-92 -1 -94 1q36 172 179 172q124 0 166 -113h12l23 107q-116 48 -185 48q-103 0 -178 -59q-71 -56 -105 -155
h-63v-36h53q-8 -50 -7 -104h-46v-36h49q13 -77 45 -126q39 -62 103 -98.5t134 -36.5q120 0 232 123z" />
    <glyph glyph-name="radical" unicode="&#x221a;" horiz-adv-x="20" 
 />
    <glyph glyph-name="approxequal" unicode="&#x2248;" horiz-adv-x="20" 
 />
    <glyph glyph-name="approxequal" unicode="&#x22f2;" horiz-adv-x="20" 
 />
    <glyph glyph-name="Delta" unicode="&#x394;" horiz-adv-x="20" 
 />
    <glyph glyph-name="Delta" unicode="&#x2206;" horiz-adv-x="20" 
 />
    <glyph glyph-name="lozenge" unicode="&#x25ca;" horiz-adv-x="20" 
 />
    <glyph glyph-name="fraction" unicode="&#x2044;" horiz-adv-x="20" 
 />
    <glyph glyph-name="fi" unicode="&#xf001;" horiz-adv-x="20" 
 />
    <glyph glyph-name="fl" unicode="&#xf002;" horiz-adv-x="20" 
 />
    <glyph glyph-name="apple" unicode="&#xf000;" horiz-adv-x="20" 
 />
    <glyph glyph-name="dotlessi" unicode="&#x131;" horiz-adv-x="253" 
d="M1 45q18 10 21.5 15.5t3.5 25.5v266q0 17 -5 20q-1 1 -21 5v51q53 16 69 23q21 9 63 35h45v-400q0 -20 3.5 -25.5t21.5 -15.5v-46h-201v46zM20 34v-16h163v16q-25 14 -25 52v381h-21q-53 -33 -118 -53v-22q26 -5 26 -40v-266q0 -38 -25 -52z" />
    <glyph glyph-name="breve" unicode="&#x2d8;" horiz-adv-x="293" 
d="M161 704q-138 0 -153 118l-1 11h81q11 -37 24 -45t54 -8q37 0 47.5 8t22.5 45h78q-23 -129 -153 -129zM161 724q107 0 129 89h-40q-13 -35 -32 -45q-15 -8 -52 -8q-41 0 -58 8q-22 11 -35 45h-43q18 -89 131 -89z" />
    <glyph glyph-name="dotaccent" unicode="&#x2d9;" horiz-adv-x="110" 
d="M3 820h115v-119h-115v119zM23 800v-79h75v79h-75z" />
    <glyph glyph-name="ring" unicode="&#x2da;" horiz-adv-x="166" 
d="M88 698q-36 0 -61 23.5t-25 60.5q0 36 26.5 58.5t62.5 22.5q35 0 61 -22.5t26 -57.5q0 -36 -27.5 -60.5t-62.5 -24.5zM88 718q26 0 48 19t22 46q0 26 -20 43t-47 17q-28 0 -48.5 -16.5t-20.5 -44.5t19 -46t47 -18zM90 806q-24 0 -24 -24q0 -26 24 -26q23 0 23 26
q0 24 -23 24zM90 826q18 0 30.5 -12.5t12.5 -31.5q0 -18 -12 -32t-31 -14t-31.5 13.5t-12.5 32.5q0 18 12.5 31t31.5 13z" />
    <glyph glyph-name="hungarumlaut" unicode="&#x2dd;" horiz-adv-x="247" 
d="M129 712l46 110h89l-79 -110h-56zM153 728h24l56 78h-47zM1 712l46 110h89l-78 -110h-57zM25 728h25l55 78h-47z" />
    <glyph glyph-name="ogonek" unicode="&#x2db;" horiz-adv-x="236" 
d="M26 -142q-14 20 -14 44q0 48 59 98h100l-48 -38q-31 -26 -31 -47q0 -53 49 -53q10 0 36 6l-2 -66q-11 -4 -26 -2q-25 2 -27 2q-59 0 -96 56zM47 -138q28 -35 71 -35q4 0 17 -3t21 -1l1 20q-9 -1 -16 -1q-31 0 -50 19.5t-19 53.5q0 14 15 33q13 15 26 31l-35 1
q-46 -40 -46 -78q0 -21 15 -40z" />
    <glyph glyph-name="caron" unicode="&#x2c7;" horiz-adv-x="233" 
d="M11 803h99l21 -24l19 24h99l-67 -91h-108zM46 783l40 -51h85l42 51h-51l-31 -36l-32 36h-53z" />
    </font>
</defs>
</svg>
