<?xml version="1.0" standalone="no"?>
<!DOCTYPE svg PUBLIC "-//W3C//DTD SVG 1.1//EN" "http://www.w3.org/Graphics/SVG/1.1/DTD/svg11.dtd" >
<svg>
<metadata>
Created by FontForge 20120731 at Wed Apr 17 23:39:02 2019
 By www-data
Digitized by Dan X. Solo. Software (c) 2001 by Doiver Publications Inc., New York.
</metadata>
<defs>
<font id="WhitinOutline" horiz-adv-x="255" >
  <font-face 
    font-family="Whitin Outline"
    font-weight="400"
    font-stretch="normal"
    units-per-em="1000"
    panose-1="0 0 4 0 0 0 0 0 0 0"
    ascent="800"
    descent="-200"
    x-height="510"
    cap-height="673"
    bbox="-41 -315 878 863"
    underline-thickness="20"
    underline-position="-123"
    unicode-range="U+0020-F002"
  />
<missing-glyph horiz-adv-x="500" 
d="M63 0v800h375v-800h-375zM125 63h250v675h-250v-675z" />
    <glyph glyph-name=".notdef" horiz-adv-x="500" 
d="M63 0v800h375v-800h-375zM125 63h250v675h-250v-675z" />
    <glyph glyph-name=".null" horiz-adv-x="0" 
 />
    <glyph glyph-name="glyph2" 
 />
    <glyph glyph-name="space" unicode=" " 
 />
    <glyph glyph-name="exclam" unicode="!" horiz-adv-x="206" 
d="M169 484q-5 -25 -55 -249h-58q-59 313 -59 346q0 40 26 70t68 30q43 0 70 -32q24 -30 24 -68q0 -18 -16 -97zM73 255h30l1 2v2l45 229q15 77 15 93q0 31 -20 55.5t-53 24.5t-53 -23.5t-20 -56.5q0 -24 55 -326v0zM87 -2q-39 0 -67 28t-28 66q0 40 28.5 68t67.5 28
q41 0 70 -34q24 -29 24 -62q0 -42 -29 -68t-66 -26zM87 18q29 0 52 20.5t23 53.5q0 26 -20 49q-22 27 -54 27q-31 0 -53.5 -22t-22.5 -54q0 -30 22 -52t53 -22z" />
    <glyph glyph-name="quotedbl" unicode="&#x22;" horiz-adv-x="307" 
d="M160 604q0 27 16.5 46.5t44.5 19.5t46 -21q15 -20 15 -45q0 -34 -17 -121q-16 -78 -28 -117h-37zM222 386l24 110q16 75 16 108q0 19 -11.5 32.5t-29.5 13.5t-29.5 -13.5t-11.5 -32.5q0 -35 14 -108q11 -55 23 -110h5zM0 604q0 27 16.5 46.5t44.5 19.5t46 -21
q15 -20 15 -45q0 -34 -17 -121q-16 -78 -28 -117h-37zM62 386l24 110q16 75 16 108q0 19 -11.5 32.5t-29.5 13.5t-29.5 -13.5t-11.5 -32.5q0 -35 14 -108q11 -55 23 -110h5z" />
    <glyph glyph-name="numbersign" unicode="#" horiz-adv-x="399" 
d="M217 226l31 224h-65l-31 -224h65zM234 206h-105l37 264h105zM77 226l31 224h-55l15 106h55l17 122h75l-17 -122h65l17 122h75l-17 -122h63l-15 -106h-63l-31 -224h62l-15 -106h-62l-16 -117h-75l16 117h-65l-16 -117h-75l16 117h-55l15 106h55zM94 206h-55l-9 -66h55
l-16 -117h34l17 117h105l-16 -117h34l17 117h62l9 66h-62l37 264h62l10 66h-63l17 122h-34l-17 -122h-106l17 122h-34l-17 -122h-56l-9 -66h55z" />
    <glyph glyph-name="dollar" unicode="$" horiz-adv-x="484" 
d="M494 215q0 -129 -102 -195q-42 -27 -101 -39v-89h-78v87q-84 19 -113 33q-94 43 -91 122q3 76 76 76q28 -1 46 -26q14 -21 14 -46q0 -15 -9 -28q-11 -17 -14 -25q21 -26 89 -40q1 15 0 198l-62 16q-58 19 -92 54q-47 50 -48 130q0 89 56 152t144 72v33h77q-2 -5 0 -32
q32 0 87 -29q75 -40 74 -100q0 -23 -17 -42.5t-41 -19.5q-14 0 -32 10q-22 13 -24 32q-1 12 6 58q-4 6 -14 10q-13 5 -17 8l-19 3v-165q205 -44 205 -218zM472 215q0 26 -10 67q-14 53 -77 92q-57 36 -117 39v207q28 -2 47 -6q48 -11 49 -33q0 -8 -5 -24.5t-5 -24.5
q0 -33 35 -33t35 42q0 31 -20 51q-16 15 -58 34q-20 9 -78 25q-4 20 -2 30h-12q-13 1 -22 1q-2 -14 0 -31q-87 -5 -145 -65.5t-55 -143.5q2 -72 53 -118q37 -32 95 -49q27 -6 53 -13v-238q-35 5 -77 19q-58 20 -58 42q0 1 12.5 17t12.5 36q0 19 -11 34.5t-29 15.5
q-51 0 -51 -56q0 -70 84 -106q50 -21 117 -26l1 -87h38q-2 83 0 85q101 9 154 76q46 57 46 141zM235 422q-69 5 -103 42q-24 26 -24 59q0 56 57 81q28 12 35.5 14t35.5 2zM391 138q0 -58 -55 -92q-38 -23 -66 -23l1 230q23 -5 68 -23q52 -34 52 -92zM211 448v151
q-78 -12 -78 -77q0 -11 3 -23q4 -18 27.5 -33t47.5 -18zM369 138q0 31 -23 57t-55 33v-181q32 4 55 31.5t23 59.5z" />
    <glyph glyph-name="percent" unicode="%" horiz-adv-x="677" 
d="M531 672l-303 -671h-90l304 671h89zM503 652h-49l-283 -631l43 -3zM527 -8q-78 0 -115 80q-27 56 -27 126q0 67 31 123q39 74 112 74q76 0 115 -76q28 -56 28 -125q0 -74 -27 -128q-38 -74 -117 -74zM642 283q-14 46 -45.5 70.5t-68.5 24.5q-65 0 -99 -72
q-25 -52 -25 -110q0 -139 83 -178q20 -9 37 -9h7q36 0 70.5 28.5t42.5 72t8 85.5q0 54 -10 88zM529 38q-31 0 -40 32q1 16 -1 41l-2 104q-2 89 4 112q3 10 15 17.5t22 7.5q46 0 46 -100v-165q0 -16 -11 -31q-13 -18 -33 -18zM554 262q0 74 -28 74q-23 0 -23 -40v-168
q0 -3 2 -20q2 -20 2 -31q2 -25 22 -25q9 0 17 9.5t8 19.5v181zM137 272q-78 0 -115 80q-27 56 -27 126q0 67 31 123q39 74 112 74q76 0 115 -76q28 -56 28 -125q0 -74 -27 -128q-38 -74 -117 -74zM252 563q-14 46 -45.5 70.5t-68.5 24.5q-65 0 -99 -72q-25 -52 -25 -110
q0 -139 83 -178q20 -9 37 -9h7q36 0 70.5 28.5t42.5 70.5q8 46 8 83q0 57 -10 92zM139 318q-31 0 -40 32q1 16 -1 41l-2 104q-2 89 4 112q3 10 15 17.5t22 7.5q46 0 46 -100v-165q0 -16 -11 -31q-13 -18 -33 -18zM164 542q0 74 -28 74q-23 0 -23 -40v-168q0 -3 2 -20
q2 -20 2 -31q2 -25 22 -25q9 0 17 9.5t8 19.5v181z" />
    <glyph glyph-name="ampersand" unicode="&#x26;" horiz-adv-x="677" 
d="M692 146q-48 -95 -84 -126.5t-98 -31.5q-36 0 -65 14q-19 9 -38 26q-16 14 -19 14q-99 -63 -179 -63q-89 0 -147 52q-62 56 -62 147q0 64 46 127q51 70 133 100q-26 69 -26 114q0 82 56 128q51 41 130 41q66 0 108 -25q56 -32 56 -102q0 -96 -132 -150q61 -117 108 -183
q16 16 34.5 50.5t18.5 51.5q0 20 -21 25q-19 2 -37 5v59h207l1 -56q-28 7 -49 -13q-14 -13 -32 -46q-13 -27 -28 -54.5t-48 -85.5q30 -35 60 -35q31 0 58 47q26 -10 49 -30zM668 141q2 3 -8 9t-11 5q-27 -46 -64 -46q-8 0 -16 2q-19 4 -43.5 25.5t-24.5 32.5q0 5 16 28
q20 31 24 39q16 27 45 80q8 20 29 49q14 11 44 16v17h-163v-20q58 -6 58 -47q0 -27 -32 -78q-28 -44 -46 -58q-81 112 -134 231q62 19 102.5 55t40.5 80q0 57 -52 87q-40 23 -94 23q-72 0 -118 -42t-46 -112q0 -39 29 -123q-182 -82 -182 -217q0 -76 52.5 -128.5
t133.5 -50.5q49 1 94 18q30 12 61 33q25 17 27 17q-6 0 35 -26.5t83 -30.5q53 -5 90 29q32 28 70 103zM437 567q0 -38 -26 -71q-29 -35 -78 -53q-42 88 -42 131q0 28 18.5 48.5t48.5 20.5q40 0 62 -28q17 -22 17 -48zM365 101q-24 -40 -81 -40q-64 0 -111 80q-38 68 -38 125
q0 66 81 104q33 -69 67 -138q38 -73 82 -131zM419 565q0 19 -13 38q-17 24 -42 24q-24 0 -37.5 -15.5t-13.5 -37.5q0 -31 32 -107q1 -2 6.5 2.5t6.5 4.5q61 49 61 91zM338 97q-85 128 -132 245q-26 -9 -40 -33q-13 -20 -13 -41q0 -44 38 -112q45 -81 96 -78q17 1 51 19z" />
    <glyph glyph-name="quotesingle" unicode="'" horiz-adv-x="147" 
d="M0 604q0 27 16.5 46.5t44.5 19.5t46 -21q15 -20 15 -45q0 -34 -17 -121q-16 -78 -28 -117h-37zM62 386l24 110q16 75 16 108q0 19 -11.5 32.5t-29.5 13.5t-29.5 -13.5t-11.5 -32.5q0 -35 14 -108q11 -55 23 -110h5z" />
    <glyph glyph-name="parenleft" unicode="(" horiz-adv-x="201" 
d="M187 670q-96 -213 -96 -350q0 -143 97 -328h-88q-105 158 -105 345q0 186 106 333h86zM157 650h-46q-96 -137 -96 -312q0 -178 96 -326h45q-85 166 -85 307q0 138 86 331z" />
    <glyph glyph-name="parenright" unicode=")" horiz-adv-x="209" 
d="M1 -8q97 213 97 350q0 143 -98 328h88q106 -159 106 -346q0 -185 -106 -332h-87zM32 12h46q96 136 96 312q0 178 -96 326h-45q85 -166 85 -307q0 -138 -86 -331z" />
    <glyph glyph-name="asterisk" unicode="*" horiz-adv-x="333" 
d="M198 682v-88l76 44l41 -70l-77 -44l77 -44l-41 -70l-76 44v-89h-81v89l-77 -44l-40 70l77 44l-77 44l40 70l77 -44v88h81zM178 662h-41v-103l-90 52l-20 -35l90 -52l-90 -52l20 -35l90 52v-104h41v104l89 -52l20 35l-89 52l89 52l-20 35l-89 -52v103z" />
    <glyph glyph-name="plus" unicode="+" horiz-adv-x="453" 
d="M287 85h-90l-1 196h-196v90l195 1v196h92v-195l197 1v-92l-197 -1v-196zM263 110l-1 196h197v42h-197l1 195h-42l-1 -196l-195 1v-42h196v-196h42z" />
    <glyph glyph-name="comma" unicode="," horiz-adv-x="218" 
d="M95 -4q-89 16 -89 94q0 38 25 63.5t62 25.5q48 0 77 -37q27 -33 27 -78q0 -70 -49 -133t-116 -87q-9 18 -19 52q31 12 55 40t27 60zM41 -132q56 20 98 88q37 60 37 108q0 38 -23 66t-60 28q-28 0 -47 -19.5t-19 -48.5q0 -62 78 -75q4 -2 7 -4t4 -9q2 -32 -22.5 -65
t-59.5 -50q0 -1 7 -19z" />
    <glyph glyph-name="hyphen" unicode="-" horiz-adv-x="274" 
d="M268 272v-84h-266v84h266zM248 252h-226v-44h226v44z" />
    <glyph glyph-name="hyphen" unicode="&#x2010;" horiz-adv-x="274" 
d="M268 272v-84h-266v84h266zM248 252h-226v-44h226v44z" />
    <glyph glyph-name="period" unicode="." horiz-adv-x="201" 
d="M88 -9q-36 0 -65.5 29.5t-29.5 65.5t28.5 63t62.5 27q42 0 70 -27.5t28 -63.5q0 -37 -29.5 -65.5t-64.5 -28.5zM88 12q26 0 49.5 22t23.5 51q0 28 -22 49.5t-55 21.5q-26 0 -48.5 -21.5t-22.5 -48.5q0 -28 23.5 -51t51.5 -23z" />
    <glyph glyph-name="slash" unicode="/" horiz-adv-x="216" 
d="M201 672l-103 -671h-90l104 671h89zM178 652h-49l-97 -631h49z" />
    <glyph glyph-name="zero" unicode="0" horiz-adv-x="555" 
d="M534 341q0 -120 -51 -219q-71 -136 -210 -136q-138 0 -205 136q-48 96 -48 219q0 118 55 213q69 121 199 121t203 -121q57 -97 57 -213zM512 337q0 101 -50 195q-67 125 -190 125t-185 -125q-45 -90 -45 -195q0 -119 50 -212q64 -120 183 -120q120 -1 186 119
q51 95 51 213zM355 122q0 -7 0 262q0 142 -1 163q-1 37 -26 62.5t-55 22.5q-30 2 -50.5 -22.5t-21.5 -62.5q-1 -15 -1 -163v-262q0 -31 15 -55q20 -31 60 -34q39 3 62 34q18 25 18 55zM334 547v-429q0 -27 -18 -47t-42 -20t-38.5 19.5t-14.5 47.5v429q0 25 13 47.5t36 22.5
q27 0 47 -30q17 -23 17 -40z" />
    <glyph glyph-name="one" unicode="1" horiz-adv-x="555" 
d="M451 -1h-347v69l79 9l1 496h-81v61l267 49l-1 -609l82 -15v-60zM429 18l-1 26l-82 13v599l-219 -38l-2 -27h80v-533l-82 -9v-30z" />
    <glyph glyph-name="two" unicode="2" horiz-adv-x="555" 
d="M526 189q0 -76 -44 -132q-50 -64 -130 -64q-35 0 -105 29.5t-93 29.5q-44 0 -68 -51h-58v19q0 10 14 46q37 93 112 175l112 118q52 66 52 146q0 115 -83 115q-13 0 -32 -7q-23 -8 -32 -21q1 -5 11 -13q14 -12 16 -14q24 -26 24 -64q0 -39 -29 -66t-64 -27q-44 0 -67 32
q-19 27 -19 68q0 92 92 141q69 37 150 37q88 0 156 -45q82 -53 82 -147q0 -75 -50 -126q-32 -31 -109.5 -71.5t-102.5 -65.5q-21 -15 -58 -55q35 15 80 15q4 0 66.5 -11t67.5 -11q50 0 59 69h50v-49zM510 215q0 6 -7 3q-9 -2 -11 -1q-30 -70 -75 -70q-5 0 -70 11t-70 11
q-60 0 -123 -40q4 33 57 85q43 44 87 72q47 25 93 50q59 33 82 69q28 41 28 91q0 83 -74 132q-62 40 -142 40q-75 0 -141 -35q-83 -45 -83 -121q0 -31 16 -56q19 -30 52 -30q26 0 48.5 22t22.5 53q0 46 -58 85q39 52 93 52q55 0 83 -48q22 -37 22 -85q0 -87 -56 -158
q-60 -65 -119 -129q-78 -89 -114 -195q7 -6 16 -3q51 54 87 54q16 0 88.5 -29.5t113.5 -29.5q76 0 118 67q36 55 36 133z" />
    <glyph glyph-name="three" unicode="3" horiz-adv-x="555" 
d="M523 171q0 -102 -104 -147q-69 -31 -164 -31q-79 0 -138 26q-85 37 -85 117q0 39 25.5 66t60.5 27q37 0 61 -31q21 -27 21 -58q0 -27 -7 -40.5t-14 -24.5q21 -14 54 -14q83 0 83 121q0 77 -35 106t-135 32v54q77 -2 124.5 36t47.5 109q0 41 -18 70q-22 36 -64 36
q-27 0 -45 -13q1 -4 15 -27q9 -16 9 -40q0 -38 -24.5 -62t-56.5 -24q-41 0 -63 31q-16 24 -16 54q0 80 82 117q55 25 127 25q89 0 152 -32q88 -44 88 -138q0 -136 -167 -167q6 0 16 -3q75 -11 122.5 -62t47.5 -113zM501 169q0 92 -90 136q-52 26 -163 43q0 4 3 4
q101 12 153 39q79 41 79 125q0 86 -79 124q-55 27 -142 27q-65 0 -114 -21q-72 -31 -72 -101q0 -23 11 -43q16 -24 43 -24q29 0 46 19t17 48q0 26 -13 45q-1 2 -8 10q-5 4 -5 9q0 16 28 25q22 8 42 8q49 0 78 -41q25 -36 25 -83q0 -66 -47 -111q-48 -48 -129 -51q0 1 2 -11
q1 -7 -1 -10q30 -1 60 -3q49 -6 76 -34q37 -37 37 -112q0 -146 -108 -144q-13 0 -40 9q-35 11 -36 24q0 2 12 22t12 43q0 22 -14 43q-18 27 -48 27q-25 0 -43.5 -23.5t-18.5 -50.5q0 -24 16.5 -52.5t39.5 -41.5q48 -27 147 -27q244 0 244 154z" />
    <glyph glyph-name="four" unicode="4" horiz-adv-x="555" 
d="M539 211v-81h-98v-59h47v-71h-285v69h51v62h-238l-1 76l302 471h121v-466zM518 151l-1 42l-100 -1v468h-89q-96 -154 -293 -457v-52h240v-100h-50v-33h241v35h-47v99zM275 192h-197v16l197 314v-330zM256 211l1 249l-153 -248z" />
    <glyph glyph-name="five" unicode="5" horiz-adv-x="555" 
d="M525 215q0 -118 -87 -176q-72 -49 -183 -46q-77 2 -136 28q-89 40 -89 125q0 37 27 67t65 30q39 0 61.5 -27.5t22.5 -66.5q0 -22 -1 -26q-4 -19 -25 -44q4 -8 21.5 -15.5t31.5 -7.5q94 0 94 143q0 67 -17 100q-24 46 -88 46q-68 0 -140 -44l-16 15l33 365q18 -5 57 -14
q89 -14 134 -14q104 0 149 44q17 -6 40 -16q0 -10 -12 -45q-44 -134 -217 -134q-17 0 -94 7q-7 -34 -8 -106q74 34 144 31q100 -3 163 -58q70 -59 70 -161zM505 215q0 93 -63 148q-61 52 -154 52q-90 0 -163 -45q6 55 16 163q73 -12 105 -12q76 0 120 22q66 34 94 126
q-3 3 -21 7q-45 -41 -151 -41q-71 0 -169 21l-30 -329q80 36 137 36q74 0 103 -53q18 -35 18 -105q0 -165 -111 -167q-20 0 -45 9q-33 11 -40 28q36 35 36 74q0 27 -18.5 49.5t-45.5 22.5t-49 -20t-22 -54q0 -77 79 -113q55 -25 130 -25q97 0 163 44q81 54 81 162z" />
    <glyph glyph-name="six" unicode="6" horiz-adv-x="555" 
d="M534 208q-4 -102 -71.5 -161t-170.5 -57q-144 2 -214 107q-57 84 -57 216q0 142 68 243q83 122 236 122q63 0 111 -30q59 -36 59 -102q0 -41 -26 -68t-62 -27q-39 0 -64 31q-23 27 -23 61q0 11 24 66q-21 2 -31 2q-87 0 -95 -153v-93q34 39 126 39q79 0 136 -59t54 -137z
M513 209q0 71 -50 121t-129 52q-45 1 -86 -20q-34 -17 -49 -39v153q0 147 120 155q14 1 32.5 -6t22.5 -14q-32 -47 -32 -70q0 -29 19 -48.5t48 -19.5q31 0 51 28q17 23 17 51q0 56 -61 86q-45 21 -94 21q-133 0 -209 -103q-71 -95 -71 -240q0 -118 50 -200q64 -107 197 -107
q90 0 151 45q73 54 73 155zM356 187q0 -63 -8 -94q-16 -60 -66 -60q-82 0 -82 168q0 137 80 137q76 0 76 -151zM334 187q0 54 -4 75q-12 54 -52 54q-37 0 -47 -43q-5 -18 -5 -66q0 -64 5 -90q12 -66 53 -66q50 0 50 136z" />
    <glyph glyph-name="seven" unicode="7" horiz-adv-x="555" 
d="M516 647q-26 -45 -88 -163q-16 -34 -48 -137q-20 -63 -28 -131l-12 -128q-5 -44 -37.5 -69.5t-71.5 -24.5q-50 1 -77 31q-25 26 -25 70q0 54 35 115q25 43 92 124q63 77 116 182q-40 -28 -82 -28q-26 0 -70 14.5t-54 14.5q-64 0 -78 -111q-2 -9 -2 -15h-48v290h61
q-1 -34 0 -71q69 76 135 76q39 0 100 -31.5t75 -31.5q29 0 68 55zM494 645l-13 11q-52 -52 -74 -52q-18 0 -75.5 31t-99.5 30q-83 -1 -151 -108q2 69 0 104l-26 -1v-253h16q12 132 97 128q17 0 56.5 -14.5t65.5 -14.5q59 0 126 59q-42 -82 -62 -117q-35 -63 -72 -111
q-75 -96 -90 -121q-41 -65 -41 -119q0 -76 81 -83q31 -2 56.5 17.5t29.5 56.5q9 98 11 115q8 65 20 115q21 84 59 167q25 58 86 160z" />
    <glyph glyph-name="eight" unicode="8" horiz-adv-x="555" 
d="M532 212q0 -220 -249 -220q-94 0 -159 27q-102 41 -102 136q0 83 94 153q-83 50 -83 157t74 164q63 48 164 48q77 0 132 -22q88 -35 88 -121q0 -78 -77 -134q69 -38 96 -88q22 -40 22 -100zM510 212q0 60 -25 100q-31 49 -105 83q50 39 70.5 70t18.5 69q-2 70 -76 102
q-53 23 -122 23q-93 0 -150 -44q-66 -50 -66 -148q0 -99 91 -160q-103 -66 -103 -150q0 -86 94 -123q60 -23 144 -23q108 0 162 38q67 48 67 163zM424 523q0 -16 -9 -40q-20 -57 -68 -79l-42 12q-67 17 -101 36q-65 36 -65 90q0 50 51 76q37 19 79 19q53 0 98 -25
q57 -32 57 -89zM424 135q0 -59 -53 -85q-36 -17 -87 -17q-67 0 -120 31q-65 38 -65 106q0 13 5 35q3 15 26 50q27 39 42 39q20 0 61 -21l108 -36q83 -36 83 -102zM406 522q0 50 -50 74q-37 19 -87 19q-108 0 -108 -73q0 -49 67 -79q43 -15 87 -29q16 -6 27 -6q22 0 44 39
q20 34 20 55zM402 135q0 53 -70 85q-48 15 -95 31q-54 21 -60 21q-25 0 -43 -48q-13 -35 -13 -52q0 -66 63 -98q45 -22 103 -22q35 0 52 5q27 9 53 37q10 10 10 41z" />
    <glyph glyph-name="nine" unicode="9" horiz-adv-x="555" 
d="M21 459q3 102 71 161t170 58q144 -3 215 -108q57 -84 57 -215q0 -147 -66 -246q-81 -124 -239 -119q-63 1 -110 29q-60 36 -60 102q0 41 26 68t62 27q39 0 65 -30q23 -28 23 -61q0 -12 -25 -67q20 -5 31 -5q87 0 96 156v93q-34 -39 -126 -39q-80 0 -136.5 59t-53.5 137z
M41 459q0 -71 50.5 -121.5t128.5 -52.5q45 -1 86 20q34 17 50 39l-1 -152q0 -148 -120 -156q-13 -1 -32 6t-23 14q33 48 33 70q0 29 -19.5 48.5t-48.5 19.5q-31 0 -50 -28q-17 -23 -17 -51q0 -56 61 -85q44 -22 94 -22q132 0 209 103q70 95 70 240q0 118 -49 200
q-65 108 -197 108q-90 0 -152 -46q-73 -54 -73 -154zM196 480q0 154 77 154q80 0 80 -171q0 -134 -78 -134q-79 0 -79 151zM218 480q0 -129 59 -129q36 0 47 45q5 20 5 68q0 152 -58 152q-53 0 -53 -136z" />
    <glyph glyph-name="colon" unicode=":" horiz-adv-x="215" 
d="M108 -9q-36 0 -65.5 29.5t-29.5 65.5t28.5 63t62.5 27q42 0 69 -27t27 -64t-28.5 -65.5t-63.5 -28.5zM108 12q26 0 48.5 22t22.5 51t-21 50t-54 21q-26 0 -48.5 -21.5t-22.5 -48.5q0 -28 23.5 -51t51.5 -23zM108 301q-36 0 -65.5 29.5t-29.5 65.5t28.5 63t62.5 27
q42 0 69 -27t27 -64t-28.5 -65.5t-63.5 -28.5zM108 322q26 0 48.5 22t22.5 51t-21 50t-54 21q-26 0 -48.5 -21.5t-22.5 -48.5q0 -28 23.5 -51t51.5 -23z" />
    <glyph glyph-name="semicolon" unicode=";" horiz-adv-x="233" 
d="M115 301q-36 0 -65.5 29.5t-29.5 65.5t28.5 63t62.5 27q42 0 68.5 -27t26.5 -64t-28 -65.5t-63 -28.5zM115 322q26 0 48 22t22 51t-20.5 50t-53.5 21q-26 0 -48.5 -21.5t-22.5 -48.5q0 -28 23.5 -51t51.5 -23zM117 -1q-43 1 -68 29q-23 25 -23 62q0 38 25 63.5t62 25.5
q48 0 77 -37q27 -33 27 -78q0 -74 -55 -142q-49 -59 -108 -79q-4 11 -21 52q30 12 55 42.5t29 61.5zM61 -132q56 20 98 88q37 60 37 108q0 38 -23 66t-60 28q-28 0 -47 -19.5t-19 -48.5q0 -37 20 -56q15 -14 41 -18q15 -2 30 -3l-3 -13q-20 -83 -84 -113q4 -7 10 -19z" />
    <glyph glyph-name="less" unicode="&#x3c;" horiz-adv-x="284" 
d="M227 517l53 -53l-166 -167l167 -168l-53 -53l-223 221zM227 489l-193 -192l194 -193l25 25l-167 168l166 166z" />
    <glyph glyph-name="equal" unicode="=" horiz-adv-x="404" 
d="M408 402v-84h-406v84h406zM388 382h-366v-44h366v44zM408 272v-84h-406v84h406zM388 252h-366v-44h366v44z" />
    <glyph glyph-name="greater" unicode="&#x3e;" horiz-adv-x="262" 
d="M60 507l-54 -53l166 -167l-167 -168l54 -53l222 221zM60 479l193 -192l-194 -193l-25 25l166 168l-166 166z" />
    <glyph glyph-name="question" unicode="?" horiz-adv-x="341" 
d="M263 397q-20 -21 -39 -42q-27 -32 -27 -48q0 -21 17 -21q9 0 34 19q8 -7 29 -46q-33 -36 -80 -34q-45 1 -68 34q-17 26 -17 62t21.5 105t21.5 103q0 52 -26 52q-17 0 -34 -23q-3 -4 -23 -38q-17 4 -54 24q46 128 167 128q55 0 99 -36q51 -39 51 -101q0 -61 -72 -138z
M248 411q66 71 66 124q0 51 -42 85q-39 31 -87 31q-102 0 -142 -97q13 -7 19 -10q34 57 67 57q46 0 46 -72q0 -35 -21.5 -103.5t-21.5 -104.5q0 -30 16 -52q18 -26 53 -27q19 2 33 8q11 6 23 12q-4 9 -11 20q-23 -14 -34 -14q-36 0 -36 39q0 22 28 56zM188 -5q-43 0 -70 32
q-25 28 -25 65q0 40 28 68.5t66 28.5q42 0 69 -30t27 -67q0 -40 -28 -68.5t-67 -28.5zM188 16q31 0 53 22t22 54q0 29 -21.5 52.5t-54.5 23.5q-30 0 -52 -22t-22 -54q0 -30 20.5 -53t54.5 -23z" />
    <glyph glyph-name="at" unicode="@" horiz-adv-x="716" 
d="M504 118q-84 0 -106 61q-55 -51 -122 -51q-48 0 -80 34q-36 38 -36 103q0 114 62 192q69 86 186 86q63 0 131 -36q-14 -45 -57 -240q-6 -26 -6 -41q0 -27 31 -27q39 0 72 51.5t33 128.5q0 97 -71 164t-183 67q-116 0 -193 -90q-74 -85 -74 -202q0 -107 73 -177t178 -70
q63 0 133 24l22 -83q-74 -24 -155 -24q-147 0 -246 85q-106 91 -106 245q0 158 104.5 265.5t263.5 107.5q151 0 251 -84q103 -87 103 -228q0 -114 -60 -187.5t-148 -73.5zM504 143q76 0 128 63q55 67 55 173q0 129 -93.5 208t-235.5 79q-148 0 -245.5 -100t-97.5 -248
q0 -142 98 -226q91 -79 229 -79q69 0 125 15l-9 35q-56 -17 -116 -17q-115 0 -194 76q-82 79 -82 196q0 126 80 219q84 98 212 98q121 0 200 -74t79 -182q0 -83 -38 -144t-92 -61q-55 0 -55 53q0 18 5 45q15 74 52 222q-49 24 -101 24q-105 0 -166 -77q-57 -70 -57 -176
q0 -55 29 -86q25 -26 62 -26q70 0 139 83q4 -50 19 -69q19 -24 70 -24zM402 462q-68 0 -107 -64q-35 -57 -35 -136q0 -47 34 -47q45 0 75 52q23 38 38 106l16 88q-9 1 -21 1zM402 487q25 0 50 -11l-20 -106q-18 -78 -45 -122q-37 -58 -93 -58q-59 0 -59 72q0 85 38 149
q46 76 129 76z" />
    <glyph glyph-name="A" unicode="A" horiz-adv-x="611" 
d="M608 1h-302l-1 68q7 4 24 2t26 2q-10 42 -23 76h-165q-17 -52 -17 -63q0 -28 47 -28v-58h-191q1 22 0 54q11 2 34 11q18 11 49 92q18 53 37 106q44 124 137 409h103l192 -597l50 -2v-72zM589 20v36l-48 3l-190 592h-74q-43 -139 -133 -405q-39 -111 -49 -131
q-35 -74 -74 -73l3 -22h151l4 19q-52 15 -52 41q0 6 2 14q6 25 25 76l192 1l34 -115l-53 -2l-1 -34h263zM340 204h-179l96 284zM314 225l-58 195q-19 -64 -65 -195h123z" />
    <glyph glyph-name="B" unicode="B" horiz-adv-x="576" 
d="M564 174q0 -72 -48 -120q-51 -51 -138 -53l-377 -1v79h47l-1 510h-46v84h300q101 0 154 -22q89 -38 89 -141q0 -56 -35.5 -102t-91.5 -56v-2q147 -32 147 -176zM542 174q0 152 -211 178q77 6 129 42q62 44 62 119q0 64 -52 103q-46 35 -107 35h-339v-39h45v-552h-47v-40
h334q72 0 124 35q62 42 62 119zM377 496q-3 -127 -105 -127h-50l1 247h56q43 0 71 -38.5t27 -81.5zM383 193q0 -131 -100 -131l-62 -1v266h59q52 0 80 -45q23 -36 23 -89zM354 493q0 96 -79 103q-16 2 -32 -1l-1 -208h30q46 2 68 44q14 29 14 62zM361 191q0 113 -81 114
l-40 1l1 -226q14 1 22 1q60 0 82 29q16 24 16 81z" />
    <glyph glyph-name="C" unicode="C" horiz-adv-x="512" 
d="M498 132q-19 -74 -82 -114q-58 -36 -135 -36q-29 0 -57 5q-114 22 -176 133q-49 88 -49 193q0 148 72 251q81 117 218 117q49 0 92.5 -20.5t39.5 -20.5q6 0 19 12t18 23h49v-255h-50q-23 80 -39 108q-42 77 -114 76q-68 -1 -86 -119q-6 -39 -6 -170q0 -243 112 -243
q51 0 85 54q27 41 34 92q2 2 70 -9q0 -13 -15 -77zM490 190q1 5 -30 7q-41 -146 -136 -146q-134 0 -134 266q0 136 8 176q22 129 108 129q84 0 123 -71q30 -54 40 -108q1 -1 18 -1v212h-22q-24 -35 -42 -35q2 0 -43.5 21.5t-92.5 21.5q-136 0 -210 -127q-57 -99 -57 -221
q0 -114 59 -202q71 -108 199 -110q87 -1 145.5 51t66.5 137z" />
    <glyph glyph-name="D" unicode="D" horiz-adv-x="595" 
d="M587 333q0 -132 -73 -228q-79 -105 -208 -105h-304v76l45 1v515h-45v80h326q121 0 195 -114q64 -100 64 -225zM565 331q2 118 -61 213q-71 106 -180 106h-301v-38h46l1 -555h-46v-39h271q121 0 198 99q70 91 72 214zM395 318v-63v-57q0 -35 -22 -78q-33 -63 -91 -63h-56
v554h32q136 5 137 -187v-106zM373 407q0 177 -108 182q-9 1 -17 1v-511h31q41 0 69 44q24 40 25 87v197z" />
    <glyph glyph-name="E" unicode="E" horiz-adv-x="556" 
d="M537 -1h-537l1 78h46l-1 515h-46l1 80h525v-229h-46q-23 91 -75 125q-40 25 -115 25h-41v-203q48 0 78 34q10 12 27 62h50l-1 -285h-59q-9 102 -96 105v-229h31q82 0 129 31q58 39 80 136h49v-245zM516 20v202q-1 -3 -5.5 -1t-5.5 -1q-39 -112 -105 -145
q-39 -19 -142 -19h-32l1 275h27q14 0 43.5 -13.5t40.5 -29.5q18 -25 26 -64q1 -2 7.5 0t7.5 0v238q-10 -1 -12 0q-10 -40 -44 -67t-68 -26q-7 -1 -28 0l-1 244h59q85 0 126 -21q59 -32 83 -124q1 -3 5 0t5 0v181h-480v-36h42v-558h-45l1 -35h494z" />
    <glyph glyph-name="F" unicode="F" horiz-adv-x="525" 
d="M526 443h-56q-17 92 -67 126q-37 24 -113 24h-41v-203q48 0 78 34q10 12 27 62h49v-285h-59q-9 102 -96 105v-229h42v-77h-290l1 77h46l-1 515h-46l1 80h525v-229zM504 468v181h-480v-35l42 -1v-556h-46v-38h255v38h-49l1 274h27q14 0 43.5 -13.5t40.5 -29.5
q18 -25 26 -64h15v238q-10 -1 -12 0q-10 -40 -44 -67t-68 -26q-7 -1 -28 0l-1 244h59q108 0 158 -54q28 -30 41 -92z" />
    <glyph glyph-name="G" unicode="G" horiz-adv-x="551" 
d="M566 313v-81l-46 -1v-230h-49q-10 44 -34 44q-2 0 -23 -16q-25 -19 -52 -28q-42 -15 -93 -13q-14 -2 -43 -2q-121 25 -179 145q-43 88 -43 201q0 123 70 226q83 123 219 123q52 0 89.5 -20.5t41.5 -20.5q13 0 22 14q6 10 11 20q7 1 58 -1v-257h-47q-20 60 -55 112
q-52 77 -109 77q-95 0 -95 -209v-36q1 -20 1 -23q0 -127 5 -164q14 -112 70 -112q43 0 55 42q4 16 4 58q0 7 -1 70h-58l1 82h280zM545 292h-237v-40h56v-87q0 -49 -8 -73q-18 -51 -72 -51q-97 0 -97 218q0 19 1 43t1 28q0 124 7 165q23 129 108 129q25 0 46 -10
q80 -36 129 -173q2 -3 14 1v210h-22q-17 -31 -44 -33q-9 0 -46 21t-91 24q-25 1 -72 -17q-97 -37 -150 -143q-43 -86 -43 -172q0 -113 51 -205q67 -123 195 -122q50 1 87 17q21 9 47 29q21 15 30 15q15 0 31 -16t20 -30h13v233l47 -1z" />
    <glyph glyph-name="H" unicode="H" horiz-adv-x="615" 
d="M601 592h-48v-514l47 -1v-77h-286v78h41v231h-109v-231h41v-78h-286v77l48 1v512h-51v82h288l1 -83h-41v-191h110v191h-40v83h284zM578 650h-237v-39q39 2 38 1v-240h-157v236q10 1 39 0v42l-238 1v-40h51v-555l-48 -1v-36h238v36l-41 1v279h155v-279l-41 -1v-36h238v36
l-48 1v555h52z" />
    <glyph glyph-name="I" unicode="I" horiz-adv-x="305" 
d="M291 589h-45v-512h43v-78h-288v77l48 1v513h-49l1 83h290v-84zM267 612l-1 38h-241l-1 -35h52l-1 -559l-49 -1v-36h238v36l-42 1v557z" />
    <glyph glyph-name="J" unicode="J" horiz-adv-x="471" 
d="M492 672v-83h-47l-1 -400q0 -91 -67 -148q-63 -53 -161 -58q-81 -3 -141 34q-71 44 -71 126q0 44 23 75q27 37 75 37q39 0 67 -26t28 -65q0 -56 -65 -83q3 -21 47 -21q35 0 54 34q14 25 14 53q0 135 -2 443h-49v82h296zM468 609l-1 43h-246v-42h47v-478q0 -37 -26 -64.5
t-65 -26.5q-64 1 -77 51q75 21 75 72q0 29 -20.5 49.5t-52.5 19.5q-37 0 -58 -29q-18 -25 -18 -58q0 -78 65 -115q48 -27 121 -28q81 -2 141 48q69 57 69 153q0 1 -1 203.5l-1 202.5z" />
    <glyph glyph-name="K" unicode="K" horiz-adv-x="659" 
d="M657 1h-314l1 77l42 1l-83 209l-57 -53v-155l45 1v-80h-288v81h48v506h-51v84h289l1 -86h-41v-225q182 194 182 212q0 17 -24 22q-16 1 -33 3v74h249v-74q-40 2 -54 -9q-45 -32 -118 -134l153 -372h52zM634 22l-1 38l-47 -1l-163 395q37 52 119 147q19 19 57 19v31h-202
v-34h12q15 -1 31.5 -12t16.5 -30q0 -28 -234 -273l-1 307h43v41h-242v-40h53l-1 -551l-49 -1v-36h238v36l-42 1v184l86 86l110 -271h-51v-36h267z" />
    <glyph glyph-name="L" unicode="L" horiz-adv-x="532" 
d="M537 0h-536v78h46l-1 514h-46l1 79h294l-1 -79h-45v-514h30q80 0 123 31q53 38 75 136h60v-245zM516 21v202q-1 -3 -10.5 -1t-10.5 -1q-40 -113 -100 -145q-37 -19 -137 -19h-33v555h50v39h-252l1 -39h49v-556h-52v-35h495z" />
    <glyph glyph-name="M" unicode="M" horiz-adv-x="719" 
d="M702 79v-79h-292v76h47v365q-38 -143 -118 -440h-75q-13 42 -134 450v-345q0 -13 18.5 -25.5t31.5 -12.5v-67h-174v68q13 3 27 7q20 8 20 27v498h-47v70h263l87 -310l84 311l258 -1v-69h-43v-524zM682 19v39h-51l2 565l44 1v27h-220l-100 -368l-106 368h-220v-30l42 1
v-524q0 -21 -18 -36q-15 -11 -28 -11v-32h132v32q-14 3 -30 15q-22 15 -20 33v474l6 -1l169 -551h37l156 562v-530h-46v-34h251z" />
    <glyph glyph-name="N" unicode="N" horiz-adv-x="545" 
d="M555 604q-34 -2 -42 -29q-3 -9 -3 -43v-534h-156q-75 150 -220 457v-348q1 -16 17.5 -27t33.5 -11q6 0 10 2v-73h-191l1 77q55 -6 57 53l1 415q-1 21 -7.5 29t-12.5 14q-13 2 -40 6v79h242l191 -399v292q-1 25 -50 35v72h169v-67zM532 619q0 2 -1 31l-123 1l-1 -34
q15 -2 26 -7q22 -11 23 -34v-392l-227 467h-205l1 -38q60 -3 60 -74v-437q0 -18 -22 -32q-18 -12 -38 -15l1 -35h148v33q-22 0 -41 16t-19 39v432l254 -521h121v547q0 20 12 36.5t31 16.5z" />
    <glyph glyph-name="O" unicode="O" horiz-adv-x="577" 
d="M568 336q0 -131 -61 -228q-78 -122 -226 -122q-147 0 -221 125q-55 94 -59 230q-3 110 55 208q78 130 225 130q142 0 222 -119q65 -97 65 -224zM547 338q-1 113 -63 206q-75 115 -203 115q-132 -1 -202 -119q-55 -91 -55 -202q0 -124 53 -215q68 -119 205 -119t209 119
q57 93 56 215zM379 168q2 -50 -23.5 -86t-68.5 -38q-44 -1 -71 38q-25 36 -25 86v342q-3 18 9 51q20 61 84 61q62 0 84 -62q13 -35 11 -51v-341zM358 165v354q-1 44 -28 67q-20 18 -46 18t-46 -18q-25 -23 -26 -67v-351q0 -32 12 -60q19 -45 61 -45t62 47q14 34 11 55z" />
    <glyph glyph-name="P" unicode="P" horiz-adv-x="536" 
d="M553 500q2 -107 -78 -158q-66 -43 -175 -43h-53v-222h49v-77h-293v77h44l-1 514h-46v81h376q80 0 128 -49.5t49 -122.5zM535 496q-1 64 -44.5 109t-110.5 46q-84 2 -363 0l1 -41h50v-554h-43v-36h250v35h-47l-2 263h101q81 0 140 42q69 50 68 136zM374 489
q0 -126 -97 -127l-50 -1v247h63q40 0 64 -42q20 -35 20 -77zM350 484q0 107 -74 106h-28v-207h26q51 3 67 38q9 18 9 63z" />
    <glyph glyph-name="Q" unicode="Q" horiz-adv-x="592" 
d="M-2 349q0 135 72 229q78 103 208 103t208 -106q71 -96 71 -229q0 -178 -115 -286q10 -14 21.5 -28t26.5 -14q24 0 41 49h42v-28q1 -65 -34 -111q-39 -50 -102 -50q-44 0 -77 36q-29 32 -38 79q-41 -8 -58 -8q-134 0 -206 120q-60 100 -60 244zM538 49q-14 -49 -48 -49
q-28 0 -46 20q-4 3 -29 42q127 109 122 284q-4 129 -66 217q-71 99 -192 99q-127 0 -197 -100q-62 -89 -62 -221q0 -129 58 -225q68 -114 190 -114q19 0 66 12q5 -46 32 -79q31 -36 76 -36q52 0 85 47q31 42 30 96v7h-19zM364 162q-47 50 -109 50q-20 0 -62 -15v341
q0 39 25.5 66t64.5 27t60 -27.5t21 -67.5v-374zM325 41q-27 -14 -48 -14q-46 0 -68 45q-18 36 -16 86v15q14 6 31 6q50 0 77 -46q23 -38 24 -92zM344 204v335q0 29 -17.5 50t-46.5 21q-28 0 -48 -23t-20 -51v-314q29 8 49 8q24 0 83 -26zM304 50v20q0 24 -24 57.5t-47 33.5
q-1 0 -20 -3q-1 -7 -1 -15q0 -37 15 -64q18 -33 52 -33q5 0 13 2t12 2z" />
    <glyph glyph-name="R" unicode="R" horiz-adv-x="609" 
d="M239 327v-260h53v-67h-293l1 67l45 1v532h-45v72l370 1q95 0 148 -51q48 -45 48 -111q0 -59 -39 -103q-43 -47 -113 -52q34 -13 64 -38q35 -30 42 -60q5 -44 20 -129q5 -20 23 -20q9 0 37 14v-64q-11 -20 -48 -41q-45 -26 -86 -24q-75 3 -107 62q-22 42 -26 126
q0 30 -6 86q-16 61 -88 59zM586 73l-2 26q-6 -8 -23 -8q-30 0 -41 37q-3 9 -12 80q-7 53 -24 76q-46 60 -140 66l2 3l-3 6q71 -1 128 35q67 43 70 114q2 61 -45 102t-109 41h-366v-30h46v-575h-48l-1 -28h248v29h-46v297h17q70 0 97 -45q19 -31 22 -102q4 -92 9 -112
q6 -30 38 -52t64 -23q34 -1 70 18.5t49 44.5zM219 371v251q22 0 47 -1q103 -2 105 -127q2 -78 -51 -108q-21 -12 -49 -15h-52zM239 600l1 -209q12 -3 24 -3q41 0 65 34q21 30 21 73t-21 74t-57 31h-33z" />
    <glyph glyph-name="S" unicode="S" horiz-adv-x="463" 
d="M460 206q0 -97 -59.5 -154.5t-155.5 -57.5q-57 0 -106 22.5t-52 22.5q-5 0 -19 -14t-18 -24h-48v241h44q86 -185 186 -185q28 0 53 19.5t25 51.5q0 16 -15 41.5t-36 36.5q-51 24 -102 49q-61 31 -105 73q-58 55 -58 146q0 88 60 145.5t145 57.5q51 0 96.5 -21t40.5 -21
q11 0 34 38h50v-223q-6 0 -22.5 -0.5t-27.5 0.5q-59 159 -163 159q-72 0 -72 -56q0 -52 84 -95q140 -71 157 -84q84 -64 84 -168zM439 203q0 98 -84 160q-79 42 -157 84q-84 46 -84 106q0 33 30 56q28 20 62 20q55 0 106 -46.5t72 -115.5h15v185h-18q-10 -12 -19 -24
q-12 -14 -26 -14q-4 0 -29 14q-28 16 -41 20q-36 11 -65 11q-73 0 -129.5 -53.5t-56.5 -129.5q0 -97 82 -158l152 -84q81 -47 81 -109q0 -38 -26.5 -61.5t-69.5 -23.5q-130 0 -198 181h-13v-202h12q5 3 24 26q12 15 27 15q7 0 54 -24.5t105 -24.5q78 0 133 50q61 54 61 142z
" />
    <glyph glyph-name="T" unicode="T" horiz-adv-x="533" 
d="M364 603q55 -20 84 -95q13 -33 32 -126h46v291h-526v-291q53 -2 55 0q19 89 31 122q27 74 76 96v-523l-43 -1l-1 -76h294v77h-47zM186 621q-24 0 -23 0q-88 -19 -126 -222q-4 2 -14 0v251h482v-247h-11q-20 97 -33 126q-31 74 -97 94l-22 1v-569h49v-35h-250v35h46z" />
    <glyph glyph-name="U" unicode="U" horiz-adv-x="530" 
d="M557 672q-1 -31 0 -62q-52 0 -52 -33l-1 -408q0 -171 -218 -176q-101 -3 -162 45q-68 54 -76 164v397h-50l1 73h294v-72l-51 -1v-347q-3 -175 91 -175q42 0 68 31t27 76v386q0 38 -58 36q1 33 0 66h187zM540 626l-1 25h-148v-27q22 -1 39.5 -15t17.5 -29l1 -403
q0 -41 -29 -77q-33 -41 -87 -41q-80 -1 -103 85q-8 30 -9 118l-1 359l52 1v29h-255l2 -30h51l1 -416q2 -107 73 -156q56 -37 145 -37q83 0 133 33q60 40 60 119l1 414q0 20 18 33.5t39 14.5z" />
    <glyph glyph-name="V" unicode="V" horiz-adv-x="561" 
d="M548 610q-19 2 -35.5 -9t-26.5 -41q-6 -22 -12 -43q-53 -157 -150 -517h-96l-179 599l-49 1l-1 72h290v-73h-47l88 -308l83 279q5 16 -11.5 27t-37.5 8v67h184v-62zM527 626v24h-142l-1 -24q19 0 38 -14.5t16 -32.5l-109 -358q-36 126 -117 400h57v30l-248 -1l-1 -29h44
l180 -603h62q49 174 150 513q9 28 18 57q18 38 53 38z" />
    <glyph glyph-name="W" unicode="W" horiz-adv-x="834" 
d="M817 599q-36 4 -54 -36l-20 -68q-35 -115 -136 -495h-103q-46 180 -99 367l-113 -367h-92l-160 587h-40l-1 85h273v-84h-40l73 -300l65 218l-26 82h-41l1 83h276l-1 -83h-41l76 -302l69 275q-2 31 -46 35l-1 76h182zM797 615v36h-139v-38q22 2 37 -15q12 -14 12 -26
q0 -37 -96 -368l-102 404q-2 0 49 0v43h-233v-43h34l32 -104l-90 -294l-98 398h51v43h-233l-1 -41h34l162 -589h60l130 427l118 -425h66l143 514q10 39 16 48q15 27 48 30z" />
    <glyph glyph-name="X" unicode="X" horiz-adv-x="597" 
d="M597 0h-315v75h52q1 2 -87 159q-46 -67 -93 -142q-2 -17 23 -18q15 0 30 1l-1 -76h-209v78q40 1 57 16q38 31 153 215l-161 285l-48 1v77h316v-78h-47l73 -127q67 90 67 100q-1 31 -46 29v77l203 -1v-78q-32 4 -43 -4.5t-27 -24.5q-39 -57 -114 -169l174 -318l43 -1v-76z
M580 19l-1 40h-38l-187 337q42 66 135 195q14 19 54 23l1 38h-156v-39q42 1 42 -37q0 -28 -93 -144l-107 181h62v39h-272v-39h41l173 -306l-140 -209q-36 -41 -78 -40l1 -38h166v36q-52 -4 -52 33q0 21 119 185l118 -218h-64v-37h276z" />
    <glyph glyph-name="Y" unicode="Y" horiz-adv-x="612" 
d="M601 596q-16 -4 -32 -9.5t-23 -17.5l-135 -256l2 -244h58v-70l-322 1l1 67h57v220q0 4 -157 307h-46v78h319v-77l-47 -1l94 -196l81 168q6 25 -50 27l-1 77h202zM579 614v36h-158v-36q59 -3 62 -39l-113 -231l-131 269l62 -1v39h-276v-36h40l164 -320v-247h-58v-30h276
v34h-58v268l134 265q6 27 56 29z" />
    <glyph glyph-name="Z" unicode="Z" horiz-adv-x="539" 
d="M521 651l-286 -578q5 -3 20 -3q84 -3 159 113q16 24 64 127h34l-10 -309h-500v32l283 566q-147 0 -188 -202q-3 -13 0 -19l-59 1l16 293h467v-21zM497 651h-422l-13 -254h19q9 68 35 115q63 114 198 104l-289 -598h458l10 270q0 4 -1 4t-3 -2t-2 0q-31 -102 -89 -165
q-65 -70 -148 -70q-32 0 -43 9z" />
    <glyph glyph-name="bracketleft" unicode="[" horiz-adv-x="163" 
d="M3 1v672h145v-69h-67v-538h68v-66zM23 20h106v26h-68v578h67v27h-105v-631z" />
    <glyph glyph-name="backslash" unicode="\" horiz-adv-x="221" 
d="M15 672l103 -671h89l-103 671h-89zM38 652h49l97 -631h-49z" />
    <glyph glyph-name="bracketright" unicode="]" horiz-adv-x="171" 
d="M144 1v672h-145v-69h67v-538h-68v-66zM124 20h-106v26h68v578h-67v27h105v-631z" />
    <glyph glyph-name="asciicircum" unicode="^" horiz-adv-x="278" 
d="M298 712h-108l-42 26l-38 -26h-107l115 111h68zM249 732l-75 71h-45l-77 -71h46l51 36l52 -36h48z" />
    <glyph glyph-name="underscore" unicode="_" horiz-adv-x="440" 
d="M-9 -103h480v-35h-480v35z" />
    <glyph glyph-name="grave" unicode="`" horiz-adv-x="310" 
d="M47 820l173 -1l112 -109l-96 1zM118 802l130 -71l31 1l-72 71z" />
    <glyph glyph-name="a" unicode="a" horiz-adv-x="480" 
d="M470 48q0 -13 -30 -32q-19 -11 -55 -22q-4 -1 -23 -1q-53 0 -81 42q-10 -5 -59 -29q-34 -16 -95 -16q-57 0 -90.5 33.5t-33.5 90.5q0 65 41 103q27 25 95 52q83 33 113 51q-1 5 0 18q1 14 1 22q0 88 -62 88q-25 0 -35 -7q15 -47 15 -50q0 -30 -22 -50t-49 -20
q-29 0 -52 21t-23 51q0 66 70 101q58 28 122 23q168 -14 185 -124q1 -9 1 -92v-117q0 -103 18 -106q14 -1 37 -2q12 -20 12 -28zM444 51q-49 7 -57 35.5t-8 90.5v121q0 81 0 72q-2 43 -19.5 70t-67.5 44q-41 12 -74 12q-65 0 -110 -20q-61 -27 -61 -83q0 -50 51 -50
q21 0 36 15t15 36q0 10 -22 47q16 24 61 24q29 0 52 -14q30 -18 30 -48v-101q-22 -16 -95.5 -41.5t-103.5 -47.5q-49 -37 -49 -98q0 -48 27.5 -77.5t76.5 -29.5q40 0 82 14q52 17 77 50q22 -40 36 -50t41 -10q20 0 46.5 12t35.5 27zM273 259q-2 -10 1 -54t-2 -72
q-11 -68 -68 -61q-27 3 -44.5 21.5t-17.5 45.5q0 94 126 125zM251 135v100h-13q-74 -31 -74 -98q0 -42 42 -43q23 -1 34 11t11 30z" />
    <glyph glyph-name="b" unicode="b" horiz-adv-x="462" 
d="M461 271q0 -102 -40 -176q-53 -99 -160 -99q-71 0 -126 51q-14 -15 -46 -48h-51v617h-39l1 71h197l1 -202q14 7 42 19q35 11 65 11q86 0 127 -96q29 -68 29 -148zM436 267q0 78 -21 135q-33 91 -113 91q-39 0 -85 -20q-13 -6 -41 -20l-1 212q-48 0 -159 1l1 -31h43
l1 -618h17q20 21 57 59q63 -62 126 -62q97 0 142 92q33 66 33 161zM310 172q-5 -33 -9 -67q-13 -46 -60 -46q-72 0 -69 85l-1 256q35 42 76 42q58 0 62 -87zM289 226q0 128 -6 166q-4 26 -36 26q-33 0 -55 -28v-264q0 -49 54 -48q33 0 41 66q2 15 2 82z" />
    <glyph glyph-name="c" unicode="c" horiz-adv-x="402" 
d="M403 128q-24 -69 -79 -106q-48 -32 -105 -32q-106 0 -168 85q-52 72 -52 166q0 110 60 188q67 88 180 88q54 0 100 -27q57 -35 57 -94q0 -35 -20 -59q-22 -27 -58 -27q-34 0 -54 22t-20 55q0 14 1 15.5t17 31.5q-4 9 -22 9q-66 0 -66 -128q0 -13 1 -29t1 -18
q0 -77 6 -108q16 -76 71 -76q44 0 94 80q19 -13 56 -36zM374 394q0 49 -48 80q-39 25 -83 25q-106 0 -168 -84q-54 -73 -54 -172q0 -88 46 -154q55 -77 152 -77q101 0 156 108q-8 0 -24 16q-49 -74 -99 -74q-99 0 -99 205q0 86 7 116q19 82 86 82q12 0 26.5 -7t14.5 -21
l-12.5 -18.5t-12.5 -33.5q0 -20 16 -37q16 -20 38 -20q25 0 41.5 19t16.5 47z" />
    <glyph glyph-name="d" unicode="d" horiz-adv-x="482" 
d="M464 0h-200q1 7 -2 25q-58 -36 -105 -36q-91 0 -130 105q-24 64 -24 145q0 99 26 167q42 109 141 109q20 -1 40 -3q29 -4 54 -19v118h-42v74h205l1 -607h37zM444 20v35l-43 1v605h-157v-32h39l-1 -169q-34 32 -109 32q-86 0 -122 -100q-22 -62 -22 -149q0 -79 20 -138
q33 -94 109 -94q49 0 126 54v-45h160zM286 128q-37 -43 -57 -43q-47 0 -66 57q-5 29 -11 58q-3 66 4 133q4 47 14 66q17 37 60 37q35 0 56 -26v-282zM265 137v266q-13 9 -38 9q-39 0 -48 -82q-4 -32 -3 -70q-1 -13 -1 -29q0 -121 54 -121q9 0 16 6q17 18 20 21z" />
    <glyph glyph-name="e" unicode="e" horiz-adv-x="415" 
d="M411 104q-35 -53 -88 -82t-108 -29q-111 0 -168 85q-47 69 -47 170q0 97 47 174q59 96 164 96q57 0 104 -31q57 -38 74 -109q15 -62 15 -134h-232v-52q0 -112 81 -112q60 0 104 71q19 -16 54 -47zM386 104q-11 10 -24 23q-33 -36 -51 -48q-26 -18 -56 -18
q-103 3 -104 115v88h231q0 51 -13.5 107.5t-59 92t-98.5 35.5q-91 0 -144 -84q-45 -71 -45 -167q0 -97 42 -159q51 -78 154 -78q43 0 87 22q52 26 81 71zM275 294l-123 -1q-2 4 -2 34q0 144 65 143q26 0 45 -26q15 -23 15 -46q-1 -39 0 -104zM256 314v56q0 82 -41 82
q-44 0 -42 -86l1 -52h82z" />
    <glyph glyph-name="f" unicode="f" horiz-adv-x="313" 
d="M207 431h69v64q-6 1 -42 0q-27 -1 -40 6q-43 22 -43 79q0 21 5 29t28 12q-4 -12 -4 -23q0 -48 54 -48q18 0 39.5 17.5t21.5 44.5q0 35 -33 58q-27 19 -59 19q-94 -1 -134 -87q-29 -62 -22 -104l-49 1v-68h47l-1 -354h-45v-77h273v77h-65v354zM66 450l-50 -1q1 28 1 33h48
v22q0 71 38.5 119.5t97.5 48.5q27 0 47 -12q25 -15 25 -44q0 -44 -39 -44q-36 0 -36 30q0 12 6 35q-10 3 -18 2q-55 -4 -55 -60q0 -29 19 -60t43 -38q10 -3 29 -3h34v-29h-68v-394h63v-35h-230v35h45v395z" />
    <glyph glyph-name="g" unicode="g" horiz-adv-x="480" 
d="M477 474q0 -20 -10.5 -36t-29.5 -16q-40 0 -43 50q-11 -6 -26 -21q31 -44 31 -91q0 -68 -55 -117.5t-125 -49.5q-11 0 -31.5 5t-30.5 5q-31 0 -31 -20q2 -30 83 -32q114 -2 149 -14q81 -27 81 -118q0 -89 -72 -133q-60 -37 -153 -37q-76 0 -133 20q-82 29 -82 90
q0 31 13 52q11 17 40 38q-12 15 -23.5 29.5t-11.5 42.5q0 75 73 120q-67 55 -66 119q1 79 56 123q50 40 127 40q45 0 119 -29q43 43 77 45q30 2 52 -18.5t22 -46.5zM459 474q0 17 -17 33t-35 14q-23 -3 -52 -26.5t-32 -24.5q-1 0 -42 16q-44 17 -72 17q-70 0 -115 -36
q-48 -40 -48 -108q0 -70 75 -117q-84 -56 -84 -118q0 -24 14.5 -40.5t29.5 -32.5q-64 -50 -64 -94q0 -49 84 -73q59 -17 126 -17q75 0 129 38q61 42 61 114q0 70 -52 95q-35 17 -113 17h-21.5h-21.5q-51 0 -73 8q-31 11 -31 42q0 19 20 31q17 10 36 10q8 0 25.5 -5t26.5 -5
q68 0 116 42t48 108q0 56 -38 89q14 13 30.5 26.5t30.5 17.5q5 2 11 -25t26 -26q9 1 15.5 10.5t6.5 19.5zM279 361q0 -117 -67 -117q-65 0 -65 116q0 111 63 111q37 0 55 -39q14 -29 14 -71zM355 -27q0 -39 -54 -57q-37 -12 -88 -12q-49 0 -86 14q-52 19 -52 60q0 21 26 43
t49 22h133q32 0 52 -19t20 -51zM261 363q0 30 -11 56q-14 35 -40 35q-48 0 -44 -96q3 -97 47 -97q48 0 48 102zM334 -24q0 52 -88 51h-94q-19 0 -36 -18.5t-17 -32.5q0 -51 118 -51q117 0 117 51z" />
    <glyph glyph-name="h" unicode="h" horiz-adv-x="498" 
d="M486 0h-199v284q0 94 0 90q-1 21 -27 21q-27 0 -58 -45l2 -273l39 1l1 -78h-245l1 77h38v555h-37v74h202l-1 -250q43 39 71 51.5t72 12.5q93 0 107 -92v-347h34v-81zM463 19v42h-33v375q0 24 -28 44.5t-55 20.5q-44 0 -78 -18.5t-88 -71.5v274h-157l-1 -33h36l-1 -596
h-38v-37h201v39h-40v295q0 12 30.5 38.5t48.5 26.5q27 0 41 -22q5 -8 7 -93v-284h155z" />
    <glyph glyph-name="i" unicode="i" horiz-adv-x="256" 
d="M202 635q0 -39 -37 -59q-26 -14 -59 -14t-58 17q-31 20 -31 58q0 37 31 58q26 17 62 17q34 0 61 -19q31 -22 31 -58zM242 0h-241v76h40v353h-40v82h202v-434l39 -1v-76zM179 635q0 25 -20 41.5t-46 16.5q-77 0 -77 -56q0 -28 25 -44q20 -13 47 -13t49 14.5t22 40.5z
M219 20l1 36h-39l1 435h-162v-39l43 -1v-395h-38v-36h194z" />
    <glyph glyph-name="j" unicode="j" horiz-adv-x="279" 
d="M251 635q0 -37 -35 -58q-27 -16 -57 -16q-34 0 -62 16q-35 21 -35 58q0 35 28 57q24 20 57 20q34 0 64 -16q40 -21 40 -61zM245 -7q0 -65 -35 -111q-42 -54 -119 -58q-29 -1 -59 22q-35 26 -35 63q0 60 58 60q37 0 50 -34q6 -17 12 -35q18 -3 27 37q0 20 -16 45
q-18 30 -46 41v412l-54 -1v76h217v-517zM228 635q0 28 -28 45q-22 13 -47 13q-26 0 -44 -12q-24 -16 -24 -46q0 -28 25 -43q21 -12 51 -12q20 0 41 13q26 15 26 42zM224 487h-174v-30h55l-1 -423q28 -14 43.5 -41.5t15.5 -53.5q0 -19 -12 -36q-15 -24 -44 -24q-12 0 -14 2
q1 30 -2 41q-8 25 -38 25q-34 0 -34 -38q0 -27 20 -44t51 -17q118 0 133 138z" />
    <glyph glyph-name="k" unicode="k" horiz-adv-x="523" 
d="M511 1l-194 -1l-64 227l-49 -55l-1 -93l40 1l1 -80h-244v80h43l1 546h-44v74h208v-418l141 157l-52 1l1 72h195l-1 -72l-49 -1l-66 -75l90 -286h44v-77zM490 20l1 37h-40l-100 311l80 94h39v31h-150v-32h72l-206 -232v451h-164l1 -36h39v-585h-41v-38h200v38h-40v116
l79 93l76 -248h154z" />
    <glyph glyph-name="l" unicode="l" horiz-adv-x="260" 
d="M242 -1h-240l-1 68h39v574h-17.5h-20.5v65h203v-639h37v-68zM224 20v26h-42l1 639h-158v-27h37l-1 -613h-39l1 -25h201z" />
    <glyph glyph-name="m" unicode="m" horiz-adv-x="755" 
d="M738 0h-203l1 357q0 15 -14 28t-29 13q-37 0 -39 -41l-1 -32l1 -254h39v-71h-202l-1 363q0 15 -12.5 25t-28.5 10q-37 0 -39 -41v-19v-262h36v-75h-243v75h40v362l-40 1v71l206 -1q-1 -19 0 -41q31 50 114 54q34 1 69 -14q39 -16 51 -44q36 58 131 58q57 0 92 -33
q31 -30 31 -71l1 -345l39 -1zM716 55h-37v365q0 33 -34.5 58t-68.5 25q-98 0 -139 -74q-13 37 -50 58q-32 19 -63 15q-44 -5 -59 -12q-36 -17 -81 -73v72h-159v-31h40v-403h-41v-35h200v34h-35v304q0 24 17.5 40.5t42.5 18.5q22 1 40 -12q23 -17 23 -50v-22l2 -314h158v34
h-39v305q0 24 17.5 40.5t42.5 18.5q64 0 64 -68v-331h159v37z" />
    <glyph glyph-name="n" unicode="n" horiz-adv-x="510" 
d="M493 71v-71h-202l-1 363q0 15 -12.5 25t-28.5 10q-37 0 -39 -41v-19v-262h36v-75h-243v75h40v362l-40 1v71l202 1q0 -24 1 -45q32 52 117 56q42 1 80 -20q49 -26 51 -78l-1 -99l1 -254h39zM472 19v34h-39l-1 365q-3 39 -42 65q-34 23 -66 19q-44 -5 -61 -13
q-37 -17 -79 -72v72h-159v-31h40v-403h-41v-35h200v34h-35v304q0 24 17.5 40.5t42.5 18.5q22 1 40 -12q23 -17 23 -50v-22l2 -314h158z" />
    <glyph glyph-name="o" unicode="o" horiz-adv-x="447" 
d="M448 260q0 -105 -51 -179q-60 -89 -172 -89q-111 0 -174 90q-54 76 -54 175t54 175q63 90 174 90q112 0 172 -86q51 -72 51 -176zM429 257q0 90 -45 160q-55 87 -156 87q-103 0 -161 -84q-48 -69 -48 -159q0 -92 48 -163q58 -87 161 -87q101 0 156 86q45 70 45 160z
M304 258q0 -216 -74 -216q-87 0 -85 220q-1 210 84 212q75 1 75 -216zM282 258q0 195 -54 195q-55 0 -61 -191q6 -201 61 -201q54 0 54 197z" />
    <glyph glyph-name="p" unicode="p" horiz-adv-x="481" 
d="M297 -3q-37 4 -47 6q-23 5 -46 18v-120h50v-73h-253q0 23 1 77h39v530h-37v76l199 -1q-1 -8 2 -25q59 37 106 37q90 0 129 -104q24 -65 24 -146q0 -98 -26 -166q-42 -109 -141 -109zM309 502q-49 0 -124 -54v45h-163l1 -38h43v-570l-40 -1q-1 -24 -1 -34h210v34h-49
q-1 117 -1 172q19 -18 56 -28q31 -9 53 -9q87 0 123 100q23 63 23 150q0 79 -21 138q-33 95 -110 95zM238 77q-35 0 -56 25l1 281q36 43 56 43q65 0 75 -113v-2q3 -13 2 -57q-1 -69 -1 -74q1 -103 -77 -103zM239 403q-10 0 -19.5 -9.5t-17.5 -18.5v-263q18 -14 39 -14
q57 0 55 148v6q4 151 -57 151z" />
    <glyph glyph-name="q" unicode="q" horiz-adv-x="453" 
d="M212 -171l-1 72h50v120q-30 -17 -94 -23q-98 0 -139 108q-26 68 -26 166q0 70 36 144q50 103 140 107q71 2 110 -21q26 -16 26 -28l43 36h66l1 -605l38 -3q1 -49 1 -74zM399 -115l2 608l-35 1l-50 -46q-34 60 -140 54q-79 -4 -121 -97q-31 -68 -31 -136q0 -87 23 -150
q36 -101 123 -101q23 0 54 9q36 11 56 27q0 -49 -1 -170h-49v-35h210q0 9 1 35zM147 312l1 2q0 7 2 21q16 120 76 120q18 0 55 -42l1 -301q-20 -25 -55 -25q-57 0 -71 62q-3 10 -6 31q-10 75 -3 132zM263 406q-6 4 -20 20q-7 8 -17 8q-61 0 -57 -182h1q-1 0 -1 -1
q-1 -41 4 -70q11 -73 51 -73q21 0 39 14v284z" />
    <glyph glyph-name="r" unicode="r" horiz-adv-x="388" 
d="M386 433q0 -34 -17 -58q-22 -32 -61 -30q-57 3 -71 38q-35 -35 -35 -100v-108t0 -102l49 -1v-72h-251v73l41 -1v362l-41 1v74l196 1q-1 -54 0 -56q27 64 107 64q35 0 59 -27t24 -58zM362 433q0 27 -17 46.5t-49 19.5q-47 0 -84 -54q-18 -33 -35 -66q-2 1 -1 109h-154
l1 -35h38v-400h-35v-33h205v34l-50 -1v233q-2 36 12 70q17 40 50 56q24 -45 64 -45q55 0 55 66z" />
    <glyph glyph-name="s" unicode="s" horiz-adv-x="380" 
d="M372 155q0 -81 -53 -125q-46 -38 -117 -38q-40 0 -82 17l-36 18q-13 1 -22 -10t-16 -21h-44v176h44q42 -65 76.5 -91.5t79.5 -26.5q58 0 58 45q0 11 -9 24t-19 17q-127 49 -164 77q-66 50 -66 141q0 66 36 110q41 48 115 49q64 1 104 -27q13 7 37 24h43v-160h-48
q-31 60 -46 74q-26 25 -80 27q-23 1 -40 -14.5t-17 -35.5q0 -31 69 -56q99 -35 128 -56q69 -48 69 -138zM354 154q0 81 -69 126q-12 7 -129 55q-69 28 -69 70q0 30 21.5 48t54.5 18q100 0 138 -99q3 -1 16 0v124h-18q-8 -9 -42 -28q-8 9 -21 16q-30 15 -77 16
q-64 1 -101.5 -39.5t-37.5 -101.5q0 -83 68 -131q16 -11 125 -60q67 -29 66 -69q0 -33 -28 -50q-22 -12 -52 -12q-96 0 -160 117h-19v-142q20 1 20 0q14 31 42 31q9 0 48 -18.5t71 -18.5q61 0 105 38q48 42 48 110z" />
    <glyph glyph-name="t" unicode="t" horiz-adv-x="333" 
d="M326 76q-19 -35 -60 -58q-45 -24 -101 -23q-53 1 -84 24.5t-31 62.5v355h-50v55q22 10 67 68.5t61 101.5h84v-150l80 -1l1 -69l-79 -1l-1 -256q0 -50 1 -56q6 -36 36 -36q24 0 49 35q3 -10 27 -52zM306 81l-11 18q-31 -25 -47 -24q-41 3 -51 40q-4 11 -4 63v283h81v32
h-82v147h-49q-46 -100 -122 -156v-28l51 1v-358q0 -86 93 -85q101 2 141 67z" />
    <glyph glyph-name="u" unicode="u" horiz-adv-x="510" 
d="M493 73v-72l-202 -1q0 23 -1 45q-32 -53 -117 -56q-42 -1 -80 19q-49 27 -51 78v100v254h-39v71h202v-363q0 -15 13 -25t29 -10q36 0 39 41v19v262h-36v75l204 1l-2 -439zM471 52h-40l-1 440h-158v-36h35v-303q0 -24 -18 -41t-42 -18q-22 -2 -40 12q-23 17 -23 50v21
l-2 315h-159l1 -34h39v-366q4 -38 42 -64q35 -23 66 -20q44 5 62 14q37 17 78 72v-72h160v30z" />
    <glyph glyph-name="v" unicode="v" horiz-adv-x="456" 
d="M456 445h-37q-50 -150 -157 -446h-73q-51 134 -154 441h-35v71h243v-71h-37l64 -205l72 208h-38v68h152v-66zM437 463v28l-115 1v-31h49l-103 -277l-90 274h44l1 31h-203v-32h35l149 -436h46l154 442h33z" />
    <glyph glyph-name="w" unicode="w" horiz-adv-x="643" 
d="M641 455l-43 -15l-117 -440h-76l-87 274l-91 -274h-72l-116 441h-38l-1 72h234v-72h-36l46 -174l81 244h72l84 -246l44 176l-38 10l-1 62h155v-58zM622 468l1 27l-118 -1v-27l42 -9l-67 -254l-99 288h-42l-98 -288l-68 258l39 -1l1 32h-191v-32h31l120 -441h36l109 324
l101 -325h49l113 436z" />
    <glyph glyph-name="x" unicode="x" horiz-adv-x="484" 
d="M470 0h-249l-1 72q34 0 33 0l-53 97l-71 -96l33 -10v-63h-163l1 68l40 10l116 159l-121 208h-34l-1 65l246 1v-66h-30l44 -79l59 78l-25 6v61h153v-60l-30 -6l-116 -153l131 -223h38v-69zM448 19v32h-28l-145 245l125 165l26 6v23h-110l1 -23l42 -7l-99 -131l-76 132h42
q3 5 1 31h-205l1 -26l27 -1l133 -228l-131 -178l-30 -7l-1 -33h120v29l-44 13l106 144l87 -151q-13 -2 -51 -2v-33h209z" />
    <glyph glyph-name="y" unicode="y" horiz-adv-x="451" 
d="M452 443l-40 -7l-165 -455q-18 -57 -59 -96q-44 -42 -95 -39q-40 2 -67 27.5t-27 62.5q0 69 73 73q56 4 77 -46q15 7 29 34.5t14 43.5t-154 395l-38 1l-1 73h243l1 -73h-37l71 -179l62 179l-38 8l1 65h150v-67zM429 463v25h-107v-24l46 -7l-91 -254l-102 252h46l-1 35
h-198v-31l31 -1l159 -409q0 -31 -24 -71t-47 -45q-17 58 -69 58q-20 0 -37.5 -16t-17.5 -39q0 -26 24 -49t54 -23q28 0 62 24q39 27 56 68q61 143 185 500z" />
    <glyph glyph-name="z" unicode="z" horiz-adv-x="405" 
d="M383 461l-204 -395q5 -5 55 1q81 9 101 123l48 -1v-188h-383v57l214 395q3 -1 4 -2q0 -1 -69 -1q-61 0 -87 -122h-46v183h367v-50zM365 471v21h-332l-1 -146h19q6 44 25 76q26 43 67 43h97l2 3v0q-21 -40 -223 -421v-28h345v154h-16q-2 -25 -22 -60q-26 -48 -66 -60
q-25 -7 -58 -7q-10 0 -53 2z" />
    <glyph glyph-name="braceleft" unicode="{" horiz-adv-x="291" 
d="M311 658q-63 -1 -78 -12q-20 -13 -20 -63v-220q0 -45 -9 -67q-11 -29 -45 -53q33 -25 45 -54q9 -24 9 -68v-223q0 -53 20 -66q15 -10 78 -11v-135q-46 -1 -75 -1q-94 0 -109 7q-67 33 -67 143v263q0 37 -10 54q-11 22 -46 33v122q33 11 44.5 28.5t11.5 52.5v269
q0 70 19 99q23 35 86 39h76h70v-137zM283 771h-41q-91 0 -118 -18q-34 -22 -34 -102v-263q0 -77 -56 -103v-78q56 -26 56 -109v-263q0 -64 19 -91q22 -30 79 -30h29q17 1 19 1h45v77q-57 5 -77.5 26.5t-20.5 79.5v223q0 36 -5 53q-8 24 -32 41q-9 7 -43 28q25 15 35 22
q22 14 31 26q14 20 14 72v220q0 55 21.5 77.5t78.5 26.5v84z" />
    <glyph glyph-name="bar" unicode="|" horiz-adv-x="131" 
d="M104 672v-671h-96l1 671h95zM81 652h-50l1 -631h49v631z" />
    <glyph glyph-name="braceright" unicode="}" horiz-adv-x="302" 
d="M257 98v-263q0 -110 -67 -143q-15 -7 -109 -7q-30 0 -75 1v135q29 0 40 2q27 2 37 9q20 13 20 66v223q0 44 10 68q11 29 44 54q-34 24 -45 53q-9 22 -9 67v220q0 50 -17.5 62t-79.5 13v137q42 -1 127 3q61 -4 89 -30q35 -34 35 -111v-269q0 -35 11.5 -52.5t44.5 -28.5
v-122q-35 -11 -47 -33q-9 -17 -9 -54zM283 285q-56 26 -56 103l-1 263q0 80 -34 102q-26 18 -118 18h-38v-85q53 4 75 -21t22 -82v-220q0 -36 5 -52q8 -23 32 -41q9 -6 43 -27q-25 -15 -35 -22q-21 -15 -30 -27q-15 -21 -15 -73v-223q0 -58 -20.5 -79.5t-76.5 -26.5v-77h45
q1 0 19 -1h28q39 0 48 5q51 24 51 116v263q0 83 56 109v78z" />
    <glyph glyph-name="asciitilde" unicode="~" horiz-adv-x="299" 
d="M15 724q6 38 32 65.5t65 27.5q16 0 47.5 -11.5t45.5 -11.5q9 0 14 15h102q-3 -36 -27.5 -65t-59.5 -29q-16 0 -50 12.5t-46 12.5q-13 0 -17 -15zM49 745h58q9 15 31 15q16 0 48 -12.5t48 -12.5q49 0 59 54h-60q-9 -15 -28 -15q-17 0 -48 11t-45 12q-46 4 -63 -52z" />
    <glyph glyph-name="Adieresis" unicode="&#xc4;" horiz-adv-x="611" 
d="M608 1h-302l-1 68q7 4 24 2t26 2q-10 42 -23 76h-165q-17 -52 -17 -63q0 -28 47 -28v-58h-191q1 22 0 54q11 2 34 11q18 11 49 92q18 53 37 106q44 124 137 409h103l192 -597l50 -2v-72zM589 20v36l-48 3l-190 592h-74q-43 -139 -133 -405q-39 -111 -49 -131
q-35 -74 -74 -73l3 -22h151l4 19q-52 15 -52 41q0 6 2 14q6 25 25 76l192 1l34 -115l-53 -2l-1 -34h263zM340 204h-179l96 284zM314 225l-58 195q-19 -64 -65 -195h123zM348 807h96v-96h-96v96zM368 787v-56h56v56h-56zM180 807h96v-96h-96v96zM200 787v-56h56v56h-56z" />
    <glyph glyph-name="Aring" unicode="&#xc5;" horiz-adv-x="611" 
d="M608 1h-302l-1 68q7 4 24 2t26 2q-10 42 -23 76h-165q-17 -52 -17 -63q0 -28 47 -28v-58h-191q1 22 0 54q11 2 34 11q18 11 49 92q18 53 37 106q44 124 137 409h103l192 -597l50 -2v-72zM589 20v36l-48 3l-190 592h-74q-43 -139 -133 -405q-39 -111 -49 -131
q-35 -74 -74 -73l3 -22h151l4 19q-52 15 -52 41q0 6 2 14q6 25 25 76l192 1l34 -115l-53 -2l-1 -34h263zM340 204h-179l96 284zM314 225l-58 195q-19 -64 -65 -195h123zM308 698q-36 0 -61 23.5t-25 60.5q0 36 26.5 58.5t62.5 22.5q35 0 61 -22.5t26 -57.5
q0 -36 -27.5 -60.5t-62.5 -24.5zM308 718q26 0 48 19t22 46q0 26 -20 43t-47 17q-28 0 -48.5 -16.5t-20.5 -44.5t19 -46t47 -18zM310 806q-24 0 -24 -24q0 -26 24 -26q23 0 23 26q0 24 -23 24zM310 826q18 0 30.5 -12.5t12.5 -31.5q0 -18 -12 -32t-31 -14t-31.5 13.5
t-12.5 32.5q0 18 12.5 31t31.5 13z" />
    <glyph glyph-name="Ccedilla" unicode="&#xc7;" horiz-adv-x="514" 
d="M392 -115q-2 -36 -31.5 -60.5t-66.5 -24.5q-50 0 -68 14l-1 66q7 -5 27 -11.5t28 -6.5q42 0 42 26q0 18 -12 21q-4 1 -28 1q-21 0 -38 -11v85q-116 14 -184 116q-61 91 -61 213q0 148 72 251q81 117 218 117q49 0 92.5 -20.5t39.5 -20.5q6 0 19 12t18 23h49v-255h-50
q-23 80 -39 108q-42 77 -114 76q-68 -1 -86 -119q-6 -39 -6 -170q0 -243 112 -243q51 0 85 54q27 42 34 93q2 2 70 -10q0 -13 -15 -77q-34 -134 -187 -149v-11q37 1 60 -24t21 -63zM490 190q1 5 -30 7q-41 -146 -136 -146q-134 0 -134 266q0 136 8 176q22 129 108 129
q84 0 123 -71q30 -54 40 -108q1 -1 18 -1v212h-22q-24 -35 -42 -35q2 0 -43.5 21.5t-92.5 21.5q-136 0 -210 -127q-57 -99 -57 -221q0 -109 55 -196q67 -108 187 -113l2 -79q17 4 35 4q43 0 43 -42q0 -22 -19.5 -34t-42.5 -12q-13 0 -34 8v-21q22 -9 48 -9q29 0 54 19t25 46
t-17 47.5t-44 20.5q-5 0 -21 -3v51q167 9 199 189z" />
    <glyph glyph-name="Eacute" unicode="&#xc9;" horiz-adv-x="550" 
d="M537 -1h-537l1 78h46l-1 515h-46l1 80h525v-229h-46q-23 91 -75 125q-40 25 -115 25h-41v-203q48 0 78 34q10 12 27 62h50l-1 -285h-59q-9 102 -96 105v-229h31q82 0 129 31q58 39 80 136h49v-245zM516 20v202q-1 -3 -5.5 -1t-5.5 -1q-39 -112 -105 -145
q-39 -19 -142 -19h-32l1 275h27q14 0 43.5 -13.5t40.5 -29.5q18 -25 26 -64q1 -2 7.5 0t7.5 0v238q-10 -1 -12 0q-10 -40 -44 -67t-68 -26q-7 -1 -28 0l-1 244h59q85 0 126 -21q59 -32 83 -124q1 -3 5 0t5 0v181h-480v-36h42v-558h-45l1 -35h494zM464 820l-174 -1l-111 -109
h86zM393 802l-130 -71l-32 1l69 71z" />
    <glyph glyph-name="Ntilde" unicode="&#xd1;" horiz-adv-x="567" 
d="M555 604q-34 -2 -42 -29q-3 -9 -3 -43v-534h-156q-75 150 -220 457v-348q1 -16 17.5 -27t33.5 -11q6 0 10 2v-73h-191l1 77q55 -6 57 53l1 415q-1 21 -7.5 29t-12.5 14q-13 2 -40 6v79h242l191 -399v292q-1 25 -50 35v72h169v-67zM532 619q0 2 -1 31l-123 1l-1 -34
q15 -2 26 -7q22 -11 23 -34v-392l-227 467h-205l1 -38q60 -3 60 -74v-437q0 -18 -22 -32q-18 -12 -38 -15l1 -35h148v33q-22 0 -41 16t-19 39v432l254 -521h121v547q0 20 12 36.5t31 16.5zM120 714q7 38 30.5 65.5t61.5 27.5q16 0 47.5 -11.5t45.5 -11.5q9 0 14 15h102
q-3 -36 -27.5 -65t-59.5 -29q-16 0 -50 12.5t-46 12.5q-13 0 -17 -15zM149 735h58q9 15 31 15q16 0 48 -12.5t48 -12.5q49 0 59 54h-60q-9 -15 -28 -15q-16 0 -46.5 11.5t-46.5 11.5q-47 0 -63 -52z" />
    <glyph glyph-name="Odieresis" unicode="&#xd6;" horiz-adv-x="579" 
d="M568 336q0 -131 -61 -228q-78 -122 -226 -122q-147 0 -222 122q-57 95 -57 228q0 129 61 224q76 119 218 119t222 -119q65 -97 65 -224zM547 338q-1 113 -63 206q-75 115 -203 115q-132 -1 -202 -119q-55 -91 -55 -202q0 -124 53 -215q68 -119 205 -119t209 119
q57 93 56 215zM379 158q2 -50 -23.5 -86t-68.5 -38q-44 -1 -71 38q-25 36 -25 86v362q-3 18 9 51q20 61 84 61q62 0 84 -62q13 -35 11 -51v-361zM358 155v374q-1 44 -28 67q-20 18 -46 18t-46 -18q-25 -23 -26 -67v-371q0 -32 12 -60q19 -45 61 -45t62 47q14 34 11 55z
M318 807h96v-96h-96v96zM338 787v-56h56v56h-56zM150 807h96v-96h-96v96zM170 787v-56h56v56h-56z" />
    <glyph glyph-name="Udieresis" unicode="&#xdc;" horiz-adv-x="531" 
d="M557 672q-1 -31 0 -61q-52 0 -52 -34v-345v-23v-44q0 -167 -223 -172q-219 -5 -234 209v397h-50l1 73l295 1l-1 -73l-51 -1v-347q-3 -175 89 -175q42 0 69 31t28 76v386q0 37 -52 36q1 33 0 66h181zM539 626v25h-142v-27q21 -1 36 -14.5t15 -29.5l1 -403q0 -41 -30 -77
q-34 -42 -88 -41q-78 1 -101 83q-11 37 -10 116v363l52 1v29h-252l-1 -30h51l1 -416q3 -193 214 -193q84 0 135 33q62 40 62 119l1 414q0 27 33 42q3 2 15 2q4 1 8 4zM317 807h96v-96h-96v96zM337 787v-56h56v56h-56zM149 807h96v-96h-96v96zM169 787v-56h56v56h-56z" />
    <glyph glyph-name="aacute" unicode="&#xe1;" horiz-adv-x="479" 
d="M470 48q0 -13 -30 -32q-19 -11 -55 -22q-4 -1 -23 -1q-53 0 -81 42q-10 -5 -59 -29q-34 -16 -95 -16q-57 0 -90.5 33.5t-33.5 90.5q0 65 41 103q27 25 95 52q83 33 113 51q-1 5 0 18q1 14 1 22q0 88 -62 88q-25 0 -35 -7q15 -47 15 -50q0 -30 -22 -50t-49 -20
q-29 0 -52 21t-23 51q0 66 70 101q58 28 122 23q168 -14 185 -124q1 -9 1 -92v-117q0 -103 18 -106q14 -1 37 -2q12 -20 12 -28zM444 51q-49 7 -57 35.5t-8 90.5v121q0 81 0 72q-2 43 -19.5 70t-67.5 44q-41 12 -74 12q-65 0 -110 -20q-61 -27 -61 -83q0 -50 51 -50
q21 0 36 15t15 36q0 10 -22 47q16 24 61 24q29 0 52 -14q30 -18 30 -48v-101q-22 -16 -95.5 -41.5t-103.5 -47.5q-49 -37 -49 -98q0 -48 27.5 -77.5t76.5 -29.5q40 0 82 14q52 17 77 50q22 -40 36 -50t41 -10q20 0 46.5 12t35.5 27zM273 259q-2 -10 1 -54t-2 -72
q-11 -68 -68 -61q-27 3 -44.5 21.5t-17.5 45.5q0 94 126 125zM251 135v100h-13q-74 -31 -74 -98q0 -42 42 -43q23 -1 34 11t11 30zM394 670l-174 -1l-111 -109h86zM323 652l-130 -71l-32 1l69 71z" />
    <glyph glyph-name="agrave" unicode="&#xe0;" horiz-adv-x="479" 
d="M470 48q0 -13 -30 -32q-19 -11 -55 -22q-4 -1 -23 -1q-53 0 -81 42q-10 -5 -59 -29q-34 -16 -95 -16q-57 0 -90.5 33.5t-33.5 90.5q0 65 41 103q27 25 95 52q83 33 113 51q-1 5 0 18q1 14 1 22q0 88 -62 88q-25 0 -35 -7q15 -47 15 -50q0 -30 -22 -50t-49 -20
q-29 0 -52 21t-23 51q0 66 70 101q58 28 122 23q168 -14 185 -124q1 -9 1 -92v-117q0 -103 18 -106q14 -1 37 -2q12 -20 12 -28zM444 51q-49 7 -57 35.5t-8 90.5v121q0 81 0 72q-2 43 -19.5 70t-67.5 44q-41 12 -74 12q-65 0 -110 -20q-61 -27 -61 -83q0 -50 51 -50
q21 0 36 15t15 36q0 10 -22 47q16 24 61 24q29 0 52 -14q30 -18 30 -48v-101q-22 -16 -95.5 -41.5t-103.5 -47.5q-49 -37 -49 -98q0 -48 27.5 -77.5t76.5 -29.5q40 0 82 14q52 17 77 50q22 -40 36 -50t41 -10q20 0 46.5 12t35.5 27zM273 259q-2 -10 1 -54t-2 -72
q-11 -68 -68 -61q-27 3 -44.5 21.5t-17.5 45.5q0 94 126 125zM251 135v100h-13q-74 -31 -74 -98q0 -42 42 -43q23 -1 34 11t11 30zM49 673h174l112 -109h-97zM120 656l131 -71h31l-73 69z" />
    <glyph glyph-name="acircumflex" unicode="&#xe2;" horiz-adv-x="479" 
d="M470 48q0 -13 -30 -32q-19 -11 -55 -22q-4 -1 -23 -1q-53 0 -81 42q-10 -5 -59 -29q-34 -16 -95 -16q-57 0 -90.5 33.5t-33.5 90.5q0 65 41 103q27 25 95 52q83 33 113 51q-1 5 0 18q1 14 1 22q0 88 -62 88q-25 0 -35 -7q15 -47 15 -50q0 -30 -22 -50t-49 -20
q-29 0 -52 21t-23 51q0 66 66 99q50 25 118 25q67 0 115 -23q67 -32 78 -101q1 -9 1 -92v-117q0 -103 18 -106q14 -1 37 -2q12 -20 12 -28zM444 51q-49 7 -57 35.5t-8 90.5v121q0 81 0 72q-2 43 -19.5 70.5t-69.5 44.5q-45 14 -78 12q-165 -13 -165 -104q0 -50 51 -50
q21 0 36 15t15 36q0 10 -22 47q16 24 61 24q29 0 52 -14q30 -18 30 -48v-101q-22 -16 -95.5 -41.5t-103.5 -47.5q-49 -37 -49 -98q0 -48 27.5 -77.5t76.5 -29.5q40 0 82 14q52 17 77 50q22 -40 36 -50t41 -10q20 0 46.5 12t35.5 27zM273 259q-2 -10 1 -54t-2 -72
q-11 -68 -68 -61q-27 3 -44.5 21.5t-17.5 45.5q0 94 126 125zM251 135v100h-13q-74 -31 -74 -98q0 -42 42 -43q23 -1 34 11t11 30zM358 552h-108l-41 23l-39 -23h-107l115 111h68zM309 573l-75 70h-45l-77 -70l46 -1l51 35l47 -36z" />
    <glyph glyph-name="adieresis" unicode="&#xe4;" horiz-adv-x="479" 
d="M470 48q0 -13 -30 -32q-19 -11 -55 -22q-4 -1 -23 -1q-53 0 -81 42q-10 -5 -59 -29q-34 -16 -95 -16q-57 0 -90.5 33.5t-33.5 90.5q0 65 41 103q27 25 95 52q83 33 113 51q-1 5 0 18q1 14 1 22q0 88 -62 88q-25 0 -35 -7q15 -47 15 -50q0 -30 -22 -50t-49 -20
q-29 0 -52 21t-23 51q0 66 70 101q58 28 122 23q168 -14 185 -124q1 -9 1 -92v-117q0 -103 18 -106q14 -1 37 -2q12 -20 12 -28zM444 51q-49 7 -57 35.5t-8 90.5v121q0 81 0 72q-2 43 -19.5 70t-67.5 44q-41 12 -74 12q-65 0 -110 -20q-61 -27 -61 -83q0 -50 51 -50
q21 0 36 15t15 36q0 10 -22 47q16 24 61 24q29 0 52 -14q30 -18 30 -48v-101q-22 -16 -95.5 -41.5t-103.5 -47.5q-49 -37 -49 -98q0 -48 27.5 -77.5t76.5 -29.5q40 0 82 14q52 17 77 50q22 -40 36 -50t41 -10q20 0 46.5 12t35.5 27zM273 259q-2 -10 1 -54t-2 -72
q-11 -68 -68 -61q-27 3 -44.5 21.5t-17.5 45.5q0 94 126 125zM251 135v100h-13q-74 -31 -74 -98q0 -42 42 -43q23 -1 34 11t11 30zM248 657h96v-96h-96v96zM268 637v-56h56v56h-56zM80 657h96v-96h-96v96zM100 637v-56h56v56h-56z" />
    <glyph glyph-name="atilde" unicode="&#xe3;" horiz-adv-x="479" 
d="M470 48q0 -13 -30 -32q-19 -11 -55 -22q-4 -1 -23 -1q-53 0 -81 42q-10 -5 -59 -29q-34 -16 -95 -16q-57 0 -90.5 33.5t-33.5 90.5q0 65 41 103q27 25 95 52q83 33 113 51q-1 5 0 18q1 14 1 22q0 88 -62 88q-25 0 -35 -7q15 -47 15 -50q0 -30 -22 -50t-49 -20
q-29 0 -52 21t-23 51q0 66 70 101q58 28 122 23q168 -14 185 -124q1 -9 1 -92v-117q0 -103 18 -106q14 -1 37 -2q12 -20 12 -28zM444 51q-49 7 -57 35.5t-8 90.5v121q0 81 0 72q-2 43 -19.5 70t-67.5 44q-41 12 -74 12q-65 0 -110 -20q-61 -27 -61 -83q0 -50 51 -50
q21 0 36 15t15 36q0 10 -22 47q16 24 61 24q29 0 52 -14q30 -18 30 -48v-101q-22 -16 -95.5 -41.5t-103.5 -47.5q-49 -37 -49 -98q0 -48 27.5 -77.5t76.5 -29.5q40 0 82 14q52 17 77 50q22 -40 36 -50t41 -10q20 0 46.5 12t35.5 27zM273 259q-2 -10 1 -54t-2 -72
q-11 -68 -68 -61q-27 3 -44.5 21.5t-17.5 45.5q0 94 126 125zM251 135v100h-13q-74 -31 -74 -98q0 -42 42 -43q23 -1 34 11t11 30zM60 555q7 38 29 63q25 29 63 29q16 0 47.5 -11.5t45.5 -11.5q9 0 14 15h102q-3 -36 -27.5 -65t-59.5 -29q-16 0 -50 12.5t-46 12.5
q-13 0 -17 -15h-101zM89 575h58q9 15 31 15q16 0 48 -12.5t48 -12.5q49 0 59 54h-60q-9 -15 -28 -15q-16 0 -46.5 11.5t-46.5 11.5q-47 0 -63 -52z" />
    <glyph glyph-name="aring" unicode="&#xe5;" horiz-adv-x="479" 
d="M470 48q0 -13 -30 -32q-19 -11 -55 -22q-4 -1 -23 -1q-53 0 -81 42q-10 -5 -59 -29q-34 -16 -95 -16q-57 0 -90.5 33.5t-33.5 90.5q0 65 41 103q27 25 95 52q83 33 113 51q-1 5 0 18q1 14 1 22q0 88 -62 88q-25 0 -35 -7q15 -47 15 -50q0 -30 -22 -50t-49 -20
q-29 0 -52 21t-23 51q0 66 70 101q58 28 122 23q168 -14 185 -124q1 -9 1 -92v-117q0 -103 18 -106q14 -1 37 -2q12 -20 12 -28zM444 51q-49 7 -57 35.5t-8 90.5v121q0 81 0 72q-2 43 -19.5 70t-67.5 44q-41 12 -74 12q-65 0 -110 -20q-61 -27 -61 -83q0 -50 51 -50
q21 0 36 15t15 36q0 10 -22 47q16 24 61 24q29 0 52 -14q30 -18 30 -48v-101q-22 -16 -95.5 -41.5t-103.5 -47.5q-49 -37 -49 -98q0 -48 27.5 -77.5t76.5 -29.5q40 0 82 14q52 17 77 50q22 -40 36 -50t41 -10q20 0 46.5 12t35.5 27zM273 259q-2 -10 1 -54t-2 -72
q-11 -68 -68 -61q-27 3 -44.5 21.5t-17.5 45.5q0 94 126 125zM251 135v100h-13q-74 -31 -74 -98q0 -42 42 -43q23 -1 34 11t11 30zM208 548q-36 0 -61 23.5t-25 60.5q0 36 26.5 58.5t62.5 22.5q35 0 61 -22.5t26 -57.5q0 -36 -27.5 -60.5t-62.5 -24.5zM208 568q26 0 48 19
t22 46q0 26 -20 43t-47 17q-28 0 -48.5 -16.5t-20.5 -44.5t19 -46t47 -18zM210 656q-24 0 -24 -24q0 -26 24 -26q23 0 23 26q0 24 -23 24zM210 676q18 0 30.5 -12.5t12.5 -31.5q0 -18 -12 -32t-31 -14t-31.5 13.5t-12.5 32.5q0 18 12.5 31t31.5 13z" />
    <glyph glyph-name="ccedilla" unicode="&#xe7;" horiz-adv-x="406" 
d="M300 -107q-2 -30 -27 -51t-56 -21q-43 0 -59 12v55q20 -15 46 -15q36 0 36 23q0 15 -11 18q-3 1 -23 1q-18 0 -32 -10v86q-87 15 -136 96q-42 69 -42 154q0 110 60 188q67 88 180 88q54 0 100 -27q57 -35 57 -94q0 -35 -20 -59q-22 -27 -58 -27q-34 0 -54 22t-20 55
q0 14 1 15.5t17 31.5q-4 9 -22 9q-66 0 -66 -128q0 -13 1 -29t1 -18q0 -80 6 -113q17 -81 71 -81q23 0 44 23q15 16 43 61q35 -14 63 -30q-21 -63 -72 -100q-44 -33 -97 -39v-22q31 0 51 -20.5t18 -53.5zM372 120q-13 0 -27 14q-55 -82 -96 -82q-98 0 -98 213q0 88 7 117
q18 83 85 83q12 0 26.5 -7t14.5 -21l-12.5 -18.5t-12.5 -33.5q0 -20 16 -37q16 -20 38 -20q25 0 41.5 19t16.5 47q0 49 -48 80q-39 25 -83 25q-106 0 -168 -84q-54 -73 -54 -172q0 -72 32 -131q37 -69 105 -91q3 -1 37 -8v-83q15 3 30 3q37 0 37 -35q0 -19 -17 -29.5
t-36 -10.5q-12 0 -29 7v-18q19 -8 41 -8q25 0 46 16.5t21 38.5q0 23 -14.5 40.5t-37.5 17.5l-18 -3v64q100 -5 157 107z" />
    <glyph glyph-name="eacute" unicode="&#xe9;" horiz-adv-x="413" 
d="M411 104q-35 -53 -88 -82t-108 -29q-111 0 -168 85q-47 69 -47 170q0 97 47 174q59 96 164 96q57 0 104 -31q57 -38 74 -109q15 -62 15 -134h-232v-52q0 -112 81 -112q60 0 104 71q19 -16 54 -47zM386 104q-11 10 -24 23q-33 -36 -51 -48q-26 -18 -56 -18
q-103 3 -104 115v88h231q0 51 -13.5 107.5t-59 92t-98.5 35.5q-91 0 -144 -84q-45 -71 -45 -167q0 -97 42 -159q51 -78 154 -78q43 0 87 22q52 26 81 71zM275 294l-123 -1q-2 4 -2 34q0 144 65 143q26 0 45 -26q15 -23 15 -46q-1 -39 0 -104zM256 314v56q0 82 -41 82
q-44 0 -42 -86l1 -52h82zM374 670l-174 -1l-111 -109h86zM303 652l-130 -71l-32 1l69 71z" />
    <glyph glyph-name="egrave" unicode="&#xe8;" horiz-adv-x="413" 
d="M411 104q-35 -53 -88 -82t-108 -29q-111 0 -168 85q-47 69 -47 170q0 97 47 174q59 96 164 96q57 0 104 -31q57 -38 74 -109q15 -62 15 -134h-232v-52q0 -112 81 -112q60 0 104 71q19 -16 54 -47zM386 104q-11 10 -24 23q-33 -36 -51 -48q-26 -18 -56 -18
q-103 3 -104 115v88h231q0 51 -13.5 107.5t-59 92t-98.5 35.5q-91 0 -144 -84q-45 -71 -45 -167q0 -97 42 -159q51 -78 154 -78q43 0 87 22q52 26 81 71zM275 294l-123 -1q-2 4 -2 34q0 144 65 143q26 0 45 -26q15 -23 15 -46q-1 -39 0 -104zM256 314v56q0 82 -41 82
q-44 0 -42 -86l1 -52h82zM59 673h174l112 -109h-97zM130 656l131 -71h31l-73 69z" />
    <glyph glyph-name="ecircumflex" unicode="&#xea;" horiz-adv-x="414" 
d="M411 104q-35 -53 -88 -82t-108 -29q-111 0 -168 85q-47 69 -47 170q0 97 47 174q59 96 164 96q57 0 104 -31q57 -38 74 -109q15 -62 15 -134h-232v-52q0 -115 83 -115q59 0 107 67q16 -12 49 -40zM386 104q-9 7 -20 17q-58 -63 -110 -62q-104 2 -105 117v88h231
q0 51 -13.5 107.5t-59 92t-98.5 35.5q-91 0 -144 -84q-45 -71 -45 -167q0 -97 42 -159q51 -78 154 -78q43 0 87 22q52 26 81 71zM275 294l-123 -1q-2 4 -2 34q0 144 65 143q26 0 45 -26q15 -23 15 -46q-1 -39 0 -104zM256 314v56q0 82 -41 82q-44 0 -42 -86l1 -52h82z
M358 552h-108l-41 23l-39 -23h-107l115 111h68zM309 573l-75 70h-45l-77 -70l46 -1l51 35l47 -36z" />
    <glyph glyph-name="edieresis" unicode="&#xeb;" horiz-adv-x="414" 
d="M411 104q-35 -53 -88 -82t-108 -29q-111 0 -168 85q-47 69 -47 170q0 97 47 174q59 96 164 96q57 0 104 -31q57 -38 74 -109q15 -62 15 -134h-232v-52q0 -115 83 -115q59 0 107 67q16 -12 49 -40zM386 104q-9 7 -20 17q-58 -63 -110 -62q-104 2 -105 117v88h231
q0 51 -13.5 107.5t-59 92t-98.5 35.5q-91 0 -144 -84q-45 -71 -45 -167q0 -97 42 -159q51 -78 154 -78q43 0 87 22q52 26 81 71zM275 294l-123 -1q-2 4 -2 34q0 144 65 143q26 0 45 -26q15 -23 15 -46q-1 -39 0 -104zM256 314v56q0 82 -41 82q-44 0 -42 -86l1 -52h82z
M248 657h96v-96h-96v96zM268 637v-56h56v56h-56zM80 657h96v-96h-96v96zM100 637v-56h56v56h-56z" />
    <glyph glyph-name="iacute" unicode="&#xed;" horiz-adv-x="290" 
d="M242 0h-241v76h40v353h-40v82h202v-434l39 -1v-76zM219 20l1 36h-39l1 435h-162v-39l43 -1v-395h-38v-36h194zM284 670l-174 -1l-111 -109h86zM213 652l-130 -71l-32 1l69 71z" />
    <glyph glyph-name="igrave" unicode="&#xec;" horiz-adv-x="253" 
d="M242 0h-241v76h40v353h-40v82h202v-434l39 -1v-76zM219 20l1 36h-39l1 435h-162v-39l43 -1v-395h-38v-36h194zM-41 673h174l112 -109h-97zM30 656l131 -71h31l-73 69z" />
    <glyph glyph-name="icircumflex" unicode="&#xee;" horiz-adv-x="256" 
d="M242 0h-241v76h40v353h-40v82h202v-434l39 -1v-76zM219 20l1 36h-39l1 435h-162v-39l43 -1v-395h-38v-36h194zM258 552h-108l-41 23l-39 -23h-107l115 111h68zM209 573l-75 70h-45l-77 -70l46 -1l51 35l47 -36z" />
    <glyph glyph-name="idieresis" unicode="&#xef;" horiz-adv-x="260" 
d="M242 0h-241v76h40v353h-40v82h202v-434l39 -1v-76zM219 20l1 36h-39l1 435h-162v-39l43 -1v-395h-38v-36h194zM148 657h96v-96h-96v96zM168 637v-56h56v56h-56zM-20 657h96v-96h-96v96zM0 637v-56h56v56h-56z" />
    <glyph glyph-name="ntilde" unicode="&#xf1;" horiz-adv-x="502" 
d="M381 649q-3 -36 -27.5 -65t-59.5 -29q-16 0 -50 12.5t-46 12.5q-13 0 -17 -15l-101 -1q7 38 30.5 65.5t61.5 27.5q16 0 47.5 -11.5t45.5 -11.5q9 0 14 15h102zM493 71v-71h-202l-1 363q0 15 -12.5 25t-28.5 10q-37 0 -39 -41v-19v-262h36v-75h-243v75h40v362l-40 1v71
l202 1q0 -24 1 -45q32 52 117 56q42 1 80 -20q49 -26 51 -78l-1 -99l1 -254h39zM353 629h-60q-9 -15 -28 -15q-16 0 -46.5 11.5t-46.5 11.5q-47 0 -63 -52h58q9 15 31 15q16 0 48 -12.5t48 -12.5q49 0 59 54zM472 19v34h-39l-1 365q-3 39 -42 65q-34 23 -66 19
q-44 -5 -61 -13q-37 -17 -79 -72v72h-159v-31h40v-403h-41v-35h200v34h-35v304q0 24 17.5 40.5t42.5 18.5q22 1 40 -12q23 -17 23 -50v-22l2 -314h158z" />
    <glyph glyph-name="oacute" unicode="&#xf3;" horiz-adv-x="431" 
d="M384 670l-199 -110h-86l111 109zM448 260q0 -105 -51 -179q-60 -89 -172 -89q-111 0 -174 90q-54 76 -54 175t54 175q63 90 174 90q112 0 172 -86q51 -72 51 -176zM313 652l-93 1l-69 -71l32 -1zM429 257q0 90 -45 160q-55 87 -156 87q-103 0 -161 -84q-48 -69 -48 -159
q0 -92 48 -163q58 -87 161 -87q101 0 156 86q45 70 45 160zM303 258q0 -216 -73 -216q-87 0 -85 220q-1 210 84 212q74 1 74 -216zM281 258q0 195 -53 195q-55 0 -61 -191q6 -201 61 -201q53 0 53 197z" />
    <glyph glyph-name="ograve" unicode="&#xf2;" horiz-adv-x="443" 
d="M345 564h-97l-189 108l174 1zM448 260q0 -105 -51 -179q-60 -89 -172 -89q-111 0 -174 90q-54 76 -54 175t54 175q63 90 174 90q112 0 172 -86q51 -72 51 -176zM292 585l-73 69l-89 2l131 -71h31zM429 257q0 90 -45 160q-55 87 -156 87q-103 0 -161 -84q-48 -69 -48 -159
q0 -92 48 -163q58 -87 161 -87q101 0 156 86q45 70 45 160zM303 258q0 -216 -73 -216q-87 0 -85 220q-1 210 84 212q74 1 74 -216zM281 258q0 195 -53 195q-55 0 -61 -191q6 -201 61 -201q53 0 53 197z" />
    <glyph glyph-name="ocircumflex" unicode="&#xf4;" horiz-adv-x="446" 
d="M368 552h-108l-41 23l-39 -23h-107l115 111h68zM448 260q0 -105 -51 -179q-60 -89 -172 -89q-111 0 -174 90q-54 76 -54 175t54 175q63 90 174 90q112 0 172 -86q51 -72 51 -176zM319 573l-75 70h-45l-77 -70l46 -1l51 35l47 -36zM429 257q0 90 -45 160q-55 87 -156 87
q-103 0 -161 -84q-48 -69 -48 -159q0 -92 48 -163q58 -87 161 -87q101 0 156 86q45 70 45 160zM303 258q0 -216 -73 -216q-87 0 -85 220q-1 210 84 212q74 1 74 -216zM281 258q0 195 -53 195q-55 0 -61 -191q6 -201 61 -201q53 0 53 197z" />
    <glyph glyph-name="odieresis" unicode="&#xf6;" horiz-adv-x="446" 
d="M354 561h-96v96h96v-96zM186 561h-96v96h96v-96zM448 260q0 -105 -51 -179q-60 -89 -172 -89q-111 0 -174 90q-54 76 -54 175t54 175q63 90 174 90q112 0 172 -86q51 -72 51 -176zM334 581v56h-56v-56h56zM166 581v56h-56v-56h56zM429 257q0 90 -45 160q-55 87 -156 87
q-103 0 -161 -84q-48 -69 -48 -159q0 -92 48 -163q58 -87 161 -87q101 0 156 86q45 70 45 160zM303 258q0 -216 -73 -216q-87 0 -85 220q-1 210 84 212q74 1 74 -216zM281 258q0 195 -53 195q-55 0 -61 -191q6 -201 61 -201q53 0 53 197z" />
    <glyph glyph-name="otilde" unicode="&#xf5;" horiz-adv-x="447" 
d="M371 649q-3 -36 -27.5 -65t-59.5 -29q-16 0 -50 12.5t-46 12.5q-13 0 -17 -15l-101 -1q7 38 30.5 65.5t61.5 27.5q16 0 47.5 -11.5t45.5 -11.5q9 0 14 15h102zM448 260q0 -105 -51 -179q-60 -89 -172 -89q-111 0 -174 90q-54 76 -54 175t54 175q63 90 174 90
q112 0 172 -86q51 -72 51 -176zM343 629h-60q-9 -15 -28 -15q-16 0 -46.5 11.5t-46.5 11.5q-47 0 -63 -52h58q9 15 31 15q16 0 48 -12.5t48 -12.5q49 0 59 54zM429 257q0 90 -45 160q-55 87 -156 87q-103 0 -161 -84q-48 -69 -48 -159q0 -92 48 -163q58 -87 161 -87
q101 0 156 86q45 70 45 160zM303 258q0 -216 -73 -216q-87 0 -85 220q-1 210 84 212q74 1 74 -216zM281 258q0 195 -53 195q-55 0 -61 -191q6 -201 61 -201q53 0 53 197z" />
    <glyph glyph-name="uacute" unicode="&#xfa;" horiz-adv-x="499" 
d="M394 670l-199 -110h-86l111 109zM493 73v-72l-202 -1q0 23 -1 45q-32 -53 -117 -56q-43 -2 -81 19q-50 27 -50 78q-1 57 -1 108q1 61 1 246h-39v71h202v-363q0 -15 13 -25t29 -10q36 0 39 41v19v262h-36v76h203l-1 -439zM323 652l-93 1l-69 -71l32 -1zM471 52h-40l-1 440
h-158v-36h35v-303q0 -24 -18 -41t-42 -18q-22 -2 -40 12q-23 17 -23 50v21l-2 315h-159l1 -34h39v-366q2 -38 41 -64q36 -23 67 -20q44 5 62 14q37 17 78 72v-72h160v30z" />
    <glyph glyph-name="ugrave" unicode="&#xf9;" horiz-adv-x="496" 
d="M355 564h-97l-189 109h174zM302 585l-73 69l-89 2l131 -71h31zM493 73v-72l-202 -1q0 23 -1 45q-32 -53 -117 -56q-42 -1 -80 19q-49 27 -51 78v100v254h-39v71h202v-363q0 -15 13 -25t29 -10q36 0 39 41v19v262h-36v76h204l-2 -439zM471 52h-40l-1 440l-154 -1l-4 -35
h35v-303q0 -24 -18 -41t-42 -18q-22 -2 -40 12q-23 17 -23 50v21l-2 315h-159l1 -34h39v-366q4 -38 42 -64q35 -23 66 -20q44 5 62 14q37 17 78 72v-72h160v30z" />
    <glyph glyph-name="ucircumflex" unicode="&#xfb;" horiz-adv-x="499" 
d="M368 552h-108l-41 23l-39 -23h-107l115 111h68zM493 73v-72l-202 -1q0 23 -1 45q-32 -53 -117 -56q-42 -1 -80 19q-49 27 -51 78v100v254h-39v71h202v-363q0 -15 13 -25t29 -10q36 0 39 41v19v262h-36v76h204l-2 -439zM319 573l-75 70h-44l-79 -70l47 -1l51 35l47 -36z
M471 52h-40l-1 440l-154 -1l-4 -35h35v-303q0 -24 -18 -41t-42 -18q-22 -2 -40 12q-23 17 -23 50v21l-2 315h-159l1 -34h39v-366q4 -38 42 -64q35 -23 66 -20q44 5 62 14q37 17 78 72v-72h160v30z" />
    <glyph glyph-name="udieresis" unicode="&#xfc;" horiz-adv-x="503" 
d="M364 561h-96v96h96v-96zM196 561h-96v96h96v-96zM493 73v-72l-202 -1q0 23 -1 45q-32 -53 -117 -56q-42 -1 -80 19q-49 27 -51 78v100v254h-39v71h202v-363q0 -15 13 -25t29 -10q36 0 39 41v19v262h-36v76h204l-2 -439zM344 581v56h-56v-56h56zM176 581v56h-56v-56h56z
M471 52h-40l-1 440h-158v-36h35v-303q0 -24 -18 -41t-42 -18q-22 -2 -40 12q-23 17 -23 50v21l-2 315h-159l1 -34h39v-366q4 -38 42 -64q35 -23 66 -20q44 5 62 14q37 17 78 72v-72h160v30z" />
    <glyph glyph-name="dagger" unicode="&#x2020;" horiz-adv-x="13" 
 />
    <glyph glyph-name="degree" unicode="&#xb0;" horiz-adv-x="353" 
d="M184 665q61 0 104.5 -43t43.5 -103q0 -61 -43.5 -103.5t-104.5 -42.5t-104 42.5t-43 103.5q0 60 43 103t104 43zM184 645q-52 0 -89.5 -37t-37.5 -89t37.5 -89t89.5 -37q53 0 90.5 37t37.5 89t-37.5 89t-90.5 37zM186 604q34 0 58 -24t24 -58t-24 -58.5t-58 -24.5
t-58.5 24.5t-24.5 58.5t24.5 58t58.5 24zM186 584q-26 0 -44.5 -18t-18.5 -44t18.5 -44.5t44.5 -18.5t44 18.5t18 44.5t-18 44t-44 18z" />
    <glyph glyph-name="cent" unicode="&#xa2;" horiz-adv-x="395" 
d="M397 467q0 -29 -23 -56.5t-53 -27.5q-35 0 -55 25q-18 22 -18 52q0 35 29 64q-5 12 -26 12q-80 0 -80 -230q0 -66 5 -89q14 -64 64 -64t93 77q18 -8 50 -27q-5 -43 -54 -84.5t-89 -41.5q-8 -49 -5 -100l5 -6h-79q0 19 -2 52q-3 44 -4 54q0 2 -5 5q-82 28 -120 101
q-30 57 -30 132q0 79 32 145q40 82 121 119v92h76q-1 -20 1 -70q5 -3 13 -9q60 4 107 -35.5t47 -89.5zM376 467q0 102 -166 109v76h-35q0 -67 -2 -84q-2 -5 -8 -9q-71 -22 -113 -104q-34 -68 -34 -138q0 -73 33 -128q41 -70 128 -94v-106h36v99q3 4 6 5q36 0 81 31
q50 34 55 72q-2 0 -8.5 4t-8.5 4q-44 -69 -101 -69q-90 0 -90 151q0 268 101 268q51 0 53 -33q-15 -9 -26 -28.5t-11 -32.5q0 -19 12 -35q14 -20 39 -20q23 0 39 14q20 17 20 48z" />
    <glyph glyph-name="sterling" unicode="&#xa3;" horiz-adv-x="601" 
d="M323 305q19 -37 19 -82q0 -25 -7 -47q4 -67 58 -67q21 0 37 13.5t16 35.5q4 23 0 50h137q-6 -90 -46 -149q-46 -66 -121 -66q-43 0 -94 23q-17 8 -44 35q-58 -63 -128 -63q-64 0 -101 41q-34 37 -34 90q0 55 35 93q38 42 102 42q28 0 46 -6q-12 19 -35 57h-113v120h72
q-8 16 -23 61q-4 15 -4 30q0 68 73 113q68 43 158 43q72 0 126 -29q61 -33 85 -96l-135 -41q-23 66 -77 66q-25 0 -41.5 -18t-16.5 -50q0 -35 22 -79h151v-120h-117zM415 330v70h-141q-32 61 -32 108q0 41 24 64q21 20 55 20q63 0 91 -58l89 25q-52 90 -174 90
q-88 0 -151 -47q-67 -49 -52 -116q11 -25 30 -86h-79v-70h104q17 -29 33.5 -57.5t20.5 -72.5q-31 19 -38 22q-16 7 -43 7q-53 0 -82.5 -32.5t-29.5 -77.5q0 -43 27 -73q31 -33 83 -33q42 0 73 22q18 12 54 53q17 -20 56 -49q43 -20 81 -20q60 0 98 47q36 44 44 117l-84 -1
q-1 -47 -25.5 -74t-57.5 -27q-32 0 -54 25q-24 29 -24 80q0 25 6 54q1 4 -8 35q-11 37 -12 41l-4 15zM125 134q-4 -7 -4 -14q0 -21 23 -21q30 0 52 36q-24 15 -43 15q-20 0 -28 -16zM103 146q15 28 46 28q35 0 79 -31q-35 -69 -84 -69q-48 0 -48 46q0 14 7 26z" />
    <glyph glyph-name="section" unicode="&#xa7;" horiz-adv-x="22" 
 />
    <glyph glyph-name="bullet" unicode="&#x2022;" horiz-adv-x="295" 
d="M165 417q58 0 99.5 -41t41.5 -100q0 -58 -41.5 -99.5t-99.5 -41.5q-59 0 -100 41.5t-41 99.5q0 59 41 100t100 41zM165 397q-50 0 -85.5 -35.5t-35.5 -85.5t35.5 -85.5t85.5 -35.5t85.5 35.5t35.5 85.5t-35.5 85.5t-85.5 35.5z" />
    <glyph glyph-name="paragraph" unicode="&#xb6;" 
 />
    <glyph glyph-name="germandbls" unicode="&#xdf;" horiz-adv-x="493" 
d="M486 176q-3 -176 -164 -176h-86v60q85 13 85 131q0 126 -79 135v59q72 3 72 118q0 51 -14 73.5t-47 25.5q-51 -2 -51 -61v-541h-202v63l38 -1l-1 460q0 58 43 104t99 46h114q179 0 181 -162q2 -130 -97 -158v-2q112 -33 109 -174zM462 174q0 158 -161 178q151 12 151 161
q0 65 -41 103q-37 35 -95 35h-122q-50 2 -92 -42.5t-42 -98.5l-1 -467h-37v-27h158v525q0 32 19 57.5t52 25.5q88 0 86 -118q-1 -63 -28 -101q-23 -33 -53 -34q-1 -1 0 -16v-14l24 -8q25 -13 40 -40q22 -39 22 -103q0 -127 -90 -144v-30h64q66 0 104 37q42 41 42 121z" />
    <glyph glyph-name="registered" unicode="&#xae;" horiz-adv-x="325" 
d="M162 383q-62 0 -106 45t-44 108q0 62 44 106t106 44t104.5 -44.5t42.5 -107.5t-42.5 -107t-104.5 -44zM162 406q51 0 88 37.5t37 90.5t-37 90.5t-88 37.5q-54 1 -90 -36t-36 -92q0 -53 37.5 -90.5t88.5 -37.5zM176 534l47 -72h-26l-47 72h-26v-72h-22v157h68q-6 0 -5 1h7
q52 0 52 -40q0 -44 -48 -46zM126 557h45q30 0 30 23q0 17 -34 17h-41v-40z" />
    <glyph glyph-name="copyright" unicode="&#xa9;" horiz-adv-x="694" 
d="M346 -11q-143 0 -242.5 100t-99.5 244q0 145 99.5 245t242.5 100t243 -100t100 -245q0 -144 -100 -244t-243 -100zM346 635q-122 0 -211 -88t-89 -214q0 -125 89 -213t211 -88t211 88t89 213q0 126 -89 214t-211 88zM355 139q-86 0 -136.5 55t-50.5 142q0 83 52 139.5
t136 56.5q59 0 103 -34t54 -91h-45q-22 81 -112 81q-67 0 -106 -44t-39 -110q0 -60 34 -103q40 -49 109 -49q94 0 115 79h43q-13 -57 -55.5 -89.5t-101.5 -32.5z" />
    <glyph glyph-name="trademark" unicode="&#x2122;" horiz-adv-x="431" 
d="M401 650v-196h-27v167h-2l-66 -167h-17l-65 167v0v-167h-28v196h46l56 -141l57 141h46zM159 650v-29h-64v-167h-28v167h-65v29h157z" />
    <glyph glyph-name="acute" unicode="&#xb4;" horiz-adv-x="461" 
d="M494 820l-174 -1l-111 -109h86zM423 802l-130 -71l-32 1l69 71z" />
    <glyph glyph-name="dieresis" unicode="&#xa8;" horiz-adv-x="254" 
d="M176 809h96v-96h-96v96zM196 789v-56h56v56h-56zM8 809h96v-96h-96v96zM28 789v-56h56v56h-56z" />
    <glyph glyph-name="AE" unicode="&#xc6;" horiz-adv-x="870" 
d="M316 72h59v78l-170 -1q-18 -21 -40 -54q-1 -4 -1 -7q0 -21 49 -21l-1 -65h-210l-1 64q13 2 41 12q37 18 148 185q83 124 267 409h383v-229h-46q-23 91 -75 125q-40 25 -115 25h-41v-203q48 0 78 34q10 12 27 62h50l-1 -285h-59q-9 102 -96 105v-229h31q82 0 129 31
q58 39 80 136h49v-245l-535 1v72zM203 246q-75 -113 -86 -126q-56 -69 -98 -66v-35l174 1l1 38q-16 -2 -31 6q-19 9 -19 24q0 9 6 18q17 26 49 64l197 1v-115l-57 1v-37h491v202q-1 -3 -5.5 -1t-5.5 -1q-39 -112 -105 -145q-39 -19 -142 -19h-32l1 275h27q14 0 43.5 -13.5
t40.5 -29.5q18 -25 26 -64q1 -2 7.5 0t7.5 0v238q-10 -1 -12 0q-10 -40 -44 -67t-68 -26q-7 -1 -28 0l-1 244h59q85 0 126 -21q59 -32 83 -124q1 -3 5 0t5 0v181l-355 1q-87 -138 -260 -404zM396 204h-179l178 272zM376 224v187q-38 -60 -123 -187h123z" />
    <glyph glyph-name="Oslash" unicode="&#xd8;" horiz-adv-x="577" 
d="M568 336q0 -131 -61 -228q-78 -122 -226 -122q-61 0 -110 21l-19 -41h-94l45 87q-101 97 -101 283q0 129 61 224q76 119 218 119q59 0 108 -22l23 48h89l-44 -92q55 -50 85 -131q26 -72 26 -146zM547 338q-1 67 -27 138q-31 84 -88 129l37 80h-43l-29 -59q-41 33 -116 33
q-132 -1 -202 -119q-55 -91 -55 -202q0 -75 24 -152q30 -94 81 -129l-37 -70l43 -1q11 20 26 50q46 -32 121 -32q137 0 209 119q57 93 56 215zM371 567l-181 -373l1 326q-3 19 8 51q21 61 84 61q29 0 54 -18t34 -47zM379 158q0 -51 -25 -84q-26 -36 -69 -38q-62 -2 -89 72
l182 381zM349 572q-20 42 -66 42q-25 0 -45 -18q-25 -23 -26 -67v-246zM358 403l-138 -293q17 -55 63 -55q43 0 63 46q15 34 12 54v248z" />
    <glyph glyph-name="plusminus" unicode="&#xb1;" horiz-adv-x="10" 
 />
    <glyph glyph-name="yen" unicode="&#xa5;" horiz-adv-x="569" 
d="M202 198v49h-126v84h103l-130 261h-50v85h329v-89l-44 1l87 -184l86 189h-61l-1 81h212l1 -87l-53 2l-129 -259h120v-84h-129v-49h135v-83h-134v-41h59v-79h-333l1 76h57v44h-126v83h126zM222 178h-126v-43h126v-85l-57 1l-1 -36h294l-1 39h-59v81h134v43h-135v89h129v44
h-132l149 299l44 -1v46h-172l1 -41h72l-116 -256l-120 252l55 -1v48h-288v-46l42 1l151 -301h-116v-44h126v-89z" />
    <glyph glyph-name="mu" unicode="&#xb5;" horiz-adv-x="533" 
d="M517 228l14 -3v-225h-525l-2 51l47 4v106l-49 -22v88l49 23v364l-42 -1l-1 60h282v-59l-50 1v-99q1 -100 1 -180l124 56v-88l-124 -56v-192h17q94 0 135 22q60 34 98 143q6 16 25 9zM504 222l5 -11q-41 -114 -107 -150q-45 -25 -144 -25h-37v10v214l124 57v44l-124 -56
v15v314h49v19h-242l1 -19l40 -1l2 -396l-49 -23v-44l49 22v-156l-46 -3v-13h486v189h-1l1 20q-1 -6 -7 -7z" />
    <glyph glyph-name="mu" unicode="&#x3bc;" horiz-adv-x="533" 
d="M517 228l14 -3v-225h-525l-2 51l47 4v106l-49 -22v88l49 23v364l-42 -1l-1 60h282v-59l-50 1v-99q1 -100 1 -180l124 56v-88l-124 -56v-192h17q94 0 135 22q60 34 98 143q6 16 25 9zM504 222l5 -11q-41 -114 -107 -150q-45 -25 -144 -25h-37v10v214l124 57v44l-124 -56
v15v314h49v19h-242l1 -19l40 -1l2 -396l-49 -23v-44l49 22v-156l-46 -3v-13h486v189h-1l1 20q-1 -6 -7 -7z" />
    <glyph glyph-name="ordfeminine" unicode="&#xaa;" horiz-adv-x="539" 
d="M521 651l-286 -578q5 -3 20 -3q84 -3 159 113q16 24 64 127h34l-10 -309h-500v32l283 566q-147 0 -188 -202q-3 -13 0 -19l-59 1l16 293h467v-21zM497 651h-422l-13 -254h19q9 68 35 115q63 114 198 104l-289 -598h458l10 270q0 4 -1 4t-3 -2t-2 0q-31 -102 -89 -165
q-65 -70 -148 -70q-32 0 -43 9zM171 803h99l21 -24l19 24h99l-67 -91h-108zM206 783l40 -51h85l42 51h-51l-31 -36l-32 36h-53z" />
    <glyph glyph-name="ordmasculine" unicode="&#xba;" horiz-adv-x="399" 
d="M383 461l-204 -395q5 -5 55 1q81 9 101 123l48 -1v-188h-383v57l214 395q3 -1 4 -2q0 -1 -69 -1q-61 0 -87 -122h-46v183h367v-50zM365 471v21h-332l-1 -146h19q6 44 25 76q26 43 67 43h97l2 3v0q-21 -40 -223 -421v-28h345v154h-16q-2 -25 -22 -60q-26 -48 -66 -60
q-25 -7 -58 -7q-10 0 -53 2zM81 654h99l21 -23l19 23h99l-67 -91h-108zM116 634l39 -51h86l42 51h-51l-31 -36l-32 36h-53z" />
    <glyph glyph-name="ae" unicode="&#xe6;" horiz-adv-x="660" 
d="M651 104q-35 -53 -88 -82t-108 -29q-51 0 -90.5 12.5t-43.5 30.5q-55 -46 -194 -46q-57 0 -90.5 34.5t-33.5 91.5q0 91 84 136q82 34 165 68q-3 71 -4 77q-11 53 -59 53q-19 0 -33 -9q15 -47 15 -50q0 -30 -22 -50t-49 -20q-29 0 -52 21t-23 51q0 65 69 100q51 25 112 25
q75 0 126 -58q41 58 119 58q57 0 104 -31q57 -38 74 -109q15 -62 15 -134h-232v-52q0 -112 81 -112q60 0 104 71q19 -16 54 -47zM626 104q-11 10 -24 23q-33 -36 -51 -48q-26 -18 -56 -18q-103 3 -104 115v88h231q0 51 -13.5 107.5t-59 92t-98.5 35.5q-61 0 -119 -71
q-25 35 -64 54q-32 16 -61 16q-53 0 -98 -21q-62 -29 -62 -84q0 -50 51 -50q21 0 36 15t15 36q0 10 -22 47q16 24 61 24q29 0 52 -14q30 -18 30 -48l1 -93q-21 -17 -95 -44t-105 -51q-49 -38 -49 -99q0 -48 27.5 -78t76.5 -30q157 0 195 60q28 -57 137 -57q43 0 87 22
q52 26 81 71zM515 294l-123 -1q-2 4 -2 34q0 144 65 143q26 0 45 -26q15 -23 15 -46q-1 -39 0 -104zM273 259q-2 -10 1 -64t-2 -82q-5 -31 -17 -44q-15 -16 -46 -16q-35 0 -54 33q-13 22 -13 43q0 49 33 84.5t93 50.5zM496 314v56q0 82 -41 82q-44 0 -42 -86l1 -52h82z
M251 115v120h-13q-74 -31 -74 -108q0 -52 42 -53q23 -1 34 11t11 30z" />
    <glyph glyph-name="oslash" unicode="&#xf8;" horiz-adv-x="446" 
d="M448 264q0 -105 -51 -180q-60 -90 -172 -90q-58 0 -104 26l-23 -39h-89l52 90q-64 78 -64 188q0 101 49 178q62 97 174 97q52 0 95 -21l20 34h89l-47 -82q71 -81 71 -201zM430 266q0 124 -77 199l38 66h-44l-28 -41q-34 26 -94 26q-100 0 -158 -90q-48 -73 -48 -165
q0 -113 64 -189l-41 -73h43l28 49q45 -35 115 -35q101 0 157 90q45 72 45 163zM283 414l-125 -214l-2 96q0 82 4 103q13 79 66 84q30 2 57 -69zM293 231q0 -4 1 -22v-31q0 -137 -64 -137q-24 0 -45 26.5t-24 63.5l129 213zM261 419q-13 46 -38 46q-36 0 -46 -73
q-2 -21 -2 -89q0 1 0 -11.5v-22.5zM271 242q0 37 0 36l-89 -149q13 -66 47 -66q43 0 43 112q0 13 -1 36v31z" />
    <glyph glyph-name="questiondown" unicode="&#xbf;" horiz-adv-x="294" 
d="M69 120q20 21 39 42q27 32 27 48q0 21 -17 21q-9 0 -34 -19q-27 24 -27 36q0 21 30 34q25 10 48 10q45 0 68 -33q17 -26 17 -63q0 -36 -21.5 -105t-21.5 -103q0 -52 26 -52q17 0 34 23q3 4 23 38q17 -4 55 -24q-47 -128 -168 -128q-55 0 -99 36q-50 39 -50 101
q0 61 71 138zM84 106q-66 -71 -66 -124q0 -51 43 -85q38 -31 86 -31q102 0 142 97q-13 7 -19 10q-34 -57 -67 -57q-46 0 -46 72q0 35 21.5 103.5t21.5 104.5q0 76 -65 76h-3q-55 -7 -55 -23q2 -3 9 -11q21 14 32 14q17 0 27.5 -13.5t10.5 -28.5q0 -22 -28 -56zM144 522
q43 0 69 -30t26 -67q0 -40 -27.5 -68.5t-66.5 -28.5q-42 0 -69 30t-27 67q0 40 28 68.5t67 28.5zM144 501q-31 0 -53 -22t-22 -54q0 -29 21.5 -52.5t54.5 -23.5q30 0 52 22t22 54q0 30 -20.5 53t-54.5 23z" />
    <glyph glyph-name="exclamdown" unicode="&#xa1;" horiz-adv-x="200" 
d="M7 25q5 25 56 249h58q58 -313 58 -346q0 -40 -24 -69q-27 -31 -69 -31q-44 0 -70 33q-24 29 -24 67q0 18 15 97zM104 254h-31v-2l-1 -2l-45 -229q-15 -77 -15 -93q0 -31 19 -54q21 -26 55 -26q32 0 52.5 23.5t20.5 56.5q0 24 -55 326v0zM90 511q39 0 67 -28t28 -66
q0 -40 -28.5 -68t-68.5 -28q-41 0 -69 34q-25 30 -25 62q0 42 31 69q27 25 65 25zM90 491q-30 0 -52.5 -20.5t-22.5 -53.5q0 -25 20 -49q22 -27 53 -27q32 0 54 22.5t22 53.5q0 30 -22 52t-52 22z" />
    <glyph glyph-name="logicalnot" unicode="&#xac;" horiz-adv-x="10" 
 />
    <glyph glyph-name="florin" unicode="&#x192;" horiz-adv-x="605" 
d="M363 -5q-105 2 -181 69q-69 61 -99 161h-77v106h60q-1 23 1 46h-65v103h87q38 102 120 163q79 59 173 59q130 0 226 -114l-105 -73q-33 41 -54 56q-30 22 -69 21q-72 0 -103 -71q-5 -13 -17 -41h141v-103h-159q-3 -23 -3 -46l168 -1v-106l-146 1q-4 -44 34 -78t82 -34
t86 25.5t65 65.5l90 -79q-92 -133 -255 -130zM534 166q-25 -33 -73 -55.5t-84 -22.5q-64 0 -108.5 50t-45.5 112l159 -1v56l-167 1q-2 49 5 96h156v53l-150 1q6 61 43 107q47 59 123 53q25 -1 61.5 -23t54.5 -44l63 44q-80 87 -181 87q-91 0 -171 -66t-112 -159h-80v-53h68
q-6 -48 -3 -96h-61v-56h71q28 -101 90 -161q70 -67 172 -69q62 -1 120 24q62 27 100 77z" />
    <glyph glyph-name="guillemotleft" unicode="&#xab;" horiz-adv-x="391" 
d="M202 211v132l160 148v-144l-68 -69l68 -67v-146zM230 223l104 -95v71l-79 78l79 81v69l-104 -96v-108zM2 211v132l160 148v-144l-68 -69l68 -67v-146zM30 223l104 -95v71l-79 78l79 81v69l-104 -96v-108z" />
    <glyph glyph-name="guillemotright" unicode="&#xbb;" horiz-adv-x="352" 
d="M162 211v132l-160 148v-144l68 -69l-68 -67v-146zM134 223l-104 -95v71l79 78l-79 81v69l104 -96v-108zM362 211v132l-160 148v-144l68 -69l-68 -67v-146zM334 223l-104 -95v71l79 78l-79 81v69l104 -96v-108z" />
    <glyph glyph-name="ellipsis" unicode="&#x2026;" horiz-adv-x="898" 
d="M488 -9q-36 0 -65.5 29.5t-29.5 65.5t28.5 63t62.5 27q42 0 68 -27t26 -64t-27.5 -65.5t-62.5 -28.5zM488 12q26 0 47.5 22t21.5 51t-20 50t-53 21q-26 0 -48.5 -21.5t-22.5 -48.5q0 -28 23.5 -51t51.5 -23zM788 -9q-36 0 -65.5 29.5t-29.5 65.5t28.5 63t62.5 27
q42 0 68 -27t26 -64t-27.5 -65.5t-62.5 -28.5zM788 12q26 0 47.5 22t21.5 51t-20 50t-53 21q-26 0 -48.5 -21.5t-22.5 -48.5q0 -28 23.5 -51t51.5 -23zM188 -9q-36 0 -65.5 29.5t-29.5 65.5t28.5 63t62.5 27q42 0 68 -27t26 -64t-27.5 -65.5t-62.5 -28.5zM188 12
q26 0 47.5 22t21.5 51t-20 50t-53 21q-26 0 -48.5 -21.5t-22.5 -48.5q0 -28 23.5 -51t51.5 -23z" />
    <glyph glyph-name="nonbreakingspace" unicode="&#xa0;" 
 />
    <glyph glyph-name="Agrave" unicode="&#xc0;" horiz-adv-x="608" 
d="M608 1h-302v53q16 4 50 14q-11 48 -24 81h-165q-17 -52 -17 -63q0 -28 47 -28v-58h-191q1 22 0 54q11 2 34 11q18 11 49 92q18 53 37 106q44 124 137 409h103l192 -607q19 -3 50 -9v-55zM589 20v19q-13 3 -48 10q-59 186 -190 602h-74q-43 -139 -133 -405
q-46 -130 -47 -133q-34 -75 -73 -74v-19h151v16q-53 13 -49 48q5 42 28 86l192 1l35 -120q-19 -3 -55 -12v-19h263zM340 204h-179l96 284zM314 225l-58 195q-19 -64 -65 -195h123zM157 820l173 -1l112 -109l-96 1zM228 802l130 -71l31 1l-72 71z" />
    <glyph glyph-name="Atilde" unicode="&#xc3;" horiz-adv-x="608" 
d="M608 1h-302v53q16 4 50 14q-11 48 -24 81h-165q-17 -52 -17 -63q0 -28 47 -28v-58h-191q1 22 0 54q11 2 34 11q18 11 49 92q18 53 37 106q44 124 137 409h103l192 -607q19 -3 50 -9v-55zM589 20v19q-13 3 -48 10q-59 186 -190 602h-74q-43 -139 -133 -405
q-46 -130 -47 -133q-34 -75 -73 -74v-19h151v16q-53 13 -49 48q5 42 28 86l192 1l35 -120q-19 -3 -55 -12v-19h263zM340 204h-179l96 284zM314 225l-58 195q-19 -64 -65 -195h123zM160 724q7 38 30.5 65.5t61.5 27.5q16 0 47.5 -11.5t45.5 -11.5q9 0 14 15h102
q-3 -36 -27.5 -65t-59.5 -29q-16 0 -50 12.5t-46 12.5q-13 0 -17 -15zM189 745h58q9 15 31 15q16 0 48 -12.5t48 -12.5q49 0 59 54h-60q-9 -15 -28 -15q-16 0 -46.5 11.5t-46.5 11.5q-47 0 -63 -52z" />
    <glyph glyph-name="Otilde" unicode="&#xd5;" horiz-adv-x="579" 
d="M568 336q0 -131 -61 -228q-78 -122 -226 -122q-147 0 -222 122q-57 95 -57 228q0 129 61 224q76 119 218 119t222 -119q65 -97 65 -224zM547 338q-1 113 -63 206q-75 115 -203 115q-132 -1 -202 -119q-55 -91 -55 -202q0 -124 53 -215q68 -119 205 -119t209 119
q57 93 56 215zM379 158q2 -50 -23.5 -86t-68.5 -38q-44 -1 -71 38q-25 36 -25 86v362q-3 18 9 51q20 61 84 61q62 0 84 -62q13 -35 11 -51v-361zM358 155v374q-1 44 -28 67q-20 18 -46 18t-46 -18q-25 -23 -26 -67v-371q0 -32 12 -60q19 -45 61 -45t62 47q14 34 11 55z
M130 724q7 38 30.5 65.5t61.5 27.5q16 0 47.5 -11.5t45.5 -11.5q9 0 14 15h102q-3 -36 -27.5 -65t-59.5 -29q-16 0 -50 12.5t-46 12.5q-13 0 -17 -15zM159 745h58q9 15 31 15q16 0 48 -12.5t48 -12.5q49 0 59 54h-60q-9 -15 -28 -15q-16 0 -46.5 11.5t-46.5 11.5
q-47 0 -63 -52z" />
    <glyph glyph-name="OE" unicode="&#x152;" horiz-adv-x="861" 
d="M847 -1l-563 -1q-148 0 -223 116q-59 92 -59 222q0 127 61 220q76 114 218 114l555 1v-228h-46q-23 91 -75 125q-40 25 -115 25h-41v-203q48 0 78 34q10 12 27 62h50l-1 -285h-59q-9 102 -96 105v-229h31q82 0 129 31q58 39 80 136h49v-245zM826 20v202q-1 -3 -5.5 -1
t-5.5 -1q-39 -112 -105 -145q-39 -19 -142 -19h-32l1 275h27q14 0 43.5 -13.5t40.5 -29.5q18 -25 26 -64q1 -2 7.5 0t7.5 0v238q-10 -1 -12 0q-5 -40 -43 -70q-34 -27 -69 -26h-29v247h59q85 0 126 -21q59 -32 83 -124q1 -3 5 0t5 0v180l-533 2q-132 -1 -202 -115
q-55 -88 -55 -197q0 -121 54 -207q69 -111 206 -111h542zM381 158q2 -49 -24 -79t-70 -32q-45 -1 -70.5 30.5t-25.5 80.5v362q-2 17 9 46q20 56 84 56q62 0 85 -57q14 -32 12 -46v-361zM358 155v374q-1 75 -74 75q-71 0 -72 -75v-371q0 -29 12 -53q19 -39 61 -39t62 41
q14 29 11 48z" />
    <glyph glyph-name="oe" unicode="&#x153;" horiz-adv-x="688" 
d="M682 104q-36 -54 -88.5 -83t-108.5 -29q-82 0 -136 57q-48 -55 -124 -55q-111 0 -174 90q-54 76 -54 175q0 101 49 178q62 97 174 97q86 0 138 -71q54 64 123 64q55 0 104 -36q58 -42 75 -114q14 -62 14 -133h-232v-53q0 -112 82 -112q59 0 103 71q19 -15 55 -46z
M656 104q-11 9 -24 22q-33 -35 -51 -48q-26 -18 -55 -17q-104 2 -104 115v87h231q0 52 -14 106q-14 59 -60 99t-97 40q-68 0 -126 -73q-47 81 -131 81q-100 0 -158 -90q-48 -73 -48 -165t48 -162q58 -86 161 -86q76 0 121 64q19 -27 56.5 -46.5t83.5 -19.5q43 0 87 21
q51 26 80 72zM546 293l-124 -1q-1 4 -1 35q0 153 64 153q26 0 45 -32q15 -27 15 -51q0 -39 1 -104zM230 41q-38 0 -61 74q-21 68 -21 161q0 86 19 144q20 64 56 64q35 0 57 -75q19 -67 19 -160q0 -86 -17 -144q-19 -64 -52 -64zM526 313v56q0 92 -41 92t-41 -96v-52h82z
M228 63q23 0 36 56q12 50 12 127q0 86 -14 149q-15 70 -39 70q-25 0 -39 -53q-12 -48 -12 -122q0 -87 15 -154q17 -73 41 -73z" />
    <glyph glyph-name="endash" unicode="&#x2013;" horiz-adv-x="367" 
d="M3 347h364v-113h-364v113zM23 327v-73h324v73h-324z" />
    <glyph glyph-name="emdash" unicode="&#x2014;" horiz-adv-x="744" 
d="M0 348h743v-115h-743v115zM20 328v-75h703v75h-703z" />
    <glyph glyph-name="quotedblleft" unicode="&#x201c;" horiz-adv-x="463" 
d="M326 523q42 -1 68 -29q23 -26 23 -62q0 -38 -25.5 -63.5t-62.5 -25.5q-47 0 -76 37q-27 33 -27 77q0 75 55 143q49 59 107 79q5 -11 22 -52q-30 -12 -55 -42.5t-29 -61.5zM382 653q-57 -19 -98 -87q-37 -60 -37 -109q0 -37 22.5 -65t59.5 -28q29 0 48 19t19 49
q0 37 -21 56q-15 14 -41 18q-15 1 -30 3l3 12q21 83 84 114q-3 7 -9 18zM106 523q42 -1 68 -29q23 -26 23 -62q0 -38 -25.5 -63.5t-62.5 -25.5q-47 0 -76 37q-27 33 -27 77q0 75 55 143q49 59 107 79q5 -11 22 -52q-30 -12 -55 -42.5t-29 -61.5zM162 653q-57 -19 -98 -87
q-37 -60 -37 -109q0 -37 22.5 -65t59.5 -28q29 0 48 19t19 49q0 37 -21 56q-15 14 -41 18q-15 1 -30 3l3 12q21 83 84 114q-3 7 -9 18z" />
    <glyph glyph-name="quotedblright" unicode="&#x201d;" horiz-adv-x="463" 
d="M97 499q-43 1 -68 29q-23 25 -23 62q0 38 25 63.5t62 25.5q48 0 77 -37q27 -33 27 -78q0 -74 -55 -142q-49 -59 -108 -79q-4 11 -21 52q30 12 55 42.5t29 61.5zM41 368q56 20 98 88q37 60 37 108q0 38 -23 66t-60 28q-28 0 -47 -19.5t-19 -48.5q0 -37 20 -56
q15 -14 41 -18q15 -2 30 -3l-3 -13q-20 -83 -84 -113q4 -7 10 -19zM317 499q-43 1 -68 29q-23 25 -23 62q0 38 25 63.5t62 25.5q48 0 77 -37q27 -33 27 -78q0 -74 -55 -142q-49 -59 -108 -79q-4 11 -21 52q30 12 55 42.5t29 61.5zM261 368q56 20 98 88q37 60 37 108
q0 38 -23 66t-60 28q-28 0 -47 -19.5t-19 -48.5q0 -37 20 -56q15 -14 41 -18q15 -2 30 -3l-3 -13q-20 -83 -84 -113q4 -7 10 -19z" />
    <glyph glyph-name="quoteleft" unicode="&#x2018;" horiz-adv-x="233" 
d="M106 533q42 -1 68 -29q23 -26 23 -62q0 -38 -25.5 -63.5t-62.5 -25.5q-47 0 -76 37q-27 33 -27 77q0 75 55 143q49 59 107 79q5 -11 22 -52q-30 -12 -55 -42.5t-29 -61.5zM162 663q-57 -19 -98 -87q-37 -60 -37 -109q0 -37 22.5 -65t59.5 -28q29 0 48 19t19 49
q0 37 -21 56q-15 14 -41 18q-15 1 -30 3l3 12q21 83 84 114q-3 7 -9 18z" />
    <glyph glyph-name="quoteright" unicode="&#x2019;" horiz-adv-x="233" 
d="M97 509q-43 1 -68 29q-23 25 -23 62q0 38 25 63.5t62 25.5q48 0 77 -37q27 -33 27 -78q0 -74 -55 -142q-49 -59 -108 -79q-4 11 -21 52q30 12 55 42.5t29 61.5zM41 378q56 20 98 88q37 60 37 108q0 38 -23 66t-60 28q-28 0 -47 -19.5t-19 -48.5q0 -37 20 -56
q15 -14 41 -18q15 -2 30 -3l-3 -13q-20 -83 -84 -113q4 -7 10 -19z" />
    <glyph glyph-name="divide" unicode="&#xf7;" 
 />
    <glyph glyph-name="ydieresis" unicode="&#xff;" horiz-adv-x="445" 
d="M452 443l-40 -7l-165 -455q-18 -57 -59 -96q-44 -42 -95 -39q-40 2 -67 27.5t-27 62.5q0 69 73 73q56 4 77 -46q15 7 29 34.5t14 43.5t-154 395l-38 1l-1 73h243l1 -73h-37l71 -179l62 179l-38 8l1 65h150v-67zM429 463v25h-107v-24l46 -7l-91 -254l-102 252h46l-1 35
h-198v-31l31 -1l159 -409q0 -31 -24 -71t-47 -45q-17 58 -69 58q-20 0 -37.5 -16t-17.5 -39q0 -26 24 -49t54 -23q28 0 62 24q39 27 56 68q61 143 185 500z" />
    <glyph glyph-name="Ydieresis" unicode="&#x178;" horiz-adv-x="612" 
d="M601 596q-16 -4 -32 -9.5t-23 -17.5l-135 -256l2 -244h58v-70l-322 1l1 67h57v220q0 4 -157 307h-46v78h319v-77l-47 -1l94 -196l81 168q6 25 -50 27l-1 77h202zM579 614v36h-158v-36q59 -3 62 -39l-113 -231l-131 269l62 -1v39h-276v-36h40l164 -320v-247h-58v-30h276
v34h-58v268l134 265q6 27 56 29z" />
    <glyph glyph-name="currency" unicode="&#xa4;" horiz-adv-x="8" 
 />
    <glyph glyph-name="guilsinglleft" unicode="&#x2039;" horiz-adv-x="191" 
d="M2 211v132l160 148v-144l-68 -69l68 -67v-146zM30 223l104 -95v71l-79 78l79 81v69l-104 -96v-108z" />
    <glyph glyph-name="guilsinglright" unicode="&#x203a;" horiz-adv-x="152" 
d="M162 211v132l-160 148v-144l68 -69l-68 -67v-146zM134 223l-104 -95v71l79 78l-79 81v69l104 -96v-108z" />
    <glyph glyph-name="daggerdbl" unicode="&#x2021;" horiz-adv-x="13" 
 />
    <glyph glyph-name="periodcentered" unicode="&#xb7;" horiz-adv-x="215" 
d="M108 221q-36 0 -65.5 29.5t-29.5 65.5t28.5 63t62.5 27q42 0 69 -27t27 -64t-28.5 -65.5t-63.5 -28.5zM108 242q26 0 48.5 22t22.5 51t-21 50t-54 21q-26 0 -48.5 -21.5t-22.5 -48.5q0 -28 23.5 -51t51.5 -23z" />
    <glyph glyph-name="periodcentered" unicode="&#x2219;" horiz-adv-x="215" 
d="M108 221q-36 0 -65.5 29.5t-29.5 65.5t28.5 63t62.5 27q42 0 69 -27t27 -64t-28.5 -65.5t-63.5 -28.5zM108 242q26 0 48.5 22t22.5 51t-21 50t-54 21q-26 0 -48.5 -21.5t-22.5 -48.5q0 -28 23.5 -51t51.5 -23z" />
    <glyph glyph-name="quotesinglbase" unicode="&#x201a;" horiz-adv-x="233" 
d="M97 -1q-43 1 -68 29q-23 25 -23 62q0 38 25 63.5t62 25.5q48 0 77 -37q27 -33 27 -78q0 -74 -55 -142q-49 -59 -108 -79q-4 11 -21 52q30 12 55 42.5t29 61.5zM41 -132q56 20 98 88q37 60 37 108q0 38 -23 66t-60 28q-28 0 -47 -19.5t-19 -48.5q0 -37 20 -56
q15 -14 41 -18q15 -2 30 -3l-3 -13q-20 -83 -84 -113q4 -7 10 -19z" />
    <glyph glyph-name="quotedblbase" unicode="&#x201e;" horiz-adv-x="463" 
d="M97 -1q-43 1 -68 29q-23 25 -23 62q0 38 25 63.5t62 25.5q48 0 77 -37q27 -33 27 -78q0 -74 -55 -142q-49 -59 -108 -79q-4 11 -21 52q30 12 55 42.5t29 61.5zM41 -132q56 20 98 88q37 60 37 108q0 38 -23 66t-60 28q-28 0 -47 -19.5t-19 -48.5q0 -37 20 -56
q15 -14 41 -18q15 -2 30 -3l-3 -13q-20 -83 -84 -113q4 -7 10 -19zM317 -1q-43 1 -68 29q-23 25 -23 62q0 38 25 63.5t62 25.5q48 0 77 -37q27 -33 27 -78q0 -74 -55 -142q-49 -59 -108 -79q-4 11 -21 52q30 12 55 42.5t29 61.5zM261 -132q56 20 98 88q37 60 37 108
q0 38 -23 66t-60 28q-28 0 -47 -19.5t-19 -48.5q0 -37 20 -56q15 -14 41 -18q15 -2 30 -3l-3 -13q-20 -83 -84 -113q4 -7 10 -19z" />
    <glyph glyph-name="perthousand" unicode="&#x2030;" 
 />
    <glyph glyph-name="Acircumflex" unicode="&#xc2;" horiz-adv-x="611" 
d="M608 1h-302l-1 68q7 4 24 2t26 2q-10 42 -23 76h-165q-17 -52 -17 -63q0 -28 47 -28v-58h-191q1 22 0 54q11 2 34 11q18 11 49 92q18 53 37 106q44 124 137 409h103l192 -597l50 -2v-72zM589 20v36l-48 3l-190 592h-74q-43 -139 -133 -405q-39 -111 -49 -131
q-35 -74 -74 -73l3 -22h151l4 19q-52 15 -52 41q0 6 2 14q6 25 25 76l192 1l34 -115l-53 -2l-1 -34h263zM340 204h-179l96 284zM314 225l-58 195q-19 -64 -65 -195h123zM458 713l-108 -1l-41 23l-39 -23l-107 1l115 110h68zM409 733l-75 70h-45l-77 -70h52l45 35l51 -32z
" />
    <glyph glyph-name="Ecircumflex" unicode="&#xca;" horiz-adv-x="550" 
d="M537 -1h-537l1 78h46l-1 515h-46l1 81l525 -1v-229h-46q-23 91 -75 125q-40 25 -115 25h-41v-203q48 0 78 34q10 12 27 62h50l-1 -285h-59q-9 102 -96 105v-229h31q82 0 129 31q58 39 80 136h49v-245zM516 20v202q-1 -3 -5.5 -1t-5.5 -1q-39 -112 -105 -145
q-39 -19 -142 -19h-32l1 275h27q14 0 43.5 -13.5t40.5 -29.5q18 -25 26 -64q1 -2 7.5 0t7.5 0v238q-10 -1 -12 0q-10 -40 -44 -67t-68 -26q-7 -1 -28 0l-1 244h59q85 0 126 -21q59 -32 83 -124q1 -3 5 0t5 0v181h-480v-36h42v-558h-45l1 -35h494zM428 713h-105l-44 22
l-39 -22h-107l115 110h68zM379 733l-75 70h-45l-77 -70h52l45 35l51 -32z" />
    <glyph glyph-name="Aacute" unicode="&#xc1;" horiz-adv-x="611" 
d="M608 1h-302l-1 68q7 4 24 2t26 2q-10 42 -23 76h-165q-17 -52 -17 -63q0 -28 47 -28v-58h-191q1 22 0 54q11 2 34 11q18 11 49 92q18 53 37 106q44 124 137 409h103l192 -597l50 -2v-72zM589 20v36l-48 3l-190 592h-74q-43 -139 -133 -405q-39 -111 -49 -131
q-35 -74 -74 -73l3 -22h151l4 19q-52 15 -52 41q0 6 2 14q6 25 25 76l192 1l34 -115l-53 -2l-1 -34h263zM340 204h-179l96 284zM314 225l-58 195q-19 -64 -65 -195h123zM494 820l-174 -1l-111 -109h86zM423 802l-130 -71l-32 1l69 71z" />
    <glyph glyph-name="Edieresis" unicode="&#xcb;" horiz-adv-x="550" 
d="M537 -1h-537l1 78h46l-1 515h-46l1 81l525 -1v-229h-46q-23 91 -75 125q-40 25 -115 25h-41v-203q48 0 78 34q10 12 27 62h50l-1 -285h-59q-9 102 -96 105v-229h31q82 0 129 31q58 39 80 136h49v-245zM516 20v202q-1 -3 -5.5 -1t-5.5 -1q-39 -112 -105 -145
q-39 -19 -142 -19h-32l1 275h27q14 0 43.5 -13.5t40.5 -29.5q18 -25 26 -64q1 -2 7.5 0t7.5 0v238q-10 -1 -12 0q-10 -40 -44 -67t-68 -26q-7 -1 -28 0l-1 244h59q85 0 126 -21q59 -32 83 -124q1 -3 5 0t5 0v181h-480v-36h42v-558h-45l1 -35h494zM308 807h96v-96h-96v96z
M328 787v-56h56v56h-56zM140 807h96v-96h-96v96zM160 787v-56h56v56h-56z" />
    <glyph glyph-name="Egrave" unicode="&#xc8;" horiz-adv-x="550" 
d="M537 -1h-537l1 78h46l-1 515h-46l1 81l525 -1v-229h-46q-23 91 -75 125q-40 25 -115 25h-41v-203q48 0 78 34q10 12 27 62h50l-1 -285h-59q-9 102 -96 105v-229h31q82 0 129 31q58 39 80 136h49v-245zM516 20v202q-1 -3 -5.5 -1t-5.5 -1q-39 -112 -105 -145
q-39 -19 -142 -19h-32l1 275h27q14 0 43.5 -13.5t40.5 -29.5q18 -25 26 -64q1 -2 7.5 0t7.5 0v238q-10 -1 -12 0q-10 -40 -44 -67t-68 -26q-7 -1 -28 0l-1 244h59q85 0 126 -21q59 -32 83 -124q1 -3 5 0t5 0v181h-480v-36h42v-558h-45l1 -35h494zM117 820l173 -1l112 -109
l-96 1zM188 802l130 -71l31 1l-72 71z" />
    <glyph glyph-name="Iacute" unicode="&#xcd;" horiz-adv-x="305" 
d="M291 589h-45v-512h43v-78h-288v77l48 1v513h-49l1 83h290v-84zM267 612l-1 38h-241l-1 -35h52l-1 -559l-49 -1v-36h238v36l-42 1v557zM284 820l-174 -1l-111 -109l96 1zM213 802l-130 -71l-32 1l73 71z" />
    <glyph glyph-name="Icircumflex" unicode="&#xce;" horiz-adv-x="306" 
d="M291 589h-45v-512h43v-78h-288v77l48 1v513h-49l1 83h290v-84zM267 612l-1 38h-241l-1 -35h52l-1 -559l-49 -1v-36h238v36l-42 1v557zM288 713h-105l-44 22l-39 -22h-107l115 110h68zM239 733l-75 70h-45l-77 -70h52l45 35l51 -32z" />
    <glyph glyph-name="Idieresis" unicode="&#xcf;" horiz-adv-x="306" 
d="M291 589h-45v-512h43v-78h-288v77l48 1v513h-49l1 83h290v-84zM267 612l-1 38h-241l-1 -35h52l-1 -559l-49 -1v-36h238v36l-42 1v557zM178 807h96v-96h-96v96zM198 787v-56h56v56h-56zM10 807h96v-96h-96v96zM30 787v-56h56v56h-56z" />
    <glyph glyph-name="Igrave" unicode="&#xcc;" horiz-adv-x="305" 
d="M291 589h-45v-512h43v-78h-288v77l48 1v513h-49l1 83h290v-84zM267 612l-1 38h-241l-1 -35h52l-1 -559l-49 -1v-36h238v36l-42 1v557zM7 820l173 -1l112 -109l-96 1zM78 802l130 -71l31 1l-72 71z" />
    <glyph glyph-name="Oacute" unicode="&#xd3;" horiz-adv-x="579" 
d="M568 336q0 -131 -61 -228q-78 -122 -226 -122q-147 0 -221 125q-55 94 -59 230q-3 110 55 208q78 130 225 130q142 0 222 -119q65 -97 65 -224zM547 338q-1 113 -63 206q-75 115 -203 115q-132 -1 -202 -119q-55 -91 -55 -202q0 -124 53 -215q68 -119 205 -119t209 119
q57 93 56 215zM379 168q2 -50 -23.5 -86t-68.5 -38q-44 -1 -71 38q-25 36 -25 86v342q-3 18 9 51q20 61 84 61q62 0 84 -62q13 -35 11 -51v-341zM358 165v354q-1 44 -28 67q-20 18 -46 18t-46 -18q-25 -23 -26 -67v-351q0 -32 12 -60q19 -45 61 -45t62 47q14 34 11 55z
M434 820l-174 -1l-111 -109l96 1zM363 802l-122 -70h-40l77 69z" />
    <glyph glyph-name="Ocircumflex" unicode="&#xd4;" horiz-adv-x="579" 
d="M568 336q0 -131 -61 -228q-78 -122 -226 -122q-147 0 -221 125q-55 94 -59 230q-3 110 55 208q78 130 225 130q142 0 222 -119q65 -97 65 -224zM547 338q-1 113 -63 206q-75 115 -203 115q-132 -1 -202 -119q-55 -91 -55 -202q0 -124 53 -215q68 -119 205 -119t209 119
q57 93 56 215zM379 168q2 -50 -23.5 -86t-68.5 -38q-44 -1 -71 38q-25 36 -25 86v342q-3 18 9 51q20 61 84 61q62 0 84 -62q13 -35 11 -51v-341zM358 165v354q-1 44 -28 67q-20 18 -46 18t-46 -18q-25 -23 -26 -67v-351q0 -32 12 -60q19 -45 61 -45t62 47q14 34 11 55z
M428 713h-105l-44 22l-39 -22h-107l115 110h68zM379 733l-75 70h-45l-77 -70h52l45 35l51 -32z" />
    <glyph glyph-name="Ograve" unicode="&#xd2;" horiz-adv-x="579" 
d="M568 336q0 -131 -61 -228q-78 -122 -226 -122q-147 0 -222 122q-57 95 -57 228q0 129 61 224q76 119 218 119t222 -119q65 -97 65 -224zM547 338q-1 113 -63 206q-75 115 -203 115q-132 -1 -202 -119q-55 -91 -55 -202q0 -124 53 -215q68 -119 205 -119t209 119
q57 93 56 215zM379 158q2 -50 -23.5 -86t-68.5 -38q-44 -1 -71 38q-25 36 -25 86v362q-3 18 9 51q20 61 84 61q62 0 84 -62q13 -35 11 -51v-361zM358 155v374q-1 44 -28 67q-20 18 -46 18t-46 -18q-25 -23 -26 -67v-371q0 -32 12 -60q19 -45 61 -45t62 47q14 34 11 55z
M117 820l173 -1l112 -109l-96 1zM188 802l130 -76l31 6l-73 69z" />
    <glyph glyph-name="Uacute" unicode="&#xda;" horiz-adv-x="531" 
d="M557 672q-1 -31 0 -61q-52 0 -52 -34v-345v-23v-44q0 -105 -83 -147q-56 -28 -140 -25q-229 8 -234 209v397h-50l1 73l295 1l-1 -73l-51 -1v-347q-3 -175 89 -175q42 0 69 31t28 76v386q0 37 -52 36q1 33 0 66h181zM539 626v25h-142v-27q21 -1 36 -14.5t15 -29.5l1 -403
q0 -41 -30 -77q-34 -42 -88 -41q-78 1 -101 83q-11 37 -10 116v363l52 1v29h-252l-1 -30h51l1 -416q3 -194 241 -194q76 0 121 37q49 41 49 116l1 414q0 27 33 42q3 2 15 2q4 1 8 4zM444 820l-174 -1l-111 -109l96 1zM373 802l-130 -71l-32 1l73 71z" />
    <glyph glyph-name="Ucircumflex" unicode="&#xdb;" horiz-adv-x="531" 
d="M557 672q-1 -31 0 -61q-52 0 -52 -34v-345v-23v-44q0 -167 -223 -172q-219 -5 -234 209v397h-50l1 73l295 1l-1 -73l-51 -1v-347q-3 -175 89 -175q42 0 69 31t28 76v386q0 37 -52 36q1 33 0 66h181zM539 626v25h-142v-27q21 -1 36 -14.5t15 -29.5l1 -403q0 -41 -30 -77
q-34 -42 -88 -41q-78 1 -101 83q-11 37 -10 116v363l52 1v29h-252l-1 -30h51l1 -416q3 -193 214 -193q84 0 135 33q62 40 62 119l1 414q0 27 33 42q3 2 15 2q4 1 8 4zM428 713h-105l-44 22l-39 -22h-107l115 110h68zM379 733l-75 70h-45l-77 -70h52l45 35l51 -32z" />
    <glyph glyph-name="Ugrave" unicode="&#xd9;" horiz-adv-x="531" 
d="M557 672q-1 -31 0 -61q-52 0 -52 -34v-345v-23v-44q0 -167 -223 -172q-219 -5 -234 209v397h-50l1 73l295 1l-1 -73l-51 -1v-347q-3 -175 89 -175q42 0 69 31t28 76v386q0 37 -52 36q1 33 0 66h181zM539 626v25h-142v-27q21 -1 36 -14.5t15 -29.5l1 -403q0 -41 -30 -77
q-34 -42 -88 -41q-78 1 -101 83q-11 37 -10 116v363l52 1v29h-252l-1 -30h51l1 -416q3 -193 214 -193q84 0 135 33q62 40 62 119l1 414q0 27 33 42q3 2 15 2q4 1 8 4zM127 810l173 -1l112 -109l-96 1zM198 792l130 -71l31 1l-72 71z" />
    <glyph glyph-name="circumflex" unicode="&#x2c6;" horiz-adv-x="278" 
d="M298 702h-108l-41 23l-39 -23h-107l115 111h68zM249 723l-75 70h-45l-77 -70l46 -1l51 35l47 -36z" />
    <glyph glyph-name="tilde" unicode="&#x2dc;" horiz-adv-x="299" 
d="M20 724q7 38 30.5 65.5t61.5 27.5q16 0 47.5 -11.5t45.5 -11.5q9 0 14 15h102q-3 -36 -27.5 -65t-59.5 -29q-16 0 -50 12.5t-46 12.5q-13 0 -17 -15zM49 745h58q9 15 31 15q16 0 48 -12.5t48 -12.5q49 0 59 54h-60q-9 -15 -28 -15q-16 0 -46.5 11.5t-46.5 11.5
q-47 0 -63 -52z" />
    <glyph glyph-name="macron" unicode="&#xaf;" horiz-adv-x="253" 
d="M8 790h263v-70h-263v70zM28 770v-30h223v30h-223z" />
    <glyph glyph-name="macron" unicode="&#x2c9;" horiz-adv-x="253" 
d="M8 790h263v-70h-263v70zM28 770v-30h223v30h-223z" />
    <glyph glyph-name="cedilla" unicode="&#xb8;" horiz-adv-x="254" 
d="M191 -28q37 1 60 -24t21 -63q-2 -36 -31.5 -60.5t-66.5 -24.5q-50 0 -68 14l-1 66q7 -5 27 -11.5t28 -6.5q42 0 42 26q0 18 -12 21q-4 1 -28 1q-21 0 -38 -11v112h67v-39zM160 -158q-13 0 -34 8v-21q22 -9 48 -9q29 0 54 19t25 46t-17 47.5t-44 20.5q-5 0 -21 -3v41h-27
v-65q17 4 35 4q43 0 43 -42q0 -22 -19.5 -34t-42.5 -12z" />
    <glyph glyph-name="Scaron" unicode="&#x160;" 
 />
    <glyph glyph-name="scaron" unicode="&#x161;" 
 />
    <glyph glyph-name="brokenbar" unicode="&#xa6;" 
 />
    <glyph glyph-name="Eth" unicode="&#xd0;" 
 />
    <glyph glyph-name="eth" unicode="&#xf0;" 
 />
    <glyph glyph-name="Yacute" unicode="&#xdd;" 
 />
    <glyph glyph-name="yacute" unicode="&#xfd;" 
 />
    <glyph glyph-name="Thorn" unicode="&#xde;" 
 />
    <glyph glyph-name="thorn" unicode="&#xfe;" 
 />
    <glyph glyph-name="minus" unicode="&#xad;" 
 />
    <glyph glyph-name="minus" unicode="&#x2212;" 
 />
    <glyph glyph-name="multiply" unicode="&#xd7;" 
 />
    <glyph glyph-name="onesuperior" unicode="&#xb9;" 
 />
    <glyph glyph-name="twosuperior" unicode="&#xb2;" 
 />
    <glyph glyph-name="threesuperior" unicode="&#xb3;" 
 />
    <glyph glyph-name="onehalf" unicode="&#xbd;" 
 />
    <glyph glyph-name="onequarter" unicode="&#xbc;" 
 />
    <glyph glyph-name="threequarters" unicode="&#xbe;" 
 />
    <glyph glyph-name="Lslash" unicode="&#x141;" 
 />
    <glyph glyph-name="lslash" unicode="&#x142;" 
 />
    <glyph glyph-name="HT" 
 />
    <glyph glyph-name="LF" 
 />
    <glyph glyph-name="nonmarkingreturn" 
 />
    <glyph glyph-name="Zcaron" unicode="&#x17d;" 
 />
    <glyph glyph-name="zcaron" unicode="&#x17e;" 
 />
    <glyph glyph-name="DLE" 
 />
    <glyph glyph-name="DC1" 
 />
    <glyph glyph-name="DC2" 
 />
    <glyph glyph-name="DC3" 
 />
    <glyph glyph-name="DC4" 
 />
    <glyph glyph-name="RS" 
 />
    <glyph glyph-name="US" 
 />
    <glyph glyph-name="notequal" unicode="&#x2260;" horiz-adv-x="16" 
 />
    <glyph glyph-name="infinity" unicode="&#x221e;" horiz-adv-x="16" 
 />
    <glyph glyph-name="lessequal" unicode="&#x2264;" horiz-adv-x="13" 
 />
    <glyph glyph-name="greaterequal" unicode="&#x2265;" horiz-adv-x="13" 
 />
    <glyph glyph-name="partialdiff" unicode="&#x2202;" horiz-adv-x="271" 
d="M229 363v42l-48 -34v311h-156v-26h37v-368l-40 -26v-39l40 26v-201h-39v-28h201v26h-42l1 284zM242 -1h-240l-1 68h39v139l-41 -28v99l41 28v335l-38 1v65h203v-291l49 36v-102l-49 -33v-249h38z" />
    <glyph glyph-name="summation" unicode="&#x2211;" horiz-adv-x="463" 
d="M460 206q0 -97 -59.5 -154.5t-155.5 -57.5q-57 0 -106 22.5t-52 22.5q-5 0 -19 -14t-18 -24h-48v241h44q86 -185 186 -185q28 0 53 19.5t25 51.5q0 16 -15 41.5t-36 36.5q-51 24 -102 49q-61 31 -105 73q-58 55 -58 146q0 88 60 145.5t145 57.5q51 0 96.5 -21t40.5 -21
q11 0 34 38h50v-223q-6 0 -22.5 -0.5t-27.5 0.5q-59 159 -163 159q-72 0 -72 -56q0 -52 84 -95q140 -71 157 -84q84 -64 84 -168zM439 203q0 98 -84 160q-79 42 -157 84q-84 46 -84 106q0 33 30 56q28 20 62 20q55 0 106 -46.5t72 -115.5h15v185h-18q-10 -12 -19 -24
q-12 -14 -26 -14q-4 0 -29 14q-28 16 -41 20q-36 11 -65 11q-73 0 -129.5 -53.5t-56.5 -129.5q0 -97 82 -158l152 -84q81 -47 81 -109q0 -38 -26.5 -61.5t-69.5 -23.5q-130 0 -198 181h-13v-202h12q5 3 24 26q12 15 27 15q7 0 54 -24.5t105 -24.5q78 0 133 50q61 54 61 142z
M101 803h99l21 -24l19 24h99l-67 -91h-108zM136 783l40 -51h85l42 51h-51l-31 -36l-32 36h-53z" />
    <glyph glyph-name="product" unicode="&#x220f;" horiz-adv-x="375" 
d="M372 155q0 -81 -53 -125q-46 -38 -117 -38q-40 0 -82 17l-36 18q-13 1 -22 -10t-16 -21h-44v176h44q42 -65 76.5 -91.5t79.5 -26.5q58 0 58 45q0 11 -9 24t-19 17q-127 49 -164 77q-66 50 -66 141q0 66 36 110q41 48 115 49q64 1 104 -27q13 7 37 24h43v-160h-48
q-31 60 -46 74q-26 25 -80 27q-23 1 -40 -14.5t-17 -35.5q0 -31 69 -56q99 -35 128 -56q69 -48 69 -138zM354 154q0 81 -69 126q-12 7 -129 55q-69 28 -69 70q0 30 21.5 48t54.5 18q100 0 138 -99q3 -1 16 0v124h-18q-8 -9 -42 -28q-8 9 -21 16q-30 15 -77 16
q-64 1 -101.5 -39.5t-37.5 -101.5q0 -83 68 -131q16 -11 125 -60q67 -29 66 -69q0 -33 -28 -50q-22 -12 -52 -12q-96 0 -160 117h-19v-142q20 1 20 0q14 31 42 31q9 0 48 -18.5t71 -18.5q61 0 105 38q48 42 48 110zM61 653h99l21 -24l19 24h99l-67 -91h-108zM96 633l40 -51
h85l42 51h-51l-31 -36l-32 36h-53z" />
    <glyph glyph-name="pi" unicode="&#x3c0;" horiz-adv-x="612" 
d="M601 596q-16 -4 -32 -9.5t-23 -17.5l-135 -256l2 -244h58v-70l-322 1l1 67h57v220q0 4 -157 307h-46v78h319v-77l-47 -1l94 -196l81 168q6 25 -50 27l-1 77h202zM579 614v36h-158v-36q59 -3 62 -39l-113 -231l-131 269l62 -1v39h-276v-36h40l164 -320v-247h-58v-30h276
v34h-58v268l134 265q6 27 56 29zM472 821l-174 -1l-131 -109h107zM401 803l-130 -71l-51 1l88 71z" />
    <glyph glyph-name="integral" unicode="&#x222b;" horiz-adv-x="444" 
d="M452 443l-40 -7l-165 -455q-18 -57 -59 -96q-44 -42 -95 -39q-40 2 -67 27.5t-27 62.5q0 69 73 73q56 4 77 -46q15 7 29 34.5t14 43.5t-154 395l-38 1l-1 73h243l1 -73h-37l71 -179l62 179l-38 8l1 65h150v-67zM429 463v25h-107v-24l46 -7l-91 -254l-102 252h46l-1 35
h-198v-31l31 -1l159 -409q0 -31 -24 -71t-47 -45q-17 58 -69 58q-20 0 -37.5 -16t-17.5 -39q0 -26 24 -49t54 -23q28 0 62 24q39 27 56 68q61 143 185 500zM384 670l-174 -1l-111 -109l96 1zM313 652l-130 -71l-32 1l73 71z" />
    <glyph glyph-name="Omega" unicode="&#x3a9;" horiz-adv-x="605" 
d="M363 -5q-105 2 -181 69q-69 61 -99 161h-77v106h60q-1 23 1 46h-65v103h87q38 102 120 163q79 59 173 59q130 0 226 -114l-105 -73q-33 41 -54 56q-30 22 -69 21q-72 0 -103 -71q-5 -13 -17 -41h141v-103h-159q-3 -23 -3 -46l168 -1v-106l-146 1q-4 -44 34 -78t82 -34
t86 25.5t65 65.5l90 -79q-92 -133 -255 -130zM534 166q-25 -33 -73 -55.5t-84 -22.5q-64 0 -108.5 50t-45.5 112l159 -1v56l-167 1q-2 49 5 96h156v53l-150 1q6 61 43 107q47 59 123 53q25 -1 61.5 -23t54.5 -44l63 44q-78 88 -183 88q-93 0 -174.5 -66.5t-106.5 -159.5h-80
v-53h68q-6 -48 -3 -96h-61v-56h71q28 -101 90 -161q69 -67 172 -69q62 -1 120 24q62 27 100 77z" />
    <glyph glyph-name="Omega" unicode="&#x2126;" horiz-adv-x="605" 
d="M363 -5q-105 2 -181 69q-69 61 -99 161h-77v106h60q-1 23 1 46h-65v103h87q38 102 120 163q79 59 173 59q130 0 226 -114l-105 -73q-33 41 -54 56q-30 22 -69 21q-72 0 -103 -71q-5 -13 -17 -41h141v-103h-159q-3 -23 -3 -46l168 -1v-106l-146 1q-4 -44 34 -78t82 -34
t86 25.5t65 65.5l90 -79q-92 -133 -255 -130zM534 166q-25 -33 -73 -55.5t-84 -22.5q-64 0 -108.5 50t-45.5 112l159 -1v56l-167 1q-2 49 5 96h156v53l-150 1q6 61 43 107q47 59 123 53q25 -1 61.5 -23t54.5 -44l63 44q-78 88 -183 88q-93 0 -174.5 -66.5t-106.5 -159.5h-80
v-53h68q-6 -48 -3 -96h-61v-56h71q28 -101 90 -161q69 -67 172 -69q62 -1 120 24q62 27 100 77z" />
    <glyph glyph-name="radical" unicode="&#x221a;" horiz-adv-x="13" 
 />
    <glyph glyph-name="approxequal" unicode="&#x2248;" horiz-adv-x="10" 
 />
    <glyph glyph-name="approxequal" unicode="&#x22f2;" horiz-adv-x="10" 
 />
    <glyph glyph-name="Delta" unicode="&#x394;" horiz-adv-x="13" 
 />
    <glyph glyph-name="Delta" unicode="&#x2206;" horiz-adv-x="13" 
 />
    <glyph glyph-name="lozenge" unicode="&#x25ca;" 
 />
    <glyph glyph-name="fraction" unicode="&#x2044;" horiz-adv-x="10" 
 />
    <glyph glyph-name="fi" unicode="&#xf001;" horiz-adv-x="10" 
 />
    <glyph glyph-name="fl" unicode="&#xf002;" horiz-adv-x="10" 
 />
    <glyph glyph-name="apple" unicode="&#xf000;" 
 />
    <glyph glyph-name="dotlessi" unicode="&#x131;" horiz-adv-x="260" 
d="M242 0h-241v66h40v373h-40v72h202v-444h39v-67zM219 20l1 26h-39l1 442h-162v-26l43 -1v-415h-38v-26h194z" />
    <glyph glyph-name="breve" unicode="&#x2d8;" horiz-adv-x="293" 
d="M161 704q-138 0 -153 118l-1 11h81q11 -37 24 -45t54 -8q37 0 47.5 8t22.5 45h78q-23 -129 -153 -129zM161 724q107 0 129 89h-40q-13 -35 -32 -45q-15 -8 -52 -8q-41 0 -58 8q-22 11 -35 45h-43q18 -89 131 -89z" />
    <glyph glyph-name="dotaccent" unicode="&#x2d9;" horiz-adv-x="110" 
d="M3 820h115v-119h-115v119zM23 800v-79h75v79h-75z" />
    <glyph glyph-name="ring" unicode="&#x2da;" horiz-adv-x="166" 
d="M88 698q-36 0 -61 23.5t-25 60.5q0 36 26.5 58.5t62.5 22.5q35 0 61 -22.5t26 -57.5q0 -36 -27.5 -60.5t-62.5 -24.5zM88 718q26 0 48 19t22 46q0 26 -20 43t-47 17q-28 0 -48.5 -16.5t-20.5 -44.5t19 -46t47 -18zM90 806q-24 0 -24 -24q0 -26 24 -26q23 0 23 26
q0 24 -23 24zM90 826q18 0 30.5 -12.5t12.5 -31.5q0 -18 -12 -32t-31 -14t-31.5 13.5t-12.5 32.5q0 18 12.5 31t31.5 13z" />
    <glyph glyph-name="hungarumlaut" unicode="&#x2dd;" horiz-adv-x="247" 
d="M129 712l46 110h89l-79 -110h-56zM153 728h24l56 78h-47zM1 712l46 110h89l-78 -110h-57zM25 728h25l55 78h-47z" />
    <glyph glyph-name="ogonek" unicode="&#x2db;" horiz-adv-x="203" 
d="M26 -142q-14 20 -14 44q0 48 59 98h100l-48 -38q-31 -26 -31 -47q0 -53 49 -53q10 0 36 6l-2 -66q-11 -4 -26 -2q-25 2 -27 2q-59 0 -96 56zM47 -138q28 -35 71 -35q4 0 17 -3t21 -1l1 20q-9 -1 -16 -1q-31 0 -50 19.5t-19 53.5q0 14 15 33q13 15 26 31l-35 1
q-46 -40 -46 -78q0 -21 15 -40z" />
    <glyph glyph-name="caron" unicode="&#x2c7;" horiz-adv-x="233" 
d="M11 803h99l21 -24l19 24h99l-67 -91h-108zM46 783l40 -51h85l42 51h-51l-31 -36l-32 36h-53z" />
    </font>
</defs>
</svg>
