<svg xmlns="http://www.w3.org/2000/svg" xmlns:xlink="http://www.w3.org/1999/xlink"
     width="49.834ex" height="6.736ex" focusable="false" role="img" style="vertical-align:-1.279ex" viewBox="0 -899.7 10728.3 1450.3">
    <defs>
        <path id="E4-MJMAIN-63" stroke-width="0" d="M370 305T349 305T313 320T297 358Q297 381 312 396Q317 401 317 402T307 404Q281 408 258 408Q209 408 178 376Q131 329 131 219Q131 137 162 90Q203 29 272 29Q313 29 338 55T374 117Q376 125 379 127T395 129H409Q415 123 415 120Q415 116 411 104T395 71T366 33T318 2T249 -11Q163 -11 99 53T34 214Q34 318 99 383T250 448T370 421T404 357Q404 334 387 320Z"/>
        <path id="E4-MJMAIN-6F" stroke-width="0" d="M28 214Q28 309 93 378T250 448Q340 448 405 380T471 215Q471 120 407 55T250 -10Q153 -10 91 57T28 214ZM250 30Q372 30 372 193V225V250Q372 272 371 288T364 326T348 362T317 390T268 410Q263 411 252 411Q222 411 195 399Q152 377 139 338T126 246V226Q126 130 145 91Q177 30 250 30Z"/>
        <path id="E4-MJMAIN-73" stroke-width="0" d="M295 316Q295 356 268 385T190 414Q154 414 128 401Q98 382 98 349Q97 344 98 336T114 312T157 287Q175 282 201 278T245 269T277 256Q294 248 310 236T342 195T359 133Q359 71 321 31T198 -10H190Q138 -10 94 26L86 19L77 10Q71 4 65 -1L54 -11H46H42Q39 -11 33 -5V74V132Q33 153 35 157T45 162H54Q66 162 70 158T75 146T82 119T101 77Q136 26 198 26Q295 26 295 104Q295 133 277 151Q257 175 194 187T111 210Q75 227 54 256T33 318Q33 357 50 384T93 424T143 442T187 447H198Q238 447 268 432L283 424L292 431Q302 440 314 448H322H326Q329 448 335 442V310L329 304H301Q295 310 295 316Z"/>
        <path id="E4-MJMAIN-32" stroke-width="0" d="M109 429Q82 429 66 447T50 491Q50 562 103 614T235 666Q326 666 387 610T449 465Q449 422 429 383T381 315T301 241Q265 210 201 149L142 93L218 92Q375 92 385 97Q392 99 409 186V189H449V186Q448 183 436 95T421 3V0H50V19V31Q50 38 56 46T86 81Q115 113 136 137Q145 147 170 174T204 211T233 244T261 278T284 308T305 340T320 369T333 401T340 431T343 464Q343 527 309 573T212 619Q179 619 154 602T119 569T109 550Q109 549 114 549Q132 549 151 535T170 489Q170 464 154 447T109 429Z"/>
        <path id="E4-MJMATHI-3C0" stroke-width="0" d="M132 -11Q98 -11 98 22V33L111 61Q186 219 220 334L228 358H196Q158 358 142 355T103 336Q92 329 81 318T62 297T53 285Q51 284 38 284Q19 284 19 294Q19 300 38 329T93 391T164 429Q171 431 389 431Q549 431 553 430Q573 423 573 402Q573 371 541 360Q535 358 472 358H408L405 341Q393 269 393 222Q393 170 402 129T421 65T431 37Q431 20 417 5T381 -10Q370 -10 363 -7T347 17T331 77Q330 86 330 121Q330 170 339 226T357 318T367 358H269L268 354Q268 351 249 275T206 114T175 17Q164 -11 132 -11Z"/>
        <path id="E4-MJMATHI-70" stroke-width="0" d="M23 287Q24 290 25 295T30 317T40 348T55 381T75 411T101 433T134 442Q209 442 230 378L240 387Q302 442 358 442Q423 442 460 395T497 281Q497 173 421 82T249 -10Q227 -10 210 -4Q199 1 187 11T168 28L161 36Q160 35 139 -51T118 -138Q118 -144 126 -145T163 -148H188Q194 -155 194 -157T191 -175Q188 -187 185 -190T172 -194Q170 -194 161 -194T127 -193T65 -192Q-5 -192 -24 -194H-32Q-39 -187 -39 -183Q-37 -156 -26 -148H-6Q28 -147 33 -136Q36 -130 94 103T155 350Q156 355 156 364Q156 405 131 405Q109 405 94 377T71 316T59 280Q57 278 43 278H29Q23 284 23 287ZM178 102Q200 26 252 26Q282 26 310 49T356 107Q374 141 392 215T411 325V331Q411 405 350 405Q339 405 328 402T306 393T286 380T269 365T254 350T243 336T235 326L232 322Q232 321 229 308T218 264T204 212Q178 106 178 102Z"/>
        <path id="E4-MJMAIN-2B" stroke-width="0" d="M56 237T56 250T70 270H369V420L370 570Q380 583 389 583Q402 583 409 568V270H707Q722 262 722 250T707 230H409V-68Q401 -82 391 -82H389H387Q375 -82 369 -68V230H70Q56 237 56 250Z"/>
        <path id="E4-MJMATHI-71" stroke-width="0" d="M33 157Q33 258 109 349T280 441Q340 441 372 389Q373 390 377 395T388 406T404 418Q438 442 450 442Q454 442 457 439T460 434Q460 425 391 149Q320 -135 320 -139Q320 -147 365 -148H390Q396 -156 396 -157T393 -175Q389 -188 383 -194H370Q339 -192 262 -192Q234 -192 211 -192T174 -192T157 -193Q143 -193 143 -185Q143 -182 145 -170Q149 -154 152 -151T172 -148Q220 -148 230 -141Q238 -136 258 -53T279 32Q279 33 272 29Q224 -10 172 -10Q117 -10 75 30T33 157ZM352 326Q329 405 277 405Q242 405 210 374T160 293Q131 214 119 129Q119 126 119 118T118 106Q118 61 136 44T179 26Q233 26 290 98L298 109L352 326Z"/>
        <path id="E4-MJMAIN-3D" stroke-width="0" d="M56 347Q56 360 70 367H707Q722 359 722 347Q722 336 708 328L390 327H72Q56 332 56 347ZM56 153Q56 168 72 173H708Q722 163 722 153Q722 140 707 133H70Q56 140 56 153Z"/>
        <path id="E4-MJMATHI-68" stroke-width="0" d="M137 683Q138 683 209 688T282 694Q294 694 294 685Q294 674 258 534Q220 386 220 383Q220 381 227 388Q288 442 357 442Q411 442 444 415T478 336Q478 285 440 178T402 50Q403 36 407 31T422 26Q450 26 474 56T513 138Q516 149 519 151T535 153Q555 153 555 145Q555 144 551 130Q535 71 500 33Q466 -10 419 -10H414Q367 -10 346 17T325 74Q325 90 361 192T398 345Q398 404 354 404H349Q266 404 205 306L198 293L164 158Q132 28 127 16Q114 -11 83 -11Q69 -11 59 -2T48 16Q48 30 121 320L195 616Q195 629 188 632T149 637H128Q122 643 122 645T124 664Q129 683 137 683Z"/>
    </defs>
    <g fill="blue" stroke="blue" stroke-width="0" transform="matrix(1 0 0 -1 0 0)">
        <use  xlink:href="#E4-MJMAIN-63"/>
        <use  x="444" y="0" xlink:href="#E4-MJMAIN-6F"/>
        <use  x="944" y="0" xlink:href="#E4-MJMAIN-73"/>
        <use  x="1892" y="513" transform="scale(0.707)" xlink:href="#E4-MJMAIN-32"/>
        <g transform="translate(1958,0)">
            <g transform="translate(120,0)">
                <rect width="525" height="60" x="0" y="220" stroke="none"/>
                <use  x="84" y="581" transform="scale(0.707)" xlink:href="#E4-MJMATHI-3C0"/>
                <use  x="119" y="-488" transform="scale(0.707)" xlink:href="#E4-MJMATHI-70"/>
            </g>
        </g>
        <use  x="2945" y="0" xlink:href="#E4-MJMAIN-2B"/>
        <g transform="translate(3945,0)">
            <use  xlink:href="#E4-MJMAIN-63"/>
            <use  x="444" y="0" xlink:href="#E4-MJMAIN-6F"/>
            <use  x="944" y="0" xlink:href="#E4-MJMAIN-73"/>
            <use  x="1892" y="513" transform="scale(0.707)" xlink:href="#E4-MJMAIN-32"/>
        </g>
        <g transform="translate(5904,0)">
            <g transform="translate(120,0)">
                <rect width="525" height="60" x="0" y="220" stroke="none"/>
                <use  x="84" y="581" transform="scale(0.707)" xlink:href="#E4-MJMATHI-3C0"/>
                <use  x="141" y="-488" transform="scale(0.707)" xlink:href="#E4-MJMATHI-71"/>
            </g>
        </g>
        <use  x="6947" y="0" xlink:href="#E4-MJMAIN-3D"/>
        <g transform="translate(8002,0)">
            <use  xlink:href="#E4-MJMAIN-63"/>
            <use  x="444" y="0" xlink:href="#E4-MJMAIN-6F"/>
            <use  x="944" y="0" xlink:href="#E4-MJMAIN-73"/>
            <use  x="1892" y="513" transform="scale(0.707)" xlink:href="#E4-MJMAIN-32"/>
        </g>
        <g transform="translate(9961,0)">
            <g transform="translate(120,0)">
                <rect width="527" height="60" x="0" y="220" stroke="none"/>
                <use  x="86" y="581" transform="scale(0.707)" xlink:href="#E4-MJMATHI-3C0"/>
                <use  x="84" y="-558" transform="scale(0.707)" xlink:href="#E4-MJMATHI-68"/>
            </g>
        </g>
    </g>
</svg>
