<svg xmlns="http://www.w3.org/2000/svg" xmlns:xlink="http://www.w3.org/1999/xlink"
     width="15.999ex" height="2.905ex" focusable="false" role="img" style="vertical-align:-0.584ex" viewBox="0 -999.4 6888.6 1250.8">
    <defs>
        <path id="E2-MJMAIN-2212" stroke-width="0" d="M84 237T84 250T98 270H679Q694 262 694 250T679 230H98Q84 237 84 250Z"/>
        <path id="E2-MJMAIN-32" stroke-width="0" d="M109 429Q82 429 66 447T50 491Q50 562 103 614T235 666Q326 666 387 610T449 465Q449 422 429 383T381 315T301 241Q265 210 201 149L142 93L218 92Q375 92 385 97Q392 99 409 186V189H449V186Q448 183 436 95T421 3V0H50V19V31Q50 38 56 46T86 81Q115 113 136 137Q145 147 170 174T204 211T233 244T261 278T284 308T305 340T320 369T333 401T340 431T343 464Q343 527 309 573T212 619Q179 619 154 602T119 569T109 550Q109 549 114 549Q132 549 151 535T170 489Q170 464 154 447T109 429Z"/>
        <path id="E2-MJMAIN-221A" stroke-width="0" d="M95 178Q89 178 81 186T72 200T103 230T169 280T207 309Q209 311 212 311H213Q219 311 227 294T281 177Q300 134 312 108L397 -77Q398 -77 501 136T707 565T814 786Q820 800 834 800Q841 800 846 794T853 782V776L620 293L385 -193Q381 -200 366 -200Q357 -200 354 -197Q352 -195 256 15L160 225L144 214Q129 202 113 190T95 178Z"/>
        <path id="E2-MJMAIN-33" stroke-width="0" d="M127 463Q100 463 85 480T69 524Q69 579 117 622T233 665Q268 665 277 664Q351 652 390 611T430 522Q430 470 396 421T302 350L299 348Q299 347 308 345T337 336T375 315Q457 262 457 175Q457 96 395 37T238 -22Q158 -22 100 21T42 130Q42 158 60 175T105 193Q133 193 151 175T169 130Q169 119 166 110T159 94T148 82T136 74T126 70T118 67L114 66Q165 21 238 21Q293 21 321 74Q338 107 338 175V195Q338 290 274 322Q259 328 213 329L171 330L168 332Q166 335 166 348Q166 366 174 366Q202 366 232 371Q266 376 294 413T322 525V533Q322 590 287 612Q265 626 240 626Q208 626 181 615T143 592T132 580H135Q138 579 143 578T153 573T165 566T175 555T183 540T186 520Q186 498 172 481T127 463Z"/>
        <path id="E2-MJMAIN-3D" stroke-width="0" d="M56 347Q56 360 70 367H707Q722 359 722 347Q722 336 708 328L390 327H72Q56 332 56 347ZM56 153Q56 168 72 173H708Q722 163 722 153Q722 140 707 133H70Q56 140 56 153Z"/>
        <path id="E2-MJMAIN-36" stroke-width="0" d="M42 313Q42 476 123 571T303 666Q372 666 402 630T432 550Q432 525 418 510T379 495Q356 495 341 509T326 548Q326 592 373 601Q351 623 311 626Q240 626 194 566Q147 500 147 364L148 360Q153 366 156 373Q197 433 263 433H267Q313 433 348 414Q372 400 396 374T435 317Q456 268 456 210V192Q456 169 451 149Q440 90 387 34T253 -22Q225 -22 199 -14T143 16T92 75T56 172T42 313ZM257 397Q227 397 205 380T171 335T154 278T148 216Q148 133 160 97T198 39Q222 21 251 21Q302 21 329 59Q342 77 347 104T352 209Q352 289 347 316T329 361Q302 397 257 397Z"/>
    </defs>
    <g fill="blue" stroke="blue" stroke-width="0" transform="matrix(1 0 0 -1 0 0)">
        <use  x="0" y="55" xlink:href="#E2-MJMAIN-221A"/>
        <rect width="1278" height="60" x="833" y="795" stroke="none"/>
        <g transform="translate(833,0)">
            <use  x="0" y="0" xlink:href="#E2-MJMAIN-2212"/>
            <use  x="778" y="0" xlink:href="#E2-MJMAIN-32"/>
        </g>
        <g transform="translate(2111,0)">
            <use  x="0" y="44" xlink:href="#E2-MJMAIN-221A"/>
            <rect width="1278" height="60" x="833" y="784" stroke="none"/>
            <g transform="translate(833,0)">
                <use  x="0" y="0" xlink:href="#E2-MJMAIN-2212"/>
                <use  x="778" y="0" xlink:href="#E2-MJMAIN-33"/>
            </g>
        </g>
        <use  x="4499" y="0" xlink:href="#E2-MJMAIN-3D"/>
        <g transform="translate(5555,0)">
            <use  x="0" y="44" xlink:href="#E2-MJMAIN-221A"/>
            <rect width="500" height="60" x="833" y="784" stroke="none"/>
            <use  x="833" y="0" xlink:href="#E2-MJMAIN-36"/>
        </g>
    </g>
</svg>
