<svg xmlns="http://www.w3.org/2000/svg" xmlns:xlink="http://www.w3.org/1999/xlink" width="25.344ex" height="2.905ex" style="vertical-align:-.815ex" viewBox="0 -899.7 10911.8 1250.8">
    <defs>
        <path id="a" stroke-width="0" d="M133 736q5 14 20 14 11 0 17-11 2-4 2-489t-2-489q-6-11-18-11-8 0-14 6l-1 1q-4 2-4 64t-1 429q0 481 1 486zm196 3q5 11 17 11 7 0 15-6l1-1q4-2 4-64t1-429 0-428-5-65l-1-1q-6-6-14-6-12 0-18 11-2 4-2 489t2 489z"/>
        <path id="b" stroke-width="0" d="M61 748q3 2 428 2h424l41-110q11-31 22-61t17-46 6-17h-20l-20 1q-23 62-73 104t-109 61q-53 18-122 23t-219 5H319q-136 0-136-1 3-3 165-225t163-225q6-9 2-15l-23-28q-24-28-70-82T330 27L149-187q0-1 213-1h74q48 0 70-1 173 0 272 27T936-43q10 16 23 49h40l-86-255-424-1q-424 0-427 2-6 2-6 9 0 5 62 78 68 80 127 150l183 217q0 1-186 256L57 717l-1 11q0 16 5 20z"/>
        <path id="c" stroke-width="0" d="M21 287q1 6 3 16t12 38 20 47 33 37 46 17q36 0 60-18t30-34 6-21q0-2 1-2l11 11q61 64 139 64 54 0 87-27t34-79-38-157-38-127q0-26 17-26 6 0 9 1 29 5 52 38t35 80q2 8 20 8 20 0 20-8 0-1-4-15-8-29-22-57t-46-56-69-27q-47 0-68 27t-21 56q0 19 36 120t37 152q0 59-44 59h-5q-86 0-145-101l-7-12-33-134Q156 26 151 16q-13-27-43-27-13 0-21 6T76 7t-2 10q0 13 38 163t40 163q1 5 1 23 0 39-24 39-38 0-63-100-6-20-6-21-2-6-19-6H27q-6 6-6 9z"/>
        <path id="d" stroke-width="0" d="M184 600q0 24 19 42t44 19q18 0 30-12t13-30q0-23-20-42t-44-20q-15 0-28 10t-14 33zM21 287q0 8 9 31t24 51 44 51 60 22q39 0 65-23t27-62q0-17-14-56t-40-105-42-113q-5-22-5-32 0-25 17-25 9 0 19 3t23 14 27 35 25 59q3 12 5 14t17 2q20 0 20-10 0-8-9-31t-25-51-45-50-62-22q-32 0-59 21T74 74q0 17 5 32t43 114q38 101 44 121t7 39q0 24-17 24h-2q-30 0-55-33t-38-84q-1-1-2-3t-1-3-2-2-3-1-4 0-8 0H27q-6 6-6 9z"/>
        <path id="e" stroke-width="0" d="M56 347q0 13 14 20h637q15-8 15-20 0-11-14-19l-318-1H72q-16 5-16 20zm0-194q0 15 16 20h636q14-10 14-20 0-13-15-20H70q-14 7-14 20z"/>
        <path id="f" stroke-width="0" d="M213 578l-13-5q-14-5-40-10t-58-7H83v46h19q47 2 87 15t56 24 28 22q2 3 12 3 9 0 17-6V361l1-300q7-7 12-9t24-4 62-2h26V0h-11q-21 3-159 3-136 0-157-3H88v46h64q16 0 25 1t16 3 8 2 6 5 6 4v517z"/>
        <path id="g" stroke-width="0" d="M268 632q0 72 28 72 18 0 18-17 0-5-3-23t-3-29 1-15v-4h6q27 3 45 3 83 0 83-33-4-38-85-40h-14q-18 0-27 3t-27 17q-33-16-64-61t-31-100q0-24 6-41t10-22 7-5q48 10 80 10 77 0 77-33-1-17-16-26t-32-11-47-2q-46 0-72 8l-13 3q-46-26-76-72t-31-84q0-14 2-22 11-29 39-45t100-43q9-3 14-5 94-36 111-48 29-20 29-61 0-43-32-77t-78-34q-33 0-71 15t-44 23q-2 4-2 8 0 8 5 13t15 6q6 0 13-3 43-25 85-25 12 0 18 3 21 14 21 36 0 17-12 25t-69 29q-18 7-28 11-6 2-33 12t-35 14-29 14T78-8 56 12 36 37 26 66t-5 37q0 46 34 103t90 95l9 6-6 6q-7 6-12 10t-12 15-13 20-8 24-4 31q0 58 44 111t116 78l12 5q-3 11-3 25z"/>
        <path id="h" stroke-width="0" d="M109 429q-27 0-43 18t-16 44q0 71 53 123t132 52q91 0 152-56t62-145q0-43-20-82t-48-68-80-74q-36-31-100-92l-59-56 76-1q157 0 167 5 7 2 24 89v3h40v-3q-1-3-13-91T421 3V0H50v31q0 7 6 15t30 35q29 32 50 56 9 10 34 37t34 37 29 33 28 34 23 30 21 32 15 29 13 32 7 30 3 33q0 63-34 109t-97 46q-33 0-58-17t-35-33-10-19q0-1 5-1 18 0 37-14t19-46q0-25-16-42t-45-18z"/>
    </defs>
    <g fill="#00f" stroke="#00f" stroke-width="0" transform="scale(1 -1)">
        <use xlink:href="#a"/>
        <g transform="translate(666)">
            <use xlink:href="#b"/>
            <use x="1493" y="674" transform="scale(.707)" xlink:href="#c"/>
            <g transform="matrix(.707 0 0 .707 1056 -286)">
                <use xlink:href="#d"/>
                <use x="345" xlink:href="#e"/>
                <use x="1123" xlink:href="#f"/>
            </g>
        </g>
        <g transform="translate(3136)">
            <use xlink:href="#g"/>
            <use x="619" y="-213" transform="scale(.707)" xlink:href="#d"/>
        </g>
        <g transform="translate(3918)">
            <use xlink:href="#a"/>
            <use x="707" y="513" transform="scale(.707)" xlink:href="#h"/>
        </g>
        <use x="5150" xlink:href="#e"/>
        <g transform="translate(6206)">
            <use xlink:href="#b"/>
            <use x="1493" y="674" transform="scale(.707)" xlink:href="#c"/>
            <g transform="matrix(.707 0 0 .707 1056 -286)">
                <use xlink:href="#d"/>
                <use x="345" xlink:href="#e"/>
                <use x="1123" xlink:href="#f"/>
            </g>
        </g>
        <use x="8676" xlink:href="#a"/>
        <g transform="translate(9176)">
            <use xlink:href="#g"/>
            <use x="619" y="-213" transform="scale(.707)" xlink:href="#d"/>
        </g>
        <g transform="translate(9958)">
            <use xlink:href="#a"/>
            <use x="707" y="513" transform="scale(.707)" xlink:href="#h"/>
        </g>
    </g>
</svg>
