<svg xmlns="http://www.w3.org/2000/svg" viewBox="0 0 541.867 541.867" height="2048" width="2048">
   <path d="M446.352 507.206l-4.498 2.91c-29.457-26.634-64.382-60.589-104.775-101.864-20.637-21.167-32.19-33.073-34.66-35.719-13.053-13.758-23.725-26.458-32.015-38.1 10.407-14.464 32.632-39.07 66.675-73.818 40.393-41.275 75.318-75.23 104.775-101.865l4.498 2.91c-10.23 26.635-18.962 49.919-26.194 69.85-11.994 32.632-18.168 49.566-18.52 50.8-6.703 19.58-11.466 36.954-14.288 52.123 3.351 18.168 14.287 52.476 32.808 102.923 7.232 19.932 15.963 43.215 26.194 69.85zm-174.625 0l-4.498 2.91c-29.457-26.634-64.382-60.589-104.775-101.864-20.637-21.167-32.19-33.073-34.66-35.719-13.053-13.758-23.725-26.458-32.015-38.1 10.407-14.464 32.632-39.07 66.675-73.818 40.393-41.275 75.318-75.23 104.775-101.865l4.498 2.91c-10.23 26.635-18.962 49.919-26.194 69.85-11.994 32.632-18.168 49.566-18.52 50.8-6.703 19.58-11.466 36.954-14.288 52.123 3.351 18.168 14.287 52.476 32.808 102.923 7.232 19.932 15.963 43.215 26.194 69.85zM515.937 92.604q0 9.016-5.613 9.016l-123.717 2.028q-10.104.225-23.351 7.212l-80.382 42.598q-2.021-16.002-4.716-48.007l-17.289.226q-13.92.225-23.35 5.183l-80.383 42.598q-2.021-16.002-4.715-48.007l-17.29.226q-13.92.225-23.35 5.183l-80.383 42.598q-4.94-41.921-4.94-60.854 0-18.932 4.94-60.854l80.382 42.598q9.43 4.958 23.352 5.184l17.289.225q.673-13.298 4.715-48.007l80.382 42.598q9.43 4.958 23.351 5.184l17.29.225q.673-13.298 4.715-48.007l80.382 42.598q13.247 6.987 23.351 7.212l123.717 2.029q5.613 0 5.613 9.015z" />
</svg>