<svg xmlns="http://www.w3.org/2000/svg" height="2048" width="2048" viewBox="-10 0 2048 2048">
   <path d="M656 393c0 30.667-11 46.667-33 48-36 1.333-60.333 3.333-73 6-22.667 4-46 12.333-70 25L132 656c-14.667-123.333-22-211-22-263s7.333-139.667 22-263l348 184c34 18 81.667 28.333 143 31 22 1.333 33 17.333 33 48zm-4 302l-185 352c-15.333 29.333-23.333 64.667-24 106l-13 741c0 16.667-13.333 25-40 25s-40-8.333-40-25l-13-741c-.667-41.333-8.667-76.667-24-106L128 695c118-14 205.333-21 262-21s144 7 262 21z" />
</svg>