<svg xmlns="http://www.w3.org/2000/svg" viewBox="0 0 132.821 138.906" height="52.5" width="50.2">
   <path d="M17.693 92.626V65.673c-3.624-3.451-9.49-8.546-17.428-14.955v-4.273h17.428V19.821c-3.624-3.615-9.49-8.71-17.428-15.12V.266h39.687v4.273c-.345.657-5.867 5.752-16.565 15.283v26.624h16.565v4.109c-5.177 5.094-8.628 7.724-16.565 15.12v26.952h16.565v3.944c-.345.657-5.867 5.916-16.565 15.612v26.46h-5.694v-26.46L.265 97.062v-4.436zM104.867 73.29l15.77 61.647-47.31-64.029 47.31-67.468c-6.227 19.546-11.157 39.888-15.77 60.325h27.69v9.525zM39.952.265h49.511L68.56 36.777v101.865h-7.152V36.777z" />
</svg>