<svg xmlns="http://www.w3.org/2000/svg" viewBox="0 0 541.867 541.867" height="2048" width="2048">
   <path d="M398.932 62.442l-44.146 94.72q-5.138 11.113-5.371 27.517L345.21 478.63q0 6.615-9.343 6.615t-9.343-6.615L322.32 184.68q-.234-16.404-5.372-27.517l-44.147-94.72q43.446-5.821 63.067-5.821 19.62 0 63.065 5.82zm-129.868 0l-44.146 94.72q-5.138 11.113-5.373 27.517l-4.204 293.952q0 6.615-9.343 6.615t-9.343-6.615L192.45 184.68q-.234-16.404-5.373-27.517l-44.145-94.721q43.445-5.821 63.066-5.821 19.62 0 63.066 5.82zM510.117 479.69l-4.906 3.44q-28.73-31.222-82.92-108.745-54.19-77.522-65.401-103.452 11.211-25.93 65.401-103.452 54.19-77.523 82.92-108.743l4.906 3.44q-13.315 40.745-33.168 115.887-21.256 79.904-21.256 92.868 0 12.965 21.256 92.87 19.854 75.14 33.167 115.887zM181.24 197.38c0 7.055-1.947 10.582-5.84 10.582l-30.599 4.763c-9.654.176-17.751 2.205-24.292 6.085l-83.62 50.007c-3.426-32.809-5.139-56.621-5.139-71.438s1.713-38.629 5.139-71.437l83.62 50.006c6.54 3.88 14.638 5.909 24.292 6.085l30.6 4.763c3.892 0 5.838 3.528 5.838 10.583zm0 147.107c0 7.056-1.947 10.584-5.84 10.584l-30.599 4.762c-9.654.177-17.751 2.205-24.292 6.086l-83.62 50.006c-3.426-32.808-5.139-56.62-5.139-71.438 0-14.816 1.713-38.629 5.139-71.437l83.62 50.006c6.54 3.88 14.638 5.91 24.292 6.086l30.6 4.762c3.892 0 5.838 3.528 5.838 10.584z" />
</svg>