<?xml version="1.0" encoding="UTF-8" standalone="no"?>
<svg
   xmlns:dc="http://purl.org/dc/elements/1.1/"
   xmlns:cc="http://creativecommons.org/ns#"
   xmlns:rdf="http://www.w3.org/1999/02/22-rdf-syntax-ns#"
   xmlns:svg="http://www.w3.org/2000/svg"
   xmlns="http://www.w3.org/2000/svg"
   xmlns:sodipodi="http://sodipodi.sourceforge.net/DTD/sodipodi-0.dtd"
   xmlns:inkscape="http://www.inkscape.org/namespaces/inkscape"
   inkscape:version="1.0 (4035a4fb49, 2020-05-01)"
   sodipodi:docname="000-004-062_ピ.svg"
   id="svg4"
   version="1.1"
   viewBox="0 0 541.867 541.867"
   height="2048"
   width="2048">
  <metadata
     id="metadata10">
    <rdf:RDF>
      <cc:Work
         rdf:about="">
        <dc:format>image/svg+xml</dc:format>
        <dc:type
           rdf:resource="http://purl.org/dc/dcmitype/StillImage" />
      </cc:Work>
    </rdf:RDF>
  </metadata>
  <defs
     id="defs8" />
  <sodipodi:namedview
     inkscape:current-layer="svg4"
     inkscape:window-maximized="1"
     inkscape:window-y="-8"
     inkscape:window-x="-8"
     inkscape:cy="1011.9136"
     inkscape:cx="472.48366"
     inkscape:zoom="0.27194226"
     showgrid="false"
     id="namedview6"
     inkscape:window-height="1018"
     inkscape:window-width="1920"
     inkscape:pageshadow="2"
     inkscape:pageopacity="0"
     guidetolerance="10"
     gridtolerance="10"
     objecttolerance="10"
     borderopacity="1"
     bordercolor="#666666"
     pagecolor="#ffffff" />
  <path
     id="path841"
     d="m 62.177,537.63389 -3.44,-5.557 c 20.814,-21.695 57.062,-53.004 108.744,-93.927 51.682,-40.922 86.166,-65.616 103.452,-74.083 17.286,8.467 51.77,33.161 103.452,74.083 51.682,40.923 87.93,72.232 108.744,93.927 l -3.44,5.557 c -27.163,-10.055 -65.793,-22.578 -115.887,-37.571 -53.27,-16.052 -84.226,-24.077 -92.869,-24.077 -8.643,0 -39.6,8.025 -92.868,24.077 -50.095,14.993 -88.724,27.517 -115.888,37.57 z" />
  <path
     id="path839"
     d="m 62.177,386.292 -3.44,-5.556 c 20.814,-21.696 57.062,-53.005 108.744,-93.927 51.682,-40.922 86.166,-65.617 103.452,-74.083 17.286,8.466 51.77,33.16 103.452,74.083 51.682,40.922 87.93,72.231 108.744,93.927 l -3.44,5.556 c -27.163,-10.054 -65.793,-22.577 -115.887,-37.57 -53.27,-16.052 -84.226,-24.078 -92.869,-24.078 -8.643,0 -39.6,8.026 -92.868,24.078 -50.095,14.993 -88.724,27.516 -115.888,37.57 z" />
  <path
     id="path837"
     d="m 195.263,215.90134 c -7.056,0 -10.584,-2.205 -10.584,-6.615 l -4.762,-76.994 c -0.177,-10.936 -2.205,-20.108 -6.086,-27.516 L 123.825,10.054336 c 32.808,-3.8800001 56.62,-5.8210001 71.438,-5.8210001 14.816,0 38.629,1.94 71.437,5.8200001 l -50.006,94.722004 c -3.88,7.408 -5.91,16.58 -6.086,27.516 l -4.762,76.994 c 0,4.41 -3.528,6.615 -10.584,6.615 z" />
  <path
     id="path2"
     d="m 342.37,215.90134 c -7.055,0 -10.582,-2.205 -10.582,-6.615 l -4.763,-76.994 c -0.176,-10.936 -2.205,-20.108 -6.085,-27.516 L 270.933,10.054336 c 32.809,-3.8800001 56.621,-5.8210001 71.438,-5.8210001 14.817,0 38.629,1.94 71.437,5.8200001 l -50.006,94.722004 c -3.88,7.408 -5.909,16.58 -6.085,27.516 l -4.763,76.994 c 0,4.41 -3.528,6.615 -10.583,6.615 z" />
</svg>
