<?xml version="1.0" encoding="UTF-8" standalone="no"?>
<svg
   xmlns:dc="http://purl.org/dc/elements/1.1/"
   xmlns:cc="http://creativecommons.org/ns#"
   xmlns:rdf="http://www.w3.org/1999/02/22-rdf-syntax-ns#"
   xmlns:svg="http://www.w3.org/2000/svg"
   xmlns="http://www.w3.org/2000/svg"
   xmlns:sodipodi="http://sodipodi.sourceforge.net/DTD/sodipodi-0.dtd"
   xmlns:inkscape="http://www.inkscape.org/namespaces/inkscape"
   height="2048"
   width="2048"
   viewBox="-10 0 2048 2048"
   version="1.1"
   id="svg4"
   sodipodi:docname="000-004-059_part-15.svg"
   inkscape:version="1.0 (4035a4fb49, 2020-05-01)">
  <metadata
     id="metadata10">
    <rdf:RDF>
      <cc:Work
         rdf:about="">
        <dc:format>image/svg+xml</dc:format>
        <dc:type
           rdf:resource="http://purl.org/dc/dcmitype/StillImage" />
      </cc:Work>
    </rdf:RDF>
  </metadata>
  <defs
     id="defs8" />
  <sodipodi:namedview
     inkscape:document-rotation="0"
     pagecolor="#ffffff"
     bordercolor="#666666"
     borderopacity="1"
     objecttolerance="10"
     gridtolerance="10"
     guidetolerance="10"
     inkscape:pageopacity="0"
     inkscape:pageshadow="2"
     inkscape:window-width="1920"
     inkscape:window-height="1018"
     id="namedview6"
     showgrid="false"
     inkscape:zoom="0.18335945"
     inkscape:cx="600.44002"
     inkscape:cy="1079.9606"
     inkscape:window-x="-8"
     inkscape:window-y="-8"
     inkscape:window-maximized="1"
     inkscape:current-layer="svg4" />
  <path
     d="m 588.5,754 c 0,26.667 -18,40.6665 -27,41 -9,0.3335 -430.5,221 -430.5,221 -14,-118 -21,-205.333 -21,-262 0,-56.667 7,-144 21,-262 0,0 421.5,220.6665 430.5,221 9,0.3335 27,14.333 27,41 z m 0,540 c 0,26.667 -18,40.6665 -27,41 -9,0.3335 -430.5,221 -430.5,221 -14,-118 -21,-205.333 -21,-262 0,-56.667 7,-144 21,-262 0,0 421.5,220.6665 430.5,221 9,0.3335 27,14.333 27,41 z"
     fill="currentColor"
     id="path2"
     sodipodi:nodetypes="sscscsssscscss" />
</svg>
