<svg xmlns="http://www.w3.org/2000/svg" viewBox="0 0 132.821 138.906" height="52.5" width="50.2">
   <path d="M88.774 22.621H62.946c-3.465 3.813-8.19 9.532-14.332 17.331h-4.252v-17.33H18.69a361.008 361.008 0 00-14.174 17.33H.265V.265h3.78C4.831.61 9.713 6.33 18.69 16.902h25.67V.265h4.096c.787.346 5.512 6.065 14.489 16.637h25.828V.265h3.78c.63.346 5.512 6.065 14.646 16.637h25.356v5.72H107.2c-5.04 5.718-5.04 5.718-14.331 17.33h-4.095zM102.905 104.766l14.988 33.876-49.528-33.876H36.76l21.505 33.876-58-35.834 58-37.988L36.76 97.521h31.606l49.528-32.7-14.988 32.7h29.651v7.245zM.265 76.961V39.952l26.193 14.294h106.098v7.637H26.458z" />
</svg>