<svg xmlns="http://www.w3.org/2000/svg" viewBox="0 0 541.867 541.867" height="2048" width="2048">
   <path d="M62.177 510.117l-3.44-5.557q31.221-32.543 108.744-93.927 77.523-61.383 103.452-74.083 25.93 12.7 103.452 74.083 77.523 61.384 108.744 93.927l-3.44 5.557q-40.745-15.082-115.887-37.571-79.904-24.077-92.869-24.077-12.964 0-92.868 24.077-75.142 22.49-115.888 37.57zM415.925 37.57l-60.854 113.904c-1.012 1.96-3.528 6.615-10.583 6.615-7.056 0-9.572-4.656-10.584-6.615L273.05 37.571c32.808-3.88 56.62-5.821 71.438-5.821 14.816 0 38.629 1.94 71.437 5.82zm-147.108 0l-60.854 113.904c-1.012 1.96-3.528 6.615-10.584 6.615-7.055 0-9.572-4.656-10.583-6.615L125.942 37.571c32.808-3.88 56.62-5.821 71.437-5.821s38.63 1.94 71.438 5.82z" />
</svg>