<svg xmlns="http://www.w3.org/2000/svg" height="2048" width="2048" viewBox="-10 0 2048 2048">
   <path d="M1918 1813l-21 13c-82-78.667-200.333-215.667-355-411s-248-325.667-280-391c32-65.333 125.333-195.667 280-391s273-332.333 355-411l21 13c-38 102.667-85.333 248.667-142 438-60.667 201.333-91 318.333-91 351 0 32.667 30.333 149.667 91 351 56.667 189.333 104 335.333 142 438zm-520 0l-21 13c-82-78.667-200.333-215.667-355-411s-248-325.667-280-391c32-65.333 125.333-195.667 280-391s273-332.333 355-411l21 13c-38 102.667-85.333 248.667-142 438-60.667 201.333-91 318.333-91 351 0 32.667 30.333 149.667 91 351 56.667 189.333 104 335.333 142 438z" fill="currentColor" />
</svg>