<svg xmlns="http://www.w3.org/2000/svg" viewBox="0 0 541.867 541.867" height="2048" width="2048">
   <path d="M446.352 507.206l-4.498 2.91c-29.457-26.634-64.382-60.589-104.775-101.864-20.637-21.167-32.19-33.073-34.66-35.719-13.053-13.758-23.725-26.458-32.015-38.1 10.407-14.464 32.632-39.07 66.675-73.818 40.393-41.275 75.318-75.23 104.775-101.865l4.498 2.91c-10.23 26.635-18.962 49.919-26.194 69.85-11.994 32.632-18.168 49.566-18.52 50.8-6.703 19.58-11.466 36.954-14.288 52.123 3.351 18.168 14.287 52.476 32.808 102.923 7.232 19.932 15.963 43.215 26.194 69.85zm-174.625 0l-4.498 2.91c-29.457-26.634-64.382-60.589-104.775-101.864-20.637-21.167-32.19-33.073-34.66-35.719-13.053-13.758-23.725-26.458-32.015-38.1 10.407-14.464 32.632-39.07 66.675-73.818 40.393-41.275 75.318-75.23 104.775-101.865l4.498 2.91c-10.23 26.635-18.962 49.919-26.194 69.85-11.994 32.632-18.168 49.566-18.52 50.8-6.703 19.58-11.466 36.954-14.288 52.123 3.351 18.168 14.287 52.476 32.808 102.923 7.232 19.932 15.963 43.215 26.194 69.85zM489.48 37.57s-60.855 111.699-60.855 113.904c0 2.205-3.528 6.615-10.583 6.615-7.056 0-10.584-4.41-10.584-6.615S346.604 37.571 346.604 37.571c32.809-3.88 56.621-5.821 71.438-5.821 14.816 0 38.629 1.94 71.437 5.82zm-147.11 0s-60.853 111.699-60.853 113.904c0 2.205-3.528 6.615-10.584 6.615-7.055 0-10.583-4.41-10.583-6.615S199.496 37.571 199.496 37.571c32.808-3.88 56.62-5.821 71.437-5.821s38.63 1.94 71.438 5.82zm-147.107 0s-60.855 111.699-60.855 113.904c0 2.205-3.527 6.615-10.583 6.615s-10.583-4.41-10.583-6.615S52.388 37.571 52.388 37.571c32.808-3.88 56.62-5.821 71.437-5.821s38.63 1.94 71.438 5.82z" />
</svg>