<svg xmlns="http://www.w3.org/2000/svg" viewBox="0 0 541.867 541.867" height="2048" width="2048">
   <path d="M243.417 197.38c0 7.055-2.205 10.582-6.615 10.582l-76.994 4.763c-10.936.176-20.108 2.205-27.516 6.085L37.57 268.817c-3.88-32.809-5.821-56.621-5.821-71.438s1.94-38.629 5.82-71.437l94.722 50.006c7.408 3.88 16.58 5.909 27.516 6.085l76.994 4.763c4.41 0 6.615 3.528 6.615 10.583zm0 147.107c0 7.056-2.205 10.584-6.615 10.584l-76.994 4.762c-10.936.177-20.108 2.205-27.516 6.086L37.57 415.925c-3.88-32.808-5.821-56.62-5.821-71.438 0-14.816 1.94-38.629 5.82-71.437l94.722 50.006c7.408 3.88 16.58 5.91 27.516 6.086l76.994 4.762c4.41 0 6.615 3.528 6.615 10.584zM388.408 477.573l-5.556 3.44c-21.696-20.814-53.005-57.062-93.927-108.744-40.922-51.682-65.617-86.166-74.083-103.452 8.466-17.286 33.16-51.77 74.083-103.452 40.922-51.682 72.231-87.93 93.927-108.744l5.556 3.44c-10.054 27.163-22.577 65.793-37.57 115.887-16.052 53.27-24.078 84.226-24.078 92.869s8.026 39.6 24.078 92.868c14.993 50.095 27.516 88.724 37.57 115.888zM510.117 477.573l-5.557 3.44c-21.695-20.814-53.004-57.062-93.927-108.744-40.922-51.682-65.616-86.166-74.083-103.452 8.467-17.286 33.161-51.77 74.083-103.452 40.923-51.682 72.232-87.93 93.927-108.744l5.557 3.44c-10.055 27.163-22.578 65.793-37.571 115.887-16.052 53.27-24.077 84.226-24.077 92.869s8.025 39.6 24.077 92.868c14.993 50.095 27.517 88.724 37.57 115.888z" />
</svg>