<svg xmlns="http://www.w3.org/2000/svg" viewBox="0 0 541.867 541.867" height="2048" width="2048">
   <path d="M176.742 330.994l-48.948 93.133c-4.057 7.585-6.174 16.933-6.35 28.046l-1.059 46.037c-.176 5.998-4.498 8.996-12.964 8.996-8.467 0-12.788-2.998-12.965-8.996l-1.058-46.037c-.177-11.113-2.293-20.461-6.35-28.046L38.1 330.994c31.22-3.704 54.328-5.557 69.32-5.557 14.994 0 38.1 1.853 69.322 5.557zM214.842 254c0 8.643-2.47 12.965-7.409 12.965l-47.625 2.38c-10.936.177-20.108 2.206-27.516 6.086L37.57 325.438C33.69 292.629 31.75 268.817 31.75 254s1.94-38.63 5.82-71.438l94.722 50.007c7.408 3.88 16.58 5.909 27.516 6.085l47.625 2.381c4.94 0 7.409 4.322 7.409 12.965zM214.842 103.188c0 8.643-2.47 12.964-7.409 12.964l-47.625 2.381c-10.936.177-20.108 2.205-27.516 6.086L37.57 174.625c-3.88-32.808-5.821-56.62-5.821-71.438 0-14.816 1.94-38.629 5.82-71.437l94.722 50.006c7.408 3.88 16.58 5.91 27.516 6.086l47.625 2.38c4.94 0 7.409 4.322 7.409 12.965zM153.15 504.825l-2.956-5.557q26.829-32.543 93.445-93.927 66.616-61.383 88.897-74.083 22.282 12.7 88.898 74.083 66.616 61.384 93.445 93.927l-2.956 5.557q-35.013-15.082-99.583-37.57-68.663-24.078-79.804-24.078-11.14 0-79.802 24.077-64.57 22.49-99.584 37.57zM509.985 103.188c0 7.055-2.205 10.583-6.615 10.583l-144.066 4.762c-10.936.177-20.108 2.205-27.516 6.086l-94.721 50.006c-3.88-32.808-5.821-56.62-5.821-71.438 0-14.816 1.94-38.628 5.82-71.437l94.72 50.006c7.41 3.88 16.582 5.91 27.518 6.086l144.066 4.762c4.41 0 6.615 3.528 6.615 10.583zm0 147.108c0 7.055-2.205 10.583-6.615 10.583l-144.066 4.763c-10.936.176-20.108 2.204-27.516 6.085l-94.721 50.006c-3.88-32.808-5.821-56.62-5.821-71.437s1.94-38.63 5.82-71.438l94.722 50.007c7.408 3.88 16.58 5.908 27.516 6.085l144.066 4.763c4.41 0 6.615 3.528 6.615 10.583z" />
</svg>