<svg xmlns="http://www.w3.org/2000/svg" viewBox="0 0 541.867 541.867" height="2048" width="2048">
   <path d="M510.117 479.69l-5.557 3.44c-21.695-20.815-53.004-57.063-93.927-108.745-40.922-51.681-65.616-86.166-74.083-103.452 8.467-17.286 33.161-51.77 74.083-103.452 40.923-51.682 72.232-87.93 93.927-108.743l5.557 3.44c-10.055 27.163-22.578 65.792-37.571 115.887-16.052 53.269-24.077 84.225-24.077 92.868s8.025 39.6 24.077 92.87c14.993 50.093 27.517 88.723 37.57 115.887zm-137.584 0l-5.556 3.44c-21.696-20.815-53.005-57.063-93.927-108.745-40.922-51.681-65.617-86.166-74.083-103.452 8.466-17.286 33.16-51.77 74.083-103.452 40.922-51.682 72.231-87.93 93.927-108.744l5.556 3.44c-10.054 27.164-22.577 65.793-37.57 115.888-16.052 53.269-24.078 84.225-24.078 92.868s8.026 39.6 24.078 92.87c14.993 50.093 27.516 88.723 37.57 115.887zM158.089 123.825c0 7.056-4.41 10.583-6.615 10.583S37.571 195.263 37.571 195.263c-3.88-32.809-5.821-56.621-5.821-71.438s1.94-38.63 5.82-71.438c0 0 111.699 60.855 113.904 60.855 2.205 0 6.615 3.527 6.615 10.583zm0 147.108c0 7.056-4.41 10.584-6.615 10.584S37.571 342.37 37.571 342.37c-3.88-32.808-5.821-56.621-5.821-71.438 0-14.816 1.94-38.629 5.82-71.437 0 0 111.699 60.854 113.904 60.854 2.205 0 6.615 3.528 6.615 10.583zm0 147.109c0 7.055-5.513 10.583-6.615 10.583-1.102 0-113.903 60.854-113.903 60.854-1.94-16.404-5.821-56.62-5.821-71.437s1.94-38.63 5.82-71.438c0 0 111.699 60.854 113.904 60.854 2.205 0 6.615 3.528 6.615 10.584z" />
</svg>