<svg xmlns="http://www.w3.org/2000/svg" width="2048" height="2048" viewBox="0 0 541.867 541.867">
   <path d="M443.971 479.69l-5.557 3.44q-32.543-31.222-93.927-108.745-61.383-77.522-74.083-103.452 12.7-25.929 74.083-103.452 61.384-77.523 93.927-108.743l5.557 3.44q-15.082 40.745-37.57 115.887-24.078 79.904-24.078 92.868 0 12.965 24.077 92.87 22.49 75.14 37.57 115.887zM240.77 210.608l-50.005 94.721q-8.202 15.61-8.467 27.517l-2.381 145.785q0 6.615-10.583 6.615-10.584 0-10.584-6.615l-2.381-145.785q-.265-11.906-8.467-27.517L97.896 210.61q18.785-2.382 56.356-5.557l-.264-20.373q-.265-16.404-6.086-27.517L97.896 62.442q49.212-5.821 71.438-5.821 22.224 0 71.437 5.82l-50.006 94.721q-5.821 11.113-6.086 27.517l-.264 20.373q15.61.794 56.356 5.556z" />
</svg>