<svg xmlns="http://www.w3.org/2000/svg" viewBox="0 0 541.867 541.867" height="2048" width="2048">
   <path d="M170.392 37.306l-48.948 93.134c-4.057 7.76-6.174 17.11-6.35 28.045l-3.44 196.057c0 4.41-3.528 6.614-10.583 6.614-7.056 0-10.583-2.205-10.583-6.614l-3.44-196.057c-.177-10.936-2.293-20.284-6.35-28.045L31.75 37.306c31.22-3.704 54.328-5.556 69.32-5.556 14.994 0 38.1 1.852 69.322 5.556zM276.754 440.531c0 8.114-2.91 12.348-8.731 12.7-9.525.353-116.505.882-119.856 1.588-5.998 1.058-12.171 3.263-18.521 6.614L37.57 510.117c-3.88-32.632-5.821-55.827-5.821-69.586 0-13.758 1.94-36.953 5.82-69.585l92.076 48.683c8.996 4.763 122.15 7.497 138.377 8.202 5.82.353 8.731 4.586 8.731 12.7zM268.136 270.668c0 8.114-5.82 12.524-8.73 12.7-2.91.177-108.745 56.886-108.745 56.886-3.88-32.632-5.82-55.827-5.82-69.586 0-13.758 1.94-36.953 5.82-69.585 0 0 105.833 56.71 108.744 56.885 2.91.177 8.73 4.586 8.73 12.7zM375.708 37.571l-50.007 94.72c-3.88 7.409-5.91 16.58-6.085 27.517l-4.762 343.562c0 4.41-3.528 6.615-10.584 6.615-7.055 0-10.583-2.205-10.583-6.615l-4.763-343.562c-.176-10.936-2.204-20.108-6.085-27.516L232.833 37.57c32.808-3.881 56.62-5.821 71.437-5.821s38.63 1.94 71.438 5.82zM510.116 477.573l-5.556 3.44q-32.543-31.222-93.927-108.745-61.383-77.522-74.083-103.452 12.7-25.93 74.083-103.452Q472.016 87.84 504.56 56.62l5.557 3.44q-15.082 40.745-37.571 115.887-24.077 79.904-24.077 92.868 0 12.965 24.077 92.87 22.49 75.14 37.57 115.887z" />
</svg>