<svg xmlns="http://www.w3.org/2000/svg" viewBox="0 0 541.867 541.867" height="2048" width="2048">
   <path d="M515.408 479.69l-5.556 3.44q-32.543-31.222-93.927-108.745-61.383-77.522-74.083-103.452 12.7-25.93 74.083-103.452 61.383-77.523 93.927-108.743l5.557 3.44q-15.082 40.745-37.571 115.887-24.077 79.904-24.077 92.868 0 12.965 24.077 92.87 22.49 75.14 37.57 115.887zM396.875 62.442l-50.007 94.72c-3.88 7.409-5.91 16.58-6.085 27.517l-4.762 293.952c0 4.41-3.528 6.615-10.584 6.615-7.055 0-10.583-2.205-10.583-6.615l-4.763-293.952c-.176-10.936-2.204-20.108-6.085-27.516L254 62.442c32.808-3.881 56.62-5.821 71.437-5.821s38.63 1.94 71.438 5.82zm-88.37 189.705c0 8.114-5.822 12.524-8.732 12.7-2.91.177-108.744 56.886-108.744 56.886-3.88-32.632-5.82-55.827-5.82-69.586 0-13.758 1.94-36.953 5.82-69.584 0 0 105.833 56.708 108.744 56.884 2.91.177 8.73 4.586 8.73 12.7zm-125.413-148.96c0 8.644-2.47 12.965-7.409 12.965l-21.166 2.381c-10.936.177-20.109 2.205-27.517 6.086l-94.72 50.006c-3.881-32.808-5.822-56.62-5.822-71.438 0-14.816 1.94-38.629 5.821-71.437L127 81.756c7.408 3.88 16.58 5.91 27.517 6.086l21.166 2.38c4.94 0 7.409 4.322 7.409 12.965zm0 150.813c0 8.643-2.47 12.965-7.409 12.965l-21.166 2.38c-10.936.177-20.109 2.206-27.517 6.086l-94.72 50.007c-3.881-32.809-5.822-56.621-5.822-71.438s1.94-38.63 5.821-71.438L127 232.57c7.408 3.88 16.58 5.909 27.517 6.085l21.166 2.381c4.94 0 7.409 4.322 7.409 12.965zm20.108 76.994l-48.948 93.133c-4.057 7.585-6.173 16.933-6.35 28.046l-1.058 46.037c-.177 5.998-4.498 8.996-12.965 8.996-8.466 0-12.788-2.998-12.964-8.996l-1.059-46.037c-.176-11.113-2.293-20.461-6.35-28.046l-48.948-93.133c31.221-3.704 54.328-5.557 69.321-5.557 14.993 0 38.1 1.853 69.321 5.557z" />
</svg>