<svg xmlns="http://www.w3.org/2000/svg" viewBox="0 0 541.867 541.867" height="2048" width="2048">
   <path d="M174.625 210.608l-50.006 94.721q-8.202 15.61-8.467 27.517l-2.381 145.785q0 6.615-10.583 6.615-10.584 0-10.584-6.615l-2.381-145.785q-.265-11.906-8.467-27.517L31.75 210.61q18.785-2.382 56.356-5.557l-.264-20.373q-.265-16.404-6.086-27.516L31.75 62.442q49.212-5.821 71.438-5.821 22.224 0 71.437 5.82l-50.006 94.722q-5.821 11.112-6.086 27.516l-.264 20.373q15.61.794 56.356 5.556zM367.355 199.496c0 7.055-2.205 10.583-6.615 10.583l-50.535 1.852c-8.996.177-18.345 2.822-28.046 7.938l-93.133 48.948c-3.704-31.221-5.556-54.328-5.556-69.321 0-14.993 1.852-38.1 5.556-69.321l93.133 48.948c9.701 5.115 19.05 7.761 28.046 7.937l50.535 1.852c4.41 0 6.615 3.528 6.615 10.584zm0 142.875c0 7.055-2.205 10.583-6.615 10.583l-50.535 1.852c-8.996.177-18.345 2.822-28.046 7.938l-93.133 48.948c-3.704-31.221-5.556-54.328-5.556-69.321 0-14.993 1.852-38.1 5.556-69.321l93.133 48.948c9.701 5.115 19.05 7.761 28.046 7.937l50.535 1.853c4.41 0 6.615 3.527 6.615 10.583zM510.117 479.69l-5.557 3.44q-32.543-31.222-93.927-108.745-61.383-77.522-74.083-103.452 12.7-25.929 74.083-103.452 61.384-77.523 93.927-108.743l5.557 3.44q-15.082 40.745-37.571 115.887-24.077 79.904-24.077 92.868 0 12.965 24.077 92.87 22.49 75.14 37.57 115.887z" />
</svg>