<svg xmlns="http://www.w3.org/2000/svg" width="2048" height="2048" viewBox="0 0 541.867 541.867">
   <path d="M504.826 533.31l-5.557 4.324q-32.543-39.242-93.927-136.677-61.383-97.434-74.083-130.025 12.7-32.589 74.083-130.024 61.384-97.436 93.927-136.675l5.557 4.324q-15.082 51.21-37.571 145.653-24.077 100.428-24.077 116.722 0 16.295 24.077 116.725 22.49 94.44 37.57 145.653zM187.854 11.477l-50.006 117.874q-5.82 13.83-6.086 34.244L127 529.402q0 8.232-10.583 8.232-10.584 0-10.584-8.232l-4.762-365.806q-.265-20.414-6.086-34.244L44.98 11.477q49.212-7.244 71.438-7.244 22.224 0 71.437 7.243zm147.108 0l-50.006 117.874q-5.82 13.83-6.085 34.244l-4.763 365.807q0 8.232-10.583 8.232t-10.583-8.232l-4.762-365.806q-.265-20.414-6.085-34.244L192.088 11.478q49.213-7.243 71.438-7.243t71.437 7.242zM687.76 102.241c-35.538 11.176-71.228 21.893-106.665 33.369-11.293 3.474-20.1 11.362-28.164 19.612-12.294 11.748-24.347 23.77-36.794 35.345-7.499 2.935-19.261-8.797-13.752-15.942 14.793-15.443 29.856-30.64 44.476-46.242 10.693-13.964 13.552-31.712 19.187-47.973l23.693-76.177c26.472 20.966 53.15 42.212 74.3 68.786 8.086 9.593 15.95 19.37 23.718 29.222z" />
</svg>