<svg xmlns="http://www.w3.org/2000/svg" viewBox="0 0 541.867 541.867" height="2048" width="2048">
   <path d="M158.353 199.496c0 7.055-4.762 10.76-7.144 10.848-2.38.088-113.903 58.473-113.903 58.473-3.704-31.221-5.556-54.328-5.556-69.321 0-14.993 1.852-38.1 5.556-69.321 0 0 111.522 58.385 113.903 58.473 2.382.088 7.144 3.792 7.144 10.848zm0 142.875c0 7.055-4.762 10.76-7.144 10.848-2.38.088-113.903 58.473-113.903 58.473-3.704-31.221-5.556-54.328-5.556-69.321 0-14.993 1.852-38.1 5.556-69.321 0 0 111.522 58.385 113.903 58.473 2.382.088 7.144 3.792 7.144 10.848zM510.117 479.69l-5.557 3.44q-32.543-31.222-93.927-108.745-61.383-77.522-74.083-103.452 12.7-25.929 74.083-103.452 61.384-77.523 93.927-108.743l5.557 3.44q-15.082 40.745-37.571 115.887-24.077 79.904-24.077 92.868 0 12.965 24.077 92.87 22.49 75.14 37.57 115.887z" />
</svg>