<?xml version="1.0" encoding="UTF-8" standalone="no"?>
<svg
   xmlns:dc="http://purl.org/dc/elements/1.1/"
   xmlns:cc="http://creativecommons.org/ns#"
   xmlns:rdf="http://www.w3.org/1999/02/22-rdf-syntax-ns#"
   xmlns:svg="http://www.w3.org/2000/svg"
   xmlns="http://www.w3.org/2000/svg"
   xmlns:sodipodi="http://sodipodi.sourceforge.net/DTD/sodipodi-0.dtd"
   xmlns:inkscape="http://www.inkscape.org/namespaces/inkscape"
   sodipodi:docname="000-004-061_pe.svg"
   inkscape:version="1.0 (4035a4fb49, 2020-05-01)"
   id="svg841"
   version="1.1"
   viewBox="0 0 541.86665 541.86668"
   height="2048"
   width="2048">
  <defs
     id="defs835" />
  <sodipodi:namedview
     inkscape:window-maximized="1"
     inkscape:window-y="-8"
     inkscape:window-x="-8"
     inkscape:window-height="1018"
     inkscape:window-width="1920"
     units="px"
     showgrid="false"
     inkscape:document-rotation="0"
     inkscape:current-layer="layer1"
     inkscape:document-units="px"
     inkscape:cy="1045.7143"
     inkscape:cx="1085.7143"
     inkscape:zoom="0.35"
     inkscape:pageshadow="2"
     inkscape:pageopacity="0.0"
     borderopacity="1.0"
     bordercolor="#666666"
     pagecolor="#ffffff"
     id="base" />
  <metadata
     id="metadata838">
    <rdf:RDF>
      <cc:Work
         rdf:about="">
        <dc:format>image/svg+xml</dc:format>
        <dc:type
           rdf:resource="http://purl.org/dc/dcmitype/StillImage" />
        <dc:title></dc:title>
      </cc:Work>
    </rdf:RDF>
  </metadata>
  <g
     id="layer1"
     inkscape:groupmode="layer"
     inkscape:label="图层 1">
    <path
       id="path1482"
       d="m 164.17396,183.88541 -48.94792,93.13334 c -4.05686,7.76102 -6.17352,17.10981 -6.35,28.04583 l -3.43958,196.05625 c 0,4.40981 -3.52769,6.61458 -10.583339,6.61458 -7.05564,0 -10.58333,-2.20477 -10.58333,-6.61458 l -3.43958,-196.05625 c -0.17648,-10.93602 -2.29315,-20.28481 -6.35,-28.04583 l -48.94792,-93.13334 c 31.22083,-3.70416 54.32769,-5.55625 69.32083,-5.55625 14.993149,0 38.099999,1.85209 69.320839,5.55625 z"
       style="stroke-width:1" />
    <path
       id="path1480"
       d="m 165.23229,103.98125 c 0,8.11397 -2.91042,12.34731 -8.73125,12.7 -9.525,0.35269 -15.96311,0.88185 -19.31458,1.5875 -5.99731,1.05833 -12.17084,3.2631 -18.52084,6.61458 l -92.074999,48.68333 c -3.880639,-32.63185 -5.820829,-55.82708 -5.820829,-69.58541 0,-13.758337 1.94019,-36.953557 5.820829,-69.585417 l 92.074999,48.68333 c 8.99584,4.7625 21.60773,7.49644 37.83542,8.20209 5.82083,0.35269 8.73125,4.58602 8.73125,12.699997 z"
       style="stroke-width:1;fill:#ff0000;fill-opacity:1" />
    <path
       id="path1494"
       d="m 113.27929,510.11669 -3.44,-5.55699 q 31.22098,-32.54298 108.74393,-93.92695 77.52295,-61.38294 103.45193,-74.08294 25.92999,12.7 103.45193,74.08294 77.52297,61.38397 108.74393,93.92695 l -3.43998,5.55699 q -40.74498,-15.08199 -115.88694,-37.57096 -79.90394,-24.07698 -92.86894,-24.07698 -12.96399,0 -92.86794,24.07698 -75.14195,22.48998 -115.88792,37.56998 z"
       style="stroke-width:1" />
    <path
       id="path1499"
       d="m 525.76473,250.29586 c 0,7.05533 -2.205,10.583 -6.615,10.583 l -219.86848,4.76299 c -10.93599,0.176 -20.10799,2.20433 -27.51598,6.085 l -94.72094,50.00598 c -3.88067,-32.80799 -5.821,-56.62031 -5.821,-71.43697 0,-14.81665 1.94,-38.6293 5.82,-71.43795 l 94.72194,50.00697 c 7.40799,3.87999 16.57999,5.90832 27.51598,6.08499 l 219.86848,4.763 c 4.41,0 6.615,3.52766 6.615,10.58299 z"
       style="stroke-width:1" />
    <path
       id="path2"
       d="m 525.76473,103.18795 c 0,7.05533 -2.205,10.583 -6.615,10.583 l -219.86848,4.762 c -10.93599,0.17666 -20.10799,2.20532 -27.51598,6.08599 l -94.72094,50.00597 c -3.88067,-32.80798 -5.821,-56.62063 -5.821,-71.43796 0,-14.815989 1.94,-38.628305 5.82,-71.43695 l 94.72094,50.005967 c 7.40866,3.88066 16.58099,5.909323 27.51698,6.08599 l 219.86848,4.762 c 4.41,0 6.615,3.527664 6.615,10.582993 z"
       style="stroke-width:1;fill:#0000ff;fill-opacity:1" />
  </g>
</svg>
