<svg xmlns="http://www.w3.org/2000/svg" viewBox="0 0 541.867 541.867" height="2048" width="2048">
   <path d="M174.625 210.608l-50.006 94.721q-8.202 15.61-8.467 27.517l-2.381 145.785q0 6.615-10.583 6.615-10.584 0-10.584-6.615l-2.381-145.785q-.265-11.906-8.467-27.517L31.75 210.61q18.785-2.382 56.356-5.557l-.264-20.373q-.265-16.404-6.086-27.517L31.75 62.442q49.212-5.821 71.438-5.821 22.224 0 71.437 5.82l-50.006 94.721q-5.821 11.113-6.086 27.517l-.264 20.373q15.61.794 56.356 5.556zM352.085 499.798l-4.498 2.91c-29.457-26.634-64.382-60.59-104.775-101.864-20.638-21.167-32.191-33.073-34.66-35.719-13.053-13.758-23.725-26.458-32.015-38.1 10.407-14.464 32.632-39.07 66.675-73.819 40.393-41.275 75.318-75.23 104.775-101.864l4.498 2.91c-10.231 26.635-18.962 49.918-26.194 69.85-11.994 32.632-18.168 49.565-18.521 50.8-6.703 19.58-11.465 36.954-14.287 52.123 3.351 18.168 14.287 52.476 32.808 102.923 7.232 19.932 15.963 43.215 26.194 69.85zM510.117 499.798l-4.498 2.91c-29.457-26.634-64.382-60.59-104.775-101.864-20.638-21.167-32.191-33.073-34.66-35.719-13.053-13.758-23.725-26.458-32.015-38.1 10.407-14.464 32.632-39.07 66.675-73.819 40.393-41.275 75.318-75.23 104.775-101.864l4.498 2.91c-10.231 26.635-18.962 49.918-26.194 69.85-11.994 32.632-18.168 49.565-18.52 50.8-6.704 19.58-11.466 36.954-14.288 52.123 3.351 18.168 14.287 52.476 32.808 102.923 7.232 19.932 15.963 43.215 26.194 69.85zM510.117 111.125c0 7.408-2.293 11.113-6.88 11.113l-167.292 4.233c-10.936.176-20.108 2.205-27.517 6.085l-94.72 50.006c-3.881-32.808-5.821-56.62-5.821-71.437s1.94-38.63 5.82-71.438l94.721 50.007c7.409 3.88 16.581 5.909 27.517 6.085l167.292 4.233c4.587 0 6.88 3.705 6.88 11.113z" />
</svg>