<svg xmlns="http://www.w3.org/2000/svg" viewBox="0 0 541.867 541.867" height="2048" width="2048">
   <path d="M510.117 75.671c0 7.408-2.293 11.113-6.88 11.113l-167.291 4.233c-10.936.176-20.109 2.205-27.517 6.085l-94.72 50.006c-3.882-32.808-5.822-56.62-5.822-71.437s1.94-38.63 5.821-71.438l94.72 50.007c7.41 3.88 16.582 5.91 27.518 6.085l167.291 4.233c4.587 0 6.88 3.705 6.88 11.113zm-3.175 449.99l-4.437 3.506c-29.058-32.09-63.51-73-103.357-122.728-20.359-25.502-31.755-39.847-34.191-43.035-12.876-16.576-23.404-31.877-31.582-45.904 10.266-17.426 32.19-47.072 65.773-88.939 39.846-49.729 74.299-90.638 103.357-122.728l4.437 3.506c-10.093 32.09-18.705 60.143-25.84 84.157-11.831 39.316-17.922 59.717-18.269 61.205-6.613 23.59-11.31 44.523-14.095 62.8 3.306 21.888 14.094 63.223 32.364 124.003 7.135 24.015 15.747 52.067 25.84 84.157zm-142.875 0l-4.436 3.506c-29.059-32.09-63.511-73-103.358-122.728-20.359-25.502-31.755-39.847-34.191-43.035-12.877-16.576-23.404-31.877-31.582-45.904 10.265-17.426 32.19-47.072 65.773-88.939 39.847-49.729 74.3-90.638 103.358-122.728l4.436 3.506c-10.092 32.09-18.705 60.143-25.839 84.157-11.833 39.316-17.922 59.717-18.27 61.205-6.613 23.59-11.31 44.523-14.095 62.8 3.307 21.888 14.095 63.223 32.365 124.003 7.134 24.015 15.747 52.067 25.839 84.157zM174.625 11.478L124.62 129.352q-4.498 10.208-5.82 27.328 17.197.99 54.503 6.587L123.296 281.14q-6.35 14.818-6.88 36.22 14.024.658 55.563 6.914l-50.006 117.874q-7.144 17.122-7.408 28.975l-.794 58.279q0 8.232-10.583 8.232-10.584 0-10.584-8.232l-.794-58.279q-.264-11.853-7.408-28.974L34.396 324.274q18.52-2.963 55.562-6.914-.529-21.402-6.879-36.22L33.073 163.267q18.256-2.635 54.504-6.586-1.323-17.12-5.82-27.328L31.75 11.477q49.212-7.244 71.438-7.244 22.224 0 71.437 7.243zM698.59 102.241c-35.538 11.176-71.228 21.893-106.665 33.369-11.293 3.474-20.1 11.362-28.164 19.612-12.294 11.748-24.347 23.77-36.794 35.345-7.499 2.935-19.26-8.797-13.752-15.942 14.793-15.443 29.856-30.64 44.476-46.242 10.693-13.964 13.552-31.712 19.188-47.973L600.57 4.233c26.472 20.966 53.15 42.212 74.3 68.786 8.086 9.593 15.95 19.37 23.718 29.222z" />
</svg>