<svg xmlns="http://www.w3.org/2000/svg" width="2048" height="2048" viewBox="0 0 541.867 541.867">
   <path d="M396.875 533.31l-5.081 4.324c-19.844-26.162-48.48-71.72-85.91-136.677-37.429-64.956-60.016-108.299-67.759-130.025 7.743-21.726 30.33-65.067 67.76-130.024C343.312 75.95 371.95 30.392 391.793 4.233l5.081 4.324c-9.196 34.14-20.65 82.691-34.363 145.653-14.681 66.952-22.022 105.86-22.022 116.722 0 10.863 7.34 49.772 22.021 116.725 13.714 62.96 25.168 111.512 34.364 145.653zM510.117 533.31l-5.083 4.324c-19.843-26.162-48.479-71.72-85.908-136.677-37.429-64.956-60.015-108.299-67.76-130.025 7.745-21.726 30.331-65.067 67.76-130.024C456.556 75.95 485.19 30.392 505.034 4.233l5.083 4.324c-9.197 34.14-20.65 82.691-34.364 145.653-14.681 66.952-22.021 105.86-22.021 116.722 0 10.863 7.34 49.772 22.021 116.725 13.713 62.96 25.168 111.512 34.363 145.653zM316.573 468.048c0 7.082-2.204 10.624-6.614 10.624l-151.473 3.453c-11.113.176-20.462 2.301-28.046 6.374l-93.134 49.135c-3.704-31.34-5.556-54.536-5.556-69.586 0-15.05 1.852-38.245 5.556-69.585l93.134 49.134c7.584 4.073 16.933 6.197 28.045 6.375l151.474 3.453c4.41 0 6.615 3.54 6.615 10.623zM283.104 9.79L239.4 102.922c-3.622 7.76-5.512 17.11-5.669 28.045l-3.071 270.14c0 4.41-3.15 6.615-9.45 6.615-6.3 0-9.449-2.205-9.449-6.614l-3.071-270.14c-.158-10.937-2.047-20.285-5.67-28.046L159.317 9.79c27.875-3.704 48.507-5.556 61.893-5.556 13.387 0 34.018 1.852 61.894 5.556zm-127.567 0l-43.702 93.133c-3.622 7.76-5.512 17.11-5.67 28.045l-3.07 270.14c0 4.41-3.15 6.615-9.45 6.615-6.3 0-9.45-2.205-9.45-6.614l-3.07-270.14c-.159-10.937-2.049-20.285-5.67-28.046L31.75 9.79c27.876-3.704 48.508-5.556 61.893-5.556 13.387 0 34.019 1.852 61.894 5.556z" />
</svg>