<svg xmlns="http://www.w3.org/2000/svg" viewBox="0 0 541.867 541.867" height="2048" width="2048">
   <path d="M174.624 10.726L124.62 116.372c-2.999 6.1-4.939 14.264-5.82 24.494 11.464.592 29.632 2.558 54.503 5.903l-50.006 105.646c-4.233 8.854-6.527 19.675-6.88 32.463 9.35.393 27.87 2.459 55.563 6.197L121.973 396.72c-4.763 10.231-7.232 18.888-7.408 25.97l-.794 107.566c0 4.918-3.528 7.377-10.583 7.377-7.056 0-10.584-2.459-10.584-7.377L91.81 422.69c-.176-7.083-2.645-15.739-7.408-25.969L34.396 291.075c12.347-1.77 30.867-3.837 55.562-6.197-.353-12.788-2.647-23.609-6.88-32.462L33.074 146.77c12.17-1.574 30.339-3.541 54.504-5.903-.882-10.23-2.822-18.394-5.82-24.493L31.75 10.726c32.809-4.328 56.621-6.493 71.438-6.493s38.63 2.164 71.437 6.492zM510.117 534.566l-4.437 3.068c-29.058-28.078-63.51-63.874-103.357-107.387-20.358-22.315-31.754-34.867-34.191-37.656-12.876-14.504-23.404-27.893-31.582-40.166 10.266-15.248 32.19-41.188 65.773-77.82 39.846-43.513 74.299-79.31 103.357-107.388l4.437 3.068c-10.092 28.079-18.705 52.626-25.84 73.637-11.831 34.401-17.922 52.253-18.269 53.554-6.612 20.642-11.31 38.958-14.094 54.95 3.304 19.152 14.093 55.32 32.363 108.503 7.135 21.012 15.747 45.558 25.84 73.637zM358.775 534.566l-4.437 3.068c-29.058-28.078-63.51-63.874-103.357-107.387-20.358-22.315-31.754-34.867-34.19-37.656-12.877-14.504-23.405-27.893-31.583-40.166 10.267-15.248 32.19-41.188 65.773-77.82 39.846-43.513 74.299-79.31 103.357-107.388l4.437 3.068c-10.091 28.079-18.705 52.626-25.84 73.637-11.831 34.401-17.921 52.253-18.269 53.554-6.612 20.642-11.31 38.958-14.094 54.95 3.305 19.152 14.093 55.32 32.364 108.503 7.134 21.012 15.747 45.558 25.84 73.637zM509.985 75.671c0 7.055-2.205 10.583-6.615 10.583l-47.228 2.381c-7.937.177-17.11 3-27.517 8.467l-94.72 50.006c-1.588-12.523-3.44-31.309-5.557-56.356l-20.373.264c-10.936.177-20.108 2.205-27.517 6.086l-94.72 50.006c-3.88-32.808-5.821-56.62-5.821-71.438 0-14.817 1.94-38.629 5.82-71.437l94.72 50.006c7.41 3.88 16.582 5.91 27.518 6.086l20.373.264c.53-10.407 2.38-29.192 5.556-56.356l94.72 50.006c10.408 5.468 19.58 8.29 27.518 8.467l47.228 2.381c4.41 0 6.615 3.528 6.615 10.583zM728.663 102.241c-35.537 11.176-71.227 21.893-106.665 33.369-11.292 3.474-20.1 11.362-28.163 19.612-12.295 11.748-24.347 23.77-36.795 35.345-7.498 2.935-19.26-8.797-13.751-15.942 14.793-15.443 29.855-30.64 44.476-46.242 10.692-13.964 13.551-31.712 19.187-47.973l23.693-76.177c26.472 20.966 53.15 42.212 74.3 68.786 8.086 9.593 15.95 19.37 23.718 29.222z" />
</svg>