<svg xmlns="http://www.w3.org/2000/svg" viewBox="0 0 541.867 541.867" height="2048" width="2048">
   <path d="M415.925 37.57l-60.854 113.904c-1.012 1.96-3.528 6.615-10.583 6.615-7.056 0-9.572-4.656-10.584-6.615L273.05 37.571c32.808-3.88 56.62-5.821 71.438-5.821 14.816 0 38.629 1.94 71.437 5.82zm-147.108 0l-60.854 113.904c-1.012 1.96-3.528 6.615-10.584 6.615-7.055 0-9.572-4.656-10.583-6.615L125.942 37.571c32.808-3.88 56.62-5.821 71.437-5.821s38.63 1.94 71.438 5.82zM62.177 510.117l-3.44-5.557c20.814-21.695 57.062-53.004 108.744-93.927 51.682-40.922 86.166-65.616 103.452-74.083 17.286 8.467 51.77 33.161 103.452 74.083 51.682 40.923 87.93 72.232 108.744 93.927l-3.44 5.557c-27.163-10.055-65.793-22.578-115.887-37.571-53.27-16.052-84.226-24.077-92.869-24.077s-39.6 8.025-92.868 24.077c-50.095 14.993-88.724 27.517-115.888 37.57zm0-137.584l-3.44-5.556c20.814-21.696 57.062-53.005 108.744-93.927 51.682-40.922 86.166-65.617 103.452-74.083 17.286 8.466 51.77 33.16 103.452 74.083 51.682 40.922 87.93 72.231 108.744 93.927l-3.44 5.556c-27.163-10.054-65.793-22.577-115.887-37.57-53.27-16.052-84.226-24.078-92.869-24.078s-39.6 8.026-92.868 24.078c-50.095 14.993-88.724 27.516-115.888 37.57z" />
</svg>