<svg xmlns="http://www.w3.org/2000/svg" viewBox="0 0 541.867 541.867" height="2048" width="2048">
   <path d="M462.492 538.435l-5.557 3.432q-32.543-31.144-93.927-108.474-61.383-77.328-74.083-103.194 12.7-25.864 74.083-103.194 61.384-77.33 93.927-108.472l5.557 3.432q-15.082 40.643-37.57 115.598-24.078 79.704-24.078 92.636 0 12.933 24.077 92.639 22.49 74.952 37.57 115.597zM174.624 124.283l-50.005 93.55q-4.498 8.102-5.821 21.69 17.198.784 54.504 5.227l-50.006 93.55q-6.35 11.76-6.88 28.747 14.024.522 55.563 5.487l-50.006 93.55q-7.144 13.59-7.408 22.997l-.794 46.253q0 6.532-10.583 6.532-10.584 0-10.584-6.532l-.794-46.253q-.264-9.408-7.408-22.996l-50.006-93.551q18.52-2.352 55.562-5.488-.53-16.986-6.88-28.745L33.074 244.75q18.256-2.091 54.504-5.227-1.323-13.587-5.82-21.689L31.75 124.283q49.213-5.75 71.438-5.75t71.437 5.749zM315.912 124.283l-50.005 93.55q-4.498 8.102-5.821 21.69 17.198.784 54.504 5.227l-50.006 93.55q-6.35 11.76-6.88 28.747 14.024.522 55.563 5.487l-50.006 93.55q-7.144 13.59-7.408 22.997l-.794 46.253q0 6.532-10.583 6.532-10.584 0-10.584-6.532l-.794-46.253q-.264-9.408-7.408-22.996l-50.006-93.551q18.52-2.352 55.562-5.488-.53-16.986-6.88-28.745l-50.004-93.551q18.256-2.091 54.504-5.227-1.323-13.587-5.82-21.689l-50.008-93.551q49.213-5.75 71.438-5.75t71.437 5.749z" />
</svg>