<?xml version="1.0" encoding="UTF-8" standalone="no"?>
<svg
   xmlns:dc="http://purl.org/dc/elements/1.1/"
   xmlns:cc="http://creativecommons.org/ns#"
   xmlns:rdf="http://www.w3.org/1999/02/22-rdf-syntax-ns#"
   xmlns:svg="http://www.w3.org/2000/svg"
   xmlns="http://www.w3.org/2000/svg"
   xmlns:sodipodi="http://sodipodi.sourceforge.net/DTD/sodipodi-0.dtd"
   xmlns:inkscape="http://www.inkscape.org/namespaces/inkscape"
   sodipodi:docname="000-004-061_hya.svg"
   inkscape:version="1.0 (4035a4fb49, 2020-05-01)"
   id="svg841"
   version="1.1"
   viewBox="0 0 541.86665 541.86668"
   height="2048"
   width="2048">
  <defs
     id="defs835" />
  <sodipodi:namedview
     inkscape:window-maximized="1"
     inkscape:window-y="-8"
     inkscape:window-x="-8"
     inkscape:window-height="1018"
     inkscape:window-width="1920"
     units="px"
     showgrid="false"
     inkscape:document-rotation="0"
     inkscape:current-layer="layer1"
     inkscape:document-units="px"
     inkscape:cy="1045.7143"
     inkscape:cx="1200"
     inkscape:zoom="0.35"
     inkscape:pageshadow="2"
     inkscape:pageopacity="0.0"
     borderopacity="1.0"
     bordercolor="#666666"
     pagecolor="#ffffff"
     id="base" />
  <metadata
     id="metadata838">
    <rdf:RDF>
      <cc:Work
         rdf:about="">
        <dc:format>image/svg+xml</dc:format>
        <dc:type
           rdf:resource="http://purl.org/dc/dcmitype/StillImage" />
        <dc:title></dc:title>
      </cc:Work>
    </rdf:RDF>
  </metadata>
  <g
     id="layer1"
     inkscape:groupmode="layer"
     inkscape:label="图层 1">
    <path
       id="path1492"
       d="m 146.05,181.23958 -48.94792,93.13334 c -4.05685,7.76102 -6.17351,17.10981 -6.34999,28.04583 L 87.31249,498.475 c 0,4.40981 -3.52768,6.61458 -10.58333,6.61458 -7.055637,0 -10.583327,-2.20477 -10.583327,-6.61458 l -3.43959,-196.05625 c -0.17647,-10.93602 -2.29314,-20.28481 -6.34999,-28.04583 L 7.4083333,181.23958 c 31.2208297,-3.70416 54.3276897,-5.55625 69.3208267,-5.55625 14.99316,0 38.1,1.85209 69.32084,5.55625 z"
       style="stroke-width:1" />
    <path
       id="path1490"
       d="m 287.86669,181.23958 -48.94792,93.13334 c -4.05686,7.76102 -6.17352,17.10981 -6.35,28.04583 L 229.12919,498.475 c 0,4.40981 -3.52769,6.61458 -10.58334,6.61458 -7.05564,0 -10.58333,-2.20477 -10.58333,-6.61458 l -3.43958,-196.05625 c -0.17648,-10.93602 -2.29315,-20.28481 -6.35,-28.04583 l -48.94792,-93.13334 c 31.22083,-3.70416 54.32769,-5.55625 69.32083,-5.55625 14.99315,0 38.1,1.85209 69.32084,5.55625 z"
       style="stroke-width:1" />
    <path
       id="path1488"
       d="m 147.10833,101.33542 c 0,8.11397 -2.91042,12.34731 -8.73125,12.7 -9.525,0.35269 -15.96311,0.88185 -19.31458,1.5875 -5.99731,1.05833 -12.17084,3.2631 -18.52084,6.61458 L 8.4666633,170.92083 c -3.88064,-32.63185 -5.82083,-55.82708 -5.82083,-69.58541 0,-13.758337 1.94019,-36.953564 5.82083,-69.58542 L 100.54166,80.433333 c 8.99584,4.7625 21.60773,7.49644 37.83542,8.202083 5.82083,0.35269 8.73125,4.586023 8.73125,12.700004 z"
       style="stroke-width:1;fill:#000000;fill-opacity:1" />
    <path
       id="path1486"
       d="m 292.62919,101.33542 c 0,8.11397 -2.91042,12.34731 -8.73125,12.7 -9.525,0.35269 -15.96311,0.88185 -19.31459,1.5875 -5.99731,1.05833 -12.17083,3.2631 -18.52083,6.61458 l -92.075,48.68333 c -3.88064,-32.63185 -5.82083,-55.82708 -5.82083,-69.58541 0,-13.758337 1.94019,-36.953564 5.82083,-69.58542 l 92.075,48.683333 c 8.99583,4.7625 21.60773,7.49644 37.83542,8.202083 5.82083,0.35269 8.73125,4.586023 8.73125,12.700004 z"
       style="stroke-width:1;fill:#000000;fill-opacity:1" />
    <path
       sodipodi:nodetypes="ccccsccccccccscccccc"
       id="path1527"
       d="m 430.21151,180.71008 -50.00496,94.72094 c -5.468,10.40666 -8.29033,19.57898 -8.467,27.51697 l -2.381,198.17263 c 0,4.41 -3.52766,6.615 -10.58299,6.615 -7.05599,0 -10.58399,-2.205 -10.58399,-6.615 l -2.381,-198.17263 c -0.17667,-7.93732 -2.999,-17.10964 -8.467,-27.51697 L 287.3376,180.71208 c 12.52333,-1.58799 31.30865,-3.44032 56.35597,-5.55699 l -0.264,-15.34617 c -0.17667,-10.93599 -2.20533,-20.10832 -6.086,-27.51698 L 287.3376,37.571 c 32.80798,-3.880667 56.62063,-5.821 71.43796,-5.821 14.81599,0 38.6283,1.94 71.43695,5.82 l -50.00596,94.72094 c -3.88067,7.40866 -5.90933,16.58099 -6.086,27.51698 l -0.264,15.34617 c 10.40666,0.52933 29.19198,2.38133 56.35596,5.55599 z"
       style="stroke-width:1" />
    <path
       id="path2"
       d="m 528.68679,479.68955 -4.40652,3.44001 Q 498.47472,451.90759 449.7992,374.38462 401.12447,296.86268 391.05378,270.93269 401.12447,245.00371 449.7992,167.48076 498.47472,89.957813 524.28027,58.737833 l 4.40652,3.44 q -11.95954,40.744967 -29.7918,115.886917 -19.09307,79.90395 -19.09307,92.86794 0,12.965 19.09227,92.86994 17.83385,75.13995 29.7918,115.88692 z"
       style="stroke-width:0.890488" />
  </g>
</svg>
