<svg xmlns="http://www.w3.org/2000/svg" viewBox="0 0 541.867 541.867" height="2048" width="2048">
   <path d="M509.985 270.934c0 7.055-2.205 10.583-6.615 10.583l-163.645 4.763c-10.936.176-20.108 2.204-27.516 6.085l-94.721 50.006c-3.881-32.808-5.821-56.62-5.821-71.437s1.94-38.63 5.82-71.438l94.722 50.007c7.408 3.88 16.58 5.908 27.516 6.085l163.645 4.763c4.41 0 6.615 3.528 6.615 10.583zM509.985 75.671c0 7.055-2.205 10.583-6.615 10.583l-163.645 4.762c-10.936.177-20.108 2.205-27.516 6.086l-94.721 50.006c-3.881-32.808-5.821-56.62-5.821-71.438 0-14.816 1.94-38.628 5.82-71.437l94.72 50.006c7.41 3.88 16.582 5.91 27.518 6.086l163.645 4.762c4.41 0 6.615 3.528 6.615 10.583zM142.703 537.634l-3.003-5.557c18.166-21.695 49.805-53.004 94.914-93.927 45.108-40.922 75.207-65.616 90.294-74.083 15.088 8.467 45.186 33.16 90.295 74.083 45.108 40.923 76.748 72.232 94.914 93.927l-3.003 5.557c-23.708-10.055-57.424-22.578-101.148-37.571-46.494-16.051-73.514-24.077-81.058-24.077-7.543 0-34.561 8.026-81.056 24.077-43.724 14.993-77.44 27.517-101.15 37.57zM113.771 529.402c0 5.488-3.528 8.232-10.583 8.232-7.056 0-10.584-2.744-10.584-8.232l-4.498-340.453-.264-25.353c-.177-13.61-2.205-25.024-6.086-34.244L31.75 11.477c32.808-4.828 56.62-7.244 71.438-7.244 14.816 0 38.628 2.415 71.437 7.243L124.62 129.351c-3.88 9.22-5.91 20.634-6.086 34.244l-.264 25.353z" />
</svg>