<svg xmlns="http://www.w3.org/2000/svg" viewBox="0 0 541.867 541.867" height="2048" width="2048">
   <path d="M243.417 62.442l-50.007 94.72c-3.88 7.409-5.909 16.581-6.085 27.517l-4.762 293.952c0 4.41-3.528 6.615-10.584 6.615-7.055 0-10.583-2.205-10.583-6.615l-4.763-293.952c-.176-10.936-2.204-20.108-6.085-27.516l-50.006-94.721c32.808-3.881 56.62-5.821 71.437-5.821s38.63 1.94 71.438 5.82zm-88.371 208.491c0 8.114-5.821 12.524-8.731 12.7-2.91.177-108.744 56.886-108.744 56.886-3.88-32.632-5.821-55.827-5.821-69.586 0-13.758 1.94-36.953 5.82-69.585 0 0 105.834 56.709 108.745 56.885 2.91.177 8.73 4.586 8.73 12.7zM510.117 479.69l-5.557 3.44q-32.543-31.222-93.927-108.745-61.383-77.522-74.083-103.452 12.7-25.929 74.083-103.452 61.384-77.523 93.927-108.743l5.557 3.44q-15.082 40.745-37.571 115.887-24.077 79.904-24.077 92.868 0 12.965 24.077 92.87 22.49 75.14 37.57 115.887z" />
</svg>