<svg xmlns="http://www.w3.org/2000/svg" viewBox="0 0 541.867 541.867" height="2048" width="2048">
   <path d="M509.985 256.646c0 7.055-2.205 10.583-6.615 10.583l-168.937 4.763c-10.936.176-20.108 2.204-27.516 6.085l-94.72 50.006c-3.88-32.808-5.822-56.62-5.822-71.437s1.94-38.63 5.82-71.438l94.722 50.007c7.408 3.88 16.58 5.908 27.516 6.085l168.937 4.763c4.41 0 6.615 3.528 6.615 10.583zM509.985 75.671c0 7.055-2.205 10.583-6.615 10.583l-168.937 4.762c-10.936.177-20.108 2.205-27.516 6.086l-94.72 50.006c-3.88-32.808-5.822-56.62-5.822-71.438 0-14.816 1.94-38.628 5.82-71.437l94.721 50.006c7.41 3.88 16.581 5.91 27.517 6.086l168.937 4.762c4.41 0 6.615 3.528 6.615 10.583zM142.703 537.634l-3.003-5.557q27.25-32.543 94.914-93.927 67.664-61.383 90.295-74.083 22.631 12.7 90.294 74.083 67.663 61.384 94.914 93.927l-3.003 5.557q-35.562-15.082-101.148-37.571-69.741-24.077-81.057-24.077-11.316 0-81.057 24.077-65.586 22.49-101.15 37.57zM174.625 11.478l-50.006 117.874q-4.498 10.208-5.821 27.328 17.198.99 54.504 6.587L123.296 281.14q-6.35 14.818-6.88 36.22 14.024.658 55.563 6.914l-50.006 117.874q-7.144 17.122-7.408 28.975l-.794 58.279q0 8.232-10.583 8.232-10.584 0-10.584-8.232l-.794-58.279q-.264-11.853-7.408-28.974L34.396 324.274q18.52-2.963 55.562-6.914-.529-21.402-6.879-36.22L33.073 163.267q18.256-2.635 54.504-6.586-1.323-17.12-5.82-27.328L31.75 11.477q49.212-7.244 71.438-7.244 22.224 0 71.437 7.243z" />
</svg>