<svg xmlns="http://www.w3.org/2000/svg" viewBox="0 0 541.867 541.867" height="2048" width="2048">
   <path d="M499.533 507.47l-4.762 2.647c-27.34-23.284-55.034-47.89-83.08-73.82-14.287-13.228-35.1-33.69-62.441-61.382 12.17-13.759 32.985-34.22 62.442-61.384 28.046-25.929 55.739-50.535 83.079-73.819l4.762 2.646a24471.107 24471.107 0 01-27.516 65.352c-10.231 26.282-17.286 48.684-21.167 67.205 3.88 18.52 10.936 40.922 21.167 67.204a24469.71 24469.71 0 0127.516 65.352zm-153.458 0l-4.762 2.647c-27.34-23.284-55.034-47.89-83.08-73.82-14.287-13.228-35.101-33.69-62.441-61.382 12.17-13.759 32.984-34.22 62.441-61.384 28.046-25.929 55.74-50.535 83.08-73.819l4.762 2.646a24474.395 24474.395 0 01-27.517 65.352c-10.23 26.282-17.286 48.684-21.166 67.205 3.88 18.52 10.936 40.922 21.166 67.204 9.173 21.696 18.345 43.48 27.517 65.352zm-153.458 0l-4.763 2.647c-27.34-23.284-55.033-47.89-83.079-73.82-14.287-13.228-35.101-33.69-62.442-61.382 12.171-13.759 32.985-34.22 62.442-61.384 28.046-25.929 55.739-50.535 83.08-73.819l4.762 2.646A24474.4 24474.4 0 01165.1 307.71c-10.23 26.282-17.286 48.684-21.167 67.205 3.881 18.52 10.936 40.922 21.167 67.204 9.172 21.696 18.344 43.48 27.517 65.352zM485.246 103.188q0 10.583-6.615 10.583l-145.785 2.381q-11.906.265-27.517 8.467l-94.72 50.006q-2.382-18.785-5.557-56.356l-20.373.264q-16.404.265-27.517 6.086l-94.72 50.006q-5.821-49.212-5.821-71.438 0-22.224 5.82-71.437l94.721 50.006q11.113 5.821 27.517 6.086l20.373.264q.794-15.61 5.556-56.356l94.721 50.006q15.61 8.202 27.517 8.467l145.785 2.381q6.615 0 6.615 10.584z" />
</svg>