<svg xmlns="http://www.w3.org/2000/svg" viewBox="0 0 541.867 541.867" height="2048" width="2048">
   <path d="M35.628 373.062l-3.878-5.556c23.461-21.696 64.32-53.005 122.574-93.927 58.255-40.922 97.125-65.617 116.61-74.083 19.484 8.466 58.354 33.16 116.609 74.083 58.255 40.922 99.113 72.231 122.574 93.927l-3.878 5.556c-30.617-10.054-74.16-22.577-130.625-37.57-60.045-16.052-94.938-24.078-104.68-24.078-9.743 0-44.637 8.026-104.68 24.078-56.466 14.993-100.008 27.516-130.626 37.57zM35.628 537.634l-3.878-5.557c23.461-21.695 64.32-53.004 122.574-93.927 58.255-40.922 97.125-65.616 116.61-74.083 19.484 8.467 58.354 33.16 116.609 74.083 58.255 40.923 99.113 72.232 122.574 93.927l-3.878 5.557c-30.617-10.055-74.16-22.578-130.625-37.571-60.045-16.052-94.938-24.077-104.68-24.077-9.743 0-44.637 8.025-104.68 24.077-56.466 14.993-100.008 27.517-130.626 37.57zM129.758 4.233c11.176 35.537 21.893 71.227 33.368 106.665 3.475 11.292 11.363 20.1 19.612 28.163 11.748 12.295 23.77 24.347 35.346 36.795 2.935 7.498-8.797 19.26-15.942 13.751-15.443-14.793-30.64-29.856-46.242-44.476-13.964-10.693-31.712-13.55-47.973-19.187L31.75 102.251c20.966-26.472 42.212-53.15 68.786-74.3 9.593-8.086 19.37-15.95 29.222-23.718z" />
</svg>