<svg xmlns="http://www.w3.org/2000/svg" width="2048" height="2048" viewBox="0 0 541.867 541.867">
   <path d="M174.625 11.478L124.62 129.352q-4.498 10.208-5.82 27.328 17.197.99 54.503 6.587L123.296 281.14q-6.35 14.818-6.88 36.22 14.024.658 55.563 6.914l-50.006 117.874q-7.144 17.122-7.408 28.975l-.794 58.279q0 8.232-10.584 8.232-10.583 0-10.583-8.232l-.794-58.279q-.264-11.853-7.408-28.974L34.396 324.274q18.52-2.963 55.562-6.914-.529-21.402-6.879-36.22L33.073 163.267q18.256-2.635 54.504-6.586-1.323-17.12-5.82-27.328L31.75 11.477q49.212-7.244 71.438-7.244 22.224 0 71.437 7.243zM156.35 305.859l-2.892-5.557c17.493-21.695 47.956-53.004 91.39-93.927 43.432-40.922 72.413-65.616 86.94-74.083 14.528 8.467 43.508 33.16 86.941 74.083 43.434 40.923 73.897 72.232 91.388 93.927l-2.891 5.557c-22.828-10.055-55.292-22.578-97.391-37.571-44.768-16.051-70.783-24.077-78.046-24.077-7.264 0-33.28 8.026-78.048 24.077-42.098 14.993-74.562 27.517-97.392 37.57zM156.35 464.609l-2.892-5.557c17.493-21.695 47.956-53.004 91.39-93.927 43.432-40.922 72.413-65.616 86.94-74.083 14.528 8.467 43.508 33.16 86.942 74.083 43.433 40.923 73.896 72.232 91.387 93.927l-2.891 5.557c-22.828-10.055-55.292-22.578-97.391-37.571-44.768-16.051-70.783-24.077-78.046-24.077-7.264 0-33.28 8.026-78.048 24.077-42.098 14.993-74.562 27.517-97.392 37.57z" />
</svg>