<svg xmlns="http://www.w3.org/2000/svg" width="2048" height="2048" viewBox="0 0 541.867 541.867">
   <path d="M240.77 195.862l-50.005 117.875q-8.202 19.426-8.467 34.243l-2.381 181.422q0 8.232-10.583 8.232-10.584 0-10.584-8.232l-2.381-181.422q-.265-14.816-8.467-34.243L97.896 195.864q18.785-2.964 56.356-6.915l-.264-25.353q-.265-20.414-6.086-34.244L97.896 11.477q49.212-7.244 71.438-7.244 22.224 0 71.437 7.243l-50.006 117.875q-5.821 13.83-6.086 34.244l-.264 25.353q15.61.988 56.356 6.914zM443.971 533.31l-5.557 4.324q-32.543-39.242-93.927-136.677-61.383-97.434-74.083-130.025 12.7-32.589 74.083-130.024 61.384-97.436 93.927-136.675l5.557 4.324q-15.082 51.21-37.57 145.653-24.078 100.428-24.078 116.722 0 16.295 24.077 116.725 22.49 94.44 37.57 145.653zM649.406 102.241c-35.537 11.176-71.227 21.893-106.664 33.369-11.293 3.474-20.1 11.362-28.164 19.612-12.294 11.748-24.347 23.77-36.794 35.345-7.499 2.935-19.26-8.797-13.752-15.942 14.793-15.443 29.856-30.64 44.476-46.242C519.2 114.42 522.06 96.671 527.696 80.41l23.692-76.177c26.472 20.966 53.15 42.212 74.3 68.786 8.086 9.593 15.951 19.37 23.718 29.222z" />
</svg>