<svg xmlns="http://www.w3.org/2000/svg" viewBox="0 0 541.867 541.867" height="2048" width="2048">
   <path d="M171.45 330.994l-48.948 93.133c-4.057 7.585-6.173 16.933-6.35 28.046l-1.058 46.037c-.177 5.998-4.498 8.996-12.965 8.996-8.467 0-12.788-2.998-12.964-8.996l-1.059-46.037c-.176-11.113-2.293-20.461-6.35-28.046l-48.948-93.133c31.221-3.704 54.328-5.557 69.321-5.557 14.993 0 38.1 1.853 69.321 5.557zM183.092 254c0 8.643-2.47 12.965-7.409 12.965l-21.166 2.38c-10.936.177-20.109 2.206-27.517 6.086l-94.72 50.007c-3.881-32.809-5.822-56.621-5.822-71.438s1.94-38.63 5.821-71.438L127 232.57c7.408 3.88 16.58 5.909 27.517 6.085l21.166 2.381c4.94 0 7.409 4.322 7.409 12.965zM183.092 103.188c0 8.643-2.47 12.964-7.409 12.964l-21.166 2.381c-10.936.177-20.109 2.205-27.517 6.086l-94.72 50.006c-3.881-32.808-5.822-56.62-5.822-71.438 0-14.816 1.94-38.629 5.821-71.437L127 81.756c7.408 3.88 16.58 5.91 27.517 6.086l21.166 2.38c4.94 0 7.409 4.322 7.409 12.965zM415.394 62.442l-40.503 94.72q-4.714 11.113-4.929 27.517l-3.858 293.952q0 6.615-8.571 6.615-8.572 0-8.572-6.615l-3.857-293.951q-.215-16.404-4.929-27.517l-40.504-94.72q39.861-5.821 57.862-5.821 18.002 0 57.862 5.82zm-114.866 0l-40.503 94.72q-4.714 11.113-4.93 27.517L251.24 478.63q0 6.615-8.572 6.615-8.573 0-8.573-6.615l-3.857-293.951q-.215-16.404-4.93-27.517l-40.501-94.721q39.86-5.821 57.862-5.821 18 0 57.86 5.82zM510.117 479.69l-4.501 3.44q-26.359-31.222-76.077-108.745-49.718-77.522-60.005-103.452 10.287-25.93 60.005-103.452 49.718-77.523 76.077-108.743l4.5 3.44q-12.215 40.745-30.43 115.887-19.502 79.904-19.502 92.868 0 12.965 19.502 92.87 18.216 75.14 30.43 115.887z" />
</svg>