<svg xmlns="http://www.w3.org/2000/svg" viewBox="0 0 541.867 541.867" height="2048" width="2048">
   <path d="M510.117 479.69l-5.557 3.44q-32.543-31.222-93.927-108.745-61.383-77.522-74.083-103.452 12.7-25.929 74.083-103.452 61.384-77.523 93.927-108.743l5.557 3.44q-15.082 40.745-37.571 115.887-24.077 79.904-24.077 92.868 0 12.965 24.077 92.87 22.49 75.14 37.57 115.887zM321.733 62.442l-50.006 94.72q-5.82 11.113-6.085 27.517l-4.763 293.952q0 6.615-10.583 6.615t-10.583-6.615L234.95 184.68q-.265-16.404-6.085-27.517l-50.007-94.72q49.213-5.821 71.438-5.821t71.437 5.82zm-147.108 0l-50.006 94.72q-5.821 11.113-6.086 27.517l-4.762 293.952q0 6.615-10.583 6.615-10.584 0-10.584-6.615L87.842 184.68q-.265-16.404-6.086-27.517L31.75 62.442q49.212-5.821 71.438-5.821 22.224 0 71.437 5.82z" />
</svg>