<svg xmlns="http://www.w3.org/2000/svg" viewBox="0 0 541.867 541.867" height="2048" width="2048">
   <path d="M485.246 103.188q0 10.583-6.615 10.583l-293.952 4.762q-16.404.265-27.516 6.086l-94.721 50.006q-5.821-49.212-5.821-71.438 0-22.224 5.82-71.437l94.721 50.006q11.113 5.821 27.517 6.086l293.952 4.762q6.615 0 6.615 10.583zm0 147.108q0 10.583-6.615 10.583l-293.952 4.763q-16.404.264-27.516 6.085l-94.721 50.006q-5.821-49.212-5.821-71.437 0-22.225 5.82-71.438l94.722 50.007q11.112 5.82 27.516 6.085l293.952 4.763q6.615 0 6.615 10.583zM62.177 510.117l-3.44-5.557q31.221-32.543 108.744-93.927 77.523-61.383 103.452-74.083 25.93 12.7 103.452 74.083 77.523 61.384 108.744 93.927l-3.44 5.557q-40.745-15.082-115.887-37.571-79.904-24.077-92.869-24.077-12.964 0-92.868 24.077-75.142 22.49-115.888 37.57z" />
</svg>