<svg xmlns="http://www.w3.org/2000/svg" viewBox="0 0 541.867 541.867" height="2048" width="2048">
   <path d="M240.77 195.862l-50.005 117.875q-8.202 19.426-8.467 34.243l-2.381 181.422q0 8.232-10.583 8.232-10.584 0-10.584-8.232l-2.381-181.422q-.265-14.816-8.467-34.243L97.896 195.864q18.785-2.964 56.356-6.915l-.264-25.353q-.265-20.414-6.086-34.244L97.896 11.477q49.212-7.244 71.438-7.244 22.224 0 71.437 7.243l-50.006 117.875q-5.821 13.83-6.086 34.244l-.264 25.353q15.61.988 56.356 6.914zM443.971 533.31l-5.557 4.324q-32.543-39.242-93.927-136.677-61.383-97.434-74.083-130.025 12.7-32.589 74.083-130.024 61.384-97.436 93.927-136.675l5.557 4.324q-15.082 51.21-37.57 145.653-24.078 100.428-24.078 116.722 0 16.295 24.077 116.725 22.49 94.44 37.57 145.653z" />
</svg>