<svg xmlns="http://www.w3.org/2000/svg" width="2048" height="2048" viewBox="0 0 541.867 541.867">
   <path d="M385.234 533.31l-5.556 4.324c-21.697-26.162-53.006-71.72-93.928-136.677-40.922-64.956-65.617-108.299-74.083-130.025 8.466-21.726 33.16-65.067 74.083-130.024C326.672 75.95 357.98 30.392 379.678 4.233l5.556 4.324c-10.054 34.14-22.578 82.691-37.57 145.653-16.053 66.952-24.079 105.86-24.079 116.722 0 10.863 8.026 49.772 24.077 116.725 14.994 62.96 27.518 111.512 37.57 145.653zM510.117 533.31l-5.557 4.324c-21.695-26.162-53.004-71.72-93.927-136.677C369.711 336 345.017 292.658 336.55 270.932c8.467-21.726 33.16-65.067 74.083-130.024C451.556 75.95 482.865 30.392 504.56 4.233l5.557 4.324c-10.055 34.14-22.579 82.691-37.571 145.653-16.052 66.952-24.077 105.86-24.077 116.722 0 10.863 8.025 49.772 24.077 116.725 14.993 62.96 27.517 111.512 37.57 145.653zM303.345 468.048c0 8.114-2.91 12.348-8.73 12.7-9.526.353-143.096.882-146.447 1.588-5.998 1.058-12.171 3.263-18.521 6.614l-92.076 48.684c-3.88-32.632-5.821-55.827-5.821-69.586 0-13.758 1.94-36.953 5.82-69.585l92.076 48.683c8.996 4.763 148.74 7.497 164.967 8.202 5.821.353 8.731 4.586 8.731 12.7zM218.546 9.79l-49.135 93.133c-4.072 7.76-6.197 17.11-6.374 28.045l-3.453 301.89c0 4.41-3.542 6.615-10.623 6.615-7.083 0-10.624-2.205-10.624-6.614l-3.453-301.89c-.178-10.937-2.302-20.285-6.374-28.046L79.375 9.79c31.34-3.704 54.535-5.556 69.585-5.556 15.05 0 38.245 1.852 69.586 5.556z" />
</svg>