<svg xmlns="http://www.w3.org/2000/svg" viewBox="0 0 541.867 541.867" height="2048" width="2048">
   <path d="M158.089 123.825c0 7.056-4.41 10.583-6.615 10.583S37.571 195.263 37.571 195.263c-3.88-32.809-5.821-56.621-5.821-71.438s1.94-38.63 5.82-71.438c0 0 111.699 60.855 113.904 60.855 2.205 0 6.615 3.527 6.615 10.583zm0 147.108c0 7.056-4.41 10.584-6.615 10.584S37.571 342.37 37.571 342.37c-3.88-32.808-5.821-56.621-5.821-71.438 0-14.816 1.94-38.629 5.82-71.437 0 0 111.699 60.854 113.904 60.854 2.205 0 6.615 3.528 6.615 10.583zm0 147.109c0 7.055-5.513 10.583-6.615 10.583-1.102 0-113.903 60.854-113.903 60.854-1.94-16.404-5.821-56.62-5.821-71.437s1.94-38.63 5.82-71.438c0 0 111.699 60.854 113.904 60.854 2.205 0 6.615 3.528 6.615 10.584zM510.117 479.69l-5.557 3.44q-32.543-31.222-93.927-108.745-61.383-77.522-74.083-103.452 12.7-25.929 74.083-103.452 61.384-77.523 93.927-108.743l5.557 3.44q-15.082 40.745-37.571 115.887-24.077 79.904-24.077 92.868 0 12.965 24.077 92.87 22.49 75.14 37.57 115.887z" />
</svg>