<svg xmlns="http://www.w3.org/2000/svg" height="2048" width="2048" viewBox="-10 0 2048 2048">
   <path d="M2025.576 722c-42.24-134.314-82.744-269.204-126.116-403.142-13.132-42.68-42.945-75.966-74.124-106.444-44.401-46.468-89.84-92.02-133.59-139.066-11.092-28.34 33.25-72.796 60.253-51.975 58.37 55.912 115.809 112.84 174.775 168.098 52.775 40.414 119.855 51.22 181.313 72.52L2396 351.537c-79.24 100.053-159.54 200.885-259.978 280.82-36.256 30.562-73.21 60.286-110.446 89.643zM1284 1371c-26.667 0-40-8.333-40-25l-7-851c-.667-34-10.667-69.333-30-106L1022 37c118-14 205.333-21 262-21s144 7 262 21l-185 352c-19.333 36.667-29.333 72-30 106l-7 851c0 16.667-13.333 25-40 25zM744 1371c-26.667 0-40-8.333-40-25l-7-851c-.667-34-10.667-69.333-30-106L482 37c118-14 205.333-21 262-21s144 7 262 21L821 389c-19.333 36.667-29.333 72-30 106l-7 851c0 16.667-13.333 25-40 25zM225 2032l-13-21q118-123 411-355t391-280q98 48 391 280t411 355l-13 21q-154-57-438-142-302-91-351-91t-351 91q-284 85-438 142z" />
</svg>