<svg xmlns="http://www.w3.org/2000/svg" viewBox="0 0 541.867 541.867" height="2048" width="2048">
   <path d="M510.117 479.69l-5.557 3.44q-32.543-31.222-93.927-108.745-61.383-77.522-74.083-103.452 12.7-25.929 74.083-103.452 61.384-77.523 93.927-108.743l5.557 3.44q-15.082 40.745-37.571 115.887-24.077 79.904-24.077 92.868 0 12.965 24.077 92.87 22.49 75.14 37.57 115.887zM343.958 103.717c0 7.055-2.204 10.583-6.614 10.583l-178.859 3.44c-11.112.176-20.46 2.293-28.045 6.35l-93.134 48.947c-3.704-31.22-5.556-54.327-5.556-69.32 0-14.993 1.852-38.1 5.556-69.321l93.134 48.948c7.584 4.057 16.933 6.173 28.045 6.35l178.859 3.44c4.41 0 6.614 3.527 6.614 10.583zm-2.116 79.904l-48.948 93.133c-4.057 7.761-6.174 17.11-6.35 28.046l-3.44 196.056c0 4.41-3.528 6.615-10.583 6.615-7.056 0-10.584-2.205-10.584-6.615l-3.44-196.056c-.176-10.936-2.292-20.285-6.35-28.046L203.2 183.621c31.22-3.704 54.328-5.556 69.32-5.556 14.994 0 38.1 1.852 69.322 5.556zm-142.875 0l-48.948 93.133c-4.057 7.761-6.174 17.11-6.35 28.046l-3.44 196.056c0 4.41-3.528 6.615-10.583 6.615-7.056 0-10.584-2.205-10.584-6.615l-3.44-196.056c-.176-10.936-2.292-20.285-6.35-28.046l-48.947-93.133c31.22-3.704 54.328-5.556 69.32-5.556 14.994 0 38.1 1.852 69.322 5.556z" />
</svg>