<?xml version="1.0" encoding="UTF-8" standalone="no"?>
<svg
   xmlns:dc="http://purl.org/dc/elements/1.1/"
   xmlns:cc="http://creativecommons.org/ns#"
   xmlns:rdf="http://www.w3.org/1999/02/22-rdf-syntax-ns#"
   xmlns:svg="http://www.w3.org/2000/svg"
   xmlns="http://www.w3.org/2000/svg"
   xmlns:sodipodi="http://sodipodi.sourceforge.net/DTD/sodipodi-0.dtd"
   xmlns:inkscape="http://www.inkscape.org/namespaces/inkscape"
   sodipodi:docname="000-004-061_ha.svg"
   inkscape:version="1.0 (4035a4fb49, 2020-05-01)"
   id="svg841"
   version="1.1"
   viewBox="0 0 541.86665 541.86668"
   height="2048"
   width="2048">
  <defs
     id="defs835" />
  <sodipodi:namedview
     inkscape:window-maximized="1"
     inkscape:window-y="-8"
     inkscape:window-x="-8"
     inkscape:window-height="1018"
     inkscape:window-width="1920"
     units="px"
     showgrid="false"
     inkscape:document-rotation="0"
     inkscape:current-layer="layer1"
     inkscape:document-units="px"
     inkscape:cy="1045.7143"
     inkscape:cx="1200"
     inkscape:zoom="0.35"
     inkscape:pageshadow="2"
     inkscape:pageopacity="0.0"
     borderopacity="1.0"
     bordercolor="#666666"
     pagecolor="#ffffff"
     id="base" />
  <metadata
     id="metadata838">
    <rdf:RDF>
      <cc:Work
         rdf:about="">
        <dc:format>image/svg+xml</dc:format>
        <dc:type
           rdf:resource="http://purl.org/dc/dcmitype/StillImage" />
        <dc:title></dc:title>
      </cc:Work>
    </rdf:RDF>
  </metadata>
  <g
     id="layer1"
     inkscape:groupmode="layer"
     inkscape:label="图层 1">
    <path
       id="path1437"
       d="m 146.05,181.23958 -48.94792,93.13334 c -4.05685,7.76102 -6.17351,17.10981 -6.34999,28.04583 L 87.31249,498.475 c 0,4.40981 -3.52768,6.61458 -10.58333,6.61458 -7.055637,0 -10.583327,-2.20477 -10.583327,-6.61458 l -3.43959,-196.05625 c -0.17647,-10.93602 -2.29314,-20.28481 -6.34999,-28.04583 L 7.4083333,181.23958 c 31.2208297,-3.70416 54.3276897,-5.55625 69.3208267,-5.55625 14.99316,0 38.1,1.85209 69.32084,5.55625 z"
       style="stroke-width:0.264583" />
    <path
       id="path1435"
       d="m 299.50834,181.23958 -48.94792,93.13334 c -4.05686,7.76102 -6.17352,17.10981 -6.35,28.04583 L 240.77084,498.475 c 0,4.40981 -3.52769,6.61458 -10.58334,6.61458 -7.05564,0 -10.58333,-2.20477 -10.58333,-6.61458 l -3.43958,-196.05625 c -0.17648,-10.93602 -2.29315,-20.28481 -6.35,-28.04583 l -48.94792,-93.13334 c 31.22083,-3.70416 54.32769,-5.55625 69.32083,-5.55625 14.99315,0 38.1,1.85209 69.32084,5.55625 z"
       style="stroke-width:0.264583" />
    <path
       id="path1433"
       d="m 147.10833,101.33542 c 0,8.11397 -2.91042,12.34731 -8.73125,12.7 -9.525,0.35269 -15.96311,0.88185 -19.31458,1.5875 -5.99731,1.05833 -12.17084,3.2631 -18.52084,6.61458 L 8.4666633,170.92083 c -3.88064,-32.63185 -5.82083,-55.82708 -5.82083,-69.58541 0,-13.758337 1.94019,-36.953564 5.82083,-69.58542 L 100.54166,80.433333 c 8.99584,4.7625 21.60773,7.49644 37.83542,8.202083 5.82083,0.35269 8.73125,4.586023 8.73125,12.700004 z"
       style="stroke-width:0.264583" />
    <path
       id="path2"
       d="m 304.27084,101.33542 c 0,8.11397 -2.91042,12.34731 -8.73125,12.7 -9.525,0.35269 -15.96311,0.88185 -19.31459,1.5875 -5.99731,1.05833 -12.17083,3.2631 -18.52083,6.61458 l -92.075,48.68333 c -3.88064,-32.63185 -5.82083,-55.82708 -5.82083,-69.58541 0,-13.758337 1.94019,-36.953564 5.82083,-69.58542 l 92.075,48.683333 c 8.99583,4.7625 21.60773,7.49644 37.83542,8.202083 5.82083,0.35269 8.73125,4.586023 8.73125,12.700004 z"
       style="stroke-width:0.264583" />
    <path
       id="path1429"
       d="m 215.97527,350.30774 c 0,8.114 -5.82099,12.524 -8.73099,12.7 -2.91,0.177 -108.74393,56.88595 -108.74393,56.88595 -3.87999,-32.63197 -5.82099,-55.82695 -5.82099,-69.58595 0,-13.75798 1.94,-36.95297 5.81999,-69.58495 0,0 105.83393,56.70896 108.74493,56.88496 2.91,0.177 8.72999,4.586 8.72999,12.69999 z"
       style="stroke-width:1" />
    <path
       sodipodi:nodetypes="ccccsccccscc"
       id="path1427"
       d="m 418.11711,37.571 -50.00697,94.71994 c -3.88,7.40899 -5.91,16.58099 -6.085,27.51698 l -4.762,341.3127 c 0,4.40999 -3.52799,6.615 -10.58399,6.615 -7.05499,0 -10.58299,-2.20501 -10.58299,-6.615 l -4.763,-341.3127 c -0.176,-10.93599 -2.204,-20.10799 -6.085,-27.51598 L 275.2422,37.571 c 32.80798,-3.881 56.61996,-5.821 71.43695,-5.821 14.81699,0 38.62998,1.94 71.43796,5.82 z"
       style="stroke-width:1" />
    <path
       id="path2-8"
       d="m 537.17886,479.68955 -5.55602,3.44001 Q 499.07986,451.90759 437.69592,374.38462 376.31295,296.86268 363.61296,270.93269 376.31295,245.00371 437.69592,167.48076 499.07888,89.957813 531.62284,58.737833 l 5.557,3.44 q -15.082,40.744977 -37.57097,115.886917 -24.07698,79.90395 -24.07698,92.86794 0,12.965 24.07698,92.86994 22.48998,75.13995 37.56999,115.88692 z"
       style="stroke-width:1" />
  </g>
</svg>
