<svg xmlns="http://www.w3.org/2000/svg" viewBox="0 0 541.867 541.867" height="2048" width="2048">
      <path d="M246.856 62.442l-50.006 94.72c-3.88 7.409-5.909 16.581-6.085 27.517l-4.763 293.952c0 4.41-3.528 6.615-10.583 6.615-7.056 0-10.584-2.205-10.584-6.615l-4.762-293.952c-.177-10.936-2.205-20.108-6.085-27.516L103.98 62.442c32.809-3.881 56.621-5.821 71.438-5.821 14.816 0 38.629 1.94 71.437 5.82zm-88.9 137.054c0 7.055-4.762 10.76-7.144 10.848-2.38.088-113.506 58.473-113.506 58.473-3.704-31.221-5.556-54.328-5.556-69.321 0-14.993 1.852-38.1 5.556-69.321 0 0 111.125 58.385 113.506 58.473 2.382.088 7.144 3.792 7.144 10.848zm0 142.875c0 7.055-4.762 10.76-7.144 10.848-2.38.088-113.506 58.473-113.506 58.473-3.704-31.221-5.556-54.328-5.556-69.321 0-14.993 1.852-38.1 5.556-69.321 0 0 111.125 58.385 113.506 58.473 2.382.088 7.144 3.792 7.144 10.848zM510.117 479.69l-5.557 3.44c-21.695-20.815-53.004-57.063-93.927-108.745-40.922-51.681-65.616-86.166-74.083-103.452 8.467-17.286 33.161-51.77 74.083-103.452 40.923-51.682 72.232-87.93 93.927-108.743l5.557 3.44c-10.055 27.163-22.578 65.792-37.571 115.887-16.052 53.269-24.077 84.225-24.077 92.868s8.025 39.6 24.077 92.87c14.993 50.093 27.517 88.723 37.57 115.887zm-137.584 0l-5.556 3.44c-21.696-20.815-53.005-57.063-93.927-108.745-40.922-51.681-65.617-86.166-74.083-103.452 8.466-17.286 33.16-51.77 74.083-103.452 40.922-51.682 72.231-87.93 93.927-108.743l5.556 3.44c-10.054 27.163-22.577 65.792-37.57 115.887-16.052 53.269-24.078 84.225-24.078 92.868s8.026 39.6 24.077 92.87c14.994 50.093 27.517 88.723 37.571 115.887z" />
</svg>