<?xml version="1.0" encoding="UTF-8" standalone="no"?>
<svg
   xmlns:dc="http://purl.org/dc/elements/1.1/"
   xmlns:cc="http://creativecommons.org/ns#"
   xmlns:rdf="http://www.w3.org/1999/02/22-rdf-syntax-ns#"
   xmlns:svg="http://www.w3.org/2000/svg"
   xmlns="http://www.w3.org/2000/svg"
   xmlns:sodipodi="http://sodipodi.sourceforge.net/DTD/sodipodi-0.dtd"
   xmlns:inkscape="http://www.inkscape.org/namespaces/inkscape"
   sodipodi:docname="000-004-061_hi.svg"
   inkscape:version="1.0 (4035a4fb49, 2020-05-01)"
   id="svg841"
   version="1.1"
   viewBox="0 0 541.86665 541.86668"
   height="2048"
   width="2048">
  <defs
     id="defs835" />
  <sodipodi:namedview
     inkscape:window-maximized="1"
     inkscape:window-y="-8"
     inkscape:window-x="-8"
     inkscape:window-height="1018"
     inkscape:window-width="1920"
     units="px"
     showgrid="false"
     inkscape:document-rotation="0"
     inkscape:current-layer="layer1"
     inkscape:document-units="px"
     inkscape:cy="1045.7143"
     inkscape:cx="1200"
     inkscape:zoom="0.35"
     inkscape:pageshadow="2"
     inkscape:pageopacity="0.0"
     borderopacity="1.0"
     bordercolor="#666666"
     pagecolor="#ffffff"
     id="base" />
  <metadata
     id="metadata838">
    <rdf:RDF>
      <cc:Work
         rdf:about="">
        <dc:format>image/svg+xml</dc:format>
        <dc:type
           rdf:resource="http://purl.org/dc/dcmitype/StillImage" />
        <dc:title></dc:title>
      </cc:Work>
    </rdf:RDF>
  </metadata>
  <g
     id="layer1"
     inkscape:groupmode="layer"
     inkscape:label="图层 1">
    <path
       d="m 436.95466,37.57099 -39.34602,94.71995 c -3.05289,7.40866 -4.64883,16.58099 -4.78784,27.51698 l -3.74765,341.3127 c 0,4.41 -2.77566,6.615 -8.32698,6.615 -5.55132,0 -8.32698,-2.205 -8.32698,-6.615 l -3.74687,-341.3117 c -0.13901,-10.93599 -1.73495,-20.10832 -4.78783,-27.51698 L 324.53768,37.57199 c 25.81472,-3.88066 44.55114,-5.82099 56.20927,-5.82099 11.65814,0 30.39431,1.939997 56.2085,5.81999 z m -115.7484,0 -39.34602,94.71995 c -3.05288,7.40866 -4.64909,16.58099 -4.78862,27.51698 l -3.74687,341.3127 c 0,4.41 -2.77565,6.615 -8.32697,6.615 -5.55185,0 -8.32777,-2.205 -8.32777,-6.615 l -3.74686,-341.3117 c -0.13901,-10.93599 -1.73522,-20.10832 -4.78863,-27.51698 L 208.78929,37.57099 C 234.60347,33.69033 253.3399,31.75 264.99856,31.75 c 11.65762,0 30.39377,1.939997 56.20849,5.81999 z m 211.92916,442.11856 -4.37239,3.44001 Q 503.15735,451.90759 454.85884,374.38462 406.5611,296.86268 396.5684,270.93269 406.5611,245.00371 454.85884,167.48076 503.15735,89.957813 528.76303,58.737833 l 4.37239,3.43999 q -11.86691,40.744977 -29.56184,115.886927 -18.94439,79.90395 -18.94439,92.86794 0,12.965 18.94439,92.86994 17.69572,75.13995 29.56107,115.88692 z M 232.13533,101.33542 c 0,8.11397 -2.28999,12.34731 -6.86998,12.7 -7.49452,0.35269 -12.56019,0.88185 -15.19723,1.5875 -4.71884,1.05833 -9.57633,3.2631 -14.57268,6.61458 l -72.44704,48.68333 c -3.05339,-32.63185 -4.57999,-55.82708 -4.57999,-69.58541 0,-13.758337 1.5266,-36.953564 4.57999,-69.58542 l 72.44704,48.683333 c 7.07816,4.7625 17.00154,7.49644 29.76991,8.202083 4.57999,0.35269 6.86998,4.586023 6.86998,12.700004 z m -114.49966,0 c 0,8.11397 -2.29,12.34731 -6.86998,12.7 -7.49452,0.35269 -12.5602,0.88185 -15.197226,1.5875 -4.718842,1.05833 -9.576339,3.2631 -14.572687,6.61458 L 8.5487331,170.92083 C 5.4953428,138.28898 3.96875,115.09375 3.96875,101.33542 3.96875,87.577083 5.4953428,64.381856 8.5487331,31.75 L 80.995777,80.433333 c 7.078165,4.7625 17.001534,7.49644 29.769913,8.202083 4.57998,0.35269 6.86998,4.586023 6.86998,12.700004 z m 110.7524,79.90416 -38.51352,93.13334 c -3.19204,7.76102 -4.85749,17.10981 -4.99635,28.04583 L 182.17185,498.475 c 0,4.40981 -2.77568,6.61458 -8.32725,6.61458 -5.55156,0 -8.32724,-2.20477 -8.32724,-6.61458 L 162.811,302.41875 c -0.13886,-10.93602 -1.80431,-20.28481 -4.99634,-28.04583 l -38.51352,-93.13334 c 24.56537,-3.70416 42.74646,-5.55625 54.54346,-5.55625 11.79701,0 29.97809,1.85209 54.54347,5.55625 z m -111.58512,0 -38.513525,93.13334 c -3.192037,7.76102 -4.857481,17.10981 -4.99634,28.04583 L 70.586716,498.475 c 0,4.40981 -2.775672,6.61458 -8.327244,6.61458 -5.551562,0 -8.327241,-2.20477 -8.327241,-6.61458 L 51.22587,302.41875 C 51.087019,291.48273 49.421567,282.13394 46.22953,274.37292 L 7.716011,181.23958 c 24.565375,-3.70416 42.746464,-5.55625 54.543461,-5.55625 11.797015,0 29.978089,1.85209 54.543478,5.55625 z"
       style="stroke-width:0.887032"
       id="path2-7" />
  </g>
</svg>
