<svg xmlns="http://www.w3.org/2000/svg" height="2048" width="2048" viewBox="-10 0 2048 2048">
   <path d="M649.996 665.132l-188.995 399.296c-20.667 43.87-31.334 82.536-32.002 115.998L420 2004.114c0 18.59-13.332 27.886-39.998 27.886-26.669 0-40.003-9.295-40.003-27.886L331 1180.427c-.668-33.46-11.335-72.125-32.001-115.997L110 665.14c47.332-6.694 118.332-14.503 212.999-23.426l-.998-85.882c-.668-46.1-8.335-84.766-23.002-115.997L110 40.539C233.999 24.18 324 16 380.002 16 435.999 16 525.998 24.178 650 40.534L461 439.83c-14.666 31.231-22.334 69.898-23.001 115.998l-.998 85.882c39.332 2.233 110.332 10.04 212.999 23.423zM529.346 1340L518 1316.31c68.661-92.5 188.238-225.985 358.728-400.457 170.49-174.47 284.248-279.756 341.271-315.853 57.025 36.097 170.783 141.382 341.273 315.853 170.49 174.471 290.066 307.957 358.728 400.457L1906.653 1340c-89.609-42.865-217.04-96.26-382.294-160.183-175.727-68.435-277.846-102.651-306.36-102.651-28.512 0-130.63 34.216-306.358 102.651-165.253 63.924-292.685 117.318-382.295 160.183zM529.346 2012L518 1988.311c68.661-92.5 188.238-225.986 358.728-400.458 170.49-174.47 284.248-279.755 341.271-315.853 57.025 36.097 170.783 141.382 341.273 315.853 170.49 174.472 290.066 307.958 358.728 400.458L1906.653 2012c-89.609-42.866-217.04-96.26-382.294-160.183-175.727-68.435-277.846-102.653-306.36-102.653-28.512 0-130.63 34.218-306.358 102.653C746.388 1915.74 618.956 1969.134 529.346 2012zM1921.5 279c0 30.667-11 46.667-33 48-53.018.089-786.282 8.974-828.5 31L712 542c-14.667-123.333-22-211-22-263s7.333-139.667 22-263l348 184c34 18 767.167 28.333 828.5 31 22 1.333 33 17.333 33 48zM2744 386.424c-134.314 42.24-269.204 82.744-403.142 126.116-42.68 13.132-75.966 42.945-106.444 74.124-46.468 44.402-92.02 89.841-139.066 133.59-28.34 11.092-72.796-33.249-51.975-60.253 55.912-58.369 112.84-115.808 168.098-174.774 40.414-52.776 51.22-119.856 72.52-181.314L2373.537 16c100.053 79.24 200.885 159.541 280.82 259.978 30.562 36.256 60.286 73.21 89.643 110.446z" />
</svg>