<svg xmlns="http://www.w3.org/2000/svg" width="2048" height="2048" viewBox="0 0 541.867 541.867">
   <path d="M283.768 418.042c0 7.055-2.205 10.583-6.615 10.583l-85.594 4.763c-10.936.176-20.108 2.204-27.516 6.085l-94.722 50.006c-3.88-32.808-5.821-56.62-5.821-71.437s1.94-38.63 5.82-71.438l94.722 50.006c7.408 3.881 16.58 5.91 27.516 6.086l85.594 4.762c4.41 0 6.615 3.528 6.615 10.584zM283.768 270.933c0 7.056-2.206 10.584-6.615 10.584l-85.594 4.762c-10.936.177-20.108 2.205-27.516 6.086L69.321 342.37c-3.88-32.808-5.821-56.621-5.821-71.438 0-14.816 1.94-38.629 5.82-71.437l94.722 50.006c7.408 3.88 16.58 5.91 27.516 6.085l85.594 4.763c4.41 0 6.614 3.528 6.614 10.583zM283.768 123.825c0 7.056-2.205 10.583-6.615 10.583l-85.594 4.763c-10.936.176-20.108 2.205-27.516 6.085l-94.722 50.006c-3.88-32.808-5.821-56.62-5.821-71.437s1.94-38.63 5.82-71.438l94.722 50.007c7.408 3.88 16.58 5.909 27.516 6.085l85.594 4.763c4.41 0 6.615 3.527 6.615 10.583zM480.484 532.516l-5.557 4.324C453.232 510.68 421.923 465.12 381 400.164c-40.922-64.957-65.616-108.298-74.083-130.024 8.467-21.726 33.16-65.068 74.083-130.025C421.923 75.158 453.232 29.6 474.927 3.44l5.557 4.323c-10.055 34.14-22.578 82.693-37.571 145.654-16.052 66.952-24.077 105.86-24.077 116.723s8.025 49.771 24.077 116.722c14.993 62.962 27.517 111.513 37.57 145.654zM682.244 102.241c-35.537 11.176-71.227 21.893-106.665 33.369-11.293 3.474-20.1 11.362-28.163 19.612-12.295 11.748-24.347 23.77-36.795 35.345-7.498 2.935-19.26-8.797-13.752-15.942 14.794-15.443 29.856-30.64 44.476-46.242 10.693-13.964 13.552-31.712 19.188-47.973l23.692-76.177c26.473 20.966 53.151 42.212 74.3 68.786 8.087 9.593 15.951 19.37 23.719 29.222z" />
</svg>