<svg xmlns="http://www.w3.org/2000/svg" width="2048" height="2048" viewBox="0 0 541.867 541.867">
   <path d="M372.533 533.31l-5.556 4.324c-21.696-26.162-53.005-71.72-93.927-136.677-40.922-64.956-65.617-108.299-74.083-130.025 8.466-21.726 33.16-65.067 74.083-130.024C313.972 75.95 345.281 30.392 366.977 4.233l5.556 4.324c-10.054 34.14-22.577 82.691-37.57 145.653-16.052 66.952-24.078 105.86-24.078 116.722 0 10.863 8.026 49.772 24.077 116.725 14.994 62.96 27.517 111.512 37.571 145.653zM510.117 533.31l-5.557 4.324c-21.695-26.162-53.004-71.72-93.927-136.677C369.711 336 345.017 292.658 336.55 270.932c8.467-21.726 33.161-65.067 74.083-130.024C451.556 75.95 482.865 30.392 504.56 4.233l5.557 4.324c-10.055 34.14-22.578 82.691-37.571 145.653-16.052 66.952-24.077 105.86-24.077 116.722 0 10.863 8.025 49.772 24.077 116.725 14.993 62.96 27.517 111.512 37.57 145.653zM155.046 270.933c0 8.114-5.821 12.524-8.731 12.7-2.91.177-108.744 56.886-108.744 56.886-3.88-32.632-5.821-55.827-5.821-69.586 0-13.758 1.94-36.953 5.82-69.585 0 0 105.834 56.709 108.745 56.885 2.91.177 8.73 4.586 8.73 12.7zM243.417 11.477L193.41 129.351c-3.88 9.22-5.909 20.634-6.085 34.244l-4.762 365.807c0 5.488-3.528 8.232-10.584 8.232-7.055 0-10.583-2.744-10.583-8.232l-4.763-365.808c-.176-13.609-2.204-25.023-6.085-34.242L100.542 11.477c32.808-4.83 56.62-7.244 71.437-7.244s38.63 2.415 71.438 7.243z" />
</svg>