<svg xmlns="http://www.w3.org/2000/svg" viewBox="0 0 541.867 541.867" height="2048" width="2048">
   <path d="M510.117 479.69l-5.557 3.44q-32.543-31.222-93.927-108.745-61.383-77.522-74.083-103.452 12.7-25.929 74.083-103.452 61.384-77.523 93.927-108.743l5.557 3.44q-15.082 40.745-37.571 115.887-24.077 79.904-24.077 92.868 0 12.965 24.077 92.87 22.49 75.14 37.57 115.887zM214.842 103.188c0 8.643-2.47 12.964-7.409 12.964l-47.625 2.381c-10.936.177-20.108 2.205-27.516 6.086L37.57 174.625c-3.88-32.808-5.821-56.62-5.821-71.438 0-14.816 1.94-38.629 5.82-71.437l94.722 50.006c7.408 3.88 16.58 5.91 27.516 6.086l47.625 2.38c4.94 0 7.409 4.322 7.409 12.965zm0 150.812c0 8.643-2.47 12.965-7.409 12.965l-47.625 2.38c-10.936.177-20.108 2.206-27.516 6.086L37.57 325.438C33.69 292.629 31.75 268.817 31.75 254s1.94-38.63 5.82-71.438l94.722 50.007c7.408 3.88 16.58 5.909 27.516 6.085l47.625 2.381c4.94 0 7.409 4.322 7.409 12.965zm-6.35 76.994l-48.948 93.133c-4.057 7.585-6.174 16.933-6.35 28.046l-1.059 46.037c-.176 5.998-4.498 8.996-12.964 8.996-8.467 0-12.788-2.998-12.965-8.996l-1.058-46.037c-.177-11.113-2.293-20.461-6.35-28.046L69.85 330.994c31.22-3.704 54.328-5.557 69.32-5.557 14.994 0 38.1 1.853 69.322 5.557z" />
</svg>