<svg xmlns="http://www.w3.org/2000/svg" viewBox="0 0 541.867 541.867" height="2048" width="2048">
   <path d="M174.624 10.726L124.62 116.372c-3.88 8.264-5.91 18.494-6.086 30.691l-4.762 383.193c0 4.918-3.528 7.378-10.583 7.378-7.056 0-10.584-2.46-10.584-7.378l-4.762-383.192c-.177-12.197-2.205-22.427-6.086-30.69L31.75 10.725c32.808-4.328 56.62-6.493 71.438-6.493 14.816 0 38.628 2.164 71.437 6.492zM324.38 371.582l-4.438 3.068c-29.058-28.078-63.51-63.874-103.357-107.387-20.357-22.314-31.754-34.866-34.19-37.655-12.877-14.504-23.405-27.893-31.582-40.166 10.266-15.248 32.19-41.189 65.772-77.82 39.847-43.514 74.299-79.31 103.357-107.389l4.437 3.068c-10.091 28.08-18.705 52.626-25.84 73.637-11.83 34.402-17.921 52.254-18.268 53.555-6.613 20.641-11.311 38.957-14.095 54.949 3.306 19.153 14.094 55.321 32.364 108.503 7.134 21.013 15.747 45.558 25.84 73.637zM510.117 371.582l-4.437 3.068c-29.058-28.078-63.51-63.874-103.357-107.387-20.358-22.314-31.755-34.866-34.191-37.655-12.876-14.504-23.404-27.893-31.582-40.166 10.266-15.248 32.19-41.189 65.773-77.82 39.846-43.514 74.299-79.31 103.357-107.389l4.437 3.068c-10.092 28.08-18.705 52.626-25.84 73.637-11.831 34.402-17.922 52.254-18.269 53.555-6.612 20.641-11.31 38.957-14.094 54.949 3.304 19.153 14.093 55.321 32.363 108.503 7.135 21.013 15.747 45.558 25.84 73.637zM509.985 466.197c0 7.055-2.205 10.583-6.615 10.583l-68.395 2.38c-7.937.177-17.11 3-27.517 8.468l-94.72 50.006c-1.588-12.524-3.44-31.31-5.557-56.356l-20.373.264c-10.936.176-20.108 2.205-27.517 6.086l-94.72 50.006c-3.88-32.808-5.82-56.621-5.82-71.438s1.94-38.63 5.82-71.437l94.72 50.006c7.41 3.88 16.581 5.909 27.517 6.086l20.373.264c.53-10.407 2.381-29.192 5.556-56.356l94.721 50.006c10.407 5.468 19.58 8.29 27.517 8.467l68.395 2.38c4.41 0 6.615 3.528 6.615 10.584z" />
</svg>