<svg xmlns="http://www.w3.org/2000/svg" viewBox="0 0 541.867 541.867" height="2048" width="2048">
   <path d="M170.392 9.79l-48.948 93.133c-4.057 7.76-6.174 17.11-6.35 28.045l-3.44 264.849c0 4.41-3.528 6.614-10.583 6.614-7.056 0-10.583-2.205-10.583-6.614l-3.44-264.849c-.177-10.936-2.293-20.284-6.35-28.045L31.75 9.79c31.22-3.704 54.328-5.556 69.32-5.556 14.994 0 38.1 1.852 69.322 5.556zM271.463 468.048c0 8.114-2.91 12.348-8.73 12.7-9.526.353-111.214.882-114.565 1.588-5.998 1.058-12.171 3.263-18.521 6.614l-92.076 48.684c-3.88-32.632-5.821-55.827-5.821-69.586 0-13.758 1.94-36.953 5.82-69.585l92.076 48.683c8.996 4.763 116.858 7.497 133.085 8.202 5.821.353 8.731 4.586 8.731 12.7zM510.117 534.347l-4.437 3.287c-29.058-30.084-63.51-68.438-103.357-115.058-20.358-23.908-31.754-37.356-34.191-40.346-12.876-15.54-23.404-29.884-31.582-43.035 10.266-16.336 32.19-44.13 65.773-83.378 39.846-46.62 74.299-84.974 103.357-115.059l4.437 3.287c-10.092 30.085-18.705 56.385-25.84 78.897-11.831 36.859-17.922 55.986-18.269 57.38-6.612 22.116-11.31 41.74-14.094 58.874 3.304 20.521 14.093 59.273 32.363 116.254 7.135 22.513 15.747 48.812 25.84 78.897zM366.713 534.347l-4.437 3.287c-29.059-30.084-63.511-68.438-103.357-115.058-20.358-23.908-31.755-37.357-34.191-40.346-12.877-15.54-23.404-29.884-31.582-43.035 10.266-16.336 32.19-44.13 65.773-83.378 39.846-46.62 74.298-84.974 103.357-115.059l4.437 3.287c-10.092 30.085-18.706 56.385-25.84 78.897-11.831 36.859-17.922 55.986-18.27 57.38-6.611 22.116-11.31 41.74-14.094 58.874 3.305 20.521 14.094 59.273 32.364 116.254 7.134 22.513 15.747 48.812 25.84 78.897zM509.985 75.671c0 7.055-2.205 10.583-6.615 10.583l-41.937 2.381c-7.937.177-17.11 3-27.517 8.467l-94.72 50.006c-1.588-12.523-3.44-31.309-5.557-56.356l-20.373.264c-10.936.177-20.108 2.205-27.517 6.086l-94.72 50.006c-3.88-32.808-5.82-56.62-5.82-71.438 0-14.817 1.94-38.629 5.82-71.437l94.72 50.006c7.41 3.88 16.581 5.91 27.517 6.086l20.373.264c.53-10.407 2.381-29.192 5.556-56.356l94.721 50.006c10.407 5.468 19.58 8.29 27.517 8.467l41.937 2.381c4.41 0 6.615 3.528 6.615 10.583zM728.663 102.241c-35.537 11.176-71.227 21.893-106.665 33.369-11.292 3.474-20.1 11.362-28.163 19.612-12.295 11.748-24.347 23.77-36.795 35.345-7.498 2.935-19.26-8.797-13.751-15.942 14.793-15.443 29.855-30.64 44.476-46.242 10.692-13.964 13.551-31.712 19.187-47.973l23.693-76.177c26.472 20.966 53.15 42.212 74.3 68.786 8.086 9.593 15.95 19.37 23.718 29.222z" />
</svg>