<svg xmlns="http://www.w3.org/2000/svg" viewBox="0 0 541.867 541.867" height="2048" width="2048">
   <path d="M174.625 210.608l-50.006 94.721q-8.202 15.61-8.467 27.517l-2.381 145.785q0 6.615-10.583 6.615-10.584 0-10.584-6.615l-2.381-145.785q-.265-11.906-8.467-27.517L31.75 210.61q18.785-2.382 56.356-5.557l-.264-20.373q-.265-16.404-6.086-27.517L31.75 62.442q49.212-5.821 71.438-5.821 22.224 0 71.437 5.82l-50.006 94.721q-5.821 11.113-6.086 27.517l-.264 20.373q15.61.794 56.356 5.556zM116.459 510.117l-3.217-5.557q29.196-32.543 101.693-93.927 72.496-61.383 96.744-74.083 24.249 12.7 96.744 74.083 72.497 61.384 101.694 93.927l-3.217 5.557q-38.103-15.082-108.373-37.571-74.723-24.077-86.848-24.077-12.123 0-86.846 24.077-70.27 22.49-108.374 37.57zM509.985 103.188c0 7.055-2.205 10.583-6.615 10.583l-148.148 4.762c-10.936.177-20.108 2.205-27.516 6.086l-94.721 50.006c-3.881-32.808-5.821-56.62-5.821-71.438 0-14.816 1.94-38.628 5.82-71.437l94.72 50.006c7.41 3.88 16.582 5.91 27.518 6.086l148.148 4.762c4.41 0 6.615 3.528 6.615 10.583zm0 147.108c0 7.055-2.205 10.583-6.615 10.583l-148.148 4.763c-10.936.176-20.108 2.204-27.516 6.085l-94.721 50.006c-3.881-32.808-5.821-56.62-5.821-71.437s1.94-38.63 5.82-71.438l94.722 50.007c7.408 3.88 16.58 5.908 27.516 6.085l148.148 4.763c4.41 0 6.615 3.528 6.615 10.583z" />
</svg>