<svg xmlns="http://www.w3.org/2000/svg" viewBox="0 0 541.867 541.867" height="2048" width="2048">
   <path d="M62.177 537.634l-3.44-6.269q31.221-36.71 108.744-105.954 77.523-69.243 103.452-83.57 25.93 14.327 103.452 83.57 77.523 69.244 108.744 105.954l-3.44 6.269q-40.745-17.014-115.887-42.382-79.904-27.16-92.869-27.16-12.964 0-92.868 27.16-75.142 25.37-115.888 42.38zM448.204 244.476c0 7.055-2.205 10.583-6.615 10.583l-230.452 4.763c-10.936.176-20.108 2.204-27.516 6.085l-94.72 50.006c-3.881-32.808-5.822-56.62-5.822-71.437s1.94-38.63 5.82-71.438l94.722 50.007c7.408 3.88 16.58 5.908 27.516 6.085l230.452 4.763c4.41 0 6.615 3.527 6.615 10.583zM448.204 75.671c0 7.056-2.205 10.583-6.615 10.583l-230.452 4.762c-10.936.177-20.108 2.206-27.516 6.086l-94.72 50.006c-3.881-32.808-5.822-56.62-5.822-71.438 0-14.816 1.94-38.628 5.82-71.437L183.62 54.24c7.409 3.881 16.581 5.91 27.517 6.086l230.452 4.762c4.41 0 6.615 3.528 6.615 10.583z" />
</svg>