<svg xmlns="http://www.w3.org/2000/svg" height="2048" width="2048" viewBox="-10 0 2048 2048">
   <path d="M225 2032l-13-21q118-123 411-355t391-280q98 48 391 280t411 355l-13 21q-154-57-438-142-302-91-351-91t-351 91q-284 85-438 142zM744 1371c-26.667 0-40-8.333-40-25l-7-851c-.667-34-10.667-69.333-30-106L482 37c118-14 205.333-21 262-21s144 7 262 21L821 389c-19.333 36.667-29.333 72-30 106l-7 851c0 16.667-13.333 25-40 25zM1284 1371c-26.667 0-40-8.333-40-25l-7-851c-.667-34-10.667-69.333-30-106L1022 37c118-14 205.333-21 262-21s144 7 262 21l-185 352c-19.333 36.667-29.333 72-30 106l-7 851c0 16.667-13.333 25-40 25z" />
</svg>