<svg xmlns="http://www.w3.org/2000/svg" width="2048" height="2048" viewBox="0 0 541.867 541.867">
   <path d="M150.266 181.24l-40.453 93.133c-3.353 7.76-5.102 17.11-5.248 28.046l-2.843 196.056c0 4.41-2.915 6.615-8.746 6.615s-8.747-2.205-8.747-6.615l-2.842-196.056c-.146-10.936-1.895-20.285-5.248-28.046L35.686 181.24c25.802-3.705 44.899-5.557 57.29-5.557 12.391 0 31.488 1.852 57.29 5.557zM151.14 101.335c0 8.114-2.405 12.348-7.215 12.7-7.872.353-13.193.882-15.963 1.588-4.956 1.058-10.058 3.263-15.306 6.615L36.56 170.92c-3.208-32.632-4.811-55.827-4.811-69.586 0-13.758 1.603-36.953 4.81-69.585l76.096 48.683c7.434 4.763 17.857 7.497 31.269 8.202 4.81.353 7.216 4.586 7.216 12.7zM281.99 101.335c0 8.114-2.406 12.348-7.217 12.7-7.872.353-13.192.882-15.962 1.588-4.957 1.058-10.059 3.263-15.307 6.615L167.41 170.92c-3.207-32.632-4.81-55.827-4.81-69.586 0-13.758 1.603-36.953 4.81-69.585l76.095 48.683c7.435 4.763 17.858 7.497 31.27 8.202 4.81.353 7.215 4.586 7.215 12.7zm-3.937 79.905L237.6 274.373c-3.352 7.76-5.102 17.11-5.248 28.046l-2.842 196.056c0 4.41-2.916 6.615-8.747 6.615-5.83 0-8.746-2.205-8.746-6.615l-2.843-196.056c-.146-10.936-1.895-20.285-5.248-28.046l-40.453-93.133c25.803-3.705 44.9-5.557 57.29-5.557 12.391 0 31.488 1.852 57.29 5.557zM509.979 479.69l-4.593 3.44c-17.93-20.815-43.805-57.063-77.625-108.745-33.82-51.681-54.228-86.166-61.226-103.452 6.998-17.286 27.405-51.77 61.226-103.452 33.82-51.682 59.696-87.93 77.625-108.743l4.593 3.44c-8.31 27.163-18.66 65.792-31.05 115.887-13.267 53.269-19.899 84.225-19.899 92.868s6.632 39.6 19.898 92.87c12.391 50.093 22.742 88.723 31.05 115.887zM404.058 479.69l-4.592 3.44c-17.93-20.815-43.806-57.063-77.626-108.745-33.82-51.681-54.229-86.166-61.225-103.452 6.996-17.286 27.405-51.77 61.225-103.452 33.82-51.682 59.694-87.93 77.626-108.743l4.592 3.44c-8.31 27.163-18.66 65.792-31.05 115.887-13.266 53.269-19.9 84.225-19.9 92.868s6.634 39.6 19.9 92.87c12.39 50.093 22.74 88.723 31.049 115.887z" />
</svg>