<?xml version="1.0" encoding="UTF-8" standalone="no"?>
<svg
   xmlns:dc="http://purl.org/dc/elements/1.1/"
   xmlns:cc="http://creativecommons.org/ns#"
   xmlns:rdf="http://www.w3.org/1999/02/22-rdf-syntax-ns#"
   xmlns:svg="http://www.w3.org/2000/svg"
   xmlns="http://www.w3.org/2000/svg"
   xmlns:sodipodi="http://sodipodi.sourceforge.net/DTD/sodipodi-0.dtd"
   xmlns:inkscape="http://www.inkscape.org/namespaces/inkscape"
   sodipodi:docname="000-004-061_hyo.svg"
   inkscape:version="1.0 (4035a4fb49, 2020-05-01)"
   id="svg841"
   version="1.1"
   viewBox="0 0 541.86665 541.86668"
   height="2048"
   width="2048">
  <defs
     id="defs835" />
  <sodipodi:namedview
     inkscape:window-maximized="1"
     inkscape:window-y="-8"
     inkscape:window-x="-8"
     inkscape:window-height="1018"
     inkscape:window-width="1920"
     units="px"
     showgrid="false"
     inkscape:document-rotation="0"
     inkscape:current-layer="layer1"
     inkscape:document-units="px"
     inkscape:cy="1045.7143"
     inkscape:cx="1200"
     inkscape:zoom="0.35"
     inkscape:pageshadow="2"
     inkscape:pageopacity="0.0"
     borderopacity="1.0"
     bordercolor="#666666"
     pagecolor="#ffffff"
     id="base" />
  <metadata
     id="metadata838">
    <rdf:RDF>
      <cc:Work
         rdf:about="">
        <dc:format>image/svg+xml</dc:format>
        <dc:type
           rdf:resource="http://purl.org/dc/dcmitype/StillImage" />
        <dc:title></dc:title>
      </cc:Work>
    </rdf:RDF>
  </metadata>
  <g
     id="layer1"
     inkscape:groupmode="layer"
     inkscape:label="图层 1">
    <path
       d="m 535.51667,477.57291 -5.16655,3.43959 Q 500.08892,449.79166 443.0109,372.26875 385.93286,294.74583 374.12361,268.81666 385.93286,242.8875 443.0109,165.36458 500.08892,87.841673 530.35012,56.620833 l 5.16655,3.43959 q -14.02348,40.745827 -34.93569,115.887487 -22.38837,79.90417 -22.38837,92.86875 0,12.96459 22.38837,92.86875 20.91221,75.14167 34.93569,115.8875 z M 409.30538,197.37916 c 0,7.05556 -2.05022,10.58334 -6.15065,10.58334 l -12.54733,1.85208 c -8.36488,0.17639 -17.0578,2.82222 -26.07876,7.9375 L 277.92749,266.7 c -3.44437,-31.22083 -5.16654,-54.32778 -5.16654,-69.32084 0,-14.99305 1.72217,-38.1 5.16654,-69.32083 l 86.60115,48.94792 c 9.02096,5.11527 17.71388,7.76111 26.07876,7.9375 l 12.54733,1.85208 c 4.10043,0 6.15065,3.52778 6.15065,10.58333 z m 0,142.875 c 0,7.05556 -2.05022,10.58334 -6.15065,10.58334 l -12.54733,1.85208 c -8.36488,0.17639 -17.0578,2.82222 -26.07876,7.9375 L 277.92749,409.575 c -3.44437,-31.22083 -5.16654,-54.32778 -5.16654,-69.32084 0,-14.99305 1.72217,-38.1 5.16654,-69.32083 l 86.60115,48.94792 c 9.02096,5.11527 17.71388,7.76111 26.07876,7.9375 l 12.54733,1.85208 c 4.10043,0 6.15065,3.52778 6.15065,10.58333 z M 275.99452,101.33542 c 0,8.11397 -2.70629,12.34731 -8.11886,12.7 -8.85693,0.35269 -14.84349,0.88185 -17.9599,1.5875 -5.57667,1.05833 -11.31719,3.2631 -17.22182,6.61458 l -85.61705,48.68333 c -3.60846,-32.63185 -5.41256,-55.82708 -5.41256,-69.58541 0,-13.758337 1.8041,-36.953564 5.41256,-69.58542 l 85.61705,48.683333 c 8.36488,4.7625 20.09221,7.49644 35.18172,8.202083 5.41257,0.35269 8.11886,4.586023 8.11886,12.700004 z m -135.31432,0 c 0,8.11397 -2.70629,12.34731 -8.11886,12.7 -8.85694,0.35269 -14.84349,0.88185 -17.9599,1.5875 -5.57667,1.05833 -11.3172,3.2631 -17.221825,6.61458 L 11.762569,170.92083 C 8.1541091,138.28898 6.35,115.09375 6.35,101.33542 6.35,87.577083 8.1541091,64.381856 11.762569,31.75 l 85.617046,48.683333 c 8.364895,4.7625 20.092215,7.49644 35.181725,8.202083 5.41257,0.35269 8.11886,4.586023 8.11886,12.700004 z m 130.88585,79.90416 -45.51481,93.13334 c -3.77232,7.76102 -5.74052,17.10981 -5.90462,28.04583 L 216.94828,498.475 c 0,4.40981 -3.28026,6.61458 -9.84104,6.61458 -6.56078,0 -9.84104,-2.20477 -9.84104,-6.61458 l -3.19834,-196.05625 c -0.1641,-10.93602 -2.13231,-20.28481 -5.90462,-28.04583 l -45.51481,-93.13334 c 29.03106,-3.70416 50.51725,-5.55625 64.45881,-5.55625 13.94156,0 35.42774,1.85209 64.45881,5.55625 z m -131.86995,0 -45.51482,93.13334 c -3.772311,7.76102 -5.740513,17.10981 -5.904615,28.04583 L 85.078311,498.475 c 0,4.40981 -3.280255,6.61458 -9.841037,6.61458 -6.560769,0 -9.841034,-2.20477 -9.841034,-6.61458 L 62.197896,302.41875 C 62.033803,291.48273 60.065592,282.13394 56.293281,274.37292 L 10.778468,181.23958 c 29.031065,-3.70416 50.517257,-5.55625 64.458806,-5.55625 13.941571,0 35.427746,1.85209 64.458826,5.55625 z"
       style="stroke-width:0.255136"
       id="path2" />
  </g>
</svg>
