<svg xmlns="http://www.w3.org/2000/svg" viewBox="0 0 541.867 541.867" height="2048" width="2048">
   <path d="M238.553 37.306l-35.958 93.134c-2.98 7.76-4.535 17.11-4.664 28.045l-2.527 196.057c0 4.41-2.591 6.614-7.775 6.614-5.183 0-7.774-2.205-7.774-6.614l-2.527-196.057c-.13-10.936-1.684-20.284-4.665-28.045l-35.957-93.134c22.935-3.704 39.91-5.556 50.923-5.556 11.014 0 27.989 1.852 50.924 5.556zm-104.957 0L97.64 130.44c-2.98 7.76-4.535 17.11-4.665 28.045l-2.526 196.057c0 4.41-2.592 6.614-7.775 6.614s-7.774-2.205-7.774-6.614l-2.527-196.057c-.13-10.936-1.685-20.284-4.665-28.045L31.75 37.306c22.935-3.704 39.91-5.556 50.923-5.556 11.014 0 27.989 1.852 50.923 5.556zM189.574 440.796c0 7.055-2.205 10.583-6.615 10.583l-24.474 3.44c-11.112.176-20.46 2.293-28.045 6.35l-93.134 48.948c-3.704-31.221-5.556-54.328-5.556-69.321 0-14.993 1.852-38.1 5.556-69.321l93.134 48.948c7.584 4.057 16.933 6.173 28.045 6.35l24.474 3.44c4.41 0 6.615 3.527 6.615 10.583zM148.475 510.117l-3.035-5.557q27.539-32.543 95.918-93.927 68.379-61.383 91.25-74.083 22.87 12.7 91.249 74.083 68.379 61.384 95.917 93.927l-3.034 5.557q-35.94-15.082-102.218-37.571-70.479-24.077-81.915-24.077-11.435 0-81.914 24.077-66.278 22.49-102.218 37.57zM509.985 250.296c0 7.055-2.205 10.583-6.615 10.583l-136.738 4.763c-10.936.176-20.108 2.204-27.516 6.085l-94.72 50.006c-3.881-32.808-5.822-56.62-5.822-71.437s1.94-38.63 5.82-71.438l94.722 50.007c7.408 3.88 16.58 5.908 27.516 6.085l136.738 4.763c4.41 0 6.615 3.528 6.615 10.583zM509.985 103.188c0 7.055-2.205 10.583-6.615 10.583l-136.738 4.762c-10.936.177-20.108 2.205-27.516 6.086l-94.72 50.006c-3.881-32.808-5.822-56.62-5.822-71.438 0-14.816 1.94-38.628 5.82-71.437l94.721 50.006c7.409 3.88 16.581 5.91 27.517 6.086l136.738 4.762c4.41 0 6.615 3.528 6.615 10.583z" />
</svg>