<svg xmlns="http://www.w3.org/2000/svg" viewBox="0 0 541.867 541.867" height="2048" width="2048">
   <path d="M269.875 37.306l-41.403 93.134c-3.432 7.76-5.222 17.11-5.372 28.045l-2.909 196.057c0 4.41-2.984 6.614-8.952 6.614s-8.952-2.205-8.952-6.614l-2.91-196.057c-.149-10.936-1.94-20.284-5.37-28.045l-41.404-93.134c26.409-3.704 45.954-5.556 58.636-5.556 12.682 0 32.227 1.852 58.636 5.556zm-120.853 0L107.62 130.44c-3.432 7.76-5.222 17.11-5.371 28.045l-2.91 196.057c0 4.41-2.984 6.614-8.952 6.614s-8.952-2.205-8.952-6.614l-2.91-196.057c-.149-10.936-1.94-20.284-5.37-28.045L31.75 37.306c26.409-3.704 45.954-5.556 58.636-5.556 12.682 0 32.227 1.852 58.636 5.556zM274.24 440.796c0 7.055-2.204 10.583-6.614 10.583l-109.14 3.44c-11.113.176-20.462 2.293-28.046 6.35l-93.134 48.948c-3.704-31.221-5.556-54.328-5.556-69.321 0-14.993 1.852-38.1 5.556-69.321l93.134 48.948c7.584 4.057 16.933 6.173 28.045 6.35l109.141 3.44c4.41 0 6.615 3.527 6.615 10.583zM331.325 270.933c0 8.114-4.664 12.524-6.996 12.7-2.331.177-87.134 56.886-87.134 56.886-3.11-32.632-4.664-55.827-4.664-69.586 0-13.758 1.554-36.953 4.663-69.585 0 0 84.803 56.709 87.135 56.885 2.332.177 6.996 4.586 6.996 12.7zM402.135 37.571l-40.07 94.72c-3.108 7.409-4.735 16.58-4.875 27.517l-3.816 343.562c0 4.41-2.827 6.615-8.48 6.615-5.654 0-8.48-2.205-8.48-6.615l-3.817-343.562c-.141-10.936-1.766-20.108-4.876-27.516L287.652 37.57c26.289-3.881 45.369-5.821 57.241-5.821 11.873 0 30.954 1.94 57.242 5.82zM497.113 479.69l-4.452 3.44q-26.076-31.222-75.262-108.745-49.185-77.522-59.36-103.452 10.175-25.93 59.36-103.452 49.185-77.523 75.262-108.743l4.453 3.44q-12.085 40.745-30.105 115.887-19.292 79.904-19.292 92.868 0 12.965 19.292 92.87 18.02 75.14 30.104 115.887z" />
</svg>