<svg xmlns="http://www.w3.org/2000/svg" viewBox="0 0 541.867 541.867" height="2048" width="2048">
   <path d="M62.177 510.117l-3.44-5.557q31.221-32.543 108.744-93.927 77.523-61.383 103.452-74.083 25.93 12.7 103.452 74.083 77.523 61.384 108.744 93.927l-3.44 5.557q-40.745-15.082-115.887-37.571-79.904-24.077-92.869-24.077-12.964 0-92.868 24.077-75.142 22.49-115.888 37.57zM515.938 92.604q0 9.016-5.614 9.016l-123.717 2.028q-10.104.225-23.351 7.212l-80.382 42.598q-2.021-16.002-4.716-48.007l-17.289.226q-13.92.225-23.35 5.183l-80.383 42.598q-2.021-16.002-4.715-48.007l-17.29.226q-13.92.225-23.35 5.183l-80.383 42.598q-4.94-41.921-4.94-60.854 0-18.932 4.94-60.854l80.382 42.598q9.43 4.958 23.352 5.184l17.289.225q.673-13.298 4.715-48.007l80.382 42.598q9.43 4.958 23.351 5.184l17.29.225q.673-13.298 4.715-48.007l80.382 42.598q13.247 6.987 23.351 7.212l123.717 2.029q5.614 0 5.614 9.015z" />
</svg>