<svg xmlns="http://www.w3.org/2000/svg" viewBox="0 0 541.867 541.867" height="2048" width="2048">
   <path d="M248.708 62.442l-50.006 94.72c-3.88 7.409-5.909 16.581-6.085 27.517l-4.763 293.952c0 4.41-3.528 6.615-10.583 6.615-7.056 0-10.583-2.205-10.583-6.615l-4.763-293.952c-.176-10.936-2.205-20.108-6.085-27.516l-50.007-94.721c32.809-3.881 56.621-5.821 71.438-5.821s38.629 1.94 71.437 5.82zm-87.18 149.225c0 5.386-4.41 8.079-6.614 8.079-2.205 0-117.608 44.837-117.608 44.837-3.704-23.832-5.556-41.471-5.556-52.916s1.852-29.084 5.556-52.917c0 0 115.403 44.838 117.608 44.838 2.204 0 6.614 2.693 6.614 8.079zm0 105.833c0 5.386-4.41 8.079-6.614 8.079-2.205 0-117.608 44.838-117.608 44.838-3.704-23.833-5.556-41.472-5.556-52.917s1.852-29.084 5.556-52.917c0 0 115.403 44.838 117.608 44.838 2.204 0 6.614 2.693 6.614 8.079zm0 105.833c0 5.386-4.41 8.08-6.614 8.08-2.205 0-117.608 44.837-117.608 44.837-3.704-23.833-5.556-41.472-5.556-52.917s1.852-29.084 5.556-52.916c0 0 115.403 44.837 117.608 44.837 2.204 0 6.614 2.693 6.614 8.08zM510.117 479.69l-5.557 3.44q-32.543-31.222-93.927-108.745-61.383-77.522-74.083-103.452 12.7-25.929 74.083-103.452 61.384-77.523 93.927-108.743l5.557 3.44q-15.082 40.745-37.571 115.887-24.077 79.904-24.077 92.868 0 12.965 24.077 92.87 22.49 75.14 37.57 115.887z" />
</svg>