<svg xmlns="http://www.w3.org/2000/svg" viewBox="0 0 541.867 541.867" height="2048" width="2048">
   <path d="M62.177 510.117l-3.44-5.557q31.221-32.543 108.744-93.927 77.523-61.383 103.452-74.083 25.93 12.7 103.452 74.083 77.523 61.384 108.744 93.927l-3.44 5.557q-40.745-15.082-115.887-37.571-79.904-24.077-92.869-24.077-12.964 0-92.868 24.077-75.142 22.49-115.888 37.57zM62.442 245.004l94.72-50.006c7.409-3.88 16.581-5.909 27.517-6.085l293.952-4.763c4.41 0 6.615-3.528 6.615-10.583 0-7.056-2.205-10.584-6.615-10.584l-293.952-4.762c-10.936-.177-20.108-2.205-27.516-6.086L62.442 102.13c-3.881 32.808-5.821 56.621-5.821 71.438 0 14.816 1.94 38.629 5.82 71.437zm208.491-85.857c8.114 0 12.348-2.91 12.7-8.731L340.52 37.57c-32.632-3.88-55.827-5.821-69.586-5.821-13.758 0-36.953 1.94-69.585 5.82l56.885 112.846c.353 5.82 4.586 8.73 12.7 8.73z" />
</svg>