<svg xmlns="http://www.w3.org/2000/svg" width="2048" height="2048" viewBox="0 0 541.867 541.867">
   <path d="M510.117 533.31l-5.557 4.324c-21.695-26.162-53.004-71.72-93.927-136.677C369.711 336 345.017 292.658 336.55 270.932c8.467-21.726 33.161-65.067 74.083-130.024C451.556 75.95 482.865 30.392 504.56 4.233l5.557 4.324c-10.055 34.14-22.578 82.691-37.571 145.653-16.052 66.952-24.077 105.86-24.077 116.722 0 10.863 8.025 49.772 24.077 116.725 14.993 62.96 27.517 111.512 37.57 145.653zM372.533 533.31l-5.556 4.324c-21.696-26.162-53.005-71.72-93.927-136.677-40.922-64.956-65.617-108.299-74.083-130.025 8.466-21.726 33.16-65.067 74.083-130.024C313.972 75.95 345.281 30.392 366.977 4.233l5.556 4.324c-10.054 34.14-22.577 82.691-37.57 145.653-16.052 66.952-24.078 105.86-24.078 116.722 0 10.863 8.026 49.772 24.077 116.725 14.994 62.96 27.517 111.512 37.571 145.653zM287.338 73.818c0 8.114-2.91 12.348-8.732 12.7-9.525.353-127.088.882-130.439 1.588-5.998 1.058-12.171 3.263-18.521 6.614L37.57 143.404c-3.88-32.632-5.821-55.827-5.821-69.586 0-13.758 1.94-36.953 5.82-69.585l92.076 48.683c8.996 4.763 132.733 7.497 148.96 8.202 5.821.353 8.731 4.586 8.731 12.7zM206.904 162.718l-48.948 93.134c-4.057 7.76-6.173 17.11-6.35 28.046l-3.44 248.047c0 4.41-3.527 6.614-10.583 6.614-7.055 0-10.583-2.204-10.583-6.614l-3.44-248.047c-.176-10.936-2.293-20.285-6.35-28.046l-48.947-93.134c31.22-3.704 54.327-5.556 69.32-5.556 14.993 0 38.1 1.852 69.321 5.556z" />
</svg>