<svg xmlns="http://www.w3.org/2000/svg" viewBox="0 0 541.867 541.867" height="2048" width="2048">
   <path d="M504.826 533.31l-5.557 4.324q-32.543-39.242-93.927-136.677-61.383-97.434-74.083-130.025 12.7-32.589 74.083-130.024 61.384-97.436 93.927-136.675l5.557 4.324q-15.082 51.21-37.571 145.653-24.077 100.428-24.077 116.722 0 16.295 24.077 116.725 22.49 94.44 37.57 145.653zM187.854 11.477l-50.006 117.874q-5.82 13.83-6.086 34.244L127 529.402q0 8.232-10.583 8.232-10.584 0-10.584-8.232l-4.762-365.806q-.265-20.414-6.086-34.244L44.98 11.477q49.212-7.244 71.438-7.244 22.224 0 71.437 7.243zM334.962 11.477l-50.006 117.874q-5.82 13.83-6.085 34.244l-4.763 365.807q0 8.232-10.583 8.232t-10.583-8.232l-4.762-365.806q-.265-20.414-6.085-34.244L192.088 11.478q49.213-7.243 71.438-7.243t71.437 7.242z" />
</svg>