<svg xmlns="http://www.w3.org/2000/svg" viewBox="0 0 541.867 541.867" height="2048" width="2048">
   <path d="M334.169 257.043c8.114 0 12.347-2.91 12.7-8.732l56.885-112.844c-32.632-3.881-55.827-5.821-69.585-5.821-13.759 0-36.954 1.94-69.586 5.82l56.886 112.845c.352 5.821 4.586 8.732 12.7 8.732zM37.57 174.625l94.722-50.006c7.408-3.88 16.58-5.91 27.516-6.086l293.952-4.762c4.41 0 6.615-3.528 6.615-10.583 0-7.056-2.205-10.584-6.615-10.584l-293.952-4.762c-10.936-.177-20.108-2.205-27.516-6.086L37.57 31.75c-3.88 32.808-5.821 56.62-5.821 71.438 0 14.816 1.94 38.629 5.82 71.437zM207.698 507.206l-4.498 2.91c-29.457-26.634-64.382-60.589-104.775-101.864-20.637-21.167-32.191-33.073-34.66-35.719-13.053-13.758-23.725-26.458-32.015-38.1 10.407-14.464 32.632-39.07 66.675-73.818 40.393-41.275 75.318-75.23 104.775-101.865l4.498 2.91c-10.23 26.635-18.962 49.919-26.194 69.85-11.994 32.632-18.168 49.566-18.52 50.8-6.703 19.58-11.466 36.954-14.288 52.123 3.351 18.168 14.287 52.476 32.808 102.923 7.232 19.932 15.963 43.215 26.194 69.85zM512.498 507.206l-4.498 2.91c-29.457-26.634-64.382-60.589-104.775-101.864-20.638-21.167-32.191-33.073-34.66-35.719-13.053-13.758-23.725-26.458-32.015-38.1 10.407-14.464 32.632-39.07 66.675-73.818C443.618 219.34 478.543 185.385 508 158.75l4.498 2.91c-10.23 26.635-18.962 49.919-26.194 69.85-11.994 32.632-18.168 49.566-18.52 50.8-6.703 19.58-11.466 36.954-14.288 52.123 3.351 18.168 14.287 52.476 32.808 102.923 7.232 19.932 15.963 43.215 26.194 69.85z" />
</svg>