<svg xmlns="http://www.w3.org/2000/svg" viewBox="0 0 541.867 541.867" height="2048" width="2048">
   <path d="M255.59 73.818c0 8.114-2.91 12.348-8.733 12.7-9.525.353-95.338.882-98.689 1.588-5.998 1.058-12.171 3.263-18.521 6.614l-92.076 48.684c-3.88-32.632-5.821-55.827-5.821-69.586 0-13.758 1.94-36.953 5.82-69.585l92.076 48.683c8.996 4.763 100.983 7.497 117.21 8.202 5.821.353 8.731 4.586 8.731 12.7zM191.558 164.306L142.61 257.44c-4.057 7.76-6.173 17.11-6.35 28.046l-3.44 246.46c0 4.41-3.527 6.613-10.583 6.613-7.055 0-10.583-2.204-10.583-6.614l-3.44-246.459c-.176-10.936-2.293-20.285-6.35-28.046l-48.947-93.134c31.22-3.704 54.327-5.556 69.32-5.556 14.993 0 38.1 1.852 69.32 5.556zM510.117 397.822l-4.437 3.287c-29.058-30.084-63.51-68.437-103.357-115.058-20.358-23.909-31.755-37.357-34.191-40.345-12.876-15.54-23.404-29.885-31.582-43.035 10.266-16.337 32.19-44.13 65.773-83.379C442.169 72.671 476.622 34.318 505.68 4.233l4.437 3.287c-10.092 30.085-18.705 56.385-25.84 78.897-11.831 36.859-17.922 55.986-18.269 57.38-6.612 22.116-11.31 41.74-14.094 58.874 3.304 20.521 14.093 59.273 32.363 116.254 7.135 22.513 15.747 48.812 25.84 78.897zM366.713 397.822l-4.437 3.287c-29.059-30.084-63.511-68.437-103.357-115.058-20.358-23.909-31.755-37.357-34.191-40.345-12.877-15.54-23.404-29.885-31.582-43.035 10.266-16.337 32.19-44.13 65.773-83.379 39.846-46.621 74.298-84.974 103.357-115.059l4.437 3.287c-10.092 30.085-18.706 56.385-25.84 78.897-11.831 36.859-17.922 55.986-18.27 57.38-6.611 22.116-11.31 41.74-14.094 58.874 3.305 20.521 14.094 59.273 32.364 116.254 7.134 22.513 15.747 48.812 25.84 78.897zM509.985 466.197c0 7.055-2.205 10.583-6.615 10.583l-47.228 2.38c-7.937.177-17.11 3-27.517 8.468l-94.72 50.006c-1.588-12.524-3.44-31.31-5.557-56.356l-20.373.264c-10.936.176-20.108 2.205-27.517 6.086l-94.72 50.006c-3.88-32.808-5.821-56.621-5.821-71.438s1.94-38.63 5.82-71.437l94.72 50.006c7.41 3.88 16.582 5.909 27.518 6.086l20.373.264c.53-10.407 2.38-29.192 5.556-56.356l94.72 50.006c10.408 5.468 19.58 8.29 27.518 8.467l47.228 2.38c4.41 0 6.615 3.528 6.615 10.584z" />
</svg>