<svg xmlns="http://www.w3.org/2000/svg" viewBox="0 0 541.867 541.867" height="2048" width="2048">
   <path d="M170.392 37.306l-48.948 93.134c-4.057 7.76-6.174 17.11-6.35 28.045l-3.44 196.057c0 4.41-3.528 6.614-10.583 6.614-7.056 0-10.583-2.205-10.583-6.614l-3.44-196.057c-.177-10.936-2.293-20.284-6.35-28.045L31.75 37.306c31.22-3.704 54.328-5.556 69.32-5.556 14.994 0 38.1 1.852 69.322 5.556zM176.213 440.531c0 8.114-2.91 12.348-8.732 12.7-9.525.353-15.963.882-19.314 1.588-5.998 1.058-12.171 3.263-18.521 6.614L37.57 510.117c-3.88-32.632-5.821-55.827-5.821-69.586 0-13.758 1.94-36.953 5.82-69.585l92.076 48.683c8.996 4.763 21.608 7.497 37.835 8.202 5.821.353 8.731 4.586 8.731 12.7zM510.117 479.69l-5.557 3.44q-32.543-31.222-93.927-108.745-61.383-77.522-74.083-103.452 12.7-25.93 74.083-103.452 61.384-77.523 93.927-108.743l5.557 3.44q-15.082 40.745-37.571 115.887-24.077 79.904-24.077 92.868 0 12.965 24.077 92.87 22.49 75.14 37.57 115.887zM359.994 37.571l-32.194 94.72c-2.498 7.409-3.804 16.58-3.918 27.517l-3.066 343.562c0 4.41-2.271 6.615-6.814 6.615-4.542 0-6.813-2.205-6.813-6.615l-3.066-343.561c-.114-10.936-1.42-20.108-3.917-27.517l-32.195-94.72c21.122-3.88 36.453-5.821 45.992-5.821 9.539 0 24.87 1.94 45.991 5.82zm-94.709 0l-32.194 94.72c-2.498 7.409-3.804 16.58-3.918 27.517l-3.066 343.562c0 4.41-2.271 6.615-6.813 6.615-4.543 0-6.814-2.205-6.814-6.615l-3.066-343.561c-.114-10.936-1.42-20.108-3.918-27.517L173.302 37.57c21.122-3.88 36.453-5.821 45.992-5.821 9.539 0 24.87 1.94 45.992 5.82z" />
</svg>