<svg xmlns="http://www.w3.org/2000/svg" width="2048" height="2048" viewBox="0 0 541.867 541.867">
   <path d="M174.624 195.862l-50.005 117.875q-8.202 19.426-8.467 34.243l-2.381 181.422q0 8.232-10.583 8.232-10.584 0-10.584-8.232L90.223 347.98q-.265-14.816-8.467-34.243L31.75 195.864q18.785-2.964 56.356-6.915l-.264-25.353q-.265-20.414-6.086-34.244L31.75 11.477q49.212-7.244 71.438-7.244 22.224 0 71.437 7.243l-50.006 117.875q-5.821 13.83-6.086 34.243l-.264 25.354q15.61.988 56.356 6.914zM510.117 530.72L504.56 535q-32.543-38.854-93.927-135.327-61.383-96.472-74.083-128.74 12.7-32.267 74.083-128.74Q472.017 45.719 504.56 6.868l5.557 4.28q-15.082 50.706-37.57 144.216-24.078 99.436-24.078 115.569 0 16.134 24.077 115.572 22.49 93.507 37.57 144.215zM342.37 195.862l-50.005 117.874q-8.202 19.425-8.467 34.244l-2.381 181.422q0 8.232-10.583 8.232-10.584 0-10.584-8.232l-2.381-181.422q-.265-14.816-8.467-34.243l-50.006-117.874q18.785-2.963 56.356-6.914l-.264-25.353q-.265-20.414-6.086-34.244L199.496 11.477q49.212-7.244 71.438-7.244 22.224 0 71.437 7.243L292.365 129.35q-5.821 13.83-6.086 34.245l-.264 25.353q15.61.988 56.356 6.914z" />
</svg>