<svg xmlns="http://www.w3.org/2000/svg" viewBox="0 0 541.867 541.867" height="2048" width="2048">
   <path d="M62.177 510.117l-3.44-5.557q31.221-32.543 108.744-93.927 77.523-61.383 103.452-74.083 25.93 12.7 103.452 74.083 77.523 61.384 108.744 93.927l-3.44 5.557q-40.745-15.082-115.887-37.571-79.904-24.077-92.869-24.077-12.964 0-92.868 24.077-75.142 22.49-115.888 37.57zM62.442 245.798l94.72-50.006c7.409-3.881 16.581-5.91 27.517-6.086l293.952-4.762c4.41 0 6.615-3.528 6.615-10.584 0-7.055-2.205-10.583-6.615-10.583l-293.952-4.762c-10.936-.177-20.108-2.205-27.517-6.086l-94.72-50.006c-3.881 32.808-5.821 56.62-5.821 71.437s1.94 38.63 5.82 71.438zm137.054-87.445c7.055 0 10.76-4.762 10.848-7.144.088-2.38 58.473-113.903 58.473-113.903-31.221-3.704-54.328-5.556-69.321-5.556-14.993 0-38.1 1.852-69.321 5.556 0 0 58.385 111.522 58.473 113.903.088 2.382 3.792 7.144 10.848 7.144zm142.875 0c7.055 0 10.76-4.762 10.848-7.144.088-2.38 58.473-113.903 58.473-113.903-31.221-3.704-54.328-5.556-69.321-5.556-14.993 0-38.1 1.852-69.321 5.556 0 0 58.385 111.522 58.473 113.903.088 2.382 3.792 7.144 10.848 7.144z" />
</svg>