<svg xmlns="http://www.w3.org/2000/svg" viewBox="0 0 541.867 541.867" height="2048" width="2048">
   <path d="M630.655 191.03c-11.176-35.539-21.893-71.228-33.368-106.666-3.475-11.293-11.363-20.1-19.612-28.163-11.748-12.295-23.77-24.347-35.346-36.795-2.935-7.498 8.797-19.26 15.942-13.752 15.443 14.794 30.64 29.856 46.242 44.476 13.964 10.693 31.712 13.552 47.973 19.188l76.177 23.692c-20.966 26.473-42.212 53.151-68.786 74.3-9.593 8.087-19.37 15.951-29.222 23.72zM334.962 11.477l-50.006 117.874q-5.82 13.83-6.085 34.244l-4.763 365.807q0 8.232-10.583 8.232t-10.583-8.232l-4.762-365.806q-.265-20.414-6.085-34.244L192.088 11.478q49.213-7.243 71.438-7.243t71.437 7.242zM187.854 11.477l-50.006 117.874q-5.82 13.83-6.086 34.244L127 529.402q0 8.232-10.583 8.232-10.584 0-10.584-8.232l-4.762-365.806q-.265-20.414-6.086-34.244L44.98 11.477q49.212-7.244 71.438-7.244 22.224 0 71.437 7.243zM504.826 533.31l-5.557 4.324q-32.543-39.242-93.927-136.677-61.383-97.434-74.083-130.025 12.7-32.589 74.083-130.024 61.384-97.436 93.927-136.675l5.557 4.324q-15.082 51.21-37.571 145.653-24.077 100.428-24.077 116.722 0 16.295 24.077 116.725 22.49 94.44 37.57 145.653z" />
</svg>