<svg xmlns="http://www.w3.org/2000/svg" viewBox="0 0 541.867 541.867" height="2048" width="2048">
   <path d="M510.117 75.671c0 7.408-2.293 11.113-6.88 11.113l-167.292 4.233c-10.936.176-20.108 2.205-27.517 6.085l-94.72 50.006c-3.881-32.808-5.821-56.62-5.821-71.437s1.94-38.63 5.82-71.438l94.721 50.007c7.409 3.88 16.581 5.91 27.517 6.085l167.292 4.233c4.587 0 6.88 3.705 6.88 11.113zM506.942 525.661l-4.437 3.506c-29.058-32.09-63.51-73-103.357-122.728-20.359-25.502-31.755-39.847-34.191-43.035-12.876-16.576-23.404-31.877-31.582-45.904 10.266-17.426 32.19-47.072 65.773-88.939 39.846-49.729 74.299-90.638 103.357-122.728l4.437 3.506c-10.093 32.09-18.705 60.143-25.84 84.157-11.831 39.316-17.922 59.717-18.269 61.205-6.613 23.59-11.31 44.523-14.095 62.8 3.306 21.888 14.094 63.223 32.364 124.003 7.135 24.015 15.747 52.067 25.84 84.157zM348.192 525.661l-4.437 3.506c-29.059-32.09-63.51-73-103.357-122.728-20.359-25.502-31.756-39.847-34.191-43.035-12.877-16.576-23.404-31.877-31.582-45.904 10.266-17.426 32.19-47.072 65.773-88.939 39.846-49.729 74.298-90.638 103.357-122.728l4.437 3.506c-10.093 32.09-18.705 60.143-25.84 84.157-11.831 39.316-17.922 59.717-18.27 61.205-6.612 23.59-11.31 44.523-14.094 62.8 3.306 21.888 14.094 63.223 32.364 124.003 7.135 24.015 15.747 52.067 25.84 84.157zM113.771 529.402c0 5.488-3.528 8.232-10.583 8.232-7.056 0-10.584-2.744-10.584-8.232l-4.762-365.806c-.177-13.61-2.205-25.024-6.086-34.244L31.75 11.477c32.808-4.828 56.62-7.244 71.438-7.244 14.816 0 38.628 2.415 71.437 7.243l-50.006 117.875c-3.88 9.22-5.91 20.634-6.086 34.244z" />
</svg>