<?xml version="1.0" encoding="UTF-8" standalone="no"?>
<svg
   xmlns:dc="http://purl.org/dc/elements/1.1/"
   xmlns:cc="http://creativecommons.org/ns#"
   xmlns:rdf="http://www.w3.org/1999/02/22-rdf-syntax-ns#"
   xmlns:svg="http://www.w3.org/2000/svg"
   xmlns="http://www.w3.org/2000/svg"
   xmlns:sodipodi="http://sodipodi.sourceforge.net/DTD/sodipodi-0.dtd"
   xmlns:inkscape="http://www.inkscape.org/namespaces/inkscape"
   inkscape:version="1.0 (4035a4fb49, 2020-05-01)"
   sodipodi:docname="000-004-059_part-13.svg"
   id="svg4"
   version="1.1"
   viewBox="-10 0 2048 2048"
   width="2048"
   height="2048">
  <metadata
     id="metadata10">
    <rdf:RDF>
      <cc:Work
         rdf:about="">
        <dc:format>image/svg+xml</dc:format>
        <dc:type
           rdf:resource="http://purl.org/dc/dcmitype/StillImage" />
      </cc:Work>
    </rdf:RDF>
  </metadata>
  <defs
     id="defs8" />
  <sodipodi:namedview
     inkscape:current-layer="svg4"
     inkscape:window-maximized="1"
     inkscape:window-y="-8"
     inkscape:window-x="-8"
     inkscape:cy="794.03222"
     inkscape:cx="848.65894"
     inkscape:zoom="0.22330066"
     showgrid="false"
     id="namedview6"
     inkscape:window-height="1018"
     inkscape:window-width="1920"
     inkscape:pageshadow="2"
     inkscape:pageopacity="0"
     guidetolerance="10"
     gridtolerance="10"
     objecttolerance="10"
     borderopacity="1"
     bordercolor="#666666"
     pagecolor="#ffffff" />
  <path
     sodipodi:nodetypes="czzzcscczzzcsc"
     id="path2"
     fill="currentColor"
     d="m 1562,142 -230,430.5 c -3.8229,7.40488 -13.333,25 -40,25 -26.667,0 -36.1771,-17.59512 -40,-25 L 1022,142 c 124,-14.667 214,-22 270,-22 56,0 146,7.333 270,22 z m -556,0 -230,430.5 c -3.82295,7.40488 -13.333,25 -40,25 -26.667,0 -36.17705,-17.59512 -40,-25 L 466,142 c 124,-14.667 214,-22 270,-22 56,0 146,7.333 270,22 z" />
</svg>
