<svg xmlns="http://www.w3.org/2000/svg" viewBox="0 0 541.867 541.867" height="2048" width="2048">
   <path d="M329.142 261.805c8.114 0 12.347-2.91 12.7-8.731l56.885-112.845c-32.632-3.88-55.827-5.82-69.585-5.82-13.759 0-36.954 1.94-69.586 5.82l56.886 112.845c.352 5.82 4.586 8.731 12.7 8.731zM37.57 174.625l94.722-50.006c7.408-3.88 16.58-5.91 27.516-6.086l293.952-4.762c4.41 0 6.615-3.528 6.615-10.583 0-7.056-2.205-10.584-6.615-10.584l-293.952-4.762c-10.936-.177-20.108-2.205-27.516-6.086L37.57 31.75c-3.88 32.808-5.821 56.62-5.821 71.438 0 14.816 1.94 38.629 5.82 71.437zM155.046 295.804c0 8.114-5.821 12.524-8.731 12.7-2.91.177-108.744 56.885-108.744 56.885-3.88-32.632-5.821-55.826-5.821-69.585 0-13.758 1.94-36.953 5.82-69.585 0 0 105.834 56.709 108.745 56.885 2.91.177 8.73 4.586 8.73 12.7zM254 140.23l-50.007 94.72c-3.88 7.408-5.91 16.58-6.085 27.516l-4.762 240.904c0 4.41-3.528 6.615-10.584 6.615-7.055 0-10.583-2.205-10.583-6.615l-4.763-240.904c-.176-10.936-2.204-20.108-6.085-27.516l-50.006-94.72c32.808-3.882 56.62-5.822 71.437-5.822s38.63 1.94 71.438 5.82zM510.116 504.56L504.56 508q-32.543-31.222-93.927-108.745-61.383-77.521-74.083-103.451 12.7-25.93 74.083-103.452 61.383-77.523 93.927-108.743l5.557 3.44q-15.082 40.745-37.571 115.887-24.077 79.904-24.077 92.868 0 12.965 24.077 92.87 22.49 75.14 37.57 115.886z" />
</svg>