<svg xmlns="http://www.w3.org/2000/svg" width="2048" height="2048" viewBox="0 0 541.867 541.867">
   <path d="M443.971 533.31l-5.557 4.324c-21.695-26.162-53.004-71.72-93.927-136.677C303.565 336 278.871 292.66 270.404 270.932c8.467-21.726 33.161-65.067 74.083-130.024C385.41 75.95 416.719 30.392 438.414 4.233l5.557 4.324c-10.054 34.14-22.578 82.691-37.57 145.653-16.052 66.953-24.078 105.86-24.078 116.722 0 10.863 8.026 49.772 24.077 116.725 14.994 62.96 27.517 111.51 37.57 145.653zM348.193 73.818c0 8.114-2.91 12.348-8.732 12.7-9.525.353-121.796.882-125.147 1.588-5.998 1.058-12.171 3.263-18.521 6.614l-92.076 48.684c-3.88-32.632-5.821-55.827-5.821-69.586 0-13.758 1.94-36.953 5.82-69.585l92.076 48.683c8.996 4.763 127.441 7.497 143.668 8.202 5.821.353 8.731 4.586 8.731 12.7zM283.634 153.722l-48.948 93.134c-4.057 7.76-6.173 17.11-6.35 28.046l-3.44 257.043c0 4.41-3.527 6.614-10.583 6.614-7.055 0-10.583-2.204-10.583-6.614l-3.44-257.043c-.176-10.936-2.293-20.285-6.35-28.046l-48.947-93.134c31.22-3.704 54.327-5.556 69.32-5.556 14.993 0 38.1 1.852 69.321 5.556z" />
</svg>