<svg xmlns="http://www.w3.org/2000/svg" width="2048" height="2048" viewBox="0 0 541.867 541.867">
   <path d="M372.533 533.31l-5.556 4.324c-21.696-26.162-53.005-71.72-93.927-136.677-40.922-64.956-65.617-108.299-74.083-130.025 8.466-21.726 33.16-65.067 74.083-130.024C313.972 75.95 345.281 30.392 366.977 4.233l5.556 4.324c-10.054 34.14-22.577 82.691-37.57 145.653-16.052 66.952-24.078 105.86-24.078 116.722 0 10.863 8.026 49.772 24.077 116.725 14.994 62.96 27.517 111.512 37.571 145.653zM510.117 533.31l-5.557 4.324c-21.695-26.162-53.004-71.72-93.927-136.677C369.711 336 345.017 292.658 336.55 270.932c8.467-21.726 33.161-65.067 74.083-130.024C451.556 75.95 482.865 30.392 504.56 4.233l5.557 4.324c-10.055 34.14-22.578 82.691-37.571 145.653-16.052 66.952-24.077 105.86-24.077 116.722 0 10.863 8.025 49.772 24.077 116.725 14.993 62.96 27.517 111.512 37.57 145.653zM157.956 342.371c0 7.055-4.762 10.76-7.144 10.848-2.38.088-113.506 58.473-113.506 58.473-3.704-31.221-5.556-54.328-5.556-69.321 0-14.993 1.852-38.1 5.556-69.321 0 0 111.125 58.385 113.506 58.473 2.382.088 7.144 3.792 7.144 10.848zM157.956 199.496c0 7.055-4.762 10.76-7.144 10.848-2.38.088-113.506 58.473-113.506 58.473-3.704-31.221-5.556-54.328-5.556-69.321 0-14.993 1.852-38.1 5.556-69.321 0 0 111.125 58.385 113.506 58.473 2.382.088 7.144 3.792 7.144 10.848zM246.856 11.477L196.85 129.351c-3.88 9.22-5.91 20.634-6.085 34.244l-4.763 365.807c0 5.488-3.528 8.232-10.583 8.232-7.056 0-10.584-2.744-10.584-8.232l-4.762-365.808c-.177-13.609-2.205-25.023-6.085-34.242L103.98 11.477c32.809-4.83 56.621-7.244 71.438-7.244 14.816 0 38.629 2.415 71.437 7.243z" />
</svg>