<svg xmlns="http://www.w3.org/2000/svg" viewBox="0 0 541.867 541.867" height="2048" width="2048">
   <path d="M174.625 62.442l-50.006 94.72q-4.498 8.203-5.821 21.96 17.198.795 54.504 5.293l-50.006 94.72q-6.35 11.907-6.88 29.105 14.024.529 55.563 5.556l-50.006 94.72q-7.144 13.759-7.408 23.284l-.794 46.831q0 6.615-10.584 6.615-10.583 0-10.583-6.615L91.81 431.8q-.264-9.525-7.408-23.283l-50.006-94.721q18.52-2.381 55.562-5.556-.529-17.198-6.879-29.105l-50.006-94.72q18.256-2.117 54.504-5.292-1.323-13.758-5.82-21.96L31.75 62.441q49.212-5.821 71.438-5.821 22.224 0 71.437 5.82zM510.117 479.69l-5.557 3.44c-21.695-20.815-53.004-57.063-93.927-108.745-40.922-51.681-65.616-86.166-74.083-103.452 8.467-17.286 33.161-51.77 74.083-103.452 40.923-51.682 72.232-87.93 93.927-108.743l5.557 3.44c-10.055 27.163-22.578 65.792-37.571 115.887-16.052 53.269-24.077 84.225-24.077 92.868s8.025 39.6 24.077 92.87c14.993 50.093 27.517 88.723 37.57 115.887zm-137.584 0l-5.556 3.44c-21.696-20.815-53.005-57.063-93.927-108.745-40.922-51.681-65.617-86.166-74.083-103.452 8.466-17.286 33.16-51.77 74.083-103.452 40.922-51.682 72.231-87.93 93.927-108.743l5.556 3.44c-10.054 27.163-22.577 65.792-37.57 115.887-16.052 53.269-24.078 84.225-24.078 92.868s8.026 39.6 24.077 92.87c14.994 50.093 27.517 88.723 37.571 115.887z" />
</svg>