<svg xmlns="http://www.w3.org/2000/svg" viewBox="0 0 132.821 138.906" height="52.5" width="50.2">
   <path d="M88.774 22.621H62.946c-3.465 3.813-8.19 9.532-14.332 17.331h-4.252v-17.33H18.69a361.008 361.008 0 00-14.174 17.33H.265V.265h3.78C4.831.61 9.713 6.33 18.69 16.902h25.67V.265h4.096c.787.346 5.512 6.065 14.489 16.637h25.828V.265h3.78c.63.346 5.512 6.065 14.646 16.637h25.356v5.72H107.2c-5.04 5.718-5.04 5.718-14.331 17.33h-4.095zM101.82 91.234l30.736 42.98-59.752-42.058-13.77.369v46.117h-9.59V92.894h-15L.264 114.477V64.855L34.445 85.7h15V65.408L20.92 39.952h66.146L59.034 64.855v20.66h13.77l59.752-42.98-30.737 41.873h30.491v6.826z" />
</svg>