<svg xmlns="http://www.w3.org/2000/svg" viewBox="0 0 541.867 541.867" height="2048" width="2048">
   <path d="M174.624 11.477L124.62 129.351q-5.82 13.83-6.086 34.244l-4.762 365.807q0 8.232-10.583 8.232-10.584 0-10.584-8.232l-4.762-365.806q-.265-20.414-6.086-34.244L31.75 11.477q49.212-7.244 71.438-7.244 22.224 0 71.437 7.243zM504.806 534.347l-4.437 3.287c-29.058-30.084-63.51-68.437-103.357-115.058-20.358-23.908-31.754-37.357-34.19-40.345-12.877-15.54-23.405-29.885-31.583-43.035 10.266-16.337 32.19-44.13 65.773-83.379 39.846-46.62 74.299-84.974 103.357-115.059l4.437 3.287c-10.091 30.085-18.705 56.386-25.84 78.897-11.831 36.859-17.922 55.986-18.269 57.38-6.612 22.116-11.31 41.74-14.094 58.874 3.304 20.521 14.093 59.273 32.364 116.254 7.134 22.513 15.747 48.812 25.84 78.897zM319.597 534.347l-4.437 3.287c-29.058-30.084-63.51-68.437-103.357-115.058-20.358-23.908-31.754-37.357-34.19-40.345-12.877-15.54-23.405-29.885-31.583-43.035 10.266-16.337 32.19-44.13 65.773-83.379 39.846-46.62 74.299-84.974 103.357-115.059l4.437 3.287c-10.091 30.085-18.705 56.386-25.84 78.897-11.831 36.859-17.922 55.986-18.269 57.38-6.612 22.116-11.31 41.74-14.094 58.874 3.305 20.521 14.093 59.273 32.364 116.254 7.134 22.513 15.747 48.812 25.84 78.897zM509.985 103.188c0 7.055-2.205 10.583-6.615 10.583l-47.228 2.381c-7.937.177-17.11 2.999-27.517 8.467l-94.72 50.006c-1.588-12.523-3.44-31.309-5.557-56.356l-20.373.264c-10.936.177-20.108 2.205-27.517 6.086l-94.72 50.006c-3.88-32.808-5.821-56.62-5.821-71.438 0-14.817 1.94-38.629 5.82-71.437l94.72 50.006c7.41 3.88 16.582 5.91 27.518 6.086l20.373.264c.53-10.407 2.38-29.192 5.556-56.356l94.72 50.006c10.408 5.468 19.58 8.29 27.518 8.467l47.228 2.381c4.41 0 6.615 3.528 6.615 10.583z" />
</svg>