<svg xmlns="http://www.w3.org/2000/svg" viewBox="0 0 541.867 541.867" height="2048" width="2048">
   <path d="M174.625 195.862l-50.006 117.875q-8.202 19.426-8.467 34.243l-2.381 181.422q0 8.232-10.583 8.232-10.584 0-10.584-8.232L90.223 347.98q-.265-14.816-8.467-34.243L31.75 195.864q18.785-2.964 56.356-6.915l-.264-25.353q-.265-20.414-6.086-34.244L31.75 11.477q49.212-7.244 71.438-7.244 22.224 0 71.437 7.243l-50.006 117.875q-5.821 13.83-6.086 34.244l-.264 25.353q15.61.988 56.356 6.914zM373.063 533.31l-5.556 4.324c-21.696-26.162-53.006-71.72-93.928-136.677-40.922-64.956-65.617-108.299-74.083-130.025 8.466-21.726 33.16-65.067 74.083-130.024C314.501 75.95 345.811 30.392 367.507 4.233l5.556 4.324c-10.054 34.14-22.577 82.691-37.57 145.653-16.053 66.952-24.079 105.86-24.079 116.722 0 10.863 8.026 49.772 24.078 116.725 14.994 62.96 27.517 111.512 37.57 145.653zm137.054 0l-5.557 4.324c-21.695-26.162-53.004-71.72-93.927-136.677C369.711 336 345.017 292.658 336.55 270.932c8.467-21.726 33.161-65.067 74.083-130.024C451.556 75.95 482.865 30.392 504.56 4.233l5.557 4.324c-10.055 34.14-22.578 82.691-37.571 145.653-16.052 66.952-24.077 105.86-24.077 116.722 0 10.863 8.025 49.772 24.077 116.725 14.993 62.96 27.517 111.512 37.57 145.653zM709.222 102.241c-35.537 11.176-71.227 21.893-106.664 33.369-11.293 3.474-20.1 11.362-28.164 19.612-12.294 11.748-24.347 23.77-36.794 35.345-7.499 2.935-19.26-8.797-13.752-15.942 14.793-15.443 29.856-30.64 44.476-46.242 10.693-13.964 13.552-31.712 19.188-47.973l23.692-76.177c26.472 20.966 53.15 42.212 74.3 68.786 8.087 9.593 15.951 19.37 23.718 29.222z" />
</svg>