<svg xmlns="http://www.w3.org/2000/svg" viewBox="0 0 541.867 541.867" height="2048" width="2048">
   <path d="M238.553 37.306l-35.958 93.134c-2.98 7.76-4.535 17.11-4.664 28.045l-2.527 196.057c0 4.41-2.591 6.614-7.775 6.614-5.183 0-7.774-2.205-7.774-6.614l-2.527-196.057c-.13-10.936-1.684-20.284-4.665-28.045l-35.957-93.134c22.935-3.704 39.91-5.556 50.923-5.556 11.014 0 27.989 1.852 50.924 5.556zm-104.957 0L97.64 130.44c-2.98 7.76-4.535 17.11-4.665 28.045l-2.526 196.057c0 4.41-2.592 6.614-7.775 6.614s-7.774-2.205-7.774-6.614l-2.527-196.057c-.13-10.936-1.685-20.284-4.665-28.045L31.75 37.306c22.935-3.704 39.91-5.556 50.923-5.556 11.014 0 27.989 1.852 50.923 5.556zM258.366 440.796c0 7.055-2.205 10.583-6.615 10.583l-93.266 3.44c-11.112.176-20.46 2.293-28.045 6.35l-93.134 48.948c-3.704-31.221-5.556-54.328-5.556-69.321 0-14.993 1.852-38.1 5.556-69.321l93.134 48.948c7.584 4.057 16.933 6.173 28.045 6.35l93.266 3.44c4.41 0 6.615 3.527 6.615 10.583zM378.517 491.86l-4.498 2.91c-29.457-26.634-64.382-60.589-104.775-101.864-20.637-21.166-32.19-33.073-34.66-35.719-13.053-13.758-23.725-26.458-32.015-38.1 10.407-14.463 32.632-39.07 66.675-73.818 40.393-41.275 75.318-75.23 104.775-101.865l4.498 2.91c-10.23 26.635-18.962 49.919-26.194 69.85-11.994 32.632-18.168 49.566-18.52 50.8-6.703 19.58-11.466 36.954-14.288 52.123 3.352 18.169 14.288 52.476 32.808 102.923 7.232 19.932 15.964 43.216 26.194 69.85zM505.517 491.86l-4.498 2.91c-29.457-26.634-64.382-60.589-104.775-101.864-20.637-21.166-32.19-33.073-34.66-35.719-13.053-13.758-23.725-26.458-32.015-38.1 10.407-14.463 32.632-39.07 66.675-73.818 40.393-41.275 75.318-75.23 104.775-101.865l4.498 2.91c-10.23 26.635-18.962 49.919-26.194 69.85-11.994 32.632-18.168 49.566-18.52 50.8-6.703 19.58-11.466 36.954-14.288 52.123 3.352 18.169 14.288 52.476 32.808 102.923 7.232 19.932 15.964 43.216 26.194 69.85zM510.117 103.187c0 7.409-2.293 11.113-6.88 11.113l-135.568 4.233c-10.936.177-20.108 2.205-27.516 6.086l-94.721 50.006c-3.88-32.808-5.821-56.62-5.821-71.438 0-14.816 1.94-38.629 5.82-71.437l94.722 50.006c7.408 3.88 16.58 5.91 27.516 6.086l135.569 4.233c4.586 0 6.879 3.704 6.879 11.112z" />
</svg>