<svg xmlns="http://www.w3.org/2000/svg" viewBox="0 0 541.867 541.867" height="2048" width="2048">
   <path d="M499.533 507.47l-4.762 2.647c-27.34-23.284-55.034-47.89-83.08-73.82-14.287-13.228-35.1-33.69-62.441-61.382 12.17-13.759 32.985-34.22 62.442-61.384 28.046-25.929 55.739-50.535 83.079-73.819l4.762 2.646a24471.107 24471.107 0 01-27.516 65.352c-10.231 26.282-17.286 48.684-21.167 67.205 3.88 18.52 10.936 40.922 21.167 67.204a24469.71 24469.71 0 0127.516 65.352zm-153.458 0l-4.762 2.647c-27.34-23.284-55.034-47.89-83.08-73.82-14.287-13.228-35.101-33.69-62.441-61.382 12.17-13.759 32.984-34.22 62.441-61.384 28.046-25.929 55.74-50.535 83.08-73.819l4.762 2.646a24474.395 24474.395 0 01-27.517 65.352c-10.23 26.282-17.286 48.684-21.166 67.205 3.88 18.52 10.936 40.922 21.166 67.204 9.173 21.696 18.345 43.48 27.517 65.352zm-153.458 0l-4.763 2.647c-27.34-23.284-55.033-47.89-83.079-73.82-14.287-13.228-35.101-33.69-62.442-61.382 12.171-13.759 32.985-34.22 62.442-61.384 28.046-25.929 55.739-50.535 83.08-73.819l4.762 2.646A24474.4 24474.4 0 01165.1 307.71c-10.23 26.282-17.286 48.684-21.167 67.205 3.881 18.52 10.936 40.922 21.167 67.204 9.172 21.696 18.344 43.48 27.517 65.352zM515.938 92.604q0 9.016-5.614 9.016l-123.717 2.028q-10.104.225-23.351 7.212l-80.382 42.598q-2.021-16.002-4.716-48.007l-17.289.226q-13.92.225-23.35 5.183l-80.383 42.598q-2.021-16.002-4.715-48.007l-17.29.226q-13.92.225-23.35 5.183l-80.383 42.598q-4.94-41.921-4.94-60.854 0-18.932 4.94-60.854l80.382 42.598q9.43 4.958 23.352 5.184l17.289.225q.673-13.298 4.715-48.007l80.382 42.598q9.43 4.958 23.351 5.184l17.29.225q.673-13.298 4.715-48.007l80.382 42.598q13.247 6.987 23.351 7.212l123.717 2.029q5.613 0 5.613 9.015z" />
</svg>