<svg xmlns="http://www.w3.org/2000/svg" viewBox="-10 0 2048 2048" width="2048" height="2048">
   <path d="M1921.5 1113c0 30.667-11 46.667-33 48-53.018.089-786.282 8.974-828.5 31l-348 184c-14.667-123.333-22-211-22-263s7.333-139.667 22-263l348 184c34 18 767.167 28.333 828.5 31 22 1.333 33 17.333 33 48zM649.996 665.133l-188.995 399.296c-20.667 43.869-31.334 82.536-32.001 115.997l-9 823.688c0 18.59-13.332 27.886-39.998 27.886-26.669 0-40.003-9.295-40.003-27.886L331 1180.428c-.668-33.46-11.335-72.126-32.001-115.997L110 665.139c47.332-6.694 118.332-14.503 212.999-23.425l-.998-85.882c-.668-46.101-8.335-84.767-23.002-115.998L110 40.539C233.999 24.18 324 16 380.002 16 435.999 16 525.999 24.178 650 40.534L461 439.83c-14.665 31.234-22.333 69.898-23 115.998l-.998 85.882c39.331 2.233 110.331 10.04 212.998 23.424zM648.373 756L638 732.31c62.776-92.5 172.103-225.985 327.98-400.457C1121.856 157.383 1225.862 52.097 1277.998 16c52.137 36.097 156.144 141.382 312.02 315.853C1745.897 506.325 1855.223 639.81 1918 732.31L1907.626 756c-81.93-42.865-198.437-96.26-349.526-160.183-160.666-68.435-254.033-102.651-280.1-102.651-26.07 0-119.436 34.216-280.1 102.651C846.81 659.74 730.302 713.134 648.372 756zM1921.5 1769c0 30.667-11 46.667-33 48-53.018.089-786.282 8.974-828.5 31l-348 184c-14.667-123.333-22-211-22-263s7.333-139.667 22-263l348 184c34 18 767.167 28.333 828.5 31 22 1.333 33 17.333 33 48zM2744 386.424c-134.314 42.24-269.204 82.744-403.142 126.116-42.68 13.132-75.966 42.945-106.444 74.124-46.468 44.402-92.02 89.841-139.066 133.59-28.34 11.092-72.796-33.249-51.975-60.253 55.912-58.369 112.84-115.808 168.098-174.774 40.414-52.776 51.22-119.856 72.52-181.314L2373.537 16c100.053 79.24 200.885 159.541 280.82 259.978 30.562 36.256 60.286 73.21 89.643 110.446z" />
</svg>