<?xml version="1.0" encoding="UTF-8" standalone="no"?>
<svg
   xmlns:dc="http://purl.org/dc/elements/1.1/"
   xmlns:cc="http://creativecommons.org/ns#"
   xmlns:rdf="http://www.w3.org/1999/02/22-rdf-syntax-ns#"
   xmlns:svg="http://www.w3.org/2000/svg"
   xmlns="http://www.w3.org/2000/svg"
   xmlns:sodipodi="http://sodipodi.sourceforge.net/DTD/sodipodi-0.dtd"
   xmlns:inkscape="http://www.inkscape.org/namespaces/inkscape"
   inkscape:version="1.0 (4035a4fb49, 2020-05-01)"
   sodipodi:docname="000-004-059_part-14.svg"
   id="svg4"
   version="1.1"
   viewBox="-10 0 2048 2048"
   width="2048"
   height="2048">
  <metadata
     id="metadata10">
    <rdf:RDF>
      <cc:Work
         rdf:about="">
        <dc:format>image/svg+xml</dc:format>
        <dc:type
           rdf:resource="http://purl.org/dc/dcmitype/StillImage" />
      </cc:Work>
    </rdf:RDF>
  </metadata>
  <defs
     id="defs8" />
  <sodipodi:namedview
     inkscape:current-layer="svg4"
     inkscape:window-maximized="1"
     inkscape:window-y="-8"
     inkscape:window-x="-8"
     inkscape:cy="471.68508"
     inkscape:cx="1027.4144"
     inkscape:zoom="0.66011081"
     showgrid="false"
     id="namedview6"
     inkscape:window-height="1018"
     inkscape:window-width="1920"
     inkscape:pageshadow="2"
     inkscape:pageopacity="0"
     guidetolerance="10"
     gridtolerance="10"
     objecttolerance="10"
     borderopacity="1"
     bordercolor="#666666"
     pagecolor="#ffffff" />
  <path
     sodipodi:nodetypes="cssscsccssscsccssscsc"
     id="path2"
     fill="currentColor"
     d="m 1840,142 c 0,0 -230,422.1665 -230,430.5 0,8.3335 -13.333,25 -40,25 -26.667,0 -40,-16.6665 -40,-25 0,-8.3335 -230,-430.5 -230,-430.5 124,-14.667 214,-22 270,-22 56,0 146,7.333 270,22 z m -556,0 c 0,0 -230,422.1665 -230,430.5 0,8.3335 -13.333,25 -40,25 -26.667,0 -40,-16.6665 -40,-25 C 974,564.1665 744,142 744,142 c 124,-14.667 214,-22 270,-22 56,0 146,7.333 270,22 z m -556,0 c 0,0 -230,422.1665 -230,430.5 0,8.3335 -13.333,25 -40,25 -26.667,0 -40,-16.6665 -40,-25 C 418,564.1665 188,142 188,142 c 124,-14.667 214,-22 270,-22 56,0 146,7.333 270,22 z" />
</svg>
