<svg xmlns="http://www.w3.org/2000/svg" viewBox="0 0 541.867 541.867" height="2048" width="2048">
   <path d="M174.624 10.726L124.62 116.372c-2.999 6.1-4.939 14.264-5.82 24.494 11.464.592 29.632 2.558 54.503 5.903l-50.006 105.646c-4.233 8.854-6.527 19.675-6.88 32.463 9.35.393 27.87 2.459 55.563 6.197L121.973 396.72c-4.763 10.231-7.232 18.888-7.408 25.97l-.794 107.566c0 4.918-3.528 7.377-10.583 7.377-7.056 0-10.584-2.459-10.584-7.377L91.81 422.69c-.176-7.083-2.645-15.739-7.408-25.969L34.396 291.075c12.347-1.77 30.867-3.837 55.562-6.197-.353-12.788-2.647-23.609-6.88-32.462L33.074 146.77c12.17-1.574 30.339-3.541 54.504-5.903-.882-10.23-2.822-18.394-5.82-24.493L31.75 10.726c32.809-4.328 56.621-6.493 71.438-6.493s38.63 2.164 71.437 6.492zM510.117 397.822l-4.437 3.287c-29.058-30.084-63.51-68.437-103.357-115.058-20.358-23.909-31.755-37.357-34.191-40.345-12.876-15.54-23.404-29.885-31.582-43.035 10.266-16.337 32.19-44.13 65.773-83.379C442.169 72.671 476.622 34.318 505.68 4.233l4.437 3.287c-10.092 30.085-18.705 56.385-25.84 78.897-11.831 36.859-17.922 55.986-18.269 57.38-6.612 22.116-11.31 41.74-14.094 58.874 3.304 20.521 14.093 59.273 32.363 116.254 7.135 22.513 15.747 48.812 25.84 78.897zM366.713 397.822l-4.437 3.287c-29.059-30.084-63.511-68.437-103.357-115.058-20.358-23.909-31.755-37.357-34.191-40.345-12.877-15.54-23.404-29.885-31.582-43.035 10.266-16.337 32.19-44.13 65.773-83.379 39.846-46.621 74.298-84.974 103.357-115.059l4.437 3.287c-10.092 30.085-18.706 56.385-25.84 78.897-11.831 36.859-17.922 55.986-18.27 57.38-6.611 22.116-11.31 41.74-14.094 58.874 3.305 20.521 14.094 59.273 32.364 116.254 7.134 22.513 15.747 48.812 25.84 78.897zM509.985 466.197c0 7.055-2.205 10.583-6.615 10.583l-68.395 2.38c-7.937.177-17.11 3-27.517 8.468l-94.72 50.006c-1.588-12.524-3.44-31.31-5.557-56.356l-20.373.264c-10.936.176-20.108 2.205-27.517 6.086l-94.72 50.006c-3.88-32.808-5.82-56.621-5.82-71.438s1.94-38.63 5.82-71.437l94.72 50.006c7.41 3.88 16.581 5.909 27.517 6.086l20.373.264c.53-10.407 2.381-29.192 5.556-56.356l94.721 50.006c10.407 5.468 19.58 8.29 27.517 8.467l68.395 2.38c4.41 0 6.615 3.528 6.615 10.584zM630.655 191.03c-11.176-35.538-21.893-71.228-33.368-106.665-3.475-11.293-11.363-20.1-19.612-28.164-11.748-12.294-23.77-24.347-35.346-36.794-2.935-7.499 8.797-19.26 15.942-13.752 15.443 14.793 30.64 29.856 46.242 44.476 13.964 10.693 31.712 13.552 47.973 19.188l76.177 23.692c-20.966 26.472-42.212 53.15-68.786 74.3-9.593 8.086-19.37 15.95-29.222 23.718z" />
</svg>