<svg xmlns="http://www.w3.org/2000/svg" viewBox="-10 0 2048 2048" width="2048" height="2048">
   <path d="M225 2032l-13-21q118-123 411-355t391-280q98 48 391 280t411 355l-13 21q-154-57-438-142-302-91-351-91t-351 91q-284 85-438 142zm519-661c-26.667 0-40-8.333-40-25l-7-851c-.667-34-10.667-69.333-30-106L482 37c118-14 205.333-21 262-21s144 7 262 21L821 389c-19.333 36.667-29.333 72-30 106l-7 851c0 16.667-13.333 25-40 25zm540 0c-26.667 0-40-8.333-40-25l-7-851c-.667-34-10.667-69.333-30-106L1022 37c118-14 205.333-21 262-21s144 7 262 21l-185 352c-19.333 36.667-29.333 72-30 106l-7 851c0 16.667-13.333 25-40 25zM2289.364 386.424c-134.314 42.24-269.204 82.744-403.142 126.116-42.68 13.132-75.966 42.945-106.444 74.124-46.468 44.402-92.02 89.841-139.066 133.59-28.34 11.092-72.796-33.249-51.975-60.253 55.912-58.369 112.84-115.808 168.098-174.774 40.414-52.776 51.22-119.856 72.52-181.314L1918.901 16c100.053 79.24 200.885 159.541 280.82 259.978 30.562 36.256 60.286 73.21 89.643 110.446z" />
</svg>