<svg xmlns="http://www.w3.org/2000/svg" viewBox="0 0 541.867 541.867" height="2048" width="2048">
   <path d="M238.553 37.306l-35.958 93.134c-2.98 7.76-4.535 17.11-4.664 28.045l-2.527 196.057c0 4.41-2.591 6.614-7.775 6.614-5.183 0-7.774-2.205-7.774-6.614l-2.527-196.057c-.13-10.936-1.684-20.284-4.665-28.045l-35.957-93.134c22.935-3.704 39.91-5.556 50.923-5.556 11.014 0 27.989 1.852 50.924 5.556zm-104.957 0L97.64 130.44c-2.98 7.76-4.535 17.11-4.665 28.045l-2.526 196.057c0 4.41-2.592 6.614-7.775 6.614s-7.774-2.205-7.774-6.614l-2.527-196.057c-.13-10.936-1.685-20.284-4.665-28.045L31.75 37.306c22.935-3.704 39.91-5.556 50.923-5.556 11.014 0 27.989 1.852 50.923 5.556zM274.24 440.796c0 7.055-2.204 10.583-6.614 10.583l-109.14 3.44c-11.113.176-20.462 2.293-28.046 6.35l-93.134 48.948c-3.704-31.221-5.556-54.328-5.556-69.321 0-14.993 1.852-38.1 5.556-69.321l93.134 48.948c7.584 4.057 16.933 6.173 28.045 6.35l109.141 3.44c4.41 0 6.615 3.527 6.615 10.583zM510.117 479.69l-5.557 3.44c-21.695-20.815-53.004-57.063-93.927-108.745-40.922-51.681-65.616-86.166-74.083-103.452 8.467-17.286 33.161-51.77 74.083-103.452 40.923-51.682 72.232-87.93 93.927-108.743l5.557 3.44c-10.055 27.163-22.578 65.792-37.571 115.887-16.052 53.269-24.077 84.225-24.077 92.868s8.025 39.6 24.077 92.87c14.993 50.093 27.517 88.723 37.57 115.887zm-137.584 0l-5.556 3.44c-21.696-20.815-53.005-57.063-93.927-108.745-40.922-51.681-65.617-86.166-74.083-103.452 8.466-17.286 33.16-51.77 74.083-103.452 40.922-51.682 72.231-87.93 93.927-108.743l5.556 3.44c-10.054 27.163-22.577 65.792-37.57 115.887-16.052 53.269-24.078 84.225-24.078 92.868s8.026 39.6 24.077 92.87c14.994 50.093 27.517 88.723 37.571 115.887z" />
</svg>