<svg xmlns="http://www.w3.org/2000/svg" viewBox="-10 0 2048 2048" width="2048" height="2048">
   <path d="M124.653 2032L110 2011c88.672-82 243.096-200.333 463.272-355S940.358 1408 1014 1376c73.642 32 220.552 125.333 440.728 280 220.176 154.667 374.6 273 463.272 355l-14.653 21c-115.725-38-280.293-85.333-493.706-142-226.939-60.667-358.82-91-395.641-91-36.822 0-168.702 30.333-395.64 91-213.414 56.667-377.982 104-493.707 142zM962 598L773 956c-20.667 39.333-31.333 74-32 104l-9 307.5c0 16.667-13.333 25-40 25s-40-8.333-40-25l-9-307.5c-.667-30-11.333-64.667-32-104L422 598c47.333-6 118.333-13 213-21l-1-77c-.667-41.333-8.333-76-23-104L422 38c124-14.667 214-22 270-22s146 7.333 270 22L773 396c-14.667 28-22.333 62.667-23 104l-1 77c39.333 2 110.333 9 213 21zm660 0l-189 358c-20.667 39.333-31.333 74-32 104l-9 307.5c0 16.667-13.333 25-40 25s-40-8.333-40-25l-9-307.5c-.667-30-11.333-64.667-32-104l-189-358c47.333-6 118.333-13 213-21l-1-77c-.667-41.333-8.333-76-23-104L1082 38c124-14.667 214-22 270-22s146 7.333 270 22l-189 358c-14.667 28-22.333 62.667-23 104l-1 77c39.333 2 110.333 9 213 21zM2555.367 386.424c-134.315 42.24-269.205 82.744-403.143 126.116-42.68 13.132-75.965 42.945-106.443 74.124-46.468 44.402-92.02 89.841-139.067 133.59-28.34 11.092-72.796-33.249-51.975-60.253 55.912-58.369 112.84-115.808 168.099-174.774 40.414-52.776 51.219-119.856 72.52-181.314L2184.903 16c100.054 79.24 200.886 159.541 280.82 259.978 30.562 36.256 60.286 73.21 89.643 110.446z" />
</svg>