<svg xmlns="http://www.w3.org/2000/svg" viewBox="0 0 541.867 541.867" height="2048" width="2048">
   <path d="M510.117 479.69l-5.557 3.44c-21.695-20.815-53.004-57.063-93.927-108.745-40.922-51.681-65.616-86.166-74.083-103.452 8.467-17.286 33.161-51.77 74.083-103.452 40.923-51.682 72.232-87.93 93.927-108.743l5.557 3.44c-10.055 27.163-22.578 65.792-37.571 115.887-16.052 53.269-24.077 84.225-24.077 92.868s8.025 39.6 24.077 92.87c14.993 50.093 27.517 88.723 37.57 115.887zm-137.584 0l-5.556 3.44c-21.696-20.815-53.005-57.063-93.927-108.745-40.922-51.681-65.617-86.166-74.083-103.452 8.466-17.286 33.16-51.77 74.083-103.452 40.922-51.682 72.231-87.93 93.927-108.743l5.556 3.44c-10.054 27.163-22.577 65.792-37.57 115.887-16.052 53.269-24.078 84.225-24.078 92.868s8.026 39.6 24.077 92.87c14.994 50.093 27.517 88.723 37.571 115.887zM278.342 103.188c0 8.643-2.47 12.964-7.409 12.964l-111.125 2.381c-10.936.177-20.108 2.205-27.516 6.086L37.57 174.625c-3.88-32.808-5.821-56.62-5.821-71.438 0-14.816 1.94-38.629 5.82-71.437l94.722 50.006c7.408 3.88 16.58 5.91 27.516 6.086l111.125 2.38c4.94 0 7.409 4.322 7.409 12.965zM198.967 254c0 8.643-2.47 12.965-7.409 12.965l-31.75 2.38c-10.936.177-20.108 2.206-27.516 6.086L37.57 325.438C33.69 292.629 31.75 268.817 31.75 254s1.94-38.63 5.82-71.438l94.722 50.007c7.408 3.88 16.58 5.909 27.516 6.085l31.75 2.381c4.94 0 7.409 4.322 7.409 12.965zm9.525 76.994l-48.948 93.133c-4.057 7.585-6.174 16.933-6.35 28.046l-1.059 46.037c-.176 5.998-4.498 8.996-12.964 8.996-8.467 0-12.788-2.998-12.965-8.996l-1.058-46.037c-.177-11.113-2.293-20.461-6.35-28.046L69.85 330.994c31.22-3.704 54.328-5.557 69.32-5.557 14.994 0 38.1 1.853 69.322 5.557z" />
</svg>