<svg xmlns="http://www.w3.org/2000/svg" viewBox="0 0 541.867 541.867" height="2048" width="2048">
   <path d="M510.117 533.31l-5.557 4.324q-32.543-39.242-93.927-136.677-61.383-97.434-74.083-130.025 12.7-32.589 74.083-130.024Q472.017 43.472 504.56 4.233l5.557 4.324q-15.082 51.21-37.571 145.653-24.077 100.428-24.077 116.722 0 16.295 24.077 116.725 22.49 94.44 37.57 145.653zM375.708 464.08c0 7.055-2.204 10.583-6.614 10.583l-210.609 3.44c-11.112.176-20.46 2.293-28.045 6.35L37.306 533.4c-3.704-31.22-5.556-54.327-5.556-69.32 0-14.993 1.852-38.1 5.556-69.321l93.134 48.948c7.584 4.057 16.933 6.173 28.045 6.35l210.609 3.44c4.41 0 6.614 3.527 6.614 10.583zM341.842 9.79l-48.948 93.132c-4.057 7.76-6.174 17.11-6.35 28.046l-3.44 243.681c0 4.41-3.528 6.615-10.583 6.615-7.056 0-10.584-2.205-10.584-6.615l-3.44-243.68c-.176-10.937-2.292-20.286-6.35-28.047L203.2 9.79c31.22-3.704 54.328-5.556 69.32-5.556 14.994 0 38.1 1.852 69.322 5.556zM198.967 9.79l-48.948 93.132c-4.057 7.76-6.174 17.11-6.35 28.046l-3.44 243.681c0 4.41-3.528 6.615-10.583 6.615-7.056 0-10.584-2.205-10.584-6.615l-3.44-243.68c-.176-10.937-2.292-20.286-6.35-28.047L60.325 9.79c31.22-3.704 54.328-5.556 69.32-5.556 14.994 0 38.1 1.852 69.322 5.556z" />
</svg>