<svg xmlns="http://www.w3.org/2000/svg" viewBox="0 0 541.867 541.867" height="2048" width="2048">
   <path d="M129.758 31.75c11.176 35.537 21.893 71.227 33.368 106.665 3.475 11.292 11.363 20.099 19.612 28.163 11.748 12.295 23.77 24.347 35.346 36.795 2.935 7.498-8.797 19.26-15.942 13.751-15.443-14.793-30.64-29.856-46.242-44.476-13.964-10.693-31.712-13.551-47.973-19.187L31.75 129.768c20.966-26.472 42.212-53.15 68.786-74.3 9.593-8.086 19.37-15.95 29.222-23.718zM62.177 510.117l-3.44-5.557c20.814-21.695 57.062-53.004 108.744-93.927 51.682-40.922 86.166-65.616 103.452-74.083 17.286 8.467 51.77 33.161 103.452 74.083 51.682 40.923 87.93 72.232 108.744 93.927l-3.44 5.557c-27.163-10.055-65.793-22.578-115.887-37.571-53.27-16.052-84.226-24.077-92.869-24.077s-39.6 8.025-92.868 24.077c-50.095 14.993-88.724 27.517-115.888 37.57zm0-137.584l-3.44-5.556c20.814-21.696 57.062-53.005 108.744-93.927 51.682-40.922 86.166-65.617 103.452-74.083 17.286 8.466 51.77 33.16 103.452 74.083 51.682 40.922 87.93 72.231 108.744 93.927l-3.44 5.556c-27.163-10.054-65.793-22.577-115.887-37.57-53.27-16.052-84.226-24.078-92.869-24.078s-39.6 8.026-92.868 24.078c-50.095 14.993-88.724 27.516-115.888 37.57z" />
</svg>