<svg xmlns="http://www.w3.org/2000/svg" viewBox="0 0 541.867 541.867" height="2048" width="2048">
   <path d="M365.919 246.46c8.114 0 12.347-2.911 12.7-8.732l56.885-112.845c-32.632-3.88-55.827-5.82-69.585-5.82-13.759 0-36.954 1.94-69.586 5.82l56.886 112.845c.352 5.821 4.586 8.731 12.7 8.731zM37.57 174.625l94.722-50.006c7.408-3.88 16.58-5.91 27.516-6.086l293.952-4.762c4.41 0 6.615-3.528 6.615-10.583 0-7.056-2.205-10.584-6.615-10.584l-293.952-4.762c-10.936-.177-20.108-2.205-27.516-6.086L37.57 31.75c-3.88 32.808-5.821 56.62-5.821 71.438 0 14.816 1.94 38.629 5.82 71.437zM510.117 530.036l-5.557 3.44q-32.543-31.222-93.927-108.745Q349.25 347.21 336.55 321.28q12.7-25.929 74.083-103.452 61.384-77.523 93.927-108.743l5.557 3.44q-15.082 40.745-37.571 115.887-24.077 79.904-24.077 92.868 0 12.965 24.077 92.87 22.49 75.14 37.57 115.887zM321.732 191.03l-50.006 94.72c-3.88 7.408-5.908 16.58-6.085 27.516l-4.763 190.104c0 4.41-3.528 6.615-10.583 6.615s-10.583-2.205-10.583-6.615l-4.762-190.103c-.177-10.936-2.205-20.108-6.085-27.517l-50.007-94.72c32.809-3.88 56.621-5.82 71.438-5.82s38.629 1.94 71.437 5.82zm-147.108 0l-50.006 94.72c-3.88 7.408-5.909 16.58-6.086 27.516L113.77 503.37c0 4.41-3.528 6.615-10.583 6.615-7.056 0-10.584-2.205-10.584-6.615l-4.762-190.103c-.177-10.936-2.205-20.108-6.086-27.517L31.75 191.03c32.808-3.881 56.62-5.822 71.438-5.822 14.816 0 38.628 1.94 71.437 5.82z" />
</svg>