<?xml version="1.0" encoding="UTF-8" standalone="no"?>
<svg
   xmlns:dc="http://purl.org/dc/elements/1.1/"
   xmlns:cc="http://creativecommons.org/ns#"
   xmlns:rdf="http://www.w3.org/1999/02/22-rdf-syntax-ns#"
   xmlns:svg="http://www.w3.org/2000/svg"
   xmlns="http://www.w3.org/2000/svg"
   xmlns:sodipodi="http://sodipodi.sourceforge.net/DTD/sodipodi-0.dtd"
   xmlns:inkscape="http://www.inkscape.org/namespaces/inkscape"
   sodipodi:docname="000-004-061_po.svg"
   inkscape:version="1.0 (4035a4fb49, 2020-05-01)"
   id="svg841"
   version="1.1"
   viewBox="0 0 541.86665 541.86668"
   height="2048"
   width="2048">
  <defs
     id="defs835" />
  <sodipodi:namedview
     inkscape:window-maximized="1"
     inkscape:window-y="-8"
     inkscape:window-x="-8"
     inkscape:window-height="1018"
     inkscape:window-width="1920"
     units="px"
     showgrid="false"
     inkscape:document-rotation="0"
     inkscape:current-layer="layer1"
     inkscape:document-units="px"
     inkscape:cy="1045.7143"
     inkscape:cx="1085.7143"
     inkscape:zoom="0.35"
     inkscape:pageshadow="2"
     inkscape:pageopacity="0.0"
     borderopacity="1.0"
     bordercolor="#666666"
     pagecolor="#ffffff"
     id="base" />
  <metadata
     id="metadata838">
    <rdf:RDF>
      <cc:Work
         rdf:about="">
        <dc:format>image/svg+xml</dc:format>
        <dc:type
           rdf:resource="http://purl.org/dc/dcmitype/StillImage" />
        <dc:title></dc:title>
      </cc:Work>
    </rdf:RDF>
  </metadata>
  <g
     id="layer1"
     inkscape:groupmode="layer"
     inkscape:label="图层 1">
    <path
       id="path1522"
       d="m 170.78854,183.88541 -48.94792,93.13334 c -4.05686,7.76102 -6.17352,17.10981 -6.35,28.04583 l -3.43958,196.05625 c 0,4.40981 -3.52769,6.61458 -10.58334,6.61458 -7.055636,0 -10.583326,-2.20477 -10.583326,-6.61458 l -3.43958,-196.05625 c -0.17648,-10.93602 -2.29315,-20.28481 -6.35,-28.04583 l -48.94792,-93.13334 c 31.22083,-3.70416 54.32769,-5.55625 69.320826,-5.55625 14.99315,0 38.1,1.85209 69.32084,5.55625 z"
       style="stroke-width:0.264583;fill:#0000ff;fill-opacity:1" />
    <path
       id="path1520"
       d="m 171.84687,103.98125 c 0,8.11397 -2.91042,12.34731 -8.73125,12.7 -9.525,0.35269 -15.96311,0.88185 -19.31458,1.5875 -5.99731,1.05833 -12.17084,3.2631 -18.52084,6.61458 l -92.074996,48.68333 c -3.880639,-32.63185 -5.820829,-55.82708 -5.820829,-69.58541 0,-13.758337 1.94019,-36.953557 5.820829,-69.585417 l 92.074996,48.68333 c 8.99584,4.7625 21.60773,7.49644 37.83542,8.20209 5.82083,0.35269 8.73125,4.58602 8.73125,12.699997 z"
       style="stroke-width:0.264583;fill:#ff0000;fill-opacity:1" />
    <path
       id="path1518"
       d="m 351.8958,507.73543 -4.49792,2.91041 c -29.45686,-26.63481 -64.38186,-60.58958 -104.775,-101.86458 -20.6375,-21.16667 -32.19106,-33.07292 -34.66042,-35.71875 -13.05269,-13.75833 -23.72439,-26.45833 -32.01458,-38.1 10.40685,-14.46398 32.63185,-39.07023 66.675,-73.81875 40.39314,-41.275 75.31814,-75.22977 104.775,-101.86458 l 4.49792,2.91041 c -10.23065,26.63481 -18.9619,49.91815 -26.19375,69.85 -11.99436,32.63186 -18.16815,49.56519 -18.52084,50.8 -6.70269,19.57917 -11.46519,36.95356 -14.2875,52.12292 3.35148,18.16814 14.2875,52.47561 32.80834,102.92292 7.23185,19.93185 15.9631,43.21518 26.19375,69.85 z"
       style="stroke-width:0.264583;fill:#0000ff;fill-opacity:1" />
    <path
       id="path1516"
       d="m 489.47911,507.73543 -4.49792,2.91041 c -29.45686,-26.63481 -64.38186,-60.58958 -104.775,-101.86458 -20.6375,-21.16667 -32.19106,-33.07292 -34.66042,-35.71875 -13.05269,-13.75833 -23.72439,-26.45833 -32.01458,-38.1 10.40686,-14.46398 32.63186,-39.07023 66.675,-73.81875 40.39314,-41.275 75.31814,-75.22977 104.775,-101.86458 l 4.49792,2.91041 c -10.23065,26.63481 -18.9619,49.91815 -26.19375,69.85 -11.99436,32.63186 -18.16815,49.56519 -18.52084,50.8 -6.70269,19.57917 -11.46519,36.95356 -14.2875,52.12292 3.35148,18.16814 14.2875,52.47561 32.80834,102.92292 7.23185,19.93185 15.9631,43.21518 26.19375,69.85 z"
       style="stroke-width:0.264583;fill:#0000ff;fill-opacity:1" />
    <path
       id="path2"
       d="m 514.61455,103.1875 c 0,7.40833 -2.29314,11.1125 -6.87916,11.1125 l -203.72917,4.23333 c -10.93602,0.17648 -20.10833,2.20478 -27.51666,6.08542 L 181.76872,174.625 c -3.88064,-32.80833 -5.82083,-56.62083 -5.82083,-71.4375 0,-14.816667 1.94019,-38.629167 5.82083,-71.4375 l 94.72084,50.00625 c 7.40833,3.880644 16.58064,5.908939 27.51666,6.085416 L 507.73539,92.075 c 4.58602,0 6.87916,3.704166 6.87916,11.1125 z"
       style="stroke-width:0.264583;fill:#ff0000;fill-opacity:1" />
  </g>
</svg>
