<svg xmlns="http://www.w3.org/2000/svg" width="2048" height="2048" viewBox="0 0 541.867 541.867">
   <path d="M174.625 195.862L124.62 313.737q-8.202 19.426-8.467 34.243l-2.381 181.422q0 8.232-10.583 8.232-10.584 0-10.584-8.232L90.223 347.98q-.265-14.816-8.467-34.243L31.75 195.864q18.785-2.964 56.356-6.915l-.264-25.353q-.265-20.414-6.086-34.242L31.75 11.477q49.212-7.244 71.438-7.244 22.224 0 71.437 7.243L124.62 129.352q-5.82 13.829-6.086 34.242l-.264 25.354q15.61.988 56.356 6.914zM156.35 305.859l-2.892-5.557c17.493-21.695 47.956-53.004 91.39-93.927 43.432-40.922 72.413-65.616 86.94-74.083 14.528 8.467 43.508 33.16 86.941 74.083 43.434 40.923 73.897 72.232 91.388 93.927l-2.891 5.557c-22.828-10.055-55.292-22.578-97.391-37.571-44.768-16.051-70.783-24.077-78.046-24.077-7.264 0-33.28 8.026-78.048 24.077-42.098 14.993-74.562 27.517-97.392 37.57zm0 158.75l-2.892-5.557c17.493-21.695 47.956-53.004 91.39-93.927 43.432-40.922 72.413-65.616 86.94-74.083 14.528 8.467 43.508 33.16 86.942 74.083 43.433 40.923 73.896 72.232 91.387 93.927l-2.891 5.557c-22.828-10.055-55.292-22.578-97.391-37.571-44.768-16.051-70.783-24.077-78.046-24.077-7.264 0-33.28 8.026-78.048 24.077-42.098 14.993-74.562 27.517-97.392 37.57zM678.552 102.241c-35.537 11.176-71.227 21.893-106.665 33.369-11.293 3.474-20.1 11.362-28.163 19.612-12.295 11.748-24.347 23.77-36.795 35.345-7.498 2.935-19.26-8.797-13.752-15.942 14.794-15.443 29.856-30.64 44.476-46.242 10.693-13.964 13.552-31.712 19.188-47.973l23.692-76.177c26.473 20.966 53.151 42.212 74.3 68.786 8.087 9.593 15.951 19.37 23.719 29.222z" />
</svg>