<svg xmlns="http://www.w3.org/2000/svg" viewBox="0 0 541.867 541.867" height="2048" width="2048">
   <path d="M499.533 507.47l-4.762 2.647c-27.34-23.284-55.034-47.89-83.08-73.82-14.287-13.228-35.1-33.69-62.441-61.382 12.17-13.759 32.985-34.22 62.442-61.384 28.046-25.929 55.739-50.535 83.079-73.819l4.762 2.646a24471.107 24471.107 0 01-27.516 65.352c-10.231 26.282-17.286 48.684-21.167 67.205 3.88 18.52 10.936 40.922 21.167 67.204a24469.71 24469.71 0 0127.516 65.352zm-153.458 0l-4.762 2.647c-27.34-23.284-55.034-47.89-83.08-73.82-14.287-13.228-35.101-33.69-62.441-61.382 12.17-13.759 32.984-34.22 62.441-61.384 28.046-25.929 55.74-50.535 83.08-73.819l4.762 2.646a24474.395 24474.395 0 01-27.517 65.352c-10.23 26.282-17.286 48.684-21.166 67.205 3.88 18.52 10.936 40.922 21.166 67.204 9.173 21.696 18.345 43.48 27.517 65.352zm-153.458 0l-4.763 2.647c-27.34-23.284-55.033-47.89-83.079-73.82-14.287-13.228-35.101-33.69-62.442-61.382 12.171-13.759 32.985-34.22 62.442-61.384 28.046-25.929 55.739-50.535 83.08-73.819l4.762 2.646A24474.4 24474.4 0 01165.1 307.71c-10.23 26.282-17.286 48.684-21.167 67.205 3.881 18.52 10.936 40.922 21.167 67.204 9.172 21.696 18.344 43.48 27.517 65.352zM62.442 245.004l94.72-50.006c7.409-3.88 16.581-5.909 27.517-6.085l293.952-4.763c4.41 0 6.615-3.528 6.615-10.583 0-7.056-2.205-10.584-6.615-10.584l-293.952-4.762c-10.936-.177-20.108-2.205-27.517-6.086l-94.72-50.006c-3.881 32.808-5.821 56.621-5.821 71.438 0 14.816 1.94 38.629 5.82 71.437zm155.046-87.18c5.385 0 8.078-4.41 8.078-6.615s44.838-113.903 44.838-113.903c-23.833-3.704-41.471-5.556-52.916-5.556-11.446 0-29.084 1.852-52.917 5.556 0 0 44.838 111.698 44.838 113.903 0 2.205 2.693 6.615 8.079 6.615zm105.833 0c5.386 0 8.079-4.41 8.079-6.615s44.838-113.903 44.838-113.903c-23.833-3.704-41.472-5.556-52.917-5.556s-29.084 1.852-52.917 5.556c0 0 44.838 111.698 44.838 113.903 0 2.205 2.693 6.615 8.079 6.615zm105.833 0c5.386 0 8.079-4.41 8.079-6.615s44.838-113.903 44.838-113.903c-23.833-3.704-41.472-5.556-52.917-5.556s-29.084 1.852-52.916 5.556c0 0 44.837 111.698 44.837 113.903 0 2.205 2.693 6.615 8.08 6.615z" />
</svg>