<svg xmlns="http://www.w3.org/2000/svg" viewBox="0 0 541.867 541.867" height="2048" width="2048">
   <path d="M318.294 254.397c8.114 0 12.347-2.91 12.7-8.731l56.885-112.845c-32.632-3.88-55.827-5.821-69.585-5.821-13.759 0-36.954 1.94-69.586 5.82l56.886 112.846c.352 5.82 4.586 8.73 12.7 8.73zM37.57 174.625l94.722-50.006c7.408-3.88 16.58-5.91 27.516-6.086l343.562-4.762c4.41 0 6.614-3.528 6.614-10.583 0-7.056-2.204-10.584-6.614-10.584l-343.562-4.762c-10.936-.177-20.108-2.205-27.516-6.086L37.57 31.75c-3.88 32.808-5.821 56.62-5.821 71.438 0 14.816 1.94 38.629 5.82 71.437zM268.552 247.12q0 10.584-6.615 10.584l-103.452 1.852q-13.493.265-28.045 7.938l-93.134 48.948Q31.75 269.61 31.75 247.12q0-22.49 5.556-69.321l93.134 48.948q14.552 7.673 28.045 7.937l103.452 1.853q6.615 0 6.615 10.583zm0 142.876q0 10.583-6.615 10.583l-103.452 1.852q-13.493.265-28.045 7.938l-93.134 48.948q-5.556-46.832-5.556-69.321 0-22.49 5.556-69.321l93.134 48.948q14.552 7.673 28.045 7.937l103.452 1.853q6.615 0 6.615 10.583zM491.067 507.054l-5.557 3.063q-32.543-27.795-93.927-96.812-61.383-69.017-74.083-92.1 12.7-23.085 74.083-92.102 61.384-69.016 93.927-96.811l5.557 3.062q-15.082 36.275-37.571 103.172-24.077 71.136-24.077 82.678 0 11.542 24.077 82.679 22.49 66.897 37.57 103.171z" />
</svg>