<svg xmlns="http://www.w3.org/2000/svg" height="2048" width="2048" viewBox="-10 0 2048 2048">
   <path d="M802 390c0 32.667-9.333 49-28 49l-180 9c-41.333.667-76 8.333-104 23L132 660c-14.667-124-22-214-22-270s7.333-146 22-270l358 189c28 14.667 62.667 22.333 104 23l180 9c18.667 0 28 16.333 28 49zm0 570c0 32.667-9.333 49-28 49l-180 9c-41.333.667-76 8.333-104 23l-358 189c-14.667-124-22-214-22-270s7.333-146 22-270l358 189c28 14.667 62.667 22.333 104 23l180 9c18.667 0 28 16.333 28 49zm-24 291l-185 352c-15.333 28.667-23.333 64-24 106l-4 174c-.667 22.667-17 34-49 34s-48.333-11.333-49-34l-4-174c-.667-42-8.667-77.333-24-106l-185-352c118-14 205.333-21 262-21s144 7 262 21z" />
</svg>