<svg xmlns="http://www.w3.org/2000/svg" height="2048" width="2048" viewBox="-10 0 2048 2048">
   <path d="M1274.5 1294c0 26.667-8.333 40-25 40l-660.5 7c-34 .667-69.333 10.667-106 30l-352 185c-14-118-21-205.333-21-262s7-144 21-262l352 185c36.667 19.333 72 29.333 106 30l660.5 7c16.667 0 25 13.333 25 40zM1274.5 754c0 26.667-8.333 40-25 40L589 801c-34 .667-69.333 10.667-106 30l-352 185c-14-118-21-205.333-21-262s7-144 21-262l352 185c36.667 19.333 72 29.333 106 30l660.5 7c16.667 0 25 13.333 25 40zM1918 2011.66l-21 16.34q-123-148.31-355-516.569-232-368.259-280-491.431 48-123.172 280-491.431Q1774 160.309 1897 12l21 16.34q-57 193.555-142 550.503-91 379.571-91 441.157 0 61.586 91 441.157 85 356.948 142 550.504z" />
</svg>