<svg xmlns="http://www.w3.org/2000/svg" viewBox="0 0 541.867 541.867" height="2048" width="2048">
   <path d="M238.553 37.306l-35.958 93.134c-2.98 7.76-4.535 17.11-4.664 28.045l-2.527 196.057c0 4.41-2.591 6.614-7.775 6.614-5.183 0-7.774-2.205-7.774-6.614l-2.527-196.057c-.13-10.936-1.684-20.284-4.665-28.045l-35.957-93.134c22.935-3.704 39.91-5.556 50.923-5.556 11.014 0 27.989 1.852 50.924 5.556zm-104.957 0L97.64 130.44c-2.98 7.76-4.535 17.11-4.665 28.045l-2.526 196.057c0 4.41-2.592 6.614-7.775 6.614s-7.774-2.205-7.774-6.614l-2.527-196.057c-.13-10.936-1.685-20.284-4.665-28.045L31.75 37.306c22.935-3.704 39.91-5.556 50.923-5.556 11.014 0 27.989 1.852 50.923 5.556zM258.366 440.796c0 7.055-2.205 10.583-6.615 10.583l-93.266 3.44c-11.112.176-20.46 2.293-28.045 6.35l-93.134 48.948c-3.704-31.221-5.556-54.328-5.556-69.321 0-14.993 1.852-38.1 5.556-69.321l93.134 48.948c7.584 4.057 16.933 6.173 28.045 6.35l93.266 3.44c4.41 0 6.615 3.527 6.615 10.583zM344.964 37.571l-36.467 94.72c-2.83 7.409-4.31 16.58-4.438 27.517l-3.473 343.562c0 4.41-2.573 6.615-7.718 6.615-5.146 0-7.719-2.205-7.719-6.615l-3.472-343.561c-.13-10.936-1.609-20.108-4.439-27.517L240.771 37.57c23.926-3.88 41.291-5.821 52.097-5.821 10.805 0 28.17 1.94 52.096 5.82zM510.117 477.573l-5.556 3.44q-32.544-31.221-93.927-108.744-61.384-77.523-74.084-103.453 12.7-25.93 74.084-103.452Q472.017 87.84 504.561 56.62l5.556 3.44q-15.08 40.745-37.57 115.887-24.078 79.904-24.078 92.868 0 12.965 24.077 92.87 22.49 75.14 37.57 115.887z" />
</svg>