<svg xmlns="http://www.w3.org/2000/svg" viewBox="0 0 541.867 541.867" height="2048" width="2048">
   <path d="M187.854 11.477l-50.006 117.874q-5.82 13.83-6.086 34.244L127 529.402q0 8.232-10.583 8.232-10.584 0-10.584-8.232l-4.762-365.806q-.265-20.414-6.086-34.244L44.98 11.477q49.212-7.244 71.438-7.244 22.224 0 71.437 7.243zM496.359 533.31l-5.557 4.324c-21.695-26.162-53.004-71.72-93.927-136.677-40.922-64.956-65.616-108.299-74.083-130.025 8.467-21.726 33.16-65.067 74.083-130.024C437.798 75.95 469.107 30.392 490.802 4.233l5.557 4.324c-10.055 34.14-22.578 82.691-37.571 145.653-16.052 66.952-24.077 105.86-24.077 116.722 0 10.863 8.025 49.772 24.077 116.725 14.993 62.96 27.517 111.512 37.57 145.653zM342.9 533.31l-5.556 4.324c-21.696-26.162-53.005-71.72-93.927-136.677-40.922-64.956-65.618-108.299-74.084-130.025 8.466-21.726 33.16-65.067 74.084-130.024 40.922-64.957 72.23-110.516 93.927-136.675l5.556 4.324c-10.054 34.14-22.577 82.691-37.57 145.653-16.052 66.952-24.078 105.86-24.078 116.722 0 10.863 8.026 49.772 24.077 116.725 14.994 62.96 27.517 111.512 37.57 145.653z" />
</svg>