<svg xmlns="http://www.w3.org/2000/svg" height="2048" width="2048" viewBox="-10 0 2048 2048">
   <path d="M1903 2015.66l-21 16.34c-82-98.873-200.333-271.063-355-516.569-154.667-245.505-248-409.317-280-491.431 32-82.114 125.333-245.926 280-491.431C1681.667 287.063 1800 114.873 1882 16l21 16.34c-38 129.037-85.333 312.538-142 550.503-60.667 253.047-91 400.1-91 441.157 0 41.058 30.333 188.11 91 441.157 56.667 237.965 104 421.466 142 550.504zM692 316l358 189c39.333 20.667 74 31.333 104 32l267.5 9c16.667 0 25 13.333 25 40s-8.333 40-25 40l-267.5 9c-30 .667-64.667 11.333-104 32L692 856c-6-47.333-13-118.333-21-213l-77 1c-41.333.667-76 8.333-104 23L132 856c-14.667-124-22-214-22-270s7.333-146 22-270l358 189c28 14.667 62.667 22.333 104 23l77 1c2-39.333 9-110.333 21-213zM692 1232l358 189c39.333 20.667 74 31.333 104 32l267.5 9c16.667 0 25 13.333 25 40s-8.333 40-25 40l-267.5 9c-30 .667-64.667 11.333-104 32l-358 189c-6-47.333-13-118.333-21-213l-77 1c-41.333.667-76 8.333-104 23l-358 189c-14.667-124-22-214-22-270s7.333-146 22-270l358 189c28 14.667 62.667 22.333 104 23l77 1c2-39.333 9-110.333 21-213z" />
</svg>