<svg xmlns="http://www.w3.org/2000/svg" height="2048" width="2048" viewBox="-10 0 2048 2048">
   <path d="M1677 1917l-17 11c-111.333-100.667-243.333-229-396-385-78-80-121.667-125-131-135-49.333-52-89.667-100-121-144 39.333-54.667 123.333-147.667 252-279 152.667-156 284.667-284.333 396-385l17 11c-38.667 100.667-71.667 188.667-99 264-45.333 123.333-68.667 187.333-70 192-25.333 74-43.333 139.667-54 197 12.667 68.667 54 198.333 124 389 27.333 75.333 60.333 163.333 99 264zm-660 0l-17 11c-111.333-100.667-243.333-229-396-385-78-80-121.667-125-131-135-49.333-52-89.667-100-121-144 39.333-54.667 123.333-147.667 252-279 152.667-156 284.667-284.333 396-385l17 11c-38.667 100.667-71.667 188.667-99 264-45.333 123.333-68.667 187.333-70 192-25.333 74-43.333 139.667-54 197 12.667 68.667 54 198.333 124 389 27.333 75.333 60.333 163.333 99 264z" fill="currentColor" />
</svg>