<svg xmlns="http://www.w3.org/2000/svg" height="2048" width="2048" viewBox="-10 0 2048 2048">
   <path d="M1290 392c0 26.667-8.333 40-25 40l-676 13c-42 .667-77.333 8.667-106 24L131 654c-14-118-21-205.333-21-262s7-144 21-262l352 185c28.667 15.333 64 23.333 106 24l676 13c16.667 0 25 13.333 25 40zm-8 302l-185 352c-15.333 29.333-23.333 64.667-24 106l-13 741c0 16.667-13.333 25-40 25s-40-8.333-40-25l-13-741c-.667-41.333-8.667-76.667-24-106L758 694c118-14 205.333-21 262-21s144 7 262 21zm-540 0l-185 352c-15.333 29.333-23.333 64.667-24 106l-13 741c0 16.667-13.333 25-40 25s-40-8.333-40-25l-13-741c-.667-41.333-8.667-76.667-24-106L218 694c118-14 205.333-21 262-21s144 7 262 21z" />
</svg>