<svg xmlns="http://www.w3.org/2000/svg" height="2048" width="2048" viewBox="-10 0 2048 2048">
   <path d="M649.996 40.538L461 439.832c-11.334 23.055-18.667 53.913-22 92.577 43.333 2.23 112 9.667 205.998 22.308L456 954.01c-16 33.464-24.667 74.361-26.003 122.693 35.336 1.486 105.337 9.294 210.002 23.422L451 1499.415c-18 38.67-27.333 71.388-27.999 98.153l-3 406.55c0 18.588-13.333 27.882-40 27.882-26.668 0-40.002-9.294-40.002-27.882L337 1597.572c-.666-26.769-9.999-59.485-28-98.151l-188.998-399.297c46.663-6.692 116.662-14.5 209.997-23.422-1.336-48.332-10.004-89.229-26.004-122.688l-188.99-399.297c45.998-5.95 114.665-13.386 205.998-22.31-3.333-38.663-10.666-69.521-21.997-92.571L110 40.539C234.001 24.18 324.002 16 380.002 16S526 24.178 650 40.534zM628.536 1340L618 1316.31c63.758-92.5 174.792-225.985 333.105-400.457C1109.417 741.383 1215.049 636.097 1268 600c52.95 36.097 158.584 141.382 316.895 315.853 158.313 174.471 269.347 307.957 333.105 400.457L1907.464 1340c-83.21-42.865-201.538-96.26-354.988-160.183-163.174-68.435-258-102.651-284.476-102.651s-121.302 34.216-284.476 102.651c-153.45 63.924-271.779 117.318-354.988 160.183zM628.536 2032L618 2008.311c63.758-92.5 174.792-225.986 333.105-400.458C1109.417 1433.383 1215.049 1328.098 1268 1292c52.95 36.097 158.584 141.382 316.895 315.853 158.313 174.472 269.347 307.958 333.105 400.458L1907.464 2032c-83.21-42.866-201.538-96.26-354.988-160.183-163.174-68.435-258-102.653-284.476-102.653s-121.302 34.218-284.476 102.653C830.074 1935.74 711.745 1989.134 628.536 2032zM1921.5 279c0 30.667-11 46.667-33 48-53.018.089-786.282 8.974-828.5 31L712 542c-14.667-123.333-22-211-22-263s7.333-139.667 22-263l348 184c34 18 767.167 28.333 828.5 31 22 1.333 33 17.333 33 48z" />
</svg>