<svg xmlns="http://www.w3.org/2000/svg" viewBox="-10 0 2048 2048" width="2048" height="2048">
   <path d="M1080 2018.747L1063.23 2032c-109.826-121.285-240.04-275.904-390.64-463.855-76.945-96.386-120.02-150.603-129.228-162.651C494.697 1342.844 454.91 1285.012 424 1232c38.8-65.864 121.664-177.912 248.59-336.145C823.19 707.904 953.403 553.285 1063.23 432l16.77 13.253c-38.144 121.286-70.697 227.31-97.66 318.072-44.72 148.594-67.738 225.703-69.053 231.326-24.99 89.156-42.746 168.273-53.269 237.349 12.496 82.731 53.27 238.955 122.322 468.675 26.963 90.762 59.516 196.786 97.66 318.072zM1804 2018.747L1787.23 2032c-109.826-121.285-240.04-275.904-390.64-463.855-76.945-96.386-120.02-150.603-129.228-162.651-48.665-62.65-88.453-120.482-119.362-173.494 38.8-65.864 121.664-177.912 248.59-336.145 150.6-187.951 280.814-342.57 390.64-463.855l16.77 13.253c-38.144 121.286-70.697 227.31-97.66 318.072-44.72 148.594-67.738 225.703-69.053 231.326-24.99 89.156-42.746 168.273-53.269 237.35 12.496 82.73 53.27 238.954 122.322 468.674 26.963 90.762 59.516 196.787 97.66 318.072zM1918 286c0 28-8.667 42-26 42L594 344c-41.333.667-76 8.333-104 23L132 556c-14.667-124-22-214-22-270s7.333-146 22-270l358 189c28 14.667 62.667 22.333 104 23l1298 16c17.333 0 26 14 26 42z" />
</svg>