<?xml version="1.0" encoding="UTF-8" standalone="no"?>
<svg
   xmlns:dc="http://purl.org/dc/elements/1.1/"
   xmlns:cc="http://creativecommons.org/ns#"
   xmlns:rdf="http://www.w3.org/1999/02/22-rdf-syntax-ns#"
   xmlns:svg="http://www.w3.org/2000/svg"
   xmlns="http://www.w3.org/2000/svg"
   xmlns:sodipodi="http://sodipodi.sourceforge.net/DTD/sodipodi-0.dtd"
   xmlns:inkscape="http://www.inkscape.org/namespaces/inkscape"
   sodipodi:docname="000-004-061_pyo.svg"
   inkscape:version="1.0 (4035a4fb49, 2020-05-01)"
   id="svg841"
   version="1.1"
   viewBox="0 0 541.86665 541.86668"
   height="2048"
   width="2048">
  <defs
     id="defs835" />
  <sodipodi:namedview
     inkscape:window-maximized="1"
     inkscape:window-y="-8"
     inkscape:window-x="-8"
     inkscape:window-height="1018"
     inkscape:window-width="1920"
     units="px"
     showgrid="false"
     inkscape:document-rotation="0"
     inkscape:current-layer="layer1"
     inkscape:document-units="px"
     inkscape:cy="1045.7143"
     inkscape:cx="742.85714"
     inkscape:zoom="0.35"
     inkscape:pageshadow="2"
     inkscape:pageopacity="0.0"
     borderopacity="1.0"
     bordercolor="#666666"
     pagecolor="#ffffff"
     id="base" />
  <metadata
     id="metadata838">
    <rdf:RDF>
      <cc:Work
         rdf:about="">
        <dc:format>image/svg+xml</dc:format>
        <dc:type
           rdf:resource="http://purl.org/dc/dcmitype/StillImage" />
        <dc:title></dc:title>
      </cc:Work>
    </rdf:RDF>
  </metadata>
  <g
     id="layer1"
     inkscape:groupmode="layer"
     inkscape:label="图层 1">
    <path
       style="stroke-width:0.264583"
       d="m 176.2125,103.98125 c 0,8.11397 -2.91042,12.34731 -8.73125,12.7 -9.525,0.35269 -15.96311,0.88185 -19.31458,1.5875 -5.99731,1.05833 -12.17084,3.2631 -18.52083,6.61458 l -92.075,48.68333 C 33.69019,140.93481 31.75,117.73958 31.75,103.98125 c 0,-13.758334 1.94019,-36.953561 5.82084,-69.585417 l 92.075,48.683333 c 8.99583,4.7625 21.60772,7.49644 37.83541,8.202083 5.82083,0.35269 8.73125,4.586023 8.73125,12.700001 z m -1.05833,79.90416 -48.94792,93.13334 c -4.05685,7.76102 -6.17352,17.10981 -6.35,28.04583 l -3.43958,196.05625 c 0,4.40981 -3.52769,6.61458 -10.58333,6.61458 -7.05565,0 -10.58334,-2.20477 -10.58334,-6.61458 L 91.81042,305.06458 c -0.17648,-10.93602 -2.29314,-20.28481 -6.35,-28.04583 L 36.5125,183.88541 c 31.22084,-3.70416 54.32769,-5.55625 69.32084,-5.55625 14.99314,0 38.09999,1.85209 69.32083,5.55625 z"
       id="path2" />
    <path
       sodipodi:nodetypes="sccccsccccssccccsccccs"
       d="m 347.92708,199.49583 c 0,7.05556 -2.20486,10.58334 -6.61458,10.58334 l -18.78541,1.85208 c -8.99583,0.17639 -18.34444,2.82222 -28.04583,7.9375 l -93.13334,48.94792 c -3.70417,-31.22083 -5.55625,-54.32778 -5.55625,-69.32084 0,-14.99305 1.85208,-38.1 5.55625,-69.32083 l 93.13334,48.94792 c 9.70139,5.11527 19.05,7.76111 28.04583,7.9375 l 18.78541,1.85208 c 4.40972,0 6.61458,3.52778 6.61458,10.58333 z m 0,142.875 c 0,7.05556 -2.20486,10.58334 -6.61458,10.58334 l -18.78541,1.85208 c -8.99583,0.17639 -18.34444,2.82222 -28.04583,7.9375 l -93.13334,48.94792 c -3.70417,-31.22083 -5.55625,-54.32778 -5.55625,-69.32084 0,-14.99305 1.85208,-38.1 5.55625,-69.32083 l 93.13334,48.94792 c 9.70139,5.11527 19.05,7.76111 28.04583,7.9375 l 18.78541,1.85208 c 4.40972,0 6.61458,3.52778 6.61458,10.58333 z"
       style="stroke-width:0.264583"
       id="path1447" />
    <path
       id="path2-3"
       d="m 510.11667,479.68958 -5.55625,3.43959 Q 472.01667,451.90833 410.63334,374.38542 349.25,296.8625 336.55,270.93333 349.25,245.00417 410.63334,167.48125 472.01667,89.958331 504.56042,58.7375 l 5.55625,3.439583 q -15.08125,40.745837 -37.57083,115.887497 -24.07709,79.90417 -24.07709,92.86875 0,12.96459 24.07709,92.86875 22.48958,75.14167 37.57083,115.8875 z"
       style="stroke-width:0.264583" />
  </g>
</svg>
