<svg xmlns="http://www.w3.org/2000/svg" viewBox="0 0 541.867 541.867" height="2048" width="2048">
   <path d="M499.533 507.47l-4.762 2.647c-27.34-23.284-55.034-47.89-83.08-73.82-14.287-13.228-35.1-33.69-62.441-61.382 12.17-13.759 32.985-34.22 62.442-61.384 28.046-25.929 55.739-50.535 83.079-73.819l4.762 2.646a24471.107 24471.107 0 01-27.516 65.352c-10.231 26.282-17.286 48.684-21.167 67.205 3.88 18.52 10.936 40.922 21.167 67.204a24469.71 24469.71 0 0127.516 65.352zm-153.458 0l-4.762 2.647c-27.34-23.284-55.034-47.89-83.08-73.82-14.287-13.228-35.101-33.69-62.441-61.382 12.17-13.759 32.984-34.22 62.441-61.384 28.046-25.929 55.74-50.535 83.08-73.819l4.762 2.646a24474.395 24474.395 0 01-27.517 65.352c-10.23 26.282-17.286 48.684-21.166 67.205 3.88 18.52 10.936 40.922 21.166 67.204 9.173 21.696 18.345 43.48 27.517 65.352zm-153.458 0l-4.763 2.647c-27.34-23.284-55.033-47.89-83.079-73.82-14.287-13.228-35.101-33.69-62.442-61.382 12.171-13.759 32.985-34.22 62.442-61.384 28.046-25.929 55.739-50.535 83.08-73.819l4.762 2.646A24474.4 24474.4 0 01165.1 307.71c-10.23 26.282-17.286 48.684-21.167 67.205 3.881 18.52 10.936 40.922 21.167 67.204 9.172 21.696 18.344 43.48 27.517 65.352zM62.442 245.004l94.72-50.006c7.409-3.88 16.581-5.909 27.517-6.085l293.952-4.763c4.41 0 6.615-3.528 6.615-10.583 0-7.056-2.205-10.584-6.615-10.584l-293.952-4.762c-10.936-.177-20.108-2.205-27.516-6.086L62.442 102.13c-3.881 32.808-5.821 56.621-5.821 71.438 0 14.816 1.94 38.629 5.82 71.437zm208.491-85.857c8.114 0 12.348-2.91 12.7-8.731L340.52 37.57c-32.632-3.88-55.827-5.821-69.586-5.821-13.758 0-36.953 1.94-69.585 5.82l56.885 112.846c.353 5.82 4.586 8.73 12.7 8.73z" />
</svg>