<svg xmlns="http://www.w3.org/2000/svg" viewBox="0 0 541.867 541.867" height="2048" width="2048">
   <path d="M510.117 479.69l-5.557 3.44q-32.543-31.222-93.927-108.745-61.383-77.522-74.083-103.452 12.7-25.929 74.083-103.452 61.384-77.523 93.927-108.743l5.557 3.44q-15.082 40.745-37.571 115.887-24.077 79.904-24.077 92.868 0 12.965 24.077 92.87 22.49 75.14 37.57 115.887zM321.866 199.496c0 8.29-2.91 12.523-8.732 12.7l-19.447 1.323c-11.112.176-20.46 2.293-28.045 6.35l-93.134 48.948c-3.704-31.221-5.556-54.328-5.556-69.321 0-14.993 1.852-38.1 5.556-69.321l93.134 48.948c7.584 4.057 16.933 6.173 28.045 6.35l19.447 1.323c5.821.176 8.732 4.41 8.732 12.7zm0 142.875c0 8.29-2.91 12.523-8.732 12.7l-19.447 1.323c-11.112.176-20.46 2.293-28.045 6.35l-93.134 48.948c-3.704-31.221-5.556-54.328-5.556-69.321 0-14.993 1.852-38.1 5.556-69.321l93.134 48.948c7.584 4.057 16.933 6.173 28.045 6.35l19.447 1.323c5.821.176 8.732 4.41 8.732 12.7zM174.625 62.44l-50.006 94.721c-3.88 7.409-5.91 16.581-6.086 27.517l-4.762 293.952c0 4.41-3.528 6.615-10.583 6.615-7.056 0-10.584-2.205-10.584-6.615L87.842 184.68c-.177-10.936-2.205-20.108-6.086-27.517L31.75 62.442c32.808-3.881 56.62-5.821 71.438-5.821 14.816 0 38.629 1.94 71.437 5.82z" />
</svg>