<svg xmlns="http://www.w3.org/2000/svg" width="2048" height="2048" viewBox="0 0 541.867 541.867">
   <path d="M198.967 162.454l-48.948 93.133c-4.057 7.761-6.174 17.11-6.35 28.046l-3.44 248.312c0 4.41-3.528 6.615-10.583 6.615-7.056 0-10.584-2.205-10.584-6.615l-3.44-248.312c-.176-10.936-2.292-20.285-6.35-28.046l-48.947-93.133c31.22-3.704 54.328-5.556 69.32-5.556 14.994 0 38.1 1.852 69.322 5.556zM341.842 162.454l-48.948 93.133c-4.057 7.761-6.174 17.11-6.35 28.046l-3.44 248.312c0 4.41-3.528 6.615-10.583 6.615-7.056 0-10.584-2.205-10.584-6.615l-3.44-248.312c-.176-10.936-2.292-20.285-6.35-28.046L203.2 162.454c31.22-3.704 54.328-5.556 69.32-5.556 14.994 0 38.1 1.852 69.322 5.556zM386.291 73.554c0 7.055-2.204 10.583-6.614 10.583l-221.192 3.44c-11.112.176-20.46 2.293-28.045 6.35l-93.134 48.947c-3.704-31.22-5.556-54.327-5.556-69.32 0-14.993 1.852-38.1 5.556-69.32L130.44 53.18c7.584 4.057 16.933 6.173 28.045 6.35l221.192 3.44c4.41 0 6.614 3.527 6.614 10.583zM510.117 533.31l-5.557 4.324q-32.543-39.242-93.927-136.677-61.383-97.434-74.083-130.025 12.7-32.589 74.083-130.024Q472.017 43.472 504.56 4.233l5.557 4.324q-15.082 51.21-37.571 145.653-24.077 100.428-24.077 116.722 0 16.295 24.077 116.725 22.49 94.44 37.57 145.653z" />
</svg>