<svg xmlns="http://www.w3.org/2000/svg" viewBox="-10 0 2048 2048" width="2048" height="2048">
   <path d="M649.996 665.133l-188.995 399.296c-20.667 43.869-31.334 82.536-32.001 115.997l-9 823.688c0 18.59-13.332 27.886-39.998 27.886-26.669 0-40.003-9.295-40.003-27.886L331 1180.428c-.668-33.46-11.335-72.126-32.001-115.997L110 665.139c47.332-6.694 118.332-14.503 212.999-23.425l-.998-85.882c-.668-46.101-8.335-84.767-23.002-115.998L110 40.539C233.999 24.18 324 16 380.002 16 435.999 16 525.999 24.178 650 40.534L461 439.83c-14.665 31.234-22.333 69.898-23 115.998l-.998 85.882c39.331 2.233 110.331 10.04 212.998 23.424zM648.374 756L638 732.31c62.777-92.5 172.104-225.985 327.98-400.457C1121.857 157.383 1225.864 52.097 1278 16c52.136 36.097 156.144 141.382 312.02 315.853C1745.896 506.325 1855.222 639.81 1918 732.31L1907.626 756c-81.93-42.865-198.437-96.26-349.526-160.183-160.666-68.435-254.032-102.651-280.1-102.651-26.069 0-119.435 34.216-280.099 102.651C846.811 659.74 730.303 713.134 648.373 756zM648.374 1390L638 1366.311c62.777-92.5 172.104-225.986 327.98-400.458C1121.857 791.383 1225.864 686.098 1278 650c52.136 36.098 156.144 141.382 312.02 315.853 155.876 174.472 265.203 307.958 327.98 400.458L1907.626 1390c-81.93-42.866-198.437-96.26-349.526-160.183-160.666-68.435-254.032-102.653-280.1-102.653-26.069 0-119.435 34.218-280.099 102.653-151.09 63.924-267.598 117.317-349.528 160.183zM1921.5 1769c0 30.667-11 46.667-33 48-53.018.089-886.282 8.974-928.5 31l-348 184c-14.667-123.333-22-211-22-263s7.333-139.667 22-263l348 184c34 18 867.167 28.333 928.5 31 22 1.333 33 17.333 33 48z" />
</svg>