<svg xmlns="http://www.w3.org/2000/svg" viewBox="0 0 541.867 541.867" height="2048" width="2048">
   <path d="M176.742 330.994l-48.948 93.133c-4.057 7.585-6.174 16.933-6.35 28.046l-1.059 46.037c-.176 5.998-4.498 8.996-12.964 8.996-8.467 0-12.788-2.998-12.965-8.996l-1.058-46.037c-.177-11.113-2.293-20.461-6.35-28.046L38.1 330.994c31.22-3.704 54.328-5.557 69.32-5.557 14.994 0 38.1 1.853 69.322 5.557zM188.383 254c0 8.643-2.469 12.965-7.408 12.965l-21.167 2.38c-10.936.177-20.108 2.206-27.516 6.086L37.57 325.438C33.69 292.629 31.75 268.817 31.75 254s1.94-38.63 5.82-71.438l94.722 50.007c7.408 3.88 16.58 5.909 27.516 6.085l21.167 2.381c4.939 0 7.408 4.322 7.408 12.965zM188.383 103.188c0 8.643-2.469 12.964-7.408 12.964l-21.167 2.381c-10.936.177-20.108 2.205-27.516 6.086L37.57 174.625c-3.88-32.808-5.821-56.62-5.821-71.438 0-14.816 1.94-38.629 5.82-71.437l94.722 50.006c7.408 3.88 16.58 5.91 27.516 6.086l21.167 2.38c4.939 0 7.408 4.322 7.408 12.965zM360.098 199.496c0 7.055-2.205 10.583-6.615 10.583l-24.077 1.852c-8.996.177-18.344 2.822-28.046 7.938l-93.133 48.948c-3.704-31.221-5.556-54.328-5.556-69.321 0-14.993 1.852-38.1 5.556-69.321l93.133 48.948c9.702 5.115 19.05 7.761 28.046 7.937l24.077 1.852c4.41 0 6.615 3.528 6.615 10.584zm0 142.875c0 7.055-2.205 10.583-6.615 10.583l-24.077 1.852c-8.996.177-18.344 2.822-28.046 7.938l-93.133 48.948c-3.704-31.221-5.556-54.328-5.556-69.321 0-14.993 1.852-38.1 5.556-69.321l93.133 48.948c9.702 5.115 19.05 7.761 28.046 7.937l24.077 1.853c4.41 0 6.615 3.527 6.615 10.583zM510.117 479.69l-5.557 3.44q-32.543-31.222-93.927-108.745-61.383-77.522-74.083-103.452 12.7-25.929 74.083-103.452 61.384-77.523 93.927-108.743l5.557 3.44q-15.082 40.745-37.571 115.887-24.077 79.904-24.077 92.868 0 12.965 24.077 92.87 22.49 75.14 37.57 115.887z" />
</svg>