<svg xmlns="http://www.w3.org/2000/svg" height="2048" width="2048" viewBox="-10 0 2048 2048">
   <path d="M1903 2015.66l-21 16.34c-82-98.873-200.333-271.063-355-516.569-154.667-245.505-248-409.317-280-491.431 32-82.114 125.333-245.926 280-491.431C1681.667 287.063 1800 114.873 1882 16l21 16.34c-38 129.037-85.333 312.538-142 550.503-60.667 253.047-91 400.1-91 441.157 0 41.058 30.333 188.11 91 441.157 56.667 237.965 104 421.466 142 550.504zM692 754l358 189c39.333 20.667 74 31.333 104 32l67.5 9c16.667 0 25 13.333 25 40s-8.333 40-25 40l-67.5 9c-30 .667-64.667 11.333-104 32l-358 189c-6-47.333-13-118.333-21-213l-77 1c-41.333.667-76 8.333-104 23l-358 189c-14.667-124-22-214-22-270s7.333-146 22-270l358 189c28 14.667 62.667 22.333 104 23l77 1c2-39.333 9-110.333 21-213zM2596 386.424c-134.314 42.24-269.204 82.744-403.142 126.116-42.68 13.132-75.966 42.945-106.444 74.124-46.468 44.402-92.02 89.841-139.066 133.59-28.34 11.092-72.796-33.249-51.975-60.253 55.912-58.369 112.84-115.808 168.098-174.774 40.414-52.776 51.22-119.856 72.52-181.314L2225.537 16c100.053 79.24 200.885 159.541 280.82 259.978 30.562 36.256 60.286 73.21 89.643 110.446z" />
</svg>