<svg xmlns="http://www.w3.org/2000/svg" viewBox="0 0 541.867 541.867" height="2048" width="2048">
   <path d="M62.177 510.117l-3.44-5.557q31.221-32.543 108.744-93.927 77.523-61.383 103.452-74.083 25.93 12.7 103.452 74.083 77.523 61.384 108.744 93.927l-3.44 5.557q-40.745-15.082-115.887-37.571-79.904-24.077-92.869-24.077-12.964 0-92.868 24.077-75.142 22.49-115.888 37.57zM489.48 37.57s-60.855 111.699-60.855 113.904c0 2.205-3.528 6.615-10.583 6.615-7.056 0-10.584-4.41-10.584-6.615S346.604 37.571 346.604 37.571c32.809-3.88 56.621-5.821 71.438-5.821 14.816 0 38.629 1.94 71.437 5.82zm-147.11 0s-60.853 111.699-60.853 113.904c0 2.205-3.528 6.615-10.584 6.615-7.055 0-10.583-4.41-10.583-6.615S199.496 37.571 199.496 37.571c32.808-3.88 56.62-5.821 71.437-5.821s38.63 1.94 71.438 5.82zm-147.108 0s-60.854 111.699-60.854 113.904c0 2.205-3.527 6.615-10.583 6.615s-10.583-4.41-10.583-6.615S52.387 37.571 52.387 37.571c32.809-3.88 56.621-5.821 71.438-5.821s38.63 1.94 71.437 5.82z" />
</svg>