<?xml version="1.0" standalone="no"?>
<!DOCTYPE svg PUBLIC "-//W3C//DTD SVG 1.1//EN" "http://www.w3.org/Graphics/SVG/1.1/DTD/svg11.dtd" >
<svg>
<metadata>
Created by FontForge 20120731 at Wed Apr 17 21:41:20 2019
 By www-data
Digitized by Dan X. Solo.  Software (c) 2000 by Dover Publications, Inc., New York.
</metadata>
<defs>
<font id="Capitol" horiz-adv-x="20" >
  <font-face 
    font-family="Capitol"
    font-weight="400"
    font-variant="small-caps"
    font-stretch="normal"
    units-per-em="1000"
    panose-1="0 0 4 0 0 0 0 0 0 0"
    ascent="800"
    descent="-200"
    x-height="658"
    cap-height="660"
    bbox="-10 -206 996 851"
    underline-thickness="20"
    underline-position="-123"
    unicode-range="U+0020-F002"
  />
<missing-glyph horiz-adv-x="500" 
d="M63 0v800h375v-800h-375zM125 63h250v675h-250v-675z" />
    <glyph glyph-name=".notdef" horiz-adv-x="500" 
d="M63 0v800h375v-800h-375zM125 63h250v675h-250v-675z" />
    <glyph glyph-name=".null" horiz-adv-x="0" 
 />
    <glyph glyph-name="glyph2" horiz-adv-x="288" 
 />
    <glyph glyph-name="space" unicode=" " horiz-adv-x="288" 
 />
    <glyph glyph-name="exclam" unicode="!" horiz-adv-x="365" 
d="M224 230h-114l-1 430h154l1 -279zM84 659v-429h-33l-40 151v278h73zM31 93q0 42 31.5 71.5t75.5 29.5q45 0 76.5 -29.5t31.5 -71.5q0 -41 -31.5 -70.5t-76.5 -29.5q-44 0 -75.5 29.5t-31.5 70.5z" />
    <glyph glyph-name="quotedbl" unicode="&#x22;" horiz-adv-x="362" 
d="M271 447h-48v215h68zM203 662l1 -215l-18 1l-20 214h37zM121 447h-48l1 215h67zM53 662l1 -215l-18 1l-20 214h37z" />
    <glyph glyph-name="numbersign" unicode="#" horiz-adv-x="535" 
d="M164 217h112l49 205h-112zM430 217l-28 -84h-104l-34 -133h-49l35 133h-112l-34 -133h-49l35 133h-91l28 84h89l49 205h-97l24 89h97l38 147h47l-38 -147h113l38 147h47l-38 -147h99l-24 -89h-98l-49 -205h106z" />
    <glyph glyph-name="dollar" unicode="$" horiz-adv-x="438" 
d="M365 231q0 -60 -41.5 -110t-100.5 -65q57 43 57 99q0 47 -44 107q-41 50 -82 99q-45 55 -45 87q0 30 23 52t54 22q14 -41 102 -145q77 -91 77 -146zM205 -3h-52v61q-2 0 -6 -1.5t-6 -1.5q-89 0 -140 87q17 14 50 32q48 -66 94 -66q51 0 51 46q0 25 -44 81
q-82 104 -82 105q-44 63 -44 106q0 53 37 96.5t90 54.5v67h52v-66q67 -11 106 -66q-7 -9 -40 -35q-37 50 -90 50q-43 0 -72.5 -29.5t-29.5 -72.5q0 -33 86 -137t86 -150q0 -59 -49 -86h3v-75z" />
    <glyph glyph-name="percent" unicode="%" horiz-adv-x="708" 
d="M637 182q0 -72 -33 -122q-38 -59 -106 -59q-17 0 -49 8v356q22 9 49 9q70 0 108 -64q31 -53 31 -128zM425 356l-1 -341q-77 59 -79 177q-1 48 18 93q23 53 62 71zM597 187q0 51 -23 97q-27 55 -73 55q-6 0 -10 -1v-298l15 -2q47 0 72 54q19 42 19 95zM289 472
q0 -72 -33 -122q-38 -59 -106 -59q-17 0 -49 8v356q22 9 49 9q70 0 108 -64q31 -53 31 -128zM78 646l-1 -341q-77 59 -79 177q-1 48 18 93q23 53 62 71zM249 477q0 51 -23 97q-27 55 -73 55q-6 0 -10 -1v-298l15 -2q47 0 72 54q19 42 19 95zM442 658l-297 -658h49l296 658
h-48z" />
    <glyph glyph-name="ampersand" unicode="&#x26;" horiz-adv-x="610" 
d="M540 1h-162q-30 54 -129 280q-105 241 -105 267q0 44 39 81t84 37q57 0 99.5 -41t42.5 -98q0 -58 -58 -108l99 -210l25 27l56 -38l-47 -66q11 -21 56 -131zM340 18q-54 -37 -129 -37q-84 0 -144 60.5t-60 145.5q0 109 102 172q0 1 -29 69q-18 42 -18 73q0 47 32 90t77 58
q-30 -31 -39 -47q-13 -23 -13 -57q0 -48 94 -255q64 -136 127 -272zM343 530q0 12 -9 28.5t-20 16.5q-20 0 -20 -22q0 -17 11 -39.5t18 -26.5q20 33 20 43zM247 53l1 -1v0q0 8 -107 242q-27 -11 -44.5 -43t-17.5 -63q0 -55 39 -99t93 -44q11 0 36 8z" />
    <glyph glyph-name="quotesingle" unicode="'" horiz-adv-x="205" 
d="M124 447h-50v215h70zM52 662v-217l-16 3l-20 214h36z" />
    <glyph glyph-name="parenleft" unicode="(" horiz-adv-x="276" 
d="M212 -45q0 -24 -25 -24q-72 0 -125 82q-47 73 -47 149v274q0 83 46 167q54 98 130 98q17 0 20 -28q-58 -66 -58 -154l1 -457q0 -40 15 -60q6 -8 28 -22q15 -10 15 -25z" />
    <glyph glyph-name="parenright" unicode=")" horiz-adv-x="276" 
d="M1 678q0 23 25 23q71 0 124 -81q48 -73 48 -149v-275q0 -82 -47 -167q-54 -98 -130 -98q-16 0 -19 28q58 67 58 155l-1 457q0 40 -15 60q-6 7 -28 22q-15 9 -15 25z" />
    <glyph glyph-name="asterisk" unicode="*" horiz-adv-x="343" 
d="M123 541l-22 116q17 0 70 1l-23 -117l90 77q10 -18 35 -60l-107 -40l106 -37q-10 -18 -34 -61l-88 73l21 -111q-18 0 -70 -1l19 113l-86 -74q-10 18 -35 60l112 39l-112 39q11 18 35 61z" />
    <glyph glyph-name="plus" unicode="+" horiz-adv-x="627" 
d="M314 294v-229h-75v229h-229v75h229v229h75v-229h229v-75h-229z" />
    <glyph glyph-name="comma" unicode="," horiz-adv-x="334" 
d="M239 78q0 -73 -34 -123q-38 -58 -108 -58q-23 0 -56 9q1 21 6 63q40 -8 47 -8q52 0 62 42q-74 -3 -110 16q-44 24 -44 85q0 43 29.5 74t72.5 31q60 0 97.5 -36t37.5 -95z" />
    <glyph glyph-name="hyphen" unicode="-" horiz-adv-x="300" 
d="M-1 364q-2 -107 0 -107h220q3 0 0 107h-220z" />
    <glyph glyph-name="hyphen" unicode="&#x2010;" horiz-adv-x="300" 
d="M-1 364q-2 -107 0 -107h220q3 0 0 107h-220z" />
    <glyph glyph-name="period" unicode="." horiz-adv-x="302" 
d="M11 93q0 42 31.5 71.5t75.5 29.5q45 0 76.5 -29.5t31.5 -71.5q0 -41 -31.5 -70.5t-76.5 -29.5q-44 0 -75.5 29.5t-31.5 70.5z" />
    <glyph glyph-name="slash" unicode="/" horiz-adv-x="394" 
d="M292 658l-297 -658h49l296 658h-48z" />
    <glyph glyph-name="zero" unicode="0" horiz-adv-x="614" 
d="M566 318q0 -131 -60 -223q-70 -107 -194 -107q-30 0 -89 15v648q40 16 89 16q127 0 196 -116q58 -97 58 -233zM195 634l-2 -620q-80 61 -113 141q-29 70 -31 180q-2 87 33 170q41 96 113 129zM493 326q0 93 -42 176q-50 102 -133 102q-11 0 -17 -2v-543l26 -3
q85 0 130 98q36 77 36 172z" />
    <glyph glyph-name="one" unicode="1" horiz-adv-x="614" 
d="M432 0h-142l1 625l141 40q-1 -106 0 -665zM262 0h-77v515l-63 -30v77l139 52z" />
    <glyph glyph-name="two" unicode="2" horiz-adv-x="614" 
d="M571 -1h-424l331 634q37 -27 57 -72q19 -41 19 -83q0 -106 -169 -402h186v-77zM449 647q-111 -216 -332 -647h-69l297 563q2 6 2 11q0 15 -17 24q-13 7 -27 7q-38 0 -79 -22q-50 -27 -69 -73q-37 23 -54 27q27 71 102 107q58 29 122 29q77 0 124 -26z" />
    <glyph glyph-name="three" unicode="3" horiz-adv-x="614" 
d="M544 190q0 -65 -45 -122q-48 -59 -111 -65v665q57 -17 95 -55q44 -44 44 -98q0 -64 -27 -104q-20 -29 -54 -45l-38 -16q136 -39 136 -160zM357 671v-674l-40 -2q-170 -9 -247 111q16 15 69 47q46 -77 161 -88v257q-39 2 -61 1v67q19 4 64 0v210q2 -1 -17 -1
q-36 0 -67.5 -27.5t-42.5 -63.5q-26 9 -77 27q65 136 226 136h32z" />
    <glyph glyph-name="four" unicode="4" horiz-adv-x="614" 
d="M565 122h-97v-122l-139 1l-1 548l139 143l1 -494h98zM300 1h-75v129h-146l-31 68l252 317v-514zM228 201v109l-86 -108z" />
    <glyph glyph-name="five" unicode="5" horiz-adv-x="614" 
d="M557 250q0 -82 -38 -148q-41 -69 -112 -99l-1 314q0 74 1 156q51 -4 100.5 -78t49.5 -145zM515 657v-72q-209 2 -258 0l-36 -99q26 9 93 9q23 0 68 -14v-483q-35 -5 -83 -5q-105 0 -172 57q-70 60 -70 161h72l-1 -16q-2 -54 42.5 -95.5t99.5 -41.5q3 0 34 -1
q-2 179 -1 254l1 108q-14 4 -32 4q-52 0 -105 -23l-46 38l76 220z" />
    <glyph glyph-name="six" unicode="6" horiz-adv-x="614" 
d="M318 -18q-54 0 -81 12v664q35 17 106 17q51 0 84 -13q38 -17 83 -63q-19 -18 -54 -51q-29 23 -57 47q-22 15 -55 15q-13 0 -32 -2q-3 -106 -2 -156q0 -37 1 -43q2 1 3 1q62 34 88 34q68 0 113.5 -47.5t49.5 -120.5q3 -60 -5 -96q-18 -86 -85.5 -142t-156.5 -56zM207 3
q-97 37 -135 162q-25 81 -23 181q3 100 40 171.5t118 129.5v-644zM495 251q0 37 -17 71q-22 43 -61 43q-48 0 -80 -24q-36 -27 -36 -79v-195q8 -9 27 -9q73 0 123 67q44 60 44 126z" />
    <glyph glyph-name="seven" unicode="7" horiz-adv-x="614" 
d="M359 -1h-181l285 659q42 2 91 1q17 53 -195 -660zM424 645l-285 -645l-70 -1l251 584h-261l1 76h371z" />
    <glyph glyph-name="eight" unicode="8" horiz-adv-x="614" 
d="M556 235q0 -25 -12 -67t-25 -54l-214 150q-136 98 -197 171q-24 29 -24 52q0 12 8 30q62 147 220 149q65 2 125 -35q68 -41 75 -105q2 -17 2 -30q0 -58 -42 -89q-1 -2 0 -5q38 -28 60.5 -75.5t23.5 -91.5zM503 83q1 -22 -49 -54q-61 -39 -158 -41q-91 -2 -153 32
q-83 44 -85 141q-1 83 68 125q-27 49 -31 57q-15 38 -16 93q35 -66 150 -150q83 -58 165 -117q109 -78 109 -86zM312 605q-23 0 -45 -12q-25 -14 -24 -36q0 -18 12 -29t68 -47q61 -39 73 -39q10 0 23.5 18.5t17.5 36.5q2 9 2 17q0 42 -45 69q-39 23 -82 22zM364 81
q9 26 -4 37q-35 29 -106 76q-67 44 -72 44q-19 0 -36 -30q-16 -26 -15 -45q1 -54 57 -85q46 -24 97 -24q20 1 44 7q31 8 35 20z" />
    <glyph glyph-name="nine" unicode="9" horiz-adv-x="614" 
d="M569 353q0 -94 -38 -188q-45 -110 -118 -142l1 623q155 -80 155 -293zM384 14q-54 -24 -116 -24q-49 0 -97 27t-73 69l61 42q9 -25 47.5 -50t65.5 -25l35 10v186q-39 -20 -50 -23q-21 -7 -57 -7q-69 0 -114 66q-41 59 -41 131q0 116 71.5 185.5t188.5 69.5q49 0 79 -15
v-642zM311 603l-39 -4q-73 -8 -115 -66q-40 -53 -40 -129q0 -37 24 -72q27 -38 63 -38q64 0 87 34q19 26 19 91v34q0 145 1 150z" />
    <glyph glyph-name="colon" unicode=":" horiz-adv-x="290" 
d="M11 423q0 42 31.5 71.5t75.5 29.5q45 0 76.5 -29.5t31.5 -71.5q0 -41 -31.5 -70.5t-76.5 -29.5q-44 0 -75.5 29.5t-31.5 70.5zM11 93q0 42 31.5 71.5t75.5 29.5q45 0 76.5 -29.5t31.5 -71.5q0 -41 -31.5 -70.5t-76.5 -29.5q-44 0 -75.5 29.5t-31.5 70.5z" />
    <glyph glyph-name="semicolon" unicode=";" horiz-adv-x="341" 
d="M253 436q0 -48 -30.5 -76.5t-79.5 -28.5t-79.5 26t-30.5 75q0 47 31 75t79 28q44 0 77 -28t33 -71zM259 78q0 -73 -34 -123q-38 -58 -108 -58q-23 0 -56 9q1 21 6 63q40 -8 47 -8q52 0 62 42q-74 -3 -110 16q-44 24 -44 85q0 43 29.5 74t72.5 31q60 0 97.5 -36t37.5 -95z
" />
    <glyph glyph-name="less" unicode="&#x3c;" horiz-adv-x="376" 
d="M3 341l-1 1l250 250l39 -39l-212 -212l212 -211l-39 -39l-250 250h1z" />
    <glyph glyph-name="equal" unicode="=" horiz-adv-x="593" 
d="M6 174v55h513v-55h-513zM6 314v55h513v-55h-513z" />
    <glyph glyph-name="greater" unicode="&#x3e;" horiz-adv-x="376" 
d="M290 341h1l-250 -250l-39 39l212 211l-212 212l39 39l250 -250z" />
    <glyph glyph-name="question" unicode="?" horiz-adv-x="462" 
d="M248 315v346q61 -16 97.5 -66.5t36.5 -114.5q0 -63 -36 -108t-98 -57zM218 262h-58l1 339q-1 1 -3 1q-39 -13 -63.5 -47.5t-24.5 -74.5q0 -15 3 -29q-18 -7 -55 -18q-7 14 -7 58q0 79 58 128q55 47 133 45l16 -1v-401zM303 105q0 -46 -36.5 -75.5t-83.5 -29.5t-82 30.5
t-35 76.5q0 47 42 79q38 28 87 28q45 0 76.5 -32t31.5 -77z" />
    <glyph glyph-name="at" unicode="@" horiz-adv-x="762" 
d="M699 379q0 -110 -56.5 -179.5t-138.5 -69.5q-92 0 -99 75q-54 -65 -129 -65q-42 0 -71 31q-32 34 -32 94q0 110 59 184q65 82 176 82q60 0 116 -30q-11 -36 -54 -232q-6 -26 -6 -43q0 -39 43 -39q47 0 82 56t35 136q0 102 -73 172q-76 71 -193 71q-122 0 -203 -93
q-77 -89 -77 -211q0 -112 77 -185.5t187 -73.5q65 0 124 19l16 -58q-61 -20 -140 -20q-143 0 -237 82q-102 88 -102 236q0 153 100.5 257t254.5 104q147 0 244 -82.5t97 -217.5zM438 469q-13 6 -36 6q-75 0 -118 -71q-36 -60 -36 -142q0 -60 46 -60q31 0 62 28q37 32 48 85z
" />
    <glyph glyph-name="A" unicode="A" horiz-adv-x="567" 
d="M492 -1h-70v442q0 69 -50.5 115.5t-120.5 46.5q-68 0 -116.5 -52.5t-48.5 -120.5v-239h154v387h19q47 0 91 -40t44 -87v-453l-157 1v122h-151v-122h-67l-1 442q0 93 73 160.5t166 67.5q95 0 165 -70t70 -166v-434z" />
    <glyph glyph-name="B" unicode="B" horiz-adv-x="563" 
d="M499 189q0 -62 -36 -111q-41 -57 -116 -73q-35 -7 -94 -5h-148v659h187q77 0 133.5 -50t56.5 -126q0 -83 -71 -133q51 -39 70 -77q18 -34 18 -84zM75 659l-1 -657l-65 -1v658h66zM414 485q0 45 -33.5 75.5t-76.5 30.5h-33v-205q8 -3 23 -3q48 0 79 21q41 26 41 81z
M431 189q0 55 -43 93q-40 35 -90 35h-28v-249h28q50 0 91.5 33.5t41.5 87.5z" />
    <glyph glyph-name="C" unicode="C" horiz-adv-x="565" 
d="M304 -12q-35 0 -102 15l1 648q45 16 101 16q105 0 176 -62q2 -2 -20 -23t-27 -23q-55 51 -125 52q-15 0 -46 -8v-544q20 -14 59 -14q73 2 125 55q-2 -2 43 -47q-78 -65 -185 -65zM168 634v-620q-91 61 -129 141q-33 70 -36 180q-2 88 38 170q46 96 127 129z" />
    <glyph glyph-name="D" unicode="D" horiz-adv-x="618" 
d="M549 318q0 -134 -98 -226t-236 -92h-106v658h75q172 0 275 -110q90 -97 90 -230zM79 658v-657h-33q-23 1 -35 1l1 656h67zM472 324q0 81 -59 162q-63 85 -141 94l-1 -503q102 28 155 103q46 64 46 144z" />
    <glyph glyph-name="E" unicode="E" horiz-adv-x="522" 
d="M430 591h-151v-207h148v-69l-148 1v-249h155v-67h-323l-1 659h320v-68zM78 0l-70 -1v660h71z" />
    <glyph glyph-name="F" unicode="F" horiz-adv-x="504" 
d="M426 659v-69h-150v-200h150v-69h-147l-1 -321l-158 2l-1 657h307zM87 2h-72v657h72v-657z" />
    <glyph glyph-name="G" unicode="G" horiz-adv-x="580" 
d="M304 -12q-35 0 -102 15l1 648q45 16 101 16q104 0 176 -62q2 -2 -20 -23t-27 -23q-55 51 -125 52q-15 0 -46 -8v-544q20 -14 59 -14q63 1 110 42l1 220h-65v62h132v-323l-4 3q-75 -61 -191 -61zM168 634v-620q-91 61 -129 141q-33 70 -36 180q-2 88 38 170q46 96 127 129
z" />
    <glyph glyph-name="H" unicode="H" horiz-adv-x="706" 
d="M622 660l-1 -660h-161l-1 659zM426 0h-70v312h-80v-310l-155 -1v659h159v-279h80v279h66v-660zM87 1h-75l1 657l73 1z" />
    <glyph glyph-name="I" unicode="I" horiz-adv-x="361" 
d="M271 0h-154l-1 660h154zM82 659l2 -659h-75v659h73z" />
    <glyph glyph-name="J" unicode="J" horiz-adv-x="546" 
d="M352 222q1 -17 -13 -49q-20 -44 -59 -69q-35 -22 -74 -22q-12 0 -18 4l-1 573h165v-437zM455 658l1 -369q2 -142 -69 -228q-65 -79 -168 -71q-155 12 -217 117q14 12 54 39q27 -44 69 -69q39 -24 80 -24q80 0 127.5 53.5t49.5 153.5l1 397z" />
    <glyph glyph-name="K" unicode="K" horiz-adv-x="649" 
d="M592 1l-154 -1l-98 330l-25 -41l83 -287l-68 -1l-63 222l1 -224h-157v659h162v-287l184 286l74 2l-89 -145zM78 -1h-71l1 660l70 -1v-659z" />
    <glyph glyph-name="L" unicode="L" horiz-adv-x="462" 
d="M397 1h-279l-1 657h157v-603h123v-54zM86 658v-657l-72 -1l-1 659z" />
    <glyph glyph-name="M" unicode="M" horiz-adv-x="963" 
d="M277 571l-19 4q-62 0 -103 -49q-38 -45 -38 -108v-418h161zM890 459q0 85 -76 149q-72 63 -162 61q-58 0 -110.5 -29t-86.5 -77q-33 49 -89 78t-114 28q-93 -1 -164.5 -68.5t-71.5 -159.5v-442h72v437q0 69 49 117t119 48q58 0 106.5 -40.5t54.5 -97.5v-267v-196l71 -1v1
h2l-1 461q10 61 57 100.5t110 39.5q62 0 112 -45t50 -107v-449h72v459zM681 571l-19 4q-62 0 -103 -49q-38 -45 -38 -108v-418h161z" />
    <glyph glyph-name="N" unicode="N" horiz-adv-x="577" 
d="M490 459q0 85 -76 149q-72 63 -162 61q-93 -1 -164.5 -68.5t-71.5 -159.5v-442h72v437q0 69 49 117t119 48q62 0 112 -45t50 -107v-449h72v459zM280 571l-19 4q-62 0 -103 -49q-38 -45 -38 -108v-418h160v571z" />
    <glyph glyph-name="O" unicode="O" horiz-adv-x="660" 
d="M593 318q0 -131 -69 -223q-79 -107 -220 -107q-35 0 -102 15l1 648q45 16 101 16q145 0 223 -116q66 -97 66 -233zM170 634l-1 -620q-91 61 -129 141q-34 71 -37 180q-2 87 39 170q46 96 128 129zM529 326q0 93 -54 179q-64 104 -167 106q-15 0 -46 -8v-544
q20 -14 59 -14q104 2 162 105q46 81 46 176z" />
    <glyph glyph-name="P" unicode="P" horiz-adv-x="552" 
d="M487 425q2 -107 -62 -175.5t-160 -68.5q-12 0 -23 1q0 7 0 -182h-133v658q32 1 131 1q117 1 181.5 -61.5t65.5 -172.5zM78 0h-60v658q20 -3 61 0zM415 425q-2 77 -41.5 122.5t-110.5 45.5q-8 0 -20 -1v-346h34q56 0 100 63q40 58 38 116z" />
    <glyph glyph-name="Q" unicode="Q" horiz-adv-x="672" 
d="M593 318q0 -136 -74 -230l59 -62l-54 -48l-57 60q-68 -50 -163 -50q-35 0 -100 15l1 648q45 16 99 16q145 0 223 -116q66 -97 66 -233zM529 326q0 93 -54 179q-64 104 -167 106q-15 0 -46 -8v-544q20 -14 59 -14q59 1 105 37l-60 64l53 48l55 -58q55 84 55 190zM170 14
q-91 61 -130 141q-34 71 -37 180q-2 87 39 170q46 96 128 129v-620z" />
    <glyph glyph-name="R" unicode="R" horiz-adv-x="629" 
d="M551 419q0 -84 -51 -149t-134 -85l173 -185h-102l-151 174h-11v-174h-160v658l208 1q101 0 166 -70q62 -68 62 -170zM81 659l-1 -658h-68l-2 658h71zM482 419q0 70 -44 123.5t-112 53.5h-53l-1 -350q4 -1 11 -1q84 0 139 44q60 48 60 130z" />
    <glyph glyph-name="S" unicode="S" horiz-adv-x="519" 
d="M454 204q0 -78 -53.5 -144.5t-128.5 -73.5q76 58 76 123q0 58 -56 134q-51 62 -103 124q-55 69 -55 109q0 38 29 69.5t66 30.5q16 -48 76 -122q93 -115 100 -125q49 -71 49 -125zM386 583q-6 -9 -49 -44q-19 26 -51 44.5t-62 18.5q-53 0 -90 -37t-37 -90q0 -36 56 -108
q51 -65 103 -130q56 -76 56 -122q0 -58 -39 -91.5t-98 -33.5q-113 0 -176 105q20 17 63 41q60 -83 117 -83q28 0 46 15.5t18 42.5q0 30 -55 101q-102 129 -103 131q-55 80 -55 132q0 77 59 135t135 58q102 0 162 -85z" />
    <glyph glyph-name="T" unicode="T" horiz-adv-x="520" 
d="M446 590h-102l-1 -590h-149l1 592l-31 -1l-1 -591h-65v592h-97v67h446z" />
    <glyph glyph-name="U" unicode="U" horiz-adv-x="570" 
d="M490 200q0 -85 -76 -150q-72 -62 -162 -61q-93 2 -164.5 69.5t-71.5 159.5v441h72v-436q0 -69 49 -117t119 -48q62 0 112 45t50 106v450h72v-459zM281 88l-19 -4q-62 0 -103 49q-38 45 -38 108v418h161z" />
    <glyph glyph-name="V" unicode="V" horiz-adv-x="621" 
d="M560 658l-160 -657h-46l-152 658h68l106 -434q2 8 51 218q31 131 60 216zM318 1h-156l-160 658h4h159z" />
    <glyph glyph-name="W" unicode="W" horiz-adv-x="963" 
d="M277 88l-19 -4q-63 0 -103 45q-39 42 -39 104l1 426h161zM890 200q0 -85 -76 -150q-72 -62 -162 -61q-58 1 -110.5 30t-86.5 77q-33 -49 -89 -78t-114 -29q-93 2 -164.5 69.5t-71.5 159.5v441h72v-436q0 -69 49 -117t119 -48q58 0 106.5 40.5t54.5 97.5v267v196h71v0h2
l-1 -461q10 -61 57 -100.5t110 -39.5q62 0 112 45t50 106v450h72v-459zM682 88l-19 -4q-62 0 -103 49q-38 45 -38 108v418h160v-571z" />
    <glyph glyph-name="X" unicode="X" horiz-adv-x="717" 
d="M649 1h-176l-346 658h151l116 -201l129 201h91l-174 -277zM440 0l-90 1l-117 219l-138 -219l-85 3l178 299l-176 356h80z" />
    <glyph glyph-name="Y" unicode="Y" horiz-adv-x="653" 
d="M438 305v-304h-168v298l-159 359h173l114 -261q17 35 57 136q36 92 53 125q-3 0 78 0q-37 -97 -148 -353zM237 292v-291h-38.5t-31.5 0v232q0 46 1 43q-3 20 -22 61q-51 105 -151 321h78z" />
    <glyph glyph-name="Z" unicode="Z" horiz-adv-x="575" 
d="M499 659l-191 -583h171v-75h-269l215 657zM170 1l-171 -2l195 583h-182l-1 76h376q-42 -134 -79 -248q-88 -275 -138 -409zM7939 -89z" />
    <glyph glyph-name="bracketleft" unicode="[" horiz-adv-x="272" 
d="M181 738v-61h-95v-726h95v-62l-167 1l-1 849z" />
    <glyph glyph-name="backslash" unicode="\" horiz-adv-x="394" 
d="M43 658l297 -658h-49l-296 658h48z" />
    <glyph glyph-name="bracketright" unicode="]" horiz-adv-x="272" 
d="M13 -109v60h95v727h-95v61h167l1 -850z" />
    <glyph glyph-name="asciicircum" unicode="^" horiz-adv-x="468" 
d="M350 730l-9 -30l-121 43l-122 -43l-9 30l128 82l3 -1l2 1l1 -3z" />
    <glyph glyph-name="underscore" unicode="_" horiz-adv-x="455" 
d="M-1 -68h456v-35h-456v35z" />
    <glyph glyph-name="grave" unicode="`" horiz-adv-x="601" 
d="M188 808q191 -75 191 -78t-5 -21t-7 -16q-1 1 -104 17.5t-103 19.5q0 5 28 78z" />
    <glyph glyph-name="a" unicode="a" horiz-adv-x="636" 
d="M553 1h-161l-171 658h163zM360 1h-72l-35 119h-154l-31 -119h-71l157 658h35zM235 188l-66 259l-58 -259h124z" />
    <glyph glyph-name="b" unicode="b" horiz-adv-x="570" 
d="M499 189q0 -62 -36 -111q-41 -57 -116 -73q-35 -7 -94 -5h-148v659h187q77 0 133.5 -50t56.5 -126q0 -83 -71 -133q51 -39 70 -77q18 -34 18 -84zM79 659l-1 -657l-65 -1v658q34 4 66 0zM414 485q0 45 -33.5 75.5t-76.5 30.5h-33v-205q8 -3 23 -3q48 0 79 21q41 26 41 81
zM431 189q0 55 -43 93q-40 35 -90 35h-28v-249h28q50 0 91.5 33.5t41.5 87.5z" />
    <glyph glyph-name="c" unicode="c" horiz-adv-x="565" 
d="M304 -12q-35 0 -102 15l1 648q45 16 101 16q105 0 176 -62q2 -2 -20 -23t-27 -23q-55 51 -125 52q-15 0 -46 -8v-544q20 -14 59 -14q73 2 125 55q-2 -2 43 -47q-78 -65 -185 -65zM168 634v-620q-91 61 -129 141q-33 70 -36 180q-2 88 38 170q46 96 127 129z" />
    <glyph glyph-name="d" unicode="d" horiz-adv-x="618" 
d="M549 318q0 -134 -98 -226t-236 -92h-106v658h75q172 0 275 -110q90 -97 90 -230zM82 658v-657h-33q-23 1 -35 1l1 656h67zM472 324q0 81 -59 162q-63 85 -141 94l-1 -503q102 28 155 103q46 64 46 144z" />
    <glyph glyph-name="e" unicode="e" horiz-adv-x="522" 
d="M430 591h-151v-207h148v-69l-148 1v-249h155v-67h-323l-1 659h320v-68zM81 0l-70 -1v659l71 1z" />
    <glyph glyph-name="f" unicode="f" horiz-adv-x="504" 
d="M426 659v-69h-150v-200h150v-69h-147l-1 -321l-158 2l-1 657h307zM87 2h-72v657h72v-657z" />
    <glyph glyph-name="g" unicode="g" horiz-adv-x="588" 
d="M304 -12q-35 0 -102 15l1 648q45 16 101 16q104 0 176 -62q2 -2 -20 -23t-27 -23q-55 51 -125 52q-15 0 -46 -8v-544q20 -14 59 -14q63 1 110 42l1 220h-65v62h132v-323l-4 3q-75 -61 -191 -61zM168 634v-620q-91 61 -129 141q-33 70 -36 180q-2 88 38 170q46 96 127 129
z" />
    <glyph glyph-name="h" unicode="h" horiz-adv-x="701" 
d="M612 658l-1 -658h-161l-1 659zM420 0h-70v312h-80v-310l-156 -1l1 657h159v-277h80v277h66v-658zM87 1h-75l1 657l73 1z" />
    <glyph glyph-name="i" unicode="i" horiz-adv-x="361" 
d="M271 0h-154l-1 660h154zM88 659l2 -659h-75v659h73z" />
    <glyph glyph-name="j" unicode="j" horiz-adv-x="539" 
d="M352 217q1 -17 -13 -49q-20 -44 -59 -69q-35 -22 -74 -22q-12 0 -18 4l-1 578h165v-442zM455 658l1 -369q2 -142 -69 -228q-65 -79 -168 -71q-155 12 -217 117q14 12 54 39q27 -44 69 -69q39 -24 80 -24q80 0 127.5 53.5t49.5 153.5l1 397z" />
    <glyph glyph-name="k" unicode="k" horiz-adv-x="635" 
d="M592 1l-157 -1l-98 330l-22 -41l83 -287l-68 -1l-63 222l1 -224h-157v659h162v-287l184 286l74 2l-89 -145zM82 -1h-72l1 660l71 -1v-659z" />
    <glyph glyph-name="l" unicode="l" horiz-adv-x="462" 
d="M397 1h-279l-1 657h157v-603h123v-54zM88 658v-657l-72 -1l-1 659z" />
    <glyph glyph-name="m" unicode="m" horiz-adv-x="726" 
d="M636 2h-141v659h141v-659zM465 -1h-61v402l-115 -250l-251 508h148l144 -272l131 272l3 -1zM270 121l-32 -68l-175 352v-404h-65v663z" />
    <glyph glyph-name="n" unicode="n" horiz-adv-x="502" 
d="M426 0h-69l-310 658h154l167 -348v349h58v-659zM322 0h-69l-183 390v-390h-59v661z" />
    <glyph glyph-name="o" unicode="o" horiz-adv-x="660" 
d="M593 318q0 -131 -69 -223q-79 -107 -220 -107q-35 0 -102 15l1 648q45 16 101 16q145 0 223 -116q66 -97 66 -233zM170 634l-1 -620q-91 61 -129 141q-34 71 -37 180q-2 87 39 170q46 96 128 129zM529 326q0 93 -54 179q-64 104 -167 106q-15 0 -46 -8v-544
q20 -14 59 -14q104 2 162 105q46 81 46 176z" />
    <glyph glyph-name="p" unicode="p" horiz-adv-x="559" 
d="M487 425q2 -107 -62 -175.5t-160 -68.5q-12 0 -23 1q0 7 0 -182h-133v658q38 3 71 3q304 0 307 -236zM80 0h-60v658q20 -3 61 0zM415 425q-2 77 -41.5 122.5t-110.5 45.5q-9 0 -21 -1l1 -346h34q56 0 100 63q40 58 38 116z" />
    <glyph glyph-name="q" unicode="q" horiz-adv-x="665" 
d="M593 318q0 -136 -74 -230l59 -62l-54 -48l-57 60q-68 -50 -163 -50q-35 0 -100 15v648q45 16 100 16q145 0 223 -116q66 -97 66 -233zM529 326q0 93 -54 179q-64 104 -167 106q-15 0 -46 -8v-544q20 -14 59 -14q59 1 105 37l-60 64l53 48l55 -58q55 84 55 190zM170 14
q-91 61 -130 141q-34 71 -37 180q-2 87 39 170q46 96 128 129v-620z" />
    <glyph glyph-name="r" unicode="r" horiz-adv-x="629" 
d="M551 419q0 -84 -51 -149t-134 -85l173 -185h-102l-151 174h-11v-174h-160v658l208 1q101 0 166 -70q62 -68 62 -170zM87 659l-1 -658h-68l-2 658h71zM482 419q0 70 -44 123.5t-112 53.5h-53l-1 -350q4 -1 11 -1q84 0 139 44q60 48 60 130z" />
    <glyph glyph-name="s" unicode="s" horiz-adv-x="512" 
d="M446 207q0 -75 -52 -137.5t-126 -80.5q72 54 72 123q0 58 -56 134q-51 62 -103 124q-55 69 -55 109q0 38 29 69.5t66 30.5q16 -48 76 -122q93 -115 100 -125q49 -71 49 -125zM386 583q-6 -9 -49 -44q-19 26 -51 44.5t-62 18.5q-53 0 -90 -37t-37 -90q0 -36 56 -108
q51 -65 103 -130q56 -76 56 -122q0 -58 -39 -91.5t-98 -33.5q-113 0 -176 105q20 17 63 41q60 -83 117 -83q28 0 46 15.5t18 42.5q0 30 -55 101q-102 129 -103 131q-55 80 -55 132q0 77 59 135t135 58q102 0 162 -85z" />
    <glyph glyph-name="t" unicode="t" horiz-adv-x="513" 
d="M447 590h-103l-1 -590h-154l1 592l-26 -1l-1 -591h-65v592h-97v67h446v-69z" />
    <glyph glyph-name="u" unicode="u" horiz-adv-x="577" 
d="M490 200q0 -85 -76 -150q-72 -62 -162 -61q-93 2 -164.5 69.5t-71.5 159.5v441h72v-436q0 -69 49 -117t119 -48q62 0 112 45t50 106v450h72v-459zM273 88l-19 -4q-62 0 -103 49q-38 45 -38 108v418h161z" />
    <glyph glyph-name="v" unicode="v" horiz-adv-x="621" 
d="M551 658l-160 -657h-46l-152 658h68l106 -434q3 14 50 217q31 130 60 215zM318 1h-156l-160 658h4h159z" />
    <glyph glyph-name="w" unicode="w" horiz-adv-x="938" 
d="M700 1h-110l-156 658h159l96 -398q0 1 1.5 1t103.5 396l72 1zM564 1h-73l-59 237l-63 -238h-109l-153 659l159 -1l106 -416l30 125l-66 292h70zM233 0h-72l-161 659h76z" />
    <glyph glyph-name="x" unicode="x" horiz-adv-x="710" 
d="M649 1h-176l-346 658h151l116 -201l129 201h91l-174 -277zM440 0l-90 1l-117 219l-138 -219l-85 3l178 299l-176 356h80z" />
    <glyph glyph-name="y" unicode="y" horiz-adv-x="653" 
d="M438 305v-304h-168v298l-159 359h173l114 -261q17 35 57 136q36 92 53 125q-3 0 78 0q-37 -97 -148 -353zM244 292v-291h-38.5t-31.5 0v232q0 46 1 43q-3 20 -22 61q-51 105 -151 321h78z" />
    <glyph glyph-name="z" unicode="z" horiz-adv-x="568" 
d="M499 659l-191 -583h171v-75h-269l215 657zM178 1l-171 -2l197 584l-184 -1l-1 76h376q-42 -134 -79 -248q-88 -275 -138 -409zM7939 -89z" />
    <glyph glyph-name="braceleft" unicode="{" horiz-adv-x="717" 
d="M137 646q17 -14 98 -37q42 -12 120 -48q-3 -3 -4 -3v0q0 2 14.5 19.5t15.5 18.5l-116 48q-90 37 -105 37q-14 0 -19 -16q-2 -9 -4 -19zM10 354q0 -48 30 -126.5t30 -104.5q0 -21 -8 -32t-39 -21q50 -59 163 -59q109 0 171 21q93 33 156 125q30 43 30 85q0 56 -33 105
q-40 58 -104 58q-13 0 -42 -7q-2 3 -2 9q0 30 30 92q35 75 73 75q13 0 16 -21q-4 3 -8.5 -1t-7.5 -4q-11 0 -22 -10t-11 -17q0 -4 4 -6q94 -36 194 -145q6 15 16 32q7 12 7 20q0 19 -27 40l-42 30q9 14 9 29q0 35 -35 66.5t-70 31.5q-131 6 -177 -232q-33 -174 -91 -238
q-21 1 -21 7q0 -3 22 40q24 48 38 96q20 67 18 126q-2 48 -53 69q-32 12 -73 12q-65 0 -103 -41.5t-38 -103.5z" />
    <glyph glyph-name="bar" unicode="|" horiz-adv-x="149" 
d="M88 659l2 -659h-75v659h73z" />
    <glyph glyph-name="braceright" unicode="}" horiz-adv-x="717" 
d="M526 646q-16 -14 -97 -37q-42 -12 -120 -48q3 -3 4 -3v0q0 2 -15 19.5t-15 18.5l116 48q89 37 105 37q13 0 18 -16q2 -9 4 -19zM653 354q0 -48 -30 -126.5t-30 -104.5q0 -21 8.5 -32t39.5 -21q-50 -59 -163 -59q-109 0 -172 21q-93 33 -156 125q-29 43 -29 85
q0 56 33 105q40 58 104 58q13 0 42 -7q2 3 2 9q0 30 -30 92q-35 75 -73 75q-13 0 -16 -21q3 3 7.5 -1t8.5 -4q10 0 21.5 -10t11.5 -17q0 -4 -4 -6q-95 -36 -194 -145q-6 15 -17 32q-7 12 -7 20q0 19 28 40q21 15 41 30q-8 14 -8 29q0 35 34.5 66.5t70.5 31.5q131 6 176 -232
q34 -174 91 -238q21 1 21 7q0 -3 -21 40q-25 48 -39 96q-20 67 -17 126q2 48 53 69q31 12 73 12q64 0 102 -41.5t38 -103.5z" />
    <glyph glyph-name="asciitilde" unicode="~" horiz-adv-x="426" 
d="M137 757q-27 0 -34 -6q-3 -3 -3 -16h-47q0 28 33 52q30 24 60 24q29 0 51.5 -16t43.5 -16q34 0 33 0q4 1 25 23h43q0 -27 -35.5 -52.5t-65.5 -25.5q-24 0 -50 16.5t-54 16.5z" />
    <glyph glyph-name="Adieresis" unicode="&#xc4;" horiz-adv-x="567" 
d="M492 -1h-70v442q0 69 -50.5 115.5t-120.5 46.5q-68 0 -116.5 -52.5t-48.5 -120.5v-239h154v387h19q47 0 91 -40t44 -87v-453l-157 1v122h-151v-122h-67l-1 442q0 93 73 160.5t166 67.5q95 0 165 -70t70 -166v-434zM294 745q0 22 16.5 38t38.5 16q23 0 39 -16t16 -38
q0 -23 -16 -39t-39 -16q-22 0 -38.5 16t-16.5 39zM104 745q0 22 16.5 38t38.5 16q23 0 39 -16t16 -38q0 -23 -16 -39t-39 -16q-22 0 -38.5 16t-16.5 39z" />
    <glyph glyph-name="Aring" unicode="&#xc5;" horiz-adv-x="567" 
d="M492 -1h-70v442q0 69 -50.5 115.5t-120.5 46.5q-68 0 -116.5 -52.5t-48.5 -120.5v-239h154v387h19q47 0 91 -40t44 -87v-453l-157 1v122h-151v-122h-67l-1 442q0 93 73 160.5t166 67.5q95 0 165 -70t70 -166v-434zM261 851q30 0 51 -21.5t21 -51.5t-21 -51t-51 -21
t-51 21t-21 51t21 51.5t51 21.5zM261 816q-15 0 -26 -11t-11 -27q0 -15 11 -26t26 -11q16 0 26.5 11t10.5 26q0 16 -10.5 27t-26.5 11z" />
    <glyph glyph-name="Ccedilla" unicode="&#xc7;" horiz-adv-x="533" 
d="M304 -12q-16 0 -42 4v-37q24 4 43 4q51 0 84 -22.5t33 -53.5q0 -42 -54 -67q-48 -22 -121 -22q-8 0 -88 24l28 40q29 -19 77 -19q50 0 50 39q0 43 -47 43q-10 0 -64 1v729q45 16 101 16q104 0 176 -62q2 -2 -20 -23t-27 -23q-55 51 -125 52q-15 0 -46 -8v-544
q20 -14 59 -14q73 2 125 55q-2 -2 43 -47q-78 -65 -185 -65zM168 634v-620q-91 61 -129 141q-33 70 -36 180q-2 88 38 170q46 96 127 129z" />
    <glyph glyph-name="Eacute" unicode="&#xc9;" horiz-adv-x="500" 
d="M439 591h-151v-207h148v-69l-148 1v-249h155v-67h-323l-1 659h320v-68zM90 0l-70 -1v659h71zM319 808q-190 -75 -190 -78t4.5 -21t6.5 -16q1 1 104.5 17.5t103.5 19.5q0 5 -29 78z" />
    <glyph glyph-name="Ntilde" unicode="&#xd1;" horiz-adv-x="577" 
d="M490 459q0 85 -76 149q-72 63 -162 61q-93 -1 -164.5 -68.5t-71.5 -159.5v-442h72v437q0 69 49 117t119 48q62 0 112 -45t50 -107v-449h72v459zM280 571l-19 4q-62 0 -103 -49q-38 -45 -38 -108v-418h160v571zM182 749q-27 0 -32 -4.5t-5 -17.5h-46q0 28 31.5 52t61.5 24
q28 0 51 -16t44 -16q34 0 33 0q4 1 24 23h44q0 -27 -35.5 -52.5t-65.5 -25.5q-25 0 -51 16.5t-54 16.5z" />
    <glyph glyph-name="Odieresis" unicode="&#xd6;" horiz-adv-x="641" 
d="M324 745q0 22 16.5 38t38.5 16q23 0 39 -16t16 -38q0 -23 -16 -39t-39 -16q-22 0 -38.5 16t-16.5 39zM134 745q0 22 16.5 38t38.5 16q23 0 39 -16t16 -38q0 -23 -16 -39t-39 -16q-22 0 -38.5 16t-16.5 39zM593 318q0 -131 -69 -223q-79 -107 -220 -107q-35 0 -102 15
l1 648q45 16 101 16q145 0 223 -116q66 -97 66 -233zM170 634l-2 -620q-91 61 -129 141q-33 70 -36 180q-2 87 39 170q46 96 128 129zM529 326q0 93 -54 179q-64 104 -167 106q-15 0 -46 -8v-544q20 -14 59 -14q104 2 162 105q46 81 46 176z" />
    <glyph glyph-name="Udieresis" unicode="&#xdc;" horiz-adv-x="570" 
d="M494 200q0 -85 -76 -150q-72 -62 -162 -61q-93 2 -164.5 69.5t-71.5 159.5v441h72v-436q0 -69 49 -117t119 -48q62 0 112 45t50 106v451h72v-460zM282 88l-19 -4q-62 0 -103 49q-38 45 -38 108v419h160v-572zM298 745q0 22 16.5 38t38.5 16q23 0 39 -16t16 -38
q0 -23 -16 -39t-39 -16q-22 0 -38.5 16t-16.5 39zM108 745q0 22 16.5 38t38.5 16q23 0 39 -16t16 -38q0 -23 -16 -39t-39 -16q-22 0 -38.5 16t-16.5 39z" />
    <glyph glyph-name="aacute" unicode="&#xe1;" horiz-adv-x="636" 
d="M553 1h-161l-171 658h163zM360 1h-72l-35 119h-154l-31 -119h-71l157 658h35zM235 188l-66 259l-58 -259h124zM350 808q-190 -75 -190 -78t4.5 -21t6.5 -16q1 1 104.5 17.5t103.5 19.5q0 5 -29 78z" />
    <glyph glyph-name="agrave" unicode="&#xe0;" horiz-adv-x="636" 
d="M546 1h-161l-171 658h163zM353 1h-72l-35 119h-154l-32 -119h-70l157 658h35zM228 188l-66 259l-58 -259h124zM177 808q190 -75 190 -78t-4.5 -21t-6.5 -16q-1 1 -104.5 17.5t-103.5 19.5q0 5 29 78z" />
    <glyph glyph-name="acircumflex" unicode="&#xe2;" horiz-adv-x="636" 
d="M553 1h-161l-171 658h163zM360 1h-72l-35 119h-154l-31 -119h-71l157 658h35zM235 188l-66 259l-58 -259h124zM395 721l-9 -30l-123 42l-120 -42l-9 30l128 82l2 -1l3 1v-2z" />
    <glyph glyph-name="adieresis" unicode="&#xe4;" horiz-adv-x="636" 
d="M553 1h-161l-171 658h163zM360 1h-72l-35 119h-154l-31 -119h-71l157 658h35zM235 188l-66 259l-58 -259h124zM294 745q0 22 16.5 38t38.5 16q23 0 39 -16t16 -38q0 -23 -16 -39t-39 -16q-22 0 -38.5 16t-16.5 39zM124 745q0 22 16.5 38t38.5 16q23 0 39 -16t16 -38
q0 -23 -16 -39t-39 -16q-22 0 -38.5 16t-16.5 39z" />
    <glyph glyph-name="atilde" unicode="&#xe3;" horiz-adv-x="636" 
d="M553 1h-161l-171 658h163zM360 1h-72l-35 119h-154l-31 -119h-71l157 658h35zM235 188l-66 259l-58 -259h124zM196 749q-27 0 -33 -7q-3 -3 -3 -15h-47q0 27 31.5 51t61.5 24q29 0 51.5 -16t43.5 -16q34 0 33 0q4 1 24 24h44q0 -30 -31 -55t-70 -23q-24 1 -50 17t-55 16z
" />
    <glyph glyph-name="aring" unicode="&#xe5;" horiz-adv-x="636" 
d="M553 1h-161l-171 658h163zM360 1h-72l-35 119h-154l-31 -119h-71l157 658h35zM235 188l-66 259l-58 -259h124zM269 837q30 0 51 -21.5t21 -50.5q0 -30 -21 -51.5t-51 -21.5t-51 21.5t-21 51.5q0 29 21 50.5t51 21.5zM269 802q-15 0 -26 -11t-11 -26q0 -16 11 -27t26 -11
q16 0 26.5 11t10.5 27q0 15 -10.5 26t-26.5 11z" />
    <glyph glyph-name="ccedilla" unicode="&#xe7;" horiz-adv-x="533" 
d="M304 -12q-16 0 -42 4v-37q24 4 43 4q51 0 84 -22.5t33 -53.5q0 -42 -54 -67q-48 -22 -121 -22q-8 0 -88 24l28 40q29 -19 77 -19q50 0 50 39q0 43 -47 43q-10 0 -64 1v729q45 16 101 16q104 0 176 -62q2 -2 -20 -23t-27 -23q-55 51 -125 52q-15 0 -46 -8v-544
q20 -14 59 -14q73 2 125 55q-2 -2 43 -47q-78 -65 -185 -65zM168 634v-620q-91 61 -129 141q-33 70 -36 180q-2 88 38 170q46 96 127 129z" />
    <glyph glyph-name="eacute" unicode="&#xe9;" horiz-adv-x="500" 
d="M438 591h-151v-207h148v-69l-148 1v-249h155v-67h-323l-1 659h320v-68zM89 0l-70 -1v659l71 1zM318 808q-190 -75 -190 -78t4.5 -21t6.5 -16q1 1 104.5 17.5t103.5 19.5q0 5 -29 78z" />
    <glyph glyph-name="egrave" unicode="&#xe8;" horiz-adv-x="500" 
d="M158 808q191 -75 191 -78t-5 -21t-7 -16q-1 1 -104 17.5t-103 19.5q0 5 28 78zM438 591h-151v-207h148v-69l-148 1v-249h155v-67h-323l-1 659h320v-68zM89 0l-70 -1v659l71 1z" />
    <glyph glyph-name="ecircumflex" unicode="&#xea;" horiz-adv-x="500" 
d="M340 730l-9 -30l-121 43l-122 -43l-9 30l128 82l3 -1l2 1l1 -3zM438 591h-151v-207h148v-69l-148 1v-249h155v-67h-323l-1 659h320v-68zM89 0l-70 -1v659l71 1z" />
    <glyph glyph-name="edieresis" unicode="&#xeb;" horiz-adv-x="500" 
d="M254 745q0 22 16.5 38t38.5 16q23 0 39 -16t16 -38q0 -23 -16 -39t-39 -16q-22 0 -38.5 16t-16.5 39zM64 745q0 22 16.5 38t38.5 16q23 0 39 -16t16 -38q0 -23 -16 -39t-39 -16q-22 0 -38.5 16t-16.5 39zM438 591h-151v-207h148v-69l-148 1v-249h155v-67h-323l-1 659h320
v-68zM89 0l-70 -1v659l71 1z" />
    <glyph glyph-name="iacute" unicode="&#xed;" horiz-adv-x="365" 
d="M230 808q-190 -75 -190 -78t4.5 -21t6.5 -16q1 1 104.5 17.5t103.5 19.5q0 5 -29 78zM281 0h-156l1 660h154zM98 659l2 -659h-77l2 659h73z" />
    <glyph glyph-name="igrave" unicode="&#xec;" horiz-adv-x="365" 
d="M68 808q191 -75 191 -78t-5 -21t-7 -16q-1 1 -104 17.5t-103 19.5q0 5 28 78zM281 0h-156l1 660h154zM98 659l2 -659h-77l2 659h73z" />
    <glyph glyph-name="icircumflex" unicode="&#xee;" horiz-adv-x="365" 
d="M270 730l-9 -30l-121 43l-122 -43l-9 30l128 82l3 -1l2 1l1 -3zM281 0h-156l1 660h154zM98 659l2 -659h-77l2 659h73z" />
    <glyph glyph-name="idieresis" unicode="&#xef;" horiz-adv-x="365" 
d="M172 745q0 22 16.5 38t38.5 16q23 0 39 -16t16 -38q0 -23 -16 -39t-39 -16q-22 0 -38.5 16t-16.5 39zM12 745q0 22 16.5 38t38.5 16q23 0 39 -16t16 -38q0 -23 -16 -39t-39 -16q-22 0 -38.5 16t-16.5 39zM281 0h-156l1 660h154zM98 659l2 -659h-77l2 659h73z" />
    <glyph glyph-name="ntilde" unicode="&#xf1;" horiz-adv-x="496" 
d="M432 0h-69l-310 658h154l167 -348v349h58v-659zM331 0h-69l-183 390v-390h-59v661zM157 737q-27 0 -34 -6q-3 -3 -3 -16h-47q0 28 33 52q30 24 60 24q29 0 51.5 -16t43.5 -16q34 0 33 0q4 1 25 23h43q0 -27 -35.5 -52.5t-65.5 -25.5q-24 0 -50 16.5t-54 16.5z" />
    <glyph glyph-name="oacute" unicode="&#xf3;" horiz-adv-x="646" 
d="M370 808q-190 -75 -190 -78t4.5 -21t6.5 -16q1 1 104.5 17.5t103.5 19.5q0 5 -29 78zM593 318q0 -131 -69 -223q-79 -107 -220 -107q-35 0 -102 15l1 648q45 16 101 16q145 0 223 -116q66 -97 66 -233zM170 634l-2 -620q-91 61 -129 141q-33 70 -36 180q-2 87 39 170
q46 96 128 129zM529 326q0 93 -54 179q-64 104 -167 106q-15 0 -46 -8v-544q20 -14 59 -14q104 2 162 105q46 81 46 176z" />
    <glyph glyph-name="ograve" unicode="&#xf2;" horiz-adv-x="646" 
d="M208 808q191 -75 191 -78t-5 -21t-7 -16q-1 1 -104 17.5t-103 19.5q0 5 28 78zM593 318q0 -131 -69 -223q-79 -107 -220 -107q-35 0 -102 15l1 648q45 16 101 16q145 0 223 -116q66 -97 66 -233zM170 634l-2 -620q-91 61 -129 141q-33 70 -36 180q-2 87 39 170
q46 96 128 129zM529 326q0 93 -54 179q-64 104 -167 106q-15 0 -46 -8v-544q20 -14 59 -14q104 2 162 105q46 81 46 176z" />
    <glyph glyph-name="ocircumflex" unicode="&#xf4;" horiz-adv-x="640" 
d="M420 730l-9 -30l-121 43l-122 -43l-9 30l128 82l3 -1l2 1l1 -3zM593 318q0 -131 -69 -223q-79 -107 -220 -107q-35 0 -102 15l1 648q45 16 101 16q145 0 223 -116q66 -97 66 -233zM170 634l-2 -620q-91 61 -129 141q-33 70 -36 180q-2 87 39 170q46 96 128 129zM529 326
q0 93 -54 179q-64 104 -167 106q-15 0 -46 -8v-544q20 -14 59 -14q104 2 162 105q46 81 46 176z" />
    <glyph glyph-name="odieresis" unicode="&#xf6;" horiz-adv-x="650" 
d="M334 745q0 22 16.5 38t38.5 16q23 0 39 -16t16 -38q0 -23 -16 -39t-39 -16q-22 0 -38.5 16t-16.5 39zM144 745q0 22 16.5 38t38.5 16q23 0 39 -16t16 -38q0 -23 -16 -39t-39 -16q-22 0 -38.5 16t-16.5 39zM593 318q0 -131 -69 -223q-79 -107 -220 -107q-35 0 -102 15
l1 648q45 16 101 16q145 0 223 -116q66 -97 66 -233zM170 634l-2 -620q-91 61 -129 141q-33 70 -36 180q-2 87 39 170q46 96 128 129zM529 326q0 93 -54 179q-64 104 -167 106q-15 0 -46 -8v-544q20 -14 59 -14q104 2 162 105q46 81 46 176z" />
    <glyph glyph-name="otilde" unicode="&#xf5;" horiz-adv-x="651" 
d="M217 747q-27 0 -34 -6q-3 -3 -3 -16h-47q0 28 33 52q30 24 60 24q29 0 51.5 -16t43.5 -16q34 0 33 0q4 1 25 23h43q0 -27 -35.5 -52.5t-65.5 -25.5q-24 0 -50 16.5t-54 16.5zM593 318q0 -131 -69 -223q-79 -107 -220 -107q-35 0 -102 15l1 648q45 16 101 16
q145 0 223 -116q66 -97 66 -233zM170 634l-2 -620q-91 61 -129 141q-33 70 -36 180q-2 87 39 170q46 96 128 129zM529 326q0 93 -54 179q-64 104 -167 106q-15 0 -46 -8v-544q20 -14 59 -14q104 2 162 105q46 81 46 176z" />
    <glyph glyph-name="uacute" unicode="&#xfa;" horiz-adv-x="570" 
d="M490 200q0 -85 -76 -150q-72 -62 -162 -61q-93 2 -164.5 69.5t-71.5 159.5v441h72v-436q0 -69 49 -117t119 -48q62 0 112 45t50 106v451h72v-460zM273 88l-19 -4q-62 0 -103 49q-38 45 -38 108v419h161zM340 808q-190 -75 -190 -78t4.5 -21t6.5 -16q1 1 104.5 17.5
t103.5 19.5q0 5 -29 78z" />
    <glyph glyph-name="ugrave" unicode="&#xf9;" horiz-adv-x="570" 
d="M490 200q0 -85 -76 -150q-72 -62 -162 -61q-93 2 -164.5 69.5t-71.5 159.5v441h72v-436q0 -69 49 -117t119 -48q62 0 112 45t50 106v452h72v-461zM273 88l-19 -4q-62 0 -103 49q-38 45 -38 108v420h161zM168 808q191 -75 191 -78t-5 -21t-7 -16q-1 1 -104 17.5t-103 19.5
q0 5 28 78z" />
    <glyph glyph-name="ucircumflex" unicode="&#xfb;" horiz-adv-x="570" 
d="M490 200q0 -85 -76 -150q-72 -62 -162 -61q-93 2 -164.5 69.5t-71.5 159.5v441h72v-436q0 -69 49 -117t119 -48q62 0 112 45t50 106v450h72v-459zM273 88l-19 -4q-62 0 -103 49q-38 45 -38 108v418h161zM390 730l-9 -30l-121 43l-122 -43l-9 30l128 82l3 -1l2 1l1 -3z
" />
    <glyph glyph-name="udieresis" unicode="&#xfc;" horiz-adv-x="570" 
d="M490 200q0 -85 -76 -150q-72 -62 -162 -61q-93 2 -164.5 69.5t-71.5 159.5v441h72v-436q0 -69 49 -117t119 -48q62 0 112 45t50 106v451h72v-460zM273 88l-19 -4q-62 0 -103 49q-38 45 -38 108v419h161zM294 745q0 22 16.5 38t38.5 16q23 0 39 -16t16 -38q0 -23 -16 -39
t-39 -16q-22 0 -38.5 16t-16.5 39zM104 745q0 22 16.5 38t38.5 16q23 0 39 -16t16 -38q0 -23 -16 -39t-39 -16q-22 0 -38.5 16t-16.5 39z" />
    <glyph glyph-name="dagger" unicode="&#x2020;" 
 />
    <glyph glyph-name="degree" unicode="&#xb0;" horiz-adv-x="279" 
d="M119 664q49 0 83 -35.5t34 -85.5t-34 -86t-83 -36t-83 36t-34 86t34 85.5t83 35.5zM119 629q-34 0 -58 -25t-24 -61t24 -61.5t58 -25.5t58 25.5t24 61.5t-24 61t-58 25z" />
    <glyph glyph-name="cent" unicode="&#xa2;" horiz-adv-x="420" 
d="M243 131l-17 1q-65 8 -106 83q-32 61 -30 111q3 75 38 126q41 60 115 68v-389zM209 661h52v-64q47 -4 91 -30q1 1 2 1t-27 -48q-36 25 -82 25q-76 0 -132 -72q-52 -66 -52 -145q0 -84 43 -146q49 -72 138 -77q27 -1 53 9t52 19v-8q0 -4 -21 -57q-26 -14 -65 -16v-66h-52
v70q-90 16 -147 96q-55 76 -55 173q0 94 56 172q59 83 146 98v66z" />
    <glyph glyph-name="sterling" unicode="&#xa3;" horiz-adv-x="498" 
d="M419 1h-310l81 225q8 21 8 43q0 43 -40 101q-52 73 -52 109q0 38 27.5 65.5t65.5 27.5q-4 -41 40 -111q64 -102 70 -116h77v-59h-64q-3 -34 -31 -116q-20 -59 -41 -117l161 1zM406 567q-3 -2 -25.5 -23t-23.5 -21q-17 30 -70 55q-48 24 -83 24q-53 0 -90 -37t-37 -90
q0 -33 62 -128q26 -40 26 -81q0 -18 -5 -35q-35 -89 -84 -230l-72 -1l79 234q10 30 4 52h-88v59h65l-34 56q-19 33 -19 64q0 77 58.5 140t134.5 63q55 0 114 -26q68 -30 88 -75z" />
    <glyph glyph-name="section" unicode="&#xa7;" horiz-adv-x="22" 
 />
    <glyph glyph-name="bullet" unicode="&#x2022;" horiz-adv-x="547" 
d="M25 319q0 88 62 150t150 62t150 -62t62 -150t-62 -150t-150 -62t-150 62t-62 150z" />
    <glyph glyph-name="paragraph" unicode="&#xb6;" horiz-adv-x="31" 
 />
    <glyph glyph-name="germandbls" unicode="&#xdf;" horiz-adv-x="25" 
 />
    <glyph glyph-name="registered" unicode="&#xae;" horiz-adv-x="374" 
d="M162 383q-62 0 -106 45t-44 108q0 62 44 106t106 44t104.5 -44.5t42.5 -107.5t-42.5 -107t-104.5 -44zM162 406q51 0 88 37.5t37 90.5t-37 90.5t-88 37.5q-54 1 -90 -36t-36 -92q0 -53 37.5 -90.5t88.5 -37.5zM176 534l47 -72h-26l-47 72h-26v-72h-22v157h68q-6 0 -5 1h7
q52 0 52 -40q0 -44 -48 -46zM126 557h45q30 0 30 23q0 17 -34 17h-41v-40z" />
    <glyph glyph-name="copyright" unicode="&#xa9;" horiz-adv-x="772" 
d="M346 -11q-143 0 -242.5 100t-99.5 244q0 145 99.5 245t242.5 100t243 -100t100 -245q0 -144 -100 -244t-243 -100zM346 635q-122 0 -211 -88t-89 -214q0 -125 89 -213t211 -88t211 88t89 213q0 126 -89 214t-211 88zM355 139q-86 0 -136.5 55t-50.5 142q0 83 52 139.5
t136 56.5q59 0 103 -34t54 -91h-45q-22 81 -112 81q-67 0 -106 -44t-39 -110q0 -60 34 -103q40 -49 109 -49q94 0 115 79h43q-13 -57 -55.5 -89.5t-101.5 -32.5z" />
    <glyph glyph-name="trademark" unicode="&#x2122;" horiz-adv-x="481" 
d="M401 650v-196h-27v167h-2l-66 -167h-17l-65 167v0v-167h-28v196h46l56 -141l57 141h46zM159 650v-29h-64v-167h-28v167h-65v29h157z" />
    <glyph glyph-name="acute" unicode="&#xb4;" horiz-adv-x="601" 
d="M350 808q-190 -75 -190 -78t4.5 -21t6.5 -16q1 1 104.5 17.5t103.5 19.5q0 5 -29 78z" />
    <glyph glyph-name="dieresis" unicode="&#xa8;" horiz-adv-x="607" 
d="M324 745q0 22 16.5 38t38.5 16q23 0 39 -16t16 -38q0 -23 -16 -39t-39 -16q-22 0 -38.5 16t-16.5 39zM134 745q0 22 16.5 38t38.5 16q23 0 39 -16t16 -38q0 -23 -16 -39t-39 -16q-22 0 -38.5 16t-16.5 39z" />
    <glyph glyph-name="AE" unicode="&#xc6;" horiz-adv-x="811" 
d="M428 1h-1v1v0l-2 460q-7 60 -56.5 101.5t-111.5 41.5q-68 0 -116.5 -52.5t-48.5 -120.5v-239h154v385h19q47 0 91 -39t44 -86v-453l-157 1v122h-151v-122h-66l-2 442q0 93 73 160.5t166 67.5q94 0 163 -69v59h320v-69h-151v-206h148v-69h-148v-248h155v-67z" />
    <glyph glyph-name="Oslash" unicode="&#xd8;" horiz-adv-x="648" 
d="M147 28l-26 -28h-65l50 63q-103 99 -103 279q0 90 43 171q47 89 124 121l-2 -620zM262 303l174 252q-56 56 -128 56q-13 0 -46 -8v-300zM468 516l-205 -300h-1v-157q22 -14 59 -14q97 0 156 96q52 82 52 185q0 101 -61 190zM507 658h59l-57 -83q84 -100 84 -257
q0 -138 -74 -230q-80 -100 -215 -100q-38 0 -102 15l1 648q45 16 101 16q100 0 170 -57z" />
    <glyph glyph-name="plusminus" unicode="&#xb1;" 
 />
    <glyph glyph-name="yen" unicode="&#xa5;" horiz-adv-x="652" 
d="M246 2h-70v148h-98v52l99 -1l-1 49h-98v52h92l-173 357l78 -1l172 -370zM112 659h173l114 -261q17 35 57 136q36 92 54 125q23 1 78 1l-148 -358h104v-52h-104v-48h104v-52h-104l-1 -148l-160 1v298z" />
    <glyph glyph-name="mu" unicode="&#xb5;" horiz-adv-x="477" 
d="M122 1l-72 -1v150l-52 -40v64l52 39l-1 446l73 -1v-657zM152 659h156v-249l88 66v-63l-88 -67v-291h123v-54h-278z" />
    <glyph glyph-name="mu" unicode="&#x3bc;" horiz-adv-x="477" 
d="M122 1l-72 -1v150l-52 -40v64l52 39l-1 446l73 -1v-657zM152 659h156v-249l88 66v-63l-88 -67v-291h123v-54h-278z" />
    <glyph glyph-name="ordfeminine" unicode="&#xaa;" horiz-adv-x="584" 
d="M499 659l-191 -583h171v-75h-269l215 657zM178 1l-171 -2l197 584l-184 -1l-1 76h376q-42 -134 -79 -248q-88 -275 -138 -409zM386 781l-9 30l-121 -43l-122 43l-9 -30l128 -81l3 1l2 -1l1 2z" />
    <glyph glyph-name="ordmasculine" unicode="&#xba;" horiz-adv-x="584" 
d="M499 659l-191 -583h171v-75h-269l215 657zM178 1l-171 -2l197 584l-184 -1l-1 76h376q-42 -134 -79 -248q-88 -275 -138 -409zM386 781l-9 30l-121 -43l-122 43l-9 -30l128 -81l3 1l2 -1l1 2z" />
    <glyph glyph-name="ae" unicode="&#xe6;" horiz-adv-x="768" 
d="M363 659v-658h-73l-2 119h-154l-62 -119h-70l325 658h36zM291 447l-125 -259h125v259zM390 659h320v-68h-151v-207h148v-69l-148 1v-249h155v-67h-323z" />
    <glyph glyph-name="oslash" unicode="&#xf8;" horiz-adv-x="648" 
d="M147 28l-26 -28h-65l50 63q-103 99 -103 279q0 90 43 171q47 89 124 121l-2 -620zM262 303l174 252q-56 56 -128 56q-13 0 -46 -8v-300zM468 516l-205 -300h-1v-157q22 -14 59 -14q97 0 156 96q52 82 52 185q0 101 -61 190zM507 658h59l-57 -83q84 -100 84 -257
q0 -138 -74 -230q-80 -100 -215 -100q-38 0 -102 15l1 648q45 16 101 16q100 0 170 -57z" />
    <glyph glyph-name="questiondown" unicode="&#xbf;" horiz-adv-x="436" 
d="M144 210l-1 -346q-60 15 -96.5 66t-36.5 114t36 108.5t98 57.5zM173 263h58l-1 -339l4 -2q39 14 63.5 48t24.5 75q0 15 -3 29q18 6 55 17q6 -13 6 -58q0 -78 -56 -126.5t-134 -45.5h-16zM89 419q0 46 38 77q35 28 82 28q46 0 81.5 -30t35.5 -76q0 -48 -42 -79
q-38 -29 -87 -29q-45 0 -76.5 32.5t-31.5 76.5z" />
    <glyph glyph-name="exclamdown" unicode="&#xa1;" horiz-adv-x="365" 
d="M53 293l114 -1l1 -429h-154v278zM190 -137v429h33l40 -151l1 -278h-74zM247 429q0 -42 -31.5 -71.5t-76.5 -29.5t-76.5 29.5t-31.5 71.5t31.5 71.5t76.5 29.5q44 0 76 -29.5t32 -71.5z" />
    <glyph glyph-name="logicalnot" unicode="&#xac;" 
 />
    <glyph glyph-name="florin" unicode="&#x192;" horiz-adv-x="562" 
d="M443 258h-141v-199q20 -14 59 -14q73 2 125 55q-2 -2 43 -47q-78 -65 -185 -65q-35 0 -102 15l1 648q45 16 101 16q104 0 176 -62q2 -2 -20 -23t-27 -23q-55 51 -125 52q-15 0 -46 -8v-164h141v-61h-141v-59h141v-61zM208 14q-136 91 -159 244h-53v61h48q0 8 -1 16
q0 21 2 43h-49v61h60q40 149 152 195v-620z" />
    <glyph glyph-name="guillemotleft" unicode="&#xab;" horiz-adv-x="397" 
d="M305 523l24 -12l-64 -189l70 -195l-24 -9l-148 201l1 3l-1 4l3 1zM140 523l24 -12l-64 -189l70 -195l-24 -9l-148 201l1 3l-1 4l3 1z" />
    <glyph glyph-name="guillemotright" unicode="&#xbb;" horiz-adv-x="397" 
d="M27 523l-23 -12l63 -189l-69 -195l23 -9l149 201l-2 3l2 4l-4 1zM192 523l-23 -12l63 -189l-69 -195l23 -9l149 201l-2 3l2 4l-4 1z" />
    <glyph glyph-name="ellipsis" unicode="&#x2026;" horiz-adv-x="1115" 
d="M401 93q0 42 31.5 71.5t75.5 29.5q45 0 76.5 -29.5t31.5 -71.5q0 -41 -31.5 -70.5t-76.5 -29.5q-44 0 -75.5 29.5t-31.5 70.5zM781 93q0 42 31.5 71.5t75.5 29.5q45 0 76.5 -29.5t31.5 -71.5q0 -41 -31.5 -70.5t-76.5 -29.5q-44 0 -75.5 29.5t-31.5 70.5zM21 93
q0 42 31.5 71.5t75.5 29.5q45 0 76.5 -29.5t31.5 -71.5q0 -41 -31.5 -70.5t-76.5 -29.5q-44 0 -75.5 29.5t-31.5 70.5z" />
    <glyph glyph-name="nonbreakingspace" unicode="&#xa0;" horiz-adv-x="288" 
 />
    <glyph glyph-name="Agrave" unicode="&#xc0;" horiz-adv-x="601" 
d="M178 808q191 -75 191 -78t-5 -21t-7 -16q-1 1 -104 17.5t-103 19.5q0 5 28 78zM492 -1h-70v442q0 69 -50.5 115.5t-120.5 46.5q-68 0 -116.5 -52.5t-48.5 -120.5v-239h154v387h19q47 0 91 -40t44 -87v-453l-157 1v122h-151v-122h-67l-1 442q0 93 73 160.5t166 67.5
q95 0 165 -70t70 -166v-434z" />
    <glyph glyph-name="Atilde" unicode="&#xc3;" horiz-adv-x="601" 
d="M182 745q-27 0 -34 -7q-3 -3 -3 -16h-47q0 28 32 52t61 24t51.5 -16t44.5 -16q34 0 32 0q4 1 25 23h44q-2 -32 -38 -56q-32 -22 -63 -22q-25 0 -51 17t-54 17zM492 -1h-70v442q0 69 -50.5 115.5t-120.5 46.5q-68 0 -116.5 -52.5t-48.5 -120.5v-239h154v387h19
q47 0 91 -40t44 -87v-453l-157 1v122h-151v-122h-67l-1 442q0 93 73 160.5t166 67.5q95 0 165 -70t70 -166v-434z" />
    <glyph glyph-name="Otilde" unicode="&#xd5;" horiz-adv-x="651" 
d="M217 747q-27 0 -34 -6q-3 -3 -3 -16h-47q0 28 33 52q30 24 60 24q29 0 51.5 -16t43.5 -16q34 0 33 0q4 1 25 23h43q0 -27 -35.5 -52.5t-65.5 -25.5q-24 0 -50 16.5t-54 16.5zM593 318q0 -131 -69 -223q-79 -107 -220 -107q-35 0 -102 15l1 648q45 16 101 16
q145 0 223 -116q66 -97 66 -233zM170 634l-2 -620q-91 61 -129 141q-33 70 -36 180q-2 87 39 170q46 96 128 129zM529 326q0 93 -54 179q-64 104 -167 106q-15 0 -46 -8v-544q20 -14 59 -14q104 2 162 105q46 81 46 176z" />
    <glyph glyph-name="OE" unicode="&#x152;" horiz-adv-x="1003" 
d="M952 591h-151v-207h148v-69l-148 1v-249h155v-67h-323l-1 659h320v-68zM531 105q-79 -117 -227 -117q-35 0 -101 15v648q45 16 101 16q149 0 227 -122v113l70 1v-659l-70 -1v106zM530 333q0 91 -54 175q-65 101 -168 103q-15 0 -46 -8v-544q20 -14 59 -14q104 2 163 108
q46 84 46 180zM170 634l-1 -620q-91 61 -129 141q-34 71 -37 180q-2 87 39 170q46 96 128 129z" />
    <glyph glyph-name="oe" unicode="&#x153;" horiz-adv-x="1003" 
d="M952 591h-151v-207h148v-69l-148 1v-249h155v-67h-323l-1 659h320v-68zM531 105q-79 -117 -227 -117q-35 0 -101 15v648q45 16 101 16q149 0 227 -122v113l70 1v-659l-70 -1v106zM530 333q0 91 -54 175q-65 101 -168 103q-15 0 -46 -8v-544q20 -14 59 -14q104 2 163 108
q46 84 46 180zM170 634l-1 -620q-91 61 -129 141q-34 71 -37 180q-2 87 39 170q46 96 128 129z" />
    <glyph glyph-name="endash" unicode="&#x2013;" horiz-adv-x="450" 
d="M-1 364q-2 -107 0 -107h400q3 0 0 107h-400z" />
    <glyph glyph-name="emdash" unicode="&#x2014;" horiz-adv-x="896" 
d="M-1 364q-2 -107 0 -107h850q3 0 0 107h-850z" />
    <glyph glyph-name="quotedblleft" unicode="&#x201c;" horiz-adv-x="599" 
d="M2 487q0 73 34 123q38 58 108 58q23 0 56 -9q-1 -21 -6 -63q-40 8 -47 8q-52 0 -63 -42q75 3 110 -16q45 -24 45 -85q0 -43 -29.5 -74t-72.5 -31q-60 0 -97.5 36t-37.5 95zM292 487q0 73 34 123q38 58 108 58q23 0 56 -9q-1 -21 -6 -63q-40 8 -47 8q-52 0 -63 -42
q75 3 110 -16q45 -24 45 -85q0 -43 -29.5 -74t-72.5 -31q-60 0 -97.5 36t-37.5 95z" />
    <glyph glyph-name="quotedblright" unicode="&#x201d;" horiz-adv-x="584" 
d="M519 537q0 -73 -34 -123q-38 -58 -108 -58q-23 0 -56 9q1 21 6 63q40 -8 47 -8q52 0 62 42q-74 -3 -110 16q-44 24 -44 85q0 43 29.5 74t72.5 31q60 0 97.5 -36t37.5 -95zM229 537q0 -73 -34 -123q-38 -58 -108 -58q-23 0 -56 9q1 21 6 63q40 -8 47 -8q52 0 62 42
q-74 -3 -110 16q-44 24 -44 85q0 43 29.5 74t72.5 31q60 0 97.5 -36t37.5 -95z" />
    <glyph glyph-name="quoteleft" unicode="&#x2018;" horiz-adv-x="303" 
d="M2 487q0 73 34 123q38 58 108 58q23 0 56 -9q-1 -21 -6 -63q-40 8 -47 8q-52 0 -63 -42q75 3 110 -16q45 -24 45 -85q0 -43 -29.5 -74t-72.5 -31q-60 0 -97.5 36t-37.5 95z" />
    <glyph glyph-name="quoteright" unicode="&#x2019;" horiz-adv-x="293" 
d="M229 537q0 -73 -34 -123q-38 -58 -108 -58q-23 0 -56 9q1 21 6 63q40 -8 47 -8q52 0 62 42q-74 -3 -110 16q-44 24 -44 85q0 43 29.5 74t72.5 31q60 0 97.5 -36t37.5 -95z" />
    <glyph glyph-name="divide" unicode="&#xf7;" 
 />
    <glyph glyph-name="ydieresis" unicode="&#xff;" horiz-adv-x="660" 
d="M438 305v-304h-168v298l-159 359h173l114 -261q17 35 57 136q36 92 53 125q-3 0 78 0q-37 -97 -148 -353zM244 292v-291h-38.5t-31.5 0v232q0 46 1 43q-3 20 -22 61q-51 105 -151 321h78zM344 745q0 22 16.5 38t38.5 16q23 0 39 -16t16 -38q0 -23 -16 -39t-39 -16
q-22 0 -38.5 16t-16.5 39zM144 745q0 22 16.5 38t38.5 16q23 0 39 -16t16 -38q0 -23 -16 -39t-39 -16q-22 0 -38.5 16t-16.5 39z" />
    <glyph glyph-name="Ydieresis" unicode="&#x178;" horiz-adv-x="660" 
d="M438 305v-304h-168v298l-159 359h173l114 -261q17 35 57 136q36 92 53 125q-3 0 78 0q-37 -97 -148 -353zM244 292v-291h-38.5t-31.5 0v232q0 46 1 43q-3 20 -22 61q-51 105 -151 321h78zM334 745q0 22 16.5 38t38.5 16q23 0 39 -16t16 -38q0 -23 -16 -39t-39 -16
q-22 0 -38.5 16t-16.5 39zM134 745q0 22 16.5 38t38.5 16q23 0 39 -16t16 -38q0 -23 -16 -39t-39 -16q-22 0 -38.5 16t-16.5 39z" />
    <glyph glyph-name="currency" unicode="&#xa4;" 
 />
    <glyph glyph-name="guilsinglleft" unicode="&#x2039;" horiz-adv-x="220" 
d="M138 523l23 -12l-63 -189l69 -195l-23 -9l-149 201l2 3l-2 4l4 1z" />
    <glyph glyph-name="guilsinglright" unicode="&#x203a;" horiz-adv-x="220" 
d="M25 523l-24 -12l64 -189l-70 -195l24 -9l148 201l-1 3l1 4l-3 1z" />
    <glyph glyph-name="daggerdbl" unicode="&#x2021;" horiz-adv-x="19" 
 />
    <glyph glyph-name="periodcentered" unicode="&#xb7;" horiz-adv-x="339" 
d="M243 316q1 -44 -32 -74.5t-78 -30.5t-77.5 29t-32.5 72t32.5 73t77.5 30q44 0 76.5 -28.5t33.5 -70.5z" />
    <glyph glyph-name="periodcentered" unicode="&#x2219;" horiz-adv-x="339" 
d="M243 316q1 -44 -32 -74.5t-78 -30.5t-77.5 29t-32.5 72t32.5 73t77.5 30q44 0 76.5 -28.5t33.5 -70.5z" />
    <glyph glyph-name="quotesinglbase" unicode="&#x201a;" horiz-adv-x="293" 
d="M229 77q0 -73 -34 -123q-38 -58 -108 -58q-23 0 -56 9q1 21 6 63q40 -8 47 -8q52 0 62 42q-74 -3 -110 16q-44 24 -44 85q0 43 29.5 74t72.5 31q60 0 97.5 -36t37.5 -95z" />
    <glyph glyph-name="quotedblbase" unicode="&#x201e;" horiz-adv-x="605" 
d="M529 77q0 -73 -34 -123q-38 -58 -108 -58q-23 0 -56 9q1 21 6 63q40 -8 47 -8q52 0 62 42q-74 -3 -110 16q-44 24 -44 85q0 43 29.5 74t72.5 31q60 0 97.5 -36t37.5 -95zM239 77q0 -73 -34 -123q-38 -58 -108 -58q-23 0 -56 9q1 21 6 63q40 -8 47 -8q52 0 62 42
q-74 -3 -110 16q-44 24 -44 85q0 43 29.5 74t72.5 31q60 0 97.5 -36t37.5 -95z" />
    <glyph glyph-name="perthousand" unicode="&#x2030;" horiz-adv-x="28" 
 />
    <glyph glyph-name="Acircumflex" unicode="&#xc2;" horiz-adv-x="567" 
d="M492 -1h-70v442q0 69 -50.5 115.5t-120.5 46.5q-68 0 -116.5 -52.5t-48.5 -120.5v-239h154v387h19q47 0 91 -40t44 -87v-453l-157 1v122h-151v-122h-67l-1 442q0 93 73 160.5t166 67.5q95 0 165 -70t70 -166v-434zM380 730l-9 -30l-121 43l-122 -43l-9 30l128 82l3 -1
l2 1l1 -3z" />
    <glyph glyph-name="Ecircumflex" unicode="&#xca;" horiz-adv-x="500" 
d="M432 591h-151v-207h148v-69l-148 1v-249h155v-67h-323l-1 659h320v-68zM81 0l-70 -1v660h70v-659zM350 730l-9 -30l-121 43l-122 -43l-9 30l128 82l3 -1l2 1l1 -3z" />
    <glyph glyph-name="Aacute" unicode="&#xc1;" horiz-adv-x="567" 
d="M492 -1h-70v442q0 69 -50.5 115.5t-120.5 46.5q-68 0 -116.5 -52.5t-48.5 -120.5v-239h154v387h19q47 0 91 -40t44 -87v-453l-157 1v122h-151v-122h-67l-1 442q0 93 73 160.5t166 67.5q95 0 165 -70t70 -166v-434zM339 807q-190 -75 -190 -78t4.5 -21t6.5 -16
q1 1 104.5 17.5t103.5 19.5q0 6 -29 78z" />
    <glyph glyph-name="Edieresis" unicode="&#xcb;" horiz-adv-x="500" 
d="M445 591h-151v-207h148v-69l-148 1v-249h155v-67h-323l-1 659h320v-68zM91 0l-70 -1v659l71 1zM274 745q0 22 16.5 38t38.5 16q23 0 39 -16t16 -38q0 -23 -16 -39t-39 -16q-22 0 -38.5 16t-16.5 39zM84 745q0 22 16.5 38t38.5 16q23 0 39 -16t16 -38q0 -23 -16 -39
t-39 -16q-22 0 -38.5 16t-16.5 39z" />
    <glyph glyph-name="Egrave" unicode="&#xc8;" horiz-adv-x="500" 
d="M443 591h-151v-207h148v-69l-148 1v-249h155v-67h-323l-1 659h320v-68zM91 0l-70 -1v659l71 1zM148 808q191 -75 191 -78t-5 -21t-7 -16q-1 1 -104 17.5t-103 19.5q0 5 28 78z" />
    <glyph glyph-name="Iacute" unicode="&#xcd;" horiz-adv-x="365" 
d="M284 0h-154l-1 660h155v-660zM98 659l1 -659h-74v659h73zM230 808q-190 -75 -190 -78t4.5 -21t6.5 -16q1 1 104.5 17.5t103.5 19.5q0 5 -29 78z" />
    <glyph glyph-name="Icircumflex" unicode="&#xce;" horiz-adv-x="365" 
d="M280 730l-9 -30l-121 43l-122 -43l-9 30l128 82l3 -1l2 1l1 -3zM284 0h-154l-1 660h155v-660zM98 659l1 -659h-74v659h73z" />
    <glyph glyph-name="Idieresis" unicode="&#xcf;" horiz-adv-x="365" 
d="M174 745q0 22 16.5 38t38.5 16q23 0 39 -16t16 -38q0 -23 -16 -39t-39 -16q-22 0 -38.5 16t-16.5 39zM14 745q0 22 16.5 38t38.5 16q23 0 39 -16t16 -38q0 -23 -16 -39t-39 -16q-22 0 -38.5 16t-16.5 39zM284 0h-154l-1 660h155v-660zM98 659l1 -659h-74v659h73z" />
    <glyph glyph-name="Igrave" unicode="&#xcc;" horiz-adv-x="365" 
d="M68 808q191 -75 191 -78t-5 -21t-7 -16q-1 1 -104 17.5t-103 19.5q0 5 28 78zM284 0h-154l-1 660h155v-660zM98 659l1 -659h-74v659h73z" />
    <glyph glyph-name="Oacute" unicode="&#xd3;" horiz-adv-x="646" 
d="M370 808q-190 -75 -190 -78t4.5 -21t6.5 -16q1 1 104.5 17.5t103.5 19.5q0 5 -29 78zM593 318q0 -131 -69 -223q-79 -107 -220 -107q-35 0 -102 15l1 648q45 16 101 16q145 0 223 -116q66 -97 66 -233zM170 634v-620q-91 61 -130 141q-34 71 -37 180q-2 87 39 170
q46 96 128 129zM529 326q0 93 -54 179q-64 104 -167 106q-15 0 -46 -8v-544q20 -14 59 -14q104 2 162 105q46 81 46 176z" />
    <glyph glyph-name="Ocircumflex" unicode="&#xd4;" horiz-adv-x="640" 
d="M420 730l-9 -30l-121 43l-122 -43l-9 30l128 82l3 -1l2 1l1 -3zM593 318q0 -131 -69 -223q-79 -107 -220 -107q-35 0 -102 15l1 648q45 16 101 16q145 0 223 -116q66 -97 66 -233zM170 634v-620q-91 61 -130 141q-34 71 -37 180q-2 87 39 170q46 96 128 129zM529 326
q0 93 -54 179q-64 104 -167 106q-15 0 -46 -8v-544q20 -14 59 -14q104 2 162 105q46 81 46 176z" />
    <glyph glyph-name="Ograve" unicode="&#xd2;" horiz-adv-x="646" 
d="M208 808q191 -75 191 -78t-5 -21t-7 -16q-1 1 -104 17.5t-103 19.5q0 5 28 78zM593 318q0 -131 -69 -223q-79 -107 -220 -107q-35 0 -102 15l1 648q45 16 101 16q145 0 223 -116q66 -97 66 -233zM170 634v-620q-91 61 -130 141q-34 71 -37 180q-2 87 39 170
q46 96 128 129zM529 326q0 93 -54 179q-64 104 -167 106q-15 0 -46 -8v-544q20 -14 59 -14q104 2 162 105q46 81 46 176z" />
    <glyph glyph-name="Uacute" unicode="&#xda;" horiz-adv-x="570" 
d="M500 200q0 -85 -76 -150q-72 -62 -162 -61q-93 2 -164.5 69.5t-71.5 159.5v441h72v-436q0 -69 49 -117t119 -48q62 0 112 45t50 106v450h72v-459zM291 87l-19 -4q-141 17 -141 156v419h161zM350 808q-190 -75 -190 -78t4.5 -21t6.5 -16q1 1 104.5 17.5t103.5 19.5
q0 5 -29 78z" />
    <glyph glyph-name="Ucircumflex" unicode="&#xdb;" horiz-adv-x="570" 
d="M500 200q0 -85 -76 -150q-72 -62 -162 -61q-93 2 -164.5 69.5t-71.5 159.5v441h72v-436q0 -69 49 -117t119 -48q62 0 112 45t50 106v450h72v-459zM286 88l-19 -4q-62 0 -103 49q-38 45 -38 108v418h161zM380 730l-9 -30l-121 43l-122 -43l-9 30l128 82l3 -1l2 1l1 -3z
" />
    <glyph glyph-name="Ugrave" unicode="&#xd9;" horiz-adv-x="570" 
d="M500 200q0 -85 -76 -150q-72 -62 -162 -61q-93 2 -164.5 69.5t-71.5 159.5v441h72v-436q0 -69 49 -117t119 -48q62 0 112 45t50 106v450h72v-459zM287 88l-19 -4q-62 0 -103 49q-38 45 -38 108v418h161zM188 808q191 -75 191 -78t-5 -21t-7 -16q-1 1 -104 17.5t-103 19.5
q0 5 28 78z" />
    <glyph glyph-name="circumflex" unicode="&#x2c6;" horiz-adv-x="468" 
d="M350 730l-9 -30l-121 43l-122 -43l-9 30l128 82l3 -1l2 1l1 -3z" />
    <glyph glyph-name="tilde" unicode="&#x2dc;" horiz-adv-x="426" 
d="M137 757q-27 0 -34 -6q-3 -3 -3 -16h-47q0 28 33 52q30 24 60 24q29 0 51.5 -16t43.5 -16q34 0 33 0q4 1 25 23h43q0 -27 -35.5 -52.5t-65.5 -25.5q-24 0 -50 16.5t-54 16.5z" />
    <glyph glyph-name="macron" unicode="&#xaf;" horiz-adv-x="280" 
d="M24 790h233v-52h-233v52z" />
    <glyph glyph-name="macron" unicode="&#x2c9;" horiz-adv-x="280" 
d="M24 790h233v-52h-233v52z" />
    <glyph glyph-name="cedilla" unicode="&#xb8;" horiz-adv-x="372" 
d="M80 11h59v-56q24 4 43 4q51 0 84 -22.5t33 -53.5q0 -42 -54 -67q-48 -22 -121 -22q-8 0 -88 24l28 40q29 -19 77 -19q50 0 50 39q0 43 -47 43q-10 0 -64 1q1 65 0 89z" />
    <glyph glyph-name="Scaron" unicode="&#x160;" 
 />
    <glyph glyph-name="scaron" unicode="&#x161;" 
 />
    <glyph glyph-name="brokenbar" unicode="&#xa6;" 
 />
    <glyph glyph-name="Eth" unicode="&#xd0;" 
 />
    <glyph glyph-name="eth" unicode="&#xf0;" 
 />
    <glyph glyph-name="Yacute" unicode="&#xdd;" 
 />
    <glyph glyph-name="yacute" unicode="&#xfd;" 
 />
    <glyph glyph-name="Thorn" unicode="&#xde;" 
 />
    <glyph glyph-name="thorn" unicode="&#xfe;" 
 />
    <glyph glyph-name="minus" unicode="&#xad;" horiz-adv-x="0" 
 />
    <glyph glyph-name="minus" unicode="&#x2212;" horiz-adv-x="0" 
 />
    <glyph glyph-name="multiply" unicode="&#xd7;" 
 />
    <glyph glyph-name="onesuperior" unicode="&#xb9;" 
 />
    <glyph glyph-name="twosuperior" unicode="&#xb2;" 
 />
    <glyph glyph-name="threesuperior" unicode="&#xb3;" 
 />
    <glyph glyph-name="onehalf" unicode="&#xbd;" 
 />
    <glyph glyph-name="onequarter" unicode="&#xbc;" 
 />
    <glyph glyph-name="threequarters" unicode="&#xbe;" 
 />
    <glyph glyph-name="Lslash" unicode="&#x141;" 
 />
    <glyph glyph-name="lslash" unicode="&#x142;" 
 />
    <glyph glyph-name="HT" 
 />
    <glyph glyph-name="LF" 
 />
    <glyph glyph-name="nonmarkingreturn" 
 />
    <glyph glyph-name="Zcaron" unicode="&#x17d;" 
 />
    <glyph glyph-name="zcaron" unicode="&#x17e;" 
 />
    <glyph glyph-name="DLE" 
 />
    <glyph glyph-name="DC1" 
 />
    <glyph glyph-name="DC2" 
 />
    <glyph glyph-name="DC3" 
 />
    <glyph glyph-name="DC4" 
 />
    <glyph glyph-name="RS" 
 />
    <glyph glyph-name="US" 
 />
    <glyph glyph-name="notequal" unicode="&#x2260;" horiz-adv-x="768" 
d="M363 659v-658h-73l-2 119h-154l-62 -119h-70l325 658h36zM291 447l-125 -259h125v259zM390 659h320v-68h-151v-207h148v-69l-148 1v-249h155v-67h-323z" />
    <glyph glyph-name="infinity" unicode="&#x221e;" 
 />
    <glyph glyph-name="lessequal" unicode="&#x2264;" 
 />
    <glyph glyph-name="greaterequal" unicode="&#x2265;" 
 />
    <glyph glyph-name="partialdiff" unicode="&#x2202;" horiz-adv-x="477" 
d="M122 1l-72 -1v150l-52 -40v64l52 39l-1 446l73 -1v-657zM152 659h156v-249l88 66v-63l-88 -67v-291h124l-1 -54h-278z" />
    <glyph glyph-name="summation" unicode="&#x2211;" horiz-adv-x="512" 
d="M446 207q0 -75 -52 -137.5t-126 -80.5q72 54 72 123q0 58 -56 134q-51 62 -103 124q-55 69 -55 109q0 38 29 69.5t66 30.5q16 -48 76 -122q93 -115 100 -125q49 -71 49 -125zM386 583q-6 -9 -49 -44q-19 26 -51 44.5t-62 18.5q-53 0 -90 -37t-37 -90q0 -36 56 -108
q51 -65 103 -130q56 -76 56 -122q0 -58 -39 -91.5t-98 -33.5q-113 0 -176 105q20 17 63 41q60 -83 117 -83q28 0 46 15.5t18 42.5q0 30 -55 101q-102 129 -103 131q-55 80 -55 132q0 77 59 135t135 58q102 0 162 -85zM350 782l-9 30l-121 -44l-122 44l-9 -30l128 -82l3 1
l2 -1l1 2z" />
    <glyph glyph-name="product" unicode="&#x220f;" horiz-adv-x="512" 
d="M446 207q0 -75 -52 -137.5t-126 -80.5q72 54 72 123q0 58 -56 134q-51 62 -103 124q-55 69 -55 109q0 38 29 69.5t66 30.5q16 -48 76 -122q93 -115 100 -125q49 -71 49 -125zM386 583q-6 -9 -49 -44q-19 26 -51 44.5t-62 18.5q-53 0 -90 -37t-37 -90q0 -36 56 -108
q51 -65 103 -130q56 -76 56 -122q0 -58 -39 -91.5t-98 -33.5q-113 0 -176 105q20 17 63 41q60 -83 117 -83q28 0 46 15.5t18 42.5q0 30 -55 101q-102 129 -103 131q-55 80 -55 132q0 77 59 135t135 58q102 0 162 -85zM350 782l-9 30l-121 -44l-122 44l-9 -30l128 -82l3 1
l2 -1l1 2z" />
    <glyph glyph-name="pi" unicode="&#x3c0;" horiz-adv-x="660" 
d="M438 305v-304h-168v298l-159 359h173l114 -261q17 35 57 136q36 92 53 125q-3 0 78 0q-37 -97 -148 -353zM244 292v-291h-38.5t-31.5 0v232q0 46 1 43q-3 20 -22 61q-51 105 -151 321h78zM406 814q-228 -78 -228 -81q0 -4 4.5 -21.5t6.5 -16.5q1 1 123 19.5t122 21.5
q0 5 -28 78z" />
    <glyph glyph-name="integral" unicode="&#x222b;" horiz-adv-x="660" 
d="M438 305v-304h-168v298l-159 359h173l114 -261q17 35 57 136q36 92 53 125q-3 0 78 0q-37 -97 -148 -353zM244 292v-291h-38.5t-31.5 0v232q0 46 1 43q-3 20 -22 61q-51 105 -151 321h78zM406 814q-228 -78 -228 -81q0 -4 4.5 -21.5t6.5 -16.5q1 1 123 19.5t122 21.5
q0 5 -28 78z" />
    <glyph glyph-name="Omega" unicode="&#x3a9;" horiz-adv-x="562" 
d="M443 258h-141v-199q20 -14 59 -14q73 2 125 55q-2 -2 43 -47q-78 -65 -185 -65q-35 0 -102 15l1 648q45 16 101 16q104 0 176 -62q2 -2 -20 -23t-27 -23q-55 51 -125 52q-15 0 -46 -8v-164h141v-61h-141v-59h141v-61zM208 14q-136 91 -159 244h-53v61h48q0 8 -1 16
q0 21 2 43h-49v61h60q40 149 152 195v-620z" />
    <glyph glyph-name="Omega" unicode="&#x2126;" horiz-adv-x="562" 
d="M443 258h-141v-199q20 -14 59 -14q73 2 125 55q-2 -2 43 -47q-78 -65 -185 -65q-35 0 -102 15l1 648q45 16 101 16q104 0 176 -62q2 -2 -20 -23t-27 -23q-55 51 -125 52q-15 0 -46 -8v-164h141v-61h-141v-59h141v-61zM208 14q-136 91 -159 244h-53v61h48q0 8 -1 16
q0 21 2 43h-49v61h60q40 149 152 195v-620z" />
    <glyph glyph-name="radical" unicode="&#x221a;" 
 />
    <glyph glyph-name="approxequal" unicode="&#x2248;" 
 />
    <glyph glyph-name="approxequal" unicode="&#x22f2;" 
 />
    <glyph glyph-name="Delta" unicode="&#x394;" 
 />
    <glyph glyph-name="Delta" unicode="&#x2206;" 
 />
    <glyph glyph-name="lozenge" unicode="&#x25ca;" horiz-adv-x="368" 
d="M-1 345l157 157l157 -157l-157 -157z" />
    <glyph glyph-name="fraction" unicode="&#x2044;" 
 />
    <glyph glyph-name="fi" unicode="&#xf001;" horiz-adv-x="22" 
 />
    <glyph glyph-name="fl" unicode="&#xf002;" horiz-adv-x="19" 
 />
    <glyph glyph-name="apple" unicode="&#xf000;" horiz-adv-x="25" 
 />
    <glyph glyph-name="dotlessi" unicode="&#x131;" horiz-adv-x="365" 
d="M280 0h-153l-1 660h154v-660zM98 659l1 -659h-74v659h73z" />
    <glyph glyph-name="breve" unicode="&#x2d8;" horiz-adv-x="326" 
d="M45 824q3 -14 35 -34q36 -22 73 -21q82 1 120 55l29 -20q-63 -89 -151 -85q-50 2 -90.5 27t-46.5 61z" />
    <glyph glyph-name="dotaccent" unicode="&#x2d9;" horiz-adv-x="660" 
d="M134 745q0 22 16.5 38t38.5 16q23 0 39 -16t16 -38q0 -23 -16 -39t-39 -16q-22 0 -38.5 16t-16.5 39z" />
    <glyph glyph-name="ring" unicode="&#x2da;" horiz-adv-x="238" 
d="M109 837q30 0 51 -21.5t21 -50.5q0 -30 -21 -51.5t-51 -21.5t-51 21.5t-21 51.5q0 29 21 50.5t51 21.5zM109 802q-15 0 -26 -11t-11 -26q0 -16 11 -27t26 -11q16 0 26.5 11t10.5 27q0 15 -10.5 26t-26.5 11z" />
    <glyph glyph-name="hungarumlaut" unicode="&#x2dd;" horiz-adv-x="398" 
d="M82 704l-20 16l58 87q21 31 43 31q17 0 29 -12t12 -29q0 -25 -48 -52zM223 704l-19 16l58 87q21 31 43 31q17 0 29 -12t12 -29q0 -25 -49 -52z" />
    <glyph glyph-name="ogonek" unicode="&#x2db;" horiz-adv-x="447" 
d="M196 0h76q-33 -19 -52 -33q-31 -22 -31 -61q0 -20 19.5 -32t39.5 -12q44 0 105 20l18 -35q-80 -38 -162 -38q-45 0 -81 16q-45 22 -45 63q0 49 37 75q6 5 76 37z" />
    <glyph glyph-name="caron" unicode="&#x2c7;" horiz-adv-x="512" 
d="M350 782l-9 30l-121 -44l-122 44l-9 -30l128 -82l3 1l2 -1l1 2z" />
    </font>
</defs>
</svg>
