<?xml version="1.0" standalone="no"?>
<!DOCTYPE svg PUBLIC "-//W3C//DTD SVG 1.1//EN" "http://www.w3.org/Graphics/SVG/1.1/DTD/svg11.dtd" >
<svg>
<metadata>
Created by FontForge 20120731 at Wed Apr 17 21:51:35 2019
 By www-data
Digitized by Dan X. Solo.  Software (c) 2000 by Dover Publications, Inc., New York.
</metadata>
<defs>
<font id="Greta" horiz-adv-x="20" >
  <font-face 
    font-family="Greta"
    font-weight="400"
    font-stretch="normal"
    units-per-em="1000"
    panose-1="0 0 4 0 0 0 0 0 0 0"
    ascent="800"
    descent="-200"
    x-height="672"
    cap-height="672"
    bbox="-29 -200 1075 846"
    underline-thickness="20"
    underline-position="-123"
    unicode-range="U+0020-F002"
  />
<missing-glyph horiz-adv-x="500" 
d="M63 0v800h375v-800h-375zM125 63h250v675h-250v-675z" />
    <glyph glyph-name=".notdef" horiz-adv-x="500" 
d="M63 0v800h375v-800h-375zM125 63h250v675h-250v-675z" />
    <glyph glyph-name=".null" horiz-adv-x="0" 
 />
    <glyph glyph-name="glyph2" horiz-adv-x="256" 
 />
    <glyph glyph-name="space" unicode=" " horiz-adv-x="256" 
 />
    <glyph glyph-name="exclam" unicode="!" horiz-adv-x="314" 
d="M224 298l-109 -126l-109 127v375h218v-376zM221 0h-214v149h214v-149zM195 316v328h-159v-333l62 -75l-1 352h32l1 -351zM192 31v88h-63v-88h63zM99 34v83h-64l1 -84z" />
    <glyph glyph-name="quotedbl" unicode="&#x22;" horiz-adv-x="352" 
d="M166 439l119 117v117h-119v-234zM201 642h50l1 -68l-51 -52v120zM6 439l119 117v117h-119v-234zM41 642h50l1 -68l-51 -52v120z" />
    <glyph glyph-name="numbersign" unicode="#" horiz-adv-x="576" 
d="M284 417l-22 -134h55l21 134h-54zM256 450h121l-31 -200h-123zM160 553l19 125h149l-21 -125h53l19 125h149l-21 -125h78l-26 -136h-75l-22 -134h79l-26 -136h-76l-24 -144l-142 -2l23 146h-57l-24 -144l-142 -2l23 146h-90l27 136h84l21 134h-88l27 136h83zM188 520h-84
l-14 -70h87l-31 -200h-86l-14 -70h89l-23 -145h75l24 145h124l-23 -145h75l24 145h77l13 70h-78l33 200h76l13 70h-77l21 125h-82l-19 -125h-120l21 125h-82z" />
    <glyph glyph-name="dollar" unicode="$" horiz-adv-x="575" 
d="M494 237q0 -100 -91 -199l-1 -34l-130 -124l-2 83l-92 -77v87q-72 27 -100 45q-54 36 -86 98q49 29 104 53q10 -18 35 -40q29 -26 45 -23l4 10v179q-135 76 -134 223v127q10 15 124 126l1 -83l91 80v-94h22q40 0 63 -10q12 -5 56 -37l-91 -93l-16 6q-16 0 -22 -22l11 -17
q91 -29 148 -98q61 -74 61 -166zM460 239q0 95 -58 154q-31 31 -109 70q-58 29 -58 53q0 19 17 38.5t37 19.5q6 0 13 -3l50 50l-4 7q-28 12 -54 12q-30 0 -66 -19q3 17 0 62q-28 -26 -86 -75q0 14 -4 83q-20 -18 -58 -55v-146q0 -50 44 -100q35 -41 87 -69v-255h-23
q-22 0 -103 60q-17 -7 -48 -24q45 -72 175 -98v-38q17 8 62 55l3 268q37 0 37 -169q0 -41 -2.5 -97.5t-2.5 -59.5q6 6 35 27q20 15 26 27q2 4 -1 35q91 86 91 187zM406 239q0 -51 -36 -105q0 18 1 54.5t1 54.5q0 67 -60 100q-55 28 -110 57q-59 45 -58 141q0 18 6 19
q16 5 24 11v-14q-2 -97 58 -136q56 -26 113 -52q61 -37 61 -130z" />
    <glyph glyph-name="percent" unicode="%" horiz-adv-x="607" 
d="M539 150q0 -58 -49 -103t-108 -45q-54 0 -95 33.5t-58 86.5q-19 -19 -41 -58q-27 -50 -35 -62h-139l205 366l-2 3q-5 0 -25 -2q-16 -2 -26 -2q-65 0 -111.5 44t-46.5 109q0 62 46.5 109t109.5 47q55 0 99 -36t58 -90q3 5 71 119l23 7q14 -4 121 -2l-205 -366l1 -7
q26 9 51 9q66 0 111 -47t45 -113zM288 521q0 51 -36 85.5t-87 34.5q-52 0 -87.5 -34.5t-35.5 -86.5q0 -49 37 -85t86 -36q50 0 86.5 36t36.5 86zM479 638h-65l-343 -604q-3 -1 41 -1l26 6q129 212 341 599zM508 160q0 49 -37.5 82.5t-87.5 33.5q-49 0 -85 -34.5t-36 -84.5
q0 -51 35 -86t86 -35q54 0 89.5 35t35.5 89zM228 520q0 -26 -18 -43.5t-44 -17.5t-45 18t-19 44t18.5 43t44.5 17t44.5 -17.5t18.5 -43.5zM448 154q0 -25 -19.5 -41.5t-45.5 -16.5t-43.5 16.5t-17.5 43.5q0 25 18 44t43 19q26 0 45.5 -19.5t19.5 -45.5zM196 520
q0 12 -9.5 21t-21.5 9q-29 0 -29 -30q0 -12 8.5 -21t20.5 -9t21.5 9t9.5 21zM413 156q0 12 -8 21.5t-20 9.5q-13 0 -22.5 -9.5t-9.5 -21.5q0 -11 9.5 -20t20.5 -9q30 0 30 29z" />
    <glyph glyph-name="ampersand" unicode="&#x26;" horiz-adv-x="610" 
d="M497 121l22 -45l-83 -90q-9 1 -19.5 20.5t-18.5 19.5q1 0 -53 -18.5t-83 -18.5q-104 0 -181.5 75.5t-77.5 179.5q0 84 40 141q22 31 78 73q-23 56 -23 74q0 64 45.5 109t110.5 45q77 0 131 -68q-23 -20 -98 -70l-27 12q-36 0 -35 -33q1 -15 77 -129q64 -96 95 -136
q0 33 -9 61h120q10 -25 12 -64q3 -48 -23 -138zM488 243q0 24 -9 48h-51q4 -23 4 -50q0 -39 -20 -64q-47 64 -125 182q-99 151 -99 171q0 31 21 49q19 15 46 15q17 0 31 -7q28 17 48 34q-24 28 -72 28q-49 0 -88.5 -35.5t-39.5 -82.5q0 -32 10 -51q6 -12 27 -36l-26 -15
q-57 -37 -81 -75q-27 -43 -27 -108q0 -93 66 -160.5t159 -67.5q70 0 117 41q-8 15 -29 41q-40 -23 -88 -23q-71 0 -121 49t-50 120q0 41 24 82q29 49 77 69q3 -2 17 -24q-45 -37 -53 -49q-28 -35 -28 -92q23 1 51 0q-2 10 -2 27q0 21 20 41.5t42 19.5h7l192 -286l39 42
l-26 46q37 65 37 121zM331 133q-30 49 -96 143l-6 1q-15 -16 -14 -30q2 -20 10.5 -29.5t17.5 -18.5q3 1 -107 1q16 -37 51.5 -62.5t73.5 -25.5q54 0 70 21z" />
    <glyph glyph-name="quotesingle" unicode="'" horiz-adv-x="205" 
d="M6 439l119 117l1 117h-120v-234zM41 642h50l1 -68l-51 -52v120z" />
    <glyph glyph-name="parenleft" unicode="(" horiz-adv-x="316" 
d="M241 190q-31 1 -91 0q23 -63 59 -104v-156q-104 67 -162 182q-51 101 -51 203q0 112 43 208q55 121 169 187q0 -36 1 -106q2 -53 0 -175q0 -52 -1 -104q7 -83 33 -135zM190 223q-14 55 -15 65v351q-140 -121 -140 -322q0 -198 143 -323v75q-89 112 -89 248q0 48 10 99
q11 57 29 81v-88q0 -3 -3 -44.5t-3 -44.5q0 -54 18 -99q33 -3 50 2z" />
    <glyph glyph-name="parenright" unicode=")" horiz-adv-x="316" 
d="M-4 190q32 1 91 0q-23 -63 -59 -104v-156q104 67 162 182q51 101 51 203q0 112 -43 208q-55 121 -169 187q1 -36 0 -106q-2 -53 -1 -175q0 -52 1 -104q-6 -83 -33 -135zM47 223q14 55 15 65v351q140 -121 140 -322q0 -198 -143 -323v75q90 112 90 248q0 48 -11 99
q-11 57 -29 81v-88q0 -3 3 -44.5t3 -44.5q0 -54 -18 -99q-33 -3 -50 2z" />
    <glyph glyph-name="asterisk" unicode="*" horiz-adv-x="435" 
d="M296 363l-78 57l10 -96h-119l10 96l-78 -57l-60 104l88 39l-88 39l60 104l78 -57l-10 96h119l-10 -96l78 57l60 -104l-88 -39l88 -39zM286 411l23 41l-122 54l122 55l-23 40l-108 -79l14 133h-47l14 -133l-108 79l-23 -40l122 -55l-122 -54l23 -41l108 79l-14 -133h47
l-14 133z" />
    <glyph glyph-name="plus" unicode="+" horiz-adv-x="646" 
d="M580 257l-219 1v-219h-142v219l-218 1v137h219v222h141v-220l219 1v-142zM545 298v61h-224v222h-62v-222h-221v-61h221v-225h62v225h224z" />
    <glyph glyph-name="comma" unicode="," horiz-adv-x="247" 
d="M96 -78l-101 1l44 223h138zM129 117l-60 -1l-36 -161h40z" />
    <glyph glyph-name="hyphen" unicode="-" horiz-adv-x="297" 
d="M230 253h-232v138h232v-138zM193 291v61h-158v-61h158z" />
    <glyph glyph-name="hyphen" unicode="&#x2010;" horiz-adv-x="297" 
d="M230 253h-232v138h232v-138zM193 291v61h-158v-61h158z" />
    <glyph glyph-name="period" unicode="." horiz-adv-x="234" 
d="M150 79q0 -20 -14.5 -34t-34.5 -15q-21 0 -35.5 15t-14.5 35q1 21 16 34.5t36 12.5q19 -1 33 -15t14 -33zM188 79q0 35 -25 60t-60 26q-37 2 -63 -23.5t-27 -61.5q0 -36 26.5 -62t62.5 -25t61 25.5t25 60.5z" />
    <glyph glyph-name="slash" unicode="/" horiz-adv-x="443" 
d="M370 665l-237 -670h-126l66 197l-66 77l145 405h214zM321 639l-148 1q-43 -122 -126 -365l40 -39l122 348q18 0 40 -2l-187 -550h51z" />
    <glyph glyph-name="zero" unicode="0" horiz-adv-x="796" 
d="M712 339q0 -150 -103.5 -251.5t-250.5 -101.5q-148 0 -253.5 101.5t-105.5 250.5q0 154 110 256q105 96 252 96q146 0 248.5 -102.5t102.5 -248.5zM674 339q0 132 -92 224.5t-224 92.5q-134 0 -228 -92.5t-94 -225.5q0 -132 94.5 -225t224.5 -93q135 0 227 92.5t92 226.5
zM623 339q0 -113 -78.5 -189t-188.5 -76q-111 0 -188.5 78t-77.5 186q0 77 42 143q49 75 135 106q1 -12 1 -36q-63 -19 -103 -79.5t-40 -133.5q0 -33 12 -63l16 -34q36 -2 47 0q-26 52 -26 109q0 56 35 100q40 47 112 65q0 -1 0 85q20 5 60 1q45 -4 77 -16q81 -30 126 -109
q39 -67 39 -137zM591 339q0 60 -37 121q-42 71 -110 95q-31 11 -87 11v-83q-72 -4 -111 -47q-34 -38 -34 -95q0 -91 64 -135q-43 -1 -69 0q-19 0 -29 1.5l-10 1.5q28 -47 92 -77q55 -26 99 -26q94 0 163 69.5t69 163.5z" />
    <glyph glyph-name="one" unicode="1" horiz-adv-x="326" 
d="M250 273l-86 -93v-178h-121v542l123 128h83zM218 283v359l-38 1l-104 -109l1 -496h54v473l33 41v-326z" />
    <glyph glyph-name="two" unicode="2" horiz-adv-x="568" 
d="M495 426q-3 -88 -59 -162q-24 -31 -143 -148h182q-31 -40 -99 -117h-371l197 207q-5 7 -33 40q-21 25 -21 29q0 1 62.5 65t62.5 88q0 34 -42 40v93q-3 4 -11 4q-27 0 -62 -23q-39 -26 -45 -56l-109 58q33 72 103 108q60 32 134 30q111 -2 185 -81q71 -76 69 -175z
M462 426q0 97 -67.5 161.5t-165.5 64.5q-60 0 -107.5 -27t-70.5 -69q41 -25 44 -25t21 18q22 22 44 33q33 18 73 18q22 0 31 -4v-104q14 -2 29 -18q18 -20 18 -45q0 -28 -38 -68q-77 -82 -80 -86q3 -8 18.5 -25t20.5 -17q51 52 102 103q38 45 38 96q0 31 -12 57
q-8 19 -21 32.5t-13 12.5v37q40 -20 61 -66q18 -38 18 -76q0 -45 -18 -76q-23 -41 -130 -148q-159 -160 -172 -174h276q29 28 50 53q-31 1 -123 0q-72 -1 -72 1q51 48 103 97q66 64 99 114q44 68 44 130z" />
    <glyph glyph-name="three" unicode="3" horiz-adv-x="568" 
d="M494 250q0 -113 -75 -189.5t-178 -74.5q-70 2 -129 29q-77 35 -113 106q14 11 66 37q48 24 47 26q47 -72 120 -72q37 0 69 19q39 24 53 68q-3 3 -100 6q17 33 17 37q0 19 -12.5 34t-25.5 15h-167q78 178 106 234q7 15 15 30h-172l101 117h367l-103 -220q114 -71 114 -202
zM460 244q0 82 -47 137q-25 30 -77 60l97 199h-299l-43 -50h146l-121 -270h120q27 0 46 -20.5t19 -45.5q0 -10 -3 -19l61 1q3 3 3 17q0 37 -27 74q-30 42 -75 52q-17 1 -53 3q24 56 49 112q41 93 47.5 93t33.5 1q2 3 -80 -174q61 -11 100 -54q43 -47 43 -113q0 -59 -31 -102
q-36 -49 -106 -65q-17 -4 -34 -4q-69 0 -122 63q-5 6 -55 -27q-1 -2 -4 -2q24 -27 49 -54q44 -34 132 -38q86 -4 158.5 63t72.5 163z" />
    <glyph glyph-name="four" unicode="4" horiz-adv-x="588" 
d="M539 312l-106 -118l-100 1v-195h-122v194l-215 2l220 476l212 1l-1 -361h112zM467 282h-75l-1 357l-152 1l-185 -411h190v-196h55v548h37v-351h85zM244 280l-113 -1l113 237v-236zM216 391l-32 -79h32v79z" />
    <glyph glyph-name="five" unicode="5" horiz-adv-x="550" 
d="M480 247q0 -109 -77.5 -182t-185.5 -73q-60 0 -121 34q-70 37 -100 100q32 21 100 54q20 -35 58 -56q33 -18 65 -18q44 0 83 27q45 31 49 76q-44 -1 -117 -1q22 23 22 42q0 15 -14 29t-28 14h-183v381h408l-118 -122h-76v-59q53 0 119 -37q116 -66 116 -209zM448 247
q0 90 -65 152q-69 68 -176 62v124h100l55 57h-300v-315h110q119 0 119 -71q0 -4 -1.5 -9.5t-1.5 -7.5h68v33q1 31 -42.5 70t-84.5 37h-111l1 205l31 2q-4 -175 -2 -178q81 3 124 -10q76 -22 111 -95q8 -17 8 -57q0 -70 -51 -119.5t-118 -49.5q-41 0 -74 17q-21 10 -43 31
q-18 17 -21 17q-14 0 -44 -24q33 -47 86 -73q47 -23 93 -24q93 -2 161 66t68 160z" />
    <glyph glyph-name="six" unicode="6" horiz-adv-x="568" 
d="M492 236q0 -102 -71 -170.5t-174 -68.5q-142 0 -212 127q-30 54 -30 100v449h216l1 -197h19q104 3 177.5 -65.5t73.5 -174.5zM458 235q0 89 -64.5 147t-153.5 58q-10 0 -15 -1v-53q13 2 24 2q57 0 105 -46t48 -103q0 -63 -46 -109t-109 -46q-54 0 -103 43t-49 96l1 360
q0 3 11 3q16 0 25 -5v-265q16 -17 53 -46v372h-146v-401q0 -86 60.5 -148t146.5 -62q87 0 149.5 58.5t62.5 145.5zM365 233q0 54 -36 86.5t-90 32.5q-11 0 -17 -3l-1 -161q-29 26 -89 76v-40q0 -41 37 -72t80 -31q48 0 82 32t34 80z" />
    <glyph glyph-name="seven" unicode="7" horiz-adv-x="538" 
d="M477 670l-235 -671h-138l68 190l-65 77l98 283h-201l111 121h362zM424 637h-296l-50 -54h175l-105 -306l37 -47l125 353h40l-195 -551l60 2z" />
    <glyph glyph-name="eight" unicode="8" horiz-adv-x="567" 
d="M500 237q0 -99 -74 -172t-174 -73q-102 0 -176 72.5t-74 174.5q0 79 50 142q26 29 53 58q-2 10 -13 39q-9 23 -9 45q0 66 47 112t113 46q67 0 113.5 -46.5t46.5 -113.5q0 -33 -23 -71q55 -28 87.5 -88.5t32.5 -124.5zM464 237q0 78 -30 123q-28 42 -98 77q34 33 34 84
q0 54 -37.5 90.5t-91.5 36.5q-51 0 -88 -37t-37 -88t39 -93q-117 -73 -117 -188q0 -88 62 -151.5t150 -63.5t151 61t63 149zM308 521q0 -26 -19 -43t-46 -17t-45.5 19.5t-18.5 46.5q0 26 19 44.5t45 18.5t45.5 -21t19.5 -48zM410 239q0 -61 -48 -110t-109 -49
q-66 0 -112.5 47t-46.5 113q0 63 47.5 109t110.5 46h28v-95q20 -4 31 -22t7 -39h59q1 7 1 15q0 46 -45 80v39q33 -16 55 -56t22 -78zM275 523q0 12 -9.5 22.5t-22.5 10.5q-33 0 -33 -31q0 -35 35 -35q12 0 21 10.5t9 22.5zM371 210h-102q20 10 20 33q0 33 -42 37q2 58 0 84
q-52 -6 -86 -38.5t-34 -83.5q0 -53 36 -91t88 -38q45 0 78.5 26.5t41.5 70.5z" />
    <glyph glyph-name="nine" unicode="9" horiz-adv-x="568" 
d="M5 438q0 103 71 171.5t174 68.5q142 0 212 -128q30 -54 30 -100v-448h-216l-1 197l-18 -1q-105 -3 -178.5 66t-73.5 174zM39 440q0 -89 64.5 -147.5t154.5 -58.5q9 0 14 2v52q-13 -1 -24 -1q-57 0 -105 45.5t-48 102.5q0 64 46 109.5t109 45.5q54 0 103 -42.5t49 -96.5
v-359q0 -4 -11 -4q-17 0 -25 5v265q-17 17 -53 46v-371h145v401q0 86 -60.5 148t-145.5 62q-87 0 -150 -59t-63 -145zM132 441q0 -54 36 -86.5t90 -32.5q11 0 17 3l1 161q29 -26 89 -76v40q0 42 -37 73t-79 31q-49 0 -83 -32.5t-34 -80.5z" />
    <glyph glyph-name="colon" unicode=":" horiz-adv-x="256" 
d="M143 489q0 -21 -14.5 -35t-34.5 -14q-21 0 -35.5 15t-14.5 35q0 21 15.5 34t35.5 13t34 -14.5t14 -33.5zM181 489q0 35 -25 60.5t-61 25.5q-37 0 -63 -23.5t-26 -61.5q0 -36 26 -61.5t63 -25.5q35 0 60.5 25.5t25.5 60.5zM144 82q0 -21 -14.5 -35t-34.5 -14
q-21 0 -35.5 15t-14.5 35q0 21 15.5 34t36.5 13q19 0 33 -14.5t14 -33.5zM181 79q0 36 -25.5 62.5t-61.5 26.5q-38 0 -63 -25t-25 -63q0 -36 26 -61.5t63 -25.5q35 0 60.5 25.5t25.5 60.5z" />
    <glyph glyph-name="semicolon" unicode=";" horiz-adv-x="235" 
d="M143 489q0 -21 -14.5 -35t-34.5 -14q-21 0 -35.5 15t-14.5 35q0 21 15.5 34t35.5 13t34 -14.5t14 -33.5zM181 489q0 34 -28.5 60.5t-57.5 25.5q-40 0 -64.5 -23.5t-24.5 -61.5q0 -36 26 -61.5t63 -25.5q35 0 60.5 25.5t25.5 60.5zM95 -78h-101l44 223h138zM126 115
l-57 -1l-34 -159h37z" />
    <glyph glyph-name="less" unicode="&#x3c;" horiz-adv-x="584" 
d="M3 159v323h203l-1 159l318 -318l-318 -318l1 154h-203zM38 194h204l-1 -104l233 233l-233 233l1 -109h-204v-253z" />
    <glyph glyph-name="equal" unicode="=" horiz-adv-x="515" 
d="M440 133h-442v138h442v-138zM403 171v61h-368v-61h368zM440 343h-442v138h442v-138zM403 381v61h-368v-61h368z" />
    <glyph glyph-name="greater" unicode="&#x3e;" horiz-adv-x="584" 
d="M523 159v323h-204l1 159l-317 -318l317 -318l-1 154h204zM488 194h-204l1 -104l-233 233l233 233l-1 -109h204v-253z" />
    <glyph glyph-name="question" unicode="?" horiz-adv-x="540" 
d="M469 431q1 -77 -40 -142q-46 -75 -132 -104q-25 -8 -53 -7h-133v214h46q31 1 33 1q61 0 61 41q0 30 -40 42v86q-9 5 -20 5q-26 0 -56 -21.5t-45 -47.5l-105 53q31 66 104 104q62 32 122 32q107 0 182 -74.5t76 -181.5zM327 2h-216v152h216v-152zM434 430q0 87 -64 155
q-68 70 -160 70q-94 0 -176 -89q14 -8 47 -26q12 22 46 42q39 22 79 22q20 0 39 -6v-98q43 -26 43 -65t-28 -57q-21 -14 -61 -18l-56 -2v-148h56v88q63 -1 105 39t42 93q0 27 -12.5 59t-28.5 42v21v24q37 -21 58 -70q17 -40 17 -78q0 -60 -40 -105.5t-109 -61.5
q-2 -44 -1 -50l19 1q6 0 44 13q69 24 108 89q33 56 33 116zM292 36v84h-56v-84h56zM198 36v84h-54v-84h54z" />
    <glyph glyph-name="at" unicode="@" horiz-adv-x="762" 
d="M504 118q-84 0 -106 61q-55 -51 -122 -51q-48 0 -80 34q-36 38 -36 103q0 114 62 192q69 86 186 86q63 0 131 -36q-14 -45 -57 -240q-6 -26 -6 -41q0 -27 31 -27q39 0 72 51.5t33 128.5q0 97 -71 164t-183 67q-116 0 -193 -90q-74 -85 -74 -202q0 -107 73 -177t178 -70
q63 0 133 24l22 -83q-74 -24 -155 -24q-147 0 -246 85q-106 91 -106 245q0 158 104.5 265.5t263.5 107.5q151 0 251 -84q103 -87 103 -228q0 -114 -60 -187.5t-148 -73.5zM504 143q76 0 128 63q55 67 55 173q0 129 -93.5 208t-235.5 79q-148 0 -245.5 -100t-97.5 -248
q0 -142 98 -226q91 -79 229 -79q69 0 125 15l-9 35q-56 -17 -116 -17q-115 0 -194 76q-82 79 -82 196q0 126 80 219q84 98 212 98q121 0 200 -74t79 -182q0 -83 -38 -144t-92 -61q-55 0 -55 53q0 18 5 45q15 74 52 222q-49 24 -101 24q-105 0 -166 -77q-57 -70 -57 -176
q0 -55 29 -86q25 -26 62 -26q70 0 139 83q4 -50 19 -69q19 -24 70 -24zM402 462q-68 0 -107 -64q-35 -57 -35 -136q0 -47 34 -47q45 0 75 52q23 38 38 106l16 88q-9 1 -21 1zM402 487q25 0 50 -11l-20 -106q-18 -78 -45 -122q-37 -58 -93 -58q-59 0 -59 72q0 85 38 149
q46 76 129 76z" />
    <glyph glyph-name="A" unicode="A" horiz-adv-x="653" 
d="M587 0l-228 1l-93 200l-41 -2l-91 -199h-133l298 681zM535 34l-236 559l-249 -559h62l182 421l172 -374l-40 1l-132 282l-56 -132l51 -1l93 -198z" />
    <glyph glyph-name="B" unicode="B" horiz-adv-x="562" 
d="M490 241q0 -93 -69.5 -167t-147.5 -74h-273v672l244 1q65 0 115.5 -50.5t50.5 -115.5q0 -39 -27 -83q52 -26 82 -83q25 -50 25 -100zM456 241q2 69 -46 122q-36 41 -75 53q37 29 39 87q3 54 -37.5 96t-89.5 42h-213v-608h56v552h30v-354l57 53l-1 98q49 -2 57 -2
q68 3 113 -36q49 -42 49 -113q0 -66 -49.5 -107t-130.5 -37q-18 1 -96 1v-54l146 -1q72 -1 130.5 62.5t60.5 145.5zM358 233v14q-1 10 -1 14q0 24 -31.5 56.5t-60.5 32.5l-59 1v-79l-87 -81v-71h129q45 0 79 39q31 35 31 74zM228 448h-51v137h66q26 0 50 -25q21 -23 21 -43
q0 -41 -38 -59q-29 -14 -48 -10zM238 552h-28v-72l40 1q13 0 21.5 11.5t8.5 24.5q0 35 -42 35z" />
    <glyph glyph-name="C" unicode="C" horiz-adv-x="670" 
d="M602 82q-45 -48 -120 -76q-66 -25 -126 -25q-148 0 -253 106t-105 250q0 148 108 249q105 98 250 98q132 0 238 -89q-3 -8 -78 -90q-19 13 -49 32q-54 23 -74 24h-42v-83q-66 -7 -106 -51q-36 -41 -36 -97q0 -33 15 -66q20 -42 55 -62h-114l11 -11q22 -40 80 -67
q52 -24 100 -24q47 0 116 32q10 5 38 27zM550 86q-13 11 -37 34q-70 -50 -159 -50q-108 0 -186.5 76t-78.5 188q0 136 119 216q39 26 52 26q6 0 8 -2v-26q-69 -28 -111 -95q-36 -59 -36 -117q0 -41 25 -104h58q-19 36 -24 54q-3 14 -3 46q0 64 39.5 113t102.5 61v87h24
q15 -1 17 -1q71 0 149 -43q13 12 33 38q-92 61 -184 61q-127 0 -223 -88q-99 -92 -101 -223q-2 -92 44 -168q43 -70 118 -114q69 -40 157 -40q47 0 108 20q65 22 89 51z" />
    <glyph glyph-name="D" unicode="D" horiz-adv-x="634" 
d="M567 342q0 -59 -21 -119q-26 -75 -76 -126q-57 -57 -119 -79q-53 -18 -135 -18h-214v672h249q134 0 225 -97.5t91 -232.5zM530 342q4 111 -79 202q-86 96 -205 96h-206v-607h50l-1 552h37v-348l54 50v298q16 2 33 2q98 0 169 -52q89 -67 91 -195q2 -117 -93 -193
q-82 -66 -170 -63q-74 2 -84 0v-50l133 -1q25 -1 81 20q86 33 140 123q47 80 50 166zM437 338q0 96 -62.5 156t-161.5 58v-281l-87 -77q-3 -66 1 -73h103q89 7 148 72t59 145z" />
    <glyph glyph-name="E" unicode="E" horiz-adv-x="566" 
d="M486 673l-111 -117h-162v-230l175 1l-108 -122h-158v-88l373 -1l-97 -116h-394v673h482zM418 643h-382v-614h342l53 59h-338v497l31 1l-1 -349h148l52 60h-142l-1 288h177z" />
    <glyph glyph-name="F" unicode="F" horiz-adv-x="548" 
d="M486 672l-111 -115h-164v-229h173l-114 -119l-147 -1v-211h-119v675h482zM418 642h-383v-614h59l1 556l27 -1v-345h135l65 61h-142v285h180z" />
    <glyph glyph-name="G" unicode="G" horiz-adv-x="794" 
d="M382 -15h-24q-149 0 -253 101t-103 253q2 163 112 261q100 90 244 88q90 -2 167 -38q63 -30 79 -61q-26 -26 -78 -79q-70 70 -168 66v-83q-61 -7 -103 -51.5t-42 -98.5q0 -36 16 -77.5t34 -59.5q-87 3 -92 0q18 -46 79 -77q50 -26 91 -26q142 0 206 96q-4 5 -3 6q0 1 3 0
q1 0 3 -1h-133l-98 119h394q0 -130 -100 -234t-231 -104zM679 294h-296l51 -61h168q-25 -76 -101 -119q-68 -39 -153 -39q-99 0 -177 79.5t-78 180.5q0 81 39 145q46 75 139 110v-36q-70 -22 -111 -92q-35 -60 -35 -122q0 -64 31 -104h56q-29 43 -29 106q0 59 44.5 113.5
t103.5 59.5v91q80 2 133 -21q14 -6 62 -38q41 39 39 41q-66 70 -207 70t-232 -95t-91 -230q0 -140 106 -232q101 -87 239 -87q107 0 197 83t102 197z" />
    <glyph glyph-name="H" unicode="H" horiz-adv-x="573" 
d="M490 0h-118v199h-252v-198h-118v671h205v-352h162v352h121v-672zM459 28l1 609h-60l1 -346h-225v353h-142v-614h54l1 555h30v-357h283v-200h57z" />
    <glyph glyph-name="I" unicode="I" horiz-adv-x="299" 
d="M217 268l-90 -74l2 -195h-124v673h212v-404zM182 285v351h-140v-605h52l1 565h34v-357z" />
    <glyph glyph-name="J" unicode="J" horiz-adv-x="524" 
d="M446 223q0 -92 -72 -164t-163 -72q-63 0 -122 27q-65 29 -95 79q1 3 93 95q46 -77 117 -77q37 0 77.5 33.5t38.5 64.5v64q-31 -30 -90 -83v483h216v-450zM412 225v411h-145v-369q19 20 53 50q-1 18 -1 265q14 9 34 0v-364q0 -55 -46 -96.5t-107 -41.5q-70 0 -120 57
q-16 -15 -38 -42q59 -74 162 -74q83 0 145.5 60.5t62.5 143.5z" />
    <glyph glyph-name="K" unicode="K" horiz-adv-x="572" 
d="M505 673l-150 -206l165 -469h-136l-129 345q-68 -83 -136 -174v-170h-121v673h216l-1 -179l142 180h150zM470 33l-159 443l127 162h-68l-185 -230q-2 -2 -5 4v224h-148v-601h54v545l34 -1v-349l148 185l140 -382h62z" />
    <glyph glyph-name="L" unicode="L" horiz-adv-x="543" 
d="M483 118l-117 -118h-363v672h211v-389l-87 -94l-1 -71h357zM404 84h-311v496h36v-337l51 57v336h-140v-602h315z" />
    <glyph glyph-name="M" unicode="M" horiz-adv-x="774" 
d="M689 0h-216l1 162l-130 -177l-216 289v-274h-122v684l341 -476l342 471v-679zM655 34l1 533q-98 -126 -311 -422l-303 422v-530h50v355l255 -347l252 344v-299h-38v185l-55 -71v-170h149z" />
    <glyph glyph-name="N" unicode="N" horiz-adv-x="581" 
d="M494 -15l-369 369v-351h-123v675l280 -284v278h212v-687zM459 77v557h-141v-268l53 -53v271h38v-367l-368 369v-549h50v407z" />
    <glyph glyph-name="O" unicode="O" horiz-adv-x="796" 
d="M712 339q0 -150 -103.5 -251.5t-250.5 -101.5q-148 0 -253.5 101.5t-105.5 250.5q0 154 110 256q105 96 252 96q146 0 248.5 -102.5t102.5 -248.5zM674 339q0 132 -92 224.5t-224 92.5q-134 0 -228 -92.5t-94 -225.5q0 -132 94.5 -225t224.5 -93q135 0 227 92.5t92 226.5
zM623 339q0 -113 -78.5 -189t-188.5 -76q-111 0 -188.5 78t-77.5 186q0 77 42 143q49 75 135 106q1 -12 1 -36q-63 -19 -103 -79.5t-40 -133.5q0 -33 12 -63l16 -34q36 -2 47 0q-26 52 -26 109q0 56 35 100q40 47 112 65q0 -1 0 85q20 5 60 1q45 -4 77 -16q81 -30 126 -109
q39 -67 39 -137zM591 339q0 60 -37 121q-42 71 -110 95q-31 11 -87 11v-83q-72 -4 -111 -47q-34 -38 -34 -95q0 -91 64 -135q-43 -1 -69 0q-19 0 -29 1.5l-10 1.5q28 -47 92 -77q55 -26 99 -26q94 0 163 69.5t69 163.5z" />
    <glyph glyph-name="P" unicode="P" horiz-adv-x="581" 
d="M505 433q5 -83 -53 -156q-64 -82 -163 -82h-157v-198h-128v674l242 2q112 0 182 -66t77 -174zM463 432q-5 89 -64.5 147.5t-147.5 58.5l-210 -1v-606h55v551h37v-350l162 -1q71 0 121.5 61t46.5 140zM407 433q0 -74 -47 -115q-41 -36 -97 -36l-79 2v298l81 1q44 1 89 -39
q53 -45 53 -111zM364 432q0 58 -38 88q-32 26 -83 26q-10 0 -20 -1q0 -87 -1 -133q-1 -35 -1 -91q58 -5 97 19q46 30 46 92z" />
    <glyph glyph-name="Q" unicode="Q" horiz-adv-x="796" 
d="M721 335q0 -64 -15 -106.5t-54 -92.5q3 0 61 -60l-94 -87q-55 52 -62 52q-2 0 -34 -16t-35 -18q-52 -20 -129 -20q-143 0 -249 102t-106 244q0 151 103 254t254 106q160 2 261 -103q99 -101 99 -255zM594 338q0 95 -68 163t-163 67q-1 -27 -1 -83l-2 -2
q-63 -7 -102 -45.5t-39 -101.5q0 -68 70 -125h-116q25 -49 82 -78q52 -26 107 -26q22 0 57 8q45 10 46 23l-174 180l4 4q63 -1 170 -1l95 -95q34 44 34 112zM685 338q0 133 -93 228q-96 96 -228 91q-135 -4 -229 -96t-94 -225t94 -224t227 -91q75 0 123 24q10 5 72 39
l60 -52l47 44l-211 210h-86l156 -157q-68 -54 -161 -54q-111 0 -188.5 76t-77.5 187q0 85 48.5 154t129.5 94v-35q-41 -10 -85 -59q-59 -66 -59 -154q0 -65 24 -96l63 1q-33 55 -33 96q0 64 41 111t104 65q-1 28 0 85q6 3 27 3q113 0 193 -76.5t80 -188.5q0 -78 -43 -135
q43 -44 43 -47q56 74 56 182z" />
    <glyph glyph-name="R" unicode="R" horiz-adv-x="560" 
d="M495 1h-181l-194 201v-200h-118v671h241q15 0 49 -8q91 -21 144 -92q46 -64 46 -140q0 -121 -82 -183q-47 -35 -111 -45zM444 435q0 87 -65 146t-153 59h-188v-602h51l-2 546l36 -1v-330l208 -215h73l-193 198q31 2 61 4q69 11 112 47q60 52 60 148zM390 438
q0 -62 -37 -104q-39 -45 -101 -45l-75 1v294q-3 -1 43 -1q74 0 121.5 -40.5t48.5 -104.5zM353 440q-2 44 -32.5 75t-72.5 31h-35v-222h39q38 0 70.5 36t30.5 80z" />
    <glyph glyph-name="S" unicode="S" horiz-adv-x="508" 
d="M432 230q0 -105 -68 -170.5t-172 -65.5q-124 0 -198 106l92 91q14 -30 42.5 -53t60.5 -23q35 0 69 26.5t41 60.5q-66 3 -95 0q17 8 17 26t-17 27q-20 9 -59 29q-131 73 -131 194q0 91 55.5 145t146.5 58q76 4 140 -53q-3 -10 -77 -91q-32 24 -46 24q-17 0 -31 -12.5
t-14 -29.5q0 -27 26 -36q22 -13 67 -35q151 -63 151 -218zM402 236q0 63 -41 116q-38 48 -100 76q-51 22 -65 32q-37 24 -42 57q-5 32 20 52t59 20q7 0 23.5 -8t18.5 -9l36 50q-48 27 -90 27q-71 0 -123.5 -49.5t-52.5 -120.5q0 -54 29 -94q22 -31 74 -67q33 -16 65 -32
q39 -22 36 -55h58q2 9 2 15q0 45 -54 79l-100 56q-54 38 -54 94q0 1 1 2q24 -44 88 -81q98 -56 103 -59q48 -38 48 -93q0 -61 -43.5 -110.5t-104.5 -49.5q-62 0 -113 60q-16 -13 -43 -42q25 -38 68.5 -59t89.5 -21q84 0 145.5 65t61.5 149z" />
    <glyph glyph-name="T" unicode="T" horiz-adv-x="561" 
d="M480 551h-128v-276l-98 -98v-179h-118l1 555h-133v120h476v-122zM444 583v53h-407v-48h131v-555l55 -1v553h36v-354l58 53v299h127z" />
    <glyph glyph-name="U" unicode="U" horiz-adv-x="570" 
d="M489 202q0 -91 -77 -154q-72 -59 -164 -58q-96 1 -160 59q-48 43 -71 111q-19 53 -14 74v439h210v-475l-87 89l-1 -53q0 -44 38.5 -84t81.5 -40q41 0 81 38t40 75v448h123v-469zM453 202v435h-50v-425q0 -55 -50 -97t-105 -42q-58 0 -107 46t-49 103v365l35 1l1 -254
l50 -52v357l-139 1l-1 -379q0 -96 52 -161q58 -73 160 -73q72 0 135 51q68 54 68 124z" />
    <glyph glyph-name="V" unicode="V" horiz-adv-x="557" 
d="M486 672l-259 -680l-231 680h218l67 -187l73 187h132zM437 643h-56l-148 -390l-119 338h35l82 -238l32 75l-73 213h-148l188 -550z" />
    <glyph glyph-name="W" unicode="W" horiz-adv-x="775" 
d="M701 672l-238 -678l-114 306l-122 -309l-228 681h226l59 -165l68 170l114 -297l99 292h136zM647 635l-50 1l-131 -367l-114 301l-122 -304l-110 320h40l73 -215l32 82l-71 185l-144 1l180 -540l119 312l114 -304z" />
    <glyph glyph-name="X" unicode="X" horiz-adv-x="581" 
d="M505 673l-176 -334l170 -336l-149 -1l-96 195l-116 -195h-143l121 221l-67 73l82 140l-119 236h147l48 -95l55 96h243zM445 637l-160 1l-78 -139l-72 142h-64l101 -203l-80 -139l40 -44l185 329l42 2l-303 -549l60 1l138 239l122 -240h67l-156 304z" />
    <glyph glyph-name="Y" unicode="Y" horiz-adv-x="556" 
d="M235 0h-131l78 206l-178 466h131l70 -178l69 178h217zM440 637h-146l-91 -226l-91 227h-58l149 -373l125 316h37l-210 -547h54z" />
    <glyph glyph-name="Z" unicode="Z" horiz-adv-x="565" 
d="M495 672l-297 -554h270l-103 -117h-362l114 222l-68 68l148 265h-161l100 116h359zM435 641h-290l-46 -55h150l-161 -289l45 -44l183 335h33l-292 -556h297l55 57l-264 2zM7996 89z" />
    <glyph glyph-name="bracketleft" unicode="[" horiz-adv-x="288" 
d="M218 643h-88v-617h86v-107h-211v831h211zM183 -2h-89l1 676h88l-1 40h-140v-759h140z" />
    <glyph glyph-name="backslash" unicode="\" horiz-adv-x="443" 
d="M240 0h126l-62 192l66 77l-145 405l-222 -1zM56 639l148 1l126 -365l-40 -39l-122 348l-40 -2l187 -550h-51z" />
    <glyph glyph-name="bracketright" unicode="]" horiz-adv-x="288" 
d="M216 -81h-211v107h86v617h-86v107h211v-831zM179 -45v759h-140l1 -42l86 2l1 -676h-87l-1 -43h140z" />
    <glyph glyph-name="asciicircum" unicode="^" horiz-adv-x="319" 
d="M279 753l-55 -58l-81 44l-75 -46l-57 60l129 83zM238 747l-98 59l-93 -59l25 -24l71 45l75 -42z" />
    <glyph glyph-name="underscore" unicode="_" horiz-adv-x="486" 
d="M-1 -80h487v-45h-487v45z" />
    <glyph glyph-name="grave" unicode="`" horiz-adv-x="235" 
d="M129 701h95l-98 127h-116zM63 808l45 -1l72 -85l-38 -1z" />
    <glyph glyph-name="a" unicode="a" horiz-adv-x="653" 
d="M580 0l-228 1l-93 200l-41 -2l-91 -199h-133l298 681zM528 34l-236 559l-249 -559h62l182 421l172 -374l-40 1l-132 282l-56 -132l51 -1l93 -198z" />
    <glyph glyph-name="b" unicode="b" horiz-adv-x="562" 
d="M490 241q0 -93 -69.5 -167t-147.5 -74h-273v672l244 1q65 0 115.5 -50.5t50.5 -115.5q0 -39 -27 -83q52 -26 82 -83q25 -50 25 -100zM456 241q2 69 -46 122q-36 41 -75 53q37 29 39 87q3 54 -37.5 96t-89.5 42h-213v-608h56v552h30v-354l57 53l-1 98q49 -2 57 -2
q68 3 113 -36q49 -42 49 -113q0 -66 -49.5 -107t-130.5 -37q-18 1 -96 1v-54l146 -1q72 -1 130.5 62.5t60.5 145.5zM358 233v14q-1 10 -1 14q0 24 -31.5 56.5t-60.5 32.5l-59 1v-79l-87 -81v-71h129q45 0 79 39q31 35 31 74zM228 448h-51v137h66q26 0 50 -25q21 -23 21 -43
q0 -41 -38 -59q-29 -14 -48 -10zM238 552h-28v-72l40 1q13 0 21.5 11.5t8.5 24.5q0 35 -42 35z" />
    <glyph glyph-name="c" unicode="c" horiz-adv-x="670" 
d="M602 82q-45 -48 -120 -76q-66 -25 -126 -25q-148 0 -253 106t-105 250q0 148 108 249q105 98 250 98q132 0 238 -89q-3 -8 -78 -90q-19 13 -49 32q-54 23 -74 24h-42v-83q-66 -7 -106 -51q-36 -41 -36 -97q0 -33 15 -66q20 -42 55 -62h-114l11 -11q22 -40 80 -67
q52 -24 100 -24q47 0 116 32q10 5 38 27zM550 86q-13 11 -37 34q-70 -50 -159 -50q-108 0 -186.5 76t-78.5 188q0 136 119 216q39 26 52 26q6 0 8 -2v-26q-69 -28 -111 -95q-36 -59 -36 -117q0 -41 25 -104h58q-19 36 -24 54q-3 14 -3 46q0 64 39.5 113t102.5 61v87h24
q15 -1 17 -1q71 0 149 -43q13 12 33 38q-92 61 -184 61q-127 0 -223 -88q-99 -92 -101 -223q-2 -92 44 -168q43 -70 118 -114q69 -40 157 -40q47 0 108 20q65 22 89 51z" />
    <glyph glyph-name="d" unicode="d" horiz-adv-x="634" 
d="M567 342q0 -59 -21 -119q-26 -75 -76 -126q-57 -57 -119 -78q-53 -19 -135 -19h-214v672h249q134 0 225 -97.5t91 -232.5zM530 342q4 111 -79 202q-86 96 -205 96h-206v-607h50l-1 552h37v-348l54 50v298q16 2 33 2q98 0 169 -52q89 -67 91 -195q2 -117 -93 -193
q-82 -66 -170 -63q-74 2 -84 0v-50l133 -1q25 -1 81 20q86 33 140 123q47 80 50 166zM437 338q0 96 -62.5 156t-161.5 58v-281l-87 -77q-3 -66 1 -73h103q89 7 148 72t59 145z" />
    <glyph glyph-name="e" unicode="e" horiz-adv-x="566" 
d="M486 673l-111 -117h-162v-230l175 1l-108 -122h-158v-88l373 -1l-97 -116h-394v673h482zM418 643h-382v-614h342l53 59h-338v497l31 1l-1 -349h148l52 60h-142l-1 288h177z" />
    <glyph glyph-name="f" unicode="f" horiz-adv-x="548" 
d="M486 672l-111 -115h-164v-229h173l-114 -119l-147 -1v-211h-119v675h482zM418 642h-383v-614h59l1 556l27 -1v-345h135l65 61h-142v285h180z" />
    <glyph glyph-name="g" unicode="g" horiz-adv-x="794" 
d="M382 -15h-24q-149 0 -253 101t-103 253q2 163 112 261q100 90 244 88q90 -2 167 -38q63 -30 79 -61q-26 -26 -78 -79q-70 70 -168 66v-83q-61 -7 -103 -51.5t-42 -98.5q0 -36 16 -77.5t34 -59.5q-87 3 -92 0q18 -46 79 -77q50 -26 91 -26q142 0 206 96q-4 5 -3 6q0 1 3 0
q1 0 3 -1h-133l-98 119h394q0 -130 -100 -234t-231 -104zM679 294h-296l51 -61h168q-25 -76 -101 -119q-68 -39 -153 -39q-99 0 -177 79.5t-78 180.5q0 81 39 145q46 75 139 110v-36q-70 -22 -111 -92q-35 -60 -35 -122q0 -64 31 -104h56q-29 43 -29 106q0 59 44.5 113.5
t103.5 59.5v91q80 2 133 -21q14 -6 62 -38q41 39 39 41q-66 70 -207 70t-232 -95t-91 -230q0 -140 106 -232q101 -87 239 -87q107 0 197 83t102 197z" />
    <glyph glyph-name="h" unicode="h" horiz-adv-x="573" 
d="M490 0h-118v199h-252v-198h-118v671h205v-352h162v352h121v-672zM459 28l1 609h-60l1 -346h-225v353h-142v-614h54l1 555h30v-357h283v-200h57z" />
    <glyph glyph-name="i" unicode="i" horiz-adv-x="299" 
d="M217 268l-90 -74l2 -195h-124v673h212v-404zM182 285v351h-140v-605h52l1 565h34v-357z" />
    <glyph glyph-name="j" unicode="j" horiz-adv-x="524" 
d="M446 223q0 -92 -72 -164t-163 -72q-63 0 -122 27q-65 29 -95 79q1 3 93 95q46 -77 117 -77q37 0 77.5 33.5t38.5 64.5v64q-31 -30 -90 -83v483h216v-450zM412 225v411h-145v-369q19 20 53 50q-1 18 -1 265q14 9 34 0v-364q0 -55 -46 -96.5t-107 -41.5q-70 0 -120 57
q-16 -15 -38 -42q59 -74 162 -74q83 0 145.5 60.5t62.5 143.5z" />
    <glyph glyph-name="k" unicode="k" horiz-adv-x="572" 
d="M505 673l-150 -206l165 -469h-136l-129 345q-68 -83 -136 -174v-170h-121v673h216l-1 -179l142 180h150zM470 33l-159 443l127 162h-68l-185 -230q-2 -2 -5 4v224h-148v-601h54v545l34 -1v-349l148 185l140 -382h62z" />
    <glyph glyph-name="l" unicode="l" horiz-adv-x="543" 
d="M483 118l-117 -118h-363v672h211v-389l-87 -94l-1 -71h357zM404 84h-311v496h36v-337l51 57v336h-140v-602h315z" />
    <glyph glyph-name="m" unicode="m" horiz-adv-x="774" 
d="M689 0h-216l1 162l-130 -177l-216 289v-274h-122v684l341 -476l342 471v-679zM655 34l1 533q-98 -126 -311 -422l-303 422v-530h50v355l255 -347l252 344v-299h-38v185l-55 -71v-170h149z" />
    <glyph glyph-name="n" unicode="n" horiz-adv-x="581" 
d="M494 -15l-369 369v-351h-123v675l280 -284v278h212v-687zM459 77v557h-141v-268l53 -53v271h38v-367l-368 369v-549h50v407z" />
    <glyph glyph-name="o" unicode="o" horiz-adv-x="796" 
d="M712 339q0 -150 -103.5 -251.5t-250.5 -101.5q-148 0 -253.5 101.5t-105.5 250.5q0 154 110 256q105 96 252 96q146 0 248.5 -102.5t102.5 -248.5zM674 339q0 132 -92 224.5t-224 92.5q-134 0 -228 -92.5t-94 -225.5q0 -132 94.5 -225t224.5 -93q135 0 227 92.5t92 226.5
zM623 339q0 -113 -78.5 -189t-188.5 -76q-111 0 -188.5 78t-77.5 186q0 77 42 143q49 75 135 106q1 -12 1 -36q-63 -19 -103 -79.5t-40 -133.5q0 -33 12 -63l16 -34q36 -2 47 0q-26 52 -26 109q0 56 35 100q40 47 112 65q0 -1 0 85q20 5 60 1q45 -4 77 -16q81 -30 126 -109
q39 -67 39 -137zM591 339q0 60 -37 121q-42 71 -110 95q-31 11 -87 11v-83q-72 -4 -111 -47q-34 -38 -34 -95q0 -91 64 -135q-43 -1 -69 0q-19 0 -29 1.5l-10 1.5q28 -47 92 -77q55 -26 99 -26q94 0 163 69.5t69 163.5z" />
    <glyph glyph-name="p" unicode="p" horiz-adv-x="581" 
d="M505 433q5 -83 -53 -156q-64 -82 -163 -82h-157v-198h-128v674l242 2q112 0 182 -66t77 -174zM463 432q-5 89 -64.5 147.5t-147.5 58.5l-210 -1v-606h55v551h37v-350l162 -1q71 0 121.5 61t46.5 140zM407 433q0 -74 -47 -115q-41 -36 -97 -36l-79 2v298l81 1q44 1 89 -39
q53 -45 53 -111zM364 432q0 58 -38 88q-32 26 -83 26q-10 0 -20 -1q0 -87 -1 -133q-1 -35 -1 -91q58 -5 97 19q46 30 46 92z" />
    <glyph glyph-name="q" unicode="q" horiz-adv-x="796" 
d="M714 335q0 -64 -15 -106.5t-54 -92.5q3 0 61 -60l-94 -87q-55 52 -62 52q-2 0 -34 -16l-36 -18q-51 -20 -128 -20q-143 0 -249 102t-106 244q0 151 103 254t254 106q160 2 261 -103q99 -101 99 -255zM587 338q0 95 -68 163t-163 67q-1 -27 -1 -83l-2 -2
q-63 -7 -102 -45.5t-39 -101.5q0 -68 70 -125h-116q25 -49 82 -78q52 -26 107 -26q22 0 57 8q45 10 46 23l-174 180l4 4q63 -1 170 -1l95 -95q34 44 34 112zM678 338q0 133 -93 228q-96 96 -228 91q-136 -4 -229.5 -96t-93.5 -225t94 -224t227 -91q75 0 123 24q10 5 72 39
l60 -52l47 44l-211 210h-86l156 -157q-68 -54 -161 -54q-111 0 -188.5 76t-77.5 187q0 85 48.5 154t129.5 94v-35q-41 -10 -85 -59q-59 -66 -59 -154q0 -65 24 -96l63 1q-33 55 -33 96q0 64 42 112q39 46 103 64q-1 28 0 85q6 3 27 3q113 0 193 -76.5t80 -188.5
q0 -78 -43 -135q43 -44 43 -47q56 74 56 182z" />
    <glyph glyph-name="r" unicode="r" horiz-adv-x="560" 
d="M495 1h-181l-194 201v-200h-118v671h241q15 0 49 -8q91 -21 144 -92q46 -64 46 -140q0 -121 -82 -183q-47 -35 -111 -45zM444 435q0 87 -65 146t-153 59h-188v-602h51l-2 546l36 -1v-330l208 -215h73l-193 198q31 2 61 4q69 11 112 47q60 52 60 148zM390 438
q0 -62 -37 -104q-39 -45 -101 -45l-75 1v294q-3 -1 43 -1q74 0 121.5 -40.5t48.5 -104.5zM353 440q-2 44 -32.5 75t-72.5 31h-35v-222h39q38 0 70.5 36t30.5 80z" />
    <glyph glyph-name="s" unicode="s" horiz-adv-x="508" 
d="M432 230q0 -105 -68 -170.5t-172 -65.5q-124 0 -198 106l92 91q14 -30 42.5 -53t60.5 -23q35 0 69 26.5t41 60.5q-66 3 -95 0q17 8 17 26t-17 27q-20 9 -59 29q-131 73 -131 194q0 91 55.5 145t146.5 58q76 4 140 -53q-3 -10 -77 -91q-32 24 -46 24q-17 0 -31 -12.5
t-14 -29.5q0 -27 26 -36q22 -13 67 -35q151 -63 151 -218zM402 236q0 63 -41 116q-38 48 -100 76q-51 22 -65 32q-37 24 -42 57q-5 32 20 52t59 20q7 0 23.5 -8t18.5 -9l36 50q-48 27 -90 27q-71 0 -123.5 -49.5t-52.5 -120.5q0 -54 29 -94q22 -31 74 -67q33 -16 65 -32
q39 -22 36 -55h58q2 9 2 15q0 45 -54 79l-100 56q-54 38 -54 94q0 1 1 2q24 -44 88 -81q98 -56 103 -59q48 -38 48 -93q0 -61 -43.5 -110.5t-104.5 -49.5q-62 0 -113 60q-16 -13 -43 -42q25 -38 68.5 -59t89.5 -21q84 0 145.5 65t61.5 149z" />
    <glyph glyph-name="t" unicode="t" horiz-adv-x="561" 
d="M480 551h-128v-276l-98 -98v-179h-118l1 555h-133v120h476v-122zM444 583v53h-407v-48h131v-555l55 -1v553h36v-354l58 53v299h127z" />
    <glyph glyph-name="u" unicode="u" horiz-adv-x="570" 
d="M489 202q0 -91 -77 -154q-72 -59 -164 -58q-96 1 -160 59q-48 43 -71 111q-19 53 -14 74v439h210v-475l-87 89l-1 -53q0 -44 38.5 -84t81.5 -40q41 0 81 38t40 75v448h123v-469zM453 202v435h-50v-425q0 -55 -50 -97t-105 -42q-58 0 -107 46t-49 103v365l35 1l1 -254
l50 -52v357l-139 1l-1 -379q0 -96 52 -161q58 -73 160 -73q72 0 135 51q68 54 68 124z" />
    <glyph glyph-name="v" unicode="v" horiz-adv-x="557" 
d="M486 672l-259 -680l-231 680h218l67 -187l73 187h132zM437 643h-56l-148 -390l-119 338h35l82 -238l32 75l-73 213h-148l188 -550z" />
    <glyph glyph-name="w" unicode="w" horiz-adv-x="775" 
d="M694 672l-238 -678l-114 306l-122 -309l-228 681h226l59 -165l68 170l114 -297l99 292h136zM640 635l-50 1l-131 -367l-114 301l-122 -304l-111 320h41l73 -215l32 82l-71 185l-144 1l180 -540l119 312l114 -304z" />
    <glyph glyph-name="x" unicode="x" horiz-adv-x="581" 
d="M505 673l-176 -334l170 -336l-149 -1l-96 195l-116 -195h-143l121 221l-67 73l82 140l-119 236h147l48 -95l55 96h243zM445 637l-160 1l-78 -139l-72 142h-64l101 -203l-80 -139l40 -44l185 329l42 2l-303 -549l60 1l138 239l122 -240h67l-156 304z" />
    <glyph glyph-name="y" unicode="y" horiz-adv-x="556" 
d="M235 0h-131l78 206l-178 466h131l70 -178l69 178h217zM440 637h-146l-91 -226l-91 227h-58l149 -373l125 316h37l-210 -547h54z" />
    <glyph glyph-name="z" unicode="z" horiz-adv-x="565" 
d="M495 672l-297 -554h270l-103 -117h-362l114 222l-68 68l148 265h-161l100 116h359zM435 641h-290l-46 -55h150l-161 -289l45 -44l183 335h33l-292 -556h297l55 57l-264 2zM7996 89z" />
    <glyph glyph-name="braceleft" unicode="{" horiz-adv-x="491" 
d="M242 -45h141v43h-89l1 676h88v40h-141l1 -326q-29 87 -110 83q-40 -2 -65 -40t-25 -86q0 -49 22 -84q25 -39 68 -42q35 -3 63 22q15 13 47 58zM133 511q29 -1 40 -4q20 -5 32 -21v264h212l1 -107h-88v-617h86l1 -107h-212v285q-18 -23 -72 -25q-58 -2 -96 51
q-34 49 -34 115q0 67 34 115q38 54 96 51z" />
    <glyph glyph-name="bar" unicode="|" horiz-adv-x="205" 
d="M159 672h-124v-673h124v597h-34l-1 -565h-52v605h87v36z" />
    <glyph glyph-name="braceright" unicode="}" horiz-adv-x="491" 
d="M177 -45h-141l-1 43h89l-1 676h-88l1 40h141l-2 -326q29 87 110 83q41 -2 66 -40t25 -86q0 -49 -23 -84q-25 -38 -68 -42q-35 -3 -63 21q-14 13 -47 59zM285 511q-29 -1 -40 -4q-19 -5 -32 -21l1 264h-213v-107h88v-617h-87l-1 -107h213l-1 285q18 -23 72 -25
q59 -2 96 51q35 49 35 115q0 67 -35 116q-37 53 -96 50z" />
    <glyph glyph-name="asciitilde" unicode="~" horiz-adv-x="377" 
d="M331 743q-45 -40 -113 -40q-16 0 -46 8t-44 8q-27 0 -26 -16l-81 56q31 37 109 37q16 0 45 -7t42 -7q20 0 31 15zM289 746l-39 27q-12 -10 -33 -10q-15 0 -43 7.5t-45 7.5q-53 0 -66 -19q11 -8 38 -26q9 6 22 6q17 0 46.5 -8t47.5 -8q17 0 42.5 6.5t29.5 16.5z" />
    <glyph glyph-name="Adieresis" unicode="&#xc4;" horiz-adv-x="653" 
d="M580 0l-228 1l-93 200l-41 -2l-91 -199h-133l298 681zM528 34l-236 559l-249 -559h62l182 421l172 -374l-40 1l-132 282l-56 -132l51 -1l93 -198zM404 751q0 -29 -30 -29t-30 30q0 28 31 28q29 0 29 -29zM426 749q0 22 -15.5 38t-36.5 16q-23 0 -38 -15t-15 -38
q0 -22 15.5 -37t38.5 -15q21 0 36 15t15 36zM244 751q0 -29 -30 -29t-30 30q0 28 31 28q29 0 29 -29zM266 749q0 22 -15.5 38t-36.5 16q-23 0 -38 -15t-15 -38q0 -22 15.5 -37t38.5 -15q21 0 36 15t15 36z" />
    <glyph glyph-name="Aring" unicode="&#xc5;" horiz-adv-x="646" 
d="M580 0l-228 1l-93 200l-41 -2l-91 -199h-133l298 681zM528 34l-236 559l-249 -559h62l182 421l172 -374l-40 1l-132 282l-56 -132l51 -1l93 -198zM321 771q0 -15 -10.5 -25.5t-26.5 -10.5q-15 0 -26 11t-11 27q0 15 11.5 25t27.5 10q14 0 24.5 -11t10.5 -26zM349 769
q0 27 -19 47t-46 20q-28 0 -47 -18.5t-19 -47.5q0 -27 19.5 -46t47.5 -19q26 0 45 19t19 45z" />
    <glyph glyph-name="Ccedilla" unicode="&#xc7;" horiz-adv-x="659" 
d="M595 73q-86 -77 -184 -83l-76 -89h-170q30 29 84 94q-118 33 -182.5 122t-64.5 211q0 146 104 249t250 103q59 0 124.5 -24.5t106.5 -63.5q-26 -33 -82 -93q-55 56 -147 60v-90q-39 -6 -67 -22q-67 -38 -70 -121q-2 -73 74 -120h-128q23 -45 84 -76q58 -30 106 -27
q89 4 149 54zM544 75q-13 14 -41 39q-64 -46 -148 -46q-106 0 -184 77t-78 184q0 85 49 151q46 63 123 93q-1 -8 -1 -38q-57 -21 -97 -80t-40 -121q0 -67 23 -95q47 -3 66 0q-29 39 -29 89q0 87 66 133q35 18 71 36v90l19 3q10 1 20 1q73 0 138 -49q2 0 41 46
q-83 59 -189 59q-130 0 -223.5 -93t-93.5 -223q0 -124 79 -211q76 -84 201 -108l-75 -81h76q70 82 74.5 79.5t62.5 17.5q66 23 90 47z" />
    <glyph glyph-name="Eacute" unicode="&#xc9;" horiz-adv-x="566" 
d="M486 673l-111 -117h-162v-230l175 1l-108 -122h-158v-88l373 -1l-97 -116h-394v673h482zM418 643h-382v-614h342l53 59h-338v497l31 1l-1 -349h148l52 60h-142l-1 288h177zM253 701h-83l103 127h108zM331 807h-48l-72 -85h32z" />
    <glyph glyph-name="Ntilde" unicode="&#xd1;" horiz-adv-x="581" 
d="M494 -15l-369 369v-351h-123v675l280 -284v278h212v-687zM459 77v557h-141v-268l53 -53v271h38v-367l-368 369v-549h50v407zM202 746l-64 -41l-39 49l115 70l56 -43l68 45l39 -54l-119 -71zM213 801l-81 -49l14 -18l60 37l58 -46l84 54l-12 19l-67 -41z" />
    <glyph glyph-name="Odieresis" unicode="&#xd6;" horiz-adv-x="581" 
d="M494 -15l-369 369v-351h-123v675l280 -284v278h212v-687zM459 77v557h-141v-268l53 -53v271h38v-367l-368 369v-549h50v407zM202 746l-64 -41l-39 49l115 70l56 -43l68 45l39 -54l-119 -71zM213 801l-81 -49l14 -18l60 37l58 -46l84 54l-12 19l-67 -41z" />
    <glyph glyph-name="Udieresis" unicode="&#xdc;" horiz-adv-x="570" 
d="M489 202q0 -91 -77 -154q-72 -59 -164 -58q-96 1 -160 59q-48 43 -71 111q-19 53 -14 74v439h210v-475l-87 89l-1 -53q0 -44 38.5 -84t81.5 -40q41 0 81 38t40 75v448h123v-469zM453 202v435h-50v-425q0 -55 -50 -97t-105 -42q-58 0 -107 46t-49 103v365l35 1l1 -254
l50 -52v357l-139 1l-1 -379q0 -96 52 -161q58 -73 160 -73q72 0 135 51q68 54 68 124zM354 751q0 -29 -30 -29t-30 30q0 28 31 28q29 0 29 -29zM376 749q0 22 -15.5 38t-36.5 16q-23 0 -38 -15t-15 -38q0 -22 15.5 -37t38.5 -15q21 0 36 15t15 36zM194 751q0 -29 -30 -29
t-30 30q0 28 31 28q29 0 29 -29zM216 749q0 22 -15.5 38t-36.5 16q-23 0 -38 -15t-15 -38q0 -22 15.5 -37t38.5 -15q21 0 36 15t15 36z" />
    <glyph glyph-name="aacute" unicode="&#xe1;" horiz-adv-x="653" 
d="M580 0l-228 1l-93 200l-41 -2l-91 -199h-133l298 681zM528 34l-236 559l-249 -559h62l182 421l172 -374l-40 1l-132 282l-56 -132l51 -1l93 -198zM273 701h-83l103 127h108zM351 807h-48l-72 -85h32z" />
    <glyph glyph-name="agrave" unicode="&#xe0;" horiz-adv-x="653" 
d="M580 0l-228 1l-93 200l-41 -2l-91 -199h-133l298 681zM528 34l-236 559l-249 -559h62l182 421l172 -374l-40 1l-132 282l-56 -132l51 -1l93 -198zM258 701h83l-103 127h-108zM180 807h48l72 -85h-32z" />
    <glyph glyph-name="acircumflex" unicode="&#xe2;" horiz-adv-x="653" 
d="M580 0l-228 1l-93 200l-41 -2l-91 -199h-133l298 681zM528 34l-236 559l-249 -559h62l182 421l172 -374l-40 1l-132 282l-56 -132l51 -1l93 -198zM420 753l-55 -58l-81 44l-75 -46l-57 60l129 83zM379 747l-98 59l-93 -59l25 -24l71 45l75 -42z" />
    <glyph glyph-name="adieresis" unicode="&#xe4;" horiz-adv-x="653" 
d="M580 0l-228 1l-93 200l-41 -2l-91 -199h-133l298 681zM528 34l-236 559l-249 -559h62l182 421l172 -374l-40 1l-132 282l-56 -132l51 -1l93 -198zM404 751q0 -29 -30 -29t-30 30q0 28 31 28q29 0 29 -29zM426 749q0 22 -15.5 38t-36.5 16q-23 0 -38 -15t-15 -38
q0 -22 15.5 -37t38.5 -15q21 0 36 15t15 36zM244 751q0 -29 -30 -29t-30 30q0 28 31 28q29 0 29 -29zM266 749q0 22 -15.5 38t-36.5 16q-23 0 -38 -15t-15 -38q0 -22 15.5 -37t38.5 -15q21 0 36 15t15 36z" />
    <glyph glyph-name="atilde" unicode="&#xe3;" horiz-adv-x="653" 
d="M580 0l-228 1l-93 200l-41 -2l-91 -199h-133l298 681zM528 34l-236 559l-249 -559h62l182 421l172 -374l-40 1l-132 282l-56 -132l51 -1l93 -198zM252 746l-64 -41l-39 49l115 70l56 -43l68 45l39 -54l-119 -71zM263 801l-81 -49l14 -18l60 37l58 -46l84 54l-12 19
l-67 -41z" />
    <glyph glyph-name="aring" unicode="&#xe5;" horiz-adv-x="646" 
d="M580 0l-228 1l-93 200l-41 -2l-91 -199h-133l298 681zM528 34l-236 559l-249 -559h62l182 421l172 -374l-40 1l-132 282l-56 -132l51 -1l93 -198zM321 771q0 -15 -10.5 -25.5t-26.5 -10.5q-15 0 -26 11t-11 27q0 15 11.5 25t27.5 10q14 0 24.5 -11t10.5 -26zM349 769
q0 27 -19 47t-46 20q-28 0 -47 -18.5t-19 -47.5q0 -27 19.5 -46t47.5 -19q26 0 45 19t19 45z" />
    <glyph glyph-name="ccedilla" unicode="&#xe7;" horiz-adv-x="659" 
d="M595 73q-86 -77 -184 -83l-76 -89h-170q30 29 84 94q-118 33 -182.5 122t-64.5 211q0 146 104 249t250 103q59 0 124.5 -24.5t106.5 -63.5q-26 -33 -82 -93q-55 56 -147 60v-90q-39 -6 -67 -22q-67 -38 -70 -121q-2 -73 74 -120h-128q23 -45 84 -76q58 -30 106 -27
q89 4 149 54zM544 75q-13 14 -41 39q-64 -46 -148 -46q-106 0 -184 77t-78 184q0 85 49 151q46 63 123 93q-1 -8 -1 -38q-57 -21 -97 -80t-40 -121q0 -67 23 -95q47 -3 66 0q-29 39 -29 89q0 87 66 133q35 18 71 36v90l19 3q10 1 20 1q73 0 138 -49q2 0 41 46
q-83 59 -189 59q-130 0 -223.5 -93t-93.5 -223q0 -124 79 -211q76 -84 201 -108l-75 -81h76q70 82 74.5 79.5t62.5 17.5q66 23 90 47z" />
    <glyph glyph-name="eacute" unicode="&#xe9;" horiz-adv-x="566" 
d="M486 673l-111 -117h-162v-230l175 1l-108 -122h-158v-88l373 -1l-97 -116h-394v673h482zM418 643h-382v-614h342l53 59h-338v497l31 1l-1 -349h148l52 60h-142l-1 288h177zM253 701h-83l103 127h108zM331 807h-48l-72 -85h32z" />
    <glyph glyph-name="egrave" unicode="&#xe8;" horiz-adv-x="566" 
d="M486 673l-111 -117h-162v-230l175 1l-108 -122h-158v-88l373 -1l-97 -116h-394v673h482zM418 643h-382v-614h342l53 59h-338v497l31 1l-1 -349h148l52 60h-142l-1 288h177zM258 701h83l-103 127h-108zM180 807h48l72 -85h-32z" />
    <glyph glyph-name="ecircumflex" unicode="&#xea;" horiz-adv-x="566" 
d="M486 673l-111 -117h-162v-230l175 1l-108 -122h-158v-88l373 -1l-97 -116h-394v673h482zM418 643h-382v-614h342l53 59h-338v497l31 1l-1 -349h148l52 60h-142l-1 288h177zM380 753l-55 -58l-81 44l-75 -46l-57 60l129 83zM339 747l-98 59l-93 -59l25 -24l71 45l75 -42z
" />
    <glyph glyph-name="edieresis" unicode="&#xeb;" horiz-adv-x="566" 
d="M486 673l-111 -117h-162v-230l175 1l-108 -122h-158v-88l373 -1l-97 -116h-394v673h482zM418 643h-382v-614h342l53 59h-338v497l31 1l-1 -349h148l52 60h-142l-1 288h177zM354 751q0 -29 -30 -29t-30 30q0 28 31 28q29 0 29 -29zM376 749q0 22 -15.5 38t-36.5 16
q-23 0 -38 -15t-15 -38q0 -22 15.5 -37t38.5 -15q21 0 36 15t15 36zM194 751q0 -29 -30 -29t-30 30q0 28 31 28q29 0 29 -29zM216 749q0 22 -15.5 38t-36.5 16q-23 0 -38 -15t-15 -38q0 -22 15.5 -37t38.5 -15q21 0 36 15t15 36z" />
    <glyph glyph-name="iacute" unicode="&#xed;" horiz-adv-x="299" 
d="M217 268l-90 -74l2 -195h-124v673h212v-404zM182 285v351h-140v-605h52l1 565h34v-357zM103 701h-83l103 127h108zM181 807h-48l-72 -85h32z" />
    <glyph glyph-name="igrave" unicode="&#xec;" horiz-adv-x="299" 
d="M217 268l-90 -74l1 -195h-123v673h212v-404zM182 285v351h-140v-605h52l1 565h34v-357zM128 701h83l-103 127h-108zM50 807h48l72 -85h-32z" />
    <glyph glyph-name="icircumflex" unicode="&#xee;" horiz-adv-x="299" 
d="M217 268l-90 -74l2 -195h-124v673h212v-404zM182 285v351h-140v-605h52l1 565h34v-357zM248 753l-55 -58l-81 44l-75 -46l-57 60l129 83zM206 752l-97 54l-88 -57l20 -26l71 45l75 -42z" />
    <glyph glyph-name="idieresis" unicode="&#xef;" horiz-adv-x="299" 
d="M217 268l-90 -74l2 -195h-124v673h212v-404zM182 285v351h-140v-605h52l1 565h34v-357zM214 761q0 -29 -30 -29t-30 30q0 28 31 28q29 0 29 -29zM236 759q0 22 -15.5 38t-36.5 16q-23 0 -38 -15t-15 -38q0 -22 15.5 -37t38.5 -15q21 0 36 15t15 36zM54 761q0 -29 -30 -29
t-30 30q0 28 31 28q29 0 29 -29zM76 759q0 22 -15.5 38t-36.5 16q-23 0 -38 -15t-15 -38q0 -22 15.5 -37t38.5 -15q21 0 36 15t15 36z" />
    <glyph glyph-name="ntilde" unicode="&#xf1;" horiz-adv-x="581" 
d="M494 -15l-369 369v-351h-123v675l280 -284v278h212v-687zM459 77v557h-141v-268l53 -53v271h38v-367l-368 369v-549h50v407zM202 746l-64 -41l-39 49l115 70l56 -43l68 45l39 -54l-119 -71zM213 801l-81 -49l14 -18l60 37l58 -46l84 54l-12 19l-67 -41z" />
    <glyph glyph-name="oacute" unicode="&#xf3;" horiz-adv-x="796" 
d="M712 339q0 -150 -103.5 -251.5t-250.5 -101.5q-148 0 -253.5 101.5t-105.5 250.5q0 154 110 256q105 96 252 96q146 0 248.5 -102.5t102.5 -248.5zM674 339q0 132 -92 224.5t-224 92.5q-134 0 -228 -92.5t-94 -225.5q0 -132 94.5 -225t224.5 -93q135 0 227 92.5t92 226.5
zM623 339q0 -113 -78.5 -189t-188.5 -76q-111 0 -188.5 78t-77.5 186q0 77 42 143q49 75 135 106q1 -12 1 -36q-63 -19 -103 -79.5t-40 -133.5q0 -33 12 -63l16 -34q36 -2 47 0q-26 52 -26 109q0 56 35 100q40 47 112 65q0 -1 0 85q20 5 60 1q45 -4 77 -16q81 -30 126 -109
q39 -67 39 -137zM591 339q0 60 -37 121q-42 71 -110 95q-31 11 -87 11v-83q-72 -4 -111 -47q-34 -38 -34 -95q0 -91 64 -135q-43 -1 -69 0q-19 0 -29 1.5l-10 1.5q28 -47 92 -77q55 -26 99 -26q94 0 163 69.5t69 163.5zM363 711h-83l103 127h108zM441 817h-48l-72 -85h32z
" />
    <glyph glyph-name="ograve" unicode="&#xf2;" horiz-adv-x="796" 
d="M712 339q0 -150 -103.5 -251.5t-250.5 -101.5q-148 0 -253.5 101.5t-105.5 250.5q0 154 110 256q105 96 252 96q146 0 248.5 -102.5t102.5 -248.5zM674 339q0 132 -92 224.5t-224 92.5q-134 0 -228 -92.5t-94 -225.5q0 -132 94.5 -225t224.5 -93q135 0 227 92.5t92 226.5
zM623 339q0 -113 -78.5 -189t-188.5 -76q-111 0 -188.5 78t-77.5 186q0 77 42 143q49 75 135 106q1 -12 1 -36q-63 -19 -103 -79.5t-40 -133.5q0 -33 12 -63l16 -34q36 -2 47 0q-26 52 -26 109q0 56 35 100q40 47 112 65q0 -1 0 85q20 5 60 1q45 -4 77 -16q81 -30 126 -109
q39 -67 39 -137zM591 339q0 60 -37 121q-42 71 -110 95q-31 11 -87 11v-83q-72 -4 -111 -47q-34 -38 -34 -95q0 -91 64 -135q-43 -1 -69 0q-19 0 -29 1.5l-10 1.5q28 -47 92 -77q55 -26 99 -26q94 0 163 69.5t69 163.5zM358 711h83l-103 127h-108zM280 817h48l72 -85h-32z
" />
    <glyph glyph-name="ocircumflex" unicode="&#xf4;" horiz-adv-x="796" 
d="M712 339q0 -150 -103.5 -251.5t-250.5 -101.5q-148 0 -253.5 101.5t-105.5 250.5q0 154 110 256q105 96 252 96q146 0 248.5 -102.5t102.5 -248.5zM674 339q0 132 -92 224.5t-224 92.5q-134 0 -228 -92.5t-94 -225.5q0 -132 94.5 -225t224.5 -93q135 0 227 92.5t92 226.5
zM623 339q0 -113 -78.5 -189t-188.5 -76q-111 0 -188.5 78t-77.5 186q0 77 42 143q49 75 135 106q1 -12 1 -36q-63 -19 -103 -79.5t-40 -133.5q0 -33 12 -63l16 -34q36 -2 47 0q-26 52 -26 109q0 56 35 100q40 47 112 65q0 -1 0 85q20 5 60 1q45 -4 77 -16q81 -30 126 -109
q39 -67 39 -137zM591 339q0 60 -37 121q-42 71 -110 95q-31 11 -87 11v-83q-72 -4 -111 -47q-34 -38 -34 -95q0 -91 64 -135q-43 -1 -69 0q-19 0 -29 1.5l-10 1.5q28 -47 92 -77q55 -26 99 -26q94 0 163 69.5t69 163.5zM488 763l-55 -58l-81 44l-75 -46l-57 60l129 83z
M446 762l-97 54l-88 -57l20 -26l71 45l75 -42z" />
    <glyph glyph-name="odieresis" unicode="&#xf6;" horiz-adv-x="796" 
d="M712 339q0 -150 -103.5 -251.5t-250.5 -101.5q-148 0 -253.5 101.5t-105.5 250.5q0 154 110 256q105 96 252 96q146 0 248.5 -102.5t102.5 -248.5zM674 339q0 132 -92 224.5t-224 92.5q-134 0 -228 -92.5t-94 -225.5q0 -132 94.5 -225t224.5 -93q135 0 227 92.5t92 226.5
zM623 339q0 -113 -78.5 -189t-188.5 -76q-111 0 -188.5 78t-77.5 186q0 77 42 143q49 75 135 106q1 -12 1 -36q-63 -19 -103 -79.5t-40 -133.5q0 -33 12 -63l16 -34q36 -2 47 0q-26 52 -26 109q0 56 35 100q40 47 112 65q0 -1 0 85q20 5 60 1q45 -4 77 -16q81 -30 126 -109
q39 -67 39 -137zM591 339q0 60 -37 121q-42 71 -110 95q-31 11 -87 11v-83q-72 -4 -111 -47q-34 -38 -34 -95q0 -91 64 -135q-43 -1 -69 0q-19 0 -29 1.5l-10 1.5q28 -47 92 -77q55 -26 99 -26q94 0 163 69.5t69 163.5zM464 761q0 -29 -30 -29t-30 30q0 28 31 28
q29 0 29 -29zM486 759q0 22 -15.5 38t-36.5 16q-23 0 -38 -15t-15 -38q0 -22 15.5 -37t38.5 -15q21 0 36 15t15 36zM304 761q0 -29 -30 -29t-30 30q0 28 31 28q29 0 29 -29zM326 759q0 22 -15.5 38t-36.5 16q-23 0 -38 -15t-15 -38q0 -22 15.5 -37t38.5 -15q21 0 36 15
t15 36z" />
    <glyph glyph-name="otilde" unicode="&#xf5;" horiz-adv-x="796" 
d="M712 339q0 -150 -103.5 -251.5t-250.5 -101.5q-148 0 -253.5 101.5t-105.5 250.5q0 154 110 256q105 96 252 96q146 0 248.5 -102.5t102.5 -248.5zM674 339q0 132 -92 224.5t-224 92.5q-134 0 -228 -92.5t-94 -225.5q0 -132 94.5 -225t224.5 -93q135 0 227 92.5t92 226.5
zM623 339q0 -113 -78.5 -189t-188.5 -76q-111 0 -188.5 78t-77.5 186q0 77 42 143q49 75 135 106q1 -12 1 -36q-63 -19 -103 -79.5t-40 -133.5q0 -33 12 -63l16 -34q36 -2 47 0q-26 52 -26 109q0 56 35 100q40 47 112 65q0 -1 0 85q20 5 60 1q45 -4 77 -16q81 -30 126 -109
q39 -67 39 -137zM591 339q0 60 -37 121q-42 71 -110 95q-31 11 -87 11v-83q-72 -4 -111 -47q-34 -38 -34 -95q0 -91 64 -135q-43 -1 -69 0q-19 0 -29 1.5l-10 1.5q28 -47 92 -77q55 -26 99 -26q94 0 163 69.5t69 163.5zM322 756l-64 -41l-39 49l115 70l56 -43l68 45l39 -54
l-119 -71zM333 811l-81 -49l14 -18l60 37l58 -46l84 54l-12 19l-67 -41z" />
    <glyph glyph-name="uacute" unicode="&#xfa;" horiz-adv-x="570" 
d="M489 202q0 -91 -77 -154q-72 -59 -164 -58q-96 1 -160 59q-48 43 -71 111q-19 53 -14 74v439h210v-475l-87 89l-1 -53q0 -44 38.5 -84t81.5 -40q41 0 81 38t40 75v448h123v-469zM453 202v435h-50v-425q0 -55 -50 -97t-105 -42q-58 0 -107 46t-49 103v365l35 1l1 -254
l50 -52v357l-139 1l-1 -379q0 -96 52 -161q58 -73 160 -73q72 0 135 51q68 54 68 124zM253 701h-83l103 127h108zM331 807h-48l-72 -85h32z" />
    <glyph glyph-name="ugrave" unicode="&#xf9;" horiz-adv-x="570" 
d="M489 202q0 -91 -77 -154q-72 -59 -164 -58q-96 1 -160 59q-48 43 -71 111q-19 53 -14 74v439h210v-475l-87 89l-1 -53q0 -44 38.5 -84t81.5 -40q41 0 81 38t40 75v448h123v-469zM453 202v435h-50v-425q0 -55 -50 -97t-105 -42q-58 0 -107 46t-49 103v365l35 1l1 -254
l50 -52v357l-139 1l-1 -379q0 -96 52 -161q58 -73 160 -73q72 0 135 51q68 54 68 124zM248 701h83l-103 127h-108zM170 807h48l72 -85h-32z" />
    <glyph glyph-name="ucircumflex" unicode="&#xfb;" horiz-adv-x="570" 
d="M489 202q0 -91 -77 -154q-72 -59 -164 -58q-96 1 -160 59q-48 43 -71 111q-19 53 -14 74v439h210v-475l-87 89l-1 -53q0 -44 38.5 -84t81.5 -40q41 0 81 38t40 75v448h123v-469zM453 202v435h-50v-425q0 -55 -50 -97t-105 -42q-58 0 -107 46t-49 103v365l35 1l1 -254
l50 -52v357l-139 1l-1 -379q0 -96 52 -161q58 -73 160 -73q72 0 135 51q68 54 68 124zM388 753l-55 -58l-81 44l-75 -46l-57 60l129 83zM346 752l-97 54l-88 -57l20 -26l71 45l75 -42z" />
    <glyph glyph-name="udieresis" unicode="&#xfc;" horiz-adv-x="570" 
d="M489 202q0 -91 -77 -154q-72 -59 -164 -58q-96 1 -160 59q-48 43 -71 111q-19 53 -14 74v439h210v-475l-87 89l-1 -53q0 -44 38.5 -84t81.5 -40q41 0 81 38t40 75v448h123v-469zM453 202v435h-50v-425q0 -55 -50 -97t-105 -42q-58 0 -107 46t-49 103v365l35 1l1 -254
l50 -52v357l-139 1l-1 -379q0 -96 52 -161q58 -73 160 -73q72 0 135 51q68 54 68 124zM354 751q0 -29 -30 -29t-30 30q0 28 31 28q29 0 29 -29zM376 749q0 22 -15.5 38t-36.5 16q-23 0 -38 -15t-15 -38q0 -22 15.5 -37t38.5 -15q21 0 36 15t15 36zM194 751q0 -29 -30 -29
t-30 30q0 28 31 28q29 0 29 -29zM216 749q0 22 -15.5 38t-36.5 16q-23 0 -38 -15t-15 -38q0 -22 15.5 -37t38.5 -15q21 0 36 15t15 36z" />
    <glyph glyph-name="dagger" unicode="&#x2020;" horiz-adv-x="11" 
 />
    <glyph glyph-name="degree" unicode="&#xb0;" horiz-adv-x="382" 
d="M155 445q-32 0 -55.5 23.5t-23.5 55.5q0 33 25 54t56 21t53.5 -23t22.5 -54q0 -32 -23 -54.5t-55 -22.5zM155 478q19 0 32 13t13 31q0 17 -13 30.5t-30 13.5q-20 0 -34 -12t-14 -30q0 -19 13.5 -32.5t32.5 -13.5zM154 640q-52 0 -86 -33.5t-34 -86.5q0 -50 36 -84.5
t86 -34.5q48 0 82.5 34.5t34.5 82.5q0 49 -35 85.5t-84 36.5zM154 678q66 0 111.5 -47.5t45.5 -112.5q0 -64 -45.5 -109.5t-109.5 -45.5q-66 0 -113 45.5t-47 111.5q0 68 45.5 113t112.5 45z" />
    <glyph glyph-name="cent" unicode="&#xa2;" horiz-adv-x="364" 
d="M287 107q-7 -14 -27 -26q-31 -19 -32 -20q-1 -19 -1 -63h-122l-2 69q-104 62 -104 159q0 107 106 159v97q-11 1 105 1l17 -4v-91q38 -22 60 -41q-7 -11 -41 -45.5t-42 -35.5q-19 11 -37 11q-21 0 -36 -14.5t-15 -35.5q0 -22 15 -37.5t37 -15.5q18 0 38 15zM238 342
q-15 10 -39 19q-8 4 -8 16q0 2 1 25t1 46h-51q-2 -13 -5 -86l-4 -4q-42 -10 -72.5 -49t-30.5 -82q0 -46 31 -83q28 -34 74 -52q0 -20 4 -60h53q2 15 4 57q14 9 40 21q-14 16 -39 39q-23 -6 -30 -6q-33 0 -58 25t-25 58t25.5 58t58.5 25q6 0 15.5 -3t14.5 -3q6 0 21 17
q10 11 19 22z" />
    <glyph glyph-name="sterling" unicode="&#xa3;" horiz-adv-x="554" 
d="M497 665q-38 -46 -112 -119h-121v-89q-15 2 -35 -13.5t-20 -30.5v-102h183q-37 -40 -113 -119h-159l1 -38q-1 -40 7 -40q2 0 5 3l347 -3l-112 -119h-367v443q0 88 90 162q87 70 177 68zM417 630q-39 2 -119 4q-266 6 -266 -244v-361h321q21 18 56 53l-301 1q-25 0 -24 16
l2 297q1 101 81 150l2 -38q-48 -43 -48 -140v-145h135q23 0 56 55h-137v138q0 16 20 39q16 20 34 31v94h145z" />
    <glyph glyph-name="section" unicode="&#xa7;" horiz-adv-x="17" 
 />
    <glyph glyph-name="bullet" unicode="&#x2022;" horiz-adv-x="392" 
d="M161 467q57 0 97.5 -40.5t40.5 -97.5t-40.5 -97t-97.5 -40t-97 40t-40 97t40 97.5t97 40.5zM161 434q-43 0 -73.5 -30.5t-30.5 -74.5q0 -43 30.5 -73.5t73.5 -30.5t74 30.5t31 73.5q0 44 -31 74.5t-74 30.5z" />
    <glyph glyph-name="paragraph" unicode="&#xb6;" horiz-adv-x="0" 
 />
    <glyph glyph-name="germandbls" unicode="&#xdf;" horiz-adv-x="0" 
 />
    <glyph glyph-name="registered" unicode="&#xae;" horiz-adv-x="425" 
d="M182 322q-75 0 -128 54t-53 130q0 75 53 128t128 53t127.5 -53.5t52.5 -129.5q0 -75 -52.5 -128.5t-127.5 -53.5zM182 643q-58 1 -97 -39.5t-39 -99.5q0 -57 40.5 -98t95.5 -41t95 41t40 98t-40 97t-95 42zM187 600q11 4 32 -2q36 -11 36 -46q0 -45 -44 -54l49 -76h-45
l-49 75h-15v-75h-38v178h74zM188 568h-39v-29h44q25 0 25 18q0 11 -30 11z" />
    <glyph glyph-name="copyright" unicode="&#xa9;" horiz-adv-x="814" 
d="M366 -21q-149 0 -253 104.5t-104 254.5t104 255t253 105t253.5 -105t104.5 -255t-104.5 -254.5t-253.5 -104.5zM366 625q-116 0 -200.5 -84t-84.5 -203t84.5 -202.5t200.5 -83.5t200.5 83.5t84.5 202.5t-84.5 203t-200.5 84zM477 397q-23 81 -101 81q-60 0 -95 -39
t-35 -100q0 -55 31 -94q35 -43 97 -43q83 0 103 79h74q-17 -75 -63.5 -113.5t-112.5 -38.5q-92 0 -147 60t-55 152q0 89 56 150t147 61q65 0 112 -39q50 -42 63 -116h-74z" />
    <glyph glyph-name="trademark" unicode="&#x2122;" horiz-adv-x="492" 
d="M377 607l-56 -140h-27l-52 134v-134h-43v211h58l51 -129l52 129h59v-211h-42v140zM103 634v-167h-43v167h-66v44h173v-44h-64z" />
    <glyph glyph-name="acute" unicode="&#xb4;" horiz-adv-x="235" 
d="M93 701h-83l103 127h108zM171 807h-48l-72 -85h32z" />
    <glyph glyph-name="dieresis" unicode="&#xa8;" horiz-adv-x="322" 
d="M264 751q0 -29 -30 -29t-30 30q0 28 31 28q29 0 29 -29zM286 749q0 22 -15.5 38t-36.5 16q-23 0 -38 -15t-15 -38q0 -22 15.5 -37t38.5 -15q21 0 36 15t15 36zM124 751q0 -29 -30 -29t-30 30q0 28 31 28q29 0 29 -29zM146 749q0 22 -15.5 38t-36.5 16q-23 0 -38 -15
t-15 -38q0 -22 15.5 -37t38.5 -15q21 0 36 15t15 36z" />
    <glyph glyph-name="AE" unicode="&#xc6;" horiz-adv-x="1000" 
d="M938 672l-103 -121l-164 1v-243h174l-116 -113h-153v-76h354l-109 -119h-456v198h-86l-137 -198h-150l467 671h479zM867 638h-391l-419 -606l63 2l367 526v-474h-32v369l-153 -223h100v-200h399l58 57h-318v500l36 -1v-360h134l54 50h-130v308h186z" />
    <glyph glyph-name="Oslash" unicode="&#xd8;" horiz-adv-x="780" 
d="M717 586l-62 -66q59 -79 59 -196q0 -146 -106 -248t-251 -102q-89 0 -203 60l-60 -51l-89 90l57 54q-63 105 -63 205q0 142 107.5 244.5t250.5 102.5q113 0 208 -66l63 59zM674 325q0 115 -69 195l63 63l-43 40l-60 -56q-36 32 -97.5 54.5t-110.5 22.5q-129 0 -225 -93.5
t-96 -222.5q0 -101 71 -203l-55 -47l45 -44l408 388q30 -42 30 -98q0 -49 -31 -96h54q29 43 29 101q0 35 -14 73.5t-32 56.5l26 26q61 -61 61 -159q0 -106 -81.5 -184.5t-188.5 -78.5q-69 0 -140 37q-12 -12 -34 -39q83 -52 173 -52q130 0 223.5 92.5t93.5 223.5zM547 197
q-12 0 -61 1q-37 0 -62 -1q77 47 77 127q0 7 -2.5 19.5l-3.5 17.5q-82 -82 -245 -237q50 -27 108 -27q50 0 105.5 29t83.5 71zM526 529q-99 -98 -199 -197q-167 -162 -182 -167q-56 74 -56 161q0 111 80 188.5t191 77.5q89 0 166 -63zM472 523q-54 33 -115 33
q-94 0 -163.5 -66.5t-69.5 -160.5q0 -75 33 -112z" />
    <glyph glyph-name="plusminus" unicode="&#xb1;" horiz-adv-x="8" 
 />
    <glyph glyph-name="yen" unicode="&#xa5;" horiz-adv-x="556" 
d="M491 672l-151 -331h130v-103h-156v-43h156v-103h-156v-91h-142v91h-154v103h154v43h-154v103h127l-148 331h138l72 -155l69 155h215zM440 637l-144 1l-92 -202l-92 202h-58l137 -297h14l120 254h43l-125 -254h58zM433 272v36h-378v-36h378zM276 238h-63v-43h63v43z
M433 126v36q24 0 -47 0h-82h-249v-36h378zM276 92h-63v-57l62 -1z" />
    <glyph glyph-name="mu" unicode="&#xb5;" horiz-adv-x="595" 
d="M405 335l-217 -110l-1 -107h357l-117 -118h-363v161l-66 -33v129l66 35v380h211v-268l130 69v-138zM154 340v240h34l1 -222l52 28v250h-140v-324zM465 84h-311v123l-53 -27v-146h315zM373 422l-343 -182v-58l343 176v64z" />
    <glyph glyph-name="mu" unicode="&#x3bc;" horiz-adv-x="595" 
d="M405 335l-217 -110l-1 -107h357l-117 -118h-363v161l-66 -33v129l66 35v380h211v-268l130 69v-138zM154 340v240h34l1 -222l52 28v250h-140v-324zM465 84h-311v123l-53 -27v-146h315zM373 422l-343 -182v-58l343 176v64z" />
    <glyph glyph-name="ordfeminine" unicode="&#xaa;" horiz-adv-x="565" 
d="M495 672l-297 -554h270l-103 -117h-362l114 222l-68 68l148 265h-161l100 116h359zM435 641h-290l-46 -55h150l-161 -289l45 -44l183 335h33l-292 -556h297l55 57l-264 2zM7996 89zM137 785l55 58l80 -44l75 46l58 -60l-130 -83zM178 791l97 -59l94 59l-25 24l-72 -44
l-75 41z" />
    <glyph glyph-name="ordmasculine" unicode="&#xba;" horiz-adv-x="565" 
d="M495 672l-297 -554h270l-103 -117h-362l114 222l-68 68l148 265h-161l100 116h359zM435 641h-290l-46 -55h150l-161 -289l45 -44l183 335h33l-292 -556h297l55 57l-264 2zM7996 89zM137 785l55 58l80 -44l75 46l58 -60l-130 -83zM178 791l97 -59l94 59l-25 24l-72 -44
l-75 41z" />
    <glyph glyph-name="ae" unicode="&#xe6;" horiz-adv-x="1000" 
d="M938 672l-103 -121l-164 1v-243h174l-116 -113h-153v-76h354l-109 -119h-456v198h-86l-137 -198h-150l467 671h479zM867 638h-391l-419 -606l63 2l367 526v-474h-32v369l-153 -223h100v-200h399l58 57h-318v500l36 -1v-360h134l54 50h-130v308h186z" />
    <glyph glyph-name="oslash" unicode="&#xf8;" horiz-adv-x="780" 
d="M717 586l-62 -66q59 -79 59 -196q0 -146 -106 -248t-251 -102q-89 0 -203 60l-60 -51l-89 90l57 54q-63 105 -63 205q0 142 107.5 244.5t250.5 102.5q113 0 208 -66l63 59zM674 325q0 115 -69 195l63 63l-43 40l-60 -56q-36 32 -97.5 54.5t-110.5 22.5q-129 0 -225 -93.5
t-96 -222.5q0 -101 71 -203l-55 -47l45 -44l408 388q30 -42 30 -98q0 -49 -31 -96h54q29 43 29 101q0 35 -14 73.5t-32 56.5l26 26q61 -61 61 -159q0 -106 -81.5 -184.5t-188.5 -78.5q-69 0 -140 37q-12 -12 -34 -39q83 -52 173 -52q130 0 223.5 92.5t93.5 223.5zM547 197
q-12 0 -61 1q-37 0 -62 -1q77 47 77 127q0 7 -2.5 19.5l-3.5 17.5q-82 -82 -245 -237q50 -27 108 -27q50 0 105.5 29t83.5 71zM526 529q-99 -98 -199 -197q-167 -162 -182 -167q-56 74 -56 161q0 111 80 188.5t191 77.5q89 0 166 -63zM472 523q-54 33 -115 33
q-94 0 -163.5 -66.5t-69.5 -160.5q0 -75 33 -112z" />
    <glyph glyph-name="questiondown" unicode="&#xbf;" horiz-adv-x="540" 
d="M-15 58q-1 78 39 143q47 74 133 103q25 8 53 8h132v-215h-46h-32q-61 0 -61 -42q0 -30 39 -42v-86q9 -4 21 -4q26 0 56 21t45 47l105 -52q-31 -66 -104 -105q-62 -32 -122 -32q-107 0 -182 75t-76 181zM126 487h216v-152h-216v152zM19 60q0 -87 65 -155q67 -71 159 -71
q94 0 176 90q-13 7 -46 25q-12 -22 -46 -41q-39 -22 -79 -22q-20 0 -39 6v98q-44 26 -44 64q0 39 29 58q21 14 61 17q27 2 55 3v148h-55v-88q-63 1 -105 -39t-42 -93q0 -28 12.5 -59.5t27.5 -42.5v-21q1 -22 0 -23q-36 20 -57 69q-17 40 -17 78q0 61 40 106.5t108 61.5
q2 43 1 49l-19 -1q-5 0 -43 -13q-69 -24 -108 -89q-34 -55 -34 -115zM161 453v-84h57v84h-57zM256 453v-84h54v84h-54z" />
    <glyph glyph-name="exclamdown" unicode="&#xa1;" horiz-adv-x="314" 
d="M6 175l109 126l109 -126v-375h-218v375zM10 474h214v-149h-214v149zM35 157l1 -328h159v334l-62 74v-352l-32 1l-1 351zM39 443v-88h63v88h-63zM132 440v-83h63v84z" />
    <glyph glyph-name="logicalnot" unicode="&#xac;" horiz-adv-x="0" 
 />
    <glyph glyph-name="florin" unicode="&#x192;" horiz-adv-x="739" 
d="M512 231l-194 -1q15 -17 33 -28h-114l11 -11q22 -40 80 -67q52 -24 100 -24q47 0 116 32q10 5 38 27l92 -77q-45 -48 -120 -76q-66 -25 -126 -25q-119 0 -214 72q-92 69 -127 178h-85v105l68 -1v2q0 21 3 42h-73v104h103q43 91 132 146t193 55q132 0 238 -89
q-3 -8 -78 -90q-19 13 -49 32q-55 24 -74 24h-42v-79l91 1v-104h-225q-8 -21 -8 -43h230zM487 405l-1 49h-136q-31 -19 -49 -50zM622 86q-13 11 -37 34q-70 -50 -159 -50q-108 0 -186.5 76t-78.5 188q0 136 119 216q39 26 52 26q6 0 8 -2v-26q-69 -28 -111 -95
q-36 -59 -36 -117q0 -41 25 -104h58q-19 36 -24 54q-3 14 -3 46q0 64 39.5 113t102.5 61v87h24q15 -1 17 -1q71 0 149 -43q13 12 33 38q-92 61 -184 61q-127 0 -223 -89q-99 -91 -102 -223q-2 -91 45 -168q43 -69 118 -113q69 -40 157 -40q47 0 108 20q65 22 89 51zM485 260
v46h-202q4 -24 15 -45zM91 454h-64v-49h50q5 25 14 49zM79 261q-5 22 -7 45h-43v-46z" />
    <glyph glyph-name="guillemotleft" unicode="&#xab;" horiz-adv-x="417" 
d="M279 494l72 -52l-82 -126l76 -116l-68 -55l-115 168zM285 456l-93 -143l91 -132l32 22l-75 113l76 117zM109 494l72 -52l-82 -126l76 -116l-68 -55l-115 168zM115 456l-93 -143l91 -132l32 22l-75 113l76 117z" />
    <glyph glyph-name="guillemotright" unicode="&#xbb;" horiz-adv-x="417" 
d="M63 145l-71 52l81 125l-76 117l69 55l115 -169zM58 182l93 143l-92 133l-31 -22l74 -114l-76 -117zM233 145l-71 52l81 125l-76 117l69 55l115 -169zM228 182l93 143l-92 133l-31 -22l74 -114l-76 -117z" />
    <glyph glyph-name="ellipsis" unicode="&#x2026;" horiz-adv-x="844" 
d="M473 79q0 -20 -14.5 -34.5t-34.5 -14.5q-21 1 -35.5 15.5t-14.5 34.5t15.5 34t35.5 13q20 0 34 -14t14 -34zM511 79q0 35 -25 60.5t-61 25.5q-36 1 -62.5 -24t-26.5 -61t26.5 -61.5t62.5 -25.5t61 25t25 61zM773 79q0 -20 -14.5 -34.5t-34.5 -14.5q-21 1 -35.5 15.5
t-14.5 34.5t15.5 34t35.5 13q20 0 34 -14t14 -34zM811 79q0 35 -25 60.5t-61 25.5q-36 1 -62.5 -24t-26.5 -61t26.5 -61.5t62.5 -25.5t61 25t25 61zM173 79q0 -20 -14.5 -34.5t-34.5 -14.5q-21 1 -35.5 15.5t-14.5 34.5t15.5 34t35.5 13q20 0 34 -14t14 -34zM211 79
q0 35 -25 60.5t-61 25.5q-36 1 -62.5 -24t-26.5 -61t26.5 -61.5t62.5 -25.5t61 25t25 61z" />
    <glyph glyph-name="nonbreakingspace" unicode="&#xa0;" horiz-adv-x="253" 
 />
    <glyph glyph-name="Agrave" unicode="&#xc0;" horiz-adv-x="653" 
d="M580 0l-228 1l-93 200l-41 -2l-91 -199h-133l298 681zM528 34l-236 559l-249 -559h62l182 421l172 -374l-40 1l-132 282l-56 -132l51 -1l93 -198zM258 701h83l-103 127h-108zM180 807h48l72 -85h-32z" />
    <glyph glyph-name="Atilde" unicode="&#xc3;" horiz-adv-x="653" 
d="M580 0l-228 1l-93 200l-41 -2l-91 -199h-133l298 681zM528 34l-236 559l-249 -559h62l182 421l172 -374l-40 1l-132 282l-56 -132l51 -1l93 -198zM252 746l-64 -41l-39 49l115 70l56 -43l68 45l39 -54l-119 -71zM263 801l-81 -49l14 -18l60 37l58 -46l84 54l-12 19
l-67 -41z" />
    <glyph glyph-name="Otilde" unicode="&#xd5;" horiz-adv-x="796" 
d="M712 339q0 -150 -103.5 -251.5t-250.5 -101.5q-148 0 -253.5 101.5t-105.5 250.5q0 154 110 256q105 96 252 96q146 0 248.5 -102.5t102.5 -248.5zM674 339q0 132 -92 224.5t-224 92.5q-134 0 -228 -92.5t-94 -225.5q0 -132 94.5 -225t224.5 -93q135 0 227 92.5t92 226.5
zM623 339q0 -113 -78.5 -189t-188.5 -76q-111 0 -188.5 78t-77.5 186q0 77 42 143q49 75 135 106q1 -12 1 -36q-63 -19 -103 -79.5t-40 -133.5q0 -33 12 -63l16 -34q36 -2 47 0q-26 52 -26 109q0 56 35 100q40 47 112 65q0 -1 0 85q20 5 60 1q45 -4 77 -16q81 -30 126 -109
q39 -67 39 -137zM591 339q0 60 -37 121q-42 71 -110 95q-31 11 -87 11v-83q-72 -4 -111 -47q-34 -38 -34 -95q0 -91 64 -135q-43 -1 -69 0q-19 0 -29 1.5l-10 1.5q28 -47 92 -77q55 -26 99 -26q94 0 163 69.5t69 163.5zM322 756l-64 -41l-39 49l115 70l56 -43l68 45l39 -54
l-119 -71zM333 811l-81 -49l14 -18l60 37l58 -46l84 54l-12 19l-67 -41z" />
    <glyph glyph-name="OE" unicode="&#x152;" horiz-adv-x="1134" 
d="M1075 674l-110 -125h-165v-233h169l-93 -119l-166 2v-78h353l-111 -121h-367l2 67q-42 -41 -81 -59q-58 -26 -147 -26q-153 0 -258 106.5t-105 253.5q0 146 108.5 250.5t254.5 104.5q102 0 226 -84q4 12 3 39l-1 21zM998 638h-376q0 -71 1 -107q-49 59 -117 94
q-71 37 -145 37q-133 0 -229.5 -96.5t-96.5 -228.5q0 -131 96 -223.5t229 -96.5q82 -2 164 44q77 42 98 92l1 -121h311l52 57h-312v495h36v-353l152 -1l35 53h-133v302h188zM630 338q0 -109 -80.5 -189t-189.5 -80q-111 0 -192 78.5t-81 188.5q0 87 52 156.5t135 100.5
q-2 -12 0 -34q-68 -32 -108 -89q-43 -59 -43 -132q0 -71 28 -104l58 -1q-32 43 -32 102q0 67 41.5 118.5t107.5 64.5v89q-9 1 46 1q104 0 181 -82.5t77 -187.5zM596 340q0 95 -70.5 165.5t-165.5 67.5v-83h-10q-62 -10 -99 -49t-37 -103q0 -81 80 -134q-55 -1 -133 -1
q32 -45 87.5 -72.5t111.5 -27.5q97 0 166.5 69.5t69.5 167.5z" />
    <glyph glyph-name="oe" unicode="&#x153;" horiz-adv-x="1134" 
d="M1075 674l-110 -125h-165v-233h169l-93 -119l-166 2v-78h353l-111 -121h-367l2 67q-42 -41 -81 -59q-58 -26 -147 -26q-153 0 -258 106.5t-105 253.5q0 146 108.5 250.5t254.5 104.5q102 0 226 -84q4 12 3 39l-1 21zM998 638h-376q0 -71 1 -107q-49 59 -117 94
q-71 37 -145 37q-133 0 -229.5 -96.5t-96.5 -228.5q0 -131 96 -223.5t229 -96.5q82 -2 164 44q77 42 98 92l1 -121h311l52 57h-312v495h36v-353l152 -1l35 53h-133v302h188zM630 338q0 -109 -80.5 -189t-189.5 -80q-111 0 -192 78.5t-81 188.5q0 87 52 156.5t135 100.5
q-2 -12 0 -34q-68 -32 -108 -89q-43 -59 -43 -132q0 -71 28 -104l58 -1q-32 43 -32 102q0 67 41.5 118.5t107.5 64.5v89q-9 1 46 1q104 0 181 -82.5t77 -187.5zM596 340q0 95 -70.5 165.5t-165.5 67.5v-83h-10q-62 -10 -99 -49t-37 -103q0 -81 80 -134q-55 -1 -133 -1
q32 -45 87.5 -72.5t111.5 -27.5q97 0 166.5 69.5t69.5 167.5z" />
    <glyph glyph-name="endash" unicode="&#x2013;" horiz-adv-x="510" 
d="M432 253h-432v138h432v-138zM395 291v61h-358v-61h358z" />
    <glyph glyph-name="emdash" unicode="&#x2014;" horiz-adv-x="841" 
d="M772 253h-772v138h772v-138zM735 291v61h-698v-61h698z" />
    <glyph glyph-name="quotedblleft" unicode="&#x201c;" horiz-adv-x="434" 
d="M262 462h100l-43 213h-138zM231 646l57 -1l34 -150h-37zM82 462h100l-43 213h-138zM51 646l57 -1l34 -150h-37z" />
    <glyph glyph-name="quotedblright" unicode="&#x201d;" horiz-adv-x="434" 
d="M101 462h-100l43 213h138zM132 646l-58 -1l-33 -150h37zM281 462h-100l43 213h138zM312 646l-58 -1l-33 -150h37z" />
    <glyph glyph-name="quoteleft" unicode="&#x2018;" horiz-adv-x="214" 
d="M82 462h100l-43 213h-138zM51 646l57 -1l34 -150h-37z" />
    <glyph glyph-name="quoteright" unicode="&#x2019;" horiz-adv-x="214" 
d="M97 462h-100l43 213h138zM128 646l-57 -1l-34 -150h37z" />
    <glyph glyph-name="divide" unicode="&#xf7;" horiz-adv-x="0" 
 />
    <glyph glyph-name="ydieresis" unicode="&#xff;" horiz-adv-x="556" 
d="M235 0h-131l78 206l-178 466h131l70 -178l69 178h217zM440 637h-146l-91 -226l-91 227h-58l149 -373l125 316h37l-210 -547h54zM354 751q0 -29 -30 -29t-30 30q0 28 31 28q29 0 29 -29zM376 749q0 22 -15.5 38t-36.5 16q-23 0 -38 -15t-15 -38q0 -22 15.5 -37t38.5 -15
q21 0 36 15t15 36zM194 751q0 -29 -30 -29t-30 30q0 28 31 28q29 0 29 -29zM216 749q0 22 -15.5 38t-36.5 16q-23 0 -38 -15t-15 -38q0 -22 15.5 -37t38.5 -15q21 0 36 15t15 36z" />
    <glyph glyph-name="Ydieresis" unicode="&#x178;" horiz-adv-x="556" 
d="M235 0h-131l78 206l-178 466h131l70 -178l69 178h217zM440 637h-146l-91 -226l-91 227h-58l149 -373l125 316h37l-210 -547h54zM354 751q0 -29 -30 -29t-30 30q0 28 31 28q29 0 29 -29zM376 749q0 22 -15.5 38t-36.5 16q-23 0 -38 -15t-15 -38q0 -22 15.5 -37t38.5 -15
q21 0 36 15t15 36zM194 751q0 -29 -30 -29t-30 30q0 28 31 28q29 0 29 -29zM216 749q0 22 -15.5 38t-36.5 16q-23 0 -38 -15t-15 -38q0 -22 15.5 -37t38.5 -15q21 0 36 15t15 36z" />
    <glyph glyph-name="currency" unicode="&#xa4;" horiz-adv-x="0" 
 />
    <glyph glyph-name="guilsinglleft" unicode="&#x2039;" horiz-adv-x="241" 
d="M109 494l72 -52l-82 -126l76 -116l-68 -55l-115 168zM115 456l-93 -143l91 -132l32 22l-75 113l76 117z" />
    <glyph glyph-name="guilsinglright" unicode="&#x203a;" horiz-adv-x="241" 
d="M63 145l-71 52l81 125l-76 117l69 55l115 -169zM58 182l93 143l-92 133l-31 -22l74 -114l-76 -117z" />
    <glyph glyph-name="daggerdbl" unicode="&#x2021;" horiz-adv-x="23" 
 />
    <glyph glyph-name="periodcentered" unicode="&#xb7;" horiz-adv-x="287" 
d="M173 299q0 -20 -14.5 -34.5t-34.5 -14.5q-21 1 -35.5 15.5t-14.5 34.5t15.5 34t35.5 13q20 0 34 -14t14 -34zM211 299q0 35 -25 60.5t-61 25.5q-36 1 -62.5 -24t-26.5 -61t26.5 -61.5t62.5 -25.5t61 25t25 61z" />
    <glyph glyph-name="periodcentered" unicode="&#x2219;" horiz-adv-x="287" 
d="M173 299q0 -20 -14.5 -34.5t-34.5 -14.5q-21 1 -35.5 15.5t-14.5 34.5t15.5 34t35.5 13q20 0 34 -14t14 -34zM211 299q0 35 -25 60.5t-61 25.5q-36 1 -62.5 -24t-26.5 -61t26.5 -61.5t62.5 -25.5t61 25t25 61z" />
    <glyph glyph-name="quotesinglbase" unicode="&#x201a;" horiz-adv-x="247" 
d="M95 -78h-101l44 223h138zM126 115h-58l-33 -160h37z" />
    <glyph glyph-name="quotedblbase" unicode="&#x201e;" horiz-adv-x="438" 
d="M285 -78h-101l44 223h138zM316 115h-58l-33 -160h37zM95 -78h-101l44 223h138zM126 115h-58l-33 -160h37z" />
    <glyph glyph-name="perthousand" unicode="&#x2030;" horiz-adv-x="567" 
d="M483 437q0 -121 -119 -210v-132q-59 -60 -122 -117q0 66 -1 225q-116 -2 -120 0v-200h-121v668h260q35 1 72 -15q75 -32 115 -96q36 -57 36 -123zM449 437q0 65 -38 118q-44 61 -122 77q-24 5 -26 5h-228v-598h53v550q1 1 18 1q16 0 17 -1v-351h155v-175q7 5 52 49v137
q119 60 119 188zM395 437q0 -54 -40.5 -100t-88.5 -46h-91v295h74q4 0 30 -6q53 -12 87 -59q29 -41 29 -84zM358 436q0 52 -40 84q-36 29 -86 29q-6 0 -20 -1v-225l26 -1q48 0 84 30.5t36 83.5z" />
    <glyph glyph-name="Acircumflex" unicode="&#xc2;" horiz-adv-x="653" 
d="M580 0l-228 1l-93 200l-41 -2l-91 -199h-133l298 681zM528 34l-236 559l-249 -559h62l182 421l172 -374l-40 1l-132 282l-56 -132l51 -1l93 -198zM420 753l-55 -58l-81 44l-75 -46l-57 60l129 83zM379 747l-98 59l-93 -59l25 -24l71 45l75 -42z" />
    <glyph glyph-name="Ecircumflex" unicode="&#xca;" horiz-adv-x="566" 
d="M486 673l-111 -117h-162v-230l175 1l-108 -122h-158v-88l373 -1l-97 -116h-394v673h482zM418 643h-382v-614h342l53 59h-338v497l31 1l-1 -349h148l52 60h-142l-1 288h177zM380 753l-55 -58l-81 44l-75 -46l-57 60l129 83zM339 747l-98 59l-93 -59l25 -24l71 45l75 -42z
" />
    <glyph glyph-name="Aacute" unicode="&#xc1;" horiz-adv-x="653" 
d="M580 0l-228 1l-93 200l-41 -2l-91 -199h-133l298 681zM528 34l-236 559l-249 -559h62l182 421l172 -374l-40 1l-132 282l-56 -132l51 -1l93 -198zM273 701h-83l103 127h108zM351 807h-48l-72 -85h32z" />
    <glyph glyph-name="Edieresis" unicode="&#xcb;" horiz-adv-x="566" 
d="M486 673l-111 -117h-162v-230l175 1l-108 -122h-158v-88l373 -1l-97 -116h-394v673h482zM418 643h-382v-614h342l53 59h-338v497l31 1l-1 -349h148l52 60h-142l-1 288h177zM354 751q0 -29 -30 -29t-30 30q0 28 31 28q29 0 29 -29zM376 749q0 22 -15.5 38t-36.5 16
q-23 0 -38 -15t-15 -38q0 -22 15.5 -37t38.5 -15q21 0 36 15t15 36zM194 751q0 -29 -30 -29t-30 30q0 28 31 28q29 0 29 -29zM216 749q0 22 -15.5 38t-36.5 16q-23 0 -38 -15t-15 -38q0 -22 15.5 -37t38.5 -15q21 0 36 15t15 36z" />
    <glyph glyph-name="Egrave" unicode="&#xc8;" horiz-adv-x="566" 
d="M486 673l-111 -117h-162v-230l175 1l-108 -122h-158v-88l373 -1l-97 -116h-394v673h482zM418 643h-382v-614h342l53 59h-338v497l31 1l-1 -349h148l52 60h-142l-1 288h177zM258 701h83l-103 127h-108zM180 807h48l72 -85h-32z" />
    <glyph glyph-name="Iacute" unicode="&#xcd;" horiz-adv-x="299" 
d="M217 268l-90 -74l2 -195h-124v673h212v-404zM182 285v351h-140v-605h52l1 565h34v-357zM103 701h-83l103 127h108zM181 807h-48l-72 -85h32z" />
    <glyph glyph-name="Icircumflex" unicode="&#xce;" horiz-adv-x="299" 
d="M217 268l-90 -74l2 -195h-124v673h212v-404zM182 285v351h-140v-605h52l1 565h34v-357zM248 753l-55 -58l-81 44l-75 -46l-57 60l129 83zM206 752l-97 54l-88 -57l20 -26l71 45l75 -42z" />
    <glyph glyph-name="Idieresis" unicode="&#xcf;" horiz-adv-x="299" 
d="M217 268l-90 -74l2 -195h-124v673h212v-404zM182 285v351h-140v-605h52l1 565h34v-357zM214 761q0 -29 -30 -29t-30 30q0 28 31 28q29 0 29 -29zM236 759q0 22 -15.5 38t-36.5 16q-23 0 -38 -15t-15 -38q0 -22 15.5 -37t38.5 -15q21 0 36 15t15 36zM54 761q0 -29 -30 -29
t-30 30q0 28 31 28q29 0 29 -29zM76 759q0 22 -15.5 38t-36.5 16q-23 0 -38 -15t-15 -38q0 -22 15.5 -37t38.5 -15q21 0 36 15t15 36z" />
    <glyph glyph-name="Igrave" unicode="&#xcc;" horiz-adv-x="299" 
d="M217 268l-90 -74l1 -195h-123v673h212v-404zM182 285v351h-140v-605h52l1 565h34v-357zM128 701h83l-103 127h-108zM50 807h48l72 -85h-32z" />
    <glyph glyph-name="Oacute" unicode="&#xd3;" horiz-adv-x="796" 
d="M712 339q0 -150 -103.5 -251.5t-250.5 -101.5q-148 0 -253.5 101.5t-105.5 250.5q0 154 110 256q105 96 252 96q146 0 248.5 -102.5t102.5 -248.5zM674 339q0 132 -92 224.5t-224 92.5q-134 0 -228 -92.5t-94 -225.5q0 -132 94.5 -225t224.5 -93q135 0 227 92.5t92 226.5
zM623 339q0 -113 -78.5 -189t-188.5 -76q-111 0 -188.5 78t-77.5 186q0 77 42 143q49 75 135 106q1 -12 1 -36q-63 -19 -103 -79.5t-40 -133.5q0 -33 12 -63l16 -34q36 -2 47 0q-26 52 -26 109q0 56 35 100q40 47 112 65q0 -1 0 85q20 5 60 1q45 -4 77 -16q81 -30 126 -109
q39 -67 39 -137zM591 339q0 60 -37 121q-42 71 -110 95q-31 11 -87 11v-83q-72 -4 -111 -47q-34 -38 -34 -95q0 -91 64 -135q-43 -1 -69 0q-19 0 -29 1.5l-10 1.5q28 -47 92 -77q55 -26 99 -26q94 0 163 69.5t69 163.5zM363 711h-83l103 127h108zM441 817h-48l-72 -85h32z
" />
    <glyph glyph-name="Ocircumflex" unicode="&#xd4;" horiz-adv-x="796" 
d="M712 339q0 -150 -103.5 -251.5t-250.5 -101.5q-148 0 -253.5 101.5t-105.5 250.5q0 154 110 256q105 96 252 96q146 0 248.5 -102.5t102.5 -248.5zM674 339q0 132 -92 224.5t-224 92.5q-134 0 -228 -92.5t-94 -225.5q0 -132 94.5 -225t224.5 -93q135 0 227 92.5t92 226.5
zM623 339q0 -113 -78.5 -189t-188.5 -76q-111 0 -188.5 78t-77.5 186q0 77 42 143q49 75 135 106q1 -12 1 -36q-63 -19 -103 -79.5t-40 -133.5q0 -33 12 -63l16 -34q36 -2 47 0q-26 52 -26 109q0 56 35 100q40 47 112 65q0 -1 0 85q20 5 60 1q45 -4 77 -16q81 -30 126 -109
q39 -67 39 -137zM591 339q0 60 -37 121q-42 71 -110 95q-31 11 -87 11v-83q-72 -4 -111 -47q-34 -38 -34 -95q0 -91 64 -135q-43 -1 -69 0q-19 0 -29 1.5l-10 1.5q28 -47 92 -77q55 -26 99 -26q94 0 163 69.5t69 163.5zM488 763l-55 -58l-81 44l-75 -46l-57 60l129 83z
M446 762l-97 54l-88 -57l20 -26l71 45l75 -42z" />
    <glyph glyph-name="Ograve" unicode="&#xd2;" horiz-adv-x="796" 
d="M712 339q0 -150 -103.5 -251.5t-250.5 -101.5q-148 0 -253.5 101.5t-105.5 250.5q0 154 110 256q105 96 252 96q146 0 248.5 -102.5t102.5 -248.5zM674 339q0 132 -92 224.5t-224 92.5q-134 0 -228 -92.5t-94 -225.5q0 -132 94.5 -225t224.5 -93q135 0 227 92.5t92 226.5
zM623 339q0 -113 -78.5 -189t-188.5 -76q-111 0 -188.5 78t-77.5 186q0 77 42 143q49 75 135 106q1 -12 1 -36q-63 -19 -103 -79.5t-40 -133.5q0 -33 12 -63l16 -34q36 -2 47 0q-26 52 -26 109q0 56 35 100q40 47 112 65q0 -1 0 85q20 5 60 1q45 -4 77 -16q81 -30 126 -109
q39 -67 39 -137zM591 339q0 60 -37 121q-42 71 -110 95q-31 11 -87 11v-83q-72 -4 -111 -47q-34 -38 -34 -95q0 -91 64 -135q-43 -1 -69 0q-19 0 -29 1.5l-10 1.5q28 -47 92 -77q55 -26 99 -26q94 0 163 69.5t69 163.5zM358 711h83l-103 127h-108zM280 817h48l72 -85h-32z
" />
    <glyph glyph-name="Uacute" unicode="&#xda;" horiz-adv-x="570" 
d="M489 202q0 -91 -77 -154q-72 -59 -164 -58q-96 1 -160 59q-48 43 -71 111q-19 53 -14 74v439h210v-475l-87 89l-1 -53q0 -44 38.5 -84t81.5 -40q41 0 81 38t40 75v448h123v-469zM453 202v435h-50v-425q0 -55 -50 -97t-105 -42q-58 0 -107 46t-49 103v365l35 1l1 -254
l50 -52v357l-139 1l-1 -379q0 -96 52 -161q58 -73 160 -73q72 0 135 51q68 54 68 124zM253 701h-83l103 127h108zM331 807h-48l-72 -85h32z" />
    <glyph glyph-name="Ucircumflex" unicode="&#xdb;" horiz-adv-x="570" 
d="M489 202q0 -91 -77 -154q-72 -59 -164 -58q-96 1 -160 59q-48 43 -71 111q-19 53 -14 74v439h210v-475l-87 89l-1 -53q0 -44 38.5 -84t81.5 -40q41 0 81 38t40 75v448h123v-469zM453 202v435h-50v-425q0 -55 -50 -97t-105 -42q-58 0 -107 46t-49 103v365l35 1l1 -254
l50 -52v357l-139 1l-1 -379q0 -96 52 -161q58 -73 160 -73q72 0 135 51q68 54 68 124zM388 753l-55 -58l-81 44l-75 -46l-57 60l129 83zM346 752l-97 54l-88 -57l20 -26l71 45l75 -42z" />
    <glyph glyph-name="Ugrave" unicode="&#xd9;" horiz-adv-x="570" 
d="M489 202q0 -91 -77 -154q-72 -59 -164 -58q-96 1 -160 59q-48 43 -71 111q-19 53 -14 74v439h210v-475l-87 89l-1 -53q0 -44 38.5 -84t81.5 -40q41 0 81 38t40 75v448h123v-469zM453 202v435h-50v-425q0 -55 -50 -97t-105 -42q-58 0 -107 46t-49 103v365l35 1l1 -254
l50 -52v357l-139 1l-1 -379q0 -96 52 -161q58 -73 160 -73q72 0 135 51q68 54 68 124zM248 701h83l-103 127h-108zM170 807h48l72 -85h-32z" />
    <glyph glyph-name="circumflex" unicode="&#x2c6;" horiz-adv-x="319" 
d="M279 753l-55 -58l-81 44l-75 -46l-57 60l129 83zM238 747l-98 59l-91 -63l23 -20l71 45l75 -41z" />
    <glyph glyph-name="tilde" unicode="&#x2dc;" horiz-adv-x="496" 
d="M202 746l-64 -41l-39 49l115 70l56 -43l68 45l39 -54l-119 -71zM213 801l-81 -49l14 -18l60 37l58 -46l84 54l-12 19l-67 -41z" />
    <glyph glyph-name="macron" unicode="&#xaf;" horiz-adv-x="351" 
d="M290 796l-75 -75h-184l76 75h183zM231 775l-111 -2l-31 -31l112 -1z" />
    <glyph glyph-name="macron" unicode="&#x2c9;" horiz-adv-x="351" 
d="M290 796l-75 -75h-184l76 75h183zM231 775l-111 -2l-31 -31l112 -1z" />
    <glyph glyph-name="cedilla" unicode="&#xb8;" horiz-adv-x="247" 
d="M77 36h100l-43 -224h-139zM44 -159l59 1l37 161h-40z" />
    <glyph glyph-name="Scaron" unicode="&#x160;" 
 />
    <glyph glyph-name="scaron" unicode="&#x161;" 
 />
    <glyph glyph-name="brokenbar" unicode="&#xa6;" 
 />
    <glyph glyph-name="Eth" unicode="&#xd0;" 
 />
    <glyph glyph-name="eth" unicode="&#xf0;" 
 />
    <glyph glyph-name="Yacute" unicode="&#xdd;" 
 />
    <glyph glyph-name="yacute" unicode="&#xfd;" 
 />
    <glyph glyph-name="Thorn" unicode="&#xde;" 
 />
    <glyph glyph-name="thorn" unicode="&#xfe;" 
 />
    <glyph glyph-name="minus" unicode="&#xad;" 
 />
    <glyph glyph-name="minus" unicode="&#x2212;" 
 />
    <glyph glyph-name="multiply" unicode="&#xd7;" 
 />
    <glyph glyph-name="onesuperior" unicode="&#xb9;" 
 />
    <glyph glyph-name="twosuperior" unicode="&#xb2;" 
 />
    <glyph glyph-name="threesuperior" unicode="&#xb3;" 
 />
    <glyph glyph-name="onehalf" unicode="&#xbd;" 
 />
    <glyph glyph-name="onequarter" unicode="&#xbc;" 
 />
    <glyph glyph-name="threequarters" unicode="&#xbe;" 
 />
    <glyph glyph-name="Lslash" unicode="&#x141;" 
 />
    <glyph glyph-name="lslash" unicode="&#x142;" 
 />
    <glyph glyph-name="HT" 
 />
    <glyph glyph-name="LF" 
 />
    <glyph glyph-name="nonmarkingreturn" 
 />
    <glyph glyph-name="Zcaron" unicode="&#x17d;" 
 />
    <glyph glyph-name="zcaron" unicode="&#x17e;" 
 />
    <glyph glyph-name="DLE" 
 />
    <glyph glyph-name="DC1" 
 />
    <glyph glyph-name="DC2" 
 />
    <glyph glyph-name="DC3" 
 />
    <glyph glyph-name="DC4" 
 />
    <glyph glyph-name="RS" 
 />
    <glyph glyph-name="US" 
 />
    <glyph glyph-name="notequal" unicode="&#x2260;" horiz-adv-x="0" 
 />
    <glyph glyph-name="infinity" unicode="&#x221e;" horiz-adv-x="8" 
 />
    <glyph glyph-name="lessequal" unicode="&#x2264;" horiz-adv-x="11" 
 />
    <glyph glyph-name="greaterequal" unicode="&#x2265;" horiz-adv-x="11" 
 />
    <glyph glyph-name="partialdiff" unicode="&#x2202;" horiz-adv-x="595" 
d="M405 335l-217 -110l-1 -107h357l-117 -118h-363v161l-66 -33v129l66 35v380h211v-268l130 69v-138zM154 340v240h34l1 -222l52 28v250h-140v-324zM465 84h-311v123l-53 -27v-146h315zM373 422l-343 -182v-58l343 176v64z" />
    <glyph glyph-name="summation" unicode="&#x2211;" horiz-adv-x="508" 
d="M432 230q0 -105 -68 -170.5t-172 -65.5q-124 0 -198 106l92 91q14 -30 42.5 -53t60.5 -23q35 0 69 26.5t41 60.5q-66 3 -95 0q17 8 17 26t-17 27q-20 9 -59 29q-131 73 -131 194q0 91 55.5 145t146.5 58q76 4 140 -53q-3 -10 -77 -91q-32 24 -46 24q-17 0 -31 -12.5
t-14 -29.5q0 -27 26 -36q22 -13 67 -35q151 -63 151 -218zM402 236q0 63 -41 116q-38 48 -100 76q-51 22 -65 32q-37 24 -42 57q-5 32 20 52t59 20q7 0 23.5 -8t18.5 -9l36 50q-48 27 -90 27q-71 0 -123.5 -49.5t-52.5 -120.5q0 -54 29 -94q22 -31 74 -67q33 -16 65 -32
q39 -22 36 -55h58q2 9 2 15q0 45 -54 79l-100 56q-54 38 -54 94q0 1 1 2q24 -44 88 -81q98 -56 103 -59q48 -38 48 -93q0 -61 -43.5 -110.5t-104.5 -49.5q-62 0 -113 60q-16 -13 -43 -42q25 -38 68.5 -59t89.5 -21q84 0 145.5 65t61.5 149zM77 785l55 58l80 -44l75 46
l58 -60l-130 -83zM118 791l97 -59l94 59l-25 24l-72 -44l-75 41z" />
    <glyph glyph-name="product" unicode="&#x220f;" horiz-adv-x="508" 
d="M432 230q0 -105 -68 -170.5t-172 -65.5q-124 0 -198 106l92 91q14 -30 42.5 -53t60.5 -23q35 0 69 26.5t41 60.5q-66 3 -95 0q17 8 17 26t-17 27q-20 9 -59 29q-131 73 -131 194q0 91 55.5 145t146.5 58q76 4 140 -53q-3 -10 -77 -91q-32 24 -46 24q-17 0 -31 -12.5
t-14 -29.5q0 -27 26 -36q22 -13 67 -35q151 -63 151 -218zM402 236q0 63 -41 116q-38 48 -100 76q-51 22 -65 32q-37 24 -42 57q-5 32 20 52t59 20q7 0 23.5 -8t18.5 -9l36 50q-48 27 -90 27q-71 0 -123.5 -49.5t-52.5 -120.5q0 -54 29 -94q22 -31 74 -67q33 -16 65 -32
q39 -22 36 -55h58q2 9 2 15q0 45 -54 79l-100 56q-54 38 -54 94q0 1 1 2q24 -44 88 -81q98 -56 103 -59q48 -38 48 -93q0 -61 -43.5 -110.5t-104.5 -49.5q-62 0 -113 60q-16 -13 -43 -42q25 -38 68.5 -59t89.5 -21q84 0 145.5 65t61.5 149zM77 785l55 58l80 -44l75 46
l58 -60l-130 -83zM118 791l97 -59l94 59l-25 24l-72 -44l-75 41z" />
    <glyph glyph-name="pi" unicode="&#x3c0;" horiz-adv-x="556" 
d="M235 0h-131l78 206l-178 466h131l70 -178l69 178h217zM440 637h-146l-91 -226l-91 227h-58l149 -373l125 316h37l-210 -547h54zM263 701h-83l103 127h108zM341 807h-48l-72 -85h32z" />
    <glyph glyph-name="integral" unicode="&#x222b;" horiz-adv-x="556" 
d="M235 0h-131l78 206l-178 466h131l70 -178l69 178h217zM440 637h-146l-91 -226l-91 227h-58l149 -373l125 316h37l-210 -547h54zM263 701h-83l103 127h108zM341 807h-48l-72 -85h32z" />
    <glyph glyph-name="Omega" unicode="&#x3a9;" horiz-adv-x="739" 
d="M512 231l-194 -1q15 -17 33 -28h-114l11 -11q22 -40 80 -67q52 -24 100 -24q47 0 116 32q10 5 38 27l92 -77q-45 -48 -120 -76q-66 -25 -126 -25q-119 0 -214 72q-92 69 -127 178h-85v105l68 -1v2q0 21 3 42h-73v104h103q43 91 132 146t193 55q132 0 238 -89
q-3 -8 -78 -90q-19 13 -49 32q-55 24 -74 24h-42v-79l91 1v-104h-225q-8 -21 -8 -43h230zM487 405l-1 49h-136q-31 -19 -49 -50zM622 86q-13 11 -37 34q-70 -50 -159 -50q-108 0 -186.5 76t-78.5 188q0 136 119 216q39 26 52 26q6 0 8 -2v-26q-69 -28 -111 -95
q-36 -59 -36 -117q0 -41 25 -104h58q-19 36 -24 54q-3 14 -3 46q0 64 39.5 113t102.5 61v87h24q15 -1 17 -1q71 0 149 -43q13 12 33 38q-92 61 -184 61q-127 0 -223 -89q-99 -91 -102 -223q-2 -91 45 -168q43 -69 118 -113q69 -40 157 -40q47 0 108 20q65 22 89 51zM485 260
v46h-202q4 -24 15 -45zM91 454h-64v-49h50q5 25 14 49zM79 261q-5 22 -7 45h-43v-46z" />
    <glyph glyph-name="Omega" unicode="&#x2126;" horiz-adv-x="739" 
d="M512 231l-194 -1q15 -17 33 -28h-114l11 -11q22 -40 80 -67q52 -24 100 -24q47 0 116 32q10 5 38 27l92 -77q-45 -48 -120 -76q-66 -25 -126 -25q-119 0 -214 72q-92 69 -127 178h-85v105l68 -1v2q0 21 3 42h-73v104h103q43 91 132 146t193 55q132 0 238 -89
q-3 -8 -78 -90q-19 13 -49 32q-55 24 -74 24h-42v-79l91 1v-104h-225q-8 -21 -8 -43h230zM487 405l-1 49h-136q-31 -19 -49 -50zM622 86q-13 11 -37 34q-70 -50 -159 -50q-108 0 -186.5 76t-78.5 188q0 136 119 216q39 26 52 26q6 0 8 -2v-26q-69 -28 -111 -95
q-36 -59 -36 -117q0 -41 25 -104h58q-19 36 -24 54q-3 14 -3 46q0 64 39.5 113t102.5 61v87h24q15 -1 17 -1q71 0 149 -43q13 12 33 38q-92 61 -184 61q-127 0 -223 -89q-99 -91 -102 -223q-2 -91 45 -168q43 -69 118 -113q69 -40 157 -40q47 0 108 20q65 22 89 51zM485 260
v46h-202q4 -24 15 -45zM91 454h-64v-49h50q5 25 14 49zM79 261q-5 22 -7 45h-43v-46z" />
    <glyph glyph-name="radical" unicode="&#x221a;" horiz-adv-x="0" 
 />
    <glyph glyph-name="approxequal" unicode="&#x2248;" horiz-adv-x="0" 
 />
    <glyph glyph-name="approxequal" unicode="&#x22f2;" horiz-adv-x="0" 
 />
    <glyph glyph-name="Delta" unicode="&#x394;" horiz-adv-x="0" 
 />
    <glyph glyph-name="Delta" unicode="&#x2206;" horiz-adv-x="0" 
 />
    <glyph glyph-name="lozenge" unicode="&#x25ca;" horiz-adv-x="0" 
 />
    <glyph glyph-name="fraction" unicode="&#x2044;" horiz-adv-x="0" 
 />
    <glyph glyph-name="fi" unicode="&#xf001;" horiz-adv-x="0" 
 />
    <glyph glyph-name="fl" unicode="&#xf002;" horiz-adv-x="0" 
 />
    <glyph glyph-name="apple" unicode="&#xf000;" 
 />
    <glyph glyph-name="dotlessi" unicode="&#x131;" horiz-adv-x="299" 
d="M217 268l-90 -74l2 -195h-124v673h212v-404zM182 285v351h-140v-605h52l1 565h34v-357z" />
    <glyph glyph-name="breve" unicode="&#x2d8;" horiz-adv-x="319" 
d="M11 772l54 57q17 -14 37.5 -20t43.5 -11q19 4 37 9.5t38 24.5l58 -66q-56 -56 -130 -63q-51 4 -77 16q-31 14 -61 53zM45 772q38 -38 98 -42q48 8 60 12q21 7 41 30l-26 30q-14 -14 -33 -20.5t-39 -12.5q-20 4 -40 8.5t-38 17.5z" />
    <glyph glyph-name="dotaccent" unicode="&#x2d9;" horiz-adv-x="212" 
d="M44 760q0 21 14.5 35t34.5 14t34.5 -14t14.5 -35q0 -20 -14.5 -34.5t-34.5 -14.5t-34.5 14.5t-14.5 34.5z" />
    <glyph glyph-name="ring" unicode="&#x2da;" horiz-adv-x="233" 
d="M131 771q0 -15 -10.5 -25.5t-26.5 -10.5q-15 0 -26 11t-11 27q0 15 11.5 25t27.5 10q14 0 24.5 -11t10.5 -26zM159 769q0 27 -19 47t-46 20q-28 0 -47 -18.5t-19 -47.5q0 -27 19.5 -46t47.5 -19q26 0 45 19t19 45z" />
    <glyph glyph-name="hungarumlaut" unicode="&#x2dd;" horiz-adv-x="348" 
d="M208 714h-67l83 102h86zM270 798h-38l-58 -68h26zM98 714h-67l83 102h86zM160 798h-38l-58 -68h26z" />
    <glyph glyph-name="ogonek" unicode="&#x2db;" horiz-adv-x="247" 
d="M106 36h-101l44 -224h138zM139 -159l-60 1l-36 161h40z" />
    <glyph glyph-name="caron" unicode="&#x2c7;" horiz-adv-x="653" 
d="M152 776l55 57l80 -43l75 46l58 -60l-130 -83zM193 782l97 -59l94 59l-25 24l-72 -45l-75 42z" />
    </font>
</defs>
</svg>
