<?xml version="1.0" standalone="no"?>
<!DOCTYPE svg PUBLIC "-//W3C//DTD SVG 1.1//EN" "http://www.w3.org/Graphics/SVG/1.1/DTD/svg11.dtd" >
<svg>
<metadata>
Created by FontForge 20120731 at Wed Apr 17 21:54:14 2019
 By www-data
Digitized by Dan X. Solo.  Software (c) 2000 by Dover Publications, Inc., New York.
</metadata>
<defs>
<font id="Leonard" horiz-adv-x="20" >
  <font-face 
    font-family="Leonard"
    font-weight="400"
    font-stretch="normal"
    units-per-em="1000"
    panose-1="0 0 4 0 0 0 0 0 0 0"
    ascent="800"
    descent="-200"
    x-height="537"
    cap-height="678"
    bbox="-14 -250 1372 850"
    underline-thickness="20"
    underline-position="-123"
    unicode-range="U+0020-F002"
  />
<missing-glyph horiz-adv-x="500" 
d="M63 0v800h375v-800h-375zM125 63h250v675h-250v-675z" />
    <glyph glyph-name=".notdef" horiz-adv-x="500" 
d="M63 0v800h375v-800h-375zM125 63h250v675h-250v-675z" />
    <glyph glyph-name=".null" horiz-adv-x="0" 
 />
    <glyph glyph-name="glyph2" horiz-adv-x="388" 
 />
    <glyph glyph-name="space" unicode=" " horiz-adv-x="388" 
 />
    <glyph glyph-name="exclam" unicode="!" horiz-adv-x="399" 
d="M56 98l-18 -81q1 -18 19 -18h213q32 0 42 34l16 87q-4 11 -12 11q-204 5 -204 3q-25 -1 -41.5 -11t-14.5 -25zM10 642q22 -68 40 -179q18 -114 16 -188q16 -64 58 -83q21 -8 42 -15q38 -12 80 -13q30 -4 54.5 12.5t34.5 46.5q4 50 4 93q0 163 -74 357q-7 13 -22 11
l-223 -24q-7 1 -9.5 -5.5t-0.5 -12.5z" />
    <glyph glyph-name="quotedbl" unicode="&#x22;" horiz-adv-x="452" 
d="M3 654q33 -100 31 -202q9 -35 32 -46q15 -7 67 -15q36 -5 49 32q2 28 2 52q0 89 -41 196q-3 7 -11 6l-124 -13q-3 -3 -5 -10zM213 654q33 -100 31 -202q9 -35 32 -46q15 -7 67 -15q36 -5 49 32q2 28 2 52q0 89 -41 196q-3 7 -11 6l-124 -13q-3 -3 -5 -10z" />
    <glyph glyph-name="numbersign" unicode="#" horiz-adv-x="587" 
d="M253 411l-31 -138h88l30 138h-87zM307 660l-32 -149l87 1l32 148q2 10 10 10h63q12 0 10 -10l-33 -148l97 -1q10 0 14 -23l-12 -43q-10 -34 -42 -34h-78l-30 -138h104q8 0 12 -11l-16 -57q-10 -34 -42 -34h-81l-35 -165q-3 -10 -10 -10h-63q-12 0 -10 10l36 165h-88
l-35 -165q-3 -10 -10 -10h-63q-12 0 -10 10l36 165h-90q-18 0 -19 18l18 51q-3 29 52 32q17 0 61 1l30 138h-102q-18 0 -19 18l19 56q-2 25 56 27q16 0 65 -1l35 149q2 10 10 10h63q12 0 10 -10z" />
    <glyph glyph-name="dollar" unicode="$" horiz-adv-x="805" 
d="M326 31q-10 0 -10 -10v-30q36 -1 75 -1h38v31q0 10 -10 10h-93zM326 761h93q10 0 10 -10v-80q148 -2 259 -28l55 -228q-137 37 -249 36q2 13 2 24q0 78 -88 78q-99 0 -99 -69q0 -32 23.5 -55.5t56.5 -23.5q17 0 11 1l293 -31q18 -2 34.5 -18t19.5 -34q1 -5 1 -39
q0 -126 -38 -264q-128 -27 -281 -30v-99q0 -10 -10 -10h-93q-10 0 -10 10v100q-155 6 -286 36l29 251q27 5 62 5q102 0 163 -24q-29 -30 -29 -76q0 -37 23.5 -58.5t61.5 -21.5q44 0 76 27t32 70q0 27 -14.5 52t-38.5 36q-103 44 -234 44q-14 0 -42 -3t-41 -3q-21 0 -22 23
q-5 135 -47 284q152 30 307 37v81q0 10 10 10z" />
    <glyph glyph-name="percent" unicode="%" horiz-adv-x="841" 
d="M784 160q0 -60 -2 -85q-6 -52 -44.5 -64t-92.5 -12q-71 0 -158 22q10 72 10 145q0 25 -5 73t-5 71q0 28 14.5 44t36.5 16q11 0 34.5 1.5t34.5 1.5q98 0 153 -19q24 -96 24 -194zM688 230q0 25 -12.5 42.5t-30.5 17.5q-26 0 -46 -54q-16 -47 -16 -85q0 -57 37 -57
q16 0 25 11q6 7 13 19q19 32 28 90q2 14 2 16zM519 670h63q14 0 10 -10l-302 -654q-5 -10 -10 -10h-63q-14 0 -10 10l302 654q5 10 10 10zM334 460q0 -60 -2 -85q-6 -52 -44.5 -64t-92.5 -12q-71 0 -158 22q10 72 10 145q0 25 -5 73t-5 71q0 28 14.5 44t36.5 16
q11 0 34.5 1.5t34.5 1.5q98 0 153 -19q24 -96 24 -194zM238 530q0 25 -12.5 42.5t-30.5 17.5q-26 0 -46 -54q-16 -47 -16 -85q0 -57 37 -57q16 0 25 11q6 7 13 19q19 32 28 90q2 14 2 16z" />
    <glyph glyph-name="ampersand" unicode="&#x26;" horiz-adv-x="918" 
d="M836 33q-274 -43 -416 -43q-170 0 -297 26q-14 3 -27 17q-5 7 -11 14q-37 79 -32 161q6 23 52 48q36 18 72 35q-75 25 -111 58q-22 20 -23 51q-1 114 -1 112q0 46 21 87q23 48 63 57q107 27 288 27q167 0 350 -34l-32 -243l-194 1q10 30 10 46q0 43 -36 68q-32 22 -77 22
q-47 0 -86 -24q-44 -28 -44 -71q0 -35 19.5 -58t53.5 -23q31 0 85 23l37 -114q-32 0 -38 -1q-16 -2 -36 -10q-11 -5 -20 -27q-7 -18 -7 -33q0 -30 24 -47.5t54 -17.5q74 0 102 28q13 18 13 40q0 17 -7 31q-17 0 -17 8v56q0 10 10 10h287q10 0 10 -10v-56q0 -10 -10 -10h-87
q18 -106 58 -204z" />
    <glyph glyph-name="quotesingle" unicode="'" horiz-adv-x="224" 
d="M3 654q33 -100 31 -202q9 -35 32 -46q15 -7 67 -15q36 -5 49 32q2 28 2 52q0 89 -41 196q-3 7 -11 6l-124 -13q-3 -3 -5 -10z" />
    <glyph glyph-name="parenleft" unicode="(" horiz-adv-x="320" 
d="M159 683h89q10 0 10 -10q-109 -191 -109 -340q0 -162 119 -330q0 -10 -10 -10h-99q-10 0 -10 10q-61 65 -95.5 157t-34.5 189q0 194 130 324q0 10 10 10z" />
    <glyph glyph-name="parenright" unicode=")" horiz-adv-x="320" 
d="M129 -7h-90q-10 0 -10 10q109 190 109 340q0 162 -119 330q0 10 10 10h100q10 0 10 -10q60 -65 94.5 -157t34.5 -189q0 -195 -129 -324q0 -10 -10 -10z" />
    <glyph glyph-name="asterisk" unicode="*" horiz-adv-x="374" 
d="M326 473l-43 -76l-80 58l8 -99h-87l10 101l-82 -60l-43 76l89 42l-90 40l44 76l82 -57l-10 98l87 1l-8 -97l79 55l44 -76l-90 -40z" />
    <glyph glyph-name="plus" unicode="+" horiz-adv-x="544" 
d="M203 69v168h-168q-10 0 -10 10v83q0 10 10 10h168v169q0 10 10 10h84q10 0 10 -10v-169h168q10 0 10 -10v-83q0 -10 -10 -10h-168v-168q0 -10 -10 -10h-84q-10 0 -10 10z" />
    <glyph glyph-name="comma" unicode="," horiz-adv-x="353" 
d="M274 17q-14 -28 -50 -68q-32 -34 -44 -41q-9 -10 -18 -10h-60q-13 0 -10 10q7 13 33.5 43t37.5 48h-136q-18 0 -19 18l18 81q-3 30 58 33q0 1 202 0q8 0 12 -11q-4 -24 -7 -48q-9 -45 -17 -55z" />
    <glyph glyph-name="hyphen" unicode="-" horiz-adv-x="354" 
d="M27 330l-18 -81q1 -18 19 -18h213q32 0 42 34l16 87q-4 11 -12 11q-204 3 -204 1q-59 -3 -56 -34z" />
    <glyph glyph-name="hyphen" unicode="&#x2010;" horiz-adv-x="354" 
d="M27 330l-18 -81q1 -18 19 -18h213q32 0 42 34l16 87q-4 11 -12 11q-204 3 -204 1q-59 -3 -56 -34z" />
    <glyph glyph-name="period" unicode="." horiz-adv-x="374" 
d="M26 98l-18 -81q1 -18 19 -18h213q32 0 42 34l16 87q-4 11 -12 11q-210 1 -210 0q-53 -3 -50 -33z" />
    <glyph glyph-name="slash" unicode="/" horiz-adv-x="433" 
d="M314 670h63q14 0 10 -10l-302 -654q-5 -10 -10 -10h-63q-15 0 -10 10l302 654q5 10 10 10z" />
    <glyph glyph-name="zero" unicode="0" horiz-adv-x="801" 
d="M759 288q0 -111 -7 -158q-7 -52 -33 -79t-77 -39q-95 -22 -227 -22q-175 0 -390 41q23 133 23 268q0 46 -12 134.5t-12 132.5q0 51 38 82q35 28 88 28q29 0 86 3t85 3q241 0 377 -35q61 -178 61 -359zM521 418q0 45 -31 78t-76 33q-63 0 -112 -101q-41 -86 -41 -158
q0 -44 24.5 -74t66.5 -30q39 0 63 20q2 2 21 27q59 75 80 175q5 25 5 30z" />
    <glyph glyph-name="one" unicode="1" horiz-adv-x="440" 
d="M97 670q-15 -55 -60 -99q37 -178 37 -301q0 -118 -31 -270h291q38 156 38 289q0 179 -84 394z" />
    <glyph glyph-name="two" unicode="2" horiz-adv-x="846" 
d="M64 437l220 2q-18 21 -18 43q0 30 45 54q38 20 71 20q74 0 74 -62q0 -37 -30 -51l-289 -140q-33 -28 -41 -38q-16 -20 -25 -52q-25 -96 -29 -213h706q33 139 33 261h-221q12 -17 12 -32q0 -16 -17 -38q-54 -34 -95 -34q-27 0 -50 15q-27 17 -27 43q0 29 25 49
q65 55 175 75q70 13 193 16q-10 131 -41 242q-85 56 -165 68q-145 23 -257 23q-129 0 -271 -30q-35 -7 -30 -26z" />
    <glyph glyph-name="three" unicode="3" horiz-adv-x="904" 
d="M18 643q42 -102 59 -213h203q-1 3 -10 22q-8 15 -8 23q0 14 8 14q34 41 108 41q31 0 52 -14q25 -16 25 -45q0 -43 -23 -52q-42 -18 -101 -18l64 -127q41 35 81 35q34 0 53.5 -23t19.5 -58q0 -43 -44 -71q-39 -24 -86 -24q-44 0 -72 22q-31 24 -31 68q0 26 17 47h-241
l-24 -245q190 -35 370 -35q168 0 290 30q40 9 68 56q24 42 24 85l-1 153q-1 20 -21 33q-27 17 -58.5 27.5t-62.5 20.5q32 17 65 35q40 24 54 46q-8 67 -11 80q-7 33 -26 73q-6 7 -11 14q-13 14 -27 17q-127 26 -287 26q-141 0 -416 -43z" />
    <glyph glyph-name="four" unicode="4" horiz-adv-x="893" 
d="M149 649q-25 -65 -46 -98q-15 -24 -66 -82q13 -94 13 -214q0 -72 -6 -125q202 48 348 46h13q-12 -47 -123 -176h504q-61 111 -67 171l103 -22q8 51 8 118q0 93 -13 181q-64 -69 -142 -104q-11 55 -9 156l-193 -85l-7 -103l-61 -3q-29 0 -47.5 24.5t-18.5 54.5q0 48 36 77
q9 6 53 28q136 66 335 64h32l-41 121q-111 14 -260 14q-187 0 -322 -19q-15 -2 -23 -24z" />
    <glyph glyph-name="five" unicode="5" horiz-adv-x="844" 
d="M29 656q58 -171 63 -311q59 7 114 7q123 0 196 -31q44 -18 68.5 -54t22.5 -76q-19 -65 -90 -65q-33 0 -61 16.5t-33 42.5q-3 12 -3 21q0 38 45 57l-258 1q-6 -130 -25 -233q186 -41 357 -41q143 0 255 30q36 6 59.5 38t25.5 76l11 233q-6 48 -52 56q-45 17 -145 33
q-90 14 -164 18q-43 2 -43 40q0 20 13.5 37t33.5 19q180 -16 329 -77q-8 102 -40 167q-183 26 -330 26q-157 0 -349 -30z" />
    <glyph glyph-name="six" unicode="6" horiz-adv-x="861" 
d="M809 294q0 -126 -15 -177q-27 -98 -118 -114q-86 -15 -206 -15q-207 0 -430 45q27 151 27 271q0 163 -61 349q175 35 339 35q156 0 399 -37q45 -110 52 -203h-260q14 33 14 54q0 29 -25 46q-22 14 -52 14q-87 0 -148 -93q-15 -22 -15 -39q0 -23 20 -36q17 -12 40 -12
q31 0 97.5 8t100.5 8q120 0 198 -23q39 -12 42 -48q1 -6 1 -33zM531 228q0 45 -82 45q-86 0 -126 -60q-9 -13 -9 -27q0 -52 71 -52q52 0 94 21q52 26 52 73z" />
    <glyph glyph-name="seven" unicode="7" horiz-adv-x="819" 
d="M5 645q55 -168 54 -299l235 -2q-17 40 -17 67q0 47 38 85.5t85 38.5q24 0 47 -10q41 -41 41 -84q0 -75 -77 -135q-76 -56 -152 -111q-88 -80 -108 -195h405q-29 48 -29 101q0 58 39.5 118t93.5 82q1 0 98 29v7q1 165 -63 310q-206 34 -354 34q-158 0 -336 -36z" />
    <glyph glyph-name="eight" unicode="8" horiz-adv-x="805" 
d="M754 283q0 -55 -10 -161q-3 -31 -36 -66.5t-64 -43.5q-79 -20 -194 -20q-45 0 -77 4q-38 4 -36 4q-163 0 -292 43q-16 6 -15 16l20 200q6 60 112 103l-2 11q-86 39 -100.5 50t-16.5 38q-4 49 -19 96q14 54 30 75q21 27 70 36q73 14 278 14q57 0 141 -7q108 -8 132 -20
q6 -5 20 -15q34 -72 34 -141q0 -77 -81 -119l9 -13q50 -20 63 -29q34 -22 34 -55zM439 491q0 14 -4 28q-17 16 -45.5 29.5t-50.5 13.5q-54 0 -54 -49q0 -14 2 -21q5 -19 38 -42t54 -23q60 0 60 64zM496 254q0 27 -20.5 50t-47.5 23q-43 0 -93 -38q-53 -40 -53 -81
q0 -30 22 -51.5t51 -21.5q32 0 86.5 44t54.5 75z" />
    <glyph glyph-name="nine" unicode="9" horiz-adv-x="805" 
d="M759 288q0 -119 -22 -179q-24 -65 -82 -85q-51 -30 -226 -30q-232 0 -397 48l27 218l258 -2q-36 -20 -36 -50q0 -37 45 -61q37 -19 78 -19q24 0 33 4q19 8 32 30t13 44q0 81 -131 115q-84 22 -211 22q-42 0 -83 -4q-11 57 -22 115q-14 76 -14 113q0 96 114 107
q148 15 256 15q207 0 298 -33q70 -218 70 -368zM492 518q0 61 -71 61q-50 0 -84 -17q-43 -23 -43 -67q0 -21 26 -46.5t48 -25.5q45 0 82 25q42 27 42 70z" />
    <glyph glyph-name="colon" unicode=":" horiz-adv-x="374" 
d="M26 398l-18 -81q1 -18 19 -18h213q32 0 42 34l16 87q-4 11 -12 11q-210 1 -210 0q-53 -3 -50 -33zM26 98l-18 -81q1 -18 19 -18h213q32 0 42 34l16 87q-4 11 -12 11q-210 1 -210 0q-53 -3 -50 -33z" />
    <glyph glyph-name="semicolon" unicode=";" horiz-adv-x="353" 
d="M274 17q-14 -28 -50 -68q-32 -34 -44 -41q-9 -10 -18 -10h-60q-13 0 -10 10q7 13 33.5 43t37.5 48h-136q-18 0 -19 18l18 81q-3 30 58 33q0 1 202 0q8 0 12 -11q-4 -24 -7 -48q-9 -45 -17 -55zM26 398l-18 -81q1 -18 19 -18h213q32 0 42 34l16 87q-4 11 -12 11
q-210 1 -210 0q-53 -3 -50 -33z" />
    <glyph glyph-name="less" unicode="&#x3c;" horiz-adv-x="403" 
d="M12 366l255 255q3 2 7 2t7 -2l59 -59q7 -7 0 -15l-190 -189l190 -190q7 -7 0 -14l-59 -59q-3 -3 -7 -3t-7 3l-255 256q-3 3 -3 7q0 5 3 8z" />
    <glyph glyph-name="equal" unicode="=" horiz-adv-x="553" 
d="M27 230l-18 -51q1 -18 19 -18h423q32 0 42 34l16 57q-4 11 -12 11q-414 3 -414 1q-59 -3 -56 -34zM27 420l-18 -51q1 -18 19 -18h423q32 0 42 34l16 57q-4 11 -12 11q-414 3 -414 1q-59 -3 -56 -34z" />
    <glyph glyph-name="greater" unicode="&#x3e;" horiz-adv-x="403" 
d="M337 350l-255 -255q-3 -3 -7 -3t-7 3l-59 59q-7 7 0 14l190 190l-190 189q-7 8 0 15l59 59q3 2 7 2t7 -2l255 -257q3 -3 3 -7t-3 -7z" />
    <glyph glyph-name="question" unicode="?" horiz-adv-x="770" 
d="M267 470q-5 15 -5 31q0 67 72 67q56 0 124 -35q14 -21 14 -33q0 -19 -24 -33q-100 -6 -197 -55q-65 -46 -65 -114q0 -64 56 -109q29 -30 76 -30q21 0 41 6q3 43 13 61q13 24 47 24q10 0 21 -2q63 -30 148 -27q62 3 98 51q32 44 32 112q1 113 -56 242q-8 20 -30 24
q-155 32 -380 32q-52 0 -93 -2q-72 -2 -115 -33.5t-48 -76.5q0 -3 16.5 -108.5t18.5 -105.5q46 31 118.5 66t117.5 48zM226 98l-18 -81q1 -18 19 -18l211 1q34 0 44 33l16 87q-4 11 -12 11q-204 5 -204 3q-25 -1 -41.5 -11t-14.5 -25z" />
    <glyph glyph-name="at" unicode="@" horiz-adv-x="684" 
d="M555 67h-117q-41 0 -58 45q-19 -45 -68 -45q-63 0 -93 64q-22 47 -22 112v84q0 59 30 112q37 64 95 64l136 -1l1 -294q0 -37 26 -37q4 0 12 -1h13q19 0 19 32v166q0 81 -23 132q-31 67 -97 67h-117q-68 0 -110 -67q-37 -58 -37 -135v-167q0 -71 37 -129q42 -66 111 -66
h214v-103h-214q-122 0 -191 95q-61 83 -61 207v166q0 124 61 207q68 95 190 95h117q107 0 167 -93q52 -80 52 -189v-228q0 -32 -18 -60q-22 -33 -55 -33zM370 400h-48q-30 0 -30 -73v-84q0 -73 30 -73q21 0 34.5 23t13.5 50v157z" />
    <glyph glyph-name="A" unicode="A" horiz-adv-x="919" 
d="M789 -2l-186 4q-13 0 -23 38q-13 49 -14 52q-33 57 -124 57q-54 0 -87 -49q-21 -31 -38 -96h-266q1 42 14 128t13 130q0 84 -18 182q-9 51 -40 179q239 32 264 35q147 17 264 17q144 0 203 -31q56 -30 75 -109q6 -26 28 -207q-1 -12 0 -51q1 -43 1 -69q0 -210 -66 -210z
M577 449q0 44 -33.5 75t-79.5 31q-61 0 -128 -65.5t-67 -124.5q0 -49 38 -81.5t89 -32.5q71 0 126 64t55 134z" />
    <glyph glyph-name="B" unicode="B" horiz-adv-x="896" 
d="M836 238q0 -109 -5 -140q-9 -54 -46 -75q-40 -23 -134 -23h-257h-347q1 44 15 141q14 91 12 143q-3 127 -21 205q-18 65 -36 131q251 55 503 55q159 0 220 -35q86 -49 80 -194q-1 -33 -42 -50q-20 -9 -76 -20q-41 -8 -43 -17q1 -22 38 -28q11 -1 59.5 -1t65.5 -23
q14 -20 14 -69zM546 470q0 55 -75 55q-40 0 -91 -30q-56 -33 -56 -69q0 -24 31 -24h97q94 0 94 68zM549 219q0 73 -135 73q-43 0 -75 -17q-39 -21 -39 -61q0 -93 109 -93q51 0 92 23q48 28 48 75z" />
    <glyph glyph-name="C" unicode="C" horiz-adv-x="854" 
d="M768 0l-732 1q27 73 35 131q6 46 6 136q0 102 -60 363q15 18 225 34q168 12 252 12q117 0 223 -24q27 -26 48 -126q18 -84 18 -140h-267q1 5 14 43q9 24 9 43q0 23 -20 42.5t-42 17.5q-92 -4 -151 -111q-49 -88 -49 -178q0 -49 40.5 -86.5t90.5 -37.5q40 0 78.5 29
t38.5 68q0 18 -6.5 31t-14.5 26q45 11 116 11q22 0 74 -2q47 -1 70 -1q30 0 30 -43q0 -111 -26 -239z" />
    <glyph glyph-name="D" unicode="D" horiz-adv-x="921" 
d="M863 280q0 -180 -102 -239q-72 -42 -268 -42l-453 2q34 203 34 290q0 75 -20 173q-5 22 -42 169q165 44 411 44q171 0 256 -27q98 -32 141 -116.5t43 -253.5zM602 404q0 49 -33.5 87.5t-82.5 38.5q-77 0 -137 -84q-54 -76 -54 -157q0 -59 27 -99q31 -46 87 -46
q75 0 137 95q56 85 56 165z" />
    <glyph glyph-name="E" unicode="E" horiz-adv-x="880" 
d="M822 225q0 -31 -15 -115q-15 -90 -27 -108q-709 0 -717 -2q12 84 12 185q0 182 -41 451q76 12 158 21q193 21 365 24q53 1 190 -26q15 -28 34.5 -104t19.5 -109l-234 1q-5 0 -3 13q4 21 4 17q0 35 -25.5 56t-59.5 21q-59 0 -98 -26q-48 -32 -48 -93q0 -17 7 -21.5
t22 -4.5h181q-23 -41 -71 -127l-28 22q-18 10 -47 10q-33 0 -59 -28t-26 -62q0 -93 115 -93q58 0 98 20q52 26 48 76q-3 40 -3 42q-3 14 -20 36l235 1q12 0 24 -4q9 -43 9 -73z" />
    <glyph glyph-name="F" unicode="F" horiz-adv-x="851" 
d="M798 347q-2 -2 -121 -2q-120 0 -122 2q6 23 7 34q1 9 0 23q-1 20 -1 36q0 39 -26 67t-65 28q-61 0 -101 -30q-49 -38 -50 -111q-1 -29 20 -32q95 -1 147 0q-4 -28 -15 -64q-19 -61 -20 -63q-15 6 -54 17q-8 2 -16 2q-29 0 -43.5 -18.5t-10.5 -41.5q10 -52 38 -107
q32 -60 69 -87l-394 1q29 182 29 297q0 138 -36 343q169 36 349 36h132q89 0 203 -27q81 -117 81 -303z" />
    <glyph glyph-name="G" unicode="G" horiz-adv-x="879" 
d="M813 319q9 -32 9 -84q0 -144 -38 -235h-153q-11 21 -44 21q-37 0 -120 -14.5t-131 -14.5h-97q-69 0 -189 35q26 129 26 240q0 190 -52 365q58 20 194 35q127 14 199 13q230 -6 318 -16q16 -36 30 -76q33 -95 45 -191h-260q20 20 20 72q0 71 -66 71q-9 0 -18 -2
q-104 -20 -154 -106q-40 -70 -40 -176q0 -57 22 -96q27 -49 81 -49q39 0 86 12q65 16 72 45q2 10 2 18q0 32 -51 32q-18 -6 -49 -18q-37 73 -52 120q136 -2 410 -1z" />
    <glyph glyph-name="H" unicode="H" horiz-adv-x="905" 
d="M852 225q0 -48 -38 -225q-79 -1 -163 -1q-73 0 -120 1q49 117 49 181q0 54 -42.5 97t-96.5 43q-70 0 -106 -61q-29 -50 -29 -125q0 -44 20 -134l-292 -1q40 196 40 289q0 184 -56 358q49 24 285 24q13 0 26 -1q-11 -23 -11 -59q0 -86 15 -126q25 -64 98 -64q52 0 87 50
q31 45 31 99q0 29 -12.5 51t-25.5 44q16 9 26 5q15 7 98 7q77 0 154 -9q63 -252 63 -324v-119z" />
    <glyph glyph-name="I" unicode="I" horiz-adv-x="436" 
d="M341 2q-33 -7 -107 -7q-36 0 -93 2q-75 3 -93 3q2 11 21 116q13 70 13 116q0 129 -9 193q-3 19 -47 215q109 38 218 38q30 0 56 -4q80 -179 80 -395q0 -149 -39 -277z" />
    <glyph glyph-name="J" unicode="J" horiz-adv-x="814" 
d="M733 62q-35 -28 -143 -51q-96 -20 -155 -20q-230 0 -417 49q36 117 36 239q0 37 -4 69l284 -1q-63 -48 -63 -139q0 -36 25 -58t62 -22q133 0 133 120q0 149 -191 417q17 11 199 11q115 0 171 -19q79 -258 79 -418q0 -87 -16 -177z" />
    <glyph glyph-name="K" unicode="K" horiz-adv-x="896" 
d="M8 638q66 -161 66 -348q0 -131 -31 -290h294q-26 74 -26 165q0 29 3 54q9 40 35.5 66t60.5 26q37 0 71 -31q61 -68 61 -161q0 -51 -17 -119h269q34 110 38 225q3 62 -70 83l-122 35q-25 3 -25 18q0 16 25 24q65 11 148 48q29 13 22 61q-12 80 -48 150q-11 16 -38 26
q-124 18 -237 6q7 -74 -16 -147q-27 -63 -95 -63q-28 0 -47.5 15t-19.5 41q0 8 2 16q0 19 12 69q14 55 27 72q-140 4 -342 -41z" />
    <glyph glyph-name="L" unicode="L" horiz-adv-x="859" 
d="M19 643q58 -142 58 -346q0 -157 -38 -294h719q43 150 43 288q0 21 -19 21l-279 2q25 -34 25 -65q0 -48 -37 -77t-86 -29q-46 0 -71 29.5t-25 76.5q0 66 53 216q45 124 89 212q-33 2 -72 2q-182 0 -360 -36z" />
    <glyph glyph-name="M" unicode="M" horiz-adv-x="1039" 
d="M15 631q64 -148 64 -364q0 -140 -29 -267h279q-15 58 -15 119q0 100 49 100t49 -132q0 -45 -8 -87h223q-31 88 -31 185q0 85 48 85q35 0 45 -36q16 -59 16 -158q0 -41 -3 -76l255 4q33 161 33 283q0 165 -75 363q-74 23 -202 23q-43 0 -82 -3q32 -66 32 -115
q0 -57 -44.5 -90.5t-103.5 -33.5q-72 0 -118.5 54t-46.5 127q0 4 24 62h-5q-246 0 -354 -43z" />
    <glyph glyph-name="N" unicode="N" horiz-adv-x="871" 
d="M-1 635q69 -182 69 -344q0 -119 -32 -291h285q-25 78 -25 169q0 117 65 117q28 0 61 -31q103 -97 107 -255h252q33 191 33 307q0 174 -68 335q-104 29 -252 28h-18q35 -48 48 -82q14 -39 14 -94q0 -28 -14 -48q-15 -23 -43 -23q-56 0 -94 71q-32 60 -32 120q0 28 5 56
q-27 2 -59 2q-150 0 -302 -37z" />
    <glyph glyph-name="O" unicode="O" horiz-adv-x="914" 
d="M864 171q-7 -119 -121 -146q-143 -34 -341 -34q-248 0 -363 65q26 138 26 240q0 47 -12 132.5t-12 121.5q0 44 29 72t74 33q184 21 299 21q183 0 369 -60q56 -144 56 -332q0 -52 -4 -113zM611 412q0 50 -35.5 84.5t-86.5 34.5q-79 0 -142 -94q-56 -84 -56 -166
q0 -48 42 -86.5t89 -38.5q75 0 135 98q54 88 54 168z" />
    <glyph glyph-name="P" unicode="P" horiz-adv-x="857" 
d="M12 644q66 -150 66 -364q0 -144 -32 -280h317q-69 126 -69 260q0 104 46 178q54 88 153 88q24 0 39 -16t15 -37q0 -19 -12 -35q-25 -31 -69 -59q-38 -24 -75 -47q-41 -29 -41 -93q0 -49 43 -101v9q-4 110 154 110q22 0 55 -5.5t49 -5.5q20 0 41 5q57 14 90.5 59.5
t33.5 105.5q0 30 -26 115q-23 80 -40 115q-64 12 -127 24q-70 12 -144 12q-33 0 -70 -2q-250 -13 -397 -36z" />
    <glyph glyph-name="Q" unicode="Q" horiz-adv-x="929" 
d="M882 318q0 -175 -38 -229q-48 -68 -215 -71q-17 -12 -17 -16t5 -20q11 -32 42 -32q14 0 34 4l2 -5q-51 -72 -135 -72q-56 0 -100 35q-40 33 -60 88q-236 0 -355 72q14 101 14 231q0 42 -9.5 124.5t-9.5 122.5q0 65 48 93q35 21 108 27q153 13 271 13q221 0 361 -59
q54 -159 54 -306zM625 396q0 61 -37.5 102t-97.5 41q-74 0 -138 -93q-59 -86 -59 -164q0 -76 76 -117q7 97 74 97q23 0 51 -17q23 -15 45 -31q86 101 86 182z" />
    <glyph glyph-name="R" unicode="R" horiz-adv-x="887" 
d="M10 628q62 -164 62 -341q0 -111 -27 -287h341q-14 3 -36 88q-21 79 -21 104q0 44 26 72t69 28q65 0 92 -59q29 -62 29 -111q0 -60 -24 -122h275q37 140 37 239q0 19 -11 38t-29 23l-116 21q-6 1 -13 9.5t-7 14.5q0 11 15 21q65 13 133 28q17 14 17 20q0 31 -22 121
q-23 96 -38 101q-120 34 -307 34q-201 0 -445 -42zM320 411q-12 0 -12 31q0 38 55 70q49 29 89 29q30 0 49.5 -19t19.5 -48q0 -22 -15 -42.5t-37 -20.5h-149z" />
    <glyph glyph-name="S" unicode="S" horiz-adv-x="806" 
d="M16 633q42 -149 47 -284q1 -23 22 -23q13 0 41 3t42 3q131 0 234 -44q53 -23 53 -88q0 -43 -32 -70t-76 -27q-38 0 -61.5 21.5t-23.5 58.5q0 46 29 76q-61 24 -163 24q-35 0 -62 -5l-29 -251q161 -37 361 -37q176 0 319 30q38 138 38 264q0 34 -1 39q-3 18 -19.5 34
t-34.5 18l-293 31q6 -1 -11 -1q-33 0 -56.5 23.5t-23.5 55.5q0 69 99 69q88 0 88 -78q0 -11 -2 -24q112 1 249 -36l-55 228q-122 28 -290 28q-196 0 -389 -38z" />
    <glyph glyph-name="T" unicode="T" horiz-adv-x="837" 
d="M1 652l62 -274l146 -7q-5 24 -10 49q-6 31 -4 50v2q4 44 36 44q14 0 29 -10.5t13 -23.5q22 -66 22 -141q0 -180 -107 -341h433q-104 165 -104 329q0 68 28 150q14 39 43 39q27 0 33 -34q10 -58 5 -121h163v10q2 110 -54 272q-231 41 -389 41q-155 0 -345 -34z" />
    <glyph glyph-name="U" unicode="U" horiz-adv-x="837" 
d="M27 648q43 -140 43 -341q0 -151 -26 -272q187 -41 331 -41q244 0 316 43q59 34 77 99q11 39 11 127q0 232 -61 390q-46 17 -107 22q-13 1 -111 5l-35 2q56 -125 56 -289q0 -122 -33 -221q-36 -43 -81 -43q-54 0 -82 47q-33 57 -33 195q0 101 25 209q1 5 15 51
q12 42 12 45q0 4 -42 4q-13 1 -32 1q-59 0 -131 -9q-79 -10 -112 -24z" />
    <glyph glyph-name="V" unicode="V" horiz-adv-x="854" 
d="M10 647q53 -145 53 -332q0 -33 -1 -77q97 -129 132 -238h452q56 149 126 229l19 49q0 105 -15 184q-14 76 -52 176q-98 25 -222 25q-19 0 -35 -1q39 -154 39 -244q0 -49 -16 -147t-73 -98q-70 0 -100 135q-18 84 -18 192q0 94 18 170q-27 2 -61 2q-149 0 -246 -25z" />
    <glyph glyph-name="W" unicode="W" horiz-adv-x="1019" 
d="M9 651q23 -78 38 -194q16 -120 11 -197q91 -94 146 -260h613q38 129 98 205q37 47 41 54q14 25 14 68q0 137 -67 324q-95 29 -183 29q-41 0 -77 -5q33 -138 33 -321q0 -69 -8 -99q-16 -59 -67 -59q-82 0 -82 205q0 115 30 228l-162 -30l10 -254q0 -23 -12 -43
q-13 -23 -35 -23q-19 0 -30 17q-7 17 -15 34q-24 50 -27 95v117q0 58 21 138q-74 -3 -147 -6q-91 -6 -143 -23z" />
    <glyph glyph-name="X" unicode="X" horiz-adv-x="914" 
d="M2 644q28 -117 52 -177q19 -49 58 -49q19 0 41 -7q29 -10 29 -26q0 -10 -34 -28q-23 -12 -43.5 -25t-25 -20t-4.5 -28q0 -59 -12 -145q-13 -91 -31 -142q56 -2 146 0q112 3 146 3h18q-16 33 -18 69q1 -15 1 67q0 77 31 108q45 47 93 47q87 0 87 -177q0 -48 -13 -114h294
q27 111 27 228q0 30 -1 35q-4 29 -27.5 56t-50 34.5t-51.5 13.5q-38 12 -38 27q0 11 18 21q6 4 43.5 22t38.5 18q36 0 36 52q0 23 -14 68q-11 35 -22 69q-69 19 -247 19q-31 0 -64 -1q13 -131 13 -134q0 -30 -20 -46.5t-50 -16.5q-42 0 -62 26q-42 58 -67 174l-27 1
q-118 2 -250 -22z" />
    <glyph glyph-name="Y" unicode="Y" horiz-adv-x="855" 
d="M17 651q35 -90 48 -155q13 -69 13 -171q41 1 79 1q200 0 281 -32q26 -10 46.5 -42t20.5 -63q0 -30 -21.5 -48t-51.5 -18q-45 0 -81 18q-44 22 -44 63q0 28 21 49h-247q-14 -88 -24 -157q-10 -63 -10 -71v-1q7 -2 56 -10q165 -27 319 -27q209 0 321 42q22 8 28 30
q19 79 19 202q0 201 -61 395q-62 13 -173 13q-50 0 -110 -11q33 -115 33 -164q0 -34 -22.5 -54.5t-57.5 -20.5q-24 0 -47 13.5t-30.5 36t-7.5 89.5q0 61 18 112q-9 1 -89 1q-156 0 -226 -20z" />
    <glyph glyph-name="Z" unicode="Z" horiz-adv-x="826" 
d="M4 634q43 -102 61 -215q102 30 172 30q23 0 48 -2q-7 13 -7 25q0 30 35 51q31 18 64 18q34 0 48 -7q21 -11 21 -42q0 -25 -17 -36q-74 -51 -166 -92l-170 -72q-20 -8 -20 -36q0 -131 -31 -257h698q35 157 32 293q-36 1 -90 -1q-59 -1 -90 -1q-82 0 -82 -12q0 -4 6 -22
t6 -28q0 -40 -48 -77.5t-89 -37.5q-24 0 -39.5 18.5t-15.5 42.5q0 64 128 136q101 57 186 77q33 2 88 13q6 2 15.5 11.5t11.5 15.5q-21 138 -58 218q-153 32 -318 32q-190 0 -379 -43z" />
    <glyph glyph-name="bracketleft" unicode="[" horiz-adv-x="280" 
d="M230 802v-63h-108v-854h108v-63l-226 1v979h226z" />
    <glyph glyph-name="backslash" unicode="\" horiz-adv-x="433" 
d="M75 670h-63q-15 0 -10 -10l302 -654q5 -10 10 -10h63q14 0 10 10l-302 654q-5 10 -10 10z" />
    <glyph glyph-name="bracketright" unicode="]" horiz-adv-x="280" 
d="M5 802v-63h107v-854h-107v-63l225 1v979h-225z" />
    <glyph glyph-name="asciicircum" unicode="^" horiz-adv-x="611" 
d="M123 707l125 106h84l125 -106h-84l-81 41l-85 -41h-84z" />
    <glyph glyph-name="underscore" unicode="_" horiz-adv-x="443" 
d="M-4 -71h450v-41h-450v41z" />
    <glyph glyph-name="grave" unicode="`" horiz-adv-x="448" 
d="M142 840q194 -110 194 -112q0 -3 -8 -19t-10 -16q-3 0 -109.5 23.5t-106.5 25.5q0 3 40 98z" />
    <glyph glyph-name="a" unicode="a" horiz-adv-x="736" 
d="M688 108q-9 -114 -57 -114l-149 2q-14 1 -29 59q-3 12 -5 16q-24 43 -94 43q-41 0 -66 -37q-17 -25 -31 -78h-221q0 36 10.5 106t10.5 104q0 96 -47 294q196 26 216 28q119 14 212 14q117 0 160 -22q59 -30 74 -127q0 -1 16 -134q2 -47 0 -154zM371 439q-46 0 -98 -51
t-52 -96q0 -37 28.5 -62t67.5 -25q54 0 97 50t43 104q0 33 -25.5 56.5t-60.5 23.5z" />
    <glyph glyph-name="b" unicode="b" horiz-adv-x="717" 
d="M654 36q-28 -41 -133 -41h-488q0 38 12 117q11 74 10 115q-3 102 -18 163q-9 32 -30 110q207 45 409 45q128 0 178 -28q72 -41 67 -161q-1 -27 -33 -43q-20 -9 -61 -16q-33 -6 -35 -10q2 -18 73 -18q41 0 57 -21q12 -17 12 -58v-80q-4 -51 -20 -74zM377 415
q-31 0 -70 -23q-43 -26 -43 -52q0 -14 20 -14h78q70 0 70 50q0 39 -55 39zM332 229q-34 0 -58 -13q-29 -16 -29 -45q0 -69 82 -69q40 0 71 18q37 20 37 55q0 54 -103 54z" />
    <glyph glyph-name="c" unicode="c" horiz-adv-x="683" 
d="M619 -5l-597 1q23 62 29 110q6 37 6 109q0 81 -49 291q14 17 185 30q132 10 202 10q94 0 181 -19q24 -23 41 -105q15 -69 15 -117h-226q3 10 13 40q7 19 7 34q0 16 -14.5 30t-29.5 13q-71 -4 -117 -87q-38 -69 -38 -140q0 -37 30.5 -65.5t68.5 -28.5q31 0 60 22t29 50
q0 13 -6 25.5t-12 24.5q32 7 71 9q26 1 72 0q51 -2 71 -1q29 0 29 -40q0 -89 -21 -196z" />
    <glyph glyph-name="d" unicode="d" horiz-adv-x="737" 
d="M395 -5l-369 1q29 168 29 236q0 62 -17 141q-3 13 -35 137q138 36 335 36q204 0 275 -57q83 -67 83 -265q0 -147 -85 -196q-59 -33 -216 -33zM389 419q-59 0 -106 -65q-42 -60 -42 -123q0 -46 20 -76q24 -35 66 -35q58 0 106 74q43 67 43 129q0 38 -25.5 67t-61.5 29z
" />
    <glyph glyph-name="e" unicode="e" horiz-adv-x="704" 
d="M628 -1l-4 2q0 -5 -2 -5h-284q-283 0 -294 -2q11 71 11 156q0 145 -34 361q7 5 132 19q152 18 292 20q43 0 155 -21q14 -25 30 -87.5t16 -92.5h-192q-11 0 -8 17q3 16 3 12q0 26 -18.5 41.5t-44.5 15.5q-45 0 -75 -20q-36 -24 -36 -70q0 -16 18 -16h153q-21 -36 -64 -114
q-13 10 -26 21q-13 7 -35 7q-24 0 -43.5 -21t-19.5 -46q0 -70 87 -70q45 0 76 16q38 19 36 56q-3 32 -3 35q-3 10 -21 33l198 1q10 0 23 -4q9 -39 9 -63q0 -25 -12 -93q-13 -72 -23 -88z" />
    <glyph glyph-name="f" unicode="f" horiz-adv-x="681" 
d="M439 276q6 27 6 38q0 2 -1 14v24q0 29 -19.5 50t-48.5 21q-53 0 -84 -29q-34 -30 -32 -85q0 -13 11 -14q73 -1 124 0q-1 -7 -30 -113q-26 7 -35.5 11.5t-24.5 4.5q-21 0 -31 -13t-7 -29q8 -42 31 -85q27 -49 65 -76l-337 1q24 150 24 242q0 111 -30 278q141 30 286 30
h105q78 0 166 -22q17 -22 34 -64q32 -82 32 -184q-4 -4 -102 -4t-102 4z" />
    <glyph glyph-name="g" unicode="g" horiz-adv-x="704" 
d="M630 -5h-129q-8 17 -31 17q-30 0 -96.5 -11.5t-104.5 -11.5h-78q-56 0 -157 29q22 108 22 196q0 151 -43 295q50 17 160 29q102 12 161 11q184 -5 257 -13q47 -93 62 -224q-215 0 -221 5q19 19 19 58q0 52 -47 52q-81 0 -127 -74q-39 -63 -39 -148q0 -45 18 -75
q20 -36 60 -36q34 0 69 9q47 11 52 33q2 6 2 12q0 21 -35 21q-28 -9 -42 -15q-32 63 -47 107q113 -2 339 -1q8 -28 8 -73q0 -116 -32 -192z" />
    <glyph glyph-name="h" unicode="h" horiz-adv-x="724" 
d="M655 -5q-67 -1 -134 -1q-59 0 -104 1q42 100 42 150q0 41 -32.5 74t-73.5 33q-53 0 -80 -46q-23 -39 -23 -98q0 -35 17 -112l-246 -1q34 162 34 236q0 147 -47 289q44 22 234 22q11 0 28 -2q-11 -24 -11 -51q0 -68 12 -99q19 -49 74 -49q38 0 65 39q24 34 24 76
q0 38 -29 72l-3 5q17 11 27 8q23 5 79 5q62 0 127 -7q51 -205 51 -264v-95q0 -39 -31 -185z" />
    <glyph glyph-name="i" unicode="i" horiz-adv-x="349" 
d="M276 -3q-29 -6 -89 -6q-28 0 -75 2q-61 2 -79 2q1 9 17 95q10 58 10 96q0 102 -7 153q-2 15 -38 176q92 32 180 32q25 0 48 -3q66 -147 66 -320q0 -121 -33 -227z" />
    <glyph glyph-name="j" unicode="j" horiz-adv-x="651" 
d="M591 46q-30 -23 -118 -42q-77 -16 -125 -16q-184 0 -339 40q29 98 29 196q0 28 -4 60l248 -1q-60 -46 -60 -116q0 -27 18.5 -43.5t45.5 -16.5q102 0 102 92q0 117 -155 335q19 12 167 12q92 0 140 -17q64 -209 64 -338q0 -70 -13 -145z" />
    <glyph glyph-name="k" unicode="k" horiz-adv-x="717" 
d="M639 -5h-225q15 60 15 103q0 73 -48 122q-24 25 -53 25q-26 0 -46 -20t-26 -51q-3 -19 -3 -43q0 -69 23 -136h-248q26 131 26 237q0 150 -55 282q169 38 290 34q-13 -18 -25 -63q-10 -39 -10 -55q-1 -6 -1 -12q0 -40 47 -40q52 0 72 47q18 57 12 120q96 11 196 -4
q24 -9 34 -23q29 -58 39 -122q6 -42 -21 -54q-66 -30 -118 -39q-17 -5 -17 -13q0 -9 16 -10l98 -29q62 -17 60 -71q-3 -93 -32 -185z" />
    <glyph glyph-name="l" unicode="l" horiz-adv-x="688" 
d="M610 -3h-585q32 115 32 241q0 162 -49 280q149 30 295 30q32 0 66 -2q-38 -74 -74 -175q-43 -120 -43 -172q0 -36 19 -58t53 -22q38 0 66 22t28 58q0 23 -25 57l233 -1q20 -1 20 -22q0 -111 -36 -236z" />
    <glyph glyph-name="m" unicode="m" horiz-adv-x="831" 
d="M769 -2l-213 -3q3 33 3 65q0 79 -13 126q-6 25 -31 25q-33 0 -33 -63q0 -77 27 -153h-192q8 39 8 75q0 100 -35 100q-34 0 -34 -75q0 -48 14 -100h-236q24 107 24 219q0 171 -53 294q93 37 290 36h12q-22 -52 -22 -54q0 -57 36 -98.5t91 -41.5q46 0 79.5 25.5t33.5 68.5
q0 38 -28 96q39 3 73 3q103 0 166 -19q61 -161 61 -295q0 -98 -28 -231z" />
    <glyph glyph-name="n" unicode="n" horiz-adv-x="697" 
d="M629 -5h-211q-3 129 -84 205q-25 24 -45 24q-47 0 -47 -89q0 -72 21 -140h-240q26 143 26 238q0 129 -57 278q128 32 249 32q25 0 53 -3q-5 -27 -5 -49q0 -44 22 -90q28 -58 72 -58h2q40 1 40 53q0 43 -11 72.5t-43 72.5q144 1 229 -23q56 -133 56 -272q0 -93 -27 -251z
" />
    <glyph glyph-name="o" unicode="o" horiz-adv-x="731" 
d="M595 15q-114 -27 -273 -27q-200 0 -297 54q22 113 22 195q0 37 -9.5 106t-9.5 97q0 38 24.5 61.5t61.5 27.5q149 17 241 17q146 0 298 -49q47 -119 47 -270q0 -42 -4 -91q-6 -99 -101 -121zM391 420q-60 0 -109 -73q-44 -66 -44 -131q0 -35 32 -64.5t68 -29.5
q56 0 104 76q42 69 42 132q0 38 -27 64t-66 26z" />
    <glyph glyph-name="p" unicode="p" horiz-adv-x="685" 
d="M555 196q-17 -4 -34 -4q-13 0 -40 4t-43 4q-121 0 -119 -82l1 -22q-45 54 -45 95q0 54 35 78l60 38q35 23 54 47q9 11 9 24q0 15 -11 26.5t-28 11.5q-76 0 -118 -68q-36 -58 -36 -140q0 -106 59 -213h-268q27 114 27 229q0 170 -55 295q124 19 324 30q76 4 141 -4
q12 -2 136 -24q14 -30 33 -94q21 -69 21 -94q0 -50 -28 -87.5t-75 -49.5z" />
    <glyph glyph-name="q" unicode="q" horiz-adv-x="743" 
d="M505 9q-10 -6 -10 -7q0 -7 6.5 -22t25.5 -15q11 0 30 4l5 -10q-45 -62 -114 -62q-93 0 -132 98q-188 1 -286 60q12 83 12 187q0 32 -8 97t-7 96v5q0 55 41 79q29 17 89 22q122 10 216 10q178 0 293 -48q45 -130 45 -249q0 -141 -32 -185q-39 -57 -174 -60zM392 426
q-57 0 -106 -72q-46 -67 -46 -128q0 -55 51 -86q9 74 64 74q24 0 76 -36q64 78 64 139q0 47 -28.5 78t-74.5 31z" />
    <glyph glyph-name="r" unicode="r" horiz-adv-x="709" 
d="M640 -5h-231q22 55 22 102q0 38 -23 88q-20 43 -69 43q-32 0 -51.5 -20.5t-19.5 -54.5q0 -29 20 -81q26 -68 63 -77h-321q23 146 23 234q0 141 -52 278q202 34 363 34q150 0 247 -28q13 -3 33 -83q18 -73 18 -99q0 -7 -15 -19q-3 -3 -107 -24q-10 -6 -10 -12q0 -3 5 -8.5
t8 -5.5q40 -7 80 -13q49 -15 49 -58q0 -80 -32 -196zM362 428q-51 0 -105 -52q-6 -6 -6 -22q0 -20 5 -20h119q15 0 26 14.5t11 30.5q0 21 -14.5 35t-35.5 14z" />
    <glyph glyph-name="s" unicode="s" horiz-adv-x="645" 
d="M577 12q-117 -25 -259 -25q-160 0 -294 31l24 209q26 4 54 4q83 0 139 -22q-27 -28 -27 -63q0 -59 63 -59q34 0 58 20.5t24 52.5q0 49 -39 66q-82 34 -186 34q-11 0 -33 -2.5t-33 -2.5q-21 0 -22 24q-5 108 -39 231q160 32 317 32q135 0 236 -24l47 -193q-117 32 -212 31
q2 12 2 22q0 60 -65 60q-74 0 -74 -51q0 -24 17 -41t42 -17q14 0 9 1l235 -25q16 -2 30.5 -15.5t16.5 -30.5q2 -6 2 -16q-1 -118 -33 -231z" />
    <glyph glyph-name="t" unicode="t" horiz-adv-x="669" 
d="M636 286h-141q5 55 -3 100q-4 23 -21 23q-20 0 -30 -27q-23 -65 -23 -119q0 -130 88 -268h-365q90 135 90 278q0 59 -18 112q1 8 -8.5 15.5t-20.5 7.5q-21 0 -23 -32q-1 -16 4 -43l8 -42l-127 6l-51 229q157 28 282 28q127 0 314 -34q47 -133 45 -234z" />
    <glyph glyph-name="u" unicode="u" horiz-adv-x="669" 
d="M556 25q-60 -35 -256 -35q-116 0 -271 34q22 102 22 222q0 160 -35 275q34 15 112 24q73 8 114 4q38 -5 38 -8t-10 -38q-5 -18 -12 -40q-19 -86 -19 -166q0 -109 25 -153q21 -36 61 -36q34 0 61 32q25 78 25 174q0 130 -47 237q42 -1 125 -6q49 -4 89 -19
q50 -129 50 -315q0 -72 -9 -105q-15 -53 -63 -81z" />
    <glyph glyph-name="v" unicode="v" horiz-adv-x="683" 
d="M622 180q-56 -63 -101 -185h-369q-30 90 -108 194q1 35 1 62q0 150 -44 270q84 22 204 22q28 0 55 -3q-16 -65 -16 -140q0 -88 13 -151q22 -105 77 -105q41 0 53.5 75.5t12.5 114.5q0 72 -33 200q20 1 35 1q99 0 181 -20q54 -145 55 -293z" />
    <glyph glyph-name="w" unicode="w" horiz-adv-x="815" 
d="M769 205q-3 -6 -33 -44q-47 -61 -78 -166h-498q-45 135 -119 211q4 63 -8 158t-32 160q47 16 121 20q62 3 124 5q-19 -70 -19 -115v-93q2 -27 28 -89q9 -24 25 -24q34 0 34 82q0 25 -4 80q-4 66 -5 93l141 27q-26 -98 -26 -189q0 -159 60 -159q38 0 50 46q6 22 6 75
q0 143 -27 261q34 5 67 5q71 0 150 -24q55 -153 55 -264q0 -35 -12 -56z" />
    <glyph glyph-name="x" unicode="x" horiz-adv-x="731" 
d="M658 -5h-245q11 58 11 96q0 137 -64 137q-37 0 -72 -36q-23 -23 -23 -83q0 -61 0 -57q2 -26 16 -56q-7 -1 -22 -1q-24 0 -118 -2q-73 -2 -122 0q15 44 26 118q10 69 10 116q0 25 20 40l4 3l37 20q25 13 25 18q0 22 -52 22q-34 0 -51 42q-19 48 -42 147q111 20 232 18
q20 -96 53 -141q14 -19 45 -19q51 0 51 45q0 2 -10 113h57q142 0 201 -16q9 -28 18 -57q11 -36 11 -56q0 -47 -33 -47q-63 -28 -72 -37q-3 -3 -3 -7q0 -9 29 -17l38 -10q23 -7 43 -29.5t24 -47.5v-29q0 -94 -22 -187z" />
    <glyph glyph-name="y" unicode="y" horiz-adv-x="684" 
d="M621 46q-5 -20 -25 -28q-90 -34 -258 -34q-124 0 -257 22q-15 2 -44 8q-4 2 -4 6q0 6 8 59t19 128h215q-25 -24 -25 -44q0 -29 33 -46q27 -13 63 -13q22 0 37.5 13t15.5 35q0 23 -15.5 47t-35.5 32q-64 25 -222 25q-30 0 -69 -1q0 85 -10 141q-11 53 -40 128
q62 18 188 18q64 0 78 -2q-17 -45 -17 -93q0 -53 6 -71q12 -36 58 -36q25 0 42 15t17 40q0 39 -29 136q54 9 95 9q89 0 142 -11q50 -158 50 -320q0 -99 -16 -163z" />
    <glyph glyph-name="z" unicode="z" horiz-adv-x="661" 
d="M596 -6h-569q26 107 26 211q0 25 19 33q69 30 137 59q78 36 132 72q11 7 11 25q0 21 -14 29q-10 5 -36 5t-49 -14.5t-23 -38.5q0 -11 6 -24q-28 3 -46 3q-56 0 -142 -25q-16 95 -52 182q158 35 310 35q133 0 258 -26q31 -66 48 -179q-4 -18 -25 -26q-12 -5 -35 -6
q-27 -2 -36 -4q-67 -16 -147 -61q-100 -57 -100 -104q0 -19 11 -31.5t28 -12.5q31 0 67.5 28.5t36.5 57.5q0 8 -4.5 21.5t-4.5 19.5q0 5 32 10q26 4 38 4q24 0 73 1q44 1 77 1q2 -115 -27 -245z" />
    <glyph glyph-name="braceleft" unicode="{" horiz-adv-x="316" 
d="M87 43v167q0 40 -17 66.5t-49 26.5h-18v64h18q32 0 49 26.5t17 66.5v167q0 155 186 178v-104q-83 -7 -83 -74v-167q0 -72 -52 -125q52 -53 52 -125v-167q0 -68 83 -74v-104q-186 22 -186 178z" />
    <glyph glyph-name="bar" unicode="|" horiz-adv-x="316" 
d="M98 799h99v-935h-99v935z" />
    <glyph glyph-name="braceright" unicode="}" horiz-adv-x="317" 
d="M184 43v167q0 40 17 66.5t49 26.5h18v64h-18q-32 0 -49 26.5t-17 66.5v167q0 155 -186 178v-104q83 -7 83 -74v-167q0 -72 52 -125q-52 -53 -52 -125v-167q0 -68 -83 -74v-104q186 22 186 178z" />
    <glyph glyph-name="asciitilde" unicode="~" horiz-adv-x="544" 
d="M142 714h-61q7 53 40.5 82t79.5 27q38 -2 69 -18.5t43 -16.5q26 0 37 5q16 7 22 29h60q-13 -106 -122 -106q-37 0 -66 17.5t-45 17.5q-31 0 -40 -5q-14 -7 -17 -32z" />
    <glyph glyph-name="Adieresis" unicode="&#xc4;" horiz-adv-x="919" 
d="M789 -2l-186 4q-13 0 -23 38q-13 49 -14 52q-33 57 -124 57q-54 0 -87 -49q-21 -31 -38 -96h-266q1 42 14 128t13 130q0 84 -18 182q-9 51 -40 179q239 32 264 35q147 17 264 17q144 0 203 -31q56 -30 75 -109q6 -26 28 -207q-1 -12 0 -51q1 -43 1 -69q0 -210 -66 -210z
M577 449q0 44 -33.5 75t-79.5 31q-61 0 -128 -65.5t-67 -124.5q0 -49 38 -81.5t89 -32.5q71 0 126 64t55 134zM457 767q0 23 15.5 38.5t37.5 15.5t37.5 -15.5t15.5 -38.5q0 -22 -15.5 -37.5t-37.5 -15.5t-37.5 15.5t-15.5 37.5zM287 767q0 23 15.5 38.5t37.5 15.5
t37.5 -15.5t15.5 -38.5q0 -22 -15.5 -37.5t-37.5 -15.5t-37.5 15.5t-15.5 37.5z" />
    <glyph glyph-name="Aring" unicode="&#xc5;" horiz-adv-x="919" 
d="M789 -2l-186 4q-13 0 -23 38q-13 49 -14 52q-33 57 -124 57q-54 0 -87 -49q-21 -31 -38 -96h-266q1 42 14 128t13 130q0 84 -18 182q-9 51 -40 179q239 32 264 35q147 17 264 17q144 0 203 -31q56 -30 75 -109q6 -26 28 -207q-1 -12 0 -51q1 -43 1 -69q0 -210 -66 -210z
M577 449q0 44 -33.5 75t-79.5 31q-61 0 -128 -65.5t-67 -124.5q0 -49 38 -81.5t89 -32.5q71 0 126 64t55 134zM359 769q0 31 26 51t58 20q33 0 59 -20t26 -51t-26.5 -50.5t-58.5 -19.5t-58 19.5t-26 50.5zM401 769q0 -15 13 -25t29 -10q17 0 30 10t13 25q0 16 -13.5 25.5
t-29.5 9.5t-29 -9.5t-13 -25.5z" />
    <glyph glyph-name="Ccedilla" unicode="&#xc7;" horiz-adv-x="854" 
d="M521 -107q0 -35 -47 -57q-38 -18 -77 -18q-56 0 -77 9l39 48q4 0 18 -3.5t16 -3.5q46 0 46 26q0 10 -11.5 16.5t-79.5 6.5v85l-312 -1q27 73 35 131q6 46 6 136q0 102 -60 363q15 18 225 34q168 12 252 12q117 0 223 -24q27 -26 48 -126q18 -84 18 -140h-267q1 5 14 43
q9 24 9 43q0 23 -20 42.5t-42 17.5q-92 -4 -151 -111q-49 -88 -49 -178q0 -49 40.5 -86.5t90.5 -37.5q40 0 78.5 29t38.5 68q0 18 -6.5 31t-14.5 26q45 11 116 11q22 0 74 -2q47 -1 70 -1q30 0 30 -43q0 -111 -26 -239l-342 2v-36q44 -2 71 -25q24 -21 24 -48z" />
    <glyph glyph-name="Eacute" unicode="&#xc9;" horiz-adv-x="880" 
d="M822 225q0 -31 -15 -115q-15 -90 -27 -108q-709 0 -717 -2q12 84 12 185q0 182 -41 451q76 12 158 21q193 21 365 24q53 1 190 -26q15 -28 34.5 -104t19.5 -109l-234 1q-5 0 -3 13q4 21 4 17q0 35 -25.5 56t-59.5 21q-59 0 -98 -26q-48 -32 -48 -93q0 -17 7 -21.5
t22 -4.5h181q-23 -41 -71 -127l-28 22q-18 10 -47 10q-33 0 -59 -28t-26 -62q0 -93 115 -93q58 0 98 20q52 26 48 76q-3 40 -3 42q-3 14 -20 36l235 1q12 0 24 -4q9 -43 9 -73zM496 840q-194 -110 -194 -112q0 -3 8 -19t10 -16q3 0 109.5 23.5t106.5 25.5q0 3 -40 98z" />
    <glyph glyph-name="Ntilde" unicode="&#xd1;" horiz-adv-x="871" 
d="M-1 635q69 -182 69 -344q0 -119 -32 -291h285q-25 78 -25 169q0 117 65 117q28 0 61 -31q103 -97 107 -255h252q33 191 33 307q0 174 -68 335q-104 29 -252 28h-18q35 -48 48 -82q14 -39 14 -94q0 -28 -14 -48q-15 -23 -43 -23q-56 0 -94 71q-32 60 -32 120q0 28 5 56
q-27 2 -59 2q-150 0 -302 -37zM272 714h-61q7 53 40.5 82t79.5 27q38 -2 69 -18.5t43 -16.5q26 0 37 5q16 7 22 29h60q-13 -106 -122 -106q-37 0 -66 17.5t-45 17.5q-31 0 -40 -5q-14 -7 -17 -32z" />
    <glyph glyph-name="Odieresis" unicode="&#xd6;" horiz-adv-x="914" 
d="M864 171q-7 -119 -121 -146q-143 -34 -341 -34q-248 0 -363 65q26 138 26 240q0 47 -12 132.5t-12 121.5q0 44 29 72t74 33q184 21 299 21q183 0 369 -60q56 -144 56 -332q0 -52 -4 -113zM611 412q0 50 -35.5 84.5t-86.5 34.5q-79 0 -142 -94q-56 -84 -56 -166
q0 -48 42 -86.5t89 -38.5q75 0 135 98q54 88 54 168zM467 767q0 23 15.5 38.5t37.5 15.5t37.5 -15.5t15.5 -38.5q0 -22 -15.5 -37.5t-37.5 -15.5t-37.5 15.5t-15.5 37.5zM297 767q0 23 15.5 38.5t37.5 15.5t37.5 -15.5t15.5 -38.5q0 -22 -15.5 -37.5t-37.5 -15.5t-37.5 15.5
t-15.5 37.5z" />
    <glyph glyph-name="Udieresis" unicode="&#xdc;" horiz-adv-x="837" 
d="M27 648q43 -140 43 -341q0 -151 -26 -272q187 -41 331 -41q244 0 316 43q59 34 77 99q11 39 11 127q0 232 -61 390q-46 17 -107 22q-13 1 -111 5l-35 2q56 -125 56 -289q0 -122 -33 -221q-36 -43 -81 -43q-54 0 -82 47q-33 57 -33 195q0 101 25 209q1 5 15 51
q12 42 12 45q0 4 -42 4q-13 1 -32 1q-59 0 -131 -9q-79 -10 -112 -24zM417 777q0 23 15.5 38.5t37.5 15.5t37.5 -15.5t15.5 -38.5q0 -22 -15.5 -37.5t-37.5 -15.5t-37.5 15.5t-15.5 37.5zM247 777q0 23 15.5 38.5t37.5 15.5t37.5 -15.5t15.5 -38.5q0 -22 -15.5 -37.5
t-37.5 -15.5t-37.5 15.5t-15.5 37.5z" />
    <glyph glyph-name="aacute" unicode="&#xe1;" horiz-adv-x="736" 
d="M264 549q-2 0 -10.5 15.5t-8.5 17.5t162 97q35 -83 35 -85t-87.5 -23.5t-90.5 -21.5zM688 108q-9 -114 -57 -114l-149 2q-14 1 -29 59q-3 12 -5 16q-24 43 -94 43q-41 0 -66 -37q-17 -25 -31 -78h-221q0 36 10.5 106t10.5 104q0 96 -47 294q196 26 216 28q119 14 212 14
q117 0 160 -22q59 -30 74 -127q0 -1 16 -134q2 -47 0 -154zM371 439q-46 0 -98 -51t-52 -96q0 -37 28.5 -62t67.5 -25q54 0 97 50t43 104q0 33 -25.5 56.5t-60.5 23.5z" />
    <glyph glyph-name="agrave" unicode="&#xe0;" horiz-adv-x="736" 
d="M415 549q-3 0 -90.5 21.5t-87.5 23.5t35 85q162 -95 162 -97t-8.5 -17.5t-10.5 -15.5zM688 108q-9 -114 -57 -114l-149 2q-14 1 -29 59q-3 12 -5 16q-24 43 -94 43q-41 0 -66 -37q-17 -25 -31 -78h-221q0 36 10.5 106t10.5 104q0 96 -47 294q196 26 216 28q119 14 212 14
q117 0 160 -22q59 -30 74 -127q0 -1 16 -134q2 -47 0 -154zM371 439q-46 0 -98 -51t-52 -96q0 -37 28.5 -62t67.5 -25q54 0 97 50t43 104q0 33 -25.5 56.5t-60.5 23.5z" />
    <glyph glyph-name="acircumflex" unicode="&#xe2;" horiz-adv-x="736" 
d="M407 561l-65 33l-67 -33h-81l112 96h70l112 -96h-81zM688 108q-9 -114 -57 -114l-149 2q-14 1 -29 59q-3 12 -5 16q-24 43 -94 43q-41 0 -66 -37q-17 -25 -31 -78h-221q0 36 10.5 106t10.5 104q0 96 -47 294q196 26 216 28q119 14 212 14q117 0 160 -22q59 -30 74 -127
q0 -1 16 -134q2 -47 0 -154zM371 439q-46 0 -98 -51t-52 -96q0 -37 28.5 -62t67.5 -25q54 0 97 50t43 104q0 33 -25.5 56.5t-60.5 23.5z" />
    <glyph glyph-name="adieresis" unicode="&#xe4;" horiz-adv-x="736" 
d="M408 566q-20 0 -34 14t-14 34t14 34t34 14t34 -14t14 -34t-14 -34t-34 -14zM272 566q-20 0 -34 14t-14 34t14 34t34 14t34 -14t14 -34t-14 -34t-34 -14zM688 108q-9 -114 -57 -114l-149 2q-14 1 -29 59q-3 12 -5 16q-24 43 -94 43q-41 0 -66 -37q-17 -25 -31 -78h-221
q0 36 10.5 106t10.5 104q0 96 -47 294q196 26 216 28q119 14 212 14q117 0 160 -22q59 -30 74 -127q0 -1 16 -134q2 -47 0 -154zM371 439q-46 0 -98 -51t-52 -96q0 -37 28.5 -62t67.5 -25q54 0 97 50t43 104q0 33 -25.5 56.5t-60.5 23.5z" />
    <glyph glyph-name="atilde" unicode="&#xe3;" horiz-adv-x="736" 
d="M376 568q-28 0 -53.5 14t-35.5 14q-23 0 -31 -5t-10 -25h-59q7 48 35 73.5t67 23.5q31 -1 56 -14t33 -13q22 0 30.5 5t13.5 22h58q-13 -95 -104 -95zM688 108q-9 -114 -57 -114l-149 2q-14 1 -29 59q-3 12 -5 16q-24 43 -94 43q-41 0 -66 -37q-17 -25 -31 -78h-221
q0 36 10.5 106t10.5 104q0 96 -47 294q196 26 216 28q119 14 212 14q117 0 160 -22q59 -30 74 -127q0 -1 16 -134q2 -47 0 -154zM371 439q-46 0 -98 -51t-52 -96q0 -37 28.5 -62t67.5 -25q54 0 97 50t43 104q0 33 -25.5 56.5t-60.5 23.5z" />
    <glyph glyph-name="aring" unicode="&#xe5;" horiz-adv-x="736" 
d="M355 554q-28 0 -49 17q-24 17 -24 44t24 45q21 17 49 17t50 -17.5t22 -44.5t-22.5 -44t-49.5 -17zM688 108q-9 -114 -57 -114l-149 2q-14 1 -29 59q-3 12 -5 16q-24 43 -94 43q-41 0 -66 -37q-17 -25 -31 -78h-221q0 36 10.5 106t10.5 104q0 96 -47 294q196 26 216 28
q119 14 212 14q117 0 160 -22q59 -30 74 -127q0 -1 16 -134q2 -47 0 -154zM355 638q-29 0 -29 -23t29 -23t29 23t-29 23zM371 439q-46 0 -98 -51t-52 -96q0 -37 28.5 -62t67.5 -25q54 0 97 50t43 104q0 33 -25.5 56.5t-60.5 23.5z" />
    <glyph glyph-name="ccedilla" unicode="&#xe7;" horiz-adv-x="683" 
d="M619 -5l-273 1v-19q35 -2 55.5 -20.5t20.5 -41.5q0 -31 -39 -50q-31 -15 -66 -15q-45 0 -69 10l37 45q39 -5 29 -5q32 0 32 15q0 5 -7.5 9.5t-64.5 4.5v67h-252q23 62 29 110q6 37 6 109q0 81 -49 291q14 17 185 30q132 10 202 10q94 0 181 -19q24 -23 41 -105
q15 -69 15 -117h-226q3 10 13 40q7 19 7 34q0 16 -14.5 30t-29.5 13q-71 -4 -117 -87q-38 -69 -38 -140q0 -37 30.5 -65.5t68.5 -28.5q31 0 60 22t29 50q0 13 -6 25.5t-12 24.5q32 7 71 9q26 1 72 0q51 -2 71 -1q29 0 29 -40q0 -89 -21 -196z" />
    <glyph glyph-name="eacute" unicode="&#xe9;" horiz-adv-x="704" 
d="M256 549q-2 0 -10.5 15.5t-8.5 17.5t162 97q35 -83 35 -85t-87.5 -23.5t-90.5 -21.5zM628 -1l-4 2q0 -5 -2 -5h-284q-283 0 -294 -2q11 71 11 156q0 145 -34 361q7 5 132 19q152 18 292 20q43 0 155 -21q14 -25 30 -87.5t16 -92.5h-192q-11 0 -8 17q3 16 3 12
q0 26 -18.5 41.5t-44.5 15.5q-45 0 -75 -20q-36 -24 -36 -70q0 -16 18 -16h153q-21 -36 -64 -114q-13 10 -26 21q-13 7 -35 7q-24 0 -43.5 -21t-19.5 -46q0 -70 87 -70q45 0 76 16q38 19 36 56q-3 32 -3 35q-3 10 -21 33l198 1q10 0 23 -4q9 -39 9 -63q0 -25 -12 -93
q-13 -72 -23 -88z" />
    <glyph glyph-name="egrave" unicode="&#xe8;" horiz-adv-x="704" 
d="M415 549q-3 0 -90.5 21.5t-87.5 23.5t35 85q162 -95 162 -97t-8.5 -17.5t-10.5 -15.5zM628 -1l-4 2q0 -5 -2 -5h-284q-283 0 -294 -2q11 71 11 156q0 145 -34 361q7 5 132 19q152 18 292 20q43 0 155 -21q14 -25 30 -87.5t16 -92.5h-192q-11 0 -8 17q3 16 3 12
q0 26 -18.5 41.5t-44.5 15.5q-45 0 -75 -20q-36 -24 -36 -70q0 -16 18 -16h153q-21 -36 -64 -114q-13 10 -26 21q-13 7 -35 7q-24 0 -43.5 -21t-19.5 -46q0 -70 87 -70q45 0 76 16q38 19 36 56q-3 32 -3 35q-3 10 -21 33l198 1q10 0 23 -4q9 -39 9 -63q0 -25 -12 -93
q-13 -72 -23 -88z" />
    <glyph glyph-name="ecircumflex" unicode="&#xea;" horiz-adv-x="704" 
d="M391 561l-65 33l-67 -33h-81l112 96h70l112 -96h-81zM628 -1l-4 2q0 -5 -2 -5h-284q-283 0 -294 -2q11 71 11 156q0 145 -34 361q7 5 132 19q152 18 292 20q43 0 155 -21q14 -25 30 -87.5t16 -92.5h-192q-11 0 -8 17q3 16 3 12q0 26 -18.5 41.5t-44.5 15.5q-45 0 -75 -20
q-36 -24 -36 -70q0 -16 18 -16h153q-21 -36 -64 -114q-13 10 -26 21q-13 7 -35 7q-24 0 -43.5 -21t-19.5 -46q0 -70 87 -70q45 0 76 16q38 19 36 56q-3 32 -3 35q-3 10 -21 33l198 1q10 0 23 -4q9 -39 9 -63q0 -25 -12 -93q-13 -72 -23 -88z" />
    <glyph glyph-name="edieresis" unicode="&#xeb;" horiz-adv-x="704" 
d="M400 574q-20 0 -34 14t-14 34t14 34t34 14t34 -14t14 -34t-14 -34t-34 -14zM264 574q-20 0 -34 14t-14 34t14 34t34 14t34 -14t14 -34t-14 -34t-34 -14zM628 -1l-4 2q0 -5 -2 -5h-284q-283 0 -294 -2q11 71 11 156q0 145 -34 361q7 5 132 19q152 18 292 20q43 0 155 -21
q14 -25 30 -87.5t16 -92.5h-192q-11 0 -8 17q3 16 3 12q0 26 -18.5 41.5t-44.5 15.5q-45 0 -75 -20q-36 -24 -36 -70q0 -16 18 -16h153q-21 -36 -64 -114q-13 10 -26 21q-13 7 -35 7q-24 0 -43.5 -21t-19.5 -46q0 -70 87 -70q45 0 76 16q38 19 36 56q-3 32 -3 35
q-3 10 -21 33l198 1q10 0 23 -4q9 -39 9 -63q0 -25 -12 -93q-13 -72 -23 -88z" />
    <glyph glyph-name="iacute" unicode="&#xed;" horiz-adv-x="349" 
d="M56 549q-2 0 -10.5 15.5t-8.5 17.5t162 97q35 -83 35 -85t-87.5 -23.5t-90.5 -21.5zM276 -3q-29 -6 -89 -6q-28 0 -75 2q-61 2 -79 2q1 9 17 95q10 58 10 96q0 102 -7 153q-2 15 -38 176q92 32 180 32q25 0 48 -3q66 -147 66 -320q0 -121 -33 -227z" />
    <glyph glyph-name="igrave" unicode="&#xec;" horiz-adv-x="349" 
d="M223 549q-3 0 -90.5 21.5t-87.5 23.5t35 85q162 -95 162 -97t-8.5 -17.5t-10.5 -15.5zM276 -3q-29 -6 -89 -6q-28 0 -75 2q-61 2 -79 2q1 9 17 95q10 58 10 96q0 102 -7 153q-2 15 -38 176q92 32 180 32q25 0 48 -3q66 -147 66 -320q0 -121 -33 -227z" />
    <glyph glyph-name="icircumflex" unicode="&#xee;" horiz-adv-x="349" 
d="M199 561l-65 33l-67 -33h-81l112 96h70l112 -96h-81zM276 -3q-29 -6 -89 -6q-28 0 -75 2q-61 2 -79 2q1 9 17 95q10 58 10 96q0 102 -7 153q-2 15 -38 176q92 32 180 32q25 0 48 -3q66 -147 66 -320q0 -121 -33 -227z" />
    <glyph glyph-name="idieresis" unicode="&#xef;" horiz-adv-x="349" 
d="M200 574q-20 0 -34 14t-14 34t14 34t34 14t34 -14t14 -34t-14 -34t-34 -14zM64 574q-20 0 -34 14t-14 34t14 34t34 14t34 -14t14 -34t-14 -34t-34 -14zM276 -3q-29 -6 -89 -6q-28 0 -75 2q-61 2 -79 2q1 9 17 95q10 58 10 96q0 102 -7 153q-2 15 -38 176q92 32 180 32
q25 0 48 -3q66 -147 66 -320q0 -121 -33 -227z" />
    <glyph glyph-name="ntilde" unicode="&#xf1;" horiz-adv-x="697" 
d="M352 568q-28 0 -53.5 14t-35.5 14q-23 0 -31 -5t-10 -25h-59q7 48 35 73.5t67 23.5q31 -1 56 -14t33 -13q22 0 30.5 5t13.5 22h58q-13 -95 -104 -95zM629 -5h-211q-3 129 -84 205q-25 24 -45 24q-47 0 -47 -89q0 -72 21 -140h-240q26 143 26 238q0 129 -57 278
q128 32 249 32q25 0 53 -3q-5 -27 -5 -49q0 -44 22 -90q28 -58 72 -58h2q40 1 40 53q0 43 -11 72.5t-43 72.5q144 1 229 -23q56 -133 56 -272q0 -93 -27 -251z" />
    <glyph glyph-name="oacute" unicode="&#xf3;" horiz-adv-x="731" 
d="M272 549q-2 0 -10.5 15.5t-8.5 17.5t162 97q35 -83 35 -85t-87.5 -23.5t-90.5 -21.5zM595 15q-114 -27 -273 -27q-200 0 -297 54q22 113 22 195q0 37 -9.5 106t-9.5 97q0 38 24.5 61.5t61.5 27.5q149 17 241 17q146 0 298 -49q47 -119 47 -270q0 -42 -4 -91
q-6 -99 -101 -121zM391 420q-60 0 -109 -73q-44 -66 -44 -131q0 -35 32 -64.5t68 -29.5q56 0 104 76q42 69 42 132q0 38 -27 64t-66 26z" />
    <glyph glyph-name="ograve" unicode="&#xf2;" horiz-adv-x="731" 
d="M423 549q-3 0 -90.5 21.5t-87.5 23.5t35 85q162 -95 162 -97t-8.5 -17.5t-10.5 -15.5zM595 15q-114 -27 -273 -27q-200 0 -297 54q22 113 22 195q0 37 -9.5 106t-9.5 97q0 38 24.5 61.5t61.5 27.5q149 17 241 17q146 0 298 -49q47 -119 47 -270q0 -42 -4 -91
q-6 -99 -101 -121zM391 420q-60 0 -109 -73q-44 -66 -44 -131q0 -35 32 -64.5t68 -29.5q56 0 104 76q42 69 42 132q0 38 -27 64t-66 26z" />
    <glyph glyph-name="ocircumflex" unicode="&#xf4;" horiz-adv-x="731" 
d="M415 561l-65 33l-67 -33h-81l112 96h70l112 -96h-81zM595 15q-114 -27 -273 -27q-200 0 -297 54q22 113 22 195q0 37 -9.5 106t-9.5 97q0 38 24.5 61.5t61.5 27.5q149 17 241 17q146 0 298 -49q47 -119 47 -270q0 -42 -4 -91q-6 -99 -101 -121zM391 420q-60 0 -109 -73
q-44 -66 -44 -131q0 -35 32 -64.5t68 -29.5q56 0 104 76q42 69 42 132q0 38 -27 64t-66 26z" />
    <glyph glyph-name="odieresis" unicode="&#xf6;" horiz-adv-x="731" 
d="M416 566q-20 0 -34 14t-14 34t14 34t34 14t34 -14t14 -34t-14 -34t-34 -14zM280 566q-20 0 -34 14t-14 34t14 34t34 14t34 -14t14 -34t-14 -34t-34 -14zM595 15q-114 -27 -273 -27q-200 0 -297 54q22 113 22 195q0 37 -9.5 106t-9.5 97q0 38 24.5 61.5t61.5 27.5
q149 17 241 17q146 0 298 -49q47 -119 47 -270q0 -42 -4 -91q-6 -99 -101 -121zM391 420q-60 0 -109 -73q-44 -66 -44 -131q0 -35 32 -64.5t68 -29.5q56 0 104 76q42 69 42 132q0 38 -27 64t-66 26z" />
    <glyph glyph-name="otilde" unicode="&#xf5;" horiz-adv-x="731" 
d="M384 568q-28 0 -53.5 14t-35.5 14q-23 0 -31 -5t-10 -25h-59q7 48 35 73.5t67 23.5q31 -1 56 -14t33 -13q22 0 30.5 5t13.5 22h58q-13 -95 -104 -95zM595 15q-114 -27 -273 -27q-200 0 -297 54q22 113 22 195q0 37 -9.5 106t-9.5 97q0 38 24.5 61.5t61.5 27.5
q149 17 241 17q146 0 298 -49q47 -119 47 -270q0 -42 -4 -91q-6 -99 -101 -121zM391 420q-60 0 -109 -73q-44 -66 -44 -131q0 -35 32 -64.5t68 -29.5q56 0 104 76q42 69 42 132q0 38 -27 64t-66 26z" />
    <glyph glyph-name="uacute" unicode="&#xfa;" horiz-adv-x="669" 
d="M224 557q-2 0 -10.5 15.5t-8.5 17.5t162 97q35 -83 35 -85t-87.5 -23.5t-90.5 -21.5zM556 25q-60 -35 -256 -35q-116 0 -271 34q22 102 22 222q0 160 -35 275q34 15 112 24q73 8 114 4q38 -5 38 -8t-10 -38q-5 -18 -12 -40q-19 -86 -19 -166q0 -109 25 -153
q21 -36 61 -36q34 0 61 32q25 78 25 174q0 130 -47 237q42 -1 125 -6q49 -4 89 -19q50 -129 50 -315q0 -72 -9 -105q-15 -53 -63 -81z" />
    <glyph glyph-name="ugrave" unicode="&#xf9;" horiz-adv-x="669" 
d="M399 557q-3 0 -90.5 21.5t-87.5 23.5t35 85q162 -95 162 -97t-8.5 -17.5t-10.5 -15.5zM556 25q-60 -35 -256 -35q-116 0 -271 34q22 102 22 222q0 160 -35 275q34 15 112 24q73 8 114 4q38 -5 38 -8t-10 -38q-5 -18 -12 -40q-19 -86 -19 -166q0 -109 25 -153
q21 -36 61 -36q34 0 61 32q25 78 25 174q0 130 -47 237q42 -1 125 -6q49 -4 89 -19q50 -129 50 -315q0 -72 -9 -105q-15 -53 -63 -81z" />
    <glyph glyph-name="ucircumflex" unicode="&#xfb;" horiz-adv-x="669" 
d="M375 561l-65 33l-67 -33h-81l112 96h70l112 -96h-81zM556 25q-60 -35 -256 -35q-116 0 -271 34q22 102 22 222q0 160 -35 275q34 15 112 24q73 8 114 4q38 -5 38 -8t-10 -38q-5 -18 -12 -40q-19 -86 -19 -166q0 -109 25 -153q21 -36 61 -36q34 0 61 32q25 78 25 174
q0 130 -47 237q42 -1 125 -6q49 -4 89 -19q50 -129 50 -315q0 -72 -9 -105q-15 -53 -63 -81z" />
    <glyph glyph-name="udieresis" unicode="&#xfc;" horiz-adv-x="669" 
d="M376 574q-20 0 -34 14t-14 34t14 34t34 14t34 -14t14 -34t-14 -34t-34 -14zM240 574q-20 0 -34 14t-14 34t14 34t34 14t34 -14t14 -34t-14 -34t-34 -14zM556 25q-60 -35 -256 -35q-116 0 -271 34q22 102 22 222q0 160 -35 275q34 15 112 24q73 8 114 4q38 -5 38 -8
t-10 -38q-5 -18 -12 -40q-19 -86 -19 -166q0 -109 25 -153q21 -36 61 -36q34 0 61 32q25 78 25 174q0 130 -47 237q42 -1 125 -6q49 -4 89 -19q50 -129 50 -315q0 -72 -9 -105q-15 -53 -63 -81z" />
    <glyph glyph-name="degree" unicode="&#xb0;" horiz-adv-x="392" 
d="M3 513q0 69 49 118t118 49t118 -49t49 -118t-49 -117.5t-118 -48.5t-118 49t-49 117zM87 513q0 -34 24.5 -58.5t58.5 -24.5q35 0 59 24.5t24 58.5q0 35 -24.5 59.5t-58.5 24.5t-58.5 -24.5t-24.5 -59.5z" />
    <glyph glyph-name="cent" unicode="&#xa2;" horiz-adv-x="706" 
d="M288 693h79q10 0 10 -10v-47h18q94 0 181 -19q24 -23 41 -105q15 -69 15 -117h-226q3 10 13 40q7 19 7 34q0 16 -14.5 30t-29.5 13q-71 -4 -117 -87q-38 -69 -38 -140q0 -37 30.5 -65.5t68.5 -28.5q31 0 60 22t29 50q0 13 -6 25.5t-12 24.5q32 7 71 9q26 1 72 0
q51 -2 71 -1q29 0 29 -40q0 -89 -21 -196l-242 1v-76q0 -10 -13 -10h-76q-10 0 -10 10v76h-256q23 62 29 110q6 37 6 109q0 81 -49 291q18 22 270 36v51q0 10 10 10z" />
    <glyph glyph-name="sterling" unicode="&#xa3;" horiz-adv-x="829" 
d="M18 404h48l-5 66q-7 90 39 174q144 31 235 31q277 0 421 -33l-55 -200q-103 25 -199 19q5 11 5 21q0 32 -43 51q-34 13 -71 13q-85 0 -85 -52q0 -13 25 -90l123 -3l-18 -103h-83q-33 -51 -33 -97q0 -82 75 -82q38 0 68 18t30 50q0 12 -4 24q44 31 157 31q49 0 110 -8
l1 -39q1 -74 -32 -192h-661q3 34 24 122q20 78 20 121q0 12 -13 52h-71z" />
    <glyph glyph-name="section" unicode="&#xa7;" horiz-adv-x="33" 
 />
    <glyph glyph-name="bullet" unicode="&#x2022;" horiz-adv-x="374" 
d="M46 418l-28 -211q1 -18 19 -18h213q32 0 42 34l30 196q-4 10 -8.5 20.5t-17.5 10.5q-200 2 -200 1q-53 -3 -50 -33z" />
    <glyph glyph-name="paragraph" unicode="&#xb6;" horiz-adv-x="534" 
d="M295 613l-76 1q-24 0 -34.5 -16.5t-8.5 -40.5q-3 -61 0 -158q4 -25 14.5 -35t37.5 -10h67v259zM490 -2h-75v599q-2 29 -26 29t-19 -29v-599h-75v300h-110q-77 0 -132 54.5t-55 132.5q0 77 55 132t132 55h305v-674z" />
    <glyph glyph-name="germandbls" unicode="&#xdf;" 
 />
    <glyph glyph-name="registered" unicode="&#xae;" horiz-adv-x="375" 
d="M292 439v132q0 65 -74 65h-103q-73 0 -73 -65v-132q0 -65 62 -65h114q74 0 74 65zM250 411h-41q0 40 -4 50q-8 25 -38 25h-42v-75h-41v188h125q41 0 41 -56q0 -34 -41 -38q41 0 41 -36v-58zM125 561v-37h63q21 0 21 19q0 18 -21 18h-63zM116 672h103q50 0 82.5 -27
t32.5 -75q0 -41 -1 -138t-114 -97h-114q-49 0 -76.5 27t-27.5 75v133q0 48 33 75t82 27z" />
    <glyph glyph-name="copyright" unicode="&#xa9;" horiz-adv-x="718" 
d="M253 672h167q99 0 172 -62q78 -66 78 -163v-224q0 -97 -78 -163q-74 -62 -172 -62h-167q-98 0 -172 62q-78 66 -78 163v224q0 97 78 163q74 62 172 62zM87 447v-224q0 -65 52 -109q49 -41 114 -41h167q66 0 116.5 42.5t50.5 107.5v224q0 65 -52 109q-49 41 -115 41h-167
q-65 0 -114 -41q-52 -44 -52 -109zM503 372h-83q-9 75 -83 75q-33 0 -58.5 -21t-25.5 -54v-74q0 -33 25.5 -54t58.5 -21q74 0 83 75h83q-10 -151 -165 -151q-66 0 -115 42q-53 43 -53 109v74q0 68 50 110q47 41 115 41q159 0 168 -151z" />
    <glyph glyph-name="trademark" unicode="&#x2122;" horiz-adv-x="508" 
d="M55 403v200h-47v67h160v-67h-47v-200h-66zM205 403v267h33l94 -134l94 134h33v-267h-57v133l-70 -100l-70 100v-133h-57z" />
    <glyph glyph-name="acute" unicode="&#xb4;" horiz-adv-x="449" 
d="M286 840q-194 -110 -194 -112q0 -3 8 -19t10 -16q3 0 109.5 23.5t106.5 25.5q0 3 -40 98z" />
    <glyph glyph-name="dieresis" unicode="&#xa8;" horiz-adv-x="372" 
d="M207 757q0 23 15.5 38.5t37.5 15.5t37.5 -15.5t15.5 -38.5q0 -22 -15.5 -37.5t-37.5 -15.5t-37.5 15.5t-15.5 37.5zM37 757q0 23 15.5 38.5t37.5 15.5t37.5 -15.5t15.5 -38.5q0 -22 -15.5 -37.5t-37.5 -15.5t-37.5 15.5t-15.5 37.5z" />
    <glyph glyph-name="AE" unicode="&#xc6;" horiz-adv-x="1402" 
d="M577 449q0 44 -33.5 75t-79.5 31q-61 0 -128 -65.5t-67 -124.5q0 -49 38 -81.5t89 -32.5q71 0 126 64t55 134zM1342 225q0 -31 -15 -115q-15 -90 -27 -108h-91q-100 -1 -210 -1q-263 0 -228 0q7 -3 18 -3q-23 0 -61 1q-46 1 -61 1q-42 1 -61 0v2h-3q-13 0 -23 38
q-13 49 -14 52q-33 57 -124 57q-54 0 -87 -49q-21 -31 -38 -96h-266q1 42 14 128t13 130q0 84 -18 182q-9 51 -40 179q239 32 264 35q147 17 264 17q111 0 168 -18q191 21 361 24q53 1 190 -26q15 -28 34.5 -104t19.5 -109l-234 1q-5 0 -3 13q4 21 4 17q0 35 -25.5 56
t-59.5 21q-59 0 -98 -26q-48 -32 -48 -93q0 -17 7 -21.5t22 -4.5h181q-23 -41 -71 -127l-28 22q-18 10 -47 10q-33 0 -59 -28t-26 -62q0 -93 115 -93q58 0 98 20q52 26 48 76q-3 40 -3 42q-3 14 -20 36l235 1q12 0 24 -4q9 -43 9 -73z" />
    <glyph glyph-name="Oslash" unicode="&#xd8;" horiz-adv-x="914" 
d="M864 171q-7 -119 -121 -146q-143 -34 -341 -34q-118 0 -211 16l-46 -48l-10 -10h-74q-4 0 -8 3.5t-2 6.5l64 66q-44 13 -76 31q26 138 26 240q0 47 -12 132.5t-12 121.5q0 44 29 72t74 33q184 21 299 21q141 0 271 -32l37 38l10 10h74q4 0 8 -3.5t2 -6.5l-57 -58l24 -8
q56 -144 56 -332q0 -52 -4 -113zM574 499q-36 32 -85 32q-79 0 -142 -94q-56 -84 -56 -166q0 -26 14 -50zM611 412q0 13 -2 26l-259 -267q35 -25 72 -25q75 0 135 98q54 88 54 168z" />
    <glyph glyph-name="plusminus" unicode="&#xb1;" 
 />
    <glyph glyph-name="yen" unicode="&#xa5;" horiz-adv-x="914" 
d="M737 108q0 -10 -10 -10h-144q11 -76 28 -98h-357q15 42 24 98h-147q-10 0 -10 10v47q0 10 10 10h153q2 30 1 60h-154q-10 0 -10 10v47q0 10 10 10h150l-2 13q0 16 -77 66q-75 47 -90 47q-39 0 -58 49q-24 60 -52 177q132 24 250 22l27 -1q25 -116 67 -174q20 -26 62 -26
q30 0 50 16.5t20 46.5q0 3 -13 134q33 1 64 1q178 0 247 -19q11 -34 22 -69q14 -45 14 -68q0 -52 -36 -52q-1 0 -38.5 -18t-43.5 -22q-10 -6 -66 -53q-59 -50 -59 -57v-13h158q10 0 10 -10v-47q0 -10 -10 -10h-156q2 -31 4 -60h152q10 0 10 -10v-47z" />
    <glyph glyph-name="mu" unicode="&#xb5;" horiz-adv-x="859" 
d="M485 446q0 -5 -10 -10l-148 -80q-18 -69 -18 -107q0 -47 25 -76.5t71 -29.5q49 0 86 29t37 77q0 31 -25 65l279 -2q19 0 19 -21q0 -138 -43 -288h-719q28 102 36 216l-67 -37q-10 -5 -10 10v70q0 4 10 10l69 37q-2 197 -58 334q178 36 360 36q39 0 72 -2
q-45 -88 -89 -213l113 61q10 6 10 -10v-69z" />
    <glyph glyph-name="mu" unicode="&#x3bc;" horiz-adv-x="859" 
d="M485 446q0 -5 -10 -10l-148 -80q-18 -69 -18 -107q0 -47 25 -76.5t71 -29.5q49 0 86 29t37 77q0 31 -25 65l279 -2q19 0 19 -21q0 -138 -43 -288h-719q28 102 36 216l-67 -37q-10 -5 -10 10v70q0 4 10 10l69 37q-2 197 -58 334q178 36 360 36q39 0 72 -2
q-45 -88 -89 -213l113 61q10 6 10 -10v-69z" />
    <glyph glyph-name="ordfeminine" unicode="&#xaa;" horiz-adv-x="826" 
d="M4 634q43 -102 61 -215q102 30 172 30q23 0 48 -2q-7 13 -7 25q0 30 35 51q31 18 64 18q34 0 48 -7q21 -11 21 -42q0 -25 -17 -36q-74 -51 -166 -92l-170 -72q-20 -8 -20 -36q0 -131 -31 -257h698q35 157 32 293q-36 1 -90 -1q-59 -1 -90 -1q-82 0 -82 -12q0 -4 6 -22
t6 -28q0 -40 -48 -77.5t-89 -37.5q-24 0 -39.5 18.5t-15.5 42.5q0 64 128 136q101 57 186 77q33 2 88 13q6 2 15.5 11.5t11.5 15.5q-21 138 -58 218q-153 32 -318 32q-190 0 -379 -43zM547 813l-125 -106h-84l-125 106h84l81 -41l85 41h84z" />
    <glyph glyph-name="ordmasculine" unicode="&#xba;" horiz-adv-x="661" 
d="M339 560h-70l-112 96h81l65 -33l67 33h81zM596 -6h-569q26 107 26 211q0 25 19 33q69 30 137 59q78 36 132 72q11 7 11 25q0 21 -14 29q-10 5 -36 5t-49 -14.5t-23 -38.5q0 -11 6 -24q-28 3 -46 3q-56 0 -142 -25q-16 95 -52 182q158 35 310 35q133 0 258 -26
q31 -66 48 -179q-4 -18 -25 -26q-12 -5 -35 -6q-27 -2 -36 -4q-67 -16 -147 -61q-100 -57 -100 -104q0 -19 11 -31.5t28 -12.5q31 0 67.5 28.5t36.5 57.5q0 8 -4.5 21.5t-4.5 19.5q0 5 32 10q26 4 38 4q24 0 73 1q44 1 77 1q2 -115 -27 -245z" />
    <glyph glyph-name="ae" unicode="&#xe6;" horiz-adv-x="1122" 
d="M479 -3q-12 4 -26 58q-3 12 -5 16q-24 43 -94 43q-41 0 -66 -37q-17 -25 -31 -78h-221q0 36 10.5 106t10.5 104q0 96 -47 294q196 26 216 28q119 14 212 14q89 0 136 -14q152 17 287 19q43 0 155 -21q14 -25 30 -87.5t16 -92.5h-192q-11 0 -8 17q3 16 3 12
q0 26 -18.5 41.5t-44.5 15.5q-45 0 -75 -20q-36 -24 -36 -70q0 -16 18 -16h153q-21 -36 -64 -114q-13 10 -26 21q-13 7 -35 7q-24 0 -43.5 -21t-19.5 -46q0 -70 87 -70q45 0 76 16q38 19 36 56q-3 32 -3 35q-3 10 -21 33l198 1q10 0 23 -4q9 -39 9 -63q0 -25 -12 -93
q-13 -72 -23 -88l-4 2q2 -5 0 -5h-409v-2h-49q-36 1 -49 1q-44 1 -54 -1v3zM371 439q-46 0 -98 -51t-52 -96q0 -37 28.5 -62t67.5 -25q54 0 97 50t43 104q0 33 -25.5 56.5t-60.5 23.5z" />
    <glyph glyph-name="oslash" unicode="&#xf8;" horiz-adv-x="731" 
d="M595 15q-114 -27 -273 -27q-94 0 -167 12q-13 -11 -39 -41q-3 -5 -8 -5h-59q-13 0 -13 13q0 2 1 4l46 46q-31 10 -58 25q22 113 22 195q0 37 -9.5 106t-9.5 97q0 38 24.5 61.5t61.5 27.5q149 17 241 17q112 0 215 -25q10 8 30 33q4 5 9 5h59q13 0 13 -13q0 -2 -2 -4
l-39 -41l13 -4q47 -119 47 -270q0 -42 -4 -91q-6 -99 -101 -121zM391 420q-60 0 -109 -73q-44 -66 -44 -131q0 -15 7 -31l207 214q-26 21 -61 21zM484 340l-196 -202q25 -16 50 -16q56 0 104 76q42 69 42 132v10z" />
    <glyph glyph-name="questiondown" unicode="&#xbf;" horiz-adv-x="770" 
d="M448 91q5 -15 5 -30q0 -67 -72 -67q-56 0 -125 34q-13 21 -13 34q0 18 24 33q100 5 197 54q65 46 65 115q0 63 -56 109q-29 29 -76 29q-21 0 -41 -6q-3 -43 -13 -61q-13 -24 -47 -24q-10 0 -22 2q-62 31 -148 27q-61 -2 -97 -51q-32 -44 -33 -111q0 -113 57 -243
q8 -19 30 -24q155 -32 380 -32q52 0 93 3q71 1 116 34q42 30 46 76q0 2 -16.5 107.5t-17.5 105.5q-46 -31 -119 -66t-117 -48zM489 463l18 81q-1 18 -20 18l-210 -1q-34 0 -44 -33l-16 -87q4 -10 12 -10q204 -6 204 -4q24 1 40.5 11t15.5 25z" />
    <glyph glyph-name="exclamdown" unicode="&#xa1;" horiz-adv-x="399" 
d="M294 465l18 81q-1 18 -20 18h-213q-32 0 -42 -34l-16 -87q4 -11 13 -11q204 -5 204 -3q24 1 40.5 11t15.5 25zM339 -79q-22 68 -40 180.5t-16 186.5q-15 64 -58 83q-21 7 -41 15q-39 12 -81 13q-29 4 -54 -12.5t-35 -46.5q-4 -50 -4 -93q0 -163 74 -357q7 -13 22 -11
l224 23q6 0 8.5 6.5t0.5 12.5z" />
    <glyph glyph-name="logicalnot" unicode="&#xac;" 
 />
    <glyph glyph-name="florin" unicode="&#x192;" horiz-adv-x="826" 
d="M487 255h-216q-1 -11 -1 -21q0 -49 40 -81.5t91 -32.5q48 0 92 18q55 22 55 59q0 13 3 18l-6 14q45 11 91 11q2 0 124 -8q18 -1 24 -14q3 -8 3 -29q0 -61 -26 -189l-576 2q-61 -1 -100 38q-35 36 -33 79q2 32 11 70q7 33 7 66l-64 -3l2 64l59 -2q-3 24 -6 51h-53l-8 59
h51q-14 82 -13 87q19 144 124 147q56 2 181 12q101 8 133 5q60 -3 121 -7q70 -5 113 -15q28 -27 48 -91q18 -57 18 -105h-227q3 15 8 17t5 19q0 20 -35 32q-29 10 -57 8q-89 -4 -147 -109h175q-15 -24 -13 -59h-189q-9 -25 -16 -51h205q0 -22 2 -59z" />
    <glyph glyph-name="guillemotleft" unicode="&#xab;" horiz-adv-x="305" 
d="M256 136l-131 167l131 166l-41 -165zM136 136l-131 167l131 166l-41 -165z" />
    <glyph glyph-name="guillemotright" unicode="&#xbb;" horiz-adv-x="305" 
d="M5 469l131 -168l-131 -165l42 164zM125 469l131 -168l-131 -165l42 164z" />
    <glyph glyph-name="ellipsis" unicode="&#x2026;" horiz-adv-x="1353" 
d="M526 98l-18 -81q1 -18 19 -18h213q32 0 42 34l16 87q-4 11 -12 11q-210 1 -210 0q-53 -3 -50 -33zM1026 98l-18 -81q1 -18 19 -18h213q32 0 42 34l16 87q-4 11 -12 11q-210 1 -210 0q-53 -3 -50 -33zM26 98l-18 -81q1 -18 19 -18h213q32 0 42 34l16 87q-4 11 -12 11
q-210 1 -210 0q-53 -3 -50 -33z" />
    <glyph glyph-name="nonbreakingspace" unicode="&#xa0;" horiz-adv-x="408" 
 />
    <glyph glyph-name="Agrave" unicode="&#xc0;" horiz-adv-x="919" 
d="M789 -2l-186 4q-13 0 -23 38q-13 49 -14 52q-33 57 -124 57q-54 0 -87 -49q-21 -31 -38 -96h-266q1 42 14 128t13 130q0 84 -18 182q-9 51 -40 179q239 32 264 35q147 17 264 17q144 0 203 -31q56 -30 75 -109q6 -26 28 -207q-1 -12 0 -51q1 -43 1 -69q0 -210 -66 -210z
M577 449q0 44 -33.5 75t-79.5 31q-61 0 -128 -65.5t-67 -124.5q0 -49 38 -81.5t89 -32.5q71 0 126 64t55 134zM342 840q194 -110 194 -112q0 -3 -8 -19t-10 -16q-3 0 -109.5 23.5t-106.5 25.5q0 3 40 98z" />
    <glyph glyph-name="Atilde" unicode="&#xc3;" horiz-adv-x="919" 
d="M789 -2l-186 4q-13 0 -23 38q-13 49 -14 52q-33 57 -124 57q-54 0 -87 -49q-21 -31 -38 -96h-266q1 42 14 128t13 130q0 84 -18 182q-9 51 -40 179q239 32 264 35q147 17 264 17q144 0 203 -31q56 -30 75 -109q6 -26 28 -207q-1 -12 0 -51q1 -43 1 -69q0 -210 -66 -210z
M577 449q0 44 -33.5 75t-79.5 31q-61 0 -128 -65.5t-67 -124.5q0 -49 38 -81.5t89 -32.5q71 0 126 64t55 134zM302 714h-61q7 53 40.5 82t79.5 27q38 -2 69 -18.5t43 -16.5q26 0 37 5q16 7 22 29h60q-13 -106 -122 -106q-37 0 -66 17.5t-45 17.5q-31 0 -40 -5
q-14 -7 -17 -32z" />
    <glyph glyph-name="Otilde" unicode="&#xd5;" horiz-adv-x="914" 
d="M864 171q-7 -119 -121 -146q-143 -34 -341 -34q-248 0 -363 65q26 138 26 240q0 47 -12 132.5t-12 121.5q0 44 29 72t74 33q184 21 299 21q183 0 369 -60q56 -144 56 -332q0 -52 -4 -113zM611 412q0 50 -35.5 84.5t-86.5 34.5q-79 0 -142 -94q-56 -84 -56 -166
q0 -48 42 -86.5t89 -38.5q75 0 135 98q54 88 54 168zM312 714h-61q7 53 40.5 82t79.5 27q38 -2 69 -18.5t43 -16.5q26 0 37 5q16 7 22 29h60q-13 -106 -122 -106q-37 0 -66 17.5t-45 17.5q-31 0 -40 -5q-14 -7 -17 -32z" />
    <glyph glyph-name="OE" unicode="&#x152;" horiz-adv-x="1432" 
d="M611 412q0 50 -35.5 84.5t-86.5 34.5q-79 0 -142 -94q-56 -84 -56 -166q0 -48 42 -86.5t89 -38.5q75 0 135 98q54 88 54 168zM1372 225q0 -31 -15 -115q-15 -90 -27 -108q-709 0 -717 -2v2q-96 -11 -211 -11q-248 0 -363 65q26 138 26 240q0 47 -12 132.5t-12 121.5
q0 44 29 72t74 33q184 21 299 21q128 0 244 -26q220 28 420 31q53 1 190 -26q15 -28 34.5 -104t19.5 -109l-234 1q-5 0 -3 13q4 21 4 17q0 35 -25.5 56t-59.5 21q-59 0 -98 -26q-48 -32 -48 -93q0 -17 7 -21.5t22 -4.5h181q-23 -41 -71 -127l-28 22q-18 10 -47 10t-53 -22
t-30 -51l-2 -30q9 -80 115 -80q58 0 98 20q52 26 48 76q-3 40 -3 42q-3 14 -20 36l235 1q12 0 24 -4q9 -43 9 -73z" />
    <glyph glyph-name="oe" unicode="&#x153;" horiz-adv-x="1146" 
d="M1068 -1l-4 2q0 -5 -2 -5h-284q-283 0 -294 -2l1 2q-75 -8 -163 -8q-200 0 -297 54q22 113 22 195q0 37 -9.5 106t-9.5 97q0 38 24.5 61.5t61.5 27.5q149 17 241 17q102 0 194 -21q177 22 336 25q43 0 155 -21q14 -25 30 -87.5t16 -92.5h-192q-11 0 -8 17q3 16 3 12
q0 26 -18.5 41.5t-44.5 15.5q-45 0 -75 -20q-36 -24 -36 -70q0 -16 18 -16h153q-21 -36 -64 -114q-13 10 -26 21q-13 7 -35 7q-21 0 -39 -16t-23 -38q0 -12 -1 -24q7 -59 87 -59q45 0 76 16q38 19 36 56q-3 32 -3 35q-3 10 -21 33l198 1q10 0 23 -4q9 -39 9 -63
q0 -25 -12 -93q-13 -72 -23 -88zM391 420q-60 0 -109 -73q-44 -66 -44 -131q0 -35 32 -64.5t68 -29.5q56 0 104 76q42 69 42 132q0 38 -27 64t-66 26z" />
    <glyph glyph-name="endash" unicode="&#x2013;" horiz-adv-x="531" 
d="M25 315l-18 -51q1 -18 20 -18h423q31 0 41 34l16 57q-5 13 -17 13q-408 0 -408 -2q-60 -2 -57 -33z" />
    <glyph glyph-name="emdash" unicode="&#x2014;" horiz-adv-x="950" 
d="M25 315l-18 -51q1 -18 20 -18h823q31 0 41 34l16 57q-4 11 -21 11h-804q-60 -2 -57 -33z" />
    <glyph glyph-name="quotedblleft" unicode="&#x201c;" horiz-adv-x="594" 
d="M32 552q13 28 50 67q31 35 43 42q9 10 19 10h60q13 0 10 -10q-7 -13 -33.5 -43t-37.5 -49l95 1q19 0 20 -18l-18 -82q2 -29 -58 -32q0 -2 -162 0q-8 0 -12 11q3 24 7 47q8 46 17 56zM312 552q13 28 50 67q31 35 43 42q9 10 19 10h60q13 0 10 -10q-7 -13 -33.5 -43
t-37.5 -49l95 1q19 0 20 -18l-18 -82q2 -29 -58 -32q0 -2 -162 0q-8 0 -12 11q3 24 7 47q8 46 17 56z" />
    <glyph glyph-name="quotedblright" unicode="&#x201d;" horiz-adv-x="594" 
d="M514 557q-14 -28 -50 -68q-32 -34 -44 -41q-9 -10 -18 -10h-60q-13 0 -10 10q7 13 33.5 43t37.5 48h-96q-18 0 -19 18l18 81q-3 30 58 33q0 1 162 0q8 0 12 -11q-4 -24 -7 -48q-9 -45 -17 -55zM234 557q-14 -28 -50 -68q-32 -34 -44 -41q-9 -10 -18 -10h-60q-13 0 -10 10
q7 13 33.5 43t37.5 48h-96q-18 0 -19 18l18 81q-3 30 58 33q0 1 162 0q8 0 12 -11q-4 -24 -7 -48q-9 -45 -17 -55z" />
    <glyph glyph-name="quoteleft" unicode="&#x2018;" horiz-adv-x="318" 
d="M32 552q13 28 50 67q31 35 43 42q9 10 19 10h60q13 0 10 -10q-7 -13 -33.5 -43t-37.5 -49l95 1q19 0 20 -18l-18 -82q2 -29 -58 -32q0 -2 -162 0q-8 0 -12 11q3 24 7 47q8 46 17 56z" />
    <glyph glyph-name="quoteright" unicode="&#x2019;" horiz-adv-x="318" 
d="M234 557q-14 -28 -50 -68q-32 -34 -44 -41q-9 -10 -18 -10h-60q-13 0 -10 10q7 13 33.5 43t37.5 48h-96q-18 0 -19 18l18 81q-3 30 58 33q0 1 162 0q8 0 12 -11q-4 -24 -7 -48q-9 -45 -17 -55z" />
    <glyph glyph-name="divide" unicode="&#xf7;" 
 />
    <glyph glyph-name="ydieresis" unicode="&#xff;" horiz-adv-x="684" 
d="M384 558q-20 0 -34 14t-14 34t14 34t34 14t34 -14t14 -34t-14 -34t-34 -14zM248 558q-20 0 -34 14t-14 34t14 34t34 14t34 -14t14 -34t-14 -34t-34 -14zM621 46q-5 -20 -25 -28q-90 -34 -258 -34q-124 0 -257 22q-15 2 -44 8q-4 2 -4 6q0 6 8 59t19 128h215
q-25 -24 -25 -44q0 -29 33 -46q27 -13 63 -13q22 0 37.5 13t15.5 35q0 23 -15.5 47t-35.5 32q-64 25 -222 25q-30 0 -69 -1q0 85 -10 141q-11 53 -40 128q62 18 188 18q64 0 78 -2q-17 -45 -17 -93q0 -53 6 -71q12 -36 58 -36q25 0 42 15t17 40q0 39 -29 136q54 9 95 9
q89 0 142 -11q50 -158 50 -320q0 -99 -16 -163z" />
    <glyph glyph-name="Ydieresis" unicode="&#x178;" horiz-adv-x="855" 
d="M17 651q35 -90 48 -155q13 -69 13 -171q41 1 79 1q200 0 281 -32q26 -10 46.5 -42t20.5 -63q0 -30 -21.5 -48t-51.5 -18q-45 0 -81 18q-44 22 -44 63q0 28 21 49h-247q-14 -88 -24 -157q-10 -63 -10 -71v-1q7 -2 56 -10q165 -27 319 -27q209 0 321 42q22 8 28 30
q19 79 19 202q0 201 -61 395q-62 13 -173 13q-50 0 -110 -11q33 -115 33 -164q0 -34 -22.5 -54.5t-57.5 -20.5q-24 0 -47 13.5t-30.5 36t-7.5 89.5q0 61 18 112q-9 1 -89 1q-156 0 -226 -20zM427 757q0 23 15.5 38.5t37.5 15.5t37.5 -15.5t15.5 -38.5q0 -22 -15.5 -37.5
t-37.5 -15.5t-37.5 15.5t-15.5 37.5zM257 757q0 23 15.5 38.5t37.5 15.5t37.5 -15.5t15.5 -38.5q0 -22 -15.5 -37.5t-37.5 -15.5t-37.5 15.5t-15.5 37.5z" />
    <glyph glyph-name="currency" unicode="&#xa4;" 
 />
    <glyph glyph-name="guilsinglleft" unicode="&#x2039;" horiz-adv-x="184" 
d="M136 136l-131 167l131 166l-41 -165z" />
    <glyph glyph-name="guilsinglright" unicode="&#x203a;" horiz-adv-x="184" 
d="M5 469l131 -168l-131 -165l42 164z" />
    <glyph glyph-name="daggerdbl" unicode="&#x2021;" 
 />
    <glyph glyph-name="periodcentered" unicode="&#xb7;" horiz-adv-x="374" 
d="M96 398l-18 -91q1 -18 19 -18h103q32 0 42 34l16 97q-4 11 -12 11q-100 1 -100 0q-53 -3 -50 -33z" />
    <glyph glyph-name="periodcentered" unicode="&#x2219;" horiz-adv-x="374" 
d="M96 398l-18 -91q1 -18 19 -18h103q32 0 42 34l16 97q-4 11 -12 11q-100 1 -100 0q-53 -3 -50 -33z" />
    <glyph glyph-name="quotesinglbase" unicode="&#x201a;" horiz-adv-x="318" 
d="M234 17q-14 -28 -50 -68q-32 -34 -44 -41q-9 -10 -18 -10h-60q-13 0 -10 10q7 13 33.5 43t37.5 48h-96q-18 0 -19 18l18 81q-3 30 58 33q0 1 162 0q8 0 12 -11q-4 -24 -7 -48q-9 -45 -17 -55z" />
    <glyph glyph-name="quotedblbase" unicode="&#x201e;" horiz-adv-x="594" 
d="M514 17q-14 -28 -50 -68q-32 -34 -44 -41q-9 -10 -18 -10h-60q-13 0 -10 10q7 13 33.5 43t37.5 48h-96q-18 0 -19 18l18 81q-3 30 58 33q0 1 162 0q8 0 12 -11q-4 -24 -7 -48q-9 -45 -17 -55zM234 17q-14 -28 -50 -68q-32 -34 -44 -41q-9 -10 -18 -10h-60q-13 0 -10 10
q7 13 33.5 43t37.5 48h-96q-18 0 -19 18l18 81q-3 30 58 33q0 1 162 0q8 0 12 -11q-4 -24 -7 -48q-9 -45 -17 -55z" />
    <glyph glyph-name="perthousand" unicode="&#x2030;" 
 />
    <glyph glyph-name="Acircumflex" unicode="&#xc2;" horiz-adv-x="919" 
d="M789 -2l-186 4q-13 0 -23 38q-13 49 -14 52q-33 57 -124 57q-54 0 -87 -49q-21 -31 -38 -96h-266q1 42 14 128t13 130q0 84 -18 182q-9 51 -40 179q239 32 264 35q147 17 264 17q144 0 203 -31q56 -30 75 -109q6 -26 28 -207q-1 -12 0 -51q1 -43 1 -69q0 -210 -66 -210z
M577 449q0 44 -33.5 75t-79.5 31q-61 0 -128 -65.5t-67 -124.5q0 -49 38 -81.5t89 -32.5q71 0 126 64t55 134zM260 707l125 107h83l125 -107h-83l-82 42l-85 -42h-83z" />
    <glyph glyph-name="Ecircumflex" unicode="&#xca;" horiz-adv-x="919" 
d="M789 -2l-186 4q-13 0 -23 38q-13 49 -14 52q-33 57 -124 57q-54 0 -87 -49q-21 -31 -38 -96h-266q1 42 14 128t13 130q0 84 -18 182q-9 51 -40 179q239 32 264 35q147 17 264 17q144 0 203 -31q56 -30 75 -109q6 -26 28 -207q-1 -12 0 -51q1 -43 1 -69q0 -210 -66 -210z
M577 449q0 44 -33.5 75t-79.5 31q-61 0 -128 -65.5t-67 -124.5q0 -49 38 -81.5t89 -32.5q71 0 126 64t55 134zM260 707l125 107h83l125 -107h-83l-82 42l-85 -42h-83z" />
    <glyph glyph-name="Aacute" unicode="&#xc1;" horiz-adv-x="919" 
d="M789 -2l-186 4q-13 0 -23 38q-13 49 -14 52q-33 57 -124 57q-54 0 -87 -49q-21 -31 -38 -96h-266q1 42 14 128t13 130q0 84 -18 182q-9 51 -40 179q239 32 264 35q147 17 264 17q144 0 203 -31q56 -30 75 -109q6 -26 28 -207q-1 -12 0 -51q1 -43 1 -69q0 -210 -66 -210z
M577 449q0 44 -33.5 75t-79.5 31q-61 0 -128 -65.5t-67 -124.5q0 -49 38 -81.5t89 -32.5q71 0 126 64t55 134zM506 840q-194 -110 -194 -112q0 -3 8 -19t10 -16q3 0 109.5 23.5t106.5 25.5q0 3 -40 98z" />
    <glyph glyph-name="Edieresis" unicode="&#xcb;" horiz-adv-x="880" 
d="M822 225q0 -31 -15 -115q-15 -90 -27 -108q-709 0 -717 -2q12 84 12 185q0 182 -41 451q76 12 158 21q193 21 365 24q53 1 190 -26q15 -28 34.5 -104t19.5 -109l-234 1q-5 0 -3 13q4 21 4 17q0 35 -25.5 56t-59.5 21q-59 0 -98 -26q-48 -32 -48 -93q0 -17 7 -21.5
t22 -4.5h181q-23 -41 -71 -127l-28 22q-18 10 -47 10q-33 0 -59 -28t-26 -62q0 -93 115 -93q58 0 98 20q52 26 48 76q-3 40 -3 42q-3 14 -20 36l235 1q12 0 24 -4q9 -43 9 -73zM447 777q0 23 15.5 38.5t37.5 15.5t37.5 -15.5t15.5 -38.5q0 -22 -15.5 -37.5t-37.5 -15.5
t-37.5 15.5t-15.5 37.5zM277 777q0 23 15.5 38.5t37.5 15.5t37.5 -15.5t15.5 -38.5q0 -22 -15.5 -37.5t-37.5 -15.5t-37.5 15.5t-15.5 37.5z" />
    <glyph glyph-name="Egrave" unicode="&#xc8;" horiz-adv-x="880" 
d="M822 225q0 -31 -15 -115q-15 -90 -27 -108q-709 0 -717 -2q12 84 12 185q0 182 -41 451q76 12 158 21q193 21 365 24q53 1 190 -26q15 -28 34.5 -104t19.5 -109l-234 1q-5 0 -3 13q4 21 4 17q0 35 -25.5 56t-59.5 21q-59 0 -98 -26q-48 -32 -48 -93q0 -17 7 -21.5
t22 -4.5h181q-23 -41 -71 -127l-28 22q-18 10 -47 10q-33 0 -59 -28t-26 -62q0 -93 115 -93q58 0 98 20q52 26 48 76q-3 40 -3 42q-3 14 -20 36l235 1q12 0 24 -4q9 -43 9 -73zM342 840q194 -110 194 -112q0 -3 -8 -19t-10 -16q-3 0 -109.5 23.5t-106.5 25.5q0 3 40 98z" />
    <glyph glyph-name="Iacute" unicode="&#xcd;" horiz-adv-x="436" 
d="M341 2q-33 -7 -107 -7q-36 0 -93 2q-75 3 -93 3q2 11 21 116q13 70 13 116q0 129 -9 193q-3 19 -47 215q109 38 218 38q30 0 56 -4q80 -179 80 -395q0 -149 -39 -277zM246 840q-194 -110 -194 -112q0 -3 8 -19t10 -16q3 0 109.5 23.5t106.5 25.5q0 3 -40 98z" />
    <glyph glyph-name="Icircumflex" unicode="&#xce;" horiz-adv-x="436" 
d="M341 2q-33 -7 -107 -7q-36 0 -93 2q-75 3 -93 3q2 11 21 116q13 70 13 116q0 129 -9 193q-3 19 -47 215q109 38 218 38q30 0 56 -4q80 -179 80 -395q0 -149 -39 -277zM0 707l125 107h83l125 -107h-83l-82 42l-85 -42h-83z" />
    <glyph glyph-name="Idieresis" unicode="&#xcf;" horiz-adv-x="436" 
d="M341 2q-33 -7 -107 -7q-36 0 -93 2q-75 3 -93 3q2 11 21 116q13 70 13 116q0 129 -9 193q-3 19 -47 215q109 38 218 38q30 0 56 -4q80 -179 80 -395q0 -149 -39 -277zM197 777q0 23 15.5 38.5t37.5 15.5t37.5 -15.5t15.5 -38.5q0 -22 -15.5 -37.5t-37.5 -15.5t-37.5 15.5
t-15.5 37.5zM27 777q0 23 15.5 38.5t37.5 15.5t37.5 -15.5t15.5 -38.5q0 -22 -15.5 -37.5t-37.5 -15.5t-37.5 15.5t-15.5 37.5z" />
    <glyph glyph-name="Igrave" unicode="&#xcc;" horiz-adv-x="436" 
d="M341 2q-33 -7 -107 -7q-36 0 -93 2q-75 3 -93 3q2 11 21 116q13 70 13 116q0 129 -9 193q-3 19 -47 215q109 38 218 38q30 0 56 -4q80 -179 80 -395q0 -149 -39 -277zM102 840q194 -110 194 -112q0 -3 -8 -19t-10 -16q-3 0 -109.5 23.5t-106.5 25.5q0 3 40 98z" />
    <glyph glyph-name="Oacute" unicode="&#xd3;" horiz-adv-x="914" 
d="M864 171q-7 -119 -121 -146q-143 -34 -341 -34q-248 0 -363 65q26 138 26 240q0 47 -12 132.5t-12 121.5q0 44 29 72t74 33q184 21 299 21q183 0 369 -60q56 -144 56 -332q0 -52 -4 -113zM611 412q0 50 -35.5 84.5t-86.5 34.5q-79 0 -142 -94q-56 -84 -56 -166
q0 -48 42 -86.5t89 -38.5q75 0 135 98q54 88 54 168zM516 840q-194 -110 -194 -112q0 -3 8 -19t10 -16q3 0 109.5 23.5t106.5 25.5q0 3 -40 98z" />
    <glyph glyph-name="Ocircumflex" unicode="&#xd4;" horiz-adv-x="914" 
d="M864 171q-7 -119 -121 -146q-143 -34 -341 -34q-248 0 -363 65q26 138 26 240q0 47 -12 132.5t-12 121.5q0 44 29 72t74 33q184 21 299 21q183 0 369 -60q56 -144 56 -332q0 -52 -4 -113zM611 412q0 50 -35.5 84.5t-86.5 34.5q-79 0 -142 -94q-56 -84 -56 -166
q0 -48 42 -86.5t89 -38.5q75 0 135 98q54 88 54 168zM270 707l125 107h83l125 -107h-83l-82 42l-85 -42h-83z" />
    <glyph glyph-name="Ograve" unicode="&#xd2;" horiz-adv-x="914" 
d="M864 171q-7 -119 -121 -146q-143 -34 -341 -34q-248 0 -363 65q26 138 26 240q0 47 -12 132.5t-12 121.5q0 44 29 72t74 33q184 21 299 21q183 0 369 -60q56 -144 56 -332q0 -52 -4 -113zM611 412q0 50 -35.5 84.5t-86.5 34.5q-79 0 -142 -94q-56 -84 -56 -166
q0 -48 42 -86.5t89 -38.5q75 0 135 98q54 88 54 168zM352 840q194 -110 194 -112q0 -3 -8 -19t-10 -16q-3 0 -109.5 23.5t-106.5 25.5q0 3 40 98z" />
    <glyph glyph-name="Uacute" unicode="&#xda;" horiz-adv-x="837" 
d="M27 648q43 -140 43 -341q0 -151 -26 -272q187 -41 331 -41q244 0 316 43q59 34 77 99q11 39 11 127q0 232 -61 390q-46 17 -107 22q-13 1 -111 5l-35 2q56 -125 56 -289q0 -122 -33 -221q-36 -43 -81 -43q-54 0 -82 47q-33 57 -33 195q0 101 25 209q1 5 15 51
q12 42 12 45q0 4 -42 4q-13 1 -32 1q-59 0 -131 -9q-79 -10 -112 -24zM456 850q-194 -110 -194 -112q0 -3 8 -19t10 -16q3 0 109.5 23.5t106.5 25.5q0 3 -40 98z" />
    <glyph glyph-name="Ucircumflex" unicode="&#xdb;" horiz-adv-x="837" 
d="M27 648q43 -140 43 -341q0 -151 -26 -272q187 -41 331 -41q244 0 316 43q59 34 77 99q11 39 11 127q0 232 -61 390q-46 17 -107 22q-13 1 -111 5l-35 2q56 -125 56 -289q0 -122 -33 -221q-36 -43 -81 -43q-54 0 -82 47q-33 57 -33 195q0 101 25 209q1 5 15 51
q12 42 12 45q0 4 -42 4q-13 1 -32 1q-59 0 -131 -9q-79 -10 -112 -24zM456 850q-194 -110 -194 -112q0 -3 8 -19t10 -16q3 0 109.5 23.5t106.5 25.5q0 3 -40 98z" />
    <glyph glyph-name="Ugrave" unicode="&#xd9;" horiz-adv-x="837" 
d="M27 648q43 -140 43 -341q0 -151 -26 -272q187 -41 331 -41q244 0 316 43q59 34 77 99q11 39 11 127q0 232 -61 390q-46 17 -107 22q-13 1 -111 5l-35 2q56 -125 56 -289q0 -122 -33 -221q-36 -43 -81 -43q-54 0 -82 47q-33 57 -33 195q0 101 25 209q1 5 15 51
q12 42 12 45q0 4 -42 4q-13 1 -32 1q-59 0 -131 -9q-79 -10 -112 -24zM322 850q194 -110 194 -112q0 -3 -8 -19t-10 -16q-3 0 -109.5 23.5t-106.5 25.5q0 3 40 98z" />
    <glyph glyph-name="circumflex" unicode="&#x2c6;" horiz-adv-x="611" 
d="M123 707l125 106h84l125 -106h-84l-81 41l-85 -41h-84z" />
    <glyph glyph-name="tilde" unicode="&#x2dc;" horiz-adv-x="544" 
d="M142 714h-61q7 53 40.5 82t79.5 27q38 -2 69 -18.5t43 -16.5q26 0 37 5q16 7 22 29h60q-13 -106 -122 -106q-37 0 -66 17.5t-45 17.5q-31 0 -40 -5q-14 -7 -17 -32z" />
    <glyph glyph-name="macron" unicode="&#xaf;" horiz-adv-x="391" 
d="M62 733v65h249v-65h-249z" />
    <glyph glyph-name="macron" unicode="&#x2c9;" horiz-adv-x="391" 
d="M62 733v65h249v-65h-249z" />
    <glyph glyph-name="cedilla" unicode="&#xb8;" horiz-adv-x="854" 
d="M521 -107q0 -35 -47 -57q-38 -18 -77 -18q-56 0 -77 9l39 48q4 0 18 -3.5t16 -3.5q46 0 46 26q0 10 -11.5 16.5t-79.5 6.5v88l78 -1v-38q44 -2 71 -25q24 -21 24 -48z" />
    <glyph glyph-name="Scaron" unicode="&#x160;" 
 />
    <glyph glyph-name="scaron" unicode="&#x161;" 
 />
    <glyph glyph-name="brokenbar" unicode="&#xa6;" 
 />
    <glyph glyph-name="Eth" unicode="&#xd0;" 
 />
    <glyph glyph-name="eth" unicode="&#xf0;" 
 />
    <glyph glyph-name="Yacute" unicode="&#xdd;" 
 />
    <glyph glyph-name="yacute" unicode="&#xfd;" 
 />
    <glyph glyph-name="Thorn" unicode="&#xde;" 
 />
    <glyph glyph-name="thorn" unicode="&#xfe;" 
 />
    <glyph glyph-name="minus" unicode="&#xad;" 
 />
    <glyph glyph-name="minus" unicode="&#x2212;" 
 />
    <glyph glyph-name="multiply" unicode="&#xd7;" 
 />
    <glyph glyph-name="onesuperior" unicode="&#xb9;" 
 />
    <glyph glyph-name="twosuperior" unicode="&#xb2;" 
 />
    <glyph glyph-name="threesuperior" unicode="&#xb3;" 
 />
    <glyph glyph-name="onehalf" unicode="&#xbd;" 
 />
    <glyph glyph-name="onequarter" unicode="&#xbc;" 
 />
    <glyph glyph-name="threequarters" unicode="&#xbe;" 
 />
    <glyph glyph-name="Lslash" unicode="&#x141;" 
 />
    <glyph glyph-name="lslash" unicode="&#x142;" 
 />
    <glyph glyph-name="HT" 
 />
    <glyph glyph-name="LF" 
 />
    <glyph glyph-name="nonmarkingreturn" 
 />
    <glyph glyph-name="Zcaron" unicode="&#x17d;" 
 />
    <glyph glyph-name="zcaron" unicode="&#x17e;" 
 />
    <glyph glyph-name="DLE" 
 />
    <glyph glyph-name="DC1" 
 />
    <glyph glyph-name="DC2" 
 />
    <glyph glyph-name="DC3" 
 />
    <glyph glyph-name="DC4" 
 />
    <glyph glyph-name="RS" 
 />
    <glyph glyph-name="US" 
 />
    <glyph glyph-name="DEL" horiz-adv-x="1002" 
 />
    <glyph glyph-name="notequal" unicode="&#x2260;" 
 />
    <glyph glyph-name="infinity" unicode="&#x221e;" 
 />
    <glyph glyph-name="lessequal" unicode="&#x2264;" 
 />
    <glyph glyph-name="greaterequal" unicode="&#x2265;" 
 />
    <glyph glyph-name="partialdiff" unicode="&#x2202;" horiz-adv-x="688" 
d="M610 -3h-585q23 84 29 169l-45 -25q-5 -2 -10.5 2.5t-5.5 10.5v55q0 7 8 11l3 2l53 28q-2 155 -49 268q149 30 295 30q32 0 66 -2q-36 -71 -70 -164l79 43q5 2 10 -2.5t5 -10.5v-55q0 -7 -8 -11l-3 -2l-116 -63q-14 -53 -14 -82q0 -36 19 -58t53 -22q38 0 66 22t28 58
q0 23 -25 57l233 -1q20 -1 20 -22q0 -111 -36 -236z" />
    <glyph glyph-name="summation" unicode="&#x2211;" horiz-adv-x="806" 
d="M16 633q42 -149 47 -284q1 -23 22 -23q13 0 41 3t42 3q131 0 234 -44q53 -23 53 -88q0 -43 -32 -70t-76 -27q-38 0 -61.5 21.5t-23.5 58.5q0 46 29 76q-61 24 -163 24q-35 0 -62 -5l-29 -251q161 -37 361 -37q176 0 319 30q38 138 38 264q0 34 -1 39q-3 18 -19.5 34
t-34.5 18l-293 31q6 -1 -11 -1q-33 0 -56.5 23.5t-23.5 55.5q0 69 99 69q88 0 88 -78q0 -11 -2 -24q112 1 249 -36l-55 228q-122 28 -290 28q-196 0 -389 -38zM527 813l-125 -106h-84l-125 106h84l81 -41l85 41h84z" />
    <glyph glyph-name="product" unicode="&#x220f;" horiz-adv-x="645" 
d="M323 560h-70l-112 96h81l65 -33l67 33h81zM577 12q-117 -25 -259 -25q-160 0 -294 31l24 209q26 4 54 4q83 0 139 -22q-27 -28 -27 -63q0 -59 63 -59q34 0 58 20.5t24 52.5q0 49 -39 66q-82 34 -186 34q-11 0 -33 -2.5t-33 -2.5q-21 0 -22 24q-5 108 -39 231
q160 32 317 32q135 0 236 -24l47 -193q-117 32 -212 31q2 12 2 22q0 60 -65 60q-74 0 -74 -51q0 -24 17 -41t42 -17q14 0 9 1l235 -25q16 -2 30.5 -15.5t16.5 -30.5q2 -6 2 -16q-1 -118 -33 -231z" />
    <glyph glyph-name="pi" unicode="&#x3c0;" horiz-adv-x="855" 
d="M17 651q35 -90 48 -155q13 -69 13 -171q41 1 79 1q200 0 281 -32q26 -10 46.5 -42t20.5 -63q0 -30 -21.5 -48t-51.5 -18q-45 0 -81 18q-44 22 -44 63q0 28 21 49h-247q-14 -88 -24 -157q-10 -63 -10 -71v-1q7 -2 56 -10q165 -27 319 -27q209 0 321 42q22 8 28 30
q19 79 19 202q0 201 -61 395q-62 13 -173 13q-50 0 -110 -11q33 -115 33 -164q0 -34 -22.5 -54.5t-57.5 -20.5q-24 0 -47 13.5t-30.5 36t-7.5 89.5q0 61 18 112q-9 1 -89 1q-156 0 -226 -20zM466 840q-194 -110 -194 -112q0 -3 8 -19t10 -16q3 0 109.5 23.5t106.5 25.5
q0 3 -40 98z" />
    <glyph glyph-name="integral" unicode="&#x222b;" horiz-adv-x="684" 
d="M232 549q-2 0 -10.5 15.5t-8.5 17.5t162 97q35 -83 35 -85t-87.5 -23.5t-90.5 -21.5zM621 46q-5 -20 -25 -28q-90 -34 -258 -34q-124 0 -257 22q-15 2 -44 8q-4 2 -4 6q0 6 8 59t19 128h215q-25 -24 -25 -44q0 -29 33 -46q27 -13 63 -13q22 0 37.5 13t15.5 35
q0 23 -15.5 47t-35.5 32q-64 25 -222 25q-30 0 -69 -1q0 85 -10 141q-11 53 -40 128q62 18 188 18q64 0 78 -2q-17 -45 -17 -93q0 -53 6 -71q12 -36 58 -36q25 0 42 15t17 40q0 39 -29 136q54 9 95 9q89 0 142 -11q50 -158 50 -320q0 -99 -16 -163z" />
    <glyph glyph-name="Omega" unicode="&#x3a9;" horiz-adv-x="826" 
d="M487 255h-216q-1 -11 -1 -21q0 -49 40 -81.5t91 -32.5q48 0 92 18q55 22 55 59q0 13 3 18l-6 14q45 11 91 11q2 0 124 -8q18 -1 24 -14q3 -8 3 -29q0 -61 -26 -189l-576 2q-61 -1 -100 38q-35 36 -33 79q2 32 11 70q7 33 7 66l-64 -3l2 64l59 -2q-3 24 -6 51h-53l-8 59
h51q-14 82 -13 87q19 144 124 147q56 2 181 12q101 8 133 5q60 -3 121 -7q70 -5 113 -15q28 -27 48 -91q18 -57 18 -105h-227q3 15 8 17t5 19q0 20 -35 32q-29 10 -57 8q-89 -4 -147 -109h175q-15 -24 -13 -59h-189q-9 -25 -16 -51h205q0 -22 2 -59z" />
    <glyph glyph-name="Omega" unicode="&#x2126;" horiz-adv-x="826" 
d="M487 255h-216q-1 -11 -1 -21q0 -49 40 -81.5t91 -32.5q48 0 92 18q55 22 55 59q0 13 3 18l-6 14q45 11 91 11q2 0 124 -8q18 -1 24 -14q3 -8 3 -29q0 -61 -26 -189l-576 2q-61 -1 -100 38q-35 36 -33 79q2 32 11 70q7 33 7 66l-64 -3l2 64l59 -2q-3 24 -6 51h-53l-8 59
h51q-14 82 -13 87q19 144 124 147q56 2 181 12q101 8 133 5q60 -3 121 -7q70 -5 113 -15q28 -27 48 -91q18 -57 18 -105h-227q3 15 8 17t5 19q0 20 -35 32q-29 10 -57 8q-89 -4 -147 -109h175q-15 -24 -13 -59h-189q-9 -25 -16 -51h205q0 -22 2 -59z" />
    <glyph glyph-name="radical" unicode="&#x221a;" 
 />
    <glyph glyph-name="approxequal" unicode="&#x2248;" 
 />
    <glyph glyph-name="approxequal" unicode="&#x22f2;" 
 />
    <glyph glyph-name="Delta" unicode="&#x394;" 
 />
    <glyph glyph-name="Delta" unicode="&#x2206;" 
 />
    <glyph glyph-name="lozenge" unicode="&#x25ca;" horiz-adv-x="345" 
d="M11 332l141 171l141 -171l-141 -171z" />
    <glyph glyph-name="fraction" unicode="&#x2044;" 
 />
    <glyph glyph-name="fi" unicode="&#xf001;" 
 />
    <glyph glyph-name="fl" unicode="&#xf002;" 
 />
    <glyph glyph-name="apple" unicode="&#xf000;" 
 />
    <glyph glyph-name="dotlessi" unicode="&#x131;" horiz-adv-x="837" 
d="M27 648q43 -140 43 -341q0 -151 -26 -272q187 -41 331 -41q244 0 316 43q59 34 77 99q11 39 11 127q0 232 -61 390q-46 17 -107 22q-13 1 -111 5l-35 2q56 -125 56 -289q0 -122 -33 -221q-36 -43 -81 -43q-54 0 -82 47q-33 57 -33 195q0 101 25 209q1 5 15 51
q12 42 12 45q0 4 -42 4q-13 1 -32 1q-59 0 -131 -9q-79 -10 -112 -24zM322 850q194 -110 194 -112q0 -3 -8 -19t-10 -16q-3 0 -109.5 23.5t-106.5 25.5q0 3 40 98z" />
    <glyph glyph-name="breve" unicode="&#x2d8;" horiz-adv-x="406" 
d="M253 823h62q-14 -126 -125 -126q-110 0 -125 125l63 1q7 -63 62 -63t63 63z" />
    <glyph glyph-name="dotaccent" unicode="&#x2d9;" horiz-adv-x="204" 
d="M37 757q0 23 15.5 38.5t37.5 15.5t37.5 -15.5t15.5 -38.5q0 -22 -15.5 -37.5t-37.5 -15.5t-37.5 15.5t-15.5 37.5z" />
    <glyph glyph-name="ring" unicode="&#x2da;" horiz-adv-x="919" 
d="M359 769q0 31 26 51t58 20q33 0 59 -20t26 -51t-26.5 -50.5t-58.5 -19.5t-58 19.5t-26 50.5zM401 769q0 -15 13 -25t29 -10q17 0 30 10t13 25q0 16 -13.5 25.5t-29.5 9.5t-29 -9.5t-13 -25.5z" />
    <glyph glyph-name="hungarumlaut" unicode="&#x2dd;" horiz-adv-x="500" 
d="M88 707l55 120h84l-66 -120h-73zM235 707l55 120h83l-64 -120h-74z" />
    <glyph glyph-name="ogonek" unicode="&#x2db;" horiz-adv-x="500" 
d="M331 -40q-9 2 -18 2q-60 0 -68 -54q-2 -8 -2 -16q0 -53 62 -56l31 -77q-34 -9 -52 -9q-67 0 -100 50q-29 42 -29 108q0 44 45 90t89 46h42v-84z" />
    <glyph glyph-name="caron" unicode="&#x2c7;" horiz-adv-x="611" 
d="M457 813l-125 -106h-84l-125 106h84l81 -41l85 41h84z" />
    </font>
</defs>
</svg>
