<?xml version="1.0" standalone="no"?>
<!DOCTYPE svg PUBLIC "-//W3C//DTD SVG 1.1//EN" "http://www.w3.org/Graphics/SVG/1.1/DTD/svg11.dtd" >
<svg>
<metadata>
Created by FontForge 20120731 at Wed Apr 17 21:59:20 2019
 By www-data
Digitized by Dan X. Solo. Software (c) 2000 by Dover Publications, Inc., New York.
</metadata>
<defs>
<font id="MitziDeco" horiz-adv-x="20" >
  <font-face 
    font-family="Mitzi Deco"
    font-weight="400"
    font-stretch="normal"
    units-per-em="1000"
    panose-1="0 0 4 0 0 0 0 0 0 0"
    ascent="800"
    descent="-200"
    x-height="372"
    cap-height="672"
    bbox="-51 -311 724 842"
    underline-thickness="20"
    underline-position="-123"
    unicode-range="U+0020-F002"
  />
<missing-glyph horiz-adv-x="500" 
d="M63 0v800h375v-800h-375zM125 63h250v675h-250v-675z" />
    <glyph glyph-name=".notdef" horiz-adv-x="500" 
d="M63 0v800h375v-800h-375zM125 63h250v675h-250v-675z" />
    <glyph glyph-name="glyph1" horiz-adv-x="0" 
 />
    <glyph glyph-name="glyph2" horiz-adv-x="195" 
 />
    <glyph glyph-name="space" unicode=" " horiz-adv-x="195" 
 />
    <glyph glyph-name="exclam" unicode="!" horiz-adv-x="233" 
d="M140 224l-66 -29l-28 435l124 54zM187 76q2 -32 -20.5 -56t-54.5 -23q-31 0 -52.5 24.5t-20.5 56.5q2 29 22.5 50t47.5 21q31 0 54 -21t24 -52z" />
    <glyph glyph-name="quotedbl" unicode="&#x22;" horiz-adv-x="267" 
d="M206 444l-51 1l-22 228h91zM96 444l-51 1l-22 228h91z" />
    <glyph glyph-name="numbersign" unicode="#" horiz-adv-x="420" 
d="M266 481h-94l-39 -274h94zM81 556h55l16 116h47l-17 -116h94l16 116h47l-17 -116h59l-10 -75h-59l-39 -274h59l-10 -75h-59l-19 -131h-46l18 131h-93l-19 -131h-46l18 131h-54l10 75h55l39 274h-55z" />
    <glyph glyph-name="dollar" unicode="$" horiz-adv-x="242" 
d="M211 295q0 -21 -19 -55q-20 -38 -49 -59v-77h-43v60h-4q-13 -1 -39 18q-19 14 -37 28q41 11 67 36t26 55q0 17 -40.5 54.5t-43.5 80.5q-2 26 19.5 64.5t51.5 54.5v58h43v-58q32 -21 55 -41q-33 -11 -54.5 -33.5t-19.5 -47.5q1 -15 44 -57.5t43 -80.5z" />
    <glyph glyph-name="percent" unicode="%" horiz-adv-x="642" 
d="M485 672l-277 -671h-58l277 671h58zM509 -4l-17 -1q-71 -3 -102 72q-20 47 -22 112q-1 19 -2 61q11 171 122 175q69 2 100 -80q19 -50 22 -118q2 -63 -13 -121q-24 -98 -88 -100zM169 256l-17 -1q-71 -3 -102 72q-20 47 -22 112q-1 19 -2 61q11 171 122 175q69 2 100 -80
q19 -50 22 -118q2 -63 -13 -121q-24 -98 -88 -100zM527 281q-13 59 -37 58q-50 -2 -50 -120q0 -25 2 -49q9 -93 48 -91q45 1 45 110q0 53 -8 92zM187 541q-13 59 -37 58q-50 -2 -50 -120q0 -25 2 -49q9 -93 48 -91q45 1 45 110q0 53 -8 92z" />
    <glyph glyph-name="ampersand" unicode="&#x26;" horiz-adv-x="437" 
d="M281 263h107v-291h-176v1q-70 5 -128 78q-54 69 -54 135q0 50 17 88q11 26 30 46q17 17 17 16q0 6 -17 23q-20 21 -30 43q-16 35 -16 85q0 67 51 129q57 68 135 68q37 0 76 -21q11 -29 33 -114q-16 12 -33 23q-19 15 -37 15q-58 0 -89 -29.5t-31 -79.5q0 -49 26 -89
t62 -51q-31 -8 -55 -54t-24 -89q0 -55 33.5 -91.5t88.5 -36.5h14v196z" />
    <glyph glyph-name="quotesingle" unicode="'" horiz-adv-x="149" 
d="M96 444l-51 1l-22 228h91z" />
    <glyph glyph-name="parenleft" unicode="(" horiz-adv-x="266" 
d="M218 -19q-177 36 -185 354q-4 136 34 229q45 111 136 130q-3 -1 37 -69q-114 -31 -110 -287q4 -262 118 -282q-11 -29 -30 -75z" />
    <glyph glyph-name="parenright" unicode=")" horiz-adv-x="266" 
d="M63 -19q176 36 185 354q3 136 -35 229q-44 111 -135 130q2 -1 -37 -69q113 -31 109 -287q-4 -262 -117 -282q10 -29 30 -75z" />
    <glyph glyph-name="asterisk" unicode="*" horiz-adv-x="354" 
d="M162 561l-11 113h55l-9 -112l93 64l27 -47l-104 -48l104 -49l-28 -47l-93 67l10 -123h-55l12 124l-95 -68l-28 47l104 49l-103 48l26 47z" />
    <glyph glyph-name="plus" unicode="+" horiz-adv-x="515" 
d="M206 558h90v-178h178v-91h-178v-178h-90v178h-178v91h178v178z" />
    <glyph glyph-name="comma" unicode="," horiz-adv-x="189" 
d="M155 44q-5 -21 -16 -30q-16 -23 -65 -80l-26 3q16 22 43 64q-20 3 -36.5 18.5t-16.5 35.5q0 24 19.5 42t40.5 18q25 0 43 -23q15 -19 15 -39q0 -8 -1 -9z" />
    <glyph glyph-name="hyphen" unicode="-" horiz-adv-x="242" 
d="M46 310h163l-30 -84h-163z" />
    <glyph glyph-name="hyphen" unicode="&#x2010;" horiz-adv-x="242" 
d="M46 310h163l-30 -84h-163z" />
    <glyph glyph-name="period" unicode="." horiz-adv-x="189" 
d="M156 53q0 -21 -18 -36.5t-41 -15.5q-20 0 -39.5 16t-19.5 38q0 24 19.5 42t40.5 18q25 0 43 -23q15 -19 15 -39z" />
    <glyph glyph-name="slash" unicode="/" horiz-adv-x="390" 
d="M355 672l-277 -671h-58l277 671h58z" />
    <glyph glyph-name="zero" unicode="0" horiz-adv-x="480" 
d="M434 358q0 -104 -25 -195q-44 -159 -147 -159h-29q-111 0 -158 121q-30 76 -30 184l3 105q27 273 203 273q111 0 156 -135q27 -81 27 -194zM325 355q0 65 -9 117q-18 106 -66 106q-59 0 -84 -99q-14 -60 -14 -143q0 -209 84 -209q55 0 77 102q12 54 12 126z" />
    <glyph glyph-name="one" unicode="1" horiz-adv-x="309" 
d="M207 35l-105 -45v625l105 60q1 -19 1 -54v-180q-1 -415 -1 -406z" />
    <glyph glyph-name="two" unicode="2" horiz-adv-x="395" 
d="M346 488q0 -135 -131 -362l-13 -16h138q-14 -38 -44 -108h-262v11q0 -1 52 88q60 104 96 189q52 121 52 194q0 30 -17 56q-20 32 -53 32q-26 0 -89 -35v114q24 32 108 30q80 -1 124 -63q39 -54 39 -130z" />
    <glyph glyph-name="three" unicode="3" horiz-adv-x="381" 
d="M317 487q0 -50 -16 -85q-10 -22 -31 -43q-16 -17 -16 -23q0 1 17 -16q19 -20 30 -46q17 -38 17 -88q0 -69 -57 -139q-62 -74 -134 -74q-10 0 -44 43q-18 25 -37 50q75 -2 116 33t41 96q0 41 -34 82t-81 54q124 51 124 147q0 109 -100 109q-18 0 -37 -15q-17 -11 -33 -23
q10 52 33 114q39 21 76 21q76 0 125 -68q41 -59 41 -129z" />
    <glyph glyph-name="four" unicode="4" horiz-adv-x="498" 
d="M469 251l-41 -108l-50 -1q-2 -23 0 -112l-102 -56v171h-247v15l232 481l115 47l-1 -437h94zM275 462l-5 4q-72 -212 -83 -215h88v211z" />
    <glyph glyph-name="five" unicode="5" horiz-adv-x="366" 
d="M300 550h-96l-42 -147q86 2 125 -58q30 -46 30 -121q0 -67 -37 -146q-16 -35 -45 -72q-47 -59 -99 -81q-9 -4 -80 63q143 101 143 224q0 99 -103 99q-35 0 -66 -11q19 68 42 176q31 150 37 177l227 1z" />
    <glyph glyph-name="six" unicode="6" horiz-adv-x="451" 
d="M413 197q-2 -85 -48 -142q-53 -64 -143 -63q-101 2 -149 79q-36 60 -35 152v48q2 41 16 94q20 76 78 180q61 108 104 139q4 2 41 -25q33 -25 40 -33q-15 -13 -63 -82q-63 -88 -73 -134q0 -1 -7 -19t-7 -23q0 -3 2 -2l44 14q6 1 48 -2q74 -7 117 -68q36 -51 35 -113z
M310 190q0 32 -23 60.5t-58 29.5q-36 0 -57 -24t-24 -57q-3 -40 21.5 -66t56.5 -27q32 0 57.5 26.5t26.5 57.5z" />
    <glyph glyph-name="seven" unicode="7" horiz-adv-x="358" 
d="M163 33l-122 -43l142 579l-150 1l32 103h260z" />
    <glyph glyph-name="eight" unicode="8" horiz-adv-x="425" 
d="M388 181q1 -76 -48.5 -133t-124.5 -58q-79 -1 -127.5 49.5t-50.5 130.5q-1 57 20 101q14 28 40 57q21 23 21 28l-34 44q-35 54 -36 109q-1 81 41.5 128t121.5 48q68 1 119 -49t48 -114q-6 -125 -63 -167q30 -26 50 -71q22 -49 23 -103zM271 521q0 28 -15.5 47t-43.5 19
q-28 -1 -46 -22.5t-13 -51.5q4 -24 21 -57q21 -41 38 -40q19 0 40 44q20 40 19 61zM277 182q0 24 -22 63q-24 43 -46 43q-25 0 -46 -45q-17 -38 -17 -64q1 -30 20 -52t49 -21q29 0 46 23t16 53z" />
    <glyph glyph-name="nine" unicode="9" horiz-adv-x="458" 
d="M38 479q2 85 48 142q53 64 143 63q101 -2 149 -79q36 -61 35 -153v-47q-2 -41 -16 -94q-20 -77 -78 -180q-61 -108 -104 -139q-4 -2 -41 25q-33 25 -40 32q15 14 63 83q63 88 73 134q0 1 7 19t7 23q0 2 -2 2l-44 -14q-6 -1 -48 2q-74 7 -117 67q-36 52 -35 114zM141 486
q0 -32 22 -59q24 -30 59 -31q36 0 57 24t24 57q2 40 -22 66t-56 26q-32 1 -57.5 -26t-26.5 -57z" />
    <glyph glyph-name="colon" unicode=":" horiz-adv-x="189" 
d="M156 53q0 -21 -18 -36.5t-41 -15.5q-20 0 -39.5 16t-19.5 38q0 24 19.5 42t40.5 18q25 0 43 -23q15 -19 15 -39zM156 283q0 -21 -18 -36.5t-41 -15.5q-20 0 -39.5 16t-19.5 38q0 24 19.5 42t40.5 18q25 0 43 -23q15 -19 15 -39z" />
    <glyph glyph-name="semicolon" unicode=";" horiz-adv-x="189" 
d="M74 -66l-26 3q16 22 43 64q-20 3 -36.5 18.5t-16.5 35.5q0 24 19.5 42t40.5 18q25 0 43 -23q15 -19 15 -39q0 -6 -7 -23t-11.5 -22t-63.5 -74zM156 283q0 -21 -18 -36.5t-41 -15.5q-20 0 -39.5 16t-19.5 38q0 24 19.5 42t40.5 18q25 0 43 -23q15 -19 15 -39z" />
    <glyph glyph-name="less" unicode="&#x3c;" horiz-adv-x="371" 
d="M264 546l64 -64l-168 -168l168 -168l-64 -64l-232 232z" />
    <glyph glyph-name="equal" unicode="=" horiz-adv-x="403" 
d="M46 280h313l-30 -84h-313zM46 430h313l-30 -84h-313z" />
    <glyph glyph-name="greater" unicode="&#x3e;" horiz-adv-x="371" 
d="M96 82l-64 64l168 168l-168 168l64 64l232 -232z" />
    <glyph glyph-name="question" unicode="?" horiz-adv-x="285" 
d="M261 565q0 -48 -46.5 -161t-47.5 -180q-8 -3 -50 -20q-36 -14 -39 -14h-18q3 6 1 19q-1 19 -1 18q0 69 42 169.5t42 135.5q0 27 -14 45q-16 23 -47 23q-10 0 -59 -16q25 73 42 92q23 27 76 27q62 0 93 -45q26 -37 26 -93zM199 81q0 -32 -23.5 -52.5t-52.5 -20.5
q-37 0 -57 23q-17 20 -17 52q0 31 22.5 52t51.5 21q30 0 53 -23t23 -52z" />
    <glyph glyph-name="at" unicode="@" horiz-adv-x="762" 
d="M699 379q0 -110 -56.5 -179.5t-138.5 -69.5q-92 0 -99 75q-54 -65 -129 -65q-42 0 -71 31q-32 34 -32 94q0 110 59 184q65 82 176 82q60 0 116 -30q-11 -36 -54 -232q-6 -26 -6 -43q0 -39 43 -39q47 0 82 56t35 136q0 102 -73 172q-76 71 -193 71q-122 0 -203 -93
q-77 -89 -77 -211q0 -112 77 -185.5t187 -73.5q65 0 124 19l16 -58q-61 -20 -140 -20q-143 0 -237 82q-102 88 -102 236q0 153 100.5 257t254.5 104q147 0 244 -82.5t97 -217.5zM438 469q-13 6 -36 6q-75 0 -118 -71q-36 -60 -36 -142q0 -60 46 -60q31 0 62 28q37 32 48 85z
" />
    <glyph glyph-name="A" unicode="A" horiz-adv-x="418" 
d="M367 50l-101 -58v219h-102v-167l-101 -57v224h-82l37 91h45l-1 107q0 116 59 188q62 76 176 77q48 1 68 -7zM266 304v255q-68 8 -90 -70q-12 -38 -12 -116v-69h102z" />
    <glyph glyph-name="B" unicode="B" horiz-adv-x="398" 
d="M356 181q-3 -107 -89 -153q-59 -31 -149 -31q-26 0 -76 10v660q7 2 63 7q243 12 243 -192q0 -88 -63 -137q74 -54 71 -164zM239 483q0 29 -16 55q-19 33 -53 33q-8 0 -17 -4v-165q7 -6 18 -6q35 0 54 33q14 25 14 54zM245 194q0 29 -19 60q-22 37 -56 37q-2 0 -17 -7
v-175q4 -3 18 -3q35 0 56 33q18 27 18 55z" />
    <glyph glyph-name="C" unicode="C" horiz-adv-x="349" 
d="M320 94q0 -3 -49 -99q-112 19 -181 118q-65 94 -68 222q-3 125 60 224q65 103 167 124q6 2 65 -95q-74 -11 -125 -85t-50 -165t54 -164q55 -76 127 -80z" />
    <glyph glyph-name="D" unicode="D" horiz-adv-x="420" 
d="M378 338q2 -142 -64 -235q-76 -106 -216 -106q-67 0 -63 1l1 674h61q132 0 210 -103q70 -93 71 -231zM271 341q-1 86 -28 146q-33 72 -94 74v-447q124 11 122 227z" />
    <glyph glyph-name="E" unicode="E" horiz-adv-x="404" 
d="M370 89q0 -3 -49 -99q-103 18 -170 103q-64 81 -77 195h-76l40 95h35q12 109 73.5 192.5t152.5 102.5q5 1 65 -95q-64 -9 -111.5 -66.5t-60.5 -133.5h155l-40 -95h-114q14 -79 64 -137t113 -62z" />
    <glyph glyph-name="F" unicode="F" horiz-adv-x="378" 
d="M366 672q-18 -36 -53 -103h-125v-181h144l-53 -103h-94v-236q-24 -15 -102 -50l-1 291q-54 -1 -77 1q11 31 43 101h34l-2 280h286z" />
    <glyph glyph-name="G" unicode="G" horiz-adv-x="410" 
d="M271 -2q-107 22 -172 120q-63 93 -66 217q-2 125 66 228t172 124q6 2 65 -95q-76 -11 -131.5 -86.5t-53.5 -167.5q1 -65 23 -121q29 -71 82 -84l-1 191l107 56l1 -371q-12 -10 -52 -13q-39 -4 -40 2z" />
    <glyph glyph-name="H" unicode="H" horiz-adv-x="456" 
d="M402 54l-110 -61v296h-110v-235l-110 -61v296h-104l58 105h46l1 218l109 65v-283h110l1 218l109 65v-623z" />
    <glyph glyph-name="I" unicode="I" horiz-adv-x="192" 
d="M145 54l-111 -61l1 614l110 65v-618z" />
    <glyph glyph-name="J" unicode="J" horiz-adv-x="282" 
d="M236 226q4 -98 -38 -172q-46 -82 -123 -82q-11 0 -23 2q-24 40 -48 97q2 1 26 1q99 0 99 171q0 30 -3 48l1 339l108 44z" />
    <glyph glyph-name="K" unicode="K" horiz-adv-x="465" 
d="M458 670l-159 -280q40 -2 71 -45t31 -101q0 -25 -1 -58.5t-1 -44.5q0 -52 28 -96q1 -2 -47 -25.5t-54 -23.5q-27 0 -33 75v155q0 68 -73 68q-24 0 -26 -3l1 -246l-112 -51v298q-36 -3 -69 1q13 39 36 105q3 3 13.5 0t16.5 0v143q0 45 1 89l115 51q0 -272 3 -264
q136 253 144 253h115z" />
    <glyph glyph-name="L" unicode="L" horiz-adv-x="337" 
d="M269 1h-213v632l114 47v-572l147 1z" />
    <glyph glyph-name="M" unicode="M" horiz-adv-x="679" 
d="M643 33q-77 -50 -90 -50q-24 26 -37 78q-6 36 -12 71v305q-4 9 -2 50t-5 58q-12 28 -49 27q-51 -2 -52 -71v-464l-114 -45v531q0 22 -18 35.5t-36 13.5q-43 0 -53 -42q-2 -10 -2 -63v-129q0 -181 -1 -301q-24 -10 -115 -45l2 627q52 26 117 55q-3 -15 0 -41q37 45 102 45
q49 0 98 -39q36 39 109 39q124 -1 124 -185l1 -362q0 -56 33 -98z" />
    <glyph glyph-name="N" unicode="N" horiz-adv-x="433" 
d="M402 26l-88 -32q-49 23 -49 152v355q0 23 -14 44t-39 21q-47 0 -55 -48l-3 -480q-37 -15 -109 -49l1 630q27 16 107 58q-2 -22 3 -31q3 0 35 15q24 11 59 11q87 2 114 -83q12 -39 12 -135v-350q0 -48 26 -78z" />
    <glyph glyph-name="O" unicode="O" horiz-adv-x="473" 
d="M426 344q0 -118 -33 -208q-51 -141 -170 -141q-118 0 -168 141q-31 87 -31 208q0 102 35 193q53 140 165 140q113 0 167 -140q35 -92 35 -193zM318 338q0 60 -16 126q-25 105 -79 105q-52 0 -76 -105q-14 -63 -14 -126q0 -66 13 -121q24 -96 81 -96q91 0 91 217z" />
    <glyph glyph-name="P" unicode="P" horiz-adv-x="425" 
d="M389 463q0 -80 -57 -139q-60 -61 -150 -66v-228l-106 -37v268h-76l41 112h35v296q36 4 68 4q245 0 245 -210zM278 466q0 28 -14 57q-19 41 -55 41h-25l1 -191q4 0 10 -1h8q33 0 55 31q20 28 20 63z" />
    <glyph glyph-name="Q" unicode="Q" horiz-adv-x="484" 
d="M432 328q0 -82 -32 -169q-36 -97 -90 -131q11 -3 57 -38q54 -42 54 -67q0 2 -39.5 -38t-37.5 -40q1 0 -36 33q-42 39 -79 62q-53 33 -95 34q6 15 36 59q-72 21 -108 136q-25 82 -25 175q0 115 31 199q49 134 166 134q124 0 170 -124q28 -77 28 -225zM321 344
q0 222 -84 222q-51 0 -72 -89q-14 -56 -14 -128q0 -211 83 -211q47 0 70 82q17 57 17 124z" />
    <glyph glyph-name="R" unicode="R" horiz-adv-x="453" 
d="M405 473q3 -43 -18 -86q-22 -46 -63 -75q70 -39 70 -111v-133q0 -16 14 -38l-105 -46q-24 27 -17 141q3 61 -8 88q-16 37 -66 37q-21 0 -23 -3l-2 -215q-33 -14 -101 -40v258l-90 -1l55 106h29l-1 315q39 0 98 1q114 3 159 -28q61 -41 69 -170zM291 465q0 26 -14 57
q-19 41 -52 41h-37l1 -205q3 -4 11 -2q13 2 12 2q37 0 60 36q19 31 19 71z" />
    <glyph glyph-name="S" unicode="S" horiz-adv-x="311" 
d="M267 613q-48 -9 -84.5 -57.5t-36.5 -89.5q0 -37 32 -83q28 -40 57 -81q31 -52 29 -105q-5 -134 -139 -224q-46 49 -77 88q50 36 70 60q28 33 28 72q0 52 -56 126.5t-60 143.5q-4 74 51 150t109 76q10 0 77 -76z" />
    <glyph glyph-name="T" unicode="T" horiz-adv-x="405" 
d="M367 667l-48 -104l-82 -1l1 -528l-105 -45l-1 577l-109 1l38 100h306z" />
    <glyph glyph-name="U" unicode="U" horiz-adv-x="442" 
d="M414 27l-96 -40q-20 18 -23 31q-9 0 -39.5 -16.5t-57.5 -17.5q-95 -4 -131 85q-15 37 -17 90l-1 334q0 63 -21 114q32 25 94 67q32 -46 32 -149l-1 -344q0 -31 13 -55q17 -30 50 -32q56 -2 56 86q0 9 -1 23v18v413l103 46v-555q0 -27 40 -98z" />
    <glyph glyph-name="V" unicode="V" horiz-adv-x="459" 
d="M440 682q-55 -186 -98 -325q-101 -334 -124 -381l-191 640l100 65q37 -134 98 -373q2 0 93 311z" />
    <glyph glyph-name="W" unicode="W" horiz-adv-x="662" 
d="M608 677q4 -338 0 -495q-2 -104 -41 -150t-120 -46q-55 0 -116 40q-44 -43 -124 -43q-84 0 -123 60q-31 48 -31 125v338q0 84 -28 116q31 19 96 49q35 -34 35 -197v-329q0 -21 19 -37t38 -14q53 7 64 65v452l106 59v-511q0 -24 20 -40.5t43 -16.5q32 -1 46 31q8 19 8 38
l1 434z" />
    <glyph glyph-name="X" unicode="X" horiz-adv-x="438" 
d="M407 692l-133 -345l134 -302l-104 -44l-94 205l-64 -158l-131 -51l134 341l-131 289l98 48l92 -194l65 155z" />
    <glyph glyph-name="Y" unicode="Y" horiz-adv-x="431" 
d="M428 689l-166 -366l-1 -283l-113 -53v340l-152 303l103 47l104 -214l76 167z" />
    <glyph glyph-name="Z" unicode="Z" horiz-adv-x="384" 
d="M344 670l-170 -561h152l-40 -109h-261l175 571h-146l34 99h256zM7992 190z" />
    <glyph glyph-name="bracketleft" unicode="[" horiz-adv-x="227" 
d="M178 -78h-143v820l143 1v-54h-73v-713h73v-54z" />
    <glyph glyph-name="backslash" unicode="\" horiz-adv-x="390" 
d="M20 672l277 -671h58l-277 671h-58z" />
    <glyph glyph-name="bracketright" unicode="]" horiz-adv-x="227" 
d="M35 743h143v-820l-143 -1v54h74v713h-74v54z" />
    <glyph glyph-name="asciicircum" unicode="^" horiz-adv-x="556" 
d="M245 834h1v-1l167 -97q-8 -29 -8 -26q0 2 -165 40q-152 -38 -152 -40q0 -3 -9 26l167 98h1h1h-3z" />
    <glyph glyph-name="underscore" unicode="_" horiz-adv-x="429" 
d="M-1 -89h429v-49h-429v49z" />
    <glyph glyph-name="grave" unicode="`" horiz-adv-x="404" 
d="M102 822l197 -110q-11 -21 -11 -19t-218 45z" />
    <glyph glyph-name="a" unicode="a" horiz-adv-x="358" 
d="M316 36q-81 -45 -90 -43v55q-55 -53 -100 -53q-42 0 -71 35q-27 32 -27 72q0 92 74 178q81 94 185 92q23 -1 29 0v-336zM229 271q-37 -4 -73.5 -53t-36.5 -87q0 -47 32 -47q44 0 65 61q15 43 15 99q0 23 -2 27z" />
    <glyph glyph-name="b" unicode="b" horiz-adv-x="346" 
d="M319 288q0 -91 -87 -182t-191 -113v635l96 49v-316q19 10 38 19.5t46 9.5q47 0 74 -33q24 -29 24 -69zM228 266q0 33 -27 33q-67 0 -67 -101v-63q37 22 65.5 61.5t28.5 69.5z" />
    <glyph glyph-name="c" unicode="c" horiz-adv-x="275" 
d="M179 -6q-67 1 -113 71q-38 60 -38 121q0 70 34 124q42 66 123 88l52 -78q-49 -5 -82.5 -43.5t-33.5 -81.5t28 -75q32 -37 91 -40q-15 -23 -31 -47q-27 -40 -30 -39z" />
    <glyph glyph-name="d" unicode="d" horiz-adv-x="355" 
d="M306 175q-1 -80 -44 -130q-45 -53 -124 -53q-49 0 -84 44q-33 41 -33 91q0 70 46 139q44 63 109 100q16 9 43 23q-1 75 0 240l87 50v-504zM219 206v84q-31 -10 -70 -64.5t-39 -87.5q0 -17 12 -32.5t30 -15.5q33 0 52 43q15 34 15 73z" />
    <glyph glyph-name="e" unicode="e" horiz-adv-x="322" 
d="M290 271q0 -61 -52 -103q-46 -36 -110 -43q10 -49 61 -49q37 0 60 27q7 -5 14 -27.5t7 -35.5q0 -20 -42 -36q-37 -15 -61 -15q-69 0 -111 58q-38 51 -38 123q0 75 41 136q47 68 119 68q47 0 79.5 -28.5t32.5 -74.5zM199 268q0 30 -27 30q-28 0 -46 -30q-15 -26 -15 -56
q0 -12 3 -16q29 0 57 21.5t28 50.5z" />
    <glyph glyph-name="f" unicode="f" horiz-adv-x="271" 
d="M208 293h-58v-269l-88 -52v321h-46l46 77q0 10 -1 38v42q0 97 22 147q32 72 115 81l33 -83h-12q-64 3 -63 -80v-139h85q-31 -58 -33 -83z" />
    <glyph glyph-name="g" unicode="g" horiz-adv-x="356" 
d="M149 -283q-9 22 -39 78q89 0 92 111l2 77v-104q1 -80 1 139q-19 -9 -38 -18.5t-46 -9.5q-46 0 -74 33q-24 29 -24 69q0 90 87 181.5t191 113.5q0 -468 0 -448q4 -7 4 -35q0 -59 -27 -104q-40 -64 -129 -83zM114 113q0 -32 27 -32q67 0 67 100v64q-37 -23 -65.5 -62
t-28.5 -70z" />
    <glyph glyph-name="h" unicode="h" horiz-adv-x="366" 
d="M339 32q-5 -2 -87 -38q-18 39 -21 65q-1 5 -1 46v141q0 48 -33 50q-45 4 -56 -37q-3 -11 -3 -73q0 -3 1 -157l-91 -38l2 647l91 43v-315q26 16 37.5 19.5t42.5 3.5q50 0 76 -29.5t26 -76.5l1 -198q-2 -20 5 -34q5 -9 10 -19z" />
    <glyph glyph-name="i" unicode="i" horiz-adv-x="187" 
d="M156 533q0 -21 -18 -36.5t-41 -15.5q-20 0 -39.5 16t-19.5 38q0 24 19.5 42t40.5 18q25 0 43 -23q15 -19 15 -39zM141 33l-94 -38v329l94 51v-342z" />
    <glyph glyph-name="j" unicode="j" horiz-adv-x="188" 
d="M154 532q0 -26 -16 -41.5t-40 -15.5q-25 0 -42 18t-17 39q0 22 19 39.5t42 17.5t38.5 -18t15.5 -39zM144 388l-2 -412q2 -17 2 -39q0 -184 -156 -226q-7 -2 -21 34q-9 24 -18 49q45 11 75 44q25 27 25 73q0 10 -2 34q-1 21 0 31q2 38 2 365z" />
    <glyph glyph-name="k" unicode="k" horiz-adv-x="369" 
d="M347 374l-111 -145q81 -15 81 -84l8 -92q0 -19 17 -35l-86 -29q-21 14 -25 61q0 37 -1 77q-2 24 -15 34.5t-48 10.5q-12 0 -28 -1q-4 -6 0 -141q-39 -19 -89 -41v649l92 38v-438l102 135q80 -3 103 1z" />
    <glyph glyph-name="l" unicode="l" horiz-adv-x="193" 
d="M140 680q3 -203 0 -644q-34 -19 -87 -47v646z" />
    <glyph glyph-name="m" unicode="m" horiz-adv-x="544" 
d="M318 28l-100 -39l1 258q0 47 -33 50q-44 4 -55 -46q-2 -8 -4 -64q0 -3 1 -157l-89 -38v357l92 40l-1 -32q46 28 84 28q55 0 78 -40q26 41 95 38q46 -2 76 -51q25 -41 25 -84v-144q-2 -19 8 -40q7 -12 13 -25q-24 -14 -76 -41q-29 45 -33 103q0 10 2 42q2 38 2 57
q0 94 -48 92q-44 -2 -44 -44v-159z" />
    <glyph glyph-name="n" unicode="n" horiz-adv-x="351" 
d="M333 31q-40 -22 -85 -42q-19 34 -23 51q-4 14 -5 64v140q0 48 -33 51q-45 3 -56 -46q-1 -8 -3 -65q0 -3 1 -157l-89 -38l-1 358l93 40l-1 -32q45 28 84 28q44 0 71 -28.5t27 -73.5l-1 -195q-1 -19 8 -35z" />
    <glyph glyph-name="o" unicode="o" horiz-adv-x="355" 
d="M173 -7q-70 0 -106 58q-30 47 -34 124q-4 75 33 138q42 69 110 69t107 -67q34 -58 32 -134q-3 -77 -34 -128q-38 -60 -108 -60zM176 291q-31 1 -46 -42q-12 -32 -12 -71q0 -36 11 -65q14 -39 43 -39q30 0 46 40q12 30 12 64q0 38 -10 69q-15 43 -44 44z" />
    <glyph glyph-name="p" unicode="p" horiz-adv-x="351" 
d="M37 212q4 75 45 119q44 48 122 48q49 0 83.5 -42.5t34.5 -92.5q0 -70 -47 -139q-44 -63 -108 -100q-17 -9 -43 -23v-240l-88 -50zM123 165v-84q31 10 70.5 64.5t39.5 87.5q0 17 -12.5 32.5t-29.5 15.5q-34 0 -53 -43q-15 -34 -15 -73z" />
    <glyph glyph-name="q" unicode="q" horiz-adv-x="337" 
d="M22 92q0 90 87 181.5t191 113.5v-635l-95 -49q-1 21 -1 315q-19 -9 -38 -18.5t-45 -9.5q-47 0 -75 33q-24 29 -24 69zM113 113q0 -32 27 -32q68 0 68 100v64q-37 -23 -66 -62t-29 -70z" />
    <glyph glyph-name="r" unicode="r" horiz-adv-x="261" 
d="M182 293q-38 -3 -49 -49q-2 -12 -3 -60q-1 -3 0 -157l-89 -38v358l92 36v-28q46 29 77 29q14 0 24 -7q3 -1 0 -46.5t0 -45.5q-18 16 -52 8z" />
    <glyph glyph-name="s" unicode="s" horiz-adv-x="242" 
d="M198 334q-69 -23 -64 -81q1 -14 34 -57t33 -81q0 -33 -27 -77q-33 -52 -78 -54q-13 -1 -39 18q-19 14 -37 28q83 22 83 91q0 17 -30.5 54.5t-33.5 80.5q-3 35 23 78q29 48 67 50q8 0 69 -50z" />
    <glyph glyph-name="t" unicode="t" horiz-adv-x="269" 
d="M256 372q-8 -25 -29 -76h-70v-77q0 -3 -1 -21v-29q0 -98 50 -98q7 0 24 2l-35 -81q-29 -4 -36 -4q-65 0 -83 90q-6 28 -6 103v115h-63l37 73l24 3l1 62l89 36l-2 -97z" />
    <glyph glyph-name="u" unicode="u" horiz-adv-x="367" 
d="M30 345q40 22 85 42q19 -34 22.5 -49.5t5.5 -65.5v-141q0 -51 44 -51q48 0 48 75q0 9 -1 21.5t-1 15.5v156l89 39l1 -358l-92 -40v32q-45 -28 -84 -28q-43 0 -70 28t-27 73v195q2 20 -8 36z" />
    <glyph glyph-name="v" unicode="v" horiz-adv-x="350" 
d="M340 380l-176 -386l-154 348l83 35l73 -185l68 156z" />
    <glyph glyph-name="w" unicode="w" horiz-adv-x="543" 
d="M213 351l100 38v-257q0 -48 33 -51q44 -4 55 46q2 8 3 65q0 2 -1 157l89 38l1 -358l-92 -40v32q-45 -28 -84 -28q-55 0 -77 40q-27 -41 -95 -38q-46 2 -76 51q-24 41 -24 85l1 143q1 20 -10 40q-7 13 -14 25q25 15 77 41q28 -44 32 -103q1 -9 -1 -36q-1 -34 -1 -49
q0 -106 46 -106q44 0 44 44l1 160z" />
    <glyph glyph-name="x" unicode="x" horiz-adv-x="345" 
d="M334 382l-116 -198l93 -163l-84 -27l-60 108l-47 -84l-109 -30l102 201l-96 155l86 38l69 -118l51 83z" />
    <glyph glyph-name="y" unicode="y" horiz-adv-x="358" 
d="M182 -303q-15 2 -40 -8q-17 87 -17 94q0 2 26 4q30 2 54 38q19 31 19 57v123q-26 -16 -37.5 -19.5t-42.5 -3.5q-50 0 -77 31q-25 28 -25 75l-1 198q2 20 -5 34q-4 9 -9 19q12 7 86 39q20 -27 23 -59q-1 5 -1 -53v-141q0 -17 14.5 -33t34.5 -16q44 0 44 67q0 7 -1 22v21
q0 2 -1 156l91 39v-497q1 -60 -34 -116q-40 -63 -101 -71z" />
    <glyph glyph-name="z" unicode="z" horiz-adv-x="279" 
d="M148 91l95 1l-37 -92h-193l114 284h-101l34 88l199 -1z" />
    <glyph glyph-name="braceleft" unicode="{" horiz-adv-x="316" 
d="M87 43v187q0 40 -17 66.5t-49 26.5h-18v24h18q32 0 49 26.5t17 66.5v187q0 155 186 178v-64q-48 -4 -79 -22q-34 -20 -34 -52v-207q0 -72 -52 -125q52 -53 52 -125v-207q0 -32 34 -52q31 -18 79 -22v-64q-186 22 -186 178z" />
    <glyph glyph-name="bar" unicode="|" 
 />
    <glyph glyph-name="braceright" unicode="}" horiz-adv-x="316" 
d="M190 43v187q0 40 17 66.5t49 26.5h17v24h-17q-32 0 -49 26.5t-17 66.5v187q0 155 -187 178v-64q49 -4 81.5 -23t32.5 -51v-207q0 -72 52 -125q-52 -53 -52 -125v-207q0 -32 -32.5 -51t-81.5 -23v-64q187 22 187 178z" />
    <glyph glyph-name="asciitilde" unicode="~" horiz-adv-x="433" 
d="M147 747q-58 0 -58 -25l-25 4q0 27 31 51t61 24q29 0 51.5 -16t43.5 -16q31 0 42.5 4t25.5 20l25 -1q0 -28 -31.5 -53t-61.5 -25q-24 0 -50 16.5t-54 16.5z" />
    <glyph glyph-name="Adieresis" unicode="&#xc4;" horiz-adv-x="418" 
d="M367 50l-101 -58v219h-102v-167l-101 -57v224h-82l37 91h45l-1 107q0 116 59 188q62 76 176 77q48 1 68 -7zM266 304v255q-68 8 -90 -70q-12 -38 -12 -116v-69h102zM245 757q0 19 14 32.5t34 13.5q19 0 33 -13.5t14 -32.5t-14 -32.5t-33 -13.5q-20 0 -34 13.5t-14 32.5z
M91 757q0 19 13.5 32.5t33.5 13.5t34 -13.5t14 -32.5t-14 -32.5t-34 -13.5t-33.5 13.5t-13.5 32.5z" />
    <glyph glyph-name="Aring" unicode="&#xc5;" horiz-adv-x="418" 
d="M367 50l-101 -58v219h-102v-167l-101 -57v224h-82l37 91h45l-1 107q0 116 59 188q62 76 176 77q48 1 68 -7zM266 304v255q-68 8 -90 -70q-12 -38 -12 -116v-69h102zM230 834q32 0 56.5 -17t24.5 -45t-24.5 -45.5t-56.5 -17.5t-55 17q-26 18 -26 46t26 46q23 16 55 16z
M230 800q-19 0 -31 -9t-12 -19t12 -19t31 -9q20 0 32 9t12 19t-12 19t-32 9z" />
    <glyph glyph-name="Ccedilla" unicode="&#xc7;" horiz-adv-x="349" 
d="M228 6v-41q12 3 14 3q36 0 58 -22t22 -53q0 -40 -24.5 -63t-66.5 -23q-10 0 -21 1.5t-56 20.5l20 40q21 -20 56 -20q36 0 36 39q0 43 -34 43q-8 0 -42 5q-1 30 -2 88q-76 42 -120 126t-46 185q-3 125 60 224q65 103 167 124q6 2 65 -95q-74 -11 -125 -85t-50 -165
t54 -164q55 -76 127 -80q0 -3 -49 -99q-22 4 -43 11z" />
    <glyph glyph-name="Eacute" unicode="&#xc9;" horiz-adv-x="404" 
d="M370 89q0 -3 -49 -99q-103 18 -170 103q-64 81 -77 195h-76l40 95h35q12 109 73.5 192.5t152.5 102.5q5 1 65 -95q-64 -9 -111.5 -66.5t-60.5 -133.5h155l-40 -95h-114q14 -79 64 -137t113 -62zM317 822l-197 -110q10 -21 10 -19t219 45z" />
    <glyph glyph-name="Ntilde" unicode="&#xd1;" horiz-adv-x="433" 
d="M402 26l-88 -32q-49 23 -49 152v355q0 23 -14 44t-39 21q-47 0 -55 -48l-3 -480q-37 -15 -109 -49l1 630q27 16 107 58q-2 -22 3 -31q3 0 35 15q24 11 59 11q87 2 114 -83q12 -39 12 -135v-350q0 -48 26 -78zM147 747q-58 0 -58 -25l-25 4q0 27 31 51t61 24
q29 0 51.5 -16t43.5 -16q31 0 42.5 4t25.5 20l25 -1q0 -28 -31.5 -53t-61.5 -25q-24 0 -50 16.5t-54 16.5z" />
    <glyph glyph-name="Odieresis" unicode="&#xd6;" horiz-adv-x="473" 
d="M350 757q0 -19 -14 -32.5t-33 -13.5q-20 0 -34 13.5t-14 32.5t14 32.5t34 13.5q19 0 33 -13.5t14 -32.5zM196 757q0 -19 -14 -32.5t-34 -13.5t-33.5 13.5t-13.5 32.5t13.5 32.5t33.5 13.5t34 -13.5t14 -32.5zM426 344q0 -118 -33 -208q-51 -141 -170 -141
q-118 0 -168 141q-31 87 -31 208q0 102 35 193q53 140 165 140q113 0 167 -140q35 -92 35 -193zM318 338q0 60 -16 126q-25 105 -79 105q-52 0 -76 -105q-14 -63 -14 -126q0 -66 13 -121q24 -96 81 -96q91 0 91 217z" />
    <glyph glyph-name="Udieresis" unicode="&#xdc;" horiz-adv-x="442" 
d="M414 27l-96 -40q-20 18 -23 31q-9 0 -39.5 -16.5t-57.5 -17.5q-95 -4 -131 85q-15 37 -17 90l-1 334q0 63 -21 114q32 25 94 67q32 -46 32 -149l-1 -344q0 -31 13 -55q17 -30 50 -32q56 -2 56 86q0 9 -1 23v18v413l103 46v-555q0 -27 40 -98zM235 757q0 19 14 32.5
t34 13.5q19 0 33 -13.5t14 -32.5t-14 -32.5t-33 -13.5q-20 0 -34 13.5t-14 32.5zM81 757q0 19 13.5 32.5t33.5 13.5t34 -13.5t14 -32.5t-14 -32.5t-34 -13.5t-33.5 13.5t-13.5 32.5z" />
    <glyph glyph-name="aacute" unicode="&#xe1;" horiz-adv-x="358" 
d="M316 36q-81 -45 -90 -43v55q-55 -53 -100 -53q-42 0 -71 35q-27 32 -27 72q0 92 74 178q81 94 185 92q23 -1 29 0v-336zM229 271q-37 -4 -73.5 -53t-36.5 -87q0 -47 32 -47q44 0 65 61q15 43 15 99q0 23 -2 27zM274 511l-168 -93q9 -18 9 -17q0 2 186 39z" />
    <glyph glyph-name="agrave" unicode="&#xe0;" horiz-adv-x="358" 
d="M316 36q-81 -45 -90 -43v55q-55 -53 -100 -53q-42 0 -71 35q-27 32 -27 72q0 92 74 178q81 94 185 92q23 -1 29 0v-336zM229 271q-37 -4 -73.5 -53t-36.5 -87q0 -47 32 -47q44 0 65 61q15 43 15 99q0 23 -2 27zM138 511l168 -93q-9 -18 -9 -17q0 2 -186 39z" />
    <glyph glyph-name="acircumflex" unicode="&#xe2;" horiz-adv-x="358" 
d="M316 36q-81 -45 -90 -43v55q-55 -53 -100 -53q-42 0 -71 35q-27 32 -27 72q0 92 74 178q81 94 185 92q23 -1 29 0v-336zM229 271q-37 -4 -73.5 -53t-36.5 -87q0 -47 32 -47q44 0 65 61q15 43 15 99q0 23 -2 27zM196 506v1v-1l121 -70q-6 -21 -6 -19t-119 29
q-110 -27 -110 -29t-7 19l121 71l1 -1v1z" />
    <glyph glyph-name="adieresis" unicode="&#xe4;" horiz-adv-x="358" 
d="M316 36q-81 -45 -90 -43v55q-55 -53 -100 -53q-42 0 -71 35q-27 32 -27 72q0 92 74 178q81 94 185 92q23 -1 29 0v-336zM229 271q-37 -4 -73.5 -53t-36.5 -87q0 -47 32 -47q44 0 65 61q15 43 15 99q0 23 -2 27zM227 460q0 17 11.5 28.5t28.5 11.5t29 -11.5t12 -28.5
q0 -16 -12 -27.5t-29 -11.5t-28.5 11.5t-11.5 27.5zM95 460q0 17 12 28.5t29 11.5t28.5 -11.5t11.5 -28.5q0 -16 -11.5 -27.5t-28.5 -11.5t-29 11.5t-12 27.5z" />
    <glyph glyph-name="atilde" unicode="&#xe3;" horiz-adv-x="358" 
d="M316 36q-81 -45 -90 -43v55q-55 -53 -100 -53q-42 0 -71 35q-27 32 -27 72q0 92 74 178q81 94 185 92q23 -1 29 0v-336zM229 271q-37 -4 -73.5 -53t-36.5 -87q0 -47 32 -47q44 0 65 61q15 43 15 99q0 23 -2 27zM145 459q-49 0 -49 -22l-21 4q0 23 26.5 43t51.5 20
t44 -13.5t37 -13.5q26 0 36 3.5t22 17.5l21 -1q0 -24 -27 -45t-52 -21q-21 0 -43 14t-46 14z" />
    <glyph glyph-name="aring" unicode="&#xe5;" horiz-adv-x="358" 
d="M316 36q-81 -45 -90 -43v55q-55 -53 -100 -53q-42 0 -71 35q-27 32 -27 72q0 92 74 178q81 94 185 92q23 -1 29 0v-336zM229 271q-37 -4 -73.5 -53t-36.5 -87q0 -47 32 -47q44 0 65 61q15 43 15 99q0 23 -2 27zM206 532q32 0 56.5 -17.5t24.5 -45.5t-24.5 -45t-56.5 -17
t-56.5 17t-24.5 45t24.5 45.5t56.5 17.5zM206 497q-20 0 -32 -9t-12 -19t12 -18.5t32 -8.5t32 8.5t12 18.5t-12 19t-32 9z" />
    <glyph glyph-name="ccedilla" unicode="&#xe7;" horiz-adv-x="275" 
d="M151 -2v-40q9 2 10 2q26 0 42 -18.5t16 -44.5q0 -73 -66 -73q-8 0 -15.5 1t-40.5 17l15 34q13 -14 29 -14q29 0 29 32q0 38 -29 38q-5 0 -23 3v77q-41 27 -67 82q-23 48 -23 92q0 70 34 124q42 66 123 88l52 -78q-49 -5 -82.5 -43.5t-33.5 -81.5t28 -75q32 -37 91 -40
q-15 -23 -31 -47q-27 -40 -30 -39q-14 0 -28 4z" />
    <glyph glyph-name="eacute" unicode="&#xe9;" horiz-adv-x="322" 
d="M290 271q0 -61 -52 -103q-46 -36 -110 -43q10 -49 61 -49q37 0 60 27q7 -5 14 -27.5t7 -35.5q0 -20 -42 -36q-37 -15 -61 -15q-69 0 -111 58q-38 51 -38 123q0 75 41 136q47 68 119 68q47 0 79.5 -28.5t32.5 -74.5zM199 268q0 30 -27 30q-28 0 -46 -30q-15 -26 -15 -56
q0 -12 3 -16q29 0 57 21.5t28 50.5zM224 511l-168 -93q9 -18 9 -17q0 2 186 39z" />
    <glyph glyph-name="egrave" unicode="&#xe8;" horiz-adv-x="322" 
d="M290 271q0 -61 -52 -103q-46 -36 -110 -43q10 -49 61 -49q37 0 60 27q7 -5 14 -27.5t7 -35.5q0 -20 -42 -36q-37 -15 -61 -15q-69 0 -111 58q-38 51 -38 123q0 75 41 136q47 68 119 68q47 0 79.5 -28.5t32.5 -74.5zM199 268q0 30 -27 30q-28 0 -46 -30q-15 -26 -15 -56
q0 -12 3 -16q29 0 57 21.5t28 50.5zM98 511l168 -93q-9 -18 -9 -17q0 2 -186 39z" />
    <glyph glyph-name="ecircumflex" unicode="&#xea;" horiz-adv-x="322" 
d="M290 271q0 -61 -52 -103q-46 -36 -110 -43q10 -49 61 -49q37 0 60 27q7 -5 14 -27.5t7 -35.5q0 -20 -42 -36q-37 -15 -61 -15q-69 0 -111 58q-38 51 -38 123q0 75 41 136q47 68 119 68q47 0 79.5 -28.5t32.5 -74.5zM199 268q0 30 -27 30q-28 0 -46 -30q-15 -26 -15 -56
q0 -12 3 -16q29 0 57 21.5t28 50.5zM156 506v1v-1l121 -70q-6 -21 -6 -19t-119 29q-110 -27 -110 -29t-7 19l121 71l1 -1v1z" />
    <glyph glyph-name="edieresis" unicode="&#xeb;" horiz-adv-x="322" 
d="M290 271q0 -61 -52 -103q-46 -36 -110 -43q10 -49 61 -49q37 0 60 27q7 -5 14 -27.5t7 -35.5q0 -20 -42 -36q-37 -15 -61 -15q-69 0 -111 58q-38 51 -38 123q0 75 41 136q47 68 119 68q47 0 79.5 -28.5t32.5 -74.5zM199 268q0 30 -27 30q-28 0 -46 -30q-15 -26 -15 -56
q0 -12 3 -16q29 0 57 21.5t28 50.5zM180 447q0 16 12 27.5t29 11.5t28.5 -11.5t11.5 -27.5t-11.5 -27.5t-28.5 -11.5t-29 11.5t-12 27.5zM49 447q0 16 12 27.5t29 11.5t28.5 -11.5t11.5 -27.5t-11.5 -27.5t-28.5 -11.5t-29 11.5t-12 27.5z" />
    <glyph glyph-name="iacute" unicode="&#xed;" horiz-adv-x="187" 
d="M141 33l-94 -38v329l94 51v-342zM164 511l-168 -93q9 -18 9 -17q0 2 186 39z" />
    <glyph glyph-name="igrave" unicode="&#xec;" horiz-adv-x="187" 
d="M141 33l-94 -38v329l94 51v-342zM29 511l142 -93q-7 -18 -7 -17q0 2 -166 47z" />
    <glyph glyph-name="icircumflex" unicode="&#xee;" horiz-adv-x="187" 
d="M141 33l-94 -38v329l94 51v-342zM86 506v1v-1l103 -70q-6 -21 -6 -19t-101 29q-93 -27 -93 -29t-6 19l103 71l1 -1v1z" />
    <glyph glyph-name="idieresis" unicode="&#xef;" horiz-adv-x="187" 
d="M141 33l-94 -38v329l94 51v-342zM110 447q0 16 12 27.5t29 11.5t28.5 -11.5t11.5 -27.5t-11.5 -27.5t-28.5 -11.5t-29 11.5t-12 27.5zM-1 447q0 16 12 27.5t29 11.5t28.5 -11.5t11.5 -27.5t-11.5 -27.5t-28.5 -11.5t-29 11.5t-12 27.5z" />
    <glyph glyph-name="ntilde" unicode="&#xf1;" horiz-adv-x="351" 
d="M333 31q-40 -22 -85 -42q-19 34 -23 51q-4 14 -5 64v140q0 48 -33 51q-45 3 -56 -46q-1 -8 -3 -65q0 -3 1 -157l-89 -38l-1 358l93 40l-1 -32q45 28 84 28q44 0 71 -28.5t27 -73.5l-1 -195q-1 -19 8 -35zM125 459q-49 0 -49 -22l-21 4q0 23 26.5 43t51.5 20t44 -13.5
t37 -13.5q26 0 36 3.5t22 17.5l21 -1q0 -24 -27 -45t-52 -21q-21 0 -43 14t-46 14z" />
    <glyph glyph-name="oacute" unicode="&#xf3;" horiz-adv-x="355" 
d="M173 -7q-70 0 -106 58q-30 47 -34 124q-4 75 33 138q42 69 110 69t107 -67q34 -58 32 -134q-3 -77 -34 -128q-38 -60 -108 -60zM176 291q-31 1 -46 -42q-12 -32 -12 -71q0 -36 11 -65q14 -39 43 -39q30 0 46 40q12 30 12 64q0 38 -10 69q-15 43 -44 44zM234 511l-168 -93
q9 -18 9 -17q0 2 186 39z" />
    <glyph glyph-name="ograve" unicode="&#xf2;" horiz-adv-x="355" 
d="M173 -7q-70 0 -106 58q-30 47 -34 124q-4 75 33 138q42 69 110 69t107 -67q34 -58 32 -134q-3 -77 -34 -128q-38 -60 -108 -60zM176 291q-31 1 -46 -42q-12 -32 -12 -71q0 -36 11 -65q14 -39 43 -39q30 0 46 40q12 30 12 64q0 38 -10 69q-15 43 -44 44zM98 511l168 -93
q-9 -18 -9 -17q0 2 -186 39z" />
    <glyph glyph-name="ocircumflex" unicode="&#xf4;" horiz-adv-x="355" 
d="M173 -7q-70 0 -106 58q-30 47 -34 124q-4 75 33 138q42 69 110 69t107 -67q34 -58 32 -134q-3 -77 -34 -128q-38 -60 -108 -60zM176 291q-31 1 -46 -42q-12 -32 -12 -71q0 -36 11 -65q14 -39 43 -39q30 0 46 40q12 30 12 64q0 38 -10 69q-15 43 -44 44zM176 506v1v-1
l121 -70q-6 -21 -6 -19t-119 29q-110 -27 -110 -29t-7 19l121 71l1 -1v1z" />
    <glyph glyph-name="odieresis" unicode="&#xf6;" horiz-adv-x="355" 
d="M173 -7q-70 0 -106 58q-30 47 -34 124q-4 75 33 138q42 69 110 69t107 -67q34 -58 32 -134q-3 -77 -34 -128q-38 -60 -108 -60zM176 291q-31 1 -46 -42q-12 -32 -12 -71q0 -36 11 -65q14 -39 43 -39q30 0 46 40q12 30 12 64q0 38 -10 69q-15 43 -44 44zM190 447
q0 16 12 27.5t29 11.5t28.5 -11.5t11.5 -27.5t-11.5 -27.5t-28.5 -11.5t-29 11.5t-12 27.5zM59 447q0 16 12 27.5t29 11.5t28.5 -11.5t11.5 -27.5t-11.5 -27.5t-28.5 -11.5t-29 11.5t-12 27.5z" />
    <glyph glyph-name="otilde" unicode="&#xf5;" horiz-adv-x="355" 
d="M173 -7q-70 0 -106 58q-30 47 -34 124q-4 75 33 138q42 69 110 69t107 -67q34 -58 32 -134q-3 -77 -34 -128q-38 -60 -108 -60zM176 291q-31 1 -46 -42q-12 -32 -12 -71q0 -36 11 -65q14 -39 43 -39q30 0 46 40q12 30 12 64q0 38 -10 69q-15 43 -44 44zM125 459
q-49 0 -49 -22l-21 4q0 23 26.5 43t51.5 20t44 -13.5t37 -13.5q26 0 36 3.5t22 17.5l21 -1q0 -24 -27 -45t-52 -21q-21 0 -43 14t-46 14z" />
    <glyph glyph-name="uacute" unicode="&#xfa;" horiz-adv-x="367" 
d="M30 345q40 22 85 42q19 -34 22.5 -49.5t5.5 -65.5v-141q0 -51 44 -51q48 0 48 75q0 9 -1 21.5t-1 15.5v156l89 39l1 -358l-92 -40v32q-45 -28 -84 -28q-43 0 -70 28t-27 73v195q2 20 -8 36zM244 511l-168 -93q9 -18 9 -17q0 2 186 39z" />
    <glyph glyph-name="ugrave" unicode="&#xf9;" horiz-adv-x="367" 
d="M30 345q40 22 85 42q19 -34 22.5 -49.5t5.5 -65.5v-141q0 -51 44 -51q48 0 48 75q0 9 -1 21.5t-1 15.5v156l89 39l1 -358l-92 -40v32q-45 -28 -84 -28q-43 0 -70 28t-27 73v195q2 20 -8 36zM98 511l168 -93q-9 -18 -9 -17q0 2 -186 39z" />
    <glyph glyph-name="ucircumflex" unicode="&#xfb;" horiz-adv-x="367" 
d="M30 345q40 22 85 42q19 -34 22.5 -49.5t5.5 -65.5v-141q0 -51 44 -51q48 0 48 75q0 9 -1 21.5t-1 15.5v156l89 39l1 -358l-92 -40v32q-45 -28 -84 -28q-43 0 -70 28t-27 73v195q2 20 -8 36zM176 506v1v-1l121 -70q-6 -21 -6 -19t-119 29q-110 -27 -110 -29t-7 19l121 71
l1 -1v1z" />
    <glyph glyph-name="udieresis" unicode="&#xfc;" horiz-adv-x="367" 
d="M30 345q40 22 85 42q19 -34 22.5 -49.5t5.5 -65.5v-141q0 -51 44 -51q48 0 48 75q0 9 -1 21.5t-1 15.5v156l89 39l1 -358l-92 -40v32q-45 -28 -84 -28q-43 0 -70 28t-27 73v195q2 20 -8 36zM200 447q0 16 12 27.5t29 11.5t28.5 -11.5t11.5 -27.5t-11.5 -27.5t-28.5 -11.5
t-29 11.5t-12 27.5zM69 447q0 16 12 27.5t29 11.5t28.5 -11.5t11.5 -27.5t-11.5 -27.5t-28.5 -11.5t-29 11.5t-12 27.5z" />
    <glyph glyph-name="dagger" unicode="&#x2020;" horiz-adv-x="302" 
d="M25 583h62q-3 70 -3 98l106 -1q1 -41 0 -97h69v-52h-71q-7 -215 -31 -533h-43l-25 533h-64v52z" />
    <glyph glyph-name="degree" unicode="&#xb0;" horiz-adv-x="261" 
d="M126 462q-46 0 -78 33t-32 80q0 46 32 79t78 33t78 -33t32 -79q0 -47 -32 -80t-78 -33zM126 637q-25 0 -42.5 -18t-17.5 -44q0 -27 17.5 -45t42.5 -18q24 0 42 18t18 45q0 26 -18 44t-42 18z" />
    <glyph glyph-name="cent" unicode="&#xa2;" horiz-adv-x="261" 
d="M164 114h-43v66q-44 25 -72 82q-25 50 -25 95q0 126 97 187v68h43v-48l18 6l52 -79q-49 -5 -82.5 -43.5t-33.5 -80.5q0 -43 27 -75q33 -37 92 -41q-16 -23 -31 -46q-27 -40 -30 -40q-6 0 -12 1v-52z" />
    <glyph glyph-name="sterling" unicode="&#xa3;" horiz-adv-x="397" 
d="M357 4h-307v94l-1 9q36 15 46.5 31t10.5 55q0 65 -16 99h-50v69h27q-17 60 -17 110q0 73 58 144q62 75 133 75q10 0 18 -1q13 -3 78 -76q-13 2 -26 2q-52 0 -98.5 -48t-46.5 -101q0 -41 24 -105h98v-69h-81q11 -41 11 -83q0 -73 -22 -102h161v-103z" />
    <glyph glyph-name="section" unicode="&#xa7;" 
 />
    <glyph glyph-name="bullet" unicode="&#x2022;" horiz-adv-x="332" 
d="M143 199q-48 0 -81.5 34.5t-33.5 82.5t33.5 82t80.5 34q49 0 81.5 -34.5t35.5 -86.5q2 -46 -33 -79t-83 -33z" />
    <glyph glyph-name="paragraph" unicode="&#xb6;" 
 />
    <glyph glyph-name="germandbls" unicode="&#xdf;" horiz-adv-x="422" 
d="M210 -24q-8 0 -20 19q-8 13 -14.5 26t-29.5 47q138 6 138 132q0 36 -31 74t-81 62q110 55 110 143q0 111 -97 115q-56 2 -56 -85v-486l-103 -53q0 49 1 160t1 169q0 90 -3 148q-2 32 -2 47q0 191 141 192q9 2 22 1q25 -1 35 -1q75 0 123 -71q41 -63 38 -132
q-2 -69 -67 -143q15 -13 43 -41q32 -43 30 -109q-2 -70 -53 -138q-55 -76 -125 -76z" />
    <glyph glyph-name="registered" unicode="&#xae;" horiz-adv-x="374" 
d="M172 378q-64 0 -109.5 46.5t-45.5 111.5q0 64 45.5 109.5t109.5 45.5t108 -46t44 -111t-44 -110.5t-108 -45.5zM172 657q-52 1 -86.5 -34.5t-34.5 -88.5q0 -51 36 -87t85 -36t84.5 36t35.5 87t-35.5 87t-84.5 36zM205 457l-47 72h-19v-72h-32v167h68q14 5 36 -4
q28 -11 28 -40q0 -44 -44 -50l47 -73h-37zM177 592h-36v-30h40q25 0 25 18q0 12 -29 12z" />
    <glyph glyph-name="copyright" unicode="&#xa9;" horiz-adv-x="772" 
d="M366 -21q-150 0 -253.5 104.5t-103.5 254.5q0 151 103.5 255.5t253.5 104.5t254 -104.5t104 -255.5q0 -150 -104 -254.5t-254 -104.5zM366 625q-116 0 -200.5 -84t-84.5 -203q0 -118 84.5 -202t200.5 -84t200.5 84t84.5 202q0 119 -84.5 203t-200.5 84zM375 129
q-92 0 -148 61q-54 58 -54 151q0 89 56.5 150t146.5 61q65 0 112 -39q50 -42 62 -116h-73q-22 81 -101 81q-60 0 -95 -39.5t-35 -99.5q0 -55 31 -93q35 -44 97 -44q83 0 103 79h74q-17 -74 -64 -113t-112 -39z" />
    <glyph glyph-name="trademark" unicode="&#x2122;" horiz-adv-x="481" 
d="M369 469v150l-59 -150h-25l-56 147v-147h-38v206h54l53 -133l54 133h54v-206h-37zM100 636v-167h-38v167h-65v39h167v-39h-64z" />
    <glyph glyph-name="acute" unicode="&#xb4;" horiz-adv-x="404" 
d="M267 822l-197 -110q10 -21 10 -19t219 45z" />
    <glyph glyph-name="dieresis" unicode="&#xa8;" horiz-adv-x="426" 
d="M235 757q0 19 14 32.5t34 13.5q19 0 33 -13.5t14 -32.5t-14 -32.5t-33 -13.5q-20 0 -34 13.5t-14 32.5zM81 757q0 19 13.5 32.5t33.5 13.5t34 -13.5t14 -32.5t-14 -32.5t-34 -13.5t-33.5 13.5t-13.5 32.5z" />
    <glyph glyph-name="AE" unicode="&#xc6;" horiz-adv-x="604" 
d="M266 304v255q-68 8 -90 -70q-12 -38 -12 -116v-69h102zM564 89q0 -3 -49 -99q-43 7 -87.5 41t-60.5 67l-4 -56l-97 -50v219h-102v-175l-101 -49v224h-82l37 91h45l-1 107q0 116 58 188q63 76 177 77q48 1 68 -7l1 -81q60 78 127 92q5 1 65 -95q-64 -9 -111.5 -66.5
t-60.5 -133.5h155l-40 -95h-114q14 -79 64 -137t113 -62z" />
    <glyph glyph-name="Oslash" unicode="&#xd8;" horiz-adv-x="474" 
d="M158 194l111 354q-9 15 -16 18t-26 3q-55 0 -77 -110q-12 -59 -12 -131q0 -77 20 -134zM302 499l-116 -357q17 -21 41 -21q57 0 81 97q14 56 14 123q0 99 -20 158zM324 703h46l-27 -78q41 -47 64 -132q19 -73 19 -149q0 -122 -29 -208q-49 -140 -167 -140q-50 0 -88 24
l-12 -33h-46l23 65q-43 53 -63 148q-15 68 -15 134q0 126 32 210q50 134 173 134q51 0 76 -18z" />
    <glyph glyph-name="plusminus" unicode="&#xb1;" 
 />
    <glyph glyph-name="yen" unicode="&#xa5;" horiz-adv-x="476" 
d="M86 320h82v7l-152 303l103 47l104 -214l76 167l149 59l-168 -369h119l-30 -64h-89v-66h119l-30 -64h-89l1 -86l-113 -53v139h-112l30 64h82v66h-112z" />
    <glyph glyph-name="uni00B5" unicode="&#xb5;" horiz-adv-x="355" 
d="M22 283l44 34v316l114 47v-276l93 71v-66l-93 -71v-230l147 1l-48 -108h-213v249l-44 -33v66z" />
    <glyph glyph-name="uni00B5" unicode="&#x3bc;" horiz-adv-x="355" 
d="M22 283l44 34v316l114 47v-276l93 71v-66l-93 -71v-230l147 1l-48 -108h-213v249l-44 -33v66z" />
    <glyph glyph-name="ordfeminine" unicode="&#xaa;" horiz-adv-x="384" 
d="M344 670l-170 -561h152l-40 -109h-261l175 571h-146l34 99h256zM208 716v0v1l-121 82q6 25 6 22q0 -1 119 -34q110 33 110 34q0 3 6 -22l-120 -83h-1v0h1z" />
    <glyph glyph-name="ordmasculine" unicode="&#xba;" horiz-adv-x="279" 
d="M148 91l95 1l-37 -92h-193l114 284h-101l34 88l199 -1zM140 419h-1v0l-103 70q6 21 6 19q0 -1 101 -29q93 28 93 29q0 2 6 -19l-103 -70v0h-1h2z" />
    <glyph glyph-name="ae" unicode="&#xe6;" horiz-adv-x="535" 
d="M229 271q-37 -4 -73.5 -53t-36.5 -87q0 -47 32 -47q44 0 65 61q15 43 15 99q0 23 -2 27zM500 271q0 -61 -52 -103q-46 -36 -110 -43q10 -49 61 -49q37 0 60 27q7 -5 14 -27.5t7 -35.5q0 -20 -42 -36q-37 -15 -61 -15q-51 0 -88 32q-57 -30 -63 -28v55q-55 -53 -100 -53
q-42 0 -71 35q-27 32 -27 72q0 92 74 178q81 94 185 92q23 -1 29 0v-19q33 21 72 21q47 0 79.5 -28.5t32.5 -74.5zM409 268q0 30 -27 30q-28 0 -46 -30q-15 -26 -15 -56q0 -12 3 -16q29 0 57 21.5t28 50.5z" />
    <glyph glyph-name="oslash" unicode="&#xf8;" horiz-adv-x="355" 
d="M129 113l70 169q-10 8 -23 9q-31 1 -46 -42q-12 -32 -12 -71q0 -36 11 -65zM220 245l-68 -166q9 -5 20 -5q30 0 46 40q12 30 12 64q0 37 -10 67zM246 398h35l-20 -53q57 -60 54 -164q-3 -77 -34 -128q-38 -60 -108 -60q-29 0 -52 10l-11 -27h-38l19 46q-53 46 -58 153
q-4 75 33 138q42 69 110 69q32 0 58 -15z" />
    <glyph glyph-name="questiondown" unicode="&#xbf;" horiz-adv-x="285" 
d="M24 -55q0 48 46 161t47 180q9 3 51 20q36 15 39 15h17q-2 -7 -1 -20q2 -19 2 -18q0 -69 -42 -169.5t-42 -134.5q0 -27 13 -46q17 -23 47 -23q11 0 60 17q-26 -74 -42 -93q-23 -27 -76 -27q-62 0 -93 45q-26 37 -26 93zM85 430q0 31 24 51.5t53 20.5q37 0 55.5 -21.5
t18.5 -53.5q0 -31 -22.5 -52t-51.5 -21q-31 0 -54 23t-23 53z" />
    <glyph glyph-name="exclamdown" unicode="&#xa1;" horiz-adv-x="233" 
d="M86 257l67 28l28 -434l-125 -54zM39 404q-1 32 21.5 56t54.5 24q31 -1 52.5 -25t19.5 -56q-1 -29 -21.5 -50t-47.5 -21q-31 0 -54 20.5t-25 51.5z" />
    <glyph glyph-name="logicalnot" unicode="&#xac;" 
 />
    <glyph glyph-name="florin" unicode="&#x192;" horiz-adv-x="413" 
d="M360 94q0 -3 -49 -99q-93 16 -159 90q-61 69 -82 171h-74l30 64h36v15q-1 16 0 31h-66l30 64h44q20 96 79 166t140 87q6 2 65 -95q-54 -8 -97.5 -52t-63.5 -106h146l-30 -64h-129q-1 -14 -1 -28q0 -9 1 -18h159l-30 -64h-117q21 -67 67 -113t101 -49z" />
    <glyph glyph-name="guillemotleft" unicode="&#xab;" horiz-adv-x="371" 
d="M312 102h-20l-152 182l152 178h19l-78 -178zM171 102h-20l-152 182l152 178h18l-78 -178z" />
    <glyph glyph-name="guillemotright" unicode="&#xbb;" horiz-adv-x="353" 
d="M13 92h20l152 182l-152 178h-19l78 -178zM154 92h20l152 182l-152 178h-18l78 -178z" />
    <glyph glyph-name="ellipsis" unicode="&#x2026;" horiz-adv-x="622" 
d="M376 53q0 -21 -18 -36.5t-41 -15.5q-20 0 -39.5 16t-19.5 38q0 24 19.5 42t40.5 18q25 0 43 -23q15 -19 15 -39zM576 53q0 -21 -18 -36.5t-41 -15.5q-20 0 -39.5 16t-19.5 38q0 24 19.5 42t40.5 18q25 0 43 -23q15 -19 15 -39zM176 53q0 -21 -18 -36.5t-41 -15.5
q-20 0 -39.5 16t-19.5 38q0 24 19.5 42t40.5 18q25 0 43 -23q15 -19 15 -39z" />
    <glyph glyph-name="uni00A0" unicode="&#xa0;" horiz-adv-x="215" 
 />
    <glyph glyph-name="Agrave" unicode="&#xc0;" horiz-adv-x="418" 
d="M367 50l-101 -58v219h-102v-167l-101 -57v224h-82l37 91h45l-1 107q0 116 59 188q62 76 176 77q48 1 68 -7zM266 304v255q-68 8 -90 -70q-12 -38 -12 -116v-69h102zM149 822l197 -110q-10 -21 -10 -19t-219 45z" />
    <glyph glyph-name="Atilde" unicode="&#xc3;" horiz-adv-x="418" 
d="M367 50l-101 -58v219h-102v-167l-101 -57v224h-82l37 91h45l-1 107q0 116 59 188q62 76 176 77q48 1 68 -7zM266 304v255q-68 8 -90 -70q-12 -38 -12 -116v-69h102zM167 757q-58 0 -58 -25l-25 4q0 27 31 51t61 24q29 0 51.5 -16t43.5 -16q31 0 42.5 4t25.5 20l25 -1
q0 -28 -31.5 -53t-61.5 -25q-24 0 -50 16.5t-54 16.5z" />
    <glyph glyph-name="Otilde" unicode="&#xd5;" horiz-adv-x="473" 
d="M374 802q0 -28 -31.5 -53t-61.5 -25q-24 0 -50 16.5t-54 16.5q-58 0 -58 -25l-25 4q0 27 31 51t61 24q29 0 51.5 -16t43.5 -16q31 0 42.5 4t25.5 20zM436 344q0 -118 -33 -208q-51 -141 -170 -141q-118 0 -168 141q-31 87 -31 208q0 102 35 193q53 140 165 140
q113 0 167 -140q35 -92 35 -193zM328 338q0 60 -16 126q-25 105 -79 105q-52 0 -76 -105q-14 -63 -14 -126q0 -66 13 -121q24 -96 81 -96q91 0 91 217z" />
    <glyph glyph-name="OE" unicode="&#x152;" horiz-adv-x="652" 
d="M148 335q0 -63 14 -125q24 -106 77 -106q79 0 79 241q0 208 -80 208q-90 0 -90 -218zM614 89q0 -3 -49 -99q-122 21 -176 121q-54 -115 -157 -115q-113 0 -162 140q-31 87 -31 194q0 122 30 207q48 141 167 141q99 0 152 -115q46 93 155 115q5 1 65 -95
q-64 -9 -111.5 -66.5t-60.5 -133.5h155l-40 -95h-114q14 -79 64 -137t113 -62z" />
    <glyph glyph-name="oe" unicode="&#x153;" horiz-adv-x="531" 
d="M502 271q0 -61 -58 -103q-50 -37 -116 -44q4 -22 26.5 -35t46.5 -13q37 0 60 27q7 -5 14 -27.5t7 -35.5q0 -20 -42 -36q-37 -15 -61 -15q-65 0 -107 52q-37 -48 -99 -48q-70 0 -106 58q-30 47 -34 124q-4 75 33 138q42 69 110 69q66 0 105 -63q45 55 109 55
q47 0 79.5 -28.5t32.5 -74.5zM411 268q0 30 -27 30q-28 0 -48.5 -25.5t-22.5 -53.5q1 -13 3 -28q30 0 62.5 24t32.5 53zM230 178v5q-1 37 -11 66q-14 41 -43 42q-31 1 -46 -42q-12 -32 -12 -71q0 -36 11 -65q14 -39 43 -39t46 39q12 31 12 65z" />
    <glyph glyph-name="endash" unicode="&#x2013;" horiz-adv-x="403" 
d="M46 380h313l-30 -84h-313z" />
    <glyph glyph-name="emdash" unicode="&#x2014;" horiz-adv-x="697" 
d="M659 380l-30 -84h-613l30 84h613z" />
    <glyph glyph-name="quotedblleft" unicode="&#x201c;" horiz-adv-x="347" 
d="M109 494l25 3q-16 22 -42 64q19 3 35.5 18.5t16.5 35.5q0 24 -19 42t-41 18q-25 0 -42 -23q-15 -19 -15 -39q0 -6 6.5 -23t11 -22t64.5 -74zM259 494l25 3q-16 22 -42 64q19 3 35.5 18.5t16.5 35.5q0 24 -19 42t-41 18q-25 0 -42 -23q-15 -19 -15 -39q0 -6 6.5 -23
t11 -22t64.5 -74z" />
    <glyph glyph-name="quotedblright" unicode="&#x201d;" horiz-adv-x="347" 
d="M224 494l-26 3q16 22 43 64q-20 3 -36.5 18.5t-16.5 35.5q0 24 19.5 42t40.5 18q25 0 43 -23q15 -19 15 -39q0 -6 -7 -23t-11.5 -22t-63.5 -74zM74 494l-26 3q16 22 43 64q-20 3 -36.5 18.5t-16.5 35.5q0 24 19.5 42t40.5 18q25 0 43 -23q15 -19 15 -39q0 -6 -7 -23
t-11.5 -22t-63.5 -74z" />
    <glyph glyph-name="quoteleft" unicode="&#x2018;" horiz-adv-x="159" 
d="M100 494l26 3q-16 22 -43 64q20 3 36.5 18.5t16.5 35.5q0 24 -19.5 42t-41.5 18q-24 0 -42 -23q-15 -19 -15 -39q0 -6 7 -23t11.5 -22t63.5 -74z" />
    <glyph glyph-name="quoteright" unicode="&#x2019;" horiz-adv-x="162" 
d="M54 494l-26 3q16 22 43 64q-20 3 -36.5 18.5t-16.5 35.5q0 24 19.5 42t40.5 18q25 0 43 -23q15 -19 15 -39q0 -6 -7 -23t-11.5 -22t-63.5 -74z" />
    <glyph glyph-name="divide" unicode="&#xf7;" 
 />
    <glyph glyph-name="ydieresis" unicode="&#xff;" horiz-adv-x="358" 
d="M182 -303q-15 2 -40 -8q-17 87 -17 94q0 2 26 4q30 2 54 38q19 31 19 57v123q-26 -16 -37.5 -19.5t-42.5 -3.5q-50 0 -77 31q-25 28 -25 75l-1 198q2 20 -5 34q-4 9 -9 19q12 7 86 39q20 -27 23 -59q-1 5 -1 -53v-141q0 -17 14.5 -33t34.5 -16q44 0 44 67q0 7 -1 22v21
q0 2 -1 156l91 39v-497q1 -60 -34 -116q-40 -63 -101 -71zM205 477q0 19 14 32.5t34 13.5q19 0 33 -13.5t14 -32.5t-14 -32.5t-33 -13.5q-20 0 -34 13.5t-14 32.5zM51 477q0 19 13.5 32.5t33.5 13.5t34 -13.5t14 -32.5t-14 -32.5t-34 -13.5t-33.5 13.5t-13.5 32.5z" />
    <glyph glyph-name="Ydieresis" unicode="&#x178;" horiz-adv-x="431" 
d="M428 689l-166 -366l-1 -283l-113 -53v340l-152 303l103 47l104 -214l76 167zM235 757q0 19 14 32.5t34 13.5q19 0 33 -13.5t14 -32.5t-14 -32.5t-33 -13.5q-20 0 -34 13.5t-14 32.5zM81 757q0 19 13.5 32.5t33.5 13.5t34 -13.5t14 -32.5t-14 -32.5t-34 -13.5t-33.5 13.5
t-13.5 32.5z" />
    <glyph glyph-name="currency" unicode="&#xa4;" 
 />
    <glyph glyph-name="guilsinglleft" unicode="&#x2039;" horiz-adv-x="230" 
d="M171 92h-20l-152 182l152 178h18l-78 -178z" />
    <glyph glyph-name="guilsinglright" unicode="&#x203a;" horiz-adv-x="211" 
d="M12 92h20l152 182l-152 178h-19l78 -178z" />
    <glyph glyph-name="daggerdbl" unicode="&#x2021;" 
 />
    <glyph glyph-name="periodcentered" unicode="&#xb7;" horiz-adv-x="186" 
d="M22 283q0 25 17.5 43t41.5 18q25 0 42 -18t17 -43t-17 -42.5t-42 -17.5q-24 0 -41.5 17.5t-17.5 42.5z" />
    <glyph glyph-name="periodcentered" unicode="&#x2219;" horiz-adv-x="186" 
d="M22 283q0 25 17.5 43t41.5 18q25 0 42 -18t17 -43t-17 -42.5t-42 -17.5q-24 0 -41.5 17.5t-17.5 42.5z" />
    <glyph glyph-name="quotesinglbase" unicode="&#x201a;" horiz-adv-x="189" 
d="M74 -66l-26 3q16 22 43 64q-20 3 -36.5 18.5t-16.5 35.5q0 24 19.5 42t40.5 18q25 0 43 -23q15 -19 15 -39q0 -6 -7 -23t-11.5 -22t-63.5 -74z" />
    <glyph glyph-name="quotedblbase" unicode="&#x201e;" horiz-adv-x="347" 
d="M224 -66l-26 3q16 22 43 64q-20 3 -36.5 18.5t-16.5 35.5q0 24 19.5 42t40.5 18q25 0 43 -23q15 -19 15 -39q0 -6 -7 -23t-11.5 -22t-63.5 -74zM74 -66l-26 3q16 22 43 64q-20 3 -36.5 18.5t-16.5 35.5q0 24 19.5 42t40.5 18q25 0 43 -23q15 -19 15 -39q0 -6 -7 -23
t-11.5 -22t-63.5 -74z" />
    <glyph glyph-name="perthousand" unicode="&#x2030;" 
 />
    <glyph glyph-name="Acircumflex" unicode="&#xc2;" horiz-adv-x="418" 
d="M367 50l-101 -58v219h-102v-167l-101 -57v224h-82l37 91h45l-1 107q0 116 59 188q62 76 176 77q48 1 68 -7zM266 304v255q-68 8 -90 -70q-12 -38 -12 -116v-69h102zM236 814v1v-1l142 -83q-7 -24 -7 -22t-140 35q-130 -33 -130 -35t-7 22l142 84l1 -1v1z" />
    <glyph glyph-name="Ecircumflex" unicode="&#xca;" horiz-adv-x="404" 
d="M370 89q0 -3 -49 -99q-103 18 -170 103q-64 81 -77 195h-76l40 95h35q12 109 73.5 192.5t152.5 102.5q5 1 65 -95q-64 -9 -111.5 -66.5t-60.5 -133.5h155l-40 -95h-114q14 -79 64 -137t113 -62zM236 814v1v-1l142 -83q-7 -24 -7 -22t-140 35q-130 -33 -130 -35t-7 22
l142 84l1 -1v1z" />
    <glyph glyph-name="Aacute" unicode="&#xc1;" horiz-adv-x="418" 
d="M367 50l-101 -58v219h-102v-167l-101 -57v224h-82l37 91h45l-1 107q0 116 59 188q62 76 176 77q48 1 68 -7zM266 304v255q-68 8 -90 -70q-12 -38 -12 -116v-69h102zM317 822l-197 -110q10 -21 10 -19t219 45z" />
    <glyph glyph-name="Edieresis" unicode="&#xcb;" horiz-adv-x="404" 
d="M370 89q0 -3 -49 -99q-103 18 -170 103q-64 81 -77 195h-76l40 95h35q12 109 73.5 192.5t152.5 102.5q5 1 65 -95q-64 -9 -111.5 -66.5t-60.5 -133.5h155l-40 -95h-114q14 -79 64 -137t113 -62zM235 757q0 19 14 32.5t34 13.5q19 0 33 -13.5t14 -32.5t-14 -32.5
t-33 -13.5q-20 0 -34 13.5t-14 32.5zM81 757q0 19 13.5 32.5t33.5 13.5t34 -13.5t14 -32.5t-14 -32.5t-34 -13.5t-33.5 13.5t-13.5 32.5z" />
    <glyph glyph-name="Egrave" unicode="&#xc8;" horiz-adv-x="404" 
d="M370 89q0 -3 -49 -99q-103 18 -170 103q-64 81 -77 195h-76l40 95h35q12 109 73.5 192.5t152.5 102.5q5 1 65 -95q-64 -9 -111.5 -66.5t-60.5 -133.5h155l-40 -95h-114q14 -79 64 -137t113 -62zM149 822l197 -110q-10 -21 -10 -19t-219 45z" />
    <glyph glyph-name="Iacute" unicode="&#xcd;" horiz-adv-x="192" 
d="M145 54l-111 -61l1 614l110 65v-618zM177 822l-197 -110q10 -21 10 -19t219 45z" />
    <glyph glyph-name="Icircumflex" unicode="&#xce;" horiz-adv-x="192" 
d="M145 54l-111 -61l1 614l110 65v-618zM96 814v1v-1l122 -83q-7 -24 -7 -22t-120 35q-110 -33 -110 -35t-7 22l122 84l1 -1v1z" />
    <glyph glyph-name="Idieresis" unicode="&#xcf;" horiz-adv-x="192" 
d="M145 54l-111 -61l1 614l110 65v-618zM119 758q0 19 14 32.5t34 13.5q19 0 33 -13.5t14 -32.5t-14 -32.5t-33 -13.5q-20 0 -34 13.5t-14 32.5zM-15 758q0 19 14 32.5t33 13.5q20 0 34 -13.5t14 -32.5t-14 -32.5t-34 -13.5q-19 0 -33 13.5t-14 32.5z" />
    <glyph glyph-name="Igrave" unicode="&#xcc;" horiz-adv-x="192" 
d="M145 54l-111 -61l1 614l110 65v-618zM9 822l197 -110q-10 -21 -10 -19t-219 45z" />
    <glyph glyph-name="Oacute" unicode="&#xd3;" horiz-adv-x="473" 
d="M319 738q-219 -43 -219 -45t-10 19l197 110zM426 344q0 -118 -33 -208q-51 -141 -170 -141q-118 0 -168 141q-31 87 -31 208q0 102 35 193q53 140 165 140q113 0 167 -140q35 -92 35 -193zM318 338q0 60 -16 126q-25 105 -79 105q-52 0 -76 -105q-14 -63 -14 -126
q0 -66 13 -121q24 -96 81 -96q91 0 91 217z" />
    <glyph glyph-name="Ocircumflex" unicode="&#xd4;" horiz-adv-x="473" 
d="M358 731q-7 -24 -7 -22t-140 35q-130 -33 -130 -35t-7 22l142 84l1 -1v1l-1 -1v1v-1zM426 344q0 -118 -33 -208q-51 -141 -170 -141q-118 0 -168 141q-31 87 -31 208q0 102 35 193q53 140 165 140q113 0 167 -140q35 -92 35 -193zM318 338q0 60 -16 126q-25 105 -79 105
q-52 0 -76 -105q-14 -63 -14 -126q0 -66 13 -121q24 -96 81 -96q91 0 91 217z" />
    <glyph glyph-name="Ograve" unicode="&#xd2;" horiz-adv-x="473" 
d="M336 712q-10 -21 -10 -19t-219 45l32 84zM426 344q0 -118 -33 -208q-51 -141 -170 -141q-118 0 -168 141q-31 87 -31 208q0 102 35 193q53 140 165 140q113 0 167 -140q35 -92 35 -193zM318 338q0 60 -16 126q-25 105 -79 105q-52 0 -76 -105q-14 -63 -14 -126
q0 -66 13 -121q24 -96 81 -96q91 0 91 217z" />
    <glyph glyph-name="Uacute" unicode="&#xda;" horiz-adv-x="442" 
d="M414 27l-96 -40q-20 18 -23 31q-9 0 -39.5 -16.5t-57.5 -17.5q-95 -4 -131 85q-15 37 -17 90l-1 334q0 63 -21 114q31 24 92 65q34 -49 34 -147l-1 -344q0 -31 13 -55q17 -30 50 -32q56 -2 56 86q0 9 -1 23v18v413l103 46v-555q0 -27 40 -98zM297 822l-197 -110
q10 -21 10 -19t219 45z" />
    <glyph glyph-name="Ucircumflex" unicode="&#xdb;" horiz-adv-x="442" 
d="M414 27l-96 -40q-20 18 -23 31q-9 0 -39.5 -16.5t-57.5 -17.5q-95 -4 -131 85q-15 37 -17 90l-1 334q0 63 -21 114q32 25 94 67q32 -46 32 -149l-1 -344q0 -31 13 -55q17 -30 50 -32q56 -2 56 86q0 9 -1 23v18v413l103 46v-555q0 -27 40 -98zM196 824v1v-1l142 -83
q-7 -24 -7 -22t-140 35q-130 -33 -130 -35t-7 22l142 84l1 -1v1z" />
    <glyph glyph-name="Ugrave" unicode="&#xd9;" horiz-adv-x="442" 
d="M414 27l-96 -40q-20 18 -23 31q-9 0 -39.5 -16.5t-57.5 -17.5q-95 -4 -131 85q-15 37 -17 90l-1 334q0 63 -21 114q32 25 94 67q32 -46 32 -149l-1 -344q0 -31 13 -55q17 -30 50 -32q56 -2 56 86q0 9 -1 23v18v413l103 46v-555q0 -27 40 -98zM119 822l197 -110
q-10 -21 -10 -19t-219 45z" />
    <glyph glyph-name="circumflex" unicode="&#x2c6;" horiz-adv-x="556" 
d="M246 824v1v-1l142 -83q-7 -24 -7 -22t-140 35q-130 -33 -130 -35t-7 22l142 84l1 -1v1z" />
    <glyph glyph-name="tilde" unicode="&#x2dc;" horiz-adv-x="426" 
d="M137 757q-58 0 -58 -25l-25 4q0 27 31 51t61 24q29 0 51.5 -16t43.5 -16q31 0 42.5 4t25.5 20l25 -1q0 -28 -31.5 -53t-61.5 -25q-24 0 -50 16.5t-54 16.5z" />
    <glyph glyph-name="macron" unicode="&#xaf;" horiz-adv-x="280" 
d="M24 790h233v-52h-233v52z" />
    <glyph glyph-name="macron" unicode="&#x2c9;" horiz-adv-x="280" 
d="M24 790h233v-52h-233v52z" />
    <glyph glyph-name="cedilla" unicode="&#xb8;" horiz-adv-x="349" 
d="M128 27l40 -6v-56q12 3 14 3q36 0 58 -22t22 -53q0 -40 -24.5 -63t-66.5 -23q-10 0 -21 1.5t-56 20.5l20 40q21 -20 56 -20q36 0 36 39q0 43 -34 43q-8 0 -42 5q-1 33 -2 91z" />
    <glyph glyph-name="Scaron" unicode="&#x160;" 
 />
    <glyph glyph-name="scaron" unicode="&#x161;" 
 />
    <glyph glyph-name="brokenbar" unicode="&#xa6;" 
 />
    <glyph glyph-name="Eth" unicode="&#xd0;" 
 />
    <glyph glyph-name="eth" unicode="&#xf0;" 
 />
    <glyph glyph-name="Yacute" unicode="&#xdd;" 
 />
    <glyph glyph-name="yacute" unicode="&#xfd;" horiz-adv-x="0" 
 />
    <glyph glyph-name="Thorn" unicode="&#xde;" 
 />
    <glyph glyph-name="thorn" unicode="&#xfe;" 
 />
    <glyph glyph-name="uni00AD" unicode="&#xad;" 
 />
    <glyph glyph-name="uni00AD" unicode="&#x2212;" 
 />
    <glyph glyph-name="multiply" unicode="&#xd7;" 
 />
    <glyph glyph-name="uni00B9" unicode="&#xb9;" 
 />
    <glyph glyph-name="uni00B2" unicode="&#xb2;" 
 />
    <glyph glyph-name="uni00B3" unicode="&#xb3;" 
 />
    <glyph glyph-name="onehalf" unicode="&#xbd;" 
 />
    <glyph glyph-name="onequarter" unicode="&#xbc;" 
 />
    <glyph glyph-name="threequarters" unicode="&#xbe;" 
 />
    <glyph glyph-name="Lslash" unicode="&#x141;" 
 />
    <glyph glyph-name="lslash" unicode="&#x142;" 
 />
    <glyph glyph-name="glyph220" 
 />
    <glyph glyph-name="glyph221" 
 />
    <glyph glyph-name="glyph222" 
 />
    <glyph glyph-name="Zcaron" unicode="&#x17d;" 
 />
    <glyph glyph-name="zcaron" unicode="&#x17e;" 
 />
    <glyph glyph-name="glyph225" 
 />
    <glyph glyph-name="glyph226" 
 />
    <glyph glyph-name="glyph227" 
 />
    <glyph glyph-name="glyph228" 
 />
    <glyph glyph-name="glyph229" 
 />
    <glyph glyph-name="glyph230" 
 />
    <glyph glyph-name="glyph231" 
 />
    <glyph glyph-name="glyph232" horiz-adv-x="1002" 
 />
    <glyph glyph-name="notequal" unicode="&#x2260;" 
 />
    <glyph glyph-name="infinity" unicode="&#x221e;" 
 />
    <glyph glyph-name="lessequal" unicode="&#x2264;" 
 />
    <glyph glyph-name="greaterequal" unicode="&#x2265;" 
 />
    <glyph glyph-name="partialdiff" unicode="&#x2202;" horiz-adv-x="228" 
d="M12 277l41 32v326l87 45q2 -103 2 -304l52 40v-66l-52 -40l-2 -274q-34 -19 -87 -47v254l-41 -32v66z" />
    <glyph glyph-name="summation" unicode="&#x2211;" horiz-adv-x="311" 
d="M267 613q-48 -9 -84.5 -57.5t-36.5 -89.5q0 -37 32 -83q28 -40 57 -81q31 -52 29 -105q-5 -134 -139 -224q-46 49 -77 88q50 36 70 60q28 33 28 72q0 52 -56 126.5t-60 143.5q-4 74 51 150t109 76q10 0 77 -76zM148 716v0v1l-121 82q6 25 6 22q0 -1 119 -34
q110 33 110 34q0 3 6 -22l-120 -83h-1v0h1z" />
    <glyph glyph-name="product" unicode="&#x220f;" horiz-adv-x="242" 
d="M198 334q-69 -23 -64 -81q1 -14 34 -57t33 -81q0 -33 -27 -77q-33 -52 -78 -54q-13 -1 -39 18q-19 14 -37 28q83 22 83 91q0 17 -30.5 54.5t-33.5 80.5q-3 35 23 78q29 48 67 50q8 0 69 -50zM120 419h-1v0l-103 70q6 21 6 19q0 -1 101 -29q93 28 93 29q0 2 6 -19
l-103 -70v0h-1h2z" />
    <glyph glyph-name="pi" unicode="&#x3c0;" horiz-adv-x="431" 
d="M428 689l-166 -366l-1 -283l-113 -53v340l-152 303l103 47l104 -214l76 167zM291 830l-197 -110q10 -21 10 -19t219 45z" />
    <glyph glyph-name="integral" unicode="&#x222b;" horiz-adv-x="358" 
d="M182 -303q-15 2 -40 -8q-17 87 -17 94q0 2 26 4q30 2 54 38q19 31 19 57v123q-26 -16 -37.5 -19.5t-42.5 -3.5q-50 0 -77 31q-25 28 -25 75l-1 198q2 20 -5 34q-4 9 -9 19q12 7 86 39q20 -27 23 -59q-1 5 -1 -53v-141q0 -17 14.5 -33t34.5 -16q44 0 44 67q0 7 -1 22v21
q0 2 -1 156l91 39v-497q1 -60 -34 -116q-40 -63 -101 -71zM244 521l-168 -93q9 -18 9 -17q0 2 186 39z" />
    <glyph glyph-name="Omega" unicode="&#x3a9;" horiz-adv-x="413" 
d="M360 94q0 -3 -49 -99q-93 16 -159 90q-61 69 -82 171h-74l30 64h36v15q-1 16 0 31h-66l30 64h44q20 96 79 166t140 87q6 2 65 -95q-54 -8 -97.5 -52t-63.5 -106h146l-30 -64h-129q-1 -14 -1 -28q0 -9 1 -18h159l-30 -64h-117q21 -67 67 -113t101 -49z" />
    <glyph glyph-name="Omega" unicode="&#x2126;" horiz-adv-x="413" 
d="M360 94q0 -3 -49 -99q-93 16 -159 90q-61 69 -82 171h-74l30 64h36v15q-1 16 0 31h-66l30 64h44q20 96 79 166t140 87q6 2 65 -95q-54 -8 -97.5 -52t-63.5 -106h146l-30 -64h-129q-1 -14 -1 -28q0 -9 1 -18h159l-30 -64h-117q21 -67 67 -113t101 -49z" />
    <glyph glyph-name="radical" unicode="&#x221a;" 
 />
    <glyph glyph-name="approxequal" unicode="&#x2248;" 
 />
    <glyph glyph-name="approxequal" unicode="&#x22f2;" 
 />
    <glyph glyph-name="Delta" unicode="&#x394;" 
 />
    <glyph glyph-name="Delta" unicode="&#x2206;" 
 />
    <glyph glyph-name="lozenge" unicode="&#x25ca;" horiz-adv-x="270" 
d="M128 151l-98 117l98 118l97 -118z" />
    <glyph glyph-name="fraction" unicode="&#x2044;" 
 />
    <glyph glyph-name="uniF001" unicode="&#xf001;" 
 />
    <glyph glyph-name="uniF002" unicode="&#xf002;" 
 />
    <glyph glyph-name="uniF000" unicode="&#xf000;" 
 />
    <glyph glyph-name="dotlessi" unicode="&#x131;" horiz-adv-x="187" 
d="M141 33l-94 -38v329l94 51v-342z" />
    <glyph glyph-name="breve" unicode="&#x2d8;" horiz-adv-x="326" 
d="M45 824q3 -14 35 -34q36 -22 73 -21q82 1 120 55l29 -20q-63 -89 -151 -85q-50 2 -90.5 27t-46.5 61z" />
    <glyph glyph-name="dotaccent" unicode="&#x2d9;" horiz-adv-x="220" 
d="M107 715q-26 0 -45 18.5t-19 45.5q0 26 19 44.5t45 18.5t44.5 -18.5t18.5 -44.5q0 -27 -18.5 -45.5t-44.5 -18.5z" />
    <glyph glyph-name="ring" unicode="&#x2da;" horiz-adv-x="312" 
d="M150 834q32 0 56.5 -17t24.5 -45t-24.5 -45.5t-56.5 -17.5t-55 17q-26 18 -26 46t26 46q23 16 55 16zM150 800q-19 0 -31 -9t-12 -19t12 -19t31 -9q20 0 32 9t12 19t-12 19t-32 9z" />
    <glyph glyph-name="hungarumlaut" unicode="&#x2dd;" horiz-adv-x="433" 
d="M147 747q-58 0 -58 -25l-25 4q0 27 31 51t61 24q29 0 51.5 -16t43.5 -16q31 0 42.5 4t25.5 20l25 -1q0 -28 -31.5 -53t-61.5 -25q-24 0 -50 16.5t-54 16.5z" />
    <glyph glyph-name="ogonek" unicode="&#x2db;" horiz-adv-x="447" 
d="M196 0h76q-33 -19 -52 -33q-31 -22 -31 -61q0 -20 19.5 -32t39.5 -12q44 0 105 20l18 -35q-80 -38 -162 -38q-45 0 -81 16q-45 22 -45 63q0 49 37 75q6 5 76 37z" />
    <glyph glyph-name="caron" unicode="&#x2c7;" horiz-adv-x="311" 
d="M148 716v0v1l-121 82q6 25 6 22q0 -1 119 -34q110 33 110 34q0 3 6 -22l-120 -83h-1v0h1z" />
    </font>
</defs>
</svg>
