<?xml version="1.0" standalone="no"?>
<!DOCTYPE svg PUBLIC "-//W3C//DTD SVG 1.1//EN" "http://www.w3.org/Graphics/SVG/1.1/DTD/svg11.dtd" >
<svg>
<metadata>
Created by FontForge 20120731 at Wed Apr 17 22:00:49 2019
 By www-data
Digitized by Dan X. Solo. Software (c) 2000 by Dover Publications, Inc., New York.
</metadata>
<defs>
<font id="NeoPrisma" horiz-adv-x="20" >
  <font-face 
    font-family="Neo Prisma"
    font-weight="400"
    font-stretch="normal"
    units-per-em="1000"
    panose-1="0 0 4 0 0 0 0 0 0 0"
    ascent="800"
    descent="-200"
    x-height="671"
    cap-height="669"
    bbox="-22 -195 1235 867"
    underline-thickness="20"
    underline-position="-123"
    unicode-range="U+0020-F002"
  />
<missing-glyph horiz-adv-x="500" 
d="M63 0v800h375v-800h-375zM125 63h250v675h-250v-675z" />
    <glyph glyph-name=".notdef" horiz-adv-x="500" 
d="M63 0v800h375v-800h-375zM125 63h250v675h-250v-675z" />
    <glyph glyph-name="glyph1" horiz-adv-x="0" 
 />
    <glyph glyph-name="glyph2" horiz-adv-x="195" 
 />
    <glyph glyph-name="space" unicode=" " horiz-adv-x="195" 
 />
    <glyph glyph-name="exclam" unicode="!" horiz-adv-x="364" 
d="M264 307h-38v362h38v-362zM192 308l-35 -1v362h35v-361zM121 307h-37v362h37v-362zM50 307h-38l1 362h37v-362zM284 132q0 -63 -42.5 -103t-103.5 -39q-59 0 -100 42.5t-41 101.5q1 56 46.5 99t94.5 41q62 -3 104 -44t42 -98zM246 132q0 41 -32 72.5t-76 31.5t-75.5 -31
t-31.5 -75q0 -43 30.5 -72.5t73.5 -31.5q46 -1 78.5 27.5t32.5 78.5zM213 132q0 -33 -22.5 -53.5t-53.5 -18.5q-30 1 -50.5 22t-20.5 50q0 30 21.5 51t52.5 21q29 0 51 -23t22 -49zM181 132q0 16 -11.5 27.5t-27.5 11.5t-27.5 -11.5t-11.5 -27.5t11.5 -27.5t27.5 -11.5
t27.5 11.5t11.5 27.5z" />
    <glyph glyph-name="quotedbl" unicode="&#x22;" horiz-adv-x="391" 
d="M311 407h-37v262h37v-262zM240 407h-37v262h37v-262zM111 407h-37v262h37v-262zM40 407h-37v262h37v-262z" />
    <glyph glyph-name="numbersign" unicode="#" horiz-adv-x="613" 
d="M538 538l-7 -39h-115l29 173h39l-25 -134h79zM410 672l-31 -173h-168l34 173h39l-25 -134h86l25 134h40zM525 463l-7 -41h-75l-32 -166l77 -1l-7 -41h-119l46 250zM210 672l-32 -173h-118l7 39h78l25 134h40zM374 462l-47 -247h-166l47 247h166zM475 179l-7 -39h-79
l-24 -139h-41l32 177zM172 464l-48 -247l-113 1l5 37h79l30 167h-79l8 41zM324 178l-34 -177h-39l24 139h-86l-24 -139h-41l32 177h168zM119 178l-29 -177h-39l24 139h-79l7 39zM325 421h-86l-29 -165h85z" />
    <glyph glyph-name="dollar" unicode="$" horiz-adv-x="548" 
d="M75 467q0 10 8 43q7 30 47 61t72 31h232v-35h-232q-38 0 -65.5 -31.5t-27.5 -68.5q0 -36 29 -66q26 -27 64 -36l61 -15q56 -3 92.5 -44.5t36.5 -97.5q0 -15 -7.5 -47t-47 -62.5t-71.5 -30.5h-263v35h263q36 0 64 37q26 34 26 73q0 37 -23 64t-61 35l-62 14
q-57 4 -96 44.5t-39 96.5zM220 -1v-80h-28v80h-189v32h259q22 0 56 15q110 50 110 167q0 60 -34.5 106.5t-91.5 60.5l-76 19q-27 2 -53 23.5t-26 46.5q0 22 17.5 41.5t43.5 19.5h226v-35h-226q-8 0 -16 -9t-8 -17q0 -28 43 -41q32 -7 64 -13q80 -10 129 -76q44 -58 44 -131
q0 -77 -53 -141q-57 -68 -132 -68v0v-80h-29v80h-30zM192 738h28v-67h30v67h29v-67h155v-32h-229q-35 0 -56 -10q-110 -50 -110 -167q0 -59 35 -104.5t92 -63.5l87 -16q26 -2 46.5 -23t20.5 -47q0 -22 -20 -45t-41 -23h-256v35h256q8 0 16.5 12.5t8.5 20.5q0 28 -23 36
q-22 4 -43 8l-48 6q-51 6 -103.5 58.5t-58.5 102.5q-5 34 -5 48q0 9 2 21q2 16 3 21q4 52 59 105t101 55q24 2 21 2h3v67z" />
    <glyph glyph-name="percent" unicode="%" horiz-adv-x="1132" 
d="M1033 210q0 -92 -64.5 -152t-155.5 -59q-90 2 -153 64.5t-62 151.5q1 88 65 148.5t153 60.5q88 0 152.5 -64t64.5 -150zM995 212q0 73 -52 125t-126 52q-74 1 -127 -50.5t-53 -125.5q0 -72 52 -123.5t125 -51.5q75 -1 128 48.5t53 125.5zM960 212q0 -63 -42.5 -103
t-103.5 -39q-59 0 -100 42.5t-41 101.5q1 56 46.5 99t94.5 41q62 -3 104 -44t42 -98zM921 212q0 41 -32 72.5t-75 31.5q-44 0 -75.5 -31t-31.5 -75q0 -43 30.5 -73t73.5 -31q46 -1 78 28t32 78zM889 212q0 -33 -22.5 -53.5t-53.5 -18.5q-30 1 -50.5 22t-20.5 50
q0 30 21.5 51t52.5 21q29 0 51 -23t22 -49zM851 212q0 -4 -1 -4t-13 18.5t-21 18.5q-16 1 -27.5 -9t-11.5 -24q1 -33 37 -34q10 0 22.5 19t13.5 19q1 -1 1 -4zM375 -3h-41l390 672h39zM300 -3h-41l392 672h39zM433 460q0 -92 -64.5 -152t-155.5 -59q-90 2 -153 64.5
t-62 151.5q1 88 65 148.5t153 60.5q88 0 152.5 -64t64.5 -150zM395 462q0 73 -52 125t-126 52q-74 1 -127 -50.5t-53 -125.5q0 -72 52 -123.5t125 -51.5q75 -1 128 48.5t53 125.5zM360 462q0 -63 -42.5 -103t-103.5 -39q-59 0 -100 42.5t-41 101.5q1 56 46.5 99t94.5 41
q62 -3 104 -44t42 -98zM321 462q0 41 -32 72.5t-75 31.5q-44 0 -75.5 -31t-31.5 -75q0 -43 30.5 -73t73.5 -31q46 -1 78 28t32 78zM289 462q0 -33 -22.5 -53.5t-53.5 -18.5q-30 1 -50.5 21.5t-20.5 50.5t21.5 51t52.5 21q29 0 51 -23t22 -49zM251 462q0 32 -35 33
q-16 1 -27.5 -9t-11.5 -24t11 -24t26 -10t26 9.5t11 24.5z" />
    <glyph glyph-name="ampersand" unicode="&#x26;" horiz-adv-x="720" 
d="M426 373l-1 -167h-59q-56 3 -99 44q-48 48 -45 120q4 97 76 136q-32 38 -31 74q1 21 12 47q13 30 30 42q-1 0 51 0q-55 -27 -55 -87q0 -29 18 -53q21 -29 52 -29q-7 0 -28 -6q-25 -8 -37 -17q-54 -41 -53 -109q1 -49 32.5 -88t74.5 -39h26v131zM145 372q-5 -106 66 -171
q61 -56 153 -65q26 -2 134 0v238h-36v-202h-98q-89 17 -136 69.5t-45 130.5q3 91 66 143l-12 25.5t-11 45.5q3 45 28 84h-38q-6 -11 -12 -23q-12 -28 -16 -56q-3 -31 18 -71q-16 -16 -28 -37q-30 -48 -33 -111zM72 372q1 -131 91 -221q86 -86 203 -86h206l1 309h-39v-273
h-170q-101 0 -179.5 81t-74.5 188q3 86 53 150q2 2 -4 22q-8 26 -6 49q4 60 19 80h-35q-16 -27 -20 -78q-2 -35 10 -71q-56 -97 -55 -150zM5 370q-9 -151 102 -263q107 -108 250 -108h284v375h-33l-1 -339q-170 -3 -246 0q-138 4 -234 104t-89 236q4 60 54 150q-9 30 -9 63
q0 49 19 83h-36q-13 -35 -15 -70q-1 -20 3 -41q4 -24 4 -25q0 -3 -2 -5q-16 -18 -31 -64q-17 -49 -20 -96z" />
    <glyph glyph-name="quotesingle" unicode="'" horiz-adv-x="189" 
d="M111 407h-37v262h37v-262zM40 407h-37v262h37v-262z" />
    <glyph glyph-name="parenleft" unicode="(" horiz-adv-x="294" 
d="M137 0h-41q-103 169 -103 332q0 181 94 339h44q-50 -92 -70 -155q-27 -82 -27 -169q0 -159 103 -347zM226 0h-44q-107 170 -107 332q0 175 98 339h44q-57 -106 -76 -161q-27 -80 -27 -178q0 -81 35 -172q23 -62 77 -160z" />
    <glyph glyph-name="parenright" unicode=")" horiz-adv-x="294" 
d="M82 671h41q103 -168 103 -332q0 -181 -94 -339h-44q50 92 70 155q27 82 27 169q0 159 -103 347zM-7 671h44q106 -170 106 -332q0 -175 -97 -339h-44q57 107 76 161q27 80 27 178q0 81 -35 173q-24 62 -77 159z" />
    <glyph glyph-name="asterisk" unicode="*" horiz-adv-x="370" 
d="M266 466l-18 -32l-99 57v-114h-37v114l-98 -57l-19 32l99 57l-99 57l19 32l98 -57v114h37v-114l99 57l18 -32l-98 -57z" />
    <glyph glyph-name="plus" unicode="+" horiz-adv-x="639" 
d="M297 606v-254h253l1 -37h-254v-250h-40v250h-254v37h254v254h40zM341 395h209v40h-170v171h-39v-211zM341 276h209v-41l-170 1v-171h-39v211zM213 395h-210v40h171v171h39v-211zM213 276h-210v-41l171 1v-171h39v211z" />
    <glyph glyph-name="comma" unicode="," horiz-adv-x="361" 
d="M86 -2q-78 43 -78 121q0 56 40.5 94.5t96.5 38.5q58 0 100 -39.5t40 -95.5q0 -41 -20 -67q-78 -103 -130 -167l-42 1q27 33 132 174q23 32 25 59q2 42 -29.5 72.5t-75.5 30.5q-42 0 -71.5 -29.5t-30.5 -71.5q-2 -57 60 -98l24 32q-48 26 -47 66q1 27 19.5 46t45.5 19
q26 0 46.5 -19.5t20.5 -44.5q0 -18 -16 -42q-13 -17 -25 -34l-120 -161h-45q86 112 80 115zM173 119q0 27 -28 27q-27 0 -27 -27q0 -26 27 -28q7 0 17.5 8t10.5 20z" />
    <glyph glyph-name="hyphen" unicode="-" horiz-adv-x="427" 
d="M325 317v37h-322v-37h322zM325 435v-40h-322v40h322zM325 276v-41h-322v41h322z" />
    <glyph glyph-name="hyphen" unicode="&#x2010;" horiz-adv-x="427" 
d="M325 317v37h-322v-37h322zM325 435v-40h-322v40h322zM325 276v-41h-322v41h322z" />
    <glyph glyph-name="period" unicode="." horiz-adv-x="358" 
d="M284 132q0 -62 -42 -102t-104 -40q-59 0 -100 42.5t-41 101.5q0 51 42.5 95t94.5 44q60 0 105 -40.5t45 -100.5zM246 132q0 44 -30 74.5t-78 29.5q-44 -1 -75.5 -31.5t-31.5 -74.5q0 -42 31 -73t73 -31q49 0 80 28.5t31 77.5zM213 132q0 -33 -21.5 -52.5t-54.5 -19.5
q-29 0 -50 21.5t-21 50.5q0 30 22 51t52 21q28 0 50.5 -22t22.5 -50zM181 132q0 16 -11.5 27.5t-27.5 11.5t-27.5 -11.5t-11.5 -27.5t11.5 -27.5t27.5 -11.5t27.5 11.5t11.5 27.5z" />
    <glyph glyph-name="slash" unicode="/" horiz-adv-x="415" 
d="M115 -3h-41l230 672h39zM40 -3h-41l232 672h39z" />
    <glyph glyph-name="zero" unicode="0" horiz-adv-x="816" 
d="M724 320q0 -152 -106 -252q-103 -96 -252 -96q-148 0 -253 102.5t-105 248.5t106 248t253 101t252 -104t105 -248zM689 323q0 127 -94 219t-224 95q-134 2 -231 -88.5t-99 -221.5q-2 -132 94 -226t229 -94q136 0 228 87q97 90 97 229zM653 320q0 -118 -84 -199t-202 -81
q-120 0 -205 83.5t-84 201.5q1 117 86.5 199t204.5 81q116 -2 200 -87.5t84 -197.5zM618 322q0 104 -73 175.5t-178 72.5q-104 0 -179 -72t-75 -175q0 -102 74.5 -174t178.5 -72q105 0 178.5 69t73.5 176zM583 320q0 -92 -64.5 -152t-155.5 -59q-90 1 -153 64t-62 152
q1 88 65 148.5t153 60.5q88 0 152.5 -64t64.5 -150zM545 322q0 73 -52 125t-126 52q-74 1 -127 -50.5t-53 -125.5q0 -72 52 -123.5t125 -51.5q75 -1 128 48.5t53 125.5zM510 322q0 -63 -42.5 -103t-103.5 -39q-59 0 -100 42.5t-41 101.5q1 56 46.5 99t94.5 41q62 -3 104 -44
t42 -98zM471 322q0 41 -32 72.5t-75 31.5q-44 0 -75.5 -31t-31.5 -75q0 -43 30.5 -73t73.5 -31q46 -1 78 27.5t32 78.5zM439 322q0 -33 -22.5 -53t-53.5 -19q-30 1 -50.5 21.5t-20.5 50.5t21.5 51t52.5 21q29 0 51 -23t22 -49zM401 322q0 32 -35 33q-15 1 -27 -9t-12 -24
t11 -24t26 -10t26 10t11 24z" />
    <glyph glyph-name="one" unicode="1" horiz-adv-x="552" 
d="M441 0h-34v652l-375 -162l-14 31l423 181v-702zM368 0h-31l-1 550l-274 -126l-12 29l318 143v-596zM294 0h-34l1 437l-172 -78l-13 30l219 97zM227 0h-38l1 322l-69 -30l-16 32l120 52z" />
    <glyph glyph-name="two" unicode="2" horiz-adv-x="667" 
d="M559 433l-111 -192h101v-34l-159 1l131 225q16 34 16 77q0 92 -57 161h35q55 -64 55 -162q0 -38 -11 -76zM551 135l-288 1l189 298q19 40 19 81q0 86 -73 156h42q63 -81 63 -156q0 -38 -16 -81l-165 -267h229v-32zM549 66h-425l247 370q21 38 21 81q0 86 -86 154l41 3
q79 -58 79 -163q0 -42 -16 -75l-224 -336l363 -2v-32zM551 0h-565l313 438q20 41 20 78q0 87 -115 155h54q96 -58 96 -160q0 -44 -22 -78l-279 -402h498v-31zM-190 658z" />
    <glyph glyph-name="three" unicode="3" horiz-adv-x="494" 
d="M400 360q2 -162 -99 -261q-105 -104 -301 -118v34q0 -8 93 14q107 25 174 88q94 89 97 242q1 76 -31 133q-9 16 -46 60q4 27 4 42q0 29 -27 77h33q7 -2 16 -22q11 -25 11 -55q0 -17 -3 -34q26 -26 43 -57q34 -63 36 -143zM176 359q2 -73 -50 -120q-48 -44 -126 -54v38
q60 4 100.5 42t39.5 94q-1 47 -34 85t-87 44q24 5 38.5 25.5t14.5 43.5q0 71 -72 86v29q46 -1 76.5 -33.5t30.5 -74.5q0 -35 -22 -63q89 -37 91 -142zM329 360q0 -138 -98 -225q-90 -80 -231 -89v32q140 14 219 92q76 76 74 192q-1 56 -30 107q-23 41 -51 59q6 19 6 43
q0 58 -38 100h40q35 -33 35 -91q0 -25 -5 -41q79 -65 79 -179zM254 360q2 -106 -65 -169.5t-190 -76.5v34q93 13 149 60q68 56 68 151q0 103 -84 148q12 18 12 52q0 81 -59 112h48q19 -8 34 -40.5t15 -68.5q0 -25 -8 -45q79 -58 80 -157z" />
    <glyph glyph-name="four" unicode="4" horiz-adv-x="754" 
d="M646 310l-1 -31h-69v103l32 -1v-71h38zM646 209h-140v172h32v-138l108 -1v-33zM426 671l-98 -358h35v65h30v-99l-107 1l108 391h32zM464 208l-274 1l129 462h32l-113 -427h192v137h34v-173zM646 74l-36 1v-75h-31v106h67v-32zM646 140h-107v-140h-35v171h142v-31zM466 0
h-34v140l-334 -1l147 532h33l-134 -500h322v-171zM392 0h-31v69l-357 -1l170 604l33 -1l-159 -567l344 1v-105z" />
    <glyph glyph-name="five" unicode="5" horiz-adv-x="597" 
d="M467 641h-447v31h447v-31zM467 570l-447 1v30h447v-31zM467 531v-31h-447v31h447zM416 253q0 -84 -65 -146t-148 -62q-86 0 -145 59l27 23q15 -12 44 -30q43 -17 69 -17q74 0 125 48.5t51 122.5q0 60 -29 104q-34 52 -101 65q-30 6 -73 7q-27 1 -76 -1q-52 -1 -72 -1
q0 12 -1 35h161q105 0 169 -56t64 -151zM487 256q0 -116 -81.5 -198t-194.5 -82q-63 0 -109 19q-38 16 -92 58l27 26q73 -67 161 -67q109 0 179.5 69t70.5 172q0 120 -107 207h126v-32h-45q28 -23 48 -80q17 -52 17 -92zM344 256q0 -61 -44.5 -102t-101.5 -41q-48 0 -90 41
q16 21 27 21q-1 0 17 -13.5t48 -13.5q43 0 76 35q29 33 29 70q0 41 -31 72.5t-68 31.5h-181v36l168 -1q57 0 102 -36q49 -40 49 -100zM270 256q0 -27 -20.5 -47.5t-46.5 -20.5q-19 0 -26.5 5.5t-13.5 11.5q18 26 19 26q4 0 12 -4t13 -4q11 0 18 13q6 9 6 18q0 34 -24 34
h-180v32h169q30 3 49 -10q25 -16 25 -54z" />
    <glyph glyph-name="six" unicode="6" horiz-adv-x="671" 
d="M-2 261q0 68 16 98q10 19 79 116q48 67 147 198l43 1q-52 -67 -158 -216q-27 -35 -75 -107q-17 -33 -17 -76q0 -112 71.5 -185t183.5 -73q99 0 172.5 70.5t73.5 169.5q0 55 -38 115q-36 55 -89 92l-23 -24q113 -88 113 -180q0 -87 -62 -148t-149 -61q-89 0 -152.5 61
t-63.5 149q0 53 17 82q11 18 71 101q66 93 172 230l43 -2q-64 -82 -171 -231q-26 -33 -74 -102q-20 -30 -20 -79q0 -71 52.5 -121t124.5 -50q73 0 124 49t52 122q0 47 -31 91q-27 38 -63 56q-4 -4 -20 -21q40 -28 56 -51q20 -30 19 -74q-2 -55 -42 -94t-95 -39
q-58 0 -99.5 39t-41.5 96q0 36 21 68q46 70 125 173q119 157 129 170l42 -2l-178 -238q-30 -38 -86 -116q-17 -26 -17 -55q0 -43 30.5 -72.5t74.5 -29.5q41 0 71.5 30t30.5 70q0 59 -60 98l-21 -25q44 -36 44 -67q0 -28 -19 -49t-46 -21q-30 0 -49.5 20.5t-19.5 50.5
q0 20 38 65q67 81 258 338l47 1l-129 -177q57 -41 97 -104q45 -69 45 -132q0 -113 -85.5 -192.5t-198.5 -79.5q-121 0 -204 76q-86 79 -86 198zM257 262q0 -28 28 -28q27 0 27 28q0 10 -8.5 18.5t-18.5 8.5t-19 -9t-9 -18z" />
    <glyph glyph-name="seven" unicode="7" horiz-adv-x="549" 
d="M262 -1l-32 1l205 639h-433l-2 32h483zM383 603l-193 -605l-38 2l178 566h-328l-1 36zM285 530l-174 -532l-34 2l163 497h-239l1 33h283zM36 -2l-36 2l135 426h-133v35l184 1z" />
    <glyph glyph-name="eight" unicode="8" horiz-adv-x="629" 
d="M537 264q0 -128 -84 -204q-78 -72 -199 -72q-118 0 -194 73.5t-76 202.5q0 35 23 87q22 49 41 63q-12 25 -12 49q0 100 59 158.5t157 58.5q99 0 165 -58q70 -61 70 -159q0 -24 -12 -49q19 -14 40 -63q22 -52 22 -87zM507 261q0 31 -20.5 81t-43.5 68q11 35 11 52
q0 81 -58 133t-140 52q-80 0 -134 -51.5t-54 -133.5q0 -17 11 -52q-23 -18 -44 -68t-21 -81q0 -101 70 -170.5t170 -69.5q101 0 177 70t76 170zM471 261q0 -84 -65.5 -145.5t-149.5 -61.5t-145 61t-61 146q0 35 24 82q21 43 43 59q-15 24 -15 53q0 66 45.5 113t110.5 47
t114 -47.5t49 -112.5q0 -29 -15 -53q21 -16 42 -59q23 -47 23 -82zM432 261q0 39 -19.5 78.5t-46.5 57.5q6 6 13 25.5t7 31.5q0 52 -36.5 89.5t-89.5 37.5q-52 0 -87.5 -37t-35.5 -90q0 -12 7 -31.5t13 -25.5q-28 -18 -49 -58t-21 -78q0 -73 47.5 -122t118.5 -49
q72 0 125.5 49.5t53.5 121.5zM396 262q0 -58 -41.5 -97.5t-100.5 -39.5q-57 0 -93 39t-36 98q0 44 22 75q17 23 60 51q-34 26 -34 64q0 39 24 65.5t62 26.5t64.5 -27t26.5 -65t-34 -64q42 -27 59 -51q21 -30 21 -75zM318 453q0 21 -19 39.5t-40 18.5t-37.5 -18t-16.5 -40
q0 -19 18.5 -35.5t38.5 -16.5q19 0 37.5 16.5t18.5 35.5zM357 261q0 41 -28.5 68.5t-69.5 27.5t-70 -27t-29 -68t27.5 -69t68.5 -28t71 27.5t30 68.5zM289 456q1 -10 -7.5 -18.5t-18.5 -7.5q-11 -1 -20.5 7.5t-8.5 18.5q2 26 26 26q27 0 29 -26zM321 261q0 -24 -20.5 -44
t-44.5 -20t-42 19.5t-18 44.5q0 26 18.5 44.5t44.5 18.5q25 0 43.5 -18.5t18.5 -44.5zM289 260q0 30 -30 30q-31 0 -31 -30t31 -30q30 0 30 30z" />
    <glyph glyph-name="nine" unicode="9" horiz-adv-x="666" 
d="M573 414q0 -69 -28 -119q-34 -48 -68 -95q-89 -127 -147 -198l-44 -1q53 66 159 215q27 35 75 108q17 32 17 75q0 112 -71.5 185t-183.5 73q-99 0 -173 -70.5t-74 -169.5q0 -55 39 -114q36 -56 89 -92l23 23q-113 88 -113 180q0 87 62 148t149 61q88 0 152 -60.5
t64 -149.5q0 -53 -17 -81q-11 -19 -71 -102q-66 -93 -172 -229l-43 1q64 82 171 231q26 34 74 102q19 31 19 79q0 72 -52 122t-124 50q-73 0 -124 -49.5t-52 -122.5q-1 -47 31 -91q27 -38 62 -56l21 21q-40 28 -56 52q-20 30 -19 73q2 56 42 94.5t95 38.5q58 0 99 -38.5
t41 -96.5q0 -35 -20 -67q-46 -71 -125 -173q-120 -157 -129 -170l-42 1l178 239q30 38 85 115q18 26 18 55q0 43 -30.5 73t-74.5 30q-41 0 -71.5 -30t-30.5 -71q0 -59 60 -98l20 26q-43 36 -43 67q0 28 19 49t46 21q29 0 49 -21t20 -50q0 -20 -38 -66q-68 -81 -258 -337
l-47 -2l129 177q-57 42 -97 104q-45 70 -45 133q0 112 85 192t199 80q121 0 206 -77t85 -197zM313 413q0 27 -28 27q-27 0 -27 -27q0 -11 8.5 -19.5t18.5 -8.5t19 9t9 19z" />
    <glyph glyph-name="colon" unicode=":" horiz-adv-x="363" 
d="M284 452q0 -62 -42 -102t-104 -40q-59 0 -100 42.5t-41 101.5q0 51 43 95.5t94 44.5q60 0 105 -41t45 -101zM246 452q0 42 -33 73t-75 31q-44 0 -75.5 -31t-31.5 -75q0 -42 31 -73t73 -31q49 0 80 28.5t31 77.5zM213 452q0 -33 -21.5 -52.5t-54.5 -19.5q-29 0 -50 21.5
t-21 50.5q0 30 22 51t52 21q28 0 50.5 -22t22.5 -50zM181 452q0 16 -11.5 27.5t-27.5 11.5t-27.5 -11.5t-11.5 -27.5t11.5 -27.5t27.5 -11.5t27.5 11.5t11.5 27.5zM284 132q0 -62 -42 -102t-104 -40q-59 0 -100 42.5t-41 101.5q0 51 43 95.5t94 44.5q60 0 105 -41t45 -101z
M246 132q0 42 -33 73t-75 31q-44 0 -75.5 -31t-31.5 -75q0 -42 31 -73t73 -31q49 0 80 28.5t31 77.5zM213 132q0 -33 -21.5 -52.5t-54.5 -19.5q-29 0 -50 21.5t-21 50.5q0 30 22 51t52 21q28 0 50.5 -22t22.5 -50zM181 132q0 16 -11.5 27.5t-27.5 11.5t-27.5 -11.5
t-11.5 -27.5t11.5 -27.5t27.5 -11.5t27.5 11.5t11.5 27.5z" />
    <glyph glyph-name="semicolon" unicode=";" horiz-adv-x="361" 
d="M86 12q-78 43 -78 121q0 55 40.5 94t96.5 39q58 0 100 -39.5t40 -95.5q-1 -41 -20 -67q-78 -103 -130 -167l-42 1q27 33 132 174q23 31 25 59q2 42 -29.5 72.5t-75.5 30.5q-42 0 -71.5 -29.5t-30.5 -71.5q-2 -56 60 -98l24 32q-48 26 -47 66q1 27 19.5 46t45.5 19
q26 0 46.5 -19.5t20.5 -44.5q0 -18 -16 -42q-13 -17 -25 -34l-120 -161h-45q86 112 80 115zM173 133q0 27 -28 27q-27 0 -27 -27q0 -26 27 -28q7 0 17.5 8t10.5 20zM284 452q0 -62 -42 -102t-104 -40q-59 0 -100 42.5t-41 101.5q0 51 43 95.5t94 44.5q60 0 105 -41t45 -101z
M246 452q0 42 -33 73t-75 31q-44 0 -75.5 -31t-31.5 -75q0 -42 31 -73t73 -31q49 0 80 28.5t31 77.5zM213 452q0 -33 -21.5 -52.5t-54.5 -19.5q-29 0 -50 21.5t-21 50.5q0 30 22 51t52 21q28 0 50.5 -22t22.5 -50zM181 452q0 16 -11.5 27.5t-27.5 11.5t-27.5 -11.5
t-11.5 -27.5t11.5 -27.5t27.5 -11.5t27.5 11.5t11.5 27.5z" />
    <glyph glyph-name="less" unicode="&#x3c;" horiz-adv-x="357" 
d="M281 529l-227 -177l227 -182l-22 -28l-262 209l262 206z" />
    <glyph glyph-name="equal" unicode="=" horiz-adv-x="582" 
d="M524 355l1 39h-522v-39h521zM525 277v-42h-522v42h522z" />
    <glyph glyph-name="greater" unicode="&#x3e;" horiz-adv-x="357" 
d="M-3 529l227 -177l-227 -182l22 -28l262 209l-262 206z" />
    <glyph glyph-name="question" unicode="?" horiz-adv-x="519" 
d="M255 365q73 16 73 97q0 38 -27.5 71.5t-64.5 33.5h-233v35h233q32 0 71.5 -31t46.5 -61q8 -33 8 -48q0 -56 -26 -87q-19 -24 -58 -38q-32 -10 -64 -19q-52 -20 -52 -94h-36q0 72 35 103q25 22 94 38zM234 392q26 2 41 22t15 48q0 23 -17.5 45.5t-43.5 22.5h-226v-35h226
q8 0 16.5 -11.5t8.5 -19.5q0 -28 -19 -39q-5 -3 -38 -10q-80 -24 -115 -86q-27 -46 -25 -103l35 -2q2 67 30 105q33 43 112 63zM235 284l49 15q114 35 114 158q0 57 -30 103.5t-81 70.5q-21 9 -38 9h-246v33h268q65 0 118 -74q50 -69 50 -137q0 -162 -155 -197
q-36 -8 -40 -10q-16 -8 -13 -31h-34q-3 16 7.5 35.5t30.5 24.5zM250 92q0 41 -32 72.5t-76 31.5t-75.5 -31t-31.5 -75q0 -43 30.5 -72.5t73.5 -31.5q46 -1 78.5 27.5t32.5 78.5zM217 92q0 -33 -22.5 -53.5t-53.5 -18.5q-30 1 -50.5 22t-20.5 50q0 30 21.5 51t52.5 21
q29 0 51 -23t22 -49zM185 92q0 16 -11.5 27.5t-27.5 11.5t-27.5 -11.5t-11.5 -27.5t11.5 -27.5t27.5 -11.5t27.5 11.5t11.5 27.5z" />
    <glyph glyph-name="at" unicode="@" horiz-adv-x="776" 
d="M498 133q-55 3 -73 24q-12 13 -17 50q-35 -40 -54 -50q-25 -13 -77 -13q-36 0 -66 31q-35 35 -35 89q0 106 58 180q63 82 166 82q50 0 101 -25q-10 -34 -53 -228q-5 -22 -5 -39q0 -66 52 -68q56 -3 99 64t43 151q0 107 -81 176.5t-205 69.5q-129 0 -216 -96
q-82 -92 -82 -218q0 -117 87 -191q82 -71 200 -71q40 0 106 19l10 -40q-54 -15 -121 -15q-137 0 -228 79q-96 83 -96 224q0 147 96.5 246.5t243.5 99.5q141 0 233.5 -78.5t92.5 -206.5q0 -107 -53.5 -179t-125.5 -67zM395 485q-85 0 -132 -72q-40 -60 -40 -144q0 -39 18 -63
t47 -24q36 0 72 34q39 38 52 96l36 166q-16 7 -53 7z" />
    <glyph glyph-name="A" unicode="A" horiz-adv-x="861" 
d="M774 2h-39l-363 612l-345 -615l-35 1l380 695zM694 -1h-34l-285 473l-267 -473h-38l304 546zM614 -1h-35l-202 331l-185 -331h-35l220 401zM532 2l-36 -3l-116 188l-101 -187l-41 -1l143 260z" />
    <glyph glyph-name="B" unicode="B" horiz-adv-x="720" 
d="M501 372q5 -106 -66 -171q-61 -56 -153 -65q-26 -2 -134 0v534h36v-498h98q89 17 136 69t45 131q-2 91 -66 143l12 25.5t11 45.5q-3 45 -28 84h38q6 -11 12 -23q12 -28 16 -56q3 -31 -18 -71q16 -16 28 -37q30 -48 33 -111zM574 372q-1 -131 -91 -221q-86 -86 -203 -86
h-206l-1 605h39v-569h170q101 0 179.5 81t74.5 188q-3 86 -53 150q-2 2 4 22q8 26 6 49q-2 29 -20 79h35q10 -23 21 -77q2 -35 -10 -71q56 -97 55 -150zM641 370q9 -151 -102 -263q-107 -108 -250 -108h-284v671h33l1 -635q170 -3 246 0q138 4 234 104t89 236q-4 60 -54 150
q12 38 8 73l-15 72h33q6 -20 15 -69q1 -20 -3 -41q-4 -24 -4 -25q0 -3 2 -5q16 -18 31 -64q17 -49 20 -96zM280 206h-59l-1 463h36v-161q4 -6 15 -6q32 0 51 26t19 54q0 60 -55 87q52 0 51 0q17 -12 30 -42q11 -26 12 -47q1 -29 -33 -71q33 -18 54.5 -56t23.5 -83
q3 -72 -45 -120q-43 -41 -99 -44zM336 477q-12 9 -34.5 17t-30.5 8t-15 -10v-251h26q43 0 74.5 39t32.5 88q1 68 -53 109z" />
    <glyph glyph-name="C" unicode="C" horiz-adv-x="723" 
d="M418 281q-35 -20 -56 -20q-30 0 -51 20t-21 50q-1 28 24 50q22 20 50 22q12 2 42 -13q-2 -7 -16 -26q-15 7 -24 7q-17 0 -29 -12t-12 -28q1 -36 39 -37q6 -1 15.5 4t13.5 5q5 0 25 -22zM479 236q-69 -47 -113 -46q-60 1 -103 40.5t-44 97.5q-2 60 41 103.5t104 43.5
q34 0 84 -27l-21 -28q-39 19 -63 19q-46 0 -78 -32.5t-32 -77.5q1 -44 31.5 -74.5t75.5 -31.5q34 -2 86 36zM534 192q-76 -72 -173 -73q-87 -1 -149.5 60t-63.5 149q-2 89 62.5 153.5t155.5 64.5q71 0 127 -41q-3 -6 -21 -27q-67 33 -108 32q-75 -1 -128.5 -54t-52.5 -127
q1 -72 53.5 -122t125.5 -52q78 -3 142 56zM590 150q-100 -104 -228 -102q-117 2 -200 82t-85 196q-3 119 82.5 204t205.5 86q71 1 175 -55l-23 -28q-95 49 -153 48q-105 -1 -179 -74.5t-73 -177.5q1 -102 74 -172.5t176 -72.5q61 -2 121 25q55 26 79 61q12 -7 28 -20z
M642 114q-45 -62 -117 -97q-76 -38 -166 -37q-145 2 -248 102t-106 244q-2 148 104 253t256 107q123 1 219 -70l-21 -28q-99 66 -201 64q-133 -2 -227.5 -96t-93.5 -227q1 -132 95.5 -224t225.5 -92q163 0 252 119q12 -1 28 -18z" />
    <glyph glyph-name="D" unicode="D" horiz-adv-x="669" 
d="M587 333q0 -137 -84 -233q-88 -100 -227 -100h-275v671h248q143 0 240.5 -98.5t97.5 -239.5zM553 334q0 124 -90 214t-212 90l-215 1l-1 -605h233q119 0 201.5 89t83.5 211zM514 337q0 -107 -69 -185q-72 -81 -176 -81h-200v529h180q108 0 186 -77t79 -186zM478 334
q0 96 -66 164t-163 68h-144l-1 -463h164q86 0 148 69.5t62 161.5zM441 337q-2 -79 -51 -138t-122 -60h-127v393l106 1q78 0 137 -63t57 -133zM407 334q1 67 -47 115t-114 48q-23 0 -70 -1v-320l89 -1q58 0 100 48t42 111zM372 336q0 -49 -32.5 -87.5t-76.5 -38.5h-51v248h39
q49 0 84.5 -36t36.5 -86zM336 334q0 39 -24 64.5t-64 24.5v-177q36 -6 62 22t26 66z" />
    <glyph glyph-name="E" unicode="E" horiz-adv-x="528" 
d="M430 423h-213v103h213v-34h-181v-36h181v-33zM430 563h-249v-177l249 1v-33h-284v244h284v-35zM429 637h-319l-1 -602h321l1 -34l-355 1v669l353 1v-35zM430 211h-184v-36h183v-34h-215v104h216v-34zM430 280l-250 1v-176h249v-33h-283v242h284v-34zM35 0l-33 1v671h33
v-672z" />
    <glyph glyph-name="F" unicode="F" horiz-adv-x="526" 
d="M434 354h-209v105h209v-33l-174 -1l1 -39l173 -1v-31zM434 283h-281v248h281v-35l-247 -1l1 -179h246v-33zM433 638h-391l1 -638h-40l-3 672l433 -1v-33zM433 600v-34h-319v-566h-35v600h354zM435 211h-249l-1 -211h-33v246l283 -1v-34zM432 143l-177 1l-1 -144h-34v176
h212v-33z" />
    <glyph glyph-name="G" unicode="G" horiz-adv-x="795" 
d="M635 315q0 -100 -85 -179t-195 -79q-117 0 -199 82.5t-82 199.5t73 192.5t206 87.5v-36q-121 -11 -184 -78q-60 -63 -60 -168q0 -101 71.5 -173t172.5 -72q105 0 178 70.5t69 176.5h-208v31h243v-55zM705 327q0 -145 -105.5 -242t-251.5 -95q-144 2 -246 104.5
t-100 246.5q1 147 94 242q97 98 257 98v-33q-145 -1 -233 -90q-84 -86 -85 -219q-1 -130 91.5 -223t223.5 -94q125 -1 222.5 87.5t97.5 201.5v99h-278v31h313v-114zM355 127q-88 0 -150.5 61.5t-62.5 148.5q0 89 60 150t151 61v-36q-77 0 -125 -50t-49 -123
q0 -73 51.5 -124.5t124.5 -51.5q57 0 102.5 28t57.5 74l-123 1v36l170 -1q-2 -73 -64.5 -123.5t-142.5 -50.5zM446 235q-28 -36 -93 -37q-58 0 -98.5 42t-40.5 101q2 122 139 138v-36q-46 -5 -74 -33t-29 -71t25.5 -74t68.5 -35q38 -3 102 5z" />
    <glyph glyph-name="H" unicode="H" horiz-adv-x="644" 
d="M555 0h-37v671h37v-671zM336 425l-108 1v246h35v-206h36v206h37v-247zM482 0h-35v672h35v-672zM407 358h-251v314h34l-1 -281h183l1 281h34v-314zM408 1h-34v285h-183l1 -285h-34v320h250v-320zM118 1h-36v671h36v-671zM337 1h-36v208h-39l2 -209h-36v251l109 1v-251z
M45 1h-39l1 671h38v-671z" />
    <glyph glyph-name="I" unicode="I" horiz-adv-x="348" 
d="M254 -3h-38v672h38v-672zM182 -2l-35 -1v672h35v-671zM111 -3h-37v672h37v-672zM40 -3h-38l1 672h37v-672z" />
    <glyph glyph-name="J" unicode="J" horiz-adv-x="350" 
d="M262 215q0 -93 -92 -164q-85 -65 -168 -56v38q81 -4 151.5 53t70.5 126v460h38v-457zM188 234q0 -69 -64 -122q-59 -48 -122 -50v35q54 0 101.5 46t47.5 97l-1 432h39zM41 246q0 -25 -41 -31l5 33v424h35zM116 236q0 -34 -41.5 -68.5t-74.5 -36.5q1 -2 2 35q33 7 54 29
t21 48v429h38z" />
    <glyph glyph-name="K" unicode="K" horiz-adv-x="721" 
d="M645 672l-122 -346l122 -326l-33 1l-127 326l127 345h33zM450 326l125 -325h-36l-131 329l131 342h36zM501 672l-133 -342l134 -329h-39l-136 332l135 339h39zM287 330l138 -329h-39l-127 307l-1 -6v-301h-37v671l37 -1v-321l126 322h42zM185 1h-34l1 669h33v-669zM114 1
h-37v669h36zM38 1h-37v669h37v-669z" />
    <glyph glyph-name="L" unicode="L" horiz-adv-x="490" 
d="M397 213h-178v459h33l1 -423h145zM397 176v-34h-247v530h34l-2 -495zM397 107v-36h-317v601h30v-565h287zM397 41v-40h-389v671h33l1 -631h355z" />
    <glyph glyph-name="M" unicode="M" horiz-adv-x="1059" 
d="M982 0h-41l-333 610l-108 -179l-110 183l-354 -614h-36l389 689l110 -183l109 182zM902 1h-40l-255 468l-103 -175l-112 179l-269 -473h-40l309 548l110 -187l105 177zM822 0l-36 1l-173 323l-112 -179l-109 191l-189 -336h-37l223 404l112 -182l106 177zM745 0h-37
l-96 188l-114 -179l-106 180l-103 -189h-40l143 264l108 -185l110 181z" />
    <glyph glyph-name="N" unicode="N" horiz-adv-x="712" 
d="M613 -31l-354 250l-1 -221h-34v290l353 -249v632l36 -1v-701zM541 103l-351 250l-2 -355h-34v428l352 -248v493l35 -1v-567zM472 247l-353 254l-2 -503h-34v568l354 -252v357l35 -1v-423zM402 384l-361 255v-638l-34 -1l1 707l358 -253v217l36 -1v-286z" />
    <glyph glyph-name="O" unicode="O" horiz-adv-x="830" 
d="M724 333q0 -152 -106 -252q-103 -96 -252 -96q-148 0 -253 102.5t-105 248.5t106 248t253 101t252 -104t105 -248zM689 336q0 127 -94 219t-224 95q-134 2 -231 -88.5t-99 -221.5q-1 -132 94.5 -226t228.5 -94q136 0 228 87q97 90 97 229zM653 333q0 -118 -84 -199
t-202 -81q-120 0 -205 83.5t-84 201.5q1 117 86.5 199t204.5 81q116 -2 200 -87.5t84 -197.5zM618 335q0 104 -73 175.5t-178 72.5q-104 0 -179 -72t-75 -175q0 -102 74.5 -174t178.5 -72q105 0 178.5 69t73.5 176zM583 333q0 -92 -64.5 -152t-155.5 -59q-90 1 -153 64
t-62 152q1 88 65 148.5t153 60.5q88 0 152.5 -64t64.5 -150zM545 335q0 73 -52 125t-126 52q-74 1 -127 -50.5t-53 -125.5q0 -73 52 -124t125 -51q75 -1 128 48.5t53 125.5zM510 335q0 -63 -42.5 -103t-103.5 -39q-59 0 -100 42.5t-41 101.5q1 56 46.5 99t94.5 41
q62 -3 104 -44t42 -98zM471 335q0 41 -32 72.5t-75 31.5q-44 0 -75.5 -31t-31.5 -75q0 -43 30.5 -73t73.5 -31q46 -1 78 27.5t32 78.5zM439 335q0 -33 -22.5 -53t-53.5 -19q-30 1 -50.5 22t-20.5 50q0 30 21.5 51t52.5 21q29 0 51 -23t22 -49zM401 335q0 32 -35 33
q-15 1 -26.5 -9t-12.5 -24q0 -14 11 -24t26 -10t26 10t11 24z" />
    <glyph glyph-name="P" unicode="P" horiz-adv-x="624" 
d="M523 400q0 -180 -184 -240q-58 -19 -85 -16q-1 -45 0 -144h-35l-1 459l40 1q20 0 36 -16.5t16 -36.5q0 -23 -17.5 -42t-40.5 -16v-31q37 -2 64.5 23t27.5 62q0 34 -23.5 62.5t-60.5 29.5q-26 1 -79 0v-495h-36v529h120q16 0 46 -13.5t49 -45t19 -65.5q0 -53 -36 -88
t-89 -39v-33q67 4 113.5 48t46.5 109q0 78 -56 122q-51 41 -131 41h-121h1v1l-1 -566h-32l-1 600h181q76 -2 136 -60.5t60 -134.5q0 -82 -56.5 -137.5t-139.5 -61.5q-4 -8 2 -30q101 7 165.5 68t64.5 161q0 70 -40 127t-105 85q-47 19 -133 19q-57 0 -172 -1v-635h-36v671
h239q120 0 202 -76.5t82 -194.5zM252 424v-37q28 0 26 18q-2 17 -10 19h-16z" />
    <glyph glyph-name="Q" unicode="Q" horiz-adv-x="797" 
d="M664 126l-25 -27q-90 78 -255 227q-1 9 -5 23q-9 21 -34 21q-35 0 -35 -33q0 -23 18 -33q13 -1 32 -6q80 -64 256 -229l-24 -25q-44 43 -85 81q-99 91 -165 142q-5 5 -18 5q-22 0 -35.5 20t-13.5 45q0 27 22.5 47.5t47.5 20.5q24 0 44 -14q7 -5 15.5 -21.5t10.5 -18.5
q73 -75 249 -225zM710 172q0 -3 -9 -12q-13 -12 -14 -13q-67 55 -240 220q-23 77 -107 77q-42 0 -72 -34.5t-30 -76.5q0 -45 39 -75q32 -26 51 -22l241 -214l-24 -26l-46 37q-71 -42 -152 -42q-158 0 -255 92q-100 95 -100 258q0 139 107 240t247 101q147 0 248 -99
t101 -242q0 -45 -10 -88.5l-10 -43.5q0 -3 17.5 -18t17.5 -19zM346 509q-71 0 -122 -45q-55 -48 -55 -126q0 -77 48 -126q53 -53 145 -49q-20 17 -41 34q-60 15 -91 57q-26 35 -26 83q0 57 42.5 98.5t100.5 41.5q48 0 86 -30q34 -25 44 -59q1 -4 44 -41q1 66 -57 116
q-55 46 -118 46zM343 649q-122 0 -218 -94.5t-96 -219.5q0 -132 86 -220q90 -90 231 -90q68 0 127 30q-6 6 -29 25q-7 -6 -40 -14.5t-60 -8.5q-119 0 -199.5 78t-80.5 203q0 119 82.5 198.5t199.5 79.5q111 0 193 -74.5t87 -184.5q2 -29 -9 -101l28 -23q16 52 16 105
q0 131 -91 221.5t-227 89.5zM342 581q-99 0 -172.5 -71.5t-73.5 -171.5q0 -99 68 -171q72 -77 182 -77q42 0 74 14q-6 9 -34 30q-13 -8 -40 -8q-90 0 -151 58.5t-61 153.5q0 85 61 145t149 60q78 0 137 -47.5t74 -124.5q3 -17 -1 -56q12 -12 31 -27q5 27 5 52
q0 102 -72 171.5t-176 69.5z" />
    <glyph glyph-name="R" unicode="R" horiz-adv-x="620" 
d="M538 0h-49l-121 208q118 61 118 197q0 70 -40 127t-105 85q-47 19 -102 19h-203v-636h-36v671h239q125 0 202 -70q80 -73 82 -201q1 -68 -26.5 -122t-76.5 -77q0 -2 118 -201zM450 405q0 -61 -41 -113q-38 -47 -95 -72l130 -220h-43l-133 242q62 9 104 52.5t42 107.5
q0 78 -56 122q-51 41 -131 41q-37 0 -120 -1l-1 -564h-32l-1 602h106h36q21 1 36 0q76 -1 137.5 -61t61.5 -136zM107 564h-1h1v0zM278 405q-2 17 -10 19h-16v-37q28 0 26 18zM252 278v-81q36 -69 104 -197h-36q-4 0 -66 119v-119h-35l-1 459h38q20 0 37 -16t17 -36
q0 -23 -16.5 -41t-41.5 -17v-31q37 -2 64.5 23t27.5 62q0 34 -23.5 62.5t-60.5 29.5q-26 1 -78 1l-1 -496h-36v529h120q16 0 46 -13.5t49 -45t19 -65.5q0 -53 -35.5 -87.5t-89.5 -39.5h-2z" />
    <glyph glyph-name="S" unicode="S" horiz-adv-x="551" 
d="M75 462q0 15 8 48q7 30 47 61t72 31h232v-35h-232q-37 0 -65 -33.5t-28 -71.5q0 -36 29 -63q25 -25 64 -34l61 -15q56 -3 92.5 -44.5t36.5 -97.5q0 -15 -7.5 -47t-47 -62.5t-71.5 -30.5h-253v35h253q36 0 64 37q26 34 26 73q0 37 -23 64t-61 35l-62 14q-58 4 -96.5 42.5
t-38.5 93.5zM13 -1v33h249q25 0 56 14q110 50 110 167q0 60 -34.5 106.5t-91.5 60.5l-76 19q-28 2 -52 19q-27 19 -27 44q0 23 18 45.5t43 22.5h226v-35h-226q-8 0 -16 -11.5t-8 -19.5q0 -28 43 -39l64 -10q80 -10 129 -76q44 -58 44 -131q0 -74 -55.5 -139t-128.5 -69
q-36 -2 -38 -3q8 -1 16 0q-31 2 -245 2zM434 671v-32l-246 1q-17 0 -38 -9q-51 -24 -81 -70.5t-30 -103.5q0 -59 34.5 -101.5t92.5 -61.5l87 -16q26 -2 46.5 -23t20.5 -47q0 -22 -20 -45t-41 -23h-246v35h246q8 0 16.5 12.5t8.5 20.5q0 28 -23 36q-22 4 -43 8l-48 6
q-51 6 -103.5 58.5t-58.5 102.5q-5 34 -5 43q0 -9 5 47q4 53 58.5 108t99.5 55q-10 0 90 -1h178z" />
    <glyph glyph-name="T" unicode="T" horiz-adv-x="665" 
d="M550 672l1 -36h-559v36h558zM551 600v-36l-560 1l1 35h559zM292 0h35v494h227v36h-262v-530zM362 0h34v422h158v35h-192v-457zM252 0h-35l1 494h-227v36h261v-530zM182 0h-34v422h-157v35h191v-457z" />
    <glyph glyph-name="U" unicode="U" horiz-adv-x="636" 
d="M330 259l1 412h-35v-405q-2 -17 -5 -21q-4 -8 -18 -11q-14 3 -18 11q-3 4 -4 21q0 -7 0 405h-36l1 -412q0 -24 16 -42t40 -18t41.5 18.5t16.5 41.5zM402 247l1 425h-39v-419q0 -34 -28.5 -61.5t-62.5 -27.5t-62.5 27.5t-28.5 61.5v419h-39l1 -425q0 -51 37.5 -85.5
t90.5 -34.5t91.5 34.5t38.5 85.5zM436 243v429h39v-435q0 -75 -61.5 -129t-140.5 -53q-80 -1 -141 53t-61 129v435h39v-429q0 -64 46 -106.5t116 -45.5q71 3 117.5 45.5t46.5 106.5zM547 231v440h-35v-435q0 -87 -75 -152.5t-165 -64.5q-90 -1 -164 64.5t-74 152.5v435h-35
v-440q0 -104 85 -176q81 -67 188 -67t189 67q86 72 86 176z" />
    <glyph glyph-name="V" unicode="V" horiz-adv-x="874" 
d="M-3 671l39 1l363 -612l346 612h36l-382 -693zM77 672l42 -1l278 -469l266 470h39l-305 -543zM158 672l39 -1l197 -326l186 327l38 -1l-224 -397zM239 672l43 -1l110 -184l107 184h38l-146 -255z" />
    <glyph glyph-name="W" unicode="W" horiz-adv-x="1076" 
d="M0 672h41l333 -615l108 179l110 -182l354 618h36l-389 -693l-110 182l-109 -181zM80 671h40l256 -473l102 175l112 -178l269 477h40l-309 -552l-110 187l-104 -177zM160 671h37l172 -328l112 179l109 -190l189 340h37l-223 -409l-112 183l-105 -177zM237 672h37l96 -192
l114 179l106 -181l103 194h40l-143 -268l-108 184l-110 -181z" />
    <glyph glyph-name="X" unicode="X" horiz-adv-x="901" 
d="M815 671l-243 -333l241 -338h-38l-245 338l245 333h40zM550 673l-135 -184l-132 184h42l89 -125l94 125h42zM636 672l-218 -300l-222 300h43l176 -238l182 238h39zM729 671l-244 -333l240 -338h-38l-245 338l243 333h44zM390 338l-252 -338h-42l249 340l-240 333h41z
M639 0h-43l-181 242l-190 -242h-38l228 307zM550 0h-43l-93 130l-89 -130h-47l137 187zM303 338l-260 -338h-43l254 340l-243 331h46z" />
    <glyph glyph-name="Y" unicode="Y" horiz-adv-x="911" 
d="M816 672l-286 -385v-285l-36 -2v298l279 374h43zM552 671l-143 -189l-140 190l44 -1l98 -130l94 131zM642 671l-236 -309l-222 310h38l186 -250l191 250zM726 672l-267 -360v-310l-33 -1v323l259 347zM388 2h-34v310l-263 359l43 1l254 -350v-320zM315 2h-34l1 288
l-283 382l49 -1l268 -369z" />
    <glyph glyph-name="Z" unicode="Z" horiz-adv-x="767" 
d="M702 671l-254 -422l211 -1v-34h-275l255 424h-593v33h656zM659 145h-405l257 427v0q0 -1 -2 -3h-461v34l525 1l-251 -425h337v-34zM659 107v-34h-532l252 421q9 1 -331 0l-1 38h401l-259 -422l4 -2q12 -1 103 -1q-20 0 363 0zM658 2h-661l255 423h-204l-1 36h271
l-259 -426q11 2 599 2v-35z" />
    <glyph glyph-name="bracketleft" unicode="[" horiz-adv-x="283" 
d="M183 -2l-109 -1v674h109v-29h-72v-615h72v-29zM183 -66l-181 -1l1 804h181v-31h-144v-742h143v-30z" />
    <glyph glyph-name="backslash" unicode="\" horiz-adv-x="394" 
d="M227 -3h41l-230 672h-39zM302 -3h41l-232 672h-39z" />
    <glyph glyph-name="bracketright" unicode="]" horiz-adv-x="283" 
d="M3 -2l109 -1v674h-109v-29h72v-615h-72v-29zM3 -66l181 -1l-1 804h-181v-31h144v-742h-143v-30z" />
    <glyph glyph-name="asciicircum" unicode="^" horiz-adv-x="406" 
d="M191 779l-134 -75l-18 33l152 86l153 -86l-19 -33z" />
    <glyph glyph-name="underscore" unicode="_" horiz-adv-x="582" 
d="M585 -83v-42h-585v42h585z" />
    <glyph glyph-name="grave" unicode="`" horiz-adv-x="528" 
d="M316 727l-166 93l-19 -32l166 -94z" />
    <glyph glyph-name="a" unicode="a" horiz-adv-x="861" 
d="M781 2h-39l-363 612l-345 -615l-35 1l380 695zM701 -1h-34l-285 473l-267 -473h-38l304 546zM621 -1h-35l-202 331l-185 -331h-35l220 401zM539 2l-36 -3l-116 188l-108 -188h-34l143 260z" />
    <glyph glyph-name="b" unicode="b" horiz-adv-x="706" 
d="M501 372q5 -106 -66 -171q-61 -56 -153 -65q-26 -2 -134 0v534h36v-498h98q89 17 136 69.5t45 130.5q-3 91 -66 143l12 25.5t11 45.5q-3 45 -28 84h38q6 -11 12 -23q12 -28 16 -56q3 -31 -18 -71q16 -16 28 -37q30 -48 33 -111zM574 372q-1 -131 -91 -221
q-86 -86 -203 -86h-206l-1 605h39v-569h170q101 0 179.5 81t74.5 188q-3 86 -53 150q-2 2 4 22q8 26 6 49q-2 29 -20 79h35q10 -23 21 -77q2 -35 -10 -71q56 -97 55 -150zM641 370q9 -151 -102 -263q-107 -108 -250 -108h-284v671h33l1 -635q170 -3 246 0q138 4 234 104
t89 236q-4 60 -54 150q12 38 8 73l-15 72h33q6 -20 15 -69q1 -20 -3 -41q-4 -24 -4 -25q0 -3 2 -5q16 -18 31 -64q17 -49 20 -96zM280 206h-59l-1 463h36v-161q4 -6 15 -6q32 0 51 26t19 54q0 60 -55 87q52 0 51 0q17 -12 30 -42q11 -26 12 -47q1 -29 -33 -71
q33 -18 54.5 -56t23.5 -83q3 -72 -45 -120q-43 -41 -99 -44zM336 477q-12 9 -34.5 17t-30.5 8t-15 -10v-251h26q43 0 74.5 39t32.5 88q1 68 -53 109z" />
    <glyph glyph-name="c" unicode="c" horiz-adv-x="723" 
d="M418 281q-35 -20 -56 -20q-30 0 -51 20t-21 50q-1 28 24 50q22 20 50 22q12 2 42 -13q-2 -7 -16 -26q-15 7 -24 7q-17 0 -29 -12t-12 -28q1 -36 39 -37q6 -1 15.5 4t13.5 5q5 0 25 -22zM479 236q-69 -47 -113 -46q-60 1 -103 40.5t-44 97.5q-2 60 41 103.5t104 43.5
q34 0 84 -27l-21 -28q-39 19 -63 19q-46 0 -78 -32.5t-32 -77.5q1 -44 31.5 -74.5t75.5 -31.5q34 -2 86 36zM534 192q-76 -72 -173 -73q-87 -1 -149.5 60t-63.5 149q-2 89 62.5 153.5t155.5 64.5q71 0 127 -41q-3 -6 -21 -27q-67 33 -108 32q-75 -1 -128.5 -54t-52.5 -127
q1 -72 53.5 -122t125.5 -52q78 -3 142 56zM590 150q-100 -104 -228 -102q-117 2 -200 82t-85 196q-3 119 82.5 204t205.5 86q71 1 175 -55l-23 -28q-95 49 -153 48q-105 -1 -179 -74.5t-73 -177.5q1 -102 74 -172.5t176 -72.5q61 -2 121 25q55 26 79 61q12 -7 28 -20z
M642 114q-45 -62 -117 -97q-76 -38 -166 -37q-145 2 -248 102t-106 244q-2 148 104 253t256 107q123 1 219 -70l-21 -28q-99 66 -201 64q-133 -2 -227.5 -96t-93.5 -227q1 -132 95.5 -224t225.5 -92q163 0 252 119q12 -1 28 -18z" />
    <glyph glyph-name="d" unicode="d" horiz-adv-x="669" 
d="M587 333q0 -137 -84 -233q-88 -100 -227 -100h-275v671h248q143 0 240.5 -98.5t97.5 -239.5zM553 334q0 124 -90 214t-212 90l-215 1l-1 -605h233q119 0 201.5 89t83.5 211zM514 337q0 -107 -69 -185q-72 -81 -176 -81h-200v529h180q108 0 186 -77t79 -186zM478 334
q0 96 -66 164t-163 68h-144l-1 -463h164q86 0 148 69.5t62 161.5zM441 337q-2 -79 -51 -138t-122 -60h-127v393l106 1q78 0 137 -63t57 -133zM407 334q1 67 -47 115t-114 48q-23 0 -70 -1v-320l89 -1q58 0 100 48t42 111zM372 336q0 -49 -32.5 -87.5t-76.5 -38.5h-51v248h39
q49 0 84.5 -36t36.5 -86zM336 334q0 39 -24 64.5t-64 24.5v-177q36 -6 62 22t26 66z" />
    <glyph glyph-name="e" unicode="e" horiz-adv-x="528" 
d="M430 423h-213v103h213v-34h-181v-36h181v-33zM430 563h-249v-177l249 1v-33h-284v244h284v-35zM429 637h-319l-1 -602h321l1 -34l-355 1v669l353 1v-35zM430 211h-184v-36h183v-34h-215v104h216v-34zM430 280l-250 1v-176h249v-33h-283v242h284v-34zM35 0l-33 1v671h33
v-672z" />
    <glyph glyph-name="f" unicode="f" horiz-adv-x="526" 
d="M434 354h-209v105h209v-33l-174 -1l1 -39l173 -1v-31zM434 283h-281v248h281v-35l-247 -1l1 -179h246v-33zM433 638h-391l1 -638h-40l-3 672l433 -1v-33zM433 600v-34h-319v-566h-35v600h354zM435 211h-249l-1 -211h-33v246l283 -1v-34zM432 143l-177 1l-1 -144h-34v176
h212v-33z" />
    <glyph glyph-name="g" unicode="g" horiz-adv-x="795" 
d="M635 315q0 -100 -85 -179t-195 -79q-117 0 -199 82.5t-82 199.5t73 192.5t206 87.5v-36q-121 -11 -184 -78q-60 -63 -60 -168q0 -101 71.5 -173t172.5 -72q105 0 178 70.5t69 176.5h-208v31h243v-55zM705 327q0 -145 -105.5 -242t-251.5 -95q-144 2 -246 104.5
t-100 246.5q1 147 94 242q97 98 257 98v-33q-145 -1 -233 -90q-84 -86 -85 -219q-1 -130 91.5 -223t223.5 -94q125 -1 222.5 87.5t97.5 201.5v99h-278v31h313v-114zM355 127q-88 0 -150.5 61.5t-62.5 148.5q0 89 60 150t151 61v-36q-77 0 -125 -50t-49 -123
q0 -73 51.5 -124.5t124.5 -51.5q57 0 102.5 28t57.5 74l-123 1v36l170 -1q-2 -73 -64.5 -123.5t-142.5 -50.5zM446 235q-28 -36 -93 -37q-58 0 -98.5 42t-40.5 101q2 122 139 138v-36q-46 -5 -74 -33t-29 -71t25.5 -74t68.5 -35q38 -3 102 5z" />
    <glyph glyph-name="h" unicode="h" horiz-adv-x="644" 
d="M555 0h-37v671h37v-671zM336 425l-108 1v246h35v-206h36v206h37v-247zM482 0h-35v672h35v-672zM407 358h-251v314h34l-1 -281h183l1 281h34v-314zM408 1h-34v285h-183l1 -285h-34v320h250v-320zM118 1h-36v671h36v-671zM337 1h-36v208h-39l2 -209h-36v251l109 1v-251z
M45 1h-39l1 671h38v-671z" />
    <glyph glyph-name="i" unicode="i" horiz-adv-x="348" 
d="M254 -3h-38v672h38v-672zM182 -2l-35 -1v672h35v-671zM111 -3h-37v672h37v-672zM40 -3h-38l1 672h37v-672z" />
    <glyph glyph-name="j" unicode="j" horiz-adv-x="350" 
d="M262 215q0 -93 -92 -164q-85 -65 -168 -56v38q81 -4 151.5 53t70.5 126v460h38v-457zM188 234q0 -69 -64 -122q-59 -48 -122 -50v35q54 0 101.5 46t47.5 97l-1 432h39zM41 246q0 -25 -41 -31l5 33v424h35zM116 236q0 -34 -41.5 -68.5t-74.5 -36.5q1 -2 2 35q33 7 54 29
t21 48v429h38z" />
    <glyph glyph-name="k" unicode="k" horiz-adv-x="721" 
d="M645 672l-122 -346l122 -326l-33 1l-127 326l127 345h33zM450 326l125 -325h-36l-131 329l131 342h36zM501 672l-133 -342l134 -329h-39l-136 332l135 339h39zM287 330l138 -329h-39l-127 307l-1 -6v-301h-37v671l37 -1v-321l126 322h42zM185 1h-34l1 669h33v-669zM114 1
h-37v669h36zM38 1h-37v669h37v-669z" />
    <glyph glyph-name="l" unicode="l" horiz-adv-x="490" 
d="M397 213h-178v459h33l1 -423h145zM397 176v-34h-247v530h34l-2 -495zM397 107v-36h-317v601h30v-565h287zM397 41v-40h-389v671h33l1 -631h355z" />
    <glyph glyph-name="m" unicode="m" horiz-adv-x="1045" 
d="M989 0h-40l-334 610l-108 -179l-110 183l-354 -614h-36l389 689l110 -183l109 182zM909 1h-40l-255 468l-103 -175l-112 179l-269 -473h-40l309 548l110 -187l105 177zM829 0l-36 1l-173 323l-112 -179l-109 191l-189 -336h-37l223 404l112 -182l106 177zM752 0h-37
l-96 188l-114 -179l-106 180l-103 -189h-40l143 264l108 -185l110 181z" />
    <glyph glyph-name="n" unicode="n" horiz-adv-x="712" 
d="M613 -31l-354 250l-1 -221h-34v290l353 -249v632l36 -1v-701zM541 103l-351 250l-2 -355h-34v428l352 -248v493l35 -1v-567zM472 247l-353 254l-2 -503h-34v568l354 -252v357l35 -1v-423zM402 384l-361 255v-638l-34 -1l1 707l358 -253v217l36 -1v-286z" />
    <glyph glyph-name="o" unicode="o" horiz-adv-x="830" 
d="M724 333q0 -152 -106 -252q-103 -96 -252 -96q-148 0 -253 102.5t-105 248.5t106 248t253 101t252 -104t105 -248zM689 336q0 127 -94 219t-224 95q-134 2 -231 -88.5t-99 -221.5q-1 -132 94.5 -226t228.5 -94q136 0 228 87q97 90 97 229zM653 333q0 -118 -84 -199
t-202 -81q-120 0 -205 83.5t-84 201.5q1 117 86.5 199t204.5 81q116 -2 200 -87.5t84 -197.5zM618 335q0 104 -73 175.5t-178 72.5q-104 0 -179 -72t-75 -175q0 -102 74.5 -174t178.5 -72q105 0 178.5 69t73.5 176zM583 333q0 -92 -64.5 -152t-155.5 -59q-90 1 -153 64
t-62 152q1 88 65 148.5t153 60.5q88 0 152.5 -64t64.5 -150zM545 335q0 73 -52 125t-126 52q-74 1 -127 -50.5t-53 -125.5q0 -73 52 -124t125 -51q75 -1 128 48.5t53 125.5zM510 335q0 -63 -42.5 -103t-103.5 -39q-59 0 -100 42.5t-41 101.5q1 56 46.5 99t94.5 41
q62 -3 104 -44t42 -98zM471 335q0 41 -32 72.5t-75 31.5q-44 0 -75.5 -31t-31.5 -75q0 -43 30.5 -73t73.5 -31q46 -1 78 27.5t32 78.5zM439 335q0 -33 -22.5 -53t-53.5 -19q-30 1 -50.5 22t-20.5 50q0 30 21.5 51t52.5 21q29 0 51 -23t22 -49zM401 335q0 32 -35 33
q-15 1 -26.5 -9t-12.5 -24q0 -14 11 -24t26 -10t26 10t11 24z" />
    <glyph glyph-name="p" unicode="p" horiz-adv-x="624" 
d="M523 400q0 -180 -184 -240q-58 -19 -85 -16q-1 -45 0 -144h-35l-1 459l40 1q20 0 36 -16.5t16 -36.5q0 -23 -17.5 -42t-40.5 -16v-31q37 -2 64.5 23t27.5 62q0 34 -23.5 62.5t-60.5 29.5q-26 1 -79 0v-495h-36v529h120q16 0 46 -13.5t49 -45t19 -65.5q0 -53 -36 -88
t-89 -39v-33q67 4 113.5 48t46.5 109q0 78 -56 122q-51 41 -131 41h-121h1v1l-1 -566h-32l-1 600h181q76 -2 136 -60.5t60 -134.5q0 -82 -56.5 -137.5t-139.5 -61.5q-4 -8 2 -30q101 7 165.5 68t64.5 161q0 70 -40 127t-105 85q-47 19 -133 19q-57 0 -172 -1v-635h-36v671
h239q120 0 202 -76.5t82 -194.5zM252 424v-37q28 0 26 18q-2 17 -10 19h-16z" />
    <glyph glyph-name="q" unicode="q" horiz-adv-x="797" 
d="M664 126l-25 -27q-90 78 -255 227q-1 9 -5 23q-9 21 -34 21q-35 0 -35 -33q0 -23 18 -33q13 -1 32 -6q80 -64 256 -229l-24 -25q-44 43 -85 81q-99 91 -165 142q-5 5 -18 5q-22 0 -35.5 20t-13.5 45q0 27 22.5 47.5t47.5 20.5q24 0 44 -14q7 -5 15.5 -21.5t10.5 -18.5
q73 -75 249 -225zM710 172q0 -3 -9 -12q-13 -12 -14 -13q-67 55 -240 220q-23 77 -107 77q-42 0 -72 -34.5t-30 -76.5q0 -45 39 -75q32 -26 51 -22l241 -214l-24 -26l-46 37q-71 -42 -152 -42q-158 0 -255 92q-100 95 -100 258q0 139 107 240t247 101q147 0 248 -99
t101 -242q0 -45 -10 -88.5l-10 -43.5q0 -3 17.5 -18t17.5 -19zM346 509q-71 0 -122 -45q-55 -48 -55 -126q0 -77 48 -126q53 -53 145 -49q-20 17 -41 34q-60 15 -91 57q-26 35 -26 83q0 57 42.5 98.5t100.5 41.5q48 0 86 -30q34 -25 44 -59q1 -4 44 -41q1 66 -57 116
q-55 46 -118 46zM343 649q-122 0 -218 -94.5t-96 -219.5q0 -132 86 -220q90 -90 231 -90q68 0 127 30q-6 6 -29 25q-7 -6 -40 -14.5t-60 -8.5q-119 0 -199.5 78t-80.5 203q0 119 82.5 198.5t199.5 79.5q111 0 193 -74.5t87 -184.5q2 -29 -9 -101l28 -23q16 52 16 105
q0 131 -91 221.5t-227 89.5zM342 581q-99 0 -172.5 -71.5t-73.5 -171.5q0 -99 68 -171q72 -77 182 -77q42 0 74 14q-6 9 -34 30q-13 -8 -40 -8q-90 0 -151 58.5t-61 153.5q0 85 61 145t149 60q78 0 137 -47.5t74 -124.5q3 -17 -1 -56q12 -12 31 -27q5 27 5 52
q0 102 -72 171.5t-176 69.5z" />
    <glyph glyph-name="r" unicode="r" horiz-adv-x="620" 
d="M538 0h-49l-121 208q118 61 118 197q0 70 -40 127t-105 85q-47 19 -102 19h-203v-636h-36v671h239q125 0 202 -70q80 -73 82 -201q1 -68 -26.5 -122t-76.5 -77q0 -2 118 -201zM450 405q0 -61 -41 -113q-38 -47 -95 -72l130 -220h-43l-133 242q62 9 104 52.5t42 107.5
q0 78 -56 122q-51 41 -131 41q-37 0 -120 -1l-1 -564h-32l-1 602h106h36q21 1 36 0q76 -1 137.5 -61t61.5 -136zM107 564h-1h1v0zM278 405q-2 17 -10 19h-16v-37q28 0 26 18zM252 278v-81q36 -69 104 -197h-36q-4 0 -66 119v-119h-35l-1 459h38q20 0 37 -16t17 -36
q0 -23 -16.5 -41t-41.5 -17v-31q37 -2 64.5 23t27.5 62q0 34 -23.5 62.5t-60.5 29.5q-26 1 -78 1l-1 -496h-36v529h120q16 0 46 -13.5t49 -45t19 -65.5q0 -53 -35.5 -87.5t-89.5 -39.5h-2z" />
    <glyph glyph-name="s" unicode="s" horiz-adv-x="551" 
d="M68 462q0 15 8 48q7 30 47 61t72 31h232v-35h-232q-37 0 -65 -33.5t-28 -71.5q0 -36 27 -62t66 -35l61 -15q56 -3 92.5 -44.5t36.5 -97.5q0 -15 -7.5 -47t-47.5 -62.5t-71 -30.5h-253v35h253q36 0 64 37q26 34 26 73q0 37 -23 64t-61 35l-62 14q-58 4 -96.5 42.5
t-38.5 93.5zM6 -1v33h249q24 0 56 14q110 50 110 167q0 60 -34.5 106.5t-91.5 60.5l-76 19q-29 2 -52 19q-27 19 -27 44q0 23 18 45.5t43 22.5h226v-35h-226q-8 0 -16 -11.5t-8 -19.5q0 -28 43 -39q32 -5 63 -10q81 -10 130 -76q44 -58 44 -131q0 -74 -55.5 -139t-128.5 -69
q-36 -2 -38 -3q8 -1 16 0q-31 2 -245 2zM427 671v-32l-246 1q-17 0 -38 -9q-51 -24 -81 -70.5t-30 -103.5q0 -59 34.5 -101.5t92.5 -61.5l87 -16q26 -2 46.5 -23t20.5 -47q0 -22 -20 -45t-41 -23h-246v35h246q8 0 16.5 12.5t8.5 20.5q0 28 -23 36q-22 4 -43 8l-48 6
q-51 6 -103.5 58.5t-58.5 102.5q-5 34 -5 43q0 -9 5 47q4 53 58.5 108t99.5 55q-10 0 90 -1h178z" />
    <glyph glyph-name="t" unicode="t" horiz-adv-x="665" 
d="M557 672l1 -36h-559v36h558zM558 600v-36l-560 1l1 35h559zM299 0h35v494h227v36h-262v-530zM369 0h34v422h158v35h-192v-457zM260 0h-36l1 494h-227v36h262v-530zM189 0h-34v422h-157v35h191v-457z" />
    <glyph glyph-name="u" unicode="u" horiz-adv-x="608" 
d="M323 259l1 412h-35l-1 -405q-1 -17 -4 -21q-4 -8 -18 -11q-14 3 -18 11q-3 4 -4 21q0 -7 0 405h-36l1 -412q-1 -24 15.5 -42t40.5 -18t41.5 18.5t16.5 41.5zM395 247l1 425h-39v-419q0 -34 -28.5 -61.5t-62.5 -27.5t-62.5 27.5t-28.5 61.5v419h-39l1 -425
q0 -51 37.5 -85.5t90.5 -34.5t91.5 34.5t38.5 85.5zM429 243v429h39v-435q0 -75 -61.5 -129t-140.5 -53q-80 -1 -141 53t-61 129v435h39v-429q0 -64 46 -106.5t116 -45.5q71 3 117.5 45.5t46.5 106.5zM540 231v440h-35v-435q0 -87 -75 -152.5t-165 -64.5q-90 -1 -164 64.5
t-74 152.5v435h-35v-440q0 -104 85 -176q81 -67 188 -67t189 67q86 72 86 176z" />
    <glyph glyph-name="v" unicode="v" horiz-adv-x="874" 
d="M4 671l39 1l363 -612l346 612h36l-382 -693zM84 672l42 -1l278 -469l266 470h39l-305 -543zM165 672l39 -1l197 -326l186 327l38 -1l-224 -397zM246 672l43 -1l110 -184l107 184h38l-146 -255z" />
    <glyph glyph-name="w" unicode="w" horiz-adv-x="1055" 
d="M7 672h41l333 -615l108 179l110 -182l354 618h36l-389 -693l-110 182l-109 -181zM87 671h40l256 -473l103 175l111 -178l269 477h40l-309 -552l-110 187l-104 -177zM167 671h37l172 -328l112 179l109 -190l189 340h37l-223 -409l-112 183l-105 -177zM244 672h37l96 -192
l114 179l106 -181l103 194h40l-143 -268l-108 184l-110 -181z" />
    <glyph glyph-name="x" unicode="x" horiz-adv-x="901" 
d="M815 671l-243 -333l241 -338h-38l-245 338l245 333h40zM550 673l-135 -184l-132 184h42l89 -125l94 125h42zM636 672l-218 -300l-222 300h43l176 -238l182 238h39zM729 671l-244 -333l240 -338h-38l-245 338l243 333h44zM390 338l-252 -338h-42l249 340l-240 333h41z
M639 0h-43l-181 242l-190 -242h-38l228 307zM550 0h-43l-93 130l-89 -130h-47l137 187zM303 338l-260 -338h-43l254 340l-243 331h46z" />
    <glyph glyph-name="y" unicode="y" horiz-adv-x="911" 
d="M823 672l-286 -385v-285l-35 -2v298l278 374h43zM559 671l-143 -189l-140 190l44 -1l98 -130l94 131zM649 671l-236 -309l-222 310h38l186 -250l191 250zM733 672l-267 -360v-310l-33 -1v323l259 347zM395 2h-34v310l-263 359l43 1l254 -350v-320zM323 2h-35l1 288
l-283 382l49 -1l268 -369v-300z" />
    <glyph glyph-name="z" unicode="z" horiz-adv-x="767" 
d="M702 671l-254 -422l211 -1v-34h-275l255 424h-593v33h656zM659 145h-405l257 427v0q0 -1 -2 -3h-461v34l525 1l-251 -425h337v-34zM659 107v-34h-532l252 421q9 1 -331 0l-1 38h401l-259 -422l4 -2q12 -1 103 -1q-20 0 363 0zM658 2h-661l255 423h-204l-1 36h271
l-259 -426q11 2 599 2v-35z" />
    <glyph glyph-name="braceleft" unicode="{" horiz-adv-x="460" 
d="M358 -2l-109 -1v674h109v-29h-72v-615h72v-29zM217 333q0 -33 -21.5 -52.5t-54.5 -19.5q-29 0 -50 21.5t-21 50.5q0 30 22 51t52 21q28 0 50.5 -22t22.5 -50zM185 333q0 16 -11.5 27.5t-27.5 11.5t-27.5 -11.5t-11.5 -27.5t11.5 -27.5t27.5 -11.5t27.5 11.5t11.5 27.5z
M358 -66l-181 -1l2 262q-19 -4 -37 -4q-59 0 -100 42.5t-41 101.5q0 51 43 95.5t94 44.5q12 0 39 -5v267h182v-31h-144l-1 -295q-28 26 -72 26t-75.5 -31t-31.5 -75q0 -42 31 -73t73 -31q48 0 77 26l-1 -289h143v-30z" />
    <glyph glyph-name="bar" unicode="|" horiz-adv-x="351" 
d="M181 -3h-37v672h37v-672zM110 -3h-38l1 672h37v-672z" />
    <glyph glyph-name="braceright" unicode="}" horiz-adv-x="460" 
d="M2 -2l109 -1v674h-109v-29h72v-615h-72v-29zM143 333q0 -33 22 -52.5t55 -19.5q28 0 49 21.5t21 50.5q0 30 -22 51t-52 21q-28 0 -50.5 -22t-22.5 -50zM175 333q0 16 12 27.5t27 11.5q16 0 27.5 -11.5t11.5 -27.5t-11.5 -27.5t-27.5 -11.5q-15 0 -27 11.5t-12 27.5z
M2 -66l181 -1l-2 262q19 -4 37 -4q59 0 100 42.5t41 101.5q0 51 -42.5 95.5t-93.5 44.5q-13 0 -40 -5v267h-182v-31h144l1 -295q28 26 72 26t75.5 -31t31.5 -75q0 -42 -31 -73t-73 -31q-48 0 -77 26l1 -289h-143v-30z" />
    <glyph glyph-name="asciitilde" unicode="~" horiz-adv-x="483" 
d="M54 721q-5 26 26.5 56.5t60.5 30.5q44 0 70 -17q15 -15 31.5 -29.5t42.5 -10.5q22 3 42.5 21.5t18.5 27.5l40 1q1 -35 -36.5 -65.5t-78.5 -30.5q-38 0 -61 28q-26 31 -67 31q-21 0 -33.5 -14.5t-10.5 -25.5z" />
    <glyph glyph-name="Adieresis" unicode="&#xc4;" horiz-adv-x="861" 
d="M781 2h-39l-363 612l-345 -615l-35 1l380 695zM701 -1h-34l-285 473l-267 -473h-38l304 546zM621 -1h-35l-202 331l-185 -331h-35l220 401zM539 2l-36 -3l-116 188l-108 -188h-34l143 260zM412 756q0 15 13 26t32 11q18 0 31.5 -11t13.5 -26q0 -16 -13.5 -27t-31.5 -11
q-19 0 -32 11t-13 27zM252 756q0 15 13 26t32 11q18 0 31.5 -11t13.5 -26q0 -16 -13.5 -27t-31.5 -11q-19 0 -32 11t-13 27z" />
    <glyph glyph-name="Aring" unicode="&#xc5;" horiz-adv-x="861" 
d="M781 2h-39l-363 612l-345 -615l-35 1l380 695zM701 -1h-34l-285 473l-267 -473h-38l304 546zM621 -1h-35l-202 331l-185 -331h-35l220 401zM539 2l-36 -3l-116 188l-108 -188h-34l143 260zM459 795q0 -33 -22.5 -53t-53.5 -19q-30 1 -50.5 22t-20.5 50q0 30 21.5 51
t52.5 21q29 0 51 -23t22 -49zM421 795q0 32 -35 33q-15 1 -26.5 -9t-12.5 -24q0 -14 11 -24t26 -10t26 10t11 24z" />
    <glyph glyph-name="Ccedilla" unicode="&#xc7;" horiz-adv-x="723" 
d="M418 281q-35 -20 -56 -20q-30 0 -51 20t-21 50q-1 28 24 50q22 20 50 22q12 2 42 -13q-2 -7 -16 -26q-15 7 -24 7q-17 0 -29 -12t-12 -28q1 -36 39 -37q6 -1 15.5 4t13.5 5q5 0 25 -22zM479 236q-69 -47 -113 -46q-60 1 -103 40.5t-44 97.5q-2 60 41 103.5t104 43.5
q34 0 84 -27l-21 -28q-39 19 -63 19q-46 0 -78 -32.5t-32 -77.5q1 -44 31.5 -74.5t75.5 -31.5q34 -2 86 36zM534 192q-76 -72 -173 -73q-87 -1 -149.5 60t-63.5 149q-2 89 62.5 153.5t155.5 64.5q71 0 127 -41q-3 -6 -21 -27q-67 33 -108 32q-75 -1 -128.5 -54t-52.5 -127
q1 -72 53.5 -122t125.5 -52q78 -3 142 56zM590 150q-100 -104 -228 -102q-117 2 -200 82t-85 196q-3 119 82.5 204t205.5 86q71 1 175 -55l-23 -28q-95 49 -153 48q-105 -1 -179 -74.5t-73 -177.5q1 -102 74 -172.5t176 -72.5q61 -2 121 25q55 26 79 61q12 -7 28 -20z
M356 -20v-28q32 2 55.5 -18t24.5 -57q-8 -72 -103 -72q-22 0 -42 4l8 35q17 -4 35 -4q60 0 66 42q-4 35 -38 35q-9 0 -19 -2l-22 -7v75q-132 15 -222.5 112t-93.5 231q-2 148 104 253t256 107q123 1 219 -70l-21 -28q-99 66 -201 64q-133 -2 -227.5 -96t-93.5 -227
q1 -132 95.5 -224t225.5 -92q163 0 252 119q12 -1 28 -18q-45 -62 -117 -97q-77 -38 -166 -37h-3z" />
    <glyph glyph-name="Eacute" unicode="&#xc9;" horiz-adv-x="528" 
d="M430 423h-213v103h213v-34h-181v-36h181v-33zM430 563h-249v-177l249 1v-33h-284v244h284v-35zM429 637h-319l-1 -602h321l1 -34l-355 1v669l353 1v-35zM430 211h-184v-36h183v-34h-215v104h216v-34zM430 280l-250 1v-176h249v-33h-283v242h284v-34zM35 0l-33 1v671h33
v-672zM131 727l166 93l19 -32l-166 -94z" />
    <glyph glyph-name="Ntilde" unicode="&#xd1;" horiz-adv-x="712" 
d="M613 -31l-354 250l-1 -221h-34v290l353 -249v632l36 -1v-701zM541 103l-351 250l-2 -355h-34v428l352 -248v493l35 -1v-567zM472 247l-353 254l-2 -503h-34v568l354 -252v357l35 -1v-423zM402 384l-361 255v-638l-34 -1l1 707l358 -253v217l36 -1v-286zM134 721
q-5 26 26.5 56.5t60.5 30.5q44 0 70 -17q15 -15 31.5 -29.5t42.5 -10.5q22 3 42.5 21.5t18.5 27.5l40 1q1 -35 -36.5 -65.5t-78.5 -30.5q-38 0 -61 28q-26 31 -67 31q-21 0 -33.5 -14.5t-10.5 -25.5z" />
    <glyph glyph-name="Odieresis" unicode="&#xd6;" horiz-adv-x="830" 
d="M724 333q0 -152 -106 -252q-103 -96 -252 -96q-148 0 -253 102.5t-105 248.5t106 248t253 101t252 -104t105 -248zM689 336q0 127 -94 219t-224 95q-134 2 -231 -88.5t-99 -221.5q-1 -132 94.5 -226t228.5 -94q136 0 228 87q97 90 97 229zM653 333q0 -118 -84 -199
t-202 -81q-120 0 -205 83.5t-84 201.5q1 117 86.5 199t204.5 81q116 -2 200 -87.5t84 -197.5zM618 335q0 104 -73 175.5t-178 72.5q-104 0 -179 -72t-75 -175q0 -102 74.5 -174t178.5 -72q105 0 178.5 69t73.5 176zM583 333q0 -92 -64.5 -152t-155.5 -59q-90 1 -153 64
t-62 152q1 88 65 148.5t153 60.5q88 0 152.5 -64t64.5 -150zM545 335q0 73 -52 125t-126 52q-74 1 -127 -50.5t-53 -125.5q0 -73 52 -124t125 -51q75 -1 128 48.5t53 125.5zM510 335q0 -63 -42.5 -103t-103.5 -39q-59 0 -100 42.5t-41 101.5q1 56 46.5 99t94.5 41
q62 -3 104 -44t42 -98zM471 335q0 41 -32 72.5t-75 31.5q-44 0 -75.5 -31t-31.5 -75q0 -43 30.5 -73t73.5 -31q46 -1 78 27.5t32 78.5zM439 335q0 -33 -22.5 -53t-53.5 -19q-30 1 -50.5 22t-20.5 50q0 30 21.5 51t52.5 21q29 0 51 -23t22 -49zM401 335q0 32 -35 33
q-15 1 -26.5 -9t-12.5 -24q0 -14 11 -24t26 -10t26 10t11 24zM412 756q0 15 13 26t32 11q18 0 31.5 -11t13.5 -26q0 -16 -13.5 -27t-31.5 -11q-19 0 -32 11t-13 27zM252 756q0 15 13 26t32 11q18 0 31.5 -11t13.5 -26q0 -16 -13.5 -27t-31.5 -11q-19 0 -32 11t-13 27z" />
    <glyph glyph-name="Udieresis" unicode="&#xdc;" horiz-adv-x="636" 
d="M330 259l1 412h-35v-405q-2 -17 -5 -21q-4 -8 -18 -11q-14 3 -18 11q-3 4 -4 21q0 -7 0 405h-36l1 -412q0 -24 16 -42t40 -18t41.5 18.5t16.5 41.5zM402 247l1 425h-39v-419q0 -34 -28.5 -61.5t-62.5 -27.5t-62.5 27.5t-28.5 61.5v419h-39l1 -425q0 -51 37.5 -85.5
t90.5 -34.5t91.5 34.5t38.5 85.5zM436 243v429h39v-435q0 -75 -61.5 -129t-140.5 -53q-80 -1 -141 53t-61 129v435h39v-429q0 -64 46 -106.5t116 -45.5q71 3 117.5 45.5t46.5 106.5zM547 231v440h-35v-435q0 -87 -75 -152.5t-165 -64.5q-90 -1 -164 64.5t-74 152.5v435h-35
v-440q0 -104 85 -176q81 -67 188 -67t189 67q86 72 86 176zM312 756q0 15 13 26t32 11q18 0 31.5 -11t13.5 -26q0 -16 -13.5 -27t-31.5 -11q-19 0 -32 11t-13 27zM152 756q0 15 13 26t32 11q18 0 31.5 -11t13.5 -26q0 -16 -13.5 -27t-31.5 -11q-19 0 -32 11t-13 27z" />
    <glyph glyph-name="aacute" unicode="&#xe1;" horiz-adv-x="861" 
d="M781 2h-39l-363 612l-345 -615l-35 1l380 695zM701 -1h-34l-285 473l-267 -473h-38l304 546zM621 -1h-35l-202 331l-185 -331h-35l220 401zM539 2l-36 -3l-116 188l-108 -188h-34l143 260zM271 727l166 93l19 -32l-166 -94z" />
    <glyph glyph-name="agrave" unicode="&#xe0;" horiz-adv-x="861" 
d="M781 2h-39l-363 612l-345 -615l-35 1l380 695zM701 -1h-34l-285 473l-267 -473h-38l304 546zM621 -1h-35l-202 331l-185 -331h-35l220 401zM539 2l-36 -3l-116 188l-108 -188h-34l143 260zM486 727l-166 93l-19 -32l166 -94z" />
    <glyph glyph-name="acircumflex" unicode="&#xe2;" horiz-adv-x="861" 
d="M781 2h-39l-363 612l-345 -615l-35 1l380 695zM701 -1h-34l-285 473l-267 -473h-38l304 546zM621 -1h-35l-202 331l-185 -331h-35l220 401zM539 2l-36 -3l-116 188l-108 -188h-34l143 260zM371 769l-134 -75l-18 33l152 86l153 -86l-19 -33z" />
    <glyph glyph-name="adieresis" unicode="&#xe4;" horiz-adv-x="861" 
d="M781 2h-39l-363 612l-345 -615l-35 1l380 695zM701 -1h-34l-285 473l-267 -473h-38l304 546zM621 -1h-35l-202 331l-185 -331h-35l220 401zM539 2l-36 -3l-116 188l-108 -188h-34l143 260zM412 756q0 15 13 26t32 11q18 0 31.5 -11t13.5 -26q0 -16 -13.5 -27t-31.5 -11
q-19 0 -32 11t-13 27zM252 756q0 15 13 26t32 11q18 0 31.5 -11t13.5 -26q0 -16 -13.5 -27t-31.5 -11q-19 0 -32 11t-13 27z" />
    <glyph glyph-name="atilde" unicode="&#xe3;" horiz-adv-x="861" 
d="M781 2h-39l-363 612l-345 -615l-35 1l380 695zM701 -1h-34l-285 473l-267 -473h-38l304 546zM621 -1h-35l-202 331l-185 -331h-35l220 401zM539 2l-36 -3l-116 188l-108 -188h-34l143 260zM224 721q-5 26 26.5 56.5t60.5 30.5q44 0 70 -17q15 -15 31.5 -29.5t42.5 -10.5
q22 3 42.5 21.5t18.5 27.5l40 1q1 -35 -36.5 -65.5t-78.5 -30.5q-38 0 -61 28q-26 31 -67 31q-21 0 -33.5 -14.5t-10.5 -25.5z" />
    <glyph glyph-name="aring" unicode="&#xe5;" horiz-adv-x="861" 
d="M781 2h-39l-363 612l-345 -615l-35 1l380 695zM701 -1h-34l-285 473l-267 -473h-38l304 546zM621 -1h-35l-202 331l-185 -331h-35l220 401zM539 2l-36 -3l-116 188l-108 -188h-34l143 260zM459 795q0 -33 -22.5 -53t-53.5 -19q-30 1 -50.5 22t-20.5 50q0 30 21.5 51
t52.5 21q29 0 51 -23t22 -49zM421 795q0 32 -35 33q-15 1 -26.5 -9t-12.5 -24q0 -14 11 -24t26 -10t26 10t11 24z" />
    <glyph glyph-name="ccedilla" unicode="&#xe7;" horiz-adv-x="723" 
d="M418 281q-35 -20 -56 -20q-30 0 -51 20t-21 50q-1 28 24 50q22 20 50 22q12 2 42 -13q-2 -7 -16 -26q-15 7 -24 7q-17 0 -29 -12t-12 -28q1 -36 39 -37q6 -1 15.5 4t13.5 5q5 0 25 -22zM479 236q-69 -47 -113 -46q-60 1 -103 40.5t-44 97.5q-2 60 41 103.5t104 43.5
q34 0 84 -27l-21 -28q-39 19 -63 19q-46 0 -78 -32.5t-32 -77.5q1 -44 31.5 -74.5t75.5 -31.5q34 -2 86 36zM534 192q-76 -72 -173 -73q-87 -1 -149.5 60t-63.5 149q-2 89 62.5 153.5t155.5 64.5q71 0 127 -41q-3 -6 -21 -27q-67 33 -108 32q-75 -1 -128.5 -54t-52.5 -127
q1 -72 53.5 -122t125.5 -52q78 -3 142 56zM590 150q-100 -104 -228 -102q-117 2 -200 82t-85 196q-3 119 82.5 204t205.5 86q71 1 175 -55l-23 -28q-95 49 -153 48q-105 -1 -179 -74.5t-73 -177.5q1 -102 74 -172.5t176 -72.5q61 -2 121 25q55 26 79 61q12 -7 28 -20z
M356 -20v-28q32 2 55.5 -18t24.5 -57q-8 -72 -103 -72q-22 0 -42 4l8 35q17 -4 35 -4q60 0 66 42q-4 35 -38 35q-9 0 -19 -2l-22 -7v75q-132 15 -222.5 112t-93.5 231q-2 148 104 253t256 107q123 1 219 -70l-21 -28q-99 66 -201 64q-133 -2 -227.5 -96t-93.5 -227
q1 -132 95.5 -224t225.5 -92q163 0 252 119q12 -1 28 -18q-45 -62 -117 -97q-77 -38 -166 -37h-3z" />
    <glyph glyph-name="eacute" unicode="&#xe9;" horiz-adv-x="528" 
d="M430 423h-213v103h213v-34h-181v-36h181v-33zM430 563h-249v-177l249 1v-33h-284v244h284v-35zM429 637h-319l-1 -602h321l1 -34l-355 1v669l353 1v-35zM430 211h-184v-36h183v-34h-215v104h216v-34zM430 280l-250 1v-176h249v-33h-283v242h284v-34zM35 0l-33 1v671h33
v-672zM131 727l166 93l19 -32l-166 -94z" />
    <glyph glyph-name="egrave" unicode="&#xe8;" horiz-adv-x="528" 
d="M430 423h-213v103h213v-34h-181v-36h181v-33zM430 563h-249v-177l249 1v-33h-284v244h284v-35zM429 637h-319l-1 -602h321l1 -34l-355 1v669l353 1v-35zM430 211h-184v-36h183v-34h-215v104h216v-34zM430 280l-250 1v-176h249v-33h-283v242h284v-34zM35 0l-33 1v671h33
v-672zM306 727l-166 93l-19 -32l166 -94z" />
    <glyph glyph-name="ecircumflex" unicode="&#xea;" horiz-adv-x="528" 
d="M430 423h-213v103h213v-34h-181v-36h181v-33zM430 563h-249v-177l249 1v-33h-284v244h284v-35zM429 637h-319l-1 -602h321l1 -34l-355 1v669l353 1v-35zM430 211h-184v-36h183v-34h-215v104h216v-34zM430 280l-250 1v-176h249v-33h-283v242h284v-34zM35 0l-33 1v671h33
v-672zM211 779l-134 -75l-18 33l152 86l153 -86l-19 -33z" />
    <glyph glyph-name="edieresis" unicode="&#xeb;" horiz-adv-x="528" 
d="M430 423h-213v103h213v-34h-181v-36h181v-33zM430 563h-249v-177l249 1v-33h-284v244h284v-35zM429 637h-319l-1 -602h321l1 -34l-355 1v669l353 1v-35zM430 211h-184v-36h183v-34h-215v104h216v-34zM430 280l-250 1v-176h249v-33h-283v242h284v-34zM35 0l-33 1v671h33
v-672zM252 756q0 15 13 26t32 11q18 0 31.5 -11t13.5 -26q0 -16 -13.5 -27t-31.5 -11q-19 0 -32 11t-13 27zM92 756q0 15 13 26t32 11q18 0 31.5 -11t13.5 -26q0 -16 -13.5 -27t-31.5 -11q-19 0 -32 11t-13 27z" />
    <glyph glyph-name="iacute" unicode="&#xed;" horiz-adv-x="348" 
d="M254 -3h-38v672h38v-672zM182 -2l-35 -1v672h35v-671zM111 -3h-37v672h37v-672zM40 -3h-38l1 672h37v-672zM41 727l166 93l19 -32l-166 -94z" />
    <glyph glyph-name="igrave" unicode="&#xec;" horiz-adv-x="348" 
d="M254 -3h-38v672h38v-672zM182 -2l-35 -1v672h35v-671zM111 -3h-37v672h37v-672zM40 -3h-38l1 672h37v-672zM216 727l-166 93l-19 -32l166 -94z" />
    <glyph glyph-name="icircumflex" unicode="&#xee;" horiz-adv-x="348" 
d="M254 -3h-38v672h38v-672zM182 -2l-35 -1v672h35v-671zM111 -3h-37v672h37v-672zM40 -3h-38l1 672h37v-672zM130 779l-134 -75l-18 33l152 86l153 -86l-19 -33z" />
    <glyph glyph-name="idieresis" unicode="&#xef;" horiz-adv-x="348" 
d="M254 -3h-38v672h38v-672zM182 -2l-35 -1v672h35v-671zM111 -3h-37v672h37v-672zM40 -3h-38l1 672h37v-672zM162 756q0 15 13 26t32 11q18 0 31.5 -11t13.5 -26q0 -16 -13.5 -27t-31.5 -11q-19 0 -32 11t-13 27zM2 756q0 15 13 26t32 11q18 0 31.5 -11t13.5 -26
q0 -16 -13.5 -27t-31.5 -11q-19 0 -32 11t-13 27z" />
    <glyph glyph-name="ntilde" unicode="&#xf1;" horiz-adv-x="712" 
d="M613 -31l-354 250l-1 -221h-34v290l353 -249v632l36 -1v-701zM541 103l-351 250l-2 -355h-34v428l352 -248v493l35 -1v-567zM472 247l-353 254l-2 -503h-34v568l354 -252v357l35 -1v-423zM402 384l-361 255v-638l-34 -1l1 707l358 -253v217l36 -1v-286zM134 721
q-5 26 26.5 56.5t60.5 30.5q44 0 70 -17q15 -15 31.5 -29.5t42.5 -10.5q22 3 42.5 21.5t18.5 27.5l40 1q1 -35 -36.5 -65.5t-78.5 -30.5q-38 0 -61 28q-26 31 -67 31q-21 0 -33.5 -14.5t-10.5 -25.5z" />
    <glyph glyph-name="oacute" unicode="&#xf3;" horiz-adv-x="830" 
d="M724 333q0 -152 -106 -252q-103 -96 -252 -96q-148 0 -253 102.5t-105 248.5t106 248t253 101t252 -104t105 -248zM689 336q0 127 -94 219t-224 95q-134 2 -231 -88.5t-99 -221.5q-1 -132 94.5 -226t228.5 -94q136 0 228 87q97 90 97 229zM653 333q0 -118 -84 -199
t-202 -81q-120 0 -205 83.5t-84 201.5q1 117 86.5 199t204.5 81q116 -2 200 -87.5t84 -197.5zM618 335q0 104 -73 175.5t-178 72.5q-104 0 -179 -72t-75 -175q0 -102 74.5 -174t178.5 -72q105 0 178.5 69t73.5 176zM583 333q0 -92 -64.5 -152t-155.5 -59q-90 1 -153 64
t-62 152q1 88 65 148.5t153 60.5q88 0 152.5 -64t64.5 -150zM545 335q0 73 -52 125t-126 52q-74 1 -127 -50.5t-53 -125.5q0 -73 52 -124t125 -51q75 -1 128 48.5t53 125.5zM510 335q0 -63 -42.5 -103t-103.5 -39q-59 0 -100 42.5t-41 101.5q1 56 46.5 99t94.5 41
q62 -3 104 -44t42 -98zM471 335q0 41 -32 72.5t-75 31.5q-44 0 -75.5 -31t-31.5 -75q0 -43 30.5 -73t73.5 -31q46 -1 78 27.5t32 78.5zM439 335q0 -33 -22.5 -53t-53.5 -19q-30 1 -50.5 22t-20.5 50q0 30 21.5 51t52.5 21q29 0 51 -23t22 -49zM401 335q0 32 -35 33
q-15 1 -26.5 -9t-12.5 -24q0 -14 11 -24t26 -10t26 10t11 24zM261 727l166 93l19 -32l-166 -94z" />
    <glyph glyph-name="ograve" unicode="&#xf2;" horiz-adv-x="830" 
d="M724 333q0 -152 -106 -252q-103 -96 -252 -96q-148 0 -253 102.5t-105 248.5t106 248t253 101t252 -104t105 -248zM689 336q0 127 -94 219t-224 95q-134 2 -231 -88.5t-99 -221.5q-1 -132 94.5 -226t228.5 -94q136 0 228 87q97 90 97 229zM653 333q0 -118 -84 -199
t-202 -81q-120 0 -205 83.5t-84 201.5q1 117 86.5 199t204.5 81q116 -2 200 -87.5t84 -197.5zM618 335q0 104 -73 175.5t-178 72.5q-104 0 -179 -72t-75 -175q0 -102 74.5 -174t178.5 -72q105 0 178.5 69t73.5 176zM583 333q0 -92 -64.5 -152t-155.5 -59q-90 1 -153 64
t-62 152q1 88 65 148.5t153 60.5q88 0 152.5 -64t64.5 -150zM545 335q0 73 -52 125t-126 52q-74 1 -127 -50.5t-53 -125.5q0 -73 52 -124t125 -51q75 -1 128 48.5t53 125.5zM510 335q0 -63 -42.5 -103t-103.5 -39q-59 0 -100 42.5t-41 101.5q1 56 46.5 99t94.5 41
q62 -3 104 -44t42 -98zM471 335q0 41 -32 72.5t-75 31.5q-44 0 -75.5 -31t-31.5 -75q0 -43 30.5 -73t73.5 -31q46 -1 78 27.5t32 78.5zM439 335q0 -33 -22.5 -53t-53.5 -19q-30 1 -50.5 22t-20.5 50q0 30 21.5 51t52.5 21q29 0 51 -23t22 -49zM401 335q0 32 -35 33
q-15 1 -26.5 -9t-12.5 -24q0 -14 11 -24t26 -10t26 10t11 24zM476 727l-166 93l-19 -32l166 -94z" />
    <glyph glyph-name="ocircumflex" unicode="&#xf4;" horiz-adv-x="830" 
d="M724 333q0 -152 -106 -252q-103 -96 -252 -96q-148 0 -253 102.5t-105 248.5t106 248t253 101t252 -104t105 -248zM689 336q0 127 -94 219t-224 95q-134 2 -231 -88.5t-99 -221.5q-1 -132 94.5 -226t228.5 -94q136 0 228 87q97 90 97 229zM653 333q0 -118 -84 -199
t-202 -81q-120 0 -205 83.5t-84 201.5q1 117 86.5 199t204.5 81q116 -2 200 -87.5t84 -197.5zM618 335q0 104 -73 175.5t-178 72.5q-104 0 -179 -72t-75 -175q0 -102 74.5 -174t178.5 -72q105 0 178.5 69t73.5 176zM583 333q0 -92 -64.5 -152t-155.5 -59q-90 1 -153 64
t-62 152q1 88 65 148.5t153 60.5q88 0 152.5 -64t64.5 -150zM545 335q0 73 -52 125t-126 52q-74 1 -127 -50.5t-53 -125.5q0 -73 52 -124t125 -51q75 -1 128 48.5t53 125.5zM510 335q0 -63 -42.5 -103t-103.5 -39q-59 0 -100 42.5t-41 101.5q1 56 46.5 99t94.5 41
q62 -3 104 -44t42 -98zM471 335q0 41 -32 72.5t-75 31.5q-44 0 -75.5 -31t-31.5 -75q0 -43 30.5 -73t73.5 -31q46 -1 78 27.5t32 78.5zM439 335q0 -33 -22.5 -53t-53.5 -19q-30 1 -50.5 22t-20.5 50q0 30 21.5 51t52.5 21q29 0 51 -23t22 -49zM401 335q0 32 -35 33
q-15 1 -26.5 -9t-12.5 -24q0 -14 11 -24t26 -10t26 10t11 24zM356 769l-134 -75l-18 33l152 86l153 -86l-19 -33z" />
    <glyph glyph-name="odieresis" unicode="&#xf6;" horiz-adv-x="830" 
d="M724 333q0 -152 -106 -252q-103 -96 -252 -96q-148 0 -253 102.5t-105 248.5t106 248t253 101t252 -104t105 -248zM689 336q0 127 -94 219t-224 95q-134 2 -231 -88.5t-99 -221.5q-1 -132 94.5 -226t228.5 -94q136 0 228 87q97 90 97 229zM653 333q0 -118 -84 -199
t-202 -81q-120 0 -205 83.5t-84 201.5q1 117 86.5 199t204.5 81q116 -2 200 -87.5t84 -197.5zM618 335q0 104 -73 175.5t-178 72.5q-104 0 -179 -72t-75 -175q0 -102 74.5 -174t178.5 -72q105 0 178.5 69t73.5 176zM583 333q0 -92 -64.5 -152t-155.5 -59q-90 1 -153 64
t-62 152q1 88 65 148.5t153 60.5q88 0 152.5 -64t64.5 -150zM545 335q0 73 -52 125t-126 52q-74 1 -127 -50.5t-53 -125.5q0 -73 52 -124t125 -51q75 -1 128 48.5t53 125.5zM510 335q0 -63 -42.5 -103t-103.5 -39q-59 0 -100 42.5t-41 101.5q1 56 46.5 99t94.5 41
q62 -3 104 -44t42 -98zM471 335q0 41 -32 72.5t-75 31.5q-44 0 -75.5 -31t-31.5 -75q0 -43 30.5 -73t73.5 -31q46 -1 78 27.5t32 78.5zM439 335q0 -33 -22.5 -53t-53.5 -19q-30 1 -50.5 22t-20.5 50q0 30 21.5 51t52.5 21q29 0 51 -23t22 -49zM401 335q0 32 -35 33
q-15 1 -26.5 -9t-12.5 -24q0 -14 11 -24t26 -10t26 10t11 24zM412 756q0 15 13 26t32 11q18 0 31.5 -11t13.5 -26q0 -16 -13.5 -27t-31.5 -11q-19 0 -32 11t-13 27zM252 756q0 15 13 26t32 11q18 0 31.5 -11t13.5 -26q0 -16 -13.5 -27t-31.5 -11q-19 0 -32 11t-13 27z" />
    <glyph glyph-name="otilde" unicode="&#xf5;" horiz-adv-x="830" 
d="M724 333q0 -152 -106 -252q-103 -96 -252 -96q-148 0 -253 102.5t-105 248.5t106 248t253 101t252 -104t105 -248zM689 336q0 127 -94 219t-224 95q-134 2 -231 -88.5t-99 -221.5q-1 -132 94.5 -226t228.5 -94q136 0 228 87q97 90 97 229zM653 333q0 -118 -84 -199
t-202 -81q-120 0 -205 83.5t-84 201.5q1 117 86.5 199t204.5 81q116 -2 200 -87.5t84 -197.5zM618 335q0 104 -73 175.5t-178 72.5q-104 0 -179 -72t-75 -175q0 -102 74.5 -174t178.5 -72q105 0 178.5 69t73.5 176zM583 333q0 -92 -64.5 -152t-155.5 -59q-90 1 -153 64
t-62 152q1 88 65 148.5t153 60.5q88 0 152.5 -64t64.5 -150zM545 335q0 73 -52 125t-126 52q-74 1 -127 -50.5t-53 -125.5q0 -73 52 -124t125 -51q75 -1 128 48.5t53 125.5zM510 335q0 -63 -42.5 -103t-103.5 -39q-59 0 -100 42.5t-41 101.5q1 56 46.5 99t94.5 41
q62 -3 104 -44t42 -98zM471 335q0 41 -32 72.5t-75 31.5q-44 0 -75.5 -31t-31.5 -75q0 -43 30.5 -73t73.5 -31q46 -1 78 27.5t32 78.5zM439 335q0 -33 -22.5 -53t-53.5 -19q-30 1 -50.5 22t-20.5 50q0 30 21.5 51t52.5 21q29 0 51 -23t22 -49zM401 335q0 32 -35 33
q-15 1 -26.5 -9t-12.5 -24q0 -14 11 -24t26 -10t26 10t11 24zM204 721q-5 26 26.5 56.5t60.5 30.5q44 0 70 -17q15 -15 31.5 -29.5t42.5 -10.5q22 3 42.5 21.5t18.5 27.5l40 1q1 -35 -36.5 -65.5t-78.5 -30.5q-38 0 -61 28q-26 31 -67 31q-21 0 -33.5 -14.5t-10.5 -25.5z
" />
    <glyph glyph-name="uacute" unicode="&#xfa;" horiz-adv-x="636" 
d="M330 259l1 412h-35v-405q-2 -17 -5 -21q-4 -8 -18 -11q-14 3 -18 11q-3 4 -4 21q0 -7 0 405h-36l1 -412q0 -24 16 -42t40 -18t41.5 18.5t16.5 41.5zM402 247l1 425h-39v-419q0 -34 -28.5 -61.5t-62.5 -27.5t-62.5 27.5t-28.5 61.5v419h-39l1 -425q0 -51 37.5 -85.5
t90.5 -34.5t91.5 34.5t38.5 85.5zM436 243v429h39v-435q0 -75 -61.5 -129t-140.5 -53q-80 -1 -141 53t-61 129v435h39v-429q0 -64 46 -106.5t116 -45.5q71 3 117.5 45.5t46.5 106.5zM547 231v440h-35v-435q0 -87 -75 -152.5t-165 -64.5q-90 -1 -164 64.5t-74 152.5v435h-35
v-440q0 -104 85 -176q81 -67 188 -67t189 67q86 72 86 176zM171 727l166 93l19 -32l-166 -94z" />
    <glyph glyph-name="ugrave" unicode="&#xf9;" horiz-adv-x="636" 
d="M330 259l1 412h-35v-405q-2 -17 -5 -21q-4 -8 -18 -11q-14 3 -18 11q-3 4 -4 21q0 -7 0 405h-36l1 -412q0 -24 16 -42t40 -18t41.5 18.5t16.5 41.5zM402 247l1 425h-39v-419q0 -34 -28.5 -61.5t-62.5 -27.5t-62.5 27.5t-28.5 61.5v419h-39l1 -425q0 -51 37.5 -85.5
t90.5 -34.5t91.5 34.5t38.5 85.5zM436 243v429h39v-435q0 -75 -61.5 -129t-140.5 -53q-80 -1 -141 53t-61 129v435h39v-429q0 -64 46 -106.5t116 -45.5q71 3 117.5 45.5t46.5 106.5zM547 231v440h-35v-435q0 -87 -75 -152.5t-165 -64.5q-90 -1 -164 64.5t-74 152.5v435h-35
v-440q0 -104 85 -176q81 -67 188 -67t189 67q86 72 86 176zM366 727l-166 93l-19 -32l166 -94z" />
    <glyph glyph-name="ucircumflex" unicode="&#xfb;" horiz-adv-x="636" 
d="M330 259l1 412h-35v-405q-2 -17 -5 -21q-4 -8 -18 -11q-14 3 -18 11q-3 4 -4 21q0 -7 0 405h-36l1 -412q0 -24 16 -42t40 -18t41.5 18.5t16.5 41.5zM402 247l1 425h-39v-419q0 -34 -28.5 -61.5t-62.5 -27.5t-62.5 27.5t-28.5 61.5v419h-39l1 -425q0 -51 37.5 -85.5
t90.5 -34.5t91.5 34.5t38.5 85.5zM436 243v429h39v-435q0 -75 -61.5 -129t-140.5 -53q-80 -1 -141 53t-61 129v435h39v-429q0 -64 46 -106.5t116 -45.5q71 3 117.5 45.5t46.5 106.5zM547 231v440h-35v-435q0 -87 -75 -152.5t-165 -64.5q-90 -1 -164 64.5t-74 152.5v435h-35
v-440q0 -104 85 -176q81 -67 188 -67t189 67q86 72 86 176zM271 779l-134 -75l-18 33l152 86l153 -86l-19 -33z" />
    <glyph glyph-name="udieresis" unicode="&#xfc;" horiz-adv-x="636" 
d="M330 259l1 412h-35v-405q-2 -17 -5 -21q-4 -8 -18 -11q-14 3 -18 11q-3 4 -4 21q0 -7 0 405h-36l1 -412q0 -24 16 -42t40 -18t41.5 18.5t16.5 41.5zM402 247l1 425h-39v-419q0 -34 -28.5 -61.5t-62.5 -27.5t-62.5 27.5t-28.5 61.5v419h-39l1 -425q0 -51 37.5 -85.5
t90.5 -34.5t91.5 34.5t38.5 85.5zM436 243v429h39v-435q0 -75 -61.5 -129t-140.5 -53q-80 -1 -141 53t-61 129v435h39v-429q0 -64 46 -106.5t116 -45.5q71 3 117.5 45.5t46.5 106.5zM547 231v440h-35v-435q0 -87 -75 -152.5t-165 -64.5q-90 -1 -164 64.5t-74 152.5v435h-35
v-440q0 -104 85 -176q81 -67 188 -67t189 67q86 72 86 176zM312 756q0 15 13 26t32 11q18 0 31.5 -11t13.5 -26q0 -16 -13.5 -27t-31.5 -11q-19 0 -32 11t-13 27zM152 756q0 15 13 26t32 11q18 0 31.5 -11t13.5 -26q0 -16 -13.5 -27t-31.5 -11q-19 0 -32 11t-13 27z" />
    <glyph glyph-name="dagger" unicode="&#x2020;" horiz-adv-x="0" 
 />
    <glyph glyph-name="degree" unicode="&#xb0;" horiz-adv-x="363" 
d="M284 542q0 -62 -42 -102t-104 -40q-59 0 -100 42.5t-41 101.5q0 51 43 95.5t94 44.5q60 0 105 -41t45 -101zM246 542q0 42 -33 73t-75 31q-44 0 -75.5 -31t-31.5 -75q0 -42 31 -73t73 -31q49 0 80 28.5t31 77.5z" />
    <glyph glyph-name="cent" unicode="&#xa2;" horiz-adv-x="419" 
d="M278 301q-35 -20 -56 -20q-30 0 -51 20t-21 50q-1 28 24 50q22 20 50 22q12 2 42 -13q-2 -7 -16 -26q-15 7 -24 7q-17 0 -29 -12t-12 -28q1 -36 39 -37q6 -1 15.5 4t13.5 5q5 0 25 -22zM339 256q-69 -47 -113 -46q-60 1 -103 40.5t-44 97.5q-2 60 41 103.5t104 43.5
q34 0 84 -27l-21 -28q-39 19 -63 19q-46 0 -78 -32.5t-32 -77.5q1 -44 31.5 -74.5t75.5 -31.5q34 -2 86 36zM200 71h-28v73q-70 16 -116.5 72.5t-47.5 131.5q-2 75 45 133.5t119 77.5v59h28v-54q13 2 26 2h4v52h29v-54q48 -6 94 -39q-3 -6 -21 -27q-67 33 -108 32
q-75 -1 -128.5 -54t-52.5 -127q1 -72 53.5 -122t125.5 -52q78 -3 142 56l30 -19q-61 -58 -135 -70v-71h-29v68h-9q-11 0 -21 1v-69z" />
    <glyph glyph-name="sterling" unicode="&#xa3;" horiz-adv-x="517" 
d="M456 176v-34h-247l-1 353q0 101 73 176h46q-29 -23 -53 -66q-31 -54 -31 -109l-1 -319zM376 371v-28h-65l1 -94h144v-36h-177l-1 157zM278 499q0 44 30 97t67 75h51q-50 -37 -69 -59q-46 -51 -46 -113v-68h65v-28h-98v96zM457 107l-1 -36l-319 3v425q0 102 59 172h39
q-65 -77 -65 -175v-389h287zM163 671q-30 -25 -47 -81q-14 -46 -14 -85v-106l-100 1l1 28h65v77q0 101 55 166h40zM456 41v-40h-388v337h-65v28h99v-325h354z" />
    <glyph glyph-name="section" unicode="&#xa7;" horiz-adv-x="0" 
 />
    <glyph glyph-name="bullet" unicode="&#x2022;" horiz-adv-x="363" 
d="M284 342q0 -62 -42 -102t-104 -40q-59 0 -100 42.5t-41 101.5q0 51 43 95.5t94 44.5q60 0 105 -41t45 -101zM246 342q0 42 -33 73t-75 31q-44 0 -75.5 -31t-31.5 -75q0 -42 31 -73t73 -31q49 0 80 28.5t31 77.5zM213 342q0 -33 -21.5 -52.5t-54.5 -19.5q-29 0 -50 21.5
t-21 50.5q0 30 22 51t52 21q28 0 50.5 -22t22.5 -50zM181 342q0 16 -11.5 27.5t-27.5 11.5t-27.5 -11.5t-11.5 -27.5t11.5 -27.5t27.5 -11.5t27.5 11.5t11.5 27.5z" />
    <glyph glyph-name="paragraph" unicode="&#xb6;" horiz-adv-x="0" 
 />
    <glyph glyph-name="germandbls" unicode="&#xdf;" horiz-adv-x="0" 
 />
    <glyph glyph-name="registered" unicode="&#xae;" horiz-adv-x="425" 
d="M260 422h-45l-49 75h-15v-75h-38v178h74q11 4 32 -2q36 -11 36 -46q0 -45 -44 -54zM218 557q0 11 -30 11h-39v-29h44q25 0 25 18zM182 324q-74 0 -126 53.5t-52 128.5q0 74 52 126.5t126 52.5t125.5 -53t51.5 -128q0 -74 -51.5 -127t-125.5 -53zM182 645q-59 1 -99 -40
t-40 -101q0 -58 41.5 -99.5t97.5 -41.5t97 41.5t41 99.5q0 59 -41 99.5t-97 41.5z" />
    <glyph glyph-name="copyright" unicode="&#xa9;" horiz-adv-x="814" 
d="M366 -11q-145 0 -246 101.5t-101 247.5t101 248t246 102t246.5 -102t101.5 -248q0 -145 -101.5 -247t-246.5 -102zM366 635q-120 0 -207.5 -86.5t-87.5 -210.5q0 -123 87.5 -209.5t207.5 -86.5t207.5 86.5t87.5 209.5q0 124 -87.5 210.5t-207.5 86.5zM484 407
q-26 81 -108 81q-65 0 -102.5 -42.5t-37.5 -106.5q0 -59 33 -100q38 -47 105 -47q86 0 111 79h53q-36 -132 -163 -132q-88 0 -140 57t-52 145q0 85 53.5 143t139.5 58q58 0 103 -35t60 -100h-55z" />
    <glyph glyph-name="trademark" unicode="&#x2122;" horiz-adv-x="492" 
d="M377 607l-56 -140h-27l-52 134v-134h-43v211h58l51 -129l52 129h59v-211h-42v140zM103 634v-167h-43v167h-66v44h173v-44h-64z" />
    <glyph glyph-name="acute" unicode="&#xb4;" horiz-adv-x="528" 
d="M131 727l166 93l19 -32l-166 -94z" />
    <glyph glyph-name="dieresis" unicode="&#xa8;" horiz-adv-x="435" 
d="M252 756q0 15 13 26t32 11q18 0 31.5 -11t13.5 -26q0 -16 -13.5 -27t-31.5 -11q-19 0 -32 11t-13 27zM98 756q0 37 39 37q18 0 31.5 -11t13.5 -26q0 -16 -13.5 -27t-31.5 -11q-39 0 -39 38z" />
    <glyph glyph-name="AE" unicode="&#xc6;" horiz-adv-x="907" 
d="M807 423h-213v103h213v-34h-181v-36h181v-33zM807 563h-249v-177l249 1v-33h-284v244h284v-35zM806 637h-319l-1 -602h321l1 -34l-355 1v669h353v-34zM807 211h-184v-36h183v-34h-215v104h216v-34zM807 280l-250 1v-176h249v-33h-283v242h284v-34zM412 0h-33v156
l-93 -156l-41 -1l134 226v76l-180 -302h-35l215 372v77l-264 -449h-38l302 522v73l-345 -595l-35 1l381 672h32v-672z" />
    <glyph glyph-name="Oslash" unicode="&#xd8;" horiz-adv-x="830" 
d="M111 89l-74 -76l-21 19l76 78q-85 98 -84 226q0 146 106 248t253 101q122 -1 219 -75l79 77l19 -21l-76 -74q12 -11 23 -23l75 76l20 -21l-76 -77q74 -95 74 -214q0 -152 -106 -252q-103 -96 -252 -96q-115 0 -209 66l-76 -80l-20 20l73 77q-12 10 -23 21zM689 336
q0 127 -94 219t-224 95q-134 2 -231 -88.5t-99 -221.5q-1 -132 94.5 -226t228.5 -94q136 0 228 87q97 90 97 229zM653 333q0 -118 -84 -199t-202 -81q-120 0 -205 83.5t-84 201.5q1 117 86.5 199t204.5 81q116 -2 200 -87.5t84 -197.5zM618 335q0 104 -73 175.5t-178 72.5
q-104 0 -179 -72t-75 -175q0 -102 74.5 -174t178.5 -72q105 0 178.5 69t73.5 176zM583 333q0 -92 -64.5 -152t-155.5 -59q-90 1 -153 64t-62 152q1 88 65 148.5t153 60.5q88 0 152.5 -64t64.5 -150zM545 335q0 73 -52 125t-126 52q-74 1 -127 -50.5t-53 -125.5
q0 -73 52 -124t125 -51q75 -1 128 48.5t53 125.5zM510 335q0 -63 -42.5 -103t-103.5 -39q-59 0 -100 42.5t-41 101.5q1 56 46.5 99t94.5 41q62 -3 104 -44t42 -98zM471 335q0 41 -32 72.5t-75 31.5q-44 0 -75.5 -31t-31.5 -75q0 -43 30.5 -73t73.5 -31q46 -1 78 27.5
t32 78.5zM439 335q0 -33 -22.5 -53t-53.5 -19q-30 1 -50.5 22t-20.5 50q0 30 21.5 51t52.5 21q29 0 51 -23t22 -49zM401 335q0 32 -35 33q-15 1 -26.5 -9t-12.5 -24q0 -14 11 -24t26 -10t26 10t11 24z" />
    <glyph glyph-name="plusminus" unicode="&#xb1;" horiz-adv-x="0" 
 />
    <glyph glyph-name="yen" unicode="&#xa5;" horiz-adv-x="911" 
d="M552 671l-143 -189l-140 190l44 -1l98 -130l94 131zM642 671l-236 -309l-222 310h38l186 -250l191 250zM726 672l-267 -360v-310l-33 -1v323l259 347zM388 0h-34v312l-263 359l43 1l254 -350v-322zM493 298l280 374h43l-286 -385v-30h67v-37h-104v78zM213 257h69v33
l-283 382l49 -1l269 -369v-40.5v-41.5v0v0h-104v37zM493 182v0v0h104v-37h-69l1 -145h-36v182zM317 182v0v0h-104v-37h69v-145h35v182z" />
    <glyph glyph-name="uni00B5" unicode="&#xb5;" horiz-adv-x="545" 
d="M447 213h-178v459h33v-231l104 83v-60l-104 -84l1 -131h145zM447 176v-34h-247v530h34l-2 -495zM447 107v-35h-317v600h30v-565h287zM-1 211l59 49v412h37l1 -631h351v-40h-389v199l-59 -49v60z" />
    <glyph glyph-name="uni00B5" unicode="&#x3bc;" horiz-adv-x="545" 
d="M447 213h-178v459h33v-231l104 83v-60l-104 -84l1 -131h145zM447 176v-34h-247v530h34l-2 -495zM447 107v-35h-317v600h30v-565h287zM-1 211l59 49v412h37l1 -631h351v-40h-389v199l-59 -49v60z" />
    <glyph glyph-name="ordfeminine" unicode="&#xaa;" horiz-adv-x="767" 
d="M702 671l-254 -422l211 -1v-34h-275l255 424h-593v33h656zM659 145h-405l257 427v0q0 -1 -2 -3h-461v34l525 1l-251 -425h337v-34zM659 107v-34h-532l252 421q9 1 -331 0l-1 38h401l-259 -422l4 -2q12 -1 103 -1q-20 0 363 0zM658 2h-661l255 423h-204l-1 36h271
l-259 -426q11 2 599 2v-35zM355 754l134 75l18 -32l-152 -87l-153 87l19 32z" />
    <glyph glyph-name="ordmasculine" unicode="&#xba;" horiz-adv-x="767" 
d="M702 671l-254 -422l211 -1v-34h-275l255 424h-593v33h656zM659 145h-405l257 427v0q0 -1 -2 -3h-461v34l525 1l-251 -425h337v-34zM659 107v-34h-532l252 421q9 1 -331 0l-1 38h401l-259 -422l4 -2q12 -1 103 -1q-20 0 363 0zM658 2h-661l255 423h-204l-1 36h271
l-259 -426q11 2 599 2v-35zM355 754l134 75l18 -32l-152 -87l-153 87l19 32z" />
    <glyph glyph-name="ae" unicode="&#xe6;" horiz-adv-x="907" 
d="M807 423h-213v103h213v-34h-181v-36h181v-33zM807 563h-249v-177l249 1v-33h-284v244h284v-35zM806 637h-319l-1 -602h321l1 -34l-355 1v669h353v-34zM807 211h-184v-36h183v-34h-215v104h216v-34zM807 280l-250 1v-176h249v-33h-283v242h284v-34zM412 0h-33v156
l-93 -156l-41 -1l134 226v76l-180 -302h-35l215 372v77l-264 -449h-38l302 522v73l-345 -595l-35 1l381 672h32v-672z" />
    <glyph glyph-name="oslash" unicode="&#xf8;" horiz-adv-x="830" 
d="M111 89l-74 -76l-21 19l76 78q-85 98 -84 226q0 146 106 248t253 101q122 -1 219 -75l79 77l19 -21l-76 -74q12 -11 23 -23l75 76l20 -21l-76 -77q74 -95 74 -214q0 -152 -106 -252q-103 -96 -252 -96q-115 0 -209 66l-76 -80l-20 20l73 77q-12 10 -23 21zM689 336
q0 127 -94 219t-224 95q-134 2 -231 -88.5t-99 -221.5q-1 -132 94.5 -226t228.5 -94q136 0 228 87q97 90 97 229zM653 333q0 -118 -84 -199t-202 -81q-120 0 -205 83.5t-84 201.5q1 117 86.5 199t204.5 81q116 -2 200 -87.5t84 -197.5zM618 335q0 104 -73 175.5t-178 72.5
q-104 0 -179 -72t-75 -175q0 -102 74.5 -174t178.5 -72q105 0 178.5 69t73.5 176zM583 333q0 -92 -64.5 -152t-155.5 -59q-90 1 -153 64t-62 152q1 88 65 148.5t153 60.5q88 0 152.5 -64t64.5 -150zM545 335q0 73 -52 125t-126 52q-74 1 -127 -50.5t-53 -125.5
q0 -73 52 -124t125 -51q75 -1 128 48.5t53 125.5zM510 335q0 -63 -42.5 -103t-103.5 -39q-59 0 -100 42.5t-41 101.5q1 56 46.5 99t94.5 41q62 -3 104 -44t42 -98zM471 335q0 41 -32 72.5t-75 31.5q-44 0 -75.5 -31t-31.5 -75q0 -43 30.5 -73t73.5 -31q46 -1 78 27.5
t32 78.5zM439 335q0 -33 -22.5 -53t-53.5 -19q-30 1 -50.5 22t-20.5 50q0 30 21.5 51t52.5 21q29 0 51 -23t22 -49zM401 335q0 32 -35 33q-15 1 -26.5 -9t-12.5 -24q0 -14 11 -24t26 -10t26 10t11 24z" />
    <glyph glyph-name="questiondown" unicode="&#xbf;" horiz-adv-x="519" 
d="M187 295q-73 -17 -73 -98q0 -38 28 -71t65 -33h232v-36h-232q-32 0 -72 31t-47.5 63t-7.5 46q0 56 26 88q19 23 59 37q31 10 63 19q53 21 53 94h36q0 -72 -36 -103q-24 -22 -94 -37zM208 267q-25 -1 -40.5 -21.5t-15.5 -48.5q0 -23 17 -44q19 -24 44 -24h226v35h-226
q-8 0 -16 11.5t-8 19.5q0 29 18 39q6 3 38 10q80 24 116 86q26 46 24 103l-35 2q-1 -67 -29 -104q-33 -44 -113 -64zM207 375l-49 -14q-114 -36 -114 -159q0 -56 30 -103t81 -70q21 -10 38 -10l246 1v-34h-268q-65 0 -118 74q-50 69 -50 137q0 162 155 197q36 8 41 11
q15 8 12 30h34q4 -16 -6 -34q-11 -21 -32 -26zM192 567q0 -41 32.5 -72.5t75.5 -31.5q44 0 76 31t31 75q0 43 -30 73t-73 31q-47 1 -79.5 -27.5t-32.5 -78.5zM225 567q0 33 22.5 53.5t54.5 18.5q29 -1 49.5 -21.5t20.5 -50.5t-21.5 -51t-51.5 -21t-52 23t-22 49zM258 567
q0 -16 11.5 -27.5t27.5 -11.5t27.5 11.5t11.5 27.5t-11.5 27.5t-27.5 11.5t-27.5 -11.5t-11.5 -27.5z" />
    <glyph glyph-name="exclamdown" unicode="&#xa1;" horiz-adv-x="364" 
d="M17 351h38v-361h-38v361zM89 351h35v-361h-35v361zM160 351h37v-361h-37v361zM231 351h38l-1 -362l-37 1v361zM-3 527q0 63 42.5 103t103.5 39q59 0 100 -42.5t41 -101.5q-1 -56 -46.5 -99.5t-94.5 -40.5q-62 3 -104 43.5t-42 98.5zM35 527q0 -41 32 -72.5t76 -31.5
t75.5 31t31.5 74t-30.5 73t-73.5 31q-46 2 -78.5 -27t-32.5 -78zM68 527q0 32 22.5 52.5t53.5 19.5q20 -1 44 -41t25 -40q2 0 2 9t-2 9q-1 0 -26 -40.5t-46 -40.5q-29 0 -51 22.5t-22 49.5zM100 527q0 -16 11.5 -27.5t27.5 -11.5t27.5 11.5t11.5 27.5t-11.5 27.5t-27.5 11.5
t-27.5 -11.5t-11.5 -27.5z" />
    <glyph glyph-name="logicalnot" unicode="&#xac;" horiz-adv-x="0" 
 />
    <glyph glyph-name="florin" unicode="&#x192;" horiz-adv-x="767" 
d="M640 150q-100 -104 -228 -102q-117 2 -200 82t-85 196q-3 119 82.5 204t205.5 86q71 1 175 -55l-23 -28q-95 49 -153 48q-105 -1 -179 -74.5t-73 -177.5q1 -102 74 -172.5t176 -72.5q61 -2 121 25q55 26 79 61q12 -7 28 -20zM251 410h176v-42h-186q-3 -9 -4 -25
q-1 -18 4 -23h186v-42h-182q20 -51 65 -85q47 -37 102 -38q78 -3 142 56l30 -19q-76 -72 -173 -73q-87 -1 -149.5 60t-63.5 149q-2 89 62.5 153.5t155.5 64.5q71 0 127 -41q-3 -6 -21 -27q-67 33 -108 32q-52 -1 -96 -28.5t-67 -71.5zM1 410h63q27 118 126 196t225 80
q123 1 219 -70l-21 -28q-99 66 -201 64q-133 -2 -227.5 -96t-93.5 -227q1 -132 95.5 -224t225.5 -92q163 0 252 119q12 -1 28 -18q-45 -62 -117 -97q-76 -38 -166 -37q-128 1 -226.5 87t-121.5 211h-60v42h55q-2 32 0 49l-55 -1v42z" />
    <glyph glyph-name="guillemotleft" unicode="&#xab;" horiz-adv-x="353" 
d="M253 540l-101 -188l104 -190l-37 -20l-112 209l112 206zM143 540l-101 -188l104 -190l-37 -20l-112 209l112 206z" />
    <glyph glyph-name="guillemotright" unicode="&#xbb;" horiz-adv-x="353" 
d="M0 159l101 188l-104 190l37 20l112 -209l-112 -206zM110 159l101 188l-104 190l37 20l112 -209l-112 -206z" />
    <glyph glyph-name="ellipsis" unicode="&#x2026;" horiz-adv-x="1286" 
d="M814 132q0 -62 -42 -102t-104 -40q-59 0 -100 42.5t-41 101.5q0 51 42.5 95t94.5 44q60 0 105 -40.5t45 -100.5zM776 132q0 44 -32.5 76t-80.5 31q-44 -1 -73 -32.5t-29 -76.5q0 -42 31 -73t73 -31q49 0 80 28.5t31 77.5zM743 132q0 -33 -21.5 -52.5t-54.5 -19.5
q-29 0 -50 21.5t-21 50.5q0 30 22 51t52 21q28 0 50.5 -22t22.5 -50zM711 132q0 16 -11.5 27.5t-27.5 11.5t-27.5 -11.5t-11.5 -27.5t11.5 -27.5t27.5 -11.5t27.5 11.5t11.5 27.5zM1214 132q0 -62 -42 -102t-104 -40q-59 0 -100 42.5t-41 101.5q0 51 42.5 95t94.5 44
q60 0 105 -40.5t45 -100.5zM1176 132q0 44 -31.5 74.5t-79.5 29.5q-44 0 -74 -31t-30 -75q0 -42 31 -73t73 -31q49 0 80 28.5t31 77.5zM1143 132q0 -33 -21.5 -52.5t-54.5 -19.5q-29 0 -50 21.5t-21 50.5q0 30 22 51t52 21q28 0 50.5 -22t22.5 -50zM1111 132
q0 16 -11.5 27.5t-27.5 11.5t-27.5 -11.5t-11.5 -27.5t11.5 -27.5t27.5 -11.5t27.5 11.5t11.5 27.5zM414 132q0 -62 -42 -102t-104 -40q-59 0 -100 42.5t-41 101.5q0 51 42.5 95t94.5 44q60 0 105 -40.5t45 -100.5zM376 132q0 44 -31 76t-79 31q-44 -1 -74.5 -32.5
t-30.5 -76.5q0 -42 31 -73t73 -31q49 0 80 28.5t31 77.5zM343 132q0 -33 -21.5 -52.5t-54.5 -19.5q-29 0 -50 21.5t-21 50.5q0 30 22 51t52 21q28 0 50.5 -22t22.5 -50zM311 132q0 16 -11.5 27.5t-27.5 11.5t-27.5 -11.5t-11.5 -27.5t11.5 -27.5t27.5 -11.5t27.5 11.5
t11.5 27.5z" />
    <glyph glyph-name="uni00A0" unicode="&#xa0;" horiz-adv-x="196" 
 />
    <glyph glyph-name="Agrave" unicode="&#xc0;" horiz-adv-x="861" 
d="M781 2h-39l-363 612l-345 -615l-35 1l380 695zM701 -1h-34l-285 473l-267 -473h-38l304 546zM621 -1h-35l-202 331l-185 -331h-35l220 401zM539 2l-36 -3l-116 188l-108 -188h-34l143 260zM486 727l-166 93l-19 -32l166 -94z" />
    <glyph glyph-name="Atilde" unicode="&#xc3;" horiz-adv-x="861" 
d="M781 2h-39l-363 612l-345 -615l-35 1l380 695zM701 -1h-34l-285 473l-267 -473h-38l304 546zM621 -1h-35l-202 331l-185 -331h-35l220 401zM539 2l-36 -3l-116 188l-108 -188h-34l143 260zM224 721q-5 26 26.5 56.5t60.5 30.5q44 0 70 -17q15 -15 31.5 -29.5t42.5 -10.5
q22 3 42.5 21.5t18.5 27.5l40 1q1 -35 -36.5 -65.5t-78.5 -30.5q-38 0 -61 28q-26 31 -67 31q-21 0 -33.5 -14.5t-10.5 -25.5z" />
    <glyph glyph-name="Otilde" unicode="&#xd5;" horiz-adv-x="830" 
d="M724 333q0 -152 -106 -252q-103 -96 -252 -96q-148 0 -253 102.5t-105 248.5t106 248t253 101t252 -104t105 -248zM689 336q0 127 -94 219t-224 95q-134 2 -231 -88.5t-99 -221.5q-1 -132 94.5 -226t228.5 -94q136 0 228 87q97 90 97 229zM653 333q0 -118 -84 -199
t-202 -81q-120 0 -205 83.5t-84 201.5q1 117 86.5 199t204.5 81q116 -2 200 -87.5t84 -197.5zM618 335q0 104 -73 175.5t-178 72.5q-104 0 -179 -72t-75 -175q0 -102 74.5 -174t178.5 -72q105 0 178.5 69t73.5 176zM583 333q0 -92 -64.5 -152t-155.5 -59q-90 1 -153 64
t-62 152q1 88 65 148.5t153 60.5q88 0 152.5 -64t64.5 -150zM545 335q0 73 -52 125t-126 52q-74 1 -127 -50.5t-53 -125.5q0 -73 52 -124t125 -51q75 -1 128 48.5t53 125.5zM510 335q0 -63 -42.5 -103t-103.5 -39q-59 0 -100 42.5t-41 101.5q1 56 46.5 99t94.5 41
q62 -3 104 -44t42 -98zM471 335q0 41 -32 72.5t-75 31.5q-44 0 -75.5 -31t-31.5 -75q0 -43 30.5 -73t73.5 -31q46 -1 78 27.5t32 78.5zM439 335q0 -33 -22.5 -53t-53.5 -19q-30 1 -50.5 22t-20.5 50q0 30 21.5 51t52.5 21q29 0 51 -23t22 -49zM401 335q0 32 -35 33
q-15 1 -26.5 -9t-12.5 -24q0 -14 11 -24t26 -10t26 10t11 24zM204 721q-5 26 26.5 56.5t60.5 30.5q44 0 70 -17q15 -15 31.5 -29.5t42.5 -10.5q22 3 42.5 21.5t18.5 27.5l40 1q1 -35 -36.5 -65.5t-78.5 -30.5q-38 0 -61 28q-26 31 -67 31q-21 0 -33.5 -14.5t-10.5 -25.5z
" />
    <glyph glyph-name="OE" unicode="&#x152;" horiz-adv-x="941" 
d="M442 0l-18 -11q-29 -4 -58 -4q-148 0 -253 102.5t-105 248.5t106 248t253 101q19 0 75 -14v-671zM409 56q-21 -3 -42 -3q-120 0 -205 83.5t-84 201.5q1 117 86.5 199t204.5 81q20 0 40 -4v33q-19 2 -38 3q-134 2 -231 -88.5t-99 -221.5q-1 -132 94.5 -226t228.5 -94
q23 0 45 3v33zM409 126q-23 -4 -46 -4q-90 1 -153 64t-62 152q1 88 65 148.5t153 60.5q21 0 43 -4v36q-21 3 -42 4q-104 0 -179 -72t-75 -175q0 -102 74.5 -174t178.5 -72q21 0 43 4v32zM409 199q-22 -7 -45 -6q-59 0 -100 42.5t-41 101.5q1 56 46.5 99t94.5 41q23 -1 45 -8
v38q-21 5 -42 5q-74 1 -127 -50.5t-53 -125.5q0 -73 52 -124t125 -51q23 -1 45 4v34zM409 276q-21 -14 -46 -13q-30 1 -50.5 22t-20.5 50q0 30 21.5 51t52.5 21q23 0 43 -16v38q-22 10 -45 10q-44 0 -75.5 -31t-31.5 -75q0 -43 30.5 -73t73.5 -31q25 0 48 9v38zM401 335
q0 32 -35 33q-15 1 -26.5 -9t-12.5 -24q0 -14 11 -24t26 -10t26 10t11 24zM831 423h-213v103h213v-34h-181v-36h181v-33zM831 563h-249v-177l249 1v-33h-284v244h284v-35zM830 637h-319l-1 -602h321l1 -34l-355 1v669l353 1v-35zM831 211h-184v-36h183v-34h-215v104h216v-34
zM831 280l-250 1v-176h249v-33h-283v242h284v-34z" />
    <glyph glyph-name="oe" unicode="&#x153;" horiz-adv-x="946" 
d="M442 0l-18 -11q-29 -4 -58 -4q-148 0 -253 102.5t-105 248.5t106 248t253 101q19 0 75 -14v-671zM409 56q-21 -3 -42 -3q-120 0 -205 83.5t-84 201.5q1 117 86.5 199t204.5 81q20 0 40 -4v33q-19 2 -38 3q-134 2 -231 -88.5t-99 -221.5q-1 -132 94.5 -226t228.5 -94
q23 0 45 3v33zM409 126q-23 -4 -46 -4q-90 1 -153 64t-62 152q1 88 65 148.5t153 60.5q21 0 43 -4v36q-21 3 -42 4q-104 0 -179 -72t-75 -175q0 -102 74.5 -174t178.5 -72q21 0 43 4v32zM409 199q-22 -7 -45 -6q-59 0 -100 42.5t-41 101.5q1 56 46.5 99t94.5 41q23 -1 45 -8
v38q-21 5 -42 5q-74 1 -127 -50.5t-53 -125.5q0 -73 52 -124t125 -51q23 -1 45 4v34zM409 276q-21 -14 -46 -13q-30 1 -50.5 22t-20.5 50q0 30 21.5 51t52.5 21q23 0 43 -16v38q-22 10 -45 10q-44 0 -75.5 -31t-31.5 -75q0 -43 30.5 -73t73.5 -31q25 0 48 9v38zM401 335
q0 32 -35 33q-15 1 -26.5 -9t-12.5 -24q0 -14 11 -24t26 -10t26 10t11 24zM831 423h-213v103h213v-34h-181v-36h181v-33zM831 563h-249v-177l249 1v-33h-284v244h284v-35zM830 637h-319l-1 -602h321l1 -34l-355 1v669l353 1v-35zM831 211h-184v-36h183v-34h-215v104h216v-34
zM831 280l-250 1v-176h249v-33h-283v242h284v-34z" />
    <glyph glyph-name="endash" unicode="&#x2013;" horiz-adv-x="737" 
d="M635 354v-37h-632v37h632zM3 395v40h632v-40h-632zM3 235v41h632v-41h-632z" />
    <glyph glyph-name="emdash" unicode="&#x2014;" horiz-adv-x="1336" 
d="M3 395v40h1232v-40h-1232zM3 317v37h1232v-37h-1232zM3 235v41h1232v-41h-1232z" />
    <glyph glyph-name="quotedblleft" unicode="&#x201c;" horiz-adv-x="670" 
d="M203 432q78 43 77 121q0 55 -40 94t-97 39q-57 1 -99 -39t-41 -96q1 -41 21 -67q77 -103 130 -167l41 1q-27 33 -132 174q-22 31 -24 59q-3 42 29 72.5t75 30.5q42 -1 72 -30t31 -71q2 -56 -61 -98l-24 32q48 26 47 66q0 27 -19 45.5t-46 19.5q-25 0 -46 -19.5t-21 -44.5
q0 -18 16 -42l26 -34l119 -161h45q-85 112 -79 115zM116 553q0 27 27 27q28 0 28 -27q0 -26 -28 -28q-6 0 -16.5 8t-10.5 20zM513 432q78 43 77 121q0 55 -40.5 94t-96.5 39q-58 0 -99.5 -39.5t-40.5 -95.5q1 -41 21 -67q77 -103 130 -167l41 1q-27 33 -132 174
q-22 31 -24 59q-3 42 29 72.5t75 30.5q42 0 72 -29.5t31 -71.5q2 -56 -61 -98l-24 32q48 26 47 66q0 27 -19 46t-46 19q-25 0 -46 -19.5t-21 -44.5q0 -18 16 -42l26 -34l119 -161h45q-85 112 -79 115zM426 553q0 27 27 27q28 0 28 -27q0 -26 -28 -28q-6 0 -16.5 8t-10.5 20z
" />
    <glyph glyph-name="quotedblright" unicode="&#x201d;" horiz-adv-x="649" 
d="M396 432q-78 43 -78 121q0 55 40.5 94t96.5 39q58 1 100 -39t40 -96q-1 -41 -20 -67q-78 -103 -130 -167l-42 1q27 33 132 174q23 31 25 59q2 42 -29.5 72.5t-75.5 30.5q-42 -1 -71.5 -30t-30.5 -71q-2 -56 60 -98l24 32q-48 26 -47 66q1 27 19.5 46t45.5 19
q26 0 46.5 -19.5t20.5 -44.5q0 -18 -16 -42q-13 -17 -25 -34l-120 -161h-45q86 112 80 115zM483 553q0 27 -28 27q-27 0 -27 -27q0 -26 27 -28q7 0 17.5 8t10.5 20zM86 432q-78 43 -78 121q0 55 40.5 94t96.5 39q58 0 100 -39.5t40 -95.5q-1 -41 -20 -67q-78 -103 -130 -167
l-42 1q27 33 132 174q23 31 25 59q2 42 -29.5 72.5t-75.5 30.5q-42 0 -71.5 -29.5t-30.5 -71.5q-2 -56 60 -98l24 32q-48 26 -47 66q1 27 19.5 46t45.5 19q26 0 46.5 -19.5t20.5 -44.5q0 -18 -16 -42q-13 -17 -25 -34l-120 -161h-45q86 112 80 115zM173 553q0 27 -28 27
q-27 0 -27 -27q0 -26 27 -28q7 0 17.5 8t10.5 20z" />
    <glyph glyph-name="quoteleft" unicode="&#x2018;" horiz-adv-x="349" 
d="M203 432q78 43 77 121q0 55 -40 94t-97 39q-57 1 -99 -39t-41 -96q1 -41 21 -67q77 -103 130 -167l41 1q-27 33 -132 174q-22 31 -24 59q-3 42 29 72.5t75 30.5q42 -1 72 -30t31 -71q2 -56 -61 -98l-24 32q48 26 47 66q0 27 -19 45.5t-46 19.5q-25 0 -46 -19.5t-21 -44.5
q0 -18 16 -42l26 -34l119 -161h45q-85 112 -79 115zM116 553q0 27 27 27q28 0 28 -27q0 -26 -28 -28q-6 0 -16.5 8t-10.5 20z" />
    <glyph glyph-name="quoteright" unicode="&#x2019;" horiz-adv-x="348" 
d="M86 422q-78 43 -78 121q0 56 40.5 94.5t96.5 38.5q58 0 100 -39.5t40 -95.5q0 -41 -20 -67q-78 -103 -130 -167l-42 1q27 33 132 174q23 32 25 59q2 42 -29.5 72.5t-75.5 30.5q-42 0 -71.5 -29.5t-30.5 -71.5q-2 -57 60 -98l24 32q-48 26 -47 66q1 27 19.5 46t45.5 19
q26 0 46.5 -19.5t20.5 -44.5q0 -18 -16 -42q-13 -17 -25 -34l-120 -161h-45q86 112 80 115zM173 543q0 27 -28 27q-27 0 -27 -27q0 -26 27 -28q7 0 17.5 8t10.5 20z" />
    <glyph glyph-name="divide" unicode="&#xf7;" 
 />
    <glyph glyph-name="ydieresis" unicode="&#xff;" horiz-adv-x="911" 
d="M816 672l-286 -385v-285l-36 -2v298l279 374h43zM552 671l-143 -189l-140 190l44 -1l98 -130l94 131zM642 671l-236 -309l-222 310h38l186 -250l191 250zM726 672l-267 -360v-310l-33 -1v323l259 347zM388 2h-34v310l-263 359l43 1l254 -350v-320zM315 2h-34l1 288
l-283 382l49 -1l268 -369zM442 756q0 15 13 26t32 11q18 0 31.5 -11t13.5 -26q0 -16 -13.5 -27t-31.5 -11q-19 0 -32 11t-13 27zM282 756q0 15 13 26t32 11q18 0 31.5 -11t13.5 -26q0 -16 -13.5 -27t-31.5 -11q-19 0 -32 11t-13 27z" />
    <glyph glyph-name="Ydieresis" unicode="&#x178;" horiz-adv-x="911" 
d="M816 672l-286 -385v-285l-36 -2v298l279 374h43zM552 671l-143 -189l-140 190l44 -1l98 -130l94 131zM642 671l-236 -309l-222 310h38l186 -250l191 250zM726 672l-267 -360v-310l-33 -1v323l259 347zM388 2h-34v310l-263 359l43 1l254 -350v-320zM315 2h-34l1 288
l-283 382l49 -1l268 -369zM442 756q0 15 13 26t32 11q18 0 31.5 -11t13.5 -26q0 -16 -13.5 -27t-31.5 -11q-19 0 -32 11t-13 27zM282 756q0 15 13 26t32 11q18 0 31.5 -11t13.5 -26q0 -16 -13.5 -27t-31.5 -11q-19 0 -32 11t-13 27z" />
    <glyph glyph-name="currency" unicode="&#xa4;" 
 />
    <glyph glyph-name="guilsinglleft" unicode="&#x2039;" horiz-adv-x="241" 
d="M143 540l-101 -188l104 -190l-37 -20l-112 209l112 206z" />
    <glyph glyph-name="guilsinglright" unicode="&#x203a;" horiz-adv-x="241" 
d="M0 159l101 188l-104 190l37 20l112 -209l-112 -206z" />
    <glyph glyph-name="daggerdbl" unicode="&#x2021;" 
 />
    <glyph glyph-name="periodcentered" unicode="&#xb7;" 
 />
    <glyph glyph-name="periodcentered" unicode="&#x2219;" 
 />
    <glyph glyph-name="quotesinglbase" unicode="&#x201a;" horiz-adv-x="348" 
d="M86 -8q-78 43 -78 121q0 55 40.5 94t96.5 39q58 0 100 -39.5t40 -95.5q-1 -41 -20 -67q-78 -103 -130 -167l-42 1q27 33 132 174q23 31 25 59q2 42 -29.5 72.5t-75.5 30.5q-42 0 -71.5 -29.5t-30.5 -71.5q-2 -56 60 -98l24 32q-48 26 -47 66q1 27 19.5 46t45.5 19
q26 0 46.5 -19.5t20.5 -44.5q0 -18 -16 -42q-13 -17 -25 -34l-120 -161h-45q86 112 80 115zM173 113q0 27 -28 27q-27 0 -27 -27q0 -26 27 -28q7 0 17.5 8t10.5 20z" />
    <glyph glyph-name="quotedblbase" unicode="&#x201e;" horiz-adv-x="681" 
d="M416 -8q-78 43 -78 121q0 55 40.5 94t96.5 39q58 1 100 -39t40 -96q-1 -41 -20 -67q-78 -103 -130 -167l-42 1q27 33 132 174q23 31 25 59q2 42 -29.5 72.5t-75.5 30.5q-42 -1 -71.5 -30t-30.5 -71q-2 -56 60 -98l24 32q-48 26 -47 66q1 27 19.5 46t45.5 19
q26 0 46.5 -19.5t20.5 -44.5q0 -18 -16 -42q-13 -17 -25 -34l-120 -161h-45q86 112 80 115zM503 113q0 27 -28 27q-27 0 -27 -27q0 -26 27 -28q7 0 17.5 8t10.5 20zM86 -8q-78 43 -78 121q0 55 40.5 94t96.5 39q58 0 100 -39.5t40 -95.5q-1 -41 -20 -67q-78 -103 -130 -167
l-42 1q27 33 132 174q23 31 25 59q2 42 -29.5 72.5t-75.5 30.5q-42 0 -71.5 -29.5t-30.5 -71.5q-2 -56 60 -98l24 32q-48 26 -47 66q1 27 19.5 46t45.5 19q26 0 46.5 -19.5t20.5 -44.5q0 -18 -16 -42q-13 -17 -25 -34l-120 -161h-45q86 112 80 115zM173 113q0 27 -28 27
q-27 0 -27 -27q0 -26 27 -28q7 0 17.5 8t10.5 20z" />
    <glyph glyph-name="perthousand" unicode="&#x2030;" 
 />
    <glyph glyph-name="Acircumflex" unicode="&#xc2;" horiz-adv-x="861" 
d="M781 2h-39l-363 612l-345 -615l-35 1l380 695zM701 -1h-34l-285 473l-267 -473h-38l304 546zM621 -1h-35l-202 331l-185 -331h-35l220 401zM539 2l-36 -3l-116 188l-108 -188h-34l143 260zM371 769l-134 -75l-18 33l152 86l153 -86l-19 -33z" />
    <glyph glyph-name="Ecircumflex" unicode="&#xca;" horiz-adv-x="528" 
d="M430 423h-213v103h213v-34h-181v-36h181v-33zM430 563h-249v-177l249 1v-33h-284v244h284v-35zM429 637h-319l-1 -602h321l1 -34l-355 1v669l353 1v-35zM430 211h-184v-36h183v-34h-215v104h216v-34zM430 280l-250 1v-176h249v-33h-283v242h284v-34zM35 0l-33 1v671h33
v-672zM211 779l-134 -75l-18 33l152 86l153 -86l-19 -33z" />
    <glyph glyph-name="Aacute" unicode="&#xc1;" horiz-adv-x="861" 
d="M781 2h-39l-363 612l-345 -615l-35 1l380 695zM701 -1h-34l-285 473l-267 -473h-38l304 546zM621 -1h-35l-202 331l-185 -331h-35l220 401zM539 2l-36 -3l-116 188l-108 -188h-34l143 260zM271 727l166 93l19 -32l-166 -94z" />
    <glyph glyph-name="Edieresis" unicode="&#xcb;" horiz-adv-x="528" 
d="M430 423h-213v103h213v-34h-181v-36h181v-33zM430 563h-249v-177l249 1v-33h-284v244h284v-35zM429 637h-319l-1 -602h321l1 -34l-355 1v669l353 1v-35zM430 211h-184v-36h183v-34h-215v104h216v-34zM430 280l-250 1v-176h249v-33h-283v242h284v-34zM35 0l-33 1v671h33
v-672zM252 756q0 15 13 26t32 11q18 0 31.5 -11t13.5 -26q0 -16 -13.5 -27t-31.5 -11q-19 0 -32 11t-13 27zM92 756q0 15 13 26t32 11q18 0 31.5 -11t13.5 -26q0 -16 -13.5 -27t-31.5 -11q-19 0 -32 11t-13 27z" />
    <glyph glyph-name="Egrave" unicode="&#xc8;" horiz-adv-x="528" 
d="M430 423h-213v103h213v-34h-181v-36h181v-33zM430 563h-249v-177l249 1v-33h-284v244h284v-35zM429 637h-319l-1 -602h321l1 -34l-355 1v669l353 1v-35zM430 211h-184v-36h183v-34h-215v104h216v-34zM430 280l-250 1v-176h249v-33h-283v242h284v-34zM35 0l-33 1v671h33
v-672zM306 727l-166 93l-19 -32l166 -94z" />
    <glyph glyph-name="Iacute" unicode="&#xcd;" horiz-adv-x="348" 
d="M254 -3h-38v672h38v-672zM182 -2l-35 -1v672h35v-671zM111 -3h-37v672h37v-672zM40 -3h-38l1 672h37v-672zM41 727l166 93l19 -32l-166 -94z" />
    <glyph glyph-name="Icircumflex" unicode="&#xce;" horiz-adv-x="348" 
d="M254 -3h-38v672h38v-672zM182 -2l-35 -1v672h35v-671zM111 -3h-37v672h37v-672zM40 -3h-38l1 672h37v-672zM130 779l-134 -75l-18 33l152 86l153 -86l-19 -33z" />
    <glyph glyph-name="Idieresis" unicode="&#xcf;" horiz-adv-x="348" 
d="M254 -3h-38v672h38v-672zM182 -2l-35 -1v672h35v-671zM111 -3h-37v672h37v-672zM40 -3h-38l1 672h37v-672zM162 756q0 15 13 26t32 11q18 0 31.5 -11t13.5 -26q0 -16 -13.5 -27t-31.5 -11q-19 0 -32 11t-13 27zM2 756q0 15 13 26t32 11q18 0 31.5 -11t13.5 -26
q0 -16 -13.5 -27t-31.5 -11q-19 0 -32 11t-13 27z" />
    <glyph glyph-name="Igrave" unicode="&#xcc;" horiz-adv-x="348" 
d="M254 -3h-38v672h38v-672zM182 -2l-35 -1v672h35v-671zM111 -3h-37v672h37v-672zM40 -3h-38l1 672h37v-672zM216 727l-166 93l-19 -32l166 -94z" />
    <glyph glyph-name="Oacute" unicode="&#xd3;" horiz-adv-x="830" 
d="M724 333q0 -152 -106 -252q-103 -96 -252 -96q-148 0 -253 102.5t-105 248.5t106 248t253 101t252 -104t105 -248zM689 336q0 127 -94 219t-224 95q-134 2 -231 -88.5t-99 -221.5q-1 -132 94.5 -226t228.5 -94q136 0 228 87q97 90 97 229zM653 333q0 -118 -84 -199
t-202 -81q-120 0 -205 83.5t-84 201.5q1 117 86.5 199t204.5 81q116 -2 200 -87.5t84 -197.5zM618 335q0 104 -73 175.5t-178 72.5q-104 0 -179 -72t-75 -175q0 -102 74.5 -174t178.5 -72q105 0 178.5 69t73.5 176zM583 333q0 -92 -64.5 -152t-155.5 -59q-90 1 -153 64
t-62 152q1 88 65 148.5t153 60.5q88 0 152.5 -64t64.5 -150zM545 335q0 73 -52 125t-126 52q-74 1 -127 -50.5t-53 -125.5q0 -73 52 -124t125 -51q75 -1 128 48.5t53 125.5zM510 335q0 -63 -42.5 -103t-103.5 -39q-59 0 -100 42.5t-41 101.5q1 56 46.5 99t94.5 41
q62 -3 104 -44t42 -98zM471 335q0 41 -32 72.5t-75 31.5q-44 0 -75.5 -31t-31.5 -75q0 -43 30.5 -73t73.5 -31q46 -1 78 27.5t32 78.5zM439 335q0 -33 -22.5 -53t-53.5 -19q-30 1 -50.5 22t-20.5 50q0 30 21.5 51t52.5 21q29 0 51 -23t22 -49zM401 335q0 32 -35 33
q-15 1 -26.5 -9t-12.5 -24q0 -14 11 -24t26 -10t26 10t11 24zM261 727l166 93l19 -32l-166 -94z" />
    <glyph glyph-name="Ocircumflex" unicode="&#xd4;" horiz-adv-x="830" 
d="M724 333q0 -152 -106 -252q-103 -96 -252 -96q-148 0 -253 102.5t-105 248.5t106 248t253 101t252 -104t105 -248zM689 336q0 127 -94 219t-224 95q-134 2 -231 -88.5t-99 -221.5q-1 -132 94.5 -226t228.5 -94q136 0 228 87q97 90 97 229zM653 333q0 -118 -84 -199
t-202 -81q-120 0 -205 83.5t-84 201.5q1 117 86.5 199t204.5 81q116 -2 200 -87.5t84 -197.5zM618 335q0 104 -73 175.5t-178 72.5q-104 0 -179 -72t-75 -175q0 -102 74.5 -174t178.5 -72q105 0 178.5 69t73.5 176zM583 333q0 -92 -64.5 -152t-155.5 -59q-90 1 -153 64
t-62 152q1 88 65 148.5t153 60.5q88 0 152.5 -64t64.5 -150zM545 335q0 73 -52 125t-126 52q-74 1 -127 -50.5t-53 -125.5q0 -73 52 -124t125 -51q75 -1 128 48.5t53 125.5zM510 335q0 -63 -42.5 -103t-103.5 -39q-59 0 -100 42.5t-41 101.5q1 56 46.5 99t94.5 41
q62 -3 104 -44t42 -98zM471 335q0 41 -32 72.5t-75 31.5q-44 0 -75.5 -31t-31.5 -75q0 -43 30.5 -73t73.5 -31q46 -1 78 27.5t32 78.5zM439 335q0 -33 -22.5 -53t-53.5 -19q-30 1 -50.5 22t-20.5 50q0 30 21.5 51t52.5 21q29 0 51 -23t22 -49zM401 335q0 32 -35 33
q-15 1 -26.5 -9t-12.5 -24q0 -14 11 -24t26 -10t26 10t11 24zM356 769l-134 -75l-18 33l152 86l153 -86l-19 -33z" />
    <glyph glyph-name="Ograve" unicode="&#xd2;" horiz-adv-x="830" 
d="M724 333q0 -152 -106 -252q-103 -96 -252 -96q-148 0 -253 102.5t-105 248.5t106 248t253 101t252 -104t105 -248zM689 336q0 127 -94 219t-224 95q-134 2 -231 -88.5t-99 -221.5q-1 -132 94.5 -226t228.5 -94q136 0 228 87q97 90 97 229zM653 333q0 -118 -84 -199
t-202 -81q-120 0 -205 83.5t-84 201.5q1 117 86.5 199t204.5 81q116 -2 200 -87.5t84 -197.5zM618 335q0 104 -73 175.5t-178 72.5q-104 0 -179 -72t-75 -175q0 -102 74.5 -174t178.5 -72q105 0 178.5 69t73.5 176zM583 333q0 -92 -64.5 -152t-155.5 -59q-90 1 -153 64
t-62 152q1 88 65 148.5t153 60.5q88 0 152.5 -64t64.5 -150zM545 335q0 73 -52 125t-126 52q-74 1 -127 -50.5t-53 -125.5q0 -73 52 -124t125 -51q75 -1 128 48.5t53 125.5zM510 335q0 -63 -42.5 -103t-103.5 -39q-59 0 -100 42.5t-41 101.5q1 56 46.5 99t94.5 41
q62 -3 104 -44t42 -98zM471 335q0 41 -32 72.5t-75 31.5q-44 0 -75.5 -31t-31.5 -75q0 -43 30.5 -73t73.5 -31q46 -1 78 27.5t32 78.5zM439 335q0 -33 -22.5 -53t-53.5 -19q-30 1 -50.5 22t-20.5 50q0 30 21.5 51t52.5 21q29 0 51 -23t22 -49zM401 335q0 32 -35 33
q-15 1 -26.5 -9t-12.5 -24q0 -14 11 -24t26 -10t26 10t11 24zM476 727l-166 93l-19 -32l166 -94z" />
    <glyph glyph-name="Uacute" unicode="&#xda;" horiz-adv-x="636" 
d="M330 259l1 412h-35v-405q-2 -17 -5 -21q-4 -8 -18 -11q-14 3 -18 11q-3 4 -4 21q0 -7 0 405h-36l1 -412q0 -24 16 -42t40 -18t41.5 18.5t16.5 41.5zM402 247l1 425h-39v-419q0 -34 -28.5 -61.5t-62.5 -27.5t-62.5 27.5t-28.5 61.5v419h-39l1 -425q0 -51 37.5 -85.5
t90.5 -34.5t91.5 34.5t38.5 85.5zM436 243v429h39v-435q0 -75 -61.5 -129t-140.5 -53q-80 -1 -141 53t-61 129v435h39v-429q0 -64 46 -106.5t116 -45.5q71 3 117.5 45.5t46.5 106.5zM547 231v440h-35v-435q0 -87 -75 -152.5t-165 -64.5q-90 -1 -164 64.5t-74 152.5v435h-35
v-440q0 -104 85 -176q81 -67 188 -67t189 67q86 72 86 176zM171 727l166 93l19 -32l-166 -94z" />
    <glyph glyph-name="Ucircumflex" unicode="&#xdb;" horiz-adv-x="636" 
d="M330 259l1 412h-35v-405q-2 -17 -5 -21q-4 -8 -18 -11q-14 3 -18 11q-3 4 -4 21q0 -7 0 405h-36l1 -412q0 -24 16 -42t40 -18t41.5 18.5t16.5 41.5zM402 247l1 425h-39v-419q0 -34 -28.5 -61.5t-62.5 -27.5t-62.5 27.5t-28.5 61.5v419h-39l1 -425q0 -51 37.5 -85.5
t90.5 -34.5t91.5 34.5t38.5 85.5zM436 243v429h39v-435q0 -75 -61.5 -129t-140.5 -53q-80 -1 -141 53t-61 129v435h39v-429q0 -64 46 -106.5t116 -45.5q71 3 117.5 45.5t46.5 106.5zM547 231v440h-35v-435q0 -87 -75 -152.5t-165 -64.5q-90 -1 -164 64.5t-74 152.5v435h-35
v-440q0 -104 85 -176q81 -67 188 -67t189 67q86 72 86 176zM271 779l-134 -75l-18 33l152 86l153 -86l-19 -33z" />
    <glyph glyph-name="Ugrave" unicode="&#xd9;" horiz-adv-x="636" 
d="M330 259l1 412h-35v-405q-2 -17 -5 -21q-4 -8 -18 -11q-14 3 -18 11q-3 4 -4 21q0 -7 0 405h-36l1 -412q0 -24 16 -42t40 -18t41.5 18.5t16.5 41.5zM402 247l1 425h-39v-419q0 -34 -28.5 -61.5t-62.5 -27.5t-62.5 27.5t-28.5 61.5v419h-39l1 -425q0 -51 37.5 -85.5
t90.5 -34.5t91.5 34.5t38.5 85.5zM436 243v429h39v-435q0 -75 -61.5 -129t-140.5 -53q-80 -1 -141 53t-61 129v435h39v-429q0 -64 46 -106.5t116 -45.5q71 3 117.5 45.5t46.5 106.5zM547 231v440h-35v-435q0 -87 -75 -152.5t-165 -64.5q-90 -1 -164 64.5t-74 152.5v435h-35
v-440q0 -104 85 -176q81 -67 188 -67t189 67q86 72 86 176zM366 727l-166 93l-19 -32l166 -94z" />
    <glyph glyph-name="circumflex" unicode="&#x2c6;" horiz-adv-x="406" 
d="M191 779l-134 -75l-18 33l152 86l153 -86l-19 -33z" />
    <glyph glyph-name="tilde" unicode="&#x2dc;" horiz-adv-x="483" 
d="M54 721q-5 26 26.5 56.5t60.5 30.5q44 0 70 -17q15 -15 31.5 -29.5t42.5 -10.5q22 3 42.5 21.5t18.5 27.5l40 1q1 -35 -36.5 -65.5t-78.5 -30.5q-38 0 -61 28q-26 31 -67 31q-21 0 -33.5 -14.5t-10.5 -25.5z" />
    <glyph glyph-name="macron" unicode="&#xaf;" horiz-adv-x="417" 
d="M68 777l250 -2v-38l-250 3v37z" />
    <glyph glyph-name="macron" unicode="&#x2c9;" horiz-adv-x="417" 
d="M68 777l250 -2v-38l-250 3v37z" />
    <glyph glyph-name="cedilla" unicode="&#xb8;" horiz-adv-x="723" 
d="M356 0v-48q32 2 55.5 -18t24.5 -57q-8 -72 -103 -72q-22 0 -42 4l8 35q17 -4 35 -4q60 0 66 42q-4 35 -38 35q-9 0 -19 -2l-22 -7v92h35z" />
    <glyph glyph-name="Scaron" unicode="&#x160;" 
 />
    <glyph glyph-name="scaron" unicode="&#x161;" 
 />
    <glyph glyph-name="brokenbar" unicode="&#xa6;" 
 />
    <glyph glyph-name="Eth" unicode="&#xd0;" 
 />
    <glyph glyph-name="eth" unicode="&#xf0;" 
 />
    <glyph glyph-name="Yacute" unicode="&#xdd;" 
 />
    <glyph glyph-name="yacute" unicode="&#xfd;" 
 />
    <glyph glyph-name="Thorn" unicode="&#xde;" 
 />
    <glyph glyph-name="thorn" unicode="&#xfe;" 
 />
    <glyph glyph-name="uni00AD" unicode="&#xad;" 
 />
    <glyph glyph-name="uni00AD" unicode="&#x2212;" 
 />
    <glyph glyph-name="multiply" unicode="&#xd7;" 
 />
    <glyph glyph-name="uni00B9" unicode="&#xb9;" 
 />
    <glyph glyph-name="uni00B2" unicode="&#xb2;" 
 />
    <glyph glyph-name="uni00B3" unicode="&#xb3;" 
 />
    <glyph glyph-name="onehalf" unicode="&#xbd;" 
 />
    <glyph glyph-name="onequarter" unicode="&#xbc;" 
 />
    <glyph glyph-name="threequarters" unicode="&#xbe;" 
 />
    <glyph glyph-name="Lslash" unicode="&#x141;" 
 />
    <glyph glyph-name="lslash" unicode="&#x142;" 
 />
    <glyph glyph-name="glyph220" 
 />
    <glyph glyph-name="glyph221" 
 />
    <glyph glyph-name="glyph222" 
 />
    <glyph glyph-name="Zcaron" unicode="&#x17d;" 
 />
    <glyph glyph-name="zcaron" unicode="&#x17e;" 
 />
    <glyph glyph-name="glyph225" 
 />
    <glyph glyph-name="glyph226" 
 />
    <glyph glyph-name="glyph227" 
 />
    <glyph glyph-name="glyph228" 
 />
    <glyph glyph-name="glyph229" 
 />
    <glyph glyph-name="glyph230" 
 />
    <glyph glyph-name="glyph231" 
 />
    <glyph glyph-name="glyph232" horiz-adv-x="1005" 
 />
    <glyph glyph-name="notequal" unicode="&#x2260;" horiz-adv-x="11" 
 />
    <glyph glyph-name="infinity" unicode="&#x221e;" horiz-adv-x="0" 
 />
    <glyph glyph-name="lessequal" unicode="&#x2264;" horiz-adv-x="0" 
 />
    <glyph glyph-name="greaterequal" unicode="&#x2265;" horiz-adv-x="0" 
 />
    <glyph glyph-name="partialdiff" unicode="&#x2202;" horiz-adv-x="545" 
d="M447 213h-178v459h33v-231l104 83v-60l-104 -84l1 -131h145zM447 176v-34h-247v530h34l-2 -495zM447 107v-35h-317v600h30v-565h287zM-1 211l59 49v412h37l1 -631h351v-40h-389v199l-59 -49v60z" />
    <glyph glyph-name="summation" unicode="&#x2211;" horiz-adv-x="551" 
d="M75 462q0 15 8 48q7 30 47 61t72 31h232v-35h-232q-37 0 -65 -33.5t-28 -71.5q0 -36 29 -63q25 -25 64 -34l61 -15q56 -3 92.5 -44.5t36.5 -97.5q0 -15 -7.5 -47t-47 -62.5t-71.5 -30.5h-253v35h253q36 0 64 37q26 34 26 73q0 37 -23 64t-61 35l-62 14q-58 4 -96.5 42.5
t-38.5 93.5zM13 -1v33h249q25 0 56 14q110 50 110 167q0 60 -34.5 106.5t-91.5 60.5l-76 19q-28 2 -52 19q-27 19 -27 44q0 23 18 45.5t43 22.5h226v-35h-226q-8 0 -16 -11.5t-8 -19.5q0 -28 43 -39l64 -10q80 -10 129 -76q44 -58 44 -131q0 -74 -55.5 -139t-128.5 -69
q-36 -2 -38 -3q8 -1 16 0q-31 2 -245 2zM434 671v-32l-246 1q-17 0 -38 -9q-51 -24 -81 -70.5t-30 -103.5q0 -59 34.5 -101.5t92.5 -61.5l87 -16q26 -2 46.5 -23t20.5 -47q0 -22 -20 -45t-41 -23h-246v35h246q8 0 16.5 12.5t8.5 20.5q0 28 -23 36q-22 4 -43 8l-48 6
q-51 6 -103.5 58.5t-58.5 102.5q-5 34 -5 43q0 -9 5 47q4 53 58.5 108t99.5 55q-10 0 90 -1h178zM231 748l134 75l19 -32l-153 -87l-152 87l18 32z" />
    <glyph glyph-name="product" unicode="&#x220f;" horiz-adv-x="551" 
d="M75 462q0 15 8 48q7 30 47 61t72 31h232v-35h-232q-37 0 -65 -33.5t-28 -71.5q0 -36 29 -63q25 -25 64 -34l61 -15q56 -3 92.5 -44.5t36.5 -97.5q0 -15 -7.5 -47t-47 -62.5t-71.5 -30.5h-253v35h253q36 0 64 37q26 34 26 73q0 37 -23 64t-61 35l-62 14q-58 4 -96.5 42.5
t-38.5 93.5zM13 -1v33h249q25 0 56 14q110 50 110 167q0 60 -34.5 106.5t-91.5 60.5l-76 19q-28 2 -52 19q-27 19 -27 44q0 23 18 45.5t43 22.5h226v-35h-226q-8 0 -16 -11.5t-8 -19.5q0 -28 43 -39l64 -10q80 -10 129 -76q44 -58 44 -131q0 -74 -55.5 -139t-128.5 -69
q-36 -2 -38 -3q8 -1 16 0q-31 2 -245 2zM434 671v-32l-246 1q-17 0 -38 -9q-51 -24 -81 -70.5t-30 -103.5q0 -59 34.5 -101.5t92.5 -61.5l87 -16q26 -2 46.5 -23t20.5 -47q0 -22 -20 -45t-41 -23h-246v35h246q8 0 16.5 12.5t8.5 20.5q0 28 -23 36q-22 4 -43 8l-48 6
q-51 6 -103.5 58.5t-58.5 102.5q-5 34 -5 43q0 -9 5 47q4 53 58.5 108t99.5 55q-10 0 90 -1h178zM231 748l134 75l19 -32l-153 -87l-152 87l18 32z" />
    <glyph glyph-name="pi" unicode="&#x3c0;" horiz-adv-x="911" 
d="M816 672l-286 -385v-285l-36 -2v298l279 374h43zM552 671l-143 -189l-140 190l44 -1l98 -130l94 131zM642 671l-236 -309l-222 310h38l186 -250l191 250zM726 672l-267 -360v-310l-33 -1v323l259 347zM388 2h-34v310l-263 359l43 1l254 -350v-320zM315 2h-34l1 288
l-283 382l49 -1l268 -369zM311 727l166 93l19 -32l-166 -94z" />
    <glyph glyph-name="integral" unicode="&#x222b;" horiz-adv-x="911" 
d="M816 672l-286 -385v-285l-36 -2v298l279 374h43zM552 671l-143 -189l-140 190l44 -1l98 -130l94 131zM642 671l-236 -309l-222 310h38l186 -250l191 250zM726 672l-267 -360v-310l-33 -1v323l259 347zM388 2h-34v310l-263 359l43 1l254 -350v-320zM315 2h-34l1 288
l-283 382l49 -1l268 -369zM311 727l166 93l19 -32l-166 -94z" />
    <glyph glyph-name="Omega" unicode="&#x3a9;" horiz-adv-x="767" 
d="M640 150q-100 -104 -228 -102q-117 2 -200 82t-85 196q-3 119 82.5 204t205.5 86q71 1 175 -55l-23 -28q-95 49 -153 48q-105 -1 -179 -74.5t-73 -177.5q1 -102 74 -172.5t176 -72.5q61 -2 121 25q55 26 79 61q12 -7 28 -20zM251 410h176v-42h-186q-3 -9 -4 -25
q-1 -18 4 -23h186v-42h-182q20 -51 65 -85q47 -37 102 -38q78 -3 142 56l30 -19q-76 -72 -173 -73q-87 -1 -149.5 60t-63.5 149q-2 89 62.5 153.5t155.5 64.5q71 0 127 -41q-3 -6 -21 -27q-67 33 -108 32q-52 -1 -96 -28.5t-67 -71.5zM1 410h63q27 118 125.5 196t225.5 80
q123 1 219 -70l-21 -28q-99 66 -201 64q-133 -2 -227.5 -96t-93.5 -227q1 -132 95.5 -224t225.5 -92q163 0 252 119q12 -1 28 -18q-45 -62 -117 -97q-76 -38 -166 -37q-128 1 -226.5 87t-121.5 211h-60v42h55q-2 32 0 49l-55 -1v42z" />
    <glyph glyph-name="Omega" unicode="&#x2126;" horiz-adv-x="767" 
d="M640 150q-100 -104 -228 -102q-117 2 -200 82t-85 196q-3 119 82.5 204t205.5 86q71 1 175 -55l-23 -28q-95 49 -153 48q-105 -1 -179 -74.5t-73 -177.5q1 -102 74 -172.5t176 -72.5q61 -2 121 25q55 26 79 61q12 -7 28 -20zM251 410h176v-42h-186q-3 -9 -4 -25
q-1 -18 4 -23h186v-42h-182q20 -51 65 -85q47 -37 102 -38q78 -3 142 56l30 -19q-76 -72 -173 -73q-87 -1 -149.5 60t-63.5 149q-2 89 62.5 153.5t155.5 64.5q71 0 127 -41q-3 -6 -21 -27q-67 33 -108 32q-52 -1 -96 -28.5t-67 -71.5zM1 410h63q27 118 125.5 196t225.5 80
q123 1 219 -70l-21 -28q-99 66 -201 64q-133 -2 -227.5 -96t-93.5 -227q1 -132 95.5 -224t225.5 -92q163 0 252 119q12 -1 28 -18q-45 -62 -117 -97q-76 -38 -166 -37q-128 1 -226.5 87t-121.5 211h-60v42h55q-2 32 0 49l-55 -1v42z" />
    <glyph glyph-name="radical" unicode="&#x221a;" horiz-adv-x="0" 
 />
    <glyph glyph-name="approxequal" unicode="&#x2248;" horiz-adv-x="0" 
 />
    <glyph glyph-name="approxequal" unicode="&#x22f2;" horiz-adv-x="0" 
 />
    <glyph glyph-name="Delta" unicode="&#x394;" horiz-adv-x="0" 
 />
    <glyph glyph-name="Delta" unicode="&#x2206;" horiz-adv-x="0" 
 />
    <glyph glyph-name="lozenge" unicode="&#x25ca;" 
 />
    <glyph glyph-name="fraction" unicode="&#x2044;" 
 />
    <glyph glyph-name="uniF001" unicode="&#xf001;" 
 />
    <glyph glyph-name="uniF002" unicode="&#xf002;" 
 />
    <glyph glyph-name="uniF000" unicode="&#xf000;" 
 />
    <glyph glyph-name="dotlessi" unicode="&#x131;" horiz-adv-x="348" 
d="M254 -3h-38v672h38v-672zM182 -2l-35 -1v672h35v-671zM111 -3h-37v672h37v-672zM40 -3h-38l1 672h37v-672z" />
    <glyph glyph-name="breve" unicode="&#x2d8;" horiz-adv-x="305" 
d="M254 792q0 -32 -31.5 -48.5t-80.5 -16.5q-50 0 -80 16q-33 17 -33 49h35q0 -30 78 -30q77 0 77 30h35z" />
    <glyph glyph-name="dotaccent" unicode="&#x2d9;" horiz-adv-x="305" 
d="M98 756q0 37 39 37q18 0 31.5 -11t13.5 -26q0 -16 -13.5 -27t-31.5 -11q-39 0 -39 38z" />
    <glyph glyph-name="ring" unicode="&#x2da;" horiz-adv-x="272" 
d="M179 795q0 -33 -22.5 -53t-53.5 -19q-30 1 -50.5 22t-20.5 50q0 30 21.5 51t52.5 21q29 0 51 -23t22 -49zM141 795q0 32 -35 33q-15 1 -26.5 -9t-12.5 -24q0 -14 11 -24t26 -10t26 10t11 24z" />
    <glyph glyph-name="hungarumlaut" unicode="&#x2dd;" horiz-adv-x="305" 
d="M37 711l89 100l26 -26l-88 -101zM157 711l89 100l26 -26l-88 -101z" />
    <glyph glyph-name="ogonek" unicode="&#x2db;" horiz-adv-x="192" 
d="M18 -72q3 -73 104 -73q22 0 42 4l-8 35q-16 -4 -34 -4q-61 0 -66 42q7 69 78 68v28q-48 0 -79 -21q-40 -27 -37 -79z" />
    <glyph glyph-name="caron" unicode="&#x2c7;" horiz-adv-x="406" 
d="M191 748l134 75l19 -32l-153 -87l-152 87l18 32z" />
    </font>
</defs>
</svg>
