<?xml version="1.0" standalone="no"?>
<!DOCTYPE svg PUBLIC "-//W3C//DTD SVG 1.1//EN" "http://www.w3.org/Graphics/SVG/1.1/DTD/svg11.dtd" >
<svg>
<metadata>
Created by FontForge 20120731 at Wed Apr 17 22:11:47 2019
 By www-data
Digitized by Dan X. Solo. Software (c) 2000 by Dover Publications, Inc., New York.
</metadata>
<defs>
<font id="Pistachio" horiz-adv-x="20" >
  <font-face 
    font-family="Pistachio"
    font-weight="400"
    font-stretch="normal"
    units-per-em="1000"
    panose-1="0 0 4 0 0 0 0 0 0 0"
    ascent="800"
    descent="-200"
    x-height="667"
    cap-height="666"
    bbox="-37 -206 1076 847"
    underline-thickness="20"
    underline-position="-123"
    unicode-range="U+0020-F002"
  />
<missing-glyph horiz-adv-x="500" 
d="M63 0v800h375v-800h-375zM125 63h250v675h-250v-675z" />
    <glyph glyph-name=".notdef" horiz-adv-x="500" 
d="M63 0v800h375v-800h-375zM125 63h250v675h-250v-675z" />
    <glyph glyph-name="glyph1" horiz-adv-x="0" 
 />
    <glyph glyph-name="glyph2" horiz-adv-x="280" 
 />
    <glyph glyph-name="space" unicode=" " horiz-adv-x="280" 
 />
    <glyph glyph-name="exclam" unicode="!" horiz-adv-x="324" 
d="M170 668q-14 -14 -29 -29.5t-14 -47.5l-1 -330q-7 -26 -13 -51q-18 -45 -54 -44h-19v502q4 -3 64 -3q61 0 66 3zM29 62q0 28 32.5 48t73.5 20t73.5 -20t32.5 -48t-32.5 -48t-73.5 -20t-73.5 20t-32.5 48zM120 168q28 9 37 34q6 14 9 52t2 172q-2 140 0 177
q1 26 25.5 47.5t51.5 21.5h42q-38 -27 -38 -53q0 -34 -2 -224q-1 -142 1 -227h-128z" />
    <glyph glyph-name="quotedbl" unicode="&#x22;" horiz-adv-x="306" 
d="M173 667h90v-257h-90v257zM23 667h90v-257h-90v257z" />
    <glyph glyph-name="numbersign" unicode="#" horiz-adv-x="512" 
d="M457 425h-87l-34 -173h89l-22 -94h-87l-32 -157h-75l32 157h-75l-32 -157h-75l32 157h-91l23 94h88l34 173h-90l24 93h87l29 147h75l-29 -147h75l29 147h75l-29 -147h90zM220 425l-34 -173h75l34 173h-75z" />
    <glyph glyph-name="dollar" unicode="$" horiz-adv-x="553" 
d="M68 65h-42v39q12 -24 42 -39zM283 65v-81h-48v81h-88q-33 0 -67 20q-41 25 -52 66v69q30 -55 78 -75q31 -13 83 -13h102q25 0 30 2q15 4 15 23v31q2 22 -31 37q-56 24 -112 49q-73 32 -112 59q-55 37 -53 90q-1 48 0 114q2 27 25.5 45.5t60.5 18.5h28q-51 -15 -57 -63
v-84q0 -43 30 -67t115 -63q73 -33 147 -66q26 -13 25 -47v-71q0 -27 -28 -51t-56 -24h-35zM235 669h48v-70h73q43 0 78 -24q43 -30 44 -83v-27q-45 39 -57 46q-24 13 -66 13h-123q-26 2 -30 -34q-4 -37 22 -50q56 -28 213 -90q66 -27 66 -104v-90q0 -27 -21 -57
q-24 -34 -54 -34h-45q33 24 44 42t11 52q0 73 -1 77q-2 26 -39 52q-79 32 -244 109q-33 17 -33 65l-2 42q-1 26 2 36q10 60 94 59h20v70zM477 563q-12 23 -42 35h42v-35zM505 65h-31q11 6 32 30q-1 -15 -1 -30z" />
    <glyph glyph-name="percent" unicode="%" horiz-adv-x="655" 
d="M132 604q-25 3 -38 -7t-11 -34l1 -77q-2 -14 4.5 -25t18.5 -11h49q13 0 19.5 11t4.5 25v77q5 40 -17 39q13 16 25 33q12 13 30 32l162 -1q40 -33 81 -78q1 -7 -304 -586h-80l298 569l-35 35h-75v-13v-138q-1 -70 -79 -70h-109q-77 0 -79 70q0 -6 0 138q0 45 23 62
q18 13 60 13q36 0 106 -1q-53 -63 -55 -63zM473 66q12 0 19 10.5t5 24.5v78q2 14 -6.5 26t-23.5 12h-37q-15 0 -23 -12t-7 -26v-78q-2 -14 5 -24.5t19 -10.5h49zM500 285q41 0 60 -14q22 -18 22 -62q0 -9 1 -63q1 -46 0 -70q-1 -76 -80 -76h-109q-77 0 -79 71q0 -7 0 138
q0 45 23 62q18 15 60 14h102z" />
    <glyph glyph-name="ampersand" unicode="&#x26;" horiz-adv-x="739" 
d="M508 616q-18 23 -20.5 25.5t-32.5 25.5h53v-51zM716 388l-47 -83q-11 2 -22 2q-42 0 -41 -41l1 -97q0 -170 -102 -169h-45q26 16 41 50q15 31 15 62v127q0 61 12 91q23 58 93 58h95zM221 667q-64 -26 -64 -132q0 -95 10 -116q6 -14 31 -49l-27 -1q-58 0 -82 67
q-14 38 -14 85q0 146 131 146h15zM534 385q-48 -29 -54 -104l1 -169q0 -33 -23 -64q-27 -37 -76 -47l-146 -1q-113 0 -113 175q0 78 10 106q23 62 107 86q-16 11 -35 40.5t-19 51.5v74q0 81 54 111q37 21 117 21q54 0 101 -32q54 -37 54 -91v-26v-34q-49 65 -84 83
q-24 13 -78 15q-40 2 -55 -13t-15 -61q0 -120 60 -149q-136 -50 -136 -137q0 -77 6 -94q12 -38 62 -38q4 0 28 1h29q67 0 67 50v102q0 60 11 89q22 55 85 55h42zM160 347q-50 -31 -62 -74q-7 -21 -7 -95q0 -62 8 -94q14 -57 57 -84h-26h-23q-104 0 -104 186q0 85 21 115
q32 46 136 46z" />
    <glyph glyph-name="quotesingle" unicode="'" horiz-adv-x="175" 
d="M30 667h90v-257h-90v257z" />
    <glyph glyph-name="parenleft" unicode="(" horiz-adv-x="345" 
d="M322 716q-30 -16 -48 -47q-16 -27 -16 -54v-555q5 -65 52 -100q-8 -2 -51 -2q-36 -1 -61 29t-25 67v577q3 55 53 74q30 11 96 11zM192 716q-29 -9 -47 -33t-18 -49v-574q6 -65 53 -100q-11 -2 -51 -2q-46 0 -67 28q-15 20 -17 58l-2 50v537q3 55 53 74q29 11 96 11z" />
    <glyph glyph-name="parenright" unicode=")" horiz-adv-x="341" 
d="M-2 716q30 -16 48 -47q16 -27 16 -54v-555q-6 -65 -52 -100q8 -2 50 -2q37 -1 62 29t25 67l-1 577q-3 55 -53 74q-30 11 -95 11zM128 716q28 -9 46 -33t18 -49v-574q-5 -65 -52 -100q10 -2 50 -2q47 0 67 28q15 20 18 58q0 25 1 50v537q-3 55 -52 74q-29 11 -96 11z" />
    <glyph glyph-name="asterisk" unicode="*" horiz-adv-x="342" 
d="M4 574l21 38l105 -61v121h44v-121l104 61l22 -38l-105 -60l105 -61l-22 -37l-104 60v-121h-44v121l-105 -60l-21 37l105 61z" />
    <glyph glyph-name="plus" unicode="+" horiz-adv-x="471" 
d="M264 154h-92v139h-140v93l140 -1v140h92v-140l140 1v-93h-140v-139z" />
    <glyph glyph-name="comma" unicode="," horiz-adv-x="277" 
d="M28 66q0 28 28 48t68 20q47 0 72 -23t25 -57q0 -22 -10 -42q-17 -35 -57 -53q-34 -16 -66 -12q24 15 30 51q-38 1 -64 21t-26 47z" />
    <glyph glyph-name="hyphen" unicode="-" horiz-adv-x="451" 
d="M411 437q-5 -10 -13 -42q-8 -26 -20 -41q-47 -55 -101 -61h-94q52 32 73 74q6 13 15 29q-11 -1 56 -1q37 0 84 42zM235 385q1 -15 -26 -42q-52 -51 -89 -49q-77 5 -117 -40q10 62 56 103t99 41q61 0 82 -1z" />
    <glyph glyph-name="hyphen" unicode="&#x2010;" horiz-adv-x="451" 
d="M411 437q-5 -10 -13 -42q-8 -26 -20 -41q-47 -55 -101 -61h-94q52 32 73 74q6 13 15 29q-11 -1 56 -1q37 0 84 42zM235 385q1 -15 -26 -42q-52 -51 -89 -49q-77 5 -117 -40q10 62 56 103t99 41q61 0 82 -1z" />
    <glyph glyph-name="period" unicode="." horiz-adv-x="277" 
d="M29 62q0 28 28 48t68 20t68 -20t28 -48t-28 -48t-68 -20t-68 20t-28 48z" />
    <glyph glyph-name="slash" unicode="/" horiz-adv-x="498" 
d="M495 749l-447 -840l-85 -1l445 841h87z" />
    <glyph glyph-name="zero" unicode="0" horiz-adv-x="661" 
d="M609 135q0 -39 -16 -79q-22 -55 -62 -55h-29q37 27 35 84v501q0 18 -13 42q-18 29 -44 40h41q39 0 66 -39q22 -34 22 -69v-425zM505 112q-10 -112 -81 -112h-209q-71 0 -80 112q2 111 2 222q0 112 -2 223q9 111 81 111h208q71 0 81 -111q-2 -111 -2 -223q0 -111 2 -222z
M160 668q-27 -11 -44 -40q-14 -24 -14 -42v-501q-2 -57 36 -84l-37 -2q-40 0 -60 46q-14 33 -14 70v445q0 32 26 70.5t56 37.5h51zM431 132v405q0 45 -54 45q-5 0 -58 -1l-56 1q-55 0 -55 -45v-405q0 -47 55 -47q-6 0 19 0h39.5h37.5q23 0 18 0q54 0 54 47z" />
    <glyph glyph-name="one" unicode="1" horiz-adv-x="381" 
d="M307 2l-45 -1q-51 -1 -65 91q-6 39 -5 93v286q0 35 -1 71q-4 51 -41 76l125 47v-607q1 -25 32 -56zM187 2h-155q33 14 34 110q1 99 -1 382q3 21 -11 43t-41 27l90 36q22 -5 37 -35q13 -25 11 -40v-415q0 -73 36 -108z" />
    <glyph glyph-name="two" unicode="2" horiz-adv-x="588" 
d="M77 667q-33 -8 -55 -46q0 43 2.5 43t25.5 3q18 2 27 0zM544 130q0 -55 -49 -93t-115 -36h-233v129q0 29 6 43.5t28 31.5q104 80 231 179q11 9 23.5 32.5t15.5 41.5q-3 75 -2 137q-2 12 -8 23q-14 28 -47 46q10 1 20 1q47 0 79 -25q29 -24 31 -57v-144q0 -61 -46 -98
q-73 -59 -225 -173q-23 -17 -23 -46v-43h130q71 0 101 11q48 19 83 84v-44zM412 476q-3 -34 -29 -66q-21 -25 -107 -88l-132 -94q-23 -16 -29 -30.5t-6 -43.5l1 -153h-84v190q3 49 84 111q73 51 147 103q76 58 74 100q1 19 0 46q0 38 -63 38h-121q-31 -1 -65.5 -23.5
t-58.5 -57.5q-2 7 0 40q2 41 39 75.5t87 43.5h143q47 0 83 -23t37 -55q2 -76 0 -113zM547 1q-3 0 -27.5 0.5t-26.5 -0.5q17 7 26 13q17 13 28 36v-49z" />
    <glyph glyph-name="three" unicode="3" horiz-adv-x="608" 
d="M549 95q0 -87 -79 -90h-28q22 18 28 61q3 19 2 89q-1 68 -3 90q-5 38 -8 49q-9 28 -32 44h29q49 0 73 -33q20 -27 18 -63v-147zM435 99q0 -105 -116 -105q-4 0 -73 1h-74q-44 0 -93 40t-49 85q0 38 9 58q19 -46 58 -75.5t76 -29.5h119q38 0 62 52v123q-4 45 -70 55
q-31 0 -110 1q-1 13 13 37q25 41 28 47h91q45 0 45 66v67q0 56 -82 62q-19 1 -47 0q-37 -2 -45 -2q-34 0 -77 -28t-64 -61q0 -2 -6 11t-6 32t6 42q10 38 62 65q47 25 96 25h113q145 -14 138 -132q-4 -3 -1 -86q-3 -38 -30 -67q-22 -25 -49 -32q42 -13 62 -47q9 -16 14 -52
v-152zM84 0h-53v47q15 -29 53 -47zM86 667q-42 -10 -65 -49v49h65zM546 457q0 -30 -16 -56q-23 -38 -69 -40h-28q31 25 37 67q3 19 2 74q-1 53 -3 75q-7 55 -51 86h29q48 0 76 -37q23 -29 23 -67v-102z" />
    <glyph glyph-name="four" unicode="4" horiz-adv-x="677" 
d="M639 287q-22 -52 -41 -85q-17 -1 -53 -2q-8 -7 -8 -16v-107q0 -15 13 -45.5t21 -33.5q-140 -5 -136 -6h-29q36 22 40 89l-3 253q10 25 4 121q-7 100 6 142q20 68 95 68h48q-59 -43 -59 -129q0 -4 1.5 -56t1.5 -56v-110q0 -15 8 -26q40 4 91 -1zM471 665q-43 -41 -49 -64
q-7 -28 -7 -161v-185q0 -20 1 -56v-51q0 -78 -12 -110q-17 -43 -62 -43l-55 -2q44 45 44 72v127q-15 9 -44 9q-3 0 -9.5 -1.5t-10.5 -1.5q-64 0 -126 30q-85 42 -85 118q0 11 112 157q117 153 149 155l22 4q25 3 132 3zM122 199q-13 0 -38.5 -2t-27.5 -2q-21 0 -44 29
q-21 26 -21 41q0 5 15.5 23.5t27.5 27.5q18 -72 88 -117zM327 289q8 144 0 286l-177 -235q3 -17 36 -37q30 -18 47 -18q57 0 94 4z" />
    <glyph glyph-name="five" unicode="5" horiz-adv-x="593" 
d="M513 630q-15 11 -42 32q8 4 39 4q3 -8 5 -16q3 -13 -2 -20zM539 118q0 -43 -33 -80q-40 -44 -100 -39q11 12 30 40q5 12 13 67l3 132q0 117 -49 146q12 2 22 2q79 0 102 -71q12 -33 12 -119v-78zM517 571l-2 -26.5t-2 -47.5q-60 83 -165 83h-107q-8 -7 -8 -16v-156
q0 -19 23 -19q4 0 23 1.5t22 1.5q44 0 79.5 -29t40.5 -78l3 -114q0 -100 -25 -133q-31 -41 -130 -41h-88q-28 0 -67 16q-48 20 -57 49q-6 3 -18.5 15.5t-11.5 16.5v79q27 -53 97 -79q53 -20 109 -20h15q54 0 73 18q15 15 15 51v26q-1 19 -1 30q0 67 -12.5 86.5t-54.5 20.5
h-124v360h197q43 1 98 -18q78 -27 78 -77zM110 263q-38 12 -85 34v366q11 -1 29 -2h22q20 0 32 -1zM76 1q-27 -5 -49 -1v43q20 -25 49 -42z" />
    <glyph glyph-name="six" unicode="6" horiz-adv-x="634" 
d="M21 116l1 459q8 93 111 93q11 0 24 -1q-27 -23 -36 -35q-17 -24 -17 -54v-487q9 -69 55 -91l-47 -1q-39 0 -66 39q-25 36 -25 78zM129 113l1 451q2 49 40 79q31 25 67 25h184q49 2 99 -29q54 -34 53 -77v-56l-60 52q-40 28 -101 30h-141q-46 0 -49 -53v-151q21 19 55 20
h92q107 -22 107 -103v-213q0 -30 -17 -53q-27 -35 -86 -35q-73 1 -127 -1q-110 -3 -117 114zM440 0q26 0 44 26t18 61v217q0 69 -64 98q48 5 95 -24q51 -31 51 -79v-183q0 -41 -23 -77q-27 -40 -65 -40zM517 667h52v-39q-23 29 -52 39zM219 136q0 -29 10 -40.5t37 -14.5h80
q43 0 45 47v142q0 22 -16 34.5t-33 10.5h-76q-21 0 -34 -14t-13 -33v-132z" />
    <glyph glyph-name="seven" unicode="7" horiz-adv-x="581" 
d="M546 663q-95 -270 -212 -591q-4 -12 -4 -24q0 -21 15 -48h-163q38 33 73 119l52 144q42 115 84 231q71 169 130 169h25zM50 662q-14 -7 -24 -13q-24 -16 -26 -29v45zM448 666q-44 -46 -122 -254l-100 -280q-28 -69 -67 -100q-45 -35 -119 -32q51 38 61 61q60 125 209 521
q-119 3 -178 1q-58 -1 -131 -80l-1 53q0 48 48 82q42 30 85 29z" />
    <glyph glyph-name="eight" unicode="8" horiz-adv-x="613" 
d="M566 457q0 -96 -74 -96h-29q38 30 37 67v63q1 53 1 63q0 95 -57 113h27q43 0 69 -32t26 -76v-102zM569 250v-155q-3 -96 -69 -96h-18q-14 1 -18 1q36 18 36 66v192q0 52 -40 80h29q80 0 80 -88zM470 526q0 -71 -1 -78q-4 -33 -26 -61.5t-53 -36.5q77 -24 77 -92l1 -176
q0 -82 -111 -82h-113q-113 0 -113 84v174q0 68 78 92q-32 8 -54 36.5t-26 61.5q-1 9 -1 101q0 118 126 118h87q72 0 102 -35q27 -32 27 -106zM154 667q-57 -18 -57 -113q0 -10 1 -63q1 -38 0 -63q-1 -37 37 -67h-28q-75 0 -75 96v102q0 44 26 76t69 32h27zM139 338
q-41 -28 -41 -80v-192q0 -48 37 -66q-5 0 -19 -1h-18q-66 0 -69 96v155q0 88 81 88h29zM381 525q0 62 -83 62q-81 0 -81 -62v-76q0 -65 83 -65q81 0 81 62v79zM381 136v105q0 62 -81 62q-83 0 -83 -65v-102q0 -60 81 -60q83 0 83 60z" />
    <glyph glyph-name="nine" unicode="9" horiz-adv-x="640" 
d="M592 551l-1 -458q-8 -94 -111 -94q-11 0 -24 1q27 24 36 36q17 23 17 53v487q-9 69 -55 91l47 1q39 1 66 -39q25 -36 25 -78zM484 554l-1 -451q-2 -49 -40 -79q-31 -25 -67 -25h-184q-49 -2 -99 30q-54 34 -53 76v56l60 -52q40 -28 101 -29h141q46 0 49 52v151
q-21 -19 -55 -20h-92q-107 22 -107 104v212q0 30 17 53q27 35 86 35q73 0 127 1q110 4 117 -114zM173 667q-26 0 -44 -26t-18 -60v-218q0 -68 64 -98q-48 -5 -95 24q-51 31 -51 79v183q0 41 23 77q27 40 65 40zM96 0h-52v39q23 -29 52 -39zM394 532q0 28 -10 39.5t-37 14.5
h-80q-43 0 -45 -47v-142q0 -22 16 -34.5t33 -10.5h76q21 0 34 14t13 33v133z" />
    <glyph glyph-name="colon" unicode=":" horiz-adv-x="270" 
d="M29 62q0 28 28 48t68 20t68 -20t28 -48t-28 -48t-68 -20t-68 20t-28 48zM29 392q0 28 28 48t68 20t68 -20t28 -48t-28 -48t-68 -20t-68 20t-28 48z" />
    <glyph glyph-name="semicolon" unicode=";" horiz-adv-x="270" 
d="M21 66q0 28 28 48t68 20q47 0 72 -23t25 -57q0 -22 -10 -42q-18 -35 -57 -53q-34 -16 -66 -12q24 15 30 51q-38 1 -64 21t-26 47zM15 392q0 28 28 48t68 20t68 -20t28 -48t-28 -48t-68 -20t-68 20t-28 48z" />
    <glyph glyph-name="less" unicode="&#x3c;" horiz-adv-x="352" 
d="M161 326l141 -141l-70 -70l-210 210l210 212l70 -70z" />
    <glyph glyph-name="equal" unicode="=" horiz-adv-x="604" 
d="M44 272h491v-94h-491v94zM44 422h491v-94h-491v94z" />
    <glyph glyph-name="greater" unicode="&#x3e;" horiz-adv-x="352" 
d="M170 326l-141 141l70 70l210 -211l-210 -211l-70 70z" />
    <glyph glyph-name="question" unicode="?" horiz-adv-x="612" 
d="M543 532v-176q0 -43 -46 -81q-42 -34 -77 -34l-96 1q-46 0 -46 -54q0 -7 1 -17t1 -11h-88q0 -3 0 111q0 24 25 36t30 8h141q20 -3 45 19.5t25 52.5v173q0 75 -61 104q19 3 35 3q109 0 111 -135zM60 666q-41 -20 -56 -46v46h56zM423 429q0 -76 -55 -76h-135
q-32 0 -52.5 -20t-20.5 -47q1 -80 -1 -126h-91v157q-4 46 26.5 80t85.5 35l93 1q37 0 50 29q7 13 9 45q4 49 -15.5 60.5t-100.5 11.5q-69 0 -103 -12q-61 -22 -109 -94q-3 15 1 103q24 26 48 53q35 29 90 38h42q30 -1 51 -1q187 0 187 -131v-106zM81 62q0 28 28 48t68 20
t68 -20t28 -48t-28 -48t-68 -20t-68 20t-28 48z" />
    <glyph glyph-name="at" unicode="@" horiz-adv-x="762" 
d="M699 379q0 -110 -56.5 -179.5t-138.5 -69.5q-92 0 -99 75q-54 -65 -129 -65q-42 0 -71 31q-32 34 -32 94q0 110 59 184q65 82 176 82q60 0 116 -30q-11 -36 -54 -232q-6 -26 -6 -43q0 -39 43 -39q47 0 82 56t35 136q0 102 -73 172q-76 71 -193 71q-122 0 -203 -93
q-77 -89 -77 -211q0 -112 77 -185.5t187 -73.5q65 0 124 19l16 -58q-61 -20 -140 -20q-143 0 -237 82q-102 88 -102 236q0 153 100.5 257t254.5 104q147 0 244 -82.5t97 -217.5zM438 469q-13 6 -36 6q-75 0 -118 -71q-36 -60 -36 -142q0 -60 46 -60q31 0 62 28q37 32 48 85z
" />
    <glyph glyph-name="A" unicode="A" horiz-adv-x="847" 
d="M812 1h-218q40 21 40 72q0 27 -77 256t-77 261q0 77 90 77h40q-37 -47 -37 -84q0 -43 158 -489q14 -39 81 -93zM591 76q0 -66 -70 -74q-33 0 -50 -1q-17 0 -12 0q38 39 38 86q0 29 -36 122l-236 1q-45 -98 -45 -141q0 -33 35 -68h-213q16 11 31 21q22 19 34 48
q35 86 105 296.5t70 227.5q0 36 -28 73h255q-22 -21 -25 -26q-7 -13 -7 -43q0 -36 77 -259t77 -263zM437 298q-18 70 -82 262q-2 10 -5 14t-13 5l-89 -281h189z" />
    <glyph glyph-name="B" unicode="B" horiz-adv-x="744" 
d="M669 447q-24 -70 -108 -76q35 30 35 62v167q-4 25 -25 45q-16 16 -31 22h45q50 0 72 -38q17 -28 12 -43q2 -60 0 -139zM679 238v-125q0 -47 -38 -81q-41 -37 -100 -31l32 28q22 23 24 61v180q0 56 -36 82q51 0 86 -35t32 -79zM558 99q-1 -40 -33 -69.5t-78 -28.5h-311
q44 16 39 75v477q-1 57 37 88q35 29 86 27q13 -1 161 -1q41 0 70.5 -30t29.5 -74v-125q0 -18 -24 -48.5t-41 -37.5q64 -25 64 -80v-173zM185 668q-30 -11 -41 -39q-3 -6 -9 -48l-1 -517q-6 -63 -87 -63h-39q39 27 39 55v539q0 44 -38 73h176zM468 425v95q0 60 -51 60
q-100 0 -100 -1q-32 -1 -46 -20q-12 -14 -9 -30v-140l103 1q50 0 59 1q44 7 44 34zM470 261q-5 45 -41 45q-7 0 -117 1l-49 49v-222q-5 -46 61 -46h47q43 1 46 1q50 0 53 47q5 83 0 125z" />
    <glyph glyph-name="C" unicode="C" horiz-adv-x="668" 
d="M236 537q0 45 65 45q3 0 66 -1h100q40 2 73 -24q42 -33 59 -107l-1 128q0 27 -34 57q-39 35 -90 33h-229q-83 0 -94 -111q2 -111 2 -223q0 -111 -2 -222q11 -113 94 -113l224 1q51 -2 93 33q36 30 36 57l1 129q-17 -74 -59 -108q-33 -26 -73 -24l-166 -1q-65 0 -65 46
v405zM598 668l-39 1q13 -8 39 -37q-1 19 0 36zM180 668q-31 -11 -51 -40q-16 -24 -16 -42v-501q-3 -57 41 -84l-43 -2q-46 0 -70 61q-16 42 -16 85v415q0 32 30 70.5t66 37.5h59zM598 0l-39 -1q13 8 39 37q-1 -18 0 -36z" />
    <glyph glyph-name="D" unicode="D" horiz-adv-x="762" 
d="M689 106q0 -47 -33 -78q-29 -27 -64 -27h-43q52 17 55 90v461q0 39 -13 70q-17 38 -48 46q-5 -1 44.5 -1.5t78.5 -45.5q25 -37 22 -75zM567 102q0 -36 -25 -66q-30 -35 -77 -35h-328q10 11 19 22q16 18 16 39l1 518q3 39 30 63.5t70 24.5h180q113 0 113 -128zM470 143
v389q-1 33 -21 42q-8 4 -34 4h-116q-40 0 -40 -44v-402q0 -22 15 -34.5t30 -11.5q7 1 114 -1q55 2 52 58zM186 668q-30 -11 -41 -39q-3 -6 -9 -48l-1 -517q-6 -63 -87 -63h-39q39 27 39 55v539q0 44 -38 73h176z" />
    <glyph glyph-name="E" unicode="E" horiz-adv-x="654" 
d="M458 260q-19 14 -53 40q14 5 27 10.5t27 22.5zM319 89q-49 0 -50 39v157q-2 13 5.5 20.5t17.5 7.5l50 -1q47 7 80 23q40 21 39 50v91q-10 -21 -48 -50.5t-65 -29.5q-4 0 -24 -1h-24q-30 0 -27 32v119q0 37 40 37h150q90 0 121 -133l1 140q-4 19 -32 44q-38 34 -87 33
h-173q-46 0 -68 -19q-43 -37 -41 -146v-372q0 -40 -6 -61q-11 -36 -47 -69h331q48 -2 89 33q30 27 34 45l-1 142q-23 -102 -125 -131h-140zM200 667q-39 -27 -49 -65q0 -1 -6 -55v-450q0 -23 -27 -59q-31 -38 -58 -38h-57q46 18 53 82l-1 429q1 0 1 34q1 41 -7 69
q-12 40 -40 54zM584 667l-38 -1q11 -7 21 -13.5t17 -20.5v35zM585 -2l-41 2q11 7 22 14.5t18 21.5q0 -19 1 -38z" />
    <glyph glyph-name="F" unicode="F" horiz-adv-x="641" 
d="M458 260q-19 14 -53 40q14 5 27 10.5t27 22.5zM269 128v157q-2 13 5.5 20.5t17.5 7.5l50 -1q47 7 80 23q40 21 39 50v91q-10 -21 -48 -50.5t-65 -29.5q-4 0 -24 -1h-24q-30 0 -27 32v119q0 37 40 37h150q90 0 121 -133l1 140q-4 19 -32 44q-38 34 -87 33h-173
q-46 0 -68 -19q-43 -37 -41 -146v-372q0 -40 -6 -61q-11 -36 -47 -69h195q-38 22 -51 79q-8 34 -6 49zM200 667q-56 -36 -56 -141q0 -11 1 -29v-25v-375q0 -23 -27 -59q-31 -38 -58 -38h-57q46 18 53 82l-1 429q1 0 1 34q1 41 -7 69q-12 40 -40 54zM584 667l-38 -1
q11 -7 21 -13.5t17 -20.5v35z" />
    <glyph glyph-name="G" unicode="G" horiz-adv-x="737" 
d="M608 626q-11 14 -45 39h21q16 1 24 1v-40zM699 389q-38 -19 -38 -90q0 -10 1 -29v-28v-165q0 -39 -38 -61q-29 -17 -61 -17q-3 0 -18 1h-19q14 4 32 31.5t18 40.5v241q0 22 16 46q20 31 51 30h56zM250 -1q-83 3 -94 113q2 111 2 222q0 112 -2 223q4 47 35 78t77 31h151
q68 0 106 -14q61 -22 87 -85v-87q-25 51 -59.5 73t-92.5 24q1 1 -154 1q-31 0 -42 -6q-22 -13 -22 -55l-1 -389q0 -45 65 -45q2 0 90 1q35 -2 46 15q6 11 6 46q0 49 -1 154h-106q20 88 128 88q13 0 39 -1t38 -1q16 0 27 1q-36 -39 -36 -85q0 -6 1 -21q1 -12 0 -20v-83v-109
q0 -27 -32.5 -49t-54.5 -17q-20 -9 -201 -3zM184 666q-28 -2 -50 -38q-17 -29 -17 -50v-493q-2 -56 44 -85l-44 -1q-47 0 -70 47q-17 34 -17 80l1 434q0 36 23 67q27 39 73 38z" />
    <glyph glyph-name="H" unicode="H" horiz-adv-x="752" 
d="M715 2l-57 -1q-41 0 -57 27q-12 21 -12 64l-1 489q0 60 -41 84h167q-38 -41 -38 -65l1 -553q0 -16 38 -45zM299 0q-24 0 -160 1q32 28 32 82l-1 498q0 33 26.5 58t60.5 26l38 1q-43 -32 -43 -58v-217h183l32 -34v251q0 25 -44 58h49q34 0 55 -24t21 -58l1 -501
q0 -56 30 -82q-133 -1 -158 -1q47 25 47 71v119q-1 79 -1 119l-171 -1l-41 50v6q-1 -49 -1 -295q0 -45 45 -69zM173 665q-42 -24 -42 -90v-483q0 -45 -13 -65q-16 -26 -60 -26q-2 0 -53 1q38 28 38 45v540q0 30 -12 49q-4 7 -25 29h167z" />
    <glyph glyph-name="I" unicode="I" horiz-adv-x="333" 
d="M114 1q29 10 41 28q9 15 14 48v91v217v211q1 26 26.5 48t52.5 22h43q-39 -27 -39 -53l1 -539q0 -44 38 -73h-177zM179 666q-50 -18 -50 -87l-1 -515q0 -25 -30 -44.5t-57 -19.5q-4 0 -19 1h-20q39 23 39 55v537q0 44 -38 73h176z" />
    <glyph glyph-name="J" unicode="J" horiz-adv-x="384" 
d="M351 668q-1 -3 -25 -34q-16 -20 -16 -40v-459q0 -57 -40 -96t-97 -39h-122l-49 74h143q33 0 57 33q22 29 22 56v354q0 148 65 149zM228 665q-43 -23 -43 -84v-415q0 -26 -28 -45t-54 -19q-46 0 -45 0q39 27 39 55v438q0 42 -37 70h168z" />
    <glyph glyph-name="K" unicode="K" horiz-adv-x="752" 
d="M680 111q-7 -1 -51 -1q-56 0 -87 38q-4 5 -54 94q-39 72 -97 121q18 4 36 4q64 2 110 -50q22 -24 69 -108q40 -72 74 -98zM720 78q-14 -26 -41 -77h-85h-34q-28 4 -62.5 24.5t-64.5 69.5q-34 60 -68 121q-64 105 -92 105q-12 0 -12 -13v-237q0 -47 36 -71h-151
q31 22 31 66q0 10 -2 22l-1 449q0 130 90 135q4 0 15 -2t18 -2q-13 -5 -24.5 -27t-11.5 -35v-197q6 -9 16 -9q14 0 29 19q59 45 171 167q1 -4 4 6.5t3 23.5q0 34 -24 52h217q-45 -34 -192 -185q-116 -119 -156 -121q55 -21 102 -92q35 -61 70 -121q41 -63 84 -71
q17 -3 69 -0.5t66 0.5zM167 664q-26 -19 -31 -74v-510q1 -34 -22 -57.5t-60 -22.5h-42q40 33 40 81v20q-1 13 -1 20v469q0 43 -36 74h152z" />
    <glyph glyph-name="L" unicode="L" horiz-adv-x="609" 
d="M183 531l1 -401q0 -40 -6 -61q-11 -36 -47 -69h301q48 -2 88 33q30 27 34 45v142q-23 -102 -125 -131h-110q-49 0 -50 39q0 202 1 415q4 65 24 97q15 24 34 24q-19 3 -33 3q-113 0 -112 -136zM200 667q-55 -37 -55 -111q0 -9 1 -16l-1 -443q0 -23 -27 -59
q-31 -38 -58 -38h-57q46 18 53 82l2 452v28q0 34 -9 58q-12 34 -40 48zM555 -2l-41 2q11 7 22 14.5t18 21.5q0 -19 1 -38z" />
    <glyph glyph-name="M" unicode="M" horiz-adv-x="943" 
d="M897 1h-171q41 37 41 85q0 7 -1.5 17.5t-1.5 12.5q-1 57 -1 437q0 116 77 116h32q-17 -26 -21 -63q-1 -13 -1 -70l-1 -420q2 -46 11.5 -67.5t36.5 -47.5zM760 668q-20 -12 -28 -28q-6 -10 -12 -40v-511q-3 -88 -102 -86l-40 -2q29 16 41 48v480l-159 -374
q-129 289 -212 468q-7 15 -12 21q-11 15 -33 24q52 2 78 -1q39 -4 63 -42q11 -24 21 -48q23 -45 92 -214q34 74 94 210q38 95 105 95q-2 0 -1.5 0h19.5h86zM431 113q-18 -45 -43 -105l-238 521v-423q1 -40 6 -55q9 -24 41 -50h-172q28 20 36 48q4 16 4 61v429q-1 42 -30 48
q-18 -2 -54 0q18 46 40 81h85q39 0 61 -12.5t37 -45.5q20 -42 227 -497z" />
    <glyph glyph-name="N" unicode="N" horiz-adv-x="761" 
d="M707 668q-39 -30 -40 -66q-3 -115 -1 -604q-123 161 -222 287q-237 302 -310 383h66q29 0 50 -15q17 -13 43 -48q31 -34 288 -371v368q0 31 -42 66h168zM610 1l-98 -3q-8 0 -147 179q-173 223 -207 263q-1 -5 -2 -358q0 -55 38 -83h-160q23 18 31 43q3 8 7 39l-1 429
q-2 43 -37 59q-14 6 -65 12q16 45 38 90q13 2 24 2q31 0 52 -15q8 -5 29 -28q83 -89 290 -356q139 -180 208 -273z" />
    <glyph glyph-name="O" unicode="O" horiz-adv-x="777" 
d="M716 128q0 -38 -18 -75q-25 -52 -71 -52l-40 -1q49 41 47 85v501q0 62 -53 81l34 -1q46 0 76 -38q26 -33 26 -68zM596 112q-12 -112 -99 -112q17 0 -94 0h-46q-106 0 -90 0q-93 0 -104 112q2 111 2 222q0 112 -2 223q11 111 95 111h243q48 0 72 -30.5t23 -80.5
q-3 -111 -3 -223q0 -111 3 -222zM180 667q-22 -10 -38.5 -37.5t-16.5 -43.5v-501q-1 -31 13.5 -54.5t38.5 -30.5l-53 -1q-48 0 -72 46q-17 32 -17 68v456q0 37 30 68t68 30h47zM510 141l-1 387q0 54 -63 54h-133q-64 0 -64 -54v-383q0 -29 19 -44q16 -14 39 -14h147
q53 0 56 54z" />
    <glyph glyph-name="P" unicode="P" horiz-adv-x="734" 
d="M684 370q0 -32 -29 -67t-61 -37h-37q48 34 48 111v210q-5 22 -10 43q-10 24 -34 37h23q52 0 78 -35q22 -28 22 -70v-192zM568 362q0 -104 -154 -102q-54 -2 -140 -1l-1 -173q1 -65 33 -86h-154q21 26 26 40.5t5 47.5v484q19 95 115 95h182q37 0 61 -23.5t27 -59.5v-222z
M201 669q-58 -38 -53 -97v-486q3 -13 -7 -41q-17 -44 -66 -45h-54q43 44 42 90v486q3 71 -54 93h192zM479 380v148q-5 55 -47 55h-58l-52 1q-26 1 -36 -10q-13 -14 -13 -56v-174h163q16 0 29.5 10.5t13.5 25.5z" />
    <glyph glyph-name="Q" unicode="Q" horiz-adv-x="785" 
d="M503 531q0 27 -23 42q-18 10 -43 10h-137q-58 0 -58 -55v-119q-1 -2 -1 -145q0 -51 9 -73q17 -44 73 -58h-76q-80 0 -91 111q2 111 2 156q0 46 -2 157q5 48 33.5 79t76.5 31q105 1 220 0q103 -1 102 -110q0 -356 1 -337q-2 -77 -92 -132q31 -2 256 0l-45 -88h-565l48 83
l146 1q93 1 131 35q35 32 35 104v308zM565 667l43 -1q46 -1 76 -39q26 -32 26 -67v-293q0 -39 -18 -79q-26 -55 -72 -55h-30q37 24 37 84v367q0 19 -14 42q-17 30 -48 41zM185 666q-31 -11 -51 -39q-16 -23 -16 -41v-369q0 -53 43 -81h-48q-47 0 -69 54q-14 35 -14 77v293
q0 32 30 69t66 37h59z" />
    <glyph glyph-name="R" unicode="R" horiz-adv-x="761" 
d="M682 429q0 -51 -27 -88q-31 -43 -85 -43q-3 0 -15.5 1t-17.5 1q24 13 40.5 38t16.5 48v195q1 62 -53 85h41q45 -1 74 -34q26 -29 26 -64v-139zM747 70q-22 -34 -42 -70h-67q-68 0 -97 6q-52 12 -80 50q-49 72 -179 238q-5 6 -19 0v-193q-1 -8 -1 -18q0 -58 40 -83h-171
q26 15 34 49q4 17 4 61v438q1 37 22 71q27 42 72 47h193q42 2 74 -35q29 -33 29 -67v-134q0 -73 -37 -106q-39 -37 -129 -32q37 -51 131 -174q35 -48 105 -48h118zM691 99q-22 -3 -54 -2q-57 1 -105 64q-38 54 -76 107q4 0 15.5 2t15.5 2q49 0 80 -39q33 -45 67 -91
q19 -14 57 -43zM195 667q-61 -17 -61 -97v-465q0 -58 -15 -79q-19 -28 -78 -28q-3 0 -18.5 1t-20.5 1q45 34 45 60v520q3 25 -14 52q-14 22 -33 35h195zM471 527q-1 36 -22 46q-8 4 -38 4h-92q-32 1 -43.5 -9t-13.5 -43q-3 -39 -1 -137l158 1q52 -4 52 47q-2 -2 0 91z" />
    <glyph glyph-name="S" unicode="S" horiz-adv-x="691" 
d="M591 619q-17 36 -56 48h57zM621 113q0 -33 -26 -71q-30 -43 -67 -42h-57q42 30 49 41q11 16 11 58q0 103 -2 115q-4 40 -39 64q-99 40 -305 136q-30 16 -38 43q-3 10 -3 39q0 86 0 85q2 50 45 73q34 19 72 13h187q51 0 92 -30q49 -37 49 -103q0 -4 1 -19v-15
q-64 56 -66 57q-27 17 -78 17h-164q-27 2 -33 -18q0 -14 -1 -27q-5 -46 24 -60q71 -35 267 -113q80 -33 81 -136zM495 93q0 -33 -35 -63t-70 -30h-214q-41 0 -83 25q-52 31 -66 82q0 87 -1 84q36 -69 99 -93q37 -14 104 -14h127q32 0 37 1q20 5 20 29q0 47 -1 45q2 16 -9 25
q-5 5 -29 16l-140 60q-91 40 -141 74q-68 47 -66 113q-1 61 0 142q4 35 33 57.5t74 22.5h35q-52 -15 -60 -78v-123q0 -30 1 -30q3 -17 26 -35q38 -30 144 -79q91 -42 183 -83q34 -16 32 -58v-90zM78 0h-53v49q15 -31 53 -49z" />
    <glyph glyph-name="T" unicode="T" horiz-adv-x="597" 
d="M378 554v-485q0 -13 14.5 -36.5t25.5 -32.5h-157q28 34 32 77l-1 424q0 76 10 104q22 64 97 65q44 0 90 -31q55 -37 55 -90v-22q1 -18 1 -26q-22 36 -65 59q-39 21 -74 21q-17 0 -22.5 -5t-5.5 -22zM59 666q-25 -9 -33.5 -16t-21.5 -29v45h55zM305 667q-35 -24 -42 -74
q-2 -13 -2 -112v-395q0 -32 -15 -55q-20 -31 -61 -31q-2 0 -24 1h-31q20 10 33 32q12 19 12 37v480q0 27 -21 27q-36 0 -79 -20q-50 -23 -71 -59v26q1 19 1 22q0 53 53 90q45 31 88 31h159zM493 666q24 -9 34 -17q7 -6 21 -28v45h-55z" />
    <glyph glyph-name="U" unicode="U" horiz-adv-x="663" 
d="M626 667q-10 -3 -25 -31q-18 -32 -18 -59v-443q3 -44 -20 -79q-35 -53 -120 -55h-157q-54 0 -88 27q-44 35 -41 109v393q0 57 15 84q23 41 91 54h23q-26 -12 -33 -43q-4 -17 -4 -57v-433q0 -25 9 -35t35 -11q70 -4 156 0q20 1 32.5 15t12.5 28l-1 446q0 65 -45 90h178z
M177 1h-34q-53 2 -83 45q-24 35 -24 73l-1 450q0 63 -39 99l179 -1q-50 -31 -50 -92v-477q0 -57 52 -97z" />
    <glyph glyph-name="V" unicode="V" horiz-adv-x="699" 
d="M668 667q-23 -17 -30.5 -28t-14.5 -36q-70 -253 -144 -534q-2 -10 -2 -17q0 -10 6 -21q15 -24 17 -29h-239q32 33 40 54q4 9 4 32q0 26 -56 255t-56 244q0 88 109 82q11 0 28 -2q-18 -12 -33 -31q-18 -23 -14 -38l113 -467q19 53 72 243q57 205 57 233q0 38 -31 59z
M265 95q3 -30 -28 -64.5t-60 -34.5h-29q27 42 27 56q0 18 -6 45l-115 474q-12 55 -68 96l196 -1q-32 -36 -32 -64q0 -9 1 -19z" />
    <glyph glyph-name="W" unicode="W" horiz-adv-x="1063" 
d="M1028 668q-31 -10 -46 -64l-76 -272q-68 -245 -68 -263q0 -42 29 -69l-246 2q32 33 40 54q3 9 3 32q0 26 -55.5 254t-55.5 243q0 46 20.5 64t65.5 18h48q-18 -11 -33 -33t-11 -38l113 -465q19 53 72 244q57 205 57 233q0 38 -31 59zM630 97q2 -31 -23.5 -64t-54.5 -33
h-40q9 13 18.5 26.5t9.5 27.5q0 18 -7 45q-40 159 -115 472q-12 55 -68 96h202q-39 -24 -39 -58q0 -10 2 -26zM269 1q32 33 41 54q4 11 4 33q0 26 -55.5 254t-55.5 243q0 46 21 64t70 18q34 0 33 1q-16 -11 -27 -33.5t-7 -38.5l125 -500q12 -51 57 -95h-206zM280 97
q2 -30 -29 -64.5t-60 -34.5h-29q28 42 28 56q0 18 -7 45q-40 159 -115 472q-12 55 -68 96l196 -1q-32 -36 -32 -64q0 -9 1 -19z" />
    <glyph glyph-name="X" unicode="X" horiz-adv-x="714" 
d="M685 1q-9 -1 -30 -1q-67 0 -85 7q-28 12 -56 65l-286 537q-24 46 -60 59h177q-21 -17 -21 -40q0 -6 95 -180q75 132 75 171q0 30 -25 48h163q-36 -21 -45 -52l-123 -256q82 -156 104 -194q85 -150 117 -164zM520 0h-174q2 5 12 21q6 11 6 23q0 24 -37 105q-30 64 -54 105
q-14 -15 -59.5 -102t-45.5 -103q0 -36 24 -49h-185q25 19 32 26q11 11 25 35q16 28 84 157q72 137 72 144q0 11 -66 121.5t-66 111.5q-43 66 -57 71q15 2 29 2q54 0 87 -25q25 -19 53 -68q46 -81 217 -403q19 -35 55 -105q11 -22 48 -67z" />
    <glyph glyph-name="Y" unicode="Y" horiz-adv-x="668" 
d="M645 667q-39 -7 -66 -60q-42 -74 -157 -273l1 -244q0 -21 14 -49q15 -32 32 -41l-181 1q49 33 49 102l-1 244q0 9 -84 159q-87 155 -104 161h156l-12 -16q-9 -11 -9 -25q0 -11 5 -24q49 -87 100 -181q8 8 46 73q43 74 54 108q6 18 6 30q0 14 -23 35h174zM302 106
q0 -45 -26 -75t-72 -30h-31q13 11 27.5 35.5t14.5 38.5v254q0 11 -91 164q-97 161 -124 174h39q10 1 19 1q36 0 57 -18q9 -8 24 -32q12 -18 163 -276v-236z" />
    <glyph glyph-name="Z" unicode="Z" horiz-adv-x="615" 
d="M562 125q-3 -89 -83 -113q-34 -11 -140 -11h-109q-22 0 -35 16.5t-12 41.5q0 19 121.5 268.5t121.5 284.5q0 28 0 26q-3 16 -21 29l149 -1l-267 -583h110q61 0 96.5 21t68.5 76q2 -7 0 -55zM89 667q-34 -9 -62 -44l-1 44h63zM562 1h-39q21 9 39 36v-36zM379 606
q0 -28 -119 -274.5t-120 -275.5q-1 -13 18 -55h-152l275 584q-14 0 -42 -1q-16 0 -31 -1q-60 0 -97.5 -20t-83.5 -77v71q0 46 58 79q54 31 120 31h116q58 0 58 -61z" />
    <glyph glyph-name="bracketleft" unicode="[" horiz-adv-x="280" 
d="M210 802v-63h-108v-854h108v-63l-206 1v979h206z" />
    <glyph glyph-name="backslash" unicode="\" horiz-adv-x="498" 
d="M-37 749l448 -840l84 -1l-445 841h-87z" />
    <glyph glyph-name="bracketright" unicode="]" horiz-adv-x="280" 
d="M5 802v-63h107v-854h-107v-63l205 1v979h-205z" />
    <glyph glyph-name="asciicircum" unicode="^" horiz-adv-x="468" 
d="M350 730l-9 -30l-121 43l-122 -43l-9 30l128 82l3 -1l2 1l1 -3z" />
    <glyph glyph-name="underscore" unicode="_" horiz-adv-x="538" 
d="M0 -78h538v-52h-538v52z" />
    <glyph glyph-name="grave" unicode="`" horiz-adv-x="324" 
d="M180 706h92l-110 107h-133z" />
    <glyph glyph-name="a" unicode="a" horiz-adv-x="840" 
d="M812 1h-218q40 21 40 72q0 27 -77 256t-77 261q0 77 90 77h40q-37 -47 -37 -84q0 -43 158 -489q14 -39 81 -93zM591 76q0 -66 -70 -74q-33 0 -50 -1q-17 0 -12 0q38 39 38 86q0 29 -36 122l-236 1q-45 -98 -45 -141q0 -33 35 -68h-213q16 11 31 21q22 19 34 48
q35 86 105 296.5t70 227.5q0 36 -28 73h255q-22 -21 -25 -26q-7 -13 -7 -43q0 -36 77 -259t77 -263zM437 298q-18 70 -82 262q-2 10 -5 14t-13 5l-89 -281h189z" />
    <glyph glyph-name="b" unicode="b" horiz-adv-x="744" 
d="M669 447q-24 -70 -108 -76q35 30 35 62v167q-4 25 -25 45q-16 16 -31 22h45q50 0 72 -38q17 -28 12 -43q2 -60 0 -139zM679 238v-125q0 -47 -38 -81q-41 -37 -100 -31l32 28q22 23 24 61v180q0 56 -36 82q51 0 86 -35t32 -79zM558 99q-1 -40 -33 -69.5t-78 -28.5h-311
q44 16 39 75v477q-1 57 37 88q35 29 86 27q13 -1 161 -1q41 0 70.5 -30t29.5 -74v-125q0 -18 -24 -48.5t-41 -37.5q64 -25 64 -80v-173zM185 668q-30 -11 -41 -39q-3 -6 -9 -48l-1 -517q-6 -63 -87 -63h-39q39 27 39 55v539q0 44 -38 73h176zM468 425v95q0 60 -51 60
q-100 0 -100 -1q-32 -1 -46 -20q-12 -14 -9 -30v-140l103 1q50 0 59 1q44 7 44 34zM470 261q-5 45 -41 45q-7 0 -117 1l-49 49v-222q-5 -46 61 -46h47q43 1 46 1q50 0 53 47q5 83 0 125z" />
    <glyph glyph-name="c" unicode="c" horiz-adv-x="668" 
d="M236 537q0 45 65 45q3 0 66 -1h100q40 2 73 -24q42 -33 59 -107l-1 128q0 27 -34 57q-39 35 -90 33h-229q-83 0 -94 -111q2 -111 2 -223q0 -111 -2 -222q11 -113 94 -113l224 1q51 -2 93 33q36 30 36 57l1 129q-17 -74 -59 -108q-33 -26 -73 -24l-166 -1q-65 0 -65 46
v405zM598 668l-39 1q13 -8 39 -37q-1 19 0 36zM180 668q-31 -11 -51 -40q-16 -24 -16 -42v-501q-3 -57 41 -84l-43 -2q-46 0 -70 61q-16 42 -16 85v415q0 32 30 70.5t66 37.5h59zM598 0l-39 -1q13 8 39 37q-1 -18 0 -36z" />
    <glyph glyph-name="d" unicode="d" horiz-adv-x="762" 
d="M689 106q0 -47 -33 -78q-29 -27 -64 -27h-43q52 17 55 90v461q0 39 -13 70q-17 38 -48 46q-5 -1 44.5 -1.5t78.5 -45.5q25 -37 22 -75zM567 102q0 -36 -25 -66q-30 -35 -77 -35h-328q10 11 19 22q16 18 16 39l1 518q3 39 30 63.5t70 24.5h180q113 0 113 -128zM470 143
v389q-1 33 -21 42q-8 4 -34 4h-116q-40 0 -40 -44v-402q0 -22 15 -34.5t30 -11.5q7 1 114 -1q55 2 52 58zM186 668q-30 -11 -41 -39q-3 -6 -9 -48l-1 -517q-6 -63 -87 -63h-39q39 27 39 55v539q0 44 -38 73h176z" />
    <glyph glyph-name="e" unicode="e" horiz-adv-x="654" 
d="M458 260q-19 14 -53 40q14 5 27 10.5t27 22.5zM319 89q-49 0 -50 39v157q-2 13 5.5 20.5t17.5 7.5l50 -1q47 7 80 23q40 21 39 50v91q-10 -21 -48 -50.5t-65 -29.5q-4 0 -24 -1h-24q-30 0 -27 32v119q0 37 40 37h150q90 0 121 -133l1 140q-4 19 -32 44q-38 34 -87 33
h-173q-46 0 -68 -19q-43 -37 -41 -146v-372q0 -40 -6 -61q-11 -36 -47 -69h331q48 -2 89 33q30 27 34 45l-1 142q-23 -102 -125 -131h-140zM200 667q-39 -27 -49 -65q0 -1 -6 -55v-450q0 -23 -27 -59q-31 -38 -58 -38h-57q46 18 53 82l-1 429q1 0 1 34q1 41 -7 69
q-12 40 -40 54zM584 667l-38 -1q11 -7 21 -13.5t17 -20.5v35zM585 -2l-41 2q11 7 22 14.5t18 21.5q0 -19 1 -38z" />
    <glyph glyph-name="f" unicode="f" horiz-adv-x="641" 
d="M458 260q-19 14 -53 40q14 5 27 10.5t27 22.5zM269 128v157q-2 13 5.5 20.5t17.5 7.5l50 -1q47 7 80 23q40 21 39 50v91q-10 -21 -48 -50.5t-65 -29.5q-4 0 -24 -1h-24q-30 0 -27 32v119q0 37 40 37h150q90 0 121 -133l1 140q-4 19 -32 44q-38 34 -87 33h-173
q-46 0 -68 -19q-43 -37 -41 -146v-372q0 -40 -6 -61q-11 -36 -47 -69h195q-38 22 -51 79q-8 34 -6 49zM200 667q-56 -36 -56 -141q0 -11 1 -29v-25v-375q0 -23 -27 -59q-31 -38 -58 -38h-57q46 18 53 82l-1 429q1 0 1 34q1 41 -7 69q-12 40 -40 54zM584 667l-38 -1
q11 -7 21 -13.5t17 -20.5v35z" />
    <glyph glyph-name="g" unicode="g" horiz-adv-x="737" 
d="M608 626q-11 14 -45 39h21q16 1 24 1v-40zM699 389q-38 -19 -38 -90q0 -10 1 -29v-28v-165q0 -39 -38 -61q-29 -17 -61 -17q-3 0 -18 1h-19q14 4 32 31.5t18 40.5v241q0 22 16 46q20 31 51 30h56zM250 -1q-83 3 -94 113q2 111 2 222q0 112 -2 223q4 47 35 78t77 31h151
q68 0 106 -14q61 -22 87 -85v-87q-25 51 -59.5 73t-92.5 24q1 1 -154 1q-31 0 -42 -6q-22 -13 -22 -55q0 -78 -1 -181q0 67 0 -208q0 -45 65 -45q2 0 90 1q35 -2 46 15q6 11 6 46q0 49 -1 154h-106q20 88 128 88q13 0 39 -1t38 -1q16 0 27 1q-36 -39 -36 -85q0 -6 1 -21
q1 -12 0 -20v-83v-109q0 -27 -32.5 -49t-54.5 -17q-20 -9 -201 -3zM184 666q-28 -2 -50 -38q-17 -29 -17 -50v-493q-2 -56 44 -85l-44 -1q-47 0 -70 47q-17 34 -17 80l1 434q0 36 23 67q27 39 73 38z" />
    <glyph glyph-name="h" unicode="h" horiz-adv-x="752" 
d="M715 2l-57 -1q-41 0 -57 27q-12 21 -12 64l-1 489q0 60 -41 84h167q-38 -41 -38 -65l1 -553q0 -16 38 -45zM299 0q-24 0 -160 1q32 28 32 82l-1 498q0 33 26.5 58t60.5 26l38 1q-43 -32 -43 -58v-217h183l32 -34v251q0 25 -44 58h49q34 0 55 -24t21 -58l1 -501
q0 -56 30 -82q-133 -1 -158 -1q47 25 47 71v119q-1 79 -1 119l-171 -1l-41 50v6q-1 -49 -1 -295q0 -45 45 -69zM173 665q-42 -24 -42 -90v-483q0 -45 -13 -65q-16 -26 -60 -26q-2 0 -53 1q38 28 38 45v540q0 30 -12 49q-4 7 -25 29h167z" />
    <glyph glyph-name="i" unicode="i" horiz-adv-x="333" 
d="M114 1q29 10 41 28q9 15 14 48v91v217v211q1 26 26.5 48t52.5 22h43q-39 -27 -39 -53l1 -539q0 -44 38 -73h-177zM179 666q-50 -18 -50 -87l-1 -515q0 -25 -30 -44.5t-57 -19.5q-4 0 -19 1h-20q39 23 39 55v537q0 44 -38 73h176z" />
    <glyph glyph-name="j" unicode="j" horiz-adv-x="384" 
d="M351 668q-1 -3 -25 -34q-16 -20 -16 -40v-459q0 -57 -40 -96t-97 -39h-122l-49 74h143q33 0 57 33q22 29 22 56v354q0 148 65 149zM228 665q-43 -23 -43 -84v-415q0 -26 -28 -45t-54 -19q-46 0 -45 0q39 27 39 55v438q0 42 -37 70h168z" />
    <glyph glyph-name="k" unicode="k" horiz-adv-x="752" 
d="M680 111q-7 -1 -51 -1q-56 0 -87 38q-4 5 -54 94q-39 72 -97 121q18 4 36 4q64 2 110 -50q22 -24 69 -108q40 -72 74 -98zM720 78q-14 -26 -41 -77h-85h-34q-28 4 -62.5 24.5t-64.5 69.5q-34 60 -68 121q-64 105 -92 105q-12 0 -12 -13v-237q0 -47 36 -71h-151
q31 22 31 66q0 10 -2 22l-1 449q0 130 90 135q4 0 15 -2t18 -2q-13 -5 -24.5 -27t-11.5 -35v-197q6 -9 16 -9q14 0 29 19q59 45 171 167q1 -4 4 6.5t3 23.5q0 34 -24 52h217q-45 -34 -192 -185q-116 -119 -156 -121q55 -21 102 -92q35 -61 70 -121q41 -63 84 -71
q17 -3 69 -0.5t66 0.5zM167 664q-26 -19 -31 -74v-510q1 -34 -22 -57.5t-60 -22.5h-42q40 33 40 81v20q-1 13 -1 20v469q0 43 -36 74h152z" />
    <glyph glyph-name="l" unicode="l" horiz-adv-x="609" 
d="M183 531l1 -401q0 -40 -6 -61q-11 -36 -47 -69h301q48 -2 88 33q30 27 34 45v142q-23 -102 -125 -131h-110q-49 0 -50 39q0 202 1 415q4 65 24 97q15 24 34 24q-19 3 -33 3q-113 0 -112 -136zM200 667q-55 -37 -55 -111q0 -9 1 -16l-1 -443q0 -23 -27 -59
q-31 -38 -58 -38h-57q46 18 53 82l2 452v28q0 34 -9 58q-12 34 -40 48zM555 -2l-41 2q11 7 22 14.5t18 21.5q0 -19 1 -38z" />
    <glyph glyph-name="m" unicode="m" horiz-adv-x="943" 
d="M897 1h-171q41 37 41 85q0 7 -1.5 17.5t-1.5 12.5q-1 57 -1 437q0 116 77 116h32q-17 -26 -21 -63q-1 -13 -1 -70l-1 -420q2 -46 11.5 -67.5t36.5 -47.5zM760 668q-20 -12 -28 -28q-6 -10 -12 -40v-511q-3 -88 -102 -86l-40 -2q29 16 41 48v480l-159 -374
q-129 289 -212 468q-7 15 -12 21q-11 15 -33 24q52 2 78 -1q39 -4 63 -42q11 -24 21 -48q23 -45 92 -214q34 74 94 210q38 95 105 95q-2 0 -1.5 0h19.5h86zM431 113q-18 -45 -43 -105l-238 521v-423q1 -40 6 -55q9 -24 41 -50h-172q28 20 36 48q4 16 4 61v429q-1 42 -30 48
q-18 -2 -54 0q18 46 40 81h85q39 0 61 -12.5t37 -45.5q20 -42 227 -497z" />
    <glyph glyph-name="n" unicode="n" horiz-adv-x="761" 
d="M707 668q-39 -30 -40 -66q-3 -115 -1 -604q-123 161 -222 287q-237 302 -310 383h66q29 0 50 -15q17 -13 43 -48q31 -34 288 -371v368q0 31 -42 66h168zM610 1l-98 -3q-8 0 -147 179q-173 223 -207 263q-1 -5 -2 -358q0 -55 38 -83h-160q23 18 31 43q3 8 7 39l-1 429
q-2 43 -37 59q-14 6 -65 12q16 45 38 90q13 2 24 2q31 0 52 -15q8 -5 29 -28q83 -89 290 -356q139 -180 208 -273z" />
    <glyph glyph-name="o" unicode="o" horiz-adv-x="777" 
d="M716 128q0 -38 -18 -75q-25 -52 -71 -52l-40 -1q49 41 47 85v501q0 62 -53 81l34 -1q46 0 76 -38q26 -33 26 -68zM596 112q-12 -112 -99 -112h-230q-93 0 -104 112q2 111 2 222q0 112 -2 223q11 111 95 111h243q48 0 72 -30.5t23 -80.5q-3 -111 -3 -223q0 -111 3 -222z
M180 667q-22 -10 -38.5 -37.5t-16.5 -43.5v-501q-1 -31 13.5 -54.5t38.5 -30.5l-53 -1q-48 0 -72 46q-17 32 -17 68v456q0 37 30 68t68 30h47zM510 141l-1 387q0 54 -63 54h-133q-64 0 -64 -54q0 25 0 -141v-78q0 -195 0 -164q0 -29 19 -44q16 -14 39 -14h147q53 0 56 54z
" />
    <glyph glyph-name="p" unicode="p" horiz-adv-x="734" 
d="M684 370q0 -32 -29 -67t-61 -37h-37q48 34 48 111v210q-5 22 -10 43q-10 24 -34 37h23q52 0 78 -35q22 -28 22 -70v-192zM568 362q0 -104 -154 -102q-54 -2 -140 -1l-1 -173q1 -65 33 -86h-154q21 26 26 40.5t5 47.5v484q19 95 115 95h182q37 0 61 -23.5t27 -59.5v-222z
M201 669q-58 -38 -53 -97v-486q3 -13 -7 -41q-17 -44 -66 -45h-54q43 44 42 90v486q3 71 -54 93h192zM479 380v148q-5 55 -47 55h-58l-52 1q-26 1 -36 -10q-13 -14 -13 -56v-174h163q16 0 29.5 10.5t13.5 25.5z" />
    <glyph glyph-name="q" unicode="q" horiz-adv-x="785" 
d="M503 531q0 27 -23 42q-18 10 -43 10h-137q-58 0 -58 -55v-119q-1 -2 -1 -145q0 -51 9 -73q17 -44 73 -58h-76q-80 0 -91 111q2 111 2 156q0 46 -2 157q5 48 33.5 79t76.5 31q105 1 220 0q103 -1 102 -110q0 -356 1 -337q-2 -77 -92 -132q31 -2 256 0l-45 -88h-565l48 83
l146 1q93 1 131 35q35 32 35 104v308zM565 667l43 -1q46 -1 76 -39q26 -32 26 -67v-293q0 -39 -18 -79q-26 -55 -72 -55h-30q37 24 37 84v367q0 19 -14 42q-17 30 -48 41zM185 666q-31 -11 -51 -39q-16 -23 -16 -41v-369q0 -53 43 -81h-48q-47 0 -69 54q-14 35 -14 77v293
q0 32 30 69t66 37h59z" />
    <glyph glyph-name="r" unicode="r" horiz-adv-x="761" 
d="M682 429q0 -51 -27 -88q-31 -43 -85 -43q-3 0 -15.5 1t-17.5 1q24 13 40.5 38t16.5 48v195q1 62 -53 85h41q45 -1 74 -34q26 -29 26 -64v-139zM747 70q-22 -34 -42 -70h-67q-68 0 -97 6q-52 12 -80 50q-49 72 -179 238q-5 6 -19 0v-193q-1 -8 -1 -18q0 -58 40 -83h-171
q26 15 34 49q4 17 4 61v438q1 37 22 71q27 42 72 47h193q42 2 74 -35q29 -33 29 -67v-134q0 -73 -37 -106q-39 -37 -129 -32q37 -51 131 -174q35 -48 105 -48h118zM691 99q-22 -3 -54 -2q-57 1 -105 64q-38 54 -76 107q4 0 15.5 2t15.5 2q49 0 80 -39q33 -45 67 -91
q19 -14 57 -43zM195 667q-61 -17 -61 -97v-465q0 -58 -15 -79q-19 -28 -78 -28q-3 0 -18.5 1t-20.5 1q45 34 45 60v520q3 25 -14 52q-14 22 -33 35h195zM471 527q-1 36 -22 46q-8 4 -38 4h-92q-32 1 -43.5 -9t-13.5 -43q-3 -39 -1 -137l158 1q52 -4 52 47q-2 -2 0 91z" />
    <glyph glyph-name="s" unicode="s" horiz-adv-x="691" 
d="M591 619q-17 36 -56 48h57zM621 113q0 -33 -26 -71q-30 -43 -67 -42h-57q42 30 49 41q11 16 11 58q0 103 -2 115q-4 40 -39 64q-99 40 -305 136q-30 16 -38 43q-3 10 -3 39q0 86 0 85q2 50 45 73q34 19 72 13h187q51 0 92 -30q49 -37 49 -103q0 -4 1 -19v-15
q-64 56 -66 57q-27 17 -78 17h-164q-27 2 -33 -18q0 -14 -1 -27q-5 -46 24 -60q71 -35 267 -113q80 -33 81 -136zM495 93q0 -33 -35 -63t-70 -30h-214q-41 0 -83 25q-52 31 -66 82q0 87 -1 84q36 -69 99 -93q37 -14 104 -14h127q32 0 37 1q20 5 20 29q0 47 -1 45q2 16 -9 25
q-5 5 -29 16l-140 60q-91 40 -141 74q-68 47 -66 113q-1 61 0 142q4 35 33 57.5t74 22.5h35q-52 -15 -60 -78v-123q0 -30 1 -30q3 -17 26 -35q38 -30 144 -79q91 -42 183 -83q34 -16 32 -58v-90zM78 0h-53v49q15 -31 53 -49z" />
    <glyph glyph-name="t" unicode="t" horiz-adv-x="597" 
d="M385 554v-485q0 -13 14.5 -36.5t25.5 -32.5h-156q27 34 31 77l-1 424q0 76 10 104q22 64 97 65q44 0 90 -31q55 -37 55 -90v-22q1 -18 1 -26q-22 36 -65 59q-39 21 -74 21q-17 0 -22.5 -5t-5.5 -22zM66 666q-25 -9 -33.5 -16t-21.5 -29v45h55zM312 667q-35 -24 -42 -74
q-2 -13 -2 -112v-395q0 -32 -15 -55q-20 -31 -61 -31q-2 0 -24 1h-31q20 10 33 32q13 19 13 37l-1 480q0 27 -20 27q-37 0 -80 -20q-50 -23 -71 -59v26q1 19 1 22q0 53 53 90q45 31 88 31h159zM500 666q24 -9 34 -17q7 -6 21 -28v45h-55z" />
    <glyph glyph-name="u" unicode="u" horiz-adv-x="663" 
d="M626 667q-10 -3 -25 -31q-18 -32 -18 -59v-443q3 -44 -20 -79q-35 -53 -120 -55h-157q-54 0 -88 27q-44 35 -41 109v393q0 57 15 84q23 41 91 54h23q-26 -12 -33 -43q-4 -17 -4 -57v-433q0 -25 9 -35t35 -11q70 -4 156 0q20 1 32.5 15t12.5 28l-1 446q0 65 -45 90h178z
M177 1h-34q-53 2 -83 45q-24 35 -24 73l-1 450q0 63 -39 99l179 -1q-50 -31 -50 -92v-477q0 -57 52 -97z" />
    <glyph glyph-name="v" unicode="v" horiz-adv-x="699" 
d="M668 667q-23 -17 -30.5 -28t-14.5 -36q-70 -253 -144 -534q-2 -10 -2 -17q0 -10 6 -21q15 -24 17 -29h-239q32 33 40 54q4 9 4 32q0 26 -56 255t-56 244q0 88 109 82q11 0 28 -2q-18 -12 -33 -31q-18 -23 -14 -38l113 -467q19 53 72 243q57 205 57 233q0 38 -31 59z
M265 95q3 -30 -28 -64.5t-60 -34.5h-29q27 42 27 56q0 18 -6 45l-115 474q-12 55 -68 96l196 -1q-32 -36 -32 -64q0 -9 1 -19z" />
    <glyph glyph-name="w" unicode="w" horiz-adv-x="1063" 
d="M1021 668q-31 -10 -46 -64l-76 -272q-68 -245 -68 -263q0 -42 29 -69l-246 2q32 33 40 54q3 9 3 32q0 26 -55.5 254t-55.5 243q0 46 20.5 64t65.5 18h48q-18 -11 -33 -33t-11 -38l113 -465q19 53 72 244q57 205 57 233q0 38 -31 59zM623 97q2 -31 -23.5 -64t-54.5 -33
h-40q9 13 18.5 26.5t9.5 27.5q0 18 -7 45q-40 159 -115 472q-12 55 -68 96h202q-39 -24 -39 -58q0 -10 2 -26zM262 1q32 33 41 54q4 11 4 33q0 26 -55.5 254t-55.5 243q0 46 21 64t69 18q35 0 34 1q-16 -11 -27 -33.5t-7 -38.5l125 -500q12 -51 56 -95h-205zM273 97
q2 -30 -29 -64.5t-60 -34.5h-29q28 42 28 56q0 18 -7 45q-40 159 -115 472q-12 55 -68 96l196 -1q-32 -36 -32 -64q0 -9 1 -19z" />
    <glyph glyph-name="x" unicode="x" horiz-adv-x="714" 
d="M685 1q-9 -1 -30 -1q-67 0 -85 7q-28 12 -56 65l-286 537q-24 46 -60 59h177q-21 -17 -21 -40q0 -6 95 -180q75 132 75 171q0 30 -25 48h163q-36 -21 -45 -52l-123 -256q82 -156 104 -194q85 -150 117 -164zM520 0h-174q2 5 12 21q6 11 6 23q0 24 -37 105q-30 64 -54 105
q-14 -15 -59.5 -102t-45.5 -103q0 -36 24 -49h-185q25 19 32 26q11 11 25 35q16 28 84 157q72 137 72 144q0 11 -66 121.5t-66 111.5q-43 66 -57 71q15 2 29 2q54 0 87 -25q25 -19 53 -68q46 -81 217 -403q19 -35 55 -105q11 -22 48 -67z" />
    <glyph glyph-name="y" unicode="y" horiz-adv-x="668" 
d="M645 667q-39 -7 -66 -60q-42 -74 -157 -273l1 -244q0 -21 14 -49q15 -32 32 -41l-181 1q49 33 49 102l-1 244q0 9 -84 159q-87 155 -104 161h156l-12 -16q-9 -11 -9 -25q0 -11 5 -24q49 -87 100 -181q8 8 46 73q43 74 54 108q6 18 6 30q0 14 -23 35h174zM302 106
q0 -45 -26 -75t-72 -30h-31q13 11 27.5 35.5t14.5 38.5v254q0 11 -91 164q-97 161 -124 174h39q10 1 19 1q36 0 57 -18q9 -8 24 -32q12 -18 163 -276v-236z" />
    <glyph glyph-name="z" unicode="z" horiz-adv-x="615" 
d="M562 125q-3 -89 -83 -113q-34 -11 -140 -11h-109q-22 0 -35 16.5t-12 41.5q0 19 121.5 268.5t121.5 284.5q0 28 0 26q-3 16 -21 29l149 -1l-267 -583h110q61 0 96.5 21t68.5 76q2 -7 0 -55zM89 667q-34 -9 -62 -44l-1 44h63zM562 1h-39q21 9 39 36v-36zM379 606
q0 -28 -119 -274.5t-120 -275.5q-1 -13 18 -55h-152l275 584q-14 0 -42 -1q-16 0 -31 -1q-60 0 -97.5 -20t-83.5 -77v71q0 46 58 79q54 31 120 31h116q58 0 58 -61z" />
    <glyph glyph-name="braceleft" unicode="{" horiz-adv-x="316" 
d="M87 43v167q0 40 -17 66.5t-49 26.5h-18v64h18q32 0 49 26.5t17 66.5v167q0 155 186 178v-104q-83 -7 -83 -74v-167q0 -72 -52 -125q52 -53 52 -125v-167q0 -68 83 -74v-104q-186 22 -186 178z" />
    <glyph glyph-name="bar" unicode="|" horiz-adv-x="324" 
d="M98 799h99v-935h-99v935z" />
    <glyph glyph-name="braceright" unicode="}" horiz-adv-x="317" 
d="M184 43v167q0 40 17 66.5t49 26.5h18v64h-18q-32 0 -49 26.5t-17 66.5v167q0 155 -186 178v-104q83 -7 83 -74v-167q0 -72 52 -125q-52 -53 -52 -125v-167q0 -68 -83 -74v-104q186 22 186 178z" />
    <glyph glyph-name="asciitilde" unicode="~" horiz-adv-x="426" 
d="M141 748q-27 0 -33 -7q-4 -3 -4 -15h-46q0 27 31.5 51t61.5 24q29 0 51.5 -16t43.5 -16q34 0 33 0q4 1 24 24h44q0 -28 -35.5 -53t-65.5 -25q-25 0 -51 16.5t-54 16.5z" />
    <glyph glyph-name="Adieresis" unicode="&#xc4;" horiz-adv-x="847" 
d="M812 1h-218q40 21 40 72q0 27 -77 256t-77 261q0 77 90 77h40q-37 -47 -37 -84q0 -43 158 -489q14 -39 81 -93zM591 76q0 -66 -70 -74q-33 0 -50 -1q-17 0 -12 0q38 39 38 86q0 29 -36 122l-236 1q-45 -98 -45 -141q0 -33 35 -68h-213q16 11 31 21q22 19 34 48
q35 86 105 296.5t70 227.5q0 36 -28 73h255q-22 -21 -25 -26q-7 -13 -7 -43q0 -36 77 -259t77 -263zM437 298q-18 70 -82 262q-2 10 -5 14t-13 5l-89 -281h189zM451 766q0 22 16.5 37.5t38.5 15.5q23 0 39.5 -15.5t16.5 -37.5t-16.5 -37.5t-39.5 -15.5q-22 0 -38.5 15.5
t-16.5 37.5zM263 766q0 22 16.5 37.5t38.5 15.5q23 0 39.5 -15.5t16.5 -37.5t-16.5 -37.5t-39.5 -15.5q-22 0 -38.5 15.5t-16.5 37.5z" />
    <glyph glyph-name="Aring" unicode="&#xc5;" horiz-adv-x="847" 
d="M812 1h-218q40 21 40 72q0 27 -77 256t-77 261q0 77 90 77h40q-37 -47 -37 -84q0 -43 158 -489q14 -39 81 -93zM591 76q0 -66 -70 -74q-33 0 -50 -1q-17 0 -12 0q38 39 38 86q0 29 -36 122l-236 1q-45 -98 -45 -141q0 -33 35 -68h-213q16 11 31 21q22 19 34 48
q35 86 105 296.5t70 227.5q0 36 -28 73h255q-22 -21 -25 -26q-7 -13 -7 -43q0 -36 77 -259t77 -263zM437 298q-18 70 -82 262q-2 10 -5 14t-13 5l-89 -281h189zM409 847q36 0 61.5 -21.5t25.5 -50.5q0 -30 -25.5 -51.5t-61.5 -21.5t-61.5 21.5t-25.5 51.5q0 29 25.5 50.5
t61.5 21.5zM409 812q-18 0 -31.5 -11t-13.5 -26q0 -16 13.5 -27t31.5 -11q19 0 32 11t13 27q0 15 -13 26t-32 11z" />
    <glyph glyph-name="Ccedilla" unicode="&#xc7;" horiz-adv-x="668" 
d="M598 632q-7 13 -20 22q-17 13 -19 15l39 -1q-1 -17 0 -36zM598 0l-39 -1q13 8 39 37q-1 -18 0 -36zM180 668q-31 -11 -51 -40q-16 -24 -16 -42v-501q0 -58 41 -84l-43 -2q-46 -1 -70 61q-16 42 -16 85v415q0 32 30 70t66 38h59zM499 -117q0 -42 -54 -67q-48 -22 -121 -22
q-8 0 -88 24l28 40q29 -19 77 -19q50 0 50 39q0 43 -47 43q-10 0 -65 -1q2 53 1 80h-33q-85 0 -96 112q2 111 2 222q0 112 -2 223q11 111 94 111h229q51 0 90 -34q34 -29 34 -56l1 -128q-30 130 -132 131l-166 1q-65 0 -65 -45v-405q0 -46 65 -46l166 1q102 1 132 132
l-1 -129q0 -26 -36 -56q-42 -35 -93 -34q-74 1 -130 0v-45q24 4 43 4q51 0 84 -22.5t33 -53.5z" />
    <glyph glyph-name="Eacute" unicode="&#xc9;" horiz-adv-x="654" 
d="M458 260q-19 14 -53 40q14 5 27 10.5t27 22.5zM319 89q-49 0 -50 39v157q-2 13 5.5 20.5t17.5 7.5l50 -1q47 7 80 23q40 21 39 50v91q-10 -21 -48 -50.5t-65 -29.5q-4 0 -24 -1h-24q-30 0 -27 32v119q0 37 40 37h150q90 0 121 -133l1 140q-4 19 -32 44q-38 34 -87 33
h-173q-46 0 -68 -19q-43 -37 -41 -146v-372q0 -40 -6 -61q-11 -36 -47 -69h331q48 -2 89 33q30 27 34 45l-1 142q-23 -102 -125 -131h-140zM200 667q-39 -27 -49 -65q0 -1 -6 -55v-450q0 -23 -27 -59q-31 -38 -58 -38h-57q46 18 53 82l-1 429q1 0 1 34q1 41 -7 69
q-12 40 -40 54zM584 667l-38 -1q11 -7 21 -13.5t17 -20.5v35zM585 -2l-41 2q11 7 22 14.5t18 21.5q0 -19 1 -38zM306 705l-87 1l106 105h132z" />
    <glyph glyph-name="Ntilde" unicode="&#xd1;" horiz-adv-x="761" 
d="M707 668q-39 -30 -40 -66q-3 -115 -1 -604q-123 161 -222 287q-237 302 -310 383h66q29 0 50 -15q17 -13 43 -48q31 -34 288 -371v368q0 31 -42 66h168zM610 1l-98 -3q-8 0 -147 179q-173 223 -207 263q-1 -5 -2 -358q0 -55 38 -83h-160q23 18 31 43q3 8 7 39l-1 429
q-2 43 -37 59q-14 6 -65 12q16 45 38 90q13 2 24 2q31 0 52 -15q8 -5 29 -28q83 -89 290 -356q139 -180 208 -273zM291 738q-27 0 -33 -7q-4 -3 -4 -15h-46q0 27 31.5 51t61.5 24q29 0 51.5 -16t43.5 -16q34 0 33 0q4 1 24 24h44q0 -28 -35.5 -53t-65.5 -25q-25 0 -51 16.5
t-54 16.5z" />
    <glyph glyph-name="Odieresis" unicode="&#xd6;" horiz-adv-x="777" 
d="M716 128q0 -38 -18 -75q-25 -52 -71 -52l-40 -1q49 41 47 85v501q0 62 -53 81l34 -1q46 0 76 -38q26 -33 26 -68zM596 112q-12 -112 -99 -112h-230q-93 0 -104 112q2 111 2 222q0 112 -2 223q11 111 95 111h243q48 0 72 -30.5t23 -80.5q-3 -111 -3 -223q0 -111 3 -222z
M180 667q-22 -10 -38.5 -37.5t-16.5 -43.5v-501q-1 -31 13.5 -54.5t38.5 -30.5l-53 -1q-48 0 -72 46q-17 32 -17 68v456q0 37 30 68t68 30h47zM510 141l-1 387q0 54 -63 54h-133q-64 0 -64 -54q0 25 0 -141v-78q0 -195 0 -164q0 -29 19 -44q16 -14 39 -14h147q53 0 56 54z
M401 766q0 22 16.5 37.5t38.5 15.5q23 0 39.5 -15.5t16.5 -37.5t-16.5 -37.5t-39.5 -15.5q-22 0 -38.5 15.5t-16.5 37.5zM213 766q0 22 16.5 37.5t38.5 15.5q23 0 39.5 -15.5t16.5 -37.5t-16.5 -37.5t-39.5 -15.5q-22 0 -38.5 15.5t-16.5 37.5z" />
    <glyph glyph-name="Udieresis" unicode="&#xdc;" horiz-adv-x="663" 
d="M626 667q-10 -3 -25 -31q-18 -32 -18 -59v-443q3 -44 -20 -79q-35 -53 -120 -55h-157q-54 0 -88 27q-44 35 -41 109v393q0 57 15 84q23 41 91 54h23q-26 -12 -33 -43q-4 -17 -4 -57v-433q0 -25 9 -35t35 -11q70 -4 156 0q20 1 32.5 15t12.5 28l-1 446q0 65 -45 90h178z
M177 1h-34q-53 2 -83 45q-24 35 -24 73l-1 450q0 63 -39 99l179 -1q-50 -31 -50 -92v-477q0 -57 52 -97zM351 766q0 22 16.5 37.5t38.5 15.5q23 0 39.5 -15.5t16.5 -37.5t-16.5 -37.5t-39.5 -15.5q-22 0 -38.5 15.5t-16.5 37.5zM163 766q0 22 16.5 37.5t38.5 15.5
q23 0 39.5 -15.5t16.5 -37.5t-16.5 -37.5t-39.5 -15.5q-22 0 -38.5 15.5t-16.5 37.5z" />
    <glyph glyph-name="aacute" unicode="&#xe1;" horiz-adv-x="847" 
d="M819 1h-218q40 21 40 72q0 27 -77 256t-77 261q0 77 90 77h40q-37 -47 -37 -84q0 -43 158 -489q14 -39 81 -93zM598 76q0 -66 -70 -74q-33 0 -50 -1q-17 0 -12 0q38 39 38 86q0 29 -36 122l-235 1q-46 -98 -46 -141q0 -33 35 -68h-213q16 11 31 21q22 19 34 48
q35 86 105 296.5t70 227.5q0 36 -28 73h255q-22 -21 -25 -26q-7 -13 -7 -43q0 -36 77 -259t77 -263zM444 298q-18 70 -82 262q-2 10 -5 14t-13 5l-89 -281h189zM415 705l-88 1l110 107h132z" />
    <glyph glyph-name="agrave" unicode="&#xe0;" horiz-adv-x="847" 
d="M812 1h-218q40 21 40 72q0 27 -77 256t-77 261q0 77 90 77h40q-37 -47 -37 -84q0 -43 158 -489q14 -39 81 -93zM591 76q0 -66 -70 -74q-33 0 -50 -1q-17 0 -12 0q38 39 38 86q0 29 -36 122l-236 1q-45 -98 -45 -141q0 -33 35 -68h-213q16 11 31 21q22 19 34 48
q35 86 105 296.5t70 227.5q0 36 -28 73h255q-22 -21 -25 -26q-7 -13 -7 -43q0 -36 77 -259t77 -263zM437 298q-18 70 -82 262q-2 10 -5 14t-13 5l-89 -281h189zM420 706h92l-110 107h-133z" />
    <glyph glyph-name="acircumflex" unicode="&#xe2;" horiz-adv-x="847" 
d="M805 1h-218q40 21 40 72q0 27 -77 256t-77 261q0 77 90 77h40q-37 -47 -37 -84q0 -43 158 -489q14 -39 81 -93zM584 76q0 -66 -70 -74q-33 0 -50 -1q-17 0 -12 0q37 39 37 86q0 29 -35 122l-236 1q-46 -98 -46 -141q0 -33 36 -68h-213q16 11 31 21q22 19 34 48
q35 86 105 296.5t70 227.5q0 36 -28 73h255q-22 -21 -25 -26q-7 -13 -7 -43q0 -36 77 -259t77 -263zM430 298q-18 70 -82 262q-2 10 -5 14t-13 5l-90 -281h190zM534 727l-9 -30l-122 43l-121 -43l-9 30l128 91l3 -1l2 1l1 -2z" />
    <glyph glyph-name="adieresis" unicode="&#xe4;" horiz-adv-x="847" 
d="M812 1h-218q40 21 40 72q0 27 -77 256t-77 261q0 77 90 77h40q-37 -47 -37 -84q0 -43 158 -489q14 -39 81 -93zM591 76q0 -66 -70 -74q-33 0 -50 -1q-17 0 -12 0q38 39 38 86q0 29 -36 122l-236 1q-45 -98 -45 -141q0 -33 35 -68h-213q16 11 31 21q22 19 34 48
q35 86 105 296.5t70 227.5q0 36 -28 73h255q-22 -21 -25 -26q-7 -13 -7 -43q0 -36 77 -259t77 -263zM437 298q-18 70 -82 262q-2 10 -5 14t-13 5l-89 -281h189zM451 766q0 22 16.5 37.5t38.5 15.5q23 0 39.5 -15.5t16.5 -37.5t-16.5 -37.5t-39.5 -15.5q-22 0 -38.5 15.5
t-16.5 37.5zM263 766q0 22 16.5 37.5t38.5 15.5q23 0 39.5 -15.5t16.5 -37.5t-16.5 -37.5t-39.5 -15.5q-22 0 -38.5 15.5t-16.5 37.5z" />
    <glyph glyph-name="atilde" unicode="&#xe3;" horiz-adv-x="847" 
d="M819 1h-218q40 21 40 72q0 27 -77 256t-77 261q0 77 90 77h40q-37 -47 -37 -84q0 -43 158 -489q14 -39 81 -93zM598 76q0 -66 -70 -74q-33 0 -50 -1q-17 0 -12 0q38 39 38 86q0 29 -36 122l-235 1q-46 -98 -46 -141q0 -33 35 -68h-213q16 11 31 21q22 19 34 48
q35 86 105 296.5t70 227.5q0 36 -28 73h255q-22 -21 -25 -26q-7 -13 -7 -43q0 -36 77 -259t77 -263zM444 298q-18 70 -82 262q-2 10 -5 14t-13 5l-89 -281h189zM348 748q-27 0 -33 -7q-4 -3 -4 -15h-46q0 27 31.5 51t61.5 24q29 0 51.5 -16t43.5 -16q34 0 33 0q4 1 24 24h44
q0 -28 -35.5 -53t-65.5 -25q-25 0 -51 16.5t-54 16.5z" />
    <glyph glyph-name="aring" unicode="&#xe5;" horiz-adv-x="847" 
d="M812 1h-218q40 21 40 72q0 27 -77 256t-77 261q0 77 90 77h40q-37 -47 -37 -84q0 -43 158 -489q14 -39 81 -93zM591 76q0 -66 -70 -74q-33 0 -50 -1q-17 0 -12 0q38 39 38 86q0 29 -36 122l-236 1q-45 -98 -45 -141q0 -33 35 -68h-213q16 11 31 21q22 19 34 48
q35 86 105 296.5t70 227.5q0 36 -28 73h255q-22 -21 -25 -26q-7 -13 -7 -43q0 -36 77 -259t77 -263zM437 298q-18 70 -82 262q-2 10 -5 14t-13 5l-89 -281h189zM409 847q36 0 61.5 -21.5t25.5 -50.5q0 -30 -25.5 -51.5t-61.5 -21.5t-61.5 21.5t-25.5 51.5q0 29 25.5 50.5
t61.5 21.5zM409 812q-18 0 -31.5 -11t-13.5 -26q0 -16 13.5 -27t31.5 -11q19 0 32 11t13 27q0 15 -13 26t-32 11z" />
    <glyph glyph-name="ccedilla" unicode="&#xe7;" horiz-adv-x="668" 
d="M598 632q-7 13 -20 22q-17 13 -19 15l39 -1q-1 -17 0 -36zM598 0l-39 -1q13 8 39 37q-1 -18 0 -36zM180 668q-31 -11 -51 -40q-16 -24 -16 -42v-501q0 -58 41 -84l-43 -2q-46 -1 -70 61q-16 42 -16 85v415q0 32 30 70t66 38h59zM499 -117q0 -42 -54 -67q-48 -22 -121 -22
q-8 0 -88 24l28 40q29 -19 77 -19q50 0 50 39q0 43 -47 43q-10 0 -65 -1q2 53 1 80h-33q-85 0 -96 112q2 111 2 222q0 112 -2 223q11 111 94 111h229q51 0 90 -34q34 -29 34 -56l1 -128q-30 130 -132 131l-166 1q-65 0 -65 -45v-405q0 -46 65 -46l166 1q102 1 132 132
l-1 -129q0 -26 -36 -56q-42 -35 -93 -34q-74 1 -130 0v-45q24 4 43 4q51 0 84 -22.5t33 -53.5z" />
    <glyph glyph-name="eacute" unicode="&#xe9;" horiz-adv-x="654" 
d="M458 260q-19 14 -53 40q14 5 27 10.5t27 22.5zM319 89q-49 0 -50 39v157q-2 13 5.5 20.5t17.5 7.5l50 -1q47 7 80 23q40 21 39 50v91q-10 -21 -48 -50.5t-65 -29.5q-4 0 -24 -1h-24q-30 0 -27 32v119q0 37 40 37h150q90 0 121 -133l1 140q-4 19 -32 44q-38 34 -87 33
h-173q-46 0 -68 -19q-43 -37 -41 -146v-372q0 -40 -6 -61q-11 -36 -47 -69h331q48 -2 89 33q30 27 34 45l-1 142q-23 -102 -125 -131h-140zM200 667q-39 -27 -49 -65q0 -1 -6 -55v-450q0 -23 -27 -59q-31 -38 -58 -38h-57q46 18 53 82l-1 429q1 0 1 34q1 41 -7 69
q-12 40 -40 54zM584 667l-38 -1q11 -7 21 -13.5t17 -20.5v35zM585 -2l-41 2q11 7 22 14.5t18 21.5q0 -19 1 -38zM306 705l-87 1l106 105h132z" />
    <glyph glyph-name="egrave" unicode="&#xe8;" horiz-adv-x="654" 
d="M458 260q-19 14 -53 40q14 5 27 10.5t27 22.5zM319 89q-49 0 -50 39v157q-2 13 5.5 20.5t17.5 7.5l50 -1q47 7 80 23q40 21 39 50v91q-10 -21 -48 -50.5t-65 -29.5q-4 0 -24 -1h-24q-30 0 -27 32v119q0 37 40 37h150q90 0 121 -133l1 140q-4 19 -32 44q-38 34 -87 33
h-173q-46 0 -68 -19q-43 -37 -41 -146v-372q0 -40 -6 -61q-11 -36 -47 -69h331q48 -2 89 33q30 27 34 45l-1 142q-23 -102 -125 -131h-140zM200 667q-39 -27 -49 -65q0 -1 -6 -55v-450q0 -23 -27 -59q-31 -38 -58 -38h-57q46 18 53 82l-1 429q1 0 1 34q1 41 -7 69
q-12 40 -40 54zM584 667l-38 -1q11 -7 21 -13.5t17 -20.5v35zM585 -2l-41 2q11 7 22 14.5t18 21.5q0 -19 1 -38zM320 706h92l-110 107h-133z" />
    <glyph glyph-name="ecircumflex" unicode="&#xea;" horiz-adv-x="654" 
d="M458 260q-19 14 -53 40q14 5 27 10.5t27 22.5zM319 89q-49 0 -50 39v157q-2 13 5.5 20.5t17.5 7.5l50 -1q47 7 80 23q40 21 39 50v91q-10 -21 -48 -50.5t-65 -29.5q-4 0 -24 -1h-24q-30 0 -27 32v119q0 37 40 37h150q90 0 121 -133l1 140q-4 19 -32 44q-38 34 -87 33
h-173q-46 0 -68 -19q-43 -37 -41 -146v-372q0 -40 -6 -61q-11 -36 -47 -69h331q48 -2 89 33q30 27 34 45l-1 142q-23 -102 -125 -131h-140zM200 667q-39 -27 -49 -65q0 -1 -6 -55v-450q0 -23 -27 -59q-31 -38 -58 -38h-57q46 18 53 82l-1 429q1 0 1 34q1 41 -7 69
q-12 40 -40 54zM584 667l-38 -1q11 -7 21 -13.5t17 -20.5v35zM585 -2l-41 2q11 7 22 14.5t18 21.5q0 -19 1 -38zM431 727l-9 -30l-122 43l-121 -43l-9 30l128 91l3 -1l2 1l1 -2z" />
    <glyph glyph-name="edieresis" unicode="&#xeb;" horiz-adv-x="654" 
d="M458 260q-19 14 -53 40q14 5 27 10.5t27 22.5zM319 89q-49 0 -50 39v157q-2 13 5.5 20.5t17.5 7.5l50 -1q47 7 80 23q40 21 39 50v91q-10 -21 -48 -50.5t-65 -29.5q-4 0 -24 -1h-24q-30 0 -27 32v119q0 37 40 37h150q90 0 121 -133l1 140q-4 19 -32 44q-38 34 -87 33
h-173q-46 0 -68 -19q-43 -37 -41 -146v-372q0 -40 -6 -61q-11 -36 -47 -69h331q48 -2 89 33q30 27 34 45l-1 142q-23 -102 -125 -131h-140zM200 667q-39 -27 -49 -65q0 -1 -6 -55v-450q0 -23 -27 -59q-31 -38 -58 -38h-57q46 18 53 82l-1 429q1 0 1 34q1 41 -7 69
q-12 40 -40 54zM584 667l-38 -1q11 -7 21 -13.5t17 -20.5v35zM585 -2l-41 2q11 7 22 14.5t18 21.5q0 -19 1 -38zM351 766q0 22 16.5 37.5t38.5 15.5q23 0 39.5 -15.5t16.5 -37.5t-16.5 -37.5t-39.5 -15.5q-22 0 -38.5 15.5t-16.5 37.5zM163 766q0 22 16.5 37.5t38.5 15.5
q23 0 39.5 -15.5t16.5 -37.5t-16.5 -37.5t-39.5 -15.5q-22 0 -38.5 15.5t-16.5 37.5z" />
    <glyph glyph-name="iacute" unicode="&#xed;" horiz-adv-x="333" 
d="M114 1q29 10 41 28q9 15 14 48v91v217v211q1 26 26.5 48t52.5 22h43q-39 -27 -39 -53l1 -539q0 -44 38 -73h-177zM179 666q-50 -18 -50 -87l-1 -515q0 -25 -30 -44.5t-57 -19.5q-4 0 -19 1h-20q39 23 39 55v537q0 44 -38 73h176zM146 705l-85 -1l104 107h132z" />
    <glyph glyph-name="igrave" unicode="&#xec;" horiz-adv-x="333" 
d="M114 1q29 10 41 28q9 15 14 48v91v217v211q1 26 26.5 48t52.5 22h43q-39 -27 -39 -53l1 -539q0 -44 38 -73h-177zM179 666q-50 -18 -50 -87l-1 -515q0 -25 -30 -44.5t-57 -19.5q-4 0 -19 1h-20q39 23 39 55v537q0 44 -38 73h176zM170 706h92l-110 107h-133z" />
    <glyph glyph-name="icircumflex" unicode="&#xee;" horiz-adv-x="333" 
d="M114 1q29 10 41 28q9 15 14 48v91v217v211q1 26 26.5 48t52.5 22h43q-39 -27 -39 -53l1 -539q0 -44 38 -73h-177zM179 666q-50 -18 -50 -87l-1 -515q0 -25 -30 -44.5t-57 -19.5q-4 0 -19 1h-20q39 23 39 55v537q0 44 -38 73h176zM271 727l-9 -30l-122 43l-121 -43l-9 30
l128 91l3 -1l2 1l1 -2z" />
    <glyph glyph-name="idieresis" unicode="&#xef;" horiz-adv-x="333" 
d="M114 1q29 10 41 28q9 15 14 48v91v217v211q1 26 26.5 48t52.5 22h43q-39 -27 -39 -53l1 -539q0 -44 38 -73h-177zM179 666q-50 -18 -50 -87l-1 -515q0 -25 -30 -44.5t-57 -19.5q-4 0 -19 1h-20q39 23 39 55v537q0 44 -38 73h176zM181 766q0 22 16.5 37.5t38.5 15.5
q23 0 39.5 -15.5t16.5 -37.5t-16.5 -37.5t-39.5 -15.5q-22 0 -38.5 15.5t-16.5 37.5zM13 766q0 22 16.5 37.5t38.5 15.5q23 0 39.5 -15.5t16.5 -37.5t-16.5 -37.5t-39.5 -15.5q-22 0 -38.5 15.5t-16.5 37.5z" />
    <glyph glyph-name="ntilde" unicode="&#xf1;" horiz-adv-x="761" 
d="M707 668q-39 -30 -40 -66q-3 -115 -1 -604q-123 161 -222 287q-237 302 -310 383h66q29 0 50 -15q17 -13 43 -48q31 -34 288 -371v368q0 31 -42 66h168zM610 1l-98 -3q-8 0 -147 179q-173 223 -207 263q-1 -5 -2 -358q0 -55 38 -83h-160q23 18 31 43q3 8 7 39l-1 429
q-2 43 -37 59q-14 6 -65 12q16 45 38 90q13 2 24 2q31 0 52 -15q8 -5 29 -28q83 -89 290 -356q139 -180 208 -273zM291 738q-27 0 -33 -7q-4 -3 -4 -15h-46q0 27 31.5 51t61.5 24q29 0 51.5 -16t43.5 -16q34 0 33 0q4 1 24 24h44q0 -28 -35.5 -53t-65.5 -25q-25 0 -51 16.5
t-54 16.5z" />
    <glyph glyph-name="oacute" unicode="&#xf3;" horiz-adv-x="777" 
d="M716 128q0 -38 -18 -75q-25 -52 -71 -52l-40 -1q49 41 47 85v501q0 62 -53 81l34 -1q46 0 76 -38q26 -33 26 -68zM596 112q-12 -112 -99 -112h-230q-93 0 -104 112q2 111 2 222q0 112 -2 223q11 111 95 111h243q48 0 72 -30.5t23 -80.5q-3 -111 -3 -223q0 -111 3 -222z
M180 667q-22 -10 -38.5 -37.5t-16.5 -43.5v-501q-1 -31 13.5 -54.5t38.5 -30.5l-53 -1q-48 0 -72 46q-17 32 -17 68v456q0 37 30 68t68 30h47zM510 141l-1 387q0 54 -63 54h-133q-64 0 -64 -54q0 25 0 -141v-78q0 -195 0 -164q0 -29 19 -44q16 -14 39 -14h147q53 0 56 54z
M366 705l-85 -1l104 107h132z" />
    <glyph glyph-name="ograve" unicode="&#xf2;" horiz-adv-x="777" 
d="M716 128q0 -38 -18 -75q-25 -52 -71 -52l-40 -1q49 41 47 85v501q0 62 -53 81l34 -1q46 0 76 -38q26 -33 26 -68zM596 112q-12 -112 -99 -112h-230q-93 0 -104 112q2 111 2 222q0 112 -2 223q11 111 95 111h243q48 0 72 -30.5t23 -80.5q-3 -111 -3 -223q0 -111 3 -222z
M180 667q-22 -10 -38.5 -37.5t-16.5 -43.5v-501q-1 -31 13.5 -54.5t38.5 -30.5l-53 -1q-48 0 -72 46q-17 32 -17 68v456q0 37 30 68t68 30h47zM510 141l-1 387q0 54 -63 54h-133q-64 0 -64 -54q0 25 0 -141v-78q0 -195 0 -164q0 -29 19 -44q16 -14 39 -14h147q53 0 56 54z
M380 706h92l-110 107h-133z" />
    <glyph glyph-name="ocircumflex" unicode="&#xf4;" horiz-adv-x="777" 
d="M716 128q0 -38 -18 -75q-25 -52 -71 -52l-40 -1q49 41 47 85v501q0 62 -53 81l34 -1q46 0 76 -38q26 -33 26 -68zM596 112q-12 -112 -99 -112h-230q-93 0 -104 112q2 111 2 222q0 112 -2 223q11 111 95 111h243q48 0 72 -30.5t23 -80.5q-3 -111 -3 -223q0 -111 3 -222z
M180 667q-22 -10 -38.5 -37.5t-16.5 -43.5v-501q-1 -31 13.5 -54.5t38.5 -30.5l-53 -1q-48 0 -72 46q-17 32 -17 68v456q0 37 30 68t68 30h47zM510 141l-1 387q0 54 -63 54h-133q-64 0 -64 -54q0 25 0 -141v-78q0 -195 0 -164q0 -29 19 -44q16 -14 39 -14h147q53 0 56 54z
M501 727l-9 -30l-122 43l-121 -43l-9 30l128 91l3 -1l2 1l1 -2z" />
    <glyph glyph-name="odieresis" unicode="&#xf6;" horiz-adv-x="777" 
d="M716 128q0 -38 -18 -75q-25 -52 -71 -52l-40 -1q49 41 47 85v501q0 62 -53 81l34 -1q46 0 76 -38q26 -33 26 -68zM596 112q-12 -112 -99 -112h-230q-93 0 -104 112q2 111 2 222q0 112 -2 223q11 111 95 111h243q48 0 72 -30.5t23 -80.5q-3 -111 -3 -223q0 -111 3 -222z
M180 667q-22 -10 -38.5 -37.5t-16.5 -43.5v-501q-1 -31 13.5 -54.5t38.5 -30.5l-53 -1q-48 0 -72 46q-17 32 -17 68v456q0 37 30 68t68 30h47zM510 141l-1 387q0 54 -63 54h-133q-64 0 -64 -54q0 25 0 -141v-78q0 -195 0 -164q0 -29 19 -44q16 -14 39 -14h147q53 0 56 54z
M401 766q0 22 16.5 37.5t38.5 15.5q23 0 39.5 -15.5t16.5 -37.5t-16.5 -37.5t-39.5 -15.5q-22 0 -38.5 15.5t-16.5 37.5zM213 766q0 22 16.5 37.5t38.5 15.5q23 0 39.5 -15.5t16.5 -37.5t-16.5 -37.5t-39.5 -15.5q-22 0 -38.5 15.5t-16.5 37.5z" />
    <glyph glyph-name="otilde" unicode="&#xf5;" horiz-adv-x="777" 
d="M716 128q0 -38 -18 -75q-25 -52 -71 -52l-40 -1q49 41 47 85v501q0 62 -53 81l34 -1q46 0 76 -38q26 -33 26 -68zM596 112q-12 -112 -99 -112h-230q-93 0 -104 112q2 111 2 222q0 112 -2 223q11 111 95 111h243q48 0 72 -30.5t23 -80.5q-3 -111 -3 -223q0 -111 3 -222z
M180 667q-22 -10 -38.5 -37.5t-16.5 -43.5v-501q-1 -31 13.5 -54.5t38.5 -30.5l-53 -1q-48 0 -72 46q-17 32 -17 68v456q0 37 30 68t68 30h47zM510 141l-1 387q0 54 -63 54h-133q-64 0 -64 -54q0 25 0 -141v-78q0 -195 0 -164q0 -29 19 -44q16 -14 39 -14h147q53 0 56 54z
M301 748q-27 0 -33 -7q-4 -3 -4 -15h-46q0 27 31.5 51t61.5 24q29 0 51.5 -16t43.5 -16q34 0 33 0q4 1 24 24h44q0 -28 -35.5 -53t-65.5 -25q-25 0 -51 16.5t-54 16.5z" />
    <glyph glyph-name="uacute" unicode="&#xfa;" horiz-adv-x="663" 
d="M626 667q-10 -3 -25 -31q-18 -32 -18 -59v-443q3 -44 -20 -79q-35 -53 -120 -55h-157q-54 0 -88 27q-44 35 -41 109v393q0 57 15 84q23 41 91 54h23q-26 -12 -33 -43q-4 -17 -4 -57v-433q0 -25 9 -35t35 -11q70 -4 156 0q20 1 32.5 15t12.5 28l-1 446q0 65 -45 90h178z
M177 1h-34q-53 2 -83 45q-24 35 -24 73l-1 450q0 63 -39 99l179 -1q-50 -31 -50 -92v-477q0 -57 52 -97zM316 705l-85 -1l104 107h132z" />
    <glyph glyph-name="ugrave" unicode="&#xf9;" horiz-adv-x="663" 
d="M626 667q-10 -3 -25 -31q-18 -32 -18 -59v-443q3 -44 -20 -79q-35 -53 -120 -55h-157q-54 0 -88 27q-44 35 -41 109v393q0 57 15 84q23 41 91 54h23q-26 -12 -33 -43q-4 -17 -4 -57v-433q0 -25 9 -35t35 -11q70 -4 156 0q20 1 32.5 15t12.5 28l-1 446q0 65 -45 90h178z
M177 1h-34q-53 2 -83 45q-24 35 -24 73l-1 450q0 63 -39 99l179 -1q-50 -31 -50 -92v-477q0 -57 52 -97zM330 706h92l-110 107h-133z" />
    <glyph glyph-name="ucircumflex" unicode="&#xfb;" horiz-adv-x="663" 
d="M626 667q-10 -3 -25 -31q-18 -32 -18 -59v-443q3 -44 -20 -79q-35 -53 -120 -55h-157q-54 0 -88 27q-44 35 -41 109v393q0 57 15 84q23 41 91 54h23q-26 -12 -33 -43q-4 -17 -4 -57v-433q0 -25 9 -35t35 -11q70 -4 156 0q20 1 32.5 15t12.5 28l-1 446q0 65 -45 90h178z
M177 1h-34q-53 2 -83 45q-24 35 -24 73l-1 450q0 63 -39 99l179 -1q-50 -31 -50 -92v-477q0 -57 52 -97zM451 727l-9 -30l-122 43l-121 -43l-9 30l128 91l3 -1l2 1l1 -2z" />
    <glyph glyph-name="udieresis" unicode="&#xfc;" horiz-adv-x="663" 
d="M626 667q-10 -3 -25 -31q-18 -32 -18 -59v-443q3 -44 -20 -79q-35 -53 -120 -55h-157q-54 0 -88 27q-44 35 -41 109v393q0 57 15 84q23 41 91 54h23q-26 -12 -33 -43q-4 -17 -4 -57v-433q0 -25 9 -35t35 -11q70 -4 156 0q20 1 32.5 15t12.5 28l-1 446q0 65 -45 90h178z
M177 1h-34q-53 2 -83 45q-24 35 -24 73l-1 450q0 63 -39 99l179 -1q-50 -31 -50 -92v-477q0 -57 52 -97zM351 766q0 22 16.5 37.5t38.5 15.5q23 0 39.5 -15.5t16.5 -37.5t-16.5 -37.5t-39.5 -15.5q-22 0 -38.5 15.5t-16.5 37.5zM163 766q0 22 16.5 37.5t38.5 15.5
q23 0 39.5 -15.5t16.5 -37.5t-16.5 -37.5t-39.5 -15.5q-22 0 -38.5 15.5t-16.5 37.5z" />
    <glyph glyph-name="dagger" unicode="&#x2020;" horiz-adv-x="17" 
 />
    <glyph glyph-name="degree" unicode="&#xb0;" horiz-adv-x="355" 
d="M154 675q55 0 94 -37.5t39 -91.5t-39 -90.5t-94 -36.5t-92.5 36.5t-37.5 90.5t38 91.5t92 37.5zM156 627q-34 0 -58 -23.5t-24 -57.5t24 -58t58 -24q33 0 57 24t24 58t-24 57.5t-57 23.5z" />
    <glyph glyph-name="cent" unicode="&#xa2;" horiz-adv-x="556" 
d="M496 564q-11 24 -44 38h45zM150 600q-25 -9 -39 -32q-10 -18 -10 -34v-401q0 -46 33 -67l-36 1q-68 2 -68 95v352q0 25 24.5 55.5t52.5 30.5h43zM499 64l-32 1q10 6 31 30q-1 -15 1 -31zM262 667h47v-67h84q41 0 74 -31q29 -27 28 -49l-1 -93q-23 103 -107 103l-133 1
q-51 0 -51 -36v-325q0 -36 51 -36q55 1 129 -1q85 -1 110 107v-104q0 -21 -27 -44q-31 -27 -72 -27h-85v-81h-47v81l-52 -1q-66 0 -75 91q1 88 1 178q0 89 -1 178q8 89 75 89h52v67z" />
    <glyph glyph-name="sterling" unicode="&#xa3;" horiz-adv-x="700" 
d="M502 608q-26 38 -67 58q0 1 33.5 0t34.5 0q-1 1 -1 -29v-29zM655 240q-9 -24 -40 -80q-32 2 -34 -39q-3 -63 -11 -78q-22 -43 -101 -43h-44q65 26 74 91q5 51 11 102q19 48 112 48q6 0 33 -1zM197 666q-46 -21 -46 -85v-439q3 0 -3 -38q-6 -42 -25 -69q-26 -37 -71 -35
q-2 0 -11.5 1t-14.5 1q28 29 33 58q1 4 1 52v216q-5 7 -29 2q-20 -5 -40 -22q2 82 70 95v138q0 52 24 89t57 37zM263 403h107v-73h-107q0 -86 1 -241q45 -3 46 -1q64 -5 73 34q4 38 7 76q13 42 86 43h45q-53 -11 -53 -91v-35q0 -115 -155 -115h-178q16 11 30 42q17 35 17 69
v437q2 64 24 91q27 31 98 31t127 -34q71 -42 71 -115v-17q1 -16 1 -23h-6q-42 62 -90 85q-36 17 -89 17t-54 -47q-1 -54 -1 -133z" />
    <glyph glyph-name="section" unicode="&#xa7;" horiz-adv-x="19" 
 />
    <glyph glyph-name="bullet" unicode="&#x2022;" horiz-adv-x="360" 
d="M25 325q0 58 41 99t99 41t98.5 -41t40.5 -99t-40.5 -99t-98.5 -41t-99 41t-41 99z" />
    <glyph glyph-name="paragraph" unicode="&#xb6;" horiz-adv-x="19" 
 />
    <glyph glyph-name="germandbls" unicode="&#xdf;" horiz-adv-x="31" 
 />
    <glyph glyph-name="registered" unicode="&#xae;" horiz-adv-x="425" 
d="M182 322q-75 0 -128 54t-53 130q0 75 53 128t128 53t127.5 -53.5t52.5 -129.5q0 -75 -52.5 -128.5t-127.5 -53.5zM182 643q-58 1 -97 -39.5t-39 -99.5q0 -57 40.5 -98t95.5 -41t95 41t40 98t-40 97t-95 42zM187 600q11 4 32 -2q36 -11 36 -46q0 -45 -44 -54l49 -76h-45
l-49 75h-15v-75h-38v178h74zM188 568h-39v-29h44q25 0 25 18q0 11 -30 11z" />
    <glyph glyph-name="copyright" unicode="&#xa9;" horiz-adv-x="814" 
d="M366 -21q-149 0 -253 104.5t-104 254.5t104 255t253 105t253.5 -105t104.5 -255t-104.5 -254.5t-253.5 -104.5zM366 625q-116 0 -200.5 -84t-84.5 -203t84.5 -202.5t200.5 -83.5t200.5 83.5t84.5 202.5t-84.5 203t-200.5 84zM477 397q-23 81 -101 81q-60 0 -95 -39
t-35 -100q0 -55 31 -94q35 -43 97 -43q83 0 103 79h74q-17 -75 -63.5 -113.5t-112.5 -38.5q-92 0 -147 60t-55 152q0 89 56 150t147 61q65 0 112 -39q50 -42 63 -116h-74z" />
    <glyph glyph-name="trademark" unicode="&#x2122;" horiz-adv-x="492" 
d="M377 597l-56 -140h-27l-52 134v-134h-43v211h58l51 -129l52 129h59v-211h-42v140zM103 624v-167h-43v167h-66v44h173v-44h-64z" />
    <glyph glyph-name="acute" unicode="&#xb4;" horiz-adv-x="464" 
d="M191 707l-87 1l106 105h132z" />
    <glyph glyph-name="dieresis" unicode="&#xa8;" horiz-adv-x="465" 
d="M271 766q0 22 16.5 37.5t38.5 15.5q23 0 39.5 -15.5t16.5 -37.5t-16.5 -37.5t-39.5 -15.5q-22 0 -38.5 15.5t-16.5 37.5zM83 766q0 22 16.5 37.5t38.5 15.5q23 0 39.5 -15.5t16.5 -37.5t-16.5 -37.5t-39.5 -15.5q-22 0 -38.5 15.5t-16.5 37.5z" />
    <glyph glyph-name="AE" unicode="&#xc6;" horiz-adv-x="1149" 
d="M697 667q0 -1 -20 -19q-15 -13 -20 -29q-5 24 -35 47q-6 0 17 1h58zM633 128q3 -128 -85 -128h-12q-10 1 -21 1q28 22 29 53q1 38 0 106q-10 34 -76 34q-17 0 -37 -2.5t-21 -2.5q-31 4 -55 52q-14 -40 -59 -154q-50 -86 -119 -86q-6 0 -122 1l-44 72h133q49 0 80 81
q59 158 170 445q14 37 28 50q20 18 56 16q37 1 79 0q67 -3 78 -75v-66zM408 666q-29 -10 -51 -49q-3 -6 -67 -174q-71 -189 -101 -275q-15 -32 -27 -45q-15 -14 -39 -16h-47q28 6 57 80q23 70 74 213q27 75 82 217q17 29 33.5 39t45.5 10h40zM544 578h-62
q-114 -301 -116 -301q21 -13 53 -13q9 0 26 1.5t25 1.5q53 0 74 -49v360zM949 260q-19 14 -53 40q14 5 27 10.5t27 22.5zM810 89q-49 0 -50 39v157q-2 13 5.5 20.5t16.5 7.5l51 -1q47 7 80 23q39 21 39 50v91q-10 -21 -47 -50q-40 -30 -66 -30q-4 0 -24 -1h-24q-30 0 -27 32
v119q0 37 40 37h150q90 0 121 -133l1 140q-4 19 -32 44q-38 34 -87 33h-173q-46 0 -69 -19q-42 -37 -40 -146v-372q0 -40 -6 -61q-11 -36 -47 -69h331q48 -2 89 33q30 27 34 45l-1 142q-23 -102 -125 -131h-140zM1075 667l-38 -1q11 -7 21 -13.5t17 -20.5v35zM1076 -2l-41 2
q11 7 23 15q9 7 17 21q0 -19 1 -38z" />
    <glyph glyph-name="Oslash" unicode="&#xd8;" horiz-adv-x="782" 
d="M588 112q-11 -113 -94 -112h-244q-83 -1 -94 112q2 111 2 222q0 112 -2 223q11 111 94 111h244q83 0 94 -111q-2 -111 -2 -223q0 -111 2 -222zM503 445l-262 -295v-18q0 -46 65 -46h132q65 0 65 46v313zM241 227l262 301v9q0 45 -65 45h-132q-64 0 -65 -45v-310zM57 35
q-27 42 -27 100v425q0 32 30 70t66 38h59q-31 -11 -51 -40q-16 -24 -16 -42v-501q0 -58 41 -84l-38 -1q-17 0 -25 2q-25 -27 -27 -27h-69zM640 662l21 26h61q-12 -16 -42 -55q30 -34 30 -73v-425q0 -39 -18 -78q-26 -55 -72 -56h-35q42 26 42 84v501q0 18 -17 42
q-20 29 -51 40h49q17 0 32 -6z" />
    <glyph glyph-name="plusminus" unicode="&#xb1;" 
 />
    <glyph glyph-name="yen" unicode="&#xa5;" horiz-adv-x="682" 
d="M422 288h117v-56h-117v-54h117v-56h-118v-33q0 -19 15 -49.5t33 -39.5l-181 1q47 32 47 99l1 247q0 9 -84 159q-87 155 -104 161h156l-12 -16q-9 -11 -9 -25q0 -11 5 -24q49 -87 100 -181q8 8 46 73q43 74 54 108q6 18 6 30q0 14 -23 35h174q-39 -7 -66 -60
q-42 -74 -157 -273v-46zM98 288h117v41q0 11 -91 164q-97 161 -124 174h39q10 1 19 1q35 0 56 -18q8 -7 25 -32q11 -18 163 -276v-236q0 -45 -26 -75t-72 -30h-31q13 11 27.5 35.5t14.5 38.5v47h-117v56h117v54h-117v56z" />
    <glyph glyph-name="uni00B5" unicode="&#xb5;" horiz-adv-x="609" 
d="M554 220v-142q-4 -18 -34 -44q-39 -34 -88 -34h-301q36 33 47 69q6 21 6 61l-1 401q0 136 112 136q14 0 33 -3q-19 0 -34 -24q-20 -32 -24 -97q0 -7 -1 -116l120 94v-78l-119 -93q-2 -222 -1 -222q1 -39 50 -39h110q30 9 53 24q56 38 72 107zM555 -2l-41 2q11 7 22 14.5
t18 21.5q0 -19 1 -38zM200 667q-55 -37 -55 -111q0 -9 1 -16l-1 -443q0 -23 -27 -58q-31 -39 -58 -39h-57q46 18 53 82v100l-56 -48v81l56 44l2 275v28q0 34 -9 58q-12 34 -40 48z" />
    <glyph glyph-name="uni00B5" unicode="&#x3bc;" horiz-adv-x="609" 
d="M554 220v-142q-4 -18 -34 -44q-39 -34 -88 -34h-301q36 33 47 69q6 21 6 61l-1 401q0 136 112 136q14 0 33 -3q-19 0 -34 -24q-20 -32 -24 -97q0 -7 -1 -116l120 94v-78l-119 -93q-2 -222 -1 -222q1 -39 50 -39h110q30 9 53 24q56 38 72 107zM555 -2l-41 2q11 7 22 14.5
t18 21.5q0 -19 1 -38zM200 667q-55 -37 -55 -111q0 -9 1 -16l-1 -443q0 -23 -27 -58q-31 -39 -58 -39h-57q46 18 53 82v100l-56 -48v81l56 44l2 275v28q0 34 -9 58q-12 34 -40 48z" />
    <glyph glyph-name="ordfeminine" unicode="&#xaa;" horiz-adv-x="615" 
d="M562 125q-3 -89 -83 -113q-34 -11 -140 -11h-109q-22 0 -35 16.5t-12 41.5q0 19 121.5 268.5t121.5 284.5q0 28 0 26q-3 16 -21 29l149 -1l-267 -583h110q61 0 96.5 21t68.5 76q2 -7 0 -55zM89 667q-34 -9 -62 -44l-1 44h63zM562 1h-39q21 9 39 36v-36zM379 606
q0 -28 -119 -274.5t-120 -275.5q-1 -13 18 -55h-152l275 584q-14 0 -42 -1q-16 0 -31 -1q-60 0 -97.5 -20t-83.5 -77v71q0 46 58 79q54 31 120 31h116q58 0 58 -61zM410 782l-9 30l-121 -44l-122 44l-9 -30l128 -82l3 1l2 -1l1 2z" />
    <glyph glyph-name="ordmasculine" unicode="&#xba;" horiz-adv-x="615" 
d="M562 125q-3 -89 -83 -113q-34 -11 -140 -11h-109q-22 0 -35 16.5t-12 41.5q0 19 121.5 268.5t121.5 284.5q0 28 0 26q-3 16 -21 29l149 -1l-267 -583h110q61 0 96.5 21t68.5 76q2 -7 0 -55zM89 667q-34 -9 -62 -44l-1 44h63zM562 1h-39q21 9 39 36v-36zM379 606
q0 -28 -119 -274.5t-120 -275.5q-1 -13 18 -55h-152l275 584q-14 0 -42 -1q-16 0 -31 -1q-60 0 -97.5 -20t-83.5 -77v71q0 46 56 78t122 32h116q58 0 58 -61zM410 782l-9 30l-121 -44l-122 44l-9 -30l128 -82l3 1l2 -1l1 2z" />
    <glyph glyph-name="ae" unicode="&#xe6;" horiz-adv-x="1149" 
d="M697 667q0 -1 -20 -19q-15 -13 -20 -29q-5 24 -35 47q-6 0 17 1h58zM633 128q3 -128 -85 -128h-12q-10 1 -21 1q28 22 29 53q1 38 0 106q-10 34 -76 34q-17 0 -37 -2.5t-21 -2.5q-31 4 -55 52q-14 -40 -59 -154q-50 -86 -119 -86q-6 0 -122 1l-44 72h133q49 0 80 81
q59 158 170 445q14 37 28 50q20 18 56 16q37 1 79 0q67 -3 78 -75v-66zM408 666q-29 -10 -51 -49q-3 -6 -67 -174q-71 -189 -101 -275q-15 -32 -27 -45q-15 -14 -39 -16h-47q28 6 57 80q23 70 74 213q27 75 82 217q17 29 33.5 39t45.5 10h40zM544 578h-62
q-114 -301 -116 -301q21 -13 53 -13q9 0 26 1.5t25 1.5q53 0 74 -49v360zM949 260q-19 14 -53 40q14 5 27 10.5t27 22.5zM810 89q-49 0 -50 39v157q-2 13 5.5 20.5t16.5 7.5l51 -1q47 7 80 23q39 21 39 50v91q-10 -21 -47 -50q-40 -30 -66 -30q-4 0 -24 -1h-24q-30 0 -27 32
v119q0 37 40 37h150q90 0 121 -133l1 140q-4 19 -32 44q-38 34 -87 33h-173q-46 0 -69 -19q-42 -37 -40 -146v-372q0 -40 -6 -61q-11 -36 -47 -69h331q48 -2 89 33q30 27 34 45l-1 142q-23 -102 -125 -131h-140zM1075 667l-38 -1q11 -7 21 -13.5t17 -20.5v35zM1076 -2l-41 2
q11 7 23 15q9 7 17 21q0 -19 1 -38z" />
    <glyph glyph-name="oslash" unicode="&#xf8;" horiz-adv-x="782" 
d="M588 112q-11 -113 -94 -112h-244q-83 -1 -94 112q2 111 2 222q0 112 -2 223q11 111 94 111h244q83 0 94 -111q-2 -111 -2 -223q0 -111 2 -222zM503 445l-262 -295v-18q0 -46 65 -46h132q65 0 65 46v313zM241 227l262 301v9q0 45 -65 45q-67 -1 -132 0q-64 0 -65 -45v-310
zM57 35q-27 42 -27 100v425q0 32 30 70t66 38h59q-31 -11 -51 -40q-16 -24 -16 -42v-501q0 -58 41 -84l-38 -1q-17 0 -25 2q-25 -27 -27 -27h-69zM640 662l21 26h61q-12 -16 -42 -55q30 -34 30 -73v-425q0 -39 -18 -78q-26 -55 -72 -56h-35q42 26 42 84v501q0 18 -17 42
q-20 29 -51 40h49q17 0 32 -6z" />
    <glyph glyph-name="questiondown" unicode="&#xbf;" horiz-adv-x="612" 
d="M4 0v176q0 42 47 80q42 34 76 34l96 -1q47 0 47 54q0 7 -1 17t-1 11h88q0 4 0 -110q0 -25 -27 -38q-23 -11 -29 -6h-141q-20 2 -43 -19q-26 -23 -26 -54v-173q0 -74 61 -103q-19 -4 -36 -4q-108 0 -111 136zM488 -135q41 20 55 47v-47h-55zM124 102q0 77 56 77h135
q32 0 52 19.5t20 46.5q-1 80 1 126h91v-157q5 -45 -25 -78q-32 -36 -86 -37l-94 -1q-37 0 -50 -28q-6 -14 -9 -46q-4 -49 15.5 -60.5t101.5 -11.5q69 0 103 13q60 22 108 93q3 -14 0 -103q-25 -26 -49 -53q-34 -28 -90 -38h-42q-29 1 -50 1q-188 0 -188 131v106zM466 469
q0 -28 -28 -48t-67 -20q-40 0 -68 20t-28 48t28 48t68 20q39 0 67 -20t28 -48z" />
    <glyph glyph-name="exclamdown" unicode="&#xa1;" horiz-adv-x="324" 
d="M137 -132l29 29t14 47l1 331q7 26 13 51q18 45 54 44h19v-502q-4 3 -64 3q-61 0 -66 -3zM277 474q0 -28 -32.5 -48t-72.5 -20q-41 0 -73.5 20t-32.5 48t32.5 48t73.5 20q40 0 72.5 -20t32.5 -48zM187 368q-28 -10 -37 -30q-6 -13 -7 -50q1 -138 -2 -354q-1 -26 -26.5 -48
t-52.5 -22h-43q39 27 39 53q0 34 2 224q1 142 -1 227h128z" />
    <glyph glyph-name="logicalnot" unicode="&#xac;" 
 />
    <glyph glyph-name="florin" unicode="&#x192;" horiz-adv-x="703" 
d="M638 632q-7 13 -20 22q-17 13 -19 15l39 -1q-1 -17 0 -36zM638 0l-39 -1q13 8 39 37q-1 -18 0 -36zM461 259h-185v-127q0 -46 65 -46l166 1q102 1 132 132l-1 -129q0 -26 -36 -56q-42 -34 -93 -34l-224 -1q-83 -1 -94 113q2 111 2 222q0 112 -2 223q11 111 94 111h229
q51 0 90 -34q34 -29 34 -56l1 -128q-30 130 -132 131l-166 1q-65 0 -65 -45v-79h185v-69h-185v-61h185v-69zM65 263h-65v63h65v67h-65v63h65v104q0 32 30 70t66 38h59q-31 -11 -51 -40q-16 -24 -16 -42v-501q0 -58 41 -84l-43 -2q-46 -1 -70 61q-16 42 -16 85v118z" />
    <glyph glyph-name="guillemotleft" unicode="&#xab;" horiz-adv-x="391" 
d="M348 494l-105 -174q16 -28 32 -57q28 -51 28 -69q0 -21 -12 -37t-30 -16q-81 0 -70 1q21 20 21 49q0 13 -31.5 73l-31.5 60q0 3 36 58.5t50 73.5q29 38 84 38h29zM204 496q-11 -11 -118 -172q70 -117 70 -136q0 -12 -11 -28q-11 -19 -25 -19h-64q0 6 3 19.5t3 16.5
q0 18 -33.5 75.5t-33.5 66.5q0 -1 32 62.5t32 99.5q0 8 -2 16q30 1 147 -1z" />
    <glyph glyph-name="guillemotright" unicode="&#xbb;" horiz-adv-x="391" 
d="M-5 494l105 -174q-16 -28 -33 -57q-28 -51 -28 -69q0 -21 12.5 -37t30.5 -16q80 0 69 1q-21 20 -21 49q0 13 32 73l32 60q0 3 -36.5 58.5t-50.5 73.5q-28 38 -84 38h-28zM148 496q12 -11 119 -172q-70 -117 -70 -136q0 -12 10 -28q12 -19 25 -19h65q0 6 -3 19.5t-3 16.5
q0 18 33.5 75.5t33.5 66.5q0 -1 -32 62.5t-32 99.5q0 8 2 16q-31 1 -148 -1z" />
    <glyph glyph-name="ellipsis" unicode="&#x2026;" horiz-adv-x="1018" 
d="M439 62q0 28 28 48t68 20t68 -20t28 -48t-28 -48t-68 -20t-68 20t-28 48zM759 62q0 28 28 48t68 20t68 -20t28 -48t-28 -48t-68 -20t-68 20t-28 48zM119 62q0 28 28 48t68 20t68 -20t28 -48t-28 -48t-68 -20t-68 20t-28 48z" />
    <glyph glyph-name="uni00A0" unicode="&#xa0;" horiz-adv-x="279" 
 />
    <glyph glyph-name="Agrave" unicode="&#xc0;" horiz-adv-x="847" 
d="M812 1h-218q40 21 40 72q0 27 -77 256t-77 261q0 77 90 77h40q-37 -47 -37 -84q0 -43 158 -489q14 -39 81 -93zM591 76q0 -66 -70 -74q-33 0 -50 -1q-17 0 -12 0q38 39 38 86q0 29 -36 122l-236 1q-45 -98 -45 -141q0 -33 35 -68h-213q16 11 31 21q22 19 34 48
q35 86 105 296.5t70 227.5q0 36 -28 73h255q-22 -21 -25 -26q-7 -13 -7 -43q0 -36 77 -259t77 -263zM437 298q-18 70 -82 262q-2 10 -5 14t-13 5l-89 -281h189zM420 706h92l-110 107h-133z" />
    <glyph glyph-name="Atilde" unicode="&#xc3;" horiz-adv-x="847" 
d="M812 1h-218q40 21 40 72q0 27 -77 256t-77 261q0 77 90 77h40q-37 -47 -37 -84q0 -43 158 -489q14 -39 81 -93zM591 76q0 -66 -70 -74q-33 0 -50 -1q-17 0 -12 0q38 39 38 86q0 29 -36 122l-236 1q-45 -98 -45 -141q0 -33 35 -68h-213q16 11 31 21q22 19 34 48
q35 86 105 296.5t70 227.5q0 36 -28 73h255q-22 -21 -25 -26q-7 -13 -7 -43q0 -36 77 -259t77 -263zM437 298q-18 70 -82 262q-2 10 -5 14t-13 5l-89 -281h189zM341 748q-27 0 -33 -7q-4 -3 -4 -15h-46q0 27 31.5 51t61.5 24q29 0 51.5 -16t43.5 -16q34 0 33 0q4 1 24 24h44
q0 -28 -35.5 -53t-65.5 -25q-25 0 -51 16.5t-54 16.5z" />
    <glyph glyph-name="Otilde" unicode="&#xd5;" horiz-adv-x="777" 
d="M716 128q0 -38 -18 -75q-25 -52 -71 -52l-40 -1q49 41 47 85v501q0 62 -53 81l34 -1q46 0 76 -38q26 -33 26 -68zM596 112q-12 -112 -99 -112h-230q-93 0 -104 112q2 111 2 222q0 112 -2 223q11 111 95 111h243q48 0 72 -30.5t23 -80.5q-3 -111 -3 -223q0 -111 3 -222z
M180 667q-22 -10 -38.5 -37.5t-16.5 -43.5v-501q-1 -31 13.5 -54.5t38.5 -30.5l-53 -1q-48 0 -72 46q-17 32 -17 68v456q0 37 30 68t68 30h47zM510 141l-1 387q0 54 -63 54h-133q-64 0 -64 -54q0 25 0 -141v-78q0 -195 0 -164q0 -29 19 -44q16 -14 39 -14h147q53 0 56 54z
M301 748q-27 0 -33 -7q-4 -3 -4 -15h-46q0 27 31.5 51t61.5 24q29 0 51.5 -16t43.5 -16q34 0 33 0q4 1 24 24h44q0 -28 -35.5 -53t-65.5 -25q-25 0 -51 16.5t-54 16.5z" />
    <glyph glyph-name="OE" unicode="&#x152;" horiz-adv-x="1077" 
d="M1008 667v-35q-11 20 -35 36zM627 667q-17 -10 -23 -16q-10 -10 -17 -32q-5 22 -39 49q-5 0 19 -1h60zM886 261q-18 14 -52 40q12 4 24.5 8.5t26.5 21.5zM1004 590l-1 -140q-31 133 -121 133h-150q-40 0 -40 -37v-119q-3 -32 27 -32h24q20 1 24 1q26 0 66 30q37 29 47 50
v-91q0 -29 -39 -50q-33 -16 -80 -23l-51 1q-9 0 -16.5 -7.5t-5.5 -20.5v-157q1 -39 50 -39h73q70 0 67 0q30 9 53 24q56 38 72 107v-135q-4 -20 -34 -48q-40 -39 -88 -37h-331q36 33 47 67q7 20 7 58l-1 377q-2 109 40 146q23 19 69 19h173q49 1 87 -33q28 -25 32 -44z
M1009 -2l-41 2q11 7 23 15q9 7 17 21q0 -19 1 -38zM560 112q-11 -113 -94 -113h-245q-82 0 -94 113q4 203 0 449q10 107 106 107h232q48 0 73 -33q22 -30 22 -78q-2 -111 -2 -223q0 -111 2 -222zM153 668q-32 -11 -50 -41q-14 -22 -14 -41v-501q-2 -57 42 -84l-43 -2
q-46 0 -70 56q-16 39 -16 80l-1 440q0 31 30 62.5t67 30.5h55zM474 142v385q0 28 -22 43q-18 12 -42 12q5 0 -54 -1h-25q-59 1 -54 1q-24 0 -41 -12q-23 -15 -23 -43v-385q0 -29 22 -44q18 -13 42 -13h136q23 0 40 13q21 15 21 44z" />
    <glyph glyph-name="oe" unicode="&#x153;" horiz-adv-x="1077" 
d="M1008 667v-35q-11 20 -35 36zM627 667q-17 -10 -23 -16q-10 -10 -17 -32q-5 22 -39 49q-5 0 19 -1h60zM886 261q-18 14 -52 40q12 4 24.5 8.5t26.5 21.5zM1004 590l-1 -140q-31 133 -121 133h-150q-40 0 -40 -37v-119q-3 -32 27 -32h24q20 1 24 1q26 0 66 30q37 29 47 50
v-91q0 -29 -39 -50q-33 -16 -80 -23l-51 1q-9 0 -16.5 -7.5t-5.5 -20.5v-157q1 -39 50 -39h73q70 0 67 0q30 9 53 24q56 38 72 107v-135q-4 -20 -34 -48q-40 -39 -88 -37h-331q36 33 47 67q7 20 7 58l-1 377q-2 109 40 146q23 19 69 19h173q49 1 87 -33q28 -25 32 -44z
M1009 -2l-41 2q11 7 23 15q9 7 17 21q0 -19 1 -38zM560 112q-11 -113 -94 -113h-245q-82 0 -94 113q4 203 0 449q10 107 106 107h232q48 0 73 -33q22 -30 22 -78q-2 -111 -2 -223q0 -111 2 -222zM153 668q-32 -11 -50 -41q-14 -22 -14 -41v-501q-2 -57 42 -84l-43 -2
q-46 0 -70 56q-16 39 -16 80l-1 440q0 31 30 62.5t67 30.5h55zM474 142v385q0 28 -22 43q-18 12 -42 12h-133q-24 0 -41 -12q-23 -15 -23 -43v-385q0 -29 22 -44q18 -13 42 -13h136q23 0 40 13q21 15 21 44z" />
    <glyph glyph-name="endash" unicode="&#x2013;" horiz-adv-x="477" 
d="M1 407h441v-89h-441v89z" />
    <glyph glyph-name="emdash" unicode="&#x2014;" horiz-adv-x="1008" 
d="M1 407h961v-89h-961v89z" />
    <glyph glyph-name="quotedblleft" unicode="&#x201c;" horiz-adv-x="488" 
d="M422 605q0 28 -28 48t-68 20q-46 0 -71.5 -23t-25.5 -57q0 -21 11 -42q17 -35 56 -53q34 -16 67 -12q-24 15 -31 51q38 2 64 21.5t26 46.5zM192 605q0 28 -28 48t-68 20q-46 0 -71.5 -23t-25.5 -57q0 -21 11 -42q17 -35 56 -53q34 -16 67 -12q-24 15 -31 51q38 2 64 21.5
t26 46.5z" />
    <glyph glyph-name="quotedblright" unicode="&#x201d;" horiz-adv-x="488" 
d="M-1 605q0 28 28 48t68 20q47 0 72 -23t25 -57q0 -21 -10 -42q-17 -35 -56 -53q-35 -16 -67 -12q24 15 30 51q-38 2 -64 21.5t-26 46.5zM229 605q0 28 28 48t68 20q47 0 72 -23t25 -57q0 -21 -10 -42q-17 -35 -56 -53q-35 -16 -67 -12q24 15 30 51q-38 2 -64 21.5
t-26 46.5z" />
    <glyph glyph-name="quoteleft" unicode="&#x2018;" horiz-adv-x="261" 
d="M198 605q0 28 -28 48t-68 20q-47 0 -72 -23t-25 -57q0 -21 11 -42q17 -35 56 -53q34 -16 67 -12q-24 15 -31 51q38 2 64 21.5t26 46.5z" />
    <glyph glyph-name="quoteright" unicode="&#x2019;" horiz-adv-x="261" 
d="M7 605q0 28 28 48t68 20q47 0 72 -23t25 -57q0 -21 -10 -42q-18 -35 -57 -53q-34 -16 -66 -12q24 15 30 51q-38 2 -64 21.5t-26 46.5z" />
    <glyph glyph-name="divide" unicode="&#xf7;" 
 />
    <glyph glyph-name="ydieresis" unicode="&#xff;" horiz-adv-x="668" 
d="M645 667q-39 -7 -66 -60q-42 -74 -157 -273l1 -244q0 -21 14 -49q15 -32 32 -41l-181 1q49 33 49 102l-1 244q0 9 -84 159q-87 155 -104 161h156l-12 -16q-9 -11 -9 -25q0 -11 5 -24q49 -87 100 -181q8 8 46 73q43 74 54 108q6 18 6 30q0 14 -23 35h174zM302 106
q0 -45 -26 -75t-72 -30h-31q13 11 27.5 35.5t14.5 38.5v254q0 11 -91 164q-97 161 -124 174h39q10 1 19 1q36 0 57 -18q9 -8 24 -32q12 -18 163 -276v-236zM351 766q0 22 16.5 37.5t38.5 15.5q23 0 39.5 -15.5t16.5 -37.5t-16.5 -37.5t-39.5 -15.5q-22 0 -38.5 15.5
t-16.5 37.5zM163 766q0 22 16.5 37.5t38.5 15.5q23 0 39.5 -15.5t16.5 -37.5t-16.5 -37.5t-39.5 -15.5q-22 0 -38.5 15.5t-16.5 37.5z" />
    <glyph glyph-name="Ydieresis" unicode="&#x178;" horiz-adv-x="668" 
d="M645 667q-39 -7 -66 -60q-42 -74 -157 -273l1 -244q0 -21 14 -49q15 -32 32 -41l-181 1q49 33 49 102l-1 244q0 9 -84 159q-87 155 -104 161h156l-12 -16q-9 -11 -9 -25q0 -11 5 -24q49 -87 100 -181q8 8 46 73q43 74 54 108q6 18 6 30q0 14 -23 35h174zM302 106
q0 -45 -26 -75t-72 -30h-31q13 11 27.5 35.5t14.5 38.5v254q0 11 -91 164q-97 161 -124 174h39q10 1 19 1q36 0 57 -18q9 -8 24 -32q12 -18 163 -276v-236zM351 766q0 22 16.5 37.5t38.5 15.5q23 0 39.5 -15.5t16.5 -37.5t-16.5 -37.5t-39.5 -15.5q-22 0 -38.5 15.5
t-16.5 37.5zM163 766q0 22 16.5 37.5t38.5 15.5q23 0 39.5 -15.5t16.5 -37.5t-16.5 -37.5t-39.5 -15.5q-22 0 -38.5 15.5t-16.5 37.5z" />
    <glyph glyph-name="currency" unicode="&#xa4;" 
 />
    <glyph glyph-name="guilsinglleft" unicode="&#x2039;" horiz-adv-x="264" 
d="M204 496q-11 -11 -118 -172q70 -117 70 -136q0 -12 -11 -28q-11 -19 -25 -19h-64q0 6 3 19.5t3 16.5q0 18 -33.5 75.5t-33.5 66.5q0 -1 32 62.5t32 99.5q0 8 -2 16q30 1 147 -1z" />
    <glyph glyph-name="guilsinglright" unicode="&#x203a;" horiz-adv-x="264" 
d="M-5 142q11 11 118 172q-70 116 -70 136q0 12 11 29.5t25 17.5h64q0 -7 -3 -20t-3 -17q0 -17 33.5 -75t33.5 -66q0 1 -32 -62.5t-32 -99.5q0 -9 2 -16q-30 -1 -147 1z" />
    <glyph glyph-name="daggerdbl" unicode="&#x2021;" 
 />
    <glyph glyph-name="periodcentered" unicode="&#xb7;" 
 />
    <glyph glyph-name="periodcentered" unicode="&#x2219;" 
 />
    <glyph glyph-name="quotesinglbase" unicode="&#x201a;" horiz-adv-x="261" 
d="M7 65q0 28 28 48t68 20q47 0 72 -23t25 -57q0 -21 -10 -42q-18 -35 -57 -53q-34 -16 -66 -12q24 15 30 51q-38 2 -64 21.5t-26 46.5z" />
    <glyph glyph-name="quotedblbase" unicode="&#x201e;" horiz-adv-x="488" 
d="M-1 65q0 28 28 48t68 20q47 0 72 -23t25 -57q0 -21 -10 -42q-17 -35 -56 -53q-35 -16 -67 -12q24 15 30 51q-38 2 -64 21.5t-26 46.5zM229 65q0 28 28 48t68 20q47 0 72 -23t25 -57q0 -21 -10 -42q-17 -35 -56 -53q-35 -16 -67 -12q24 15 30 51q-38 2 -64 21.5t-26 46.5z
" />
    <glyph glyph-name="perthousand" unicode="&#x2030;" 
 />
    <glyph glyph-name="Acircumflex" unicode="&#xc2;" horiz-adv-x="847" 
d="M812 1h-218q40 21 40 72q0 27 -77 256t-77 261q0 77 90 77h40q-37 -47 -37 -84q0 -43 158 -489q14 -39 81 -93zM591 76q0 -66 -70 -74q-33 0 -50 -1q-17 0 -12 0q38 39 38 86q0 29 -36 122l-236 1q-45 -98 -45 -141q0 -33 35 -68h-213q16 11 31 21q22 19 34 48
q35 86 105 296.5t70 227.5q0 36 -28 73h255q-22 -21 -25 -26q-7 -13 -7 -43q0 -36 77 -259t77 -263zM437 298q-18 70 -82 262q-2 10 -5 14t-13 5l-89 -281h189zM541 727l-9 -30l-122 43l-121 -43l-9 30l128 91l3 -1l2 1l1 -2z" />
    <glyph glyph-name="Ecircumflex" unicode="&#xca;" horiz-adv-x="654" 
d="M458 260q-19 14 -53 40q14 5 27 10.5t27 22.5zM319 89q-49 0 -50 39v157q-2 13 5.5 20.5t17.5 7.5l50 -1q47 7 80 23q40 21 39 50v91q-10 -21 -48 -50.5t-65 -29.5q-4 0 -24 -1h-24q-30 0 -27 32v119q0 37 40 37h150q90 0 121 -133l1 140q-4 19 -32 44q-38 34 -87 33
h-173q-46 0 -68 -19q-43 -37 -41 -146v-372q0 -40 -6 -61q-11 -36 -47 -69h331q48 -2 89 33q30 27 34 45l-1 142q-23 -102 -125 -131h-140zM200 667q-39 -27 -49 -65q0 -1 -6 -55v-450q0 -23 -27 -59q-31 -38 -58 -38h-57q46 18 53 82l-1 429q1 0 1 34q1 41 -7 69
q-12 40 -40 54zM584 667l-38 -1q11 -7 21 -13.5t17 -20.5v35zM585 -2l-41 2q11 7 22 14.5t18 21.5q0 -19 1 -38zM431 727l-9 -30l-122 43l-121 -43l-9 30l128 91l3 -1l2 1l1 -2z" />
    <glyph glyph-name="Aacute" unicode="&#xc1;" horiz-adv-x="847" 
d="M812 1h-218q40 21 40 72q0 27 -77 256t-77 261q0 77 90 77h40q-37 -47 -37 -84q0 -43 158 -489q14 -39 81 -93zM591 76q0 -66 -70 -74q-33 0 -50 -1q-17 0 -12 0q38 39 38 86q0 29 -36 122l-236 1q-45 -98 -45 -141q0 -33 35 -68h-213q16 11 31 21q22 19 34 48
q35 86 105 296.5t70 227.5q0 36 -28 73h255q-22 -21 -25 -26q-7 -13 -7 -43q0 -36 77 -259t77 -263zM437 298q-18 70 -82 262q-2 10 -5 14t-13 5l-89 -281h189zM408 705l-89 1l111 107h132z" />
    <glyph glyph-name="Edieresis" unicode="&#xcb;" horiz-adv-x="654" 
d="M458 260q-19 14 -53 40q14 5 27 10.5t27 22.5zM319 89q-49 0 -50 39v157q-2 13 5.5 20.5t17.5 7.5l50 -1q47 7 80 23q40 21 39 50v91q-10 -21 -48 -50.5t-65 -29.5q-4 0 -24 -1h-24q-30 0 -27 32v119q0 37 40 37h150q90 0 121 -133l1 140q-4 19 -32 44q-38 34 -87 33
h-173q-46 0 -68 -19q-43 -37 -41 -146v-372q0 -40 -6 -61q-11 -36 -47 -69h331q48 -2 89 33q30 27 34 45l-1 142q-23 -102 -125 -131h-140zM200 667q-39 -27 -49 -65q0 -1 -6 -55v-450q0 -23 -27 -59q-31 -38 -58 -38h-57q46 18 53 82l-1 429q1 0 1 34q1 41 -7 69
q-12 40 -40 54zM584 667l-38 -1q11 -7 21 -13.5t17 -20.5v35zM585 -2l-41 2q11 7 22 14.5t18 21.5q0 -19 1 -38zM351 766q0 22 16.5 37.5t38.5 15.5q23 0 39.5 -15.5t16.5 -37.5t-16.5 -37.5t-39.5 -15.5q-22 0 -38.5 15.5t-16.5 37.5zM163 766q0 22 16.5 37.5t38.5 15.5
q23 0 39.5 -15.5t16.5 -37.5t-16.5 -37.5t-39.5 -15.5q-22 0 -38.5 15.5t-16.5 37.5z" />
    <glyph glyph-name="Egrave" unicode="&#xc8;" horiz-adv-x="654" 
d="M458 260q-19 14 -53 40q14 5 27 10.5t27 22.5zM319 89q-49 0 -50 39v157q-2 13 5.5 20.5t17.5 7.5l50 -1q47 7 80 23q40 21 39 50v91q-10 -21 -48 -50.5t-65 -29.5q-4 0 -24 -1h-24q-30 0 -27 32v119q0 37 40 37h150q90 0 121 -133l1 140q-4 19 -32 44q-38 34 -87 33
h-173q-46 0 -68 -19q-43 -37 -41 -146v-372q0 -40 -6 -61q-11 -36 -47 -69h331q48 -2 89 33q30 27 34 45l-1 142q-23 -102 -125 -131h-140zM200 667q-39 -27 -49 -65q0 -1 -6 -55v-450q0 -23 -27 -59q-31 -38 -58 -38h-57q46 18 53 82l-1 429q1 0 1 34q1 41 -7 69
q-12 40 -40 54zM584 667l-38 -1q11 -7 21 -13.5t17 -20.5v35zM585 -2l-41 2q11 7 22 14.5t18 21.5q0 -19 1 -38zM320 706h92l-110 107h-133z" />
    <glyph glyph-name="Iacute" unicode="&#xcd;" horiz-adv-x="333" 
d="M114 1q29 10 41 28q9 15 14 48v91v217v211q1 26 26.5 48t52.5 22h43q-39 -27 -39 -53l1 -539q0 -44 38 -73h-177zM179 666q-50 -18 -50 -87l-1 -515q0 -25 -30 -44.5t-57 -19.5q-4 0 -19 1h-20q39 23 39 55v537q0 44 -38 73h176zM146 705l-85 -1l104 107h132z" />
    <glyph glyph-name="Icircumflex" unicode="&#xce;" horiz-adv-x="333" 
d="M114 1q29 10 41 28q9 15 14 48v91v217v211q1 26 26.5 48t52.5 22h43q-39 -27 -39 -53l1 -539q0 -44 38 -73h-177zM179 666q-50 -18 -50 -87l-1 -515q0 -25 -30 -44.5t-57 -19.5q-4 0 -19 1h-20q39 23 39 55v537q0 44 -38 73h176zM271 727l-9 -30l-122 43l-121 -43l-9 30
l128 91l3 -1l2 1l1 -2z" />
    <glyph glyph-name="Idieresis" unicode="&#xcf;" horiz-adv-x="333" 
d="M114 1q29 10 41 28q9 15 14 48v91v217v211q1 26 26.5 48t52.5 22h43q-39 -27 -39 -53l1 -539q0 -44 38 -73h-177zM179 666q-50 -18 -50 -87l-1 -515q0 -25 -30 -44.5t-57 -19.5q-4 0 -19 1h-20q39 23 39 55v537q0 44 -38 73h176zM181 766q0 22 16.5 37.5t38.5 15.5
q23 0 39.5 -15.5t16.5 -37.5t-16.5 -37.5t-39.5 -15.5q-22 0 -38.5 15.5t-16.5 37.5zM13 766q0 22 16.5 37.5t38.5 15.5q23 0 39.5 -15.5t16.5 -37.5t-16.5 -37.5t-39.5 -15.5q-22 0 -38.5 15.5t-16.5 37.5z" />
    <glyph glyph-name="Igrave" unicode="&#xcc;" horiz-adv-x="333" 
d="M114 1q29 10 41 28q9 15 14 48v91v217v211q1 26 26.5 48t52.5 22h43q-39 -27 -39 -53l1 -539q0 -44 38 -73h-177zM179 666q-50 -18 -50 -87l-1 -515q0 -25 -30 -44.5t-57 -19.5q-4 0 -19 1h-20q39 23 39 55v537q0 44 -38 73h176zM170 706h92l-110 107h-133z" />
    <glyph glyph-name="Oacute" unicode="&#xd3;" horiz-adv-x="777" 
d="M716 128q0 -38 -18 -75q-25 -52 -71 -52l-40 -1q49 41 47 85v501q0 62 -53 81l34 -1q46 0 76 -38q26 -33 26 -68zM596 112q-12 -112 -99 -112h-230q-93 0 -104 112q2 111 2 222q0 112 -2 223q11 111 95 111h243q48 0 72 -30.5t23 -80.5q-3 -111 -3 -223q0 -111 3 -222z
M180 667q-22 -10 -38.5 -37.5t-16.5 -43.5v-501q-1 -31 13.5 -54.5t38.5 -30.5l-53 -1q-48 0 -72 46q-17 32 -17 68v456q0 37 30 68t68 30h47zM510 141l-1 387q0 54 -63 54h-133q-64 0 -64 -54q0 25 0 -141v-78q0 -195 0 -164q0 -29 19 -44q16 -14 39 -14h147q53 0 56 54z
M366 705l-85 -1l104 107h132z" />
    <glyph glyph-name="Ocircumflex" unicode="&#xd4;" horiz-adv-x="777" 
d="M716 128q0 -38 -18 -75q-25 -52 -71 -52l-40 -1q49 41 47 85v501q0 62 -53 81l34 -1q46 0 76 -38q26 -33 26 -68zM596 112q-12 -112 -99 -112h-230q-93 0 -104 112q2 111 2 222q0 112 -2 223q11 111 95 111h243q48 0 72 -30.5t23 -80.5q-3 -111 -3 -223q0 -111 3 -222z
M180 667q-22 -10 -38.5 -37.5t-16.5 -43.5v-501q-1 -31 13.5 -54.5t38.5 -30.5l-53 -1q-48 0 -72 46q-17 32 -17 68v456q0 37 30 68t68 30h47zM510 141l-1 387q0 54 -63 54h-133q-64 0 -64 -54q0 25 0 -141v-78q0 -195 0 -164q0 -29 19 -44q16 -14 39 -14h147q53 0 56 54z
M501 727l-9 -30l-122 43l-121 -43l-9 30l128 91l3 -1l2 1l1 -2z" />
    <glyph glyph-name="Ograve" unicode="&#xd2;" horiz-adv-x="777" 
d="M716 128q0 -38 -18 -75q-25 -52 -71 -52l-40 -1q49 41 47 85v501q0 62 -53 81l34 -1q46 0 76 -38q26 -33 26 -68zM596 112q-12 -112 -99 -112h-230q-93 0 -104 112q2 111 2 222q0 112 -2 223q11 111 95 111h243q48 0 72 -30.5t23 -80.5q-3 -111 -3 -223q0 -111 3 -222z
M180 667q-22 -10 -38.5 -37.5t-16.5 -43.5v-501q-1 -31 13.5 -54.5t38.5 -30.5l-53 -1q-48 0 -72 46q-17 32 -17 68v456q0 37 30 68t68 30h47zM510 141l-1 387q0 54 -63 54h-133q-64 0 -64 -54q0 25 0 -141v-78q0 -195 0 -164q0 -29 19 -44q16 -14 39 -14h147q53 0 56 54z
M380 706h92l-110 107h-133z" />
    <glyph glyph-name="Uacute" unicode="&#xda;" horiz-adv-x="663" 
d="M626 667q-10 -3 -25 -31q-18 -32 -18 -59v-443q3 -44 -20 -79q-35 -53 -120 -55h-157q-54 0 -88 27q-44 35 -41 109v393q0 57 15 84q23 41 91 54h23q-26 -12 -33 -43q-4 -17 -4 -57v-433q0 -25 9 -35t35 -11q70 -4 156 0q20 1 32.5 15t12.5 28l-1 446q0 65 -45 90h178z
M177 1h-34q-53 2 -83 45q-24 35 -24 73l-1 450q0 63 -39 99l179 -1q-50 -31 -50 -92v-477q0 -57 52 -97zM316 705l-85 -1l104 107h132z" />
    <glyph glyph-name="Ucircumflex" unicode="&#xdb;" horiz-adv-x="663" 
d="M626 667q-10 -3 -25 -31q-18 -32 -18 -59v-443q3 -44 -20 -79q-35 -53 -120 -55h-157q-54 0 -88 27q-44 35 -41 109v393q0 57 15 84q23 41 91 54h23q-26 -12 -33 -43q-4 -17 -4 -57v-433q0 -25 9 -35t35 -11q70 -4 156 0q20 1 32.5 15t12.5 28l-1 446q0 65 -45 90h178z
M177 1h-34q-53 2 -83 45q-24 35 -24 73l-1 450q0 63 -39 99l179 -1q-50 -31 -50 -92v-477q0 -57 52 -97zM451 727l-9 -30l-122 43l-121 -43l-9 30l128 91l3 -1l2 1l1 -2z" />
    <glyph glyph-name="Ugrave" unicode="&#xd9;" horiz-adv-x="663" 
d="M626 667q-10 -3 -25 -31q-18 -32 -18 -59v-443q3 -44 -20 -79q-35 -53 -120 -55h-157q-54 0 -88 27q-44 35 -41 109v393q0 57 15 84q23 41 91 54h23q-26 -12 -33 -43q-4 -17 -4 -57v-433q0 -25 9 -35t35 -11q70 -4 156 0q20 1 32.5 15t12.5 28l-1 446q0 65 -45 90h178z
M177 1h-34q-53 2 -83 45q-24 35 -24 73l-1 450q0 63 -39 99l179 -1q-50 -31 -50 -92v-477q0 -57 52 -97zM330 706h92l-110 107h-133z" />
    <glyph glyph-name="circumflex" unicode="&#x2c6;" horiz-adv-x="468" 
d="M350 730l-9 -30l-121 43l-122 -43l-9 30l128 82l3 -1l2 1l1 -3z" />
    <glyph glyph-name="tilde" unicode="&#x2dc;" horiz-adv-x="426" 
d="M141 748q-27 0 -33 -7q-4 -3 -4 -15h-46q0 27 31.5 51t61.5 24q29 0 51.5 -16t43.5 -16q34 0 33 0q4 1 24 24h44q0 -28 -35.5 -53t-65.5 -25q-25 0 -51 16.5t-54 16.5z" />
    <glyph glyph-name="macron" unicode="&#xaf;" horiz-adv-x="280" 
d="M24 790h233v-52h-233v52z" />
    <glyph glyph-name="macron" unicode="&#x2c9;" horiz-adv-x="280" 
d="M24 790h233v-52h-233v52z" />
    <glyph glyph-name="cedilla" unicode="&#xb8;" horiz-adv-x="372" 
d="M80 11h59v-56q24 4 43 4q51 0 84 -22.5t33 -53.5q0 -42 -54 -67q-48 -22 -121 -22q-8 0 -88 24l28 40q29 -19 77 -19q50 0 50 39q0 43 -47 43q-10 0 -64 1q1 65 0 89z" />
    <glyph glyph-name="Scaron" unicode="&#x160;" 
 />
    <glyph glyph-name="scaron" unicode="&#x161;" 
 />
    <glyph glyph-name="brokenbar" unicode="&#xa6;" 
 />
    <glyph glyph-name="Eth" unicode="&#xd0;" 
 />
    <glyph glyph-name="eth" unicode="&#xf0;" 
 />
    <glyph glyph-name="Yacute" unicode="&#xdd;" 
 />
    <glyph glyph-name="yacute" unicode="&#xfd;" 
 />
    <glyph glyph-name="Thorn" unicode="&#xde;" 
 />
    <glyph glyph-name="thorn" unicode="&#xfe;" 
 />
    <glyph glyph-name="uni00AD" unicode="&#xad;" 
 />
    <glyph glyph-name="uni00AD" unicode="&#x2212;" 
 />
    <glyph glyph-name="multiply" unicode="&#xd7;" 
 />
    <glyph glyph-name="uni00B9" unicode="&#xb9;" 
 />
    <glyph glyph-name="uni00B2" unicode="&#xb2;" 
 />
    <glyph glyph-name="uni00B3" unicode="&#xb3;" horiz-adv-x="16" 
 />
    <glyph glyph-name="onehalf" unicode="&#xbd;" 
 />
    <glyph glyph-name="onequarter" unicode="&#xbc;" 
 />
    <glyph glyph-name="threequarters" unicode="&#xbe;" 
 />
    <glyph glyph-name="Lslash" unicode="&#x141;" 
 />
    <glyph glyph-name="lslash" unicode="&#x142;" 
 />
    <glyph glyph-name="glyph220" 
 />
    <glyph glyph-name="glyph221" 
 />
    <glyph glyph-name="glyph222" 
 />
    <glyph glyph-name="Zcaron" unicode="&#x17d;" 
 />
    <glyph glyph-name="zcaron" unicode="&#x17e;" 
 />
    <glyph glyph-name="glyph225" 
 />
    <glyph glyph-name="glyph226" 
 />
    <glyph glyph-name="glyph227" 
 />
    <glyph glyph-name="glyph228" 
 />
    <glyph glyph-name="glyph229" 
 />
    <glyph glyph-name="glyph230" 
 />
    <glyph glyph-name="glyph231" 
 />
    <glyph glyph-name="glyph232" horiz-adv-x="1002" 
 />
    <glyph glyph-name="notequal" unicode="&#x2260;" horiz-adv-x="14" 
 />
    <glyph glyph-name="infinity" unicode="&#x221e;" 
 />
    <glyph glyph-name="lessequal" unicode="&#x2264;" 
 />
    <glyph glyph-name="greaterequal" unicode="&#x2265;" 
 />
    <glyph glyph-name="partialdiff" unicode="&#x2202;" horiz-adv-x="609" 
d="M554 220v-142q-4 -18 -34 -44q-39 -34 -88 -34h-301q36 33 47 69q6 21 6 61l-1 401q0 136 112 136q14 0 33 -3q-19 0 -34 -24q-20 -32 -24 -97q0 -7 -1 -116l120 94v-78l-119 -93q-2 -222 -1 -222q1 -39 50 -39h110q30 9 53 24q56 38 72 107zM555 -2l-41 2q11 7 22 14.5
t18 21.5q0 -19 1 -38zM200 667q-55 -37 -55 -111q0 -9 1 -16l-1 -443q0 -23 -27 -58q-31 -39 -58 -39h-57q46 18 53 82v100l-56 -48v81l56 44l2 275v28q0 34 -9 58q-12 34 -40 48z" />
    <glyph glyph-name="summation" unicode="&#x2211;" horiz-adv-x="691" 
d="M591 619q-17 36 -56 48h57zM621 113q0 -33 -26 -71q-30 -43 -67 -42h-57q42 30 49 41q11 16 11 58q0 103 -2 115q-4 40 -39 64q-99 40 -305 136q-30 16 -38 43q-3 10 -3 39q0 86 0 85q2 50 45 73q34 19 72 13h187q51 0 92 -30q49 -37 49 -103q0 -4 1 -19v-15
q-64 56 -66 57q-27 17 -78 17h-164q-27 2 -33 -18q0 -14 -1 -27q-5 -46 24 -60q71 -35 267 -113q80 -33 81 -136zM495 93q0 -33 -35 -63t-70 -30h-214q-41 0 -83 25q-52 31 -66 82q0 87 -1 84q36 -69 99 -93q37 -14 104 -14h127q32 0 37 1q20 5 20 29q0 47 -1 45q2 16 -9 25
q-5 5 -29 16l-140 60q-91 40 -141 74q-68 47 -66 113q-1 61 0 142q4 35 33 57.5t74 22.5h35q-52 -15 -60 -78v-123q0 -30 1 -30q3 -17 26 -35q38 -30 144 -79q91 -42 183 -83q34 -16 32 -58v-90zM78 0h-53v49q15 -31 53 -49zM450 782l-9 30l-121 -44l-122 44l-9 -30l128 -82
l3 1l2 -1l1 2z" />
    <glyph glyph-name="product" unicode="&#x220f;" horiz-adv-x="691" 
d="M591 619q-17 36 -56 48h57zM621 113q0 -33 -26 -71q-30 -43 -67 -42h-57q42 30 49 41q11 16 11 58q0 103 -2 115q-4 40 -39 64q-99 40 -305 136q-30 16 -38 43q-3 10 -3 39q0 86 0 85q2 50 45 73q34 19 72 13h187q51 0 92 -30q49 -37 49 -103q0 -4 1 -19v-15
q-64 56 -66 57q-27 17 -78 17h-164q-27 2 -33 -18q0 -14 -1 -27q-5 -46 24 -60q71 -35 267 -113q80 -33 81 -136zM495 93q0 -33 -35 -63t-70 -30h-214q-41 0 -83 25q-52 31 -66 82q0 87 -1 84q36 -69 99 -93q37 -14 104 -14h127q32 0 37 1q20 5 20 29q0 47 -1 45q2 16 -9 25
q-5 5 -29 16l-140 60q-91 40 -141 74q-68 47 -66 113q-1 61 0 142q4 35 33 57.5t74 22.5h35q-52 -15 -60 -78v-123q0 -30 1 -30q3 -17 26 -35q38 -30 144 -79q91 -42 183 -83q34 -16 32 -58v-90zM78 0h-53v49q15 -31 53 -49zM450 782l-9 30l-121 -44l-122 44l-9 -30l128 -82
l3 1l2 -1l1 2z" />
    <glyph glyph-name="pi" unicode="&#x3c0;" horiz-adv-x="668" 
d="M645 667q-39 -7 -66 -60q-42 -74 -157 -273l1 -244q0 -21 14 -49q15 -32 32 -41l-181 1q49 33 49 102l-1 244q0 9 -84 159q-87 155 -104 161h156l-12 -16q-9 -11 -9 -25q0 -11 5 -24q49 -87 100 -181q8 8 46 73q43 74 54 108q6 18 6 30q0 14 -23 35h174zM302 106
q0 -45 -26 -75t-72 -30h-31q13 11 27.5 35.5t14.5 38.5v254q0 11 -91 164q-97 161 -124 174h39q10 1 19 1q36 0 57 -18q9 -8 24 -32q12 -18 163 -276v-236zM321 707l-87 1l106 105h132z" />
    <glyph glyph-name="integral" unicode="&#x222b;" horiz-adv-x="668" 
d="M645 667q-39 -7 -66 -60q-42 -74 -157 -273l1 -244q0 -21 14 -49q15 -32 32 -41l-181 1q49 33 49 102l-1 244q0 9 -84 159q-87 155 -104 161h156l-12 -16q-9 -11 -9 -25q0 -11 5 -24q49 -87 100 -181q8 8 46 73q43 74 54 108q6 18 6 30q0 14 -23 35h174zM302 106
q0 -45 -26 -75t-72 -30h-31q13 11 27.5 35.5t14.5 38.5v254q0 11 -91 164q-97 161 -124 174h39q10 1 19 1q36 0 57 -18q9 -8 24 -32q12 -18 163 -276v-236zM321 707l-87 1l106 105h132z" />
    <glyph glyph-name="Omega" unicode="&#x3a9;" horiz-adv-x="703" 
d="M638 632q-7 13 -20 22q-17 13 -19 15l39 -1q-1 -17 0 -36zM638 0l-39 -1q13 8 39 37q-1 -18 0 -36zM461 259h-185v-127q0 -46 65 -46l166 1q102 1 132 132l-1 -129q0 -26 -36 -56q-42 -34 -93 -34l-224 -1q-83 -1 -94 113q2 111 2 222q0 112 -2 223q11 111 94 111h229
q51 0 90 -34q34 -29 34 -56l1 -128q-30 130 -132 131l-166 1q-65 0 -65 -45v-79h185v-69h-185v-61h185v-69zM65 263h-65v63h65v67h-65v63h65v104q0 32 30 70t66 38h59q-31 -11 -51 -40q-16 -24 -16 -42v-501q0 -58 41 -84l-43 -2q-46 -1 -70 61q-16 42 -16 85v118z" />
    <glyph glyph-name="Omega" unicode="&#x2126;" horiz-adv-x="703" 
d="M638 632q-7 13 -20 22q-17 13 -19 15l39 -1q-1 -17 0 -36zM638 0l-39 -1q13 8 39 37q-1 -18 0 -36zM461 259h-185v-127q0 -46 65 -46l166 1q102 1 132 132l-1 -129q0 -26 -36 -56q-42 -34 -93 -34l-224 -1q-83 -1 -94 113q2 111 2 222q0 112 -2 223q11 111 94 111h229
q51 0 90 -34q34 -29 34 -56l1 -128q-30 130 -132 131l-166 1q-65 0 -65 -45v-79h185v-69h-185v-61h185v-69zM65 263h-65v63h65v67h-65v63h65v104q0 32 30 70t66 38h59q-31 -11 -51 -40q-16 -24 -16 -42v-501q0 -58 41 -84l-43 -2q-46 -1 -70 61q-16 42 -16 85v118z" />
    <glyph glyph-name="radical" unicode="&#x221a;" 
 />
    <glyph glyph-name="approxequal" unicode="&#x2248;" 
 />
    <glyph glyph-name="approxequal" unicode="&#x22f2;" 
 />
    <glyph glyph-name="Delta" unicode="&#x394;" 
 />
    <glyph glyph-name="Delta" unicode="&#x2206;" 
 />
    <glyph glyph-name="lozenge" unicode="&#x25ca;" horiz-adv-x="514" 
d="M67 258l-40 41l209 210l41 -41zM304 442l142 -143l-210 -210l-142 143z" />
    <glyph glyph-name="fraction" unicode="&#x2044;" 
 />
    <glyph glyph-name="uniF001" unicode="&#xf001;" 
 />
    <glyph glyph-name="uniF002" unicode="&#xf002;" 
 />
    <glyph glyph-name="uniF000" unicode="&#xf000;" 
 />
    <glyph glyph-name="dotlessi" unicode="&#x131;" horiz-adv-x="333" 
d="M114 1q29 10 41 28q9 15 14 48v91v217v211q1 26 26.5 48t52.5 22h43q-39 -27 -39 -53l1 -539q0 -44 38 -73h-177zM179 666q-50 -18 -50 -87l-1 -515q0 -25 -30 -44.5t-57 -19.5q-4 0 -19 1h-20q39 23 39 55v537q0 44 -38 73h176z" />
    <glyph glyph-name="breve" unicode="&#x2d8;" horiz-adv-x="326" 
d="M45 824q3 -14 35 -34q36 -22 73 -21q82 1 120 55l29 -20q-63 -89 -151 -85q-50 2 -90.5 27t-46.5 61z" />
    <glyph glyph-name="dotaccent" unicode="&#x2d9;" horiz-adv-x="660" 
d="M134 745q0 22 16.5 38t38.5 16q23 0 39 -16t16 -38q0 -23 -16 -39t-39 -16q-22 0 -38.5 16t-16.5 39z" />
    <glyph glyph-name="ring" unicode="&#x2da;" horiz-adv-x="238" 
d="M109 847q36 0 61.5 -21.5t25.5 -50.5q0 -30 -25.5 -51.5t-61.5 -21.5t-61.5 21.5t-25.5 51.5q0 29 25.5 50.5t61.5 21.5zM109 812q-18 0 -31.5 -11t-13.5 -26q0 -16 13.5 -27t31.5 -11q19 0 32 11t13 27q0 15 -13 26t-32 11z" />
    <glyph glyph-name="hungarumlaut" unicode="&#x2dd;" horiz-adv-x="398" 
d="M82 704l-20 16l58 87q21 31 43 31q17 0 29 -12t12 -29q0 -25 -48 -52zM223 704l-19 16l58 87q21 31 43 31q17 0 29 -12t12 -29q0 -25 -49 -52z" />
    <glyph glyph-name="ogonek" unicode="&#x2db;" horiz-adv-x="447" 
d="M196 0h76q-33 -19 -52 -33q-31 -22 -31 -61q0 -20 19.5 -32t39.5 -12q44 0 105 20l18 -35q-80 -38 -162 -38q-45 0 -81 16q-45 22 -45 63q0 49 37 75q6 5 76 37z" />
    <glyph glyph-name="caron" unicode="&#x2c7;" horiz-adv-x="512" 
d="M350 782l-9 30l-121 -44l-122 44l-9 -30l128 -82l3 1l2 -1l1 2z" />
    </font>
</defs>
</svg>
