<?xml version="1.0" standalone="no"?>
<!DOCTYPE svg PUBLIC "-//W3C//DTD SVG 1.1//EN" "http://www.w3.org/Graphics/SVG/1.1/DTD/svg11.dtd" >
<svg>
<metadata>
Created by FontForge 20120731 at Wed Apr 17 22:14:29 2019
 By www-data
Digitized by Dan X. Solo.  Software (c) 2000 by Dover Publications, Inc., New York.
</metadata>
<defs>
<font id="RoundBlackNormal" horiz-adv-x="20" >
  <font-face 
    font-family="Round Black"
    font-weight="400"
    font-stretch="normal"
    units-per-em="1000"
    panose-1="0 0 4 0 0 0 0 0 0 0"
    ascent="800"
    descent="-200"
    x-height="501"
    cap-height="671"
    bbox="-55.434 -202 961 847"
    underline-thickness="20"
    underline-position="-123"
    unicode-range="U+0020-F002"
  />
<missing-glyph horiz-adv-x="500" 
d="M63 0v800h375v-800h-375zM125 63h250v675h-250v-675z" />
    <glyph glyph-name=".notdef" horiz-adv-x="500" 
d="M63 0v800h375v-800h-375zM125 63h250v675h-250v-675z" />
    <glyph glyph-name=".null" horiz-adv-x="0" 
 />
    <glyph glyph-name="glyph2" horiz-adv-x="189" 
 />
    <glyph glyph-name="space" unicode=" " horiz-adv-x="189" 
 />
    <glyph glyph-name="exclam" unicode="!" horiz-adv-x="285" 
d="M86 677h34q29 0 50.5 -21.5t21.5 -50.5v-325q0 -30 -21.5 -51t-50.5 -21h-34q-30 0 -51 21t-21 51v325q0 29 21 50.5t51 21.5zM74 173h55q30 0 51 -21.5t21 -50.5v-28q0 -30 -21 -51t-51 -21h-55q-30 0 -51 21t-21 51v28q0 29 21 50.5t51 21.5z" />
    <glyph glyph-name="quotedbl" unicode="&#x22;" horiz-adv-x="342" 
d="M200 673h23q18 0 31.5 -13t11.5 -30l-20 -165q-3 -24 -8 -32q-8 -11 -30 -11q-35 -1 -38 43l-13 165q-2 17 11.5 30t31.5 13zM50 673h23q18 0 31.5 -13t11.5 -30l-20 -165q-3 -24 -8 -32q-8 -11 -30 -11q-35 -1 -38 43l-13 165q-2 17 11.5 30t31.5 13z" />
    <glyph glyph-name="numbersign" unicode="#" horiz-adv-x="515" 
d="M281 391h-65l-27 -100h65zM145 541h36l24 89q4 18 18.5 30t30.5 12q27 0 27 -29q0 -6 -1 -13l-24 -89h65l24 89q4 18 18.5 30t30.5 12q27 0 27 -29q0 -6 -1 -13l-24 -89h43q32 0 32 -31q0 -5 -1 -11l-18 -66q-5 -17 -20.5 -29.5t-32.5 -12.5h-43l-27 -100h43q32 0 32 -31
q0 -5 -1 -11l-18 -66q-5 -17 -20.5 -29.5t-32.5 -12.5h-43l-27 -101q-5 -18 -19.5 -30t-29.5 -12q-28 0 -28 30q0 6 2 12l27 101h-65l-27 -101q-5 -18 -19.5 -30t-29.5 -12q-28 0 -28 30q0 6 2 12l27 101h-36q-32 0 -32 32q0 5 1 10l18 66q5 18 20.5 30t32.5 12h36l27 100
h-36q-32 0 -32 32q0 5 1 10l18 66q5 18 20.5 30t32.5 12z" />
    <glyph glyph-name="dollar" unicode="$" horiz-adv-x="459" 
d="M186 669h17q23 0 38.5 -16t16.5 -39l1 -25q14 1 53 -1q72 -1 72 -86q0 -71 0 -68h-172q-5 24 0 43h-43q-2 0 1 0q5 -1 1 -2v-92h153q17 0 36.5 -19.5t19.5 -36.5l1 -180q0 -68 -75 -69h-48v-27q0 -23 -16 -39.5t-39 -16.5h-17q-23 0 -39 16.5t-16 39.5v26h-73
q-17 0 -37 19t-20 42l-1 95h166l1 -48h40v98h-142q-19 0 -41 18.5t-22 36.5v167q0 45 27 67q24 21 64 18q11 -1 38 -2v26q0 22 16 38.5t39 16.5z" />
    <glyph glyph-name="percent" unicode="%" horiz-adv-x="691" 
d="M618 63q0 -19 -11 -39q-14 -24 -36 -24h-129q-48 0 -50 63v268q-1 25 11 47.5t34 22.5h130q51 0 51 -72v-266zM518 109v179h-28v-179h28zM453 642q0 -8 -3 -17l-220 -585q-9 -25 -15 -31q-12 -15 -34 -11q-18 3 -18 23q0 9 4 19l220 585q17 46 37 46q29 0 29 -29z
M228 333q0 -19 -11 -39q-14 -24 -36 -24h-129q-48 0 -50 63v268q-1 25 11 47.5t34 22.5h130q51 0 51 -72v-266zM128 379v179h-28v-179h28z" />
    <glyph glyph-name="ampersand" unicode="&#x26;" horiz-adv-x="587" 
d="M531 280h-42v-193q0 -28 -26 -57t-53 -29h-166q-111 -1 -167 -1q-26 0 -52 31.5t-26 58.5v164q0 56 73 77q-42 15 -55 42q-11 21 -11 67q0 21 -1 62.5t-1 62.5q0 40 27 72.5t66 32.5h295q46 0 71.5 -27.5t25.5 -73.5l1 -128l-217 1v57h-56v-113h314q1 -33 1 -41
q0 -6 -1 -65zM268 172v105h-51v-105h51z" />
    <glyph glyph-name="quotesingle" unicode="'" horiz-adv-x="164" 
d="M50 673h23q18 0 31.5 -13t11.5 -30l-20 -165q-3 -24 -8 -32q-8 -11 -30 -11q-35 -1 -38 43l-13 165q-2 17 11.5 30t31.5 13z" />
    <glyph glyph-name="parenleft" unicode="(" horiz-adv-x="305" 
d="M176 694q5 2 10 2q15 0 28 -9t13 -23q0 -11 -7 -22q-64 -50 -99 -127q-37 -84 -32 -183q-4 -92 30 -174q37 -86 105 -134q8 -8 8 -16q0 -15 -18 -28t-34 -13q-5 0 -8 2q-85 53 -133 160q-43 99 -43 217q0 121 46 214q49 101 134 134z" />
    <glyph glyph-name="parenright" unicode=")" horiz-adv-x="305" 
d="M51 694q-4 2 -10 2q-14 0 -27.5 -9t-13.5 -23q0 -11 8 -22q63 -50 98 -127q38 -84 33 -183q3 -92 -31 -174q-37 -86 -105 -134q-7 -8 -7 -16q0 -15 18 -28t33 -13q5 0 8 2q86 53 133 160q44 99 44 217q0 121 -46 214q-49 101 -135 134z" />
    <glyph glyph-name="asterisk" unicode="*" horiz-adv-x="386" 
d="M161 672q11 0 22 -7t11 -17q0 -11 -12 -106q87 68 96 68q13 0 23.5 -13.5t10.5 -26.5q0 -15 -13 -21q-31 -16 -92 -44l92 -39q13 -6 13 -22q0 -13 -10.5 -26t-23.5 -13q-15 0 -96 62q12 -100 12 -102q0 -24 -30 -24q-11 0 -23 7.5t-12 17.5q0 1 7 97q-23 -16 -45 -33
q-36 -25 -47 -25q-12 0 -22.5 13t-10.5 26q0 16 13 22l92 39q-1 0 -92 44q-13 6 -13 21q0 13 10.5 26.5t23.5 13.5q10 0 46 -28l46 -36q-8 64 -8 102q0 24 32 24z" />
    <glyph glyph-name="plus" unicode="+" horiz-adv-x="579" 
d="M180 130v116h-116q-29 0 -45.5 20.5t-16.5 51.5v3q0 31 16.5 51.5t45.5 20.5h116v116q0 29 20.5 45.5t51.5 16.5h3q31 0 51.5 -16.5t20.5 -45.5v-116h116q28 0 45 -20.5t17 -51.5v-3q0 -31 -17 -51.5t-45 -20.5h-116v-116q0 -29 -20.5 -45.5t-51.5 -16.5h-3
q-31 0 -51.5 16.5t-20.5 45.5z" />
    <glyph glyph-name="comma" unicode="," horiz-adv-x="276" 
d="M74 183h55q30 0 51 -21.5t21 -50.5v-38q0 -17 -7 -32q-14 -28 -44 -66q-45 -58 -49 -64h-43l38 90h-22q-30 0 -51 21t-21 51v38q0 29 21 50.5t51 21.5z" />
    <glyph glyph-name="hyphen" unicode="-" horiz-adv-x="377" 
d="M64 393h179q28 0 45 -20.5t17 -51.5v-3q0 -31 -17 -51.5t-45 -20.5h-179q-29 0 -45.5 20.5t-16.5 51.5v3q0 31 16.5 51.5t45.5 20.5z" />
    <glyph glyph-name="hyphen" unicode="&#x2010;" horiz-adv-x="377" 
d="M64 393h179q28 0 45 -20.5t17 -51.5v-3q0 -31 -17 -51.5t-45 -20.5h-179q-29 0 -45.5 20.5t-16.5 51.5v3q0 31 16.5 51.5t45.5 20.5z" />
    <glyph glyph-name="period" unicode="." horiz-adv-x="276" 
d="M74 183h55q30 0 51 -21.5t21 -50.5v-38q0 -30 -21 -51t-51 -21h-55q-30 0 -51 21t-21 51v38q0 29 21 50.5t51 21.5z" />
    <glyph glyph-name="slash" unicode="/" horiz-adv-x="299" 
d="M293 642q0 -8 -3 -17l-220 -585q-9 -25 -15 -31q-12 -15 -34 -11q-18 3 -18 23q0 9 4 19l220 585q17 46 37 46q29 0 29 -29z" />
    <glyph glyph-name="zero" unicode="0" horiz-adv-x="547" 
d="M471 111q0 -110 -108 -110h-257q-98 0 -108 100q-1 221 0 454q0 52 18 77q24 34 90 37h252q112 2 112 -111zM266 157v344q-25 -3 -55 0v-344h55z" />
    <glyph glyph-name="one" unicode="1" horiz-adv-x="361" 
d="M268 600v-502q0 -99 -62 -99q-86 0 -103 7q-41 17 -41 92v371q-19 5 -37 2v116q3 81 98 84l40 2q37 1 68 -17q37 -20 37 -56z" />
    <glyph glyph-name="two" unicode="2" horiz-adv-x="534" 
d="M459 334q0 -36 -29 -65q-25 -25 -49 -25h-171v-80h246v-86q0 -26 -18 -50q-22 -29 -57 -27h-293q-30 3 -56 24q-29 24 -29 51v247q0 74 87 74l162 -1l1 101h-51q-3 -1 -2 -39h-194v126q8 84 110 84h248q49 0 75 -38q20 -30 20 -69v-227z" />
    <glyph glyph-name="three" unicode="3" horiz-adv-x="520" 
d="M446 89q-1 -37 -24 -62q-28 -31 -76 -27h-250q-95 -3 -95 89v51.5v59.5h202q0 -30 1 -45l44 1q-2 37 0 99h-119v151h116v93l-44 1q-4 -15 1 -42h-201l-1 135q-2 33 30 56q27 19 51 19h280q41 2 68 -35q22 -31 17 -47l-1 -156q0 -36 -6 -50q-13 -27 -56 -44q62 -9 63 -75
q1 -157 0 -172z" />
    <glyph glyph-name="four" unicode="4" horiz-adv-x="521" 
d="M446 587l1 -502q-6 -93 -103 -87q-20 1 -98 1l-1 176h-149q-30 0 -55 19q-29 22 -37 60v336q5 40 35 61q23 17 54 17q-1 0 8.5 -1t28.5 -1q27 0 72 1v-335h46v335q24 0 72 1h48q26 0 50 -23.5t28 -57.5z" />
    <glyph glyph-name="five" unicode="5" horiz-adv-x="517" 
d="M444 76q2 -32 -20 -52.5t-48 -22.5l-275 -1q-97 0 -97 66v148h199v-47h43q0 14 2 120h-249v300q0 33 25 57t52 24h284q25 0 49 -15q32 -21 32 -57v-97h-236l-1 -64h145q41 0 67.5 -22.5t27.5 -63.5v-273z" />
    <glyph glyph-name="six" unicode="6" horiz-adv-x="526" 
d="M451 100q0 -51 -24 -77.5t-55 -21.5h-284q-41 0 -65 32t-22 75v464q4 69 31 87q15 10 67 10l235 1q114 0 117 -83l-2 -85l-243 1l1 -70h174q22 0 45.5 -26.5t23.5 -46.5zM258 167v120h-50v-120h50z" />
    <glyph glyph-name="seven" unicode="7" horiz-adv-x="488" 
d="M421 569l-101 -504q-1 -15 -23 -37q-25 -27 -53 -27h-153q65 303 101 499h-191q1 10 1 68q0 100 88 100h254q28 0 53.5 -25t25.5 -58q0 -8 -2 -16z" />
    <glyph glyph-name="eight" unicode="8" horiz-adv-x="529" 
d="M456 77q-2 -34 -27.5 -57t-50.5 -19h-284q-87 0 -87 81v156q0 40 14 60.5t53 33.5q-23 6 -45 28q-25 24 -25 48v185q0 28 17 49q20 26 58 26h293q35 0 58 -22t23 -56v-136q0 -44 -7 -63q-13 -39 -57 -56q28 -2 47.5 -25t19.5 -51v-182zM252 170v102h-45l1 -102h44z
M252 410v92h-45l1 -92h44z" />
    <glyph glyph-name="nine" unicode="9" horiz-adv-x="529" 
d="M453 82q0 -31 -24.5 -56t-53.5 -25l-276 -1q-21 1 -42 1q-25 2 -38 17q-16 20 -16 66v86l247 -1v80h-153q-96 -6 -97 72l1 251q-3 95 93 95l257 1q102 0 102 -101v-485zM248 396v106h-39v-106q22 -4 39 0z" />
    <glyph glyph-name="colon" unicode=":" horiz-adv-x="276" 
d="M74 503h55q30 0 51 -21.5t21 -50.5v-38q0 -30 -21 -51t-51 -21h-55q-30 0 -51 21t-21 51v38q0 29 21 50.5t51 21.5zM74 183h55q30 0 51 -21.5t21 -50.5v-38q0 -30 -21 -51t-51 -21h-55q-30 0 -51 21t-21 51v38q0 29 21 50.5t51 21.5z" />
    <glyph glyph-name="semicolon" unicode=";" horiz-adv-x="276" 
d="M74 503h55q30 0 51 -21.5t21 -50.5v-38q0 -30 -21 -51t-51 -21h-55q-30 0 -51 21t-21 51v38q0 29 21 50.5t51 21.5zM74 183h55q30 0 51 -21.5t21 -50.5v-38q0 -17 -7 -32q-14 -28 -44 -66q-45 -58 -49 -64h-43l38 90h-22q-30 0 -51 21t-21 51v38q0 29 21 50.5t51 21.5z
" />
    <glyph glyph-name="less" unicode="&#x3c;" horiz-adv-x="357" 
d="M60 425l113 95q20 17 43 17q28 0 52 -24l2 -2q26 -26 26 -55q0 -24 -19 -40l-103 -83l103 -83q19 -15 19 -39q0 -30 -26 -56l-2 -2q-24 -24 -52 -24q-22 0 -43 17l-112 93q-57 46 -57 95q0 50 56 91z" />
    <glyph glyph-name="equal" unicode="=" horiz-adv-x="579" 
d="M64 233h379q62 0 62 -52v-3q0 -52 -62 -52h-379q-62 0 -62 52v3q0 52 62 52zM64 413h379q62 0 62 -52v-3q0 -52 -62 -52h-379q-62 0 -62 52v3q0 52 62 52z" />
    <glyph glyph-name="greater" unicode="&#x3e;" horiz-adv-x="357" 
d="M241 242l-114 -96q-19 -17 -42 -17q-28 0 -52 24l-2 2q-27 27 -27 56q0 24 20 39l103 83l-103 84q-20 15 -20 39q0 29 27 55l2 2q24 24 51 24q23 0 43 -16l113 -93q56 -46 56 -95q0 -51 -55 -91z" />
    <glyph glyph-name="question" unicode="?" horiz-adv-x="534" 
d="M123 333q0 34 6 44q13 20 61 20l62 -1l1 101h-51q-3 -1 -2 -39h-194v126q8 84 110 84h248q49 0 75 -38q20 -30 20 -69v-217q0 -36 -29 -60q-24 -20 -49 -20h-91v-53h-166zM184 173h55q30 0 51 -21.5t21 -50.5v-28q0 -30 -21 -51t-51 -21h-55q-30 0 -51 21t-21 51v28
q0 29 21 50.5t51 21.5z" />
    <glyph glyph-name="at" unicode="@" horiz-adv-x="642" 
d="M513 67h-117q-41 0 -59 45q-18 -45 -68 -45q-62 0 -92 64q-22 47 -22 112v84q0 59 30 112q36 64 94 64l137 -1l1 -294q0 -37 26 -37q4 0 12 -1h12q20 0 20 32v166q0 81 -24 132q-30 67 -96 67h-117q-69 0 -111 -67q-36 -58 -36 -135v-167q0 -71 37 -129q42 -66 110 -66
h214v-103h-214q-122 0 -190 95q-61 83 -61 207v166q0 124 60 207q69 95 191 95h117q106 0 167 -93q52 -80 52 -189v-228q0 -32 -19 -60q-21 -33 -54 -33zM328 400h-49q-29 0 -29 -73v-84q0 -73 29 -73q22 0 35.5 23t13.5 50v157z" />
    <glyph glyph-name="A" unicode="A" horiz-adv-x="567" 
d="M491 94q0 -31 -16 -58q-19 -35 -54 -35h-147v165h-61v-168h-140q-21 0 -47.5 24.5t-26.5 46.5v525q0 24 20 45.5t52 27.5l322 2q58 0 81 -35q17 -26 17 -79v-461zM273 312v188h-58v-188q40 2 58 0z" />
    <glyph glyph-name="B" unicode="B" horiz-adv-x="567" 
d="M487 424q0 -40 -8.5 -54t-51.5 -36q-2 2 -6 -1q22 -7 43 -27q25 -22 27 -42v-179q0 -30 -22 -55t-62 -32l-330 3q-30 -1 -53.5 25t-26.5 63l1 489q-1 53 25 74q22 16 75 16h298q27 3 57 -23t34 -58v-163zM269 495h-49v-115h49v115zM267 168v110h-52l-1 -110h53z" />
    <glyph glyph-name="C" unicode="C" horiz-adv-x="561" 
d="M488 81q0 -32 -26 -57.5t-56 -25.5h-325q-26 0 -54 26.5t-29 59.5l1 505q6 81 104 81l305 -3q20 2 49 -24t29 -56v-225h-216v135h-57v-332q5 3 56 0v144h219v-228z" />
    <glyph glyph-name="D" unicode="D" horiz-adv-x="590" 
d="M514 92q0 -25 -14 -53q-19 -36 -50 -36h-384q-16 0 -43 23.5t-26 42.5v98h25v334q-8 3 -25 2q-2 4 -1 49q1 44 2 48q8 30 28.5 49.5t44.5 19.5h354q33 0 61 -21.5t28 -53.5v-502zM296 168v331h-59v-331h59z" />
    <glyph glyph-name="E" unicode="E" horiz-adv-x="512" 
d="M436 84q0 -86 -91 -86q-9 0 -18 1h-253q-43 11 -58 52q-9 25 -9 83v457q0 79 126 79l212 -1q31 2 62 -28t29 -63l1 -75h-212q-1 1 -1 -81h213v-162h-209v-92h209z" />
    <glyph glyph-name="F" unicode="F" horiz-adv-x="492" 
d="M422 587q-1 -15 0 -90h-201v-83h196v-155h-196v-260h-137q-81 0 -81 104l-1 478q4 36 31.5 62t57.5 26h255q25 0 46 -16q28 -22 30 -66z" />
    <glyph glyph-name="G" unicode="G" horiz-adv-x="576" 
d="M501 93q1 -24 -24 -57q-28 -36 -59 -36h-339q-27 3 -53 33t-26 63v471q0 48 12 67q22 35 88 35h312q34 0 62 -29t26 -74l-1 -93h-220v24h-57v-328h55v246h224v-322z" />
    <glyph glyph-name="H" unicode="H" horiz-adv-x="589" 
d="M512 592l-1 -486q5 -39 -18 -73q-25 -37 -66 -37h-142v250h-55v-250h-71l-48 -1q-39 0 -65 18q-34 23 -38 69v467q-2 45 18 79q23 39 63 39h145v-250q4 1 54 0v251h150q22 0 47 -25t27 -51z" />
    <glyph glyph-name="I" unicode="I" horiz-adv-x="303" 
d="M112 -7q-41 0 -73 27.5t-33 68.5l-2 486q0 47 34 73q30 23 78 23q40 0 72 -22q38 -27 38 -73v-492q0 -91 -114 -91z" />
    <glyph glyph-name="J" unicode="J" horiz-adv-x="451" 
d="M374 581l3 -504q-14 -82 -106 -82l-192 3q-22 -1 -49 22q-30 25 -29 49v97h155v504h83q65 0 86 -8q45 -18 49 -81z" />
    <glyph glyph-name="K" unicode="K" horiz-adv-x="575" 
d="M501 85q0 -25 -23 -54q-25 -33 -54 -33h-144v248h-50v-250h-147q-37 0 -61 40q-22 37 -18 76v480q14 46 54 64q29 13 83 12q116 0 89 -1v-250h46v251l146 -1q33 -1 57 -23q20 -19 19 -35v-204q0 -18 -25.5 -42.5t-44.5 -26.5q30 -6 52.5 -35.5t19.5 -58.5z" />
    <glyph glyph-name="L" unicode="L" horiz-adv-x="489" 
d="M413 90q1 -27 -19 -57q-24 -35 -55 -35h-263q-29 0 -52 33q-20 29 -20 53v493q0 45 16 65q20 26 70 25l137 2v-500h186v-79z" />
    <glyph glyph-name="M" unicode="M" horiz-adv-x="746" 
d="M667 73q0 -28 -27.5 -51.5t-55.5 -23.5h-134v266l-62 -265h-98l-72 255v-255l-91 -1q-58 0 -85 14q-40 22 -40 81l3 465q-1 9 -1 18q0 38 17 63q21 29 62 29h184l71 -267q16 51 71 268h180q20 3 48 -27q33 -33 30 -75v-494z" />
    <glyph glyph-name="N" unicode="N" horiz-adv-x="690" 
d="M610 573l-2 -497q1 -16 -18 -42q-23 -33 -53 -33h-233l-84 328v-329l-133 1q-44 3 -67 35q-17 25 -17 54l3 496q8 85 94 83h203l84 -317q1 153 2 316h148q37 0 58 -38q15 -29 15 -57z" />
    <glyph glyph-name="O" unicode="O" horiz-adv-x="572" 
d="M490 111q0 -50 -13 -72q-23 -38 -94 -41h-277q-65 0 -89 33q-14 20 -19 70q-1 227 0 467q5 50 19 69q24 33 89 33h277q71 -3 94 -41q13 -22 13 -71v-447zM276 157v334q-25 -3 -55 0v-334h55z" />
    <glyph glyph-name="P" unicode="P" horiz-adv-x="571" 
d="M495 283q-16 -86 -108 -85h-160v-197h-157q-27 1 -47.5 25t-16.5 48v526q5 28 31 48q23 20 45 20h337q24 0 48.5 -21t27.5 -47v-317zM276 358v149h-49v-149h49z" />
    <glyph glyph-name="Q" unicode="Q" horiz-adv-x="591" 
d="M514 77q0 -26 -18 -49q-21 -27 -52 -27l-97 -2v-36h-173v36q4 0 -78 0q-27 0 -58 27.5t-31 55.5v507q0 79 81 79l350 2q28 0 52 -30t24 -58v-505zM291 167v331h-59v-331h59z" />
    <glyph glyph-name="R" unicode="R" horiz-adv-x="571" 
d="M495 564q0 -2 1 -37t1 -62q0 -39 -2 -68q-13 -71 -65 -68q46 -18 58 -55q3 -20 7 -40q3 -7 2 -62q-2 -93 -2 -95q-15 -78 -69 -78h-148v253h-51v-250h-148q-21 0 -46 25.5t-25 49.5v513q3 36 27.5 58.5t58.5 22.5h310q61 -7 80 -44q11 -20 11 -63zM273 366v138h-49v-138
h49z" />
    <glyph glyph-name="S" unicode="S" horiz-adv-x="576" 
d="M504 465h-224q-5 24 0 47q9 -1 -56 -1q-3 0 2 -1t0 -2v-90h200q23 0 48.5 -25t25.5 -48v-254q0 -90 -97 -90q-63 -1 -161 -1q-134 1 -160.5 1t-52.5 23.5t-26 45.5v133h217q3 -6 1 -18q-3 -16 -3 -18q0 -8 4 -13l61 -1v96h-196q-24 0 -52.5 23.5t-28.5 46.5v239
q0 59 34 88q31 27 84 23q52 -4 143 -2q122 1 144 1q94 -1 94 -114q0 -93 -1 -89z" />
    <glyph glyph-name="T" unicode="T" horiz-adv-x="606" 
d="M530 495q-1 42 -3 85.5t-21 64.5q-25 26 -80 26h-329q-35 0 -61 -17q-31 -19 -31 -52q0 -19 1 -51q1 -38 1 -51q119 -7 149 0v-404q0 -57 25 -79t84 -22q108 0 108 100v400h157z" />
    <glyph glyph-name="U" unicode="U" horiz-adv-x="583" 
d="M503 563v-462q-3 -67 -41 -90q-24 -14 -79 -14l-297 3q-24 0 -50 23.5t-29 51.5l-2 492q-3 45 18.5 74.5t63.5 29.5h139v-500q2 -5 7 -5h23h30q5 294 4 503h143q70 5 70 -106z" />
    <glyph glyph-name="V" unicode="V" horiz-adv-x="579" 
d="M507 585q-19 -166 -65 -506q-6 -40 -40 -63q-28 -19 -62 -19l-164 2q-99 7 -110 80q-17 118 -41 320q-20 177 -20 188q0 35 18.5 59t53.5 24h139l42 -318l41 317l141 1q29 -3 49 -24.5t20 -47.5q0 -7 -2 -13z" />
    <glyph glyph-name="W" unicode="W" horiz-adv-x="861" 
d="M799 585q0 -13 -63 -524q-3 -21 -20 -40q-20 -23 -48 -23h-221l-44 280l-37 -281h-204q-77 -1 -89 64q-20 109 -46 327q-23 188 -23 202q0 30 19 54q22 28 56 28h126l44 -291l36 290h227l39 -289l36 288q-11 1 124 1q36 0 62 -25t26 -61z" />
    <glyph glyph-name="X" unicode="X" horiz-adv-x="572" 
d="M496 585q3 5 3 -119q-2 -65 -4 -72q-11 -44 -62 -61q66 -21 66 -99v-119q0 -114 -95 -114q-127 0 -119 0v248q-13 0 -53 1l-2 -249h-120q-64 0 -86 40q-13 25 -13 86l-1 139q2 22 25 43q20 18 45 26q-25 8 -47 30t-22 46v181q0 22 24.5 47t48.5 25h148v-246q18 2 54 0
v246q16 -3 55 -1q52 3 69 3q33 5 60 -17q31 -24 26 -64z" />
    <glyph glyph-name="Y" unicode="Y" horiz-adv-x="572" 
d="M486 94q0 -25 -16 -55q-20 -38 -49 -38h-318q-33 0 -63 19q-36 23 -36 59v87h266v58h-191q-16 0 -44 19q-31 22 -31 46v278q0 56 23.5 80t82.5 19l113 -2v-290q11 4 50 0v290h135q22 0 47 -25q32 -31 32 -77z" />
    <glyph glyph-name="Z" unicode="Z" horiz-adv-x="484" 
d="M407 566q0 -71 -1 -61l-158 -338h160v-71q1 -95 -118 -95h-185q-47 0 -79 33q-26 28 -26 54v65l159 344h-150v78q0 27 13 51q23 43 77 43h199q109 0 109 -103z" />
    <glyph glyph-name="bracketleft" unicode="[" horiz-adv-x="267" 
d="M193 -139q0 -26 -32 -26h-58q-42 1 -58 1t-28.5 13t-12.5 31v825q0 18 12.5 30t29.5 12h115q32 0 32 -26q0 -25 -32 -25h-56v-809h56q32 0 32 -26z" />
    <glyph glyph-name="backslash" unicode="\" horiz-adv-x="299" 
d="M3 642q0 -8 3 -17l220 -585q9 -25 15 -31q12 -15 34 -11q18 3 18 23q0 9 -3 19l-220 585q-18 46 -38 46q-29 0 -29 -29z" />
    <glyph glyph-name="bracketright" unicode="]" horiz-adv-x="267" 
d="M4 -139q0 -26 32 -26h59q41 1 57.5 1t28.5 13t12 31v825q0 18 -12.5 30t-29.5 12h-115q-32 0 -32 -26q0 -25 32 -25h56v-809h-56q-32 0 -32 -26z" />
    <glyph glyph-name="asciicircum" unicode="^" horiz-adv-x="468" 
d="M327 712l-95 52l-98 -55q-17 -10 -31.5 4.5t-2.5 24.5l79 66q33 28 58 28q24 0 52 -27l70 -62q13 -11 -1.5 -25.5t-30.5 -5.5z" />
    <glyph glyph-name="underscore" unicode="_" horiz-adv-x="475" 
d="M-1 -87l479 -3v-57l-479 2v58z" />
    <glyph glyph-name="grave" unicode="`" horiz-adv-x="354" 
d="M77 743q47 -9 154 -39q12 -4 15 -1q6 6 12 12.5t6 14.5q0 11 -9 16l-135 70q-35 19 -45 19q-14 0 -32 -34q-9 -18 -9 -30q0 -15 16 -21q13 -4 27 -7z" />
    <glyph glyph-name="a" unicode="a" horiz-adv-x="462" 
d="M387 67q0 -29 -23 -49q-19 -16 -35 -16h-240q-84 -2 -84 52v195q0 19 19.5 41t40.5 22h147q4 4 4 23q1 19 -6 19h-204v35q1 23 1 27q-6 83 85 83l222 2q29 -4 51 -25t21 -53zM214 143v102l-40 1l-1 -103h41z" />
    <glyph glyph-name="b" unicode="b" horiz-adv-x="462" 
d="M390 113q1 -40 -18 -73q-22 -38 -57 -38h-208q-103 0 -103 101v469q0 55 18.5 76.5t76.5 19.5h75v-171h98q52 0 77 -14q39 -22 41 -84v-286zM215 158v196h-41v-196q21 -4 41 0z" />
    <glyph glyph-name="c" unicode="c" horiz-adv-x="457" 
d="M385 53q0 -13 -21.5 -32t-35.5 -19h-261q-24 0 -43 14q-25 18 -23 51v355q0 74 75 77h228q47 0 65 -28q15 -24 13 -78v-97h-167v63q-21 -1 -45 0v-209l47 1v77l168 1v-176z" />
    <glyph glyph-name="d" unicode="d" horiz-adv-x="462" 
d="M389 75q0 -20 -19 -44q-21 -28 -49 -30h-242q-75 0 -75 98l-1 320q0 58 49 74q21 6 85 6h83l1 170h114q23 3 40 -20q14 -19 14 -36v-538zM220 150v209h-40v-208q39 0 40 -1z" />
    <glyph glyph-name="e" unicode="e" horiz-adv-x="457" 
d="M382 73q0 -31 -24 -51.5t-59 -20.5h-224q-29 0 -51 22t-19 47l-1 355q0 40 27 60q21 15 50 15l238 -1q24 0 44 -17q22 -20 22 -52v-148q0 -86 -61 -86h-149v-53h208q-1 -8 -1 -70zM216 279v96h-39q-3 -7 -2 -49q0 -39 2 -47h39z" />
    <glyph glyph-name="f" unicode="f" horiz-adv-x="299" 
d="M240 543q-22 -1 -62 1v-47h62v-132q-32 4 -64 0v-364h-124q-47 0 -47 46v546q-2 37 16.5 58t43.5 19h115q30 0 46.5 -20.5t13.5 -50.5v-56z" />
    <glyph glyph-name="g" unicode="g" horiz-adv-x="465" 
d="M391 -107q4 -94 -101 -94l-216 1q-33 -1 -53 27q-18 24 -18 58q0 54 0 52h225v66h-160q-22 0 -42 18.5t-20 40.5l1 356q0 84 84 84q-6 0 93 0h133q74 0 74 -84v-525zM227 161v188h-53v-188h53z" />
    <glyph glyph-name="h" unicode="h" horiz-adv-x="458" 
d="M386 88q0 -90 -65 -87h-101v356h-44v-356h-108q-66 0 -66 81l1 477q0 42 6 59q15 49 66 49h98l-2 -168l144 1q28 2 51 -24t21 -58z" />
    <glyph glyph-name="i" unicode="i" horiz-adv-x="245" 
d="M168 547l-169 -1q-5 33 13 65q22 39 68 39q88 0 88 -103zM173 64q0 -65 -86 -65q-84 0 -84 68v430h171z" />
    <glyph glyph-name="j" unicode="j" horiz-adv-x="246" 
d="M173 -42q0 -36 -30 -62q-25 -22 -46 -22q-98 0 -94 0v626h170v-542zM171 547l-169 -1q-5 33 13 65q22 39 68 39q88 0 88 -103z" />
    <glyph glyph-name="k" unicode="k" horiz-adv-x="466" 
d="M173 4q-12 -5 -82 -3q-59 1 -77 24q-13 18 -13 72v497q0 49 22 66q19 15 65 12q46 -4 51 -6q34 -13 34 -66l-1 -315l50 1v213q45 3 98 0q45 -2 59 -19q11 -14 11 -53v-106q-11 -48 -58 -64q30 -9 41.5 -21t15.5 -45v-110q0 -56 -28 -71q-17 -9 -73 -9q-2 0 -27 -1
q-28 0 -40 -1v206q-5 2 -47 2z" />
    <glyph glyph-name="l" unicode="l" horiz-adv-x="244" 
d="M173 89q0 -52 -14 -70q-17 -22 -70 -21q-59 1 -77 26q-13 18 -13 73v493q1 50 20 66.5t67 16.5q37 0 53 -8q34 -16 34 -69v-507z" />
    <glyph glyph-name="m" unicode="m" horiz-adv-x="659" 
d="M596 74q0 -72 -52 -72h-115v355l-53 -1v-354h-148v353h-55v-353h-111q-24 0 -43 22t-17 51v373q4 52 63 52h147q59 0 87 -46q15 29 33 38q14 8 48 8h144q69 0 72 -57v-369z" />
    <glyph glyph-name="n" unicode="n" horiz-adv-x="460" 
d="M386 64q0 -64 -64 -63l-99 1v353l-46 1v-354h-104q-26 0 -46 21.5t-20 54.5l-1 352q0 22 15 43q19 27 50 27l245 1q22 0 45.5 -23t23.5 -53z" />
    <glyph glyph-name="o" unicode="o" horiz-adv-x="448" 
d="M374 79q0 -24 -20 -49q-23 -30 -59 -30h-216q-79 0 -83 79l1 335q-2 30 16 57q22 30 59 30h217q84 0 84 -90zM206 136v224h-46v-224h46z" />
    <glyph glyph-name="p" unicode="p" horiz-adv-x="454" 
d="M379 70q0 -29 -20.5 -49.5t-53.5 -20.5h-137v-146h-96q-76 0 -76 75v489q0 36 22.5 59t58.5 23h223q77 0 77 -100zM209 144v210h-42v-210h42z" />
    <glyph glyph-name="q" unicode="q" horiz-adv-x="454" 
d="M-4 70q0 -29 20.5 -49.5t52.5 -20.5h137v-146h96q77 0 77 75v489q0 36 -22.5 59t-59.5 23h-223q-77 0 -77 -100zM166 144v210h41v-210h-41z" />
    <glyph glyph-name="r" unicode="r" horiz-adv-x="457" 
d="M381 285h-160v71h-50l-1 -355h-95q-31 -1 -54 22.5t-22 68.5l1 347q-5 16 19.5 40t45.5 23l247 -1q70 -13 69 -87v-129z" />
    <glyph glyph-name="s" unicode="s" horiz-adv-x="448" 
d="M366 362l-204 -1v-45h150q28 2 46 -19.5t18 -44.5v-170q0 -26 -13 -47q-19 -34 -62 -34h-219q-74 0 -79 105v43h202v53q-36 4 -113 1q-88 -2 -89 84v142q-2 29 22.5 50.5t55.5 21.5l215 1q29 0 49.5 -16t20.5 -49v-75z" />
    <glyph glyph-name="t" unicode="t" horiz-adv-x="306" 
d="M237 62q0 -23 -19.5 -42t-40.5 -19h-105q-73 0 -72 75v425q-3 69 69 69h51.5t46.5 0l1 -69h66l-1 -137l-63 1v-214h67v-89z" />
    <glyph glyph-name="u" unicode="u" horiz-adv-x="460" 
d="M6 438q0 65 64 64l99 -1v-335l45 1v334h105q26 0 46 -21.5t20 -54.5l1 -353q0 -21 -17 -43q-20 -28 -51 -28l-242 1q-22 0 -45.5 23t-23.5 53z" />
    <glyph glyph-name="v" unicode="v" horiz-adv-x="462" 
d="M390 436q0 -28 -65 -363q-14 -72 -63 -72h-142q-56 0 -66 75q-10 66 -34 222q-21 134 -21 136q0 28 14 47.5t41 19.5h95l40 -237l43 237h98q24 0 42 -21t18 -44z" />
    <glyph glyph-name="w" unicode="w" horiz-adv-x="708" 
d="M639 429q-25 -128 -73 -364q-5 -27 -30 -48q-20 -16 -33 -16l-138 -1q-18 86 -52 263l-53 -262h-139q-29 0 -48 20.5t-18 45.5l-59 372q-3 23 15 42.5t38 19.5h98l44 -207l43 207h168l36 -204l41 204h96q67 4 67 -47q0 -11 -3 -25z" />
    <glyph glyph-name="x" unicode="x" horiz-adv-x="454" 
d="M381 358q0 -36 -5 -52q-11 -28 -46 -43q34 -15 45 -37q5 -13 6 -46v-98q0 -81 -60 -81h-110v232h-40q-4 -75 -1 -231l-97 -1q-74 0 -74 74q0 9 1 16q0 95 0 92q4 44 5 48q9 23 47 32q-53 18 -53 85q0 31 1 92q4 65 90 61q55 -3 79 -1v-183q43 0 42 0v183q19 -2 78 1
q84 4 92 -67v-76z" />
    <glyph glyph-name="y" unicode="y" horiz-adv-x="462" 
d="M317 502q73 0 73 -94l1 -515q4 -94 -101 -94h-216q-33 -1 -53 27q-18 25 -18 59q0 54 0 52h225v64h-160q-23 0 -42.5 19.5t-19.5 46.5v344q0 90 81 90h86l1 -340l51 -1l1 340q25 0 52 1q32 1 39 1z" />
    <glyph glyph-name="z" unicode="z" horiz-adv-x="379" 
d="M306 362q-5 -13 -128 -217h125l-1 -88q0 -57 -65 -57h-16q-10 1 -12 1h-127q-44 -2 -61 16q-8 9 -15 36v90q-1 20 125 219l-127 -1v64q0 43 17 59.5t57 16.5h157q67 2 73 -61q1 -33 -2 -78z" />
    <glyph glyph-name="braceleft" unicode="{" horiz-adv-x="430" 
d="M314 801q21 0 38 -13t17 -31q0 -17 -15 -29t-35 -12h-59v-320q-31 -75 -88 -97q39 -19 57 -38.5t31 -58.5v-319h59q20 0 35 -12t15 -30q0 -17 -15 -29t-35 -12h-79q-52 1 -77 1q-21 0 -35.5 14.5t-15 34.5t-0.5 300q0 61 -41 105q-31 33 -70 44q39 17 70 47q41 41 41 87
l1 317q0 21 14.5 35.5t35.5 14.5h76q49 1 75 1z" />
    <glyph glyph-name="bar" unicode="|" horiz-adv-x="248" 
d="M174 -11q0 -58 -12 -80q-17 -32 -72 -33q-68 0 -84 36q-7 16 -7 85v673q1 49 23 70q19 17 61 17q39 0 52 -6q38 -16 38 -75z" />
    <glyph glyph-name="braceright" unicode="}" horiz-adv-x="430" 
d="M55 801q-21 0 -37.5 -13t-16.5 -31q0 -17 14.5 -29t35.5 -12h59v-320q30 -75 87 -97q-39 -19 -56.5 -38.5t-30.5 -58.5v-319h-59q-21 0 -35.5 -12t-14.5 -30q0 -17 14.5 -29t35.5 -12h78q53 1 78 1q21 0 35.5 14.5t14.5 35.5v299q0 61 41 105q31 33 71 44q-40 17 -71 47
q-41 41 -41 87v317q0 21 -14.5 35.5t-35.5 14.5h-76q-50 1 -76 1z" />
    <glyph glyph-name="asciitilde" unicode="~" horiz-adv-x="478" 
d="M161 765q-18 -4 -45 -25q-32 -26 -38 -30q-11 -5 -18 -5q-9 0 -20 11q-19 19 -5 31l81 68q25 21 51 21q32 0 58 -28q39 -31 50 -31q2 0 5 1t5 1q4 0 12 -4l81 49q11 6 18 6q9 0 20 -11q18 -19 5 -31l-71 -69q-29 -28 -59 -28q-34 0 -64 33q-19 12 -66 41z" />
    <glyph glyph-name="Adieresis" unicode="&#xc4;" horiz-adv-x="567" 
d="M491 94q0 -31 -16 -58q-19 -35 -54 -35h-147v165h-61v-168h-140q-21 0 -47.5 24.5t-26.5 46.5v525q0 25 20 46.5t52 27.5l322 1q58 0 81 -35q17 -26 17 -79v-461zM273 312v188h-58v-188q40 2 58 0zM319 819h40q17 0 29.5 -12t12.5 -30v-25q0 -18 -12.5 -30t-29.5 -12h-40
q-18 0 -30 12t-12 30v25q0 18 12 30t30 12zM129 819h40q17 0 29.5 -12t12.5 -30v-25q0 -18 -12.5 -30t-29.5 -12h-40q-18 0 -30 12t-12 30v25q0 18 12 30t30 12z" />
    <glyph glyph-name="Aring" unicode="&#xc5;" horiz-adv-x="567" 
d="M491 94q0 -31 -16 -58q-19 -35 -54 -35h-147v165h-61v-168h-140q-21 0 -47.5 24.5t-26.5 46.5v525q0 25 20 46.5t51 27.5l323 1q58 0 81 -35q17 -26 17 -79v-461zM273 312v188h-58v-188q40 2 58 0zM251 837q28 0 47.5 -19.5t19.5 -47.5v-5q0 -28 -19.5 -47.5t-47.5 -19.5
h-37q-27 0 -47 19.5t-20 47.5v5q0 28 20 47.5t47 19.5h37zM251 787h-37q-17 0 -17 -17v-5q0 -17 17 -17h37q17 0 17 17v5q0 17 -17 17z" />
    <glyph glyph-name="Ccedilla" unicode="&#xc7;" horiz-adv-x="561" 
d="M242 -150q22 0 36 12t14 26q0 29 -56 29h-25v81h-130q-26 0 -53 26q-30 27 -30 60l1 505q0 82 104 81l305 -3q20 2 49 -24t29 -56v-225h-216v135h-57v-332q5 3 56 0v144h219v-228q0 -32 -26 -57.5t-56 -25.5h-145v-34q81 -18 81 -76q0 -38 -30.5 -63t-69.5 -25t-68 23
q-10 8 -10 19q0 26 26 26q6 0 20.5 -9t31.5 -9z" />
    <glyph glyph-name="Eacute" unicode="&#xc9;" horiz-adv-x="512" 
d="M436 84q0 -86 -91 -86q-9 0 -18 1h-253q-43 11 -58 52q-9 25 -9 83v457q0 79 126 79l212 -1q31 2 62 -28t29 -63l1 -75h-212q-1 1 -1 -81h213v-162h-209v-92h209zM291 743q-52 -9 -164 -39q-10 -3 -11 -1q-1 7 -6.5 13t-5.5 14q0 11 9 16l135 70q35 19 45 19q14 0 32 -34
q9 -18 9 -30q0 -15 -14.5 -20t-28.5 -8z" />
    <glyph glyph-name="Ntilde" unicode="&#xd1;" horiz-adv-x="690" 
d="M610 573l-2 -497q1 -16 -18 -42q-23 -33 -53 -33h-233l-84 328v-329l-133 1q-44 3 -67 35q-17 25 -17 54l3 496q8 85 94 83h203l84 -317q1 153 2 316h148q37 0 58 -38q15 -29 15 -57zM241 765q-15 -3 -38 -21q-27 -22 -32 -25q-19 -9 -33 4q-16 17 -4 27l69 58
q21 17 43 17q27 0 50 -23q32 -26 42 -26q2 0 4 1h4q4 0 10 -3l70 41q19 12 33 -4t3 -27l-60 -58q-25 -24 -51 -24q-29 0 -53 29q-17 10 -57 34z" />
    <glyph glyph-name="Odieresis" unicode="&#xd6;" horiz-adv-x="572" 
d="M490 111q0 -50 -13 -72q-23 -38 -94 -41h-277q-65 0 -89 33q-14 20 -19 70q-1 227 0 467q5 50 19 69q24 33 89 33h277q71 -3 94 -41q13 -22 13 -71v-447zM276 157v334q-25 -3 -55 0v-334h55zM320 819h40q17 0 29.5 -12t12.5 -30v-25q0 -18 -12.5 -30t-29.5 -12h-40
q-18 0 -30 12t-12 30v25q0 18 12 30t30 12zM130 819h40q17 0 29.5 -12t12.5 -30v-25q0 -18 -12.5 -30t-29.5 -12h-40q-18 0 -30 12t-12 30v25q0 18 12 30t30 12z" />
    <glyph glyph-name="Udieresis" unicode="&#xdc;" horiz-adv-x="583" 
d="M503 563v-462q-3 -67 -41 -90q-24 -14 -79 -14l-297 3q-24 0 -50 23.5t-29 51.5l-2 492q-3 45 18.5 74.5t63.5 29.5h139v-500q2 -5 7 -5h23h30q5 294 4 503h143q70 5 70 -106zM330 819h40q17 0 29.5 -12t12.5 -30v-25q0 -18 -12.5 -30t-29.5 -12h-40q-18 0 -30 12t-12 30
v25q0 18 12 30t30 12zM140 819h40q17 0 29.5 -12t12.5 -30v-25q0 -18 -12.5 -30t-29.5 -12h-40q-18 0 -30 12t-12 30v25q0 18 12 30t30 12z" />
    <glyph glyph-name="aacute" unicode="&#xe1;" horiz-adv-x="462" 
d="M387 67q0 -29 -23 -49q-19 -16 -35 -16h-240q-84 -2 -84 52v195q0 19 19.5 41t40.5 22h147q4 4 4 23q1 19 -6 19h-204v35q1 23 1 27q-6 83 85 83l222 2q29 -4 51 -25t21 -53zM214 143v102l-40 1l-1 -103h41zM271 583q-52 -9 -164 -39q-10 -3 -11 -1q-1 7 -6.5 13t-5.5 14
q0 11 9 16l135 70q35 19 45 19q14 0 32 -34q9 -18 9 -30q0 -15 -14.5 -20t-28.5 -8z" />
    <glyph glyph-name="agrave" unicode="&#xe0;" horiz-adv-x="462" 
d="M387 67q0 -29 -23 -49q-19 -16 -35 -16h-240q-84 -2 -84 52v195q0 19 19.5 41t40.5 22h147q4 4 4 23q1 19 -6 19h-204v35q1 23 1 27q-6 83 85 83l222 2q29 -4 51 -25t21 -53zM214 143v102l-40 1l-1 -103h41zM118 578q47 -9 154 -38q12 -4 16 -2q5 7 11.5 13.5t6.5 13.5
q0 11 -10 16l-135 71q-35 18 -45 18q-14 0 -32 -33q-9 -18 -9 -30q0 -15 16 -22q14 -3 27 -7z" />
    <glyph glyph-name="acircumflex" unicode="&#xe2;" horiz-adv-x="462" 
d="M387 67q0 -29 -23 -49q-19 -16 -35 -16h-240q-84 -2 -84 52v195q0 19 19.5 41t40.5 22h147q4 4 4 23q1 19 -6 19h-204v35q1 23 1 27q-6 83 85 83l222 2q29 -4 51 -25t21 -53zM214 143v102l-40 1l-1 -103h41zM287 542l-95 52l-98 -55q-17 -10 -31.5 4.5t-2.5 24.5l79 66
q33 28 58 28q24 0 52 -27l70 -62q13 -11 -1.5 -25.5t-30.5 -5.5z" />
    <glyph glyph-name="adieresis" unicode="&#xe4;" horiz-adv-x="462" 
d="M387 67q0 -29 -23 -49q-19 -16 -35 -16h-240q-84 -2 -84 52v195q0 19 19.5 41t40.5 22h147l-2 42h-204v35q1 23 1 27q-6 83 85 83l222 2q29 -4 51 -25t21 -53zM214 143v102l-40 1l-1 -103h41zM255 644h34q15 0 25.5 -10t10.5 -25v-22q0 -15 -10.5 -25.5t-25.5 -10.5h-34
q-14 0 -24.5 10.5t-10.5 25.5v22q0 15 10.5 25t24.5 10zM94 644h34q15 0 25.5 -10t10.5 -25v-22q0 -15 -10.5 -25.5t-25.5 -10.5h-34q-15 0 -25.5 10.5t-10.5 25.5v22q0 15 10.5 25t25.5 10z" />
    <glyph glyph-name="atilde" unicode="&#xe3;" horiz-adv-x="462" 
d="M387 67q0 -29 -23 -49q-19 -16 -35 -16h-240q-84 -2 -84 52v195q0 19 19.5 41t40.5 22h147q4 4 4 23q1 19 -6 19h-204v35q1 23 1 27q-6 83 85 83l222 2q29 -4 51 -25t21 -53zM214 143v102l-40 1l-1 -103h41zM140 595q-14 -2 -33 -18q-23 -19 -27 -21q-16 -8 -29 5t-2 21
l58 50q18 15 37 15q23 0 42 -21q28 -22 36 -22q2 0 4 1t3 1q3 0 9 -3l59 35q16 10 27.5 -3.5t2.5 -22.5l-51 -50q-21 -20 -43 -20q-24 0 -45 24q-14 9 -48 29z" />
    <glyph glyph-name="aring" unicode="&#xe5;" horiz-adv-x="462" 
d="M387 67q0 -29 -23 -49q-19 -16 -35 -16h-240q-84 -2 -84 52v195q0 19 19.5 41t40.5 22h147q4 4 4 23q1 19 -6 19h-204v35q1 23 1 27q-6 83 85 83l222 2q29 -4 51 -25t21 -53zM214 143v102l-40 1l-1 -103h41zM212 676q27 0 47 -19.5t20 -47.5v-5q0 -28 -20 -47.5
t-47 -19.5h-38q-27 0 -47 19.5t-20 47.5v5q0 28 20 47.5t47 19.5h38zM212 626h-38q-17 0 -17 -17v-5q0 -17 17 -17h38q17 0 17 17v5q0 17 -17 17z" />
    <glyph glyph-name="ccedilla" unicode="&#xe7;" horiz-adv-x="457" 
d="M292 -92q0 -38 -30.5 -63t-69.5 -25t-68 23q-10 8 -10 19q0 26 26 26q6 0 20.5 -9t31.5 -9q22 0 36 12t14 26q0 25 -38 25q-8 0 -16 -1l-27 -5v75h-94q-24 0 -42 14q-24 18 -24 51v355q0 32 18.5 54.5t56.5 22.5h228q46 0 64 -28q14 -23 14 -78v-97h-167v63q-21 -1 -45 0
v-209l47 1v77l168 1v-176q0 -13 -21.5 -32t-35.5 -19h-117v-28q81 6 81 -66z" />
    <glyph glyph-name="eacute" unicode="&#xe9;" horiz-adv-x="457" 
d="M382 73q0 -31 -24 -51.5t-59 -20.5h-224q-29 0 -51 22t-19 47l-1 355q0 40 27 60q21 15 50 15l238 -1q24 0 44 -17q22 -20 22 -52v-148q0 -86 -61 -86h-149v-53h208q-1 -8 -1 -70zM216 279v96h-39q-3 -7 -2 -49q0 -39 2 -47h39zM271 583q-52 -9 -164 -39q-10 -3 -11 -1
q-1 7 -6.5 13t-5.5 14q0 11 9 16l135 70q35 19 45 19q14 0 32 -34q9 -18 9 -30q0 -15 -14.5 -20t-28.5 -8z" />
    <glyph glyph-name="egrave" unicode="&#xe8;" horiz-adv-x="457" 
d="M382 73q0 -31 -24 -51.5t-59 -20.5h-224q-29 0 -51 22t-19 47l-1 355q0 40 27 60q21 15 50 15l238 -1q24 0 44 -17q22 -20 22 -52v-148q0 -86 -61 -86h-149v-53h208q-1 -8 -1 -70zM216 279v96h-39q-3 -7 -2 -49q0 -39 2 -47h39zM118 578q47 -9 154 -38q12 -4 16 -2
q5 7 11.5 13.5t6.5 13.5q0 11 -10 16l-135 71q-35 18 -45 18q-14 0 -32 -33q-9 -18 -9 -30q0 -15 16 -22q14 -3 27 -7z" />
    <glyph glyph-name="ecircumflex" unicode="&#xea;" horiz-adv-x="457" 
d="M382 73q0 -31 -24 -51.5t-59 -20.5h-224q-29 0 -51 22t-19 47l-1 355q0 40 27 60q21 15 50 15l238 -1q24 0 44 -17q22 -20 22 -52v-148q0 -86 -61 -86h-149v-53h208q-1 -8 -1 -70zM216 279v96h-39q-3 -7 -2 -49q0 -39 2 -47h39zM287 542l-95 52l-98 -55
q-17 -10 -31.5 4.5t-2.5 24.5l79 66q33 28 58 28q24 0 52 -27l70 -62q13 -11 -1.5 -25.5t-30.5 -5.5z" />
    <glyph glyph-name="edieresis" unicode="&#xeb;" horiz-adv-x="457" 
d="M382 73q0 -31 -24 -51.5t-59 -20.5h-224q-29 0 -51 22t-19 47l-1 355q0 40 27 60q21 15 50 15l238 -1q24 0 44 -17q22 -20 22 -52v-148q0 -86 -61 -86h-149v-53h208q-1 -8 -1 -70zM216 279v96h-39q-3 -7 -2 -49q0 -39 2 -47h39zM255 644h34q15 0 25.5 -10t10.5 -25v-22
q0 -15 -10.5 -25.5t-25.5 -10.5h-34q-14 0 -24.5 10.5t-10.5 25.5v22q0 15 10.5 25t24.5 10zM94 644h34q15 0 25.5 -10t10.5 -25v-22q0 -15 -10.5 -25.5t-25.5 -10.5h-34q-15 0 -25.5 10.5t-10.5 25.5v22q0 15 10.5 25t25.5 10z" />
    <glyph glyph-name="iacute" unicode="&#xed;" horiz-adv-x="245" 
d="M173 64q0 -65 -86 -65q-84 0 -84 68v430h171zM161 583q-52 -9 -164 -39q-10 -3 -11 -1q-1 7 -6.5 13t-5.5 14q0 11 9 16l135 70q35 19 45 19q14 0 32 -34q9 -18 9 -30q0 -15 -14.5 -20t-28.5 -8z" />
    <glyph glyph-name="igrave" unicode="&#xec;" horiz-adv-x="245" 
d="M173 64q0 -65 -86 -65q-84 0 -84 68v430h171zM18 578q47 -9 154 -38q12 -4 16 -2q5 7 11.5 13.5t6.5 13.5q0 11 -10 16l-135 71q-35 18 -45 18q-14 0 -32 -33q-9 -18 -9 -30q0 -15 16 -22q14 -3 27 -7z" />
    <glyph glyph-name="icircumflex" unicode="&#xee;" horiz-adv-x="245" 
d="M173 64q0 -65 -86 -65q-84 0 -84 68v430h171zM177 542l-95 52l-98 -55q-17 -10 -31.5 4.5t-2.5 24.5l79 66q33 28 58 28q24 0 52 -27l70 -62q13 -11 -1.5 -25.5t-30.5 -5.5z" />
    <glyph glyph-name="idieresis" unicode="&#xef;" horiz-adv-x="245" 
d="M173 64q0 -65 -86 -65q-84 0 -84 68v430h171zM145 644h34q15 0 25.5 -10t10.5 -25v-22q0 -15 -10.5 -25.5t-25.5 -10.5h-34q-14 0 -24.5 10.5t-10.5 25.5v22q0 15 10.5 25t24.5 10zM-16 644h34q15 0 25.5 -10t10.5 -25v-22q0 -15 -10.5 -25.5t-25.5 -10.5h-34
q-15 0 -25.5 10.5t-10.5 25.5v22q0 15 10.5 25t25.5 10z" />
    <glyph glyph-name="ntilde" unicode="&#xf1;" horiz-adv-x="460" 
d="M386 64q0 -64 -64 -63l-99 1v353l-46 1v-354h-104q-26 0 -46 21.5t-20 54.5l-1 352q0 22 15 43q19 27 50 27l245 1q22 0 45.5 -23t23.5 -53zM142 596q-14 -3 -33 -18q-23 -19 -28 -21q-15 -8 -28 4.5t-2 21.5l58 49q18 15 36 15q24 0 43 -20q28 -22 36 -22q1 0 3 1h4
q3 0 8 -3l59 36q17 10 28.5 -4t2.5 -23l-51 -49q-21 -20 -43 -20q-24 0 -46 24q-14 8 -47 29z" />
    <glyph glyph-name="oacute" unicode="&#xf3;" horiz-adv-x="448" 
d="M374 79q0 -24 -20 -49q-23 -30 -59 -30h-216q-79 0 -83 79l1 335q-2 30 16 57q22 30 59 30h217q84 0 84 -90zM206 136v224h-46v-224h46zM261 583q-52 -9 -164 -39q-10 -3 -11 -1q-1 7 -6.5 13t-5.5 14q0 11 9 16l135 70q35 19 45 19q14 0 32 -34q9 -18 9 -30
q0 -15 -14.5 -20t-28.5 -8z" />
    <glyph glyph-name="ograve" unicode="&#xf2;" horiz-adv-x="448" 
d="M374 79q0 -24 -20 -49q-23 -30 -59 -30h-216q-79 0 -83 79l1 335q-2 30 16 57q22 30 59 30h217q84 0 84 -90zM206 136v224h-46v-224h46zM108 578q47 -9 154 -38q12 -4 16 -2q5 7 11.5 13.5t6.5 13.5q0 11 -10 16l-135 71q-35 18 -45 18q-14 0 -32 -33q-9 -18 -9 -30
q0 -15 16 -22q14 -3 27 -7z" />
    <glyph glyph-name="ocircumflex" unicode="&#xf4;" horiz-adv-x="448" 
d="M374 79q0 -24 -20 -49q-23 -30 -59 -30h-216q-79 0 -83 79l1 335q-2 30 16 57q22 30 59 30h217q84 0 84 -90zM206 136v224h-46v-224h46zM277 542l-95 52l-98 -55q-17 -10 -31.5 4.5t-2.5 24.5l79 66q33 28 58 28q24 0 52 -27l70 -62q13 -11 -1.5 -25.5t-30.5 -5.5z" />
    <glyph glyph-name="odieresis" unicode="&#xf6;" horiz-adv-x="448" 
d="M374 79q0 -24 -20 -49q-23 -30 -59 -30h-216q-79 0 -83 79l1 335q-2 30 16 57q22 30 59 30h217q84 0 84 -90zM206 136v224h-46v-224h46zM245 644h34q15 0 25.5 -10t10.5 -25v-22q0 -15 -10.5 -25.5t-25.5 -10.5h-34q-14 0 -24.5 10.5t-10.5 25.5v22q0 15 10.5 25t24.5 10
zM84 644h34q15 0 25.5 -10t10.5 -25v-22q0 -15 -10.5 -25.5t-25.5 -10.5h-34q-15 0 -25.5 10.5t-10.5 25.5v22q0 15 10.5 25t25.5 10z" />
    <glyph glyph-name="otilde" unicode="&#xf5;" horiz-adv-x="448" 
d="M374 79q0 -24 -20 -49q-23 -30 -59 -30h-216q-79 0 -83 79l1 335q-2 30 16 57q22 30 59 30h217q84 0 84 -90zM206 136v224h-46v-224h46zM132 596q-14 -3 -33 -18q-23 -19 -28 -21q-15 -8 -28 4.5t-2 21.5l58 49q18 15 36 15q24 0 43 -20q28 -22 36 -22q1 0 3 1h4
q3 0 8 -3l59 36q17 10 28.5 -4t2.5 -23l-51 -49q-21 -20 -43 -20q-24 0 -46 24q-14 8 -47 29z" />
    <glyph glyph-name="uacute" unicode="&#xfa;" horiz-adv-x="460" 
d="M6 438q0 65 64 64l99 -1v-335l45 1v334h105q26 0 46 -21.5t20 -54.5l1 -353q0 -21 -17 -43q-20 -28 -51 -28l-242 1q-22 0 -45.5 23t-23.5 53zM271 583q-52 -9 -164 -39q-10 -3 -11 -1q-1 7 -6.5 13t-5.5 14q0 11 9 16l135 70q35 19 45 19q14 0 32 -34q9 -18 9 -30
q0 -15 -14.5 -20t-28.5 -8z" />
    <glyph glyph-name="ugrave" unicode="&#xf9;" horiz-adv-x="460" 
d="M6 438q0 65 64 64l99 -1v-335l45 1v334h105q26 0 46 -21.5t20 -54.5l1 -353q0 -21 -17 -43q-20 -28 -51 -28l-242 1q-22 0 -45.5 23t-23.5 53zM118 578q47 -9 154 -38q12 -4 16 -2q5 7 11.5 13.5t6.5 13.5q0 11 -10 16l-135 71q-35 18 -45 18q-14 0 -32 -33
q-9 -18 -9 -30q0 -15 16 -22q14 -3 27 -7z" />
    <glyph glyph-name="ucircumflex" unicode="&#xfb;" horiz-adv-x="460" 
d="M6 438q0 65 64 64l99 -1v-335l45 1v334h105q26 0 46 -21.5t20 -54.5l1 -353q0 -21 -17 -43q-20 -28 -51 -28l-242 1q-22 0 -45.5 23t-23.5 53zM287 542l-95 52l-98 -55q-17 -10 -31.5 4.5t-2.5 24.5l79 66q33 28 58 28q24 0 52 -27l70 -62q13 -11 -1.5 -25.5t-30.5 -5.5z
" />
    <glyph glyph-name="udieresis" unicode="&#xfc;" horiz-adv-x="460" 
d="M6 438q0 65 64 64l99 -1v-335l45 1v334h105q26 0 46 -21.5t20 -54.5l1 -353q0 -21 -17 -43q-20 -28 -51 -28l-242 1q-22 0 -45.5 23t-23.5 53zM245 644h34q15 0 25.5 -10t10.5 -25v-22q0 -15 -10.5 -25.5t-25.5 -10.5h-34q-14 0 -24.5 10.5t-10.5 25.5v22q0 15 10.5 25
t24.5 10zM84 644h34q15 0 25.5 -10t10.5 -25v-22q0 -15 -10.5 -25.5t-25.5 -10.5h-34q-15 0 -25.5 10.5t-10.5 25.5v22q0 15 10.5 25t25.5 10z" />
    <glyph glyph-name="dagger" unicode="&#x2020;" horiz-adv-x="479" 
d="M244 89q-1 -17 2 -39q3 -25 3 -28q0 -25 -48 -24q-55 1 -55 30q0 4 3 28t2 41l-26 319h-61q-29 0 -45.5 20.5t-16.5 51.5v3q0 31 16.5 51.5t45.5 20.5h49l-2 27q1 50 20 66.5t67 16.5q38 0 55 -8q36 -16 31 -69l-2 -33h61q28 0 45 -20.5t17 -51.5v-3q0 -31 -17 -51.5
t-45 -20.5h-73z" />
    <glyph glyph-name="degree" unicode="&#xb0;" horiz-adv-x="345" 
d="M136 682q57 0 97 -40.5t40 -97.5t-40 -97t-97 -40t-97.5 40t-40.5 97t40.5 97.5t97.5 40.5zM136 597q-22 0 -37.5 -15.5t-15.5 -37.5q0 -21 15.5 -36.5t37.5 -15.5t37 15.5t15 36.5q0 22 -15 37.5t-37 15.5z" />
    <glyph glyph-name="cent" unicode="&#xa2;" horiz-adv-x="449" 
d="M170 669h17q23 0 39 -16.5t16 -38.5v-25h73q16 2 36.5 -16.5t20.5 -45.5v-131h-164v78h-44v-270q3 2 43 1v78h167v-143q0 -25 -20 -44t-43 -19h-69v-26q0 -23 -16 -39.5t-39 -16.5h-17q-23 0 -39 16.5t-16 39.5v26h-52q-20 0 -41.5 20t-21.5 46l-1 378q0 35 26 53
q20 14 48 14l42 1v25q0 22 16 38.5t39 16.5z" />
    <glyph glyph-name="sterling" unicode="&#xa3;" horiz-adv-x="599" 
d="M253 396h72q52 0 52 -62t-52 -62h-72v-100h275v-91q0 -32 -26 -57.5t-56 -25.5h-325q-26 0 -53 26q-30 27 -30 60l1 189q-40 5 -40 61q0 55 40 61v194q0 81 104 81h303q20 2 50 -25.5t30 -57.5v-125h-216v35h-57v-101z" />
    <glyph glyph-name="section" unicode="&#xa7;" 
 />
    <glyph glyph-name="bullet" unicode="&#x2022;" horiz-adv-x="339" 
d="M4 325q0 58 41 99t98 41q58 0 99 -41t41 -99t-41 -99t-99 -41q-57 0 -98 41t-41 99z" />
    <glyph glyph-name="paragraph" unicode="&#xb6;" 
 />
    <glyph glyph-name="germandbls" unicode="&#xdf;" horiz-adv-x="569" 
d="M496 89q-1 -35 -24 -60q-27 -29 -76 -29h-80q-85 -3 -85 89q0 6 1 67h76q-2 37 0 99h-49v151h46v133q-22 -1 -119 1v-539h-104q-27 0 -52.5 27t-25.5 66l1 499q0 36 23 58q20 19 47 19q42 0 193 -1q123 -1 143 -1q41 1 67 -33q21 -29 16 -45l1 -160q0 -36 -6 -50
q-13 -27 -56 -44q62 -9 63 -75q1 -157 0 -172z" />
    <glyph glyph-name="registered" unicode="&#xae;" horiz-adv-x="425" 
d="M182 322q-75 0 -128 54t-53 130q0 75 53 128t128 53t127.5 -53.5t52.5 -129.5q0 -75 -52.5 -128.5t-127.5 -53.5zM182 643q-58 1 -97 -39.5t-39 -99.5q0 -57 40.5 -98t95.5 -41t95 41t40 98t-40 97t-95 42zM187 600q11 4 32 -2q36 -11 36 -46q0 -45 -44 -54l49 -76h-45
l-49 75h-15v-75h-38v178h74zM188 568h-39v-29h44q25 0 25 18q0 11 -30 11z" />
    <glyph glyph-name="copyright" unicode="&#xa9;" horiz-adv-x="814" 
d="M366 -21q-149 0 -253 104.5t-104 254.5t104 255t253 105t253.5 -105t104.5 -255t-104.5 -254.5t-253.5 -104.5zM366 625q-116 0 -200.5 -84t-84.5 -203t84.5 -202.5t200.5 -83.5t200.5 83.5t84.5 202.5t-84.5 203t-200.5 84zM477 397q-23 81 -101 81q-60 0 -95 -39
t-35 -100q0 -55 31 -94q35 -43 97 -43q83 0 103 79h74q-17 -75 -63.5 -113.5t-112.5 -38.5q-92 0 -147 60t-55 152q0 89 56 150t147 61q65 0 112 -39q50 -42 63 -116h-74z" />
    <glyph glyph-name="trademark" unicode="&#x2122;" horiz-adv-x="492" 
d="M377 607l-56 -140h-27l-52 134v-134h-43v211h58l51 -129l52 129h59v-211h-42v140zM103 634v-167h-43v167h-66v44h173v-44h-64z" />
    <glyph glyph-name="acute" unicode="&#xb4;" horiz-adv-x="354" 
d="M221 743q-47 -9 -154 -39q-12 -4 -16 -1q-5 6 -11 12.5t-6 14.5q0 11 9 16l135 70q35 19 45 19q14 0 32 -34q9 -18 9 -30q0 -15 -14.5 -20t-28.5 -8z" />
    <glyph glyph-name="dieresis" unicode="&#xa8;" horiz-adv-x="368" 
d="M240 819h40q17 0 29.5 -12t12.5 -30v-25q0 -18 -12.5 -30t-29.5 -12h-40q-18 0 -30 12t-12 30v25q0 18 12 30t30 12zM50 819h40q17 0 29.5 -12t12.5 -30v-25q0 -18 -12.5 -30t-29.5 -12h-40q-18 0 -30 12t-12 30v25q0 18 12 30t30 12z" />
    <glyph glyph-name="AE" unicode="&#xc6;" horiz-adv-x="784" 
d="M274 1v165h-61v-166h-140q-36 0 -56 23q-18 20 -18 46v525q0 25 20 46.5t52 27.5l544 1q31 0 61 -29t30 -62l1 -75h-212q-1 1 -1 -81l212 1l1 -163h-209v-92h209l-1 -84q-1 -84 -94 -84q-9 0 -19 1h-319zM273 312v188h-58v-188q40 2 58 0z" />
    <glyph glyph-name="Oslash" unicode="&#xd8;" horiz-adv-x="572" 
d="M211 307l84 193q-40 -3 -84 1v-194zM208 156q29 0 55 1q24 0 23 0v196zM401 751q11 0 20.5 -9.5t9.5 -22.5q0 -5 -2 -10l-13 -40q48 -5 65 -43q9 -22 9 -68v-447q0 -51 -13 -74q-24 -39 -94 -39h-244l-8 -28q-11 -39 -35 -39q-23 0 -23 27q0 5 2 12l10 32q-52 4 -71 34
q-11 18 -16 65q-1 227 0 467q5 49 19 69q24 32 89 31l254 -1l13 42q4 14 9.5 28t18.5 14z" />
    <glyph glyph-name="plusminus" unicode="&#xb1;" 
 />
    <glyph glyph-name="yen" unicode="&#xa5;" horiz-adv-x="576" 
d="M84 172h81l-1 40l-81 1q-32 0 -32 30q0 27 35 27h81l-14 24q-15 17 -59 18q-25 8 -55.5 40.5t-30.5 55.5v181q0 23 24.5 51t47.5 28h149v-253q24 3 51 0v253h148q24 0 48.5 -28t24.5 -51v-181q0 -23 -30.5 -55.5t-55.5 -40.5q-47 -3 -61 -19q-6 -12 -12 -23h80
q35 0 35 -27q0 -30 -32 -30l-81 -1v-40h90q22 0 22 -28q0 -27 -22 -27h-90v-50q0 -36 -33 -54q-26 -15 -60 -15q-32 0 -56 16q-30 20 -30 56v47h-81q-22 0 -22 27q0 28 22 28z" />
    <glyph glyph-name="mu" unicode="&#xb5;" horiz-adv-x="524" 
d="M39 258l26 20v299q0 45 16 65q20 25 70 25l137 2v-229l89 64q14 10 24 10q13 0 22 -16l12 -20q2 -3 2 -6q0 -12 -24 -30q-18 -12 -36 -25l-89 -64v-184h186v-79q0 -27 -19 -57q-24 -35 -55 -35h-263q-29 0 -52 33q-20 29 -20 53v109l-20 -15q-5 -4 -11 -4
q-13 0 -24.5 13.5t-11.5 28.5v2q0 15 13.5 23.5t27.5 16.5z" />
    <glyph glyph-name="mu" unicode="&#x3bc;" horiz-adv-x="524" 
d="M39 258l26 20v299q0 45 16 65q20 25 70 25l137 2v-229l89 64q14 10 24 10q13 0 22 -16l12 -20q2 -3 2 -6q0 -12 -24 -30q-18 -12 -36 -25l-89 -64v-184h186v-79q0 -27 -19 -57q-24 -35 -55 -35h-263q-29 0 -52 33q-20 29 -20 53v109l-20 -15q-5 -4 -11 -4
q-13 0 -24.5 13.5t-11.5 28.5v2q0 15 13.5 23.5t27.5 16.5z" />
    <glyph glyph-name="ordfeminine" unicode="&#xaa;" horiz-adv-x="484" 
d="M407 566q0 -71 -1 -61l-158 -338h160v-71q1 -95 -118 -95h-185q-47 0 -79 33q-26 28 -26 54v65l159 344h-150v78q0 27 13 51q23 43 77 43h199q109 0 109 -103zM83 818q13 13 29 4l95 -52l98 55q17 10 31.5 -4.5t2.5 -24.5l-79 -66q-33 -28 -58 -28q-24 0 -52 27l-70 62
q-13 11 3 27z" />
    <glyph glyph-name="ordmasculine" unicode="&#xba;" horiz-adv-x="379" 
d="M306 362q-5 -13 -128 -217h125l-1 -88q0 -57 -65 -57h-16q-10 1 -12 1h-127q-44 -2 -61 16q-8 9 -15 36v90q-1 20 125 219l-127 -1v64q0 43 17 59.5t57 16.5h157q67 2 73 -61q1 -33 -2 -78zM33 658q13 13 29 4l95 -52l98 55q17 10 31.5 -4.5t2.5 -24.5l-79 -66
q-33 -28 -58 -28q-24 0 -52 27l-70 62q-13 11 3 27z" />
    <glyph glyph-name="ae" unicode="&#xe6;" horiz-adv-x="669" 
d="M387 279h39v96h-39q-1 -20 0 -96zM89 2q-36 0 -58 15q-25 16 -25 44l-1 188q0 19 19.5 41t40.5 22h147l1 43q-4 0 -207 -1v35q1 23 1 27q-6 83 85 83h437q24 0 44 -17q22 -20 22 -52v-148q0 -86 -61 -86h-147v-53l204 -1q1 12 1 -69q0 -31 -24 -51.5t-59 -20.5zM214 143
v102l-40 1l-1 -103h41z" />
    <glyph glyph-name="oslash" unicode="&#xf8;" horiz-adv-x="448" 
d="M374 79q0 -24 -20 -49q-23 -30 -59 -30h-193l-13 -28q-17 -38 -35 -35q-23 5 -23 15q0 5 6 20l14 31q-55 15 -55 76l1 335q0 32 17 57q22 30 58 30h199l6 14q11 23 15 28q9 12 24 8q17 -4 17 -20q0 -7 -4 -16l-8 -18q52 -16 52 -86zM209 360h-46v-103zM219 136v131
l-56 -127v-4h56z" />
    <glyph glyph-name="questiondown" unicode="&#xbf;" horiz-adv-x="534" 
d="M342 337q0 -35 -7 -45q-12 -19 -60 -19l-62 1l-1 -102h50q4 2 3 39h193l1 -126q-8 -84 -111 -84h-247q-49 0 -75 38q-20 30 -20 69v217q-1 36 28 60q25 20 50 20h91v53h166zM281 497h-55q-30 0 -51 21t-21 51v27q0 30 21 51t51 21h55q30 0 51 -21t21 -51v-27
q0 -30 -21 -51t-51 -21z" />
    <glyph glyph-name="exclamdown" unicode="&#xa1;" horiz-adv-x="285" 
d="M117 1h-33q-30 0 -51 21t-21 51v325q0 30 21 51t51 21h33q30 0 51 -21t21 -51v-325q0 -30 -21 -51t-51 -21zM129 505h-55q-30 0 -51 21t-21 51v28q0 29 21 50.5t51 21.5h55q30 0 51 -21.5t21 -50.5v-28q0 -30 -21 -51t-51 -21z" />
    <glyph glyph-name="logicalnot" unicode="&#xac;" 
 />
    <glyph glyph-name="florin" unicode="&#x192;" horiz-adv-x="610" 
d="M38 441h11v86q0 73 52 112q40 31 92 31h207q56 0 96 -31t40 -82v-58h-273v-58h76q42 0 42 -36t-42 -36h-76v-46h76q42 0 42 -36t-42 -36h-76v-78h275v-52q0 -59 -42 -93q-35 -29 -80 -29h-225q-56 0 -99.5 45.5t-43.5 99.5l1 107h-11q-42 0 -42 36t42 36h11v46h-11
q-42 0 -42 36t42 36z" />
    <glyph glyph-name="guillemotleft" unicode="&#xab;" horiz-adv-x="333" 
d="M213 142l-87 151l87 153q7 12 21 12q26 0 26 -24q0 -7 -4 -13l-73 -128l73 -126q4 -6 4 -13q0 -25 -26 -25q-14 0 -21 13zM93 142l-87 151l87 153q7 12 21 12q26 0 26 -24q0 -7 -4 -13l-73 -128l73 -126q4 -6 4 -13q0 -25 -26 -25q-14 0 -21 13z" />
    <glyph glyph-name="guillemotright" unicode="&#xbb;" horiz-adv-x="333" 
d="M49 142l87 151l-87 153q-7 12 -21 12q-26 0 -26 -24q0 -7 4 -13l72 -128l-72 -126q-4 -6 -4 -13q0 -25 26 -25q13 0 21 13zM169 142l87 151l-87 153q-7 12 -21 12q-26 0 -26 -24q0 -7 4 -13l72 -128l-72 -126q-4 -6 -4 -13q0 -25 26 -25q13 0 21 13z" />
    <glyph glyph-name="ellipsis" unicode="&#x2026;" horiz-adv-x="1038" 
d="M464 183h55q30 0 51 -21.5t21 -50.5v-38q0 -30 -21 -51t-51 -21h-55q-30 0 -51 21t-21 51v38q0 29 21 50.5t51 21.5zM834 183h55q30 0 51 -21.5t21 -50.5v-38q0 -30 -21 -51t-51 -21h-55q-30 0 -51 21t-21 51v38q0 29 21 50.5t51 21.5zM94 183h55q30 0 51 -21.5t21 -50.5
v-38q0 -30 -21 -51t-51 -21h-55q-30 0 -51 21t-21 51v38q0 29 21 50.5t51 21.5z" />
    <glyph glyph-name="nonbreakingspace" unicode="&#xa0;" horiz-adv-x="198" 
 />
    <glyph glyph-name="Agrave" unicode="&#xc0;" horiz-adv-x="567" 
d="M491 94q0 -31 -16 -58q-19 -35 -54 -35h-147v165h-61v-168h-140q-21 0 -47.5 24.5t-26.5 46.5v525q0 25 20 46.5t52 27.5l322 1q58 0 81 -35q17 -26 17 -79v-461zM273 312v188h-58v-188q40 2 58 0zM157 743q47 -9 154 -39q12 -4 15 -1q6 6 12 12.5t6 14.5q0 11 -9 16
l-135 70q-35 19 -45 19q-14 0 -32 -34q-9 -18 -9 -30q0 -15 16 -21q13 -4 27 -7z" />
    <glyph glyph-name="Atilde" unicode="&#xc3;" horiz-adv-x="567" 
d="M491 94q0 -31 -16 -58q-19 -35 -54 -35h-147v165h-61v-168h-140q-21 0 -47.5 24.5t-26.5 46.5v525q0 24 20 45.5t52 27.5l322 2q58 0 81 -35q17 -26 17 -79v-461zM273 312v188h-58v-188q40 2 58 0zM181 765q-15 -3 -38 -21q-27 -22 -32 -25q-19 -9 -33 4q-16 17 -4 27
l69 58q21 17 43 17q27 0 50 -23q32 -26 42 -26q2 0 4 1h4q4 0 10 -3l70 41q19 12 33 -4t3 -27l-60 -58q-25 -24 -51 -24q-29 0 -53 29q-17 10 -57 34z" />
    <glyph glyph-name="Otilde" unicode="&#xd5;" horiz-adv-x="572" 
d="M490 111q0 -50 -13 -72q-23 -38 -94 -41h-277q-65 0 -89 33q-14 20 -19 70q-1 227 0 467q5 50 19 69q24 33 89 33h277q71 -3 94 -41q13 -22 13 -71v-447zM276 157v334q-25 -3 -55 0v-334h55zM191 765q-15 -3 -38 -21q-27 -22 -32 -25q-19 -9 -33 4q-16 17 -4 27l69 58
q21 17 43 17q27 0 50 -23q32 -26 42 -26q2 0 4 1h4q4 0 10 -3l70 41q19 12 33 -4t3 -27l-60 -58q-25 -24 -51 -24q-29 0 -53 29q-17 10 -57 34z" />
    <glyph glyph-name="OE" unicode="&#x152;" horiz-adv-x="781" 
d="M107 1q-65 0 -89 31q-15 20 -20 69q-1 227 0 467q5 49 20 69q24 31 89 31l508 1q31 0 61.5 -29t30.5 -62v-75h-212q-1 1 -1 -75h213v-162h-209v-92h209v-90q0 -84 -89 -84q-10 0 -19 1h-492zM276 157v334q-25 -3 -55 0v-334h55z" />
    <glyph glyph-name="oe" unicode="&#x153;" horiz-adv-x="662" 
d="M206 181v179h-46v-224h46v45zM584 73q0 -31 -24 -51.5t-59 -20.5l-422 -1q-44 0 -65 27q-18 21 -18 52l1 335q0 31 17 56q22 30 58 30l449 -1q24 0 44 -17q22 -20 22 -52v-148q0 -86 -61 -86h-149v-53h208q-1 -8 -1 -70zM418 279v96h-43q-3 -7 -2 -49q0 -39 2 -47h43z
" />
    <glyph glyph-name="endash" unicode="&#x2013;" horiz-adv-x="479" 
d="M64 393h279q28 0 45 -20.5t17 -51.5v-3q0 -31 -17 -51.5t-45 -20.5h-279q-29 0 -45.5 20.5t-16.5 51.5v3q0 31 16.5 51.5t45.5 20.5z" />
    <glyph glyph-name="emdash" unicode="&#x2014;" horiz-adv-x="843" 
d="M64 393l636 -1q30 0 51 -21t21 -51v-3q0 -31 -17 -51.5t-45 -20.5l-646 1q-29 0 -45.5 20.5t-16.5 51.5v3q0 31 16.5 51.5t45.5 20.5z" />
    <glyph glyph-name="quotedblleft" unicode="&#x201c;" horiz-adv-x="526" 
d="M124 673h-55q-30 0 -51 -21.5t-21 -50.5v-38q0 -17 7 -32q14 -28 44 -66q45 -58 49 -64h43l-38 90h22q30 0 51 21t21 51v38q0 29 -21 50.5t-51 21.5zM374 673h-55q-30 0 -51 -21.5t-21 -50.5v-38q0 -17 7 -32q14 -28 44 -66q45 -58 49 -64h43l-38 90h22q30 0 51 21t21 51
v38q0 29 -21 50.5t-51 21.5z" />
    <glyph glyph-name="quotedblright" unicode="&#x201d;" horiz-adv-x="526" 
d="M324 673h55q30 0 51 -21.5t21 -50.5v-38q0 -17 -7 -32q-14 -28 -44 -66q-45 -58 -49 -64h-43l38 90h-22q-30 0 -51 21t-21 51v38q0 29 21 50.5t51 21.5zM74 673h55q30 0 51 -21.5t21 -50.5v-38q0 -17 -7 -32q-14 -28 -44 -66q-45 -58 -49 -64h-43l38 90h-22q-30 0 -51 21
t-21 51v38q0 29 21 50.5t51 21.5z" />
    <glyph glyph-name="quoteleft" unicode="&#x2018;" horiz-adv-x="276" 
d="M124 673h-55q-30 0 -51 -21.5t-21 -50.5v-38q0 -17 8 -32q14 -28 43 -66q46 -58 50 -64h43l-38 90h21q30 0 51 21t21 51v38q0 29 -21 50.5t-51 21.5z" />
    <glyph glyph-name="quoteright" unicode="&#x2019;" horiz-adv-x="276" 
d="M74 673h55q30 0 51 -21.5t21 -50.5v-38q0 -17 -7 -32q-14 -28 -44 -66q-45 -58 -49 -64h-43l38 90h-22q-30 0 -51 21t-21 51v38q0 29 21 50.5t51 21.5z" />
    <glyph glyph-name="ydieresis" unicode="&#xff;" horiz-adv-x="462" 
d="M317 502q73 0 73 -94l1 -515q4 -94 -101 -94h-216q-33 -1 -53 27q-18 25 -18 59q0 54 0 52h225v64h-160q-23 0 -42.5 19.5t-19.5 46.5v344q0 90 81 90h86l1 -340l51 -1l1 340q25 0 52 1q32 1 39 1zM268 664h40q18 0 30 -12.5t12 -29.5v-26q0 -17 -12 -29.5t-30 -12.5h-40
q-17 0 -29.5 12.5t-12.5 29.5v26q0 17 12.5 29.5t29.5 12.5zM78 664h40q18 0 30 -12.5t12 -29.5v-26q0 -17 -12 -29.5t-30 -12.5h-40q-17 0 -29.5 12.5t-12.5 29.5v26q0 17 12.5 29.5t29.5 12.5z" />
    <glyph glyph-name="Ydieresis" unicode="&#x178;" horiz-adv-x="572" 
d="M486 94q0 -25 -16 -55q-20 -38 -49 -38h-318q-33 0 -63 19q-36 23 -36 59v87h266v58h-191q-16 0 -44 19q-31 22 -31 46v275q0 56 23.5 81.5t82.5 20.5h113v-292q11 4 50 0v292h135q28 1 51 -26q28 -30 28 -78zM310 819h40q17 0 29.5 -12t12.5 -30v-25q0 -18 -12.5 -30
t-29.5 -12h-40q-18 0 -30 12t-12 30v25q0 18 12 30t30 12zM120 819h40q17 0 29.5 -12t12.5 -30v-25q0 -18 -12.5 -30t-29.5 -12h-40q-18 0 -30 12t-12 30v25q0 18 12 30t30 12z" />
    <glyph glyph-name="currency" unicode="&#xa4;" 
 />
    <glyph glyph-name="guilsinglleft" unicode="&#x2039;" horiz-adv-x="221" 
d="M93 142l-87 151l87 153q7 12 21 12q26 0 26 -24q0 -7 -4 -13l-73 -128l73 -126q4 -6 4 -13q0 -25 -26 -25q-14 0 -21 13z" />
    <glyph glyph-name="guilsinglright" unicode="&#x203a;" horiz-adv-x="221" 
d="M49 142l87 151l-87 153q-7 12 -21 12q-26 0 -26 -24q0 -7 4 -13l72 -128l-72 -126q-4 -6 -4 -13q0 -25 26 -25q13 0 21 13z" />
    <glyph glyph-name="periodcentered" unicode="&#xb7;" horiz-adv-x="276" 
d="M74 433h55q30 0 51 -21.5t21 -50.5v-38q0 -30 -21 -51t-51 -21h-55q-30 0 -51 21t-21 51v38q0 29 21 50.5t51 21.5z" />
    <glyph glyph-name="periodcentered" unicode="&#x2219;" horiz-adv-x="276" 
d="M74 433h55q30 0 51 -21.5t21 -50.5v-38q0 -30 -21 -51t-51 -21h-55q-30 0 -51 21t-21 51v38q0 29 21 50.5t51 21.5z" />
    <glyph glyph-name="quotesinglbase" unicode="&#x201a;" horiz-adv-x="276" 
d="M74 183h55q30 0 51 -21.5t21 -50.5v-38q0 -17 -7 -32q-14 -28 -44 -66q-45 -58 -49 -64h-43l38 90h-22q-30 0 -51 21t-21 51v38q0 29 21 50.5t51 21.5z" />
    <glyph glyph-name="quotedblbase" unicode="&#x201e;" horiz-adv-x="526" 
d="M324 183h55q30 0 51 -21.5t21 -50.5v-38q0 -17 -7 -32q-14 -28 -44 -66q-45 -58 -49 -64h-43l38 90h-22q-30 0 -51 21t-21 51v38q0 29 21 50.5t51 21.5zM74 183h55q30 0 51 -21.5t21 -50.5v-38q0 -17 -7 -32q-14 -28 -44 -66q-45 -58 -49 -64h-43l38 90h-22q-30 0 -51 21
t-21 51v38q0 29 21 50.5t51 21.5z" />
    <glyph glyph-name="perthousand" unicode="&#x2030;" 
 />
    <glyph glyph-name="Acircumflex" unicode="&#xc2;" horiz-adv-x="567" 
d="M491 94q0 -31 -16 -58q-19 -35 -54 -35h-147v165h-61v-168h-140q-21 0 -47.5 24.5t-26.5 46.5v525q0 24 20 45.5t52 27.5l322 2q58 0 81 -35q17 -26 17 -79v-461zM273 312v188h-58v-188q40 2 58 0zM327 712l-95 52l-98 -55q-17 -10 -31.5 4.5t-2.5 24.5l79 66
q33 28 58 28q24 0 52 -27l70 -62q13 -11 -1.5 -25.5t-30.5 -5.5z" />
    <glyph glyph-name="Ecircumflex" unicode="&#xca;" horiz-adv-x="512" 
d="M436 84q0 -86 -91 -86q-9 0 -18 1h-253q-43 11 -58 52q-9 25 -9 83v457q0 79 126 79l212 -1q31 2 62 -28t29 -63l1 -75h-212q-1 1 -1 -81h213v-162h-209v-92h209zM307 712l-95 52l-98 -55q-17 -10 -31.5 4.5t-2.5 24.5l79 66q33 28 58 28q24 0 52 -27l70 -62
q13 -11 -1.5 -25.5t-30.5 -5.5z" />
    <glyph glyph-name="Aacute" unicode="&#xc1;" horiz-adv-x="567" 
d="M491 94q0 -31 -16 -58q-19 -35 -54 -35h-147v165h-61v-168h-140q-21 0 -47.5 24.5t-26.5 46.5v525q0 25 20 46.5t52 27.5l322 1q58 0 81 -35q17 -26 17 -79v-461zM273 312v188h-58v-188q40 2 58 0zM311 743q-52 -9 -164 -39q-10 -3 -11 -1q-1 7 -6.5 13t-5.5 14
q0 11 9 16l135 70q35 19 45 19q14 0 32 -34q9 -18 9 -30q0 -15 -14.5 -20t-28.5 -8z" />
    <glyph glyph-name="Edieresis" unicode="&#xcb;" horiz-adv-x="512" 
d="M436 84q0 -86 -91 -86q-9 0 -18 1h-253q-43 11 -58 52q-9 25 -9 83v457q0 79 126 79l212 -1q31 2 62 -28t29 -63l1 -75h-212q-1 1 -1 -81h213v-162h-209v-92h209zM280 819h40q17 0 29.5 -12t12.5 -30v-25q0 -18 -12.5 -30t-29.5 -12h-40q-18 0 -30 12t-12 30v25
q0 18 12 30t30 12zM90 819h40q17 0 29.5 -12t12.5 -30v-25q0 -18 -12.5 -30t-29.5 -12h-40q-18 0 -30 12t-12 30v25q0 18 12 30t30 12z" />
    <glyph glyph-name="Egrave" unicode="&#xc8;" horiz-adv-x="512" 
d="M436 84q0 -86 -91 -86q-9 0 -18 1h-253q-43 11 -58 52q-9 25 -9 83v457q0 79 126 79l212 -1q31 2 62 -28t29 -63l1 -75h-212q-1 1 -1 -81h213v-162h-209v-92h209zM137 743q47 -9 154 -39q12 -4 15 -1q6 6 12 12.5t6 14.5q0 11 -9 16l-135 70q-35 19 -45 19q-14 0 -32 -34
q-9 -18 -9 -30q0 -15 16 -21q13 -4 27 -7z" />
    <glyph glyph-name="Iacute" unicode="&#xcd;" horiz-adv-x="303" 
d="M112 -7q-41 0 -73 27.5t-33 68.5l-2 486q0 47 34 73q30 23 78 23q40 0 72 -22q38 -27 38 -73v-492q0 -91 -114 -91zM181 743q-47 -9 -154 -39q-12 -4 -16 -1q-5 6 -11 12.5t-6 14.5q0 11 9 16l135 70q35 19 45 19q14 0 32 -34q9 -18 9 -30q0 -15 -14.5 -20t-28.5 -8z" />
    <glyph glyph-name="Icircumflex" unicode="&#xce;" horiz-adv-x="303" 
d="M112 -7q-41 0 -73 27.5t-33 68.5l-2 486q0 47 34 73q30 23 78 23q40 0 72 -22q38 -27 38 -73v-492q0 -91 -114 -91zM207 712l-95 52l-98 -55q-17 -10 -31.5 4.5t-2.5 24.5l79 66q33 28 58 28q24 0 52 -27l70 -62q13 -11 -1.5 -25.5t-30.5 -5.5z" />
    <glyph glyph-name="Idieresis" unicode="&#xcf;" horiz-adv-x="303" 
d="M112 -7q-41 0 -73 27.5t-33 68.5l-2 486q0 47 34 73q30 23 78 23q40 0 72 -22q38 -27 38 -73v-492q0 -91 -114 -91zM170 819h40q17 0 29.5 -12t12.5 -30v-25q0 -18 -12.5 -30t-29.5 -12h-40q-18 0 -30 12t-12 30v25q0 18 12 30t30 12zM10 819h40q17 0 29.5 -12t12.5 -30
v-25q0 -18 -12.5 -30t-29.5 -12h-40q-18 0 -30 12t-12 30v25q0 18 12 30t30 12z" />
    <glyph glyph-name="Igrave" unicode="&#xcc;" horiz-adv-x="303" 
d="M112 -7q-41 0 -73 27.5t-33 68.5l-2 486q0 47 34 73q30 23 78 23q40 0 72 -22q38 -27 38 -73v-492q0 -91 -114 -91zM37 743q47 -9 154 -39q12 -4 15 -1q6 6 12 12.5t6 14.5q0 11 -9 16l-135 70q-35 19 -45 19q-14 0 -32 -34q-9 -18 -9 -30q0 -15 16 -21q13 -4 27 -7z" />
    <glyph glyph-name="Oacute" unicode="&#xd3;" horiz-adv-x="572" 
d="M490 111q0 -50 -13 -72q-23 -38 -94 -41h-277q-65 0 -89 33q-14 20 -19 70q-1 227 0 467q5 50 19 69q24 33 89 33h277q71 -3 94 -41q13 -22 13 -71v-447zM276 157v334q-25 -3 -55 0v-334h55zM321 743q-47 -9 -154 -39q-12 -4 -16 -1q-5 6 -11 12.5t-6 14.5q0 11 9 16
l135 70q35 19 45 19q14 0 32 -34q9 -18 9 -30q0 -15 -14.5 -20t-28.5 -8z" />
    <glyph glyph-name="Ocircumflex" unicode="&#xd4;" horiz-adv-x="572" 
d="M490 111q0 -50 -13 -72q-23 -38 -94 -41h-277q-65 0 -89 33q-14 20 -19 70q-1 227 0 467q5 50 19 69q24 33 89 33h277q71 -3 94 -41q13 -22 13 -71v-447zM276 157v334q-25 -3 -55 0v-334h55zM327 712l-95 52l-98 -55q-17 -10 -31.5 4.5t-2.5 24.5l79 66q33 28 58 28
q24 0 52 -27l70 -62q13 -11 -1.5 -25.5t-30.5 -5.5z" />
    <glyph glyph-name="Ograve" unicode="&#xd2;" horiz-adv-x="572" 
d="M490 111q0 -50 -13 -72q-23 -38 -94 -41h-277q-65 0 -89 33q-14 20 -19 70q-1 227 0 467q5 50 19 69q24 33 89 33h277q71 -3 94 -41q13 -22 13 -71v-447zM276 157v334q-25 -3 -55 0v-334h55zM167 743q47 -9 154 -39q12 -4 15 -1q6 6 12 12.5t6 14.5q0 11 -9 16l-135 70
q-35 19 -45 19q-14 0 -32 -34q-9 -18 -9 -30q0 -15 16 -21q13 -4 27 -7z" />
    <glyph glyph-name="Uacute" unicode="&#xda;" horiz-adv-x="583" 
d="M503 563v-462q-3 -67 -41 -90q-24 -14 -79 -14l-297 3q-24 0 -50 23.5t-29 51.5l-2 492q-3 45 18.5 74.5t63.5 29.5h139v-500q2 -5 7 -5h23h30q5 294 4 503h143q70 5 70 -106zM331 743q-47 -9 -154 -39q-12 -4 -16 -1q-5 6 -11 12.5t-6 14.5q0 11 9 16l135 70
q35 19 45 19q14 0 32 -34q9 -18 9 -30q0 -15 -14.5 -20t-28.5 -8z" />
    <glyph glyph-name="Ucircumflex" unicode="&#xdb;" horiz-adv-x="583" 
d="M503 563v-462q-3 -67 -41 -90q-24 -14 -79 -14l-297 3q-24 0 -50 23.5t-29 51.5l-2 492q-3 45 18.5 74.5t63.5 29.5h139v-500q2 -5 7 -5h23h30q5 294 -4 503h151q70 5 70 -106zM347 712l-95 52l-98 -55q-17 -10 -31.5 4.5t-2.5 24.5l79 66q33 28 58 28q24 0 52 -27
l70 -62q13 -11 -1.5 -25.5t-30.5 -5.5z" />
    <glyph glyph-name="Ugrave" unicode="&#xd9;" horiz-adv-x="583" 
d="M503 563v-462q-3 -67 -41 -90q-24 -14 -79 -14l-297 3q-24 0 -50 23.5t-29 51.5l-2 492q-3 45 18.5 74.5t63.5 29.5h139l1 -505h59l-2 503h149q70 5 70 -106zM167 743q47 -9 154 -39q12 -4 15 -1q6 6 12 12.5t6 14.5q0 11 -9 16l-135 70q-35 19 -45 19q-14 0 -32 -34
q-9 -18 -9 -30q0 -15 16 -21q13 -4 27 -7z" />
    <glyph glyph-name="circumflex" unicode="&#x2c6;" horiz-adv-x="468" 
d="M327 712l-95 52l-98 -55q-17 -10 -31.5 4.5t-2.5 24.5l79 66q33 28 58 28q24 0 52 -27l70 -62q13 -11 -1.5 -25.5t-30.5 -5.5z" />
    <glyph glyph-name="tilde" unicode="&#x2dc;" horiz-adv-x="478" 
d="M161 765q-18 -4 -45 -25q-32 -26 -38 -30q-11 -5 -18 -5q-9 0 -20 11q-19 19 -5 31l81 68q25 21 51 21q32 0 58 -28q39 -31 50 -31q2 0 5 1t5 1q4 0 12 -4l81 49q11 6 18 6q9 0 20 -11q18 -19 5 -31l-71 -69q-29 -28 -59 -28q-34 0 -64 33q-19 12 -66 41z" />
    <glyph glyph-name="macron" unicode="&#xaf;" horiz-adv-x="324" 
d="M46 800h166q17 0 29.5 -11.5t12.5 -27.5t-12.5 -27t-29.5 -11h-166q-17 0 -29.5 11t-12.5 27t12.5 27.5t29.5 11.5z" />
    <glyph glyph-name="macron" unicode="&#x2c9;" horiz-adv-x="324" 
d="M46 800h166q17 0 29.5 -11.5t12.5 -27.5t-12.5 -27t-29.5 -11h-166q-17 0 -29.5 11t-12.5 27t12.5 27.5t29.5 11.5z" />
    <glyph glyph-name="cedilla" unicode="&#xb8;" horiz-adv-x="299" 
d="M132 -150q22 0 36 12t14 26q0 29 -56 29h-25v97q0 25 25 25t25 -25v-50q81 -18 81 -76q0 -38 -30 -63t-70 -25q-39 0 -68 23q-10 8 -10 19q0 26 26 26q6 0 20.5 -9t31.5 -9z" />
    <glyph glyph-name="Scaron" unicode="&#x160;" 
 />
    <glyph glyph-name="scaron" unicode="&#x161;" 
 />
    <glyph glyph-name="brokenbar" unicode="&#xa6;" 
 />
    <glyph glyph-name="Eth" unicode="&#xd0;" 
 />
    <glyph glyph-name="eth" unicode="&#xf0;" 
 />
    <glyph glyph-name="Yacute" unicode="&#xdd;" 
 />
    <glyph glyph-name="yacute" unicode="&#xfd;" 
 />
    <glyph glyph-name="Thorn" unicode="&#xde;" 
 />
    <glyph glyph-name="thorn" unicode="&#xfe;" 
 />
    <glyph glyph-name="minus" unicode="&#xad;" 
 />
    <glyph glyph-name="minus" unicode="&#x2212;" 
 />
    <glyph glyph-name="multiply" unicode="&#xd7;" 
 />
    <glyph glyph-name="onesuperior" unicode="&#xb9;" 
 />
    <glyph glyph-name="twosuperior" unicode="&#xb2;" 
 />
    <glyph glyph-name="threesuperior" unicode="&#xb3;" 
 />
    <glyph glyph-name="onehalf" unicode="&#xbd;" 
 />
    <glyph glyph-name="onequarter" unicode="&#xbc;" 
 />
    <glyph glyph-name="threequarters" unicode="&#xbe;" 
 />
    <glyph glyph-name="Lslash" unicode="&#x141;" 
 />
    <glyph glyph-name="lslash" unicode="&#x142;" 
 />
    <glyph glyph-name="HT" 
 />
    <glyph glyph-name="LF" 
 />
    <glyph glyph-name="nonmarkingreturn" 
 />
    <glyph glyph-name="Zcaron" unicode="&#x17d;" 
 />
    <glyph glyph-name="zcaron" unicode="&#x17e;" 
 />
    <glyph glyph-name="DLE" 
 />
    <glyph glyph-name="DC1" 
 />
    <glyph glyph-name="DC2" 
 />
    <glyph glyph-name="DC3" 
 />
    <glyph glyph-name="DC4" 
 />
    <glyph glyph-name="RS" 
 />
    <glyph glyph-name="US" 
 />
    <glyph glyph-name="notequal" unicode="&#x2260;" 
 />
    <glyph glyph-name="infinity" unicode="&#x221e;" 
 />
    <glyph glyph-name="lessequal" unicode="&#x2264;" 
 />
    <glyph glyph-name="greaterequal" unicode="&#x2265;" 
 />
    <glyph glyph-name="partialdiff" unicode="&#x2202;" horiz-adv-x="307" 
d="M38 271l21 16v303q0 50 21 67q18 16 66 16q37 0 52 -8q35 -16 35 -69v-179q12 9 22 9q14 0 23 -16l11 -20q2 -3 2 -6q0 -12 -23 -30q-18 -12 -35 -24v-241q0 -52 -14 -70q-17 -22 -70 -21q-59 1 -77 26q-13 18 -13 73v105l-15 -12q-5 -3 -11 -3q-13 0 -24.5 13.5
t-11.5 27.5v3q0 15 13.5 23.5t27.5 16.5z" />
    <glyph glyph-name="summation" unicode="&#x2211;" horiz-adv-x="576" 
d="M504 465h-224q-5 24 0 47q9 -1 -56 -1q-3 0 2 -1t0 -2v-90h200q23 0 48.5 -25t25.5 -48v-254q0 -90 -97 -90q-63 -1 -161 -1q-134 1 -160.5 1t-52.5 23.5t-26 45.5v133h217q3 -6 1 -18q-3 -16 -3 -18q0 -8 4 -13l61 -1v96h-196q-24 0 -52.5 23.5t-28.5 46.5v239
q0 59 34 88q31 27 84 23q52 -4 143 -2q122 1 144 1q94 -1 94 -114q0 -93 -1 -89zM113 818q13 13 29 4l95 -52l98 55q17 10 31.5 -4.5t2.5 -24.5l-79 -66q-33 -28 -58 -28q-24 0 -52 27l-70 62q-13 11 3 27z" />
    <glyph glyph-name="product" unicode="&#x220f;" horiz-adv-x="448" 
d="M366 362l-204 -1v-45h150q28 2 46 -19.5t18 -44.5v-170q0 -26 -13 -47q-19 -34 -62 -34h-219q-74 0 -79 105v43h202v53q-36 4 -113 1q-88 -2 -89 84v142q-2 29 22.5 50.5t55.5 21.5l215 1q29 0 49.5 -16t20.5 -49v-75zM63 658q13 13 29 4l95 -52l98 55q17 10 31.5 -4.5
t2.5 -24.5l-79 -66q-33 -28 -58 -28q-24 0 -52 27l-70 62q-13 11 3 27z" />
    <glyph glyph-name="pi" unicode="&#x3c0;" horiz-adv-x="572" 
d="M486 94q0 -25 -16 -55q-20 -38 -49 -38h-318q-33 0 -63 19q-36 23 -36 59v87h266v58h-191q-16 0 -44 19q-31 22 -31 46v278q0 56 23.5 80t82.5 19l113 -2v-290q11 4 50 0v290h135q22 0 47 -25q32 -31 32 -77zM321 743q-52 -9 -164 -39q-10 -3 -11 -1q-1 7 -6.5 13
t-5.5 14q0 11 9 16l135 70q35 19 45 19q14 0 32 -34q9 -18 9 -30q0 -15 -14.5 -20t-28.5 -8z" />
    <glyph glyph-name="integral" unicode="&#x222b;" horiz-adv-x="462" 
d="M317 502q73 0 73 -94l1 -515q4 -94 -101 -94h-216q-33 -1 -53 27q-18 25 -18 59q0 54 0 52h225v64h-160q-23 0 -42.5 19.5t-19.5 46.5v344q0 90 81 90h86l1 -340l51 -1l1 340q25 0 52 1q32 1 39 1zM271 583q-52 -9 -164 -39q-10 -3 -11 -1q-1 7 -6.5 13t-5.5 14
q0 11 9 16l135 70q35 19 45 19q14 0 32 -34q9 -18 9 -30q0 -15 -14.5 -20t-28.5 -8z" />
    <glyph glyph-name="Omega" unicode="&#x3a9;" horiz-adv-x="610" 
d="M38 441h11v86q0 73 52 112q40 31 92 31h207q56 0 96 -31t40 -82v-58h-273v-58h76q42 0 42 -36t-42 -36h-76v-46h76q42 0 42 -36t-42 -36h-76v-78h275v-52q0 -59 -42 -93q-35 -29 -80 -29h-225q-56 0 -99.5 45.5t-43.5 99.5l1 107h-11q-42 0 -42 36t42 36h11v46h-11
q-42 0 -42 36t42 36z" />
    <glyph glyph-name="Omega" unicode="&#x2126;" horiz-adv-x="610" 
d="M38 441h11v86q0 73 52 112q40 31 92 31h207q56 0 96 -31t40 -82v-58h-273v-58h76q42 0 42 -36t-42 -36h-76v-46h76q42 0 42 -36t-42 -36h-76v-78h275v-52q0 -59 -42 -93q-35 -29 -80 -29h-225q-56 0 -99.5 45.5t-43.5 99.5l1 107h-11q-42 0 -42 36t42 36h11v46h-11
q-42 0 -42 36t42 36z" />
    <glyph glyph-name="radical" unicode="&#x221a;" 
 />
    <glyph glyph-name="approxequal" unicode="&#x2248;" 
 />
    <glyph glyph-name="approxequal" unicode="&#x22f2;" 
 />
    <glyph glyph-name="Delta" unicode="&#x394;" 
 />
    <glyph glyph-name="Delta" unicode="&#x2206;" 
 />
    <glyph glyph-name="lozenge" unicode="&#x25ca;" horiz-adv-x="484" 
d="M26 387l128 129q21 21 51 21t51 -21l128 -129q22 -21 22 -50q0 -30 -22 -51l-128 -129q-21 -21 -51 -21t-51 21l-128 129q-22 21 -22 51q0 29 22 50z" />
    <glyph glyph-name="fraction" unicode="&#x2044;" 
 />
    <glyph glyph-name="fi" unicode="&#xf001;" 
 />
    <glyph glyph-name="fl" unicode="&#xf002;" 
 />
    <glyph glyph-name="apple" unicode="&#xf000;" 
 />
    <glyph glyph-name="dotlessi" unicode="&#x131;" horiz-adv-x="245" 
d="M173 64q0 -65 -86 -65q-84 0 -84 68v430h171z" />
    <glyph glyph-name="breve" unicode="&#x2d8;" horiz-adv-x="463" 
d="M312 804q0 -47 -52 -75q-46 -24 -107 -24q-60 0 -106 24q-53 28 -53 75q0 25 35 25t35 -25q0 -31 91 -31q87 0 87 31q0 25 35 25t35 -25z" />
    <glyph glyph-name="dotaccent" unicode="&#x2d9;" horiz-adv-x="207" 
d="M50 819h40q17 0 29.5 -12t12.5 -30v-25q0 -18 -12.5 -30t-29.5 -12h-40q-18 0 -30 12t-12 30v25q0 18 12 30t30 12z" />
    <glyph glyph-name="ring" unicode="&#x2da;" horiz-adv-x="270" 
d="M121 847q28 0 47.5 -19.5t19.5 -47.5v-5q0 -28 -19.5 -47.5t-47.5 -19.5h-37q-27 0 -47 19.5t-20 47.5v5q0 28 20 47.5t47 19.5h37zM121 797h-37q-17 0 -17 -17v-5q0 -17 17 -17h37q17 0 17 17v5q0 17 -17 17z" />
    <glyph glyph-name="hungarumlaut" unicode="&#x2dd;" horiz-adv-x="354" 
d="M238 776q-29 -21 -89 -62q-7 -5 -9 -4l-8 6q-13 7 -3 18l73 78q21 23 28 23q9 0 19.5 -12.5t10.5 -21.5q0 -10 -22 -25zM128 776q-29 -21 -89 -62q-7 -5 -9 -4l-8 6q-13 7 -3 18l73 78q21 23 28 23q9 0 19.5 -12.5t10.5 -21.5q0 -10 -22 -25z" />
    <glyph glyph-name="ogonek" unicode="&#x2db;" horiz-adv-x="299" 
d="M245 -149q-31 -53 -86 -53q-45 0 -74.5 37t-29.5 86t29.5 86t74.5 37q25 0 25 -25t-25 -25q-20 0 -37 -20t-17 -53q0 -32 17 -52.5t37 -20.5q26 0 43 28q7 13 20 13q27 0 27 -25q0 -6 -4 -13z" />
    <glyph glyph-name="caron" unicode="&#x2c7;" horiz-adv-x="468" 
d="M103 818q13 13 29 4l95 -52l98 55q17 10 31.5 -4.5t2.5 -24.5l-79 -66q-33 -28 -58 -28q-24 0 -52 27l-70 62q-13 11 3 27z" />
    </font>
</defs>
</svg>
