<?xml version="1.0" standalone="no"?>
<!DOCTYPE svg PUBLIC "-//W3C//DTD SVG 1.1//EN" "http://www.w3.org/Graphics/SVG/1.1/DTD/svg11.dtd" >
<svg>
<metadata>
Created by FontForge 20120731 at Wed Apr 17 22:21:33 2019
 By www-data
Generated by Fontographer 4.1.5
</metadata>
<defs>
<font id="StygianBlackItalicNormal" horiz-adv-x="20" >
  <font-face 
    font-family="Stygian Black Italic"
    font-weight="400"
    font-stretch="normal"
    units-per-em="1000"
    panose-1="0 0 4 0 0 0 0 0 0 0"
    ascent="800"
    descent="-200"
    x-height="344"
    cap-height="690"
    bbox="-129 -214 1308 854"
    underline-thickness="20"
    underline-position="-123"
    unicode-range="U+0020-F002"
  />
<missing-glyph horiz-adv-x="500" 
d="M63 0v800h375v-800h-375zM125 63h250v675h-250v-675z" />
    <glyph glyph-name=".notdef" horiz-adv-x="500" 
d="M63 0v800h375v-800h-375zM125 63h250v675h-250v-675z" />
    <glyph glyph-name=".null" horiz-adv-x="0" 
 />
    <glyph glyph-name="glyph2" horiz-adv-x="194" 
 />
    <glyph glyph-name="space" unicode=" " horiz-adv-x="194" 
 />
    <glyph glyph-name="exclam" unicode="!" horiz-adv-x="333" 
d="M9 67q6 36 58 56q41 17 87 18q94 2 94 -61q0 -7 -2 -15q-5 -32 -55 -50q-41 -13 -92 -13q-21 0 -36 2q-22 4 -40 23t-14 40zM169 516q0 49 1 41q-3 31 -21 51q29 19 274 74q-19 -13 -42 -56q-12 -24 -24 -49q-9 -14 -74.5 -161.5t-77.5 -176.5q-37 -8 -98 -10
q62 255 62 287z" />
    <glyph glyph-name="quotedbl" unicode="&#x22;" horiz-adv-x="490" 
d="M354 584q0 44 -13 58q19 12 173 47q-12 -9 -27 -36q-7 -15 -15 -31q-5 -9 -46.5 -101.5t-49.5 -111.5q-23 -5 -61 -6q39 161 39 181zM165 584q0 44 -13 58q19 12 173 47q-12 -9 -27 -36q-7 -15 -15 -31q-5 -9 -46.5 -101.5t-49.5 -111.5q-23 -5 -61 -6q39 161 39 181z
" />
    <glyph glyph-name="numbersign" unicode="#" horiz-adv-x="409" 
d="M285 320h-97l-43 -142h97zM101 408h71l23 78h43l-23 -78h97l23 78h43l-23 -78h75l-27 -88h-75l-43 -142h75l-27 -88h-75l-28 -90h-43l28 90h-97l-28 -90h-43l28 90h-71l27 88h71l43 142h-71z" />
    <glyph glyph-name="dollar" unicode="$" horiz-adv-x="412" 
d="M403 370q0 -21 -28 -21q-22 0 -22 20q0 13 11 24q-7 17 -32 17q-26 0 -26 -23q0 -28 22 -87.5t22 -92.5q0 -60 -50 -89q-40 -23 -105 -22h-2l-24 -74h-30l24 78q-107 19 -137 71l14 17q19 -15 37 -30q22 -17 43 -17q10 0 18.5 9t8.5 20q0 22 -22 87t-22 96q0 47 60 77
q52 26 103 24l22 55h30l-24 -62q109 -12 109 -77z" />
    <glyph glyph-name="percent" unicode="%" horiz-adv-x="990" 
d="M748 672h40l-479 -672h-40zM936 191q0 -92 -69 -147q-64 -51 -158 -51q-68 0 -120 44q-55 46 -55 112q0 89 78 144q69 48 161 48q69 0 116 -41t47 -109zM802 300q0 18 -20 18q-14 0 -22 -13q-9 -16 -46.5 -136t-37.5 -135q0 -18 20 -18q8 0 13.5 4.5t10.5 17.5
q12 39 35 117q47 148 47 145zM515 516q0 -92 -69 -147q-63 -50 -158 -50q-67 0 -119 43q-55 46 -55 113q0 88 77 143q70 49 162 49q69 0 115.5 -41t46.5 -110zM381 626q0 18 -20 18q-14 0 -22.5 -15t-45.5 -135t-37 -134q0 -18 19 -18q9 0 12 3q7 5 13 19q11 39 35 117
q46 148 46 145z" />
    <glyph glyph-name="ampersand" unicode="&#x26;" horiz-adv-x="736" 
d="M725 50q-50 -43 -95 -55q-32 -9 -107 -9q-70 0 -132 63l-61 -31l-10 5l4 -10q-59 -32 -144 -32q-69 0 -116 58q-44 54 -44 125q0 115 103 202q86 73 211 102q30 83 72 120q49 44 133 44q33 0 61 -14q34 -17 34 -47q0 -16 -15.5 -35.5t-31.5 -19.5l-12 6v13q14 8 20 13
q11 9 11 20l-20 19q-63 -11 -63 -131q0 -78 29 -231l7 -8q22 12 54 65q44 74 48 79l34 4l30 -4q-26 -24 -87 -92q-69 -78 -69 -91q0 -31 37 -75.5t68 -50.5l38 14l13 -7v-9zM378 75q-36 117 -43 176q-7 49 -8 181l-7 4q-53 -31 -86 -99q-32 -64 -32 -129q0 -53 40 -99
t92 -46q13 0 44 12z" />
    <glyph glyph-name="quotesingle" unicode="'" horiz-adv-x="333" 
d="M175 584q0 44 -13 58q18 12 172 47q-12 -9 -26 -36q-8 -15 -15 -31q-6 -9 -47 -101.5t-49 -111.5q-23 -5 -62 -6q40 161 40 181z" />
    <glyph glyph-name="parenleft" unicode="(" horiz-adv-x="465" 
d="M273 -29q-58 -9 -129 44q-91 66 -91 184q0 22 4 46q31 220 141 336q102 108 252 108q18 0 37 -2l-16 -52q-71 1 -86 -37q-50 -127 -101 -254q-69 -185 -69 -247q0 -31 21.5 -57t52.5 -26q-9 -14 -10.5 -24t-5.5 -19z" />
    <glyph glyph-name="parenright" unicode=")" horiz-adv-x="465" 
d="M180 687q58 9 130 -43q90 -66 90 -184q0 -23 -3 -46q-32 -220 -141 -336q-102 -108 -253 -108q-18 0 -36 1l15 53q71 -1 86 37q50 127 101 254q69 185 69 246q0 32 -21 57.5t-52 25.5q8 14 9.5 24.5t5.5 18.5z" />
    <glyph glyph-name="asterisk" unicode="*" horiz-adv-x="480" 
d="M286 629q0 26 -7 35q11 7 103 28q-4 -3 -25 -40q-10 -18 -50 -103q59 18 66 22t14 7q10 7 13 17q11 -6 76 -76q-5 2 -47 2q-11 0 -111 -11q42 -39 49 -43q23 -13 34 -11q1 -13 -28 -104q0 5 -21 42q-6 9 -65 90q-14 -55 -14 -64q0 -26 8 -35q-11 -7 -103 -28q4 3 25 40
q5 9 44 98q-27 -7 -61 -17q-6 -4 -13 -8q-10 -6 -13 -16q-12 6 -76 75q5 -2 47 -1q24 0 110 7q-21 22 -48 47q-23 13 -34 11q-1 13 27 104q1 -5 22 -42q9 -15 62 -92q16 58 16 66z" />
    <glyph glyph-name="plus" unicode="+" horiz-adv-x="555" 
d="M253 487h77v-202h203v-77h-203v-203h-77v203h-202v77h202v202z" />
    <glyph glyph-name="comma" unicode="," horiz-adv-x="295" 
d="M235 70q2 -3 -18 -45q-28 -53 -73 -87q-66 -47 -162 -47q-17 0 -36 2q1 11 3.5 14.5t6.5 9.5q55 4 92 25q27 15 41 37q12 18 8 21q-23 -4 -66 4q-16 3 -27.5 16t-11.5 29q0 10 4 18q39 83 155 83q88 0 84 -80z" />
    <glyph glyph-name="hyphen" unicode="-" horiz-adv-x="391" 
d="M66 303h282l-20 -70h-282z" />
    <glyph glyph-name="hyphen" unicode="&#x2010;" horiz-adv-x="391" 
d="M66 303h282l-20 -70h-282z" />
    <glyph glyph-name="period" unicode="." horiz-adv-x="299" 
d="M9 73q12 70 137 70q39 0 69 -15q36 -19 36 -55q0 -6 -1 -12q-5 -32 -53 -47q-38 -13 -91 -13q-25 0 -43 3q-21 4 -39.5 25.5t-14.5 43.5z" />
    <glyph glyph-name="slash" unicode="/" horiz-adv-x="339" 
d="M351 702h40l-359 -740h-40z" />
    <glyph glyph-name="zero" unicode="0" horiz-adv-x="438" 
d="M423 196q0 -92 -68 -147q-64 -50 -159 -50q-67 0 -119 43q-55 46 -55 113q0 88 77 143q70 49 162 49q69 0 115.5 -41t46.5 -110zM290 306q0 18 -21 18q-13 0 -22 -15t-46 -135t-37 -134q0 -18 19 -18q9 0 14 4t11 18q12 39 35 117q47 148 47 145z" />
    <glyph glyph-name="one" unicode="1" horiz-adv-x="381" 
d="M365 340q0 -9 -47 -157q-44 -137 -56 -170q-7 -8 -73 -10q-41 1 -82 1q-12 -1 -20 7l87 284q-4 13 -22 15q-23 2 -28 6v7q0 11 16 10q105 -6 98 -6q19 0 72 12q50 12 55 11v-10z" />
    <glyph glyph-name="two" unicode="2" horiz-adv-x="425" 
d="M403 30q1 -34 -81 -34q-9 0 -65 9.5t-83 9.5q-25 0 -77.5 -5.5t-79.5 -4.5q57 73 114 147q90 120 90 142q0 33 -53 33q-37 0 -64 -15q-32 -17 -37 -51q7 -4 14 -9t7 -14q0 -21 -22 -21q-21 0 -21 30q0 57 57 84q42 20 107 20q50 0 107 -27q67 -33 67 -78q0 -21 -58 -102
l-80 -106q8 -9 50 -18q37 -7 57 -7q10 0 23 7t13 17z" />
    <glyph glyph-name="three" unicode="3" horiz-adv-x="397" 
d="M357 250q0 -44 -28 -66q-10 -8 -64 -32q-5 -3 -3 -7q73 -46 73 -114q0 -85 -79 -131q-65 -38 -156 -38q-31 0 -89 19q-68 22 -70 45l12 12q59 -44 106 -44q50 0 88 89q32 74 32 131q0 31 -44 33l-3 4l2 14q89 0 89 112q0 42 -59 42q-15 0 -35 -5q-26 -7 -26 -19
q0 -3 4.5 -10.5t4.5 -10.5q0 -9 -8 -16.5t-17 -7.5q-23 0 -23 27q0 39 64 57q43 13 99 13q45 0 85 -26q45 -29 45 -71z" />
    <glyph glyph-name="four" unicode="4" horiz-adv-x="476" 
d="M453 328q-22 -58 -47 -148l-42 -150l11 -6q23 11 35 8l2 -12q-7 -8 -27.5 -11.5t-26.5 -9.5q-11 -8 -46 -122h-164l34 120q0 18 -91 18q-16 0 -54.5 -12t-46.5 -12l-5 8l251 287q-12 -61 -74 -134q-54 -58 -107 -116q4 -3 35.5 -3t96.5 -11q24 65 94 311l11 5h161v-10z
" />
    <glyph glyph-name="five" unicode="5" horiz-adv-x="399" 
d="M388 347q0 -26 -33 -38q-24 -9 -55 -9q-26 0 -76.5 8.5t-75.5 8.5q-11 0 -26 -46q-11 -33 -16 -59l3 -3l33 1q83 4 142 -33q67 -43 67 -124q0 -76 -80 -137q-75 -57 -154 -57q-90 0 -166 49l-3 8l11 11q56 -31 98 -31q49 0 92 98q37 84 37 141q0 23 -17 37.5t-41 14.5
t-37.5 -17.5l-13.5 -17.5l-12 5v9q0 -4 47 144q11 36 20 35l187 -24q24 -3 39 38l11 3q5 0 12 -5t7 -10z" />
    <glyph glyph-name="six" unicode="6" horiz-adv-x="456" 
d="M454 448l-13 -14q-56 36 -80 36q-55 0 -80 -46q-13 -23 -29 -99l6 -3q51 19 87 19q42 0 67 -38q21 -32 21 -77q0 -97 -66 -163t-163 -66q-75 0 -119.5 48t-44.5 124q0 115 76 219q83 114 195 114q31 0 80 -14q61 -18 63 -40zM288 288q0 15 -19 15q-18 0 -25 -12.5
t-41 -125.5t-34 -126q0 -19 24 -19q14 0 19.5 15t40.5 132t35 121z" />
    <glyph glyph-name="seven" unicode="7" horiz-adv-x="459" 
d="M482 339q-77 -101 -153 -202q-88 -118 -144 -208q-19 -30 -27 -30h-196q55 74 152 212q132 185 134 198q-12 7 -66 15q-49 6 -72 6q4 -34 -22 -34q-22 0 -22 21q0 19 19 27q15 7 35 5l161 -15q27 -2 89 6q68 8 88 8q11 0 19 -1z" />
    <glyph glyph-name="eight" unicode="8" horiz-adv-x="458" 
d="M463 396q0 -37 -20 -59q-12 -12 -43.5 -27t-42.5 -28q70 -40 70 -105q0 -179 -253 -179q-59 0 -103 37q-47 39 -47 96q0 67 41 110q34 34 103 61q-40 37 -40 80q0 65 63 96q48 24 121 24q59 0 100 -23q51 -28 51 -83zM340 463q0 20 -21 20q-15 0 -38 -66q-22 -62 -22 -84
q0 -20 21 -20q12 0 16 8t24 72t20 70zM281 274q0 22 -17 22q-18 0 -25 -20q-43 -113 -43 -152q0 -5 1 -7q-29 -51 -29 -82q0 -6 7.5 -11.5t12.5 -5.5q20 0 44 85q27 96 35 105q1 8 8 33q6 21 6 33z" />
    <glyph glyph-name="nine" unicode="9" horiz-adv-x="438" 
d="M425 175q0 -120 -93 -211t-213 -91q-21 0 -58 9q-46 11 -46 23q0 11 14 17q49 -19 85 -19q35 0 60.5 31.5t25.5 67.5q0 6 -12 6q-11 0 -33.5 -3.5t-34.5 -3.5q-44 0 -72 40q-25 35 -25 81q0 99 73 164q69 63 168 63q72 0 116.5 -50.5t44.5 -123.5zM293 312q0 18 -20 18
q-22 0 -30 -26q-12 -38 -39 -132q-32 -110 -32 -121q0 -20 24 -20q15 0 37 69l28 90l7 1l-9 2q34 102 34 119z" />
    <glyph glyph-name="colon" unicode=":" horiz-adv-x="336" 
d="M80 273q6 35 58 53q39 14 87 15q94 2 94 -61q0 -7 -1 -15q-6 -32 -56 -50q-40 -13 -92 -13q-21 0 -36 2q-21 4 -39.5 25.5t-14.5 43.5zM30 73q6 35 58 53q39 14 87 15q94 2 94 -61q0 -7 -1 -15q-6 -32 -56 -50q-40 -13 -92 -13q-21 0 -36 2q-21 4 -39.5 25.5t-14.5 43.5z
" />
    <glyph glyph-name="semicolon" unicode=";" horiz-adv-x="281" 
d="M235 70q2 -3 -18 -45q-28 -53 -73 -87q-66 -47 -162 -47q-17 0 -36 2q1 11 3.5 14.5t6.5 9.5q55 4 92 25q27 15 41 37q12 18 8 21q-23 -4 -66 4q-16 3 -27.5 16t-11.5 29q0 10 4 18q39 83 155 83q88 0 84 -80zM59 273q6 36 54 56q42 17 94 14q78 -4 78 -62q0 -9 -2 -19
q-10 -61 -131 -61q-22 0 -39 3q-21 4 -39.5 25.5t-14.5 43.5z" />
    <glyph glyph-name="less" unicode="&#x3c;" horiz-adv-x="390" 
d="M45 241v1l250 250l38 -39l-211 -212l211 -211l-38 -39l-250 250v0z" />
    <glyph glyph-name="equal" unicode="=" horiz-adv-x="544" 
d="M66 94v55h413v-55h-413zM66 224v55h413v-55h-413z" />
    <glyph glyph-name="greater" unicode="&#x3e;" horiz-adv-x="397" 
d="M361 241h1l-250 -250l-39 39l212 211l-212 212l39 39l250 -250z" />
    <glyph glyph-name="question" unicode="?" horiz-adv-x="399" 
d="M457 517q0 -80 -69.5 -156t-143.5 -76q-4 0 -17.5 3t-18.5 2q-13 -36 -47 -85l-40 -3l27 140q-4 -14 28 -14q47 0 85 113q31 94 31 157q0 24 -17 38t-41 14t-44 -18.5l-20 -18.5q-13 0 -14 39q27 11 53 22q17 6 41 8q82 3 141 -38q66 -45 66 -127zM9 73q6 35 58 53
q38 14 87 15q94 2 94 -61q0 -7 -2 -15q-5 -32 -55 -50q-41 -13 -92 -13q-21 0 -36 2q-21 4 -39.5 25.5t-14.5 43.5z" />
    <glyph glyph-name="at" unicode="@" horiz-adv-x="762" 
d="M699 379q0 -110 -56.5 -179.5t-138.5 -69.5q-92 0 -99 75q-54 -65 -129 -65q-42 0 -71 31q-32 34 -32 94q0 110 59 184q65 82 176 82q60 0 116 -30q-11 -36 -54 -232q-6 -26 -6 -43q0 -39 43 -39q47 0 82 56t35 136q0 102 -73 172q-76 71 -193 71q-122 0 -203 -93
q-77 -89 -77 -211q0 -112 77 -185.5t187 -73.5q65 0 124 19l16 -58q-61 -20 -140 -20q-143 0 -237 82q-102 88 -102 236q0 153 100.5 257t254.5 104q147 0 244 -82.5t97 -217.5zM438 469q-13 6 -36 6q-75 0 -118 -71q-36 -60 -36 -142q0 -60 46 -60q31 0 62 28q37 32 48 85z
" />
    <glyph glyph-name="A" unicode="A" horiz-adv-x="840" 
d="M909 635q-21 -78 -87 -270q-59 -171 -81 -273q-3 -7 2.5 -10.5t13.5 -2.5l19 10l19 -21q-80 -76 -214 -76q-44 0 -74 18q-37 21 -37 62q0 51 41 146q-77 -24 -120 -24q-38 0 -42 16q-4 -5 -63 -101q-36 -58 -71 -84q-48 -35 -121 -35q-91 0 -94 57q-2 46 31 70
q30 21 79 21q31 0 62 -8q18 23 41 75q9 24 19 49q-72 64 -72 138q0 152 165 234q133 67 306 66q59 0 140 -12q93 -15 133 -34zM653 655q-1 1 -26 -5q-64 0 -157 -169q-64 -118 -105 -234l5 -8q20 -5 37 -5q24 0 64 11q44 12 56 26q6 5 61 177q50 156 65 207zM502 639l15 10
q-103 0 -206 -79q-108 -85 -108 -184q0 -21 14 -53q16 -37 33 -37q4 0 25 45l26 56q92 174 201 242zM154 90q0 6 -26 8h-31q-19 2 -33.5 -8t-14.5 -27q0 -31 31 -31q10 0 20 3t32 25t22 30z" />
    <glyph glyph-name="B" unicode="B" horiz-adv-x="882" 
d="M822 528q-7 -67 -64 -105q-46 -30 -113 -37q162 -40 162 -171q0 -116 -88 -190q-44 -36 -164 -36q-94 0 -88 64q1 16 16.5 36t31.5 18l15 -21l-16 -12q-10 -9 -10 -19q1 -28 48 -28q46 0 80 101q28 82 28 143q0 49 -26.5 77.5t-74.5 28.5h-13q0 6 -58 -214
q-21 -82 -70 -124q-64 -55 -183 -55q-58 0 -102 23q-56 28 -56 82q0 45 25 78q12 15 47 42q-55 84 -55 159q0 140 146 235q134 88 290 83l76 -3q83 -2 145 -36q78 -44 71 -119zM666 643q-16 0 -32.5 -12.5t-21.5 -27.5q-22 -66 -57 -193l48 -1q60 0 89 37q19 24 40 93
q4 14 4 29q0 32 -18.5 53.5t-51.5 21.5zM412 638q-101 -19 -188 -96q-94 -84 -94 -175q0 -34 15 -79q17 -52 39 -68q24 10 51 10q6 3 51 152q48 160 58 180q12 26 68 76zM222 189q-42 3 -75 -27.5t-33 -74.5q0 -28 33 -28q21 0 40 37q2 5 23 56q14 37 12 37z" />
    <glyph glyph-name="C" unicode="C" horiz-adv-x="767" 
d="M731 520q0 -36 -24.5 -68t-60.5 -32q-21 0 -34.5 12.5t-13.5 28.5q0 23 25 39q20 2 30.5 -8.5l10.5 -10.5q3 -3 11 0t14 12q9 13 9 47q0 35 -38 65t-75 30q-65 0 -135 -105q-57 -86 -101 -217q-40 -117 -42 -179l-1 -15q-1 -5 -1 -10q0 -26 26.5 -44t58.5 -18
q88 0 190 103l18 -21q-46 -60 -133 -102.5t-164 -42.5q-96 0 -161.5 66.5t-65.5 162.5q0 180 138.5 323.5t319.5 141.5q84 0 138 -39q61 -43 61 -119z" />
    <glyph glyph-name="D" unicode="D" horiz-adv-x="945" 
d="M890 421q0 -158 -83 -286q-94 -146 -242 -146q-11 0 -29.5 -1t-27.5 -1q-61 0 -102 35q-23 -35 -201 -39h-18q-123 4 -123 77q0 37 25 58q23 17 58 17q32 0 58 -14q10 18 28 90l-16 2q-51 6 -90 54t-39 100q0 133 119 226q112 85 248 85q84 12 192 0q116 0 181 -72
q62 -69 62 -185zM661 642q-36 0 -59 -59q-22 -55 -75 -277q-43 -176 -97 -255q30 -26 92 -26q86 0 153 214q40 127 65 291q3 16 3 32q0 80 -82 80zM409 636l-31 -4q-12 -1 -46 -13q-91 -33 -146 -91q-64 -69 -64 -157q0 -52 34 -88q31 -34 81 -42q14 59 45 159
q38 117 58 150q37 61 69 86zM190 86q-14 14 -51 9q-37 -4 -37 -30q0 -13 12 -21t26 -8q20 0 35 15t15 35z" />
    <glyph glyph-name="E" unicode="E" horiz-adv-x="647" 
d="M684 572q0 -73 -79 -73q-40 0 -40 36q0 38 31 38q24 0 28 -22q13 0 16 3.5t3 17.5q0 27 -24 46.5t-52 19.5q-50 0 -89 -77q-34 -65 -34 -115q0 -48 62 -48h39l-17 -36q3 0 -66 0q-25 0 -57 -30q-28 -26 -37 -49q-73 -114 -73 -193q0 -42 53 -54q22 -5 86 -5q47 0 92 34.5
t45 80.5q0 36 -11 54q-5 8 -32 32l19 25q27 -1 50 -40q20 -34 20 -62q0 -93 -77 -135q-67 -37 -185 -31q-129 5 -206 47q-99 53 -93 155q6 93 92 150q76 51 182 56q-80 59 -80 116q0 7 1 15q20 151 278 151q65 0 108 -27q47 -29 47 -80z" />
    <glyph glyph-name="F" unicode="F" horiz-adv-x="738" 
d="M786 659q0 -8 -9.5 -14t-18.5 -11q-60 -38 -112 -222h61l-13 -42h-59q-7 -30 -18 -70q-21 -67 -42 -135q-27 -77 -66 -122q-21 -25 -62.5 -45.5t-73.5 -20.5q-45 -9 -91 -1q-31 0 -82 20q-62 25 -78 56q-1 2 20 24q35 -40 70 -40q34 0 56 35q9 15 26 65q10 28 10 33
q0 -3 -45.5 18.5t-59.5 33.5q-93 79 -93 207q0 102 88 179q80 70 237 70q36 0 104.5 -12.5t113.5 -12.5q21 0 43 2q11 1 41 12t38 11q15 0 15 -18zM530 621q-78 17 -138 17q-101 0 -173 -55q-78 -61 -78 -159q0 -80 48.5 -140.5t125.5 -78.5q7 19 46 161h-101l9 39h101
l32 93q19 51 56 80q36 22 72 43z" />
    <glyph glyph-name="G" unicode="G" horiz-adv-x="721" 
d="M730 554q0 -38 -23 -66.5t-61 -28.5q-17 0 -31.5 14t-14.5 31q0 16 13.5 26.5t29.5 10.5q22 0 35 -24q15 6 15 36q0 42 -45 66q-37 20 -84 20q-73 0 -117 -70q-21 -33 -56 -134q-87 -251 -87 -323q0 -24 18 -39t43 -15q35 0 59 19q31 24 82 211h121h82q-16 -61 -61 -180
q-50 -135 -73 -164q-40 -50 -125 -83q-78 -29 -150 -29q-107 0 -190 84l-20 16q0 6 12.5 18.5t17.5 12.5q1 0 18 -15q21 -20 42 -33q52 -33 102 -34h8q59 -2 94 51q21 30 45 106q-69 -48 -160 -48h-25q-79 0 -125 64q-40 56 -40 138q0 191 141 338.5t331 147.5q68 0 118 -27
q61 -34 61 -97z" />
    <glyph glyph-name="H" unicode="H" horiz-adv-x="977" 
d="M1081 654q0 -6 -14 -26q-12 3 -15 3q-25 0 -43 -52q-10 -37 -20 -73q-50 -169 -155 -506h-265l96 323l-137 -1q-20 -78 -66 -232q-19 -56 -67 -82q-17 -9 -58.5 -18.5t-61.5 -9.5q-78 0 -117 13q-69 22 -69 83q0 36 22 68q7 9 48 54q-64 89 -64 189q0 139 95 215
q87 70 230 70h241q-53 -39 -65 -106q-2 -9 -57 -211h138q17 61 53 182l17 56q10 33 68 62q53 27 92 27l70 1q17 0 58 -9q46 -11 46 -20zM401 644q-27 -2 -92 -17q-182 -58 -182 -257q0 -28 18 -82q21 -63 42 -63q-3 0 22 16q17 6 39 22q1 1 26 84q36 118 56 190
q10 36 30 59.5t41 47.5zM230 205q0 3 -1 6q-37 -11 -71.5 -59t-34.5 -86q0 -25 29 -25q26 0 53 70q25 61 25 94z" />
    <glyph glyph-name="I" unicode="I" horiz-adv-x="632" 
d="M730 642q-65 -69 -113 -255q-56 -215 -92 -276q-74 -129 -225 -125q-111 4 -177 86l17 25q44 -36 68 -36q35 0 60 65q14 48 29 96q-83 18 -129 80t-39 152q6 83 71 145q59 56 141 73q88 18 170 18q134 0 219 -48zM475 653q-106 5 -191 -38q-107 -56 -120 -171
q-8 -68 34 -122q44 -57 112 -59q1 0 62 198q45 143 80 172q9 5 23 20z" />
    <glyph glyph-name="J" unicode="J" horiz-adv-x="669" 
d="M761 632q-89 -85 -141 -309q-61 -260 -105 -333q-93 -156 -308 -156q-25 0 -79 17q-61 19 -77 40l17 24q53 -31 79 -31q48 0 85 54q28 40 52 114q15 52 30 105q-28 14 -57 27q-53 29 -84 67q-43 53 -43 124q0 172 131 248q107 62 288 56q128 -4 212 -47zM496 635
q1 0 -22 0q-130 0 -208 -61q-89 -69 -89 -202q0 -54 48.5 -108.5t102.5 -58.5q16 45 50 186q30 121 59 179q10 20 30 38q27 25 29 27z" />
    <glyph glyph-name="K" unicode="K" horiz-adv-x="959" 
d="M970 174q-121 -182 -219 -182q-52 0 -104 135q-32 92 -63 184q-26 -86 -52 -171q-25 -79 -69 -110q-55 -38 -172 -38q-71 0 -113.5 35.5t-42.5 95.5q0 72 67 124q-86 80 -86 182q0 101 82 174q85 77 213 77q17 0 35 -2q62 -6 231 -3l32 1q-44 -31 -117 -313q88 40 162 91
q110 76 110 130q0 29 -25.5 33t-25.5 24q0 19 15.5 31t34.5 12q27 0 43 -27q13 -23 13 -51q0 -40 -53 -100q-42 -48 -87 -78l-10 -6q61 -26 94 -119q9 -35 19 -70q16 -56 31 -61q4 -2 7 -2q10 0 19 11l10 12zM446 643l-31 2q-103 5 -180.5 -60t-77.5 -167q0 -48 42 -110
q45 -67 91 -67l7 16q14 34 29 87q13 45 25 89q16 58 31 115q23 68 64 95zM281 208q-19 0 -36 8q-7 5 -14 9q-13 1 -37 -33q-25 -37 -26 -71q-1 -22 8 -38q11 -20 32 -20q19 0 44 59q20 46 29 86z" />
    <glyph glyph-name="L" unicode="L" horiz-adv-x="682" 
d="M710 525q1 -35 -26.5 -67t-67.5 -37q-19 -2 -34 10.5t-15 31.5q0 31 39 43q32 -6 47 -31q9 11 13 18q8 15 9 32q0 36 -26.5 67t-61.5 31q-47 0 -85 -102q-25 -68 -53 -204.5t-36 -156.5l-34 -83q33 -23 77.5 -39.5t73.5 -16.5q48 0 48 40q0 21 -16 29.5t-37 5.5l-12 -2
q-2 6 -2 12q0 20 22 36q19 15 38 15q29 0 50 -21t19 -53q-3 -101 -108 -101q-47 0 -101 20q-48 18 -75 41q-89 -56 -236 -56q-42 0 -73 12q-42 17 -42 52q0 42 41 64q32 17 76 17q20 0 17 -1q7 18 57 232q35 148 87 218q71 96 201 97q223 2 226 -153zM123 89q-7 2 -16 2
q-22 0 -42 -9q-24 -11 -24 -30q0 -9 9.5 -15t18.5 -6q21 0 36 18t18 40z" />
    <glyph glyph-name="M" unicode="M" horiz-adv-x="1231" 
d="M890 520q-8 -37 -46 -167q-73 -256 -73 -258q0 -19 -1 -16q1 -5 15 -5q-4 0 21 9q16 -25 16 -27q0 -7 -73 -34t-94 -29q-30 -3 -48 -3q-92 0 -92 65q0 28 13 70q11 35 23 69q27 93 55 186q47 159 47 167q0 27 -28 27q-46 0 -68 -29q-13 -17 -29 -68q-10 -29 -82 -284
q-54 -190 -57 -193h-247q14 53 45 161q-37 8 -68 40q-44 46 -44 124q0 57 42 137q50 95 156 156q103 58 212 58q23 0 44.5 -13.5t26.5 -35.5q1 -7 2 -30q-1 0 95 32q72 25 112 25q49 0 83.5 -22.5t43.5 -64.5q38 12 108.5 34.5t100.5 22.5q56 0 91.5 -28.5t35.5 -80.5
q0 -26 -19 -88q-14 -44 -29 -89q-73 -241 -73 -249q0 -19 -1 -16q2 -5 15 -5q-4 0 22 8q16 -22 16 -24q0 -7 -68.5 -33t-88.5 -28q-31 -3 -48 -3q-92 0 -92 62q0 27 13 69q11 35 22 69q27 88 55 176q47 151 47 159q0 26 -28 26q-63 0 -81 -29zM307 562q0 -3 -3 9q-5 4 -13 4
t-45 -25q-52 -34 -91.5 -98.5t-44.5 -125.5q-4 -44 21 -78.5t65 -49.5q11 15 19 45l12 48q80 239 80 271z" />
    <glyph glyph-name="N" unicode="N" horiz-adv-x="905" 
d="M902 538q0 -26 -19 -88q-14 -45 -29 -91q-73 -256 -73 -264q0 -18 12 -18q7 0 23 6q13 -19 13 -23q0 -15 -82 -42q-77 -25 -102 -25h-45q-95 0 -95 62q0 28 13 70q11 35 23 69q27 93 55 186q47 159 47 167q0 28 -32 28q-44 0 -57 -30l-16 -68q-40 -137 -119 -411
q-5 -19 -16 -56q-2 -3 -9 -8q-35 -3 -130 -2q-82 0 -129 -7q-5 5 -4 7l48 157q-3 7 -34 27q-35 23 -52 48q-27 37 -27 90q0 55 44 140q50 94 165 155q110 59 220 59q23 0 44.5 -13.5t26.5 -35.5q0 -9 1 -18q1 -12 10 -12q3 0 32 14q33 15 38 16q78 27 128 27
q56 0 91.5 -30.5t35.5 -85.5zM297 562q0 -3 -3 9q-5 4 -13 4t-45 -25q-54 -35 -93 -97q-43 -67 -43 -127q0 -41 24 -77.5t62 -50.5q12 16 19 40q6 21 12 43q14 41 44 145q36 122 36 136z" />
    <glyph glyph-name="O" unicode="O" horiz-adv-x="855" 
d="M853 416q0 -169 -132 -296t-300 -127h-50q-88 0 -172.5 60t-108.5 143q-16 54 -16 62q0 286 234 361q23 7 70 17q14 11 43 28q50 23 127 23q50 0 70 -4q91 -17 163 -97t72 -170zM746 422q0 95 -58 161q-61 70 -155 71q-25 0 -58 -9q-39 -10 -38 -23q26 3 48 -3
q28 -8 28 -24q0 -20 -14 -20q-8 0 -22 4t-21 4q-23 0 -35 -23q-9 -16 -34.5 -99t-25.5 -97q0 -27 29.5 -64t56.5 -37q32 0 45 9q-6 37 -6 32q0 9 12 19.5t23 10.5q23 0 31 -6.5t8 -29.5q0 -32 -28.5 -53.5t-62.5 -21.5q-79 0 -126 82q-9 -20 -32 -100q-23 -83 -23 -98
q0 -39 45 -60q35 -16 80 -16q56 0 85 15q108 54 177 154q71 105 71 222z" />
    <glyph glyph-name="P" unicode="P" horiz-adv-x="787" 
d="M611 246q-72 0 -72 20q0 5 6 12t11 7q7 0 19 -4t19 -4q20 0 44.5 13.5t37.5 30.5q24 30 45 115q21 80 21 125q0 33 -27 57t-61 24q-42 0 -67 -52q-9 -20 -26 -90q-52 -204 -94 -346q-28 -93 -78 -127q-55 -37 -188 -37q-52 0 -99 39.5t-47 89.5q0 36 24 71q16 24 43 49
q23 20 23 21q-11 14 -24 31q-30 46 -30 107q0 87 70 163q115 125 401 125q116 0 192 -41q96 -51 96 -157q0 -94 -72.5 -168t-166.5 -74zM365 631q-19 0 -33 -6t-28 -13q-73 -31 -121 -83q-57 -62 -57 -133q0 -76 49 -113q40 -30 54 -29q27 99 53 197q35 118 83 180zM219 209
q0 1 -4 11q-4 1 -18.5 9t-18.5 8q-23 0 -54.5 -44.5t-31.5 -69.5q0 -22 12.5 -39.5t33.5 -17.5q31 0 51 48q30 71 30 95z" />
    <glyph glyph-name="Q" unicode="Q" horiz-adv-x="839" 
d="M472 40q-27 39 -54 79q-32 43 -76 43q-4 0 -24 -4q-23 -4 -25 -5l-1 -1l-11 -36q-1 -7 -1 -13q0 -35 45 -55q37 -17 78 -17q43 0 69 9zM303 192q18 10 45 8q43 -3 75 -26q24 -19 47 -55q19 -31 38 -63q101 57 163 154q65 101 65 212q0 95 -58 161q-61 70 -155 71
q-25 0 -58 -9q-39 -10 -38 -23q26 3 48 -3q28 -8 28 -24q0 -20 -14 -20q-8 0 -22 4t-21 4q-28 0 -35 -23q-32 -97 -108 -368zM636 -28q0 15 10.5 25.5t25.5 10.5t26 -10.5t11 -25.5q0 -34 -38 -40q-20 -3 -47 -3q-38 10 -68 31q-16 11 -51 44q-47 -11 -94 -11h-50
q-88 0 -172.5 60t-108.5 143q-15 51 -15 102q0 130 91 227q87 94 212 111q14 11 43 28q50 23 127 23q50 0 70 -4q91 -17 163 -97t72 -170q0 -133 -88 -247q-85 -110 -214 -154q12 -14 40 -33q10 -4 42 -14l13 2v2z" />
    <glyph glyph-name="R" unicode="R" horiz-adv-x="923" 
d="M904 111q-4 -29 -92 -72q-84 -39 -123 -39q-63 0 -96 85q-16 40 -37 158q-15 86 -34 86q-11 0 -33 -94q-34 -146 -73 -187q-51 -54 -195 -54q-55 0 -105 31q-57 36 -57 89q0 79 87 144q-51 63 -51 125q0 162 171 242q129 61 312 61q94 0 164 -42q84 -49 84 -135
q0 -80 -82 -137l-45 -34q63 -8 93 -57q15 -24 34 -93q15 -54 36 -66l27 11zM-124 594h-5v16h5v-16zM753 529q0 43 -29 74.5t-72 31.5q-49 0 -71 -70q-29 -85 -59 -194q17 -12 53 -12q83 0 97 25q31 7 58 61q23 48 23 84zM374 629h-10q-9 0 -52 -18q-77 -33 -125 -87
q-55 -64 -55 -140q0 -42 26 -84q30 -47 69 -47l12 7q24 96 49 193q32 109 86 176zM226 222q-3 1 -20 6.5t-21 5.5q-31 0 -59 -38.5t-28 -70.5q0 -56 43 -56t75 110q1 2 8 20q3 7 2 23z" />
    <glyph glyph-name="S" unicode="S" horiz-adv-x="538" 
d="M592 555q0 -26 -15 -48t-39 -22q-35 0 -35 33q0 34 27 34q11 0 27 -6l7 18q-7 31 -32.5 54t-55.5 23q-31 0 -58 -28.5t-27 -60.5q0 -59 42 -174t42 -176q0 -101 -75 -156q-65 -49 -164 -49q-94 0 -162 43q-73 46 -73 117q0 23 13 55q15 37 33 39l15 -16q-33 -43 -33 -83
q0 -47 36 -74q33 -25 81 -25q40 0 66 33q23 31 23 73q0 57 -36 165t-36 164q0 94 83 149q72 49 172 49q61 0 114 -35q60 -39 60 -96z" />
    <glyph glyph-name="T" unicode="T" horiz-adv-x="769" 
d="M848 673q-34 -86 -68 -104q-23 -12 -120 -12q-83 0 -155 -147q-61 -128 -61 -222q0 -144 100 -144q69 0 116 44.5t52 113.5l10 7q17 -1 17 -20q0 -99 -94 -150q-74 -39 -182 -39q-103 0 -160 40q-49 35 -100 131q-7 12 -49 38t-63 57q-32 47 -32 125q0 117 120 209
q112 86 232 86q58 0 170.5 -28t165.5 -28q49 0 93 54zM600 567q-26 22 -116 41q-78 16 -124 16q-102 0 -186 -68q-87 -73 -87 -173q0 -53 27.5 -98.5t74.5 -67.5l6 10q-6 98 89 200q90 97 189 117q86 18 95 18q8 0 12 -2z" />
    <glyph glyph-name="U" unicode="U" horiz-adv-x="884" 
d="M914 672l-171 -592q-3 -6 0 -10t12 -4l39 19q20 -6 20 -24q0 -12 -15 -15q-110 -55 -193 -55q-78 0 -101 28q-7 8 -18 60q-116 -60 -122 -62q-73 -32 -131 -32q-47 0 -75.5 25.5t-28.5 71.5q0 37 21 98q24 71 27 96q-45 18 -65 38q-34 33 -34 94q0 121 136 202
q118 71 248 71q25 0 44.5 -18t19.5 -44q0 -80 -58 -255q-61 -187 -66 -241q-2 -18 19 -18q12 0 28 5q35 12 54 55q3 6 23 73q3 9 125 434h262zM241 583q-59 -17 -97.5 -77.5t-31.5 -113.5q4 -32 29 -53.5t57 -26.5q21 77 77 246q2 7 2 12q0 15 -20 15q-7 0 -16 -2z" />
    <glyph glyph-name="V" unicode="V" horiz-adv-x="788" 
d="M837 539q0 -123 -87 -256q-83 -128 -209 -212q-133 -89 -254 -89q-47 0 -87 25q-47 28 -47 72l14 68q-48 35 -69 72q-28 48 -28 125q0 138 137 241q127 96 270 96q26 0 54 -15q32 -17 32 -42q0 -5 -1 -10l-142 -521q-2 -9 8.5 -17.5t18.5 -8.5q67 0 156 90
q79 80 139.5 191.5t60.5 177.5q0 51 -36 101q-17 -9 -36 -17q-17 -1 -27 9.5t-9 29.5q1 17 12.5 30t27.5 13q43 0 75 -57q27 -49 27 -96zM279 546q0 18 -24 18q-57 0 -109 -86q-47 -80 -47 -147q0 -48 25 -99q6 -11 21 -28q18 -20 27 -20q4 0 9 3q98 357 98 359z" />
    <glyph glyph-name="W" unicode="W" horiz-adv-x="1205" 
d="M1209 514q0 -133 -98 -260q-89 -118 -229.5 -193t-270.5 -75q-102 0 -92 103q-12 -2 -56 -30q-54 -33 -93 -49q-63 -27 -128 -27q-37 0 -65 15q-35 18 -35 51l26 98q-102 58 -102 182q0 145 143 254q132 100 282 100q29 0 52 -22t23 -50q0 -23 -11 -57q-11 -27 -21 -55
q-40 -125 -105 -349q-3 -14 7 -28.5t24 -14.5q26 1 60 32q31 28 39 52q2 6 68 243.5t64 237.5q43 4 126 1q85 -3 127 -1l-159 -573q8 -19 23 -19q69 0 159 75q85 71 145 169q63 103 60 178q-5 125 -64 125q-12 0 -26 -5q-24 -4 -29 29q0 41 41 41q50 0 85 -67
q30 -57 30 -111zM287 548q3 9 -3.5 15.5t-15.5 6.5q-60 0 -119 -90q-55 -85 -55 -157q0 -35 25 -84q29 -56 60 -53z" />
    <glyph glyph-name="X" unicode="X" horiz-adv-x="807" 
d="M859 647q-5 -35 -37 -35q-16 0 -23 15l-11 26q-53 -13 -139.5 -90t-91.5 -109q-6 -37 47 -207q55 -177 85 -177q3 0 18.5 9t18.5 10l10 -16q-4 -22 -91 -54q-79 -30 -109 -30q-76 0 -115 30q-32 24 -49 80t-33 112q-31 -23 -87.5 -91.5t-89.5 -94.5q-55 -44 -114 -44
q-24 0 -40 11q-20 12 -16 35q7 43 43 43q18 0 21 -21q2 -17 4 -35l6 -1q44 0 139 101q3 2 123 141q-15 64 -49 190l-14 8l-43 -3q-41 -3 -75 21.5t-34 63.5q0 82 98 119q68 27 164 27q61 0 95 -28q26 -22 44 -68.5t34 -91.5q172 196 275 196q19 0 29 -12t7 -30zM266 482
q-26 125 -62 125q-18 0 -36.5 -18t-20.5 -36q-6 -35 22 -57q25 -20 62 -20q21 0 35 6z" />
    <glyph glyph-name="Y" unicode="Y" horiz-adv-x="790" 
d="M873 672l-113 -377q-73 -246 -78 -259q-47 -125 -124 -182q-93 -68 -261 -68q-18 0 -75 17q-62 19 -64 30l22 22q65 -29 156 -29q127 0 200 81q57 62 94 191l19 69q-146 -181 -337 -181q-134 0 -134 93q0 34 31 116q-119 39 -119 175q0 129 129 225q119 89 254 89
q35 0 69 -18q42 -21 42 -53q0 -6 -2 -14l-134 -476q-1 -5 -1 -9q0 -24 34 -22q49 1 112 71q57 62 99 149q35 92 78 239q35 119 38 121q28 -4 37 -3q15 3 28 3zM306 553q0 25 -25 25q-51 0 -105 -76q-50 -71 -50 -124q0 -45 25 -92q30 -56 69 -52q86 286 86 319z" />
    <glyph glyph-name="Z" unicode="Z" horiz-adv-x="831" 
d="M848 671q-125 -117 -225 -259q-75 -105 -179 -293q48 -30 95 -59q65 -35 101 -35q25 0 42.5 13t17.5 36q0 40 -31 54l15 25q21 -11 35.5 -34t14.5 -46q0 -45 -40 -68q-32 -17 -81 -17t-103 28q-1 0 -93 57q-51 -55 -81 -70q-36 -18 -104 -18q-78 0 -148 22q-98 33 -98 96
q0 106 187 106l27 -6q38 48 89 147q57 110 84 150q54 79 122 118q-124 30 -166 30q-40 0 -67 -15q-34 -19 -34 -55q0 -18 15 -30.5t33 -11.5q5 -5 5.5 -6.5t5.5 -25.5q-30 -22 -35 -22l-20 3.5t-35 22.5t-15 39q0 68 56 105q50 34 121 30l199 -11q56 -4 137 4q69 8 137 15z
M170 164q-10 10 -44 10q-36 0 -70 -18q-39 -21 -39 -54q0 -17 12.5 -28t29.5 -11q66 0 111 101z" />
    <glyph glyph-name="bracketleft" unicode="[" horiz-adv-x="270" 
d="M104 -80l-10 -24h-126l234 776h127l-10 -25h-55l-221 -727h61z" />
    <glyph glyph-name="backslash" unicode="\" horiz-adv-x="422" 
d="M206 672h-40l200 -672h40z" />
    <glyph glyph-name="bracketright" unicode="]" horiz-adv-x="270" 
d="M196 648l10 24l123 -1l-234 -776h-126l10 25h54l223 728h-60z" />
    <glyph glyph-name="asciicircum" unicode="^" horiz-adv-x="468" 
d="M360 730l-19 -30l-108 43l-135 -43l1 30l154 82l2 -1l2 1v-3z" />
    <glyph glyph-name="underscore" unicode="_" horiz-adv-x="455" 
d="M-1 -68h456v-35h-456v35z" />
    <glyph glyph-name="grave" unicode="`" horiz-adv-x="612" 
d="M444 738l-187 104l-31 -68l208 -61z" />
    <glyph glyph-name="a" unicode="a" horiz-adv-x="584" 
d="M497 77q4 -8 8 -9q2 -2 7 0q7 1 11 1q13 0 13 -14q0 -21 -79 -42q-67 -19 -100 -19q-80 0 -98 50l-8 -6q-64 -44 -138 -44q-45 0 -77 27q-35 30 -35 74q0 92 83 172t176 80q52 0 74 -25q2 -1 12.5 7.5t14.5 8.5h211q8 21 -75 -261zM326 286q0 16 -17 16q-18 0 -27 -21
q-6 -14 -31.5 -100.5t-25.5 -95.5q0 -13 20 -13q17 0 24 15q3 7 30 101.5t27 97.5z" />
    <glyph glyph-name="b" unicode="b" horiz-adv-x="585" 
d="M548 236q0 -112 -134 -184q-113 -61 -235 -61q-42 0 -103 22q-75 27 -75 62q0 5 1 10l146 497q1 4 1 7q0 15 -31 9l-16 -5q-5 7 -5 12q0 8 9 13q121 53 204 53q23 0 47 -10q30 -13 30 -35q0 -4 -1 -9l-92 -301q59 28 137 28q49 0 83 -29.5t34 -78.5zM323 276q0 16 -14 16
q-18 0 -25.5 -12.5t-75.5 -241.5q0 -17 18 -17t25 21q7 18 38 121q34 107 34 113z" />
    <glyph glyph-name="c" unicode="c" horiz-adv-x="406" 
d="M389 293q0 -11 -7.5 -22t-18.5 -11q-33 0 -24 50q-6 9 -16 9q-33 0 -70 -112q-32 -99 -32 -140q0 -23 21 -23q11 0 34 11.5t34 11.5q16 0 11 -25q-17 -17 -81 -33q-57 -15 -88 -15q-62 0 -103 31q-44 34 -44 95q0 92 90 163q86 66 184 66q36 0 67 -11q43 -16 43 -45z" />
    <glyph glyph-name="d" unicode="d" horiz-adv-x="606" 
d="M655 628l-157 -553q-3 -12 11 -12q-1 0 24 4q18 2 18 -12q0 -6 -6 -11q-20 -29 -94 -42q-45 -8 -90 -8q-52 0 -100 45q-41 -29 -69.5 -37.5t-79.5 -8.5q-39 0 -75.5 31.5t-36.5 70.5q0 117 117 192q104 65 228 61q32 105 75 248q-1 12 -16 15q-14 -2 -38 -10q-8 1 -8 9
q0 11 11 16q26 19 103 38q72 19 109 19q23 0 46 -12q29 -13 29 -34q0 -5 -1 -9zM335 295q3 9 -3.5 15t-12.5 6q-21 0 -25 -16q-20 -77 -64 -217q-2 -7 3.5 -14.5t12.5 -7.5q12 0 19 10q20 32 70 224z" />
    <glyph glyph-name="e" unicode="e" horiz-adv-x="563" 
d="M538 243q0 -121 -274 -155q-8 3 -20 -4.5t-12 -16.5q0 -36 85 -36q60 0 143 43q13 3 17 -6q4 -8 0 -16q-80 -46 -152 -56q-33 -5 -139 -4q-54 1 -109 40q-60 42 -60 92q0 108 123 172q101 52 221 52q58 0 111 -24q66 -30 66 -81zM340 297q3 14 -4 17h-17q-15 0 -24 -27
q-6 -16 -27 -84q-22 -73 -22 -79q0 -13 23 -8l18 12q4 4 10 23q19 61 43 146z" />
    <glyph glyph-name="f" unicode="f" horiz-adv-x="352" 
d="M434 624q0 -18 -12 -29.5t-29 -11.5q-32 0 -32 34q0 12 5 27l-14 7q-15 0 -26 -16.5t-11 -31.5q0 -26 13.5 -83t13.5 -83q0 -29 -18 -99h42q15 3 15 -20q0 -14 -15 -13l-48 -1q-2 -6 -7 -29q-9 -50 -31 -139q-31 -123 -34 -136q-73 -182 -240 -182q-32 0 -92 12
q-9 6 -9 14q0 15 16 17l16 -5q21 0 40 30q9 14 113 423q-26 3 -38 0q-8 3 -8 13q0 17 14 17q3 0 6 -1h30q26 69 51 139q35 91 75 137q55 62 134 62q27 0 51 -12q29 -15 29 -40z" />
    <glyph glyph-name="g" unicode="g" horiz-adv-x="573" 
d="M576 338l-111 -383q-38 -129 -279 -139q-49 -3 -145 27q-7 4 -7 11t7 12.5t16 2.5q52 -17 76 -17q62 0 88 57q18 55 35 109q-43 -19 -67.5 -23.5t-74.5 -4.5q-44 0 -78 40q-32 37 -32 80q0 89 78.5 164.5t167.5 75.5q68 0 92 -36q11 20 11 24q0 -2 223 0zM330 274
q0 26 -20 26q-24 0 -28 -24q-1 -6 -29 -103q-28 -93 -28 -100q0 -20 20 -20q6 0 15.5 6.5t11.5 11.5q5 9 31.5 102.5t26.5 100.5z" />
    <glyph glyph-name="h" unicode="h" horiz-adv-x="628" 
d="M547 86q-4 -17 25 -17q18 0 18 -13q0 -18 -80 -41q-72 -21 -100 -21q-39 0 -70 10q-43 14 -43 44q0 -3 59 212q4 17 -20 17q-20 0 -35 -44q-23 -69 -68 -233h-237q52 166 89 287q90 291 91 311q3 14 -12 14q-5 0 -14 -2t-11 -2q-9 7 -9 13q0 7 11 9q29 17 95.5 33
t101.5 16q83 0 83 -39q0 -4 -1 -9q-96 -317 -94 -324l13 9q85 34 180 34q86 0 86 -49q0 -2 -58 -215z" />
    <glyph glyph-name="i" unicode="i" horiz-adv-x="333" 
d="M369 532q0 -64 -92 -89q-34 -9 -74 -9q-65 0 -65 58q0 41 59 68q50 23 94 21q30 -1 52 -14q26 -14 26 -35zM294 295q0 -19 -21 -83q-27 -81 -32 -100q-6 -25 -6 -32q0 -14 12 -14q8 0 21 6q8 2 11 -9q2 -10 -2 -13q-21 -22 -89.5 -40.5t-121.5 -15.5q-20 1 -40 16
q-24 17 -24 40q0 5 1 11q29 90 65 205q2 8 -6 11q-6 1 -17 0q-15 -1 -13 -1q-6 0 -6 9q0 22 86 43q80 20 130 17q52 -3 52 -50z" />
    <glyph glyph-name="j" unicode="j" horiz-adv-x="335" 
d="M386 532q0 -42 -60 -69q-49 -23 -97 -23q-27 0 -51 13q-29 15 -29 40q0 47 59 72q46 20 100 20q29 0 51 -12q27 -14 27 -41zM328 298q0 -5 -44 -131q-47 -137 -49 -144q-14 -45 -29 -73q-28 -51 -121 -89q-83 -35 -151 -35h-17q-8 4 -8 11q0 10 10 8q11 5 31 15
q22 15 77 186q50 154 61 211q1 9 -1.5 13t-11.5 3l-22 -7q-8 0 -8 11q0 13 10 17q39 23 101 38q58 13 108 13q23 0 43.5 -12.5t20.5 -34.5z" />
    <glyph glyph-name="k" unicode="k" horiz-adv-x="601" 
d="M583 58q-85 -67 -163 -67q-38 0 -62 42q-14 23 -34 87q-19 58 -33 75l-8 -1q-16 -56 -56 -194h-227q165 546 165 588q0 19 -28 11q-11 0 -12 10q-1 8 3 14q7 16 92 36q77 19 106 19q31 0 54 -12.5t23 -37.5q0 -6 -1 -12q-16 -68 -55 -193q-40 -131 -55 -193q50 18 101 35
q64 26 103 66l-8 16q-2 5 -2 10q0 20 36 29q8 0 18 -10.5t10 -19.5q0 -21 -35 -48q-26 -18 -52 -37q23 -58 47 -116q35 -84 61 -75q8 8 14 6t6 -10q0 -10 -8 -18z" />
    <glyph glyph-name="l" unicode="l" horiz-adv-x="364" 
d="M269 69q-1 -11 10 -11q-7 0 34 7q8 2 8 -8q0 -13 -7 -15q-28 -21 -100 -36q-61 -12 -105 -12q-24 0 -46 9q-27 12 -27 34q0 5 2 10q43 142 87 283q76 249 76 260q0 10 -14 10q-1 0 -27 -4q-9 -1 -9 11q0 9 8 14q23 16 110 36q82 19 116 19q20 0 36.5 -10t16.5 -29
q0 -13 -79 -272z" />
    <glyph glyph-name="m" unicode="m" horiz-adv-x="888" 
d="M858 271q-13 -56 -37 -166q-6 -33 -6 -30q0 -15 22 -3q4 2 9 -1.5t5 -9.5q0 -2 -1 -5q-70 -65 -182 -65q-32 0 -60 11q-38 14 -38 41l58 213q-7 14 -16 15q-19 2 -25 -18l-77 -253h-230l69 253q-1 6 -2 10.5t-13 5.5q-18 3 -29 -16q-14 -43 -36 -126q-25 -94 -35 -127
h-234q-5 -18 81 257q6 19 -5 19q-4 0 -9 -3l-10 -5q-16 9 -6 15q12 22 84 43q64 18 99 18q47 0 59 -6q20 -9 20 -47q42 21 106 37t109 16q34 0 46 -12t14 -42q125 54 212 54q60 0 60 -58q0 -8 -2 -15z" />
    <glyph glyph-name="n" unicode="n" horiz-adv-x="607" 
d="M578 285l-58 -212q-3 -11 9 -12q7 0 17 2q6 3 11 -4t5 -15q0 -7 -4 -8q-24 -20 -82 -33q-50 -12 -88 -12q-102 0 -102 47q0 11 5 23l54 188q3 14 -12 17q-24 -1 -32 -19q-27 -70 -74 -247h-227q-3 -17 79 255q4 4 1 9t-11 3l-22 -7q-13 1 -13 15q0 8 7 11
q20 16 81.5 37.5t85.5 21.5q98 0 106 -51q73 46 188 46q25 0 48 -10q29 -13 29 -35q0 -5 -1 -10z" />
    <glyph glyph-name="o" unicode="o" horiz-adv-x="560" 
d="M516 182q0 -107 -108 -155q-78 -35 -198 -35q-69 0 -132 45q-69 50 -69 116q0 100 102 151q80 40 190 40q82 0 143 -38q72 -45 72 -124zM319 295q0 20 -18 20q-20 0 -28 -23q-33 -96 -75 -249q-6 -21 23 -21q22 0 27 20q19 64 37 128q34 115 34 125z" />
    <glyph glyph-name="p" unicode="p" horiz-adv-x="609" 
d="M568 233q0 -101 -88 -174q-82 -67 -178 -67q-57 0 -77 10q-17 -50 -47 -166h-231l128 431q-8 15 -32 6q-8 -1 -10 6q-2 6 1 15q19 20 98 36q69 15 109 15q74 0 72 -40q55 40 136 40q52 0 85.5 -30.5t33.5 -81.5zM345 261q9 24 -17 24q-21 0 -29 -21q-35 -102 -68 -223
q-6 -21 23 -21q22 0 27 20q4 17 32 114t32 107z" />
    <glyph glyph-name="q" unicode="q" horiz-adv-x="587" 
d="M555 260q-2 -39 -112 -424h-235q1 3 53 178q-53 -24 -134 -24q-46 0 -82.5 34.5t-36.5 79.5q0 114 129 184q107 58 231 58q63 0 114 -15q75 -23 73 -71zM334 294q3 15 -0.5 17.5t-17.5 2.5q-20 0 -28 -23q-5 -13 -37.5 -121.5t-32.5 -113.5q-3 -16 6 -18q-3 1 18 1t27 22
q31 109 65 233z" />
    <glyph glyph-name="r" unicode="r" horiz-adv-x="451" 
d="M445 299q0 -31 -28 -75t-57 -44q-19 0 -30 22q-9 19 -8 39q-45 -12 -58 -68q-23 -66 -57 -173h-207l80 261q4 12 -10 12q-9 0 -22 -4q-5 -1 -9 5.5t-3 12.5q4 20 101 40q83 17 121 17q34 0 34 -43q0 -16 -5 -38q63 86 124 86q14 0 24 -17t10 -33z" />
    <glyph glyph-name="s" unicode="s" horiz-adv-x="370" 
d="M373 270q0 -9 -9 -16.5t-18 -7.5q-23 0 -23 23q0 13 11 24q-9 21 -29 21q-29 0 -29 -27q0 -28 22 -87.5t22 -92.5q0 -60 -49 -91q-41 -24 -105 -24q-39 0 -85 16q-59 21 -84 60q-4 1 -4 8q0 14 11 14q3 0 6 -2q19 -15 38 -29q23 -16 44 -16q25 0 25 27q0 22 -22.5 83
t-22.5 93q0 44 42 74t95 29q164 -2 164 -79z" />
    <glyph glyph-name="t" unicode="t" horiz-adv-x="384" 
d="M377 313h-40q-73 -226 -73 -247q0 -10 13 -10q6 0 32 7q14 -1 14 -11q0 -5 -6 -7q0 -14 -68 -35t-113 -21q-106 0 -100 74q3 35 40 151q28 86 31 96q-40 1 -48 0q-7 0 -7 9q0 19 16 19h45q9 22 23 67q4 6 4 11q0 14 -13 10l-23 -11q-15 -1 -15 12q0 6 6 11q16 17 83 33
q59 15 92 15q37 0 64 -16q33 -19 33 -54q0 -7 -22 -78h39q8 0 8 -10q0 -18 -15 -15z" />
    <glyph glyph-name="u" unicode="u" horiz-adv-x="612" 
d="M594 338l-86 -271q-1 -16 7 -16q3 0 12.5 3.5t13.5 3.5q14 0 14 -13q-1 -29 -85 -43q-68 -11 -110 -7q-44 4 -88 50q-72 -53 -177 -53q-29 0 -57 16q-31 18 -31 45q0 6 2 13q25 86 56 186q5 11 5 18q0 12 -14 14l-28 -11q-14 -3 -14 10q0 7 7 13q34 24 99 39
q57 14 106 14q24 0 46 -11q28 -13 28 -35q0 -5 -2 -11q-27 -93 -58 -199q-1 -3 -1 -7q0 -15 14 -14q25 0 33 24l72 242h236z" />
    <glyph glyph-name="v" unicode="v" horiz-adv-x="488" 
d="M467 299q0 -106 -122 -208.5t-233 -98.5q-74 2 -74 62q0 12 28 96q-66 10 -66 64q0 72 99 107q70 25 158 25q26 0 50 -11q30 -14 25 -36q-14 -60 -48 -174q-6 -13 -3 -22q3 -10 12 -10q34 0 86.5 76t52.5 115q0 2 -13 13t-13 24q0 26 28 26q33 0 33 -48zM99 265
q-6 4 -11 11q0 1 -11 2q-18 2 -35 -19t-17 -39q0 -15 14 -29t33 -13q5 0 27 87z" />
    <glyph glyph-name="w" unicode="w" horiz-adv-x="836" 
d="M829 301q0 -107 -136 -211q-130 -99 -240 -99q-26 0 -47 13q-24 15 -24 39q0 33 36 119q-57 -65 -130 -113q-89 -59 -158 -59q-40 0 -58 8q-28 11 -28 45q0 6 25 96q-59 25 -58 81q1 62 79 97q65 30 145 28q108 -3 108 -59q0 2 -45 -152q-4 -5 -4 -10q0 -11 16 -13
q43 6 103 108q33 59 66 117h218q-24 -70 -69 -209q-3 -7 -3 -13q0 -13 15 -13q34 0 90 66.5t61 110.5q-10 1 -21.5 14.5t-11.5 26.5q0 30 34 30q13 0 25 -17t12 -31zM106 269q0 12 -17 12q-20 0 -34 -19.5t-14 -41.5q0 -15 10.5 -28.5t25.5 -13.5q2 0 15.5 40.5t13.5 50.5z
" />
    <glyph glyph-name="x" unicode="x" horiz-adv-x="518" 
d="M558 313q0 -26 -28 -26h-12q-8 1 -12 1q-12 0 -18 -3q-14 -7 -66 -51q-58 -48 -58 -59q0 -1 17 -95q4 -19 20 -19q13 0 55 25q13 -2 13 -16q-12 -30 -77.5 -54.5t-113.5 -22.5q-40 2 -58 7q-32 9 -40 34q-3 11 -17 76q-23 -34 -61 -68q-52 -47 -87 -47q-25 0 -25 21
q0 8 10 8q58 0 159 121q-4 18 -11 52q-27 0 -54 16q-32 19 -32 50q0 81 156 81q68 0 98 -31q28 -27 42 -100q17 27 69 74q64 57 101 57q30 0 30 -31zM145 228l-8 38q-4 19 -22 19q-21 0 -21 -20q0 -29 51 -37z" />
    <glyph glyph-name="y" unicode="y" horiz-adv-x="526" 
d="M409 32q-39 -101 -96 -146q-73 -59 -204 -59q-7 0 -82 11q-9 2 -9 10q0 6 4 10.5t8 2.5q56 -7 58 -7q180 0 228 191q-110 -53 -203 -53q-30 0 -51.5 22t-21.5 54q0 31 25.5 92t25.5 88q0 13 -12 13q1 0 -33 -9q-8 0 -8 11q0 13 14 19q118 67 196 67q23 0 46 -9
q29 -12 29 -33q0 -4 -1 -8l-59 -211q-2 -5 -2 -9q0 -13 23 -13q34 0 65 61q20 74 60 211h90q-33 -121 -90 -306z" />
    <glyph glyph-name="z" unicode="z" horiz-adv-x="539" 
d="M570 332q0 -8 -19 -21q-53 -37 -133 -129q-5 -5 -121 -144q45 -15 79 -15q31 0 93 38q13 5 13 -20q0 -17 -46 -33q-41 -15 -63 -15q-48 0 -123 7l-122 12q-19 1 -114 -16q-19 -3 -19 11q0 6 7 13q54 31 136 127q105 125 127 145q-13 20 -90 20q-10 0 -24 -15q9 -6 9 -32
q0 -16 -10.5 -27.5t-21.5 -11.5q-12 0 -22.5 11.5t-12.5 31.5q-2 38 47 60q39 17 81 15q15 0 87 -7q64 -6 113 -6q30 0 59 2q14 0 41 8t39 8q10 0 10 -17z" />
    <glyph glyph-name="braceleft" unicode="{" horiz-adv-x="365" 
d="M78 342q42 3 65 41q18 32 18 77v167q0 122 137 149v-53q-84 -16 -84 -96v-167q0 -62 -62 -125q62 -64 62 -125v-167q0 -81 84 -96v-53q-137 26 -137 149v167q0 45 -18 77q-23 38 -65 41v14z" />
    <glyph glyph-name="bar" unicode="|" horiz-adv-x="316" 
d="M123 -111v885h49v-885h-49z" />
    <glyph glyph-name="braceright" unicode="}" horiz-adv-x="365" 
d="M298 342q-42 3 -65 41q-19 32 -19 77v167q0 122 -136 149v-53q83 -16 83 -96v-167q0 -62 63 -125q-63 -64 -63 -125v-167q0 -81 -83 -96v-53q136 26 136 149v167q0 45 19 77q23 38 65 41v14z" />
    <glyph glyph-name="asciitilde" unicode="~" horiz-adv-x="847" 
d="M710 721q-35 0 -64.5 22.5t-46.5 22.5q-33 0 -47 -5q-21 -8 -25 -33l-50 -8q8 47 44 73.5t80 24.5q29 -1 49 -12.5t39 -23.5q13 -7 24 -7q70 0 83 42h51q-8 -47 -48 -72q-36 -24 -89 -24z" />
    <glyph glyph-name="Adieresis" unicode="&#xc4;" horiz-adv-x="847" 
d="M909 635q-21 -78 -87 -270q-59 -171 -81 -273q-3 -7 2.5 -10.5t13.5 -2.5l19 10l19 -21q-80 -76 -214 -76q-44 0 -74 18q-37 21 -37 62q0 51 41 146q-77 -24 -120 -24q-38 0 -42 16q-4 -5 -63 -101q-36 -58 -71 -84q-48 -35 -121 -35q-91 0 -94 57q-2 46 31 70
q30 21 79 21q31 0 62 -8q18 23 41 75q9 24 19 49q-72 64 -72 138q0 152 165 234q133 67 306 66q59 0 140 -12q93 -15 133 -34zM653 655q-1 1 -26 -5q-64 0 -157 -169q-64 -118 -105 -234l5 -8q20 -5 37 -5q24 0 64 11q44 12 56 26q6 5 61 177q50 156 65 207zM502 639l15 10
q-103 0 -206 -79q-108 -85 -108 -184q0 -21 14 -53q16 -37 33 -37q4 0 25 45l26 56q92 174 201 242zM154 90q0 6 -26 8h-31q-19 2 -33.5 -8t-14.5 -27q0 -31 31 -31q10 0 20 3t32 25t22 30zM732 768q0 19 14 32t34 13t34 -13t14 -32q0 -18 -14 -31.5t-34 -13.5t-34 13.5
t-14 31.5zM562 768q0 19 14 32t34 13t34 -13t14 -32q0 -18 -14 -31.5t-34 -13.5t-34 13.5t-14 31.5z" />
    <glyph glyph-name="Aring" unicode="&#xc5;" horiz-adv-x="847" 
d="M909 635q-21 -78 -87 -270q-59 -171 -81 -273q-3 -7 2.5 -10.5t13.5 -2.5l19 10l19 -21q-80 -76 -214 -76q-44 0 -74 18q-37 21 -37 62q0 51 41 146q-77 -24 -120 -24q-38 0 -42 16q-4 -5 -63 -101q-36 -58 -71 -84q-48 -35 -121 -35q-91 0 -94 57q-2 46 31 70
q30 21 79 21q31 0 62 -8q18 23 41 75q9 24 19 49q-72 64 -72 138q0 152 165 234q133 67 306 66q59 0 140 -12q93 -15 133 -34zM653 655q-1 1 -26 -5q-64 0 -157 -169q-64 -118 -105 -234l5 -8q20 -5 37 -5q24 0 64 11q44 12 56 26q6 5 61 177q50 156 65 207zM502 639l15 10
q-103 0 -206 -79q-108 -85 -108 -184q0 -21 14 -53q16 -37 33 -37q4 0 25 45l26 56q92 174 201 242zM154 90q0 6 -26 8h-31q-19 2 -33.5 -8t-14.5 -27q0 -31 31 -31q10 0 20 3t32 25t22 30zM704 854q25 0 41.5 -16t16.5 -39q0 -31 -25 -54.5t-56 -23.5q-25 0 -41.5 15.5
t-16.5 39.5q0 31 25 54.5t56 23.5zM699 824q-16 0 -29 -11t-16 -26q-2 -14 7 -25t25 -11q17 0 30 11t15 25q3 15 -6.5 26t-25.5 11z" />
    <glyph glyph-name="Ccedilla" unicode="&#xc7;" horiz-adv-x="649" 
d="M710 520q0 -36 -23 -67q-26 -33 -62 -33q-21 0 -34 12.5t-13 28.5q0 23 24 39q21 2 31 -8.5l10 -10.5q3 -3 11 0q9 3 14 12q9 13 9 47q0 35 -38 65t-74 30q-66 0 -135 -105q-57 -86 -102 -217q-40 -117 -42 -179v-15q-2 -5 -2 -10q0 -26 27 -44t59 -18q88 0 190 103
l17 -21q-45 -60 -132.5 -102.5t-164.5 -42.5q-5 0 -11 1l-14 -39q13 1 24 1q81 0 81 -56q0 -11 -4 -24q-15 -25 -52 -41.5t-75 -16.5q-45 0 -69 24l25 25q14 -15 41 -15q37 0 60 33q1 6 1 11q0 26 -39 26q-8 0 -23 -1.5t-20 -1.5l29 79q-79 16 -129.5 78.5t-50.5 145.5
q0 180 138.5 323.5t319.5 141.5q83 0 138 -39q60 -43 60 -119z" />
    <glyph glyph-name="Eacute" unicode="&#xc9;" horiz-adv-x="627" 
d="M638 572q0 -73 -80 -73q-40 0 -40 36q0 38 31 38q24 0 28 -22q14 0 16.5 3.5t2.5 17.5q0 27 -23.5 46.5t-51.5 19.5q-50 0 -90 -77q-33 -65 -33 -115q0 -48 61 -48h40l-17 -36q2 0 -66 0q-26 0 -58 -30q-27 -26 -36 -49q-74 -114 -74 -193q0 -42 53 -54q23 -5 86 -5
q48 0 91 33q47 36 47 82q0 36 -12 54q-4 8 -32 32l19 25q27 -1 50 -40q21 -34 21 -62q0 -172 -255 -166q-316 7 -306 184q6 94 91 159q80 60 182 65q-80 59 -80 116q0 7 1 15q21 151 278 151q66 0 109 -27q47 -29 47 -80zM374 725l203 104l-25 -79l-188 -56z" />
    <glyph glyph-name="Ntilde" unicode="&#xd1;" horiz-adv-x="874" 
d="M892 538q0 -26 -19 -88q-14 -45 -29 -91q-73 -256 -73 -264q0 -18 12 -18q7 0 23 6q13 -19 13 -23q0 -15 -82 -42q-77 -25 -102 -25h-45q-95 0 -95 62q0 28 13 70q11 35 23 69q27 93 55 186q47 159 47 167q0 28 -32 28q-44 0 -57 -30l-16 -68q-40 -137 -119 -411
q-5 -19 -16 -56q-2 -3 -9 -8q-35 -3 -130 -2q-82 0 -129 -7q-5 5 -4 7l48 157q-3 7 -34 27q-35 23 -52 48q-27 37 -27 90q0 55 44 140q50 94 165 155q110 59 220 59q23 0 44.5 -13.5t26.5 -35.5q0 -9 1 -18q1 -12 10 -12q3 0 32 14q33 15 38 16q78 27 128 27
q56 0 91.5 -30.5t35.5 -85.5zM287 562q0 -3 -3 9q-5 4 -13 4t-45 -25q-54 -35 -93 -97q-43 -67 -43 -127q0 -41 24 -77.5t62 -50.5q12 16 19 40q6 21 12 43q14 41 44 145q36 122 36 136zM641 721q-35 0 -59 22.5t-42 22.5q-33 0 -47 -5q-23 -8 -33 -33l-71 -4q77 98 167 94
q27 -1 44 -11q18 -13 35 -25q11 -7 22 -7q70 0 93 42h51q-19 -47 -65 -72q-42 -24 -95 -24z" />
    <glyph glyph-name="Odieresis" unicode="&#xd6;" horiz-adv-x="836" 
d="M843 416q0 -169 -132 -296t-300 -127h-50q-88 0 -172.5 60t-108.5 143q-16 54 -16 62q0 286 234 361q23 7 70 17q14 11 43 28q50 23 127 23q50 0 70 -4q91 -17 163 -97t72 -170zM736 422q0 95 -58 161q-61 70 -155 71q-25 0 -58 -9q-39 -10 -38 -23q26 3 48 -3
q28 -8 28 -24q0 -20 -14 -20q-8 0 -22 4t-21 4q-23 0 -35 -23q-9 -16 -34.5 -99t-25.5 -97q0 -27 29.5 -64t56.5 -37q32 0 45 9q-6 37 -6 32q0 9 12 19.5t23 10.5q23 0 31 -6.5t8 -29.5q0 -32 -28.5 -53.5t-62.5 -21.5q-79 0 -126 82q-9 -20 -32 -100q-23 -83 -23 -98
q0 -39 45 -60q35 -16 80 -16q56 0 85 15q108 54 177 154q71 105 71 222zM592 768q0 19 14 32t34 13t34 -13t14 -32q0 -18 -14 -31.5t-34 -13.5t-34 13.5t-14 31.5zM422 768q0 19 14 32t34 13t34 -13t14 -32q0 -18 -14 -31.5t-34 -13.5t-34 13.5t-14 31.5z" />
    <glyph glyph-name="Udieresis" unicode="&#xdc;" horiz-adv-x="905" 
d="M917 672l-171 -592l13 -16l30 11l13 -29q-110 -55 -193 -55q-112 0 -122 86l-4 5l-118 -64q-71 -33 -128 -33q-47 0 -75.5 25.5t-28.5 71.5q0 37 20 98q25 71 28 96q-45 18 -65 38q-34 33 -34 94q0 121 136 202q118 71 248 71q26 0 47 -18.5t17 -43.5q-11 -64 -67 -254
q-51 -173 -57 -242q-2 -18 19 -18q12 0 28 5q53 18 77 128q29 137 125 434h262zM261 560q1 5 -4 13h-20q-9 0 -38 -25q-25 -20 -37 -33q-46 -52 -46 -110q0 -34 20 -61q23 -30 56 -30zM622 768q0 19 14 32t34 13t34 -13t14 -32q0 -18 -14 -31.5t-34 -13.5t-34 13.5t-14 31.5
zM452 768q0 19 14 32t34 13t34 -13t14 -32q0 -18 -14 -31.5t-34 -13.5t-34 13.5t-14 31.5z" />
    <glyph glyph-name="aacute" unicode="&#xe1;" horiz-adv-x="612" 
d="M511 77q4 -8 8 -9q2 -2 8 0q7 1 10 1q13 0 13 -14q0 -21 -78 -42q-68 -19 -101 -19q-80 0 -98 50l-8 -6q-64 -44 -138 -44q-45 0 -77 27q-35 30 -35 74q0 92 83 172t176 80q52 0 74 -25q2 -1 12.5 7.5t14.5 8.5h211q8 21 -75 -261zM340 286q0 16 -17 16q-18 0 -27 -21
q-6 -14 -31.5 -100.5t-25.5 -95.5q0 -13 20 -13q18 0 24 15q3 7 30 101.5t27 97.5zM273 413l203 104l-25 -79l-188 -56z" />
    <glyph glyph-name="agrave" unicode="&#xe0;" horiz-adv-x="612" 
d="M511 77q4 -8 8 -9q2 -2 8 0q7 1 10 1q13 0 13 -14q0 -21 -78 -42q-68 -19 -101 -19q-80 0 -98 50l-8 -6q-64 -44 -138 -44q-45 0 -77 27q-35 30 -35 74q0 92 83 172t176 80q52 0 74 -25q2 -1 12.5 7.5t14.5 8.5h211q8 21 -75 -261zM340 286q0 16 -17 16q-18 0 -27 -21
q-6 -14 -31.5 -100.5t-25.5 -95.5q0 -13 20 -13q18 0 24 15q3 7 30 101.5t27 97.5zM464 408l-187 104l-31 -68l208 -61z" />
    <glyph glyph-name="acircumflex" unicode="&#xe2;" horiz-adv-x="612" 
d="M511 77q4 -8 8 -9q2 -2 8 0q7 1 10 1q13 0 13 -14q0 -21 -78 -42q-68 -19 -101 -19q-80 0 -98 50l-8 -6q-64 -44 -138 -44q-45 0 -77 27q-35 30 -35 74q0 92 83 172t176 80q52 0 74 -25q2 -1 12.5 7.5t14.5 8.5h211q8 21 -75 -261zM340 286q0 16 -17 16q-18 0 -27 -21
q-6 -14 -31.5 -100.5t-25.5 -95.5q0 -13 20 -13q18 0 24 15q3 7 30 101.5t27 97.5zM498 410l-19 -30l-108 43l-135 -43l1 30l154 81l2 -1l2 1v-2z" />
    <glyph glyph-name="adieresis" unicode="&#xe4;" horiz-adv-x="612" 
d="M511 77q4 -8 8 -9q2 -2 8 0q7 1 10 1q13 0 13 -14q0 -21 -78 -42q-68 -19 -101 -19q-80 0 -98 50l-8 -6q-64 -44 -138 -44q-45 0 -77 27q-35 30 -35 74q0 92 83 172t176 80q52 0 74 -25q2 -1 12.5 7.5t14.5 8.5h211q8 21 -75 -261zM340 286q0 16 -17 16q-18 0 -27 -21
q-6 -14 -31.5 -100.5t-25.5 -95.5q0 -13 20 -13q18 0 24 15q3 7 30 101.5t27 97.5zM418 437q0 19 14.5 32t34.5 13t34 -13t14 -32q0 -18 -14 -31.5t-34 -13.5t-34.5 13.5t-14.5 31.5zM248 437q0 19 14.5 32t34.5 13t34 -13t14 -32q0 -18 -14 -31.5t-34 -13.5t-34.5 13.5
t-14.5 31.5z" />
    <glyph glyph-name="atilde" unicode="&#xe3;" horiz-adv-x="612" 
d="M511 77q4 -8 8 -9q2 -2 8 0q7 1 10 1q13 0 13 -14q0 -21 -78 -42q-68 -19 -101 -19q-80 0 -98 50l-8 -6q-64 -44 -138 -44q-45 0 -77 27q-35 30 -35 74q0 92 83 172t176 80q52 0 74 -25q2 -1 12.5 7.5t14.5 8.5h211q8 21 -75 -261zM340 286q0 16 -17 16q-18 0 -27 -21
q-6 -14 -31.5 -100.5t-25.5 -95.5q0 -13 20 -13q18 0 24 15q3 7 30 101.5t27 97.5zM411 391q-35 0 -59 22.5t-42 22.5q-33 0 -47 -5q-23 -8 -33 -33l-71 -4q77 98 167 94q27 -1 44 -11q18 -13 35 -25q11 -7 22 -7q70 0 93 42h51q-19 -47 -65 -72q-42 -24 -95 -24z" />
    <glyph glyph-name="aring" unicode="&#xe5;" horiz-adv-x="612" 
d="M511 77q4 -8 8 -9q2 -2 8 0q7 1 10 1q13 0 13 -14q0 -21 -78 -42q-68 -19 -101 -19q-80 0 -98 50l-8 -6q-64 -44 -138 -44q-45 0 -77 27q-35 30 -35 74q0 92 83 172t176 80q52 0 74 -25q2 -1 12.5 7.5t14.5 8.5h211q8 21 -75 -261zM340 286q0 16 -17 16q-18 0 -27 -21
q-6 -14 -31.5 -100.5t-25.5 -95.5q0 -13 20 -13q18 0 24 15q3 7 30 101.5t27 97.5zM394 514q25 0 41.5 -16t16.5 -39q0 -31 -25 -54.5t-56 -23.5q-25 0 -41.5 15.5t-16.5 39.5q0 31 25 54.5t56 23.5zM389 484q-16 0 -29 -11t-16 -26q-2 -14 7 -25t25 -11q17 0 30 11t15 25
q3 15 -6.5 26t-25.5 11z" />
    <glyph glyph-name="ccedilla" unicode="&#xe7;" horiz-adv-x="406" 
d="M149 -6l-12 -32q10 1 20 1q69 0 69 -48q0 -9 -3 -20q-14 -21 -42 -36t-57 -15q-33 0 -52 20l21 21q11 -12 26 -12q24 0 44 30q1 5 1 9q0 22 -33 22q-7 0 -20 -1t-16 -1l23 65q-50 8 -80 38q-33 33 -33 85q0 92 90 163q86 66 184 66q36 0 67 -11q43 -16 43 -45
q0 -11 -7.5 -22t-18.5 -11q-33 0 -24 50q-6 9 -16 9q-33 0 -70 -112q-32 -99 -32 -140q0 -23 21 -23q11 0 34 11.5t34 11.5q16 0 11 -25q-17 -17 -81 -33q-57 -15 -88 -15h-3z" />
    <glyph glyph-name="eacute" unicode="&#xe9;" horiz-adv-x="563" 
d="M538 243q0 -121 -274 -155q-8 3 -20 -4.5t-12 -16.5q0 -36 85 -36q60 0 143 43q13 3 17 -6q4 -8 0 -16q-80 -46 -152 -56q-33 -5 -139 -4q-54 1 -109 40q-60 42 -60 92q0 108 123 172q101 52 221 52q58 0 111 -24q66 -30 66 -81zM340 297q3 14 -4 17h-17q-15 0 -24 -27
q-6 -16 -27 -84q-22 -73 -22 -79q0 -13 23 -8l18 12q4 4 10 23q19 61 43 146zM253 413l203 104l-25 -79l-188 -56z" />
    <glyph glyph-name="egrave" unicode="&#xe8;" horiz-adv-x="563" 
d="M538 243q0 -121 -274 -155q-8 3 -20 -4.5t-12 -16.5q0 -36 85 -36q60 0 143 43q13 3 17 -6q4 -8 0 -16q-80 -46 -152 -56q-33 -5 -139 -4q-54 1 -109 40q-60 42 -60 92q0 108 123 172q101 52 221 52q58 0 111 -24q66 -30 66 -81zM340 297q3 14 -4 17h-17q-15 0 -24 -27
q-6 -16 -27 -84q-22 -73 -22 -79q0 -13 23 -8l18 12q4 4 10 23q19 61 43 146zM454 408l-187 104l-31 -68l208 -61z" />
    <glyph glyph-name="ecircumflex" unicode="&#xea;" horiz-adv-x="563" 
d="M538 243q0 -121 -274 -155q-8 3 -20 -4.5t-12 -16.5q0 -36 85 -36q60 0 143 43q13 3 17 -6q4 -8 0 -16q-80 -46 -152 -56q-33 -5 -139 -4q-54 1 -109 40q-60 42 -60 92q0 108 123 172q101 52 221 52q58 0 111 -24q66 -30 66 -81zM340 297q3 14 -4 17h-17q-15 0 -24 -27
q-6 -16 -27 -84q-22 -73 -22 -79q0 -13 23 -8l18 12q4 4 10 23q19 61 43 146zM498 410l-19 -30l-108 43l-135 -43l1 30l154 81l2 -1l2 1v-2z" />
    <glyph glyph-name="edieresis" unicode="&#xeb;" horiz-adv-x="563" 
d="M538 243q0 -121 -274 -155q-8 3 -20 -4.5t-12 -16.5q0 -36 85 -36q60 0 143 43q13 3 17 -6q4 -8 0 -16q-80 -46 -152 -56q-33 -5 -139 -4q-54 1 -109 40q-60 42 -60 92q0 108 123 172q101 52 221 52q58 0 111 -24q66 -30 66 -81zM340 297q3 14 -4 17h-17q-15 0 -24 -27
q-6 -16 -27 -84q-22 -73 -22 -79q0 -13 23 -8l18 12q4 4 10 23q19 61 43 146zM418 437q0 19 14.5 32t34.5 13t34 -13t14 -32q0 -18 -14 -31.5t-34 -13.5t-34.5 13.5t-14.5 31.5zM248 437q0 19 14.5 32t34.5 13t34 -13t14 -32q0 -18 -14 -31.5t-34 -13.5t-34.5 13.5
t-14.5 31.5z" />
    <glyph glyph-name="iacute" unicode="&#xed;" horiz-adv-x="333" 
d="M294 295q0 -19 -21 -83q-27 -81 -32 -100q-6 -25 -6 -32q0 -14 12 -14q8 0 21 6q8 2 11 -9q2 -10 -2 -13q-21 -22 -89.5 -40.5t-121.5 -15.5q-20 1 -40 16q-24 17 -24 40q0 5 1 11q29 90 65 205q2 8 -6 11q-6 1 -17 0q-15 -1 -13 -1q-6 0 -6 9q0 22 86 43q80 20 130 17
q52 -3 52 -50zM103 413l203 104l-25 -79l-188 -56z" />
    <glyph glyph-name="igrave" unicode="&#xec;" horiz-adv-x="333" 
d="M294 295q0 -19 -21 -83q-27 -81 -32 -100q-6 -25 -6 -32q0 -14 12 -14q8 0 21 6q8 2 11 -9q2 -10 -2 -13q-21 -22 -89.5 -40.5t-121.5 -15.5q-20 1 -40 16q-24 17 -24 40q0 5 1 11q29 90 65 205q2 8 -6 11q-6 1 -17 0q-15 -1 -13 -1q-6 0 -6 9q0 22 86 43q80 20 130 17
q52 -3 52 -50zM304 408l-187 104l-31 -68l208 -61z" />
    <glyph glyph-name="icircumflex" unicode="&#xee;" horiz-adv-x="333" 
d="M294 295q0 -19 -21 -83q-27 -81 -32 -100q-6 -25 -6 -32q0 -14 12 -14q8 0 21 6q8 2 11 -9q2 -10 -2 -13q-21 -22 -89.5 -40.5t-121.5 -15.5q-20 1 -40 16q-24 17 -24 40q0 5 1 11q29 90 65 205q2 8 -6 11q-6 1 -17 0q-15 -1 -13 -1q-6 0 -6 9q0 22 86 43q80 20 130 17
q52 -3 52 -50zM328 410l-19 -30l-108 43l-135 -43l1 30l154 81l2 -1l2 1v-2z" />
    <glyph glyph-name="idieresis" unicode="&#xef;" horiz-adv-x="333" 
d="M294 295q0 -19 -21 -83q-27 -81 -32 -100q-6 -25 -6 -32q0 -14 12 -14q8 0 21 6q8 2 11 -9q2 -10 -2 -13q-21 -22 -89.5 -40.5t-121.5 -15.5q-20 1 -40 16q-24 17 -24 40q0 5 1 11q29 90 65 205q2 8 -6 11q-6 1 -17 0q-15 -1 -13 -1q-6 0 -6 9q0 22 86 43q80 20 130 17
q52 -3 52 -50zM238 437q0 19 14.5 32t34.5 13t34 -13t14 -32q0 -18 -14 -31.5t-34 -13.5t-34.5 13.5t-14.5 31.5zM88 437q0 19 14.5 32t34.5 13t34 -13t14 -32q0 -18 -14 -31.5t-34 -13.5t-34.5 13.5t-14.5 31.5z" />
    <glyph glyph-name="ntilde" unicode="&#xf1;" horiz-adv-x="607" 
d="M578 285l-58 -212q-3 -11 9 -12q7 0 17 2q6 3 11 -4t5 -15q0 -7 -4 -8q-24 -20 -82 -33q-50 -12 -88 -12q-102 0 -102 47q0 11 5 23l54 188q3 14 -12 17q-24 -1 -32 -19q-27 -70 -74 -247h-227q-3 -17 79 255q4 4 1 9t-11 3l-22 -7q-13 1 -13 15q0 8 7 11
q20 16 81.5 37.5t85.5 21.5q98 0 106 -51q73 46 188 46q25 0 48 -10q29 -13 29 -35q0 -5 -1 -10zM381 391q-35 0 -59 22.5t-42 22.5q-33 0 -47 -5q-23 -8 -33 -33l-71 -4q77 98 167 94q27 -1 44 -11q18 -13 35 -25q11 -7 22 -7q70 0 93 42h51q-19 -47 -65 -72
q-42 -24 -95 -24z" />
    <glyph glyph-name="oacute" unicode="&#xf3;" horiz-adv-x="560" 
d="M516 182q0 -107 -108 -155q-78 -35 -198 -35q-69 0 -132 45q-69 50 -69 116q0 100 102 151q80 40 190 40q82 0 143 -38q72 -45 72 -124zM319 295q0 20 -18 20q-20 0 -28 -23q-33 -96 -75 -249q-6 -21 23 -21q22 0 27 20q19 64 37 128q34 115 34 125zM213 413l203 104
l-25 -79l-188 -56z" />
    <glyph glyph-name="ograve" unicode="&#xf2;" horiz-adv-x="560" 
d="M516 182q0 -107 -108 -155q-78 -35 -198 -35q-69 0 -132 45q-69 50 -69 116q0 100 102 151q80 40 190 40q82 0 143 -38q72 -45 72 -124zM319 295q0 20 -18 20q-20 0 -28 -23q-33 -96 -75 -249q-6 -21 23 -21q22 0 27 20q19 64 37 128q34 115 34 125zM414 408l-187 104
l-31 -68l208 -61z" />
    <glyph glyph-name="ocircumflex" unicode="&#xf4;" horiz-adv-x="560" 
d="M516 182q0 -107 -108 -155q-78 -35 -198 -35q-69 0 -132 45q-69 50 -69 116q0 100 102 151q80 40 190 40q82 0 143 -38q72 -45 72 -124zM319 295q0 20 -18 20q-20 0 -28 -23q-33 -96 -75 -249q-6 -21 23 -21q22 0 27 20q19 64 37 128q34 115 34 125zM438 410l-19 -30
l-108 43l-135 -43l1 30l154 81l2 -1l2 1v-2z" />
    <glyph glyph-name="odieresis" unicode="&#xf6;" horiz-adv-x="560" 
d="M516 182q0 -107 -108 -155q-78 -35 -198 -35q-69 0 -132 45q-69 50 -69 116q0 100 102 151q80 40 190 40q82 0 143 -38q72 -45 72 -124zM319 295q0 20 -18 20q-20 0 -28 -23q-33 -96 -75 -249q-6 -21 23 -21q22 0 27 20q19 64 37 128q34 115 34 125zM368 437
q0 19 14.5 32t34.5 13t34 -13t14 -32q0 -18 -14 -31.5t-34 -13.5t-34.5 13.5t-14.5 31.5zM198 437q0 19 14.5 32t34.5 13t34 -13t14 -32q0 -18 -14 -31.5t-34 -13.5t-34.5 13.5t-14.5 31.5z" />
    <glyph glyph-name="otilde" unicode="&#xf5;" horiz-adv-x="560" 
d="M516 182q0 -107 -108 -155q-78 -35 -198 -35q-69 0 -132 45q-69 50 -69 116q0 100 102 151q80 40 190 40q82 0 143 -38q72 -45 72 -124zM319 295q0 20 -18 20q-20 0 -28 -23q-33 -96 -75 -249q-6 -21 23 -21q22 0 27 20q19 64 37 128q34 115 34 125zM351 391
q-35 0 -59 22.5t-42 22.5q-33 0 -47 -5q-23 -8 -33 -33l-71 -4q77 98 167 94q27 -1 44 -11q18 -13 35 -25q11 -7 22 -7q70 0 93 42h51q-19 -47 -65 -72q-42 -24 -95 -24z" />
    <glyph glyph-name="uacute" unicode="&#xfa;" horiz-adv-x="612" 
d="M594 338l-86 -271q-1 -16 7 -16q3 0 12.5 3.5t13.5 3.5q14 0 14 -13q-1 -29 -85 -43q-68 -11 -110 -7q-44 4 -88 50q-72 -53 -177 -53q-29 0 -57 16q-31 18 -31 45q0 6 2 13q25 86 56 186q5 11 5 18q0 12 -14 14l-28 -11q-14 -3 -14 10q0 7 7 13q34 24 99 39
q57 14 106 14q24 0 46 -11q28 -13 28 -35q0 -5 -2 -11q-27 -93 -58 -199q-1 -3 -1 -7q0 -15 14 -14q25 0 33 24l72 242h236zM253 413l203 104l-25 -79l-188 -56z" />
    <glyph glyph-name="ugrave" unicode="&#xf9;" horiz-adv-x="612" 
d="M594 338l-86 -271q-1 -16 7 -16q3 0 12.5 3.5t13.5 3.5q14 0 14 -13q-1 -29 -85 -43q-68 -11 -110 -7q-44 4 -88 50q-72 -53 -177 -53q-29 0 -57 16q-31 18 -31 45q0 6 2 13q25 86 56 186q5 11 5 18q0 12 -14 14l-28 -11q-14 -3 -14 10q0 7 7 13q34 24 99 39
q57 14 106 14q24 0 46 -11q28 -13 28 -35q0 -5 -2 -11q-27 -93 -58 -199q-1 -3 -1 -7q0 -15 14 -14q25 0 33 24l72 242h236zM454 408l-187 104l-31 -68l208 -61z" />
    <glyph glyph-name="ucircumflex" unicode="&#xfb;" horiz-adv-x="612" 
d="M594 338l-86 -271q-1 -16 7 -16q3 0 12.5 3.5t13.5 3.5q14 0 14 -13q-1 -29 -85 -43q-68 -11 -110 -7q-44 4 -88 50q-72 -53 -177 -53q-29 0 -57 16q-31 18 -31 45q0 6 2 13q25 86 56 186q5 11 5 18q0 12 -14 14l-28 -11q-14 -3 -14 10q0 7 7 13q34 24 99 39
q57 14 106 14q24 0 46 -11q28 -13 28 -35q0 -5 -2 -11q-27 -93 -58 -199q-1 -3 -1 -7q0 -15 14 -14q25 0 33 24l72 242h236zM478 410l-19 -30l-108 43l-135 -43l1 30l154 81l2 -1l2 1v-2z" />
    <glyph glyph-name="udieresis" unicode="&#xfc;" horiz-adv-x="612" 
d="M594 338l-86 -271q-1 -16 7 -16q3 0 12.5 3.5t13.5 3.5q14 0 14 -13q-1 -29 -85 -43q-68 -11 -110 -7q-44 4 -88 50q-72 -53 -177 -53q-29 0 -57 16q-31 18 -31 45q0 6 2 13q25 86 56 186q5 11 5 18q0 12 -14 14l-28 -11q-14 -3 -14 10q0 7 7 13q34 24 99 39
q57 14 106 14q24 0 46 -11q28 -13 28 -35q0 -5 -2 -11q-27 -93 -58 -199q-1 -3 -1 -7q0 -15 14 -14q25 0 33 24l72 242h236zM378 437q0 19 14.5 32t34.5 13t34 -13t14 -32q0 -18 -14 -31.5t-34 -13.5t-34.5 13.5t-14.5 31.5zM208 437q0 19 14.5 32t34.5 13t34 -13t14 -32
q0 -18 -14 -31.5t-34 -13.5t-34.5 13.5t-14.5 31.5z" />
    <glyph glyph-name="dagger" unicode="&#x2020;" 
 />
    <glyph glyph-name="degree" unicode="&#xb0;" horiz-adv-x="422" 
d="M280 382q-58 0 -100 41.5t-42 99.5q0 59 42 100.5t100 41.5q59 0 100.5 -41.5t41.5 -100.5q0 -58 -41.5 -99.5t-100.5 -41.5zM280 632q-45 0 -76.5 -32t-31.5 -77q0 -44 31.5 -76t76.5 -32t76.5 31.5t31.5 76.5t-31.5 77t-76.5 32z" />
    <glyph glyph-name="cent" unicode="&#xa2;" horiz-adv-x="412" 
d="M34 221q0 86 82 154q76 62 167 70l25 64h30l-22 -65q102 0 102 -49q0 -11 -7.5 -22.5t-17.5 -11.5q-32 0 -24 46q-7 10 -18 10q-30 0 -68 -111q-33 -99 -33 -138q0 -22 21 -22q11 0 34.5 11t34.5 11q7 0 11 -6v-19q-31 -29 -137 -42l-25 -79h-30l26 76q-63 0 -104 30
q-47 33 -47 93z" />
    <glyph glyph-name="sterling" unicode="&#xa3;" horiz-adv-x="733" 
d="M704 525q0 -38 -30 -71t-68 -33q-18 0 -31.5 12.5t-13.5 29.5q0 32 40 43q32 -6 46 -31q22 24 22 50q0 36 -26.5 67t-61.5 31q-72 0 -130 -268h142l-17 -33h-132q-7 -41 -15 -82q-10 -50 -22 -80l-33 -83q29 -21 72 -37q47 -19 79 -19q47 0 47 40q0 36 -43 36
q-5 0 -22 -3q-1 6 -1 12q0 19 19.5 35t40.5 16q30 0 49.5 -21.5t19.5 -52.5q0 -49 -29.5 -75t-79.5 -26q-42 0 -92 17q-53 18 -84 44q-88 -56 -236 -56q-42 0 -72 12q-43 17 -43 52q0 73 129 79l6 1q15 44 47 191h-85l17 33h76q35 153 86 224q73 99 208 99q91 0 148 -31
q73 -39 73 -122zM118 89q-8 2 -16 2q-23 0 -42 -8q-25 -12 -25 -31q0 -9 9.5 -15t18.5 -6q21 0 36 18t19 40z" />
    <glyph glyph-name="section" unicode="&#xa7;" 
 />
    <glyph glyph-name="bullet" unicode="&#x2022;" horiz-adv-x="328" 
d="M8 302q0 56 40 96.5t97 40.5t97 -40.5t40 -96.5q0 -57 -40 -97t-97 -40t-97 40t-40 97z" />
    <glyph glyph-name="paragraph" unicode="&#xb6;" horiz-adv-x="534" 
d="M295 613l-76 1q-24 0 -34.5 -16.5t-8.5 -40.5q-3 -61 0 -158q4 -25 14.5 -35t37.5 -10h67v259zM490 -2h-75v599q-2 29 -26 29t-19 -29v-599h-75v300h-110q-77 0 -132 54.5t-55 132.5q0 77 55 132t132 55h305v-674z" />
    <glyph glyph-name="germandbls" unicode="&#xdf;" horiz-adv-x="621" 
d="M-104 -131l-11 2l-13 -17q26 -21 116 -21q127 0 216 234q38 100 96 361q2 9 2 18q1 18 -14 53t-15 54q2 46 32 72q27 24 67 24q23 0 46 -6q20 -4 35 -31t14 -52q-3 -51 -30 -110q-32 -71 -74 -72l-6 -22q29 0 41 -46q7 -31 6 -70q-9 -209 -108 -209q-31 0 -66 24l-12 -20
q40 -50 100 -49h18q83 0 147 68t68 164q2 50 -23.5 91.5t-71.5 51.5q63 8 98 63q29 45 31 103q2 45 -32 85q-31 37 -71 49q-35 11 -84 11q-79 0 -116 -11q-47 -14 -80 -43q-74 -66 -127 -247q-36 -143 -72 -287q-19 -69 -27 -93q-19 -62 -34 -89q-18 -33 -46 -33z" />
    <glyph glyph-name="registered" unicode="&#xae;" horiz-adv-x="374" 
d="M162 383q-62 0 -106 45t-44 108q0 62 44 106t106 44t104.5 -44.5t42.5 -107.5t-42.5 -107t-104.5 -44zM162 406q51 0 88 37.5t37 90.5t-37 90.5t-88 37.5q-54 1 -90 -36t-36 -92q0 -53 37.5 -90.5t88.5 -37.5zM176 534l47 -72h-26l-47 72h-26v-72h-22v157h68q-6 0 -5 1h7
q52 0 52 -40q0 -44 -48 -46zM126 557h45q30 0 30 23q0 17 -34 17h-41v-40z" />
    <glyph glyph-name="copyright" unicode="&#xa9;" horiz-adv-x="772" 
d="M346 -11q-143 0 -242.5 100t-99.5 244q0 145 99.5 245t242.5 100t243 -100t100 -245q0 -144 -100 -244t-243 -100zM346 635q-122 0 -211 -88t-89 -214q0 -125 89 -213t211 -88t211 88t89 213q0 126 -89 214t-211 88zM355 139q-86 0 -136.5 55t-50.5 142q0 83 52 139.5
t136 56.5q59 0 103 -34t54 -91h-45q-22 81 -112 81q-67 0 -106 -44t-39 -110q0 -60 34 -103q40 -49 109 -49q94 0 115 79h43q-13 -57 -55.5 -89.5t-101.5 -32.5z" />
    <glyph glyph-name="trademark" unicode="&#x2122;" horiz-adv-x="481" 
d="M401 670v-196h-27v167h-2l-66 -167h-17l-65 167v0v-167h-28v196h46l56 -141l57 141h46zM159 670v-29h-64v-167h-28v167h-65v29h157z" />
    <glyph glyph-name="acute" unicode="&#xb4;" horiz-adv-x="619" 
d="M254 745l203 104l-25 -79l-188 -56z" />
    <glyph glyph-name="dieresis" unicode="&#xa8;" horiz-adv-x="491" 
d="M252 768q0 19 14 32t34 13t34 -13t14 -32q0 -18 -14 -31.5t-34 -13.5t-34 13.5t-14 31.5zM82 768q0 19 14 32t34 13t34 -13t14 -32q0 -18 -14 -31.5t-34 -13.5t-34 13.5t-14 31.5z" />
    <glyph glyph-name="AE" unicode="&#xc6;" horiz-adv-x="1132" 
d="M1119 562q0 -73 -80 -73q-40 0 -40 36q0 39 21 39q34 0 38 -22q14 0 16.5 3t2.5 17q0 27 -28 46.5t-57 19.5q-54 0 -97 -54.5t-43 -110.5q0 -75 78 -75h40l-17 -35q2 0 -66 0q-53 0 -101.5 -68.5t-48.5 -138.5q0 -116 136 -116q50 0 99 29q54 33 54 77q0 37 -12 55
q-4 7 -32 32l19 24q27 0 50 -39q21 -34 21 -62q0 -83 -74 -128q-64 -39 -158 -39q-40 0 -86 13q-56 15 -70 38q-49 -32 -104 -32h-148q27 90 71 218q-62 -23 -109 -23q-43 0 -57 14q-47 -74 -93 -147q-57 -72 -158 -72q-91 0 -94 57q-2 46 31 70q30 21 79 21q31 0 62 -8
q18 22 41 74q9 25 19 50q-72 64 -72 138q0 154 161 238q137 71 310 62q177 -9 253 -46q33 20 77 25q14 2 27 2q61 0 100 -30.5t39 -78.5zM678 646h-30.5h-30.5q-132 -30 -264 -405q17 -9 46 -9q24 0 64 11q44 12 57 25q28 88 56 175q61 175 102 203zM509 647
q-103 0 -206 -79q-108 -85 -108 -184q0 -21 14 -53q16 -37 33 -37q4 0 25 45l26 56q92 174 201 242zM146 88q0 6 -25 8h-32q-19 2 -33.5 -8t-14.5 -27q0 -31 31 -31q10 0 20 3t32 25t22 30z" />
    <glyph glyph-name="Oslash" unicode="&#xd8;" horiz-adv-x="845" 
d="M233 165l400 399q-62 88 -170 90q-25 0 -58 -9q-39 -10 -38 -23q26 3 48 -3q28 -8 28 -24q0 -20 -14 -20q-8 0 -22 4t-21 4q-23 0 -35.5 -23t-117.5 -395zM657 520l-435 -436q12 -27 52 -41q32 -12 69 -12q56 0 85 15q108 54 177 154q71 105 71 222q0 51 -19 98zM732 663
h68l-83 -84q66 -78 66 -163q0 -169 -132 -296t-300 -127h-50q-66 0 -134 36l-61 -61h-71l89 88q-81 60 -104 140q-16 54 -16 62q0 286 234 361q23 7 70 17q14 11 43 28q50 23 127 23q50 0 70 -4q72 -13 135 -69z" />
    <glyph glyph-name="plusminus" unicode="&#xb1;" 
 />
    <glyph glyph-name="yen" unicode="&#xa5;" horiz-adv-x="797" 
d="M636 157l-11 -30h-136l-32 -127l-199 -1l34 128h-140l11 30h138l16 62h-142l11 30h139l12 57q-17 39 -63 141l-15 7l-43 -3q-44 -3 -82 25q-41 29 -41 74q0 77 86 111q59 23 150 23q82 0 137 -100l80 -170l52 100q39 74 75 113q48 53 95 53q49 0 49 -33q0 -16 -11 -29.5
t-26 -13.5q-16 0 -25 14q-16 25 -17 26q-73 -31 -205 -347l-12 -48h138l-11 -30h-135l-16 -62h139zM253 482q-46 125 -83 125q-17 0 -32.5 -18t-15.5 -36q0 -35 32 -57q28 -20 65 -20q21 0 34 6z" />
    <glyph glyph-name="mu" unicode="&#xb5;" horiz-adv-x="689" 
d="M123 89q-7 2 -16 2q-22 0 -42 -9q-24 -11 -24 -30q0 -9 9.5 -15t18.5 -6q21 0 36 18t18 40zM57 239l119 34q44 201 85 273q73 131 223 132q223 2 226 -153q1 -35 -26.5 -67t-67.5 -37q-19 -2 -34 10.5t-15 31.5q0 31 39 43q32 -6 47 -31q9 11 13 18q8 15 9 32
q0 36 -26.5 67t-61.5 31q-72 0 -130 -269l122 35l-9 -46l-123 -35q-12 -62 -34 -148l-34 -83q33 -23 77.5 -39.5t73.5 -16.5q48 0 48 40q0 21 -16 29.5t-37 5.5l-12 -2q-2 6 -2 12q0 20 22 36q19 15 38 15q29 0 50 -21t19 -53q-3 -101 -108 -101q-47 0 -101 20
q-48 18 -75 41q-89 -56 -236 -56q-42 0 -73 12q-42 17 -42 52q0 42 41 64q32 17 76 17q20 0 17 -1q13 38 27 96l-118 -34z" />
    <glyph glyph-name="mu" unicode="&#x3bc;" horiz-adv-x="689" 
d="M123 89q-7 2 -16 2q-22 0 -42 -9q-24 -11 -24 -30q0 -9 9.5 -15t18.5 -6q21 0 36 18t18 40zM57 239l119 34q44 201 85 273q73 131 223 132q223 2 226 -153q1 -35 -26.5 -67t-67.5 -37q-19 -2 -34 10.5t-15 31.5q0 31 39 43q32 -6 47 -31q9 11 13 18q8 15 9 32
q0 36 -26.5 67t-61.5 31q-72 0 -130 -269l122 35l-9 -46l-123 -35q-12 -62 -34 -148l-34 -83q33 -23 77.5 -39.5t73.5 -16.5q48 0 48 40q0 21 -16 29.5t-37 5.5l-12 -2q-2 6 -2 12q0 20 22 36q19 15 38 15q29 0 50 -21t19 -53q-3 -101 -108 -101q-47 0 -101 20
q-48 18 -75 41q-89 -56 -236 -56q-42 0 -73 12q-42 17 -42 52q0 42 41 64q32 17 76 17q20 0 17 -1q13 38 27 96l-118 -34z" />
    <glyph glyph-name="ordfeminine" unicode="&#xaa;" horiz-adv-x="807" 
d="M852 672q-126 -116 -226 -258q-74 -106 -178 -294q47 -29 95 -58q65 -36 101 -36q25 0 42.5 13t17.5 37q0 40 -31 54l15 24q21 -10 35.5 -33t14.5 -46q0 -46 -40 -68q-32 -18 -81 -18t-103 28q-1 1 -93 58q-51 -55 -81 -70q-36 -19 -104 -19q-78 0 -148 23q-98 32 -98 95
q0 65 76 87q41 12 123 12l14 2q39 48 90 146q57 111 84 151q54 78 122 118q-124 29 -166 29q-40 0 -67 -14q-34 -19 -34 -55q0 -18 15 -30.5t33 -12.5l5 -5l-3 -12l-37 -32l-9 -1q-20 -1 -35 19.5t-15 41.5q0 69 56 106q50 34 120 30l200 -12q56 -3 137 5q69 7 137 15z
M177 164q-10 10 -44 10q-36 0 -70 -18q-39 -21 -39 -54q0 -17 12.5 -28t29.5 -11q66 0 111 101zM478 792l19 30l108 -44l135 44v-30l-154 -82l-2 1l-3 -1v2z" />
    <glyph glyph-name="ordmasculine" unicode="&#xba;" horiz-adv-x="539" 
d="M570 332q0 -8 -19 -21q-53 -37 -133 -129q-5 -5 -121 -144q45 -15 79 -15q38 0 94 34q12 -1 12 -16q0 -17 -46 -33q-41 -15 -63 -15q-48 0 -123 7l-122 12q-19 1 -114 -16l-12 8v16q54 31 136 127q105 125 127 145q-13 20 -90 20q-11 0 -29 -13q1 -3 7.5 -18.5l6.5 -15.5
q0 -10 -12 -24.5t-20 -14.5q-9 0 -19.5 17t-10.5 27q0 39 46 58q35 14 78 13l258 -8q14 0 41 8t39 8q10 0 10 -17zM288 458l16 25l91 -37l115 37v-25l-131 -70l-2 1l-2 -1v2z" />
    <glyph glyph-name="ae" unicode="&#xe6;" horiz-adv-x="822" 
d="M333 286q0 16 -17 16q-18 0 -27 -21q-6 -14 -31.5 -100.5t-25.5 -95.5q0 -13 20 -13q17 0 23 14t58 200zM808 243q0 -121 -274 -155q-16 6 -29 -13q1 -4 -3 -9q2 -35 85 -35q63 0 150 45q8 -7 9 -8t5 -14q-80 -46 -152 -57q-32 -5 -143 -5q-27 0 -61 14q-25 -13 -55 -12
q-54 1 -72 50q-47 -50 -148 -50q-45 0 -77 27q-35 30 -35 74q0 92 77 168.5t170 81.5q56 4 89 -21l23 14h169q50 10 95 10q58 0 111 -24q66 -30 66 -81zM610 297q3 14 -4 17h-17q-12 0 -23 -24l-46 -161q-1 -9 4.5 -12t14.5 -1l18 12q4 4 10 23q19 61 43 146z" />
    <glyph glyph-name="oslash" unicode="&#xf8;" horiz-adv-x="567" 
d="M237 177l69 66q13 45 13 52q0 20 -18 20q-20 0 -28 -23q-5 -14 -36 -115zM286 171l-71 -69q-18 -59 -18 -62q0 -18 24 -18q15 0 22.5 15t42.5 134zM427 358h53l-49 -47q85 -43 85 -129q0 -107 -108 -155q-78 -36 -198 -36q-43 0 -88 21l-45 -44h-58l66 64q-76 51 -76 121
q0 99 102 149q79 38 190 38q48 0 93 -14z" />
    <glyph glyph-name="questiondown" unicode="&#xbf;" horiz-adv-x="399" 
d="M8 -24q0 81 69.5 156.5t143.5 75.5q5 0 18.5 -2.5t17.5 -2.5q13 36 48 85l40 4l-27 -141q4 14 -28 14q-48 0 -86 -113q-31 -93 -31 -157q0 -24 17.5 -38t41.5 -14q23 0 43 18.5t21 18.5q12 0 14 -38q-27 -12 -54 -23q-16 -6 -41 -7q-82 -4 -141 37q-66 46 -66 127z
M456 421q-6 -35 -57 -54q-39 -14 -87 -15q-94 -2 -94 61q0 7 1 15q6 33 56 50q40 14 92 14q21 0 36 -3q21 -4 39 -25.5t14 -42.5z" />
    <glyph glyph-name="exclamdown" unicode="&#xa1;" horiz-adv-x="333" 
d="M422 417q-6 -36 -57 -56q-41 -17 -87 -18q-95 -2 -95 61q0 7 2 15q6 32 56 50q40 13 92 13q21 0 35 -2q22 -4 40 -23t14 -40zM262 -32q0 -49 -1 -41q3 -31 21 -51q-29 -19 -274 -74q19 13 42 56q12 24 25 49q8 14 74 163q65 146 77 175q37 8 99 10q-63 -256 -63 -287z
" />
    <glyph glyph-name="logicalnot" unicode="&#xac;" 
 />
    <glyph glyph-name="florin" unicode="&#x192;" horiz-adv-x="719" 
d="M101 451h84q64 102 165 164q106 64 222 63q83 0 138 -39q60 -43 60 -119q0 -36 -23 -67q-26 -33 -62 -33q-21 0 -34 12.5t-13 28.5q0 23 24 39q21 2 31 -8.5l10 -10.5q3 -3 11 0q9 3 14 12q9 13 9 47q0 35 -38 65t-74 30q-89 0 -180 -184h108l-15 -43h-113
q-17 -38 -31 -77h129l-15 -43h-128q-32 -101 -34 -154v-15q-2 -5 -2 -10q0 -26 27 -44t59 -18q88 0 190 103l17 -21q-45 -60 -132.5 -102.5t-164.5 -42.5q-95 0 -160.5 66.5t-65.5 162.5q0 37 6 75h-64l15 43h60q11 39 30 77h-75z" />
    <glyph glyph-name="guillemotleft" unicode="&#xab;" horiz-adv-x="431" 
d="M344 444l21 -3l-79 -144l3 -181l-19 1q-16 48 -67 183q49 48 141 144zM199 444l21 -3l-79 -144l3 -181l-19 1q-16 48 -67 183q49 48 141 144z" />
    <glyph glyph-name="guillemotright" unicode="&#xbb;" horiz-adv-x="431" 
d="M79 116l-21 3l79 144l-3 181l19 -1q15 -48 67 -183q-49 -47 -141 -144zM224 116l-21 3l79 144l-3 181l19 -1q16 -48 67 -183q-49 -47 -141 -144z" />
    <glyph glyph-name="ellipsis" unicode="&#x2026;" horiz-adv-x="1123" 
d="M469 73q12 70 137 70q39 0 69 -15q36 -19 36 -55q0 -6 -1 -12q-5 -32 -53 -47q-38 -13 -91 -13q-25 0 -43 3q-21 4 -39.5 25.5t-14.5 43.5zM819 73q12 70 137 70q39 0 69 -15q36 -19 36 -55q0 -6 -1 -12q-5 -32 -53 -47q-38 -13 -91 -13q-25 0 -43 3q-21 4 -39.5 25.5
t-14.5 43.5zM119 73q12 70 137 70q39 0 69 -15q36 -19 36 -55q0 -6 -1 -12q-5 -32 -53 -47q-38 -13 -91 -13q-25 0 -43 3q-21 4 -39.5 25.5t-14.5 43.5z" />
    <glyph glyph-name="nonbreakingspace" unicode="&#xa0;" horiz-adv-x="182" 
 />
    <glyph glyph-name="Agrave" unicode="&#xc0;" horiz-adv-x="847" 
d="M909 635q-21 -78 -87 -270q-59 -171 -81 -273q-3 -7 2.5 -10.5t13.5 -2.5l19 10l19 -21q-80 -76 -214 -76q-44 0 -74 18q-37 21 -37 62q0 51 41 146q-77 -24 -120 -24q-38 0 -42 16q-4 -5 -63 -101q-36 -58 -71 -84q-48 -35 -121 -35q-91 0 -94 57q-2 46 31 70
q30 21 79 21q31 0 62 -8q18 23 41 75q9 24 19 49q-72 64 -72 138q0 152 165 234q133 67 306 66q59 0 140 -12q93 -15 133 -34zM653 655q-1 1 -26 -5q-64 0 -157 -169q-64 -118 -105 -234l5 -8q20 -5 37 -5q24 0 64 11q44 12 56 26q6 5 61 177q50 156 65 207zM502 639l15 10
q-103 0 -206 -79q-108 -85 -108 -184q0 -21 14 -53q16 -37 33 -37q4 0 25 45l26 56q92 174 201 242zM154 90q0 6 -26 8h-31q-19 2 -33.5 -8t-14.5 -27q0 -31 31 -31q10 0 20 3t32 25t22 30zM821 755l-192 94l-26 -68l202 -61z" />
    <glyph glyph-name="Atilde" unicode="&#xc3;" horiz-adv-x="847" 
d="M909 635q-21 -78 -87 -270q-59 -171 -81 -273q-3 -7 2.5 -10.5t13.5 -2.5l19 10l19 -21q-80 -76 -214 -76q-44 0 -74 18q-37 21 -37 62q0 51 41 146q-77 -24 -120 -24q-38 0 -42 16q-4 -5 -63 -101q-36 -58 -71 -84q-48 -35 -121 -35q-91 0 -94 57q-2 46 31 70
q30 21 79 21q31 0 62 -8q18 23 41 75q9 24 19 49q-72 64 -72 138q0 152 165 234q133 67 306 66q59 0 140 -12q93 -15 133 -34zM653 655q-1 1 -26 -5q-64 0 -157 -169q-64 -118 -105 -234l5 -8q20 -5 37 -5q24 0 64 11q44 12 56 26q6 5 61 177q50 156 65 207zM502 639l15 10
q-103 0 -206 -79q-108 -85 -108 -184q0 -21 14 -53q16 -37 33 -37q4 0 25 45l26 56q92 174 201 242zM154 90q0 6 -26 8h-31q-19 2 -33.5 -8t-14.5 -27q0 -31 31 -31q10 0 20 3t32 25t22 30zM721 721q-35 0 -59 22.5t-42 22.5q-33 0 -47 -5q-23 -8 -33 -33l-71 -4
q77 98 167 94q27 -1 44 -11q18 -13 35 -25q11 -7 22 -7q70 0 93 42h51q-19 -47 -65 -72q-42 -24 -95 -24z" />
    <glyph glyph-name="Otilde" unicode="&#xd5;" horiz-adv-x="837" 
d="M843 416q0 -169 -132 -296t-300 -127h-50q-88 0 -172.5 60t-108.5 143q-16 54 -16 62q0 286 234 361q23 7 70 17q14 11 43 28q50 23 127 23q50 0 70 -4q91 -17 163 -97t72 -170zM736 422q0 95 -58 161q-61 70 -155 71q-25 0 -58 -9q-39 -10 -38 -23q26 3 48 -3
q28 -8 28 -24q0 -20 -14 -20q-8 0 -22 4t-21 4q-23 0 -35 -23q-9 -16 -34.5 -99t-25.5 -97q0 -27 29.5 -64t56.5 -37q32 0 45 9q-6 37 -6 32q0 9 12 19.5t23 10.5q23 0 31 -6.5t8 -29.5q0 -32 -28.5 -53.5t-62.5 -21.5q-79 0 -126 82q-9 -20 -32 -100q-23 -83 -23 -98
q0 -39 45 -60q35 -16 80 -16q56 0 85 15q108 54 177 154q71 105 71 222zM591 731q-35 0 -59 22.5t-42 22.5q-33 0 -47 -5q-23 -8 -33 -33l-71 -4q77 98 167 94q27 -1 44 -11q18 -13 35 -25q11 -7 22 -7q70 0 93 42h51q-19 -47 -65 -72q-42 -24 -95 -24z" />
    <glyph glyph-name="OE" unicode="&#x152;" horiz-adv-x="1327" 
d="M687 237q8 25 22 48q27 67 27 137q0 95 -58 161q-61 70 -155 71q-25 0 -58 -9q-39 -10 -38 -23q26 3 48 -3q28 -8 28 -24q0 -20 -14 -20q-8 0 -22 4t-21 4q-23 0 -35 -23q-9 -16 -34.5 -99t-25.5 -97q0 -27 29.5 -64t56.5 -37q32 0 45 9q-6 37 -6 32q0 9 12 19.5t23 10.5
q23 0 31 -6.5t8 -29.5q0 -32 -28.5 -53.5t-62.5 -21.5q-79 0 -126 82q-9 -20 -32 -100q-23 -83 -23 -98q0 -39 45 -60q35 -16 80 -16q56 0 85 15q131 65 199 191zM1308 576q0 -73 -79 -73q-41 0 -41 37q0 38 31 38q24 0 28 -22q14 0 16.5 3t2.5 17q0 27 -23.5 47t-51.5 20
q-50 0 -89 -77q-34 -65 -34 -116q0 -48 62 -48h39l-17 -35q2 0 -66 0q-26 0 -57 -30q-28 -26 -37 -49q-74 -115 -74 -193q0 -42 54 -54q22 -5 86 -5q47 0 92 34t45 80q0 37 -12 55q-4 7 -32 32l20 25q27 -1 50 -40q20 -34 20 -62q0 -93 -77 -135q-67 -37 -185 -32
q-205 10 -267 119q-60 -54 -140 -86q-83 -33 -161 -33h-50q-88 0 -172.5 60t-108.5 143q-16 54 -16 62q0 286 234 361q23 7 70 17q14 11 43 28q50 23 127 23q50 0 70 -4q91 -17 163 -97t72 -170q0 -48 -1 -59q34 48 113 51q-44 32 -54 43q-28 30 -28 67q0 7 1 15
q21 151 278 151q66 0 109 -27q47 -30 47 -81z" />
    <glyph glyph-name="oe" unicode="&#x153;" horiz-adv-x="827" 
d="M370 12q-69 -21 -160 -21q-69 0 -132 46q-69 50 -69 116q0 99 102 149q79 38 190 38q75 0 133 -30q90 38 187 38q58 0 111 -24q66 -30 66 -81q0 -121 -274 -155q-8 3 -20 -4.5t-12 -16.5q0 -36 85 -36q63 0 150 45q8 -7 9 -8t5 -14q-80 -46 -152 -57q-32 -5 -143 -5
q-35 0 -76 20zM319 295q0 20 -18 20q-20 0 -28 -23q-6 -16 -40 -130q-36 -118 -36 -122q0 -18 24 -18q15 0 22 15t41.5 130.5t34.5 127.5zM600 297q3 14 -4 17h-17q-15 0 -24 -27q-14 -39 -42 -135q-2 -15 -7 -28q0 -13 23 -8l18 12q4 4 10 23q19 61 43 146z" />
    <glyph glyph-name="endash" unicode="&#x2013;" horiz-adv-x="597" 
d="M66 303h492l-20 -70h-492z" />
    <glyph glyph-name="emdash" unicode="&#x2014;" horiz-adv-x="1076" 
d="M1028 303l-20 -70h-962l20 70h962z" />
    <glyph glyph-name="quotedblleft" unicode="&#x201c;" horiz-adv-x="615" 
d="M106 491q10 24 19 47q29 53 73 86q63 46 151 46q28 0 46 -2q-1 -10 -10 -23q-93 -8 -131 -58q-10 -15 -10 -23q-1 -2 0 -3q13 3 25 3q30 0 52 -11q28 -14 28 -41q0 -9 -4 -18q-19 -42 -65 -63q-40 -20 -90 -20q-86 0 -84 75v5zM406 491q10 24 19 47q29 53 73 86
q63 46 151 46q28 0 46 -2q-1 -10 -10 -23q-93 -8 -131 -58q-10 -15 -10 -23q-1 -2 0 -3q13 3 25 3q30 0 52 -11q28 -14 28 -41q0 -9 -4 -18q-19 -42 -65 -63q-40 -20 -90 -20q-86 0 -84 75v5z" />
    <glyph glyph-name="quotedblright" unicode="&#x201d;" horiz-adv-x="636" 
d="M685 590l-20 -46q-28 -53 -72 -86q-63 -47 -152 -47q-28 0 -45 2q1 11 10 24q93 7 130 58q11 15 11 23v2q-14 -2 -25 -2q-30 0 -52 10q-28 14 -28 41q0 9 4 18q19 42 65 64q40 19 90 19q86 0 84 -74v-6zM385 590l-20 -46q-28 -53 -72 -86q-63 -47 -152 -47q-28 0 -45 2
q1 11 10 24q93 7 130 58q11 15 11 23v2q-14 -2 -25 -2q-30 0 -52 10q-28 14 -28 41q0 9 4 18q19 42 65 64q40 19 90 19q86 0 84 -74v-6z" />
    <glyph glyph-name="quoteleft" unicode="&#x2018;" horiz-adv-x="307" 
d="M116 503q-3 3 18 45q27 53 73 87q65 47 161 47q18 0 37 -2q-2 -11 -3 -13q-3 -5 -7 -11q-55 -4 -92 -25q-28 -15 -42 -37q-11 -18 -7 -21q22 4 65 -4q16 -3 28 -16t12 -29q0 -10 -5 -19q-39 -82 -155 -82q-87 0 -83 80z" />
    <glyph glyph-name="quoteright" unicode="&#x2019;" horiz-adv-x="264" 
d="M381 600q2 -3 -19 -45q-27 -53 -73 -87q-65 -47 -161 -47q-18 0 -36 2q1 11 3.5 14.5t6.5 9.5q55 4 92 25q27 15 41 37q12 18 8 21q-23 -4 -66 4q-16 3 -27.5 16t-11.5 29q0 10 4 18q39 83 155 83q88 0 84 -80z" />
    <glyph glyph-name="divide" unicode="&#xf7;" 
 />
    <glyph glyph-name="ydieresis" unicode="&#xff;" horiz-adv-x="754" 
d="M367 439q0 19 14 32t34 13t34 -13t14 -32q0 -18 -14 -31.5t-34 -13.5t-34 13.5t-14 31.5zM197 439q0 19 14 32t34 13t34 -13t14 -32q0 -18 -14 -31.5t-34 -13.5t-34 13.5t-14 31.5zM409 32q-39 -101 -96 -146q-73 -59 -204 -59q-7 0 -82 11q-9 2 -9 10q0 6 4 10.5t8 2.5
q56 -7 58 -7q180 0 228 191q-110 -53 -203 -53q-30 0 -51.5 22t-21.5 54q0 31 25.5 92t25.5 88q0 13 -12 13q1 0 -33 -9q-8 0 -8 11q0 13 14 19q118 67 196 67q23 0 46 -9q29 -12 29 -33q0 -4 -1 -8l-59 -211q-2 -5 -2 -9q0 -13 23 -13q34 0 65 61q20 74 60 211h90
q-33 -121 -90 -306z" />
    <glyph glyph-name="Ydieresis" unicode="&#x178;" horiz-adv-x="828" 
d="M855 672l-112 -377q-73 -246 -78 -259q-47 -125 -124 -182q-93 -68 -262 -68q-17 0 -74 17q-62 19 -64 30l22 22q65 -29 156 -29q127 0 200 81q57 62 94 191l18 69q-145 -181 -336 -181q-134 0 -134 93q0 34 31 116q-119 39 -119 175q0 129 129 225q119 89 254 89
q35 0 69 -18q42 -21 42 -53q0 -6 -2 -14l-134 -476q-1 -5 -1 -9q0 -24 34 -22q49 1 112 71q57 62 99 149q35 92 78 239q35 119 38 121q28 -4 37 -3q15 3 27 3zM289 553q0 25 -25 25q-51 0 -105 -76q-50 -71 -50 -124q0 -45 25 -92q30 -56 69 -52q86 286 86 319zM662 768
q0 19 14 32t34 13t34 -13t14 -32q0 -18 -14 -31.5t-34 -13.5t-34 13.5t-14 31.5zM492 768q0 19 14 32t34 13t34 -13t14 -32q0 -18 -14 -31.5t-34 -13.5t-34 13.5t-14 31.5z" />
    <glyph glyph-name="currency" unicode="&#xa4;" 
 />
    <glyph glyph-name="guilsinglleft" unicode="&#x2039;" horiz-adv-x="286" 
d="M199 444l21 -3l-79 -144l3 -181l-19 1q-16 48 -67 183q49 48 141 144z" />
    <glyph glyph-name="guilsinglright" unicode="&#x203a;" horiz-adv-x="286" 
d="M79 116l-21 3l79 144l-3 181l19 -1q15 -48 67 -183q-49 -47 -141 -144z" />
    <glyph glyph-name="daggerdbl" unicode="&#x2021;" 
 />
    <glyph glyph-name="periodcentered" unicode="&#xb7;" horiz-adv-x="351" 
d="M80 273q6 35 58 53q39 14 87 15q94 2 94 -61q0 -7 -1 -15q-6 -32 -56 -50q-40 -13 -92 -13q-21 0 -36 2q-21 4 -39.5 25.5t-14.5 43.5z" />
    <glyph glyph-name="periodcentered" unicode="&#x2219;" horiz-adv-x="351" 
d="M80 273q6 35 58 53q39 14 87 15q94 2 94 -61q0 -7 -1 -15q-6 -32 -56 -50q-40 -13 -92 -13q-21 0 -36 2q-21 4 -39.5 25.5t-14.5 43.5z" />
    <glyph glyph-name="quotesinglbase" unicode="&#x201a;" horiz-adv-x="295" 
d="M235 70q2 -3 -18 -45q-28 -53 -73 -87q-66 -47 -162 -47q-17 0 -36 2q1 11 3.5 14.5t6.5 9.5q55 4 92 25q27 15 41 37q12 18 8 21q-23 -4 -66 4q-16 3 -27.5 16t-11.5 29q0 10 4 18q39 83 155 83q88 0 84 -80z" />
    <glyph glyph-name="quotedblbase" unicode="&#x201e;" horiz-adv-x="584" 
d="M535 70q2 -3 -18 -45q-28 -53 -73 -87q-66 -47 -162 -47q-17 0 -36 2q1 11 3.5 14.5t6.5 9.5q55 4 92 25q27 15 41 37q12 18 8 21q-23 -4 -66 4q-16 3 -27.5 16t-11.5 29q0 10 4 18q39 83 155 83q88 0 84 -80zM235 70q2 -3 -18 -45q-28 -53 -73 -87q-66 -47 -162 -47
q-17 0 -36 2q1 11 3.5 14.5t6.5 9.5q55 4 92 25q27 15 41 37q12 18 8 21q-23 -4 -66 4q-16 3 -27.5 16t-11.5 29q0 10 4 18q39 83 155 83q88 0 84 -80z" />
    <glyph glyph-name="perthousand" unicode="&#x2030;" 
 />
    <glyph glyph-name="Acircumflex" unicode="&#xc2;" horiz-adv-x="847" 
d="M909 635q-21 -78 -87 -270q-59 -171 -81 -273q-3 -7 2.5 -10.5t13.5 -2.5l19 10l19 -21q-80 -76 -214 -76q-44 0 -74 18q-37 21 -37 62q0 51 41 146q-77 -24 -120 -24q-38 0 -42 16q-4 -5 -63 -101q-36 -58 -71 -84q-48 -35 -121 -35q-91 0 -94 57q-2 46 31 70
q30 21 79 21q31 0 62 -8q18 23 41 75q9 24 19 49q-72 64 -72 138q0 152 165 234q133 67 306 66q59 0 140 -12q93 -15 133 -34zM653 655q-1 1 -26 -5q-64 0 -157 -169q-64 -118 -105 -234l5 -8q20 -5 37 -5q24 0 64 11q44 12 56 26q6 5 61 177q50 156 65 207zM502 639l15 10
q-103 0 -206 -79q-108 -85 -108 -184q0 -21 14 -53q16 -37 33 -37q4 0 25 45l26 56q92 174 201 242zM154 90q0 6 -26 8h-31q-19 2 -33.5 -8t-14.5 -27q0 -31 31 -31q10 0 20 3t32 25t22 30zM821 750l-19 -30l-108 43l-135 -43l1 30l154 81l2 -1l2 1v-2z" />
    <glyph glyph-name="Ecircumflex" unicode="&#xca;" horiz-adv-x="619" 
d="M628 572q0 -73 -80 -73q-40 0 -40 36q0 38 31 38q24 0 28 -22q14 0 16.5 3.5t2.5 17.5q0 27 -23.5 46.5t-51.5 19.5q-50 0 -90 -77q-33 -65 -33 -115q0 -48 61 -48h40l-17 -36q2 0 -66 0q-26 0 -58 -30q-27 -26 -36 -49q-74 -114 -74 -193q0 -42 53 -54q23 -5 86 -5
q48 0 91 33q47 36 47 82q0 36 -12 54q-4 8 -32 32l19 25q27 -1 50 -40q21 -34 21 -62q0 -93 -77 -135q-67 -37 -185 -31q-129 5 -207 47q-98 53 -92 155q5 93 91 150q77 51 182 56q-80 59 -80 116q0 7 1 15q21 151 278 151q66 0 109 -27q47 -29 47 -80zM601 740l-19 -30
l-108 43l-135 -43l1 30l154 81l2 -1l2 1v-2z" />
    <glyph glyph-name="Aacute" unicode="&#xc1;" horiz-adv-x="847" 
d="M909 635q-21 -78 -87 -270q-59 -171 -81 -273q-3 -7 2.5 -10.5t13.5 -2.5l19 10l19 -21q-80 -76 -214 -76q-44 0 -74 18q-37 21 -37 62q0 51 41 146q-77 -24 -120 -24q-38 0 -42 16q-4 -5 -63 -101q-36 -58 -71 -84q-48 -35 -121 -35q-91 0 -94 57q-2 46 31 70
q30 21 79 21q31 0 62 -8q18 23 41 75q9 24 19 49q-72 64 -72 138q0 152 165 234q133 67 306 66q59 0 140 -12q93 -15 133 -34zM653 655q-1 1 -26 -5q-64 0 -157 -169q-64 -118 -105 -234l5 -8q20 -5 37 -5q24 0 64 11q44 12 56 26q6 5 61 177q50 156 65 207zM502 639l15 10
q-103 0 -206 -79q-108 -85 -108 -184q0 -21 14 -53q16 -37 33 -37q4 0 25 45l26 56q92 174 201 242zM154 90q0 6 -26 8h-31q-19 2 -33.5 -8t-14.5 -27q0 -31 31 -31q10 0 20 3t32 25t22 30zM584 745l203 104l-25 -79l-188 -56z" />
    <glyph glyph-name="Edieresis" unicode="&#xcb;" horiz-adv-x="619" 
d="M628 572q0 -73 -80 -73q-40 0 -40 36q0 38 31 38q24 0 28 -22q14 0 16.5 3.5t2.5 17.5q0 27 -23.5 46.5t-51.5 19.5q-50 0 -90 -77q-33 -65 -33 -115q0 -48 61 -48h40l-17 -36q2 0 -66 0q-26 0 -58 -30q-27 -26 -36 -49q-74 -114 -74 -193q0 -42 53 -54q23 -5 86 -5
q48 0 91 33q47 36 47 82q0 36 -13 56q-6 9 -33 34l18 24q27 0 52 -41q22 -36 22 -64q0 -93 -77 -135q-67 -37 -185 -31q-129 5 -207 47q-98 53 -92 155q5 93 91 150q77 51 182 56q-80 59 -80 116q0 7 1 15q21 151 278 151q66 0 109 -27q47 -29 47 -80zM522 768q0 19 14 32
t34 13t34 -13t14 -32q0 -18 -14 -31.5t-34 -13.5t-34 13.5t-14 31.5zM352 768q0 19 14 32t34 13t34 -13t14 -32q0 -18 -14 -31.5t-34 -13.5t-34 13.5t-14 31.5z" />
    <glyph glyph-name="Egrave" unicode="&#xc8;" horiz-adv-x="619" 
d="M628 572q0 -73 -80 -73q-40 0 -40 36q0 38 31 38q24 0 28 -22q14 0 16.5 3.5t2.5 17.5q0 27 -23.5 46.5t-51.5 19.5q-50 0 -90 -77q-33 -65 -33 -115q0 -48 61 -48h40l-17 -36q2 0 -66 0q-26 0 -58 -30q-27 -26 -36 -49q-74 -114 -74 -193q0 -42 53 -54q23 -5 86 -5
q48 0 91 33q47 36 47 82q0 36 -12 54q-4 8 -32 32l19 25q27 -1 50 -40q21 -34 21 -62q0 -93 -77 -135q-67 -37 -185 -31q-129 5 -207 47q-98 53 -92 155q5 93 91 150q77 51 182 56q-80 59 -80 116q0 7 1 15q21 151 278 151q66 0 109 -27q47 -29 47 -80zM581 755l-192 94
l-26 -68l202 -61z" />
    <glyph glyph-name="Iacute" unicode="&#xcd;" horiz-adv-x="628" 
d="M670 642q-65 -69 -113 -255q-56 -215 -92 -276q-74 -129 -225 -125q-111 4 -177 86l17 25q44 -36 68 -36q35 0 60 65q14 48 29 96q-83 18 -129 80t-39 152q6 83 71 145q59 56 141 73q88 18 170 18q134 0 219 -48zM415 653q-106 5 -191 -38q-107 -56 -120 -171
q-8 -68 34 -122q44 -57 112 -59q1 0 62 198q45 143 80 172q9 5 23 20zM354 745l203 104l-25 -79l-188 -56z" />
    <glyph glyph-name="Icircumflex" unicode="&#xce;" horiz-adv-x="628" 
d="M670 642q-65 -69 -113 -255q-56 -215 -92 -276q-74 -129 -225 -125q-111 4 -177 86l17 25q44 -36 68 -36q35 0 60 65q14 48 29 96q-83 18 -129 80t-39 152q6 83 71 145q59 56 141 73q88 18 170 18q134 0 219 -48zM415 653q-106 5 -191 -38q-107 -56 -120 -171
q-8 -68 34 -122q44 -57 112 -59q1 0 62 198q45 143 80 172q9 5 23 20zM601 750l-19 -30l-108 43l-135 -43l1 30l154 81l2 -1l2 1v-2z" />
    <glyph glyph-name="Idieresis" unicode="&#xcf;" horiz-adv-x="628" 
d="M670 642q-65 -69 -113 -255q-56 -215 -92 -276q-74 -129 -225 -125q-111 4 -177 86l17 25q44 -36 68 -36q35 0 60 65q14 48 29 96q-83 18 -129 80t-39 152q6 83 71 145q59 56 141 73q88 18 170 18q134 0 219 -48zM415 653q-106 5 -191 -38q-107 -56 -120 -171
q-8 -68 34 -122q44 -57 112 -59q1 0 62 198q45 143 80 172q9 5 23 20zM512 768q0 19 14 32t34 13t34 -13t14 -32q0 -18 -14 -31.5t-34 -13.5t-34 13.5t-14 31.5zM342 768q0 19 14 32t34 13t34 -13t14 -32q0 -18 -14 -31.5t-34 -13.5t-34 13.5t-14 31.5z" />
    <glyph glyph-name="Igrave" unicode="&#xcc;" horiz-adv-x="628" 
d="M680 642q-65 -69 -113 -255q-56 -215 -92 -276q-74 -129 -225 -125q-111 4 -177 86l17 25q44 -36 68 -36q35 0 60 65q14 48 29 96q-83 18 -129 80t-39 152q6 83 71 145q59 56 141 73q88 18 170 18q134 0 219 -48zM425 653q-106 5 -191 -38q-107 -56 -120 -171
q-8 -68 34 -122q44 -57 112 -59q1 0 62 198q45 143 80 172q9 5 23 20zM601 755l-192 94l-26 -68l202 -61z" />
    <glyph glyph-name="Oacute" unicode="&#xd3;" horiz-adv-x="834" 
d="M843 416q0 -169 -132 -296t-300 -127h-50q-88 0 -172.5 60t-108.5 143q-16 54 -16 62q0 286 234 361q23 7 70 17q14 11 43 28q50 23 127 23q50 0 70 -4q91 -17 163 -97t72 -170zM736 422q0 95 -58 161q-61 70 -155 71q-25 0 -58 -9q-39 -10 -38 -23q26 3 48 -3
q28 -8 28 -24q0 -20 -14 -20q-8 0 -22 4t-21 4q-23 0 -35 -23q-9 -16 -34.5 -99t-25.5 -97q0 -27 29.5 -64t56.5 -37q32 0 45 9q-6 37 -6 32q0 9 12 19.5t23 10.5q23 0 31 -6.5t8 -29.5q0 -32 -28.5 -53.5t-62.5 -21.5q-79 0 -126 82q-9 -20 -32 -100q-23 -83 -23 -98
q0 -39 45 -60q35 -16 80 -16q56 0 85 15q108 54 177 154q71 105 71 222zM444 745l203 104l-25 -79l-188 -56z" />
    <glyph glyph-name="Ocircumflex" unicode="&#xd4;" horiz-adv-x="834" 
d="M843 416q0 -169 -132 -296t-300 -127h-50q-88 0 -172.5 60t-108.5 143q-16 54 -16 62q0 286 234 361q23 7 70 17q14 11 43 28q50 23 127 23q50 0 70 -4q91 -17 163 -97t72 -170zM736 422q0 95 -58 161q-61 70 -155 71q-25 0 -58 -9q-39 -10 -38 -23q26 3 48 -3
q28 -8 28 -24q0 -20 -14 -20q-8 0 -22 4t-21 4q-23 0 -35 -23q-9 -16 -34.5 -99t-25.5 -97q0 -27 29.5 -64t56.5 -37q32 0 45 9q-6 37 -6 32q0 9 12 19.5t23 10.5q23 0 31 -6.5t8 -29.5q0 -32 -28.5 -53.5t-62.5 -21.5q-79 0 -126 82q-9 -20 -32 -100q-23 -83 -23 -98
q0 -39 45 -60q35 -16 80 -16q56 0 85 15q108 54 177 154q71 105 71 222zM681 750l-19 -30l-108 43l-135 -43l1 30l154 81l2 -1l2 1v-2z" />
    <glyph glyph-name="Ograve" unicode="&#xd2;" horiz-adv-x="834" 
d="M833 416q0 -169 -132 -296t-300 -127h-50q-88 0 -172.5 60t-108.5 143q-16 54 -16 62q0 286 234 361q23 7 70 17q14 11 43 28q50 23 127 23q50 0 70 -4q91 -17 163 -97t72 -170zM726 422q0 95 -58 161q-61 70 -155 71q-25 0 -58 -9q-39 -10 -38 -23q26 3 48 -3
q28 -8 28 -24q0 -20 -14 -20q-8 0 -22 4t-21 4q-23 0 -35 -23q-9 -16 -34.5 -99t-25.5 -97q0 -27 29.5 -64t56.5 -37q32 0 45 9q-6 37 -6 32q0 9 12 19.5t23 10.5q23 0 31 -6.5t8 -29.5q0 -32 -28.5 -53.5t-62.5 -21.5q-79 0 -126 82q-9 -20 -32 -100q-23 -83 -23 -98
q0 -39 45 -60q35 -16 80 -16q56 0 85 15q108 54 177 154q71 105 71 222zM671 755l-192 94l-26 -68l202 -61z" />
    <glyph glyph-name="Uacute" unicode="&#xda;" horiz-adv-x="906" 
d="M907 672l-171 -592l13 -16l38 21q20 -6 20 -24q0 -12 -15 -15q-110 -55 -193 -55q-112 0 -122 86l-4 5l-118 -64q-71 -33 -128 -33q-47 0 -75.5 25.5t-28.5 71.5q0 37 20 98q25 71 28 96q-45 18 -65 38q-34 33 -34 94q0 121 136 202q118 71 248 71q25 0 44.5 -18
t19.5 -44q0 -80 -58 -255q-61 -187 -66 -241q-2 -18 19 -18q12 0 28 5q35 12 54 55q3 6 23 73q3 9 125 434h262zM251 560q1 5 -4 13h-20q-9 0 -38 -25q-25 -20 -37 -33q-46 -52 -46 -110q0 -34 20 -61q23 -30 56 -30zM494 745l203 104l-25 -79l-188 -56z" />
    <glyph glyph-name="Ucircumflex" unicode="&#xdb;" horiz-adv-x="903" 
d="M261 560q1 5 -4 13h-20q-9 0 -38 -25q-25 -20 -37 -33q-46 -52 -46 -110q0 -34 20 -61q23 -30 56 -30zM917 672l-171 -592l13 -16l38 21q20 -6 20 -24q0 -12 -15 -15q-110 -55 -193 -55q-112 0 -122 86l-4 5l-118 -64q-71 -33 -128 -33q-47 0 -75.5 25.5t-28.5 71.5
q0 37 20 98q25 71 28 96q-45 18 -65 38q-34 33 -34 94q0 121 136 202q118 71 248 71q25 0 44.5 -18t19.5 -44q0 -80 -58 -255q-61 -187 -66 -241q-2 -18 19 -18q12 0 28 5q35 12 54 55q3 6 23 73q3 9 125 434h262zM711 750l-19 -30l-108 43l-135 -43l1 30l154 81l2 -1l2 1
v-2z" />
    <glyph glyph-name="Ugrave" unicode="&#xd9;" horiz-adv-x="903" 
d="M261 560q1 5 -4 13h-20q-9 0 -38 -25q-25 -20 -37 -33q-46 -52 -46 -110q0 -34 20 -61q23 -30 56 -30zM917 672l-171 -592l13 -16l38 21q20 -6 20 -24q0 -12 -15 -15q-110 -55 -193 -55q-112 0 -122 86l-4 5l-118 -64q-71 -33 -128 -33q-47 0 -75.5 25.5t-28.5 71.5
q0 37 20 98q25 71 28 96q-45 18 -65 38q-34 33 -34 94q0 121 136 202q118 71 248 71q25 0 44.5 -18t19.5 -44q0 -80 -58 -255q-61 -187 -66 -241q-2 -18 19 -18q12 0 28 5q35 12 54 55q3 6 23 73q3 9 125 434h262zM691 755l-192 94l-26 -68l202 -61z" />
    <glyph glyph-name="circumflex" unicode="&#x2c6;" horiz-adv-x="468" 
d="M360 730l-19 -30l-108 43l-135 -43l1 30l154 82l2 -1l2 1v-3z" />
    <glyph glyph-name="tilde" unicode="&#x2dc;" horiz-adv-x="847" 
d="M391 721q-35 0 -59 22.5t-42 22.5q-33 0 -47 -5q-23 -8 -33 -33l-71 -4q77 98 167 94q27 -1 44 -11q18 -13 35 -25q11 -7 22 -7q70 0 93 42h51q-19 -47 -65 -72q-42 -24 -95 -24z" />
    <glyph glyph-name="macron" unicode="&#xaf;" horiz-adv-x="357" 
d="M31 788h268v-52h-268v52z" />
    <glyph glyph-name="macron" unicode="&#x2c9;" horiz-adv-x="357" 
d="M31 788h268v-52h-268v52z" />
    <glyph glyph-name="cedilla" unicode="&#xb8;" horiz-adv-x="335" 
d="M153 8l-16 -46q10 1 20 1q69 0 69 -48q0 -9 -3 -20q-14 -21 -42 -36t-57 -15q-33 0 -52 20l21 21q11 -12 26 -12q24 0 44 30q1 5 1 9q0 22 -33 22q-7 0 -20 -1t-16 -1l30 86z" />
    <glyph glyph-name="Scaron" unicode="&#x160;" 
 />
    <glyph glyph-name="scaron" unicode="&#x161;" 
 />
    <glyph glyph-name="brokenbar" unicode="&#xa6;" 
 />
    <glyph glyph-name="Eth" unicode="&#xd0;" 
 />
    <glyph glyph-name="eth" unicode="&#xf0;" 
 />
    <glyph glyph-name="Yacute" unicode="&#xdd;" 
 />
    <glyph glyph-name="yacute" unicode="&#xfd;" 
 />
    <glyph glyph-name="Thorn" unicode="&#xde;" 
 />
    <glyph glyph-name="thorn" unicode="&#xfe;" 
 />
    <glyph glyph-name="minus" unicode="&#xad;" 
 />
    <glyph glyph-name="minus" unicode="&#x2212;" 
 />
    <glyph glyph-name="multiply" unicode="&#xd7;" 
 />
    <glyph glyph-name="onesuperior" unicode="&#xb9;" 
 />
    <glyph glyph-name="twosuperior" unicode="&#xb2;" 
 />
    <glyph glyph-name="threesuperior" unicode="&#xb3;" 
 />
    <glyph glyph-name="onehalf" unicode="&#xbd;" 
 />
    <glyph glyph-name="onequarter" unicode="&#xbc;" 
 />
    <glyph glyph-name="threequarters" unicode="&#xbe;" 
 />
    <glyph glyph-name="Lslash" unicode="&#x141;" 
 />
    <glyph glyph-name="lslash" unicode="&#x142;" 
 />
    <glyph glyph-name="HT" 
 />
    <glyph glyph-name="LF" 
 />
    <glyph glyph-name="nonmarkingreturn" 
 />
    <glyph glyph-name="Zcaron" unicode="&#x17d;" 
 />
    <glyph glyph-name="zcaron" unicode="&#x17e;" 
 />
    <glyph glyph-name="DLE" 
 />
    <glyph glyph-name="DC1" 
 />
    <glyph glyph-name="DC2" 
 />
    <glyph glyph-name="DC3" 
 />
    <glyph glyph-name="DC4" 
 />
    <glyph glyph-name="RS" 
 />
    <glyph glyph-name="US" 
 />
    <glyph glyph-name="notequal" unicode="&#x2260;" 
 />
    <glyph glyph-name="infinity" unicode="&#x221e;" 
 />
    <glyph glyph-name="lessequal" unicode="&#x2264;" 
 />
    <glyph glyph-name="greaterequal" unicode="&#x2265;" 
 />
    <glyph glyph-name="partialdiff" unicode="&#x2202;" horiz-adv-x="419" 
d="M17 239l84 25q22 79 66 214q34 107 34 112q0 21 -38 15l-4 16q23 15 110 32q80 16 116 16q20 0 37 -10.5t17 -29.5q0 -5 -30 -97q-39 -117 -60 -191l81 27l-9 -46l-86 -29q-31 -101 -69 -224q6 -17 42 -11l3 -16q-28 -21 -100 -36q-61 -12 -105 -12q-24 0 -46 9
q-27 12 -27 34q0 5 2 10q14 43 52 170l-79 -24z" />
    <glyph glyph-name="summation" unicode="&#x2211;" horiz-adv-x="524" 
d="M592 555q0 -26 -15 -48t-39 -22q-35 0 -35 33q0 34 27 34q11 0 27 -6l7 18q-7 31 -32.5 54t-55.5 23q-31 0 -58 -28.5t-27 -60.5q0 -59 42 -174t42 -176q0 -82 -53 -140t-132 -58q-12 0 -24 1l-10 -5q-99 0 -166 30q-89 40 -89 127q0 23 13 55q15 37 33 39l15 -16
q-33 -43 -33 -83q0 -47 36 -74q33 -25 81 -25q40 0 66 33q23 31 23 73q0 57 -36 165t-36 164q0 94 83 149q72 49 172 49q61 0 114 -35q60 -39 60 -96zM298 792l19 30l108 -44l135 44v-30l-154 -82l-2 1l-3 -1v2z" />
    <glyph glyph-name="product" unicode="&#x220f;" horiz-adv-x="370" 
d="M373 270q0 -21 -28 -21q-22 0 -22 20q0 13 11 24q-7 17 -32 17q-26 0 -26 -23q0 -28 22 -87.5t22 -92.5q0 -111 -155 -111q-39 0 -96 21q-68 25 -71 54l12 17q19 -15 37 -30q22 -17 43 -17q10 0 18.5 9t8.5 20q0 22 -22 87t-22 96q0 42 49 71q42 25 87 25q164 0 164 -79z
M158 458l16 25l91 -37l115 37v-25l-131 -70l-2 1l-2 -1v2z" />
    <glyph glyph-name="pi" unicode="&#x3c0;" horiz-adv-x="837" 
d="M855 672l-112 -377q-73 -246 -78 -259q-47 -125 -124 -182q-93 -68 -262 -68q-17 0 -74 17q-62 19 -64 30l22 22q65 -29 156 -29q127 0 200 81q57 62 94 191l18 69q-145 -181 -336 -181q-134 0 -134 93q0 34 31 116q-119 39 -119 175q0 129 129 225q119 89 254 89
q35 0 69 -18q42 -21 42 -53q0 -6 -2 -14l-134 -476q-1 -5 -1 -9q0 -24 34 -22q49 1 112 71q57 62 99 149q35 92 78 239q35 119 38 121q28 -4 37 -3q15 3 27 3zM289 553q0 25 -25 25q-51 0 -105 -76q-50 -71 -50 -124q0 -45 25 -92q30 -56 69 -52q86 286 86 319zM506 742
l211 97l-3 -72l-208 -63v38z" />
    <glyph glyph-name="integral" unicode="&#x222b;" horiz-adv-x="526" 
d="M238 420l199 89l-25 -79l-188 -56zM409 32q-39 -101 -96 -146q-73 -59 -204 -59q-7 0 -82 11q-9 2 -9 10q0 6 4 10.5t8 2.5q56 -7 58 -7q180 0 228 191q-110 -53 -203 -53q-30 0 -51.5 22t-21.5 54q0 31 25.5 92t25.5 88q0 13 -12 13q1 0 -33 -9q-8 0 -8 11q0 13 14 19
q118 67 196 67q23 0 46 -9q29 -12 29 -33q0 -4 -1 -8l-59 -211q-2 -5 -2 -9q0 -13 23 -13q34 0 65 61q20 74 60 211h90q-33 -121 -90 -306z" />
    <glyph glyph-name="Omega" unicode="&#x3a9;" horiz-adv-x="739" 
d="M101 451h84q64 102 165 164q106 64 222 63q83 0 138 -39q60 -43 60 -119q0 -36 -23 -67q-26 -33 -62 -33q-21 0 -34 12.5t-13 28.5q0 23 24 39q21 2 31 -8.5l10 -10.5q3 -3 11 0q9 3 14 12q9 13 9 47q0 35 -38 65t-74 30q-89 0 -180 -184h108l-15 -43h-113
q-17 -38 -31 -77h129l-15 -43h-128q-32 -101 -34 -154v-15q-2 -5 -2 -10q0 -26 27 -44t59 -18q88 0 190 103l17 -21q-45 -60 -132.5 -102.5t-164.5 -42.5q-95 0 -160.5 66.5t-65.5 162.5q0 37 6 75h-64l15 43h60q11 39 30 77h-75z" />
    <glyph glyph-name="Omega" unicode="&#x2126;" horiz-adv-x="739" 
d="M101 451h84q64 102 165 164q106 64 222 63q83 0 138 -39q60 -43 60 -119q0 -36 -23 -67q-26 -33 -62 -33q-21 0 -34 12.5t-13 28.5q0 23 24 39q21 2 31 -8.5l10 -10.5q3 -3 11 0q9 3 14 12q9 13 9 47q0 35 -38 65t-74 30q-89 0 -180 -184h108l-15 -43h-113
q-17 -38 -31 -77h129l-15 -43h-128q-32 -101 -34 -154v-15q-2 -5 -2 -10q0 -26 27 -44t59 -18q88 0 190 103l17 -21q-45 -60 -132.5 -102.5t-164.5 -42.5q-95 0 -160.5 66.5t-65.5 162.5q0 37 6 75h-64l15 43h60q11 39 30 77h-75z" />
    <glyph glyph-name="radical" unicode="&#x221a;" 
 />
    <glyph glyph-name="approxequal" unicode="&#x2248;" 
 />
    <glyph glyph-name="approxequal" unicode="&#x22f2;" 
 />
    <glyph glyph-name="Delta" unicode="&#x394;" 
 />
    <glyph glyph-name="Delta" unicode="&#x2206;" 
 />
    <glyph glyph-name="lozenge" unicode="&#x25ca;" 
 />
    <glyph glyph-name="fraction" unicode="&#x2044;" 
 />
    <glyph glyph-name="fi" unicode="&#xf001;" 
 />
    <glyph glyph-name="fl" unicode="&#xf002;" 
 />
    <glyph glyph-name="apple" unicode="&#xf000;" 
 />
    <glyph glyph-name="dotlessi" unicode="&#x131;" horiz-adv-x="333" 
d="M294 295q0 -19 -21 -83q-27 -81 -32 -100q-6 -25 -6 -32q0 -14 12 -14q8 0 21 6q8 2 11 -9q2 -10 -2 -13q-21 -22 -89.5 -40.5t-121.5 -15.5q-20 1 -40 16q-24 17 -24 40q0 5 1 11q29 90 65 205q2 8 -6 11q-6 1 -17 0q-15 -1 -13 -1q-6 0 -6 9q0 22 86 43q80 20 130 17
q52 -3 52 -50z" />
    <glyph glyph-name="breve" unicode="&#x2d8;" horiz-adv-x="357" 
d="M324 784q0 -36 -44 -58q-39 -20 -92 -20q-52 0 -91 20q-45 22 -45 58l35 20q0 -14 25 -27q30 -16 76 -16t76 16q25 13 25 27z" />
    <glyph glyph-name="dotaccent" unicode="&#x2d9;" horiz-adv-x="265" 
d="M108 757q0 18 13 30.5t32 12.5q18 0 31 -12.5t13 -30.5q0 -17 -13 -29.5t-31 -12.5q-19 0 -32 12.5t-13 29.5z" />
    <glyph glyph-name="ring" unicode="&#x2da;" horiz-adv-x="265" 
d="M164 824q25 0 41.5 -16t16.5 -39q0 -31 -25 -54.5t-56 -23.5q-25 0 -41.5 15.5t-16.5 39.5q0 31 25 54.5t56 23.5zM159 794q-16 0 -29 -11t-16 -26q-2 -14 7 -25t25 -11q17 0 30 11t15 25q3 15 -6.5 26t-25.5 11z" />
    <glyph glyph-name="hungarumlaut" unicode="&#x2dd;" horiz-adv-x="491" 
d="M230 728l85 120l39 -39l-100 -101zM120 728l85 120l39 -39l-100 -101z" />
    <glyph glyph-name="ogonek" unicode="&#x2db;" horiz-adv-x="223" 
d="M108 18q32 0 49 -36q12 -27 12 -61q0 -35 -12 -63q-17 -37 -49 -37q-40 0 -54 46q-3 18 19 18q11 0 15 -8q6 -21 20 -21q12 0 20 29q6 21 6 36q0 17 -6 41q-8 33 -20 33v23z" />
    <glyph glyph-name="caron" unicode="&#x2c7;" horiz-adv-x="468" 
d="M98 782l19 30l108 -44l135 44v-30l-154 -82l-2 1l-3 -1v2z" />
    </font>
</defs>
</svg>
