<?xml version="1.0" standalone="no"?>
<!DOCTYPE svg PUBLIC "-//W3C//DTD SVG 1.1//EN" "http://www.w3.org/Graphics/SVG/1.1/DTD/svg11.dtd" >
<svg>
<metadata>
Created by FontForge 20120731 at Wed Apr 17 22:26:26 2019
 By www-data
Digitized by Dan X. Solo.  Software (c) 2000 by Dover Publications, Inc., New York.
</metadata>
<defs>
<font id="TickTock" horiz-adv-x="271" >
  <font-face 
    font-family="Tick Tock"
    font-weight="400"
    font-stretch="normal"
    units-per-em="1000"
    panose-1="0 0 4 0 0 0 0 0 0 0"
    ascent="800"
    descent="-200"
    x-height="433"
    cap-height="676"
    bbox="-31 -243 1093.04 846"
    underline-thickness="20"
    underline-position="-123"
    unicode-range="U+0020-F002"
  />
<missing-glyph horiz-adv-x="500" 
d="M63 0v800h375v-800h-375zM125 63h250v675h-250v-675z" />
    <glyph glyph-name=".notdef" horiz-adv-x="500" 
d="M63 0v800h375v-800h-375zM125 63h250v675h-250v-675z" />
    <glyph glyph-name="glyph1" horiz-adv-x="0" 
 />
    <glyph glyph-name="glyph2" 
 />
    <glyph glyph-name="space" unicode=" " 
 />
    <glyph glyph-name="exclam" unicode="!" horiz-adv-x="399" 
d="M254 199h-216l-30 477h276zM286 76q0 -58 -49 -73q-21 -7 -98 -7q-63 0 -86 7q-57 16 -57 71q0 81 111 81q9 0 21 -1h14q60 0 85 -7q59 -17 59 -71z" />
    <glyph glyph-name="quotedbl" unicode="&#x22;" horiz-adv-x="452" 
d="M348 389h-99l-36 285h165zM138 389h-99l-36 285h165z" />
    <glyph glyph-name="numbersign" unicode="#" horiz-adv-x="627" 
d="M337 188h68l22 303h-67zM518 188l-3 -57h-51l-10 -130h-63l9 130h-67l-9 -130h-276l9 130h-55l3 57h57l22 303h-52l3 57h53l10 128h276l-10 -128h67l10 127h63l-9 -127h53l-3 -57h-54l-23 -303h50z" />
    <glyph glyph-name="dollar" unicode="$" horiz-adv-x="521" 
d="M176 675h49v-72h45q45 0 80 -24q39 -27 39 -68q0 -8 -2 -16h-47q-2 65 -70 65q-43 0 -43 -29q0 -20 47 -66q81 -78 87 -85q48 -53 48 -91q0 -42 -27 -75q-29 -37 -77 -43h-80v-82h-49v82h-44q-54 0 -91 25q-41 27 -41 72v40h51q-4 -50 26 -75q24 -19 63 -19q49 0 49 37
q0 26 -46 71q-42 41 -85 83q-46 51 -46 91t30.5 73.5t79.5 33.5h54v72z" />
    <glyph glyph-name="percent" unicode="%" horiz-adv-x="844" 
d="M290 351q0 -39 -17 -63q-18 -27 -51 -27h-145q-32 2 -54 27q-24 29 -24 77l1 197q0 67 24 93q18 19 57 19q21 0 74 1q48 1 64 1q46 -1 62 -39q10 -23 10 -71zM247 591q1 12 -7 27q-12 20 -32 20h-32q-16 0 -19 -26v-280q5 -18 6 -19q4 -11 14 -11h32q14 0 26 18t12 32
v239zM740 91q0 -39 -17 -63q-18 -27 -51 -27h-145q-32 2 -54 27q-24 29 -24 77l1 197q0 67 24 94q19 20 58 20h137q46 -1 62 -39q10 -23 10 -71zM697 331q1 12 -7 27q-12 20 -32 20h-32q-16 0 -19 -26v-280q5 -18 6 -19q4 -11 14 -11h32q14 0 26 18t12 32v239zM458 672h56
l-243 -672h-56z" />
    <glyph glyph-name="ampersand" unicode="&#x26;" horiz-adv-x="707" 
d="M628 0h-308q-8 11 -15.5 20.5t-17.5 9.5q-32 -30 -116 -30q-106 0 -144 39q-29 30 -29 98q0 11 1 35.5t1 37.5q0 64 5 88q14 64 64 95q-34 52 -41.5 73.5t-7.5 63.5q0 60 22 93q28 43 101 59l197 -2q56 0 100 -19q66 -29 66 -94v-50h-61q-10 131 -114 131q-34 0 -45 -17
q-6 -11 -6 -40q0 -31 100 -191q97 -156 105 -156q2 0 36 21q40 24 54 31q13 -18 32 -51q-33 -19 -86 -64zM263 88l-162 248q-14 -8 -25 -38q-10 -25 -10 -40v-109q-1 -49 35 -83q33 -30 72 -30q19 0 43 13q29 15 47 39z" />
    <glyph glyph-name="quotesingle" unicode="'" horiz-adv-x="256" 
d="M138 389h-99l-36 285h165z" />
    <glyph glyph-name="parenleft" unicode="(" horiz-adv-x="386" 
d="M312 -46h-169q-41 0 -80 35q-42 37 -47 89l-6 466q0 66 30 109q37 53 109 53h154q5 -14 0 -30q-16 1 -34 -10.5t-18 -28.5l3 -602q-3 -15 17 -33.5t41 -17.5v-30z" />
    <glyph glyph-name="parenright" unicode=")" horiz-adv-x="388" 
d="M293 175q0 -97 -13 -136q-30 -83 -126 -83h-148v31q14 -5 33.5 13t16.5 34l-1 581q1 19 -12 37q-16 23 -43 20v33l142 1q26 0 62 -11t61 -46.5t28 -72.5v-401z" />
    <glyph glyph-name="asterisk" unicode="*" horiz-adv-x="384" 
d="M104 528l-97 41l37 64l85 -61l-13 104h74l-11 -104l84 64l37 -65l-95 -42l97 -41l-38 -65l-84 62l13 -105h-75l11 105l-84 -64l-37 64z" />
    <glyph glyph-name="plus" unicode="+" horiz-adv-x="616" 
d="M6 311v63h126v189h271v-189h123v-63h-123v-205h-271v205h-126z" />
    <glyph glyph-name="comma" unicode="," horiz-adv-x="368" 
d="M277 17q0 -140 -78 -140h-130v41h84q51 0 51 49q0 22 -6 30h-136q-29 0 -51 32q-18 27 -18 49q0 25 19 50q23 28 52 28q26 0 77 1q50 0 49 0q87 0 87 -140z" />
    <glyph glyph-name="hyphen" unicode="-" horiz-adv-x="305" 
d="M6 330h205v-135h-205v135z" />
    <glyph glyph-name="hyphen" unicode="&#x2010;" horiz-adv-x="305" 
d="M6 330h205v-135h-205v135z" />
    <glyph glyph-name="period" unicode="." horiz-adv-x="375" 
d="M273 79q-2 -81 -98 -81q-11 0 -25.5 1t-15.5 1q-66 1 -82 6q-53 15 -52 70q1 57 56 73q20 6 82 6q136 0 135 -76z" />
    <glyph glyph-name="slash" unicode="/" horiz-adv-x="412" 
d="M278 672h62l-270 -672h-62z" />
    <glyph glyph-name="zero" unicode="0" horiz-adv-x="634" 
d="M521 470v-327q-2 -64 -31 -101q-31 -41 -88 -41h-268q-55 3 -93 43q-42 45 -42 122l1 328q-3 109 41 151q33 32 103 32q36 0 138 -1q90 -1 120 0q77 -4 104 -79q15 -42 15 -127zM456 542q4 21 -14 50q-22 37 -66 37h-58q-38 0 -43 -51v-468l10 -34q11 -22 33 -24h61
q30 0 55 34t23 58z" />
    <glyph glyph-name="one" unicode="1" horiz-adv-x="539" 
d="M409 -2h-269l-1 496q0 44 -7 50t-62 4q-5 17 -3 33q27 11 51 35q29 29 31 59h260v-677z" />
    <glyph glyph-name="two" unicode="2" horiz-adv-x="662" 
d="M551 58q0 -19 -29.5 -39t-42.5 -20h-478l246 468v116q0 32 -34 38q-28 1 -56 1q-35 2 -62 -14t-28 -47v-93q-29 -2 -61 -1v88q-1 52 42 87q38 31 83 31l272 1q42 0 79 -43.5t39 -85.5q-3 -88 0 -91q-18 -70 -54 -131q-78 -132 -150 -278h70q16 -1 27 -1q72 0 72 43v73
q28 -3 65 2v-104z" />
    <glyph glyph-name="three" unicode="3" horiz-adv-x="632" 
d="M511 206q0 -205 -117 -205l-267 -3q-50 0 -85 28q-41 33 -41 89v104h63q0 7 0 -92q0 -83 98 -83h9q8 -1 14 -1q58 0 58 42v167q0 58 -13 76q-20 28 -87 27l-2 43q72 0 90 36q7 15 7 79v29q1 19 1 27q0 62 -54 62q-34 0 -68 -18q-41 -22 -41 -54v-93h-63v95q0 44 48 81
q43 33 84 33h224q64 0 96 -55q25 -42 25 -95q0 -40 -9 -64q-12 -34 -49 -67q60 -35 74 -89q5 -19 5 -99z" />
    <glyph glyph-name="four" unicode="4" horiz-adv-x="721" 
d="M634 269q-52 2 -64 0q-5 0 -2 -2v-268h-276v270l-288 -1l-1 27q77 7 122 113q22 62 43 124h66q-2 -4 -46 -127q-28 -76 -54 -102q1 3 5 2h153l3 372l273 -1v-372q15 2 66 0v-35z" />
    <glyph glyph-name="five" unicode="5" horiz-adv-x="629" 
d="M515 246l-1 -119q0 -52 -34 -89.5t-84 -37.5l-266 2q-48 -7 -90 32.5t-42 84.5v107h63q-3 3 -1 -95q3 -46 35 -71q29 -21 72 -21q34 0 48 7q22 11 27 48v189q0 41 -4 55q-14 39 -60 38h-160l77 300h321q41 0 61 -32q16 -24 16 -57q0 -38 1 -41l-249 1q5 15 5 28
q0 62 -100 54q-8 -16 -30 -99t-22 -98l-6 -26l232 1q91 0 135 -30q56 -38 56 -131z" />
    <glyph glyph-name="six" unicode="6" horiz-adv-x="627" 
d="M508 467h-63v86q0 43 -40 66q-30 17 -66 17q-60 0 -60 -37v-212q37 22 89 22q79 0 114 -30q28 -25 34 -77l2 -100q3 -116 -20 -152q-33 -51 -149 -50h-231q-47 0 -83 42q-32 38 -32 78v416q0 51 28 91q35 49 98 49h247q36 0 81 -32q51 -37 51 -79v-98zM461 244
q0 123 -112 123q-27 0 -48 -12q-24 -15 -24 -40v-235q5 -40 72 -40q44 0 76 21q37 25 37 71z" />
    <glyph glyph-name="seven" unicode="7" horiz-adv-x="624" 
d="M535 677l-240 -679h-277l-1 -5v0q21 61 228 645h-117q-25 0 -35 -40q-5 -23 -4 -44h-63v58q1 68 120 65h389z" />
    <glyph glyph-name="eight" unicode="8" horiz-adv-x="619" 
d="M516 196q0 -197 -120 -197h-278q-114 0 -114 203q0 66 8 95q17 56 75 91q-39 43 -52 71.5t-13 70.5q0 148 167 148h169q72 0 109 -48q31 -39 31 -100q0 -91 -58 -136q77 -55 77 -149v-25q-1 -17 -1 -24zM434 533q0 49 -25 81q-29 37 -83 37q-41 0 -50 -46q-3 -13 -3 -77
q0 -74 3 -86q9 -40 55 -40q50 0 78 42q25 37 25 89zM452 200q0 71 -9 101q-21 70 -92 70q-25 0 -45 -8q-34 -15 -30 -48v-251q0 -35 60 -35q77 0 102 61q14 33 14 110z" />
    <glyph glyph-name="nine" unicode="9" horiz-adv-x="641" 
d="M14 208h63v-85q0 -43 40 -66q30 -18 66 -18q60 0 60 38l2 211q-37 -22 -92 -22q-78 0 -113 31q-29 25 -34 77q-1 50 -3 100q-3 115 21 152q33 51 149 50h231q47 0 83 -42q32 -38 32 -78v-417q0 -51 -28 -90q-35 -49 -98 -49h-247q-36 0 -81 32q-51 36 -51 78v98zM60 432
q0 -123 113 -123q27 0 47 12q25 15 25 40v234q-6 41 -72 41q-45 0 -76 -21q-37 -26 -37 -72v-111z" />
    <glyph glyph-name="colon" unicode=":" horiz-adv-x="362" 
d="M268 80q2 -82 -103 -82q-11 0 -25 1t-16 1q-58 0 -80 7q-52 17 -51 73q1 57 50 71q16 4 78 4q67 0 85 -4q60 -14 62 -71zM268 327q2 -80 -101 -80q-12 0 -27 1t-17 1q-59 0 -80 6q-51 16 -50 72q1 57 54 72q20 5 82 5q61 0 81 -5q56 -15 58 -72z" />
    <glyph glyph-name="semicolon" unicode=";" horiz-adv-x="372" 
d="M268 327q2 -82 -103 -82q-11 0 -25 1t-16 1q-58 0 -80 7q-52 17 -51 73q1 57 50 71q16 4 78 4q67 0 85 -4q60 -14 62 -71zM277 17q0 -140 -78 -140h-130v41h84q51 0 51 49q0 22 -6 30h-136q-29 0 -51 32q-18 27 -18 49q0 25 19 50q23 28 52 28h76h50q87 0 87 -139z" />
    <glyph glyph-name="less" unicode="&#x3c;" horiz-adv-x="376" 
d="M3 341l-1 1l250 250l39 -39l-212 -212l212 -211l-39 -39l-250 250h1z" />
    <glyph glyph-name="equal" unicode="=" horiz-adv-x="629" 
d="M6 174v55h513v-55h-513zM6 314v55h513v-55h-513z" />
    <glyph glyph-name="greater" unicode="&#x3e;" horiz-adv-x="376" 
d="M290 341h1l-250 -250l-39 39l212 211l-212 212l39 39l250 -250z" />
    <glyph glyph-name="question" unicode="?" horiz-adv-x="640" 
d="M524 506q0 -69 -19 -102q-27 -47 -107 -70q2 -43 0 -134h-268v172h84q35 1 35 67v158q-8 33 -32 41q-11 4 -46 4q-100 0 -100 -122q-7 -2 -18 -1q-16 2 -15 2t-16 -3q-12 -2 -17 2q-2 8 -2 17q0 53 41 95.5t91 42.5h262q71 0 104 -62q23 -44 23 -107zM405 73
q0 -81 -102 -81q-8 0 -21 1h-18q-65 0 -83 5q-57 15 -57 75q0 59 57 74q20 6 83 6t83 -6q58 -16 58 -74z" />
    <glyph glyph-name="at" unicode="@" horiz-adv-x="797" 
d="M699 379q0 -110 -56.5 -179.5t-138.5 -69.5q-92 0 -99 75q-54 -65 -129 -65q-42 0 -71 31q-32 34 -32 94q0 110 59 184q65 82 176 82q60 0 116 -30q-11 -36 -54 -232q-6 -26 -6 -43q0 -39 43 -39q47 0 82 56t35 136q0 102 -73 172q-76 71 -193 71q-122 0 -203 -93
q-77 -89 -77 -211q0 -112 77 -185.5t187 -73.5q65 0 124 19l16 -58q-61 -20 -140 -20q-143 0 -237 82q-102 88 -102 236q0 153 100.5 257t254.5 104q147 0 244 -82.5t97 -217.5zM438 469q-13 6 -36 6q-75 0 -118 -71q-36 -60 -36 -142q0 -60 46 -60q31 0 62 28q37 32 48 85z
" />
    <glyph glyph-name="A" unicode="A" horiz-adv-x="634" 
d="M513 524l-2 -523l-67 1l-1 232h-173v-233h-272v524q0 62 38 104q41 46 112 46h222q69 0 108 -46q35 -41 35 -105zM443 281v272q0 24 -20 50t-43 26h-58q-32 0 -44 -24q-8 -17 -8 -57v-267h173z" />
    <glyph glyph-name="B" unicode="B" horiz-adv-x="622" 
d="M504 278q4 -171 -5 -192q-12 -31 -48 -58t-69 -27h-383v675h374q57 0 89 -45q27 -39 27 -97q0 -103 -66 -155l20 -9q67 -30 61 -92zM429 528q0 47 -26 78.5t-72 31.5q-18 0 -36 -8q-22 -10 -22 -27v-215h58q53 0 78 47q20 36 20 93zM437 278q-15 72 -124 72h-40v-237
q0 -46 13.5 -62.5t56.5 -16.5q29 0 59 24t35 52q4 25 0 168z" />
    <glyph glyph-name="C" unicode="C" horiz-adv-x="625" 
d="M510 118q0 -117 -126 -117q-26 0 -132 -1q-85 -1 -132 0q-42 1 -80.5 41.5t-38.5 83.5v405q0 64 33 104.5t92 40.5h261q48 0 81 -24q42 -30 41 -89v-86q-26 -4 -61 2v69q0 27 -16 55q-19 35 -50 35h-59q-54 0 -55 -70v-464q0 -56 49 -64q-2 0 62 0q69 0 69 81q0 -1 0 77
q29 5 62 0v-79z" />
    <glyph glyph-name="D" unicode="D" horiz-adv-x="617" 
d="M515 130q0 -56 -36.5 -93t-97.5 -37h-378l-1 675h352q161 5 161 -176v-369zM446 124v417q0 45 -30 71q-26 22 -65 22q-76 0 -76 -55v-479q0 -36 19 -49q16 -12 57 -12q95 0 95 85z" />
    <glyph glyph-name="E" unicode="E" horiz-adv-x="610" 
d="M502 545v-74l-58 1v81q0 28 -17 48q-22 25 -64 25h-31q-60 0 -61 -63l-1 -171h152v-51h-152v-250q0 -47 53 -47h19h18q34 0 59 22q27 26 27 70q0 58 1 64h59v-73q0 -57 -36.5 -91.5t-91.5 -34.5l-252 -1q-54 0 -90 37t-36 90v428q1 119 131 120l255 1q71 0 104 -65
q12 -22 12 -66z" />
    <glyph glyph-name="F" unicode="F" horiz-adv-x="618" 
d="M517 470h-67v83q0 42 -30 65q-28 20 -72 20q-78 0 -75 -49v-208l155 -1v-44h-151v-337h-276v557q0 45 42.5 82.5t86.5 37.5h264q54 0 91 -40q32 -36 32 -79v-87z" />
    <glyph glyph-name="G" unicode="G" horiz-adv-x="623" 
d="M518 526q0 -69 -1 -74q-8 0 -32 -1h-33v89q-2 98 -110 98q-64 0 -64 -51l1 -500q-2 -29 25 -42q17 -8 36 -8q75 0 99 47q13 26 13 87v101l-101 -1v52h169v-187q1 -47 -24 -86q-33 -53 -96 -49h-278q-36 0 -74 37q-44 44 -46 107l2 390q-4 41 31 88q39 52 90 52l261 1
q74 0 108 -56q24 -40 24 -94z" />
    <glyph glyph-name="H" unicode="H" horiz-adv-x="648" 
d="M546 2h-63v361l-214 -1v-361h-271v676h272v-270h213v270h63v-675z" />
    <glyph glyph-name="I" unicode="I" horiz-adv-x="395" 
d="M279 0h-272v676h272v-676z" />
    <glyph glyph-name="J" unicode="J" horiz-adv-x="548" 
d="M434 145q0 -96 -81 -126q-37 -14 -127 -14q-86 0 -125 11q-97 26 -97 109v103h69v-98q0 -20 18.5 -46.5t39.5 -33.5q11 -2 26 0v624h277v-529z" />
    <glyph glyph-name="K" unicode="K" horiz-adv-x="648" 
d="M532 0q-38 -5 -70 0v275q-8 89 -98 93h-90v-367h-275v676h275v-269h87q31 0 60 35q26 32 26 56v176q32 5 66 0l1 -187q-2 -35 -24 -63q-18 -23 -34 -29q76 -59 76 -105v-291z" />
    <glyph glyph-name="L" unicode="L" horiz-adv-x="615" 
d="M516 109q-1 -49 -41 -81q-34 -28 -76 -28h-397v676h273v-631h81q35 -3 65.5 18.5t30.5 58.5q-3 21 0 81l64 -2v-92z" />
    <glyph glyph-name="M" unicode="M" horiz-adv-x="882" 
d="M774 2h-70v613q-2 8 -5 8t-7 -8l-109 -361q-26 -87 -34 -101q-16 -28 -57 -34q-50 -7 -74 47l-28 96q-21 60 -53.5 180.5t-53.5 180.5q-13 7 -13 0v-623h-270v674l286 1q37 1 68 -63q32 -107 63 -215q43 -142 70 -212q22 52 76 226q60 195 62 201q22 62 73 62h76v-672z
" />
    <glyph glyph-name="N" unicode="N" horiz-adv-x="643" 
d="M541 0h-61q-42 0 -58 19q-12 14 -24 62q-29 130 -58 259q-39 175 -71 284v-623h-272v674h270q63 0 76 -51q9 -34 23 -103l107 -456v610h68v-675z" />
    <glyph glyph-name="O" unicode="O" horiz-adv-x="623" 
d="M517 112q0 -35 -34 -72q-39 -41 -87 -39l-251 -1q-54 0 -92 29q-45 34 -52 100l-1 395q0 152 133 152h254q59 5 97 -34q33 -34 33 -84v-446zM453 542q-4 52 -30 71q-21 15 -67 15q-84 0 -78 -55v-483q0 -46 63 -46q45 0 67 10q36 15 45 61v427z" />
    <glyph glyph-name="P" unicode="P" horiz-adv-x="624" 
d="M521 476q0 -93 -10 -118q-23 -62 -118 -91q-116 0 -114 -1l-1 -267h-275l2 677h360q110 0 141 -64q15 -31 15 -136zM449 462v67q-3 48 -23 74q-27 35 -87 35t-60 -27v-275q0 -33 60 -33q70 0 94 46q18 34 16 113z" />
    <glyph glyph-name="Q" unicode="Q" horiz-adv-x="636" 
d="M575 -91l-64 -1l-1 105q-1 41 -28 41q4 0 -26.5 -27t-64.5 -28h-279q-34 0 -72.5 40t-38.5 74v445q0 34 36 74.5t78 44.5l254 -1q51 0 87 -29q40 -34 49 -98l-1 -436q73 -14 72 -116zM441 152v400q0 42 -42 70q-35 23 -70 23q-26 0 -44 -14t-16 -40l-5 -494q0 -58 71 -58
q94 0 93 48h-106q-3 3 -3 17t3 17l115 1q4 6 4 30z" />
    <glyph glyph-name="R" unicode="R" horiz-adv-x="643" 
d="M539 153v-153l-67 1v142q-5 72 -22 93q-24 31 -99 31q1 0 -28 1q-27 1 -40 0v-268h-280v676h371q81 0 116.5 -43.5t35.5 -145.5q0 -87 -4 -106q-9 -44 -53 -85q70 -31 70 -143zM459 433v108q-7 53 -37 72q-22 14 -67 14q-77 0 -77 -48v-235q0 -19 29 -27q18 -6 38 -6
q114 1 114 122z" />
    <glyph glyph-name="S" unicode="S" horiz-adv-x="648" 
d="M528 127q0 -36 -18 -65q-35 -55 -125 -59l-247 1q-46 0 -90 35q-47 37 -47 87v110h65v-105q0 -47 43 -69q30 -16 71 -16q86 0 81 87q-7 94 -71 151q-58 42 -117 85q-61 55 -61 151q0 56 29 96q34 49 102 58l220 -2q59 0 87 -13q53 -25 54 -98v-56q-25 0 -57 1q-2 0 -2 8
v13q1 10 1 17q0 74 -74 74q-44 0 -56 -6q-28 -12 -24 -56q3 -39 68 -97l114 -100q59 -60 54 -108v-124z" />
    <glyph glyph-name="T" unicode="T" horiz-adv-x="683" 
d="M453 673q121 3 121 -148q0 -7 -1 -51h-63q0 69 -9 94q-17 51 -76 61l-1 -625h-273v625q-60 -10 -77 -61q-8 -25 -8 -94h-66v51q0 151 122 148q-2 2 165 2q168 0 166 -2z" />
    <glyph glyph-name="U" unicode="U" horiz-adv-x="615" 
d="M506 115q0 -67 -74 -98q-46 -19 -99 -19h-122q-86 0 -121 9q-89 25 -89 109v560h267v-581q0 -21 12 -36q14 -18 37 -18q89 0 112 53q9 22 9 105v477h68v-561z" />
    <glyph glyph-name="V" unicode="V" horiz-adv-x="633" 
d="M357 0h-187q-24 2 -45 20q-25 22 -32 57q-35 186 -91 597h262l100 -607l110 609q19 2 61 0l-108 -602q-23 -74 -70 -74z" />
    <glyph glyph-name="W" unicode="W" horiz-adv-x="970" 
d="M763 0h-81q-22 0 -35.5 22.5t-25.5 86.5q-21 93 -44 246q-19 125 -38 249q-18 -100 -33 -187q-34 -207 -44 -308q-11 -109 -89 -109h-248l-100 676h262l99 -609q28 178 86 534q-4 80 73 80q54 0 63 -70q12 -88 37 -229q33 -181 40 -228q4 -28 8 -55q5 -31 17 -35l95 612
h71q-39 -244 -113 -676z" />
    <glyph glyph-name="X" unicode="X" horiz-adv-x="599" 
d="M519 0h-62v278q0 55 -47 72q-15 6 -68 10q-32 2 -52.5 -14t-20.5 -37l1 -309h-269v281q0 22 23 57.5t51 47.5q0 1 -35 48q-21 28 -21 62v177h251v-234q1 -35 75 -35q33 0 62 20q36 24 36 63v188h61v-186q0 -28 -16 -59t-35 -39q28 -12 47 -42t19 -67v-282z" />
    <glyph glyph-name="Y" unicode="Y" horiz-adv-x="615" 
d="M381 1h-266q-2 298 1 298q-57 5 -90 52q-27 39 -27 87l1 236h263l-1 -255q0 -29 21 -47.5t49 -18.5q42 0 68 19q34 23 34 69l1 233l63 2v-242q0 -110 -118 -131l1 -148v-154z" />
    <glyph glyph-name="Z" unicode="Z" horiz-adv-x="657" 
d="M542 143q0 -52 -41.5 -97.5t-79.5 -45.5h-410l225 629q-5 1 -82 1q-28 0 -54.5 -30t-26.5 -53v-79h-65v84q0 46 40 84t83 37h392l-225 -629q6 1 88 1q66 0 86 85q5 23 7 96h65z" />
    <glyph glyph-name="bracketleft" unicode="[" horiz-adv-x="210" 
d="M79 -35h59v-54l-131 -1v836l131 -1v-54h-59v-726z" />
    <glyph glyph-name="backslash" unicode="\" horiz-adv-x="412" 
d="M56 672h-62l270 -672h62z" />
    <glyph glyph-name="bracketright" unicode="]" horiz-adv-x="210" 
d="M60 -35h-58v-54l130 -1v836l-130 -1v-54h58v-726z" />
    <glyph glyph-name="asciicircum" unicode="^" horiz-adv-x="468" 
d="M350 730l-9 -30l-121 43l-122 -43l-9 30l128 82l3 -1l2 1l1 -3z" />
    <glyph glyph-name="underscore" unicode="_" horiz-adv-x="455" 
d="M-4 -68h459v-38h-459v38z" />
    <glyph glyph-name="grave" unicode="`" horiz-adv-x="488" 
d="M138 817q188 -73 188 -75q0 -4 -3.5 -19t-5.5 -13q-1 1 -101.5 20.5t-100.5 22.5q0 6 23 64z" />
    <glyph glyph-name="a" unicode="a" horiz-adv-x="502" 
d="M406 -1h-149q-13 0 -29 7.5t-19 7.5l-17.5 -10t-42.5 -10q-14 0 -34 2q-44 5 -75 35.5t-35 81.5q-11 147 107 147h79l-1 119q0 11 -12.5 18.5t-24.5 7.5q-27 0 -49 -18q-26 -21 -29 -59q-25 -4 -50 1v18q0 86 177 86q86 0 113 -6q91 -18 91 -88v-340zM190 53v180h-47
q-89 0 -89 -101q0 -109 87 -109q49 0 49 30z" />
    <glyph glyph-name="b" unicode="b" horiz-adv-x="493" 
d="M406 103q0 -55 -45 -83q-36 -23 -87 -23q-39 0 -55 11.5l-16 11.5q-3 0 -22 -10.5t-22 -10.5h-157v677h216v-245q16 0 26 1t22 1q64 0 84 -6q56 -17 56 -82v-242zM355 103v230q0 35 -30 56q-26 19 -58 19q-34 0 -45 -23q-5 -12 -5 -44v-278q0 -39 48 -39q35 0 62.5 22
t27.5 57z" />
    <glyph glyph-name="c" unicode="c" horiz-adv-x="490" 
d="M396 348v-33h-46q2 52 -22 67q-15 10 -62 10q-54 0 -54 -28q0 -6 2 -13v-266q3 -46 55 -46q44 0 64 18.5t20 72.5h47v-46q0 -32 -20 -56q-22 -27 -56 -27h-214q-35 0 -69 29q-39 33 -41 81v223q0 36 34.5 67.5t68.5 31.5h203q29 0 56.5 -24.5t33.5 -60.5z" />
    <glyph glyph-name="d" unicode="d" horiz-adv-x="511" 
d="M4 103q0 -55 45 -83q35 -23 86 -23q40 0 56 11.5t15 11.5q4 0 22.5 -10.5t22.5 -10.5h156v677h-216v-245q-15 0 -25 1t-23 1q-64 0 -84 -6q-55 -17 -55 -82v-242zM54 103v230q0 35 30 56q26 19 59 19q34 0 44 -23q6 -12 6 -44v-278q0 -39 -49 -39q-35 0 -61 21
q-29 23 -29 58z" />
    <glyph glyph-name="e" unicode="e" horiz-adv-x="501" 
d="M407 303q0 -27 -15 -53q-17 -32 -47 -32h-123l-2 -151q0 -35 50 -35q94 0 90 102l42 -1v-34q0 -51 -49 -78q-37 -21 -80 -21h-54h-58q-115 0 -145 64q-16 35 -16 166q0 102 24 146q22 41 78 51q32 6 141 6q85 0 118 -19q46 -28 46 -111zM353 308q0 94 -85 94
q-38 0 -47 -30q-4 -11 -4 -52q0 -3 -1 -14t-1 -18q0 -42 29 -42h20q16 -1 20 -1q45 0 57 9.5t12 53.5z" />
    <glyph glyph-name="f" unicode="f" horiz-adv-x="402" 
d="M356 595q0 -6 1 -21h-54v33q-2 23 -23 30q-12 4 -51 3q-64 -2 -66 -68q1 -33 0 -100q-2 -11 10 -25.5t30 -14.5q5 0 9 1q20 2 98 0v-33h-58q-28 -6 -33 -30l-2 -28l-1 -341l-216 1v558q0 45 24 75.5t63 36.5q18 3 40 3h168q30 -7 47 -33q14 -21 14 -47z" />
    <glyph glyph-name="g" unicode="g" horiz-adv-x="501" 
d="M422 112q0 -20 -15 -49q-18 -35 -43 -43q15 -12 29 -23q24 -22 27 -56l-1 -80q0 -23 -31 -55.5t-58 -32.5h-224q-45 0 -70 28q-22 25 -22 61q0 -2 -2 29q-3 25 -1 30h57v-62q11 -33 42 -42q15 -4 72 -4q89 0 93 42v109q0 8 -5 20q-8 16 -18 16h-98q-124 0 -140 99v183
q0 78 24 112q21 30 70 37q21 3 110 3t85 0q46 3 82.5 -29t36.5 -82v-211zM208 57l-1 318q0 25 -48 25q-91 2 -91 -72v-222q0 -35 32 -58q27 -18 57 -18q51 0 51 27z" />
    <glyph glyph-name="h" unicode="h" horiz-adv-x="492" 
d="M411 0h-50v296q-1 109 -89 109q-49 0 -49 -28v-376h-218v674h216v-243h68q117 0 122 -94v-338z" />
    <glyph glyph-name="i" unicode="i" horiz-adv-x="301" 
d="M224 589q1 -65 -25 -83q-18 -12 -86 -13t-87 12q-26 17 -26 83q0 64 29 79q15 9 82 9q68 0 85 -10q27 -15 28 -77zM221 1h-215v431h215v-431z" />
    <glyph glyph-name="j" unicode="j" horiz-adv-x="298" 
d="M225 593q2 -64 -27 -83q-20 -12 -86 -12q-69 0 -86 10q-28 16 -28 80t29 79q15 8 80 8q67 0 83 -7q33 -14 35 -75zM218 -169q0 -22 -13 -43q-17 -28 -48 -30h-128q-60 -2 -60 82v46h54v-39l2 -38q6 -22 36 -22q37 0 37 41v134q1 24 -19.5 33t-78.5 6v432h218v-602z" />
    <glyph glyph-name="k" unicode="k" horiz-adv-x="490" 
d="M411 -1h-56v168q0 52 -23 72q-22 17 -78 17q-39 0 -36 1v-256h-216v675h217l1 -379h31q55 0 76 35q18 31 17 101h53q3 -110 -45 -146q38 -20 51 -59q9 -26 8 -76v-153z" />
    <glyph glyph-name="l" unicode="l" horiz-adv-x="296" 
d="M215 1h-215v674h215v-674z" />
    <glyph glyph-name="m" unicode="m" horiz-adv-x="763" 
d="M681 -1h-51v336q0 32 -35 53q-28 16 -59 16q-22 0 -49 -14q-35 -19 -35 -47v-344h-52v315q0 38 -23.5 65.5t-63.5 27.5q-26 0 -56 -19q-35 -24 -35 -56l1 -334h-222v434l163 1q37 0 55 -34q28 24 46.5 32t51.5 7q55 4 111 -51q31 32 57 42q20 8 60 8q77 0 109 -38
q28 -34 27 -105v-295z" />
    <glyph glyph-name="n" unicode="n" horiz-adv-x="536" 
d="M453 0h-55v337q0 30 -32 51q-26 18 -50 18q-28 0 -59 -21q-34 -23 -34 -52v-333h-223v433h137q58 0 83 -42q24 32 49 41q16 6 52 6q130 0 131 -107z" />
    <glyph glyph-name="o" unicode="o" horiz-adv-x="500" 
d="M417 93q0 -64 -73 -85q-37 -11 -110 -11h-106q-38 0 -76 19q-51 26 -51 71v254q0 31 35.5 62t63.5 31h220q30 0 63.5 -32.5t33.5 -60.5v-248zM365 123v206q0 35 -28 57.5t-62 19.5q-29 -2 -39 -7q-15 -7 -15 -28v-253q0 -48 4 -62q9 -32 45 -32q43 0 69 26t26 73z" />
    <glyph glyph-name="p" unicode="p" horiz-adv-x="490" 
d="M407 329q0 56 -45 84q-36 23 -86 23q-40 0 -56 -11.5t-15 -11.5q-4 0 -22.5 10.5t-22.5 9.5h-156v-676h216v245q15 0 25 -1t22 -1q65 0 85 6q55 17 55 82v241zM357 329v-229q0 -35 -30 -57q-26 -18 -59 -18q-34 0 -44 22q-6 12 -6 45v278q0 39 49 39q34 0 61 -21
q29 -24 29 -59z" />
    <glyph glyph-name="q" unicode="q" horiz-adv-x="486" 
d="M2 329q0 56 45 84q36 23 87 23q39 0 55 -11.5l16 -11.5q3 0 21.5 10.5t22.5 9.5h157v-676h-217v245q-15 0 -25 -1t-22 -1q-64 0 -84 6q-56 17 -56 82v241zM52 329v-229q0 -35 31 -57q26 -18 58 -18q34 0 45 22q5 12 5 45v278q0 39 -49 39q-34 0 -61 -21q-29 -24 -29 -59z
" />
    <glyph glyph-name="r" unicode="r" horiz-adv-x="459" 
d="M379 335q0 -6 1 -32l-52 1q3 18 3 32q0 68 -41 68q-24 0 -49 -43.5t-25 -76.5v-284h-215v432l217 1q-2 -28 0 -51q16 31 30 43q19 15 49 13q82 -4 82 -103z" />
    <glyph glyph-name="s" unicode="s" horiz-adv-x="487" 
d="M409 119q0 -42 -27 -75q-29 -37 -77 -43h-173q-52 -5 -92 23t-40 74v40h51q-4 -50 26 -75q24 -19 63 -19q49 0 49 37q0 26 -46 71q-42 41 -85 83q-46 51 -46 91q0 39 30.5 71.5t79.5 35.5h148q45 0 80 -24q39 -27 39 -68q0 -8 -2 -16h-47q-2 65 -70 65q-43 0 -43 -29
q0 -20 47 -66q81 -78 87 -85q48 -53 48 -91z" />
    <glyph glyph-name="t" unicode="t" horiz-adv-x="466" 
d="M387 51q0 -40 -84 -51q-23 -3 -92 -3q-92 0 -115 4q-43 8 -59.5 41.5t-16.5 118.5v245h-30q-4 19 -1 27q35 -4 60 15.5t25 49.5v169h176v-236h132v-28h-130q-2 -1 -1 -351q0 -11 15 -19q11 -5 20 -5q46 0 47 22v106h53z" />
    <glyph glyph-name="u" unicode="u" horiz-adv-x="536" 
d="M0 434h55v-337q0 -30 30 -50q24 -17 47 -18q37 -1 67.5 20t30.5 52v333h223v-433h-138q-57 0 -82 41q-24 -31 -49 -40q-16 -6 -52 -6q-130 0 -132 107v331z" />
    <glyph glyph-name="v" unicode="v" horiz-adv-x="475" 
d="M401 433q-22 -131 -72 -387q-11 -46 -52 -46h-147q-49 0 -56 46l-77 386h206l66 -370l8 -1l70 372h54z" />
    <glyph glyph-name="w" unicode="w" horiz-adv-x="776" 
d="M693 433l-101 -433h-44q-32 0 -41 36q-24 110 -79 343q-13 -42 -50 -198l-34 -143q-11 -38 -53 -38h-196l-95 433h218l75 -375l68 298q15 80 67 80q49 0 67 -74q21 -89 63 -302l79 373h56z" />
    <glyph glyph-name="x" unicode="x" horiz-adv-x="490" 
d="M411 0h-51v144q0 105 -94 101q-12 0 -29 -12q-21 -15 -19 -32v-202h-217v184q0 22 19 45.5t41 33.5q-22 7 -36 31q-12 21 -12 42v98h200q1 -4 1 -84q0 -75 52 -75q56 -1 73 48q5 15 6 58q1 31 0 53h51l-1 -69q-1 -46 -13 -69q-5 -10 -27 -30q56 -20 56 -108v-157z" />
    <glyph glyph-name="y" unicode="y" horiz-adv-x="497" 
d="M416 -133q-2 -46 -32 -76.5t-68 -31.5l-202 1q-43 0 -74.5 30t-31.5 74v70h54v-83q0 -43 54 -54q14 -3 69 -3q48 0 63 12q24 21 21 97q-2 42 -4 50q-12 47 -56 47h-111q-95 0 -95 121v312h56v-341q-2 -54 78 -54q61 0 61 52v343h219z" />
    <glyph glyph-name="z" unicode="z" horiz-adv-x="487" 
d="M408 88q2 -28 -9 -53q-17 -35 -54 -35h-347l161 405h-75q-32 2 -32 -42q0 -6 -1 -25h-54l1 28q0 47 40 61q18 6 65 6h288l-155 -405q-7 0 48 1q50 0 61 16.5t10 86.5h53v-44z" />
    <glyph glyph-name="braceleft" unicode="{" horiz-adv-x="316" 
d="M87 43v167q0 40 -17 66.5t-49 26.5h-18v64h18q32 0 49 26.5t17 66.5v167q0 155 186 178v-104q-83 -7 -83 -74v-167q0 -72 -52 -125q52 -53 52 -125v-167q0 -68 83 -74v-104q-186 22 -186 178z" />
    <glyph glyph-name="bar" unicode="|" horiz-adv-x="331" 
d="M98 799h99v-935h-99v935z" />
    <glyph glyph-name="braceright" unicode="}" horiz-adv-x="317" 
d="M184 43v167q0 40 17 66.5t49 26.5h18v64h-18q-32 0 -49 26.5t-17 66.5v167q0 155 -186 178v-104q83 -7 83 -74v-167q0 -72 52 -125q-52 -53 -52 -125v-167q0 -68 -83 -74v-104q186 22 186 178z" />
    <glyph glyph-name="asciitilde" unicode="~" horiz-adv-x="426" 
d="M140 759q-28 0 -35 -24h-52q0 28 31 50q28 21 58 21q32 0 60 -14t37 -14q24 -2 48 22h57q-3 -32 -39 -54q-31 -19 -63 -19q-25 0 -49.5 16t-52.5 16z" />
    <glyph glyph-name="Adieresis" unicode="&#xc4;" horiz-adv-x="621" 
d="M513 524l-2 -525l-67 1l-1 234h-173v-235h-272v526q0 62 38 104q41 46 112 46h222q69 0 108 -46q35 -41 35 -105zM443 281v272q0 24 -20 50t-43 26h-58q-32 0 -44 -24q-8 -17 -8 -57v-267h173zM293 762q0 21 14 35t35 14q20 0 34.5 -14t14.5 -35q0 -20 -14.5 -34.5
t-34.5 -14.5q-21 0 -35 14.5t-14 34.5zM122 762q0 21 14 35t35 14q20 0 34.5 -14t14.5 -35q0 -20 -14.5 -34.5t-34.5 -14.5q-21 0 -35 14.5t-14 34.5z" />
    <glyph glyph-name="Aring" unicode="&#xc5;" horiz-adv-x="614" 
d="M511 531v-532l-67 1l-1 234h-173v-235h-272v526q0 62 38 104q41 46 112 46h222q69 0 105 -40.5t36 -103.5zM443 281v272q0 24 -20 50t-43 26h-58q-32 0 -44 -24q-8 -17 -8 -57v-267h173zM249 846q30 0 51.5 -21.5t21.5 -51.5t-21.5 -51t-51.5 -21t-51 21t-21 51t21 51.5
t51 21.5zM249 811q-15 0 -26 -11t-11 -27q0 -15 11 -26t26 -11q16 0 27 11t11 26q0 16 -11 27t-27 11z" />
    <glyph glyph-name="Ccedilla" unicode="&#xc7;" horiz-adv-x="601" 
d="M259 0v-45q24 4 43 4q51 0 84 -22.5t33 -53.5q0 -42 -54 -67q-48 -22 -121 -22q-8 0 -88 24l28 40q29 -19 77 -19q50 0 50 39q0 43 -47 43q-10 0 -63 -1q0 25 -1 80q-44 -1 -76 0q-42 1 -80.5 41.5t-38.5 83.5v405q0 64 33 104.5t92 40.5h261q48 0 81 -24q42 -30 41 -89
v-86q-26 -4 -61 2v78q0 27 -16 55q-19 35 -50 35h-59q-54 0 -55 -70v-473q0 -56 49 -64q-2 0 62 0q69 0 69 81q0 -1 0 77q29 5 62 0v-79q0 -117 -126 -117q-28 0 -129 -1z" />
    <glyph glyph-name="Eacute" unicode="&#xc9;" horiz-adv-x="608" 
d="M502 545v-74l-58 1v81q0 28 -17 48q-22 25 -64 25h-31q-60 0 -61 -63l-1 -171h152v-51h-152v-250q0 -47 53 -47h19h18q34 0 59 22q27 26 27 70q0 58 1 64h59v-73q0 -57 -36.5 -91.5t-91.5 -34.5l-252 -1q-54 0 -90 37t-36 90v429q1 118 131 119l255 1q71 0 104 -65
q12 -22 12 -66zM330 808q-190 -75 -190 -78t4.5 -21t6.5 -16q1 1 104.5 17.5t103.5 19.5q0 5 -29 78z" />
    <glyph glyph-name="Ntilde" unicode="&#xd1;" horiz-adv-x="643" 
d="M541 0h-27q-20 -1 -23 -1q-44 0 -64 20q-18 17 -29 62q-29 130 -58 259q-39 175 -71 284v-623h-272v674h270q63 0 76 -54q9 -34 23 -100l107 -456l2 609q30 5 66 0v-674zM217 757q-27 0 -34 -6q-3 -3 -3 -16h-47q0 28 33 52q30 24 60 24q29 0 51.5 -16t43.5 -16
q34 0 33 0q4 1 25 23h43q0 -27 -35.5 -52.5t-65.5 -25.5q-24 0 -50 16.5t-54 16.5z" />
    <glyph glyph-name="Odieresis" unicode="&#xd6;" horiz-adv-x="630" 
d="M516 112q0 -35 -34 -72q-38 -41 -86 -39l-251 -1q-54 0 -92 29q-45 34 -52 100l-1 395q0 152 133 152h254q59 5 97 -34q33 -34 33 -84zM453 542q-4 52 -30 71q-21 15 -67 15q-84 0 -78 -55v-483q0 -46 63 -46q45 0 67 10q36 15 45 61v427zM293 762q0 21 14 35t35 14
q20 0 34.5 -14t14.5 -35q0 -20 -14.5 -34.5t-34.5 -14.5q-21 0 -35 14.5t-14 34.5zM122 762q0 21 14 35t35 14q20 0 34.5 -14t14.5 -35q0 -20 -14.5 -34.5t-34.5 -14.5q-21 0 -35 14.5t-14 34.5z" />
    <glyph glyph-name="Udieresis" unicode="&#xdc;" horiz-adv-x="620" 
d="M513 120q0 -67 -74 -98q-46 -19 -99 -19h-122q-86 0 -121 9q-89 25 -89 109v555h267v-586q0 -21 12 -36q14 -18 37 -18q89 0 112 58q9 24 9 110v472h68v-556zM293 762q0 21 14 35t35 14q20 0 34.5 -14t14.5 -35q0 -20 -14.5 -34.5t-34.5 -14.5q-21 0 -35 14.5t-14 34.5z
M122 762q0 21 14 35t35 14q20 0 34.5 -14t14.5 -35q0 -20 -14.5 -34.5t-34.5 -14.5q-21 0 -35 14.5t-14 34.5z" />
    <glyph glyph-name="aacute" unicode="&#xe1;" horiz-adv-x="509" 
d="M300 577q-188 -73 -188 -75q0 -4 3.5 -19t5.5 -13q1 1 101 20.5t100 22.5q0 6 -22 64zM406 -1h-149q-13 0 -29 7.5t-19 7.5l-17.5 -10t-42.5 -10q-14 0 -34 2q-44 5 -75 35.5t-35 81.5q-11 147 107 147h79l-1 119q0 11 -12.5 18.5t-24.5 7.5q-27 0 -49 -18
q-26 -21 -29 -59q-25 -4 -50 1v18q0 86 177 86q86 0 113 -6q91 -18 91 -88v-340zM190 53v180h-47q-89 0 -89 -101q0 -109 87 -109q49 0 49 30z" />
    <glyph glyph-name="agrave" unicode="&#xe0;" horiz-adv-x="509" 
d="M138 577q188 -73 188 -75q0 -4 -3.5 -19t-5.5 -13q-1 1 -101.5 20.5t-100.5 22.5q0 6 23 64zM406 -1h-149q-13 0 -29 7.5t-19 7.5l-17.5 -10t-42.5 -10q-14 0 -34 2q-44 5 -75 35.5t-35 81.5q-11 147 107 147h79l-1 119q0 11 -12.5 18.5t-24.5 7.5q-27 0 -49 -18
q-26 -21 -29 -59q-25 -4 -50 1v18q0 86 177 86q86 0 113 -6q91 -18 91 -88v-340zM190 53v180h-47q-89 0 -89 -101q0 -109 87 -109q49 0 49 30z" />
    <glyph glyph-name="acircumflex" unicode="&#xe2;" horiz-adv-x="502" 
d="M338 501l-10 -30l-121 43l-121 -43l-9 30l128 81l2 -1l2 1l1 -2zM406 -1h-149q-13 0 -29 7.5t-19 7.5l-17.5 -10t-42.5 -10q-14 0 -34 2q-44 5 -75 35.5t-35 81.5q-11 147 107 147h79l-1 119q0 11 -12.5 18.5t-24.5 7.5q-27 0 -49 -18q-26 -21 -29 -59q-25 -4 -50 1v18
q0 86 177 86q86 0 113 -6q91 -18 91 -88v-340zM190 53v180h-47q-89 0 -89 -101q0 -109 87 -109q49 0 49 30z" />
    <glyph glyph-name="adieresis" unicode="&#xe4;" horiz-adv-x="509" 
d="M243 522q0 21 14 35t35 14q20 0 34.5 -14t14.5 -35q0 -20 -14.5 -34.5t-34.5 -14.5q-21 0 -35 14.5t-14 34.5zM72 522q0 21 14 35t35 14q20 0 34.5 -14t14.5 -35q0 -20 -14.5 -34.5t-34.5 -14.5q-21 0 -35 14.5t-14 34.5zM406 -1h-149q-13 0 -29 7.5t-19 7.5l-17.5 -10
t-42.5 -10q-14 0 -34 2q-44 5 -75 35.5t-35 81.5q-11 147 107 147h79l-1 119q0 11 -12.5 18.5t-24.5 7.5q-27 0 -49 -18q-26 -21 -29 -59q-25 -4 -50 1v18q0 60 70 78q31 8 107 8q87 0 115 -6q89 -18 89 -88v-340zM190 53v180h-47q-89 0 -89 -101q0 -109 87 -109q49 0 49 30
z" />
    <glyph glyph-name="atilde" unicode="&#xe3;" horiz-adv-x="509" 
d="M157 507q-27 0 -34 -6q-3 -3 -3 -16h-47q0 28 31 50q28 20 58 20q28 0 53.5 -14t47.5 -12q13 0 25 1.5t31 21.5h43q0 -29 -32 -51.5t-73 -20.5q-24 1 -48 14t-52 13zM406 -1h-149q-13 0 -29 7.5t-19 7.5l-17.5 -10t-42.5 -10q-14 0 -34 2q-44 5 -75 35.5t-35 81.5
q-11 147 107 147h79l-1 119q0 11 -12.5 18.5t-24.5 7.5q-27 0 -49 -18q-26 -21 -29 -59q-25 -4 -50 1v18q0 86 177 86q86 0 113 -6q91 -18 91 -88v-340zM190 53v180h-47q-89 0 -89 -101q0 -109 87 -109q49 0 49 30z" />
    <glyph glyph-name="aring" unicode="&#xe5;" horiz-adv-x="495" 
d="M219 615q30 0 51 -21t21 -51t-21 -51t-51 -21t-51 21t-21 51t21 51t51 21zM219 580q-16 0 -26.5 -11t-10.5 -26q0 -16 10.5 -26.5t26.5 -10.5q15 0 26 10.5t11 26.5q0 15 -11 26t-26 11zM406 -1h-149q-13 0 -29 7.5t-19 7.5l-17.5 -10t-42.5 -10q-14 0 -34 2
q-44 5 -75 35.5t-35 81.5q-11 147 107 147h79l-1 119q0 11 -12.5 18.5t-24.5 7.5q-27 0 -49 -18q-26 -21 -29 -59q-25 -4 -50 1v18q0 86 177 86q86 0 113 -6q91 -18 91 -88v-340zM190 53v180h-47q-89 0 -89 -101q0 -109 87 -109q49 0 49 30z" />
    <glyph glyph-name="ccedilla" unicode="&#xe7;" horiz-adv-x="475" 
d="M205 1v-40q19 3 34 3q41 0 67 -18.5t26 -42.5q0 -34 -40.5 -52.5t-99.5 -18.5q-5 0 -70 19l23 32q23 -15 61 -15q40 0 40 31q0 34 -37 34q-9 0 -52 1q1 46 0 67h-47q-35 0 -70 29q-40 33 -40 81v223q0 36 34.5 67.5t68.5 31.5h203q29 0 56.5 -24.5t33.5 -60.5v-33h-46
q2 52 -22 67q-15 10 -62 10q-54 0 -54 -28q0 -6 2 -13v-266q3 -46 55 -46q44 0 64 18.5t20 72.5h47v-46q0 -32 -20 -56q-22 -27 -56 -27h-119z" />
    <glyph glyph-name="eacute" unicode="&#xe9;" horiz-adv-x="490" 
d="M290 577q-188 -73 -188 -75q0 -4 3.5 -19t5.5 -13q1 1 101 20.5t100 22.5q0 6 -22 64zM407 303q0 -27 -15 -53q-17 -32 -47 -32h-123l-2 -151q0 -35 50 -35q94 0 90 102l42 -1v-34q0 -51 -49 -78q-37 -21 -80 -21h-54h-58q-115 0 -145 64q-16 35 -16 166q0 102 24 146
q22 41 78 51q32 6 141 6q85 0 118 -19q46 -28 46 -111zM353 308q0 94 -85 94q-38 0 -47 -30q-4 -11 -4 -52q0 -3 -1 -14t-1 -18q0 -42 29 -42h20q16 -1 20 -1q45 0 57 9.5t12 53.5z" />
    <glyph glyph-name="egrave" unicode="&#xe8;" horiz-adv-x="483" 
d="M121 578q188 -73 188 -76t-3.5 -18t-5.5 -13q-1 1 -101.5 20.5t-100.5 22.5q0 5 23 64zM407 303q0 -27 -15 -53q-17 -32 -47 -32h-123l-2 -151q0 -35 50 -35q94 0 90 102l42 -1v-34q0 -51 -49 -78q-37 -21 -80 -21h-54h-58q-115 0 -145 64q-16 35 -16 166q0 102 24 146
q22 41 78 51q32 6 141 6q85 0 118 -19q46 -28 46 -111zM353 308q0 94 -85 94q-38 0 -47 -30q-4 -11 -4 -52q0 -3 -1 -14t-1 -18q0 -42 29 -42h20q16 -1 20 -1q45 0 57 9.5t12 53.5z" />
    <glyph glyph-name="ecircumflex" unicode="&#xea;" horiz-adv-x="483" 
d="M328 501l-10 -30l-121 43l-121 -43l-9 30l128 81l2 -1l2 1l1 -2zM407 303q0 -27 -15 -53q-17 -32 -47 -32h-123l-2 -151q0 -35 50 -35q94 0 90 102l42 -1v-34q0 -51 -49 -78q-37 -21 -80 -21h-54h-58q-115 0 -145 64q-16 35 -16 166q0 102 24 146q22 41 78 51q32 6 141 6
q85 0 118 -19q46 -28 46 -111zM353 308q0 94 -85 94q-38 0 -47 -30q-4 -11 -4 -52q0 -3 -1 -14t-1 -18q0 -42 29 -42h20q16 -1 20 -1q45 0 57 9.5t12 53.5z" />
    <glyph glyph-name="edieresis" unicode="&#xeb;" horiz-adv-x="483" 
d="M233 522q0 21 14 35t35 14q20 0 34.5 -14t14.5 -35q0 -20 -14.5 -34.5t-34.5 -14.5q-21 0 -35 14.5t-14 34.5zM62 522q0 21 14 35t35 14q20 0 34.5 -14t14.5 -35q0 -20 -14.5 -34.5t-34.5 -14.5q-21 0 -35 14.5t-14 34.5zM407 303q0 -27 -15 -53q-17 -32 -47 -32
q-36 0 -125 -1v-150q0 -35 50 -35q94 0 90 102l42 -1v-34q0 -51 -49 -78q-37 -21 -80 -21h-54h-58q-115 0 -145 64q-16 35 -16 166q0 102 24 146q22 41 78 51q32 6 141 6q85 0 118 -19q46 -28 46 -111zM353 308q0 94 -85 94q-38 0 -47 -30q-4 -11 -4 -52q0 -3 -1 -14t-1 -18
q0 -42 29 -42h20q16 -1 20 -1q45 0 57 9.5t12 53.5z" />
    <glyph glyph-name="iacute" unicode="&#xed;" horiz-adv-x="312" 
d="M221 1h-215v431h215v-431zM196 577q-188 -73 -188 -75q0 -4 3.5 -19t5.5 -13q1 1 101 20.5t100 22.5q0 6 -22 64z" />
    <glyph glyph-name="igrave" unicode="&#xec;" horiz-adv-x="312" 
d="M221 1h-215v430h215v-430zM31 578q188 -73 188 -76t-3.5 -18t-5.5 -13q-1 1 -101.5 20.5t-100.5 22.5q0 5 23 64z" />
    <glyph glyph-name="icircumflex" unicode="&#xee;" horiz-adv-x="312" 
d="M221 1h-215v430h215v-430zM244 501l-10 -30l-121 43l-121 -43l-9 30l128 81l2 -1l2 1l1 -2z" />
    <glyph glyph-name="idieresis" unicode="&#xef;" horiz-adv-x="312" 
d="M221 1h-215v430h215v-430zM143 522q0 21 14 35t35 14q20 0 34.5 -14t14.5 -35q0 -20 -14.5 -34.5t-34.5 -14.5q-21 0 -35 14.5t-14 34.5zM-28 522q0 21 14 35t35 14q20 0 34.5 -14t14.5 -35q0 -20 -14.5 -34.5t-34.5 -14.5q-21 0 -35 14.5t-14 34.5z" />
    <glyph glyph-name="ntilde" unicode="&#xf1;" horiz-adv-x="539" 
d="M137 507q-27 0 -34 -6q-3 -3 -3 -16h-47q0 28 31 50q28 20 58 20q28 0 53.5 -14t47.5 -12q13 0 25 1.5t31 21.5h43q0 -29 -32 -51.5t-73 -20.5q-24 1 -48 14t-52 13zM453 0h-55v337q0 30 -32 51q-26 18 -50 18q-28 0 -59 -21q-34 -23 -34 -52v-333h-223v433h137
q58 0 83 -42q24 32 49 41q16 6 52 6q130 0 131 -107z" />
    <glyph glyph-name="oacute" unicode="&#xf3;" horiz-adv-x="514" 
d="M290 577q-188 -73 -188 -75q0 -4 3.5 -19t5.5 -13q1 1 101 20.5t100 22.5q0 6 -22 64zM417 93q0 -64 -73 -85q-37 -11 -110 -11h-106q-38 0 -76 19q-51 26 -51 71v254q0 31 35.5 62t63.5 31h220q30 0 63.5 -32.5t33.5 -60.5v-248zM365 123v206q0 35 -28 57.5t-62 19.5
q-29 -2 -39 -7q-15 -7 -15 -28v-253q0 -48 4 -62q9 -32 45 -32q43 0 69 26t26 73z" />
    <glyph glyph-name="ograve" unicode="&#xf2;" horiz-adv-x="500" 
d="M129 578q188 -73 188 -76t-3.5 -18t-5.5 -13q-1 1 -101.5 20.5t-100.5 22.5q0 5 23 64zM417 93q0 -64 -73 -85q-37 -11 -110 -11h-106q-38 0 -76 19q-51 26 -51 71v254q0 31 35.5 62t63.5 31h220q30 0 63.5 -32.5t33.5 -60.5v-248zM365 123v206q0 35 -28 57.5t-62 19.5
q-29 -2 -39 -7q-15 -7 -15 -28v-253q0 -48 4 -62q9 -32 45 -32q43 0 69 26t26 73z" />
    <glyph glyph-name="ocircumflex" unicode="&#xf4;" horiz-adv-x="500" 
d="M338 501l-10 -30l-121 43l-121 -43l-9 30l128 81l2 -1l2 1l1 -2zM417 93q0 -64 -73 -85q-37 -11 -110 -11h-106q-38 0 -76 19q-51 26 -51 71v254q0 31 35.5 62t63.5 31h220q30 0 63.5 -32.5t33.5 -60.5v-248zM365 123v206q0 35 -28 57.5t-62 19.5q-29 -2 -39 -7
q-15 -7 -15 -28v-253q0 -48 4 -62q9 -32 45 -32q43 0 69 26t26 73z" />
    <glyph glyph-name="odieresis" unicode="&#xf6;" horiz-adv-x="500" 
d="M243 522q0 21 14 35t35 14q20 0 34.5 -14t14.5 -35q0 -20 -14.5 -34.5t-34.5 -14.5q-21 0 -35 14.5t-14 34.5zM72 522q0 21 14 35t35 14q20 0 34.5 -14t14.5 -35q0 -20 -14.5 -34.5t-34.5 -14.5q-21 0 -35 14.5t-14 34.5zM417 93q0 -64 -73 -85q-37 -11 -110 -11h-106
q-38 0 -76 19q-51 26 -51 71v254q0 31 35.5 62t63.5 31h220q30 0 63.5 -32.5t33.5 -60.5v-248zM365 123v206q0 35 -28 57.5t-62 19.5q-29 -2 -39 -7q-15 -7 -15 -28v-253q0 -48 4 -62q9 -32 45 -32q43 0 69 26t26 73z" />
    <glyph glyph-name="otilde" unicode="&#xf5;" horiz-adv-x="500" 
d="M421 93q0 -64 -73 -85q-37 -11 -110 -11h-106q-38 0 -76 19q-51 26 -51 71v254q0 31 35.5 62t63.5 31h220q30 0 63.5 -32.5t33.5 -60.5v-248zM369 123v206q0 35 -29.5 58t-64.5 23q-50 0 -50 -39v-253q0 -48 4 -62q9 -32 45 -32q43 0 69 26t26 73zM147 507q-27 0 -34 -6
q-3 -3 -3 -16h-47q0 28 31 50q28 20 58 20q28 0 53.5 -14t47.5 -12q13 0 25 1.5t31 21.5h43q0 -29 -32 -51.5t-73 -20.5q-24 1 -48 14t-52 13z" />
    <glyph glyph-name="uacute" unicode="&#xfa;" horiz-adv-x="495" 
d="M413 4q11 -1 -122 -1q-29 0 -55 10.5t-25 10.5q3 0 -23 -11.5t-56 -11.5q-109 0 -126 102v326h50l1 -271q0 -60 8 -81q17 -45 76 -45q57 0 57 30v370h215v-428zM290 577q-188 -73 -188 -75q0 -4 3.5 -19t5.5 -13q1 1 101 20.5t100 22.5q0 6 -22 64z" />
    <glyph glyph-name="ugrave" unicode="&#xf9;" horiz-adv-x="495" 
d="M412 1h-147q-29 0 -42 11.5t-12 11.5q3 0 -23.5 -10.5t-55.5 -10.5q-109 0 -126 100v329h50l1 -274q0 -56 12 -83q20 -45 79 -45q50 0 50 32v373h215zM131 578q188 -73 188 -76t-3.5 -18t-5.5 -13q-1 1 -101.5 20.5t-100.5 22.5q0 5 23 64z" />
    <glyph glyph-name="ucircumflex" unicode="&#xfb;" horiz-adv-x="495" 
d="M413 4q11 -1 -122 -1q-29 0 -55 10.5t-25 10.5q3 0 -23.5 -10.5t-55.5 -10.5q-109 0 -126 100v326h50l1 -271q0 -56 12 -83q20 -45 79 -45q50 0 50 32v370h215v-428zM338 501l-10 -30l-121 43l-121 -43l-9 30l128 81l2 -1l2 1l1 -2z" />
    <glyph glyph-name="udieresis" unicode="&#xfc;" horiz-adv-x="495" 
d="M413 4q1 0 -145 0q-29 0 -43.5 10t-13.5 10q3 0 -23 -13t-56 -13q-108 0 -126 105l1 326h50v-271q0 -56 12 -83q20 -45 79 -45q50 0 50 32v370h215v-428zM243 522q0 21 14 35t35 14q20 0 34.5 -14t14.5 -35q0 -20 -14.5 -34.5t-34.5 -14.5q-21 0 -35 14.5t-14 34.5z
M72 522q0 21 14 35t35 14q20 0 34.5 -14t14.5 -35q0 -20 -14.5 -34.5t-34.5 -14.5q-21 0 -35 14.5t-14 34.5z" />
    <glyph glyph-name="dagger" unicode="&#x2020;" horiz-adv-x="26" 
 />
    <glyph glyph-name="degree" unicode="&#xb0;" horiz-adv-x="300" 
d="M119 664q49 0 83 -35.5t34 -85.5t-34 -86t-83 -36t-83 36t-34 86t34 85.5t83 35.5zM119 629q-34 0 -58 -25t-24 -61t24 -61.5t58 -25.5t58 25.5t24 61.5t-24 61t-58 25z" />
    <glyph glyph-name="cent" unicode="&#xa2;" horiz-adv-x="480" 
d="M184 680h52v-85h70q28 0 56 -25.5t34 -61.5v-33h-46q2 52 -22 67q-15 10 -62 10q-27 0 -36 -4q-18 -8 -16 -37v-266q-2 -46 55 -46q44 0 64 18.5t20 72.5h47v-46q0 -32 -20 -56q-22 -27 -56 -27h-88v-96h-52v96h-74q-35 0 -70 29q-40 33 -40 81v223q0 36 34.5 68.5
t68.5 32.5h81v85z" />
    <glyph glyph-name="sterling" unicode="&#xa3;" horiz-adv-x="614" 
d="M-26 377h76q-12 19 -23 39q-16 29 -22 61q1 0 1 66q-1 50 26 86q34 47 100 47h257q51 0 88 -35t36 -89q1 -42 0 -87q-29 2 -61 1v93q0 30 -32.5 49t-68.5 17q-48 -3 -60 -7q-38 -11 -38 -43q-2 -18 -2 -48q0 -31 2 -33q5 -34 32 -67q33 -42 37 -50h136v-55l-133 -1
q-30 -136 -60 -275l96 1q98 2 98 78q-3 21 -1 76h63v-92q0 -48 -43 -81q-37 -28 -74 -28h-397q-4 13 -5 50q25 104 60 272h-88v55z" />
    <glyph glyph-name="section" unicode="&#xa7;" 
 />
    <glyph glyph-name="bullet" unicode="&#x2022;" horiz-adv-x="561" 
d="M25 319q0 88 62 150t150 62t150 -62t62 -150t-62 -150t-150 -62t-150 62t-62 150z" />
    <glyph glyph-name="paragraph" unicode="&#xb6;" 
 />
    <glyph glyph-name="germandbls" unicode="&#xdf;" horiz-adv-x="500" 
d="M353 92v198q-5 34 -11 45q-16 28 -64 28q-9 0 -20 -1v41q55 -1 76 18q15 14 15 47q0 7 -1 22v23q0 71 -4 84q-10 37 -55 37l-64 1q-59 0 -59 -110q0 -30 4 -59q-1 -35 17 -52q13 -13 27 -13q5 0 2 2v-402l-216 1q-3 440 3 558q6 115 124 115q174 0 172 0q53 2 80 -26
q24 -25 22 -64q1 -71 1 -139q-3 -16 -8 -28q-14 -29 -40 -36q39 -9 54 -49v-257q-3 -38 -16 -53q-17 -19 -62 -19h-61v47h9q8 -1 15 -1q60 0 60 42z" />
    <glyph glyph-name="registered" unicode="&#xae;" horiz-adv-x="374" 
d="M162 383q-62 0 -106 45t-44 108q0 62 44 106t106 44t104.5 -44.5t42.5 -107.5t-42.5 -107t-104.5 -44zM162 406q51 0 88 37.5t37 90.5t-37 90.5t-88 37.5q-54 1 -90 -36t-36 -92q0 -53 37.5 -90.5t88.5 -37.5zM176 534l47 -72h-26l-47 72h-26v-72h-22v157h68q-6 0 -5 1h7
q52 0 52 -40q0 -44 -48 -46zM126 557h45q30 0 30 23q0 17 -34 17h-41v-40z" />
    <glyph glyph-name="copyright" unicode="&#xa9;" horiz-adv-x="772" 
d="M346 -11q-143 0 -242.5 100t-99.5 244q0 145 99.5 245t242.5 100t243 -100t100 -245q0 -144 -100 -244t-243 -100zM346 635q-122 0 -211 -88t-89 -214q0 -125 89 -213t211 -88t211 88t89 213q0 126 -89 214t-211 88zM355 139q-86 0 -136.5 55t-50.5 142q0 83 52 139.5
t136 56.5q59 0 103 -34t54 -91h-45q-22 81 -112 81q-67 0 -106 -44t-39 -110q0 -60 34 -103q40 -49 109 -49q94 0 115 79h43q-13 -57 -55.5 -89.5t-101.5 -32.5z" />
    <glyph glyph-name="trademark" unicode="&#x2122;" horiz-adv-x="481" 
d="M401 650v-196h-27v167h-2l-66 -167h-17l-65 167v0v-167h-28v196h46l56 -141l57 141h46zM159 650v-29h-64v-167h-28v167h-65v29h157z" />
    <glyph glyph-name="acute" unicode="&#xb4;" horiz-adv-x="601" 
d="M350 808q-190 -75 -190 -78t4.5 -21t6.5 -16q1 1 104.5 17.5t103.5 19.5q0 5 -29 78z" />
    <glyph glyph-name="dieresis" unicode="&#xa8;" horiz-adv-x="593" 
d="M293 762q0 21 14 35t35 14q20 0 34.5 -14t14.5 -35q0 -20 -14.5 -34.5t-34.5 -14.5q-21 0 -35 14.5t-14 34.5zM122 762q0 21 14 35t35 14q20 0 34.5 -14t14.5 -35q0 -20 -14.5 -34.5t-34.5 -14.5q-21 0 -35 14.5t-14 34.5z" />
    <glyph glyph-name="AE" unicode="&#xc6;" horiz-adv-x="1048" 
d="M446 2l-1 232h-173v-233h-272v524q0 62 38 104q41 47 112 47h222q64 0 104 -43q34 44 108 44l254 -1q58 0 87 -36.5t29 -94.5v-72l-58 -1v81q0 28 -17 48q-22 25 -64 25h-31q-60 0 -61 -63l-1 -171h152v-51h-152v-250q0 -21 16 -34t37 -13h19h18q34 0 59 22q27 26 27 70
q0 58 1 64h59v-73q0 -57 -36.5 -91.5t-91.5 -34.5zM445 281v272q0 27 -14 49q-18 27 -49 27h-58q-32 0 -44 -24q-8 -17 -8 -57v-267h173z" />
    <glyph glyph-name="Oslash" unicode="&#xd8;" horiz-adv-x="613" 
d="M278 226l151 381q-21 21 -73 21q-84 0 -78 -55v-347zM453 507l-172 -433q11 -30 60 -30q45 0 67 10q36 15 45 61v392zM527 693l-28 -70q18 -30 18 -65l-1 -446q0 -34 -34 -70q-38 -40 -86 -41h-145l-18 -46h-63l18 45h-43q-54 0 -92 29q-45 34 -52 100l-1 395
q0 152 133 152h254q42 0 66 -11l11 28h63z" />
    <glyph glyph-name="plusminus" unicode="&#xb1;" 
 />
    <glyph glyph-name="yen" unicode="&#xa5;" horiz-adv-x="601" 
d="M501 110h-120v-109h-266v109h-110v52h110v58h-110v52h110v34q-52 18 -84 54.5t-32 77.5l1 236h263l-1 -255q0 -61 69 -69q38 -5 70.5 19.5t32.5 71.5l1 233h64l-1 -240q0 -110 -118 -131v-31h121v-52h-121l1 -58h120v-52z" />
    <glyph glyph-name="uni00B5" unicode="&#xb5;" horiz-adv-x="653" 
d="M-2 191l59 40v445h272v-263l116 78v-78l-116 -77l1 -291h81q98 0 98 80q-3 21 -1 76h63v-92q0 -48 -43 -81q-37 -28 -74 -28h-397v153l-59 -40v78z" />
    <glyph glyph-name="uni00B5" unicode="&#x3bc;" horiz-adv-x="653" 
d="M-2 191l59 40v445h272v-263l116 78v-78l-116 -77l1 -291h81q98 0 98 80q-3 21 -1 76h63v-92q0 -48 -43 -81q-37 -28 -74 -28h-397v153l-59 -40v78z" />
    <glyph glyph-name="ordfeminine" unicode="&#xaa;" horiz-adv-x="648" 
d="M544 112q0 -38 -43 -74.5t-80 -36.5h-410l225 634q-1 -2 -5 -2h-73q-28 0 -56.5 -29t-28.5 -51v-79h-65v84q0 40 40.5 79t82.5 38h392l-225 -636q-1 5 6 5h90q86 0 86 139v25q-1 12 -1 13h65v-109zM420 782l-9 30l-121 -44l-122 44l-9 -30l128 -82l3 1l2 -1l1 2z" />
    <glyph glyph-name="ordmasculine" unicode="&#xba;" horiz-adv-x="506" 
d="M418 99q0 -99 -56 -99h-354l157 397l-20 2h-67q-23 0 -23 -32q0 -30 0 -29h-46q-1 4 -1 28q0 70 59 70q8 0 23 -3l310 1l-154 -398q27 0 60 -1q50 -2 58 11q5 10 5 84l49 3v-17v-17zM350 542l-9 30l-121 -44l-122 44l-9 -30l128 -82l3 1l2 -1l1 2z" />
    <glyph glyph-name="ae" unicode="&#xe6;" horiz-adv-x="697" 
d="M190 63v170h-47q-89 0 -89 -101q0 -99 87 -99q49 0 49 30zM599 303q0 -28 -13 -52q-16 -31 -46 -31q-37 0 -62 -1q-25 0 -22 0q-26 0 -34 4q-9 8 -9 2l-1 -149q0 -23 20 -36q16 -10 35 -10q81 0 85 104l43 -1v-34q0 -51 -49 -78q-37 -20 -81 -20h-200q-24 0 -43.5 13
l-19.5 13q-3 0 -14 -12.5t-15 -13.5h-49q-43 0 -79 29t-42 75q-2 15 -2 31q0 124 111 124q81 0 78 -1v120q0 22 -37 22q-28 0 -49 -16q-26 -19 -29 -57q-25 -4 -50 1v18q0 86 156 86h256q85 0 117 -19q45 -28 45 -111zM549 308q0 99 -83 99q-38 0 -49 -33q-4 -13 -4 -54
q0 -37 2 -43q5 -31 30 -31h18q13 -1 17 -1q45 0 57 9.5t12 53.5z" />
    <glyph glyph-name="oslash" unicode="&#xf8;" horiz-adv-x="521" 
d="M225 148l112 239q-25 16 -58 16q-54 0 -54 -32v-223zM368 341l-136 -289q12 -25 44 -25q93 0 93 96v206q0 6 -1 12zM366 450h52l-25 -54q28 -30 28 -55v-248q0 -64 -73 -85q-37 -11 -110 -11h-31l-17 -36h-53l17 36h-22q-38 0 -76 19q-51 26 -51 71v254q0 31 35.5 62
t63.5 31h220q14 0 31 -8z" />
    <glyph glyph-name="questiondown" unicode="&#xbf;" horiz-adv-x="584" 
d="M3 -28q0 68 20 101q27 48 107 71q-2 42 -1 133h268v-172h-83q-35 0 -35 -67v-158q8 -32 32 -41q11 -3 45 -3q100 0 100 122q7 2 35 2q28 1 32 -2q1 -9 1 -17q0 -54 -40.5 -96.5t-90.5 -42.5h-262q-72 0 -104 62q-24 44 -24 108zM123 405q0 80 102 80h21q13 -1 17 -1
q66 0 84 -4q57 -16 57 -75t-58 -75q-20 -5 -82 -5q-63 0 -83 5q-58 16 -58 75z" />
    <glyph glyph-name="exclamdown" unicode="&#xa1;" horiz-adv-x="361" 
d="M29 280h216l30 -477h-276zM-4 403q0 58 49 73q21 7 98 7q63 0 87 -7q56 -16 56 -71q0 -81 -110 -81q-9 0 -21 1h-15q-60 0 -84 7q-60 17 -60 71z" />
    <glyph glyph-name="logicalnot" unicode="&#xac;" 
 />
    <glyph glyph-name="florin" unicode="&#x192;" horiz-adv-x="663" 
d="M-1 445h49v85q0 65 33 105t92 40h253q59 0 85 -14q47 -26 47 -102q-36 -5 -63 -1v8q1 24 -15 45q-20 25 -51 25h-59q-54 0 -55 -60v-131h157v-45h-157v-72h157v-45h-157v-180q0 -56 49 -64q-2 0 62 0q43 0 58 25q11 19 11 63h2q27 5 60 0q0 -68 -22 -96q-25 -31 -89 -31
h-279q-42 1 -80.5 41.5t-38.5 83.5v158h-49v45h49v72h-49v45z" />
    <glyph glyph-name="guillemotleft" unicode="&#xab;" horiz-adv-x="303" 
d="M209 455l16 -7l-43 -126l47 -130l-16 -7l-99 134l1 3l-1 2l2 1zM99 455l16 -7l-43 -126l47 -130l-16 -7l-99 134l1 3l-1 2l2 1z" />
    <glyph glyph-name="guillemotright" unicode="&#xbb;" horiz-adv-x="303" 
d="M24 455l-16 -7l42 -126l-46 -130l16 -7l99 134l-1 3l1 2l-3 1zM134 455l-16 -7l42 -126l-46 -130l16 -7l99 134l-1 3l1 2l-3 1z" />
    <glyph glyph-name="ellipsis" unicode="&#x2026;" horiz-adv-x="1230" 
d="M693 79q2 -81 -97 -81q-10 0 -25 1t-17 1q-61 0 -85 7q-57 17 -56 73q1 57 55 71q17 4 83 4q63 0 82 -5q58 -15 60 -71zM1093 79q2 -81 -97 -81q-10 0 -25 1t-17 1q-61 0 -85 7q-57 17 -56 73q1 57 55 71q17 4 83 4q63 0 82 -5q58 -15 60 -71zM293 79q2 -81 -97 -81
q-10 0 -25 1t-17 1q-61 0 -85 7q-57 17 -56 73q1 57 55 71q17 4 83 4q63 0 82 -5q58 -15 60 -71z" />
    <glyph glyph-name="uni00A0" unicode="&#xa0;" 
 />
    <glyph glyph-name="Agrave" unicode="&#xc0;" horiz-adv-x="642" 
d="M513 524l-1 -524l-68 1l-1 233h-173v-234h-272v525q0 62 38 104q41 46 112 46h222q69 0 108 -46q35 -41 35 -105zM443 281v272q0 24 -20 50t-43 26h-58q-32 0 -44 -24q-8 -17 -8 -57v-267h173zM184 818q190 -75 190 -78t-4.5 -21t-6.5 -16q-1 1 -104.5 17.5t-103.5 19.5
q0 5 29 78z" />
    <glyph glyph-name="Atilde" unicode="&#xc3;" horiz-adv-x="628" 
d="M513 524l-1 -524l-68 1l-1 233h-173l1 -234h-273v525q0 62 38 104q41 46 112 46h222q69 0 108 -46q35 -41 35 -105zM443 281v272q0 24 -20 50t-43 26h-58q-32 0 -44 -24q-8 -17 -8 -57v-267h173zM187 757q-27 0 -34 -6q-3 -3 -3 -16h-47q0 28 31 50q28 20 58 20
q28 0 53.5 -14t47.5 -12q13 0 25 1.5t31 21.5h43q0 -29 -32 -51.5t-73 -20.5q-24 1 -48 14t-52 13z" />
    <glyph glyph-name="Otilde" unicode="&#xd5;" horiz-adv-x="630" 
d="M516 112q0 -35 -34 -72q-38 -41 -86 -39l-251 -1q-54 0 -92 29q-45 34 -52 100l-1 395q0 152 133 152h254q59 5 97 -34q33 -34 33 -84zM453 542q-4 52 -30 71q-21 15 -67 15q-84 0 -78 -55v-483q0 -46 63 -46q45 0 67 10q36 15 45 61v427zM197 757q-27 0 -34 -6
q-3 -3 -3 -16h-47q0 28 31 50q28 20 58 20q28 0 53.5 -14t47.5 -12q13 0 25 1.5t31 21.5h43q0 -29 -32 -51.5t-73 -20.5q-24 1 -48 14t-52 13z" />
    <glyph glyph-name="OE" unicode="&#x152;" horiz-adv-x="1078" 
d="M451 140l2 407q-5 47 -30 65q-21 16 -67 16q-84 0 -78 -55v-483q0 -43 74 -43q58 0 76 14q23 18 23 79zM955 545v-74h-58v82q0 28 -17 48q-22 25 -64 25h-31q-60 0 -61 -63l-1 -171h152v-51h-152v-250q0 -47 53 -47h19h18q34 0 61 25.5t27 69.5q0 23 -1 61h59v-73
q0 -57 -36.5 -91.5t-91.5 -34.5l-252 -1q-58 0 -95 42q-38 -42 -88 -42h-251q-54 0 -92 29q-45 34 -52 100l-1 395q0 152 133 152h254q65 0 98 -35q35 35 99 35h255q116 0 116 -131z" />
    <glyph glyph-name="oe" unicode="&#x153;" horiz-adv-x="873" 
d="M369 123v206q0 35 -29.5 58t-64.5 23q-50 0 -50 -39v-253q0 -48 4 -62q9 -32 45 -32q43 0 69 26t26 73zM776 303q0 -28 -13 -52q-17 -31 -47 -31q-36 0 -61 -1q-25 0 -23 0q-26 0 -34 4q-9 8 -9 2v-158q0 -39 51 -39q85 0 89 106l42 -1v-34q0 -51 -49 -78
q-37 -20 -80 -20h-112q-90 0 -126 40q-36 -44 -166 -44h-106q-38 0 -76 19q-51 26 -51 71v254q0 31 35.5 62t63.5 31h220q38 0 75 -44q22 45 119 45q12 0 44 -1t51 -1q85 0 118 -19q45 -28 45 -111zM722 308q0 99 -83 99q-38 0 -49 -33q-4 -13 -4 -54q0 -37 2 -43
q5 -31 30 -31h18q13 -1 17 -1q45 0 57 9.5t12 53.5z" />
    <glyph glyph-name="endash" unicode="&#x2013;" horiz-adv-x="495" 
d="M6 330h395v-135h-395v135z" />
    <glyph glyph-name="emdash" unicode="&#x2014;" horiz-adv-x="872" 
d="M6 330h765v-135h-765v135z" />
    <glyph glyph-name="quotedblleft" unicode="&#x201c;" horiz-adv-x="698" 
d="M6 537q0 -140 78 -140h130v41h-84q-51 0 -51 49q0 22 6 30h136q29 0 51 32q19 27 19 49q0 24 -20 49q-23 28 -52 28l-126 1q-87 0 -87 -139zM326 537q0 -140 78 -140h130v41h-84q-51 0 -51 49q0 22 6 30h136q29 0 51 32q19 27 19 49q0 24 -20 49q-23 28 -52 28l-126 1
q-87 0 -87 -139z" />
    <glyph glyph-name="quotedblright" unicode="&#x201d;" horiz-adv-x="676" 
d="M597 537q0 -140 -78 -140h-130v41h84q51 0 51 49q0 22 -6 30h-136q-29 0 -51 32q-18 27 -18 49q0 24 19 49q23 28 52 28l126 1q87 0 87 -139zM277 537q0 -140 -78 -140h-130v41h84q51 0 51 49q0 22 -6 30h-136q-29 0 -51 32q-18 27 -18 49q0 24 19 49q23 28 52 28l126 1
q87 0 87 -139z" />
    <glyph glyph-name="quoteleft" unicode="&#x2018;" horiz-adv-x="353" 
d="M3 537q0 -140 78 -140h129v41h-83q-51 0 -51 49q0 22 5 30h137q28 0 50 32q19 27 19 49q0 25 -21 51.5t-51 26.5h-76t-49 0q-87 0 -87 -139z" />
    <glyph glyph-name="quoteright" unicode="&#x2019;" horiz-adv-x="356" 
d="M277 537q0 -140 -78 -140h-130v41h84q51 0 51 49q0 22 -6 30h-136q-29 0 -51 32q-18 27 -18 49q0 25 19 50q23 28 52 28h76h50q87 0 87 -139z" />
    <glyph glyph-name="divide" unicode="&#xf7;" 
 />
    <glyph glyph-name="ydieresis" unicode="&#xff;" horiz-adv-x="532" 
d="M243 522q0 21 14 35t35 14q20 0 34.5 -14t14.5 -35q0 -20 -14.5 -34.5t-34.5 -14.5q-21 0 -35 14.5t-14 34.5zM72 522q0 21 14 35t35 14q20 0 34.5 -14t14.5 -35q0 -20 -14.5 -34.5t-34.5 -14.5q-21 0 -35 14.5t-14 34.5zM418 -133q-2 -46 -33 -76.5t-69 -31.5l-202 1
q-43 0 -74.5 30t-31.5 74v70h54v-83q0 -43 54 -54q14 -3 69 -3q48 0 63 12q24 21 21 97q-2 42 -4 50q-12 47 -56 47h-111q-95 0 -95 121v312h56v-341q-2 -54 78 -54q63 0 63 58l-2 337h219z" />
    <glyph glyph-name="Ydieresis" unicode="&#x178;" horiz-adv-x="607" 
d="M293 762q0 21 14 35t35 14q20 0 34.5 -14t14.5 -35q0 -20 -14.5 -34.5t-34.5 -14.5q-21 0 -35 14.5t-14 34.5zM122 762q0 21 14 35t35 14q20 0 34.5 -14t14.5 -35q0 -20 -14.5 -34.5t-34.5 -14.5q-21 0 -35 14.5t-14 34.5zM381 1h-266q-3 305 0 305q-52 18 -84 54.5
t-32 77.5l1 236h263l-1 -255q0 -61 69 -69q38 -5 70.5 19.5t32.5 71.5l1 233h64l-1 -240q0 -110 -118 -131l1 -148v-154z" />
    <glyph glyph-name="currency" unicode="&#xa4;" 
 />
    <glyph glyph-name="guilsinglleft" unicode="&#x2039;" horiz-adv-x="199" 
d="M99 455l16 -7l-43 -126l47 -130l-16 -7l-99 134l1 3l-1 2l2 1z" />
    <glyph glyph-name="guilsinglright" unicode="&#x203a;" horiz-adv-x="199" 
d="M24 455l-16 -7l42 -126l-46 -130l16 -7l99 134l-1 3l1 2l-3 1z" />
    <glyph glyph-name="daggerdbl" unicode="&#x2021;" 
 />
    <glyph glyph-name="periodcentered" unicode="&#xb7;" horiz-adv-x="344" 
d="M268 270q2 -82 -103 -82q-11 0 -25 1t-16 1q-58 0 -80 7q-52 17 -51 73q1 57 50 71q16 4 78 4q67 0 85 -4q60 -14 62 -71z" />
    <glyph glyph-name="periodcentered" unicode="&#x2219;" horiz-adv-x="344" 
d="M268 270q2 -82 -103 -82q-11 0 -25 1t-16 1q-58 0 -80 7q-52 17 -51 73q1 57 50 71q16 4 78 4q67 0 85 -4q60 -14 62 -71z" />
    <glyph glyph-name="quotesinglbase" unicode="&#x201a;" horiz-adv-x="375" 
d="M277 17q0 -140 -78 -140h-130v41h84q51 0 51 49q0 22 -6 30h-136q-29 0 -51 32q-18 27 -18 49q0 25 19 50q23 28 52 28h76h50q87 0 87 -139z" />
    <glyph glyph-name="quotedblbase" unicode="&#x201e;" horiz-adv-x="696" 
d="M597 17q0 -140 -78 -140h-130v41h84q51 0 51 49q0 22 -6 30h-136q-29 0 -51 32q-18 27 -18 49q0 24 19 49q23 28 52 28l126 1q87 0 87 -139zM277 17q0 -140 -78 -140h-130v41h84q51 0 51 49q0 22 -6 30h-136q-29 0 -51 32q-18 27 -18 49q0 24 19 49q23 28 52 28l126 1
q87 0 87 -139z" />
    <glyph glyph-name="perthousand" unicode="&#x2030;" 
 />
    <glyph glyph-name="Acircumflex" unicode="&#xc2;" horiz-adv-x="621" 
d="M513 524v-525l-69 1l-1 234h-173l1 -234h-273v525q0 62 38 104q41 46 112 46h222q69 0 107 -46q36 -42 36 -105zM443 281v272q0 24 -20 50t-43 26h-58q-32 0 -44 -24q-8 -17 -8 -57v-267h173zM390 730l-9 -30l-121 43l-122 -43l-9 30l128 82l3 -1l2 1l1 -3z" />
    <glyph glyph-name="Ecircumflex" unicode="&#xca;" horiz-adv-x="613" 
d="M502 545v-74l-58 1v81q0 28 -17 48q-22 25 -64 25h-31q-60 0 -61 -63l-1 -171h152v-51h-152v-250q0 -47 53 -47q5 0 16.5 1t16.5 1q35 0 60 21q30 25 30 69q0 58 1 64h59v-73q0 -57 -36.5 -92t-91.5 -35h-252q-54 0 -90 37t-36 90v429q1 118 131 119l255 1q71 0 104 -65
q12 -22 12 -66zM370 730l-9 -30l-121 43l-122 -43l-9 30l128 82l3 -1l2 1l1 -3z" />
    <glyph glyph-name="Aacute" unicode="&#xc1;" horiz-adv-x="621" 
d="M513 524v-525l-69 1l-1 234h-173l1 -234h-273v525q0 62 38 104q41 46 112 46h222q69 0 107 -46q36 -42 36 -105zM443 281v272q0 24 -20 50t-43 26h-58q-32 0 -44 -24q-8 -17 -8 -57v-267h173zM350 818q-190 -75 -190 -78t4.5 -21t6.5 -16q1 1 104.5 17.5t103.5 19.5
q0 5 -29 78z" />
    <glyph glyph-name="Edieresis" unicode="&#xcb;" horiz-adv-x="617" 
d="M502 545v-73h-58v81q0 28 -17 48q-22 25 -64 25h-31q-60 0 -61 -63l-1 -171h152v-51h-152v-250q0 -47 53 -47q5 0 20.5 1t20.5 1q33 0 57 22q28 25 28 69q0 6 -3 31q-1 18 1 32h59v-73q0 -57 -36.5 -92t-91.5 -35h-252q-54 0 -90 37t-36 90v429q1 118 131 119l255 1
q71 0 104 -65q12 -22 12 -66zM283 762q0 21 14 35t35 14q20 0 34.5 -14t14.5 -35q0 -20 -14.5 -34.5t-34.5 -14.5q-21 0 -35 14.5t-14 34.5zM112 762q0 21 14 35t35 14q20 0 34.5 -14t14.5 -35q0 -20 -14.5 -34.5t-34.5 -14.5q-21 0 -35 14.5t-14 34.5z" />
    <glyph glyph-name="Egrave" unicode="&#xc8;" horiz-adv-x="607" 
d="M502 545v-73h-58v81q0 28 -17 48q-22 25 -64 25h-31q-60 0 -61 -63l-1 -171h152v-51h-152v-250q0 -47 53 -47q5 0 20.5 2.5t20.5 2.5q33 0 57 22q28 25 28 68q0 23 -2 61h59v-73q0 -57 -36.5 -92t-91.5 -35h-252q-54 0 -90 37t-36 90v429q1 118 131 119l255 1
q71 0 104 -65q12 -22 12 -66zM164 818q190 -75 190 -78t-4.5 -21t-6.5 -16q-1 1 -104.5 17.5t-103.5 19.5q0 5 29 78z" />
    <glyph glyph-name="Iacute" unicode="&#xcd;" horiz-adv-x="388" 
d="M279 0h-272v676h272v-676zM230 818q-190 -75 -190 -78t4.5 -21t6.5 -16q1 1 104.5 17.5t103.5 19.5q0 5 -29 78z" />
    <glyph glyph-name="Icircumflex" unicode="&#xce;" horiz-adv-x="389" 
d="M279 0h-272v676h272v-676zM270 730l-9 -30l-121 43l-122 -43l-9 30l128 82l3 -1l2 1l1 -3z" />
    <glyph glyph-name="Idieresis" unicode="&#xcf;" horiz-adv-x="396" 
d="M279 0h-272v676h272v-676zM179 762q0 21 14 35t35 14q20 0 34.5 -14t14.5 -35q0 -20 -14.5 -34.5t-34.5 -14.5q-21 0 -35 14.5t-14 34.5zM8 762q0 21 14 35t35 14q20 0 34.5 -14t14.5 -35q0 -20 -14.5 -34.5t-34.5 -14.5q-21 0 -35 14.5t-14 34.5z" />
    <glyph glyph-name="Igrave" unicode="&#xcc;" horiz-adv-x="388" 
d="M279 0h-272v676h272v-676zM64 818q190 -75 190 -78t-4.5 -21t-6.5 -16q-1 1 -104.5 17.5t-103.5 19.5q0 5 29 78z" />
    <glyph glyph-name="Oacute" unicode="&#xd3;" horiz-adv-x="633" 
d="M516 112q0 -35 -34 -72q-38 -41 -86 -39l-251 -1q-54 0 -92 29q-45 34 -52 100l-1 395q0 152 133 152h254q59 5 96 -32q33 -34 33 -83v-449zM453 542q-4 52 -30 71q-21 15 -67 15q-84 0 -78 -55v-483q0 -46 63 -46q45 0 67 10q36 15 45 61v427zM340 818
q-190 -75 -190 -78t4.5 -21t6.5 -16q1 1 104.5 17.5t103.5 19.5q0 5 -29 78z" />
    <glyph glyph-name="Ocircumflex" unicode="&#xd4;" horiz-adv-x="633" 
d="M516 112q0 -35 -34 -72q-38 -42 -86 -40h-251q-54 0 -92 29q-45 34 -52 100l-1 395q0 152 133 152h254q59 5 96 -34q33 -34 33 -84v-446zM453 542q-4 52 -30 71q-21 15 -67 15q-84 0 -78 -55v-483q0 -46 63 -46q45 0 67 10q36 15 45 61v427zM380 730l-9 -30l-121 43
l-122 -43l-9 30l128 82l3 -1l2 1l1 -3z" />
    <glyph glyph-name="Ograve" unicode="&#xd2;" horiz-adv-x="619" 
d="M516 112q0 -35 -34 -72q-38 -42 -86 -40h-251q-54 0 -92 29q-45 34 -52 100l-1 395q0 152 133 152h254q59 5 96 -34q33 -34 33 -84v-446zM453 542q-4 52 -30 71q-21 15 -67 15q-84 0 -78 -55v-483q0 -46 63 -46q45 0 67 10q36 15 45 61v427zM174 818q190 -75 190 -78
t-4.5 -21t-6.5 -16q-1 1 -104.5 17.5t-103.5 19.5q0 5 29 78z" />
    <glyph glyph-name="Uacute" unicode="&#xda;" horiz-adv-x="619" 
d="M513 117q0 -67 -74 -98q-46 -19 -99 -19h-122q-86 0 -121 9q-89 25 -89 109v558h267v-589q0 -21 12 -36q14 -18 37 -18q89 0 112 60q9 24 9 111v472h68v-559zM350 818q-190 -75 -190 -78t4.5 -21t6.5 -16q1 1 104.5 17.5t103.5 19.5q0 5 -29 78z" />
    <glyph glyph-name="Ucircumflex" unicode="&#xdb;" horiz-adv-x="609" 
d="M513 120q0 -67 -74 -98q-46 -19 -99 -19h-122q-86 0 -121 9q-89 25 -89 109v555h267v-586q0 -21 12 -36q14 -18 37 -18q89 0 112 58q9 24 9 110v472h68v-556zM390 730l-9 -30l-121 43l-122 -43l-9 30l128 82l3 -1l2 1l1 -3z" />
    <glyph glyph-name="Ugrave" unicode="&#xd9;" horiz-adv-x="613" 
d="M513 120q0 -67 -74 -98q-46 -19 -99 -19h-122q-86 0 -121 9q-89 25 -89 109v555h267v-586q0 -21 12 -36q14 -18 37 -18q89 0 112 58q9 24 9 110v472h68v-556zM184 818q190 -75 190 -78t-4.5 -21t-6.5 -16q-1 1 -104.5 17.5t-103.5 19.5q0 5 29 78z" />
    <glyph glyph-name="circumflex" unicode="&#x2c6;" horiz-adv-x="468" 
d="M350 730l-9 -30l-121 43l-122 -43l-9 30l128 82l3 -1l2 1l1 -3z" />
    <glyph glyph-name="tilde" unicode="&#x2dc;" horiz-adv-x="426" 
d="M137 757q-27 0 -34 -6q-3 -3 -3 -16h-47q0 28 33 52q30 24 60 24q29 0 51.5 -16t43.5 -16q34 0 33 0q4 1 25 23h43q0 -27 -35.5 -52.5t-65.5 -25.5q-24 0 -50 16.5t-54 16.5z" />
    <glyph glyph-name="macron" unicode="&#xaf;" horiz-adv-x="280" 
d="M24 790h233v-52h-233v52z" />
    <glyph glyph-name="macron" unicode="&#x2c9;" horiz-adv-x="280" 
d="M24 790h233v-52h-233v52z" />
    <glyph glyph-name="cedilla" unicode="&#xb8;" horiz-adv-x="372" 
d="M80 11h59v-56q24 4 43 4q51 0 84 -22.5t33 -53.5q0 -42 -54 -67q-48 -22 -121 -22q-8 0 -88 24l28 40q29 -19 77 -19q50 0 50 39q0 43 -47 43q-10 0 -64 1q1 65 0 89z" />
    <glyph glyph-name="Scaron" unicode="&#x160;" 
 />
    <glyph glyph-name="scaron" unicode="&#x161;" 
 />
    <glyph glyph-name="brokenbar" unicode="&#xa6;" 
 />
    <glyph glyph-name="Eth" unicode="&#xd0;" 
 />
    <glyph glyph-name="eth" unicode="&#xf0;" 
 />
    <glyph glyph-name="Yacute" unicode="&#xdd;" 
 />
    <glyph glyph-name="yacute" unicode="&#xfd;" 
 />
    <glyph glyph-name="Thorn" unicode="&#xde;" 
 />
    <glyph glyph-name="thorn" unicode="&#xfe;" 
 />
    <glyph glyph-name="uni00AD" unicode="&#xad;" 
 />
    <glyph glyph-name="uni00AD" unicode="&#x2212;" 
 />
    <glyph glyph-name="multiply" unicode="&#xd7;" 
 />
    <glyph glyph-name="uni00B9" unicode="&#xb9;" 
 />
    <glyph glyph-name="uni00B2" unicode="&#xb2;" 
 />
    <glyph glyph-name="uni00B3" unicode="&#xb3;" 
 />
    <glyph glyph-name="onehalf" unicode="&#xbd;" 
 />
    <glyph glyph-name="onequarter" unicode="&#xbc;" 
 />
    <glyph glyph-name="threequarters" unicode="&#xbe;" 
 />
    <glyph glyph-name="Lslash" unicode="&#x141;" 
 />
    <glyph glyph-name="lslash" unicode="&#x142;" 
 />
    <glyph glyph-name="glyph220" 
 />
    <glyph glyph-name="glyph221" 
 />
    <glyph glyph-name="glyph222" 
 />
    <glyph glyph-name="Zcaron" unicode="&#x17d;" 
 />
    <glyph glyph-name="zcaron" unicode="&#x17e;" 
 />
    <glyph glyph-name="glyph225" 
 />
    <glyph glyph-name="glyph226" 
 />
    <glyph glyph-name="glyph227" 
 />
    <glyph glyph-name="glyph228" 
 />
    <glyph glyph-name="glyph229" 
 />
    <glyph glyph-name="glyph230" 
 />
    <glyph glyph-name="glyph231" 
 />
    <glyph glyph-name="glyph232" horiz-adv-x="1001" 
 />
    <glyph glyph-name="notequal" unicode="&#x2260;" 
 />
    <glyph glyph-name="infinity" unicode="&#x221e;" 
 />
    <glyph glyph-name="lessequal" unicode="&#x2264;" 
 />
    <glyph glyph-name="greaterequal" unicode="&#x2265;" 
 />
    <glyph glyph-name="partialdiff" unicode="&#x2202;" horiz-adv-x="403" 
d="M265 1h-215v147l-52 -35v78l52 35v452h215v-308l64 43v-78l-64 -43v-291z" />
    <glyph glyph-name="summation" unicode="&#x2211;" horiz-adv-x="631" 
d="M528 127q0 -36 -18 -65q-35 -55 -125 -59l-247 1q-46 0 -90 35q-47 37 -47 87v110h65v-105q0 -47 43 -69q30 -16 71 -16q86 0 81 87q-7 94 -71 151q-58 42 -117 85q-61 55 -61 151q0 56 29 96q34 49 102 58l220 -2q59 0 87 -13q53 -25 54 -98v-56q-25 0 -57 1q-2 0 -2 8
v13q1 10 1 17q0 74 -74 74q-44 0 -56 -6q-28 -12 -24 -56q3 -39 68 -97l114 -100q59 -60 54 -108v-124zM380 782l-9 30l-121 -44l-122 44l-9 -30l128 -82l3 1l2 -1l1 2z" />
    <glyph glyph-name="product" unicode="&#x220f;" horiz-adv-x="494" 
d="M409 119q0 -42 -27 -75q-29 -37 -77 -43h-173q-52 -5 -92 23t-40 74v40h51q-4 -50 26 -75q24 -19 63 -19q49 0 49 37q0 26 -46 71q-42 41 -85 83q-46 51 -46 91q0 39 30.5 71.5t79.5 35.5h148q45 0 80 -24q39 -27 39 -68q0 -8 -2 -16h-47q-2 65 -70 65q-43 0 -43 -29
q0 -20 47 -66q81 -78 87 -85q48 -53 48 -91zM340 542l-9 30l-121 -44l-122 44l-9 -30l128 -82l3 1l2 -1l1 2z" />
    <glyph glyph-name="pi" unicode="&#x3c0;" horiz-adv-x="597" 
d="M381 1h-266q-3 305 0 305q-52 18 -84 54.5t-32 77.5l1 236h262v-255q0 -61 69 -69q38 -5 70.5 19.5t32.5 71.5l1 233h63v-240q0 -110 -118 -131l1 -148v-154zM345 819q-190 -75 -190 -77q0 -4 5 -22t7 -16q1 1 104 17.5t103 20.5q0 5 -29 77z" />
    <glyph glyph-name="integral" unicode="&#x222b;" horiz-adv-x="532" 
d="M295 589q-190 -75 -190 -77q0 -4 5 -22t7 -16q1 1 104 17.5t103 20.5q0 5 -29 77zM416 -133q-2 -46 -32 -76.5t-68 -31.5l-199 -1q-43 0 -76 31t-33 75v70h54v-83q0 -53 75 -53q10 0 24 1t16 1q53 0 67 9q28 20 25 94q-2 42 -4 50q-12 47 -56 47h-111q-95 0 -95 121v312
h56v-341q-2 -54 78 -54q62 0 62 52l-1 343h219z" />
    <glyph glyph-name="Omega" unicode="&#x3a9;" horiz-adv-x="663" 
d="M-1 445h49v85q0 65 33 105t92 40h253q59 0 85 -14q47 -26 47 -102q-36 -5 -63 -1v8q1 24 -15 45q-20 25 -51 25h-59q-54 0 -55 -60v-131h157v-45h-157v-72h157v-45h-157v-180q0 -56 49 -64q-2 0 62 0q43 0 58 25q11 19 11 63h2q27 5 60 0q0 -68 -22 -96q-25 -31 -89 -31
h-279q-42 1 -80.5 41.5t-38.5 83.5v158h-49v45h49v72h-49v45z" />
    <glyph glyph-name="Omega" unicode="&#x2126;" horiz-adv-x="663" 
d="M-1 445h49v85q0 65 33 105t92 40h253q59 0 85 -14q47 -26 47 -102q-36 -5 -63 -1v8q1 24 -15 45q-20 25 -51 25h-59q-54 0 -55 -60v-131h157v-45h-157v-72h157v-45h-157v-180q0 -56 49 -64q-2 0 62 0q43 0 58 25q11 19 11 63h2q27 5 60 0q0 -68 -22 -96q-25 -31 -89 -31
h-279q-42 1 -80.5 41.5t-38.5 83.5v158h-49v45h49v72h-49v45z" />
    <glyph glyph-name="radical" unicode="&#x221a;" 
 />
    <glyph glyph-name="approxequal" unicode="&#x2248;" 
 />
    <glyph glyph-name="approxequal" unicode="&#x22f2;" 
 />
    <glyph glyph-name="Delta" unicode="&#x394;" 
 />
    <glyph glyph-name="Delta" unicode="&#x2206;" 
 />
    <glyph glyph-name="lozenge" unicode="&#x25ca;" horiz-adv-x="418" 
d="M-1 345l157 157l157 -157l-157 -157z" />
    <glyph glyph-name="fraction" unicode="&#x2044;" 
 />
    <glyph glyph-name="uniF001" unicode="&#xf001;" 
 />
    <glyph glyph-name="uniF002" unicode="&#xf002;" 
 />
    <glyph glyph-name="uniF000" unicode="&#xf000;" 
 />
    <glyph glyph-name="dotlessi" unicode="&#x131;" horiz-adv-x="319" 
d="M221 1h-215v430h215v-430z" />
    <glyph glyph-name="breve" unicode="&#x2d8;" horiz-adv-x="326" 
d="M45 824q3 -14 35 -34q36 -22 73 -21q82 1 120 55l29 -20q-63 -89 -151 -85q-50 2 -90.5 27t-46.5 61z" />
    <glyph glyph-name="dotaccent" unicode="&#x2d9;" horiz-adv-x="342" 
d="M134 745q0 22 16.5 38t38.5 16q23 0 39 -16t16 -38q0 -23 -16 -39t-39 -16q-22 0 -38.5 16t-16.5 39z" />
    <glyph glyph-name="ring" unicode="&#x2da;" horiz-adv-x="238" 
d="M109 837q30 0 51 -21.5t21 -50.5q0 -30 -21 -51.5t-51 -21.5t-51 21.5t-21 51.5q0 29 21 50.5t51 21.5zM109 802q-15 0 -26 -11t-11 -26q0 -16 11 -27t26 -11q16 0 26.5 11t10.5 27q0 15 -10.5 26t-26.5 11z" />
    <glyph glyph-name="hungarumlaut" unicode="&#x2dd;" horiz-adv-x="398" 
d="M82 704l-20 16l58 87q21 31 43 31q17 0 29 -12t12 -29q0 -25 -48 -52zM223 704l-19 16l58 87q21 31 43 31q17 0 29 -12t12 -29q0 -25 -49 -52z" />
    <glyph glyph-name="ogonek" unicode="&#x2db;" horiz-adv-x="447" 
d="M196 0h76q-33 -19 -52 -33q-31 -22 -31 -61q0 -20 19.5 -32t39.5 -12q44 0 105 20l18 -35q-80 -38 -162 -38q-45 0 -81 16q-45 22 -45 63q0 49 37 75q6 5 76 37z" />
    <glyph glyph-name="caron" unicode="&#x2c7;" horiz-adv-x="512" 
d="M350 782l-9 30l-121 -44l-122 44l-9 -30l128 -82l3 1l2 -1l1 2z" />
    </font>
</defs>
</svg>
