<?xml version="1.0" standalone="no"?>
<!DOCTYPE svg PUBLIC "-//W3C//DTD SVG 1.1//EN" "http://www.w3.org/Graphics/SVG/1.1/DTD/svg11.dtd" >
<svg>
<metadata>
Created by FontForge 20120731 at Wed Apr 17 22:28:04 2019
 By www-data
Digitized by Dan X. Solo.
</metadata>
<defs>
<font id="Tulipa" horiz-adv-x="20" >
  <font-face 
    font-family="Tulipa"
    font-weight="400"
    font-stretch="normal"
    units-per-em="1000"
    panose-1="0 0 4 0 0 0 0 0 0 0"
    ascent="800"
    descent="-200"
    x-height="469"
    cap-height="664"
    bbox="-9 -228 1232.8 842"
    underline-thickness="20"
    underline-position="-123"
    unicode-range="U+0020-F002"
  />
<missing-glyph horiz-adv-x="500" 
d="M63 0v800h375v-800h-375zM125 63h250v675h-250v-675z" />
    <glyph glyph-name=".notdef" horiz-adv-x="500" 
d="M63 0v800h375v-800h-375zM125 63h250v675h-250v-675z" />
    <glyph glyph-name=".null" horiz-adv-x="0" 
 />
    <glyph glyph-name="glyph2" horiz-adv-x="226" 
 />
    <glyph glyph-name="space" unicode=" " horiz-adv-x="226" 
 />
    <glyph glyph-name="exclam" unicode="!" horiz-adv-x="432" 
d="M352 662l-39 -454q-12 0 -40 1l33 452zM261 661q-11 -136 -29 -452q-36 10 -61 10q-9 0 -16 -2q-12 4 -24 4q-19 0 -57 -12l-54 452h241zM368 94q0 -52 -54 -81q-40 -21 -87 -21q-3 0 -22 -3t-22 -3q-175 0 -175 99q0 49 55 72q40 16 98 16q138 0 138 -79q0 -21 -34 -58
q6 -2 13 -2q22 0 40.5 21.5t16.5 47.5q-4 12 -10 38q3 4 26 15q17 -18 17 -62z" />
    <glyph glyph-name="quotedbl" unicode="&#x22;" horiz-adv-x="420" 
d="M348 662q-6 -76 -26 -254q-29 8 -43 4q-16 5 -46 -4l-30 254h145zM148 662q-6 -76 -26 -254q-29 8 -43 4q-16 5 -46 -4l-30 254h145z" />
    <glyph glyph-name="numbersign" unicode="#" horiz-adv-x="518" 
d="M319 430h-128l-33 -184h128zM76 546h63l21 118h72l-21 -118h128l21 118h72l-21 -118h66l-21 -116h-65l-33 -184h66l-21 -116h-65l-23 -130h-72l23 130h-128l-23 -130h-72l23 130h-63l20 116h63l33 184h-63z" />
    <glyph glyph-name="dollar" unicode="$" horiz-adv-x="645" 
d="M589 207q0 -97 -80 -161q-74 -60 -175 -60q-27 -7 -47 0v-61h-38l-1 297q-6 7 -19 13q-27 11 -112 44q-121 48 -121 173q0 88 70 151q68 60 156 60q3 -5 0 -40q-1 1 -22 -8q-12 -5 -20.5 -25.5t-8.5 -33.5q0 -74 75 -87l1 253h33q2 -48 1 -52q45 1 101.5 -16t80.5 -17
q23 0 45 28q3 0 25 -1t24 -1v-194h-173q-1 94 -4 106q-13 48 -75 48l-13 3q-8 2 -11 -3v-164q51 -18 124 -42q184 -43 184 -210zM228 50v-58q-2 -2 -44 17q-48 22 -71 22q-31 0 -43 -15q-5 -5 -13 -22l-49 1l-1 226h174q2 -30 1 -41q0 -61 7 -81q9 -26 26 -37q13 -9 13 -12z
M366 124q0 68 -81 87l-1 -166q4 0 15 -1q8 -1 13 0q7 1 13 6q41 29 41 74z" />
    <glyph glyph-name="percent" unicode="%" horiz-adv-x="729" 
d="M679 174q0 -90 -47 -139q-41 -45 -105 -45q-69 0 -112 42q-51 49 -51 144q0 76 39.5 131.5t92.5 49.5q-28 -30 -28 -87v-167q0 -58 32 -78q-5 26 -5 53v194q0 88 56 88q59 0 93.5 -50.5t34.5 -135.5zM569 226v59q-4 37 -23 37q-25 0 -25 -58v-207q0 -31 20 -31
q23 0 28 51v76v73zM309 474q0 -90 -47 -139q-41 -45 -105 -45q-69 0 -112 42q-51 49 -51 144q0 76 39.5 131.5t92.5 49.5q-28 -30 -28 -87v-167q0 -58 32 -78q-5 26 -5 53v194q0 88 56 88q59 0 93.5 -50.5t34.5 -135.5zM199 526v59q-4 37 -23 37q-25 0 -25 -58v-207
q0 -31 20 -31q23 0 28 51v76v73zM553 664h52l-482 -664h-52z" />
    <glyph glyph-name="ampersand" unicode="&#x26;" horiz-adv-x="911" 
d="M880 0h-447l-19 27q-86 -34 -158 -34q-97 0 -164 37q-84 46 -84 135q0 75 41 119q36 38 113 61q-25 34 -49 68q-24 38 -24 78q0 101 78 149q63 39 169 39q-14 -17 -28.5 -36t-14.5 -44q0 -65 177 -278q46 -55 240 -271h48q-116 135 -233 270q-189 226 -189 270
q0 43 35 69q32 22 76 22q54 0 91 -31t37 -83q0 -59 -90 -121l139 -168q33 34 33 55q0 24 -58 17v47l199 1l1 -47q2 -1 -22 -1t-64 -45q-27 -33 -54 -67q40 -51 81 -102q54 -65 91 -86h49v-50zM467 566q0 25 -11 44q-12 23 -35 23q-16 0 -25 -15.5t-9 -32.5q0 -16 19 -42
q14 -19 28 -39l7 -8q26 61 26 70zM380 69l-163 205q-34 -22 -29 -65q7 -62 53 -101.5t108 -39.5q37 0 31 1z" />
    <glyph glyph-name="quotesingle" unicode="'" horiz-adv-x="236" 
d="M158 662q-6 -76 -26 -254q-77 3 -89 0l-30 254h145z" />
    <glyph glyph-name="parenleft" unicode="(" horiz-adv-x="215" 
d="M171 -73h-61q-31 33 -65 161q-37 135 -37 235q0 121 20 207q20 80 73 191h65q-59 -172 -59 -392q0 -237 64 -402z" />
    <glyph glyph-name="parenright" unicode=")" horiz-adv-x="215" 
d="M8 720q4 1 61 1q30 -33 65 -161q37 -136 37 -235q0 -122 -20 -207q-20 -81 -73 -191h-65q59 171 59 391q0 238 -64 402z" />
    <glyph glyph-name="asterisk" unicode="*" horiz-adv-x="334" 
d="M291 487l-39 -69l-72 52l7 -90h-79l9 92l-75 -54l-39 69l82 38l-82 37l40 68l74 -51l-9 89h79l-7 -88l72 50l40 -68l-82 -37z" />
    <glyph glyph-name="plus" unicode="+" horiz-adv-x="550" 
d="M285 281v-210h-80v210l-209 -1v81h209v209h80v-209h209v-81z" />
    <glyph glyph-name="comma" unicode="," horiz-adv-x="352" 
d="M314 82q-11 -108 -108 -177q-3 -3 -16 2t-12 9q97 81 103 157q3 34 -10 57q-10 14 -20 27q-2 2 6 7.5t16 5.5q20 0 32 -36q11 -31 9 -52zM242 82q0 -42 -31 -84.5t-73 -66.5q-3 -1 -27 14q52 33 66 65q-31 -10 -85 -10q-43 0 -69 29q-22 25 -22 54q0 44 44 70
q36 21 78 21q47 0 81 -23q38 -26 38 -69z" />
    <glyph glyph-name="hyphen" unicode="-" horiz-adv-x="297" 
d="M260 241h-45v91l45 1v-92zM179 242h-178v91h178v-91z" />
    <glyph glyph-name="hyphen" unicode="&#x2010;" horiz-adv-x="297" 
d="M260 241h-45v91l45 1v-92zM179 242h-178v91h178v-91z" />
    <glyph glyph-name="period" unicode="." horiz-adv-x="348" 
d="M302 96q-4 -52 -59 -81q-47 -25 -103 -23q-60 3 -83 12q-54 20 -54 81q0 47 41 70q32 18 82 18q114 0 114 -81q0 -26 -25 -54q12 1 22 6q24 14 35 52q2 6 -1 20q-4 22 -4 23q4 5 23 15q16 -10 12 -58z" />
    <glyph glyph-name="slash" unicode="/" horiz-adv-x="383" 
d="M273 664h52l-282 -664h-52z" />
    <glyph glyph-name="zero" unicode="0" horiz-adv-x="758" 
d="M707 350q0 -154 -92 -254q-95 -103 -247 -103q-154 0 -258 94q-108 97 -108 250q0 126 84 225q89 106 215 102q-29 -40 -36 -59.5t-7 -64.5v-423q0 -48 38 -67l20 -7q-11 24 -12 61q1 -26 1 61q1 193 -1 381q9 89 35 98q7 33 75 28q132 -12 212.5 -102.5t80.5 -219.5z
M447 549q0 75 -47 75q-40 0 -40 -67l1 -479q0 -38 42 -38q44 0 44 70v439z" />
    <glyph glyph-name="one" unicode="1" horiz-adv-x="532" 
d="M508 0h-470l-1 50q12 -3 26 -3q58 0 57 48q-4 262 1 374h-103v52q11 6 40.5 15.5t61.5 38t46 61.5q5 13 8 28h172l-2 -584q-4 -17 7 -25q8 -5 14 -5q10 0 18 11t9 20l-2 584q0 -1 54 -1v-578q-5 -36 64 -36q1 -13 1 -25t-1 -25z" />
    <glyph glyph-name="two" unicode="2" horiz-adv-x="612" 
d="M238 664q-39 -14 -62 -56q-20 -38 -20 -83q0 -87 67 -130q-2 -16 -40 -31q-33 -13 -53 -13q-51 0 -85.5 35.5t-34.5 86.5q0 64 43.5 115.5t105.5 67.5q30 8 79 8zM571 149q0 -84 -69 -125q-55 -32 -145 -32q-69 0 -121 15q-31 11 -64 22.5t-67 11.5q-47 0 -62 -41h-20
q-7 -1 -12 0q-11 23 -11 64q0 103 90 165l166 94q89 61 89 162q0 37 -14 68q-18 39 -50 39q-21 0 -32 -24q-9 -19 -9 -43q0 -20 13.5 -44t13.5 -25q0 -11 -27 -29q-18 13 -32 43t-14 52q0 66 41 107.5t107 41.5q82 0 150.5 -60t68.5 -140q0 -58 -37 -109q-33 -45 -88 -74
q-36 -19 -141.5 -47.5t-152.5 -53.5q-74 -41 -91 -106l7 -13q4 3 10 12q80 111 210 111q35 0 94.5 -12.5t89.5 -12.5q64 0 87 51q9 -3 16 -31q6 -24 6 -37z" />
    <glyph glyph-name="three" unicode="3" horiz-adv-x="598" 
d="M217 664q-30 -20 -48 -62q-16 -37 -16 -71q0 -48 11 -75q0 -1 30 -53q-35 -18 -53 -18q-48 0 -86 29q-42 33 -42 85q0 84 67 128q56 37 137 37zM267 -12q-95 0 -171 32q-101 42 -101 122q0 62 49 99q43 32 105 32q22 0 42 -4q-41 -62 -41 -113q0 -115 64 -125
q-31 34 -31 97q0 15 2 31q7 51 41 99q11 -6 35 -17q-12 -19 -26 -47q-10 -33 -10 -74q0 -89 56 -89q45 0 45 161q0 58 -9 81q-15 40 -62 46h-48v48q10 5 26 2q18 -2 28 -1q42 9 53 64q5 22 5 91q0 80 -37 80q-25 0 -39 -26q-11 -21 -11 -46q0 -58 26 -99q-18 -12 -26 -11
q-17 2 -31 39.5t-10 76.5q7 62 44 99q34 33 81 35q72 2 138 -38q80 -49 80 -131q0 -69 -47 -106q-33 -26 -110 -48q182 -56 172 -174q-6 -75 -83 -129q-82 -57 -199 -57z" />
    <glyph glyph-name="four" unicode="4" horiz-adv-x="694" 
d="M644 172h-39q-3 9 -5 18q-10 17 -37 16q-2 -102 0 -102q2 -37 15 -48q8 -6 35 -6v-50q-283 0 -126 0h-334q-2 34 0 50q9 2 29 0q18 -2 29 4q32 18 35 55q3 47 1 75q-1 22 -1 23h-247v78q0 9 124 176q114 153 154 203h190v-383q8 -1 47 0v383h52v-380q16 -2 25 13
q6 12 11 24h42q3 -42 0 -149zM511 110l-1 98h-46v-99q0 -35 1 -38q4 -21 23 -21q20 0 23 26q1 5 0 34zM246 282v235q0 -4 -4 -2l-4 2q-2 -3 -94 -125q-53 -71 -75 -110h177z" />
    <glyph glyph-name="five" unicode="5" horiz-adv-x="592" 
d="M546 219q0 -119 -89 -177q-75 -49 -200 -49q-255 0 -255 164q0 50 34.5 86t84.5 36q20 0 55 -10q-31 -51 -34 -101q-7 -99 52 -114q-18 50 -18 89q0 25 10 60q12 44 32 55q3 2 17 -8q9 -6 17 -12q-10 -12 -26 -50q-6 -26 -6 -67q0 -84 49 -84q50 0 50 113v146
q-2 37 -29.5 62t-57.5 25q-51 0 -89 -17q-28 -13 -80 -53q-13 9 -44 23q16 73 53 328q45 -2 55 0q-19 -95 -49 -287q13 12 46 35q14 84 43 252h337v-226q-48 1 -55 1q-5 27 -9 53q-9 22 -48 22l-189 1q-8 -16 -18 -88q32 9 72 9q119 0 196 -48q93 -57 93 -169z" />
    <glyph glyph-name="six" unicode="6" horiz-adv-x="711" 
d="M639 236q0 -116 -93 -183q-82 -60 -201 -60q-152 0 -243 98q-89 94 -89 245q0 112 66 203q75 103 204 126l21 -1q-30 -11 -49 -47q-15 -28 -17 -60v-398q2 -30 3 -60q7 -32 49 -49l-1 507q0 72 54 99q37 18 107 18q47 0 91 -35t48 -82q11 -104 -107 -104q-26 0 -71 11
q0 10 4.5 22.5t4.5 46.5q0 80 -48 80q-15 0 -25 -21q-8 -16 -8 -29v-177q39 35 94 35q83 0 141 -47q65 -52 65 -138zM409 92l1 237q0 8 -8 20.5t-21 12.5q-17 0 -28.5 -17.5t-11.5 -31.5v-243q0 -10 11 -18t21 -8q36 0 36 48z" />
    <glyph glyph-name="seven" unicode="7" horiz-adv-x="699" 
d="M655 560l-19 -7q-70 -30 -105 -126q-15 -40 -35 -148q-8 -48 -32 -143q-25 -74 -90 -112q-54 -32 -120 -32q-63 0 -104 30q-47 35 -47 99q0 108 140 274q12 14 127 135q37 33 86 82h-201q-23 0 -51 -26q-22 -21 -28 -33q-22 -52 -17 -117l-53 -1q-8 48 12 96q0 15 20 42
t46 42q-27 2 -61 -21t-43 -57q-11 -40 -9 -102l-62 -1l-1 230h573l-1 -43q-22 -18 -41 -35q-44 -41 -63 -72q-27 -44 -41 -98q-4 -15 -20 -98q-13 -69 -25 -138q-22 -83 -74 -136q2 -2 5 -2q10 0 36 19q20 15 29 24q33 36 56 135q3 11 22 119q13 74 29 115q14 35 44 72
q33 41 63 54q5 2 12 6v78h43q3 -36 0 -104z" />
    <glyph glyph-name="eight" unicode="8" horiz-adv-x="631" 
d="M596 190q0 -187 -298 -193q-105 -2 -192 41q-108 53 -108 150q0 67 43 106q33 30 105 54q-5 5 -14 8q-55 15 -86 57q-29 37 -29 82q0 62 57 110q53 46 127 58q36 6 52 6q-31 -21 -31 -72v-163q1 -31 10 -43t37 -16q-2 193 0 225q3 41 27 56q20 14 65 14q-4 0 40 -7
q73 -12 121 -53q50 -44 50 -105q0 -63 -50 -107q-41 -37 -100 -50q73 -21 101 -37q73 -43 73 -121zM392 422v143q0 55 -38 55q-20 0 -27 -13q-3 -7 -6 -32l-1 -180q0 -9 8.5 -17.5t19.5 -8.5q20 0 32 17t12 36zM393 115l-1 157q-5 48 -42 48q-27 0 -27 -22v-233
q0 -26 32 -26q38 0 38 76zM271 50v272q-44 -2 -53 -57v-158q0 -54 53 -57z" />
    <glyph glyph-name="nine" unicode="9" horiz-adv-x="647" 
d="M591 358q0 -149 -79 -250q-86 -111 -230 -111q-85 0 -155 26q-96 36 -96 107q0 96 117 96q42 0 56 -11q-8 -15 -16 -29q-6 -18 -4 -49q2 -20 19 -50t28 -27q-13 30 -13 61q0 29 8 50q5 12 15 37q19 -3 44 -20l-14 -28q-8 -17 -8 -43q0 -76 48 -76q35 0 45 42q3 34 6 67
v116q-36 -25 -123 -25q-92 0 -160 45q-82 54 -82 153q0 59 32 115q37 63 98.5 91t98.5 24q-11 -10 -26 -30q-7 -13 -7.5 -25.5t-1.5 -24.5l1 -236q-1 -23 14 -40q17 -20 46 -20q7 0 15 1q-22 11 -22 50l1 260q0 20 15.5 38.5t39.5 23.5q31 7 66 1q101 -17 165 -113
q59 -88 59 -196zM364 575q0 17 -12 29.5t-24 12.5q-13 0 -23 -11.5t-10 -30.5v-241q0 -12 10.5 -20.5t21.5 -8.5q37 0 37 29v241z" />
    <glyph glyph-name="colon" unicode=":" horiz-adv-x="348" 
d="M302 376q-4 -52 -59 -81q-47 -25 -103 -23q-60 3 -83 12q-54 20 -54 81q0 47 41 70q32 18 82 18q114 0 114 -81q0 -26 -25 -54q12 1 22 6q24 14 35 52q2 6 -1 20q-4 22 -4 23q4 5 23 15q16 -10 12 -58zM302 96q-4 -52 -59 -81q-47 -25 -103 -23q-60 3 -83 12
q-54 20 -54 81q0 47 41 70q32 18 82 18q114 0 114 -81q0 -26 -25 -54q12 1 22 6q24 14 35 52q2 6 -1 20q-4 22 -4 23q4 5 23 15q16 -10 12 -58z" />
    <glyph glyph-name="semicolon" unicode=";" horiz-adv-x="352" 
d="M298 376q-4 -52 -59 -81q-47 -25 -103 -23q-60 3 -83 12q-54 20 -54 81q0 47 41 70q32 18 82 18q114 0 114 -81q0 -26 -25 -54q12 1 22 6q24 14 35 52q2 6 -1 20q-4 22 -4 23q4 5 23 15q16 -10 12 -58zM314 82q-11 -108 -108 -177q-3 -3 -16 2t-12 9q97 81 103 157
q3 34 -10 57q-10 14 -20 27q-2 2 6 7.5t16 5.5q20 0 32 -36q11 -31 9 -52zM242 82q0 -42 -31 -84.5t-73 -66.5q-3 -1 -27 14q52 33 66 65q-31 -10 -85 -10q-43 0 -69 29q-22 25 -22 54q0 44 44 70q36 21 78 21q47 0 81 -23q38 -26 38 -69z" />
    <glyph glyph-name="less" unicode="&#x3c;" horiz-adv-x="400" 
d="M12 319l265 205l57 -57l-198 -148l198 -147l-57 -57z" />
    <glyph glyph-name="equal" unicode="=" horiz-adv-x="563" 
d="M3 332v80h498v-80h-498zM3 182v80h498v-80h-498z" />
    <glyph glyph-name="greater" unicode="&#x3e;" horiz-adv-x="400" 
d="M334 319l-266 205l-56 -57l197 -148l-197 -147l57 -57z" />
    <glyph glyph-name="question" unicode="?" horiz-adv-x="639" 
d="M581 507q0 -107 -119 -161q-65 -30 -195 -49q-21 -3 -50 -26q-25 -19 -16 -63h-73v47q10 46 92 84q22 9 43 19q30 15 43 35q28 41 28 114q0 97 -30 97q-26 0 -26 -53q0 -24 9.5 -51.5t9.5 -29.5q0 -8 -12.5 -18t-16.5 -10q-12 0 -28.5 37.5t-14.5 65.5q4 74 46 102
q34 23 106 23q77 0 137 -43q67 -47 67 -120zM243 418q0 -24 -37.5 -41.5t-74.5 -14.5q-53 3 -90 45t-37 94q0 69 69 120q65 47 140 46h30q-51 -31 -51 -126q0 -45 25.5 -86.5t25.5 -36.5zM352 96q-4 -52 -59 -81q-47 -25 -103 -23q-60 3 -83 12q-54 20 -54 81q0 47 41 70
q32 18 82 18q114 0 114 -81q0 -26 -25 -54q12 1 22 6q24 14 35 52q2 6 -1 20q-4 22 -4 23q4 5 23 15q16 -10 12 -58z" />
    <glyph glyph-name="at" unicode="@" horiz-adv-x="762" 
d="M699 379q0 -110 -56.5 -179.5t-138.5 -69.5q-92 0 -99 75q-54 -65 -129 -65q-42 0 -71 31q-32 34 -32 94q0 110 59 184q65 82 176 82q60 0 116 -30q-11 -36 -54 -232q-6 -26 -6 -43q0 -39 43 -39q47 0 82 56t35 136q0 102 -73 172q-76 71 -193 71q-122 0 -203 -93
q-77 -89 -77 -211q0 -112 77 -185.5t187 -73.5q65 0 124 19l16 -58q-61 -20 -140 -20q-143 0 -237 82q-102 88 -102 236q0 153 100.5 257t254.5 104q147 0 244 -82.5t97 -217.5zM438 469q-13 6 -36 6q-75 0 -118 -71q-36 -60 -36 -142q0 -60 46 -60q31 0 62 28q37 32 48 85z
" />
    <glyph glyph-name="A" unicode="A" horiz-adv-x="821" 
d="M786 50v-50h-468v50h49q19 0 19 10q0 4 -2 10l-41 124h-169l-37 -121q0 -21 20 -23h39v-50h-186v50h46q15 0 26 23q63 196 193 591l162 -1l197 -590q8 -25 31 -25q15 0 15 14q0 5 -3 12l-200 590q2 1 25 1t25 -1q36 -105 107 -314q44 -136 90 -277q9 -24 28 -23h34z
M330 243l-73 211l-71 -211h144z" />
    <glyph glyph-name="B" unicode="B" horiz-adv-x="836" 
d="M792 187q0 -63 -36 -111q-42 -55 -118 -71q-23 -5 -40 -4h-573q-3 20 1 49h26q18 0 28.5 14t10.5 33l1 473q4 41 -35 46q-15 -2 -37 0v50l299 -1l1 -567q1 -15 1 -30q3 -21 19 -21q17 0 22 16q1 7 1 33v508q0 23 21 41t48 19q64 1 159 1q65 0 114 -34q55 -38 55 -102
q0 -149 -200 -167l-3 -1q0 -7 43 -10q89 -7 140.5 -50.5t51.5 -113.5zM517 454v12q1 11 1 26q1 22 -1 50q-1 37 -7 49q-10 22 -42 22q-52 0 -54 -61v-68q1 -53 1 -67q0 -40 41 -44q39 -4 52 22q9 17 9 59zM545 122v163q0 45 -75 45q-55 0 -55 -46l1 -197q0 -40 63 -40
q69 0 66 75z" />
    <glyph glyph-name="C" unicode="C" horiz-adv-x="729" 
d="M661 665v-312h-194v167q0 99 -58 99q-53 0 -54 -92l-2 -417q-1 -39 28 -61q25 -19 65 -19q64 0 116 59t46 123h55q1 -12 1 -22q0 -103 -90 -160q-77 -51 -185 -49q-166 2 -271 96q-108 98 -108 256q0 139 84 231q80 87 217 112q-53 -33 -53 -91l1 -474q0 -23 12 -44
q24 -41 86 -52q-52 33 -52 81v471q0 109 112 109q52 0 96.5 -28t73.5 -28q22 0 41 45h33z" />
    <glyph glyph-name="D" unicode="D" horiz-adv-x="857" 
d="M802 324q0 -135 -87 -228q-89 -96 -224 -96h-468v49q67 -4 63 56l1 447q0 43 -22 55q-11 6 -42 6v50h287l1 -568q-7 -46 23 -46q27 0 24 43l1 484q1 93 106 93q161 0 250 -96q87 -92 87 -249zM544 261l-1 157l-12 122q-16 79 -74 79q-51 0 -53 -39v-488q6 -24 13 -32
q9 -11 31 -11q47 0 68 34q16 25 21 81q3 48 7 97z" />
    <glyph glyph-name="E" unicode="E" horiz-adv-x="777" 
d="M697 425q-12 0 -51 -1v82q0 49 -31.5 78.5t-82.5 29.5h-127l-1 -257q49 -3 85 -1q47 14 52 62v70h52v-320q-28 -6 -55 0v83q0 26 -21 40t-47 14h-66v-256q129 2 134 0q6 -3 31 6q30 11 50 31q27 29 27 70q0 27 1 73l54 -1l1 -228h-679l-3 4v42q29 0 42 6q22 12 22 46v463
q0 54 -46 54q-5 0 -13 -1t-11 -1v51h292q2 -290 -1 -580q0 -37 26 -37q21 0 21 37v579h345v-238z" />
    <glyph glyph-name="F" unicode="F" horiz-adv-x="770" 
d="M486 0l-456 1l-3 4v41q29 0 42 6q22 12 22 46v463q0 54 -46 54q-5 0 -13 -1t-11 -1v51h291v-580q0 -37 26 -37q21 0 21 37v580h345v-239q-12 0 -51 -1v82q0 51 -31.5 79.5t-82.5 28.5h-127l-1 -257q47 0 82 2q51 14 55 59v70h52v-320q-28 -6 -55 0v83q0 26 -21 40t-47 14
h-66l2 -195q-5 -60 49 -60q11 0 23 3z" />
    <glyph glyph-name="G" unicode="G" horiz-adv-x="768" 
d="M389 -19h-5h1h4zM661 665v-302h-194v157q0 99 -58 99q-56 0 -56 -92v-434q0 -33 17.5 -53t40.5 -20q46 0 57 58q1 8 1 121q0 39 0 32q-2 26 -16 30q-20 6 -32 6q0 58 -1 51l300 -1l-2 -50l-26 -8q-16 -6 -16 -23q0 -177 -1 -199q-48 -45 -254 -55q-18 -1 -31 -1h-5h-1
q-164 3 -267 98q-107 97 -107 254q0 139 84 231q80 87 217 112q-53 -33 -53 -91l1 -474q0 -22 11 -43q24 -41 84 -52h-1h2q-50 34 -50 80v471q0 109 112 109q52 0 96.5 -28t73.5 -28q22 0 41 45h33z" />
    <glyph glyph-name="H" unicode="H" horiz-adv-x="903" 
d="M405 106q-1 -7 -1 -13q0 -42 64 -42v-51l-445 1l-3 4l-1 46q38 0 43 1q23 7 23 41v462q0 44 -21 54q-8 4 -45 5v50h285l1 -580q0 -20 3 -26q5 -10 22 -10q22 -1 22 36v580h123v-50h-14q-10 1 -15 1q-40 0 -41 -57v-200h157v203q0 36 -23 47q-11 6 -41 6v24.5v25.5l360 -1
v-49q-32 0 -45 -8q-19 -11 -19 -42v-461q-6 -55 62 -55q2 -16 0 -47h-363q0 58 -1 50q70 0 70 55v194h-157v-194z" />
    <glyph glyph-name="I" unicode="I" horiz-adv-x="529" 
d="M405 99q-7 -47 49 -47h14q8 1 10 1l-1 -53l-455 1q-3 4 -3 52q4 0 13 -1h14q39 0 39 41v462q0 44 -21 55q-11 6 -50 4v50h291v-580q-7 -34 25 -34q22 0 22 34v580h125v-49q-4 0 -13 1t-14 1q-44 0 -45 -59v-459z" />
    <glyph glyph-name="J" unicode="J" horiz-adv-x="767" 
d="M731 615l-44 -4q-24 -5 -25 -33v-434q-20 -110 -134 -139q-50 -13 -215 -13q-129 0 -188 20q-115 38 -115 157q0 69 26 94h205q-23 -33 -23 -111q0 -108 65 -108q55 0 56 78l2 452q-1 28 -21 33q-20 1 -40 3v54h292v-513q2 -29 -4 -50q-7 -27 -7 -30q33 18 43 45
q6 17 5 52q-2 40 2 58l-1 360q8 72 66 78h55v-49z" />
    <glyph glyph-name="K" unicode="K" horiz-adv-x="891" 
d="M860 51v-51h-380q0 50 0 49q9 3 18.5 6t9.5 14q0 8 -6 20l-84 167v-169q0 -16 1 -20q5 -10 25 -14q4 -22 0 -53h-421l1 49q6 2 14 1q8 -2 15 0q18 4 27 23l8 24l2 474q-2 43 -50 44q-13 -2 -15 0l1 48l298 1v-588q-4 -26 22 -26q6 0 14 11t5 20v534q2 18 15 33.5t25 15.5
h80v-49q-7 -3 -24 -1q-18 2 -24 1q-19 -3 -19 -41v-192q109 95 225 204q4 8 4 14q0 13 -12 15q-17 2 -31 0q0 -5 -3 7t-2 41h214q2 -2 0 -48q-43 0 -54 -4q-11 -7 -23 -15q-8 -4 -91 -79t-83 -80q0 -2 80 -142q40 -70 129 -221q7 -11 29 -19q17 -5 26 -5q40 0 34 1z" />
    <glyph glyph-name="L" unicode="L" horiz-adv-x="715" 
d="M670 0h-649l1 51l40 4q26 9 26 41l2 487q-1 33 -37 33q-5 0 -15 -1h-14q0 13 -1 49h289v-571q0 -43 26 -43q29 0 26 43v520q1 51 67 51h44v-49q-58 5 -61 -24v-541h41q75 0 122 65q44 59 45 141h48v-256z" />
    <glyph glyph-name="M" unicode="M" horiz-adv-x="1037" 
d="M996 615h-36q-35 0 -35 -40v-486q0 -25 11 -33q7 -5 31 -6q7 1 32 0v-49l-465 -1v50q10 -2 35 0q26 6 37 41l-1 471l-162 -562h-159q-55 219 -148 552l1 -463q0 -27 19 -37q13 -7 52 -2l1 -50h-185l-2 50h24q39 0 39 24v508q0 25 -22 30q-19 2 -39 4v49l321 -1l118 -408
l23 74l-89 334h48l63 -236l74 236h414v-49zM879 577q0 38 -24 38q-26 0 -26 -40v-488q-2 -40 29 -37q13 1 15.5 13t5.5 26v488z" />
    <glyph glyph-name="N" unicode="N" horiz-adv-x="752" 
d="M721 619q-60 0 -62 -31v-588l-261 1l-249 511v-430q0 -34 47 -34q7 0 15 1t7 1q-1 -47 -1 -51h-194v51q4 3 14 1q16 -2 15 -2q50 0 49 38v456q0 43 -6 54q-9 17 -43 17q-11 0 -25 -2v53l300 -1l282 -570v89l-236 481h47q60 -113 189 -386v310q0 27 -37 27h-24v49h173v-45
z" />
    <glyph glyph-name="O" unicode="O" horiz-adv-x="801" 
d="M757 326q0 -145 -103.5 -241.5t-250.5 -96.5q-101 0 -149 13q-121 33 -189 131q-60 87 -60 194q0 111 64 198q72 98 207 134q-6 -10 -11 -20q-14 -28 -15 -47l1 -91v-332q0 -111 68 -133q-21 50 -21 70v461q0 102 125 102q143 0 240 -103q94 -101 94 -239zM497 131v389
q0 104 -84 104q-61 0 -66 -89l2 -435q2 -35 21 -54t45 -19q82 0 82 104z" />
    <glyph glyph-name="P" unicode="P" horiz-adv-x="815" 
d="M757 458q0 -93 -66 -152.5t-177 -59.5l-53 -2q-43 -2 -60 -1l-1 -149q0 -34 33 -43q6 -1 37 -1v-50l-454 1q3 19 3 21q0 3 -3 29q40 0 50 4q19 7 19 35v498q0 29 -49 29q-16 0 -17 -2v51h290l1 -575v-22q3 -14 21 -14q19 0 23 16q-1 -3 -1 23v494q0 58 73 75q33 8 111 8
q50 0 73 -6q80 -21 118 -88q29 -51 29 -119zM510 459q0 149 -59 149q-34 0 -43 -24q-5 -13 -5 -54v-243l52 1q55 0 55 171z" />
    <glyph glyph-name="Q" unicode="Q" horiz-adv-x="809" 
d="M747 341q0 -206 -169 -304q-10 -2 -22 -11q-7 -34 55 -34q57 0 60 58h52v-33q0 -66 -59 -105q-51 -33 -105 -29q-71 5 -106 22q-55 26 -79 91q-16 -2 -54 -2q-143 11 -235 116q-85 97 -85 223q0 111 64 201q73 104 202 131l19 6q-33 -31 -38 -86q-1 -47 -3 -94l1 -282
q-2 -15 -2 -29q0 -112 81 -136q-6 12 -13 24q-19 34 -19 62v443q0 28 19.5 56.5t51.5 38.5q38 11 63 11q32 0 74 -11q123 -31 190 -134q57 -87 57 -193zM493 192v337q0 38 -16 65q-21 35 -62 35q-68 0 -69 -97l2 -400q39 59 96 59q29 0 49 -11v12z" />
    <glyph glyph-name="R" unicode="R" horiz-adv-x="869" 
d="M757 478q0 -157 -220 -153h-22q-5 2 -6 -6t5 -11q21 -2 50 -6q53 0 103.5 -38t50.5 -88v-43q3 -48 32 -48t27 46q-4 -1 41 -1v-8q1 -5 1 -9q0 -48 -21 -71q-10 -11 -34 -30q-12 -6 -47.5 -12t-55.5 -6q-64 0 -91 10q-61 25 -78 91q-4 18 -8 112q-2 43 -5 56q-8 33 -35 41
q-40 -1 -43 -1v-205q0 -48 69 -48v-50l-454 1q3 19 3 21q0 3 -3 29q40 0 50 4q19 7 19 35v498q0 29 -49 29q-16 0 -17 -2v51h290l1 -575v-22q3 -14 21 -14q19 0 23 16q-1 -3 -1 23v494q0 58 66 74q27 6 104 6q74 0 87 -3q147 -38 147 -187zM510 479q0 129 -59 129
q-35 0 -43 -14q-5 -9 -5 -44v-203l52 1q38 0 50 50q5 25 5 81z" />
    <glyph glyph-name="S" unicode="S" horiz-adv-x="725" 
d="M679 214q0 -116 -94 -177q-80 -53 -202 -53q-62 0 -109 11q-34 9 -69 18q-38 9 -70 9h-9q-20 0 -27 -3.5t-25 -18.5h-53v209h201q-1 -10 -1 -27q0 -130 59 -143q-2 11 -14 36q-8 18 -8 52l1 80l45 1v-82q0 -35 13 -61q16 -34 48 -34q30 0 49 32q16 27 16 61q0 22 -4 35
q-15 44 -62 61q-43 12 -86 25q-51 19 -102 37q-67 29 -103 66q-46 49 -46 121q0 111 101 160q67 31 200 39q-34 -29 -46 -50q-15 -26 -15 -67q0 -25 14 -49.5t36 -32.5q-1 9 -7 37q-6 22 -6 37q0 51 25 86q28 39 77 39q29 0 79 -17.5t74 -17.5q34 0 64 31h28v-204l-209 1
q0 72 -2 91q-10 66 -48 66q-20 0 -31 -27q-9 -21 -9 -44q0 -98 43 -113q63 -19 127 -39q73 -26 110 -61q47 -46 47 -120z" />
    <glyph glyph-name="T" unicode="T" horiz-adv-x="823" 
d="M784 408l-57 1v119q0 38 -35 64q-32 23 -70 23h-46v-513q-4 -52 39 -52h27l-1 -50l-465 1l-1 49q69 -7 69 57v508l-54 -2q-42 0 -69.5 -30.5t-27.5 -73.5v-99h-60v255l441 -1v-564q0 -26 2 -32q5 -18 28 -18q24 0 24 52l-1 562h258z" />
    <glyph glyph-name="U" unicode="U" horiz-adv-x="781" 
d="M735 617l-30 -2q-14 0 -24.5 -18.5t-10.5 -30.5q-1 -22 -1 -121l1 -278q0 -82 -46 -122q-39 -34 -128 -45q-6 -4 -9 -4t-34 -1.5t-34 -1.5q-117 0 -196 25q-132 40 -132 141q0 73 -1 75l1 324q0 58 -39 57h-30v49h288v-512q0 -23 7 -44q19 -58 76 -62q-31 42 -31 87v356
q-1 30 0 126q1 17 17 35.5t39 14.5q7 -1 57 -1q1 -12 0 -49h-39q-22 0 -24 -21v-28v-431q0 -45 12 -62q17 -23 66 -23q132 0 130 124l1 375q0 70 -35 66q-12 -2 -35 0v49h184v-47z" />
    <glyph glyph-name="V" unicode="V" horiz-adv-x="768" 
d="M731 616q-6 1 -14 1q-55 0 -69 -56l-177 -561h-219l-163 568q-1 2 -9 26q-5 16 -19 21q-12 4 -56 0v49h295l154 -550l23 60l-112 427q0 24 21 43.5t40 19.5h65q4 -23 0 -48h-40q-23 -1 -25 -26l79 -334q93 312 93 332q0 28 -50 28q-12 0 -23 -1l1 48h205v-47z" />
    <glyph glyph-name="W" unicode="W" horiz-adv-x="1104" 
d="M1073 616q-5 1 -11 1q-49 0 -63 -56l-148 -561h-198l-111 426l-121 -426h-198l-161 568q-1 2 -8 26q-5 16 -17 21q-11 4 -35 0l-1 49h252l153 -550l21 77l-114 407q0 24 18 45t35 21h38q1 -30 -1 -49q-4 -1 -8 -1t-10.5 1.5t-9.5 1.5q-11 0 -13 -25l86 -316q24 70 71 238
l-13.5 54t-7.5 26q-5 16 -17 21q-11 4 -30 0l-1 49h247l139 -550l24 80l-100 410q0 24 16.5 42t33.5 18h38q4 -30 2 -48h-27q-11 -1 -13 -26q66 -304 66 -311q37 132 77 285q5 47 -65 51v48h185v-47z" />
    <glyph glyph-name="X" unicode="X" horiz-adv-x="964" 
d="M929 0h-319l-434 603q-9 11 -14 13q4 -1 -7.5 -1t-12.5 -3q1 2 1 -13q0 -5 365 -514q13 -19 13 -41q0 -44 -80 -44h-32q-1 5 0 50q43 0 43 12q0 5 -4 11q-56 86 -58 88q-34 50 -65 85l-70 -76q-69 -75 -71 -88q-5 -23 35 -30q16 -3 40 -2v-50h-259v50q40 0 58 4
q29 8 53 33q48 50 114 124.5t66 79.5q0 6 -99 144q-92 130 -105 145q-10 22 -30.5 30t-43.5 5l-1 49h527v-49q-11 2 -21 2q-39 0 -36 -25q1 -16 41 -64q24 -39 82 -112l130 158q15 12 15 24q0 4 -6 10.5t-11 6.5h-41v49h223v-49q-26 -1 -33 -1q-50 0 -63 -25
q-1 -2 -91.5 -106t-90.5 -110q0 -5 79 -118q83 -119 136 -189q12 -15 43 -17q21 -1 34 2q1 -14 0 -51z" />
    <glyph glyph-name="Y" unicode="Y" horiz-adv-x="771" 
d="M745 615q-14 2 -30 0q-41 -4 -64 -51q-165 -335 -165 -331l1 -144q0 -38 41 -39q12 2 29 1q2 -9 -1 -51h-377q-3 4 0 50h23q49 0 51 43v132l-181 367q-12 23 -31 23h-41v49h302l169 -355l20 41q-34 69 -58 122q-58 125 -59 143q0 51 84 51q18 0 34 -2v-49q-11 2 -23 2
q-34 0 -34 -23q0 -13 33.5 -91t48.5 -104q6 9 45 87t46 95q2 6 2 11q0 26 -61 24l1 48h196z" />
    <glyph glyph-name="Z" unicode="Z" horiz-adv-x="778" 
d="M400 50h137q61 0 94 35q23 24 30 66l4 40v69h58v-260h-621l346 615h-48l-346 -615h-59l348 615q-90 2 -132 0q-60 -3 -87 -37q-21 -26 -33 -89v-89l-53 -1v265h691z" />
    <glyph glyph-name="bracketleft" unicode="[" horiz-adv-x="273" 
d="M206 -84l-192 1l-1 816h193v-49h-92v-719h92v-49z" />
    <glyph glyph-name="backslash" unicode="\" horiz-adv-x="262" 
d="M165 -83h-101l-1 816l102 1v-817z" />
    <glyph glyph-name="bracketright" unicode="]" horiz-adv-x="262" 
d="M3 -84l193 1v816h-193v-49h92v-719h-92v-49z" />
    <glyph glyph-name="asciicircum" unicode="^" horiz-adv-x="556" 
d="M245 834h1v-1l167 -97q-8 -29 -8 -26q0 2 -165 40q-152 -38 -152 -40q0 -3 -9 26l167 98h1h1h-3z" />
    <glyph glyph-name="underscore" unicode="_" horiz-adv-x="509" 
d="M0 -74h509v-49h-509v49z" />
    <glyph glyph-name="grave" unicode="`" horiz-adv-x="453" 
d="M121 834l234 -110q-9 -28 -9 -26q0 3 -262 38z" />
    <glyph glyph-name="a" unicode="a" horiz-adv-x="646" 
d="M616 115q1 -15 -1 -45q-3 -77 -148 -77q-61 0 -83 15q-1 1 -23 19q-14 12 -17 10q-15 -15 -60 -28.5t-81 -13.5q-75 0 -134 43q-67 50 -67 128q0 53 30 95q35 49 96 58q26 3 50 3q69 0 99 -30q21 -20 21 -36l1 -165q0 -23 18 -23q5 0 13 4.5t5 11.5v312q-4 39 -27 39
q-19 0 -24 -9q-7 -12 -10 -41q-1 -16 1 -42h-41v52q1 21 22 40q-5 -2 -11 -2q-16 0 -29 -13t-13 -28v-51l-164 -1v129h43q5 -21 33 -21q2 0 33.5 7t42.5 9q52 9 93 9q185 0 228 -77q13 -24 13 -91v-218q0 -27 21 -30q16 -2 22 22q4 15 3 35q3 1 22 2q20 0 23 -1zM257 152
q0 45 -1 53q-6 42 -31 42q-38 0 -38 -98t42 -98q11 0 23 19q5 8 5 82z" />
    <glyph glyph-name="b" unicode="b" horiz-adv-x="676" 
d="M627 247q0 -104 -39 -158q-43 -61 -107 -78q-37 -10 -137 -11h-344v50q16 -3 31 3q24 10 24 42v494q-3 27 -38 27q-9 0 -17 -1v48h240v-589q0 -18 17 -18q21 0 19 19l1 283q8 118 154 118q88 0 144 -71q52 -65 52 -158zM421 139v185q0 92 -52 93q-13 1 -28 -12
q-18 -16 -18 -39v-283q0 -29 39 -29q31 0 46 22q10 15 12 41q2 22 1 22z" />
    <glyph glyph-name="c" unicode="c" horiz-adv-x="609" 
d="M555 272h-186v99q1 61 -42 61q-15 0 -27 -14.5t-12 -29.5l-1 -300q0 -19 10.5 -34.5t29.5 -15.5q45 0 45 56v107h186v-14q5 -192 -258 -192q-124 0 -205 59q-91 66 -91 185q0 100 71 167.5t171 67.5q-38 -27 -39 -62v-319q0 -21 18 -38t39 -21q-16 32 -18 51q0 -4 0 52
v93v88q0 89 11 113q20 45 98 45q51 0 80 -12q13 -8 43 -18l8 -1q11 0 30 24h38z" />
    <glyph glyph-name="d" unicode="d" horiz-adv-x="683" 
d="M636 -1h-390q-117 0 -181 64.5t-64 180.5q0 101 60.5 166t160.5 65q46 0 86 -22q48 -26 48 -68v-303q0 -32 17 -32q20 0 20 30v508q0 21 -17 27q-9 3 -36 4v45h243v-570q0 -44 53 -44v-51zM306 64v311q0 17 -13.5 31.5t-30.5 14.5q-53 0 -53 -104v-165q0 -102 64 -102
q33 0 33 14z" />
    <glyph glyph-name="e" unicode="e" horiz-adv-x="623" 
d="M564 225h-277q2 -35 0 -47v-94q-3 -59 43 -59q16 0 27.5 14t10.5 25q-1 68 0 125h194q-22 -199 -253 -199q-200 0 -264 104q-44 71 -44 134q0 72 35 130q42 73 128 100q54 17 84 11q-31 -21 -39 -54q-4 -13 -4 -60v-248l8 -44q10 -27 48 -34q-22 31 -22 64v274
q0 58 33 84q29 23 83 22q101 -3 158 -76q53 -68 51 -172zM366 339q0 42 -3 54q-8 33 -36 33q-27 0 -34.5 -19t-5.5 -68v-68q54 2 79 1v67z" />
    <glyph glyph-name="f" unicode="f" horiz-adv-x="460" 
d="M464 530h-143q1 11 0 34q2 12 -7.5 21t-22.5 9q-29 0 -29 -34v-91h134v-55h-48v-332q0 -25 23 -31q15 -1 29 -1l-1 -49h-394l1 49l40 4q26 6 24 34v328h-63v53h63q1 84 0 82q0 45 44 80q54 43 153 43q66 0 121 -23q72 -30 76 -86q-1 -12 0 -35zM298 67v349h-37v-349
q-1 -17 19 -17q18 0 18 17z" />
    <glyph glyph-name="g" unicode="g" horiz-adv-x="662" 
d="M632 469q2 -31 0 -45q-9 2 -16 2q-33 0 -31 -39v-366q0 -130 -73 -181q-62 -43 -200 -43q-268 0 -268 155v20h216q0 4 0 -68q0 -68 70 -68q27 0 44.5 16.5t17.5 44.5l1 146q-25 -14 -50 -29q-33 -14 -95 -14q-123 0 -188 79q-58 69 -58 180q0 91 62.5 153t153.5 62
q135 0 135 -107v-267q2 -6 5 -12q3 -9 13 -9q26 0 20 32l-1 358h242zM305 130v231q0 23 -13 45t-35 22q-37 0 -48 -40q-4 -15 -4 -56v-202q0 -34 5 -48q11 -33 47 -35q48 -3 48 83z" />
    <glyph glyph-name="h" unicode="h" horiz-adv-x="712" 
d="M684 0l-310 -1v51q28 0 33 2q21 6 21 36v263q0 14 -11.5 23t-23.5 9q-17 0 -28.5 -12t-11.5 -25v-346h-352v50q35 0 44 4q17 8 17 40l-1 489q0 35 -61 32l1 48h260l1 -583q-3 -7 2.5 -17.5t16.5 -10.5q18 0 18 37v252q1 71 53 106q41 27 104 27q182 0 175 -142v-248
q-2 -21 9.5 -27.5t43.5 -6.5v-50z" />
    <glyph glyph-name="i" unicode="i" horiz-adv-x="433" 
d="M339 609q0 -44 -48 -76q-40 -26 -105 -26q-49 0 -86 16q-54 24 -54 74q0 46 40 68q30 16 73 16q36 0 67 -15q40 -19 40 -55q0 -25 -29 -56l-1 -6q60 13 60 72q0 27 -14 48h39q7 -4 12.5 -24t5.5 -36zM407 0h-407v50q27 0 38 5q23 10 23 45v280q0 43 -34 43h-25v46h257
v-389q0 -30 19 -30q18 0 18 30v389l51 -1l-1 -373q0 -31 16 -40q10 -5 45 -5v-50z" />
    <glyph glyph-name="j" unicode="j" horiz-adv-x="631" 
d="M555 0q0 -228 -308 -228q-256 0 -253 189h194v-77q0 -19 4 -29q10 -27 40 -28q41 -1 41 57l2 496q0 29 -9 39t-37 7q-11 0 -11 1v42h257v-469q0 -92 -36 -153q56 32 68 93q3 13 4 60v469h45zM542 609q0 -44 -48 -76q-40 -26 -105 -26q-49 0 -86 16q-54 24 -54 74
q0 46 40 68q30 16 73 16q36 0 67 -15q40 -19 40 -55q0 -25 -29 -56l-2 -6q61 13 61 72q0 27 -14 48h39q6 -4 12 -24t6 -36z" />
    <glyph glyph-name="k" unicode="k" horiz-adv-x="769" 
d="M732 50v-50h-719v50q27 0 36 3q23 7 23 35v498q0 24 -20 28q-2 1 -38 1v49h253v-585q0 -29 16 -29q19 0 19 29v585h54v-373q54 32 148 89q14 9 18 23q3 15 -18 18q-9 1 -22 0v48h234v-47q-57 0 -70 -8q-21 -13 -162 -99l171 -242q23 -23 77 -23zM424 72q0 4 -36 63
q-30 51 -32 54v-112q0 -27 32 -27q36 0 36 22z" />
    <glyph glyph-name="l" unicode="l" horiz-adv-x="433" 
d="M407 0h-407v50q27 0 38 5q23 10 23 45v474q0 43 -34 43h-25v46h257v-583q0 -30 19 -30q18 0 18 30v583l51 -1l-1 -567q0 -31 16 -40q10 -5 45 -5v-50z" />
    <glyph glyph-name="m" unicode="m" horiz-adv-x="1019" 
d="M994 0h-238l1 354q0 29 -34 29t-34 -54v-249q0 -30 40 -30l1 -50h-318l-1 336q-2 47 -32 47q-36 0 -36 -61v-248q-2 -20 15 -24q7 -2 17 0v-50h-369v50q52 -8 56 26l-1 292q3 0 -9 26.5t-23 26.5h-23v48h247v-391q5 -28 20 -28q7 0 14 7t6 17v288q12 81 79 106
q28 10 84 10q48 0 92 -29q51 -34 51 -82l1 -296q-2 -27 21 -27q21 0 16 27v290q2 108 158 113q53 2 98 -23q52 -30 52 -79l1 -278q0 -44 32 -44q10 0 17 -1q2 -12 -1 -49z" />
    <glyph glyph-name="n" unicode="n" horiz-adv-x="675" 
d="M406 0l-1 336q0 46 -32 47q-35 1 -36 -45v-268q-1 -13 9 -18t23 -2v-50h-369v50q7 -2 16 -2q40 0 40 28l-1 292q0 32 -11.5 42.5t-43.5 10.5v48h247v-391q0 -9 6 -18.5t14 -9.5q20 0 20 24v288q0 57 46 89q41 27 101 27q57 0 104 -26q55 -32 55 -85l-1 -285q0 -36 50 -32
v-50h-236z" />
    <glyph glyph-name="o" unicode="o" horiz-adv-x="664" 
d="M623 240q0 -110 -96 -182q-89 -67 -208 -67q-126 0 -215 65q-98 70 -100 186q-1 110 79 176q74 60 183 60q-41 -31 -41 -110v-238q0 -67 55 -91q-20 50 -20 67v258q0 117 108 117q114 0 184.5 -68t70.5 -173zM406 356q0 36 -3 45q-9 30 -45 30q-49 0 -50 -72v-281
q0 -15 17 -28.5t33 -13.5q15 0 32 15.5t16 30.5q1 90 0 274z" />
    <glyph glyph-name="p" unicode="p" horiz-adv-x="684" 
d="M640 246q0 -115 -67 -180.5t-183 -65.5h-138l-1 -100q0 -22 12 -32t45 -10q2 -21 -1 -51h-302l-1 50q-2 1 13 1q37 0 37 32v503q0 36 -50 27q-3 25 1 50h248v-404q0 -16 18 -16q6 0 11.5 6.5t5.5 12.5l1 284q0 59 37 90.5t96 31.5q98 0 158 -65t60 -164zM429 359
q0 57 -49 57q-48 0 -48 -68v-250q0 -19 13.5 -33.5t32.5 -14.5q22 0 36.5 13t14.5 33v263z" />
    <glyph glyph-name="q" unicode="q" horiz-adv-x="684" 
d="M4 246q0 -115 67.5 -180.5t183.5 -65.5h138l1 -100q0 -28 -15 -37q-11 -5 -42 -5q-3 -21 0 -51h303l-1 51h-11q-38 0 -38 32v503q0 36 50 27q4 28 1 49l-249 1v-404q0 -16 -18 -16q-6 0 -12 6.5t-6 12.5v284q0 59 -37 90.5t-97 31.5q-97 0 -157.5 -65t-60.5 -164z
M215 359q0 57 50 57q48 0 48 -68v-250q0 -19 -14 -33.5t-32 -14.5q-22 0 -37 13t-15 33v263z" />
    <glyph glyph-name="r" unicode="r" horiz-adv-x="511" 
d="M464 259q-18 54 -82 54q-25 0 -42 -25.5t-18 -52.5v-151q0 -21 14 -29t35 -5v-50h-371v50l6 -1q42 -1 42 34l-1 282q0 33 -8 44.5t-39 11.5v47h238l1 -391q-2 -23 18 -23q22 0 18 25l1 294q0 43 24.5 70.5t67.5 29.5q96 5 96 -88v-126z" />
    <glyph glyph-name="s" unicode="s" horiz-adv-x="496" 
d="M467 158q0 -83 -72 -126q-59 -35 -150 -38q-42 -1 -95 8q-66 12 -64 12q-11 0 -31 -14h-54v154h157q0 -48 8 -70q12 -38 49 -45q-29 48 -28 93v8h42q-1 -7 -1 -18q0 -83 44 -83q21 0 36.5 13.5t15.5 34.5q0 43 -85 69q-150 46 -158 50q-85 41 -85 118q0 142 209 145
q-44 -25 -44 -76q0 -49 42 -60q-12 20 -12 51q0 42 26.5 66.5t68.5 23.5h4q25 0 55.5 -11t29.5 -11q5 0 20 17h46v-134h-165q0 -10 0 38q0 47 -24 47t-24 -37q0 -35 9 -49q12 -18 46 -24q100 -18 129 -35q55 -33 55 -117z" />
    <glyph glyph-name="t" unicode="t" horiz-adv-x="467" 
d="M428 95q0 -103 -185 -103q-77 0 -116 17q-58 24 -65 89l-2 323h-60v48q79 4 113 15q69 24 80 90q4 23 4 39h59l1 -144h158v-48h-73v-371q11 5 19 10q19 11 19 20q3 37 0 108h48v-93zM300 80v341h-43v-342q0 -36 23 -29q15 0 18 8q2 5 2 22z" />
    <glyph glyph-name="u" unicode="u" horiz-adv-x="675" 
d="M243 469l1 -336q0 -46 32 -47q35 0 36 46v268q1 13 -9 18t-23 2v49h369v-49q-7 1 -16 1q-40 0 -40 -27v-293q0 -31 12 -41.5t43 -10.5l1 -48h-248v391q0 8 -5.5 18t-13.5 10q-20 0 -20 -25v-287q0 -57 -47 -89q-41 -28 -100 -28q-58 0 -104 26q-55 32 -55 85l1 286
q0 36 -50 32v49h236z" />
    <glyph glyph-name="v" unicode="v" horiz-adv-x="628" 
d="M596 418q-27 2 -35 0q-19 -3 -26 -20l-158 -398h-151l-162 395q-11 21 -28 23t-36 3v48h257l121 -332l22 52l-83 240q-2 40 32 40h51v-49q-7 0 -15 1q-13 -3 -13 -19l54 -153q51 132 51 152q0 24 -51 20v48l170 1v-52z" />
    <glyph glyph-name="w" unicode="w" horiz-adv-x="848" 
d="M342 421q-12 0 -9 -24l42 -144q4 14 16 60l-26 82q-4 9 -7.5 17.5t-15.5 8.5zM412 247l-74 -247h-136l-138 395q-11 21 -21 24q-15 1 -29 2l-1 48h222l107 -332l17 52l-70 232q-3 48 24 48h225l98 -332l19 52l-67 232q-1 16 6 32t21 16h44v-48q4 2 -16 2q-14 0 -14 -15
l43 -155q18 60 41 147q3 16 -19 20q-9 1 -22 1v48h135v-48q-35 2 -45 -9q-4 -5 -3 -12l-131 -400h-136z" />
    <glyph glyph-name="x" unicode="x" horiz-adv-x="708" 
d="M672 1h-428v49h20q8 0 13.5 6.5t2.5 14.5q-5 15 -31.5 58.5t-35.5 54.5q-64 -95 -64 -113q0 -10 13.5 -17.5t23.5 -4.5v-49h-171v50q33 0 42 2q19 5 34 25q26 36 95 154q-41 70 -51 86q-30 49 -57 83q-14 19 -53 20l-11 1q0 47 1 49l242 -1l175 -270q28 -47 85 -130
q13 -16 25 -16q13 0 13 15q0 16 -113.5 187.5t-113.5 184.5q0 31 48 31q7 0 18.5 -1t14.5 -1h24q2 -14 0 -48q-32 0 -32 -14q0 -12 30 -56l40 -56q71 98 71 108q0 25 -49 18v49h169v-49q-17 -2 -33.5 -4t-30.5 -19q-5 -6 -100 -147q34 -58 106 -171q21 -31 52 -31q7 0 15 1z
" />
    <glyph glyph-name="y" unicode="y" horiz-adv-x="630" 
d="M309 -160q-26 -58 -123 -58q-142 0 -137 129q0 23 1 61h161v-65q0 -56 31 -56q19 0 31 26q17 41 52 123h-99l-162 395q-11 21 -28 23t-36 3v48h257l121 -332l22 52l-83 240q-2 40 32 40h51v-49q-7 0 -15 1q-13 -3 -13 -19l54 -153q51 132 51 152q0 24 -51 20v48l170 1
v-52q-28 2 -35 0q-20 -3 -26 -20q-76 -190 -226 -558z" />
    <glyph glyph-name="z" unicode="z" horiz-adv-x="624" 
d="M578 469l-230 -419h107q9 0 16 2q18 3 26 12q22 25 34 118q18 1 51 0v-181h-484l210 394q6 11 6 18q0 11 -16 9q-18 -2 -27.5 -23t-217.5 -399h-49l223 420l-58 1q-42 0 -64 -49q-16 -36 -16 -75v-55h-54v227h543z" />
    <glyph glyph-name="braceleft" unicode="{" horiz-adv-x="272" 
d="M181 738v-61h-95v-726h95v-62l-167 1l-1 849z" />
    <glyph glyph-name="bar" unicode="|" horiz-adv-x="394" 
d="M43 658l297 -658h-49l-296 658h48z" />
    <glyph glyph-name="braceright" unicode="}" horiz-adv-x="272" 
d="M13 -109v60h95v727h-95v61h167l1 -850z" />
    <glyph glyph-name="asciitilde" unicode="~" horiz-adv-x="426" 
d="M137 757q-58 0 -58 -25l-25 4q0 27 31 51t61 24q29 0 51.5 -16t43.5 -16q31 0 42.5 4t25.5 20l25 -1q0 -28 -31.5 -53t-61.5 -25q-24 0 -50 16.5t-54 16.5z" />
    <glyph glyph-name="Adieresis" unicode="&#xc4;" horiz-adv-x="821" 
d="M786 50v-50h-468v50h49q19 0 19 10q0 4 -2 10l-41 124h-169l-37 -121q0 -21 20 -23h39v-50h-186v50h46q15 0 26 23q63 196 193 591l162 -1l197 -590q8 -25 31 -25q15 0 15 14q0 5 -3 12l-200 590q2 1 25 1t25 -1q36 -105 107 -314q44 -136 90 -277q9 -24 28 -23h34z
M330 243l-73 211l-71 -211h144zM424 767q0 23 19.5 38.5t46.5 15.5q28 0 47 -15.5t19 -38.5q0 -22 -19 -38t-47 -16q-27 0 -46.5 16t-19.5 38zM204 767q0 23 19.5 38.5t46.5 15.5q28 0 47 -15.5t19 -38.5q0 -22 -19 -38t-47 -16q-27 0 -46.5 16t-19.5 38z" />
    <glyph glyph-name="Aring" unicode="&#xc5;" horiz-adv-x="821" 
d="M786 0h-468v50h49q19 0 19 10q0 4 -2 10l-41 124h-169l-37 -121q0 -21 20 -23h39v-50h-186v50h46q15 0 26 23q63 196 193 591l162 -1l197 -590q8 -25 31 -25q15 0 15 14q0 5 -3 12l-200 590q2 1 25 1t25 -1q36 -105 107 -314q44 -136 90 -277q9 -24 28 -23h34v-50z
M330 243l-73 211l-71 -211h144zM390 703q-33 0 -58 18q-28 19 -28 50q0 30 28 50q25 17 58 17t59 -17q28 -20 28 -50q0 -31 -27 -49.5t-60 -18.5zM390 798q-21 0 -33.5 -9t-12.5 -18t12.5 -18.5t33.5 -9.5q22 0 34.5 9.5t12.5 18.5t-12.5 18t-34.5 9z" />
    <glyph glyph-name="Ccedilla" unicode="&#xc7;" horiz-adv-x="729" 
d="M378 -19v-38q22 3 39 3q45 0 75 -20.5t30 -48.5q0 -37 -48 -59q-44 -20 -110 -20q-12 0 -37 7.5t-37 16.5l20 34q27 -18 70 -18q45 0 45 35q0 39 -42 39h-52q1 48 1 73q-144 18 -231 109q-91 95 -91 239q0 139 84 231q80 87 217 112q-53 -33 -53 -91l1 -474q0 -23 12 -44
q24 -41 86 -52q-52 33 -52 81v471q0 109 112 109q52 0 96.5 -28t73.5 -28q22 0 41 45h33v-312h-194v167q0 99 -58 99q-53 0 -54 -92l-2 -417q-1 -39 28 -61q25 -19 65 -19q64 0 116 59t46 123h55q1 -12 1 -22q0 -103 -90 -161q-78 -51 -185 -48h-11z" />
    <glyph glyph-name="Eacute" unicode="&#xc9;" horiz-adv-x="777" 
d="M697 425q-12 0 -51 -1v82q0 49 -31.5 78.5t-82.5 29.5h-127l-1 -257q49 -3 85 -1q47 14 52 62v70h52v-320q-28 -6 -55 0v83q0 26 -21 40t-47 14h-66v-256q129 2 134 0q6 -3 31 6q30 11 50 31q27 29 27 70q0 27 1 73l54 -1l1 -228h-679l-3 4v42q29 0 42 6q22 12 22 46v463
q0 54 -46 54q-5 0 -13 -1t-11 -1v51h292q2 -290 -1 -580q0 -37 26 -37q21 0 21 37v579h345v-238zM457 834l-233 -110l8 -26l263 38z" />
    <glyph glyph-name="Ntilde" unicode="&#xd1;" horiz-adv-x="752" 
d="M721 619q-60 0 -62 -31v-588l-261 1l-249 511v-430q0 -34 47 -34q7 0 15 1t7 1q-1 -47 -1 -51h-194v51q4 3 14 1q16 -2 15 -2q50 0 49 38v456q0 43 -6 54q-9 17 -43 17q-11 0 -25 -2l-1 51l301 1l282 -570v89l-236 481h47q60 -113 189 -386v310q0 27 -37 27h-24v49h173
v-45zM291 750q-67 0 -67 -30l-28 5q0 32 36 59t70 27q33 0 59 -18t50 -18q35 0 48.5 4.5t29.5 23.5l28 -2q0 -32 -36 -60.5t-70 -28.5q-28 0 -58 19t-62 19z" />
    <glyph glyph-name="Odieresis" unicode="&#xd6;" horiz-adv-x="801" 
d="M757 326q0 -145 -103.5 -241.5t-250.5 -96.5q-101 0 -149 13q-121 33 -189 131q-60 87 -60 194q0 111 64 198q72 98 207 134q-6 -10 -11 -20q-14 -28 -15 -47l1 -91v-332q0 -111 68 -133q-21 50 -21 70v461q0 102 125 102q143 0 240 -103q94 -101 94 -239zM497 131v389
q0 104 -84 104q-61 0 -66 -89l2 -435q2 -35 21 -54t45 -19q82 0 82 104zM424 767q0 23 19.5 38.5t46.5 15.5q28 0 47 -15.5t19 -38.5q0 -22 -19 -38t-47 -16q-27 0 -46.5 16t-19.5 38zM204 767q0 23 19.5 38.5t46.5 15.5q28 0 47 -15.5t19 -38.5q0 -22 -19 -38t-47 -16
q-27 0 -46.5 16t-19.5 38z" />
    <glyph glyph-name="Udieresis" unicode="&#xdc;" horiz-adv-x="781" 
d="M735 617l-30 -2q-14 0 -24.5 -18.5t-10.5 -30.5q-1 -22 -1 -121l1 -278q0 -82 -46 -122q-39 -34 -128 -45q-6 -4 -9 -4t-34 -1.5t-34 -1.5q-117 0 -196 25q-132 40 -132 141q0 73 -1 75l1 324q0 58 -39 57h-30v49h288v-512q0 -23 7 -44q19 -58 76 -62q-31 42 -31 87v356
q-1 30 0 126q1 17 17 35.5t39 14.5q7 -1 57 -1q1 -12 0 -49h-39q-22 0 -24 -21v-28v-431q0 -45 12 -62q17 -23 66 -23q132 0 130 124l1 375q0 70 -35 66q-12 -2 -35 0v49h184v-47zM414 767q0 23 19.5 38.5t46.5 15.5q28 0 47 -15.5t19 -38.5q0 -22 -19 -38t-47 -16
q-27 0 -46.5 16t-19.5 38zM194 767q0 23 19.5 38.5t46.5 15.5q28 0 47 -15.5t19 -38.5q0 -22 -19 -38t-47 -16q-27 0 -46.5 16t-19.5 38z" />
    <glyph glyph-name="aacute" unicode="&#xe1;" horiz-adv-x="646" 
d="M616 115q1 -15 -1 -45q-3 -77 -148 -77q-61 0 -83 15q-1 1 -23 19q-14 12 -17 10q-15 -15 -60 -28.5t-81 -13.5q-75 0 -134 43q-67 50 -67 128q0 53 30 95q35 49 96 58q26 3 50 3q69 0 99 -30q21 -20 21 -36l1 -165q0 -23 18 -23q5 0 13 4.5t5 11.5v312q-4 39 -27 39
q-19 0 -24 -9q-7 -12 -10 -41q-1 -16 1 -42h-41v52q1 21 22 40q-5 -2 -11 -2q-16 0 -29 -13t-13 -28v-51l-164 -1v129h43q5 -21 33 -21q2 0 33.5 7t42.5 9q52 9 93 9q185 0 228 -77q13 -24 13 -91v-218q0 -27 21 -30q16 -2 22 22q4 15 3 35q3 1 22 2q20 0 23 -1zM257 152
q0 45 -1 53q-6 42 -31 42q-38 0 -38 -98t42 -98q11 0 23 19q5 8 5 82zM377 644l-233 -110l8 -26l263 38z" />
    <glyph glyph-name="agrave" unicode="&#xe0;" horiz-adv-x="646" 
d="M616 115q1 -15 -1 -45q-3 -77 -148 -77q-61 0 -83 15q-1 1 -23 19q-14 12 -17 10q-15 -15 -60 -28.5t-81 -13.5q-75 0 -134 43q-67 50 -67 128q0 53 30 95q35 49 96 58q26 3 50 3q69 0 99 -30q21 -20 21 -36l1 -165q0 -23 18 -23q5 0 13 4.5t5 11.5v312q-4 39 -27 39
q-19 0 -24 -9q-7 -12 -10 -41q-1 -16 1 -42h-41v52q1 21 22 40q-5 -2 -11 -2q-16 0 -29 -13t-13 -28v-51l-164 -1v129h43q5 -21 33 -21q2 0 33.5 7t42.5 9q52 9 93 9q185 0 228 -77q13 -24 13 -91v-218q0 -27 21 -30q16 -2 22 22q4 15 3 35q3 1 22 2q20 0 23 -1zM257 152
q0 45 -1 53q-6 42 -31 42q-38 0 -38 -98t42 -98q11 0 23 19q5 8 5 82zM163 644l234 -110l-9 -26l-262 38z" />
    <glyph glyph-name="acircumflex" unicode="&#xe2;" horiz-adv-x="646" 
d="M616 115q1 -15 -1 -45q-3 -77 -148 -77q-61 0 -83 15q-1 1 -23 19q-14 12 -17 10q-15 -15 -60 -28.5t-81 -13.5q-75 0 -134 43q-67 50 -67 128q0 53 30 95q35 49 96 58q26 3 50 3q69 0 99 -30q21 -20 21 -36l1 -165q0 -23 18 -23q5 0 13 4.5t5 11.5v312q-4 39 -27 39
q-19 0 -24 -9q-7 -12 -10 -41q-1 -16 1 -42h-41v52q1 21 22 40q-5 -2 -11 -2q-16 0 -29 -13t-13 -28v-51l-164 -1v129h43q5 -21 33 -21q2 0 33.5 7t42.5 9q52 9 93 9q185 0 228 -77q13 -24 13 -91v-218q0 -27 21 -30q16 -2 22 22q4 15 3 35q3 1 22 2q20 0 23 -1zM257 152
q0 45 -1 53q-6 42 -31 42q-38 0 -38 -98t42 -98q11 0 23 19q5 8 5 82zM275 635v0l1 -1l166 -97q-8 -29 -8 -26q0 2 -165 40q-152 -38 -152 -40q0 -3 -9 26l167 98h1h1h-2z" />
    <glyph glyph-name="adieresis" unicode="&#xe4;" horiz-adv-x="646" 
d="M616 115q1 -15 -1 -45q-3 -77 -148 -77q-61 0 -83 15q-1 1 -23 19q-14 12 -17 10q-15 -15 -60 -28.5t-81 -13.5q-75 0 -134 43q-67 50 -67 128q0 53 30 95q35 49 96 58q26 3 50 3q69 0 99 -30q21 -20 21 -36l1 -165q0 -23 18 -23q5 0 13 4.5t5 11.5v312q-4 39 -27 39
q-19 0 -24 -9q-7 -12 -10 -41q-1 -16 1 -42h-41v52q1 21 22 40q-5 -2 -11 -2q-16 0 -29 -13t-13 -28v-51l-164 -1v129h43q5 -21 33 -21q2 0 33.5 7t42.5 9q52 9 93 9q185 0 228 -77q13 -24 13 -91v-218q0 -27 21 -30q16 -2 22 22q4 15 3 35q3 1 22 2q20 0 23 -1zM257 152
q0 45 -1 53q-6 42 -31 42q-38 0 -38 -98t42 -98q11 0 23 19q5 8 5 82zM317 571q0 22 19 38t47 16q27 0 46.5 -16t19.5 -38t-19.5 -38t-46.5 -16q-28 0 -47 16t-19 38zM107 571q0 22 19 38t47 16q27 0 46.5 -16t19.5 -38t-19.5 -38t-46.5 -16q-28 0 -47 16t-19 38z" />
    <glyph glyph-name="atilde" unicode="&#xe3;" horiz-adv-x="646" 
d="M616 115q1 -15 -1 -45q-3 -77 -148 -77q-61 0 -83 15q-1 1 -23 19q-14 12 -17 10q-15 -15 -60 -28.5t-81 -13.5q-75 0 -134 43q-67 50 -67 128q0 53 30 95q35 49 96 58q26 3 50 3q69 0 99 -30q21 -20 21 -36l1 -165q0 -23 18 -23q5 0 13 4.5t5 11.5v312q-4 39 -27 39
q-19 0 -24 -9q-7 -12 -10 -41q-1 -16 1 -42h-41v52q1 21 22 40q-5 -2 -11 -2q-16 0 -29 -13t-13 -28v-51l-164 -1v129h43q5 -21 33 -21q2 0 33.5 7t42.5 9q52 9 93 9q185 0 228 -77q13 -24 13 -91v-218q0 -27 21 -30q16 -2 22 22q4 15 3 35q3 1 22 2q20 0 23 -1zM257 152
q0 45 -1 53q-6 42 -31 42q-38 0 -38 -98t42 -98q11 0 23 19q5 8 5 82zM221 550q-67 0 -67 -30l-28 5q0 32 36 59t70 27q33 0 59 -18t50 -18q35 0 48.5 4.5t29.5 23.5l28 -2q0 -32 -36 -60.5t-70 -28.5q-28 0 -58 19t-62 19z" />
    <glyph glyph-name="aring" unicode="&#xe5;" horiz-adv-x="646" 
d="M616 115q1 -15 -1 -45q-3 -77 -148 -77q-61 0 -83 15q-1 1 -23 19q-14 12 -17 10q-15 -15 -60 -28.5t-81 -13.5q-75 0 -134 43q-67 50 -67 128q0 53 30 95q35 49 96 58q26 3 50 3q69 0 99 -30q21 -20 21 -36l1 -165q0 -23 18 -23q5 0 13 4.5t5 11.5v312q-4 39 -27 39
q-19 0 -24 -9q-7 -12 -10 -41q-1 -16 1 -42h-41v52q1 21 22 40q-5 -2 -11 -2q-16 0 -29 -13t-13 -28v-51l-164 -1v129h43q5 -21 33 -21q2 0 33.5 7t42.5 9q52 9 93 9q185 0 228 -77q13 -24 13 -91v-218q0 -27 21 -30q16 -2 22 22q4 15 3 35q3 1 22 2q20 0 23 -1zM257 152
q0 45 -1 53q-6 42 -31 42q-38 0 -38 -98t42 -98q11 0 23 19q5 8 5 82zM280 513q-33 0 -58 18q-28 19 -28 50q0 30 28 50q25 17 58 17t59 -17q28 -20 28 -50q0 -31 -27 -49.5t-60 -18.5zM280 608q-21 0 -33.5 -9t-12.5 -18t12.5 -18.5t33.5 -9.5q22 0 34.5 9.5t12.5 18.5
t-12.5 18t-34.5 9z" />
    <glyph glyph-name="ccedilla" unicode="&#xe7;" horiz-adv-x="609" 
d="M555 272h-186v99q1 61 -42 61q-15 0 -27 -14.5t-12 -29.5l-1 -300q0 -19 10.5 -34.5t29.5 -15.5q45 0 45 56v107h186v-14q5 -189 -247 -192v-37q19 3 34 3q42 0 68.5 -18.5t26.5 -43.5q0 -34 -41.5 -52.5t-100.5 -18.5q-36 0 -66 21l18 31q24 -16 62 -16q41 0 41 31
q0 35 -38 35h-46l-2 65q-113 8 -184 67q-79 66 -79 177q0 100 71 167.5t171 67.5q-38 -27 -39 -62v-319q0 -21 18 -38t39 -21q-16 32 -18 51q0 -4 0 52v93v88q0 89 11 113q20 45 98 45q51 0 80 -12q13 -8 43 -18l8 -1q11 0 30 24h38z" />
    <glyph glyph-name="eacute" unicode="&#xe9;" horiz-adv-x="623" 
d="M564 225h-277q2 -35 0 -47v-94q-3 -59 43 -59q16 0 27.5 14t10.5 25q-1 68 0 125h194q-22 -199 -253 -199q-200 0 -264 104q-44 71 -44 134q0 72 35 130q42 73 128 100q54 17 84 11q-31 -21 -39 -54q-4 -13 -4 -60v-248l8 -44q10 -27 48 -34q-22 31 -22 64v274
q0 58 33 84q29 23 83 22q101 -3 158 -76q53 -68 51 -172zM366 339q0 42 -3 54q-8 33 -36 33q-27 0 -34.5 -19t-5.5 -68v-68q54 2 79 1v67zM377 644l-233 -110l8 -26l263 38z" />
    <glyph glyph-name="egrave" unicode="&#xe8;" horiz-adv-x="623" 
d="M564 225h-277q2 -35 0 -47v-94q-3 -59 43 -59q16 0 27.5 14t10.5 25q-1 68 0 125h194q-22 -199 -253 -199q-200 0 -264 104q-44 71 -44 134q0 72 35 130q42 73 128 100q54 17 84 11q-31 -21 -39 -54q-4 -13 -4 -60v-248l8 -44q10 -27 48 -34q-22 31 -22 64v274
q0 58 33 84q29 23 83 22q101 -3 158 -76q53 -68 51 -172zM366 339q0 42 -3 54q-8 33 -36 33q-27 0 -34.5 -19t-5.5 -68v-68q54 2 79 1v67zM183 644l234 -110l-9 -26l-262 38z" />
    <glyph glyph-name="ecircumflex" unicode="&#xea;" horiz-adv-x="623" 
d="M564 225h-277q2 -35 0 -47v-94q-3 -59 43 -59q16 0 27.5 14t10.5 25q-1 68 0 125h194q-22 -199 -253 -199q-200 0 -264 104q-44 71 -44 134q0 72 35 130q42 73 128 100q54 17 84 11q-31 -21 -39 -54q-4 -13 -4 -60v-248l8 -44q10 -27 48 -34q-22 31 -22 64v274
q0 58 33 84q29 23 83 22q101 -3 158 -76q53 -68 51 -172zM366 339q0 42 -3 54q-8 33 -36 33q-27 0 -34.5 -19t-5.5 -68v-68q54 2 79 1v67zM275 635v0l1 -1l166 -97q-8 -29 -8 -26q0 2 -165 40q-152 -38 -152 -40q0 -3 -9 26l167 98h1h1h-2z" />
    <glyph glyph-name="edieresis" unicode="&#xeb;" horiz-adv-x="623" 
d="M564 225h-277q2 -35 0 -47v-94q-3 -59 43 -59q16 0 27.5 14t10.5 25q-1 68 0 125h194q-22 -199 -253 -199q-200 0 -264 104q-44 71 -44 134q0 72 35 130q42 73 128 100q54 17 84 11q-31 -21 -39 -54q-4 -13 -4 -60v-248l8 -44q10 -27 48 -34q-22 31 -22 64v274
q0 58 33 84q29 23 83 22q101 -3 158 -76q53 -68 51 -172zM366 339q0 42 -3 54q-8 33 -36 33q-27 0 -34.5 -19t-5.5 -68v-68q54 2 79 1v67zM317 571q0 22 19 38t47 16q27 0 46.5 -16t19.5 -38t-19.5 -38t-46.5 -16q-28 0 -47 16t-19 38zM107 571q0 22 19 38t47 16
q27 0 46.5 -16t19.5 -38t-19.5 -38t-46.5 -16q-28 0 -47 16t-19 38z" />
    <glyph glyph-name="iacute" unicode="&#xed;" horiz-adv-x="433" 
d="M407 0h-407v50q27 0 38 5q23 10 23 45v280q0 43 -34 43h-25v46h257v-389q0 -30 19 -30q18 0 18 30v389l51 -1l-1 -373q0 -31 16 -40q10 -5 45 -5v-50zM277 644l-233 -110l8 -26l263 38z" />
    <glyph glyph-name="igrave" unicode="&#xec;" horiz-adv-x="433" 
d="M407 0h-407v50q27 0 38 5q23 10 23 45v280q0 43 -34 43h-25v46h257v-389q0 -30 19 -30q18 0 18 30v389l51 -1l-1 -373q0 -31 16 -40q10 -5 45 -5v-50zM83 644l234 -110l-9 -26l-262 38z" />
    <glyph glyph-name="icircumflex" unicode="&#xee;" horiz-adv-x="433" 
d="M407 0h-407v50q27 0 38 5q23 10 23 45v280q0 43 -34 43h-25v46h257v-389q0 -30 19 -30q18 0 18 30v389l51 -1l-1 -373q0 -31 16 -40q10 -5 45 -5v-50zM185 635v0l1 -1l166 -97q-8 -29 -8 -26q0 2 -165 40q-152 -38 -152 -40q0 -3 -9 26l167 98h1h1h-2z" />
    <glyph glyph-name="idieresis" unicode="&#xef;" horiz-adv-x="433" 
d="M407 0h-407v50q27 0 38 5q23 10 23 45v280q0 43 -34 43h-25v46h257v-389q0 -30 19 -30q18 0 18 30v389l51 -1l-1 -373q0 -31 16 -40q10 -5 45 -5v-50zM227 571q0 22 19 38t47 16q27 0 46.5 -16t19.5 -38t-19.5 -38t-46.5 -16q-28 0 -47 16t-19 38zM17 571q0 22 19 38
t47 16q27 0 46.5 -16t19.5 -38t-19.5 -38t-46.5 -16q-28 0 -47 16t-19 38z" />
    <glyph glyph-name="ntilde" unicode="&#xf1;" horiz-adv-x="675" 
d="M406 0l-1 336q0 46 -32 47q-35 1 -36 -45v-268q-1 -13 9 -18t23 -2v-50h-369v50q7 -2 16 -2q40 0 40 28l-1 292q0 32 -11.5 42.5t-43.5 10.5v48h247v-391q0 -9 6 -18.5t14 -9.5q20 0 20 24v288q0 57 46 89q41 27 101 27q57 0 104 -26q55 -32 55 -85l-1 -285q0 -36 50 -32
v-50h-236zM231 550q-67 0 -67 -30l-28 5q0 32 36 59t70 27q33 0 59 -18t50 -18q35 0 48.5 4.5t29.5 23.5l28 -2q0 -32 -36 -60.5t-70 -28.5q-28 0 -58 19t-62 19z" />
    <glyph glyph-name="oacute" unicode="&#xf3;" horiz-adv-x="664" 
d="M397 644l-233 -110l8 -26l263 38zM623 240q0 -110 -96 -182q-89 -67 -208 -67q-126 0 -215 65q-98 70 -100 186q-1 110 79 176q74 60 183 60q-41 -31 -41 -110v-238q0 -67 55 -91q-20 50 -20 67v258q0 117 108 117q114 0 184.5 -68t70.5 -173zM406 356q0 36 -3 45
q-9 30 -45 30q-49 0 -50 -72v-281q0 -15 17 -28.5t33 -13.5q15 0 32 15.5t16 30.5q1 90 0 274z" />
    <glyph glyph-name="ograve" unicode="&#xf2;" horiz-adv-x="664" 
d="M623 240q0 -110 -96 -182q-89 -67 -208 -67q-126 0 -215 65q-98 70 -100 186q-1 110 79 176q74 60 183 60q-41 -31 -41 -110v-238q0 -67 55 -91q-20 50 -20 67v258q0 117 108 117q114 0 184.5 -68t70.5 -173zM406 356q0 36 -3 45q-9 30 -45 30q-49 0 -50 -72v-281
q0 -15 17 -28.5t33 -13.5q15 0 32 15.5t16 30.5q1 90 0 274zM223 644l234 -110l-9 -26l-262 38z" />
    <glyph glyph-name="ocircumflex" unicode="&#xf4;" horiz-adv-x="664" 
d="M623 240q0 -110 -96 -182q-89 -67 -208 -67q-126 0 -215 65q-98 70 -100 186q-1 110 79 176q74 60 183 60q-41 -31 -41 -110v-238q0 -67 55 -91q-20 50 -20 67v258q0 117 108 117q114 0 184.5 -68t70.5 -173zM406 356q0 36 -3 45q-9 30 -45 30q-49 0 -50 -72v-281
q0 -15 17 -28.5t33 -13.5q15 0 32 15.5t16 30.5q1 90 0 274zM315 635v0l1 -1l166 -97q-8 -29 -8 -26q0 2 -165 40q-152 -38 -152 -40q0 -3 -9 26l167 98h1h1h-2z" />
    <glyph glyph-name="odieresis" unicode="&#xf6;" horiz-adv-x="664" 
d="M623 240q0 -110 -96 -182q-89 -67 -208 -67q-126 0 -215 65q-98 70 -100 186q-1 110 79 176q74 60 183 60q-41 -31 -41 -110v-238q0 -67 55 -91q-20 50 -20 67v258q0 117 108 117q114 0 184.5 -68t70.5 -173zM406 356q0 36 -3 45q-9 30 -45 30q-49 0 -50 -72v-281
q0 -15 17 -28.5t33 -13.5q15 0 32 15.5t16 30.5q1 90 0 274zM347 571q0 22 19 38t47 16q27 0 46.5 -16t19.5 -38t-19.5 -38t-46.5 -16q-28 0 -47 16t-19 38zM137 571q0 22 19 38t47 16q27 0 46.5 -16t19.5 -38t-19.5 -38t-46.5 -16q-28 0 -47 16t-19 38z" />
    <glyph glyph-name="otilde" unicode="&#xf5;" horiz-adv-x="664" 
d="M623 240q0 -110 -96 -182q-89 -67 -208 -67q-126 0 -215 65q-98 70 -100 186q-1 110 79 176q74 60 183 60q-41 -31 -41 -110v-238q0 -67 55 -91q-20 50 -20 67v258q0 117 108 117q114 0 184.5 -68t70.5 -173zM406 356q0 36 -3 45q-9 30 -45 30q-49 0 -50 -72v-281
q0 -15 17 -28.5t33 -13.5q15 0 32 15.5t16 30.5q1 90 0 274zM241 550q-67 0 -67 -30l-28 5q0 32 36 59t70 27q33 0 59 -18t50 -18q35 0 48.5 4.5t29.5 23.5l28 -2q0 -32 -36 -60.5t-70 -28.5q-28 0 -58 19t-62 19z" />
    <glyph glyph-name="uacute" unicode="&#xfa;" horiz-adv-x="675" 
d="M243 469l1 -336q0 -46 32 -47q35 0 36 46v268q1 13 -9 18t-23 2v49h369v-49q-7 1 -16 1q-40 0 -40 -27v-293q0 -31 12 -41.5t43 -10.5l1 -48h-248v391q0 8 -5.5 18t-13.5 10q-20 0 -20 -25v-287q0 -57 -47 -89q-41 -28 -100 -28q-58 0 -104 26q-55 32 -55 85l1 286
q0 36 -50 32v49h236zM447 644l-233 -110l8 -26l263 38z" />
    <glyph glyph-name="ugrave" unicode="&#xf9;" horiz-adv-x="675" 
d="M243 469l1 -336q0 -46 32 -47q35 0 36 46v268q1 13 -9 18t-23 2v49h369v-49q-7 1 -16 1q-40 0 -40 -27v-293q0 -31 12 -41.5t43 -10.5l1 -48h-248v391q0 8 -5.5 18t-13.5 10q-20 0 -20 -25v-287q0 -57 -47 -89q-41 -28 -100 -28q-58 0 -104 26q-55 32 -55 85l1 286
q0 36 -50 32v49h236zM233 644l234 -110l-9 -26l-262 38z" />
    <glyph glyph-name="ucircumflex" unicode="&#xfb;" horiz-adv-x="675" 
d="M244 469v-336q0 -46 32 -47q35 0 36 46v268q1 13 -9 18t-23 2v49h369v-49q-7 1 -16 1q-40 0 -40 -27l-1 -295q0 -31 14 -42q11 -8 42 -8l1 -48h-248v391q0 8 -5.5 18t-13.5 10q-20 0 -20 -25v-287q0 -57 -47 -89q-41 -28 -100 -28q-58 0 -104 26q-55 32 -55 85l1 286
q0 36 -50 32v49h237zM335 635v0l1 -1l166 -97q-8 -29 -8 -26q0 2 -165 40q-152 -38 -152 -40q0 -3 -9 26l167 98h1h1h-2z" />
    <glyph glyph-name="udieresis" unicode="&#xfc;" horiz-adv-x="675" 
d="M243 469l-1 -335q0 -47 34 -48q35 0 36 46v268q1 13 -9 18t-23 2v49h369v-49q-7 1 -16 1q-40 0 -40 -27l-1 -295q0 -31 14 -42q11 -8 42 -8l1 -48h-248v391q0 8 -5.5 18t-13.5 10q-20 0 -20 -25v-287q0 -57 -47 -89q-41 -28 -100 -28q-58 0 -104 26q-55 32 -55 85l1 286
q0 36 -50 32v49h236zM367 571q0 22 19 38t47 16q27 0 46.5 -16t19.5 -38t-19.5 -38t-46.5 -16q-28 0 -47 16t-19 38zM157 571q0 22 19 38t47 16q27 0 46.5 -16t19.5 -38t-19.5 -38t-46.5 -16q-28 0 -47 16t-19 38z" />
    <glyph glyph-name="dagger" unicode="&#x2020;" 
 />
    <glyph glyph-name="degree" unicode="&#xb0;" horiz-adv-x="337" 
d="M146 684q60 0 102 -42.5t42 -101.5q0 -60 -42 -102t-102 -42t-102 42t-42 102q0 59 42 101.5t102 42.5zM146 644q-43 0 -73.5 -30.5t-30.5 -73.5t30.5 -73.5t73.5 -30.5t73.5 30.5t30.5 73.5t-30.5 73.5t-73.5 30.5z" />
    <glyph glyph-name="cent" unicode="&#xa2;" horiz-adv-x="609" 
d="M287 56l-43 -1v76q-136 6 -209 116q-30 46 -30 117q0 111 58.5 174t162.5 71q-20 -19 -20 -61v-331q1 -19 12.5 -31.5t20.5 -12.5q4 0 4 4l1 489l43 -1l-1 -50q7 1 29 1q110 0 167 -47q9 1 34 23h43v-180h-192v59q0 3 1 17.5t1 23.5q0 54 -42 54q-39 0 -39 -48l1 -313
q0 -14 15 -25q12 -9 23 -9q19 0 32 16.5t13 36.5v107h186q0 -122 -82 -168q-59 -33 -189 -33v-74z" />
    <glyph glyph-name="sterling" unicode="&#xa3;" horiz-adv-x="846" 
d="M796 184q0 -188 -168 -188q-62 0 -126.5 21t-57.5 21q-2 0 -27 -17t-40 -21q-21 -7 -95 -7l-110 1q-88 0 -109 6q-63 18 -59 92q3 44 45 67q36 21 90 20q7 0 39 -7v15v125h-111v56h113q1 -9 1 140q0 74 51 114.5t136 41.5h71q-7 -9 -15 -19q-13 -20 -13 -50v-462
q0 -42 -25 -68q58 9 69 110l-1 430q8 65 110 59q89 -5 118 -22q67 -37 62 -155h-190q0 88 0 85q-2 37 -23 37q-18 0 -23 -11q-1 -4 -1 -22v-209q111 -3 113 0v-58h-111v-149q0 -8 -8 -35q-10 -33 -21 -46q9 -10 43 -10q64 0 57 161h216v-46zM176 119q-15 13 -47 13
q-24 0 -45 -11q-24 -14 -24 -36q0 -39 52 -39q65 0 64 73z" />
    <glyph glyph-name="section" unicode="&#xa7;" 
 />
    <glyph glyph-name="bullet" unicode="&#x2022;" horiz-adv-x="333" 
d="M12 302q0 52 37 88.5t89 36.5t88.5 -36.5t36.5 -88.5t-36.5 -88.5t-88.5 -36.5t-89 36.5t-37 88.5z" />
    <glyph glyph-name="paragraph" unicode="&#xb6;" 
 />
    <glyph glyph-name="germandbls" unicode="&#xdf;" horiz-adv-x="749" 
d="M705 175q0 -73 -52 -122.5t-141 -52.5q-60 -2 -193 0v558q0 55 13 77q15 27 67 33q14 2 84 2q81 0 134 -38q62 -43 62 -124q0 -68 -47 -104q-33 -25 -111 -44q-5 -1 -3 -6q1 -5 3 -5q54 0 92 -16q92 -40 92 -158zM312 668q-41 -24 -38 -74l1 -593l-275 -1v50q51 -2 51 38
v405q0 78 72 129q66 46 146 46h43zM462 450v101q-1 19 -13 40q-16 25 -38 25q-17 0 -27 -18.5t-10 -37.5l1 -184q0 1 18 1q73 0 69 73zM476 276q0 59 -68 59h-33v-285h36q17 0 39 13q26 16 26 38v175z" />
    <glyph glyph-name="registered" unicode="&#xae;" horiz-adv-x="374" 
d="M172 378q-64 0 -109.5 46.5t-45.5 111.5q0 64 45.5 109.5t109.5 45.5t108 -46t44 -111t-44 -110.5t-108 -45.5zM172 657q-52 1 -86.5 -34.5t-34.5 -88.5q0 -51 36 -87t85 -36t84.5 36t35.5 87t-35.5 87t-84.5 36zM176 624q13 5 35 -4q28 -11 28 -40q0 -44 -44 -50l47 -73
h-37l-47 72h-19v-72h-32v167h69zM177 592h-36v-30h48q17 1 17 18q0 12 -29 12z" />
    <glyph glyph-name="copyright" unicode="&#xa9;" horiz-adv-x="772" 
d="M366 -16q-148 0 -250 103t-102 251q0 149 102 252t250 103t250.5 -103t102.5 -252q0 -148 -102.5 -251t-250.5 -103zM366 630q-118 0 -204 -85.5t-86 -206.5t86 -206t204 -85t204 85t86 206t-86 206.5t-204 85.5zM481 402q-23 81 -105 81q-62 0 -98.5 -41t-36.5 -103
q0 -57 32 -96q37 -46 101 -46q87 0 107 79h64q-16 -68 -61.5 -105t-108.5 -37q-90 0 -143.5 58t-53.5 149q0 87 55 146.5t143 59.5q63 0 108 -37q49 -40 60 -108h-63z" />
    <glyph glyph-name="trademark" unicode="&#x2122;" horiz-adv-x="481" 
d="M233 605v-147h-38v206h54l53 -133l54 133h54v-206h-37v150l-59 -150h-25zM104 625v-167h-38v167h-65v39h167v-39h-64z" />
    <glyph glyph-name="acute" unicode="&#xb4;" horiz-adv-x="638" 
d="M357 834l-233 -110q8 -28 8 -26q0 3 263 38z" />
    <glyph glyph-name="dieresis" unicode="&#xa8;" horiz-adv-x="505" 
d="M284 767q0 23 19.5 38.5t46.5 15.5q28 0 47 -15.5t19 -38.5q0 -22 -19 -38t-47 -16q-27 0 -46.5 16t-19.5 38zM74 767q0 23 19.5 38.5t46.5 15.5q28 0 47 -15.5t19 -38.5q0 -22 -19 -38t-47 -16q-27 0 -46.5 16t-19.5 38z" />
    <glyph glyph-name="AE" unicode="&#xc6;" horiz-adv-x="1099" 
d="M386 244v210l-139 -211zM635 87q-1 -32 20 -32q24 0 24 29l-1 580h346v-239q-12 0 -51 -1v82q0 49 -31.5 78.5t-82.5 29.5h-127v-257q46 0 81 1q51 15 55 60v70h52v-320q-28 -6 -55 0v83q0 26 -23 40q-19 12 -46 13l-64 1l-1 -256q129 2 134 0q6 -3 31 6q30 11 50 31
q27 29 27 70q0 27 -1 73l56 -1l-1 -228h-713l1 50h49q17 1 23 20l-1 121h-165l-78 -118q-3 -4 -3 -8q0 -8 13 -15h39v-50h-185l-1 50h46q21 4 34 23l386 591h162z" />
    <glyph glyph-name="Oslash" unicode="&#xd8;" horiz-adv-x="801" 
d="M348 332l149 173v15q0 104 -84 104q-67 0 -66 -89zM298 195l-46 -53q7 -88 67 -107q-21 50 -21 70v90zM497 427l-149 -173l1 -154q0 -34 19.5 -53.5t46.5 -19.5q82 0 82 104v296zM633 664h67l-63 -74q120 -103 120 -264q0 -145 -103.5 -241.5t-250.5 -96.5
q-101 0 -149.5 13t-89.5 38l-34 -39h-68l60 69q-117 99 -117 257q0 111 63 197q72 99 207 135q1 1 1 0h-1q-25 -34 -25 -67l1 -91v-281l47 54v293q0 102 125 102q94 0 173 -48z" />
    <glyph glyph-name="plusminus" unicode="&#xb1;" 
 />
    <glyph glyph-name="yen" unicode="&#xa5;" horiz-adv-x="771" 
d="M93 289h129l-150 303q-12 23 -31 23h-41v49h302l169 -355l20 41q-34 69 -58 122q-58 125 -59 143q0 51 84 51q18 0 34 -2v-49q-11 2 -23 2q-34 0 -34 -23q0 -13 33.5 -91t48.5 -104q6 9 45 87t46 95q2 6 2 11q0 26 -61 24l1 48h196l-1 -49q-14 2 -30 0q-41 -4 -64 -51
q-48 -96 -137 -275h123v-46h-146l-5 -10l1 -44h150v-46h-150v-54q0 -38 41 -39q12 2 29 1q2 -9 -1 -51h-377q-3 4 0 50h23q51 0 51 43v50h-160v46h160v36l-8 18h-152v46z" />
    <glyph glyph-name="mu" unicode="&#xb5;" horiz-adv-x="720" 
d="M20 170l69 42l1 371q-1 33 -37 33q-5 0 -15 -1h-14q0 13 -1 49h289v-571q0 -43 26 -43q25 0 25 46l1 517q1 51 67 51h44v-49q-61 6 -61 -24v-199l116 72v-57l-116 -71v-286h41q75 0 124 65q45 60 47 142q22 1 43 0v-257h-648l-1 50q39 4 41 5q27 9 27 41l1 60l-69 -43v57
z" />
    <glyph glyph-name="mu" unicode="&#x3bc;" horiz-adv-x="720" 
d="M20 170l69 42l1 371q-1 33 -37 33q-5 0 -15 -1h-14q0 13 -1 49h289v-571q0 -43 26 -43q25 0 25 46l1 517q1 51 67 51h44v-49q-61 6 -61 -24v-199l116 72v-57l-116 -71v-286h41q75 0 124 65q45 60 47 142q22 1 43 0v-257h-648l-1 50q39 4 41 5q27 9 27 41l1 60l-69 -43v57
z" />
    <glyph glyph-name="ordfeminine" unicode="&#xaa;" horiz-adv-x="778" 
d="M400 50h137q61 0 94 35q23 24 30 66l4 40v69h58v-260h-621l346 615h-48l-346 -615h-59l348 615q-90 2 -132 0q-60 -3 -87 -37q-21 -26 -33 -89v-89l-53 -1v265h691zM388 704h-1v1l-167 97q9 28 9 26t164 -41q153 39 153 41t8 -26l-167 -98v0h-1h2z" />
    <glyph glyph-name="ordmasculine" unicode="&#xba;" horiz-adv-x="624" 
d="M578 469l-230 -419h107q9 0 16 2q18 3 26 12q22 25 34 118q18 1 51 0v-181h-484l210 394q6 11 6 18q0 11 -16 9q-18 -2 -27.5 -23t-217.5 -399h-49l223 420l-58 1q-42 0 -64 -49q-16 -36 -16 -75v-55h-54v227h543zM311 509h-1v1l-167 97q9 28 9 26t164 -41q153 39 153 41
t8 -26l-167 -98h-1v0h2z" />
    <glyph glyph-name="ae" unicode="&#xe6;" horiz-adv-x="940" 
d="M257 152q0 45 -1 53q-6 42 -31 42q-38 0 -38 -98t42 -98q11 0 23 19q5 8 5 82zM894 225h-277q2 -35 0 -47v-94q-3 -59 43 -59q16 0 27.5 14t10.5 25q-1 68 0 125h194q-22 -199 -253 -199q-91 0 -155 25q-34 -14 -68 -14q-21 0 -32 7q-1 1 -23 19q-14 12 -17 10
q-15 -15 -60 -28.5t-81 -13.5q-75 0 -134 43q-67 50 -67 128q0 53 30 95q35 49 96 58q26 3 50 3q69 0 99 -30q21 -20 21 -36l1 -165q0 -23 18 -23q5 0 13 4.5t5 11.5v312q-4 39 -27 39q-19 0 -24 -9q-7 -12 -10 -41q-1 -16 1 -42h-41v52q1 21 22 40q-5 -2 -11 -2
q-16 0 -29 -13t-13 -28v-51l-164 -1v129h43q5 -21 33 -21q2 0 33.5 7t42.5 9q52 9 93 9q116 0 170 -31q19 10 40 16q54 17 84 11q-31 -21 -39 -54q-4 -13 -4 -60v-248l8 -44q10 -27 48 -34q-22 31 -22 64v274q0 58 33 84q29 23 83 22q101 -3 158 -76q53 -68 51 -172z
M696 339q0 42 -3 54q-8 33 -36 33q-26 0 -33 -17.5t-7 -69.5v-68q54 2 79 1v67z" />
    <glyph glyph-name="oslash" unicode="&#xf8;" horiz-adv-x="664" 
d="M226 112q7 -52 54 -73q-20 50 -20 67v46zM623 240q0 -110 -96 -182q-89 -67 -208 -67q-90 0 -166 36l-23 -27h-68l46 53q-102 71 -104 189q-1 110 79 176q74 60 183 60q-41 -31 -41 -110v-179l35 41v134q0 117 108 117q51 0 95 -15l30 33h67l-48 -55q111 -66 111 -204z
M308 207v-129q0 -15 17 -28.5t33 -13.5q15 0 32 15.5t16 30.5q0 -6 0 240zM404 397q-8 34 -46 34q-49 0 -50 -72v-73z" />
    <glyph glyph-name="questiondown" unicode="&#xbf;" horiz-adv-x="639" 
d="M4 -25q0 106 119 161q65 29 195 48q20 4 50 26q25 20 16 63h73q0 -42 -1 -46q-9 -46 -91 -84q-22 -10 -44 -19q-29 -15 -43 -35q-27 -41 -27 -114q0 -97 29 -97q27 0 27 53q0 24 -10 51t-10 29q0 8 14 19q11 9 16 9q11 0 27.5 -37.5t15.5 -65.5q-4 -73 -47 -102
q-33 -22 -105 -22q-77 0 -137 42q-67 47 -67 121zM341 64q0 24 39 42q36 16 74 14q52 -3 89.5 -45t37.5 -94q0 -70 -70 -120q-64 -47 -139 -47l-31 1q51 31 51 125q0 46 -25.5 87t-25.5 37zM233 386q4 52 58 81q47 25 103 23q60 -3 84 -12q53 -21 53 -81q0 -47 -40 -70
q-32 -18 -82 -18q-115 0 -115 80q0 26 25 54q-12 0 -22 -6q-24 -13 -34 -51q-2 -6 0 -20q4 -22 4 -23q-3 -6 -23 -15q-15 10 -11 58z" />
    <glyph glyph-name="exclamdown" unicode="&#xa1;" horiz-adv-x="432" 
d="M24 -194l39 454q11 0 40 -1l-33 -452zM114 -193q12 135 30 452q36 -10 61 -10q9 0 15 2q12 -4 25 -4q18 0 57 12l54 -452h-242zM8 373q0 53 53 81q41 22 88 22q2 0 21 3t22 3q176 0 176 -99q0 -50 -55 -72q-40 -16 -98 -16q-138 0 -138 78q0 21 33 59q-5 2 -12 2
q-22 0 -41 -21.5t-17 -47.5q5 -12 11 -38q-3 -4 -27 -15q-16 18 -16 61z" />
    <glyph glyph-name="logicalnot" unicode="&#xac;" 
 />
    <glyph glyph-name="florin" unicode="&#x192;" horiz-adv-x="771" 
d="M405 527v-98h156v-48h-156v-62h156v-48h-156v-164q0 -77 91 -77q64 0 121 59.5t51 122.5h55q1 -12 1 -22q0 -102 -95 -160q-81 -51 -190 -49q-148 2 -250.5 80t-123.5 210h-61v48h57q-1 7 -1 14q0 24 3 48h-59v48h68q25 99 103 164q75 63 186 83q-53 -33 -53 -91l1 -474
q0 -23 12 -44q24 -41 86 -52q-52 33 -52 81v471q0 53 32.5 83t87.5 32q104 3 174.5 -56t70.5 -158q0 -11 -1 -22h-55q6 64 -41.5 123t-110.5 59q-16 2 -29 2q-57 0 -72 -39q-6 -14 -6 -64z" />
    <glyph glyph-name="guillemotleft" unicode="&#xab;" horiz-adv-x="371" 
d="M312 102h-20l-152 182l152 178h19l-78 -178zM171 102h-20l-152 182l152 178h18l-78 -178z" />
    <glyph glyph-name="guillemotright" unicode="&#xbb;" horiz-adv-x="353" 
d="M13 92h20l152 182l-152 178h-19l78 -178zM154 92h20l152 182l-152 178h-18l78 -178z" />
    <glyph glyph-name="ellipsis" unicode="&#x2026;" horiz-adv-x="1309" 
d="M832 96q-4 -52 -59 -81q-47 -25 -103 -23q-60 3 -83 12q-54 20 -54 81q0 47 41 70q32 18 82 18q114 0 114 -81q0 -26 -25 -54q12 1 22 6q24 14 35 52q2 6 -1 20q-4 22 -4 23q4 5 23 15q16 -10 12 -58zM1232 96q-4 -52 -59 -81q-47 -25 -103 -23q-60 3 -83 12
q-54 20 -54 81q0 47 41 70q32 18 82 18q114 0 114 -81q0 -26 -25 -54q12 1 22 6q24 14 35 52q2 6 -1 20q-4 22 -4 23q4 5 23 15q16 -10 12 -58zM432 96q-4 -52 -59 -81q-47 -25 -103 -23q-60 3 -83 12q-54 20 -54 81q0 47 41 70q32 18 82 18q114 0 114 -81q0 -26 -25 -54
q12 1 22 6q24 14 35 52q2 6 -1 20q-4 22 -4 23q4 5 23 15q16 -10 12 -58z" />
    <glyph glyph-name="nonbreakingspace" unicode="&#xa0;" horiz-adv-x="225" 
 />
    <glyph glyph-name="Agrave" unicode="&#xc0;" horiz-adv-x="821" 
d="M786 50v-50h-468v50h49q19 0 19 10q0 4 -2 10l-41 124h-169l-37 -121q0 -21 20 -23h39v-50h-186v50h46q15 0 26 23q63 196 193 591l162 -1l197 -590q8 -25 31 -25q15 0 15 14q0 5 -3 12l-200 590q2 1 25 1t25 -1q36 -105 107 -314q44 -136 90 -277q9 -24 28 -23h34z
M330 243l-73 211l-71 -211h144zM282 834l234 -110q-9 -28 -9 -26q0 3 -262 38z" />
    <glyph glyph-name="Atilde" unicode="&#xc3;" horiz-adv-x="821" 
d="M786 50v-50h-468v50h49q19 0 19 10q0 4 -2 10l-41 124h-169l-37 -121q0 -21 20 -23h39v-50h-186v50h46q15 0 26 23q63 196 193 591l162 -1l197 -590q8 -25 31 -25q15 0 15 14q0 5 -3 12l-200 590q2 1 25 1t25 -1q36 -105 107 -314q44 -136 90 -277q9 -24 28 -23h34z
M330 243l-73 211l-71 -211h144zM321 750q-67 0 -67 -30l-28 5q0 32 36 59t70 27q33 0 59 -18t50 -18q35 0 48.5 4.5t29.5 23.5l28 -2q0 -32 -36 -60.5t-70 -28.5q-28 0 -58 19t-62 19z" />
    <glyph glyph-name="Otilde" unicode="&#xd5;" horiz-adv-x="801" 
d="M757 326q0 -145 -103.5 -241.5t-250.5 -96.5q-101 0 -149 13q-121 33 -189 131q-60 87 -60 194q0 111 64 198q72 98 207 134q-6 -10 -11 -20q-14 -28 -15 -47l1 -91v-332q0 -111 68 -133q-21 50 -21 70v461q0 102 125 102q143 0 240 -103q94 -101 94 -239zM497 131v389
q0 104 -84 104q-61 0 -66 -89l2 -435q2 -35 21 -54t45 -19q82 0 82 104zM311 750q-67 0 -67 -30l-28 5q0 32 36 59t70 27q33 0 59 -18t50 -18q35 0 48.5 4.5t29.5 23.5l28 -2q0 -32 -36 -60.5t-70 -28.5q-28 0 -58 19t-62 19z" />
    <glyph glyph-name="OE" unicode="&#x152;" horiz-adv-x="1163" 
d="M1112 0h-693q-109 -1 -71 -1q-53 0 -94 12q-121 33 -189 131q-60 87 -60 194q0 110 64 193q71 93 207 129q-6 -10 -11 -20q-14 -28 -15 -47l1 -91v-322q0 -113 69 -128q-22 50 -22 65v451q0 106 126 98h292q2 -290 -1 -580q0 -34 21 -34q26 0 26 34v579h345v-238
q-12 0 -51 -1v82q0 49 -31.5 78.5t-82.5 29.5h-127l-1 -257q49 -3 85 -1q47 14 52 62v70h52v-320q-28 -6 -55 0v83q0 26 -21 40t-47 14h-66v-256q129 2 134 0q6 -3 31 6q30 11 50 31q27 29 27 70q0 27 1 73l55 1v-230zM474 98v463q0 43 -28 54q-8 3 -43 3q-34 0 -45 -21
q-9 -16 -11 -62l1 -419q4 -70 62 -70q29 0 42 6q22 12 22 46z" />
    <glyph glyph-name="oe" unicode="&#x153;" horiz-adv-x="1020" 
d="M406 356q0 36 -3 45q-9 30 -45 30q-49 0 -50 -72v-281q0 -15 17 -28.5t33 -13.5q15 0 32 15.5t16 30.5q1 90 0 274zM970 225h-277q2 -35 0 -47v-94q-3 -59 43 -59q16 0 27.5 14t10.5 25q-1 68 0 125h194q-21 -194 -253 -199q-141 -4 -220 56q-74 -55 -176 -55
q-126 0 -215 65q-98 70 -100 186q-1 110 79 176q74 60 183 60q-41 -31 -41 -110v-238q0 -67 55 -91q-20 50 -20 67v258q0 117 108 117q91 0 147 -46q25 15 55 25q50 16 84 9q-31 -21 -39 -54q-4 -13 -4 -60v-248l8 -44q10 -27 48 -34q-22 31 -22 64v274q0 58 34 86
q31 25 85 24q100 -3 156 -78q52 -69 50 -174zM772 339q0 42 -3 54q-8 33 -36 33q-26 0 -33 -17.5t-7 -69.5v-68q54 2 79 1v67z" />
    <glyph glyph-name="endash" unicode="&#x2013;" horiz-adv-x="489" 
d="M439 242h-438v91l438 -1v-90z" />
    <glyph glyph-name="emdash" unicode="&#x2014;" horiz-adv-x="838" 
d="M1 242v90h838v-90h-838z" />
    <glyph glyph-name="quotedblleft" unicode="&#x201c;" horiz-adv-x="628" 
d="M513 519q0 -48 -37 -75q-33 -23 -79 -23q-35 0 -63 38q-26 35 -28 75t40 92q38 50 60 51q4 0 13 -9.5t9 -13.5q0 -3 -18 -22q-20 -23 -22 -24q125 -8 125 -89zM508 642q25 -12 45.5 -36t19.5 -46q9 -21 9 -45q0 -51 -39 -97l-23 19q32 38 32 72q0 23 -12 55q2 19 -23 37
q-20 16 -39 19l-29 5l54 54l22 -21zM203 519q0 -48 -37 -75q-33 -23 -79 -23q-35 0 -63 38q-26 35 -28 75t40 92q38 50 60 51q4 0 13 -9.5t9 -13.5q0 -3 -18 -22q-20 -23 -22 -24q125 -8 125 -89zM198 642q25 -12 45.5 -36t19.5 -46q9 -21 9 -45q0 -51 -39 -97l-23 19
q32 38 32 72q0 23 -12 55q2 19 -23 37q-20 16 -39 19l-29 5l54 54l22 -21z" />
    <glyph glyph-name="quotedblright" unicode="&#x201d;" horiz-adv-x="628" 
d="M10 576q0 91 111 91q37 0 64 -31t27 -75q0 -42 -43 -94q-39 -48 -62 -49q-4 0 -13 9t-9 14q0 3 19 23.5t21 22.5q-115 7 -115 89zM242 569q0 43 -24 73q10 16 23 16q11 0 22 -40q9 -33 10 -51q2 -61 -30 -114t-91 -85q-3 -2 -11 7.5t-6 12.5q29 25 58 51q49 55 49 130z
M320 576q0 91 111 91q37 0 62.5 -27.5t27.5 -76.5q2 -44 -42 -97q-38 -47 -62 -48q-4 0 -13 9t-9 14q0 3 19 23.5t21 22.5q-115 7 -115 89zM552 569q0 43 -24 73q10 16 23 16q11 0 22 -40q9 -33 10 -51q2 -61 -30 -114t-91 -85q-3 -2 -11 7.5t-6 12.5q29 25 58 51
q49 55 49 130z" />
    <glyph glyph-name="quoteleft" unicode="&#x2018;" horiz-adv-x="320" 
d="M203 519q0 -47 -39 -71q-33 -21 -81 -21q-35 0 -60 34t-27 73q-2 40 40 92q38 50 60 51q4 0 13 -9.5t9 -13.5q0 -3 -18 -22q-20 -23 -22 -24q125 -8 125 -89zM198 642q25 -12 45.5 -36t19.5 -46q9 -21 9 -45q0 -51 -39 -97l-23 19q32 38 32 72q0 23 -12 55q2 19 -23 37
q-20 16 -39 19l-29 5l54 54l22 -21z" />
    <glyph glyph-name="quoteright" unicode="&#x2019;" horiz-adv-x="317" 
d="M0 575q0 47 39 72q33 20 82 20q34 0 59 -33.5t27 -72.5q2 -40 -39 -93q-39 -49 -60 -50q-5 -1 -13.5 8.5t-8.5 14.5q0 3 17 22q21 22 22 24q-125 8 -125 88zM242 569q0 43 -24 72q10 16 23 16q11 0 23 -39q9 -33 9 -52q3 -60 -29.5 -113t-91.5 -86q-3 -2 -11 8t-6 13
l58 50q49 56 49 131z" />
    <glyph glyph-name="divide" unicode="&#xf7;" 
 />
    <glyph glyph-name="ydieresis" unicode="&#xff;" horiz-adv-x="630" 
d="M309 -160q-26 -58 -123 -58q-142 0 -137 129q0 23 1 61h161v-65q0 -56 31 -56q19 0 31 26q17 41 52 123h-99l-162 395q-11 21 -28 23t-36 3v48h257l121 -332l22 52l-83 240q-2 40 32 40h51v-49q-7 0 -15 1q-13 -3 -13 -19l54 -153q51 132 51 152q0 24 -51 20v48l170 1
v-52q-28 2 -35 0q-20 -3 -26 -20q-76 -190 -226 -558zM333 574q0 23 19 38.5t47 15.5q27 0 46.5 -15.5t19.5 -38.5q0 -22 -19.5 -38t-46.5 -16q-28 0 -47 16t-19 38zM123 574q0 23 19 38.5t47 15.5q27 0 46.5 -15.5t19.5 -38.5q0 -22 -19.5 -38t-46.5 -16q-28 0 -47 16
t-19 38z" />
    <glyph glyph-name="Ydieresis" unicode="&#x178;" horiz-adv-x="771" 
d="M745 615q-14 2 -30 0q-41 -4 -64 -51q-165 -335 -165 -331l1 -144q0 -38 41 -39q12 2 29 1q2 -9 -1 -51h-377q-3 4 0 50h23q49 0 51 43v132l-181 367q-12 23 -31 23h-41v49h302l169 -355l20 41q-34 69 -58 122q-58 125 -59 143q0 51 84 51q18 0 34 -2v-49q-11 2 -23 2
q-34 0 -34 -23q0 -13 33.5 -91t48.5 -104q6 9 45 87t46 95q2 6 2 11q0 26 -61 24l1 48h196zM424 767q0 23 19.5 38.5t46.5 15.5q28 0 47 -15.5t19 -38.5q0 -22 -19 -38t-47 -16q-27 0 -46.5 16t-19.5 38zM204 767q0 23 19.5 38.5t46.5 15.5q28 0 47 -15.5t19 -38.5
q0 -22 -19 -38t-47 -16q-27 0 -46.5 16t-19.5 38z" />
    <glyph glyph-name="currency" unicode="&#xa4;" 
 />
    <glyph glyph-name="guilsinglleft" unicode="&#x2039;" horiz-adv-x="230" 
d="M171 92h-20l-152 182l152 178h18l-78 -178z" />
    <glyph glyph-name="guilsinglright" unicode="&#x203a;" horiz-adv-x="211" 
d="M12 92h20l152 182l-152 178h-19l78 -178z" />
    <glyph glyph-name="daggerdbl" unicode="&#x2021;" 
 />
    <glyph glyph-name="periodcentered" unicode="&#xb7;" horiz-adv-x="230" 
d="M21 338q0 32 22 55t53 23t53 -23t22 -55t-22 -55t-53 -23t-53 23t-22 55z" />
    <glyph glyph-name="periodcentered" unicode="&#x2219;" horiz-adv-x="230" 
d="M21 338q0 32 22 55t53 23t53 -23t22 -55t-22 -55t-53 -23t-53 23t-22 55z" />
    <glyph glyph-name="quotesinglbase" unicode="&#x201a;" horiz-adv-x="352" 
d="M314 82q-11 -108 -108 -177q-3 -3 -16 2t-12 9q97 81 103 157q3 34 -10 57q-10 14 -20 27q-2 2 6 7.5t16 5.5q20 0 32 -36q11 -31 9 -52zM242 82q0 -42 -31 -84.5t-73 -66.5q-3 -1 -27 14q52 33 66 65q-31 -10 -85 -10q-43 0 -69 29q-22 25 -22 54q0 44 44 70
q36 21 78 21q47 0 81 -23q38 -26 38 -69z" />
    <glyph glyph-name="quotedblbase" unicode="&#x201e;" horiz-adv-x="723" 
d="M664 82q-11 -108 -108 -177q-3 -3 -16 2t-12 9q97 81 103 157q3 34 -10 57q-10 14 -20 27q-2 2 6 7.5t16 5.5q20 0 32 -36q11 -31 9 -52zM592 82q0 -42 -31 -84.5t-73 -66.5q-3 -1 -27 14q52 33 66 65q-31 -10 -85 -10q-43 0 -69 29q-22 25 -22 54q0 44 44 70
q36 21 78 21q47 0 81 -23q38 -26 38 -69zM314 82q-11 -108 -108 -177q-3 -3 -16 2t-12 9q97 81 103 157q3 34 -10 57q-10 14 -20 27q-2 2 6 7.5t16 5.5q20 0 32 -36q11 -31 9 -52zM242 82q0 -42 -31 -84.5t-73 -66.5q-3 -1 -27 14q52 33 66 65q-31 -10 -85 -10q-43 0 -69 29
q-22 25 -22 54q0 44 44 70q36 21 78 21q47 0 81 -23q38 -26 38 -69z" />
    <glyph glyph-name="perthousand" unicode="&#x2030;" 
 />
    <glyph glyph-name="Acircumflex" unicode="&#xc2;" horiz-adv-x="821" 
d="M786 50v-50h-468v50h49q19 0 19 10q0 4 -2 10l-41 124h-169l-37 -121q0 -21 20 -23h39v-50h-186v50h46q15 0 26 23q63 196 193 591l162 -1l197 -590q8 -25 31 -25q15 0 15 14q0 5 -3 12l-200 590q2 1 25 1t25 -1q36 -105 107 -314q44 -136 90 -277q9 -24 28 -23h34z
M330 243l-73 211l-71 -211h144zM395 834h1v-1l167 -97q-8 -29 -8 -26q0 2 -165 40q-152 -38 -152 -40q0 -3 -9 26l167 98h1h1h-3z" />
    <glyph glyph-name="Ecircumflex" unicode="&#xca;" horiz-adv-x="777" 
d="M697 425q-12 0 -51 -1v82q0 49 -31.5 78.5t-82.5 29.5h-127l-1 -257q49 -3 85 -1q47 14 52 62v70h52v-320q-28 -6 -55 0v83q0 26 -21 40t-47 14h-66v-256q129 2 134 0q6 -3 31 6q30 11 50 31q27 29 27 70q0 27 1 73l54 -1l1 -228h-679l-3 4v42q29 0 42 6q22 12 22 46v463
q0 54 -46 54q-5 0 -13 -1t-11 -1v51h292q2 -290 -1 -580q0 -37 26 -37q21 0 21 37v579h345v-238zM345 834h1v-1l167 -97q-8 -29 -8 -26q0 2 -165 40q-152 -38 -152 -40q0 -3 -9 26l167 98h1h1h-3z" />
    <glyph glyph-name="Aacute" unicode="&#xc1;" horiz-adv-x="821" 
d="M786 50v-50h-468v50h49q19 0 19 10q0 4 -2 10l-41 124h-169l-37 -121q0 -21 20 -23h39v-50h-186v50h46q15 0 26 23q63 196 193 591l162 -1l197 -590q8 -25 31 -25q15 0 15 14q0 5 -3 12l-200 590q2 1 25 1t25 -1q36 -105 107 -314q44 -136 90 -277q9 -24 28 -23h34z
M330 243l-73 211l-71 -211h144zM477 834l-233 -110l8 -26l263 38z" />
    <glyph glyph-name="Edieresis" unicode="&#xcb;" horiz-adv-x="777" 
d="M697 425q-12 0 -51 -1v82q0 49 -31.5 78.5t-82.5 29.5h-127l-1 -257q49 -3 85 -1q47 14 52 62v70h52v-320q-28 -6 -55 0v83q0 26 -21 40t-47 14h-66v-256q129 2 134 0q6 -3 31 6q30 11 50 31q27 29 27 70q0 27 1 73l54 -1l1 -228h-679l-3 4v42q29 0 42 6q22 12 22 46v463
q0 54 -46 54q-5 0 -13 -1t-11 -1v51h292q2 -290 -1 -580q0 -37 26 -37q21 0 21 37v579h345v-238zM404 767q0 23 19.5 38.5t46.5 15.5q28 0 47 -15.5t19 -38.5q0 -22 -19 -38t-47 -16q-27 0 -46.5 16t-19.5 38zM184 767q0 23 19.5 38.5t46.5 15.5q28 0 47 -15.5t19 -38.5
q0 -22 -19 -38t-47 -16q-27 0 -46.5 16t-19.5 38z" />
    <glyph glyph-name="Egrave" unicode="&#xc8;" horiz-adv-x="777" 
d="M697 425q-12 0 -51 -1v82q0 49 -31.5 78.5t-82.5 29.5h-127l-1 -257q49 -3 85 -1q47 14 52 62v70h52v-320q-28 -6 -55 0v83q0 26 -21 40t-47 14h-66v-256q129 2 134 0q6 -3 31 6q30 11 50 31q27 29 27 70q0 27 1 73l54 -1l1 -228h-679l-3 4v42q29 0 42 6q22 12 22 46v463
q0 54 -46 54q-5 0 -13 -1t-11 -1v51h292q2 -290 -1 -580q0 -37 26 -37q21 0 21 37v579h345v-238zM252 834l234 -110q-9 -28 -9 -26q0 3 -262 38z" />
    <glyph glyph-name="Iacute" unicode="&#xcd;" horiz-adv-x="529" 
d="M405 99q-7 -47 49 -47h14q8 1 10 1l-1 -53l-455 1q-3 4 -3 52q4 0 13 -1h14q39 0 39 41v462q0 44 -21 55q-11 6 -50 4v50h291v-580q-7 -34 25 -34q22 0 22 34v580h125v-49q-4 0 -13 1t-14 1q-44 0 -45 -59v-459zM337 834l-233 -110l8 -26l263 38z" />
    <glyph glyph-name="Icircumflex" unicode="&#xce;" horiz-adv-x="529" 
d="M405 99q-7 -47 49 -47h14q8 1 10 1l-1 -53l-455 1q-3 4 -3 52q4 0 13 -1h14q39 0 39 41v462q0 44 -21 55q-11 6 -50 4v50h291v-580q-7 -34 25 -34q22 0 22 34v580h125v-49q-4 0 -13 1t-14 1q-44 0 -45 -59v-459zM235 834h1v-1l167 -97q-8 -29 -8 -26q0 2 -165 40
q-152 -38 -152 -40q0 -3 -9 26l167 98h1h1h-3z" />
    <glyph glyph-name="Idieresis" unicode="&#xcf;" horiz-adv-x="529" 
d="M405 99q-7 -47 49 -47h14q8 1 10 1l-1 -53l-455 1q-3 4 -3 52q4 0 13 -1h14q39 0 39 41v462q0 44 -21 55q-11 6 -50 4v50h291v-580q-7 -34 25 -34q22 0 22 34v580h125v-49q-4 0 -13 1t-14 1q-44 0 -45 -59v-459zM284 767q0 23 19.5 38.5t46.5 15.5q28 0 47 -15.5
t19 -38.5q0 -22 -19 -38t-47 -16q-27 0 -46.5 16t-19.5 38zM64 767q0 23 19.5 38.5t46.5 15.5q28 0 47 -15.5t19 -38.5q0 -22 -19 -38t-47 -16q-27 0 -46.5 16t-19.5 38z" />
    <glyph glyph-name="Igrave" unicode="&#xcc;" horiz-adv-x="529" 
d="M405 99q-7 -47 49 -47h14q8 1 10 1l-1 -53l-455 1q-3 4 -3 52q4 0 13 -1h14q39 0 39 41v462q0 44 -21 55q-11 6 -50 4v50h291v-580q-7 -34 25 -34q22 0 22 34v580h125v-49q-4 0 -13 1t-14 1q-44 0 -45 -59v-459zM142 834l234 -110q-9 -28 -9 -26q0 3 -262 38z" />
    <glyph glyph-name="Oacute" unicode="&#xd3;" horiz-adv-x="801" 
d="M757 326q0 -145 -103.5 -241.5t-250.5 -96.5q-101 0 -149 13q-121 33 -189 131q-60 87 -60 194q0 111 64 198q72 98 207 134q-6 -10 -11 -20q-14 -28 -15 -47l1 -91v-332q0 -111 68 -133q-21 50 -21 70v461q0 102 125 102q143 0 240 -103q94 -101 94 -239zM497 131v389
q0 104 -84 104q-61 0 -66 -89l2 -435q2 -35 21 -54t45 -19q82 0 82 104zM477 834l-233 -110l8 -26l263 38z" />
    <glyph glyph-name="Ocircumflex" unicode="&#xd4;" horiz-adv-x="801" 
d="M757 326q0 -145 -103.5 -241.5t-250.5 -96.5q-101 0 -149 13q-121 33 -189 131q-60 87 -60 194q0 111 64 198q72 98 207 134q-6 -10 -11 -20q-14 -28 -15 -47l1 -91v-332q0 -111 68 -133q-21 50 -21 70v461q0 102 125 102q143 0 240 -103q94 -101 94 -239zM497 131v389
q0 104 -84 104q-61 0 -66 -89l2 -435q2 -35 21 -54t45 -19q82 0 82 104zM375 834h1v-1l167 -97q-8 -29 -8 -26q0 2 -165 40q-152 -38 -152 -40q0 -3 -9 26l167 98h1h1h-3z" />
    <glyph glyph-name="Ograve" unicode="&#xd2;" horiz-adv-x="801" 
d="M757 326q0 -145 -103.5 -241.5t-250.5 -96.5q-101 0 -149 13q-121 33 -189 131q-60 87 -60 194q0 111 64 198q72 98 207 134q-6 -10 -11 -20q-14 -28 -15 -47l1 -91v-332q0 -111 68 -133q-21 50 -21 70v461q0 102 125 102q143 0 240 -103q94 -101 94 -239zM497 131v389
q0 104 -84 104q-61 0 -66 -89l2 -435q2 -35 21 -54t45 -19q82 0 82 104zM272 834l234 -110q-9 -28 -9 -26q0 3 -262 38z" />
    <glyph glyph-name="Uacute" unicode="&#xda;" horiz-adv-x="781" 
d="M735 617l-30 -2q-14 0 -24.5 -18.5t-10.5 -30.5q-1 -22 -1 -121l1 -278q0 -82 -46 -122q-39 -34 -128 -45q-6 -4 -9 -4t-34 -1.5t-34 -1.5q-117 0 -196 25q-132 40 -132 141q0 73 -1 75l1 324q0 58 -39 57h-30v49h288v-512q0 -23 7 -44q19 -58 76 -62q-31 42 -31 87v356
q-1 30 0 126q1 17 17 35.5t39 14.5q7 -1 57 -1q1 -12 0 -49h-39q-22 0 -24 -21v-28v-431q0 -45 12 -62q17 -23 66 -23q132 0 130 124l1 375q0 70 -35 66q-12 -2 -35 0v49h184v-47zM477 834l-233 -110l8 -26l263 38z" />
    <glyph glyph-name="Ucircumflex" unicode="&#xdb;" horiz-adv-x="781" 
d="M735 617l-30 -2q-14 0 -24.5 -18.5t-10.5 -30.5q-1 -22 -1 -121l1 -278q0 -82 -46 -122q-39 -34 -128 -45q-6 -4 -9 -4t-34 -1.5t-34 -1.5q-117 0 -196 25q-132 40 -132 141q0 73 -1 75l-1 321q0 58 -37 60h-30v49h288v-512q0 -23 7 -44q19 -58 76 -62q-31 42 -31 87v356
q-1 30 0 126q1 17 17 35.5t39 14.5q7 -1 57 -1q1 -12 0 -49h-39q-22 0 -24 -21v-28v-431q0 -45 12 -62q17 -23 66 -23q132 0 130 124l1 375q0 70 -35 66q-12 -2 -35 0v49h184v-47zM385 834h1v-1l167 -97q-8 -29 -8 -26q0 2 -165 40q-152 -38 -152 -40q0 -3 -9 26l167 98h1h1
h-3z" />
    <glyph glyph-name="Ugrave" unicode="&#xd9;" horiz-adv-x="781" 
d="M735 617l-30 -2q-14 0 -24.5 -18.5t-10.5 -30.5q-1 -22 -1 -121l1 -278q0 -82 -46 -122q-39 -34 -128 -45q-6 -4 -9 -4t-34 -1.5t-34 -1.5q-117 0 -196 25q-132 40 -132 141q0 73 -1 75l-1 323q0 59 -37 58h-30v49h288v-512q0 -23 7 -44q19 -58 76 -62q-31 42 -31 87v356
q-1 30 0 126q1 17 17 35.5t39 14.5q7 -1 57 -1q1 -12 0 -49h-39q-22 0 -24 -21v-28v-431q0 -45 12 -62q17 -23 66 -23q132 0 130 124l1 375q0 70 -35 66q-12 -2 -35 0v49h184v-47zM272 834l234 -110q-9 -28 -9 -26q0 3 -262 38z" />
    <glyph glyph-name="circumflex" unicode="&#x2c6;" horiz-adv-x="556" 
d="M245 834h1v-1l167 -97q-8 -29 -8 -26q0 2 -165 40q-152 -38 -152 -40q0 -3 -9 26l167 98h1h1h-3z" />
    <glyph glyph-name="tilde" unicode="&#x2dc;" horiz-adv-x="426" 
d="M137 757q-58 0 -58 -25l-25 4q0 27 31 51t61 24q29 0 51.5 -16t43.5 -16q31 0 42.5 4t25.5 20l25 -1q0 -28 -31.5 -53t-61.5 -25q-24 0 -50 16.5t-54 16.5z" />
    <glyph glyph-name="macron" unicode="&#xaf;" horiz-adv-x="280" 
d="M24 790h233v-52h-233v52z" />
    <glyph glyph-name="macron" unicode="&#x2c9;" horiz-adv-x="280" 
d="M24 790h233v-52h-233v52z" />
    <glyph glyph-name="cedilla" unicode="&#xb8;" horiz-adv-x="729" 
d="M331 -6l47 -1v-50q22 3 39 3q45 0 75 -20.5t30 -48.5q0 -37 -48 -59q-44 -20 -110 -20q-12 0 -37 7.5t-37 16.5l20 34q27 -18 70 -18q45 0 45 35q0 39 -42 39h-52q2 60 0 82z" />
    <glyph glyph-name="Scaron" unicode="&#x160;" 
 />
    <glyph glyph-name="scaron" unicode="&#x161;" 
 />
    <glyph glyph-name="brokenbar" unicode="&#xa6;" 
 />
    <glyph glyph-name="Eth" unicode="&#xd0;" 
 />
    <glyph glyph-name="eth" unicode="&#xf0;" 
 />
    <glyph glyph-name="Yacute" unicode="&#xdd;" 
 />
    <glyph glyph-name="yacute" unicode="&#xfd;" 
 />
    <glyph glyph-name="Thorn" unicode="&#xde;" 
 />
    <glyph glyph-name="thorn" unicode="&#xfe;" 
 />
    <glyph glyph-name="minus" unicode="&#xad;" 
 />
    <glyph glyph-name="minus" unicode="&#x2212;" 
 />
    <glyph glyph-name="multiply" unicode="&#xd7;" 
 />
    <glyph glyph-name="onesuperior" unicode="&#xb9;" 
 />
    <glyph glyph-name="twosuperior" unicode="&#xb2;" 
 />
    <glyph glyph-name="threesuperior" unicode="&#xb3;" 
 />
    <glyph glyph-name="onehalf" unicode="&#xbd;" 
 />
    <glyph glyph-name="onequarter" unicode="&#xbc;" 
 />
    <glyph glyph-name="threequarters" unicode="&#xbe;" 
 />
    <glyph glyph-name="Lslash" unicode="&#x141;" 
 />
    <glyph glyph-name="lslash" unicode="&#x142;" 
 />
    <glyph glyph-name="HT" 
 />
    <glyph glyph-name="LF" 
 />
    <glyph glyph-name="nonmarkingreturn" 
 />
    <glyph glyph-name="Zcaron" unicode="&#x17d;" 
 />
    <glyph glyph-name="zcaron" unicode="&#x17e;" 
 />
    <glyph glyph-name="DLE" 
 />
    <glyph glyph-name="DC1" 
 />
    <glyph glyph-name="DC2" 
 />
    <glyph glyph-name="DC3" 
 />
    <glyph glyph-name="DC4" 
 />
    <glyph glyph-name="RS" 
 />
    <glyph glyph-name="US" 
 />
    <glyph glyph-name="notequal" unicode="&#x2260;" 
 />
    <glyph glyph-name="infinity" unicode="&#x221e;" 
 />
    <glyph glyph-name="lessequal" unicode="&#x2264;" 
 />
    <glyph glyph-name="greaterequal" unicode="&#x2265;" 
 />
    <glyph glyph-name="partialdiff" unicode="&#x2202;" horiz-adv-x="440" 
d="M-1 161l62 39v374q0 43 -34 43h-25v46h257v-583q0 -30 19 -30q18 0 18 30v583l51 -1l-1 -309l67 53q-2 -59 -2 -60l-65 -50v-201q0 -31 16 -40q10 -5 45 -5v-50h-407v50q27 0 38 5q23 10 23 45v43l-62 -38v56z" />
    <glyph glyph-name="summation" unicode="&#x2211;" horiz-adv-x="725" 
d="M679 214q0 -116 -94 -177q-80 -53 -202 -53q-62 0 -109 11l-68 18q-39 9 -71 9h-9q-20 0 -27 -3.5t-25 -18.5h-53v209h201q-1 -10 -1 -27q0 -130 59 -143q-2 11 -14 36q-8 18 -8 52l1 80l45 1v-82q0 -35 13 -61q16 -34 48 -34q30 0 49 32q16 27 16 61q0 22 -4 35
q-15 44 -62 61q-43 12 -86 25q-51 19 -102 37q-67 29 -103 66q-46 49 -46 121q0 111 101 160q67 31 200 39q-34 -29 -46 -50q-15 -26 -15 -67q0 -25 14 -49.5t36 -32.5q-1 9 -7 37q-6 22 -6 37q0 51 25 86q28 39 77 39q29 0 79 -17.5t74 -17.5q34 0 64 31h28v-204l-209 1
q0 72 -2 91q-10 66 -48 66q-20 0 -31 -27q-9 -21 -9 -44q0 -98 43 -113q63 -19 127 -39q73 -26 110 -61q47 -46 47 -120zM338 704h-1v1l-167 97q9 28 9 26t164 -41q153 39 153 41t8 -26l-167 -98v0h-1h2z" />
    <glyph glyph-name="product" unicode="&#x220f;" horiz-adv-x="496" 
d="M467 158q0 -83 -72 -126q-59 -35 -150 -38q-42 -1 -95 8q-66 12 -64 12q-11 0 -31 -14h-54v154h157q0 -48 8 -70q12 -38 49 -45q-29 48 -28 93v8h42q-1 -7 -1 -18q0 -83 44 -83q21 0 36.5 13.5t15.5 34.5q0 43 -85 69q-150 46 -158 50q-85 41 -85 118q0 142 209 145
q-44 -25 -44 -76q0 -49 42 -60q-12 20 -12 51q0 42 26.5 66.5t68.5 23.5h4q25 0 55.5 -11t29.5 -11q5 0 20 17h46v-134h-165q0 -10 0 38q0 47 -24 47t-24 -37q0 -35 9 -49q12 -18 46 -24q100 -18 129 -35q55 -33 55 -117zM231 509h-1v1l-167 97q9 28 9 26t164 -41
q153 39 153 41t8 -26l-167 -98h-1v0h2z" />
    <glyph glyph-name="pi" unicode="&#x3c0;" horiz-adv-x="771" 
d="M745 615q-14 2 -30 0q-41 -4 -64 -51q-165 -335 -165 -331l1 -144q0 -38 41 -39q12 2 29 1q2 -9 -1 -51h-377q-3 4 0 50h23q49 0 51 43v132l-181 367q-12 23 -31 23h-41v49h302l169 -355l20 41q-34 69 -58 122q-58 125 -59 143q0 51 84 51q18 0 34 -2v-49q-11 2 -23 2
q-34 0 -34 -23q0 -13 33.5 -91t48.5 -104q6 9 45 87t46 95q2 6 2 11q0 26 -61 24l1 48h196zM477 834l-233 -110q8 -28 8 -26q0 3 263 38z" />
    <glyph glyph-name="integral" unicode="&#x222b;" horiz-adv-x="630" 
d="M309 -160q-26 -58 -123 -58q-142 0 -137 129q0 23 1 61h161v-65q0 -56 31 -56q19 0 31 26q17 41 52 123h-99l-162 395q-11 21 -28 23t-36 3v48h257l121 -332l22 52l-83 240q-2 40 32 40h51v-49q-7 0 -15 1q-13 -3 -13 -19l54 -153q51 132 51 152q0 24 -51 20v48l170 1
v-52q-28 2 -35 0q-20 -3 -26 -20q-76 -190 -226 -558zM387 644l-233 -110q8 -28 8 -26q0 3 263 38z" />
    <glyph glyph-name="Omega" unicode="&#x3a9;" horiz-adv-x="771" 
d="M405 527v-98h156v-48h-156v-62h156v-48h-156v-164q0 -77 91 -77q64 0 121 59.5t51 122.5h55q1 -12 1 -22q0 -102 -95 -160q-81 -51 -190 -49q-148 2 -250.5 80t-123.5 210h-61v48h57q-1 7 -1 14q0 24 3 48h-59v48h68q25 99 103 164q75 63 186 83q-53 -33 -53 -91l1 -474
q0 -23 12 -44q24 -41 86 -52q-52 33 -52 81v471q0 53 32.5 83t87.5 32q104 3 174.5 -56t70.5 -158q0 -11 -1 -22h-55q6 64 -41.5 123t-110.5 59q-16 2 -29 2q-57 0 -72 -39q-6 -14 -6 -64z" />
    <glyph glyph-name="Omega" unicode="&#x2126;" horiz-adv-x="771" 
d="M405 527v-98h156v-48h-156v-62h156v-48h-156v-164q0 -77 91 -77q64 0 121 59.5t51 122.5h55q1 -12 1 -22q0 -102 -95 -160q-81 -51 -190 -49q-148 2 -250.5 80t-123.5 210h-61v48h57q-1 7 -1 14q0 24 3 48h-59v48h68q25 99 103 164q75 63 186 83q-53 -33 -53 -91l1 -474
q0 -23 12 -44q24 -41 86 -52q-52 33 -52 81v471q0 53 32.5 83t87.5 32q104 3 174.5 -56t70.5 -158q0 -11 -1 -22h-55q6 64 -41.5 123t-110.5 59q-16 2 -29 2q-57 0 -72 -39q-6 -14 -6 -64z" />
    <glyph glyph-name="radical" unicode="&#x221a;" 
 />
    <glyph glyph-name="approxequal" unicode="&#x2248;" 
 />
    <glyph glyph-name="approxequal" unicode="&#x22f2;" 
 />
    <glyph glyph-name="Delta" unicode="&#x394;" 
 />
    <glyph glyph-name="Delta" unicode="&#x2206;" 
 />
    <glyph glyph-name="lozenge" unicode="&#x25ca;" 
 />
    <glyph glyph-name="fraction" unicode="&#x2044;" 
 />
    <glyph glyph-name="fi" unicode="&#xf001;" 
 />
    <glyph glyph-name="fl" unicode="&#xf002;" 
 />
    <glyph glyph-name="apple" unicode="&#xf000;" 
 />
    <glyph glyph-name="dotlessi" unicode="&#x131;" horiz-adv-x="433" 
d="M407 0h-407v50q27 0 38 5q23 10 23 45v280q0 43 -34 43h-25v46h257v-389q0 -30 19 -30q18 0 18 30v389l51 -1l-1 -373q0 -31 16 -40q10 -5 45 -5v-50z" />
    <glyph glyph-name="breve" unicode="&#x2d8;" horiz-adv-x="326" 
d="M45 824q3 -14 35 -34q36 -22 73 -21q82 1 120 55l29 -20q-63 -89 -151 -85q-50 2 -90.5 27t-46.5 61z" />
    <glyph glyph-name="dotaccent" unicode="&#x2d9;" horiz-adv-x="220" 
d="M107 715q-26 0 -45 18.5t-19 45.5q0 26 19 44.5t45 18.5t44.5 -18.5t18.5 -44.5q0 -27 -18.5 -45.5t-44.5 -18.5z" />
    <glyph glyph-name="ring" unicode="&#x2da;" horiz-adv-x="388" 
d="M190 703q-33 0 -58 18q-28 19 -28 50q0 30 28 50q25 17 58 17t59 -17q28 -20 28 -50q0 -31 -27 -49.5t-60 -18.5zM190 798q-21 0 -33.5 -9t-12.5 -18t12.5 -18.5t33.5 -9.5q22 0 34.5 9.5t12.5 18.5t-12.5 18t-34.5 9z" />
    <glyph glyph-name="hungarumlaut" unicode="&#x2dd;" horiz-adv-x="398" 
d="M82 704l-20 16l58 87q21 31 43 31q17 0 29 -12t12 -29q0 -25 -48 -52zM223 704l-19 16l58 87q21 31 43 31q17 0 29 -12t12 -29q0 -25 -49 -52z" />
    <glyph glyph-name="ogonek" unicode="&#x2db;" horiz-adv-x="447" 
d="M196 0h76q-33 -19 -52 -33q-31 -22 -31 -61q0 -20 19.5 -32t39.5 -12q44 0 105 20l18 -35q-80 -38 -162 -38q-45 0 -81 16q-45 22 -45 63q0 49 37 75q6 5 76 37z" />
    <glyph glyph-name="caron" unicode="&#x2c7;" horiz-adv-x="485" 
d="M237 710h-1v1l-167 97q9 29 9 26q0 -2 164 -40q153 38 153 40q0 3 8 -26l-167 -98h-1v0h2z" />
    </font>
</defs>
</svg>
