<?xml version="1.0" standalone="no"?>
<!DOCTYPE svg PUBLIC "-//W3C//DTD SVG 1.1//EN" "http://www.w3.org/Graphics/SVG/1.1/DTD/svg11.dtd" >
<svg>
<metadata>
Created by FontForge 20120731 at Wed Apr 17 22:29:19 2019
 By www-data
Digitized by Dan X. Solo.  Software (c) 2000 by Dover Publications, Inc., New York.
</metadata>
<defs>
<font id="TwinkleToes" horiz-adv-x="740" >
  <font-face 
    font-family="Twinkle Toes"
    font-weight="400"
    font-stretch="normal"
    units-per-em="1000"
    panose-1="0 0 4 0 0 0 0 0 0 0"
    ascent="800"
    descent="-200"
    x-height="672"
    cap-height="673"
    bbox="-76 -202 1035 827"
    underline-thickness="20"
    underline-position="-123"
    unicode-range="U+0020-F002"
  />
<missing-glyph horiz-adv-x="500" 
d="M63 0v800h375v-800h-375zM125 63h250v675h-250v-675z" />
    <glyph glyph-name=".notdef" horiz-adv-x="500" 
d="M63 0v800h375v-800h-375zM125 63h250v675h-250v-675z" />
    <glyph glyph-name=".null" horiz-adv-x="0" 
 />
    <glyph glyph-name="nonmarkingreturn" horiz-adv-x="214" 
 />
    <glyph glyph-name="space" unicode=" " horiz-adv-x="214" 
 />
    <glyph glyph-name="exclam" unicode="!" horiz-adv-x="229" 
d="M128 148l-97 2l-33 524l150 1zM21 -2v86h112v-86h-112z" />
    <glyph glyph-name="quotedbl" unicode="&#x22;" horiz-adv-x="357" 
d="M239 674l-31 -238h-29l-30 238h90zM99 674l-31 -238h-29l-30 238h90z" />
    <glyph glyph-name="numbersign" unicode="#" horiz-adv-x="561" 
d="M312 445h-127l-49 -191h126zM80 517h79l41 160l43 1l-41 -161h127l41 160l43 1l-41 -161h82l-15 -72h-84l-49 -191h86l-17 -75h-88l-44 -178h-46l46 178h-126l-44 -178h-46l46 178h-73l16 75h76l50 191h-78z" />
    <glyph glyph-name="dollar" unicode="$" horiz-adv-x="463" 
d="M105 553q1 2 107 0q0 -8 -2 -18q-4 -4 2 -21q-4 2 -110 0q-2 28 3 39zM177 695h16v-55q36 0 55.5 -9t45.5 -36l10 -12l-13 -8q-34 50 -90 50q-52 0 -85 -25q-38 -27 -38 -77q0 -18 8 -37h135q56 -55 113 -109q60 -66 60 -138q0 -79 -58 -135.5t-137 -56.5l-5 1v-49h-17
v50q-71 8 -118.5 62.5t-47.5 127.5h16q0 -73 49.5 -124.5t122.5 -51.5q59 0 108 36t65 92l-251 230q-33 31 -41 43q-16 23 -16 58q0 47 32.5 80t80.5 38v55z" />
    <glyph glyph-name="percent" unicode="%" horiz-adv-x="890" 
d="M553 674h-34l-293 -677h34zM600 -5q-79 0 -128 73q-43 64 -43 144t43 144q49 73 128 73q78 0 128 -73q43 -64 43 -144t-43 -144q-50 -73 -128 -73zM673 377q-32 27 -73 27q-66 0 -108 -64q-38 -56 -38 -127q0 -72 38 -128q42 -64 107 -64q42 0 74 31q-1 157 0 325z
M173 240q-78 0 -128 73q-43 64 -43 144t43 144q50 73 128 73q79 0 128 -73q43 -64 43 -144t-43 -144q-49 -73 -128 -73zM247 622q-33 26 -74 26q-65 0 -108 -63q-37 -57 -37 -128t37 -128q42 -63 108 -63q42 0 74 30q-2 158 0 326z" />
    <glyph glyph-name="ampersand" unicode="&#x26;" horiz-adv-x="765" 
d="M158 472q-63 -31 -100 -90q-39 -62 -39 -134q0 -104 73.5 -177.5t177.5 -73.5q112 0 187 84zM539 248q0 -24 -5 -47l149 -199q0 -2 -165 0l-50 65q-80 -88 -198 -88q-111 0 -190 79t-79 190q0 77 40.5 141.5t106.5 98.5q-16 29 -16 63q0 57 43 97t104 40q60 0 103 -40
t43 -97q0 -75 -67 -115l161 -215q2 13 2 27q0 61 -28 114l16 9q30 -58 30 -123zM407 551q0 49 -37.5 84t-90.5 35q-54 0 -91.5 -35t-37.5 -84q0 -23 9 -43h145l44 -58q59 35 59 101zM296 538l-113 1v52h113v-53z" />
    <glyph glyph-name="quotesingle" unicode="'" horiz-adv-x="210" 
d="M99 674l-31 -238h-29l-30 238h90z" />
    <glyph glyph-name="parenleft" unicode="(" horiz-adv-x="311" 
d="M-3 319q0 -106 45 -215q51 -125 144 -210h42q-63 95 -101 208.5t-38 209.5q0 207 135 419h-37q-85 -70 -140 -197q-50 -116 -50 -215z" />
    <glyph glyph-name="parenright" unicode=")" horiz-adv-x="341" 
d="M228 319q0 -106 -44 -215q-51 -125 -145 -210h-42q64 95 102 208.5t38 209.5q0 207 -135 419h37q85 -70 140 -197q49 -116 49 -215z" />
    <glyph glyph-name="asterisk" unicode="*" horiz-adv-x="442" 
d="M227 525l102 -59l-26 -45l-102 59v-118h-52v118l-102 -59l-26 45l102 59l-102 59l26 45l102 -59v118h52v-118l102 59l26 -45z" />
    <glyph glyph-name="plus" unicode="+" horiz-adv-x="548" 
d="M256 294v-197h-62v197h-197v62h197v197h62v-197h197v-62h-197z" />
    <glyph glyph-name="comma" unicode="," horiz-adv-x="192" 
d="M130 4l-99 -83l-22 2l22 75l-29 1v68h128v-63z" />
    <glyph glyph-name="hyphen" unicode="-" horiz-adv-x="311" 
d="M185 282v-56h-186v56h186z" />
    <glyph glyph-name="hyphen" unicode="&#x2010;" horiz-adv-x="311" 
d="M185 282v-56h-186v56h186z" />
    <glyph glyph-name="period" unicode="." horiz-adv-x="194" 
d="M136 -1h-120v80h120v-80z" />
    <glyph glyph-name="slash" unicode="/" horiz-adv-x="352" 
d="M352 689l-283 -700l-50 -1l284 700z" />
    <glyph glyph-name="zero" unicode="0" horiz-adv-x="623" 
d="M545 337q0 -129 -70 -233q-79 -116 -202 -116q-114 0 -193.5 102.5t-79.5 246.5t79.5 247t193.5 103q123 0 202 -117q70 -103 70 -233zM409 64q2 2 -2 271q3 281 2 283q-60 51 -136 51q-105 0 -180 -97t-75 -235t75 -234.5t180 -96.5q77 0 136 58z" />
    <glyph glyph-name="one" unicode="1" horiz-adv-x="391" 
d="M191 526h-112v51h112v-51zM247 -1l-131 1l1 495h100v108l-106 1v53l-46 -61l-15 9l51 70l145 -1z" />
    <glyph glyph-name="two" unicode="2" horiz-adv-x="536" 
d="M401 321q27 34 34 49q16 34 19 87q6 95 -63 163.5t-166 68.5q-68 0 -126.5 -38.5t-86.5 -98.5l21 -7q25 56 76.5 90t115.5 35q75 2 135 -50q48 -42 48 -66l-406 -554h447q1 21 0 21h-274q25 25 41 46h-129q1 0 43 55t41 55h123q40 55 107 144zM316 148l-33 -52l-136 -1
l39 51z" />
    <glyph glyph-name="three" unicode="3" horiz-adv-x="603" 
d="M311 588l-23 -52h-112l23 52h112zM518 241q0 -110 -78 -188t-188 -78q-91 0 -161.5 54.5t-94.5 140.5l17 5q22 -80 88 -131t151 -51q102 0 175 72.5t73 175.5q0 85 -51.5 151.5t-130.5 88.5l-67 -134l-149 -1l76 162q0 2 130 2q2 0 50 103h-129l15 43h-137v18
q306 2 306 1q-16 -33 -87 -178q84 -24 138 -95t54 -161z" />
    <glyph glyph-name="four" unicode="4" horiz-adv-x="660" 
d="M478 71v111h-111v477l-6 -2q-332 -587 -334 -587zM583 54h-75v-54h-136v53h-382l358 620h159v-236q-1 -265 1 -366h75v-17zM451 152v-53h-116v54z" />
    <glyph glyph-name="five" unicode="5" horiz-adv-x="610" 
d="M278 536q-2 -2 -124 1v48q123 -3 123 -1q0 -49 1 -48zM533 242q0 -116 -78.5 -191.5t-190.5 -75.5q-90 0 -161.5 56.5t-95.5 141.5l21 5q22 -79 88.5 -130.5t150.5 -51.5q102 0 172.5 72.5t70.5 175.5q0 102 -75 173t-178 71q-66 0 -126 -35l-7 -5l-22 10v214l235 1
l-1 -18l-93 1l-1 -47l-116 1v-101h116h-5q-5 1 -1 1h26q115 -1 193 -79.5t78 -188.5z" />
    <glyph glyph-name="six" unicode="6" horiz-adv-x="632" 
d="M282 -26q-115 0 -195.5 104t-80.5 250q0 147 79 252t193 105q85 0 160 -69l-15 -16q-68 63 -145 63q-76 0 -141 -59l3 -159q80 47 143 43q125 -10 193 -81q65 -68 65 -178q0 -106 -76 -180.5t-183 -74.5zM283 466q-79 0 -139 -45l8 -372q63 -49 133 -49q98 0 167.5 67.5
t69.5 165.5q0 97 -70.5 165t-168.5 68z" />
    <glyph glyph-name="seven" unicode="7" horiz-adv-x="515" 
d="M314 552l-13 -40l-89 -1l16 41h86zM452 673l-301 -674h-142l217 483q52 1 95 1q9 6 27 48l20 46l-108 2l35 75h-253v19h410z" />
    <glyph glyph-name="eight" unicode="8" horiz-adv-x="589" 
d="M244 -22q-105 0 -178 77t-73 186q0 68 38 132q36 59 95 98q-23 50 -23 70q0 61 41 100t103 39q61 0 104 -43t43 -104q0 -34 -17 -69q117 -80 117 -223q0 -109 -73 -186t-177 -77zM345 459q27 42 27 78q0 50 -37.5 83.5t-87.5 33.5q-51 0 -84.5 -33.5t-33.5 -83.5
q0 -34 26 -75q-9 -5 -28 -16v-402q57 -36 121 -36q92 0 158 69t66 168q0 137 -127 214z" />
    <glyph glyph-name="nine" unicode="9" horiz-adv-x="589" 
d="M269 -26q-86 0 -161 69l15 16q69 -63 146 -63q75 0 136 55l2 164q-72 -43 -143 -43q-107 0 -182.5 75.5t-75.5 182.5t75.5 181t183.5 74q114 0 195 -103.5t81 -250.5q0 -146 -79 -251.5t-193 -105.5zM402 607q-36 29 -47 36q-29 18 -55 20h-36q-98 0 -169 -69.5
t-71 -166.5q0 -98 71 -167t169 -69q75 0 139 47z" />
    <glyph glyph-name="colon" unicode=":" horiz-adv-x="208" 
d="M136 -1h-110v81h110v-81zM136 215h-110v81h110v-81z" />
    <glyph glyph-name="semicolon" unicode=";" horiz-adv-x="208" 
d="M141 0l-88 -73h-21l27 71l-31 1v74h113v-73zM136 215h-110v81h110v-81z" />
    <glyph glyph-name="less" unicode="&#x3c;" horiz-adv-x="491" 
d="M387 139v-66l-387 271q5 0 384 262l1 -66l-282 -196z" />
    <glyph glyph-name="equal" unicode="=" horiz-adv-x="453" 
d="M372 384v-46l-373 -1v46zM372 263v-46l-373 -1v46z" />
    <glyph glyph-name="greater" unicode="&#x3e;" horiz-adv-x="491" 
d="M0 540v66l387 -271q-5 0 -383 -262l-1 63l279 205z" />
    <glyph glyph-name="question" unicode="?" horiz-adv-x="536" 
d="M298 -2l-130 1v80h130v-81zM172 134h123v77q41 42 101 108q31 39 37 50q18 35 21 88q6 95 -63 163.5t-166 68.5q-68 0 -126.5 -38.5t-86.5 -98.5l21 -7q25 56 76.5 90t115.5 35q75 2 135 -50q48 -42 48 -66q-31 -42 -97 -135h98q-2 0 -35 -55t-32 -55h-109l-62 -86z
M359 394l-26 -49l-135 -1l39 51zM298 -2l-130 1v80h130v-81z" />
    <glyph glyph-name="at" unicode="@" horiz-adv-x="800" 
d="M699 379q0 -110 -56.5 -179.5t-138.5 -69.5q-92 0 -99 75q-54 -65 -129 -65q-42 0 -71 31q-32 34 -32 94q0 110 59 184q65 82 176 82q60 0 116 -30q-11 -36 -54 -232q-6 -26 -6 -43q0 -39 43 -39q47 0 82 56t35 136q0 102 -73 172q-76 71 -193 71q-122 0 -203 -93
q-77 -89 -77 -211q0 -112 77 -185.5t187 -73.5q65 0 124 19l16 -58q-61 -20 -140 -20q-143 0 -237 82q-102 88 -102 236q0 153 100.5 257t254.5 104q147 0 244 -82.5t97 -217.5zM438 469q-13 6 -36 6q-75 0 -118 -71q-36 -60 -36 -142q0 -60 46 -60q31 0 62 28q37 32 48 85z
" />
    <glyph glyph-name="A" unicode="A" horiz-adv-x="769" 
d="M658 -1h-154l-37 76h115l-54 101h-418l-84 -177h-23l313 684zM540 98h-112l-28 53h112zM405 197l-151 298l-136 -298h287z" />
    <glyph glyph-name="B" unicode="B" horiz-adv-x="558" 
d="M461 259q3 -141 -69 -203q-65 -57 -203 -58l-187 -1l-1 678h148q74 0 123 -63q46 -60 40 -131q67 -21 107.5 -83.5t41.5 -138.5zM289 501q0 62 -44.5 109t-108.5 46v-48l-105 1v-113h109l-1 -138q63 0 106.5 40t43.5 103zM435 259q0 67 -33 120q-35 57 -95 80
q-13 -57 -60 -90.5t-106 -30.5l-2 -321q155 -3 223 47q75 56 73 195zM175 528l-116 -1v52h116v-51z" />
    <glyph glyph-name="C" unicode="C" horiz-adv-x="567" 
d="M277 -19q-115 0 -196 105.5t-81 252.5t81 252.5t196 105.5q101 0 180 -85l-15 -14q-73 79 -165 79q-65 0 -125 -46v-587q59 -44 125 -44q107 0 179 99l17 -13q-77 -105 -196 -105z" />
    <glyph glyph-name="D" unicode="D" horiz-adv-x="589" 
d="M489 341q3 -143 -81.5 -245t-188.5 -95l-216 -1v673l198 1q109 1 189 -75q95 -91 99 -258zM466 341q-7 146 -92 235q-77 79 -175 77h-63v-477h-101v-109l107 -1q-2 -42 -1 -42h77q95 -5 169.5 90.5t78.5 226.5zM175 96l-116 -1l1 53l115 -1v-51z" />
    <glyph glyph-name="E" unicode="E" horiz-adv-x="426" 
d="M0 673h293l1 -22h-152v-50l-112 1q-1 0 0 -55.5t0 -55.5t106.5 0h107.5v-20l-106 1q-2 0 0 -451l195 -1v-19q0 -2 -333 0v672zM56 569h117v-48l-116 -1z" />
    <glyph glyph-name="F" unicode="F" horiz-adv-x="403" 
d="M0 673h323v-23h-185l-2 -53l-106 1q-1 0 0 -53.5t0 -53.5t106.5 0h107.5l1 -20l-108 1q-2 0 1 -471h-138v672zM56 569h117v-49l-117 -1v50z" />
    <glyph glyph-name="G" unicode="G" horiz-adv-x="612" 
d="M270 198h247q-58 -217 -240 -217q-115 0 -196 105.5t-81 252.5t81 252.5t196 105.5q101 0 180 -85l-16 -15q-73 78 -163 78q-70 0 -127 -49v-576q42 -42 127 -47q85 -4 146 64q38 43 61 108h-215v23z" />
    <glyph glyph-name="H" unicode="H" horiz-adv-x="512" 
d="M0 673v-672h141v65l-108 1q2 0 0 106l352 1v-172h22v671q0 -2 -22 -1v-480l-248 1v479zM62 143q-2 -53 0 -51t111 0v51h-111z" />
    <glyph glyph-name="I" unicode="I" horiz-adv-x="225" 
d="M-1 672l2 -671l127 1v671z" />
    <glyph glyph-name="J" unicode="J" horiz-adv-x="537" 
d="M143 674h266v-508q0 -83 -62.5 -139t-148.5 -56t-147 60.5t-61 146.5h18q0 -79 55.5 -134t134.5 -55q41 0 78 15v489h104l-1 113h-106v46l-127 1zM233 576h117v-53h-117v53z" />
    <glyph glyph-name="K" unicode="K" horiz-adv-x="473" 
d="M54 568h117v-53h-117v53zM326 669h27l-197 -319l242 -351q-30 -2 -30 0q0 3 -236 344l1 -345l-135 2v674h131v-76h-101v-110l103 -1l1 -129z" />
    <glyph glyph-name="L" unicode="L" horiz-adv-x="417" 
d="M-1 676l139 -1v-495h-103l-2 -107h106l2 -53h194v-21h-335zM61 153h117v-53h-117v53z" />
    <glyph glyph-name="M" unicode="M" horiz-adv-x="804" 
d="M616 520h-95v49l94 1zM674 1h-138v489l105 -1l1 107l-106 1v41l-201 -332l-200 331v-40l-104 -1v-107l105 -1l1 -487h-138v672l140 1l196 -329l199 329q85 -3 140 -1v-672zM152 520h-96v50l96 -1v-49z" />
    <glyph glyph-name="N" unicode="N" horiz-adv-x="654" 
d="M165 520h-106l-1 49h107v-49zM536 -8l-394 648q1 -14 -1 -42h-109v-107l108 -1v-489h-138v672h134q7 1 13 0q20 -31 190 -303q173 -277 173 -278q0 581 -1 581h26z" />
    <glyph glyph-name="O" unicode="O" horiz-adv-x="675" 
d="M567 334q0 -146 -83 -250.5t-201 -104.5q-127 0 -210 117q-74 105 -74 238q0 134 74 239q82 117 210 117q118 0 201 -105t83 -251zM549 334q0 141 -78.5 239.5t-187.5 98.5q-108 0 -156 -72q-2 -3 1 -266q-3 -267 -1 -269q71 -68 156 -68q110 0 188 98.5t78 238.5z" />
    <glyph glyph-name="P" unicode="P" horiz-adv-x="500" 
d="M412 471q0 -85 -60 -144.5t-145 -59.5h-67v-267h-138v673h207q85 0 144 -58.5t59 -143.5zM394 471q0 78 -53.5 132t-131.5 54h-8h-65l1 -59h-105v-106h108v-207h69q77 1 131 55t54 131zM165 521h-107v49h107v-49z" />
    <glyph glyph-name="Q" unicode="Q" horiz-adv-x="671" 
d="M567 334q0 -146 -83 -250.5t-201 -104.5q-127 0 -210 117q-74 105 -74 238q0 134 74 239q82 117 210 117q118 0 201 -105t83 -251zM549 334q0 141 -78.5 239.5t-187.5 98.5q-108 0 -156 -72q-2 -3 1 -266q-3 -267 -1 -269q71 -68 156 -68q110 0 188 98.5t78 238.5z
M427 152q31 -103 137 -131l-5 -18q-115 31 -149 144z" />
    <glyph glyph-name="R" unicode="R" horiz-adv-x="529" 
d="M394 471q0 78 -53.5 132t-131.5 54h-8l-62 -1l-2 -58h-105v-106h108v-207h69q77 1 131 55t54 131zM159 267q20 -92 101 -166q86 -77 201 -96l-3 -17q-96 16 -318 279v-267h-138v673h207q85 0 144 -58.5t59 -143.5t-60 -144.5t-145 -59.5h-48zM165 521h-107v49h107v-49z
" />
    <glyph glyph-name="S" unicode="S" horiz-adv-x="560" 
d="M108 590q1 2 126 0q-1 -10 -3 -22q-4 -4 3 -23q-5 2 -130 -1q-3 32 4 46zM330 639l11 -15l-15 -9q-40 60 -105 60q-61 0 -101 -30q-44 -33 -44 -91q0 -21 9 -44h159q66 -64 133 -128q71 -77 71 -162q0 -93 -68.5 -159t-161.5 -66t-156.5 66t-63.5 159h18
q0 -86 58.5 -146.5t143.5 -60.5q69 0 127 42.5t77 108.5l-295 270q-39 36 -49 51q-19 27 -19 68q0 59 43.5 99t103.5 40q44 0 68.5 -10t55.5 -43z" />
    <glyph glyph-name="T" unicode="T" horiz-adv-x="495" 
d="M251 580h114v-50h-114v50zM264 655v-46h-48v-113h53v-496h-128v496h48v113h-50v46h-141v20h400v-20h-134zM41 580h114v-50h-114v50z" />
    <glyph glyph-name="U" unicode="U" horiz-adv-x="659" 
d="M2 675v-500q0 -74 53 -129q57 -60 147 -67q92 -8 169 73h43v-53h120l-1 674h-116q-3 -492 0 -492h49h47v-108h-150q-76 -75 -152 -73q-68 -2 -124 51q-59 54 -59 126v498h-26zM366 154h123v-56h-123v56z" />
    <glyph glyph-name="V" unicode="V" horiz-adv-x="764" 
d="M259 529q-118 -2 -118 0t-21 48h114zM675 670l-317 -680h-16l-342 680l160 2l29 -68h-116l52 -105h120l169 -342l236 513h25z" />
    <glyph glyph-name="W" unicode="W" horiz-adv-x="1146" 
d="M519 528q-118 -2 -118 0t-21 53h113zM1035 670l-317 -680h-16l-174 344l-160 -344h-16l-256 507l115 2l-52 109h-118l-33 64h160l256 -515l92 200l-70 140l115 2l-52 109h-118l-33 64h160l74 -149l68 147h25l-80 -172l169 -341l236 513h25zM163 529q-118 -2 -118 0
t-21 53h114z" />
    <glyph glyph-name="X" unicode="X" horiz-adv-x="691" 
d="M273 534h-118l-30 54h117zM536 102h-118l-31 53h118zM215 326l-189 -324h-25l202 343l-196 329h158l34 -61l-120 2l64 -110h127l78 -137l180 304h23l-190 -325l99 -167h-128l64 -103h126l43 -77h-157z" />
    <glyph glyph-name="Y" unicode="Y" horiz-adv-x="746" 
d="M291 522l-34 54l-119 1l36 -54zM632 674l-229 -339v-336q0 2 -136 0v293l-267 380l162 2l52 -71l-130 2l74 -109l124 2l107 -140l212 316h31z" />
    <glyph glyph-name="Z" unicode="Z" horiz-adv-x="705" 
d="M580 1l-587 1q-4 0 312 501l124 1l66 108l-122 1q5 11 18 41h-321l-4 22h503l-307 -498l-125 -1q1 0 -32.5 -55t-34.5 -55l125 -1l-22 -45h406zM263 147l-29 -52h-114l35 51zM447 589l-34 -55h-117l34 54z" />
    <glyph glyph-name="bracketleft" unicode="[" horiz-adv-x="187" 
d="M34 -43h63v-29h-98v1v798h98v-29h-63v-741z" />
    <glyph glyph-name="backslash" unicode="\" horiz-adv-x="352" 
d="M19 689l283 -700l50 -1l-284 700z" />
    <glyph glyph-name="bracketright" unicode="]" horiz-adv-x="187" 
d="M65 -43h-64v-29h98v1v798h-98v-29h64v-741z" />
    <glyph glyph-name="asciicircum" unicode="^" horiz-adv-x="557" 
d="M199 750l-118 -46l-7 20l127 81v-1v1l127 -81l-7 -20z" />
    <glyph glyph-name="underscore" unicode="_" horiz-adv-x="532" 
d="M0 -71h507v-38h-507v38z" />
    <glyph glyph-name="grave" unicode="`" horiz-adv-x="557" 
d="M195 805l159 -81l-9 -20q-177 41 -177 44t27 57z" />
    <glyph glyph-name="a" unicode="a" horiz-adv-x="769" 
d="M644 -1h-154l-37 76h115l-54 101h-418l-84 -177h-23l313 684zM526 98h-112l-28 53h112zM390 197l-150 298l-136 -298h286z" />
    <glyph glyph-name="b" unicode="b" horiz-adv-x="558" 
d="M461 259q3 -141 -69 -203q-65 -57 -203 -58l-187 -1l-1 678h148q74 0 123 -63q46 -60 40 -131q67 -21 107.5 -83.5t41.5 -138.5zM289 501q0 62 -44.5 109t-108.5 46v-48l-105 1v-113h109l-1 -138q63 0 106.5 40t43.5 103zM435 259q0 67 -33 120q-35 57 -95 80
q-13 -57 -60 -90.5t-106 -30.5l-2 -321q155 -3 223 47q75 56 73 195zM175 528l-116 -1v52h116v-51z" />
    <glyph glyph-name="c" unicode="c" horiz-adv-x="567" 
d="M277 -19q-115 0 -196 105.5t-81 252.5t81 252.5t196 105.5q101 0 180 -85l-15 -14q-73 79 -165 79q-65 0 -125 -46v-587q59 -44 125 -44q107 0 179 99l17 -13q-77 -105 -196 -105z" />
    <glyph glyph-name="d" unicode="d" horiz-adv-x="589" 
d="M489 341q3 -143 -81.5 -245t-188.5 -95l-216 -1v673l198 1q109 1 189 -75q95 -91 99 -258zM466 341q-7 146 -92 235q-77 79 -175 77h-63v-477h-101v-109l107 -1q-2 -42 -1 -42h77q95 -5 169.5 90.5t78.5 226.5zM175 96l-116 -1l1 53l115 -1v-51z" />
    <glyph glyph-name="e" unicode="e" horiz-adv-x="426" 
d="M0 673h293l1 -22h-152v-50l-112 1q-1 0 0 -55.5t0 -55.5t106.5 0h107.5v-20l-106 1q-2 0 0 -451l195 -1v-19q0 -2 -333 0v672zM56 569h117v-48l-116 -1z" />
    <glyph glyph-name="f" unicode="f" horiz-adv-x="403" 
d="M0 673h323v-23h-185l-2 -53l-106 1q-1 0 0 -53.5t0 -53.5t106.5 0h107.5l1 -20l-108 1q-2 0 1 -471h-138v672zM56 569h117v-49l-117 -1v50z" />
    <glyph glyph-name="g" unicode="g" horiz-adv-x="612" 
d="M270 198h247q-58 -217 -240 -217q-115 0 -196 105.5t-81 252.5t81 252.5t196 105.5q101 0 180 -85l-16 -15q-73 78 -163 78q-70 0 -127 -49v-576q42 -42 127 -47q85 -4 146 64q38 43 61 108h-215v23z" />
    <glyph glyph-name="h" unicode="h" horiz-adv-x="512" 
d="M0 673v-672h141v65l-108 1q2 0 0 106l352 1v-172h22v671q0 -2 -22 -1v-480l-248 1v479zM62 143q-2 -53 0 -51t111 0v51h-111z" />
    <glyph glyph-name="i" unicode="i" horiz-adv-x="225" 
d="M-1 672l2 -671l127 1v671z" />
    <glyph glyph-name="j" unicode="j" horiz-adv-x="537" 
d="M143 674h266v-508q0 -83 -62.5 -139t-148.5 -56t-147 60.5t-61 146.5h18q0 -79 55.5 -134t134.5 -55q41 0 78 15v489h104l-1 113h-106v46l-127 1zM233 576h117v-53h-117v53z" />
    <glyph glyph-name="k" unicode="k" horiz-adv-x="473" 
d="M54 568h117v-53h-117v53zM326 669h27l-197 -319l242 -351q-30 -2 -30 0q0 3 -236 344l1 -345l-135 2v674h131v-76h-101v-110l103 -1l1 -129z" />
    <glyph glyph-name="l" unicode="l" horiz-adv-x="417" 
d="M-1 676l139 -1v-495h-103l-2 -107h106l2 -53h194v-21h-335zM61 153h117v-53h-117v53z" />
    <glyph glyph-name="m" unicode="m" horiz-adv-x="804" 
d="M616 520h-95v49l94 1zM674 1h-138v489l105 -1l1 107l-106 1v41l-201 -332l-200 331v-40l-104 -1v-107l105 -1l1 -487h-138v672l140 1l196 -329l199 329q85 -3 140 -1v-672zM152 520h-96v50l96 -1v-49z" />
    <glyph glyph-name="n" unicode="n" horiz-adv-x="654" 
d="M165 520h-106l-1 49h107v-49zM536 -8l-394 648q1 -14 -1 -42h-109v-107l108 -1v-489h-138v672h134q7 1 13 0q20 -31 190 -303q173 -277 173 -278q0 581 -1 581h26z" />
    <glyph glyph-name="o" unicode="o" horiz-adv-x="675" 
d="M567 334q0 -146 -83 -250.5t-201 -104.5q-127 0 -210 117q-74 105 -74 238q0 134 74 239q82 117 210 117q118 0 201 -105t83 -251zM549 334q0 141 -78.5 239.5t-187.5 98.5q-108 0 -156 -72q-2 -3 1 -266q-3 -267 -1 -269q71 -68 156 -68q110 0 188 98.5t78 238.5z" />
    <glyph glyph-name="p" unicode="p" horiz-adv-x="500" 
d="M412 471q0 -85 -60 -144.5t-145 -59.5h-67v-267h-138v673h207q85 0 144 -58.5t59 -143.5zM394 471q0 78 -53.5 132t-131.5 54h-8h-65l1 -59h-105v-106h108v-207h69q77 1 131 55t54 131zM165 521h-107v49h107v-49z" />
    <glyph glyph-name="q" unicode="q" horiz-adv-x="671" 
d="M567 334q0 -146 -83 -250.5t-201 -104.5q-127 0 -210 117q-74 105 -74 238q0 134 74 239q82 117 210 117q118 0 201 -105t83 -251zM549 334q0 141 -78.5 239.5t-187.5 98.5q-108 0 -156 -72q-2 -3 1 -266q-3 -267 -1 -269q71 -68 156 -68q110 0 188 98.5t78 238.5z
M427 152q31 -103 137 -131l-5 -18q-115 31 -149 144z" />
    <glyph glyph-name="r" unicode="r" horiz-adv-x="529" 
d="M394 471q0 78 -53.5 132t-131.5 54h-8l-62 -1l-2 -58h-105v-106h108v-207h69q77 1 131 55t54 131zM159 267q20 -92 101 -166q86 -77 201 -96l-3 -17q-96 16 -318 279v-267h-138v673h207q85 0 144 -58.5t59 -143.5t-60 -144.5t-145 -59.5h-48zM165 521h-107v49h107v-49z
" />
    <glyph glyph-name="s" unicode="s" horiz-adv-x="560" 
d="M108 590q1 2 126 0q-1 -10 -3 -22q-4 -4 3 -23q-5 2 -130 -1q-3 32 4 46zM330 639l11 -15l-15 -9q-40 60 -105 60q-61 0 -101 -30q-44 -33 -44 -91q0 -21 9 -44h159q66 -64 133 -128q71 -77 71 -162q0 -93 -68.5 -159t-161.5 -66t-156.5 66t-63.5 159h18
q0 -86 58.5 -146.5t143.5 -60.5q69 0 127 42.5t77 108.5l-295 270q-39 36 -49 51q-19 27 -19 68q0 59 43.5 99t103.5 40q44 0 68.5 -10t55.5 -43z" />
    <glyph glyph-name="t" unicode="t" horiz-adv-x="495" 
d="M251 580h114v-50h-114v50zM264 655v-46h-48v-113h53v-496h-128v496h48v113h-50v46h-141v20h400v-20h-134zM41 580h114v-50h-114v50z" />
    <glyph glyph-name="u" unicode="u" horiz-adv-x="659" 
d="M2 675v-500q0 -74 53 -129q57 -60 147 -67q92 -8 169 73h43v-53h120l-1 674h-116q-3 -492 0 -492h49h47v-108h-150q-76 -75 -152 -73q-68 -2 -124 51q-59 54 -59 126v498h-26zM366 154h123v-56h-123v56z" />
    <glyph glyph-name="v" unicode="v" horiz-adv-x="764" 
d="M252 529q-118 -2 -118 0t-21 48h114zM668 670l-317 -680h-16l-342 680l160 2l29 -68h-116l52 -105h119l170 -342l236 513h25z" />
    <glyph glyph-name="w" unicode="w" horiz-adv-x="1146" 
d="M519 528q-118 -2 -118 0t-21 53h113zM1035 670l-317 -680h-16l-174 344l-160 -344h-16l-256 507l115 2l-52 109h-118l-33 64h160l256 -515l92 200l-70 140l115 2l-52 109h-118l-33 64h160l74 -149l68 147h25l-80 -172l169 -341l236 513h25zM163 529q-118 -2 -118 0
t-21 53h114z" />
    <glyph glyph-name="x" unicode="x" horiz-adv-x="691" 
d="M273 534h-118l-30 54h117zM536 102h-118l-31 53h118zM215 326l-189 -324h-25l202 343l-196 329h158l34 -61l-120 2l64 -110h127l78 -137l180 304h23l-190 -325l99 -167h-128l64 -103h126l43 -77h-157z" />
    <glyph glyph-name="y" unicode="y" horiz-adv-x="746" 
d="M291 522l-34 54l-119 1l36 -54zM632 674l-229 -339v-336q0 2 -136 0v293l-267 380l162 2l52 -71l-130 2l74 -109l124 2l107 -140l212 316h31z" />
    <glyph glyph-name="z" unicode="z" horiz-adv-x="705" 
d="M580 1l-587 1q-4 0 312 501l124 1l66 108l-122 1q5 11 18 41h-321l-4 22h503l-307 -498l-125 -1q1 0 -32.5 -55t-34.5 -55l125 -1l-22 -45h406zM263 147l-29 -52h-114l35 51zM447 589l-34 -55h-117l34 54z" />
    <glyph glyph-name="braceleft" unicode="{" horiz-adv-x="205" 
d="M84 -43h63v-29h-98v1v334l-53 62l54 61l-1 341h98v-29h-63v-325l-43 -48l43 -47v-321z" />
    <glyph glyph-name="bar" unicode="|" horiz-adv-x="187" 
d="M96 -72h-37v1v798h37v-799z" />
    <glyph glyph-name="braceright" unicode="}" horiz-adv-x="205" 
d="M63 -43h-64v-29h98v1v334l53 62l-54 61l1 341h-98v-29h64v-325l42 -48l-42 -47v-321z" />
    <glyph glyph-name="asciitilde" unicode="~" horiz-adv-x="381" 
d="M58 731l-16 22q6 20 40 34q30 12 54 12q18 0 49.5 -14t48.5 -14q40 0 54 24l17 -22q-13 -20 -40 -34.5t-50 -14.5q-19 0 -57.5 14t-58.5 14q-29 0 -41 -21z" />
    <glyph glyph-name="Adieresis" unicode="&#xc4;" 
d="M658 -1h-154l-37 76h115l-54 101h-418l-84 -177h-23l313 684zM540 98h-112l-28 53h112zM405 197l-151 298l-136 -298h287zM345 763q0 18 13 30.5t31 12.5t30.5 -12.5t12.5 -30.5t-12.5 -30.5t-30.5 -12.5t-31 12.5t-13 30.5zM201 763q0 18 13 30.5t31 12.5t30.5 -12.5
t12.5 -30.5t-12.5 -30.5t-30.5 -12.5t-31 12.5t-13 30.5z" />
    <glyph glyph-name="Aring" unicode="&#xc5;" 
d="M658 -1h-154l-37 76h115l-54 101h-418l-84 -177h-23l313 684zM540 98h-112l-28 53h112zM405 197l-151 298l-136 -298h287zM315 827q23 0 39.5 -16t16.5 -40q0 -23 -16.5 -39.5t-39.5 -16.5t-39.5 16.5t-16.5 39.5q0 24 16.5 40t39.5 16zM315 807q-15 0 -25.5 -10.5
t-10.5 -25.5t10.5 -25.5t25.5 -10.5t25.5 10.5t10.5 25.5t-10.5 25.5t-25.5 10.5z" />
    <glyph glyph-name="Ccedilla" unicode="&#xc7;" horiz-adv-x="567" 
d="M238 -184q-15 0 -33 10q-21 11 -26 27q-1 2 15 16q21 -28 46 -28q19 0 35 13.5t16 32.5q0 22 -15 36t-36 15q4 15 9 44q-105 14 -177 116.5t-72 240.5q0 147 81 252.5t196 105.5q101 0 180 -85l-15 -14q-73 79 -165 79q-65 0 -125 -46v-587q59 -44 125 -44q107 0 179 99
l17 -13q-78 -107 -196 -105h-7q-4 -20 -4 -27q0 2 15 -7q5 -3 15 -12q22 -19 20 -52q-1 -25 -26 -46t-52 -21z" />
    <glyph glyph-name="Eacute" unicode="&#xc9;" horiz-adv-x="403" 
d="M0 673l294 1v-23h-152v-50l-112 1q-1 0 0 -55.5t0 -55.5t106.5 0h107.5v-20l-106 1q-2 0 0 -451l195 -1v-19q0 -2 -333 0v672zM56 569h117v-48l-116 -1zM213 805l-159 -81l9 -20q177 41 177 44t-27 57z" />
    <glyph glyph-name="Ntilde" unicode="&#xd1;" horiz-adv-x="646" 
d="M165 520h-106l-1 49h107v-49zM536 -8l-394 648q1 -14 -1 -42h-109v-107l108 -1v-489h-138v672h134q7 1 13 0q20 -31 190 -303q173 -277 173 -278q0 581 -1 581h26zM158 731l-16 22q6 20 40 34q30 12 54 12q18 0 49.5 -14t48.5 -14q40 0 54 24l17 -22q-13 -20 -40 -34.5
t-50 -14.5q-19 0 -57.5 14t-58.5 14q-29 0 -41 -21z" />
    <glyph glyph-name="Odieresis" unicode="&#xd6;" horiz-adv-x="668" 
d="M567 334q0 -146 -83 -250.5t-201 -104.5q-127 0 -210 117q-74 105 -74 238q0 134 74 239q82 117 210 117q118 0 201 -105t83 -251zM549 334q0 141 -78.5 239.5t-187.5 98.5q-108 0 -156 -72q-2 -3 1 -266q-3 -267 -1 -269q71 -68 156 -68q110 0 188 98.5t78 238.5z
M305 763q0 18 13 30.5t31 12.5t30.5 -12.5t12.5 -30.5t-12.5 -30.5t-30.5 -12.5t-31 12.5t-13 30.5zM161 763q0 18 13 30.5t31 12.5t30.5 -12.5t12.5 -30.5t-12.5 -30.5t-30.5 -12.5t-31 12.5t-13 30.5z" />
    <glyph glyph-name="Udieresis" unicode="&#xdc;" horiz-adv-x="659" 
d="M2 675v-500q0 -74 53 -129q57 -60 147 -67q92 -8 169 73h43v-53h120l-1 674h-116q-3 -492 0 -492h49h47v-108h-150q-76 -75 -152 -73q-68 -2 -124 51q-59 54 -59 126v498h-26zM366 154h123v-56h-123v56zM285 763q0 18 13 30.5t31 12.5t30.5 -12.5t12.5 -30.5t-12.5 -30.5
t-30.5 -12.5t-31 12.5t-13 30.5zM141 763q0 18 13 30.5t31 12.5t30.5 -12.5t12.5 -30.5t-12.5 -30.5t-30.5 -12.5t-31 12.5t-13 30.5z" />
    <glyph glyph-name="aacute" unicode="&#xe1;" 
d="M373 805l-159 -81l9 -20q177 41 177 44t-27 57zM658 -1h-154l-37 76h115l-54 101h-418l-84 -177h-23l313 684zM540 98h-112l-28 53h112zM405 197l-151 298l-136 -298h287z" />
    <glyph glyph-name="agrave" unicode="&#xe0;" 
d="M658 -1h-154l-37 76h115l-54 101h-418l-84 -177h-23l313 684zM540 98h-112l-28 53h112zM405 197l-151 298l-136 -298h287zM255 805l159 -81l-9 -20q-177 41 -177 44t27 57z" />
    <glyph glyph-name="acircumflex" unicode="&#xe2;" 
d="M658 -1h-154l-37 76h115l-54 101h-418l-84 -177h-23l313 684zM540 98h-112l-28 53h112zM405 197l-151 298l-136 -298h287zM309 750l-118 -46l-7 20l127 81v-1v1l127 -81l-7 -20z" />
    <glyph glyph-name="adieresis" unicode="&#xe4;" 
d="M658 -1h-154l-37 76h115l-54 101h-418l-84 -177h-23l313 684zM540 98h-112l-28 53h112zM405 197l-151 298l-136 -298h287zM345 763q0 18 13 30.5t31 12.5t30.5 -12.5t12.5 -30.5t-12.5 -30.5t-30.5 -12.5t-31 12.5t-13 30.5zM201 763q0 18 13 30.5t31 12.5t30.5 -12.5
t12.5 -30.5t-12.5 -30.5t-30.5 -12.5t-31 12.5t-13 30.5z" />
    <glyph glyph-name="atilde" unicode="&#xe3;" 
d="M658 -1h-154l-37 76h115l-54 101h-418l-84 -177h-23l313 684zM540 98h-112l-28 53h112zM405 197l-151 298l-136 -298h287zM198 731l-16 22q6 20 40 34q30 12 54 12q18 0 49.5 -14t48.5 -14q40 0 54 24l17 -22q-13 -20 -40 -34.5t-50 -14.5q-19 0 -57.5 14t-58.5 14
q-29 0 -41 -21z" />
    <glyph glyph-name="aring" unicode="&#xe5;" 
d="M658 -1h-154l-37 76h115l-54 101h-418l-84 -177h-23l313 684zM540 98h-112l-28 53h112zM405 197l-151 298l-136 -298h287zM315 827q23 0 39.5 -16t16.5 -40q0 -23 -16.5 -39.5t-39.5 -16.5t-39.5 16.5t-16.5 39.5q0 24 16.5 40t39.5 16zM315 807q-15 0 -25.5 -10.5
t-10.5 -25.5t10.5 -25.5t25.5 -10.5t25.5 10.5t10.5 25.5t-10.5 25.5t-25.5 10.5z" />
    <glyph glyph-name="ccedilla" unicode="&#xe7;" horiz-adv-x="567" 
d="M238 -184q-15 0 -33 10q-21 11 -26 27q-1 2 15 16q21 -28 46 -28q19 0 35 13.5t16 32.5q0 22 -15 36t-36 15q4 15 9 44q-105 14 -177 116.5t-72 240.5q0 147 81 252.5t196 105.5q101 0 180 -85l-15 -14q-73 79 -165 79q-65 0 -125 -46v-587q59 -44 125 -44q107 0 179 99
l17 -13q-78 -107 -196 -105h-7q-4 -20 -4 -27q0 2 15 -7q5 -3 15 -12q22 -19 20 -52q-1 -25 -26 -46t-52 -21z" />
    <glyph glyph-name="eacute" unicode="&#xe9;" horiz-adv-x="403" 
d="M213 805l-159 -81l9 -20q177 41 177 44t-27 57zM213 805l-159 -81l9 -20q177 41 177 44t-27 57zM0 673l294 1v-23h-152v-50l-112 1q-1 0 0 -55.5t0 -55.5t106.5 0h107.5v-20l-106 1q-2 0 0 -451l195 -1v-19q0 -2 -333 0v672zM56 569h117v-48l-116 -1zM213 805l-159 -81
l9 -20q177 41 177 44t-27 57z" />
    <glyph glyph-name="egrave" unicode="&#xe8;" horiz-adv-x="403" 
d="M0 673h293l1 -22h-152v-50l-112 1q-1 0 0 -55.5t0 -55.5t106.5 0h107.5v-20l-106 1q-2 0 0 -451l195 -1v-19q0 -2 -333 0v672zM56 569h117v-48l-116 -1zM85 805l159 -81l-9 -20q-177 41 -177 44t27 57z" />
    <glyph glyph-name="ecircumflex" unicode="&#xea;" horiz-adv-x="403" 
d="M0 673h293l1 -22h-152v-50l-112 1q-1 0 0 -55.5t0 -55.5t106.5 0h107.5v-20l-106 1q-2 0 0 -451l195 -1v-19q0 -2 -333 0v672zM56 569h117v-48l-116 -1zM139 750l-118 -46l-7 20l127 81v-1v1l127 -81l-7 -20z" />
    <glyph glyph-name="edieresis" unicode="&#xeb;" horiz-adv-x="403" 
d="M0 673h293l1 -22h-152v-50l-112 1q-1 0 0 -55.5t0 -55.5t106.5 0h107.5v-20l-106 1q-2 0 0 -451l195 -1v-19q0 -2 -333 0v672zM56 569h117v-48l-116 -1zM175 763q0 18 13 30.5t31 12.5t30.5 -12.5t12.5 -30.5t-12.5 -30.5t-30.5 -12.5t-31 12.5t-13 30.5zM31 763
q0 18 13 30.5t31 12.5t30.5 -12.5t12.5 -30.5t-12.5 -30.5t-30.5 -12.5t-31 12.5t-13 30.5z" />
    <glyph glyph-name="iacute" unicode="&#xed;" horiz-adv-x="225" 
d="M-1 672l2 -671l127 1v671zM123 805l-159 -81l9 -20q177 41 177 44t-27 57z" />
    <glyph glyph-name="igrave" unicode="&#xec;" horiz-adv-x="225" 
d="M-1 672l2 -671l127 1v671zM-5 805l159 -81l-9 -20q-177 41 -177 44t27 57z" />
    <glyph glyph-name="icircumflex" unicode="&#xee;" horiz-adv-x="225" 
d="M-1 672l2 -671l127 1v671zM49 750l-118 -46l-7 20l127 81v-1v1l127 -81l-7 -20z" />
    <glyph glyph-name="idieresis" unicode="&#xef;" horiz-adv-x="225" 
d="M-1 672l2 -671l127 1v671zM93 763q0 18 13 30.5t31 12.5t30.5 -12.5t12.5 -30.5t-12.5 -30.5t-30.5 -12.5t-31 12.5t-13 30.5zM-51 763q0 18 13 30.5t31 12.5t30.5 -12.5t12.5 -30.5t-12.5 -30.5t-30.5 -12.5t-31 12.5t-13 30.5z" />
    <glyph glyph-name="ntilde" unicode="&#xf1;" horiz-adv-x="646" 
d="M165 520h-106l-1 49h107v-49zM536 -8l-394 648q1 -14 -1 -42h-109v-107l108 -1v-489h-138v672h134q7 1 13 0q20 -31 190 -303q173 -277 173 -278q0 581 -1 581h26zM158 731l-16 22q6 20 40 34q30 12 54 12q18 0 49.5 -14t48.5 -14q40 0 54 24l17 -22q-13 -20 -40 -34.5
t-50 -14.5q-19 0 -57.5 14t-58.5 14q-29 0 -41 -21z" />
    <glyph glyph-name="oacute" unicode="&#xf3;" horiz-adv-x="668" 
d="M567 334q0 -146 -83 -250.5t-201 -104.5q-127 0 -210 117q-74 105 -74 238q0 134 74 239q82 117 210 117q118 0 201 -105t83 -251zM549 334q0 141 -78.5 239.5t-187.5 98.5q-108 0 -156 -72q-2 -3 1 -266q-3 -267 -1 -269q71 -68 156 -68q110 0 188 98.5t78 238.5z
M353 805l-159 -81l9 -20q177 41 177 44t-27 57z" />
    <glyph glyph-name="ograve" unicode="&#xf2;" horiz-adv-x="668" 
d="M567 334q0 -146 -83 -250.5t-201 -104.5q-127 0 -210 117q-74 105 -74 238q0 134 74 239q82 117 210 117q118 0 201 -105t83 -251zM549 334q0 141 -78.5 239.5t-187.5 98.5q-108 0 -156 -72q-2 -3 1 -266q-3 -267 -1 -269q71 -68 156 -68q110 0 188 98.5t78 238.5z
M225 805l159 -81l-9 -20q-177 41 -177 44t27 57z" />
    <glyph glyph-name="ocircumflex" unicode="&#xf4;" horiz-adv-x="668" 
d="M567 334q0 -146 -83 -250.5t-201 -104.5q-127 0 -210 117q-74 105 -74 238q0 134 74 239q82 117 210 117q118 0 201 -105t83 -251zM549 334q0 141 -78.5 239.5t-187.5 98.5q-108 0 -156 -72q-2 -3 1 -266q-3 -267 -1 -269q71 -68 156 -68q110 0 188 98.5t78 238.5z
M279 750l-118 -46l-7 20l127 81v-1v1l127 -81l-7 -20z" />
    <glyph glyph-name="odieresis" unicode="&#xf6;" horiz-adv-x="668" 
d="M567 334q0 -146 -83 -250.5t-201 -104.5q-127 0 -210 117q-74 105 -74 238q0 134 74 239q82 117 210 117q118 0 201 -105t83 -251zM549 334q0 141 -78.5 239.5t-187.5 98.5q-108 0 -156 -72q-2 -3 1 -266q-3 -267 -1 -269q71 -68 156 -68q110 0 188 98.5t78 238.5z
M305 763q0 18 13 30.5t31 12.5t30.5 -12.5t12.5 -30.5t-12.5 -30.5t-30.5 -12.5t-31 12.5t-13 30.5zM161 763q0 18 13 30.5t31 12.5t30.5 -12.5t12.5 -30.5t-12.5 -30.5t-30.5 -12.5t-31 12.5t-13 30.5z" />
    <glyph glyph-name="otilde" unicode="&#xf5;" horiz-adv-x="668" 
d="M567 334q0 -146 -83 -250.5t-201 -104.5q-127 0 -210 117q-74 105 -74 238q0 134 74 239q82 117 210 117q118 0 201 -105t83 -251zM549 334q0 141 -78.5 239.5t-187.5 98.5q-108 0 -156 -72q-2 -3 1 -266q-3 -267 -1 -269q71 -68 156 -68q110 0 188 98.5t78 238.5z
M162 731l-16 22q6 20 40 34q30 12 54 12q18 0 49.5 -14t48.5 -14q40 0 54 24l17 -22q-13 -20 -40 -34.5t-50 -14.5q-19 0 -57.5 14t-58.5 14q-29 0 -41 -21z" />
    <glyph glyph-name="uacute" unicode="&#xfa;" horiz-adv-x="659" 
d="M2 675v-500q0 -74 53 -129q57 -60 147 -67q92 -8 169 73h43v-53h120l-1 674h-116q-3 -492 0 -492h49h47v-108h-150q-76 -75 -152 -73q-68 -2 -124 51q-59 54 -59 126v498h-26zM366 154h123v-56h-123v56zM333 805l-159 -81l9 -20q177 41 177 44t-27 57z" />
    <glyph glyph-name="ugrave" unicode="&#xf9;" horiz-adv-x="659" 
d="M2 675v-500q0 -74 53 -129q57 -60 147 -67q92 -8 169 73h43v-53h120l-1 674h-116q-3 -492 0 -492h49h47v-108h-150q-76 -75 -152 -73q-68 -2 -124 51q-59 54 -59 126v498h-26zM366 154h123v-56h-123v56zM185 805l159 -81l-9 -20q-177 41 -177 44t27 57z" />
    <glyph glyph-name="ucircumflex" unicode="&#xfb;" horiz-adv-x="659" 
d="M2 675v-500q0 -74 53 -129q57 -60 147 -67q92 -8 169 73h43v-53h120l-1 674h-116q-3 -492 0 -492h49h47v-108h-150q-76 -75 -152 -73q-68 -2 -124 51q-59 54 -59 126v498h-26zM366 154h123v-56h-123v56zM249 750l-118 -46l-7 20l127 81v-1v1l127 -81l-7 -20z" />
    <glyph glyph-name="udieresis" unicode="&#xfc;" horiz-adv-x="659" 
d="M2 675v-500q0 -74 53 -129q57 -60 147 -67q92 -8 169 73h43v-53h120l-1 674h-116q-3 -492 0 -492h49h47v-108h-150q-76 -75 -152 -73q-68 -2 -124 51q-59 54 -59 126v498h-26zM366 154h123v-56h-123v56zM285 763q0 18 13 30.5t31 12.5t30.5 -12.5t12.5 -30.5t-12.5 -30.5
t-30.5 -12.5t-31 12.5t-13 30.5zM141 763q0 18 13 30.5t31 12.5t30.5 -12.5t12.5 -30.5t-12.5 -30.5t-30.5 -12.5t-31 12.5t-13 30.5z" />
    <glyph glyph-name="dagger" unicode="&#x2020;" horiz-adv-x="14" 
 />
    <glyph glyph-name="degree" unicode="&#xb0;" horiz-adv-x="275" 
d="M107 482q-40 0 -68 28.5t-28 68.5t28 68t68 28t68.5 -28t28.5 -68t-28.5 -68.5t-68.5 -28.5zM107 649q-29 0 -49.5 -20.5t-20.5 -49.5t20.5 -50t49.5 -21t50 21t21 50t-21 49.5t-50 20.5z" />
    <glyph glyph-name="cent" unicode="&#xa2;" horiz-adv-x="469" 
d="M212 595q-34 -5 -78 -38v-446q42 -31 78 -37v521zM212 48q-89 8 -149 92.5t-60 198.5q0 113 60 194.5t149 89.5v54h28v-54q81 -3 139 -66l-21 -21q-50 53 -118 59v-522q76 5 131 81l22 -17q-62 -85 -153 -90v-55h-28v56z" />
    <glyph glyph-name="sterling" unicode="&#xa3;" horiz-adv-x="536" 
d="M423 528l24 5q-13 60 -72 98t-134 41q-108 5 -175 -71t-67 -205l1 -397h455v21h-314l-2 253h-106l1 102l101 2v27q0 124 13 176q20 77 76 72q2 2 11 2q47 0 103 -28q74 -37 85 -98zM61 353h277l1 -52l-278 -1v53z" />
    <glyph glyph-name="section" unicode="&#xa7;" horiz-adv-x="23" 
 />
    <glyph glyph-name="bullet" unicode="&#x2022;" horiz-adv-x="378" 
d="M7 292q0 57 40.5 97.5t97.5 40.5q58 0 98.5 -40.5t40.5 -97.5t-40.5 -97.5t-98.5 -40.5q-57 0 -97.5 40.5t-40.5 97.5z" />
    <glyph glyph-name="paragraph" unicode="&#xb6;" horiz-adv-x="20" 
 />
    <glyph glyph-name="germandbls" unicode="&#xdf;" horiz-adv-x="14" 
 />
    <glyph glyph-name="registered" unicode="&#xae;" horiz-adv-x="584" 
d="M339 512q0 -43 -48 -55q22 -13 29.5 -26t10.5 -41q-1 -23 1 -56h-44q1 14 -3 61q-7 45 -52 43l-29 -1v-103h-43v246q8 1 75 1h47q17 -3 36.5 -19.5t19.5 -49.5zM294 509q0 25 -10 33t-46 6q-11 1 -34 1v-78h30q60 0 60 38zM248 244q-89 0 -152 63t-63 153q0 89 63 152
t152 63h1q89 0 151 -63t62 -152q0 -90 -62 -153t-152 -63zM248 650h-1q-75 0 -127.5 -56t-52.5 -135t52.5 -134.5t128.5 -55.5t129 55t53 135q0 79 -53 135t-129 56z" />
    <glyph glyph-name="copyright" unicode="&#xa9;" horiz-adv-x="825" 
d="M362 -11q-142 0 -240 100.5t-98 243.5t94.5 242.5t235.5 99.5h1q141 0 241.5 -100.5t100.5 -241.5q0 -144 -97 -244t-238 -100zM354 634h-1q-119 0 -199.5 -87.5t-80.5 -214.5q0 -126 84 -214t205 -88t205 88t84 214q0 125 -88 213.5t-209 88.5zM367 130q-95 0 -151 58
q-53 55 -53 142q0 93 65 151q62 56 149 56q78 0 119 -27l-13 -49q-51 23 -106 23q-70 0 -109.5 -40t-39.5 -110q0 -66 41.5 -108.5t107.5 -42.5q61 0 111 24l12 -45q-56 -32 -133 -32z" />
    <glyph glyph-name="trademark" unicode="&#x2122;" horiz-adv-x="651" 
d="M518 419h-40l-15 219l-45 -213l-52 -1l-62 214l-9 -219h-46l18 255h68l53 -191l44 191h69zM135 635v-214h-49v214h-74v37h199v-37h-76z" />
    <glyph glyph-name="acute" unicode="&#xb4;" horiz-adv-x="557" 
d="M333 805l-159 -81l9 -20q177 41 177 44t-27 57z" />
    <glyph glyph-name="dieresis" unicode="&#xa8;" horiz-adv-x="361" 
d="M185 763q0 18 13 30.5t31 12.5t30.5 -12.5t12.5 -30.5t-12.5 -30.5t-30.5 -12.5t-31 12.5t-13 30.5zM41 763q0 18 13 30.5t31 12.5t30.5 -12.5t12.5 -30.5t-12.5 -30.5t-30.5 -12.5t-31 12.5t-13 30.5z" />
    <glyph glyph-name="AE" unicode="&#xc6;" horiz-adv-x="844" 
d="M487 570l116 -1v-48l-116 -1v50zM430 628l-275 -431h275v431zM143 176l-118 -178h-23l428 674v-1v2h293v-22h-151l-1 -49h-111q-1 0 0 -55.5t0 -55.5h214v-20l-106 1q1 -227 2 -453h193v-19h-333v177z" />
    <glyph glyph-name="Oslash" unicode="&#xd8;" horiz-adv-x="675" 
d="M126 85l322 514q-73 73 -165 73q-108 0 -156 -72q-2 -3 1 -266zM464 582l-328 -526q68 -59 147 -59q110 0 188 98.5t78 238.5q0 148 -85 248zM502 686h26l-54 -88q93 -106 93 -264q0 -146 -83 -250.5t-201 -104.5q-86 0 -158 60l-37 -60l-30 -3l50 79q-109 107 -109 279
q0 134 74 239q82 117 210 117q98 0 174 -75z" />
    <glyph glyph-name="plusminus" unicode="&#xb1;" horiz-adv-x="14" 
 />
    <glyph glyph-name="yen" unicode="&#xa5;" horiz-adv-x="731" 
d="M291 522l-117 1l-31 51l114 2zM126 298h137l-263 374l162 2l48 -68l-126 -1l74 -109l124 2l107 -140l212 316h31l-229 -339v-37h150v-44h-150v-87h150v-44h-150v-124q0 2 -136 0v124h-141v44h141v87h-141v44z" />
    <glyph glyph-name="mu" unicode="&#xb5;" horiz-adv-x="417" 
d="M61 153h117v-53h-117v53zM-42 200l42 36v440l138 -1v-320l91 79v-32l-91 -77v-145h-103l1 -107h103l2 -53h194v-21h-335v208l-42 -36v29z" />
    <glyph glyph-name="mu" unicode="&#x3bc;" horiz-adv-x="417" 
d="M61 153h117v-53h-117v53zM-42 200l42 36v440l138 -1v-320l91 79v-32l-91 -77v-145h-103l1 -107h103l2 -53h194v-21h-335v208l-42 -36v29z" />
    <glyph glyph-name="ordfeminine" unicode="&#xaa;" horiz-adv-x="705" 
d="M580 1l-587 1q-4 0 312 501l124 1l66 108l-122 1q5 11 18 41h-321l-4 22h503l-307 -498l-125 -1q1 0 -32.5 -55t-34.5 -55l125 -1l-22 -45h406zM263 147l-29 -52h-114l35 51zM447 589l-34 -55h-117l34 54zM209 782l7 17l122 -37l119 37l8 -14l-123 -63z" />
    <glyph glyph-name="ordmasculine" unicode="&#xba;" horiz-adv-x="705" 
d="M580 1l-587 1q-4 0 312 501l124 1l66 108l-122 1q5 11 18 41h-321l-4 22h503l-307 -498l-125 -1q1 0 -32.5 -55t-34.5 -55l125 -1l-22 -45h406zM263 147l-29 -52h-114l35 51zM447 589l-34 -55h-117l34 54zM209 782l7 17l122 -37l119 37l8 -14l-123 -63z" />
    <glyph glyph-name="ae" unicode="&#xe6;" horiz-adv-x="844" 
d="M487 570l116 -1v-48l-116 -1v50zM430 628l-275 -431h275v431zM143 176l-118 -178h-23l428 674v-1v2h293v-22h-151l-1 -49h-111q-1 0 0 -55.5t0 -55.5h214v-20l-106 1q1 -227 2 -453h193v-19h-333v177z" />
    <glyph glyph-name="oslash" unicode="&#xf8;" horiz-adv-x="675" 
d="M126 85l322 514q-73 73 -165 73q-108 0 -156 -72q-2 -3 1 -266zM464 582l-328 -526q68 -59 147 -59q110 0 188 98.5t78 238.5q0 148 -85 248zM502 686h26l-54 -88q93 -106 93 -264q0 -146 -83 -250.5t-201 -104.5q-86 0 -158 60l-37 -60l-30 -3l50 79q-109 107 -109 279
q0 134 74 239q82 117 210 117q98 0 174 -75z" />
    <glyph glyph-name="questiondown" unicode="&#xbf;" horiz-adv-x="536" 
d="M295 353h-123v-78q-41 -41 -102 -107q-30 -39 -36 -50q-19 -35 -22 -89q-5 -94 64 -162.5t166 -68.5q68 0 126.5 38.5t86.5 98.5l-21 7q-26 -56 -77.5 -90.5t-114.5 -35.5q-76 -1 -136 51q-47 42 -47 65q31 42 97 136h-98q1 0 34.5 55t31.5 55h110l62 86zM108 93l25 49
l136 1l-39 -51zM169 488h129v-81l-129 1v80z" />
    <glyph glyph-name="exclamdown" unicode="&#xa1;" horiz-adv-x="229" 
d="M20 322l95 1l33 -524l-150 -1zM125 475v-86h-113v86h113z" />
    <glyph glyph-name="logicalnot" unicode="&#xac;" horiz-adv-x="21" 
 />
    <glyph glyph-name="florin" unicode="&#x192;" horiz-adv-x="617" 
d="M-3 435h64q24 114 98 188t168 74q101 0 180 -85l-15 -14q-73 79 -165 79q-65 0 -125 -46l-1 -196h183v-25h-183v-55h183v-25h-183l1 -286q59 -44 125 -44q107 0 179 99l17 -13q-77 -105 -196 -105q-113 0 -193.5 102.5t-83.5 246.5h-53v25h54q1 28 5 55h-59v25z" />
    <glyph glyph-name="guillemotleft" unicode="&#xab;" horiz-adv-x="362" 
d="M270 50h-61l-81 206l80 194h61l-80 -196zM140 50h-61l-81 206l80 194h61l-80 -196z" />
    <glyph glyph-name="guillemotright" unicode="&#xbb;" horiz-adv-x="362" 
d="M-2 50h61l81 206l-80 194h-61l80 -196zM128 50h61l81 206l-80 194h-61l80 -196z" />
    <glyph glyph-name="ellipsis" unicode="&#x2026;" horiz-adv-x="835" 
d="M469 -1h-121v80h121v-80zM739 -1h-121v80h121v-80zM199 -1h-121v80h121v-80z" />
    <glyph glyph-name="nonbreakingspace" unicode="&#xa0;" horiz-adv-x="214" 
 />
    <glyph glyph-name="Agrave" unicode="&#xc0;" 
d="M658 -1h-154l-37 76h115l-54 101h-418l-84 -177h-23l313 684zM540 98h-112l-28 53h112zM405 197l-151 298l-136 -298h287zM255 805l159 -81l-9 -20q-177 41 -177 44t27 57z" />
    <glyph glyph-name="Atilde" unicode="&#xc3;" 
d="M658 -1h-154l-37 76h115l-54 101h-418l-84 -177h-23l313 684zM540 98h-112l-28 53h112zM405 197l-151 298l-136 -298h287zM198 731l-16 22q6 20 40 34q30 12 54 12q18 0 49.5 -14t48.5 -14q40 0 54 24l17 -22q-13 -20 -40 -34.5t-50 -14.5q-19 0 -57.5 14t-58.5 14
q-29 0 -41 -21z" />
    <glyph glyph-name="Otilde" unicode="&#xd5;" horiz-adv-x="668" 
d="M567 334q0 -146 -83 -250.5t-201 -104.5q-127 0 -210 117q-74 105 -74 238q0 134 74 239q82 117 210 117q118 0 201 -105t83 -251zM549 334q0 141 -78.5 239.5t-187.5 98.5q-108 0 -156 -72q-2 -3 1 -266q-3 -267 -1 -269q71 -68 156 -68q110 0 188 98.5t78 238.5z
M162 731l-16 22q6 20 40 34q30 12 54 12q18 0 49.5 -14t48.5 -14q40 0 54 24l17 -22q-13 -20 -40 -34.5t-50 -14.5q-19 0 -57.5 14t-58.5 14q-29 0 -41 -21z" />
    <glyph glyph-name="OE" unicode="&#x152;" horiz-adv-x="854" 
d="M486 569h117v-48l-117 -1v49zM430 35q-66 -56 -147 -56q-127 0 -210 117q-74 105 -74 238q0 134 74 239q82 117 210 117q80 0 147 -51v34h293l1 -22h-152v-50l-112 1q-1 0 0 -55.5t0 -55.5h214v-20l-106 1v-451l195 -1v-19h-333v34zM430 615q-67 57 -147 57
q-108 0 -156 -72q-2 -3 1 -266q-3 -267 -1 -269q71 -68 156 -68q91 0 147 61v557z" />
    <glyph glyph-name="oe" unicode="&#x153;" horiz-adv-x="854" 
d="M486 569h117v-48l-117 -1v49zM430 35q-66 -56 -147 -56q-127 0 -210 117q-74 105 -74 238q0 134 74 239q82 117 210 117q80 0 147 -51v34h293l1 -22h-152v-50l-112 1q-1 0 0 -55.5t0 -55.5h214v-20l-106 1v-451l195 -1v-19h-333v34zM430 615q-67 57 -147 57
q-108 0 -156 -72q-2 -3 1 -266q-3 -267 -1 -269q71 -68 156 -68q91 0 147 61v557z" />
    <glyph glyph-name="endash" unicode="&#x2013;" horiz-adv-x="390" 
d="M372 283v-66l-373 -1v66z" />
    <glyph glyph-name="emdash" unicode="&#x2014;" horiz-adv-x="741" 
d="M702 283v-66l-703 -1v66z" />
    <glyph glyph-name="quotedblleft" unicode="&#x201c;" horiz-adv-x="256" 
d="M122 591l49 83l22 -2l-22 -76h29v-68h-78v63zM2 591l49 83l22 -2l-22 -76h29v-68h-78v63z" />
    <glyph glyph-name="quotedblright" unicode="&#x201d;" horiz-adv-x="256" 
d="M80 611l-49 -83l-22 2l22 75l-29 1v68h78v-63zM200 611l-49 -83l-22 2l22 75l-29 1v68h78v-63z" />
    <glyph glyph-name="quoteleft" unicode="&#x2018;" horiz-adv-x="138" 
d="M2 591l49 83l22 -2l-22 -76l29 1v-69h-78v63z" />
    <glyph glyph-name="quoteright" unicode="&#x2019;" horiz-adv-x="138" 
d="M80 611l-49 -83l-22 2l22 75h-29v69h78v-63z" />
    <glyph glyph-name="ydieresis" unicode="&#xff;" horiz-adv-x="746" 
d="M291 522l-34 54l-119 1l36 -54zM632 674l-229 -339v-336q0 2 -136 0v293l-267 380l162 2l52 -71l-130 2l74 -109l124 2l107 -140l212 316h31zM375 753q0 18 13 30.5t31 12.5t30.5 -12.5t12.5 -30.5t-12.5 -30.5t-30.5 -12.5t-31 12.5t-13 30.5zM221 753q0 18 13 30.5
t31 12.5t30.5 -12.5t12.5 -30.5t-12.5 -30.5t-30.5 -12.5t-31 12.5t-13 30.5z" />
    <glyph glyph-name="Ydieresis" unicode="&#x178;" horiz-adv-x="746" 
d="M291 522l-34 54l-119 1l36 -54zM632 674l-229 -339v-336q0 2 -136 0v293l-267 380l162 2l52 -71l-130 2l74 -109l124 2l107 -140l212 316h31zM375 753q0 18 13 30.5t31 12.5t30.5 -12.5t12.5 -30.5t-12.5 -30.5t-30.5 -12.5t-31 12.5t-13 30.5zM221 753q0 18 13 30.5
t31 12.5t30.5 -12.5t12.5 -30.5t-12.5 -30.5t-30.5 -12.5t-31 12.5t-13 30.5z" />
    <glyph glyph-name="currency" unicode="&#xa4;" horiz-adv-x="14" 
 />
    <glyph glyph-name="guilsinglleft" unicode="&#x2039;" horiz-adv-x="196" 
d="M140 50h-61l-81 206l80 194h61l-80 -196z" />
    <glyph glyph-name="guilsinglright" unicode="&#x203a;" horiz-adv-x="196" 
d="M-2 50h61l81 206l-80 194h-61l80 -196z" />
    <glyph glyph-name="daggerdbl" unicode="&#x2021;" horiz-adv-x="14" 
 />
    <glyph glyph-name="periodcentered" unicode="&#xb7;" horiz-adv-x="235" 
d="M40 293q0 24 16 40.5t40 16.5q23 0 39.5 -16.5t16.5 -40.5q0 -23 -16.5 -39.5t-39.5 -16.5q-24 0 -40 16.5t-16 39.5z" />
    <glyph glyph-name="periodcentered" unicode="&#x2219;" horiz-adv-x="235" 
d="M40 293q0 24 16 40.5t40 16.5q23 0 39.5 -16.5t16.5 -40.5q0 -23 -16.5 -39.5t-39.5 -16.5q-24 0 -40 16.5t-16 39.5z" />
    <glyph glyph-name="quotesinglbase" unicode="&#x201a;" horiz-adv-x="138" 
d="M80 4l-49 -83l-22 2l22 75l-29 1v68h78v-63z" />
    <glyph glyph-name="quotedblbase" unicode="&#x201e;" horiz-adv-x="256" 
d="M80 4l-49 -83l-22 2l22 75l-29 1v68h78v-63zM200 4l-49 -83l-22 2l22 75l-29 1v68h78v-63z" />
    <glyph glyph-name="perthousand" unicode="&#x2030;" horiz-adv-x="20" 
 />
    <glyph glyph-name="Acircumflex" unicode="&#xc2;" 
d="M658 -1h-154l-37 76h115l-54 101h-418l-84 -177h-23l313 684zM540 98h-112l-28 53h112zM405 197l-151 298l-136 -298h287zM309 750l-118 -46l-7 20l127 81v-1v1l127 -81l-7 -20z" />
    <glyph glyph-name="Ecircumflex" unicode="&#xca;" horiz-adv-x="403" 
d="M0 673h293l1 -22h-152v-50l-112 1q-1 0 0 -55.5t0 -55.5t106.5 0h107.5v-20l-106 1q-2 0 0 -451l195 -1v-19q0 -2 -333 0v672zM56 569h117v-48l-116 -1zM139 750l-118 -46l-7 20l127 81v-1v1l127 -81l-7 -20z" />
    <glyph glyph-name="Aacute" unicode="&#xc1;" 
d="M373 805l-159 -81l9 -20q177 41 177 44t-27 57zM658 -1h-154l-37 76h115l-54 101h-418l-84 -177h-23l313 684zM540 98h-112l-28 53h112zM405 197l-151 298l-136 -298h287z" />
    <glyph glyph-name="Edieresis" unicode="&#xcb;" horiz-adv-x="403" 
d="M0 673h293l1 -22h-152v-50l-112 1q-1 0 0 -55.5t0 -55.5t106.5 0h107.5v-20l-106 1q-2 0 0 -451l195 -1v-19q0 -2 -333 0v672zM56 569h117v-48l-116 -1zM175 763q0 18 13 30.5t31 12.5t30.5 -12.5t12.5 -30.5t-12.5 -30.5t-30.5 -12.5t-31 12.5t-13 30.5zM31 763
q0 18 13 30.5t31 12.5t30.5 -12.5t12.5 -30.5t-12.5 -30.5t-30.5 -12.5t-31 12.5t-13 30.5z" />
    <glyph glyph-name="Egrave" unicode="&#xc8;" horiz-adv-x="403" 
d="M0 673h293l1 -22h-152v-50l-112 1q-1 0 0 -55.5t0 -55.5t106.5 0h107.5v-20l-106 1q-2 0 0 -451l195 -1v-19q0 -2 -333 0v672zM56 569h117v-48l-116 -1zM85 805l159 -81l-9 -20q-177 41 -177 44t27 57z" />
    <glyph glyph-name="Iacute" unicode="&#xcd;" horiz-adv-x="225" 
d="M-1 672l2 -671l127 1v671zM123 805l-159 -81l9 -20q177 41 177 44t-27 57z" />
    <glyph glyph-name="Icircumflex" unicode="&#xce;" horiz-adv-x="225" 
d="M-1 672l2 -671l127 1v671zM49 750l-118 -46l-7 20l127 81v-1v1l127 -81l-7 -20z" />
    <glyph glyph-name="Idieresis" unicode="&#xcf;" horiz-adv-x="225" 
d="M-1 672l2 -671l127 1v671zM93 763q0 18 13 30.5t31 12.5t30.5 -12.5t12.5 -30.5t-12.5 -30.5t-30.5 -12.5t-31 12.5t-13 30.5zM-51 763q0 18 13 30.5t31 12.5t30.5 -12.5t12.5 -30.5t-12.5 -30.5t-30.5 -12.5t-31 12.5t-13 30.5z" />
    <glyph glyph-name="Igrave" unicode="&#xcc;" horiz-adv-x="225" 
d="M-1 672l2 -671l127 1v671zM-5 805l159 -81l-9 -20q-177 41 -177 44t27 57z" />
    <glyph glyph-name="Oacute" unicode="&#xd3;" horiz-adv-x="668" 
d="M567 334q0 -146 -83 -250.5t-201 -104.5q-127 0 -210 117q-74 105 -74 238q0 134 74 239q82 117 210 117q118 0 201 -105t83 -251zM549 334q0 141 -78.5 239.5t-187.5 98.5q-108 0 -156 -72q-2 -3 1 -266q-3 -267 -1 -269q71 -68 156 -68q110 0 188 98.5t78 238.5z
M353 805l-159 -81l9 -20q177 41 177 44t-27 57z" />
    <glyph glyph-name="Ocircumflex" unicode="&#xd4;" horiz-adv-x="668" 
d="M567 334q0 -146 -83 -250.5t-201 -104.5q-127 0 -210 117q-74 105 -74 238q0 134 74 239q82 117 210 117q118 0 201 -105t83 -251zM549 334q0 141 -78.5 239.5t-187.5 98.5q-108 0 -156 -72q-2 -3 1 -266q-3 -267 -1 -269q71 -68 156 -68q110 0 188 98.5t78 238.5z
M279 750l-118 -46l-7 20l127 81v-1v1l127 -81l-7 -20z" />
    <glyph glyph-name="Ograve" unicode="&#xd2;" horiz-adv-x="668" 
d="M567 334q0 -146 -83 -250.5t-201 -104.5q-127 0 -210 117q-74 105 -74 238q0 134 74 239q82 117 210 117q118 0 201 -105t83 -251zM549 334q0 141 -78.5 239.5t-187.5 98.5q-108 0 -156 -72q-2 -3 1 -266q-3 -267 -1 -269q71 -68 156 -68q110 0 188 98.5t78 238.5z
M225 805l159 -81l-9 -20q-177 41 -177 44t27 57z" />
    <glyph glyph-name="Uacute" unicode="&#xda;" horiz-adv-x="659" 
d="M2 675v-500q0 -74 53 -129q57 -60 147 -67q92 -8 169 73h43v-53h120l-1 674h-116q-3 -492 0 -492h49h47v-108h-150q-76 -75 -152 -73q-68 -2 -124 51q-59 54 -59 126v498h-26zM366 154h123v-56h-123v56zM333 805l-159 -81l9 -20q177 41 177 44t-27 57z" />
    <glyph glyph-name="Ucircumflex" unicode="&#xdb;" horiz-adv-x="659" 
d="M2 675v-500q0 -74 53 -129q57 -60 147 -67q92 -8 169 73h43v-53h120l-1 674h-116q-3 -492 0 -492h49h47v-108h-150q-76 -75 -152 -73q-68 -2 -124 51q-59 54 -59 126v498h-26zM366 154h123v-56h-123v56zM249 750l-118 -46l-7 20l127 81v-1v1l127 -81l-7 -20z" />
    <glyph glyph-name="Ugrave" unicode="&#xd9;" horiz-adv-x="659" 
d="M2 675v-500q0 -74 53 -129q57 -60 147 -67q92 -8 169 73h43v-53h120l-1 674h-116q-3 -492 0 -492h49h47v-108h-150q-76 -75 -152 -73q-68 -2 -124 51q-59 54 -59 126v498h-26zM366 154h123v-56h-123v56zM185 805l159 -81l-9 -20q-177 41 -177 44t27 57z" />
    <glyph glyph-name="circumflex" unicode="&#x2c6;" horiz-adv-x="346" 
d="M285 749l-13 -24l-120 37l-110 -40l-13 25l122 62z" />
    <glyph glyph-name="tilde" unicode="&#x2dc;" horiz-adv-x="381" 
d="M58 731l-16 22q6 20 40 34q30 12 54 12q18 0 49.5 -14t48.5 -14q40 0 54 24l17 -22q-13 -20 -40 -34.5t-50 -14.5q-19 0 -57.5 14t-58.5 14q-29 0 -41 -21z" />
    <glyph glyph-name="macron" unicode="&#xaf;" horiz-adv-x="238" 
d="M31 767h147v-34h-147v34z" />
    <glyph glyph-name="macron" unicode="&#x2c9;" horiz-adv-x="238" 
d="M31 767h147v-34h-147v34z" />
    <glyph glyph-name="cedilla" unicode="&#xb8;" horiz-adv-x="567" 
d="M238 -184q-15 0 -33 10q-21 11 -26 27q-1 2 15 16q21 -28 46 -28q19 0 35 13.5t16 32.5q0 22 -15 36t-36 15q4 18 11 54l21 -4q-6 -23 -6 -34q0 2 15 -7q5 -3 15 -12q22 -19 20 -52q-1 -25 -26 -46t-52 -21z" />
    <glyph glyph-name="notequal" unicode="&#x2260;" horiz-adv-x="20" 
 />
    <glyph glyph-name="infinity" unicode="&#x221e;" horiz-adv-x="17" 
 />
    <glyph glyph-name="lessequal" unicode="&#x2264;" horiz-adv-x="14" 
 />
    <glyph glyph-name="greaterequal" unicode="&#x2265;" horiz-adv-x="14" 
 />
    <glyph glyph-name="partialdiff" unicode="&#x2202;" horiz-adv-x="417" 
d="M61 153h117v-53h-117v53zM-42 200l42 36v440l138 -1v-320l91 79v-32l-91 -77v-145h-103l1 -107h103l2 -53h194v-21h-335v208l-42 -36v29z" />
    <glyph glyph-name="summation" unicode="&#x2211;" horiz-adv-x="560" 
d="M108 590q1 2 126 0q-1 -10 -3 -22q-4 -4 3 -23q-5 2 -130 -1q-3 32 4 46zM330 639l11 -15l-15 -9q-40 60 -105 60q-61 0 -101 -30q-44 -33 -44 -91q0 -21 9 -44h159q66 -64 133 -128q71 -77 71 -162q0 -93 -68.5 -159t-161.5 -66t-156.5 66t-63.5 159h18
q0 -86 58.5 -146.5t143.5 -60.5q69 0 127 42.5t77 108.5l-295 270q-39 36 -49 51q-19 27 -19 68q0 59 43.5 99t103.5 40q44 0 68.5 -10t55.5 -43zM79 782l7 17l122 -37l119 37l8 -14l-123 -63z" />
    <glyph glyph-name="product" unicode="&#x220f;" horiz-adv-x="560" 
d="M108 590q1 2 126 0q-1 -10 -3 -22q-4 -4 3 -23q-5 2 -130 -1q-3 32 4 46zM330 639l11 -15l-15 -9q-40 60 -105 60q-61 0 -101 -30q-44 -33 -44 -91q0 -21 9 -44h159q66 -64 133 -128q71 -77 71 -162q0 -93 -68.5 -159t-161.5 -66t-156.5 66t-63.5 159h18
q0 -86 58.5 -146.5t143.5 -60.5q69 0 127 42.5t77 108.5l-295 270q-39 36 -49 51q-19 27 -19 68q0 59 43.5 99t103.5 40q44 0 68.5 -10t55.5 -43zM79 782l7 17l122 -37l119 37l8 -14l-123 -63z" />
    <glyph glyph-name="pi" unicode="&#x3c0;" horiz-adv-x="746" 
d="M287 524l-30 52l-119 1l36 -54zM632 674l-229 -339v-336q0 2 -136 0v293l-267 380h165l46 -67h-127l74 -109l132 -1l99 -137l212 316h31zM413 805l-159 -81l9 -20q177 41 177 44t-27 57z" />
    <glyph glyph-name="integral" unicode="&#x222b;" horiz-adv-x="746" 
d="M287 524l-30 52l-119 1l36 -54zM632 674l-229 -339v-336q0 2 -136 0v293l-267 380h165l46 -67h-127l74 -109l132 -1l99 -137l212 316h31zM413 805l-159 -81l9 -20q177 41 177 44t-27 57z" />
    <glyph glyph-name="Omega" unicode="&#x3a9;" horiz-adv-x="617" 
d="M-3 435h64q24 114 98 188t168 74q101 0 180 -85l-15 -14q-73 79 -165 79q-65 0 -125 -46l-1 -196h183v-25h-183v-55h183v-25h-183l1 -286q59 -44 125 -44q107 0 179 99l17 -13q-77 -105 -196 -105q-113 0 -193.5 102.5t-83.5 246.5h-53v25h54q1 28 5 55h-59v25z" />
    <glyph glyph-name="Omega" unicode="&#x2126;" horiz-adv-x="617" 
d="M-3 435h64q24 114 98 188t168 74q101 0 180 -85l-15 -14q-73 79 -165 79q-65 0 -125 -46l-1 -196h183v-25h-183v-55h183v-25h-183l1 -286q59 -44 125 -44q107 0 179 99l17 -13q-77 -105 -196 -105q-113 0 -193.5 102.5t-83.5 246.5h-53v25h54q1 28 5 55h-59v25z" />
    <glyph glyph-name="radical" unicode="&#x221a;" horiz-adv-x="21" 
 />
    <glyph glyph-name="approxequal" unicode="&#x2248;" horiz-adv-x="21" 
 />
    <glyph glyph-name="approxequal" unicode="&#x22f2;" horiz-adv-x="21" 
 />
    <glyph glyph-name="Delta" unicode="&#x394;" horiz-adv-x="21" 
 />
    <glyph glyph-name="Delta" unicode="&#x2206;" horiz-adv-x="21" 
 />
    <glyph glyph-name="fraction" unicode="&#x2044;" horiz-adv-x="17" 
 />
    <glyph glyph-name="fi" unicode="&#xf001;" horiz-adv-x="20" 
 />
    <glyph glyph-name="fl" unicode="&#xf002;" horiz-adv-x="20" 
 />
    <glyph glyph-name="apple" unicode="&#xf000;" horiz-adv-x="14" 
 />
    <glyph glyph-name="dotlessi" unicode="&#x131;" horiz-adv-x="225" 
d="M-1 672l2 -671l127 1v671z" />
    <glyph glyph-name="breve" unicode="&#x2d8;" horiz-adv-x="269" 
d="M199 770q0 -27 -26 -43.5t-59 -16.5q-32 0 -58 16.5t-26 43.5h30q0 -23 53 -23q56 0 56 23h30z" />
    <glyph glyph-name="dotaccent" unicode="&#x2d9;" horiz-adv-x="134" 
d="M28 739q0 13 11 22t26 9t26 -9t11 -22t-11 -22t-26 -9t-26 9t-11 22z" />
    <glyph glyph-name="ring" unicode="&#x2da;" 
d="M315 827q23 0 39.5 -16t16.5 -40q0 -23 -16.5 -39.5t-39.5 -16.5t-39.5 16.5t-16.5 39.5q0 24 16.5 40t39.5 16zM315 807q-15 0 -25.5 -10.5t-10.5 -25.5t10.5 -25.5t25.5 -10.5t25.5 10.5t10.5 25.5t-10.5 25.5t-25.5 10.5z" />
    <glyph glyph-name="hungarumlaut" unicode="&#x2dd;" horiz-adv-x="251" 
d="M58 721h20q1 0 77 89h-56zM130 721h20q1 0 77 89h-56z" />
    <glyph glyph-name="ogonek" unicode="&#x2db;" horiz-adv-x="267" 
d="M108 -185q-36 0 -64 35t-28 75q0 39 26.5 73t60.5 37v-29q-19 -4 -34 -22q-18 -22 -18 -55q0 -36 19 -60q16 -19 33 -19q1 0 11 -1q32 -4 43 15l27 -10q-19 -39 -76 -39z" />
    <glyph glyph-name="caron" unicode="&#x2c7;" horiz-adv-x="560" 
d="M79 782l7 17l122 -37l119 37l8 -14l-123 -63z" />
    </font>
</defs>
</svg>
