<svg xmlns="http://www.w3.org/2000/svg" xmlns:xlink="http://www.w3.org/1999/xlink" width="256" height="64" version="1.1" viewBox="0 0 256 64">
    <defs>
        <linearGradient id="logo" x1="0" x2="1" y1="1" y2="0">
            <stop offset="0%" stop-color="red"/>
            <stop offset="50%" stop-color="darkred"/>
            <stop offset="100%" stop-color="red"/>
        </linearGradient>
    </defs>
    <symbol id="与时俱进" viewBox="0 0 8192 2048">
        <path d="M743 1106l886 130l2 -53l-899 -136l-74 -355q681 139 895 130q87 -5 135.5 -35.5t69 -84t11.5 -147.5q-16 -147 -55 -277t-69 -197t-68.5 -134t-95.5 -143t-74 -89t-32.5 -3.5t-14.5 24.5q0 9 28.5 38.5t81.5 108t99.5 171.5t81.5 216.5t41.5 187t-16 91t-102.5 30.5 q-121 4 -349.5 -30t-690.5 -143l224 1046l56 -6z
M257 109l1098 179q31 5 43.5 -8.5t3.5 -30t-16 -21t-68 -13.5l-1047 -167q-16 15 -16 19l2 42v0z
M2304 791l20 -798v-15q0 -21 -5.5 -30t-29 -8t-23.5 29l-5 423l-19 618l-10 217v23q1 34 28 34q11 -1 19.5 -10t10.5 -44z
M2768 951l47 -304q-47 -26 -79.5 -49.5t-76.5 -81.5t-66 -116t-34.5 -143.5t3 -150t60.5 -68.5q17 -2 82 32t104.5 157t53.5 209l41 254 q9 58 8.5 189.5t-10 193t-26 87.5t-34.5 36t-52 11q-76 2 -152.5 -26t-145 -74.5t-92 -66.5t-42.5 -17t-11 45q2 15 25.5 28.5t87 60.5t156 77t175.5 30q55 -1 105 -29t63.5 -127t13 -189.5t-5.5 -136.5l-38 -307q-6 -41 -38 -156.5t-82 -222t-180 -116.5 q-118 -10 -173.5 92.5t-58.5 234t78 299.5q40 84 97 160.5t89 99.5l108 85v0z
M3156 939l506 124l-122 387q-9 26 -7 39t25.5 14.5t32.5 -23.5l91 -289l32 -114l247 68l1 -256l-200 -55q3 -131 4 -231.5t-4 -219.5q-8 -160 -33 -279.5t-77 -202t-112 -121t-154 -38.5 q-175 -2 -236 100.5t-60 185.5q0 63 20.5 103.5t41 50.5t30.5 -15q3 -11 -18.5 -49.5t-18.5 -85.5q11 -227 229 -233q84 -3 150 35.5t116.5 186t58.5 270.5l14 228l-11 303l-560 -149z
M3633 410q-2 -2 -13 -6.5t-53.5 -7.5t-83.5 -17.5t-81 -44t-48.5 -33t-14.5 -2.5 q-16 0 -20 8.5t-4.5 16t19.5 25.5q40 35 83.5 64.5t124 40t91 -9t0.5 -34.5z
M4747 263l219 35l-56 1001q-2 18 17.5 19t28 -11.5t9.5 -23.5l26 -431l638 134l16 -17l-13 -34l-639 -136l6 -112l632 130q15 -19 14.5 -30t-24.5 -24l-124 -25l-494 -105l6 -115l615 128q60 12 56 -28q-2 -11 -8.5 -15.5t-34.5 -9.5l-624 -131l9 -155l694 111l2 3 q16 97 21 147l9 129q7 86 8 97l-6 133q-3 170 -31.5 205t-83.5 37q-59 1 -194.5 -40t-266.5 -127l-111 -71l-7 270q82 52 209.5 124.5t306.5 71.5q157 -2 202.5 -88.5t43.5 -277.5l2 -202q-2 -115 -23 -282l-15 -118l221 36l-27 -237l-1247 -204z
M5330 -125l233 162 q63 44 103.5 58.5t54.5 15.5q20 0 49 -15.5t38.5 -33.5t14 -57t-47.5 -130q-22 -38 -43 -37q-12 0 -18.5 7.5t-7 14.5t3.5 15l51 82q12 24 10 75t-61 27.5t-95 -48.5l-186 -131q-172 -122 -226 -139t-82 -16q-62 0 -90 40t-33.5 111.5t9.5 86.5q12 12 15 8l18 -20 q2 -41 3 -80t18.5 -68.5t67.5 -31.5t201 104z
M4504 940l-227 -351l-42 33l502 777l50 78q21 24 39.5 17.5t16.5 -18.5t-8 -21l-275 -419v-475l8 -787q0 -48 -5 -55.5t-21 -8.5t-22 9.5t-6 68.5z
M6895 617l31 185l282 32l50 255l-270 -24v37l273 27l72 346h61l-68 -339l312 27l-35 306l54 3l40 -304l254 22v-34l-254 -25l27 -249l290 33l-23 -194l-249 -18l59 -535l-55 -5l-60 532l-453 -41l-86 -464l-60 3l86 456z
M7271 840l396 37l-24 247l-323 -28z
M6572 197 l1443 -211h19l-58 -249l-920 136l-626 97l135 353l146 388q49 132 44 164.5t-33.5 48.5t-56.5 17q-24 0 -55 -8.5t-117 -58.5t-120 -90.5t-48.5 -16.5t6.5 54q27 36 136.5 104t204.5 66q56 -2 85.5 -22t42 -39t13 -61.5t-15.5 -86.5l-155 -417z
M6527 1482l208 -291l35 -43 q7 -12 5.5 -26t-25.5 -14q-18 -1 -31 18l-233 325q-4 4 -6.5 11t-1.5 21t17.5 16t31.5 -17z" transform="matrix(1 0 0 -1 0 1638)"/>
    </symbol>
    <use width="256" height="64" x="0" y="0" xlink:href="#与时俱进" fill="url(#logo)"/>
</svg>
