<svg xmlns="http://www.w3.org/2000/svg" xmlns:xlink="http://www.w3.org/1999/xlink" width="256" height="64">
    <defs>
        <linearGradient id="logo" x2="1" y1="1">
            <stop offset="0%" stop-color="tan"/>
            <stop offset="50%" stop-color="sienna"/>
            <stop offset="100%" stop-color="sandybrown"/>
        </linearGradient>
    </defs>
    <symbol id="曰若稽古" viewBox="0 0 4096 1024">
        <path d="M88 388q0-36-5-90T67 172 49 46t-9-90q0-10 4-27t18-37 30-29 28-11q46-2 115-2t160 2 158 2 111-2q24 4 59 2t81-2 81 14 59 34q2 4 5 11t6 18 4 20 1 15q-10 54-24 135t-21 189 1 189 20 135q-2 14 3 35t12 49 2 49-17 35q-4 0-10-1t-13-4-11-6-6-5q-6-24-13-61t-14-87-12-87-9-61q-34-2-84-3t-116-1-116-1-84-3q-4 4-10 8t-13 8-11 8-6 8v264q-2 2-4 5t-4 7-4 7-4 5h-10l-13-2-11-6-6-8-8-8V548q-4-16 1-43t30-56 52-38 45-7h368l16-216H136q2 16 5 39t6 53 4 53 1 39q-2 32-6 81t-14 116-22 118-22 85l-8 8H70l-13-3-11-9-6-12v-24q6-28 12-71t12-101 12-101 12-71zm16-456q-6 16-6 40t9 56 15 56 6 40q62 2 155 4t217 2 217-2 155-4q2-12 4-31t6-45 10-45 12-31v-24q-4-2-8-6t-8-10-8-10-8-6q-62-2-155-3t-217-1-217-1-155-3l-5 5-7 7-7 7-5 5z" transform="matrix(1 0 0 -1 0 820)"/>
        <path d="M40 340v-24l16-16 8-8q44 2 109 3t151 1 151 1 109 3q26 2 66-3t94-5 94 19 66 45h-1l-3-1-3-3-1-4q-10-20-23-50t-25-70-17-70-7-50q4-20 9-52t18-75 32-73 37-48h6l10 1 10 3 6 4 8 8v24l-1 1-3 3-4 4q-14 20-30 50t-25 70-7 70 6 50q-2 22 9 55t30 76 20 74-11 51q4 8 8 20t5 28-1 28-4 20q-8 22-27 43t-52 30-58 8-39-1l8 32h96q14 8 33 24t34 42 16 46-3 32l-16 16q-4 2-9 4t-11 2-11-2-9-4l-8-16 8-24-8-32q-8-12-22-20t-35-8h-37l-26-4q-2 10-1 25t2 34-4 32-13 21h-9l-11-2-11-6-9-8q-2-8-3-20t0-28 2-28 1-20q-10 2-24 3t-31 1-29 1-20 3q-8 6-15 16t-9 24-1 24 1 16q-4 8-12 16t-19 8-17-8-8-16v-48q2-24 18-49t53-38 67-12 46 3v-32q-38 0-94-1t-129-2-127 0-90 3v32h21l31 1 31 3 21 4q18 4 38 17t32 39 12 47-2 33q-2 2-5 6t-7 9-7 7-5 2l-24-8-8-16v-26l-1-15-3-17-4-14q-2 0-5-1t-7-4-7-6l-5-5h-96q0 10 1 24t1 31-3 29-7 20l-8 8h-10l-13-3-11-9-6-12v-88q-10 2-25 1t-35-1-35 7-25 17q-2 8-2 23t-3 33-13 25-22 7q-2-2-5-4t-7-5-7-7-5-8v-64q6-24 24-46t53-30 63-6 44 2l-8-40q-14 2-35 4t-49 1-49-5-35-8l-8-8v-16q8-10 23-17t38-7 40 1 27-1h224q30 0 74 1t102 3 102 3 74 1q12-2 33 0t49 1 45-13 25-28v-24q-6 0-15 1t-20 3-18 3-11 1H192q-12-2-32 0t-47 3-45-7-28-20q0-2 1-5t3-8 3-10 1-9h8q66-4 166-5t235 1 237 1 170-5q-4-4-10-11t-15-16-17-14-14-7H240q-16-2-41-1t-59 2-59-4-41-13zM88 76q-8-10-19-26T49 12 39-26t1-26l10-25 18-31 26-23 26-9q34-2 85-3t119 0 119 2 85 1q18 2 45 0t63-2 63 10 45 24q18 16 28 41t0 59-24 59-20 41q0 10 2 24t10 31 18 29 18 20v8q-2 4-5 9t-7 9-7 5-5 1q-6 0-16-4t-22-15-18-21-8-16H128l-24 40-32 16-16-8-16-24q0-6 6-15t18-22 18-24 6-19V76zM656-84H128q-4 4-9 10t-10 13-8 11-5 6q4 14 13 34t20 45 14 43 1 30q44 2 110 3t154 1 154 1 110 3q-2-12 0-29t12-39 20-39 16-29q2-8-1-21t-16-26-26-16-21-1z" transform="matrix(1 0 0 -1 1024 820)"/>
        <path d="M56 612q2-8 0-20t-8-29-8-31 0-24v-16q4-20 19-41t46-33 56-13 39-1v-48q-16 2-43 1t-58-16-44-38-15-43q0-16 5-40t15-56 15-56 5-40-4-40-13-56-15-56-8-40l8-16q2-2 6-4t10-3 10-1h6l24 16q6 16 14 41t15 59 9 59 2 41q2 18-3 44t-17 59-17 57-3 40l5 5 7 7 7 7 5 5q6 2 15 3t21 0 21-2 15-1v-416q0-2 1-5t4-7 6-7l5-5 32 8 8 8q2 14 3 34t0 46-2 46-1 34v264q8 0 22 1t32-2 28-12 14-19q-4-20-13-49t-19-67-11-67 3-49l5-35 11-50 19-52 21-39h24q0 2 1 4t4 4l6 4 5 4v8q-6 18-14 44t-14 60-6 60 2 44q0 14 3 34t10 46 12 46 7 34q2 20-8 46t-41 46-59 22-44-2v48h19l25 2 25 6 19 8q24 12 43 35t19 60-9 66-13 47q-4 12 1 32t15 47 7 45-15 28q-4 0-9-1t-10-3-8-3-5-1q-8-10-17-24t-15-32-7-32-1-24v-29l4-39 12-39 16-29q0-4-1-10t-4-14-6-14l-5-10q-8-4-19-7t-24-3-22 1-15 1v232q-12 24-36 47t-62 31-66 3-44-9l-8-24 8-24 112-8 40-80-8-32 8-136q-4-2-10-2t-14 1-14-1-10-6q-4 2-9 4t-11 4-11 4-9 4q0 2-1 5t-3 7-3 7-1 5q2 16 7 39t7 52-5 50-17 35q-4 2-9 5t-10 5-8 1-5-3q-4-2-8-5t-7-7-5-7-4-5v-16l16-32zm408-120l-8-24h8v-64q0-4 1-9t5-10 9-8 9-5h6l10 2 10 6 6 8v128q2 4 6 10t11 13 13 11 10 6h336l8-16-8-16h-88q-18-2-56 0t-85-7-63-37-12-60q10-20 32-35t59-16 65 2 44 1q14 2 34 1t46-3 46 1 34 9l8 16q-2 2-4 5t-3 7-1 7v5l-16 8q-24-2-59-2t-81 2-81 2-59-2l-8 8v16l8 8h136q14 4 36 4t50 2 46 14 28 28q8 14 7 37t-22 45-44 25-37-3H744v72h152l8-24q2-2 5-4t7-4 7-4 5-4q4 2 9 5t10 7 8 7l5 5q-2 10-1 25t1 34-7 32-17 21h-9l-11-2-11-6-9-8v-24H744q-2 4-4 10t-5 13-7 11-8 6q-6 2-15 1t-18-9-12-17-3-15q-16 0-41 2t-59 3-59-3-41-10l-8-16v-5l2-8 6-10 8-9h200v-72h-88q-14 6-38 3t-51-26-37-48-10-41l8-8zm104-360q-22 0-49-13t-45-47-17-63 7-45v-16q8-34 34-62t76-34 88-2 58 2q20 2 56 0t82 7 70 37 32 60q4 16 3 48t-21 70-49 50-53 8H568zm-64 216h-10l-13-3-11-9-6-12v-72q4-18 18-39t43-35 53-15 38 1h296q4 0 11 1t16 5 14 9 7 9v16l-4 4-4 4-4 4-4 4q-32 4-80 7t-112 3-112-1-80-1q-4 2-9 5l-10 6-8 4-5 1v16q14 2 36 3t52 0 52-2 36-1h232q2 2 5 4t7 5 7 7 5 8q0 2-1 6t-3 10-3 10-1 6q-4 2-10 3t-14 0-14-2-10-1H520l-8 24-8 8zM648 20H520v16q2 4 5 9t7 10 7 8l5 5q28 4 69 7t94 3 92-1 65-1l32-24V20H648zM528-60v27-3q30 2 76 2t108-2 108-2 76 2l-8-40h-16q-12-4-31-7t-46-4-48-2-35-3H584q-4 0-12 1t-19 6-17 12-8 13z" transform="matrix(1 0 0 -1 2048 820)"/>
        <path d="M104 220q2-20-5-51T75 95 49 19t-9-55q0-16 9-39t34-44 48-26 37-3h568q12 2 30 2t43-1 45 1 34 6q12 6 28 18t29 33 15 39 0 30q-10 26-26 65t-28 91-8 91 14 65q0 12 5 29t16 39 18 39 9 29l-5 5-7 7-7 7-5 5h-16q-12-8-24-23t-20-38-12-40-8-27q-28-2-69-3t-95 0-95 2-69 1v181l1 31 3 31 4 21h408l16 24v24l-1 1-4 4-6 6-5 5q-34 2-85 2t-119-2-119-2-85 2v104l-16 24h-32l-5-5-6-7-4-7-1-5V652q-36-2-89-3t-122-1-120-1-85-3l-16-16v-24l24-16h408V316H144q-2 12-7 29t-15 38-19 36l-15 25H48l-8-16v-8q10-16 22-40t22-57 14-59 6-44zm0-256q8 26 21 64t24 87 10 85-7 60h696l-8-24q0-22 2-54t12-74 24-74 26-54q0-4-1-11t-6-18-12-20-13-15H136l-24 8q-2 4-5 9t-5 11-1 11 3 9z" transform="matrix(1 0 0 -1 3062 820)"/>
    </symbol>
    <use width="256" height="64" fill="url(#logo)" xlink:href="#曰若稽古"/>
</svg>
