<svg xmlns="http://www.w3.org/2000/svg" xmlns:xlink="http://www.w3.org/1999/xlink" width="1440" height="442" version="1.1" viewBox="0 0 1440 442">
    <defs>
        <linearGradient id="toTitle">
            <stop offset="0%" stop-color="midnightblue"/>
            <stop offset="0%" stop-color="gold">
                <animate attributeName="offset" dur="8s" repeatCount="indefinite" values="0;.25;.5;.75;1;.75;.5;.25;0;"/>
            </stop>
            <stop offset="100%" stop-color="midnightblue"/>
        </linearGradient>
        <radialGradient id="toIcon">
            <stop offset="0%" stop-color="white"/>
            <stop offset="66%" stop-color="blue"/>
            <stop offset="100%" stop-color="white" stop-opacity="0"/>
        </radialGradient>
    </defs>
    <symbol id="Icon" fill="none" stroke="white" stroke-width="30" viewBox="0 0 650 650">
        <rect width="650" height="650" x="0" y="0" fill="url(#toIcon)" stroke="none"/>
        <path d="M 620.45 325.00 L620.45 325.00 L620.38 322.05 L620.16 319.10 L619.79 316.15 L619.27 313.22 L618.61 310.31 L617.80 307.41 L616.85 304.54 L615.75 301.69 L614.50 298.87 L613.12 296.09 L611.59 293.35 L609.92 290.64 L608.12 287.99 L606.17 285.38 L604.09 282.82 L601.87 280.32 L599.53 277.88 L597.05 275.50 L594.44 273.18 L591.71 270.94 L588.85 268.76 L585.87 266.66 L582.77 264.64 L579.56 262.71 L576.23 260.85 L572.78 259.08 L569.23 257.41 L565.58 255.82 L561.82 254.33 L557.96 252.94 L554.00 251.64 L549.95 250.45 L545.81 249.37 L541.59 248.39 L537.28 247.51 L532.89 246.75 L528.42 246.10 L523.88 245.57 L519.27 245.14 L514.60 244.84 L509.86 244.65 L505.07 244.59 L500.22 244.64 L495.32 244.82 L490.37 245.12 L485.39 245.54 L480.36 246.08 L475.30 246.75 L470.21 247.55 L465.09 248.47 L459.95 249.51 L454.80 250.68 L449.62 251.98 L444.44 253.40 L439.25 254.95 L434.06 256.62 L428.87 258.42 L423.69 260.34 L418.52 262.38 L413.36 264.55 L408.22 266.84 L403.10 269.24 L398.01 271.77 L392.95 274.41 L387.92 277.17 L382.93 280.04 L377.98 283.03 L373.07 286.13 L368.21 289.33 L363.41 292.65 L358.66 296.07 L353.97 299.59 L349.34 303.21 L344.78 306.94 L340.29 310.75 L335.87 314.67 L331.53 318.67 L327.27 322.76 L323.09 326.93 L318.99 331.19 L314.98 335.53 L311.06 339.94 L307.24 344.42 L303.51 348.98 L299.88 353.60 L296.35 358.28 L292.92 363.03 L289.59 367.83 L286.38 372.68 L283.27 377.58 L280.28 382.53 L277.39 387.52 L274.63 392.54 L271.97 397.61 L269.44 402.70 L267.02 407.81 L264.73 412.95 L262.55 418.11 L260.50 423.28 L258.57 428.46 L256.76 433.65 L255.08 438.84 L253.52 444.03 L252.09 449.21 L250.78 454.38 L249.60 459.54 L248.55 464.68 L247.62 469.80 L246.81 474.90 L246.13 479.96 L245.58 484.99 L245.14 489.98 L244.84 494.93 L244.65 499.83 L244.59 504.68 L244.64 509.48 L244.82 514.22 L245.12 518.90 L245.53 523.51 L246.05 528.06 L246.70 532.53 L247.45 536.93 L248.31 541.25 L249.28 545.48 L250.36 549.63 L251.55 553.68 L252.83 557.65 L254.22 561.51 L255.70 565.28 L257.28 568.95 L258.95 572.50 L260.71 575.96 L262.56 579.29 L264.49 582.52 L266.50 585.63 L268.59 588.62 L270.76 591.48 L273.00 594.23 L275.31 596.84 L277.68 599.33 L280.12 601.69 L282.62 603.92 L285.17 606.01 L287.78 607.97 L290.43 609.78 L293.13 611.46 L295.87 613.00 L298.65 614.40 L301.46 615.65 L304.31 616.77 L307.18 617.73 L310.08 618.55 L312.99 619.23 L315.92 619.75 L318.86 620.14 L321.81 620.37 L324.76 620.45 L327.72 620.39 L330.67 620.18 L333.61 619.82 L336.54 619.32 L339.46 618.67 L342.36 617.87 L345.23 616.93 L348.08 615.84 L350.90 614.61 L353.69 613.23 L356.44 611.72 L359.14 610.06 L361.80 608.26 L364.42 606.33 L366.98 604.26 L369.48 602.06 L371.93 599.72 L374.32 597.25 L376.64 594.65 L378.89 591.93 L381.07 589.08 L383.17 586.11 L385.20 583.02 L387.14 579.82 L389.00 576.49 L390.78 573.06 L392.46 569.52 L394.06 565.87 L395.55 562.12 L396.96 558.27 L398.26 554.32 L399.46 550.28 L400.55 546.15 L401.54 541.93 L402.42 537.62 L403.19 533.24 L403.85 528.78 L404.40 524.24 L404.83 519.64 L405.14 514.97 L405.34 510.24 L405.41 505.45 L405.37 500.61 L405.20 495.71 L404.91 490.77 L404.50 485.79 L403.97 480.76 L403.31 475.70 L402.52 470.62 L401.61 465.50 L400.58 460.36 L399.41 455.21 L398.13 450.04 L396.71 444.85 L395.18 439.67 L393.51 434.48 L391.73 429.29 L389.82 424.10 L387.78 418.93 L385.63 413.77 L383.35 408.63 L380.95 403.51 L378.44 398.41 L375.80 393.35 L373.05 388.32 L370.19 383.32 L367.21 378.37 L364.12 373.46 L360.92 368.60 L357.62 363.79 L354.21 359.04 L350.69 354.34 L347.08 349.71 L343.36 345.14 L339.55 340.65 L335.65 336.22 L331.66 331.87 L327.57 327.60 L323.40 323.42 L319.15 319.31 L314.82 315.30 L310.42 311.37 L305.94 307.54 L301.39 303.80 L296.77 300.16 L292.09 296.62 L287.35 293.19 L282.56 289.86 L277.71 286.63 L272.81 283.52 L267.87 280.51 L262.88 277.62 L257.86 274.84 L252.80 272.18 L247.71 269.64 L242.60 267.21 L237.46 264.91 L232.30 262.72 L227.13 260.66 L221.95 258.72 L216.76 256.90 L211.57 255.21 L206.38 253.64 L201.20 252.20 L196.03 250.88 L190.87 249.69 L185.72 248.63 L180.60 247.68 L175.51 246.87 L170.44 246.18 L165.41 245.62 L160.42 245.17 L155.47 244.86 L150.56 244.66 L145.70 244.59 L140.90 244.64 L136.15 244.80 L131.47 245.09 L126.85 245.49 L122.30 246.01 L117.82 246.64 L113.42 247.38 L109.09 248.24 L104.85 249.20 L100.70 250.27 L96.64 251.45 L92.67 252.72 L88.79 254.10 L85.02 255.58 L81.34 257.15 L77.77 258.81 L74.32 260.56 L70.97 262.41 L67.73 264.33 L64.62 266.34 L61.62 268.42 L58.74 270.58 L55.99 272.82 L53.36 275.12 L50.86 277.49 L48.49 279.93 L46.25 282.42 L44.15 284.97 L42.19 287.57 L40.36 290.22 L38.67 292.91 L37.12 295.65 L35.71 298.43 L34.44 301.24 L33.32 304.08 L32.34 306.95 L31.51 309.84 L30.82 312.76 L30.28 315.69 L29.89 318.63 L29.64 321.58 L29.55 324.53 L29.60 327.48 L29.80 330.43 L30.14 333.38 L30.63 336.31 L31.27 339.23 L32.06 342.13 L32.99 345.01 L34.07 347.86 L35.29 350.68 L36.65 353.47 L38.16 356.22 L39.80 358.93 L41.59 361.59 L43.51 364.21 L45.57 366.78 L47.76 369.29 L50.09 371.74 L52.55 374.13 L55.14 376.45 L57.85 378.71 L60.69 380.90 L63.65 383.01 L66.73 385.04 L69.92 386.99 L73.24 388.86 L76.66 390.64 L80.19 392.33 L83.83 393.93 L87.58 395.44 L91.42 396.85 L95.36 398.16 L99.40 399.36 L103.52 400.47 L107.74 401.47 L112.03 402.36 L116.41 403.13 L120.86 403.80 L125.39 404.36 L129.99 404.80 L134.66 405.12 L139.38 405.32 L144.17 405.41 L149.01 405.38 L153.90 405.22 L158.84 404.94 L163.82 404.54 L168.84 404.01 L173.89 403.36 L178.98 402.59 L184.09 401.69 L189.23 400.66 L194.38 399.51 L199.55 398.23 L204.73 396.83 L209.92 395.30 L215.11 393.65 L220.30 391.87 L225.48 389.97 L230.66 387.95 L235.82 385.80 L240.96 383.54 L246.08 381.15 L251.18 378.64 L256.25 376.02 L261.28 373.28 L266.28 370.42 L271.24 367.45 L276.15 364.37 L281.02 361.18 L285.83 357.89 L290.59 354.48 L295.29 350.98 L299.92 347.37 L304.50 343.66 L309.00 339.86 L313.43 335.96 L317.78 331.98 L322.06 327.90 L326.25 323.74 L330.36 319.49 L334.39 315.17 L338.32 310.77 L342.16 306.30 L345.91 301.75 L349.55 297.14 L353.10 292.47 L356.54 287.73 L359.88 282.94 L363.12 278.09 L366.24 273.20 L369.25 268.26 L372.15 263.28 L374.94 258.26 L377.61 253.20 L380.17 248.12 L382.60 243.00 L384.92 237.87 L387.11 232.71 L389.18 227.55 L391.13 222.36 L392.96 217.18 L394.66 211.99 L396.24 206.80 L397.69 201.61 L399.02 196.44 L400.22 191.28 L401.29 186.13 L402.24 181.01 L403.07 175.91 L403.77 170.85 L404.34 165.81 L404.80 160.81 L405.12 155.86 L405.33 150.95 L405.41 146.09 L405.37 141.28 L405.22 136.53 L404.94 131.84 L404.55 127.22 L404.04 122.66 L403.41 118.17 L402.68 113.77 L401.83 109.44 L400.88 105.19 L399.82 101.03 L398.65 96.96 L397.38 92.98 L396.01 89.10 L394.54 85.31 L392.98 81.63 L391.32 78.05 L389.58 74.59 L387.74 71.23 L385.83 67.99 L383.83 64.86 L381.75 61.85 L379.59 58.96 L377.36 56.20 L375.06 53.56 L372.70 51.05 L370.27 48.68 L367.78 46.43 L365.24 44.31 L362.64 42.34 L359.99 40.50 L357.30 38.80 L354.57 37.23 L351.79 35.81 L348.99 34.54 L346.15 33.40 L343.28 32.41 L340.39 31.57 L337.48 30.87 L334.55 30.32 L331.61 29.92 L328.66 29.66 L325.71 29.55 L322.75 29.59 L319.80 29.77 L316.86 30.11 L313.92 30.59 L311.00 31.22 L308.10 31.99 L305.22 32.91 L302.37 33.98 L299.54 35.19 L296.75 36.54 L294.00 38.03 L291.29 39.67 L288.62 41.44 L286.00 43.35 L283.43 45.40 L280.91 47.58 L278.45 49.90 L276.06 52.35 L273.73 54.93 L271.47 57.63 L269.27 60.46 L267.16 63.41 L265.12 66.48 L263.16 69.67 L261.29 72.97 L259.50 76.38 L257.80 79.91 L256.19 83.54 L254.68 87.28 L253.26 91.11 L251.94 95.04 L250.73 99.07 L249.62 103.19 L248.61 107.40 L247.71 111.69 L246.92 116.06 L246.25 120.51 L245.68 125.03 L245.23 129.62 L244.90 134.28 L244.69 139.00 L244.59 143.78 L244.62 148.62 L244.76 153.51 L245.03 158.44 L245.42 163.42 L245.94 168.44 L246.58 173.49 L247.35 178.57 L248.24 183.68 L249.25 188.82 L250.39 193.97 L251.66 199.14 L253.05 204.32 L254.57 209.51 L256.21 214.70 L257.98 219.89 L259.87 225.07 L261.88 230.25 L264.02 235.41 L266.28 240.55 L268.66 245.68 L271.15 250.78 L273.77 255.85 L276.50 260.88 L279.35 265.89 L282.31 270.85 L285.38 275.76 L288.56 280.63 L291.85 285.45 L295.24 290.21 L298.74 294.91 L302.34 299.56 L306.04 304.13 L309.83 308.64 L313.72 313.08 L317.70 317.44 L321.77 321.72 L325.93 325.92 L330.16 330.04 L334.48 334.07 L338.88 338.01 L343.34 341.86 L347.88 345.61 L352.49 349.27 L357.16 352.82 L361.89 356.27 L366.68 359.62 L371.52 362.86 L376.41 366.00 L381.34 369.02 L386.32 371.93 L391.34 374.72 L396.39 377.40 L401.48 379.97 L406.59 382.41 L411.72 384.74 L416.87 386.94 L422.04 389.02 L427.22 390.98 L432.41 392.82 L437.60 394.53 L442.79 396.12 L447.97 397.58 L453.15 398.92 L458.31 400.13 L463.46 401.21 L468.58 402.17 L473.68 403.01 L478.75 403.72 L483.79 404.30 L488.79 404.76 L493.75 405.10 L498.66 405.32 L503.53 405.41 L508.34 405.38 L513.09 405.23 L517.79 404.97 L522.42 404.58 L526.98 404.08 L531.47 403.47 L535.89 402.74 L540.22 401.90 L544.48 400.96 L548.64 399.90 L552.72 398.75 L556.71 397.49 L560.60 396.12 L564.39 394.66 L568.08 393.11 L571.66 391.46 L575.14 389.72 L578.51 387.89 L581.76 385.98 L584.90 383.99 L587.91 381.91 L590.81 379.76 L593.58 377.54 L596.23 375.25 L598.75 372.89 L601.14 370.47 L603.40 367.98 L605.52 365.44 L607.51 362.85 L609.36 360.21 L611.07 357.52 L612.65 354.79 L614.08 352.02 L615.37 349.21 L616.51 346.37 L617.51 343.51 L618.37 340.62 L619.08 337.71 L619.64 334.78 L620.06 331.84 L620.33 328.89 L620.45 325.94 Z">
            <animateTransform attributeName="transform" begin="0s" dur="4s" from="0 325 325" repeatCount="indefinite" to="-360 325 325" type="rotate"/>
        </path>
    </symbol>
    <symbol id="囧斋" viewBox="0 0 256 400">
        <path fill="cyan" d="M47 177q32 -1 74 -1q44 0 80 2q27 -2 26 -22q-2 -5 -3 -10v-12v-117q0 -24 -24 -17q-21 2 -70 2q-50 0 -76 -2q-23 -6 -20 17q1 62 -2 144q-3 16 15 16z
M66 13l30 1q0 22 -1 34v23q-3 9 11 10q24 2 42 1q12 -3 12 -12q-2 -5 -3 -18q-1 -11 -2 -38h35q20 -2 21 20v56t-1 54q-2 21 -20 23q-66 3 -122 -3q-21 -3 -22 -21q-1 -30 -1 -61t1 -52q1 -18 20 -17z
M107 65v-34q1 -14 1 -17h36v27q1 16 1 24q-1 5 -7 6q-10 0 -15 -1h-11q-4 -2 -5 -5z
M164 126q11 -12 27 -35q2 -4 0 -6q-3 -1 -5 2q-26 22 -36 28q-9 5 0 12q7 7 14 -1z
M93 125q1 8 13 -1q6 -8 -2 -15q-3 -3 -7 -5q-16 -14 -32 -22q-3 -2 -5 -1q-1 2 2 5q23 19 31 39z
M114 -28 q-4 8 8 10q13 -1 10 -12q-3 -5 -3 -9q52 0 70 -1q4 -1 6 -3q1 -3 -2 -6q-6 -6 -15 -3q-6 1 -15 2l-18 2q-6 -13 -15 -27q55 -20 91 -24q6 -1 7 -3q0 -1 -4 -6q-10 -13 -22 -6q-34 16 -78 34q-51 -34 -107 -30q-9 1 -8 9q1 5 12 4q49 -6 89 18q1 0 1 1t-1 2q-27 8 -29 7q-6 -1 -7 1q-1 3 2 8q2 6 11 3q20 -9 32 -13q10 8 12 22q-17 0 -40 -1q-25 -2 -44 -4q-8 -1 -9 3t6 10t13 3q8 -3 41 -3q7 1 10 1q0 7 -4 11z
M78 -110q7 -2 31 -1q13 1 20 1h32q17 0 32 -1q7 -1 7 -7q-1 -5 -8 -4q-29 1 -56 2q-6 -7 -6 -16h14q23 0 31 -1q26 -4 19 -17q-3 -6 -1 -13v-10q1 -8 1 -16q-1 -6 -7 -7q-5 1 -5 8q-2 8 -1 27q-1 14 -9 18q-7 1 -11 2q-7 2 -7 -14q0 -5 -1 -14q-1 -10 0 -14q-1 -6 -6 -6t-4 6v34q0 9 -5 9h-5h-9q-5 0 -6 -6q-1 -2 -1 -36q-2 -4 -6 -6q-3 -1 -3 4q-2 20 -2 37q0 6 -5 5l-12 -2q-8 -3 -10 -13q-1 -11 -2 -28q-2 -9 -11 -8q-5 1 -3 9q7 23 4 39q-3 14 10 13q5 -2 14 -2t27 2q2 5 0 16q-39 1 -48 -3q-5 -4 -8 0q-4 4 1 8q6 7 15 5z"
transform="matrix(1 0 0 -1 0 204)"/>
    </symbol>
    <symbol id="希帕索斯永垂不朽" viewBox="150 -204 10000 1300">
        <path fill="url(#toTitle)" d="M398 518q36 4 66 27 6 6 12 10 16 1 36 2 1 1 6 0 28-13 62-22 24-7 41-24 31-31 62-28 27 1 38 28 6 15-6 36-10 16-51 35-37 18-56 41v6q18 7 47 28 22 15 37 40 13 19 10 46-1 16-12 25-25 18-44 11-28-13-41-34-15-25-44-52-6-4-11-9-7 1-17 0-18 0-47-3-10 4-21 12-25 21-42 42-19 22-40 31-21 7-39 1-13-4-22-18-6-13-3-28t23-36q24-25 48-35 16-4 29-15-1-13-2-32-15 0-29-13-15-13-33-16-28-1-49-7-19-3-33-10-19-10-31-10-12 1-25-10-10-7-10-17 1-13 22-24 27-13 63-3 7 3 25 0 19-3 42 10 19 13 39 15z
M135 416q-31 10-63-16-18-13-17-39 1-22 23-34 22-10 51-2 42 7 86 16 25 6 39 21 10 10 5 27-4 12-36 20-27 10-49 3-16-3-39 4z
M507 38q-1-6-2-15 0-7-2-16-1-7-1-13 0-7-2-12-1-6-3-13 0-7-4-16-4-25-3-49 4-24 17-40 13-12 26-13 15-1 28 9 10 10 17 31 4 24 3 53-3 10-4 18-1 6-1 11 0 4-3 11-1 4-1 9 0 4-2 10-1 7-1 13 3 34-10 63-13 28-24 29-9-1-20-20-4-9-3-19 0-16-5-31z
m188 410q-45 4-105-1-42-1-73-3l-15 10q-1 1-4 3 4 22-13 38-18 19-38 16-22-6-25-16-13-18-6-35 0-1 1-4-4-3-9-8-4-3-7-6-27-1-52-8-28-7-50-19-16-10-15-27 3-15 22-20 25-7 43-4 10 1 26 3 7-7 13-18-10-16-27-44-13-21-36-39-15-13-37-22t-41-27q-13-13-34-22-16-7-35-17-16-7-34-6-19-3-38 0-21 3-35-10-16-13-14-31 1-22 21-36 19-12 45-11 24-4 66 16 10 4 22 8 18 3 28 13 10 9 27 19 1 1 3 2-7-27-5-53 6-61 14-82 4-13 6-26-1-6 7-18 4-10 8-18 4-7 20-9 10 0 20 20 4 12 5 25 0 22 3 35 6 31 1 40-4 9-4 35 1 28 1 53-1 6-2 11 4 6 9 10 6 7 19 14 31 1 78 21 7 4 23 4 3-1 9-6 15-9 26-24 0-1 1-4 4-13 6-28 1-15 11-20 16-7 29 12 7 16 10 37 13 16 30 27 1 1 3 2 19 4 43 10 37 10 70-8 13-9 30-19 12-4 20-17 13-19 12-44-3-22 3-64 1-22-11-44-10-13-26-13-15-1-30 4-19 7-33 19-19 19-34 17-25-1-29-19-1-10 12-42 19-25 28-29 12-4 17-11-1-6 17-15 15-10 31-10 12 0 25-2 16 0 24 8 12 12 22 11 16 1 28 15 12 16 11 45-4 25 9 46 16 21 19 31 3 19 9 38 10 22 1 46-4 19-18 41-12 19-23 26-16 6-22 16-28 31-53 25-21-4-36 2-34 22-71 9-16-4-36-8-16 9-25 16-4 4-7 6 1 9 3 19 4 18 1 25-15 24-38 22-28-1-40-28-12-18-6-46l-2-2q-10-9-25-19-4 1-9 2-25 6-44 1-7-1-14-5 9 10 17 21 28 37 42 70 15 16 35 25 16 3 37 5 52 7 85 0 25-4 48-2 19 3 39-6 13-6 55-6 43-1 96-29 37-16 73-7 28 9 33 29 6 19-6 37-16 19-46 29-31 10-67 4-19-3-57 9-51 10-89 14z
m397-186q1-13-2-24-3-7-2-17t3-23q1-16-3-42-4-28-2-47 4-19 21-29 22-10 37-1 16 18 18 42 1 25-2 47-3 15-1 25 4 31 2 52-7 19-6 37t-9 40q-4 10-15 12-19-3-28-26-10-30-11-46z
m394 65q7 37 2 93-4 61-1 80 6 28-18 60-24 31-59 33-31-1-63-2-10 10-17 20-3 4-5 8 1 22 6 49 9 42 1 56-16 25-40 24-30-1-43-29-12-22-4-54 4-28 7-54-10-10-24-22-16-1-31-3-22 0-38-3-10 9-27 9-24-1-36-22-12-22-5-68 3-13 3-21-1-10 1-37 1-19 4-36 0-37 9-47 4-7 15-6 7-1 15 8 10 12 16 37 7 22 6 32 0 13 4 24 3 7 2 19-1 6 0 12 3 9 8 14 4 7 16 15 4 1 13 2 13 6 30 10 1-1 3-4 10-10 18-28v-7q-6-25-1-44 7-30 8-60 1-16 11-22 16-7 30 13 12 19 12 52 1 16 5 35 4 28 6 47 1 3 5 4 13 13 28 20 36-7 49-27 7-21 12-34 6-13 5-37-1-36-3-63 0-21-10-38-10-21-21-31-15-13-29-14-22 1-41 18-6 3-11 4-1 4-2 6-13 30-25 30-10-1-21-20-4-10-3-21-1-16-5-33-7-22-3-54 1-28-3-56-4-25-2-49 3-22-4-43-4-21-4-48 0-24-11-58-4-25-3-52 4-24 18-42 13-12 28-13t29 10q12 10 18 32 4 25 2 56-6 40-1 74-4 24 0 44 4 19-2 47-3 19 0 37 4 19 0 41v17l8-2q13-1 22-3 25-7 49 3 6 7 10 7 10 1 19 12 9 12 17 15 13 4 27 31 9 16 19 47z
m467-43q10 58 0 117-6 33-17 52-12 21-26 31-13 10-23 21-9 13-31 23t-61 9q-7 4-12 11-10 9-18 18 1 4 3 10 1 13 8 22 4 10 7 19 1 19 7 32 7 22 5 40-3 24-19 38-13 12-29 9-27-7-37-21-7-15-8-36 1-24-2-39-1-7-2-16 3-13 0-28-1-10 0-18 0-1 1-3-9-15-19-26-3-1-7-6-9 0-16-4-34-12-49-31-13-19-9-36 4-16 25-21 18-4 53 17 9 3 23 4 12 1 27-1 15-1 32-3 16-3 38-9 31-3 52-28 19-19 23-65 7-33 13-60 4-27-5-82-7-37 5-89 6-76-8-116-10-24-34-34-18-7-39-3-10 3-22 0-15-1-25 0-22 4-49-4-10-6-20-5-7 3-30-3-42-18-62-14-18 7-30 25-10 30-2 82 10 34 3 61-4 16 0 33 9 12 21 20 10 7 32 16 4 0 9-2 24-6 40-2 19 4 48 5 28 1 45 12 22 10 26 28 0 13-14 21-12 7-50 14-18 3-48 9-24 4-61-7-1 0-3-1-4 3-7 5l-20 12q1 10-3 23-4 24 3 37 9 16 8 46-1 28-12 43-12 13-30 11-16-1-30-33-10-31-13-73-4-52-2-79 4-76-7-112-12-28-7-59 7-40 1-81-4-31 13-67 16-28 39-48 22-19 37-19 12 4 28 2 12 0 26 8 7 4 18 5 10-3 18 1 7 4 25 5 15-1 33 4 24 4 61-4 48-12 78 0 22 4 47 15 34 28 37 53 4 19 13 32 10 16 9 42 6 43-4 75-10 19-6 41 6 16-4 49-13 43-8 80z
m393-306q-7-4-17-5-7 1-15-3-7-4-15-2-9 1-25-1-13-3-23-2-15 1-20-4-6-6-15-7-12-4-20-16-10-16-10-29-1-13 5-20 6-4 9-12 4-9 23-13 22-6 38 3 15 9 34 8 22 1 42 14 21 10 41 34 4 4 16 9 16 4 31 23 13 15 8 31-7 16-31 18-22-1-56-26z
m446-45q7-4 13-11 10-13 28-26 16-10 40-14 16-4 22-11 16-13 42-16 13-1 26 6 19 9 22 24 7 15 1 34-4 19-23 32-21 16-58 19-13 0-24 10-10 6-22 7-10-1-34 3-12 1-24 11-6 7-14 12-10 7-27 2-13-3-17-11-7-16-2-28 7-13 51-43z
m-620 742q-19-13-22-39-1-22 22-37 25-16 62-4 42 6 78 21 25 10 24 24 0 13-14 28-21 12-78 17-43 15-72-10z
m-27-401q-1-28 7-44 7-13 29-18 13-3 28 17 12 15 11 34 3 15 6 26 4 12 3 24 0 18 5 31 4 15 8 43 1 16 11 28 13 15 25 33 10 13 39 12 27-1 46 9 21 10 19 26-1 15-18 24-13 9-37 7-25-1-37-1h-21q-16 1-30-7-10-7-18-14-10-7-25-15-18-7-34-36-10-22-6-42 4-15 0-55-1-13-5-24-7-24-6-33 3-12 0-25z
m687 422q-55-12-115-4-28 4-71 3-4 3-7 5-4 4-9 8 0 3 1 5 1 4 1 7-1 3-1 6 1 12-2 18-4 6-7 15-1 7-16 17-13 7-27 7-13 0-28-17-19-22-17-39v-15q-4-4-11-10-6-4-14-10h-2q-67 0-99-17-24-15-24-30 0-13 16-22 24-12 82-19 21-1 44-3 9-7 16-16 1-4 2-11v-2q-6-7-11-14-9-7-30-17-27 1-52-2-51-13-50-42 0-19 23-27-12-9-30-27-33-31-34-42 1-7-7-17-6-7-2-40 1-10 12-19 9-7 9-14-1-12 9-15 9-3 13-9 7-9 30-8 7 0 17-7t14-14q-6-10-18-11-16 0-24-4-4-12-13-14-13 0-36-24-13-13-14-25-1-13-6-22-4-10 5-49 36-42 82-44 28-1 58-23 19-16 45-14 9-6 17-17l4-4q-12-27-10-50 7-25 5-57-1-16 4-35 4-13 20-19 22-7 26-1 4 4 10 7 4-1 12 16 4 40 8 56 4 19-4 82 0 4-1 9 6 10 22 23 19 9 38 24 28 28 63 45l14 8q4 0 13-1 1-7 10-19 12-16 28-21 16-6 31 4 13 10 17 27 4 19-7 40-4 10-15 20-10 7-22 25-9 13-27 28-10 7-18 10-10 1-18 9-10 9-21 7-6 0-11 3-13 7-25 3-7-4-19-2-4 1-9-6-4-7-6-15-1-10 5-17 9-10 29-14 4-1 7-4t8-4q4-1 9-4-1-3-1-7-1-4-4-12-30-34-72-50-37-13-62-5-13 7-38-1-13-4-29 7-10 10-39 11-22 1-41 14-6 13-5 25 1 7 12 11 7 4 13 14 3 7 13 10 25 4 40 21 9 12 24 8 16-4 28-1 12 4 23 0 4-1 14 3 6 1 13 0 10-3 21 5 15 9 32 36 6 9 19 15 19 10 51 7 10-1 25 14 10 10 9 24 0 16 8 22 6 4 0 25-9 31-37 44-10 4-15 9-7 7-17 5-7-3-15 0-15 4-23-4-13-13-6-22 15-18 13-26 0-10-12-16-6-4-16-14-12-15-26-18-6-1-12-9-10-13-24-9-13 4-34-5-25-12-44 11-4 1-18 0-13-1-20 4-4 4-11 6-6-1-15 5-7 4-8 21 16 28 26 32 7 1 17 14t21 18q9 1 16 13 3 7 17 17 10 6 17 3 6-1 15 2 9 4 17 0 10-7 20-2 6 4 16-2 12-4 31 4 4 1 7 7 10 1 20 1 25-1 78 14 19 7 41-5 24-12 51-14 21-1 33-13 18-15 30-41 13-31 7-80-1-13 2-23 1-4 0-11 0-16 18-38 10-13 23-13 19 1 30 12 13 16 14 42 1 42-5 59-3 12-3 29 0 12-20 62-13 34-57 64-34 22-70 23t-70-10q-16-4-34 5-19 10-58 14-28 4-45 3-4 3-7 5-15 9-25 19 0 1 1 2-1 6-1 10 16 15 37 25 54 10 98 9 58-1 93-7 49-13 78 2 28 13 29 40 0 28-32 41-30 9-79 2z
m425-650q-3-7-11-12-6-1-10-9-3-6-11-8-7-3-18-13-9-7-16-12-12-6-14-12-1-7-8-13-7-9-8-21-1-16 5-28 4-10 13-13 7-1 13-5 7-4 24 1 19 4 29 20 7 13 22 21 16 10 26 30 12 16 16 44 1 6 10 15 10 12 14 34 4 19-9 30-13 10-34-1-19-12-33-48z
m292-25q-9 19-12 26-3 10-24 35-9 16-37 26-22 12-32 4-10-7-13-29-1-15 4-24 4-9 12-23 1-10 5-16 6-6 11-16 7-16 26-29 13-10 32-5 24 7 23 16 1 7 5 13 4 1 0 22z
m9 627q10 52-1 74-10 18-33 17-22 0-34-20-10-22-5-64 1-4 2-10-4-6-11-13-3-1-5-5-18 1-32-1-33-3-58-6-25 3-40-2-9 6-14 10-3 3-5 4v4q-1 7 1 17 7 33-7 52-13 13-37 11-19-1-30-22-12-22-5-56 1-4 2-12-4-4-6-8-6-6-14-13-6 1-11 1-19 3-49-9-22-6-35-21-12-13-10-31 1-21 23-30 22-4 44 6 15 0 32 2l12 3q10-7 19-19l1-2q4-10 5-30 0-16-2-24-3-9 0-27 1-10-2-18-3-7 0-24 1-12-1-22-4-10 0-29 3-10 0-25-3-19-1-25 0-7-1-13-4-16-3-35-1-1-1-2-9-10-27-24-25-1-45-10-24-6-43-24-16-15-11-32 4-13 18-21 19-12 62-1 33 7 60 23 24 13 56 15 16 1 33 4 22 4 40 3 21-1 39 1 34 4 47 4 18-1 29-1 22 1 45-3 28-7 50 1 18 6 20 26 1 15-9 29-13 16-43 25h-1q-1 1-3 4-6 7-11 14 0 16-1 31-4 16-2 27 6 37 3 59-7 22-6 41 1 16-9 38-4 10-14 11-18-3-27-25-10-28-10-43 1-16-3-29-1-9-1-21 1-12 3-28 1-18-3-49-1-3-2-7-4-4-7-10-7-7-24-19-13 1-24-1-19-6-42-4-22 3-38 1-6 4-10 7-7 4-14 10-1 13-3 25-1 7 1 14v3q0-3 17-9 21-1 29-3 10-1 43 5 15-1 34 15 18 10 17 21 0 10-15 22-10 7-20 8-7 0-21 1-10 4-20 3-10-3-23-2-15 1-32-6-6-1-10-7 1 19 2 28-3 10 2 25 1 4 1 9 4-1 9-3 22-1 30-3 12-1 46 5 15-1 34 15 18 10 17 21 0 10-15 22-10 7-20 8-7 0-21 1-12 4-22 4-10-4-25-3t-32-6q-1 0-4-2-1 10 1 22 1 4 0 16-1 1-1 4 10 15 22 27 7 9 14 15 1 1 6 2 25 6 42 0 25-6 57 1 25-16 35-45-1 1-1 2t4-9q0-1 8-7 4-1 9-1 7-1 13 7 9 10 13 29 7 10 21 19 27-6 50 2 22 12 21 29 0 22-18 34-15 12-33 11h-10q-7 6-13 11-1 3-4 4 0 6 2 11z
m376-740q7 37-1 82-1 6 0 12 1 4-2 14l-2 20q3 19 1 30-3 9 0 20 1 7 0 21-1 9-1 18 0 7-3 15-1 7-1 19 1 4-1 13-1 7 1 18 1 9 0 27 0 22-4 32-3 9-2 17 1 9 0 15t0 14q3 16 0 27 4 7 11 14 9 10 33 23 25-4 30-2 13 1 21 1 13-1 28 18 13 16 11 26-4 24-16 32-22 13-59 12-22-1-30-6-10-6-34-7-28-1-41-7-7-4-26-4-12-1-24-5-13-4-26-7-10 4-26 10-18 6-38 14 0 6 1 11 0 10-4 38-1 12 14 40l2 8 8 8q13 12 51 26 3 1 8 3 7 4 14 5 13 1 25 8 16 6 26 6 10-1 25 6 9 3 17 2 10-1 27 4 22 10 40 33 15 18 15 43 0 16-9 25-22 19-40 16-28-9-42-28-9-10-24-20-13-7-27-11-10-1-19-8-16-10-23-10-4 0-8-4t-9-4q-7-1-14-3-4-1-9-3-19-7-28-5-7 1-15-2-13 7-32-1-15-7-31-45-16-34-12-71 1-34 16-56 10-15 13-42 3-46 1-62-3-16 0-39 1-12-3-25-1-6-2-20 6-24-5-46-18-40-20-80-1-12-8-23-4-19-16-43-4-4-6-15-1-15-20-34-10-16-18-25-7-10-10-23-3-15 1-28 4-15 17-25 16-10 30-8 16 3 35 18 13 13 19 30 4 24 22 61 4 13 4 21 1 13 6 25 6 10 5 20-1 7 2 17 1 7 3 18-1 13 6 29 6 19 6 34-1 7 1 14 10 19 5 44-1 13 4 26 7 13 4 47-1 4-2 7 9 10 20 20 7 7 27 15h1q9 1 18 0 10-6 20-16 13-12 24-30-1-9 2-23 1-9 0-20-1-7 1-17 1-15-1-28-4-10-1-17 1-4 0-10-1-7 2-18 3-9 3-25 0-13-3-20-1-7-1-22 1-9-2-15t-1-20q1-10-2-18-4-7-1-23 1-10-1-22-3-15-2-20 0-4-1-10-6-33 0-72 7-33 25-40 12-6 33 1 16 6 24 40z
m495 857q-37 12-61 0-24-16-29-37-4-18 7-41 12-18 32-25 16-3 35-1 13 1 23-6 7-3 20-1 10 3 22 3 10 1 17-2 25-9 47-9 19-1 32 4 10 3 25-2 19-7 39-4 16 4 42-1 25-4 49 2 22 9 34 27 9 19-1 36-10 13-28 13-21-1-37 7-16 4-40-1-15-3-28 2-13 6-40 6-34-3-58 9-22 12-40 7-22-6-62 14z
m-217-428q-10-10-19-15-9-6-11-24-1-25 12-37 13-10 33-9 18 1 38 20 54 37 89 36 22 4 44-11 15-7 20-24 7-15 3-33v-9q-1-13 1-23 4-13 15-12 15-1 29 9 13 12 17 23 4 13 12 22 10 18 11 30-1 15-6 21-4 6-7 14-3 10-25 30-16 16-39 24-21 13-84 6-54-4-76-12-36-12-57-26z
m137-232q-7-4-21-21-6-7-13-14-7-6-16-14-4-1-10-4-12-6-17-6-9-1-18-5-16-9-30-9-24 1-43-13-22-13-31-27-7-19 2-38 16-19 32-21 31-7 65 9 28 13 34 20 4 6 17 9 16 7 34 25 22 12 26 20 4 9 11 14 13 9 17 22 12 19 28 45 13 19 10 40-4 19-17 21-16 1-29-17-19-25-31-36z
m538 417q-4-16-15-33-9-15-23-26-10-7-16-19-13-19-19-22t-8-9q-3-7-9-10-7-4-14-10-6-4-9-8-15-16-26-19-12-3-21-17-7-10-4-20 6-13 28-16 30-4 61 18 3 1 11 4 9 1 15 11 6 7 14 13 13 7 23 21 13 15 25 20 10 4 22 20 7 9 17 12 10 4 27 19 16 22 24 52 6 24-6 49-7 16-21 21-31 10-47-4-24-22-29-47z
m-526-59q46 13 99 11 40-6 79-3h1q16-4 28-15 1-12 4-28 3-25 2-51-1-31 4-53 7-21 7-39-1-13 4-32 1-12-6-37-10-37-7-68 1-39-3-78-4-33 0-52t-1-55q-12-57-4-85 10-22 30-32 22-7 44 8 15 13 22 46 3 30-3 57-3 21-2 31 4 22-1 41-6 19-5 40t7 44q1 12 1 23 1 3 2 3 7 13 11 27 9-10 16-21 12-22 42-35 15-4 26-16 30-40 54-48 22-6 39-22 46-40 86-46 15 0 30-7 28-13 52-10 33 4 45 36 7 21 1 32-7 9-10 16-1 12-19 19-21 19-63 20-16 1-25 9-16 10-46 12-13 4-30 13-15 7-33 20-22 13-38 23-19 13-39 28-16 12-21 18-3 12-11 14-18 10-21 18-6 16-19 28-7 4-11 8-1 18-5 31t-12 31v34q-3 27 2 48 3 19 4 36 4 9 17 17 1 1 5 1 22 6 25 24 1 19-25 31-30 13-81 21-21 4-41 6-25 1-56 3-34 1-58-2-21-3-42-1-22 4-47 12-43 16-80 0-31-16-33-47-1-31 34-50 33-16 75-7z
m930-357q-28 9-60-15-16-13-16-38 1-21 22-32 21-10 48-2 40 7 83 15 24 6 36 20 10 10 5 26-4 12-34 19-25 10-47 3-15-3-37 4z
m572-151q-88 13-140 10-4 0-9-2-10 7-17 14-6 4-10 9 1 19 1 39-3 12-4 22 4 4 8 7 6 7 13 12 10 0 21-3 21-4 41-3 16 1 34-5 12-6 47-7 37-1 83-26 36-16 70-6 25 7 31 27 6 19-6 35-15 19-43 28-31 9-64 4-16-1-49 8-43 10-77 13-37 4-84 1-18 13-27 24l-7 7q0 1 1 1 1 13-2 28-1 19-1 36v14q9 10 19 19l3 3q12-1 46 6 21 6 40 4 12-9 20-23v-5q-3-13-1-20-1-16 0-29 3-13 13-18 13-4 21 6 10 18 13 33 0 4 4 10l3 9q0 1 2 6 13 10 28 18 6 0 19 1 10 3 31 0 36-10 74-7 31 1 53 20 13 10 13 26-1 16-24 31-22 13-49 11-19-3-44 2-27 4-48-2-3 3-5 4-3 3-6 5 4 15 6 29-1 19-10 30-6 7-26 12-12 1-31-8-19-13-27-39-3-9-3-20-3-1-3-3-10-7-25-17-31 9-83 5-7 7-13 12-12 13-19 24 4 16 5 36 0 16 5 37v1q9 10 20 18 1 3 4 4 4 1 10 3 37 7 60 0 16-4 25-1 4 1 13-3t29-1q9 1 24 0 37-10 78-7 34 3 55 22 13 12 14 27-1 16-26 32-24 15-51 12-21-3-47 1-40 4-73-14-10-7-50 2-25 10-72 6-4 3-6 5l-8 8q0 16 2 34 1 15 1 24 10 12 40 25 13 3 30 1 21-3 47 6 21 7 38 0 22-6 41 2 33 13 45 36 10 25-13 44-24 16-53 13-27-3-47-13-22-10-45-9-22 1-38-6-16-6-48-2-28 4-52-8-16-7-28-9-13-1-35 2-31 9-56 1-22-7-53 0-22 4-34 11-18 10-57 13-25 3-43-9-19-12-20-24 0-24 16-41 13-10 44-17 37-7 49-7 25-1 36 2 27 9 51 0 22-9 52-6h9q4-1 8-6 10-7 19-17-1-12 4-28 1-7 4-18-3-1-5-5l-8-6q-6 1-17-1-18-7-39-5-57-1-80-5-40-4-79 7-28 10-53 8-24-1-42-17-16-15-17-34 0-22 20-35 28-16 68-5 34-4 51 1 9 4 21 0 15-6 48-3 39 1 72 6 27 3 45 3 16-10 29-23-3-18 2-32 6-19 9-42-7-9-16-19-9-7-21-17-3 1-6 1-6 3-29-1-22-7-50-6-4 0-6-2-15 9-24 16 0 1 1 3 3 25-5 47-7 18-20 25-9 4-29 1-12-3-26-19-12-19-11-46 1-10 5-22l-10-10q-42 0-79 11-27 10-51 8-22-1-39-16-16-13-17-32 0-21 19-33 25-15 64-5 45-6 66 0 12 4 27 0 9-3 28-4 15-7 25-18 1-1 2-6 3-13 7-20 3-15 10-26 9-12 19-12 13 1 17 13 4 21 0 36-1 4 0 10 1 4 0 10l-1 1q4 7 10 13 18 3 37 5 46 6 71 3 4-1 10-2 7-6 13-13-3-13 1-31 1-19-1-40l-2-12q-4-6-9-12-7-10-18-20-40 1-79-7-28-7-48-18-16-10-14-26 3-15 20-19 24-6 42-4 30 4 68 4h4q4-3 12-8 7-4 14-12-1-1-1-5-6-27-4-54v-6q-13-10-35-26-9 0-18 1-25 7-49 0-28-4-54 2-25 6-63-9-22-6-37-21-13-13-11-33 1-22 24-31 25-6 47 6 19-1 41 1 22 3 53 17 25 10 66 8 31-7 68 1 34 4 54-3 40-10 84-1 58 7 113-10 34-12 61-1 22 12 22 30 0 24-18 36-16 13-35 12-16-1-38 1z
m448 733q-31 10-63-16-18-13-17-39 1-22 23-34 22-10 51-2 42 7 86 16 25 6 39 21 10 10 5 27-4 12-36 20-27 10-49 3-16-3-39 4z
m399-703q7 48 5 153 1 93-4 113-7 22-1 58 7 64-4 102-7 16-6 46 0 12-2 21l6 8q19 31 48 73 9 9 15 20 12 10 27 19 21 12 74 26 1 1 8 0 37-1 82-27 37-16 73-7 28 9 33 29 6 19-6 37-16 19-46 29-31 10-67 4-16-1-48 9-43 10-76 14-39 4-90 1-64-4-102-1-54 4-104-6-28-7-50-19-16-10-15-27 3-15 22-20 25-7 43-4 30 3 68 3h10q21-9 37-25 19-16 34-40-10-19-21-37-28-39-46-85-1-1-2-5-7-9-16-22-10-15-24-33-9-4-20-14-16-19-51-42-22-15-43-39-19-22-56-34-22-7-87-43-16-9-48-13-37-4-58-22-24-19-15-45 7-19 25-30 19-10 61-2 22 1 46 18 30 21 51 30 48 19 77 49 28 30 53 47 24 16 69 74 4 7 9 13 19 1 38 4 10 1 21 1-1-45-5-82-7-45 1-65 3-15 3-58-7-37-2-85 4-39-23-54-18-4-56 11-24 1-36-13-19-22-7-44 12-27 47-41 42-22 85-21 37 4 49 36 10 22 17 57z
m146 314q7-10 9-16 4-13 15-31 12-18 20-27 4-7 20-23 22-22 28-31 7-10 15-14 4-3 13-12 13-13 18-15 6-4 10-9 7-9 20-15 19-10 34-14 30-4 45 3 13 4 21 25 7 22-1 42-9 19-37 27-21 6-37 18-4 4-17 8-10 4-19 12-7 9-21 16-9 6-18 13-10 10-17 15-10 7-15 16-3 4-9 9-6 4-9 10-6 9-14 16-7 6-12 15-7 12-18 22-22 21-38 29-13 6-28 4-7-1-12-8-3-4-1-15 1-15 14-29 18-19 41-41z
m577 362q13-58 9-102-4-4-5-10-6-10-15-20-16 1-23-2-10-6-23-4-13 4-25 0-13-1-27 1-12 3-31-5-22-6-37-21-13-13-11-33 1-22 24-31 25-6 47 6h20q10 1 25 9 13 4 32 4 12-1 29 0 1 0 3-2 16-10 25-29 3-16 4-34 1-16 11-22 16-7 31 13 12 19 12 52v6q7 9 18 15 0 1 1 1 10-1 20-4 34-12 61-1 22 12 22 30 0 24-18 36-16 13-35 12h-36q-16 13-25 26l-1 1q6 16 0 39 0 30 5 74 7 40 0 54-16 25-40 24-30-1-43-29-12-22-4-54z
m85-692q-6 39-3 72-4 22-1 42 4 19-2 46-4 19-1 35 1 16 0 33 0 1 1 1 4 9 15 18 9-4 21-10 13-10 39-8 22-3 28 7 7 9 1 28-4 13-12 19-7 6-17 14-12 18-26 26-19 6-37 20-10 9-25 13-13 25-24 26-9-1-21-20-1-1-1-3-9-4-12-13-13-19-32-40-7-15-29-33-16-12-32-18-18-6-31-16-16-9-39-19-21-7-30-30-7-16-1-38 13-18 39-19 25-1 46 17 13 13 25 19 16 10 23 19 15 16 19 17 10 6 26 29 1 1 2 3 6-4 12-12 1-3 5-7 0-7-1-17-4-24-1-47 3-22-3-42-4-19-4-47 1-22-9-56-4-25-3-52 4-24 18-42 13-12 28-13t29 10q12 10 18 32 4 25 2 56z
m501 698q-64 10-104 9-31-1-55-3-34 4-49-2-16-7-35-5-19 6-36 1-21-3-40 2-19 4-47-6-22-6-37-21-13-13-11-33 1-22 24-31 25-6 47 6 13-1 30 0 13 1 33 10 15-7 29-22 1 0 2-2-1-10 0-23 1-16-2-40-7-34-4-52 1-27 0-49 1-10 8-24 7-9 14-23 4-10 15-18 13-7 33-3 16 3 23 19 7 12 18 19 13 12 11 25-1 10-17 10-22 1-29 12-7 10-5 29 7 18 6 29 0 13 5 22 7 12 9 23 1 15 4 25 4 9 6 20 7 13 29 25 24-4 50 2 43 4 83-9 34-12 61-1 22 12 22 30 0 24-18 36-16 13-35 12-16-1-38 1z
m-55-291q19-7 21-16-1-7 6-18 4-4 3-16-4-31 0-47 9-31 5-64-1-9 0-18 1-13-4-35-1-9-2-25 1-10-4-25-1-10-6-26-1-10-9-18-10-16-13-34 0-31-27-41-30-16-52-9-102 1-147 26-4 7-23 7-10 7-23 2-13-4-21-21-1-9-5-15-4-10 1-22 6-16 25-25 24-6 48-22 10-12 34-15 37 3 72-9 39-15 70-5 22 1 42 6 12-1 16 6 9 10 17 10 12 4 19 12 4 9 9 13 10 4 18 36 4 19 14 31 13 21 13 52-1 10 3 24 13 31 11 90-1 19 1 32 7 19 2 69-6 21-5 31 3 21-2 35-1 10-4 24 0 18-21 34-10 9-18 20-3 4-33 10-25 1-41-6-10-4-10-11-1-13 20-27z"
transform="matrix(1 0 0 -1 0 820)"/>
    </symbol>
    <symbol id="范狂夫" viewBox="0 0 512 1280">
        <path fill="darkblue" d="M105 198q1 13 2 20.5t4.5 11t19.5 3.5q12 -1 17.5 -5.5t10.5 -6.5l-3 -3l6 -3q-1 -4 -0.5 -8.5t1.5 -4.5l6 -6q-3 -8 -15 -8l1 -3q-19 -5 -38 1q-7 2 -8 11z
M111 108l44 7l-3 -7l8 -4l1 -13h3l-5 -3q2 -2 0 -3h-2h-2l1 -6l-36 -12q-2 2 -2 3l-5 1q-1 0 -3 8l-4 11z
M112 167q2 -1 4 -1l25 4h3q3 -1 7 -5q7 -2 12 -7l-1 -2l4 -6l1 -7l-12 -9v-2q-19 -5 -33 -1q-8 2 -9 5l-4 9q-3 3 -2 4z
M145 312l44 15q2 14 3.5 20t4.5 6q0 -1 2 -1l13 -24l12 5q7 2 28 -2l5 1l5 -3v1q2 4 4.5 17t9 12.5t12.5 -27.5q31 2 35 -4l17 -20l-3 -3q5 -3 6 -4 l-4 -14l3 -3l-13 1l2 -6q-13 -1 -22.5 1t-12.5 2q-7 -1 -9 -4v-23q-3 -15 -5 -5q-4 -6 -6.5 -6.5t-6.5 4t-4 6.5q-1 0 0 7t0 15q-2 5 -3.5 6t-7.5 2l-15 2l-17 -3h-4l-6 -2q-1 -7 -0.5 -13.5t-0.5 -6.5l-9 -8q-9 9 -9 12l-2 14q-15 -1 -24.5 -3t-13.5 -1.5t-8 5.5q-1 2 -3 5 t-1 4z
M193 230l6 1l63 6l63 -6q2 -1 8 -5.5t5 -4.5l-1 -1h3v-7q0 -4 -3 -8t-5 0l1 -2h-2l-1 -6q-9 2 -19 -6q-1 -13 -0.5 -20.5t0.5 -10.5q-1 -11 -3 -16t-15 -18t-29.5 -13.5t-32.5 16.5l-6 2l4 1l-6 5q3 -1 11.5 -0.5t26 -0.5t25 6.5t7.5 29.5v22q-8 3 -11 4l-27 -2h-16 l-17 -3q-15 -1 -19.5 -3.5t-4.5 -1.5l-4 5l-3 3v5l-3 5q-1 0 2 6.5t3 9.5v8v0z
M202 180v8q7 0 9 -1.5t5 -9t4 -9.5l2 -73l-4 -21q-1 -4 1 -8q5 -23 40 -49t78.5 -34.5t68.5 -7.5q23 0 37 8l19 13q12 7 13 8l10 14v-3l4 4l7 12q1 1 5 -3l-1 -5l-1 -2l1 -8l-7 -8l2 -5l-3 -5 l-9 -16l2 -1l-3 -2l-2 -9l-4 -4q-2 -4 -3 -4l-8 -4q-6 -9 -2 -9l-6 -1q-4 -3 -5 -4t-9 -2.5t-14 -4t-4 -1.5l2 2q-7 -1 -8 -3l-3 -4h-7q-3 -5 -3 -4l-4 -1v3l-6 -2l-8 4l-16 -3l-10 5l-5 -1l-2 3v2q9 1 8.5 2.5t-15.5 2.5v-5q-4 3 -10 4l-6 -1q-6 5 -14.5 7t-15.5 9l-6 3 l-46 44q-41 39 -44 46.5t-3 16.5q-1 6 0.5 22t1.5 28z
M12 -487 l39 16l2 -5l3 1q1 0 1 1l-3 2q3 4 4 5t28.5 14.5t41.5 41t17.5 35.5t5.5 18l2 43q1 12 1 13l-4 16q-10 -10 -14 -10l-20 2q-6 -1 -6 0l-2 7l-6 15q4 4 8 6l15 4l7 6l19 9l-1 31q-7 -1 -10 -9q-3 -1 -10 -5l-12 -4q-5 -4 -5 -3l-5 2l-10 -3q-1 0 -7 5l-11 6 q-2 0 -9 9.5t-7 13.5q-1 0 0 1l1 7l-2 8l4 11q2 9 3 10l5 1q1 8 8 13.5t8 5.5l3 -1q1 4 7 7.5t7 1.5v4q6 0 9 10l10 1q-1 15 -4 21l-13 12q-9 8 -8 16v6q20 -8 23 -11l19 -23q10 3 13 7l6 9l8 3l5 5q2 -3 4 -3l6 -1l10 -6l8 -2q0 -1 3 -6l8 -13l-1 -4q1 0 3.5 0.5t3.5 -7.5 l-1 -8q-1 -5 -1 -6l-6 -6l2 -2q-5 -8 -8 -5q-2 -7 -3 -9l-15 -16q-2 -4 -7 -4l3 -3l-2 -2q-2 -2 -1 -2v-2q-3 -2 -4 -2.5t-4 -9.5l-5 -11l1 -17l-2 -11q10 6 17.5 5.5t16.5 -10.5q0 -4 -0.5 -7.5t-5.5 -9.5h4q-24 -13 -27 -19t-3.5 -8t0.5 -3l1 -12l-3 -51q-2 -24 -5 -37 l-10 -28q-4 -12 -6.5 -17t-15.5 -20.5t-25.5 -21.5t-20.5 -9l-17 -3q-10 -4 -10 -3l-6 4q5 -5 -13 -5v3q-12 1 -17 -1t-10 3z
M204 -325 q0 10 4 12l5 1l4 6q1 1 6 1.5t11.5 5.5t13.5 2l2 2q5 -1 8 1l8 5h5l3 6l13 3l2 4l2 2l-2 7q-1 0 2.5 5t3.5 9l-1 8q-29 -4 -30 12v4 q-1 2 -0.5 3t0.5 2l-5 3l1 6q-3 2 -3 4l6 12q1 4 2 5h7l6 3l2 -1h6h12q-1 4 -1 6l1 17q-2 7 -12 5l-28 -4q-4 -2 -4.5 -2.5t-7.5 6.5l-4 3q-4 2 -4 10l-1 13q-2 7 -1.5 9t9.5 7q20 11 21 11l20 1l3 3l6 -3q0 -1 2 1t8 3h3l6 -2l3 1t22 -1h18l10 -2v-2q10 -2 14.5 -4.5 t12.5 -13.5t6 -14l-5 -10l-7 1l6 -11h-5l-1 -2l-13 1q-2 -1 -8 -3.5t-25 0.5l-1 2l-10 -3l-1 4q-5 2 -9 1t-4.5 -4t1.5 -8l3 -12q2 -2 4 -2l7 1l6 -5l7 -2l6 -6l6 -4l3 -8q-8 -3 -6 -4l3 -3q-7 -6 -5 -7l2 -4l-13 -4q1 -3 0.5 -5t-19.5 -4q-6 -16 -4 -18l5 -19l10 -2 q2 -3 7 -5q6 3 13 -1q2 0 4 1l14 -6l10 -3q1 2 1.5 1.5t5 -6t11.5 -2.5q4 -6 12 -7q0 -2 -0.5 -3.5t0.5 -1.5l6 -7l-3 -4l1 -11q-5 -1 -5 -2l-1 -5q-19 -14 -22 -15t-16 0t-18 2.5t-9 -0.5l-17 2l-51 -2l-37 -2q-15 1 -20 6l-8 11l-5 3v10l-2 6v0z
M103 -600v11l5 1q-4 2 -3.5 3.5t6 6.5t22.5 12.5t23 8.5l18 -1l5 2l-4 2q26 6 49 4l-1 31q-7 -1 -9 -1l-11 -3h-8l-14 -6q-1 1 -1 2l-7 -2q-1 -1 -5 1l-17 1l-8 12h-3q-2 7 -2.5 11t1.5 12.5t7 12.5t31 12l23 5l21 5l8 -1l3 41q10 -9 18 -20l2 3l2 -21l26 -1l33 -5 q26 -4 32 -7l16 -15l4 -4l-2 -4q7 -6 6 -7l-6 -6l1 -8v-3l-5 1l1 -1l-4 -3l-1 -13l-4 2l-67 14l-35 -2q-6 -16 -5 -19l3 -17q9 1 13 0.5t6.5 -1t3.5 -0.5l13 6q1 -1 5 -3.5t10 3.5l8 -1q3 0 5 1l31 -9l22 -3l2 -6q6 -2 9.5 -4.5t3.5 -3.5l-1 -2l7 -3l1 -5h-3l8 -10l-6 1 l3 -4l-3 -3l3 -2l-2 -7l1 -1h-5l2 -4l-6 -4v-4h-6l-62 14l-12 -1l-32 2l9 -13l56 -71q0 -1 25.5 -24t36.5 -31t43 -8q10 -1 17 2l21 9q7 0 9 2l2 3l6 3l8 5l-4 -5l10 5q-1 -4 -0.5 -7t0.5 -4q-1 -10 -14 -25l-3 -6l-9 -7l-3 -7l-10 -9l-3 -5l-16 -2l-12 -2q-2 0 -6.5 3 t-6.5 4h-8q-5 0 -14 10l-28 26l-33 39l-14 16l-33 43q-21 26 -21 27l-10 6l-7 10l-14 9l-10 -22l-31 -55q-3 -6 -16 -12t-29 -15q-12 2 -21 -3l-7 3h2l-9 6l-4 5h4q0 3 -4.5 8t-5 3.5t5.5 -0.5q2 0 6.5 -2t16.5 3l25 8q20 8 35 31t16 27l4 15q-6 1 -9 0.5t-9 -3.5l-6 2 q-1 -1 -5 -3l-20 -2l-6 -5l-4 2l-12 -8q-2 1 -2 2l-6 -2l-2 1l-8 -3q-1 0 -5 2.5t-9.5 4t-4.5 10.5q-4 -4 -5 1z"
transform="matrix(1 0 0 -1 0 409)"/>
    </symbol>
    <image width="1440" height="442" x="0" y="0" xlink:href="cover.png"/>
    <image width="314" height="130" x="40" y="240" xlink:href="avatar.png"/>
    <use width="800" height="100" x="10" y="10" xlink:href="#希帕索斯永垂不朽"/>
    <use width="64" height="160" x="1340" y="0" xlink:href="#范狂夫"/>
    <use width="65" height="65" x="1340" y="160" xlink:href="#Icon"/>
    <use width="64" height="100" x="1340" y="230" xlink:href="#囧斋"/>
</svg>
