<svg xmlns="http://www.w3.org/2000/svg" xmlns:xlink="http://www.w3.org/1999/xlink" width="256" height="64">
    <defs>
        <linearGradient id="logo" x2="1" y1="1">
            <stop offset="0%" stop-color="cyan"/>
            <stop offset="50%" stop-color="darkblue"/>
            <stop offset="100%" stop-color="cyan"/>
        </linearGradient>
    </defs>
    <symbol id="赛博朋克" viewBox="0 0 2048 512">
        <path d="M60 206l-27 51q-8 13-10 24.5T21 310q0 14 5.5 21t21.5 9q13 0 27.5-8T97 311t7.5-23.5T103 264l-6-34q-4-24-14-37t-23 13zM196 95q-5 12-8 16l-42 2q-18 3-17 20 0 4 1.5 7t45.5 8q-3 8-5 11l-52 1q-4 0-8.5 2.5t-9 9.5-5 19 14.5 17l47 4v17q1 7 17 17-40-4-47.5 4.5t-12 19.5-6.5 21 3.5 19.5T130 325t85 14q-14 9-16 14.5t-1 11.5q1 30 54 34 29 1 42.5-7t16.5-17q4-14-11-33l37 1 57-2q119-5 90-93-5-13-15.5-37t-23-26.5-16.5.5q-5 2-7.5 8t-4.5 29-10 28-22 6l-87 2-103-8q20-5 26.5-10.5t7.5-7.5l3-16h50q-1 8-.5 11.5t4 16.5 23 9 29-8 13.5-10.5 4-9.5l-1-6q43 2 49.5-10.5T410 193q-1-5-5-12t-15-9l-14-1-35-3-4-12q24 2 34-4.5t10.5-10.5-.5-7q-3-9-9-14t-50-6l-8-14 65 1q35 0 40-6.5t5.5-11 .5-7.5q-2-7-8-13.5T363 56l4-5 19-36q11-22 7-25t-15 6l-26 18-30 21q-6 6-5 10v8l-107-3q1-12 0-12l-21-22Q169 3 154.5-5.5t-20.5-13-11-4-6 1.5 9 19 42 50q-22 1-39.5.5t-24 3-9 8-3 11T101 84t42 9zm20 0l82 4-2 15-76-4zm15 59l58 2-2 9-55-2zM201 19q3 1 14-1.5T231.5 9t6-13-3.5-21q-10-32-18-31-4 0-8 9.5T202-30l-7 21q-5 11-3 18t9 10zm54-83l-16-14q-9-8-11.5-5.5T226-78q0 2 3 7t11 26 22.5 14.5 11.5-13T255-64zm-14 75q-2 11 15 17t39 6q15-1 24.5-7T331 16t2-10q-1-13-3.5-20.5t-12-24T302-54q-4 0-5.5 8.5T294-26t-3 14q-3 2-20 .5t-23.5 8T241 11zm25-77q-1 2 3 6t12 4q9-1 17-12t7-15-16 4q-1 0-11.5 4T266-66z" transform="matrix(1 0 0 -1 0 409)"/>
        <path d="M58 266l-13 70q-2 8-3 17.5t4 21.5q4 11 22 14t42-11q29-18 31-45l8-62q22-7 28.5-21.5t8-33.5-3.5-30-19-26l9-183 3-47q0-14-5.5-15t-7.5 7l-15 44-58 177q-30-1-40.5 7T30 173t-9.5 37 3 33.5T58 266zm214 74q0 12 .5 26t7 21.5T304 395q40-1 52-17.5t13-21.5l2-18 45-2q-17 12-20.5 19t-4 12 3.5 11q8 15 34 16 19 0 30.5-8t12-17.5-.5-10.5l-21-24q20-3 28.5-10.5t9-23.5-3.5-23q-11-20-40-25l-80-6-2-13q64 0 79-10.5t19.5-20 5-21.5-2.5-25q-2-7-8.5-30.5t-11-35.5T426 55t-18-23q-3-1-7.5 2t-4.5 9l-2 47q-2 30-11.5 44T350 150l-3-13q35-2 34.5-17.5t-10.5-22-31-5.5l-1-9q30 0 30.5-10.5T369 60q-2-5-4-6t-5-1l-29-6-5-16q-7-20-15-6l-2 7-4 16q-10-1-16-1.5t-9.5 1-7 4-5.5 6-1.5 9.5 5.5 10l17 3 13 2v9q-23-1-28 3.5t-7 8.5-2.5 12 2.5 16 30 6l-2 12q-15 1-23 5t-11.5 24.5T258 207t8 12l17 8q1 2-1 10t-3 9q-1 0-3.5-.5t-30 1.5-39 5.5T189 270t-6.5 28 10.5 27q6 8 14 9zm-19-217q-2-27-5-67t-10-33.5-9 14.5l-25 77-15 70q-1 0-.5 2.5t-1.5 15 5 23.5q5 8 16 8 21-1 33-20.5t12-39.5v-50zm85-111q-1 3-.5 13T355 35q11-1 16.5-6.5T377 21v-8q41-3 31-18t-35-16q-7-36-16-52.5T334-83q-3 1-8 6t-5 7q-2 4 3.5 11t6.5 2l6 38-60 1q-28 0-32 1.5t-5.5 4.5-2 6 2.5 6q5 9 14 10zm-49-75q-13 3-18.5 5.5T262-51t-3.5 7.5T261-35q6 12 20 13 12 0 16-8t-6-20-2-13z" transform="matrix(1 0 0 -1 512 409)"/>
        <path d="M337 188q15 7 23 9 14 2 33-11-3 17-7 25l-18 19q-4 4-8.5 13.5t-5 49T365 342q13 11 48 11 75-2 73-63-1-17-10-53l-15-59q-12-45-30.5-105T395-28.5 371.5-77 355-76q-2 1-7 9.5T344-55q0 7 5 8l7-1q4 0 8 11t7 26l21 142q-18-17-37-15.5T329 139L290-58q-5-26-10-25-9 0-9 23l-6 364q-1 3 .5 30.5t8 42T298 391q20-1 33.5-24t16.5-38.5 2.5-23.5-3.5-38zM321 54q-3 11 2 21t29 8q25-3 25-20-1-14-13-20.5T345 37q-21 0-24 17zm-69 95l-6-93q-6-79-14-102t-22-21q-6 0-10.5 4T187-50t-4.5 14 8.5 4l5-2q4-1 6 5t1 28l-11 129q-18-25-28-20l-27 7 23-185-1-11-10 1-80 208-40 111q-5 11-14 42.5T5.5 326t4.5 23q11 20 37 15 25-6 54-50-4 25 4 36t40 12.5 68.5-10.5 36.5-89l2-114zm-122 15q13 19 24 19.5t32-8.5q-3 33-10.5 39t-19.5 7.5-21 5.5-22 31zm20-110q-1 3 1.5 11.5T170 75q8 0 18.5-4.5T195 54q-5-13-18-14-18-3-22.5 4.5T150 54z" transform="matrix(1 0 0 -1 1024 409)"/>
        <path d="M239 210q-7 10-14 31l-105 3q-65 1-84 13t-19 29.5 3 23.5q7 12 28 14l80 7 70 2q-5 19-5.5 29.5T196 378q8 11 41 12 32 0 52-10.5t22.5-16T314 349l-1-12 73-3q68-3 81.5-9.5t17-12.5 4-35-68.5-32l-83-4-46 1q-9-18-18-33l44-2q49-3 65.5-12.5T399 166q-1-8-3.5-22t-4.5-20-17-34.5T344.5 51 313 40l-47-5q-5-1-52.5.5t-63.5 9T128 63l-24 37-12 21-16 47q-2 2-1.5 6t0 6 .5 3q0 29 26 30 9 0 30-8t33-38l17-46q6-18 15-27t34-8q56 0 69 7t13 25q-1 22-32 23-18 0-40.5-4t-33.5 4q-11 6-21.5 16.5t-15 17T164 192t27 14l47 4h1zM161-76l14 63q4 19 11.5 30.5T202 31q12 1 19-7.5T229.5 8t-3-21T210-41l-34-39q-15-18-15-3v7zM263 4q1 26 24 27 6 0 11.5-3.5T308 17l3-47q1-15 14-14 5 0 10 4l9 8q11 4 12-5t-3-16q-14-21-39-20-29 0-39.5 13T263-26.5 263 4z" transform="matrix(1 0 0 -1 1536 409)"/>
    </symbol>
    <use width="256" height="64" fill="url(#logo)" xlink:href="#赛博朋克"/>
</svg>
