<svg xmlns="http://www.w3.org/2000/svg" xmlns:xlink="http://www.w3.org/1999/xlink" version="1.1"
    width="250" height="45" viewBox="6 58 250 45">
    <style>
        symbol { fill: dimgray; }
    </style>
    <symbol id="囧" viewBox="0 -52 256 308">
        <g transform="matrix(1 0 0 -1 0 204)">
            <path d="M28 33q9 60 0 107q-2 19 22 17q0 -1 1 -1q6 -2 12 -1q30 2 59 2q29 -1 67 -3q3 0 12 2q2 0 3 1q23 4 23 -19q-4 -27 -2 -82q0 -8 1 -12q-5 -33 -35 -20q-9 5 -20 5h-42q-19 -1 -62 -2q-7 0 -10 -5q-24 -15 -29 11zM191 144q-56 4 -124 0q-13 -1 -13 -14v-28q29 16 40 31
q6 10 15 3q13 -12 -1 -22q-30 -19 -54 -24v-42q0 -11 10 -9q8 -1 16 1q-1 16 -2 31q-2 20 21 18q11 -3 26 -3q17 0 31 2q19 3 19 -17q-2 -16 -2 -32h9q16 -2 18 12v15q1 13 1 21q-35 11 -57 30q-12 11 -4 18q10 8 19 0q12 -18 42 -35v30q-2 11 -10 14zM99 40h27h28v25
q-1 8 -8 8h-40q-7 0 -7 -5v-28z"/>
        </g>
    </symbol>
    <symbol id="斋" viewBox="0 -52 256 308">
        <g transform="matrix(1 0 0 -1 0 204)">
            <path d="M67 145q7 -1 38 2q4 -2 5 12q0 11 17 7q9 -3 13 -13q1 -4 4 -4q20 0 32 -1q13 0 28 -1q10 -8 2 -12h-9q-18 1 -37 2q-5 -12 -18 -21q47 -13 106 -17q7 -1 0 -15q-10 -15 -26 -15q-11 0 -18 4q-16 10 -28 14q-2 -7 -10 -6h-26q-9 -5 0 -11q13 1 28 0h2q7 7 14 4
q10 -4 10 -15q0 -16 1 -31q0 -5 1 -7q-1 -10 -15 -12q-11 -1 -11 10v32q0 4 -4 4h-14q-5 -1 -4 -5q2 -13 2 -29q-1 -9 -11 -11q-9 0 -9 9v32q0 4 -4 4h-12q-5 0 -4 -6v-3q1 -12 2 -25q-4 -15 -18 -6q-5 13 0 35q2 5 -11 5q-7 0 -7 -6q5 -41 -20 -43q-17 0 -10 12
q19 10 11 42q-2 5 3 9q6 3 13 0q2 -2 7 -2t13 1q5 0 8 1q5 0 6 5q1 4 -3 5q-9 -1 -23 -4q-7 -2 -10 1t1 7q-6 -2 -20 -6q-5 -2 -8 -3q-28 -11 -35 2q-7 11 2 13q65 4 91 23q-11 6 -18 3q-6 -1 -9 2q-3 2 1 7q7 10 14 7q12 -6 28 -10q12 7 14 14q-72 -1 -90 -11q-6 -3 -7 2
q0 4 5 12q9 12 23 8q2 -2 4 -1zM158 93q-15 6 -30 14q-15 -8 -30 -14h60z"/>
        </g>
    </symbol>
    <symbol id="随" viewBox="0 -52 256 308">
        <g transform="matrix(1 0 0 -1 0 204)">
            <path d="M124 150q7 -2 21 -1q5 -2 10 10q6 13 18 9q9 -6 6 -15q-1 -3 -1 -4q1 -1 4 0h36q8 -6 -2 -12h-36q-8 0 -11 -3q-2 -1 -5 -4q-4 -4 -5 -4q-2 -2 -2 -3q1 -1 4 0q26 -1 31 2q20 6 18 -14q-6 -22 -2 -56q1 -7 -6 -12h40q5 0 6 -2t-1 -6q-18 -33 -52 -20q-26 7 -70 22
q-13 5 -18 7q-11 4 -38 -6q-8 -3 -11 0q-3 4 2 11q7 14 28 12q12 2 8 12q-7 5 -3 10q3 7 -2 12q-6 4 -14 0q2 -30 -33 -33q1 -13 1 -38q1 -9 -12 -11q-12 -3 -12 7q1 21 2 51q0 30 1 58q0 9 -4 7q-13 -4 -14 7q2 16 24 15q16 -3 35 0q23 2 17 -21q-5 -13 -16 -20q5 -7 9 -15
q11 11 29 5q11 -7 4 -20q-4 -4 1 -8q9 -7 -1 -20q9 -3 18 -4q14 14 12 51q0 4 -4 3q-16 -10 -24 0q-4 7 1 8q24 9 32 18q-16 0 -27 -2q-10 -1 -8 8q4 12 16 9zM109 123q-17 0 -23 4q-7 4 2 11q4 4 11 1q1 -2 10 -8q2 -1 3 -1q2 -3 2 -5q-2 -2 -5 -2zM44 135v-18q16 4 18 18
q-1 6 -9 5q-10 0 -9 -5zM156 108q-1 -3 4 -4h22q4 1 5 4q-1 5 -5 5h-22q-4 0 -4 -5zM52 77q14 11 4 26q-9 5 -12 -2v-22q-1 -4 1 -4q2 -1 7 2zM161 93q-5 0 -4 -4q-1 -5 4 -4h21q5 0 5 3q0 6 -5 5h-21zM158 71q-4 0 -5 -4q-3 -11 -7 -16q27 -6 44 -7q-5 2 -4 8v7q1 6 1 9
t-5 3h-24z"/>
        </g>
    </symbol>
    <symbol id="笔" viewBox="0 -52 256 308">
        <g transform="matrix(1 0 0 -1 0 204)">
            <path d="M8 135q0 2 3 3l1 1q43 5 62 23q8 9 14 9q6 -1 8 -4q1 -7 4 -8q14 -7 22 -10q3 -2 2 -4q10 0 24 20q7 11 25 -2q3 -4 9 -5q5 -3 26 -11q12 -5 15 -5q7 -8 -3 -11q-30 6 -40 11q-11 2 -10 -1q-1 -7 -2 -16q-2 -4 -8 -4q-8 0 -8 6v8q1 7 -14 0q-14 -7 -18 -6q-10 0 -10 4
t4 6q-5 3 -10 4q-7 -1 -8 -4q-1 -25 -12 -22q-4 0 -6 4q-1 13 -2 20q-1 1 -4 2q-19 -13 -34 -18q-29 -7 -30 10zM40 115q21 -2 34 -2h18q52 -1 88 13q7 1 10 -8q1 -8 -6 -9q-14 -4 -26 -4q-30 -2 -36 -4q-5 -4 0 -8l58 2q6 -1 6 -6q-2 -6 -8 -6l-58 -2q-5 -6 0 -12
q13 0 39 2q25 1 39 2q5 -1 6 -7q-1 -7 -6 -7l-36 -2q-21 -2 -42 -2q-3 -1 -2 -4q1 -9 28 -12q45 -6 66 2q16 5 37 21q2 1 2 0q1 0 1 -2q-6 -28 -23 -44q-8 -9 -20 -7q-57 5 -105 18q-15 3 -14 14v10q0 3 -2 3q-10 -1 -21 -1h-21q-20 -3 -27 -6q-11 -6 -15 -4q-4 1 -1 8
q8 12 17 14q7 0 24 1q17 0 25 1q14 0 21 4q4 6 0 10q-17 -1 -36 -4q-18 -5 -16 2q4 11 18 12q2 -3 7 -2h11q9 0 18 2q5 7 -2 10h-16q-16 0 -30 1q-2 0 -2 1h-3q-5 2 -5 4q0 7 6 8z"/>
        </g>
    </symbol>
    <use width="64" height="154" x="0" y="0" xlink:href="#囧" />
    <use width="64" height="154" x="64" y="0" xlink:href="#斋" />
    <use width="64" height="154" x="128" y="0" xlink:href="#随" />
    <use width="64" height="154" x="192" y="0" xlink:href="#笔" />
</svg>
