<svg xmlns="http://www.w3.org/2000/svg" xmlns:xlink="http://www.w3.org/1999/xlink" width="256" height="48" version="1.1" viewBox="0 3 256 48">
    <symbol id="a" viewBox="0 0 1024 256">
        <path d="M114 26q-1 6 -2 23q2 12 2 25q1 4 0 12q-1 5 -1 7t1 7q1 4 1 6q0 6 -5 6q-3 0 -8 -3q-3 -3 -5 -3q-6 -2 -12 -2q-11 1 -12 17q0 3 1 3q41 20 40 33q0 1 -1 2q0 7 12 8q1 0 2 -1h3q9 -8 7 -20q2 -3 11 -3q28 2 58 2q4 -1 11 -1q8 0 12 -1q1 -3 1 -4q-1 -11 -4 -11 q-14 -2 -39 -3q-20 0 -30 -1q-1 0 -7 -1q-7 -1 -8 -1q-1 -3 -3 -4l-1 -1v-10q-1 -9 16 -6q5 0 16 1q12 1 18 1h9h14q13 -1 20 -3q2 -3 2 -7q-1 -7 -13 -9q-16 -1 -47 -2q-15 -1 -23 -1h-3q-9 -1 -10 -6v-7v-1q1 -5 9 -6q38 3 69 2q2 0 6 -1h4q6 -1 11 5q0 1 1 1q3 0 4 -8 q0 -1 -1 -3t-1 -3q-1 0 -1 -2l-4 -7q0 -1 -3 -3l-1 -1l-11 -2q-5 0 -13 2q1 -1 -2 0q-13 1 -40 0h-18q-1 -1 -5 -1q-2 -1 -3 -1q-1 -2 -1 -5q0 -4 -1 -6q-7 -9 -17 -9q-4 1 -5 7z
M40 27q-5 0 -8 13q0 5 -1 6q-1 9 2 31q2 20 2 30q-1 9 -12 16q-10 9 -7 22q1 1 1 2l1 1l3 3 l1 1q17 1 25 1h3h4l3 -1h1q2 -1 3 -1t2 -1t6 -3q2 0 2 -1q3 -2 5 -5q0 -6 -8 -12q-1 -1 -1 -3q-3 0 -5 -2q-4 -3 -6 -15v-3q0 -10 1 -28q2 -21 1 -32q-1 -10 -3 -12q-7 -8 -15 -7z
M303 26q-2 1 -5 1q-8 1 -11 6q-5 5 -4 15v5q-1 3 1 11v4q7 17 16 19q2 0 5 -2q2 -2 3 -2h4q1 0 3 1h3q4 2 10 2h8q5 -1 8 -1q9 0 19 -4q11 -4 12 -22q1 -2 1 -5q-1 -10 -6 -19q1 0 1 -1q0 -2 -1 -3q-1 0 -2 -1q-13 -5 -22 -5q-2 0 -5 1h-3h-8q-5 -1 -8 -1l-5 1h-5h-9z
M393 40q-3 7 -3 26q1 4 4 7l1 1q2 0 2 1q1 1 2 3l2 2q1 0 2 1q7 3 13 3q1 0 3 1h2h13q19 2 28 0q2 0 5 -1q2 0 4 -1q13 -3 15 -10q3 -9 3 -15q0 -7 -3 -15q-1 -3 -4 -5q-2 0 -3 -1t-1 -3v-1q-2 -2 -4 -2q-1 0 -3 -1q-7 -4 -13 -5h-31q-16 1 -24 3v1q0 1 -5 6z
M328 47h4 q4 -1 6 -1q8 0 12 3q2 1 2 8q-5 9 -23 9q-16 0 -23 -8v-1q-1 -10 14 -11q2 0 4 1h4z
M426 67q-11 -1 -11 -10t6 -10q13 -4 36 -2q7 2 9 10v2q-1 7 -8 9q-5 2 -21 2h-2q-7 0 -9 -1z
M390 94q-6 0 -14 2q-15 3 -28 2q-3 0 -10 -1q-10 -1 -15 0h-10h-2q-2 -1 -3 -1h-1 q-9 0 -12 11q-1 4 -1 16v6q0 3 2 7q2 5 2 7q0 3 6 6h2q2 1 3 1h2t4 -3l1 -1q2 0 5 2l2 1q4 3 13 3h5q6 -1 20 -1h14q18 2 27 0q5 1 15 0h7h8q13 0 15 -2q1 -1 7 -1q10 0 14 -2q7 -11 8 -14q3 -9 2 -18q0 -7 -3 -11q-5 -6 -14 -6h-2q-3 -1 -5 1q-7 0 -10 -3h-3q-3 0 -7 1 t-6 1q-5 -1 -12 0h-7q-3 0 -9 -1q-6 -2 -10 -2z
M323 116q3 0 9 -1q7 0 10 -1h10q6 -1 9 -1q13 0 25 2h2h9q7 -1 11 -1q5 0 15 1h14h7t6 1q1 0 1 2t-1 3q-2 11 -12 12q-2 1 -7 1q-5 1 -7 1q-19 -1 -23 0h-1h-10q-9 -1 -11 -1t-7 1h-8q-18 0 -26 -1t-16 -5q0 -2 -1 -4 q-1 -1 -1 -3q0 -4 3 -6z
M574 25q-1 2 -2 7q-4 11 -2 21q1 5 1 10v3q0 5 -2 5q-1 0 -5 -1q-3 -2 -5 -2q-3 0 -8 -2q-6 -2 -9 -2q-5 -1 -12 7l-1 1q-3 2 -3 5q1 2 4 4l1 1q5 2 15 5q15 4 22 8q2 2 2 11q0 7 -13 7h-2q-2 1 -10 1q-10 4 -16 10q-1 8 4 10q1 0 3 1h3q1 0 3 1q12 6 18 4q10 0 11 5 q0 1 1 7q4 6 13 11q6 0 6 -5v-2q-1 -2 -1 -3q0 -5 2 -10q1 -2 13 -4q10 -1 11 -2q4 -1 5 -5v-1q0 -2 -2 -6q-1 -4 -2 -6q-12 -6 -20 -6q-8 -1 -8 -10q0 -1 1 -2q1 -2 1 -3q11 -11 17 -11h15v-2q-1 -1 -1 -2l1 -1v-2q-1 -13 -14 -15q-2 0 -7 2q-4 2 -7 2q-6 -1 -5 -4 q-2 -5 -2 -16q0 -10 -1 -15q-1 -6 -4 -8h-2q-1 0 -2 -1q-2 -2 -3 -2q-2 0 -2 2z
M652 31h-2q-3 -1 -4 -1q-5 3 -8 8q-8 4 -8 10q-1 9 0 27t0 26q1 5 1 13q0 9 1 13q0 3 4 11q1 1 1 2q3 3 8 7t7 6q1 1 2 1t3 -1t4 -1q27 4 55 2q3 0 8 -1q10 0 15 -2q3 -2 3 -5q6 -6 8 -21v-3 q2 -7 1 -21q0 -14 1 -20q2 -5 0 -15q-2 -9 -1 -13q0 -5 -4 -13l-1 -2q-3 -4 -7 -6q-9 -2 -27 -2h-16h-15q-15 -2 -23 0q-4 1 -5 1h-1z
M656 56q1 -1 1 -2q14 -5 29 -5q4 0 12 1t12 1h16q3 5 3 10q0 4 -9 4q-10 -2 -31 -1q-17 1 -26 0l-3 -1q-4 0 -4 -1v-6z
M656 83q5 -1 13 -1 q4 0 12 1q7 1 11 1h10q12 -2 18 0q1 0 6 1q3 5 1 10q1 0 1 2q0 3 -4 2q-32 0 -65 -4q-6 1 -5 -8q0 -5 2 -4z
M659 116q0 -1 4 -1q7 3 21 2q6 -1 9 -1h12q8 1 11 0q6 -1 9 3q1 2 0 6v3q-2 8 -14 7q-5 0 -10 -1h-6q-19 1 -28 -3q-1 -1 -2 -1l-1 -1q-3 -5 -5 -13z
M833 42q-1 13 10 13h12h5q7 1 8 1q12 3 12 9v2q-3 4 -13 4t-21 -1q-20 -2 -33 -2h-7q-10 1 -10 14q0 9 6 9h1l2 -1h5h13q33 -1 49 2q11 0 13 8v4t-1 4l-1 1q-4 1 -6 1h-1h-2q-10 -2 -29 -1h-9h-19q-13 -2 -18 5q-2 3 -2 6q1 3 3 4q16 2 20 2h11q8 -1 11 -1q4 0 13 1h13 q3 1 10 1q4 1 6 1h6q4 1 7 1q4 0 10 -1t9 -1h29q8 1 14 1h9q5 -1 8 -1h6q1 1 8 1q9 0 14 -6q-1 -8 -5 -10h-17q-7 0 -22 -1q-23 0 -35 -1q-11 0 -17 -4v-9q0 -2 2 -3h5l5 -1h16q34 0 52 1q8 0 14 -1q1 0 3 -1q6 -2 6 -7q1 -14 -19 -13q-31 0 -67 -1q-9 0 -13 -3l-1 -7 q-1 -11 -2 -13q-11 -25 -49 -25q-20 3 -27 19z
M944 24q-11 0 -18 10q0 1 -1 3q-2 3 -2 5v0q2 14 10 17q1 0 3 1l3 -3t3 -4q0 -3 7 -3q2 0 6 1h5h3q3 -1 3 -6v-1v-5t-1 -5q-1 -3 -4 -6l-2 -2q-3 -2 -13 -2h-2z
M849 135q-2 0 -6 -1h-4q-6 0 -11 2q-3 2 -5 5q0 3 5 6q2 1 3 2 q5 5 9 5h1h2l2 -1q1 0 5 1h5h2h2q1 0 6 -1l5 -1q6 1 11 -7q1 -2 2 -3v-1q-2 -5 -7 -5q0 -1 -5 0h-1q0 -2 -3 -2q-3 -1 -7 -1q-2 0 -5 1q-4 1 -6 1z
M933 137h-10q-9 -1 -11 7q0 1 3 4q6 3 12 5q2 0 11 1h7h2q2 0 6 -1h4t3 1h3q11 -2 10 -8q-1 -7 -11 -9q0 1 -2 1h-1l-16 -3 h-1q-5 0 -9 2z" transform="matrix(1 0 0 -1 0 204)"/>
    </symbol>
    <use width="256" height="64" x="0" y="0" xlink:href="#a"/>
</svg>
