<svg xmlns="http://www.w3.org/2000/svg" xmlns:xlink="http://www.w3.org/1999/xlink" width="120" height="130" viewBox="0 0 120 130">
    <symbol id="Icon" viewBox="0 0 650 650">
        <path d="M 620.45 325.00 L620.45 325.00 L620.38 322.05 L620.16 319.10 L619.79 316.15 L619.27 313.22 L618.61 310.31 L617.80 307.41 L616.85 304.54 L615.75 301.69 L614.50 298.87 L613.12 296.09 L611.59 293.35 L609.92 290.64 L608.12 287.99 L606.17 285.38 L604.09 282.82 L601.87 280.32 L599.53 277.88 L597.05 275.50 L594.44 273.18 L591.71 270.94 L588.85 268.76 L585.87 266.66 L582.77 264.64 L579.56 262.71 L576.23 260.85 L572.78 259.08 L569.23 257.41 L565.58 255.82 L561.82 254.33 L557.96 252.94 L554.00 251.64 L549.95 250.45 L545.81 249.37 L541.59 248.39 L537.28 247.51 L532.89 246.75 L528.42 246.10 L523.88 245.57 L519.27 245.14 L514.60 244.84 L509.86 244.65 L505.07 244.59 L500.22 244.64 L495.32 244.82 L490.37 245.12 L485.39 245.54 L480.36 246.08 L475.30 246.75 L470.21 247.55 L465.09 248.47 L459.95 249.51 L454.80 250.68 L449.62 251.98 L444.44 253.40 L439.25 254.95 L434.06 256.62 L428.87 258.42 L423.69 260.34 L418.52 262.38 L413.36 264.55 L408.22 266.84 L403.10 269.24 L398.01 271.77 L392.95 274.41 L387.92 277.17 L382.93 280.04 L377.98 283.03 L373.07 286.13 L368.21 289.33 L363.41 292.65 L358.66 296.07 L353.97 299.59 L349.34 303.21 L344.78 306.94 L340.29 310.75 L335.87 314.67 L331.53 318.67 L327.27 322.76 L323.09 326.93 L318.99 331.19 L314.98 335.53 L311.06 339.94 L307.24 344.42 L303.51 348.98 L299.88 353.60 L296.35 358.28 L292.92 363.03 L289.59 367.83 L286.38 372.68 L283.27 377.58 L280.28 382.53 L277.39 387.52 L274.63 392.54 L271.97 397.61 L269.44 402.70 L267.02 407.81 L264.73 412.95 L262.55 418.11 L260.50 423.28 L258.57 428.46 L256.76 433.65 L255.08 438.84 L253.52 444.03 L252.09 449.21 L250.78 454.38 L249.60 459.54 L248.55 464.68 L247.62 469.80 L246.81 474.90 L246.13 479.96 L245.58 484.99 L245.14 489.98 L244.84 494.93 L244.65 499.83 L244.59 504.68 L244.64 509.48 L244.82 514.22 L245.12 518.90 L245.53 523.51 L246.05 528.06 L246.70 532.53 L247.45 536.93 L248.31 541.25 L249.28 545.48 L250.36 549.63 L251.55 553.68 L252.83 557.65 L254.22 561.51 L255.70 565.28 L257.28 568.95 L258.95 572.50 L260.71 575.96 L262.56 579.29 L264.49 582.52 L266.50 585.63 L268.59 588.62 L270.76 591.48 L273.00 594.23 L275.31 596.84 L277.68 599.33 L280.12 601.69 L282.62 603.92 L285.17 606.01 L287.78 607.97 L290.43 609.78 L293.13 611.46 L295.87 613.00 L298.65 614.40 L301.46 615.65 L304.31 616.77 L307.18 617.73 L310.08 618.55 L312.99 619.23 L315.92 619.75 L318.86 620.14 L321.81 620.37 L324.76 620.45 L327.72 620.39 L330.67 620.18 L333.61 619.82 L336.54 619.32 L339.46 618.67 L342.36 617.87 L345.23 616.93 L348.08 615.84 L350.90 614.61 L353.69 613.23 L356.44 611.72 L359.14 610.06 L361.80 608.26 L364.42 606.33 L366.98 604.26 L369.48 602.06 L371.93 599.72 L374.32 597.25 L376.64 594.65 L378.89 591.93 L381.07 589.08 L383.17 586.11 L385.20 583.02 L387.14 579.82 L389.00 576.49 L390.78 573.06 L392.46 569.52 L394.06 565.87 L395.55 562.12 L396.96 558.27 L398.26 554.32 L399.46 550.28 L400.55 546.15 L401.54 541.93 L402.42 537.62 L403.19 533.24 L403.85 528.78 L404.40 524.24 L404.83 519.64 L405.14 514.97 L405.34 510.24 L405.41 505.45 L405.37 500.61 L405.20 495.71 L404.91 490.77 L404.50 485.79 L403.97 480.76 L403.31 475.70 L402.52 470.62 L401.61 465.50 L400.58 460.36 L399.41 455.21 L398.13 450.04 L396.71 444.85 L395.18 439.67 L393.51 434.48 L391.73 429.29 L389.82 424.10 L387.78 418.93 L385.63 413.77 L383.35 408.63 L380.95 403.51 L378.44 398.41 L375.80 393.35 L373.05 388.32 L370.19 383.32 L367.21 378.37 L364.12 373.46 L360.92 368.60 L357.62 363.79 L354.21 359.04 L350.69 354.34 L347.08 349.71 L343.36 345.14 L339.55 340.65 L335.65 336.22 L331.66 331.87 L327.57 327.60 L323.40 323.42 L319.15 319.31 L314.82 315.30 L310.42 311.37 L305.94 307.54 L301.39 303.80 L296.77 300.16 L292.09 296.62 L287.35 293.19 L282.56 289.86 L277.71 286.63 L272.81 283.52 L267.87 280.51 L262.88 277.62 L257.86 274.84 L252.80 272.18 L247.71 269.64 L242.60 267.21 L237.46 264.91 L232.30 262.72 L227.13 260.66 L221.95 258.72 L216.76 256.90 L211.57 255.21 L206.38 253.64 L201.20 252.20 L196.03 250.88 L190.87 249.69 L185.72 248.63 L180.60 247.68 L175.51 246.87 L170.44 246.18 L165.41 245.62 L160.42 245.17 L155.47 244.86 L150.56 244.66 L145.70 244.59 L140.90 244.64 L136.15 244.80 L131.47 245.09 L126.85 245.49 L122.30 246.01 L117.82 246.64 L113.42 247.38 L109.09 248.24 L104.85 249.20 L100.70 250.27 L96.64 251.45 L92.67 252.72 L88.79 254.10 L85.02 255.58 L81.34 257.15 L77.77 258.81 L74.32 260.56 L70.97 262.41 L67.73 264.33 L64.62 266.34 L61.62 268.42 L58.74 270.58 L55.99 272.82 L53.36 275.12 L50.86 277.49 L48.49 279.93 L46.25 282.42 L44.15 284.97 L42.19 287.57 L40.36 290.22 L38.67 292.91 L37.12 295.65 L35.71 298.43 L34.44 301.24 L33.32 304.08 L32.34 306.95 L31.51 309.84 L30.82 312.76 L30.28 315.69 L29.89 318.63 L29.64 321.58 L29.55 324.53 L29.60 327.48 L29.80 330.43 L30.14 333.38 L30.63 336.31 L31.27 339.23 L32.06 342.13 L32.99 345.01 L34.07 347.86 L35.29 350.68 L36.65 353.47 L38.16 356.22 L39.80 358.93 L41.59 361.59 L43.51 364.21 L45.57 366.78 L47.76 369.29 L50.09 371.74 L52.55 374.13 L55.14 376.45 L57.85 378.71 L60.69 380.90 L63.65 383.01 L66.73 385.04 L69.92 386.99 L73.24 388.86 L76.66 390.64 L80.19 392.33 L83.83 393.93 L87.58 395.44 L91.42 396.85 L95.36 398.16 L99.40 399.36 L103.52 400.47 L107.74 401.47 L112.03 402.36 L116.41 403.13 L120.86 403.80 L125.39 404.36 L129.99 404.80 L134.66 405.12 L139.38 405.32 L144.17 405.41 L149.01 405.38 L153.90 405.22 L158.84 404.94 L163.82 404.54 L168.84 404.01 L173.89 403.36 L178.98 402.59 L184.09 401.69 L189.23 400.66 L194.38 399.51 L199.55 398.23 L204.73 396.83 L209.92 395.30 L215.11 393.65 L220.30 391.87 L225.48 389.97 L230.66 387.95 L235.82 385.80 L240.96 383.54 L246.08 381.15 L251.18 378.64 L256.25 376.02 L261.28 373.28 L266.28 370.42 L271.24 367.45 L276.15 364.37 L281.02 361.18 L285.83 357.89 L290.59 354.48 L295.29 350.98 L299.92 347.37 L304.50 343.66 L309.00 339.86 L313.43 335.96 L317.78 331.98 L322.06 327.90 L326.25 323.74 L330.36 319.49 L334.39 315.17 L338.32 310.77 L342.16 306.30 L345.91 301.75 L349.55 297.14 L353.10 292.47 L356.54 287.73 L359.88 282.94 L363.12 278.09 L366.24 273.20 L369.25 268.26 L372.15 263.28 L374.94 258.26 L377.61 253.20 L380.17 248.12 L382.60 243.00 L384.92 237.87 L387.11 232.71 L389.18 227.55 L391.13 222.36 L392.96 217.18 L394.66 211.99 L396.24 206.80 L397.69 201.61 L399.02 196.44 L400.22 191.28 L401.29 186.13 L402.24 181.01 L403.07 175.91 L403.77 170.85 L404.34 165.81 L404.80 160.81 L405.12 155.86 L405.33 150.95 L405.41 146.09 L405.37 141.28 L405.22 136.53 L404.94 131.84 L404.55 127.22 L404.04 122.66 L403.41 118.17 L402.68 113.77 L401.83 109.44 L400.88 105.19 L399.82 101.03 L398.65 96.96 L397.38 92.98 L396.01 89.10 L394.54 85.31 L392.98 81.63 L391.32 78.05 L389.58 74.59 L387.74 71.23 L385.83 67.99 L383.83 64.86 L381.75 61.85 L379.59 58.96 L377.36 56.20 L375.06 53.56 L372.70 51.05 L370.27 48.68 L367.78 46.43 L365.24 44.31 L362.64 42.34 L359.99 40.50 L357.30 38.80 L354.57 37.23 L351.79 35.81 L348.99 34.54 L346.15 33.40 L343.28 32.41 L340.39 31.57 L337.48 30.87 L334.55 30.32 L331.61 29.92 L328.66 29.66 L325.71 29.55 L322.75 29.59 L319.80 29.77 L316.86 30.11 L313.92 30.59 L311.00 31.22 L308.10 31.99 L305.22 32.91 L302.37 33.98 L299.54 35.19 L296.75 36.54 L294.00 38.03 L291.29 39.67 L288.62 41.44 L286.00 43.35 L283.43 45.40 L280.91 47.58 L278.45 49.90 L276.06 52.35 L273.73 54.93 L271.47 57.63 L269.27 60.46 L267.16 63.41 L265.12 66.48 L263.16 69.67 L261.29 72.97 L259.50 76.38 L257.80 79.91 L256.19 83.54 L254.68 87.28 L253.26 91.11 L251.94 95.04 L250.73 99.07 L249.62 103.19 L248.61 107.40 L247.71 111.69 L246.92 116.06 L246.25 120.51 L245.68 125.03 L245.23 129.62 L244.90 134.28 L244.69 139.00 L244.59 143.78 L244.62 148.62 L244.76 153.51 L245.03 158.44 L245.42 163.42 L245.94 168.44 L246.58 173.49 L247.35 178.57 L248.24 183.68 L249.25 188.82 L250.39 193.97 L251.66 199.14 L253.05 204.32 L254.57 209.51 L256.21 214.70 L257.98 219.89 L259.87 225.07 L261.88 230.25 L264.02 235.41 L266.28 240.55 L268.66 245.68 L271.15 250.78 L273.77 255.85 L276.50 260.88 L279.35 265.89 L282.31 270.85 L285.38 275.76 L288.56 280.63 L291.85 285.45 L295.24 290.21 L298.74 294.91 L302.34 299.56 L306.04 304.13 L309.83 308.64 L313.72 313.08 L317.70 317.44 L321.77 321.72 L325.93 325.92 L330.16 330.04 L334.48 334.07 L338.88 338.01 L343.34 341.86 L347.88 345.61 L352.49 349.27 L357.16 352.82 L361.89 356.27 L366.68 359.62 L371.52 362.86 L376.41 366.00 L381.34 369.02 L386.32 371.93 L391.34 374.72 L396.39 377.40 L401.48 379.97 L406.59 382.41 L411.72 384.74 L416.87 386.94 L422.04 389.02 L427.22 390.98 L432.41 392.82 L437.60 394.53 L442.79 396.12 L447.97 397.58 L453.15 398.92 L458.31 400.13 L463.46 401.21 L468.58 402.17 L473.68 403.01 L478.75 403.72 L483.79 404.30 L488.79 404.76 L493.75 405.10 L498.66 405.32 L503.53 405.41 L508.34 405.38 L513.09 405.23 L517.79 404.97 L522.42 404.58 L526.98 404.08 L531.47 403.47 L535.89 402.74 L540.22 401.90 L544.48 400.96 L548.64 399.90 L552.72 398.75 L556.71 397.49 L560.60 396.12 L564.39 394.66 L568.08 393.11 L571.66 391.46 L575.14 389.72 L578.51 387.89 L581.76 385.98 L584.90 383.99 L587.91 381.91 L590.81 379.76 L593.58 377.54 L596.23 375.25 L598.75 372.89 L601.14 370.47 L603.40 367.98 L605.52 365.44 L607.51 362.85 L609.36 360.21 L611.07 357.52 L612.65 354.79 L614.08 352.02 L615.37 349.21 L616.51 346.37 L617.51 343.51 L618.37 340.62 L619.08 337.71 L619.64 334.78 L620.06 331.84 L620.33 328.89 L620.45 325.94 Z">
            <animateTransform attributeName="transform" begin="0s" dur="4s" from="0 325 325" repeatCount="indefinite" to="-360 325 325" type="rotate" />
        </path>
    </symbol>
    <symbol id="Frame" viewBox="-3 -5 330 360">
        <path d="M162.671 343.8c-9.914-20.672-40.09-18.391-54.572-34.207-4.65-13.46-16.63-17.665-30.282-13.255-36.778-2.394-63.594-36.644-60.067-69.044-7.245-22.666 31.744-3.585 25.77-25.686 1.64-35.417.018-70.902.192-106.315-.153-17.776-16.865-33.935-35.87-27.82-21.987-9.142 9.22-21.172 9.425-34.384 4.106-9.101-5.052-33.358 13.111-19.843 7.908 9.698 16.211 9.416 14.54-3.484 3.931-8.404 17.325-3.29 9.61 4.562 17.685 11.052 37.724-3.537 56.074-5.49 15.735-1.066 35.175 6.974 43.386-8.786 12.154-1.087 15.305 16.62 27.424 7.028 22.023-5.925 40.923 9.326 61.951 10.531 12.396 3.126 18.273-10.42 22.693-13.198 3.76 8.888 11.823 16.516 16.874 3.307 20.63-10.271 8.58 21.544 21.966 28.522 11.184 7.283 21.876 28.397-.546 28.1-22.502-6.067-27.79 21.52-25.46 36.36 1.14 34.36-1.902 68.928 2.19 103.144 8.226 9.357 30.85 5.445 22.868 24.344-.871 33.118-28.977 67.714-67.412 68.436-12.5-1.903-19.729-1.967-23.275 10.364-12.64 16.119-36.767 20.192-47.62 36.972zm1.507-5.693c12.993-17.048 42.699-17.6 50.645-38.713.478-20.216 29.625 2.126 41.693-9.783 27.927-9.234 44.438-36.04 44.865-62.282 7.436-21.932-26.23-9.455-26.603-28.976.541-39.849-1.362-79.888.627-119.722 2.502-17.626 25.413-23.109 39.183-22.976.105-13.28-20.42-18.652-19.823-33.273.766-9.621-5.346-20.945-13.786-7.931-8.924 9.822-32.376 12.62-36.376 19.97 2.299 11.439-6.872 9.502-10.327 2.091-8.481-3.545-11.526 12.294-17.703.254-3.225-5.518-13.464-18.396-11.798-3.64-12.11-10.014-25.849 1.332-38.561-8.766-7.995-.155-6.086 10.759-12.864 2.557-11.607.537-22.363 4.417-33.14 2.728-6.666 7.425-14.98-.99-22.88 8.638-7.95 4.443-17.489 1.938-25.3 7.057 1.345-12.919-7.427-14.702-20.004-14.824-8.747-5.438-19.988-15.818-30.377-17.23 4.567 17.506-7.212 33.236-18.777 46.204 15.363-.517 33.026 2.272 38.93 17.46 8.257 18.693 3.288 39.327 4.694 58.894-.443 25.05 1.73 50.412-2.042 75.244-6.397 13.64-31.697 2.356-24.496 21.84.399 29.997 26.311 60.77 61.13 60.492 11.199 1.295 23.886-9.846 22.508 5.826 6.69 17.23 28.07 18.765 42.64 27.246 6.11 3.699 11.3 8.67 17.942 11.615zM80.191 38.717c5.01-1.24 17.305-12.13 9.084-1.76 18.184-2.749 24.642-28.88 46.494-21.832-7.48.233-34.991 13.967-14.327 12.355 4.348-1.396 20.641-9.01 10.203.03 8.335-.985 29.894-6.26 11.533-12.34-8.957-7.337-36.567 1.528-35.192-.412 3.603-7.236-24 4.409-31.325 5.882-10.702.07-39.589 3.245-23.851-13.132-8.97-2.251-7.244 20.87 7.7 19.068-15.199 2.392 13.216 5.536 16.85-.529 9.998-4.957 13.569-.653 2.441 2.042-6.236 2.207-11.676 20.74.39 10.627zm162.423-1.857c.958-7.116-20.193-19.168-1.956-12.133 8.365 5.483 27.737-2.266 22.318-5.686 10.394-6.778-5.898.003-10.609-.967-15.124 7.346-28.607-4.47-42.81-8.053-10.158-2.534 13.113 10.645-.59 4.086-10.03-10.313-31.22-5.835-35.604.986-22.625 2.395 2.452 14.071 11.578 11.526-17.623-16.757 27.226 12.701 15.948-5.274-3.888-6.718-22.158-12.13-3.665-9.064 11.964 3.785 17.495 28.948 27.09 24.525-1.95-6.948-3.56-13.616 4.084-4.956 4.458-2.481 14.315 12.728 14.216 5.01zm-84.209-15.102c-2.254-4.582-1.218-14.471 3.168-4.688 11.937-5.165-2.793-9.16.055-8.428 2.304-10.84-14.834-6.295-8.005 1.527-11.752-5.857-.402 12.547 4.782 11.59z" stroke-width="5" stroke="black" fill="black" />
        <path d="M158.805 334.656a849.82 849.82 0 01-9.751-6.42c-3.024-2.024-10.102-5.449-17.149-8.296-13.023-5.261-18.707-8.341-22.332-12.1-3.162-3.277-5.416-7.468-5.416-10.067 0-1.181-.519-3.278-1.153-4.66l-1.153-2.511-4.032.369c-2.218.203-6.295.83-9.06 1.393-3.779.77-6.836.886-12.317.465-13.352-1.026-25.348-6.268-35.366-15.453-11.822-10.84-18.619-24.055-20.623-40.098-.432-3.462-1.002-7.321-1.266-8.577-1.09-5.185 1.862-7.479 12.374-9.616 6.114-1.243 10.579-3.619 12.217-6.502 2.32-4.086 2.923-18.377 2.893-68.663-.02-33.018-.315-50.918-.893-54.196-1.002-5.677-4.095-14.453-6.16-17.483-5.406-7.929-17.268-12.893-30.885-12.925l-5.16-.012 5.417-6.808c9.968-12.528 14.09-22.458 13.618-32.809-.204-4.477-.03-5.838.743-5.838 2.331 0 9.976 4.143 18.776 10.174 9.362 6.418 9.434 6.451 14.971 6.949 9.931.893 14.794 4.628 14.794 11.363 0 2.743.86 3.846 1.854 2.38.507-.746 8.02-2.616 12.998-3.235 5.665-.704 9.631-2.212 12.906-4.905 1.636-1.345 3.06-2.466 3.165-2.49.104-.025 3.063-.294 6.574-.6 4.63-.402 6.997-.967 8.612-2.054 1.838-1.237 3.295-1.498 8.353-1.498 3.37 0 10.666-.665 16.214-1.477l10.088-1.478 1.727 1.478c2.373 2.029 3.918 1.853 5.892-.67 2.576-3.293 4.829-3.77 8.249-1.744 4.28 2.534 8.251 3.207 18.31 3.102 9.416-.098 13.345.7 16.587 3.371 1.295 1.068 1.373.978 1.384-1.6.006-1.502.336-3.197.731-3.766 1.105-1.59 4.39.937 8.218 6.324 1.76 2.476 4.085 5.38 5.167 6.452 1.894 1.878 2.045 1.91 4.098.844 1.173-.608 3.307-1.879 4.742-2.824 3.557-2.342 5.892-2.235 7.353.337 2.203 3.878 6.78 5.469 8.935 3.105.569-.623 1.043-2.547 1.055-4.276.018-2.733.384-3.428 2.81-5.335 1.535-1.206 7.23-3.924 12.653-6.039 12.106-4.721 17.261-7.723 22.052-12.84 4-4.27 6.21-4.947 8.533-2.61 1.964 1.975 3.522 7.408 3.522 12.277 0 5.776 2.188 9.588 10.033 17.481 6.477 6.518 8.27 9 9.2 12.731.618 2.485-.315 3.004-5.435 3.022-7.511.026-20.686 5.056-26.113 9.97-1.808 1.637-4.152 4.684-5.207 6.77-1.851 3.66-1.942 4.53-2.568 24.477-.357 11.374-.39 39.933-.074 63.463.563 41.913.608 42.823 2.184 44.756 2.152 2.64 6.315 4.697 13.822 6.828 3.424.971 7.117 2.406 8.209 3.187 2.888 2.068 3.91 5.484 2.978 9.957-.422 2.024-.962 5.896-1.2 8.604-1.622 18.467-13.568 38.143-29.26 48.192-2.534 1.624-8.313 4.734-12.84 6.911-9.656 4.645-11.853 4.863-25.614 2.541-4.763-.803-9.619-1.237-11.203-1-3.56.532-5.974 2.869-6.55 6.34-.717 4.313-4.756 10.533-9.289 14.304-4.2 3.495-7.152 5.192-23.185 13.329-5.675 2.88-10.57 6.008-13.821 8.83-2.77 2.404-5.102 4.371-5.184 4.371-.082 0-2.22-1.337-4.752-2.972zM236.547 35.486c-2.455-1.956-5.395-3.726-6.532-3.933-1.137-.207-2.844-1.128-3.792-2.047-2.776-2.69-4.057-2.214-3.492 1.301.263 1.635.696 3.68.963 4.546.408 1.327.186 1.573-1.423 1.573-3.074 0-5.553-2.36-11.24-10.705-6.118-8.975-10.765-13.562-14.363-14.177-3.539-.604-7.132-.711-7.396-.22-.125.233 2.013 1.964 4.752 3.846 7.239 4.978 10.712 11.466 6.138 11.466-.884 0-5.405-1.416-10.047-3.147-4.643-1.731-8.597-3.147-8.789-3.147-.886 0-.193 2.088 1.245 3.752l1.592 1.842h-3.484c-6.91 0-17.344-5.115-16.16-7.923.445-1.057 2.92-2.13 6.575-2.852 1.113-.22 3.103-1.318 4.424-2.44 4.587-3.901 15.527-5.928 23.087-4.277 2.202.481 5.49 1.907 7.305 3.168 6.634 4.61 8.962 5.087 4.609.945l-3.037-2.89 2.552.435c1.403.24 7.107 2.29 12.675 4.558 13.867 5.647 21.354 6.799 26.912 4.139.783-.375 3.376-.954 5.762-1.286l7.41-1.035c2.84-.398 2.964-.35 1.633.634-.807.596-1.244 1.532-.993 2.127 1.01 2.398-6.154 5.92-13.23 6.504-3.462.286-5.226.011-8.922-1.39-9.407-3.563-10.049-3.22-4.705 2.52 5.098 5.479 7.213 10.108 5.148 11.27-.391.22-2.72-1.2-5.177-3.157zM73.62 37.962c.586-4.738 3.654-8.439 8.667-10.457 2.695-1.084 4.201-2.114 4.201-2.87 0-1.744-5.493-.898-9.15 1.408-1.59 1.003-4.069 2.132-5.508 2.507-3.123.816-11.986.82-14.15.009-1.464-.55-1.446-.612.384-1.306l1.92-.728-1.92-.047c-3.01-.074-6.705-2.522-8.42-5.58-2.069-3.693-1.993-3.882.8-2 2.18 1.468 3.309 1.613 14.213 1.832l11.846.237 12.483-3.871c6.865-2.13 13.8-4.085 15.41-4.345 2.595-.419 2.98-.296 3.374 1.08.379 1.317.807 1.485 2.834 1.112 18.037-3.32 25.294-3.182 33.262.629 3.037 1.453 5.722 3.116 5.967 3.695.935 2.22-3.705 4.893-11.813 6.805-5.12 1.208-6.22 1.126-4.305-.32 1.413-1.068 1.545-2.822.21-2.788-.528.013-3.553.956-6.722 2.095-5.812 2.09-11.77 2.711-12.71 1.326-1.268-1.868 8.315-7.5 17.266-10.147 3.332-.986 3.873-1.34 2.689-1.762-.816-.291-3.403-.551-5.75-.578-6.405-.074-10.759 2.268-21.376 11.495-8.117 7.054-13.776 10.834-16.221 10.834-.583 0-.577-.423.02-1.438 1.599-2.72.348-2.605-4.633.427-2.746 1.672-5.285 3.056-5.64 3.074-.356.02-1.526.664-2.6 1.433-1.075.77-2.644 1.399-3.487 1.399-1.363 0-1.49-.35-1.141-3.16zM153.589 18.57c-5.141-5.09-6.49-10.406-2.269-8.945 1.827.632 1.878.57 1.46-1.772-.534-3.001 1.348-5.193 4.46-5.193 2.416 0 4.533 2.188 4.533 4.685 0 .895.802 2.055 1.856 2.683 2.774 1.655 2.978 2.98.767 4.993l-1.971 1.795-2.183-2.358c-1.912-2.065-2.25-2.202-2.725-1.104-.298.69-.378 2.813-.176 4.72.2 1.907.115 3.467-.192 3.467s-1.909-1.337-3.56-2.972z" fill="#daa520" />
    </symbol>
    <use xlink:href="#Frame" x="0" y="0" width="120" height="130" />
    <use xlink:href="#Icon" x="25" y="25" width="70" height="70" fill="none" stroke="blue" stroke-width="30" />
</svg>