<svg xmlns="http://www.w3.org/2000/svg" xmlns:xlink="http://www.w3.org/1999/xlink"
    width="200px" height="200px" viewBox="20 20 200 200">
    <style>
        #Icon { fill: none; stroke: white; stroke-width: 30 }
        #Logo { fill: none; stroke: url(#LogoGradient); stroke-width: 30 }
    </style>
    <defs>
        <linearGradient id="LogoGradient" x1="1" x2="0" y1="1" y2="0">
            <stop offset="0%" stop-color="cyan"/>
            <stop offset="25%" stop-color="blue"/>
            <stop offset="50%" stop-color="aqua"/>
            <stop offset="75%" stop-color="blue"/>
            <stop offset="100%" stop-color="cyan"/>
        </linearGradient>
    </defs>
    <clipPath id="RoundClip">
        <circle cx="33" cy="33" r="33"/>
    </clipPath>
    <symbol id="Icon" viewBox="0 0 650 650">
        <rect width="650" height="650" x="0" y="0" fill="blue" stroke="none"/>
        <path d="M 620.45 325.00 L620.45 325.00 L620.38 322.05 L620.16 319.10 L619.79 316.15 L619.27 313.22 L618.61 310.31 L617.80 307.41 L616.85 304.54 L615.75 301.69 L614.50 298.87 L613.12 296.09 L611.59 293.35 L609.92 290.64 L608.12 287.99 L606.17 285.38 L604.09 282.82 L601.87 280.32 L599.53 277.88 L597.05 275.50 L594.44 273.18 L591.71 270.94 L588.85 268.76 L585.87 266.66 L582.77 264.64 L579.56 262.71 L576.23 260.85 L572.78 259.08 L569.23 257.41 L565.58 255.82 L561.82 254.33 L557.96 252.94 L554.00 251.64 L549.95 250.45 L545.81 249.37 L541.59 248.39 L537.28 247.51 L532.89 246.75 L528.42 246.10 L523.88 245.57 L519.27 245.14 L514.60 244.84 L509.86 244.65 L505.07 244.59 L500.22 244.64 L495.32 244.82 L490.37 245.12 L485.39 245.54 L480.36 246.08 L475.30 246.75 L470.21 247.55 L465.09 248.47 L459.95 249.51 L454.80 250.68 L449.62 251.98 L444.44 253.40 L439.25 254.95 L434.06 256.62 L428.87 258.42 L423.69 260.34 L418.52 262.38 L413.36 264.55 L408.22 266.84 L403.10 269.24 L398.01 271.77 L392.95 274.41 L387.92 277.17 L382.93 280.04 L377.98 283.03 L373.07 286.13 L368.21 289.33 L363.41 292.65 L358.66 296.07 L353.97 299.59 L349.34 303.21 L344.78 306.94 L340.29 310.75 L335.87 314.67 L331.53 318.67 L327.27 322.76 L323.09 326.93 L318.99 331.19 L314.98 335.53 L311.06 339.94 L307.24 344.42 L303.51 348.98 L299.88 353.60 L296.35 358.28 L292.92 363.03 L289.59 367.83 L286.38 372.68 L283.27 377.58 L280.28 382.53 L277.39 387.52 L274.63 392.54 L271.97 397.61 L269.44 402.70 L267.02 407.81 L264.73 412.95 L262.55 418.11 L260.50 423.28 L258.57 428.46 L256.76 433.65 L255.08 438.84 L253.52 444.03 L252.09 449.21 L250.78 454.38 L249.60 459.54 L248.55 464.68 L247.62 469.80 L246.81 474.90 L246.13 479.96 L245.58 484.99 L245.14 489.98 L244.84 494.93 L244.65 499.83 L244.59 504.68 L244.64 509.48 L244.82 514.22 L245.12 518.90 L245.53 523.51 L246.05 528.06 L246.70 532.53 L247.45 536.93 L248.31 541.25 L249.28 545.48 L250.36 549.63 L251.55 553.68 L252.83 557.65 L254.22 561.51 L255.70 565.28 L257.28 568.95 L258.95 572.50 L260.71 575.96 L262.56 579.29 L264.49 582.52 L266.50 585.63 L268.59 588.62 L270.76 591.48 L273.00 594.23 L275.31 596.84 L277.68 599.33 L280.12 601.69 L282.62 603.92 L285.17 606.01 L287.78 607.97 L290.43 609.78 L293.13 611.46 L295.87 613.00 L298.65 614.40 L301.46 615.65 L304.31 616.77 L307.18 617.73 L310.08 618.55 L312.99 619.23 L315.92 619.75 L318.86 620.14 L321.81 620.37 L324.76 620.45 L327.72 620.39 L330.67 620.18 L333.61 619.82 L336.54 619.32 L339.46 618.67 L342.36 617.87 L345.23 616.93 L348.08 615.84 L350.90 614.61 L353.69 613.23 L356.44 611.72 L359.14 610.06 L361.80 608.26 L364.42 606.33 L366.98 604.26 L369.48 602.06 L371.93 599.72 L374.32 597.25 L376.64 594.65 L378.89 591.93 L381.07 589.08 L383.17 586.11 L385.20 583.02 L387.14 579.82 L389.00 576.49 L390.78 573.06 L392.46 569.52 L394.06 565.87 L395.55 562.12 L396.96 558.27 L398.26 554.32 L399.46 550.28 L400.55 546.15 L401.54 541.93 L402.42 537.62 L403.19 533.24 L403.85 528.78 L404.40 524.24 L404.83 519.64 L405.14 514.97 L405.34 510.24 L405.41 505.45 L405.37 500.61 L405.20 495.71 L404.91 490.77 L404.50 485.79 L403.97 480.76 L403.31 475.70 L402.52 470.62 L401.61 465.50 L400.58 460.36 L399.41 455.21 L398.13 450.04 L396.71 444.85 L395.18 439.67 L393.51 434.48 L391.73 429.29 L389.82 424.10 L387.78 418.93 L385.63 413.77 L383.35 408.63 L380.95 403.51 L378.44 398.41 L375.80 393.35 L373.05 388.32 L370.19 383.32 L367.21 378.37 L364.12 373.46 L360.92 368.60 L357.62 363.79 L354.21 359.04 L350.69 354.34 L347.08 349.71 L343.36 345.14 L339.55 340.65 L335.65 336.22 L331.66 331.87 L327.57 327.60 L323.40 323.42 L319.15 319.31 L314.82 315.30 L310.42 311.37 L305.94 307.54 L301.39 303.80 L296.77 300.16 L292.09 296.62 L287.35 293.19 L282.56 289.86 L277.71 286.63 L272.81 283.52 L267.87 280.51 L262.88 277.62 L257.86 274.84 L252.80 272.18 L247.71 269.64 L242.60 267.21 L237.46 264.91 L232.30 262.72 L227.13 260.66 L221.95 258.72 L216.76 256.90 L211.57 255.21 L206.38 253.64 L201.20 252.20 L196.03 250.88 L190.87 249.69 L185.72 248.63 L180.60 247.68 L175.51 246.87 L170.44 246.18 L165.41 245.62 L160.42 245.17 L155.47 244.86 L150.56 244.66 L145.70 244.59 L140.90 244.64 L136.15 244.80 L131.47 245.09 L126.85 245.49 L122.30 246.01 L117.82 246.64 L113.42 247.38 L109.09 248.24 L104.85 249.20 L100.70 250.27 L96.64 251.45 L92.67 252.72 L88.79 254.10 L85.02 255.58 L81.34 257.15 L77.77 258.81 L74.32 260.56 L70.97 262.41 L67.73 264.33 L64.62 266.34 L61.62 268.42 L58.74 270.58 L55.99 272.82 L53.36 275.12 L50.86 277.49 L48.49 279.93 L46.25 282.42 L44.15 284.97 L42.19 287.57 L40.36 290.22 L38.67 292.91 L37.12 295.65 L35.71 298.43 L34.44 301.24 L33.32 304.08 L32.34 306.95 L31.51 309.84 L30.82 312.76 L30.28 315.69 L29.89 318.63 L29.64 321.58 L29.55 324.53 L29.60 327.48 L29.80 330.43 L30.14 333.38 L30.63 336.31 L31.27 339.23 L32.06 342.13 L32.99 345.01 L34.07 347.86 L35.29 350.68 L36.65 353.47 L38.16 356.22 L39.80 358.93 L41.59 361.59 L43.51 364.21 L45.57 366.78 L47.76 369.29 L50.09 371.74 L52.55 374.13 L55.14 376.45 L57.85 378.71 L60.69 380.90 L63.65 383.01 L66.73 385.04 L69.92 386.99 L73.24 388.86 L76.66 390.64 L80.19 392.33 L83.83 393.93 L87.58 395.44 L91.42 396.85 L95.36 398.16 L99.40 399.36 L103.52 400.47 L107.74 401.47 L112.03 402.36 L116.41 403.13 L120.86 403.80 L125.39 404.36 L129.99 404.80 L134.66 405.12 L139.38 405.32 L144.17 405.41 L149.01 405.38 L153.90 405.22 L158.84 404.94 L163.82 404.54 L168.84 404.01 L173.89 403.36 L178.98 402.59 L184.09 401.69 L189.23 400.66 L194.38 399.51 L199.55 398.23 L204.73 396.83 L209.92 395.30 L215.11 393.65 L220.30 391.87 L225.48 389.97 L230.66 387.95 L235.82 385.80 L240.96 383.54 L246.08 381.15 L251.18 378.64 L256.25 376.02 L261.28 373.28 L266.28 370.42 L271.24 367.45 L276.15 364.37 L281.02 361.18 L285.83 357.89 L290.59 354.48 L295.29 350.98 L299.92 347.37 L304.50 343.66 L309.00 339.86 L313.43 335.96 L317.78 331.98 L322.06 327.90 L326.25 323.74 L330.36 319.49 L334.39 315.17 L338.32 310.77 L342.16 306.30 L345.91 301.75 L349.55 297.14 L353.10 292.47 L356.54 287.73 L359.88 282.94 L363.12 278.09 L366.24 273.20 L369.25 268.26 L372.15 263.28 L374.94 258.26 L377.61 253.20 L380.17 248.12 L382.60 243.00 L384.92 237.87 L387.11 232.71 L389.18 227.55 L391.13 222.36 L392.96 217.18 L394.66 211.99 L396.24 206.80 L397.69 201.61 L399.02 196.44 L400.22 191.28 L401.29 186.13 L402.24 181.01 L403.07 175.91 L403.77 170.85 L404.34 165.81 L404.80 160.81 L405.12 155.86 L405.33 150.95 L405.41 146.09 L405.37 141.28 L405.22 136.53 L404.94 131.84 L404.55 127.22 L404.04 122.66 L403.41 118.17 L402.68 113.77 L401.83 109.44 L400.88 105.19 L399.82 101.03 L398.65 96.96 L397.38 92.98 L396.01 89.10 L394.54 85.31 L392.98 81.63 L391.32 78.05 L389.58 74.59 L387.74 71.23 L385.83 67.99 L383.83 64.86 L381.75 61.85 L379.59 58.96 L377.36 56.20 L375.06 53.56 L372.70 51.05 L370.27 48.68 L367.78 46.43 L365.24 44.31 L362.64 42.34 L359.99 40.50 L357.30 38.80 L354.57 37.23 L351.79 35.81 L348.99 34.54 L346.15 33.40 L343.28 32.41 L340.39 31.57 L337.48 30.87 L334.55 30.32 L331.61 29.92 L328.66 29.66 L325.71 29.55 L322.75 29.59 L319.80 29.77 L316.86 30.11 L313.92 30.59 L311.00 31.22 L308.10 31.99 L305.22 32.91 L302.37 33.98 L299.54 35.19 L296.75 36.54 L294.00 38.03 L291.29 39.67 L288.62 41.44 L286.00 43.35 L283.43 45.40 L280.91 47.58 L278.45 49.90 L276.06 52.35 L273.73 54.93 L271.47 57.63 L269.27 60.46 L267.16 63.41 L265.12 66.48 L263.16 69.67 L261.29 72.97 L259.50 76.38 L257.80 79.91 L256.19 83.54 L254.68 87.28 L253.26 91.11 L251.94 95.04 L250.73 99.07 L249.62 103.19 L248.61 107.40 L247.71 111.69 L246.92 116.06 L246.25 120.51 L245.68 125.03 L245.23 129.62 L244.90 134.28 L244.69 139.00 L244.59 143.78 L244.62 148.62 L244.76 153.51 L245.03 158.44 L245.42 163.42 L245.94 168.44 L246.58 173.49 L247.35 178.57 L248.24 183.68 L249.25 188.82 L250.39 193.97 L251.66 199.14 L253.05 204.32 L254.57 209.51 L256.21 214.70 L257.98 219.89 L259.87 225.07 L261.88 230.25 L264.02 235.41 L266.28 240.55 L268.66 245.68 L271.15 250.78 L273.77 255.85 L276.50 260.88 L279.35 265.89 L282.31 270.85 L285.38 275.76 L288.56 280.63 L291.85 285.45 L295.24 290.21 L298.74 294.91 L302.34 299.56 L306.04 304.13 L309.83 308.64 L313.72 313.08 L317.70 317.44 L321.77 321.72 L325.93 325.92 L330.16 330.04 L334.48 334.07 L338.88 338.01 L343.34 341.86 L347.88 345.61 L352.49 349.27 L357.16 352.82 L361.89 356.27 L366.68 359.62 L371.52 362.86 L376.41 366.00 L381.34 369.02 L386.32 371.93 L391.34 374.72 L396.39 377.40 L401.48 379.97 L406.59 382.41 L411.72 384.74 L416.87 386.94 L422.04 389.02 L427.22 390.98 L432.41 392.82 L437.60 394.53 L442.79 396.12 L447.97 397.58 L453.15 398.92 L458.31 400.13 L463.46 401.21 L468.58 402.17 L473.68 403.01 L478.75 403.72 L483.79 404.30 L488.79 404.76 L493.75 405.10 L498.66 405.32 L503.53 405.41 L508.34 405.38 L513.09 405.23 L517.79 404.97 L522.42 404.58 L526.98 404.08 L531.47 403.47 L535.89 402.74 L540.22 401.90 L544.48 400.96 L548.64 399.90 L552.72 398.75 L556.71 397.49 L560.60 396.12 L564.39 394.66 L568.08 393.11 L571.66 391.46 L575.14 389.72 L578.51 387.89 L581.76 385.98 L584.90 383.99 L587.91 381.91 L590.81 379.76 L593.58 377.54 L596.23 375.25 L598.75 372.89 L601.14 370.47 L603.40 367.98 L605.52 365.44 L607.51 362.85 L609.36 360.21 L611.07 357.52 L612.65 354.79 L614.08 352.02 L615.37 349.21 L616.51 346.37 L617.51 343.51 L618.37 340.62 L619.08 337.71 L619.64 334.78 L620.06 331.84 L620.33 328.89 L620.45 325.94 Z"/>
    </symbol>
    <symbol id="Logo" viewBox="0 0 650 650">
        <path id="Orbit" d="M325.00 325.00 L325.00 325.00 L330.91 324.94 L336.81 324.76 L342.71 324.47 L348.59 324.06 L354.46 323.53 L360.31 322.88 L366.13 322.12 L371.92 321.24 L377.68 320.25 L383.40 319.14 L389.09 317.92 L394.73 316.59 L400.31 315.15 L405.85 313.61 L411.33 311.95 L416.75 310.19 L422.11 308.33 L427.40 306.37 L432.62 304.30 L437.76 302.14 L442.83 299.89 L447.81 297.54 L452.71 295.10 L457.52 292.57 L462.24 289.96 L466.87 287.26 L471.40 284.48 L475.83 281.63 L480.16 278.70 L484.38 275.70 L488.49 272.63 L492.49 269.50 L496.37 266.30 L500.14 263.04 L503.80 259.73 L507.33 256.37 L510.74 252.96 L514.03 249.50 L517.18 246.00 L520.22 242.46 L523.12 238.89 L525.89 235.29 L528.52 231.66 L531.03 228.01 L533.40 224.33 L535.63 220.64 L537.73 216.94 L539.68 213.23 L541.50 209.52 L543.18 205.81 L544.72 202.10 L546.12 198.39 L547.38 194.70 L548.50 191.03 L549.48 187.37 L550.32 183.74 L551.02 180.13 L551.58 176.55 L552.00 173.01 L552.28 169.51 L552.42 166.05 L552.43 162.64 L552.30 159.27 L552.03 155.96 L551.64 152.71 L551.10 149.52 L550.44 146.39 L549.65 143.33 L548.73 140.34 L547.69 137.43 L546.52 134.60 L545.23 131.85 L543.82 129.18 L542.29 126.60 L540.64 124.11 L538.88 121.72 L537.01 119.42 L535.03 117.23 L532.95 115.13 L530.76 113.14 L528.47 111.27 L526.08 109.50 L523.60 107.84 L521.03 106.30 L518.37 104.88 L515.62 103.58 L512.80 102.40 L509.89 101.35 L506.91 100.42 L503.85 99.62 L500.73 98.94 L497.55 98.40 L494.30 97.99 L490.99 97.72 L487.63 97.58 L484.22 97.57 L480.77 97.71 L477.27 97.98 L473.73 98.39 L470.16 98.93 L466.55 99.62 L462.92 100.45 L459.26 101.42 L455.59 102.52 L451.90 103.77 L448.20 105.16 L444.49 106.69 L440.78 108.36 L437.06 110.17 L433.35 112.11 L429.65 114.20 L425.96 116.42 L422.29 118.78 L418.63 121.27 L415.00 123.90 L411.39 126.66 L407.82 129.55 L404.28 132.57 L400.78 135.72 L397.32 138.99 L393.90 142.39 L390.53 145.92 L387.22 149.56 L383.96 153.32 L380.76 157.20 L377.62 161.19 L374.54 165.29 L371.54 169.50 L368.60 173.82 L365.74 178.24 L362.96 182.76 L360.26 187.38 L357.64 192.10 L355.10 196.90 L352.65 201.79 L350.30 206.77 L348.03 211.83 L345.87 216.97 L343.79 222.18 L341.82 227.47 L339.95 232.82 L338.18 238.23 L336.52 243.71 L334.97 249.24 L333.52 254.83 L332.18 260.46 L330.95 266.14 L329.84 271.86 L328.84 277.62 L327.95 283.41 L327.18 289.23 L326.52 295.07 L325.98 300.94 L325.56 306.82 L325.26 312.72 L325.07 318.62 L325.00 324.53 L325.05 330.44 L325.22 336.34 L325.50 342.24 L325.91 348.12 L326.43 353.99 L327.07 359.84 L327.82 365.67 L328.69 371.46 L329.67 377.22 L330.77 382.95 L331.98 388.64 L333.30 394.28 L334.73 399.87 L336.27 405.41 L337.91 410.90 L339.66 416.32 L341.52 421.69 L343.47 426.98 L345.53 432.21 L347.68 437.36 L349.93 442.43 L352.27 447.42 L354.71 452.33 L357.23 457.14 L359.83 461.87 L362.52 466.51 L365.29 471.04 L368.14 475.48 L371.06 479.81 L374.06 484.04 L377.12 488.16 L380.25 492.17 L383.44 496.07 L386.69 499.85 L390.00 503.51 L393.36 507.05 L396.77 510.47 L400.22 513.77 L403.72 516.94 L407.25 519.98 L410.82 522.89 L414.42 525.67 L418.05 528.32 L421.70 530.83 L425.37 533.21 L429.06 535.46 L432.76 537.56 L436.47 539.53 L440.18 541.36 L443.90 543.05 L447.61 544.60 L451.31 546.02 L455.00 547.29 L458.68 548.42 L462.34 549.41 L465.97 550.26 L469.58 550.97 L473.16 551.54 L476.71 551.97 L480.21 552.26 L483.67 552.41 L487.09 552.43 L490.46 552.31 L493.77 552.06 L497.03 551.67 L500.23 551.15 L503.36 550.50 L506.43 549.72 L509.42 548.81 L512.34 547.78 L515.18 546.62 L517.94 545.33 L520.61 543.93 L523.20 542.41 L525.69 540.77 L528.10 539.02 L530.40 537.16 L532.60 535.19 L534.71 533.12 L536.70 530.94 L538.59 528.65 L540.37 526.28 L542.03 523.80 L543.58 521.24 L545.01 518.58 L546.32 515.85 L547.51 513.02 L548.58 510.12 L549.51 507.15 L550.33 504.10 L551.01 500.98 L551.56 497.80 L551.98 494.56 L552.26 491.26 L552.42 487.90 L552.43 484.50 L552.31 481.04 L552.05 477.55 L551.65 474.01 L551.12 470.44 L550.44 466.84 L549.62 463.21 L548.67 459.56 L547.57 455.88 L546.33 452.19 L544.95 448.49 L543.44 444.78 L541.78 441.07 L539.98 437.36 L538.05 433.65 L535.97 429.94 L533.76 426.25 L531.41 422.58 L528.93 418.92 L526.32 415.29 L523.57 411.68 L520.69 408.10 L517.68 404.56 L514.54 401.05 L511.27 397.59 L507.88 394.17 L504.37 390.80 L500.73 387.48 L496.98 384.21 L493.11 381.01 L489.13 377.86 L485.04 374.78 L480.83 371.77 L476.53 368.83 L472.11 365.97 L467.60 363.18 L462.99 360.47 L458.28 357.84 L453.48 355.30 L448.60 352.85 L443.63 350.48 L438.57 348.21 L433.44 346.03 L428.24 343.96 L422.96 341.98 L417.61 340.10 L412.20 338.32 L406.73 336.65 L401.20 335.09 L395.62 333.63 L389.99 332.28 L384.31 331.05 L378.60 329.92 L372.84 328.91 L367.05 328.02 L361.23 327.23 L355.39 326.57 L349.53 326.02 L343.65 325.59 L337.75 325.28 L331.85 325.08 L325.94 325.00 L320.03 325.04 L314.13 325.20 L308.23 325.48 L302.34 325.87 L296.47 326.38 L290.62 327.01 L284.80 327.75 L279.00 328.61 L273.23 329.59 L267.50 330.68 L261.81 331.88 L256.17 333.19 L250.57 334.61 L245.03 336.14 L239.54 337.78 L234.11 339.52 L228.74 341.37 L223.44 343.31 L218.21 345.36 L213.05 347.51 L207.97 349.75 L202.98 352.08 L198.06 354.51 L193.24 357.02 L188.50 359.62 L183.86 362.31 L179.31 365.07 L174.87 367.91 L170.53 370.83 L166.29 373.82 L162.16 376.88 L158.14 380.00 L154.24 383.19 L150.45 386.43 L146.78 389.74 L143.22 393.09 L139.80 396.49 L136.49 399.95 L133.31 403.44 L130.26 406.97 L127.34 410.54 L124.55 414.13 L121.89 417.76 L119.36 421.41 L116.97 425.08 L114.72 428.77 L112.60 432.47 L110.62 436.18 L108.78 439.89 L107.08 443.60 L105.51 447.31 L104.09 451.02 L102.81 454.71 L101.67 458.39 L100.67 462.05 L99.81 465.69 L99.09 469.30 L98.50 472.88 L98.06 476.42 L97.76 479.93 L97.59 483.40 L97.56 486.82 L97.67 490.19 L97.92 493.51 L98.29 496.78 L98.80 499.98 L99.44 503.11 L100.21 506.18 L101.11 509.18 L102.14 512.11 L103.29 514.96 L104.56 517.72 L105.95 520.40 L107.46 523.00 L109.09 525.50 L110.83 527.91 L112.69 530.22 L114.65 532.43 L116.72 534.54 L118.89 536.55 L121.16 538.44 L123.53 540.23 L126.00 541.90 L128.55 543.46 L131.20 544.90 L133.93 546.22 L136.75 547.42 L139.64 548.49 L142.61 549.44 L145.65 550.27 L148.77 550.96 L151.94 551.52 L155.18 551.95 L158.48 552.25 L161.83 552.41 L165.23 552.43 L168.68 552.32 L172.17 552.08 L175.71 551.69 L179.27 551.16 L182.87 550.50 L186.50 549.69 L190.15 548.75 L193.82 547.66 L197.51 546.44 L201.21 545.07 L204.92 543.56 L208.63 541.92 L212.35 540.13 L216.06 538.21 L219.76 536.14 L223.45 533.94 L227.13 531.61 L230.79 529.14 L234.42 526.53 L238.03 523.79 L241.61 520.92 L245.16 517.92 L248.67 514.79 L252.14 511.54 L255.56 508.16 L258.93 504.65 L262.26 501.03 L265.53 497.29 L268.74 493.43 L271.89 489.45 L274.97 485.37 L277.99 481.17 L280.94 476.87 L283.81 472.47 L286.60 467.96 L289.32 463.36 L291.95 458.66 L294.50 453.87 L296.96 448.99 L299.33 444.03 L301.61 438.98 L303.80 433.85 L305.88 428.65 L307.87 423.38 L309.76 418.04 L311.54 412.63 L313.22 407.17 L314.79 401.64 L316.26 396.07 L317.61 390.44 L318.86 384.77 L319.99 379.05 L321.01 373.30 L321.92 367.51 L322.71 361.70 L323.38 355.86 L323.94 350.00 L324.38 344.12 L324.70 338.22 L324.91 332.32 L325.00 326.41 L324.97 320.50 L324.82 314.60 L324.55 308.70 L324.17 302.81 L323.66 296.94 L323.04 291.09 L322.31 285.26 L321.46 279.46 L320.49 273.69 L319.41 267.96 L318.22 262.27 L316.92 256.62 L315.51 251.02 L313.99 245.47 L312.36 239.97 L310.62 234.54 L308.78 229.16 L306.84 223.86 L304.80 218.62 L302.67 213.46 L300.43 208.38 L298.11 203.37 L295.69 198.45 L293.18 193.62 L290.59 188.87 L287.91 184.23 L285.15 179.67 L282.32 175.22 L279.41 170.87 L276.42 166.62 L273.37 162.49 L270.25 158.46 L267.07 154.54 L263.83 150.75 L260.53 147.06 L257.18 143.50 L253.78 140.06 L250.33 136.75 L246.84 133.56 L243.31 130.50 L239.75 127.56 L236.15 124.76 L232.53 122.09 L228.88 119.56 L225.21 117.16 L221.53 114.89 L217.83 112.76 L214.12 110.77 L210.41 108.92 L206.69 107.21 L202.98 105.63 L199.28 104.20 L195.58 102.91 L191.90 101.75 L188.24 100.74 L184.60 99.87 L180.99 99.14 L177.41 98.55 L173.86 98.09 L170.34 97.78 L166.87 97.60 L163.45 97.56 L160.07 97.66 L156.75 97.89 L153.48 98.26 L150.28 98.76 L147.13 99.39 L144.06 100.15 L141.05 101.04 L138.12 102.05 L135.27 103.19 L132.50 104.45 L129.81 105.84 L127.21 107.34 L124.70 108.96 L122.28 110.69 L119.96 112.53 L117.74 114.49 L115.62 116.55 L113.61 118.71 L111.70 120.98 L109.91 123.34 L108.23 125.80 L106.66 128.35 L105.21 130.99 L103.88 133.71 L102.67 136.52 L101.59 139.41 L100.63 142.37 L99.79 145.41 L99.09 148.52 L98.52 151.69 L98.08 154.92 L97.77 158.21 L97.60 161.56 L97.56 164.96 L97.66 168.40 L97.90 171.89 L98.28 175.42 L98.79 178.99 L99.44 182.59 L100.24 186.21 L101.17 189.86 L102.25 193.53 L103.46 197.22 L104.82 200.92 L106.31 204.62 L107.95 208.34 L109.72 212.05 L111.64 215.76 L113.69 219.47 L115.88 223.16 L118.20 226.84 L120.66 230.50 L123.26 234.14 L125.99 237.75 L128.85 241.33 L131.84 244.88 L134.95 248.39 L138.20 251.86 L141.57 255.29 L145.06 258.67 L148.68 262.00 L152.41 265.27 L156.26 268.49 L160.23 271.64 L164.30 274.73 L168.49 277.75 L172.78 280.70 L177.18 283.58 L181.68 286.38 L186.27 289.11 L190.96 291.75 L195.75 294.30 L200.62 296.77 L205.58 299.15 L210.62 301.43 L215.74 303.63 L220.93 305.72 L226.20 307.72 L231.53 309.61 L236.93 311.40 L242.40 313.09 L247.92 314.67 L253.49 316.15 L259.11 317.51 L264.78 318.76 L270.49 319.91 L276.24 320.93 L282.02 321.85 L287.84 322.65 L293.68 323.33 L299.54 323.90 L305.42 324.35 L311.31 324.68 L317.21 324.90 L323.12 324.99 Z"/>
        <use width="65" height="65" x="0" y="0" clip-path="url(#RoundClip)" xlink:href="#Icon">
            <animateMotion dur="8s" repeatCount="indefinite" rotate="auto-reverse">
                <mpath xlink:href="#Orbit"/>
            </animateMotion>
        </use>
    </symbol>
    <use width="240" height="240" x="0" y="0" xlink:href="#Logo"/>
</svg>
