<svg xmlns="http://www.w3.org/2000/svg" xmlns:xlink="http://www.w3.org/1999/xlink" width="448" height="64" version="1.1" viewBox="0 0 14336 2048">
    <symbol id="范" viewBox="0 0 2048 2048">
        <path d="M1432 300l174 471l-629 -169q31 -4 45 -13t18 -19t-2 -67l-62 -583l741 189q-31 41 -44.5 61.5t-20.5 44t7.5 41t52.5 3.5q18 -8 37.5 -35t54 -67.5t37.5 -64.5t-8 -36t-54 -22l-794 -196q-60 -15 -76 -10.5t-25.5 19.5t-7.5 29l79 639l3 82l-76 -18q-35 -9 -51 7.5
t-12 42t32 33.5l760 202q19 5 70.5 3t21.5 -85l-174 -477q-25 -68 -41.5 -92.5t-56.5 -14.5l-60 36l-167 98q-47 27 -50 44t4.5 30t29.5 19t51 -10zM255 1197q-3 47 10 53.5t47 8.5l76 2l160 5q-7 62 -14 97.5t-9 55.5t9 31.5t43.5 12t43.5 -61.5l7 -72l10 -58l637 13
q203 4 212 12l72 134q26 25 52.5 5t16.5 -36l-39 -108q161 6 178 5q22 -3 34.5 -14t6.5 -46q-3 -17 -10 -27l-252 -10q-11 -9 -42.5 -65t-46.5 -79t-31.5 -27.5t-35 9t-20.5 32.5q-1 3 26 58l36 66l-785 -9q4 -55 6.5 -79t2.5 -34q-1 -23 -12 -42t-35 -17q-27 1 -34.5 21.5
t-11.5 53.5l-10 89q-46 -1 -157.5 -6.5t-123.5 9.5l-17 18v0zM488 -1q79 34 96 30t23 -18.5t1 -28.5t-46 -41l-238 -156q-39 -26 -59 -22.5t-29 12t-11 31t34 46.5zM257 400q0 6 7 16t28 13q22 2 132 -53.5t137 -71t30.5 -38.5t-29 -38t-104.5 31q-50 31 -110 52.5t-76 44
t-15 44.5zM426 924l178 -157q16 -15 24.5 -38t8.5 -29q-1 -14 -13 -25.5t-41.5 -1.5t-57.5 36l-214 194q-3 2 -6 9.5t-3.5 30.5t49.5 23q16 -1 40 -18l35 -24v0z" transform="matrix(1 0 0 -1 0 1638)"/>
    </symbol>
    <symbol id="版" viewBox="0 0 2048 2048">
        <path d="M1146 1091l555 183l68 26q78 21 67.5 -21.5t-17 -52.5t-97.5 -40l-576 -194l-131 -518q-35 -137 -52.5 -196t-25.5 -116.5t-28 -91t-46.5 -28t-29 28t9.5 69.5l182 732q58 234 65.5 240.5t9.5 5.5l46 -27v0zM1374 291l-212 195q-28 25 -29.5 36.5t8.5 26.5q18 28 39 27
t60 -38l188 -184l299 377l-435 59q-80 10 -92 16t-17.5 17.5t-6 20t6.5 20.5q16 29 57 23l264 -42l273 -43q43 -7 57.5 -22.5t9.5 -35.5t-34 -55l-319 -392l236 -241q36 -37 44 -51t8 -31q-2 -28 -16.5 -37t-29.5 -9.5t-26 12.5l-273 284l-361 -387q-18 -20 -38.5 -20.5
t-30 9t-10 32.5t21.5 47l317 342zM315 1050l321 8l72 331q7 35 36 35.5t39.5 -17.5t8.5 -30l-70 -315q46 2 97.5 6t56 -32.5t-11 -47t-99.5 -11.5l-445 -10l31 -481l429 78q45 8 68.5 1.5t24.5 -21.5t-5 -34l-171 -522l-9 -30q-22 -38 -54 -21q-13 5 -17.5 19t-5 22t5.5 25
l152 477l-418 -79l22 -444q2 -42 -7 -60t-39.5 -16t-32.5 51l-78 1291q-2 48 5.5 57t27 11t38 -12.5t20.5 -51.5z" transform="matrix(1 0 0 -1 0 1638)"/>
    </symbol>
    <symbol id="数" viewBox="0 0 2048 2048">
        <path d="M466 508q26 77 47.5 115.5t47.5 37.5q33 -2 37 -38q2 -27 -30 -108l310 28l194 20q31 -5 47 -19t16.5 -30.5t-12.5 -26.5t-26 -11l-564 -43q-33 -100 -42 -121l-42 -100q48 -24 73 -36l68 -36l89 -37l222 256l45 52q29 30 53.5 25.5t26.5 -30t-11 -40.5l-263 -311
l230 -108q27 -13 33 -37t-21 -40.5t-90 14.5l-217 106l-153 -175l-31 -37q-18 -16 -36 -15q-25 0 -33.5 15.5t-9 26.5t4.5 20q3 7 29 31.5t148 171.5q-78 39 -125 65.5t-83.5 38t-44 23t-7 29.5t12.5 44l38 84l42 110l-204 -26q-23 -3 -40 6.5t-23 21t-5.5 20t8.5 24
t28 17.5zM223 698l217 202l92 87q14 6 27 6q29 -1 36.5 -33.5t-62.5 -92.5l-108 -99q-59 -51 -102.5 -99.5t-80 -34t-26.5 43.5zM796 1118l54 228q18 76 30.5 88t27.5 12q24 -1 32 -24l6 -24q5 -9 5 -11l-73 -284q108 -1 146 0.5t47 2.5q74 0 74.5 -37t-13.5 -45t-22 -9
t-90 5l-96 -1l-64 2l-79 -367q-13 -59 -27.5 -71t-32 -12.5t-26.5 14t-9.5 25t1.5 15.5l86 399l-518 5q-50 0 -48.5 32t19.5 44.5t34 12.5h536zM391 1328q-24 43 -1 66t63 -8q30 -25 89 -111.5t56 -108.5t-42 -23q-22 -1 -37 15t-91 122l-37 48v0zM875 925q6 28 26.5 29.5
t38.5 -8.5l41 -34q99 -80 102.5 -88.5t3.5 -20.5q-2 -41 -36 -42q-10 -1 -22 4t-79 64.5t-71.5 76.5t-3.5 19zM1145 1422q10 0 24 -8t15.5 -26t-23.5 -50l-51 -71q-62 -78 -76 -86.5t-24 -7.5q-29 0 -30 25t1 32q1 8 9 21l79 104q47 65 76 67zM1286 972l245 15
q206 12 243.5 10t38 -40.5t-48.5 -41.5l-509 -33q-21 -50 -43.5 -96.5t-33 -74.5t-24 -46.5t-48 -15.5t-27.5 33l8 38l158 382l100 246q22 20 46.5 17.5t28.5 -28t-8 -54.5zM1406 464q-107 117 -147 145t-45.5 39.5t-6 23.5t5.5 22q14 26 45 27q9 0 21 -4l89 -82l102 -98
q46 56 82 93.5t66 80.5t48 53t43.5 2t27.5 -30.5t-11 -37.5l-189 -224l272 -272q49 -50 47 -83q-3 -36 -42 -37q-14 -1 -20.5 2.5t-36.5 34.5l-283 285l-283 -319q-26 -29 -53 -15.5t-26.5 35.5t8.5 31z" transform="matrix(1 0 0 -1 0 1638)"/>
    </symbol>
    <symbol id="学" viewBox="0 0 2048 2048">
        <path d="M302 1155q2 27 13 39t33 7.5t32 -16.5t6 -72l-27 -398q-4 -49 -10.5 -61.5t-41 -12t-31.5 63.5zM1004 189q-4 53 -15.5 91t-8.5 52.5t15 27.5l60 41l327 313l-804 119q-25 3 -43.5 19.5t-4 44.5t59.5 22l748 -110l134 -18q51 -14 53 -43t-28 -57l-188 -175l-233 -214
l11 -95l551 122l61 15q37 3 50 -14.5t7 -38.5q-6 -22 -20 -29.5t-42 -12.5l-607 -128l36 -315q6 -60 2 -81.5t-20.5 -28.5t-68.5 19l-289 143q-35 17 -48 32t-0.5 52t85.5 0l251 -131l-27 287l-507 -109q-81 -18 -122 -16q-32 1 -43.5 15.5t-12 35t14.5 33.5l76 10z
M1752 1083l-699 -44l-271 -5l-317 -22q-24 5 -37 16.5t-13.5 36t19.5 38.5t99 -1l221 14l483 18l534 36q55 3 73 -9.5t21 -32.5t-28 -73q-15 -24 -43.5 -99.5t-47 -77t-29.5 6.5q-26 16 -26.5 38.5t6.5 40.5l29 60l26 59v0zM599 1228l-150 232q-1 1 -1 7l-2 19
q1 5 15.5 16.5t32 12.5t49.5 -36l93 -141q15 -24 49.5 -69t33.5 -81t-34 -39.5t-86 79.5zM968 1450q42 57 66 32t32 -66l36 -188q4 -24 -5 -46t-26 -29.5t-42 18.5q-15 13 -21.5 39.5t-11 75t-9 76t-19.5 88.5zM1457 1248q-1 7 5 23l97 96l78 83q23 13 45.5 6t28 -34
t-77.5 -101l-110 -113q-11 -6 -18 -6q-9 -1 -24.5 7.5t-19.5 22t-4 16.5z" transform="matrix(1 0 0 -1 0 1638)"/>
    </symbol>
    <symbol id="恶" viewBox="0 0 2048 2048">
        <path d="M684 655l-22 506l-8 87q10 28 36 29.5t41.5 -17.5t21.5 -147l21 -450l404 33l172 585l-626 16l-185 12q-19 0 -83.5 -3.5t-76 13t-10.5 33.5q0 13 11 30t30.5 16.5t43 -3t53.5 -2.5l1010 -23q96 -3 121.5 -15t26.5 -33t-24 -34q-11 -6 -61 -7h-136l-181 -573l401 28l68 6
q50 -17 42.5 -45t-15.5 -33t-90 -11l-288 -22l-298 -23l10 -37l105 -304q9 -29 7 -52t-32 -26.5t-44 39.5l-129 374l-131 -12l-511 -41l-135 -12q-36 12 -42 39.5t70 49.5l83 5zM526 383q14 41 40.5 42.5t56.5 -29.5q5 -7 57.5 -98t173.5 -182t255 -120t276 -50.5t150 -4.5
t3 48l-35 194q-1 4 0 8q0 11 8.5 26t42 15.5t42.5 -45.5l34 -194q18 -108 14 -123.5t-25 -32t-84.5 -13.5t-78.5 6l-191 28q-278 40 -452.5 160.5t-241.5 271.5l-39 82l-23 -55q-24 -57 -86 -149.5t-96.5 -149t-58.5 -72.5t-47 -16.5t-30.5 26.5t28.5 69q35 41 61 80.5
t71 118t79 136.5t61 41l35 -18v0zM599 770l-10 2q-19 -21 -33 -23t-42 48l-141 245q-11 18 -16.5 36t-6.5 46t32 30q12 0 38 -17.5t58.5 -92t80.5 -148.5t43 -106l-3 -20v0zM1360 841q-2 9 -1.5 20t6.5 18.5t14 13.5t85 93l53 55l39 49l44 53q46 59 62 68t39.5 9.5t28 -25
t-18.5 -51.5l-217 -248q-85 -97 -98 -83l-36 28v0zM1786 251l-270 228q-14 11 -13.5 32t20 33.5t30 13.5t35.5 -21q59 -54 135 -115.5t106 -90.5t27.5 -59t-39.5 -33q-15 -2 -31 12z" transform="matrix(1 0 0 -1 0 1638)"/>
    </symbol>
    <symbol id="补" viewBox="0 0 2048 2048">
        <path d="M788 940l-445 -10q-38 -1 -55 16.5t-8 39.5q10 26 68 28l450 10q77 1 91 -25.5t6 -48t-45 -62.5l-369 -414q17 -11 22.5 -18t17.5 -55l120 -496q8 -36 7.5 -49t-9 -28.5t-26 -17.5t-31 16t-23.5 63l-128 531l-250 -243q-14 -13 -33.5 -19.5t-32 5.5t-12.5 33.5t10 32.5z
M584 375l223 285q14 18 34 18q30 -1 31 -31.5t-16 -54.5l-143 -197l262 -157q42 -26 32 -78.5t-83 -4.5zM505 1442q-2 27 6 38.5t36.5 11t36.5 -22.5l100 -292q9 -30 2.5 -47.5t-26.5 -18.5t-34 11q-25 18 -49 102t-37.5 122.5t-34.5 95.5zM1300 804l447 -102
q36 -9 59.5 -27.5t24 -43.5t-17.5 -32t-70 6.5t-57 15.5l-391 83l-26 -732l-4 -126q-21 -43 -48.5 -40.5t-33 23.5t-3.5 73l48 1413q2 68 7 82t27.5 25.5t42 -2t18.5 -52.5z" transform="matrix(1 0 0 -1 0 1638)"/>
    </symbol>
    <symbol id="记" viewBox="0 0 2048 2048">
        <path d="M1806 1102l-157 -314q-50 -100 -68 -81l-38 27l-382 -110l-66 -422l-32 -208l676 129l-61 313q-9 44 -7.5 62t26.5 27.5t38 5t29 -67.5l64 -272q23 -101 21 -112t-16.5 -27t-76.5 -24.5t-90 -13.5l-116 -21l-301 -52l-247 -52q-13 3 -23 8.5t-18.5 17t-8.5 14.5l6 22
l49 274q66 375 47 392t-25.5 39.5t45.5 37.5l506 139l46 93l71 160l-189 6l-332 10q-178 5 -198.5 10.5t-26.5 24.5q-24 61 18 54l68 5l320 -10l355 -10q80 -12 84 -37l10 -37v0zM346 -32l257 160q141 88 153.5 93.5t28.5 5.5q15 -1 28.5 -10.5t15 -30t-21.5 -38.5l-64 -29
l-326 -200l-140 -97q-15 -6 -26 -5q-16 0 -30.5 8t-20.5 18.5t-6.5 22t9.5 27.5l30 43l257 607l142 301l-355 55l-99 15q-23 11 -30 25.5t-7.5 36t8.5 27.5t78 -5l352 -59q125 -22 138.5 -32.5t20.5 -21.5t7.5 -24.5t-5.5 -28.5l-53 -87l-171 -358zM542 1389l137 -260
q4 -10 4.5 -22t-5.5 -22q-13 -22 -39 -21q-34 0 -49 31l-149 290q-13 24 -10 54t53 30q18 -1 32 -15l26 -65v0z" transform="matrix(1 0 0 -1 0 1638)"/>
    </symbol>
    <use width="2048" height="2048" x="0" y="0" xlink:href="#范"/>
    <use width="2048" height="2048" x="2048" y="0" xlink:href="#版"/>
    <use width="2048" height="2048" x="4096" y="0" xlink:href="#数"/>
    <use width="2048" height="2048" x="6144" y="0" xlink:href="#学"/>
    <use width="2048" height="2048" x="8192" y="0" xlink:href="#恶"/>
    <use width="2048" height="2048" x="10240" y="0" xlink:href="#补"/>
    <use width="2048" height="2048" x="12288" y="0" xlink:href="#记"/>
</svg>
