<svg xmlns="http://www.w3.org/2000/svg" xmlns:xlink="http://www.w3.org/1999/xlink" width="256" height="64">
    <defs>
        <linearGradient id="logo" x2="1" y1="1">
            <stop offset="0%" stop-color="springgreen"/>
            <stop offset="50%" stop-color="darkgreen"/>
            <stop offset="100%" stop-color="seagreen"/>
        </linearGradient>
    </defs>
    <symbol id="如是我闻" viewBox="0 0 2048 512">
        <path d="M127 287q7 23 14 32t8 14 5 6q2 0 6-2l17-15q12-8 13-8l-12-26 30-3q7-7 11-17 4-2 7-7v-4q5-9-2-7l-2 1h-12q4-4 4.5-5.5T213 237v-20l-2-17 5-18-1-8v-15l-2-9 4-55-3-22v-8q14 9 24 12t12.5 5 5 1.5T259 80t-7-5l-5-1q-3-1-9.5-7t-11-9.5-6-6T219 33l-2-24 6-19q0-2-.5-5.5t-4.5-4-8 7.5q-3 3-5 14l-5 18-2 15q-6-3-11.5-6.5t-7-4-8.5.5q-23 2-28.5 4.5t-11 10.5-11 23.5T114 85l-2 28-2 10q-1 3 0 19v25q0 8 1 16l8 69q-11 3-16 4l-35-2-16 3H41q-3 0-16.5 8T17 279t47 10l49-2h14zm51-35q-9-1-11-2t-7-15l-6-14v-12l-6-18v-9l-4-26 2-9q-1-2-3-7.5t-6-23-3-19.5l2-13-2-18q0-17 19-16 11 0 21 2t16 8l-11 83-3 83zm45 36q6 10 18 13 6 1 23.5-1t48.5-1.5 43-.5 16 0l15 2h36q10 0 24 4.5t18 4.5q2-1 5-1l14-16q11-12 11-14-1-2-2.5-3.5t-10-1T460 264q-12-9-28.5-20T407 221t-22.5-53-13.5-61l1-14v-4q-1-4-3-10t-2.5-8 1.5-12l1-22q1-12 1-14-3-12-10.5-15.5T348 4l-20-1-14-2q-3-1-5 0-18 1-31 7.5T263 50l-6 76q-1 0-2 7l-1 45-3 7 1 19-2 15 1 16-6 12-5 18-17 23zM346 40l3 98q1 38 5 55l7 28 4 25 6 15q-16 1-30.5 0t-18.5 0l-16 2-29-5q2-8 4-14t3.5-29.5T287 188v-50q0-9 1-9l-4-38 1-40q-1-8 1-10.5t8-2.5l16 1 20-2 16 3z" transform="matrix(1 0 0 -1 0 409)"/>
        <path d="M24 286v12q2 8 18 7l9-2h10l15-5 15 1h158l59 3 66-1 19 8 21 6q26 7 30 8 6 0 11.5-3t9.5-6l12-15q10-8 10-9-1-3-4-6l-40-6q-7-2-14-5l-25-14-11-3q-10-3-18.5-8.5t-16-17.5-8.5-15l-5-32-4-2v-12q-7-3-13 8-1-10-5.5-14.5t-13-5-9.5.5l-19 2-51-3q-18 1-36 4t-21 7l-6 9-7 10v23q-1 5-4 10.5t-15.5 15T123 247l-21 5q-2 0-15 5t-25.5 5.5-18 2.5T28 278q0 2-2 4t-2 4zm301-45q1 10 .5 18.5T323 268l-5-1q-1 0-2 2l-16-2-7 2h-1l-10-2q-18-3-20-5t-2-1q-1 0-4 1.5t-9 2.5h-4l-19-2-17 3-10-1q-1-1-2 0l-20 3q-3 0-13 1-6 0-11-3 0-4 1-5l5-6 9-12q1-1 20 0l80 3q36 1 42 0l11-4 6-1zm-145-30l5-15 4-2 81-1q5-1 13-1 3-1 6 1l5 3 18-2q2 4 12 2-2 5-3 11t-2 8l-4 2-2 2-20-5q-1-1-10 3l-36-5q-3-1-6 0-14 0-31 1.5t-30 .5v-3zm92-128q8-2 13-2l44 1q9-4 14-9.5t9.5-11.5-8.5-8q-3-1-9 1l-28-1-27 1-12-2q0-8-.5-13t.5-5l2-6 73-5q42-3 42.5-8.5T384 8h-19l-14-6q20-17-23-15-12 0-16.5 1t-4.5 2l-11-2q-2-1-10 3l-23 5q-24 5-24 6l-12 6-23 7q-2 1-8 7.5t-9 6.5q-6-1-8-9l-1-9-9-20 1-8q-8-10-15-1-3 2-7 22l-2 9q-1 3 0 9 2 34 11 49.5t21.5 23T200 94l10-11 13-8q-1-2 0-5l-9-7-7-8q4-2 5-3v-2l9-3q14-6 6-6l15-3q-3 18-3 21l-5 49q-4 1-5 2l-23-1q-1 0-9 1t-15 2h-9l-18-1q-7 0-9.5 1.5t-13 12T124 139q3 6 36 6l32-4 42 2 57 2q48 1 62 1 9-1 19-10.5t-4-17.5q-3-2-26-3l-22-4-33-3-15-25z" transform="matrix(1 0 0 -1 512 409)"/>
        <path d="M35 282l2 4 21 2 23 5h25q1 0 22 3t58 2.5 39 10.5l-8 11-1 5q7 0 10.5-1.5t13.5-9 14-12.5 5-5.5 1.5-1.5-.5-3l-4-8-10.5-12-43.5-3q-1-3 0-4l7-4q3-3 2.5-8.5t0-10 0-6.5.5-3q0-2 3.5-8.5t5.5-7.5 17 1l32-2 5 1q0 25 .5 49t2 41.5T285 330l19-9q7-4 8-4l-1-9q0-2 1.5-4.5t2-3.5-2.5-33l1-30q-1-6-2.5-10t-2-7.5 9.5-4.5q0-1 9 1l19-2q0-1 1 0l30 1q3-1 29 0 4 0 16-7l5-3q4-4 5-7.5t-8.5-9.5-12.5-6q-2-1-24 2l-33-2q-2-1-3 0-7 0-11.5.5T335 184q-11 1-16-3.5t-7.5-13.5-1.5-14l-1-2v-8l-1-2q0-1 1-.5t12 11 26.5 5T372 135q-8 0-10.5-1t-6.5-4-19-12.5-21-14.5-7-7 2-16l-1-19 5-19 2-13q0-3 1-3l1-16q10-8 19 10 8 17 9 33.5t3.5 21.5 7.5 6 8-17V45l1-9q0-4-3-16-6-22-11.5-32T343-25t-12-3q-8-1-14.5 2t-15 14T287 19.5t-7 31-4.5 14T262 57q-11-13-18.5-24.5T233 22q-2 0-4.5 2.5t-3 4T230 37l6 17q1 3 9 16l13 23q5 8 12 16t7.5 10-.5 5.5-1 8.5q-1 4-.5 17.5t.5 15.5q-1 15-6 17h-7l-11 3-12-3-17 2q-6-1-9-5l3-36-1-5q2-2 3-2.5t15 3.5 17 6q2-6 1.5-11t-3.5-7.5-12-5.5-16-9-7-7q-1-1 2-5l-3-17q-1-2 0-8.5T212 43l-1-14q-1-8-3.5-13T197 6t-22.5-17.5T160-23q-3 1-5 6l-6 12-10 9q-3 3-2 5l2 4q1-2 3-2h9l3-2 4 3 3.5-1.5L170 28l4 10q0 1 2 18l1 9v15q-1 7-3 14-18-5-26-5-11-1-17.5 3T117 105t-6 11q0 7 10 8 2 0 7.5-1t9.5-1q10-1 40 9-4 13-3 26v34q-6-3-8-3l-24 3-16-2q-10 0-16 6l-4 5q-8 8-7.5 11.5T112 216q1 0 4-.5t7 .5q47 1 50.5-2.5T178 232q0 2-2 8.5t-1.5 13 .5 7.5q-2 6-13.5 6.5T142 262l-17 4q-1 0-5.5-1.5t-19.5.5H85l-20 3q-17 1-20 2.5T35 282zm439-11q-17-5-34 2l-1-2-6 2q-1-1-1.5-3.5t-7-3.5-19.5-7-17.5-10-4.5-10v-12q-2-3-5-3-9-1-17.5 13t-7.5 23q0 6 10 21t58 17q21 0 30.5-5t22.5-22z" transform="matrix(1 0 0 -1 1024 409)"/>
        <path d="M24 283q1 4 7 4.5t11-1 20-4 27.5-8 23.5-17 20.5-17.5 18-19.5 10.5-23 5-17 4-7.5l-3-19 3-32-5-33 3-10q2-8 1.5-18t0-13.5 0-6.5.5-4l3-19-1-8 3-15 1-6q1-7 0-10.5t-6 .5q-5 2-5 3l-1 5q-1 0-2.5 1.5T159 0l-9 18-4 19q-4 12-4 13l1 10-4 13q-2 4-1 17l-1 53q0 40-1 48-1 2-6.5 17t-7.5 17-12 8l-22 12q-23 7-29 8l-21 1q-5 2-8 15l-6 14zm172 21q-11-1-20.5-5t-11-5.5-.5-4.5q0-4 2.5-14t4.5-12l12-10 7-7-5-2.5-10 6.5-20 7q-3 1-15.5 16.5T128 307q0 11 10.5 16.5T160 330q9 0 17-5l13-11q6-5 6-6v-4zm-5-220h21q-2 7-2 12l-2 28-4 22q-2 7-1 14 0 9 3 22.5t3 17.5q-1 3-1 4l-8 1-3 3-15-3q-5 0-6.5 6.5T188 223l25 2 14 3 56-1q12 2 15 2 5-1 16.5-9.5T326 210q-1-3-12.5-7.5T300 194l-5-23q-1-2-6-11.5t-4-16.5q0-3 2-9.5t2-7.5l-1-4-1-11-4-13q1-10 10-10 1-1 5.5.5t7 2 12.5-8T328 72q-2-6-39-12l2-7q-7-7-5-8l2-5q-4-3-6.5-2.5T277 43l-3 16q-2 2-5 4l-33-4-22 2q-7 0-15-1t-16.5 7.5-7 15.5 9.5 7q4-1 6-6zm31 66l2-20q26 0 41-4l-2 27q-19-3-27-1t-15 1zm5-65q31 0 42 3-1 15-5 24l-14-1q-4-5-6-5-2-1-8.5 2.5t-10 2.5-3.5-7l2-7zm0 103q5-8 4-9l-2-5q7-1 12.5.5t7.5 1.5l10-6 4-1q0 13 1 16l3 15q-4 1-6 2h-13l-8 2-7-4-6-1v-11zm-20 93q3 16 87 15l73-1 27-2 37 17q7 2 15 3 7 0 11.5-2t7.5-4l10-11 12-9q-4-4-6-5l-23-3q-4-1-24.5-12T399 235l-9-4q-4-13-6-14l-8-8q1-8 .5-10.5L375 191l-3-8-7-9-2-6q3-3 5-4l-4-17 2-11q0-3-1-7t-1.5-6.5 1.5-5.5l3-8 2-16 3-8V65l4-11v-9l1-12q-1-6-5-10l-13-12-8-9-8-5-4-7-11-10q-4-7-6-6-3 0-4 2l-7 12-8 2q-2 1-1 3 0 1 1 3l18 2q4 1 6 12.5t7 26 3 23.5q-7 21-5 47t1.5 42.5.5 21.5l13 51 2 13q2 12 14 29-5-3-7-3l-17 2-21-2-23 2-15-2-20 1q-6 0-16-2t-13 2l-25 19z" transform="matrix(1 0 0 -1 1536 409)"/>
    </symbol>
    <use width="256" height="64" fill="url(#logo)" xlink:href="#如是我闻"/>
</svg>
