<svg xmlns="http://www.w3.org/2000/svg" xmlns:xlink="http://www.w3.org/1999/xlink" width="84" height="30" version="1.1" viewBox="0 0 2800 1000">
    <symbol id="qed" viewBox="-70 0 2800 1000">
        <path fill="blue" d="M716 369q0 -178 -148 -305q-16 -12 -33 -28q26 -35 114 -53l-79 -60q-60 27 -87 56q-5 6 -11 14t-9 8q-15 0 -44 -6.5t-43 -6.5q-164 0 -262 77q-108 85 -108 244q0 145 97.5 252t244.5 117q7 1 32 -2l-1 -94q62 78 96 97l7 1q102 -40 165 -120q69 -86 69 -191z
M436 576 q-42 0 -54 -35q-7 -18 -7 -68v-106q0 -123 -4 -145q-7 -42 -45 -64q-13 -8 -137 -61q26 -37 78 -62q49 -24 97 -24q-28 30 -28 43q0 4 5 32q26 34 59 34q32 0 64 -22q13 -8 54 -44q7 3 30 25q76 73 76 207q0 94 -47 183q-55 107 -141 107z
M266 628q-68 -15 -111 -113 q-36 -81 -36 -163q0 -162 57 -235q91 25 91 100z
M446 28v4q2 21 -17 40.5t-41 19.5q-25 0 -25 -32q0 -16 13 -28.5t29 -12.5q26 0 41 9z
M946 60q-45 -27 -72 -72q-28 45 -73 72q45 27 73 72q27 -45 72 -72z
M1618 182q-4 -18 -35.5 -86t-38.5 -74q-16 -14 -94 -26q-67 -10 -101 -10q-144 0 -249 83q-111 90 -111 228q0 113 108 244q83 100 140 128h376l-237 -244h185l-58 -87l-212 -1l32 -102q-1 -17 -78 -94q-19 -18 -27 -30q11 -7 66 -13q44 -5 66 -5q124 0 268 89z
M1219 566 q18 -62 61 -186q63 57 187 185z
M1131 519q-43 -50 -60 -81q-26 -46 -26 -92q0 -138 110 -209q29 -19 35 -19q9 0 25 20t16 29q0 20 -44 170q-42 146 -56 182z
M1849 60q-45 -27 -72 -72q-28 45 -73 72q45 27 73 72q27 -45 72 -72z
M2449 336q0 -187 -175 -261q-32 -8 -86 -34q-65 -31 -105 -61q-13 2 -190 108l-1 60q28 14 73 38q33 18 41 67q4 20 4 85q0 121 -31 155q0 8 10 8q6 0 20.5 -4t18.5 -3q75 11 135 60q-51 22 -93 22q-22 0 -64 -9q-13 -2 -79 -21v113l124 12q167 0 276 -81 q122 -91 122 -254z
M2353 319q0 73 -39 138q-44 73 -113 84q-14 -2 -30 -17q-24 -16 -49 -32q-14 -19 -14 -144q0 -66 8 -104q5 -25 27 -37t22 -16q0 -12 -2 -12q-3 0 -28.5 2t-28.5 2q-92 0 -134 -24q74 -44 94 -54q62 -31 101 -31q83 0 138 84q48 74 48 161z
M2681 60q-45 -27 -72 -72q-28 45 -73 72q45 27 73 72q27 -45 72 -72z" transform="matrix(1 0 0 -1 0 800)"/>
    </symbol>
    <use width="2800" height="1000" x="0" y="0" xlink:href="#qed"/>
</svg>
