<svg xmlns="http://www.w3.org/2000/svg" xmlns:xlink="http://www.w3.org/1999/xlink" width="69" height="30" version="1.1" viewBox="0 0 2300 1000">
    <symbol id="qed" viewBox="-40 0 2300 1000">
        <path fill="blue" d="M462 313q0 -131 -122 -262q35 -25 70 -51q49 -42 49 -72q0 -14 -22 -29q-17 -12 -34 -23q-12 -8 -48 -47q-17 0 -14 7q0 2 9 16.5t9 15.5q0 18 -136 105q-30 13 -78 55q-44 37 -60 59q-82 112 -82 210q0 92 36 157q27 48 87 113q66 71 95 75q4 1 6 -3q3 -5 0 -7 q-28 -33 -56 -90q-47 -92 -54 -185q-8 -95 52 -183.5t135 -93.5q29 -2 57 46q26 43 26 75q0 45 -40 113q-37 60 -75 121q-40 73 -40 133q0 49 26 95q30 54 75 54q18 0 32 -10.5t14 -28.5q0 -27 -24 -27q-22 0 -22 22q0 2 5 21l-7 3q-17 0 -27 -21q-7 -16 -7 -36 q0 -40 43 -95q39 -50 79 -100q43 -66 43 -132z
M658 55q0 -5 -91 -68q-16 0 -27 39q-8 30 -8 52q0 39 32.5 63.5t66.5 48.5h10q-3 -4 0 -60q1 -20 9 -49.5t8 -25.5z
M1218 523q0 -25 -18 -39t-43 -14q-54 0 -69 48q-7 22 -7 86q0 60 -59 60t-75 -130q-6 -45 -6 -171h34q31 0 33 1q20 3 42 22q7 13 7 24q0 18 -22 40l23 2q15 0 27.5 -14.5t12.5 -28.5q0 -44 -15 -56q15 -10 17 -25q1 0 1 -27q0 -21 -18.5 -34t-39.5 -13l-16 1q20 10 23 47 q-7 33 -50 33q-7 0 -15.5 -1t-10.5 -1h-33q0 -13 -1 -47q-1 -39 -1 -60q0 -208 88 -208q59 0 86 44q23 37 18 93q-1 12 -1 22q0 66 46 66q13 0 23.5 -11t10.5 -24q0 -6 -8 -14t-15 -8l-14 3l-14 14q0 -2 -4 -8.5t-4 -10.5q0 -25 20.5 -72t20.5 -71q0 -30 -34 -48 q-30 -17 -57 -13l-158 22q-82 10 -143 10q-95 0 -96 -48q0 -11 16 -19t28 -8l3 2q6 22 32 24q8 0 15.5 -7t7.5 -14q0 -13 -21 -21q-17 -5 -32 -4q-39 2 -65 36l-4 17q0 34 49 56q57 26 69 50q24 48 24 231v100q0 130 -23 197q-10 29 -57 49q-41 17 -41 53q0 22 20 37t41 16 q52 4 52 -31q0 -17 -24 -17q-23 0 -27 25q-39 2 -39 -30q0 -42 81 -39q36 2 127 14q80 10 127 10q50 0 70 -24q15 -19 15 -59q0 -13 -2 -42.5t-2 -44.5q0 -33 15 -33l18 10q-6 9 -6 24q0 37 25 37q8 0 15 -13t7 -23z
M1402 55q0 -5 -91 -68q-16 0 -27 39q-8 30 -8 52q0 39 32.5 63.5t66.5 48.5h10q-3 -4 0 -60q1 -20 9 -49.5t8 -25.5z
M2027 339q-2 -194 -101 -275q-82 -67 -248 -67q-58 0 -140 8q-24 2 -46 -3q-32 -7 -30 -27q2 -34 29 -42l4 1q9 20 31 20q8 0 18 -6t10 -14t-16 -16.5t-26 -8.5q-71 0 -71 63q0 32 27 47q38 22 49 37q27 38 28 125v253q2 137 -17 185q-7 17 -31 27q-32 13 -38 18 q-19 16 -18 50q2 47 76 47q18 0 35.5 -10t17.5 -27q0 -8 -8.5 -14t-17.5 -6q-14 0 -21 6q-3 13 -9 28l-14 4q-12 0 -24 -10.5t-12 -20.5q2 -39 99 -39q20 0 46 2l28 2q40 1 114 1q145 0 216 -100q63 -87 60 -238z
M1888 315v71q0 88 -30 164q-41 101 -119 99q-40 -1 -59 -45 q-13 -32 -15 -90v-75v-248q-1 -71 6 -100q14 -60 62 -60q81 0 123 107q32 80 32 177z
M2224 55q0 -5 -91 -68q-16 0 -27 39q-8 30 -8 52q0 39 32.5 63.5t66.5 48.5h10q-3 -4 0 -60q1 -20 9 -49.5t8 -25.5z" transform="matrix(1 0 0 -1 0 800)"/>
    </symbol>
    <use width="2300" height="1000" x="0" y="0" xlink:href="#qed"/>
</svg>
