<svg xmlns="http://www.w3.org/2000/svg" height="48" width="48" viewBox="-11 0 1022 1024">
   <path fill="red" d="M288.18 32.302c77.576-5.792 152.376-11.114 224.4-15.965 72.024-4.85 145.009-5.713 218.953-2.585C805.476 16.88 857.34 26.02 887.12 41.17c41.705 21.218 64.514 28.856 68.427 22.916l-2.892-1.01c-10.635 4.6-8.42 29.873 6.64 75.818 15.199 46.368 26.715 120.864 34.55 223.486 7.832 102.622 8.986 206.292 3.46 311.01-5.526 104.72-18.32 177.727-38.383 219.022-18.403 37.874-26.106 61.256-23.112 70.147-3.353-9.958-25.141-8.634-65.363 3.973a442.378 442.378 0 00-11.787 3.884c-45.408 15.642-118.393 27.366-218.951 35.17-100.56 7.803-201.961 8.868-304.204 3.192-102.242-5.675-173.762-18.463-214.558-38.362-41.69-20.336-65.094-27.648-70.211-21.936l2.966-.972c6.799-9.204 2.93-34.846-11.61-76.93C26.083 824.24 14.225 748.77 6.52 644.172c-7.707-104.6-8.582-209.728-2.625-315.387 5.956-105.66 18.884-179.057 38.782-220.19C57.3 78.365 69.861 56.904 80.36 44.21c10.498-12.692 17.96-18.29 22.39-16.791 16.588 23.388 37.849 15.83 185.43 4.883zm499.019 126.469c-.459-.464-2.224-.571-5.293-.323-3.945.318-9.469.495-16.57.53-5.442.025-16.79-1.722-34.045-5.242-17.255-3.52-33.57-6.704-48.946-9.55-15.377-2.849-30.51-3.337-45.398-1.467-14.888 1.87-24.597 7.303-29.124 16.298-2.883 8.769-4.553 15.015-5.008 18.737-.456 3.724 1.722 7.945 6.534 12.663 4.81 4.717 9.8 8.614 14.965 11.688 5.166 3.073 11.929 8.347 20.288 15.818 8.36 7.471 15.859 15.82 22.5 25.05 7.032 9.775 16.85 30.091 29.458 60.95 12.606 30.86 24.414 59.19 35.426 84.99 11.01 25.8 25.8 47.739 44.366 65.815 18.566 18.075 38.044 23.738 58.437 16.99 20.619-6.824 34.52-23.228 41.701-49.213 7.18-25.985 8.512-54.481 3.994-85.488-4.518-31.007-10.707-60.108-18.565-87.305-7.858-27.197-15.713-47.736-23.564-61.614-6.396-11.307-12.774-19.406-19.135-24.297-6.36-4.89-11.398-6.804-15.112-5.74-3.715 1.063-7.307 1.712-10.778 1.946-3.47.234-5.515-.178-6.131-1.237zm-242.61.198c-10.163-12.227-24.188-18.36-42.074-18.396-17.886-.036-33.176 6.078-45.867 18.346-6.876 6.668-9.12 15.984-6.732 27.945 2.389 11.963 5.342 25.013 8.86 39.149 3.516 14.137.845 33.157-8.013 57.06-15.28 38.246-46.11 85.476-92.488 141.692-46.381 56.217-84.5 88.31-114.358 96.28-11.681 3.119-20.883 2.977-27.607-.423s-10.805-8.18-12.24-14.339c-1.435-6.159-3.627-11.826-6.58-17.001-2.953-5.176-6.498-7.98-10.636-8.411-4.138-.431-12.271 3.38-24.401 11.433-18.007 13.095-29.517 44.18-34.53 93.251-5.013 49.072-3.833 98.566 3.542 148.48 7.375 49.916 18.05 84.069 32.025 102.458 9.857 12.972 18.94 21.927 27.244 26.865 8.304 4.938 14.527 6.949 18.668 6.034s9.268-3.166 15.384-6.751c6.114-3.585 10.39-5.697 12.825-6.337 3.741-.983 7.557-.294 11.448 2.068.943.574 2.071-.5 3.384-3.222.52-1.078 3.724-8.604 9.615-22.577 4.8-11.39 5.358-34.862 1.671-70.418-3.688-35.557-7.083-67.593-10.187-96.109-3.104-28.516-.135-54.04 8.905-76.573 6.212-11.172 10.761-19.193 13.65-24.063 2.887-4.87 7.222-9.301 13.003-13.294 5.781-3.993 10.055-6.341 12.82-7.044 2.763-.702 10.368-2.56 22.814-5.572 12.445-3.01 23.537-5.882 33.274-8.616 24.612-6.908 57.622-12.36 99.032-16.356 41.41-3.995 83.942-4.759 127.596-2.291 43.654 2.469 75.42 9.125 95.3 19.968 12.702 6.93 22.542 12.835 29.519 17.714 6.977 4.879 12.278 10.208 15.906 15.984 3.627 5.775 5.963 10.669 7.008 14.68 1.045 4.011 2.534 10.928 4.47 20.753 1.934 9.826 4.15 18.91 6.646 27.256 3.223 12.853 3.797 30.74 1.725 53.661-2.074 22.922-5.215 45.356-9.424 67.3-4.209 21.944-6.068 43.194-5.573 63.747.493 20.554 4.917 34.889 13.272 43.005 11.46 11.131 22.675 17.276 33.65 18.433 10.973 1.157 19.56-.173 25.761-3.992 6.2-3.82 13.892-9.954 23.075-18.403 6.436-5.922 10.365-12.15 11.788-18.686 1.422-6.536 1.631-15.005.626-25.407-1.005-10.403-.82-25.17.556-44.303.35-4.798 4.238-30.256 11.666-76.372s10.752-84.854 9.975-116.212c-.78-31.359-7.992-53.303-21.64-65.835-10.223-9.386-19.524-13.294-27.906-11.726-8.382 1.57-15.648 5.894-21.797 12.973-6.15 7.079-14.73 12.209-25.738 15.388-11.01 3.18-24.252 1.687-39.729-4.478-31.987-13.95-70.35-51.268-115.09-111.952-44.74-60.684-71.623-109.295-80.644-145.831-3.823-15.477-4.414-29.322-1.771-41.536 2.64-12.213 6.39-20.79 11.246-25.73 4.856-4.941 8.404-10.717 10.647-17.332 2.242-6.613 1.051-12.058-3.57-16.336zm-157.79-.033c-13.145-10.833-43.687-15.646-91.627-14.438-47.941 1.209-81.893 6.21-101.854 15.007-9.903 4.365-17.047 6.063-21.43 5.096-.66-.146-1.083.358-1.264 1.51-1.02 6.44-3.745 15.333-8.173 26.676-58.775 150.534-58.775 236.469 0 257.802 16.931 6.145 34.256 3.388 51.97-8.27s34.141-29.241 49.278-52.743c15.136-23.503 28.87-47.228 41.2-71.174a2211.34 2211.34 0 0035.832-72.867c11.558-24.632 19.918-40.805 25.081-48.52 15.323-25.395 22.318-38.088 20.986-38.078zm200.135 494.106c-.16-1.614-2.928-1.982-8.303-1.104-5.375.878-13.172 1.382-23.39 1.508-5.39.068-20.314-.837-44.769-2.712-24.457-1.875-46.763-2.692-66.919-2.453-20.156.24-34.31 2.578-42.463 7.014-3.95 2.15-7.342 3.817-10.173 5.003-2.832 1.185-4.41 1.68-4.739 1.485-.328-.194-.634.032-.917.68-.284.647-.195 1.323.268 2.027.46.704.43 2.746-.094 6.125-.523 3.38-1.531 7.518-3.022 12.415-.473 1.556-2.33 7.211-5.572 16.967-3.242 9.756-5.675 17.653-7.296 23.692-1.62 6.04-3.732 14.559-6.334 25.558-2.602 10.999-3.993 20.727-4.176 29.18-.183 8.453.07 17.622.762 27.502.692 9.88 2.991 19.072 6.899 27.579a79.915 79.915 0 0015.717 22.798c24.118 24.56 63.417 36.944 117.901 37.155 54.485.212 94.039-12.174 118.661-37.155 14.902-15.306 23.104-36.25 24.606-62.831 1.502-26.581-.628-50.02-6.39-70.317-5.763-20.297-12.353-37.194-19.771-50.693-5.313-9.667-9.518-15.783-12.613-18.349-3.095-2.566-6.353-3.244-9.77-2.036-3.418 1.208-6.12 1.528-8.104.962z" />
</svg>