<svg xmlns="http://www.w3.org/2000/svg" height="48" width="48" viewBox="-10 0 2048 2048">
   <path fill="red" d="M272.271 80.97C235.03 93.473 224.913-44.049 98.545 217.184-27.824 478.417.68 1461.268 97.377 1741.155c96.697 279.887-101.888 73.045 157.71 199.673 259.597 126.629 1202.647 93.967 1475.424 0 272.778-93.967 72.494 107.505 200.525-156.007 128.03-263.513 91.516-1230.122.746-1507.033-90.77-276.912 114.97-63.519-144.35-195.447C1528.11-49.59 540.802 83.845 288.287 81.284c-252.514-2.561 21.224-12.816-16.017-.314zm1315.317 236.57c9.876 17.204 46.2-40.538 102.313 58.656 56.112 99.195 170.032 508.608-7.133 567.24-177.166 58.632-260.147-352.931-335.375-457.49-75.229-104.558-157.941-89.654-118.557-167.91 39.383-78.256 255.237.207 315.028-.083 59.792-.29 38.547-5.636 43.724-.413s-9.876-17.203 0 0zm-485.221.397c40.578 48.821-67.287 63.45-33.105 201.869 34.182 138.419 257.94 457.331 391.468 515.567 133.528 58.237 138.851-108.32 230.338-24.317 91.487 84.003 8.434 401.226 0 516.84-8.435 115.613 16.191 138.025-25.939 176.791-42.13 38.767-91.12 79.665-164.972 7.925-73.852-71.741 32.79-345.796 0-455.427-32.79-109.631.992-122.9-127.1-192.773-128.093-69.871-504.558-41.74-643.855-2.641-139.296 39.099-133.59 13.719-191.121 117.18-57.532 103.46 35.052 401.2-.779 486.198-35.83 84.998-13.258 38.104-48.895 47.463-35.636 9.358-63.655 71.685-148.24-39.621-84.587-111.307-117.15-604.695-2.076-688.382 115.073-83.686 34.5 91.766 162.93 57.484 128.428-34.283 359.158-339.444 413.694-475.947 54.535-136.503-38.922-199.148 11.77-248.308 50.69-49.16 135.303-48.723 175.882.099zm-315.58-.066c-3.616 14.081 26.421-26.058-41.973 76.155-68.394 102.212-226.287 572.642-406.723 507.148-180.435-65.494-36.713-421.567 0-515.6 36.714-94.035-11.207-34.42 61.735-66.564 72.941-32.144 341.29-47.511 386.96-1.14 45.67 46.373 3.616-14.08 0 0zm400.27 988.213c21.716 6.198 25.731-25.286 60.973 38.845 35.242 64.13 101.001 267.139 3.113 367.682-97.888 100.544-377.261 97.622-473.127 0-95.865-97.62-20.05-280.674 0-346.55 20.05-65.878-17.679-25.526 37.352-55.47 55.031-29.945 246.353-2.931 308.301-3.698 61.948-.767 41.673-7.007 63.389-.81z" />
</svg>