<svg xmlns="http://www.w3.org/2000/svg" xmlns:xlink="http://www.w3.org/1999/xlink" width="96" height="28" version="1.1" viewBox="0 0 96 28">
    <symbol id="a" viewBox="0 0 768 256">
        <path d="M122 49q0 12 1 23q0 1 1 6l1 5v3q0 5 -1 14q-2 9 -2 13q0 9 11 9q6 0 19 -1q12 -1 18 -1h13q2 1 3 1q5 0 5 -4q0 -1 -2 -4q-2 -1 -2 -2q1 -11 -3 -31q0 1 0 -2v-2q1 -16 -9 -16q-16 3 -18 13q1 4 4 4h3q2 -1 3 -1q4 0 6 22q1 9 2 11h-2h-1h-7h-26q-3 -1 -5 -4v-7 q0 -7 2 -19q1 -6 1 -9q1 -3 2 -21q0 -2 1 -6q2 -29 17 -28q16 0 41 16q1 0 5 3l4 2q4 3 5 4h1q5 0 5 -5q1 -1 -2 -3l-40 -22q-12 -6 -25 -6h-8q-23 9 -21 45z
M48 10q0 4 4 7q3 2 4 3l27 19q3 1 4 2h1q3 -1 3 -4q0 -6 -8 -6q-6 -5 -12 -9q-1 -1 -4 -3q-12 -11 -16 -11 q-3 0 -3 2z
M40 75q-1 1 -1 4t3 3q3 1 5 -2q4 -1 10 -6q1 0 3 -1q8 -3 8 -8q0 -3 -3 -4q-4 1 -7 4q-6 2 -18 10z
M55 117q-1 3 -1 4v2q1 0 2 1h2h2q5 -4 15 -10q1 -1 2 -1q5 -2 5 -7t-4 -5q-2 0 -4 3q-2 2 -4 3q-4 4 -15 10z
M147 137q0 2 1 6t1 7q1 3 -1 3h-42q-2 0 -3 -6 q-1 -9 -6 -9q-6 0 -7 9q-1 5 -3 6h-2q-12 2 -27 2h-8q-2 0 -5 -5t-7 -5q-9 1 -10 12q1 11 15 12q7 0 21 -2q13 -2 19 -2h4q1 0 2 4q0 8 4 8q5 0 7 -6q2 -5 5 -6q3 -3 30 -2h3q8 0 14 1q2 1 3 6q2 8 6 8t4 -3v-10h40q4 0 11 1q15 2 23 2q4 -1 5 -4q0 -5 -18 -7h-6 q-4 0 -27 -1t-27 -1q-4 -1 -6 -13t-7 -12q-6 1 -6 7z
M293 15q0 3 4 5q3 2 4 3q3 17 3 48q0 1 -1 5v3q1 3 -1 3q-3 0 -5 -2q-2 -1 -11 -10l-4 -4q-3 -4 -4 -5l-4 -4h-2h-4q0 1 -1 1v6l27 27q1 1 3 4q8 10 8 18q-1 18 -7 19q-1 0 -6 -4q-15 -13 -20 -13q-3 0 -4 3q0 4 15 15q12 9 12 11q0 3 -7 11q-7 7 -7 11t4 4q2 0 7 -8 q6 -10 10 -12q4 3 9 10q6 9 11 12q1 0 4 3h2q3 0 3 -6q0 -3 -6 -11l-3 -3l-13 -13q3 -5 5 -18q1 -6 2 -8q0 -2 1 -5q2 -3 2 -5q3 -11 2 -23q0 -35 -5 -70q-2 -8 -8 -8q-14 2 -15 10z
M335 45v5q0 11 8 11q9 0 27 -3t27 -3q6 0 5 8q1 10 1 25v12q0 2 -2 2h-21q-2 0 -6 -2t-7 -2 q-11 0 -11 12q2 9 9 10q6 0 17 -3q11 -2 16 -2h6q3 2 3 14v2v6q0 4 -3 4t-9 2q-13 2 -19 2q-3 0 -8 -2t-8 -2q-8 1 -9 9q2 9 9 10q4 -1 11 -3q5 -2 8 -3t9 -1h7q4 0 13 -1q16 -2 25 -2q6 0 16 1t15 1q10 0 10 -4q0 -2 -2 -3l-1 -1q-8 0 -22 -2q-22 -2 -33 -2l-1 -2v-5v-3 q-1 -13 5 -15h5q5 0 13 1h13h9q3 0 3 -2v-2q0 -6 -13 -7h-4h-7q-12 -1 -14 -1q-7 -1 -7 -37v-2q-1 -10 4 -10q7 -2 22 -1h7h21q14 2 24 2q11 0 11 -5q-2 -7 -48 -10q-34 0 -67 2q-12 2 -25 2q-5 0 -12 -3t-11 -3q-6 0 -9 6z
M719 2q-9 9 -30 24q-16 11 -24 18q-3 2 -9 11q-13 18 -20 17h-1q-1 -1 -2 -1q-1 -1 -10 -8q-10 -8 -11 -9h-1q-1 -2 -5 -4q-3 -3 -22 -21q-9 -8 -11 -10q-1 -1 -3 -1q-4 1 -4 4q1 1 1 2l1 1q5 7 11 9l41 41q1 0 4 6q1 1 2 3v13q-12 2 -27 3h-7q-8 0 -12 -1q-2 0 -6 -3 q-4 -4 -7 -4q-6 0 -9 6v4q-1 13 16 12h1q1 0 2 -1q27 -5 43 -5h10q6 1 6 19v4h-1q-1 1 -5 1q-13 2 -36 4q-1 0 -5 1h-3q-3 0 -9 -3q-6 -4 -10 -4q-9 0 -9 8q1 11 12 12h1q3 -1 9 -2q34 -7 52 -7h5q2 1 1 7v2q0 6 -1 12l-2 2q-2 3 -2 5q0 5 5 5q4 0 6 -3q1 -4 4 -9 q2 -7 0 -20l1 -1h10q9 0 25 2t24 2q11 0 11 -5q0 -4 -4 -4q-1 0 -4 1h-4q-5 0 -14 -2q-5 -1 -7 -1q-29 -1 -34 -2q-8 1 -7 -6q1 -20 12 -20q10 0 29 1t28 1h10q3 1 3 -3q0 -3 -6 -5h-1l-59 -2q-12 -2 -15 -16q0 -7 12 -15q3 -1 4 -2l2 -1q12 -8 12 -9q13 -10 43 -34 q1 -1 5 -4q8 -4 8 -9q0 -6 -7 -7q-4 0 -6 1z" transform="matrix(1 0 0 -1 0 204)"/>
    </symbol>
    <use width="96" height="32" x="0" y="0" xlink:href="#a"/>
</svg>
