<svg xmlns="http://www.w3.org/2000/svg" width="400" height="36" viewBox="0 0 6482.296 541.867">
   <path d="M6416.019 322.387q-26.823 17.069-69.739 29.26-42.428 12.193-75.102 12.193-13.655 0-33.163-17.07-9.753-8.777-29.26-25.846-56.571 18.044-70.714 21.458-34.625 8.29-74.127 8.29-14.143 0-39.99-5.852-31.7-7.315-31.7-16.093v-16.094q23.897-25.36 126.797-53.157 95.098-25.847 138.99-25.847 23.896 0 23.896 10.73 0 29.26-117.044 29.26-18.531 0-79.004 18.532-63.398 19.507-63.886 28.773 2.926 1.95 15.606 4.877 13.167 2.926 18.044 2.926h42.916q19.507 0 58.034-16.094 38.527-16.093 51.694-16.093 9.266 0 31.211 22.433 22.434 22.433 36.576 22.433 24.384 0 67.3-14.63 47.305-16.093 66.812-18.044zm-567.713-114.605q-20.97 0-20.97-15.118 0-6.34 4.876-15.606 5.365-9.753 10.73-14.142 4.388-1.463 12.679-5.365 21.945 1.463 21.945 15.606 0 8.778-10.728 21.945-10.242 12.68-18.532 12.68zm8.778 138.501q-62.91 0-62.91-42.916 0-23.408 1.95-30.236 4.877-17.069 22.433-17.069 12.192 0 12.192 11.217 0 6.828-4.389 20.483-3.901 13.167-3.901 19.994 0 14.143 38.039 14.143 20.97 0 62.423-9.753 41.452-9.754 62.423-9.754 7.803 0 7.803 9.266 0 11.217-60.96 23.896-52.182 10.73-75.103 10.73zm-62.987-28.773q0 17.557-104.851 27.31-72.665 6.828-129.723 6.828-44.867 0-83.881-6.828-63.886-11.216-63.886-35.6 0-34.626 130.21-54.62 91.196-14.143 164.348-14.143 4.877 0 14.63 7.803 9.755 7.802 9.755 12.68 0 20.97-89.246 20.97-3.414 0-9.266-6.828-5.364-7.315-9.753-7.315-31.7 0-100.462 11.216-85.832 14.143-85.832 30.237 0 5.852 16.093 8.778 7.315.487 20.97 2.438 40.966 8.29 104.852 8.29 34.137 0 101.437-9.753 67.3-10.241 100.95-10.241 13.655 0 13.655 8.778zm-378.173-6.827q-2.438 12.68-56.083 32.674-50.231 18.532-69.738 18.532-49.256 0-65.837-60.96-6.34-23.896-8.29-25.847-21.946 5.852-52.67 25.36-43.404 27.31-52.182 31.698-31.211 15.606-59.984 15.606-37.552 0-37.552-42.916v-20.97q0-15.118 1.951-19.995 3.414-9.266 16.581-9.266 8.778 0 8.778 12.192 0 4.39-1.95 12.68-1.463 7.803-1.463 11.704v19.508q0 14.142 13.167 14.142 24.872 0 62.423-21.945 29.26-18.044 58.034-35.6 44.866-26.336 57.546-26.336 11.705 0 15.606 24.872 6.34 39.014 9.266 46.33 10.241 24.871 37.064 24.871 19.994 0 61.935-17.556 42.428-18.044 48.768-18.044 10.241 0 14.63 9.266zm-415.64-239.939q-7.803-.488-43.404-8.778-25.847-5.852-45.354-2.439-8.778 1.463-17.557 8.779-8.29 7.315-9.266 16.093-9.753 76.078-32.674 216.042 4.877 1.463 12.68 2.926 1.463 0 41.452.488 27.31-2.438 86.32-2.926 2.438 1.95 8.778 6.34l1.463.975-13.655 14.143q-3.902 3.901-70.714 4.389-56.57.488-68.275-.488l-8.778 55.596-10.241 70.226q-8.29 54.132-14.143 66.324l-13.167 3.902-5.853-9.266 1.463-23.409 27.798-166.786q-8.29.975-17.069.975-37.063 0-38.526-12.68-.976-10.729 11.704-11.704 12.192.488 46.33-.488.975-7.803 9.753-79.004 2.926-23.896 13.168-89.733 3.901-20.97 8.778-40.965 7.803-30.724 20.482-47.305 2.439-3.414 18.044-7.315 15.606-3.902 39.503-2.439 18.531.976 40.965 6.828 31.211 8.29 30.724 19.507 0 3.902-3.902 8.29-3.414 4.39-6.827 3.902zm-213.147 246.278q-14.143 12.192-56.571 26.823-41.94 14.63-61.448 14.63-22.92 0-48.768-23.408-12.192-11.217-38.526-43.404-19.02-23.409-25.36-23.409-16.093 0-78.516 38.527t-77.054 38.527q-9.266 0-11.216-15.606v-22.92q0-57.06 15.606-57.06l11.704 4.877.975 6.34q0 5.365-2.438 16.094-1.951 10.24-1.951 15.605v20.97q2.438-.975 72.177-40.964 51.694-29.749 70.713-29.749 19.02 0 38.527 23.409 11.217 14.63 34.625 43.403 19.995 23.409 40.478 23.409 17.556 0 54.62-16.094 37.551-16.093 49.743-16.093 12.68 0 12.68 16.093zm-504.109-16.58q.488-.488 0-.488zm-.975 0zm.975 0zm-.975 0h.975l-.975-.488zm122.895 4.388q-8.29 8.291-11.216 10.73-6.828 5.852-13.168 7.802l-11.216.976q-12.68.975-39.503-1.463-30.723-2.927-40.965-2.927-16.58 0-26.334 2.927l-74.615 23.408q-44.867 13.655-79.005 13.655-171.175 0-170.2-40.965l.488-18.532q63.886-69.738 303.337-69.738l32.674 9.754-1.95 15.605-79.492-.975q-59.01-.488-121.433 11.704-78.028 15.606-110.215 43.404l10.241 12.68q37.551 12.68 118.994 12.68 67.3 0 116.068-17.07l-32.187-19.507q-3.902-6.827-3.902-11.216 0-10.242 18.045-13.655l16.58-1.463q19.508-1.951 41.454 4.876 24.871 7.316 34.625 21.458v.976h.975q0-.488.488-.976 10.241 0 30.724-.487h31.211q39.99 0 59.497 6.34zM3796.491 51.725q2.439-2.927-6.827-5.365-6.828-1.463-11.704-1.463-43.404 0-155.57 36.576-121.433 39.502-206.29 84.369-103.875 54.62-110.702 96.073l.975.487 3.414 15.606q28.773 26.335 88.27 39.99 48.28 11.216 98.023 11.216h79.492q68.763 0 174.102-13.167 120.945-15.118 172.151-35.6 14.143 1.95 14.63 12.191-15.118 21.946-170.687 42.916-133.625 18.044-189.22 17.069-110.704-1.95-165.812-10.729-126.796-20.482-126.796-79.004 0-47.793 107.777-108.265 88.758-49.743 217.018-91.684 119.969-39.014 169.225-39.014 16.093 0 27.31 5.364 15.118 6.828 15.118 20.97 0 27.31-71.202 67.3-46.817 26.335-125.333 55.596-92.66 34.137-129.236 31.699l-13.655-.975-10.24-15.118 2.437-8.779q23.41-20.482 100.463-35.6 107.777-20.97 132.16-28.773 70.714-22.434 90.71-63.886zM3168.84 317.022q-14.143 12.192-56.571 26.823-41.94 14.63-61.448 14.63-22.921 0-48.768-23.408-12.192-11.217-38.527-43.404-19.02-23.409-25.36-23.409-16.093 0-78.516 38.527t-77.053 38.527q-9.266 0-11.217-15.606v-22.92q0-57.06 15.606-57.06l11.704 4.877.976 6.34q0 5.365-2.439 16.094-1.95 10.24-1.95 15.605v20.97q2.438-.975 72.176-40.964 51.694-29.749 70.714-29.749 19.02 0 38.526 23.409 11.217 14.63 34.626 43.403 19.995 23.409 40.477 23.409 17.557 0 54.62-16.094 37.552-16.093 49.744-16.093 12.68 0 12.68 16.093zm-394.229 5.365q-26.822 17.069-69.738 29.26-42.428 12.193-75.103 12.193-13.655 0-33.162-17.07-9.754-8.777-29.261-25.846-56.57 18.044-70.713 21.458-34.626 8.29-74.128 8.29-14.143 0-39.99-5.852-31.699-7.315-31.699-16.093v-16.094q23.896-25.36 126.797-53.157 95.098-25.847 138.989-25.847 23.896 0 23.896 10.73 0 29.26-117.043 29.26-18.532 0-79.004 18.532-63.399 19.507-63.886 28.773 2.926 1.95 15.605 4.877 13.168 2.926 18.045 2.926h42.915q19.508 0 58.034-16.094 38.527-16.093 51.694-16.093 9.266 0 31.212 22.433 22.433 22.433 36.576 22.433 24.384 0 67.3-14.63 47.305-16.093 66.812-18.044zm-422.072-19.995q2.439 3.901 2.439 9.266l-2.926 12.192q-5.365 2.438-12.192 2.438-18.045 0-53.645-8.778-35.113-8.778-53.157-8.778-5.853 0-36.576 13.655-39.015 17.556-62.911 25.36-40.477 13.654-72.177 13.654-30.236 0-48.28-29.748-15.606-25.36-15.606-58.034V252.16q8.29-8.29 14.143-8.29 9.754 0 12.68 24.871 3.901 36.576 7.315 45.842 8.778 24.872 33.65 24.872 19.02 0 69.25-15.606 54.62-17.069 59.01-28.773-3.902-4.877-32.675-18.044-24.872-11.217-24.872-22.434 0-19.995 22.921-19.995 14.143 0 43.404 12.192 32.187 13.168 34.625 24.384 0 4.877 5.365 13.168 11.216 7.315 52.67 13.167 32.186 4.39 57.545 4.877zM1824.207 83.424q-.488 26.822-9.754 54.62-2.438 7.803-23.896 59.985-7.315 17.556-23.896 38.526-16.582 20.97-19.995 28.286-8.779 19.02-5.853 42.915-1.95 24.872 26.335 24.872 12.192 0 28.773-5.364l31.212-10.242q9.753-3.901 19.507-7.315 13.167-4.877 19.507-4.877 7.315 0 9.266 3.902.976 10.729-3.901 16.093-2.926 2.439-14.143 6.828-10.729 3.901-39.99 13.167-38.526 10.241-54.62 10.241-35.6 0-42.428-34.137-3.414-17.557.488-32.675 0-59.497 14.142-125.333 15.118-70.714 40.965-118.507 1.951-4.876 8.779-9.266 2.926-.975 5.852-2.438 21.458-1.463 29.26 15.606 4.877 11.216 4.39 35.113zm-56.083 41.453l-17.557 72.176q-.488 3.414-3.901 40.965 19.507-28.285 36.088-75.102 17.556-49.256 17.556-80.468 0-19.994-9.753-18.531-6.34 0-13.168 21.945-1.95 8.29-9.265 39.015zm-242.758 233.598h-55.596q-23.409 0-49.256-12.192-30.236-14.143-30.236-34.625 0-35.6 87.295-59.01 67.3-18.044 120.457-18.044 13.167 0 27.31 8.291 14.143 8.29 16.093 20.483-12.192 29.26-92.171 41.452-50.719 7.803-113.63 7.803-13.167 0-23.408 3.902 7.803 9.266 26.822 15.118 16.581 5.364 31.212 5.364h60.96q33.65 0 79.98-7.803 46.329-7.802 77.053-18.531 16.58-5.853 22.433-5.853 8.778 0 8.29 13.168-37.063 17.069-95.097 28.773-56.083 11.704-98.511 11.704zm83.88-99.974l-.975-1.463q-2.926-2.926-10.241-2.926h-18.532q-19.507 0-78.029 14.142-66.324 16.094-77.54 29.749 47.304-.488 107.776-9.266 79.492-11.704 82.906-27.798-3.414-.487-5.364-2.438zm-211.538 52.182l-3.902 8.29q-30.724 10.241-61.448 20.97-35.6 12.68-59.009 26.335-8.778 5.365-19.995 45.354-14.142 51.694-22.92 69.739-17.557 36.088-42.429 36.088-34.625 0-34.625-34.138 0-38.526 25.36-67.787 16.093-15.118 47.792-46.33 25.847-26.822 26.335-63.886-117.043 35.113-192.146 35.113-106.314 0-106.314-36.576 0-26.335 152.156-44.867 118.994-14.63 190.195-14.63 4.877 0 12.68 3.902 7.802 3.901 7.802 8.29 0 19.507-59.497 19.507-20.97 0-52.181-2.926l-33.163-2.438q-21.458 0-51.206 4.389-39.502 5.852-50.719 6.827-18.531 1.951-48.768 7.803-39.502 7.803-39.99 15.606 5.365 4.877 20.483 10.729 15.118 5.365 22.434 5.365h51.206q38.526 0 96.56-13.656 55.596-12.68 93.147-29.26l13.168 1.95q3.901 6.34 3.901 15.606 0 7.803-3.901 22.433-3.902 16.094-4.39 22.921 6.828-1.95 55.108-21.945 39.015-16.094 52.67-16.094zm-166.787 89.245q-50.719 39.99-50.719 76.078 0 12.192 5.365 23.409 21.458-18.044 30.236-45.842 4.877-18.044 15.118-53.645zM812.438 207.782q-20.97 0-20.97-15.118 0-6.34 4.877-15.606 5.364-9.753 10.729-14.142 4.389-1.463 12.68-5.365 21.945 1.463 21.945 15.606 0 8.778-10.729 21.945-10.241 12.68-18.532 12.68zm8.779 138.501q-62.911 0-62.911-42.916 0-23.408 1.95-30.236 4.877-17.069 22.434-17.069 12.192 0 12.192 11.217 0 6.828-4.39 20.483-3.9 13.167-3.9 19.994 0 14.143 38.038 14.143 20.97 0 62.423-9.753 41.453-9.754 62.423-9.754 7.803 0 7.803 9.266 0 11.217-60.96 23.896-52.182 10.73-75.102 10.73zm-59.825-41.453q0 16.582-53.645 36.089-47.305 17.069-69.738 17.069-39.502 0-117.53-49.744-62.912-39.99-104.852-80.467-18.044-17.069-61.448-28.773-41.453-11.217-51.206-22.433-1.95 22.433-3.902 82.417-1.95 54.62-4.876 81.93-1.951 16.094-10.242 16.094-6.827 0-12.192-8.778-4.876-7.315-4.876-14.63 0-6.34 3.413-11.217v-8.29q0-34.626 5.852-103.876 6.34-69.739 6.34-104.364 0-7.315-2.926-10.729-67.3 19.995-133.624 53.645-96.073 49.256-96.073 89.733 0 12.192 14.63 20.97 7.316 4.39 26.823 11.704 14.63 5.365 14.63 9.266-3.901 10.242-18.532 10.242-20.482 0-39.502-13.168-21.458-14.142-21.458-33.65 0-40.477 38.04-73.152 25.359-20.97 74.614-42.915 25.36-11.217 76.078-32.675 13.168-4.877 39.99-14.63 29.75-11.218 29.75-23.409 0-1.95-.976-3.901 4.39-4.39 8.779-4.39 3.413 0 9.265 5.365 5.853 5.364 9.266 5.364 8.291 0 24.384-5.364 24.384-8.29 24.872-8.29 59.01-15.606 70.226-18.045 40.965-8.778 71.689-8.778h44.867q39.99 0 72.664 10.729 46.33 15.118 46.33 47.305 0 59.985-95.098 95.585-58.522 21.946-144.353 31.7 65.349 55.107 100.462 79.491 72.176 50.231 110.215 50.231 22.433 0 63.399-19.02 41.452-19.507 46.817-19.507 13.655 0 13.655 9.266zM538.035 40.02q-78.03 0-178.979 29.261-11.704 2.438-35.113 7.803-23.409 4.877-23.409 21.458 0 5.364 1.951 11.704-.975 21.458 1.95 26.823 5.853-3.902 13.168-3.902 15.606 0 43.891 23.409 28.774 23.408 45.355 23.408 63.398 0 137.038-22.433 98.023-29.748 98.023-78.029 0-23.408-41.94-33.162-26.822-6.34-61.935-6.34z" />
</svg>