<svg xmlns="http://www.w3.org/2000/svg" width="50" height="36" viewBox="32 -15 400 256">
   <path d="M64.5 237h-20V-7h20v8h114v-8h20v244h-20v-18h-114zm0-28h20V105h20v14h34v-14h20v104h20V11h-114v83q22-25 23-63h24q1 33-47 74zm40-80v80h34v-80zm19-102l2-2q11 11 34 35 9 9 13 12-7 21-14 31-25-44-35-76zm108-16h82q-7-10-14-23l1-1q14 5 29 10 0 5-4 12v2h68v10h-28q-10 27-38 44 40 17 77 17-7 10-4 26-3 0-9-1-10-2-14-2v8h-56q0 22-18 30h60v-10h20v78q1 17-25 25 0-4-9-2l-13 2-1-4q31-8 28-17v-62h-20v66h-20v-66h-20v66h-20v-66h-20v80h-20v-98h20v8h34q3-12 2-30h-44v-10h116q-38-8-61-27-25 15-69 31h-14q39-15 74-38-24-22-36-48h-34zm84 47q21-19 26-37h-68q16 24 42 37z" />
</svg>