<svg xmlns="http://www.w3.org/2000/svg" viewBox="0 0 2434.168 541.867" height="36" width="144">
   <path d="M392.218 161.815q-16.459 9.754-13.41 26.822 1.218-1.219-10.974-1.219-4.876 0-12.801 4.877 3.657 1.829 12.192 7.315 9.144 5.487 9.144 18.288 0 4.877-6.706 10.363-6.705 5.487-10.973 5.487-4.876 0-10.972-3.048-5.487-3.048-5.487-7.315 0-6.096 5.487-7.925h5.486l1.22 6.096q1.218 4.877 4.876 4.877 3.048 0 7.925-4.268 1.829-9.753-3.048-15.85-4.877-6.095-12.192-6.095-9.144 0-16.46 5.486-13.41 10.363-17.678 12.802-1.22 0-4.877-1.22l78.03-59.74zm11.583-140.818q-93.27 66.447-93.27 73.152 0 9.754 20.118 26.213 17.069 14.02 22.555 15.24 10.363 2.439 32.918 5.487 0-1.22 1.22 4.876l-87.783 67.666q1.22 3.658 8.535 8.534 19.507 14.021 26.822 18.288 18.898 10.364 33.528 11.583 1.22.61 3.658 2.438-1.83 9.144-22.556 18.288l.61 91.44q1.829 3.048 7.925 9.144h4.267q5.486 0 11.582-4.877 6.096-5.486 11.583-6.096l1.829 1.22v4.876q-22.556 17.679-32.31 25.604-20.726 17.678-32.308 33.528-3.048 0-5.486-2.439-2.439-6.705-20.727-29.26-4.267-5.487-15.24-10.364-10.363-4.877-13.411-7.315 1.22-4.877 9.754-5.486 9.144-1.22 12.801-9.754 1.829-6.096 2.439-15.85.61-6.705 0-15.85-1.22-10.362-1.22-9.143 0-3.048.61-9.754.61-6.705.61-10.973 0-32.308-26.823-40.233-1.829-1.22-6.705-4.267-7.316-3.048-10.973-3.048-6.706 0-10.973 3.657v107.9q1.22.609 3.048.609l6.096-2.438q6.706-3.048 17.678-16.46 11.583-14.02 11.583-21.945 0-7.315-4.877-13.411-4.877-6.096-10.363-6.096-6.096 0-11.583 6.705 4.268 1.22 14.021 6.096v7.315q-5.486 4.877-10.363 4.877-10.973 0-10.973-16.46 0-6.095 9.144-10.362 6.706-3.048 12.192-3.048 9.144 0 14.63 8.534 5.487 7.925 5.487 15.24 0 17.679-11.582 26.823-10.973 8.534-56.693 34.747-36.576 20.117-55.474 42.672-13.411-15.85-39.014-28.651-24.994-12.802-42.672-12.802-27.432 0-27.432 18.288 0 13.411 15.85 15.85 1.828-1.22 1.828-3.048 0-.61-2.438-4.268-1.83-4.267-1.22-8.534 1.22-3.048 4.877-6.706 4.268-3.657 7.316-3.657 17.678 0 17.678 15.24 0 9.144-7.925 14.02-7.925 5.487-17.069 5.487-10.972 0-19.507-7.925-7.925-7.925-7.925-17.678 0-14.021 15.24-27.432 5.487-3.048 15.24-9.754.61-.61 31.09-19.507 17.678-11.582 21.946-24.994 4.267-13.41 4.267-56.083l-1.22-76.2q-1.219-8.534 0-35.966.61-23.165-4.267-35.357-3.048-9.144-12.192-10.973-8.534-1.829-15.85-3.048-.609 0-24.383-3.657-23.165-3.658-37.186-21.336-7.925-10.364-7.925-28.652 0-42.672 58.522-42.672 8.534 0 20.726 10.973 6.706 6.096 9.754 14.63 1.829 5.487 1.829 11.583 0 15.24-13.411 23.774-10.973 6.706-23.165 6.706-10.363 0-17.07-7.315-6.705-7.315-6.705-16.46 0-7.924 6.706-12.801t13.411-4.877q4.877 0 11.583 4.267 7.315 3.658 6.705 9.144-.61 4.268-3.048 14.021-.61 1.829 1.22 1.829 6.095 0 10.363-8.534 3.048-6.096 3.048-10.364 0-12.801-9.754-20.116-9.754-7.925-23.165-7.925T48.404 28.313Q36.822 38.676 36.822 52.087q0 20.726 17.068 32.309 14.63 9.753 32.919 9.753 34.747 0 72.542-22.555Q200.804 47.21 229.455 3.93q6.096 6.096 21.946 12.801h152.4zM118.508 187.418q0 4.877-5.486 7.315-4.877 2.439-9.144 4.268-21.946 15.24-21.946 28.65 0 15.24 35.966 36.577v6.096q-28.041 17.069-35.966 24.384-15.24 13.41-15.24 29.87 0 18.898 17.069 18.898 3.657 0 7.925-4.267v-3.658q-3.048-1.829-8.535-6.096-1.22-3.658 1.22-9.144 2.438-6.096 6.705-6.096 10.973 0 10.973 12.802 0 23.774-24.384 23.774-6.096 0-11.583-9.144-5.486-9.754-5.486-15.24 0-6.706 4.267-16.46l4.267-10.362q0-6.706-17.068-17.679-17.07-11.582-17.07-14.63t3.049-4.877q5.486-1.22 20.726-14.63 15.24-14.021 15.24-21.336 0-10.973-17.678-22.556-11.583-7.924-23.775-15.24-.61-3.048 7.316-6.705 10.363-5.487 10.972-6.096 24.384-19.507 31.7-34.747 3.048-5.487 3.048-14.63 0-2.44-3.658-9.145-3.048-6.705-7.315-6.705h-9.754l-1.829 2.438q1.22 3.048 5.487 5.486 4.267 2.439 4.267 7.316 0 3.048-3.658 6.096-3.657 2.438-5.486 2.438-12.192 0-12.192-13.411 0-6.096 6.096-10.363 6.706-4.877 13.411-4.877 9.754 0 15.24 8.534 5.487 7.925 5.487 16.46 0 1.219-3.658 10.972-3.658 9.754-3.658 10.973 0 8.534 17.07 21.336 17.068 12.192 17.068 13.411zm150.571 223.723q0 6.706-5.486 11.583-5.487 4.877-9.754 4.877-2.438 0-12.192-3.658v-8.534q2.439-5.487 6.706-5.487 4.877 0 9.144 7.925 4.267-2.438 4.267-7.315 0-5.487-7.315-9.144-7.315-3.658-14.021-3.658-17.678 0-50.597 23.775h-4.877q6.096-10.973 23.165-20.117 17.679-9.144 30.48-9.144 5.487 0 14.63 3.048 9.145 3.048 10.364 4.877zm51.816-338.937l-74.98-1.83q-4.268 0-11.583 3.049.61-3.048 1.22 15.24v45.72h4.266q22.556-18.288 78.03-56.693 3.047-2.438 3.047-5.486zm-94.488 35.357V70.375h-8.534l-3.048 3.048v77.42q4.877-1.83 9.753-5.487 1.83-6.096 1.83-37.795zm96.927 75.59q-4.877-2.438-13.412-7.315-7.924-5.487-20.726-14.63-10.363-11.583-29.26-30.48-1.22 1.219-14.631 9.143-8.535 5.487-9.754 10.364l1.22 63.398q9.753-4.267 21.945-14.63 15.85-12.802 15.85-21.946 0-14.63-14.021-14.63.61 0-9.144 4.267 1.219 1.219 2.438 3.048 9.144-1.22 9.144 7.315 0 6.706-7.925 6.706-9.753 0-9.753-14.021 0-12.192 17.069-12.192 5.486 0 10.972 4.877 6.096 4.876 6.096 12.192 0 6.096-1.828 9.144-8.535 15.24-23.165 26.212-7.315 4.268-17.679 14.021-1.828 3.658-1.219 13.411v6.706h4.267l45.11-30.48q26.214-18.288 38.406-30.48zM207.51 153.89l-1.22-81.687q-4.876-1.83-12.192-1.83-13.41 0-11.582 7.316l3.048 95.707q22.555-12.192 21.946-19.507zm89 121.31q-2.438-4.877-4.267 0zm-70.104-51.816v-67.056q-2.438-.61-6.096 2.438-3.657 3.048-3.657 4.267-.61 12.192.61 24.994-1.22 5.486-1.83 12.801v57.912q9.754-2.438 10.364-6.705 1.219-4.267.61-28.651zm2.439 138.379v-98.755h-5.487q-3.048 2.438-6.705 5.486v107.29q4.876 1.219 8.534-2.439 3.658-4.267 3.658-11.582zm-20.117 16.459v-17.069q-21.946-12.192-54.255-26.822-2.438-1.83-4.876-4.267l2.438-1.83h3.048q18.288 9.145 52.426 23.775l-1.22-182.27-13.41 8.534q-6.706 3.658-7.316 7.315.61 7.316 0 20.727-.61 14.63-.61 14.02 0 23.775 3.048 58.522 5.487 1.22 13.412 8.535-28.042 17.678-78.639 52.425-.61 1.22-.61 3.048 19.508 6.706 34.138 13.411 8.535 5.487 23.775 13.412 26.212 10.363 24.993 10.363 1.829 0 3.658-1.83zm433.95-10.972q-18.288 13.411-37.185 26.823-25.604 20.116-32.31 34.747-20.726-29.87-21.945-31.7-12.801-12.191-35.966-10.972-42.063 1.219-58.522 40.233-6.096-14.63-21.336-29.26-15.24-15.24-29.26-21.336 16.459-8.535 20.726-12.192 4.267-3.658 4.877-12.802v-23.774q0-30.48-3.658-35.357-3.048-5.487-14.02-12.192v-7.925q21.335 11.582 43.89 11.582 22.556 0 49.988-12.801 28.041-13.411 43.281-31.09 0-9.144.61-25.603-16.46-6.706-38.405-21.336-28.042-17.678-35.357-21.946-29.26 12.802-29.87 29.87-.61 9.754 7.925 16.46 8.534 6.096 18.897 6.096 7.315 0 24.994-7.315l3.048 1.219-1.22 4.877q-32.918 23.774-56.692 45.11l-4.877-1.22 3.048-8.533q-28.651-17.07-28.651-33.528 0-20.727 42.672-51.207 7.925-5.486 62.789-39.014 63.398 49.377 112.166 59.74-20.726 12.802-21.336 13.412-10.363 7.925-10.363 17.069v137.16q0 14.63 12.192 14.63 15.24 0 26.213-14.63zm-90.83-25.603l-.61-85.954q-19.507 17.679-49.377 31.7-18.898 8.534-20.727 23.774-1.219 8.534.61 40.234 1.219 24.993 30.48 24.993 20.726 0 29.87-7.315 9.754-7.315 9.754-27.432zM879.47 291.05q-11.583 11.583-34.748 33.528-20.726-16.46-20.726-60.96 0-7.315.61-20.726.61-13.411.61-18.898 0-45.11-52.426-45.11-19.508 0-24.994 10.363-4.267 7.315-4.267 28.651v133.503q43.281 28.65 46.94 28.65 1.218 0 14.63-10.362 14.02-10.364 15.85-11.583l3.657 6.706q-7.316 5.486-34.138 34.747-24.384 25.603-25.603 25.603-4.267 0-17.069-9.753-17.069-12.802-18.288-13.412-20.726-12.801-63.398-34.137h17.068q12.192 0 12.192-31.09 0-21.945-.61-65.227v-65.837q0-26.822-14.02-26.822-3.658 0-23.165 12.192l-4.877-7.925q11.583-9.144 34.138-28.042 6.096-6.705 12.802-13.41Q710 130.724 711.83 130.724q-1.22 0 20.116 19.508 21.336 19.507 42.063 19.507 19.507 0 34.137-14.63 8.535-7.925 21.946-31.09 12.192 16.459 31.7 35.966 6.705 3.048 19.506 9.754v4.877q-18.897 4.267-31.09 17.068-14.02 14.021-14.02 32.31v40.233q0 9.753 8.534 19.507 9.144 9.144 18.898 9.144 3.048 0 15.85-1.829zm255.403 119.482q0 24.384-17.069 43.281-20.117 21.946-56.083 46.33-6.706 4.267-62.18 37.795l-28.04-25.603q-18.898-15.85-31.7-15.85-8.534 0-14.02 3.048l-4.878-6.096q35.357-23.774 54.255-39.624 13.411-10.972 26.213-21.336 16.459-12.192 30.48-12.192 9.144 0 17.068 6.096 7.925 6.706 7.925 16.46 0 7.315-7.925 14.63-7.924 7.925-15.24 10.363 1.22-3.657 1.22-7.315 0-18.898-23.775-18.898-10.973 0-17.678 8.535-6.706 9.144-6.706 20.117 0 9.144 14.63 18.897 14.631 10.363 24.994 10.363 21.336 0 43.891-18.288 23.165-18.288 23.165-39.624 0-17.068-17.678-38.404-17.069-21.336-17.069-37.796 0-.61-1.22-5.486-46.329 39.624-75.59 62.789-22.555-21.336-43.89-33.528-8.535-3.658-24.385-10.973v-4.267q7.925-1.83 15.24-3.048 9.754-2.439 9.754-10.363v-107.9q0-40.233-15.85-46.939-4.267-1.22-12.801-4.267v-4.877q2.438-1.22 26.822-6.705 17.069-3.658 41.453-18.898 24.993-15.85 34.747-29.87 2.438-5.487 9.144-10.973 62.18 49.377 109.728 49.987v7.315q-24.994 10.973-24.994 26.823v141.427q0-1.83 14.021 17.069 14.021 18.897 14.021 37.795zm-76.81-65.837v-136.55l-62.179-37.796q-2.438 0-9.753 6.096l.61 185.319 26.212 21.336zm299.581-49.987q-1.829 37.185-24.384 61.57-9.754 11.582-45.11 35.966-28.042 19.507-37.796 38.405l-3.657-4.268q-6.096-9.753-28.042-19.507-21.336-9.753-33.528-9.753-14.63 0-31.09 12.192l-4.267-4.877q32.919-24.994 40.234-31.09 22.555-18.288 37.185-34.137-12.192-9.754-39.624-17.679-21.945-5.486-43.89-10.363 10.972-5.486 22.554-10.973 5.487-3.657 5.487-29.26 0-51.817-4.877-61.57-3.048-6.096-10.973-9.754-7.925-4.267-10.973-6.705 7.316-1.22 21.336-3.048 49.378-7.316 85.954-31.09 1.829-1.22 16.46-14.02 14.63-12.802 15.849-12.802l16.459 18.288q17.069 17.678 29.87 17.678 7.925 0 18.898-7.315l3.658 5.486-60.96 51.207q6.096 5.486 26.212 16.459 20.117 10.973 28.042 20.726 12.192 15.24 10.973 40.234zm-65.227-91.44q0-9.144-15.24-18.898-15.24-9.753-24.994-9.753-10.363 0-20.726 7.315-12.192 7.315-12.192 16.459v64.618q6.705-1.83 18.288-7.925 54.864-42.672 54.864-51.816zm28.65 126.797q0-28.042-21.335-48.159-20.727-20.117-49.378-20.117-9.753 0-20.117 4.268-12.801 5.486-12.801 14.02 0 1.22.61 3.658 37.795 18.288 46.939 18.288 4.876 0 11.582-6.096t8.534-6.096q5.487 0 4.877 4.877-51.206 37.795-58.521 48.768-2.439 3.657-2.439 10.973 0 10.363 17.069 19.507 15.24 7.925 27.432 7.925 18.898 0 32.918-16.46 14.63-16.459 14.63-35.356zm302.105-150.572q-15.85 6.706-19.507 9.754-7.925 6.096-7.925 18.898l-.61 135.94q0 16.46 11.583 26.213l12.192 9.754-30.48-.61q-19.507-.61-41.453 10.363-24.384 12.802-37.795 33.528l-6.706 7.316q-15.24-13.412-51.816-32.31-35.966-18.897-54.254-22.554-4.267-.61-10.363-1.83 29.87-15.849 30.48-33.527l.61-238.354q0-15.85-9.754-23.165-4.877-3.657-20.727-8.534l.61-1.22q32.309-3.657 71.323-34.137 37.186-28.651 65.227-29.26 29.261-1.22 46.94 14.02 17.678 14.63 16.459 37.795-.61 20.727-18.288 33.528-15.24 10.973-35.967 10.973-18.897 0-39.624-14.63l-9.144 3.657-1.829-3.657 40.234-42.672-1.829 10.973q0 6.705 9.754 12.192 10.363 5.486 20.726 5.486 26.213-.61 26.213-18.288 0-19.507-15.24-29.87-14.63-10.973-38.405-12.192-24.993-.61-42.062 24.993-14.63 21.946-14.63 49.987l-.61 111.557 92.05-66.446q34.747 41.453 64.617 46.33zm-73.762 22.556l-28.041-27.432-54.864 38.404v135.332q24.993 10.363 61.57 39.624l21.335-12.192zm85.992-18.289l61.57-51.815q21.336 27.432 53.645 45.72-6.706 2.438-14.021 4.876-6.706 1.83-9.754 10.364-2.438 8.534-2.438 16.459V352.62q.61 26.822 37.795 26.822 39.014 0 39.624-27.432V206.316q0-20.727-23.165-27.432v-2.439q15.85-6.705 24.384-13.41 8.535-7.316 15.24-17.07 4.267-7.315 9.144-14.63 1.22.61 6.706 9.144 11.582 19.507 48.158 42.672-4.877 0-13.411-.61-16.46.61-16.46 31.7v149.352q0 18.288 12.802 18.288 4.877 0 10.973-5.487 6.096-5.486 7.925-6.096 1.22 0 3.658 6.706-12.192 9.144-36.576 29.87-6.706 6.096-24.384 24.994-4.268-7.925-9.754-15.24-12.802-16.46-27.432-24.384-21.946-10.973-55.474-1.829-21.945 6.096-34.137 40.843-3.048-12.192-19.507-27.432-16.46-15.24-33.528-19.507-.61-3.658 5.486-5.486 6.096-1.83 11.582-3.048 7.316-3.658 10.973-25.604V205.706q-.61-28.651-17.069-28.651-3.048.61-20.726 10.973-1.22-1.22-1.829-4.267zm494.224 107.29q-11.582 11.583-34.747 33.528-20.727-16.46-20.727-60.96 0-7.315.61-20.726.61-13.411.61-18.898 0-45.11-52.426-45.11-19.507 0-24.994 10.363-4.267 7.315-4.267 28.651v133.503q43.282 28.65 46.94 28.65 1.219 0 14.63-10.362 14.02-10.364 15.85-11.583l3.657 6.706q-7.315 5.486-34.138 34.747-24.384 25.603-25.603 25.603-4.267 0-17.069-9.753-17.068-12.802-18.288-13.412-20.726-12.801-63.398-34.137h17.069q12.192 0 12.192-31.09 0-21.945-.61-65.227v-65.837q0-26.822-14.02-26.822-3.658 0-23.165 12.192l-4.877-7.925q11.582-9.144 34.137-28.042 6.096-6.705 12.802-13.41 10.363-10.974 12.192-10.974-1.22 0 20.117 19.508 21.336 19.507 42.062 19.507 19.507 0 34.138-14.63 8.534-7.925 21.945-31.09 12.192 16.459 31.7 35.966 6.705 3.048 19.507 9.754v4.877q-18.898 4.267-31.09 17.068-14.02 14.021-14.02 32.31v40.233q0 9.753 8.534 19.507 9.144 9.144 18.897 9.144 3.048 0 15.85-1.829zm255.404 119.482q0 24.384-17.07 43.281-20.116 21.946-56.083 46.33-6.705 4.267-62.179 37.795l-28.041-25.603q-18.898-15.85-31.7-15.85-8.534 0-14.02 3.048l-4.877-6.096q35.357-23.774 54.254-39.624 13.411-10.972 26.213-21.336 16.46-12.192 30.48-12.192 9.144 0 17.069 6.096 7.925 6.706 7.925 16.46 0 7.315-7.925 14.63-7.925 7.925-15.24 10.363 1.219-3.657 1.219-7.315 0-18.898-23.774-18.898-10.973 0-17.679 8.535-6.705 9.144-6.705 20.117 0 9.144 14.63 18.897 14.63 10.363 24.994 10.363 21.336 0 43.89-18.288 23.166-18.288 23.166-39.624 0-17.068-17.679-38.404-17.069-21.336-17.069-37.796 0-.61-1.219-5.486-46.33 39.624-75.59 62.789-22.555-21.336-43.891-33.528-8.535-3.658-24.384-10.973v-4.267q7.924-1.83 15.24-3.048 9.753-2.439 9.753-10.363v-107.9q0-40.233-15.85-46.939-4.267-1.22-12.801-4.267v-4.877q2.438-1.22 26.822-6.705 17.07-3.658 41.453-18.898 24.994-15.85 34.747-29.87 2.439-5.487 9.144-10.973 62.18 49.377 109.728 49.987v7.315q-24.993 10.973-24.993 26.823v141.427q0-1.83 14.02 17.069 14.021 18.897 14.021 37.795zm-76.81-65.837v-136.55l-62.18-37.796q-2.438 0-9.753 6.096l.61 185.319 26.212 21.336z" />
</svg>