<svg xmlns="http://www.w3.org/2000/svg" width="100" height="36" viewBox="0 0 875 256">
   <path d="M125.3 176.623q0-14.407 1.2-27.613 0-1.2 1.2-7.203l1.2-6.003v-3.602q0-6.003-1.2-16.808-2.4-10.805-2.4-15.607 0-10.805 13.2-10.805 7.2 0 22.8 1.2 14.4 1.2 21.6 1.2h15.6q2.4-1.2 3.6-1.2 6 0 6 4.802 0 1.201-2.4 4.803-2.4 1.2-2.4 2.4 1.2 13.207-3.6 37.218v4.802q1.2 19.21-10.8 19.21-19.2-3.602-21.6-15.608 1.2-4.802 4.8-4.802h3.6q2.4 1.2 3.6 1.2 4.8 0 7.2-26.412 1.2-10.805 2.4-13.206h-43.2q-3.6 1.2-6 4.802v8.404q0 8.404 2.4 22.81 1.2 7.204 1.2 10.806 1.2 3.602 2.4 25.212 0 2.401 1.2 7.203 2.4 34.817 20.4 33.616 19.2 0 49.2-19.209 1.2 0 6-3.602l4.8-2.4q4.8-3.602 6-4.803h1.2q6 0 6 6.003 1.2 1.2-2.4 3.601l-48 26.413q-14.4 7.203-30 7.203h-9.6q-27.6-10.805-25.2-54.025zm-88.8 46.822q0-4.802 4.8-8.404 3.6-2.401 4.8-3.602l32.4-22.81q3.6-1.201 4.8-2.402h1.2q3.6 1.201 3.6 4.803 0 7.203-9.6 7.203-7.2 6.003-14.4 10.805-1.2 1.2-4.8 3.602-14.4 13.206-19.2 13.206-3.6 0-3.6-2.401zm-9.6-78.037q-1.2-1.2-1.2-4.802 0-3.602 3.6-3.602 3.6-1.2 6 2.401 4.8 1.2 12 7.204 1.2 0 3.6 1.2 9.6 3.602 9.6 9.605 0 3.602-3.6 4.802-4.8-1.2-8.4-4.802-7.2-2.401-21.6-12.006zm18-50.424q-1.2-3.601-1.2-4.802v-2.4q1.2 0 2.4-1.201h4.8q6 4.802 18 12.005 1.2 1.2 2.4 1.2 6 2.402 6 8.405 0 6.003-4.8 6.003-2.4 0-4.8-3.602-2.4-2.401-4.8-3.602-4.8-4.802-18-12.006zm110.4-24.01q0-2.402 1.2-7.204t1.2-8.404q1.2-3.602-1.2-3.602h-50.4q-2.4 0-3.6 7.204-1.2 10.805-7.2 10.805-7.2 0-8.4-10.805-1.2-6.003-3.6-7.204h-2.4q-14.4-2.401-32.4-2.401h-9.6q-2.4 0-6 6.003t-8.4 6.003q-10.8-1.2-12-14.407 1.2-13.206 18-14.407 8.4 0 25.2 2.401 15.6 2.401 22.8 2.401h4.8q1.2 0 2.4-4.802 0-9.604 4.8-9.604 6 0 8.4 7.203 2.4 6.003 6 7.203 3.6 3.602 36 2.401h3.6q9.6 0 16.8-1.2 2.4-1.2 3.6-7.203 2.4-9.605 7.2-9.605 4.8 0 4.8 3.602v12.005h48q4.8 0 13.2-1.2 18-2.401 27.6-2.401 4.8 1.2 6 4.802 0 6.003-21.6 8.404h-7.2q-4.8 0-32.4 1.2-27.6 1.201-32.4 1.201-4.8 1.2-7.2 15.607-2.4 14.407-8.4 14.407-7.2-1.2-7.2-8.404zm175.2 146.468q0-3.602 4.8-6.003 3.6-2.4 4.8-3.601 3.6-20.41 3.6-57.628 0-1.2-1.2-6.002v-3.602q1.2-3.602-1.2-3.602-3.6 0-6 2.401-2.4 1.2-13.2 12.006l-4.8 4.802q-3.6 4.803-4.8 6.003l-4.8 4.802h-7.2q0-1.2-1.2-1.2v-7.204l32.4-32.415q1.2-1.2 3.6-4.802 9.6-12.006 9.6-21.61-1.2-21.61-8.4-22.811-1.2 0-7.2 4.802-18 15.608-24 15.608-3.6 0-4.8-3.602 0-4.802 18-18.009 14.4-10.805 14.4-13.206 0-3.601-8.4-13.206-8.4-8.404-8.4-13.206t4.8-4.802q2.4 0 8.4 9.604 7.2 12.006 12 14.407 4.8-3.602 10.8-12.006 7.2-10.805 13.2-14.407 1.2 0 4.8-3.601h2.4q3.6 0 3.6 7.203 0 3.602-7.2 13.206l-3.6 3.602-15.6 15.607q3.6 6.003 6 21.61 1.2 7.204 2.4 9.605 0 2.401 1.2 6.003 2.4 3.602 2.4 6.003 3.6 13.206 2.4 27.613 0 42.02-6 84.04-2.4 9.604-9.6 9.604-16.8-2.401-18-12.006zm50.4-36.017v-6.003q0-13.206 9.6-13.206 10.8 0 32.4 3.602 21.6 3.601 32.4 3.601 7.2 0 6-9.604 1.2-12.006 1.2-30.014v-14.407q0-2.401-2.4-2.401h-25.2q-2.4 0-7.2 2.401-4.8 2.401-8.4 2.401-13.2 0-13.2-14.407 2.4-10.805 10.8-12.005 7.2 0 20.4 3.601 13.2 2.402 19.2 2.402h7.2q3.6-2.402 3.6-16.808v-9.605q0-4.802-3.6-4.802t-10.8-2.401q-15.6-2.401-22.8-2.401-3.6 0-9.6 2.4-6 2.402-9.6 2.402-9.6-1.2-10.8-10.805 2.4-10.805 10.8-12.006 4.8 1.2 13.2 3.602 6 2.401 9.6 3.602 3.6 1.2 10.8 1.2h8.4q4.8 0 15.6 1.2 19.2 2.402 30 2.402 7.2 0 19.2-1.2 12-1.201 18-1.201 12 0 12 4.802 0 2.401-2.4 3.602l-1.2 1.2q-9.6 0-26.4 2.401-26.4 2.401-39.6 2.401l-1.2 2.402v9.604q-1.2 15.607 6 18.009h6q6 0 15.6-1.201h26.4q3.6 0 3.6 2.401v2.401q0 7.204-15.6 8.404h-13.2q-14.4 1.2-16.8 1.2-8.4 1.201-8.4 44.422v2.4q-1.2 12.006 4.8 12.006 8.4 2.402 26.4 1.201h33.6q16.8-2.401 28.8-2.401 13.2 0 13.2 6.003-2.4 8.404-57.6 12.005-40.8 0-80.4-2.4-14.4-2.402-30-2.402-6 0-14.4 3.602t-13.2 3.602q-7.2 0-10.8-7.204zm436.8 51.624q-10.8-10.805-36-28.813-19.2-13.206-28.8-21.61-3.6-2.401-10.8-13.207-15.6-21.61-24-20.41h-1.2q-1.2 1.201-2.4 1.201-1.2 1.201-12 9.605-12 9.604-13.2 10.805h-1.2q-1.2 2.401-6 4.802-3.6 3.602-26.4 25.212-10.8 9.605-13.2 12.006-1.2 1.2-3.6 1.2-4.8-1.2-4.8-4.802 1.2-1.2 1.2-2.401l1.2-1.2q6-8.405 13.2-10.806l49.2-49.223q1.2 0 4.8-7.203 1.2-1.2 2.4-3.602v-15.607q-14.4-2.401-32.4-3.602h-8.4q-9.6 0-14.4 1.2-2.4 0-7.2 3.602-4.8 4.803-8.4 4.803-7.2 0-10.8-7.204v-4.802q-1.2-15.607 19.2-14.407h1.2q1.2 0 2.4 1.2 32.4 6.004 51.6 6.004h12q7.2-1.201 7.2-22.811v-4.802h-1.2q-1.2-1.201-6-1.201-15.6-2.401-43.2-4.802-1.2 0-6-1.2h-3.6q-3.6 0-10.8 3.6-7.2 4.803-12 4.803-10.8 0-10.8-9.604 1.2-13.207 14.4-14.407h1.2q3.6 1.2 10.8 2.4 40.8 8.405 62.4 8.405h6q2.4-1.2 1.2-8.404v-2.401q0-7.204-1.2-14.407l-2.4-2.401q-2.4-3.602-2.4-6.003 0-6.003 6-6.003 4.8 0 7.2 3.602 1.2 4.802 4.8 10.805 2.4 8.404 0 24.011l1.2 1.2h12q10.8 0 30-2.4 19.2-2.401 28.8-2.401 13.2 0 13.2 6.002 0 4.803-4.8 4.803-1.2 0-4.8-1.2h-4.8q-6 0-16.8 2.4-6 1.2-8.4 1.2-34.8 1.201-40.8 2.402-9.6-1.2-8.4 7.203 1.2 24.012 14.4 24.012 12 0 34.8-1.2 22.8-1.201 33.6-1.201h12q3.6-1.201 3.6 3.601 0 3.602-7.2 6.003h-1.2l-70.8 2.401q-14.4 2.401-18 19.21 0 8.403 14.4 18.008 3.6 1.2 4.8 2.4l2.4 1.201q14.4 9.605 14.4 10.805 15.6 12.006 51.6 40.82 1.2 1.2 6 4.802 9.6 4.802 9.6 10.805 0 7.203-8.4 8.404-4.8 0-7.2-1.2z" />
</svg>