<svg xmlns="http://www.w3.org/2000/svg" xmlns:xlink="http://www.w3.org/1999/xlink" width="640" height="80" viewBox="0 15 640 80">
<style>
    g { fill: url(#TitleGradient); }
</style>
    <defs>
        <linearGradient id="TitleGradient">
            <stop offset="0%" stop-color="black"/>
            <stop offset="0%" stop-color="gold">
                <animate attributeName="offset" dur="6s" repeatCount="indefinite" values="0;.25;.5;.75;1;.75;.5;.25;0;"/>
            </stop>
            <stop offset="100%" stop-color="black"/>
        </linearGradient>
    </defs>
    <symbol id="Title" viewBox="150 -204 10000 1300">
        <g>
            <path transform="matrix(1 0 0 -1 0 820)" d="M398 518q36 4 66 27q6 6 12 10q16 1 36 2q1 1 6 0q28 -13 62 -22q24 -7 41 -24q31 -31 62 -28q27 1 38 28q6 15 -6 36q-10 16 -51 35q-37 18 -56 41v6q18 7 47 28q22 15 37 40q13 19 10 46q-1 16 -12 25q-25 18 -44 11q-28 -13 -41 -34q-15 -25 -44 -52q-6 -4 -11 -9
q-7 1 -17 0q-18 0 -47 -3q-10 4 -21 12q-25 21 -42 42q-19 22 -40 31q-21 7 -39 1q-13 -4 -22 -18q-6 -13 -3 -28t23 -36q24 -25 48 -35q16 -4 29 -15q-1 -13 -2 -32q-15 0 -29 -13q-15 -13 -33 -16q-28 -1 -49 -7q-19 -3 -33 -10q-19 -10 -31 -10q-12 1 -25 -10
q-10 -7 -10 -17q1 -13 22 -24q27 -13 63 -3q7 3 25 0q19 -3 42 10q19 13 39 15zM135 416q-31 10 -63 -16q-18 -13 -17 -39q1 -22 23 -34q22 -10 51 -2q42 7 86 16q25 6 39 21q10 10 5 27q-4 12 -36 20q-27 10 -49 3q-16 -3 -39 4zM507 38q-1 -6 -2 -15q0 -7 -2 -16
q-1 -7 -1 -13q0 -7 -2 -12q-1 -6 -3 -13q0 -7 -4 -16q-4 -25 -3 -49q4 -24 17 -40q13 -12 26 -13q15 -1 28 9q10 10 17 31q4 24 3 53q-3 10 -4 18q-1 6 -1 11q0 4 -3 11q-1 4 -1 9q0 4 -2 10q-1 7 -1 13q3 34 -10 63q-13 28 -24 29q-9 -1 -20 -20q-4 -9 -3 -19q0 -16 -5 -31
zM695 448q-45 4 -105 -1q-42 -1 -73 -3l-15 10q-1 1 -4 3q4 22 -13 38q-18 19 -38 16q-22 -6 -25 -16q-13 -18 -6 -35q0 -1 1 -4q-4 -3 -9 -8q-4 -3 -7 -6q-27 -1 -52 -8q-28 -7 -50 -19q-16 -10 -15 -27q3 -15 22 -20q25 -7 43 -4q10 1 26 3q7 -7 13 -18q-10 -16 -27 -44
q-13 -21 -36 -39q-15 -13 -37 -22t-41 -27q-13 -13 -34 -22q-16 -7 -35 -17q-16 -7 -34 -6q-19 -3 -38 0q-21 3 -35 -10q-16 -13 -14 -31q1 -22 21 -36q19 -12 45 -11q24 -4 66 16q10 4 22 8q18 3 28 13q10 9 27 19q1 1 3 2q-7 -27 -5 -53q6 -61 14 -82q4 -13 6 -26
q-1 -6 7 -18q4 -10 8 -18q4 -7 20 -9q10 0 20 20q4 12 5 25q0 22 3 35q6 31 1 40q-4 9 -4 35q1 28 1 53q-1 6 -2 11q4 6 9 10q6 7 19 14q31 1 78 21q7 4 23 4q3 -1 9 -6q15 -9 26 -24q0 -1 1 -4q4 -13 6 -28q1 -15 11 -20q16 -7 29 12q7 16 10 37q13 16 30 27q1 1 3 2
q19 4 43 10q37 10 70 -8q13 -9 30 -19q12 -4 20 -17q13 -19 12 -44q-3 -22 3 -64q1 -22 -11 -44q-10 -13 -26 -13q-15 -1 -30 4q-19 7 -33 19q-19 19 -34 17q-25 -1 -29 -19q-1 -10 12 -42q19 -25 28 -29q12 -4 17 -11q-1 -6 17 -15q15 -10 31 -10q12 0 25 -2q16 0 24 8
q12 12 22 11q16 1 28 15q12 16 11 45q-4 25 9 46q16 21 19 31q3 19 9 38q10 22 1 46q-4 19 -18 41q-12 19 -23 26q-16 6 -22 16q-28 31 -53 25q-21 -4 -36 2q-34 22 -71 9q-16 -4 -36 -8q-16 9 -25 16q-4 4 -7 6q1 9 3 19q4 18 1 25q-15 24 -38 22q-28 -1 -40 -28
q-12 -18 -6 -46l-2 -2q-10 -9 -25 -19q-4 1 -9 2q-25 6 -44 1q-7 -1 -14 -5q9 10 17 21q28 37 42 70q15 16 35 25q16 3 37 5q52 7 85 0q25 -4 48 -2q19 3 39 -6q13 -6 55 -6q43 -1 96 -29q37 -16 73 -7q28 9 33 29q6 19 -6 37q-16 19 -46 29q-31 10 -67 4q-19 -3 -57 9
q-51 10 -89 14v0z" />
            <path transform="matrix(1 0 0 -1 0 820) translate(1024 0)" d="M68 262q1 -13 -2 -24q-3 -7 -2 -17t3 -23q1 -16 -3 -42q-4 -28 -2 -47q4 -19 21 -29q22 -10 37 -1q16 18 18 42q1 25 -2 47q-3 15 -1 25q4 31 2 52q-7 19 -6 37t-9 40q-4 10 -15 12q-19 -3 -28 -26q-10 -30 -11 -46zM462 327q7 37 2 93q-4 61 -1 80q6 28 -18 60
q-24 31 -59 33q-31 -1 -63 -2q-10 10 -17 20q-3 4 -5 8q1 22 6 49q9 42 1 56q-16 25 -40 24q-30 -1 -43 -29q-12 -22 -4 -54q4 -28 7 -54q-10 -10 -24 -22q-16 -1 -31 -3q-22 0 -38 -3q-10 9 -27 9q-24 -1 -36 -22q-12 -22 -5 -68q3 -13 3 -21q-1 -10 1 -37q1 -19 4 -36
q0 -37 9 -47q4 -7 15 -6q7 -1 15 8q10 12 16 37q7 22 6 32q0 13 4 24q3 7 2 19q-1 6 0 12q3 9 8 14q4 7 16 15q4 1 13 2q13 6 30 10q1 -1 3 -4q10 -10 18 -28v-7q-6 -25 -1 -44q7 -30 8 -60q1 -16 11 -22q16 -7 30 13q12 19 12 52q1 16 5 35q4 28 6 47q1 3 5 4q13 13 28 20
q36 -7 49 -27q7 -21 12 -34q6 -13 5 -37q-1 -36 -3 -63q0 -21 -10 -38q-10 -21 -21 -31q-15 -13 -29 -14q-22 1 -41 18q-6 3 -11 4q-1 4 -2 6q-13 30 -25 30q-10 -1 -21 -20q-4 -10 -3 -21q-1 -16 -5 -33q-7 -22 -3 -54q1 -28 -3 -56q-4 -25 -2 -49q3 -22 -4 -43
q-4 -21 -4 -48q0 -24 -11 -58q-4 -25 -3 -52q4 -24 18 -42q13 -12 28 -13t29 10q12 10 18 32q4 25 2 56q-6 40 -1 74q-4 24 0 44q4 19 -2 47q-3 19 0 37q4 19 0 41v17l8 -2q13 -1 22 -3q25 -7 49 3q6 7 10 7q10 1 19 12q9 12 17 15q13 4 27 31q9 16 19 47zM929 284
q10 58 0 117q-6 33 -17 52q-12 21 -26 31q-13 10 -23 21q-9 13 -31 23t-61 9q-7 4 -12 11q-10 9 -18 18q1 4 3 10q1 13 8 22q4 10 7 19q1 19 7 32q7 22 5 40q-3 24 -19 38q-13 12 -29 9q-27 -7 -37 -21q-7 -15 -8 -36q1 -24 -2 -39q-1 -7 -2 -16q3 -13 0 -28q-1 -10 0 -18
q0 -1 1 -3q-9 -15 -19 -26q-3 -1 -7 -6q-9 0 -16 -4q-34 -12 -49 -31q-13 -19 -9 -36q4 -16 25 -21q18 -4 53 17q9 3 23 4q12 1 27 -1q15 -1 32 -3q16 -3 38 -9q31 -3 52 -28q19 -19 23 -65q7 -33 13 -60q4 -27 -5 -82q-7 -37 5 -89q6 -76 -8 -116q-10 -24 -34 -34
q-18 -7 -39 -3q-10 3 -22 0q-15 -1 -25 0q-22 4 -49 -4q-10 -6 -20 -5q-7 3 -30 -3q-42 -18 -62 -14q-18 7 -30 25q-10 30 -2 82q10 34 3 61q-4 16 0 33q9 12 21 20q10 7 32 16q4 0 9 -2q24 -6 40 -2q19 4 48 5q28 1 45 12q22 10 26 28q0 13 -14 21q-12 7 -50 14
q-18 3 -48 9q-24 4 -61 -7q-1 0 -3 -1q-4 3 -7 5l-20 12q1 10 -3 23q-4 24 3 37q9 16 8 46q-1 28 -12 43q-12 13 -30 11q-16 -1 -30 -33q-10 -31 -13 -73q-4 -52 -2 -79q4 -76 -7 -112q-12 -28 -7 -59q7 -40 1 -81q-4 -31 13 -67q16 -28 39 -48q22 -19 37 -19q12 4 28 2
q12 0 26 8q7 4 18 5q10 -3 18 1q7 4 25 5q15 -1 33 4q24 4 61 -4q48 -12 78 0q22 4 47 15q34 28 37 53q4 19 13 32q10 16 9 42q6 43 -4 75q-10 19 -6 41q6 16 -4 49q-13 43 -8 80v0z" />
            <path transform="matrix(1 0 0 -1 0 820) translate(2048 0)" d="M298 -22q-7 -4 -17 -5q-7 1 -15 -3q-7 -4 -15 -2q-9 1 -25 -1q-13 -3 -23 -2q-15 1 -20 -4q-6 -6 -15 -7q-12 -4 -20 -16q-10 -16 -10 -29q-1 -13 5 -20q6 -4 9 -12q4 -9 23 -13q22 -6 38 3q15 9 34 8q22 1 42 14q21 10 41 34q4 4 16 9q16 4 31 23q13 15 8 31
q-7 16 -31 18q-22 -1 -56 -26zM744 -67q7 -4 13 -11q10 -13 28 -26q16 -10 40 -14q16 -4 22 -11q16 -13 42 -16q13 -1 26 6q19 9 22 24q7 15 1 34q-4 19 -23 32q-21 16 -58 19q-13 0 -24 10q-10 6 -22 7q-10 -1 -34 3q-12 1 -24 11q-6 7 -14 12q-10 7 -27 2q-13 -3 -17 -11
q-7 -16 -2 -28q7 -13 51 -43zM124 675q-19 -13 -22 -39q-1 -22 22 -37q25 -16 62 -4q42 6 78 21q25 10 24 24q0 13 -14 28q-21 12 -78 17q-43 15 -72 -10zM97 274q-1 -28 7 -44q7 -13 29 -18q13 -3 28 17q12 15 11 34q3 15 6 26q4 12 3 24q0 18 5 31q4 15 8 43q1 16 11 28
q13 15 25 33q10 13 39 12q27 -1 46 9q21 10 19 26q-1 15 -18 24q-13 9 -37 7q-25 -1 -37 -1h-21q-16 1 -30 -7q-10 -7 -18 -14q-10 -7 -25 -15q-18 -7 -34 -36q-10 -22 -6 -42q4 -15 0 -55q-1 -13 -5 -24q-7 -24 -6 -33q3 -12 0 -25zM784 696q-55 -12 -115 -4q-28 4 -71 3
q-4 3 -7 5q-4 4 -9 8q0 3 1 5q1 4 1 7q-1 3 -1 6q1 12 -2 18q-4 6 -7 15q-1 7 -16 17q-13 7 -27 7q-13 0 -28 -17q-19 -22 -17 -39v-15q-4 -4 -11 -10q-6 -4 -14 -10h-2q-67 0 -99 -17q-24 -15 -24 -30q0 -13 16 -22q24 -12 82 -19q21 -1 44 -3q9 -7 16 -16q1 -4 2 -11v-2
q-6 -7 -11 -14q-9 -7 -30 -17q-27 1 -52 -2q-51 -13 -50 -42q0 -19 23 -27q-12 -9 -30 -27q-33 -31 -34 -42q1 -7 -7 -17q-6 -7 -2 -40q1 -10 12 -19q9 -7 9 -14q-1 -12 9 -15q9 -3 13 -9q7 -9 30 -8q7 0 17 -7t14 -14q-6 -10 -18 -11q-16 0 -24 -4q-4 -12 -13 -14
q-13 0 -36 -24q-13 -13 -14 -25q-1 -13 -6 -22q-4 -10 5 -49q36 -42 82 -44q28 -1 58 -23q19 -16 45 -14q9 -6 17 -17l4 -4q-12 -27 -10 -50q7 -25 5 -57q-1 -16 4 -35q4 -13 20 -19q22 -7 26 -1q4 4 10 7q4 -1 12 16q4 40 8 56q4 19 -4 82q0 4 -1 9q6 10 22 23q19 9 38 24
q28 28 63 45l14 8q4 0 13 -1q1 -7 10 -19q12 -16 28 -21q16 -6 31 4q13 10 17 27q4 19 -7 40q-4 10 -15 20q-10 7 -22 25q-9 13 -27 28q-10 7 -18 10q-10 1 -18 9q-10 9 -21 7q-6 0 -11 3q-13 7 -25 3q-7 -4 -19 -2q-4 1 -9 -6q-4 -7 -6 -15q-1 -10 5 -17q9 -10 29 -14
q4 -1 7 -4t8 -4q4 -1 9 -4q-1 -3 -1 -7q-1 -4 -4 -12q-30 -34 -72 -50q-37 -13 -62 -5q-13 7 -38 -1q-13 -4 -29 7q-10 10 -39 11q-22 1 -41 14q-6 13 -5 25q1 7 12 11q7 4 13 14q3 7 13 10q25 4 40 21q9 12 24 8q16 -4 28 -1q12 4 23 0q4 -1 14 3q6 1 13 0q10 -3 21 5
q15 9 32 36q6 9 19 15q19 10 51 7q10 -1 25 14q10 10 9 24q0 16 8 22q6 4 0 25q-9 31 -37 44q-10 4 -15 9q-7 7 -17 5q-7 -3 -15 0q-15 4 -23 -4q-13 -13 -6 -22q15 -18 13 -26q0 -10 -12 -16q-6 -4 -16 -14q-12 -15 -26 -18q-6 -1 -12 -9q-10 -13 -24 -9q-13 4 -34 -5
q-25 -12 -44 11q-4 1 -18 0q-13 -1 -20 4q-4 4 -11 6q-6 -1 -15 5q-7 4 -8 21q16 28 26 32q7 1 17 14t21 18q9 1 16 13q3 7 17 17q10 6 17 3q6 -1 15 2q9 4 17 0q10 -7 20 -2q6 4 16 -2q12 -4 31 4q4 1 7 7q10 1 20 1q25 -1 78 14q19 7 41 -5q24 -12 51 -14q21 -1 33 -13
q18 -15 30 -41q13 -31 7 -80q-1 -13 2 -23q1 -4 0 -11q0 -16 18 -38q10 -13 23 -13q19 1 30 12q13 16 14 42q1 42 -5 59q-3 12 -3 29q0 12 -20 62q-13 34 -57 64q-34 22 -70 23t-70 -10q-16 -4 -34 5q-19 10 -58 14q-28 4 -45 3q-4 3 -7 5q-15 9 -25 19q0 1 1 2q-1 6 -1 10
q16 15 37 25q54 10 98 9q58 -1 93 -7q49 -13 78 2q28 13 29 40q0 28 -32 41q-30 9 -79 2v0z" />
            <path transform="matrix(1 0 0 -1 0 820) translate(3072 0)" d="M185 46q-3 -7 -11 -12q-6 -1 -10 -9q-3 -6 -11 -8q-7 -3 -18 -13q-9 -7 -16 -12q-12 -6 -14 -12q-1 -7 -8 -13q-7 -9 -8 -21q-1 -16 5 -28q4 -10 13 -13q7 -1 13 -5q7 -4 24 1q19 4 29 20q7 13 22 21q16 10 26 30q12 16 16 44q1 6 10 15q10 12 14 34q4 19 -9 30
q-13 10 -34 -1q-19 -12 -33 -48zM477 21q-9 19 -12 26q-3 10 -24 35q-9 16 -37 26q-22 12 -32 4q-10 -7 -13 -29q-1 -15 4 -24q4 -9 12 -23q1 -10 5 -16q6 -6 11 -16q7 -16 26 -29q13 -10 32 -5q24 7 23 16q1 7 5 13q4 1 0 22zM486 648q10 52 -1 74q-10 18 -33 17
q-22 0 -34 -20q-10 -22 -5 -64q1 -4 2 -10q-4 -6 -11 -13q-3 -1 -5 -5q-18 1 -32 -1q-33 -3 -58 -6q-25 3 -40 -2q-9 6 -14 10q-3 3 -5 4v4q-1 7 1 17q7 33 -7 52q-13 13 -37 11q-19 -1 -30 -22q-12 -22 -5 -56q1 -4 2 -12q-4 -4 -6 -8q-6 -6 -14 -13q-6 1 -11 1
q-19 3 -49 -9q-22 -6 -35 -21q-12 -13 -10 -31q1 -21 23 -30q22 -4 44 6q15 0 32 2l12 3q10 -7 19 -19l1 -2q4 -10 5 -30q0 -16 -2 -24q-3 -9 0 -27q1 -10 -2 -18q-3 -7 0 -24q1 -12 -1 -22q-4 -10 0 -29q3 -10 0 -25q-3 -19 -1 -25q0 -7 -1 -13q-4 -16 -3 -35q-1 -1 -1 -2
q-9 -10 -27 -24q-25 -1 -45 -10q-24 -6 -43 -24q-16 -15 -11 -32q4 -13 18 -21q19 -12 62 -1q33 7 60 23q24 13 56 15q16 1 33 4q22 4 40 3q21 -1 39 1q34 4 47 4q18 -1 29 -1q22 1 45 -3q28 -7 50 1q18 6 20 26q1 15 -9 29q-13 16 -43 25h-1q-1 1 -3 4q-6 7 -11 14
q0 16 -1 31q-4 16 -2 27q6 37 3 59q-7 22 -6 41q1 16 -9 38q-4 10 -14 11q-18 -3 -27 -25q-10 -28 -10 -43q1 -16 -3 -29q-1 -9 -1 -21q1 -12 3 -28q1 -18 -3 -49q-1 -3 -2 -7q-4 -4 -7 -10q-7 -7 -24 -19q-13 1 -24 -1q-19 -6 -42 -4q-22 3 -38 1q-6 4 -10 7q-7 4 -14 10
q-1 13 -3 25q-1 7 1 14v3q0 -3 17 -9q21 -1 29 -3q10 -1 43 5q15 -1 34 15q18 10 17 21q0 10 -15 22q-10 7 -20 8q-7 0 -21 1q-10 4 -20 3q-10 -3 -23 -2q-15 1 -32 -6q-6 -1 -10 -7q1 19 2 28q-3 10 2 25q1 4 1 9q4 -1 9 -3q22 -1 30 -3q12 -1 46 5q15 -1 34 15
q18 10 17 21q0 10 -15 22q-10 7 -20 8q-7 0 -21 1q-12 4 -22 4q-10 -4 -25 -3t-32 -6q-1 0 -4 -2q-1 10 1 22q1 4 0 16q-1 1 -1 4q10 15 22 27q7 9 14 15q1 1 6 2q25 6 42 0q25 -6 57 1q25 -16 35 -45q-1 1 -1 2t4 -9q0 -1 8 -7q4 -1 9 -1q7 -1 13 7q9 10 13 29q7 10 21 19
q27 -6 50 2q22 12 21 29q0 22 -18 34q-15 12 -33 11h-10q-7 6 -13 11q-1 3 -4 4q0 6 2 11zM862 -92q7 37 -1 82q-1 6 0 12q1 4 -2 14l-2 20q3 19 1 30q-3 9 0 20q1 7 0 21q-1 9 -1 18q0 7 -3 15q-1 7 -1 19q1 4 -1 13q-1 7 1 18q1 9 0 27q0 22 -4 32q-3 9 -2 17q1 9 0 15
t0 14q3 16 0 27q4 7 11 14q9 10 33 23q25 -4 30 -2q13 1 21 1q13 -1 28 18q13 16 11 26q-4 24 -16 32q-22 13 -59 12q-22 -1 -30 -6q-10 -6 -34 -7q-28 -1 -41 -7q-7 -4 -26 -4q-12 -1 -24 -5q-13 -4 -26 -7q-10 4 -26 10q-18 6 -38 14q0 6 1 11q0 10 -4 38q-1 12 14 40l2 8
l8 8q13 12 51 26q3 1 8 3q7 4 14 5q13 1 25 8q16 6 26 6q10 -1 25 6q9 3 17 2q10 -1 27 4q22 10 40 33q15 18 15 43q0 16 -9 25q-22 19 -40 16q-28 -9 -42 -28q-9 -10 -24 -20q-13 -7 -27 -11q-10 -1 -19 -8q-16 -10 -23 -10q-4 0 -8 -4t-9 -4q-7 -1 -14 -3q-4 -1 -9 -3
q-19 -7 -28 -5q-7 1 -15 -2q-13 7 -32 -1q-15 -7 -31 -45q-16 -34 -12 -71q1 -34 16 -56q10 -15 13 -42q3 -46 1 -62q-3 -16 0 -39q1 -12 -3 -25q-1 -6 -2 -20q6 -24 -5 -46q-18 -40 -20 -80q-1 -12 -8 -23q-4 -19 -16 -43q-4 -4 -6 -15q-1 -15 -20 -34q-10 -16 -18 -25
q-7 -10 -10 -23q-3 -15 1 -28q4 -15 17 -25q16 -10 30 -8q16 3 35 18q13 13 19 30q4 24 22 61q4 13 4 21q1 13 6 25q6 10 5 20q-1 7 2 17q1 7 3 18q-1 13 6 29q6 19 6 34q-1 7 1 14q10 19 5 44q-1 13 4 26q7 13 4 47q-1 4 -2 7q9 10 20 20q7 7 27 15h1q9 1 18 0
q10 -6 20 -16q13 -12 24 -30q-1 -9 2 -23q1 -9 0 -20q-1 -7 1 -17q1 -15 -1 -28q-4 -10 -1 -17q1 -4 0 -10q-1 -7 2 -18q3 -9 3 -25q0 -13 -3 -20q-1 -7 -1 -22q1 -9 -2 -15t-1 -20q1 -10 -2 -18q-4 -7 -1 -23q1 -10 -1 -22q-3 -15 -2 -20q0 -4 -1 -10q-6 -33 0 -72
q7 -33 25 -40q12 -6 33 1q16 6 24 40v0z" />
            <path transform="matrix(1 0 0 -1 0 820) translate(4096 0)" d="M333 765q-37 12 -61 0q-24 -16 -29 -37q-4 -18 7 -41q12 -18 32 -25q16 -3 35 -1q13 1 23 -6q7 -3 20 -1q10 3 22 3q10 1 17 -2q25 -9 47 -9q19 -1 32 4q10 3 25 -2q19 -7 39 -4q16 4 42 -1q25 -4 49 2q22 9 34 27q9 19 -1 36q-10 13 -28 13q-21 -1 -37 7q-16 4 -40 -1
q-15 -3 -28 2q-13 6 -40 6q-34 -3 -58 9q-22 12 -40 7q-22 -6 -62 14zM116 337q-10 -10 -19 -15q-9 -6 -11 -24q-1 -25 12 -37q13 -10 33 -9q18 1 38 20q54 37 89 36q22 4 44 -11q15 -7 20 -24q7 -15 3 -33v-9q-1 -13 1 -23q4 -13 15 -12q15 -1 29 9q13 12 17 23q4 13 12 22
q10 18 11 30q-1 15 -6 21q-4 6 -7 14q-3 10 -25 30q-16 16 -39 24q-21 13 -84 6q-54 -4 -76 -12q-36 -12 -57 -26zM253 105q-7 -4 -21 -21q-6 -7 -13 -14q-7 -6 -16 -14q-4 -1 -10 -4q-12 -6 -17 -6q-9 -1 -18 -5q-16 -9 -30 -9q-24 1 -43 -13q-22 -13 -31 -27q-7 -19 2 -38
q16 -19 32 -21q31 -7 65 9q28 13 34 20q4 6 17 9q16 7 34 25q22 12 26 20q4 9 11 14q13 9 17 22q12 19 28 45q13 19 10 40q-4 19 -17 21q-16 1 -29 -17q-19 -25 -31 -36zM791 522q-4 -16 -15 -33q-9 -15 -23 -26q-10 -7 -16 -19q-13 -19 -19 -22t-8 -9q-3 -7 -9 -10
q-7 -4 -14 -10q-6 -4 -9 -8q-15 -16 -26 -19q-12 -3 -21 -17q-7 -10 -4 -20q6 -13 28 -16q30 -4 61 18q3 1 11 4q9 1 15 11q6 7 14 13q13 7 23 21q13 15 25 20q10 4 22 20q7 9 17 12q10 4 27 19q16 22 24 52q6 24 -6 49q-7 16 -21 21q-31 10 -47 -4q-24 -22 -29 -47z
M265 463q46 13 99 11q40 -6 79 -3h1q16 -4 28 -15q1 -12 4 -28q3 -25 2 -51q-1 -31 4 -53q7 -21 7 -39q-1 -13 4 -32q1 -12 -6 -37q-10 -37 -7 -68q1 -39 -3 -78q-4 -33 0 -52t-1 -55q-12 -57 -4 -85q10 -22 30 -32q22 -7 44 8q15 13 22 46q3 30 -3 57q-3 21 -2 31
q4 22 -1 41q-6 19 -5 40t7 44q1 12 1 23q1 3 2 3q7 13 11 27q9 -10 16 -21q12 -22 42 -35q15 -4 26 -16q30 -40 54 -48q22 -6 39 -22q46 -40 86 -46q15 0 30 -7q28 -13 52 -10q33 4 45 36q7 21 1 32q-7 9 -10 16q-1 12 -19 19q-21 19 -63 20q-16 1 -25 9q-16 10 -46 12
q-13 4 -30 13q-15 7 -33 20q-22 13 -38 23q-19 13 -39 28q-16 12 -21 18q-3 12 -11 14q-18 10 -21 18q-6 16 -19 28q-7 4 -11 8q-1 18 -5 31t-12 31v34q-3 27 2 48q3 19 4 36q4 9 17 17q1 1 5 1q22 6 25 24q1 19 -25 31q-30 13 -81 21q-21 4 -41 6q-25 1 -56 3q-34 1 -58 -2
q-21 -3 -42 -1q-22 4 -47 12q-43 16 -80 0q-31 -16 -33 -47q-1 -31 34 -50q33 -16 75 -7v0z" />
            <path transform="matrix(1 0 0 -1 0 820) translate(5120 0)" d="M171 106q-28 9 -60 -15q-16 -13 -16 -38q1 -21 22 -32q21 -10 48 -2q40 7 83 15q24 6 36 20q10 10 5 26q-4 12 -34 19q-25 10 -47 3q-15 -3 -37 4zM743 -45q-88 13 -140 10q-4 0 -9 -2q-10 7 -17 14q-6 4 -10 9q1 19 1 39q-3 12 -4 22q4 4 8 7q6 7 13 12q10 0 21 -3
q21 -4 41 -3q16 1 34 -5q12 -6 47 -7q37 -1 83 -26q36 -16 70 -6q25 7 31 27q6 19 -6 35q-15 19 -43 28q-31 9 -64 4q-16 -1 -49 8q-43 10 -77 13q-37 4 -84 1q-18 13 -27 24l-7 7q0 1 1 1q1 13 -2 28q-1 19 -1 36v14q9 10 19 19l3 3q12 -1 46 6q21 6 40 4q12 -9 20 -23v-5
q-3 -13 -1 -20q-1 -16 0 -29q3 -13 13 -18q13 -4 21 6q10 18 13 33q0 4 4 10l3 9q0 1 2 6q13 10 28 18q6 0 19 1q10 3 31 0q36 -10 74 -7q31 1 53 20q13 10 13 26q-1 16 -24 31q-22 13 -49 11q-19 -3 -44 2q-27 4 -48 -2q-3 3 -5 4q-3 3 -6 5q4 15 6 29q-1 19 -10 30
q-6 7 -26 12q-12 1 -31 -8q-19 -13 -27 -39q-3 -9 -3 -20q-3 -1 -3 -3q-10 -7 -25 -17q-31 9 -83 5q-7 7 -13 12q-12 13 -19 24q4 16 5 36q0 16 5 37v1q9 10 20 18q1 3 4 4q4 1 10 3q37 7 60 0q16 -4 25 -1q4 1 13 -3t29 -1q9 1 24 0q37 -10 78 -7q34 3 55 22q13 12 14 27
q-1 16 -26 32q-24 15 -51 12q-21 -3 -47 1q-40 4 -73 -14q-10 -7 -50 2q-25 10 -72 6q-4 3 -6 5l-8 8q0 16 2 34q1 15 1 24q10 12 40 25q13 3 30 1q21 -3 47 6q21 7 38 0q22 -6 41 2q33 13 45 36q10 25 -13 44q-24 16 -53 13q-27 -3 -47 -13q-22 -10 -45 -9q-22 1 -38 -6
q-16 -6 -48 -2q-28 4 -52 -8q-16 -7 -28 -9q-13 -1 -35 2q-31 9 -56 1q-22 -7 -53 0q-22 4 -34 11q-18 10 -57 13q-25 3 -43 -9q-19 -12 -20 -24q0 -24 16 -41q13 -10 44 -17q37 -7 49 -7q25 -1 36 2q27 9 51 0q22 -9 52 -6h9q4 -1 8 -6q10 -7 19 -17q-1 -12 4 -28
q1 -7 4 -18q-3 -1 -5 -5l-8 -6q-6 1 -17 -1q-18 -7 -39 -5q-57 -1 -80 -5q-40 -4 -79 7q-28 10 -53 8q-24 -1 -42 -17q-16 -15 -17 -34q0 -22 20 -35q28 -16 68 -5q34 -4 51 1q9 4 21 0q15 -6 48 -3q39 1 72 6q27 3 45 3q16 -10 29 -23q-3 -18 2 -32q6 -19 9 -42
q-7 -9 -16 -19q-9 -7 -21 -17q-3 1 -6 1q-6 3 -29 -1q-22 -7 -50 -6q-4 0 -6 -2q-15 9 -24 16q0 1 1 3q3 25 -5 47q-7 18 -20 25q-9 4 -29 1q-12 -3 -26 -19q-12 -19 -11 -46q1 -10 5 -22l-10 -10q-42 0 -79 11q-27 10 -51 8q-22 -1 -39 -16q-16 -13 -17 -32q0 -21 19 -33
q25 -15 64 -5q45 -6 66 0q12 4 27 0q9 -3 28 -4q15 -7 25 -18q1 -1 2 -6q3 -13 7 -20q3 -15 10 -26q9 -12 19 -12q13 1 17 13q4 21 0 36q-1 4 0 10q1 4 0 10l-1 1q4 7 10 13q18 3 37 5q46 6 71 3q4 -1 10 -2q7 -6 13 -13q-3 -13 1 -31q1 -19 -1 -40l-2 -12q-4 -6 -9 -12
q-7 -10 -18 -20q-40 1 -79 -7q-28 -7 -48 -18q-16 -10 -14 -26q3 -15 20 -19q24 -6 42 -4q30 4 68 4h4q4 -3 12 -8q7 -4 14 -12q-1 -1 -1 -5q-6 -27 -4 -54v-6q-13 -10 -35 -26q-9 0 -18 1q-25 7 -49 0q-28 -4 -54 2q-25 6 -63 -9q-22 -6 -37 -21q-13 -13 -11 -33
q1 -22 24 -31q25 -6 47 6q19 -1 41 1q22 3 53 17q25 10 66 8q31 -7 68 1q34 4 54 -3q40 -10 84 -1q58 7 113 -10q34 -12 61 -1q22 12 22 30q0 24 -18 36q-16 13 -35 12q-16 -1 -38 1v0z" />
            <path transform="matrix(1 0 0 -1 0 820) translate(6144 0)" d="M167 688q-31 10 -63 -16q-18 -13 -17 -39q1 -22 23 -34q22 -10 51 -2q42 7 86 16q25 6 39 21q10 10 5 27q-4 12 -36 20q-27 10 -49 3q-16 -3 -39 4zM566 -15q7 48 5 153q1 93 -4 113q-7 22 -1 58q7 64 -4 102q-7 16 -6 46q0 12 -2 21l6 8q19 31 48 73q9 9 15 20
q12 10 27 19q21 12 74 26q1 1 8 0q37 -1 82 -27q37 -16 73 -7q28 9 33 29q6 19 -6 37q-16 19 -46 29q-31 10 -67 4q-16 -1 -48 9q-43 10 -76 14q-39 4 -90 1q-64 -4 -102 -1q-54 4 -104 -6q-28 -7 -50 -19q-16 -10 -15 -27q3 -15 22 -20q25 -7 43 -4q30 3 68 3h10
q21 -9 37 -25q19 -16 34 -40q-10 -19 -21 -37q-28 -39 -46 -85q-1 -1 -2 -5q-7 -9 -16 -22q-10 -15 -24 -33q-9 -4 -20 -14q-16 -19 -51 -42q-22 -15 -43 -39q-19 -22 -56 -34q-22 -7 -87 -43q-16 -9 -48 -13q-37 -4 -58 -22q-24 -19 -15 -45q7 -19 25 -30q19 -10 61 -2
q22 1 46 18q30 21 51 30q48 19 77 49q28 30 53 47q24 16 69 74q4 7 9 13q19 1 38 4q10 1 21 1q-1 -45 -5 -82q-7 -45 1 -65q3 -15 3 -58q-7 -37 -2 -85q4 -39 -23 -54q-18 -4 -56 11q-24 1 -36 -13q-19 -22 -7 -44q12 -27 47 -41q42 -22 85 -21q37 4 49 36q10 22 17 57z
M712 299q7 -10 9 -16q4 -13 15 -31q12 -18 20 -27q4 -7 20 -23q22 -22 28 -31q7 -10 15 -14q4 -3 13 -12q13 -13 18 -15q6 -4 10 -9q7 -9 20 -15q19 -10 34 -14q30 -4 45 3q13 4 21 25q7 22 -1 42q-9 19 -37 27q-21 6 -37 18q-4 4 -17 8q-10 4 -19 12q-7 9 -21 16
q-9 6 -18 13q-10 10 -17 15q-10 7 -15 16q-3 4 -9 9q-6 4 -9 10q-6 9 -14 16q-7 6 -12 15q-7 12 -18 22q-22 21 -38 29q-13 6 -28 4q-7 -1 -12 -8q-3 -4 -1 -15q1 -15 14 -29q18 -19 41 -41v0z" />
            <path transform="matrix(1 0 0 -1 0 820) translate(7168 0)" d="M265 661q13 -58 9 -102q-4 -4 -5 -10q-6 -10 -15 -20q-16 1 -23 -2q-10 -6 -23 -4q-13 4 -25 0q-13 -1 -27 1q-12 3 -31 -5q-22 -6 -37 -21q-13 -13 -11 -33q1 -22 24 -31q25 -6 47 6h20q10 1 25 9q13 4 32 4q12 -1 29 0q1 0 3 -2q16 -10 25 -29q3 -16 4 -34
q1 -16 11 -22q16 -7 31 13q12 19 12 52v6q7 9 18 15q0 1 1 1q10 -1 20 -4q34 -12 61 -1q22 12 22 30q0 24 -18 36q-16 13 -35 12h-36q-16 13 -25 26l-1 1q6 16 0 39q0 30 5 74q7 40 0 54q-16 25 -40 24q-30 -1 -43 -29q-12 -22 -4 -54zM350 -31q-6 39 -3 72q-4 22 -1 42
q4 19 -2 46q-4 19 -1 35q1 16 0 33q0 1 1 1q4 9 15 18q9 -4 21 -10q13 -10 39 -8q22 -3 28 7q7 9 1 28q-4 13 -12 19q-7 6 -17 14q-12 18 -26 26q-19 6 -37 20q-10 9 -25 13q-13 25 -24 26q-9 -1 -21 -20q-1 -1 -1 -3q-9 -4 -12 -13q-13 -19 -32 -40q-7 -15 -29 -33
q-16 -12 -32 -18q-18 -6 -31 -16q-16 -9 -39 -19q-21 -7 -30 -30q-7 -16 -1 -38q13 -18 39 -19q25 -1 46 17q13 13 25 19q16 10 23 19q15 16 19 17q10 6 26 29q1 1 2 3q6 -4 12 -12q1 -3 5 -7q0 -7 -1 -17q-4 -24 -1 -47q3 -22 -3 -42q-4 -19 -4 -47q1 -22 -9 -56
q-4 -25 -3 -52q4 -24 18 -42q13 -12 28 -13t29 10q12 10 18 32q4 25 2 56zM851 667q-64 10 -104 9q-31 -1 -55 -3q-34 4 -49 -2q-16 -7 -35 -5q-19 6 -36 1q-21 -3 -40 2q-19 4 -47 -6q-22 -6 -37 -21q-13 -13 -11 -33q1 -22 24 -31q25 -6 47 6q13 -1 30 0q13 1 33 10
q15 -7 29 -22q1 0 2 -2q-1 -10 0 -23q1 -16 -2 -40q-7 -34 -4 -52q1 -27 0 -49q1 -10 8 -24q7 -9 14 -23q4 -10 15 -18q13 -7 33 -3q16 3 23 19q7 12 18 19q13 12 11 25q-1 10 -17 10q-22 1 -29 12q-7 10 -5 29q7 18 6 29q0 13 5 22q7 12 9 23q1 15 4 25q4 9 6 20
q7 13 29 25q24 -4 50 2q43 4 83 -9q34 -12 61 -1q22 12 22 30q0 24 -18 36q-16 13 -35 12q-16 -1 -38 1zM796 376q19 -7 21 -16q-1 -7 6 -18q4 -4 3 -16q-4 -31 0 -47q9 -31 5 -64q-1 -9 0 -18q1 -13 -4 -35q-1 -9 -2 -25q1 -10 -4 -25q-1 -10 -6 -26q-1 -10 -9 -18
q-10 -16 -13 -34q0 -31 -27 -41q-30 -16 -52 -9q-102 1 -147 26q-4 7 -23 7q-10 7 -23 2q-13 -4 -21 -21q-1 -9 -5 -15q-4 -10 1 -22q6 -16 25 -25q24 -6 48 -22q10 -12 34 -15q37 3 72 -9q39 -15 70 -5q22 1 42 6q12 -1 16 6q9 10 17 10q12 4 19 12q4 9 9 13q10 4 18 36
q4 19 14 31q13 21 13 52q-1 10 3 24q13 31 11 90q-1 19 1 32q7 19 2 69q-6 21 -5 31q3 21 -2 35q-1 10 -4 24q0 18 -21 34q-10 9 -18 20q-3 4 -33 10q-25 1 -41 -6q-10 -4 -10 -11q-1 -13 20 -27v0z" />
        </g>
    </symbol>
    <use width="800" height="100" x="0" y="0" xlink:href="#Title"/>
</svg>
