<svg xmlns="http://www.w3.org/2000/svg" xmlns:xlink="http://www.w3.org/1999/xlink" version="1.1"
    width="256" height="64" viewBox="0 0 256 64">
    <symbol id="a" viewBox="0 0 8192 2048">
        <path transform="matrix(1 0 0 -1 0 1638)" d="M77 -135q56 69 80.5 105.5t56 99.5t71.5 189l36 -16l11 -76l67 -21l70 31l36 -16q-48 -111 -88 -188t-140 -244l-36 25l3 69l-81 41l-50 -23z
M108 1441l221 -6h255l-5 114h33l30 -63h38l16 65l27 3l11 -54l33 -7l17 56h39l-4 -114h381l-3 111h39l48 -46l60 -10l51 56h50 l-5 -111h288l200 6v-36l-43 -23l-7 -71l50 -51v-41l-200 8h-288l5 -99h-53l-41 48l-98 10l-27 -58h-29l3 99h-381l4 -99h-42l-34 55l-88 6l-44 -61h-36l5 99h-255l-221 -8v48l62 47l-10 48l-52 40v39z
M89 546q49 10 114 28t157.5 72t150.5 97t105 96h-260l-232 -8v31l52 34 v77l-52 31v47l232 -6h453q24 35 43.5 66.5t47.5 104.5l48 -17l1 -60l78 -37l74 42l44 -16q-20 -40 -55 -83h599l213 6v-41l-48 -20l-17 -60l65 -55v-44l-213 8h-773l-59 -69l741 1l-7 -95l105 17v-266l8 -146l-165 7h-449q30 -36 46 -52l67 -70l43 -48l-26 -23l-61 14 l-64 -47l12 -65l-33 -29q-22 33 -56.5 83t-156.5 174l27 16l75 -14l37 31l-31 30h-244l-177 -7l7 146v89q-101 -68 -325 -185l-20 30l24 76l-27 54l-90 12z
M784 473h675v106h-675v-106z
M1337 118l49 -27l16 -92l60 -20l58 38l33 -17q-56 -182 -94.5 -220.5t-94 -57 t-177.5 -19.5q-431 -4 -508 25.5t-91 60.5t-14 86v196l-5 164h36l41 -45l77 -3l31 48h55l-5 -158v-106q0 -24 18 -40.5t60 -15.5t123.5 -4.5t195 12.5t122.5 107l14 88v0z
M1522 135l43 27l39 -26l75 10l-1 89l31 20q27 -41 42 -60l94 -120q5 -8 136 -189l-30 -25l-56 20 l-68 -44l6 -72l-41 -34q-30 56 -47 86t-78.5 125.5t-84.5 122.5l-60 70v0z
M2158 468l3 63l68 3l-14 81l-57 38v38l243 -7h1374l206 7v-42l-54 -57l3 -41l51 -23v-64l-208 7h-579v-130h404l141 8l-1 -51l-44 -24l-24 -74l58 -3l11 -74l-143 8h-402v-178q127 -19 340 -21.5t478 37.5l-22 -81l-76 -28v-20l63 -17l-6 -24l-74 -6v-20l67 -24l-6 -54 q-74 0 -292.5 1t-396 13t-283 40t-185 81.5t-115.5 102.5l-50 63q-73 -121 -134.5 -188.5t-176.5 -139.5l-38 55l43 83l-54 27l-57 -27l-61 58q135 73 202 144t96 166t41 197l9 75l89 -21l-8 -73l50 -7l73 64l58 -8l-40 -141q29 -79 75.5 -134.5t76.5 -71.5l72 -45v466h-553z
M2485 755l7 180v430l-7 152h85l20 -85l61 24l30 51l51 3v-288h686v81h-646l4 48l47 27l13 61l-64 34v37h794l-7 -98l94 14v-508l7 -163l-210 8h-742z
M2732 956h686v79h-686v-79z
M4183 608q47 48 80.5 88t89.5 137.5t90 180t66.5 187.5t38.5 139l20 113l55 -22l5 -83l61 -14l54 61l81 -23q-45 -141 -77 -234h301v196l-7 222l80 -9l40 -81l48 14l43 71l51 5l-7 -222v-196h444l211 8l-6 -55l-65 -30l-6 -61l74 -16l3 -70l-219 6h-436l-1 -317h316l184 5 l-2 -67l-58 -47l14 -47l50 -14l-4 -62l-184 5h-315l-1 -396h565l196 7l-3 -59l-44 -14l-21 -91l65 -17l3 -59l-196 7h-1390l-264 -7v39l74 34v17l-54 13v24l51 10l7 20l-71 41l-7 42l264 -7h579l-1 396h-310l-194 -5l3 72h44l34 91l-81 21v53l194 -5h311l-1 317l-387 1 q-139 -288 -185 -353l-93 -135l-38 43l27 82l-31 47l-84 -47z
M6248 307l188 -6h394v228h-311l-182 -5l-1 61l77 44l-7 54l-70 34l1 37l182 -5h311v232h-340l-219 -5l1 75l74 27l-7 61l-67 30l-1 39l189 -7h370v137l-7 186l59 -1l44 -70l54 17l28 53l66 1l-6 -184v-1485l6 -165l-46 -2l-37 78l-14 -7l-7 -67h-20l-17 60l-17 -3l-30 -57 l-63 -2l7 172v222h-397l-185 -5l-3 84l77 4l-10 77l-64 27v36z
M7249 1541l69 -4l44 -64l30 3l34 64l69 1l-4 -165v-161h387l173 5v-54l-81 -47l50 -14l-50 -24l-4 -17l81 -27l4 -46l-163 4h-398l1 -232h359l148 5l-1 -41l-58 -34l-13 -44l64 -30l8 -79l-143 5h-364v-253h435 l168 5v-49l-64 -21l-7 -50l65 -38l6 -75l-142 5h-461v-240l7 -154h-55l-61 54l-61 -7l-17 -47h-55l5 149v1533z"/>
    </symbol>
    <use x="0" y="0" width="256" height="64" xlink:href="#a" />
</svg>
