<svg xmlns="http://www.w3.org/2000/svg" xmlns:xlink="http://www.w3.org/1999/xlink"
    width="64" height="100" version="1.1" viewBox="0 3 64 100">
    <style>
        #囧斋 { fill: cyan;}
    </style>
    <symbol id="囧斋" viewBox="0 0 256 400">
        <path transform="matrix(1 0 0 -1 0 204)" d="M47 177q32 -1 74 -1q44 0 80 2q27 -2 26 -22q-2 -5 -3 -10v-12v-117q0 -24 -24 -17q-21 2 -70 2q-50 0 -76 -2q-23 -6 -20 17q1 62 -2 144q-3 16 15 16zM66 13l30 1q0 22 -1 34v23q-3 9 11 10q24 2 42 1q12 -3 12 -12q-2 -5 -3 -18q-1 -11 -2 -38h35q20 -2 21 20v56
t-1 54q-2 21 -20 23q-66 3 -122 -3q-21 -3 -22 -21q-1 -30 -1 -61t1 -52q1 -18 20 -17zM107 65v-34q1 -14 1 -17h36v27q1 16 1 24q-1 5 -7 6q-10 0 -15 -1h-11q-4 -2 -5 -5zM164 126q11 -12 27 -35q2 -4 0 -6q-3 -1 -5 2q-26 22 -36 28q-9 5 0 12q7 7 14 -1zM93 125
q1 8 13 -1q6 -8 -2 -15q-3 -3 -7 -5q-16 -14 -32 -22q-3 -2 -5 -1q-1 2 2 5q23 19 31 39z" />
        <path transform="matrix(1 0 0 -1 0 204) translate(0 -200)" d="M114 172q-4 8 8 10q13 -1 10 -12q-3 -5 -3 -9q52 0 70 -1q4 -1 6 -3q1 -3 -2 -6q-6 -6 -15 -3q-6 1 -15 2l-18 2q-6 -13 -15 -27q55 -20 91 -24q6 -1 7 -3q0 -1 -4 -6q-10 -13 -22 -6q-34 16 -78 34q-51 -34 -107 -30q-9 1 -8 9q1 5 12 4q49 -6 89 18q1 0 1 1t-1 2
q-27 8 -29 7q-6 -1 -7 1q-1 3 2 8q2 6 11 3q20 -9 32 -13q10 8 12 22q-17 0 -40 -1q-25 -2 -44 -4q-8 -1 -9 3t6 10t13 3q8 -3 41 -3q7 1 10 1q0 7 -4 11zM78 90q7 -2 31 -1q13 1 20 1h32q17 0 32 -1q7 -1 7 -7q-1 -5 -8 -4q-29 1 -56 2q-6 -7 -6 -16h14q23 0 31 -1
q26 -4 19 -17q-3 -6 -1 -13v-10q1 -8 1 -16q-1 -6 -7 -7q-5 1 -5 8q-2 8 -1 27q-1 14 -9 18q-7 1 -11 2q-7 2 -7 -14q0 -5 -1 -14q-1 -10 0 -14q-1 -6 -6 -6t-4 6v34q0 9 -5 9h-5h-9q-5 0 -6 -6q-1 -2 -1 -36q-2 -4 -6 -6q-3 -1 -3 4q-2 20 -2 37q0 6 -5 5l-12 -2
q-8 -3 -10 -13q-1 -11 -2 -28q-2 -9 -11 -8q-5 1 -3 9q7 23 4 39q-3 14 10 13q5 -2 14 -2t27 2q2 5 0 16q-39 1 -48 -3q-5 -4 -8 0q-4 4 1 8q6 7 15 5z" />
    </symbol>
    <use width="64" height="100" x="0" y="0" xlink:href="#囧斋"/>
</svg>
