<svg xmlns="http://www.w3.org/2000/svg" xmlns:xlink="http://www.w3.org/1999/xlink" version="1.1"
    width="64px" height="160px" viewBox="0 0 48 120">
    <style>
        symbol { fill: darkblue; }
    </style>
    <symbol id="范" viewBox="0 0 512 1280">
            <path transform="matrix(1 0 0 -1 0 409)" d="M105 198q1 13 2 20.5t4.5 11t19.5 3.5q12 -1 17.5 -5.5t10.5 -6.5l-3 -3l6 -3q-1 -4 -0.5 -8.5t1.5 -4.5l6 -6q-3 -8 -15 -8l1 -3q-19 -5 -38 1q-7 2 -8 11zM111 108l44 7l-3 -7l8 -4l1 -13h3l-5 -3q2 -2 0 -3h-2h-2l1 -6l-36 -12q-2 2 -2 3l-5 1q-1 0 -3 8l-4 11z
M112 167q2 -1 4 -1l25 4h3q3 -1 7 -5q7 -2 12 -7l-1 -2l4 -6l1 -7l-12 -9v-2q-19 -5 -33 -1q-8 2 -9 5l-4 9q-3 3 -2 4zM145 312l44 15q2 14 3.5 20t4.5 6q0 -1 2 -1l13 -24l12 5q7 2 28 -2l5 1l5 -3v1q2 4 4.5 17t9 12.5t12.5 -27.5q31 2 35 -4l17 -20l-3 -3q5 -3 6 -4
l-4 -14l3 -3l-13 1l2 -6q-13 -1 -22.5 1t-12.5 2q-7 -1 -9 -4v-23q-3 -15 -5 -5q-4 -6 -6.5 -6.5t-6.5 4t-4 6.5q-1 0 0 7t0 15q-2 5 -3.5 6t-7.5 2l-15 2l-17 -3h-4l-6 -2q-1 -7 -0.5 -13.5t-0.5 -6.5l-9 -8q-9 9 -9 12l-2 14q-15 -1 -24.5 -3t-13.5 -1.5t-8 5.5q-1 2 -3 5
t-1 4zM193 230l6 1l63 6l63 -6q2 -1 8 -5.5t5 -4.5l-1 -1h3v-7q0 -4 -3 -8t-5 0l1 -2h-2l-1 -6q-9 2 -19 -6q-1 -13 -0.5 -20.5t0.5 -10.5q-1 -11 -3 -16t-15 -18t-29.5 -13.5t-32.5 16.5l-6 2l4 1l-6 5q3 -1 11.5 -0.5t26 -0.5t25 6.5t7.5 29.5v22q-8 3 -11 4l-27 -2h-16
l-17 -3q-15 -1 -19.5 -3.5t-4.5 -1.5l-4 5l-3 3v5l-3 5q-1 0 2 6.5t3 9.5v8v0zM202 180v8q7 0 9 -1.5t5 -9t4 -9.5l2 -73l-4 -21q-1 -4 1 -8q5 -23 40 -49t78.5 -34.5t68.5 -7.5q23 0 37 8l19 13q12 7 13 8l10 14v-3l4 4l7 12q1 1 5 -3l-1 -5l-1 -2l1 -8l-7 -8l2 -5l-3 -5
l-9 -16l2 -1l-3 -2l-2 -9l-4 -4q-2 -4 -3 -4l-8 -4q-6 -9 -2 -9l-6 -1q-4 -3 -5 -4t-9 -2.5t-14 -4t-4 -1.5l2 2q-7 -1 -8 -3l-3 -4h-7q-3 -5 -3 -4l-4 -1v3l-6 -2l-8 4l-16 -3l-10 5l-5 -1l-2 3v2q9 1 8.5 2.5t-15.5 2.5v-5q-4 3 -10 4l-6 -1q-6 5 -14.5 7t-15.5 9l-6 3
l-46 44q-41 39 -44 46.5t-3 16.5q-1 6 0.5 22t1.5 28z"/>
            <path transform="matrix(1 0 0 -1 0 409) translate(-10 -410)" d="M22 -77l39 16l2 -5l3 1q1 0 1 1l-3 2q3 4 4 5t28.5 14.5t41.5 41t17.5 35.5t5.5 18l2 43q1 12 1 13l-4 16q-10 -10 -14 -10l-20 2q-6 -1 -6 0l-2 7l-6 15q4 4 8 6l15 4l7 6l19 9l-1 31q-7 -1 -10 -9q-3 -1 -10 -5l-12 -4q-5 -4 -5 -3l-5 2l-10 -3q-1 0 -7 5l-11 6
q-2 0 -9 9.5t-7 13.5q-1 0 0 1l1 7l-2 8l4 11q2 9 3 10l5 1q1 8 8 13.5t8 5.5l3 -1q1 4 7 7.5t7 1.5v4q6 0 9 10l10 1q-1 15 -4 21l-13 12q-9 8 -8 16v6q20 -8 23 -11l19 -23q10 3 13 7l6 9l8 3l5 5q2 -3 4 -3l6 -1l10 -6l8 -2q0 -1 3 -6l8 -13l-1 -4q1 0 3.5 0.5t3.5 -7.5
l-1 -8q-1 -5 -1 -6l-6 -6l2 -2q-5 -8 -8 -5q-2 -7 -3 -9l-15 -16q-2 -4 -7 -4l3 -3l-2 -2q-2 -2 -1 -2v-2q-3 -2 -4 -2.5t-4 -9.5l-5 -11l1 -17l-2 -11q10 6 17.5 5.5t16.5 -10.5q0 -4 -0.5 -7.5t-5.5 -9.5h4q-24 -13 -27 -19t-3.5 -8t0.5 -3l1 -12l-3 -51q-2 -24 -5 -37
l-10 -28q-4 -12 -6.5 -17t-15.5 -20.5t-25.5 -21.5t-20.5 -9l-17 -3q-10 -4 -10 -3l-6 4q5 -5 -13 -5v3q-12 1 -17 -1t-10 3zM214 85q0 10 4 12l5 1l4 6q1 1 6 1.5t11.5 5.5t13.5 2l2 2q5 -1 8 1l8 5h5l3 6l13 3l2 4l2 2l-2 7q-1 0 2.5 5t3.5 9l-1 8q-29 -4 -30 12v4
q-1 2 -0.5 3t0.5 2l-5 3l1 6q-3 2 -3 4l6 12q1 4 2 5h7l6 3l2 -1h6h12q-1 4 -1 6l1 17q-2 7 -12 5l-28 -4q-4 -2 -4.5 -2.5t-7.5 6.5l-4 3q-4 2 -4 10l-1 13q-2 7 -1.5 9t9.5 7q20 11 21 11l20 1l3 3l6 -3q0 -1 2 1t8 3h3l6 -2l3 1t22 -1h18l10 -2v-2q10 -2 14.5 -4.5
t12.5 -13.5t6 -14l-5 -10l-7 1l6 -11h-5l-1 -2l-13 1q-2 -1 -8 -3.5t-25 0.5l-1 2l-10 -3l-1 4q-5 2 -9 1t-4.5 -4t1.5 -8l3 -12q2 -2 4 -2l7 1l6 -5l7 -2l6 -6l6 -4l3 -8q-8 -3 -6 -4l3 -3q-7 -6 -5 -7l2 -4l-13 -4q1 -3 0.5 -5t-19.5 -4q-6 -16 -4 -18l5 -19l10 -2
q2 -3 7 -5q6 3 13 -1q2 0 4 1l14 -6l10 -3q1 2 1.5 1.5t5 -6t11.5 -2.5q4 -6 12 -7q0 -2 -0.5 -3.5t0.5 -1.5l6 -7l-3 -4l1 -11q-5 -1 -5 -2l-1 -5q-19 -14 -22 -15t-16 0t-18 2.5t-9 -0.5l-17 2l-51 -2l-37 -2q-15 1 -20 6l-8 11l-5 3v10l-2 6v0z"/>
            <path transform="matrix(1 0 0 -1 0 409) translate(0 -730)" d="M103 130v11l5 1q-4 2 -3.5 3.5t6 6.5t22.5 12.5t23 8.5l18 -1l5 2l-4 2q26 6 49 4l-1 31q-7 -1 -9 -1l-11 -3h-8l-14 -6q-1 1 -1 2l-7 -2q-1 -1 -5 1l-17 1l-8 12h-3q-2 7 -2.5 11t1.5 12.5t7 12.5t31 12l23 5l21 5l8 -1l3 41q10 -9 18 -20l2 3l2 -21l26 -1l33 -5
q26 -4 32 -7l16 -15l4 -4l-2 -4q7 -6 6 -7l-6 -6l1 -8v-3l-5 1l1 -1l-4 -3l-1 -13l-4 2l-67 14l-35 -2q-6 -16 -5 -19l3 -17q9 1 13 0.5t6.5 -1t3.5 -0.5l13 6q1 -1 5 -3.5t10 3.5l8 -1q3 0 5 1l31 -9l22 -3l2 -6q6 -2 9.5 -4.5t3.5 -3.5l-1 -2l7 -3l1 -5h-3l8 -10l-6 1
l3 -4l-3 -3l3 -2l-2 -7l1 -1h-5l2 -4l-6 -4v-4h-6l-62 14l-12 -1l-32 2l9 -13l56 -71q0 -1 25.5 -24t36.5 -31t43 -8q10 -1 17 2l21 9q7 0 9 2l2 3l6 3l8 5l-4 -5l10 5q-1 -4 -0.5 -7t0.5 -4q-1 -10 -14 -25l-3 -6l-9 -7l-3 -7l-10 -9l-3 -5l-16 -2l-12 -2q-2 0 -6.5 3
t-6.5 4h-8q-5 0 -14 10l-28 26l-33 39l-14 16l-33 43q-21 26 -21 27l-10 6l-7 10l-14 9l-10 -22l-31 -55q-3 -6 -16 -12t-29 -15q-12 2 -21 -3l-7 3h2l-9 6l-4 5h4q0 3 -4.5 8t-5 3.5t5.5 -0.5q2 0 6.5 -2t16.5 3l25 8q20 8 35 31t16 27l4 15q-6 1 -9 0.5t-9 -3.5l-6 2
q-1 -1 -5 -3l-20 -2l-6 -5l-4 2l-12 -8q-2 1 -2 2l-6 -2l-2 1l-8 -3q-1 0 -5 2.5t-9.5 4t-4.5 10.5q-4 -4 -5 1z"/>
    </symbol>
    <use width="48" height="120" x="0" y="0" xlink:href="#范"/>
</svg>
